<?xml version="1.0" encoding="UTF-8" standalone="no"?>
<!-- Created with Inkscape (http://www.inkscape.org/) -->
<svg
   xmlns:dc="http://purl.org/dc/elements/1.1/"
   xmlns:cc="http://web.resource.org/cc/"
   xmlns:rdf="http://www.w3.org/1999/02/22-rdf-syntax-ns#"
   xmlns:svg="http://www.w3.org/2000/svg"
   xmlns="http://www.w3.org/2000/svg"
   xmlns:sodipodi="http://sodipodi.sourceforge.net/DTD/sodipodi-0.dtd"
   xmlns:inkscape="http://www.inkscape.org/namespaces/inkscape"
   width="683.88574"
   height="444.98666"
   id="svg1929"
   sodipodi:version="0.32"
   inkscape:version="0.44.1"
   version="1.0"
   sodipodi:docbase="C:\Documents and Settings\Proprietário-de-HP\Os meus documentos\As minhas imagens"
   sodipodi:docname="ambigram2.svg">
  <defs
     id="defs1931" />
  <sodipodi:namedview
     id="base"
     pagecolor="#ffffff"
     bordercolor="#666666"
     borderopacity="1.0"
     gridtolerance="10000"
     guidetolerance="10"
     objecttolerance="10"
     inkscape:pageopacity="0.0"
     inkscape:pageshadow="2"
     inkscape:zoom="1"
     inkscape:cx="375"
     inkscape:cy="291.42857"
     inkscape:document-units="px"
     inkscape:current-layer="layer1"
     inkscape:window-width="1680"
     inkscape:window-height="990"
     inkscape:window-x="-4"
     inkscape:window-y="-4" />
  <metadata
     id="metadata1934">
    <rdf:RDF>
      <cc:Work
         rdf:about="">
        <dc:format>image/svg+xml</dc:format>
        <dc:type
           rdf:resource="http://purl.org/dc/dcmitype/StillImage" />
      </cc:Work>
    </rdf:RDF>
  </metadata>
  <g
     inkscape:label="Layer 1"
     inkscape:groupmode="layer"
     id="layer1"
     transform="translate(-22.34294,-287.0116)">
    <g
       style="fill-rule:evenodd"
       id="Layer_x0020_1"
       transform="matrix(4.745048,0,0,4.515108,-94.38241,193.7648)">
  <metadata
   id="CorelCorpID_0Corel-Layer" />

  <rect
   class="fil0 str0"
   x="24.943501"
   y="21.0138"
   width="143.438"
   height="97.831802"
   id="rect10"
   style="fill:#eae6d6;stroke:#1f1a17;stroke-width:0.70550001" />

  <g
   id="_58331248">
   <g
   id="g13">
    <path
   id="_58371112"
   class="fil1 str1"
   d="M 82.7898,43.4392 C 79.186,57.1311 75.4379,68.2836 71.6037,76.915 C 67.7439,85.5076 63.6088,91.9215 59.2068,96.1993 C 55.5757,99.6575 51.9353,101.7461 48.3,102.448 C 45.2795,103.0314 42.7145,102.3891 40.6196,100.5039 C 38.9743,99.0568 37.9632,97.3122 37.564,95.2452 C 36.673,90.6333 37.4101,85.4881 39.7595,79.8271 C 41.2614,76.2846 43.4104,72.9816 46.2219,69.9007 C 47.5742,68.4144 48.6191,67.5999 49.3393,67.4609 C 49.8133,67.3693 50.2931,67.4955 50.7932,67.8216 C 51.111,68.052 51.3113,68.3343 51.379,68.686 C 51.4606,69.1076 50.773,70.4512 49.2809,72.7229 C 44.2556,80.5634 42.2539,87.178 43.294,92.5633 C 43.6118,94.2084 44.3277,95.5577 45.4624,96.6221 C 46.7241,97.7788 48.2593,98.1824 50.0681,97.8331 C 53.668,97.1378 57.116,93.8613 60.3959,88.0205 C 64.5921,80.6029 68.6619,71.0216 72.6259,59.2879 C 74.4958,53.6905 75.8705,49.02 76.7535,45.2908 C 70.3637,47.575 65.9595,49.3883 63.5528,50.699 C 62.482,51.285 61.6013,51.6301 60.9166,51.7624 C 60.1966,51.9012 59.5098,51.7604 58.8624,51.313 C 58.4378,51.0195 58.4259,50.6688 58.3309,50.177 C 58.1083,49.0239 58.6851,47.9279 60.5364,46.9641 C 68.3508,42.8962 80.4681,38.8815 86.306,37.9752 C 88.2299,37.6766 89.106,37.4854 92.5131,37.2036 L 91.4767,42.0301 C 91.331,42.7094 89.5759,42.1728 88.4092,42.3538 C 87.2259,42.5372 86.2585,42.7255 85.4686,42.8782 C 84.8889,42.99 83.9962,43.1771 82.7898,43.4392 L 82.7898,43.4392 z "
   style="fill:#1f1a17;fill-rule:nonzero;stroke:#1f1a17;stroke-width:0.0762" />

    <path
   id="_58369360"
   class="fil1 str1"
   d="M 90.5348,46.7383 C 86.931,60.4303 81.7347,74.8834 76.6972,82.8697 C 70.9748,91.9419 68.1652,94.05 63.7428,98.3035 C 62.2955,99.6952 58.3241,101.9529 58.4736,101.5305 C 58.8032,100.5996 62.1959,96.9178 64.7119,93.8447 C 69.6342,87.8329 76.2797,72.8905 80.2304,61.1529 C 82.1127,55.5604 83.475,50.8851 84.3579,47.1558 L 85.4028,42.7827 L 92.4916,37.5543 C 91.8394,40.6157 91.5542,42.4522 90.5348,46.7383 L 90.5348,46.7383 z "
   style="fill:#1f1a17;fill-rule:nonzero;stroke:#1f1a17;stroke-width:0.0762" />

    <line
   id="_58368400"
   class="fil2 str1"
   x1="60.481098"
   y1="49.4879"
   x2="64.299797"
   y2="58.300301"
   style="fill:none;stroke:#1f1a17;stroke-width:0.0762" />

    <path
   id="_58367200"
   class="fil1 str1"
   d="M 62.8374,48.4708 C 64.1103,51.4082 65.8318,55.1507 66.6561,57.2831 C 67.4803,59.4156 68.2142,59.8764 67.2156,60.0761 C 65.9885,60.3219 65.352,60.233 63.8575,58.8697 C 62.3629,57.5065 60.5362,54.5364 58.5888,51.0816 C 60.1599,50.4035 61.2666,49.1489 62.8374,48.4708 z "
   style="fill:#1f1a17;fill-rule:nonzero;stroke:#1f1a17;stroke-width:0.0762" />

    <path
   id="_58366128"
   class="fil2 str1"
   d="M 62.568,99.5303 C 69.4863,96.4105 75.7256,91.2568 80.104,87.6883 C 83.0227,85.086 93.2645,75.6516 98.1617,70.0917"
   style="fill:none;stroke:#1f1a17;stroke-width:0.0762" />

    <path
   id="_58364872"
   class="fil1 str1"
   d="M 64.5553,98.7918 C 62.5281,99.7047 61.8785,100.2235 58.4736,101.5305 C 66.2462,96.164 70.5079,92.8799 75.5249,88.7266 C 79.1509,85.7251 80.833,84.0796 84.8567,80.0957 C 88.0689,76.9155 88.6725,76.5362 94.287,69.537 L 98.0876,71.6123 C 94.8238,75.6901 91.8564,78.978 89.2592,81.2697 C 84.1275,85.7697 83.465,86.0948 79.7284,89.1129 C 75.6072,92.4588 69.2287,96.2643 64.5553,98.7918 L 64.5553,98.7918 z "
   style="fill:#1f1a17;fill-rule:nonzero;stroke:#1f1a17;stroke-width:0.0762" />

    <path
   id="_58363176"
   class="fil1 str1"
   d="M 98.0876,71.6123 C 94.9069,70.8185 92.0686,70.0454 89.5272,69.9511 C 87.3794,69.8715 85.9065,69.9604 84.0961,69.9648 C 82.3312,70.0768 84.1467,68.9522 86.9483,68.6098 C 90.6668,68.1553 96.33,68.6811 100.0642,68.9841 C 99.4053,69.8603 98.7465,70.7364 98.0876,71.6123 L 98.0876,71.6123 z "
   style="fill:#1f1a17;fill-rule:nonzero;stroke:#1f1a17;stroke-width:0.0762" />

   </g>

   <g
   id="g22">
    <path
   id="_58361384"
   class="fil1 str1"
   d="M 110.535,96.42 C 114.1389,82.728 117.8869,71.5755 121.7212,62.9441 C 125.581,54.3515 129.716,47.9376 134.1181,43.6598 C 137.7492,40.2016 141.3896,38.113 145.0248,37.4111 C 148.0453,36.8277 150.6103,37.47 152.7053,39.3552 C 154.3506,40.8023 155.3616,42.547 155.7608,44.6139 C 156.6518,49.2259 155.9148,54.371 153.5653,60.032 C 152.0635,63.5745 149.9145,66.8775 147.103,69.9584 C 145.7507,71.4447 144.7057,72.2592 143.9855,72.3982 C 143.5115,72.4898 143.0317,72.3637 142.5317,72.0375 C 142.2138,71.8071 142.0136,71.5248 141.9459,71.1731 C 141.8643,70.7515 142.5519,69.408 144.044,67.1362 C 149.0693,59.2957 151.0709,52.6811 150.0309,47.2958 C 149.713,45.6508 148.9972,44.3014 147.8624,43.237 C 146.6007,42.0803 145.0655,41.6767 143.2568,42.026 C 139.6568,42.7214 136.2089,45.9978 132.929,51.8386 C 128.7328,59.2563 124.663,68.8375 120.6989,80.5712 C 118.829,86.1686 117.4543,90.8391 116.5714,94.5683 C 122.9612,92.2842 127.3654,90.4708 129.7721,89.1602 C 130.8428,88.5741 131.7235,88.229 132.4082,88.0967 C 133.1282,87.9579 133.8151,88.0987 134.4625,88.5461 C 134.887,88.8396 134.8989,89.1904 134.9939,89.6821 C 135.2166,90.8352 134.6398,91.9312 132.7884,92.895 C 124.974,96.9629 112.8567,100.9776 107.0189,101.8839 C 105.0949,102.1825 104.2188,102.3737 100.8118,102.6556 L 101.8481,97.829 C 101.9938,97.1497 103.749,97.6863 104.9157,97.5053 C 106.0989,97.3219 107.0664,97.1336 107.8563,96.9809 C 108.4359,96.8691 109.3286,96.682 110.535,96.42 L 110.535,96.42 z "
   style="fill:#1f1a17;fill-rule:nonzero;stroke:#1f1a17;stroke-width:0.0762" />

    <path
   id="_58357760"
   class="fil1 str1"
   d="M 102.79,93.1208 C 106.3939,79.4289 111.5902,64.9757 116.6276,56.9894 C 122.35,47.9172 125.1596,45.8091 129.5821,41.5556 C 131.0294,40.1639 135.0008,37.9063 134.8512,38.3286 C 134.5217,39.2595 131.129,42.9413 128.6129,46.0144 C 123.6906,52.0262 117.0451,66.9686 113.0944,78.7062 C 111.2121,84.2988 109.8499,88.9741 108.9669,92.7033 L 107.922,97.0764 L 100.8332,102.3048 C 101.4855,99.2434 101.7707,97.4069 102.79,93.1208 L 102.79,93.1208 z "
   style="fill:#1f1a17;fill-rule:nonzero;stroke:#1f1a17;stroke-width:0.0762" />

    <line
   id="_58356832"
   class="fil2 str1"
   x1="132.843"
   y1="90.371201"
   x2="129.02499"
   y2="81.558899"
   style="fill:none;stroke:#1f1a17;stroke-width:0.0762" />

    <path
   id="_58335016"
   class="fil1 str1"
   d="M 130.487,91.3883 C 129.2141,88.4509 127.4926,84.7084 126.6684,82.576 C 125.8441,80.4436 125.1103,79.9827 126.1089,79.783 C 127.336,79.5372 127.9724,79.6261 129.467,80.9894 C 130.9615,82.3527 132.7883,85.3227 134.7356,88.7775 C 133.1646,89.4556 132.0578,90.7102 130.487,91.3883 L 130.487,91.3883 z "
   style="fill:#1f1a17;fill-rule:nonzero;stroke:#1f1a17;stroke-width:0.0762" />

    <path
   id="_58334416"
   class="fil2 str1"
   d="M 130.757,40.3288 C 123.8387,43.4487 117.5994,48.6023 113.2211,52.1709 C 110.3024,54.7731 100.0606,64.2075 95.1634,69.7675"
   style="fill:none;stroke:#1f1a17;stroke-width:0.0762" />

    <path
   id="_58333280"
   class="fil1 str1"
   d="M 128.769,41.0673 C 130.7963,40.1544 131.4459,39.6356 134.8507,38.3286 C 127.0782,43.6952 122.8165,46.9792 117.7994,51.1325 C 114.1734,54.134 112.4914,55.7796 108.4676,59.7634 C 105.2554,62.9436 104.6519,63.3229 99.0374,70.3221 L 95.2367,68.2469 C 98.5005,64.169 101.4679,60.8811 104.0651,58.5894 C 109.1968,54.0894 109.8594,53.7643 113.5959,50.7462 C 117.7171,47.4003 124.0957,43.5948 128.769,41.0673 L 128.769,41.0673 z "
   style="fill:#1f1a17;fill-rule:nonzero;stroke:#1f1a17;stroke-width:0.0762" />

    <path
   id="_58331840"
   class="fil1 str1"
   d="M 95.2369,68.2469 C 98.4177,69.0407 101.256,69.8137 103.7974,69.908 C 105.9452,69.9877 107.418,69.8987 109.2285,69.8944 C 110.9934,69.7823 109.1778,70.9069 106.3763,71.2493 C 102.6577,71.7038 96.9945,71.178 93.2603,70.875 C 93.9192,69.9989 94.5781,69.1227 95.2369,68.2469 L 95.2369,68.2469 z "
   style="fill:#1f1a17;fill-rule:nonzero;stroke:#1f1a17;stroke-width:0.0762" />

   </g>

  </g>

 </g>
  </g>
</svg>
