<svg width="181" height="105" viewBox="0 0 181 105" fill="none" xmlns="http://www.w3.org/2000/svg">
<path d="M106.153 102.483C98.5441 102.483 93.0339 98.3507 94.7959 92.2478C95.6608 89.0442 98.6722 85.8886 103.782 83.8543C105.304 83.1976 105.688 82.2205 105.031 81.2274C103.718 79.1931 104.118 76.2457 107.402 73.9552C108.443 73.2343 108.571 72.049 107.851 71.3923C104.775 68.5731 103.99 64.6326 105.095 60.9004C106.617 55.5184 111.983 50.6649 119.672 50.6649C123.676 50.6649 125.118 51.8983 126.624 51.8983C127.28 51.8983 129.042 51.8342 130.949 51.5779C136.074 50.793 134.761 56.111 131.141 55.3101C128.594 54.7975 126.88 55.6465 127.28 58.4016C127.537 60.0995 127.409 61.7494 126.944 63.3192C125.374 68.8294 119.736 73.1543 113.04 73.1543C111.983 73.1543 111.326 73.3625 110.606 74.0192C108.571 75.8453 108.443 78.28 111.134 79.5935L117.574 82.8131C122.491 85.2319 123.869 88.916 122.876 92.3279C121.37 97.5658 114.418 102.483 106.153 102.483ZM100.835 91.2066C99.5853 95.5956 101.828 100.385 107.594 100.385C112.448 100.385 116.052 97.1814 117.045 93.7695C117.83 91.0144 116.917 88.1151 113.697 86.6094L110.285 85.0397C108.78 84.3188 107.466 84.447 106.089 85.1037C103.269 86.4813 101.555 88.7719 100.835 91.2066ZM110.606 62.4702C109.372 66.9232 109.693 71.2 113.008 71.2C116.644 71.2 119.928 66.2024 121.306 61.413C122.619 56.96 122.219 52.6992 118.855 52.6992C115.267 52.6992 111.983 57.6808 110.606 62.4702Z" fill="black"/>
<path d="M82.4929 84.6392C80.7149 86.225 79.2733 85.5042 79.2733 83.534C79.2092 79.129 79.1451 74.2114 78.8088 61.6212C78.7447 57.9371 77.8957 56.2392 76.5502 56.2392C75.5411 56.2392 74.3557 57.2163 72.85 59.5229C71.4725 61.4771 69.4382 60.3078 70.4794 58.4016C73.8912 52.4269 77.0468 50.6649 79.2092 50.6649C83.1497 50.6649 83.8705 55.5184 83.9986 59.9073C84.2549 69.9506 84.319 73.2343 84.3991 76.3739C84.4631 78.1519 85.8407 78.8727 87.2823 77.1588C88.0352 76.3418 88.756 75.5249 89.4287 74.724C92.6804 70.8637 94.971 67.2436 96.0122 63.7196C96.7971 61.0286 96.5888 59.9714 94.4905 57.873C93.0488 56.4955 92.7285 54.7975 93.1129 53.42C93.5774 51.8342 94.8909 50.6649 96.7971 50.6649C101.25 50.6649 101.122 56.8318 99.8085 61.2208C98.527 65.7539 95.5316 70.8637 90.4859 76.5981C89.7811 77.399 89.0283 78.216 88.2434 79.0489C86.5135 80.8589 84.6073 82.717 82.4929 84.6392Z" fill="black"/>
<path d="M51.3528 85.4241C47.6046 85.4241 44.0005 84.2548 43.8724 81.3555C43.8083 79.5935 45.1218 77.8796 47.0279 77.8796C48.2613 77.8796 49.1904 78.5363 49.9112 79.8498C52.2018 83.9184 57.8401 83.598 59.0895 79.8498C60.0826 76.9666 57.9843 73.5547 54.3642 69.358C50.8242 65.2253 49.6389 61.8775 50.632 58.5938C52.0736 53.9966 57.5198 50.6649 62.3092 50.6649C66.8423 50.6649 69.5974 53.7404 68.2198 56.4955C67.0986 58.6579 64.4075 58.722 62.7737 56.2392C60.7394 53.0836 56.0141 53.0195 55.085 56.3673C54.5084 58.4016 55.4214 61.413 59.3618 66.0102C63.2222 70.6715 65.0643 74.0833 63.8149 77.8796C62.4373 82.2846 57.3275 85.4241 51.3528 85.4241Z" fill="black"/>
<path d="M177.282 11.9275V46.4818H167.409V34.141H162.473V46.4818H157.537V34.141H152.6V46.4818H146.019V11.9275H177.282Z" fill="black"/>
<path d="M132.861 11.9275L142.734 24.2683V34.141L132.861 46.4818H121.343L111.471 34.141V24.2683L121.343 11.9275H132.861ZM122.166 34.141H132.039V24.2683H122.166V34.141Z" fill="black"/>
<path d="M96.6723 11.9275V2.05481H108.19V46.4818H94.2041L81.8633 34.141V24.2683L96.6723 11.9275ZM91.736 34.141H100.786V24.2683H91.736V34.141Z" fill="black"/>
<path d="M78.584 11.9275V46.4818H68.7113V34.141H58.8386V46.4818H52.2568V11.9275H78.584Z" fill="black"/>
<path d="M27.5918 11.9275H48.9826V46.4818H34.1736L27.5918 34.141L37.4645 24.2683H27.5918V11.9275ZM43.2235 39.0773V29.2047H38.2872V39.0773H43.2235Z" fill="black"/>
<path d="M24.3166 11.9275V34.141H14.4439V24.2683H9.50756V46.4818H2.92578V11.9275H24.3166Z" fill="black"/>
</svg>
