<svg width="62" height="62" viewBox="0 0 62 62" fill="none" xmlns="http://www.w3.org/2000/svg">
<g clip-path="url(#clip0_51_5517)">
<path d="M30.0213 61.5779C29.0628 61.539 28.8311 47.7634 29.5037 30.8095C30.1764 13.8556 31.4987 0.142953 32.4572 0.181816" stroke="#EAC147" stroke-width="0.310379"/>
<path d="M25.3516 61.0203C20.9601 60.1436 20.0361 45.9383 23.2883 29.2923C26.5404 12.6463 32.7371 -0.137373 37.1286 0.739388" stroke="#EAC147" stroke-width="0.310379"/>
<path d="M20.2735 59.5323C13.1028 56.7279 12.1997 41.6262 18.2559 25.802C24.3121 9.97787 35.0344 -0.577048 42.2051 2.2274" stroke="#EAC147" stroke-width="0.310373"/>
<path d="M14.5018 56.5222C5.84077 50.7451 6.31344 34.5813 15.5573 20.4195C24.8012 6.25775 39.316 -0.539591 47.977 5.23753" stroke="#EAC147" stroke-width="0.310367"/>
<path d="M8.08684 50.7817C0.0815238 41.2647 3.95774 24.6391 16.7446 13.6477C29.5315 2.65635 46.3872 1.46111 54.3926 10.978" stroke="#EAC147" stroke-width="0.310378"/>
<path d="M2.45591 40.7404C-1.87599 27.8184 7.49937 12.9284 23.396 7.48262C39.2927 2.03684 55.6913 8.0973 60.0233 21.0193" stroke="#EAC147" stroke-width="0.310377"/>
<path d="M1.07324 27.162C2.7331 13.3991 17.585 3.90657 34.2457 5.95989C50.9063 8.01321 63.0671 20.8349 61.4072 34.5978" stroke="#EAC147" stroke-width="0.310365"/>
<path d="M5.18359 15.0674C11.8747 3.80032 28.9647 1.74604 43.355 10.4789C57.7452 19.2118 63.9868 35.4252 57.2957 46.6923" stroke="#EAC147" stroke-width="0.310368"/>
<path d="M11.5527 7.47491C20.2367 0.0103402 36.0908 4.43805 46.9638 17.3641C57.8368 30.2902 59.6116 46.8202 50.9277 54.2848" stroke="#EAC147" stroke-width="0.310378"/>
<path d="M17.6787 3.38556C25.7514 -0.683293 38.3671 8.32803 45.8565 23.5126C53.346 38.6971 52.8733 54.3053 44.8006 58.3742" stroke="#EAC147" stroke-width="0.310376"/>
<path d="M23.0527 1.29337C28.8574 -0.348172 37.2286 11.5676 41.7505 27.9077C46.2723 44.2477 45.2327 58.8248 39.428 60.4664" stroke="#EAC147" stroke-width="0.310376"/>
<path d="M27.8721 0.346741C30.4796 0.0528631 34.101 13.4849 35.9608 30.3477C37.8206 47.2105 37.2146 61.119 34.6071 61.4129" stroke="#EAC147" stroke-width="0.310375"/>
<path d="M36.0063 61.2215C32.8876 61.722 29.5933 61.722 26.4746 61.2215" stroke="#EAC147" stroke-width="0.310366"/>
<path d="M46.5815 57.3994C38.2712 62.3124 24.6657 62.3892 16.1925 57.5705C16.0932 57.514 15.9949 57.457 15.8975 57.3994" stroke="#EAC147" stroke-width="0.310366"/>
<path d="M52.4062 52.9243C45.4984 59.7026 30.4217 61.9514 18.7305 57.945C15.1608 56.7217 12.182 54.9946 10.0723 52.9243" stroke="#EAC147" stroke-width="0.310366"/>
<path d="M56.5356 47.9062C51.2002 56.0069 35.5494 60.0661 21.5774 56.9721C14.3794 55.378 8.69278 52.0807 5.94336 47.9062" stroke="#EAC147" stroke-width="0.310366"/>
<path d="M59.3851 42.4691C55.7532 51.4822 40.2082 57.0814 24.664 54.9758C13.9569 53.5251 5.59647 48.6776 3.09473 42.4691" stroke="#EAC147" stroke-width="0.310366"/>
<path d="M61.0707 36.7467C59.2321 46.2998 44.3858 53.1795 27.9117 52.1135C13.9689 51.2115 2.96419 44.8307 1.4082 36.7467" stroke="#EAC147" stroke-width="0.310366"/>
<path d="M61.6295 30.8799C61.6295 40.6118 48.0231 48.5013 31.2391 48.5013C14.455 48.5013 0.848633 40.6118 0.848633 30.8799" stroke="#EAC147" stroke-width="0.310366"/>
<path d="M61.0711 25.013C62.9097 34.5658 51.0441 43.1742 34.5688 44.2403C18.0935 45.3063 3.24839 38.4262 1.40977 28.8734C1.16289 27.5906 1.16289 26.2959 1.40977 25.013" stroke="#EAC147" stroke-width="0.310366"/>
<path d="M59.3853 19.2906C63.0164 28.3036 53.3601 37.3169 37.816 39.4229C22.2719 41.5285 6.72655 35.9292 3.09489 26.9162C2.08426 24.4081 2.08426 21.7986 3.09489 19.2906" stroke="#EAC147" stroke-width="0.310366"/>
<path d="M56.5356 13.8535C61.87 21.9541 54.8708 31.0289 40.9003 34.1225C26.9295 37.2161 11.2787 33.1572 5.94215 25.0566C3.56616 21.4493 3.56616 17.4608 5.94214 13.8535" stroke="#EAC147" stroke-width="0.310366"/>
<path d="M52.4065 8.83545C59.3146 15.6138 55.4377 24.3559 43.7474 28.3613C32.0571 32.3668 16.9804 30.1189 10.0717 23.3405C5.51255 18.8669 5.51255 13.3091 10.0717 8.83545" stroke="#EAC147" stroke-width="0.310366"/>
<path d="M46.5813 4.3606C54.8915 9.27355 54.7593 17.1628 46.2862 21.9811C37.813 26.7998 24.2075 26.723 15.8972 21.81C7.70092 16.9643 7.70092 9.20629 15.8972 4.36061" stroke="#EAC147" stroke-width="0.310366"/>
<path d="M36.0055 0.538239C45.5135 2.06441 51.0874 7.77096 48.4553 13.2839C45.8232 18.7969 35.9818 22.029 26.4738 20.5028C16.9659 18.9766 11.392 13.2701 14.0241 7.75714C15.6986 4.24968 20.4249 1.50934 26.4738 0.538239" stroke="#EAC147" stroke-width="0.310366"/>
<path d="M45.0363 8.45727C45.0363 12.8756 38.8591 16.4574 31.2393 16.4574C23.6195 16.4574 17.4424 12.8756 17.4424 8.45727C17.4424 4.03892 23.6195 0.457123 31.2393 0.457123C38.8591 0.457123 45.0363 4.03892 45.0363 8.45727Z" stroke="#EAC147" stroke-width="0.310366"/>
<path d="M40.6311 6.94609C40.6311 9.95355 36.4266 12.3914 31.2399 12.3914C26.0532 12.3914 21.8486 9.9534 21.8486 6.94609C21.8486 3.93862 26.0532 1.50073 31.2399 1.50073C36.4266 1.50073 40.6311 3.93878 40.6311 6.94609Z" stroke="#EAC147" stroke-width="0.310366"/>
<path d="M35.9933 6.02411C35.9933 7.54666 33.8648 8.78096 31.2393 8.78096C28.6137 8.78096 26.4854 7.54666 26.4854 6.02411C26.4854 4.50156 28.6138 3.26727 31.2393 3.26727C33.8649 3.26727 35.9933 4.50156 35.9933 6.02411Z" stroke="#EAC147" stroke-width="0.310366"/>
<path d="M61.6295 30.8799C61.6295 47.8467 48.0231 61.6012 31.2391 61.6012C14.455 61.6012 0.848633 47.8467 0.848633 30.8799C0.848633 13.9131 14.455 0.158539 31.2391 0.158539C48.0231 0.158539 61.6295 13.9131 61.6295 30.8799Z" stroke="#EAC147" stroke-width="0.310366"/>
<mask id="mask0_51_5517" style="mask-type:luminance" maskUnits="userSpaceOnUse" x="0" y="0" width="62" height="62">
<path d="M61.9079 30.8818C61.9079 39.0677 58.6504 46.9184 52.852 52.7068C47.0536 58.4951 39.1893 61.747 30.9891 61.747C22.7889 61.747 14.9246 58.4951 9.12622 52.7068C3.32782 46.9184 0.0703125 39.0677 0.0703125 30.8818C0.0703125 22.6958 3.32782 14.8451 9.12622 9.05673C14.9246 3.26837 22.7889 0.01651 30.9891 0.01651C39.1893 0.01651 47.0536 3.26837 52.852 9.05673C58.6504 14.8451 61.9079 22.6958 61.9079 30.8818Z" fill="white"/>
</mask>
<g mask="url(#mask0_51_5517)">
<path d="M61.6398 30.9255C61.6398 47.8902 47.803 61.6425 30.7344 61.6425C13.666 61.6425 -0.170898 47.8899 -0.170898 30.9255C-0.170898 13.9608 13.6658 0.208618 30.7344 0.208618C47.8028 0.208618 61.6398 13.9612 61.6398 30.9255Z" fill="url(#paint0_linear_51_5517)" stroke="#EAC147" stroke-width="0.0372468"/>
</g>
<mask id="mask1_51_5517" style="mask-type:luminance" maskUnits="userSpaceOnUse" x="0" y="0" width="62" height="62">
<path d="M61.9079 30.8802C61.9079 39.0662 58.6504 46.9169 52.852 52.7052C47.0536 58.4936 39.1893 61.7455 30.9891 61.7455C22.7889 61.7455 14.9246 58.4936 9.12622 52.7052C3.32782 46.9169 0.0703125 39.0662 0.0703125 30.8802C0.0703125 22.6942 3.32782 14.8435 9.12622 9.05518C14.9246 3.26682 22.7889 0.0149536 30.9891 0.0149536C39.1893 0.0149536 47.0536 3.26682 52.852 9.05518C58.6504 14.8435 61.9079 22.6942 61.9079 30.8802Z" fill="white"/>
</mask>
<g mask="url(#mask1_51_5517)">
<path opacity="0.88" d="M62.7033 31.1342C62.7033 48.3294 48.6785 62.2685 31.378 62.2685C14.0777 62.2685 0.0527344 48.329 0.0527344 31.1342C0.0527344 13.939 14.0775 -9.15527e-05 31.378 -9.15527e-05C48.6783 -9.15527e-05 62.7033 13.9394 62.7033 31.1342Z" fill="url(#paint1_linear_51_5517)" stroke="#EAC147" stroke-width="0.0372468"/>
</g>
<mask id="mask2_51_5517" style="mask-type:luminance" maskUnits="userSpaceOnUse" x="0" y="0" width="62" height="62">
<path d="M61.9117 30.8756C61.9117 39.0612 58.6541 46.9115 52.8554 52.6997C47.0567 58.4878 39.1921 61.7395 30.9915 61.7395C22.791 61.7395 14.9263 58.4878 9.12761 52.6997C3.32895 46.9115 0.0712891 39.0612 0.0712891 30.8756C0.0712891 22.6899 3.32895 14.8396 9.12761 9.05146C14.9263 3.26335 22.791 0.0116272 30.9915 0.0116272C39.1921 0.0116272 47.0567 3.26335 52.8554 9.05146C58.6541 14.8396 61.9117 22.6899 61.9117 30.8756Z" fill="white"/>
</mask>
<g mask="url(#mask2_51_5517)">
<path opacity="0.88" d="M66.845 32.1787C66.845 48.939 51.0798 62.5258 31.6325 62.5258C12.1851 62.5258 -3.58008 48.939 -3.58008 32.1787C-3.58008 15.4185 12.1851 1.83163 31.6325 1.83163C51.0798 1.83163 66.845 15.4185 66.845 32.1787Z" fill="url(#paint2_linear_51_5517)"/>
</g>
<path opacity="0.88" d="M32.5604 17.0035C20.1766 17.0035 9.40256 23.3634 3.82591 32.7437C3.40544 34.3765 3.17773 36.0734 3.17773 37.8131C3.17773 50.8863 15.6894 61.4831 31.1226 61.4831C46.5557 61.4831 59.0674 50.886 59.0674 37.8131C59.0674 32.9784 57.3516 28.4804 54.4143 24.7334C48.6143 19.9278 40.9577 17.0035 32.5604 17.0035Z" fill="url(#paint3_linear_51_5517)"/>
<g opacity="0.88" filter="url(#filter0_f_51_5517)">
<path d="M56.3164 23.9739C56.3164 36.2794 45.4211 46.2545 31.9805 46.2545C18.5404 46.2545 7.64453 36.279 7.64453 23.9739C7.64453 11.6685 18.5398 1.69339 31.9805 1.69339C45.4205 1.69339 56.3164 11.6689 56.3164 23.9739Z" fill="url(#paint4_linear_51_5517)"/>
</g>
<path opacity="0.33" d="M61.6531 30.7484C61.6531 47.7218 47.9836 61.481 31.121 61.481C14.2589 61.481 0.588867 47.7212 0.588867 30.7484C0.588867 13.775 14.2584 0.0157776 31.121 0.0157776C47.983 0.0157776 61.6531 13.7755 61.6531 30.7484Z" fill="url(#paint5_linear_51_5517)" fill-opacity="0.2"/>
<path opacity="0.22" d="M49.751 53.4259C49.751 58.1929 41.7578 62.0572 31.8975 62.0572C22.0374 62.0572 14.0439 58.1927 14.0439 53.4259C14.0439 48.6588 22.0371 44.7945 31.8975 44.7945C41.7575 44.7945 49.751 48.659 49.751 53.4259Z" fill="url(#paint6_radial_51_5517)"/>
</g>
<defs>
<filter id="filter0_f_51_5517" x="5.1606" y="-0.79054" width="53.6397" height="49.529" filterUnits="userSpaceOnUse" color-interpolation-filters="sRGB">
<feFlood flood-opacity="0" result="BackgroundImageFix"/>
<feBlend mode="normal" in="SourceGraphic" in2="BackgroundImageFix" result="shape"/>
<feGaussianBlur stdDeviation="1.24197" result="effect1_foregroundBlur_51_5517"/>
</filter>
<linearGradient id="paint0_linear_51_5517" x1="35.5848" y1="81.5127" x2="18.8242" y2="-20.7345" gradientUnits="userSpaceOnUse">
<stop stop-color="#F8C52B"/>
<stop offset="1" stop-color="#F8C52B" stop-opacity="0"/>
</linearGradient>
<linearGradient id="paint1_linear_51_5517" x1="-20.3686" y1="-65.8992" x2="44.7957" y2="59.6857" gradientUnits="userSpaceOnUse">
<stop stop-color="#F8C52B"/>
<stop offset="1" stop-color="#F8C52B" stop-opacity="0"/>
</linearGradient>
<linearGradient id="paint2_linear_51_5517" x1="32.9319" y1="112.611" x2="24.6087" y2="-0.613668" gradientUnits="userSpaceOnUse">
<stop stop-color="#F8C52B"/>
<stop offset="1" stop-color="#F8C52B" stop-opacity="0"/>
</linearGradient>
<linearGradient id="paint3_linear_51_5517" x1="34.9752" y1="72.9909" x2="31.5698" y2="16.7875" gradientUnits="userSpaceOnUse">
<stop stop-color="#F8C52B"/>
<stop offset="1" stop-color="#F8C52B" stop-opacity="0"/>
</linearGradient>
<linearGradient id="paint4_linear_51_5517" x1="33.074" y1="10.605" x2="31.979" y2="53.5973" gradientUnits="userSpaceOnUse">
<stop stop-color="white"/>
<stop offset="1" stop-color="white" stop-opacity="0"/>
</linearGradient>
<linearGradient id="paint5_linear_51_5517" x1="32.156" y1="106.732" x2="31.1574" y2="0.0154372" gradientUnits="userSpaceOnUse">
<stop/>
<stop offset="1" stop-opacity="0"/>
</linearGradient>
<radialGradient id="paint6_radial_51_5517" cx="0" cy="0" r="1" gradientTransform="matrix(-0.000643334 8.72768 -11.9938 -0.00554 31.4438 54.7683)" gradientUnits="userSpaceOnUse">
<stop stop-color="#E6E6E6"/>
<stop offset="1" stop-color="#E6E6E6" stop-opacity="0"/>
</radialGradient>
<clipPath id="clip0_51_5517">
<rect width="61.7471" height="61.7471" fill="white"/>
</clipPath>
</defs>
</svg>
