<?xml version="1.0" encoding="UTF-8" standalone="no"?>
<!-- Created with Inkscape (http://www.inkscape.org/) -->

<svg
   version="1.1"
   id="svg1"
   width="585"
   height="1017"
   viewBox="0 0 585 1017"
   sodipodi:docname="118b.svg"
   inkscape:version="1.3.2 (091e20ef0f, 2023-11-25)"
   xmlns:inkscape="http://www.inkscape.org/namespaces/inkscape"
   xmlns:sodipodi="http://sodipodi.sourceforge.net/DTD/sodipodi-0.dtd"
   xmlns="http://www.w3.org/2000/svg"
   xmlns:svg="http://www.w3.org/2000/svg">
  <defs
     id="defs1" />
  <sodipodi:namedview
     id="namedview1"
     pagecolor="#ffffff"
     bordercolor="#000000"
     borderopacity="0.25"
     inkscape:showpageshadow="2"
     inkscape:pageopacity="0.0"
     inkscape:pagecheckerboard="0"
     inkscape:deskcolor="#d1d1d1"
     showgrid="false"
     inkscape:zoom="0.69041454"
     inkscape:cx="392.51781"
     inkscape:cy="468.55908"
     inkscape:window-width="1920"
     inkscape:window-height="1011"
     inkscape:window-x="0"
     inkscape:window-y="0"
     inkscape:window-maximized="1"
     inkscape:current-layer="layer1" />
  <g
     inkscape:groupmode="layer"
     id="layer1"
     inkscape:label="Layer 1"
     style="display:inline">
    <path
       id="path1"
       style="fill:#000000"
       d="M 285.73438 0.2421875 C 283.62752 0.14729324 281.50469 0.1883573 279.37109 0.36523438 C 269.12985 1.2142442 258.65135 5.2019984 248.60742 12.412109 C 240.95295 17.906932 238.49372 20.51649 231.55859 30.5 C 223.4349 42.194546 218.7983 52.405497 212.99023 71.402344 C 210.14793 80.698909 206.27396 91.829089 204.38086 96.134766 C 198.74383 108.95571 198.5 111.45913 198.5 156.5 C 198.5 208.90052 199.71025 218.34677 208.00977 230.77539 C 210.2049 234.06264 212 237.24975 212 237.85742 C 212 238.46509 210.7625 239.21583 209.25 239.52734 C 201.96341 241.02808 187.98079 245.49399 183.54102 247.73828 C 169.68319 254.74333 149.10556 269.34679 134.12695 282.80469 L 127.11133 289.10742 L 126.39844 285.3125 C 126.00691 283.22549 125.95481 258.94678 126.28125 231.35938 C 126.8715 181.47779 126.88705 181.15922 129.33594 173.84961 C 132.99798 162.91883 133.14564 161.7162 131.9668 152.22656 C 129.41442 131.67995 121.08863 92.870204 118.46289 89.279297 C 117.38404 87.803882 116.93305 88.200126 114.73438 92.550781 C 109.65348 102.60461 99.599144 136.75406 95.822266 156.78516 L 93.693359 168.07031 L 96.177734 170.78516 L 98.662109 173.5 L 98.580078 244 C 98.488482 323.9458 99.250209 316.80351 89.634766 328 C 82.291202 336.55104 70.839288 355.85633 61.404297 375.58984 C 45.058359 409.77776 42.013166 415.683 38.076172 420.84961 C 35.833794 423.79234 34 426.63062 34 427.15625 C 34 428.95894 24.842523 449.14319 22.375 452.7793 C 19.752262 456.64411 14.150551 468.0287 5.3769531 487.32812 C 0.18920122 498.73969 0.0014224748 499.46293 0.013671875 507.82812 C 0.048333105 531.49848 9.6893105 613.49773 17.541016 656.90039 C 21.335241 677.87412 24.933085 687.9098 39.445312 718 C 46.739947 733.12496 53.195803 746.85 53.792969 748.5 C 54.799682 751.2816 58.030266 763.40538 60.134766 772.30273 C 60.629404 774.39396 63.027066 780.36952 65.462891 785.58203 C 73.942693 803.72831 82.227822 815.79385 90.253906 821.68555 C 93.189777 823.84066 95.875217 826.82803 96.765625 828.92773 C 98.062206 831.98526 98.393213 845.77541 99.0625 924.5 C 99.492683 975.0999 99.879145 1016.6125 99.921875 1016.75 C 99.964608 1016.8875 105.77673 1017 112.83789 1017 L 125.67773 1017 L 126.3418 973.75 C 126.70705 949.96254 127.42089 928.74646 127.92969 926.60352 C 129.04919 921.88849 130.24015 921.03552 135.72656 921.01562 C 139.14348 921.00326 140.26882 921.48078 141.5957 923.50586 C 143.12595 925.84132 143.09333 927.14535 141.12109 942.75586 C 137.87421 968.45529 135.98171 988.14228 135.30664 1003.25 L 134.69336 1017 L 142.26172 1017 C 158.93346 1017 256.28578 1014.997 267.75 1014.418 L 280 1013.7988 L 279.97461 1002.1484 C 279.96098 995.74137 279.5355 982.63861 279.02734 973.03125 C 278.51921 963.42389 278.30645 955.35955 278.55664 955.10938 C 278.80682 954.85919 285.87177 955.42271 294.25586 956.36133 C 302.63994 957.29995 321.20002 958.73159 335.5 959.54297 C 364.19648 961.1712 370.3282 962.31159 370.79297 966.10547 C 370.95434 967.42273 371.94291 972.83488 372.99023 978.13281 C 374.03758 983.43076 375.20277 991.15454 375.57812 995.29688 C 376.43097 1004.7085 379.05851 1009.7684 384.50977 1012.5 C 388.31684 1014.4077 390.87566 1014.5166 440 1014.8477 C 489.98768 1015.1845 521.95139 1014.1104 527.76953 1011.8984 C 529.96325 1011.0643 530.11103 1010.6123 529.46289 1006.7422 C 528.51171 1001.0624 523.27522 983.31309 510.58008 942.74414 C 499.23761 906.49782 497.07832 896.95354 498.89258 891.07227 C 499.4985 889.10806 502.73282 884.125 506.08008 880 C 513.83687 870.44092 526.86781 850.82949 535.45898 835.78516 C 550.24128 809.89929 563.93636 773.96969 573.30469 736.5 C 580.03552 709.57932 582.05844 687.76213 584.10352 620 C 585.22035 582.99408 584.67128 446.91212 583.3418 431.26367 L 582.72656 424.02734 L 550.61328 423.76367 L 518.5 423.5 L 508 403.41602 C 494.58502 377.75651 488.31568 366.63153 484.25 361.26953 C 482.4625 358.91209 481 356.28217 481 355.42578 C 481 353.25051 479.19456 349.97082 476.26758 346.83008 C 474.89894 345.36148 472.74294 340.99706 471.47656 337.13086 C 467.9623 326.40189 465.78618 323.4365 440 294.25195 C 434.22502 287.71588 426.50787 278.51304 422.85156 273.80078 C 415.4384 264.24667 406.09612 255.86448 389 243.42969 C 382.67502 238.82923 376.4139 234.20547 375.08594 233.1543 L 372.67188 231.24414 L 374.93945 219.87109 C 377.6898 206.08837 378.67991 190.77652 377.20312 184.83789 C 376.60997 182.45255 375.62575 174.87498 375.01562 168 C 372.62526 141.06516 368.43286 119.17695 361.99414 100 C 359.8705 93.675012 357.84632 86.924996 357.49609 85 C 354.62637 69.226603 339.2741 38.963763 325.48438 21.896484 C 314.42709 8.2110971 300.48239 0.90644731 285.73438 0.2421875 z M 134.57031 487 C 135.93166 487 136.45707 488.43222 137.31836 494.5 C 137.55257 496.15 138.47289 500.2 139.36328 503.5 C 141.46779 511.29974 148.38021 548.13028 150.625 563.5 C 152.99537 579.73197 152.99701 616.27141 150.62695 634.5 C 148.54658 650.50055 146.78214 658.05176 138.65625 685.74023 C 135.14384 697.70853 131.47737 710.875 130.50781 715 C 126.12555 733.64442 125.61103 727.4899 125.19922 651.5 C 124.84468 586.07912 126.07168 519.55786 127.93164 503.32031 C 128.81697 495.59134 132.31137 487 134.57031 487 z M 95.839844 528.5 L 97.138672 531.5 C 98.721361 535.1568 99.590999 623.46559 98.480469 667.75 C 98.090832 683.28746 97.385195 696 96.912109 696 C 95.23055 696 92.995331 690.01138 91.988281 682.80859 C 91.426252 678.78876 89.882144 672.125 88.558594 668 C 85.466893 658.36438 84.510514 652.22309 82.009766 626 C 80.882084 614.17502 78.595092 595.04998 76.927734 583.5 C 75.092037 570.7839 74.133679 560.85413 74.498047 558.32812 C 75.264691 553.01332 81.009528 544.11412 89.332031 535.35156 L 95.839844 528.5 z " />
    <path
       id="path2"
       style="fill:#803300"
       d="M 151.24414 926.37891 C 150.28454 926.42217 149.57539 926.92509 149.04297 927.91992 C 148.10439 929.67368 144.17859 973.5528 142.4375 1001.75 L 141.74219 1013 L 208.42188 1013 L 275.09961 1013 L 274.56445 1007.25 C 274.27064 1004.0875 273.75049 991.32436 273.4082 978.88672 C 273.06591 966.44907 272.49629 955.82859 272.14258 955.28711 C 271.78886 954.74563 256.42498 950.81743 238 946.55664 C 219.57502 942.29585 193.24999 936.1517 179.5 932.90234 C 165.75001 929.653 153.50455 926.76645 152.28906 926.48828 C 151.91091 926.40174 151.56401 926.36449 151.24414 926.37891 z M 501.05469 945.36133 C 497.26389 945.23154 488.92121 947.12356 470.82031 951.9668 C 436.76307 961.07946 422.33051 963.60361 399 964.5293 C 379.75381 965.29294 378.14396 965.57554 377.45703 968.3125 C 376.94368 970.35784 381.612 996.53545 384.03906 1005.2227 C 384.94172 1008.4537 385.63395 1009.0933 389.28906 1010.082 C 391.60496 1010.7084 397.55 1011.5917 402.5 1012.043 C 413.07098 1013.0068 520.68499 1012.5088 523.25 1011.4844 C 524.2125 1011.0999 525 1009.9195 525 1008.8594 C 525 1007.7993 522.31574 999.99148 519.03516 991.50977 C 515.75456 983.02806 511.22104 969.65672 508.96094 961.79492 C 506.70084 953.93311 504.25349 946.88392 503.52148 946.13086 C 503.0762 945.67277 502.31829 945.40459 501.05469 945.36133 z " />
    <path
       id="path3"
       style="display:inline;fill:#e3dedb"
       d="M 99.390625 325.13477 C 98.792916 324.37727 93.699775 330.87048 86.552734 341.5 C 76.474886 356.48839 66.053445 375.75114 44.083984 420 C 25.371327 457.6893 15.329742 479.86764 9.7363281 495.86914 C 4.1204171 511.935 4.8039231 528.91936 13.578125 591.5 C 21.295576 646.54352 27.720853 679.2223 33.578125 693.2207 C 37.131483 701.71293 46.963027 719 48.240234 719 C 48.806829 719 56.083976 712.13749 64.410156 703.75 C 79.861658 688.18473 86 680.41046 86 676.4082 C 86 675.17152 84.885442 669.5116 83.523438 663.83008 C 78.672282 643.59378 72.429776 602.25028 69.916016 573.70508 C 68.089132 552.95975 69.533204 548.62975 84.492188 530 C 93.380963 518.93002 95.669824 514.89444 97.115234 507.73242 C 98.038225 503.15899 100.24313 326.21517 99.390625 325.13477 z M 126.48047 351 C 125.77998 351 126.04547 422.27992 126.85547 451.72461 C 127.27893 467.1177 127.95878 477.35917 128.60156 478.00195 C 129.33931 478.7397 130.7964 478.14795 133.46484 476.02734 C 137.756 472.61717 140.60695 472.15844 141.40039 474.75 C 141.69507 475.7125 142.88505 482.80001 144.04492 490.5 C 148.13403 517.6462 158.11746 562.91507 161.9082 571.5 C 164.32344 576.96978 166.37353 578.3929 172.9043 579.13867 C 178.0455 579.72576 186.98567 579.31428 187.875 578.44922 C 188.49758 577.84364 183.80835 459.3846 182.44531 441.2832 L 181.82617 433.06836 L 284.66211 433.66797 C 390.49305 434.28436 438.45777 433.48294 475.57422 430.47852 C 509.37492 427.74248 512.46672 426.25624 507.02148 415.35938 C 505.40995 412.1344 502.34317 407.78901 500.20703 405.70312 L 496.32422 401.91016 L 482.00195 406.5 C 439.20669 420.21391 399.07184 418.57852 347 401.00195 C 322.50991 392.73546 320.05164 392.26198 312.72266 394.39258 C 299.52297 398.22982 285.62744 395.03506 270.15039 384.60547 C 263.79723 380.32423 261.74591 380.18711 247.65625 383.09961 C 238.80517 384.92924 235.24985 385.13012 220 384.66406 C 201.08744 384.08606 192.64954 382.62301 175.83008 377.00586 C 163.15939 372.77426 144.15668 363.32471 134.73047 356.56836 C 130.45707 353.50535 126.74457 351 126.48047 351 z M 179.11523 636.02148 C 168.06235 636.07408 162.15695 642.25836 154.99023 661.28125 C 139.56703 702.21972 129.40232 768.38601 125.81641 851.20312 C 124.56428 880.12121 125.46946 902.15238 128.25781 910.69336 C 129.42839 914.27896 129.76192 914.51628 134 914.79492 C 136.475 914.95764 142.11496 916.6315 146.5332 918.51367 C 174.58673 930.46446 269.58477 948.94559 341.5 956.44336 C 373.76945 959.80773 379 960.04034 379 958.11133 C 379 957.75115 370.33724 951.62083 359.75 944.48828 C 334.28038 927.32958 323.2282 918.45299 306.98438 902.10352 C 247.60632 842.33925 207.11993 757.52646 194.03711 665.5 C 190.3863 639.81967 188.4417 635.9771 179.11523 636.02148 z M 491.21094 899.00391 C 490.81964 899.00691 485.32499 903.35273 479 908.66016 C 465.32211 920.13753 454.86054 927.9574 434 942.30273 C 413.82668 956.17548 412.05356 957.65214 414 958.95898 C 415.81405 960.17695 418.91749 959.70684 434.5 955.8457 C 441.09999 954.2103 455.72501 949.77507 467 945.99023 C 478.27499 942.20541 489.95315 938.78884 492.95117 938.39844 C 496.69104 937.91145 499.14566 936.94613 500.76953 935.32227 L 503.13477 932.95508 L 501.08594 929.64062 C 499.95889 927.81703 498.39638 923.43873 497.61328 919.91211 C 496.83018 916.38548 495.69519 912.15 495.08984 910.5 C 494.48449 908.85 493.52306 905.5875 492.95508 903.25 C 492.38711 900.9125 491.60224 899.00134 491.21094 899.00391 z " />
    <path
       style="fill:#0000ff"
       d="m 191.20966,613.5 c -0.5682,-27.39844 -0.89741,-28.03507 -14.09088,-27.24883 -11.15218,0.6646 -16.68324,2.84141 -18.01035,7.08818 C 158.16066,596.37227 156,617.59208 156,623.8673 c 0,2.88538 0.21642,3.0408 4.75,3.41131 2.6125,0.2135 10.6,0.35066 17.75,0.30479 l 13,-0.0834 z"
       id="path4" />
    <path
       id="path5"
       style="fill:#fff6d5"
       d="M 294 91.517578 C 265.8027 91.535988 251.16433 92.763749 243.71094 95.736328 C 237.16832 98.345668 236.60607 100.52463 236.17383 124.95117 C 235.96505 136.74979 236.31427 152.94983 236.94922 160.95117 C 238.14991 176.08179 246.05433 219.27646 248.47852 223.95312 C 250.15498 227.18734 261.37591 237.90837 266.08203 240.77344 C 274.70934 246.02569 292.15798 247.33871 303 243.55078 C 313.06197 240.03539 323.23947 228.9513 327.98633 216.33984 C 335.75708 195.69444 339.65152 160.68649 338.80078 119.11328 L 338.38281 98.726562 L 335.72656 96.441406 C 330.97006 92.350036 323.75305 91.498155 294 91.517578 z M 313.67578 116.57227 C 318.43119 116.51657 320.4878 116.97382 322.61328 118.56055 C 327.456 122.17574 326.68625 122.70485 315.78906 123.24414 C 310.1301 123.5242 304.70944 124.08267 303.74219 124.48633 C 299.8544 126.1088 300.60486 136.81981 304.5625 136.19336 C 305.62818 136.02468 309.87836 135.6349 314.00781 135.32812 C 322.21897 134.71812 329 136.57222 329 139.42773 C 329 142.42098 321.11981 145.32609 311.70703 145.80273 L 302.91406 146.24805 L 300.9375 150.125 C 299.85004 152.25659 298.77864 154 298.55859 154 C 298.33854 154 297.83897 151.00727 297.44727 147.34961 C 297.05557 143.69195 296.98168 137.10019 297.2832 132.70117 C 298.11731 120.53173 302.00205 116.70892 313.67578 116.57227 z M 274.55469 117.35938 C 276.8729 117.31979 278.7515 117.58496 279.92188 118.20898 C 286.80027 121.87643 280.67084 124.73367 263.17969 126.01367 C 256.20609 126.52399 249.15 126.93459 247.5 126.92578 C 244.57246 126.91018 244.60869 126.85097 249 124.48242 C 256.68074 120.33972 267.60006 117.47813 274.55469 117.35938 z M 263.19922 133.24609 C 266.73432 133.28633 270.19034 134.04626 272.99023 135.49414 C 276.39819 137.25646 278.91331 141.49421 277.42383 142.96484 C 276.00484 144.36589 267.11427 144.93755 261.11328 144.01367 C 255.50671 143.15051 250.7189 140.40096 250.19531 137.74219 C 249.98314 136.66476 251.46165 135.67517 255.07617 134.47461 C 257.65177 133.61914 260.44969 133.2148 263.19922 133.24609 z M 277.44727 174.49219 C 278.3126 174.45011 279.68825 175.4519 281.95898 177.72266 C 288.17953 183.94318 287.07807 187.25731 280.24414 182.88086 C 276.76928 180.65555 275.04451 176.5551 276.83203 174.76758 C 277.00283 174.59678 277.20497 174.50397 277.44727 174.49219 z M 300.68359 177.25977 C 302.38546 177.28744 304 178.53701 304 180.36719 C 304 182.48671 302.34824 185 300.95508 185 C 300.60032 185 299.56454 184.17767 298.6543 183.17188 C 296.61771 180.92148 296.56551 179.60402 298.45117 178.03906 C 299.11698 177.48649 299.91002 177.24719 300.68359 177.25977 z M 314.02734 197 L 312.46484 200.73633 C 310.51533 205.40221 307.90209 208.2134 301.9707 212.01953 C 296.84782 215.30689 293.08281 215.67326 286.28516 213.54883 C 277.04325 210.6605 266.45908 202.14053 268.98047 199.61914 C 270.3991 198.20051 282.9788 197.17994 300.26367 197.08008 L 314.02734 197 z M 293.98828 225.11328 C 297.18152 225.13946 298.8469 225.93899 296.94727 227.00586 C 294.3361 228.47234 285.32222 229.33188 284.61133 228.18164 C 283.72491 226.74738 285.06611 226.08907 290.36133 225.36328 C 291.69007 225.18116 292.92387 225.10456 293.98828 225.11328 z M 330.1582 235.59766 C 329.6955 235.3117 324.12347 237.75582 317.77539 241.02734 C 302.72784 248.7822 296.142 250.30841 280 249.78711 C 266.33711 249.34588 264.98533 248.91596 255.08789 241.85938 C 252.11085 239.73684 249.23902 238 248.70703 238 C 248.15759 238 247.95091 239.87297 248.22852 242.33594 C 249.11676 250.21646 261.60237 273.76855 267.87891 279.4043 C 269.04578 280.45204 270 281.82003 270 282.44336 C 270 285.97676 293.49075 320.33187 295.46484 319.68555 C 296.03436 319.49909 298.41443 316.00442 300.75391 311.92188 C 303.09337 307.83934 307.28246 298.64999 310.06445 291.5 C 312.84645 284.35001 317.53805 273.32499 320.49023 267 C 325.89026 255.43056 331 241.29928 331 237.93164 C 331 236.93431 330.6209 235.88362 330.1582 235.59766 z M 87.044922 688 C 85.980723 688 64.809483 711.3197 58.519531 719.41992 C 56.160525 722.45785 53.959411 726.02694 53.626953 727.35156 C 52.595482 731.46127 61.333716 763.61988 66.628906 775.20117 C 75.395077 794.37395 86.162867 812.87269 89.712891 814.85938 C 91.903877 816.08551 94 815.21574 94 813.08203 C 94 811.19309 91.788904 805.42491 84.140625 787.35547 C 75.64732 767.28962 77.679167 766.59098 88.083984 786 C 94.567869 798.09496 98.944116 804.36388 102.07422 806.03906 C 103.52428 806.81511 104.41593 806.58407 105.97656 805.02344 C 110.22432 800.77568 108.30616 793.39159 95.892578 766.20508 C 91.507151 756.60073 88.074453 748.27664 88.263672 747.70898 C 89.267295 744.69812 95.832749 754.13228 104.82227 771.5 C 112.19407 785.74233 115.16463 790.57523 116.68555 790.80078 C 121.71881 791.54719 122.30656 778.51426 117.74805 767.22852 C 116.38763 763.86047 111.61222 754.39349 107.13672 746.19141 C 102.66121 737.98933 99 730.68729 99 729.96484 C 99 726.29962 108.16196 738.72625 119.48633 757.75 C 122.18739 762.2875 124.82139 766 125.33984 766 C 127.11577 766 125.44779 744.80076 123.28906 739.93555 C 119.42626 731.22975 104.76455 709.97252 96.441406 701.00977 C 94.138494 698.52989 91.28868 694.5875 90.107422 692.25 C 88.926164 689.9125 87.547355 688 87.044922 688 z " />
    <path
       style="fill:#ffaaaa"
       d="m 299.6875,206.5125 c 3.63267,-3.63267 3.95883,-6.25733 0.70487,-5.67223 -1.0408,0.18715 -6.46869,0.63715 -12.06198,1 -5.59328,0.36285 -10.51043,1.00188 -10.927,1.42006 -1.88486,1.89219 8.51997,6.52894 14.94661,6.66072 3.12041,0.064 4.5109,-0.58195 7.3375,-3.40855 z"
       id="path6" />
    <path
       id="path7"
       style="fill:#800080"
       d="M 283.37109 6.8925781 C 263.69832 6.4122292 245.10619 19.314447 233.10938 43.628906 C 227.86267 54.262642 223.62582 65.146015 220.89648 75 C 219.75395 79.124996 217.7352 84.379798 216.41016 86.677734 C 215.08511 88.97567 214 91.593534 214 92.494141 C 214 93.394749 212.41493 97.560834 210.47852 101.75195 C 205.84055 111.79022 204.25109 118.26003 203.0293 132.06445 C 201.19233 152.81933 202.27584 197.63952 204.95703 211.77734 C 206.01299 217.34542 210.375 225.1786 216.09961 231.78516 C 218.1416 234.14174 221.70643 239.71032 224.02148 244.16016 C 229.08095 253.88509 233.80076 259.33188 239.93359 262.52734 C 245.41595 265.38389 246.8577 265.53324 247.70312 263.33008 C 248.05565 262.41141 247.15978 258.2489 245.71094 254.08008 C 241.79744 242.81951 241.5518 240.19895 243.85156 234.14648 C 245.82486 228.95318 245.82667 228.83297 243.94727 224.69336 C 242.90027 222.38721 242.03356 219.5761 242.02148 218.44727 C 242.00938 217.31844 240.41568 210.79343 238.48047 203.94727 C 233.94526 187.90321 232.32868 174.5914 230.9707 142.13672 C 229.50876 107.19714 230.69193 90.834448 234.77148 89.597656 C 242.51743 87.249338 292.4604 84.501611 310.5 85.431641 C 317.64999 85.800258 328.00001 86.866272 333.5 87.800781 L 343.5 89.5 L 344.1875 96.5 C 344.5659 100.35 344.97572 119.70002 345.09766 139.5 C 345.34039 178.91085 345.05445 181.89374 339.00781 202.99805 C 335.71613 214.48692 335.30835 220.16611 337.5 224 C 339.72222 227.88738 339.26646 234.57201 336 246 C 334.35 251.77267 333 257.95939 333 259.74805 C 333 271.09368 349.13517 251.74588 363.39844 223.29688 C 372.09316 205.95471 373.67423 199.88166 371.93164 190.51562 C 371.21383 186.65754 370.55476 177.42499 370.4668 170 C 370.2351 150.44041 364.47215 121.65351 356.12695 98.357422 C 353.98358 92.373994 350.5645 81.857131 348.52734 74.988281 C 340.15662 46.76405 327.82034 27.712484 310.34961 16.027344 C 301.4785 10.093986 292.31327 7.1109185 283.37109 6.8925781 z M 365.73633 234.61523 C 364.92619 234.89567 362.73817 237.49861 360.46875 240.94336 C 357.87514 244.88022 348.70076 255.40232 340.08008 264.32617 C 331.4594 273.25002 322.91016 282.7227 321.08398 285.37695 C 319.25781 288.03121 314.85998 296.31335 311.31055 303.7832 C 304.51204 318.09078 302.20362 321.73118 298.66602 323.71484 C 292.22561 327.32623 286.37905 323.77015 281.06641 313.01172 C 273.72238 298.1396 263.42302 287.04648 240 268.77734 C 229.62578 260.68582 224.07984 255.56706 220.50977 250.78711 C 217.48028 246.73095 215.27234 244.57598 214.88867 245.30273 C 214.5411 245.96111 213.95227 249.30826 213.58008 252.74023 C 212.64882 261.32766 211.23932 265 208.87695 265 C 206.42388 265 205 261.32842 205 255.00586 C 205 248.91419 203.01134 246.55806 198.58594 247.40625 C 194.64898 248.16081 174.24716 258.04504 168.58398 261.94141 C 163.51139 265.43144 161.00561 270.11659 160.98438 276.15039 C 160.96178 282.57105 159.84286 283.80908 156.46289 281.15039 C 154.95964 279.96794 152.69024 279 151.41797 279 C 146.66671 279 133.86944 291.77496 128.37891 302 C 125.75935 306.87842 125.59078 334.819 128.15234 339.5 C 132.28216 347.04676 147.3932 358.69545 163.5 366.74805 C 192.11156 381.0524 220.83515 384.66226 252.9082 377.98242 C 258.74756 376.76626 264.65802 376.08161 266.36914 376.42383 C 268.04675 376.75935 271.91155 378.98652 274.95898 381.37305 C 284.39293 388.76101 286.34595 389.47966 297 389.49023 C 305.37146 389.49823 307.15534 389.17276 312.00977 386.75 C 318.49122 383.51522 318.35034 383.49141 334.64844 390.87305 C 348.3678 397.08673 372.29922 405.26215 386.14258 408.46484 C 397.93009 411.19192 417.48562 411.76579 438 409.98633 C 449.74872 408.96723 461.58059 406.94856 470.5 404.44141 C 477.28109 402.53532 497.98267 393.6946 497.99219 392.70117 C 498.00529 391.33763 483.25915 368.55699 475.91602 358.5957 C 468.06522 347.94574 463.87341 344.67532 459.25195 345.59961 C 454.45832 346.55834 454.49366 344.44736 459.38281 337.94336 C 462.3192 334.03708 463.69765 331.32396 463.30859 330.21289 C 461.46935 324.96052 440.81283 300.64141 431.90625 293.24219 C 426.30115 288.58569 423.58643 287.53983 418.88086 288.23047 L 415.78516 288.68555 L 416.47656 279.47266 L 417.16797 270.25977 L 413.96094 266.60742 C 410.61108 262.79215 381.63739 243 379.40234 243 C 377.58463 243 377.21056 243.86675 375.48242 252.08203 C 373.0922 263.44475 372.85169 263.26041 369.40039 247.41406 C 367.97316 240.86109 366.44195 235.11435 365.99609 234.64258 C 365.94036 234.58361 365.85206 234.57517 365.73633 234.61523 z " />
    <path
       id="path8"
       style="display:inline;fill:#ff0000"
       d="m 571.66406,430.92188 -12.58203,0.59179 c -30.35971,1.42938 -52.57979,2.67702 -80.58203,4.52539 -16.49998,1.08913 -37.65001,2.46486 -47,3.05664 -9.43353,0.59708 -66.96092,1.30514 -129.25,1.58985 -103.46541,0.47293 -112.25038,0.64239 -112.24609,2.16406 0.003,0.90798 0.4482,8.8504 0.99023,17.65039 0.54204,8.79999 2.34482,43.45003 4.00586,77 4.83194,97.59595 6.09305,115.55325 8.98242,128 1.02141,4.4 2.61961,13.62501 3.55274,20.5 0.93314,6.87499 2.52351,14.75 3.5332,17.5 1.00969,2.75 3.22001,10.85001 4.91211,18 8.39065,35.45485 24.90993,76.56238 41.63086,103.59375 24.30114,39.28571 66.75894,86.80874 89.79687,100.51172 4.45052,2.64718 9.89714,6.42916 12.10352,8.4043 5.09068,4.55714 15.09986,11.36718 22.19531,15.09961 7.01121,3.68811 12.88324,3.77956 22.01953,0.34374 14.8061,-5.56802 38.9772,-20.2094 55.96875,-33.90234 C 520.05723,866.90706 561.76518,780.15176 572.45703,681 c 3.43225,-31.82918 4.01229,-51.12869 4.00586,-133.5 -0.006,-81.50659 -0.51403,-96.98184 -3.64258,-111.28906 z m -67.18554,50.23828 c 2.24672,-0.19721 5.28101,1.85783 8.43945,5.85351 5.44447,6.88778 8.26024,14.76076 8.84765,24.73633 L 522.25,520 h 3.30273 c 2.37004,0 3.88258,0.73797 5.35938,2.61523 3.37485,4.29043 4.38176,9.2016 4.63281,22.59766 0.18426,9.83257 0.58399,13.05864 1.76563,14.24023 4.86581,4.86586 4.80896,18.79716 -0.11719,28.80665 -1.68935,3.43254 -3.52186,9.03863 -4.07227,12.45898 -1.3404,8.32972 -4.09292,14.23764 -9.31836,19.99805 -2.38617,2.63047 -6.07253,7.36989 -8.1914,10.53125 -5.13899,7.66735 -15.39936,17.12324 -20.83008,19.19726 -3.12441,1.19323 -4.94179,2.69834 -6.29492,5.21094 -2.28078,4.23516 -10.82872,12.1401 -13.98242,12.93164 -1.23964,0.31113 -2.73832,1.63238 -3.33203,2.93555 -1.87146,4.10735 -8.37036,10.54153 -13.10938,12.98047 -2.50991,1.29166 -5.85411,4.0013 -7.43359,6.02148 -1.57953,2.02018 -4.78731,4.88738 -7.12696,6.37109 l -4.2539,2.69727 16.11718,10.95313 c 33.36354,22.67455 75.11855,55.59607 78.97852,62.26953 1.53195,2.64852 1.69979,3.79351 0.83594,5.68945 -1.58818,3.48568 -6.71475,4.48228 -23.07813,4.48828 l -14.39648,0.006 3.39648,2.25781 c 4.86142,3.23067 8.17556,10.09305 7.48242,15.4961 -2.26416,17.64932 -20.32485,24.50741 -58.2871,22.13476 -13.27825,-0.82989 -24.5004,-2.39726 -42.83594,-5.98242 -5.45786,-1.06717 -7.09636,-0.93253 -17,1.40234 -20.37934,4.8047 -32.95192,6.17493 -42.74414,4.6543 v -0.002 c -7.31968,-1.13665 -13.28625,-3.76606 -18.06836,-7.96485 -5.03639,-4.42196 -6.64987,-7.87345 -6.63867,-14.19726 0.0133,-7.5339 4.00619,-14.0514 13.20898,-21.56055 C 345.5675,771.61004 348.79885,770 354.76172,770 c 7.93991,0 11.56742,5.35094 9.31055,13.73242 -1.31462,4.88212 -4.01402,7.4153 -11.32227,10.62891 -3.1625,1.39061 -5.75,3.06771 -5.75,3.72656 0,2.05266 14.38394,0.3011 28,-3.41016 l 12.5,-3.4082 -3.5,-1.48242 c -7.63,-3.23406 -13,-9.98082 -13,-16.33203 0,-1.55035 1.18688,-3.7943 2.92383,-5.53125 C 376.70504,765.14261 377.26682,765 385.51562,765 h 8.66993 l -4.7461,-5.25 c -2.60986,-2.8875 -6.05827,-8.175 -7.66406,-11.75 -4.19871,-9.34765 -4.18097,-9.32112 -7.65039,-11.35352 -6.57536,-3.85185 -16.42836,-6.6033 -23.7207,-6.625 -9.05154,-0.0269 -10.40644,1.21807 -10.39844,9.55664 0.009,9.10529 1.48,13.05229 5.97266,16.0254 4.80549,3.1801 5.51875,4.89921 3.05468,7.36328 -1.89627,1.89627 -10.72483,5.0332 -14.16601,5.0332 -4.87509,0 -12.08244,-2.39873 -14.7793,-4.91797 -1.6255,-1.51844 -4.62396,-3.39541 -6.66406,-4.17187 -2.04009,-0.77647 -4.5777,-2.57505 -5.63867,-3.9961 -2.10208,-2.81546 -10.20227,-33.43112 -9.25196,-34.96875 0.32149,-0.52018 1.8995,-0.94531 3.50586,-0.94531 2.43103,0 3.2826,-0.71249 5.07813,-4.25 6.00421,-11.82939 16.88002,-24.16331 31.33203,-35.53125 l 2.84766,-2.24023 -5.32227,-8.73829 C 326.92984,653.38773 323.34651,649.06982 305.0625,631 c -17.17624,-16.97502 -17.79215,-17.725 -20.52344,-25 -9.84753,-26.2298 -25.44971,-49.74798 -57.03711,-85.97461 -14.62203,-16.76959 -14.92777,-17.36256 -10.82617,-21.02734 7.69565,-6.87611 25.75092,-10.06025 35.79492,-6.3125 4.84935,1.80945 5.10533,1.81 10.5,-0.0293 10.77535,-3.67388 24.19586,-2.09925 33.29688,3.9082 2.94413,1.94338 4.18578,2.26254 5.68359,1.46094 3.1386,-1.67973 12.57232,-1.17695 18.26172,0.97266 2.90813,1.09877 7.26288,3.57377 9.67773,5.5 2.4149,1.92619 5.1551,3.50195 6.08985,3.50195 3.30058,0 14.07268,6.2114 18.56836,10.70703 4.81294,4.81298 9.71188,13.45396 10.9375,19.29297 0.40406,1.925 2.26087,6.03403 4.125,9.13086 3.47366,5.77076 8.38867,17.73193 8.38867,20.41406 0,0.82508 2.01668,4.97866 4.48242,9.22852 3.94561,6.80048 5.87952,12.50967 8.11719,23.97656 0.65521,3.35766 1.87827,2.74211 3.97656,-2 3.17225,-7.16922 17.34976,-20.32741 29.70313,-27.56836 30.56166,-17.9138 53.44108,-42.56359 71.22851,-76.73633 3.13368,-6.02027 6.28799,-11.56541 7.00977,-12.32422 0.54957,-0.57776 1.21201,-0.89523 1.96094,-0.96093 z M 407.25,742.01562 c -3.47442,-0.0119 -4.25,0.32291 -4.25,1.83594 0,2.85842 1.79405,8.01613 5.30078,15.2461 2.55921,5.27639 4.00033,7.00921 7.19922,8.65429 2.2,1.13138 4.45,1.94018 5,1.79688 0.55,-0.14331 0.92518,-2.37145 0.83398,-4.95117 -0.0912,-2.57977 -0.71889,-5.35584 -1.39453,-6.16993 -0.67564,-0.81404 -1.72628,-4.26824 -2.33593,-7.67578 -1.27119,-7.10501 -3.17616,-8.71143 -10.35352,-8.73633 z m 17.41406,36.15821 c -0.64226,-0.01 -0.66406,0.77549 -0.66406,2.44336 0,2.22554 0.3363,2.52652 2.25,2.01367 1.2375,-0.33164 2.925,-0.61109 3.75,-0.62109 0.825,-0.01 0.0273,-0.91573 -1.77344,-2.01368 -1.94532,-1.18606 -2.99578,-1.81326 -3.5625,-1.82226 z m -20.92578,4.77344 c -1.56529,0.005 -2.73828,0.14568 -2.73828,0.4707 0,0.23002 0.28928,1.17111 0.64258,2.0918 0.52884,1.3781 1.45666,1.55283 5.25,0.98828 2.5342,-0.37715 4.76445,-0.83843 4.95703,-1.02539 0.19257,-0.18696 0.0539,-0.81966 -0.30859,-1.40625 -0.39864,-0.64501 -4.81446,-1.12924 -7.80274,-1.11914 z m 69.48242,19.30859 c -1.46488,-0.0124 -4.26103,0.0869 -8.7207,0.24805 -6.59998,0.23855 -14.925,1.10428 -18.5,1.92382 l -6.5,1.49024 13,-0.51172 c 7.1502,-0.28113 15.47522,-1.14684 18.5,-1.92383 3.40644,-0.87502 4.66217,-1.20586 2.2207,-1.22656 z" />
    <path
       id="path9"
       style="display:inline;fill:#008080"
       d="m 353.71094,776.1875 c -4.04492,0.19565 -10.3298,4.5824 -17.50977,12.25781 -6.43009,6.8738 -8.06215,11.16168 -6.15429,16.17969 4.00728,10.53999 19.16823,14.52654 41.45312,10.90234 4.95,-0.80502 20.47502,-4.36549 34.5,-7.91406 C 437.54884,799.63086 458.45349,796 472.87305,796 c 12.25642,0 15.46491,1.25701 14.93359,5.84766 -0.23366,2.01882 -1.3827,3.18013 -4.80664,4.86132 -6.9279,3.40173 -15.40285,4.27325 -42,4.31446 -13.99493,0.0217 -23.85683,0.40278 -23,0.88867 3.7165,2.10752 27.11294,4.51667 44,4.53125 24.23211,0.0209 34.08741,-2.90851 38.50195,-11.44531 7.22489,-13.97137 -10.50313,-22.3707 -42.00195,-19.90039 -6.59998,0.51761 -12.5625,1.14357 -13.25,1.39062 -0.6875,0.24705 -1.25,1.8132 -1.25,3.48047 0,2.02789 -0.49655,3.03125 -1.5,3.03125 -1.00755,0 -1.5,-1.00849 -1.5,-3.07031 0,-2.61125 -0.33594,-3.02184 -2.25,-2.75 -1.70962,0.2428 -2.32336,1.07958 -2.55664,3.48437 -0.45472,4.68761 -3.19336,5.28564 -3.19336,0.69727 0,-2.84964 -0.32139,-3.4525 -1.58203,-2.96875 -0.86998,0.33385 -1.99498,0.60742 -2.5,0.60742 -0.50501,0 -0.91797,1.52643 -0.91797,3.39258 0,2.09352 -0.57449,3.61359 -1.5,3.96875 -1.15566,0.44347 -1.5,-0.22021 -1.5,-2.89258 C 425,790.45263 424.67938,790 422.54492,790 c -2.04727,0 -2.56942,0.6224 -3.14453,3.75 -0.92738,5.04331 -2.75919,6.10597 -3.40039,1.97266 -0.37091,-2.39098 -1.08089,-3.30592 -2.75,-3.54297 -2.01709,-0.28647 -2.25,0.10171 -2.25,3.75 0,2.95069 -0.41239,4.07031 -1.5,4.07031 -1.05609,0 -1.5,-1.06787 -1.5,-3.60742 0,-2.87826 -0.31981,-3.48436 -1.58203,-3 -0.86998,0.33385 -1.98976,0.60742 -2.48828,0.60742 -0.49852,0 -1.18879,1.77145 -1.53516,3.9375 C 401.51499,803.43782 399,804.22495 399,799 c 0,-3.66079 -0.15753,-3.87724 -2.25,-3.10742 -1.54833,0.56964 -2.40593,1.88202 -2.75,4.20703 -0.7037,4.75508 -3.75909,5.2854 -3.20703,0.55664 0.37208,-3.1872 0.22947,-3.38405 -2.12695,-2.93359 -2.02949,0.38796 -2.6544,1.24853 -3.1836,4.38086 -0.42889,2.53859 -1.18975,3.89648 -2.18359,3.89648 -1.12629,0 -1.411,-0.78522 -1.08594,-3 0.24217,-1.65 0.0375,-3 -0.45508,-3 -0.49258,0 -5.4765,1.19393 -11.07617,2.6543 -17.87833,4.66257 -31.54095,3.17026 -32.51367,-3.55274 C 337.8545,796.93499 341.30723,792 343.13672,792 c 2.49317,0 12.02359,-4.43119 12.84961,-5.97461 0.81757,-1.52765 0.65838,-1.74438 -0.97071,-1.31836 -1.07242,0.28045 -2.44841,1.10893 -3.05664,1.8418 -0.60823,0.73288 -1.74735,1.08476 -2.5332,0.7832 -1.02668,-0.39398 -0.4061,-1.36123 2.20899,-3.43945 2.00168,-1.59075 4.28463,-2.89258 5.07226,-2.89258 0.9131,0 1.31703,-0.81536 1.11328,-2.25 -0.23865,-1.68037 -1.08217,-2.32427 -3.33008,-2.54492 -0.24934,-0.0245 -0.50963,-0.0306 -0.77929,-0.0176 z m -3.08594,2.27148 c 0.18358,-0.009 0.35112,0.0266 0.48828,0.11133 1.58796,0.98141 0.93438,2.30863 -1.0625,2.15821 -1.46465,-0.11033 -1.68504,-0.46388 -0.88672,-1.42579 0.41995,-0.50601 0.99178,-0.81991 1.46094,-0.84375 z m 39.19922,7.4004 c -0.98044,0.0121 -0.89131,0.80085 -0.2168,2.55859 0.62548,1.62999 3.57302,1.96463 6.63477,0.75195 1.33078,-0.52709 0.68077,-1.07294 -2.75,-2.30664 -1.82608,-0.65665 -2.99714,-1.0122 -3.66797,-1.0039 z" />
    <path
       id="path10"
       style="display:inline;fill:#ffcc00"
       d="m 505.93359,489.02344 c -0.13011,-0.044 -0.23365,-0.0303 -0.30664,0.0488 -0.21675,0.23485 -2.29771,4.23348 -4.625,8.88476 -16.62603,33.22865 -40.57148,59.20851 -71.94922,78.06445 -14.11599,8.48279 -24.41716,17.76024 -28.29101,25.47852 -1.38024,2.75 -3.48867,9.31825 -4.6836,14.5957 -3.98444,17.59747 -9.83211,26.30501 -24.07812,35.84961 -10.31563,6.91132 -15.05777,11.07581 -18.13477,15.92774 -1.57616,2.48535 -2.86546,4.99244 -2.86523,5.57226 2.6e-4,0.67437 4.23394,1.08516 11.75,1.13867 13.40053,0.0954 19.75,1.67653 19.75,4.91993 0,1.53692 -0.57464,1.93119 -2.5,1.71484 -18.64709,-2.09532 -32.20172,-0.82445 -37.96094,3.55859 -12.76632,9.71581 -27.25044,27.14037 -31.56445,37.97266 -0.93092,2.3375 -2.31871,4.25 -3.08399,4.25 -1.846,0 -1.87516,-0.18582 2.01954,12.88086 3.22582,10.82261 4.48496,13.06854 7.33984,13.10352 1.58865,0.0195 1.52729,-2.46238 -0.17969,-7.2461 -0.83074,-2.3281 -0.97474,-3.98722 -0.3789,-4.35547 1.77937,-1.09972 4.30533,3.07944 4.59961,7.60742 0.53417,8.21917 4.74224,11.92135 14.42382,12.69532 l 6.28516,0.50195 -4,-2.15625 c -4.89543,-2.64 -10.821,-8.70459 -9.92383,-10.15625 0.39854,-0.64485 1.75496,0.13636 3.4375,1.97852 2.21009,2.41972 11.88957,8.14648 13.76953,8.14648 0.22528,0 -1.66591,-1.9125 -4.20312,-4.25 -3.88408,-3.57837 -4.76751,-5.10147 -5.5957,-9.63672 -1.27571,-6.98582 -1.25602,-14.73715 0.0449,-17.16797 2.45121,-4.58013 13.60155,-7.02449 23.05468,-5.05273 4.08196,0.85142 24.0234,8.87254 26.80274,10.78125 0.21281,0.14615 0.51425,1.74301 0.66992,3.54687 0.46108,5.34295 3.26721,10.71269 8.47461,16.21875 4.497,4.75491 8.894,12.27866 8.94727,15.31055 0.0163,0.92836 -2.91836,1.25 -11.40625,1.25 -9.05628,0 -11.75477,0.32703 -13,1.57227 -0.86429,0.86427 -1.57227,1.79258 -1.57227,2.06445 0,0.94478 2.26706,4.87338 3.87891,6.72266 1.55603,1.78525 1.64088,1.74487 2.125,-1 0.43625,-2.47339 1.0112,-2.90155 4.25,-3.16993 3.00482,-0.24899 3.74609,0.0327 3.74609,1.42188 0,2.0147 2.7899,5.38867 4.45508,5.38867 0.71883,0 0.99107,-1.30118 0.73437,-3.5 l -0.4082,-3.5 h 8.28125 c 8.59628,0 11.9375,1.35954 11.9375,4.85547 0,1.1447 0.29127,1.25365 1.125,0.41992 0.67959,-0.67959 0.86896,-2.49819 0.47656,-4.58984 -0.63784,-3.40001 -1.39378,-3.98049 -7.875,-6.06836 -0.97498,-0.31408 -2.04588,-1.36877 -2.38086,-2.34375 -0.33498,-0.97497 -2.32281,-5.37344 -4.41797,-9.77344 -4.25125,-8.92796 -6.70636,-20.37687 -4.65429,-21.70312 0.67509,-0.43632 2.57656,-0.5058 4.22656,-0.1543 1.65,0.35149 5.94382,0.64112 9.54297,0.64453 l 6.54492,0.006 3.35742,12.10351 c 5.12468,18.47112 6.76897,22.40393 10.08203,24.11719 2.68521,1.38857 9.97266,2.10355 9.97266,0.97852 0,-0.27883 -3.3465,-8.85599 -7.43555,-19.06055 -5.50232,-13.73151 -7.0218,-18.47216 -5.84961,-18.24219 0.99649,0.19551 4.03066,6.18628 8.1836,16.1543 3.63042,8.71388 7.63919,16.90098 8.90625,18.19531 2.21738,2.26511 9.06147,4.07309 12.52148,3.30664 1.19831,-0.26545 -0.86868,-4.74461 -8.88281,-19.25195 C 443.69903,746.19545 439,737.49885 439,737.26953 c 0,-0.22931 0.69533,-0.27159 1.54492,-0.0937 0.8496,0.17782 5.93724,7.94561 11.30664,17.25977 5.3694,9.31415 10.90595,17.78723 12.30274,18.83007 3.36736,2.5141 15.46814,3.7989 14.60547,1.55079 -0.31469,-0.82006 -6.68125,-9.71993 -14.14844,-19.77735 -7.46718,-10.05742 -13.32894,-18.68657 -13.02539,-19.17773 0.92299,-1.49343 1.9907,-0.31159 14.85742,16.45508 6.83039,8.90071 14.04218,17.75066 16.02539,19.66601 3.38437,3.26858 4.07949,3.50383 11.31836,3.83399 l 7.71289,0.35156 -20.75,-20.8418 C 469.33751,743.86257 460,734.14989 460,733.74219 c 0,-2.28916 4.08759,1.07563 22.24609,18.31836 11.04055,10.48375 21.91465,20.00865 24.16407,21.16601 3.90904,2.01127 16.27453,3.55956 21.0664,2.63672 4.803,-0.92497 -72.91009,-59.28519 -108.52929,-81.50195 C 411.27663,689.57692 405,685.27311 405,684.79883 c 0,-2.16004 3.26181,-1.71604 7.19531,0.97851 14.12921,9.67887 23.34966,10.40808 31.51172,2.49024 l 3.79297,-3.67969 -7.19141,-0.76172 c -8.55571,-0.9057 -14.57733,-3.536 -20.39648,-8.9082 -3.28285,-3.03072 -4.00655,-4.22393 -3.10352,-5.12695 0.90303,-0.90303 1.82109,-0.56449 3.93555,1.45312 1.51612,1.44668 5.23086,3.77331 8.25586,5.17188 13.33472,6.16514 23.86422,5.55553 31.57227,-1.83008 2.43537,-2.3335 4.42773,-4.7058 4.42773,-5.27149 0,-0.57436 -3.57783,-1.27391 -8.10156,-1.58398 -6.29644,-0.43156 -9.50672,-1.24819 -14.41406,-3.66406 -7.50505,-3.69472 -13.20161,-9.49697 -11.42579,-11.63672 0.95835,-1.15474 1.85533,-0.81423 5.29688,2.00586 9.13537,7.48575 21.02182,11.1702 30.39062,9.41992 6.61344,-1.23552 13.04945,-5.67328 15.74414,-10.85547 l 1.29883,-2.5 -10.14453,-0.0371 c -7.78956,-0.0289 -11.46059,-0.52805 -15.8125,-2.14648 C 451.72021,646.04346 443,640.51892 443,638.91992 c 0,-2.23967 3.06093,-1.86363 7.63281,0.93555 12.36067,7.56795 28.06813,9.57851 39.86719,5.10351 4.52723,-1.71702 7.65688,-3.92959 12.75,-9.01367 3.7125,-3.70589 6.75,-7.20918 6.75,-7.78515 0,-0.57597 -2.1375,-0.0601 -4.75,1.14648 -4.08799,1.88803 -6.49213,2.19336 -17.25,2.19336 -12.93824,0 -20.33609,-1.69281 -28.14453,-6.44141 -2.42092,-1.47224 -2.64621,-1.96416 -1.57031,-3.43554 1.17353,-1.60489 1.61357,-1.55771 6.73632,0.70117 7.52665,3.3189 14.60337,4.67806 24.27735,4.66406 14.85722,-0.0215 25.51429,-4.54976 31.4375,-13.35937 2.91589,-4.33682 5.94875,-12.27782 5.03711,-13.18946 -0.19724,-0.19724 -3.86531,0.75447 -8.15039,2.11524 -12.38776,3.93384 -24.73831,5.68565 -37.29493,5.28906 -6.14421,-0.19406 -11.4422,-0.62385 -11.77343,-0.95508 -0.33123,-0.33123 -0.36048,-1.22987 -0.0664,-1.99609 0.42192,-1.09952 3.64078,-1.40502 15.27344,-1.45508 31.84149,-0.13702 48.17313,-9.30656 50.65234,-28.4375 0.92231,-7.11707 -0.32168,-7.82444 -6.03125,-3.43359 -10.73889,8.25855 -32.22009,16.07216 -49.58789,18.03711 -5.52069,0.62459 -5.967,0.52824 -5.63281,-1.20704 0.29214,-1.51696 3.09005,-2.58939 14.34961,-5.5 17.44625,-4.50987 21.13871,-5.89282 28.16211,-10.55468 8.97217,-5.95539 13.30929,-14.27354 13.32031,-25.54297 0.006,-5.99437 -1.6802,-15.73217 -2.96289,-17.11133 -0.41526,-0.44649 -2.46519,1.57851 -4.55664,4.5 -6.48123,9.05348 -13.67273,16.80623 -21.23828,22.89453 -7.21998,5.81022 -23.54131,14.58658 -28.14258,15.13281 -4.35568,0.51708 -3.3277,-2.08614 1.94531,-4.92578 16.01552,-8.62472 28.58482,-19.01494 34.70313,-28.68359 7.98661,-12.62109 9.06093,-29.4028 2.66406,-41.60547 -2.33879,-4.46149 -4.56186,-7.66828 -5.47266,-7.97656 z m -233.95898,8.5039 c -4.23398,0.0497 -2.53445,2.6087 4.19141,13.29883 8.85872,14.08013 12.86314,21.96754 16.33984,32.18945 2.62079,7.70543 4.97917,21.39051 3.96875,23.0254 -1.4025,2.26927 -2.81264,0.0562 -5.15039,-8.08204 -7.52732,-26.20437 -23.32046,-50.02062 -37.82422,-57.03906 -7.06517,-3.41886 -20.94794,-3.47394 -27.30078,-0.10742 -5.11472,2.71041 -6.45528,0.30528 12.17578,21.82031 27.34267,31.57514 41.85803,53.87272 51.70508,79.42383 3.24784,8.42749 3.28507,8.47371 20.53515,25.27734 16.70014,16.26793 23.60585,24.71546 31.85157,38.96094 1.52657,2.63735 2.90122,4.66235 3.05468,4.5 0.15346,-0.16234 2.54012,-3.66992 5.30274,-7.79492 5.31022,-7.92894 8.76061,-11.14477 21.67578,-20.19922 9.45484,-6.62851 11.87699,-9.06431 13.95312,-14.0332 1.81117,-4.33474 2.03083,-14.08183 0.42188,-18.69727 l -1.125,-3.22851 -2.44922,4.33008 c -3.24169,5.72966 -5.76776,8.32838 -11.55078,11.88671 -4.17488,2.56882 -4.88961,2.74377 -5.43359,1.32618 -0.39466,-1.02846 0.0743,-2.02364 1.26757,-2.69141 4.08905,-2.28835 11.4419,-10.11545 13.50391,-14.375 2.92511,-6.04246 2.30222,-14.65369 -1.61523,-22.33789 l -2.79297,-5.48047 -1.15039,5.04102 c -1.80781,7.92871 -5.15507,13.81606 -11.00391,19.34765 -2.97281,2.81157 -5.85579,5.11133 -6.40625,5.11133 -2.66094,0 -1.68433,-2.31345 3.01367,-7.13672 10.96201,-11.25428 13.79065,-24.86187 8.26563,-39.76758 C 366.27282,553.66325 364,551.08886 364,555.98242 c 0,8.66226 -7.1864,25.87859 -14.37695,34.44336 -2.65296,3.15996 -3.38817,3.56167 -4.36328,2.38672 -0.92824,-1.11846 -0.54535,-2.34141 1.83789,-5.86328 11.82968,-17.48149 15.96048,-36.70117 10.83203,-50.4082 -2.22426,-5.94488 -9.58568,-14.80012 -14.84766,-17.86133 l -3.12891,-1.82031 0.77344,4.32031 c 0.42516,2.37608 0.75097,10.84532 0.72266,18.82031 -0.0537,15.13204 -1.262,21.99911 -5.68555,32.31445 -1.79651,4.18931 -2.25093,4.62603 -3.5039,3.37305 -1.25297,-1.25297 -1.10027,-2.78614 1.17773,-11.81445 6.34002,-25.12731 3.71103,-42.41068 -8.01953,-52.73633 -4.32995,-3.81137 -14.60121,-8.28748 -15.94141,-6.94727 -0.30093,0.30093 0.7948,5.89479 2.4336,12.42969 C 315.69169,531.69845 317,541.45649 317,554.57227 317,564.14242 316.84353,565 315.10352,565 c -1.65462,0 -1.97992,-1.05002 -2.55664,-8.25 -1.01083,-12.61935 -2.47262,-23.0435 -4.11719,-29.35742 -4.52087,-17.35675 -14.92787,-27.44743 -30.20899,-29.28711 -2.76358,-0.3327 -4.83476,-0.5947 -6.24609,-0.57813 z" />
    <path
       id="path11"
       style="fill:#deaa87"
       d="M 112.39258 172.5 C 104.14569 172.5 103.5662 185.41387 104.32422 352.5 C 104.6461 423.44993 105.38096 489.591 105.95703 499.48047 C 106.68475 511.97318 106.68702 519.90896 105.96289 525.48047 C 102.91076 548.95168 104.05755 678.74461 107.49023 698.32617 C 110.55885 715.83084 115.34712 720.83519 118.07617 709.39062 L 118.07422 709.39062 C 119.7578 702.33035 120.93985 588.71091 119.73242 550 C 118.27116 503.15118 118.26692 473.97359 119.70312 360 C 120.40868 304.0074 120.59352 246.60996 120.15039 221.25391 C 119.42596 179.80187 119.31006 177.8928 117.33984 175.25391 C 115.92449 173.35818 114.38397 172.5 112.39258 172.5 z M 122.11914 796.5 L 116.9375 802 C 110.47201 808.86141 107.39463 815.34792 105.76758 825.55078 C 104.31676 834.64855 103.89734 994.95458 105.30273 1003.1797 C 106.87815 1012.3998 112.87238 1015.7702 117.24023 1009.8926 C 120.34242 1005.7182 120.88346 990.52211 121.52734 889.5 L 122.11914 796.5 z " />
    <path
       style="fill:#cccccc"
       d="m 127.78391,165.76438 c 1.82178,-1.51195 1.25741,-7.65797 -3.22535,-35.12374 C 121.21873,110.17756 120.03922,106 117.60138,106 c -1.70141,0 -5.5478,8.76242 -9.46205,21.55539 -6.45886,21.1096 -8.54118,33.68042 -6.19368,37.39091 1.86718,2.95129 22.48147,3.60396 25.83826,0.81808 z"
       id="path12" />
  </g>
</svg>
