<?xml version="1.0" encoding="UTF-8" standalone="no"?>
<!-- Created with Inkscape (http://www.inkscape.org/) -->

<svg
   version="1.1"
   id="svg1"
   width="266.36365"
   height="422.72726"
   viewBox="0 0 266.36365 422.72726"
   sodipodi:docname="kugla2.svg"
   inkscape:version="1.4.2 (ebf0e940d0, 2025-05-08)"
   xmlns:inkscape="http://www.inkscape.org/namespaces/inkscape"
   xmlns:sodipodi="http://sodipodi.sourceforge.net/DTD/sodipodi-0.dtd"
   xmlns="http://www.w3.org/2000/svg"
   xmlns:svg="http://www.w3.org/2000/svg">
  <defs
     id="defs1">
    <inkscape:path-effect
       effect="bspline"
       id="path-effect34"
       is_visible="true"
       lpeversion="1.3"
       weight="33.333333"
       steps="2"
       helper_size="0"
       apply_no_weight="true"
       apply_with_weight="true"
       only_selected="false"
       uniform="false" />
    <inkscape:path-effect
       effect="bspline"
       id="path-effect33"
       is_visible="true"
       lpeversion="1.3"
       weight="33.333333"
       steps="2"
       helper_size="0"
       apply_no_weight="true"
       apply_with_weight="true"
       only_selected="false"
       uniform="false" />
    <inkscape:path-effect
       effect="bspline"
       id="path-effect32"
       is_visible="true"
       lpeversion="1.3"
       weight="33.333333"
       steps="2"
       helper_size="0"
       apply_no_weight="true"
       apply_with_weight="true"
       only_selected="false"
       uniform="false" />
    <inkscape:path-effect
       effect="bspline"
       id="path-effect31"
       is_visible="true"
       lpeversion="1.3"
       weight="33.333333"
       steps="2"
       helper_size="0"
       apply_no_weight="true"
       apply_with_weight="true"
       only_selected="false"
       uniform="false" />
    <inkscape:path-effect
       effect="bspline"
       id="path-effect30"
       is_visible="true"
       lpeversion="1.3"
       weight="33.333333"
       steps="2"
       helper_size="0"
       apply_no_weight="true"
       apply_with_weight="true"
       only_selected="false"
       uniform="false" />
    <inkscape:path-effect
       effect="bspline"
       id="path-effect29"
       is_visible="true"
       lpeversion="1.3"
       weight="33.333333"
       steps="2"
       helper_size="0"
       apply_no_weight="true"
       apply_with_weight="true"
       only_selected="false"
       uniform="false" />
    <inkscape:path-effect
       effect="bspline"
       id="path-effect28"
       is_visible="true"
       lpeversion="1.3"
       weight="33.333333"
       steps="2"
       helper_size="0"
       apply_no_weight="true"
       apply_with_weight="true"
       only_selected="false"
       uniform="false" />
    <inkscape:path-effect
       effect="bspline"
       id="path-effect27"
       is_visible="true"
       lpeversion="1.3"
       weight="33.333333"
       steps="2"
       helper_size="0"
       apply_no_weight="true"
       apply_with_weight="true"
       only_selected="false"
       uniform="false" />
    <inkscape:path-effect
       effect="bspline"
       id="path-effect26"
       is_visible="true"
       lpeversion="1.3"
       weight="33.333333"
       steps="2"
       helper_size="0"
       apply_no_weight="true"
       apply_with_weight="true"
       only_selected="false"
       uniform="false" />
    <inkscape:path-effect
       effect="bspline"
       id="path-effect25"
       is_visible="true"
       lpeversion="1.3"
       weight="33.333333"
       steps="2"
       helper_size="0"
       apply_no_weight="true"
       apply_with_weight="true"
       only_selected="false"
       uniform="false" />
    <inkscape:path-effect
       effect="bspline"
       id="path-effect24"
       is_visible="true"
       lpeversion="1.3"
       weight="33.333333"
       steps="2"
       helper_size="0"
       apply_no_weight="true"
       apply_with_weight="true"
       only_selected="false"
       uniform="false" />
    <inkscape:path-effect
       effect="bspline"
       id="path-effect23"
       is_visible="true"
       lpeversion="1.3"
       weight="33.333333"
       steps="2"
       helper_size="0"
       apply_no_weight="true"
       apply_with_weight="true"
       only_selected="false"
       uniform="false" />
    <inkscape:path-effect
       effect="bspline"
       id="path-effect22"
       is_visible="true"
       lpeversion="1.3"
       weight="33.333333"
       steps="2"
       helper_size="0"
       apply_no_weight="true"
       apply_with_weight="true"
       only_selected="false"
       uniform="false" />
    <inkscape:path-effect
       effect="bspline"
       id="path-effect21"
       is_visible="true"
       lpeversion="1.3"
       weight="33.333333"
       steps="2"
       helper_size="0"
       apply_no_weight="true"
       apply_with_weight="true"
       only_selected="false"
       uniform="false" />
    <inkscape:path-effect
       effect="bspline"
       id="path-effect20"
       is_visible="true"
       lpeversion="1.3"
       weight="33.333333"
       steps="2"
       helper_size="0"
       apply_no_weight="true"
       apply_with_weight="true"
       only_selected="false"
       uniform="false" />
    <inkscape:path-effect
       effect="bspline"
       id="path-effect19"
       is_visible="true"
       lpeversion="1.3"
       weight="33.333333"
       steps="2"
       helper_size="0"
       apply_no_weight="true"
       apply_with_weight="true"
       only_selected="false"
       uniform="false" />
    <inkscape:path-effect
       effect="bspline"
       id="path-effect18"
       is_visible="true"
       lpeversion="1.3"
       weight="33.333333"
       steps="2"
       helper_size="0"
       apply_no_weight="true"
       apply_with_weight="true"
       only_selected="false"
       uniform="false" />
    <inkscape:path-effect
       effect="bspline"
       id="path-effect17"
       is_visible="true"
       lpeversion="1.3"
       weight="33.333333"
       steps="2"
       helper_size="0"
       apply_no_weight="true"
       apply_with_weight="true"
       only_selected="false"
       uniform="false" />
    <inkscape:path-effect
       effect="bspline"
       id="path-effect16"
       is_visible="true"
       lpeversion="1.3"
       weight="33.333333"
       steps="2"
       helper_size="0"
       apply_no_weight="true"
       apply_with_weight="true"
       only_selected="false"
       uniform="false" />
    <inkscape:path-effect
       effect="bspline"
       id="path-effect15"
       is_visible="true"
       lpeversion="1.3"
       weight="33.333333"
       steps="2"
       helper_size="0"
       apply_no_weight="true"
       apply_with_weight="true"
       only_selected="false"
       uniform="false" />
    <inkscape:path-effect
       effect="bspline"
       id="path-effect14"
       is_visible="true"
       lpeversion="1.3"
       weight="33.333333"
       steps="2"
       helper_size="0"
       apply_no_weight="true"
       apply_with_weight="true"
       only_selected="false"
       uniform="false" />
    <inkscape:path-effect
       effect="bspline"
       id="path-effect13"
       is_visible="true"
       lpeversion="1.3"
       weight="33.333333"
       steps="2"
       helper_size="0"
       apply_no_weight="true"
       apply_with_weight="true"
       only_selected="false"
       uniform="false" />
    <inkscape:path-effect
       effect="bspline"
       id="path-effect12"
       is_visible="true"
       lpeversion="1.3"
       weight="33.333333"
       steps="2"
       helper_size="0"
       apply_no_weight="true"
       apply_with_weight="true"
       only_selected="false"
       uniform="false" />
    <inkscape:path-effect
       effect="bspline"
       id="path-effect11"
       is_visible="true"
       lpeversion="1.3"
       weight="33.333333"
       steps="2"
       helper_size="0"
       apply_no_weight="true"
       apply_with_weight="true"
       only_selected="false"
       uniform="false" />
    <inkscape:path-effect
       effect="bspline"
       id="path-effect10"
       is_visible="true"
       lpeversion="1.3"
       weight="33.333333"
       steps="2"
       helper_size="0"
       apply_no_weight="true"
       apply_with_weight="true"
       only_selected="false"
       uniform="false" />
    <inkscape:path-effect
       effect="bspline"
       id="path-effect9"
       is_visible="true"
       lpeversion="1.3"
       weight="33.333333"
       steps="2"
       helper_size="0"
       apply_no_weight="true"
       apply_with_weight="true"
       only_selected="false"
       uniform="false" />
    <inkscape:path-effect
       effect="bspline"
       id="path-effect8"
       is_visible="true"
       lpeversion="1.3"
       weight="33.333333"
       steps="2"
       helper_size="0"
       apply_no_weight="true"
       apply_with_weight="true"
       only_selected="false"
       uniform="false" />
    <inkscape:path-effect
       effect="bspline"
       id="path-effect7"
       is_visible="true"
       lpeversion="1.3"
       weight="33.333333"
       steps="2"
       helper_size="0"
       apply_no_weight="true"
       apply_with_weight="true"
       only_selected="false"
       uniform="false" />
    <inkscape:path-effect
       effect="bspline"
       id="path-effect6"
       is_visible="true"
       lpeversion="1.3"
       weight="33.333333"
       steps="2"
       helper_size="0"
       apply_no_weight="true"
       apply_with_weight="true"
       only_selected="false"
       uniform="false" />
    <inkscape:path-effect
       effect="bspline"
       id="path-effect5"
       is_visible="true"
       lpeversion="1.3"
       weight="33.333333"
       steps="2"
       helper_size="0"
       apply_no_weight="true"
       apply_with_weight="true"
       only_selected="false"
       uniform="false" />
    <inkscape:path-effect
       effect="bspline"
       id="path-effect4"
       is_visible="true"
       lpeversion="1.3"
       weight="33.333333"
       steps="2"
       helper_size="0"
       apply_no_weight="true"
       apply_with_weight="true"
       only_selected="false"
       uniform="false" />
    <inkscape:path-effect
       effect="bspline"
       id="path-effect3"
       is_visible="true"
       lpeversion="1.3"
       weight="33.333333"
       steps="2"
       helper_size="0"
       apply_no_weight="true"
       apply_with_weight="true"
       only_selected="false"
       uniform="false" />
    <inkscape:path-effect
       effect="bspline"
       id="path-effect2"
       is_visible="true"
       lpeversion="1.3"
       weight="33.333333"
       steps="2"
       helper_size="0"
       apply_no_weight="true"
       apply_with_weight="true"
       only_selected="false"
       uniform="false" />
  </defs>
  <sodipodi:namedview
     id="namedview1"
     pagecolor="#ffffff"
     bordercolor="#000000"
     borderopacity="0.25"
     inkscape:showpageshadow="2"
     inkscape:pageopacity="0.0"
     inkscape:pagecheckerboard="0"
     inkscape:deskcolor="#d1d1d1"
     showgrid="false"
     inkscape:zoom="1.1"
     inkscape:cx="212.27273"
     inkscape:cy="210.90909"
     inkscape:window-width="1920"
     inkscape:window-height="1011"
     inkscape:window-x="0"
     inkscape:window-y="0"
     inkscape:window-maximized="1"
     inkscape:current-layer="g1" />
  <g
     inkscape:groupmode="layer"
     inkscape:label="Layer 1"
     id="g1"
     transform="translate(0,7.2727275)">
    <path
       id="path37"
       style="opacity:0.99;fill:#ff0000;fill-opacity:1;stroke:none;stroke-width:3.73039;stroke-linecap:round;stroke-linejoin:round;stroke-dasharray:none;stroke-opacity:1;paint-order:markers fill stroke"
       d="m 42.825817,279.50355 -2.160156,1.58203 2.056641,3.01562 5.939453,3.79493 7.742187,1.72265 c 0,0 -0.219982,-1.94823 -0.5,-2.94922 -0.280014,-1.00099 -0.814453,-3.17383 -0.814453,-3.17382 l 2.009766,-1.16797 -6.394532,-2.5586 z m 150.363273,7.1289 -1.625,1.48829 0.38086,14.94531 2.0625,4.67187 5.06836,5.48633 1.80469,-0.41601 1.30664,-3.36524 -6.2539,-20.29687 z m -72.85742,5.54688 c -0.0329,0.002 -0.0614,0.0113 -0.0859,0.0293 -0.39276,0.28729 -4.45313,10.18945 -4.45313,10.18945 l -3.29297,12.80859 -1.40234,3.43946 3.97461,1.3125 2.05078,1.36132 3.73242,-2.72851 3.50977,-8.5957 c 0,0 -1.47292,-15.20241 -1.83204,-15.69336 -0.33667,-0.46027 -1.70763,-2.15012 -2.20117,-2.12305 z m 20.16992,9.17578 -3.24609,2.97852 -1.0332,21.25585 2.70508,1.63672 4.16406,1.77735 2.12695,-0.80078 3.00195,-4.75782 -1.40039,-5.00586 -4.71875,-14.48437 z m -60.646476,0.95313 -2.910156,9.21289 -0.833985,8.75 -0.414062,2.11132 6.195312,-1.21484 2.423829,-3.28125 -0.587891,-11.92969 z" />
    <path
       id="path36"
       style="display:inline;opacity:0.99;fill:#ffccaa;fill-opacity:1;stroke:none;stroke-width:3.73039;stroke-linecap:round;stroke-linejoin:round;stroke-dasharray:none;stroke-opacity:1;paint-order:markers fill stroke"
       d="m 63.032848,280.54847 -7.222656,1.66601 -0.507812,3.8379 2.134765,2.50781 3.935547,2.69922 5.72461,3.5 -1.328126,-4.90625 -1.050781,-7.82422 z m 129.072262,25.41601 -1.95117,2.48243 -0.0606,7.1289 2.62305,14.50977 c 0,0 1.37873,6.82927 0.6914,7.33203 -0.52296,0.38253 -6.77697,2.95 -9.73828,4.15625 l -0.043,-0.0156 -10.39257,4.13476 -11.08204,2.98047 -3.9707,0.3418 -1.82422,-10.11914 -3.88476,-10.875 -2.67188,-2.41602 -2.8457,-0.17969 c 0,0 -1.10244,2.61399 -1.35156,3.09766 -0.24911,0.48363 -2.43946,0.58008 -2.43946,0.58008 l -4.11132,-2.11719 -2.56446,0.82031 0.20313,5.42774 c 0,0 0.59979,16.89434 0.20703,17.18164 -0.39276,0.28729 -1.2887,-0.11311 -1.91602,-0.5586 -0.62732,-0.44553 -4.375,-0.41601 -4.375,-0.41601 l -1.29101,-14.12891 -1.13672,-10.62305 -1.97656,-9.70703 -1.53516,-1.89258 -3.78711,5.33204 -2.83594,3.1289 -2.91601,-0.27734 -3.37305,-0.69727 -2.57617,9.8711 c 0,0 -0.57528,15.49484 -0.48438,16.03125 0.0909,0.53641 -0.3789,5.25 -0.3789,5.25 l -6.99219,0.74414 -3.83398,1.14648 -3.867188,-4.25586 -5.263672,-5.34375 1.382813,-7.79297 -0.695313,-8.98828 -1.96875,-6.39844 -1.927734,-1.60351 -4.777344,2.74023 -5.140625,0.59571 -1.074219,6.36133 -2.246093,12.79687 0.283203,4.91797 9.759765,13.96289 11.048829,14.07422 14.820308,-0.13867 4.21289,-0.2168 1.70117,4.18164 4.35938,7.81445 5.46484,2.93555 5.56055,-1.05273 7.36914,-3.73243 6.16992,-3.30859 3.21875,5.63672 10.60938,3.99414 c 0,0 4.71554,0.47 5.30468,0.0391 0.58913,-0.43094 2.10183,-2.8947 2.61914,-3.42383 0.51732,-0.52913 9.60547,-19.83789 9.60547,-19.83789 l 5.81055,-17.81445 c 0,0 2.16877,-4.45089 2.58789,-4.9082 0.17934,-0.19568 0.76066,-0.71179 1.36523,-1.23828 l 10.94727,9.41601 9.2168,4.5625 4.22851,-3.69726 2.12305,-8.63672 -0.64649,-10.98243 -6.96484,-21.88476 -2.75,2.01172 -1.52344,-0.8457 z" />
    <path
       style="opacity:0.99;fill:#5555ff;fill-opacity:1;stroke:none;stroke-width:3.73039;stroke-linecap:round;stroke-linejoin:round;stroke-dasharray:none;stroke-opacity:1;paint-order:markers fill stroke"
       d="m 96.943597,197.86736 -12.1584,10.36543 -10.567677,15.26252 -8.345006,16.40729 -4.037572,20.87562 1.227197,16.5917 4.199807,15.80259 6.260051,17.67223 2.620087,1.80646 c 0,0 2.280143,-5.99692 2.299463,-6.44396 0.0193,-0.44704 2.97316,-4.33931 2.97316,-4.33931 l 0.98024,3.35229 1.4523,10.6261 3.12717,4.98535 3.01959,6.96884 2.47699,2.08429 9.286503,6.54062 6.46431,4.10277 0.87372,-1.76465 2.18986,-18.31194 2.57262,-11.75204 4.57962,-12.44087 2.98412,-4.08758 0.76716,2.46917 2.06487,16.67159 2.15894,4.13514 3.75483,20.28396 0.0626,13.46084 5.34516,0.67894 1.50354,-0.6669 0.10764,-11.33426 -0.0218,-19.20499 1.45505,-16.47573 1.55158,-0.009 4.27244,8.56325 2.84043,9.09124 1.43668,4.9232 2.17722,1.43774 6.37025,16.63924 0.84496,6.48157 12.09257,-2.52499 16.61991,-5.92321 7.13543,-4.09384 -3.9653,-20.21659 0.4732,-9.17738 1.97148,-2.39449 -0.88774,-14.58888 1.72812,-3.08227 1.3218,0.50502 8.3046,23.18974 4.34865,13.87552 2.3099,-2.64202 7.84625,-10.93417 6.72291,-14.00864 6.17039,-16.89456 0.59495,-22.85964 -3.61229,-17.01159 -7.25754,-16.07678 -6.36036,-9.28709 -13.23306,-14.30328 -13.19392,-9.39678 -14.29901,-5.81787 -20.92106,-3.74459 -17.74688,-0.35208 -19.32828,5.6532 -12.45761,6.16868 z"
       id="path35" />
    <path
       style="opacity:0.99;fill:#ffcc00;fill-opacity:1;stroke:none;stroke-width:3.73039;stroke-linecap:round;stroke-linejoin:round;stroke-dasharray:none;stroke-opacity:1;paint-order:markers fill stroke"
       d="m 108.87046,226.71929 23.1457,28.09159 -25.27205,33.98385 2.96582,-1.3902 30.17013,-23.97345 29.02515,25.00308 1.73334,-1.18129 -2.75168,-4.82712 -20.57784,-26.59327 24.15862,-29.70614 -2.12083,-1.47902 -28.87027,23.97503 -2.63105,-2.05817 -28.34885,-21.94795 z"
       id="path34" />
    <path
       id="path1"
       style="opacity:0.99;fill:none;stroke:#0c0505;stroke-width:3.73039;stroke-linecap:round;stroke-linejoin:round;stroke-opacity:1;paint-order:markers fill stroke"
       d="M 182.61767,299.55058 139.27766,263.6036 96.496887,299.39417 132.44386,256.05415 96.653307,213.27337 139.99331,249.22035 182.77409,213.42979 146.82712,256.7698 Z" />
    <path
       style="opacity:0.99;fill:none;stroke:#0c0505;stroke-width:3.73;stroke-linecap:round;stroke-linejoin:round;stroke-opacity:1;paint-order:markers fill stroke"
       d="m 116.14173,314.17323 c 1.04987,6.29921 2.09974,12.59842 3.60894,16.99477 1.50921,4.39635 3.47768,6.88974 5.64305,7.5459 2.16538,0.65615 4.52754,-0.52493 7.021,-2.23099 2.49347,-1.70605 5.11809,-3.93698 7.15222,-7.3491 2.03414,-3.41212 3.47768,-8.0052 5.31497,-13.05775 1.83729,-5.05255 4.06822,-10.56425 6.10236,-16.07612 2.03414,-5.51186 3.87137,-11.02356 5.05248,-14.82936 1.18111,-3.80579 1.70603,-5.90549 1.83726,-7.54592 0.13124,-1.64043 -0.13123,-2.82151 -0.59056,-3.21521 -0.45932,-0.39369 -1.11547,0 -2.95277,2.36224 -1.8373,2.36225 -4.85561,6.69288 -6.56166,9.8425 -1.70604,3.14963 -2.09973,5.11809 -2.29658,6.75853 -0.19685,1.64043 -0.19685,2.95274 -0.19685,4.00261 0,1.04988 0,1.83727 0.26247,2.62468 0.26248,0.78741 0.7874,1.57479 1.57481,1.70602 0.78741,0.13123 1.83726,-0.3937 2.88713,-0.91863"
       id="path2"
       inkscape:path-effect="#path-effect2"
       inkscape:original-d="m 116.14173,314.17323 c 1.04987,6.29921 2.09974,12.59842 3.14961,18.89764 1.96854,2.49348 3.93701,4.98687 5.90551,7.48031 2.36225,-1.18112 4.72441,-2.3622 7.08661,-3.54331 2.62473,-2.23101 5.24935,-4.46194 7.87402,-6.69291 1.4436,-4.59327 2.88714,-9.18635 4.33071,-13.77953 2.23101,-5.51192 4.46194,-11.02362 6.69291,-16.53543 1.83731,-5.51192 3.67454,-11.02362 5.51181,-16.53543 0.52495,-2.09978 1.04987,-4.19948 1.57481,-6.29922 -0.26248,-1.18112 -0.52494,-2.3622 -0.78741,-3.5433 -0.65618,0.39371 -1.31233,0.7874 -1.9685,1.1811 -3.01843,4.33079 -6.03674,8.66142 -9.05512,12.99213 -0.39371,1.96854 -0.7874,3.937 -1.1811,5.90551 0,1.31236 0,2.62467 0,3.93701 0,0.78741 0,1.5748 0,2.3622 0.52495,0.78742 1.04987,1.5748 1.5748,2.3622 1.04989,-0.52494 2.09974,-1.04986 3.14961,-1.5748"
       transform="rotate(-36.184504,192.45553,226.28838)" />
    <path
       style="opacity:0.99;fill:none;stroke:#0c0505;stroke-width:3.73;stroke-linecap:round;stroke-linejoin:round;stroke-opacity:1;paint-order:markers fill stroke"
       d="m 126.37795,321.25984 c 0,0 0,0 0,0 3.01837,-6.82415 6.03675,-13.64829 8.26773,-18.43835 2.23099,-4.79005 3.67453,-7.5459 4.92126,-9.25194 1.24673,-1.70604 2.29658,-2.3622 3.28084,-2.88714 0.98426,-0.52494 1.90288,-0.91863 2.82151,-1.31233"
       id="path3"
       inkscape:path-effect="#path-effect3"
       inkscape:original-d="m 126.37795,321.25984 c 0,0 0,0 0,0 0,0 6.03675,-13.64829 9.05512,-20.47244 1.4436,-2.75596 2.88714,-5.51181 4.33071,-8.26771 1.04989,-0.65619 2.09974,-1.31234 3.14961,-1.96851 0.91865,-0.39371 1.83727,-0.7874 2.7559,-1.1811"
       transform="rotate(-36.184504,192.45553,226.28838)" />
    <path
       style="opacity:0.99;fill:none;stroke:#0c0505;stroke-width:3.73;stroke-linecap:round;stroke-linejoin:round;stroke-opacity:1;paint-order:markers fill stroke"
       d="m 114.17323,314.17323 c -0.65617,1.1811 -1.31234,2.3622 -6.56178,5.77433 -5.24944,3.41213 -15.091763,9.05506 -21.915948,13.25457 -6.824186,4.1995 -10.629883,6.95535 -13.123336,7.67712 -2.493453,0.72177 -3.674531,-0.59054 -5.577443,-2.95277 -1.902911,-2.36224 -4.527533,-5.77425 -5.77425,-8.92388 -1.246717,-3.14964 -1.115486,-6.03672 -0.196834,-9.58007 0.918652,-3.54335 2.624654,-7.74274 6.430486,-14.23889 3.805833,-6.49615 9.711229,-15.28863 13.385784,-20.66923 3.674554,-5.38059 5.118098,-7.34906 7.480335,-10.43309 2.362237,-3.08403 5.643012,-7.28342 8.333322,-10.69552 2.69031,-3.4121 4.790004,-6.03672 6.233584,-7.41467 1.44357,-1.37796 2.23096,-1.50919 2.69028,-1.5748 0.45932,-0.0656 0.59055,-0.0656 0.39369,1.8373 -0.19685,1.90293 -0.72178,5.70863 -1.77166,9.77692 -1.04989,4.06828 -2.62466,8.3989 -4.461948,11.02358 -1.837291,2.62468 -3.936988,3.5433 -5.380565,3.67452 -1.443577,0.13123 -2.230961,-0.52492 -2.952753,-1.57481 -0.721793,-1.04988 -1.377947,-2.49342 -2.034115,-3.93699"
       id="path4"
       inkscape:path-effect="#path-effect4"
       inkscape:original-d="m 114.17323,314.17323 c -0.65617,1.1811 -1.31234,2.3622 -1.96851,3.54331 -9.84271,5.64315 -19.685035,11.28608 -29.527555,16.92913 -3.80585,2.75596 -7.611548,5.51181 -11.417322,8.26772 -1.181126,-1.31237 -2.362205,-2.62468 -3.543308,-3.93701 -2.624724,-3.41214 -5.249343,-6.82415 -7.874015,-10.23622 0.131236,-2.8872 0.262467,-5.77428 0.3937,-8.66142 1.706071,-4.19956 3.412074,-8.39895 5.118111,-12.59843 5.90563,-8.79282 11.811023,-17.5853 17.716535,-26.37795 1.443599,-1.96854 2.887139,-3.93701 4.330709,-5.90551 3.280905,-4.19956 6.56168,-8.39895 9.842519,-12.59842 2.09978,-2.62473 4.199476,-5.24935 6.299216,-7.87402 0.78741,-0.13124 1.5748,-0.26247 2.3622,-0.3937 0.13124,0 0.26247,0 0.3937,0 -0.52494,3.80585 -1.04987,7.61155 -1.5748,11.41732 -1.57484,4.3308 -3.14961,8.66142 -4.72441,12.99213 -2.09978,0.91865 -4.199475,1.83727 -6.299213,2.7559 -0.787417,-0.65618 -1.574803,-1.31233 -2.362204,-1.9685 -0.656181,-1.4436 -1.312336,-2.88714 -1.968504,-4.33071"
       transform="rotate(-36.184504,192.45553,226.28838)" />
    <path
       style="opacity:0.99;fill:none;stroke:#0c0505;stroke-width:3.73;stroke-linecap:round;stroke-linejoin:round;stroke-opacity:1;paint-order:markers fill stroke"
       d="m 97.731899,279.36734 c 0,0 0.905923,1.04529 0.905923,1.04529 0.716526,0.75485 1.433048,1.50969 1.331987,3.98689 -0.10106,2.4772 -1.019679,6.6766 -4.10372,12.77904 -3.084042,6.10244 -8.333281,14.10753 -13.582624,22.11278"
       id="path5"
       inkscape:path-effect="#path-effect5"
       inkscape:original-d="m 97.731899,279.36734 0.905923,1.04529 c 0,0 1.433048,1.50969 2.149578,2.26454 -0.918652,4.19955 -1.837269,8.39895 -2.755904,12.59842 -5.249449,8.00541 -10.498688,16.0105 -15.748031,24.01575"
       sodipodi:nodetypes="ccccc"
       transform="rotate(-36.184504,192.45553,226.28838)" />
    <path
       style="opacity:0.99;fill:none;stroke:#0c0505;stroke-width:3.73;stroke-linecap:round;stroke-linejoin:round;stroke-opacity:1;paint-order:markers fill stroke"
       d="m 59.797247,321.9457 c -5.679023,-0.60332 -11.358044,-1.20663 -14.989427,-2.9035 -3.631384,-1.69686 -5.215063,-4.48715 -5.969208,-7.23981 -0.754146,-2.75267 -0.678733,-5.46755 -0.263944,-8.03168 0.414789,-2.56412 1.168923,-4.97735 2.790366,-8.44647 1.621443,-3.46913 4.110078,-7.99392 7.315245,-13.08448 3.205168,-5.09055 7.126659,-10.74655 11.613889,-15.98792 4.48723,-5.24138 9.539921,-10.06783 14.177973,-14.17797 4.638052,-4.11014 8.861191,-7.50373 12.405715,-10.10556 3.544524,-2.60183 6.41023,-4.41175 8.107066,-5.24131 1.696837,-0.82956 2.224731,-0.67873 2.413267,-0.33936 0.188536,0.33937 0.03771,0.86726 -1.018117,2.82808 -1.055827,1.96082 -3.016574,5.35442 -4.751128,8.33333 -1.734553,2.9789 -3.242822,5.54296 -5.354461,7.39063 -2.11164,1.84767 -4.826519,2.97887 -6.938148,3.39365 -2.111628,0.41478 -3.619894,0.11313 -4.487167,-0.60333 -0.867273,-0.71645 -1.093512,-1.84765 -1.206634,-2.63951 -0.113122,-0.79186 -0.113122,-1.24434 -0.113122,-1.69682"
       id="path6"
       inkscape:path-effect="#path-effect6"
       inkscape:original-d="m 59.797247,321.9457 c -5.679023,-0.60332 -11.358044,-1.20663 -17.037066,-1.80995 -1.583742,-2.79041 -3.167421,-5.5807 -4.751131,-8.37104 0.07542,-2.71499 0.150829,-5.42987 0.226244,-8.1448 0.754163,-2.41332 1.508296,-4.82655 2.262444,-7.23982 2.488737,-4.52498 4.977375,-9.04977 7.466063,-13.57466 3.921647,-5.65622 7.843137,-11.31222 11.764706,-16.96833 5.052891,-4.82664 10.10558,-9.65309 15.158371,-14.47963 4.223312,-3.39374 8.446455,-6.78733 12.669683,-10.181 2.865819,-1.80999 5.731523,-3.61991 8.597285,-5.42986 0.527914,0.15083 1.055807,0.30166 1.583711,0.45249 -0.150833,0.52791 -0.30166,1.0558 -0.452489,1.58371 -1.960824,3.39373 -3.921569,6.78733 -5.882353,10.18099 -1.508326,2.56415 -3.016591,5.12821 -4.524887,7.69231 -2.714986,1.13124 -5.429864,2.26244 -8.144796,3.39366 -1.508326,-0.30166 -3.016592,-0.60331 -4.524887,-0.90497 -0.226249,-1.13125 -0.452489,-2.26245 -0.678733,-3.39367 0,-0.4525 0,-0.90498 0,-1.35746"
       sodipodi:nodetypes="cccccccccccccccccc"
       transform="rotate(-36.184504,192.45553,226.28838)" />
    <path
       style="opacity:0.99;fill:none;stroke:#0c0505;stroke-width:3.73;stroke-linecap:round;stroke-linejoin:round;stroke-opacity:1;paint-order:markers fill stroke"
       d="m 51.58371,307.01357 c 4.901961,-2.71493 9.803922,-5.42986 12.443444,-7.65461 2.639521,-2.22476 3.016586,-3.95926 3.921578,-6.25944 0.904991,-2.30018 2.337845,-5.16589 3.808447,-7.76772 1.470602,-2.60183 2.978868,-4.93964 4.751136,-7.42836 1.772269,-2.48871 3.80843,-5.12818 5.6184,-8.44647 1.80997,-3.31829 3.393648,-7.31519 4.150658,-9.79832 0.757011,-2.48313 0.687326,-3.45236 0.61764,-4.4216"
       id="path7"
       inkscape:path-effect="#path-effect7"
       inkscape:original-d="m 51.58371,307.01357 c 4.901961,-2.71493 9.803922,-5.42986 14.705883,-8.14479 0.377081,-1.73458 0.754148,-3.46908 1.131221,-5.20362 1.43291,-2.86582 2.865762,-5.73153 4.298643,-8.59729 1.508326,-2.3379 3.016591,-4.67571 4.524887,-7.01357 2.03624,-2.63957 4.072398,-5.27904 6.108597,-7.91855 1.583742,-3.99707 3.167421,-7.99397 4.751131,-11.99095 -0.06969,-0.96928 -0.139373,-1.93851 -0.209059,-2.90775"
       sodipodi:nodetypes="cccccccc"
       transform="rotate(-36.184504,192.45553,226.28838)" />
    <path
       style="opacity:0.99;fill:none;stroke:#0c0505;stroke-width:3.73;stroke-linecap:round;stroke-linejoin:round;stroke-opacity:1;paint-order:markers fill stroke"
       d="m 39.59276,297.28507 c -4.901959,-2.86576 -9.803923,-5.73153 -12.518859,-7.91857 -2.714936,-2.18704 -3.242831,-3.69531 -3.318242,-6.0332 -0.07541,-2.33789 0.301656,-5.50525 0.490193,-8.78582 0.188537,-3.28058 0.188537,-6.67418 -4e-6,-9.84163 -0.188541,-3.16745 -0.565607,-6.10856 -0.490187,-8.55956 0.07542,-2.451 0.603314,-4.41175 1.99851,-6.44797 1.395196,-2.03622 3.657592,-4.14779 6.410265,-6.71193 2.752673,-2.56413 5.995443,-5.58066 8.861229,-8.18249 2.865785,-2.60183 5.354425,-4.78882 7.692304,-6.93816 2.337879,-2.14934 4.524863,-4.26091 6.108585,-5.46755 1.583721,-1.20664 2.564097,-1.50829 3.129708,-1.13121 0.56561,0.37708 0.716437,1.43287 -0.226268,3.77076 -0.942705,2.3379 -2.978866,5.95774 -4.67571,8.2956 -1.696845,2.33787 -3.054284,3.39366 -4.147806,3.95927 -1.093522,0.56561 -1.923068,0.64103 -2.865764,0.26394 -0.942696,-0.37708 -1.998484,-1.20663 -2.773001,-1.80693 -0.774517,-0.6003 -1.267722,-0.97132 -1.760941,-1.34235"
       id="path8"
       inkscape:path-effect="#path-effect8"
       inkscape:original-d="m 39.59276,297.28507 c -4.901961,-2.86576 -9.803921,-5.73153 -14.705882,-8.59729 -0.527914,-1.50832 -1.055807,-3.01659 -1.583711,-4.52488 0.377082,-3.16749 0.754148,-6.33485 1.131222,-9.50227 0,-3.39373 0,-6.78733 0,-10.18099 -0.377081,-2.94124 -0.754148,-5.88235 -1.131222,-8.82353 0.527914,-1.96082 1.055807,-3.92157 1.583711,-5.88235 2.262489,-2.11166 4.524887,-4.22323 6.78733,-6.33485 3.242901,-3.01665 6.485671,-6.03318 9.728507,-9.04977 2.488737,-2.18707 4.977375,-4.37406 7.466063,-6.56109 2.187073,-2.11165 4.374058,-4.22322 6.561086,-6.33484 0.980412,-0.30166 1.960785,-0.60332 2.941177,-0.90497 0.150832,1.05582 0.301659,2.11161 0.452488,3.16742 -2.036239,3.61998 -4.072398,7.23982 -6.108597,10.85972 -1.357493,1.05583 -2.714932,2.11162 -4.072398,3.16743 -0.829579,0.0754 -1.659125,0.15082 -2.488688,0.22624 -1.055828,-0.82958 -2.111614,-1.65913 -3.167421,-2.48869 -0.493228,-0.37104 -0.986433,-0.74206 -1.479653,-1.11309"
       sodipodi:nodetypes="cccccccccccccccccc"
       transform="rotate(-36.184504,192.45553,226.28838)" />
    <path
       style="opacity:0.99;fill:none;stroke:#0c0505;stroke-width:3.73;stroke-linecap:round;stroke-linejoin:round;stroke-opacity:1;paint-order:markers fill stroke"
       d="m 50.904977,236.65158 c 0.30166,1.05581 0.60332,2.11162 0.603316,3.54452 -5e-6,1.4329 -0.301656,3.24281 -1.093525,5.05278 -0.791868,1.80998 -2.073895,3.6199 -3.506791,5.69383 -1.432897,2.07393 -3.016574,4.41174 -4.449468,5.99546 -1.432894,1.58372 -2.714916,2.41326 -3.996971,3.24283"
       id="path9"
       inkscape:path-effect="#path-effect9"
       inkscape:original-d="m 50.904977,236.65158 c 0.30166,1.05581 0.603319,2.11162 0.904978,3.16742 -0.301665,1.81 -0.603318,3.61991 -0.904978,5.42987 -1.282077,1.80999 -2.564102,3.61991 -3.846153,5.42986 -1.583743,2.33791 -3.167421,4.67572 -4.751132,7.01358 -1.282077,0.82958 -2.564102,1.65912 -3.846154,2.48869"
       transform="rotate(-36.184504,192.45553,226.28838)" />
    <path
       style="opacity:0.99;fill:none;stroke:#0c0505;stroke-width:3.73;stroke-linecap:round;stroke-linejoin:round;stroke-opacity:1;paint-order:markers fill stroke"
       d="m 35.746606,256.78733 c 1.13122,1.96078 2.262445,3.92157 3.054304,6.07091 0.79186,2.14935 1.244339,4.48716 1.508292,6.41025 0.263952,1.92309 0.339365,3.43136 0.22624,4.71342 -0.113125,1.28206 -0.414778,2.33785 -0.716437,3.39366"
       id="path10"
       inkscape:path-effect="#path-effect10"
       inkscape:original-d="m 35.746606,256.78733 c 1.131222,1.96078 2.262444,3.92157 3.393665,5.88235 0.452498,2.33791 0.904978,4.67572 1.357467,7.01358 0.07542,1.50832 0.150829,3.01659 0.226244,4.52488 -0.301665,1.05583 -0.603318,2.11162 -0.904977,3.16743"
       transform="rotate(-36.184504,192.45553,226.28838)" />
    <path
       style="opacity:0.99;fill:none;stroke:#0c0505;stroke-width:3.73;stroke-linecap:round;stroke-linejoin:round;stroke-opacity:1;paint-order:markers fill stroke"
       d="m 41.176471,272.85068 c 2.111612,0.82956 4.223225,1.65913 5.844655,2.63953 1.621429,0.9804 2.75263,2.1116 3.883851,3.24282"
       id="path11"
       inkscape:path-effect="#path-effect11"
       inkscape:original-d="m 41.176471,272.85068 c 2.111613,0.82956 4.223227,1.65912 6.334841,2.48869 1.131245,1.13124 2.262444,2.26244 3.393665,3.39366"
       transform="rotate(-36.184504,192.45553,226.28838)" />
    <path
       style="opacity:0.99;fill:none;stroke:#0c0505;stroke-width:3.73;stroke-linecap:round;stroke-linejoin:round;stroke-opacity:1;paint-order:markers fill stroke"
       d="m 50.452489,207.01357 c -1.583709,-3.39366 -3.167423,-6.78733 -3.883861,-9.1252 -0.716438,-2.33787 -0.565612,-3.61989 -0.0377,-4.56258 0.527912,-0.94269 1.432872,-1.546 2.337858,-1.84766 0.904987,-0.30166 1.809946,-0.30166 2.865765,0.11313 1.055819,0.41479 2.262433,1.24434 3.469068,2.0739"
       id="path12"
       inkscape:path-effect="#path-effect12"
       inkscape:original-d="m 50.452489,207.01357 c -1.583711,-3.39366 -3.167421,-6.78733 -4.751132,-10.18099 0.150833,-1.28208 0.30166,-2.5641 0.452489,-3.84615 0.904996,-0.60333 1.809955,-1.20664 2.714932,-1.80996 0.904996,0 1.809955,0 2.714932,0 1.206661,0.82958 2.413273,1.65913 3.61991,2.48869"
       transform="rotate(-36.184504,192.45553,226.28838)" />
    <path
       style="opacity:0.99;fill:none;stroke:#0c0505;stroke-width:3.73;stroke-linecap:round;stroke-linejoin:round;stroke-opacity:1;paint-order:markers fill stroke"
       d="m 49.691385,190.88433 c -1.556251,-2.31589 -3.112508,-4.63179 -4.720214,-6.31765 -1.607706,-1.68586 -3.266795,-2.74164 -4.511149,-3.38267 -1.244353,-0.64103 -2.073899,-0.86727 -2.677221,-0.5656 -0.603321,0.30167 -0.980385,1.13121 -0.490177,3.16745 0.490209,2.03623 1.847649,5.279 3.437262,7.80541 1.589613,2.52641 3.411302,4.33633 5.233032,6.14629"
       id="path13"
       inkscape:path-effect="#path-effect13"
       inkscape:original-d="m 49.691385,190.88433 c -1.556251,-2.31589 -3.112506,-4.63179 -4.668761,-6.94768 -1.659158,-1.05583 -3.31825,-2.11161 -4.977375,-3.16742 -0.829579,-0.22625 -1.659125,-0.45249 -2.488688,-0.67873 -0.377081,0.82958 -0.754148,1.65912 -1.131222,2.48869 1.357494,3.2429 2.714932,6.48567 4.072399,9.7285 1.821761,1.80999 3.643451,3.61991 5.46518,5.42987"
       sodipodi:nodetypes="ccccccc"
       transform="rotate(-36.184504,192.45553,226.28838)" />
    <path
       style="opacity:0.99;fill:none;stroke:#0c0505;stroke-width:3.73;stroke-linecap:round;stroke-linejoin:round;stroke-opacity:1;paint-order:markers fill stroke"
       d="m 72.850679,195.24887 c 3.92157,-4.97738 7.843136,-9.95475 12.594324,-14.47968 4.751188,-4.52493 10.331768,-8.59724 14.102528,-11.04823 3.770759,-2.45099 5.731499,-3.28053 7.692289,-4.1101"
       id="path14"
       inkscape:path-effect="#path-effect14"
       inkscape:original-d="m 72.850679,195.24887 c 3.921568,-4.97738 7.843137,-9.95475 11.764706,-14.93213 5.580805,-4.07248 11.161387,-8.14479 16.742085,-12.21719 1.96082,-0.82958 3.92156,-1.65913 5.88235,-2.48869"
       transform="rotate(-36.184504,192.45553,226.28838)" />
    <path
       style="opacity:0.99;fill:none;stroke:#0c0505;stroke-width:3.73;stroke-linecap:round;stroke-linejoin:round;stroke-opacity:1;paint-order:markers fill stroke"
       d="m 158.37104,160.181 c 3.99698,1.35746 7.99397,2.71493 11.46308,4.56261 3.46911,1.84769 6.41022,4.1855 9.3514,6.52336"
       id="path15"
       inkscape:path-effect="#path-effect15"
       inkscape:original-d="m 158.37104,160.181 c 3.99698,1.35746 7.99397,2.71493 11.99095,4.07239 2.94124,2.33791 5.88235,4.67572 8.82353,7.01358"
       transform="rotate(-36.184504,192.45553,226.28838)" />
    <path
       style="opacity:0.99;fill:none;stroke:#0c0505;stroke-width:3.73;stroke-linecap:round;stroke-linejoin:round;stroke-opacity:1;paint-order:markers fill stroke"
       d="m 193.66516,246.60633 c -2.33786,6.86275 -4.67572,13.7255 -7.27756,19.1177 -2.60184,5.39219 -5.46754,9.31368 -7.73,12.368 -2.26246,3.05432 -3.92155,5.2413 -5.69382,7.31523 -1.77227,2.07392 -3.6576,4.03467 -5.54297,5.99545"
       id="path16"
       inkscape:path-effect="#path-effect16"
       inkscape:original-d="m 193.66516,246.60633 c -2.33786,6.86275 -4.67572,13.7255 -7.01358,20.58824 -2.86582,3.92165 -5.73152,7.84314 -8.59728,11.76471 -1.65916,2.18707 -3.31825,4.37405 -4.97738,6.56108 -1.8854,1.96083 -3.77074,3.92157 -5.65611,5.88235"
       transform="rotate(-30.899359,203.34526,216.13998)" />
    <path
       style="opacity:0.99;fill:none;stroke:#0c0505;stroke-width:3.73;stroke-linecap:round;stroke-linejoin:round;stroke-opacity:1;paint-order:markers fill stroke"
       d="m 208.59729,215.8371 c 0.11089,6.63296 0.22177,13.26577 -0.34891,18.95059 -0.57068,5.68481 -1.82285,10.42109 -3.07786,14.17978 -1.25501,3.75868 -2.5127,6.53932 -3.7794,8.90374 -1.26671,2.36441 -2.54229,4.31234 -3.8179,6.26032"
       id="path17"
       inkscape:path-effect="#path-effect17"
       inkscape:original-d="m 208.59729,215.8371 c 0.11089,6.63296 0.22177,13.26577 0.33266,19.89885 -1.25225,4.73655 -2.50442,9.47283 -3.75667,14.20939 -1.25777,2.78081 -2.51546,5.56145 -3.77323,8.34226 -1.27564,1.94802 -2.55122,3.89595 -3.82683,5.84393"
       transform="rotate(-41.215179,194.21326,227.50386)"
       sodipodi:nodetypes="ccccc" />
    <path
       style="opacity:0.99;fill:none;stroke:#0c0505;stroke-width:3.73;stroke-linecap:round;stroke-linejoin:round;stroke-opacity:1;paint-order:markers fill stroke"
       d="m 239.32039,225.24272 c 9.06149,-2.10356 18.12298,-4.20712 27.18446,-6.31068"
       id="path18"
       inkscape:path-effect="#path-effect19"
       inkscape:original-d="m 239.32039,225.24272 c 9.06149,-2.10356 18.12298,-4.20712 27.18446,-6.31068"
       transform="rotate(-36.184504,192.45553,226.28838)" />
    <path
       style="opacity:0.99;fill:none;stroke:#0c0505;stroke-width:3.73;stroke-linecap:round;stroke-linejoin:round;stroke-opacity:1;paint-order:markers fill stroke"
       d="m 241.26214,205.82524 c 13.75404,-4.36893 27.50809,-8.73786 41.26213,-13.10679"
       id="path19"
       inkscape:path-effect="#path-effect20"
       inkscape:original-d="m 241.26214,205.82524 c 13.75404,-4.36893 27.50809,-8.73786 41.26213,-13.10679"
       transform="rotate(-36.184504,192.45553,226.28838)" />
    <path
       style="opacity:0.99;fill:none;stroke:#0c0505;stroke-width:3.73;stroke-linecap:round;stroke-linejoin:round;stroke-opacity:1;paint-order:markers fill stroke"
       d="m 233.98058,188.34951 c 22.97735,-8.57605 45.9547,-17.1521 68.93204,-25.72815"
       id="path20"
       inkscape:path-effect="#path-effect21"
       inkscape:original-d="m 233.98058,188.34951 c 22.97735,-8.57605 45.9547,-17.1521 68.93204,-25.72815"
       transform="rotate(-36.184504,192.45553,226.28838)" />
    <path
       style="opacity:0.99;fill:none;stroke:#0c0505;stroke-width:3.73;stroke-linecap:round;stroke-linejoin:round;stroke-opacity:1;paint-order:markers fill stroke"
       d="m 221.84466,169.41748 c 27.99353,-14.56311 55.98706,-29.12622 83.98058,-43.68932"
       id="path21"
       inkscape:path-effect="#path-effect22"
       inkscape:original-d="m 221.84466,169.41748 c 27.99353,-14.56311 55.98706,-29.12622 83.98058,-43.68932"
       transform="rotate(-36.184504,192.45553,226.28838)" />
    <path
       style="opacity:0.99;fill:none;stroke:#0c0505;stroke-width:3.73;stroke-linecap:round;stroke-linejoin:round;stroke-opacity:1;paint-order:markers fill stroke"
       d="m 207.76699,155.82524 c 0,0 0,0 0,0 28.9644,-30.2589 57.9288,-60.517797 86.8932,-90.776696"
       id="path22"
       inkscape:path-effect="#path-effect23"
       inkscape:original-d="m 207.76699,155.82524 c 0,0 0,0 0,0 0,0 57.9288,-60.517797 86.8932,-90.776696"
       transform="rotate(-36.184504,192.45553,226.28838)" />
    <path
       style="opacity:0.99;fill:none;stroke:#0c0505;stroke-width:3.73;stroke-linecap:round;stroke-linejoin:round;stroke-opacity:1;paint-order:markers fill stroke"
       d="m 189.32039,142.71845 c 27.50809,-37.70227 55.01618,-75.404534 82.52427,-113.1068"
       id="path23"
       inkscape:path-effect="#path-effect24"
       inkscape:original-d="m 189.32039,142.71845 c 27.50809,-37.70227 55.01618,-75.404534 82.52427,-113.1068"
       transform="rotate(-36.184504,192.45553,226.28838)" />
    <path
       style="opacity:0.99;fill:none;stroke:#0c0505;stroke-width:3.73;stroke-linecap:round;stroke-linejoin:round;stroke-opacity:1;paint-order:markers fill stroke"
       d="M 173.30097,132.52427 C 192.23301,93.203883 211.16505,53.883495 230.09709,14.563107"
       id="path24"
       inkscape:path-effect="#path-effect25"
       inkscape:original-d="M 173.30097,132.52427 C 192.23301,93.203883 211.16505,53.883495 230.09709,14.563107"
       transform="rotate(-36.184504,192.45553,226.28838)" />
    <path
       style="opacity:0.99;fill:none;stroke:#0c0505;stroke-width:3.73;stroke-linecap:round;stroke-linejoin:round;stroke-opacity:1;paint-order:markers fill stroke"
       d="M 155.82524,132.03883 C 161.65048,93.689319 167.47573,55.339805 173.30097,16.990291"
       id="path25"
       inkscape:path-effect="#path-effect26"
       inkscape:original-d="M 155.82524,132.03883 C 161.65049,93.68932 167.47573,55.339806 173.30097,16.990291"
       transform="rotate(-36.184504,192.45553,226.28838)" />
    <path
       style="opacity:0.99;fill:none;stroke:#0c0505;stroke-width:3.73;stroke-linecap:round;stroke-linejoin:round;stroke-opacity:1;paint-order:markers fill stroke"
       d="M 134.46602,131.06796 C 129.93528,94.983819 125.40453,58.899676 120.87379,22.815534"
       id="path26"
       inkscape:path-effect="#path-effect27"
       inkscape:original-d="M 134.46602,131.06796 C 129.93528,94.983819 125.40453,58.899676 120.87379,22.815534"
       transform="rotate(-36.184504,192.45553,226.28838)" />
    <path
       style="opacity:0.99;fill:none;stroke:#0c0505;stroke-width:3.73;stroke-linecap:round;stroke-linejoin:round;stroke-opacity:1;paint-order:markers fill stroke"
       d="M 113.59223,136.40777 C 109.38511,113.75405 105.17799,91.100324 100.97087,68.446602"
       id="path27"
       inkscape:path-effect="#path-effect28"
       inkscape:original-d="M 113.59223,136.40777 C 109.38511,113.75405 105.17799,91.100324 100.97087,68.446602"
       transform="rotate(-36.184504,192.45553,226.28838)" />
    <path
       style="opacity:0.99;fill:none;stroke:#0c0505;stroke-width:3.73;stroke-linecap:round;stroke-linejoin:round;stroke-opacity:1;paint-order:markers fill stroke"
       d="M 93.68932,140.29126 C 87.37864,126.21359 81.067961,112.13592 74.757282,98.058252"
       id="path28"
       inkscape:path-effect="#path-effect29"
       inkscape:original-d="M 93.68932,140.29126 C 87.378641,126.21359 81.067961,112.13592 74.757282,98.058252"
       transform="rotate(-36.184504,192.45553,226.28838)" />
    <path
       style="opacity:0.99;fill:none;stroke:#0c0505;stroke-width:3.73;stroke-linecap:round;stroke-linejoin:round;stroke-opacity:1;paint-order:markers fill stroke"
       d="M 78.15534,151.94175 C 74.595467,144.01294 71.035597,136.08414 67.475728,128.15534"
       id="path29"
       inkscape:path-effect="#path-effect30"
       inkscape:original-d="M 78.15534,151.94175 C 74.595469,144.01294 71.035599,136.08414 67.475728,128.15534"
       transform="rotate(-36.184504,192.45553,226.28838)" />
    <path
       style="opacity:0.99;fill:none;stroke:#0c0505;stroke-width:3.73039;stroke-linecap:round;stroke-linejoin:round;stroke-dasharray:none;stroke-opacity:1;paint-order:markers fill stroke"
       d="m 146.86567,313.8806 c 3.8806,-0.79602 7.7612,-1.59204 12.26374,-3.1841 4.50253,-1.59207 9.62681,-3.98008 14.55223,-6.69155 4.92542,-2.71148 9.65169,-5.74624 13.78108,-9.12936 4.12939,-3.38313 7.66166,-7.1144 11.06965,-11.64181 3.40799,-4.52742 6.69151,-9.8507 9.20396,-14.55223 2.51246,-4.70153 4.25372,-8.78105 5.54726,-13.4826 1.29354,-4.70154 2.1393,-10.02482 2.56218,-15.52239 0.42289,-5.49757 0.42289,-11.1691 -0.0498,-16.49253 -0.47264,-5.32343 -1.4179,-10.29846 -2.91046,-15.5224 -1.49256,-5.22393 -3.53232,-10.69646 -6.31842,-15.94527 -2.78611,-5.2488 -6.31837,-10.27357 -11.16918,-15.64676 -4.85081,-5.3732 -11.01984,-11.09448 -17.68658,-15.64675 -6.66674,-4.55227 -13.83077,-7.93529 -21.0199,-10.09948 -7.18913,-2.16418 -14.40291,-3.10944 -20.64675,-3.40794 -6.24383,-0.29851 -11.51736,0.0497 -16.39302,0.79602 -4.87567,0.74628 -9.35319,1.89054 -14.07961,3.4826 -4.72642,1.59206 -9.701443,3.63182 -13.805953,5.74627 -4.10451,2.11445 -7.338275,4.30346 -10.721393,6.94031 -3.383119,2.63684 -6.915389,5.72136 -10.398012,9.57713 -3.482624,3.85577 -6.915391,8.48254 -9.825861,13.20895 -2.910471,4.72642 -5.298485,9.5522 -7.164168,14.12935 -1.865684,4.57716 -3.208941,8.90543 -4.15422,13.28359 -0.94528,4.37815 -1.492532,8.80592 -2.039796,13.23378"
       id="path30"
       inkscape:path-effect="#path-effect31"
       inkscape:original-d="m 146.86567,313.8806 c 3.8806,-0.79602 7.7612,-1.59204 11.64179,-2.38806 5.12448,-2.38811 10.24876,-4.77612 15.37314,-7.16418 4.72646,-3.03489 9.45273,-6.06965 14.1791,-9.10448 3.53241,-3.73142 7.06468,-7.46269 10.59702,-11.19403 3.28364,-5.32349 6.56716,-10.64677 9.85074,-15.97015 1.74133,-4.07968 3.48259,-8.1592 5.22388,-12.2388 0.84579,-5.32349 1.69155,-10.64677 2.53732,-15.97015 0,-5.67176 0,-11.34329 0,-17.01493 -0.9453,-4.97522 -1.89055,-9.95025 -2.83582,-14.92537 -2.03985,-5.47275 -4.07961,-10.94528 -6.11941,-16.41791 -3.53241,-5.02498 -7.06467,-10.04975 -10.59701,-15.07463 -6.16928,-5.72151 -12.33831,-11.44279 -18.50746,-17.16418 -7.16433,-3.38315 -14.32836,-6.76617 -21.49254,-10.14925 -7.21408,-0.94529 -14.42786,-1.89055 -21.64179,-2.83582 -5.27374,0.34826 -10.54727,0.69651 -15.8209,1.04477 -4.4777,1.1443 -8.95522,2.28856 -13.43283,3.43284 -4.97523,2.03984 -9.950253,4.0796 -14.925378,6.1194 -3.233895,2.1891 -6.467661,4.37811 -9.701492,6.56717 -3.532409,3.08463 -7.064677,6.16915 -10.597015,9.25373 -3.432905,4.62696 -6.865672,9.25373 -10.298508,13.88059 -2.388107,4.82597 -4.776119,9.65175 -7.164179,14.47762 -1.34331,4.32844 -2.686567,8.65671 -4.02985,12.98507 -0.547275,4.42795 -1.094528,8.85572 -1.641791,13.28358"
       transform="rotate(-36.184504,192.45553,226.28838)" />
    <path
       style="opacity:0.99;fill:none;stroke:#0c0505;stroke-width:3.73039;stroke-linecap:round;stroke-linejoin:round;stroke-dasharray:none;stroke-opacity:1;paint-order:markers fill stroke"
       d="m 49.850746,248.50746 c 0.945273,3.28358 1.890548,6.56717 2.885583,9.80103 0.995034,3.23386 2.039791,6.41788 2.761188,8.33331 0.721397,1.91543 1.119397,2.56218 1.517408,3.20895"
       id="path31"
       inkscape:path-effect="#path-effect32"
       inkscape:original-d="m 49.850746,248.50746 c 0.945274,3.28358 1.890548,6.56717 2.835821,9.85075 1.044797,3.18414 2.089552,6.36816 3.134329,9.55224 0.398017,0.64678 0.796019,1.29353 1.194029,1.9403"
       transform="rotate(-36.184504,192.45553,226.28838)" />
    <path
       style="opacity:0.99;fill:none;stroke:#0c0505;stroke-width:3.73039;stroke-linecap:round;stroke-linejoin:round;stroke-dasharray:none;stroke-opacity:1;paint-order:markers fill stroke"
       d="m 70.099849,288.40814 c 0.994849,1.44607 1.989682,2.89212 2.783984,3.73288 0.794303,0.84076 1.388009,1.07616 1.981735,1.31157"
       id="path32"
       inkscape:path-effect="#path-effect33"
       inkscape:original-d="m 70.099849,288.40814 c 0.994852,1.44607 1.989685,2.89212 2.984555,4.33823 0.593732,0.23541 1.187439,0.47081 1.781164,0.70622"
       sodipodi:nodetypes="ccc"
       transform="rotate(-36.184504,192.45553,226.28838)" />
    <path
       style="opacity:0.99;fill:none;stroke:#0c0505;stroke-width:3.73039;stroke-linecap:round;stroke-linejoin:round;stroke-dasharray:none;stroke-opacity:1;paint-order:markers fill stroke"
       d="m 91.343284,305.22388 c 4.477612,1.99005 8.955226,3.9801 13.582136,5.64678 4.62691,1.66668 9.40294,3.00994 13.34156,3.7927 3.93861,0.78276 7.03958,1.00499 10.14064,1.22723"
       id="path33"
       inkscape:path-effect="#path-effect34"
       inkscape:original-d="m 91.343284,305.22388 c 4.477612,1.99005 8.955226,3.9801 13.432836,5.97015 4.77621,1.34331 9.55224,2.68657 14.32836,4.02985 3.10111,0.22224 6.20208,0.44447 9.30314,0.66671"
       sodipodi:nodetypes="cccc"
       transform="rotate(-36.184504,192.45553,226.28838)" />
  </g>
</svg>
