<svg height="500" width="420" version="1.0" xml:space="preserve" xmlns:xlink="http://www.w3.org/1999/xlink" xmlns="http://www.w3.org/2000/svg"><path style="fill:#fcef3c;stroke:#000;stroke-width:1;stroke-dasharray:none" d="M237.62 114.97c7.03-3.46 30.72-18.159 30.72-49.969 0-31.45-25.17-55.816-55.84-55.837C181.33 9.144 156.71 34.1 156.68 65c0 32.19 24.52 46.819 30.32 49.809z"/><g id="a"><path d="M277.82 185.88c-23.65-14.09-27.75-8.34-48.02-19.54-10.59-21.38-13.8-47.14-37.61-58.13-30.98-11.759-58.43-2.11-70.29 14-22.956 31.17-18.48 72.69-8.19 113.38 21.45 80.67 54.94 166.11 47.72 250.62 2.4 5.78 10.21 2.12 12.15-2.19 2.54-3.53 5.33-7.52 7.1-11.25 6.6 1.77 9.11-6.79 11.22-11.25 1.02-2.35.94-5.1 4.06-4.75 5.22-2.69 10.68-13.44 7.68-18.39 6.68-2.65 9.74-6.24 9.7-13.43 1.53-6.63 10.1-5.87 10.5-14.73 3.2-7.35 9.88-7.71 11.81-16.87 2.69-12.75 8.9-10.17 10.82-17.83 2.29-12.81 9.33-8.46 10.5-19.24.39-3.37 5.94-2.63 6.36-8.01z" style="fill:#f9f9f9;fill-opacity:1;stroke:#000;stroke-width:1;stroke-miterlimit:4;stroke-dasharray:none;stroke-opacity:1" transform="translate(-93.342 -70.099)"/><path style="fill:none;stroke:#000" d="M152.59 380.39c6.44 6.09 10.09 8.55 13.13-5.8 7.2 7.02 9.84 6.31 11.64-6.27 7.2 5.3 9.94-.73 10.78-9.12 7.2 11.72 11.27-5.23 11.87-13.08 9.41 14.24 11.52-4.87 12.15-8.33 8.04 13.16 12.65-4.53 12.46-10.16 5.43 11.56 12.62 1.47 12.19-5.27 3.33 7.96 14.1 4.57 13.99-2.08m-120.96-27.42c8.39 7.77 18.37 18.69 17.98-5.75 8.68 9.35 10.58 5.58 12.38-7 10.43 6.94 11.86 5.54 12.64-8.91 7.2 11.72 10.17 10.7 13.65-12.97 9.31 17.77 11.87-1.91 12.65-10.88 8.04 13.16 10.45 6.14 13.74-4.76 5.43 11.56 10.9 1.58 13.15-3.91 3.33 7.96 12.92 8.86 15.56.23m-128.4-5.5c8.39 7.77 21.78 23.54 21.39-.9 8.68 9.35 13.05 6.52 14.85-6.06 10.43 6.94 13.43 6.87 14.21-7.58 7.2 11.72 12.33 9.55 15.32-10.08 9.12 12.24 11.92-2.97 12.7-11.94 4.25 13 9.86 22.04 16.68 10.05 6.07 14.27 6.45 21.22 15.94 7.53 3.33 7.96 14 10.03 16.64 1.4m1.51-23.86c-5.79 44.9 6.55 120.99 14.54 164.31m-33.54-172.72c-.19 67.02 14.7 148.94 23.04 191.96m-44.6-224.45c6.98 66.41 24.08 193.46 33.78 242.28m-55.21-262.76c13.57 68.7 34.57 236.16 43.4 279.63m-58.75-283.35c11.69 54.68 37.71 251.22 48.25 298.08m-66.65-294.28c11.79 48.09 45.2 260.48 56.95 307.71m-72.67-293.51c13.27 47.31 55.1 265.12 62.68 312.55m-74.1-278.74c36.68 121.69 57.44 256.46 61.13 294.09M105.45 195.1c16.5-1.96 10.71-12.4 19.82-38.64 7.64-21.99 25.74-31.59 40.74-29.59 24.75 3.3 33.37 16.58 38.18 29.86 5.38 14.86 5.46 24.55 19.24 26.83 8.86 4.22 21.42 9.94 28.72 11.64" transform="translate(-93.342 -70.099)"/></g><use xlink:href="#a" transform="matrix(-1 0 0 1 424.04 0)"/><path style="fill:#2b5df2;stroke:#000;stroke-width:.9511" d="M185.54 484.24c-2.15.59-4.24.7-6.32.43-1.4-6.05-11.12-10.9-17.78-8.33-3.28-2.05-6.77-4.21-10.57-6.17 1.17-10.05 5.79-75.37 5.19-89.08-1.08-24.89 4.92-63.19 7.81-91.99 3.65-25.09 4.6-50.79 10.95-75.28-1.41-3.3-.98-6.32-.82-9.9-.21 1.96-.83 6.96-3.46 7.48-15.07 2.72-29.36-5.03-43.83-10.39-2.18-1.64-8.53-3.26-11.31-4.08 9.53-23.3 19.61-47.57 36.86-66.25 8.51-8.32 17.47-13.07 32.22-14.9 6.03-1.14 9.36-4.36 12.96-7.36h29.16c3.6 3 6.93 6.22 12.96 7.36 14.75 1.83 23.71 6.58 32.22 14.9 17.53 17.49 37.39 64.7 36.95 66.17-4.21.98-8.71 2.13-11.4 4.16-14.47 5.36-28.76 13.11-43.83 10.39-2.63-.52-3.25-5.52-3.46-7.48.41 3.3.66 6.59-.82 9.89 5.94 25.1 7.3 50.19 10.95 75.29 4.28 29.41 9.21 69.18 7.71 93.98-.77 12.64 6.8 77.32 5.19 86.34-6.62 6.52-36.74 15.69-44.09 7.28-6.08-6.96-32.93 8.39-43.44 7.54z"/><path style="fill:#804000;stroke:#000;stroke-width:.9511" d="M233.29 94.441c7.29-3.9 11.43-10.48 14.04-18.36 1.03-1.51 1.06-2.89 0-4.06-5.61-6.18-6.13-24.12-13.7-33.97-5.75-6.96-13.21-7.52-21.29-5.07-8.08-2.45-15.54-1.89-21.29 5.07-7.57 9.85-8.09 27.79-13.7 33.97-1.06 1.17-1.03 2.55 0 4.06 2.61 7.88 6.75 14.46 14.04 18.36 1.49.46 40.41.46 41.9 0z"/><path style="fill:#fff;stroke:#000;stroke-width:1;stroke-dasharray:none" d="M261.68 475.58c-9.11-5.26-17.82-3.71-22.45 4.46 1.74 5.24 13.4 7.59 24.11 6.59 2.57-4.26.44-9.52-1.66-11.05zm-100.06.88c-7.46 3.81-9.56 10.01-5.47 14.28 10.21.61 18.52-1.84 23.31-6.04-2.34-5.87-10.27-11.56-17.84-8.24z"/><path style="fill:#fec3ac;stroke:#000;stroke-width:1.00002;stroke-linecap:butt;stroke-linejoin:miter;stroke-dasharray:none;stroke-opacity:1" d="M259.02 211.95c.14 3.52.44 7.03.71 10.1 1 11.4-1.03 20.96.67 30.99 1.48 8.58 2.1 16.23 2.62 24.01.24 3.89 1.17 7.43-4.28 11.22-2.89 2-6.52 3.61-8.25 5.37-1.45.87-2.4 2.22-2.85 4.92-1.28 4.47-1.45 7.51-2.77 11.45 1.83 1.39 3.25 1.17 4.42-.18 2.25-2.58 3.28-4.19 2.76-7.44l1.54.44c-.37 6-1.99 10.06 1.88 10.9 3.88.83 4.59-2.87 5.23-6.14-.56 2.99-2.41 7.53 2.14 7.65 4.52.15 4.62-3.59 4.99-7.41-.32 4.79-1.17 6.28 2.13 6.12 3.3-.17 4.03-2.83 4.22-6.47.1 2.83-1.29 4.69 2.03 4.51 3.32-.16 2.73-11.48 2.73-11.48.36-5.74-.75-11.79-.16-16.48 1.05-8.96 3.44-17.64 5.82-27.26 2.52-10.26 2.3-20.59 3-30.94.38-5.61.8-13.89 1.38-21.82-9.99 3.2-17 8.29-29.96 7.94zM212.26 50.071c-3.25 2.79-10.25 5.66-16.65 8.51-1.03.92-3.03 3.62-4.53 10.69.22 6 1.27 11.9 3.45 17.51.86 2.03 2.39 5.15 4.59 8.1l-.33 12.159c-.2.72-.77 1.07-1.35 1.38 10.35 8.96 20.03 8.28 29.16 0-.58-.31-1.15-.66-1.35-1.38l-.31-11.549c2.45-3.12 4.13-6.54 5.05-8.71 2.18-5.61 3.23-11.51 3.45-17.51-1.5-7.07-3.5-9.77-4.53-10.69-6.4-2.85-13.4-5.72-16.65-8.51zM128.93 201.85c-3.66 2.34-12.99 7.4-17.42 10.78-4.39 3.46-7.55 4.94-18.842 8.83-5.07 2.1-11.33-5.34-20.03-5.1-6.28 0-8.47 4.46-8.56 6.12l-7.18 2.08c-4.77.84-3 6.25-2.31 6.46-.83 2.76-.39 5.71 2.7 5.91-.9 2.23.93 4.85 2.67 5.16-.43 4.91 3.56 4.94 5.51 4.96 9.08.1 19.52-3.53 28.81-10.16 13.322-3.87 27.242-5.1 40.672-8.4 9.73-3.01 17.49-5.82 26.74-10.13 3.21-1.62 6.32-2.53 6.85-6.68-13.04 1.52-25.15-4.47-39.61-9.83z"/><g id="b"><path style="fill:#fff;stroke:#000;stroke-width:.9511" d="M321.38 139.85c.36.33 0 .76-.15.98-2.8 2.99-7.91 2.7-10.9.9 2.89-3.96 7.09-4.77 11.05-1.88z" transform="translate(-92.772 -70.099)"/><path style="fill:#313131;stroke:#000;stroke-width:1.00004" d="M318.08 140.55c0 1.19-.95 2.13-2.13 2.13s-2.13-.94-2.13-2.13c0-1.18.95-2.13 2.13-2.13s2.13.95 2.13 2.13z" transform="translate(-92.772 -70.099)"/></g><use xlink:href="#b" transform="matrix(-1 0 0 1 424.51 0)"/><path style="fill:none;stroke:#000" d="M91.668 238.66c1.55-1.43 1.97-2.58 2.79-3.78m-29.72-6.07c-2.92.96-5.65 1.38-10.15 2.21m12.49 3.68c-3.41 1.66-6.28 2.05-9.79 2.23m11.6 3.52c-3.41 1.27-6.18 1.94-8.93 1.64m11.51-1.96c3.57.65 4.76 4.06 1.11 6.28m1.63-20.2c-.43 1.37-1.48 3.44-1.07 4.72 1.6 4.96 9.19 6.97 14.91 3.4m-23.97-11.85c-.58 6.16.77 5.78 2.2 9.53 1.14 2.99 2.59 7.76 3.06 9.61 5.65-3.49 4.93-5.37 2.58-12.16M239.49 64.111c1.96 8.56 5 7.95 4.84 11.18-.16 3.26-3.18 5.39-1.75 10.73m-6.98-14.59c4.37 4.34 2.37 6.57.67 9.91-1.96 3.85.95 6.27 3.28 8.81m-54.36-26.04c-1.96 8.56-5 7.95-4.84 11.18.16 3.26 3.18 5.39 1.75 10.73m6.98-14.59c-4.37 4.34-2.37 6.57-.67 9.91 1.96 3.85-.95 6.27-3.28 8.81m14.07 4.85c3.05 4.04 7.38 7.709 13.06 7.709 5.48 0 9.71-3.409 12.73-7.279m-18.88-3.43c3.87 1.04 7.99 1.02 12.3 0m0 0c-3.6 0-2.9-1.36-4.62-1.49-.54 0-1.14.19-1.53.44-.39-.25-.99-.44-1.53-.44-1.72.13-1.02 1.49-4.62 1.49 1.84 1.41 3.78 2.84 6.15 2.94 2.37-.1 4.31-1.53 6.15-2.94zm12.21-28.27c-7.23-3.9-11.6-1.65-15.13 2.41m-21.59-2.41c7.23-3.9 11.6-1.65 15.13 2.41m1.23 5.74-1.11 14.35c1.08.53 2.02 1.35 3.11 1.35 1.08 0 2.28-.78 3.1-1.35l-1.38-14.41M240.4 478.59c3.41 3.29 8.22 5.1 13.22 5.08m-75.65-1.48c-3.15 2.16-8.02 4.22-13.22 5.08M302.03 198.56c-4.58-13.26-11.72-29.98-21.11-44.99m-159.95 44.99c4.58-13.26 11.72-29.98 21.11-44.99m119.6 322.01c-19.05-14.71-21.28 4.4-28.72-.87m-71.34 1.75c17.51-9.11 20.52 6.5 25.65 4.52m32.19-267.16c.85 2.99.97 7.35 1.32 11.27m-16.2-11.27c-1.14 3.05-3.81 33.52-3.32 37.27m33.08-37.27c6.02 35.18 6.32 53.3 8.48 90.46m-53.12-90.46c-6.02 35.18-6.32 73.3-8.48 110.46m23.19-120.36c0-4 .31-10.13.59-12.47m14.62 12.47c0-4-.31-14.13-.59-16.47m15.79 16.47c0-4-.31-6.13-.59-8.47m-45.02 8.47c0-4 .31-6.13.59-8.47m52.64-47.38c4.72 11.93 6.16 32.78 7.59 55.85-2.82 2.91-12.59 2.74-15.21 0-4.37 4.43-14.19 2.47-15.2 0-2.08 2.68-10.93 3.85-15.21 0-5.53 3.84-10.45 2.64-15.2 0-3.74 3.51-12.09 3.24-15.21 0 1.44-23.07 2.88-43.92 7.6-55.85m-6.78 65.75c5.63 2.76 12.79-.57 14.88 0 6.79.72 11.28.44 14.88 0 5.53 2.07 12.71.8 14.88 0 1.02.32 10.86 3.48 14.88 0 .77.38 10.2 3.36 14.88 0"/><path fill="#008f4c" stroke="#000" stroke-width="6.172" stroke-linejoin="round" d="M60.808 223.42c-5.43-11.35-12.87-22.67-25.63-33.79 6.44 5.08 9.78 7.53 13.86 9.7-4.71-5.09-16.61-18.31-25.03-30.53 5.84 5.04 10.4 8.62 14.31 10.47-7.76-10.39-14.04-19.53-18.24-27.61l12.52 13.15c-7.79-12.78-12.84-21.99-16.92-32.35 2.6 3.4 6.09 8.03 8.83 10.37-9.15-14.66-13.54-27.79-15.69-38.41 2.59 4.22 5.01 8.36 9.26 12.73-5.62-11.59-8.3-21.569-10.16-31.189 2.16 5.94 5.11 10.53 7.74 13.03-4.36-15.45-6.02-31.36-4.83-40.29 1.02 4.92 2.42 9.67 4.57 14.13-1.77-14.99 1.68-25.84 4.37-36.77.39 6.31-.26 9.29 2.31 14.41 2.11-14.76 8.91-33.195 16.02-39.775-2.26 8.93-2.76 13.219-3.33 17.708 4.68-6.744 10.93-9.987 17.6-12.078-7.74 10.856-14.35 23.835-18.82 40.295 3.26-3.25 6.5-5.77 17-4.19-10.91 9.86-16.18 21.42-19.73 35.54 6.77-8.72 12.56-10.64 22.11-9.92-11.01 8.26-15.85 24.109-18.44 35.419 3.84-7.1 8.86-12.36 20.97-13.989-8.99 9.479-14.38 27.039-15.54 36.979 4.76-8.27 12-11.47 25.41-13.18-9.22 8.77-18.07 20.96-20.73 33.43 5.42-6.62 13.33-11.21 23.32-10.09-11.39 6.17-14.63 19.35-17.64 29.09 2.52-4.16 8.42-4.98 14.62-5.37-5.24 5.52-10.21 15.16-7.51 26.19 2.47-3.34 4.3-6.38 10.98-5.93-4.75 5.68-7.71 14.32-3.61 24.15.52 1.26 1.04 2.56 1.55 3.8-1.44 1.19-1.92 2.69-2.31 3.95zm12.88 13.35c-.11 1.05-1.08 2.56-2.22 3.36 5.37 1.25 3.14 5.44 1 6.31l-2.23.35c.82 2.19 1.66 4.39 2.53 6.6 2.01 5.08 2.87 10.21.92 13.3l11.79 10.76c-2.09-14.19-6.39-26.15-11.79-40.68z" style="fill:#5ab532;fill-opacity:1;stroke:#000;stroke-width:.999996;stroke-dasharray:none"/><path fill="none" stroke="#000" stroke-width="6.172" stroke-linecap="round" d="M34.768 28.404C2.097 100.26 35.978 164.61 62.138 218.26" style="stroke-width:.999996;stroke-dasharray:none"/></svg>