<?xml version="1.0" encoding="UTF-8" standalone="no"?>
<!-- Created with Inkscape (http://www.inkscape.org/) -->

<svg
   version="1.1"
   id="svg1"
   width="787.99054"
   height="1137.9906"
   viewBox="0 0 787.99054 1137.9906"
   sodipodi:docname="3.svg"
   inkscape:version="1.4.2 (ebf0e940d0, 2025-05-08)"
   xmlns:inkscape="http://www.inkscape.org/namespaces/inkscape"
   xmlns:sodipodi="http://sodipodi.sourceforge.net/DTD/sodipodi-0.dtd"
   xmlns="http://www.w3.org/2000/svg"
   xmlns:svg="http://www.w3.org/2000/svg">
  <defs
     id="defs1">
    <inkscape:path-effect
       effect="bspline"
       id="path-effect46"
       is_visible="true"
       lpeversion="1.3"
       weight="33.333333"
       steps="2"
       helper_size="0"
       apply_no_weight="true"
       apply_with_weight="true"
       only_selected="false"
       uniform="false" />
    <inkscape:path-effect
       effect="bspline"
       id="path-effect45"
       is_visible="true"
       lpeversion="1.3"
       weight="33.333333"
       steps="2"
       helper_size="0"
       apply_no_weight="true"
       apply_with_weight="true"
       only_selected="false"
       uniform="false" />
    <inkscape:path-effect
       effect="bspline"
       id="path-effect38"
       is_visible="true"
       lpeversion="1.3"
       weight="33.333333"
       steps="2"
       helper_size="0"
       apply_no_weight="true"
       apply_with_weight="true"
       only_selected="false"
       uniform="false" />
    <inkscape:path-effect
       effect="bspline"
       id="path-effect37"
       is_visible="true"
       lpeversion="1.3"
       weight="33.333333"
       steps="2"
       helper_size="0"
       apply_no_weight="true"
       apply_with_weight="true"
       only_selected="false"
       uniform="false" />
    <inkscape:path-effect
       effect="bspline"
       id="path-effect36"
       is_visible="true"
       lpeversion="1.3"
       weight="33.333333"
       steps="2"
       helper_size="0"
       apply_no_weight="true"
       apply_with_weight="true"
       only_selected="false"
       uniform="false" />
    <inkscape:path-effect
       effect="bspline"
       id="path-effect35"
       is_visible="true"
       lpeversion="1.3"
       weight="33.333333"
       steps="2"
       helper_size="0"
       apply_no_weight="true"
       apply_with_weight="true"
       only_selected="false"
       uniform="false" />
    <inkscape:path-effect
       effect="bspline"
       id="path-effect34"
       is_visible="true"
       lpeversion="1.3"
       weight="33.333333"
       steps="2"
       helper_size="0"
       apply_no_weight="true"
       apply_with_weight="true"
       only_selected="false"
       uniform="false" />
    <inkscape:path-effect
       effect="bspline"
       id="path-effect33"
       is_visible="true"
       lpeversion="1.3"
       weight="33.333333"
       steps="2"
       helper_size="0"
       apply_no_weight="true"
       apply_with_weight="true"
       only_selected="false"
       uniform="false" />
    <inkscape:path-effect
       effect="bspline"
       id="path-effect32"
       is_visible="true"
       lpeversion="1.3"
       weight="33.333333"
       steps="2"
       helper_size="0"
       apply_no_weight="true"
       apply_with_weight="true"
       only_selected="false"
       uniform="false" />
    <inkscape:path-effect
       effect="bspline"
       id="path-effect31"
       is_visible="true"
       lpeversion="1.3"
       weight="33.333333"
       steps="2"
       helper_size="0"
       apply_no_weight="true"
       apply_with_weight="true"
       only_selected="false"
       uniform="false" />
    <inkscape:path-effect
       effect="bspline"
       id="path-effect30"
       is_visible="true"
       lpeversion="1.3"
       weight="33.333333"
       steps="2"
       helper_size="0"
       apply_no_weight="true"
       apply_with_weight="true"
       only_selected="false"
       uniform="false" />
    <inkscape:path-effect
       effect="bspline"
       id="path-effect29"
       is_visible="true"
       lpeversion="1.3"
       weight="33.333333"
       steps="2"
       helper_size="0"
       apply_no_weight="true"
       apply_with_weight="true"
       only_selected="false"
       uniform="false" />
    <inkscape:path-effect
       effect="bspline"
       id="path-effect28"
       is_visible="true"
       lpeversion="1.3"
       weight="33.333333"
       steps="2"
       helper_size="0"
       apply_no_weight="true"
       apply_with_weight="true"
       only_selected="false"
       uniform="false" />
    <inkscape:path-effect
       effect="bspline"
       id="path-effect27"
       is_visible="true"
       lpeversion="1.3"
       weight="33.333333"
       steps="2"
       helper_size="0"
       apply_no_weight="true"
       apply_with_weight="true"
       only_selected="false"
       uniform="false" />
    <inkscape:path-effect
       effect="bspline"
       id="path-effect26"
       is_visible="true"
       lpeversion="1.3"
       weight="33.333333"
       steps="2"
       helper_size="0"
       apply_no_weight="true"
       apply_with_weight="true"
       only_selected="false"
       uniform="false" />
    <inkscape:path-effect
       effect="bspline"
       id="path-effect25"
       is_visible="true"
       lpeversion="1.3"
       weight="33.333333"
       steps="2"
       helper_size="0"
       apply_no_weight="true"
       apply_with_weight="true"
       only_selected="false"
       uniform="false" />
    <inkscape:path-effect
       effect="bspline"
       id="path-effect24"
       is_visible="true"
       lpeversion="1.3"
       weight="33.333333"
       steps="2"
       helper_size="0"
       apply_no_weight="true"
       apply_with_weight="true"
       only_selected="false"
       uniform="false" />
    <inkscape:path-effect
       effect="bspline"
       id="path-effect23"
       is_visible="true"
       lpeversion="1.3"
       weight="33.333333"
       steps="2"
       helper_size="0"
       apply_no_weight="true"
       apply_with_weight="true"
       only_selected="false"
       uniform="false" />
    <inkscape:path-effect
       effect="bspline"
       id="path-effect22"
       is_visible="true"
       lpeversion="1.3"
       weight="33.333333"
       steps="2"
       helper_size="0"
       apply_no_weight="true"
       apply_with_weight="true"
       only_selected="false"
       uniform="false" />
    <inkscape:path-effect
       effect="bspline"
       id="path-effect21"
       is_visible="true"
       lpeversion="1.3"
       weight="33.333333"
       steps="2"
       helper_size="0"
       apply_no_weight="true"
       apply_with_weight="true"
       only_selected="false"
       uniform="false" />
    <inkscape:path-effect
       effect="bspline"
       id="path-effect20"
       is_visible="true"
       lpeversion="1.3"
       weight="33.333333"
       steps="2"
       helper_size="0"
       apply_no_weight="true"
       apply_with_weight="true"
       only_selected="false"
       uniform="false" />
    <inkscape:path-effect
       effect="bspline"
       id="path-effect19"
       is_visible="true"
       lpeversion="1.3"
       weight="33.333333"
       steps="2"
       helper_size="0"
       apply_no_weight="true"
       apply_with_weight="true"
       only_selected="false"
       uniform="false" />
    <inkscape:path-effect
       effect="bspline"
       id="path-effect18"
       is_visible="true"
       lpeversion="1.3"
       weight="33.333333"
       steps="2"
       helper_size="0"
       apply_no_weight="true"
       apply_with_weight="true"
       only_selected="false"
       uniform="false" />
    <inkscape:path-effect
       effect="bspline"
       id="path-effect17"
       is_visible="true"
       lpeversion="1.3"
       weight="33.333333"
       steps="2"
       helper_size="0"
       apply_no_weight="true"
       apply_with_weight="true"
       only_selected="false"
       uniform="false" />
    <inkscape:path-effect
       effect="bspline"
       id="path-effect16"
       is_visible="true"
       lpeversion="1.3"
       weight="33.333333"
       steps="2"
       helper_size="0"
       apply_no_weight="true"
       apply_with_weight="true"
       only_selected="false"
       uniform="false" />
    <inkscape:path-effect
       effect="bspline"
       id="path-effect15"
       is_visible="true"
       lpeversion="1.3"
       weight="33.333333"
       steps="2"
       helper_size="0"
       apply_no_weight="true"
       apply_with_weight="true"
       only_selected="false"
       uniform="false" />
    <inkscape:path-effect
       effect="bspline"
       id="path-effect14"
       is_visible="true"
       lpeversion="1.3"
       weight="33.333333"
       steps="2"
       helper_size="0"
       apply_no_weight="true"
       apply_with_weight="true"
       only_selected="false"
       uniform="false" />
    <inkscape:path-effect
       effect="bspline"
       id="path-effect13"
       is_visible="true"
       lpeversion="1.3"
       weight="33.333333"
       steps="2"
       helper_size="0"
       apply_no_weight="true"
       apply_with_weight="true"
       only_selected="false"
       uniform="false" />
    <inkscape:path-effect
       effect="bspline"
       id="path-effect12"
       is_visible="true"
       lpeversion="1.3"
       weight="33.333333"
       steps="2"
       helper_size="0"
       apply_no_weight="true"
       apply_with_weight="true"
       only_selected="false"
       uniform="false" />
    <inkscape:path-effect
       effect="bspline"
       id="path-effect11"
       is_visible="true"
       lpeversion="1.3"
       weight="33.333333"
       steps="2"
       helper_size="0"
       apply_no_weight="true"
       apply_with_weight="true"
       only_selected="false"
       uniform="false" />
    <inkscape:path-effect
       effect="bspline"
       id="path-effect10"
       is_visible="true"
       lpeversion="1.3"
       weight="33.333333"
       steps="2"
       helper_size="0"
       apply_no_weight="true"
       apply_with_weight="true"
       only_selected="false"
       uniform="false" />
    <inkscape:path-effect
       effect="bspline"
       id="path-effect9"
       is_visible="true"
       lpeversion="1.3"
       weight="33.333333"
       steps="2"
       helper_size="0"
       apply_no_weight="true"
       apply_with_weight="true"
       only_selected="false"
       uniform="false" />
    <inkscape:path-effect
       effect="bspline"
       id="path-effect8"
       is_visible="true"
       lpeversion="1.3"
       weight="33.333333"
       steps="2"
       helper_size="0"
       apply_no_weight="true"
       apply_with_weight="true"
       only_selected="false"
       uniform="false" />
    <inkscape:path-effect
       effect="bspline"
       id="path-effect7"
       is_visible="true"
       lpeversion="1.3"
       weight="33.333333"
       steps="2"
       helper_size="0"
       apply_no_weight="true"
       apply_with_weight="true"
       only_selected="false"
       uniform="false" />
    <inkscape:path-effect
       effect="bspline"
       id="path-effect6"
       is_visible="true"
       lpeversion="1.3"
       weight="33.333333"
       steps="2"
       helper_size="0"
       apply_no_weight="true"
       apply_with_weight="true"
       only_selected="false"
       uniform="false" />
    <inkscape:path-effect
       effect="bspline"
       id="path-effect5"
       is_visible="true"
       lpeversion="1.3"
       weight="33.333333"
       steps="2"
       helper_size="0"
       apply_no_weight="true"
       apply_with_weight="true"
       only_selected="false"
       uniform="false" />
    <inkscape:path-effect
       effect="bspline"
       id="path-effect4"
       is_visible="true"
       lpeversion="1.3"
       weight="33.333333"
       steps="2"
       helper_size="0"
       apply_no_weight="true"
       apply_with_weight="true"
       only_selected="false"
       uniform="false" />
    <inkscape:path-effect
       effect="bspline"
       id="path-effect3"
       is_visible="true"
       lpeversion="1.3"
       weight="33.333333"
       steps="2"
       helper_size="0"
       apply_no_weight="true"
       apply_with_weight="true"
       only_selected="false"
       uniform="false" />
    <inkscape:path-effect
       effect="bspline"
       id="path-effect2"
       is_visible="true"
       lpeversion="1.3"
       weight="33.333333"
       steps="2"
       helper_size="0"
       apply_no_weight="true"
       apply_with_weight="true"
       only_selected="false"
       uniform="false" />
    <inkscape:path-effect
       effect="bspline"
       id="path-effect1"
       is_visible="true"
       lpeversion="1.3"
       weight="33.333333"
       steps="2"
       helper_size="0"
       apply_no_weight="true"
       apply_with_weight="true"
       only_selected="false"
       uniform="false" />
    <inkscape:path-effect
       effect="bspline"
       id="path-effect3-7"
       is_visible="true"
       lpeversion="1.3"
       weight="33.333333"
       steps="2"
       helper_size="0"
       apply_no_weight="true"
       apply_with_weight="true"
       only_selected="false"
       uniform="false" />
    <inkscape:path-effect
       effect="bspline"
       id="path-effect2-5"
       is_visible="true"
       lpeversion="1.3"
       weight="33.333333"
       steps="2"
       helper_size="0"
       apply_no_weight="true"
       apply_with_weight="true"
       only_selected="false"
       uniform="false" />
    <inkscape:path-effect
       effect="bspline"
       id="path-effect15-2"
       is_visible="true"
       lpeversion="1.3"
       weight="33.333333"
       steps="2"
       helper_size="0"
       apply_no_weight="true"
       apply_with_weight="true"
       only_selected="false"
       uniform="false" />
    <inkscape:path-effect
       effect="bspline"
       id="path-effect14-7"
       is_visible="true"
       lpeversion="1.3"
       weight="33.333333"
       steps="2"
       helper_size="0"
       apply_no_weight="true"
       apply_with_weight="true"
       only_selected="false"
       uniform="false" />
    <inkscape:path-effect
       effect="bspline"
       id="path-effect32-2"
       is_visible="true"
       lpeversion="1.3"
       weight="33.333333"
       steps="2"
       helper_size="0"
       apply_no_weight="true"
       apply_with_weight="true"
       only_selected="false"
       uniform="false" />
    <inkscape:path-effect
       effect="bspline"
       id="path-effect33-6"
       is_visible="true"
       lpeversion="1.3"
       weight="33.333333"
       steps="2"
       helper_size="0"
       apply_no_weight="true"
       apply_with_weight="true"
       only_selected="false"
       uniform="false" />
    <inkscape:path-effect
       effect="bspline"
       id="path-effect34-1"
       is_visible="true"
       lpeversion="1.3"
       weight="33.333333"
       steps="2"
       helper_size="0"
       apply_no_weight="true"
       apply_with_weight="true"
       only_selected="false"
       uniform="false" />
    <inkscape:path-effect
       effect="bspline"
       id="path-effect35-8"
       is_visible="true"
       lpeversion="1.3"
       weight="33.333333"
       steps="2"
       helper_size="0"
       apply_no_weight="true"
       apply_with_weight="true"
       only_selected="false"
       uniform="false" />
    <inkscape:path-effect
       effect="bspline"
       id="path-effect32-2-9"
       is_visible="true"
       lpeversion="1.3"
       weight="33.333333"
       steps="2"
       helper_size="0"
       apply_no_weight="true"
       apply_with_weight="true"
       only_selected="false"
       uniform="false" />
    <inkscape:path-effect
       effect="bspline"
       id="path-effect33-6-2"
       is_visible="true"
       lpeversion="1.3"
       weight="33.333333"
       steps="2"
       helper_size="0"
       apply_no_weight="true"
       apply_with_weight="true"
       only_selected="false"
       uniform="false" />
    <inkscape:path-effect
       effect="bspline"
       id="path-effect34-1-2"
       is_visible="true"
       lpeversion="1.3"
       weight="33.333333"
       steps="2"
       helper_size="0"
       apply_no_weight="true"
       apply_with_weight="true"
       only_selected="false"
       uniform="false" />
    <inkscape:path-effect
       effect="bspline"
       id="path-effect35-8-8"
       is_visible="true"
       lpeversion="1.3"
       weight="33.333333"
       steps="2"
       helper_size="0"
       apply_no_weight="true"
       apply_with_weight="true"
       only_selected="false"
       uniform="false" />
  </defs>
  <sodipodi:namedview
     id="namedview1"
     pagecolor="#ffffff"
     bordercolor="#000000"
     borderopacity="0.25"
     inkscape:showpageshadow="2"
     inkscape:pageopacity="0.0"
     inkscape:pagecheckerboard="0"
     inkscape:deskcolor="#d1d1d1"
     showgrid="false"
     inkscape:zoom="0.82"
     inkscape:cx="393.29268"
     inkscape:cy="448.78049"
     inkscape:window-width="1920"
     inkscape:window-height="1011"
     inkscape:window-x="0"
     inkscape:window-y="0"
     inkscape:window-maximized="1"
     inkscape:current-layer="g1" />
  <g
     inkscape:groupmode="layer"
     inkscape:label="Layer 1"
     id="g1"
     transform="translate(49.25842,75.574212)">
    <path
       style="fill:#2a7fff;stroke:none;stroke-width:3.78;stroke-linecap:round;paint-order:markers fill stroke"
       d="m 236.51791,426.92308 3.04017,-9.66341 -0.65146,-10.96634 3.80022,-18.78394 11.18349,-9.44625 21.49837,-9.98914 28.12161,-8.46906 19.21824,-4.45168 26.60152,-2.60586 22.90988,0.86862 10.74919,-0.65147 17.37242,-1.30293 25.62432,-0.10858 18.4582,2.60587 10.85776,2.71444 4.88599,2.82302 4.99458,6.94896 2.17155,8.36048 -0.21716,16.39522 1.08578,17.37243 -1.73724,7.05754 4.66884,5.10315 5.53745,6.18893 2.38871,6.2975 -0.86862,7.2747 -3.25733,22.14984 -1.84582,17.69815 v 28.01303 l 0.10858,18.89251 -4.99457,29.53311 -5.53746,37.13356 -0.76004,28.88165 0.76004,24.7557 1.9544,37.13355 1.84582,26.71009 -0.32574,32.68187 -3.90879,28.23019 -0.10858,11.83496 2.06298,40.71661 -2.06298,26.81868 -1.19435,34.52768 0.21715,17.58958 -4.12595,18.24104 -9.33767,14.00651 -14.22367,17.8067 -10.85777,14.7666 -8.90336,15.7438 -8.03475,6.5146 -10.42345,1.8458 -19.4354,-2.0629 -18.8925,-11.1835 -12.81217,-11.6178 -8.46905,-3.4745 -8.03475,2.7144 -8.68621,5.5375 -6.40608,0.5429 -9.66341,-3.9088 -7.92616,-12.0522 -5.10315,-15.418 -3.69164,-6.8404 -11.07492,-6.7318 -21.06406,-13.0293 -8.90337,-12.05212 -0.86862,-15.20086 2.82302,-18.78394 3.04017,-20.52117 -1.08577,-19.00108 -5.64604,-23.23562 -8.46905,-50.70575 -3.58307,-44.95114 -2.3887,-25.62432 4.66883,-43.10532 2.28013,-11.1835 -4.01737,-2.9316 -12.16069,-23.45276 -6.62324,-16.17807 -2.82302,-15.30945 5.10315,-8.36048 1.52009,-9.66341 5.3203,-21.17263 9.98914,-20.62975 9.88057,-14.00652 8.79479,-9.2291 -1.9544,-4.12595 -13.24647,-23.7785 -2.60586,-12.81216 0.21715,-11.72638 z"
       id="path6" />
    <path
       style="fill:#ff0000;stroke:none;stroke-width:3.78;stroke-linecap:round;paint-order:markers fill stroke"
       d="m 332.52063,198.02694 13.3429,4.87805 7.03013,0.14347 9.32568,-3.01291 4.59111,-5.02152 -11.62124,-1.43472 -9.75609,-1.29125 -7.60402,1.72166 z"
       id="path5" />
    <path
       id="path4"
       style="display:inline;fill:#00ffff;stroke:none;stroke-width:3.78;stroke-linecap:round;paint-order:markers fill stroke"
       d="m 438.59375,217.35938 -7.46094,1.14843 -5.02148,4.44727 -3.29883,2.15234 -0.71875,4.01758 0.71875,2.72656 15.35156,2.4375 c 0,0 11.62103,0.86133 13.19922,0.86133 1.5782,0 5.16406,-2.43945 5.16406,-2.43945 l -3.01172,-7.89063 -7.74804,-6.3125 z m -84.64844,0.43164 -6.16992,2.29492 -5.16406,5.02148 -1.86524,4.44727 -0.28711,2.58398 2.00782,2.72461 h 13.05664 l 15.35156,-1.57812 c 0,0 3.58789,-2.72617 3.58789,-3.73047 0,-1.00431 -6.16992,-8.03321 -6.16992,-8.03321 l -6.45703,-3.58789 z"
       transform="translate(-49.25842,-75.574212)" />
    <path
       id="path3"
       style="display:inline;fill:#ffccaa;stroke:none;stroke-width:3.78;stroke-linecap:round;paint-order:markers fill stroke"
       d="M 340.87439 54.205085 L 316.64392 54.417975 L 299.32166 55.675788 L 288.65955 58.236335 L 286.92127 58.84571 L 278.29431 63.8711 L 277.14392 65.03321 L 272.27283 71.986335 L 269.83338 77.041022 L 265.1908 92.853522 L 263.78455 100.9629 L 261.5365 118.17579 L 259.48181 132.33008 L 259.11072 136.40821 L 254.2201 135.78907 L 251.72205 135.78907 L 250.38025 136.60548 L 247.81189 139.1211 L 245.89588 146.62891 L 247.83338 156.40821 L 251.09314 167.2461 L 261.93103 191.56251 L 265.6322 194.82227 L 273.38416 188.47852 C 273.38416 188.47852 276.02847 190.15301 276.11658 190.68165 C 276.20468 191.21028 284.22205 209.1836 284.22205 209.1836 L 288.27478 216.84962 L 297.52478 222.75196 L 307.48181 226.62891 L 304.13416 230.50587 L 292.23963 234.29298 L 272.23963 236.05665 L 250.39002 234.11719 L 211.44666 227.77344 L 181.31385 218.61133 L 136.90955 198.43555 L 122.724 190.94532 L 113.73767 182.92774 L 105.01502 165.74805 L 92.591189 151.47462 L 87.218142 146.18751 L 80.257205 141.60548 L 75.587283 144.95508 L 75.235721 154.64649 L 69.507205 149.88868 L 51.975955 139.05079 L 41.225955 136.23243 L 32.67908 137.99415 L 28.099002 141.51758 L 25.632205 146.80469 L 28.362674 157.28907 L 31.358767 170.50587 L 34.882205 178.78712 L 43.780642 194.99805 L 53.737674 206.36329 L 72.768924 216.32032 L 84.839236 228.6543 L 97.173221 238.08204 L 121.48963 255.26368 L 133.91345 263.63282 L 161.31385 278.61133 L 183.60486 287.33399 L 212.32752 295.35157 L 233.64978 303.28126 L 252.32752 311.38673 L 256.11658 313.94141 L 257.8783 328.12696 L 259.55213 357.37696 L 261.40174 372.00196 L 263.51697 373.23633 L 289.86072 362.92774 L 315.85095 356.23243 L 343.95838 352.79493 L 368.71424 352.26758 L 384.04627 353.32423 L 400.08142 351.6504 L 418.22986 350.85743 L 438.93494 353.32423 L 452.32752 356.05665 L 460.2572 359.75587 L 461.57947 356.05665 L 463.95838 337.55274 L 466.15955 304.07423 L 467.92127 302.57618 L 509.59705 286.36329 L 540.96228 275.9668 L 562.37244 267.86133 L 591.53455 252.00196 L 617.08533 233.32423 L 635.23572 220.72462 L 650.30017 205.66016 L 662.01892 200.10938 L 672.23963 192.44337 L 681.57947 181.51758 L 692.32752 158.34571 L 694.70642 144.86719 L 697.61463 136.40821 L 694.79431 131.38673 L 688.45056 127.15626 L 679.64002 125.74805 L 671.18299 128.30274 L 663.34119 133.06055 C 663.34119 133.06055 653.64913 139.66712 653.12049 140.01954 C 652.59186 140.37197 649.24353 141.16602 649.24353 141.16602 L 646.42517 134.5586 L 641.93103 132.00196 L 636.82166 134.29298 L 626.68885 143.54493 L 617.61463 156.4961 L 612.85681 164.95508 L 602.54822 178.9629 L 590.5658 186.01173 L 556.55603 201.60548 L 528.36267 212.70704 L 504.75135 218.78712 L 465.89588 224.25001 L 450.82947 225.57032 L 435.85095 224.42579 L 420.3451 220.63673 L 411.88611 216.32032 L 413.56189 213.94141 L 418.49549 206.45313 L 427.74549 187.06837 L 434.08924 178.34571 L 442.1947 159.84376 L 446.60095 143.28126 L 445.47986 137.25977 L 443.64002 134.74805 L 441.95447 133.98243 L 436.99744 139.93165 L 431.09314 152.53126 L 430.68885 151.42969 L 430.2865 152.45704 L 428.29822 147.43751 L 423.56385 115.8086 L 421.70838 101.46876 L 419.99353 93.500007 L 412.15174 75.351569 L 406.33533 69.712897 L 396.20447 63.103522 L 389.77088 60.763679 L 375.83533 57.191413 L 373.04822 56.529304 L 369.24353 55.878913 L 340.87439 54.205085 z M 402.72986 117.70313 L 410.30603 118.45899 C 410.30603 118.45899 411.63209 124.61559 411.2533 125.75196 C 410.87452 126.88832 410.39978 128.97071 410.39978 128.97071 L 395.5326 128.3086 L 375.93103 135.78907 L 372.71033 134.5586 L 370.81775 131.90626 L 372.80603 128.5918 L 375.26892 124.89844 L 388.71424 120.35352 L 402.72986 117.70313 z M 289.2826 118.26954 L 295.5326 118.8379 L 312.57947 121.11133 L 325.83533 129.06641 L 324.41541 135.69532 L 320.81775 135.97852 L 305.95056 129.16016 L 288.62049 128.5918 L 285.87439 127.17188 L 286.72595 121.30079 L 289.2826 118.26954 z M 389.33533 141.78516 L 396.50916 142.9336 L 404.2572 149.2461 L 407.26892 157.13673 C 407.26892 157.13673 403.68306 159.57618 402.10486 159.57618 C 400.52667 159.57618 388.90564 158.71485 388.90564 158.71485 L 373.55408 156.27735 L 372.83533 153.55079 L 373.55408 149.53321 L 376.85291 147.38087 L 381.87439 142.9336 L 389.33533 141.78516 z M 304.68689 142.2168 L 312.57752 142.35938 L 319.03455 145.94727 C 319.03455 145.94727 325.20447 152.97617 325.20447 153.98048 C 325.20447 154.98478 321.61658 157.71094 321.61658 157.71094 L 306.26502 159.28907 L 293.20838 159.28907 L 291.20056 156.56446 L 291.48767 153.98048 L 293.35291 149.53321 L 298.51697 144.51173 L 304.68689 142.2168 z M 345.43299 192.28712 L 355.18885 193.58008 L 366.80994 195.01368 L 362.2201 200.03516 L 352.89392 203.04883 L 345.86267 202.9043 L 332.52088 198.02735 L 337.82947 194.00977 L 345.43299 192.28712 z " />
    <path
       id="path2"
       style="display:inline;fill:#aa4400;stroke:none;stroke-width:3.78;stroke-linecap:round;paint-order:markers fill stroke"
       d="m 353.29822,5.582038 -14.20508,0.5664062 -22.82031,3.5039063 -20.17188,5.1152345 -17.70703,7.195312 -14.96289,9.091797 -9.7539,11.837891 -5.49219,13.824219 -5.11328,30.302734 -1.42188,28.125002 2.8418,19.88672 2.17773,5.20898 4.54493,-4.45117 h 7.76562 l 2.55664,-17.61328 3.03125,-23.201174 6.06055,-20.642578 7.10156,-10.132813 9.75391,-5.68164 11.83789,-2.841797 23.48437,-1.705078 h 16.95117 l 30.49219,1.894531 5.58594,1.326172 18.4668,4.734375 14.01562,7.765625 7.10156,8.617187 5.68164,18.464844 2.4629,19.035156 4.73437,31.62891 1.98828,5.01953 2.93555,-7.48242 8.33398,-11.17383 2.08399,0.94726 3.88281,5.30274 1.41992,-2.46289 5.01758,-20.07422 4.92578,-18.750001 0.75781,-14.869141 -2.46289,-14.013672 -6.6289,-14.394531 L 440.98767,43.269538 426.40369,31.716804 399.51111,16.187507 375.74158,8.1386786 Z m 49.43164,112.121092 -14.01562,2.65039 -13.44532,4.54492 -2.46289,3.69336 -1.98828,3.31446 1.89258,2.65234 3.2207,1.23047 19.60157,-7.48047 14.86718,0.66211 c 0,0 0.47474,-2.08239 0.85352,-3.21875 0.37879,-1.13637 -0.94727,-7.29297 -0.94727,-7.29297 z m -113.44726,0.56641 -2.55665,3.03125 -0.85156,5.87109 2.7461,1.41992 17.33007,0.56836 14.86719,6.81836 3.59766,-0.2832 1.41992,-6.62891 -13.25586,-7.95508 -17.04687,-2.27343 z" />
    <path
       id="path1"
       style="baseline-shift:baseline;display:inline;overflow:visible;opacity:1;vector-effect:none;fill:#000000;stroke-linecap:round;paint-order:markers fill stroke;enable-background:accumulate;stop-color:#000000;stop-opacity:1"
       d="M 349.84314 3.9394599 C 331.57631 4.4584429 309.39759 8.9845279 292.23767 14.773444 C 275.07776 20.562359 262.89838 27.619614 255.599 36.421882 C 248.29963 45.224142 246.19783 55.481168 244.14588 67.998054 C 242.09394 80.514939 240.03042 95.708198 240.07556 108.56641 C 240.12066 121.42462 242.29532 131.76234 244.42908 141.92774 C 244.44228 141.98974 244.45861 142.05099 244.47791 142.11133 C 244.42901 142.36104 244.38521 142.61548 244.34705 142.87305 C 243.42914 149.06868 245.39485 157.29267 247.48767 163.67579 C 249.58049 170.05892 251.87494 174.44099 254.19666 179.79102 C 255.35751 182.46603 256.56308 185.47299 257.84314 188.13868 C 259.1232 190.80437 260.36829 193.13448 262.20642 194.61915 C 264.04456 196.10383 266.41609 196.121 268.1283 195.38477 C 269.8405 194.64854 271.14579 193.3942 272.1615 192.26563 C 272.99142 191.3435 273.44195 190.81074 273.71424 190.51173 C 274.33061 191.28725 275.44009 193.27899 276.53845 195.68555 C 277.6492 198.11921 278.81261 201.0002 279.82166 203.72462 C 281.83974 209.17347 283.42743 214.57948 288.75135 219.12696 C 292.75265 222.54472 298.572 225.34714 305.46814 227.84376 C 305.30736 227.96458 305.12945 228.08752 304.93103 228.21485 C 303.84895 228.90923 302.07809 229.71433 298.95056 230.58594 C 292.69551 232.32915 281.10321 234.29724 271.4701 234.4043 C 261.837 234.51135 253.84818 232.78956 241.30213 230.8086 C 228.75609 228.82765 211.94459 226.63453 197.57166 222.41993 C 183.19872 218.20534 171.01474 211.90179 158.66541 206.38868 C 146.31607 200.87558 134.02307 196.23285 126.64588 191.70118 C 119.26871 187.16952 116.52304 182.78184 113.81385 178.01368 C 111.10467 173.24553 108.64322 168.32379 104.49939 162.50001 C 100.35556 156.67623 94.639673 150.05894 89.932986 146.04102 C 87.57964 144.03205 85.486596 142.67844 83.524783 141.91407 C 81.562969 141.14971 79.655579 140.98833 77.985721 141.58204 C 74.645987 142.76947 73.20306 146.18526 72.731814 149.08985 C 72.633324 149.69689 72.594419 150.18097 72.548221 150.60352 C 72.316931 150.50902 72.30331 150.53932 71.917361 150.31837 C 70.266328 149.37307 67.311673 147.21362 64.177127 144.9043 C 61.042582 142.59498 57.685896 140.11937 54.870486 138.37305 C 49.239657 134.88039 45.707563 134.51368 42.653689 134.51368 C 39.599813 134.51368 36.169867 134.74885 32.534549 136.44532 C 28.899224 138.14179 25.063949 140.93681 23.856814 144.70899 C 23.253243 146.5951 23.585057 148.40534 24.069705 149.98048 C 24.554354 151.55562 25.189501 153.01061 25.581424 154.5293 C 26.365268 157.56666 26.403934 161.91353 28.124392 167.64844 C 29.844853 173.38335 33.173936 180.22686 36.593142 186.73438 C 40.012349 193.24191 43.702504 199.7093 50.802127 205.32032 C 57.901757 210.93135 68.073129 215.58045 73.341189 219.40235 C 75.975215 221.3133 77.486326 223.02704 79.001346 224.89063 C 80.516367 226.75423 82.034909 228.79552 84.477908 231.00587 C 89.363909 235.42656 97.444171 240.18802 106.58924 246.61133 C 115.7343 253.03463 126.086 261.18791 137.94275 268.39063 C 149.79951 275.59336 163.06215 281.78015 176.65174 286.75196 C 190.24134 291.72378 204.0633 295.45368 218.12635 300.35938 C 230.05397 304.52018 242.25258 309.55807 254.51306 314.73829 C 254.33213 315.80285 254.19799 317.30576 254.5033 319.90626 C 254.86717 323.00074 255.77863 327.78513 256.22205 331.07618 C 256.66546 334.36723 256.6615 336.18403 256.6615 339.91212 C 256.6615 343.64021 256.66059 349.19577 257.26892 355.07032 C 257.86437 360.82034 259.03227 366.75824 260.19861 372.6543 C 248.42661 378.28404 242.67854 383.44576 239.90564 390.57618 C 236.83867 398.4628 237.33912 408.1991 237.74549 417.7461 C 237.63586 417.91558 237.5541 418.10153 237.5033 418.29688 C 237.4491 418.39678 237.404 418.50137 237.36853 418.60938 C 235.16937 425.63652 232.93282 432.75182 231.90564 439.95118 C 230.87846 447.15053 231.10037 454.5093 234.1908 463.01758 C 237.20842 471.32544 242.82577 480.59341 248.45252 489.84376 C 241.5361 497.11957 235.80515 504.16555 231.25525 511.45118 C 220.69959 528.35367 216.72917 546.2225 212.79627 563.83008 C 212.75097 564.03185 212.73911 564.2397 212.76111 564.44532 C 211.5316 565.91401 210.49912 567.4413 209.74939 569.18555 C 208.31993 572.51124 208.07895 576.47005 209.25916 581.67383 C 211.6196 592.08138 219.42256 607.95274 224.64978 618.30469 C 227.26339 623.48067 229.23509 627.25183 230.74549 629.72462 C 231.50069 630.96101 232.11134 631.86318 232.79041 632.56055 C 232.87111 632.64345 232.95346 632.72506 233.03845 632.80469 C 232.49766 639.82893 231.89982 646.8611 230.5951 654.6543 C 229.17406 663.1423 226.83622 672.94393 227.33142 691.37501 C 227.82662 709.80608 231.10842 736.80923 234.2826 759.13087 C 237.45679 781.45251 240.5299 799.07366 243.30017 812.61719 C 246.07044 826.16073 248.48052 835.47038 248.57947 844.77344 C 248.67837 854.07652 246.47409 863.78434 244.42127 874.45899 C 242.36846 885.13364 240.32347 897.05635 245.74158 907.00782 C 251.15968 916.95927 263.31786 923.8906 271.54236 928.41407 C 279.76686 932.93754 284.08076 935.03209 286.09119 937.62891 C 288.10162 940.22575 288.59455 944.35574 290.70252 950.57423 C 292.8105 956.79271 296.48345 964.72683 301.61658 969.63673 C 306.74969 974.54662 313.26323 975.99183 319.099 974.2754 C 324.93475 972.55897 329.78091 968.18987 333.28845 966.99219 C 335.04224 966.39336 336.49136 966.3954 338.19275 966.95899 C 339.89413 967.52258 341.84384 968.73304 344.14978 970.64649 C 348.76167 974.4734 354.80118 981.14064 362.64588 986.12305 C 370.49058 991.10547 379.97779 994.27782 389.36072 994.59766 C 398.74364 994.91751 407.99918 992.41406 414.12635 986.73243 C 420.25352 981.05081 422.70382 972.84859 426.5326 966.36915 C 430.36139 959.8897 435.81631 954.40929 442.72205 946.06055 C 449.62778 937.71182 457.99967 926.49458 461.29627 913.62696 C 464.59288 900.75935 462.68745 886.92574 462.78845 872.88477 C 462.8895 858.84381 464.93074 844.11583 465.34314 828.13477 C 465.75554 812.15372 464.52309 795.12856 464.11658 783.94923 C 463.71006 772.76989 464.10478 767.47096 465.42517 758.73633 C 466.74553 750.00169 469.02709 737.7148 468.71814 716.81055 C 468.40919 695.90631 465.54173 666.4525 464.42127 646.69141 C 463.30081 626.93033 463.91016 616.8363 464.21814 607.49415 C 464.52612 598.15199 464.53103 589.82174 465.53455 581.69337 C 466.53806 573.56499 468.57352 565.40555 470.3158 555.71485 C 471.25063 550.5152 472.0915 544.91481 472.88806 539.13282 C 472.90666 539.04522 472.91907 538.9565 472.92517 538.86719 C 473.59986 533.95701 474.24254 528.91854 474.88611 523.88477 C 474.90901 523.70425 474.90615 523.52138 474.87635 523.3418 C 474.89015 523.2773 474.90406 523.21198 474.91736 523.14649 C 475.61355 519.72345 475.56907 514.64891 475.4408 508.56837 C 475.31252 502.48782 475.05826 495.48275 475.15955 488.64649 C 475.36212 474.97397 476.98588 461.75948 478.51111 451.99805 C 480.03634 442.23663 481.62367 435.62449 479.52283 429.24415 C 477.67716 423.63879 473.24713 418.95501 468.67517 414.44727 C 469.01566 413.52382 469.09309 412.57854 469.18103 411.35352 C 469.27763 410.00752 469.31324 408.39309 469.3197 406.57032 C 469.33262 402.92478 469.22986 398.45739 469.22986 393.93555 C 469.22985 384.89189 469.70628 375.44349 467.83924 368.30469 C 466.91404 364.76713 465.29844 361.85051 462.8158 359.47071 C 463.85679 354.4688 464.88644 349.40387 465.41931 344.18165 C 465.9809 338.67964 465.97791 333.13435 465.97791 329.40626 C 465.97791 325.67817 465.97693 323.7882 466.21619 320.45313 C 466.45545 317.11807 466.93982 312.32513 467.17127 309.55079 C 467.4027 306.77645 467.3747 305.90608 467.3451 305.23633 C 467.3361 305.02461 467.2908 304.81597 467.21228 304.61915 C 479.78052 299.30335 492.28897 294.11774 504.51306 289.85352 C 518.57611 284.94782 532.39807 281.21792 545.98767 276.2461 C 559.57726 271.27429 572.8399 265.0875 584.69666 257.88477 C 596.55341 250.68205 606.90511 242.52878 616.05017 236.10548 C 625.19523 229.68217 633.2755 224.9207 638.1615 220.50001 C 640.6045 218.28966 642.12304 216.24837 643.63806 214.38477 C 645.15308 212.52118 646.66419 210.80744 649.29822 208.89649 C 654.56628 205.07459 664.73765 200.42549 671.83728 194.81446 C 678.93691 189.20344 682.62706 182.73605 686.04627 176.22852 C 689.46547 169.721 692.79456 162.87749 694.51502 157.14258 C 696.23548 151.40767 696.27414 147.0608 697.05799 144.02344 C 697.44991 142.50475 698.08506 141.04976 698.5697 139.47462 C 699.05435 137.89948 699.38617 136.08924 698.7826 134.20313 C 697.57546 130.43095 693.74019 127.63593 690.10486 125.93946 C 686.46954 124.24299 683.0396 124.00782 679.98572 124.00782 C 676.93185 124.00782 673.43574 124.35717 668.05408 127.56641 C 665.36325 129.17102 662.19875 131.43632 659.23181 133.54493 C 656.26488 135.65355 653.45252 137.62024 651.83728 138.47657 C 651.19485 138.81716 650.90995 138.8788 650.6908 138.9336 C 650.7232 138.8371 650.56011 138.41163 650.24353 137.35743 C 649.48328 134.82576 647.85971 131.76857 644.55603 130.85938 C 641.25237 129.9502 637.41311 131.51723 632.70642 135.53516 C 627.99974 139.55308 622.28385 146.17037 618.14002 151.99415 C 613.99619 157.81793 611.53474 162.73967 608.82556 167.50782 C 606.11637 172.27598 603.3707 176.66366 595.99353 181.19532 C 588.61634 185.72699 576.32334 190.36972 563.974 195.88282 C 551.62467 201.39593 539.44069 207.69948 525.06775 211.91407 C 510.69482 216.12867 493.88332 218.32179 481.33728 220.30274 C 468.79123 222.2837 460.80241 224.00549 451.16931 223.89844 C 441.5362 223.79138 429.95774 221.82505 423.27478 219.92774 C 417.75559 218.36084 415.67129 217.00147 413.88806 215.48048 C 413.97406 215.39248 414.05891 215.30336 414.14392 215.21485 C 421.97972 207.05697 425.13271 196.86923 427.5033 191.3379 C 429.87388 185.80656 431.51728 184.4441 434.36267 180.43946 C 437.20806 176.43483 440.95872 170.18705 443.69275 162.82618 C 444.79757 159.85166 445.72951 156.73493 446.45447 153.71485 C 446.51837 153.6001 446.57003 153.479 446.60877 153.35352 C 450.48747 140.86808 454.38085 128.34601 457.36267 115.88477 C 460.3445 103.42353 462.45518 90.908824 460.66345 78.261725 C 458.87282 65.614636 453.13899 52.917571 441.71814 41.601569 C 430.29729 30.285573 413.3874 20.421437 397.88806 13.705085 C 382.38873 6.988734 368.10997 3.4204768 349.84314 3.9394599 z M 349.95056 7.7168036 C 367.67599 7.2132024 381.20836 10.597681 396.38416 17.173835 C 411.55995 23.749988 428.18812 33.517029 439.05799 44.287116 C 449.92787 55.057199 455.23639 66.899942 456.92127 78.792975 C 458.60616 90.686004 456.62879 102.71148 453.68689 115.00587 C 451.95689 122.23563 449.90804 129.51806 447.724 136.83008 C 447.10205 134.40997 445.94135 132.92757 444.55603 132.18165 C 444.01764 131.89176 443.30567 131.74883 442.57752 131.78321 C 441.84938 131.81761 441.10526 132.02828 440.50525 132.44141 C 439.30523 133.26766 438.34374 134.52489 437.06385 136.49805 C 435.33839 139.15815 433.11473 143.17512 430.7201 147.64063 C 429.71946 142.87951 428.79396 138.0987 428.13806 133.16602 C 427.27092 126.64469 426.85948 119.68805 425.61072 111.63282 C 426.22967 110.97185 426.7841 110.43722 427.12439 110.22657 C 427.19429 110.18327 427.25053 110.15483 427.29041 110.13673 C 427.29741 110.14373 427.30349 110.15176 427.31189 110.16016 C 427.62412 110.47239 428.50756 112.078 429.2533 114.15821 C 429.99903 116.23843 430.75639 118.82899 431.51892 121.44337 C 431.8111 122.44558 432.86056 123.02103 433.86267 122.72852 C 434.86389 122.43632 435.43908 121.38823 435.14783 120.38673 C 434.3853 117.77235 433.61647 115.13263 432.80994 112.88282 C 432.0034 110.63301 431.30749 108.8101 429.98572 107.48829 C 429.32482 106.82738 428.39893 106.36184 427.474 106.32813 C 426.54907 106.29443 425.7621 106.623 425.13416 107.01173 C 425.03896 107.07063 424.94604 107.13105 424.85486 107.19337 C 423.48799 99.790799 421.51883 91.917707 419.3783 85.4961 C 418.25871 82.13731 417.06074 79.119505 415.54236 76.382819 C 416.69358 72.263426 417.84564 68.215419 419.06775 64.875007 C 420.37007 61.315354 421.86477 58.575801 423.02674 57.554694 C 424.18874 56.533569 425.00513 56.558288 426.35877 57.253913 C 427.71242 57.949538 429.31945 59.602842 430.5697 61.779304 C 433.07031 66.132236 434.32908 72.699972 435.13806 79.171882 C 435.94705 85.643793 436.35428 91.953382 436.87049 97.218757 C 437.38671 102.48413 438.007 106.61901 438.62049 110.70899 C 438.77465 111.74221 439.73787 112.45434 440.77088 112.29883 C 441.80331 112.14371 442.51434 111.1808 442.35877 110.14844 C 441.74528 106.05846 441.13853 102.01377 440.6322 96.849616 C 440.12592 91.685462 439.71508 85.319281 438.88806 78.703132 C 438.06105 72.086981 436.86795 65.155148 433.84705 59.896491 C 432.33659 57.267159 430.41459 55.088571 428.08728 53.892585 C 426.92363 53.294592 425.58657 53.014561 424.26502 53.12696 C 422.94348 53.239359 421.63678 53.742812 420.53064 54.71485 C 418.31834 56.65895 416.89871 59.799437 415.51697 63.576179 C 414.55131 66.215643 413.65951 69.173536 412.79041 72.216804 C 411.44866 70.512083 409.88832 68.927567 408.03064 67.441413 C 406.72751 66.398897 405.2893 65.406714 403.72986 64.466804 C 403.73286 64.335213 403.72281 64.203641 403.69861 64.074225 C 402.26712 56.303264 400.99298 48.533026 401.94275 44.388679 C 402.89253 40.244302 405.82454 38.666438 408.18885 37.330085 C 410.55317 35.993732 411.60581 35.363503 412.6283 34.750007 C 413.52396 34.213088 413.81436 33.051498 413.27674 32.156257 C 413.01893 31.726388 412.6009 31.416554 412.11463 31.294929 C 411.62807 31.173088 411.11304 31.249679 410.68299 31.507819 C 409.6605 32.121315 408.66864 32.716927 406.32947 34.039069 C 403.99029 35.361212 399.55894 37.873311 398.25916 43.544929 C 397.10287 48.590351 398.23558 55.299062 399.5072 62.18946 C 399.24228 62.061334 398.97427 61.934191 398.70447 61.8086 C 398.76907 61.492408 398.75159 61.164949 398.65369 60.857429 C 395.20394 49.992252 391.75411 39.026598 386.67517 30.630866 C 381.59624 22.235147 375.03808 16.752527 368.69861 11.435554 C 367.89875 10.765203 366.70692 10.870133 366.0365 11.669929 C 365.36568 12.469269 365.46973 13.66104 366.26892 14.332038 C 372.60839 19.649011 378.73038 24.799405 383.4408 32.585944 C 387.86074 39.89233 391.17003 49.820889 394.4115 59.994147 C 394.3973 59.988647 394.38469 59.982019 394.37049 59.976569 C 394.31869 59.859772 394.25524 59.748526 394.18103 59.644538 C 388.25056 51.26008 382.20391 42.698983 372.89392 34.853522 C 363.58394 27.008067 351.23808 20.033051 338.96814 13.080085 C 338.05991 12.565363 336.90638 12.884575 336.39197 13.792975 C 335.87857 14.70076 336.19762 15.852832 337.10486 16.367194 C 349.3748 23.32016 361.56771 30.252037 370.45838 37.744147 C 377.97005 44.074177 383.28803 50.914779 388.33338 57.941413 C 386.62159 57.435255 384.85626 56.969266 383.04822 56.544929 C 378.76065 55.538655 374.23767 54.775023 369.42908 54.181647 C 360.43527 45.084532 351.3764 35.896429 341.58728 29.943366 C 331.7644 23.969776 321.47738 21.46111 313.11658 20.416022 C 308.93618 19.893478 305.21754 19.736009 301.75135 19.761725 C 298.28516 19.787446 295.07148 19.994726 291.90174 20.199225 C 290.86029 20.266676 290.07069 21.165583 290.13806 22.207038 C 290.20446 23.249268 291.10371 24.040019 292.14588 23.972663 C 298.48535 23.563665 304.64859 23.166128 312.64783 24.166022 C 320.64706 25.165915 330.40221 27.563598 339.62439 33.171882 C 347.70068 38.08332 355.57809 45.616363 363.47205 53.542975 C 358.53191 53.085293 353.3005 52.762808 347.73377 52.509772 C 344.62462 52.368446 341.40688 52.248932 338.13416 52.164069 C 329.45237 46.316921 320.69533 40.436196 311.83533 37.097663 C 307.3223 35.397113 302.82208 34.372942 298.53845 34.062507 C 294.25484 33.752072 290.1869 34.156767 286.54236 35.316413 C 279.25328 37.6357 274.12416 42.836172 269.21619 47.744147 C 268.47863 48.482071 268.47863 49.678098 269.21619 50.416022 C 269.95411 51.15358 271.15014 51.15358 271.88806 50.416022 C 276.79603 45.508047 281.4809 40.893265 287.68885 38.917975 C 293.8968 36.94269 302.09666 37.467805 310.50135 40.634772 C 317.20401 43.160394 324.13505 47.405096 331.15174 52.041022 C 329.57838 52.027662 328.00084 52.02485 326.42517 52.03321 C 319.1744 52.0716 311.95801 52.354149 305.32947 53.02735 C 301.29989 53.436598 297.46254 53.990365 293.87049 54.791022 C 293.75345 54.754022 293.63309 54.728511 293.51111 54.71485 C 287.67014 54.063452 281.77917 53.363966 276.55213 53.656257 C 274.80979 53.753687 273.13969 53.961799 271.57166 54.318366 C 265.29952 55.744631 261.17676 59.642011 258.26111 63.853522 C 255.34546 68.065028 253.39991 72.839133 252.33533 78.375007 C 251.27075 83.910876 251.07534 90.100922 250.66931 96.08985 C 250.26328 102.07878 249.6539 107.98555 249.04041 113.91602 C 248.933 114.95427 249.68769 115.88298 250.72595 115.99024 C 251.76421 116.09765 252.69291 115.34296 252.80017 114.30469 C 253.41367 108.37422 254.02882 102.42039 254.4408 96.343757 C 254.85277 90.267126 255.0678 84.188048 256.04822 79.08985 C 257.02863 73.991657 258.76267 69.767957 261.36853 66.003913 C 263.97439 62.239874 267.21462 59.185669 272.4115 58.003913 C 275.72147 57.251236 280.04523 57.293487 284.76111 57.648444 C 280.46767 59.494122 276.74315 61.993907 273.73377 65.419929 C 266.58386 73.559737 263.9939 86.132952 261.9701 98.468757 C 260.02775 110.30812 258.68682 122.12157 257.37244 133.9043 C 256.59432 133.66569 255.81273 133.49374 255.02869 133.4004 C 252.41082 133.08873 249.85605 133.84352 247.95056 135.53907 C 247.66296 135.79499 247.39101 136.06986 247.13416 136.36329 C 245.38783 127.78581 243.89363 119.03927 243.85681 108.55274 C 243.81311 96.11245 245.83828 81.041674 247.87635 68.609382 C 249.91443 56.17709 251.90256 46.800844 258.50916 38.833991 C 265.11575 30.867147 276.6595 24.018643 293.44666 18.355475 C 310.23381 12.692308 332.22513 8.2204049 349.95056 7.7168036 z M 337.25525 55.923835 C 337.43154 55.952925 337.61109 55.956874 337.78845 55.935554 C 341.11912 56.019414 344.39625 56.141269 347.56189 56.285163 C 361.01223 56.896547 372.35758 57.918179 382.18494 60.224616 C 392.0123 62.531054 400.38584 66.165779 405.66931 70.392585 C 408.23541 72.445477 410.12844 74.643557 411.67322 77.18946 C 411.76092 77.506679 411.92989 77.795509 412.16345 78.02735 C 413.56415 80.521901 414.68104 83.351568 415.79431 86.691413 C 418.14704 93.749591 420.33428 102.82135 421.6576 110.85157 C 421.6056 111.22553 421.6666 111.60648 421.83338 111.94532 C 423.0828 119.91053 423.48959 126.87774 424.39197 133.66407 C 425.274 140.29734 426.61445 146.58899 427.96228 152.82032 C 427.69633 153.32253 427.43005 153.82653 427.16345 154.33008 C 426.67478 155.25235 427.02631 156.39615 427.94861 156.88477 C 428.87088 157.37345 430.01468 157.02192 430.5033 156.09962 C 430.76335 155.6084 431.02476 155.11718 431.28455 154.62696 C 431.58821 154.34101 431.78873 153.96262 431.85486 153.55079 C 433.56473 150.32906 435.24323 147.19268 436.74939 144.48438 C 436.43386 148.35039 436.03382 151.95439 435.39002 154.78712 C 434.43828 158.97484 432.95215 161.69341 431.33924 164.6504 A 1.89 1.89 0 0 0 432.0951 167.2129 A 1.89 1.89 0 0 0 434.6576 166.45899 C 436.27051 163.502 438.01117 160.30641 439.07556 155.62305 C 440.13995 150.93969 440.52977 144.9843 440.93299 139.07032 A 1.89 1.89 0 0 0 440.64783 137.93555 C 441.61453 136.52611 442.33194 135.7722 442.64783 135.55469 C 442.68413 135.52969 442.71131 135.50719 442.73181 135.48829 C 442.74081 135.49429 442.75126 135.50142 442.76306 135.50782 C 443.26802 135.77972 444.52406 136.9298 444.42908 141.67969 C 444.33408 146.42957 442.73277 154.55554 440.14978 161.50977 C 437.5668 168.46399 433.95679 174.48356 431.28064 178.25001 C 428.60449 182.01646 426.56612 183.92701 424.02869 189.84766 C 421.49125 195.7683 418.51005 205.21342 411.41736 212.59766 C 404.32467 219.98188 392.71377 225.65175 381.06385 229.06641 C 369.41394 232.48106 357.77785 233.68331 346.33142 232.98048 C 334.885 232.27765 323.56792 229.65641 313.74744 226.61915 C 303.92696 223.5819 295.69862 220.08902 291.20642 216.25196 C 286.71423 212.41491 285.4385 208.00632 283.36658 202.41212 C 282.33062 199.61502 281.14221 196.66625 279.97791 194.11524 C 278.8136 191.56424 277.74892 189.46575 276.62244 188.07423 C 276.0592 187.37847 275.43495 186.78263 274.49744 186.52149 C 273.55992 186.26036 272.52824 186.58679 271.92322 187.00196 C 270.71317 187.83238 270.17579 188.82184 269.35095 189.73829 C 268.52614 190.65474 267.48013 191.5492 266.63611 191.91212 C 265.79209 192.27504 265.40179 192.34231 264.58142 191.67969 C 263.76104 191.01706 262.45083 189.00177 261.25135 186.50391 C 260.05188 184.00604 258.85438 181.03137 257.66345 178.28712 C 255.28166 172.79861 253.07666 168.59148 251.07947 162.50001 C 249.08227 156.40853 247.36717 148.27316 248.08533 143.42579 C 248.44441 141.0021 249.35143 139.34979 250.46228 138.36133 C 251.57314 137.37286 252.90476 136.95274 254.58142 137.15235 C 257.93477 137.55159 263.06856 141.17703 268.18103 145.06251 C 269.01211 145.69426 270.198 145.53247 270.82947 144.70118 C 271.45989 143.87043 271.29818 142.68604 270.46814 142.05469 C 267.31721 139.65999 264.17495 137.16578 261.00135 135.45899 C 262.35673 123.30049 263.71643 111.17415 265.70056 99.080085 C 267.70346 86.871633 270.43088 74.907242 276.57361 67.914069 C 282.71635 60.920885 292.79319 58.099193 305.71228 56.787116 C 315.4286 55.800317 326.59466 55.668655 337.25525 55.923835 z M 405.35877 116.34376 C 404.63384 116.34276 403.84419 116.36858 402.97791 116.42188 C 396.04764 116.84834 384.07984 119.01285 377.2201 122.33204 C 373.79023 123.99163 371.68903 125.98301 370.61072 128.07423 C 369.5324 130.16546 369.55196 132.28512 370.1322 133.88087 C 370.71247 135.47662 371.94112 136.65546 373.3197 137.20313 C 374.69831 137.7508 376.17598 137.7553 377.55994 137.42579 C 380.32787 136.76677 382.32184 135.055 385.18103 133.72071 C 388.04021 132.38642 392.05574 131.17573 395.15955 130.59376 C 398.26336 130.01179 400.42073 130.01714 403.02088 130.40235 C 404.32096 130.59495 405.80439 130.9126 407.29236 131.0293 C 408.78032 131.146 410.43447 131.13316 411.84119 130.00782 C 413.24793 128.88246 413.66782 127.24109 413.80799 125.69923 C 413.94817 124.15736 413.77029 122.58809 413.40955 121.20508 C 413.04877 119.82208 412.18766 118.1318 410.43689 117.26563 C 409.12382 116.61602 407.53356 116.34807 405.35877 116.34376 z M 292.11072 116.43946 C 289.93593 116.44346 288.34567 116.71368 287.0326 117.36329 C 285.28183 118.22946 284.42072 119.91974 284.05994 121.30274 C 283.69916 122.68575 283.52132 124.25501 283.6615 125.79688 C 283.80167 127.33874 284.22156 128.98012 285.6283 130.10548 C 287.03502 131.23082 288.68917 131.24366 290.17713 131.12696 C 291.6651 131.01026 293.14853 130.69261 294.44861 130.50001 C 297.04876 130.1148 299.20613 130.10944 302.30994 130.69141 C 305.41375 131.27338 309.42928 132.48408 312.28845 133.81837 C 315.14765 135.15266 317.14162 136.86442 319.90955 137.52344 C 321.29351 137.85295 322.77119 137.84846 324.14978 137.30079 C 325.52837 136.75312 326.75702 135.57427 327.33728 133.97852 C 327.91754 132.38277 327.93709 130.26311 326.85877 128.17188 C 325.78046 126.08066 323.67926 124.08928 320.24939 122.42969 C 313.38965 119.1105 301.42185 116.946 294.49158 116.51954 C 293.62529 116.46624 292.83565 116.43806 292.11072 116.43946 z M 405.32361 120.13673 C 407.17329 120.15973 408.25287 120.40091 408.76111 120.65235 C 409.43875 120.98761 409.49863 121.18945 409.75135 122.15821 C 410.00402 123.12697 410.13421 124.36864 410.04431 125.35743 C 409.95441 126.34621 409.6069 126.95502 409.47986 127.05665 C 409.3528 127.15829 408.70665 127.34953 407.58728 127.26173 C 406.4679 127.17393 405.03622 126.87851 403.57556 126.66212 C 400.65423 126.22933 397.90448 126.23386 394.46424 126.87891 C 391.02401 127.52396 386.85921 128.76815 383.58338 130.29688 C 380.30755 131.82561 378.21154 133.38654 376.68494 133.75001 C 375.92164 133.93174 375.20169 133.88506 374.71424 133.69141 C 374.22679 133.49777 373.92072 133.24362 373.68299 132.58985 C 373.44526 131.93607 373.36127 130.98738 373.9701 129.80665 C 374.57893 128.62591 375.95687 127.14229 378.86658 125.73438 C 384.68602 122.91856 396.84816 120.58487 403.21033 120.19337 C 404.00561 120.14447 404.70705 120.12903 405.32361 120.13673 z M 292.14588 120.23243 C 292.76244 120.22443 293.46388 120.24242 294.25916 120.29102 C 300.62133 120.68252 312.78347 123.01622 318.60291 125.83204 C 321.51262 127.23995 322.89056 128.72356 323.49939 129.9043 C 324.10822 131.08503 324.02423 132.03373 323.7865 132.68751 C 323.54877 133.34128 323.2427 133.59543 322.75525 133.78907 C 322.2678 133.98272 321.54785 134.02937 320.78455 133.84766 C 319.25795 133.48419 317.16194 131.92327 313.88611 130.39454 C 310.61028 128.86581 306.44548 127.62162 303.00525 126.97657 C 299.56501 126.33152 296.81525 126.32698 293.89392 126.75977 C 292.43326 126.97616 291.00159 127.27158 289.8822 127.35938 C 288.76283 127.44718 288.11669 127.25594 287.98963 127.1543 C 287.86259 127.05267 287.51506 126.44386 287.42517 125.45508 C 287.33527 124.46629 287.46547 123.22463 287.71814 122.25587 C 287.97086 121.28711 288.03074 121.08527 288.70838 120.75001 C 289.21661 120.49856 290.2962 120.25541 292.14588 120.23243 z M 679.98572 127.78712 C 682.80948 127.78712 685.48026 127.98651 688.37244 129.30469 C 687.1937 129.56401 686.02229 129.90179 684.90369 130.40626 C 682.71975 131.39117 681.23881 132.74702 679.49744 133.76368 C 677.75607 134.78034 675.20644 135.79313 672.44666 137.75587 C 669.68688 139.71861 666.93274 142.48452 661.89197 147.85938 C 656.8512 153.23425 649.49241 161.2708 642.13416 169.30665 C 641.42926 170.0763 641.48173 171.27165 642.25135 171.97657 C 643.02152 172.68097 644.2169 172.62763 644.92127 171.85743 C 652.27952 163.82158 659.63754 155.78769 664.64783 150.44532 C 669.65812 145.10296 672.28714 142.50596 674.63806 140.83399 C 676.98899 139.16203 679.2758 138.26853 681.40174 137.02735 C 683.52766 135.78618 684.94466 134.53334 686.45642 133.85157 C 687.96819 133.1698 690.07528 132.79787 692.32166 132.43555 C 692.48829 132.40845 692.65054 132.35925 692.80408 132.28907 C 694.00629 133.38394 694.91387 134.51451 695.18299 135.35548 C 695.45664 136.21063 695.34895 137.08757 694.95642 138.36329 C 694.6403 139.39073 694.13793 140.60279 693.70056 142.01758 C 692.15876 141.51568 690.5691 141.05364 688.95252 140.88868 C 686.86097 140.67525 684.69626 141.10407 682.17127 142.49024 C 679.64627 143.87641 676.43442 146.2899 672.30408 150.98243 C 668.17374 155.67497 663.17454 162.54431 658.38025 167.90821 C 653.58596 173.27212 648.90943 177.25316 644.14588 181.30469 C 643.35082 181.98099 643.25462 183.17379 643.93103 183.96876 C 644.60733 184.76382 645.80014 184.86001 646.5951 184.1836 C 651.35866 180.13208 656.2095 176.0096 661.19861 170.42774 C 666.18772 164.84587 671.22681 157.92855 675.14197 153.48048 C 679.05713 149.03242 681.8947 146.95281 683.98963 145.80274 C 686.08456 144.65266 687.11051 144.5015 688.5697 144.6504 C 689.77945 144.77385 691.26826 145.20558 692.85681 145.72071 C 692.51258 147.81124 692.2842 150.03242 691.77478 152.53907 C 690.09429 151.86088 688.09845 151.37362 685.9076 152.14258 C 682.93567 153.18532 680.4111 155.9644 678.23963 159.5879 C 676.06814 163.2114 674.46058 167.48978 672.04822 171.31837 C 669.63587 175.14694 666.27619 178.79189 663.46814 181.23829 C 660.66011 183.68468 658.39835 184.97413 655.96619 186.36133 C 655.06063 186.87844 654.74509 188.03133 655.26111 188.93751 C 655.7776 189.84495 656.93211 190.16156 657.83924 189.64454 C 660.27139 188.25733 662.87394 186.76829 665.95056 184.0879 C 669.02719 181.4075 672.57198 177.57509 675.24549 173.33204 C 677.919 169.08899 679.58029 164.70429 681.48181 161.53126 C 683.38334 158.35824 685.73508 156.20827 687.1576 155.70899 C 688.32432 155.29956 689.40717 155.61339 690.83728 156.24805 C 689.24734 161.45097 686.03874 168.11741 682.70056 174.47071 C 679.32146 180.90192 675.99243 186.71491 669.49549 191.84962 C 662.99855 196.98432 652.99582 201.54568 647.07947 205.8379 C 644.12129 207.98402 642.28706 210.05331 640.70447 212.00001 C 639.12189 213.94671 637.78862 215.74092 635.62635 217.69727 C 631.3018 221.60998 623.15446 226.49829 613.8783 233.01368 C 604.60214 239.52907 594.34213 247.60247 582.73377 254.6543 C 571.12541 261.70612 558.07319 267.80055 544.68885 272.69727 C 531.30451 277.594 517.49367 281.32237 503.26697 286.28516 C 489.04027 291.24795 474.53363 297.40263 460.05994 303.54298 C 459.09858 303.95047 458.64989 305.06039 459.05799 306.02149 C 459.46548 306.98285 460.5754 307.43154 461.5365 307.02344 C 462.22055 306.73324 462.90342 306.44431 463.58728 306.1543 C 463.58628 306.69143 463.54838 307.5026 463.40369 309.23633 C 463.17875 311.93272 462.69149 316.74207 462.4447 320.18165 C 462.19766 323.62123 462.19666 325.67817 462.19666 329.40626 C 462.19666 333.13435 462.19466 338.55512 461.65955 343.79883 C 461.21241 348.18084 460.38543 352.53114 459.48572 356.91407 C 457.48997 355.68048 455.12738 354.64468 452.35681 353.78712 C 443.42476 351.02241 430.04885 349.6142 415.21814 349.40821 C 406.95325 349.29342 398.20344 349.56525 388.8158 350.81251 C 383.45934 350.68918 378.09424 350.56529 372.71424 350.50391 C 356.53905 350.31938 340.22294 350.7007 323.54822 353.36133 C 301.31526 356.90884 278.66833 364.46 264.17713 370.83204 C 264.02657 370.89824 263.87679 370.96524 263.72791 371.03126 C 262.62501 365.44222 261.56858 359.91212 261.02674 354.67969 C 260.44375 349.04987 260.44275 343.64021 260.44275 339.91212 C 260.44275 336.18403 260.43775 334.05391 259.96814 330.57032 C 259.49878 327.08674 258.58684 322.26785 258.2572 319.46485 C 258.06644 317.84244 258.04575 316.94151 258.10486 316.25782 C 259.10391 316.68129 260.10342 317.10528 261.10291 317.5293 C 262.06401 317.9374 263.17393 317.4887 263.58142 316.52735 C 263.98952 315.56625 263.54082 314.45632 262.57947 314.04883 C 248.10578 307.90848 233.59914 301.75381 219.37244 296.79102 C 205.14574 291.82823 191.3349 288.09986 177.95056 283.20313 C 164.56622 278.30641 151.514 272.21198 139.90564 265.16016 C 128.29728 258.10833 118.03727 250.03493 108.76111 243.51954 C 99.484954 237.00415 91.33761 232.11584 87.013064 228.20313 C 84.850789 226.24678 83.517524 224.45257 81.934939 222.50587 C 80.352354 220.55917 78.518117 218.48988 75.559939 216.34376 C 69.643589 212.05154 59.640857 207.49018 53.143924 202.35548 C 46.646985 197.22077 43.31795 191.40778 39.938846 184.97657 C 36.559742 178.54537 33.312548 171.7926 31.743533 166.56251 C 31.475004 165.6674 31.253316 164.80788 31.065799 163.98048 C 32.894729 163.1222 34.146664 162.61035 35.513064 163.08985 C 36.935579 163.58913 39.287321 165.73909 41.188846 168.91212 C 43.090366 172.08515 44.751663 176.46985 47.425174 180.7129 C 50.098684 184.95594 53.645421 188.79031 56.722049 191.47071 C 59.798676 194.1511 62.401223 195.63819 64.833377 197.0254 C 65.740066 197.54109 66.893115 197.22463 67.409549 196.31837 C 67.925566 195.41219 67.610029 194.2593 66.704471 193.74219 C 64.272314 192.35499 62.010554 191.06554 59.202517 188.61915 C 56.394475 186.17275 53.036749 182.5278 50.624392 178.69923 C 48.212031 174.87063 46.604469 170.59226 44.432986 166.96876 C 42.261513 163.34526 39.734986 160.56618 36.763064 159.52344 C 34.334389 158.67101 32.146352 159.36242 30.360721 160.14649 C 30.003382 157.77905 29.774052 155.6473 29.24158 153.58399 C 29.16061 153.27024 29.075327 152.96594 28.985721 152.66993 C 30.318069 152.25372 31.557422 151.92211 32.593142 151.81641 C 34.052352 151.66751 35.078291 151.81841 37.173221 152.96876 C 39.268151 154.11883 42.105717 156.19843 46.020877 160.64649 C 49.936037 165.09456 54.975126 172.01189 59.964236 177.59376 C 64.953346 183.17562 69.804192 187.2981 74.567752 191.34962 C 75.362718 192.02602 76.555518 191.92983 77.231814 191.13477 C 77.908218 190.33981 77.812025 189.14701 77.016971 188.47071 C 72.253421 184.41918 67.576886 180.43814 62.782596 175.07423 C 57.988306 169.71033 52.989109 162.84098 48.858767 158.14844 C 44.728428 153.45591 41.51658 151.04243 38.99158 149.65626 C 36.46659 148.27009 34.30188 147.84126 32.21033 148.05469 C 30.694866 148.20934 29.204143 148.6251 27.753299 149.08985 C 27.729239 149.01555 27.705266 148.94158 27.682986 148.86915 C 27.290464 147.59343 27.182766 146.71648 27.456424 145.86133 C 27.902909 144.46611 30.105287 142.27526 32.499392 140.76954 C 32.639038 140.82854 32.785269 140.87049 32.934939 140.89454 C 35.181319 141.25686 37.288404 141.62878 38.800174 142.31055 C 40.311934 142.99232 41.728941 144.24516 43.854861 145.48633 C 45.980801 146.72751 48.267603 147.62102 50.618533 149.29298 C 52.969453 150.96495 55.598478 153.56194 60.608767 158.9043 C 65.619059 164.24667 72.97708 172.28056 80.33533 180.31641 C 81.0397 181.08661 82.235081 181.13995 83.005252 180.43555 C 83.774875 179.73062 83.827341 178.53527 83.122439 177.76563 C 75.764189 169.72978 68.405397 161.69324 63.364627 156.31837 C 58.323857 150.94351 55.569719 148.17759 52.809939 146.21485 C 50.050159 144.25211 47.500528 143.23932 45.759158 142.22266 C 44.017788 141.206 42.536848 139.85015 40.352908 138.86524 C 40.011082 138.71109 39.664266 138.57297 39.313846 138.44727 C 40.418716 138.3248 41.524018 138.29298 42.653689 138.29298 C 45.520925 138.29298 47.690254 138.36598 52.878299 141.58399 C 55.472326 143.193 58.801331 145.63864 61.934939 147.94727 C 69.933014 152.81408 72.660209 155.1859 78.538455 162.18751 C 80.684575 164.4131 83.002136 165.89912 84.901736 167.52735 C 86.801326 169.15558 88.562805 171.11946 90.374392 173.14844 C 91.069662 173.92658 92.264047 173.99391 93.042361 173.29883 C 93.820499 172.60356 93.887825 171.40918 93.192752 170.63087 C 91.381162 168.60189 89.519131 166.50828 87.360721 164.65821 C 85.202301 162.80813 83.026118 161.39686 81.259158 159.56446 C 79.492198 157.73206 77.969193 155.28558 77.405642 153.33008 C 76.842062 151.37459 77.066358 149.56228 77.358767 147.40235 C 77.374128 147.28649 77.378709 147.16945 77.372439 147.05274 C 77.891473 146.11206 78.55989 145.38843 79.251346 145.14258 C 79.884153 144.91759 80.771214 144.89691 82.153689 145.43555 C 83.536164 145.97419 85.335582 147.08719 87.477908 148.91602 C 91.762563 152.57366 97.449077 159.11159 101.41931 164.69141 C 105.38956 170.27123 107.75341 174.9998 110.52674 179.88087 C 113.30008 184.76194 116.69341 190.02364 124.66736 194.92188 C 132.6413 199.82013 144.91208 204.38792 157.12439 209.83985 C 169.3367 215.29179 181.71316 221.70685 196.5072 226.04493 C 211.30127 230.38301 228.26013 232.57654 240.71424 234.54298 C 253.16836 236.50942 261.40714 238.29589 271.51111 238.1836 C 281.61507 238.07132 293.26903 236.09245 299.96424 234.22657 C 303.31185 233.29364 305.43978 232.3778 306.97205 231.39454 C 308.09627 230.67312 308.87419 229.90416 309.4701 229.22266 C 310.50632 229.56342 311.56005 229.89888 312.6322 230.23048 C 322.64835 233.32825 334.23427 236.02527 346.10095 236.75391 C 357.96765 237.48254 370.05415 236.2318 382.12635 232.69337 C 392.73804 229.58302 403.37915 224.73964 411.12049 218.07227 C 413.18984 219.83592 416.03845 221.80283 422.24353 223.56446 C 429.35765 225.58418 441.02434 227.56546 451.1283 227.67774 C 461.23227 227.79003 469.47105 226.00356 481.92517 224.03712 C 494.37928 222.07068 511.33817 219.87715 526.1322 215.53907 C 540.92629 211.20099 553.30271 204.78593 565.51502 199.33399 C 577.72733 193.88206 589.99811 189.31427 597.97205 184.41602 C 605.946 179.51778 609.33933 174.25608 612.11267 169.37501 C 614.886 164.49394 617.24985 159.76537 621.2201 154.18555 C 625.19034 148.60573 630.87685 142.0678 635.1615 138.41016 C 639.44615 134.75251 642.18548 134.12726 643.55408 134.50391 C 644.92266 134.88055 646.06425 136.58654 646.62244 138.44532 C 646.73447 138.81837 646.78703 139.24297 646.89392 139.70118 C 647.14611 141.62664 647.29045 143.2967 646.77478 145.08594 C 646.21123 147.04144 644.68823 149.48792 642.92127 151.32032 C 641.15431 153.15272 638.97813 154.56399 636.8197 156.41407 C 634.66129 158.26414 632.79926 160.35775 630.98767 162.38673 C 630.2926 163.16504 630.35992 164.35942 631.13806 165.05469 C 631.91637 165.74977 633.11076 165.68244 633.80603 164.9043 C 635.61762 162.87532 637.3791 160.91144 639.27869 159.28321 C 641.17829 157.65498 643.49585 156.16896 645.64197 153.94337 C 647.78809 151.71777 649.59686 148.94605 650.4076 146.13282 C 650.74346 144.96738 650.8797 143.85437 650.90174 142.79688 C 651.78632 142.6852 652.61544 142.34107 653.60877 141.81446 C 655.6882 140.71204 658.44987 138.7368 661.42127 136.62501 C 664.39267 134.51322 667.53014 132.28033 669.99158 130.81251 C 674.91444 127.87692 677.11848 127.78712 679.98572 127.78712 z M 389.33533 140.03712 C 384.59411 139.92421 380.21083 141.55473 376.35095 144.64258 C 374.42104 146.18651 372.57044 148.07049 371.42713 150.15626 C 370.85548 151.19914 370.44189 152.31722 370.43689 153.54493 C 370.43189 154.77264 370.96061 156.10156 371.95838 157.01954 C 373.95393 158.8555 376.8715 159.34919 380.29236 159.8379 C 383.71321 160.3266 387.6214 160.58033 391.17322 160.88477 C 394.72503 161.18921 398.01227 161.55665 400.78064 161.55665 C 403.549 161.55665 406.08492 161.37509 407.6576 159.33985 C 409.23031 157.30463 408.71963 154.74 407.75525 152.40235 C 406.79097 150.0647 405.16288 147.71046 403.18299 145.78712 C 399.2232 141.94043 394.07655 140.15002 389.33533 140.03712 z M 308.13416 140.13477 C 303.39294 140.24767 298.24629 142.03808 294.2865 145.88477 C 292.30661 147.80811 290.67852 150.16236 289.71424 152.50001 C 288.74996 154.83766 288.23928 157.40229 289.81189 159.43751 C 291.38457 161.47275 293.92049 161.6543 296.68885 161.6543 C 299.45722 161.6543 302.74446 161.28687 306.29627 160.98243 C 309.84809 160.67799 313.75628 160.42425 317.17713 159.93555 C 320.59799 159.44684 323.51556 158.95315 325.51111 157.11719 C 326.50888 156.19921 327.03764 154.87029 327.0326 153.64258 C 327.0276 152.41487 326.61401 151.29679 326.04236 150.25391 C 324.89905 148.16814 323.04845 146.28417 321.11853 144.74024 C 317.25869 141.65239 312.87538 140.02186 308.13416 140.13477 z M 383.94275 144.62305 A 8.4139013 9.1661901 0 0 0 381.80799 150.72266 A 8.4139013 9.1661901 0 0 0 383.64197 156.43751 C 382.66546 156.33557 381.72073 156.22331 380.82752 156.09571 C 377.6278 155.6386 375.07762 154.7541 374.51697 154.23829 C 374.23668 153.98037 374.21519 153.88895 374.21619 153.56055 C 374.21719 153.23216 374.36744 152.65718 374.74158 151.97462 C 375.48988 150.60949 377.06343 148.91478 378.71228 147.59571 C 380.41451 146.23393 382.14166 145.24704 383.94275 144.62305 z M 315.26697 145.44727 C 316.45188 146.02835 317.60969 146.77535 318.7572 147.69337 C 320.40605 149.01244 321.97961 150.70714 322.72791 152.07227 C 323.10205 152.75483 323.25195 153.32982 323.2533 153.65821 C 323.2543 153.98661 323.2328 154.07802 322.95252 154.33594 C 322.39187 154.85175 319.84169 155.73626 316.64197 156.19337 C 315.98579 156.28711 315.30105 156.37208 314.59705 156.45118 A 8.4139013 9.1661901 0 0 0 316.64002 150.46485 A 8.4139013 9.1661901 0 0 0 315.26697 145.44727 z M 301.04041 145.69727 A 8.4139013 9.1661901 0 0 0 299.81189 150.46485 A 8.4139013 9.1661901 0 0 0 302.82752 157.4961 C 300.48366 157.70441 298.38136 157.87501 296.68885 157.87501 C 294.26803 157.87501 292.96964 157.34122 292.80408 157.12696 C 292.6385 156.91269 292.48557 155.6937 293.20838 153.94141 C 293.9312 152.18912 295.32045 150.14891 296.91931 148.59571 C 298.1616 147.38891 299.56409 146.42777 301.04041 145.69727 z M 397.54041 146.20118 C 398.60899 146.83428 399.62391 147.59825 400.55017 148.49805 C 402.14903 150.05125 403.53829 152.09147 404.26111 153.84376 C 404.98392 155.59605 404.83099 156.81503 404.66541 157.0293 C 404.49985 157.24356 403.20146 157.77735 400.78064 157.77735 C 399.39212 157.77735 397.72742 157.66215 395.88025 157.50587 A 8.4139013 9.1661901 0 0 0 398.63611 150.72266 A 8.4139013 9.1661901 0 0 0 397.54041 146.20118 z M 260.15955 148.1504 C 259.15373 148.1792 258.18463 148.45818 257.3158 149.19337 C 255.57818 150.66372 255.52932 152.82287 255.65955 154.99024 C 255.78977 157.15762 256.28288 159.589 256.82752 162.00587 C 257.37217 164.42274 257.98692 166.88163 258.7572 169.03126 C 259.52749 171.18089 260.36099 173.05298 261.89588 174.33204 C 263.43077 175.61109 265.4544 175.68565 267.04822 175.25001 C 268.64204 174.81437 270.06546 173.99901 271.40955 173.25977 A 1.89 1.89 0 0 0 272.15564 170.69337 A 1.89 1.89 0 0 0 269.58728 169.94727 C 268.2432 170.68651 266.97845 171.35032 266.05213 171.60352 C 265.12581 171.85671 264.79706 171.82879 264.3158 171.42774 C 263.83454 171.02671 262.9904 169.63846 262.3158 167.75587 C 261.6412 165.87328 261.04566 163.52851 260.51502 161.17383 C 259.98439 158.81915 259.53798 156.51093 259.43299 154.76368 C 259.32801 153.01644 259.74753 152.08633 259.7572 152.07813 C 259.7672 152.07013 260.6521 151.84484 262.2826 152.26368 C 263.9131 152.68252 266.02463 153.5287 268.17517 154.40235 A 1.89 1.89 0 0 0 270.63806 153.36329 A 1.89 1.89 0 0 0 269.59705 150.9004 C 267.44651 150.02674 265.25613 149.12553 263.224 148.60352 C 262.20793 148.34251 261.16536 148.12159 260.15955 148.1504 z M 339.79431 172.34376 C 339.20751 172.36976 338.66616 172.66714 338.32947 173.14844 C 337.73038 174.00374 337.93855 175.18282 338.79431 175.78126 C 340.83929 177.21275 342.94346 178.69281 345.23767 179.89454 C 347.53187 181.09626 350.37194 182.17278 353.49549 181.26173 C 356.61902 180.35068 359.29989 177.92527 361.95838 175.67579 C 362.75523 175.0012 362.85406 173.80825 362.17908 173.01173 C 361.50523 172.21555 360.31372 172.11589 359.51697 172.78907 C 356.85849 175.03856 354.22139 177.11233 352.43689 177.63282 C 350.65241 178.15331 348.9919 177.59472 346.99158 176.54688 C 344.99127 175.4991 343.00727 174.11509 340.96228 172.6836 C 340.62105 172.44469 340.21045 172.32522 339.79431 172.34376 z M 348.68299 191.19923 C 346.8678 191.18623 344.93079 191.31955 342.72986 191.69532 C 340.52893 192.07109 338.09694 192.67288 335.95642 193.32032 C 333.81589 193.96776 332.05841 194.58788 330.84314 195.30274 C 330.23551 195.66017 329.42935 196.01921 329.25525 197.35743 C 329.16825 198.02654 329.467 198.72262 329.77478 199.0918 C 330.08257 199.46099 330.37379 199.64103 330.64392 199.79298 C 331.72444 200.40078 332.85537 200.63709 334.30799 201.0879 C 337.21321 201.98952 341.37155 203.45471 345.46619 204.20899 C 349.56084 204.96328 353.58478 204.98524 357.43299 203.74024 C 361.28121 202.49525 364.67469 200.12258 366.67517 198.82227 C 367.6754 198.17212 368.35513 197.76758 368.89588 197.37891 C 369.16625 197.18458 369.42083 197.11801 369.80994 196.44923 C 370.00449 196.11484 370.21983 195.38418 369.96033 194.70704 C 369.70084 194.02989 369.22122 193.74373 368.9447 193.60548 C 368.39171 193.32897 368.13706 193.34179 367.81385 193.29883 C 367.49063 193.25583 367.14754 193.22793 366.74353 193.19532 C 365.93553 193.13012 364.89807 193.05457 363.61267 192.90626 C 361.04186 192.60963 357.34494 191.99649 353.90955 191.58008 C 352.19186 191.37187 350.49818 191.21225 348.68299 191.19923 z M 348.6615 194.97071 C 350.27166 194.98321 351.7979 195.13124 353.45447 195.33204 C 356.7197 195.72782 360.30605 196.32198 363.03845 196.64258 C 361.07164 197.90694 358.72828 199.34887 356.26892 200.14454 C 353.1641 201.14903 349.82814 201.16942 346.15174 200.49219 C 342.51322 199.82193 338.54688 198.45017 335.5326 197.51173 C 336.13733 197.29401 336.3426 197.15152 337.05017 196.93751 C 339.05075 196.33239 341.37526 195.75991 343.36658 195.41993 C 345.35791 195.07995 347.05135 194.95817 348.6615 194.97071 z M 347.71424 210.27735 C 342.03677 210.38446 335.82577 211.64411 329.6908 212.8711 C 328.66787 213.07582 328.00433 214.0707 328.20838 215.09376 C 328.4131 216.11668 329.40798 216.78023 330.43103 216.57618 C 336.566 215.34919 342.62543 214.15402 347.7865 214.05665 C 352.94758 213.95925 357.47169 214.93454 362.17517 215.95704 C 363.19507 216.17873 364.20156 215.53163 364.42322 214.51173 C 364.64491 213.49183 363.99781 212.48534 362.97791 212.26368 C 358.27443 211.24118 353.3917 210.17024 347.71424 210.27735 z M 415.16541 353.18751 C 429.78282 353.39054 442.99369 354.84415 451.23963 357.39649 C 459.48558 359.94884 462.57356 363.10596 464.18299 369.25977 C 465.79243 375.4136 465.45056 384.77864 465.45056 393.93555 C 465.45056 398.51401 465.55107 402.99368 465.53845 406.55665 C 465.53247 408.33813 465.49705 409.89297 465.4115 411.08399 C 465.4065 411.15109 465.39952 411.13999 465.39392 411.20508 C 464.25677 409.74569 462.74377 407.56505 460.61267 404.99805 C 455.98304 399.42148 448.73614 392.52917 438.54431 392.86524 C 428.3525 393.20131 416.39156 400.4398 399.04431 413.16798 C 381.69707 425.89615 358.97037 444.32276 339.99158 461.66016 C 321.01278 478.99757 305.82165 495.21551 292.6947 510.4961 C 279.56777 525.77669 268.47685 540.14974 259.92517 553.3379 C 252.64618 564.56335 247.22166 574.91036 243.27674 584.25782 C 242.90603 584.54514 242.65541 584.96005 242.57361 585.42188 C 242.54081 585.60828 242.53624 585.79856 242.55994 585.98633 C 242.13545 587.0268 241.72915 588.0537 241.34119 589.06837 C 237.30092 599.63526 235.20996 608.79987 234.47595 616.66407 C 234.10897 620.59617 234.08412 624.15781 234.02088 626.7754 C 234.01088 627.19042 233.9836 627.38983 233.9701 627.75391 C 232.59195 625.49765 230.62597 621.75295 228.02478 616.60157 C 222.8224 606.29881 215.08321 590.26682 212.9447 580.8379 C 211.87547 576.12343 212.1464 573.18027 213.22205 570.67774 C 214.29769 568.17521 216.33899 565.96328 219.17517 563.17774 C 224.84754 557.60667 233.0206 550.24869 241.20056 542.88673 C 241.97709 542.18848 242.04008 540.99276 241.34119 540.2168 C 240.64313 539.44156 239.44891 539.37861 238.67322 540.07618 C 231.02123 546.96296 223.36312 553.8538 217.67517 559.36133 C 221.26348 543.57602 225.33236 528.06952 234.46033 513.45313 C 244.60683 497.20581 261.23821 481.74515 284.52674 461.62305 C 307.81527 441.50096 337.67376 416.76155 357.80213 402.42774 C 377.93051 388.09393 388.26388 384.14468 398.89783 380.05469 C 399.87173 379.68023 400.35785 378.58733 399.98377 377.61329 C 399.60932 376.63833 398.51501 376.15197 397.54041 376.52735 C 386.90647 380.61733 375.97141 384.84899 355.60877 399.34962 C 335.24614 413.85025 305.39387 438.59898 282.05603 458.76368 C 270.06623 469.12328 259.77332 478.28437 251.16736 487.03516 C 245.72569 478.07573 240.46605 469.22393 237.74353 461.72852 C 234.86788 453.81153 234.68035 447.26528 235.64783 440.48438 C 236.59855 433.82091 238.70322 427.00593 240.86267 420.10352 C 262.52736 408.5626 284.17805 397.03482 305.41736 386.2129 C 326.8689 375.28283 347.87098 365.1033 366.25135 359.54883 C 384.63173 353.99435 400.54801 352.98448 415.16541 353.18751 z M 371.08142 354.26954 C 369.13359 354.77343 367.15965 355.32468 365.1576 355.92969 C 346.31885 361.62269 325.19422 371.89223 303.70056 382.84376 C 283.18914 393.2948 262.31636 404.39465 241.43494 415.51758 C 241.08518 406.699 240.99621 398.19635 243.42713 391.94532 C 246.04925 385.20264 251.53115 380.5207 265.69861 374.29102 C 279.86607 368.06133 302.34107 360.57233 324.14197 357.09376 C 339.95341 354.57087 355.52626 354.13198 371.08142 354.26954 z M 438.66931 396.64258 C 447.08712 396.365 453.33796 402.15012 457.70642 407.41212 C 459.89065 410.04311 461.52774 412.46091 462.86658 414.11719 C 463.51308 414.91698 463.97827 415.56677 464.92908 416.06837 C 469.82565 420.89011 474.35517 425.63392 475.93299 430.42579 C 477.59615 435.47684 476.31903 441.54348 474.77674 451.41407 C 473.23446 461.28466 471.58671 474.65474 471.38025 488.58985 C 471.27702 495.55741 471.53416 502.6125 471.6615 508.64844 C 471.78883 514.68439 471.745 519.78276 471.21424 522.39258 C 470.94885 523.69748 470.54569 524.28847 470.43299 524.38673 C 470.3203 524.48503 470.41879 524.52531 469.83924 524.35548 C 468.68022 524.01551 466.00329 522.0917 462.66931 519.11133 C 456.00135 513.15058 446.10825 503.26197 432.71814 492.75587 C 419.32803 482.24976 402.46086 471.0989 386.36463 465.83008 C 371.99787 461.12737 358.53458 461.2527 345.38416 461.8711 C 363.63845 445.41229 384.92239 428.21789 401.27869 416.2168 C 418.49222 403.58674 430.25148 396.92015 438.66931 396.64258 z M 362.83728 465.49024 C 370.15106 465.84626 377.54845 466.92093 385.18885 469.42188 C 400.52064 474.44048 417.19115 485.37554 430.38611 495.72852 C 434.24676 498.75765 437.81239 501.73509 441.0951 504.58399 C 434.1444 506.47383 426.63496 508.49452 413.224 511.92383 C 398.37489 515.72088 376.1974 521.26405 351.94275 530.51368 C 327.6881 539.76331 301.47409 552.6693 275.29822 565.55274 C 274.36211 566.0135 273.97654 567.14573 274.43689 568.08204 C 274.89768 569.01927 276.03134 569.40503 276.96814 568.94337 C 303.14401 556.05993 329.28093 543.20032 353.28845 534.04493 C 377.296 524.88954 399.29099 519.38797 414.15955 515.58594 C 429.0281 511.78392 436.67832 509.70258 444.30994 507.62501 C 444.36944 507.60901 444.42808 507.59007 444.48572 507.56837 C 450.84674 513.23713 456.02855 518.24557 460.14978 521.92969 C 463.5643 524.98206 466.10144 527.1977 468.77674 527.98243 C 469.32448 528.14309 469.9273 528.21346 470.52674 528.17188 C 470.09918 531.49069 469.66961 534.78905 469.22595 538.0254 C 466.7342 541.44725 464.3389 544.61136 460.65369 547.00782 C 456.82845 549.49533 451.26438 551.32444 441.68299 553.97462 C 432.10161 556.62479 418.58703 560.10658 401.89783 564.81641 C 382.71601 569.30789 364.52657 575.63685 346.0365 580.13477 C 326.67605 584.82205 307.76496 588.26778 291.04822 588.68751 C 275.30127 589.08289 261.33922 586.80796 247.35095 584.34766 C 251.14937 575.58272 256.28798 565.89332 263.09705 555.39258 C 271.5189 542.40463 282.51274 528.14904 295.56189 512.95899 C 308.25122 498.18781 322.85703 482.561 340.98963 465.87305 C 348.29365 465.49658 355.52351 465.13422 362.83728 465.49024 z M 468.15955 545.47462 C 467.66263 548.78519 467.14421 551.99071 466.5951 555.04493 C 464.87861 564.59219 462.82412 572.79232 461.7826 581.22852 C 460.74108 589.66473 460.74631 598.10172 460.4408 607.36915 C 460.13528 616.63657 459.51881 626.99433 460.64783 646.90626 C 461.32453 658.84095 462.62183 674.198 463.61853 689.0254 C 455.75014 681.71039 447.90843 674.3263 439.99549 665.76173 C 431.36403 656.41945 422.5674 645.58016 409.35681 630.42383 C 396.84456 616.06868 380.40504 597.87963 363.75916 579.49024 C 377.58349 575.77401 391.06987 571.7988 402.92517 568.45313 C 419.56957 563.75594 433.04916 560.28403 442.6908 557.61719 C 452.33243 554.95036 458.21722 553.10016 462.71424 550.17579 C 464.8708 548.7734 466.62835 547.16432 468.15955 545.47462 z M 359.65174 580.58399 C 376.74068 599.46177 393.7095 618.22332 406.50916 632.90821 C 419.67912 648.01793 428.46898 658.85438 437.2201 668.32618 C 445.97123 677.79797 454.60184 685.81166 463.1908 693.78712 C 463.40854 693.98917 463.67084 694.13705 463.95642 694.21876 C 464.45972 702.29062 464.83824 710.06032 464.93885 716.86719 C 465.19864 734.44534 463.62454 745.64552 462.32556 754.05274 C 462.11516 753.62965 461.88467 753.19074 461.6322 752.73438 C 458.8528 747.71007 453.46907 740.28688 444.21033 729.89649 C 434.95158 719.50611 421.78742 706.13939 403.09705 690.8379 C 384.40667 675.53641 360.19715 658.30176 332.98963 643.00391 C 305.78211 627.70606 275.67012 614.39596 245.60877 601.10352 C 244.65467 600.68155 243.53912 601.11252 243.11658 602.06641 C 242.69355 603.02156 243.12558 604.13875 244.08142 604.56055 C 274.14277 617.85299 304.15287 631.12598 331.13806 646.29883 C 358.12326 661.47167 382.17383 678.5926 400.70252 693.76173 C 419.23123 708.93085 432.24179 722.14796 441.38806 732.41212 C 450.53433 742.67628 455.78603 749.97728 458.32361 754.56446 C 460.86119 759.15164 460.74549 760.70364 460.74549 762.95313 C 460.74514 763.23197 460.80649 763.50744 460.92517 763.75977 C 460.2026 769.88376 460.02008 775.30894 460.33924 784.08594 C 460.75072 795.40161 461.97137 812.32049 461.5658 828.03712 C 461.16022 843.75374 459.11267 858.47274 459.00916 872.85743 C 458.94906 881.21513 459.5231 889.29812 459.41736 896.9336 C 458.41803 895.04099 457.12554 892.93124 452.96033 881.43165 C 448.27753 868.50308 440.09236 843.94367 433.02478 824.27735 C 425.9572 804.61103 420.00915 789.84089 414.6576 778.31446 C 409.30605 766.78803 404.57378 758.55802 399.16931 748.4629 C 393.76485 738.36778 387.63578 726.29968 382.53845 718.18555 C 377.44115 710.07143 373.1249 705.77422 362.57166 699.56641 C 352.01843 693.35861 334.90533 684.89716 315.11463 680.23438 C 295.32393 675.57161 273.13606 674.76722 251.05017 673.94923 C 250.00705 673.91033 249.12991 674.72445 249.09119 675.76758 C 249.05219 676.81071 249.86641 677.68785 250.90955 677.72657 C 257.80794 677.98206 264.69675 678.23891 271.49549 678.60938 C 273.93745 691.28827 278.71831 742.03565 292.3158 788.13087 C 302.59411 822.97417 317.97796 855.98754 330.1947 878.67579 C 342.41147 901.36404 351.48727 913.7513 357.87244 923.78516 C 364.25761 933.81903 368.22094 941.94031 376.87244 951.88673 C 385.36903 961.65505 398.20514 973.00523 411.09314 984.37696 C 405.94235 988.8497 397.84802 991.10524 389.48963 990.82032 C 380.87648 990.52672 371.95969 987.5627 364.67127 982.9336 C 357.38286 978.3045 351.56157 971.88501 346.56189 967.73633 C 344.06205 965.66198 341.76883 964.16233 339.38025 963.3711 C 337.27275 962.67299 335.08896 962.59337 332.92908 963.15626 C 325.60158 948.89592 318.29666 934.63974 311.3822 919.92188 C 304.24338 904.72636 297.53247 889.06049 292.56189 872.83008 C 287.59131 856.59966 284.28926 839.49759 275.14588 817.49024 C 266.0025 795.48289 251.10771 768.7619 236.23572 742.06446 C 236.10466 741.82931 235.92486 741.62488 235.70838 741.46485 C 233.4195 723.5657 231.47664 704.89281 231.11072 691.27344 C 230.62495 673.1935 232.86968 663.96376 234.32361 655.2793 C 235.6817 647.16735 236.28412 639.89168 236.83338 632.72852 C 237.13283 632.35909 237.25009 631.99203 237.35095 631.66602 C 237.48946 631.21843 237.56008 630.7834 237.61658 630.30274 C 237.72957 629.34143 237.76788 628.20408 237.80017 626.86719 C 237.86477 624.19343 237.89087 620.75231 238.23963 617.01563 C 238.93713 609.54229 240.93721 600.71016 244.87244 590.41798 C 245.18727 589.59457 245.51498 588.76183 245.85486 587.91993 C 260.14753 590.44094 274.65395 592.88084 291.14392 592.4668 C 308.30632 592.03589 327.43041 588.52839 346.92517 583.8086 C 351.16198 582.78285 355.41712 581.69962 359.65174 580.58399 z M 275.5697 678.84766 C 284.80507 679.42233 293.84343 680.25169 302.48181 681.62305 C 302.50041 681.75298 302.53252 681.88062 302.57752 682.00391 C 315.05196 716.35974 327.5257 750.71719 336.95447 774.28907 C 346.38323 797.86094 352.76513 810.62651 359.92127 825.04102 C 367.07742 839.45554 375.04249 855.59358 381.2533 869.7461 C 387.46411 883.89862 392.01584 896.32975 401.03064 909.18751 C 409.98733 921.96238 423.15375 934.91151 436.28455 947.82423 C 431.06311 953.9017 426.68469 958.6833 423.27869 964.44727 C 419.75455 970.41116 417.45152 976.90357 413.69666 981.63282 C 400.77623 970.23161 387.95364 958.86768 379.724 949.40626 C 371.36632 939.79763 367.55828 931.96756 361.05994 921.75587 C 354.5616 911.54417 345.64161 899.39104 333.52283 876.88477 C 321.40406 854.37841 306.11268 821.54502 295.9408 787.06251 C 285.78179 752.62368 280.67571 716.36229 275.5697 680.00782 L 275.5697 678.84766 z M 306.72205 682.34571 C 309.27118 682.81289 311.78172 683.33314 314.24744 683.91407 C 333.51638 688.45392 350.34991 696.76202 360.65564 702.82423 C 370.96137 708.88644 374.41599 712.36024 379.33924 720.19727 C 384.26249 728.03431 390.4032 740.09566 395.83728 750.2461 C 401.27136 760.39654 405.94734 768.52851 411.22986 779.90626 C 416.51238 791.28401 422.42513 805.95868 429.46814 825.55665 C 436.51115 845.15461 444.68342 869.67593 449.4076 882.71876 C 454.13179 895.76159 455.53542 897.56364 456.38416 899.30274 C 457.23292 901.04185 457.93755 903.49922 458.64588 906.03321 C 458.68478 906.17386 458.73988 906.30953 458.80994 906.43751 C 458.53766 908.56876 458.15776 910.65331 457.63611 912.68946 C 454.59328 924.56649 446.6058 935.43449 439.80994 943.6504 C 439.44973 944.08588 439.09302 944.51436 438.73963 944.93555 C 425.67674 932.08844 412.72515 919.28479 404.12439 907.01758 C 395.4246 894.60912 390.97796 882.49965 384.71424 868.22657 C 378.45053 853.95349 370.46498 837.78149 363.30603 823.36133 C 356.14708 808.94116 349.84952 796.34987 340.46424 772.88673 C 331.22748 749.79486 318.99831 716.1551 306.72205 682.34571 z M 236.99549 751.19923 C 250.46444 775.42197 263.47528 799.25002 271.65564 818.93946 C 280.6563 840.60331 283.89861 857.44777 288.94861 873.93751 C 293.99861 890.42724 300.78409 906.25418 307.96033 921.5293 C 314.85879 936.21315 322.12793 950.40636 329.40174 964.56251 C 325.50758 966.53821 321.78064 969.54801 318.0326 970.6504 C 313.43882 972.00154 308.50187 970.99435 304.22791 966.90626 C 299.95397 962.81817 296.26469 955.20844 294.2826 949.36133 C 292.30052 943.51421 291.97701 939.05717 289.07947 935.31446 C 286.18191 931.57174 281.49818 929.5761 273.36267 925.10157 C 265.22716 920.62704 253.66252 913.65282 249.05994 905.19923 C 244.45736 896.74565 246.09502 885.76535 248.1322 875.17188 C 250.16942 864.57841 252.46428 854.65441 252.35877 844.73438 C 252.25327 834.81435 249.75454 825.3099 247.0033 811.85938 C 244.25205 798.40886 241.19013 780.85715 238.02478 758.59766 C 237.68119 756.18145 237.3377 753.70936 236.99549 751.19923 z " />
  </g>
</svg>
