<?xml version="1.0" standalone="no"?>
<!DOCTYPE svg PUBLIC "-//W3C//DTD SVG 1.1//EN" "http://www.w3.org/Graphics/SVG/1.1/DTD/svg11.dtd" >
<svg xmlns="http://www.w3.org/2000/svg" xmlns:xlink="http://www.w3.org/1999/xlink" version="1.1" viewBox="-10 0 1010 1000">
   <path fill="currentColor"
d="M485 776q-47 25 -94 44v54q123 -10 207 -22l7 72q-166 31 -410 44l-17 -79q74 -4 109 -7v-26q-108 33 -223 43l-27 -80q144 -13 251 -43h-238v-76h237v-24h-167v-62h167v-24h-202v-64h202v-31q-61 11 -117 17l-16 -33h-103v-139h384v-24h-306v-142h306v-23h-382v-75h382
v-38h114v38h398v75h-398v23h322v142h-322v24h400v139h-106l-24 47h98v64h-219v24h184v62h-184v24h252v76h-71l32 25q-53 28 -126 47q67 22 173 41l-33 77q-151 -26 -247.5 -71.5t-157.5 -118.5h-35zM240 234v26h195v-26h-195zM760 260v-26h-211v26h211zM161 444
q115 -15 207 -41h-207v41zM393 484v42h197v-42h90q-73 -19 -138 -33l31 -48h-152l36 44q-43 21 -116 37h52zM837 403h-201q99 20 201 52v-52zM698 526h118q-55 -19 -118 -37v37zM590 590h-197v24h197v-24zM590 676h-197v24h197v-24zM770 776h-124q20 17 38 27q47 -12 86 -27
z" />
</svg>
