<?xml version="1.0" encoding="UTF-8" standalone="no"?>
<svg xmlns:rdf="http://www.w3.org/1999/02/22-rdf-syntax-ns#" xmlns="http://www.w3.org/2000/svg" height="561.97mm" width="420.86mm" version="1.1" xmlns:cc="http://creativecommons.org/ns#" xmlns:dc="http://purl.org/dc/elements/1.1/" viewBox="0 0 1491.25 1991.2499">
<g transform="translate(2059.9 1003.3)">
<g transform="matrix(1.25 0 0 1.25 -4059.9 -1003.3)">
<path d="m2971.4 644.75c-0.9292-0.0108-1.857-0.007-2.7812 0.01-24.148-0.28394-47.695 6.8168-70.248 14.953-24.801 9.5022-48.44 24.903-62.539 47.947 23.727 14.799 53.159 11.528 79.164 18.135-13.957 16.74-33.037 32.251-55.725 32.836 13.403 13.546 34.427 12.74 49.23 23.871 0.1264 14.929-16.228 22.419-29.068 23.227-4.21 0.46716-8.4513 0.20931-12.66-0.12109 20.445 22.002 52.515 27.059 81.135 24.697 3.111 0.71734 10.708-3.3742 9.4375 2.125-3.4598 9.8452-16.171 11.952-25.117 13.516-47.533 6.3132-94.168-19.966-122.23-57.252-8.2549 3.4002-2.982 14.373-6.2851 20.66-34.933 47.769-100.17 67.319-156.76 54.791-17.468-3.9212-34.29-11.082-48.807-21.662 41.78 9.739 86.803 13.994 128.05-0.40821-25.956-6.6294-55.179 4.0681-79.062-10.488-2.0315-1.4852-9.8599-7.0034-3.9121-5.6543 31.226 3.1838 62.447-1.9988 93.326-6.0762-31.585-20.435-70.936-16.327-106.18-24.07-2.8514-1.4625-1.4612-5.0444 1.7089-3.9922 32.81-3.3968 64.947-16.478 98.266-11.826-9.4547-12.633-27.335-10.496-41.203-10.98-3.0947 0.15078-7.8922 0.37301-3.9375-2.7578 10.353-8.8017 25.277-7.0048 36.709-13.771-19.111-7.9712-40.326-3.746-60.137-5.3594-4.1652-1.8934-0.2291-4.5175 2.9531-4.1406 25.616-6.7656 53.039-10.915 78.834-3.2656-7.966-17.291-28.136-22.332-43.875-29.543 14.453-4.1812 29.542-3.6885 44.547-4.7422-4.2431-6.7457-14.103-7.603-19.562-10.156 10.356-3.6011 21.406-3.8051 32.178-5.0801-25.85-23.842-62.331-28.643-95.9-31.582-24.156-2.8055-49.01-5.9743-72.934 0.4375-33.275 7.5226-65.014 30.554-75.189 64.137-0.5569 8.1895 7.7745 13.919 10.445 21.156 30.761 52.034 57.357 106.4 82.6 161.3 7.146 13.897 15.682 18.58 26.574 31.277 3.2276 10.375 9.722 19.148 17.584 26.426 86.333 101.49 164.45 209.55 246.74 314.25 18.773-44.222 17.179-93.705 13.192-140.62-9.0342-56.53 12.428-111.66 29.697-164.54 5.6208-16.701 9.3937-33.976 17.441-49.748 10.377-24.739 17.193-51.774 14.336-78.746 26.783-18.169 55.893-39.138 65.771-71.592 13.868-45.653-7.9145-97.767-46.754-124-5.9705-2.6891-12.55-3.5085-19.055-3.584zm-223.19 47.777c-3.7537 0.88786-11.022-1.2671-12.357 3.6328 3.3841 6.8213 12.384 8.7164 17.395 14.246 3.0172 2.6448 1.0073 2.3194-1.7188 0.99219-14.087-4.9654-29.843-5.5658-44.029-0.62305 16.284 7.2086 34.401 15.839 41.627 33.27-22.563-8.3793-48.126-8.8735-70.916-1.1289 18.349 4.8965 40.097-0.0814 55.375 13.223 3.3593 3.3343-7.3316 0.84586-9.2968 1.7129-10.226-0.10075-21.024 0.80412-29.701 6.8066 18.098 1.886 36.606 7.2799 50.732 19.283-34.128-3.6282-69.353-0.0625-101.73 11.369 33.5 4.5939 70.095 3.9976 98.924 24.336 3.5996 2.1662 5.4918 4.111-0.059 3.7461-30.782 3.3792-61.602 6.4225-92.553 6.6289-2.3119 0.97144 5.1364 3.1593 7.3438 3.8555 26.453 7.8417 54.238 1.391 81.227 3.9219 1.9273 4.53-5.4695 3.4278-7.6387 5.4668-37.896 14.198-79.282 11.339-118.31 4.2969-4.6137 0.87668 6.1476 4.8795 8.9786 6.2402 59.702 25.051 136.02 9.4134 177.36-41.506 5.1857-7.7782 5.2714-17.631 6.7773-26.463-11.377-30.601-16.359-66.416-41.814-89.406-3.7655-4.3058-10.407-3.6241-15.608-3.9004zm85.398 17.297-0.6738 0.88477c-13.754 17.99-20.794 39.904-30.106 60.242-0.3293 7.4509 6.7511 12.501 10.197 18.455 27.24 33.71 69.549 59.31 114.13 55.043 8.8889-1.3488 19.028-2.3273 26.113-8.3691 2.6264-3.0302 2.1748-6.9442-2.7559-4.4043-31.715 4.9161-66.615-3.2591-89.137-27.236-2.8581-1.961-3.2072-4.618 1.4121-3.0762 13.477 0.63946 31.054 0.98651 39.076-12.061 2.2921-3.0208 2.0468-5.9637-1.834-7.0879-13.577-7.4157-32.086-8.1023-41.182-22.023-0.6335-1.8273-4.0907-6.9843 0-6.123 17.926-1.2472 35.428-10.757 45.426-25.824-23.472-6.4985-49.385-5.2241-70.672-18.42zm-230.87 199.08c8.424 10.346 16.81 20.724 25.176 31.117-1.4096-5.6331-2.4767-11.406-6.3555-15.814-2.0222-8.9581-11.45-11.44-18.82-15.303zm-108.75 128.28c-0.5016 0.015-0.2155 1.8722-0.1465 3.2207 9.3411 34.144 19.499 68.171 33.205 100.85 16.425-2.5669 33.173-0.2279 49.744-1.8066-30.348-30.876-58.975-63.877-81.537-100.93-0.648-0.9742-1.0376-1.3468-1.2656-1.3398zm71.877 103.97c-0.5524 0.01-1.1036 0.022-1.6543 0.047-9.6201 0.9849-19.165 0.3356-28.773 0.5878-4.9752-0.1651-8.7666 5.4769-5.1289 9.5274 2.668 6.6909 9.611 2.0878 14.775 1.9258 14.42-2.2754 28.988-2.9704 43.514-4.1016-6.0418-6.0058-14.446-8.0794-22.732-7.9863zm-28.963 18.078 0.018 1.25v0.1113c0.1384 4.5821-1.7905 10.537 5.0117 8.6894 28.915 1.3481 57.186 7.8583 84.51 17.1-8.9673-9.5839-18.525-19.126-29.484-26.27-20.017-0.7008-40.119 0.751-60.057-0.8789zm-3.2207 12.432c-3.433 1.5338-7.272 3.9974-7.4921 8.1817 57.998 10.112 107.04 46.855 148.19 87.285 29.182 28.664 56.996 59.228 85.652 88.076-2.1953 5.0695-7.8096-1.2693-9.9161-3.2148-60.524-51.667-112.87-115.32-185.34-151.21-13.855-6.6283-28.171-12.51-42.744-17.264-5.4514-1.483-10.723 2.2431-12.522 7.291 83.144 24.54 151.66 84.684 198.93 156.08 23.89 35.684 42.725 74.62 57.438 114.82 6.7573 5.8722 14.646 10.206 22.207 14.92 10.136-29.039 26.994-55.152 43.066-81.025-0.5696-13.894 2.1688-28.123-1.4942-41.77-31.666 6.8372-62.846-10.575-84.445-32.57-14.723-14.683-25.315-33.095-41.742-46.188-18.917-16.81-40.154-30.817-58.682-48.086 10.058 1.3084 20.226 0.5182 30.299-0.1738-13.083-9.4775-23.495-23.908-40.195-27.322-33.026-11.378-66.504-23.346-101.21-27.834zm-28.742 21.488c-5.0514 3.4877-9.7993 7.3874-14.818 10.92 11.972 7.9149 23.878 16.819 34.383 26.602 3.0235 6.0803-3.729 10.804-9.3476 9.3438-17.538-0.7904-31.194-17.155-49.027-15.568-48.173 41.451-91.683 88.548-128.45 140.4-24.198 37.172-39.671 81.953-34.107 126.71 2.8869 36.074 15.535 70.963 32.668 102.54 83.404 95.273 206.69 151.33 332.06 161.44-22.197-38.98-62.12-66.828-74.951-111.1-2.7144-9.9752-3.4156-20.393-2.0645-30.611 90.316-14.761 164.85-76.267 254.79-91.949-6.3835-40.096-12.99-80.23-14.598-120.84-16.426 23.698-31.409 48.8-40.547 76.291 6.1264 11.743 21.578 8.8484 32.369 9.9278 4.3661 0.4365 9.1779 1.7046 11.846 5.4902-113.08 12.671-225.55 30.965-336.65 55.604-2.54-7.7471 8.3789-10.398 13.514-12.516 49.905-16.742 101.74-27.2 153.61-35.844 37.362-6.2237 75.024-10.106 112.62-14.359-32.014-11.693-63.869-24.023-93.174-41.684-87.145 16.736-174.96 34.296-261.24 52.824 2.2297-5.1169 11.611-4.9817 16.381-8.2324 41.283-16.739 83.061-32.404 124.09-49.715-53.112-3.5157-105.75 10.115-155.51 27.518-14.433 4.7629-28.558 11.281-42.844 15.836-5.0123-1.4111 2.0913-4.4436 3.0078-6.3789 38.398-36.495 92.57-50.755 144.02-55.81 49.594-4.8961 99.589-2.3203 149 3.2363-21.076-16.084-46.968-23.403-70.643-34.52-0.7421-5.5784 7.3797 0.059 10.088-0.7305 27.234 4.5941 53.624 12.276 79.434 21.973-25.061-28.924-64.02-38.182-98.355-51.23-12.535-4.7224-24.933-10.03-36.332-17.123 2.6763-0.9817 5.3612-1.7558 8.0508-2.3613-2.6188 0.9228-4.3241 3.9769-1.0176 5.711 40.05 16.286 82.988 27.221 119.09 51.797 6.2075 4.5487 11.988 10.571 13.768 18.287-24.48-9.6462-49.463-19.845-75.766-22.73 19.348 13.49 43.446 18.694 61.852 33.713-62.443-7.2868-126.12-9.7881-188.4 0.2109-36.408 6.0769-72.47 18.725-102.03 41.141-2.7903 0.7728-7.8676 7.56-2.5645 7.6114 60.13-23.68 123.87-41.026 188.78-40.33 3.4847-3.5665 9.2753 4.8925 2.3086 4.5449-37.051 15.478-75.422 28.211-111.53 45.713-0.8902 3.8689 13.697-1.5597 18.891-1.8555 69.399-13.85 138.69-28.303 208.2-41.535 32.034 20.114 67.85 33.912 103.99 44.092 0.7181 4.7722-8.4558 1.1067-11.305 2.8554-79.525 6.9228-158.86 19.49-235.98 39.896-14.261 4.2429-30.42 6.4257-41.566 17.293 81.301-17.445 163.02-33.25 245.47-44.24 25.65-3.5033 51.367-6.5866 77.123-9.3164-6.9782-9.0867-20.755 0.3413-28.338-7.7187-27.043-19.682-56.568-35.852-87.373-48.824 6.3944-14.052-4.0551-28.391-14.318-37.232-22.435-20.129-49.17-35.233-76.914-46.787-19.033-7.5633-39.306-12.147-59.822-12.449-0.4387-0.1119-0.8847-0.1396-1.3242-0.1074 27.767-5.6923 55.99 7.3921 80.682 19.559 21.596 10.231 42.521 22.609 60.369 38.623 10.432 9.6079 17.62 23.869 15.039 38.307 17.192 6.2067 33.428 14.686 49.617 23.094-33.73-99.012-100.96-188.14-191.92-241.09-19.911-11.221-41.625-21.513-64.293-24.32zm-17.43 13.104-0.625 0.8555c-3.8508 5.6021-14.432 6.7483-14.662 14.617 4.6605 2.7016 12.266 3.358 17.654 6.5898 9.6843 3.8718 20.418 12.522 31.293 8.1582 4.4814-4.1878-2.5742-8.9615-5.9179-10.916-8.8978-6.8872-17.476-14.472-27.742-19.305zm186.72 22.5c-6.9055 1.5031-14.138 1.1557-21.191 2.0606 27.784 24.875 61.359 44.28 82.26 76.008 19.335 22.249 44.2 44.504 75.131 46.295 6.3853 0.3006 12.788-0.4971 18.963-2.1211-4.8785-12.092-18.351-17.11-27.424-25.369-42.002-30.912-82.855-63.383-123.69-95.775-1.235-0.6835-2.6289-1.141-4.0528-1.0977zm-397.9 364.22c-0.7242 0-1.4496 0.01-2.1777 0.025-10.952 0.6739-21.968 5.0703-29.482 13.232 14.868 17.277 40.388 13.983 60.059 18.281 6.9314 12.052-3.0535 24.716-12.328 31.936-11.102 8.8941-23.478 18.016-38.482 17.23-15.593 0.3512-29.769-6.358-45.375-6.3926-39.552-3.9329-79.966-6.4194-119.24 1.0801-33.692 9.0376-58.601 35.665-81.94 59.943-3.601 8.2998 6.4119 14.979 13.709 15.451 29.677 7.3554 60.447 9.8779 89.383 20.029-2.7881-22.248 14.802-40.728 33.119-50.137 12.188-7.2849 26.13-9.8421 40.158-10.252 79.11-7.3195 158.49-13.5 236.76-27.57-31.158-23.993-61.965-48.808-88.863-77.57-3.9775 6.1361 3.8757 10.987 7.6152 14.619-19.905-9.2489-40.47-19.827-62.92-19.906z" transform="scale(.8)" fill="#131313"/>
<path d="m2748.2 693.77c-2.4774 0.0437-4.9544 0.23514-7.3965 0.48828-14.562 1.425 18.538 13.277 15.738 20.477-14.162-6.3375-31.063-8.1254-45.463-3.7129 16.275 7.2375 34.326 17.011 40.139 35.174-21.875-8.8875-46.1-9.6625-68.775-3.5 15.95 2.75 44.425 0.30078 54.725 15.863-11.15 1.4875-27.126-1.4746-38.676 5.3379 17.988 2.225 36.863 8.5496 50.613 21.787-33.6-4.7125-70.463-0.39961-101.46 9.2129 35.075 3.45 74.75 4.7367 102.25 29.012-32.4 3.075-65.461 7.6133-97.549 6.9883 27.812 10.562 58.175 2.7871 87.062 5.7246 0.6125 1.8375 1.4609 4.9633-1.4141 5.1133-39.238 16.862-83.35 15.025-124.47 7 59.125 29.825 139.86 16.036 183.2-35.701 6.1125-7.45 5.8246-17.763 7.7246-26.775-11.662-30.988-16.401-68.349-43.988-91.074-3.9922-1.1484-8.125-1.4869-12.254-1.4141zm85.717 17.689c-13.262 17.062-19.788 38.088-29 57.4-3.625 6.1 4.1129 11.224 6.2754 16.199 29.112 38.138 78.062 67.262 127.35 56.287 4.675-1.975 14.112-2.9746 15.1-8.9121-31.612 5.425-66.988-1.1121-90.213-24.475-1.925-1.7375-9.7363-7.9375-3.3613-8 14.325 0.8 36.474 2.0004 42.361-14.912-14.925-9.6875-45.05-10.688-47.062-32.15 17.988 0.1875 37.151-9.8129 46.826-23.9-21.9-5.825-47.663-5.0871-68.275-17.537zm-4.7 202.23c-7.175 19.9-19.413 37.238-30.65 54.875 22.025-7.55 35.213-32.712 30.65-54.875zm-213.34 11.455c3.3938 4.1938 6.7913 8.3848 10.176 12.586-1.0943-4.7566-2.292-9.3356-5.6074-12.328-1.5271-0.0292-3.0489-0.12467-4.5684-0.25781zm-50.324 217.28c-7.2108 0.011-14.67 1.0879-21.258 0.7129-9.725-1.4-20.074 0.7887-10.174 10.889 16.812-3.775 34.174-4.6246 51.199-5.9121-5.5937-4.6438-12.557-5.7004-19.768-5.6895zm-27.406 18.139c0.05 2.425 0.062 4.8496-0.1133 7.2871 28.688 1.025 57.288 6.7621 84.426 16.037-7.825-8.0875-16.362-16.012-25.562-22.537-19.562-0.7-39.2 0.7129-58.75-0.7871zm-3.9375 12.213c-2.575 1.2375-6.1008 3.0742-6.5508 6.0742 101.02 18.95 164.23 108.56 233.49 175.2 1.0625 4.7-5.3004 5.7117-7.6504 2.4492-69.7-58.462-128.9-134.89-217.3-166.5-8.325-2.75-19.45-10.824-24.9 0.051 124.88 37.838 212.86 151.46 255.36 270.7 6.225 5.4375 13.675 9.6242 20.75 14.012 10.212-28.312 26.275-53.962 42.463-79.137-0.475-12.975 1.8992-28.901-1.1758-40.363-40.012 7.65-75.849-20.111-99.199-49.799-23.15-33.275-59.901-52.625-88.514-80.338 10.075 1.9 20.45 1.3746 30.65 0.6621-11.012-8.1625-19.712-20.361-33.562-23.861-33.925-11.85-68.249-23.913-103.86-29.15zm-46.338 35.062c-3.1625 4.7375-15.738 8.6871-14.4 13.85 12.7 1.95 23.301 9.2504 35.051 13.838 4.05 0.7375 16.086 2.8988 11.986-4.5137-10.888-7.6-20.799-17.436-32.637-23.174zm70.129 132.48c-3.1735-0.1369-7.5938 0.8828-4.3672 3.4531 33.975 13.388 69.112 24.125 101.66 40.9 12.712 7.7 30.064 15.912 32.389 32.375-23.862-9.8375-48.276-18.9-73.863-23.463 19.8 11.488 44.925 18.586 62.312 34.174-53.525-6.775-107.76-9.0246-161.55-4.4121-46.588 4.5875-94.575 15.913-132.12 45.301-0.925-1.1875-7.5762 7.0613-2.8887 4.7988 59.762-23.275 122.96-40.937 187.64-39.85 4.35-3.1375 8.0496 1.425 7.7246 5-37.95 15.738-78.401 29.914-114.76 46.639 75.275-14.912 150.45-30.713 225.85-45.051 31.925 19.925 67.274 34.112 103.61 43.85 2.05 0.2875 1.2996 3.1387 1.5996 4.6387-81.975 6.2375-163.56 19.248-243.32 39.273-14.112 4.8625-31.338 6.7125-43.051 15.875 104.21-23.262 209.71-41.437 315.9-52.699-4.6125-4.8625-19.3 1.3258-25.312-5.0117-27.6-20.225-57.975-36.827-89.312-49.914 9.6875-20.188-12.662-36.299-25.938-47.674-35.525-24.962-76.7-47.001-120.94-48.076-0.3766-0.066-0.8043-0.1074-1.2578-0.1269zm-457.77 372.99c-4.5205 0.07-9.6207 1.2289-13.186 1.0039-7.3875-0.3875-16.787 7.3246-10.162 14.725 11.175 10.125 26.875-2.4125 31.85-12.75-1.8211-2.4281-4.9859-3.0328-8.5019-2.9785z" transform="scale(.8)" fill="#6b6b6b"/>
</g>
<path d="m-1417.2-999.53c-26.746 1.0655-53.12 6.7019-79.108 12.826-46.632 11.541-91.563 30.542-131.39 57.518-35.842 19.891-61.739 53.802-79.594 90.039 5.4262 6.8678 15.606 3.7345 20.67-1.9219 7.1039-8.0471 11.473-18.142 18.615-26.279 18.763-23.794 41.767-44.239 67.363-60.299 4.3609-1.6025 0.5351 5.4042-1.7578 5.0586-29.217 18.186-56.369 43.43-68.756 76.385 9.1819 5.8062 20.823 1.6639 27.629-5.8125 13.212-13.294 19.434-31.655 33.043-44.686 13.273-14.078 28.778-26.385 44.385-37.957 1.218-0.46451 5.3763-2.9973 5.2423-0.16797-23.174 18.166-49.985 35.816-61.205 64.363-2.8103 5.7766 1.6998 13.004 8.1893 12.625 6.278 0.45814 11.172-4.4167 13.406-9.8379 25.198-38.68 65.415-63.24 103.05-88.324 57.334-13.533 120.71-10.735 172.8 18.682 29.519 16.611 53.642 41.197 73.328 68.5 11.954 15.756 22.599 32.695 34.781 48.164 31.446 13.934 60.454 32.839 87.559 53.9 26.586-3.136 55.843 1.4342 79.795-13.184 4.1214-2.1653 10.41-6.3466 14.207-5.0039-28.472 17.942-63.143 17.172-95.535 19.006-21.883 62.234-53.133 121.11-91.975 174.41 11.997 10.287 30.572 12.155 38.725 26.908 21.479 32.325 6.0647 81.926-29.48 97.076-4.0792 1.0833-7.0035 2.4972-3.5644 6.4824 12.813 24.22 36.145 40.087 57.117 56.637 60.753-86.059 118.73-175.97 153.18-276.2 18.483-54.686 29.159-113.13 23.48-170.86-10.659-18.658-32.79-25.845-52.004-31.959-112.33-36.812-224.87-73.073-337.2-109.85-14.629-4.0945-29.807-6.3832-45.014-6.2441zm-88.809 178.86-0.7051 0.70898-0.5429 0.54297c-12.055 11.454-13.531 31.709-29.443 39.361-8.5493 1.5166-11.025 10.86-12.85 18.012-1.0536 4.303-4.9264 6.9907-8.7891 8.2383-18.433 22.43-31.547 50.034-34.064 79.148 8.0764 41.836 25.976 83.297 57.223 113.04 35.792 32.738 85.949 46.203 133.69 43.668 37.11-25.859 77.594-50.995 101.25-90.896 8.1064-11.821 10.832-26.159 11.43-40.227 0.6903-10.065 1.9382-20.327 6.1445-29.715 0.1915-3.3667 3.4395-9.0102 5.2617-13.07 3.0536-6.1319 6.2048-12.231 8.6504-18.641-15.266-6.0501-33.243-6.9489-47.871 1.3574-4.4191 1.5278-11.491 4.2052-14.676-0.44336 20.575-7.827 44.317-11.385 65.342-3.207 4.1824-6.709 11.331-11.948 12.25-20.34-23.66 3.035-47.61 0.118-71.289-1.7363-16.006-2.1069-35.712-6.1267-43.434-22.301-0.6442-4.3784-3.334-4.5812-6.9941-3.5196-33.005 4.7731-64.659-10.952-90.783-29.623-13.66-9.596-26.598-20.158-39.799-30.363zm-80.369 186.83-0.6972 6.9414c-1.2753 32.898-3.0164 67.378-19.008 96.973-3.7242 4.1296-6.6257 10.803-2.0234 15.543 13.208 22.601 28.079 45.781 50.84 59.785 1.4793 3.2183-3.0227 2.8718-4.2892 0.90626-27.125-17.428-42.179-47.556-59.164-74.061-35.012-28.699-88.444-29.872-126.26-5.9922-29.913 20.149-51.334 51.924-61.096 86.416-11.185 61.61 5.855 125.34 36.291 179.04 12.534 22.273 27.421 43.194 44.094 62.555 0.2435-0.2063 0.4921-0.40593 0.7364-0.61133 4.473 11.909 14.452 20.923 20.648 31.936 48.291 69.345 100.27 136.19 146.26 207.1 34.621 63.6 90.714 111.31 143.63 159.2 59.006 51.654 122.63 97.648 183.92 146.46 3.0899 2.8818 7.3233 9.5098 11.76 4.8926 13.276-7.2145 29.13-7.1159 43.619-4.2579 2.0174 0.46237 9.2769 3.3595 3.8574 2.0509-16.496-2.9855-36.073-3.5482-49.447 8.0918-3.0676 7.0632-0.3775 15.262-1.4628 22.723 0.11 86.679 16.088 173.24 45.562 254.67 1.8557 4.5581 6.0278 9.7541 11.025 10.385-6.5992-0.29337-13.002-6.7665-13.918-13.318-13.264-32.664-18.467-68.093-28.768-101.59-1.1593-1.0774-2.8118-1.3972-4.3476-1.3164-88.092 15.151-160.77 75.384-248.73 90.754-5.2833 2.2876-2.843 9.452-3.5312 13.91 1.613 29.996 23.618 53.218 40.387 76.23 12.606 16.278 25.33 32.696 39.596 47.474 33.799 10.537 69.557 11.548 104.29 17.057 102.21 12.208 206.88 18.388 303.97 55.154 17.32 6.92 34.103 15.302 49.551 25.848-44.717-28.295-97.245-40.286-148.39-51.084-99.844-19.469-201.71-25.053-302.08-40.803-78.984-7.373-158.38-26.154-227.31-66.694-9.1279-4.914-17.998-10.925-27.373-15.047-88.682 17.486-179.48 20.004-268.77 33.16-21.188 7.4626-42.263 24.767-44.098 48.57-0.4271 6.6949 5.2124 11.592 11.309 12.926 28.538 10.592 59.112 13.918 89.053 18.356 38.563 4.6901 77.166 9.8666 116.03 10.678 123.71 5.3739 244.67 36.689 361.52 76.272 44.356 14.611 87.979 31.428 132.16 46.471 59.714 15.739 120.86 24.987 181.25 37.637 93.516 17.898 188.67 31.33 284.12 26.816 17.295 0.1965 35.776-2.2688 49.188-14.283 32.16-23.358 58.938-59.476 59.592-100.57 1.3214-42.872-22.924-81.591-51.272-111.79-33.351-34.305-72.126-62.813-111.21-90.184-42.515-29.205-86.818-55.674-131.27-81.793-2.4236 1.0482-5.1912 1.6456-8.1779 1.914-5.0942-17.209-22.846-25.662-35.381-36.865-46.316-36.874-80.622-88.134-98.268-144.57-14.142-40.408-29.842-81.231-57.004-114.92-42.565-56.374-86.539-111.67-129.54-167.72-57.172-73.724-114.58-147.28-173.51-219.61-26.594-60.45-55.546-120.23-91.332-175.8-1.1661-1.1379-2.5727-2.0368-4.0957-2.625-11.867-23.6-26.864-48.229-23.898-75.523 0.571-6.3593 1.1875-3.7934 1.5899 1.2148 3.7251 25.397 10.731 51.814 27.803 71.664-2.8253-19.108-6.6513-40.1 2.6952-58.109 0.9159 0.76145 0.2756 6.0806-0.029 8.4668-1.768 12.471-7.883 25.595-2.5039 38.037 16.017-27.968 42.626-50.689 74.482-57.611 37.62-8.8734 76.667-0.17313 114.71 3.8144 45.714 7.3367 84.468 43.55 97.348 87.793 4.6281-15.29 3.716-32.39-4.6055-46.268-12.001-20.725-31.594-35.495-49.199-51.035-12.504-9.4776-29.769-14.183-37.17-29.127 28.561 16.449 53.982 38.297 76.922 61.939 13.56 15.527 20.369 37.185 16.326 57.586 0.6855 5.3901-4.7647 13.071 0.916 17.189 4.7657 3.018 4.8425-5.0559 6.9688-8.0527 14.515-33.034 35.714-65.514 68.936-82.131 31.847-15.694 66.689-27.741 102.52-26.221 1.206-1.128-7.9786-4.9499-11.199-6.9062-36.359-18.437-77.751-30.911-105.41-62.518 0.9513 15.289-6.718 30.794-20.34 38.188-22.668 12.807-54.646 10.583-72.814-8.9883-11.007-11.329-8.9548-28.722-4.2969-42.256 4.5174-14.418 11.459-29.015 9.6446-44.529-13.656-8.4308-30.526-2.8487-43.186 4.7285-11.919 6.6233-23.382 17.406-38.111 15.004-22.068-3.1963-38.59-22.471-45.154-42.85-2.6111-6.5248-10.708-3.6963-15.996-4.5723-20.052-1.2589-39.604-6.9157-59.311-11.359 4.7975 24.902 25.157 42.165 42.947 58.383 2.0028 2.9135 6.8962 4.5508 7.543 8.1387-42.4-3.5748-84.961-8.7882-125.86-21.066-0.5445-4.4513 5.372 2.0079 7.8965 0.74219 35.076 8.3271 70.732 14.643 106.76 16.721-6.844-17.401-26.735-24.963-34.098-41.986-7.7705-7.3722-4.4258-22.172-15.25-27.096-36.102-14.007-62.459-45.601-79.764-79.33-3.7158-7.0144-6.5152-14.463-10.238-21.471zm359.48 169.86-0.8653 0.5-0.2676 0.1543c-11.846 6.7088-26.258 15.673-27.262 30.752-0.6558 10.669 9.1478 19.536 19.588 19.27 14.319 0.37048 30.74-7.1334 35.256-21.633-10.763-7.8176-15.381-21.466-26.449-29.043zm146.05 907.06 6.2675 2.0761c-5.7961 3.9196 0.7264 10.663 2.9044 14.629 26.714 48.257 67.142 87.348 110.5 120.71 27.132 19.995 57.462 34.998 85.547 53.545 59.694 37.704 118.76 77.998 167.78 129.22 26.558 29.146 47.197 66.558 46.455 106.89-0.4325 4.7041 3.8879 9.3729 8.6875 6.9649 29.948-6.2445 53.404-29.396 66.686-56.113 11.74-21.794 16.187-48.314 7.4706-71.963-6.6112-20.785-21.677-37.242-37.553-51.557-126.57-122.86-286.78-210.34-457.88-252.51l-6.9395-1.8789zm-6.3985 58.238c28.333 25.607 47.358 62.671 83.072 79.549 1.1501 0.52137 2.3156 1.0075 3.4864 1.4785-3.9482-0.99713-7.6535-1.9375-10.746-2.5645-5.4442 0.69075 4.9486 13.481 9.9471 15.129 7.0216 4.3231 22.51 14.078 12.074 22.746-11.948 8.2876-25.874-0.78875-35.609-8.1425-9.6716-6.6298-20.5-15.374-31.602-24.91 13.925 11.344 28.496 21.901 43.416 31.742 7.7893 4.1385 20.45 6.5348 26.039-2.0762 2.5625-5.7078-2.9185-10.416-7.4219-12.66-33.148-24.998-61.737-55.549-86.215-88.936-2.2705-3.1365-6.5807-8.9395-6.4415-11.356zm-46.717 1.0372c4.7755 0.43325 5.5522 7.4839 8.8301 10.33 11.74 16.621 25.1 31.956 39.6 46.168-12.327-11.242-24.059-22.098-33.947-30.727-2.757-0.53337-1.7547 3.4115 0.5918 8.295-5.8502-11.046-11.061-22.36-15.074-34.066zm-34.274 14.15c7.8099 8.7068 13.809 19.648 20.705 29.309 20.799 31.14 39.36 64.023 62.635 93.418 1.1987 1.0945 2.5841 1.8459 4.0566 2.3009-4.2644-0.85-8.1791-3.1165-10.272-6.7384-10.023-13.579-18.229-28.432-27.852-42.314-12.67-19.897-26.733-43.123-41.195-61.787-5.8533 15.7 3.8245 35.192 3.0742 51.086 1.2023 17.66 3.0375 36.792-4.3633 53.373-0.551 0.375-1.1131 0.68062-1.6836 0.93175 7.1027-8.474 3.1455-20.448 5.1289-30.463 1.6092-30.07-6.5497-59.851-10.234-89.115zm52.426 25.6c2.7921 4.715 5.9573 9.1122 7.6035 10.383 12.946 24.89 31.999 46.884 42.652 72.764-6.9955-14.444-16.728-27.542-24.928-41.33-8.5988-13.681-17.432-27.536-25.328-41.816zm51.775 87.006c0.3572 0.959 0.703 1.922 1.0352 2.8926-1.0293 5.5474-5.5218 8.7033-10.713 9.625 5.7647-1.443 10.703-6.318 9.6777-12.518z" fill="#f8ceb8"/>
<path d="m-1435.4-1003.3c-82.6 10.862-163.15 41.025-227.95 94.062-19.1 19.538-36.486 41.538-47.211 66.812-4.325 10.45 9.9621 11.975 16.85 10.688-6.275 13.725-15.125 26.988-14.938 42.75-2.9375 35.175 22.449 63.85 45.486 87.037 2.8875 22.725-1.2988 45.962-9.1113 67.35 5.2375 9.125 13.149 16.352 21.387 22.727 6.4375-10.55 10.813-22.088 15.025-33.625 20.612 5.3 24.162 31.537 42.162 41.137-0.025 23.4-4.8254 47.251-15.088 68.363-2.4125 7.7625-11.748 1.4238-16.086-0.95117-44.15-28.688-107.66-22.45-144.74 15.213-26.45 26.7-46.525 62.375-46.713 100.79-4.625 80.262 33.35 156.46 82.963 217.16l153.94 216.43c13.8 50.925 28.113 102.15 50.588 150.04-61.388 45.162-119.86 95.289-167.54 155.08-31.362 36.788-59.525 79.238-65.4 128.38-8.0375 47.075 8.2254 92.849 25.275 135.89-26.688-3.0125-53.563-0.93788-80.275 0.16212-10.288 3.2125-23.451 10.087-25.488 21.537 22.55 17.7 53.112 16.675 80.062 21.463 6.2 1.075 2.9875 8.8632 1 12.613-13.8 17.312-36.111 33.7-59.424 25.938-27.612-4.7375-50.162-26.312-79.375-23.225-62.625 1.3375-123.1 37.075-159.93 86.438v3.2618c9.55 22.412 41.512 16.399 60.75 23.262 32.112 4.3375 61.126 19.776 92.801 25.926 45.075 10.25 91.524 11.749 137.05 19.387 184.4-0.675 361.02 60.613 531.62 124.53 128.75 27.65 258.11 55.588 389.78 64.65h75.863c11.712-2.4875 23.986-1.7246 35.524-4.9746 37-21.55 69.251-56.8 76.238-100.31 50.075-5.925 85.512-53.562 91.625-101.38v-10.264c-2.6125-31-21.262-57.799-44.662-77.174-129.36-125.45-293.64-212.41-467.99-255.55-20.288-54.488-37.561-112.5-75.861-158.06 18.25-51.413 18.236-107.41 10.861-160.94-6.325-50.688 15.751-98.462 29.076-146.2 9.05-43.775 39.474-82.05 33.674-128.6 21.75-17.062 45.275-33.614 59.963-57.727 29.25-54.05-1.3996-126.11-55.037-151.38-23.962-15.388-52.388-21.936-76.125-37.549 87.675-127.4 179.95-267.8 178.72-428.68 6.275-26.812-19.45-43.913-41.15-51.463-103.89-34.262-208.09-67.548-312-101.77-22.962-6.55-45.1-16.363-69-19.238zm20.641 5.7344c19.403 0.15411 38.609 4.2379 56.871 10.979 112.42 36.912 225.08 73.024 337.49 110.01 13.575 5.425 28.45 12.676 35.687 26.051 8.3625 95.788-25.289 189.62-68.951 273.49-30.8 59.325-67.898 115.16-106.4 169.71-20.712-16.25-44.276-32.65-56.051-56.938 40.662-14.625 57.638-69.375 32.363-103.96-8.15-12.638-25.8-15.437-35.938-23.725 38.125-52.575 68.975-110.74 90.662-172.09 32.975-1.75 69.6-1.411 97.838-21.023-4.2125-5.575-12.951 0.29922-17.889 2.6992-23.625 15.112-52.774 10.412-79.262 13.5-27.038-20.962-56.026-39.788-87.326-53.65-27.038-36.75-51.038-77.85-89.375-104.44-54.625-40.825-128.51-46.399-193.16-30.949-38.675 25.75-80.599 51.375-105.67 91.85-3.4125 9.3-20.988 8.3367-16.051-4.4258 11.15-27.713 38.324-45.512 61.012-63.35 1.0875-8.275-9.7738-2.475-12.361 0.4375-21.825 16.95-44.539 34.675-58.389 59.1-7.6625 12.675-21.687 35.4-38.912 27.025 12.4-31.7 38.35-55 66.275-73.35 5.9625-0.7 9.2004-12.538-0.5371-8.4004-31.875 21.288-60.713 47.663-80.738 80.713-3.475 6.775-14.361 15.438-21.236 8.6875 17.85-35.85 43.937-69.55 79.787-88.775 56.6-38.638 123.32-59.237 190.82-67.975 6.4844-0.86875 12.974-1.2545 19.441-1.2031zm-43.99 95.803c6.6375 8.7875 20.125-3.2363 25.412 8.0137 6.9 0.975 9.8871 7.9363 15.162 12.611 12.338-0.2125 24.588 2.2875 34.812 8.8125 4.775-1.1 12.412-0.33633 12 6.2012-3.375 4.2375-9.9996 0.26172-12.975 6.1992-17.6 6.175-30.938-15.412-43.025-21.812-13.412 2.4-25.849-9.2129-31.387-20.025zm104.3 8.9512c1.723-0.23656 4.2695 7.9836 8.8105 8.25-0.5375 16.338 20.501 34.937 4.8633 49.6-18.675 8.6375-10.862-11.4-17.6-21.15 1.9125-12.138 3.1367-24.375 3.7617-36.65 0.054-0.0258 0.1085-0.0412 0.1641-0.0488zm-151.43 24.625c9.6375 15.925 27.487 21.911 42.225 34.924 20.612 4.8 27.849 34.976 53.674 33.701 7.575-0.2125 4.4883 11.487 9.6133 15.287-18.1-11.862-57.426-11.85-55.051-41.537-14.375-4.2125-29.1-11.164-42.975-17.701-8.2625-4.6375-21.049-19.061-7.4863-24.674zm185.46 10.111c13.138 1.25 26.65 3.5246 39.775 4.2246 11.238-9.65 29.163 12.913 20.676 22.926-8.65-4.2875-19.501-4.5004-24.826-13.713-12.112-0.3125-28.412-7.7125-35.625-13.438zm-217.86 12.457c5.2355-0.002 10.57 0.82422 11.906 4.543-13.462 5.525-28.526 9.5758-38.988 20.176-3.85 13.625 13.962 16.138 21.438 21.275-6.425 10.375-22.424 3.6742-30.699 10.574 0.5125 9.1 18.275 9.6004 15.275 19.963-15.612 5.8625-35.039 2.3988-48.389 13.299-4.9375 12.562 15.3 10.125 19.062 18.75-6.6125 9.225-19.612 10.639-29.625 14.139-5.3125 8.325 7.1891 15.012 8.0391 22.938-3.975 10.975-17.901 8.6363-26.451 4.5488-10.738-1.9625 3.1121 18.076-6.7129 18.389-3.275-9.35-11.273-23.288-10.586-30.963 10.025 11.788 29.536 1.3496 21.111-13.588-5.35-15.925 22.288-2.1613 21.375-12.361-8.85-6.4625-3.7871-21.738-16.537-23.713 1.5-8.95 15.762-9.9258 23.662-11.301 3.75-8.2375-10.125-7.2996-11.775-12.912 7.15-5.6 15.864-3.725 23.914-5 6.6375-4.3875-3.1504-7.9617-6.3379-10.574-2-10.675 17.438-0.83789 16.025-10.338-6.4375-6.8375-16.35-12.738-13.713-23.838 6.65-0.2 12.925 9.8 19.412 4.0625 4.375-12.562 17.962-17.288 30.162-17.613 2.1844-0.15469 5.2904-0.45355 8.4316-0.45508zm-83.271 12.295c2.6429-0.33171 0.063 4.5461-0.834 6.2852-16.112 30.863-28.563 65.538-50.088 92.363-12.6-19.25 4.5863-39.687 12.049-57.074-13.562 2.0125-30.549 3.3746-36.924-11.713 0.3875-7.9875 10.987-7.6512 16.85-6.8887 22.35 4.3 39.062-13.511 57.475-22.486 0.6109-0.28436 1.0951-0.43894 1.4727-0.48633zm115.71 15.285c38 29.412 81.462 68.089 134.38 58.727 7.7875 21.838 34.062 25.048 53.912 27.336 20.362 0.8 40.876 3.6887 61.201 1.1387-1.375 6.05-7.0762 10.375-10.389 15.588-19.925-7.7-46.825-4.0008-67.25 4.5742 2.725 9.0375 13.964 5.1125 20.289 2.5 13.175-7.25 28.574-6.0129 42.299-1.1504-3.9125 9.9625-9.9363 19.35-13.486 29.662l-1.0762 3.8887c-7.6375 19.425-1.8629 41.538-12.713 60-22.488 42.675-65.075 69.074-103.47 95.824-50.4 2.575-103.97-13.049-139.24-50.637-26.05-29.075-41.863-66.426-49.051-104.49 2.6375-28.112 15.688-55.85 33.65-77.5 14.5-3.575 6.2504-22.312 20.775-25.625 16.525-7.5 17.974-27.875 30.174-39.838zm297.2 7.1758c26.15 11.05 50.038 28.2 72.188 45.15-22.462 62.375-53.414 122.1-93.852 174.74-21.812-5.8125-46.35-17.149-53.912-40.424-2.3875-36.338 14.651-70.775 37.238-98.162 34.475-6.525 50.225-50.526 38.338-81.301zm-184.25 22.891c0.2471 0.003 0.5078 0.0145 0.7832 0.0353 7.0125 0.7375 13.538 5.1367 20.5 1.0117 2.9625 7.6625 10.511 8.1 17.549 6.25 7 5.5875 15.6 7.9129 23.838 2.4629 2.1875 7.6875 9.0754 12.899 15.713 6.7363 8.625 3.6 21.576 8.1762 31.176 6.6387 0.9375 7.9 9.6871 7.3875 14.412 2.9375 3.9125 9.1125 22.912-0.35001 20.725 10.5-10.438 0.39999-28.938 8.3496-32.676-3.6504-23.525 2.0875-51.736-3.8746-70.648-16.787-13.375 2.7875-26.289-2.65-39.164-5.5-4.2019-1.9254-9.8687-10.691-2.207-10.635zm-192.19 161.12c16.388 38.738 44.599 77.175 85.111 94.713 13.262 2.8 8.6383 19.851 17.488 27.639 6.5 15.638 25.875 24.662 32.162 38.287-36.425-2.3125-72.438-9.0246-107.88-17.6-6.6-4.4625-5.3367 1.0496-5.5117 3.8496 41.338 12.562 84.423 17.962 127.34 21.512 2.9375 0.7375 3.3008-3.4617 1.4258-4.8242-18.275-18-42.374-34.912-48.637-60.938 21.538 4.95 43.388 11.2 65.875 10.912 5.1625-0.4 5.4988 5.8996 7.2363 9.3496 9.85 24.575 39.037 48.238 65.912 33.5 16.612-10.075 38.35-27.063 58.088-16.15 2.5875 26.112-21.35 51.313-10.85 78.176 20.762 40.662 100.85 33.575 102.36-17.062 29.662 31.575 71.886 42.713 108.84 62.738-35.138-0.7375-69.824 12.587-101.3 28.225-33.888 19.025-54.851 53.7-69.201 88.713-5.8875-1.4 0.4125-12.239-0.9375-16.326 4.7875-23.425-5.075-47.799-22.062-63.986-23.138-22.55-48.249-43.988-76.762-59.338 5.1625 20.438 29.012 25.375 43.188 37.9 24.45 22.3 59.625 47.362 50.938 85.475-14.862-43.088-54.701-77.325-100.86-83.025-39.8-4.0875-81.298-13.363-120.4-0.55077-27.138 8.275-49.789 28.662-64.139 52.125-4.1875-13.038 8.4129-33.788 2.9004-47.125-11.025 15.325-10.275 38.838-6.3379 57.4-16.5-23.575-22.738-53.85-24.875-81.588-12.962 31.112 5.9129 63.188 19.713 90.312l6.9883 6.4512c32.412 55.775 63.349 112.87 87.799 172.57 99.348 121.05 212.79 271.44 301.14 383.85 33.325 41.612 51.749 92.425 67.137 142.81 23.575 47.925 39.238 75.675 78.963 111.21 13.65 15 39.887 25.476 46.687 43.863-55.275-0.3625-74.275-41.888-108.96-77.863-2.3125-4.1875-13.151-16.362-15.613-7.0625 31.762 43.913 55.25 72.65 99.313 104.31 6.6 1.5125 4.0258 10.762-1.1992 11.662-14.288 3.475-25.863-7.975-36.275-15.75-43.038-31.688-70.112-56.024-100.01-100.95-2.85-3.3625-9.3633-0.4125-6.4258 4.0625 17.712 43.425 39.487 72.174 63.725 112.07 2.725 5.2 10.138 12.189 4.9629 18.264-5.05 7.4125-16.837 4.45-20.412-2.875-27.775-41.888-48.4-75.088-76.088-117.03-2.3-5-10.149 0.475-6.5117 5.1875 7.4625 39.55 15.237 70.725 8.3867 111.1-0.05 4.7875-7.4617 4.1382-8.0742 0.30075-1.5875 1.975-5.6625-4.9125-6.6875-6.9375-23.025-70.3-36.738-128.22-42.338-202.19-1.975-15.975-1.4633-32.125-1.6133-48.162-0.05-7.3875 0.1379-14.713-0.8496-22.025 16.612-17.15 42.064-9.6258 62.576-5.9258-14.15-15.2-43.562-16.15-61.5-5.7871-5.325 6.675-7.2016-3.7746-10.414-6.0996-91.288-68.538-182.97-137.67-263.09-219.37-26.9-28.788-53.152-59.35-69.164-95.725-88.86-123.66-104.99-144.77-163.64-228-55.4-64.75-94.787-153.56-78.287-240.49 10.912-34.625 32.888-66.725 64.213-85.838 36.862-20.25 86.7-18.488 119.54 8.6621 17.062 27.15 32.512 57.538 60.662 75.025 5.2125 3.675 8.3383-2.6129 4.9258-5.4004-23.2-13.95-37.613-37.886-51.051-60.611-3.65-5.075 2.5496-9.7762 4.4746-14.139 14.75-29.425 16.726-63.188 17.889-95.5zm364.28 48.686c8.3054 0.21074-4.7074 12.757-1.4902 18.229 3.6125 13.987 27.262 8.886 31.062 21.461-14.712 4.725-33.5-3.736-46.188 6.664 2.6625 7.275 6.8125 13.887 10.125 20.887-14.588-13.162-38.076-15.712-53.639-3.0742 1.225 10.95 23.101 14.912 15.988 29.162-6.2125-9.4125-17.588-22.8-31.275-18.6-17.35 6.3625-34.638 18-54.088 13.188-12.425-5.45-26.462-11.575-35.75-20.438 20.475 2.025 44.238 13.662 62.363-1.4629 17.962-10.588 27.6-35.212 50.213-37.188 11.25-0.7625 19.812 8.6746 30.699 9.2871 0.1375-12.262-17.262-11.612-25.762-13.312-14.025 0.3875-22.589-10.837-27.889-22.225 21.375 12.712 52.426 13.95 72.326-2.2246 1.357-0.26367 2.4436-0.37532 3.3027-0.35351zm-6.2285 116.54c8.8875 6.25 14.588 19.886 24.238 27.336-5.975 19.25-47.725 29.413-50.537 3.1504-0.062-14.912 14.774-23.886 26.299-30.486zm24.025 35.199c-5.2 11.162-31.637 32.088-45.949 23.213 13.15-9.65 34.649-8.0754 45.949-23.213zm114.28 69.121c6.8953 0.0688 13.68 0.93477 19.93 4.041 37.85 27.175 59.238 78.664 44.188 124.08-10.538 31.388-39.35 51.549-65.213 69.199 3.6625 33.725-7.2746 65.476-21.537 95.301-17.7 65.8-51.5 131.22-39.4 201.06 3.3625 44.912 4.7383 93.888-12.699 135.49-72.578-92.763-236.43-305.75-289.69-370.59-27.762-60.387-57.238-120.19-92.051-176.87-2.375-4.5375 1.6625-9.4012 2.9375-13.764 21.175-45.075 75.35-62.573 122.06-56.211 39.238 4.5875 82.402 4.2238 114.1 31.549-10.7 1.175-22.188 1.5746-32.438 5.9746 5.2125 3.6 15.012 3.189 20.162 9.1016-14.25 0.8625-32.226 0.81134-45.051 5.6113 14.112 7.5875 35.714 11.562 44.576 27.85-27.15-7.275-55.112-1.9-81.625 5.3125-2.1375 2.6125 0.2746 4.425 2.5996 5.5625 18.875 1 38.399-2.5238 56.611 4.0137-10.862 5.625-32.149 4.7125-37.424 17.25 12.038 1.2625 36.836-2.2637 46.049 8.4863-32.825-3.675-64.224 9.2266-96.549 12.289-5.2875-0.3-3.3621 6.5742 0.8379 6.6992 33.575 7.0875 70.799 3.5621 101.24 21.725-31.3 4.1875-63.687 9.2883-95.387 4.8633 18.638 25.4 58.675 13.362 84.025 18.375-41.875 13.2-86.788 7.7867-128.69-2.4258 60.788 48.938 165.08 34.489 211.75-29.424 3.75-5.45-0.725-17.914 5.125-20.264 30.138 39.45 80.724 66.339 131.11 55.514 7.6375-2.6875 20.725-7.0637 17.438-17.639-30.475 3.525-64.812 1.7246-88.037-21.025 15.55 1.2875 39.899-4.8738 39.637-25.174-13.15-10.838-34.024-10.514-47.387-22.264 22.45-1.5375 41.612-18.312 54.85-34.574-26.138-7.2125-55.675-3.4992-79.625-17.824 24.038-37.875 71.013-52.525 113.03-60.5 6.6937-0.0813 13.7-0.81094 20.596-0.74219zm-223 47.777c4.1289-0.0729 8.2617 0.26562 12.254 1.4141 27.588 22.725 32.326 60.087 43.988 91.074-1.9 9.0125-1.6121 19.325-7.7246 26.775-43.338 51.738-124.08 65.526-183.2 35.701 41.125 8.025 85.237 9.8625 124.47-7 2.875-0.15 2.0266-3.2758 1.4141-5.1133-28.888-2.9375-59.25 4.8379-87.062-5.7246 32.088 0.625 65.149-3.9133 97.549-6.9883-27.5-24.275-67.175-25.562-102.25-29.012 31-9.6125 67.863-13.925 101.46-9.2129-13.75-13.238-32.626-19.562-50.613-21.787 11.55-6.8125 27.526-3.8504 38.676-5.3379-10.3-15.562-38.775-13.113-54.725-15.863 22.675-6.1625 46.9-5.3875 68.775 3.5-5.8125-18.162-23.864-27.936-40.139-35.174 14.4-4.4125 31.3-2.6246 45.463 3.7129 2.8-7.2-30.301-19.052-15.738-20.477 2.4422-0.25313 4.9192-0.44456 7.3965-0.48828zm85.717 17.689c20.612 12.45 46.375 11.712 68.275 17.537-9.675 14.088-28.839 24.088-46.826 23.9 2.0125 21.462 32.138 22.463 47.062 32.15-5.8875 16.912-28.036 15.712-42.361 14.912-6.375 0.0625 1.4363 6.2625 3.3613 8 23.225 23.362 58.6 29.9 90.213 24.475-0.9875 5.9375-10.425 6.9371-15.1 8.9121-49.288 10.975-98.237-18.15-127.35-56.287-2.1625-4.975-9.9004-10.099-6.2754-16.199 9.2125-19.313 15.738-40.338 29-57.4zm-338.8 328.65c21.288 35.962 49.675 68.175 78.975 98.312-15.375 1.2125-30.9-0.7875-46.188 1.5-13.512-32.338-23.55-66.05-32.787-99.812zm70.531 102.36c7.211-0.0112 14.174 1.0457 19.768 5.6895-17.025 1.2875-34.387 2.1371-51.199 5.9121-9.9-10.1 0.4488-12.289 10.174-10.889 6.5875 0.375 14.047-0.7019 21.258-0.7129zm-27.406 18.139c19.55 1.5 39.188 0.087 58.75 0.7871 9.2 6.525 17.738 14.45 25.562 22.537-27.138-9.275-55.738-15.012-84.426-16.037 0.175-2.4375 0.1633-4.8621 0.1132-7.2871zm-3.9375 12.213c35.612 5.2375 69.936 17.3 103.86 29.15 13.85 3.5 22.55 15.699 33.562 23.861-10.2 0.7125-20.575 1.2379-30.65-0.6621 28.612 27.712 65.364 47.063 88.514 80.338 23.35 29.688 59.187 57.449 99.199 49.799 3.075 11.462 0.7008 27.388 1.1758 40.363-16.188 25.175-32.25 50.824-42.463 79.137-7.075-4.3875-14.525-8.5742-20.75-14.012-42.5-119.24-130.49-232.86-255.36-270.7 5.45-10.875 16.575-2.8008 24.9-0.051 88.4 31.612 147.6 108.04 217.3 166.5 2.35 3.2625 8.7129 2.2509 7.6504-2.4491-69.262-66.638-132.46-156.25-233.49-175.2 0.45-3 3.9758-4.8367 6.5508-6.0742zm-28.576 21.387c31.088 5.275 59.413 21.176 85.525 38.389 78.25 53.587 136.83 134.15 167.74 223.44-15.012-7.8-30.114-15.551-46.039-21.363 4.3375-33.762-32.674-51.501-56.361-67.426-34.15-16.275-74.912-41.788-113.1-25.875 41.338 26.838 98.112 29.588 133.91 66.301-27.238-10.962-55.9-17.7-84.812-22.463-2.7-0.45-2.6254 2.5504-2.3379 4.4004 22.2 10.538 47.437 17.825 67.137 31.912-56.162-6.175-113.21-8.1246-169.25 0.33787-45.5 7.65-92.111 23.537-124.65 57.787-2.2625 1.95 2.0613 4.3871 3.8613 3.9121 61.225-24.762 126.63-46.361 192.86-43.961-45.8 18.25-91.688 36.286-137.44 54.648 0.225 1.2-0.9375 4.289 1.125 4.1015 86.588-19.2 173.9-36.139 261.01-53.039 27.925 16.588 58.288 29.2 89.025 39.838-86.562 8.2875-173.25 21.825-256.51 47.287-7.45 3.575-24.9 6.5754-19.588 17.4 111.96-24.875 225.45-43.313 339.49-56.025-8.0875-15.638-36.187-0.58675-44.949-16.574 8.675-25.888 22.713-49.963 38.113-72.363 1.725 38.462 8.1238 77.676 14.236 116.04-89.675 15.988-165.04 77.75-254.49 91.875-8.25 58.375 49.311 96.149 75.799 141.32-124.76-10.675-246.9-66.713-329.61-161.74-16.762-32.85-30.038-68.425-31.838-105.6-4.7-45.35 12.874-89.836 37.887-126.8 36.412-49.225 77.95-94.739 124.54-134.54 19.225-0.35 33.788 18.5 53.625 15.588 6.5125-1.0125 7.9258-10.362 2.4258-13.812-10.188-7.75-19.787-16.337-30.662-23.162 4.5-3.2125 8.7742-6.7129 13.324-9.8379zm-17.762 13.676c11.838 5.7375 21.749 15.574 32.637 23.174 4.1 7.4125-7.9363 5.2512-11.986 4.5137-11.75-4.5875-22.351-11.888-35.051-13.838-1.3375-5.1625 11.238-9.1121 14.4-13.85zm186.76 22.16c2.881 0.1413 5.257 2.5489 7.5351 4.1895 42.525 34.762 86.15 68.163 130.31 100.8 5.4125 4.525 12.363 8.25 15.15 15.125-37.362 9.35-70.65-19.414-93.025-46.014-19.938-30.312-52.012-48.661-78.562-72.299 5.15-0.475 10.35-0.7887 15.525-1.0762 1.0875-0.5687 2.1041-0.7736 3.0645-0.7266zm-116.63 110.32c0.4534 0.0187 0.8812 0.0612 1.2578 0.127 44.238 1.075 85.412 23.114 120.94 48.076 13.275 11.375 35.625 27.486 25.938 47.674 31.338 13.088 61.712 29.689 89.312 49.914 6.0125 6.3375 20.7 0.14925 25.312 5.0118-106.19 11.262-211.69 29.437-315.9 52.699 11.712-9.1625 28.938-11.012 43.051-15.875 79.762-20.025 161.35-33.036 243.32-39.274-0.3-1.5 0.4504-4.3511-1.5996-4.6386-36.338-9.7375-71.686-23.925-103.61-43.85-75.4 14.338-150.58 30.138-225.85 45.051 36.362-16.725 76.814-30.901 114.76-46.639 0.325-3.575-3.3746-8.1375-7.7246-5-64.675-1.0875-127.88 16.575-187.64 39.85-4.6875 2.2625 1.9637-5.9864 2.8887-4.7989 37.55-29.388 85.538-40.713 132.12-45.301 53.788-4.6125 108.02-2.3629 161.55 4.4121-17.388-15.588-42.512-22.686-62.312-34.174 25.588 4.5625 50.001 13.625 73.863 23.463-2.325-16.462-19.676-24.675-32.389-32.375-32.55-16.775-67.687-27.513-101.66-40.9-3.2266-2.5702 1.1936-3.59 4.3672-3.4531zm425.88 109.52c169.1 42.012 327.93 127.68 454 248.5 26.862 21.462 49.762 53.762 45.35 89.824-6.775 41.738-37.512 85.464-82.225 90.264 4.05-57.512-34.738-105.73-75.125-141.84-60.6-53.475-149.11-108.96-218.9-149.09-53.963-43.162-90.662-74.825-123.1-137.66zm-135.79 78.312c7 39.538 14.401 63.575 26.613 101.78 3.175 11.788 22.687 21.499 29.762 7.9864 6.9625-34.825 2.7383-60.9-3.4492-95.35 24.85 34.438 40.949 62.825 64.736 98.537 9.7125 15.088 40.688 8.2008 34.713-11.887-17.938-33.838-35.513-55.039-53.051-89.139 33.188 35.925 56.538 56.362 96.938 83.75 11.25 7.7625 32.613 5.9625 34.775-10.062-3.5-12.4-18.138-15.925-25.9-25.125 15.263 5.6125 33.688 11.812 48.676 4.0625 72.425 41.812 164.27 98.475 225.91 155.71 32.225 29.962 62.238 67.975 65.238 113.59 4.375 45.025-25.139 85.724-60.389 110.64-14.088 12.962-34.374 9.575-51.824 12.125-140.49 4.15-278.48-27.861-415.34-55.299-18.362-4.3125-37.424-6.3629-54.861-13.9-166.66-62.738-340.1-120.2-520.09-119.85-57.75-10.188-118.28-9.0004-173.38-30.775-5-27.438 23.975-46.6 46.838-53.787 87.825-8.625 176.31-14.175 263.09-30.725 75.375 49.875 165.09 76.149 254.84 81.424 127.26 22.588 258.81 22.501 382.83 62.051 33.638 11.875 67.699 26.312 92.611 52.75 3.7125 3.3375 9.5387-2.7625 4.2637-5.625-42.412-43.95-104.08-60.95-161.64-74.787-107-24.275-217.74-24.45-325.01-46.125-17.812-20.375-34.7-42.212-51.463-63.688-13.6-20.05-30.662-42.35-26.637-68.125 87.112-13.8 158.46-73.85 244.85-90.125 1.5875-0.0125 4.7621-0.025 6.3496-0.025zm-571.6 66.064c24.078 0.16712 45.828 12.447 67.213 22.086-2.475-5.1375-14.089-10.939-11.701-15.826 25.962 27.575 55.8 51.725 85.463 74.6-83.812 14.9-168.87 20.802-253.47 28.914-25.9 7.35-57.125 27.736-54.912 58.024-29.812-10.188-61.464-12.474-91.789-20.512-6.2-1.175-13.549-9.3871-6.9863-14.787 26.225-26.562 55.711-57.651 95.486-59.613 39.888-4.9875 80.263-1.0492 120.03 3.2382 18.562 5.7125 40.788 8.1864 56.75-5.2636 13.175-8.4875 33.425-24.5 22.75-42-19.712-3.8625-44.362-0.911-58.938-16.836 6.6875-7.0375 17.563-11.45 27.775-12 0.7816-0.02 1.5612-0.0287 2.3379-0.0237z"/>
<path d="m-1451.5-602.76c21.762-4.475 42.475 7.8 64.112 3.4 5.0875-0.575 12.875 3.25 10.962 9.35-9.6125 4.7625-19.162 13.5-18.575 24.038-21.788 7.4-45.638-9-62.2-22.612-7.6875-6.1-2.275-14.138 5.7-14.175m4.6375 8.125c2.7125 10.138 19.188 13.788 28.225 18.938 10.6 7.175 19.688-6.25 24.525-14.112-17.688 4.0375-34.7-8.15-52.75-4.825z"/>
<path fill="#ff2a2a" d="m-1443.5-606.22c-7.408 0.41033-18.592 0.81655-19.934 10.215-0.2024 9.4066 10.651 13.127 16.562 18.53 15.33 10.915 35.439 20.545 54.356 13.306-1.3783-11.448 8.9093-19.71 18.149-24.119 3.6826-9.4076-8.574-15.914-16.438-13.042-17.835 2.2886-34.855-5.6184-52.695-4.8901zm4.8803 13.54c13.025 0.73307 26.32 6.8389 39.255 6.2476-3.7876 6.0787-11.892 14.082-19.053 8.0396-8.3087-4.6129-18.72-6.444-24.866-14.207 1.5508-0.12831 3.1089-0.13786 4.6631-0.0806z"/>
<path d="m-1467-771.6c19.538-0.5375 37.275 11.725 47.538 27.812 3.15 7.1625 20.588 10.688 12.15 19.05-17.55-10.475-25.962-34.788-47.525-40.012-7.8125-3.475-17.588 4.0375-24.175-2.375 2.075-4.1875 8.1-3.2875 12.012-4.475z"/>
<path d="m-1350.9-700.13c6.5 1.6-4.9625 8.3875-7.3625 9.7625-14.862 15.962-7.2625 40.262-15.075 58.762-11.988 11.1-23.088-12.6-37.05-8.55-3.0375-9.075 14.675-8.2375 17.938-1.825 5.45 10.138 20.85 1.1375 17.412-9.0875 0.525-17.912 2.8-43.9 24.138-49.062z"/>
<g transform="matrix(1.25 0 0 1.25 -2059.9 -1003.3)">
<path fill="#fff" d="m468.96 207.7c-4.8039 4.7528-2.1784 12.504 2.3326 16.483 5.643 6.3424 14.555 6.9769 22.294 8.2445 3.7609 0.19892 6.5149 3.1558 9.9536 3.9257 4.1383 0.30541 7.3012-5.314 3.7674-8.2106-9.0753-12.016-24.661-15.359-37.652-21.331l-0.44641 0.56976-0.24913 0.31802z"/>
<path d="m601.06 264.27a15.64 15.135 0 0 0 -10.217 14.186 15.64 15.135 0 0 0 0.54882 3.9629c6.7971 5.6942 16.22 6.6357 24.691 7.9766a15.64 15.135 0 0 0 6.0391 -11.939 15.64 15.135 0 0 0 -0.78906 -4.6836c-6.2579-3.9119-13.273-6.7575-20.273-9.502z" transform="scale(.8)" fill="#5d5dc1"/>
<g>
<path d="m578.5 251.47-0.76953 0.98437-0.43164 0.54883c-8.2964 8.208-3.7611 21.594 4.0293 28.467 9.7454 10.953 25.135 12.051 38.5 14.24 6.495 0.34354 11.251 5.4497 17.189 6.7793 7.1469 0.52741 12.611-9.1773 6.5078-14.18-15.673-20.751-42.591-26.527-65.025-36.84zm8.5684 7.0488c16.238 7.4647 35.72 11.645 47.064 26.664 4.4172 3.6208 0.46197 10.645-4.7109 10.264-4.2985-0.96235-7.7403-4.6596-12.441-4.9082-9.6732-1.5845-20.814-2.3767-27.867-10.305-5.6387-4.9747-8.9209-14.663-2.916-20.604l0.3125-0.39844 0.5586-0.71289z" transform="scale(.8)"/>
<ellipse rx="4.6197" ry="4.6196" cy="222.38" cx="484.99"/>
<path d="m462.8 201.18-0.6156 0.7875-0.3453 0.43906c-6.6371 6.5664-3.0089 17.275 3.2234 22.773 7.7964 8.7626 20.108 9.6409 30.8 11.392 5.1961 0.27484 9.0006 4.3598 13.752 5.4234 5.7175 0.42193 10.088-7.3418 5.2063-11.344-12.538-16.601-34.073-21.221-52.02-29.472zm6.8547 5.6391c12.99 5.9718 28.576 9.3156 37.652 21.331 3.5338 2.8966 0.3696 8.5164-3.7688 8.2109-3.4387-0.76988-6.1922-3.7276-9.9531-3.9266-7.7386-1.2676-16.651-1.9014-22.294-8.2438-4.511-3.9798-7.1368-11.73-2.3329-16.483l0.25-0.31875 0.4469-0.57032z"/>
</g>
</g>
<g transform="matrix(-.92328 -.40213 -.31370 1.1836 -783.69 -754.62)">
<path d="m468.96 207.7c-4.8039 4.7528-2.1784 12.504 2.3326 16.483 5.643 6.3424 14.555 6.9769 22.294 8.2445 3.7609 0.19892 6.5149 3.1558 9.9536 3.9257 4.1383 0.30541 7.3012-5.314 3.7674-8.2106-9.0753-12.016-24.661-15.359-37.652-21.331l-0.44641 0.56976-0.24913 0.31802z" fill="#fff"/>
<path d="m601.06 264.27a15.64 15.135 0 0 0 -10.217 14.186 15.64 15.135 0 0 0 0.54882 3.9629c6.7971 5.6942 16.22 6.6357 24.691 7.9766a15.64 15.135 0 0 0 6.0391 -11.939 15.64 15.135 0 0 0 -0.78906 -4.6836c-6.2579-3.9119-13.273-6.7575-20.273-9.502z" transform="scale(.8)" fill="#5d5dc1"/>
<path d="m578.5 251.47-0.76953 0.98437-0.43164 0.54883c-8.2964 8.208-3.7611 21.594 4.0293 28.467 9.7454 10.953 25.135 12.051 38.5 14.24 6.495 0.34354 11.251 5.4497 17.189 6.7793 7.1469 0.52741 12.611-9.1773 6.5078-14.18-15.673-20.751-42.591-26.527-65.025-36.84zm8.5684 7.0488c16.238 7.4647 35.72 11.645 47.064 26.664 4.4172 3.6208 0.46197 10.645-4.7109 10.264-4.2985-0.96235-7.7403-4.6596-12.441-4.9082-9.6732-1.5845-20.814-2.3767-27.867-10.305-5.6387-4.9747-8.9209-14.663-2.916-20.604l0.3125-0.39844 0.5586-0.71289z" transform="scale(.8)"/>
<ellipse rx="4.6197" ry="4.6196" cy="222.38" cx="484.99"/>
</g>
<g transform="matrix(1.25 0 0 1.25 -59.911 -1003.3)">
<path d="m-1099.3 29.992c-17.439 0.10876-34.875 2.3449-51.542 6.3281-30.94 20.6-64.479 41.1-84.539 73.48 0 0-3.7447 9.9578-20.324 2.1596-9.104 6.6817-21.587 16.559-29.603 13.656-7.6347 3.2022-21.944 11.634-21.944 11.634-5.02 10.98-12.1 21.59-11.95 34.2-2.35 28.14 17.959 51.08 36.389 69.63 2.31 18.18-1.0391 36.77-7.2891 53.88 4.19 7.3 10.519 13.081 17.109 18.181 5.15-8.44 8.6503-17.67 12.02-26.9 16.49 4.24 19.33 25.229 33.73 32.909 2.2069 3.3218 6.168-5.3239 8.0219-17.62 1.52-8.852-0.3483-14.596-1.3641-21.689-1.6006-5.7055-2.9445-11.473-4.0375-17.261 2.11-22.49 12.55-44.68 26.92-62 11.6-2.86 5.0003-17.85 16.62-20.5 13.22-6 14.379-22.3 24.139-31.87 30.4 23.53 65.17 54.471 107.5 46.981 6.23 17.47 27.25 20.039 43.13 21.869 16.29 0.64 32.701 2.9509 48.961 0.91093l7.5 1.0203c27.58-5.22 40.18-40.421 30.67-65.041l-5.6312-9.3203c-21.63-29.4-40.83-62.28-71.5-83.55-28.678-21.433-63.993-30.722-99.5-31.081-1.1625-0.01178-2.3249-0.01358-3.4875-0.0063zm-19.981 51.238c5.31 7.03 16.1-2.5891 20.33 6.4109 5.52 0.78 7.9097 6.3491 12.13 10.089 9.87-0.17 19.67 1.83 27.85 7.05 3.82-0.88 9.93-0.26907 9.6 4.9609-2.7 3.39-7.9997 0.20938-10.38 4.9594-14.08 4.94-24.75-12.33-34.42-17.45-10.73 1.92-20.679-7.3703-25.109-16.02zm83.441 7.1609c1.3786-0.18925 3.4157 6.3869 7.0485 6.6-0.43 13.07 16.401 27.95 3.8906 39.68-14.94 6.91-8.6897-9.1203-14.08-16.92 1.53-9.71 2.5094-19.5 3.0094-29.32 0.043-0.02064 0.087-0.03298 0.1312-0.03906zm-121.14 19.7c7.71 12.74 21.99 17.529 33.78 27.939 16.49 3.84 22.279 27.981 42.939 26.961 6.06-0.17 3.5906 9.1897 7.6906 12.23-14.48-9.49-45.941-9.4797-44.041-33.23-11.5-3.37-23.28-8.9309-34.38-14.161-6.61-3.71-16.839-15.249-5.9891-19.739zm148.37 8.0891c10.51 1 21.32 2.8197 31.82 3.3797 8.99-7.72 23.331 10.331 16.541 18.341-6.92-3.43-15.601-3.6003-19.861-10.97-9.69-0.25-22.73-6.17-28.5-10.75zm-174.28 9.9656c4.1884-0.002 8.4562 0.65938 9.525 3.6344-10.77 4.42-22.821 7.6606-31.191 16.141-3.08 10.9 11.17 12.91 17.15 17.02-5.14 8.3-17.939 2.9394-24.559 8.4594 0.41 7.28 14.62 7.6803 12.22 15.97-12.49 4.69-28.031 1.9191-38.711 10.639-3.95 10.05 12.24 8.1 15.25 15-5.29 7.38-15.69 8.5109-23.7 11.311-4.25 6.66 5.7512 12.01 6.4312 18.35-3.18 8.78-14.321 6.9091-21.161 3.6391-8.59-1.57 2.4897 14.461-5.3703 14.711-2.62-7.48-9.0188-18.63-8.4688-24.77 8.02 9.43 23.629 1.0797 16.889-10.87-4.28-12.74 17.83-1.7291 17.1-9.8891-7.08-5.17-3.0297-17.39-13.23-18.97 1.2-7.16 12.61-7.9406 18.93-9.0406 3-6.59-8.1003-5.8397-9.4203-10.33 5.72-4.48 12.691-2.98 19.131-4 5.31-3.51-2.5203-6.3694-5.0703-8.4594-1.6-8.54 13.95-0.67031 12.82-8.2703-5.15-5.47-13.08-10.19-10.97-19.07 5.32-0.16 10.34 7.84 15.53 3.25 3.5-10.05 14.37-13.831 24.13-14.091 1.7475-0.12376 4.2323-0.36284 6.7453-0.36407zm-66.269 9.8328c1.5128 0.21514-0.3429 3.7269-1.0156 5.0312-12.89 24.69-22.85 52.431-40.07 73.891-10.08-15.4 3.6691-31.749 9.6391-45.659-10.85 1.61-24.439 2.6997-29.539-9.3703 0.31-6.39 8.7897-6.1209 13.48-5.5109 17.88 3.44 31.25-10.809 45.98-17.989 0.4887-0.22749 0.8761-0.35115 1.1781-0.38906 0.1322-0.0166 0.2476-0.0172 0.3484-0.003zm182.59 36.284c0.1976 0.002 0.4062 0.0115 0.6265 0.0281 5.61 0.59 10.83 4.1094 16.4 0.80938 2.37 6.13 8.4091 6.48 14.039 5 5.6 4.47 12.48 6.3303 19.07 1.9703 1.75 6.15 7.2603 10.319 12.57 5.3891 6.9 2.88 17.261 6.5409 24.941 5.3109 0.75 6.32 7.7497 5.91 11.53 2.35 3.13 7.29 18.33-0.28 16.58 8.4-8.35 0.32-23.151 6.6797-26.141-2.9203-18.82 1.67-41.389-3.0997-56.519-13.43-10.7 2.23-21.031-2.12-31.331-4.4-3.3616-1.5403-7.895-8.5529-1.7656-8.5078zm-292.79 99.748c-6.572-0.0371-12.833 2.3719-18.145 8.7094-9.37 19.27 0.2106 41.42 10.341 58.37 0.43-14.62-8.5997-37.46 8.7203-45.37 14.35-0.72 20.91 15.69 27.83 25.6 11.28 8.35 28.049 14.16 41.709 8.7703-1.07-8.55-2.23-17.391-6.3-25.111-9.32 5.71-15.869-7.02-23.009-11-10.718-7.9681-26.687-19.887-41.145-19.969zm377.12 18.431-8.7031 19.097c-0.0906 0.16-0.17357 0.32194-0.26718 0.48125-17.99 34.14-52.06 55.259-82.78 76.659-9.4453 5.1772-5.5812 2.4266-9.4453 5.1766 0.6244 2.1522 1.5225 5.0962 2.7953 7.6234 7.88 19.66 31.23 38.59 52.73 26.8 13.29-8.06 30.68-21.65 46.47-12.92 2.07 20.89-17.08 41.051-8.6797 62.541 16.61 32.53 80.681 26.86 81.891-13.65-0.30344-7.0917-1.2638-9.6304-4.4438-13.094-0.80377 2.1741 0 0-1.8266 6.0531-4.78 15.4-38.18 23.53-40.43 2.5203-0.05-11.93 11.819-19.109 21.039-24.389l8.7203-2.1109c32.53-11.7 46.111-55.5 25.891-83.17-6.52-10.11-20.64-12.35-28.75-18.98l-8.4812 0.77969c-17.45-4.65-37.08-13.719-43.13-32.339-0.12011-1.8279-2.6-5.2633-2.6-7.0781zm53.333 49.666c6.6443 0.16858-3.7659 10.206-1.1922 14.583 2.89 11.19 21.81 7.1088 24.85 17.169-11.77 3.78-26.8-2.9888-36.95 5.3312 2.13 5.82 5.45 11.109 8.1 16.709-11.67-10.53-30.461-12.569-42.911-2.4594 0.98 8.76 18.481 11.93 12.791 23.33-4.97-7.53-14.07-18.24-25.02-14.88-13.88 5.09-27.71 14.4-43.27 10.55-9.94-4.36-21.17-9.26-28.6-16.35 16.38 1.62 35.391 10.93 49.891-1.1703 14.37-8.47 22.08-28.17 40.17-29.75 9-0.61 15.849 6.9397 24.559 7.4297 0.11-9.81-13.809-9.29-20.609-10.65-11.22 0.31-18.071-8.6697-22.311-17.78 17.1 10.17 41.941 11.16 57.861-1.7797 1.0856-0.21092 1.9549-0.30026 2.6422-0.2828zm14.24 121.39c-4.16 8.93-25.309 25.67-36.759 18.57 10.52-7.72 27.719-6.4603 36.759-18.57z" fill="#ffbf0c"/>
<path d="m-1119.9 81.697c4.877 9.3018 14.584 18.129 25.807 16.596 10.085 6.0168 17.773 18.837 30.836 18.232 4.2975 0.54873 5.6561-4.4523 9.9626-3.9334 3.9368 0.40002 7.0515-3.8989 3.8421-6.9435-3.4882-3.8557-9.1778-0.4579-12.77-3.9863-7.5016-3.9916-16.401-4.5467-24.422-5.3848-3.327-3.8393-6.7649-8.3557-11.609-9.959-3.6979-6.6422-12.167-1.9744-17.787-3.9102-1.9022-0.66162-5.6238-6.239-3.8594-0.71094zm84.039 5.7344c-2.0195 4.4033-0.993 11.252-2.0687 16.598 0.1514 5.8458-3.3733 11.981-0.1989 17.275 2.1448 4.8612-0.2292 13.727 6.2051 15.918 8.4937 1.3818 14.577-8.0197 12.664-15.74-1.5462-9.4999-8.6693-17.623-8.2559-27.387-4.4526 0.42189-4.5968-6.391-8.3457-6.6641zm-121.26 19.742c-5.3207 1.4762-6.906 8.176-3.5938 12.34 6.6745 10.922 20.253 13.514 30.994 18.824 3.9132 1.8386 8.8501 2.8724 12.307 4.7324-1.0538 11.199 8.7427 19.266 18.367 22.57 9.4721 3.4375 19.132 6.6425 28.159 10.846-0.56-1.812-3.5995-5.4827-3.5648-8.8379-0.3137-4.1769-4.2715-6.6983-8.2813-5.6719-17.727-1.1163-23.451-22.615-39.73-26.857-10.969-9.8516-26.174-15.058-33.869-28.291l-0.7871 0.34571zm148.16 9.7988c8.3206 6.1851 18.662 9.8587 28.701 11.197 4.5386 7.0559 13.718 7.4464 20.561 10.977 5.9937-7.0592-0.11714-17.617-7.2129-21.27-3.087-1.6714-7.1824-1.6718-9.9434 0.66016-11.677-0.69266-23.224-2.6961-34.873-3.6992 0.9225 0.71159 1.845 1.4232 2.7676 2.1348zm-174.62 8.1836c-11.371-0.0814-25.66 2.278-30.51 14.166-3.6994 4.4712-8.5582-1.6952-12.709-2.6562-4.7956-1.8243-3.9223 5.419-2.5684 8.3613 1.9205 5.3092 8.056 8.0938 10.303 12.68-2.9466 3.5666-11.144-0.92898-12.828 4.8086-1.5097 4.8199 6.933 4.5738 6.6738 8.7715-5.9326 2.7182-14.105 0.0439-19.783 4.6602-2.7273 2.581 2.6532 5.2161 5.0078 6.0566 2.5876 0.20783 6.4317 4.9383 1.7402 4.8984-6.4843 0.96971-16.435 2.2996-17.377 10.426 7.6517 0.14894 7.9268 9.036 10.197 14.387 0.2906 2.1817 5.5049 4.8992 1.4063 5.9238-4.8811 1.2278-12.847-2.3628-15.643 3.4082-1.0555 4.8583 4.4012 9.6155 0.7383 14.279-4.0615 6.1992-13.77 4.5577-17.15-1.5644-1.1498 10.227 5.76 18.956 8.6562 28.301 5.2161 0.58932 5.3378-5.7969 4.0782-9.2578-0.5593-1.9639-1.4121-7.0334 2.2304-5.2754 6.7372 3.2626 17.815 4.4876 21.504-3.6738 1.7092-7.0549-9.6656-11.492-6.3652-18.703 8.4476-2.8185 18.748-4.0703 24.199-12.021-2.5568-7.0696-13.203-5.1612-15.986-11.662-0.4443-5.0315 6.4435-5.9202 9.8574-7.5566 9.5024-3.0231 20.757-1.7006 29.394-6.2891 2.0259-6.5905-6.1773-9.4744-10.098-12.564-2.3403-1.4614-2.5335-4.385 0.7148-4.5898 7.2862-2.0863 17.899 0.3141 22.135-7.8203-5.728-4.4763-16.113-4.8976-17.926-13.109-0.4687-5.2886 6.0887-7.2725 9.6172-9.8945 7.109-3.8555 14.814-6.2094 22.268-9.3106-1.2995-5.0596-7.5472-5.2295-11.777-5.1777zm-65.541 9.8144c-13.869 5.408-25.32 18.364-40.797 18.898-6.515 0.20226-15.466-3.3505-20.16 3.0176-2.3287 4.9763 3.0991 9.7221 7.1211 11.959 6.4987 3.1747 14.008 2.5421 20.957 1.6406-5.6346 12.275-15.917 25.385-11.418 39.668 1.0435 2.1273 2.7822 8.6151 4.8399 4.5765 17.857-23.069 27.839-50.862 41.025-76.592 0.5454-1.3123 0.2121-3.2618-1.5684-3.168zm182.23 36.309c-3.2894-0.61673-4.9527 5.0282-1.7422 5.6894-0.8448 2.4333 3.3753 5.0238 5.791 5.2266 9.5656 2.3495 19.43 5.9966 29.412 4.0332 16.415 10.841 37.01 14.419 56.139 13.643 3.5304 7.3958 13.393 4.7836 19.73 3.6602 3.2463-1.0061 9.5783 0.24773 7.9531-4.6445-3.1616-6.3373-13.252 0.0271-16.625-6.1934-1.0688-2.1765-3.6241 2.3974-6.1523 1.9219-3.0362 0.75299-5.6704-1.9687-5.4414-4.9726-9.149 1.8452-18.261-3.0366-26.439-4.9356-4.7417 5.0499-10.74-1.0331-11.342-6.1797-5.7248 4.8099-14.215 3.3326-19.406-1.5137-5.0871 1.8646-12.402 0.90159-13.781-5.334-5.7263 4.2887-11.97-0.47693-18.096-0.40039zm-223.81 123.18c-1.5979 4.0566-7.3515 7.5863-3.7676 11.867 3.1033 7.3609 4.0004 15.361 4.9941 23.193 7.9631-2.8474 14.049-9.3476 18.057-16.621-7.2182-5.5031-14.075-11.798-18.422-19.922l-0.5024 0.86464-0.3589 0.61778zm361.49 44.658c-5.1588 0.79013-8.7418 5.7575-13.988 6.8828-15.868 5.7902-34.252 2.7683-48.244-6.3203 4.1899 10.492 12.506 21.956 25.102 21.381 6.2653 1.4258 16.239 0.25472 18.912 7.6348 0.16334 2.0309-4.1561-0.6393-5.4297-0.77344-7.4885-3.795-16.204-8.0699-24.611-4.3008-15.124 5.857-22.303 22.208-36.135 30.049-13.423 8.839-29.675 1.8482-44.01-0.18164-4.773-1.0205-7.623-0.90874-2.4531 2.6641 8.7578 7.1138 19.231 12.179 29.838 15.734 15.725 2.8509 29.516-7.4003 43.881-11.537 10.277-0.80143 17.442 8.7285 22.545 16.43 3.7591-5.1055 1.6599-12.096-3.4024-15.424-2.9195-2.8314-7.7539-5.3431-8.334-9.5918 12.674-9.8681 31.508-6.5595 42.672 4.0462 2.2637 1.2898-1.4563-4.8816-2.1681-6.5286-1.5615-3.8418-5.121-8.189-5.3418-12.021 10.975-7.1718 24.811-0.34786 36.664-4.7422-2.3847-9.3579-14.149-8.5824-20.947-12.701-4.5462-2.3507-5.8299-8.3269-2.709-12.395 1.8071-2.8797 3.8585-8.8197-1.8398-8.3047zm14.01 121.78c-9.1202 12.137-26.525 10.282-37.807 19.264 9.3868 6.3523 21.052-0.26678 28.787-6.2051 4.481-4.0132 10.299-8.2217 11.145-14.588-0.70833 0.50976-1.4167 1.0195-2.125 1.5293z" fill="#ffd970"/>
<path d="m-1099.1 29.992c-17.439 0.10876-34.874 2.3449-51.542 6.3281-30.94 20.6-64.479 41.1-84.539 73.48-1.9337 5.5422-7.0778 11.359-14.862 4.1334-4.0459 1.0255-6.5648 1.1495-10.282 2.327-8.0905 10.528-22.314 17.547-29.299 9.3552-7.9004 2.6709-17.428 11.634-17.428 11.634-5.02 10.98-12.1 21.59-11.95 34.2-2.35 28.14 17.959 51.08 36.389 69.63 2.31 18.18-1.0391 36.77-7.2891 53.88-1.57 2.76-3.3309 5.4003-5.1109 8.0203-9.32 5.71-15.869-7.02-23.009-11-15.59-11.59-42.291-31.539-59.291-11.259-9.37 19.27 0.2106 41.42 10.341 58.37 0.43-14.62-8.5997-37.46 8.7203-45.37 14.35-0.72 20.91 15.69 27.83 25.6 11.28 8.35 28.049 14.16 41.709 8.7703 6.98-2.82 12.23-8.53 15.92-14.95 5.15-8.44 8.6503-17.67 12.02-26.9 16.49 4.24 19.33 25.229 33.73 32.909 2.2069 3.3218 6.168-5.3239 8.0219-17.62 1.52-8.852-0.3483-14.596-1.3641-21.689-1.6006-5.7055-2.9445-11.473-4.0375-17.261 2.11-22.49 12.55-44.68 26.92-62 11.6-2.86 5.0003-17.85 16.62-20.5 13.22-6 14.379-22.3 24.139-31.87 30.4 23.53 65.17 54.471 107.5 46.981 6.23 17.47 27.25 20.039 43.13 21.869 16.29 0.64 32.701 2.9509 48.961 0.91093l7.5 1.0203c27.58-5.22 40.18-40.421 30.67-65.041l-5.6312-9.3203c-21.63-29.4-40.83-62.28-71.5-83.55-28.678-21.433-63.993-30.722-99.5-31.081-1.1625-0.01178-2.3249-0.01359-3.4876-0.0063zm116.65 264.08-8.2997 15.465c-0.091 0.16-0.1736 0.32194-0.2672 0.48125-17.99 34.14-52.06 55.259-82.78 76.659-9.4453 5.1772-5.5812 2.4266-9.4453 5.1766 0.6244 2.1522 1.5225 5.0962 2.7953 7.6234 7.88 19.66 31.23 38.59 52.73 26.8 13.29-8.06 30.68-21.65 46.47-12.92 2.07 20.89-17.08 41.051-8.6797 62.541 16.61 32.53 80.681 26.86 81.891-13.65-0.3034-7.0917-1.2638-9.6304-4.4437-13.094-0.8039 2.1741 0 0-1.8266 6.0531-4.78 15.4-38.18 23.53-40.43 2.5203-0.05-11.93 11.819-19.109 21.039-24.389l8.7203-2.1109c32.53-11.7 46.111-55.5 25.891-83.17-6.52-10.11-20.64-12.35-28.75-18.98l-8.4812 0.77969c-17.45-4.65-37.08-13.719-43.13-32.339-0.1201-1.8279-3.0035-1.6311-3.0034-3.446z" stroke="#000" stroke-width="5.6" fill="none"/>
</g>
<path d="m-1443.4-593.48c1.3784 5.7402 9.091 7.5213 13.761 10.57 5.9444 2.3256 11.603 6.7206 18.044 7.2004 5.4105-1.3805 9.6985-5.8477 12.786-10.154-5.5637-2.164-12.478-1.9171-18.546-3.6446-8.5839-1.6272-17.358-4.1256-26.045-3.9722z" fill="#fff"/>
</g>
</svg>
