<svg width="136" height="151" viewBox="0 0 136 151" fill="none" xmlns="http://www.w3.org/2000/svg">
<g filter="url(#filter0_dd_52_6064)">
<path fill-rule="evenodd" clip-rule="evenodd" d="M82.2006 34.1191C81.9869 34.119 79.9835 37.3436 77.5115 41.5129C77.509 41.5119 77.5056 41.5053 77.5031 41.5046C59.1817 36.5293 40.3008 47.3574 35.3249 65.6788C33.5307 72.2862 33.8 78.9633 35.7268 85.0383C38.6869 84.9081 43.368 84.8189 48.5885 84.7787C46.2494 80.178 45.4813 74.7665 46.7966 69.3882C46.8421 69.202 46.8968 69.0215 46.9473 68.8355C49.8915 57.9931 60.3301 51.1856 71.1634 52.4988C68.7849 56.7222 66.9871 60.0759 67.0937 60.2611C67.3954 60.7842 96.9783 60.7923 97.2811 60.2694C97.5833 59.7466 82.8043 34.1194 82.2006 34.1191ZM100.011 65.1264C97.051 65.2566 92.3699 65.3457 87.1494 65.386C89.4885 69.9867 90.2565 75.3982 88.9413 80.7765C88.8958 80.9627 88.8411 81.1432 88.7906 81.3292C85.8463 92.1716 75.4078 98.9708 64.5745 97.6576C66.953 93.4341 68.7508 90.0888 68.6441 89.9036C68.3424 89.3805 38.7515 89.364 38.4487 89.8869C38.1466 90.4097 52.9256 116.045 53.5293 116.046C53.743 116.046 55.7547 112.821 58.2267 108.652C58.2292 108.653 58.2326 108.651 58.2351 108.652C76.5565 113.627 95.4374 102.807 100.413 84.4858C102.208 77.8784 101.938 71.2013 100.011 65.1263L100.011 65.1264Z" fill="#FFFAE8" fill-opacity="0.58"/>
<path fill-rule="evenodd" clip-rule="evenodd" d="M82.1858 36.9331L82.0351 37.1508L81.9932 37.2262C80.7334 39.2176 79.5578 41.2685 78.3255 43.2803C68.2283 40.3652 56.7546 42.1287 48.465 48.7481C39.314 55.7245 34.3475 67.6874 36.0219 79.0775C36.2378 80.5376 36.5093 81.97 36.9179 83.3813C39.9846 83.287 43.0524 83.2368 46.1204 83.1971C41.7059 72.3073 46.9007 58.522 57.4917 53.4116C62.4421 50.8435 68.2644 50.1145 73.728 51.2345C72.3139 53.7603 70.8341 56.2878 69.5243 58.846C77.9503 59.1397 86.3862 59.1517 94.8122 58.8543C90.8993 51.3978 86.6459 44.1043 82.1858 36.9331ZM98.5643 66.7855C98.3773 66.7967 98.1903 66.8079 98.0033 66.819C95.1268 66.927 92.2461 66.8585 89.3702 66.9949C93.674 77.7633 88.734 91.267 78.3925 96.5365C73.358 99.25 67.3617 100.119 61.7543 98.9229C63.1713 96.4011 64.6093 93.8897 65.9494 91.3281C57.5212 91.0086 49.0821 91.0254 40.6532 91.3114C44.5875 98.7593 48.8096 106.069 53.2804 113.233C54.7536 110.952 56.0992 108.585 57.5172 106.266C60.0903 108.314 63.5917 107.91 66.6611 108.276C80.6117 108.551 94.1903 98.8869 98.1962 85.4497C100.087 79.4671 100.258 72.8431 98.5643 66.7855Z" stroke="white" stroke-width="0.951672" stroke-linecap="round"/>
<path fill-rule="evenodd" clip-rule="evenodd" d="M82.2011 36.9186L81.9924 37.2262C80.7325 39.2176 79.5569 41.2685 78.3247 43.2803C68.2275 40.3652 56.7538 42.1287 48.4642 48.7481C41.8257 53.8089 37.392 61.4961 36.0967 69.6817C39.6998 66.5138 44.0074 63.5561 48.883 60.9567C51.055 57.7719 53.9746 55.1087 57.491 53.4123C62.4414 50.8441 68.2637 50.1152 73.7272 51.2352C73.5136 51.6166 73.2982 52.0008 73.0824 52.3823C79.0816 51.1709 84.9144 50.6248 90.3653 50.6993C87.7428 46.0542 82.2011 36.9186 82.2011 36.9186Z" fill="url(#paint0_linear_52_6064)"/>
</g>
<defs>
<filter id="filter0_dd_52_6064" x="5.72205e-05" y="-3.8147e-06" width="135.738" height="150.165" filterUnits="userSpaceOnUse" color-interpolation-filters="sRGB">
<feFlood flood-opacity="0" result="BackgroundImageFix"/>
<feColorMatrix in="SourceAlpha" type="matrix" values="0 0 0 0 0 0 0 0 0 0 0 0 0 0 0 0 0 0 127 0" result="hardAlpha"/>
<feOffset/>
<feGaussianBlur stdDeviation="17.0595"/>
<feComposite in2="hardAlpha" operator="out"/>
<feColorMatrix type="matrix" values="0 0 0 0 1 0 0 0 0 1 0 0 0 0 1 0 0 0 0.66 0"/>
<feBlend mode="normal" in2="BackgroundImageFix" result="effect1_dropShadow_52_6064"/>
<feColorMatrix in="SourceAlpha" type="matrix" values="0 0 0 0 0 0 0 0 0 0 0 0 0 0 0 0 0 0 127 0" result="hardAlpha"/>
<feOffset/>
<feGaussianBlur stdDeviation="15.3192"/>
<feColorMatrix type="matrix" values="0 0 0 0 1 0 0 0 0 1 0 0 0 0 1 0 0 0 0.12 0"/>
<feBlend mode="normal" in2="effect1_dropShadow_52_6064" result="effect2_dropShadow_52_6064"/>
<feBlend mode="normal" in="SourceGraphic" in2="effect2_dropShadow_52_6064" result="shape"/>
</filter>
<linearGradient id="paint0_linear_52_6064" x1="66.2339" y1="40.5987" x2="66.7698" y2="70.6065" gradientUnits="userSpaceOnUse">
<stop stop-color="white"/>
<stop offset="1" stop-color="white" stop-opacity="0"/>
</linearGradient>
</defs>
</svg>
