<?xml version="1.0" encoding="UTF-8"?>
<!DOCTYPE svg PUBLIC "-//W3C//DTD SVG 1.1//EN" "http://www.w3.org/Graphics/SVG/1.1/DTD/svg11.dtd">
<svg width="200mm" height="90mm" viewBox="0 0 20000 9000" version="1.1" xmlns="http://www.w3.org/2000/svg" xmlns:xlink="http://www.w3.org/1999/xlink" stroke-width="28.222" stroke-linejoin="round" xml:space="preserve">
 <path fill="rgb(255,255,255)" stroke="none" d="M 9987,8987 L -13,8987 -13,-13 19987,-13 19987,8987 9987,8987 Z"/>
 <path fill="none" stroke="rgb(179,179,179)" stroke-linejoin="round" d="M 8419,7173 L 2420,7173 2420,1455 14418,1455 14418,7173 8419,7173 Z"/>
 <path fill="none" stroke="rgb(179,179,179)" stroke-linejoin="round" d="M 14418,7172 L 2420,7172"/>
 <path fill="none" stroke="rgb(179,179,179)" stroke-linejoin="round" d="M 14418,6457 L 2420,6457"/>
 <path fill="none" stroke="rgb(179,179,179)" stroke-linejoin="round" d="M 14418,5742 L 2420,5742"/>
 <path fill="none" stroke="rgb(179,179,179)" stroke-linejoin="round" d="M 14418,5027 L 2420,5027"/>
 <path fill="none" stroke="rgb(179,179,179)" stroke-linejoin="round" d="M 14418,4313 L 2420,4313"/>
 <path fill="none" stroke="rgb(179,179,179)" stroke-linejoin="round" d="M 14418,3598 L 2420,3598"/>
 <path fill="none" stroke="rgb(179,179,179)" stroke-linejoin="round" d="M 14418,2883 L 2420,2883"/>
 <path fill="none" stroke="rgb(179,179,179)" stroke-linejoin="round" d="M 14418,2168 L 2420,2168"/>
 <path fill="none" stroke="rgb(179,179,179)" stroke-linejoin="round" d="M 14418,1454 L 2420,1454"/>
 <path fill="none" stroke="rgb(179,179,179)" stroke-linejoin="round" d="M 2420,7322 L 2420,7172"/>
 <path fill="none" stroke="rgb(179,179,179)" stroke-linejoin="round" d="M 2420,7322 L 2420,7172"/>
 <path fill="none" stroke="rgb(179,179,179)" stroke-linejoin="round" d="M 2541,7322 L 2541,7172"/>
 <path fill="none" stroke="rgb(179,179,179)" stroke-linejoin="round" d="M 2541,7322 L 2541,7172"/>
 <path fill="none" stroke="rgb(179,179,179)" stroke-linejoin="round" d="M 2662,7322 L 2662,7172"/>
 <path fill="none" stroke="rgb(179,179,179)" stroke-linejoin="round" d="M 2662,7322 L 2662,7172"/>
 <path fill="none" stroke="rgb(179,179,179)" stroke-linejoin="round" d="M 2783,7322 L 2783,7172"/>
 <path fill="none" stroke="rgb(179,179,179)" stroke-linejoin="round" d="M 2783,7322 L 2783,7172"/>
 <path fill="none" stroke="rgb(179,179,179)" stroke-linejoin="round" d="M 2904,7322 L 2904,7172"/>
 <path fill="none" stroke="rgb(179,179,179)" stroke-linejoin="round" d="M 2904,7322 L 2904,7172"/>
 <path fill="none" stroke="rgb(179,179,179)" stroke-linejoin="round" d="M 3026,7322 L 3026,7172"/>
 <path fill="none" stroke="rgb(179,179,179)" stroke-linejoin="round" d="M 3026,7322 L 3026,7172"/>
 <path fill="none" stroke="rgb(179,179,179)" stroke-linejoin="round" d="M 3147,7322 L 3147,7172"/>
 <path fill="none" stroke="rgb(179,179,179)" stroke-linejoin="round" d="M 3147,7322 L 3147,7172"/>
 <path fill="none" stroke="rgb(179,179,179)" stroke-linejoin="round" d="M 3268,7322 L 3268,7172"/>
 <path fill="none" stroke="rgb(179,179,179)" stroke-linejoin="round" d="M 3268,7322 L 3268,7172"/>
 <path fill="none" stroke="rgb(179,179,179)" stroke-linejoin="round" d="M 3389,7322 L 3389,7172"/>
 <path fill="none" stroke="rgb(179,179,179)" stroke-linejoin="round" d="M 3389,7322 L 3389,7172"/>
 <path fill="none" stroke="rgb(179,179,179)" stroke-linejoin="round" d="M 3510,7322 L 3510,7172"/>
 <path fill="none" stroke="rgb(179,179,179)" stroke-linejoin="round" d="M 3510,7322 L 3510,7172"/>
 <path fill="none" stroke="rgb(179,179,179)" stroke-linejoin="round" d="M 3632,7322 L 3632,7172"/>
 <path fill="none" stroke="rgb(179,179,179)" stroke-linejoin="round" d="M 3632,7322 L 3632,7172"/>
 <path fill="none" stroke="rgb(179,179,179)" stroke-linejoin="round" d="M 3753,7322 L 3753,7172"/>
 <path fill="none" stroke="rgb(179,179,179)" stroke-linejoin="round" d="M 3753,7322 L 3753,7172"/>
 <path fill="none" stroke="rgb(179,179,179)" stroke-linejoin="round" d="M 3874,7322 L 3874,7172"/>
 <path fill="none" stroke="rgb(179,179,179)" stroke-linejoin="round" d="M 3874,7322 L 3874,7172"/>
 <path fill="none" stroke="rgb(179,179,179)" stroke-linejoin="round" d="M 3995,7322 L 3995,7172"/>
 <path fill="none" stroke="rgb(179,179,179)" stroke-linejoin="round" d="M 3995,7322 L 3995,7172"/>
 <path fill="none" stroke="rgb(179,179,179)" stroke-linejoin="round" d="M 4116,7322 L 4116,7172"/>
 <path fill="none" stroke="rgb(179,179,179)" stroke-linejoin="round" d="M 4116,7322 L 4116,7172"/>
 <path fill="none" stroke="rgb(179,179,179)" stroke-linejoin="round" d="M 4238,7322 L 4238,7172"/>
 <path fill="none" stroke="rgb(179,179,179)" stroke-linejoin="round" d="M 4238,7322 L 4238,7172"/>
 <path fill="none" stroke="rgb(179,179,179)" stroke-linejoin="round" d="M 4359,7322 L 4359,7172"/>
 <path fill="none" stroke="rgb(179,179,179)" stroke-linejoin="round" d="M 4359,7322 L 4359,7172"/>
 <path fill="none" stroke="rgb(179,179,179)" stroke-linejoin="round" d="M 4480,7322 L 4480,7172"/>
 <path fill="none" stroke="rgb(179,179,179)" stroke-linejoin="round" d="M 4480,7322 L 4480,7172"/>
 <path fill="none" stroke="rgb(179,179,179)" stroke-linejoin="round" d="M 4601,7322 L 4601,7172"/>
 <path fill="none" stroke="rgb(179,179,179)" stroke-linejoin="round" d="M 4601,7322 L 4601,7172"/>
 <path fill="none" stroke="rgb(179,179,179)" stroke-linejoin="round" d="M 4722,7322 L 4722,7172"/>
 <path fill="none" stroke="rgb(179,179,179)" stroke-linejoin="round" d="M 4722,7322 L 4722,7172"/>
 <path fill="none" stroke="rgb(179,179,179)" stroke-linejoin="round" d="M 4844,7322 L 4844,7172"/>
 <path fill="none" stroke="rgb(179,179,179)" stroke-linejoin="round" d="M 4844,7322 L 4844,7172"/>
 <path fill="none" stroke="rgb(179,179,179)" stroke-linejoin="round" d="M 4965,7322 L 4965,7172"/>
 <path fill="none" stroke="rgb(179,179,179)" stroke-linejoin="round" d="M 4965,7322 L 4965,7172"/>
 <path fill="none" stroke="rgb(179,179,179)" stroke-linejoin="round" d="M 5086,7322 L 5086,7172"/>
 <path fill="none" stroke="rgb(179,179,179)" stroke-linejoin="round" d="M 5086,7322 L 5086,7172"/>
 <path fill="none" stroke="rgb(179,179,179)" stroke-linejoin="round" d="M 5207,7322 L 5207,7172"/>
 <path fill="none" stroke="rgb(179,179,179)" stroke-linejoin="round" d="M 5207,7322 L 5207,7172"/>
 <path fill="none" stroke="rgb(179,179,179)" stroke-linejoin="round" d="M 5328,7322 L 5328,7172"/>
 <path fill="none" stroke="rgb(179,179,179)" stroke-linejoin="round" d="M 5328,7322 L 5328,7172"/>
 <path fill="none" stroke="rgb(179,179,179)" stroke-linejoin="round" d="M 5450,7322 L 5450,7172"/>
 <path fill="none" stroke="rgb(179,179,179)" stroke-linejoin="round" d="M 5450,7322 L 5450,7172"/>
 <path fill="none" stroke="rgb(179,179,179)" stroke-linejoin="round" d="M 5571,7322 L 5571,7172"/>
 <path fill="none" stroke="rgb(179,179,179)" stroke-linejoin="round" d="M 5571,7322 L 5571,7172"/>
 <path fill="none" stroke="rgb(179,179,179)" stroke-linejoin="round" d="M 5692,7322 L 5692,7172"/>
 <path fill="none" stroke="rgb(179,179,179)" stroke-linejoin="round" d="M 5692,7322 L 5692,7172"/>
 <path fill="none" stroke="rgb(179,179,179)" stroke-linejoin="round" d="M 5813,7322 L 5813,7172"/>
 <path fill="none" stroke="rgb(179,179,179)" stroke-linejoin="round" d="M 5813,7322 L 5813,7172"/>
 <path fill="none" stroke="rgb(179,179,179)" stroke-linejoin="round" d="M 5934,7322 L 5934,7172"/>
 <path fill="none" stroke="rgb(179,179,179)" stroke-linejoin="round" d="M 5934,7322 L 5934,7172"/>
 <path fill="none" stroke="rgb(179,179,179)" stroke-linejoin="round" d="M 6056,7322 L 6056,7172"/>
 <path fill="none" stroke="rgb(179,179,179)" stroke-linejoin="round" d="M 6056,7322 L 6056,7172"/>
 <path fill="none" stroke="rgb(179,179,179)" stroke-linejoin="round" d="M 6177,7322 L 6177,7172"/>
 <path fill="none" stroke="rgb(179,179,179)" stroke-linejoin="round" d="M 6177,7322 L 6177,7172"/>
 <path fill="none" stroke="rgb(179,179,179)" stroke-linejoin="round" d="M 6298,7322 L 6298,7172"/>
 <path fill="none" stroke="rgb(179,179,179)" stroke-linejoin="round" d="M 6298,7322 L 6298,7172"/>
 <path fill="none" stroke="rgb(179,179,179)" stroke-linejoin="round" d="M 6419,7322 L 6419,7172"/>
 <path fill="none" stroke="rgb(179,179,179)" stroke-linejoin="round" d="M 6419,7322 L 6419,7172"/>
 <path fill="none" stroke="rgb(179,179,179)" stroke-linejoin="round" d="M 6540,7322 L 6540,7172"/>
 <path fill="none" stroke="rgb(179,179,179)" stroke-linejoin="round" d="M 6540,7322 L 6540,7172"/>
 <path fill="none" stroke="rgb(179,179,179)" stroke-linejoin="round" d="M 6662,7322 L 6662,7172"/>
 <path fill="none" stroke="rgb(179,179,179)" stroke-linejoin="round" d="M 6662,7322 L 6662,7172"/>
 <path fill="none" stroke="rgb(179,179,179)" stroke-linejoin="round" d="M 6783,7322 L 6783,7172"/>
 <path fill="none" stroke="rgb(179,179,179)" stroke-linejoin="round" d="M 6783,7322 L 6783,7172"/>
 <path fill="none" stroke="rgb(179,179,179)" stroke-linejoin="round" d="M 6904,7322 L 6904,7172"/>
 <path fill="none" stroke="rgb(179,179,179)" stroke-linejoin="round" d="M 6904,7322 L 6904,7172"/>
 <path fill="none" stroke="rgb(179,179,179)" stroke-linejoin="round" d="M 7025,7322 L 7025,7172"/>
 <path fill="none" stroke="rgb(179,179,179)" stroke-linejoin="round" d="M 7025,7322 L 7025,7172"/>
 <path fill="none" stroke="rgb(179,179,179)" stroke-linejoin="round" d="M 7146,7322 L 7146,7172"/>
 <path fill="none" stroke="rgb(179,179,179)" stroke-linejoin="round" d="M 7146,7322 L 7146,7172"/>
 <path fill="none" stroke="rgb(179,179,179)" stroke-linejoin="round" d="M 7268,7322 L 7268,7172"/>
 <path fill="none" stroke="rgb(179,179,179)" stroke-linejoin="round" d="M 7268,7322 L 7268,7172"/>
 <path fill="none" stroke="rgb(179,179,179)" stroke-linejoin="round" d="M 7389,7322 L 7389,7172"/>
 <path fill="none" stroke="rgb(179,179,179)" stroke-linejoin="round" d="M 7389,7322 L 7389,7172"/>
 <path fill="none" stroke="rgb(179,179,179)" stroke-linejoin="round" d="M 7510,7322 L 7510,7172"/>
 <path fill="none" stroke="rgb(179,179,179)" stroke-linejoin="round" d="M 7510,7322 L 7510,7172"/>
 <path fill="none" stroke="rgb(179,179,179)" stroke-linejoin="round" d="M 7631,7322 L 7631,7172"/>
 <path fill="none" stroke="rgb(179,179,179)" stroke-linejoin="round" d="M 7631,7322 L 7631,7172"/>
 <path fill="none" stroke="rgb(179,179,179)" stroke-linejoin="round" d="M 7752,7322 L 7752,7172"/>
 <path fill="none" stroke="rgb(179,179,179)" stroke-linejoin="round" d="M 7752,7322 L 7752,7172"/>
 <path fill="none" stroke="rgb(179,179,179)" stroke-linejoin="round" d="M 7874,7322 L 7874,7172"/>
 <path fill="none" stroke="rgb(179,179,179)" stroke-linejoin="round" d="M 7874,7322 L 7874,7172"/>
 <path fill="none" stroke="rgb(179,179,179)" stroke-linejoin="round" d="M 7995,7322 L 7995,7172"/>
 <path fill="none" stroke="rgb(179,179,179)" stroke-linejoin="round" d="M 7995,7322 L 7995,7172"/>
 <path fill="none" stroke="rgb(179,179,179)" stroke-linejoin="round" d="M 8116,7322 L 8116,7172"/>
 <path fill="none" stroke="rgb(179,179,179)" stroke-linejoin="round" d="M 8116,7322 L 8116,7172"/>
 <path fill="none" stroke="rgb(179,179,179)" stroke-linejoin="round" d="M 8237,7322 L 8237,7172"/>
 <path fill="none" stroke="rgb(179,179,179)" stroke-linejoin="round" d="M 8237,7322 L 8237,7172"/>
 <path fill="none" stroke="rgb(179,179,179)" stroke-linejoin="round" d="M 8358,7322 L 8358,7172"/>
 <path fill="none" stroke="rgb(179,179,179)" stroke-linejoin="round" d="M 8358,7322 L 8358,7172"/>
 <path fill="none" stroke="rgb(179,179,179)" stroke-linejoin="round" d="M 8480,7322 L 8480,7172"/>
 <path fill="none" stroke="rgb(179,179,179)" stroke-linejoin="round" d="M 8480,7322 L 8480,7172"/>
 <path fill="none" stroke="rgb(179,179,179)" stroke-linejoin="round" d="M 8601,7322 L 8601,7172"/>
 <path fill="none" stroke="rgb(179,179,179)" stroke-linejoin="round" d="M 8601,7322 L 8601,7172"/>
 <path fill="none" stroke="rgb(179,179,179)" stroke-linejoin="round" d="M 8722,7322 L 8722,7172"/>
 <path fill="none" stroke="rgb(179,179,179)" stroke-linejoin="round" d="M 8722,7322 L 8722,7172"/>
 <path fill="none" stroke="rgb(179,179,179)" stroke-linejoin="round" d="M 8843,7322 L 8843,7172"/>
 <path fill="none" stroke="rgb(179,179,179)" stroke-linejoin="round" d="M 8843,7322 L 8843,7172"/>
 <path fill="none" stroke="rgb(179,179,179)" stroke-linejoin="round" d="M 8964,7322 L 8964,7172"/>
 <path fill="none" stroke="rgb(179,179,179)" stroke-linejoin="round" d="M 8964,7322 L 8964,7172"/>
 <path fill="none" stroke="rgb(179,179,179)" stroke-linejoin="round" d="M 9086,7322 L 9086,7172"/>
 <path fill="none" stroke="rgb(179,179,179)" stroke-linejoin="round" d="M 9086,7322 L 9086,7172"/>
 <path fill="none" stroke="rgb(179,179,179)" stroke-linejoin="round" d="M 9207,7322 L 9207,7172"/>
 <path fill="none" stroke="rgb(179,179,179)" stroke-linejoin="round" d="M 9207,7322 L 9207,7172"/>
 <path fill="none" stroke="rgb(179,179,179)" stroke-linejoin="round" d="M 9328,7322 L 9328,7172"/>
 <path fill="none" stroke="rgb(179,179,179)" stroke-linejoin="round" d="M 9328,7322 L 9328,7172"/>
 <path fill="none" stroke="rgb(179,179,179)" stroke-linejoin="round" d="M 9449,7322 L 9449,7172"/>
 <path fill="none" stroke="rgb(179,179,179)" stroke-linejoin="round" d="M 9449,7322 L 9449,7172"/>
 <path fill="none" stroke="rgb(179,179,179)" stroke-linejoin="round" d="M 9570,7322 L 9570,7172"/>
 <path fill="none" stroke="rgb(179,179,179)" stroke-linejoin="round" d="M 9570,7322 L 9570,7172"/>
 <path fill="none" stroke="rgb(179,179,179)" stroke-linejoin="round" d="M 9692,7322 L 9692,7172"/>
 <path fill="none" stroke="rgb(179,179,179)" stroke-linejoin="round" d="M 9692,7322 L 9692,7172"/>
 <path fill="none" stroke="rgb(179,179,179)" stroke-linejoin="round" d="M 9813,7322 L 9813,7172"/>
 <path fill="none" stroke="rgb(179,179,179)" stroke-linejoin="round" d="M 9813,7322 L 9813,7172"/>
 <path fill="none" stroke="rgb(179,179,179)" stroke-linejoin="round" d="M 9934,7322 L 9934,7172"/>
 <path fill="none" stroke="rgb(179,179,179)" stroke-linejoin="round" d="M 9934,7322 L 9934,7172"/>
 <path fill="none" stroke="rgb(179,179,179)" stroke-linejoin="round" d="M 10054,7322 L 10054,7172"/>
 <path fill="none" stroke="rgb(179,179,179)" stroke-linejoin="round" d="M 10054,7322 L 10054,7172"/>
 <path fill="none" stroke="rgb(179,179,179)" stroke-linejoin="round" d="M 10175,7322 L 10175,7172"/>
 <path fill="none" stroke="rgb(179,179,179)" stroke-linejoin="round" d="M 10175,7322 L 10175,7172"/>
 <path fill="none" stroke="rgb(179,179,179)" stroke-linejoin="round" d="M 10297,7322 L 10297,7172"/>
 <path fill="none" stroke="rgb(179,179,179)" stroke-linejoin="round" d="M 10297,7322 L 10297,7172"/>
 <path fill="none" stroke="rgb(179,179,179)" stroke-linejoin="round" d="M 10418,7322 L 10418,7172"/>
 <path fill="none" stroke="rgb(179,179,179)" stroke-linejoin="round" d="M 10418,7322 L 10418,7172"/>
 <path fill="none" stroke="rgb(179,179,179)" stroke-linejoin="round" d="M 10539,7322 L 10539,7172"/>
 <path fill="none" stroke="rgb(179,179,179)" stroke-linejoin="round" d="M 10539,7322 L 10539,7172"/>
 <path fill="none" stroke="rgb(179,179,179)" stroke-linejoin="round" d="M 10660,7322 L 10660,7172"/>
 <path fill="none" stroke="rgb(179,179,179)" stroke-linejoin="round" d="M 10660,7322 L 10660,7172"/>
 <path fill="none" stroke="rgb(179,179,179)" stroke-linejoin="round" d="M 10781,7322 L 10781,7172"/>
 <path fill="none" stroke="rgb(179,179,179)" stroke-linejoin="round" d="M 10781,7322 L 10781,7172"/>
 <path fill="none" stroke="rgb(179,179,179)" stroke-linejoin="round" d="M 10903,7322 L 10903,7172"/>
 <path fill="none" stroke="rgb(179,179,179)" stroke-linejoin="round" d="M 10903,7322 L 10903,7172"/>
 <path fill="none" stroke="rgb(179,179,179)" stroke-linejoin="round" d="M 11024,7322 L 11024,7172"/>
 <path fill="none" stroke="rgb(179,179,179)" stroke-linejoin="round" d="M 11024,7322 L 11024,7172"/>
 <path fill="none" stroke="rgb(179,179,179)" stroke-linejoin="round" d="M 11145,7322 L 11145,7172"/>
 <path fill="none" stroke="rgb(179,179,179)" stroke-linejoin="round" d="M 11145,7322 L 11145,7172"/>
 <path fill="none" stroke="rgb(179,179,179)" stroke-linejoin="round" d="M 11266,7322 L 11266,7172"/>
 <path fill="none" stroke="rgb(179,179,179)" stroke-linejoin="round" d="M 11266,7322 L 11266,7172"/>
 <path fill="none" stroke="rgb(179,179,179)" stroke-linejoin="round" d="M 11387,7322 L 11387,7172"/>
 <path fill="none" stroke="rgb(179,179,179)" stroke-linejoin="round" d="M 11387,7322 L 11387,7172"/>
 <path fill="none" stroke="rgb(179,179,179)" stroke-linejoin="round" d="M 11509,7322 L 11509,7172"/>
 <path fill="none" stroke="rgb(179,179,179)" stroke-linejoin="round" d="M 11509,7322 L 11509,7172"/>
 <path fill="none" stroke="rgb(179,179,179)" stroke-linejoin="round" d="M 11630,7322 L 11630,7172"/>
 <path fill="none" stroke="rgb(179,179,179)" stroke-linejoin="round" d="M 11630,7322 L 11630,7172"/>
 <path fill="none" stroke="rgb(179,179,179)" stroke-linejoin="round" d="M 11751,7322 L 11751,7172"/>
 <path fill="none" stroke="rgb(179,179,179)" stroke-linejoin="round" d="M 11751,7322 L 11751,7172"/>
 <path fill="none" stroke="rgb(179,179,179)" stroke-linejoin="round" d="M 11872,7322 L 11872,7172"/>
 <path fill="none" stroke="rgb(179,179,179)" stroke-linejoin="round" d="M 11872,7322 L 11872,7172"/>
 <path fill="none" stroke="rgb(179,179,179)" stroke-linejoin="round" d="M 11993,7322 L 11993,7172"/>
 <path fill="none" stroke="rgb(179,179,179)" stroke-linejoin="round" d="M 11993,7322 L 11993,7172"/>
 <path fill="none" stroke="rgb(179,179,179)" stroke-linejoin="round" d="M 12115,7322 L 12115,7172"/>
 <path fill="none" stroke="rgb(179,179,179)" stroke-linejoin="round" d="M 12115,7322 L 12115,7172"/>
 <path fill="none" stroke="rgb(179,179,179)" stroke-linejoin="round" d="M 12236,7322 L 12236,7172"/>
 <path fill="none" stroke="rgb(179,179,179)" stroke-linejoin="round" d="M 12236,7322 L 12236,7172"/>
 <path fill="none" stroke="rgb(179,179,179)" stroke-linejoin="round" d="M 12357,7322 L 12357,7172"/>
 <path fill="none" stroke="rgb(179,179,179)" stroke-linejoin="round" d="M 12357,7322 L 12357,7172"/>
 <path fill="none" stroke="rgb(179,179,179)" stroke-linejoin="round" d="M 12478,7322 L 12478,7172"/>
 <path fill="none" stroke="rgb(179,179,179)" stroke-linejoin="round" d="M 12478,7322 L 12478,7172"/>
 <path fill="none" stroke="rgb(179,179,179)" stroke-linejoin="round" d="M 12599,7322 L 12599,7172"/>
 <path fill="none" stroke="rgb(179,179,179)" stroke-linejoin="round" d="M 12599,7322 L 12599,7172"/>
 <path fill="none" stroke="rgb(179,179,179)" stroke-linejoin="round" d="M 12721,7322 L 12721,7172"/>
 <path fill="none" stroke="rgb(179,179,179)" stroke-linejoin="round" d="M 12721,7322 L 12721,7172"/>
 <path fill="none" stroke="rgb(179,179,179)" stroke-linejoin="round" d="M 12842,7322 L 12842,7172"/>
 <path fill="none" stroke="rgb(179,179,179)" stroke-linejoin="round" d="M 12842,7322 L 12842,7172"/>
 <path fill="none" stroke="rgb(179,179,179)" stroke-linejoin="round" d="M 12963,7322 L 12963,7172"/>
 <path fill="none" stroke="rgb(179,179,179)" stroke-linejoin="round" d="M 12963,7322 L 12963,7172"/>
 <path fill="none" stroke="rgb(179,179,179)" stroke-linejoin="round" d="M 13084,7322 L 13084,7172"/>
 <path fill="none" stroke="rgb(179,179,179)" stroke-linejoin="round" d="M 13084,7322 L 13084,7172"/>
 <path fill="none" stroke="rgb(179,179,179)" stroke-linejoin="round" d="M 13205,7322 L 13205,7172"/>
 <path fill="none" stroke="rgb(179,179,179)" stroke-linejoin="round" d="M 13205,7322 L 13205,7172"/>
 <path fill="none" stroke="rgb(179,179,179)" stroke-linejoin="round" d="M 13327,7322 L 13327,7172"/>
 <path fill="none" stroke="rgb(179,179,179)" stroke-linejoin="round" d="M 13327,7322 L 13327,7172"/>
 <path fill="none" stroke="rgb(179,179,179)" stroke-linejoin="round" d="M 13448,7322 L 13448,7172"/>
 <path fill="none" stroke="rgb(179,179,179)" stroke-linejoin="round" d="M 13448,7322 L 13448,7172"/>
 <path fill="none" stroke="rgb(179,179,179)" stroke-linejoin="round" d="M 13569,7322 L 13569,7172"/>
 <path fill="none" stroke="rgb(179,179,179)" stroke-linejoin="round" d="M 13569,7322 L 13569,7172"/>
 <path fill="none" stroke="rgb(179,179,179)" stroke-linejoin="round" d="M 13690,7322 L 13690,7172"/>
 <path fill="none" stroke="rgb(179,179,179)" stroke-linejoin="round" d="M 13690,7322 L 13690,7172"/>
 <path fill="none" stroke="rgb(179,179,179)" stroke-linejoin="round" d="M 13811,7322 L 13811,7172"/>
 <path fill="none" stroke="rgb(179,179,179)" stroke-linejoin="round" d="M 13811,7322 L 13811,7172"/>
 <path fill="none" stroke="rgb(179,179,179)" stroke-linejoin="round" d="M 13933,7322 L 13933,7172"/>
 <path fill="none" stroke="rgb(179,179,179)" stroke-linejoin="round" d="M 13933,7322 L 13933,7172"/>
 <path fill="none" stroke="rgb(179,179,179)" stroke-linejoin="round" d="M 14054,7322 L 14054,7172"/>
 <path fill="none" stroke="rgb(179,179,179)" stroke-linejoin="round" d="M 14054,7322 L 14054,7172"/>
 <path fill="none" stroke="rgb(179,179,179)" stroke-linejoin="round" d="M 14175,7322 L 14175,7172"/>
 <path fill="none" stroke="rgb(179,179,179)" stroke-linejoin="round" d="M 14175,7322 L 14175,7172"/>
 <path fill="none" stroke="rgb(179,179,179)" stroke-linejoin="round" d="M 14296,7322 L 14296,7172"/>
 <path fill="none" stroke="rgb(179,179,179)" stroke-linejoin="round" d="M 14296,7322 L 14296,7172"/>
 <path fill="none" stroke="rgb(179,179,179)" stroke-linejoin="round" d="M 14418,7322 L 14418,7172"/>
 <path fill="none" stroke="rgb(179,179,179)" stroke-linejoin="round" d="M 14418,7322 L 14418,7172"/>
 <path fill="none" stroke="rgb(179,179,179)" stroke-linejoin="round" d="M 2420,7172 L 14418,7172"/>
 <path fill="none" stroke="rgb(179,179,179)" stroke-linejoin="round" d="M 2270,7172 L 2420,7172"/>
 <path fill="none" stroke="rgb(179,179,179)" stroke-linejoin="round" d="M 2270,7172 L 2420,7172"/>
 <path fill="none" stroke="rgb(179,179,179)" stroke-linejoin="round" d="M 2270,6457 L 2420,6457"/>
 <path fill="none" stroke="rgb(179,179,179)" stroke-linejoin="round" d="M 2270,6457 L 2420,6457"/>
 <path fill="none" stroke="rgb(179,179,179)" stroke-linejoin="round" d="M 2270,5742 L 2420,5742"/>
 <path fill="none" stroke="rgb(179,179,179)" stroke-linejoin="round" d="M 2270,5742 L 2420,5742"/>
 <path fill="none" stroke="rgb(179,179,179)" stroke-linejoin="round" d="M 2270,5027 L 2420,5027"/>
 <path fill="none" stroke="rgb(179,179,179)" stroke-linejoin="round" d="M 2270,5027 L 2420,5027"/>
 <path fill="none" stroke="rgb(179,179,179)" stroke-linejoin="round" d="M 2270,4313 L 2420,4313"/>
 <path fill="none" stroke="rgb(179,179,179)" stroke-linejoin="round" d="M 2270,4313 L 2420,4313"/>
 <path fill="none" stroke="rgb(179,179,179)" stroke-linejoin="round" d="M 2270,3598 L 2420,3598"/>
 <path fill="none" stroke="rgb(179,179,179)" stroke-linejoin="round" d="M 2270,3598 L 2420,3598"/>
 <path fill="none" stroke="rgb(179,179,179)" stroke-linejoin="round" d="M 2270,2883 L 2420,2883"/>
 <path fill="none" stroke="rgb(179,179,179)" stroke-linejoin="round" d="M 2270,2883 L 2420,2883"/>
 <path fill="none" stroke="rgb(179,179,179)" stroke-linejoin="round" d="M 2270,2168 L 2420,2168"/>
 <path fill="none" stroke="rgb(179,179,179)" stroke-linejoin="round" d="M 2270,2168 L 2420,2168"/>
 <path fill="none" stroke="rgb(179,179,179)" stroke-linejoin="round" d="M 2270,1454 L 2420,1454"/>
 <path fill="none" stroke="rgb(179,179,179)" stroke-linejoin="round" d="M 2270,1454 L 2420,1454"/>
 <path fill="none" stroke="rgb(179,179,179)" stroke-linejoin="round" d="M 2420,7172 L 2420,1454"/>
 <path fill="none" stroke="rgb(0,69,134)" stroke-width="80" stroke-linejoin="round" d="M 2420,3884 L 2541,4598 2662,4812 2783,5527 2904,5170 3026,6385 3147,5813 3268,5956 3389,5313 3510,5313 3632,5527 3753,5384 3874,5670 3995,5885 4116,5599 4238,5170 4359,5456 4480,5885 4601,5670 4722,5599 4844,5670 4965,4526 5086,5241 5207,4170 5328,5670 5450,6242 5571,5384 5692,5956 5813,5313 5934,5456 6056,5170 6177,5527 6298,5813 6419,5456 6540,5456 6662,4955 6783,5456 6904,4955 7025,5241 7146,4955 7268,6099 7389,6028 7510,5599 7631,5885 7752,5170 7874,5670 7995,5599 8116,5170 8237,5241 8358,6028 8480,5313 8601,5241 8722,5456 8843,5456 8964,5313 9086,5313 9207,5742 9328,5170 9449,5098 9570,5241 9692,5813 9813,5670 9934,5313 10054,5956 10175,5527 10297,4812 10418,5027 10539,5384 10660,5384 10781,5885 10903,5885 11024,5241 11145,4170 11266,4955 11387,5599 11509,4170 11630,5742 11751,6171 11872,5527 11993,5384 12115,5885 12236,5456 12357,5313 12478,5599 12599,5384 12721,5956 12842,5956 12963,5670 13084,5241 13205,5527 13327,5742 13448,5384 13569,5313 13690,4669 13811,1954 13933,4027 14054,4456 14175,5313 14296,4741 14418,2311"/>
 <path fill="none" stroke="rgb(255,66,14)" stroke-width="80" stroke-linejoin="round" d="M 2420,7100 L 2541,7100 2662,7100 2783,7100 2904,7100 3026,7029 3147,7172 3268,7100 3389,7100 3510,7100 3632,7029 3753,7100 3874,7029 3995,7100 4116,7100 4238,7100 4359,7029 4480,7100 4601,7100 4722,7029 4844,7172 4965,7100 5086,7100 5207,6814 5328,7172 5450,7172 5571,7100 5692,7172 5813,6886 5934,6957 6056,7172 6177,7029 6298,6886 6419,7029 6540,7100 6662,7100 6783,7029 6904,7029 7025,7100 7146,6886 7268,6957 7389,7100 7510,7100 7631,7172 7752,7100 7874,7100 7995,7029 8116,7100 8237,7100 8358,7029 8480,7100 8601,7100 8722,6957 8843,7100 8964,7029 9086,7100 9207,7172 9328,7100 9449,7029 9570,7100 9692,7100 9813,7029 9934,6886 10054,7100 10175,7100 10297,7100 10418,7172 10539,7029 10660,6957 10781,7100 10903,7029 11024,6886 11145,7100 11266,7100 11387,7029 11509,7100 11630,7172 11751,6957 11872,7029 11993,7172 12115,7100 12236,7100 12357,7100 12478,7100 12599,7172 12721,6957 12842,7172 12963,7172 13084,7100 13205,7172 13327,7100 13448,7100 13569,6957 13690,7100 13811,7029 13933,7029 14054,7172 14175,6671 14296,7100 14418,7029"/>
 <path fill="none" stroke="rgb(255,211,32)" stroke-width="80" stroke-linejoin="round" d="M 2420,3813 L 2541,4526 2662,4741 2783,5456 2904,5098 3026,6242 3147,5813 3268,5885 3389,5241 3510,5241 3632,5384 3753,5313 3874,5527 3995,5813 4116,5527 4238,5098 4359,5313 4480,5813 4601,5599 4722,5456 4844,5670 4965,4456 5086,5170 5207,3813 5328,5670 5450,6242 5571,5313 5692,5956 5813,5027 5934,5241 6056,5170 6177,5384 6298,5527 6419,5313 6540,5384 6662,4884 6783,5313 6904,4812 7025,5170 7146,4669 7268,5885 7389,5956 7510,5527 7631,5885 7752,5098 7874,5599 7995,5456 8116,5098 8237,5170 8358,5885 8480,5241 8601,5170 8722,5241 8843,5384 8964,5170 9086,5241 9207,5742 9328,5098 9449,4955 9570,5170 9692,5742 9813,5527 9934,5027 10054,5885 10175,5456 10297,4741 10418,5027 10539,5241 10660,5170 10781,5813 10903,5742 11024,4955 11145,4099 11266,4884 11387,5456 11509,4099 11630,5742 11751,5956 11872,5384 11993,5384 12115,5813 12236,5384 12357,5241 12478,5527 12599,5384 12721,5742 12842,5956 12963,5670 13084,5170 13205,5527 13327,5670 13448,5313 13569,5098 13690,4598 13811,1811 13933,3884 14054,4456 14175,4812 14296,4669 14418,2168"/>
 <text class="SVGTextShape" transform="rotate(-44.9 2372 7779)"><tspan class="TextParagraph" font-family="Liberation Sans, sans-serif" font-size="353px" font-weight="400"><tspan class="TextPosition" x="2372" y="7779"><tspan fill="rgb(0,0,0)" stroke="none" style="white-space: pre">1</tspan></tspan></tspan></text>
 <text class="SVGTextShape" transform="rotate(-44.9 2978 7779)"><tspan class="TextParagraph" font-family="Liberation Sans, sans-serif" font-size="353px" font-weight="400"><tspan class="TextPosition" x="2978" y="7779"><tspan fill="rgb(0,0,0)" stroke="none" style="white-space: pre">6</tspan></tspan></tspan></text>
 <text class="SVGTextShape" transform="rotate(-44.9 3453 7909)"><tspan class="TextParagraph" font-family="Liberation Sans, sans-serif" font-size="353px" font-weight="400"><tspan class="TextPosition" x="3453" y="7909"><tspan fill="rgb(0,0,0)" stroke="none" style="white-space: pre">11</tspan></tspan></tspan></text>
 <text class="SVGTextShape" transform="rotate(-44.9 4059 7909)"><tspan class="TextParagraph" font-family="Liberation Sans, sans-serif" font-size="353px" font-weight="400"><tspan class="TextPosition" x="4059" y="7909"><tspan fill="rgb(0,0,0)" stroke="none" style="white-space: pre">16</tspan></tspan></tspan></text>
 <text class="SVGTextShape" transform="rotate(-44.9 4665 7909)"><tspan class="TextParagraph" font-family="Liberation Sans, sans-serif" font-size="353px" font-weight="400"><tspan class="TextPosition" x="4665" y="7909"><tspan fill="rgb(0,0,0)" stroke="none" style="white-space: pre">21</tspan></tspan></tspan></text>
 <text class="SVGTextShape" transform="rotate(-44.9 5271 7909)"><tspan class="TextParagraph" font-family="Liberation Sans, sans-serif" font-size="353px" font-weight="400"><tspan class="TextPosition" x="5271" y="7909"><tspan fill="rgb(0,0,0)" stroke="none" style="white-space: pre">26</tspan></tspan></tspan></text>
 <text class="SVGTextShape" transform="rotate(-44.9 5877 7909)"><tspan class="TextParagraph" font-family="Liberation Sans, sans-serif" font-size="353px" font-weight="400"><tspan class="TextPosition" x="5877" y="7909"><tspan fill="rgb(0,0,0)" stroke="none" style="white-space: pre">31</tspan></tspan></tspan></text>
 <text class="SVGTextShape" transform="rotate(-44.9 6483 7909)"><tspan class="TextParagraph" font-family="Liberation Sans, sans-serif" font-size="353px" font-weight="400"><tspan class="TextPosition" x="6483" y="7909"><tspan fill="rgb(0,0,0)" stroke="none" style="white-space: pre">36</tspan></tspan></tspan></text>
 <text class="SVGTextShape" transform="rotate(-44.9 7089 7909)"><tspan class="TextParagraph" font-family="Liberation Sans, sans-serif" font-size="353px" font-weight="400"><tspan class="TextPosition" x="7089" y="7909"><tspan fill="rgb(0,0,0)" stroke="none" style="white-space: pre">41</tspan></tspan></tspan></text>
 <text class="SVGTextShape" transform="rotate(-44.9 7695 7909)"><tspan class="TextParagraph" font-family="Liberation Sans, sans-serif" font-size="353px" font-weight="400"><tspan class="TextPosition" x="7695" y="7909"><tspan fill="rgb(0,0,0)" stroke="none" style="white-space: pre">46</tspan></tspan></tspan></text>
 <text class="SVGTextShape" transform="rotate(-44.9 8301 7909)"><tspan class="TextParagraph" font-family="Liberation Sans, sans-serif" font-size="353px" font-weight="400"><tspan class="TextPosition" x="8301" y="7909"><tspan fill="rgb(0,0,0)" stroke="none" style="white-space: pre">51</tspan></tspan></tspan></text>
 <text class="SVGTextShape" transform="rotate(-44.9 8907 7909)"><tspan class="TextParagraph" font-family="Liberation Sans, sans-serif" font-size="353px" font-weight="400"><tspan class="TextPosition" x="8907" y="7909"><tspan fill="rgb(0,0,0)" stroke="none" style="white-space: pre">56</tspan></tspan></tspan></text>
 <text class="SVGTextShape" transform="rotate(-44.9 9513 7909)"><tspan class="TextParagraph" font-family="Liberation Sans, sans-serif" font-size="353px" font-weight="400"><tspan class="TextPosition" x="9513" y="7909"><tspan fill="rgb(0,0,0)" stroke="none" style="white-space: pre">61</tspan></tspan></tspan></text>
 <text class="SVGTextShape" transform="rotate(-44.9 10119 7909)"><tspan class="TextParagraph" font-family="Liberation Sans, sans-serif" font-size="353px" font-weight="400"><tspan class="TextPosition" x="10119" y="7909"><tspan fill="rgb(0,0,0)" stroke="none" style="white-space: pre">66</tspan></tspan></tspan></text>
 <text class="SVGTextShape" transform="rotate(-44.9 10725 7909)"><tspan class="TextParagraph" font-family="Liberation Sans, sans-serif" font-size="353px" font-weight="400"><tspan class="TextPosition" x="10725" y="7909"><tspan fill="rgb(0,0,0)" stroke="none" style="white-space: pre">71</tspan></tspan></tspan></text>
 <text class="SVGTextShape" transform="rotate(-44.9 11331 7909)"><tspan class="TextParagraph" font-family="Liberation Sans, sans-serif" font-size="353px" font-weight="400"><tspan class="TextPosition" x="11331" y="7909"><tspan fill="rgb(0,0,0)" stroke="none" style="white-space: pre">76</tspan></tspan></tspan></text>
 <text class="SVGTextShape" transform="rotate(-44.9 11937 7909)"><tspan class="TextParagraph" font-family="Liberation Sans, sans-serif" font-size="353px" font-weight="400"><tspan class="TextPosition" x="11937" y="7909"><tspan fill="rgb(0,0,0)" stroke="none" style="white-space: pre">81</tspan></tspan></tspan></text>
 <text class="SVGTextShape" transform="rotate(-44.9 12543 7909)"><tspan class="TextParagraph" font-family="Liberation Sans, sans-serif" font-size="353px" font-weight="400"><tspan class="TextPosition" x="12543" y="7909"><tspan fill="rgb(0,0,0)" stroke="none" style="white-space: pre">86</tspan></tspan></tspan></text>
 <text class="SVGTextShape" transform="rotate(-44.9 13149 7909)"><tspan class="TextParagraph" font-family="Liberation Sans, sans-serif" font-size="353px" font-weight="400"><tspan class="TextPosition" x="13149" y="7909"><tspan fill="rgb(0,0,0)" stroke="none" style="white-space: pre">91</tspan></tspan></tspan></text>
 <text class="SVGTextShape" transform="rotate(-44.9 13755 7909)"><tspan class="TextParagraph" font-family="Liberation Sans, sans-serif" font-size="353px" font-weight="400"><tspan class="TextPosition" x="13755" y="7909"><tspan fill="rgb(0,0,0)" stroke="none" style="white-space: pre">96</tspan></tspan></tspan></text>
 <text class="SVGTextShape"><tspan class="TextParagraph" font-family="Liberation Sans, sans-serif" font-size="353px" font-weight="400"><tspan class="TextPosition" x="1985" y="7293"><tspan fill="rgb(0,0,0)" stroke="none" style="white-space: pre">0</tspan></tspan></tspan></text>
 <text class="SVGTextShape"><tspan class="TextParagraph" font-family="Liberation Sans, sans-serif" font-size="353px" font-weight="400"><tspan class="TextPosition" x="1800" y="6578"><tspan fill="rgb(0,0,0)" stroke="none" style="white-space: pre">10</tspan></tspan></tspan></text>
 <text class="SVGTextShape"><tspan class="TextParagraph" font-family="Liberation Sans, sans-serif" font-size="353px" font-weight="400"><tspan class="TextPosition" x="1800" y="5863"><tspan fill="rgb(0,0,0)" stroke="none" style="white-space: pre">20</tspan></tspan></tspan></text>
 <text class="SVGTextShape"><tspan class="TextParagraph" font-family="Liberation Sans, sans-serif" font-size="353px" font-weight="400"><tspan class="TextPosition" x="1800" y="5148"><tspan fill="rgb(0,0,0)" stroke="none" style="white-space: pre">30</tspan></tspan></tspan></text>
 <text class="SVGTextShape"><tspan class="TextParagraph" font-family="Liberation Sans, sans-serif" font-size="353px" font-weight="400"><tspan class="TextPosition" x="1800" y="4433"><tspan fill="rgb(0,0,0)" stroke="none" style="white-space: pre">40</tspan></tspan></tspan></text>
 <text class="SVGTextShape"><tspan class="TextParagraph" font-family="Liberation Sans, sans-serif" font-size="353px" font-weight="400"><tspan class="TextPosition" x="1800" y="3718"><tspan fill="rgb(0,0,0)" stroke="none" style="white-space: pre">50</tspan></tspan></tspan></text>
 <text class="SVGTextShape"><tspan class="TextParagraph" font-family="Liberation Sans, sans-serif" font-size="353px" font-weight="400"><tspan class="TextPosition" x="1800" y="3003"><tspan fill="rgb(0,0,0)" stroke="none" style="white-space: pre">60</tspan></tspan></tspan></text>
 <text class="SVGTextShape"><tspan class="TextParagraph" font-family="Liberation Sans, sans-serif" font-size="353px" font-weight="400"><tspan class="TextPosition" x="1800" y="2288"><tspan fill="rgb(0,0,0)" stroke="none" style="white-space: pre">70</tspan></tspan></tspan></text>
 <text class="SVGTextShape"><tspan class="TextParagraph" font-family="Liberation Sans, sans-serif" font-size="353px" font-weight="400"><tspan class="TextPosition" x="1800" y="1574"><tspan fill="rgb(0,0,0)" stroke="none" style="white-space: pre">80</tspan></tspan></tspan></text>
 <text class="SVGTextShape"><tspan class="TextParagraph" font-family="Liberation Sans, sans-serif" font-size="459px" font-weight="400"><tspan class="TextPosition" x="5274" y="859"><tspan fill="rgb(0,0,0)" stroke="none" style="white-space: pre">Artikel je Tag bis 8. März 2025</tspan></tspan></tspan></text>
 <path fill="none" stroke="rgb(0,69,134)" stroke-width="80" stroke-linejoin="round" d="M 14870,3988 L 15670,3988"/>
 <path fill="none" stroke="rgb(255,66,14)" stroke-width="80" stroke-linejoin="round" d="M 14870,4486 L 15670,4486"/>
 <path fill="none" stroke="rgb(255,211,32)" stroke-width="80" stroke-linejoin="round" d="M 14870,4983 L 15670,4983"/>
 <text class="SVGTextShape"><tspan class="TextParagraph" font-family="Liberation Sans, sans-serif" font-size="353px" font-weight="400"><tspan class="TextPosition" x="15770" y="4108"><tspan fill="rgb(0,0,0)" stroke="none" style="white-space: pre">Biografien</tspan></tspan></tspan></text>
 <text class="SVGTextShape"><tspan class="TextParagraph" font-family="Liberation Sans, sans-serif" font-size="353px" font-weight="400"><tspan class="TextPosition" x="15770" y="4605"><tspan fill="rgb(0,0,0)" stroke="none" style="white-space: pre">Frauenbezogene Themen</tspan></tspan></tspan></text>
 <text class="SVGTextShape"><tspan class="TextParagraph" font-family="Liberation Sans, sans-serif" font-size="353px" font-weight="400"><tspan class="TextPosition" x="15770" y="5103"><tspan fill="rgb(0,0,0)" stroke="none" style="white-space: pre">alle</tspan></tspan></tspan></text>
 <text class="SVGTextShape"><tspan class="TextParagraph" font-family="Liberation Sans, sans-serif" font-size="318px" font-weight="400"><tspan class="TextPosition" x="7831" y="8532"><tspan fill="rgb(0,0,0)" stroke="none" style="white-space: pre">Tag</tspan></tspan></tspan></text>
 <text class="SVGTextShape" transform="rotate(-90 1225 5113)"><tspan class="TextParagraph" font-family="Liberation Sans, sans-serif" font-size="318px" font-weight="400"><tspan class="TextPosition" x="1225" y="5113"><tspan fill="rgb(0,0,0)" stroke="none" style="white-space: pre">Anzahl</tspan></tspan></tspan></text>
</svg>