<?xml version="1.0" encoding="UTF-8" standalone="no"?>
<!-- Created with Inkscape (http://www.inkscape.org/) -->

<svg
   xmlns:dc="http://purl.org/dc/elements/1.1/"
   xmlns:cc="http://creativecommons.org/ns#"
   xmlns:rdf="http://www.w3.org/1999/02/22-rdf-syntax-ns#"
   xmlns:svg="http://www.w3.org/2000/svg"
   xmlns="http://www.w3.org/2000/svg"
   xmlns:sodipodi="http://sodipodi.sourceforge.net/DTD/sodipodi-0.dtd"
   xmlns:inkscape="http://www.inkscape.org/namespaces/inkscape"
   width="740"
   height="622"
   id="svg2"
   version="1.1"
   inkscape:version="0.48.4 r9939"
   sodipodi:docname="dessin.svg">
  <defs
     id="defs4" />
  <sodipodi:namedview
     id="base"
     pagecolor="#ffffff"
     bordercolor="#666666"
     borderopacity="1.0"
     inkscape:pageopacity="0.0"
     inkscape:pageshadow="2"
     inkscape:zoom="0.70710678"
     inkscape:cx="-89.41864"
     inkscape:cy="286.19492"
     inkscape:document-units="px"
     inkscape:current-layer="layer1"
     showgrid="false"
     fit-margin-top="0"
     fit-margin-left="0"
     fit-margin-right="0"
     fit-margin-bottom="0"
     inkscape:window-width="1366"
     inkscape:window-height="688"
     inkscape:window-x="0"
     inkscape:window-y="25"
     inkscape:window-maximized="1" />
  <metadata
     id="metadata7">
    <rdf:RDF>
      <cc:Work
         rdf:about="">
        <dc:format>image/svg+xml</dc:format>
        <dc:type
           rdf:resource="http://purl.org/dc/dcmitype/StillImage" />
        <dc:title></dc:title>
      </cc:Work>
    </rdf:RDF>
  </metadata>
  <g
     inkscape:label="Calque 1"
     inkscape:groupmode="layer"
     id="layer1"
     transform="translate(336.47816,-199.52786)">
    <rect
       style="fill:#ffffff;fill-opacity:1;fill-rule:evenodd;stroke:none"
       id="rect3062"
       width="719.83472"
       height="602.45496"
       x="11.313708"
       y="6.8171029"
       transform="translate(-336.47816,199.52786)" />
    <path
       style="fill:#131816"
       d="m -336.47816,510.52786 0,-311 369.999996,0 370.000004,0 0,311 0,311 -370.000004,0 -369.999996,0 0,-311 z M 239.9364,791.54971 c 4.25397,-1.08798 10.06345,-3.21946 12.90996,-4.73662 5.59752,-2.98341 17.14664,-13.92517 19.84242,-18.79892 l 1.66694,-3.01368 -9.85399,-5.23632 c -5.41969,-2.87997 -10.29399,-5.23631 -10.83177,-5.23631 -0.53778,0 -2.63393,2.25613 -4.65811,5.01362 -5.46768,7.44846 -11.20724,10.43886 -19.95706,10.39793 -8.0368,-0.0376 -13.04485,-2.12454 -18.17515,-7.57392 -7.0142,-7.45044 -9.80252,-16.93495 -9.14038,-31.09108 0.59473,-12.71503 3.97255,-21.18542 10.76784,-27.00193 5.58608,-4.78148 9.66453,-6.04661 17.9783,-5.57684 5.51762,0.31178 7.5819,0.93733 11.0801,3.35769 3.89957,2.69806 9.19314,8.7866 10.25005,11.78936 0.49931,1.41858 21.70629,-8.72136 21.70629,-10.37868 0,-1.96688 -5.6911,-9.36849 -11.21404,-14.58451 -10.40942,-9.83095 -21.67699,-13.80799 -37.16552,-13.1181 -11.96078,0.53277 -17.56024,2.29044 -26.81962,8.41868 -10.69061,7.0755 -17.32699,16.56879 -21.93162,31.373 -2.99871,9.64106 -3.24242,26.82527 -0.53237,37.53738 7.43429,29.38581 34.9596,45.90641 64.07773,38.45925 z m -77.66456,-1.94913 2.25,-0.0727 0,-55.52822 0,-55.52822 -13.75,0.27822 -13.75,0.27822 -0.0104,52 c -0.006,28.6 0.16201,53.44014 0.37278,55.20032 0.23337,1.94885 1.01887,3.32274 2.00872,3.51336 1.33913,0.2579 12.70426,0.18787 22.87895,-0.14096 z m 141.50129,-8.32272 2.91538,-8.75 20.35721,0 20.35721,0 2.81256,8.75 2.81256,8.75 14.24689,0.27746 c 16.27917,0.31703 15.89346,0.58065 12.28163,-8.39411 -1.0809,-2.68584 -7.86753,-21.08335 -15.0814,-40.88335 -7.21387,-19.8 -15.26238,-41.85 -17.88558,-49 l -4.76945,-13 -14.38188,0 -14.38188,0 -2.73349,6.7974 c -2.61886,6.51233 -7.8653,20.64969 -28.44722,76.65545 -5.14461,13.99907 -9.35383,26.04893 -9.35383,26.77746 0,1.0502 2.93504,1.26713 14.16796,1.04715 l 14.16796,-0.27746 2.91537,-8.75 z m 9.74871,-29.67201 c 0,-0.5071 1.98587,-7.3696 4.41305,-15.25 2.42718,-7.88039 5.1941,-17.25299 6.1487,-20.82799 0.9546,-3.575 2.07825,-6.88703 2.49701,-7.36007 0.41876,-0.47304 2.40964,4.47696 4.42419,11 2.01455,6.52304 4.98002,16.02795 6.58993,21.12203 1.60992,5.09407 2.92712,9.93157 2.92712,10.75 0,1.2439 -2.21488,1.48804 -13.5,1.48804 -7.572,0 -13.5,-0.40486 -13.5,-0.92201 z m -593.97131,37.67201 c 0.0158,-0.1375 1.28674,-4.075 2.82436,-8.75 l 2.79569,-8.5 20.42563,0 20.42563,0 2.8131,8.75 2.8131,8.75 14.55348,0 14.55347,0 -0.50612,-2.25 c -0.47524,-2.11271 -12.26208,-34.21472 -35.43174,-96.5 l -4.55691,-12.25 -3.61919,-0.041 c -1.99055,-0.0226 -8.26249,-0.14258 -13.93764,-0.26671 -5.67514,-0.12413 -10.68364,0.007 -11.12998,0.29103 -0.44634,0.28416 -4.1999,9.74168 -8.34125,21.01668 -4.14134,11.275 -12.3208,33.55 -18.17659,49.5 -5.85578,15.95 -11.52142,31.10842 -12.5903,33.68538 -1.06889,2.57696 -1.94343,5.16446 -1.94343,5.75 0,0.70388 4.91327,1.06462 14.5,1.06462 7.975,0 14.51291,-0.1125 14.52869,-0.25 z m 13.56054,-42.5 c 0.82146,-2.6125 3.81969,-12.73275 6.66272,-22.48945 2.84303,-9.7567 5.48534,-17.4067 5.87179,-17 0.53492,0.56295 9.76266,29.5991 13.50322,42.48945 0.4665,1.6076 -0.63299,1.75 -13.51174,1.75 l -14.01955,0 1.49356,-4.75 z m 100.37521,27 c -0.0196,-8.6625 -0.44513,-28.33693 -0.94572,-43.72095 -0.50058,-15.38403 -0.76327,-28.11783 -0.58376,-28.29735 0.17952,-0.17951 1.11097,2.95742 2.0699,6.97096 1.6132,6.752 19.29689,70.15821 21.63598,77.57742 l 1.03412,3.28007 12.11096,-0.28007 12.11097,-0.28008 6.75138,-24 c 3.71326,-13.2 8.88182,-31.875 11.48567,-41.5 2.603856,-9.625 5.142516,-17.95 5.641476,-18.5 0.54549,-0.6013 0.67924,2.78762 0.33547,8.5 -0.31444,5.225 -0.85192,24.4625 -1.1944,42.75 l -0.62269,33.25 12.99181,0 12.99181,0 0.58728,-3.25 c 0.76039,-4.208 0.71628,-56.87843 -0.0716,-85.5202 l -0.61263,-22.27019 -20.00622,0.27019 -20.006216,0.2702 -2.71244,10 c -7.72961,28.49681 -14.37747,53.73791 -15.73662,59.75 -0.83928,3.7125 -1.81328,6.75 -2.16444,6.75 -0.35117,0 -2.06613,-5.9625 -3.81102,-13.25 -1.7449,-7.2875 -6.28661,-24.5 -10.09269,-38.25 l -6.92014,-25 -20.61533,-0.27029 -20.61535,-0.27029 0,54.85362 c 0,30.1695 0.3,55.15363 0.66667,55.52029 0.36666,0.36667 6.44166,0.66667 13.5,0.66667 l 12.83333,0 -0.0356,-15.75 z m 192.035556,5.25 0,-10.5 -27.9182096,0 c -15.3550204,0 -28.6300204,-0.27314 -29.5000004,-0.60699 -1.32921,-0.51006 -1.58179,-2.66575 -1.58179,-13.5 l 0,-12.89301 24.9546904,0 24.9546796,0 0.62333,-3.32262 c 0.50225,-2.67723 0.34564,-8.42133 -0.46153,-16.92738 -0.0391,-0.4125 -11.3211696,-0.75 -25.0711696,-0.75 l -25.0000004,0 0,-10.5 0,-10.5 27.0000004,0 26.9999996,0 0,-10.5 0,-10.5 -41,0 -41,0 0,55.5 0,55.5 43.5,0 43.5,0 0,-10.5 z m 35,-9 0,-19.5 3.25,-0.16602 c 3.13722,-0.16027 6.27098,-0.14277 11.93932,0.0667 2.43327,0.0899 3.71144,1.95591 13.42506,19.59936 l 10.73575,19.5 14.824944,0 c 8.15371,-4e-5 14.82493,-0.30841 14.82493,-0.6853 0,-0.7115 -9.27722,-17.45003 -14.03053,-25.31474 -1.49585,-2.475 -4.37571,-7.51259 -6.3997,-11.19464 l -3.67998,-6.69463 5.50747,-2.60545 c 7.53724,-3.56569 14.01703,-10.90606 15.67031,-17.75149 4.01598,-16.62819 -2.02109,-33.68159 -14.43865,-40.78604 -9.28345,-5.31133 -15.676624,-6.05925 -49.128924,-5.74741 l -30,0.27966 -0.24885,55.25 -0.24884,55.25 13.99884,0 13.99885,0 0,-19.5 z m 0,-55.5 0,-15 4.75,-0.11181 c 13.38636,-0.3151 24.84658,0.33424 27.81913,1.57625 4.92311,2.057 6.89515,5.80454 6.914454,13.13977 0.0126,4.77928 -0.473054,6.9048 -2.072034,9.06904 -3.89058,5.26594 -7.43102,6.2257 -23.16155,6.27872 l -14.25,0.048 0,-15 z M 1.0304164,666.66288 c 3.87408,-1.75996 10.4914196,-8.18264 10.4914196,-10.18281 0,-0.53801 -2.0304696,-1.96468 -4.5121496,-3.17037 l -4.51214,-2.19217 -1.54856,2.21087 c -1.89215,2.70142 -6.52335,5.20077 -9.62749,5.19572 -3.6888704,-0.006 -8.7969804,-3.7456 -10.4190204,-7.62768 -0.82445,-1.97319 -1.54554,-5.67584 -1.60242,-8.2281 -0.34264,-15.37524 12.1595004,-22.73817 20.9331804,-12.32826 l 2.21141,2.62381 4.53859,-2.20502 c 2.49623,-1.21276 4.5385996,-2.62634 4.5385996,-3.14129 0,-2.16985 -5.7821596,-7.54497 -10.4591296,-9.72285 -9.54847,-4.44634 -19.5352504,-2.74949 -26.5861204,4.51724 -12.91997,13.31552 -9.33872,37.78806 6.54525,44.72704 4.45871,1.94781 15.2375204,1.69131 20.0085804,-0.47613 z M 196.27184,666.07379 c 4.10312,-2.34599 4.25,-2.36096 4.25,-0.43316 0,1.75827 0.56744,1.9604 4.75,1.69202 l 4.75,-0.30479 0,-13.5 0,-13.5 -10.5,0 -10.5,0 0,4.5 0,4.5 5.25,0.30226 c 4.34204,0.24999 5.25,0.62374 5.25,2.16111 0,3.21969 -5.61616,7.03853 -10.32673,7.02189 -5.88487,-0.0208 -8.83066,-1.81317 -11.42327,-6.95055 -5.74965,-11.39323 0.25842,-26.03471 10.68325,-26.03471 3.10311,0 8.27828,2.40019 10.46348,4.85286 l 1.89673,2.12889 3.60327,-2.15091 c 5.5594,-3.31859 5.68435,-3.58216 3.04003,-6.41276 -4.74071,-5.07464 -10.6168,-7.69938 -18.29247,-8.17088 -6.4092,-0.39371 -7.70815,-0.14174 -12.62447,2.4489 -9.06104,4.77469 -13.42869,13.04237 -13.1636,24.91783 0.35204,15.77013 8.94505,25.39894 22.64378,25.37324 4.50668,-0.008 7.05777,-0.61605 10.25,-2.44124 z m -401.52071,-18.79593 0.27071,-20.25 6.5,-0.5 6.5,-0.5 0.0739,-3.5 c 0.13133,-6.22355 0.86461,-6 -19.68085,-6 l -18.89305,0 0,5 0,5 6.5,0 6.5,0 0,20.5 0,20.5 5.97929,0 5.9793,0 0.2707,-20.25 z m 29.98688,9.5 0.28383,-10.75 9.25,-0.28753 9.25,-0.28752 0,11.03752 0,11.03753 6,0 c 4.11099,0 6.01319,-0.39354 6.0419,-1.25 0.10107,-3.01528 0.15325,-42.62028 0.0607,-46.0499 l -0.1026,-3.79991 -5.75,0.29991 -5.75,0.2999 -0.5,9 -0.5,9 -9,0 -9,0 -0.28753,-9.25 -0.28752,-9.25 -5.96248,0 -5.96247,0 -0.082,4.25 c -0.0451,2.3375 -0.24218,11 -0.43797,19.25 -0.1958,8.25 -0.10649,17.8125 0.19847,21.25 l 0.55446,6.25 5.84968,0 5.84967,0 0.28383,-10.75 z m 49.2852,6.75 1.17251,-3.5 9.55547,-0.28491 9.55546,-0.28492 0.89168,3.78492 0.89168,3.78491 6.841526,0.29855 c 5.2762,0.23025 6.73438,10e-4 6.37317,-1 -12.866786,-35.67279 -17.287026,-47.53919 -18.100606,-48.59215 -0.67276,-0.8707 -2.98658,-1.19762 -7.07767,-1 l -6.07816,0.2936 -9.20159,24.5 c -5.06087,13.475 -9.22932,24.85806 -9.26321,25.29569 -0.0339,0.43763 2.93736,0.66263 6.6028,0.5 6.63673,-0.29446 6.6693,-0.31023 7.83694,-3.79569 z m 5.11928,-13.80478 c -0.57688,-0.93342 4.60046,-19.19003 5.44294,-19.19314 0.51026,-0.002 5.93641,17.63805 5.93641,19.29874 0,0.97894 -10.77084,0.87899 -11.37935,-0.1056 z m 47.379346,-2.6475 0,-20.45229 6.25,-0.29771 6.25,-0.29772 0,-4.5 0,-4.5 -19.25,-0.27159 -19.25,-0.2716 0,5.0216 0,5.02159 6.5,0 6.5,0 0,20.5 0,20.5 6.5,0 6.5,0 0,-20.45228 z m 102,9.45228 0.5,-10.5 8.5,0 8.5,0 0.5,10.5 0.5,10.5 6,0 6,0 0.26722,-24.63397 0.26721,-24.63398 -2.91245,-0.42745 c -1.60184,-0.23511 -4.53459,-0.23808 -6.51721,-0.007 l -3.60477,0.42121 0,8.8906 0,8.89059 -9,0 -9,0 0,-9 c 0,-7.87645 -0.21847,-9.00928 -1.75,-9.07431 -0.9625,-0.0409 -2.875,-0.28326 -4.25,-0.53864 -1.375,-0.25538 -3.5125,-0.21337 -4.75,0.0934 l -2.25,0.55769 0,24.31429 c 0,13.37285 0.31963,24.63391 0.7103,25.02457 0.39066,0.39067 3.20316,0.57817 6.25,0.41667 l 5.5397,-0.29367 0.5,-10.5 z m 48.88185,7 1.19843,-4 9.2998,0 9.2998,0 1.32012,4 1.32012,4 6.339944,0 c 3.48697,0 6.34503,-0.3375 6.35125,-0.75 0.006,-0.4125 -1.57559,-5.025 -3.51514,-10.25 -1.93954,-5.225 -5.91986,-16.025 -8.84514,-24 l -5.318704,-14.5 -6.91617,-0.26566 -6.91616,-0.26566 -8.35254,22.76566 c -4.5939,12.52111 -8.58386,23.77816 -8.86658,25.01566 -0.49213,2.15414 -0.23887,2.25 5.94426,2.25 l 6.45828,0 1.19843,-4 z m 4.9314,-13.52008 c -0.53921,-0.53921 4.36312,-17.98962 5.32365,-18.95015 0.56058,-0.56059 5.8983,15.99124 5.87575,18.22023 -0.0125,1.23541 -10.04035,1.88897 -11.1994,0.72992 z m 46.410704,2.27008 0.27605,-15.25 2.0813,3.5 c 1.14472,1.925 5.19472,8.78524 9,15.24497 l 6.9187,11.74498 6.25,0.005 6.25,0.005 0,-25 0,-25 -6.07594,0 -6.07594,0 0.27137,14.47123 c 0.14926,7.95918 0.0498,14.69279 -0.22098,14.96359 -0.27079,0.2708 -4.29624,-6.12876 -8.94543,-14.22123 l -8.45308,-14.71354 -6.25,-0.29772 -6.25,-0.29771 0,25.04771 0,25.04772 5.47395,0 5.47396,0 0.27604,-15.25 z m 125.77605,10.75 c 0,-2.475 -0.3375,-4.54364 -0.75,-4.59697 -0.4125,-0.0533 -6.375,-0.16948 -13.25,-0.25811 l -12.5,-0.16114 0,-5.99189 0,-5.99189 11.25,-0.28275 11.25,-0.28275 0,-4.4345 0,-4.4345 -11.25,-0.28275 -11.25,-0.28275 0,-4.5 0,-4.5 6,-0.18398 c 3.3,-0.10119 8.8125,-0.21369 12.25,-0.25 l 6.25,-0.066 0,-4.5 0,-4.5 -18.5,0 -18.5,0 0,25 0,25 19.5,0 19.5,0 0,-4.5 z m 34.10078,3.3619 c 9.45318,-3.16505 14.01152,-10.12039 14.68667,-22.40969 0.37164,-6.76477 0.0838,-8.88082 -1.80573,-13.27308 -4.47888,-10.41143 -11.38465,-13.38645 -30.08595,-12.96108 l -12.39577,0.28195 -0.26747,24.75 -0.26747,24.75 13.36825,0 c 7.35253,0 14.89789,-0.51215 16.76747,-1.1381 z m -17.10078,-23.7454 0,-15.1165 4.53212,0 c 5.78666,0 10.5914,2.01338 12.78157,5.356 3.92887,5.99621 2.98546,17.13543 -1.83476,21.66379 -2.00108,1.87992 -3.92291,2.47737 -9.01124,2.80137 l -6.46769,0.41183 0,-15.11649 z m 7.28039,-38.58799 c 17.53564,-3.71581 27.64404,-15.65752 26.43778,-31.23265 -1.14035,-14.72404 -10.12831,-20.4522 -38.22238,-24.35973 -9.30043,-1.29357 -13.24119,-3.07356 -14.06418,-6.35261 -1.05911,-4.21982 -0.0206,-6.95428 3.56839,-9.39557 3.07006,-2.08832 4.35987,-2.32731 10.5,-1.94561 7.44024,0.46253 11.56024,2.10634 17.75615,7.08442 l 3.75615,3.01786 7.0055,-4.78664 c 3.85302,-2.63266 7.30278,-5.26767 7.66614,-5.8556 1.03004,-1.66664 -7.24705,-8.37903 -15.08528,-12.23355 -5.09339,-2.50473 -9.41729,-3.77754 -15.30663,-4.50574 -24.92028,-3.08134 -42.25375,8.52796 -42.28226,28.31903 -0.012,8.34058 1.50637,12.15483 6.70653,16.84708 5.30731,4.78893 12.43265,7.33221 26.23251,9.36327 16.14067,2.37557 20.05119,4.23372 20.05119,9.52766 0,12.07536 -23.43359,14.16514 -37.5983,3.35298 -2.57199,-1.96325 -5.01141,-3.12422 -5.69921,-2.71236 -0.66137,0.39603 -4.29928,2.69443 -8.08425,5.10755 l -6.88175,4.3875 4.38175,4.47005 c 2.40997,2.45853 6.18746,5.52986 8.39444,6.82517 10.02009,5.881 26.99725,7.99545 40.76771,5.07749 z M 40.852546,602.50743 c 8.65582,-2.67351 15.69007,-8.27877 19.07713,-15.20168 3.72034,-7.6041 4.70122,-18.20689 4.37376,-47.27789 l -0.2816,-25 -10.67533,-0.28307 -10.67533,-0.28308 -0.32467,31.78308 c -0.24434,23.91902 -0.64975,32.35303 -1.63849,34.08658 -2.35904,4.13608 -7.06469,6.18901 -14.18618,6.18901 -7.11855,0 -11.91055,-2.08835 -14.07585,-6.13425 -0.85785,-1.6029 -1.23518,-11.31139 -1.31382,-33.80351 l -0.11033,-31.55476 -10.9999996,0 -11.0000004,0 0.0118,31 c 0.0144,37.62491 0.39028,39.58115 9.3103404,48.44884 4.47345,4.44718 7.05661,6.10274 12.1778296,7.80481 8.75189,2.90876 21.3411,3.00253 30.33071,0.22592 z m 77.047604,-0.52306 c 0.34193,-0.89105 0.62169,-16.88328 0.62169,-35.5383 l 0,-33.91821 4.75,-0.1006 c 10.4026,-0.22031 16.60777,-0.86025 17.17052,-1.77079 0.54051,-0.87458 0.59248,-3.96517 0.21655,-12.87861 l -0.13707,-3.25 -33.5,0 -33.500004,0 0,8.5 0,8.5 9.91821,0 c 5.45502,0 10.64271,0.27801 11.5282,0.61781 1.42819,0.54805 1.60348,3.73789 1.55241,28.25 -0.0317,15.1977 -0.0444,31.06855 -0.0282,35.26854 l 0.0294,7.63634 10.378314,0.15196 c 8.73578,0.1279 10.47671,-0.10445 11,-1.46814 z m 101.41183,-7.18798 0.29015,-8.23147 -23.29015,-0.26853 -23.29014,-0.26853 -0.28383,-10.75 -0.28383,-10.75 20.03383,0 20.03383,0 0,-8 0,-8 -20.04044,0 -20.04044,0 0.29044,-8.25 0.29044,-8.25 21.29012,-0.27 21.29012,-0.27001 -0.29012,-8.22999 -0.29012,-8.23 -32,0 -32,0 -0.26099,43 c -0.14354,23.65 -0.0429,43.5685 0.22373,44.26333 0.38006,0.99055 7.77785,1.20648 34.26099,1 l 33.77627,-0.26333 0.29014,-8.23147 z m -430.99255,-26.51853 c -0.4341,-28.90836 -0.31444,-33.54818 0.76727,-29.75 0.70488,2.475 2.92392,10.575 4.9312,18 2.00728,7.425 4.25913,15.525 5.0041,18 0.74497,2.475 2.78844,9.7875 4.54105,16.25 l 3.18655,11.75 9.40756,0 c 8.80998,0 9.46744,-0.14292 10.35032,-2.25 0.73342,-1.75038 15.89754,-54.80463 18.36412,-64.25 0.66117,-2.53185 -0.25304,58.85038 -0.94255,63.28436 l -0.51073,3.28435 10.80176,-0.28435 10.80176,-0.28436 0.26053,-43.77482 0.26053,-43.77482 -16.23909,0.27482 -16.23908,0.27482 -7.74566,28.5 c -4.26012,15.675 -7.75727,29.2875 -7.77145,30.25 -0.0584,3.96631 -1.83887,1.33061 -3.0398,-4.5 -0.70802,-3.4375 -2.05561,-8.95 -2.99465,-12.25 -0.93904,-3.3 -3.90068,-14.2125 -6.58143,-24.25 l -4.87408,-18.25 -16.26791,0 -16.26791,0 0,44 0,44 10.65596,0 10.65596,0 -0.51433,-34.25 z m 107.20241,-9.78383 0,-44.03383 -10.75,0.28383 -10.75,0.28383 -0.26051,43.75 -0.26051,43.75 11.01051,0 11.01051,0 0,-44.03383 z m 30.241516,42.28383 c 0.21349,-0.9625 0.18165,-12.8875 -0.0707,-26.5 -0.27863,-15.0274 -0.0913,-24.75 0.47684,-24.75 0.51467,0 2.19788,2.5875 3.74047,5.75 1.5426,3.1625 4.4455,8.45 6.45089,11.75 2.0054,3.3 4.32452,7.19397 5.1536,8.65327 0.82909,1.45929 4.65743,8.0941 8.50743,14.74401 l 7,12.09075 11,-0.24402 11,-0.24401 0,-43.5 0,-43.5 -10.25,-0.28498 -10.25,-0.28499 0,27.74563 0,27.74562 -8.58557,-15.46064 c -4.72206,-8.50335 -9.21362,-16.44443 -9.98124,-17.64684 -0.76763,-1.20241 -2.34367,-3.90241 -3.50231,-6 -1.15864,-2.09759 -3.73557,-6.6263 -5.72652,-10.0638 l -3.61996,-6.25 -10.79223,0 -10.79222,0 0,44 0,44 9.92668,0 c 8.63943,0 9.97701,-0.22693 10.31484,-1.75 z m 140.0867,-101.25 c 1.30431,-1.30961 6.84999,-16.85772 9.09855,-25.50911 5.84254,-22.47929 8.3175,-49.52357 8.32705,-90.99089 0.02,-86.89346 -17.1384,-129.89052 -57.44778,-143.95785 -21.6766396,-7.56481 -56.88232,-8.60033 -81.80604,-2.4062 -39.93905,9.92578 -59.959856,44.39782 -65.479066,112.74251 -1.70453,21.10736 -2.41185,86.40453 -1.08454,100.12154 1.44904,14.97504 4.96658,30.58756 9.35005,41.5 l 3.21356,8 66.999996,0.5 c 36.8500004,0.275 76.2993,0.5 87.66512,0.5 11.36581,0 20.88921,-0.225 21.1631,-0.5 z m -96.67303,-6.45865 c -7.89392,-2.81457 -11.83486,-9.66229 -14.37588,-24.97936 -1.21469,-7.32203 -1.3848,-14.82219 -0.88598,-39.06199 0.33956,-16.5 0.85671,-34.05 1.14923,-39 0.29253,-4.95 1.16549,-24.75 1.93992,-44 1.44994,-36.04127 2.52271,-44.66953 6.53066,-52.52575 3.85772,-7.56175 12.12344,-11.78069 20.59249,-10.51068 9.2013304,1.37983 15.3041604,8.82925 18.0741204,22.06218 2.09796,10.02259 2.21806,36.85289 0.46316,103.47425 -1.69653,64.40557 -2.65507,71.56479 -10.65245,79.56217 -6.2090204,6.20902 -14.3856004,7.9919 -22.8352704,4.97918 z m 330.489414,1.70865 c 0.1295,-5.14962 0.0855,-13.51383 -0.0815,-15.5 -0.0347,-0.4125 -23.21151,-0.75 -51.50405,-0.75 -34.211,0 -51.65418,-0.34496 -52.0775,-1.0299 -1.49052,-2.41172 5.90062,-10.99402 30.69305,-35.63956 14.47899,-14.3932 29.26318,-29.0182 32.85376,-32.5 20.73357,-20.10539 33.08337,-41.19715 38.06258,-65.00563 3.3139,-15.84568 3.16442,-40.36637 -0.33797,-55.4401 -3.45068,-14.85104 -7.2415,-22.16821 -16.41575,-31.68615 -9.39947,-9.75161 -24.68109,-17.56154 -41.33722,-21.12611 -26.15597,-5.59763 -67.74512,-3.62226 -87.69417,4.16524 -19.91508,7.77423 -34.94342,23.04579 -41.19976,41.86655 -3.18616,9.58484 -6.14898,27.71734 -6.80688,41.65814 l -0.60228,12.76247 36.90154,-0.26247 36.90155,-0.26248 0.57416,-14.59314 c 0.95837,-24.35839 6.04577,-35.26562 17.605,-37.74463 11.01013,-2.36125 20.11689,3.40177 23.44677,14.83777 2.03592,6.99209 1.72869,31.03846 -0.4919,38.5 -2.90693,9.76776 -9.77928,20.58626 -19.10067,30.06843 -1.11835,1.13763 -14.88662,15.08763 -30.59616,31 -35.7818,36.24377 -45.15963,47.87718 -53.95433,66.93157 -5.60484,12.14332 -11.70371,32.52463 -10.37564,34.6735 0.28094,0.45458 44.35925,0.8265 97.95179,0.8265 l 97.44098,0 0.1446,-5.75 z m -452.74917,-0.5 c 0.29663,-2.8875 0.78053,-23.025 1.07532,-44.75 1.22662,-90.39668 2.5348,-177.79151 2.94507,-196.75 l 0.43822,-20.25 -22.17702,-0.11544 c -12.19736,-0.0635 -24.73953,-0.12123 -27.87148,-0.1283 -3.13195,-0.007 -6.34151,0.23543 -7.13235,0.53891 -0.79084,0.30347 -2.39001,3.37115 -3.55371,6.81705 -6.48015,19.18877 -18.73657,30.52379 -38.61948,35.71617 -8.28273,2.16303 -24.7044,4.17161 -34.10595,4.17161 l -5.39405,0 0,24.98466 0,24.98467 28.75,0.26533 28.75,0.26534 -0.28897,30.5 c -0.15894,16.775 -0.48033,35 -0.71421,40.5 -0.23387,5.5 -0.72858,29.9125 -1.09935,54.25 l -0.67412,44.25 39.56637,0 39.56637,0 0.53934,-5.25 z"
       id="path3060"
       inkscape:connector-curvature="0" />
  </g>
</svg>
