<?xml version="1.0" encoding="UTF-8" standalone="no"?>
<!-- Created with Inkscape (http://www.inkscape.org/) -->
<svg
   xmlns:svg="http://www.w3.org/2000/svg"
   xmlns="http://www.w3.org/2000/svg"
   version="1.0"
   width="312"
   height="415.09"
   id="svg2">
  <defs
     id="defs4" />
  <g
     transform="translate(-769.42859,-601.37713)"
     id="layer1">
    <path
       d="M 826.02859,979.48313 L 779.42858,952.53933 L 779.4335,898.12468 L 779.43841,843.71003 L 825.0335,817.40098 L 870.62859,791.09194 L 870.63336,738.20098 L 870.63813,685.31003 L 903.20376,666.51003 C 921.11487,656.17003 936.16854,647.60599 936.65638,647.47884 C 937.14421,647.35169 937.9243,648.08376 938.3899,649.10566 C 939.20919,650.90379 938.20858,651.55595 907.34939,669.33685 L 875.46231,687.71003 L 875.44545,739.39453 L 875.42858,791.07903 L 919.578,816.59453 C 943.86019,830.62805 963.9678,842.21257 964.26156,842.33789 C 964.55532,842.4632 979.47595,834.08108 997.41851,823.71094 C 1015.3611,813.34081 1030.1248,804.95828 1030.2266,805.08309 C 1030.3285,805.20791 1030.8232,806.10125 1031.326,807.0683 C 1032.1692,808.68995 1031.8824,809.03469 1027.6344,811.50497 C 1025.1012,812.97809 1010.3386,821.50311 994.8286,830.44947 L 966.6286,846.71557 L 966.6286,899.64416 L 966.6286,952.57275 L 919.8786,979.54139 C 894.16611,994.37414 873.01611,1006.4913 872.8786,1006.4685 C 872.74108,1006.4456 851.65859,994.30222 826.02859,979.48313 z M 918.62859,975.09649 L 962.22859,949.8692 L 962.22859,898.14233 L 962.22859,846.41547 L 917.98397,820.86275 C 893.64944,806.80876 873.42348,795.31003 873.03738,795.31003 C 872.6513,795.31003 852.42138,806.80971 828.082,820.86488 L 783.82858,846.41972 L 783.82858,898.1269 L 783.82858,949.83409 L 827.82858,975.35052 C 854.99437,991.10447 872.44074,1000.763 873.42858,1000.5954 C 874.30858,1000.446 894.64859,988.9715 918.62859,975.09649 z M 872.98262,985.62414 C 872.48638,984.6969 872.38372,983.66104 872.75447,983.32221 C 873.94353,982.23561 947.56205,939.97521 947.79123,940.2477 C 947.91258,940.39198 948.41591,941.28755 948.90975,942.23786 C 949.76597,943.88551 948.06475,944.97143 912.25094,965.63786 C 891.59475,977.55755 874.51214,987.31003 874.28957,987.31003 C 874.06699,987.31003 873.47887,986.55138 872.98262,985.62414 z M 794.62859,898.11003 L 794.62859,854.51003 L 797.02859,854.51003 L 799.42858,854.51003 L 799.42858,898.11003 L 799.42858,941.71003 L 797.02859,941.71003 L 794.62859,941.71003 L 794.62859,898.11003 z M 909.84882,834.54605 C 889.39995,822.713 872.56509,812.71954 872.43804,812.33837 C 872.31097,811.9572 872.68647,810.98964 873.27247,810.18824 C 874.26347,808.83296 876.93325,810.227 911.48325,830.14032 C 931.91318,841.91536 948.92814,851.81317 949.29426,852.13544 C 949.92449,852.69018 948.30265,856.13781 947.43615,856.08536 C 947.21199,856.07178 930.29769,846.37909 909.84882,834.54605 z M 1040.2286,793.71003 L 1040.2286,770.51003 L 1055.8286,770.51003 L 1071.4286,770.51003 L 1071.4286,773.31003 L 1071.4286,776.11003 L 1059.0286,776.11003 L 1046.6286,776.11003 L 1046.6286,783.31003 L 1046.6286,790.51003 L 1057.0286,790.51003 L 1067.4286,790.51003 L 1067.4286,793.31003 L 1067.4286,796.11003 L 1057.0286,796.11003 L 1046.6286,796.11003 L 1046.6286,806.51003 L 1046.6286,816.91003 L 1043.4286,816.91003 L 1040.2286,816.91003 L 1040.2286,793.71003 z M 957.26316,658.19949 C 952.16932,656.53419 947.80068,652.62785 945.27095,647.47636 C 943.29227,643.44699 943.02859,642.01634 943.02859,635.31003 C 943.02859,628.59692 943.29125,627.17513 945.27944,623.12636 C 950.09348,613.32295 960.08155,609.20474 971.08339,612.48705 C 979.56075,615.01621 984.78268,622.42728 985.58772,633.07197 C 986.70388,647.82929 978.73267,658.20101 965.66531,658.99405 C 962.70974,659.17341 959.23801,658.8451 957.26316,658.19949 z M 972.81628,650.80848 C 976.68596,647.72381 978.67651,643.65479 979.21364,637.73138 C 980.03707,628.65006 976.65724,621.31771 970.32147,618.44053 C 962.05105,614.68477 952.79732,618.90975 950.20978,627.62292 C 945.94749,641.9756 953.07704,654.26997 965.21627,653.50051 C 968.84987,653.27019 970.43052,652.71029 972.81628,650.80848 z M 993.8286,635.31003 L 993.8286,612.11003 L 997.02859,612.11003 L 1000.2286,612.11003 L 1000.2286,621.71003 L 1000.2286,631.31003 L 1012.2286,631.31003 L 1024.2286,631.31003 L 1024.2286,621.71003 L 1024.2286,612.11003 L 1027.4286,612.11003 L 1030.6286,612.11003 L 1030.6286,635.31003 L 1030.6286,658.51003 L 1027.4286,658.51003 L 1024.2286,658.51003 L 1024.2286,647.71003 L 1024.2286,636.91003 L 1012.2286,636.91003 L 1000.2286,636.91003 L 1000.2286,647.71003 L 1000.2286,658.51003 L 997.02859,658.51003 L 993.8286,658.51003 L 993.8286,635.31003 z"
       id="path2525"
       style="fill:#000000" />
  </g>
</svg>
