<?xml version="1.0" encoding="UTF-8" standalone="no"?>
<svg xmlns:svg="http://www.w3.org/2000/svg"
     xmlns="http://www.w3.org/2000/svg" version="1.1"
     width="360" height="185">
    <!-- Created with the Wikimedia parliament diagram creator (http://parliamentdiagram.toolforge.org/parliamentinputform.html) -->
    <g>
        <text x="175" y="175" 
              style="font-size:36px;font-weight:bold;text-align:center;text-anchor:middle;font-family:sans-serif">
            199
        </text>
        <g style="fill:#FF6A00; stroke-width:0.00; stroke:#000000" 
           id="0_Fidesz-KDNP"> 
            <title>Fidesz-KDNP</title>            <circle cx="11.32" cy="175.00" r="5.00"/> 
            <circle cx="23.83" cy="175.00" r="5.00"/> 
            <circle cx="36.34" cy="175.00" r="5.00"/> 
            <circle cx="48.85" cy="175.00" r="5.00"/> 
            <circle cx="61.36" cy="175.00" r="5.00"/> 
            <circle cx="73.87" cy="175.00" r="5.00"/> 
            <circle cx="86.38" cy="175.00" r="5.00"/> 
            <circle cx="98.90" cy="175.01" r="5.00"/> 
            <circle cx="12.53" cy="159.29" r="5.00"/> 
            <circle cx="25.16" cy="159.04" r="5.00"/> 
            <circle cx="37.75" cy="159.30" r="5.00"/> 
            <circle cx="50.44" cy="159.00" r="5.00"/> 
            <circle cx="63.06" cy="159.32" r="5.00"/> 
            <circle cx="75.86" cy="158.95" r="5.00"/> 
            <circle cx="15.19" cy="143.76" r="5.00"/> 
            <circle cx="88.76" cy="158.46" r="5.00"/> 
            <circle cx="28.12" cy="143.29" r="5.00"/> 
            <circle cx="40.87" cy="143.85" r="5.00"/> 
            <circle cx="101.54" cy="158.90" r="5.00"/> 
            <circle cx="53.98" cy="143.31" r="5.00"/> 
            <circle cx="66.84" cy="144.01" r="5.00"/> 
            <circle cx="19.29" cy="128.55" r="5.00"/> 
            <circle cx="32.68" cy="127.93" r="5.00"/> 
            <circle cx="80.26" cy="143.39" r="5.00"/> 
            <circle cx="45.66" cy="128.83" r="5.00"/> 
            <circle cx="24.78" cy="113.78" r="5.00"/> 
            <circle cx="59.42" cy="128.17" r="5.00"/> 
            <circle cx="94.03" cy="142.60" r="5.00"/> 
            <circle cx="72.61" cy="129.32" r="5.00"/> 
            <circle cx="38.79" cy="113.12" r="5.00"/> 
            <circle cx="107.34" cy="143.64" r="5.00"/> 
            <circle cx="52.07" cy="114.43" r="5.00"/> 
            <circle cx="31.64" cy="99.59" r="5.00"/> 
            <circle cx="86.97" cy="128.67" r="5.00"/> 
            <circle cx="66.66" cy="113.81" r="5.00"/> 
            <circle cx="46.38" cy="99.01" r="5.00"/> 
            <circle cx="80.27" cy="115.54" r="5.00"/> 
            <circle cx="60.02" cy="100.82" r="5.00"/> 
            <circle cx="102.04" cy="127.93" r="5.00"/> 
            <circle cx="39.78" cy="86.11" r="5.00"/> 
            <circle cx="55.38" cy="85.75" r="5.00"/> 
            <circle cx="75.61" cy="100.45" r="5.00"/> 
            <circle cx="95.84" cy="115.15" r="5.00"/> 
            <circle cx="116.07" cy="129.85" r="5.00"/> 
            <circle cx="49.15" cy="73.44" r="5.00"/> 
            <circle cx="69.41" cy="88.16" r="5.00"/> 
            <circle cx="89.69" cy="102.89" r="5.00"/> 
            <circle cx="65.68" cy="73.48" r="5.00"/> 
            <circle cx="112.53" cy="114.91" r="5.00"/> 
            <circle cx="86.12" cy="88.28" r="5.00"/> 
            <circle cx="59.66" cy="61.70" r="5.00"/> 
            <circle cx="80.14" cy="76.60" r="5.00"/> 
            <circle cx="106.66" cy="103.12" r="5.00"/> 
            <circle cx="100.71" cy="91.60" r="5.00"/> 
            <circle cx="77.19" cy="62.34" r="5.00"/> 
            <circle cx="127.39" cy="118.08" r="5.00"/> 
            <circle cx="71.22" cy="50.99" r="5.00"/> 
            <circle cx="98.04" cy="77.48" r="5.00"/> 
            <circle cx="92.06" cy="66.29" r="5.00"/> 
            <circle cx="125.16" cy="103.96" r="5.00"/> 
            <circle cx="89.78" cy="52.43" r="5.00"/> 
            <circle cx="119.18" cy="92.88" r="5.00"/> 
            <circle cx="83.73" cy="41.41" r="5.00"/> 
            <circle cx="113.13" cy="81.87" r="5.00"/> 
            <circle cx="111.20" cy="68.23" r="5.00"/> 
            <circle cx="105.04" cy="57.34" r="5.00"/> 
            <circle cx="97.07" cy="33.03" r="5.00"/> 
            <circle cx="103.32" cy="43.86" r="5.00"/> 
            <circle cx="140.83" cy="108.82" r="5.00"/> 
            <circle cx="126.72" cy="73.87" r="5.00"/> 
            <circle cx="133.10" cy="84.66" r="5.00"/> 
            <circle cx="139.53" cy="95.43" r="5.00"/> 
            <circle cx="118.92" cy="49.87" r="5.00"/> 
            <circle cx="125.39" cy="60.65" r="5.00"/> 
            <circle cx="111.14" cy="25.94" r="5.00"/> 
            <circle cx="117.67" cy="36.72" r="5.00"/> 
            <circle cx="141.26" cy="67.75" r="5.00"/> 
            <circle cx="133.53" cy="43.97" r="5.00"/> 
            <circle cx="125.81" cy="20.19" r="5.00"/> 
            <circle cx="132.67" cy="31.09" r="5.00"/> 
            <circle cx="140.39" cy="54.87" r="5.00"/> 
            <circle cx="148.12" cy="78.65" r="5.00"/> 
            <circle cx="155.84" cy="102.42" r="5.00"/> 
            <circle cx="155.19" cy="89.59" r="5.00"/> 
            <circle cx="140.95" cy="15.83" r="5.00"/> 
            <circle cx="148.71" cy="39.70" r="5.00"/> 
            <circle cx="148.17" cy="27.03" r="5.00"/> 
            <circle cx="156.48" cy="63.60" r="5.00"/> 
            <circle cx="156.00" cy="50.96" r="5.00"/> 
            <circle cx="163.87" cy="74.98" r="5.00"/> 
            <circle cx="156.43" cy="12.90" r="5.00"/> 
            <circle cx="164.26" cy="37.11" r="5.00"/> 
            <circle cx="164.00" cy="24.57" r="5.00"/> 
            <circle cx="171.84" cy="99.16" r="5.00"/> 
            <circle cx="171.64" cy="86.62" r="5.00"/> 
            <circle cx="172.11" cy="61.51" r="5.00"/> 
            <circle cx="171.96" cy="49.00" r="5.00"/> 
            <circle cx="172.12" cy="11.43" r="5.00"/> 
            <circle cx="180.00" cy="23.75" r="5.00"/> 
            <circle cx="180.00" cy="36.25" r="5.00"/> 
            <circle cx="180.00" cy="73.75" r="5.00"/> 
            <circle cx="187.88" cy="11.43" r="5.00"/> 
            <circle cx="188.04" cy="49.00" r="5.00"/> 
            <circle cx="187.89" cy="61.51" r="5.00"/> 
            <circle cx="188.36" cy="86.62" r="5.00"/> 
        </g>
        <g style="fill:#AD4800; stroke-width:0.00; stroke:#000000" 
           id="1_FIDESZ-KDNP"> 
            <title>FIDESZ-KDNP</title>        </g>
        <g style="fill:#000000; stroke-width:0.00; stroke:#000000" 
           id="2_Jobbik"> 
            <title>Jobbik</title>            <circle cx="188.16" cy="99.16" r="5.00"/> 
            <circle cx="196.00" cy="24.57" r="5.00"/> 
            <circle cx="195.74" cy="37.11" r="5.00"/> 
            <circle cx="203.57" cy="12.90" r="5.00"/> 
            <circle cx="196.13" cy="74.98" r="5.00"/> 
            <circle cx="204.00" cy="50.96" r="5.00"/> 
            <circle cx="203.52" cy="63.60" r="5.00"/> 
            <circle cx="211.83" cy="27.03" r="5.00"/> 
            <circle cx="211.29" cy="39.70" r="5.00"/> 
            <circle cx="219.05" cy="15.83" r="5.00"/> 
            <circle cx="204.81" cy="89.59" r="5.00"/> 
            <circle cx="204.16" cy="102.42" r="5.00"/> 
            <circle cx="211.88" cy="78.65" r="5.00"/> 
            <circle cx="219.61" cy="54.87" r="5.00"/> 
            <circle cx="227.33" cy="31.09" r="5.00"/> 
            <circle cx="234.19" cy="20.19" r="5.00"/> 
            <circle cx="226.47" cy="43.97" r="5.00"/> 
            <circle cx="218.74" cy="67.75" r="5.00"/> 
            <circle cx="242.33" cy="36.72" r="5.00"/> 
            <circle cx="248.86" cy="25.94" r="5.00"/> 
            <circle cx="234.61" cy="60.65" r="5.00"/> 
            <circle cx="241.08" cy="49.87" r="5.00"/> 
            <circle cx="220.47" cy="95.43" r="5.00"/> 
            <circle cx="226.90" cy="84.66" r="5.00"/> 
            <circle cx="233.28" cy="73.87" r="5.00"/> 
            <circle cx="219.17" cy="108.82" r="5.00"/> 
            <circle cx="256.68" cy="43.86" r="5.00"/> 
            <circle cx="262.93" cy="33.03" r="5.00"/> 
            <circle cx="254.96" cy="57.34" r="5.00"/> 
            <circle cx="248.80" cy="68.23" r="5.00"/> 
            <circle cx="246.87" cy="81.87" r="5.00"/> 
            <circle cx="276.27" cy="41.41" r="5.00"/> 
            <circle cx="240.82" cy="92.88" r="5.00"/> 
            <circle cx="270.22" cy="52.43" r="5.00"/> 
            <circle cx="234.84" cy="103.96" r="5.00"/> 
            <circle cx="267.94" cy="66.29" r="5.00"/> 
            <circle cx="261.96" cy="77.48" r="5.00"/> 
            <circle cx="288.78" cy="50.99" r="5.00"/> 
            <circle cx="232.61" cy="118.08" r="5.00"/> 
            <circle cx="282.81" cy="62.34" r="5.00"/> 
        </g>
        <g style="fill:#C1001F; stroke-width:0.00; stroke:#000000" 
           id="3_MSZP-P"> 
            <title>MSZP-P</title>            <circle cx="259.29" cy="91.60" r="5.00"/> 
            <circle cx="253.34" cy="103.12" r="5.00"/> 
            <circle cx="279.86" cy="76.60" r="5.00"/> 
            <circle cx="300.34" cy="61.70" r="5.00"/> 
            <circle cx="273.88" cy="88.28" r="5.00"/> 
            <circle cx="247.47" cy="114.91" r="5.00"/> 
            <circle cx="294.32" cy="73.48" r="5.00"/> 
            <circle cx="270.31" cy="102.89" r="5.00"/> 
            <circle cx="290.59" cy="88.16" r="5.00"/> 
            <circle cx="310.85" cy="73.44" r="5.00"/> 
            <circle cx="243.93" cy="129.85" r="5.00"/> 
            <circle cx="264.16" cy="115.15" r="5.00"/> 
            <circle cx="284.39" cy="100.45" r="5.00"/> 
            <circle cx="304.62" cy="85.75" r="5.00"/> 
            <circle cx="320.22" cy="86.11" r="5.00"/> 
            <circle cx="257.96" cy="127.93" r="5.00"/> 
            <circle cx="299.98" cy="100.82" r="5.00"/> 
            <circle cx="279.73" cy="115.54" r="5.00"/> 
            <circle cx="313.62" cy="99.01" r="5.00"/> 
            <circle cx="293.34" cy="113.81" r="5.00"/> 
            <circle cx="273.03" cy="128.67" r="5.00"/> 
            <circle cx="328.36" cy="99.59" r="5.00"/> 
            <circle cx="307.93" cy="114.43" r="5.00"/> 
            <circle cx="252.66" cy="143.64" r="5.00"/> 
            <circle cx="321.21" cy="113.12" r="5.00"/> 
        </g>
        <g style="fill:#A0CF67; stroke-width:0.00; stroke:#000000" 
           id="4_LMP"> 
            <title>LMP</title>            <circle cx="287.39" cy="129.32" r="5.00"/> 
            <circle cx="265.97" cy="142.60" r="5.00"/> 
            <circle cx="300.58" cy="128.17" r="5.00"/> 
            <circle cx="335.22" cy="113.78" r="5.00"/> 
            <circle cx="314.34" cy="128.83" r="5.00"/> 
            <circle cx="279.74" cy="143.39" r="5.00"/> 
            <circle cx="327.32" cy="127.93" r="5.00"/> 
            <circle cx="340.71" cy="128.55" r="5.00"/> 
            <circle cx="293.16" cy="144.01" r="5.00"/> 
            <circle cx="306.02" cy="143.31" r="5.00"/> 
            <circle cx="258.46" cy="158.90" r="5.00"/> 
            <circle cx="319.13" cy="143.85" r="5.00"/> 
            <circle cx="331.88" cy="143.29" r="5.00"/> 
            <circle cx="271.24" cy="158.46" r="5.00"/> 
            <circle cx="344.81" cy="143.76" r="5.00"/> 
        </g>
        <g style="fill:#0067AA; stroke-width:0.00; stroke:#000000" 
           id="5_DK"> 
            <title>DK</title>            <circle cx="284.14" cy="158.95" r="5.00"/> 
            <circle cx="296.94" cy="159.32" r="5.00"/> 
            <circle cx="309.56" cy="159.00" r="5.00"/> 
            <circle cx="322.25" cy="159.30" r="5.00"/> 
            <circle cx="334.84" cy="159.04" r="5.00"/> 
            <circle cx="347.47" cy="159.29" r="5.00"/> 
            <circle cx="261.10" cy="175.01" r="5.00"/> 
            <circle cx="273.62" cy="175.00" r="5.00"/> 
            <circle cx="286.13" cy="175.00" r="5.00"/> 
            <circle cx="298.64" cy="175.00" r="5.00"/> 
            <circle cx="311.15" cy="175.00" r="5.00"/> 
        </g>
        <g style="fill:#FED500; stroke-width:0.00; stroke:#000000" 
           id="6_E"> 
            <title>E</title>            <circle cx="323.66" cy="175.00" r="5.00"/> 
        </g>
        <g style="fill:#EEEEEE; stroke-width:0.00; stroke:#000000" 
           id="7_F"> 
            <title>F</title>            <circle cx="336.17" cy="175.00" r="5.00"/> 
        </g>
        <g style="fill:#0047AB; stroke-width:0.00; stroke:#000000" 
           id="8_M"> 
            <title>M</title>            <circle cx="348.68" cy="175.00" r="5.00"/> 
        </g>
    </g>
</svg>
