<?xml version="1.0" encoding="UTF-8" standalone="no"?>
<svg
   xmlns:dc="http://purl.org/dc/elements/1.1/"
   xmlns:cc="http://creativecommons.org/ns#"
   xmlns:rdf="http://www.w3.org/1999/02/22-rdf-syntax-ns#"
   xmlns:svg="http://www.w3.org/2000/svg"
   xmlns="http://www.w3.org/2000/svg"
   xmlns:sodipodi="http://sodipodi.sourceforge.net/DTD/sodipodi-0.dtd"
   xmlns:inkscape="http://www.inkscape.org/namespaces/inkscape"
   version="1.2"
   width="810"
   height="624"
   viewBox="0 0 810 624"
   stroke-linecap="round"
   stroke-linejoin="round"
   id="svg2166"
   sodipodi:docname="2018_United_States_Senate_election_in_Wyoming_results_map_by_county.svg"
   inkscape:version="0.92.3 (2405546, 2018-03-11)">
  <metadata
     id="metadata2172">
    <rdf:RDF>
      <cc:Work
         rdf:about="">
        <dc:format>image/svg+xml</dc:format>
        <dc:type
           rdf:resource="http://purl.org/dc/dcmitype/StillImage" />
        <dc:title />
      </cc:Work>
    </rdf:RDF>
  </metadata>
  <defs
     id="defs2170" />
  <sodipodi:namedview
     pagecolor="#ffffff"
     bordercolor="#666666"
     borderopacity="1"
     objecttolerance="10"
     gridtolerance="10"
     guidetolerance="10"
     inkscape:pageopacity="0"
     inkscape:pageshadow="2"
     inkscape:window-width="1947"
     inkscape:window-height="1952"
     id="namedview2168"
     showgrid="false"
     inkscape:zoom="1.06"
     inkscape:cx="402.1856"
     inkscape:cy="563.16653"
     inkscape:window-x="1827"
     inkscape:window-y="0"
     inkscape:window-maximized="1"
     inkscape:current-layer="Wyoming" />
  <g
     id="Wyoming"
     transform="translate(5,5)"
     stroke="white"
     stroke-width="1"
     style="fill:#0d0596;fill-opacity:1">
    <path
       d="M 362.91 9.97 393.47 10.14 408.65 10.06 446.75 10.29 451.3 10.77 506.26 10.69 539.13 10.48 564.66 10.15 565.15 28.95 566.12 30.59 566.42 53.32 566.91 55.41 567.34 74.9 549.08 75.46 522.18 75.85 522.18 76.6 496.87 76.83 461.03 76.72 447.12 76.87 420.83 76.68 418.32 71.23 410.08 68.76 407.36 64.27 403.77 65.35 401.53 58.71 393.96 55.67 388.41 58.44 385.56 54.7 380.87 53.27 379.54 44.78 376.89 44.5 373.28 41.92 372.93 37.66 371.18 36.51 371.3 33.51 367.76 29.17 369.04 23.03 366.02 20.14 366.09 12.29 362.91 9.97 Z"
       id="Sheridan"
       fill="#b3c4db"
       style="fill:#d72f30;fill-opacity:1" />
    <path
       d="M 287.02 9.16 286.8 28.58 289.82 28.64 288.98 81.5 291.04 81.55 290.2 134.68 292.72 134.72 292.5 148.15 266.26 147.69 266.08 161.05 252.57 160.83 252.67 173.82 233.05 173.47 232.69 186.56 213.16 186.35 208.74 186.67 206.33 182.27 202.98 182.05 201.67 176.01 199.68 175.73 198.14 171.93 195.07 168.66 191.81 168.31 185.39 165.54 181.61 164.62 179.27 167.05 173.32 169.23 171.95 174.63 169.75 177.38 170.37 180.78 163.13 182.46 156.66 186.79 149.51 182.78 149.74 179.79 152.98 178.82 152.74 175.81 150.78 171.98 150.69 168.83 148.22 167.71 147.29 164.5 142.91 164.81 138.99 161.9 135.11 164.04 131.05 155.92 128.94 155.01 129.54 136.22 122.35 135.99 121.74 132.27 123.08 127.28 120.4 117.59 119.84 112.13 113.64 108.14 114.38 106.24 111.93 103.99 111.83 99.19 109.16 96.61 109.13 94.43 105.01 90.73 105.59 84.38 106.62 83.15 107.4 77.47 105.11 75.34 104.25 71.74 98.59 71.58 97.12 67.07 65.61 65.87 66.13 53.28 24.64 51.48 26.85 1 55.13 2.27 64.23 3.97 91.91 4.85 96.07 4.13 120 5.39 128.31 4.68 158.26 5.71 165.16 6.13 235.51 7.35 237.67 8.34 287.02 9.16 Z"
       id="Park"
       fill="#b8e0da"
       style="fill:#d72f30;fill-opacity:1" />
    <path
       d="M 128.94 155.01 131.05 155.92 135.11 164.04 138.99 161.9 142.91 164.81 147.29 164.5 148.22 167.71 150.69 168.83 150.78 171.98 152.74 175.81 152.98 178.82 149.74 179.79 149.51 182.78 156.66 186.79 163.13 182.46 170.37 180.78 169.75 177.38 171.95 174.63 173.32 169.23 179.27 167.05 181.61 164.62 185.39 165.54 191.81 168.31 195.07 168.66 198.14 171.93 199.68 175.73 201.67 176.01 202.98 182.05 206.33 182.27 208.74 186.67 211.85 188.33 214.15 192.71 217.09 194.32 221.35 202.52 223.8 204.23 223.51 216.21 249.51 216.84 249.5 219.02 262.59 219.18 262.51 223.66 275.62 223.85 275.46 230.41 288.5 230.57 288.43 234.99 301.51 235.19 301.45 239.55 314.53 239.75 314.49 241.9 334.41 242.14 334.43 240.48 396.01 240.63 396.03 236.24 402.63 236.27 402.6 240.58 404.58 240.6 404.64 279.74 404.5 292.57 406.09 292.56 406.08 344.82 401.41 344.82 401.45 397.14 403.58 397.14 403.55 423.16 390.97 423.18 336.15 422.66 312.32 422.25 271.98 421.75 233.34 420.97 233.87 395.35 231 395.32 231.43 356.1 224.58 355.84 224.67 352.3 223.11 348.43 219.77 347.18 218.08 344.5 215.58 345.73 213.43 343.16 216.08 339.74 212.35 338.7 208.63 332.43 205.05 330.99 201.8 321.25 199.25 317.34 196.04 318.11 192.51 313.79 190.1 313.41 189.51 310.71 186.01 309.52 184.92 307.2 179.38 306.75 178.72 301.42 179.69 298.41 175.49 291.13 172.32 289.5 171.28 285.91 168.67 281.79 168.3 277.72 166.59 275.84 166.64 270.79 164.96 268.26 167.39 261.54 164.58 258.35 165.15 253 163.74 251.75 158.6 252.85 159 238.18 126.43 236.94 128.17 184.21 127.93 184.19 128.94 155.01 Z"
       id="Fremont"
       fill="#b1e486"
       style="fill:#d72f30;fill-opacity:1" />
    <path
       d="M 67.24 269.48 67.6 260.97 93.4 262.01 93.84 248.93 125.37 250.04 125.78 236.92 126.43 236.94 159 238.18 158.6 252.85 163.74 251.75 165.15 253 164.58 258.35 167.39 261.54 164.96 268.26 166.64 270.79 166.59 275.84 168.3 277.72 168.67 281.79 171.28 285.91 172.32 289.5 175.49 291.13 179.69 298.41 178.72 301.42 179.38 306.75 184.92 307.2 186.01 309.52 189.51 310.71 190.1 313.41 192.51 313.79 196.04 318.11 199.25 317.34 201.8 321.25 205.05 330.99 208.63 332.43 212.35 338.7 216.08 339.74 213.43 343.16 215.58 345.73 218.08 344.5 219.77 347.18 223.11 348.43 224.67 352.3 224.58 355.84 231.43 356.1 231 395.32 233.87 395.35 233.34 420.97 182.68 419.87 154.29 418.74 120.38 416.96 103.24 416.42 103.31 415.53 78.87 414.73 78.91 414.16 65.82 414.04 66.61 388.25 61.39 388.06 62.91 348.61 59.2 348.45 59.61 338.05 63.58 338.2 64.95 298.84 65.57 286.07 66.61 285.9 67.24 269.48 Z"
       id="Sublette"
       fill="#cbdc93"
       style="fill:#d72f30;fill-opacity:1" />
    <path
       d="M 691.63 232.65 708.22 231.88 744.55 230.56 784.3 228.91 787.47 304.71 789.78 363.33 755.59 364.68 745.2 365.31 722.71 366.05 696.36 366.92 695.48 340.71 694.93 340.7 693.45 290.23 693.55 288.12 692.42 252.4 691.63 232.65 Z"
       id="Niobrara"
       fill="#e4c9a0"
       style="fill:#d75d5d;fill-opacity:1" />
    <path
       d="M 402.63 236.27 436 236.27 449.15 236.42 449.13 237.62 494.83 237.44 521.98 237.08 562.42 236.29 562.93 239.59 564.05 313.93 564.64 344.29 564.44 353.29 565.06 396.3 503.78 397.42 468.52 397.22 403.58 397.14 401.45 397.14 401.41 344.82 406.08 344.82 406.09 292.56 404.5 292.57 404.64 279.74 404.58 240.6 402.6 240.58 402.63 236.27 Z"
       id="Natrona"
       fill="#94bbeb"
       style="fill:#d72f30;fill-opacity:1" />
    <path
       d="M 696.36 366.92 722.71 366.05 725.81 457.93 727.49 510.24 706.02 510.81 675.4 511.19 656.88 511.63 656.49 498.77 657.3 498.74 656.42 461.95 655.82 446.47 654.99 446.48 653.92 405.52 653.44 394.85 652.51 368.56 671.24 367.75 696.36 366.92 Z"
       id="Platte"
       fill="#d8e9e9"
       style="fill:#d72f30;fill-opacity:1" />
    <path
       d="M 24.64 51.48 66.13 53.28 65.61 65.87 97.12 67.07 98.59 71.58 104.25 71.74 105.11 75.34 107.4 77.47 106.62 83.15 105.59 84.38 105.01 90.73 109.13 94.43 109.16 96.61 111.83 99.19 111.93 103.99 114.38 106.24 113.64 108.14 119.84 112.13 120.4 117.59 123.08 127.28 121.74 132.27 122.35 135.99 129.54 136.22 128.94 155.01 127.93 184.19 128.17 184.21 126.43 236.94 125.78 236.92 125.37 250.04 93.84 248.93 93.4 262.01 67.6 260.97 67.24 269.48 41.31 268.44 41.8 256.56 16.44 255.2 20.76 152.01 20.71 148.96 22.92 98.65 23.82 80.49 23.48 79.82 24.64 51.48 Z"
       id="Teton"
       fill="#cdec98"
       style="fill:#d72f30;fill-opacity:1" />
    <path
       d="M 656.88 511.63 675.4 511.19 706.02 510.81 727.49 510.24 727.94 523.5 749.22 522.91 795.87 521.27 799 606.13 727.94 608.61 707.49 609.65 659.38 610.88 659 603.74 657.77 560.73 657.89 550.48 656.88 511.63 Z"
       id="Laramie"
       fill="#d5bca5"
       style="fill:#d72f30;fill-opacity:1" />
    <path
       d="M 562.42 236.29 569.08 236.12 605.53 235.34 631.65 234.65 671.91 233.38 691.63 232.65 692.42 252.4 693.55 288.12 693.45 290.23 694.93 340.7 695.48 340.71 696.36 366.92 671.24 367.75 652.51 368.56 653.44 394.85 648 395.02 645.93 399.07 644.95 403.36 645.5 411.95 643.25 412.04 643.7 416.39 627.84 416.81 617 414.8 616.69 403.8 621.05 403.73 620.97 399.37 623.13 399.33 623.07 395.66 579.44 396.23 565.33 396.29 565.06 396.3 564.44 353.29 564.64 344.29 564.05 313.93 562.93 239.59 562.42 236.29 Z"
       id="Converse"
       fill="#dbe5d2"
       style="fill:#d72f30;fill-opacity:1" />
    <path
       d="M 208.74 186.67 213.16 186.35 232.69 186.56 233.05 173.47 252.67 173.82 252.57 160.83 266.08 161.05 266.26 147.69 292.5 148.15 299.07 148.19 298.97 161.45 305.76 161.51 305.31 174.89 318.4 175.06 318.27 183.6 331.83 183.51 330.23 186.09 332.92 187.94 356.76 188.19 356.64 201.04 382.94 201.22 382.84 214.42 396.09 214.38 396.03 236.24 396.01 240.63 334.43 240.48 334.41 242.14 314.49 241.9 314.53 239.75 301.45 239.55 301.51 235.19 288.43 234.99 288.5 230.57 275.46 230.41 275.62 223.85 262.51 223.66 262.59 219.18 249.5 219.02 249.51 216.84 223.51 216.21 223.8 204.23 221.35 202.52 217.09 194.32 214.15 192.71 211.85 188.33 208.74 186.67 Z"
       id="Hot Springs"
       fill="#9a94d1"
       style="fill:#d72f30;fill-opacity:1" />
    <path
       d="M 722.71 366.05 745.2 365.31 755.59 364.68 789.78 363.33 795.87 521.27 749.22 522.91 727.94 523.5 727.49 510.24 725.81 457.93 722.71 366.05 Z"
       id="Goshen"
       fill="#e8ead8"
       style="fill:#d72f30;fill-opacity:1" />
    <path
       d="M 16.44 255.2 41.8 256.56 41.31 268.44 67.24 269.48 66.61 285.9 65.57 286.07 64.95 298.84 63.58 338.2 59.61 338.05 59.2 348.45 62.91 348.61 61.39 388.06 66.61 388.25 65.82 414.04 78.91 414.16 78.87 414.73 103.31 415.53 103.24 416.42 120.38 416.96 119.03 456.72 119.93 456.76 117.71 521.42 116.04 521.44 56.99 519.15 4.86 516.94 8.38 432.1 10.8 377.45 12.6 344.64 16.44 255.2 Z"
       id="Lincoln"
       fill="#bbea90"
       style="fill:#d72f30;fill-opacity:1" />
    <path
       d="M 4.86 516.94 56.99 519.15 116.04 521.44 117.71 521.42 117.08 538.47 114.92 608.92 93.3 608.55 63.3 607.6 58.84 607.2 38.85 606.44 1 604.66 3.35 549.97 4.86 516.94 Z"
       id="Uinta"
       fill="#cde2b7"
       style="fill:#d72f30;fill-opacity:1" />
    <path
       d="M 120.38 416.96 154.29 418.74 182.68 419.87 233.34 420.97 271.98 421.75 312.32 422.25 336.15 422.66 390.97 423.18 403.55 423.16 403.53 449.36 405.61 449.37 405.32 501.74 404.81 514.26 357.37 513.72 357.08 553.07 358.53 553.09 357.98 612.84 320.07 612.81 291.55 612.47 247.79 611.79 205.97 610.82 173.53 610.48 114.92 608.92 117.08 538.47 117.71 521.42 119.93 456.76 119.03 456.72 120.38 416.96 Z"
       id="Sweetwater"
       fill="#c4e4e2"
       style="fill:#d75d5d;fill-opacity:1" />
    <path
       d="M 565.33 396.29 579.44 396.23 623.07 395.66 623.13 399.33 620.97 399.37 621.05 403.73 616.69 403.8 617 414.8 627.84 416.81 643.7 416.39 643.25 412.04 645.5 411.95 644.95 403.36 645.93 399.07 648 395.02 653.44 394.85 653.92 405.52 654.99 446.48 655.82 446.47 656.42 461.95 657.3 498.74 656.49 498.77 656.88 511.63 657.89 550.48 657.77 560.73 659 603.74 659.38 610.88 607.63 612.16 569.89 612.77 540.22 612.84 539.6 576.59 539.33 553.15 552.36 553.2 568.2 552.79 567.64 537.13 566.72 489.52 565.85 438.69 565.33 396.29 Z"
       id="Albany"
       fill="#cee8ef"
       style="fill:#d72f30;fill-opacity:1" />
    <path
       d="M 666.03 6.91 726.97 5.24 774.98 3.57 775.93 22.05 778.15 77.04 780.25 126.81 736.19 128.4 669.18 131.18 668.45 125.1 667.35 78.19 666.98 76.05 665.98 39.11 666.9 39.18 666.03 6.91 Z"
       id="Crook"
       fill="#c7d5e6"
       style="fill:#d72f30;fill-opacity:1" />
    <path
       d="M 403.55 423.16 403.58 397.14 468.52 397.22 503.78 397.42 565.06 396.3 565.33 396.29 565.85 438.69 566.72 489.52 567.64 537.13 568.2 552.79 552.36 553.2 539.33 553.15 539.6 576.59 540.22 612.84 525.08 612.56 478.99 612.83 391.39 613 357.98 612.84 358.53 553.09 357.08 553.07 357.37 513.72 404.81 514.26 405.32 501.74 405.61 449.37 403.53 449.36 403.55 423.16 Z"
       id="Carbon"
       fill="#bce4ec"
       style="fill:#d72f30;fill-opacity:1" />
    <path
       d="M 292.72 134.72 338.93 135.33 382.58 135.69 386.7 135.93 420.15 135.79 444.97 136.1 446.94 136.09 447.18 188.83 448.7 188.8 448.81 228.06 449.15 236.42 436 236.27 402.63 236.27 396.03 236.24 396.09 214.38 382.84 214.42 382.94 201.22 356.64 201.04 356.76 188.19 332.92 187.94 330.23 186.09 331.83 183.51 318.27 183.6 318.4 175.06 305.31 174.89 305.76 161.51 298.97 161.45 299.07 148.19 292.5 148.15 292.72 134.72 Z"
       id="Washakie"
       fill="#f3d7d4"
       style="fill:#d72f30;fill-opacity:1" />
    <path
       d="M 287.02 9.16 298.39 9.42 362.91 9.97 366.09 12.29 366.02 20.14 369.04 23.03 367.76 29.17 371.3 33.51 371.18 36.51 372.93 37.66 373.28 41.92 376.89 44.5 379.54 44.78 380.87 53.27 385.56 54.7 388.41 58.44 393.96 55.67 401.53 58.71 403.77 65.35 407.36 64.27 410.08 68.76 418.32 71.23 420.83 76.68 428.49 86.27 428.27 91.87 434.54 94.99 438.89 93.78 439.2 100.88 442.47 101.75 440.78 106.98 442.12 110.54 445.11 112.22 444.97 136.1 420.15 135.79 386.7 135.93 382.58 135.69 338.93 135.33 292.72 134.72 290.2 134.68 291.04 81.55 288.98 81.5 289.82 28.64 286.8 28.58 287.02 9.16 Z"
       id="Big Horn"
       fill="#cee9e7"
       style="fill:#d72f30;fill-opacity:1" />
    <path
       d="M 420.83 76.68 447.12 76.87 461.03 76.72 496.87 76.83 522.18 76.6 522.18 75.85 549.08 75.46 567.34 74.9 566.92 81.39 567.21 114.05 567.55 134.36 568.11 134.35 569.19 186.85 568.27 186.88 568.61 216.52 569.08 236.12 562.42 236.29 521.98 237.08 494.83 237.44 449.13 237.62 449.15 236.42 448.81 228.06 448.7 188.8 447.18 188.83 446.94 136.09 444.97 136.1 445.11 112.22 442.12 110.54 440.78 106.98 442.47 101.75 439.2 100.88 438.89 93.78 434.54 94.99 428.27 91.87 428.49 86.27 420.83 76.68 Z"
       id="Johnson"
       fill="#e8c7b1"
       style="fill:#d72f30;fill-opacity:1" />
    <path
       d="M 669.18 131.18 736.19 128.4 780.25 126.81 782.19 177.25 784.3 228.91 744.55 230.56 708.22 231.88 691.63 232.65 671.91 233.38 670.39 183.86 669.18 131.18 Z"
       id="Weston"
       fill="#f4ddd3"
       style="fill:#d72f30;fill-opacity:1" />
    <path
       d="M 564.66 10.15 575 9.97 576.59 8.93 634.52 7.72 666.03 6.91 666.9 39.18 665.98 39.11 666.98 76.05 667.35 78.19 668.45 125.1 669.18 131.18 670.39 183.86 671.91 233.38 631.65 234.65 605.53 235.34 569.08 236.12 568.61 216.52 568.27 186.88 569.19 186.85 568.11 134.35 567.55 134.36 567.21 114.05 566.92 81.39 567.34 74.9 566.91 55.41 566.42 53.32 566.12 30.59 565.15 28.95 564.66 10.15 Z"
       id="Campbell"
       fill="#b6a8f0"
       style="fill:#d75d5d;fill-opacity:1" />
  </g>
</svg>
