<?xml version="1.0" encoding="utf-8"?>
<!-- Generator: Adobe Illustrator 17.0.0, SVG Export Plug-In . SVG Version: 6.00 Build 0)  -->
<!DOCTYPE svg PUBLIC "-//W3C//DTD SVG 1.1//EN" "http://www.w3.org/Graphics/SVG/1.1/DTD/svg11.dtd">
<svg version="1.1" id="Слой_1" xmlns="http://www.w3.org/2000/svg" xmlns:xlink="http://www.w3.org/1999/xlink" x="0px" y="0px"
	 width="127.5px" height="176.5px" viewBox="0 0 127.5 176.5" enable-background="new 0 0 127.5 176.5" xml:space="preserve">
<g>
	<path fill="#FFFFFF" d="M4.5,23.5h120c0,28.119,0.306,56.285,0.095,84.393c-0.125,16.678-4.97,27.695-15.672,40.448
		c-13.158,15.679-31.728,29.196-53.515,24.33c-12.349-2.758-26.783-14.708-35.234-23.887C5.478,132.821,6.767,111.713,6.161,91.629
		c-0.553-18.31-0.908-36.63-1.331-54.945C4.728,32.289,4.607,27.895,4.5,23.5z"/>
	<path fill="none" stroke="#444444" stroke-width="2.5" stroke-linejoin="round" stroke-miterlimit="10" d="M4.5,23.5h120
		c0,28.119,0.306,56.285,0.095,84.393c-0.125,16.678-4.97,27.695-15.672,40.448c-13.158,15.679-31.728,29.196-53.515,24.33
		c-12.349-2.758-26.783-14.708-35.234-23.887C5.478,132.821,6.767,111.713,6.161,91.629c-0.553-18.31-0.908-36.63-1.331-54.945
		C4.728,32.289,4.607,27.895,4.5,23.5z"/>
	<path fill="none" stroke="#000000" stroke-width="2" stroke-linejoin="round" stroke-miterlimit="10" d="M4.5,23.5h120
		c0,28.119,0.306,56.285,0.095,84.393c-0.125,16.678-4.97,27.695-15.672,40.448c-13.158,15.679-31.728,29.196-53.515,24.33
		c-12.349-2.758-26.783-14.708-35.234-23.887C5.478,132.821,6.767,111.713,6.161,91.629c-0.553-18.31-0.908-36.63-1.331-54.945
		C4.728,32.289,4.607,27.895,4.5,23.5z"/>
</g>
<path fill="#FBBE13" stroke="#000000" stroke-width="2" stroke-linejoin="round" stroke-miterlimit="10" d="M124.5,23.5
	c0,28.119,0.306,56.285,0.095,84.393c-0.052,7.002-0.937,13.006-2.738,18.56L64.5,94.667V23.5H124.5z"/>
<path fill="#BA2328" stroke="#000000" stroke-width="2" stroke-linejoin="round" stroke-miterlimit="10" d="M64.5,23.5v71.167
	L8.051,122.742c-1.77-10.076-1.577-20.731-1.89-31.112C5.608,73.319,5.273,27.895,5.167,23.5H64.5z"/>
<polygon fill="#FFFFFF" stroke="#000000" stroke-width="0.4891" stroke-linejoin="round" stroke-miterlimit="10" points="63.625,78 
	6.792,78 6.042,48.833 63.625,48.994 "/>
<g>
	<path fill="#FFFFFF" d="M45.75,118.25c0,1.454,2.109,3.649,3.501,3.875c0.743,0.121,2.365,0.152,2.521-0.729
		c0.94-0.134,1.173-0.919,2.232-1.024c0.879-0.087,2.027,0.083,1.766,1.231c0.854,0.169,1.139,0.822,1.728,1.024
		c0.495,0.17,1.971,0.103,2.409-0.097c1.887-0.861-0.317-2.941-1.515-2.677c-0.068-1.281,2.585-2.222,2.877-3.71
		c0.206,0.043,0.504-0.071,0.713-0.037c0.062-0.737-0.151-3.408-1.206-1.866c-0.108-1.608,0.798-2.156,0.982-3.496
		c0.161-1.167-0.11-3.006-1.383-3.494c-1.837-0.704-2.584,0.966-2.749,2.337c-0.011-1.381-0.444-3.123,0.844-3.868
		c0.595-0.345,1.414-0.048,1.998-0.502c0.544-0.422,0.699-1.168,1.254-1.583c0.575-0.431,1.407-0.443,2.028-0.788
		c0.551-0.306,1.436-1.001,1.89-1.425c-1.742,1.471,1.698,1.847,2.61,1.703c1.163-0.183,0.665-0.653,1.403-1.1
		c0.467-0.282,1.398-0.267,1.953-0.256c0.01,0.736-0.388,1.428-0.478,2.234c-0.11,0.986-1.388,3.279-0.978,4.098
		c0.242,0.483,1.475,0.949,1.953,1.042c-0.002,0.322,0.22,0.618,0.165,0.962c0.302-0.185,0.504-0.121,0.731-0.499
		c0.519,0.822-1.428,2.27-1.603,3.38c0.175-0.335,0.448-0.67,0.709-0.846c-0.306,1.533-1.581,2.215-0.981,4.072
		c0.283-0.534,0.335-0.357,0.859-0.441c-0.202,1.343-1.859,2.551-1.859,3.853c0,0.625,0,1.625,0.625,1.875
		c0.375,0.25,0.75,0,1.125-0.125c0.25,0,0.625,0,0.875,0c0.75-0.125,1.125-0.625,1.625-1c0.5-0.5,1.25-0.875,2-0.75
		c0.625,0.125,1,0.5,1.375,0.875c1,0.875,2,1.5,3.25,1.5c0.75,0,1.625,0.125,2.25,0s1.125-0.75,1.625-1.125
		c0.875-1.125,0.375-2.5,0.125-3.75C84.875,116,84.125,115,83.375,114c-0.5-0.75-1.875-1.625-2-2.625l-0.625-0.292
		c-0.583-0.583,1.75-1.333,2-1.417c0.917-0.333,1.833-1,2.75-0.917c0.5,0.083,0.5,0.167,0.417,0.667
		c-0.083,0.25-0.25,0.583-0.25,0.833c0,0.417-0.083,1.75,0.25,1.917C86.25,112.25,86.833,112,87.083,112
		c0.417,0,0.667-0.083,1-0.167c0.667,0,1.417-0.25,1.917,0.083c0.583,0.25,1.167,0.583,1.417,1.25c0.25,0.5,0.333,1,0.917,1.417
		c0.5,0.5,1.083,0.833,1.75,1.083s0.917,0.667,1.25,1.25c0.583,1.083,1.417,2.417,2.583,2.917c0.583,0.25,1.167,0.667,1.75,0.75
		c0.5,0.083,0.833,0.167,1.333,0.417c0.75,0.25,1.333,0.583,2.083,0.667c0.667,0.083,1.333,0.083,2,0.083
		c0.75,0,1.083-0.333,1.667-0.75c0.417-0.25,1.083-0.5,1.333-1h0.167c0.124,0.665-1.202,2.736-1.748,3.021
		c-1.002,0.523-2.179,0.164-3.246,0.289c-1.095,0.128-2.126,0.356-3.257,0.356c-0.75,0-1.916,0.417-2.166,1.25
		c-0.25,1,0.917,1.417,1.583,1.667c0.833,0.417,1.833,0.333,2.75,0.167c0.833-0.083,1.75-0.167,2.5-0.333
		c0.833-0.167,1.75-0.417,2.583-0.333l0.688-0.083c-0.25,0.75-0.563,1.125-1.125,1.625c-0.5,0.438-0.875,1-1.563,1.25
		c-0.688,0.313-1.313,0.875-2,1.188c-0.375,0.125-0.75,0.188-1.125,0.25c-0.313,0.063-0.563,0.188-0.875,0.25
		c-1,0.313-2,0.438-3,0.375c-0.5,0-1-0.125-1.5-0.188c-0.5,0-0.938,0-1.438-0.125c-1-0.25-1.688-0.875-2.5-1.438
		c-0.375-0.25-0.813-0.563-1.188-0.063c-0.188,0.375,0,0.875,0.188,1.25c0.438,0.875,1.313,1.563,2.125,2
		c0.875,0.5,1.75,0.938,2.625,1.375c0.938,0.438,1.938,0.438,2.875,0.313C100,134,100.5,134,101,133.813
		c0.375-0.125,0.688-0.25,1.125-0.25l0.875-0.188l-0.333,0.292c-0.333,0.25-0.417,0.75-0.75,1.083
		c-0.333,0.25-0.667,0.417-1.083,0.5c-0.667,0.167-1.333,0.25-2,0.333c-0.833,0.167-1.75,0.333-2.583,0.333
		c-0.917,0-1.917,0.083-2.75-0.167c-1.083-0.333-2.167-1.083-3.25-1.417c-0.667-0.25-1.25-0.333-1.833-0.583
		c-0.5-0.167-1.083-0.5-1.583-0.5c-0.667,0-1.5,0.75-1.167,1.333c0.25,0.667,0.833,1.167,1.25,1.583c0.5,0.5,1.25,0.583,1.75,1
		C89,137.333,89.25,137.5,89.5,137.75c0.167,0.083,0.583,0.333,0.75,0.5c0.167,0.25,0,0.333-0.25,0.583
		c-0.167,0.167-0.333,0.417-0.583,0.583c-0.5,0.25-1.25,0.25-1.75,0.25c-1.5-0.083-2.5-1.083-3.333-2.167
		c-0.25-0.25-0.5-0.5-0.75-0.75c-0.167-0.167-0.417-0.583-0.667-0.667c-0.5-0.167-0.417,1.167-0.25,1.5
		c0.167,0.417,0.333,0.5,0.333,1c0,0.333-0.083,0.667-0.167,0.917c-0.083,0.333-0.083,0.667-0.25,0.917s-0.417,0.417-0.5,0.667
		l-0.333,0.167c0.044-0.681-0.713-0.821-1.023-1.329c-0.301-0.495-0.255-1.165-0.642-1.673c-0.616-0.807-1.423-1.638-2.063-2.433
		c-0.364-0.452-0.818-0.896-1.272-1.231c-0.378-0.279-0.814-0.826-1.267-1.085c-1.107-0.633-2.269,0.46-2.485,1.5
		c-0.246,1.179-0.317,2.99,0.667,3.731c1.008,0.759,2.706,0.712,3.524,1.752c0.395,0.502,0.232,1.093,0.452,1.687
		c0.187,0.506,0.631,0.968,0.919,1.433c0.597,0.968,1.545,2.128,1.919,3.166c0.341,0.947,1.061,2.426,1.873,3.042
		c1.318,1,1.721-0.81,2.06-1.731c0.402-1.089,1.571-2.03,2.356-2.727c0.391-0.347,0.929-0.72,1.13-1.204
		c0.207-0.501,0.019-1.5,0.923-0.886c0.018,0.37-0.045,0.787,0.012,1.154c0.061,0.39,0.332,0.603,0.421,0.894
		c0.204,0.67-0.13,1.278-0.241,1.923c0.303,0.125,0.71-0.028,0.989,0.098c0.32,0.144,0.387,0.473,0.672,0.714
		c-0.958-0.409-3.351-0.22-3.179,1.209c0.081,0.672,0.685,0.838,0.923,1.431c0.237,0.592,0.112,1.424-0.229,1.917
		c-0.854,1.237-1.779,1.525-1.773,3.231c0.001,0.398,0.005,1.662-0.262,1.923c-0.478,0.467-1.063,0.038-1.506,0.642
		c-0.388,0.53-0.403,0.789-0.984,1.243c-0.484,0.378-0.996,0.693-1.485,1.081c-0.017-0.122,0.014-0.267-0.012-0.389
		c-0.113-0.533,0.461-1.395,0.5-2c0.045-0.692-0.033-1.391,0-2.083c0.035-0.73,0.406-1.105,0.5-1.75
		c0.099-0.68-0.106-1.465-0.477-2.018c-1.323-1.969-3.238-3.575-4.835-5.415c-0.853-0.982-1.986-1.727-3.106-2.421
		c-1.153-0.715-0.948-2.233-2.021-2.891c-0.43-0.263-1.376-0.246-1.891-0.007c-0.633,0.295-0.591,0.74-0.977,1.194
		c-0.424,0.498-0.782,0.537-1.09,1.227c-0.542,1.216-0.53,1.801,0.639,2.396c0.892,0.454,1.897,0.765,2.403,1.708
		c0.327,0.61,0.18,1.157,0.669,1.667c0.403,0.42,1.069,0.596,1.523,0.975c0.352,0.295,1.159,0.873,1.229,1.354
		c0.079,0.541-0.433,1.037-0.398,1.731c0.075,1.479,0.026,2.524,1.485,3.265c0.193,0.964-0.273,2.492-1.046,3.092
		c-0.364,0.282-0.978,0.431-1.277,0.744c-0.428,0.448-0.234,1.083-0.738,1.456c0.399-1.4-0.329-2.971-0.354-4.377
		c-1.73-0.283-0.479-2.294-0.652-3.512c-0.183-1.288-1.004-2.302-2.102-2.981c-0.899-0.557-2.978-1.079-2.837,0.481
		c0.134,1.489,1.655,1.759,2.022,3c0.404,1.366-0.93,2.403-1.987,2.765c-0.094,1.61,0.206,2.491,1.142,3.735
		c-0.225,1.103-2.58,0.718-2.394,1.571c1.125,0.178,2.164-1.226,2.904-0.071c0.521,0.813,0.241,2.558-0.098,3.403
		c-0.772,0.152-1.483,0.235-2.307,0.277c-0.019,0.567-0.327,0.964-0.429,1.487c-0.117,0.602,0.044,1.242-0.096,1.821
		c-0.754,0.14-1.158-0.346-1.589-0.802c-0.24-0.253-0.458-0.568-0.731-0.769c-0.216-0.159-0.679-0.179-0.831-0.331
		c-0.492-0.493-0.167-1.086-0.998-1.525c-0.578-0.305-1.37-0.287-1.85-0.644c1.163-0.792,1.414-2.952,1.825-4.25
		c0.199-0.627,1.134-1.459,0.854-2.166c-0.226-0.571-1.412-0.63-2.072-0.598c0.335-1.367,1.163-2.999,2.054-4.09
		c0.54-0.661,1.323-0.895,0.836-1.875c-0.287-0.577-1.233-1.469-1.886-1.173c-0.234,0.41-0.875,0.691-1.199,1.055
		c-0.314,0.353-0.603,0.898-0.896,1.343c-0.775,1.176-1.491,1.737-1.502,3.254c-0.008,1.089-0.022,0.914-0.917,1.167
		c-0.557,0.157-1.12,0.497-1.479,1.016c-0.391,0.566-0.274,1.123-0.437,1.734c-0.171,0.64-0.436,1.005-0.417,1.725
		c-0.124-1.011-0.404-1.321-1.146-1.977c-0.862-0.763-1.152-2.165-0.627-3.271c0.305-0.642,0.57-0.895,0.69-1.644
		c0.099-0.618,0.28-1.258,0.495-1.838c0.436-1.171,0.804-2.104,1.565-3.018c0.608-0.73,1.05-1.51,1.362-2.406
		c0.311-0.893,0.708-1.363,1.264-2.132c0.346-0.478,1.028-0.944,1.292-1.462c0.284-0.558-0.076-1.394-0.416-1.873
		c-0.577-0.811-0.885-0.723-1.502-0.123c-0.485,0.472-0.737,0.491-1.313,0.766c-0.572,0.274-0.676,0.642-1.102,1.065
		c-0.428,0.425-1.07,0.534-1.56,0.791c-0.555,0.292-0.832,0.69-1.25,1.148c-0.76,0.833-1.971,0.849-2.502,1.998
		c-0.296,0.64-0.359,0.916-0.854,1.479c-0.352,0.4-0.502,1.179-0.965,1.368c-0.055,0.946,0.056,1.537,0.384,2.339
		c0.151,0.369,0.124,0.813,0.267,1.146c0.271,0.633,0.429,0.346,0.752,0.579c0.706,0.51,1.029,0.999,0.56,1.666
		c-0.335,0.477-1.455,0.646-1.408,1.24c-0.41,0.162-1.003,0.49-0.984,0.989c-0.022-0.825-1.597-2.014-2.387-1.904
		c-0.253-0.927,0.132-1.746-0.3-2.721c-0.43-0.972-0.891-1.315-1.8-1.864c-0.085-1.457,0.503-2.905,0.293-4.362
		c-0.209-1.445-2.09-1.962-1.974-3.373c0.061-0.744,0.719-0.883,1.067-1.433c0.823-1.3-0.19-2.335-0.048-3.643
		c0.367,1.43,1.461,1.385,2.652,1.892c1.462,0.622,0.764,1.656,0.894,2.87c0.042,0.39,0.183,1.419,0.621,1.636
		c0.409,0.202,1.363-0.251,1.796-0.339c0.966-0.196,1.643-0.755,2.494-1.171c0.462-0.226,0.9-0.252,1.229-0.697
		c0.629-0.85,0.173-2.235,0.979-3.007c0.513-0.491,1.204-0.841,1.737-1.335c0.877-0.813,1.905-1.43,2.746-2.271
		c0.333-0.25,0.75-0.5,1-0.833c0.333-0.417,0.5-0.917,0.75-1.417c0.167-0.417,0.333-0.75,0.333-1.167
		c0-0.917-0.417-1.833-1.167-2.417c-0.75-0.667-1.833,0.083-2.5,0.583c-0.333,0.333-0.833,0.5-1.167,0.833
		c-0.333,0.333-0.583,0.667-0.833,1c-0.333,0.417-0.667,0.75-1.083,1.167c-0.333,0.333-0.333,0.583-0.417,1
		c-0.25,0.75-1,1.5-1.667,1.833c-0.75,0.333-1.5,1.5-2.417,1.417c0.583,0,0.917-0.417,0.917-0.917c0-0.667,0.083-1.25,0-1.833
		c-0.083-0.667-0.25-1.167-0.25-1.75c0-0.417,0.25-1.167,0.083-1.5c-0.333,0.25-0.583,0.583-0.917,0.833s-0.667,0.5-1,0.75
		c-0.75,0.583-1.917,0.5-2.75,0.583c-0.917,0.167-1.833,0.25-2.75,0.5c-0.417,0.083-0.75,0.25-1.083,0.5
		c-0.25,0.167-0.583,0.5-0.917,0.5c0-0.417,0.833-1,1.083-1.333c0.417-0.583,0.75-1.167,1.083-1.75c0.5-1,1.833-1.333,2.5-2.25
		l-0.083-0.167c-0.417,0-0.75,0.167-1.167,0.167c-0.333,0-0.667-0.083-1-0.083s-0.75,0-1.167,0c-0.75,0-1.583,0-2.417,0
		c-0.75,0-1.5-0.083-2.167-0.167c-0.75-0.083-1.417-0.417-2.083-0.5c-0.75-0.167-1.5-0.167-2.25-0.167c-0.5,0-1.75,0-2.083-0.583
		c0.417-0.417,1.417-0.5,2-0.583c0.75-0.167,1.25-0.583,2-0.667c0.417-0.083,0.833-0.083,1.25-0.25
		c0.333-0.083,0.583-0.333,0.917-0.417c0.667-0.25,1.5-0.417,2.167-0.083l0.333,0.173l0.25-0.59c-0.667,0-1.5-0.167-2.083-0.333
		c-0.917-0.25-1.75-0.25-2.583-0.25c-0.417,0-0.75,0.083-1.167,0.25c-0.417,0.083-0.75,0.083-1.167,0.083
		c-0.917,0-1.667,0.083-2.5,0.25s-1.583,0.25-2.333,0.5c-0.917,0.25-1.667-0.083-2.5-0.25c-0.833-0.083-1.5-0.333-2.25-0.667
		c-0.417-0.167-0.667-0.417-1-0.667c-0.25-0.25-0.75-0.5-0.75-0.833c0.417-0.167,1-0.083,1.417-0.083c0.5,0,0.917-0.083,1.333-0.083
		c0.917,0,1.667-0.083,2.5-0.333c0.833-0.167,1.583-0.583,2.333-0.917c0.417-0.167,0.833-0.25,1.167-0.5
		c0.333-0.167,0.583-0.5,0.917-0.583l1.833-0.417l-0.833-0.542c-0.74-0.898-2.581-0.13-3.597-0.278
		c-1.066-0.155-2.591-0.309-3.653-0.591c-1.987-0.527-4.228-2.659-5.109-4.332c2.366,0.738,4.77,1.181,7.133,1.706
		c1.576,0.35,3.548,0.427,4.883-0.725c0.748-0.645,0.964-1.584,1.719-2.159c0.565-0.431,1.56-0.751,2.229-0.893
		c0.406-0.842,2.281-1.503,3.147-1.881c1.495-0.653,5.329-0.943,5.874-2.847c0.5-1.001-0.375-1.876-0.375-2.876
		c0-0.75,0.125-1,0.875-0.875c0.625,0.125,1.125,0.25,1.5,0.625c0.875,0.5,1.375,1.25,1.875,2c0.375,0.375,0.75,0.75,0.75,1.125
		c0,0.625-0.375,1.125-0.625,1.625c-0.5,0.75-1,1.625-1.375,2.375c-0.25,0.5-0.375,1-0.5,1.5C46,117.375,45.75,117.75,45.75,118.25z
		"/>
	<g>
		<path d="M45.178,117.998c0.549,2.24,2.216,3.637,4.326,4.335c1.75,0.579,2.431-0.484,3.879-1.192
			c1.647-0.804,1.144-0.059,2.194,0.485c1.866,0.968,3.631,2.337,5.583,0.522c1.232-1.145-2.573-2.48-3.242-2.56
			c0.348,0.172,0.697,0.344,1.045,0.517c0.304-0.911,2.517-3.677,3.559-3.731c0.01-0.005,0.021-0.011,0.031-0.016
			c-0.001-0.99,0.043-1.893-0.808-2.475c-0.144-0.098-0.835-0.513-1.006-0.364c-0.179,0.156-0.358,0.313-0.536,0.469
			c0.381,0.168,0.763,0.336,1.144,0.504c0.307-2.455,2.294-5.549-0.649-7.195c-1.957-1.095-3.168-0.028-3.645,2.039
			c0.381,0.168,0.763,0.336,1.144,0.504c-0.056-1.122-0.095-2.048,0.168-3.143c0.474-1.98,1.896-0.233,2.675-1.226
			c1.374-1.752,3.479-2.386,5.172-3.796c-0.381-0.168-0.763-0.336-1.144-0.504c-0.829,1.129,0,1.541,1.135,1.917
			c2.68,0.886,3.509-1.005,5.944-1.05c-0.371-0.173-0.742-0.346-1.113-0.52c-0.168,0.91-2.077,5.904-1.399,6.414
			c0.669,0.503,1.907,1.027,2.061,1.923c0.035,0.206,0.926,0.603,1.113,0.52c0.526-0.237,0.33-0.103,0.762-0.515
			c-0.381-0.168-0.763-0.336-1.144-0.504c-0.013,1.31-1.074,2.207-1.603,3.38c-0.053,0.117,1.02,0.652,1.144,0.504
			c0.236-0.282,0.473-0.564,0.709-0.846c-0.381-0.168-0.763-0.336-1.144-0.504c-0.548,1.527-1.179,2.405-0.981,4.072
			c0.022,0.187,1.018,0.648,1.144,0.504c0.276-0.142,0.551-0.283,0.827-0.425c-0.371-0.173-0.742-0.346-1.113-0.52
			c-0.569,1.492-3.584,5.773-0.189,6.245c1.276,0.177,5.345-2.032,6.012-1.435c0.816,0.73,1.893,1.443,2.964,1.72
			c7.71,1.993,5.637-5.849,2.201-9.498c-0.332-0.353-1.05-1.633-1.047-1.672c0.046-0.671,3.985-1.392,3.991-1.715
			c-0.022,1.032-0.449,1.754,0.01,2.784c0.107,0.241,0.857,0.507,1.103,0.486c1.387-0.118,3.282-0.979,4.397,0.514
			c0.677,0.906,0.854,1.505,1.858,2.158c2.047,1.331,2.784,3.507,4.88,4.68c1.471,0.823,3.23,1.439,4.825,1.853
			c1.105,0.287,2.069,0.366,3.207,0.378c1.258,0.013,2.158-1.75,3.167-1.75c-0.371-0.173-0.742-0.346-1.113-0.52
			c-0.858,4.249-5.725,3.238-9.058,3.79c-1.826,0.302-1.52,1.883-0.399,2.612c2.999,1.951,7.041,0.507,10.257,0.117
			c-0.371-0.173-0.742-0.346-1.113-0.52c-2.236,4.55-10.021,6.456-14.119,3.551c-0.769-0.545-1.322-0.796-2.162-0.442
			c-0.01,0.005-0.021,0.011-0.031,0.016c-0.199,2.657,3.414,3.937,5.318,4.9c2.298,1.163,4.806,0.376,7.17-0.13
			c-0.371-0.173-0.742-0.346-1.113-0.52c-2.784,2.436-6.771,3.456-10.512,1.825c-1.237-0.539-4.306-2.389-5.623-1.966
			c-2.535,0.814-0.299,2.775,1.065,3.604c1.398,0.848,3.806,1.991,0.643,2.782c-1.827,0.457-3.33-2.087-4.57-3.114
			c-0.16-0.132-0.882-0.574-1.087-0.422c-0.478,0.355-0.509,0.986-0.24,1.534c0.375,0.604,0.428,1.232,0.157,1.883
			c-0.083,0.306-0.167,0.611-0.25,0.917c-0.861,0.725-0.887,0.916-0.078,0.574c-1.359-2.618-3.481-5.479-6.017-7.128
			c-3.122-2.031-5.203,3.37-2.685,5.007c1.883,1.225,2.994,1.853,4.269,4.065c1.045,1.813,2.711,6.065,4.527,7.081
			c0.382,0.214,1.421,0.809,1.727,0.579c1.241-0.933,1.592-2.782,2.716-3.965c0.281-0.296,2.549-2.918,2.726-2.872
			c-0.316-0.165-0.632-0.331-0.947-0.496c0.015,1.385,0.53,2.623,0.192,3.971c-0.049,0.195,0.9,0.502,1.045,0.517
			c-3.341-0.33-1.75,1.852-1.537,3.931c-0.16,0.775-0.55,1.418-1.172,1.929c-0.857,1.028-0.924,1.942-0.963,3.236
			c-0.021,0.696-3.781,3.567-4.207,3.877c0.381,0.168,0.763,0.336,1.144,0.504c-0.076-2.406,1.067-4.874,0.925-7.28
			c-0.124-2.108-3.898-5.087-5.307-6.458c-1.179-1.147-2.782-2.055-3.856-3.295c-0.617-0.712-0.456-1.493-1.352-2.076
			c-0.465-0.302-1.397-0.665-1.888-0.572c-1.781,0.338-3.659,2.542-3.243,4.402c0.081,0.363,0.621,0.546,0.944,0.755
			c1.908,1.241,2.09,1.554,2.943,3.269c0.713,1.434,3.358-0.432,2.56,3.104c-0.185,0.818-0.441,2.067,0.017,2.866
			c2.04,3.559-0.224,3.822-1.808,6.613c0.381,0.168,0.763,0.336,1.144,0.504c0.049-0.782,0.251-3.916-0.411-4.459
			c-1.673-1.371-0.122-1.958-0.605-3.465c-0.627-1.959-1.839-3.151-3.76-3.786c-2.248-0.744-2.867,0.79-1.38,2.443
			c2.87,3.192-0.937,2.971-0.852,5.545c0.025,0.75,1.411,2.64-0.224,3.191c-0.947,0.319-0.662,0.004-1.074,0.708
			c-0.076,0.129,0.963,0.547,1.113,0.52c3.334-0.601,2.086,2.853-0.581,3.073c-0.01,0.005-0.021,0.011-0.031,0.016
			c-0.929,3.849-2.068,1.549-3.588,0.303c-2.118-1.736,0.366-4.635,0.886-6.979c0.012-0.053-0.113-0.124-0.138-0.14
			c-1.217-0.732-1.532-0.887-2.979-0.975c0.348,0.172,0.697,0.344,1.045,0.517c0.551-1.624,5.353-7.32,0.674-7.61
			c-2.331-0.145-4.074,3.708-4.412,5.621c-0.242,1.371-0.837,0.675-1.73,1.539c-1.085,1.05-1.294,2.636-1.52,4.102
			c0.378,0.157,0.756,0.313,1.134,0.47c-0.697-2.289-2.713-3.421-1.35-5.996c0.986-1.861,1.066-3.894,2.336-5.718
			c1.216-1.746,1.82-3.684,3.303-5.254c1.212-1.282,0.571-2.356-0.594-3.291c-0.178-0.143-0.855-0.564-1.087-0.422
			c-1.875,1.145-3.684,2.291-5.417,3.602c-2.183,1.651-3.154,3.472-4.895,5.482c-0.645,0.745,0.367,3.633,1.255,4.13
			c2.177,1.218-1.056,2.649-1.684,3.83c0.378,0.157,0.756,0.313,1.134,0.47c-0.783-1.528-1.791-1.95-3.325-2.366
			c0.316,0.165,0.632,0.331,0.947,0.496c-0.102-1.656-0.141-2.5-1.03-3.845c-1.272-1.925-0.779-3.017-0.777-5.102
			c0.001-1.124-1.702-2.288-1.974-3.373c0.217-0.581,0.572-1.059,1.067-1.433c0.762-0.765,0.046-2.765-0.048-3.643
			c-0.378-0.157-0.756-0.313-1.134-0.47c0.701,1.213,0.716,1.223,2.038,1.805c2.043,0.9,1.179,3.035,2.129,4.592
			c0.15,0.245,0.826,0.505,1.103,0.486c1.577-0.108,3.711-0.821,4.986-1.793c0.894-0.681,0.92-1.423,1.072-2.504
			c0.151-1.075,1.453-1.692,2.209-2.269c1.9-1.45,7.812-6.388,3.132-8.45c-2.706-1.192-5.161,1.818-6.499,3.894
			c-0.634,0.983-0.749,1.571-1.781,2.365c-1.797,1.381,0.186-0.456-0.596,1.65c0.624-1.683,0.124-3.951,0.073-5.729
			c-0.006-0.192-1.001-0.634-1.144-0.504c-2.53,2.3-6.259,2.453-9.385,3.651c0.371,0.173,0.742,0.346,1.113,0.52
			c1.336-2.081,2.865-3.672,4.667-5.333c-0.003-0.011-0.006-0.023-0.009-0.034c-0.028-0.056-0.056-0.111-0.083-0.167
			c-0.116-0.232-0.856-0.521-1.103-0.486c-3.711,0.53-7.411-0.253-11.058-0.726c-2.627-0.341-0.376-0.589,0.805-1.02
			c0.944-0.344,4.064-1.576,4.934-1.123c0.063,0.033,0.713,0.349,0.764,0.229c0.083-0.197,0.167-0.393,0.25-0.59
			c0.07-0.165-0.918-0.504-1.045-0.516c-2.12-0.206-3.77-0.793-5.901-0.336c-2.3,0.493-6.079,1.127-8.335,0.607
			c-4.11-0.949-1.263-1.763-0.334-1.821c1.341-0.084,2.422-0.308,3.698-0.729c1.76-0.582,3.23-1.607,5.052-2.021
			c0.106-0.024-0.094-0.147-0.107-0.156c-1.719-1.117-2.428-1.47-4.518-1.22c-2.906,0.349-6.027-1.286-7.866-3.374
			c-0.46-0.523,4.35,0.276,4.488,0.306c1.566,0.341,4.217,1.218,5.753,0.316c1.282-0.753,1.888-1.665,2.823-2.807
			c0.732-0.293,1.465-0.585,2.197-0.878c0.253-0.123,0.443-0.327,0.573-0.612c1.57-1.729,5.277-1.89,7.307-2.833
			c0.73-0.339,0.805-0.663,1.173-1.299c0.173-0.344,0.211-0.678,0.116-1.002c-1.208-2.581-0.333-2.779,2.625-0.594
			C48.889,112.024,45.956,115.859,45.178,117.998c-0.06,0.166,1.1,0.624,1.144,0.504c0.845-2.324,2.402-4.526,3-6.875
			c0.227-0.892-2.084-2.703-2.682-3.207c-0.911-0.766-2.119-1.129-3.274-0.954c-0.01,0.005-0.021,0.011-0.031,0.016
			c-0.501,2.455,1.279,3.9-1.82,5.34c-1.761,0.818-3.757,1.081-5.55,1.899c-1.611,0.735-3.411,1.718-4.523,3.077
			c-3.042,3.717-8.705,1.256-12.675,0.132c-0.009-0.003-0.248-0.067-0.187,0.026c2.157,3.31,4.841,4.696,8.613,5.246
			c1.199,0.175,6.438,0.029,2.768,0.863c-1.356,0.308-3.003,1.533-4.417,2c-1.622,0.536-3.562,0.401-5.25,0.5
			c-0.035,0.005-0.042,0.021-0.022,0.05c0.76,1.21,2.49,2.122,3.879,2.41c2.477,0.513,3.544,0.452,6.057-0.007
			c3.231-0.59,6.193-0.318,9.433-0.003c-0.348-0.172-0.697-0.344-1.045-0.516c-0.38,0.897,0.763,0.608-0.484,0.404
			c-2.466-0.403-6.135,0.99-8.401,1.997c-0.093,0.041,0.077,0.134,0.107,0.156c2.028,1.442,4.99,1.373,7.323,1.627
			c2.089,0.227,4.778,0.545,6.817,0.253c-1.948,0.278-3.566,3.313-4.529,4.814c-0.064,0.099,0.954,0.58,1.113,0.52
			c3.3-1.264,6.762-1.241,9.448-3.682c-0.381-0.168-0.763-0.336-1.144-0.504c0.041,1.416,0.938,5.322-0.719,5.984
			c-0.007,0.003,0.799,0.619,1.081,0.535c2.878-0.85,3.766-3.441,5.615-5.432c0.508-0.782,1.175-1.393,2-1.833
			c0.841,0.443,1.682,0.886,2.523,1.33c-0.18,0.934-0.541,1.795-1.083,2.583c-0.895,1.691-3.938,3.243-5.483,4.439
			c-1.441,1.115-0.218,2.6-2.208,3.704c-3.577,1.985-3.548,1.561-3.808-1.741c-0.02-0.253-3.735-3.057-3.515-2.676
			c-0.108-0.188-1.136-0.485-1.134-0.47c0.182,1.702,0.743,2.946-0.593,4.287c-0.923,0.928-0.159,1.775,0.449,2.497
			c1.536,1.826,0.934,3.843,0.806,6.028c-0.045,0.775,2.003,3.016,2.1,4.585c0.015,0.236,0.77,0.448,0.947,0.496
			c0.483,0.481,0.966,0.961,1.45,1.442c0.073,0.142,1.053,0.623,1.134,0.47c0.758-1.424,3.848-2.277,1.774-3.977
			c-0.967-0.792-0.389,0.257-0.971-1.678c-1.515-5.041,6.28-9.156,9.938-11.39c-0.362-0.141-0.724-0.281-1.087-0.422
			c2.703,2.169-3.374,8.81-4.389,11.4c-0.567,1.449-1.11,3.147-1.447,4.652c-0.33,1.475,1.658,2.843,2.045,4.112
			c0.056,0.185,1.123,0.546,1.134,0.47c0.28-1.826,0.431-3.603,2.302-4.459c1.231-0.563,0.899-0.904,1.17-2.439
			c0.146-0.828,3.775-5.941,4.238-2.952c0.097,0.625-2.681,4.22-3.01,5.19c-0.06,0.177,0.909,0.508,1.045,0.517
			c1.783,0.109-1.079,5.847-1.652,6.498c-0.067,0.076,0.639,0.391,0.684,0.409c2.453,0.943,3.514,3.627,6.361,4.178
			c0.037,0.013,0.07,0.008,0.099-0.013c0.123-2.327,0.3-3.172,2.8-3.569c0.01-0.005,0.021-0.011,0.031-0.016
			c1.121-4.138-0.8-4.413-3.919-3.851c0.371,0.173,0.742,0.346,1.113,0.52c0.467-0.796,1.763-0.817,2.394-1.571
			c-0.003-0.011-0.006-0.023-0.01-0.034c-0.874-1.048-1.251-2.281-1.133-3.702c0.819-0.27,1.448-0.777,1.887-1.521
			c0.993-1.159-1.116-2.805-1.61-3.355c2.665-1.075,3.804-0.365,3.415,2.131c-0.029,0.436-0.419,1.548-0.077,2.026
			c1.136,1.59,1.27,2.969,1.152,4.84c-0.012,0.184,1.069,0.636,1.144,0.504c0.95-1.673,2.427-2.304,3.047-4.195
			c0.649-1.978-1.779-3.044-1.256-5.284c0.257-1.103-0.191-1.7-1.185-2.302c-1.729-1.048-1.976-2.88-3.687-3.915
			c-2.271-1.374-1.911-2.453-0.318-3.918c1.199-1.103,2.2-1.408,2.958,0.313c0.41,0.931,2.577,2.151,3.017,2.48
			c2.172,1.63,6.021,5.385,6.19,8.261c0.115,1.958-1.051,4.216-0.987,6.223c0.006,0.202,0.983,0.621,1.144,0.504
			c1.264-0.92,2.475-2.435,3.944-2.951c0.313-0.11,0.511-3.012,0.561-3.26c0.333-1.65,1.942-1.814,1.735-3.827
			c-0.181-1.76-1.252-3.429,2.059-2.648c-0.008-0.002,0.267,0.059,0.187-0.026c-0.943-1.002-1.316-1.158-2.697-1.294
			c0.348,0.172,0.697,0.344,1.045,0.517c0.453-1.802-0.171-2.087-0.192-3.971c-0.002-0.228-0.78-0.453-0.947-0.496
			c-0.198-0.052-0.397-0.103-0.595-0.155c-0.017-0.004-0.176-0.055-0.197-0.008c-1.073,2.454-3.25,4.042-4.476,6.557
			c-0.456,0.936-3.153-4.235-3.375-4.573c-0.893-1.36-1.5-2.614-2.051-4.141c-0.793-2.2-4.283-0.68-4.32-4.473
			c-0.045-4.65,3.906-0.771,5.068,0.583c0.968,1.128,1.991,2.882,2.687,4.223c0.094,0.181,0.911,0.582,1.103,0.486
			c2.389-1.195-0.046-4.258,1.198-5.182c-0.362-0.141-0.724-0.281-1.087-0.422c1.407,1.166,2.407,3.138,4.294,3.64
			c1.358,0.361,5.877,0.069,3.237-1.691c-0.644-0.43-3.132-2.165-3.142-2.175c-1.712-1.738,0.384-2.221,1.878-1.729
			c1.708,0.563,3.529,1.823,5.303,2.057c3.812,0.502,6.863,0.006,9.599-2.388c0.038-0.034-0.923-0.56-1.113-0.52
			c-0.667,0.143-1.334,0.289-2,0.438c-2.96,0.782-5.654-0.202-8.084-2.952c0.435-0.71,0.866-0.915,1.293-0.616
			c0.628,0.351,1.378,0.848,2.118,0.913c4.567,0.397,10.375,0.142,12.724-4.638c0.075-0.153-0.965-0.537-1.113-0.52
			c-1.105,0.134-2.172,0.195-3.271,0.417c-2.239,0.451-8.796-1.352-3.586-2.215c3.467-0.574,7.394,0.716,8.282-3.682
			c0.044-0.218-0.945-0.52-1.113-0.52c-0.444,0-1.114,0.783-1.531,1.016c-2.765,1.54-7.635-0.053-9.612-2.487
			c-1.647-2.028-3.622-3.584-5.17-5.658c-0.328-0.439-1.204-0.784-1.771-0.931c-1.088-0.281-1.978-0.124-3.082,0.06
			c-1.007,0.168-0.062-1.673-0.044-2.553c0.003-0.144-0.435-0.305-0.531-0.345c-1.484-0.615-5.677,0.344-5.79,1.998
			c-0.01,0.143,0.441,0.303,0.531,0.345c2.335,1.09,3.929,5.954,4.071,8.252c0.255,4.14-6.07,1.191-7.432,0.517
			c-1.172-0.58-1.319-0.613-2.607-0.448c-1.244,0.16-1.934,1.609-3.406,1.609c-1.911,0,1.076-4.702,1.222-5.084
			c0.067-0.175-0.961-0.535-1.113-0.52c-0.689,0.069-0.438-0.062-0.89,0.457c0.381,0.168,0.763,0.336,1.144,0.504
			c-0.198-1.667,0.432-2.545,0.981-4.072c0.049-0.137-1.026-0.644-1.144-0.504c-0.236,0.282-0.473,0.564-0.709,0.846
			c0.381,0.168,0.763,0.336,1.144,0.504c0.528-1.173,1.59-2.07,1.603-3.38c0.002-0.189-1.007-0.634-1.144-0.504
			c-0.233,0.161-0.466,0.322-0.7,0.483c0.371,0.173,0.742,0.346,1.113,0.52c-0.055-0.321-0.11-0.641-0.165-0.962
			c-0.039-0.227-0.649-0.398-0.825-0.46c-2.26-0.795,0.033-5.318,0.328-6.915c0.04-0.219-0.942-0.523-1.113-0.52
			c-0.362,0.007-1.666-0.053-1.984,0.272c-0.145,0.148-0.289,0.295-0.434,0.443c-0.854,1.021-1.666,0.84-2.436-0.543
			c0.042-0.057-0.966-0.652-1.144-0.504c-1.179,0.982-2.481,1.596-3.887,2.197c-3.38,1.445,3.794,0.103-2.249,1.875
			c-2.15,0.63-1.984,1.974-1.879,4.093c0.011,0.225,1.125,0.584,1.144,0.504c0.08-0.347,0.161-0.695,0.241-1.042
			c0.513-1.617,1.439-1.375,2.778,0.726c0.258,1.444-0.834,3.038-1.013,4.466c-0.023,0.181,1.005,0.626,1.144,0.504
			c0.179-0.156,0.358-0.313,0.536-0.469c-0.335-0.121-0.67-0.243-1.006-0.364c0.854,0.963,0.804,1.702-0.15,2.217
			c-0.01,0.005-0.021,0.011-0.031,0.016c-0.742,1.48-2.355,2.143-2.877,3.71c-0.061,0.183,0.91,0.501,1.045,0.517
			c3.35,0.396-2.079,4.317-2.669,0.889c-0.038-0.22-1.212-0.691-1.093-0.632c-2.85-1.427-7.316,4.093-8.779-1.873
			C46.24,118.166,45.203,118.099,45.178,117.998z"/>
	</g>
</g>
<g>
	<g>
		<g>
			<path d="M89.401,36.376c-0.465-0.017-0.925-0.07-1.388-0.112c-0.823-0.074-1.169-0.204-1.595-0.919
				c-0.591-0.993-1.489-1.792-2.196-2.699c-0.227-0.292-1.401-0.058-1.195,0.207c0.427,0.548,0.893,1.062,1.349,1.586
				c0.509,0.585,0.865,1.291,1.411,1.836c0.736,0.736,2.378,0.565,3.312,0.598C89.631,36.893,90.254,36.407,89.401,36.376
				L89.401,36.376z"/>
		</g>
	</g>
	<g>
		<g>
			<path d="M85.758,39.387c0.541-0.659,0.229-2.534,1.327-2.591c0.672-0.035,0.9-0.886,0.079-0.843
				c-0.794,0.042-1.379,0.452-1.795,1.109c-0.175,0.276-0.279,0.598-0.351,0.914c-0.082,0.363-0.03,0.835-0.277,1.136
				C84.263,39.696,85.432,39.784,85.758,39.387L85.758,39.387z"/>
		</g>
	</g>
	<g>
		<g>
			<path d="M86.727,36.709c1.077-0.008,2.158-0.113,3.233-0.012c0.307,0.029,0.637-0.072,0.814-0.344
				c0.141-0.218,0.055-0.524-0.233-0.551c-1.174-0.111-2.341-0.021-3.517-0.012C86.43,35.795,85.906,36.716,86.727,36.709
				L86.727,36.709z"/>
		</g>
	</g>
</g>
<rect x="6.083" y="24.417" fill="#FBBE13" stroke="#000000" stroke-width="0.4517" stroke-linejoin="round" stroke-miterlimit="10" width="57.583" height="24.417"/>
<g>
	<path fill="#FFFFFF" d="M12.667,40.333c0.702,0.804,1.333,1.5,2,2.167c0.833,0.5,1.5,1.333,2.333,1.833c0,0,8.5,7.333,28.167,2.5
		c0,0,4.5-2,6-3.667s4-2.167,4.5-2.167s6.167-4.944,5.333-4.806c-0.833,0.139,1,3.479-0.833,6.142C58.333,45,54.5,47,54.5,47
		s-1.5,0.333,1.833,2.833c0,0,1.167,1,2,4.333s2.75,3.167,2.75,3.167s-4.583,2.5-7.583-4.167c0,0-0.667,5.833-1.833,7.667
		c-1.167,1.833-3,7.876-3,7.876l-3,5.957L44.5,79.333L43,86.167L41.833,90.5c0,0-0.083,4.667-4.959,8.001
		c-1.9,1.299-4.354,2.391-6.707,1.892c-5.128-1.127-4.953-9.461-5.334-13.56c-0.306-3.285-0.717-6.666-1.67-9.837
		c-0.755-2.511-2.165-3.972-3.349-6.23C17.432,66.22,17.253,59.014,17.167,54c0,0-6,7-10.333,4.833c0,0,3-1.167,4-6.167
		s3.333-3.333,3.333-3.333s-6.5-4.25-3.667-12.708C10.5,36.625,11.673,39.195,12.667,40.333z"/>
	<g>
		<path d="M11.58,40.879c6.838,7.66,16.375,9.012,26.304,7.935c5.298-0.575,10.259-1.837,14.257-5.531
			c1.525-1.409,4.34-1.868,6.082-3.271c1.36-1.095,3.04-2.31,3.976-3.815c0.093-0.15,0.12-0.357-0.033-0.482
			c-0.027-0.022-0.053-0.044-0.08-0.065c-0.603-0.495-1.825,0.068-2.207,0.61c-0.348,0.496-0.324,0.759-0.24,1.407
			c0.526,4.07-1.406,6.138-4.597,8.273c-0.457,0.306-2.161,0.875-2.052,1.798c0.138,1.166,1.45,1.982,2.256,2.643
			c1.123,0.921,1.525,2.911,1.905,4.196c0.535,1.808,1.479,3.416,3.506,3.459c-0.026-0.381-0.053-0.762-0.079-1.144
			c-2.729,1.357-4.966-2.34-5.897-4.132c-0.383-0.738-2.284-0.085-2.373,0.65c-0.771,6.385-3.568,12.996-6.465,18.749
			c-2.242,4.453-2.97,9.402-4.035,14.251c-0.48,2.187-1.005,4.521-1.661,6.662c-1.475,4.822-9.242,9.401-12.376,3.808
			c-1.235-2.203-1.348-5.125-1.548-7.578c-0.461-5.669-0.702-11.536-3.755-16.498c-3.627-5.896-3.98-12.244-4.11-19.044
			c-0.018-0.955-1.828-0.26-2.167,0.126c-1.954,2.221-5.131,5.454-8.438,4.308c-0.138,0.362-0.277,0.723-0.415,1.085
			c0.963-0.433,1.913-1.203,2.536-2.045c0.78-1.054,3.517-7.161,3.206-7.353c0.677,0.418,2.873-0.611,2.173-1.092
			c-4.127-2.833-4.831-7.877-3.561-12.404c-0.791,0.217-1.582,0.433-2.373,0.65C9.96,38.397,10.687,39.669,11.58,40.879
			c0.462,0.627,2.751-0.309,2.173-1.092c-0.831-1.127-1.48-2.312-2.072-3.571c-0.385-0.818-2.188-0.011-2.373,0.65
			c-1.323,4.719-0.537,10.055,3.772,13.013c0.724-0.364,1.449-0.728,2.173-1.092c-5.242-3.24-6.248,8.399-8.925,9.603
			c-0.326,0.146-1.114,0.842-0.415,1.085c4.658,1.615,9.298-2.026,12.229-5.359c-0.722,0.042-1.445,0.084-2.167,0.126
			c0.13,6.8,0.392,13.479,4.131,19.378c3.743,5.906,3.211,13.163,4.111,19.841c1.624,12.052,14.844,7.81,18.314-0.873
			c2.215-5.543,2.825-12.154,4.277-17.962c0.652-2.609,2.644-4.903,3.478-7.512c1.57-4.91,3.778-8.993,4.406-14.188
			c-0.791,0.217-1.582,0.433-2.373,0.65c1.89,3.637,5.167,6.242,9.27,4.202c0.771-0.383,0.939-1.122-0.079-1.144
			c-1.997-0.042-2.63-5.605-3.756-6.963c-0.735-0.887-1.751-1.376-2.36-2.41c-0.058-0.099-1.116,0.605,0.239-0.171
			c1.761-1.008,3.307-2.242,4.74-3.672c0.652-0.651,1.489-1.768,1.627-2.693c0.089-0.595-0.194-4.147,0.121-4.594
			c-0.736,0.203-1.471,0.406-2.207,0.61c-0.236-0.194-3.567,2.971-3.852,3.201c-0.901,0.726-2.188,0.664-3.311,1.299
			c-2.33,1.317-4.181,3.174-6.585,4.429c-3.064,1.598-7.105,1.767-10.475,2.028c-8.567,0.662-16.227-1.513-21.936-7.91
			C13.217,39.187,10.954,40.178,11.58,40.879z"/>
	</g>
</g>
<path fill="#FFFFFF" stroke="#000000" stroke-width="2" stroke-linejoin="round" stroke-miterlimit="10" d="M15.833,33.667
	c0,0,6.167,7.667,5.833,9.833h25c0,0,1.833-6.5,6-9.833c0,0-2.333-1.292-4.333,1.021h-4.667l-1,4.563h-5.833
	c0,0-1-2.042,2.333-4.563c0,0-3.917-0.521-5.208-5.021c0,0-1.458,4.708-4.958,5.021c0,0,3.167,4.646,1.167,4.563h-5l-1-4.563H20
	c0,0-1.667-2.188-5-1.938L15.833,33.667z"/>
<g>
	<g>
		<path d="M42.54,85.95c-2.153-0.007-5.128,1.533-5.779,3.754c-0.619,2.11,0.089,5.132,2.281,6.047
			c0.398,0.166,1.465-0.44,0.917-0.669c-1.356-0.566-1.888-1.967-2.147-3.318c-0.485-2.533,1.7-5.056,4.315-5.048
			C42.626,86.718,43.36,85.953,42.54,85.95L42.54,85.95z"/>
	</g>
</g>
<g>
	<path fill="#7F7E7F" d="M26.667,96.5c1.667-1.5,2.167-3.5,2-5.667c0-1-0.667-1.833-1.333-2.667C27,87.833,26.667,87.333,26.167,87
		c-0.5-0.5-1-0.5-1.5-0.833l0.664,3.844l0.023,2.739l0.546,2.667L26.667,96.5z"/>
	<g>
		<path d="M27.289,96.56c1.732-1.729,2.233-3.855,1.925-6.248c-0.237-1.842-2.474-3.362-3.946-4.107
			c-0.12-0.061-1.237-0.177-1.224-0.099c0.302,1.749,0.661,3.439,0.676,5.214c0.016,1.867,0.236,3.581,1.324,5.12
			C26.24,96.716,27.191,96.422,27.289,96.56c-1.089-1.538-1.308-3.253-1.324-5.12c-0.015-1.774-0.374-3.464-0.676-5.214
			c-0.408-0.033-0.816-0.066-1.224-0.099c1.826,0.924,3.702,2.48,3.98,4.645c0.276,2.146-0.495,4.165-2,5.667
			C26.159,96.326,27.053,96.796,27.289,96.56z"/>
	</g>
</g>
<g>
	<g>
		<path d="M38.385,90.471c0.3-0.559,1.443-1.016,2.035-0.716c-0.174-0.088,0.102,0.225,0.134,0.338
			c0.069,0.237,0.05,0.515,0.049,0.759c-0.001,0.477-0.003,1.028-0.279,1.44c-0.255,0.379,0.644,1.223,0.85,0.917
			c0.76-1.131,0.501-3.07-0.457-3.997c-0.886-0.858-2.676-0.622-3.27,0.485C37.262,90.042,38.158,90.895,38.385,90.471
			L38.385,90.471z"/>
	</g>
</g>
<g>
	<g>
		<path d="M28.408,90.14c-0.764-0.761-1.662-1.192-2.709-0.651c-0.82,0.424-0.965,1.447-0.358,2.12
			c0.248,0.275,1.4-0.108,1.15-0.386c-0.308-0.342-0.389-0.795-0.215-1.221c0.035-0.077,0.084-0.144,0.145-0.202
			c-0.026,0.009-0.051,0.019-0.077,0.028c0.103,0.038,0.201,0.088,0.293,0.149c0.231,0.149,0.427,0.356,0.621,0.549
			C27.525,90.792,28.662,90.394,28.408,90.14L28.408,90.14z"/>
	</g>
</g>
<path d="M27.934,89.351c0.308-0.22-0.387-1.015-0.637-1.052c-0.149-0.022-0.31-0.054-0.473-0.084
	c-0.386-0.584-0.847-1.11-1.435-1.507c-0.123-0.083-0.285-0.122-0.289,0.078c-0.009,0.439,0.127,0.799,0.33,1.119
	c-0.06,0.554-0.04,1.099-0.236,1.631c-0.125,0.338,0.673,1.215,0.778,0.929c0.09-0.244,0.133-0.492,0.163-0.741
	c0.097,0.054,0.172,0.046,0.181-0.092c0.017-0.27,0.17-0.384,0.377-0.421c-0.093,0.294,0.357,0.998,0.676,0.991
	c0.185-0.004,0.274-0.072,0.314-0.169c0.053,0.01,0.099-0.001,0.122-0.067c0.043-0.12-0.006-0.276-0.081-0.418
	C27.776,89.482,27.84,89.418,27.934,89.351z"/>
<path d="M37.566,90.011c-0.809,0-0.691,0.979,0.035,0.979C38.41,90.989,38.292,90.011,37.566,90.011z"/>
<path d="M41.721,86.58c0.029-0.053,0.025-0.09-0.047-0.09c-0.132,0-0.409,0.162-0.625,0.328c-0.118-0.02-0.236-0.023-0.342,0.019
	c-0.685,0.27-1.394,0.406-1.779,1.099c-0.025,0.045-0.026,0.086-0.035,0.129c-0.369,0.211-0.721,0.453-1.049,0.685
	c-0.586,0.415,0.49,1.014,0.978,0.669c0.226-0.16,0.476-0.289,0.719-0.427c0.256,0.141,0.507,0.276,0.76,0.4
	c0.128,0.256,0.187,0.602,0.249,0.798c0.147,0.461,1.167,0.735,1.231,0.087c0.103-1.036,0.276-2.124,0.789-3.044
	C42.861,86.711,42.169,86.474,41.721,86.58z"/>
<g>
	<g>
		<path fill="#3C3A3B" d="M26.492,92.283c0.023-0.045,0.046-0.09,0.069-0.135c0.187-0.217-0.545-1.12-0.538-1.129
			c-0.077,0.089-0.075,0.085-0.098,0.198c-0.042,0.209,0.176,0.553,0.267,0.724C26.206,91.967,26.467,92.407,26.492,92.283
			L26.492,92.283z"/>
	</g>
</g>
<g>
	<g>
		<path fill="#7F7E7F" d="M27.351,91.816c0-0.214,0.024-0.389,0.073-0.596c0.161-0.677-1.078-0.765-1.225-0.149
			c-0.071,0.297-0.093,0.556-0.093,0.862C26.107,92.585,27.351,92.475,27.351,91.816L27.351,91.816z"/>
	</g>
</g>
<path fill="#7F7E7F" d="M26.219,89.894c-0.147,0.097-0.237,0.213-0.323,0.366c-0.062,0.112-0.052,0.222-0.054,0.331
	c-0.027,0.059-0.04,0.129-0.049,0.201c-0.011,0.022-0.015,0.045-0.033,0.067c-0.119,0.143-0.092,0.298-0.011,0.441
	c-0.002,0.013-0.002,0.03-0.005,0.043c-0.093,0.374,0.946,1.039,1.053,0.606c0.002-0.008,0.004-0.037,0.007-0.054
	c0.044-0.005,0.09,0.008,0.132-0.002c0.051-0.013,0.108-0.039,0.162-0.073c0.353,0.03,0.65,0.013,0.652-0.07
	c0.005-0.244,0.024-0.487,0.043-0.73c0.086-0.048,0.156-0.11,0.184-0.2C28.268,89.888,26.86,89.474,26.219,89.894z"/>
<g>
	<g>
		<path fill="#7F7E7F" d="M38.914,92.288c-0.049-0.032-0.097-0.064-0.146-0.096c0.238,0.27,0.475,0.54,0.713,0.81
			c-0.17-0.357-0.409-0.668-0.7-0.938c-0.117-0.109-0.218-0.165-0.366-0.222c-0.262-0.102,0.249,0.462-0.251-0.1
			c0.113,0.168,0.226,0.337,0.339,0.505c-0.228-0.84,1.168-2.232,2.044-1.572c-0.218-0.272-0.436-0.544-0.654-0.816
			c0.13,0.413,0.121,0.949-0.118,1.318c-0.128,0.198-0.148,0.546-0.068,0.756c0.338,0.887-0.757,1.361-0.731,2.259
			c0.094,0.045,0.188,0.09,0.281,0.135c-0.311-0.3-0.802-1.177-0.54-1.782c0.108-0.25,1.367-1.508,1.592-1.346
			c-0.245-0.292-0.49-0.583-0.735-0.875c0.165,0.548-0.443,0.723-0.612,1.186c-0.144,0.394-0.37,0.638-0.578,1
			c-0.345,0.6,0.378,1.193,0.744,1.579c-0.15-0.209-0.301-0.418-0.451-0.627c-0.01,0.019-0.02,0.037-0.03,0.056
			c0.258,0.28,0.516,0.56,0.774,0.841c-0.015-0.038-0.03-0.076-0.044-0.115c-0.122-0.059-0.244-0.117-0.366-0.176
			c0.063,0.063,0.125,0.125,0.188,0.188c0.246,0.232,0.22,0.224-0.076-0.023c-0.016,0.166,0.709,1.007,0.833,0.903
			c0.773-0.654,0.832-1.698,0.819-2.64c-0.007-0.563-0.011-0.848-0.148-1.375c-0.082-0.314,0.228-0.609,0.105-0.96
			c-0.085-0.242-0.505-0.79-0.774-0.841c-1.499-0.283-2.191,1.088-2.293,2.35c-0.025,0.305,0.838,0.882,0.839,0.867
			c0.097-1.2,0.764-2.547,2.207-2.275c-0.258-0.28-0.516-0.56-0.774-0.841c0.113,0.322-0.179,0.718-0.085,1.081
			c0.104,0.4,0.097,0.7,0.083,1.125c-0.028,0.919-0.047,1.927-0.806,2.568c0.278,0.301,0.555,0.602,0.833,0.903
			c0.053-0.532-0.679-1.084-1.014-1.419c-0.038-0.038-0.47-0.446-0.366-0.176c0.161,0.418,0.527,0.831,0.941,1.007
			c0.034,0.01,0.048-0.003,0.043-0.038c-0.129-0.38-0.378-0.643-0.652-0.933c0.295,0.312,0.886-1.128,0.942-1.279
			c0.176-0.48,0.831-0.5,0.536-1.137c-0.145-0.313-0.436-0.611-0.713-0.81c-0.346-0.248-0.864,0.381-1.163,0.581
			c-0.467,0.313-0.843,0.855-0.706,1.419c0.267,1.1,0.939,1.849,1.725,2.607c0.016,0.015,0.285,0.265,0.281,0.135
			c-0.022-0.757,0.553-0.97,0.764-1.61c0.177-0.539-0.222-0.958,0.13-1.503c0.504-0.781-0.231-1.868-0.913-2.246
			c-0.92-0.51-2.412,0.652-2.133,1.68c0.098,0.359,0.497,0.712,0.746,0.968c0.335,0.346,0.482,0.329,0.887,0.486
			c-0.188-0.176-0.376-0.352-0.564-0.527c0.106,0.126,0.481,0.645,0.813,0.864c0.217,0.143-0.008-0.225-0.037-0.266
			C39.346,92.678,39.148,92.443,38.914,92.288L38.914,92.288z"/>
	</g>
</g>
<g>
	<g>
		<path fill="#7F7E7F" d="M39.492,93.267c0.013-0.009,0.025-0.019,0.038-0.028c-0.1-0.538-1.29-0.168-1.186,0.396
			c0.052,0.278,0.241,0.393,0.496,0.472C39.352,94.266,40.222,93.493,39.492,93.267L39.492,93.267z"/>
	</g>
</g>
<g>
	<path fill="#7F7E7F" d="M32.375,70.125C32.125,70,32,69.75,31.875,69.5c0,0-1.603-2.25-3.864-8c0,0-1.761-2.563-3.698-4.188
		s-2.125-3.375-2.125-3.375l0.375,6c0,0-0.563,3.125,4.719,5.813l2.677,0.917"/>
	<g>
		<path d="M32.593,69.818c-1.932-2.415-3.069-5.501-4.206-8.333c-1.145-2.852-5.301-4.353-5.783-7.414
			c-0.057-0.36-0.888-1.1-0.845-0.404c0.15,2.393-0.052,5.084,0.527,7.409c0.884,3.55,4.682,5.091,7.773,6.149
			c0.571,0.195,0.21-0.976-0.202-1.118c-2.424-0.83-7.341-2.454-6.882-5.78c0.265-1.92-0.238-4.181-0.359-6.12
			c-0.282-0.135-0.563-0.269-0.845-0.404c0.513,3.252,4.139,5.396,5.942,7.89c1.255,1.736,1.872,4.444,2.902,6.376
			c0.452,0.848,0.944,1.615,1.541,2.362C32.679,71.085,32.983,70.305,32.593,69.818L32.593,69.818z"/>
	</g>
</g>
<g>
	<path fill="#7F7E7F" d="M37.281,68.836c0.25-0.125,0.375-0.375,0.5-0.625c0,0,1.603-2.25,3.864-8c0,0,1.761-2.563,3.698-4.188
		s2.125-3.375,2.125-3.375l-0.375,6c0,0,0.563,3.125-4.719,5.813l-2.677,0.917"/>
	<g>
		<path d="M37.542,69.099c1.78-2.225,2.873-4.99,3.962-7.592c1.389-3.318,5.723-5.17,6.287-8.749
			c-0.215-0.073-0.43-0.147-0.646-0.22c-0.121,1.937-0.634,4.211-0.369,6.13c0.497,3.6-4.58,5.462-7.203,6.36
			c-0.402,0.138-0.117,0.823,0.248,0.698c2.88-0.986,6.622-2.355,7.454-5.696c0.57-2.287,0.368-4.928,0.515-7.272
			c0.024-0.379-0.57-0.7-0.646-0.22c-0.516,3.271-4.623,4.541-5.803,7.48c-1.17,2.913-2.339,6.074-4.323,8.554
			C36.778,68.876,37.278,69.43,37.542,69.099L37.542,69.099z"/>
	</g>
</g>
<path stroke="#000000" stroke-width="0.25" stroke-miterlimit="10" d="M25.1,58.03c0,0-1.456,7.472,3.597,5.159l-0.608-1.491
	l-0.808-1.186L26,58.972L25.1,58.03z"/>
<path stroke="#000000" stroke-width="0.25" stroke-miterlimit="10" d="M41.129,61.492c0,0,5.043,0.811,3.04-4.361l-1.146,1.285
	l-1.029,1.31l-0.349,0.485L41.129,61.492z"/>
<polyline fill="#FFFFFF" stroke="#000000" stroke-linejoin="round" stroke-miterlimit="10" points="64.82,24.086 120.138,125.501 
	64.5,94.667 64.5,23.5 64.82,24.086 "/>
<g>
	<path fill="#FFFFFF" d="M102.667,68.898c0.852,0.776,1.96,0.958,2.9,1.687c1.552,1.202,3.869,3.521,4.266,5.498
		c0.155,0.773,0.117,1.196,0.935,1.565c0.574,0.259,1.089,0.254,1.484-0.313c0.716-1.028,0.184-2.566,0.686-3.648
		c0.521-1.122,1.067-1.997,0.981-3.354C113.864,69.46,114.77,63.92,115,63.5c0.228-0.415,2.568-2.95,3.665-3.169
		c0.872-0.174,2.961,1.012,3.254,1.833c0.085,0.24,0.02,0.816-0.067,1.02c-0.216,0.508-0.05,0.364-0.602,0.483
		c-0.246,0.053-0.696,0.023-0.933,0.065c-0.3,0.053-0.528,0.141-0.817,0.202c-0.531,0.113-1.504,0.009-2,0.25
		c-2.042,0.995-1.494,2.982-1.334,4.731c0.115,1.256-0.012,2.519,0.171,3.745c0.279,1.872-0.694,3.352-1.432,4.978
		c-0.707,1.558-0.075,3.666-1.302,4.964c-0.725,0.767-1.724,1.378-2.521,2.125c-0.407,0.381-0.861,0.728-1.185,1.104
		c-0.328,0.381-0.648,0.951-1.005,1.227c-0.804,0.622-1.692,0.732-2.498,1.502c-1.314,1.255,0.123,1.693,0.919,2.775
		c0.82,1.115,0.992,2.28,1.579,3.5c0.532,1.108,1.623,2.155,2.419,3.166c0.598,0.761,1.451,1.163,2.172,1.778
		c1.111,0.947,0.229,0.808-0.317,1.718c-0.5,0.833-0.5,1,0,1.833c0.833,1.167,1.5,1.167,2.833,0.833
		c1.333-0.167,2.667,0.167,3,1.667c0,0.167,0,0.667,0,0.833c0.167,0.167,0.5,0.167,0.667,0.5c0,0.333-0.167,1.333-0.333,1.5
		c-0.833-0.333-1.5-0.5-2.333-0.667c-1-0.167-1.833-0.667-2.833-0.333c-1,0.167-1.5,1-2.333,1c-1-0.167-1.667-0.667-2.5-0.667
		c-1.667,0-3.833-0.167-5.333,0.5c-0.5,0.167-0.833,0.5-1.333,0.667c-0.333,0.167-0.833,0.167-1,0.5
		c-0.5,0.5-0.167,1.333-0.833,1.833c-0.5-0.333-0.167-1.167-1.167-1c-0.333,0-0.333,0.333-0.833,0.167c0,0-0.167-0.5-0.333-0.667
		c-0.333-0.5-1-0.833-1.5-1c-1-0.333-1.167,0.167-1.833,0.333c0.333-0.833,1.5-1.333,2.333-1.5c1-0.167,1.667-0.5,2.5-0.833
		c1.833-0.5,3.667-1,5.5-2.167c0.833-0.5,1.667-1.167,1.667-2.167c0-0.833-0.833-2-1.333-2.5C105.167,99.5,104.167,99,103.5,98.5
		c-1.381-1.381-3.385-2.633-4.219-4.5c-0.665-1.488-0.531-2.967-0.531-4.625c0-1.679,0.358-2.664,1.035-4.118
		c0.553-1.187,1.759-2.506,1.365-3.89c-0.486-1.71-2.807-2.512-4.372-2.214c-0.342,0.065-0.543,0.514-0.897,0.603
		c-0.494,0.124-1.12-0.052-1.631-0.006c-1.08,0.095-1.754,0.407-2.594,1.031c-0.687,0.511-1.396,1.246-1.906,1.718
		c-0.308,0.285-0.407,0.473-0.875,0.782c-0.326,0.215-0.995,0.284-1.232,0.619c-0.455,0.643-0.079,2.136-0.018,2.85
		c0.044,0.515-0.03,0.916,0.157,1.371c0.14,0.341,0.833,0.692,0.843,1.129c0.003,0.138,0.132,0.167,0.206,0.256
		c-1.437-0.063-2.801,0.935-3.96,1.84c-0.524,0.409-0.893,1.019-1.438,1.396c-0.279,0.193-0.546,0.45-0.898,0.505
		c-0.331,0.051-1.052-0.35-1.217-0.291c-1.397,0.504-0.14,4.009-0.214,5.147c-0.559,0.309-1.23,0.83-1.725,1.247
		c-0.411,0.346-0.458,0.385-0.753,0.774c-0.312,0.412,0.317,0.844-0.507,0.883c-1.192,0.057-1.075-3.171-2.598-3.527
		c-0.191-0.044,0.319-2.019,0.345-2.215c0.149-1.112-0.014-1.581-0.508-2.542c-0.488-0.948-0.771-1.43-1.878-1.737
		c-0.867-0.241-5.372-0.329-4.882,1.474c-0.062-1.992,2.39-3.333,3.687-4.425c1.112-0.937,1.355-0.465,2.312,0.462
		c2.314,2.242,5.803,1.348,6.279-1.874c0.144-0.975,0.046-1.861,0.524-2.726c0.492-0.888,1.142-1.129,1.353-2.149
		c0.393-1.895-0.066-3.733,1.406-5.216c0.652-0.656,1.427-0.75,2.244-1.125c0.956-0.439,1.434-1.092,2.472-1.284
		c1.824-0.339,3.041,1.489,4.755,1.476c1.926-0.015,1.511-2.106,1.099-3.449c-0.43-1.402-1.135-2.398-2.475-2.899
		c-1.441-0.539-2.334-0.572-3.538-1.597c-1.08-0.92-2.064-1.714-2.359-3.135c-0.119-0.573-2.062,1.333-2.108,1.353
		c-0.5,0.223-1.797,0.023-2.243-0.153c-0.681-0.269-0.993-0.822-1.757-0.978c-0.698-0.143-1.649-0.01-2.356,0.025
		c0.151,1.028-0.868,2.564-1.519,3.258c-0.453,0.483-1.177,0.508-1.621,0.945c-0.481,0.473-0.576,0.952-0.878,1.652
		c-0.486,1.128-0.949,2.853-2,3.25c-1.431,0.54-2.854,0.358-4.365,0.348c0.928-0.536,1.535-0.402,2.334-1.351
		c0.515-0.612,1.257-1.707,1.406-2.49c0.234-1.224-0.475-1.892-1.25-2.631c-0.861-0.822-0.999-1.423-1.488-2.475
		c0.388,0.026,0.828-0.063,1.216-0.047c1.503-1.811-1.41-3.135-1.247-5.085c-0.418-0.188-0.862-0.298-1.357-0.268l2-0.625
		c0.625,0,1.375,0,2,0.25c0.5,0.125,0.875,0.625,1.25,1c0.5,0.5,0.875,0.625,1.625,0.75s1.5,0.25,2.25,0.375
		c1.25,0.125,2.5-0.875,3.75-1.375c0.5-0.25,1.25-0.375,1.75-0.75c0.25-0.125,0.5-0.5,0.75-0.625c0.375-0.25,0.625-0.125,0.75-0.75
		c0-0.625-0.625-1.375-0.75-2s0-1.5,0-2.25c0-0.5-0.375-1.25-0.875-1.625C81,51.75,80,51.875,79.375,51.5
		C78.75,51.25,78.75,50.625,78,50.375c-0.5-0.125-1.75-0.375-2.125,0c-0.5,0.5-0.125,1.375-0.375,2c-0.25,0.375-0.625,0.5-1,0.75
		c-0.25,0.25-0.375,0.5-0.625,0.75l-0.375-0.5c-0.125-0.875,0.625-1.75-0.375-2.25c-0.375-0.25-0.625-0.25-1-0.625
		s-0.875-0.875-0.375-1.25C72,48.875,72.625,49,73,48.75c0.25-0.375,0.25-0.75,0.375-1.125c0.25-0.375,0.5-0.625,0.625-1
		c0.25-0.5,0.25-1.125,0.25-1.625c0-1.25-0.625-1.375-1.25-2.375c-0.375-0.375-0.5-0.75-0.5-1.375c0-0.75,0-0.75-0.875-1
		c-0.5-0.25-2.125-1.125-0.875-1.5C71.125,38.625,71.625,39,72,38.5c0.375-0.375,0-1-0.125-1.5c-0.125-0.75,0.125-1.875,0.5-2.625
		c0.125-0.375,0.5-0.625,1-0.75c0.625,0,0.5,0.625,0.5,1.25c0,0.375-0.375,0.875-0.125,1.25c0.25,0.5,0.75,0.375,1.125,0.75
		c0.625,0.375,0.75,2,0.875,2.75c0.125,0.875-0.375,1.875-0.25,2.75c0.125,0.75,0.875,1.625,1.375,2.125
		C77.75,45.25,78.5,45,79.5,44.875c0.5,0,0.5,0.25,0.875,0.625s0.75,0.75,1,1.125C82,47.5,81.875,48.375,83,48.75
		c0.5,0.125,1.125,0.125,1.75,0.125c0.25,0,0.625,0,0.875,0.125c0.375,0.125,0.5,0.375,0.75,0.5c0.5,0.375,1.125,0.25,1.75,0.25
		c0.75-0.125,0.625-0.375,1.124-0.874c0.767-0.768,2.02,0.129,2.75-0.511c1.18-1.034-0.482-1.633-1.233-2.015
		c-0.137-0.07,2.481-2.94,2.609-3.225c0.333-0.742,0.255-2.39-0.125-3.131c-0.659-1.282-4.361-2.13-3.481-3.976
		c1.452,0.219,1.387-0.744,1.338-1.872c-0.581-0.331-1.251-0.767-1.963-0.912c-0.073-1.745,0.358-2.004,1.756-2.707
		c1.058-0.532,2.248-1.464,3.378-1.75c1.27-0.321,2.769,0.349,3.871-0.369c0.67-0.437,2.051-1.834,2.507-2.49
		c0.747,0.907,1.457,1.883,2.344,2.699c0.796,0.732,2.096,1.222,2.74,1.985c-1.493,0.105-3.875,0.97-3.621,2.89
		c0.137,1.042,0.933,1.591,1.006,2.757c0.073,1.159,0.011,1.809-0.649,2.719c-1.177,1.62-2.177,2.418-1.732,4.663
		c0.16,0.809,0.728,1.941,0.357,2.871c-0.318,0.795-1.221,1.297-1.321,2.4c-0.155,1.693,1.54,2.284,3.1,1.975
		c2.595-0.515,3.885-4.101,4.75-6.256c0.653-1.624-0.017-3.561,0.525-5.219c0.929-2.844,3.272-4.78,4.618-7.382
		c1.176-0.377,2.102-2.07,3.07-2.928c1.067-0.945,2.928-2.836,4.39-2.7c0.113,0.986-0.513,2.269-0.759,3.231
		c-0.673,2.624-2.01,4.769-3.691,6.878c-0.766,0.961-1.726,1.836-1.63,3.235c1.47-0.72,3.114-1.686,4.456-2.6
		c0.23,1.686-1.449,3.591-2.092,5.084c0.822,0.238,1.422,1.004,2.045,1.542c0.769,0.664,1.732,0.765,2.415,1.263
		c1.265,0.923,0.551,2.976-1.08,2.742c-0.147,1.23,1.894,3.101,2.34,4.213c-1.899-0.041-3.223-1.203-5.136-1.009
		c-2.869,0.291-0.819,1.77,0.433,3.119c1.336,1.438,2.27,2.678-0.128,3.437c-0.949,0.3-1.648,0.173-2.524-0.41
		c-0.605-0.402-1.219-1.603-2.11-1.349c-0.154,0.872-0.572,1.536-0.525,2.488c0.043,0.883,0.289,1.843,0.238,2.85
		c-1.75,0.19-2.701-2.814-4.079-3.258c-3.101-1.001-0.1,2.72,0.553,3.689c-1.456,0.557-3.402-0.619-4.587-1.506
		c-0.783-0.586-0.982-1.287-2.119-0.909C97.089,60.841,99.901,66.376,102.667,68.898z"/>
	<g>
		<path d="M102.571,69.248c2.863,1.928,5.399,2.97,6.776,6.711c0.179,0.485,0.089,0.961,0.479,1.305
			c0.431,0.38,1.485,1.461,2.212,0.959c0.764-0.527,1.057-0.666,1.11-1.81c0.099-2.142,1.105-3.668,1.275-5.738
			c0.162-1.979,0.069-5.469,1.312-7.116c0.388-0.453,0.799-0.884,1.232-1.294c1.143-1.416,2.603-1.222,4.379,0.58
			c-0.061,0.311-3.392,0.721-3.245,0.695c-2.807,0.494-2.712,2.763-2.448,5.138c0.278,2.5,0.34,5.092-0.679,7.421
			c-0.854,1.954-0.79,4.231-1.833,6.084c-1.706,3.029-6.213,3.98-7.774,7.076c-0.046,0.092,0.027,0.269,0.077,0.342
			c1.39,2.036,2.401,4.256,3.707,6.327c0.804,1.274,4.589,3.994,3.553,5.151c-2.903,3.246,5.782,4.375,5.782,5.349
			c0,0.295,0.325,0.539,0.55,0.666c1.313,0.739-4.023,0.068-3.738,0.064c-2.166,0.032-4.046,0.38-6.25,0.354
			c-0.99-0.012-10.273,0.338-8.091,3.544c-0.418-0.615-2.2-1.348-1.802-0.66c-0.956-1.652-2.622-2.319-4.375-1.535
			c0.282,0.298,0.564,0.596,0.845,0.895c1.666-2.119,14.431-3.383,11.732-7.996c-1.337-2.286-3.477-3.42-5.475-5.149
			c-6.267-5.419-0.445-9.623-0.222-15.003c0.096-2.321-4.291-3.611-5.789-2.583c-1.01,0.693-3.36,0.55-4.602,1.285
			c-0.871,0.515-1.649,1.431-2.36,2.151c-0.098,0.099-1.681,0.74-1.773,1.099c-0.372,1.462-0.04,2.833,0.131,4.323
			c0.05,0.438,0.898,1.322,0.927,1.369c-0.241-0.389-2.133,0.466-2.565,0.781c-1.725,1.26-3.934,1.692-5.272,2.98
			c-1.383,1.331,1.219,3.808-0.605,5.253c-2.013,1.594-1.29,2.532-2.722,0.302c-1.536-2.393-0.125-5.085-2.458-7.449
			c-1.408-1.427-6.357-1.253-6.491,1.106c-0.02,0.349,0.916,1.06,1.017,0.581c0.224-1.068,3.299-5.932,5.268-4.058
			c0.528,0.502,1.517,1.227,2.283,1.332c1.647,0.226,3.853-0.033,4.415-2.014c0.54-1.902,0.648-2.941,1.618-4.848
			c1.395-2.743,0.432-5.917,4.102-7.334c2.219-0.857,3.572-0.582,5.799-0.08c0.438,0.099,1.931,0.615,2.398-0.014
			c3.682-4.961-6.862-8.961-8.199-11.267c-0.398-0.686-1.018-0.586-1.592-0.25c-1.623,0.95-1.245,1.881-4.07,0.493
			c-1.262-0.62-2.041-0.584-3.512-0.484c-0.09,0.006-0.204,0.04-0.221,0.148c-0.378,2.381-2.416,3.127-3.603,4.864
			c-0.286,0.418-0.597,1.448-0.785,1.92c-1.053,2.642-3.213,2.581-5.775,2.522c0.223,0.321,0.446,0.641,0.668,0.962
			c1.497-0.642,3.957-2.097,3.868-4.074c-0.036-0.788-1.432-4.916-1.75-4.904c0.116-0.005,0.172-0.046,0.221-0.148
			c1.042-2.167-0.911-3.014-1.24-5.186c-0.048-0.315-0.362-0.65-0.678-0.713c-0.452-0.089-0.904-0.179-1.357-0.268
			c0.184,0.315,0.367,0.63,0.551,0.946c2.821-0.882,5.944,1.257,8.907,1.75c1.569,0.261,6.856-1.867,7.339-3.632
			c0.327-1.197-0.59-5.59-2.034-6.567c-1.746-1.182-4.111-2.388-6.23-1.997c-0.062,0.024-0.102,0.067-0.12,0.131
			c-0.4,1.355-1.491,4.997-1.227,2.044c0.041-0.464-0.507-0.938-0.792-1.199c-1.125-1.03,1.675-4.284,1.226-6.587
			c-0.195-0.997-1.172-3.457-2.091-4.078c-2.123-1.436-0.124-0.568,0.019-1.371c0.168-0.944,0.61-5.413,0.733-2.956
			c0.02,0.391,0.579,0.726,0.802,0.909c2.044,1.673,0.366,3.724,0.975,5.457c1.307,3.723,4.839,2.288,6.382,5.231
			c1.707,3.256,9.977,3.953,11.48,0.327c0.083-0.201-0.153-0.468-0.279-0.588c-1.461-1.389-1.088-0.905,0.475-2.726
			c0.848-0.989,1.325-2.032,0.939-3.4c-0.353-1.25-0.759-1.72-1.798-2.476c-1.942-1.413-0.599-2.415-0.594-4.232
			c0.001-0.295-0.325-0.539-0.55-0.666c-2.563-1.445,1.143-3.249,2.451-4.007c1.496-0.867,3.771,0.199,5.091-0.882
			c2.179-1.787,1.952-1.99,4.163,0.034c1.13,1.034,2.546,1.097,0.59,1.775c-3.586,1.244-0.09,5.665-1.349,7.907
			c-0.567,1.01-1.942,2.064-1.866,3.397c0.115,2.025,0.068,3.829-0.558,5.681c-0.455,1.345-0.333,2.757,1.132,3.442
			c2.661,1.243,4.642-0.696,5.95-2.819c2.449-3.975,1.344-8.343,4.094-12.205c2.203-3.095,5.939-8.392,9.849-9.177
			c-0.296-0.271-0.593-0.543-0.889-0.814c-0.223,2.574-1.337,5.227-2.575,7.452c-1.175,2.112-3.095,3.454-3.506,5.891
			c-0.058,0.342,0.513,1.011,0.889,0.814c1.535-0.804,2.999-1.66,4.456-2.6c-0.296-0.271-0.593-0.543-0.889-0.814
			c-0.205,1.908-1.209,3.422-2.092,5.084c-0.12,0.226,0.251,0.596,0.409,0.692c0.064,0.039,6.412,4.081,3.091,4.724
			c-0.096,0.019-0.143,0.15-0.128,0.233c0.111,0.618,1.414,3.787,1.351,3.777c-1.199-0.182-4.085-1.747-5.273-0.449
			c-0.532,0.581-0.283,1.226,0.211,1.763c1.377,1.499-0.04,4.697-1.867,3.049c-0.338-0.305-0.754-0.292-1.201-0.374
			c-0.13-0.024-0.295-0.026-0.339,0.132c-0.414,1.489-0.547,2.462-0.379,3.968c0.174,1.56-2.682-1.463-2.598-1.386
			c-0.702-0.642-1.698-1.009-2.583-0.617c-0.062,0.024-0.102,0.067-0.12,0.131c-0.143,1.4,0.923,2.575,1.693,3.661
			c-1.466-2.067-5.326-3.021-7.54-2.03c-4.437,1.986-0.303,7.979,1.704,9.99c0.537,0.538,0.98,0.035,0.452-0.494
			c-1.745-1.749-3.165-3.84-2.939-6.45c0.164-1.888,2.771-2.873,4.319-1.82c1.622,1.103,2.97,1.858,4.967,1.645
			c0.373-0.04,0.194-0.422,0.057-0.615c-1.759-2.483-0.324-2.68,1.315-0.84c0.616,0.692,1.18,0.857,2.036,1.008
			c0.182,0.032,0.359-0.012,0.346-0.233c-0.571-10.059,3.023,0.512,5.933-3.907c0.385-0.584,0.711-1.018,0.255-1.736
			c-0.557-0.876-0.59-0.912-1.31-1.738c-2.526-2.896,4.429-1.526,4.528-1.511c0.339,0.051,0.419-0.2,0.262-0.473
			c-0.6-1.046-2.272-2.743-1.272-3.991c0.472-0.588,1.104-1.256,0.606-2.114c-0.702-1.211-0.981-1.239-2.234-1.846
			c-3.613-1.75-0.96-3.676-0.651-6.552c0.034-0.314-0.518-1.053-0.889-0.814c-1.456,0.94-2.92,1.795-4.456,2.6
			c0.296,0.271,0.593,0.543,0.889,0.814c0.441-2.62,2.905-4.808,4.172-7.084c0.998-1.794,1.732-4.212,1.909-6.259
			c0.036-0.421-0.466-0.899-0.889-0.814c-3.133,0.629-6.715,4.297-8.281,6.931c-0.995,1.674-2.579,3.04-3.346,4.856
			c-1.053,2.495-0.498,5.078-1.496,7.57c-0.43,1.113-0.971,2.172-1.621,3.177c-1.169,1.897-4.803,0.463-3.543-1.532
			c1.285-2.034-1.397-3.421,0.546-6.437c0.603-0.936,1.554-1.764,1.541-2.98c-0.027-2.61-1.402-5.808,2.377-6.415
			c0.428-0.069,0.149-0.562-0.058-0.736c-1.759-1.482-3.49-2.735-4.97-4.563c-0.127-0.157-0.591-0.547-0.802-0.296
			c-2.326,2.776-5.64,2.225-8.584,3.932c-1.88,1.089-2.879,1.314-2.979,3.566c-0.012,0.263,0.327,0.583,0.55,0.666
			c1.364,0.121,1.465,0.744,0.303,1.868c-0.09,0.012-0.203,0.036-0.221,0.148c-0.194,1.2,0.188,1.696,1.072,2.524
			c1.199,1.123,4.572,1.817,2.331,4.835c-0.735,0.99-1.754,1.812-2.361,2.892c-0.19,0.337,0.227,0.711,0.499,0.848
			c-0.634-0.32-2.427,3.645-5.083,1.874c-1.076-0.717-2.605,0.467-3.468-1.168c-0.465-0.881-1.68-3.235-3.036-3.095
			c-3.175,0.328-3.444-9.257-5.615-11.008c-0.182-0.147-0.459-0.346-0.687-0.175c-1.913,1.435-1.474,3.817-3.065,5.625
			c-0.182,0.207,0.096,0.532,0.235,0.669c1.212,1.203,1.589,1.762,2.488,3.128c1.127,1.713,1.728,2.36,0.342,4.578
			c0.017-0.028-1.635,1.555-1.669,1.706c-0.259,1.151,0.356,1.634,1.284,2.301c0.716,0.515,0.384,1.963,1.005,2.791
			c0.122,0.162,0.595,0.544,0.802,0.296c0.969-1.163,1.627-1.11,1.762-2.628c0.28-3.129,2.554,0.045,3.443,0.304
			c2.637,0.769,2.142,3.243,2.895,5.028c0.671,1.59-1.936,2.444-2.82,2.776c-2.493,0.935-5.392,2.142-7.593-0.118
			c-0.26-0.267-0.685-0.549-1.064-0.632c-1.678-0.367-2.604-0.129-4.218,0.375c-0.492,0.154,0.323,0.9,0.551,0.946
			c1.315,0.26,2.969,4.36,0.937,4.438c-0.199,0.008-0.28,0.189-0.202,0.365c1.387,3.118,4.016,6.49-0.901,8.598
			c-0.507,0.217,0.37,0.955,0.668,0.962c3.033,0.07,4.94,0.145,6.216-2.817c0.65-1.508,1.938-2.3,2.826-3.445
			c1.57-2.025,1.806-4.427,5.076-2.377c1.251,0.785,2.554,0.439,3.527-0.426c0.531-0.472,4.547,3.224,5.562,3.607
			c5.96,2.25,2.031,5.876-0.892,4.535c-1.1-0.505-1.911-0.009-2.885,0.414c-1.777,0.771-3.238,1.48-4.311,3.084
			c-1.302,1.945-0.34,4.049-1.974,6.191c-0.949,1.244-0.488,3.268-1.381,4.693c-1.046,1.669-4.719-0.477-6.558-1.109
			c-1.743-0.599-4.62,3.693-4.907,5.06c0.339,0.194,0.678,0.387,1.017,0.581c0.087-1.542,2.51-1.339,3.457-1.35
			c3.925-0.046,2.715,3.716,2.42,5.451c-0.067,0.392,0.095,0.819,0.439,1.029c1.283,0.781,1.322,4.284,3.506,3.494
			c0.104-0.038,0.13-0.134,0.128-0.233c-0.029-1.136,1.812-2.112,2.429-2.518c0.093-0.061,0.137-0.113,0.128-0.233
			c-0.123-1.646-1.196-4.608,1.203-4.607c0.4,0,0.791-0.303,1.075-0.572c1.604-1.512,3.063-2.788,5.322-3.185
			c0.286-0.05,0.038-0.497-0.044-0.599c-3.024-3.755,0.942-6.986,4.076-8.84c2.073-1.226,7.817,0.172,6.033,4.376
			c-1.059,2.494-1.133,4.681-0.945,7.352c0.184,2.605,3.079,5.268,5.069,6.582c2.394,1.075,2.506,3.165,0.336,6.271
			c-1.253,0.693-2.759,1.023-4.125,1.406c-1.757,0.493-3.748,0.906-4.91,2.384c-0.278,0.353,0.487,1.055,0.845,0.895
			c0.932,0.246,1.864,0.491,2.796,0.737c0.108,0.282,0.44,0.627,0.77,0.613c0.659-0.029,0.879-0.257,1.288,0.345
			c0.151,0.222,0.711,0.765,0.933,0.341c1.788-3.421,5.844-3.897,9.349-3.097c2.946,0.672,5.743-0.646,8.813,0.396
			c0.131,0.044,0.291,0.01,0.339-0.132c0.558-1.675-0.15-2.612-0.774-3.968c-0.79-1.717-6.595-1.181-4.586-4.172
			c0.121-0.181-0.001-0.4-0.12-0.548c-0.544-0.678-9.944-9.757-6.327-12.092c3.326-2.146,6.66-4.896,7.051-8.997
			c0.169-1.777,1.764-3.189,1.767-4.991c0.005-3.222-2.047-9.439,2.936-9.817c1.068-0.081,3.669-0.351,2.563-2.26
			c-3.077-5.307-7.744-0.13-8.415,3.729c-0.213,1.224-0.469,2.504-0.51,3.749c-0.05,1.504-0.36,2.375-0.988,3.703
			c0.304-0.643-1.322,6.234-2.114,2.861c-0.898-3.829-4.619-5.681-7.557-7.659C102.066,68.079,102.067,68.909,102.571,69.248z"/>
	</g>
</g>
<g>
	<rect x="4.5" y="3.5" width="120" height="20"/>
	
		<rect x="4.5" y="3.5" fill="none" stroke="#3F3C3D" stroke-width="2.5" stroke-linejoin="round" stroke-miterlimit="10" width="120" height="20"/>
	
		<rect x="4.5" y="3.5" fill="none" stroke="#000000" stroke-width="2" stroke-linejoin="round" stroke-miterlimit="10" width="120" height="20"/>
</g>
<rect x="11.75" y="7.25" fill="#FFFFFF" stroke="#000000" stroke-width="0.5" stroke-miterlimit="10" width="14.167" height="12"/>
<rect x="102.175" y="7.25" fill="#FFFFFF" stroke="#000000" stroke-width="0.5" stroke-miterlimit="10" width="14.167" height="12"/>
<rect x="30.591" y="7.25" fill="#FFFFFF" stroke="#000000" stroke-width="0.5" stroke-miterlimit="10" width="67.159" height="12"/>
</svg>
