<?xml version="1.0" encoding="UTF-8" standalone="no"?>
<!-- Created with Inkscape (http://www.inkscape.org/) -->

<svg
   xmlns:dc="http://purl.org/dc/elements/1.1/"
   xmlns:cc="http://creativecommons.org/ns#"
   xmlns:rdf="http://www.w3.org/1999/02/22-rdf-syntax-ns#"
   xmlns:svg="http://www.w3.org/2000/svg"
   xmlns="http://www.w3.org/2000/svg"
   xmlns:sodipodi="http://sodipodi.sourceforge.net/DTD/sodipodi-0.dtd"
   xmlns:inkscape="http://www.inkscape.org/namespaces/inkscape"
   width="166.09711mm"
   height="59.29097mm"
   viewBox="0 0 166.09711 59.29097"
   version="1.1"
   id="svg3679"
   inkscape:version="0.92.3 (2405546, 2018-03-11)"
   sodipodi:docname="4-BBN_unsymm. Cyanobiphenyle.svg">
  <defs
     id="defs3673" />
  <sodipodi:namedview
     id="base"
     pagecolor="#ffffff"
     bordercolor="#666666"
     borderopacity="1.0"
     inkscape:pageopacity="0.0"
     inkscape:pageshadow="2"
     inkscape:zoom="2.0149341"
     inkscape:cx="304.17007"
     inkscape:cy="135.38847"
     inkscape:document-units="mm"
     inkscape:current-layer="layer1"
     showgrid="false"
     fit-margin-top="0"
     fit-margin-left="0"
     fit-margin-right="0"
     fit-margin-bottom="0"
     inkscape:window-width="1920"
     inkscape:window-height="986"
     inkscape:window-x="-11"
     inkscape:window-y="-11"
     inkscape:window-maximized="1" />
  <metadata
     id="metadata3676">
    <rdf:RDF>
      <cc:Work
         rdf:about="">
        <dc:format>image/svg+xml</dc:format>
        <dc:type
           rdf:resource="http://purl.org/dc/dcmitype/StillImage" />
        <dc:title></dc:title>
      </cc:Work>
    </rdf:RDF>
  </metadata>
  <g
     inkscape:label="Ebene 1"
     inkscape:groupmode="layer"
     id="layer1"
     transform="translate(-25.355002,-41.324753)">
    <path
       style="font-size:medium;font-family:Helvetica;stroke:#0000ff;stroke-width:0.25949803;stroke-linecap:round"
       d="m 78.407833,64.672664 5.992318,3.408279"
       id="line3965"
       inkscape:connector-curvature="0" />
    <path
       style="font-size:medium;font-family:Helvetica;stroke:#0000ff;stroke-width:0.25949803;stroke-linecap:round"
       d="M 78.407833,64.672664 75.737601,66.18774"
       id="line3969"
       inkscape:connector-curvature="0" />
    <path
       style="font-size:medium;font-family:Helvetica;stroke:#0000ff;stroke-width:0.25949803;stroke-linecap:round"
       d="m 90.389853,57.884405 3.934666,-2.225027"
       id="line3973"
       inkscape:connector-curvature="0" />
    <path
       style="font-size:medium;font-family:Helvetica;stroke:#0000ff;stroke-width:0.25949803;stroke-linecap:round"
       d="m 90.389853,57.884405 v 6.788259"
       id="line3977"
       inkscape:connector-curvature="0" />
    <path
       style="font-size:medium;font-family:Helvetica;stroke:#0000ff;stroke-width:0.25949803;stroke-linecap:round"
       d="m 90.389853,64.672664 -5.989702,3.408279"
       id="line3981"
       inkscape:connector-curvature="0" />
    <path
       style="font-size:medium;font-family:Helvetica;stroke:#0000ff;stroke-width:0.25949803;stroke-linecap:round"
       d="m 88.853162,63.76208 -4.492279,2.55685"
       id="line3983"
       inkscape:connector-curvature="0" />
    <path
       style="font-size:medium;font-family:Helvetica;stroke:#0000ff;stroke-width:0.25949803;stroke-linecap:round"
       d="m 78.407833,57.884405 v 6.788259"
       id="line3987"
       inkscape:connector-curvature="0" />
    <path
       style="font-size:medium;font-family:Helvetica;stroke:#0000ff;stroke-width:0.25949803;stroke-linecap:round"
       d="m 79.978561,58.730687 v 5.093125"
       id="line3989"
       inkscape:connector-curvature="0" />
    <path
       style="font-size:medium;font-family:Helvetica;stroke:#0000ff;stroke-width:0.25949803;stroke-linecap:round"
       d="m 78.407833,57.884405 5.992318,-3.400559"
       id="line3993"
       inkscape:connector-curvature="0" />
    <path
       style="font-size:medium;font-family:Helvetica;stroke:#0000ff;stroke-width:0.25949803;stroke-linecap:round"
       d="m 84.400151,54.483846 5.989702,3.400559"
       id="line3997"
       inkscape:connector-curvature="0" />
    <path
       style="font-size:medium;font-family:Helvetica;stroke:#0000ff;stroke-width:0.25949803;stroke-linecap:round"
       d="m 84.360883,56.24586 4.494888,2.549136"
       id="line3999"
       inkscape:connector-curvature="0" />
    <g
       aria-label="CN"
       style="font-size:4.23907232px;font-family:helvetica;fill:#0000ff;stroke-width:0.26494202;stroke-linecap:round"
       id="text4003"
       transform="matrix(0.98809389,0,0,0.9708861,1.097003,1.9976448)">
      <path
         d="m 97.1874,53.801616 0.401553,0.101424 q -0.126261,0.494696 -0.455369,0.755498 -0.327038,0.258733 -0.801035,0.258733 -0.490557,0 -0.798966,-0.198707 -0.306339,-0.200776 -0.467789,-0.57956 -0.159379,-0.378785 -0.159379,-0.813455 0,-0.473998 0.180078,-0.825874 0.182148,-0.353946 0.515395,-0.536094 0.335317,-0.184217 0.73687,-0.184217 0.455369,0 0.765848,0.231824 0.310479,0.231824 0.432601,0.652006 l -0.395343,0.09314 q -0.105563,-0.331177 -0.30634,-0.482277 -0.200776,-0.1511 -0.505045,-0.1511 -0.349807,0 -0.585771,0.167659 -0.233894,0.167659 -0.329107,0.451229 -0.09521,0.281501 -0.09521,0.581631 0,0.387064 0.111773,0.676844 0.113842,0.28771 0.351876,0.430531 0.238034,0.14282 0.515395,0.14282 0.337387,0 0.571281,-0.194567 0.233894,-0.194566 0.316688,-0.577491 z"
         style="font-size:4.23907232px;font-family:helvetica;fill:#0000ff;stroke-width:0.26494202;stroke-linecap:round"
         id="path4602"
         inkscape:connector-curvature="0" />
      <path
         d="M 98.08158,54.865524 V 51.83111 h 0.411902 l 1.593788,2.382409 V 51.83111 h 0.385 v 3.034414 h -0.4119 l -1.593796,-2.384478 v 2.384478 z"
         style="font-size:4.23907232px;font-family:helvetica;fill:#0000ff;stroke-width:0.26494202;stroke-linecap:round"
         id="path4604"
         inkscape:connector-curvature="0" />
    </g>
    <g
       aria-label="Br"
       style="font-size:4.23907232px;font-family:helvetica;fill:#0000ff;stroke-width:0.26494202;stroke-linecap:round"
       id="text4005"
       transform="matrix(0.98809389,0,0,0.9708861,1.097003,1.9976448)">
      <path
         d="m 70.89605,68.849167 v -3.034414 h 1.138423 q 0.347736,0 0.556792,0.09314 0.211126,0.09107 0.329108,0.283571 0.120052,0.190427 0.120052,0.399483 0,0.194567 -0.105563,0.366365 -0.105563,0.171799 -0.318759,0.277361 0.275292,0.08073 0.422252,0.275292 0.14903,0.194567 0.14903,0.459509 0,0.213195 -0.09107,0.397413 -0.089,0.182147 -0.221475,0.2815 -0.132471,0.09935 -0.333247,0.1511 -0.198707,0.04968 -0.488487,0.04968 z m 0.401553,-1.759381 h 0.656145 q 0.267012,0 0.382924,-0.03519 0.15317,-0.04554 0.229755,-0.1511 0.07865,-0.105563 0.07865,-0.264942 0,-0.1511 -0.07245,-0.264942 -0.07245,-0.115912 -0.206986,-0.157309 -0.13454,-0.04347 -0.461578,-0.04347 h -0.606469 z m 0,1.401295 h 0.755499 q 0.194566,0 0.273221,-0.01449 0.138681,-0.02484 0.231824,-0.08279 0.09314,-0.05796 0.15317,-0.167659 0.06003,-0.111772 0.06003,-0.256662 0,-0.169729 -0.08693,-0.29392 -0.08693,-0.126262 -0.242174,-0.175939 -0.153169,-0.05175 -0.44295,-0.05175 h -0.701682 z"
         style="font-size:4.23907232px;font-family:helvetica;fill:#0000ff;stroke-width:0.26494202;stroke-linecap:round"
         id="path4607"
         inkscape:connector-curvature="0" />
      <path
         d="m 73.69243,68.849167 v -2.198191 h 0.335318 v 0.333247 q 0.128331,-0.233894 0.235964,-0.308409 0.109702,-0.07452 0.240103,-0.07452 0.188358,0 0.382924,0.120052 l -0.128331,0.345667 q -0.136611,-0.08073 -0.273221,-0.08073 -0.122122,0 -0.219406,0.07451 -0.09728,0.07245 -0.13868,0.202846 -0.0621,0.198707 -0.0621,0.434671 v 1.150842 z"
         style="font-size:4.23907232px;font-family:helvetica;fill:#0000ff;stroke-width:0.26494202;stroke-linecap:round"
         id="path4609"
         inkscape:connector-curvature="0" />
    </g>
    <path
       style="font-size:medium;font-family:Helvetica;fill:none;stroke:#000000;stroke-width:0.25949803;stroke-linecap:round"
       d="m 102.17815,61.233521 h 20.26236"
       id="polyline4007"
       inkscape:connector-curvature="0" />
    <path
       style="font-size:medium;font-family:Helvetica;fill:#000000;fill-rule:evenodd;stroke:#000000;stroke-width:0.25949803;stroke-linecap:round"
       d="m 124.53481,61.233521 -2.61788,-0.771685 0.52358,0.771685 -0.52358,0.771686 z"
       id="polygon4009"
       inkscape:connector-curvature="0" />
    <g
       aria-label="Pd(OAc)2"
       transform="matrix(0.26178758,0,0,0.25722851,21.285785,27.016984)"
       style="font-size:16px;font-family:helvetica;fill:#000000;stroke-linecap:round"
       id="text4013">
      <path
         d="m 312.53436,120.01 v -11.45312 h 4.32032 q 1.14062,0 1.74218,0.10937 0.84375,0.14063 1.41407,0.53906 0.57031,0.39063 0.91406,1.10157 0.35156,0.71093 0.35156,1.5625 0,1.46093 -0.92969,2.47656 -0.92968,1.00781 -3.35937,1.00781 h -2.9375 V 120.01 Z m 1.51563,-6.00781 h 2.96094 q 1.46875,0 2.08593,-0.54688 0.61719,-0.54687 0.61719,-1.53906 0,-0.71875 -0.36719,-1.22656 -0.35937,-0.51563 -0.95312,-0.67969 -0.38281,-0.10156 -1.41406,-0.10156 h -2.92969 z"
         style="font-size:16px;font-family:helvetica;fill:#000000;stroke-linecap:round"
         id="path4614"
         inkscape:connector-curvature="0" />
      <path
         d="m 327.79843,120.01 v -1.04687 q -0.78907,1.23437 -2.32032,1.23437 -0.99218,0 -1.82812,-0.54687 -0.82813,-0.54688 -1.28906,-1.52344 -0.45313,-0.98438 -0.45313,-2.25781 0,-1.24219 0.41406,-2.25 0.41407,-1.01563 1.24219,-1.55469 0.82813,-0.53906 1.85156,-0.53906 0.75,0 1.33594,0.32031 0.58594,0.3125 0.95313,0.82031 v -4.10937 h 1.39843 V 120.01 Z m -4.44532,-4.14062 q 0,1.59375 0.67188,2.38281 0.67187,0.78906 1.58594,0.78906 0.92187,0 1.5625,-0.75 0.64843,-0.75781 0.64843,-2.30469 0,-1.70312 -0.65625,-2.5 -0.65625,-0.79687 -1.61718,-0.79687 -0.9375,0 -1.57032,0.76562 -0.625,0.76563 -0.625,2.41407 z"
         style="font-size:16px;font-family:helvetica;fill:#000000;stroke-linecap:round"
         id="path4616"
         inkscape:connector-curvature="0" />
      <path
         d="m 333.3828,123.37719 q -1.16406,-1.46875 -1.96875,-3.4375 -0.80469,-1.96875 -0.80469,-4.07813 0,-1.85937 0.60157,-3.5625 0.70312,-1.97656 2.17187,-3.9375 h 1.00781 q -0.94531,1.625 -1.25,2.32032 -0.47656,1.07812 -0.75,2.25 -0.33593,1.46093 -0.33593,2.9375 0,3.75781 2.33593,7.50781 z"
         style="font-size:16px;font-family:helvetica;fill:#000000;stroke-linecap:round"
         id="path4618"
         inkscape:connector-curvature="0" />
      <path
         d="m 335.13124,114.43188 q 0,-2.85157 1.53125,-4.46094 1.53125,-1.61719 3.95312,-1.61719 1.58594,0 2.85938,0.75781 1.27344,0.75782 1.9375,2.11719 0.67187,1.35156 0.67187,3.07031 0,1.74219 -0.70312,3.11719 -0.70313,1.375 -1.99219,2.08594 -1.28906,0.70312 -2.78125,0.70312 -1.61719,0 -2.89062,-0.78125 -1.27344,-0.78125 -1.92969,-2.13281 -0.65625,-1.35156 -0.65625,-2.85937 z m 1.5625,0.0234 q 0,2.07032 1.10937,3.26563 1.11719,1.1875 2.79688,1.1875 1.71094,0 2.8125,-1.20313 1.10937,-1.20312 1.10937,-3.41406 0,-1.39844 -0.47656,-2.4375 -0.46875,-1.04687 -1.38281,-1.61719 -0.90625,-0.57812 -2.03906,-0.57812 -1.60938,0 -2.77344,1.10937 -1.15625,1.10157 -1.15625,3.6875 z"
         style="font-size:16px;font-family:helvetica;fill:#000000;stroke-linecap:round"
         id="path4620"
         inkscape:connector-curvature="0" />
      <path
         d="m 346.1453,120.01 4.39844,-11.45312 h 1.63281 l 4.6875,11.45312 h -1.72656 l -1.33594,-3.46875 h -4.78906 l -1.25781,3.46875 z m 3.30469,-4.70312 h 3.88281 l -1.19531,-3.17188 q -0.54688,-1.44531 -0.8125,-2.375 -0.21875,1.10156 -0.61719,2.1875 z"
         style="font-size:16px;font-family:helvetica;fill:#000000;stroke-linecap:round"
         id="path4622"
         inkscape:connector-curvature="0" />
      <path
         d="m 362.69843,116.97094 1.38281,0.17969 q -0.22656,1.42968 -1.16406,2.24218 -0.92969,0.80469 -2.28907,0.80469 -1.70312,0 -2.74218,-1.10937 -1.03125,-1.11719 -1.03125,-3.19532 0,-1.34375 0.44531,-2.35156 0.44531,-1.00781 1.35156,-1.50781 0.91406,-0.50781 1.98438,-0.50781 1.35156,0 2.21093,0.6875 0.85938,0.67968 1.10157,1.9375 l -1.36719,0.21093 q -0.19531,-0.83593 -0.69531,-1.25781 -0.49219,-0.42187 -1.19532,-0.42187 -1.0625,0 -1.72656,0.76562 -0.66406,0.75781 -0.66406,2.40625 0,1.67188 0.64062,2.42969 0.64063,0.75781 1.67188,0.75781 0.82812,0 1.38281,-0.50781 0.55469,-0.50781 0.70313,-1.5625 z"
         style="font-size:16px;font-family:helvetica;fill:#000000;stroke-linecap:round"
         id="path4624"
         inkscape:connector-curvature="0" />
      <path
         d="m 365.57968,123.37719 h -1.00781 q 2.33593,-3.75 2.33593,-7.50781 0,-1.46875 -0.33593,-2.91407 -0.26563,-1.17187 -0.74219,-2.25 -0.30469,-0.70312 -1.25781,-2.34375 h 1.00781 q 1.46875,1.96094 2.17187,3.9375 0.60157,1.70313 0.60157,3.5625 0,2.10938 -0.8125,4.07813 -0.80469,1.96875 -1.96094,3.4375 z"
         style="font-size:16px;font-family:helvetica;fill:#000000;stroke-linecap:round"
         id="path4626"
         inkscape:connector-curvature="0" />
      <path
         d="M 374.36132,122.19633 V 123.21 h -5.67774 q -0.0117,-0.38086 0.12305,-0.73242 0.2168,-0.58008 0.69141,-1.14258 0.48046,-0.5625 1.38281,-1.30078 1.40039,-1.14844 1.89258,-1.81641 0.49218,-0.67382 0.49218,-1.27148 0,-0.62695 -0.45117,-1.05469 -0.44531,-0.43359 -1.16601,-0.43359 -0.76172,0 -1.21875,0.45703 -0.45704,0.45703 -0.46289,1.26563 l -1.08399,-0.11133 q 0.11133,-1.21289 0.83789,-1.84571 0.72656,-0.63867 1.95117,-0.63867 1.23633,0 1.95703,0.68555 0.72071,0.68555 0.72071,1.69922 0,0.51562 -0.21094,1.01367 -0.21094,0.49805 -0.70312,1.04883 -0.48633,0.55078 -1.62305,1.51172 -0.94922,0.79687 -1.21875,1.08398 -0.26953,0.28125 -0.44531,0.56836 z"
         style="font-size:75%;baseline-shift:sub"
         id="path4628"
         inkscape:connector-curvature="0" />
    </g>
    <path
       style="font-size:medium;font-family:Helvetica;stroke:#000000;stroke-width:0.25949803;stroke-linecap:round"
       d="m 41.50102,57.884405 5.989703,-3.400559"
       id="line4015"
       inkscape:connector-curvature="0" />
    <path
       style="font-size:medium;font-family:Helvetica;stroke:#000000;stroke-width:0.25949803;stroke-linecap:round"
       d="m 41.50102,64.672664 5.989703,3.408279"
       id="line4019"
       inkscape:connector-curvature="0" />
    <path
       style="font-size:medium;font-family:Helvetica;stroke:#000000;stroke-width:0.25949803;stroke-linecap:round"
       d="m 41.50102,64.672664 -3.984406,2.26104"
       id="line4023"
       inkscape:connector-curvature="0" />
    <path
       style="font-size:medium;font-family:Helvetica;stroke:#000000;stroke-width:0.25949803;stroke-linecap:round"
       d="m 41.50102,57.884405 v 6.788259"
       id="line4027"
       inkscape:connector-curvature="0" />
    <path
       style="font-size:medium;font-family:Helvetica;stroke:#000000;stroke-width:0.25949803;stroke-linecap:round"
       d="m 43.071748,58.730687 v 5.093125"
       id="line4029"
       inkscape:connector-curvature="0" />
    <path
       style="font-size:medium;font-family:Helvetica;stroke:#000000;stroke-width:0.25949803;stroke-linecap:round"
       d="m 53.480424,57.884405 v 6.788259"
       id="line4033"
       inkscape:connector-curvature="0" />
    <path
       style="font-size:medium;font-family:Helvetica;stroke:#000000;stroke-width:0.25949803;stroke-linecap:round"
       d="m 47.490723,54.483846 5.989701,3.400559"
       id="line4037"
       inkscape:connector-curvature="0" />
    <path
       style="font-size:medium;font-family:Helvetica;stroke:#000000;stroke-width:0.25949803;stroke-linecap:round"
       d="m 47.454069,56.24586 4.492276,2.549136"
       id="line4039"
       inkscape:connector-curvature="0" />
    <path
       style="font-size:medium;font-family:Helvetica;stroke:#000000;stroke-width:0.25949803;stroke-linecap:round"
       d="m 53.480424,57.884405 3.670259,-2.075833"
       id="line4043"
       inkscape:connector-curvature="0" />
    <path
       style="font-size:medium;font-family:Helvetica;stroke:#000000;stroke-width:0.25949803;stroke-linecap:round"
       d="m 53.480424,64.672664 -5.989701,3.408279"
       id="line4047"
       inkscape:connector-curvature="0" />
    <path
       style="font-size:medium;font-family:Helvetica;stroke:#000000;stroke-width:0.25949803;stroke-linecap:round"
       d="m 51.943729,63.76208 -4.492275,2.55685"
       id="line4049"
       inkscape:connector-curvature="0" />
    <g
       aria-label="H3CO"
       style="font-size:4.23907232px;font-family:helvetica;fill:#000000;stroke-width:0.26494202;stroke-linecap:round"
       id="text4055"
       transform="matrix(0.98809389,0,0,0.9708861,1.097003,1.9976448)">
      <path
         d="m 25.355002,68.849167 v -3.034414 h 0.401553 v 1.246055 h 1.577233 v -1.246055 h 0.401552 v 3.034414 h -0.401552 v -1.430273 h -1.577233 v 1.430273 z"
         style="font-size:4.23907232px;font-family:helvetica;fill:#000000;stroke-width:0.26494202;stroke-linecap:round"
         id="path4642"
         inkscape:connector-curvature="0" />
      <path
         d="m 28.212443,69.096205 0.279431,-0.03726 q 0.04812,0.237517 0.163001,0.343079 0.11643,0.104011 0.282536,0.104011 0.197154,0 0.332213,-0.136611 0.13661,-0.136611 0.13661,-0.338422 0,-0.192497 -0.125744,-0.316688 -0.125743,-0.125744 -0.319793,-0.125744 -0.07917,0 -0.197154,0.03105 l 0.03105,-0.245278 q 0.02794,0.0031 0.04502,0.0031 0.178526,0 0.321346,-0.09314 0.14282,-0.09314 0.14282,-0.287193 0,-0.153687 -0.10401,-0.254592 -0.10401,-0.100906 -0.268564,-0.100906 -0.163002,0 -0.271669,0.102458 -0.108668,0.102458 -0.139716,0.307374 l -0.279431,-0.04968 q 0.05123,-0.280983 0.232859,-0.43467 0.18163,-0.15524 0.451747,-0.15524 0.186287,0 0.343079,0.08073 0.156792,0.07917 0.239069,0.217335 0.08383,0.138163 0.08383,0.293403 0,0.147477 -0.07917,0.268564 -0.07917,0.121087 -0.234411,0.192497 0.201811,0.04657 0.313583,0.194049 0.111773,0.145925 0.111773,0.366365 0,0.29806 -0.217335,0.506081 -0.217336,0.206469 -0.549548,0.206469 -0.299612,0 -0.498319,-0.178526 -0.197154,-0.178525 -0.225097,-0.462613 z"
         style="font-size:3.17930412px;baseline-shift:sub;stroke-width:0.26494202"
         id="path4644"
         inkscape:connector-curvature="0" />
      <path
         d="m 32.340778,67.785259 0.401553,0.101423 q -0.126262,0.494697 -0.455369,0.755499 -0.327038,0.258732 -0.801036,0.258732 -0.490557,0 -0.798966,-0.198706 -0.306339,-0.200777 -0.467788,-0.579561 -0.159379,-0.378784 -0.159379,-0.813455 0,-0.473997 0.180078,-0.825874 0.182147,-0.353946 0.515395,-0.536093 0.335317,-0.184218 0.73687,-0.184218 0.455369,0 0.765848,0.231825 0.310479,0.231824 0.4326,0.652005 l -0.395343,0.09314 q -0.105563,-0.331178 -0.306339,-0.482277 -0.200776,-0.1511 -0.505046,-0.1511 -0.349806,0 -0.58577,0.167659 -0.233894,0.167658 -0.329108,0.451229 -0.09521,0.281501 -0.09521,0.581631 0,0.387063 0.111772,0.676844 0.113842,0.28771 0.351876,0.43053 0.238034,0.142821 0.515395,0.142821 0.337387,0 0.571282,-0.194567 0.233894,-0.194567 0.316688,-0.577491 z"
         style="font-size:4.23907232px;font-family:helvetica;fill:#000000;stroke-width:0.26494202;stroke-linecap:round"
         id="path4646"
         inkscape:connector-curvature="0" />
      <path
         d="m 33.116975,67.371287 q 0,-0.755499 0.405692,-1.18189 0.405693,-0.428461 1.047349,-0.428461 0.420182,0 0.757569,0.200777 0.337387,0.200776 0.513325,0.560932 0.178008,0.358085 0.178008,0.813455 0,0.461578 -0.186287,0.825874 -0.186288,0.364295 -0.527815,0.552652 -0.341526,0.186287 -0.73687,0.186287 -0.42846,0 -0.765848,-0.206986 -0.337387,-0.206986 -0.511255,-0.565071 -0.173868,-0.358086 -0.173868,-0.757569 z m 0.413972,0.0062 q 0,0.548513 0.29392,0.865201 0.29599,0.314619 0.74101,0.314619 0.453299,0 0.745149,-0.318759 0.29392,-0.318758 0.29392,-0.904528 0,-0.370505 -0.126261,-0.645796 -0.124192,-0.277362 -0.366365,-0.428461 -0.240104,-0.15317 -0.540234,-0.15317 -0.426391,0 -0.7348,0.29392 -0.306339,0.29185 -0.306339,0.976974 z"
         style="font-size:4.23907232px;font-family:helvetica;fill:#000000;stroke-width:0.26494202;stroke-linecap:round"
         id="path4648"
         inkscape:connector-curvature="0" />
    </g>
    <g
       aria-label="MgBr"
       style="font-size:4.23907232px;font-family:helvetica;fill:#000000;stroke-width:0.26494202;stroke-linecap:round"
       id="text4057"
       transform="matrix(0.98809389,0,0,0.9708861,1.097003,1.9976448)">
      <path
         d="M 57.388147,54.865524 V 51.83111 h 0.604399 l 0.718241,2.148514 q 0.09935,0.30013 0.14489,0.44916 0.05175,-0.165589 0.161449,-0.486417 l 0.726521,-2.111257 h 0.540233 v 3.034414 h -0.387063 v -2.539717 l -0.88176,2.539717 h -0.362226 l -0.87762,-2.583184 v 2.583184 z"
         style="font-size:4.23907232px;font-family:helvetica;fill:#000000;stroke-width:0.26494202;stroke-linecap:round"
         id="path4651"
         inkscape:connector-curvature="0" />
      <path
         d="m 60.819974,55.047672 0.362225,0.05382 q 0.02277,0.167659 0.126262,0.244244 0.13868,0.103493 0.378784,0.103493 0.258733,0 0.399483,-0.103493 0.14075,-0.103493 0.190427,-0.289781 0.02898,-0.113842 0.02691,-0.478137 -0.244243,0.28771 -0.608538,0.28771 -0.4533,0 -0.701683,-0.327038 -0.248383,-0.327037 -0.248383,-0.784476 0,-0.314619 0.113842,-0.579561 0.113843,-0.267012 0.329108,-0.411902 0.217335,-0.14489 0.509185,-0.14489 0.389134,0 0.641657,0.314618 v -0.264942 h 0.343597 v 1.900132 q 0,0.513325 -0.105563,0.72652 -0.103493,0.215266 -0.331178,0.339457 -0.225614,0.124192 -0.556792,0.124192 -0.393273,0 -0.635447,-0.178008 -0.242173,-0.175938 -0.233894,-0.531954 z m 0.308409,-1.32057 q 0,0.4326 0.171798,0.631307 0.171799,0.198706 0.430531,0.198706 0.256663,0 0.430531,-0.196636 0.173868,-0.198707 0.173868,-0.620958 0,-0.403623 -0.180078,-0.608539 -0.178008,-0.204916 -0.43053,-0.204916 -0.248384,0 -0.422252,0.202846 -0.173868,0.200777 -0.173868,0.59819 z"
         style="font-size:4.23907232px;font-family:helvetica;fill:#000000;stroke-width:0.26494202;stroke-linecap:round"
         id="path4653"
         inkscape:connector-curvature="0" />
      <path
         d="M 63.278967,54.865524 V 51.83111 h 1.138423 q 0.347736,0 0.556792,0.09314 0.211126,0.09107 0.329108,0.283571 0.120052,0.190427 0.120052,0.399483 0,0.194566 -0.105563,0.366365 -0.105563,0.171798 -0.318759,0.277361 0.275292,0.08072 0.422252,0.275291 0.14903,0.194567 0.14903,0.459509 0,0.213196 -0.09107,0.397413 -0.089,0.182148 -0.221475,0.281501 -0.132471,0.09935 -0.333248,0.1511 -0.198706,0.04968 -0.488486,0.04968 z m 0.401553,-1.75938 h 0.656145 q 0.267012,0 0.382924,-0.03519 0.15317,-0.04554 0.229755,-0.1511 0.07865,-0.105563 0.07865,-0.264942 0,-0.151099 -0.07245,-0.264942 -0.07245,-0.115912 -0.206986,-0.157309 -0.13454,-0.04347 -0.461578,-0.04347 h -0.60646 z m 0,1.401295 h 0.755499 q 0.194566,0 0.273221,-0.01449 0.138681,-0.02484 0.231824,-0.08279 0.09314,-0.05796 0.15317,-0.167658 0.06003,-0.111773 0.06003,-0.256663 0,-0.169728 -0.08693,-0.29392 -0.08693,-0.126261 -0.242174,-0.175938 -0.153169,-0.05175 -0.44295,-0.05175 h -0.70169 z"
         style="font-size:4.23907232px;font-family:helvetica;fill:#000000;stroke-width:0.26494202;stroke-linecap:round"
         id="path4655"
         inkscape:connector-curvature="0" />
      <path
         d="m 66.075348,54.865524 v -2.198191 h 0.335317 v 0.333248 q 0.128331,-0.233894 0.235964,-0.308409 0.109703,-0.07451 0.240104,-0.07451 0.188357,0 0.382924,0.120052 l -0.128332,0.345666 q -0.13661,-0.08072 -0.273221,-0.08072 -0.122122,0 -0.219405,0.07451 -0.09728,0.07245 -0.138681,0.202846 -0.0621,0.198706 -0.0621,0.43467 v 1.150842 z"
         style="font-size:4.23907232px;font-family:helvetica;fill:#000000;stroke-width:0.26494202;stroke-linecap:round"
         id="path4657"
         inkscape:connector-curvature="0" />
    </g>
    <g
       aria-label="+"
       style="font-size:4.94558382px;font-family:helvetica;fill:#000000;stroke-width:0.26494202;stroke-linecap:round"
       id="text4059"
       transform="matrix(0.98809389,0,0,0.9708861,1.097003,1.9976448)">
      <path
         d="m 67.77077,62.819041 v -0.970764 h -0.963519 v -0.405692 h 0.963519 v -0.96352 h 0.410522 v 0.96352 h 0.96352 v 0.405692 h -0.96352 v 0.970764 z"
         style="font-size:4.94558382px;font-family:helvetica;fill:#000000;stroke-width:0.26494202;stroke-linecap:round"
         id="path4660"
         inkscape:connector-curvature="0" />
    </g>
    <g
       aria-label="PPh3"
       style="font-size:4.23907232px;font-family:helvetica;fill:#000000;stroke-width:0.26494202;stroke-linecap:round"
       id="text4063"
       transform="matrix(0.98809389,0,0,0.9708861,1.097003,1.9976448)">
      <path
         d="M 107.47461,65.248604 V 62.21419 h 1.14463 q 0.3022,0 0.46158,0.02898 0.22354,0.03726 0.37464,0.14282 0.1511,0.103493 0.24217,0.29185 0.0931,0.188357 0.0931,0.413972 0,0.387064 -0.24631,0.656146 -0.24632,0.267012 -0.89004,0.267012 h -0.77827 v 1.233636 z m 0.40155,-1.591722 h 0.78448 q 0.38913,0 0.55265,-0.14489 0.16352,-0.14489 0.16352,-0.407763 0,-0.190427 -0.0973,-0.324968 -0.0952,-0.13661 -0.25252,-0.180077 -0.10142,-0.02691 -0.37464,-0.02691 h -0.7762 z"
         style="font-size:4.23907232px;font-family:helvetica;fill:#000000;stroke-width:0.26494202;stroke-linecap:round"
         id="path4663"
         inkscape:connector-curvature="0" />
      <path
         d="M 110.30617,65.248604 V 62.21419 h 1.14464 q 0.3022,0 0.46157,0.02898 0.22355,0.03726 0.37465,0.14282 0.1511,0.103493 0.24217,0.29185 0.0931,0.188357 0.0931,0.413972 0,0.387064 -0.24632,0.656146 -0.24631,0.267012 -0.89004,0.267012 h -0.77826 v 1.233636 z m 0.40156,-1.591722 h 0.78447 q 0.38914,0 0.55266,-0.14489 0.16351,-0.14489 0.16351,-0.407763 0,-0.190427 -0.0973,-0.324968 -0.0952,-0.13661 -0.25252,-0.180077 -0.10143,-0.02691 -0.37465,-0.02691 h -0.77619 z"
         style="font-size:4.23907232px;font-family:helvetica;fill:#000000;stroke-width:0.26494202;stroke-linecap:round"
         id="path4665"
         inkscape:connector-curvature="0" />
      <path
         d="M 113.09013,65.248604 V 62.21419 h 0.37258 v 1.088746 q 0.2608,-0.3022 0.65821,-0.3022 0.24425,0 0.42433,0.09728 0.18007,0.09521 0.25666,0.264942 0.0786,0.169728 0.0786,0.492626 V 65.2486 h -0.37257 v -1.393016 q 0,-0.279431 -0.12212,-0.405692 -0.12006,-0.128331 -0.34153,-0.128331 -0.16559,0 -0.31255,0.08693 -0.14489,0.08486 -0.20699,0.231824 -0.0621,0.14696 -0.0621,0.405692 v 1.202589 z"
         style="font-size:4.23907232px;font-family:helvetica;fill:#000000;stroke-width:0.26494202;stroke-linecap:round"
         id="path4667"
         inkscape:connector-curvature="0" />
      <path
         d="m 115.30385,65.495642 0.27943,-0.03726 q 0.0481,0.237516 0.163,0.343079 0.11643,0.104011 0.28254,0.104011 0.19715,0 0.33221,-0.136611 0.13661,-0.136611 0.13661,-0.338422 0,-0.192497 -0.12574,-0.316689 -0.12575,-0.125743 -0.3198,-0.125743 -0.0792,0 -0.19715,0.03105 l 0.031,-0.245278 q 0.0279,0.0031 0.045,0.0031 0.17852,0 0.32134,-0.09314 0.14282,-0.09314 0.14282,-0.287193 0,-0.153687 -0.10401,-0.254593 -0.10401,-0.100905 -0.26856,-0.100905 -0.163,0 -0.27167,0.102458 -0.10867,0.102458 -0.13972,0.307374 l -0.27943,-0.04968 q 0.0512,-0.280983 0.23286,-0.43467 0.18163,-0.15524 0.45175,-0.15524 0.18629,0 0.34308,0.08073 0.15679,0.07917 0.23907,0.217335 0.0838,0.138163 0.0838,0.293403 0,0.147477 -0.0792,0.268564 -0.0792,0.121087 -0.23441,0.192497 0.20181,0.04657 0.31359,0.194049 0.11177,0.145925 0.11177,0.366365 0,0.29806 -0.21734,0.506081 -0.21733,0.206469 -0.54954,0.206469 -0.29962,0 -0.49832,-0.178526 -0.19716,-0.178525 -0.2251,-0.462613 z"
         style="font-size:3.17930412px;baseline-shift:sub;stroke-width:0.26494202"
         id="path4669"
         inkscape:connector-curvature="0" />
    </g>
    <path
       style="font-size:medium;font-family:Helvetica;stroke:#000000;stroke-width:0.25949803;stroke-linecap:round"
       d="m 156.09592,91.42443 -5.98972,3.408287"
       id="line4065"
       inkscape:connector-curvature="0" />
    <path
       style="font-size:medium;font-family:Helvetica;stroke:#000000;stroke-width:0.25949803;stroke-linecap:round"
       d="m 154.55922,90.513847 -4.49228,2.55685"
       id="line4067"
       inkscape:connector-curvature="0" />
    <path
       style="font-size:medium;font-family:Helvetica;stroke:#0000ff;stroke-width:0.25949803;stroke-linecap:round"
       d="m 162.09609,81.245903 5.9897,3.40828"
       id="line4071"
       inkscape:connector-curvature="0" />
    <path
       style="font-size:medium;font-family:Helvetica;stroke:#000000;stroke-width:0.25949803;stroke-linecap:round"
       d="m 150.1062,81.235608 5.98972,3.400561"
       id="line4075"
       inkscape:connector-curvature="0" />
    <path
       style="font-size:medium;font-family:Helvetica;stroke:#000000;stroke-width:0.25949803;stroke-linecap:round"
       d="m 150.06957,82.997628 4.49228,2.549131"
       id="line4077"
       inkscape:connector-curvature="0" />
    <path
       style="font-size:medium;font-family:Helvetica;stroke:#0000ff;stroke-width:0.25949803;stroke-linecap:round"
       d="m 168.06747,91.452726 0.0183,-6.798543"
       id="line4081"
       inkscape:connector-curvature="0" />
    <path
       style="font-size:medium;font-family:Helvetica;stroke:#0000ff;stroke-width:0.25949803;stroke-linecap:round"
       d="m 169.63819,90.609016 0.0157,-5.100842"
       id="line4083"
       inkscape:connector-curvature="0" />
    <path
       style="font-size:medium;font-family:Helvetica;stroke:#000000;stroke-width:0.25949803;stroke-linecap:round"
       d="m 144.11652,91.42443 -3.97918,2.25847"
       id="line4087"
       inkscape:connector-curvature="0" />
    <path
       style="font-size:medium;font-family:Helvetica;stroke:#0000ff;stroke-width:0.25949803;stroke-linecap:round"
       d="m 161.57252,81.245903 0.008,-4.841045"
       id="line4091"
       inkscape:connector-curvature="0" />
    <path
       style="font-size:medium;font-family:Helvetica;stroke:#0000ff;stroke-width:0.25949803;stroke-linecap:round"
       d="m 162.61967,81.245903 0.008,-4.841045"
       id="line4093"
       inkscape:connector-curvature="0" />
    <path
       style="font-size:medium;font-family:Helvetica;stroke:#000000;stroke-width:0.25949803;stroke-linecap:round"
       d="M 144.11652,84.636169 V 91.42443"
       id="line4097"
       inkscape:connector-curvature="0" />
    <path
       style="font-size:medium;font-family:Helvetica;stroke:#000000;stroke-width:0.25949803;stroke-linecap:round"
       d="m 145.68724,85.485026 v 5.090553"
       id="line4099"
       inkscape:connector-curvature="0" />
    <path
       style="font-size:medium;font-family:Helvetica;stroke:#000000;stroke-width:0.25949803;stroke-linecap:round"
       d="M 156.09592,84.636169 V 91.42443"
       id="line4103"
       inkscape:connector-curvature="0" />
    <path
       style="font-size:medium;font-family:Helvetica;stroke:#0000ff;stroke-width:0.25949803;stroke-linecap:round"
       d="m 168.08579,84.654183 5.98971,-3.379991"
       id="line4107"
       inkscape:connector-curvature="0" />
    <path
       style="font-size:medium;font-family:Helvetica;stroke:#000000;stroke-width:0.25949803;stroke-linecap:round"
       d="m 144.11652,91.42443 5.98968,3.408287"
       id="line4111"
       inkscape:connector-curvature="0" />
    <path
       style="font-size:medium;font-family:Helvetica;stroke:#000000;stroke-width:0.25949803;stroke-linecap:round"
       d="m 156.09592,84.636169 6.00017,-3.390266"
       id="line4115"
       inkscape:connector-curvature="0" />
    <path
       style="font-size:medium;font-family:Helvetica;stroke:#0000ff;stroke-width:0.25949803;stroke-linecap:round"
       d="m 174.05717,94.863583 6.24624,-3.379992"
       id="line4119"
       inkscape:connector-curvature="0" />
    <path
       style="font-size:medium;font-family:Helvetica;stroke:#0000ff;stroke-width:0.25949803;stroke-linecap:round"
       d="m 174.08072,93.088697 4.68338,-2.536274"
       id="line4121"
       inkscape:connector-curvature="0" />
    <path
       style="font-size:medium;font-family:Helvetica;stroke:#0000ff;stroke-width:0.25949803;stroke-linecap:round"
       d="m 180.30341,91.483591 3.81425,2.271338"
       id="line4125"
       inkscape:connector-curvature="0" />
    <path
       style="font-size:medium;font-family:Helvetica;stroke:#0000ff;stroke-width:0.25949803;stroke-linecap:round"
       d="m 174.05717,94.863583 -5.9897,-3.410857"
       id="line4129"
       inkscape:connector-curvature="0" />
    <path
       style="font-size:medium;font-family:Helvetica;stroke:#000000;stroke-width:0.25949803;stroke-linecap:round"
       d="m 144.11652,84.636169 5.98968,-3.400561"
       id="line4133"
       inkscape:connector-curvature="0" />
    <path
       style="font-size:medium;font-family:Helvetica;stroke:#0000ff;stroke-width:0.25949803;stroke-linecap:round"
       d="m 174.0755,81.274192 6.24362,3.410856"
       id="line4137"
       inkscape:connector-curvature="0" />
    <path
       style="font-size:medium;font-family:Helvetica;stroke:#0000ff;stroke-width:0.25949803;stroke-linecap:round"
       d="m 174.09383,83.049071 4.68074,2.55685"
       id="line4139"
       inkscape:connector-curvature="0" />
    <path
       style="font-size:medium;font-family:Helvetica;stroke:#0000ff;stroke-width:0.25949803;stroke-linecap:round"
       d="m 180.30341,91.483591 0.0157,-6.798543"
       id="line4143"
       inkscape:connector-curvature="0" />
    <g
       aria-label="H3CO"
       style="font-size:4.23907232px;font-family:helvetica;fill:#000000;stroke-width:0.26494202;stroke-linecap:round"
       id="text4149"
       transform="matrix(0.98809389,0,0,0.9708861,1.097003,1.9976448)">
      <path
         d="m 129.21226,96.405777 v -3.034414 h 0.40155 v 1.246055 h 1.57724 v -1.246055 h 0.40155 v 3.034414 h -0.40155 v -1.430273 h -1.57724 v 1.430273 z"
         style="font-size:4.23907232px;font-family:helvetica;fill:#000000;stroke-width:0.26494202;stroke-linecap:round"
         id="path4696"
         inkscape:connector-curvature="0" />
      <path
         d="m 132.0697,96.652815 0.27943,-0.03726 q 0.0481,0.237517 0.163,0.343079 0.11643,0.104011 0.28254,0.104011 0.19715,0 0.33221,-0.136611 0.13661,-0.136611 0.13661,-0.338422 0,-0.192497 -0.12574,-0.316688 -0.12575,-0.125744 -0.31979,-0.125744 -0.0792,0 -0.19716,0.03105 l 0.031,-0.245279 q 0.0279,0.0031 0.045,0.0031 0.17852,0 0.32134,-0.09314 0.14282,-0.09314 0.14282,-0.287193 0,-0.153687 -0.10401,-0.254592 -0.10401,-0.100906 -0.26856,-0.100906 -0.163,0 -0.27167,0.102458 -0.10867,0.102458 -0.13972,0.307374 l -0.27943,-0.04968 q 0.0512,-0.280984 0.23286,-0.434671 0.18163,-0.155239 0.45175,-0.155239 0.18629,0 0.34308,0.08072 0.15679,0.07917 0.23907,0.217335 0.0838,0.138163 0.0838,0.293403 0,0.147477 -0.0792,0.268564 -0.0792,0.121087 -0.23442,0.192497 0.20181,0.04657 0.31359,0.194049 0.11177,0.145926 0.11177,0.366366 0,0.298059 -0.21734,0.50608 -0.21733,0.206469 -0.54954,0.206469 -0.29962,0 -0.49832,-0.178526 -0.19716,-0.178525 -0.2251,-0.462613 z"
         style="font-size:3.17930412px;baseline-shift:sub;stroke-width:0.26494202"
         id="path4698"
         inkscape:connector-curvature="0" />
      <path
         d="m 136.19804,95.341869 0.40155,0.101423 q -0.12626,0.494697 -0.45537,0.755499 -0.32704,0.258732 -0.80104,0.258732 -0.49055,0 -0.79896,-0.198706 -0.30634,-0.200776 -0.46779,-0.579561 -0.15938,-0.378784 -0.15938,-0.813455 0,-0.473997 0.18008,-0.825873 0.18215,-0.353946 0.51539,-0.536094 0.33532,-0.184218 0.73687,-0.184218 0.45537,0 0.76585,0.231825 0.31048,0.231824 0.4326,0.652005 l -0.39534,0.09314 q -0.10556,-0.331177 -0.30634,-0.482277 -0.20078,-0.1511 -0.50505,-0.1511 -0.3498,0 -0.58577,0.167659 -0.23389,0.167658 -0.3291,0.451229 -0.0952,0.281501 -0.0952,0.581631 0,0.387063 0.11177,0.676844 0.11385,0.28771 0.35188,0.43053 0.23803,0.142821 0.5154,0.142821 0.33738,0 0.57128,-0.194567 0.23389,-0.194567 0.31669,-0.577491 z"
         style="font-size:4.23907232px;font-family:helvetica;fill:#000000;stroke-width:0.26494202;stroke-linecap:round"
         id="path4700"
         inkscape:connector-curvature="0" />
      <path
         d="m 136.97423,94.927897 q 0,-0.755498 0.4057,-1.18189 0.40569,-0.42846 1.04734,-0.42846 0.42019,0 0.75757,0.200776 0.33739,0.200776 0.51333,0.560932 0.17801,0.358086 0.17801,0.813455 0,0.461578 -0.18629,0.825874 -0.18629,0.364295 -0.52782,0.552652 -0.34152,0.186287 -0.73687,0.186287 -0.42846,0 -0.76584,-0.206985 -0.33739,-0.206986 -0.51126,-0.565072 -0.17387,-0.358086 -0.17387,-0.757569 z m 0.41397,0.0062 q 0,0.548513 0.29392,0.865201 0.29599,0.314619 0.74101,0.314619 0.4533,0 0.74515,-0.318759 0.29392,-0.318758 0.29392,-0.904528 0,-0.370505 -0.12626,-0.645796 -0.12419,-0.277362 -0.36636,-0.428461 -0.24011,-0.15317 -0.54024,-0.15317 -0.42639,0 -0.7348,0.29392 -0.30634,0.29185 -0.30634,0.976974 z"
         style="font-size:4.23907232px;font-family:helvetica;fill:#000000;stroke-width:0.26494202;stroke-linecap:round"
         id="path4702"
         inkscape:connector-curvature="0" />
    </g>
    <g
       aria-label="Br"
       style="font-size:4.23907232px;font-family:helvetica;fill:#0000ff;stroke-width:0.26494202;stroke-linecap:round"
       id="text4151"
       transform="matrix(0.98809389,0,0,0.9708861,1.097003,1.9976448)">
      <path
         d="m 185.88088,96.474663 v -3.034414 h 1.13843 q 0.34773,0 0.55679,0.09314 0.21112,0.09107 0.32911,0.283571 0.12005,0.190427 0.12005,0.399483 0,0.194567 -0.10557,0.366365 -0.10556,0.171799 -0.31875,0.277361 0.27529,0.08073 0.42225,0.275292 0.14903,0.194566 0.14903,0.459508 0,0.213196 -0.0911,0.397414 -0.089,0.182147 -0.22147,0.2815 -0.13247,0.09935 -0.33325,0.1511 -0.19871,0.04968 -0.48849,0.04968 z m 0.40156,-1.759381 h 0.65614 q 0.26701,0 0.38293,-0.03519 0.15316,-0.04554 0.22975,-0.1511 0.0786,-0.105563 0.0786,-0.264942 0,-0.1511 -0.0724,-0.264942 -0.0725,-0.115912 -0.20699,-0.15731 -0.13454,-0.04347 -0.46158,-0.04347 h -0.60646 z m 0,1.401295 h 0.75549 q 0.19457,0 0.27323,-0.01449 0.13868,-0.02484 0.23182,-0.08279 0.0931,-0.05796 0.15317,-0.167659 0.06,-0.111772 0.06,-0.256663 0,-0.169728 -0.0869,-0.29392 -0.0869,-0.126261 -0.24217,-0.175938 -0.15317,-0.05175 -0.44295,-0.05175 h -0.70168 z"
         style="font-size:4.23907232px;font-family:helvetica;fill:#0000ff;stroke-width:0.26494202;stroke-linecap:round"
         id="path4705"
         inkscape:connector-curvature="0" />
      <path
         d="m 188.67726,96.474663 v -2.198191 h 0.33532 v 0.333247 q 0.12833,-0.233894 0.23596,-0.308409 0.10971,-0.07452 0.24011,-0.07452 0.18836,0 0.38292,0.120052 l -0.12833,0.345667 q -0.13661,-0.08073 -0.27322,-0.08073 -0.12212,0 -0.21941,0.07452 -0.0973,0.07244 -0.13868,0.202846 -0.0621,0.198707 -0.0621,0.434671 v 1.150842 z"
         style="font-size:4.23907232px;font-family:helvetica;fill:#0000ff;stroke-width:0.26494202;stroke-linecap:round"
         id="path4707"
         inkscape:connector-curvature="0" />
    </g>
    <g
       aria-label="NH"
       style="font-size:4.23907232px;font-family:helvetica;fill:#0000ff;stroke-width:0.26494202;stroke-linecap:round"
       id="text4153"
       transform="matrix(0.98809389,0,0,0.9708861,1.097003,1.9976448)">
      <path
         d="m 161.51864,75.417076 v -3.034414 h 0.4119 l 1.59379,2.382408 v -2.382408 h 0.385 v 3.034414 h -0.41191 l -1.59379,-2.384478 v 2.384478 z"
         style="font-size:4.23907232px;font-family:helvetica;fill:#0000ff;stroke-width:0.26494202;stroke-linecap:round"
         id="path4710"
         inkscape:connector-curvature="0" />
      <path
         d="m 164.59859,75.417076 v -3.034414 h 0.40155 v 1.246055 h 1.57723 v -1.246055 h 0.40156 v 3.034414 h -0.40156 v -1.430273 h -1.57723 v 1.430273 z"
         style="font-size:4.23907232px;font-family:helvetica;fill:#0000ff;stroke-width:0.26494202;stroke-linecap:round"
         id="path4712"
         inkscape:connector-curvature="0" />
    </g>
    <path
       style="font-size:medium;font-family:Helvetica;stroke:#0000ff;stroke-width:0.25949803;stroke-linecap:round"
       d="m 160.78716,54.494133 0.0209,-6.790833"
       id="line4155"
       inkscape:connector-curvature="0" />
    <path
       style="font-size:medium;font-family:Helvetica;stroke:#000000;stroke-width:0.25949803;stroke-linecap:round"
       d="m 154.78698,57.884405 v 6.788259"
       id="line4159"
       inkscape:connector-curvature="0" />
    <path
       style="font-size:medium;font-family:Helvetica;stroke:#0000ff;stroke-width:0.25949803;stroke-linecap:round"
       d="m 172.77702,54.522429 -6.00017,3.390272"
       id="line4163"
       inkscape:connector-curvature="0" />
    <path
       style="font-size:medium;font-family:Helvetica;stroke:#0000ff;stroke-width:0.25949803;stroke-linecap:round"
       d="m 172.78749,47.723879 -5.98184,-3.408275"
       id="line4167"
       inkscape:connector-curvature="0" />
    <path
       style="font-size:medium;font-family:Helvetica;stroke:#000000;stroke-width:0.25949803;stroke-linecap:round"
       d="m 154.78698,64.672664 -5.9897,3.408279"
       id="line4171"
       inkscape:connector-curvature="0" />
    <path
       style="font-size:medium;font-family:Helvetica;stroke:#000000;stroke-width:0.25949803;stroke-linecap:round"
       d="m 153.25028,63.76208 -4.49227,2.55685"
       id="line4173"
       inkscape:connector-curvature="0" />
    <path
       style="font-size:medium;font-family:Helvetica;stroke:#000000;stroke-width:0.25949803;stroke-linecap:round"
       d="m 142.80759,57.884405 v 6.788259"
       id="line4177"
       inkscape:connector-curvature="0" />
    <path
       style="font-size:medium;font-family:Helvetica;stroke:#000000;stroke-width:0.25949803;stroke-linecap:round"
       d="m 144.37831,58.730687 v 5.093125"
       id="line4179"
       inkscape:connector-curvature="0" />
    <path
       style="font-size:medium;font-family:Helvetica;stroke:#000000;stroke-width:0.25949803;stroke-linecap:round"
       d="m 148.79728,54.483846 5.9897,3.400559"
       id="line4183"
       inkscape:connector-curvature="0" />
    <path
       style="font-size:medium;font-family:Helvetica;stroke:#000000;stroke-width:0.25949803;stroke-linecap:round"
       d="m 148.76064,56.24586 4.49227,2.549136"
       id="line4185"
       inkscape:connector-curvature="0" />
    <path
       style="font-size:medium;font-family:Helvetica;stroke:#000000;stroke-width:0.25949803;stroke-linecap:round"
       d="m 142.80759,57.884405 5.98969,-3.400559"
       id="line4189"
       inkscape:connector-curvature="0" />
    <path
       style="font-size:medium;font-family:Helvetica;stroke:#0000ff;stroke-width:0.25949803;stroke-linecap:round"
       d="m 166.77685,57.912701 -5.98969,-3.418568"
       id="line4193"
       inkscape:connector-curvature="0" />
    <path
       style="font-size:medium;font-family:Helvetica;stroke:#0000ff;stroke-width:0.25949803;stroke-linecap:round"
       d="m 166.81874,56.150685 -4.4949,-2.564569"
       id="line4195"
       inkscape:connector-curvature="0" />
    <path
       style="font-size:medium;font-family:Helvetica;stroke:#000000;stroke-width:0.25949803;stroke-linecap:round"
       d="m 142.80759,64.672664 5.98969,3.408279"
       id="line4199"
       inkscape:connector-curvature="0" />
    <path
       style="font-size:medium;font-family:Helvetica;stroke:#0000ff;stroke-width:0.25949803;stroke-linecap:round"
       d="m 154.78698,57.884405 6.00018,-3.390272"
       id="line4203"
       inkscape:connector-curvature="0" />
    <path
       style="font-size:medium;font-family:Helvetica;stroke:#000000;stroke-width:0.25949803;stroke-linecap:round"
       d="m 142.80759,64.672664 -3.97918,2.25847"
       id="line4207"
       inkscape:connector-curvature="0" />
    <path
       style="font-size:medium;font-family:Helvetica;stroke:#0000ff;stroke-width:0.25949803;stroke-linecap:round"
       d="m 160.80809,47.7033 5.99756,-3.387696"
       id="line4211"
       inkscape:connector-curvature="0" />
    <path
       style="font-size:medium;font-family:Helvetica;stroke:#0000ff;stroke-width:0.25949803;stroke-linecap:round"
       d="m 162.33956,48.619036 4.50013,-2.54142"
       id="line4213"
       inkscape:connector-curvature="0" />
    <path
       style="font-size:medium;font-family:Helvetica;stroke:#0000ff;stroke-width:0.25949803;stroke-linecap:round"
       d="m 172.78749,47.723879 4.00012,-2.253323"
       id="line4217"
       inkscape:connector-curvature="0" />
    <path
       style="font-size:medium;font-family:Helvetica;stroke:#0000ff;stroke-width:0.25949803;stroke-linecap:round"
       d="m 172.77702,54.522429 0.0104,-6.79855"
       id="line4221"
       inkscape:connector-curvature="0" />
    <path
       style="font-size:medium;font-family:Helvetica;stroke:#0000ff;stroke-width:0.25949803;stroke-linecap:round"
       d="m 171.2089,53.671004 0.005,-5.09827"
       id="line4223"
       inkscape:connector-curvature="0" />
    <g
       aria-label="H3CO"
       style="font-size:4.23907232px;font-family:helvetica;fill:#000000;stroke-width:0.26494202;stroke-linecap:round"
       id="text4229"
       transform="matrix(0.98809389,0,0,0.9708861,1.097003,1.9976448)">
      <path
         d="m 127.88756,68.849167 v -3.034414 h 0.40155 v 1.246055 h 1.57724 v -1.246055 h 0.40155 v 3.034414 h -0.40155 v -1.430273 h -1.57724 v 1.430273 z"
         style="font-size:4.23907232px;font-family:helvetica;fill:#000000;stroke-width:0.26494202;stroke-linecap:round"
         id="path4736"
         inkscape:connector-curvature="0" />
      <path
         d="m 130.745,69.096205 0.27943,-0.03726 q 0.0481,0.237517 0.163,0.343079 0.11643,0.104011 0.28254,0.104011 0.19715,0 0.33221,-0.136611 0.13661,-0.136611 0.13661,-0.338422 0,-0.192497 -0.12574,-0.316688 -0.12575,-0.125744 -0.31979,-0.125744 -0.0792,0 -0.19716,0.03105 l 0.031,-0.245278 q 0.0279,0.0031 0.045,0.0031 0.17852,0 0.32134,-0.09314 0.14282,-0.09314 0.14282,-0.287193 0,-0.153687 -0.10401,-0.254592 -0.10401,-0.100906 -0.26856,-0.100906 -0.163,0 -0.27167,0.102458 -0.10867,0.102458 -0.13971,0.307374 l -0.27944,-0.04968 q 0.0512,-0.280983 0.23286,-0.43467 0.18163,-0.15524 0.45175,-0.15524 0.18629,0 0.34308,0.08073 0.15679,0.07917 0.23907,0.217335 0.0838,0.138163 0.0838,0.293403 0,0.147477 -0.0792,0.268564 -0.0792,0.121087 -0.23442,0.192497 0.20182,0.04657 0.31359,0.194049 0.11177,0.145925 0.11177,0.366365 0,0.29806 -0.21734,0.506081 -0.21733,0.206469 -0.54954,0.206469 -0.29961,0 -0.49832,-0.178526 -0.19716,-0.178525 -0.2251,-0.462613 z"
         style="font-size:3.17930412px;baseline-shift:sub;stroke-width:0.26494202"
         id="path4738"
         inkscape:connector-curvature="0" />
      <path
         d="m 134.87334,67.785259 0.40155,0.101423 q -0.12626,0.494697 -0.45537,0.755499 -0.32704,0.258732 -0.80104,0.258732 -0.49055,0 -0.79896,-0.198706 -0.30634,-0.200777 -0.46779,-0.579561 -0.15938,-0.378784 -0.15938,-0.813455 0,-0.473997 0.18008,-0.825874 0.18215,-0.353946 0.51539,-0.536093 0.33532,-0.184218 0.73687,-0.184218 0.45537,0 0.76585,0.231825 0.31048,0.231824 0.4326,0.652005 l -0.39534,0.09314 q -0.10556,-0.331178 -0.30634,-0.482277 -0.20078,-0.1511 -0.50505,-0.1511 -0.3498,0 -0.58577,0.167659 -0.23389,0.167658 -0.3291,0.451229 -0.0952,0.281501 -0.0952,0.581631 0,0.387063 0.11178,0.676844 0.11384,0.28771 0.35187,0.43053 0.23804,0.142821 0.5154,0.142821 0.33738,0 0.57128,-0.194567 0.23389,-0.194567 0.31669,-0.577491 z"
         style="font-size:4.23907232px;font-family:helvetica;fill:#000000;stroke-width:0.26494202;stroke-linecap:round"
         id="path4740"
         inkscape:connector-curvature="0" />
      <path
         d="m 135.64953,67.371287 q 0,-0.755499 0.4057,-1.18189 0.40569,-0.428461 1.04734,-0.428461 0.42019,0 0.75757,0.200777 0.33739,0.200776 0.51333,0.560932 0.17801,0.358085 0.17801,0.813455 0,0.461578 -0.18629,0.825874 -0.18629,0.364295 -0.52782,0.552652 -0.34152,0.186287 -0.73687,0.186287 -0.42846,0 -0.76584,-0.206986 -0.33739,-0.206986 -0.51126,-0.565071 -0.17387,-0.358086 -0.17387,-0.757569 z m 0.41398,0.0062 q 0,0.548513 0.29392,0.865201 0.29599,0.314619 0.74101,0.314619 0.45329,0 0.74514,-0.318759 0.29392,-0.318758 0.29392,-0.904528 0,-0.370505 -0.12626,-0.645796 -0.12419,-0.277362 -0.36636,-0.428461 -0.24011,-0.15317 -0.54024,-0.15317 -0.42639,0 -0.7348,0.29392 -0.30633,0.29185 -0.30633,0.976974 z"
         style="font-size:4.23907232px;font-family:helvetica;fill:#000000;stroke-width:0.26494202;stroke-linecap:round"
         id="path4742"
         inkscape:connector-curvature="0" />
    </g>
    <g
       aria-label="CN"
       style="font-size:4.23907232px;font-family:helvetica;fill:#0000ff;stroke-width:0.26494202;stroke-linecap:round"
       id="text4231"
       transform="matrix(0.98809389,0,0,0.9708861,1.097003,1.9976448)">
      <path
         d="m 180.64413,43.347004 0.40156,0.101423 q -0.12626,0.494696 -0.45537,0.755499 -0.32704,0.258732 -0.80104,0.258732 -0.49055,0 -0.79896,-0.198706 -0.30634,-0.200777 -0.46779,-0.579561 -0.15938,-0.378784 -0.15938,-0.813455 0,-0.473998 0.18008,-0.825874 0.18214,-0.353946 0.51539,-0.536094 0.33532,-0.184217 0.73687,-0.184217 0.45537,0 0.76585,0.231824 0.31048,0.231825 0.4326,0.652006 l -0.39534,0.09314 q -0.10557,-0.331178 -0.30634,-0.482278 -0.20078,-0.151099 -0.50505,-0.151099 -0.3498,0 -0.58577,0.167658 -0.23389,0.167659 -0.32911,0.45123 -0.0952,0.281501 -0.0952,0.58163 0,0.387064 0.11177,0.676844 0.11385,0.287711 0.35188,0.430531 0.23803,0.14282 0.51539,0.14282 0.33739,0 0.57129,-0.194566 0.23389,-0.194567 0.31668,-0.577491 z"
         style="font-size:4.23907232px;font-family:helvetica;fill:#0000ff;stroke-width:0.26494202;stroke-linecap:round"
         id="path4745"
         inkscape:connector-curvature="0" />
      <path
         d="m 181.53831,44.410912 v -3.034415 h 0.41191 l 1.59379,2.382409 v -2.382409 h 0.38499 v 3.034415 h -0.4119 l -1.59379,-2.384479 v 2.384479 z"
         style="font-size:4.23907232px;font-family:helvetica;fill:#0000ff;stroke-width:0.26494202;stroke-linecap:round"
         id="path4747"
         inkscape:connector-curvature="0" />
    </g>
    <g
       aria-label="+"
       style="font-size:4.94558382px;font-family:helvetica;fill:#000000;stroke-width:0.26494202;stroke-linecap:round"
       id="text4233"
       transform="matrix(0.98809389,0,0,0.9708861,1.097003,1.9976448)">
      <path
         d="m 162.35507,68.647769 v -0.970764 h -0.96352 v -0.405692 h 0.96352 v -0.96352 h 0.41052 v 0.96352 h 0.96352 v 0.405692 h -0.96352 v 0.970764 z"
         style="font-size:4.94558382px;font-family:helvetica;fill:#000000;stroke-width:0.26494202;stroke-linecap:round"
         id="path4750"
         inkscape:connector-curvature="0" />
    </g>
    <path
       style="font-size:medium;font-family:Helvetica;fill:none;stroke:#000000;stroke-width:0.25949803;stroke-linecap:round"
       d="m 129.87788,74.089802 h -3.35349 v 25.465623 h 3.35349"
       id="polyline4235"
       inkscape:connector-curvature="0" />
    <path
       style="font-size:medium;font-family:Helvetica;fill:none;stroke:#000000;stroke-width:0.25949803;stroke-linecap:round"
       d="m 186.78528,74.089802 h 3.35349 v 25.465623 h -3.35349"
       id="polyline4237"
       inkscape:connector-curvature="0" />
  </g>
</svg>
