<?xml version="1.0"?><svg xmlns="http://www.w3.org/2000/svg" xmlns:xlink="http://www.w3.org/1999/xlink" viewBox="304.13 176.4 162.87 81.49" preserveAspectRatio="xMidYMid" width="100%" height="100%"><clipPath id="31465"><rect x="0.5" y="0.5" width="539" height="719" /></clipPath><g id="drawing"><rect x="304.13" y="176.4" width="100%" height="100%" fill="rgb(255, 255, 255)" /><g id="page" clip-path="url(#31465)"><g><text xml:space="preserve" text-anchor="start" text-rendering="geometricPrecision"><tspan x="404.09" y="252.86" font-family="Arial" font-size="10" fill="rgb(0, 0, 0)">N</tspan></text></g><g id="ObjectTag"><g><text xml:space="preserve" text-anchor="start" text-rendering="geometricPrecision"><tspan x="403.84" y="227.22" font-family="Arial" font-style="italic" font-size="7.5" fill="rgb(0, 0, 0)">(S)</tspan></text></g></g><g><text xml:space="preserve" text-anchor="start" text-rendering="geometricPrecision"><tspan x="418.81" y="244.36" font-family="Arial" font-size="10" fill="rgb(0, 0, 0)">H</tspan></text></g><g id="ObjectTag"><g><text xml:space="preserve" text-anchor="start" text-rendering="geometricPrecision"><tspan x="394.46" y="222.44" font-family="Arial" font-style="italic" font-size="7.5" fill="rgb(0, 0, 0)">(S)</tspan></text></g></g><g><text xml:space="preserve" text-anchor="start" text-rendering="geometricPrecision"><tspan x="389.37" y="244.36" font-family="Arial" font-size="10" fill="rgb(0, 0, 0)">H</tspan></text></g><g id="ObjectTag"><g><text xml:space="preserve" text-anchor="start" text-rendering="geometricPrecision"><tspan x="366.07" y="222.44" font-family="Arial" font-style="italic" font-size="7.5" fill="rgb(0, 0, 0)">(R)</tspan></text></g></g><g><text xml:space="preserve" text-anchor="start" text-rendering="geometricPrecision"><tspan x="374.34" y="184.86" font-family="Arial" font-size="10" fill="rgb(0, 0, 0)">OH</tspan></text></g><g id="ObjectTag"><g><text xml:space="preserve" text-anchor="start" text-rendering="geometricPrecision"><tspan x="394.46" y="212.84" font-family="Arial" font-style="italic" font-size="7.5" fill="rgb(0, 0, 0)">(S)</tspan></text></g></g><g><text xml:space="preserve" text-anchor="start" text-rendering="geometricPrecision"><tspan x="389.07" y="193.36" font-family="Arial" font-size="10" fill="rgb(0, 0, 0)">OH</tspan></text></g><g><text xml:space="preserve" text-anchor="start" text-rendering="geometricPrecision"><tspan x="448.25" y="210.36" font-family="Arial" font-size="10" fill="rgb(0, 0, 0)">NH</tspan><tspan font-family="Arial" dy="2.26" font-size="7.5" fill="rgb(0, 0, 0)">2</tspan></text></g><g><text xml:space="preserve" text-anchor="start" text-rendering="geometricPrecision"><tspan x="433.23" y="184.86" font-family="Arial" font-size="10" fill="rgb(0, 0, 0)">O</tspan></text></g><g><text xml:space="preserve" text-anchor="start" text-rendering="geometricPrecision"><tspan x="433.23" y="235.86" font-family="Arial" font-size="10" fill="rgb(0, 0, 0)">OH</tspan></text></g><g><text xml:space="preserve" text-anchor="start" text-rendering="geometricPrecision"><tspan x="403.79" y="184.86" font-family="Arial" font-size="10" fill="rgb(0, 0, 0)">O</tspan></text></g><g><text xml:space="preserve" text-anchor="start" text-rendering="geometricPrecision"><tspan x="359.92" y="244.36" font-family="Arial" font-size="10" fill="rgb(0, 0, 0)">H</tspan></text></g><g><text xml:space="preserve" text-anchor="start" text-rendering="geometricPrecision"><tspan x="317.95" y="252.86" font-family="Arial" font-size="10" fill="rgb(0, 0, 0)">I</tspan></text></g><g><text xml:space="preserve" text-anchor="start" text-rendering="geometricPrecision"><tspan x="315.45" y="184.86" font-family="Arial" font-size="10" fill="rgb(0, 0, 0)">OH</tspan></text></g><g><text xml:space="preserve" text-anchor="start" text-rendering="geometricPrecision"><tspan x="344.9" y="184.86" font-family="Arial" font-size="10" fill="rgb(0, 0, 0)">O</tspan></text></g><g id="Solid"><path d="M393.22 257.89 L393.22 257.89 L392.97 257.46 L392.72 257.03 L403.26 250.94 L403.51 251.37 L403.76 251.8 Z" stroke="rgb(0, 0, 0)" stroke-width="0" fill-rule="evenodd" stroke-linejoin="miter" fill="rgb(0, 0, 0)" shape-rendering="geometricPrecision" /></g><g id="Solid"><path d="M408.19 244.1 L408.19 244.1 L407.69 244.1 L407.19 244.1 L407.19 232.25 L407.69 231.96 L408.19 232.25 Z" stroke="rgb(0, 0, 0)" stroke-width="0" fill-rule="evenodd" stroke-linejoin="miter" fill="rgb(0, 0, 0)" shape-rendering="geometricPrecision" /></g><g id="Wedged Hash Begin Bond"><path d="M407.44 232.39 L407.44 232.39 L407.94 231.53 L408.85 231.96 L408.27 232.96 Z" stroke="rgb(0, 0, 0)" stroke-width="0" fill-rule="evenodd" stroke-linejoin="miter" fill="rgb(0, 0, 0)" shape-rendering="geometricPrecision" /><path d="M409.76 234 L409.76 234 L410.49 232.74 L411.4 233.17 L410.59 234.57 Z" stroke="rgb(0, 0, 0)" stroke-width="0" fill-rule="evenodd" stroke-linejoin="miter" fill="rgb(0, 0, 0)" shape-rendering="geometricPrecision" /><path d="M412.09 235.61 L412.09 235.61 L413.05 233.95 L413.96 234.38 L412.91 236.18 Z" stroke="rgb(0, 0, 0)" stroke-width="0" fill-rule="evenodd" stroke-linejoin="miter" fill="rgb(0, 0, 0)" shape-rendering="geometricPrecision" /><path d="M414.41 237.22 L414.41 237.22 L415.6 235.16 L416.51 235.59 L415.24 237.79 Z" stroke="rgb(0, 0, 0)" stroke-width="0" fill-rule="evenodd" stroke-linejoin="miter" fill="rgb(0, 0, 0)" shape-rendering="geometricPrecision" /><path d="M416.74 238.82 L416.74 238.82 L418.16 236.37 L419.06 236.8 L417.56 239.39 Z" stroke="rgb(0, 0, 0)" stroke-width="0" fill-rule="evenodd" stroke-linejoin="miter" fill="rgb(0, 0, 0)" shape-rendering="geometricPrecision" /></g><g id="Solid"><path d="M407.69 231.38 L407.69 231.38 L407.69 231.96 L407.19 232.25 L393.52 224.36 L392.97 223.46 L393.47 223.17 Z" stroke="rgb(0, 0, 0)" stroke-width="0" fill-rule="evenodd" stroke-linejoin="miter" fill="rgb(0, 0, 0)" shape-rendering="geometricPrecision" /></g><g id="WedgeBegin"><path d="M392.42 224.36 L392.42 224.36 L392.97 223.46 L393.52 224.36 L394.47 235.6 L392.97 235.6 L391.47 235.6 Z" stroke="rgb(0, 0, 0)" stroke-width="0" fill-rule="evenodd" stroke-linejoin="miter" fill="rgb(0, 0, 0)" shape-rendering="geometricPrecision" /></g><g id="Solid"><path d="M392.47 223.17 L392.47 223.17 L392.97 223.46 L392.42 224.36 L378.24 232.54 L378.24 231.96 L378.24 231.38 Z" stroke="rgb(0, 0, 0)" stroke-width="0" fill-rule="evenodd" stroke-linejoin="miter" fill="rgb(0, 0, 0)" shape-rendering="geometricPrecision" /></g><g id="Solid"><path d="M378.24 231.38 L378.24 231.38 L378.24 231.96 L378.24 232.54 L364.07 224.36 L363.52 223.46 L364.02 223.17 Z" stroke="rgb(0, 0, 0)" stroke-width="0" fill-rule="evenodd" stroke-linejoin="miter" fill="rgb(0, 0, 0)" shape-rendering="geometricPrecision" /></g><g id="Solid"><path d="M364.02 223.17 L364.02 223.17 L363.52 223.46 L363.02 223.17 L363.02 206.75 L363.52 206.46 L364.02 206.75 Z" stroke="rgb(0, 0, 0)" stroke-width="0" fill-rule="evenodd" stroke-linejoin="miter" fill="rgb(0, 0, 0)" shape-rendering="geometricPrecision" /></g><g id="Solid"><path d="M364.02 206.75 L364.02 206.75 L363.52 206.46 L363.52 205.88 L377.74 197.67 L378.24 197.96 L378.24 198.54 Z" stroke="rgb(0, 0, 0)" stroke-width="0" fill-rule="evenodd" stroke-linejoin="miter" fill="rgb(0, 0, 0)" shape-rendering="geometricPrecision" /><line x1="363.52" y1="202.93" x2="375.18" y2="196.19" stroke="rgb(0, 0, 0)" stroke-width="1" shape-rendering="auto" /></g><g id="ObjectTag"><g><text xml:space="preserve" text-anchor="start" text-rendering="geometricPrecision"><tspan x="361.53" y="197.14" font-family="Arial" font-size="7" fill="rgb(0, 0, 0)">(Z)</tspan></text></g></g><g id="Solid"><path d="M378.74 197.67 L378.74 197.67 L378.24 197.96 L377.74 197.67 L377.74 186.6 L378.24 186.6 L378.74 186.6 Z" stroke="rgb(0, 0, 0)" stroke-width="0" fill-rule="evenodd" stroke-linejoin="miter" fill="rgb(0, 0, 0)" shape-rendering="geometricPrecision" /></g><g id="Solid"><path d="M378.24 198.54 L378.24 198.54 L378.24 197.96 L378.74 197.67 L392.42 205.56 L392.97 206.46 L392.47 206.75 Z" stroke="rgb(0, 0, 0)" stroke-width="0" fill-rule="evenodd" stroke-linejoin="miter" fill="rgb(0, 0, 0)" shape-rendering="geometricPrecision" /></g><g id="Solid"><path d="M393.47 223.17 L393.47 223.17 L392.97 223.46 L392.47 223.17 L392.47 206.75 L392.97 206.46 L393.47 206.75 Z" stroke="rgb(0, 0, 0)" stroke-width="0" fill-rule="evenodd" stroke-linejoin="miter" fill="rgb(0, 0, 0)" shape-rendering="geometricPrecision" /></g><g id="WedgeBegin"><path d="M393.52 205.56 L393.52 205.56 L392.97 206.46 L392.42 205.56 L391.47 195.1 L392.97 195.1 L394.47 195.1 Z" stroke="rgb(0, 0, 0)" stroke-width="0" fill-rule="evenodd" stroke-linejoin="miter" fill="rgb(0, 0, 0)" shape-rendering="geometricPrecision" /></g><g id="Solid"><path d="M393.47 206.75 L393.47 206.75 L392.97 206.46 L393.52 205.56 L407.69 197.38 L407.69 197.96 L407.69 198.54 Z" stroke="rgb(0, 0, 0)" stroke-width="0" fill-rule="evenodd" stroke-linejoin="miter" fill="rgb(0, 0, 0)" shape-rendering="geometricPrecision" /></g><g id="Solid"><path d="M407.69 198.54 L407.69 198.54 L407.69 197.96 L407.69 197.38 L422.41 205.88 L422.41 206.46 L421.91 206.75 Z" stroke="rgb(0, 0, 0)" stroke-width="0" fill-rule="evenodd" stroke-linejoin="miter" fill="rgb(0, 0, 0)" shape-rendering="geometricPrecision" /></g><g id="Solid"><path d="M422.91 206.75 L422.91 206.75 L422.41 206.46 L422.41 205.88 L437.13 197.38 L437.13 197.96 L437.13 198.54 Z" stroke="rgb(0, 0, 0)" stroke-width="0" fill-rule="evenodd" stroke-linejoin="miter" fill="rgb(0, 0, 0)" shape-rendering="geometricPrecision" /></g><g id="Solid"><path d="M437.13 198.54 L437.13 198.54 L437.13 197.96 L437.13 197.38 L447.96 203.64 L447.71 204.07 L447.46 204.5 Z" stroke="rgb(0, 0, 0)" stroke-width="0" fill-rule="evenodd" stroke-linejoin="miter" fill="rgb(0, 0, 0)" shape-rendering="geometricPrecision" /></g><g id="Solid"><line x1="435.6" y1="197.96" x2="435.6" y2="186.6" stroke="rgb(0, 0, 0)" stroke-width="1" shape-rendering="auto" /><path d="M438.16 197.98 L438.16 197.98 L439.16 198.55 L439.16 186.6 L438.16 186.6 Z" stroke="rgb(0, 0, 0)" stroke-width="0" fill-rule="evenodd" stroke-linejoin="miter" fill="rgb(0, 0, 0)" shape-rendering="geometricPrecision" /><path d="M435.1 198.55 L435.1 198.55 L436.1 197.98 L436.1 186.6 L435.1 186.6 Z" stroke="rgb(0, 0, 0)" stroke-width="0" fill-rule="evenodd" stroke-linejoin="miter" fill="rgb(0, 0, 0)" shape-rendering="geometricPrecision" /></g><g id="Solid"><path d="M421.91 206.75 L421.91 206.75 L422.41 206.46 L422.91 206.75 L422.91 223.17 L422.41 223.46 L421.91 223.17 Z" stroke="rgb(0, 0, 0)" stroke-width="0" fill-rule="evenodd" stroke-linejoin="miter" fill="rgb(0, 0, 0)" shape-rendering="geometricPrecision" /><line x1="419.35" y1="208.23" x2="419.35" y2="221.69" stroke="rgb(0, 0, 0)" stroke-width="1" shape-rendering="auto" /></g><g id="ObjectTag"><g><text xml:space="preserve" text-anchor="start" text-rendering="geometricPrecision"><tspan x="426.16" y="217.64" font-family="Arial" font-size="7.5" fill="rgb(0, 0, 0)">(Z)</tspan></text></g></g><g id="Solid"><path d="M408.19 232.25 L408.19 232.25 L407.69 231.96 L407.69 231.38 L421.91 223.17 L422.41 223.46 L422.41 224.04 Z" stroke="rgb(0, 0, 0)" stroke-width="0" fill-rule="evenodd" stroke-linejoin="miter" fill="rgb(0, 0, 0)" shape-rendering="geometricPrecision" /></g><g id="Solid"><path d="M422.41 224.04 L422.41 224.04 L422.41 223.46 L422.91 223.17 L432.86 228.92 L432.61 229.35 L432.36 229.79 Z" stroke="rgb(0, 0, 0)" stroke-width="0" fill-rule="evenodd" stroke-linejoin="miter" fill="rgb(0, 0, 0)" shape-rendering="geometricPrecision" /></g><g id="Solid"><line x1="406.16" y1="197.96" x2="406.16" y2="186.6" stroke="rgb(0, 0, 0)" stroke-width="1" shape-rendering="auto" /><path d="M408.72 197.98 L408.72 197.98 L409.72 198.55 L409.72 186.6 L408.72 186.6 Z" stroke="rgb(0, 0, 0)" stroke-width="0" fill-rule="evenodd" stroke-linejoin="miter" fill="rgb(0, 0, 0)" shape-rendering="geometricPrecision" /><path d="M405.66 198.55 L405.66 198.55 L406.66 197.98 L406.66 186.6 L405.66 186.6 Z" stroke="rgb(0, 0, 0)" stroke-width="0" fill-rule="evenodd" stroke-linejoin="miter" fill="rgb(0, 0, 0)" shape-rendering="geometricPrecision" /></g><g id="WedgeBegin"><path d="M362.97 224.36 L362.97 224.36 L363.52 223.46 L364.07 224.36 L365.02 235.6 L363.52 235.6 L362.02 235.6 Z" stroke="rgb(0, 0, 0)" stroke-width="0" fill-rule="evenodd" stroke-linejoin="miter" fill="rgb(0, 0, 0)" shape-rendering="geometricPrecision" /></g><g id="Solid"><path d="M363.02 223.17 L363.02 223.17 L363.52 223.46 L362.97 224.36 L348.8 232.54 L348.8 231.96 L348.8 231.38 Z" stroke="rgb(0, 0, 0)" stroke-width="0" fill-rule="evenodd" stroke-linejoin="miter" fill="rgb(0, 0, 0)" shape-rendering="geometricPrecision" /></g><g id="Solid"><path d="M348.8 231.38 L348.8 231.38 L348.8 231.96 L348.8 232.54 L334.08 224.04 L334.08 223.46 L334.58 223.17 Z" stroke="rgb(0, 0, 0)" stroke-width="0" fill-rule="evenodd" stroke-linejoin="miter" fill="rgb(0, 0, 0)" shape-rendering="geometricPrecision" /></g><g id="Solid"><path d="M333.58 223.17 L333.58 223.17 L334.08 223.46 L334.08 224.04 L319.85 232.25 L319.35 231.96 L319.35 231.38 Z" stroke="rgb(0, 0, 0)" stroke-width="0" fill-rule="evenodd" stroke-linejoin="miter" fill="rgb(0, 0, 0)" shape-rendering="geometricPrecision" /><line x1="331.02" y1="221.69" x2="319.35" y2="228.43" stroke="rgb(0, 0, 0)" stroke-width="1" shape-rendering="auto" /></g><g id="Solid"><path d="M318.85 232.25 L318.85 232.25 L319.35 231.96 L319.85 232.25 L319.85 244.1 L319.35 244.1 L318.85 244.1 Z" stroke="rgb(0, 0, 0)" stroke-width="0" fill-rule="evenodd" stroke-linejoin="miter" fill="rgb(0, 0, 0)" shape-rendering="geometricPrecision" /></g><g id="Solid"><path d="M319.35 231.38 L319.35 231.38 L319.35 231.96 L318.85 232.25 L304.13 223.75 L304.63 223.46 L305.13 223.17 Z" stroke="rgb(0, 0, 0)" stroke-width="0" fill-rule="evenodd" stroke-linejoin="miter" fill="rgb(0, 0, 0)" shape-rendering="geometricPrecision" /></g><g id="Solid"><path d="M305.13 223.17 L305.13 223.17 L304.63 223.46 L304.13 223.75 L304.13 206.17 L304.63 206.46 L305.13 206.75 Z" stroke="rgb(0, 0, 0)" stroke-width="0" fill-rule="evenodd" stroke-linejoin="miter" fill="rgb(0, 0, 0)" shape-rendering="geometricPrecision" /><line x1="307.69" y1="221.69" x2="307.69" y2="208.23" stroke="rgb(0, 0, 0)" stroke-width="1" shape-rendering="auto" /></g><g id="Solid"><path d="M305.13 206.75 L305.13 206.75 L304.63 206.46 L304.13 206.17 L318.85 197.67 L319.35 197.96 L319.35 198.54 Z" stroke="rgb(0, 0, 0)" stroke-width="0" fill-rule="evenodd" stroke-linejoin="miter" fill="rgb(0, 0, 0)" shape-rendering="geometricPrecision" /></g><g id="Solid"><path d="M319.85 197.67 L319.85 197.67 L319.35 197.96 L318.85 197.67 L318.85 186.6 L319.35 186.6 L319.85 186.6 Z" stroke="rgb(0, 0, 0)" stroke-width="0" fill-rule="evenodd" stroke-linejoin="miter" fill="rgb(0, 0, 0)" shape-rendering="geometricPrecision" /></g><g id="Solid"><path d="M319.35 198.54 L319.35 198.54 L319.35 197.96 L319.85 197.67 L334.08 205.88 L334.08 206.46 L333.58 206.75 Z" stroke="rgb(0, 0, 0)" stroke-width="0" fill-rule="evenodd" stroke-linejoin="miter" fill="rgb(0, 0, 0)" shape-rendering="geometricPrecision" /><line x1="319.35" y1="201.49" x2="331.02" y2="208.23" stroke="rgb(0, 0, 0)" stroke-width="1" shape-rendering="auto" /></g><g id="Solid"><path d="M334.58 223.17 L334.58 223.17 L334.08 223.46 L333.58 223.17 L333.58 206.75 L334.08 206.46 L334.58 206.75 Z" stroke="rgb(0, 0, 0)" stroke-width="0" fill-rule="evenodd" stroke-linejoin="miter" fill="rgb(0, 0, 0)" shape-rendering="geometricPrecision" /></g><g id="Solid"><path d="M334.58 206.75 L334.58 206.75 L334.08 206.46 L334.08 205.88 L348.8 197.38 L348.8 197.96 L348.8 198.54 Z" stroke="rgb(0, 0, 0)" stroke-width="0" fill-rule="evenodd" stroke-linejoin="miter" fill="rgb(0, 0, 0)" shape-rendering="geometricPrecision" /></g><g id="Solid"><path d="M363.52 205.88 L363.52 205.88 L363.52 206.46 L363.02 206.75 L348.8 198.54 L348.8 197.96 L348.8 197.38 Z" stroke="rgb(0, 0, 0)" stroke-width="0" fill-rule="evenodd" stroke-linejoin="miter" fill="rgb(0, 0, 0)" shape-rendering="geometricPrecision" /></g><g id="Solid"><line x1="347.27" y1="197.96" x2="347.27" y2="186.6" stroke="rgb(0, 0, 0)" stroke-width="1" shape-rendering="auto" /><path d="M349.83 197.98 L349.83 197.98 L350.83 198.55 L350.83 186.6 L349.83 186.6 Z" stroke="rgb(0, 0, 0)" stroke-width="0" fill-rule="evenodd" stroke-linejoin="miter" fill="rgb(0, 0, 0)" shape-rendering="geometricPrecision" /><path d="M346.77 198.55 L346.77 198.55 L347.77 197.98 L347.77 186.6 L346.77 186.6 Z" stroke="rgb(0, 0, 0)" stroke-width="0" fill-rule="evenodd" stroke-linejoin="miter" fill="rgb(0, 0, 0)" shape-rendering="geometricPrecision" /></g><g id="Solid"><path d="M411.64 251.82 L411.64 251.82 L411.89 251.38 L412.14 250.95 L422.66 257.03 L422.41 257.46 L422.16 257.89 Z" stroke="rgb(0, 0, 0)" stroke-width="0" fill-rule="evenodd" stroke-linejoin="miter" fill="rgb(0, 0, 0)" shape-rendering="geometricPrecision" /></g></g></g></svg>