<?xml version="1.0" encoding="UTF-8" standalone="no"?>
<svg
xmlns="http://www.w3.org/2000/svg"
version="1.0"
width="1600" height="1600"
id="8-cube_t1347_A5.svg">
<g style="stroke:#000000;stroke-width:5.6;stroke-opacity:0.50;">
</g>
<g style="stroke:#000000;stroke-width:2.8;fill:#ff0000">
<circle cx="1525.725" cy="963.956" r="16.8"/>
<circle cx="74.275" cy="636.044" r="16.8"/>
<circle cx="1525.725" cy="636.044" r="16.8"/>
<circle cx="74.275" cy="963.956" r="16.8"/>
<circle cx="295.148" cy="253.481" r="16.8"/>
<circle cx="1304.852" cy="1346.519" r="16.8"/>
<circle cx="1304.852" cy="253.481" r="16.8"/>
<circle cx="295.148" cy="1346.519" r="16.8"/>
<circle cx="579.127" cy="89.526" r="16.8"/>
<circle cx="1020.873" cy="1510.474" r="16.8"/>
<circle cx="1020.873" cy="89.526" r="16.8"/>
<circle cx="579.127" cy="1510.474" r="16.8"/>
</g>
<g style="stroke:#000000;stroke-width:2.8;fill:#ff7f00">
<circle cx="1525.725" cy="854.652" r="16.8"/>
<circle cx="74.275" cy="745.348" r="16.8"/>
<circle cx="1525.725" cy="745.348" r="16.8"/>
<circle cx="74.275" cy="854.652" r="16.8"/>
<circle cx="389.807" cy="198.829" r="16.8"/>
<circle cx="1210.193" cy="1401.171" r="16.8"/>
<circle cx="484.467" cy="144.178" r="16.8"/>
<circle cx="1115.533" cy="1455.822" r="16.8"/>
<circle cx="1210.193" cy="198.829" r="16.8"/>
<circle cx="389.807" cy="1401.171" r="16.8"/>
<circle cx="1115.533" cy="144.178" r="16.8"/>
<circle cx="484.467" cy="1455.822" r="16.8"/>
</g>
<g style="stroke:#000000;stroke-width:2.8;fill:#ffff00">
<circle cx="263.594" cy="308.133" r="16.8"/>
<circle cx="1336.406" cy="1291.867" r="16.8"/>
<circle cx="105.828" cy="581.393" r="16.8"/>
<circle cx="1494.172" cy="1018.607" r="16.8"/>
<circle cx="1336.406" cy="308.133" r="16.8"/>
<circle cx="263.594" cy="1291.867" r="16.8"/>
<circle cx="1494.172" cy="581.393" r="16.8"/>
<circle cx="105.828" cy="1018.607" r="16.8"/>
<circle cx="957.766" cy="89.526" r="16.8"/>
<circle cx="642.234" cy="1510.474" r="16.8"/>
<circle cx="642.234" cy="89.526" r="16.8"/>
<circle cx="957.766" cy="1510.474" r="16.8"/>
</g>
<g style="stroke:#000000;stroke-width:2.8;fill:#00ff00">
<circle cx="105.828" cy="690.696" r="16.8"/>
<circle cx="1494.172" cy="909.304" r="16.8"/>
<circle cx="1494.172" cy="800.000" r="16.8"/>
<circle cx="105.828" cy="800.000" r="16.8"/>
<circle cx="1494.172" cy="690.696" r="16.8"/>
<circle cx="105.828" cy="909.304" r="16.8"/>
<circle cx="358.254" cy="253.481" r="16.8"/>
<circle cx="1241.746" cy="1346.519" r="16.8"/>
<circle cx="1241.746" cy="253.481" r="16.8"/>
<circle cx="358.254" cy="1346.519" r="16.8"/>
<circle cx="452.914" cy="198.829" r="16.8"/>
<circle cx="1147.086" cy="1401.171" r="16.8"/>
<circle cx="1147.086" cy="198.829" r="16.8"/>
<circle cx="452.914" cy="1401.171" r="16.8"/>
<circle cx="1399.512" cy="1182.563" r="16.8"/>
<circle cx="200.488" cy="417.437" r="16.8"/>
<circle cx="168.935" cy="472.089" r="16.8"/>
<circle cx="1431.065" cy="1127.911" r="16.8"/>
<circle cx="1399.512" cy="417.437" r="16.8"/>
<circle cx="200.488" cy="1182.563" r="16.8"/>
<circle cx="1431.065" cy="472.089" r="16.8"/>
<circle cx="168.935" cy="1127.911" r="16.8"/>
<circle cx="547.574" cy="144.178" r="16.8"/>
<circle cx="1052.426" cy="144.178" r="16.8"/>
<circle cx="547.574" cy="1455.822" r="16.8"/>
<circle cx="1052.426" cy="1455.822" r="16.8"/>
<circle cx="831.553" cy="89.526" r="16.8"/>
<circle cx="768.447" cy="1510.474" r="16.8"/>
<circle cx="768.447" cy="89.526" r="16.8"/>
<circle cx="831.553" cy="1510.474" r="16.8"/>
</g>
<g style="stroke:#000000;stroke-width:2.8;fill:#00ffff">
<circle cx="137.381" cy="526.741" r="16.8"/>
<circle cx="1462.619" cy="1073.259" r="16.8"/>
<circle cx="232.041" cy="362.785" r="16.8"/>
<circle cx="1367.959" cy="1237.215" r="16.8"/>
<circle cx="1462.619" cy="526.741" r="16.8"/>
<circle cx="137.381" cy="1073.259" r="16.8"/>
<circle cx="1367.959" cy="362.785" r="16.8"/>
<circle cx="232.041" cy="1237.215" r="16.8"/>
<circle cx="705.340" cy="89.526" r="16.8"/>
<circle cx="894.660" cy="1510.474" r="16.8"/>
<circle cx="894.660" cy="89.526" r="16.8"/>
<circle cx="705.340" cy="1510.474" r="16.8"/>
</g>
<g style="stroke:#000000;stroke-width:2.8;fill:#0000ff">
<circle cx="137.381" cy="636.044" r="16.8"/>
<circle cx="326.701" cy="308.133" r="16.8"/>
<circle cx="1273.299" cy="1291.867" r="16.8"/>
<circle cx="1462.619" cy="963.956" r="16.8"/>
<circle cx="1462.619" cy="636.044" r="16.8"/>
<circle cx="1273.299" cy="308.133" r="16.8"/>
<circle cx="326.701" cy="1291.867" r="16.8"/>
<circle cx="137.381" cy="963.956" r="16.8"/>
<circle cx="989.320" cy="144.178" r="16.8"/>
<circle cx="610.680" cy="144.178" r="16.8"/>
<circle cx="989.320" cy="1455.822" r="16.8"/>
<circle cx="610.680" cy="1455.822" r="16.8"/>
</g>
<g style="stroke:#000000;stroke-width:2.8;fill:#7f00ff">
<circle cx="1336.406" cy="1182.563" r="16.8"/>
<circle cx="263.594" cy="417.437" r="16.8"/>
<circle cx="295.148" cy="362.785" r="16.8"/>
<circle cx="1304.852" cy="1237.215" r="16.8"/>
<circle cx="1336.406" cy="417.437" r="16.8"/>
<circle cx="263.594" cy="1182.563" r="16.8"/>
<circle cx="1304.852" cy="362.785" r="16.8"/>
<circle cx="295.148" cy="1237.215" r="16.8"/>
<circle cx="168.935" cy="581.393" r="16.8"/>
<circle cx="1431.065" cy="1018.607" r="16.8"/>
<circle cx="1431.065" cy="581.393" r="16.8"/>
<circle cx="168.935" cy="1018.607" r="16.8"/>
<circle cx="200.488" cy="526.741" r="16.8"/>
<circle cx="1399.512" cy="1073.259" r="16.8"/>
<circle cx="1399.512" cy="526.741" r="16.8"/>
<circle cx="200.488" cy="1073.259" r="16.8"/>
<circle cx="863.107" cy="144.178" r="16.8"/>
<circle cx="736.893" cy="1455.822" r="16.8"/>
<circle cx="926.213" cy="144.178" r="16.8"/>
<circle cx="673.787" cy="144.178" r="16.8"/>
<circle cx="926.213" cy="1455.822" r="16.8"/>
<circle cx="673.787" cy="1455.822" r="16.8"/>
<circle cx="736.893" cy="144.178" r="16.8"/>
<circle cx="863.107" cy="1455.822" r="16.8"/>
</g>
<g style="stroke:#000000;stroke-width:2.8;fill:#ff00ff">
<circle cx="137.381" cy="745.348" r="16.8"/>
<circle cx="1462.619" cy="854.652" r="16.8"/>
<circle cx="1462.619" cy="745.348" r="16.8"/>
<circle cx="137.381" cy="854.652" r="16.8"/>
<circle cx="1083.979" cy="198.829" r="16.8"/>
<circle cx="516.021" cy="1401.171" r="16.8"/>
<circle cx="421.361" cy="253.481" r="16.8"/>
<circle cx="1178.639" cy="1346.519" r="16.8"/>
<circle cx="516.021" cy="198.829" r="16.8"/>
<circle cx="1083.979" cy="1401.171" r="16.8"/>
<circle cx="1178.639" cy="253.481" r="16.8"/>
<circle cx="421.361" cy="1346.519" r="16.8"/>
<circle cx="232.041" cy="472.089" r="16.8"/>
<circle cx="1367.959" cy="1127.911" r="16.8"/>
<circle cx="1367.959" cy="472.089" r="16.8"/>
<circle cx="232.041" cy="1127.911" r="16.8"/>
<circle cx="800.000" cy="144.178" r="16.8"/>
<circle cx="800.000" cy="1455.822" r="16.8"/>
</g>
<g style="stroke:#000000;stroke-width:2.8;fill:#ff007f">
<circle cx="1210.193" cy="308.133" r="16.8"/>
<circle cx="389.807" cy="1291.867" r="16.8"/>
<circle cx="389.807" cy="308.133" r="16.8"/>
<circle cx="1210.193" cy="1291.867" r="16.8"/>
<circle cx="168.935" cy="690.696" r="16.8"/>
<circle cx="1431.065" cy="690.696" r="16.8"/>
<circle cx="168.935" cy="909.304" r="16.8"/>
<circle cx="1431.065" cy="909.304" r="16.8"/>
<circle cx="579.127" cy="198.829" r="16.8"/>
<circle cx="1020.873" cy="1401.171" r="16.8"/>
<circle cx="1020.873" cy="198.829" r="16.8"/>
<circle cx="579.127" cy="1401.171" r="16.8"/>
</g>
<g style="stroke:#000000;stroke-width:2.8;fill:#ff0000">
<circle cx="326.701" cy="417.437" r="16.8"/>
<circle cx="1273.299" cy="1182.563" r="16.8"/>
<circle cx="1273.299" cy="417.437" r="16.8"/>
<circle cx="326.701" cy="1182.563" r="16.8"/>
<circle cx="232.041" cy="581.393" r="16.8"/>
<circle cx="1367.959" cy="1018.607" r="16.8"/>
<circle cx="1367.959" cy="581.393" r="16.8"/>
<circle cx="232.041" cy="1018.607" r="16.8"/>
<circle cx="894.660" cy="198.829" r="16.8"/>
<circle cx="705.340" cy="1401.171" r="16.8"/>
<circle cx="705.340" cy="198.829" r="16.8"/>
<circle cx="894.660" cy="1401.171" r="16.8"/>
</g>
<g style="stroke:#000000;stroke-width:2.8;fill:#ff7f00">
<circle cx="1115.533" cy="253.481" r="16.8"/>
<circle cx="484.467" cy="1346.519" r="16.8"/>
<circle cx="484.467" cy="253.481" r="16.8"/>
<circle cx="1115.533" cy="1346.519" r="16.8"/>
<circle cx="1431.065" cy="800.000" r="16.8"/>
<circle cx="168.935" cy="800.000" r="16.8"/>
</g>
<g style="stroke:#000000;stroke-width:2.8;fill:#ffff00">
<circle cx="1399.512" cy="636.044" r="16.8"/>
<circle cx="200.488" cy="963.956" r="16.8"/>
<circle cx="200.488" cy="636.044" r="16.8"/>
<circle cx="1399.512" cy="963.956" r="16.8"/>
<circle cx="358.254" cy="362.785" r="16.8"/>
<circle cx="1241.746" cy="362.785" r="16.8"/>
<circle cx="358.254" cy="1237.215" r="16.8"/>
<circle cx="1241.746" cy="1237.215" r="16.8"/>
<circle cx="957.766" cy="198.829" r="16.8"/>
<circle cx="642.234" cy="1401.171" r="16.8"/>
<circle cx="642.234" cy="198.829" r="16.8"/>
<circle cx="957.766" cy="1401.171" r="16.8"/>
</g>
<g style="stroke:#000000;stroke-width:2.8;fill:#00ff00">
<circle cx="1336.406" cy="526.741" r="16.8"/>
<circle cx="263.594" cy="1073.259" r="16.8"/>
<circle cx="1336.406" cy="1073.259" r="16.8"/>
<circle cx="263.594" cy="526.741" r="16.8"/>
<circle cx="1304.852" cy="1127.911" r="16.8"/>
<circle cx="1304.852" cy="472.089" r="16.8"/>
<circle cx="295.148" cy="1127.911" r="16.8"/>
<circle cx="295.148" cy="472.089" r="16.8"/>
<circle cx="768.447" cy="198.829" r="16.8"/>
<circle cx="831.553" cy="1401.171" r="16.8"/>
<circle cx="831.553" cy="198.829" r="16.8"/>
<circle cx="768.447" cy="1401.171" r="16.8"/>
</g>
<g style="stroke:#000000;stroke-width:2.8;fill:#00ffff">
<circle cx="1399.512" cy="745.348" r="16.8"/>
<circle cx="200.488" cy="854.652" r="16.8"/>
<circle cx="200.488" cy="745.348" r="16.8"/>
<circle cx="1399.512" cy="854.652" r="16.8"/>
<circle cx="1052.426" cy="253.481" r="16.8"/>
<circle cx="547.574" cy="253.481" r="16.8"/>
<circle cx="1052.426" cy="1346.519" r="16.8"/>
<circle cx="547.574" cy="1346.519" r="16.8"/>
<circle cx="452.914" cy="308.133" r="16.8"/>
<circle cx="1147.086" cy="1291.867" r="16.8"/>
<circle cx="1147.086" cy="308.133" r="16.8"/>
<circle cx="452.914" cy="1291.867" r="16.8"/>
</g>
<g style="stroke:#000000;stroke-width:2.8;fill:#0000ff">
<circle cx="295.148" cy="1018.607" r="16.8"/>
<circle cx="1367.959" cy="690.696" r="16.8"/>
<circle cx="1178.639" cy="362.785" r="16.8"/>
<circle cx="421.361" cy="1237.215" r="16.8"/>
<circle cx="232.041" cy="909.304" r="16.8"/>
<circle cx="1304.852" cy="581.393" r="16.8"/>
<circle cx="1210.193" cy="417.437" r="16.8"/>
<circle cx="389.808" cy="1182.563" r="16.8"/>
<circle cx="232.041" cy="690.696" r="16.8"/>
<circle cx="421.361" cy="362.785" r="16.8"/>
<circle cx="1304.852" cy="1018.607" r="16.8"/>
<circle cx="295.148" cy="581.393" r="16.8"/>
<circle cx="1178.639" cy="1237.215" r="16.8"/>
<circle cx="1367.959" cy="909.304" r="16.8"/>
<circle cx="389.808" cy="417.437" r="16.8"/>
<circle cx="1210.193" cy="1182.563" r="16.8"/>
<circle cx="863.107" cy="253.481" r="16.8"/>
<circle cx="610.680" cy="253.481" r="16.8"/>
<circle cx="989.320" cy="1346.519" r="16.8"/>
<circle cx="736.893" cy="1346.519" r="16.8"/>
<circle cx="989.320" cy="253.481" r="16.8"/>
<circle cx="736.893" cy="253.481" r="16.8"/>
<circle cx="863.107" cy="1346.519" r="16.8"/>
<circle cx="610.680" cy="1346.519" r="16.8"/>
<circle cx="1241.746" cy="1127.911" r="16.8"/>
<circle cx="1241.746" cy="472.089" r="16.8"/>
<circle cx="358.254" cy="1127.911" r="16.8"/>
<circle cx="358.254" cy="472.089" r="16.8"/>
<circle cx="926.213" cy="253.481" r="16.8"/>
<circle cx="673.787" cy="1346.519" r="16.8"/>
<circle cx="263.594" cy="636.044" r="16.8"/>
<circle cx="1336.406" cy="963.956" r="16.8"/>
<circle cx="673.787" cy="253.481" r="16.8"/>
<circle cx="926.213" cy="1346.519" r="16.8"/>
<circle cx="1336.406" cy="636.044" r="16.8"/>
<circle cx="263.594" cy="963.956" r="16.8"/>
</g>
<g style="stroke:#000000;stroke-width:2.8;fill:#7f00ff">
<circle cx="326.701" cy="1073.259" r="16.8"/>
<circle cx="1273.299" cy="526.741" r="16.8"/>
<circle cx="1273.299" cy="1073.259" r="16.8"/>
<circle cx="326.701" cy="526.741" r="16.8"/>
<circle cx="800.000" cy="253.481" r="16.8"/>
<circle cx="800.000" cy="1346.519" r="16.8"/>
</g>
<g style="stroke:#000000;stroke-width:2.8;fill:#ff00ff">
<circle cx="232.041" cy="800.000" r="16.8"/>
<circle cx="1367.959" cy="800.000" r="16.8"/>
<circle cx="1083.979" cy="308.133" r="16.8"/>
<circle cx="516.021" cy="1291.867" r="16.8"/>
<circle cx="516.021" cy="308.133" r="16.8"/>
<circle cx="1083.979" cy="1291.867" r="16.8"/>
</g>
<g style="stroke:#000000;stroke-width:2.8;fill:#ff007f">
<circle cx="452.914" cy="1182.563" r="16.8"/>
<circle cx="1147.086" cy="417.437" r="16.8"/>
<circle cx="452.914" cy="417.437" r="16.8"/>
<circle cx="1147.086" cy="1182.563" r="16.8"/>
<circle cx="1304.852" cy="909.304" r="16.8"/>
<circle cx="295.148" cy="690.696" r="16.8"/>
<circle cx="957.766" cy="308.133" r="16.8"/>
<circle cx="642.234" cy="1291.867" r="16.8"/>
<circle cx="1304.852" cy="690.696" r="16.8"/>
<circle cx="295.148" cy="909.304" r="16.8"/>
<circle cx="642.234" cy="308.133" r="16.8"/>
<circle cx="957.766" cy="1291.867" r="16.8"/>
</g>
<g style="stroke:#000000;stroke-width:2.8;fill:#ff0000">
<circle cx="263.594" cy="854.652" r="16.8"/>
<circle cx="1336.406" cy="745.348" r="16.8"/>
<circle cx="263.594" cy="745.348" r="16.8"/>
<circle cx="1336.406" cy="854.652" r="16.8"/>
<circle cx="579.127" cy="308.133" r="16.8"/>
<circle cx="1020.873" cy="1291.867" r="16.8"/>
<circle cx="1020.873" cy="308.133" r="16.8"/>
<circle cx="579.127" cy="1291.867" r="16.8"/>
<circle cx="1115.533" cy="1237.215" r="16.8"/>
<circle cx="484.467" cy="362.785" r="16.8"/>
<circle cx="1115.533" cy="362.785" r="16.8"/>
<circle cx="484.467" cy="1237.215" r="16.8"/>
</g>
<g style="stroke:#000000;stroke-width:2.8;fill:#ff7f00">
<circle cx="326.701" cy="963.956" r="16.8"/>
<circle cx="705.340" cy="308.133" r="16.8"/>
<circle cx="894.660" cy="1291.867" r="16.8"/>
<circle cx="1273.299" cy="636.044" r="16.8"/>
<circle cx="894.660" cy="308.133" r="16.8"/>
<circle cx="1273.299" cy="963.956" r="16.8"/>
<circle cx="326.701" cy="636.044" r="16.8"/>
<circle cx="705.340" cy="1291.867" r="16.8"/>
<circle cx="421.361" cy="1127.911" r="16.8"/>
<circle cx="421.361" cy="472.089" r="16.8"/>
<circle cx="1178.639" cy="1127.911" r="16.8"/>
<circle cx="1178.639" cy="472.089" r="16.8"/>
</g>
<g style="stroke:#000000;stroke-width:2.8;fill:#ffff00">
<circle cx="610.680" cy="1237.215" r="16.8"/>
<circle cx="989.320" cy="362.785" r="16.8"/>
<circle cx="1083.979" cy="1182.563" r="16.8"/>
<circle cx="1273.299" cy="854.652" r="16.8"/>
<circle cx="326.701" cy="745.348" r="16.8"/>
<circle cx="516.021" cy="417.437" r="16.8"/>
<circle cx="610.680" cy="362.785" r="16.8"/>
<circle cx="989.320" cy="1237.215" r="16.8"/>
<circle cx="1273.299" cy="745.348" r="16.8"/>
<circle cx="1083.979" cy="417.437" r="16.8"/>
<circle cx="516.021" cy="1182.563" r="16.8"/>
<circle cx="326.701" cy="854.652" r="16.8"/>
</g>
<g style="stroke:#000000;stroke-width:2.8;fill:#00ff00">
<circle cx="831.553" cy="308.133" r="16.8"/>
<circle cx="768.447" cy="1291.867" r="16.8"/>
<circle cx="768.447" cy="308.133" r="16.8"/>
<circle cx="831.553" cy="1291.867" r="16.8"/>
<circle cx="358.254" cy="1018.607" r="16.8"/>
<circle cx="1241.746" cy="1018.607" r="16.8"/>
<circle cx="358.254" cy="581.393" r="16.8"/>
<circle cx="1241.746" cy="581.393" r="16.8"/>
<circle cx="1210.193" cy="1073.259" r="16.8"/>
<circle cx="389.808" cy="526.741" r="16.8"/>
<circle cx="389.808" cy="1073.259" r="16.8"/>
<circle cx="1210.193" cy="526.741" r="16.8"/>
</g>
<g style="stroke:#000000;stroke-width:2.8;fill:#00ffff">
<circle cx="579.127" cy="1182.563" r="16.8"/>
<circle cx="1020.873" cy="417.437" r="16.8"/>
<circle cx="579.127" cy="417.437" r="16.8"/>
<circle cx="1020.873" cy="1182.563" r="16.8"/>
<circle cx="1241.746" cy="800.000" r="16.8"/>
<circle cx="358.254" cy="800.000" r="16.8"/>
</g>
<g style="stroke:#000000;stroke-width:2.8;fill:#0000ff">
<circle cx="1052.426" cy="1237.215" r="16.8"/>
<circle cx="547.574" cy="1237.215" r="16.8"/>
<circle cx="1052.426" cy="362.785" r="16.8"/>
<circle cx="547.574" cy="362.785" r="16.8"/>
<circle cx="295.148" cy="800.000" r="16.8"/>
<circle cx="1304.852" cy="800.000" r="16.8"/>
</g>
<g style="stroke:#000000;stroke-width:2.8;fill:#7f00ff">
<circle cx="831.553" cy="1182.563" r="16.8"/>
<circle cx="768.447" cy="417.437" r="16.8"/>
<circle cx="831.553" cy="417.437" r="16.8"/>
<circle cx="768.447" cy="1182.563" r="16.8"/>
<circle cx="1115.533" cy="581.393" r="16.8"/>
<circle cx="484.467" cy="1018.607" r="16.8"/>
<circle cx="452.914" cy="963.956" r="16.8"/>
<circle cx="1147.086" cy="636.044" r="16.8"/>
<circle cx="484.467" cy="581.393" r="16.8"/>
<circle cx="1115.533" cy="1018.607" r="16.8"/>
<circle cx="1147.086" cy="963.956" r="16.8"/>
<circle cx="452.914" cy="636.044" r="16.8"/>
</g>
<g style="stroke:#000000;stroke-width:2.8;fill:#ff00ff">
<circle cx="800.000" cy="362.785" r="16.8"/>
<circle cx="1178.639" cy="1018.607" r="16.8"/>
<circle cx="673.787" cy="362.785" r="16.8"/>
<circle cx="926.213" cy="1237.215" r="16.8"/>
<circle cx="421.361" cy="581.393" r="16.8"/>
<circle cx="800.000" cy="1237.215" r="16.8"/>
<circle cx="421.361" cy="1018.607" r="16.8"/>
<circle cx="926.213" cy="362.785" r="16.8"/>
<circle cx="673.787" cy="1237.215" r="16.8"/>
<circle cx="1178.639" cy="581.393" r="16.8"/>
<circle cx="358.254" cy="909.304" r="16.8"/>
<circle cx="1241.746" cy="909.304" r="16.8"/>
<circle cx="358.254" cy="690.696" r="16.8"/>
<circle cx="1241.746" cy="690.696" r="16.8"/>
<circle cx="484.467" cy="1127.911" r="16.8"/>
<circle cx="484.467" cy="472.089" r="16.8"/>
<circle cx="1115.533" cy="1127.911" r="16.8"/>
<circle cx="1115.533" cy="472.089" r="16.8"/>
</g>
<g style="stroke:#000000;stroke-width:2.8;fill:#ff007f">
<circle cx="957.766" cy="1182.563" r="16.8"/>
<circle cx="642.234" cy="417.437" r="16.8"/>
<circle cx="957.766" cy="417.437" r="16.8"/>
<circle cx="642.234" cy="1182.563" r="16.8"/>
<circle cx="389.808" cy="854.652" r="16.8"/>
<circle cx="1210.193" cy="745.348" r="16.8"/>
<circle cx="389.808" cy="745.348" r="16.8"/>
<circle cx="1210.193" cy="854.652" r="16.8"/>
<circle cx="1052.426" cy="472.089" r="16.8"/>
<circle cx="547.574" cy="472.089" r="16.8"/>
<circle cx="1052.426" cy="1127.911" r="16.8"/>
<circle cx="547.574" cy="1127.911" r="16.8"/>
</g>
<g style="stroke:#000000;stroke-width:2.8;fill:#ff0000">
<circle cx="705.340" cy="417.437" r="16.8"/>
<circle cx="894.660" cy="1182.563" r="16.8"/>
<circle cx="894.660" cy="417.437" r="16.8"/>
<circle cx="705.340" cy="1182.563" r="16.8"/>
<circle cx="989.320" cy="1127.911" r="16.8"/>
<circle cx="1178.639" cy="800.000" r="16.8"/>
<circle cx="989.320" cy="472.089" r="16.8"/>
<circle cx="610.680" cy="1127.911" r="16.8"/>
<circle cx="421.361" cy="800.000" r="16.8"/>
<circle cx="610.680" cy="472.089" r="16.8"/>
<circle cx="421.361" cy="909.304" r="16.8"/>
<circle cx="1178.639" cy="690.696" r="16.8"/>
<circle cx="1083.979" cy="526.741" r="16.8"/>
<circle cx="516.021" cy="1073.259" r="16.8"/>
<circle cx="1178.639" cy="909.304" r="16.8"/>
<circle cx="421.361" cy="690.696" r="16.8"/>
<circle cx="1083.979" cy="1073.259" r="16.8"/>
<circle cx="516.021" cy="526.741" r="16.8"/>
</g>
<g style="stroke:#000000;stroke-width:2.8;fill:#ff7f00">
<circle cx="1210.193" cy="963.956" r="16.8"/>
<circle cx="452.914" cy="526.741" r="16.8"/>
<circle cx="1147.086" cy="1073.259" r="16.8"/>
<circle cx="389.807" cy="636.044" r="16.8"/>
<circle cx="389.807" cy="963.956" r="16.8"/>
<circle cx="452.914" cy="1073.259" r="16.8"/>
<circle cx="1147.086" cy="526.741" r="16.8"/>
<circle cx="1210.193" cy="636.044" r="16.8"/>
<circle cx="863.107" cy="362.785" r="16.8"/>
<circle cx="736.893" cy="362.785" r="16.8"/>
<circle cx="863.107" cy="1237.215" r="16.8"/>
<circle cx="736.893" cy="1237.215" r="16.8"/>
</g>
<g style="stroke:#000000;stroke-width:2.8;fill:#ffff00">
<circle cx="1147.086" cy="854.652" r="16.8"/>
<circle cx="452.914" cy="745.348" r="16.8"/>
<circle cx="1147.086" cy="745.348" r="16.8"/>
<circle cx="452.914" cy="854.652" r="16.8"/>
<circle cx="926.213" cy="1127.911" r="16.8"/>
<circle cx="926.213" cy="472.089" r="16.8"/>
<circle cx="673.787" cy="1127.911" r="16.8"/>
<circle cx="673.787" cy="472.089" r="16.8"/>
<circle cx="579.127" cy="526.741" r="16.8"/>
<circle cx="1020.873" cy="1073.259" r="16.8"/>
<circle cx="579.127" cy="1073.259" r="16.8"/>
<circle cx="1020.873" cy="526.741" r="16.8"/>
</g>
<g style="stroke:#000000;stroke-width:2.8;fill:#00ff00">
<circle cx="484.467" cy="690.696" r="16.8"/>
<circle cx="1115.533" cy="909.304" r="16.8"/>
<circle cx="1115.533" cy="690.696" r="16.8"/>
<circle cx="484.467" cy="909.304" r="16.8"/>
<circle cx="1052.426" cy="581.393" r="16.8"/>
<circle cx="547.574" cy="581.393" r="16.8"/>
<circle cx="1052.426" cy="1018.607" r="16.8"/>
<circle cx="547.574" cy="1018.607" r="16.8"/>
<circle cx="736.893" cy="1127.911" r="16.8"/>
<circle cx="736.893" cy="472.089" r="16.8"/>
<circle cx="863.107" cy="1127.911" r="16.8"/>
<circle cx="863.107" cy="472.089" r="16.8"/>
</g>
<g style="stroke:#000000;stroke-width:2.8;fill:#00ffff">
<circle cx="516.021" cy="636.044" r="16.8"/>
<circle cx="1083.979" cy="963.956" r="16.8"/>
<circle cx="1083.979" cy="636.044" r="16.8"/>
<circle cx="516.021" cy="963.956" r="16.8"/>
<circle cx="800.000" cy="1127.911" r="16.8"/>
<circle cx="800.000" cy="472.089" r="16.8"/>
</g>
<g style="stroke:#000000;stroke-width:2.8;fill:#0000ff">
<circle cx="957.766" cy="526.741" r="16.8"/>
<circle cx="642.234" cy="1073.259" r="16.8"/>
<circle cx="673.787" cy="1018.607" r="16.8"/>
<circle cx="926.213" cy="581.393" r="16.8"/>
<circle cx="957.766" cy="1073.259" r="16.8"/>
<circle cx="642.234" cy="526.741" r="16.8"/>
<circle cx="1115.533" cy="800.000" r="16.8"/>
<circle cx="484.467" cy="800.000" r="16.8"/>
<circle cx="926.213" cy="1018.607" r="16.8"/>
<circle cx="673.787" cy="581.393" r="16.8"/>
<circle cx="1052.426" cy="800.000" r="16.8"/>
<circle cx="547.574" cy="800.000" r="16.8"/>
</g>
<g style="stroke:#000000;stroke-width:2.8;fill:#7f00ff">
<circle cx="516.021" cy="745.348" r="16.8"/>
<circle cx="705.340" cy="1073.259" r="16.8"/>
<circle cx="1083.979" cy="854.652" r="16.8"/>
<circle cx="894.660" cy="526.741" r="16.8"/>
<circle cx="894.660" cy="1073.259" r="16.8"/>
<circle cx="1083.979" cy="745.348" r="16.8"/>
<circle cx="516.021" cy="854.652" r="16.8"/>
<circle cx="705.340" cy="526.741" r="16.8"/>
<circle cx="610.680" cy="581.393" r="16.8"/>
<circle cx="989.320" cy="1018.607" r="16.8"/>
<circle cx="989.320" cy="581.393" r="16.8"/>
<circle cx="610.680" cy="1018.607" r="16.8"/>
</g>
<g style="stroke:#000000;stroke-width:2.8;fill:#ff00ff">
<circle cx="1020.873" cy="636.044" r="16.8"/>
<circle cx="831.553" cy="526.741" r="16.8"/>
<circle cx="768.447" cy="1073.259" r="16.8"/>
<circle cx="579.127" cy="963.956" r="16.8"/>
<circle cx="579.127" cy="636.044" r="16.8"/>
<circle cx="831.553" cy="1073.259" r="16.8"/>
<circle cx="768.447" cy="526.741" r="16.8"/>
<circle cx="1020.873" cy="963.956" r="16.8"/>
<circle cx="1052.426" cy="690.696" r="16.8"/>
<circle cx="547.574" cy="690.696" r="16.8"/>
<circle cx="1052.426" cy="909.304" r="16.8"/>
<circle cx="547.574" cy="909.304" r="16.8"/>
</g>
<g style="stroke:#000000;stroke-width:2.8;fill:#ff007f">
<circle cx="800.000" cy="1018.607" r="16.8"/>
<circle cx="610.680" cy="690.696" r="16.8"/>
<circle cx="989.320" cy="690.696" r="16.8"/>
<circle cx="610.680" cy="909.304" r="16.8"/>
<circle cx="989.320" cy="909.304" r="16.8"/>
<circle cx="800.000" cy="581.393" r="16.8"/>
</g>
<g style="stroke:#000000;stroke-width:2.8;fill:#ff0000">
<circle cx="642.234" cy="636.044" r="16.8"/>
<circle cx="1020.873" cy="854.652" r="16.8"/>
<circle cx="579.127" cy="745.348" r="16.8"/>
<circle cx="957.766" cy="963.956" r="16.8"/>
<circle cx="957.766" cy="636.044" r="16.8"/>
<circle cx="1020.873" cy="745.348" r="16.8"/>
<circle cx="579.127" cy="854.652" r="16.8"/>
<circle cx="642.234" cy="963.956" r="16.8"/>
<circle cx="863.107" cy="1018.607" r="16.8"/>
<circle cx="736.893" cy="1018.607" r="16.8"/>
<circle cx="863.107" cy="581.393" r="16.8"/>
<circle cx="736.893" cy="581.393" r="16.8"/>
</g>
<g style="stroke:#000000;stroke-width:2.8;fill:#ff7f00">
<circle cx="705.340" cy="963.956" r="16.8"/>
<circle cx="894.660" cy="636.044" r="16.8"/>
<circle cx="894.660" cy="963.956" r="16.8"/>
<circle cx="705.340" cy="636.044" r="16.8"/>
<circle cx="610.680" cy="800.000" r="16.8"/>
<circle cx="989.320" cy="800.000" r="16.8"/>
</g>
<g style="stroke:#000000;stroke-width:2.8;fill:#ffff00">
<circle cx="831.553" cy="963.956" r="16.8"/>
<circle cx="642.234" cy="854.652" r="16.8"/>
<circle cx="957.766" cy="745.348" r="16.8"/>
<circle cx="768.447" cy="636.044" r="16.8"/>
<circle cx="768.447" cy="963.956" r="16.8"/>
<circle cx="642.234" cy="745.348" r="16.8"/>
<circle cx="957.766" cy="854.652" r="16.8"/>
<circle cx="831.553" cy="636.044" r="16.8"/>
<circle cx="673.787" cy="690.696" r="16.8"/>
<circle cx="926.213" cy="690.696" r="16.8"/>
<circle cx="673.787" cy="909.304" r="16.8"/>
<circle cx="926.213" cy="909.304" r="16.8"/>
</g>
<g style="stroke:#000000;stroke-width:2.8;fill:#00ff00">
<circle cx="894.660" cy="745.348" r="16.8"/>
<circle cx="705.340" cy="854.652" r="16.8"/>
<circle cx="705.340" cy="745.348" r="16.8"/>
<circle cx="894.660" cy="854.652" r="16.8"/>
<circle cx="800.000" cy="909.304" r="16.8"/>
<circle cx="800.000" cy="690.696" r="16.8"/>
</g>
<g style="stroke:#000000;stroke-width:2.8;fill:#00ffff">
<circle cx="800.000" cy="800.000" r="16.8"/>
</g>
<g style="stroke:#000000;stroke-width:2.8;fill:#0000ff">
<circle cx="768.447" cy="854.652" r="16.8"/>
<circle cx="831.553" cy="745.348" r="16.8"/>
<circle cx="768.447" cy="745.348" r="16.8"/>
<circle cx="831.553" cy="854.652" r="16.8"/>
<circle cx="736.893" cy="800.000" r="16.8"/>
<circle cx="863.107" cy="800.000" r="16.8"/>
</g>
<g style="stroke:#000000;stroke-width:2.8;fill:#7f00ff">
<circle cx="863.107" cy="690.696" r="16.8"/>
<circle cx="736.893" cy="909.304" r="16.8"/>
<circle cx="736.893" cy="690.696" r="16.8"/>
<circle cx="863.107" cy="909.304" r="16.8"/>
<circle cx="673.787" cy="800.000" r="16.8"/>
<circle cx="926.213" cy="800.000" r="16.8"/>
</g>
</svg>
