<?xml version="1.0" encoding="UTF-8" standalone="no"?>
<svg
xmlns="http://www.w3.org/2000/svg"
version="1.0"
width="1600" height="1600"
id="8-demicube_t01256_D4.svg">
<!-- Point overlap:480 640 960 1280 1440 1600 1920 2240 2400 2880 3200 3520 3840 4160 4480  -->
<g style="stroke:#000000;stroke-width:6.0;stroke-opacity:0.50;">
</g>
<g style="stroke:#000000;stroke-width:3.0;fill:#ff0000">
<circle cx="358.895" cy="1394.234" r="21.0"/>
<circle cx="1241.104" cy="205.766" r="21.0"/>
<circle cx="1437.151" cy="545.328" r="21.0"/>
<circle cx="162.849" cy="1054.672" r="21.0"/>
<circle cx="260.872" cy="1224.453" r="21.0"/>
<circle cx="1339.128" cy="375.547" r="21.0"/>
<circle cx="505.930" cy="1479.125" r="21.0"/>
<circle cx="1094.070" cy="120.875" r="21.0"/>
<circle cx="701.977" cy="120.875" r="21.0"/>
<circle cx="898.023" cy="1479.125" r="21.0"/>
<circle cx="701.977" cy="1479.125" r="21.0"/>
<circle cx="898.023" cy="120.875" r="21.0"/>
<circle cx="1535.174" cy="715.109" r="21.0"/>
<circle cx="64.826" cy="884.891" r="21.0"/>
<circle cx="505.930" cy="120.875" r="21.0"/>
<circle cx="1094.070" cy="1479.125" r="21.0"/>
<circle cx="1535.174" cy="884.891" r="21.0"/>
<circle cx="64.826" cy="715.109" r="21.0"/>
<circle cx="358.895" cy="205.766" r="21.0"/>
<circle cx="1241.104" cy="1394.234" r="21.0"/>
<circle cx="260.872" cy="375.547" r="21.0"/>
<circle cx="1339.128" cy="1224.453" r="21.0"/>
<circle cx="1437.151" cy="1054.672" r="21.0"/>
<circle cx="162.849" cy="545.328" r="21.0"/>
</g>
<g style="stroke:#000000;stroke-width:3.0;fill:#ff7f00">
<circle cx="1486.163" cy="630.219" r="21.0"/>
<circle cx="113.837" cy="969.781" r="21.0"/>
<circle cx="309.884" cy="1309.344" r="21.0"/>
<circle cx="1290.116" cy="290.656" r="21.0"/>
<circle cx="1388.139" cy="460.438" r="21.0"/>
<circle cx="211.861" cy="1139.562" r="21.0"/>
<circle cx="603.954" cy="120.875" r="21.0"/>
<circle cx="996.046" cy="1479.125" r="21.0"/>
<circle cx="603.954" cy="1479.125" r="21.0"/>
<circle cx="996.046" cy="120.875" r="21.0"/>
<circle cx="800.000" cy="120.875" r="21.0"/>
<circle cx="800.000" cy="1479.125" r="21.0"/>
<circle cx="309.884" cy="290.656" r="21.0"/>
<circle cx="1290.116" cy="1309.344" r="21.0"/>
<circle cx="1486.163" cy="969.781" r="21.0"/>
<circle cx="113.837" cy="630.219" r="21.0"/>
<circle cx="211.861" cy="460.438" r="21.0"/>
<circle cx="1388.139" cy="1139.562" r="21.0"/>
</g>
<g style="stroke:#000000;stroke-width:3.0;fill:#ffff00">
<circle cx="554.942" cy="205.766" r="21.0"/>
<circle cx="1045.058" cy="1394.234" r="21.0"/>
<circle cx="1437.151" cy="715.109" r="21.0"/>
<circle cx="162.849" cy="884.891" r="21.0"/>
<circle cx="456.919" cy="1394.234" r="21.0"/>
<circle cx="1143.081" cy="205.766" r="21.0"/>
<circle cx="407.907" cy="1309.344" r="21.0"/>
<circle cx="1192.093" cy="290.656" r="21.0"/>
<circle cx="554.942" cy="1394.234" r="21.0"/>
<circle cx="1045.058" cy="205.766" r="21.0"/>
<circle cx="407.907" cy="290.656" r="21.0"/>
<circle cx="1192.093" cy="1309.344" r="21.0"/>
<circle cx="1437.151" cy="884.891" r="21.0"/>
<circle cx="162.849" cy="715.109" r="21.0"/>
<circle cx="505.930" cy="1309.344" r="21.0"/>
<circle cx="1094.070" cy="290.656" r="21.0"/>
<circle cx="1486.163" cy="800.000" r="21.0"/>
<circle cx="113.837" cy="800.000" r="21.0"/>
<circle cx="1388.139" cy="800.000" r="21.0"/>
<circle cx="211.861" cy="800.000" r="21.0"/>
<circle cx="456.919" cy="205.766" r="21.0"/>
<circle cx="1143.081" cy="1394.234" r="21.0"/>
<circle cx="505.930" cy="290.656" r="21.0"/>
<circle cx="1094.070" cy="1309.344" r="21.0"/>
</g>
<g style="stroke:#000000;stroke-width:3.0;fill:#00ff00">
<circle cx="554.942" cy="1224.453" r="21.0"/>
<circle cx="1045.058" cy="375.547" r="21.0"/>
<circle cx="1290.116" cy="800.000" r="21.0"/>
<circle cx="554.942" cy="375.547" r="21.0"/>
<circle cx="1045.058" cy="1224.453" r="21.0"/>
<circle cx="309.884" cy="800.000" r="21.0"/>
</g>
<g style="stroke:#000000;stroke-width:3.0;fill:#00ffff">
<circle cx="1339.128" cy="545.328" r="21.0"/>
<circle cx="260.872" cy="1054.672" r="21.0"/>
<circle cx="1290.116" cy="460.438" r="21.0"/>
<circle cx="309.884" cy="1139.562" r="21.0"/>
<circle cx="750.988" cy="205.766" r="21.0"/>
<circle cx="849.012" cy="1394.234" r="21.0"/>
<circle cx="849.012" cy="205.766" r="21.0"/>
<circle cx="750.988" cy="1394.234" r="21.0"/>
<circle cx="309.884" cy="460.438" r="21.0"/>
<circle cx="1290.116" cy="1139.562" r="21.0"/>
<circle cx="1339.128" cy="1054.672" r="21.0"/>
<circle cx="260.872" cy="545.328" r="21.0"/>
</g>
<g style="stroke:#000000;stroke-width:3.0;fill:#0000ff">
<circle cx="603.954" cy="1139.562" r="21.0"/>
<circle cx="996.046" cy="460.438" r="21.0"/>
<circle cx="603.954" cy="460.438" r="21.0"/>
<circle cx="996.046" cy="1139.562" r="21.0"/>
<circle cx="1192.093" cy="800.000" r="21.0"/>
<circle cx="407.907" cy="800.000" r="21.0"/>
</g>
<g style="stroke:#000000;stroke-width:3.0;fill:#7f00ff">
<circle cx="603.954" cy="290.656" r="21.0"/>
<circle cx="996.046" cy="1309.344" r="21.0"/>
<circle cx="1388.139" cy="630.219" r="21.0"/>
<circle cx="652.965" cy="205.766" r="21.0"/>
<circle cx="947.035" cy="1394.234" r="21.0"/>
<circle cx="211.861" cy="969.781" r="21.0"/>
<circle cx="358.895" cy="1224.453" r="21.0"/>
<circle cx="1241.104" cy="375.547" r="21.0"/>
<circle cx="1339.128" cy="715.109" r="21.0"/>
<circle cx="260.872" cy="884.891" r="21.0"/>
<circle cx="456.919" cy="1224.453" r="21.0"/>
<circle cx="1143.081" cy="375.547" r="21.0"/>
<circle cx="652.965" cy="1394.234" r="21.0"/>
<circle cx="947.035" cy="205.766" r="21.0"/>
<circle cx="603.954" cy="1309.344" r="21.0"/>
<circle cx="996.046" cy="290.656" r="21.0"/>
<circle cx="456.919" cy="375.547" r="21.0"/>
<circle cx="1143.081" cy="1224.453" r="21.0"/>
<circle cx="1241.104" cy="545.328" r="21.0"/>
<circle cx="358.895" cy="1054.672" r="21.0"/>
<circle cx="1339.128" cy="884.891" r="21.0"/>
<circle cx="260.872" cy="715.109" r="21.0"/>
<circle cx="800.000" cy="290.656" r="21.0"/>
<circle cx="800.000" cy="1309.344" r="21.0"/>
<circle cx="358.895" cy="375.547" r="21.0"/>
<circle cx="1241.104" cy="1224.453" r="21.0"/>
<circle cx="1388.139" cy="969.781" r="21.0"/>
<circle cx="211.861" cy="630.219" r="21.0"/>
<circle cx="800.000" cy="800.000" r="21.0"/>
<circle cx="358.895" cy="545.328" r="21.0"/>
<circle cx="1241.104" cy="1054.672" r="21.0"/>
</g>
<g style="stroke:#000000;stroke-width:3.0;fill:#ff00ff">
<circle cx="701.977" cy="290.656" r="21.0"/>
<circle cx="898.023" cy="1309.344" r="21.0"/>
<circle cx="1290.116" cy="630.219" r="21.0"/>
<circle cx="309.884" cy="969.781" r="21.0"/>
<circle cx="1192.093" cy="460.438" r="21.0"/>
<circle cx="407.907" cy="1139.562" r="21.0"/>
<circle cx="898.023" cy="290.656" r="21.0"/>
<circle cx="701.977" cy="1309.344" r="21.0"/>
<circle cx="750.988" cy="884.891" r="21.0"/>
<circle cx="849.012" cy="715.109" r="21.0"/>
<circle cx="407.907" cy="460.438" r="21.0"/>
<circle cx="1192.093" cy="1139.562" r="21.0"/>
<circle cx="898.023" cy="800.000" r="21.0"/>
<circle cx="701.977" cy="800.000" r="21.0"/>
<circle cx="750.988" cy="715.109" r="21.0"/>
<circle cx="849.012" cy="884.891" r="21.0"/>
<circle cx="1290.116" cy="969.781" r="21.0"/>
<circle cx="309.884" cy="630.219" r="21.0"/>
</g>
<g style="stroke:#000000;stroke-width:3.0;fill:#ff007f">
<circle cx="652.965" cy="375.547" r="21.0"/>
<circle cx="947.035" cy="1224.453" r="21.0"/>
<circle cx="1241.104" cy="715.109" r="21.0"/>
<circle cx="358.895" cy="884.891" r="21.0"/>
<circle cx="1094.070" cy="460.438" r="21.0"/>
<circle cx="947.035" cy="375.547" r="21.0"/>
<circle cx="652.965" cy="1224.453" r="21.0"/>
<circle cx="505.930" cy="1139.562" r="21.0"/>
<circle cx="505.930" cy="460.438" r="21.0"/>
<circle cx="1094.070" cy="1139.562" r="21.0"/>
<circle cx="1241.104" cy="884.891" r="21.0"/>
<circle cx="358.895" cy="715.109" r="21.0"/>
</g>
<g style="stroke:#000000;stroke-width:3.0;fill:#ff0000">
<circle cx="898.023" cy="1139.562" r="21.0"/>
<circle cx="701.977" cy="460.438" r="21.0"/>
<circle cx="701.977" cy="1139.562" r="21.0"/>
<circle cx="898.023" cy="460.438" r="21.0"/>
<circle cx="456.919" cy="884.891" r="21.0"/>
<circle cx="1143.081" cy="715.109" r="21.0"/>
<circle cx="554.942" cy="1054.672" r="21.0"/>
<circle cx="1045.058" cy="545.328" r="21.0"/>
<circle cx="1045.058" cy="1054.672" r="21.0"/>
<circle cx="554.942" cy="545.328" r="21.0"/>
<circle cx="456.919" cy="715.109" r="21.0"/>
<circle cx="1143.081" cy="884.891" r="21.0"/>
</g>
<g style="stroke:#000000;stroke-width:3.0;fill:#ff7f00">
<circle cx="652.965" cy="1054.672" r="21.0"/>
<circle cx="947.035" cy="545.328" r="21.0"/>
<circle cx="652.965" cy="545.328" r="21.0"/>
<circle cx="947.035" cy="1054.672" r="21.0"/>
<circle cx="1094.070" cy="800.000" r="21.0"/>
<circle cx="505.930" cy="800.000" r="21.0"/>
</g>
<g style="stroke:#000000;stroke-width:3.0;fill:#ffff00">
<circle cx="750.988" cy="375.547" r="21.0"/>
<circle cx="849.012" cy="1224.453" r="21.0"/>
<circle cx="849.012" cy="375.547" r="21.0"/>
<circle cx="750.988" cy="1224.453" r="21.0"/>
<circle cx="1192.093" cy="630.219" r="21.0"/>
<circle cx="407.907" cy="969.781" r="21.0"/>
<circle cx="1143.081" cy="545.328" r="21.0"/>
<circle cx="456.919" cy="1054.672" r="21.0"/>
<circle cx="456.919" cy="545.328" r="21.0"/>
<circle cx="1143.081" cy="1054.672" r="21.0"/>
<circle cx="1192.093" cy="969.781" r="21.0"/>
<circle cx="407.907" cy="630.219" r="21.0"/>
</g>
<g style="stroke:#000000;stroke-width:3.0;fill:#00ff00">
<circle cx="849.012" cy="1054.672" r="21.0"/>
<circle cx="750.988" cy="545.328" r="21.0"/>
<circle cx="750.988" cy="1054.672" r="21.0"/>
<circle cx="849.012" cy="545.328" r="21.0"/>
<circle cx="554.942" cy="884.891" r="21.0"/>
<circle cx="1045.058" cy="715.109" r="21.0"/>
<circle cx="603.954" cy="969.781" r="21.0"/>
<circle cx="996.046" cy="630.219" r="21.0"/>
<circle cx="996.046" cy="969.781" r="21.0"/>
<circle cx="603.954" cy="630.219" r="21.0"/>
<circle cx="554.942" cy="715.109" r="21.0"/>
<circle cx="1045.058" cy="884.891" r="21.0"/>
</g>
<g style="stroke:#000000;stroke-width:3.0;fill:#00ffff">
<circle cx="701.977" cy="969.781" r="21.0"/>
<circle cx="898.023" cy="630.219" r="21.0"/>
<circle cx="996.046" cy="800.000" r="21.0"/>
<circle cx="603.954" cy="800.000" r="21.0"/>
<circle cx="701.977" cy="630.219" r="21.0"/>
<circle cx="898.023" cy="969.781" r="21.0"/>
</g>
<g style="stroke:#000000;stroke-width:3.0;fill:#0000ff">
<circle cx="800.000" cy="969.781" r="21.0"/>
<circle cx="800.000" cy="630.219" r="21.0"/>
<circle cx="652.965" cy="884.891" r="21.0"/>
<circle cx="947.035" cy="715.109" r="21.0"/>
<circle cx="800.000" cy="1139.562" r="21.0"/>
<circle cx="800.000" cy="460.438" r="21.0"/>
<circle cx="505.930" cy="969.781" r="21.0"/>
<circle cx="1094.070" cy="630.219" r="21.0"/>
<circle cx="947.035" cy="884.891" r="21.0"/>
<circle cx="652.965" cy="715.109" r="21.0"/>
<circle cx="1094.070" cy="969.781" r="21.0"/>
<circle cx="505.930" cy="630.219" r="21.0"/>
</g>
</svg>
