<?xml version="1.0" encoding="UTF-8" standalone="no"?>
<svg
   width="389.75"
   zoomAndPan="magnify"
   viewBox="0 0 292.3125 374.99219"
   height="499.98959"
   preserveAspectRatio="xMidYMid"
   version="1.0"
   id="svg23192"
   sodipodi:docname="ЦРБ 4676 23.02.1989 № 4.1.svg"
   xmlns:inkscape="http://www.inkscape.org/namespaces/inkscape"
   xmlns:sodipodi="http://sodipodi.sourceforge.net/DTD/sodipodi-0.dtd"
   xmlns="http://www.w3.org/2000/svg"
   xmlns:svg="http://www.w3.org/2000/svg">
  <sodipodi:namedview
     id="namedview23194"
     pagecolor="#ffffff"
     bordercolor="#000000"
     borderopacity="0.25"
     inkscape:showpageshadow="2"
     inkscape:pageopacity="0.0"
     inkscape:pagecheckerboard="0"
     inkscape:deskcolor="#d1d1d1"
     showgrid="false" />
  <defs
     id="defs23054">
    <clipPath
       id="14a305f3e0">
      <path
         d="M 41.339844,0 H 333.66016 V 375 H 41.339844 Z m 0,0"
         clip-rule="nonzero"
         id="path23045" />
    </clipPath>
    <clipPath
       id="73404da078">
      <path
         d="M 41.339844,0.00390625 H 333.65234 V 374.99609 H 41.339844 Z m 0,0"
         clip-rule="nonzero"
         id="path23048" />
    </clipPath>
    <clipPath
       id="b942ac99fd">
      <path
         d="M 91.890625,46.957031 H 283.14062 V 238.20703 H 91.890625 Z m 0,0"
         clip-rule="nonzero"
         id="path23051" />
    </clipPath>
  </defs>
  <g
     clip-path="url(#14a305f3e0)"
     id="g23058"
     transform="translate(-41.339843,-0.00390625)">
    <path
       fill="#114e89"
       d="M 41.339844,0 H 333.66016 V 374.53125 H 41.339844 Z m 0,0"
       fill-opacity="1"
       fill-rule="nonzero"
       id="path23056" />
  </g>
  <g
     clip-path="url(#73404da078)"
     id="g23064"
     transform="translate(-41.339843,-0.00390625)">
    <path
       stroke-linecap="butt"
       transform="matrix(0.75,0,0,0.75,41.341269,0.00318912)"
       fill="none"
       stroke-linejoin="miter"
       d="M -0.00190031,9.56178e-4 H 389.74813 V 499.99057 H -0.00190031 Z m 0,0"
       stroke="#ffffff"
       stroke-width="34"
       stroke-opacity="1"
       stroke-miterlimit="4"
       id="path23060" />
    <path
       stroke-linecap="butt"
       transform="matrix(0.75,0,0,0.75,41.341269,0.00318912)"
       fill="none"
       stroke-linejoin="miter"
       d="M -0.00190031,9.56178e-4 H 389.74813 V 499.99057 H -0.00190031 Z m 0,0"
       stroke="#114e89"
       stroke-width="18"
       stroke-opacity="1"
       stroke-miterlimit="4"
       id="path23062" />
  </g>
  <path
     fill="#ffffff"
     d="M 51.828126,48.226563 H 240.49219 V 236.89453 H 51.828126 Z m 0,0"
     fill-opacity="1"
     fill-rule="nonzero"
     id="path23066" />
  <g
     clip-path="url(#b942ac99fd)"
     id="g23070"
     transform="translate(-41.339843,-0.00390625)">
    <path
       fill="#ffffff"
       d="M 281.83203,238.17187 H 93.167969 c -0.714844,0 -1.277344,-0.5625 -1.277344,-1.27343 V 48.230469 c 0,-0.710938 0.5625,-1.273438 1.277344,-1.273438 H 281.83203 c 0.71484,0 1.27344,0.5625 1.27344,1.273438 V 236.89844 c 0,0.71093 -0.5586,1.27343 -1.27344,1.27343 z M 94.441406,235.62109 H 280.55859 V 49.507812 H 94.441406 Z m 0,0"
       fill-opacity="1"
       fill-rule="nonzero"
       id="path23068" />
  </g>
  <g
     fill="#1b192c"
     fill-opacity="1"
     id="g23078"
     transform="translate(-41.339843,-0.00390625)">
    <g
       transform="translate(104.93399,128.31562)"
       id="g23076">
      <g
         id="g23074">
        <path
           d="m 8.828125,0.296875 c -2.65625,0 -4.527344,-0.789063 -5.609375,-2.375 C 2.132812,-3.660156 1.59375,-5.84375 1.59375,-8.625 v -9.5 c 0,-2.9375 0.53125,-5.164062 1.59375,-6.6875 1.0625,-1.53125 2.941406,-2.296875 5.640625,-2.296875 2.40625,0 4.132813,0.652344 5.1875,1.953125 1.050781,1.304688 1.578125,3.230469 1.578125,5.78125 v 2.125 h -3.546875 v -1.90625 c 0,-1.226562 -0.05859,-2.175781 -0.171875,-2.84375 -0.105469,-0.664062 -0.386719,-1.195312 -0.84375,-1.59375 -0.449219,-0.394531 -1.171875,-0.59375 -2.171875,-0.59375 -1.023437,0 -1.78125,0.214844 -2.28125,0.640625 -0.492187,0.429687 -0.8125,1.027344 -0.96875,1.796875 -0.15625,0.761719 -0.234375,1.78125 -0.234375,3.0625 v 10.65625 c 0,1.375 0.109375,2.449219 0.328125,3.21875 0.226563,0.773438 0.585937,1.324219 1.078125,1.65625 0.5,0.335938 1.191406,0.5 2.078125,0.5 0.945313,0 1.65625,-0.207031 2.125,-0.625 0.46875,-0.425781 0.757813,-1.003906 0.875,-1.734375 0.125,-0.726563 0.1875,-1.722656 0.1875,-2.984375 V -9.984375 H 15.59375 V -8 c 0,2.679688 -0.507812,4.730469 -1.515625,6.15625 -1,1.429688 -2.75,2.140625 -5.25,2.140625 z m 0,0"
           id="path23072" />
      </g>
    </g>
  </g>
  <g
     fill="#1b192c"
     fill-opacity="1"
     id="g23086"
     transform="translate(-41.339843,-0.00390625)">
    <g
       transform="translate(122.09194,128.31562)"
       id="g23084">
      <g
         id="g23082">
        <path
           d="m 0.0625,-2.78125 c 0.957031,0.023438 1.703125,-0.15625 2.234375,-0.53125 0.53125,-0.382812 0.96875,-1.269531 1.3125,-2.65625 0.351563,-1.394531 0.632813,-3.597656 0.84375,-6.609375 L 5.34375,-26.875 h 11.8125 V 0 h -3.75 V -24.09375 H 8.5625 l -0.625,11.515625 C 7.757812,-9.566406 7.457031,-7.175781 7.03125,-5.40625 6.613281,-3.632812 5.925781,-2.285156 4.96875,-1.359375 4.019531,-0.429688 2.671875,0.03125 0.921875,0.03125 0.546875,0.03125 0.257812,0.0195312 0.0625,0 Z m 0,0"
           id="path23080" />
      </g>
    </g>
  </g>
  <g
     fill="#1b192c"
     fill-opacity="1"
     id="g23094"
     transform="translate(-41.339843,-0.00390625)">
    <g
       transform="translate(141.44026,128.31562)"
       id="g23092">
      <g
         id="g23090">
        <path
           d="M 1.765625,1.1875 C 2.359375,1.257812 2.875,1.296875 3.3125,1.296875 c 1.082031,0 1.828125,-0.179687 2.234375,-0.53125 0.414063,-0.355469 0.625,-0.914063 0.625,-1.6875 0,-0.445313 -0.078125,-1.132813 -0.234375,-2.0625 L 0.625,-26.875 h 3.5625 l 2.25,11.4375 1.359375,8.53125 L 9,-15.359375 11.015625,-26.875 h 3.59375 l -4.8125,23.953125 -0.265625,1.5 C 9.238281,0.140625 8.953125,1.273438 8.671875,1.984375 8.398438,2.691406 7.875,3.226562 7.09375,3.59375 6.320312,3.957031 5.128906,4.140625 3.515625,4.140625 c -0.28125,0 -0.867187,-0.023437 -1.75,-0.0625 z m 0,0"
           id="path23088" />
      </g>
    </g>
  </g>
  <g
     fill="#1b192c"
     fill-opacity="1"
     id="g23102"
     transform="translate(-41.339843,-0.00390625)">
    <g
       transform="translate(156.50739,128.31562)"
       id="g23100">
      <g
         id="g23098">
        <path
           d="M 6.375,-13.734375 0.765625,-26.875 H 4.375 l 5.046875,12.96875 H 9.625 V -26.875 h 3.1875 v 12.96875 h 0.234375 l 5,-12.96875 h 3.65625 L 16.0625,-13.734375 22.328125,0 H 18.65625 L 13.078125,-13.4375 H 12.8125 V 0 H 9.625 V -13.4375 H 9.390625 L 3.78125,0 H 0.125 Z m 0,0"
           id="path23096" />
      </g>
    </g>
  </g>
  <g
     fill="#1b192c"
     fill-opacity="1"
     id="g23110"
     transform="translate(-41.339843,-0.00390625)">
    <g
       transform="translate(179.00853,128.31562)"
       id="g23108">
      <g
         id="g23106">
        <path
           d="m 2.09375,-26.875 h 10.421875 v 2.78125 H 5.84375 v 8.890625 H 11.25 v 2.65625 H 5.84375 V -2.6875 h 6.734375 V 0 H 2.09375 Z m 0,0"
           id="path23104" />
      </g>
    </g>
  </g>
  <g
     fill="#1b192c"
     fill-opacity="1"
     id="g23118"
     transform="translate(-41.339843,-0.00390625)">
    <g
       transform="translate(192.58221,128.31562)"
       id="g23116">
      <g
         id="g23114">
        <path
           d="m 2.09375,-26.875 h 11.546875 v 2.71875 H 5.84375 v 8.453125 h 0.828125 c 2.03125,0 3.664063,0.234375 4.90625,0.703125 1.238281,0.46875 2.164063,1.265625 2.78125,2.390625 0.625,1.125 0.9375,2.710937 0.9375,4.75 0,2.761719 -0.679687,4.761719 -2.03125,6 C 11.921875,-0.617188 9.789062,0 6.875,0 H 2.09375 Z m 4.8125,24.1875 c 1.1875,0 2.117188,-0.128906 2.796875,-0.390625 0.675781,-0.269531 1.1875,-0.78125 1.53125,-1.53125 0.34375,-0.75 0.515625,-1.847656 0.515625,-3.296875 0,-1.257812 -0.152344,-2.25 -0.453125,-2.96875 -0.292969,-0.71875 -0.804687,-1.242188 -1.53125,-1.578125 -0.71875,-0.34375 -1.710937,-0.515625 -2.96875,-0.515625 H 5.84375 V -2.6875 Z m 0,0"
           id="path23112" />
      </g>
    </g>
  </g>
  <g
     fill="#1b192c"
     fill-opacity="1"
     id="g23126"
     transform="translate(-41.339843,-0.00390625)">
    <g
       transform="translate(209.04322,128.31562)"
       id="g23124">
      <g
         id="g23122">
        <path
           d="m 2.09375,-26.875 h 3.75 v 11.609375 H 12.75 V -26.875 H 16.5 V 0 H 12.75 V -12.578125 H 5.84375 V 0 h -3.75 z m 0,0"
           id="path23120" />
      </g>
    </g>
  </g>
  <g
     fill="#1b192c"
     fill-opacity="1"
     id="g23134"
     transform="translate(-41.339843,-0.00390625)">
    <g
       transform="translate(227.72778,128.31562)"
       id="g23132">
      <g
         id="g23130">
        <path
           d="m 2.09375,-26.875 h 3.75 v 11.171875 h 1.0625 c 2.03125,0 3.660156,0.234375 4.890625,0.703125 1.226563,0.46875 2.148437,1.265625 2.765625,2.390625 0.625,1.125 0.9375,2.710937 0.9375,4.75 0,2.761719 -0.679688,4.761719 -2.03125,6 C 12.125,-0.617188 9.988281,0 7.0625,0 H 2.09375 Z m 16.1875,0 h 3.75 V 0 h -3.75 z M 7.0625,-2.6875 c 1.195312,0 2.144531,-0.128906 2.84375,-0.390625 0.695312,-0.269531 1.21875,-0.78125 1.5625,-1.53125 0.34375,-0.75 0.515625,-1.847656 0.515625,-3.296875 0,-1.226562 -0.15625,-2.207031 -0.46875,-2.9375 -0.3125,-0.738281 -0.828125,-1.273438 -1.546875,-1.609375 C 9.25,-12.796875 8.257812,-12.96875 7,-12.96875 H 5.84375 V -2.6875 Z m 0,0"
           id="path23128" />
      </g>
    </g>
  </g>
  <g
     fill="#1b192c"
     fill-opacity="1"
     id="g23142"
     transform="translate(-41.339843,-0.00390625)">
    <g
       transform="translate(251.95466,128.31562)"
       id="g23140">
      <g
         id="g23138">
        <path
           d="m 2.09375,-26.875 h 3.3125 v 18.609375 l 7.875,-18.609375 h 2.6875 V 0 H 12.671875 V -18.921875 L 4.875,0 H 2.09375 Z m 7.265625,-2.09375 c -1.511719,0 -2.617187,-0.410156 -3.3125,-1.234375 -0.6875,-0.820313 -1.03125,-1.914063 -1.03125,-3.28125 H 7.0625 c 0.019531,0.835937 0.207031,1.460937 0.5625,1.875 C 7.976562,-31.203125 8.554688,-31 9.359375,-31 c 1.519531,0 2.28125,-0.828125 2.28125,-2.484375 h 2.09375 c 0,1.367187 -0.351563,2.460937 -1.046875,3.28125 -0.699219,0.824219 -1.808594,1.234375 -3.328125,1.234375 z m 0,0"
           id="path23136" />
      </g>
    </g>
  </g>
  <g
     fill="#1b192c"
     fill-opacity="1"
     id="g23150"
     transform="translate(-41.339843,-0.00390625)">
    <g
       transform="translate(133.57461,186.06561)"
       id="g23148">
      <g
         id="g23146">
        <path
           d="M 2.09375,-26.875 H 16.890625 V 0 h -3.75 V -24.1875 H 5.84375 V 0 h -3.75 z m 0,0"
           id="path23144" />
      </g>
    </g>
  </g>
  <g
     fill="#1b192c"
     fill-opacity="1"
     id="g23158"
     transform="translate(-41.339843,-0.00390625)">
    <g
       transform="translate(152.62425,186.06561)"
       id="g23156">
      <g
         id="g23154">
        <path
           d="m 2.09375,-26.875 h 6.671875 c 2.320313,0 4.007813,0.632812 5.0625,1.890625 1.050781,1.261719 1.578125,3.105469 1.578125,5.53125 0,2.199219 -0.570312,3.90625 -1.703125,5.125 -1.125,1.210937 -2.761719,1.8125 -4.90625,1.8125 H 5.84375 V 0 h -3.75 z m 5.46875,11.671875 c 1.101562,0 1.957031,-0.117187 2.5625,-0.359375 0.613281,-0.25 1.050781,-0.671875 1.3125,-1.265625 0.269531,-0.59375 0.40625,-1.457031 0.40625,-2.59375 0,-1.363281 -0.101562,-2.363281 -0.296875,-3 -0.199219,-0.644531 -0.59375,-1.097656 -1.1875,-1.359375 C 9.773438,-24.050781 8.851562,-24.1875 7.59375,-24.1875 h -1.75 v 8.984375 z m 0,0"
           id="path23152" />
      </g>
    </g>
  </g>
  <g
     fill="#1b192c"
     fill-opacity="1"
     id="g23166"
     transform="translate(-41.339843,-0.00390625)">
    <g
       transform="translate(168.62063,186.06561)"
       id="g23164">
      <g
         id="g23162">
        <path
           d="m 8.953125,0.296875 c -2.625,0 -4.511719,-0.742187 -5.65625,-2.234375 C 2.160156,-3.4375 1.59375,-5.597656 1.59375,-8.421875 V -18.625 c 0,-2.78125 0.570312,-4.890625 1.71875,-6.328125 1.15625,-1.4375 3.035156,-2.15625 5.640625,-2.15625 2.613281,0 4.488281,0.726563 5.625,2.171875 1.144531,1.449219 1.71875,3.554688 1.71875,6.3125 v 10.234375 c 0,2.78125 -0.578125,4.929687 -1.734375,6.4375 -1.148438,1.5 -3.015625,2.25 -5.609375,2.25 z m 0,-2.953125 c 1.394531,0 2.335937,-0.40625 2.828125,-1.21875 0.488281,-0.820312 0.734375,-2.0625 0.734375,-3.71875 V -19.375 c 0,-1.644531 -0.246094,-2.859375 -0.734375,-3.640625 -0.492188,-0.78125 -1.433594,-1.171875 -2.828125,-1.171875 -1.40625,0 -2.355469,0.390625 -2.84375,1.171875 C 5.617188,-22.234375 5.375,-21.019531 5.375,-19.375 v 11.78125 c 0,1.65625 0.242188,2.898438 0.734375,3.71875 0.488281,0.8125 1.4375,1.21875 2.84375,1.21875 z m 0,0"
           id="path23160" />
      </g>
    </g>
  </g>
  <g
     fill="#1b192c"
     fill-opacity="1"
     id="g23174"
     transform="translate(-41.339843,-0.00390625)">
    <g
       transform="translate(186.57507,186.06561)"
       id="g23172">
      <g
         id="g23170">
        <path
           d="M 6.046875,-14.078125 0.53125,-26.875 H 4.015625 L 8.09375,-17.390625 11.8125,-26.875 h 3.484375 L 9.65625,-13.765625 15.5625,0 H 12.078125 L 7.703125,-10.125 3.921875,0 H 0.4375 Z m 0,0"
           id="path23168" />
      </g>
    </g>
  </g>
  <g
     fill="#1b192c"
     fill-opacity="1"
     id="g23182"
     transform="translate(-41.339843,-0.00390625)">
    <g
       transform="translate(202.63783,186.06561)"
       id="g23180">
      <g
         id="g23178">
        <path
           d="m 8.953125,0.296875 c -2.625,0 -4.511719,-0.742187 -5.65625,-2.234375 C 2.160156,-3.4375 1.59375,-5.597656 1.59375,-8.421875 V -18.625 c 0,-2.78125 0.570312,-4.890625 1.71875,-6.328125 1.15625,-1.4375 3.035156,-2.15625 5.640625,-2.15625 2.613281,0 4.488281,0.726563 5.625,2.171875 1.144531,1.449219 1.71875,3.554688 1.71875,6.3125 v 10.234375 c 0,2.78125 -0.578125,4.929687 -1.734375,6.4375 -1.148438,1.5 -3.015625,2.25 -5.609375,2.25 z m 0,-2.953125 c 1.394531,0 2.335937,-0.40625 2.828125,-1.21875 0.488281,-0.820312 0.734375,-2.0625 0.734375,-3.71875 V -19.375 c 0,-1.644531 -0.246094,-2.859375 -0.734375,-3.640625 -0.492188,-0.78125 -1.433594,-1.171875 -2.828125,-1.171875 -1.40625,0 -2.355469,0.390625 -2.84375,1.171875 C 5.617188,-22.234375 5.375,-21.019531 5.375,-19.375 v 11.78125 c 0,1.65625 0.242188,2.898438 0.734375,3.71875 0.488281,0.8125 1.4375,1.21875 2.84375,1.21875 z m 0,0"
           id="path23176" />
      </g>
    </g>
  </g>
  <g
     fill="#1b192c"
     fill-opacity="1"
     id="g23190"
     transform="translate(-41.339843,-0.00390625)">
    <g
       transform="translate(220.59227,186.06561)"
       id="g23188">
      <g
         id="g23186">
        <path
           d="M 0.359375,-2.6875 H 1.59375 c 0.769531,-0.644531 1.414062,-1.453125 1.9375,-2.421875 0.519531,-0.976563 0.984375,-2.554687 1.390625,-4.734375 0.414063,-2.175781 0.710937,-5.203125 0.890625,-9.078125 L 6.234375,-26.875 h 11.25 v 24.1875 h 2.59375 V 4.875 H 17.1875 L 16.890625,0 H 3.546875 L 3.25,4.875 H 0.359375 Z m 13.40625,0 V -24.09375 H 9.421875 L 9.15625,-18.015625 C 9,-14.273438 8.734375,-11.398438 8.359375,-9.390625 7.984375,-7.378906 7.550781,-5.957031 7.0625,-5.125 6.582031,-4.300781 5.921875,-3.488281 5.078125,-2.6875 Z m 0,0"
           id="path23184" />
      </g>
    </g>
  </g>
</svg>
