<svg height="172.31046" version="1.1" width="138.42323" xmlns="http://www.w3.org/2000/svg" xmlns:xlink="http://www.w3.org/1999/xlink">
<defs>
<linearGradient id="linearGradient8262">
<stop offset="0" stop-color="#884c00"/>
<stop offset="1" stop-color="#905400"/>
</linearGradient>
<linearGradient id="linearGradient8255">
<stop offset="0" stop-color="#884c00"/>
<stop offset="1" stop-color="#b07400"/>
</linearGradient>
<linearGradient id="linearGradient4972">
<stop offset="0" stop-color="#fff" stop-opacity="0"/>
<stop offset="0.5" stop-color="#fff"/>
<stop offset="1" stop-color="#fff" stop-opacity="0"/>
</linearGradient>
<linearGradient gradientUnits="userSpaceOnUse" id="linearGradient5201" x1="57.240139" x2="82.996758" xlink:href="#linearGradient4972" y1="34.330315" y2="19.430473"/>
<linearGradient gradientTransform="translate(-12.7034,6.1358)" gradientUnits="userSpaceOnUse" id="linearGradient7461" x1="1329" x2="1370.7" xlink:href="#linearGradient8255" y1="42.32" y2="-17.691"/>
<linearGradient gradientTransform="translate(19.4797,6.0126)" gradientUnits="userSpaceOnUse" id="linearGradient7463" x1="695.65253" x2="679.12" xlink:href="#linearGradient8255" y1="58.30249" y2="89.072998"/>
<linearGradient gradientTransform="translate(-12.7034,6.1358)" gradientUnits="userSpaceOnUse" id="linearGradient7465" x1="1403.7" x2="1412.2" xlink:href="#linearGradient8255" y1="32.220001" y2="47.561001"/>
<linearGradient gradientTransform="translate(12.9607,5.4449)" gradientUnits="userSpaceOnUse" id="linearGradient7467" x1="768.96997" x2="790.39001" xlink:href="#linearGradient8255" y1="486.94" y2="507.5"/>
<linearGradient gradientUnits="userSpaceOnUse" id="linearGradient7469" x1="284.54999" x2="817.01001" xlink:href="#linearGradient8255" y1="-143.24001" y2="-101.51"/>
<linearGradient gradientUnits="userSpaceOnUse" id="linearGradient7471" x1="893.21002" x2="927.47998" xlink:href="#linearGradient8255" y1="-418.62378" y2="-408.84"/>
<linearGradient gradientUnits="userSpaceOnUse" id="linearGradient7473" x1="1643.5" x2="1645.1" xlink:href="#linearGradient8255" y1="-138.08" y2="-105.39"/>
<linearGradient gradientUnits="userSpaceOnUse" id="linearGradient7475" x1="613.41998" x2="659.64001" xlink:href="#linearGradient8255" y1="465.82999" y2="480.78"/>
<linearGradient gradientUnits="userSpaceOnUse" id="linearGradient7477" x1="1013.6" x2="1043.1" xlink:href="#linearGradient8255" y1="-276.37" y2="-276.37"/>
<linearGradient gradientUnits="userSpaceOnUse" id="linearGradient7479" x1="1095.7" x2="1125.8" xlink:href="#linearGradient8255" y1="-127.61" y2="-168.45"/>
<linearGradient gradientTransform="matrix(.94436,0,0,.99927,59.42346,5.83865)" gradientUnits="userSpaceOnUse" id="linearGradient7485" x1="937.63489" x2="1010.6754" xlink:href="#linearGradient8262" y1="66.628281" y2="153.65298"/>
<radialGradient cx="1016.7" cy="1101.8" gradientUnits="userSpaceOnUse" id="radialGradient8268" r="267.14001">
<stop offset="0" stop-color="#fff"/>
<stop offset="0.64553577" stop-color="#783c00"/>
<stop offset="0.72236425" stop-color="#935700"/>
<stop offset="0.83395696" stop-color="#e8d04c"/>
<stop offset="0.88" stop-color="#945800"/>
<stop offset="1" stop-color="#642800"/>
</radialGradient>
<radialGradient cx="1016.7" cy="1101.8" gradientUnits="userSpaceOnUse" id="radialGradient7483" r="267.14001" xlink:href="#radialGradient8268"/>
</defs>
<g transform="matrix(.06173,0,0,.05831,6.99228,49.79185)">
<path d="m1013.3404,46.789001c-56.48386,0 -102.27564,48.491572 -102.27564,108.297359 0,59.80078 45.79178,108.25747 102.27564,108.25747 56.5214,0 102.398,-48.45669 102.398,-108.25747 0,-59.802794 -45.8766,-108.297359 -102.398,-108.297359 z m 0,34.492866c38.5288,0 69.804,33.040453 69.804,73.801493 0,40.76103 -31.2752,73.7965 -69.804,73.7965 -38.49118,0 -69.70987,-33.03547 -69.70987,-73.7965 0,-40.76104 31.21869,-73.801493 69.70987,-73.801493z" fill="#602400"/>
<path d="m148.45,-152.33c0,0 -114.76,-18.13 -15.39,72.716l511.13,380.75 -193.35,613.21c0,0 -59.8,127.25 56.86,54.68l504.1,-390.39 497.2,380.18c0,0 110.2,73.08 65.8,-46.08L1378.5,298.326 1876,-77.024c0,0 125.4,-113.65 -32.5,-81.642 -611.6,596.4 -1171.4,533.08 -1695,6.33z" fill="#602400"/>
<path d="M971.42,153.82 783.69,775 148.45,773.3c0,0 -113.49,-0.35 -15.39,72.72L644.19,1226.8 450.84,1840c0,0 -59.8,145 56.86,54.7l504.1,-390.4 497.2,380.2c0,0 109.9,92 65.8,-46.1L1378.5,1224 1876,848.62c0,0 116.5,-83.19 -32.5,-81.64l-606,6.27 -190.1,-620.85c0,0 -35.3,-133.12 -75.98,1.42 z m 37.98,864.08c11.9,0 22.8,2 33.4,6.8 35.9,16.2 60.4876,70.9659 46.9876,108.2659 -9.3,25.6 -34.7,46.8 -61.8,50.8 -3.4,0.5 -13.7,0.9 -16.4,0.7 -26.53002,-2.5 -57.2176,-27.6659 -70.1176,-50.2659 -6.14,-10.8 -9.45,-25.8 -9.44,-39 0.03,-28.2 17.34,-55.4 42.63,-68.9 10.59,-5.6 21.91,-8.3 34.74,-8.4z" fill="#e8d04c" transform="translate(0,-947.638)"/>
<path d="m1276.0966,60.344836 312.5,-114.92 -295.6,80.782" fill="url(#linearGradient7461)"/>
<path d="m729.18976,23.708578 -269.5,-68.685 291,104.69" fill="#985c00"/>
<path d="m801.16076,394.66492 -128.36,251.31 169.7,-260.32" fill="#b07400"/>
<path d="m745.81976,75.565578 -288.98,-111.53 250.85,127.99" fill="url(#linearGradient7463)"/>
<path d="m1176.8922,390.66865 184.2,274.36 -144.8,-267.49" fill="#985c00"/>
<path d="m1313.8966,94.275836 277.4,-139.82 -310.4,121.53" fill="url(#linearGradient7465)"/>
<path d="m1156.9922,439.39865 196.5,231.31 -190.2,-270.61" fill="#a36b0a"/>
<path d="m855.96076,395.50492 -175.56,256.05 179.64,-214.13" fill="url(#linearGradient7467)"/>
<path d="m809.75,-133.51 -637.69,-1.69 107.03,36.875 556.07,1.468" fill="url(#linearGradient7469)"/>
<path d="m835.16,-96.857 168.54,-557.68v-120.72l-193.95,641.75 25.41,36.653z" fill="url(#linearGradient7471)"/>
<path d="M1207.5,-135.04 1011.8,-774.2v129.16l167.4,546.87 28.3,-36.871z" fill="#b07400"/>
<path d="m1179.2,-98.169 556.2,-5.751 109.4,-37.75 -637.3,6.63 -28.3,36.871z" fill="url(#linearGradient7473)"/>
<path d="m1287.4792,244.14147 175,547.87 72.4,102.41 -202.5,-633.87" fill="#985c00"/>
<path d="m1332.3792,260.55147 527,-397.6 -122.7,42.283003 -449.2,338.909997" fill="#985c00"/>
<path d="M729.41,245.67 279.06,-89.79 159.22,-131.106 687.5,262.424" fill="#985c00"/>
<path d="M687.5,262.42 486.34,900.27 554.94,798.89 729.41,245.67" fill="url(#linearGradient7475)"/>
<path d="M1008.1,456.05 563.94,799.99 491.78,906.64 1009.7,505.58" fill="#985c00"/>
<path d="M1009.7,505.58 1531,904.3 1456.6,799.08 1008.1,456.05" fill="#985c00"/>
<path d="m1043.1,-174.15 -31.3,-328.03 4.1,355.96" fill="url(#linearGradient7477)" transform="matrix(.94513,0,0,1,58.73003,5.64978)"/>
<path d="m999.53,-146.07 2.77,-355.96 -29.77,327.73" fill="#b07400" transform="matrix(.94513,0,0,1,58.73003,5.64978)"/>
<path d="m972.53,-174.3c-117.8,12.49 -216.82,87.914 -262.82,192l21.5,36.003c38.2,-113.14 143.35,-195.42 268.32,-199.77l-27,-28.23z" fill="#985c00" transform="matrix(.94513,0,0,1,58.73003,5.64978)"/>
<path d="m1305.7,20.068c-45.3,-104.94 -144.4,-181.23 -262.6,-194.22l-27.2,27.93c127.1,2.52 234.4,85.684 272.9,200.43" fill="url(#linearGradient7479)" transform="matrix(.94513,0,0,1,58.73003,5.64978)"/>
<path d="m1223,392.13c67,-59.55 109.3,-146.39 109.3,-243.13 0,-20.79 -2,-41.15 -5.7,-60.86l-33,-18.287c6.8,24.845 10.5,50.997 10.5,78.007 0,97.48 -47.4,183.88 -120.5,237.4l39.4,6.87z" fill="#b07400" transform="matrix(.94513,0,0,1,58.73003,5.64978)"/>
<path d="m688.21,86.008c-4,20.382 -6.1,41.442 -6.1,62.992 0,95.18 40.91,180.77 106.09,240.22l41.34,-9.01C760.33,326.4 715.8,242.33 715.8,147.86c0,-27.11 3.67,-53.372 10.54,-78.307l-38.13,16.455z" fill="#985c00" transform="matrix(.94513,0,0,1,58.73003,5.64978)"/>
<path d="m1009.5,828.84c-147.19,0 -266.53,119.35 -266.53,266.56 0,147.2 119.34,266.6 266.53,266.6 147.2,0 266.6,-119.4 266.6,-266.6 0,-147.21 -119.4,-266.56 -266.6,-266.56 z m 0,94.35c95.1,0 172.3,77.11 172.3,172.21 0,95.1 -77.2,172.2 -172.3,172.2 -95.08,0 -172.19,-77.1 -172.19,-172.2 0,-95.1 77.11,-172.21 172.19,-172.21z" fill="url(#radialGradient7483)" transform="matrix(.94513,0,0,1,58.73003,-941.98756)"/>
<path d="m847.08,431.98c47.27,26.8 101.92,42.13 160.12,42.13 56.8,0 110.1,-14.55 156.5,-40.12l6.3,-39.3c-46.1,29.93 -101,47.32 -160.1,47.32 -61.96,0 -119.47,-19.19 -166.9,-51.95l4.08,41.92z" fill="#985c00" transform="matrix(.94513,0,0,1,58.73003,5.64978)"/>
<path d="m1012.7572,41.830412c-58.24827,0 -105.47582,50.003542 -105.47582,111.668578 0,61.66504 47.22755,111.63861 105.47582,111.63861 58.2672,0 105.5797,-49.97357 105.5797,-111.63861 0,-61.667034 -47.3125,-111.668578 -105.5797,-111.668578 z m 0,35.568067c39.7576,0 71.9604,34.073161 71.9604,76.102511 0,42.02936 -32.2028,76.09452 -71.9604,76.09452 -39.69154,0 -71.88485,-34.06516 -71.88485,-76.09452 0,-42.02935 32.19331,-76.102511 71.88485,-76.102511z" fill="url(#linearGradient7485)"/>
</g>
<g transform="matrix(.21795,-.14131,.14131,.21795,13.55862,83.44382)">
<path d="m41.915316,86.081998c15.935534,9.742674 34.238936,1.555141 54.102652,-1.139003 6.973592,-17.075957 1.564787,-37.934593 -0.1139,-52.784793 -16.467592,-1.076695 -30.771191,-8.645709 -49.941339,-1.614314 1.778466,17.330599 4.338464,35.649907 -4.047413,55.53811z" fill="#f5f5f5" stroke="#696969" stroke-linejoin="round" stroke-width="0.5" transform="translate(0,-2.9911482e-6)"/>
<g font-family="Ubuntu" font-size="38.87601852" letter-spacing="0" word-spacing="0">
<path d="m61.941546,39.828349c1.477284,-0.57016 2.915695,-1.295844 4.315238,-2.177057 1.399528,-0.907083 2.682435,-2.034486 3.848726,-3.382214l2.565817,0 0,26.941081 -3.615469,0 0,-21.926074c-0.311019,0.285112 -0.699779,0.583161 -1.166281,0.894148 -0.440604,0.311029 -0.933033,0.609078 -1.477289,0.894149 -0.518354,0.28511 -1.075576,0.557242 -1.671668,0.816396 -0.570188,0.259193 -1.12741,0.47949 -1.671669,0.660892l-1.127405,-2.721321"/>
</g>
<g font-family="Ubuntu" font-size="16" letter-spacing="0" word-spacing="0">
<path d="m68.09802,77.196678 -1.488,0 0,-7.072 -3.712,0 0,7.072 -1.488,0 0,-8.32 6.688,0 0,8.32"/>
<path d="m77.47602,77.196678 -1.488,0 0,-3.68 -3.84,0 0,3.68 -1.488,0 0,-8.32 1.488,0 0,3.392 3.84,0 0,-3.392 1.488,0 0,8.32"/>
</g>
</g>
<g transform="matrix(.32169,.08528,-.08528,.32169,90.38277,86.39015)">
<path d="M41.915316,86.081998C77.289853,77.832684 76.154252,87.637139 96.017968,84.942995 102.73248,64.851926 97.452913,45.497321 95.904068,32.158202 79.813153,28.003725 65.598567,19.707393 45.962729,30.543888 48.19184,46.588839 52.246906,60.642862 41.915316,86.081998z" fill="#f5f5f5" stroke="#696969" stroke-linejoin="round" stroke-width="0.5" transform="translate(0,-2.9911482e-6)"/>
<g font-family="Ubuntu" font-size="38.87601852" letter-spacing="0" word-spacing="0">
<path d="m76.481177,41.150134c-1.8e-5,0.933043 -0.194398,1.84015 -0.58314,2.721321 -0.36286,0.855289 -0.855289,1.71056 -1.477289,2.565817 -0.622032,0.829369 -1.321799,1.658724 -2.099305,2.488065 -0.777533,0.80345 -1.555053,1.593928 -2.332561,2.371438 -0.440606,0.440604 -0.958952,0.95895 -1.555041,1.55504 -0.570191,0.596107 -1.114455,1.218123 -1.632792,1.866049 -0.518355,0.64794 -0.95895,1.269955 -1.321785,1.866049 -0.336932,0.596103 -0.505395,1.114449 -0.505388,1.555041l12.40145,0 0,3.071205 -16.327928,0c-0.02592,-0.155504 -0.03888,-0.311008 -0.03888,-0.466512 -3e-6,-0.155503 -3e-6,-0.298049 0,-0.427636 -3e-6,-1.218113 0.194377,-2.345517 0.58314,-3.382214 0.414674,-1.062606 0.945979,-2.060422 1.593917,-2.993453 0.647928,-0.933016 1.373613,-1.814205 2.177057,-2.643569 0.80343,-0.829345 1.593908,-1.632782 2.371437,-2.410314 0.647924,-0.622003 1.256981,-1.23106 1.827173,-1.827172 0.596087,-0.622002 1.114433,-1.231059 1.555041,-1.827173 0.466499,-0.622 0.829341,-1.256974 1.088528,-1.904925 0.285077,-0.647915 0.427622,-1.334724 0.427636,-2.060429 -1.4e-5,-0.7775 -0.129601,-1.438392 -0.38876,-1.982677 -0.23327,-0.544242 -0.557236,-0.997795 -0.9719,-1.360661 -0.41469,-0.362819 -0.907119,-0.621992 -1.477289,-0.77752 -0.544275,-0.181397 -1.127415,-0.272108 -1.749421,-0.272132 -0.751612,2.4e-5 -1.438421,0.103693 -2.060429,0.311008 -0.622023,0.207362 -1.179246,0.453577 -1.671669,0.738644 -0.492435,0.259197 -0.907112,0.544287 -1.244032,0.855273 -0.33693,0.285113 -0.596103,0.50541 -0.777521,0.660892L60.50313,36.873772c0.233253,-0.259149 0.583137,-0.570157 1.049652,-0.933025 0.466509,-0.388734 1.023731,-0.751577 1.671669,-1.088528 0.647928,-0.336899 1.373613,-0.62199 2.177057,-0.855273 0.80343,-0.233228 1.67166,-0.349856 2.604693,-0.349884 2.824978,2.8e-5 4.93724,0.660919 6.336791,1.982677 1.425437,1.295892 2.138163,3.136021 2.138181,5.520395"/>
</g>
<g font-family="Ubuntu" font-size="16" letter-spacing="0" word-spacing="0">
<path d="m62.86602,76.076678c0.064,0.01067 0.154664,0.02133 0.272,0.032 0.11733,0.01067 0.250664,0.02134 0.4,0.032 0.14933,1e-6 0.303996,0.0053 0.464,0.016 0.170663,10e-7 0.330663,10e-7 0.48,0 0.309329,10e-7 0.602662,-0.02133 0.88,-0.064 0.287995,-0.04266 0.533328,-0.117332 0.736,-0.224 0.213327,-0.106665 0.37866,-0.245332 0.496,-0.416 0.127994,-0.181331 0.191993,-0.410664 0.192,-0.688 -7e-6,-0.266664 -0.05867,-0.48533 -0.176,-0.656 -0.106673,-0.18133 -0.256006,-0.32533 -0.448,-0.432 -0.192006,-0.106663 -0.421339,-0.181329 -0.688,-0.224 -0.256005,-0.04266 -0.533338,-0.064 -0.832,-0.064l-1.776,0 0,2.688m1.584,-3.792c0.287996,5e-6 0.549329,-0.016 0.784,-0.048 0.245328,-0.04266 0.453328,-0.111995 0.624,-0.208 0.181328,-0.096 0.319994,-0.223994 0.416,-0.384 0.106661,-0.159994 0.159994,-0.362661 0.16,-0.608 -6e-6,-0.255993 -0.06401,-0.45866 -0.192,-0.608 -0.128006,-0.149326 -0.298672,-0.261326 -0.512,-0.336 -0.202672,-0.08533 -0.437338,-0.138659 -0.704,-0.16 -0.256004,-0.03199 -0.517338,-0.04799 -0.784,-0.048 -0.245337,7e-6 -0.496003,0.0053 -0.752,0.016 -0.245336,0.01067 -0.453336,0.02134 -0.624,0.032l0,2.352 1.584,0m-0.032,5.056c-0.629337,0 -1.21067,-0.032 -1.744,-0.096 -0.533335,-0.05333 -0.954668,-0.117333 -1.264,-0.192l0,-8.096c0.309332,-0.07466 0.730665,-0.138658 1.264,-0.192 0.53333,-0.06399 1.114663,-0.09599 1.744,-0.096 0.437329,9e-6 0.863995,0.03734 1.28,0.112 0.415994,0.07467 0.783994,0.202675 1.104,0.384 0.319993,0.170675 0.575993,0.410674 0.768,0.72 0.202659,0.298674 0.303992,0.672007 0.304,1.12 -8e-6,0.405339 -0.101341,0.752006 -0.304,1.04 -0.202674,0.288005 -0.474673,0.512005 -0.816,0.672 0.45866,0.160004 0.821326,0.400004 1.088,0.72 0.277325,0.309337 0.415992,0.74667 0.416,1.312 -8e-6,0.501335 -0.101341,0.917335 -0.304,1.248 -0.192007,0.330668 -0.464007,0.597334 -0.816,0.8 -0.34134,0.202667 -0.746673,0.341334 -1.216,0.416 -0.469339,0.08533 -0.970671,0.128 -1.504,0.128"/>
<path d="m76.06327,68.876678 0,1.248 -2.704,0 0,7.072 -1.488,0 0,-7.072 -2.704,0 0,-1.248 6.896,0"/>
</g>
</g>
<g transform="matrix(.41276,.09785,-.09785,.41276,10.78586,74.91625)">
<path d="m41.915316,86.081998c16.304145,4.949749 34.761276,-5.23667 54.102652,-1.139003 6.973592,-17.075957 1.564787,-37.934593 -0.1139,-52.784793l-51.824646,0C41.084255,49.8002 39.141285,66.92179 41.915316,86.081998z" fill="#f5f5f5" stroke="#696969" stroke-linejoin="round" stroke-width="0.5" transform="translate(0,-2.9911482e-6)"/>
<g font-family="Ubuntu" font-size="38.87601852" letter-spacing="0" word-spacing="0">
<path d="m67.112057,58.56659c2.306632,3e-6 3.952382,-0.45355 4.937254,-1.360661 1.010762,-0.907102 1.51615,-2.125216 1.516165,-3.654345 -1.5e-5,-0.984851 -0.207354,-1.814205 -0.622017,-2.488066 -0.414691,-0.67384 -0.958955,-1.205145 -1.632792,-1.593916 -0.673864,-0.414666 -1.464342,-0.699756 -2.371437,-0.855273 -0.8812,-0.181408 -1.788306,-0.272119 -2.721322,-0.272132l-0.933024,0 0,-2.954577 1.282908,0c0.647925,1.6e-5 1.308817,-0.06478 1.982677,-0.19438 0.699758,-0.129571 1.334732,-0.362827 1.904925,-0.699769 0.570169,-0.336908 1.036681,-0.790461 1.399537,-1.36066 0.362829,-0.596081 0.54425,-1.334724 0.544264,-2.215933 -1.4e-5,-0.725665 -0.1296,-1.347681 -0.38876,-1.866049 -0.259187,-0.518324 -0.609071,-0.94596 -1.049652,-1.282909 -0.41469,-0.336902 -0.907119,-0.570157 -1.477289,-0.699768 -0.544275,-0.15548 -1.127415,-0.233232 -1.749421,-0.233256 -1.244041,2.4e-5 -2.306651,0.181445 -3.187834,0.544264 -0.855277,0.362866 -1.580962,0.738667 -2.177057,1.127404l-1.399536,-2.760197c0.311005,-0.207313 0.699765,-0.42761 1.16628,-0.660892 0.492426,-0.259147 1.036689,-0.492403 1.632793,-0.699768 0.596093,-0.207312 1.231067,-0.375775 1.904925,-0.505389 0.69976,-0.155476 1.425445,-0.233228 2.177057,-0.233256 1.425443,2.8e-5 2.656516,0.181449 3.693222,0.544264 1.036679,0.336953 1.891951,0.829382 2.565817,1.477289 0.673835,0.622041 1.179222,1.373644 1.516165,2.254809 0.336908,0.855295 0.50537,1.788319 0.505388,2.799074 -1.8e-5,1.399555 -0.401736,2.604711 -1.205157,3.615469 -0.803453,0.984875 -1.775353,1.736478 -2.915701,2.254809 0.699754,0.207354 1.373604,0.505403 2.021553,0.894149 0.647917,0.388773 1.20514,0.881202 1.671669,1.477288 0.492411,0.596111 0.881171,1.28292 1.16628,2.060429 0.31099,0.77753 0.466494,1.64576 0.466513,2.604694 -1.9e-5,1.166287 -0.207358,2.254814 -0.622017,3.265585 -0.388778,0.984863 -1.010794,1.840134 -1.866049,2.565817 -0.82937,0.725687 -1.879022,1.295868 -3.148957,1.710545 -1.269962,0.414677 -2.773167,0.622016 -4.509618,0.622017 -0.673859,-1e-6 -1.373627,-0.05184 -2.099305,-0.155504 -0.699775,-0.10367 -1.360666,-0.233257 -1.982677,-0.388761 -0.622021,-0.155504 -1.166284,-0.311008 -1.632793,-0.466512 -0.466515,-0.155503 -0.80344,-0.28509 -1.010776,-0.38876l0.699768,-3.148958c0.440591,0.207343 1.166276,0.479475 2.177057,0.816397 1.036688,0.336928 2.293678,0.505391 3.770974,0.505388"/>
</g>
<g font-family="Ubuntu" font-size="16" letter-spacing="0" word-spacing="0">
<path d="m65.673534,76.980666c-0.672004,0 -1.264003,-0.106667 -1.776,-0.32 -0.501335,-0.213333 -0.928002,-0.512 -1.28,-0.896 -0.341334,-0.383999 -0.597334,-0.837332 -0.768,-1.36 -0.170667,-0.533331 -0.256,-1.119997 -0.256,-1.76 0,-0.639995 0.09067,-1.226662 0.272,-1.76 0.191999,-0.533327 0.458666,-0.991993 0.8,-1.376 0.341332,-0.394659 0.757331,-0.698659 1.248,-0.912 0.50133,-0.223992 1.055996,-0.335992 1.664,-0.336 0.373329,8e-6 0.746662,0.03201 1.12,0.096 0.373328,0.06401 0.730661,0.165341 1.072,0.304l-0.336,1.264c-0.224006,-0.10666 -0.485339,-0.191993 -0.784,-0.256 -0.288005,-0.06399 -0.597338,-0.09599 -0.928,-0.096 -0.832004,7e-6 -1.472003,0.26134 -1.92,0.784 -0.437335,0.522672 -0.656002,1.285338 -0.656,2.288 -2e-6,0.448003 0.048,0.85867 0.144,1.232 0.106665,0.373336 0.266664,0.693335 0.48,0.96 0.223997,0.266668 0.506664,0.474668 0.848,0.624 0.34133,0.138668 0.757329,0.208001 1.248,0.208 0.394662,10e-7 0.751995,-0.03733 1.072,-0.112 0.319994,-0.07467 0.57066,-0.154666 0.752,-0.24l0.208,1.248c-0.08534,0.05333 -0.208006,0.106667 -0.368,0.16 -0.160006,0.04267 -0.341339,0.08 -0.544,0.112 -0.202672,0.04267 -0.421339,0.07467 -0.656,0.096 -0.224005,0.032 -0.442671,0.048 -0.656,0.048"/>
<path d="m75.271034,72.644666c-7e-6,-0.970662 -0.240006,-1.717328 -0.72,-2.24 -0.480005,-0.52266 -1.120005,-0.783993 -1.92,-0.784 -0.448003,7e-6 -0.800003,0.01601 -1.056,0.048 -0.245336,0.03201 -0.442669,0.06934 -0.592,0.112l0,5.248c0.181331,0.149335 0.442664,0.293335 0.784,0.432 0.34133,0.138668 0.714663,0.208001 1.12,0.208 0.426662,10e-7 0.789328,-0.07467 1.088,-0.224 0.309328,-0.159999 0.559994,-0.373332 0.752,-0.64 0.191994,-0.277331 0.33066,-0.597331 0.416,-0.96 0.08533,-0.37333 0.127993,-0.77333 0.128,-1.2m1.552,0c-8e-6,0.629337 -0.08534,1.210669 -0.256,1.744 -0.160008,0.533335 -0.400007,0.992001 -0.72,1.376 -0.320007,0.384 -0.714673,0.682667 -1.184,0.896 -0.458672,0.213333 -0.986672,0.32 -1.584,0.32 -0.480004,0 -0.90667,-0.064 -1.28,-0.192 -0.362669,-0.128 -0.634669,-0.250667 -0.816,-0.368l0,3.328 -1.488,0 0,-11.024c0.351999,-0.08532 0.789332,-0.175992 1.312,-0.272 0.533331,-0.106658 1.146663,-0.159992 1.84,-0.16 0.639995,8e-6 1.215995,0.101341 1.728,0.304 0.511994,0.202674 0.949327,0.490674 1.312,0.864 0.362659,0.37334 0.639992,0.832006 0.832,1.376 0.202659,0.533339 0.303992,1.136005 0.304,1.808"/>
</g>
</g>
<g transform="matrix(.45356,-.2168,.2168,.45356,-7.13541,117.79713)">
<path d="m41.915316,86.081998c16.304145,4.949749 34.761276,-5.23667 54.102652,-1.139003 6.973592,-17.075957 1.564787,-37.934593 -0.1139,-52.784793l-51.824646,0C41.084255,49.8002 39.141285,66.92179 41.915316,86.081998z" fill="#f5f5f5" stroke="#696969" stroke-linejoin="round" stroke-width="0.5" transform="translate(0,-2.9911482e-6)"/>
<g font-family="Ubuntu" font-size="38.87601852" letter-spacing="0" word-spacing="0">
<path d="m66.062404,44.648975c3.913508,0.155521 6.777372,1.010792 8.5916,2.565818 1.840114,1.555053 2.760179,3.667314 2.760198,6.336791 -1.9e-5,1.192204 -0.207358,2.29369 -0.622017,3.304461 -0.388778,1.01078 -0.997835,1.87901 -1.827173,2.604693 -0.803453,0.725687 -1.827187,1.295868 -3.071205,1.710545 -1.244045,0.414677 -2.721332,0.622016 -4.431866,0.622017 -0.67386,-1e-6 -1.360669,-0.05184 -2.060429,-0.155504 -0.699775,-0.10367 -1.347708,-0.233257 -1.943801,-0.388761 -0.596104,-0.155504 -1.127409,-0.311008 -1.593917,-0.466512 -0.466515,-0.155503 -0.80344,-0.28509 -1.010776,-0.38876l0.699768,-3.148958c0.440591,0.207343 1.153318,0.479475 2.138181,0.816397 1.01077,0.336928 2.241843,0.505391 3.693222,0.505388 1.16627,3e-6 2.13817,-0.129584 2.915701,-0.38876 0.803425,-0.25917 1.451358,-0.609054 1.943801,-1.049653 0.492415,-0.44059 0.842299,-0.945978 1.049653,-1.516164 0.233241,-0.596093 0.349868,-1.218109 0.349884,-1.866049 -1.6e-5,-0.984851 -0.168478,-1.853081 -0.505388,-2.604693 -0.33694,-0.77751 -0.933039,-1.425443 -1.788297,-1.943801 -0.855285,-0.518335 -1.995647,-0.907095 -3.42109,-1.166281 -1.425462,-0.285077 -3.226716,-0.427623 -5.403766,-0.427636 0.155499,-1.269935 0.272127,-2.462132 0.349884,-3.576594 0.103664,-1.114427 0.194375,-2.202955 0.272132,-3.265585 0.07775,-1.06259 0.14254,-2.112242 0.19438,-3.148958 0.05183,-1.062586 0.103664,-2.177031 0.155504,-3.343338l12.98459,0 0,3.071206 -9.835633,0c-0.02593,0.388784 -0.0648,0.920089 -0.116628,1.593917 -0.05184,0.647955 -0.103677,1.334764 -0.155504,2.060429 -0.05184,0.699788 -0.103677,1.386596 -0.155504,2.060429 -0.05184,0.673868 -0.103677,1.205173 -0.155504,1.593916"/>
</g>
<g font-family="Ubuntu" font-size="16" letter-spacing="0" word-spacing="0">
<path d="m68.46132,77.624748 -1.488,0 0,-7.072 -3.712,0 0,7.072 -1.488,0 0,-8.32 6.688,0 0,8.32"/>
<path d="m76.89532,69.304748 0,1.248 -2.704,0 0,7.072 -1.488,0 0,-7.072 -2.704,0 0,-1.248 6.896,0"/>
</g>
</g>
<g transform="matrix(.4795,-.12189,.12189,.4795,65.72018,69.57206)">
<path d="m41.915316,86.081998c16.304145,4.949749 34.761276,-5.23667 54.102652,-1.139003 6.973592,-17.075957 1.564787,-37.934593 -0.1139,-52.784793l-51.824646,0C41.084255,49.8002 39.141285,66.92179 41.915316,86.081998z" fill="#f5f5f5" stroke="#696969" stroke-linejoin="round" stroke-width="0.29712144" transform="translate(0,-2.9911482e-6)"/>
<g font-family="Ubuntu" font-size="38.87601852" letter-spacing="0" word-spacing="0">
<path d="m59.881117,51.879915c0.492428,-1.140353 1.166278,-2.462136 2.021553,-3.965354 0.855268,-1.529109 1.814209,-3.097106 2.876826,-4.703998 1.088521,-1.606856 2.241841,-3.187813 3.459965,-4.742875 1.244022,-1.555016 2.488053,-2.954551 3.732098,-4.19861l3.459966,0 0,17.105449 3.187833,0 0,2.954577 -3.187833,0 0,6.881055 -3.498842,0 0,-6.881055 -12.051566,0 0,-2.449189M71.932683,38.545441c-0.777533,0.829376 -1.568011,1.7624 -2.371437,2.799073 -0.777531,1.010795 -1.542092,2.073405 -2.293685,3.187833 -0.751611,1.114462 -1.464338,2.254824 -2.138181,3.42109 -0.64794,1.166293 -1.23108,2.306655 -1.749421,3.42109l8.552724,0 0,-12.829086"/>
</g>
<g font-family="Ubuntu" font-size="16" letter-spacing="0" word-spacing="0">
<path d="m64.252477,68.72158 0,2.448c-3e-6,0.629339 0.159997,1.072005 0.48,1.328 0.319997,0.245338 0.75733,0.368004 1.312,0.368 0.405329,4e-6 0.741328,-0.02133 1.008,-0.064 0.277328,-0.04266 0.522661,-0.09066 0.736,-0.144l0,-3.936 1.488,0 0,8.32 -1.488,0 0,-3.232c-0.08534,0.02134 -0.197339,0.048 -0.336,0.08 -0.138672,0.032 -0.298672,0.064 -0.48,0.096 -0.170672,0.02134 -0.352005,0.04267 -0.544,0.064 -0.192004,0.02134 -0.378671,0.032 -0.56,0.032 -0.45867,3e-6 -0.880003,-0.048 -1.264,-0.144 -0.373336,-0.096 -0.698669,-0.255996 -0.976,-0.48 -0.266668,-0.223996 -0.480001,-0.517329 -0.64,-0.88 -0.149334,-0.373328 -0.224001,-0.837328 -0.224,-1.392l0,-2.464 1.488,0"/>
<path d="m77.711727,68.72158 0,1.248 -2.704,0 0,7.072 -1.488,0 0,-7.072 -2.704,0 0,-1.248 6.896,0"/>
</g>
</g>
<g transform="matrix(.50705,.26579,-.26579,.50705,82.94866,85.61126)">
<path d="m41.915316,86.081998c16.304145,4.949749 34.761276,-5.23667 54.102652,-1.139003 6.973592,-17.075957 1.564787,-37.934593 -0.1139,-52.784793l-51.824646,0C41.084255,49.8002 39.141285,66.92179 41.915316,86.081998z" fill="#f5f5f5" stroke="#696969" stroke-linejoin="round" stroke-width="0.36069754" transform="translate(0,-2.9911482e-6)"/>
<g fill="#f00" font-family="Ubuntu" font-size="38.87601852" letter-spacing="0" word-spacing="0">
<path d="m60.775266,50.402626c-3e-6,-2.617638 0.36284,-4.92428 1.088528,-6.919931 0.725682,-2.021533 1.749416,-3.719118 3.071206,-5.092759 1.347694,-1.373595 2.967526,-2.410287 4.859502,-3.110081 1.91787,-0.725659 4.069008,-1.10146 6.453419,-1.127405l0.272132,3.03233c-1.52914,0.02594 -2.928675,0.194404 -4.19861,0.505388 -1.244045,0.311031 -2.35849,0.803461 -3.343337,1.477289 -0.984869,0.673872 -1.814223,1.555061 -2.488066,2.643569 -0.673858,1.06263 -1.179246,2.384413 -1.516164,3.965354 0.673843,-0.310992 1.425446,-0.570166 2.254809,-0.77752 0.855262,-0.207323 1.736451,-0.310992 2.643569,-0.311009 1.52911,1.7e-5 2.824976,0.233273 3.887602,0.699769 1.062595,0.466527 1.930825,1.088543 2.604693,1.866049 0.673832,0.751616 1.153303,1.632805 1.438413,2.643569 0.310988,0.984869 0.466492,2.021562 0.466512,3.110081 -2e-5,0.984867 -0.168483,1.995642 -0.505388,3.03233 -0.336945,1.036698 -0.855291,1.98268 -1.555041,2.837949 -0.673868,0.855274 -1.542098,1.555042 -2.604693,2.099305 -1.062626,0.544264 -2.319616,0.816396 -3.770974,0.816397 -2.954586,-1e-6 -5.209393,-1.010776 -6.764427,-3.03233 -1.529127,-2.021548 -2.293688,-4.80766 -2.293685,-8.358344m8.708228,-2.760197c-0.907118,1.3e-5 -1.74943,0.09072 -2.526941,0.272132 -0.777529,0.155517 -1.555048,0.401732 -2.332561,0.738644 -0.02592,0.285103 -0.05184,0.583153 -0.07775,0.894149 -6e-6,0.285102 -6e-6,0.570192 0,0.855272 -6e-6,1.140373 0.07775,2.215942 0.233257,3.22671 0.155497,1.010783 0.427629,1.90493 0.816396,2.682445 0.41467,0.751607 0.958934,1.360664 1.632793,1.827173 0.673841,0.440597 1.529113,0.660895 2.565817,0.660892 0.85526,3e-6 1.580945,-0.181419 2.177057,-0.544264 0.596085,-0.36284 1.088514,-0.829351 1.477289,-1.399537 0.388744,-0.570176 0.660876,-1.179233 0.816396,-1.827173 0.181405,-0.673844 0.272116,-1.321777 0.272132,-1.943801 -1.6e-5,-1.762369 -0.427652,-3.11007 -1.282908,-4.043105 -0.82937,-0.933012 -2.08636,-1.399524 -3.770974,-1.399537"/>
</g>
<g fill="#f00" font-family="Ubuntu" font-size="16" letter-spacing="0" word-spacing="0">
<path d="m65.38932,77.816748c-0.672004,0 -1.264003,-0.106667 -1.776,-0.32 -0.501335,-0.213333 -0.928002,-0.511999 -1.28,-0.896 -0.341334,-0.383998 -0.597334,-0.837331 -0.768,-1.36 -0.170667,-0.53333 -0.256,-1.119996 -0.256,-1.76 0,-0.639995 0.09067,-1.226661 0.272,-1.76 0.191999,-0.533327 0.458666,-0.991993 0.8,-1.376 0.341332,-0.394659 0.757331,-0.698658 1.248,-0.912 0.50133,-0.223991 1.055996,-0.335991 1.664,-0.336 0.373329,9e-6 0.746662,0.03201 1.12,0.096 0.373328,0.06401 0.73066,0.165342 1.072,0.304l-0.336,1.264c-0.224006,-0.106659 -0.485339,-0.191993 -0.784,-0.256 -0.288005,-0.06399 -0.597338,-0.09599 -0.928,-0.096 -0.832004,7e-6 -1.472003,0.261341 -1.92,0.784 -0.437335,0.522673 -0.656002,1.285339 -0.656,2.288 -2e-6,0.448004 0.048,0.85867 0.144,1.232 0.106665,0.373336 0.266664,0.693336 0.48,0.96 0.223997,0.266669 0.506664,0.474668 0.848,0.624 0.34133,0.138668 0.757329,0.208001 1.248,0.208 0.394662,10e-7 0.751995,-0.03733 1.072,-0.112 0.319994,-0.07466 0.57066,-0.154665 0.752,-0.24l0.208,1.248c-0.08534,0.05333 -0.208006,0.106667 -0.368,0.16 -0.160006,0.04267 -0.341339,0.08 -0.544,0.112 -0.202672,0.04267 -0.421339,0.07467 -0.656,0.096 -0.224005,0.032 -0.442671,0.048 -0.656,0.048"/>
<path d="m70.55482,70.264748c0.330664,-0.266659 0.714664,-0.469325 1.152,-0.608 0.447996,-0.149325 0.874662,-0.223992 1.28,-0.224 1.194661,8e-6 2.095993,0.368008 2.704,1.104 0.618659,0.72534 0.927992,1.738672 0.928,3.04 -8e-6,0.55467 -0.07467,1.088003 -0.224,1.6 -0.149341,0.512002 -0.384008,0.965335 -0.704,1.36 -0.30934,0.394668 -0.704007,0.709334 -1.184,0.944 -0.480006,0.234667 -1.050672,0.352 -1.712,0.352 -0.757337,0 -1.38667,-0.138667 -1.888,-0.416 -0.501335,-0.277333 -0.901335,-0.655999 -1.2,-1.136 -0.288001,-0.479998 -0.490667,-1.039997 -0.608,-1.68 -0.117334,-0.639996 -0.176001,-1.317329 -0.176,-2.032 -10e-7,-0.927994 0.064,-1.791993 0.192,-2.592 0.138666,-0.799991 0.383999,-1.503991 0.736,-2.112 0.351998,-0.607989 0.837331,-1.109322 1.456,-1.504 0.62933,-0.405321 1.434662,-0.677321 2.416,-0.816 0.287994,-0.04265 0.538661,-0.07465 0.752,-0.096 0.223994,-0.03199 0.415994,-0.05865 0.576,-0.08 0.17066,-0.02132 0.325326,-0.04265 0.464,-0.064 0.138659,-0.03199 0.282659,-0.06399 0.432,-0.096l0.16,1.344c-0.07467,0.02135 -0.154674,0.03735 -0.24,0.048 -0.07467,0.01068 -0.186674,0.02668 -0.336,0.048 -0.138674,0.02134 -0.330673,0.04801 -0.576,0.08 -0.234673,0.03201 -0.544006,0.06934 -0.928,0.112 -1.056005,0.117344 -1.86667,0.437344 -2.432,0.96 -0.565336,0.522676 -0.912002,1.344009 -1.04,2.464m-0.096,2.544c-2e-6,0.501338 0.032,0.976004 0.096,1.424 0.07466,0.448003 0.197331,0.842669 0.368,1.184 0.181331,0.341335 0.42133,0.613335 0.72,0.816 0.298663,0.192001 0.682663,0.288001 1.152,0.288 0.405329,10e-7 0.751995,-0.07466 1.04,-0.224 0.287994,-0.159998 0.522661,-0.373331 0.704,-0.64 0.181327,-0.266664 0.31466,-0.575997 0.4,-0.928 0.08533,-0.362663 0.127993,-0.746663 0.128,-1.152 -7e-6,-0.362662 -0.03734,-0.714662 -0.112,-1.056 -0.06401,-0.341328 -0.186673,-0.645327 -0.368,-0.912 -0.181339,-0.26666 -0.426672,-0.479993 -0.736,-0.64 -0.298672,-0.159993 -0.677338,-0.239993 -1.136,-0.24 -0.448004,7e-6 -0.880003,0.09601 -1.296,0.288 -0.405336,0.192007 -0.720002,0.426673 -0.944,0.704 -0.01067,0.117339 -0.016,0.282673 -0.016,0.496 -2e-6,0.213339 -2e-6,0.410672 0,0.592"/>
</g>
</g>
<path d="m44.846907,80.61653 51.82464,0c1.96897,18.37593 -0.31431,37.48903 0,55.2906 -16.79858,0.35722 -33.37368,0.88206 -51.82464,0 -0.57879,-18.4302 -1.48119,-36.8604 0,-55.2906z" fill="#f5f5f5" stroke="#696969" stroke-linejoin="round" stroke-width="0.2"/>
<path d="m43.880427,80.37491 51.82464,0c1.96897,18.37593 -0.3143,37.48903 0,55.2906 -16.79858,0.35722 -33.37367,0.88206 -51.82464,0 -0.57879,-18.4302 -1.48118,-36.8604 0,-55.2906z" fill="#f5f5f5" stroke="#808080" stroke-linejoin="round" stroke-width="0.2"/>
<path d="m44.444207,80.37491 51.82464,0c-0.0871,18.60438 -0.31432,37.48903 0,55.2906 -16.79858,0.35722 -33.37368,0.88206 -51.82464,0 -0.57879,-18.4302 -1.48119,-36.8604 0,-55.2906z" fill="#f5f5f5" stroke="#696969" stroke-linejoin="round" stroke-width="0.2"/>
<path d="m44.444207,80.69707 51.01924,-0.48324c-0.0871,18.60438 -0.31431,37.48903 0,55.2906 -16.79858,0.35722 -33.37367,0.88206 -51.82464,0 -0.57878,-18.4302 -0.67579,-36.37716 0.8054,-54.80736z" fill="#f5f5f5" stroke="#696969" stroke-linejoin="round" stroke-width="0.2"/>
<path d="m42.280097,133.33223c17.47427,3.97841 37.91723,-7.88587 54.10265,-0.17253 -3.20933,-18.04798 -1.89834,-38.26517 -0.1139,-52.78479l-51.82464,0c-2.99517,17.642 -4.93814,33.79711 -2.16411,52.95732z" fill="#f5f5f5" stroke="#696969" stroke-linejoin="round" stroke-width="0.2"/>
<g fill="#f00" font-family="Ubuntu" font-size="32.83263779" letter-spacing="0" transform="translate(-67.9312,-329.1415)" word-spacing="0">
<path d="m133.66898,440.50128c0.13133,-1.75107 0.43776,-3.5897 0.91931,-5.51588 0.50343,-1.94806 1.11631,-3.83047 1.83863,-5.64722 0.72231,-1.83861 1.51029,-3.53496 2.36395,-5.08905 0.87553,-1.57595 1.72918,-2.85642 2.56095,-3.84142l-11.0646,0 0,-2.65945 14.47919,0 0,2.52812c-0.72233,0.83178 -1.52126,1.98092 -2.39678,3.44742 -0.87555,1.44466 -1.70731,3.07534 -2.49528,4.89207 -0.76611,1.79486 -1.4337,3.72104 -2.00279,5.77854 -0.54722,2.03563 -0.88649,4.07125 -1.01781,6.10687l-3.18477,0"/>
</g>
<g fill="#f00" font-family="Ubuntu" font-size="14.22664928" letter-spacing="0" transform="translate(-67.9312,-329.1415)" word-spacing="0">
<path d="m130.68175,453.70167c0.0569,0.009 0.13752,0.019 0.24185,0.0285 0.10433,0.009 0.22288,0.019 0.35567,0.0285 0.13278,0 0.2703,0.005 0.41257,0.0142 0.15175,0 0.29402,0 0.4268,0 0.27505,0 0.53587,-0.019 0.78247,-0.0569 0.25607,-0.0379 0.47421,-0.10433 0.65442,-0.19917 0.18969,-0.0948 0.33669,-0.21814 0.44103,-0.36989 0.11381,-0.16124 0.17071,-0.36515 0.17072,-0.61175 -1e-5,-0.23711 -0.0522,-0.43154 -0.15649,-0.58329 -0.0948,-0.16124 -0.22764,-0.28928 -0.39835,-0.38412 -0.17073,-0.0948 -0.37464,-0.16123 -0.61175,-0.19918 -0.22763,-0.0379 -0.47422,-0.0569 -0.73978,-0.0569l-1.57916,0 0,2.39007m1.40844,-3.37171c0.25607,0 0.48844,-0.0142 0.6971,-0.0427 0.21814,-0.0379 0.40309,-0.0996 0.55484,-0.18495 0.16123,-0.0854 0.28453,-0.19917 0.3699,-0.34144 0.0948,-0.14226 0.14226,-0.32246 0.14226,-0.54061 0,-0.22762 -0.0569,-0.40782 -0.17072,-0.54061 -0.11382,-0.13278 -0.26557,-0.23236 -0.45525,-0.29876 -0.18021,-0.0759 -0.38887,-0.12329 -0.62597,-0.14227 -0.22763,-0.0284 -0.46,-0.0427 -0.69711,-0.0427 -0.21814,1e-5 -0.44103,0.005 -0.66865,0.0142 -0.21815,0.009 -0.40309,0.019 -0.55484,0.0284l0,2.09132 1.40844,0m-0.0285,4.49562c-0.55958,0 -1.07648,-0.0285 -1.5507,-0.0854 -0.47422,-0.0474 -0.84886,-0.10433 -1.12391,-0.17072l0,-7.19868c0.27505,-0.0664 0.64969,-0.12329 1.12391,-0.17072 0.47422,-0.0569 0.99112,-0.0854 1.5507,-0.0854 0.38886,0 0.76824,0.0332 1.13814,0.0996 0.36988,0.0664 0.6971,0.18021 0.98164,0.34144 0.28452,0.15176 0.51215,0.36516 0.68287,0.6402 0.1802,0.26557 0.2703,0.59753 0.27031,0.99587 -1e-5,0.36041 -0.0901,0.66865 -0.27031,0.92473 -0.18021,0.25608 -0.42206,0.45526 -0.72555,0.59752 0.40782,0.14227 0.73029,0.35567 0.96741,0.6402 0.24659,0.27505 0.36988,0.66391 0.36989,1.16658 -1e-5,0.44577 -0.0901,0.81567 -0.27031,1.10968 -0.17072,0.29402 -0.41257,0.53113 -0.72555,0.71133 -0.30351,0.18021 -0.66392,0.30351 -1.08123,0.3699 -0.41732,0.0759 -0.86309,0.11381 -1.33731,0.11381"/>
<path d="m140.41033,454.86826c-0.59752,0 -1.12391,-0.0948 -1.57916,-0.28453 -0.44577,-0.18969 -0.82514,-0.45526 -1.13813,-0.7967 -0.3035,-0.34143 -0.53113,-0.74452 -0.68288,-1.20926 -0.15175,-0.47422 -0.22762,-0.99586 -0.22762,-1.56493 0,-0.56906 0.0806,-1.09071 0.24185,-1.56493 0.17072,-0.47422 0.40783,-0.88205 0.71133,-1.2235 0.3035,-0.35091 0.6734,-0.62122 1.10968,-0.81091 0.44577,-0.19917 0.93896,-0.29876 1.47957,-0.29876 0.33195,0 0.66391,0.0285 0.99587,0.0854 0.33195,0.0569 0.64968,0.14701 0.95318,0.2703l-0.29876,1.12391c-0.19917,-0.0948 -0.43154,-0.17072 -0.6971,-0.22763 -0.25609,-0.0569 -0.53113,-0.0853 -0.82515,-0.0854 -0.73979,1e-5 -1.30885,0.23238 -1.7072,0.69711 -0.38886,0.46474 -0.58329,1.14288 -0.58329,2.03441 0,0.39835 0.0427,0.7635 0.12804,1.09545 0.0948,0.33196 0.23711,0.61649 0.4268,0.8536 0.19917,0.23711 0.45051,0.42206 0.75401,0.55484 0.3035,0.1233 0.67339,0.18495 1.10968,0.18494 0.35092,1e-5 0.66865,-0.0332 0.95319,-0.0996 0.28453,-0.0664 0.50741,-0.13752 0.66865,-0.2134l0.18495,1.10968c-0.0759,0.0474 -0.18496,0.0948 -0.32722,0.14226 -0.14227,0.0379 -0.3035,0.0711 -0.4837,0.0996 -0.18021,0.0379 -0.37464,0.0664 -0.58329,0.0854 -0.19918,0.0285 -0.39361,0.0427 -0.5833,0.0427"/>
</g>
<g fill="#b3b3b3" stroke="#696969" transform="translate(.3648,48.2167)">
<path d="m43.837803,15.642652 51.824642,0 0,16.515546 -51.824642,0c-1.011765,-5.336555 -0.805704,-10.87608 0,-16.515546z" fill="#b3b3b3" stroke="#696969" stroke-linejoin="round" stroke-width="0.5"/>
<path d="m95.662445,15.642655 0.714073,0.384742c0.15323,5.457475 0.223609,10.914949 0,16.372424l-0.714073,-0.241619c-0.319593,-5.505182 -0.206696,-11.010365 0,-16.515547z" fill="#b3b3b3" stroke="#696969" stroke-linejoin="round" stroke-width="0.5" transform="translate(0,-2.9911482e-6)"/>
</g>
<g fill="#008000" stroke="#006400">
<g fill="#008000" stroke="#006400" transform="translate(-4.4023,48.2167)">
<g fill="#008000" stroke="#006400">
<path d="m31.184,8.531c-2.023,1.254 -2.951,4.793 -5.349,5.373 -0.245,-1.335 0.845,-2.332 1.263,-3.538 0.627,-1.813 0.37,-2.83 -0.354,-4.448 -0.432,2.387 -3.288,3.444 -3.93,5.75 -0.462,1.672 0.26,3.4 0.067,5.047 -0.132,1.104 -1.15,3.917 -2.618,2.455 -1.057,-1.055 -0.58,-5.741 -0.454,-7.223 -2.288,2.979 -3.738,5.709 -3.001,9.401 0.438,2.196 1.269,4.517 -0.087,6.611 -0.938,-0.709 -0.674,-1.807 -0.886,-2.952 -0.29,-1.555 -1.403,-2.243 -1.641,-3.666 0.476,1.253 -1.145,2.571 -1.577,3.853 -0.518,1.536 -0.434,3.354 -0.009,4.881 0.806,2.899 1.379,4.135 -0.307,6.82 -1.675,-1.093 0.377,-5.772 -2.378,-5.898 0.57,1.181 -0.57,2.358 -1.067,3.514 -0.665,1.54 -0.8,3.027 -0.269,4.671 0.33,1.022 1.307,1.919 1.53,2.868 0.268,1.135 -0.407,2.175 -0.35,3.29C7.868,44.871 6.691,42.512 6.42,40.608 4.584,43.166 5.687,46.712 7.2,49.091 8.681,51.416 7.86,52.456 8.151,55.007 8.371,54.262 8.57,53.589 8.484,52.831 6.92,52.669 6.321,50.764 6.236,49.426 1.411,50.931 9.341,59.799 8.587,62.358 7.37,62.209 5.801,60.094 5.889,58.847c-3.104,5.867 4.646,7.646 4.798,12.489 -1.82,-0.448 -1.943,-3.583 -4.422,-3.695 1.6,0.758 1.364,2.686 1.765,4.139 0.53,1.923 1.704,4.116 3.322,5.36 2.16,1.659 3.278,2.842 5.04,4.948 -1.589,-0.66 -4.713,-1.078 -5.856,-2.314 1.087,3.444 2.885,4.359 5.92,5.939 2.494,1.299 3.55,3.397 5.794,4.893 -1.353,0.258 -2.188,-0.528 -3.451,-0.759 -1.108,-0.203 -1.979,0.037 -3.022,-0.111 1.662,-0.139 1.821,1.586 2.686,2.625 1.111,1.338 2.195,1.764 3.858,2.014 1.19,0.178 2.506,-0.262 3.574,0.319 1.085,0.591 1.833,2.069 2.862,2.818 -2.55,-0.183 -4.717,-1.583 -7.26,-0.365 1.858,0.234 2.781,1.236 4.188,2.321 1.555,1.201 2.823,1.621 4.689,1.965 2.217,0.409 5.293,-0.068 6.669,2.069 -1.009,-0.125 -2.199,-0.517 -3.292,-0.699 -1.495,-0.249 -3.074,0.109 -4.507,-0.289 2.244,0.163 3.823,2.979 6.221,3.354 1.825,0.284 4.423,0.394 6.24,0.148 -1.61,0.608 -3.401,0.611 -5.097,0.89 3.232,1.813 7.332,0.331 10.769,1.014 -0.478,1.074 -2.455,1.059 -3.528,1.504 4.095,0.864 8.063,0.519 12.053,1.03 2.871,0.367 5.654,1.15 8.578,1.214 0.835,0.018 1.527,-0.644 1.546,-1.479 0.02,-0.836 -0.643,-1.527 -1.477,-1.549 -2.233,-0.055 -5.741,-0.015 -7.702,-1.025 -0.61,-0.314 -4.593,-5.172 -4.389,-5.5 -0.696,1.115 -1.153,2.451 -1.115,3.754 -2.845,0.569 -2.592,-6.625 -4.696,-7.734 -1.338,2.313 -0.736,4.46 -0.168,6.737 -2.173,-0.771 -3.755,-1.56 -3.813,-3.729 -0.035,-1.262 0.539,-2.468 0.136,-4.036 -0.411,-1.597 -1.347,-2.903 -1.938,-4.423 -1.587,2.571 -4.964,4.451 -3.002,7.995 -2.813,-1.316 -2.514,-3.263 -1.603,-5.881 0.621,-1.786 1.762,-3.179 1.144,-5.187 -0.364,-1.189 -1.723,-3.364 -3.049,-2.59 -0.156,1.914 -0.053,3.479 -1.816,4.876 -1.159,0.918 -3.541,1.616 -1.514,3.585 -0.922,-0.514 -2.5,-1.992 -2.706,-3.081 -0.304,-1.594 0.618,-1.625 1.5,-2.541 2.634,-2.743 2.849,-7.397 -0.769,-9.552 -0.021,1.892 -0.682,4.491 -2.473,5.468 -2.052,1.116 -3.125,0.11 -2.303,3.326 -2.413,-2.774 -4.09,-6.239 0.039,-7.999 3.073,-1.31 4.232,-3.68 2.259,-6.913 0.692,3.612 -2.492,2.085 -4.206,2.009 -2.851,-0.132 -4.302,2.228 -3.483,4.666 -1.674,-1.728 -2.37,-5.79 -0.123,-7.437 1.382,-1.013 2.974,0.121 4.115,-1.065 1.646,-1.706 0.508,-5.681 -1.105,-6.959 -0.546,3.339 -4.442,2.15 -6.125,3.921 -0.997,1.05 -1.297,3.47 -1.251,4.813 -0.634,-1.08 -1.386,-3.5 -1.037,-4.988 0.718,-3.044 3.873,-4.254 5.95,-5.923 1.373,-1.104 1.776,-3.734 1.38,-5.332 -0.942,1.837 -3.033,1.331 -4.629,1.937 -2.065,0.785 -5.567,3.659 -4.645,6.198 -1.445,-2.045 -0.896,-5.371 0.862,-6.912 1.063,-0.932 2.344,-1.103 3.634,-1.504 1.595,-0.497 2.666,-1.323 3.74,-2.578 0.538,-0.629 1.11,-0.956 1.31,-1.817 0.1,-0.428 -0.458,-2.321 -0.423,-2.368 -1.274,1.745 -3.658,1.257 -5.489,1.764 -1.267,0.351 -4.655,1.819 -4.772,3.396 0.314,-4.201 3.848,-5.107 7.132,-6.292 1.318,-0.476 2.682,-0.821 3.774,-1.757 1.15,-0.982 1.248,-2.805 2.182,-3.676 -2.118,1.975 -6.56,0.179 -9.083,0.539 -1.184,0.168 -1.946,0.728 -2.877,1.169 0.42,-0.2 0.99,-2.322 1.764,-2.837 1.003,-0.667 3.105,-1.186 4.28,-1.059 1.741,0.191 3.082,1.029 4.799,0.146 1.373,-0.706 3.833,-3.428 3.694,-4.966 -1.857,1.712 -4.228,1.683 -6.249,0.371 -1.619,-1.05 -3.415,-2.76 -5.304,-0.697 -0.092,-0.087 -0.186,-0.171 -0.282,-0.254 -0.89,-0.749 2.61,-3.511 3.271,-3.618 2.054,-0.333 3.7,1.682 5.62,1.903 3.708,0.426 5.145,-3.025 6.405,-6.011 -0.708,1.677 -5.002,0.812 -6.135,0.525 -1.705,-0.434 -3.736,-1.014 -5.229,0.456 0.47,-1.453 2.059,-3.661 3.704,-3.884 1.638,-0.221 2.823,1.452 4.382,1.576 3.098,0.247 6.359,-3.432 6.836,-6.248 -1.962,1.544 -3.314,1.707 -5.649,1.103 -1.925,-0.499 -2.525,-0.683 -4.25,0.438 1.51,-3.063 3.763,-3.341 6.605,-3.133 2.723,0.201 7.351,-1.858 6.438,-5.436 -2.324,2.028 -5.604,0.518 -7.813,2.228 2.224,-3.821 10.883,-5.901 10.327,-11.17 -1.794,2.056 -5.15,1.688 -7.432,3.104z" fill="#008000" stroke="#006400" stroke-width="0.50459999"/>
<path d="m16.086,28.653c-7.878,14.205 -9.975,28.158 -6.06,40.354 3.03,9.444 7.756,17.555 14.046,24.104 5.037,5.241 11.075,9.494 17.946,12.637 5.146,2.354 11.419,4.824 17.155,5.142 6.032,0.333 10.836,1.261 16.066,4.751 2.163,1.442 3.838,3.613 5.859,4.981 1.956,1.324 5.188,2.013 7.474,3.067 -0.301,-2.439 -4.355,-5.554 -6.219,-7.04 -2.329,-1.855 -4.574,-3.44 -7.177,-4.856 -2.947,-1.604 -6.802,-2.874 -10.115,-3.545 -2.604,-0.527 -5.308,-0.288 -7.931,-0.804 -4.807,-0.946 -9.513,-2.452 -13.962,-4.499C36.666,99.954 30.958,95.921 26.203,90.958 20.261,84.756 15.787,77.058 12.908,68.082 8.304,53.731 13.515,39.556 18.698,30.189 24.385,19.912 31.956,11.378 31.368,10.785 30.778,10.193 21.987,18.018 16.086,28.653z" fill="#008000" stroke="#006400" stroke-width="0.5"/>
</g>
</g>
<g fill="#008000" stroke="#006400" transform="matrix(-1,0,0,1,142.82549,48.21671)">
<g fill="#008000" stroke="#006400">
<path d="m31.184,8.531c-2.023,1.254 -2.951,4.793 -5.349,5.373 -0.245,-1.335 0.845,-2.332 1.263,-3.538 0.627,-1.813 0.37,-2.83 -0.354,-4.448 -0.432,2.387 -3.288,3.444 -3.93,5.75 -0.462,1.672 0.26,3.4 0.067,5.047 -0.132,1.104 -1.15,3.917 -2.618,2.455 -1.057,-1.055 -0.58,-5.741 -0.454,-7.223 -2.288,2.979 -3.738,5.709 -3.001,9.401 0.438,2.196 1.269,4.517 -0.087,6.611 -0.938,-0.709 -0.674,-1.807 -0.886,-2.952 -0.29,-1.555 -1.403,-2.243 -1.641,-3.666 0.476,1.253 -1.145,2.571 -1.577,3.853 -0.518,1.536 -0.434,3.354 -0.009,4.881 0.806,2.899 1.379,4.135 -0.307,6.82 -1.675,-1.093 0.377,-5.772 -2.378,-5.898 0.57,1.181 -0.57,2.358 -1.067,3.514 -0.665,1.54 -0.8,3.027 -0.269,4.671 0.33,1.022 1.307,1.919 1.53,2.868 0.268,1.135 -0.407,2.175 -0.35,3.29C7.868,44.871 6.691,42.512 6.42,40.608 4.584,43.166 5.687,46.712 7.2,49.091 8.681,51.416 7.86,52.456 8.151,55.007 8.371,54.262 8.57,53.589 8.484,52.831 6.92,52.669 6.321,50.764 6.236,49.426 1.411,50.931 9.341,59.799 8.587,62.358 7.37,62.209 5.801,60.094 5.889,58.847c-3.104,5.867 4.646,7.646 4.798,12.489 -1.82,-0.448 -1.943,-3.583 -4.422,-3.695 1.6,0.758 1.364,2.686 1.765,4.139 0.53,1.923 1.704,4.116 3.322,5.36 2.16,1.659 3.278,2.842 5.04,4.948 -1.589,-0.66 -4.713,-1.078 -5.856,-2.314 1.087,3.444 2.885,4.359 5.92,5.939 2.494,1.299 3.55,3.397 5.794,4.893 -1.353,0.258 -2.188,-0.528 -3.451,-0.759 -1.108,-0.203 -1.979,0.037 -3.022,-0.111 1.662,-0.139 1.821,1.586 2.686,2.625 1.111,1.338 2.195,1.764 3.858,2.014 1.19,0.178 2.506,-0.262 3.574,0.319 1.085,0.591 1.833,2.069 2.862,2.818 -2.55,-0.183 -4.717,-1.583 -7.26,-0.365 1.858,0.234 2.781,1.236 4.188,2.321 1.555,1.201 2.823,1.621 4.689,1.965 2.217,0.409 5.293,-0.068 6.669,2.069 -1.009,-0.125 -2.199,-0.517 -3.292,-0.699 -1.495,-0.249 -3.074,0.109 -4.507,-0.289 2.244,0.163 3.823,2.979 6.221,3.354 1.825,0.284 4.423,0.394 6.24,0.148 -1.61,0.608 -3.401,0.611 -5.097,0.89 3.232,1.813 7.332,0.331 10.769,1.014 -0.478,1.074 -2.455,1.059 -3.528,1.504 4.095,0.864 8.063,0.519 12.053,1.03 2.871,0.367 5.654,1.15 8.578,1.214 0.835,0.018 1.527,-0.644 1.546,-1.479 0.02,-0.836 -0.643,-1.527 -1.477,-1.549 -2.233,-0.055 -5.741,-0.015 -7.702,-1.025 -0.61,-0.314 -4.593,-5.172 -4.389,-5.5 -0.696,1.115 -1.153,2.451 -1.115,3.754 -2.845,0.569 -2.592,-6.625 -4.696,-7.734 -1.338,2.313 -0.736,4.46 -0.168,6.737 -2.173,-0.771 -3.755,-1.56 -3.813,-3.729 -0.035,-1.262 0.539,-2.468 0.136,-4.036 -0.411,-1.597 -1.347,-2.903 -1.938,-4.423 -1.587,2.571 -4.964,4.451 -3.002,7.995 -2.813,-1.316 -2.514,-3.263 -1.603,-5.881 0.621,-1.786 1.762,-3.179 1.144,-5.187 -0.364,-1.189 -1.723,-3.364 -3.049,-2.59 -0.156,1.914 -0.053,3.479 -1.816,4.876 -1.159,0.918 -3.541,1.616 -1.514,3.585 -0.922,-0.514 -2.5,-1.992 -2.706,-3.081 -0.304,-1.594 0.618,-1.625 1.5,-2.541 2.634,-2.743 2.849,-7.397 -0.769,-9.552 -0.021,1.892 -0.682,4.491 -2.473,5.468 -2.052,1.116 -3.125,0.11 -2.303,3.326 -2.413,-2.774 -4.09,-6.239 0.039,-7.999 3.073,-1.31 4.232,-3.68 2.259,-6.913 0.692,3.612 -2.492,2.085 -4.206,2.009 -2.851,-0.132 -4.302,2.228 -3.483,4.666 -1.674,-1.728 -2.37,-5.79 -0.123,-7.437 1.382,-1.013 2.974,0.121 4.115,-1.065 1.646,-1.706 0.508,-5.681 -1.105,-6.959 -0.546,3.339 -4.442,2.15 -6.125,3.921 -0.997,1.05 -1.297,3.47 -1.251,4.813 -0.634,-1.08 -1.386,-3.5 -1.037,-4.988 0.718,-3.044 3.873,-4.254 5.95,-5.923 1.373,-1.104 1.776,-3.734 1.38,-5.332 -0.942,1.837 -3.033,1.331 -4.629,1.937 -2.065,0.785 -5.567,3.659 -4.645,6.198 -1.445,-2.045 -0.896,-5.371 0.862,-6.912 1.063,-0.932 2.344,-1.103 3.634,-1.504 1.595,-0.497 2.666,-1.323 3.74,-2.578 0.538,-0.629 1.11,-0.956 1.31,-1.817 0.1,-0.428 -0.458,-2.321 -0.423,-2.368 -1.274,1.745 -3.658,1.257 -5.489,1.764 -1.267,0.351 -4.655,1.819 -4.772,3.396 0.314,-4.201 3.848,-5.107 7.132,-6.292 1.318,-0.476 2.682,-0.821 3.774,-1.757 1.15,-0.982 1.248,-2.805 2.182,-3.676 -2.118,1.975 -6.56,0.179 -9.083,0.539 -1.184,0.168 -1.946,0.728 -2.877,1.169 0.42,-0.2 0.99,-2.322 1.764,-2.837 1.003,-0.667 3.105,-1.186 4.28,-1.059 1.741,0.191 3.082,1.029 4.799,0.146 1.373,-0.706 3.833,-3.428 3.694,-4.966 -1.857,1.712 -4.228,1.683 -6.249,0.371 -1.619,-1.05 -3.415,-2.76 -5.304,-0.697 -0.092,-0.087 -0.186,-0.171 -0.282,-0.254 -0.89,-0.749 2.61,-3.511 3.271,-3.618 2.054,-0.333 3.7,1.682 5.62,1.903 3.708,0.426 5.145,-3.025 6.405,-6.011 -0.708,1.677 -5.002,0.812 -6.135,0.525 -1.705,-0.434 -3.736,-1.014 -5.229,0.456 0.47,-1.453 2.059,-3.661 3.704,-3.884 1.638,-0.221 2.823,1.452 4.382,1.576 3.098,0.247 6.359,-3.432 6.836,-6.248 -1.962,1.544 -3.314,1.707 -5.649,1.103 -1.925,-0.499 -2.525,-0.683 -4.25,0.438 1.51,-3.063 3.763,-3.341 6.605,-3.133 2.723,0.201 7.351,-1.858 6.438,-5.436 -2.324,2.028 -5.604,0.518 -7.813,2.228 2.224,-3.821 10.883,-5.901 10.327,-11.17 -1.794,2.056 -5.15,1.688 -7.432,3.104z" fill="#008000" stroke="#006400" stroke-width="0.50459999"/>
<path d="m16.086,28.653c-7.878,14.205 -9.975,28.158 -6.06,40.354 3.03,9.444 7.756,17.555 14.046,24.104 5.037,5.241 11.075,9.494 17.946,12.637 5.146,2.354 11.419,4.824 17.155,5.142 6.032,0.333 10.836,1.261 16.066,4.751 2.163,1.442 3.838,3.613 5.859,4.981 1.956,1.324 5.188,2.013 7.474,3.067 -0.301,-2.439 -4.355,-5.554 -6.219,-7.04 -2.329,-1.855 -4.574,-3.44 -7.177,-4.856 -2.947,-1.604 -6.802,-2.874 -10.115,-3.545 -2.604,-0.527 -5.308,-0.288 -7.931,-0.804 -4.807,-0.946 -9.513,-2.452 -13.962,-4.499C36.666,99.954 30.958,95.921 26.203,90.958 20.261,84.756 15.787,77.058 12.908,68.082 8.304,53.731 13.515,39.556 18.698,30.189 24.385,19.912 31.956,11.378 31.368,10.785 30.778,10.193 21.987,18.018 16.086,28.653z" fill="#008000" stroke="#006400" stroke-width="0.5"/>
</g>
</g>
</g>
<g fill="url(#linearGradient5201)" stroke="#696969" transform="translate(.3648,48.2167)">
<path d="m43.837803,15.642652 51.824642,0 0,16.515546 -51.824642,0c-1.011765,-5.336555 -0.805704,-10.87608 0,-16.515546z" fill="url(#linearGradient5201)" stroke="#696969" stroke-linejoin="round" stroke-width="0.5"/>
<path d="m95.662445,15.642655 0.714073,0.384742c0.15323,5.457475 0.223609,10.914949 0,16.372424l-0.714073,-0.241619c-0.319593,-5.505182 -0.206696,-11.010365 0,-16.515547z" fill="url(#linearGradient5201)" stroke="#696969" stroke-linejoin="round" stroke-width="0.5" transform="translate(0,-2.9911482e-6)"/>
</g>
</svg>
