<?xml version="1.0" encoding="utf-8"?>
<!-- Generator: Adobe Illustrator 15.0.0, SVG Export Plug-In . SVG Version: 6.00 Build 0)  -->
<!DOCTYPE svg PUBLIC "-//W3C//DTD SVG 1.1//EN" "http://www.w3.org/Graphics/SVG/1.1/DTD/svg11.dtd">
<svg version="1.1" id="svg2" xmlns:svg="http://www.w3.org/2000/svg"
	 xmlns="http://www.w3.org/2000/svg" xmlns:xlink="http://www.w3.org/1999/xlink" x="0px" y="0px" width="733px" height="675px"
	 viewBox="0 0 733 675" enable-background="new 0 0 733 675" xml:space="preserve">
<path id="path1529" d="M204.456,303.423c-3.396-1.112-5.609-4.01-5.891-7.707c-0.228-2.985,0.532-5.634,2.117-7.388
	c1.76-1.948,4.021-2.842,6.75-2.667c4.989,0.32,8.195,4.441,7.771,9.988c-0.363,4.733-3.397,7.788-7.957,8.001
	C206.073,303.705,205.066,303.623,204.456,303.423z M209.495,301.07c1.193-0.614,2.009-1.504,2.64-2.883
	c0.438-0.952,0.52-1.516,0.52-3.514c0-1.996-0.083-2.56-0.52-3.512c-1.085-2.37-2.66-3.387-5.252-3.389
	c-1.923-0.001-2.764,0.334-4.131,1.643c-1.205,1.155-1.646,2.596-1.646,5.371c0,1.886,0.087,2.455,0.521,3.398
	c0.801,1.731,1.909,2.734,3.668,3.313C206.229,301.806,208.518,301.572,209.495,301.07z M201.925,283.492
	c-0.187-0.225-0.238-5.424-0.196-19.176c0.053-17.323,0.089-18.887,0.436-19.105c0.274-0.173,0.478-0.155,0.736,0.062
	c0.322,0.267,0.357,2.225,0.357,19.142c0,14.354-0.063,18.909-0.271,19.116C202.629,283.886,202.241,283.873,201.925,283.492z
	 M210.307,283.492c-0.188-0.225-0.24-5.424-0.197-19.176c0.053-17.323,0.089-18.887,0.436-19.105
	c0.274-0.173,0.478-0.155,0.736,0.062c0.322,0.267,0.359,2.225,0.359,19.142c0,14.354-0.064,18.909-0.272,19.116
	C211.011,283.886,210.623,283.873,210.307,283.492z M322.302,260.266c-1.083-0.492-2-1.515-2.373-2.644
	c-0.148-0.448-0.233-0.849-0.189-0.892c0.044-0.042,0.443-0.146,0.889-0.229c0.771-0.144,0.824-0.109,1.207,0.734
	c1.281,2.847,5.574,1.762,5.574-1.409c0-0.604-0.194-1.021-0.774-1.653c-0.719-0.782-0.869-0.846-2.039-0.846h-1.266v-0.744
	c0-0.781,0.074-0.839,1.39-1.057c1.814-0.3,2.563-1.949,1.463-3.229c-0.477-0.553-0.708-0.635-1.794-0.635
	c-1.385,0-2.253,0.563-2.521,1.63c-0.13,0.52-0.217,0.556-0.98,0.412c-0.462-0.086-0.879-0.193-0.927-0.243
	c-0.049-0.046,0.187-0.644,0.521-1.325c0.976-1.992,2.931-2.819,5.173-2.187c2.916,0.824,3.853,4.126,1.657,5.854l-0.563,0.439
	l0.841,0.541c2.697,1.74,1.896,6.192-1.362,7.553C325.105,260.809,323.428,260.778,322.302,260.266z M290.421,253.89
	c-3.522-0.892-5.813-4.38-5.825-8.875c-0.012-3.971,1.636-6.86,4.728-8.306c1.097-0.512,1.571-0.594,3.425-0.59
	c1.884,0.004,2.295,0.079,3.306,0.606c1.579,0.825,2.856,2.327,3.355,3.944c0.129,0.422,0.037,0.504-0.707,0.637
	c-0.472,0.083-1.021,0.198-1.224,0.259c-0.251,0.073-0.463-0.126-0.673-0.633c-1.665-4.021-7.256-3.829-9.035,0.309
	c-0.945,2.198-0.834,6.059,0.232,8.151c1.305,2.554,5.001,3.48,7.337,1.84c0.76-0.533,1.821-2.087,2.196-3.211
	c0.062-0.179,0.391-0.218,1.019-0.118c1.553,0.249,1.589,0.333,0.827,1.961c-0.778,1.663-1.938,2.895-3.39,3.595
	C294.847,254.016,291.837,254.247,290.421,253.89z M303.17,245.06v-8.835h1.244h1.246v3.625v3.625h4.306h4.305v-3.625v-3.625h1.246
	h1.246v8.835v8.836h-1.246h-1.246v-4.191v-4.189h-4.305h-4.306v4.189v4.191h-1.246h-1.244V245.06z M191.137,237.796
	c-8.475-4.866-15.549-8.987-15.722-9.156c-0.357-0.354-0.196-0.973,0.304-1.163c0.199-0.077,6.567,3.442,15.68,8.671
	c8.438,4.84,15.396,8.771,15.469,8.74c0.07-0.034,9.532-5.484,21.027-12.111l20.897-12.05v-24.374v-24.374l-21.005-12.111
	c-11.553-6.661-21.059-12.086-21.126-12.055c-0.064,0.031-9.715,5.562-21.44,12.291c-11.728,6.729-21.476,12.232-21.661,12.232
	c-0.188,0-4.651,5.582-9.919,12.404c-5.27,6.822-9.694,12.53-9.835,12.686c-0.199,0.217-0.938-0.399-3.263-2.729l-3.004-3.011
	l12.588-9.73c7.693-5.946,12.433-9.752,12.187-9.785c-0.224-0.028-7.231-0.825-15.578-1.771c-8.346-0.945-15.304-1.826-15.462-1.957
	s-0.287-0.366-0.287-0.522c0-0.875,0.288-0.855,16.616,1.002l15.975,1.82l21.199-12.166c15.662-8.988,21.2-12.271,21.2-12.571
	c0-0.347-0.064-0.362-0.45-0.124c-0.372,0.232-0.515,0.217-0.833-0.103c-0.509-0.509-0.104-1.46,0.708-1.665l0.574-0.144V120.8
	V97.63L186.89,82.331l-19.087-15.298l-23.875,5.472l-23.875,5.474l-10.588,21.961l-10.586,21.96l1.75,3.64
	c0.962,2.002,4.472,9.239,7.794,16.082c3.324,6.843,5.991,12.58,5.928,12.749c-0.183,0.474-0.811,0.621-1.146,0.271
	c-0.167-0.175-3.786-7.501-8.043-16.287c-4.257-8.785-7.809-16.031-7.892-16.104c-0.083-0.072-8.409,0.813-18.502,1.97
	c-10.095,1.155-18.479,2.106-18.636,2.114c-0.217,0.01-0.281-0.995-0.281-4.303v-4.316l1.302,0.146
	c15.179,1.687,36.001,3.848,36.115,3.748c0.083-0.073,4.959-10.123,10.839-22.334c5.879-12.211,10.808-22.32,10.952-22.465
	c0.202-0.202,48.463-11.408,49.119-11.405c0.08,0,8.797,6.935,19.366,15.41c10.955,8.783,19.351,15.357,19.521,15.293
	c0.167-0.064,9.779-5.632,21.361-12.373c11.583-6.741,21.188-12.207,21.348-12.146c0.384,0.147,41.712,24.061,42.801,24.766
	l0.85,0.55v25.129v25.129l-0.621,0.43c-0.345,0.237-10.028,5.823-21.523,12.413l-20.899,11.982v24.703v24.703l15.576,6.771
	c8.566,3.727,15.902,6.938,16.302,7.134l0.729,0.362l-2.034,3.625c-1.119,1.993-2.125,3.604-2.234,3.575
	c-0.11-0.027-6.575-4.797-14.367-10.601l-14.167-10.552l-21.48,12.393c-11.813,6.813-21.633,12.426-21.819,12.47
	C206.696,246.612,199.611,242.664,191.137,237.796z M281.136,152.552l10.703-6.144v-24.368V97.675l-21.128-12.23L249.585,73.21
	l-21.011,12.229l-21.011,12.229v24.374v24.374l21.013,12.119l21.013,12.119l10.423-5.979
	C265.741,161.385,275.248,155.93,281.136,152.552z M161.411,229.114c-3.396-1.114-5.611-4.01-5.891-7.707
	c-0.228-2.988,0.533-5.634,2.118-7.388c1.76-1.949,4.021-2.842,6.75-2.667c4.988,0.318,8.195,4.439,7.771,9.986
	c-0.363,4.735-3.399,7.788-7.956,8.001C163.028,229.396,162.021,229.314,161.411,229.114z M166.45,226.76
	c1.193-0.613,2.009-1.506,2.64-2.885c0.437-0.952,0.521-1.514,0.521-3.512s-0.083-2.56-0.521-3.512
	c-1.085-2.37-2.66-3.389-5.252-3.39c-1.922-0.001-2.764,0.333-4.13,1.645c-1.205,1.155-1.646,2.594-1.646,5.371
	c0,1.886,0.087,2.455,0.521,3.396c0.798,1.733,1.909,2.736,3.667,3.313C163.183,227.497,165.473,227.262,166.45,226.76z
	 M122.152,205.639v-8.835h1.246h1.246v3.625v3.625h4.305h4.304v-3.625v-3.625h1.246h1.246v8.835v8.835h-1.246h-1.246v-4.191v-4.189
	h-4.304h-4.305v4.189v4.191h-1.246h-1.246V205.639z M159.291,205.734c-0.216-0.261-0.23-0.463-0.06-0.737
	c0.208-0.331,0.774-0.377,4.604-0.377s4.397,0.047,4.606,0.377c0.173,0.274,0.156,0.478-0.062,0.737
	c-0.252,0.304-0.944,0.356-4.547,0.356C160.235,206.092,159.543,206.038,159.291,205.734z M285.497,195.445v-8.835h1.246h1.246
	v3.625v3.625h4.304h4.307v-3.625v-3.625h1.246h1.246v8.835v8.836h-1.246h-1.246v-4.191V195.9h-4.307h-4.304v4.189v4.191h-1.246
	h-1.246V195.445z M159.97,198.937c-0.218-0.26-0.232-0.462-0.062-0.736c0.206-0.327,0.731-0.377,3.927-0.377
	c3.196,0,3.723,0.05,3.929,0.377c0.173,0.274,0.155,0.478-0.062,0.736c-0.249,0.299-0.887,0.357-3.867,0.357
	C160.857,199.296,160.219,199.237,159.97,198.937z M160.877,192.14c-0.216-0.262-0.23-0.462-0.06-0.736
	c0.201-0.319,0.67-0.377,3.021-0.377c2.353,0,2.819,0.058,3.021,0.377c0.173,0.273,0.156,0.476-0.062,0.736
	c-0.239,0.291-0.807,0.357-2.961,0.357C161.684,192.499,161.117,192.431,160.877,192.14z M275.347,192.001
	c-0.149-0.147-0.272-0.363-0.272-0.479c0-0.262,3.771-6.804,4.296-7.451c0.42-0.52,1.053-0.447,1.281,0.146
	c0.074,0.192-0.676,1.732-1.738,3.573C276.198,192.498,276.036,192.689,275.347,192.001z M269.91,187.923
	c-0.148-0.148-0.271-0.361-0.271-0.473c0-0.285,3.134-5.875,3.507-6.253c0.351-0.356,0.972-0.199,1.161,0.294
	c0.067,0.181-0.513,1.483-1.291,2.896C270.854,188.298,270.588,188.601,269.91,187.923z M161.556,185.344
	c-0.218-0.263-0.232-0.464-0.062-0.736c0.193-0.306,0.617-0.377,2.229-0.377c1.609,0,2.033,0.072,2.228,0.377
	c0.173,0.272,0.157,0.476-0.059,0.736c-0.229,0.272-0.738,0.357-2.168,0.357C162.295,185.703,161.784,185.618,161.556,185.344z
	 M264.402,183.746c-0.267-0.322-0.138-0.688,0.969-2.771c1.434-2.694,1.789-3.062,2.396-2.451c0.383,0.385,0.355,0.485-0.61,2.337
	C265.348,184.318,265.096,184.583,264.402,183.746z M258.984,179.465c-0.26-0.313-0.223-0.517,0.248-1.385
	c0.304-0.56,0.824-1.342,1.158-1.738c0.505-0.601,0.674-0.679,1.02-0.47c0.663,0.402,0.591,0.792-0.435,2.354
	C259.954,179.774,259.484,180.067,258.984,179.465z M162.463,178.547c-0.544-0.653,0.022-1.112,1.375-1.112
	c0.871,0,1.264,0.103,1.437,0.378c0.399,0.636-0.201,1.095-1.437,1.095C163.131,178.906,162.658,178.782,162.463,178.547z
	 M253.553,175.395c-0.546-0.656,0.694-2.598,1.469-2.298c0.627,0.238,0.636,0.814,0.024,1.735
	C254.414,175.792,254.009,175.944,253.553,175.395z M117.232,174.514c-3.397-1.115-5.61-4.012-5.892-7.707
	c-0.226-2.988,0.532-5.636,2.117-7.39c1.762-1.947,4.022-2.842,6.75-2.667c4.991,0.32,8.197,4.441,7.771,9.988
	c-0.363,4.735-3.4,7.788-7.957,8.001C118.849,174.796,117.843,174.714,117.232,174.514z M122.272,172.16
	c1.191-0.613,2.009-1.504,2.64-2.883c0.437-0.952,0.521-1.514,0.521-3.512s-0.083-2.562-0.521-3.514
	c-1.085-2.369-2.662-3.387-5.252-3.388c-1.922-0.001-2.763,0.334-4.13,1.644c-1.206,1.154-1.647,2.595-1.647,5.37
	c0,1.889,0.089,2.455,0.522,3.398c0.798,1.733,1.909,2.736,3.668,3.313C119.005,172.897,121.295,172.662,122.272,172.16z
	 M199.409,140.961c-0.441-0.53-0.138-0.929,1.59-2.078c1.283-0.853,1.691-1.022,1.993-0.833c0.745,0.472,0.419,1.063-1.192,2.171
	C200.095,141.39,199.832,141.471,199.409,140.961z M31.634,136.342c-1.083-0.49-2-1.513-2.37-2.642
	c-0.148-0.448-0.233-0.849-0.189-0.892s0.442-0.146,0.886-0.229c0.771-0.144,0.825-0.109,1.207,0.734
	c1.284,2.847,5.576,1.763,5.576-1.408c0-0.604-0.196-1.022-0.775-1.654c-0.718-0.783-0.867-0.846-2.037-0.846h-1.265v-0.743
	c0-0.782,0.074-0.839,1.39-1.057c1.814-0.301,2.563-1.949,1.463-3.229c-0.478-0.553-0.708-0.635-1.794-0.635
	c-1.386,0-2.252,0.563-2.521,1.63c-0.13,0.521-0.216,0.555-0.98,0.412c-0.463-0.086-0.88-0.195-0.928-0.242s0.188-0.645,0.521-1.328
	c0.975-1.99,2.932-2.816,5.173-2.185c2.916,0.824,3.851,4.126,1.657,5.852l-0.563,0.442l0.84,0.541
	c2.699,1.74,1.896,6.192-1.36,7.553C34.437,136.885,32.76,136.852,31.634,136.342z M194.425,136.203
	c-0.152-0.185-0.224-0.481-0.153-0.663c0.146-0.386,4.871-3.758,5.264-3.758c0.404,0,0.847,0.628,0.704,1
	c-0.148,0.386-4.871,3.757-5.263,3.757C194.826,136.54,194.579,136.389,194.425,136.203z M189.436,131.44
	c-0.227-0.271-0.246-0.479-0.076-0.752c0.3-0.481,6.624-5.022,6.995-5.022c0.406,0,0.854,0.624,0.715,0.991
	c-0.138,0.359-6.408,4.918-6.963,5.063C189.908,131.772,189.606,131.646,189.436,131.44z M46.423,129.965
	c-3.522-0.89-5.813-4.38-5.825-8.875c-0.012-3.969,1.636-6.858,4.727-8.304c1.097-0.512,1.571-0.594,3.426-0.59
	c1.884,0.003,2.295,0.079,3.307,0.606c1.578,0.822,2.855,2.324,3.354,3.944c0.129,0.42,0.036,0.503-0.708,0.635
	c-0.471,0.083-1.021,0.2-1.223,0.261c-0.251,0.071-0.463-0.127-0.673-0.633c-1.665-4.021-7.256-3.829-9.035,0.309
	c-0.945,2.198-0.834,6.057,0.232,8.152c1.305,2.554,5.001,3.48,7.337,1.84c0.76-0.533,1.821-2.088,2.196-3.211
	c0.062-0.181,0.393-0.22,1.018-0.118c1.554,0.249,1.59,0.333,0.826,1.961c-0.776,1.663-1.938,2.893-3.388,3.595
	C50.848,130.091,47.839,130.323,46.423,129.965z M12.5,121.135V112.3h1.246h1.246v3.625v3.625h4.305h4.306v-3.625V112.3h1.247h1.246
	v8.837v8.835h-1.246h-1.247v-4.191v-4.191h-4.306h-4.305v4.191v4.191h-1.246H12.5V121.135z M179.535,121.501
	c-3.396-1.112-5.611-4.01-5.891-7.707c-0.228-2.986,0.53-5.634,2.117-7.388c1.76-1.948,4.021-2.842,6.75-2.667
	c4.989,0.32,8.195,4.441,7.771,9.988c-0.363,4.733-3.399,7.788-7.957,8.001C181.152,121.782,180.145,121.701,179.535,121.501z
	 M184.574,119.147c1.193-0.613,2.009-1.504,2.64-2.882c0.438-0.952,0.521-1.516,0.521-3.514s-0.083-2.56-0.521-3.511
	c-1.085-2.37-2.66-3.387-5.252-3.389c-1.923-0.001-2.764,0.334-4.13,1.643c-1.206,1.155-1.646,2.594-1.646,5.371
	c0,1.886,0.087,2.455,0.521,3.398c0.799,1.731,1.909,2.734,3.668,3.313C181.308,119.885,183.597,119.649,184.574,119.147z
	 M102.124,120.852c-0.783-1.214-0.917-1.751-0.533-2.137c0.521-0.521,1.007-0.233,1.569,0.926c0.409,0.843,0.443,1.072,0.199,1.365
	C102.948,121.504,102.508,121.448,102.124,120.852z M108.931,119.053c-0.187-0.288-0.667-1.271-1.07-2.181
	c-0.669-1.509-0.702-1.687-0.375-2.013c0.197-0.197,0.518-0.297,0.714-0.222c0.539,0.207,2.251,4.036,1.993,4.457
	C109.857,119.639,109.294,119.62,108.931,119.053z M115.499,117.014c-0.187-0.288-0.873-1.677-1.524-3.083
	c-1.085-2.342-1.156-2.591-0.826-2.919c0.199-0.199,0.521-0.3,0.722-0.225c0.551,0.211,3.153,5.85,2.896,6.27
	C116.427,117.6,115.865,117.581,115.499,117.014z M122.076,115.202c-0.182-0.288-1.073-2.133-1.979-4.101
	c-1.553-3.362-1.626-3.602-1.267-3.961c0.289-0.288,0.479-0.325,0.76-0.147c0.607,0.383,3.993,7.848,3.743,8.252
	C122.997,115.788,122.434,115.768,122.076,115.202z M133.771,112.212c-3.398-1.113-5.611-4.01-5.893-7.707
	c-0.226-2.986,0.533-5.634,2.118-7.388c1.76-1.948,4.022-2.842,6.75-2.667c4.99,0.32,8.197,4.441,7.771,9.988
	c-0.363,4.733-3.399,7.788-7.957,8.001C135.388,112.494,134.381,112.412,133.771,112.212z M138.81,109.858
	c1.19-0.613,2.009-1.504,2.64-2.883c0.438-0.952,0.521-1.516,0.521-3.514s-0.083-2.56-0.521-3.512
	c-1.085-2.37-2.662-3.387-5.252-3.388c-1.922-0.001-2.764,0.334-4.13,1.643c-1.206,1.155-1.647,2.594-1.647,5.371
	c0,1.886,0.087,2.455,0.522,3.398c0.798,1.731,1.909,2.734,3.667,3.313C135.544,110.595,137.833,110.36,138.81,109.858z
	 M158.648,109.619c-11.248-2.294-11.753-2.45-10.866-3.337c0.332-0.332,1.279-0.179,11.324,1.826
	c6.557,1.309,11.097,2.319,11.297,2.515c0.416,0.403,0.066,1.09-0.585,1.149C169.582,111.793,164.555,110.824,158.648,109.619z
	 M205.508,91.097c-0.544-0.655,0.021-1.113,1.375-1.113c0.87,0,1.263,0.103,1.437,0.377c0.401,0.636-0.2,1.095-1.437,1.095
	C206.177,91.456,205.703,91.333,205.508,91.097z M204.601,84.302c-0.218-0.262-0.232-0.464-0.062-0.736
	c0.193-0.306,0.618-0.377,2.229-0.377c1.608,0,2.035,0.072,2.228,0.377c0.173,0.272,0.156,0.476-0.06,0.736
	c-0.229,0.272-0.738,0.357-2.168,0.357C205.339,84.66,204.829,84.575,204.601,84.302z M203.922,77.504
	c-0.216-0.26-0.231-0.462-0.06-0.734c0.201-0.318,0.67-0.377,3.021-0.377c2.352,0,2.819,0.059,3.021,0.377
	c0.173,0.272,0.157,0.476-0.06,0.734c-0.24,0.291-0.809,0.359-2.962,0.359C204.729,77.864,204.163,77.795,203.922,77.504z
	 M203.015,70.708c-0.218-0.26-0.232-0.462-0.061-0.734c0.206-0.327,0.73-0.377,3.927-0.377c3.197,0,3.722,0.05,3.929,0.377
	c0.173,0.272,0.154,0.476-0.062,0.734c-0.249,0.3-0.887,0.359-3.867,0.359C203.903,71.067,203.264,71.008,203.015,70.708z
	 M248.326,66.403c-0.522-0.631,0.022-1.114,1.262-1.114c0.767,0,1.153,0.111,1.322,0.377c0.385,0.61-0.201,1.097-1.322,1.097
	C248.985,66.762,248.513,66.628,248.326,66.403z M202.336,63.911c-0.216-0.261-0.231-0.462-0.06-0.736
	c0.209-0.329,0.776-0.377,4.605-0.377c3.83,0,4.398,0.048,4.606,0.377c0.173,0.274,0.156,0.478-0.06,0.736
	c-0.253,0.304-0.946,0.359-4.548,0.359C203.283,64.27,202.588,64.215,202.336,63.911z M247.42,59.607
	c-0.216-0.26-0.23-0.462-0.06-0.736c0.193-0.306,0.618-0.377,2.228-0.377c1.61,0,2.035,0.072,2.229,0.377
	c0.173,0.274,0.156,0.478-0.062,0.736c-0.228,0.272-0.736,0.357-2.168,0.357C248.158,59.966,247.648,59.881,247.42,59.607z
	 M199.86,46.825V37.99h1.246h1.246v3.625v3.625h4.304h4.305v-3.625V37.99h1.246h1.246v8.835v8.835h-1.246h-1.246V51.47v-4.191
	h-4.305h-4.304v4.191v4.189h-1.246h-1.246V46.825z M246.74,52.81c-0.216-0.263-0.232-0.462-0.06-0.737
	c0.199-0.318,0.67-0.377,3.021-0.377c2.35,0,2.819,0.059,3.021,0.377c0.173,0.274,0.154,0.476-0.062,0.737
	c-0.241,0.29-0.808,0.357-2.96,0.357C247.548,53.169,246.982,53.1,246.74,52.81z M245.834,46.013
	c-0.216-0.262-0.23-0.462-0.06-0.736c0.206-0.327,0.723-0.377,3.813-0.377c3.092,0,3.608,0.051,3.814,0.377
	c0.172,0.271,0.156,0.476-0.062,0.736c-0.248,0.299-0.877,0.357-3.754,0.357S246.082,46.312,245.834,46.013z M245.155,39.217
	c-0.216-0.261-0.232-0.463-0.06-0.734c0.209-0.331,0.774-0.377,4.605-0.377c3.83,0,4.397,0.046,4.606,0.377
	c0.173,0.271,0.154,0.476-0.062,0.734c-0.252,0.306-0.945,0.358-4.546,0.358S245.407,39.521,245.155,39.217z M279.484,37.337
	c-1.083-0.49-2-1.512-2.372-2.642c-0.148-0.447-0.233-0.849-0.189-0.892c0.043-0.042,0.442-0.146,0.888-0.229
	c0.771-0.144,0.825-0.111,1.207,0.733c1.282,2.847,5.574,1.763,5.574-1.408c0-0.604-0.194-1.021-0.773-1.653
	c-0.718-0.784-0.869-0.847-2.039-0.847h-1.263v-0.743c0-0.783,0.072-0.839,1.388-1.057c1.816-0.302,2.563-1.949,1.463-3.229
	c-0.476-0.554-0.708-0.636-1.794-0.636c-1.385,0-2.252,0.562-2.521,1.631c-0.131,0.52-0.217,0.555-0.981,0.412
	c-0.462-0.086-0.878-0.195-0.926-0.243c-0.048-0.047,0.187-0.644,0.521-1.327c0.977-1.992,2.933-2.816,5.174-2.185
	c2.916,0.824,3.852,4.126,1.656,5.853l-0.561,0.441l0.84,0.542c2.699,1.739,1.896,6.189-1.362,7.552
	C282.286,37.88,280.609,37.849,279.484,37.337z M247.602,30.961c-3.524-0.89-5.815-4.38-5.827-8.875
	c-0.011-3.969,1.636-6.858,4.727-8.304c1.099-0.512,1.572-0.594,3.428-0.59c1.885,0.004,2.296,0.079,3.306,0.604
	c1.579,0.825,2.855,2.327,3.354,3.946c0.131,0.419,0.036,0.503-0.708,0.635c-0.471,0.083-1.021,0.2-1.223,0.261
	c-0.251,0.071-0.463-0.126-0.673-0.636c-1.665-4.02-7.254-3.829-9.034,0.312c-0.946,2.198-0.835,6.057,0.234,8.15
	c1.303,2.556,5.001,3.481,7.337,1.842c0.758-0.533,1.821-2.087,2.196-3.211c0.06-0.182,0.39-0.22,1.016-0.118
	c1.554,0.249,1.589,0.333,0.828,1.962c-0.778,1.662-1.938,2.893-3.39,3.595C252.028,31.087,249.018,31.319,247.602,30.961z
	 M260.35,22.131v-8.836h1.246h1.244v3.625v3.625h4.306h4.305V16.92v-3.625h1.246h1.246v8.836v8.835h-1.246h-1.246v-4.189v-4.191
	h-4.305h-4.306v4.191v4.189h-1.244h-1.246V22.131z"/>
<path fill="none" stroke="#E60012" stroke-width="2" stroke-miterlimit="10" d="M76.181,89.97
	c43.348,3.573,54.967,29.493,10.726,56.308"/>
<path fill="none" stroke="#009944" stroke-width="2" stroke-miterlimit="10" d="M92.716,158.12
	c75.523-25.696,120.659,0,81.333,85.579"/>
<path fill="none" stroke="#8B56A0" stroke-width="2" stroke-miterlimit="10" d="M143.661,215.992
	c78.652-25.026,95.188,20.11,84.015,90.271"/>
<g>
	<path fill="#E60012" d="M33.391,103.041l0.838,0.167c-0.226,2.109-0.754,4.064-1.592,5.866l-0.84-0.419
		C32.637,106.756,33.168,104.885,33.391,103.041z M35.549,90.2l0.775,0.356c-0.321,0.99-0.761,2.023-1.32,3.101
		c-0.391,0.838-0.81,1.585-1.257,2.241c1.021-0.07,2.011-0.188,2.977-0.356c0.319-0.613,0.601-1.222,0.838-1.821l0.922,0.354
		c-0.519,1.285-1.229,2.632-2.137,4.042c-0.714,1.16-1.476,2.193-2.283,3.103c1.229-0.086,2.353-0.23,3.373-0.44
		c-0.184-0.419-0.393-0.838-0.628-1.257l0.67-0.524c0.544,0.992,0.998,2.088,1.359,3.289l-0.67,0.502
		c-0.125-0.419-0.258-0.831-0.396-1.234c-1.55,0.391-3.463,0.605-5.74,0.647l-0.146-0.921c0.363,0,0.705-0.007,1.026-0.021
		c0.95-1.104,1.794-2.256,2.535-3.456c0.279-0.447,0.545-0.882,0.796-1.301c-1.285,0.196-2.604,0.335-3.959,0.419L32.031,96
		c0.251-0.014,0.496-0.025,0.733-0.042c0.544-0.81,1.04-1.669,1.485-2.577C34.767,92.323,35.199,91.262,35.549,90.2z
		 M35.989,102.958c0.167,1.662,0.251,3.396,0.251,5.195l-0.838,0.084c0-1.969-0.056-3.701-0.167-5.195L35.989,102.958z
		 M37.832,102.79c0.531,1.243,0.95,2.612,1.257,4.106l-0.838,0.229c-0.251-1.466-0.643-2.8-1.173-4.001L37.832,102.79z
		 M42.001,93.469l0.838,0.251c-0.403,1.508-0.815,2.807-1.234,3.896v11.877h-0.921v-9.741c-0.405,0.838-0.831,1.627-1.278,2.367
		l-0.566-0.522c0.686-1.201,1.285-2.444,1.804-3.729C41.24,96.373,41.694,94.907,42.001,93.469z M43.76,89.781
		c0.656,0.601,1.259,1.271,1.803,2.011h5.487v2.954h-0.922V92.63h-9.887v2.851H39.32v-3.688h5.069
		c-0.405-0.516-0.866-1.012-1.384-1.485L43.76,89.781z M42.923,95.228h8.316v0.88h-3.603c-0.211,0.898-0.447,1.759-0.714,2.577
		h3.396v10.809h-0.922v-1.529h-4.86v1.529h-0.921v-10.81h2.388c0.267-0.831,0.503-1.69,0.712-2.577h-3.792V95.228z M44.535,102.685
		h4.86v-3.163h-4.86V102.685z M44.535,107.126h4.86v-3.603h-4.86V107.126z"/>
	<path fill="#E60012" d="M53.397,90.703h9.049v0.879H59.45v2.809h2.242v14.496h-0.838v-1.404h-5.763v1.676h-0.838V94.39h2.348
		v-2.809h-3.205L53.397,90.703L53.397,90.703z M55.094,103.356h5.761v-2.6h-1.006c-0.824,0-1.236-0.438-1.236-1.318v-4.21H57.44
		v1.443c0,1.243-0.147,2.383-0.44,3.415c-0.251,0.924-0.58,1.685-0.983,2.283l-0.691-0.502c0.447-0.74,0.768-1.557,0.963-2.451
		c0.209-0.894,0.314-1.808,0.314-2.744v-1.443h-1.51v8.127H55.094z M55.094,106.644h5.761v-2.409h-5.761V106.644z M58.613,94.39
		v-2.809H57.44v2.809H58.613z M59.45,95.228v4.21c0,0.266,0.133,0.396,0.398,0.396h1.006v-4.606H59.45z M71.935,90.703v16.716
		c0,1.117-0.502,1.678-1.51,1.678c-0.654,0-1.409-0.035-2.262-0.105l-0.104-1.005c0.921,0.125,1.71,0.188,2.366,0.188
		c0.446,0,0.671-0.307,0.671-0.922V91.583h-6.955v17.934h-0.838V90.703H71.935z M64.897,93.908h5.447v0.838h-5.447V93.908z
		 M69.506,97.427v7.288h-0.838v-1.005h-2.263v1.403h-0.838v-7.688L69.506,97.427L69.506,97.427z M66.405,102.874h2.263v-4.629
		h-2.263V102.874z"/>
</g>
<g>
	<path fill="#009944" d="M66.014,182.587l0.838,0.167c-0.226,2.109-0.754,4.064-1.594,5.866l-0.838-0.419
		C65.26,186.302,65.79,184.431,66.014,182.587z M68.172,169.746l0.775,0.356c-0.321,0.992-0.761,2.023-1.32,3.101
		c-0.391,0.838-0.81,1.585-1.257,2.241c1.021-0.07,2.011-0.188,2.977-0.356c0.319-0.613,0.601-1.222,0.838-1.821l0.922,0.354
		c-0.519,1.285-1.229,2.632-2.139,4.042c-0.712,1.16-1.474,2.193-2.281,3.103c1.229-0.084,2.353-0.23,3.373-0.44
		c-0.184-0.419-0.393-0.838-0.628-1.257l0.67-0.524c0.544,0.992,0.998,2.088,1.359,3.289l-0.67,0.502
		c-0.125-0.419-0.258-0.831-0.396-1.234c-1.552,0.391-3.463,0.605-5.74,0.647l-0.146-0.921c0.363,0,0.705-0.007,1.026-0.021
		c0.95-1.104,1.794-2.257,2.535-3.457c0.279-0.447,0.545-0.88,0.796-1.301c-1.285,0.196-2.604,0.337-3.959,0.421l-0.251-0.924
		c0.251-0.014,0.496-0.025,0.733-0.042c0.544-0.81,1.038-1.669,1.485-2.575C67.389,171.869,67.822,170.808,68.172,169.746z
		 M68.612,182.504c0.167,1.662,0.251,3.396,0.251,5.195l-0.838,0.084c0-1.969-0.056-3.701-0.167-5.195L68.612,182.504z
		 M70.455,182.336c0.531,1.243,0.95,2.612,1.257,4.106l-0.838,0.229c-0.251-1.466-0.643-2.8-1.173-4.001L70.455,182.336z
		 M74.623,173.014l0.838,0.251c-0.403,1.508-0.815,2.807-1.234,3.896v11.877h-0.922v-9.741c-0.405,0.84-0.831,1.627-1.277,2.367
		l-0.566-0.522c0.686-1.201,1.285-2.444,1.804-3.729C73.862,175.919,74.316,174.453,74.623,173.014z M76.383,169.327
		c0.656,0.603,1.259,1.271,1.803,2.011h5.487v2.954h-0.922v-2.114h-9.887v2.849h-0.922v-3.688h5.069
		c-0.405-0.516-0.866-1.012-1.384-1.485L76.383,169.327z M75.545,174.774h8.316v0.88h-3.604c-0.209,0.9-0.445,1.759-0.712,2.577
		h3.396v10.809h-0.922v-1.527h-4.86v1.527h-0.921v-10.81h2.388c0.267-0.831,0.503-1.69,0.712-2.577h-3.792V174.774z M77.158,182.231
		h4.86v-3.163h-4.86V182.231z M77.158,186.672h4.86v-3.603h-4.86V186.672z"/>
	<path fill="#009944" d="M86.103,170.102h8.733v0.838H91.99v2.849h2.325v14.854h-0.922v-1.257h-5.53v1.592h-0.922v-15.188h2.179
		v-2.849h-3.017V170.102z M87.863,183.153h5.53v-2.996h-1.005c-0.824,0-1.236-0.447-1.236-1.341v-4.189h-1.194v1.99
		c0,1.076-0.11,2.046-0.335,2.912c-0.209,0.81-0.489,1.466-0.838,1.969l-0.67-0.502c0.349-0.614,0.607-1.306,0.775-2.074
		c0.152-0.726,0.229-1.492,0.229-2.305v-1.99h-1.257L87.863,183.153L87.863,183.153z M87.863,186.505h5.53v-2.514h-5.53V186.505z
		 M91.152,173.789v-2.849h-1.194v2.849H91.152z M91.99,174.627v4.189c0,0.28,0.132,0.419,0.398,0.419h1.005v-4.608H91.99z
		 M94.231,171.695h2.849v-2.367h0.921v2.367h1.529v0.838h-1.529v1.403H97.08v-1.403h-2.849V171.695z M99.196,175.298h-2.682v-0.838
		h3.687c1.605,2.569,3.421,4.357,5.446,5.362l-0.44,0.754c-1.843-0.964-3.582-2.611-5.216-4.944
		c-0.643,1.021-1.39,1.956-2.242,2.809c-0.74,0.782-1.634,1.521-2.681,2.22l-0.398-0.921c1.047-0.628,1.983-1.383,2.809-2.263
		C98.12,176.82,98.693,176.094,99.196,175.298z M96.681,179.655h6.683v0.922h-2.912v2.765h3.437v0.923h-3.437v3.101h4.755v0.838
		H95.069v-0.838h4.462v-3.101h-3.457v-0.923h3.457v-2.765h-2.849L96.681,179.655L96.681,179.655z M100.117,171.695h1.404v-2.367
		h0.921v2.367h3.038v0.838h-3.038v2.325h-0.921v-2.325h-1.404V171.695z"/>
</g>
<g>
	<g id="g4029">
		<path d="M426.141,135.306L426.141,135.306v-1.063v-1.062l37.827-21.844v1.063v1.062L426.141,135.306z"/>
	</g>
	<g id="g4043">
		<g id="text4045">
			<path id="path4128" d="M453.574,69.43c0-3.604,0.97-6.428,2.903-8.467c1.936-2.037,4.434-3.058,7.495-3.058
				c2.004,0,3.812,0.479,5.421,1.438s2.836,2.293,3.681,4.007c0.846,1.713,1.269,3.654,1.269,5.829c0,2.2-0.444,4.172-1.334,5.908
				c-0.891,1.738-2.146,3.055-3.776,3.947c-1.629,0.896-3.387,1.341-5.273,1.341c-2.043,0-3.868-0.494-5.479-1.479
				c-1.609-0.987-2.828-2.335-3.658-4.043C453.989,73.143,453.574,71.336,453.574,69.43L453.574,69.43z M456.537,69.474
				c0,2.615,0.703,4.678,2.109,6.185c1.408,1.505,3.174,2.258,5.297,2.258c2.162,0,3.941-0.76,5.339-2.279
				c1.397-1.521,2.098-3.68,2.098-6.475c0-1.768-0.301-3.311-0.896-4.628c-0.598-1.318-1.472-2.34-2.622-3.064
				c-1.148-0.728-2.439-1.09-3.874-1.09c-2.033,0-3.783,0.698-5.25,2.098C457.269,63.873,456.537,66.206,456.537,69.474
				L456.537,69.474z"/>
		</g>
	</g>
	<g id="g4049">
		<path id="line4051" d="M460.054,112.404V85.496"/>
		<path id="path4053" shape-rendering="geometricPrecision" d="M466.971,113.101L466.971,113.101l1.818,1.029V85.496h-1.818V113.101
			z"/>
		<path id="path4055" shape-rendering="geometricPrecision" d="M459.145,114.132L459.145,114.132l1.82-1.029V85.496h-1.82V114.132z"
			/>
	</g>
	<g id="g4029_1_">
		<path id="path4031_1_" shape-rendering="geometricPrecision" d="M464.226,113.613v-1.063v-1.063l37.827,21.842v1.063v1.061l0,0
			L464.226,113.613z"/>
	</g>
	<g id="g4029_3_">
		<path id="path4031_3_" shape-rendering="geometricPrecision" d="M502.433,135.38L502.433,135.38v-1.063v-1.063l37.827-21.841
			v1.063v1.061L502.433,135.38z"/>
	</g>
	<g id="g4029_2_">
		<path id="path4031_2_" shape-rendering="geometricPrecision" d="M540.518,113.686v-1.063v-1.063l37.827,21.842v1.062v1.063l0,0
			L540.518,113.686z"/>
	</g>
	<g id="Solid">
		<path id="path3948" shape-rendering="geometricPrecision" d="M579.132,180.444L579.132,180.444l-1.188,0.604l-1.188-0.698v-44.421
			l1.188-0.7l1.188-0.699V180.444z"/>
	</g>
	<g id="g4029_5_">
		<path id="path4031_5_" shape-rendering="geometricPrecision" d="M578.295,135.379L578.295,135.379v-1.062v-1.063l37.824-21.841
			v1.063v1.062L578.295,135.379z"/>
	</g>
	<g id="g4029_4_">
		<path id="path4031_4_" shape-rendering="geometricPrecision" d="M616.379,113.685v-1.063v-1.063l37.826,21.842v1.061v1.063l0,0
			L616.379,113.685z"/>
	</g>
	<g id="Solid_1_">
		<path id="path3948_1_" shape-rendering="geometricPrecision" d="M655.132,180.444L655.132,180.444l-1.188,0.604l-1.188-0.698
			v-44.421l1.188-0.7l1.188-0.699V180.444z"/>
	</g>
	<g id="g4029_7_">
		<path id="path4031_7_" shape-rendering="geometricPrecision" d="M616.243,202.034v1.063v1.063l-37.825-21.842v-1.063v-1.062l0,0
			L616.243,202.034z"/>
	</g>
	<g id="g4029_6_">
		<path id="path4031_6_" shape-rendering="geometricPrecision" d="M654.329,180.047L654.329,180.047v1.063v1.063l-37.827,21.844
			v-1.063v-1.063L654.329,180.047z"/>
	</g>
	<path d="M575.606,125.323c-0.544-0.654,0.021-1.113,1.375-1.113c0.871,0,1.262,0.104,1.438,0.378
		c0.398,0.638-0.201,1.097-1.438,1.097C576.275,125.683,575.802,125.56,575.606,125.323z"/>
	<path d="M574.7,118.528c-0.216-0.261-0.23-0.462-0.06-0.736c0.19-0.306,0.618-0.378,2.228-0.378c1.611,0,2.035,0.072,2.229,0.378
		c0.172,0.274,0.156,0.478-0.063,0.736c-0.228,0.274-0.735,0.358-2.168,0.358C575.438,118.886,574.928,118.802,574.7,118.528z"/>
	<path d="M574.02,111.731c-0.216-0.261-0.232-0.462-0.06-0.736c0.199-0.316,0.671-0.378,3.021-0.378c2.351,0,2.82,0.062,3.021,0.378
		c0.172,0.274,0.154,0.478-0.063,0.736c-0.24,0.29-0.807,0.357-2.961,0.357C574.828,112.09,574.261,112.021,574.02,111.731z"/>
	<path d="M573.114,104.935c-0.216-0.263-0.23-0.463-0.059-0.736c0.205-0.328,0.729-0.378,3.926-0.378s3.721,0.05,3.928,0.378
		c0.172,0.273,0.156,0.476-0.061,0.736c-0.248,0.299-0.887,0.356-3.867,0.356C574.003,105.293,573.363,105.234,573.114,104.935z"/>
	<path d="M572.434,98.138c-0.216-0.263-0.232-0.465-0.06-0.736c0.209-0.331,0.774-0.377,4.604-0.377s4.398,0.046,4.607,0.377
		c0.172,0.271,0.154,0.476-0.063,0.736c-0.252,0.304-0.944,0.357-4.547,0.357C573.384,98.497,572.686,98.442,572.434,98.138z"/>
	<polygon points="569.959,81.052 569.959,72.217 571.204,72.217 572.45,72.217 572.45,75.841 572.45,79.466 576.757,79.466 
		581.059,79.466 581.059,75.841 581.059,72.217 582.305,72.217 583.552,72.217 583.552,81.052 583.552,89.887 582.305,89.887 
		581.059,89.887 581.059,85.696 581.059,81.505 576.757,81.505 572.45,81.505 572.45,85.696 572.45,89.887 571.204,89.887 
		569.959,89.887 	"/>
	<path d="M614.685,107.479c-0.523-0.632,0.023-1.114,1.262-1.114c0.768,0,1.154,0.111,1.322,0.378
		c0.385,0.61-0.201,1.095-1.322,1.095C615.344,107.837,614.873,107.704,614.685,107.479z"/>
	<path d="M613.779,100.683c-0.216-0.263-0.23-0.463-0.06-0.736c0.191-0.307,0.618-0.378,2.228-0.378
		c1.611,0,2.035,0.071,2.229,0.378c0.173,0.273,0.155,0.476-0.063,0.736c-0.227,0.271-0.735,0.356-2.168,0.356
		C614.517,101.041,614.01,100.956,613.779,100.683z"/>
	<path d="M613.099,93.886c-0.215-0.263-0.232-0.465-0.061-0.736c0.201-0.318,0.672-0.378,3.021-0.378s2.819,0.06,3.021,0.378
		c0.174,0.271,0.156,0.476-0.061,0.736c-0.24,0.29-0.807,0.357-2.96,0.357S613.344,94.177,613.099,93.886z"/>
	<path d="M612.193,87.089c-0.216-0.26-0.23-0.462-0.059-0.734c0.205-0.327,0.723-0.377,3.813-0.377c3.091,0,3.608,0.051,3.814,0.377
		c0.172,0.271,0.156,0.476-0.063,0.734c-0.247,0.301-0.877,0.359-3.754,0.359S612.441,87.388,612.193,87.089z"/>
	<path d="M611.513,80.293c-0.215-0.261-0.232-0.463-0.061-0.734c0.209-0.331,0.775-0.377,4.606-0.377
		c3.83,0,4.396,0.046,4.604,0.377c0.174,0.271,0.156,0.476-0.061,0.734c-0.252,0.306-0.945,0.358-4.546,0.358
		C612.456,80.651,611.766,80.597,611.513,80.293z"/>
	<path d="M645.844,78.413c-1.084-0.492-2-1.512-2.373-2.642c-0.147-0.447-0.232-0.851-0.189-0.894
		c0.044-0.042,0.443-0.146,0.889-0.229c0.771-0.146,0.824-0.111,1.206,0.731c1.282,2.849,5.574,1.765,5.574-1.406
		c0-0.604-0.194-1.021-0.773-1.653c-0.72-0.784-0.869-0.847-2.039-0.847h-1.265v-0.743c0-0.783,0.074-0.839,1.39-1.058
		c1.814-0.301,2.563-1.948,1.464-3.229c-0.479-0.554-0.709-0.636-1.795-0.636c-1.385,0-2.252,0.562-2.521,1.631
		c-0.129,0.518-0.216,0.555-0.979,0.412c-0.462-0.086-0.878-0.195-0.928-0.243c-0.048-0.047,0.188-0.645,0.521-1.327
		c0.975-1.992,2.931-2.818,5.174-2.185c2.915,0.822,3.852,4.126,1.656,5.853l-0.563,0.441l0.842,0.542
		c2.697,1.737,1.896,6.189-1.362,7.552C648.646,78.956,646.969,78.925,645.844,78.413z"/>
	<path d="M613.964,72.037c-3.524-0.89-5.815-4.38-5.827-8.875c-0.012-3.969,1.637-6.858,4.727-8.304
		c1.1-0.512,1.572-0.594,3.426-0.59c1.887,0.004,2.299,0.079,3.309,0.604c1.578,0.825,2.854,2.327,3.354,3.946
		c0.129,0.419,0.036,0.503-0.707,0.635c-0.472,0.083-1.021,0.2-1.224,0.259c-0.251,0.073-0.464-0.126-0.673-0.634
		c-1.666-4.02-7.255-3.829-9.035,0.312c-0.945,2.196-0.834,6.057,0.234,8.15c1.303,2.556,5.002,3.481,7.337,1.84
		c0.758-0.531,1.819-2.087,2.194-3.211c0.061-0.18,0.392-0.218,1.018-0.116c1.554,0.249,1.59,0.333,0.828,1.962
		c-0.779,1.662-1.938,2.893-3.391,3.595C618.387,72.163,615.38,72.394,613.964,72.037z"/>
	<polygon points="626.709,63.207 626.709,54.371 627.955,54.371 629.201,54.371 629.201,57.996 629.201,61.621 633.508,61.621 
		637.81,61.621 637.81,57.996 637.81,54.371 639.056,54.371 640.302,54.371 640.302,63.207 640.302,72.042 639.056,72.042 
		637.81,72.042 637.81,67.851 637.81,63.66 633.508,63.66 629.201,63.66 629.201,67.851 629.201,72.042 627.955,72.042 
		626.709,72.042 	"/>
	<g id="Solid_2_">
		<path id="path3948_2_" shape-rendering="geometricPrecision" d="M617.644,248.928L617.644,248.928l-1.188,0.604l-1.188-0.7V204.41
			l1.188-0.7l1.188-0.697V248.928z"/>
	</g>
	<g id="g4029_8_">
		<path id="path4031_8_" shape-rendering="geometricPrecision" d="M616.844,248.531L616.844,248.531v1.061v1.063l-37.828,21.842
			v-1.063v-1.063L616.844,248.531z"/>
	</g>
	<g id="g4029_9_">
		<path id="path4031_9_" shape-rendering="geometricPrecision" d="M617.645,250.656v-1.061v-1.063l37.828,21.842v1.063v1.063l0,0
			L617.645,250.656z"/>
	</g>
	<path d="M566.144,285.613c-3.524-0.891-5.816-4.381-5.828-8.876c-0.01-3.969,1.637-6.86,4.729-8.304
		c1.096-0.515,1.568-0.597,3.425-0.593c1.884,0.006,2.296,0.079,3.306,0.606c1.579,0.824,2.857,2.326,3.355,3.945
		c0.129,0.42,0.036,0.504-0.707,0.636c-0.474,0.083-1.021,0.2-1.226,0.259c-0.251,0.073-0.463-0.127-0.673-0.633
		c-1.665-4.021-7.255-3.83-9.035,0.309c-0.943,2.197-0.834,6.059,0.234,8.151c1.303,2.554,5.002,3.481,7.337,1.841
		c0.758-0.533,1.821-2.088,2.196-3.212c0.06-0.179,0.391-0.218,1.016-0.118c1.554,0.249,1.59,0.334,0.828,1.962
		c-0.778,1.663-1.938,2.896-3.389,3.597C570.57,285.738,567.559,285.97,566.144,285.613z"/>
	<g id="g4043_1_">
		<g id="text4045_1_">
			<path id="path4128_1_" d="M539.631,276.823c0-2.892,0.774-5.156,2.328-6.792c1.554-1.635,3.558-2.453,6.014-2.453
				c1.605,0,3.059,0.384,4.35,1.152c1.29,0.768,2.275,1.839,2.952,3.215c0.677,1.374,1.019,2.933,1.019,4.676
				c0,1.769-0.356,3.347-1.071,4.74c-0.712,1.396-1.722,2.451-3.029,3.167c-1.306,0.717-2.717,1.076-4.229,1.076
				c-1.641,0-3.104-0.396-4.396-1.188c-1.291-0.792-2.269-1.873-2.935-3.244C539.964,279.801,539.631,278.35,539.631,276.823
				L539.631,276.823z M542.008,276.858c0,2.1,0.563,3.752,1.69,4.961c1.129,1.207,2.546,1.813,4.25,1.813
				c1.734,0,3.161-0.608,4.282-1.828c1.121-1.223,1.682-2.951,1.682-5.193c0-1.417-0.238-2.655-0.719-3.713
				c-0.479-1.06-1.181-1.877-2.104-2.461c-0.925-0.58-1.958-0.872-3.107-0.872c-1.632,0-3.036,0.561-4.213,1.681
				C542.594,272.364,542.008,274.237,542.008,276.858L542.008,276.858z"/>
		</g>
	</g>
	<g id="g4043_2_">
		<g id="text4045_2_">
			<path id="path4128_2_" d="M519.343,277.044c0-2.892,0.774-5.154,2.329-6.792c1.553-1.635,3.557-2.453,6.013-2.453
				c1.605,0,3.059,0.386,4.35,1.152c1.29,0.77,2.275,1.839,2.952,3.215c0.677,1.374,1.019,2.935,1.019,4.676
				c0,1.769-0.356,3.349-1.071,4.74c-0.712,1.396-1.721,2.451-3.029,3.167c-1.306,0.717-2.717,1.076-4.229,1.076
				c-1.641,0-3.104-0.396-4.396-1.188c-1.291-0.792-2.269-1.873-2.935-3.244C519.676,280.023,519.343,278.572,519.343,277.044
				L519.343,277.044z M521.719,277.079c0,2.102,0.563,3.752,1.69,4.961c1.129,1.207,2.547,1.813,4.25,1.813
				c1.734,0,3.161-0.61,4.282-1.83c1.121-1.221,1.683-2.951,1.683-5.193c0-1.417-0.239-2.655-0.72-3.713
				c-0.479-1.058-1.181-1.877-2.104-2.461c-0.923-0.58-1.958-0.872-3.107-0.872c-1.632,0-3.036,0.563-4.213,1.681
				C522.305,272.585,521.719,274.458,521.719,277.079L521.719,277.079z"/>
		</g>
	</g>
	<polygon points="500.427,276.59 500.427,267.754 501.674,267.754 502.92,267.754 502.92,271.379 502.92,275.004 507.222,275.004 
		511.527,275.004 511.527,271.379 511.527,267.754 512.773,267.754 514.019,267.754 514.019,276.59 514.019,285.426 
		512.773,285.426 511.527,285.426 511.527,281.235 511.527,277.043 507.222,277.043 502.92,277.043 502.92,281.235 502.92,285.426 
		501.674,285.426 500.427,285.426 	"/>
	<path d="M576.52,181.442l-15.576,6.771c-8.564,3.727-15.9,6.938-16.303,7.137l-0.729,0.359l2.034,3.625
		c1.118,1.993,2.124,3.604,2.235,3.574c0.11-0.027,6.576-4.797,14.367-10.6l14.166-10.553L576.52,181.442z"/>
	<path d="M528.862,211.71c-3.522-0.891-5.814-4.381-5.828-8.876c-0.01-3.969,1.639-6.858,4.729-8.304
		c1.096-0.513,1.57-0.595,3.425-0.591c1.884,0.004,2.296,0.079,3.306,0.604c1.579,0.824,2.857,2.326,3.355,3.945
		c0.129,0.42,0.037,0.504-0.707,0.636c-0.472,0.083-1.021,0.2-1.224,0.261c-0.251,0.071-0.465-0.129-0.675-0.635
		c-1.665-4.021-7.255-3.83-9.033,0.311c-0.945,2.196-0.834,6.057,0.232,8.149c1.304,2.556,5.002,3.481,7.337,1.843
		c0.758-0.533,1.821-2.09,2.196-3.214c0.06-0.179,0.391-0.218,1.016-0.116c1.556,0.249,1.591,0.334,0.828,1.962
		c-0.777,1.663-1.938,2.894-3.389,3.595C533.288,211.835,530.277,212.068,528.862,211.71z"/>
	<polygon points="503.427,202.91 503.427,194.074 504.674,194.074 505.92,194.074 505.92,197.699 505.92,201.324 510.222,201.324 
		514.527,201.324 514.527,197.699 514.527,194.074 515.773,194.074 517.019,194.074 517.019,202.91 517.019,211.746 
		515.773,211.746 514.527,211.746 514.527,207.555 514.527,203.364 510.222,203.364 505.92,203.364 505.92,207.555 505.92,211.746 
		504.674,211.746 503.427,211.746 	"/>
	<g id="g4043_3_">
		<g id="text4045_3_">
			<path id="path4128_3_" d="M481.226,204.142c0-2.894,0.776-5.156,2.329-6.792c1.553-1.637,3.557-2.453,6.013-2.453
				c1.607,0,3.061,0.384,4.352,1.15c1.29,0.77,2.273,1.841,2.95,3.217c0.679,1.374,1.019,2.933,1.019,4.676
				c0,1.767-0.356,3.347-1.071,4.74c-0.712,1.396-1.721,2.449-3.029,3.167c-1.306,0.717-2.717,1.074-4.229,1.074
				c-1.639,0-3.104-0.396-4.396-1.188c-1.291-0.792-2.269-1.873-2.935-3.244C481.559,207.12,481.226,205.669,481.226,204.142
				L481.226,204.142z M483.603,204.177c0,2.1,0.564,3.752,1.692,4.961c1.129,1.207,2.546,1.813,4.25,1.813
				c1.732,0,3.159-0.61,4.28-1.83c1.121-1.221,1.684-2.951,1.684-5.191c0-1.417-0.24-2.655-0.721-3.715
				c-0.479-1.058-1.181-1.877-2.104-2.461c-0.923-0.58-1.958-0.872-3.107-0.872c-1.632,0-3.034,0.563-4.213,1.683
				C484.191,199.683,483.603,201.556,483.603,204.177L483.603,204.177z"/>
		</g>
	</g>
	<path d="M569.522,177.145c-0.41,0.843-0.443,1.074-0.199,1.367c0.41,0.493,0.853,0.438,1.234-0.156
		c0.783-1.215,0.917-1.752,0.533-2.135C570.569,175.699,570.087,175.986,569.522,177.145z"/>
	<path d="M562.489,176.6c0.335,0.543,0.898,0.521,1.261-0.043c0.187-0.288,0.669-1.271,1.07-2.182
		c0.669-1.508,0.702-1.686,0.376-2.013c-0.197-0.196-0.519-0.297-0.715-0.222C563.943,172.35,562.23,176.18,562.489,176.6z"/>
	<path d="M557.182,174.518c0.187-0.288,0.873-1.676,1.523-3.083c1.087-2.34,1.156-2.589,0.826-2.919
		c-0.196-0.199-0.521-0.299-0.721-0.225c-0.551,0.211-3.153,5.85-2.896,6.27C556.256,175.104,556.817,175.084,557.182,174.518z"/>
	<path d="M552.587,168.605c1.551-3.362,1.627-3.602,1.266-3.961c-0.289-0.288-0.479-0.325-0.76-0.147
		c-0.607,0.383-3.992,7.85-3.742,8.252c0.336,0.543,0.896,0.523,1.257-0.043C550.788,172.417,551.678,170.573,552.587,168.605z"/>
	<g id="g4043_5_">
		<g id="text4045_5_">
			<path id="path4128_5_" d="M528.291,165.947c0-2.892,0.776-5.156,2.329-6.792c1.555-1.635,3.559-2.453,6.015-2.453
				c1.605,0,3.059,0.384,4.35,1.152c1.29,0.768,2.275,1.839,2.952,3.215c0.677,1.374,1.017,2.933,1.017,4.676
				c0,1.769-0.354,3.347-1.069,4.74c-0.712,1.396-1.723,2.451-3.029,3.167c-1.306,0.717-2.717,1.076-4.229,1.076
				c-1.64,0-3.104-0.396-4.396-1.188c-1.291-0.792-2.269-1.873-2.935-3.244C528.625,168.925,528.291,167.474,528.291,165.947
				L528.291,165.947z M530.67,165.982c0,2.1,0.563,3.752,1.69,4.961c1.129,1.207,2.546,1.813,4.25,1.813
				c1.734,0,3.161-0.608,4.282-1.828c1.121-1.223,1.682-2.951,1.682-5.193c0-1.417-0.238-2.655-0.719-3.713
				c-0.479-1.06-1.181-1.877-2.104-2.461c-0.925-0.58-1.959-0.872-3.107-0.872c-1.632,0-3.036,0.561-4.213,1.681
				C531.258,161.488,530.67,163.361,530.67,165.982L530.67,165.982z"/>
		</g>
	</g>
	<g id="g4043_4_">
		<g id="text4045_4_">
			<path id="path4128_4_" d="M508.005,166.168c0-2.892,0.774-5.154,2.327-6.792c1.555-1.635,3.559-2.453,6.015-2.453
				c1.605,0,3.059,0.386,4.35,1.152c1.29,0.77,2.275,1.839,2.952,3.215c0.677,1.374,1.018,2.935,1.018,4.676
				c0,1.769-0.355,3.349-1.07,4.74c-0.712,1.396-1.723,2.451-3.029,3.167c-1.306,0.717-2.717,1.076-4.229,1.076
				c-1.641,0-3.104-0.396-4.396-1.188c-1.291-0.792-2.269-1.873-2.935-3.244C508.338,169.147,508.005,167.696,508.005,166.168
				L508.005,166.168z M510.382,166.203c0,2.102,0.563,3.752,1.69,4.961c1.129,1.207,2.546,1.813,4.25,1.813
				c1.734,0,3.161-0.61,4.282-1.83c1.121-1.221,1.682-2.951,1.682-5.193c0-1.417-0.238-2.655-0.719-3.713
				c-0.479-1.058-1.181-1.877-2.104-2.461c-0.923-0.58-1.958-0.872-3.107-0.872c-1.632,0-3.036,0.563-4.213,1.681
				C510.969,161.709,510.382,163.582,510.382,166.203L510.382,166.203z"/>
		</g>
	</g>
	<polygon points="489.091,165.714 489.091,156.878 490.336,156.878 491.58,156.878 491.58,160.503 491.58,164.128 495.885,164.128 
		500.189,164.128 500.189,160.503 500.189,156.878 501.435,156.878 502.681,156.878 502.681,165.714 502.681,174.55 501.435,174.55 
		500.189,174.55 500.189,170.359 500.189,166.167 495.885,166.167 491.58,166.167 491.58,170.359 491.58,174.55 490.336,174.55 
		489.091,174.55 	"/>
</g>
<g>
	<g id="g4029_19_">
		<path id="path4031_19_" shape-rendering="geometricPrecision" d="M419.719,474.031L419.719,474.031v-1.061v-1.063l37.827-21.842
			v1.063v1.063L419.719,474.031z"/>
	</g>
	<g id="g4043_11_">
		<g id="text4045_11_">
			<path id="path4128_11_" d="M447.152,408.156c0-3.605,0.968-6.427,2.903-8.466c1.936-2.038,4.434-3.06,7.495-3.06
				c2.004,0,3.812,0.479,5.421,1.438c1.607,0.958,2.836,2.293,3.681,4.008c0.844,1.713,1.269,3.656,1.269,5.828
				c0,2.201-0.444,4.172-1.334,5.91c-0.891,1.738-2.146,3.053-3.776,3.947c-1.629,0.894-3.387,1.34-5.273,1.34
				c-2.043,0-3.869-0.494-5.479-1.48c-1.609-0.988-2.828-2.336-3.658-4.044C447.567,411.869,447.152,410.061,447.152,408.156
				L447.152,408.156z M450.115,408.199c0,2.617,0.703,4.679,2.109,6.188c1.408,1.505,3.174,2.258,5.297,2.258
				c2.162,0,3.941-0.762,5.339-2.281c1.398-1.521,2.096-3.678,2.096-6.473c0-1.77-0.299-3.313-0.896-4.628
				c-0.598-1.318-1.472-2.343-2.622-3.066s-2.441-1.089-3.874-1.089c-2.033,0-3.783,0.699-5.25,2.096
				C450.847,402.6,450.115,404.931,450.115,408.199L450.115,408.199z"/>
		</g>
	</g>
	<g id="g4049_1_">
		<path id="line4051_1_" d="M453.635,451.131v-26.907"/>
		<path id="path4053_1_" shape-rendering="geometricPrecision" d="M460.552,451.826L460.552,451.826l1.818,1.031v-28.636h-1.818
			V451.826z"/>
		<path id="path4055_1_" shape-rendering="geometricPrecision" d="M452.723,452.857L452.723,452.857l1.82-1.031v-27.604h-1.82
			V452.857z"/>
	</g>
	<g id="g4029_18_">
		<path id="path4031_18_" shape-rendering="geometricPrecision" d="M457.804,452.34v-1.063v-1.063l37.827,21.842v1.063v1.063l0,0
			L457.804,452.34z"/>
	</g>
	<g id="g4029_17_">
		<path id="path4031_17_" shape-rendering="geometricPrecision" d="M496.011,474.105L496.011,474.105v-1.063v-1.063l37.827-21.842
			v1.063v1.063L496.011,474.105z"/>
	</g>
	<g id="g4029_16_">
		<path id="path4031_16_" shape-rendering="geometricPrecision" d="M534.096,452.412v-1.063v-1.063l37.827,21.844v1.063v1.063l0,0
			L534.096,452.412z"/>
	</g>
	<g id="Solid_5_">
		<path id="path3948_5_" shape-rendering="geometricPrecision" d="M572.709,519.172L572.709,519.172l-1.188,0.604l-1.188-0.701
			v-44.42l1.188-0.701l1.188-0.697V519.172z"/>
	</g>
	<g id="g4029_15_">
		<path id="path4031_15_" shape-rendering="geometricPrecision" d="M571.871,474.105L571.871,474.105v-1.063v-1.063l37.826-21.84
			v1.063v1.063L571.871,474.105z"/>
	</g>
	<g id="g4029_14_">
		<path id="path4031_14_" shape-rendering="geometricPrecision" d="M609.955,452.41v-1.061v-1.063l37.828,21.844v1.061v1.063l0,0
			L609.955,452.41z"/>
	</g>
	<g id="Solid_4_">
		<path id="path3948_4_" shape-rendering="geometricPrecision" d="M648.709,519.172L648.709,519.172l-1.188,0.604l-1.188-0.701
			v-44.42l1.188-0.701l1.188-0.697V519.172z"/>
	</g>
	<g id="g4029_13_">
		<path id="path4031_13_" shape-rendering="geometricPrecision" d="M609.821,540.76v1.063v1.063l-37.826-21.842v-1.063v-1.061l0,0
			L609.821,540.76z"/>
	</g>
	<g id="g4029_12_">
		<path id="path4031_12_" shape-rendering="geometricPrecision" d="M647.907,518.773L647.907,518.773v1.061v1.063l-37.828,21.842
			v-1.063v-1.063L647.907,518.773z"/>
	</g>
	<path d="M569.184,464.051c-0.544-0.654,0.021-1.113,1.375-1.113c0.871,0,1.262,0.104,1.436,0.379
		c0.4,0.635-0.199,1.094-1.436,1.094C569.853,464.408,569.382,464.285,569.184,464.051z"/>
	<path d="M568.278,457.256c-0.216-0.264-0.23-0.465-0.06-0.736c0.19-0.307,0.618-0.379,2.228-0.379c1.611,0,2.035,0.072,2.229,0.379
		c0.172,0.271,0.156,0.475-0.063,0.736c-0.228,0.271-0.735,0.355-2.168,0.355C569.016,457.611,568.509,457.527,568.278,457.256z"/>
	<path d="M567.598,450.457c-0.216-0.262-0.232-0.463-0.062-0.734c0.201-0.318,0.673-0.379,3.021-0.379
		c2.351,0,2.82,0.061,3.021,0.379c0.174,0.271,0.156,0.475-0.061,0.734c-0.24,0.289-0.807,0.359-2.961,0.359
		C568.406,450.816,567.842,450.746,567.598,450.457z"/>
	<path d="M566.692,443.66c-0.216-0.26-0.23-0.463-0.059-0.734c0.205-0.328,0.729-0.377,3.926-0.377s3.721,0.049,3.928,0.377
		c0.172,0.271,0.156,0.477-0.061,0.734c-0.248,0.301-0.889,0.359-3.867,0.359C567.579,444.019,566.941,443.961,566.692,443.66z"/>
	<path d="M566.012,436.863c-0.216-0.26-0.232-0.463-0.062-0.734c0.209-0.33,0.776-0.378,4.606-0.378s4.397,0.048,4.606,0.378
		c0.173,0.271,0.155,0.477-0.062,0.734c-0.252,0.307-0.945,0.359-4.547,0.359C566.962,437.222,566.264,437.17,566.012,436.863z"/>
	<polygon points="563.537,419.777 563.537,410.942 564.782,410.942 566.028,410.942 566.028,414.566 566.028,418.191 
		570.334,418.191 574.637,418.191 574.637,414.566 574.637,410.942 575.885,410.942 577.132,410.942 577.132,419.777 
		577.132,428.613 575.885,428.613 574.637,428.613 574.637,424.424 574.637,420.23 570.334,420.23 566.028,420.23 566.028,424.424 
		566.028,428.613 564.782,428.613 563.537,428.613 	"/>
	<path d="M608.263,446.205c-0.523-0.633,0.021-1.113,1.262-1.113c0.766,0,1.154,0.109,1.322,0.379
		c0.385,0.607-0.201,1.094-1.322,1.094C608.925,446.562,608.451,446.429,608.263,446.205z"/>
	<path d="M607.357,439.408c-0.216-0.26-0.232-0.463-0.06-0.734c0.191-0.309,0.616-0.377,2.228-0.377s2.035,0.068,2.229,0.377
		c0.173,0.271,0.154,0.477-0.063,0.734c-0.227,0.273-0.736,0.359-2.168,0.359C608.095,439.767,607.588,439.681,607.357,439.408z"/>
	<path d="M606.677,432.611c-0.215-0.26-0.232-0.463-0.061-0.736c0.201-0.316,0.67-0.377,3.021-0.377c2.35,0,2.817,0.061,3.021,0.377
		c0.172,0.273,0.156,0.479-0.061,0.736c-0.24,0.291-0.808,0.359-2.96,0.359C607.485,432.97,606.922,432.902,606.677,432.611z"/>
	<path d="M605.771,425.814c-0.216-0.26-0.232-0.462-0.059-0.735c0.205-0.325,0.723-0.378,3.813-0.378
		c3.091,0,3.608,0.053,3.814,0.378c0.172,0.273,0.154,0.478-0.063,0.735c-0.247,0.299-0.877,0.359-3.754,0.359
		S606.019,426.113,605.771,425.814z"/>
	<path d="M605.094,419.018c-0.216-0.263-0.232-0.463-0.061-0.736c0.209-0.331,0.775-0.378,4.606-0.378
		c3.83,0,4.396,0.047,4.604,0.378c0.174,0.273,0.156,0.476-0.061,0.736c-0.252,0.304-0.945,0.356-4.546,0.356
		C606.037,419.376,605.344,419.322,605.094,419.018z"/>
	<path d="M639.424,417.138c-1.084-0.492-2-1.514-2.373-2.645c-0.147-0.447-0.232-0.848-0.189-0.891
		c0.044-0.043,0.443-0.146,0.887-0.229c0.771-0.145,0.826-0.109,1.207,0.732c1.283,2.848,5.575,1.764,5.575-1.408
		c0-0.604-0.194-1.021-0.773-1.652c-0.72-0.782-0.869-0.848-2.039-0.848h-1.265v-0.742c0-0.783,0.074-0.84,1.39-1.057
		c1.814-0.301,2.563-1.949,1.464-3.229c-0.479-0.554-0.709-0.637-1.795-0.637c-1.387,0-2.252,0.563-2.521,1.631
		c-0.129,0.521-0.216,0.557-0.979,0.412c-0.462-0.086-0.878-0.195-0.929-0.242c-0.047-0.047,0.188-0.645,0.521-1.328
		c0.975-1.99,2.931-2.816,5.174-2.185c2.915,0.824,3.851,4.126,1.656,5.853l-0.563,0.441l0.841,0.541
		c2.698,1.74,1.896,6.191-1.361,7.553C642.224,417.681,640.549,417.65,639.424,417.138z"/>
	<path d="M607.54,410.762c-3.522-0.892-5.813-4.382-5.825-8.876c-0.012-3.971,1.637-6.859,4.727-8.306
		c1.098-0.513,1.572-0.594,3.426-0.591c1.887,0.004,2.297,0.08,3.309,0.606c1.578,0.823,2.854,2.325,3.354,3.944
		c0.129,0.42,0.036,0.503-0.707,0.636c-0.472,0.085-1.021,0.199-1.224,0.261c-0.251,0.071-0.464-0.127-0.673-0.636
		c-1.666-4.021-7.255-3.827-9.035,0.312c-0.945,2.197-0.834,6.057,0.232,8.151c1.305,2.554,5.004,3.479,7.339,1.84
		c0.758-0.532,1.819-2.087,2.194-3.212c0.061-0.182,0.392-0.219,1.018-0.117c1.554,0.248,1.59,0.333,0.827,1.962
		c-0.778,1.662-1.938,2.894-3.39,3.595C611.968,410.888,608.956,411.12,607.54,410.762z"/>
	<polygon points="620.287,401.932 620.287,393.096 621.533,393.096 622.779,393.096 622.779,396.721 622.779,400.346 
		627.084,400.346 631.388,400.346 631.388,396.721 631.388,393.096 632.635,393.096 633.883,393.096 633.883,401.932 
		633.883,410.767 632.635,410.767 631.388,410.767 631.388,406.576 631.388,402.385 627.084,402.385 622.779,402.385 
		622.779,406.576 622.779,410.767 621.533,410.767 620.287,410.767 	"/>
	<g id="Solid_3_">
		<path id="path3948_3_" shape-rendering="geometricPrecision" d="M611.222,587.654L611.222,587.654l-1.188,0.604l-1.188-0.701
			v-44.42l1.188-0.701l1.188-0.699V587.654z"/>
	</g>
	<g id="g4029_11_">
		<path id="path4031_11_" shape-rendering="geometricPrecision" d="M610.424,587.26L610.424,587.26v1.061v1.063l-37.828,21.842
			v-1.063v-1.063L610.424,587.26z"/>
	</g>
	<g id="g4029_10_">
		<path id="path4031_10_" shape-rendering="geometricPrecision" d="M611.223,589.383v-1.063v-1.063l37.828,21.842v1.061v1.063l0,0
			L611.223,589.383z"/>
	</g>
	<path d="M559.722,624.34c-3.524-0.893-5.816-4.383-5.828-8.875c-0.01-3.971,1.637-6.861,4.729-8.307
		c1.098-0.512,1.57-0.594,3.427-0.59c1.884,0.004,2.296,0.078,3.306,0.605c1.579,0.822,2.857,2.324,3.354,3.943
		c0.13,0.42,0.036,0.504-0.706,0.639c-0.474,0.081-1.021,0.197-1.226,0.258c-0.251,0.073-0.463-0.127-0.673-0.633
		c-1.665-4.021-7.255-3.83-9.035,0.309c-0.943,2.197-0.834,6.057,0.234,8.152c1.303,2.553,5.002,3.479,7.337,1.84
		c0.758-0.533,1.821-2.088,2.196-3.211c0.06-0.181,0.391-0.22,1.016-0.119c1.554,0.25,1.59,0.334,0.828,1.963
		c-0.778,1.662-1.938,2.893-3.389,3.594C564.148,624.465,561.137,624.695,559.722,624.34z"/>
	<g id="g4043_10_">
		<g id="text4045_10_">
			<path id="path4128_10_" d="M533.207,615.551c0-2.895,0.776-5.156,2.329-6.793c1.555-1.637,3.559-2.453,6.015-2.453
				c1.605,0,3.059,0.385,4.35,1.15c1.29,0.77,2.275,1.842,2.952,3.217s1.017,2.934,1.017,4.676c0,1.768-0.354,3.348-1.069,4.74
				c-0.712,1.396-1.723,2.449-3.029,3.168c-1.306,0.717-2.717,1.074-4.23,1.074c-1.639,0-3.104-0.396-4.396-1.188
				c-1.291-0.791-2.271-1.873-2.936-3.244C533.54,618.527,533.207,617.076,533.207,615.551L533.207,615.551z M535.584,615.584
				c0,2.102,0.564,3.754,1.692,4.963c1.129,1.205,2.546,1.813,4.25,1.813c1.734,0,3.161-0.611,4.282-1.83
				c1.121-1.221,1.682-2.951,1.682-5.191c0-1.42-0.24-2.656-0.719-3.715s-1.181-1.877-2.104-2.461
				c-0.925-0.58-1.959-0.873-3.107-0.873c-1.632,0-3.036,0.563-4.213,1.684C536.174,611.092,535.584,612.965,535.584,615.584
				L535.584,615.584z"/>
		</g>
	</g>
	<g id="g4043_9_">
		<g id="text4045_9_">
			<path id="path4128_9_" d="M512.921,615.769c0-2.891,0.774-5.156,2.327-6.791c1.555-1.635,3.559-2.453,6.015-2.453
				c1.605,0,3.059,0.383,4.35,1.152c1.29,0.768,2.275,1.838,2.952,3.215c0.677,1.373,1.017,2.932,1.017,4.676
				c0,1.766-0.354,3.346-1.069,4.74c-0.712,1.395-1.723,2.451-3.029,3.166c-1.306,0.717-2.717,1.076-4.229,1.076
				c-1.641,0-3.104-0.396-4.396-1.188c-1.291-0.793-2.269-1.873-2.935-3.244C513.254,618.748,512.921,617.299,512.921,615.769
				L512.921,615.769z M515.298,615.804c0,2.1,0.563,3.752,1.69,4.961c1.129,1.207,2.546,1.813,4.25,1.813
				c1.734,0,3.161-0.607,4.282-1.83c1.121-1.221,1.682-2.949,1.682-5.191c0-1.416-0.238-2.654-0.719-3.713
				c-0.479-1.059-1.181-1.877-2.104-2.461c-0.924-0.58-1.958-0.871-3.107-0.871c-1.632,0-3.036,0.561-4.213,1.68
				C515.885,611.31,515.298,613.183,515.298,615.804L515.298,615.804z"/>
		</g>
	</g>
	<polygon points="494.007,615.316 494.007,606.48 495.25,606.48 496.496,606.48 496.496,610.105 496.496,613.73 500.802,613.73 
		505.105,613.73 505.105,610.105 505.105,606.48 506.351,606.48 507.597,606.48 507.597,615.316 507.597,624.152 506.351,624.152 
		505.105,624.152 505.105,619.963 505.105,615.769 500.802,615.769 496.496,615.769 496.496,619.963 496.496,624.152 
		495.25,624.152 494.007,624.152 	"/>
	<path d="M572.215,519.948l-15.576,6.772c-8.565,3.726-15.901,6.937-16.303,7.136l-0.728,0.36l2.034,3.625
		c1.118,1.993,2.124,3.604,2.235,3.574c0.11-0.027,6.576-4.797,14.367-10.6l14.166-10.552L572.215,519.948z"/>
	<path d="M524.556,550.216c-3.523-0.891-5.815-4.381-5.828-8.876c-0.01-3.969,1.638-6.859,4.729-8.304
		c1.096-0.513,1.57-0.595,3.425-0.591c1.884,0.004,2.296,0.079,3.306,0.605c1.579,0.824,2.857,2.326,3.355,3.945
		c0.129,0.42,0.037,0.504-0.707,0.636c-0.472,0.083-1.021,0.2-1.224,0.26c-0.251,0.072-0.464-0.128-0.674-0.634
		c-1.665-4.021-7.255-3.83-9.034,0.31c-0.945,2.197-0.834,6.057,0.233,8.15c1.304,2.555,5.002,3.481,7.337,1.842
		c0.758-0.533,1.821-2.089,2.196-3.213c0.06-0.179,0.391-0.218,1.016-0.117c1.555,0.249,1.591,0.334,0.828,1.962
		c-0.777,1.663-1.938,2.894-3.389,3.595C528.982,550.341,525.971,550.574,524.556,550.216z"/>
	<polygon points="499.122,541.416 499.122,532.58 500.367,532.58 501.613,532.58 501.613,536.205 501.613,539.83 505.917,539.83 
		510.221,539.83 510.221,536.205 510.221,532.58 511.468,532.58 512.714,532.58 512.714,541.416 512.714,550.252 511.468,550.252 
		510.221,550.252 510.221,546.061 510.221,541.87 505.917,541.87 501.613,541.87 501.613,546.061 501.613,550.252 500.367,550.252 
		499.122,550.252 	"/>
	<g id="g4043_6_">
		<g id="text4045_6_">
			<path id="path4128_6_" d="M476.921,542.648c0-2.893,0.776-5.156,2.329-6.792s3.557-2.453,6.013-2.453
				c1.607,0,3.06,0.384,4.351,1.151c1.29,0.769,2.274,1.84,2.951,3.216c0.678,1.374,1.018,2.933,1.018,4.676
				c0,1.767-0.356,3.347-1.071,4.74c-0.712,1.396-1.721,2.45-3.029,3.167c-1.306,0.717-2.717,1.075-4.229,1.075
				c-1.639,0-3.104-0.396-4.396-1.188c-1.291-0.792-2.269-1.873-2.935-3.244C477.254,545.626,476.921,544.175,476.921,542.648
				L476.921,542.648z M479.298,542.683c0,2.1,0.564,3.752,1.692,4.961c1.129,1.207,2.546,1.813,4.25,1.813
				c1.733,0,3.16-0.61,4.281-1.83c1.121-1.221,1.683-2.951,1.683-5.192c0-1.417-0.24-2.655-0.72-3.714
				c-0.479-1.058-1.181-1.877-2.104-2.461c-0.923-0.58-1.958-0.872-3.107-0.872c-1.632,0-3.035,0.562-4.213,1.682
				C479.885,538.189,479.298,540.062,479.298,542.683L479.298,542.683z"/>
		</g>
	</g>
</g>
<g transform="translate(160.5, 27.4004)">
	<path fill="none" stroke="#161413" d="M166.5,147.314h79.797v5.949l11.896-11.898l-11.896-11.896v5.947H166.5v5.412V147.314"/>
</g>
<g>
	<path d="M562.255,331.138l1.029,0.258c-0.232,0.703-0.516,1.391-0.844,2.063h15.211v1.031H561.88
		c-0.298,0.547-0.634,1.094-1.009,1.641c-1.048,1.578-2.173,2.945-3.375,4.104l-0.845-0.773c1.297-1.172,2.438-2.516,3.422-4.029
		C561.104,333.912,561.831,332.482,562.255,331.138z M561.526,340.045c0.875,0.813,1.672,1.75,2.393,2.813h2.086
		c0.797-0.893,1.482-1.828,2.063-2.813l1.031,0.354c-0.518,0.875-1.117,1.693-1.805,2.461h4.732v0.914h-6.469v2.086h5.602v0.914
		h-5.602v2.367h7.125v0.938h-7.125v3.281h-1.031v-3.281h-7.336v-0.938h7.336v-2.367h-5.461v-0.914h5.461v-2.086h-6.75v-0.914h4.828
		c-0.563-0.797-1.203-1.555-1.922-2.273L561.526,340.045z M559.255,338.709h15.586c0,5.328,0.271,9.109,0.818,11.346
		c0.268,1.063,0.617,1.594,1.057,1.594c0.125,0,0.25-0.117,0.375-0.354c0.279-0.529,0.563-1.688,0.844-3.469l1.031,0.469
		c-0.393,2.143-0.789,3.471-1.195,3.984c-0.344,0.406-0.695,0.609-1.055,0.609c-0.781,0-1.422-0.729-1.922-2.182
		c-0.625-2.107-0.984-5.766-1.078-10.969h-14.461V338.709z M561.901,336.107h13.125v1.031h-13.125V336.107z"/>
	<path d="M588.13,331.232l1.219,0.352c-1,2.5-2,4.633-3,6.398v15.375h-1.125v-13.5c-1.078,1.688-2.258,3.271-3.539,4.758
		l-0.938-0.633c1.609-1.893,3-3.854,4.174-5.883C586.307,335.74,587.38,333.451,588.13,331.232z M591.995,331.396h1.195v9.818
		c2.969-1.516,5.625-3.412,7.969-5.693l0.867,1.219c-2.625,2.313-5.57,4.273-8.836,5.883v7.453c0,0.406,0.086,0.719,0.258,0.938
		c0.297,0.25,1.898,0.375,4.807,0.375c1.469,0,2.318-0.203,2.555-0.609c0.25-0.219,0.469-1.586,0.656-4.102l1.125,0.68
		c-0.25,2.766-0.57,4.25-0.961,4.453c-0.268,0.469-1.393,0.703-3.375,0.703c-3.096,0-4.898-0.135-5.414-0.398
		c-0.563-0.203-0.846-0.734-0.846-1.594V331.396L591.995,331.396z"/>
</g>
<g transform="translate(160.5, 27.4004)">
	<path fill="none" stroke="#161413" d="M386.18,276.267h-6.485h-5.412v79.795h-5.949l11.897,11.896l11.898-11.896h-5.949V276.267"/>
</g>
<g>
	<path d="M348.495,118.441h4.031v18.492c0,1-0.563,1.5-1.688,1.5c-0.578,0-1.234-0.096-1.971-0.281v-1.125
		c0.688,0.25,1.346,0.375,1.971,0.375c0.438,0,0.654-0.289,0.654-0.867v-6.867c-1.016,1.078-2.115,2.023-3.305,2.836l-0.352-0.938
		c1.357-0.953,2.577-2.047,3.654-3.281v-8.906h-4.029v8.086c0,2.281-0.173,4.484-0.518,6.609c-0.25,1.703-0.672,3.438-1.266,5.203
		l-0.844-0.586c0.607-2.047,1.021-3.859,1.24-5.438c0.234-1.904,0.354-3.813,0.354-5.719v-9.094L348.495,118.441L348.495,118.441z
		 M348.591,121.933c0.969,1.141,1.805,2.352,2.508,3.633l-0.75,0.771c-0.688-1.357-1.492-2.615-2.414-3.771L348.591,121.933z
		 M354.495,122.753h10.5v7.031h-3.375v6.938c0,0.516,0.078,0.826,0.234,0.938c0.125,0.143,1.078,0.211,2.859,0.211
		c0.563,0,0.883-0.125,0.961-0.375c0.094-0.203,0.18-1.232,0.258-3.094l1.031,0.656c-0.125,2.016-0.32,3.117-0.586,3.305
		c-0.125,0.281-0.682,0.422-1.664,0.422c-2.174,0-3.398-0.107-3.682-0.328c-0.357-0.125-0.539-0.633-0.539-1.521v-7.148h-2.203
		c-0.063,1.875-0.258,3.242-0.586,4.104c-0.375,1.016-0.951,2.016-1.732,3c-0.813,1-1.719,1.857-2.719,2.576l-0.729-0.865
		c0.906-0.656,1.734-1.438,2.484-2.346c0.732-0.891,1.271-1.813,1.617-2.766c0.297-0.766,0.482-2,0.563-3.703h-2.695
		L354.495,122.753L354.495,122.753z M354.87,117.409c1.156,1.313,2.156,2.688,3,4.125l-0.844,0.844
		c-0.828-1.516-1.805-2.914-2.93-4.193L354.87,117.409z M355.526,128.87h8.438v-5.18h-8.438V128.87z M363.966,117.316l0.844,0.469
		c-0.797,1.609-1.828,3.117-3.094,4.523l-0.846-0.682C362.182,120.284,363.216,118.847,363.966,117.316z"/>
	<path d="M369.591,123.409h8.154c-0.529,2.688-1.529,5.258-3,7.711c-1.482,2.297-3.271,4.203-5.365,5.719l-0.539-0.938
		c1.875-1.359,3.516-3.148,4.922-5.367c1.25-2.078,2.094-4.078,2.531-6h-6.703V123.409z M379.432,117.316h1.125v4.078
		c0.656,1.563,1.305,2.977,1.945,4.242c0.875-0.406,1.857-1,2.951-1.781c1.156-0.875,2.148-1.768,2.979-2.672l0.82,0.654
		c-0.813,0.938-1.854,1.885-3.117,2.836c-1.125,0.846-2.156,1.51-3.096,1.992c0.703,1.313,1.406,2.453,2.109,3.422
		c1.828,2.424,3.703,4.32,5.625,5.695l-0.586,1.148c-1.844-1.328-3.586-3.096-5.227-5.297c-1.471-1.859-2.938-4.5-4.406-7.924
		v12.914c0,1.375-0.82,2.063-2.461,2.063c-1.109,0-2.164-0.148-3.164-0.445l-0.094-1.219c1.094,0.358,2.18,0.539,3.258,0.539
		c0.891,0,1.336-0.398,1.336-1.195L379.432,117.316L379.432,117.316z"/>
</g>
<g>
	<path fill="#1D2088" d="M713.938,170.5c0.6,1.74,2.22,2.58,3.78,2.58h2.398v1.86h-15.539v-1.86h1.801c3-0.12,3.96-0.78,3.96-2.46
		c0-0.54-0.182-1.2-0.42-1.92l-3.182-8.879h-18.896l-3.12,8.219c-0.42,1.021-0.602,1.86-0.602,2.58c0,1.8,1.32,2.4,3.48,2.46h2.64
		v1.86H674.82v-1.86c4.38,0,5.579,0,7.68-5.04l13.739-36.058l3.359-1.561L713.938,170.5z M697.739,134.021L688.5,157.96h17.579
		L697.739,134.021z"/>
</g>
<g>
	<path fill="#1D2088" d="M682.199,497.171c0-0.899,0-3.181-3.3-3.181H676.5v-2.1h19.38c12.479,0,14.698,6.061,14.698,9.84
		c0,5.82-4.68,8.699-9.719,10.5l1.8,0.359c5.939,1.199,10.079,4.739,10.079,10.438c0,10.32-9.959,12.66-18.119,12.66H676.5v-2.101
		h2.461c1.92,0,3.238-0.78,3.238-2.999V497.171L682.199,497.171z M688.319,493.99c-2.76,0-3.06,1.74-3.06,3.181v14.399h7.318
		c6.24,0,14.939-2.399,14.939-9.84c0-3.84-2.76-7.74-11.641-7.74H688.319z M685.26,513.671v16.92c0,2.278,0.72,2.999,3.3,2.999h6.06
		c11.761,0,15.061-5.7,15.061-10.561c0-2.398-0.78-4.318-2.4-5.76c-2.999-3-10.199-3.6-12.419-3.6L685.26,513.671L685.26,513.671z"
		/>
</g>
<g>
	<path fill="#8B56A0" d="M144.187,257.523h8.297c-0.109-0.875-0.18-1.82-0.211-2.836h-3.681c-0.188,0-0.28-0.117-0.28-0.353v-0.772
		c0-0.25,0.094-0.375,0.28-0.375h4.781c0.25,0,0.375,0.102,0.375,0.305c0,1.469,0.103,2.813,0.306,4.031h7.663
		c0.313,0,0.47,0.117,0.47,0.352v14.672c0,0.595-0.345,1.063-1.031,1.406c-0.656,0.267-1.5,0.445-2.531,0.539
		c-0.172,0-0.272-0.102-0.305-0.305c-0.031-0.328-0.211-0.828-0.539-1.5c0-0.063,0.07-0.094,0.211-0.094
		c1.203,0,1.906-0.07,2.109-0.212c0.28-0.155,0.422-0.391,0.422-0.702V259h-6.164c0.328,1.392,0.766,2.578,1.313,3.563
		c0.563,1.047,1.328,2,2.297,2.858c0.688,0.563,1.445,1.063,2.273,1.5c0.188,0.078,0.281,0.188,0.281,0.328
		c0,0.063-0.07,0.125-0.211,0.188c-0.281,0.25-0.563,0.516-0.845,0.797c-0.108,0.109-0.266,0.164-0.469,0.164
		c-0.594-0.25-1.297-0.773-2.108-1.57c-1.109-1.063-1.938-2.147-2.484-3.258c-0.438-0.781-0.813-1.633-1.125-2.555
		c-0.172,0.358-0.352,0.694-0.539,1.008c-0.578,1.063-1.172,2-1.781,2.813c-0.688,0.859-1.444,1.681-2.272,2.461
		c-1.031,0.845-1.625,1.267-1.781,1.267c-0.109,0-0.219-0.109-0.328-0.328c-0.25-0.297-0.539-0.609-0.867-0.938
		c-0.125-0.155-0.188-0.266-0.188-0.327c1.108-0.642,2.055-1.298,2.836-1.97c0.813-0.733,1.608-1.672,2.391-2.813
		c0.422-0.688,0.961-1.75,1.617-3.188h-6.844v15.398c0,0.172-0.133,0.258-0.398,0.258h-0.938c-0.25,0-0.375-0.086-0.375-0.258
		v-16.523C143.812,257.64,143.937,257.523,144.187,257.523z"/>
	<path fill="#8B56A0" d="M166.523,253.844h9.914c0.125,0,0.188,0.094,0.188,0.28v0.75c0,0.25-0.063,0.375-0.188,0.375h-3.095v2.813
		h2.345c0.25,0,0.375,0.102,0.375,0.305v15.445c0,0.188-0.125,0.281-0.375,0.281h-0.75c-0.25,0-0.375-0.095-0.375-0.281v-0.938
		h-6.281V274c0,0.203-0.125,0.306-0.375,0.306h-0.75c-0.25,0-0.375-0.103-0.375-0.306v-15.633c0-0.203,0.125-0.305,0.375-0.305
		h2.414c0.016-0.688,0.022-1.625,0.022-2.813h-3.069c-0.142,0-0.211-0.125-0.211-0.375v-0.75
		C166.312,253.937,166.383,253.844,166.523,253.844z M168.281,267.531h6.281v-2.273c-1.75-0.141-2.625-0.75-2.625-1.827v-3.938
		h-1.031c-0.031,0.438-0.07,0.867-0.117,1.289c-0.063,0.797-0.188,1.539-0.375,2.227c-0.156,0.673-0.358,1.242-0.608,1.712
		c-0.188,0.327-0.414,0.641-0.681,0.938c-0.125,0-0.194-0.07-0.211-0.211c-0.203-0.266-0.391-0.555-0.563-0.867
		c-0.047-0.078-0.07-0.147-0.07-0.211c0.281-0.297,0.5-0.625,0.656-0.984c0.125-0.313,0.227-0.75,0.305-1.313
		c0.078-0.391,0.141-0.891,0.188-1.5c0.03-0.344,0.063-0.703,0.094-1.078h-1.242L168.281,267.531L168.281,267.531z M168.281,271.492
		h6.281v-2.555h-6.281V271.492z M171.937,258.062v-2.813H171c0,1.109-0.008,2.047-0.022,2.813H171.937z M173.344,259.492v3.539
		c0,0.453,0.405,0.719,1.219,0.797v-4.336H173.344z M178.125,263.875h8.531c0.25,0,0.375,0.095,0.375,0.281v9.656
		c0,0.188-0.125,0.281-0.375,0.281h-0.938c-0.188,0-0.28-0.095-0.28-0.281v-1.031h-6v0.938c0,0.188-0.125,0.28-0.375,0.28h-0.938
		c-0.188,0-0.281-0.094-0.281-0.28v-9.47C177.844,264,177.937,263.875,178.125,263.875z M186.656,256.094
		c-0.031,0-0.07,0.008-0.117,0.022c-0.547,0.297-1.156,0.563-1.828,0.797c-0.844,0.297-1.741,0.563-2.694,0.797
		c-0.625,0.142-1.422,0.289-2.392,0.445v1.336c0,0.688,0.406,1.031,1.219,1.031h3.281c0.984,0,1.57-0.109,1.758-0.328
		c0.234-0.156,0.523-0.766,0.867-1.828c0.188,0.281,0.5,0.547,0.938,0.797c0.188,0.063,0.281,0.172,0.281,0.328
		c-0.484,1.266-0.853,1.961-1.103,2.086c-0.234,0.281-0.772,0.422-1.617,0.422h-4.594c-1.75,0-2.625-0.522-2.625-1.569v-7.242
		c0-0.125,0.031-0.188,0.094-0.188l1.523,0.142c0.172,0.03,0.258,0.086,0.258,0.164c0,0.155-0.039,0.241-0.117,0.258
		c-0.108,0.031-0.164,0.125-0.164,0.281v2.93c0.813-0.156,1.563-0.328,2.25-0.517c0.892-0.219,1.728-0.5,2.508-0.844
		c0.595-0.266,1.125-0.563,1.595-0.891c0.03,0,0.069,0,0.116,0c0.078,0,0.156,0.063,0.234,0.188
		c0.656,0.797,0.984,1.228,0.984,1.289c0,0.125-0.063,0.188-0.188,0.188L186.656,256.094z M179.437,267.625h6v-2.227h-6V267.625z
		 M179.437,271.304h6v-2.181h-6V271.304z"/>
</g>
</svg>
