<?xml version="1.0" encoding="UTF-8" standalone="no"?>
<!-- Created with Inkscape (http://www.inkscape.org/) -->
<svg
   xmlns:dc="http://purl.org/dc/elements/1.1/"
   xmlns:cc="http://creativecommons.org/ns#"
   xmlns:rdf="http://www.w3.org/1999/02/22-rdf-syntax-ns#"
   xmlns:svg="http://www.w3.org/2000/svg"
   xmlns="http://www.w3.org/2000/svg"
   xmlns:sodipodi="http://sodipodi.sourceforge.net/DTD/sodipodi-0.dtd"
   xmlns:inkscape="http://www.inkscape.org/namespaces/inkscape"
   id="svg2711"
   sodipodi:version="0.32"
   inkscape:version="0.46"
   width="285"
   height="89"
   version="1.0"
   sodipodi:docname="423px-Районы.svg"
   inkscape:output_extension="org.inkscape.output.svg.inkscape">
  <metadata
     id="metadata2716">
    <rdf:RDF>
      <cc:Work
         rdf:about="">
        <dc:format>image/svg+xml</dc:format>
        <dc:type
           rdf:resource="http://purl.org/dc/dcmitype/StillImage" />
      </cc:Work>
    </rdf:RDF>
  </metadata>
  <defs
     id="defs2714" />
  <sodipodi:namedview
     inkscape:window-height="711"
     inkscape:window-width="1024"
     inkscape:pageshadow="2"
     inkscape:pageopacity="0.0"
     guidetolerance="10.0"
     gridtolerance="10.0"
     objecttolerance="10.0"
     borderopacity="1.0"
     bordercolor="#666666"
     pagecolor="#ffffff"
     id="base"
     showgrid="false"
     inkscape:zoom="2.8284271"
     inkscape:cx="144.41646"
     inkscape:cy="50.139151"
     inkscape:window-x="-4"
     inkscape:window-y="-4"
     inkscape:current-layer="g2593" />
  <a
     id="a2930"
     transform="translate(0.3535531,6.1512623e-8)">
    <g
       transform="matrix(1.0012452,0,0,1,-0.3546426,0)"
       id="g2901">
      <g
         id="g2593"
         transform="matrix(0.9962784,0,0,1,3.2560466e-3,0)">
        <g
           transform="translate(-0.3535534,0)"
           id="g2581">
          <g
             id="g2722"
             transform="translate(1.2284485,0.307112)">
            <path
               style="fill:#05fdf8"
               d="M 0,44.5 L 0,0 L 142.5,0 L 285,0 L 285,44.5 L 285,89 L 142.5,89 L 0,89 L 0,44.5 z"
               id="path2738" />
            <path
               style="fill:#fcfd01"
               d="M 0,44.5 L 0,0 L 28.971408,-4.7392645e-15 L 57.942816,-9.4785291e-15 L 58.76735,3.1819807 C 59.782741,7.1005001 62,8.1456657 62,4.705778 C 62,1.8789138 65.044006,-1.3355972 65.745955,0.75 C 65.977346,1.4375 66.825096,2 67.629844,2 C 68.434591,2 69.859591,3.3576084 70.79651,5.0169076 C 71.73343,6.6762068 74.448764,8.9839047 76.830586,10.145125 C 81.99348,12.662213 82.767604,14.179543 80.586898,17.50772 C 77.929678,21.563151 72.981591,20.945989 67.477657,15.87264 C 62.520431,11.303229 62.24801,11.355207 64.658707,16.410491 C 67.217189,21.775684 72.528829,23.123768 80.736816,20.491084 C 83.763056,19.520428 90,25.586172 90,29.5 C 90,32.244013 84.35788,39 82.066275,39 C 81.442726,39 79.992093,37.406044 78.842645,35.457876 C 77.693198,33.509709 76.245874,32.081993 75.626371,32.285176 C 73.821795,32.877034 73.691183,39.879741 75.435077,42.54126 C 77.90172,46.305832 77.457737,52.22135 74.5,55 C 72.186828,57.173112 72,58.031983 72,66.492813 C 72,77.49868 70.007394,85.10991 66.529489,87.388721 C 64.3974,88.785719 59.810075,89 32.035183,89 L 0,89 L 0,44.5 z M 126.87226,87.25 C 127.3907,86.2875 130.89403,84.19768 134.65744,82.605955 C 138.42085,81.01423 143.5644,78.42673 146.08755,76.855955 C 148.6107,75.28518 151.01623,74 151.43318,74 C 151.85012,74 153.38573,73.164074 154.84563,72.142388 C 156.30553,71.120701 160.425,69.009192 164,67.450145 C 172.81026,63.608018 183.63063,56.043509 193.38936,46.904073 C 203.0258,37.879176 207.87449,34.501511 218.26319,29.57661 C 223.44337,27.120877 228.67205,23.501352 233.97789,18.698184 C 243.9658,9.6565238 248.06131,6.3469759 253.64198,2.8078209 C 257.9292,0.088946392 258.49601,-1.6724193e-14 271.53473,-8.4966756e-15 L 285,0 L 285,44.5 L 285,89 L 205.46482,89 C 130.02459,89 125.97816,88.909899 126.87226,87.25 z M 81.227202,80.827202 C 79.456446,79.056446 79.719102,76.214733 81.75,75.170969 C 82.7125,74.676299 85.391428,74.031113 87.703174,73.737222 C 90.01492,73.443331 93.27742,72.226585 94.953174,71.033343 C 97.53584,69.194323 98,68.212256 98,64.586893 C 98,59.341708 95.765408,57 90.760153,57 C 87.987524,57 86.592609,56.304555 84.588894,53.923275 C 83.165002,52.231076 82,50.076659 82,49.135683 C 82,48.194706 84.25,45.208649 87,42.5 L 92,37.575184 L 92,30.51484 C 92,24.151383 91.629858,22.82794 88.25,17.106704 C 85.678437,12.753705 82.774146,9.5219742 79.008017,6.8227486 C 68.725159,-0.54708728 62.833312,-2.9394746e-15 152.48549,-3.7886361e-15 C 231.73743,-4.5392891e-15 233.05331,0.031867924 232.03927,1.9266219 C 231.47217,2.9862639 228.4424,4.8132235 225.30645,5.9865321 C 222.1705,7.1598407 217.51858,9.6511917 214.96885,11.522868 C 212.41911,13.394544 206.54555,16.575622 201.91648,18.591931 C 187.61573,24.820993 184.92961,26.375932 181.87664,30.192573 C 179.9312,32.624634 177.09978,34.567264 173.58221,35.883357 C 165.04332,39.078165 152.25647,46.570271 146.53093,51.733319 C 143.52064,54.44787 138.37451,57.701534 134.57751,59.290918 C 130.91043,60.825923 125.79282,63.705269 123.20505,65.689464 C 118.1888,69.535705 111.51488,72.941931 108.92431,72.978038 C 108.05769,72.990117 106.29175,74.125 105,75.5 C 103.55091,77.042482 101.55009,78 99.776026,78 C 98.194586,78 95.685527,78.616566 94.20034,79.370147 C 90.093668,81.453863 82.685858,82.285858 81.227202,80.827202 z M 76.056136,70.56764 C 75.422032,69.803591 74.650843,67.62325 74.342384,65.722438 C 73.525556,60.688916 76.370402,59 85.665802,59 C 91.993944,59 93.079035,59.274751 94.443296,61.222506 C 96.467618,64.11263 96.411521,66.306912 94.25,68.783575 C 91.956999,71.410886 77.899951,72.789301 76.056136,70.56764 z"
               id="path2736" />
            <path
               style="fill:#5bfda1"
               d="M 67.23924,83.325396 C 69.163354,80.069634 69.552571,77.761867 69.853039,67.827514 C 70.179389,57.037453 70.387285,55.984793 72.603039,53.9032 C 75.367433,51.306186 75.79949,46.43928 73.531803,43.44113 C 71.754566,41.091412 71.531675,32.868325 73.2,31.2 C 75.525212,28.874788 79.02805,29.782018 80.149845,33 C 80.725038,34.65 81.793968,36 82.525245,36 C 84.260575,36 88,31.219814 88,29.001505 C 88,26.398295 82.968437,21.775187 81.074134,22.63787 C 78.113724,23.986067 70.502679,24.060124 68.030015,22.764792 C 64.928411,21.139981 61,15.40793 61,12.507104 C 61,11.298683 60.1,9.4954863 59,8.5 C 57.9,7.5045137 57,5.6347693 57,4.3450124 C 57,1.3928412 58.751074,1.253635 59.180449,4.1716721 C 59.651534,7.373168 62,7.7160498 62,4.5833333 C 62,0.49699588 63.439997,1.5668462 64.916289,6.75 C 67.460214,15.681536 76.114915,21.39083 78.98391,16.030065 C 79.900647,14.317125 79.528731,13.800224 76.133085,12.067895 C 71.511652,9.7102158 64.871513,2 67.462481,2 C 68.359278,2 69.859591,3.3576084 70.79651,5.0169076 C 71.73343,6.6762068 74.448764,8.9839047 76.830586,10.145125 C 81.99348,12.662213 82.767604,14.179543 80.586898,17.50772 C 77.929678,21.563151 72.981591,20.945989 67.477657,15.87264 C 62.520431,11.303229 62.24801,11.355207 64.658707,16.410491 C 67.217189,21.775684 72.528829,23.123768 80.736816,20.491084 C 83.763056,19.520428 90,25.586172 90,29.5 C 90,32.244013 84.35788,39 82.066275,39 C 81.442726,39 79.992093,37.406044 78.842645,35.457876 C 77.693198,33.509709 76.245874,32.081993 75.626371,32.285176 C 73.821795,32.877034 73.691183,39.879741 75.435077,42.54126 C 77.90172,46.305832 77.457737,52.22135 74.5,55 C 72.17829,57.181133 71.996878,58.031528 71.95623,66.924314 C 71.906794,77.739311 69.669027,86.274053 66.73924,86.821678 C 65.174495,87.114154 65.230157,86.724935 67.23924,83.325396 z M 127.5,86.239175 C 128.05,85.678702 131.875,83.757393 136,81.969599 C 140.125,80.181804 145.06696,77.657274 146.98213,76.359532 C 148.89731,75.061789 150.85284,74 151.32776,74 C 151.80269,74 153.38573,73.164074 154.84563,72.142388 C 156.30553,71.120701 160.425,69.009192 164,67.450145 C 172.81026,63.608018 183.63063,56.043509 193.38936,46.904073 C 203.0258,37.879176 207.87449,34.501511 218.26319,29.57661 C 223.44337,27.120877 228.67205,23.501352 233.97789,18.698184 C 246.9994,6.9103244 254.57884,1.2455111 255.75528,2.421947 C 256.53727,3.2039384 253.964,6 252.46232,6 C 251.75129,6 249.89389,7.3797689 248.33477,9.0661531 C 246.77564,10.752537 244.15,12.845937 242.5,13.718153 C 240.85,14.590368 236.55157,18.148433 232.94794,21.624963 C 228.58429,25.834714 224.133,28.971968 219.62082,31.017891 C 210.51757,35.145497 202.78789,40.553109 194.32479,48.71475 C 185.72097,57.012092 174.66993,64.753712 166,68.557205 C 162.425,70.125554 157.925,72.346249 156,73.492082 C 147.88645,78.321576 146.14784,79.25373 139.06517,82.571717 C 131.10582,86.300394 125.78378,87.98808 127.5,86.239175 z M 81.227202,80.827202 C 79.456446,79.056446 79.719102,76.214733 81.75,75.170969 C 82.7125,74.676299 85.391428,74.031113 87.703174,73.737222 C 90.01492,73.443331 93.27742,72.226585 94.953174,71.033343 C 97.53584,69.194323 98,68.212256 98,64.586893 C 98,59.341708 95.765408,57 90.760153,57 C 87.987524,57 86.592609,56.304555 84.588894,53.923275 C 83.165002,52.231076 82,50.076659 82,49.135683 C 82,48.194706 84.25,45.208649 87,42.5 L 92,37.575184 L 92,30.51484 C 92,24.153675 91.628641,22.824603 88.25,17.093811 C 85.574064,12.554935 82.838446,9.5589571 78.698831,6.6336193 C 75.508188,4.3788906 73.369849,2.3767169 73.946967,2.1843444 C 75.495107,1.6682977 80.982684,5.3366447 85.170425,9.6870261 C 88.731164,13.386053 94.000399,22.166084 93.999612,24.398939 C 93.999334,25.187417 106.70351,25.43402 138.74961,25.267589 L 183.5,25.035177 L 188.5,22.586297 C 191.25,21.239412 196.425,18.913037 200,17.416573 C 203.575,15.92011 209.14555,12.908003 212.379,10.723001 C 217.56893,7.2159104 228.85201,2 231.24863,2 C 233.50707,2 230.40046,4.0806187 225.28336,5.9951727 C 222.16011,7.1637289 217.51858,9.6511917 214.96885,11.522868 C 212.41911,13.394544 206.54555,16.575622 201.91648,18.591931 C 187.61573,24.820993 184.92961,26.375932 181.87664,30.192573 C 179.9312,32.624634 177.09978,34.567264 173.58221,35.883357 C 165.04332,39.078165 152.25647,46.570271 146.53093,51.733319 C 143.52064,54.44787 138.37451,57.701534 134.57751,59.290918 C 130.91043,60.825923 125.79282,63.705269 123.20505,65.689464 C 118.1888,69.535705 111.51488,72.941931 108.92431,72.978038 C 108.05769,72.990117 106.29175,74.125 105,75.5 C 103.55091,77.042482 101.55009,78 99.776026,78 C 98.194586,78 95.685527,78.616566 94.20034,79.370147 C 90.093668,81.453863 82.685858,82.285858 81.227202,80.827202 z M 93.717881,77.343077 C 95.487716,76.604385 98.022793,76 99.351386,76 C 101.61411,76 101.79308,75.590611 102.17884,69.532306 C 102.49185,64.616629 103.11971,62.501474 104.79534,60.717855 C 108.22623,57.065836 107.75962,51.601281 103.47343,45.236652 C 101.53382,42.356493 99.502207,40 98.958734,40 C 98.415262,40 97.0789,38.5375 95.98904,36.75 C 94.159137,33.748741 94.00719,33.680373 94.003738,35.856713 C 94.001307,37.389308 92.25155,39.854958 89,42.907674 C 86.25,45.48951 84,48.281636 84,49.112399 C 84,51.933891 87.897051,55 91.483191,55 C 96.475355,55 99.703644,58.372448 100.27753,64.187052 C 100.71784,68.648164 100.55358,69.024025 96.87008,71.984165 C 94.148609,74.171199 91.507414,75.271005 87.970804,75.689864 C 82.84378,76.297084 81.38281,77.192348 82.518964,79.030684 C 83.251692,80.216263 88.858241,79.371391 93.717881,77.343077 z M 76.056136,70.56764 C 75.422032,69.803591 74.650843,67.62325 74.342384,65.722438 C 73.525556,60.688916 76.370402,59 85.665802,59 C 91.993944,59 93.079035,59.274751 94.443296,61.222506 C 96.467618,64.11263 96.411521,66.306912 94.25,68.783575 C 91.956999,71.410886 77.899951,72.789301 76.056136,70.56764 z M 88.089816,69 C 92.638088,69 94.798357,66.36026 93,63 C 92.111286,61.339423 90.906177,61 85.899075,61 C 76.857172,61 74.347543,63.043839 77.092212,68.172299 C 77.957716,69.789508 78.813931,70.087214 81.217212,69.606558 C 82.885245,69.272951 85.977917,69 88.089816,69 z"
               id="path2734" />
            <path
               style="fill:#9ffd5d"
               d="M 67.283725,83.25 C 69.155744,80.082492 69.554838,77.686899 69.853039,67.827514 C 70.179389,57.037453 70.387285,55.984793 72.603039,53.9032 C 75.367433,51.306186 75.79949,46.43928 73.531803,43.44113 C 71.754566,41.091412 71.531675,32.868325 73.2,31.2 C 75.525212,28.874788 79.02805,29.782018 80.149845,33 C 80.725038,34.65 81.793968,36 82.525245,36 C 84.260575,36 88,31.219814 88,29.001505 C 88,26.398295 82.968437,21.775187 81.074134,22.63787 C 78.113724,23.986067 70.502679,24.060124 68.030015,22.764792 C 64.928411,21.139981 61,15.40793 61,12.507104 C 61,11.298683 60.1,9.4954863 59,8.5 C 57.870791,7.4780802 57.059293,5.5601677 57.136182,4.0950124 C 57.251681,1.8941172 57.336104,1.8258583 57.692048,3.6455706 C 57.922874,4.8256344 58.986593,6.5828788 60.055866,7.5505582 C 61.12514,8.5182375 62.03289,10.477731 62.073088,11.904988 C 62.171749,15.407955 65.1135,20.224676 68.076801,21.735258 C 70.99367,23.222171 78.635204,23.39927 79.5,22 C 80.605252,20.211665 83.092891,20.939045 86.076923,23.923077 C 89.540988,27.387142 89.759278,30.124951 86.89242,34.151083 C 84.277542,37.823339 81.059424,37.631566 79.17666,33.691287 C 78.214204,31.677042 77.22155,30.969896 75.667294,31.191287 C 73.816097,31.454975 73.456731,32.242198 73.20333,36.588823 C 72.990471,40.240019 73.343605,42.040277 74.45333,42.961267 C 75.415577,43.759862 76,45.890276 76,48.599392 C 76,52.090337 75.524829,53.265238 73.603943,54.523851 C 71.344123,56.004542 71.185865,56.759234 70.820611,67.796904 C 70.532687,76.497694 69.963712,80.462023 68.602726,83.25 C 67.595891,85.3125 66.388567,87 65.919784,87 C 65.451001,87 66.064774,85.3125 67.283725,83.25 z M 130,85.787509 C 131.375,85.114842 135.65,83.051481 139.5,81.202264 C 148.84345,76.714453 154.43592,73.742045 156.11625,72.3707 C 156.87731,71.749585 160.875,69.773742 165,67.979937 C 169.125,66.186133 174.975,62.825809 178,60.512551 C 181.025,58.199292 184.625,55.717745 186,54.998003 C 187.375,54.27826 191.2,50.878546 194.5,47.443084 C 201.58883,40.063263 208.8267,34.981443 218.67513,30.469342 C 223.73618,28.150602 228.24188,24.945408 233.96735,19.591013 C 238.43174,15.415956 242.7246,12 243.50703,12 C 244.28946,12 245.39354,11.13318 245.96054,10.073734 C 247.16142,7.8298659 256.38509,1.3447334 255.77578,3.1726709 C 255.55019,3.8494423 253.82865,5.2617999 251.95015,6.3112434 C 250.07164,7.3606869 247.93706,9.0725449 247.20664,10.115372 C 246.47621,11.1582 244.44341,12.752252 242.6893,13.657711 C 240.93518,14.563169 236.55157,18.148433 232.94794,21.624963 C 228.58429,25.834714 224.133,28.971968 219.62082,31.017891 C 210.51757,35.145497 202.78789,40.553109 194.32479,48.71475 C 185.72097,57.012092 174.66993,64.753712 166,68.557205 C 162.425,70.125554 157.925,72.346249 156,73.492082 C 147.90458,78.310783 146.16208,79.247219 139.32587,82.452912 C 135.3801,84.303196 131.1051,86.085597 129.82587,86.413803 C 127.64218,86.974062 127.65283,86.935777 130,85.787509 z M 81.380681,79.549654 C 80.391212,76.97114 82.695427,75.314654 88.174302,74.665762 C 95.507537,73.797249 99,70.314319 99,63.869613 C 99,58.222111 96.698738,56 90.850074,56 C 88.038666,56 86.645321,55.364557 85.07258,53.365141 C 82.038197,49.507548 82.454618,47.961997 88,42.5 L 93,37.575184 L 93,30.522125 C 93,25.079554 92.475863,22.489131 90.704565,19.177486 C 87.25448,12.727154 83.656669,8.6234322 78.397617,5.1399808 C 75.790339,3.4129914 74.116744,2 74.678517,2 C 76.091993,2 82.944432,7.1425905 86.166196,10.621227 C 88.956883,13.634416 94.00028,22.504936 93.999612,24.398939 C 93.999334,25.187417 106.70351,25.43402 138.74961,25.267589 L 183.5,25.035177 L 188.5,22.586297 C 191.25,21.239412 196.425,18.913037 200,17.416573 C 203.575,15.92011 209.14555,12.908003 212.379,10.723001 C 217.94391,6.9625204 229.88798,1.5546467 230.74213,2.4087952 C 230.95986,2.6265257 228.51945,3.7748384 225.319,4.9606012 C 222.11855,6.146364 217.01855,8.8446671 213.98566,10.95683 C 210.95277,13.068993 205.10277,16.230226 200.98566,17.981792 C 188.50319,23.292278 184.9225,25.342667 181.6418,29.05855 C 179.91381,31.015753 176.7,33.391888 174.5,34.338851 C 172.3,35.285814 169.375,36.701205 168,37.484165 C 166.625,38.267125 162.8,40.3387 159.5,42.087664 C 156.2,43.836628 150.99103,47.569889 147.92451,50.383799 C 144.4542,53.568241 139.73449,56.596069 135.42451,58.402904 C 131.61603,59.999502 125.35388,63.343123 121.50863,65.833175 C 117.66337,68.323227 112.4291,70.972664 109.87692,71.720814 C 107.32474,72.468964 104.43862,73.962842 103.46331,75.040543 C 102.488,76.118244 100.52227,77.002772 99.095012,77.006161 C 97.667756,77.009549 95.328675,77.623531 93.897055,78.370565 C 92.465435,79.117599 89.199585,80.042901 86.639611,80.426793 C 82.88937,80.989176 81.867686,80.818769 81.380681,79.549654 z M 93.717881,77.343077 C 95.487716,76.604385 98.022793,76 99.351386,76 C 101.61411,76 101.79308,75.590611 102.17884,69.532306 C 102.49185,64.616629 103.11971,62.501474 104.79534,60.717855 C 108.22623,57.065836 107.75962,51.601281 103.47343,45.236652 C 101.53382,42.356493 99.502207,40 98.958734,40 C 98.415262,40 97.0789,38.5375 95.98904,36.75 C 94.159137,33.748741 94.00719,33.680373 94.003738,35.856713 C 94.001307,37.389308 92.25155,39.854958 89,42.907674 C 86.25,45.48951 84,48.281636 84,49.112399 C 84,51.933891 87.897051,55 91.483191,55 C 96.475355,55 99.703644,58.372448 100.27753,64.187052 C 100.71784,68.648164 100.55358,69.024025 96.87008,71.984165 C 94.148609,74.171199 91.507414,75.271005 87.970804,75.689864 C 82.84378,76.297084 81.38281,77.192348 82.518964,79.030684 C 83.251692,80.216263 88.858241,79.371391 93.717881,77.343077 z M 75.978658,68.443866 C 74.591088,64.79428 74.748442,63.537632 76.828741,61.654988 C 79.528459,59.211776 91.086733,59.33337 93.345012,61.828741 C 97.445608,66.359848 94.090139,69.505932 84.228658,70.376223 C 77.085089,71.006655 76.940119,70.972699 75.978658,68.443866 z M 88.089816,69 C 92.638088,69 94.798357,66.36026 93,63 C 92.111286,61.339423 90.906177,61 85.899075,61 C 76.857172,61 74.347543,63.043839 77.092212,68.172299 C 77.957716,69.789508 78.813931,70.087214 81.217212,69.606558 C 82.885245,69.272951 85.977917,69 88.089816,69 z M 68.534796,15.896408 C 66.381791,14.006044 65,11.879104 65,10.455425 C 65,9.1698599 64.55,7.8399187 64,7.5 C 63.45,7.1600813 63.029767,5.6710237 63.066149,4.190983 C 63.116015,2.1624199 63.55132,2.7809081 64.834509,6.7035001 C 67.886103,16.031945 76.089149,21.438975 78.98391,16.030065 C 79.900647,14.317125 79.528731,13.800224 76.133085,12.067895 C 72.370129,10.148178 64.126034,1.208678 67.002995,2.1676651 C 67.778875,2.4262916 69.127778,3.9568686 70.000557,5.5689475 C 70.873337,7.1810264 73.592758,9.5200173 76.043715,10.766705 C 81.273982,13.427099 81.820059,14.436364 79.447634,17.057864 C 76.839201,19.940149 72.630154,19.492179 68.534796,15.896408 z"
               id="path2732" />
            <path
               style="fill:#fa08f5"
               d="M 102.17792,69.217098 C 102.50847,64.647163 103.198,62.418144 104.81282,60.699245 C 108.2253,57.06683 107.75072,51.588056 103.47343,45.236652 C 101.53382,42.356493 99.502207,40 98.958734,40 C 98.415262,40 97.0789,38.5375 95.98904,36.75 C 93.558517,32.763653 93.328558,26.471634 95.581787,25.606989 C 98.212048,24.597663 183,24.904433 183,25.923275 C 183,28.164009 177.54238,33.003866 173.22156,34.594867 C 170.6247,35.551076 167.6,37.108768 166.5,38.056404 C 165.4,39.004041 162.025,41.015014 159,42.525234 C 155.975,44.035454 150.99103,47.572593 147.92451,50.385544 C 144.4553,53.567888 139.73312,56.596348 135.42451,58.402122 C 131.61603,59.99829 124.9,63.461452 120.5,66.09804 C 116.1,68.734627 111.15,71.212356 109.5,71.604105 C 107.85,71.995854 105.42679,73.011722 104.1151,73.86159 L 101.73019,75.406804 L 102.17792,69.217098 z"
               id="path2730" />
            <path
               style="fill:#fba407"
               d="M 102.17792,69.217098 C 102.50847,64.647163 103.198,62.418144 104.81282,60.699245 C 108.2253,57.06683 107.75072,51.588056 103.47343,45.236652 C 101.53382,42.356493 99.502207,40 98.958734,40 C 98.415262,40 97.0789,38.5375 95.98904,36.75 C 93.558517,32.763653 93.328558,26.471634 95.581787,25.606989 C 98.077526,24.649284 183,24.900067 183,25.865141 C 183,27.853739 178.37286,32.380403 174.5786,34.103669 C 168.52153,36.854654 167.33111,36.58077 166.5218,32.25 C 166.13638,30.1875 165.3562,27.9375 164.78807,27.25 C 164.01372,26.312948 157.70191,26 139.577,26 L 115.39889,26 L 109.69944,32.927993 C 106.56475,36.73839 104,40.539578 104,41.375079 C 104,43.34951 108.71001,52.202739 110.27499,53.169952 C 110.93961,53.580709 112.50547,53.660256 113.75468,53.346724 C 115.00389,53.033192 116.70013,53.336168 117.5241,54.020004 C 118.34808,54.703841 120.47973,56.042066 122.26112,56.993839 C 127.70883,59.904485 127.02985,62.151785 119.30052,66.792858 C 115.56023,69.038709 111.15,71.200258 109.5,71.5963 C 107.85,71.992341 105.42679,73.011722 104.1151,73.86159 L 101.73019,75.406804 L 102.17792,69.217098 z"
               id="path2728" />
            <path
               style="fill:#fa5a05"
               d="M 103.38808,72.568937 C 102.35916,69.887602 103.75945,63.88496 105.9604,61.542153 C 107.25875,60.160121 108,58.018877 108,55.650365 C 108,52.348584 108.20699,52.040412 109.83833,52.913475 C 110.84941,53.454589 112.6518,53.64231 113.84365,53.330635 C 115.0355,53.018959 116.68826,53.326315 117.51644,54.013648 C 118.34463,54.70098 120.47973,56.042066 122.26112,56.993839 C 127.70883,59.904485 127.02985,62.151785 119.30052,66.792858 C 115.56023,69.038709 111.15,71.191122 109.5,71.575999 C 107.85,71.960876 105.94282,72.714406 105.26183,73.250512 C 104.40084,73.928319 103.83005,73.720695 103.38808,72.568937 z M 99.906004,39.307108 C 97.929307,37.213199 95.72496,34.007919 95.007455,32.184264 C 92.910156,26.853635 94.715687,25.859393 105.85634,26.210166 L 115.06159,26.5 L 109.64915,33.016165 C 106.67231,36.600056 104.07095,40.338255 103.86836,41.323273 C 103.5645,42.800608 102.87066,42.447562 99.906004,39.307108 z M 166.5218,32.25 C 166.13638,30.1875 165.3562,27.9375 164.78807,27.25 C 163.97481,26.265861 165.69535,26 172.87756,26 C 182.81082,26 183.96581,26.804587 179.73635,30.777958 C 177.34074,33.028522 171.02856,36 168.64341,36 C 167.79281,36 166.94133,34.494984 166.5218,32.25 z"
               id="path2726" />
            <path
               style="fill:#fa0706"
               d="M 104.28636,67.901707 C 104.58869,65.647646 105.77294,62.806143 106.91803,61.587256 C 108.06814,60.363014 109,58.034003 109,56.383737 C 109,53.617693 109.27782,53.388312 112.75,53.287529 C 114.8125,53.227662 117.0675,53.64773 117.76112,54.221012 C 118.45473,54.794294 120.47973,56.044065 122.26112,56.99828 C 124.0425,57.952495 125.6333,59.404935 125.79623,60.225924 C 126.32004,62.865409 109.95273,71.960681 104.61833,71.994423 C 104.13341,71.99749 103.98403,70.155768 104.28636,67.901707 z M 100.73188,38.65424 C 99.32345,37.469408 97.417118,34.981557 96.495583,33.125682 C 93.918056,27.934812 95.659414,26.842786 105.93392,27.206793 L 114.21,27.5 L 108.75133,34.15424 L 103.29265,40.808481 L 100.73188,38.65424 z M 166.31018,31.512973 L 165.27746,27 L 173.13873,27 C 177.46243,27 181,27.380256 181,27.845012 C 181,29.651201 174.67853,33.768463 169.42145,35.386288 C 167.61394,35.942533 167.20822,35.437444 166.31018,31.512973 z"
               id="path2724" />
          </g>
        </g>
      </g>
      <path
         style="fill:#0000ff;fill-opacity:1"
         d="M 222.72717,16.481909 C 223.11699,15.462244 227.06525,10.180958 227.44541,10.170661 C 228.03815,10.154599 227.94444,10.341888 226.1221,12.815261 C 225.18392,14.088597 224.46287,15.177125 224.51974,15.234211 C 224.57662,15.291303 227.97542,13.412919 232.07262,11.060036 C 236.16982,8.7071554 239.57577,6.7820664 239.64137,6.7820664 C 239.70697,6.7820664 239.75681,6.9548164 239.75206,7.1659564 C 239.74735,7.3770954 237.18355,9.0009514 234.05477,10.774523 C 230.92597,12.548095 227.86631,14.314456 227.25553,14.699768 L 226.14504,15.400334 L 228.5163,15.201135 C 230.17776,15.061555 230.88756,15.104659 230.88756,15.345121 C 230.88756,15.533878 230.78429,15.692812 230.65808,15.698306 C 229.78725,15.736213 223.86152,16.613666 223.26322,16.793302 C 222.64332,16.979418 222.5563,16.928861 222.72717,16.481912 L 222.72717,16.481909 z"
         id="path2415" />
      <path
         style="fill:none;fill-rule:evenodd;stroke:#000000;stroke-width:0.99813747px;stroke-linecap:butt;stroke-linejoin:miter;stroke-opacity:1"
         d="M 91.793993,63.81681 C 99.44322,58.288793 99.44322,58.288793 99.44322,58.288793"
         id="path2441" />
      <text
         xml:space="preserve"
         style="font-size:13.42069626px;font-style:normal;font-weight:normal;text-align:start;line-height:100%;writing-mode:lr-tb;text-anchor:start;fill:#000000;fill-opacity:1;stroke:none;stroke-width:1px;stroke-linecap:butt;stroke-linejoin:miter;stroke-opacity:1;font-family:Bitstream Vera Sans"
         x="222.93086"
         y="24.448307"
         id="text2475"
         sodipodi:linespacing="100%"
         transform="scale(0.7780788,1.2852169)"><tspan
           sodipodi:role="line"
           id="tspan2477"
           x="222.93086"
           y="24.448307"><tspan
             style="font-size:10.73655701px"
             id="tspan2479">Петровский монастыр</tspan><tspan
             style="font-size:11.35718536px"
             id="tspan2483">ь</tspan></tspan></text>
      <text
         xml:space="preserve"
         style="font-size:10.68379879px;font-style:normal;font-weight:normal;text-align:start;line-height:100%;writing-mode:lr-tb;text-anchor:start;fill:#000000;fill-opacity:1;stroke:none;stroke-width:1px;stroke-linecap:butt;stroke-linejoin:miter;stroke-opacity:1;font-family:Bitstream Vera Sans"
         x="18.459042"
         y="23.543642"
         id="text2485"
         sodipodi:linespacing="100%"
         transform="scale(0.8419161,1.1877668)"><tspan
           sodipodi:role="line"
           id="tspan2487"
           x="18.459042"
           y="23.543642">Спасский монастырь</tspan></text>
      <text
         xml:space="preserve"
         style="font-size:13.08257771px;font-style:normal;font-weight:normal;text-align:start;line-height:100%;writing-mode:lr-tb;text-anchor:start;fill:#000000;fill-opacity:1;stroke:none;stroke-width:1px;stroke-linecap:butt;stroke-linejoin:miter;stroke-opacity:1;font-family:Bitstream Vera Sans"
         x="110.44495"
         y="68.855057"
         id="text2489"
         sodipodi:linespacing="100%"
         transform="scale(0.9083579,1.1008877)"><tspan
           sodipodi:role="line"
           id="tspan2491"
           x="110.44495"
           y="68.855057">Кремль</tspan></text>
      <path
         style="fill:#0000ff;fill-opacity:1"
         d="M 85.326801,14.063772 C 85.03315,12.95121 82.058963,7.1887702 81.772592,7.1775357 C 81.326081,7.1600098 81.396671,7.3643623 82.769426,10.063072 C 83.476148,11.452418 84.019315,12.640117 83.976469,12.702402 C 83.933623,12.764697 81.373339,10.715182 78.286947,8.1479379 C 75.200562,5.580696 72.634881,3.4802205 72.585469,3.4802205 C 72.536051,3.4802205 72.49851,3.6687091 72.502083,3.8990851 C 72.505631,4.1294601 74.436924,5.9012584 76.793811,7.8364127 C 79.150707,9.7715661 81.455525,11.698854 81.915618,12.119269 L 82.752144,12.88366 L 80.9659,12.666314 C 79.714331,12.514017 79.179644,12.561048 79.179644,12.823418 C 79.179644,13.029372 79.257433,13.202785 79.352505,13.208781 C 80.008499,13.25014 84.472302,14.207534 84.923,14.403537 C 85.389961,14.606609 85.455516,14.551445 85.326801,14.063776 L 85.326801,14.063772 z"
         id="path2493" />
      <text
         xml:space="preserve"
         style="font-size:13.39859581px;font-style:normal;font-weight:normal;text-align:start;line-height:100%;writing-mode:lr-tb;text-anchor:start;fill:#000000;fill-opacity:1;stroke:none;stroke-width:1px;stroke-linecap:butt;stroke-linejoin:miter;stroke-opacity:1;font-family:Bitstream Vera Sans"
         x="85.805542"
         y="129.14143"
         id="text2495"
         sodipodi:linespacing="100%"
         transform="matrix(0.9069214,-0.4593071,0.50999,0.8443488,0,0)"><tspan
           sodipodi:role="line"
           id="tspan2497"
           x="85.805542"
           y="129.14143"
           style="fill:#0000ff">р. Волга</tspan></text>
      <path
         style="font-size:12.40652752px;font-style:normal;font-weight:normal;text-align:start;line-height:100%;writing-mode:lr-tb;text-anchor:start;fill:#0000ff;fill-opacity:1;stroke:none;stroke-width:1px;stroke-linecap:butt;stroke-linejoin:miter;stroke-opacity:1;font-family:Bitstream Vera Sans"
         d="M 88.595229,37.1452 C 88.481309,37.120278 88.385147,37.106026 88.281478,37.113047 C 87.866797,37.141142 87.572589,37.437476 87.41467,37.998122 L 87.192607,38.862977 L 84.829189,36.876368 L 84.625332,37.539676 L 90.681656,42.623053 L 91.142036,40.925826 C 91.298534,40.370208 91.246325,39.801784 90.957678,39.248826 C 90.669034,38.695876 90.253266,38.203624 89.746868,37.780996 C 89.312806,37.418752 88.937003,37.219964 88.595229,37.1452 z M 88.785443,38.120109 C 89.029289,38.155942 89.312796,38.290023 89.575522,38.509277 C 89.91439,38.792087 90.153986,39.088634 90.262213,39.40562 C 90.370436,39.722616 90.341037,40.080892 90.219949,40.510803 L 90.048608,41.239086 L 88.013251,39.551147 L 88.267829,38.751265 C 88.398834,38.286156 88.54159,38.084287 88.785443,38.120109 z M 84.302802,38.560662 L 83.433732,41.70152 L 87.438442,45.064471 C 87.963876,45.502983 88.284338,45.763473 88.373856,45.863024 C 88.463387,45.962583 88.493373,46.058515 88.520171,46.155399 C 88.546963,46.252281 88.556909,46.365655 88.517247,46.506445 L 88.432064,46.812079 L 89.268967,47.532734 C 89.35749,47.351995 89.443488,47.177314 89.488103,47.018926 C 89.560331,46.762484 89.508479,46.482028 89.379183,46.206449 C 89.24989,45.930872 89.105673,45.683554 88.889519,45.465901 C 88.67338,45.248257 88.215653,44.846148 87.511268,44.25829 L 84.474491,41.758867 L 85.001851,39.957556 L 90.205013,44.287789 L 90.408867,43.624477 L 84.302802,38.560662 z M 83.715632,43.573438 C 83.598878,43.546054 83.504645,43.541658 83.401881,43.541285 C 82.990831,43.539805 82.709281,43.737834 82.586766,44.172771 C 82.489761,44.517214 82.528715,44.955467 82.691792,45.453312 C 82.854884,45.95117 83.137068,46.452791 83.587874,47.006005 C 84.038687,47.559227 84.604836,48.134802 85.25973,48.681347 C 86.27253,49.526593 87.057619,49.97612 87.694022,50.095808 C 88.330419,50.215495 88.784269,50.037926 88.938639,49.489845 C 89.061851,49.052388 88.914491,48.500838 88.605042,47.871516 C 88.295588,47.2422 87.842881,46.603304 87.166633,45.948884 L 86.848003,46.501807 C 87.348565,46.978557 87.648316,47.39631 87.845525,47.781354 C 88.042736,48.166404 88.110789,48.489765 88.035733,48.756261 C 87.942266,49.08813 87.683463,49.203747 87.256063,49.101675 C 86.828666,48.999606 86.245882,48.633076 85.431072,47.953067 C 84.627684,47.282595 84.071246,46.684234 83.760191,46.160708 C 83.449154,45.637196 83.31112,45.202872 83.407415,44.860942 C 83.471147,44.634675 83.655271,44.536407 83.905846,44.548347 C 84.156419,44.560297 84.468822,44.699152 84.893931,44.976297 L 84.983015,44.202603 C 84.506799,43.877367 84.065909,43.655587 83.715632,43.573438 z M 82.556549,47.800254 C 81.911745,47.693739 81.499534,47.920601 81.344449,48.471188 C 81.204955,48.966479 81.307563,49.57167 81.659838,50.291062 C 82.084379,51.154605 82.910448,52.074861 84.033665,53.01225 C 85.057887,53.867028 85.892124,54.330937 86.533963,54.43964 C 87.175802,54.548344 87.522157,54.316429 87.680062,53.755776 C 87.778491,53.406313 87.739311,52.977189 87.575037,52.475235 C 87.410748,51.973283 87.148785,51.46346 86.74496,50.935471 C 86.341124,50.407487 85.755122,49.833643 84.974586,49.182227 C 84.011288,48.3783 83.201359,47.906785 82.556549,47.800254 z M 83.010768,48.826874 C 83.46061,48.924393 84.053165,49.284526 84.803247,49.910509 C 85.599016,50.574634 86.165035,51.187483 86.490385,51.735353 C 86.815727,52.283231 86.954301,52.730714 86.859417,53.067606 C 86.76382,53.407016 86.463234,53.498864 86.013741,53.40009 C 85.564256,53.301324 84.981741,52.932204 84.205006,52.283968 C 83.428279,51.635743 82.855671,51.036312 82.534128,50.491612 C 82.212596,49.946921 82.1355,49.5117 82.231094,49.172286 C 82.325282,48.837913 82.560932,48.729371 83.010768,48.826874 z M 81.099962,52.027401 C 81.003494,52.017727 80.953513,52.030904 80.868466,52.04066 C 80.528306,52.079707 80.298896,52.271558 80.202595,52.613476 C 80.128956,52.874954 80.109513,53.15285 80.212024,53.465069 C 80.314544,53.7773 80.547176,54.146833 80.814509,54.550031 L 80.010121,53.894348 L 79.839752,54.505613 L 88.226978,61.510625 L 88.430835,60.847317 L 85.460059,58.360821 C 85.713471,58.429474 85.925753,58.432102 86.121062,58.373085 C 86.316379,58.314076 86.440984,58.176378 86.504719,57.950106 C 86.591821,57.640869 86.55187,57.222782 86.366204,56.721608 C 86.180542,56.220443 85.859572,55.717746 85.40412,55.155988 C 84.948665,54.594237 84.435155,54.044016 83.814528,53.526059 C 83.235786,53.04307 82.694283,52.655653 82.171291,52.38375 C 81.779047,52.179835 81.389372,52.056427 81.099962,52.027401 z M 81.735932,53.060319 C 82.179625,53.171334 82.854007,53.576807 83.626926,54.221853 C 84.43793,54.89869 84.988146,55.509216 85.314063,56.046698 C 85.639983,56.584187 85.7193,56.9798 85.634326,57.281493 C 85.550769,57.578164 85.320049,57.677598 84.888145,57.574862 C 84.456235,57.472133 83.859954,57.110155 83.079408,56.458741 C 82.298874,55.807336 81.738923,55.197996 81.392274,54.633899 C 81.04564,54.069809 80.908317,53.642817 80.98975,53.353688 C 81.071894,53.062056 81.292257,52.949317 81.735932,53.060319 z M 80.137911,56.410016 C 79.493108,56.303503 79.064635,56.497877 78.909554,57.048466 C 78.77006,57.543756 78.872684,58.148953 79.224943,58.868339 C 79.649483,59.731881 80.475561,60.652139 81.598772,61.589527 C 82.622995,62.444305 83.473477,62.940695 84.115324,63.049401 C 84.757169,63.158108 85.103514,62.926194 85.261424,62.365538 C 85.359854,62.016076 85.320685,61.586957 85.156401,61.084997 C 84.992111,60.583046 84.730157,60.073227 84.326319,59.545232 C 83.922487,59.017249 83.320238,58.410919 82.539693,57.759505 C 81.576397,56.955578 80.782714,56.516544 80.137911,56.410016 z M 80.575872,57.40415 C 81.025716,57.501669 81.684279,57.87473 82.434356,58.500714 C 83.230126,59.164838 83.730149,59.764761 84.055489,60.31263 C 84.380833,60.860507 84.519415,61.30799 84.424522,61.644883 C 84.328922,61.984293 84.044588,62.108625 83.595104,62.009853 C 83.145621,61.911087 82.563098,61.541964 81.786369,60.893732 C 81.009642,60.245505 80.437025,59.646074 80.115491,59.101374 C 79.793962,58.556684 79.716859,58.121462 79.812457,57.782049 C 79.906646,57.447678 80.126033,57.306646 80.575872,57.40415 z M 78.459577,59.480268 L 77.523533,62.725214 L 78.344176,63.413383 L 78.718399,62.138808 L 83.937821,66.501526 L 84.12542,65.805732 L 78.922253,61.475498 L 79.280222,60.168437 L 78.459577,59.480268 z M 77.924106,64.239454 C 77.279304,64.132941 76.867082,64.359798 76.712004,64.910388 C 76.572509,65.405681 76.675127,66.010869 77.027396,66.730262 C 77.451933,67.593804 78.27801,68.514063 79.40122,69.45145 C 80.425447,70.30623 81.259685,70.770139 81.901521,70.87884 C 82.543362,70.987544 82.889707,70.75563 83.047619,70.194976 C 83.146048,69.845513 83.106879,69.416393 82.942594,68.914436 C 82.778308,68.412484 82.516347,67.902663 82.112515,67.374671 C 81.708683,66.846687 81.122689,66.272846 80.342145,65.621429 C 79.378844,64.8175 78.568921,64.345985 77.924106,64.239454 z M 78.378322,65.266073 C 78.828169,65.363593 79.420729,65.723725 80.1708,66.349709 C 80.966569,67.013832 81.5326,67.626687 81.857937,68.174553 C 82.183282,68.722431 82.321862,69.169912 82.226971,69.506806 C 82.131376,69.846217 81.83078,69.93806 81.381301,69.839291 C 80.931814,69.740525 80.349309,69.371407 79.572565,68.72317 C 78.795837,68.074943 78.223217,67.475511 77.901684,66.930812 C 77.580152,66.38612 77.503067,65.950904 77.598651,65.611486 C 77.692837,65.277113 77.928495,65.168572 78.378322,65.266073 z M 73.932099,65.303539 C 73.920245,65.312279 73.875504,65.464171 73.796194,65.745744 C 73.733886,65.966997 73.736606,66.233082 73.839116,66.545296 C 73.941636,66.857528 74.095744,67.166535 74.294311,67.454899 C 74.492892,67.743285 74.88527,68.201413 75.390348,68.812345 C 76.077145,69.646351 76.491109,70.195247 76.648957,70.49465 C 76.806809,70.794065 76.801343,71.109329 76.70716,71.443703 L 73.096518,68.392351 L 72.85917,69.107704 L 81.246399,76.112716 L 81.483745,75.397363 L 77.511545,72.099385 C 77.588028,71.827864 77.761154,71.71029 78.043467,71.734746 C 78.325789,71.759216 78.811046,71.898292 79.510807,72.168665 L 82.097265,73.173404 L 82.352814,72.256504 L 79.189568,71.050884 C 78.242772,70.689235 77.671835,70.618259 77.422781,70.851332 C 77.362645,70.580682 77.280666,70.314896 77.132106,70.032555 C 76.98356,69.750227 76.57807,69.224797 75.922267,68.447708 C 75.404345,67.832273 75.047266,67.394326 74.90849,67.135674 C 74.769021,66.879557 74.782499,66.654483 74.848335,66.420652 C 74.853301,66.403066 74.856344,66.328878 74.8828,66.251594 C 74.907148,66.181872 74.926449,66.140171 74.933523,66.115022 L 73.932099,65.303539 z M 74.030677,77.277909 C 73.934208,77.268235 73.801962,77.235996 73.716921,77.245754 C 73.376758,77.284801 73.213364,77.489582 73.117052,77.831496 C 73.04341,78.092972 73.023981,78.370877 73.126485,78.683092 C 73.228998,78.995321 73.395621,79.351922 73.662963,79.755126 L 72.924573,79.112369 L 72.754209,79.723635 L 81.141435,86.728648 L 81.345289,86.065336 L 78.374514,83.578843 C 78.627928,83.647497 78.840201,83.650122 79.035515,83.591108 C 79.230835,83.532099 79.35545,83.394403 79.419175,83.168129 C 79.506277,82.858892 79.482589,82.47329 79.296916,81.972116 C 79.111252,81.47095 78.774041,80.935768 78.318579,80.374011 C 77.863125,79.812261 77.283602,79.249108 76.66298,78.731153 C 76.084241,78.248165 75.558983,77.893233 75.035996,77.621331 C 74.643757,77.417415 74.320085,77.306934 74.030677,77.277909 z M 79.12718,78.539882 L 78.856345,79.307278 L 80.071056,80.307047 L 80.27589,79.526722 L 79.12718,78.539882 z M 74.336637,78.246189 C 74.42496,78.248773 74.555722,78.283076 74.666645,78.310826 C 75.110337,78.421842 75.702449,78.781901 76.47538,79.426949 C 77.286384,80.103784 77.902596,80.727236 78.228517,81.26472 C 78.554441,81.80221 78.633765,82.197822 78.548787,82.499516 C 78.465223,82.796185 78.250773,82.928104 77.818858,82.82537 C 77.386948,82.72264 76.774403,82.328179 75.993863,81.676762 C 75.213328,81.025359 74.653375,80.416019 74.30673,79.851919 C 73.960094,79.287832 73.822785,78.860844 73.904205,78.571709 C 73.965815,78.352984 74.071654,78.238429 74.336637,78.246189 z"
         id="text2499"
         inkscape:transform-center-x="-4.7107327"
         inkscape:transform-center-y="2.5902123" />
      <text
         xml:space="preserve"
         style="font-size:15.53605652px;font-style:normal;font-weight:normal;text-align:start;line-height:100%;writing-mode:lr-tb;text-anchor:start;fill:#000000;fill-opacity:1;stroke:none;stroke-width:1px;stroke-linecap:butt;stroke-linejoin:miter;stroke-opacity:1;font-family:Bitstream Vera Sans"
         x="103.59258"
         y="41.310436"
         id="text2785"
         sodipodi:linespacing="100%"
         transform="scale(1.1020216,0.9074233)"
         inkscape:transform-center-y="9.0098689"
         inkscape:transform-center-x="4.4255462"><tspan
           sodipodi:role="line"
           id="tspan2787"
           x="103.59258"
           y="41.310436"
           style="font-size:16px">Посад</tspan></text>
    </g>
  </a>
</svg>
