<?xml version="1.0" encoding="UTF-8" standalone="no"?>
<svg
   xmlns:dc="http://purl.org/dc/elements/1.1/"
   xmlns:cc="http://creativecommons.org/ns#"
   xmlns:rdf="http://www.w3.org/1999/02/22-rdf-syntax-ns#"
   xmlns:svg="http://www.w3.org/2000/svg"
   xmlns="http://www.w3.org/2000/svg"
   xmlns:sodipodi="http://sodipodi.sourceforge.net/DTD/sodipodi-0.dtd"
   xmlns:inkscape="http://www.inkscape.org/namespaces/inkscape"
   version="1.0"
   width="142.48888"
   height="208"
   viewBox="0 0 113.9911 166.4"
   preserveAspectRatio="xMidYMid meet"
   id="svg2"
   inkscape:version="0.48.4 r9939"
   sodipodi:docname="A32.svg">
  <defs
     id="defs18" />
  <sodipodi:namedview
     pagecolor="#ffffff"
     bordercolor="#666666"
     borderopacity="1"
     objecttolerance="10"
     gridtolerance="10"
     guidetolerance="10"
     inkscape:pageopacity="0"
     inkscape:pageshadow="2"
     inkscape:window-width="1920"
     inkscape:window-height="1153"
     id="namedview16"
     showgrid="false"
     fit-margin-top="4"
     fit-margin-left="4"
     fit-margin-right="4"
     fit-margin-bottom="4"
     inkscape:zoom="2.9341046"
     inkscape:cx="85.360932"
     inkscape:cy="134.83191"
     inkscape:window-x="1276"
     inkscape:window-y="-4"
     inkscape:window-maximized="1"
     inkscape:current-layer="svg2" />
  <metadata
     id="metadata4">
Created by potrace 1.11, written by Peter Selinger 2001-2013
<rdf:RDF>
  <cc:Work
     rdf:about="">
    <dc:format>image/svg+xml</dc:format>
    <dc:type
       rdf:resource="http://purl.org/dc/dcmitype/StillImage" />
  </cc:Work>
</rdf:RDF>
</metadata>
  <rect
     style="fill:#e0b300;fill-opacity:1;fill-rule:evenodd;stroke:#000000;stroke-width:1.89584458;stroke-linejoin:miter;stroke-miterlimit:4;stroke-opacity:1;stroke-dasharray:none"
     id="rect2995"
     width="105.69525"
     height="158.10416"
     x="4.1479225"
     y="4.1479225" />
  <g
     transform="matrix(0.08673353,0,0,-0.08673353,4.2151064,162.42833)"
     id="g6"
     style="fill:#000000;stroke:none">
    <path
       d="m 0,1794 c 0,-19 16,-41 57,-79 l 57,-53 31,23 c 80,61 176,99 303,120 73,12 64,13 -185,14 l -263,1 0,-26 z"
       id="path8"
       inkscape:connector-curvature="0" />
    <path
       d="m 782,1805 c 42,-7 93,-18 115,-25 39,-13 154,-70 185,-92 15,-11 25,-5 72,41 l 55,55 4,-115 3,-114 2,133 2,132 -257,-1 c -245,-1 -254,-2 -181,-14 z"
       id="path10"
       inkscape:connector-curvature="0" />
    <path
       d="m 475,1626 c -87,-15 -166,-43 -202,-72 l -28,-23 50,-50 49,-51 -65,0 c -36,0 -114,-3 -172,-7 L 0,1417 0,708 0,0 298,1 C 560,2 589,3 548,15 397,56 269,207 224,395 c -17,75 -24,270 -11,318 24,88 421,136 657,79 124,-29 155,-48 163,-98 22,-129 -9,-326 -69,-445 C 914,149 787,40 691,14 651,3 684,1 933,1 l 287,-1 0,715 c 0,565 -3,715 -12,716 -7,1 -84,4 -170,8 l -158,6 46,48 c 45,48 45,49 25,63 -100,71 -300,100 -476,70 z m -155,-516 0,-240 -26,-10 c -56,-22 -54,-31 -54,240 l 0,250 40,0 40,0 0,-240 z m 168,18 -3,-223 -37,-3 -38,-3 0,225 0,226 40,0 40,0 -2,-222 z m 172,7 0,-215 -35,0 -35,0 0,215 0,215 35,0 35,0 0,-215 z m 170,-10 0,-225 -24,0 c -58,0 -56,-6 -56,231 l 0,219 40,0 40,0 0,-225 z m 170,-25 c 0,-137 -4,-250 -9,-250 -4,0 -22,5 -40,11 l -31,11 0,239 0,239 40,0 40,0 0,-250 z"
       id="path12"
       inkscape:connector-curvature="0" />
    <path
       d="M 418,720 C 304,695 294,689 286,641 277,585 298,417 321,350 364,228 475,113 572,89 c 88,-21 183,20 263,113 78,90 112,193 122,367 l 6,110 -29,11 c -130,50 -361,63 -516,30 z"
       id="path14"
       inkscape:connector-curvature="0" />
  </g>
</svg>
