<?xml version="1.0" encoding="UTF-8" standalone="no"?>
<!-- Created with Inkscape (http://www.inkscape.org/) -->

<svg
   width="132.29163mm"
   height="25.332546mm"
   viewBox="0 0 132.29163 25.332546"
   version="1.1"
   id="svg5"
   xml:space="preserve"
   xmlns="http://www.w3.org/2000/svg"
   xmlns:svg="http://www.w3.org/2000/svg"><defs
     id="defs2" /><g
     id="layer1"
     transform="translate(254.28281,-141.83331)"><path
       style="fill:#000000;stroke-width:0.0580308"
       d="m -193.74829,167.11866 c -0.37758,-0.15304 -0.33331,-0.4127 0.12849,-0.75361 0.19723,-0.14561 0.55868,-0.42142 0.80322,-0.61292 0.24453,-0.19151 0.71001,-0.51793 1.0344,-0.72539 0.32439,-0.20746 0.68107,-0.44684 0.79263,-0.53194 0.11157,-0.0851 0.47704,-0.31719 0.81217,-0.51573 0.73489,-0.43538 1.21696,-0.75716 1.56683,-1.04583 0.14363,-0.1185 0.40476,-0.28657 0.58031,-0.37349 0.17554,-0.0869 0.43668,-0.24078 0.58031,-0.34194 0.14362,-0.10116 0.3917,-0.25877 0.55129,-0.35024 0.15958,-0.0915 0.40099,-0.26718 0.53646,-0.39047 0.13547,-0.12329 0.43578,-0.3141 0.66735,-0.42403 0.23158,-0.10993 0.57773,-0.33049 0.76924,-0.49014 0.1915,-0.15965 0.50486,-0.38532 0.69637,-0.50149 0.1915,-0.11617 0.57015,-0.37463 0.84144,-0.57435 0.2713,-0.19973 0.61347,-0.43234 0.76039,-0.51691 0.38041,-0.21899 0.48355,-0.34524 0.4038,-0.49426 -0.0715,-0.13357 -0.13457,-0.1206 -0.67093,0.13797 -0.15958,0.0769 -0.64269,0.29906 -1.07356,0.49362 -1.21603,0.54908 -1.25792,0.57501 -1.88114,1.1645 -0.93633,0.88564 -1.77372,1.32624 -2.52921,1.33076 -0.49883,0.003 -1.10013,0.18614 -1.42528,0.43414 -0.11023,0.0841 -0.52013,0.30967 -0.91088,0.50131 -0.39075,0.19165 -0.7888,0.39024 -0.88455,0.44132 -0.0957,0.0511 -0.3751,0.19298 -0.62078,0.31532 -0.24568,0.12234 -0.54099,0.28643 -0.65625,0.36465 -0.11526,0.0782 -0.46264,0.23886 -0.77196,0.35699 -0.30932,0.11813 -0.64074,0.27237 -0.73649,0.34277 -0.26568,0.19533 -0.49125,0.29653 -0.84144,0.37754 -0.17555,0.0406 -0.50197,0.17325 -0.72539,0.29476 -0.46804,0.25456 -0.79877,0.34297 -1.03961,0.27791 -0.20358,-0.055 -0.26394,-0.13907 -0.26545,-0.36979 -0.001,-0.20966 0.55995,-1.06826 0.7989,-1.222 0.29405,-0.1892 1.25839,-0.97244 1.63776,-1.33019 0.20746,-0.19563 0.56658,-0.48182 0.79805,-0.63597 0.23147,-0.15416 0.58401,-0.42863 0.78342,-0.60994 0.19941,-0.18132 0.48008,-0.40979 0.6237,-0.50772 0.14363,-0.0979 0.31321,-0.23589 0.37686,-0.30658 0.0636,-0.0707 0.29867,-0.23453 0.52228,-0.36409 0.4779,-0.2769 1.28843,-0.91097 2.06043,-1.61187 0.30322,-0.27528 0.85161,-0.70462 1.21865,-0.95408 0.36705,-0.24946 0.85015,-0.62969 1.07357,-0.84495 0.22342,-0.21527 0.5023,-0.45305 0.61974,-0.5284 0.11743,-0.0754 0.46997,-0.3473 0.78341,-0.60432 0.31344,-0.25702 0.8014,-0.61971 1.08433,-0.80598 0.28294,-0.18627 0.66159,-0.45927 0.84145,-0.60668 0.4129,-0.3384 0.87761,-0.69376 1.48768,-1.13764 0.81415,-0.59236 1.58981,-1.18462 1.81536,-1.38615 0.24431,-0.21828 1.93582,-1.37334 2.78563,-1.90219 0.31004,-0.19294 0.73577,-0.47798 0.94607,-0.63342 0.21031,-0.15544 0.6673,-0.43561 1.01554,-0.6226 0.63031,-0.33845 0.91327,-0.50627 2.03447,-1.20656 0.32388,-0.20229 0.79079,-0.44801 1.03757,-0.54605 0.24679,-0.098 0.55631,-0.25122 0.68782,-0.34042 0.30694,-0.20818 1.68554,-0.95218 1.95101,-1.05292 0.11171,-0.0424 0.2726,-0.12486 0.35754,-0.18328 0.27464,-0.18888 0.76942,-0.39465 0.95036,-0.39523 0.097,-2.9e-4 0.29283,-0.064 0.43524,-0.1416 0.75568,-0.41161 2.04957,-0.90735 2.73534,-1.04802 0.10615,-0.0218 0.4013,-0.10407 0.6559,-0.18288 0.37573,-0.11631 0.52974,-0.13613 0.81789,-0.10527 0.29015,0.0311 0.39642,0.017 0.58166,-0.0768 0.12467,-0.0631 0.31154,-0.13309 0.41528,-0.15548 0.23961,-0.0517 0.90933,0.0182 1.03172,0.10765 0.0512,0.0374 0.10811,0.18464 0.12651,0.32715 0.0184,0.1425 0.082,0.32842 0.14123,0.41314 0.20997,0.30011 0.14049,0.48944 -0.37771,1.0291 -1.04047,1.08355 -1.69972,1.65202 -2.67765,2.30888 -0.2875,0.19311 -0.66615,0.47371 -0.84145,0.62355 -0.1753,0.14984 -0.51995,0.405 -0.76589,0.56702 -0.24924,0.1642 -0.51113,0.39124 -0.59167,0.51294 -0.10283,0.15539 -0.22488,0.24756 -0.42329,0.31966 -0.88271,0.32076 -1.66737,0.72916 -2.54015,1.32212 -0.19049,0.12941 -0.67359,0.40169 -1.07357,0.60507 -0.39998,0.20338 -0.87086,0.4804 -1.0464,0.61559 -0.36129,0.27825 -0.78784,0.53213 -1.91502,1.13978 -0.43088,0.23228 -1.00538,0.55936 -1.27668,0.72684 -0.27129,0.16748 -0.62383,0.37034 -0.78341,0.45078 -0.39484,0.19904 -0.87304,0.49153 -1.22014,0.7463 -0.15877,0.11652 -0.57592,0.36771 -0.927,0.55819 -1.47519,0.80035 -2.18114,1.30439 -2.03359,1.45194 0.0505,0.0505 0.87966,-0.32392 1.73397,-0.78312 0.45204,-0.24297 1.08609,-0.58068 1.409,-0.75047 0.32291,-0.16978 0.71922,-0.39759 0.88069,-0.50625 0.16146,-0.10866 0.48096,-0.27108 0.70999,-0.36093 0.38395,-0.15064 0.4284,-0.15668 0.57008,-0.0774 0.0845,0.0473 0.16238,0.14654 0.173,0.22057 0.0255,0.17775 -0.3831,0.56063 -0.87382,0.81877 -0.43654,0.22965 -1.1039,0.6651 -1.81492,1.18425 -0.28725,0.20974 -0.71935,0.48469 -0.9602,0.611 -0.24086,0.12632 -0.55423,0.33083 -0.69637,0.45446 -0.14215,0.12364 -0.40555,0.30805 -0.58532,0.4098 -0.17979,0.10175 -0.36218,0.22753 -0.40532,0.2795 -0.0431,0.052 -0.35303,0.27793 -0.68866,0.5021 -0.33563,0.22418 -0.68857,0.47267 -0.78432,0.55221 -0.0957,0.0795 -0.34383,0.22068 -0.55129,0.31364 -0.20746,0.093 -0.44249,0.22931 -0.52228,0.30297 -0.24468,0.22589 -1.27673,0.98272 -1.82797,1.34051 -0.69533,0.45131 -1.72248,1.07155 -1.77455,1.07155 -0.0229,0 -0.37227,0.24673 -0.77629,0.54829 -0.40402,0.30155 -1.03503,0.73896 -1.40224,0.97201 -1.16198,0.73746 -2.53515,1.65955 -2.69239,1.80796 -0.0834,0.0787 -0.18293,0.24752 -0.22115,0.3751 -0.11404,0.38062 -0.7395,0.85486 -1.39438,1.05725 -0.39522,0.12214 -0.54911,0.13443 -0.73579,0.0588 z m -1.12795,-3.22832 c 0.23847,-0.11434 0.70406,-0.32572 1.03464,-0.46972 0.33058,-0.144 0.75815,-0.35389 0.95016,-0.46642 0.192,-0.11253 0.49603,-0.26567 0.67562,-0.34031 0.17959,-0.0746 0.63989,-0.29732 1.0229,-0.49485 0.383,-0.19752 1.15804,-0.58807 1.72231,-0.86789 0.56427,-0.27982 1.25629,-0.66389 1.53782,-0.85349 0.77884,-0.52451 1.28316,-0.84108 1.73052,-1.08625 0.22342,-0.12244 0.62818,-0.37662 0.89948,-0.56483 0.93902,-0.65145 1.47257,-0.98289 2.05519,-1.27669 0.32186,-0.1623 0.78106,-0.4314 1.02044,-0.598 0.23938,-0.1666 0.57304,-0.37231 0.74147,-0.45713 0.16843,-0.0848 0.61237,-0.35865 0.98652,-0.6085 0.37416,-0.24984 0.81086,-0.52048 0.97044,-0.60142 0.15959,-0.0809 0.43378,-0.24459 0.60933,-0.36368 0.67344,-0.45688 1.2438,-0.79624 1.47322,-0.87658 0.2922,-0.10232 1.20384,-0.61797 1.5012,-0.84912 0.11987,-0.0932 0.38085,-0.24833 0.57994,-0.34477 0.19908,-0.0964 0.44828,-0.25112 0.55376,-0.34374 0.10548,-0.0926 0.36541,-0.24711 0.57762,-0.34333 0.21221,-0.0962 0.59612,-0.32743 0.85314,-0.5138 0.25702,-0.18637 0.61093,-0.41056 0.78648,-0.49821 0.17554,-0.0876 0.52808,-0.29608 0.78341,-0.46319 0.25534,-0.16712 0.73844,-0.45691 1.07357,-0.64398 0.83047,-0.46357 1.3357,-0.79215 1.5088,-0.98128 0.0798,-0.0872 0.27565,-0.22411 0.43524,-0.30429 0.286,-0.14371 0.80257,-0.44448 1.76994,-1.03057 0.98945,-0.59947 1.19353,-0.71644 1.39779,-0.80113 0.11449,-0.0475 0.60797,-0.40932 1.09663,-0.80411 0.48865,-0.39478 1.05678,-0.85024 1.26251,-1.01212 0.45953,-0.3616 0.71177,-0.71858 0.71055,-1.00558 -5.8e-4,-0.11489 -0.0206,-0.2399 -0.0447,-0.27779 -0.13091,-0.20589 -0.89788,-0.25404 -1.67571,-0.1052 -0.25017,0.0479 -0.5593,0.0873 -0.68697,0.0875 -0.26289,5.8e-4 -1.2134,0.32653 -2.11813,0.72637 -0.33512,0.14811 -0.84249,0.34623 -1.12748,0.44025 -0.28499,0.094 -0.65058,0.24544 -0.81243,0.33647 -0.16185,0.091 -0.39873,0.19773 -0.5264,0.23711 -0.23624,0.0729 -1.29,0.63093 -2.03807,1.07934 -0.22727,0.13622 -0.56675,0.32386 -0.7544,0.41697 -0.75177,0.373 -1.35709,0.73185 -1.79534,1.06431 -0.25348,0.1923 -0.63061,0.43426 -0.83807,0.53771 -0.20746,0.10344 -0.65139,0.35855 -0.98652,0.56691 -0.33513,0.20836 -0.73247,0.45477 -0.88298,0.54758 -0.24675,0.15215 -1.17661,0.79848 -1.97616,1.3736 -0.16695,0.12008 -0.64161,0.44512 -1.0548,0.7223 -0.41318,0.27718 -1.01057,0.71057 -1.32753,0.96307 -0.31695,0.25251 -0.6709,0.51272 -0.78656,0.57824 -0.11566,0.0655 -0.31474,0.2165 -0.44241,0.3355 -0.20875,0.1946 -1.02274,0.78455 -2.06009,1.4931 -0.20746,0.1417 -0.48166,0.35542 -0.60933,0.47493 -0.12766,0.11951 -0.4802,0.38128 -0.78341,0.58172 -0.62325,0.41199 -1.1935,0.85683 -1.72854,1.34838 -0.20065,0.18434 -0.38962,0.33517 -0.41994,0.33517 -0.0303,0 -0.21869,0.13861 -0.4186,0.30803 -0.19991,0.16941 -0.70272,0.55406 -1.11735,0.85476 -0.41463,0.3007 -0.93317,0.70395 -1.1523,0.89611 -0.79141,0.69398 -1.06116,0.91132 -1.51765,1.22278 -0.25533,0.17421 -0.67316,0.48524 -0.92849,0.69117 -0.25534,0.20593 -0.63081,0.49959 -0.83437,0.65259 -0.91252,0.68579 -1.63194,1.30393 -1.63194,1.40217 0,0.24825 0.19794,0.24138 0.75604,-0.0262 z m 19.72514,2.7278 c -0.17021,-0.2051 0.38286,-0.82585 1.05497,-1.18408 0.39275,-0.20933 0.85622,-0.55135 1.40807,-1.03909 0.21959,-0.19408 0.64417,-0.4849 0.94351,-0.64627 0.29934,-0.16137 0.77253,-0.45747 1.05152,-0.65801 0.50579,-0.36355 1.12507,-0.79434 2.10405,-1.46366 0.28405,-0.1942 0.75911,-0.53568 1.05568,-0.75885 0.29658,-0.22317 0.8362,-0.61267 1.19917,-0.86556 0.36297,-0.25288 0.80265,-0.57293 0.97708,-0.71121 0.17441,-0.13828 0.47806,-0.34527 0.67476,-0.45998 0.59236,-0.34546 0.88133,-0.70344 0.61031,-0.75605 -0.0472,-0.009 -0.42373,0.15854 -0.83664,0.37269 -0.41291,0.21415 -0.90742,0.47053 -1.09892,0.56974 -0.19151,0.0992 -0.45265,0.22455 -0.58031,0.27854 -0.31322,0.13245 -1.00433,0.50738 -1.22185,0.66285 -0.35937,0.25686 -1.57984,0.87855 -2.08591,1.06253 -0.28725,0.10443 -0.54839,0.21035 -0.58031,0.23538 -0.0319,0.025 -0.26694,0.12799 -0.52228,0.2288 -0.25533,0.1008 -0.52953,0.22583 -0.60932,0.27782 -0.22014,0.14346 -1.41674,0.74934 -1.57378,0.79687 -0.2278,0.0689 -0.90754,0.36803 -1.64693,0.72467 -1.23477,0.59557 -1.85052,0.86309 -2.14714,0.93286 -0.15959,0.0375 -0.42077,0.13999 -0.58041,0.22768 -0.34227,0.18802 -1.5903,0.61898 -1.95226,0.67414 -0.13905,0.0212 -0.52072,0.13946 -0.84817,0.26282 -0.8402,0.31651 -1.5413,0.29527 -1.81686,-0.055 -0.1474,-0.18739 -0.14511,-0.59986 0.005,-0.93103 0.16066,-0.35404 0.87874,-1.22414 1.23319,-1.49424 0.16308,-0.12428 0.47068,-0.38571 0.68354,-0.58096 0.21285,-0.19526 0.54554,-0.46266 0.73929,-0.59424 0.19376,-0.13157 0.49593,-0.36492 0.6715,-0.51856 0.17557,-0.15364 0.45811,-0.35415 0.62788,-0.44557 0.16975,-0.0914 0.45228,-0.27752 0.62782,-0.41356 0.17554,-0.13603 0.47585,-0.3368 0.66736,-0.44614 0.45743,-0.2612 1.28035,-0.7839 1.63356,-1.03761 0.1548,-0.1112 0.79067,-0.47192 1.41305,-0.80161 1.26919,-0.67233 1.56411,-0.75829 1.79827,-0.52413 0.1,0.1 0.12075,0.1693 0.0927,0.3093 -0.0476,0.23805 -0.24212,0.43281 -0.86733,0.86848 -0.28472,0.1984 -0.63805,0.46306 -0.78519,0.58812 -0.14713,0.12507 -0.41114,0.31874 -0.58668,0.43039 -0.17554,0.11165 -0.42386,0.30963 -0.55183,0.43996 -0.37581,0.38278 -1.23191,0.96161 -1.85645,1.2552 -0.31917,0.15004 -0.73699,0.39017 -0.92849,0.53362 -0.19151,0.14346 -0.43959,0.30672 -0.5513,0.36281 -0.11171,0.0561 -0.35979,0.21249 -0.55129,0.34756 -0.1915,0.13506 -0.43958,0.29182 -0.55129,0.34836 -0.11171,0.0565 -0.4686,0.26868 -0.79309,0.47145 -0.32448,0.20277 -0.76189,0.45079 -0.97201,0.55116 -0.33811,0.16151 -0.38204,0.20143 -0.38204,0.34721 0,0.21536 0.13837,0.28519 0.56199,0.28361 0.2357,-8.8e-4 0.50375,-0.0612 0.88878,-0.19987 0.61135,-0.22023 0.86778,-0.30764 1.5088,-0.51426 0.23938,-0.0772 0.77471,-0.27767 1.18963,-0.44557 0.41492,-0.16791 1.00248,-0.39061 1.30569,-0.49488 0.59134,-0.20337 2.4197,-1.03441 4.20724,-1.91233 0.60642,-0.29783 1.3115,-0.62206 1.56683,-0.72051 0.25534,-0.0985 0.54259,-0.2313 0.63834,-0.29523 0.18785,-0.12543 2.72007,-1.39327 2.78272,-1.39327 0.0208,0 0.30775,-0.15577 0.63757,-0.34615 0.32983,-0.19038 0.92255,-0.48774 1.31715,-0.66078 1.23224,-0.54039 5.15782,-2.58737 5.65815,-2.95043 0.6613,-0.47986 1.47101,-1.00206 1.84892,-1.19242 0.22341,-0.11254 0.73263,-0.44106 1.1316,-0.73006 0.39896,-0.28899 0.92124,-0.66619 1.16061,-0.83823 0.23938,-0.17203 0.51358,-0.38615 0.60933,-0.47582 0.0958,-0.0897 0.26549,-0.20885 0.3772,-0.26484 0.2125,-0.10653 0.85086,-0.50595 1.24766,-0.78066 0.12767,-0.0884 0.46715,-0.29901 0.7544,-0.46804 0.28725,-0.16904 0.74425,-0.47254 1.01554,-0.67444 0.27129,-0.20191 0.72829,-0.48849 1.01554,-0.63685 0.28725,-0.14836 0.70427,-0.38661 0.92672,-0.52944 0.68856,-0.44215 1.11385,-0.53395 1.28234,-0.27679 0.0776,0.11838 0.0822,0.17761 0.0267,0.3456 -0.0832,0.25203 -0.59772,0.70703 -1.07514,0.95072 -0.19151,0.0977 -0.50487,0.29637 -0.69637,0.4414 -0.19151,0.14502 -0.47876,0.33464 -0.63834,0.42138 -0.15959,0.0867 -0.44684,0.27299 -0.63834,0.41391 -0.1915,0.14091 -0.49181,0.33146 -0.66736,0.42345 -0.3719,0.19487 -0.97469,0.57936 -1.33988,0.85464 -0.14078,0.10612 -0.49099,0.32507 -0.77824,0.48654 -0.28725,0.16148 -0.61368,0.36415 -0.72539,0.45039 -0.11171,0.0862 -0.46424,0.29541 -0.78341,0.46483 -0.31917,0.16942 -0.65865,0.36444 -0.7544,0.43338 -0.37943,0.27317 -1.36102,0.84665 -1.82798,1.06796 -0.48173,0.22831 -0.87943,0.46354 -1.83393,1.08471 -0.25862,0.1683 -0.5981,0.37203 -0.7544,0.45273 -0.1563,0.0807 -0.50616,0.3178 -0.77745,0.5269 -0.2713,0.2091 -0.7544,0.56804 -1.07357,0.79764 -1.46528,1.05408 -2.35408,1.75522 -2.33639,1.84309 0.0112,0.0559 0.0738,0.0883 0.16183,0.0838 0.16016,-0.008 1.23761,-0.47555 1.9284,-0.83665 0.24761,-0.12944 0.73047,-0.32813 1.07301,-0.44155 0.34255,-0.11342 0.71525,-0.25338 0.82822,-0.31101 0.11298,-0.0576 0.3613,-0.14871 0.55184,-0.20239 0.19054,-0.0537 0.67582,-0.1997 1.0784,-0.3245 0.40257,-0.1248 0.81216,-0.2269 0.91021,-0.2269 0.4147,0 0.63078,0.20822 0.56058,0.54019 -0.0528,0.2499 -0.99508,1.17375 -1.68133,1.64851 -0.50761,0.35118 -0.94345,0.68935 -1.75161,1.35907 -0.35093,0.29083 -1.49813,1.01685 -2.04855,1.29645 -0.11171,0.0567 -0.37285,0.23967 -0.58031,0.40648 -0.60376,0.48548 -1.38981,0.98735 -2.00807,1.28211 -0.48728,0.23231 -0.65019,0.34893 -1.08175,0.77438 -0.45818,0.45167 -0.50809,0.52211 -0.50809,0.71703 0,0.1419 0.0417,0.25783 0.12131,0.33746 0.17141,0.17142 0.43758,0.14181 1.62845,-0.18115 0.11658,-0.0316 0.37085,-0.16359 0.56506,-0.29327 0.25324,-0.16911 0.44768,-0.25 0.68753,-0.28601 0.18393,-0.0276 0.62168,-0.16907 0.97276,-0.31436 0.35109,-0.14528 0.78197,-0.30569 0.95751,-0.35647 0.69813,-0.20191 2.50985,-1.00477 4.22811,-1.87367 0.4646,-0.23494 1.21141,-0.56938 1.65958,-0.74322 0.44818,-0.17383 1.0499,-0.42309 1.33715,-0.55392 0.28725,-0.13083 0.70507,-0.31322 0.92849,-0.40532 0.22342,-0.0921 0.57945,-0.27197 0.79118,-0.39972 0.21173,-0.12776 0.77268,-0.38873 1.24657,-0.57994 0.47388,-0.19121 1.01878,-0.43348 1.21089,-0.53839 0.1921,-0.1049 0.55516,-0.27593 0.80679,-0.38006 0.47919,-0.19831 2.50448,-1.22284 3.05335,-1.5446 0.17554,-0.10291 0.53488,-0.27215 0.79853,-0.3761 0.26365,-0.10396 0.59008,-0.25851 0.72539,-0.34345 0.13531,-0.0849 0.37659,-0.21063 0.53617,-0.27929 0.15959,-0.0687 0.52518,-0.24643 0.81243,-0.39502 0.28726,-0.1486 0.60943,-0.31328 0.71595,-0.36596 2.8417,-1.40556 5.473,-2.76732 5.81276,-3.00826 0.33206,-0.23549 3.18785,-1.58492 3.35414,-1.58492 0.0691,0 0.16723,0.0648 0.21985,0.14507 0.0882,0.13463 0.088,0.15578 -0.002,0.29357 -0.14734,0.22487 -1.07347,0.80618 -1.61328,1.01262 -0.26341,0.10074 -0.59644,0.25235 -0.74007,0.33692 -0.14362,0.0846 -0.42367,0.22331 -0.62231,0.30833 -0.19866,0.085 -0.48591,0.24431 -0.63834,0.35398 -0.15244,0.10967 -0.64984,0.3858 -1.10535,0.61364 -0.4555,0.22783 -0.92555,0.49113 -1.04455,0.58509 -0.119,0.094 -0.52974,0.32795 -0.91274,0.51996 -0.38301,0.192 -0.9314,0.50818 -1.21865,0.7026 -0.98661,0.66779 -1.482,0.9881 -1.70105,1.09985 -0.12067,0.0616 -0.42742,0.27988 -0.68166,0.48515 -0.25424,0.20527 -0.64472,0.4773 -0.86774,0.60452 -0.22302,0.12722 -0.60557,0.37274 -0.85012,0.54561 -0.24454,0.17286 -0.59708,0.41338 -0.78342,0.53448 -0.3151,0.20479 -0.56545,0.37998 -2.1513,1.50548 -0.32662,0.23181 -0.71288,0.49982 -0.85834,0.59557 -0.14546,0.0957 -0.42929,0.2959 -0.63072,0.44478 -0.20143,0.14888 -0.57644,0.37637 -0.83335,0.50554 -0.51326,0.25807 -1.11822,0.77481 -1.23383,1.05392 -0.15071,0.36384 0.0945,0.57906 0.65753,0.57706 0.5144,-0.002 2.23553,-0.34514 2.91476,-0.58141 0.19013,-0.0661 0.67212,-0.22092 1.07108,-0.34396 0.39896,-0.12304 1.15626,-0.38501 1.68289,-0.58214 1.01453,-0.37976 1.67115,-0.59685 2.52745,-0.83561 0.38701,-0.10791 0.72325,-0.2622 1.27668,-0.58582 1.00177,-0.58579 2.36877,-1.27464 2.94961,-1.48634 1.46374,-0.53351 2.04732,-0.70437 2.50218,-0.7326 0.40859,-0.0254 0.48247,-0.0143 0.61622,0.092 0.19713,0.15667 0.24134,0.39721 0.13736,0.74733 -0.11344,0.38201 -0.41037,0.7105 -0.85072,0.94117 -0.20191,0.10576 -0.44545,0.26466 -0.5412,0.3531 -0.29271,0.27038 -1.07845,0.7974 -1.53938,1.03251 -0.24023,0.12254 -0.69722,0.42003 -1.01554,0.66111 -0.31831,0.24107 -0.75974,0.52007 -0.98096,0.62001 -0.22121,0.0999 -0.48235,0.24213 -0.5803,0.316 -0.0979,0.0739 -0.30214,0.20642 -0.45375,0.29455 -0.2764,0.16067 -0.34033,0.29343 -0.20601,0.42776 0.0926,0.0926 0.5729,0.0869 1.00394,-0.0119 0.1915,-0.0439 0.59626,-0.0961 0.89947,-0.11595 0.50118,-0.0329 1.10507,-0.14124 1.97305,-0.35408 0.17555,-0.043 0.6456,-0.12151 1.04456,-0.17437 0.39896,-0.0529 0.92124,-0.14476 1.16061,-0.20424 0.23938,-0.0595 0.68087,-0.15023 0.98109,-0.20167 0.30022,-0.0514 0.80944,-0.1547 1.1316,-0.22946 0.32216,-0.0747 0.79466,-0.15369 1.04999,-0.17542 0.25534,-0.0217 0.58176,-0.0655 0.72539,-0.0972 0.14363,-0.0317 0.48718,-0.0946 0.76345,-0.13975 0.27628,-0.0451 0.57659,-0.11118 0.66736,-0.14675 0.15378,-0.0603 0.39888,-0.0868 2.08005,-0.22536 0.35109,-0.0289 0.96477,-0.0828 1.36373,-0.11973 0.79115,-0.0732 1.22341,-0.0373 2.27547,0.18927 0.87766,0.18898 1.19126,0.42285 1.24854,0.9311 0.037,0.32871 -0.0691,0.6578 -0.25046,0.77665 -0.19495,0.12773 -0.66164,0.0615 -1.13115,-0.16055 -0.4443,-0.21013 -0.94269,-0.32964 -1.66799,-0.39997 -0.29763,-0.0289 -0.59305,-0.069 -0.65649,-0.0891 -0.14795,-0.047 -2.01871,0.11254 -3.18371,0.27143 -0.49471,0.0675 -1.1345,0.1468 -1.42175,0.17628 -0.70905,0.0728 -1.60362,0.20647 -2.0601,0.30791 -0.20746,0.0461 -0.62528,0.11257 -0.92849,0.1477 -0.30321,0.0351 -0.68186,0.10017 -0.84145,0.14453 -0.60686,0.16869 -1.70872,0.38607 -2.3591,0.46541 -0.37192,0.0454 -1.00729,0.14837 -1.41194,0.22889 -0.40465,0.0805 -0.936,0.14639 -1.18078,0.1464 -0.24477,0 -0.64233,0.0378 -0.88345,0.0839 -0.48792,0.0934 -2.2224,0.0774 -2.63723,-0.0243 -0.12767,-0.0313 -0.44664,-0.0575 -0.70883,-0.0583 -0.4111,-0.001 -0.48499,-0.0168 -0.53679,-0.11363 -0.1042,-0.19471 -0.067,-0.40564 0.18175,-1.03012 0.19825,-0.49773 0.23176,-0.6351 0.18599,-0.76242 -0.0509,-0.14162 -0.0812,-0.15464 -0.34338,-0.14773 -0.27072,0.007 -0.63381,0.12821 -1.79634,0.59899 -0.22342,0.0905 -0.49762,0.18191 -0.60933,0.2032 -0.1117,0.0213 -0.46424,0.11258 -0.78341,0.20288 -0.31917,0.0903 -0.84145,0.2085 -1.16062,0.26267 -0.31917,0.0542 -0.76477,0.14844 -0.99022,0.20951 -0.50897,0.13785 -1.44445,0.15023 -1.85858,0.0246 -0.58439,-0.17728 -0.9504,-0.0727 -1.90871,0.54566 -0.6668,0.43023 -0.83675,0.51575 -1.11202,0.5596 -0.18993,0.0302 -0.24449,0.0135 -0.36134,-0.11116 -0.11387,-0.12144 -0.1308,-0.18323 -0.0981,-0.35778 0.049,-0.26113 0.50719,-0.72154 1.13517,-1.14064 0.23938,-0.15975 0.49052,-0.34156 0.55809,-0.40402 0.0676,-0.0625 0.53762,-0.38517 1.04456,-0.71713 1.15655,-0.75736 1.83472,-1.23825 2.3319,-1.65355 0.34068,-0.28457 1.91889,-1.40792 2.39098,-1.70186 0.0933,-0.0581 0.33133,-0.12851 0.52888,-0.15643 0.24307,-0.0344 0.4548,-0.11171 0.65496,-0.23927 0.16268,-0.10367 0.46552,-0.2719 0.67298,-0.37385 0.20746,-0.10194 0.44248,-0.25593 0.52228,-0.3422 0.1951,-0.21095 0.66404,-0.55516 0.95038,-0.6976 0.25325,-0.12599 0.29474,-0.18726 0.21364,-0.31556 -0.0441,-0.0697 -0.113,-0.0541 -0.41978,0.0952 -0.65927,0.32081 -1.86821,0.87757 -2.22403,1.02423 -0.1915,0.0789 -0.53057,0.25026 -0.75348,0.38071 -0.22291,0.13046 -0.42602,0.23719 -0.45134,0.23719 -0.0841,0 -1.322,0.58215 -2.97025,1.39684 -0.89541,0.44258 -1.79775,0.86891 -2.00521,0.94739 -0.6854,0.2593 -1.47571,0.6007 -1.74844,0.7553 -0.14775,0.0838 -0.40538,0.1929 -0.57251,0.24254 -0.29642,0.088 -1.42261,0.61205 -2.8041,1.30476 -0.37712,0.1891 -0.73378,0.34382 -0.79258,0.34382 -0.0588,0 -0.52059,0.1975 -1.02622,0.43888 -0.50563,0.24139 -1.09061,0.48643 -1.29996,0.54453 -0.20936,0.0581 -0.52272,0.17015 -0.69637,0.24899 -0.17366,0.0788 -0.45936,0.18928 -0.63491,0.24541 -0.17554,0.0561 -0.51659,0.18975 -0.7579,0.29693 -0.2413,0.10718 -0.61995,0.2364 -0.84145,0.28716 -0.22149,0.0507 -0.78769,0.20821 -1.25823,0.3499 -0.47054,0.14169 -0.91748,0.25762 -0.99321,0.25762 -0.0757,0 -0.20924,-0.0563 -0.2967,-0.12508 -0.15705,-0.12354 -0.15852,-0.13094 -0.11938,-0.60088 l 0.0396,-0.4758 -0.2303,-0.1824 c -0.31089,-0.24623 -0.34405,-0.41265 -0.158,-0.79291 0.1848,-0.37772 1.2308,-1.48989 1.79763,-1.91134 0.2253,-0.16752 0.66564,-0.52968 0.97854,-0.80481 0.31291,-0.27513 0.78949,-0.65946 1.05907,-0.85408 0.47512,-0.34299 0.58133,-0.48868 0.40545,-0.55617 -0.0466,-0.0179 -0.31426,0.0718 -0.59482,0.19929 -0.28056,0.1275 -0.5754,0.25088 -0.65519,0.27419 -0.25994,0.0759 -1.8203,0.9077 -2.12113,1.13069 -0.16123,0.11952 -0.43542,0.28883 -0.60932,0.37624 -0.17389,0.0874 -0.57731,0.34801 -0.89648,0.5791 -0.31917,0.23109 -0.6717,0.4662 -0.78341,0.52246 -0.11171,0.0563 -0.3128,0.19112 -0.44685,0.29969 -0.13407,0.10857 -0.40222,0.28697 -0.59591,0.39645 -0.19369,0.10948 -0.47571,0.3005 -0.62672,0.42448 -0.15101,0.12398 -0.39207,0.29221 -0.5357,0.37384 -0.14362,0.0816 -0.64865,0.42442 -1.12229,0.76175 -1.00895,0.7186 -1.78605,1.19741 -1.94339,1.19741 -0.0615,0 -0.14595,-0.0412 -0.18771,-0.0915 z m 31.87906,-3.19326 c 0.5236,-0.26132 1.74449,-0.96752 1.96277,-1.13533 0.11509,-0.0885 0.28483,-0.18931 0.3772,-0.22408 0.165,-0.0621 0.43379,-0.22492 1.4156,-0.85747 1.45272,-0.93597 1.97304,-1.30616 1.97304,-1.40377 0,-0.0275 -0.0408,-0.0908 -0.0906,-0.14058 -0.0821,-0.0821 -0.11338,-0.0791 -0.33368,0.0321 -0.1337,0.0675 -0.40888,0.23786 -0.6115,0.37863 -0.20262,0.14077 -0.51862,0.33178 -0.70223,0.42446 -0.18361,0.0927 -0.40953,0.23182 -0.50206,0.3092 -0.0925,0.0774 -0.28575,0.19941 -0.42937,0.2712 -0.14363,0.0718 -0.4035,0.23686 -0.5775,0.36683 -0.174,0.12996 -0.64405,0.40374 -1.04456,0.60839 -0.4005,0.20465 -0.82976,0.45206 -0.95389,0.54981 -0.12413,0.0977 -0.39591,0.27149 -0.60395,0.3861 -0.40654,0.22397 -0.5156,0.34078 -0.45809,0.49066 0.0519,0.13511 0.23024,0.1178 0.57879,-0.0562 z m -20.87581,-1.2493 c 0.15762,-0.1 0.39123,-0.26665 0.51913,-0.37044 0.12791,-0.10378 0.38925,-0.26797 0.58075,-0.36485 0.1915,-0.0969 0.51784,-0.31537 0.72519,-0.48552 0.20735,-0.17015 0.86461,-0.63578 1.46057,-1.03474 1.28453,-0.85991 2.19216,-1.55912 2.19414,-1.6903 0.004,-0.27009 -0.49703,-0.24463 -1.17565,0.0597 -0.19841,0.089 -0.5811,0.23311 -0.85042,0.32027 -0.26933,0.0872 -0.58802,0.20863 -0.7082,0.26994 -0.12018,0.0613 -0.36345,0.1657 -0.5406,0.23198 -0.37612,0.14073 -0.43768,0.23034 -0.43768,0.63712 0,0.29639 -0.006,0.30719 -0.44974,0.76461 -0.24735,0.25519 -0.60642,0.57081 -0.79792,0.70139 -0.39051,0.26627 -0.8786,0.70494 -0.96596,0.86817 -0.04,0.0747 -0.0364,0.13322 0.0115,0.19104 0.0935,0.11266 0.10678,0.10966 0.43486,-0.0984 z m -90.0891,4.10661 c -0.0407,-0.0491 -0.0575,-0.14141 -0.0373,-0.20515 0.0435,-0.13704 0.66693,-0.6394 1.01194,-0.81541 0.3902,-0.19906 0.46967,-0.30936 0.46967,-0.65181 0,-0.55795 0.15011,-0.93015 0.57344,-1.42186 0.99223,-1.15251 3.13615,-3.25248 3.92691,-3.84639 0.18987,-0.14262 0.5551,-0.45776 0.81163,-0.70033 0.25652,-0.24258 0.63517,-0.55428 0.84144,-0.69269 0.20628,-0.1384 0.52114,-0.3847 0.6997,-0.54733 0.51986,-0.47348 0.92872,-0.81116 1.27119,-1.04988 0.17555,-0.12237 0.50197,-0.39988 0.72539,-0.6167 0.22342,-0.21682 0.54282,-0.49323 0.70978,-0.61425 0.5624,-0.40764 1.20332,-0.90799 1.49539,-1.16742 0.15959,-0.14175 0.48256,-0.39134 0.71773,-0.55465 0.89614,-0.62229 1.0971,-0.77005 1.44978,-1.066 0.19981,-0.16766 0.4467,-0.34694 0.54866,-0.39839 0.10195,-0.0515 0.38103,-0.25275 0.62016,-0.44733 0.23912,-0.19459 0.82669,-0.59982 1.30569,-0.90052 0.479,-0.3007 1.00392,-0.67143 1.16649,-0.82386 0.16257,-0.15243 0.48899,-0.37423 0.72538,-0.4929 0.57931,-0.29081 1.11484,-0.64215 1.51993,-0.99718 0.18464,-0.16183 0.52412,-0.392 0.7544,-0.5115 0.23027,-0.1195 0.45841,-0.25147 0.50698,-0.29326 0.0486,-0.0418 0.37498,-0.24558 0.72538,-0.45283 0.3504,-0.20726 0.78422,-0.48564 0.96405,-0.61862 0.17983,-0.13299 0.43826,-0.29162 0.57429,-0.35252 0.13603,-0.0609 0.40672,-0.22298 0.60153,-0.36017 0.56595,-0.39854 1.34517,-0.8465 2.04208,-1.17395 0.35552,-0.16705 0.81747,-0.41177 1.02654,-0.54381 0.20908,-0.13205 0.54563,-0.30693 0.74788,-0.38864 0.20226,-0.0817 0.40823,-0.18459 0.45772,-0.22862 0.0495,-0.044 0.28114,-0.1589 0.51478,-0.25525 0.23364,-0.0963 0.50652,-0.22527 0.60639,-0.28651 0.27236,-0.16698 2.10602,-0.85357 2.48948,-0.93215 0.40661,-0.0833 0.62191,-0.0429 0.80398,0.15089 0.11211,0.11934 0.13786,0.20903 0.13786,0.4803 0,0.4524 -0.22572,0.81979 -0.69848,1.13688 -0.19034,0.12767 -0.45292,0.33658 -0.5835,0.46425 -0.40056,0.39162 -0.90486,0.80785 -1.30039,1.07328 -0.20746,0.13923 -0.69057,0.50592 -1.07357,0.81488 -0.38301,0.30896 -0.80552,0.62989 -0.93892,0.71318 -0.13341,0.0833 -0.44677,0.33038 -0.69637,0.5491 -0.2496,0.21872 -0.58439,0.48454 -0.74398,0.5907 -0.15958,0.10617 -0.35544,0.25305 -0.43523,0.32642 -0.0798,0.0734 -0.2802,0.23274 -0.44536,0.35415 -0.16516,0.12141 -0.70049,0.52285 -1.18963,0.89208 -0.48914,0.36923 -1.25656,0.92227 -1.70537,1.22898 -0.44881,0.30671 -0.94896,0.67718 -1.11146,0.82328 -0.16249,0.14609 -0.43948,0.35035 -0.61553,0.45391 -0.17605,0.10356 -0.55071,0.34303 -0.83257,0.53215 -0.28187,0.18912 -0.90419,0.60272 -1.38295,0.91911 -0.47875,0.31639 -0.93574,0.63637 -1.01554,0.71107 -0.0798,0.0747 -0.25073,0.19644 -0.37986,0.27053 -0.12913,0.0741 -0.37721,0.24485 -0.55129,0.37949 -0.48656,0.37632 -1.15285,0.86158 -1.50614,1.09691 -0.17554,0.11693 -0.43439,0.30682 -0.5752,0.42197 -0.14082,0.11516 -0.4205,0.31383 -0.62151,0.4415 -0.20102,0.12766 -0.63616,0.44481 -0.96698,0.70476 -0.33082,0.25994 -0.73757,0.54158 -0.90388,0.62586 -0.16631,0.0843 -0.39938,0.23845 -0.51792,0.34261 -0.46377,0.4075 -1.04518,0.79308 -1.19589,0.79308 -0.19639,0 -0.31182,-0.21459 -0.21389,-0.3976 0.0668,-0.12482 0.66616,-0.58634 1.2043,-0.92735 0.16511,-0.10463 0.33485,-0.23237 0.3772,-0.28388 0.0423,-0.0515 0.32831,-0.25644 0.63548,-0.45541 0.30716,-0.19897 0.82487,-0.56669 1.15046,-0.81715 0.32557,-0.25046 0.79833,-0.58595 1.05055,-0.74554 0.41254,-0.26101 0.83587,-0.56921 1.7548,-1.27754 0.28903,-0.22278 0.82075,-0.60243 2.0577,-1.46917 0.31119,-0.21806 0.6957,-0.47068 0.85448,-0.56138 0.15877,-0.0907 0.45916,-0.32502 0.66751,-0.52071 0.20836,-0.19569 0.67907,-0.55624 1.04603,-0.80123 0.9984,-0.66655 1.51241,-1.03507 2.65119,-1.90076 0.56849,-0.43215 1.26591,-0.92584 1.54983,-1.09708 0.28393,-0.17124 0.68869,-0.47184 0.89948,-0.668 0.21079,-0.19616 0.55299,-0.47998 0.76045,-0.63072 0.20746,-0.15073 0.59071,-0.43665 0.85167,-0.63537 0.67388,-0.51317 1.24715,-0.91372 1.59862,-1.11697 0.16677,-0.0965 0.39528,-0.29656 0.50781,-0.44471 0.11252,-0.14814 0.48215,-0.49264 0.8214,-0.76555 0.33925,-0.27291 0.63124,-0.53378 0.64886,-0.5797 0.0176,-0.0459 -0.002,-0.13002 -0.0435,-0.18686 -0.0721,-0.0986 -0.0955,-0.0975 -0.50943,0.0254 -0.60743,0.18033 -1.35677,0.48671 -3.44016,1.40659 -0.0958,0.0423 -0.30467,0.15705 -0.46425,0.25505 -0.15959,0.098 -0.40767,0.22849 -0.55129,0.28997 -0.48556,0.20784 -1.28054,0.68315 -1.55504,0.92972 -0.15011,0.13485 -0.46879,0.34371 -0.70817,0.46413 -0.23937,0.12042 -0.55274,0.32254 -0.69637,0.44916 -0.14362,0.12662 -0.3917,0.29651 -0.55129,0.37754 -0.15958,0.081 -0.56435,0.33634 -0.89948,0.56736 -0.33512,0.23102 -0.82197,0.52649 -1.08188,0.65659 -0.2599,0.13011 -0.61971,0.36533 -0.79957,0.52272 -0.19608,0.17158 -0.46861,0.33912 -0.68065,0.41842 -0.1945,0.0727 -0.47448,0.22743 -0.62218,0.34376 -0.1477,0.11633 -0.49052,0.36124 -0.76181,0.54424 -0.2713,0.183 -0.62318,0.43515 -0.78196,0.56032 -0.15878,0.12517 -0.58373,0.40457 -0.94433,0.62089 -0.3606,0.21631 -0.82595,0.54057 -1.03412,0.72056 -0.20816,0.18 -0.86694,0.65726 -1.46394,1.06058 -1.64931,1.11423 -2.39126,1.65059 -2.86218,2.06908 -0.23565,0.20941 -0.67655,0.55958 -0.97976,0.77814 -0.30321,0.21857 -0.8516,0.67523 -1.21864,1.01481 -0.36705,0.33958 -0.89933,0.79894 -1.18284,1.02081 -0.28352,0.22186 -0.7198,0.5782 -0.96953,0.79184 -0.24972,0.21365 -0.64918,0.53533 -0.88768,0.71484 -0.23851,0.17951 -0.47439,0.38857 -0.52418,0.46456 -0.0498,0.076 -0.28013,0.2878 -0.51185,0.47068 -0.23172,0.18287 -0.59196,0.50409 -0.80053,0.71382 -0.20857,0.20972 -0.56297,0.53589 -0.78754,0.72482 -0.22458,0.18893 -0.49481,0.47618 -0.60052,0.63834 -0.1057,0.16216 -0.35193,0.43594 -0.54716,0.6084 -0.50455,0.44569 -0.74132,0.75174 -0.72041,0.93121 0.0132,0.11359 0.0549,0.15228 0.17926,0.16656 0.17732,0.0204 0.37305,-0.0821 1.28875,-0.67451 0.31917,-0.20648 0.78922,-0.48003 1.04456,-0.60788 0.25534,-0.12785 0.68784,-0.39557 0.96112,-0.59493 0.27328,-0.19936 0.63887,-0.43418 0.81243,-0.52182 0.17356,-0.0877 0.5767,-0.33516 0.89587,-0.55003 0.31917,-0.21486 0.75005,-0.49469 0.95751,-0.62183 0.20746,-0.12714 0.7363,-0.46359 1.1752,-0.74766 1.13573,-0.73508 1.17358,-0.75292 1.35081,-0.6368 0.2025,0.13269 0.1851,0.33543 -0.0452,0.52643 -0.37392,0.3101 -1.41335,1.02967 -1.6944,1.17298 -0.15794,0.0805 -0.41908,0.24522 -0.58031,0.36596 -0.16123,0.12075 -0.46942,0.29884 -0.68486,0.39577 -0.30278,0.13622 -0.39171,0.20381 -0.39171,0.29775 0,0.27038 0.3832,0.18508 1.05206,-0.23416 0.20333,-0.12745 0.53944,-0.3111 0.7469,-0.40811 0.20746,-0.097 0.59917,-0.30219 0.87046,-0.45597 0.2713,-0.15378 0.83274,-0.45574 1.24766,-0.67102 1.67761,-0.87045 1.86833,-0.97377 2.14715,-1.16312 0.15958,-0.10837 0.44132,-0.24876 0.62607,-0.31197 0.18476,-0.0632 0.41159,-0.16879 0.50407,-0.23465 0.0925,-0.0659 0.35914,-0.2138 0.59257,-0.32877 0.23344,-0.11497 0.49754,-0.26071 0.58691,-0.32387 0.0894,-0.0632 0.29538,-0.14989 0.45781,-0.19273 0.16243,-0.0429 0.36351,-0.14033 0.44684,-0.21661 0.20631,-0.18888 0.61409,-0.41223 0.96394,-0.528 0.15959,-0.0528 0.4052,-0.17398 0.54581,-0.26926 0.1406,-0.0953 0.3521,-0.19923 0.46999,-0.23097 0.11789,-0.0317 0.30315,-0.12208 0.4117,-0.20075 0.10855,-0.0787 0.35405,-0.22544 0.54555,-0.32616 0.1915,-0.10072 0.54404,-0.31918 0.78342,-0.48546 0.51338,-0.35661 1.08527,-0.67601 1.45448,-0.81232 0.14568,-0.0538 0.43715,-0.24625 0.64773,-0.4277 0.56992,-0.49108 1.37216,-0.75595 1.63328,-0.53924 0.11192,0.0929 0.12487,0.41021 0.022,0.53935 -0.0867,0.10881 -0.62042,0.44893 -1.03109,0.65703 -0.16229,0.0822 -0.55667,0.34422 -0.87641,0.58217 -0.31974,0.23796 -0.70358,0.50245 -0.85298,0.58776 -0.14939,0.0853 -0.41525,0.27173 -0.5908,0.41427 -0.17554,0.14255 -0.40558,0.29575 -0.51119,0.34046 -0.10562,0.0447 -0.41293,0.24984 -0.68292,0.45584 -0.26998,0.206 -0.61445,0.43799 -0.76548,0.51554 -0.15103,0.0776 -0.44433,0.26013 -0.65179,0.40573 -0.41604,0.29199 -0.97515,0.67708 -2.48544,1.71185 -0.55312,0.37897 -1.07539,0.75406 -1.16062,0.83353 -0.0852,0.0795 -0.27247,0.21677 -0.4161,0.30508 -0.14363,0.0883 -0.34406,0.23258 -0.44542,0.3206 -0.10135,0.088 -0.4504,0.33551 -0.77567,0.54998 -0.32527,0.21447 -0.76321,0.54565 -0.9732,0.73595 -0.38301,0.3471 -1.4095,1.15279 -1.70828,1.34084 -0.19253,0.12117 -0.21696,0.32988 -0.0386,0.32988 0.1565,0 1.14655,-0.41373 1.49521,-0.62483 0.1484,-0.0899 0.43955,-0.23749 0.64701,-0.3281 0.20746,-0.0906 0.84725,-0.40772 1.42176,-0.7047 0.5745,-0.29698 1.18818,-0.59363 1.36372,-0.65921 0.17555,-0.0656 0.60643,-0.26642 0.95751,-0.44628 2.1837,-1.11874 4.60389,-2.29698 4.93262,-2.40139 0.12767,-0.0405 0.40209,-0.16089 0.60982,-0.26741 0.20773,-0.10652 0.53207,-0.24679 0.72075,-0.31171 0.18868,-0.0649 0.45351,-0.18276 0.58852,-0.26188 0.33575,-0.19676 1.59509,-0.76357 2.05602,-0.92539 0.20746,-0.0728 0.56,-0.22391 0.78342,-0.33573 0.51537,-0.25795 0.77545,-0.34177 1.07318,-0.34588 0.40821,-0.006 0.57361,0.26974 0.38319,0.63798 -0.154,0.2978 -1.04244,1.03189 -1.81076,1.49617 -0.16352,0.0988 -0.62656,0.43104 -1.02899,0.73829 -0.40244,0.30725 -0.88503,0.63604 -1.07244,0.73065 -0.18742,0.0946 -0.508,0.3127 -0.71241,0.48465 -0.20441,0.17195 -0.51528,0.39829 -0.69082,0.50297 -0.17554,0.10468 -0.39751,0.26416 -0.49326,0.35441 -0.0958,0.0902 -0.28034,0.22464 -0.41019,0.29865 -0.12985,0.074 -0.44322,0.28556 -0.69637,0.47013 -0.25315,0.18457 -0.7867,0.56463 -1.18566,0.84457 -0.50049,0.3512 -0.73114,0.54851 -0.74393,0.63644 -0.0139,0.0955 0.011,0.12745 0.0994,0.12745 0.17108,0 0.68926,-0.21341 1.00026,-0.41195 0.14778,-0.0944 0.43163,-0.23539 0.63077,-0.31344 0.19915,-0.078 0.44663,-0.20638 0.54997,-0.2852 0.10333,-0.0788 0.52455,-0.31216 0.93605,-0.51855 0.4115,-0.20639 0.93056,-0.4821 1.15348,-0.61269 0.22291,-0.13059 0.44875,-0.23744 0.50187,-0.23744 0.14678,0 1.09367,-0.48977 1.40192,-0.72514 0.14993,-0.11448 0.73332,-0.41718 1.29641,-0.67266 0.56309,-0.25548 1.13122,-0.53743 1.26251,-0.62655 0.47384,-0.32164 2.20126,-1.15521 3.11123,-1.50133 0.66283,-0.25211 0.95192,-0.27271 1.10878,-0.079 0.13663,0.16873 0.13912,0.33744 0.008,0.54167 -0.12591,0.19611 -1.31879,1.14879 -1.76839,1.41229 -0.18338,0.10748 -0.59738,0.41188 -0.91999,0.67643 -0.71165,0.58359 -1.10141,0.87651 -1.54492,1.16104 -0.18498,0.11867 -0.49912,0.32758 -0.69809,0.46424 -0.19898,0.13667 -0.48623,0.32682 -0.63834,0.42257 -0.28556,0.17975 -0.34105,0.29487 -0.18852,0.39108 0.0986,0.0622 0.30729,-0.035 2.14613,-0.99942 0.62238,-0.32643 1.26217,-0.6446 1.42176,-0.70704 0.38251,-0.14966 2.44901,-1.19072 2.66098,-1.34055 0.19131,-0.13522 1.42514,-0.74819 2.27164,-1.12855 0.31917,-0.14342 0.78922,-0.36548 1.04455,-0.49347 2.1232,-1.06426 2.75647,-1.20852 2.75647,-0.62794 0,0.21599 -0.13315,0.36414 -0.53479,0.59503 -0.36496,0.20981 -1.63561,1.09944 -2.10163,1.47143 -0.16274,0.1299 -0.42607,0.31119 -0.58517,0.40286 -0.1591,0.0917 -0.4329,0.27556 -0.60845,0.40865 -0.17554,0.13308 -0.50425,0.36161 -0.73047,0.50783 -0.22622,0.14623 -0.52533,0.36113 -0.66469,0.47756 -0.13936,0.11643 -0.45466,0.3129 -0.70067,0.43659 -0.33357,0.16772 -0.52605,0.31442 -0.75707,0.57703 -0.17038,0.19367 -0.41423,0.42283 -0.5419,0.50923 -0.54623,0.36967 -1.1316,0.84043 -1.1316,0.91003 0,0.0414 0.037,0.10592 0.0822,0.14343 0.11943,0.0991 1.35639,-0.34674 2.53894,-0.91513 0.52128,-0.25056 1.13058,-0.5247 1.354,-0.60921 0.22342,-0.0845 0.70653,-0.30626 1.07359,-0.49279 0.36705,-0.18653 0.81099,-0.38477 0.98652,-0.44054 0.17554,-0.0558 0.71086,-0.29411 1.18962,-0.52965 0.47875,-0.23554 1.17077,-0.56338 1.53781,-0.72852 0.36705,-0.16514 0.99378,-0.4507 1.39274,-0.63457 0.39897,-0.18388 0.80373,-0.35139 0.89948,-0.37224 0.0958,-0.0209 0.44829,-0.16454 0.78342,-0.31929 0.57215,-0.2642 0.78651,-0.35933 2.03108,-0.90135 1.19118,-0.51876 1.317,-0.59202 1.78562,-1.03974 0.53704,-0.51309 0.72665,-0.60692 1.76511,-0.87357 0.42491,-0.10911 1.0337,-0.28336 1.35287,-0.38724 0.51628,-0.16802 0.65394,-0.18899 1.24766,-0.19002 0.79569,-10e-4 1.03733,0.087 1.29434,0.47319 0.27574,0.41437 0.15488,0.40512 2.04825,0.15673 1.09495,-0.14365 2.34738,-0.20607 4.52059,-0.22529 2.07768,-0.0184 2.56674,0.012 2.89043,0.17935 0.20508,0.10605 0.3501,0.42461 0.27853,0.6118 -0.12535,0.32781 -0.44751,0.45261 -1.22895,0.47609 -0.33292,0.01 -0.90159,0.0387 -1.26372,0.0638 l -0.65842,0.0456 -0.41515,-0.20879 -0.41515,-0.20879 -0.88517,0.0497 c -0.48684,0.0274 -0.93669,0.0363 -0.99965,0.0198 -0.063,-0.0165 -0.35665,0.0116 -0.65264,0.0624 -0.63929,0.10972 -2.01765,0.26985 -2.31661,0.26914 -0.33623,-8e-4 -1.54406,0.27439 -1.87019,0.4261 -0.16361,0.0761 -0.47731,0.2724 -0.69711,0.4362 -0.2198,0.16379 -0.43262,0.29781 -0.47292,0.29781 -0.0403,0 -0.19995,0.0865 -0.35476,0.19213 -0.15482,0.10568 -0.69728,0.47322 -1.20549,0.81676 -0.5082,0.34354 -1.03048,0.71151 -1.16061,0.81771 -0.23065,0.18822 -1.34741,0.78479 -1.4691,0.78479 -0.0336,0 -0.25308,0.13776 -0.48783,0.30614 -0.23476,0.16838 -0.60962,0.40738 -0.83304,0.53112 -0.58264,0.3227 -1.13576,0.68435 -1.49832,0.97967 -0.17308,0.14097 -0.49766,0.32623 -0.72128,0.41168 -0.22363,0.0855 -0.55481,0.27047 -0.73598,0.41114 -0.18116,0.14068 -0.4724,0.30928 -0.64718,0.37468 -0.17479,0.0654 -0.5175,0.22471 -0.76157,0.35402 -0.53246,0.28211 -0.83291,0.29724 -1.01588,0.0512 -0.10464,-0.14075 -0.10569,-0.16256 -0.0183,-0.3809 0.0974,-0.24341 0.60064,-0.6984 1.27822,-1.15562 0.38009,-0.25649 1.19286,-0.84481 2.23432,-1.6173 0.82981,-0.61551 2.73335,-1.90568 3.28539,-2.22677 0.22708,-0.13207 0.54045,-0.35658 0.69637,-0.49891 0.26659,-0.24333 0.27768,-0.26474 0.18585,-0.35874 -0.0924,-0.0946 -0.11902,-0.0935 -0.49326,0.0202 -0.21759,0.0661 -0.62667,0.1891 -0.90907,0.27332 -0.2824,0.0842 -0.74709,0.25593 -1.03265,0.38159 -0.28555,0.12567 -0.55388,0.22848 -0.59627,0.22848 -0.0424,0 -0.41932,0.16881 -0.83762,0.37513 -0.41829,0.20632 -0.98832,0.45552 -1.26672,0.55379 -0.27841,0.0983 -0.5858,0.22768 -0.68309,0.28759 -0.0973,0.0599 -0.55556,0.25551 -1.01835,0.43466 -1.42218,0.55054 -1.98724,0.78884 -2.36294,0.99652 -0.19849,0.10971 -0.56028,0.26456 -0.80399,0.34412 -0.24513,0.08 -0.60244,0.25638 -0.79974,0.39474 -0.19614,0.13756 -0.44803,0.28529 -0.55974,0.32831 -0.11171,0.043 -0.33564,0.15172 -0.49763,0.24158 -0.16199,0.0899 -0.45891,0.21735 -0.65983,0.28331 -0.20092,0.066 -0.46105,0.18037 -0.57808,0.25424 -0.38894,0.24553 -0.90618,0.48533 -1.48904,0.69037 -0.31704,0.11152 -0.91592,0.34786 -1.33084,0.52519 -0.76761,0.32808 -1.07573,0.38815 -1.38592,0.27022 -0.20557,-0.0782 -0.32443,-0.28564 -0.28405,-0.49586 0.0375,-0.19532 1.01763,-1.20316 1.74948,-1.79895 0.23524,-0.1915 0.5486,-0.45363 0.69637,-0.5825 0.3789,-0.33045 0.6346,-0.51197 0.93603,-0.66449 0.14363,-0.0727 0.41783,-0.25559 0.60933,-0.40649 0.1915,-0.15089 0.61143,-0.44733 0.93318,-0.65874 0.66414,-0.43639 0.79715,-0.56085 0.7449,-0.69699 -0.0517,-0.13473 -0.13691,-0.11996 -0.44872,0.0778 -0.26195,0.16612 -0.65217,0.35167 -2.2449,1.06739 -0.89107,0.40042 -2.26816,1.10198 -2.58541,1.31714 -0.26105,0.17705 -1.18512,0.64665 -1.7669,0.89792 -0.20746,0.0896 -0.74947,0.35444 -1.20447,0.58853 -0.45499,0.2341 -1.01644,0.50121 -1.24766,0.59359 -0.23122,0.0924 -0.59014,0.24871 -0.7976,0.34741 -0.5816,0.2767 -0.92849,0.22702 -0.92849,-0.13296 0,-0.31406 0.56958,-0.97343 1.1316,-1.30999 0.12767,-0.0764 0.44103,-0.31303 0.69637,-0.52572 0.25533,-0.21269 0.92124,-0.69493 1.47978,-1.07164 0.55855,-0.37671 1.12,-0.77991 1.24767,-0.896 0.12766,-0.11608 0.40839,-0.32677 0.62383,-0.46819 0.29708,-0.19502 0.39171,-0.28964 0.39171,-0.39172 0,-0.074 -0.0402,-0.15 -0.0892,-0.16884 -0.1266,-0.0486 -0.56211,0.13007 -0.88419,0.3627 -0.26921,0.19444 -2.61799,1.37944 -3.16326,1.59592 -0.37481,0.1488 -1.80422,0.89281 -2.09765,1.09183 -0.46337,0.31427 -1.92976,1.10354 -2.55733,1.37644 -0.35109,0.15268 -0.7428,0.35046 -0.87047,0.43953 -0.12766,0.0891 -0.45409,0.25579 -0.72538,0.37051 -1.83283,0.775 -1.94438,0.80681 -2.14075,0.61044 -0.277,-0.27701 -0.1,-0.56628 0.88305,-1.443 0.38451,-0.34292 0.85809,-0.72795 1.0524,-0.85562 0.43278,-0.28434 1.19277,-0.83283 1.67435,-1.2084 0.19741,-0.15395 0.52969,-0.36974 0.73842,-0.47953 0.20873,-0.10979 0.58077,-0.36331 0.82676,-0.56338 0.24599,-0.20007 0.80183,-0.5849 1.23518,-0.85518 0.43336,-0.27028 0.93614,-0.61051 1.11728,-0.75608 0.18114,-0.14556 0.51867,-0.38007 0.75007,-0.52112 0.3261,-0.19878 0.42072,-0.28649 0.42072,-0.39001 0,-0.20439 -0.14523,-0.21757 -0.56964,-0.0517 -0.21333,0.0834 -0.54834,0.19129 -0.74447,0.23981 -0.19614,0.0485 -0.70583,0.26449 -1.13266,0.47992 -0.42683,0.21544 -1.03302,0.50772 -1.34709,0.64951 -0.31407,0.1418 -0.68265,0.34303 -0.81907,0.44719 -0.13641,0.10416 -0.5971,0.34968 -1.02375,0.5456 -0.42665,0.19591 -0.93241,0.42876 -1.12391,0.51742 -0.1915,0.0887 -0.42937,0.17887 -0.5286,0.20045 -0.0992,0.0216 -0.31835,0.12809 -0.48694,0.2367 -0.16858,0.10862 -0.38771,0.21502 -0.48694,0.23646 -0.27184,0.0587 -0.68362,0.28159 -1.27386,0.68941 -0.67468,0.46617 -1.6246,0.94601 -2.46257,1.24393 -0.35997,0.12798 -0.81696,0.31732 -1.01554,0.42075 -0.366,0.19064 -0.72557,0.36759 -1.46809,0.72246 -0.48472,0.23167 -1.1845,0.36092 -1.4302,0.26417 -0.24726,-0.0974 -0.26263,-0.30106 -0.0544,-0.72141 0.25887,-0.52262 0.62027,-0.89952 1.28654,-1.34167 0.32327,-0.21454 0.68389,-0.47605 0.80136,-0.58113 0.11748,-0.10508 0.43556,-0.34859 0.70686,-0.54114 0.27129,-0.19254 0.61801,-0.46854 0.77047,-0.61332 0.15247,-0.14478 0.35059,-0.27935 0.44027,-0.29905 0.0897,-0.0197 0.40886,-0.24587 0.7093,-0.50261 0.30045,-0.25675 0.71504,-0.56128 0.92132,-0.67673 0.20628,-0.11547 0.50659,-0.31636 0.66735,-0.44643 0.16077,-0.13007 0.42158,-0.31168 0.57959,-0.40357 0.158,-0.0919 0.39652,-0.24778 0.53004,-0.34642 0.13352,-0.0986 0.3863,-0.26733 0.56174,-0.37489 0.17544,-0.10755 0.4301,-0.29126 0.56591,-0.40823 0.19989,-0.17215 0.23916,-0.23716 0.20613,-0.34122 -0.0628,-0.19801 -0.29821,-0.16458 -0.56998,0.081 -0.12755,0.11523 -0.3788,0.27397 -0.55833,0.35275 -0.17953,0.0788 -0.44667,0.21983 -0.59364,0.31341 -0.14698,0.0936 -0.43202,0.23713 -0.63343,0.31897 -0.20142,0.0818 -0.44677,0.2086 -0.54522,0.28168 -0.0984,0.0731 -0.36758,0.23064 -0.59806,0.35013 -0.23048,0.11949 -0.67442,0.38508 -0.98652,0.59019 -0.55452,0.36443 -1.92578,1.0667 -3.61409,1.8509 -0.46279,0.21497 -0.97671,0.49119 -1.14205,0.61382 -0.30581,0.22685 -2.07163,1.06489 -2.60245,1.23511 -0.16042,0.0514 -0.46073,0.19212 -0.66736,0.31263 -0.20662,0.1205 -0.46708,0.25444 -0.57879,0.29763 -0.11171,0.0432 -0.41202,0.17764 -0.66735,0.29877 -0.25534,0.12112 -0.72884,0.30126 -1.05224,0.4003 -0.46288,0.14176 -0.72025,0.26664 -1.20965,0.58693 -0.67355,0.4408 -0.89206,0.52309 -1.01039,0.38051 z m 6.7122,-3.60899 c 0.23095,-0.16176 0.10112,-0.40312 -0.14214,-0.26426 -0.22335,0.12749 -0.25397,0.1637 -0.2179,0.25768 0.0466,0.12144 0.19225,0.1241 0.36004,0.007 z m 37.66024,-1.95989 c 0.11978,-0.10629 0.3353,-0.23896 0.47892,-0.29484 0.39747,-0.15462 1.09437,-0.54839 1.45077,-0.81974 0.30746,-0.23407 1.02274,-0.67373 1.56684,-0.96309 0.1957,-0.10408 0.26564,-0.1777 0.27912,-0.2938 0.0409,-0.35218 -0.47532,-0.30817 -1.02604,0.0875 -0.15608,0.11214 -0.35934,0.24295 -0.45167,0.2907 -0.0923,0.0478 -0.36311,0.26251 -0.60174,0.47724 -0.40696,0.36623 -1.10196,0.86455 -1.64615,1.18032 -0.51157,0.29684 -0.50634,0.29191 -0.44053,0.41489 0.0834,0.1559 0.13805,0.14483 0.39048,-0.0792 z m 5.33901,-3.73324 c 0.0998,-0.0246 0.13056,-0.0739 0.13056,-0.20886 v -0.17667 l -0.62383,0.0375 c -0.78487,0.0472 -0.88497,0.0742 -0.88497,0.23843 0,0.0708 0.0196,0.14896 0.0435,0.17379 0.044,0.0457 1.09385,-0.005 1.33471,-0.0642 z m 73.46218,-2.14741 c -0.0213,-0.0213 -0.0387,-0.11153 -0.0387,-0.20055 0,-0.13853 0.0565,-0.19486 0.3917,-0.39079 0.68404,-0.39977 1.53503,-1.05272 2.07443,-1.59167 0.28736,-0.2871 0.67449,-0.62141 0.86031,-0.74289 0.51745,-0.3383 1.15929,-0.85021 2.16679,-1.72817 0.34306,-0.29895 0.72761,-0.60912 0.85456,-0.68925 0.49609,-0.31317 1.07036,-0.77809 1.48637,-1.20334 0.47852,-0.48915 0.66166,-0.61048 0.92146,-0.61048 0.24066,0 0.35522,0.13645 0.35522,0.4231 0,0.22396 -0.0313,0.27112 -0.44974,0.67774 -0.27705,0.26923 -0.61484,0.52616 -0.87972,0.66913 -0.2365,0.12765 -0.64126,0.41654 -0.89948,0.64198 -0.25823,0.22544 -0.62618,0.51001 -0.81768,0.63239 -0.1915,0.12238 -0.51793,0.38482 -0.72539,0.58321 -0.20746,0.19838 -0.52082,0.45938 -0.69637,0.58 -0.17554,0.12062 -0.44291,0.35655 -0.59416,0.52428 -0.17476,0.19382 -0.4185,0.37788 -0.66872,0.505 -0.48873,0.24829 -0.81851,0.45509 -1.06863,0.67013 -0.18159,0.15613 -0.50402,0.37863 -1.47498,1.01784 -0.38355,0.2525 -0.68832,0.34131 -0.79729,0.23234 z m -87.12563,-2.62838 c -0.30489,-0.1859 -0.44425,-0.55921 -0.30553,-0.81841 0.0898,-0.1677 0.48277,-0.34456 0.76569,-0.34456 0.30727,0 0.64413,0.21083 0.72987,0.45679 0.0829,0.2377 -0.0671,0.51954 -0.3659,0.68749 -0.28635,0.16097 -0.57986,0.16763 -0.82413,0.0187 z"
       id="path802" /></g></svg>
