<?xml version="1.0" encoding="UTF-8" standalone="no"?>
<!-- Created with Inkscape (http://www.inkscape.org/) -->

<svg
   xmlns:dc="http://purl.org/dc/elements/1.1/"
   xmlns:cc="http://creativecommons.org/ns#"
   xmlns:rdf="http://www.w3.org/1999/02/22-rdf-syntax-ns#"
   xmlns:svg="http://www.w3.org/2000/svg"
   xmlns="http://www.w3.org/2000/svg"
   version="1.1"
   width="100%"
   height="100%"
   viewBox="243.87 150.41 156.91 65.03"
   id="svg3054">
  <metadata
     id="metadata3096">
    <rdf:RDF>
      <cc:Work
         rdf:about="">
        <dc:format>image/svg+xml</dc:format>
        <dc:type
           rdf:resource="http://purl.org/dc/dcmitype/StillImage" />
        <dc:title></dc:title>
      </cc:Work>
    </rdf:RDF>
  </metadata>
  <defs
     id="defs3094" />
  <clipPath
     id="39">
    <rect
       width="1116.8"
       height="1610"
       x="0.85"
       y="0.85"
       id="rect3057" />
  </clipPath>
  <g
     transform="translate(8.0767,7.2898)"
     clip-path="url(#39)"
     id="page">
    <g
       id="g3063">
      <g
         id="text3065"
         style="text-anchor:start">
        <path
           d="m 380.43,170.3 0,-17.18 2.27,0 0,17.18 z"
           id="path3116"
           style="font-size:24px;fill:#000000;font-family:Arial" />
      </g>
    </g>
    <g
       id="Solid">
      <path
         d="m 378.08,161.85 0,0 0.43,0.74 0.42,0.73 -31.78,18.35 0,-0.98 0,-0.98 z"
         id="path3070"
         style="fill:#000000;fill-rule:evenodd;stroke:#000000;stroke-width:0;stroke-linejoin:miter" />
    </g>
    <g
       id="g3072">
      <path
         d="m 347.15,179.71 0,0 0,0.98 0,0.98 -34.37,-19.84 0,-0.98 0,-0.98 z"
         id="path3074"
         style="fill:#000000;fill-rule:evenodd;stroke:#000000;stroke-width:0;stroke-linejoin:miter" />
    </g>
    <g
       id="g3076">
      <g
         id="text3078"
         style="text-anchor:end">
        <path
           d="m 245.79,192.72 0,-17.18 2.28,0 0,7.06 8.93,0 0,-7.06 2.27,0 0,17.18 -2.27,0 0,-8.1 -8.93,0 0,8.1 z"
           id="path3119"
           style="font-size:24px;fill:#000000;font-family:Arial" />
        <path
           d="m 270.28,196.63 0,1.52 -8.52,0 c 0,-0.38 0.1,-0.75 0.19,-1.1 0.21,-0.58 0.56,-1.15 1.04,-1.71 0.48,-0.56 1.17,-1.22 2.07,-1.95 1.4,-1.15 2.34,-2.06 2.84,-2.73 0.49,-0.67 0.73,-1.31 0.73,-1.91 0,-0.62 -0.22,-1.15 -0.67,-1.58 -0.45,-0.43 -1.03,-0.65 -1.75,-0.65 -0.76,0 -1.37,0.23 -1.83,0.69 -0.46,0.45 -0.69,1.09 -0.69,1.9 l -1.63,-0.17 c 0.11,-1.21 0.53,-2.14 1.26,-2.77 0.72,-0.64 1.7,-0.96 2.92,-0.96 1.24,0 2.22,0.35 2.94,1.03 0.72,0.69 1.08,1.54 1.08,2.55 0,0.52 -0.1,1.02 -0.32,1.52 -0.21,0.5 -0.56,1.02 -1.05,1.57 -0.49,0.55 -1.3,1.31 -2.44,2.27 -0.94,0.8 -1.55,1.34 -1.82,1.62 -0.27,0.29 -0.5,0.57 -0.67,0.86 z"
           id="path3121"
           style="font-size:18px;fill:#000000;font-family:Arial" />
        <path
           d="m 285.35,186.7 2.27,0.57 c -0.48,1.87 -1.33,3.29 -2.57,4.27 -1.24,0.98 -2.76,1.47 -4.54,1.47 -1.86,0 -3.36,-0.37 -4.52,-1.13 -1.16,-0.75 -2.04,-1.84 -2.65,-3.27 -0.61,-1.43 -0.91,-2.97 -0.91,-4.61 0,-1.79 0.34,-3.35 1.03,-4.68 0.68,-1.33 1.65,-2.34 2.91,-3.04 1.27,-0.69 2.66,-1.03 4.17,-1.03 1.72,0 3.16,0.43 4.34,1.31 1.17,0.87 1.99,2.11 2.45,3.69 l -2.24,0.53 c -0.4,-1.25 -0.98,-2.16 -1.74,-2.73 -0.75,-0.57 -1.71,-0.86 -2.86,-0.86 -1.32,0 -2.42,0.32 -3.31,0.95 -0.88,0.63 -1.51,1.48 -1.87,2.55 -0.36,1.07 -0.53,2.17 -0.53,3.3 0,1.46 0.21,2.74 0.63,3.83 0.43,1.09 1.09,1.9 1.99,2.44 0.9,0.54 1.87,0.81 2.92,0.81 1.27,0 2.35,-0.37 3.23,-1.1 0.89,-0.74 1.48,-1.83 1.8,-3.27 z"
           id="path3123"
           style="font-size:24px;fill:#000000;font-family:Arial" />
      </g>
    </g>
    <g
       id="g3086">
      <path
         d="m 312.78,159.87 0,0 0,0.98 0,0.98 -22.96,13.26 -0.43,-0.74 -0.42,-0.74 z"
         id="path3088"
         style="fill:#000000;fill-rule:evenodd;stroke:#000000;stroke-width:0;stroke-linejoin:miter" />
      <path
         d="m 312.78,167.72 -20.41,11.79"
         id="line3090"
         style="stroke:#000000;stroke-width:1.7" />
    </g>
  </g>
</svg>
