<svg width="167" height="17" viewBox="0 0 167 17" fill="none" xmlns="http://www.w3.org/2000/svg">
<path d="M0.19 16H3.15L4.14 12.6H9.41L10.4 16H13.37L8.8 1.46H4.76L0.19 16ZM5.91 6.51L6.7 3.4H6.83L7.63 6.51L8.75 10.33H4.8L5.91 6.51ZM15.2866 16H18.0566V8.6C18.3966 7.87 19.1766 7.21 20.0866 7.21C21.1966 7.21 21.7466 7.78 21.7466 9.77V16H24.5066V8.77C24.5066 6.13 23.2466 4.86 21.2266 4.86C19.0666 4.86 18.2066 6.32 17.8966 7.96L17.7166 5.09H15.2866V16ZM31.1606 16.13C33.1206 16.13 33.8506 14.73 34.1006 13.49L34.1106 13.45V16H36.8506V0.439999H34.1006L34.1106 6.53C33.7706 5.7 32.9206 4.88 31.3106 4.88C28.9106 4.88 26.9906 6.88 26.9906 10.49C26.9906 13.84 28.4706 16.13 31.1606 16.13ZM29.7706 10.54C29.7706 8.21 30.7106 7.17 32.1606 7.17C33.3206 7.17 33.9106 7.66 34.1006 8.3L34.1106 8.29V12.76L34.1006 12.74C33.9906 13.17 33.2806 13.87 32.0606 13.87C30.6406 13.87 29.7706 12.7 29.7706 10.54ZM39.9928 16H42.7628V8.82C43.1528 8.06 44.0828 7.68 45.0328 7.68C45.4528 7.68 45.9328 7.71 46.3828 7.85V4.95C46.1628 4.89 45.8828 4.86 45.6128 4.86C43.8428 4.86 42.9428 6.25 42.6028 7.97L42.4228 5.09H39.9928V16ZM53.0159 16.15C55.6259 16.15 57.3759 14.82 57.5559 12.63H54.9059C54.7559 13.38 54.1459 13.97 52.9459 13.97C51.5759 13.97 50.6859 13.07 50.5559 11.07H57.7359C57.7559 10.64 57.7859 10.34 57.7859 9.99C57.7859 6.66 56.0859 4.87 53.0559 4.87C49.9459 4.87 47.8359 6.9 47.8359 10.53C47.8359 14.14 49.7659 16.15 53.0159 16.15ZM51.7359 9.38C51.0159 9.38 50.6459 9.59 50.5359 10.28C50.5959 8.27 51.3259 7.1 52.9459 7.1C54.4159 7.1 55.0459 7.89 55.0959 9.38H51.7359ZM62.1673 16H65.4173L66.6073 10.99L67.1773 7.82H67.3173L67.8673 10.98L69.0673 16H72.3273L75.5173 5.09H72.5773L71.4173 10.41L70.7773 13.8L70.6573 13.81L70.1373 10.41L68.9673 5.09H65.5173L64.3373 10.4L63.8173 13.74H63.6973L63.0673 10.4L61.9073 5.09H58.9673L62.1673 16ZM138.556 16H141.296V8.19L141.076 3.91H141.156L142.426 8.11L144.916 16H146.856L149.286 8.11L150.556 3.91H150.636L150.406 8.19V16H153.156V1.46H148.576L146.596 9.13L145.886 11.88H145.836L145.146 9.13L143.116 1.46H138.556V16ZM156.475 16H159.265V10.48C159.455 10.9 159.835 11.11 160.315 11.11H161.405C165.395 11.11 166.735 8.69 166.735 6.1C166.735 2.86 164.905 1.46 161.375 1.46H156.475V16ZM161.245 3.86C162.905 3.86 163.875 4.38 163.875 6.21C163.875 7.98 163.025 8.74 161.335 8.74H159.265V3.86H161.245Z" fill="white"/>
<path d="M80.0309 16H83.6209L85.1509 8.28L85.7109 4.57H85.7709L86.3309 8.28L87.8709 16H91.4409L95.2309 1.46H92.2009L90.6509 8.95L89.7709 13.73H89.6909L88.9209 8.95L87.5109 1.46H83.9609L82.5709 8.95L81.7909 13.73H81.7109L80.8809 8.95L79.3809 1.46H76.3609L80.0309 16ZM98.7836 3.66C99.7236 3.66 100.504 2.93 100.504 1.88C100.504 0.84 99.7336 0.109999 98.7836 0.109999C97.8336 0.109999 97.0636 0.84 97.0636 1.88C97.0636 2.93 97.8336 3.66 98.7836 3.66ZM97.3936 16H100.144L100.154 5.09H97.3936V16ZM103.331 16H106.101V0.41H103.331V16ZM109.258 16H111.968V11.76L111.808 10.11L115.678 16H119.128L115.308 10.92L114.528 10.04L115.278 9.17L118.768 5.09H115.258L113.458 7.62L111.808 9.99L111.968 8.42V0.41H109.258V16ZM122.327 3.66C123.267 3.66 124.047 2.93 124.047 1.88C124.047 0.84 123.277 0.109999 122.327 0.109999C121.377 0.109999 120.607 0.84 120.607 1.88C120.607 2.93 121.377 3.66 122.327 3.66ZM120.937 16H123.687L123.697 5.09H120.937V16ZM131.343 16.15C133.953 16.15 135.703 14.82 135.883 12.63H133.233C133.083 13.38 132.473 13.97 131.273 13.97C129.903 13.97 129.013 13.07 128.883 11.07H136.063C136.083 10.64 136.113 10.34 136.113 9.99C136.113 6.66 134.413 4.87 131.383 4.87C128.273 4.87 126.163 6.9 126.163 10.53C126.163 14.14 128.093 16.15 131.343 16.15ZM130.063 9.38C129.343 9.38 128.973 9.59 128.863 10.28C128.923 8.27 129.653 7.1 131.273 7.1C132.743 7.1 133.373 7.89 133.423 9.38H130.063Z" fill="#ED8801"/>
</svg>
