<?xml version="1.0" encoding="UTF-8" standalone="no"?>
<svg xmlns="http://www.w3.org/2000/svg"
   width="245"
   height="106">
    <rect
       x="3"
       y="3"
       width="239"
       height="100"
       style="fill:#ad7fa8;stroke:#5c3566;stroke-width:6;stroke-linecap:round;stroke-linejoin:round;stroke-miterlimit:4;stroke-opacity:1" />
  <path
     d="M 44.105469,68.736328 L 63.382812,68.736328 L 63.382812,73.384766 L 37.460938,73.384766 L 37.460938,68.736328 C 39.557285,66.567064 42.410147,63.659515 46.019531,60.013672 C 49.647119,56.349626 51.925763,53.988952 52.855469,52.931641 C 54.623677,50.944684 55.854144,49.267602 56.546875,47.900391 C 57.257789,46.515001 57.613257,45.156929 57.613281,43.826172 C 57.613257,41.656933 56.847633,39.888705 55.316406,38.521484 C 53.803365,37.154333 51.825502,36.47074 49.382812,36.470703 C 47.651027,36.47074 45.818998,36.771521 43.886719,37.373047 C 41.972648,37.974645 39.921868,38.886102 37.734375,40.107422 L 37.734375,34.529297 C 39.958327,33.636107 42.03645,32.961629 43.96875,32.505859 C 45.901029,32.050172 47.669257,31.822307 49.273438,31.822266 C 53.502584,31.822307 56.874976,32.879598 59.390625,34.994141 C 61.906221,37.10876 63.164033,39.934278 63.164062,43.470703 C 63.164033,45.147815 62.845023,46.742865 62.207031,48.255859 C 61.587211,49.750675 60.44789,51.518902 58.789062,53.560547 C 58.333308,54.089212 56.884091,55.62046 54.441406,58.154297 C 51.998679,60.669935 48.55337,64.197275 44.105469,68.736328 M 75.003906,66.439453 L 80.773438,66.439453 L 80.773438,73.384766 L 75.003906,73.384766 L 75.003906,66.439453 M 109.56641,51.373047 C 112.20961,51.938172 114.2695,53.113953 115.74609,54.900391 C 117.24086,56.686866 117.98825,58.892593 117.98828,61.517578 C 117.98825,65.546232 116.60283,68.663416 113.83203,70.869141 C 111.06117,73.07487 107.12368,74.177734 102.01953,74.177734 C 100.30598,74.177734 98.537749,74.004557 96.714844,73.658203 C 94.910148,73.330078 93.04166,72.828777 91.109375,72.154297 L 91.109375,66.822266 C 92.640619,67.7155 94.317701,68.389979 96.140625,68.845703 C 97.963531,69.301436 99.868477,69.529301 101.85547,69.529297 C 105.31899,69.529301 107.9531,68.845708 109.75781,67.478516 C 111.5807,66.111335 112.49216,64.124358 112.49219,61.517578 C 112.49216,59.111342 111.64451,57.23374 109.94922,55.884766 C 108.27211,54.517597 105.92967,53.834004 102.92188,53.833984 L 98.164062,53.833984 L 98.164062,49.294922 L 103.14062,49.294922 C 105.85675,49.294946 107.93487,48.757186 109.375,47.681641 C 110.81508,46.587917 111.53513,45.020211 111.53516,42.978516 C 111.53513,40.882194 110.78774,39.278029 109.29297,38.166016 C 107.81639,37.035844 105.69269,36.47074 102.92188,36.470703 C 101.40884,36.47074 99.786445,36.634802 98.054688,36.962891 C 96.322907,37.291052 94.417961,37.801468 92.339844,38.494141 L 92.339844,33.572266 C 94.43619,32.988973 96.395824,32.551473 98.21875,32.259766 C 100.05988,31.96814 101.79165,31.822307 103.41406,31.822266 C 107.60675,31.822307 110.92446,32.779337 113.36719,34.693359 C 115.80987,36.58923 117.03122,39.159539 117.03125,42.404297 C 117.03122,44.664742 116.38409,46.578803 115.08984,48.146484 C 113.79555,49.695987 111.9544,50.771507 109.56641,51.373047 M 128.65234,72.537109 L 128.65234,67.505859 C 130.03775,68.162115 131.4414,68.663416 132.86328,69.009766 C 134.28514,69.356124 135.67967,69.529301 137.04688,69.529297 C 140.69269,69.529301 143.47264,68.307948 145.38672,65.865234 C 147.31899,63.404307 148.42185,59.676446 148.69531,54.681641 C 147.638,56.249366 146.29815,57.45249 144.67578,58.291016 C 143.05336,59.129572 141.25779,59.548842 139.28906,59.548828 C 135.20572,59.548842 131.97004,58.318374 129.58203,55.857422 C 127.21223,53.378275 126.02734,49.996768 126.02734,45.712891 C 126.02734,41.520214 127.26692,38.156936 129.74609,35.623047 C 132.22525,33.089233 135.52473,31.822307 139.64453,31.822266 C 144.36586,31.822307 147.96612,33.636107 150.44531,37.263672 C 152.94268,40.873079 154.19137,46.123074 154.19141,53.013672 C 154.19137,59.448582 152.66013,64.589202 149.59766,68.435547 C 146.55336,72.263673 142.4518,74.177734 137.29297,74.177734 C 135.90754,74.177734 134.50389,74.041015 133.08203,73.767578 C 131.66015,73.494141 130.18359,73.083985 128.65234,72.537109 M 139.64453,55.228516 C 142.12368,55.228534 144.08331,54.380878 145.52344,52.685547 C 146.98175,50.990257 147.71091,48.66604 147.71094,45.712891 C 147.71091,42.778025 146.98175,40.462924 145.52344,38.767578 C 144.08331,37.054073 142.12368,36.197303 139.64453,36.197266 C 137.16535,36.197303 135.1966,37.054073 133.73828,38.767578 C 132.29817,40.462924 131.57812,42.778025 131.57812,45.712891 C 131.57812,48.66604 132.29817,50.990257 133.73828,52.685547 C 135.1966,54.380878 137.16535,55.228534 139.64453,55.228516 M 164.71875,66.439453 L 170.48828,66.439453 L 170.48828,73.384766 L 164.71875,73.384766 L 164.71875,66.439453 M 164.71875,44.427734 L 170.48828,44.427734 L 170.48828,51.373047 L 164.71875,51.373047 L 164.71875,44.427734 M 184.02344,68.736328 L 193.04688,68.736328 L 193.04688,37.591797 L 183.23047,39.560547 L 183.23047,34.529297 L 192.99219,32.560547 L 198.51562,32.560547 L 198.51562,68.736328 L 207.53906,68.736328 L 207.53906,73.384766 L 184.02344,73.384766 L 184.02344,68.736328" />
</svg>
