<?xml version="1.0" encoding="utf-8"?>
<!-- Generator: Adobe Illustrator 16.0.4, SVG Export Plug-In . SVG Version: 6.00 Build 0)  -->
<!DOCTYPE svg PUBLIC "-//W3C//DTD SVG 1.1//EN" "http://www.w3.org/Graphics/SVG/1.1/DTD/svg11.dtd">
<svg version="1.1" id="Vrstva_1" xmlns="http://www.w3.org/2000/svg" xmlns:xlink="http://www.w3.org/1999/xlink" x="0px" y="0px"
	 width="1200px" height="850px" viewBox="0 0 1200 850" enable-background="new 0 0 1200 850" xml:space="preserve">
<path fill="#276FB7" d="M4.272,801.793V49.332c0-25.558,20.683-46.335,46.227-46.335h751.267c25.512,0,46.233,20.777,46.233,46.335
	v752.461c0,25.646-20.724,46.334-46.233,46.334H50.5C24.955,848.127,4.272,827.439,4.272,801.793"/>
<path fill="#276FB7" d="M354.272,801.231V48.77c0-25.556,20.683-46.335,46.227-46.335h751.267c25.512,0,46.233,20.779,46.233,46.335
	v752.461c0,25.646-20.724,46.334-46.233,46.334H400.5C374.955,847.565,354.272,826.878,354.272,801.231"/>
<path id="path3402-7" fill="#FFFFFF" d="M389.555,675.562h-70.93V249.439l-93.449,67.348l-39.03-50.202l124.223-91.021h79.187
	L389.555,675.562L389.555,675.562z"/>
<path id="path3402-7_1_" fill="#FFFFFF" d="M652.334,675h-70.93V248.878l-93.45,67.348l-39.03-50.204L573.146,175h79.188V675z"/>
<path id="path3155" fill="#FFFFFF" d="M1012.279,175v75.102L863.663,675h-74.684l159.875-435.918H737.188V175H1012.279L1012.279,175
	z"/>
</svg>
