<?xml version="1.0" encoding="UTF-8" standalone="no"?>
<!-- Created with Inkscape (http://www.inkscape.org/) -->
<svg xmlns:rdf="http://www.w3.org/1999/02/22-rdf-syntax-ns#" xmlns="http://www.w3.org/2000/svg" xml:space="preserve" version="1.1" xmlns:cc="http://creativecommons.org/ns#" xmlns:dc="http://purl.org/dc/elements/1.1/" viewBox="0 0 350.7 275.1"><metadata><rdf:RDF><cc:Work rdf:about=""><dc:format>image/svg+xml</dc:format><dc:type rdf:resource="http://purl.org/dc/dcmitype/StillImage"/><dc:title/></cc:Work></rdf:RDF></metadata><g fill-rule="nonzero" transform="matrix(1.25,0,0,-1.25,-5.13,277.8)" fill="#000"><path d="m72.08,31.48-1.7-1,0,39.69,0.85,0.5,0.85-0.5"/><path d="m76.33,34.43,1.7,0,0,32.8-1.7,0,0-32.8z"/><path d="m105.6,12.13,0-1.95-35.22,20.3,1.7,1"/><path d="m139.1,31.48,1.7-1-35.2-20.3,0,1.95"/><path d="m133.6,35.18,0.9-1.5-28.5-16.4-0.9,1.5"/><path d="m139.1,70.17,0.9,0.5,0.8-0.5,0-39.69-1.7,1"/><path d="m105.6,89.53,0,1.95,34.4-19.86,0-0.95-0.9-0.5"/><path d="m105.1,82.87,0.9,1.5,28.5-16.39-0.9-1.5"/><path d="m72.08,70.17-0.85,0.5,0,0.95,34.37,19.86,0-1.95"/><path d="m173.6,91.03,0.8-0.5,0-0.96-33.6-19.4-0.8,0.5,0,0.95"/><g style="" transform="scale(1,-1)"><path d="m230.3-94.43,0-17.17,2.4,0,9,13.48,0-13.48,2.2,0,0,17.17-2.4,0-9-13.47,0,13.47z"/><path d="m170.4-128.9c0-2.8,0.7-5.1,2.3-6.7,1.5-1.6,3.5-2.4,5.9-2.4,1.6,0,3,0.4,4.3,1.1,1.2,0.8,2.2,1.8,2.9,3.2,0.7,1.3,1,2.9,1,4.6s-0.4,3.3-1.1,4.7-1.7,2.4-3,3.1c-1.2,0.7-2.6,1.1-4.1,1.1-1.6,0-3.1-0.4-4.4-1.2-1.2-0.8-2.2-1.9-2.9-3.2-0.6-1.4-0.9-2.8-0.9-4.3zm2.3,0c0,2.1,0.6,3.7,1.7,4.9s2.5,1.8,4.2,1.8,3.1-0.6,4.2-1.8,1.6-2.9,1.6-5.1c0-1.4-0.2-2.6-0.7-3.7-0.4-1-1.1-1.8-2-2.4s-2-0.9-3.1-0.9c-1.6,0-3,0.6-4.2,1.7-1.1,1.1-1.7,3-1.7,5.5z"/></g><path d="m210.4,75.37,0.4-2.05-36.4,16.25,0,0.96,0.9,0.5"/><path d="m227.3,94.12,1.2-1.14-17.7-19.66-0.4,2.05"/><path d="m216.9,137.3,0.4,0.9,1,0.1,13.4-23.3-1.5-0.8"/><path d="m188.9,131.3-0.3,1.7,28.1,6,0.6-0.8-0.4-0.9"/><path d="m175.3,91.03-0.9-0.5-0.8,0.5,2.8,27.17,1.7-0.2"/><g style="" transform="scale(1,-1)"><path d="m12.08-81.07,0-17.18,2.28,0,0,7.06,8.92,0,0-7.06,2.28,0,0,17.18-2.28,0,0-8.1-8.92,0,0,8.1z"/><path d="m28.65-89.44c0-2.85,0.76-5.08,2.3-6.69,1.53-1.62,3.5-2.42,5.92-2.42,1.59,0,3.02,0.37,4.29,1.13,1.28,0.76,2.25,1.82,2.92,3.17,0.66,1.36,1,2.89,1,4.61,0,1.75-0.35,3.3-1.06,4.68-0.7,1.37-1.7,2.42-2.99,3.12-1.28,0.71-2.67,1.06-4.17,1.06-1.61,0-3.06-0.39-4.33-1.17-1.28-0.78-2.24-1.85-2.9-3.2-0.65-1.35-0.98-2.78-0.98-4.29zm2.34,0c0,2.07,0.56,3.7,1.67,4.89,1.12,1.19,2.51,1.79,4.19,1.79,1.71,0,3.12-0.6,4.23-1.81,1.1-1.2,1.65-2.91,1.65-5.12,0-1.4-0.23-2.62-0.7-3.66-0.48-1.04-1.17-1.85-2.08-2.43-0.91-0.57-1.93-0.86-3.06-0.86-1.61,0-3,0.56-4.16,1.66-1.16,1.11-1.74,2.95-1.74,5.54z"/></g><path d="m46.18,84.12,0.85,1.5,24.2-14,0-0.95-0.85-0.5"/><path d="m276.7,100.6-0.2-1.73-30.5,3.23,0.1,1.7"/><path d="m232.5,174.4,1,0.1,0.5-0.8-15.7-35.4-1-0.1-0.6,0.8"/><path d="m209.5,206.1,1.3,1,21.8-30,0.9-2.6-1-0.1"/><path d="m272.8,179.5,0.2-1.7-39-4.1-0.5,0.8,0.8,0.9"/><path d="m232.6,214.2,1.7,0,0-38.8-0.8-0.9-0.9,2.6"/></g></svg>
