<?xml version="1.0" encoding="UTF-8" standalone="no"?>
<!-- Created with Inkscape (http://www.inkscape.org/) -->

<svg
   xmlns:dc="http://purl.org/dc/elements/1.1/"
   xmlns:cc="http://creativecommons.org/ns#"
   xmlns:rdf="http://www.w3.org/1999/02/22-rdf-syntax-ns#"
   xmlns:svg="http://www.w3.org/2000/svg"
   xmlns="http://www.w3.org/2000/svg"
   xmlns:sodipodi="http://sodipodi.sourceforge.net/DTD/sodipodi-0.dtd"
   xmlns:inkscape="http://www.inkscape.org/namespaces/inkscape"
   width="693.75"
   height="693.75"
   id="svg2"
   version="1.1"
   inkscape:version="0.47 r22583"
   sodipodi:docname="bernoulli_to_oval_1.svg">
  <defs
     id="defs4">
    <inkscape:perspective
       sodipodi:type="inkscape:persp3d"
       inkscape:vp_x="0 : 526.18109 : 1"
       inkscape:vp_y="0 : 1000 : 0"
       inkscape:vp_z="744.09448 : 526.18109 : 1"
       inkscape:persp3d-origin="372.04724 : 350.78739 : 1"
       id="perspective10" />
    <clipPath
       id="clipPath3030"
       clipPathUnits="userSpaceOnUse">
      <path
         id="path3032"
         d="m 269.375,6660.63 5411.255,0 0,-5411.25 -5411.255,0 0,5411.25 z" />
    </clipPath>
    <clipPath
       id="clipPath3020"
       clipPathUnits="userSpaceOnUse">
      <path
         id="path3022"
         d="m 1018.63,1457.5 97.12,0 0,-180.37 -97.12,0 0,180.37 z" />
    </clipPath>
    <clipPath
       id="clipPath3010"
       clipPathUnits="userSpaceOnUse">
      <path
         id="path3012"
         d="m 269.375,6660.63 5411.255,0 0,-5411.25 -5411.255,0 0,5411.25 z" />
    </clipPath>
    <clipPath
       id="clipPath3000"
       clipPathUnits="userSpaceOnUse">
      <path
         id="path3002"
         d="m 755,4579.38 194.25,0 0,-208.13 -194.25,0 0,208.13 z" />
    </clipPath>
    <clipPath
       id="clipPath2928"
       clipPathUnits="userSpaceOnUse">
      <path
         id="path2930"
         d="m 269.375,6660.63 5411.255,0 0,-5411.25 -5411.255,0 0,5411.25 z" />
    </clipPath>
    <clipPath
       id="clipPath2918"
       clipPathUnits="userSpaceOnUse">
      <path
         id="path2920"
         d="m 283.25,2303.88 97.125,0 0,-180.38 -97.125,0 0,180.38 z" />
    </clipPath>
    <clipPath
       id="clipPath2908"
       clipPathUnits="userSpaceOnUse">
      <path
         id="path2910"
         d="m 269.375,6660.63 5411.255,0 0,-5411.25 -5411.255,0 0,5411.25 z" />
    </clipPath>
    <clipPath
       id="clipPath2898"
       clipPathUnits="userSpaceOnUse">
      <path
         id="path2900"
         d="m 3446.75,2081.88 194.25,0 0,-208.13 -194.25,0 0,208.13 z" />
    </clipPath>
    <clipPath
       id="clipPath2848"
       clipPathUnits="userSpaceOnUse">
      <path
         id="path2850"
         d="m 269.375,6660.63 5411.255,0 0,-5411.25 -5411.255,0 0,5411.25 z" />
    </clipPath>
    <clipPath
       id="clipPath2836"
       clipPathUnits="userSpaceOnUse">
      <path
         id="path2838"
         d="m 408.125,6598.11 5272.415,0 0,-5272.41 -5272.415,0 0,5272.41 z" />
    </clipPath>
    <inkscape:perspective
       id="perspective2824"
       inkscape:persp3d-origin="0.5 : 0.33333333 : 1"
       inkscape:vp_z="1 : 0.5 : 1"
       inkscape:vp_y="0 : 1000 : 0"
       inkscape:vp_x="0 : 0.5 : 1"
       sodipodi:type="inkscape:persp3d" />
    <clipPath
       id="clipPath3383"
       clipPathUnits="userSpaceOnUse">
      <path
         id="path3385"
         d="m 269.375,6660.63 5411.255,0 0,-5411.25 -5411.255,0 0,5411.25 z" />
    </clipPath>
    <clipPath
       id="clipPath3373"
       clipPathUnits="userSpaceOnUse">
      <path
         id="path3375"
         d="m 1018.63,1457.5 97.12,0 0,-180.37 -97.12,0 0,180.37 z" />
    </clipPath>
    <clipPath
       id="clipPath3363"
       clipPathUnits="userSpaceOnUse">
      <path
         id="path3365"
         d="m 269.375,6660.63 5411.255,0 0,-5411.25 -5411.255,0 0,5411.25 z" />
    </clipPath>
    <clipPath
       id="clipPath3353"
       clipPathUnits="userSpaceOnUse">
      <path
         id="path3355"
         d="m 755,4579.38 194.25,0 0,-208.13 -194.25,0 0,208.13 z" />
    </clipPath>
    <clipPath
       id="clipPath3281"
       clipPathUnits="userSpaceOnUse">
      <path
         id="path3283"
         d="m 269.375,6660.63 5411.255,0 0,-5411.25 -5411.255,0 0,5411.25 z" />
    </clipPath>
    <clipPath
       id="clipPath3271"
       clipPathUnits="userSpaceOnUse">
      <path
         id="path3273"
         d="m 283.25,2303.88 97.125,0 0,-180.38 -97.125,0 0,180.38 z" />
    </clipPath>
    <clipPath
       id="clipPath3261"
       clipPathUnits="userSpaceOnUse">
      <path
         id="path3263"
         d="m 269.375,6660.63 5411.255,0 0,-5411.25 -5411.255,0 0,5411.25 z" />
    </clipPath>
    <clipPath
       id="clipPath3251"
       clipPathUnits="userSpaceOnUse">
      <path
         id="path3253"
         d="m 3446.75,2081.88 194.25,0 0,-208.13 -194.25,0 0,208.13 z" />
    </clipPath>
    <clipPath
       id="clipPath3201"
       clipPathUnits="userSpaceOnUse">
      <path
         id="path3203"
         d="m 269.375,6660.63 5411.255,0 0,-5411.25 -5411.255,0 0,5411.25 z" />
    </clipPath>
    <clipPath
       id="clipPath3189"
       clipPathUnits="userSpaceOnUse">
      <path
         id="path3191"
         d="m 408.125,6598.11 5272.415,0 0,-5272.41 -5272.415,0 0,5272.41 z" />
    </clipPath>
    <inkscape:perspective
       id="perspective3177"
       inkscape:persp3d-origin="0.5 : 0.33333333 : 1"
       inkscape:vp_z="1 : 0.5 : 1"
       inkscape:vp_y="0 : 1000 : 0"
       inkscape:vp_x="0 : 0.5 : 1"
       sodipodi:type="inkscape:persp3d" />
    <clipPath
       id="clipPath3720"
       clipPathUnits="userSpaceOnUse">
      <path
         id="path3722"
         d="m 269.375,6660.63 5411.255,0 0,-5411.25 -5411.255,0 0,5411.25 z" />
    </clipPath>
    <clipPath
       id="clipPath3710"
       clipPathUnits="userSpaceOnUse">
      <path
         id="path3712"
         d="m 1268.38,3524.88 97.12,0 0,-180.38 -97.12,0 0,180.38 z" />
    </clipPath>
    <clipPath
       id="clipPath3698"
       clipPathUnits="userSpaceOnUse">
      <path
         id="path3700"
         d="m 269.375,6660.63 5411.255,0 0,-5411.25 -5411.255,0 0,5411.25 z" />
    </clipPath>
    <clipPath
       id="clipPath3688"
       clipPathUnits="userSpaceOnUse">
      <path
         id="path3690"
         d="m 1268.38,3025.38 97.12,0 0,-180.38 -97.12,0 0,180.38 z" />
    </clipPath>
    <clipPath
       id="clipPath3678"
       clipPathUnits="userSpaceOnUse">
      <path
         id="path3680"
         d="m 269.375,6660.63 5411.255,0 0,-5411.25 -5411.255,0 0,5411.25 z" />
    </clipPath>
    <clipPath
       id="clipPath3668"
       clipPathUnits="userSpaceOnUse">
      <path
         id="path3670"
         d="m 990.875,4690.38 194.255,0 0,-208.13 -194.255,0 0,208.13 z" />
    </clipPath>
    <clipPath
       id="clipPath3628"
       clipPathUnits="userSpaceOnUse">
      <path
         id="path3630"
         d="m 269.375,6660.63 5411.255,0 0,-5411.25 -5411.255,0 0,5411.25 z" />
    </clipPath>
    <clipPath
       id="clipPath3618"
       clipPathUnits="userSpaceOnUse">
      <path
         id="path3620"
         d="m 283.25,3844 97.125,0 0,-180.37 -97.125,0 0,180.37 z" />
    </clipPath>
    <clipPath
       id="clipPath3608"
       clipPathUnits="userSpaceOnUse">
      <path
         id="path3610"
         d="m 269.375,6660.63 5411.255,0 0,-5411.25 -5411.255,0 0,5411.25 z" />
    </clipPath>
    <clipPath
       id="clipPath3598"
       clipPathUnits="userSpaceOnUse">
      <path
         id="path3600"
         d="m 3543.88,3635.88 194.25,0 0,-208.13 -194.25,0 0,208.13 z" />
    </clipPath>
    <clipPath
       id="clipPath3556"
       clipPathUnits="userSpaceOnUse">
      <path
         id="path3558"
         d="m 269.375,6660.63 5411.255,0 0,-5411.25 -5411.255,0 0,5411.25 z" />
    </clipPath>
    <clipPath
       id="clipPath3542"
       clipPathUnits="userSpaceOnUse">
      <path
         id="path3544"
         d="m 408.125,5278.27 5209.815,0 0,-2646.53 -5209.815,0 0,2646.53 z" />
    </clipPath>
    <inkscape:perspective
       id="perspective3530"
       inkscape:persp3d-origin="0.5 : 0.33333333 : 1"
       inkscape:vp_z="1 : 0.5 : 1"
       inkscape:vp_y="0 : 1000 : 0"
       inkscape:vp_x="0 : 0.5 : 1"
       sodipodi:type="inkscape:persp3d" />
    <clipPath
       id="clipPath4035"
       clipPathUnits="userSpaceOnUse">
      <path
         id="path4037"
         d="m 269.375,6660.63 5411.255,0 0,-5411.25 -5411.255,0 0,5411.25 z" />
    </clipPath>
    <clipPath
       id="clipPath4025"
       clipPathUnits="userSpaceOnUse">
      <path
         id="path4027"
         d="m 1268.38,3524.88 97.12,0 0,-180.38 -97.12,0 0,180.38 z" />
    </clipPath>
    <clipPath
       id="clipPath4013"
       clipPathUnits="userSpaceOnUse">
      <path
         id="path4015"
         d="m 269.375,6660.63 5411.255,0 0,-5411.25 -5411.255,0 0,5411.25 z" />
    </clipPath>
    <clipPath
       id="clipPath4003"
       clipPathUnits="userSpaceOnUse">
      <path
         id="path4005"
         d="m 1268.38,3025.38 97.12,0 0,-180.38 -97.12,0 0,180.38 z" />
    </clipPath>
    <clipPath
       id="clipPath3993"
       clipPathUnits="userSpaceOnUse">
      <path
         id="path3995"
         d="m 269.375,6660.63 5411.255,0 0,-5411.25 -5411.255,0 0,5411.25 z" />
    </clipPath>
    <clipPath
       id="clipPath3983"
       clipPathUnits="userSpaceOnUse">
      <path
         id="path3985"
         d="m 990.875,4690.38 194.255,0 0,-208.13 -194.255,0 0,208.13 z" />
    </clipPath>
    <clipPath
       id="clipPath3943"
       clipPathUnits="userSpaceOnUse">
      <path
         id="path3945"
         d="m 269.375,6660.63 5411.255,0 0,-5411.25 -5411.255,0 0,5411.25 z" />
    </clipPath>
    <clipPath
       id="clipPath3933"
       clipPathUnits="userSpaceOnUse">
      <path
         id="path3935"
         d="m 283.25,3844 97.125,0 0,-180.37 -97.125,0 0,180.37 z" />
    </clipPath>
    <clipPath
       id="clipPath3923"
       clipPathUnits="userSpaceOnUse">
      <path
         id="path3925"
         d="m 269.375,6660.63 5411.255,0 0,-5411.25 -5411.255,0 0,5411.25 z" />
    </clipPath>
    <clipPath
       id="clipPath3913"
       clipPathUnits="userSpaceOnUse">
      <path
         id="path3915"
         d="m 3543.88,3635.88 194.25,0 0,-208.13 -194.25,0 0,208.13 z" />
    </clipPath>
    <clipPath
       id="clipPath3871"
       clipPathUnits="userSpaceOnUse">
      <path
         id="path3873"
         d="m 269.375,6660.63 5411.255,0 0,-5411.25 -5411.255,0 0,5411.25 z" />
    </clipPath>
    <clipPath
       id="clipPath3859"
       clipPathUnits="userSpaceOnUse">
      <path
         id="path3861"
         d="m 408.125,5278.27 5209.815,0 0,-2646.53 -5209.815,0 0,2646.53 z" />
    </clipPath>
    <inkscape:perspective
       id="perspective3847"
       inkscape:persp3d-origin="0.5 : 0.33333333 : 1"
       inkscape:vp_z="1 : 0.5 : 1"
       inkscape:vp_y="0 : 1000 : 0"
       inkscape:vp_x="0 : 0.5 : 1"
       sodipodi:type="inkscape:persp3d" />
    <clipPath
       id="clipPath4351"
       clipPathUnits="userSpaceOnUse">
      <path
         id="path4353"
         d="m 269.375,6660.63 5411.255,0 0,-5411.25 -5411.255,0 0,5411.25 z" />
    </clipPath>
    <clipPath
       id="clipPath4341"
       clipPathUnits="userSpaceOnUse">
      <path
         id="path4343"
         d="m 1101.88,3455.5 97.12,0 0,-180.37 -97.12,0 0,180.37 z" />
    </clipPath>
    <clipPath
       id="clipPath4329"
       clipPathUnits="userSpaceOnUse">
      <path
         id="path4331"
         d="m 269.375,6660.63 5411.255,0 0,-5411.25 -5411.255,0 0,5411.25 z" />
    </clipPath>
    <clipPath
       id="clipPath4319"
       clipPathUnits="userSpaceOnUse">
      <path
         id="path4321"
         d="m 1226.75,2872.75 97.13,0 0,-180.37 -97.13,0 0,180.37 z" />
    </clipPath>
    <clipPath
       id="clipPath4309"
       clipPathUnits="userSpaceOnUse">
      <path
         id="path4311"
         d="m 269.375,6660.63 5411.255,0 0,-5411.25 -5411.255,0 0,5411.25 z" />
    </clipPath>
    <clipPath
       id="clipPath4299"
       clipPathUnits="userSpaceOnUse">
      <path
         id="path4301"
         d="m 824.375,4759.75 194.255,0 0,-208.12 -194.255,0 0,208.12 z" />
    </clipPath>
    <clipPath
       id="clipPath4233"
       clipPathUnits="userSpaceOnUse">
      <path
         id="path4235"
         d="m 269.375,6660.63 5411.255,0 0,-5411.25 -5411.255,0 0,5411.25 z" />
    </clipPath>
    <clipPath
       id="clipPath4223"
       clipPathUnits="userSpaceOnUse">
      <path
         id="path4225"
         d="m 283.25,3844 97.125,0 0,-180.37 -97.125,0 0,180.37 z" />
    </clipPath>
    <clipPath
       id="clipPath4213"
       clipPathUnits="userSpaceOnUse">
      <path
         id="path4215"
         d="m 269.375,6660.63 5411.255,0 0,-5411.25 -5411.255,0 0,5411.25 z" />
    </clipPath>
    <clipPath
       id="clipPath4203"
       clipPathUnits="userSpaceOnUse">
      <path
         id="path4205"
         d="m 3516.13,3635.88 194.25,0 0,-208.13 -194.25,0 0,208.13 z" />
    </clipPath>
    <clipPath
       id="clipPath4183"
       clipPathUnits="userSpaceOnUse">
      <path
         id="path4185"
         d="m 269.375,6660.63 5411.255,0 0,-5411.25 -5411.255,0 0,5411.25 z" />
    </clipPath>
    <clipPath
       id="clipPath4173"
       clipPathUnits="userSpaceOnUse">
      <path
         id="path4175"
         d="m 345.688,2501.84 5334.94,0 0,2906.34 -5334.94,0 0,-2906.34 z" />
    </clipPath>
    <inkscape:perspective
       id="perspective4161"
       inkscape:persp3d-origin="0.5 : 0.33333333 : 1"
       inkscape:vp_z="1 : 0.5 : 1"
       inkscape:vp_y="0 : 1000 : 0"
       inkscape:vp_x="0 : 0.5 : 1"
       sodipodi:type="inkscape:persp3d" />
    <clipPath
       id="clipPath4670"
       clipPathUnits="userSpaceOnUse">
      <path
         id="path4672"
         d="m 269.375,6660.63 5411.255,0 0,-5411.25 -5411.255,0 0,5411.25 z" />
    </clipPath>
    <clipPath
       id="clipPath4660"
       clipPathUnits="userSpaceOnUse">
      <path
         id="path4662"
         d="m 1101.88,3455.5 97.12,0 0,-180.37 -97.12,0 0,180.37 z" />
    </clipPath>
    <clipPath
       id="clipPath4648"
       clipPathUnits="userSpaceOnUse">
      <path
         id="path4650"
         d="m 269.375,6660.63 5411.255,0 0,-5411.25 -5411.255,0 0,5411.25 z" />
    </clipPath>
    <clipPath
       id="clipPath4638"
       clipPathUnits="userSpaceOnUse">
      <path
         id="path4640"
         d="m 1226.75,2872.75 97.13,0 0,-180.37 -97.13,0 0,180.37 z" />
    </clipPath>
    <clipPath
       id="clipPath4628"
       clipPathUnits="userSpaceOnUse">
      <path
         id="path4630"
         d="m 269.375,6660.63 5411.255,0 0,-5411.25 -5411.255,0 0,5411.25 z" />
    </clipPath>
    <clipPath
       id="clipPath4618"
       clipPathUnits="userSpaceOnUse">
      <path
         id="path4620"
         d="m 824.375,4759.75 194.255,0 0,-208.12 -194.255,0 0,208.12 z" />
    </clipPath>
    <clipPath
       id="clipPath4552"
       clipPathUnits="userSpaceOnUse">
      <path
         id="path4554"
         d="m 269.375,6660.63 5411.255,0 0,-5411.25 -5411.255,0 0,5411.25 z" />
    </clipPath>
    <clipPath
       id="clipPath4542"
       clipPathUnits="userSpaceOnUse">
      <path
         id="path4544"
         d="m 283.25,3844 97.125,0 0,-180.37 -97.125,0 0,180.37 z" />
    </clipPath>
    <clipPath
       id="clipPath4532"
       clipPathUnits="userSpaceOnUse">
      <path
         id="path4534"
         d="m 269.375,6660.63 5411.255,0 0,-5411.25 -5411.255,0 0,5411.25 z" />
    </clipPath>
    <clipPath
       id="clipPath4522"
       clipPathUnits="userSpaceOnUse">
      <path
         id="path4524"
         d="m 3516.13,3635.88 194.25,0 0,-208.13 -194.25,0 0,208.13 z" />
    </clipPath>
    <clipPath
       id="clipPath4502"
       clipPathUnits="userSpaceOnUse">
      <path
         id="path4504"
         d="m 269.375,6660.63 5411.255,0 0,-5411.25 -5411.255,0 0,5411.25 z" />
    </clipPath>
    <clipPath
       id="clipPath4490"
       clipPathUnits="userSpaceOnUse">
      <path
         id="path4492"
         d="m 345.688,2501.84 5334.94,0 0,2906.34 -5334.94,0 0,-2906.34 z" />
    </clipPath>
    <inkscape:perspective
       id="perspective4478"
       inkscape:persp3d-origin="0.5 : 0.33333333 : 1"
       inkscape:vp_z="1 : 0.5 : 1"
       inkscape:vp_y="0 : 1000 : 0"
       inkscape:vp_x="0 : 0.5 : 1"
       sodipodi:type="inkscape:persp3d" />
    <clipPath
       id="clipPath5008"
       clipPathUnits="userSpaceOnUse">
      <path
         id="path5010"
         d="m 269.375,6660.63 5411.255,0 0,-5411.25 -5411.255,0 0,5411.25 z" />
    </clipPath>
    <clipPath
       id="clipPath4998"
       clipPathUnits="userSpaceOnUse">
      <path
         id="path5000"
         d="m 2503.25,3552.63 97.13,0 0,-180.38 -97.13,0 0,180.38 z" />
    </clipPath>
    <clipPath
       id="clipPath4986"
       clipPathUnits="userSpaceOnUse">
      <path
         id="path4988"
         d="m 269.375,6660.63 5411.255,0 0,-5411.25 -5411.255,0 0,5411.25 z" />
    </clipPath>
    <clipPath
       id="clipPath4976"
       clipPathUnits="userSpaceOnUse">
      <path
         id="path4978"
         d="m 2503.25,3053.13 97.13,0 0,-180.38 -97.13,0 0,180.38 z" />
    </clipPath>
    <clipPath
       id="clipPath4966"
       clipPathUnits="userSpaceOnUse">
      <path
         id="path4968"
         d="m 269.375,6660.63 5411.255,0 0,-5411.25 -5411.255,0 0,5411.25 z" />
    </clipPath>
    <clipPath
       id="clipPath4956"
       clipPathUnits="userSpaceOnUse">
      <path
         id="path4958"
         d="m 2239.63,4662.63 194.25,0 0,-208.13 -194.25,0 0,208.13 z" />
    </clipPath>
    <clipPath
       id="clipPath4920"
       clipPathUnits="userSpaceOnUse">
      <path
         id="path4922"
         d="m 269.375,6660.63 5411.255,0 0,-5411.25 -5411.255,0 0,5411.25 z" />
    </clipPath>
    <clipPath
       id="clipPath4910"
       clipPathUnits="userSpaceOnUse">
      <path
         id="path4912"
         d="m 1573.63,3844 97.12,0 0,-180.37 -97.12,0 0,180.37 z" />
    </clipPath>
    <clipPath
       id="clipPath4898"
       clipPathUnits="userSpaceOnUse">
      <path
         id="path4900"
         d="m 269.375,6660.63 5411.255,0 0,-5411.25 -5411.255,0 0,5411.25 z" />
    </clipPath>
    <clipPath
       id="clipPath4888"
       clipPathUnits="userSpaceOnUse">
      <path
         id="path4890"
         d="m 408.125,3844 97.125,0 0,-180.37 -97.125,0 0,180.37 z" />
    </clipPath>
    <clipPath
       id="clipPath4878"
       clipPathUnits="userSpaceOnUse">
      <path
         id="path4880"
         d="m 269.375,6660.63 5411.255,0 0,-5411.25 -5411.255,0 0,5411.25 z" />
    </clipPath>
    <clipPath
       id="clipPath4868"
       clipPathUnits="userSpaceOnUse">
      <path
         id="path4870"
         d="m 4209.88,3635.88 194.25,0 0,-208.13 -194.25,0 0,208.13 z" />
    </clipPath>
    <clipPath
       id="clipPath4822"
       clipPathUnits="userSpaceOnUse">
      <path
         id="path4824"
         d="m 269.375,6660.63 5411.255,0 0,-5411.25 -5411.255,0 0,5411.25 z" />
    </clipPath>
    <clipPath
       id="clipPath4810"
       clipPathUnits="userSpaceOnUse">
      <path
         id="path4812"
         d="m 269.375,2683.57 5411.25,0 0,2542.9 -5411.25,0 0,-2542.9 z" />
    </clipPath>
    <inkscape:perspective
       id="perspective4798"
       inkscape:persp3d-origin="0.5 : 0.33333333 : 1"
       inkscape:vp_z="1 : 0.5 : 1"
       inkscape:vp_y="0 : 1000 : 0"
       inkscape:vp_x="0 : 0.5 : 1"
       sodipodi:type="inkscape:persp3d" />
    <clipPath
       id="clipPath5355"
       clipPathUnits="userSpaceOnUse">
      <path
         id="path5357"
         d="m 269.375,6660.63 5411.255,0 0,-5411.25 -5411.255,0 0,5411.25 z" />
    </clipPath>
    <clipPath
       id="clipPath5345"
       clipPathUnits="userSpaceOnUse">
      <path
         id="path5347"
         d="m 2503.25,3552.63 97.13,0 0,-180.38 -97.13,0 0,180.38 z" />
    </clipPath>
    <clipPath
       id="clipPath5333"
       clipPathUnits="userSpaceOnUse">
      <path
         id="path5335"
         d="m 269.375,6660.63 5411.255,0 0,-5411.25 -5411.255,0 0,5411.25 z" />
    </clipPath>
    <clipPath
       id="clipPath5323"
       clipPathUnits="userSpaceOnUse">
      <path
         id="path5325"
         d="m 2503.25,3053.13 97.13,0 0,-180.38 -97.13,0 0,180.38 z" />
    </clipPath>
    <clipPath
       id="clipPath5313"
       clipPathUnits="userSpaceOnUse">
      <path
         id="path5315"
         d="m 269.375,6660.63 5411.255,0 0,-5411.25 -5411.255,0 0,5411.25 z" />
    </clipPath>
    <clipPath
       id="clipPath5303"
       clipPathUnits="userSpaceOnUse">
      <path
         id="path5305"
         d="m 2239.63,4662.63 194.25,0 0,-208.13 -194.25,0 0,208.13 z" />
    </clipPath>
    <clipPath
       id="clipPath5267"
       clipPathUnits="userSpaceOnUse">
      <path
         id="path5269"
         d="m 269.375,6660.63 5411.255,0 0,-5411.25 -5411.255,0 0,5411.25 z" />
    </clipPath>
    <clipPath
       id="clipPath5257"
       clipPathUnits="userSpaceOnUse">
      <path
         id="path5259"
         d="m 1573.63,3844 97.12,0 0,-180.37 -97.12,0 0,180.37 z" />
    </clipPath>
    <clipPath
       id="clipPath5245"
       clipPathUnits="userSpaceOnUse">
      <path
         id="path5247"
         d="m 269.375,6660.63 5411.255,0 0,-5411.25 -5411.255,0 0,5411.25 z" />
    </clipPath>
    <clipPath
       id="clipPath5235"
       clipPathUnits="userSpaceOnUse">
      <path
         id="path5237"
         d="m 408.125,3844 97.125,0 0,-180.37 -97.125,0 0,180.37 z" />
    </clipPath>
    <clipPath
       id="clipPath5225"
       clipPathUnits="userSpaceOnUse">
      <path
         id="path5227"
         d="m 269.375,6660.63 5411.255,0 0,-5411.25 -5411.255,0 0,5411.25 z" />
    </clipPath>
    <clipPath
       id="clipPath5215"
       clipPathUnits="userSpaceOnUse">
      <path
         id="path5217"
         d="m 4209.88,3635.88 194.25,0 0,-208.13 -194.25,0 0,208.13 z" />
    </clipPath>
    <clipPath
       id="clipPath5169"
       clipPathUnits="userSpaceOnUse">
      <path
         id="path5171"
         d="m 269.375,6660.63 5411.255,0 0,-5411.25 -5411.255,0 0,5411.25 z" />
    </clipPath>
    <clipPath
       id="clipPath5157"
       clipPathUnits="userSpaceOnUse">
      <path
         id="path5159"
         d="m 269.375,2683.57 5411.25,0 0,2542.9 -5411.25,0 0,-2542.9 z" />
    </clipPath>
    <inkscape:perspective
       id="perspective5145"
       inkscape:persp3d-origin="0.5 : 0.33333333 : 1"
       inkscape:vp_z="1 : 0.5 : 1"
       inkscape:vp_y="0 : 1000 : 0"
       inkscape:vp_x="0 : 0.5 : 1"
       sodipodi:type="inkscape:persp3d" />
  </defs>
  <sodipodi:namedview
     id="base"
     pagecolor="#ffffff"
     bordercolor="#666666"
     borderopacity="1.0"
     inkscape:pageopacity="0.0"
     inkscape:pageshadow="2"
     inkscape:zoom="0.35"
     inkscape:cx="346.875"
     inkscape:cy="346.87502"
     inkscape:document-units="px"
     inkscape:current-layer="layer1"
     showgrid="false"
     inkscape:window-width="563"
     inkscape:window-height="519"
     inkscape:window-x="62"
     inkscape:window-y="84"
     inkscape:window-maximized="0" />
  <metadata
     id="metadata7">
    <rdf:RDF>
      <cc:Work
         rdf:about="">
        <dc:format>image/svg+xml</dc:format>
        <dc:type
           rdf:resource="http://purl.org/dc/dcmitype/StillImage" />
        <dc:title></dc:title>
      </cc:Work>
    </rdf:RDF>
  </metadata>
  <g
     inkscape:label="Layer 1"
     inkscape:groupmode="layer"
     id="layer1"
     transform="translate(-28.125,-185.4872)">
    <g
       transform="matrix(1.25,0,0,-1.25,3.125,1026.7372)"
       inkscape:label="ink_ext_XXXXXX"
       id="g5147">
      <g
         transform="scale(0.1,0.1)"
         id="g5149">
        <path
           id="path5151"
           style="fill:#ffffff;fill-opacity:1;fill-rule:nonzero;stroke:none"
           d="m 200,1180 5550,0 0,5550 -5550,0 0,-5550 z" />
        <g
           id="g5153">
          <g
             clip-path="url(#clipPath5157)"
             id="g5155">
            <path
               id="path5161"
               style="fill:none;stroke:#000000;stroke-width:41.625;stroke-linecap:butt;stroke-linejoin:round;stroke-miterlimit:10;stroke-opacity:1;stroke-dasharray:none"
               d="m 664.406,3500.02 -5.281,7.8 -11.934,18.14 -3.718,6.33 -1.289,2.27 -12.36,22.19 -5.594,10.4 -7.39,14.06 -9.016,17.83 -3.269,6.62 -11.336,23.98 -0.203,0.48 -0.047,0.11 -9.574,24.35 -1.993,5.35 -6.937,19.1 -3.426,10.06 -4.789,14.4 -4.398,14.22 -3.09,10.24 -4.957,17.86 -1.785,6.6 -5.161,21.01 -0.824,3.44 -5.047,23.67 -0.164,0.79 -1.582,8.74 -2.547,15.72 -0.168,1.22 -3.082,23.24 -0.293,2.75 -2.238,21.7 -0.297,3.92 -1.519,20.54 -0.215,4.69 -0.875,19.77 -0.078,5.12 -0.285,19.33 0.082,5.23 0.281,19.23 0.23,5 0.86,19.46 0.34,4.45 1.476,20.02 0.383,3.59 2.148,20.85 0.34,2.49 2.91,21.98 0.18,1.07 2.367,14.65 1.465,8.07 0.117,0.67 4.629,21.64 0.582,2.82 4.738,19.23 1.247,5.22 4.617,16.58 2.125,7.88 4.25,13.68 3.238,10.78 3.621,10.57 4.594,13.88 2.719,7.27 6.211,17.19 1.523,3.76 8.098,20.7 0.031,0.07 0.172,0.4 9.383,19.73 1.953,4.26 7.988,15.7 4.297,8.75 5.98,11.05 7.004,13.41 3.582,6.25 10.067,18.22 0.8,1.31 2.918,5.01 9.254,13.93 2.68,4.21 10.094,14.47 6.699,9.98 6.277,8.6 11.149,15.86 2.008,2.63 5.812,7.93 8.469,10.05 3.101,3.85 12.043,13.75 8.993,10.7 6.234,6.86 15.137,17.35 0.172,0.18 0.074,0.07 17.254,16.52 7.933,7.94 9.364,8.69 16.281,15.77 0.969,0.86 1.925,1.82 17.293,13.94 9.297,7.83 10.02,7.87 17.363,14.26 2.031,1.41 1.262,0.92 20.269,13.78 14.977,10.68 6.254,4.16 9.18,6.41 13.39,7.82 9.871,6.07 13.547,7.77 17.168,10.37 6.637,3.3 5.73,3.01 19.968,9.81 21.64,11.21 3.94,1.65 4.02,1.79 24,9.98 22.01,9.68 5.99,2.08 7.32,2.72 23.03,7.99 17.63,6.53 13.52,3.81 20.17,6.12 12.46,3.55 7.83,2.41 27.32,6.13 26.65,6.49 9.49,1.58 23.43,4.3 15.25,2.64 5.81,1.1 36.28,4.28 17.69,2.36 27.13,1.79 26.84,2.15 21.64,0.34 32.34,0.92 21.09,-0.67 32.88,-0.67 27.19,-2.1 26.79,-1.79 42.23,-5.03 11.74,-1.29 25.39,-4.03 28.58,-4.81 20.13,-4.3 33.85,-7.02 33.59,-8.33 20.38,-5.37 35.13,-10.54 18.84,-5.58 9.01,-2.96 44.97,-15.7 23.24,-8.76 30.73,-12.33 28.65,-12.13 25.33,-11.43 27.83,-13.02 26.14,-13.07 22.34,-11.39 31.63,-17.23 13.16,-7.23 40.82,-23.95 0.84,-0.51 2.28,-1.42 37.1,-23.03 13.75,-9.14 23.43,-15.32 30.54,-21.38 4.51,-3.08 7.43,-5.42 26.3,-19.04 15.74,-12.24 16.37,-12.21 21.24,-17.05 9.31,-7.41 7.05,-6.05 22.66,-18.41 24.22,-21.25 3.7,-3.2 3.39,-3.19 24.2,-21.27 21.97,-20.93 3.74,-3.54 4.07,-4.18 21.46,-20.28 16.86,-17.37 6.94,-7.08 8.71,-9.75 14.54,-14.71 10.01,-11.13 12.08,-13.33 17.35,-21.16 3.05,-3.3 1.86,-2.22 18.64,-22.23 12.08,-16.15 6.26,-8.31 12.08,-18.21 4.83,-6.25 2.11,-3.15 14.43,-21.3 7.6,-13.14 6.62,-11.32 10.1,-20.7 1.84,-3.76 6.45,-16.21 3.95,-8.26 0.79,-2.14 8.31,-22.3 1.76,-6.73 4.7,-17.74 1.52,-9.53 2.36,-14.93 0.58,-10.86 0.71,-13.6 -0.57,-10.92 -0.72,-13.53 -1.56,-9.9 -2.32,-14.56 -2.07,-7.9 -4.39,-16.56 -1.87,-5.06 -7.23,-19.39 -0.71,-1.48 -3.24,-6.77 -5.46,-13.74 -0.99,-2.47 -8.58,-17.65 -3.36,-6.81 -7.38,-12.78 -6.84,-11.68 -4.98,-7.42 -11.56,-17.03 -1.25,-1.64 -3.58,-4.62 -9.27,-14.01 -2.81,-4.19 -10.58,-14.2 -7.76,-10.26 -6.43,-7.76 -14.07,-16.7 -0.9,-0.98 -2.15,-2.31 -12.6,-15.46 -4.75,-5.7 -10.56,-11.82 -11.53,-12.64 -4.45,-4.57 -10.09,-10.14 -6.17,-6.95 -2.54,-2.8 -13.76,-14.28 -10.04,-10.17 -6.88,-6.62 -14.58,-13.68 -2.8,-2.9 -1.27,-1.26 -16.01,-15.38 -9.7,-9.08 -8.14,-7.27 -16.06,-14 -2.27,-2.16 -1.12,-1.04 -17.14,-15.15 -10.78,-9.29 -8.03,-6.64 -14.63,-11.78 -4.59,-3.96 -2.46,-2.09 -16.83,-13.64 -13.72,-10.82 -6.12,-4.65 -10.25,-7.56 -9.88,-7.77 -5.86,-4.48 -14.54,-10.74 -19.19,-13.71 -1.77,-1.25 -2.74,-1.83 -18.4,-13.04 -12.14,-8.34 -9.48,-6.33 -13.95,-8.99 -8.12,-5.46 -5.63,-3.68 -16.76,-10.63 -22.62,-13.82 -0.36,-0.22 -0.48,-0.29 -22.83,-13.61 -17.99,-10.34 -5.89,-3.3 -7.27,-3.93 -17.09,-9.49 -14.54,-7.74 -10.39,-5.41 -11.95,-5.98 -13.56,-6.93 -12.58,-6.14 -13.54,-6.48 -14.29,-6.55 -12.49,-5.78 -12.84,-5.64 -14.65,-6.36 -14,-5.78 -14.25,-5.87 -16.48,-6.45 -12.56,-4.84 -10.68,-3.92 -19.3,-6.95 -25.67,-8.76 -5.18,-1.73 -3.83,-1.22 -28.26,-8.7 -25.71,-7.42 -7.38,-2.04 -13,-3.35 -21.54,-5.46 -12.05,-2.85 -24.01,-5.26 -29.97,-6.06 -7.62,-1.37 -20.96,-3.44 -18.68,-3.04 -6.71,-0.99 -35.51,-4.34 -18.46,-1.98 -26.51,-2.1 -27.47,-1.79 -21.04,-0.69 -32.93,-0.65 -20.32,0.33 -33.66,0.93 -26.3,1.77 -27.67,2.15 -42.41,5.15 -11.56,1.51 -21.06,3.74 -32.92,5.88 -26.46,6.11 -27.51,6.52 -20.29,5.93 -33.69,9.95 -40.66,14.51 -13.31,4.79 -46.01,19.68 -7.96,3.44 -41.608,21.02 -12.367,6.3 -30.715,18.15 -23.261,13.89 -15.434,10.57 -29.195,20.23 -6.051,4.23 -3.293,2.33 -27.383,22.13 -26.59,21.77 -2.894,2.68 -2.688,2.54 -22.957,21.92 -24.976,24.26 -0.211,0.2 -0.246,0.25 -21.371,24.2 -13.79,15.94 -7.246,8.52 -11.57,13.91 -7.82,10.55 -3.817,5.28 -13.609,19.19 -11.512,16.64" />
            <path
               id="path5163"
               style="fill:none;stroke:#000000;stroke-width:41.625;stroke-linecap:butt;stroke-linejoin:round;stroke-miterlimit:10;stroke-opacity:1;stroke-dasharray:none"
               d="m 3262.92,3790 -6.62,11.32 -10.09,20.7 -1.84,3.76 -6.44,16.21 -3.97,8.25 -0.79,2.15 -8.31,22.3 -1.76,6.72 -4.71,17.74 -1.49,9.53 -2.38,14.93 -0.56,10.87 -0.73,13.58 0.57,10.94 0.72,13.52 1.56,9.91 2.31,14.55 2.09,7.91 4.38,16.56 1.87,5.06 7.23,19.38 0.71,1.49 3.26,6.77 5.44,13.74 1,2.47 8.58,17.64 3.35,6.82 7.38,12.78 6.84,11.68 4.98,7.42 11.56,17.03 1.25,1.62 3.6,4.63 9.25,14.02 2.82,4.19 10.57,14.19 7.75,10.27 6.44,7.76 14.07,16.69 0.9,0.98 2.17,2.32 12.58,15.46 4.75,5.7 10.56,11.82 11.53,12.64 4.45,4.57 10.1,10.14 6.16,6.95 2.54,2.8 13.77,14.28 10.03,10.17 6.89,6.62 14.59,13.66 2.8,2.92 1.25,1.26 16.01,15.36 9.7,9.11 8.14,7.27 16.07,14 2.27,2.15 1.12,1.04 17.13,15.15 10.78,9.3 8.04,6.62 14.63,11.79 4.58,3.96 2.46,2.09 16.83,13.63 13.72,10.83 6.12,4.65 10.27,7.56 9.86,7.77 5.86,4.47 14.55,10.74 19.18,13.72 1.77,1.23 2.75,1.85 18.39,13.04 12.14,8.34 9.49,6.33 13.96,8.99 8.1,5.46 5.63,3.68 16.76,10.63 22.62,13.82 0.36,0.22 0.5,0.29 22.81,13.61 18.01,10.34 5.87,3.3 7.28,3.93 17.08,9.49 14.55,7.74 10.39,5.41 11.96,5.98 13.54,6.93 12.58,6.14 13.55,6.48 14.3,6.54 12.47,5.78 12.84,5.65 14.65,6.36 28.25,11.65 16.48,6.45 12.56,4.85 10.7,3.91 19.3,6.95 25.65,8.75 5.18,1.74 3.84,1.22 28.25,8.7 25.72,7.42 7.37,2.04 13.01,3.33 21.53,5.48 12.07,2.85 24,5.25 29.97,6.07 7.61,1.37 20.96,3.44 18.69,3.04 6.72,0.99 35.5,4.34 18.47,1.98 26.5,2.1 27.48,1.79 21.03,0.69 32.94,0.65 20.31,-0.33 33.66,-0.93 26.29,-1.77 27.69,-2.17 42.4,-5.13 11.57,-1.51 21.05,-3.74 32.92,-5.88 26.46,-6.11 27.52,-6.51 20.28,-5.96 33.69,-9.93 40.65,-14.52 13.32,-4.8 46,-19.66 7.98,-3.44 41.59,-21.02 12.38,-6.31 30.71,-18.14 23.27,-13.89 15.43,-10.57 29.19,-20.23 6.05,-4.23 3.3,-2.33 27.37,-22.13 26.6,-21.77 2.89,-2.68 2.69,-2.54 22.95,-21.92 24.98,-24.26 0.22,-0.2 0.25,-0.25 21.37,-24.21 13.77,-15.93 7.26,-8.52 11.57,-13.9 7.81,-10.56 3.82,-5.28 13.61,-19.18 11.51,-16.66 5.29,-7.79 11.93,-18.14 3.71,-6.32 1.3,-2.28 12.35,-22.19 5.59,-10.4 7.4,-14.06 9.02,-17.83 3.26,-6.62 11.35,-23.99 0.19,-0.47 0.04,-0.11 9.59,-24.35 1.98,-5.36 6.94,-19.1 3.43,-10.05 4.79,-14.4 4.4,-14.22 3.09,-10.24 4.95,-17.86 1.79,-6.6 5.15,-21.01 0.83,-3.44 5.05,-23.67 0.17,-0.79 1.58,-8.74 2.54,-15.72 0.17,-1.24 3.08,-23.23 0.29,-2.74 2.25,-21.7 0.29,-3.91 1.52,-20.56 0.21,-4.68 0.88,-19.78 0.08,-5.11 0.28,-19.35 -0.07,-5.22 -0.29,-19.23 -0.23,-4.99 -0.86,-19.47 -0.34,-4.44 -1.47,-20.02 -0.39,-3.59 -2.15,-20.86 -0.33,-2.48 -2.92,-21.98 -0.18,-1.08 -2.36,-14.64 -1.47,-8.07 -0.11,-0.67 -4.64,-21.64 -0.58,-2.82 -4.73,-19.23 -1.25,-5.22 -4.62,-16.58 -2.12,-7.88 -4.26,-13.7 -3.23,-10.76 -3.62,-10.58 -4.6,-13.88 -2.72,-7.26 -6.2,-17.19 -1.53,-3.76 -8.1,-20.7 -0.03,-0.08 -0.16,-0.4 -9.39,-19.73 -1.96,-4.25 -7.98,-15.7 -4.3,-8.75 -5.98,-11.05 -7.01,-13.41 -3.58,-6.25 -10.07,-18.21 -0.79,-1.33 -2.92,-5 -9.25,-13.93 -2.68,-4.21 -10.1,-14.47 -6.7,-9.97 -6.27,-8.61 -11.16,-15.86 -2.01,-2.63 -5.8,-7.92 -8.48,-10.06 -3.09,-3.85 -12.05,-13.75 -8.98,-10.71 -6.25,-6.85 -15.12,-17.35 -0.19,-0.18 -0.06,-0.07 -17.26,-16.52 -7.94,-7.94 -9.36,-8.69 -16.28,-15.77 -0.97,-0.87 -1.92,-1.81 -17.3,-13.94 -9.3,-7.83 -10.01,-7.87 -17.36,-14.26 -2.04,-1.41 -1.26,-0.92 -20.28,-13.78 -14.96,-10.68 -6.26,-4.16 -9.17,-6.41 -13.39,-7.82 -9.88,-6.07 -13.55,-7.77 -17.16,-10.38 -6.64,-3.3 -5.74,-3 -19.96,-9.81 -21.63,-11.21 -3.96,-1.65 -4.02,-1.79 -23.99,-9.98 -22.01,-9.7 -5.99,-2.06 -7.33,-2.73 -23.03,-7.99 -17.62,-6.52 -13.53,-3.81 -20.16,-6.14 -12.46,-3.54 -7.82,-2.39 -27.32,-6.14 -26.66,-6.49 -9.5,-1.58 -23.42,-4.3 -15.25,-2.64 -5.8,-1.1 -36.3,-4.29 -17.67,-2.37 -27.14,-1.77 -26.84,-2.15 -21.64,-0.33 -32.33,-0.93 -21.09,0.68 -32.88,0.66 -27.2,2.1 -26.78,1.79 -42.25,5.03 -11.72,1.29 -25.41,4.03 -28.57,4.81 -20.14,4.3 -33.83,7.02 -33.6,8.31 -20.38,5.39 -35.14,10.54 -18.83,5.58 -9.02,2.95 -44.95,15.71 -23.26,8.76 -30.72,12.32 -28.66,12.14 -25.31,11.42 -27.85,13.03 -26.12,13.07 -22.35,11.39 -31.63,17.23 -13.15,7.23 -40.82,23.95 -0.86,0.51 -2.28,1.42 -37.1,23.03 -13.73,9.14 -23.45,15.32 -30.53,21.38 -4.52,3.08 -7.43,5.41 -26.3,19.04 -15.72,12.25 -16.39,12.21 -21.24,17.05 -9.31,7.41 -7.04,6.05 -22.67,18.42 -24.22,21.24 -3.69,3.2 -3.39,3.2 -24.21,21.27 -21.96,20.92 -3.75,3.54 -4.05,4.16 -21.48,20.3 -16.86,17.36 -6.94,7.09 -8.7,9.75 -14.55,14.71 -10.01,11.13 -12.08,13.33 -17.33,21.16 -3.07,3.29 -1.84,2.23 -18.67,22.23 -12.07,16.15 -6.25,8.31 -12.07,18.2 -4.85,6.26 -2.11,3.15 -14.43,21.3 -7.6,13.14" />
          </g>
        </g>
        <g
           id="g5165">
          <g
             clip-path="url(#clipPath5169)"
             id="g5167">
            <path
               id="path5173"
               style="fill:none;stroke:#000000;stroke-width:13.875;stroke-linecap:square;stroke-linejoin:miter;stroke-miterlimit:10;stroke-opacity:1;stroke-dasharray:none"
               d="m 5666.75,3948.06 0,-36.07" />
            <path
               id="path5175"
               style="fill:none;stroke:#000000;stroke-width:13.875;stroke-linecap:square;stroke-linejoin:miter;stroke-miterlimit:10;stroke-opacity:1;stroke-dasharray:none"
               d="m 5176.07,3948.06 0,-36.07" />
            <path
               id="path5177"
               style="fill:none;stroke:#000000;stroke-width:13.875;stroke-linecap:square;stroke-linejoin:miter;stroke-miterlimit:10;stroke-opacity:1;stroke-dasharray:none"
               d="m 4930.74,3948.06 0,-36.07" />
            <path
               id="path5179"
               style="fill:none;stroke:#000000;stroke-width:13.875;stroke-linecap:square;stroke-linejoin:miter;stroke-miterlimit:10;stroke-opacity:1;stroke-dasharray:none"
               d="m 4685.4,3948.06 0,-36.07" />
            <path
               id="path5181"
               style="fill:none;stroke:#000000;stroke-width:13.875;stroke-linecap:square;stroke-linejoin:miter;stroke-miterlimit:10;stroke-opacity:1;stroke-dasharray:none"
               d="m 4440.06,3948.06 0,-36.07" />
            <path
               id="path5183"
               style="fill:none;stroke:#000000;stroke-width:13.875;stroke-linecap:square;stroke-linejoin:miter;stroke-miterlimit:10;stroke-opacity:1;stroke-dasharray:none"
               d="m 3949.4,3948.06 0,-36.07" />
            <path
               id="path5185"
               style="fill:none;stroke:#000000;stroke-width:13.875;stroke-linecap:square;stroke-linejoin:miter;stroke-miterlimit:10;stroke-opacity:1;stroke-dasharray:none"
               d="m 3704.06,3948.06 0,-36.07" />
            <path
               id="path5187"
               style="fill:none;stroke:#000000;stroke-width:13.875;stroke-linecap:square;stroke-linejoin:miter;stroke-miterlimit:10;stroke-opacity:1;stroke-dasharray:none"
               d="m 3458.72,3948.06 0,-36.07" />
            <path
               id="path5189"
               style="fill:none;stroke:#000000;stroke-width:13.875;stroke-linecap:square;stroke-linejoin:miter;stroke-miterlimit:10;stroke-opacity:1;stroke-dasharray:none"
               d="m 3213.39,3948.06 0,-36.07" />
            <path
               id="path5191"
               style="fill:none;stroke:#000000;stroke-width:13.875;stroke-linecap:square;stroke-linejoin:miter;stroke-miterlimit:10;stroke-opacity:1;stroke-dasharray:none"
               d="m 2722.73,3948.06 0,-36.07" />
            <path
               id="path5193"
               style="fill:none;stroke:#000000;stroke-width:13.875;stroke-linecap:square;stroke-linejoin:miter;stroke-miterlimit:10;stroke-opacity:1;stroke-dasharray:none"
               d="m 2477.39,3948.06 0,-36.07" />
            <path
               id="path5195"
               style="fill:none;stroke:#000000;stroke-width:13.875;stroke-linecap:square;stroke-linejoin:miter;stroke-miterlimit:10;stroke-opacity:1;stroke-dasharray:none"
               d="m 2232.05,3948.06 0,-36.07" />
            <path
               id="path5197"
               style="fill:none;stroke:#000000;stroke-width:13.875;stroke-linecap:square;stroke-linejoin:miter;stroke-miterlimit:10;stroke-opacity:1;stroke-dasharray:none"
               d="m 1986.71,3948.06 0,-36.07" />
            <path
               id="path5199"
               style="fill:none;stroke:#000000;stroke-width:13.875;stroke-linecap:square;stroke-linejoin:miter;stroke-miterlimit:10;stroke-opacity:1;stroke-dasharray:none"
               d="m 1496.05,3948.06 0,-36.07" />
            <path
               id="path5201"
               style="fill:none;stroke:#000000;stroke-width:13.875;stroke-linecap:square;stroke-linejoin:miter;stroke-miterlimit:10;stroke-opacity:1;stroke-dasharray:none"
               d="m 1250.71,3948.06 0,-36.07" />
            <path
               id="path5203"
               style="fill:none;stroke:#000000;stroke-width:13.875;stroke-linecap:square;stroke-linejoin:miter;stroke-miterlimit:10;stroke-opacity:1;stroke-dasharray:none"
               d="m 1005.38,3948.06 0,-36.07" />
            <path
               id="path5205"
               style="fill:none;stroke:#000000;stroke-width:13.875;stroke-linecap:square;stroke-linejoin:miter;stroke-miterlimit:10;stroke-opacity:1;stroke-dasharray:none"
               d="m 760.047,3948.06 0,-36.07" />
            <path
               id="path5207"
               style="fill:none;stroke:#000000;stroke-width:13.875;stroke-linecap:square;stroke-linejoin:miter;stroke-miterlimit:10;stroke-opacity:1;stroke-dasharray:none"
               d="m 269.375,3948.06 0,-36.07" />
            <path
               id="path5209"
               style="fill:none;stroke:#000000;stroke-width:13.875;stroke-linecap:square;stroke-linejoin:miter;stroke-miterlimit:10;stroke-opacity:1;stroke-dasharray:none"
               d="m 269.375,3948.06 5397.375,0" />
          </g>
        </g>
        <g
           id="g5211">
          <g
             clip-path="url(#clipPath5215)"
             id="g5213">
            <path
               id="path5219"
               style="fill:#000000;fill-opacity:1;fill-rule:nonzero;stroke:none"
               d="m 4296.59,3549.16 c 2.89,-3.03 5.05,-6.14 6.5,-9.31 1.16,-2.03 2.9,-7.53 5.2,-16.49 l 7.81,11.49 c 2.03,2.9 4.51,5.61 7.48,8.13 2.96,2.53 5.52,4.31 7.7,5.32 1.44,0.58 3.02,0.86 4.76,0.86 2.46,0 4.46,-0.68 5.97,-2.06 1.51,-1.37 2.27,-2.99 2.27,-4.88 0,-2.31 -0.43,-3.9 -1.3,-4.76 -1.59,-1.44 -3.47,-2.18 -5.64,-2.18 -1.3,0 -2.59,0.29 -3.89,0.88 -2.75,0.86 -4.64,1.3 -5.64,1.3 -1.45,0 -3.11,-0.8 -4.99,-2.39 -3.61,-3.03 -7.95,-8.96 -13,-17.77 l 7.14,-30.14 c 1.17,-4.63 2.1,-7.41 2.82,-8.35 0.74,-0.94 1.52,-1.4 2.38,-1.4 1.17,0 2.61,0.64 4.35,1.94 3.18,2.75 5.92,6.29 8.24,10.63 l 3.02,-1.53 c -3.75,-6.93 -8.45,-12.71 -14.08,-17.34 -3.17,-2.59 -5.92,-3.9 -8.24,-3.9 -3.33,0 -5.92,1.89 -7.81,5.63 -1.29,2.32 -3.83,12.14 -7.58,29.49 -9.25,-15.89 -16.62,-26.09 -22.11,-30.57 -3.63,-3.02 -7.09,-4.55 -10.41,-4.55 -2.32,0 -4.48,0.88 -6.51,2.61 -1.3,1.29 -1.96,3.02 -1.96,5.2 0,1.87 0.66,3.47 1.96,4.76 1.31,1.31 2.89,1.96 4.77,1.96 1.88,0 3.84,-0.95 5.86,-2.82 1.58,-1.3 2.82,-1.96 3.68,-1.96 0.58,0 1.44,0.45 2.61,1.31 2.74,2.32 6.5,7.16 11.26,14.53 4.77,7.36 7.88,12.72 9.33,16.04 -3.61,14.3 -5.57,21.82 -5.86,22.54 -1.29,3.9 -3.02,6.65 -5.2,8.25 -2.17,1.59 -5.41,2.38 -9.76,2.38 -1.3,0 -2.81,-0.07 -4.55,-0.22 l 0,3.26 23.42,4.11" />
          </g>
        </g>
        <g
           id="g5221">
          <g
             clip-path="url(#clipPath5225)"
             id="g5223">
            <path
               id="path5229"
               style="fill:none;stroke:#000000;stroke-width:13.875;stroke-linecap:square;stroke-linejoin:miter;stroke-miterlimit:10;stroke-opacity:1;stroke-dasharray:none"
               d="m 514.711,3948.06 0,-72.15" />
          </g>
        </g>
        <g
           id="g5231">
          <g
             clip-path="url(#clipPath5235)"
             id="g5233">
            <path
               id="path5239"
               style="fill:#000000;fill-opacity:1;fill-rule:nonzero;stroke:none"
               d="m 438.691,3740.81 119.238,0 0,9.3242 -119.238,0 0,-9.3242 z" />
          </g>
        </g>
        <g
           id="g5241">
          <g
             clip-path="url(#clipPath5245)"
             id="g5243">
            <path
               id="path5249"
               style="fill:#000000;fill-opacity:1;fill-rule:nonzero;stroke:none"
               d="m 554.246,3799.13 29.051,14.1 2.816,0 0,-100.82 c 0,-6.65 0.289,-10.81 0.867,-12.46 0.579,-1.66 1.735,-2.93 3.469,-3.8 1.735,-0.86 5.278,-1.38 10.625,-1.51 l 0,-3.26 -44.879,0 0,3.26 c 5.637,0.13 9.289,0.65 10.95,1.51 1.664,0.87 2.82,2.03 3.468,3.47 0.653,1.44 0.977,5.71 0.977,12.79 l 0,64.39 c 0,8.81 -0.289,14.45 -0.867,16.9 -0.434,1.89 -1.192,3.26 -2.278,4.12 -1.082,0.88 -2.422,1.31 -4.011,1.31 -2.168,0 -5.129,-0.95 -8.887,-2.82 l -1.301,2.82" />
            <path
               id="path5251"
               style="fill:none;stroke:#000000;stroke-width:13.875;stroke-linecap:square;stroke-linejoin:miter;stroke-miterlimit:10;stroke-opacity:1;stroke-dasharray:none"
               d="m 1741.38,3948.06 0,-72.15" />
          </g>
        </g>
        <g
           id="g5253">
          <g
             clip-path="url(#clipPath5257)"
             id="g5255">
            <path
               id="path5261"
               style="fill:#000000;fill-opacity:1;fill-rule:nonzero;stroke:none"
               d="m 1604.19,3740.81 119.227,0 0,9.3242 -119.227,0 0,-9.3242 z" />
          </g>
        </g>
        <g
           id="g5263">
          <g
             clip-path="url(#clipPath5267)"
             id="g5265">
            <path
               id="path5271"
               style="fill:#000000;fill-opacity:1;fill-rule:nonzero;stroke:none"
               d="m 1704.99,3750.34 c 0,13.6 2.07,25.34 6.19,35.25 4.11,9.89 9.57,17.23 16.36,21.99 5.35,3.76 10.85,5.65 16.48,5.65 9.11,0 17.28,-4.64 24.49,-13.88 9.12,-11.57 13.67,-27.25 13.67,-47.05 0,-13.87 -1.98,-25.66 -5.97,-35.34 -3.96,-9.68 -9.07,-16.73 -15.27,-21.13 -6.22,-4.41 -12.14,-6.62 -17.79,-6.62 -11.42,0 -20.95,6.73 -28.61,20.16 -6.37,11.42 -9.55,25.09 -9.55,40.97 z m 17.35,-2.16 c 0,-16.47 2.02,-29.91 6.07,-40.32 3.32,-8.67 8.32,-13.02 14.96,-13.02 3.18,0 6.47,1.42 9.87,4.23 3.4,2.82 5.96,7.64 7.7,14.42 2.73,9.98 4.1,24.21 4.1,42.71 0,13.58 -1.44,24.93 -4.33,34.03 -2.02,6.81 -4.77,11.57 -8.24,14.32 -2.3,1.88 -5.2,2.82 -8.67,2.82 -3.9,0 -7.44,-1.73 -10.61,-5.2 -4.21,-4.92 -7.05,-12.62 -8.58,-23.09 -1.51,-10.48 -2.27,-20.79 -2.27,-30.9 z m 76.1,-86.93 0,3.9 c 6.06,2.03 10.73,5.14 13.97,9.33 3.27,4.18 4.89,8.67 4.89,13.43 0,1.01 -0.23,1.95 -0.66,2.83 -0.43,0.43 -0.85,0.64 -1.3,0.64 -0.57,0 -1.94,-0.58 -4.11,-1.74 -1.16,-0.43 -2.31,-0.64 -3.46,-0.64 -2.9,0 -5.18,0.82 -6.84,2.48 -1.66,1.67 -2.49,4.02 -2.49,7.06 0,2.88 1.08,5.34 3.25,7.36 2.16,2.03 4.84,3.04 8.02,3.04 3.9,0 7.36,-1.66 10.4,-4.98 3.04,-3.33 4.55,-7.81 4.55,-13.44 0,-6.08 -2.09,-11.72 -6.28,-16.92 -4.19,-5.2 -10.84,-9.32 -19.94,-12.35 z m 113.6,149.59 -6.94,-14.96 -35.77,0 -7.8,-16.05 c 15.46,-2.31 27.75,-8.09 36.85,-17.35 7.8,-7.93 11.71,-17.34 11.71,-28.18 0,-6.35 -1.27,-12.21 -3.8,-17.55 -2.52,-5.35 -5.74,-9.9 -9.64,-13.66 -3.9,-3.77 -8.24,-6.72 -13.02,-8.88 -6.64,-3.33 -13.58,-5 -20.81,-5 -7.07,0 -12.25,1.24 -15.5,3.69 -3.24,2.46 -4.87,5.14 -4.87,8.02 0,1.74 0.68,3.22 2.06,4.44 1.37,1.24 3.06,1.85 5.09,1.85 1.44,0 2.75,-0.23 3.9,-0.66 1.16,-0.42 3.11,-1.66 5.85,-3.67 4.49,-3.04 8.97,-4.57 13.45,-4.57 6.93,0 12.97,2.61 18.11,7.82 5.13,5.2 7.68,11.55 7.68,19.07 0,7.23 -2.3,13.95 -6.94,20.16 -4.61,6.22 -10.97,11.06 -19.08,14.53 -6.49,2.59 -15.24,4.12 -26.22,4.55 l 22.98,46.4 42.71,0" />
            <path
               id="path5273"
               style="fill:none;stroke:#000000;stroke-width:13.875;stroke-linecap:square;stroke-linejoin:miter;stroke-miterlimit:10;stroke-opacity:1;stroke-dasharray:none"
               d="m 2968.06,3948.06 0,-72.15" />
            <path
               id="path5275"
               style="fill:#000000;fill-opacity:1;fill-rule:nonzero;stroke:none"
               d="m 2856.62,3778.09 c 0,13.6 2.07,25.34 6.19,35.25 4.1,9.89 9.57,17.23 16.35,21.99 5.36,3.76 10.86,5.65 16.49,5.65 9.1,0 17.27,-4.64 24.49,-13.88 9.11,-11.57 13.66,-27.25 13.66,-47.05 0,-13.87 -1.98,-25.66 -5.96,-35.34 -3.97,-9.68 -9.07,-16.73 -15.28,-21.13 -6.21,-4.41 -12.14,-6.62 -17.79,-6.62 -11.41,0 -20.95,6.73 -28.61,20.16 -6.36,11.42 -9.54,25.09 -9.54,40.97 z m 17.34,-2.16 c 0,-16.47 2.03,-29.91 6.08,-40.32 3.32,-8.67 8.31,-13.02 14.96,-13.02 3.18,0 6.46,1.42 9.86,4.23 3.4,2.82 5.97,7.64 7.7,14.42 2.74,9.98 4.11,24.21 4.11,42.71 0,13.58 -1.44,24.93 -4.33,34.03 -2.02,6.81 -4.77,11.57 -8.24,14.32 -2.3,1.88 -5.21,2.82 -8.67,2.82 -3.9,0 -7.44,-1.73 -10.62,-5.2 -4.2,-4.92 -7.04,-12.62 -8.57,-23.09 -1.51,-10.48 -2.28,-20.79 -2.28,-30.9" />
            <path
               id="path5277"
               style="fill:none;stroke:#000000;stroke-width:13.875;stroke-linecap:square;stroke-linejoin:miter;stroke-miterlimit:10;stroke-opacity:1;stroke-dasharray:none"
               d="m 4194.74,3948.06 0,-72.15" />
            <path
               id="path5279"
               style="fill:#000000;fill-opacity:1;fill-rule:nonzero;stroke:none"
               d="m 4091.49,3750.34 c 0,13.6 2.07,25.34 6.19,35.25 4.11,9.89 9.57,17.23 16.36,21.99 5.35,3.76 10.85,5.65 16.48,5.65 9.11,0 17.28,-4.64 24.49,-13.88 9.12,-11.57 13.67,-27.25 13.67,-47.05 0,-13.87 -1.98,-25.66 -5.97,-35.34 -3.96,-9.68 -9.07,-16.73 -15.27,-21.13 -6.22,-4.41 -12.14,-6.62 -17.79,-6.62 -11.42,0 -20.95,6.73 -28.61,20.16 -6.37,11.42 -9.55,25.09 -9.55,40.97 z m 17.35,-2.16 c 0,-16.47 2.02,-29.91 6.07,-40.32 3.32,-8.67 8.32,-13.02 14.96,-13.02 3.18,0 6.47,1.42 9.87,4.23 3.4,2.82 5.96,7.64 7.7,14.42 2.73,9.98 4.1,24.21 4.1,42.71 0,13.58 -1.44,24.93 -4.33,34.03 -2.02,6.81 -4.77,11.57 -8.24,14.32 -2.3,1.88 -5.2,2.82 -8.67,2.82 -3.9,0 -7.44,-1.73 -10.61,-5.2 -4.21,-4.92 -7.05,-12.62 -8.58,-23.09 -1.51,-10.48 -2.27,-20.79 -2.27,-30.9 z m 76.1,-86.93 0,3.9 c 6.06,2.03 10.73,5.14 13.97,9.33 3.27,4.18 4.89,8.67 4.89,13.43 0,1.01 -0.23,1.95 -0.66,2.83 -0.43,0.43 -0.85,0.64 -1.3,0.64 -0.57,0 -1.94,-0.58 -4.11,-1.74 -1.16,-0.43 -2.31,-0.64 -3.46,-0.64 -2.9,0 -5.18,0.82 -6.84,2.48 -1.66,1.67 -2.49,4.02 -2.49,7.06 0,2.88 1.08,5.34 3.25,7.36 2.16,2.03 4.84,3.04 8.02,3.04 3.9,0 7.36,-1.66 10.4,-4.98 3.04,-3.33 4.55,-7.81 4.55,-13.44 0,-6.08 -2.09,-11.72 -6.28,-16.92 -4.19,-5.2 -10.84,-9.32 -19.94,-12.35 z m 113.6,149.59 -6.94,-14.96 -35.77,0 -7.8,-16.05 c 15.46,-2.31 27.75,-8.09 36.85,-17.35 7.8,-7.93 11.71,-17.34 11.71,-28.18 0,-6.35 -1.27,-12.21 -3.8,-17.55 -2.52,-5.35 -5.74,-9.9 -9.64,-13.66 -3.9,-3.77 -8.24,-6.72 -13.02,-8.88 -6.64,-3.33 -13.58,-5 -20.81,-5 -7.07,0 -12.25,1.24 -15.5,3.69 -3.24,2.46 -4.87,5.14 -4.87,8.02 0,1.74 0.68,3.22 2.06,4.44 1.37,1.24 3.06,1.85 5.09,1.85 1.44,0 2.75,-0.23 3.9,-0.66 1.16,-0.42 3.11,-1.66 5.85,-3.67 4.49,-3.04 8.97,-4.57 13.45,-4.57 6.93,0 12.97,2.61 18.11,7.82 5.13,5.2 7.68,11.55 7.68,19.07 0,7.23 -2.3,13.95 -6.94,20.16 -4.61,6.22 -10.97,11.06 -19.08,14.53 -6.49,2.59 -15.24,4.12 -26.22,4.55 l 22.98,46.4 42.71,0" />
            <path
               id="path5281"
               style="fill:none;stroke:#000000;stroke-width:13.875;stroke-linecap:square;stroke-linejoin:miter;stroke-miterlimit:10;stroke-opacity:1;stroke-dasharray:none"
               d="m 5421.41,3948.06 0,-72.15" />
            <path
               id="path5283"
               style="fill:#000000;fill-opacity:1;fill-rule:nonzero;stroke:none"
               d="m 5396.62,3799.13 29.05,14.1 2.82,0 0,-100.82 c 0,-6.65 0.29,-10.81 0.86,-12.46 0.58,-1.66 1.73,-2.93 3.47,-3.8 1.73,-0.86 5.27,-1.38 10.63,-1.51 l 0,-3.26 -44.89,0 0,3.26 c 5.65,0.13 9.3,0.65 10.95,1.51 1.66,0.87 2.83,2.03 3.47,3.47 0.65,1.44 0.98,5.71 0.98,12.79 l 0,64.39 c 0,8.81 -0.29,14.45 -0.87,16.9 -0.43,1.89 -1.2,3.26 -2.28,4.12 -1.08,0.88 -2.41,1.31 -4.01,1.31 -2.16,0 -5.13,-0.95 -8.88,-2.82 l -1.3,2.82" />
            <path
               id="path5285"
               style="fill:none;stroke:#000000;stroke-width:13.875;stroke-linecap:square;stroke-linejoin:miter;stroke-miterlimit:10;stroke-opacity:1;stroke-dasharray:none"
               d="m 2968.06,2725.18 -36.07,0" />
            <path
               id="path5287"
               style="fill:none;stroke:#000000;stroke-width:13.875;stroke-linecap:square;stroke-linejoin:miter;stroke-miterlimit:10;stroke-opacity:1;stroke-dasharray:none"
               d="m 2968.06,3214.34 -36.07,0" />
            <path
               id="path5289"
               style="fill:none;stroke:#000000;stroke-width:13.875;stroke-linecap:square;stroke-linejoin:miter;stroke-miterlimit:10;stroke-opacity:1;stroke-dasharray:none"
               d="m 2968.06,3703.49 -36.07,0" />
            <path
               id="path5291"
               style="fill:none;stroke:#000000;stroke-width:13.875;stroke-linecap:square;stroke-linejoin:miter;stroke-miterlimit:10;stroke-opacity:1;stroke-dasharray:none"
               d="m 2968.06,4192.65 -36.07,0" />
            <path
               id="path5293"
               style="fill:none;stroke:#000000;stroke-width:13.875;stroke-linecap:square;stroke-linejoin:miter;stroke-miterlimit:10;stroke-opacity:1;stroke-dasharray:none"
               d="m 2968.06,4681.8 -36.07,0" />
            <path
               id="path5295"
               style="fill:none;stroke:#000000;stroke-width:13.875;stroke-linecap:square;stroke-linejoin:miter;stroke-miterlimit:10;stroke-opacity:1;stroke-dasharray:none"
               d="m 2968.06,5170.96 -36.07,0" />
            <path
               id="path5297"
               style="fill:none;stroke:#000000;stroke-width:13.875;stroke-linecap:square;stroke-linejoin:miter;stroke-miterlimit:10;stroke-opacity:1;stroke-dasharray:none"
               d="m 2968.06,2725.18 0,2445.78" />
          </g>
        </g>
        <g
           id="g5299">
          <g
             clip-path="url(#clipPath5303)"
             id="g5301">
            <path
               id="path5307"
               style="fill:#000000;fill-opacity:1;fill-rule:nonzero;stroke:none"
               d="m 2323.96,4575.91 c 2.02,-3.47 3.38,-6.68 4.12,-9.65 0.72,-2.95 1.51,-8.78 2.37,-17.45 l 3.69,-43.36 c 3.61,4.19 8.74,10.92 15.39,20.16 3.19,4.48 7.16,10.56 11.93,18.22 2.89,4.62 4.69,7.88 5.41,9.75 0.29,1.01 0.45,2.03 0.45,3.04 0,0.57 -0.23,1.08 -0.66,1.51 -0.43,0.43 -1.52,0.94 -3.26,1.53 -1.73,0.57 -3.13,1.58 -4.21,3.02 -1.08,1.45 -1.63,3.18 -1.63,5.21 0,2.31 0.68,4.23 2.06,5.74 1.37,1.53 3.15,2.28 5.31,2.28 2.59,0 4.8,-1.09 6.61,-3.25 1.81,-2.16 2.71,-5.13 2.71,-8.89 0,-4.63 -1.59,-9.94 -4.77,-15.93 -3.18,-6 -9.28,-15.14 -18.31,-27.43 -9.04,-12.28 -19.98,-25.73 -32.86,-40.32 -8.81,-9.98 -15.39,-16.29 -19.72,-18.97 -4.34,-2.68 -8.03,-4.01 -11.05,-4.01 -1.89,0 -3.52,0.72 -4.89,2.16 -1.37,1.44 -2.05,3.04 -2.05,4.78 0,2.31 0.97,4.41 2.93,6.28 1.94,1.87 4.01,2.82 6.17,2.82 1.15,0 2.16,-0.29 3.04,-0.86 0.43,-0.29 0.93,-1.13 1.51,-2.5 0.58,-1.37 1.08,-2.27 1.51,-2.7 0.29,-0.3 0.65,-0.45 1.1,-0.45 0.28,0 0.86,0.29 1.73,0.88 3.32,2.02 7.08,5.2 11.27,9.53 5.63,5.78 9.82,10.49 12.57,14.09 l -4.98,55.73 c -0.72,9.24 -1.91,14.88 -3.58,16.9 -1.66,2.02 -4.44,3.03 -8.34,3.03 -1.3,0 -3.55,-0.2 -6.73,-0.65 l -0.65,3.26 25.81,6.5" />
          </g>
        </g>
        <g
           id="g5309">
          <g
             clip-path="url(#clipPath5313)"
             id="g5311">
            <path
               id="path5317"
               style="fill:none;stroke:#000000;stroke-width:13.875;stroke-linecap:square;stroke-linejoin:miter;stroke-miterlimit:10;stroke-opacity:1;stroke-dasharray:none"
               d="m 2968.06,2969.75 -72.15,0" />
          </g>
        </g>
        <g
           id="g5319">
          <g
             clip-path="url(#clipPath5323)"
             id="g5321">
            <path
               id="path5327"
               style="fill:#000000;fill-opacity:1;fill-rule:nonzero;stroke:none"
               d="m 2533.82,2949.94 119.227,0 0,9.3242 -119.227,0 0,-9.3242 z" />
          </g>
        </g>
        <g
           id="g5329">
          <g
             clip-path="url(#clipPath5333)"
             id="g5331">
            <path
               id="path5337"
               style="fill:#000000;fill-opacity:1;fill-rule:nonzero;stroke:none"
               d="m 2634.62,2959.47 c 0,13.6 2.07,25.33 6.19,35.24 4.1,9.9 9.57,17.24 16.35,21.99 5.36,3.76 10.86,5.65 16.49,5.65 9.1,0 17.27,-4.64 24.49,-13.87 9.11,-11.58 13.66,-27.25 13.66,-47.05 0,-13.88 -1.98,-25.66 -5.96,-35.34 -3.97,-9.69 -9.07,-16.74 -15.28,-21.14 -6.21,-4.41 -12.14,-6.61 -17.79,-6.61 -11.41,0 -20.95,6.73 -28.61,20.16 -6.36,11.41 -9.54,25.08 -9.54,40.97 z m 17.34,-2.17 c 0,-16.46 2.03,-29.91 6.08,-40.32 3.32,-8.67 8.31,-13.01 14.96,-13.01 3.18,0 6.46,1.41 9.86,4.23 3.4,2.82 5.97,7.63 7.7,14.42 2.74,9.97 4.11,24.21 4.11,42.7 0,13.59 -1.44,24.94 -4.33,34.04 -2.02,6.8 -4.77,11.57 -8.24,14.32 -2.3,1.87 -5.21,2.82 -8.67,2.82 -3.9,0 -7.44,-1.74 -10.62,-5.21 -4.2,-4.91 -7.04,-12.61 -8.57,-23.09 -1.51,-10.47 -2.28,-20.78 -2.28,-30.9 z m 76.11,-86.92 0,3.9 c 6.06,2.02 10.72,5.13 13.97,9.32 3.26,4.19 4.88,8.67 4.88,13.43 0,1.01 -0.22,1.96 -0.65,2.83 -0.43,0.43 -0.86,0.64 -1.31,0.64 -0.56,0 -1.94,-0.57 -4.1,-1.73 -1.16,-0.43 -2.32,-0.64 -3.47,-0.64 -2.9,0 -5.18,0.82 -6.84,2.48 -1.65,1.67 -2.48,4.01 -2.48,7.05 0,2.89 1.08,5.34 3.24,7.37 2.17,2.02 4.85,3.04 8.02,3.04 3.9,0 7.37,-1.67 10.41,-4.98 3.04,-3.34 4.55,-7.82 4.55,-13.45 0,-6.08 -2.09,-11.71 -6.29,-16.91 -4.18,-5.21 -10.83,-9.33 -19.93,-12.35 z m 119.22,74.13 0,-12.57 -16.04,0 0,-31.44 -14.52,0 0,31.44 -50.51,0 0,11.28 55.5,79.13 9.53,0 0,-77.84 16.04,0 z m -30.56,0 0,59.42 -41.84,-59.42 41.84,0" />
            <path
               id="path5339"
               style="fill:none;stroke:#000000;stroke-width:13.875;stroke-linecap:square;stroke-linejoin:miter;stroke-miterlimit:10;stroke-opacity:1;stroke-dasharray:none"
               d="m 2968.06,3458.91 -72.15,0" />
          </g>
        </g>
        <g
           id="g5341">
          <g
             clip-path="url(#clipPath5345)"
             id="g5343">
            <path
               id="path5349"
               style="fill:#000000;fill-opacity:1;fill-rule:nonzero;stroke:none"
               d="m 2533.82,3449.44 119.227,0 0,9.3242 -119.227,0 0,-9.3242 z" />
          </g>
        </g>
        <g
           id="g5351">
          <g
             clip-path="url(#clipPath5355)"
             id="g5353">
            <path
               id="path5359"
               style="fill:#000000;fill-opacity:1;fill-rule:nonzero;stroke:none"
               d="m 2634.62,3458.97 c 0,13.6 2.07,25.33 6.19,35.24 4.1,9.9 9.57,17.24 16.35,21.99 5.36,3.76 10.86,5.65 16.49,5.65 9.1,0 17.27,-4.64 24.49,-13.87 9.11,-11.58 13.66,-27.25 13.66,-47.05 0,-13.88 -1.98,-25.66 -5.96,-35.34 -3.97,-9.69 -9.07,-16.74 -15.28,-21.14 -6.21,-4.41 -12.14,-6.61 -17.79,-6.61 -11.41,0 -20.95,6.73 -28.61,20.16 -6.36,11.41 -9.54,25.08 -9.54,40.97 z m 17.34,-2.17 c 0,-16.46 2.03,-29.91 6.08,-40.32 3.32,-8.67 8.31,-13.01 14.96,-13.01 3.18,0 6.46,1.41 9.86,4.23 3.4,2.82 5.97,7.63 7.7,14.42 2.74,9.97 4.11,24.21 4.11,42.7 0,13.59 -1.44,24.94 -4.33,34.04 -2.02,6.8 -4.77,11.57 -8.24,14.32 -2.3,1.87 -5.21,2.82 -8.67,2.82 -3.9,0 -7.44,-1.74 -10.62,-5.21 -4.2,-4.91 -7.04,-12.61 -8.57,-23.09 -1.51,-10.47 -2.28,-20.78 -2.28,-30.9 z m 76.11,-86.92 0,3.9 c 6.06,2.02 10.72,5.13 13.97,9.32 3.26,4.19 4.88,8.67 4.88,13.43 0,1.01 -0.22,1.96 -0.65,2.83 -0.43,0.43 -0.86,0.64 -1.31,0.64 -0.56,0 -1.94,-0.57 -4.1,-1.73 -1.16,-0.43 -2.32,-0.64 -3.47,-0.64 -2.9,0 -5.18,0.82 -6.84,2.48 -1.65,1.67 -2.48,4.01 -2.48,7.05 0,2.89 1.08,5.34 3.24,7.37 2.17,2.02 4.85,3.04 8.02,3.04 3.9,0 7.37,-1.67 10.41,-4.98 3.04,-3.34 4.55,-7.82 4.55,-13.45 0,-6.08 -2.09,-11.71 -6.29,-16.91 -4.18,-5.21 -10.83,-9.33 -19.93,-12.35 z m 117.93,53.11 -8.24,-22.99 -70.46,0 0,3.26 c 20.66,18.93 35.24,34.4 43.68,46.4 8.47,11.99 12.68,22.91 12.68,32.73 0,7.66 -2.3,13.91 -6.93,18.76 -4.62,4.83 -10.19,7.26 -16.69,7.26 -5.77,0 -11.02,-1.7 -15.72,-5.1 -4.69,-3.4 -8.14,-8.42 -10.3,-15.06 l -3.25,0 c 1.45,10.83 5.21,19.14 11.27,24.93 6.08,5.77 13.67,8.67 22.77,8.67 9.69,0 17.77,-3.11 24.28,-9.32 6.51,-6.22 9.75,-13.52 9.75,-21.9 0,-6.08 -1.44,-12.14 -4.32,-18.22 -4.35,-9.53 -11.35,-19.57 -21.04,-30.13 -14.59,-16.04 -23.78,-25.73 -27.53,-29.04 l 31.22,0 c 6.36,0 10.79,0.25 13.32,0.74 2.54,0.52 4.85,1.49 6.94,2.93 2.11,1.45 3.87,3.47 5.31,6.08 l 3.26,0" />
            <path
               id="path5361"
               style="fill:none;stroke:#000000;stroke-width:13.875;stroke-linecap:square;stroke-linejoin:miter;stroke-miterlimit:10;stroke-opacity:1;stroke-dasharray:none"
               d="m 2968.06,3948.06 -72.15,0" />
            <path
               id="path5363"
               style="fill:none;stroke:#000000;stroke-width:13.875;stroke-linecap:square;stroke-linejoin:miter;stroke-miterlimit:10;stroke-opacity:1;stroke-dasharray:none"
               d="m 2968.06,4437.23 -72.15,0" />
            <path
               id="path5365"
               style="fill:#000000;fill-opacity:1;fill-rule:nonzero;stroke:none"
               d="m 2634.62,4430.22 c 0,13.6 2.07,25.33 6.19,35.24 4.1,9.9 9.57,17.24 16.35,21.99 5.36,3.76 10.86,5.65 16.49,5.65 9.1,0 17.27,-4.64 24.49,-13.87 9.11,-11.58 13.66,-27.25 13.66,-47.05 0,-13.88 -1.98,-25.66 -5.96,-35.34 -3.97,-9.69 -9.07,-16.74 -15.28,-21.14 -6.21,-4.41 -12.14,-6.61 -17.79,-6.61 -11.41,0 -20.95,6.73 -28.61,20.16 -6.36,11.41 -9.54,25.08 -9.54,40.97 z m 17.34,-2.17 c 0,-16.46 2.03,-29.91 6.08,-40.32 3.32,-8.67 8.31,-13.01 14.96,-13.01 3.18,0 6.46,1.41 9.86,4.23 3.4,2.82 5.97,7.63 7.7,14.42 2.74,9.97 4.11,24.21 4.11,42.7 0,13.59 -1.44,24.94 -4.33,34.04 -2.02,6.8 -4.77,11.57 -8.24,14.32 -2.3,1.87 -5.21,2.82 -8.67,2.82 -3.9,0 -7.44,-1.74 -10.62,-5.21 -4.2,-4.91 -7.04,-12.61 -8.57,-23.09 -1.51,-10.47 -2.28,-20.78 -2.28,-30.9 z m 76.11,-86.92 0,3.9 c 6.06,2.02 10.72,5.13 13.97,9.32 3.26,4.19 4.88,8.67 4.88,13.43 0,1.01 -0.22,1.96 -0.65,2.83 -0.43,0.43 -0.86,0.64 -1.31,0.64 -0.56,0 -1.94,-0.57 -4.1,-1.73 -1.16,-0.43 -2.32,-0.64 -3.47,-0.64 -2.9,0 -5.18,0.82 -6.84,2.48 -1.65,1.67 -2.48,4.01 -2.48,7.05 0,2.89 1.08,5.34 3.24,7.37 2.17,2.02 4.85,3.04 8.02,3.04 3.9,0 7.37,-1.67 10.41,-4.98 3.04,-3.34 4.55,-7.82 4.55,-13.45 0,-6.08 -2.09,-11.71 -6.29,-16.91 -4.18,-5.21 -10.83,-9.33 -19.93,-12.35 z m 117.93,53.11 -8.24,-22.99 -70.46,0 0,3.26 c 20.66,18.93 35.24,34.4 43.68,46.4 8.47,11.99 12.68,22.91 12.68,32.73 0,7.66 -2.3,13.91 -6.93,18.76 -4.62,4.83 -10.19,7.26 -16.69,7.26 -5.77,0 -11.02,-1.7 -15.72,-5.1 -4.69,-3.4 -8.14,-8.42 -10.3,-15.06 l -3.25,0 c 1.45,10.83 5.21,19.14 11.27,24.93 6.08,5.77 13.67,8.67 22.77,8.67 9.69,0 17.77,-3.11 24.28,-9.32 6.51,-6.22 9.75,-13.52 9.75,-21.9 0,-6.08 -1.44,-12.14 -4.32,-18.22 -4.35,-9.53 -11.35,-19.57 -21.04,-30.13 -14.59,-16.04 -23.78,-25.73 -27.53,-29.04 l 31.22,0 c 6.36,0 10.79,0.25 13.32,0.74 2.54,0.52 4.85,1.49 6.94,2.93 2.11,1.45 3.87,3.47 5.31,6.08 l 3.26,0" />
            <path
               id="path5367"
               style="fill:none;stroke:#000000;stroke-width:13.875;stroke-linecap:square;stroke-linejoin:miter;stroke-miterlimit:10;stroke-opacity:1;stroke-dasharray:none"
               d="m 2968.06,4926.39 -72.15,0" />
            <path
               id="path5369"
               style="fill:#000000;fill-opacity:1;fill-rule:nonzero;stroke:none"
               d="m 2634.62,4929.72 c 0,13.6 2.07,25.33 6.19,35.24 4.1,9.9 9.57,17.24 16.35,21.99 5.36,3.76 10.86,5.65 16.49,5.65 9.1,0 17.27,-4.64 24.49,-13.87 9.11,-11.58 13.66,-27.25 13.66,-47.05 0,-13.88 -1.98,-25.66 -5.96,-35.34 -3.97,-9.69 -9.07,-16.74 -15.28,-21.14 -6.21,-4.41 -12.14,-6.61 -17.79,-6.61 -11.41,0 -20.95,6.73 -28.61,20.16 -6.36,11.41 -9.54,25.08 -9.54,40.97 z m 17.34,-2.17 c 0,-16.46 2.03,-29.91 6.08,-40.32 3.32,-8.67 8.31,-13.01 14.96,-13.01 3.18,0 6.46,1.41 9.86,4.23 3.4,2.82 5.97,7.63 7.7,14.42 2.74,9.97 4.11,24.21 4.11,42.7 0,13.59 -1.44,24.94 -4.33,34.04 -2.02,6.8 -4.77,11.57 -8.24,14.32 -2.3,1.87 -5.21,2.82 -8.67,2.82 -3.9,0 -7.44,-1.74 -10.62,-5.21 -4.2,-4.91 -7.04,-12.61 -8.57,-23.09 -1.51,-10.47 -2.28,-20.78 -2.28,-30.9 z m 76.11,-86.92 0,3.9 c 6.06,2.02 10.72,5.13 13.97,9.32 3.26,4.19 4.88,8.67 4.88,13.43 0,1.01 -0.22,1.96 -0.65,2.83 -0.43,0.43 -0.86,0.64 -1.31,0.64 -0.56,0 -1.94,-0.57 -4.1,-1.73 -1.16,-0.43 -2.32,-0.64 -3.47,-0.64 -2.9,0 -5.18,0.82 -6.84,2.48 -1.65,1.67 -2.48,4.01 -2.48,7.05 0,2.89 1.08,5.34 3.24,7.37 2.17,2.02 4.85,3.04 8.02,3.04 3.9,0 7.37,-1.67 10.41,-4.98 3.04,-3.34 4.55,-7.82 4.55,-13.45 0,-6.08 -2.09,-11.71 -6.29,-16.91 -4.18,-5.21 -10.83,-9.33 -19.93,-12.35 z m 119.22,74.13 0,-12.57 -16.04,0 0,-31.44 -14.52,0 0,31.44 -50.51,0 0,11.28 55.5,79.13 9.53,0 0,-77.84 16.04,0 z m -30.56,0 0,59.42 -41.84,-59.42 41.84,0" />
          </g>
        </g>
      </g>
    </g>
  </g>
</svg>
