<?xml version="1.0" encoding="UTF-8" standalone="no"?>
<svg
   xmlns:dc="http://purl.org/dc/elements/1.1/"
   xmlns:cc="http://creativecommons.org/ns#"
   xmlns:rdf="http://www.w3.org/1999/02/22-rdf-syntax-ns#"
   xmlns:svg="http://www.w3.org/2000/svg"
   xmlns="http://www.w3.org/2000/svg"
   viewBox="0 0 602.59003 602.59003"
   height="602.59003"
   width="602.59003"
   xml:space="preserve"
   id="svg5773"
   version="1.1"><metadata
     id="metadata5779"><rdf:RDF><cc:Work
         rdf:about=""><dc:format>image/svg+xml</dc:format><dc:type
           rdf:resource="http://purl.org/dc/dcmitype/StillImage" /><dc:title></dc:title></cc:Work></rdf:RDF></metadata><defs
     id="defs5777" /><g
     transform="matrix(1.3333333,0,0,-1.3333333,0,602.59005)"
     id="g5781"><path
       d="M 225.961,449.72 C 102.398,449.72 2.25,349.544 2.25,225.982 2.25,102.415 102.398,2.247 225.961,2.247 c 123.562,0 223.73,100.168 223.73,223.735 0,123.562 -100.168,223.73 -223.73,223.73 z"
       style="fill:#ffffff;fill-opacity:1;fill-rule:nonzero;stroke:none"
       id="path5785" /><path
       d="M 225.961,450.095 C 102.195,450.095 1.875,349.751 1.875,225.982 c 0,-123.766 100.32,-224.11 224.086,-224.11 123.762,0 224.105,100.344 224.105,224.11 0,123.64 -100.14,223.89 -223.73,224.097 v 0.016 z m 0,-0.375 v -0.008 c 123.562,0 223.73,-100.168 223.73,-223.73 C 449.691,102.415 349.523,2.247 225.961,2.247 102.398,2.247 2.25,102.415 2.25,225.982 2.25,349.544 102.398,449.72 225.961,449.72 Z"
       style="fill:#000000;fill-opacity:1;fill-rule:nonzero;stroke:none"
       id="path5787" /><path
       d="M 225.961,443.177 C 106.012,443.177 8.789,345.935 8.789,225.986 8.789,106.032 106.012,8.794 225.961,8.794 c 119.949,0 217.191,97.238 217.191,217.192 0,119.949 -97.242,217.191 -217.191,217.191 z"
       style="fill:#ab2524;fill-opacity:1;fill-rule:nonzero;stroke:none"
       id="path5789" /><path
       d="m 26.4275,258.5615 h 399.086 v -65.152 H 26.4275 Z"
       style="fill:#ffffff;fill-opacity:1;fill-rule:nonzero;stroke:none;stroke-width:0.99999994"
       id="path2385" /></g></svg>