<?xml version="1.0" encoding="utf-8"?>
<!-- Generator: Adobe Illustrator 14.0.0, SVG Export Plug-In . SVG Version: 6.00 Build 43363)  -->
<!DOCTYPE svg PUBLIC "-//W3C//DTD SVG 1.1//EN" "http://www.w3.org/Graphics/SVG/1.1/DTD/svg11.dtd" [
	<!ENTITY ns_extend "http://ns.adobe.com/Extensibility/1.0/">
	<!ENTITY ns_ai "http://ns.adobe.com/AdobeIllustrator/10.0/">
	<!ENTITY ns_graphs "http://ns.adobe.com/Graphs/1.0/">
	<!ENTITY ns_vars "http://ns.adobe.com/Variables/1.0/">
	<!ENTITY ns_imrep "http://ns.adobe.com/ImageReplacement/1.0/">
	<!ENTITY ns_sfw "http://ns.adobe.com/SaveForWeb/1.0/">
	<!ENTITY ns_custom "http://ns.adobe.com/GenericCustomNamespace/1.0/">
	<!ENTITY ns_adobe_xpath "http://ns.adobe.com/XPath/1.0/">
]>
<svg version="1.1"
	 id="svg2843" xmlns:x="&ns_extend;" xmlns:i="&ns_ai;" xmlns:graph="&ns_graphs;" xmlns:svg="http://www.w3.org/2000/svg"
	 xmlns="http://www.w3.org/2000/svg" xmlns:xlink="http://www.w3.org/1999/xlink" x="0px" y="0px" width="720px" height="640px"
	 viewBox="0 0 720 640" enable-background="new 0 0 720 640" xml:space="preserve">
<metadata>
	<sfw  xmlns="&ns_sfw;">
		<slices></slices>
		<sliceSourceBounds  height="610.844" width="700.125" x="-52.422" y="-92.822" bottomLeftOrigin="true"></sliceSourceBounds>
	</sfw>
</metadata>
<g id="Kreise" transform="translate(-216,-468.5469)">
	<path id="line1" fill="none" stroke="#A02020" stroke-linejoin="round" d="M345.24,499.46l0.72,23.99l5.761,3.119h7.439l0.72,4.08
		 M250.44,525.85l22.56,26.4v30"/>
	<path id="_x32_4" fill="#ECECEC" stroke="#A02020" stroke-linejoin="round" d="M360.123,530.654l-3.603,1.677L351,536.17l2.88,5.04
		l-0.72,1.2l-5.04-0.721h-1.92l-3.84,0.721l-1.2,0.479l-2.16,8.4l0.96,1.199l0.48,6.48l-1.44,1.92l2.4,2.4l6.96-2.88l2.399-0.48
		l4.08-0.479l6.96-0.961l10.561-0.96l1.68,6l-2.16,2.16l3.841,8.16l-0.24,6.96l8.399-2.16l0.96,3.84l-1.92,0.48l0.48,3.36l5.76,0.72
		l5.04,14.88l-12,3.36l-7.2,3.12l-2.64,0.72l-8.88,0.24l-7.44-4.32l-2.64,0.72l-5.521-4.319l-6,1.439l-4.319,3.36l-6.721-2.641
		l-7.92,1.681l-0.955,6.24l-10.809-2.655l-27.594-1.906l-3.844-5.531l2.406-4.562l3.125-24.219l3.594-4.812l-2.656-6.969
		l1.938-0.469l4.562,3.125l3.344,5.031l6.719-6.938l-2.156-4.344l-6.469-4.781l0.469-2.156l13.438-13.688l8.656-6.25l10.562-3.125
		l22.562,0.969l5.281,3.125L360.123,530.654z M337.562,515.531l-4.312,1.688l0.719,1.438l10.062,1.188l-0.938-3.344L337.562,515.531
		z M309.25,517.438l-6.719,2.906l1.906,3.094l16.094-1.188l11.031-2.875l-2.156-1.938H309.25z M286.687,525.625l-20.406,1.906
		l-0.969,0.969l3.594,1.188l12-2.156l15.125,0.25l0.25-1.219L286.687,525.625z M267.969,531.844l-4.344,1.938l0.75,3.594
		l2.375,1.438l1.938-0.469l1.438-4.094L267.969,531.844z"/>
	<path id="_x32_5_1_" fill="#ECECEC" stroke="#A02020" stroke-linejoin="round" d="M321.965,611.531l0.955-6.24l0,0l7.92-1.681
		l6.721,2.641l4.319-3.36l6-1.439l5.521,4.319l2.64-0.72l7.44,4.32l8.88-0.24l2.64-0.72l7.2-3.12l12-3.36l2.64,3.12l5.28-3.12
		l1.68,5.76l-5.279,13.2l-7.92,7.44l-8.88,6.239l-4.801,3.841l2.16,8.88l-6.96-0.24v0.479l-3.84-1.92l0.24,8.641l-5.28,20.88
		l2.16,1.68l11.76,8.641v0.239l0.72,11.521l0.48,0.479l3.84,4.8l10.08,4.08l0.96,1.92l-1.68,3.36l-4.32,5.76l-7.44,4.561l-3.84,1.92
		l-3.12,10.08l-1.199,2.16l-7.681,0.72l-4.8,1.92l-6.24,4.56l-3.6,0.48l-4.08,2.64l-3.6,0.721l-4.801,1.199l-2.64-6l-5.76,1.2
		l-2.88,3.36l-2.88-0.24L321,743.53l-8.64-2.159l-1.44,0.96l1.92,0.479l-2.159,2.16l-6,3.6l-10.801,0.96l-1.199,8.4l4.079,0.48
		l3.601,9.119l-8.4,1.44l-1.92,10.319l2.4,3.36l-4.32-0.24l-5.28-3.84l-3.119-0.72L279,780.01l-1.439-5.04l-5.521,2.64l1.68-7.676
		l5.03,1.691l1.938-2.406l2.875-25.938l1.188-12.938l3.375-6.25l-0.719-3.125l4.781-6.469l5.062-7.688l4.312-6.469l3.125-9.625
		l2.406-5.5l-1.688-17.062l0.719-7.906l-2.656-2.156L303,654.25l5.75-13.188l-0.469-11.281l2.625-3.375l1.219-6.969l1.906-7.438
		l7.438,0.25L321.965,611.531z M248.031,539.281l-13.438,4.094l0.719,5.031l6,4.562l5.531,0.719L248.75,552l7.219-7.438
		l-1.219-1.688L248.031,539.281z"/>
	<path id="_x32_6" fill="#ECECEC" stroke="#A02020" stroke-linejoin="round" d="M406.437,504.031l-4.812,1.188l2.656,3.594
		l1.438-3.344l12.969,3.344l-3.594-3.344L406.437,504.031z M381,506.406l-4.812,4.312l2.188,2.406l1.906-2.875l8.406,0.469
		l8.625-1.656l-4.062-2.188L381,506.406z M351.469,510.969l-3.844,4.094l1.688,4.562l4.094-2.406l1.688-2.875l15.812-0.25v-1.219
		l-4.781-1.656L351.469,510.969z M447.72,595.45l0.72,9.6l-4.08,3.12l-6.96,5.52l-7.2-3.359l-6,5.04l-0.24,2.399l-8.64,1.2
		l-1.2-3.36l-4.08-4.08l-6.24-3.84l-1.68-5.76l-5.28,3.12l-2.64-3.12l-5.04-14.88l-5.76-0.72l-0.48-3.36l1.92-0.48l-0.96-3.84
		l-8.399,2.16l0.24-6.96l-3.841-8.16l2.16-2.16l-1.68-6l-10.561,0.96l-6.96,0.961l-4.08,0.479l-2.399,0.48l-6.96,2.88l-2.4-2.4
		l1.44-1.92l-0.48-6.48L339,551.29l2.16-8.4l1.2-0.479l3.84-0.721h1.92l5.04,0.721l0.72-1.2l-2.88-5.04l5.521-3.84l3.603-1.677
		l7.189-2.653l18.25-2.625l10.312-2.406l14.156-1.188l13.938,1.906l2.625,1.688l-1.438,4.781l2.406,10.344l4.312-1.219l2.406,2.156
		l10.562,24l-1.438,4.344l-2.156,0.938l-7.938,2.906L429,571.688l0.719,8.156l0.719,1.438l3.844,5.281l3.125-1.688l3.844,0.5
		l6.469,10.062"/>
	<path id="_x32_7" fill="#ECECEC" stroke="#A02020" stroke-linejoin="round" d="M425.16,676.57l3.12-6.96l8.4-4.08h6.239l2.88,4.08
		l4.08,2.16l7.92-3.12l-0.239-1.68l1.68-6.24l3.36-5.04l-2.641-6.479l1.681-1.92l1.68-1.92l-2.64-9.841l-2.16,0.721l-1.2-11.28
		l-2.4-3.84l-5.76-1.2l-5.28-4.32l-0.96-4.319l1.44-3.12l-6.96,5.52l-7.2-3.359l-6,5.04l-0.24,2.399l-8.64,1.2l-1.2-3.36l-4.08-4.08
		l-6.24-3.84l-5.279,13.2l-7.92,7.44l-8.88,6.239l-4.801,3.841l2.16,8.88l4.32,1.68l6-1.2l3.84,0.96l5.04,3.84l-2.16,4.08l6,7.681
		l2.4-2.4l5.279,7.92l2.4,0.48L425.16,676.57z"/>
	<path id="_x32_8" fill="#ECECEC" stroke="#A02020" stroke-linejoin="round" d="M497.875,571.438l-0.719-1.188l0.969-2.625
		l-0.5-1.688l-4.312-2.656l-6-0.719l-12.469-5.281l-4.812-7.656l-3.125-2.188l-5.75,0.969l-6,6.719l-1.906,14.156l4.781,0.969
		l4.812-1.906l1.906,2.156l0.5,4.062l-1.219,10.562l-3.125,7.219l-4.312,5.031l-4.062,0.469l-4.812-2.4l0.721,9.606l-4.08,3.12
		l-1.44,3.12l0.96,4.319l5.28,4.32l5.76,1.2l2.4,3.84l1.2,11.28l2.16-0.721l2.64,9.841l-1.68,1.92l-1.681,1.92l2.641,6.479
		l-3.36,5.04l-1.68,6.24l0.239,1.68l-7.92,3.12l-4.08-2.16l-2.88-4.08h-6.239l-8.4,4.08l-3.12,6.96l7.2,10.32l2.88,4.32l-1.68,7.439
		l0.96,8.88l11.52,12.24l3.84,2.16l3.601-1.2l10.319-1.92l3.36,7.44l3.12-0.721l3.84,1.921l-1.439,5.279l10.8,0.721l-1.92,5.039
		l2.88,0.961l5.28-1.681l4.319-3.12l-0.96-2.88l2.88-0.72l10.561-3.6l0.72-10.08l2.16-5.521l5.28,0.96l-0.48-10.32l-4.32-1.199
		l-1.68-5.761l2.4-5.04l4.56-6.96l3.121-1.192l-0.25-7.462l-7.656-7.906l-4.562-13.688l-6.5-2.156l-8.875-5.5l-3.344-5.781
		l-0.252-2.4l-0.241-2.153l1.68-10.08l1.68-17.76v-1.44l-0.239-7.92l-0.24-12.24l1.439-8.64l6.96-5.76"/>
	<path id="_x32_9" fill="#ECECEC" stroke="#A02020" stroke-linejoin="round" d="M497.878,571.444l-6.958,5.767l-1.439,8.64
		l0.24,12.24l0.239,7.92l2.16,10.08l-1.92,7.2l4.32,1.68l1.68,0.48l2.4-2.881l4.56,2.16l8.88,1.681l2.16-3.12l6.96-2.4l4.32-3.84
		l1.92-0.24l-0.72-2.16l-1.921-5.52l3.36-3.601l2.16-1.439l1.439-2.4l4.801-0.479l5.279-0.721l5.761,3.601l-0.721-2.16l6.721-5.04
		l-6.24-6.479l6-4.561l2.399,0.72l-3.6-12.479l-6.24-2.64l10.08-2.4l1.2-1.68l2.16-4.561l3.12,0.48l5.279-2.88l2.641-0.96
		l6.479,3.84l3.36-7.44l0.48-1.2l0.72,0.24l0.96,1.68l0.479,6.96l3.601,5.521l8.64-1.68l1.68-1.92l1.921,0.239l1.199,5.521l7.2-2.4
		l1.2-6l2.4-1.439l2.159-1.2l1.681-5.521l4.8-7.439l-3.12-5.28l15.356-9.838l-2.9-3.842l-8.625-7.688l-6.469-13.188l-0.719-1.688
		l-0.469-1.188l-3.844-5.531l-1.219-1.906l-1.438-2.406l-8.625-5.031l-3.625-1.438l-4.312-0.719l-3.125,0.219l-21.344-0.219
		l-4.094,1.438l3.844,8.875l-8.875-0.719l-7.188,2.156l-10.562-1.188l-6.25-0.719l-3.594-2.188l-6.5-4.781l-3.594-6.469
		l-9.594,2.156l-6.969,8.156l-2.375,6l-5.062,17.969l-0.719,1.688l-2.625,6.25l-1.438,5.531v6.719l3.125,7.656l1.438,4.094
		l8.156,1.906l6.219-1.438l4.094,0.969l-4.812,6l4.344,14.156l-1.938,3.125l-4.062,4.312l-4.562-0.469l-1.219-0.969l1.219-2.156
		L497.878,571.444z"/>
	<path id="_x33_0" fill="#ECECEC" stroke="#A02020" stroke-linejoin="round" d="M547.56,604.09l-0.48,1.439l4.561,1.921v5.76
		l2.88,2.16l1.68-1.2l3.36,5.28l-1.2,1.92l1.439,6.96l-0.96,1.68l4.32,5.52l0.24,3.36l0.24,9.12l4.319,5.28l1.44,4.8l5.28,1.68
		l5.039-5.76l3.12-1.68l1.2-1.92l1.44-2.4l1.2-3.6l4.319-0.48l-0.72,4.32l4.08,2.399l4.56-0.239l4.32-1.44l0.96,2.88l3.12,0.96
		l2.88-2.64v-5.521l5.52-2.16l5.761-6.239l3.6,2.88l6.23-1.68l2.88-1.681l1.92-0.72l7.92-1.68l-0.96-4.08l1.439-4.32l-2.16-2.88
		l-0.72-1.92l-1.68-3.84l-0.72-0.721l-0.48-0.479l5.76-7.44l2.16,0.24l0.72-5.28l2.88-1.199l0.961-3.12l4.319-0.48l0.24-0.24
		l6-2.399l1.92-3.601l6-0.479l-1.44-9.36l-4.8-2.64l4.315-3.125l-0.473-8.38l0.969-0.75l0.219-2.375l-6-0.969l-7.656-1.688
		l-5.781-4.062l-2.625-1.438l-3.125-1.938l-5.75-4.562l-1.938-3.344l-2.156-10.094l-1.912-4.314L616.2,541.93l3.12,5.28l-4.8,7.439
		l-1.681,5.521l-2.159,1.2l-2.4,1.439l-1.2,6l-7.2,2.4l-1.199-5.521l-1.921-0.239l-1.68,1.92l-8.64,1.68l-3.601-5.521l-0.479-6.96
		l-0.96-1.68l-0.72-0.24l-0.48,1.2l-3.36,7.44l-6.479-3.84l-2.641,0.96l-5.279,2.88l-3.12-0.48l-2.16,4.561l-1.2,1.68l-10.08,2.4
		l6.24,2.64l3.6,12.479l-2.399-0.72l-6,4.561l6.24,6.479l-6.721,5.04L547.56,604.09z"/>
	<path id="_x33_1" fill="#ECECEC" stroke="#A02020" stroke-linejoin="round" d="M371.4,764.17l0.72,3.84l-5.52,3.359l-6.48,5.28
		l-0.72,2.4l1.68,7.2l-1.2,2.64l0.48,8.16l-2.16,9.84l-0.006,4.799l-6.476,9.843l5.531,2.625l-0.25,1.469l-2.875,2.625l-0.969,6.469
		l-5.031,1.688l-1.219-0.719l-0.719,0.25l-0.938,0.469l-8.875,5.75l-3.625,1.688l-1.656,4.312l-6.719,1.938l-2.188,2.875
		l-5.281,2.656H315l-2.875,3.812l-11.531-0.719h-0.969h-0.219l-12.5,0.25l-3.344,4.312l-4.812,0.25l-3.344-3.844l-1.938-7.438
		l7.219-14.625l0.219-5.062L279,827.281l-3.125-1.656l-3.344-6.5l-1.438-6.25l-2.906-2.375l-4.562,6.469l-12.219-3.844l-0.969-1.906
		l-11.281-0.5l-4.312-2.156l-0.469-0.469l-5.781-4.812l0.719-4.562l0.5-2.625l-3.125-8.156l5.5,0.719l6.719-2.156l-6.219-6.5
		l1.188-6l-2.156-3.125l7.188-4.781l8.188,0.469h11.281l3.094,2.656l5.062,0.469l3.094-1.438l4.095,1.684l-1.68,7.676l5.521-2.64
		l1.439,5.04l0.721-2.16l3.119,0.72l5.28,3.84l4.32,0.24l-2.4-3.36l1.92-10.319l8.4-1.44l-3.601-9.119l-4.079-0.48l1.199-8.4
		l10.801-0.96l6-3.6l2.159-2.16l-1.92-0.479l1.44-0.96l8.64,2.159l1.681,3.36l2.88,0.24l2.88-3.36l5.76-1.2l2.64,6l4.801-1.199
		l3.6-0.721l4.08-2.64l3.6-0.48l6.24-4.56l4.8-1.92l7.681-0.72l3.84,7.439l-9.601,6.24l-1.92,2.88L371.4,764.17"/>
	<path id="_x33_2" fill="#ECECEC" stroke="#A02020" stroke-linejoin="round" d="M371.64,736.33l1.199-2.16l3.12-10.08l3.84-1.92
		l7.44-4.561l4.32-5.76l1.68-3.36l-0.96-1.92l-10.08-4.08l-3.84-4.8l-0.48-0.479l-0.72-11.521v-0.239l-11.76-8.641l-2.16-1.68
		l5.28-20.88l-0.24-8.641l3.84,1.92v-0.479l6.96,0.24l4.32,1.68l6-1.2l3.84,0.96l5.04,3.84l-2.16,4.08l6,7.681l2.4-2.4l5.279,7.92
		l2.4,0.48l12.96,6.239l7.2,10.32l2.88,4.32l-1.68,7.439l0.96,8.88l11.52,12.24l3.84,2.16l3.601-1.2l10.319-1.92l3.36,7.44
		l3.12-0.721l3.84,1.921l-1.439,5.279l10.8,0.721l-1.92,5.039l-1.44,3.36l2.64,7.92l0.24,4.32l-3.6,2.64l-5.76,0.24l-3.36,2.16
		l-6.96,5.76l-3.36-0.24l-2.64,8.64l1.439,10.08l0.961,6l3.6,2.641l0.72,6.479l-4.8,1.92L459,807.13l-0.479,1.439l-9.601,4.32
		l-5.279-0.24l-4.08,6.96l-2.641,4.08l-8.88-3.36l-5.28,0.48l-0.72-3.6l1.2-0.24l0.24-10.08l-6.721-6.72l4.32-4.801l-0.24-8.64
		l2.4-1.2l2.16-0.96l1.2-6l-0.96-4.8l-2.881-1.68l-2.399-5.04l-2.16-2.64l-6.24-2.641l-7.92,3.12l-8.88-6.96l-7.2,1.92l-6,5.04
		l-10.56-0.72l-7.44-11.28l1.92-2.88l9.601-6.24L371.64,736.33z"/>
	<path id="_x33_3" fill="#ECECEC" stroke="#A02020" stroke-linejoin="round" d="M603,750.25l1.44-2.16l-1.92-1.44l-1.681-1.68
		l0.24-3.36l-15.6-5.04l2.64-12.479l-0.96-1.68l-3.6-2.4l-1.44-5.28l-0.96,3.601l-6.24-0.721l-5.76-3.12l-0.24-0.96L567,711.37
		l-7.92-0.48l-3.12,8.4l-4.08-0.24l-3.12-8.64l-3.359-8.4l0.479-4.8l3.36-2.16l-0.72-4.08l-1.434-0.475l-13.931-3.12l-5.531-3.844
		l-0.938-3.375l-1.938,3.375l-3.344,1.188l-3.125-2.382l-3.121,1.192l-4.56,6.96l-2.4,5.04l1.68,5.761l4.32,1.199l0.48,10.32
		l-5.28-0.96l-2.16,5.521l-0.72,10.08l-10.561,3.6l-2.88,0.72l0.96,2.88l-4.319,3.12l-5.28,1.681l-2.88-0.961l-1.44,3.36l2.64,7.92
		l0.24,4.32l-3.6,2.64l-5.76,0.24l-3.36,2.16l-6.96,5.76l-3.36-0.24l-2.64,8.64l1.439,10.08l0.961,6l3.6,2.641l0.72,6.479l-4.8,1.92
		L459,807.13l-0.479,1.439l-0.48,5.04l-1.443,5.043l10.31,2.879l3.625-0.969l2.875,0.969l5.75-3.375l0.969-6.938l6.719-5.281
		l7.438,3.125l13.438-6.969l7.188,7.438l-0.219,13.188l2.156,3.625l-2.156,7.906h1.688l1.188-1.438l2.875,3.125l4.312-1.688
		l1.688-0.719l9.375,2.406l5.281-1.438l1.188-1.938l3.344,0.25l2.406,0.25l8.882-12.727l-0.473-5.526l-7.2-4.32l1.2-8.88l0.72-2.399
		l-2.88-6l-5.28-3.841l0.48-2.159l-4.08-2.16v-2.4l2.16-3.12l3.84-0.24l7.68-4.319l1.44,0.72l6-4.08l-0.96-4.8l2.64-1.439
		l-3.12-4.32l0.96-1.44l3.601-0.479l12.96-3.84l1.199,1.439l9.601-2.399l2.16-1.2l4.319,0.72l4.801-6l1.199,1.68l-1.92,5.28
		l2.4,3.12l1.2-0.24l-0.96-7.68l0.479-1.2l0.24,0.24L603,750.25z"/>
	<path id="_x33_4" fill="#ECECEC" stroke="#A02020" stroke-linejoin="round" d="M489.96,606.01v1.44l-1.68,17.76l-1.68,10.08
		l0.241,2.153l10.064,5.994l2.656,2.406l0.969,1.438l1.656,1.688l3.844,0.969l5.281,0.938l2.156-0.219l5.781-0.719l4.781,4.062
		l3.594,1.688l1.219-0.969h6l5.281,7.438l11.5-4.531l5.281,6.219L551.875,666l2.875,3.625l3.125,1.188l-4.312,2.406l2.406,9.344
		l-8.882,7.933l1.434,0.475l0.72,4.08l-3.36,2.16l-0.479,4.8l3.359,8.4l3.12,8.64l4.08,0.24l3.12-8.4l7.92,0.48l1.92,2.159
		l0.24,0.96l5.76,3.12l6.24,0.721l0.96-3.601l1.44,5.28l3.6,2.4l0.96,1.68l-2.64,12.479l15.6,5.04l-0.24,3.36l1.681,1.68l1.92,1.44
		l4.56-7.68l-3.84-3.12l1.92-2.88l6.48-1.44l-1.681-5.04l5.28-5.76l0.24-3.36l5.52-5.52l1.44-12l-0.96-4.801l-2.88-3.119
		l-2.88,1.199l-6.48,2.881l-4.8-0.721l1.92-3.84l-1.44-2.4l-2.64-0.479l-4.32-2.88l-4.319-0.96l-5.28-2.4l-2.64,1.44l-6.24-12.96
		l1.92-3.601l1.92-13.439l1.44-1.44l-2.641-3.359l-1.2,1.92l-3.12,1.68l-5.039,5.76l-5.28-1.68l-1.44-4.8l-4.319-5.28l-0.24-9.12
		l-0.24-3.36l-4.32-5.52l0.96-1.68l-1.439-6.96l1.2-1.92l-3.36-5.28l-1.68,1.2l-2.88-2.16v-5.76l-4.561-1.921l0.48-1.439
		l-5.761-3.601l-5.279,0.721l-4.801,0.479l-1.439,2.4l-2.16,1.439l-3.36,3.601l1.921,5.52l0.72,2.16l-1.92,0.24l-4.32,3.84
		l-6.96,2.4l-2.16,3.12l-8.88-1.681l-4.56-2.16l-2.4,2.881l-1.68-0.48l-4.32-1.68l1.92-7.2L489.96,606.01z"/>
	<path id="_x33_5" fill="#ECECEC" stroke="#A02020" stroke-linejoin="round" d="M662.269,778.81l1.44-7.2l-2.16-1.92l0.72-4.8
		l3.601-4.32l-1.2-3.84l11.521-3.12l-0.721-16.08l0.96-3.6l3.36-2.4l-2.4-7.68l3.36-6.479l2.64-0.96l1.44,3.359l2.88,0.48h0.48
		l4.079-0.721l1.44,3.841l6.24,0.239l8.399-5.279l1.681-2.16l4.08,0.479l5.04-2.64l3.84-5.04l4.08,1.68v1.681l6.479-3.12l-1.92-4.32
		l-1.2-12.479l-3.359-1.681l-4.801,0.24l-0.239-3.12l8.88,0.48l-0.96-10.08l-1.681-0.24l-0.239-2.16l-3.12,0.72l-3.12,4.32l-1.2,2.4
		l-10.8,0.72l-3.84-2.16l-0.24-1.439l10.8-11.04l-5.76-5.28l-3.84-5.28l-7.44-1.92l0.24-3.6l-5.76-1.44l-3.36,1.68h-2.88l-3.6-5.04
		l-5.521-3.359l-2.16,0.96l-3.359,3.6l-6.24-1.2l-5.04-4.56l-2.88-0.479l-3.36-0.721l-1.92-0.24l-0.96-0.239l-4.32-0.96l-3.359-4.08
		l-0.721-3.36l-0.239-0.479l-7.92,1.68l-1.92,0.72l-2.88,1.681l-6.23,1.68l-3.6-2.88l-5.761,6.239l-5.52,2.16v5.521l-2.88,2.64
		l-3.12-0.96l-0.96-2.88l-4.32,1.44l-4.56,0.239l-4.08-2.399l0.72-4.32l-4.319,0.48l-1.2,3.6l-1.44,2.4l2.641,3.359l-1.44,1.44
		l-1.92,13.439l-1.92,3.601l6.24,12.96l2.64-1.44l5.28,2.4l4.319,0.96l4.32,2.88l2.64,0.479l1.44,2.4l-1.92,3.84l4.8,0.721
		l6.48-2.881l2.88-1.199l2.88,3.119l0.96,4.801l-1.44,12l-5.52,5.52l-0.24,3.36l-5.28,5.76l1.681,5.04l-6.48,1.44l-1.92,2.88
		l3.84,3.12l-4.56,7.68l-1.44,2.16l3.36,1.68l1.439,6l-4.08,1.2l3.601,1.439l3.36-4.8l4.319,0.96l8.641,0.96l2.63,0.24v5.04
		l4.319,0.96v5.28l3.12,4.319l0.721-2.64l7.439-0.96l-0.72,2.64l2.88,4.08l7.92,3.36l-2.88-0.24l-0.96,1.92l3.359,5.76l6.48-0.239
		l1.2-7.44l2.64-0.48L662.269,778.81z"/>
	<path id="_x33_6" fill="#ECECEC" stroke="#A02020" stroke-linejoin="round" d="M644.03,633.37l-0.96-4.08l1.439-4.32l-2.16-2.88
		l-0.72-1.92l-1.68-3.84l-0.72-0.721l-0.48-0.479l5.76-7.44l2.16,0.24l0.72-5.28l2.88-1.199l0.961-3.12l4.319-0.48l0.24-0.24
		l6-2.399l1.92-3.601l6-0.479l-1.44-9.36l-4.8-2.64l4.315-3.125l12.965,17.526l5.031-6.469l3.375,4.781L687,596.875l2.625-0.938
		l4.812-1.688l3.344,2.875l6.25-4.781l3.125-6.719l4.062,2.375l3.844,6.25l5.281,2.875l3.594,4.094l8.188,0.469l4.312-5.531
		l6.719-3.344l3.594,1.906l5.281-0.219l3.594,3.125l4.562,3.094l5.527,2.898l-3.604,5.992l-2.88,1.2l-7.44-3.359l0.479,1.68
		l-1.92,0.96h-4.8l-0.24,1.92l-2.88,4.32l-9.84,3.84l-2.64,5.28l1.68,1.439l4.561-0.72l0.239,0.479l-2.88,4.08l2.641,2.4
		l-0.96,1.439l-5.521,0.721l-0.72,3.84l4.08,9.84l-6.96,2.64l-2.4-1.92l-7.92,4.561l-0.24,0.479l-0.24,2.641l-4.56,6.72l-3.84-5.28
		l-7.44-1.92l0.24-3.6l-5.76-1.44l-3.36,1.68h-2.88l-3.6-5.04l-5.521-3.359l-2.16,0.96l-3.359,3.6l-6.24-1.2l-5.04-4.56l-2.88-0.479
		l-3.36-0.721l-1.92-0.24l-0.96-0.239l-4.32-0.96l-3.359-4.08l-0.721-3.36L644.03,633.37z"/>
	<path id="_x33_7" fill="#ECECEC" stroke="#A02020" stroke-linejoin="round" d="M729.95,678.25l9.12-6.48l5.279,1.44l4.561-6.24
		l5.04,0.48l2.64-5.761l-1.92-0.96l2.88-2.399l4.8-4.08l4.08-3.84l5.04-4.08l6.96,6.72l1.681-1.2l2.159,1.92l3.12-4.8l7.2,0.48
		l0.24,2.88l-4.32,0.96l0.24,2.64l8.88,2.88l0.72,1.44l2.16-0.48l5.76,5.04l2.881,6.48l8.399,4.319l0.96,7.681l4.32,1.68l0.24,4.08
		l2.64,0.24l0.24,4.56l-6.72,4.32l0.239,1.439l2.4,10.561l-2.64-0.72l-5.28,8.159l5.274,10.554l9.369-0.726l3.125,0.25l7.906-6.969
		l0.719-5.5l3.125-0.969l9.844-0.719l0.969-0.25l0.469,3.375l2.406,0.969l6.469-2.656l8.656,1.688l1.906,1.688l4.812,2.375
		l3.594-1.906l3.594,2.406l9.594-5.781l3.594-0.938l3.125-3.375l0.969-1.188l0.969-0.719l3.594-2.656l4.812-0.719l-1.219-8.156
		l1.938-7.438l6.219,1.906l5.531-8.875l-7.688-3.844l-5.281,0.969l-3.844-3.594l-3.344-3.125l-4.812,0.969l-5.75,2.875l-5.531,1.906
		l-1.688-1.656l-1.438-1.938L879,668.875l-0.25-4.312l-5.75-5.5l-0.719-0.25l-3.844,1.906l-3.594-5.031l3.094-3.844l0.25-1.188
		L860.031,648v-2.375L852.594,642l-6.719-11.031l-4.312-5.281l-3.125-10.562l-5.781-0.25l-2.625-3.094h-1.688l-5.281,6l-1.438-0.969
		l0.25,2.406l-4.562,2.875l-4.562-2.156l-5.531-3.375L807,614.156l-8.656-7.188l-6.719,0.25h-0.469l-7.688,1.438h-0.25l-0.938,0.719
		l-8.406-2.156h-1.438l-6.723-3.602l-3.604,5.992l-2.88,1.2l-7.44-3.359l0.479,1.68l-1.92,0.96h-4.8l-0.24,1.92l-2.88,4.32
		l-9.84,3.84l-2.64,5.28l1.68,1.439l4.561-0.72l0.239,0.479l-2.88,4.08l2.641,2.4l-0.96,1.439l-5.521,0.721l-0.72,3.84l4.08,9.84
		l-6.96,2.64l-2.4-1.92l-7.92,4.561l-0.24,0.479l-0.24,2.641l-4.56,6.72l5.76,5.28l-10.8,11.04l0.24,1.439l3.84,2.16l10.8-0.72
		l1.2-2.4l3.12-4.32l3.12-0.72l0.239,2.16L729.95,678.25z"/>
	<path id="_x33_8" fill="#ECECEC" stroke="#A02020" stroke-linejoin="round" d="M358.194,811.689l0.006-4.799l2.16-9.84l-0.48-8.16
		l1.2-2.64l-1.68-7.2l0.72-2.4l6.48-5.28l5.52-3.359l-0.72-3.84l10.56,0.72l6-5.04l7.2-1.92l8.88,6.96l7.92-3.12l6.24,2.641
		l2.16,2.64l2.399,5.04l2.881,1.68l0.96,4.8l-1.2,6l-2.16,0.96l-2.4,1.2l0.24,8.64l-4.32,4.801l6.721,6.72l-0.24,10.08l-1.2,0.24
		l0.72,3.6l5.28-0.48l8.88,3.36l2.641-4.08l4.08-6.96l5.279,0.24l9.601-4.32l-0.48,5.04l-1.443,5.043l1.935,11.504l11.281,6
		l7.188,5.062l2.625,10.562l-0.219,9.594l0.469,1.906l-3.594,12.5l4.562,4.562l6,2.375l-5.75,6.25l-3.844,0.719l-6,4.312
		l-0.25,4.812l-5.75,0.469l-6.5-3.125l-8.156-1.438l-0.719,2.406l-2.406-0.25l-6.719,7.688l-3.844,3.375h-6l-5.281,3.344l-5.5-2.625
		l-1.938,1.188l-1.906-1.188l-7.438,7.188l-9.125-4.062l0.469-1.219l-5.031-6.219l10.812-4.812l1.906-2.406l5.281,0.25L412.687,888
		l2.156-0.719l-0.002-3.118l3.358-1.434l6.24,2.64l3.6-0.96l3.601-1.68l0.479-4.08l2.16-2.16l-2.64-5.76l1.199-7.44l2.641-0.479
		l3.359-3.84l4.08-2.641l-0.72-4.8l-4.8-1.92l0.72-6.96l-3.36-1.68l-3.119-4.561l-4.32,3.12l-3.12-0.96l-1.92,1.92l-2.4-0.239
		l-12.96-3.12l-2.395,1.681l-2.15-0.248l-4.094-3.844l-7.188,2.656l-4.094-0.5l-4.312-2.156l-4.812-3.094l-5.031-2.188
		l-3.594-13.188L358.194,811.689z"/>
	<path id="_x33_9" fill="#ECECEC" stroke="#A02020" stroke-linejoin="round" d="M414.842,884.163l3.358-1.434l6.24,2.64l3.6-0.96
		l3.601-1.68l0.479-4.08l2.16-2.16l-2.64-5.76l1.199-7.44l2.641-0.479l3.359-3.84l4.08-2.641l-0.72-4.8l-4.8-1.92l0.72-6.96
		l-3.36-1.68l-3.119-4.561l-4.32,3.12l-3.12-0.96l-1.92,1.92l-2.4-0.239l-12.96-3.12l-2.395,1.681l1.443,6.971l2.406,2.625
		l1.656,2.875l-6.719,3.125v2.406l3.594,3.594l-4.781,2.406v6.719l-0.719,2.406l-2.875,5.281l3.594,4.781L414.842,884.163z"/>
	<path id="_x34_0" fill="#ECECEC" stroke="#A02020" stroke-linejoin="round" d="M603,750.25l3.36,1.68l1.439,6l-4.08,1.2
		l3.601,1.439l3.36-4.8l4.319,0.96l8.641,0.96l2.63,0.24v5.04l4.319,0.96v5.28l3.12,4.319l0.24,6l-1.92,2.641l-7.91-4.32l-5.52,5.04
		l-12.24,4.08l0.479,5.28l4.08,2.64l-1.439,2.16l-3.601,0.479l-8.88,2.16l-4.08,2.64l-1.68,1.681l3.36,4.8l0.72,7.44l-3.601,0.239
		l-0.479,1.44l5.52,1.68l-0.72,1.92l2.16,3.84l8.4-1.439l6.72,2.399l-3.601-0.239l-6.72,6.72l-0.24,4.08l0.48,1.2l4.32,0.239
		l-0.24-1.199l6.24-3.841h2.159l1.681,9.841l2.16-0.24l-5.04,9.36l1.199,6.72l5.28,4.8l-2.88,4.08l-5.52,2.16l-3.36,6.24
		l-1.92-0.721L603,878.17l-0.96-0.96l-4.32-1.2l-6.96,3.359l-3.119,2.641L579,884.409l4.8,9.841l-1.199,5.52l-2.16,0.96
		l-2.159,4.081l-1.688-0.467l2.406-4.812l-1.906-3.375l-2.656-0.938l-3.844,1.188l-4.312-3.844l-5.031,2.156l-3.625,0.719
		l0.969-7.906l-4.312-5.75l8.406,2.875l0.219-6.5l2.188-2.875l2.156-2.625l-14.875-7.438l4.062-14.156l8.875-3.125l2.406-2.656
		l3.125-4.562l4.062-9.844l-4.312-7.188l6.25-7.906l-6-4.812l-6-0.719l-4.312,5.281l-0.969,4.094l-2.649,0.711l-0.473-5.526
		l-7.2-4.32l1.2-8.88l0.72-2.399l-2.88-6l-5.28-3.841l0.48-2.159l-4.08-2.16v-2.4l2.16-3.12l3.84-0.24l7.68-4.319l1.44,0.72l6-4.08
		l-0.96-4.8l2.64-1.439l-3.12-4.32l0.96-1.44l3.601-0.479l12.96-3.84l1.199,1.439l9.601-2.399l2.16-1.2l4.319,0.72l4.801-6
		l1.199,1.68l-1.92,5.28l2.4,3.12l1.2-0.24l-0.96-7.68l0.479-1.2l0.24,0.24L603,750.25z"/>
	<path id="_x34_1" fill="#ECECEC" stroke="#A02020" stroke-linejoin="round" d="M681.71,846.49l-1.07,1.061l-2.489-1.42
		l-0.351-6.021l-2.68-0.89l-7.99,3.54l-6.41-3.36l-0.88-4.08l-7.649-0.35l-3.36-3.36l-1.68,1.68v0.721l-0.721,1.68l-2.399,0.24
		l-0.48-0.72l1.2-5.521l3.12-1.92l3.84-0.96l14.64,1.44l0.96-6.24l6.96,1.2l9.841,6.239v1.2l0.239,1.68l1.681-1.199l0.72,1.68
		l-3.12,2.64l1.2,8.88L681.71,846.49z"/>
	<path id="_x34_2" fill="#ECECEC" stroke="#A02020" stroke-linejoin="round" d="M652.19,834.97l-0.48,6.479l-1.68,2.4h-2.16
		l0.72,0.96l5.521,10.32l1.439-0.48l7.44-5.04l3.6,3.84l2.4-0.479l9.6,4.08l2.641-1.92l2.159-6.96l-1.68-1.681l-1.07,1.061
		l-2.489-1.42l-0.351-6.021l-2.68-0.89l-7.99,3.54l-6.41-3.36l-0.88-4.08L652.19,834.97z"/>
	<path id="_x34_3" fill="#FF6666" stroke="#A02020" stroke-width="1.5" stroke-linejoin="round" d="M619.56,842.89l7.43-8.64
		l2.4-5.28l12.72,3.84l1.439,2.4l1.2-5.521l3.12-1.92l3.84-0.96l14.64,1.44l0.96-6.24l6.96,1.2l9.841,6.239v1.2l4.08-0.24
		l2.159-1.199l-1.439-1.2l1.68,0.24l7.68-0.24l8.4,4.8l5.521-1.2l2.399-8.16l-6.72-11.279l3.6-6.96l-0.479-2.641l-12.721,0.24
		l1.2-9.12l-1.2-0.72h-2.88l-8.64-4.561l-3.6,1.681l0.479-3.36l-7.68,2.16l-0.48-1.44l-13.2-8.64l-0.479,0.479l-2.64,0.48l-1.2,7.44
		l-6.48,0.239l-3.359-5.76l0.96-1.92l2.88,0.24l-7.92-3.36l-2.88-4.08l0.72-2.64l-7.439,0.96l-0.721,2.64l0.24,6l-1.92,2.641
		l-7.91-4.32l-5.52,5.04l-12.24,4.08l0.479,5.28l4.08,2.64l-1.439,2.16l-3.601,0.479l-8.88,2.16l-4.08,2.64l-1.68,1.681l3.36,4.8
		l0.72,7.44l-3.601,0.239l-0.479,1.44l5.52,1.68l-0.72,1.92l2.16,3.84l8.4-1.439l6.72,2.399l-3.601-0.239l-6.72,6.72l-0.24,4.08
		l0.48,1.2l4.32,0.239l-0.24-1.199l6.24-3.841h2.159l1.681,9.841L619.56,842.89z"/>
	<path id="_x34_4" fill="#ECECEC" stroke="#A02020" stroke-linejoin="round" d="M739.07,808.81l-2.641,4.08l-11.04-4.8l-1.199,2.16
		l-5.04,0.479l-3.12-2.16l-4.561-3.359l-0.479-2.641l-12.721,0.24l1.2-9.12l-1.2-0.72h-2.88l-8.64-4.561l-3.6,1.681l0.479-3.36
		l-7.68,2.16l-0.48-1.44l-13.2-8.64l1.44-7.2l-2.16-1.92l0.72-4.8l3.601-4.32l-1.2-3.84l11.521-3.12l-0.721-16.08l0.96-3.6l3.36-2.4
		l-2.4-7.68l3.36-6.479l2.64-0.96l1.44,3.359l2.88,0.48h0.48l4.079-0.721l1.44,3.841l6.24,0.239l8.399-5.279l1.681-2.16l4.08,0.479
		l5.04-2.64l3.84-5.04l4.08,1.68v1.681l6.479-3.12l-1.92-4.32l-1.2-12.479l-3.359-1.681l-4.801,0.24l-0.239-3.12l8.88,0.48
		l-0.96-10.08l9.12-6.48l5.279,1.44l4.561-6.24l5.04,0.48l2.64-5.761l-1.92-0.96l2.88-2.399l4.8-4.08l4.08-3.84l5.04-4.08l6.96,6.72
		l1.681-1.2l2.159,1.92l3.12-4.8l7.2,0.48l0.24,2.88l-4.32,0.96l0.24,2.64l8.88,2.88l0.72,1.44l2.16-0.48l5.76,5.04l2.881,6.48
		l8.399,4.319l0.96,7.681l4.32,1.68l0.24,4.08l2.64,0.24l0.24,4.56l-6.72,4.32l0.239,1.439l2.4,10.561l-2.64-0.72l-5.28,8.159
		l5.274,10.554l-10.787,2.649l-0.719,8.156l0.225,2.403l-9.354,3.357l-3.84,2.88l0.48,1.2l-11.28-7.2l-2.88-5.76l-5.521-3.12
		l-10.319,6l-2.16-1.439l-6.721,9.359l0.96,3.84l-5.279,7.921l1.92,8.399l3.84,7.44l-2.64,6.479l-0.721,0.24l5.04,5.28l-2.16,4.56
		l-2.88,1.92l2.88,4.56h-3.119v1.921l-4.801,1.199l-5.52,5.521l-3.601-1.44l0.24,2.641l-3.359-0.24l-0.24,0.479L739.07,808.81z"/>
	<path id="_x34_5" fill="#ECECEC" stroke="#A02020" stroke-linejoin="round" d="M739.07,808.81l2.16,0.96l-1.44,4.56l1.92,9.12
		l-12,4.32l-1.44,5.28l-2.399,2.399l-7.44,0.96l2.4,5.521l1.439,1.68l-5.039,9.36l-3.36-4.8l-2.64,2.159v6.96l-6.24,2.881v1.68
		l-0.721,4.8l-4.319,1.44l-0.24,6.239l11.28,1.2l9.6-2.399l0.96,1.92l4.8-1.681l9.36,5.04l2.16,5.761l-0.96,1.199l4.08,1.92
		l8.399-0.239l3.841-4.08l4.319-5.04l4.08-1.68l-0.24-12.721l2.16-1.2l-2.16-1.439l-2.399-7.2l1.92-2.88l2.399,1.92h6.24l-0.72-7.2
		l2.64,1.681l1.2-2.641l2.64,0.96l3.12,4.561l3.12-4.32l6.24,0.72l1.44-1.68l-1.44-6.48l5.04-0.72l0.24,1.44h3.12l-3.36-14.641
		l3.6-4.8l-2.88-1.68l1.2-3.84l7.92-10.32l0.96-1.68l0.24-4.561l-3.601-2.16l0.48-8.159l2.4-0.48l12.96-2.4l12.481-5.044
		l-4.561-7.91l-5.531-8.406l-0.938-3.344l-4.344,0.938l-0.938-8.625l-4.562-6.969l0.225-3.597l-9.354,3.357l-3.84,2.88l0.48,1.2
		l-11.28-7.2l-2.88-5.76l-5.521-3.12l-10.319,6l-2.16-1.439l-6.721,9.359l0.96,3.84l-5.279,7.921l1.92,8.399l3.84,7.44l-2.64,6.479
		l-0.721,0.24l5.04,5.28l-2.16,4.56l-2.88,1.92l2.88,4.56h-3.119v1.921l-4.801,1.199l-5.52,5.521l-3.601-1.44l0.24,2.641
		l-3.359-0.24l-0.24,0.479L739.07,808.81z"/>
	<path id="_x34_6" fill="#ECECEC" stroke="#A02020" stroke-linejoin="round" d="M626.75,1008.25l0.96,1.68l4.32-2.641l-2.88-8.399
		l11.283,16.079l-3.121,0.719l-3.375-3.594l-1.656,2.156h-5.531l-0.719-1.688L626.75,1008.25z M652.19,1029.13l-1.921,2.88
		l-1.433,1.204l-2.899-3.839l-0.219-3.375 M654.117,1026.005l6.713-7.436l0.72-5.52l3.36-6.24l-3.601-9.84l-3.6,3.359l-3.12,3.12
		l-3.84-1.439l-6,0.96l-13.68-9.601l2.88,8.16l3.36,1.681l6.475,10.795l3.371,4.808L654.117,1026.005z M578.281,904.811l5.281,6.252
		l-2.656,2.375l0.25,4.094l1.688,7.906l-1.219,1.438l2.406,1.469l-3.125,3.094l2.906,4.812l3.094-2.406h8.188l1.906,4.094
		l-2.406,0.469l0.25,5.531l2.875,2.406l2.406-0.5l3.344,1.688l1.688,6.469l-1.906,7.938l4.062-2.156l6.719,1.906l7.688-1.688v1.938
		l-3.594,3.844l-0.25,7.906l2.156,2.406L615,980.875l-0.719,1.469l-0.969,1.906l-2.406,0.25l-0.938,4.781l2.156,1.438l-0.25,4.562
		l0.719,0.969L609,1009.688l6.25,0.968l1.67-0.966l1.44-9.12l8.39-7.439l0.72-0.721l1.44-0.96l6.96-2.64l3.36-8.16l-0.24-2.88v-0.48
		l0.479-0.239l7.2-5.761l1.68-0.479l1.44-4.56l0.96,0.96l3.36-1.44l3.84-7.68l-0.72-1.2l3.359-0.72l4.561,3.119l4.319,0.48
		l1.92-4.56l6.721-2.4l6.72-2.64l-6.96-5.521l-2.88-0.72l-1.92-3.84l-5.04-3.84l-3.84-3.841h-0.24l-0.96,0.721l-4.08-0.96
		l-3.84,6.239l-2.4-1.68l-2.88-0.479l-0.72,0.239l-1.92-5.279l1.439-7.44l1.44-0.48l0.96-2.159l-0.24-0.48l-2.16-5.28l1.68-3.6
		l2.881-8.64l-4.08-1.92l-2.4-3.841l-4.56-3.119l-5.76-5.28l-6.24,1.68l-2.4-1.68l-0.479-2.88l3.359-7.681l-3.6-7.439l-3.83-2.641
		l1.2-2.159l-3.36-2.4l-2.88,4.08l-5.52,2.16l-3.36,6.24l-1.92-0.721L603,878.17l-0.96-0.96l-4.32-1.2l-6.96,3.359l-3.119,2.641
		L579,884.409l4.8,9.841l-1.199,5.52l-2.16,0.96L578.281,904.811z"/>
	<path id="_x34_7" fill="#ECECEC" stroke="#A02020" stroke-linejoin="round" d="M619.56,842.89l-5.04,9.36l1.199,6.72l5.28,4.8
		l3.36,2.4l-1.2,2.159l3.83,2.641l3.6,7.439l-3.359,7.681l0.479,2.88l2.4,1.68l6.24-1.68l5.76,5.28l4.56,3.119l9.12-0.96l5.04-7.68
		l-6-5.04l1.439-1.68l4.561-0.48l6,6.721l1.92-4.801l5.28-5.04v-3.84l-7.2-0.96l3.36-4.32l5.04-2.88l10.319,0.721l1.92-1.44
		l0.24-3.12l17.28-0.72v-1.68l6.24-2.881v-6.96l2.64-2.159l3.36,4.8l5.039-9.36l-1.439-1.68l-2.4-5.521l7.44-0.96l2.399-2.399
		l1.44-5.28l12-4.32l-1.92-9.12l1.44-4.56l-2.16-0.96l-2.641,4.08l-11.04-4.8l-1.199,2.16l-5.04,0.479l-3.12-2.16l-4.561-3.359
		l-3.6,6.96l6.72,11.279l-2.399,8.16l-5.521,1.2l-8.4-4.8l-7.68,0.24l-1.68-0.24l1.439,1.2l-2.159,1.199l-4.08,0.24l0.239,1.68
		l1.681-1.199l0.72,1.68l-3.12,2.64l1.2,8.88l-3.12,2.16l1.68,1.681l-2.159,6.96l-2.641,1.92l-9.6-4.08l-2.4,0.479l-3.6-3.84
		l-7.44,5.04l-1.439,0.48l-5.521-10.32l-0.72-0.96h2.16l1.68-2.4l0.48-6.479l-3.36-3.36l-1.68,1.68v0.721l-0.721,1.68l-2.399,0.24
		l-0.48-0.72l-1.439-2.4l-12.72-3.84l-2.4,5.28L619.56,842.89z"/>
	<path id="_x34_8" fill="#ECECEC" stroke="#A02020" stroke-linejoin="round" d="M646.67,897.369l9.12-0.96l5.04-7.68l-6-5.04
		l1.439-1.68l4.561-0.48l6,6.721l1.92-4.801l5.28-5.04v-3.84l-7.2-0.96l3.36-4.32l5.04-2.88l10.319,0.721l1.92-1.44l0.24-3.12
		l17.28-0.72l-0.721,4.8l-4.319,1.44l-0.24,6.239l11.28,1.2l9.6-2.399l0.96,1.92l4.8-1.681l9.36,5.04l2.16,5.761l-0.96,1.199
		l-3.12,3.12l-0.24-1.92l-5.04,0.72l-2.64,6.48l1.439,2.4l1.44,4.08l-2.16,0.72l-0.96,2.88l3.601,10.32l-1.2,3.6l1.439,8.88
		l-0.72,2.88l0.96,6.48l-1.2,2.16l-0.96,0.479l-15.84-0.479l-2.16,7.199l-4.8-4.8l-5.76,3.12l2.64,3.6l-0.24,2.4l-5.76,2.64
		l-3.6-3.6l-2.4,2.16l-1.68-2.4l-2.88,1.92l-0.24-0.239l-6.96-5.521l-2.88-0.72l-1.92-3.84l-5.04-3.84l-3.84-3.841h-0.24
		l-0.96,0.721l-4.08-0.96l-3.84,6.239l-2.4-1.68l-2.88-0.479l-0.72,0.239l-1.92-5.279l1.439-7.44l1.44-0.48l0.96-2.159l-0.24-0.48
		l-2.16-5.28l1.68-3.6l2.881-8.64l-4.08-1.92L646.67,897.369z"/>
	<path id="_x34_9" fill="#ECECEC" stroke="#A02020" stroke-linejoin="round" d="M761.63,876.25l-4.08,1.68l-4.319,5.04l-3.841,4.08
		l-8.399,0.239l-4.08-1.92l-3.12,3.12l-0.24-1.92l-5.04,0.72l-2.64,6.48l1.439,2.4l1.44,4.08l-2.16,0.72l-0.96,2.88l3.601,10.32
		l-1.2,3.6l1.439,8.88l-0.72,2.88l0.96,6.48l-1.2,2.16l-0.96,0.479l-15.84-0.479l-2.16,7.199l5.76,5.761l1.921,6.96l-1.681,6.96
		l0.96,1.92l4.32,1.2l5.52-1.92l-1.68,5.76l4.8-3.12l-1.2-2.16l0.48-8.88l2.64-12.24l-1.439-0.72l7.92-4.8l4.56,0.479l3.36,3.601
		l-1.68,2.88l-4.32,2.399v2.4l1.2-2.16l3.359,3.36l3.12-1.2l-0.479-3.36l2.16-2.16l4.319,0.96l-1.92,4.561l1.2,2.64l2.64-1.68
		l1.2-6.24l-2.64-5.04l-3.36-1.439l-0.24-1.92l2.881-2.641l13.68,0.24l2.88-5.76l2.4,2.64l5.04,0.48l3.836-6.003l3.121-1.689
		l2.656,0.719l4.531-1.188l3.375-3.344L793.562,918l3.344-0.719l3.125-0.938l4.312-0.25l3.125,0.25l2.656,0.219l5.503,0.003
		l-1.198-6.716l1.2-3.12l6-3.12l-1.68-2.16l5.52-2.88l0.721-5.28l1.199-2.399v-5.521h-2.399l-0.721,0.96l-0.72,0.721l-1.439-0.24
		h-0.48l-0.96-2.16l-1.439-1.92l-1.921-3.36v-0.239l-0.239,0.239l-0.96,0.24l-2.641-0.24h-0.72l-0.96-2.88l-2.4-1.2v-1.199
		l-4.8-7.681l0.48-7.199l-2.4-2.4l-10.32,1.92l-6.239,12.24l-0.24,4.8l-7.44,4.32l-0.96,2.64l-4.56,1.68l-4.32-4.08l-5.28,0.24
		L761.63,876.25z"/>
	<path id="_x35_0" fill="#ECECEC" stroke="#A02020" stroke-linejoin="round" d="M787.309,847.449l0.96,7.92l4.08,3.36l-6.239,12.24
		l-0.24,4.8l-7.44,4.32l-0.96,2.64l-4.56,1.68l-4.32-4.08l-5.28,0.24l-1.68-4.319l-0.24-12.721l2.16-1.2l-2.16-1.439l-2.399-7.2
		l1.92-2.88l2.399,1.92h6.24l-0.72-7.2l2.64,1.681l1.2-2.641l2.64,0.96l3.12,4.561l3.12-4.32l6.24,0.72L787.309,847.449z"/>
	<path id="_x35_1" fill="#ECECEC" stroke="#A02020" stroke-linejoin="round" d="M787.79,846.49l-0.48,0.96l0.96,7.92l4.08,3.36
		l10.32-1.92l2.4,2.4l-0.48,7.199l4.8,7.681v1.199l2.4,1.2l0.96,2.88h0.72l2.641,0.24l0.96-0.24l0.239-0.239v0.239l1.921,3.36
		l1.439,1.92l0.96,2.16h0.48l1.439,0.24l0.72-0.721l0.721-0.96h2.399v5.521l-1.199,2.399l-0.721,5.28l-5.52,2.88l1.68,2.16l-6,3.12
		l-1.2,3.12l1.198,6.716l0.247-0.003l3.844-0.219l1.656-0.5l4.562-1.906l7.219-0.25h3.344l2.656,0.25l0.969-3.375l-0.25-3.594
		l-4.094-2.156v-1.688l4.812-0.469l7.438-5.781v-0.219l3.594-4.312l0.969-5.281l-6-1.688l-0.719-4.812l4.312-3.844l4.312-1.188
		l1.438-1.688l-1.656-3.594l-2.156,0.469l-0.5-4.062L847.781,864l-2.406-4.062v-0.719l3.625-2.656L846.125,852l-4.344-3.125
		l-0.719-1.656L849,846.25l4.062-2.156l0.969-4.312l-0.969-0.5L843,831.125l-2.875-3.594l-6.5-7.906v-2.656l2.156-5.531l1.219-0.469
		h7.188l-8.156-10.562l-2.406-6l1.688-3.344l-1.188-1.688l4.531-3.375l0.5-4.781l-1.438-0.5l-5.531,4.094l-3.596-5.527
		l-12.481,5.044l-12.96,2.4l-2.4,0.48l-0.48,8.159l3.601,2.16l-0.24,4.561l-0.96,1.68l-7.92,10.32l-1.2,3.84l2.88,1.68l-3.6,4.8
		l3.36,14.641h-3.12l-0.24-1.44l-5.04,0.72l1.44,6.48L787.79,846.49z"/>
	<path id="_x35_2" fill="#ECECEC" stroke="#A02020" stroke-linejoin="round" d="M616.92,1009.69l1.674-0.002l3.594-0.719
		l4.562-0.719l0.96,1.68l4.32-2.641l-2.88-8.399l11.283,16.079l3.352-0.964l-6.475-10.795l-3.36-1.681l-2.88-8.16l13.68,9.601
		l6-0.96l3.84,1.439l3.12-3.12l3.6-3.359l3.601,9.84l-3.36,6.24l-0.72,5.52l9.6,1.2l2.88,2.64l2.881-3.6l6.479,0.24l6.72,2.399
		l4.32-2.88l12-0.96l-0.24-1.439l4.561,3.359h0.479l4.08-2.88l2.16,1.92l1.92-1.439l4.8-6.24h1.44l-0.72,2.16l2.88,0.96l-1.44,0.72
		l5.04-0.24l1.68,0.721l0.48,0.239l10.32,3.84l-4.08-3.119l3.359-4.08l2.641-4.561v-2.64l2.88-1.44l11.52,12.48l7.2-1.68
		l11.76-8.641l3.601-1.68l-13.44,12l0.96,4.08l3.36,1.2l5.52-4.08l5.521,0.479l1.2,0.24l-2.881,1.2l2.4,5.52l1.922,2.874
		l2.627-0.943l6.5,4.562l1.438-4.562l-3.375-1.438l-1.656-4.094l1.656-2.156l0.25-2.657l3.844-1.655l0.719-2.156l3.594-0.5
		l-2.625-3.125l-2.406-4.781l-0.25-2.157l0.969-3.124L797.156,996L795,993.844l-3.844-9.125l-4.312-1.906l-2.656-3.844
		l-0.469-10.562l1.438-1.688l-1.688-1.906l8.656-8.406l2.156-3.125l-0.969-4.562l-2.656-1.656l-1.906-0.719v-4.094l4.562-3.375
		l0.969-0.938l-1.438-1.219l-3.125,0.969v-1.906l-4.812-3.375l-3.84-5.279l-3.836,6.003l-5.04-0.48l-2.4-2.64l-2.88,5.76
		l-13.68-0.24l-2.881,2.641l0.24,1.92l3.36,1.439l2.64,5.04l-1.2,6.24l-2.64,1.68l-1.2-2.64l1.92-4.561l-4.319-0.96l-2.16,2.16
		l0.479,3.36l-3.12,1.2l-3.359-3.36l-1.2,2.16v-2.4l4.32-2.399l1.68-2.88l-3.36-3.601l-4.56-0.479l-7.92,4.8l1.439,0.72l-2.64,12.24
		l-0.48,8.88l1.2,2.16l-4.8,3.12l1.68-5.76l-5.52,1.92l-4.32-1.2l-0.96-1.92l1.681-6.96l-1.921-6.96l-5.76-5.761l-4.8-4.8
		l-5.76,3.12l2.64,3.6l-0.24,2.4l-5.76,2.64l-3.6-3.6l-2.4,2.16l-1.68-2.4l-2.88,1.92l-0.24-0.239l-6.72,2.64l-6.721,2.4l-1.92,4.56
		l-4.319-0.48l-4.561-3.119l-3.359,0.72l0.72,1.2l-3.84,7.68l-3.36,1.44l-0.96-0.96l-1.44,4.56l-1.68,0.479l-7.2,5.761l-0.479,0.239
		v0.48l0.24,2.88l-3.36,8.16l-6.96,2.64l-1.44,0.96l-0.72,0.721l-8.39,7.439L616.92,1009.69z"/>
	<path id="_x35_3" fill="#ECECEC" stroke="#A02020" stroke-linejoin="round" d="M652.19,1029.13l1.92-3.12l6.72-7.44l9.6,1.2
		l2.88,2.64l2.881-3.6l6.479,0.24l6.72,2.399l4.32-2.88l12-0.96l-0.24-1.439l4.561,3.359h0.479l4.08-2.88l2.16,1.92l1.92-1.439
		l4.8-6.24h1.44l-0.72,2.16l2.88,0.96l-1.44,0.72l5.04-0.24l1.68,0.721l0.48,0.239l10.32,3.84l-4.08-3.119l3.359-4.08l2.641-4.561
		v-2.64l2.88-1.44l11.52,12.48l7.2-1.68l11.76-8.641l3.601-1.68l-13.44,12l0.96,4.08l3.36,1.2l5.52-4.08l5.521,0.479l1.2,0.24
		l-2.881,1.2l2.4,5.52l1.922,2.874l-5.279,4.338l-5.531,0.719l-1.906-2.406l-2.156-2.406l-6.969-3.594l-9.594,0.25l0.219,4.781
		l-2.156,2.875l0.25,3.375l-3.125,4.062l-5.281,2.188l-1.188,4.312l-3.844,1.906l-5.281,2.656l-5.031-2.156l-3.594,4.531
		l-0.969,5.062l-2.656,3.344l-0.219,0.25l-10.344-0.969l-0.719,3.375l-5.031-1.438l-4.812,1.438l-0.469,2.625l-2.625,2.406
		l-6.5,4.312l-2.625,0.719l0.719-3.344l-4.094-6.5l-7.656,0.969l2.625,9.844l-2.625-0.25l-1.688-6.938l-3.844-1.688h-1.219
		l-3.344,5.031l-11.75,5.75l0.719,1.688l4.562,6.5l5.031-1.938v4.562l-5.75,5.531l-8.188-4.344l-6-0.719l-9.812-5.75l-1.688-2.625
		l-0.969-1.688v-0.719l3.844-1.938l-2.656-1.906l1.688-2.875l5.062-2.875l4.062-0.5l1.938-3.125l-2.406-6.219l1.188-4.094
		l0.969-1.906l-3.594-2.656l-4.812-8.406l4.812-2.375l-0.5-4.562l-0.469-1.438l5.524,0.714l1.433-1.204L652.19,1029.13z"/>
	<path id="Landkreise" fill="none" stroke="#1B1B80" stroke-width="0.5" stroke-linejoin="round" d="M739.07,808.81l-2.16-1.44
		l0.24-0.479l3.359,0.24l-0.24-2.641l3.601,1.44l5.52-5.521l4.801-1.199v-1.921h3.119l-2.88-4.56l2.88-1.92l2.16-4.56l-5.04-5.28
		l0.721-0.24l2.64-6.479l-3.84-7.44l-1.92-8.399l5.279-7.921l-0.96-3.84l6.721-9.359 M574.92,717.61l6.24,0.721l0.96-3.601
		l1.44,5.28l3.6,2.4l0.96,1.68l-2.64,12.479l15.6,5.04l-0.24,3.36l1.681,1.68l1.92,1.44 M507.72,669.37L499.8,682.81l2.641,3.84
		l-2.88,5.761L501,695.53l0.96-0.72l8.641-4.32 M436.68,665.53l1.68-5.279l3.12-10.8l5.76-5.761l14.4,3.601 M403.8,607.69l6.24,3.84
		l4.08,4.08l1.2,3.36l8.64-1.2l0.24-2.399l6-5.04l7.2,3.359l6.96-5.52 M402.12,601.93l-1.68-5.52l15.359-10.08l1.2-3.841l-6-4.8
		l1.44-6.96l-6.96-1.68l-8.16,2.64l-1.68-0.239l-0.48-3.601l2.4-4.32l0.96-6.96l2.88-2.399l0.72-8.16L396,522.97l3.721-4.32V495.62
		 M394.2,601.93l-12,3.36l-7.2,3.12l-2.64,0.72l-8.88,0.24l-7.44-4.32l-2.64,0.72l-5.521-4.319l-6,1.439l-4.319,3.36l-6.721-2.641
		l-7.92,1.681 M322.92,605.29l0.721-3.84l-4.32-2.881l0.479-4.08l-0.96-2.399l-5.52,2.88l-7.92,0.96h-2.88l-2.4-2.4l-12,9.601
		l-2.64,0.24l-3.36-6.48 M429,571.69l-1.439-1.92L423,550.33l-2.16-0.48l5.761-6.24l1.92,0.721l5.76-2.88 M394.2,601.93l-5.04-14.88
		l-5.76-0.72l-0.48-3.36l1.92-0.48l-0.96-3.84l-8.399,2.16l0.24-6.96l-3.841-8.16l2.16-2.16l-1.68-6l-10.561,0.96l-6.96,0.961
		l-4.08,0.479l-2.399,0.48l-6.96,2.88l-2.4-2.4l1.44-1.92l-0.48-6.48L339,551.29l2.16-8.4l1.2-0.479l3.84-0.721h1.92l5.04,0.721
		l0.72-1.2l-2.88-5.04l5.521-3.84l3.6-1.681 M402.12,601.93l-5.28,3.12l-2.64-3.12 M402.12,601.93l1.68,5.76 M447.72,595.45
		l0.72,9.6l-4.08,3.12 M322.92,605.29l-0.96,6.239 M461.64,647.29l1.68-1.92l-2.64-9.841l-2.16,0.721l-1.2-11.28l-2.4-3.84
		l-5.76-1.2l-5.28-4.32l-0.96-4.319l1.44-3.12 M379.08,647.29l-2.16-8.88l4.801-3.841l8.88-6.239l7.92-7.44l5.279-13.2
		 M461.64,647.29l-1.681,1.92l2.641,6.479 M510.36,666.97l-2.64,2.4l-7.921-5.521l-6-0.72l-1.92-0.96l-8.399-3.12l-8.4,4.32
		l-1.68-11.761l-9.36,2.16l-1.439,1.92 M436.68,665.53h6.239l2.88,4.08l4.08,2.16l7.92-3.12l-0.239-1.68l1.68-6.24l3.36-5.04
		 M425.16,676.57l3.12-6.96l8.4-4.08 M510.6,690.49l-2.4,5.04l1.68,5.761l4.32,1.199l0.48,10.32l-5.28-0.96l-2.16,5.521l-0.72,10.08
		l-10.561,3.6l-2.88,0.72l0.96,2.88l-4.319,3.12l-5.28,1.681l-2.88-0.961 M425.16,676.57l-12.96-6.239l-2.4-0.48l-5.279-7.92
		l-2.4,2.4l-6-7.681l2.16-4.08l-5.04-3.84l-3.84-0.96l-6,1.2l-4.32-1.68 M379.08,647.29l-6.96-0.24v0.479l-3.84-1.92l0.24,8.641
		l-5.28,20.88h-0.72l-8.88,5.28l-2.881-2.16l-3.84-7.92l-1.68-2.4l-11.28-1.2l-5.52-3.84l-6.24-1.2l-10.08-2.16l-6,0.721
		 M510.6,690.49l4.56-6.96l3.12-1.199 M453.48,720.73l-3.601,1.2l-3.84-2.16l-11.52-12.24l-0.96-8.88l1.68-7.439l-2.88-4.32
		l-7.2-10.32 M481.56,738.49l1.92-5.039l-10.8-0.721l1.439-5.279l-3.84-1.921l-3.12,0.721l-3.36-7.44l-10.319,1.92 M486.84,637.45
		l-0.239-2.16l1.68-10.08l1.68-17.76v-1.44l-0.239-7.92l-0.24-12.24l1.439-8.64l6.96-5.76 M864.83,655.69l-3.6-2.64l-3.841,2.64
		l-4.56,4.561l-16.08-13.44l-15.36-12l0.24,6.96l1.68,3.12l-0.96,3.12l4.801,3.36l0.96,4.56l-5.28,2.64l-11.521,2.16l-5.04,4.08
		 M819.23,728.17l-5.28-10.561l5.28-8.159l2.64,0.72l-2.4-10.561l-0.239-1.439l6.72-4.32l-0.24-4.56l-2.64-0.24l-0.24-4.08
		l-4.32-1.68l-0.96-7.681l-8.399-4.319l-2.881-6.48 M729.95,678.25l-1.681-0.24l-0.239-2.16l-3.12,0.72l-3.12,4.32l-1.2,2.4
		l-10.8,0.72l-3.84-2.16l-0.24-1.439l10.8-11.04l-5.76-5.28 M622.92,713.29l2.16-3.12l9.11-4.8l2.64,0.96l1.2,5.279l4.08-0.96
		l5.279-6.479l5.28-3.12l2.16-4.561l-3.6-1.439l3.6-4.08l-0.72-1.44l-9.36-8.159l3.84-3.601l1.68-4.8l-2.88-5.28v-0.239l0.721-3.36
		l1.439,0.479l1.44-2.399l-1.2-1.44l2.4,0.48l5.76-3.601l8.16-2.159l-5.761-3.12l-4.8-9.601 M710.75,664.09l-3.84-5.28l-7.44-1.92
		l0.24-3.6l-5.76-1.44l-3.36,1.68h-2.88l-3.6-5.04l-5.521-3.359l-2.16,0.96l-3.359,3.6l-6.24-1.2l-5.04-4.56l-2.88-0.479
		l-3.36-0.721 M655.55,642.73l-1.92-0.24l-0.96-0.239l-4.32-0.96l-3.359-4.08l-0.721-3.36l-0.239-0.479l-0.96-4.08l1.439-4.32
		l-2.16-2.88l-0.72-1.92l-1.68-3.84l-0.72-0.721l-0.48-0.479 M638.75,615.13l-1.2-1.68l2.641-6l-5.76-0.721l-2.641-2.88l-4.56,6.24
		l-4.55,2.88l-12.24-9.84l2.16-4.32l-5.04-2.64l0.72-7.92l-5.04-0.721l-3.12-4.079l-4.32,2.399l-3.119-4.08l0.239-4.56l6.96-6
		l-1.199-5.521l-1.921-0.239l-1.68,1.92l-8.64,1.68l-3.601-5.521l-0.479-6.96l-0.96-1.68 M547.56,604.09l-0.721-2.16l6.721-5.04
		l-6.24-6.479l6-4.561l2.399,0.72l-3.6-12.479l-6.24-2.64l10.08-2.4l1.2-1.68l2.16-4.561l3.12,0.48l5.279-2.88l2.641-0.96
		l6.479,3.84l3.36-7.44l0.48-1.2l0.72,0.24 M547.56,604.09l-5.761-3.601l-5.279,0.721l-4.801,0.479l-1.439,2.4l-2.16,1.439
		l-3.36,3.601l1.921,5.52l0.72,2.16l-1.92,0.24l-4.32,3.84l-6.96,2.4l-2.16,3.12l-8.88-1.681l-4.56-2.16l-2.4,2.881l-1.68-0.48
		l-4.32-1.68l1.92-7.2l-2.16-10.08 M564.6,497.78l1.68,3.841l0.72,1.439l8.4,1.2l6.24,4.07l-0.24,0.72l5.52,2.16l5.28,5.52l6-1.439
		l4.56,7.68l-9.84,7.92l-1.2,0.48l0.24,4.8l3.601,1.2l0.239-2.16l2.641,0.96l0.479,3.12l0.48,3.84l-8.16,5.52l-6,0.96l-3.12,2.4
		l-0.72,2.88 M667.79,576.01l-4.32,3.12l4.8,2.64l1.44,9.36l-6,0.479l-1.92,3.601l-6,2.399l-0.24,0.24l-4.319,0.48l-0.961,3.12
		l-2.88,1.199l-0.72,5.28l-2.16-0.24l-5.76,7.44 M569.4,658.09l-1.44-4.8l-4.319-5.28l-0.24-9.12l-0.24-3.36l-4.32-5.52l0.96-1.68
		l-1.439-6.96l1.2-1.92l-3.36-5.28l-1.68,1.2l-2.88-2.16v-5.76l-4.561-1.921l0.48-1.439 M710.75,664.09l4.56-6.72l0.24-2.641
		l0.24-0.479l7.92-4.561l2.4,1.92l6.96-2.64l-4.08-9.84l0.72-3.84l5.521-0.721l0.96-1.439l-2.641-2.4l2.88-4.08l-0.239-0.479
		l-4.561,0.72l-1.68-1.439l2.64-5.28l9.84-3.84l2.88-4.32l0.24-1.92h4.8l1.92-0.96l-0.479-1.68l7.44,3.359l2.88-1.2l3.6-6
		 M729.95,678.25l9.12-6.48l5.279,1.44l4.561-6.24l5.04,0.48l2.64-5.761l-1.92-0.96l2.88-2.399l4.8-4.08l4.08-3.84l5.04-4.08
		l6.96,6.72l1.681-1.2l2.159,1.92l3.12-4.8l7.2,0.48l0.24,2.88l-4.32,0.96l0.24,2.64l8.88,2.88l0.72,1.44l2.16-0.48l5.76,5.04
		 M729.95,678.25l0.96,10.08l-8.88-0.48l0.239,3.12l4.801-0.24l3.359,1.681l1.2,12.479l1.92,4.32 M633.71,773.53l0.721-2.64
		l7.439-0.96l-0.72,2.64l2.88,4.08l7.92,3.36l-2.88-0.24l-0.96,1.92l3.359,5.76l6.48-0.239l1.2-7.44l2.64-0.48l0.479-0.479
		 M633.71,773.53l-3.12-4.319v-5.28l-4.319-0.96v-5.04l-2.63-0.24L615,756.73l-4.319-0.96l-3.36,4.8l-3.601-1.439l4.08-1.2l-1.439-6
		l-3.36-1.68l1.44-2.16 M604.44,748.09l4.56-7.68l-3.84-3.12l1.92-2.88l6.48-1.44l-1.681-5.04l5.28-5.76l0.24-3.36l5.52-5.52
		 M622.92,713.29l1.44-12l-0.96-4.801l-2.88-3.119l-2.88,1.199l-6.48,2.881l-4.8-0.721l1.92-3.84l-1.44-2.4l-2.64-0.479l-4.32-2.88
		l-4.319-0.96l-5.28-2.4l-2.64,1.44l-6.24-12.96l1.92-3.601l1.92-13.439l1.44-1.44l-2.641-3.359l-1.2,1.92l-3.12,1.68l-5.039,5.76
		l-5.28-1.68 M569.4,658.09l-1.92,4.08l-2.88,1.92l-4.801-1.2l-2.88,0.96 M807.95,741.37l-9.36,3.359l-3.84,2.88l0.48,1.2
		l-11.28-7.2l-2.88-5.76l-5.521-3.12l-10.319,6l-2.16-1.439l-0.48-0.24l-3.359,2.64l-5.28-2.88l-2.16-5.28l-5.04-0.239l-1.92-2.88
		l-1.2-4.08l0.48-0.96l-4.32-1.44l-4.8-11.76l-1.44-0.96l-6.479,3.12v-1.681l-4.08-1.68l-3.84,5.04l-5.04,2.64l-4.08-0.479
		l-1.681,2.16l-8.399,5.279l-6.24-0.239l-1.44-3.841l-4.079,0.721h-0.48l-2.88-0.48l-1.44-3.359l-2.64,0.96l-3.36,6.479l2.4,7.68
		l-3.36,2.4l-0.96,3.6l0.721,16.08l-11.521,3.12l1.2,3.84l-3.601,4.32l-0.72,4.8l2.16,1.92l-1.44,7.2 M514.92,809.53l6.96-5.04
		l2.4,0.48l0.24-3.36l6,1.2l4.08-3.6l2.159,1.199l4.32-2.88l1.92-8.16l0.48-2.159l-4.08-2.16v-2.4l2.16-3.12l3.84-0.24l7.68-4.319
		l1.44,0.72l6-4.08l-0.96-4.8l2.64-1.439l-3.12-4.32l0.96-1.44l3.601-0.479l3.6-10.8l-1.44-6.96l0.96-0.48v-6.72l-3.359-3.84
		l7.68-2.641l3.84-10.08 M456.6,818.65l1.439-5.04l0.48-5.04 M458.52,808.57l-9.601,4.32l-5.279-0.24l-4.08,6.96l-2.641,4.08
		l-8.88-3.36l-5.28,0.48l-0.72-3.6l1.2-0.24l0.24-10.08l-6.721-6.72l4.32-4.801l-0.24-8.64l2.4-1.2l2.16-0.96l1.2-6l-0.96-4.8
		l-2.881-1.68l-2.399-5.04l-2.16-2.64 M418.2,764.41l-6.24-2.641l-7.92,3.12l-8.88-6.96l-7.2,1.92l-6,5.04l-10.56-0.72
		 M363.24,675.13l2.16,1.68l11.76,8.641v0.239l0.72,11.521l0.48,0.479l3.84,4.8l10.08,4.08l0.96,1.92l-1.68,3.36l-4.32,5.76
		l-7.44,4.561l-3.84,1.92l-3.12,10.08l-1.199,2.16l3.84,7.439l-9.601,6.24l-1.92,2.88l7.44,11.28 M408.36,848.409l6.479-3.12
		l2.4,4.801l9.84-0.24v2.88l3.12,4.32l4.56-2.16l4.08,4.08l-3.359,3.84l-2.641,0.479l-1.199,7.44l-9.12-1.92l-4.8,3.36l-3.12-2.16
		l-7.44-4.08l1.2-3.601l-1.44-1.92 M315,855.61l-1.2-2.16l-6.479-11.76l-0.24-0.479l-0.24-1.681l-5.279-23.279l9.12-5.04
		l-1.44-2.881l3.36-7.92l-4.08-6.239l-8.641,0.479l-0.239-2.64l-4.32-1.92l-0.24-3.84l-2.64-3.601l-4.32-0.24l-5.28-3.84
		l-3.119-0.72L279,780.01l-1.439-5.04l-5.521,2.64l1.681-7.68 M574.92,717.61l-5.76-3.12l-0.24-0.96L567,711.37l-7.92-0.48
		l-3.12,8.4l-4.08-0.24l-3.12-8.64l-3.359-8.4l0.479-4.8l3.36-2.16l-0.72-4.08l-1.44-0.48 M418.2,764.41l1.2-4.32l6.96,0.72v-2.399
		l-4.08-1.2l2.4-9.36l5.279,0.72l1.92-4.319l12.721,2.64l0.479-5.76l5.28-3.36l-0.48-8.399l3.601-8.641 M371.4,764.17l0.72,3.84
		l-5.52,3.359l-6.48,5.28l-0.72,2.4l1.68,7.2l-1.2,2.64l0.48,8.16l-2.16,9.84v4.8 M458.52,808.57L459,807.13l0.24-6.721l4.8-1.92
		l-0.72-6.479l-3.6-2.641l-0.961-6l-1.439-10.08l2.64-8.64l3.36,0.24l6.96-5.76l3.36-2.16l5.76-0.24l3.6-2.64l-0.24-4.32l-2.64-7.92
		l1.44-3.36 M827.389,819.85l-2.399-3.36l-5.521-0.96l-2.64-2.16l-5.04-1.439l-3.6,3.6l-1.921,5.28l-1.199,3.36l-6.24-4.561h-2.4
		l-3.6,4.8l3.36,14.641 M787.309,847.449l1.921-2.64l-1.44-6.48l5.04-0.72l0.24,1.44h3.12 M761.63,876.25l-4.08,1.68l-4.319,5.04
		l-3.841,4.08l-8.399,0.239l-4.08-1.92l0.96-1.199l-2.16-5.761l-9.36-5.04l-4.8,1.681l-0.96-1.92l-9.6,2.399l-11.28-1.2l0.24-6.239
		l4.319-1.44l0.721-4.8 M761.63,876.25l-0.24-12.721l2.16-1.2l-2.16-1.439l-2.399-7.2l1.92-2.88 M741.71,823.449l3.36,0.48l2.88,3.6
		l1.92-0.24l4.32,9.36l0.96,4.561l5.52-1.681l0.24,1.92l-3.12,4.08l3.12,5.28 M741.71,823.449l-12,4.32l-1.44,5.28l-2.399,2.399
		l-7.44,0.96l2.4,5.521l1.439,1.68l-5.039,9.36l-3.36-4.8l-2.64,2.159v6.96l-6.24,2.881v1.68 M704.99,861.85l-17.28,0.72l-0.24,3.12
		l-1.92,1.44l-10.319-0.721l-5.04,2.88l-3.36,4.32l7.2,0.96v3.84l-5.28,5.04l-1.92,4.801l-6-6.721l-4.561,0.48l-1.439,1.68l6,5.04
		l-5.04,7.68l-9.12,0.96l-4.56-3.119l-5.76-5.28l-6.24,1.68l-2.4-1.68l-0.479-2.88l3.359-7.681l-3.6-7.439l-3.83-2.641l1.2-2.159
		l-3.36-2.4 M578.28,904.81l2.16-4.08l2.16-0.96l1.199-5.52l-4.8-9.841l8.641-2.399l3.119-2.641l6.96-3.359l4.32,1.2l0.96,0.96
		l4.32-2.641l1.92,0.721l3.36-6.24l5.52-2.16l2.88-4.08 M596.04,821.53l0.72-1.92l-5.52-1.68l0.479-1.44l3.601-0.239l-0.72-7.44
		l-3.36-4.8l1.68-1.681l4.08-2.64l8.88-2.16l3.601-0.479l1.439-2.16l-4.08-2.64l-0.479-5.28l12.24-4.08l5.52-5.04l7.91,4.32
		l1.92-2.641l-0.24-6 M739.07,808.81l-2.641,4.08l-11.04-4.8l-1.199,2.16l-5.04,0.479l-3.12-2.16l-4.561-3.359l-0.479-2.641
		l-12.721,0.24l1.2-9.12l-1.2-0.72h-2.88l-8.64-4.561l-3.6,1.681l0.479-3.36l-7.68,2.16l-0.48-1.44l-13.2-8.64 M827.389,819.85h2.16
		l4.08-2.88 M741.71,823.449l-1.92-9.12l1.44-4.56l-2.16-0.96 M579.48,831.85l5.76-1.2l3.84-4.56l7.68-1.44l-0.72-3.12
		 M579.48,831.85l0.239-0.24 M574.92,830.89l4.561,0.96 M796.19,839.05l6.239,1.68l8.641,7.44l5.76,0.96l4.56,4.319l5.521-6.72
		l-3.601-4.32l1.921-7.199l3.6-2.4l0.96-2.16l-3.6-2.16l1.199-8.64 M760.91,850.81l2.399,1.92h6.24l-0.72-7.2l2.64,1.681l1.2-2.641
		l2.64,0.96l3.12,4.561l3.12-4.32l6.24,0.72l-0.48,0.96 M621,863.77l-5.28-4.8l-1.199-6.72l5.04-9.36l-2.16,0.24l-1.681-9.841
		h-2.159l-6.24,3.841l0.24,1.199l-4.32-0.239l-0.48-1.2l0.24-4.08l6.72-6.72l3.601,0.239l-6.72-2.399l-8.4,1.439l-2.16-3.84
		 M761.63,876.25l1.68,4.319l5.28-0.24l4.32,4.08l4.56-1.68l0.96-2.64l7.44-4.32l0.24-4.8l6.239-12.24 M815.63,916.57l-1.2-6.72
		l1.2-3.12l6-3.12l-1.68-2.16l5.52-2.88l0.721-5.28l1.199-2.399v-5.521h-2.399l-0.721,0.96l-0.72,0.721l-1.439-0.24h-0.48
		l-0.96-2.16l-1.439-1.92l-1.921-3.36v-0.239l-0.239,0.239l-0.96,0.24l-2.641-0.24h-0.72l-0.96-2.88l-2.4-1.2v-1.199l-4.8-7.681
		l0.48-7.199l-2.4-2.4l-10.32,1.92l-4.08-3.36l-0.96-7.92 M616.92,1009.69l1.44-9.12l8.39-7.439l0.72-0.721l1.44-0.96l6.96-2.64
		l3.36-8.16l-0.24-2.88v-0.48l0.479-0.239l7.2-5.761l1.68-0.479l1.44-4.56l0.96,0.96l3.36-1.44l3.84-7.68l-0.72-1.2l3.359-0.72
		l4.561,3.119l4.319,0.48l1.92-4.56l6.721-2.4l6.72-2.64 M753.23,1032.01l-9.12-2.88l2.159-3.841l-2.64-3.84h0.24l0.24-1.92
		l-0.96-0.24l-10.32-3.84l-0.48-0.239l-1.68-0.721l-5.04,0.24l1.44-0.72l-2.88-0.96l0.72-2.16h-1.44 M723.469,1010.89l-0.72-7.68
		l-1.92-0.96l-3.84-10.08l2.16-0.24l2.399-6l1.681-6.24l-0.961-3.12 M798.59,1012.329l-4.8-2.399h-0.24l0.48-1.68l0.239-0.24
		l-11.52-4.561l-0.72,0.48l-3.601,1.68l-2.16-0.96l-2.64,2.16l-3.12-9.36l1.92-14.399l-11.279-2.16l-5.521-3.36l-5.04,5.04l-6,0.48
		v-1.2l-4.32-2.88l-1.92-3.84l0.96-3.36l-2.399-1.92l-5.04-0.24l-2.4-0.72l-4.8,3.12l-1.2,4.08l-1.2,0.479 M781.07,927.13l-3.84,6
		l-5.04-0.48l-2.4-2.64l2.16-6.96l-4.08-5.761 M684.83,950.17l0.24,0.239l2.88-1.92l1.68,2.4l2.4-2.16l3.6,3.6l5.76-2.64l0.24-2.4
		l-2.64-3.6l5.76-3.12l4.8,4.8 M684.83,950.17l-6.96-5.521l-2.88-0.72l-1.92-3.84l-5.04-3.84l-3.84-3.841h-0.24l-0.96,0.721
		l-4.08-0.96l-3.84,6.239l-2.4-1.68l-2.88-0.479l-0.72,0.239l-1.92-5.279l1.439-7.44l1.44-0.48l0.96-2.159l-0.24-0.48l-2.16-5.28
		l1.68-3.6l2.881-8.64l-4.08-1.92l-2.4-3.841 M736.91,885.369l-3.12,3.12 M733.79,888.49l-0.24-1.92l-5.04,0.72l-2.64,6.48
		l1.439,2.4l1.44,4.08l-2.16,0.72l-0.96,2.88l3.601,10.32l-1.2,3.6l1.439,8.88 M767.87,917.289l2.64-3.6l-3.12,0.48l-3.12-9.12
		l-1.68-6.48l0.72-3.12l9.601-11.04 M741.469,920.17v-1.2l1.2-2.641l4.8,1.921l2.4-1.681l-2.88-8.64l-3.36-4.8l-4.56,0.72
		l-2.88-1.44l-2.4-4.56v-9.36 M741.469,920.17l6.24,2.159l-0.72,2.641l11.52-3.601l4.8-6.239l4.561,2.159 M729.469,926.65l3.84,0.72
		l5.28-3.359l0.72-0.721l2.16-3.119 M709.55,945.369l2.16-7.199l15.84,0.479l0.96-0.479l1.2-2.16l-0.96-6.48l0.72-2.88
		 M600.12,945.85l5.28-2.4l2.88-2.399l-0.48-2.641l-2.88-1.92l0.721-1.68l10.079-2.4l3.601-0.479l6-4.561l1.67-3.6l5.76-0.24
		l-0.24-4.08l5.28-1.68l7.2,13.2l3.84,5.52h0.24 M600.12,945.85l0.24-0.24 M722.269,976.57l-2.159-2.88l0.72-5.52l-4.32-1.2
		l-0.96-1.92l1.681-6.96l-1.921-6.96l-5.76-5.761 M654.11,1026.01l6.72-7.44l9.6,1.2l2.88,2.64l2.881-3.6l6.479,0.24l6.72,2.399
		l4.32-2.88l12-0.96l-0.24-1.439l4.561,3.359h0.479l4.08-2.88l2.16,1.92l1.92-1.439l4.8-6.24 M648.83,1033.209l1.439-1.199
		l1.921-2.88"/>
</g>
<path id="Grenze" fill="none" stroke="#000000" stroke-width="1.5" stroke-linejoin="round" d="M302.031,15.328l-9.594,2.156
	l-6.969,8.156l-2.375,6l-5.062,17.969l-0.719,1.688l-2.625,6.25l-1.438,5.531v6.719l3.125,7.656l1.438,4.094l8.156,1.906
	l6.219-1.438l4.094,0.969l-4.812,6l4.344,14.156l-1.938,3.125l-4.062,4.312l-4.562-0.469l-1.219-0.969l1.219-2.156l-3.375-4.094
	l-0.719-1.188l0.969-2.625l-0.5-1.688l-4.312-2.656l-6-0.719l-12.469-5.281l-4.812-7.656l-3.125-2.188l-5.75,0.969l-6,6.719
	l-1.906,14.156l4.781,0.969l4.812-1.906l1.906,2.156l0.5,4.062l-1.219,10.562l-3.125,7.219l-4.312,5.031l-4.062,0.469l-4.812-2.406
	l-6.469-10.062l-3.844-0.5l-3.125,1.688l-3.844-5.281l-0.719-1.438L213,103.141l4.312,1.938l7.938-2.906l2.156-0.938l1.438-4.344
	l-10.562-24l-2.406-2.156l-4.312,1.219l-2.406-10.344l1.438-4.781l-2.625-1.688l-13.938-1.906l-14.156,1.188l-10.312,2.406
	l-18.25,2.625l-7.188,2.656l-5.031,0.719l-5.281-3.125l-22.562-0.969l-10.562,3.125l-8.656,6.25L78.594,81.797l-0.469,2.156
	l6.469,4.781l2.156,4.344l-6.719,6.938l-3.344-5.031l-4.562-3.125l-1.938,0.469l2.656,6.969l-3.594,4.812l-3.125,24.219
	l-2.406,4.562l3.844,5.531l27.594,1.906l10.812,2.656l-0.5,0.719l-7.438-0.25l-1.906,7.438l-1.219,6.969l-2.625,3.375l0.469,11.281
	L87,185.703l0.469,3.844l2.656,2.156l-0.719,7.906l1.688,17.062l-2.406,5.5l-3.125,9.625l-4.312,6.469l-5.062,7.688l-4.781,6.469
	l0.719,3.125l-3.375,6.25l-1.188,12.938l-2.875,25.937l-1.938,2.406l-5.031-1.688l-4.094-1.688l-3.094,1.438l-5.062-0.469
	l-3.094-2.656H31.094l-8.188-0.468l-7.188,4.78l2.156,3.125l-1.188,6l6.219,6.5l-6.719,2.156l-5.5-0.719l3.125,8.156l-0.5,2.625
	l-0.719,4.562l5.781,4.812l0.469,0.469l4.312,2.156l11.281,0.5l0.969,1.906l12.219,3.844l4.562-6.469l2.906,2.375l1.438,6.25
	l3.344,6.5L63,358.734l1.906,5.281l-0.219,5.062l-7.219,14.625l1.938,7.438l3.344,3.844l4.812-0.25l3.344-4.312l12.5-0.25h0.219
	h0.969l11.531,0.719L99,387.077h1.906l5.281-2.656l2.188-2.875l6.719-1.938l1.656-4.312l3.625-1.688l8.875-5.75l0.938-0.469
	l0.719-0.25l1.219,0.719l5.031-1.688l0.969-6.469l2.875-2.625l0.25-1.469l-5.531-2.625l6.469-9.844l11.062,4.562l3.594,13.188
	l5.031,2.188l4.812,3.094l4.312,2.156l4.094,0.5l7.188-2.656l4.094,3.844l2.156,0.25l1.438,6.969l2.406,2.625l1.656,2.875
	l-6.719,3.125v2.406l3.594,3.594l-4.781,2.406v6.719l-0.719,2.406l-2.875,5.281l3.594,4.781l12.719,2.156v3.125l-2.156,0.719
	l0.469,9.375l-5.281-0.25l-1.906,2.406l-10.812,4.812l5.031,6.219l-0.469,1.219l9.125,4.062l7.438-7.188l1.906,1.188l1.938-1.188
	l5.5,2.625l5.281-3.344h6l3.844-3.375l6.719-7.688l2.406,0.25l0.719-2.406l8.156,1.438l6.5,3.125l5.75-0.469l0.25-4.812l6-4.312
	l3.844-0.719l5.75-6.25l-6-2.375l-4.562-4.562l3.594-12.5l-0.469-1.906l0.219-9.594L261,372.671l-7.188-5.062l-11.281-6l-1.938-11.5
	l10.312,2.875l3.625-0.969l2.875,0.969l5.75-3.375l0.969-6.938l6.719-5.281l7.438,3.125l13.438-6.969l7.188,7.438l-0.219,13.188
	l2.156,3.625l-2.156,7.906h1.688l1.188-1.438l2.875,3.125l4.312-1.688l1.688-0.719l9.375,2.406l5.281-1.438l1.188-1.938l3.344,0.25
	l2.406,0.25l8.875-12.719l2.656-0.719l0.969-4.094l4.312-5.281l6,0.719l6,4.812l-6.25,7.906l4.312,7.188l-4.062,9.844l-3.125,4.562
	l-2.406,2.656l-8.875,3.125l-4.062,14.156l14.875,7.438l-2.156,2.625l-2.188,2.875l-0.219,6.5l-8.406-2.875l4.312,5.75l-0.969,7.906
	l3.625-0.719l5.031-2.156l4.312,3.844l3.844-1.188l2.656,0.938l1.906,3.375l-2.406,4.812l1.688,0.469l5.281,6.25l-2.656,2.375
	l0.25,4.094l1.688,7.906l-1.219,1.438l2.406,1.469l-3.125,3.094l2.906,4.812l3.094-2.406h8.188L381,469.39l-2.406,0.469l0.25,5.531
	l2.875,2.406l2.406-0.5l3.344,1.688l1.688,6.469l-1.906,7.938l4.062-2.156l6.719,1.906l7.688-1.688v1.938l-3.594,3.844l-0.25,7.906
	l2.156,2.406L399,512.328l-0.719,1.469l-0.969,1.906l-2.406,0.25l-0.938,4.781l2.156,1.438l-0.25,4.562l0.719,0.969L393,541.141
	l6.25,0.968l3.344-0.968l3.594-0.719l4.562-0.719l-0.719,4.312l0.719,1.688h5.531l1.656-2.156l3.375,3.594l3.125-0.719l3.344-0.969
	l3.375,4.812l6.969,7.188l-1.938,3.125l-6.469-3.125l0.219,3.375l2.906,3.844l-5.531-0.719l0.469,1.438l0.5,4.562l-4.812,2.375
	l4.812,8.405l3.594,2.657l-0.969,1.906l-1.188,4.094l2.406,6.218l-1.938,3.125l-4.062,0.5l-5.062,2.875l-1.688,2.875l2.656,1.907
	l-3.844,1.938v0.719l0.969,1.687l1.688,2.625l9.812,5.75l6,0.72l8.188,4.344l5.75-5.531v-4.562l-5.031,1.938l-4.562-6.5
	l-0.719-1.688l11.75-5.75l3.344-5.031h1.219l3.844,1.687l1.688,6.938l2.625,0.25l-2.625-9.844l7.656-0.97l4.094,6.5l-0.719,3.345
	l2.625-0.72l6.5-4.312l2.625-2.406l0.469-2.625l4.812-1.438l5.031,1.438l0.719-3.375l10.344,0.968l0.219-0.25l2.656-3.343
	l0.969-5.062l3.594-4.531l5.031,2.156l5.281-2.656l3.844-1.906l1.188-4.312l5.281-2.188l3.125-4.062l-0.25-3.375l2.156-2.875
	l-0.219-4.781l9.594-0.25l6.969,3.594l2.156,2.406l1.906,2.406l5.531-0.72l5.281-4.343l2.625-0.938l6.5,4.562l1.438-4.562
	l-3.375-1.438l-1.656-4.094l1.656-2.156l0.25-2.657l3.844-1.655l0.719-2.156l3.594-0.5l-2.625-3.125l-2.406-4.781l-0.25-2.157
	l0.969-3.124l-0.719-2.656L579,525.297l-3.844-9.125l-4.312-1.906l-2.656-3.845l-0.469-10.562l1.438-1.688l-1.688-1.906l8.656-8.406
	l2.156-3.125l-0.969-4.562l-2.656-1.656l-1.906-0.719v-4.094l4.562-3.375l0.969-0.938l-1.438-1.219l-3.125,0.969v-1.906
	l-4.812-3.375l-3.844-5.281l3.125-1.688l2.656,0.719l4.531-1.188l3.375-3.344l-1.188-3.625l3.344-0.719l3.125-0.938l4.312-0.25
	l3.125,0.25l2.656,0.219h5.5h0.25l3.844-0.219l1.656-0.5l4.562-1.906l7.219-0.25h3.344l2.656,0.25l0.969-3.375l-0.25-3.594
	l-4.094-2.156v-1.688l4.812-0.469l7.438-5.781v-0.219l3.594-4.312l0.969-5.281l-6-1.688l-0.719-4.812l4.312-3.844l4.312-1.188
	l1.438-1.688l-1.656-3.594l-2.156,0.469l-0.5-4.062l-3.844-2.656l-2.406-4.062v-0.719l3.625-2.656l-2.875-4.562l-4.344-3.125
	l-0.719-1.656l7.938-0.969l4.062-2.156l0.969-4.312l-0.969-0.5L627,362.577l-2.875-3.594l-6.5-7.906v-2.656l2.156-5.531l1.219-0.469
	h7.188l-8.156-10.562l-2.406-6l1.688-3.344l-1.188-1.688l4.531-3.375l0.5-4.781l-1.438-0.5l-5.531,4.094l-3.594-5.531l-4.562-7.906
	l-5.531-8.405l-0.938-3.344l-4.344,0.938l-0.938-8.625l-4.562-6.969l0.219-3.594l-0.219-2.406l0.719-8.156l10.781-2.656l9.375-0.719
	l3.125,0.25l7.906-6.969l0.719-5.5l3.125-0.969l9.844-0.719l0.969-0.25l0.469,3.375l2.406,0.969l6.469-2.656l8.656,1.688
	l1.906,1.688l4.812,2.375l3.594-1.906l3.594,2.406l9.594-5.781l3.594-0.938l3.125-3.375l0.969-1.188l0.969-0.719l3.594-2.656
	l4.812-0.719l-1.219-8.156l1.938-7.438l6.219,1.906l5.531-8.875l-7.688-3.844l-5.281,0.969l-3.844-3.594l-3.344-3.125l-4.812,0.969
	l-5.75,2.875l-5.531,1.906l-1.688-1.656l-1.438-1.938L663,200.328l-0.25-4.312l-5.75-5.5l-0.719-0.25l-3.844,1.906l-3.594-5.031
	l3.094-3.844l0.25-1.188l-8.156-2.656v-2.375l-7.438-3.625l-6.719-11.031l-4.312-5.281l-3.125-10.562l-5.781-0.25l-2.625-3.094
	h-1.688l-5.281,6l-1.438-0.969l0.25,2.406l-4.562,2.875l-4.562-2.156l-5.531-3.375L591,145.61l-8.656-7.188l-6.719,0.25h-0.469
	l-7.688,1.438h-0.25l-0.938,0.719l-8.406-2.156h-1.438l-6.719-3.594l-5.531-2.906l-4.562-3.094l-3.594-3.125l-5.281,0.219
	l-3.594-1.906l-6.719,3.344l-4.312,5.531l-8.188-0.469l-3.594-4.094l-5.281-2.875l-3.844-6.25l-4.062-2.375l-3.125,6.719
	l-6.25,4.781l-3.344-2.875l-4.812,1.688L471,128.328l2.156-5.031l-3.375-4.781l-5.031,6.469l-12.969-17.531l-0.469-8.375l0.969-0.75
	l0.219-2.375l-6-0.969l-7.656-1.688l-5.781-4.062l-2.625-1.438l-3.125-1.938l-5.75-4.562l-1.938-3.344l-2.156-10.094l-1.906-4.312
	l-2.906-3.844l-8.625-7.688l-6.469-13.188l-0.719-1.688l-0.469-1.188l-3.844-5.531l-1.219-1.906l-1.438-2.406l-8.625-5.031
	l-3.625-1.438l-4.312-0.719l-3.125,0.219l-21.344-0.219l-4.094,1.438l3.844,8.875l-8.875-0.719l-7.188,2.156l-10.562-1.188
	l-6.25-0.719l-3.594-2.188l-6.5-4.781L302.031,15.328z M190.437,35.485l-4.812,1.188l2.656,3.594l1.438-3.344l12.969,3.344
	l-3.594-3.344L190.437,35.485z M165,37.86l-4.812,4.312l2.188,2.406l1.906-2.875l8.406,0.469l8.625-1.656l-4.062-2.188L165,37.86z
	 M135.469,42.422l-3.844,4.094l1.688,4.562l4.094-2.406l1.688-2.875l15.812-0.25v-1.219l-4.781-1.656L135.469,42.422z
	 M121.562,46.985l-4.312,1.688l0.719,1.438l10.062,1.188l-0.938-3.344L121.562,46.985z M93.25,48.891l-6.719,2.906l1.906,3.094
	l16.094-1.188l11.031-2.875l-2.156-1.938H93.25z M70.687,57.078l-20.406,1.906l-0.969,0.969l3.594,1.188l12-2.156l15.125,0.25
	l0.25-1.219L70.687,57.078z M51.969,63.297l-4.344,1.938l0.75,3.594l2.375,1.438l1.938-0.469l1.438-4.094L51.969,63.297z
	 M32.031,70.735l-13.438,4.094l0.719,5.031l6,4.562l5.531,0.719l1.906-1.688l7.219-7.438l-1.219-1.688L32.031,70.735z
	 M270.844,168.891l10.062,6l2.656,2.406l0.969,1.438l1.656,1.688l3.844,0.969l5.281,0.938l2.156-0.219l5.781-0.719l4.781,4.062
	l3.594,1.688l1.219-0.969h6l5.281,7.438l11.5-4.531l5.281,6.219l-5.031,2.156l2.875,3.625l3.125,1.188l-4.312,2.406l2.406,9.344
	l-8.875,7.938l-13.938-3.125l-5.531-3.844l-0.938-3.375l-1.938,3.375l-3.344,1.188l-3.125-2.375l-0.25-7.469l-7.656-7.906
	l-4.562-13.688l-6.5-2.156l-8.875-5.5l-3.344-5.781L270.844,168.891z"/>
<g id="Nummern">
	<text id="text3756" transform="matrix(1 0 0 1 103.0872 114.4329)" font-family="'DejaVuSans'" font-size="14">24</text>
	<text id="text3773" transform="matrix(1 0 0 1 110.113 213.2561)" font-family="'DejaVuSans'" font-size="14">25</text>
	<text id="text3775" transform="matrix(1 0 0 1 187.0793 97.9661)" font-family="'DejaVuSans'" font-size="14">26</text>
	<text id="text3777" transform="matrix(1 0 0 1 202.0891 177.8069)" font-family="'DejaVuSans'" font-size="14">27</text>
	<text id="text3783" transform="matrix(1 0 0 1 257.9773 208.4651)" font-family="'DejaVuSans'" font-size="14">28</text>
	<text id="text3785" transform="matrix(1 0 0 1 322.5627 74.3264)" font-family="'DejaVuSans'" font-size="14">29</text>
	<text id="text3787" transform="matrix(1 0 0 1 374.0505 140.2668)" font-family="'DejaVuSans'" font-size="14">30</text>
	<text id="text3789" transform="matrix(1 0 0 1 96.2883 324.9895)" font-family="'DejaVuSans'" font-size="14">31</text>
	<text id="text3791" transform="matrix(1 0 0 1 199.2634 265.8245)" font-family="'DejaVuSans'" font-size="14">32</text>
	<text id="text3793" transform="matrix(1 0 0 1 174.8748 352.5403)" font-family="'DejaVuSans'" font-size="14">38</text>
	<text id="text3795" transform="matrix(1 0 0 1 194.9685 396.1809)" font-family="'DejaVuSans'" font-size="14">39</text>
	<text id="text3797" transform="matrix(1 0 0 1 295.4641 296.0842)" font-family="'DejaVuSans'" font-size="14">33</text>
	<text id="text3799" transform="matrix(1 0 0 1 345.5964 226.5305)" font-family="'DejaVuSans'" font-size="14">34</text>
	<text id="text3801" transform="matrix(1 0 0 1 440.8943 213.885)" font-family="'DejaVuSans'" font-size="14">35</text>
	<text id="text3803" transform="matrix(1 0 0 1 468.8962 157.429)" font-family="'DejaVuSans'" font-size="14">36</text>
	<text id="text3805" transform="matrix(1 0 0 1 583.1619 176.3987)" font-family="'DejaVuSans'" font-size="14">37</text>
	<text id="text3807" transform="matrix(1 0 0 1 508.6404 268.9856)" font-family="'DejaVuSans'" font-size="14">44</text>
	<text id="text3809" transform="matrix(1 0 0 1 546.5789 354.3469)" font-family="'DejaVuSans'" font-size="14">45</text>
	<text id="text3811" transform="matrix(1 0 0 1 426.8923 341.7004)" font-family="'DejaVuSans'" font-size="14">43</text>
	<text id="text3813" transform="matrix(1 0 0 1 449.9265 369.7024)" font-family="'DejaVuSans'" font-size="14">41</text>
	<text id="text3815" transform="matrix(1 0 0 1 437.281 382.3489)" font-family="'DejaVuSans'" font-size="14">42</text>
	<text id="text3817" transform="matrix(1 0 0 1 427.7966 403.1243)" font-family="'DejaVuSans'" font-size="14">47</text>
	<text id="text3819" transform="matrix(1 0 0 1 352.823 336.7327)" font-family="'DejaVuSans'" font-size="14">40</text>
	<text id="text3821" transform="matrix(1 0 0 1 390.7615 456.4182)" font-family="'DejaVuSans'" font-size="14">46</text>
	<text id="text3823" transform="matrix(1 0 0 1 467.0896 443.7717)" font-family="'DejaVuSans'" font-size="14">48</text>
	<text id="text3825" transform="matrix(1 0 0 1 550.6433 400.8655)" font-family="'DejaVuSans'" font-size="14">50</text>
	<text id="text3827" transform="matrix(1 0 0 1 587.6785 367.8958)" font-family="'DejaVuSans'" font-size="14">51</text>
	<text id="text3829" transform="matrix(1 0 0 1 552.9021 437.9006)" font-family="'DejaVuSans'" font-size="14">49</text>
	<text id="text3831" transform="matrix(1 0 0 1 479.283 525.5198)" font-family="'DejaVuSans'" font-size="14">52</text>
	<text id="text3833" transform="matrix(1 0 0 1 469.7986 576.1038)" font-family="'DejaVuSans'" font-size="14">53</text>
</g>
</svg>
