<?xml version="1.0" encoding="UTF-8" standalone="no"?>
<svg
xmlns="http://www.w3.org/2000/svg"
version="1.0"
width="1600" height="1600"
id="C5_root_diagram_F4plane.svg">
<!-- Graph: v=50 e=0 -->
<!-- Projection: Point overlap:1 2 ,  visible v=41 e=200 -->
<g style="stroke:#000000;stroke-width:6.0;stroke-opacity:0.50;">
<line x1="422.142" y1="800.000" x2="800.000" y2="1177.858"/>
<line x1="422.142" y1="800.000" x2="800.000" y2="422.142"/>
<line x1="422.142" y1="800.000" x2="1316.164" y2="283.836"/>
<line x1="422.142" y1="800.000" x2="283.836" y2="1316.164"/>
<line x1="422.142" y1="800.000" x2="1316.164" y2="1316.164"/>
<line x1="422.142" y1="800.000" x2="283.836" y2="283.836"/>
<line x1="422.142" y1="800.000" x2="800.000" y2="800.000"/>
<line x1="1177.858" y1="800.000" x2="800.000" y2="1177.858"/>
<line x1="1177.858" y1="800.000" x2="800.000" y2="422.142"/>
<line x1="1177.858" y1="800.000" x2="1316.164" y2="283.836"/>
<line x1="1177.858" y1="800.000" x2="283.836" y2="1316.164"/>
<line x1="1177.858" y1="800.000" x2="1316.164" y2="1316.164"/>
<line x1="1177.858" y1="800.000" x2="283.836" y2="283.836"/>
<line x1="1177.858" y1="800.000" x2="800.000" y2="800.000"/>
<line x1="800.000" y1="1177.858" x2="1316.164" y2="283.836"/>
<line x1="800.000" y1="1177.858" x2="283.836" y2="1316.164"/>
<line x1="800.000" y1="1177.858" x2="1316.164" y2="1316.164"/>
<line x1="800.000" y1="1177.858" x2="283.836" y2="283.836"/>
<line x1="800.000" y1="1177.858" x2="800.000" y2="800.000"/>
<line x1="800.000" y1="422.142" x2="1316.164" y2="283.836"/>
<line x1="800.000" y1="422.142" x2="283.836" y2="1316.164"/>
<line x1="800.000" y1="422.142" x2="1316.164" y2="1316.164"/>
<line x1="800.000" y1="422.142" x2="283.836" y2="283.836"/>
<line x1="800.000" y1="422.142" x2="800.000" y2="800.000"/>
<line x1="1316.164" y1="283.836" x2="1316.164" y2="1316.164"/>
<line x1="1316.164" y1="283.836" x2="283.836" y2="283.836"/>
<line x1="1316.164" y1="283.836" x2="800.000" y2="800.000"/>
<line x1="283.836" y1="1316.164" x2="1316.164" y2="1316.164"/>
<line x1="283.836" y1="1316.164" x2="283.836" y2="283.836"/>
<line x1="283.836" y1="1316.164" x2="800.000" y2="800.000"/>
<line x1="1316.164" y1="1316.164" x2="800.000" y2="800.000"/>
<line x1="283.836" y1="283.836" x2="800.000" y2="800.000"/>
<line x1="611.071" y1="988.929" x2="869.153" y2="541.918"/>
<line x1="611.071" y1="988.929" x2="352.989" y2="1058.082"/>
<line x1="611.071" y1="988.929" x2="869.153" y2="1058.082"/>
<line x1="611.071" y1="988.929" x2="352.989" y2="541.918"/>
<line x1="611.071" y1="988.929" x2="611.071" y2="800.000"/>
<line x1="611.071" y1="988.929" x2="1058.082" y2="730.847"/>
<line x1="611.071" y1="988.929" x2="541.918" y2="1247.011"/>
<line x1="611.071" y1="988.929" x2="1058.082" y2="1247.011"/>
<line x1="611.071" y1="988.929" x2="541.918" y2="730.847"/>
<line x1="611.071" y1="988.929" x2="800.000" y2="988.929"/>
<line x1="988.929" y1="988.929" x2="1247.011" y2="541.918"/>
<line x1="988.929" y1="988.929" x2="730.847" y2="1058.082"/>
<line x1="988.929" y1="988.929" x2="1247.011" y2="1058.082"/>
<line x1="988.929" y1="988.929" x2="730.847" y2="541.918"/>
<line x1="988.929" y1="988.929" x2="988.929" y2="800.000"/>
<line x1="988.929" y1="988.929" x2="1058.082" y2="730.847"/>
<line x1="988.929" y1="988.929" x2="541.918" y2="1247.011"/>
<line x1="988.929" y1="988.929" x2="1058.082" y2="1247.011"/>
<line x1="988.929" y1="988.929" x2="541.918" y2="730.847"/>
<line x1="988.929" y1="988.929" x2="800.000" y2="988.929"/>
<line x1="611.071" y1="611.071" x2="869.153" y2="541.918"/>
<line x1="611.071" y1="611.071" x2="352.989" y2="1058.082"/>
<line x1="611.071" y1="611.071" x2="869.153" y2="1058.082"/>
<line x1="611.071" y1="611.071" x2="352.989" y2="541.918"/>
<line x1="611.071" y1="611.071" x2="611.071" y2="800.000"/>
<line x1="611.071" y1="611.071" x2="1058.082" y2="352.989"/>
<line x1="611.071" y1="611.071" x2="541.918" y2="869.153"/>
<line x1="611.071" y1="611.071" x2="1058.082" y2="869.153"/>
<line x1="611.071" y1="611.071" x2="541.918" y2="352.989"/>
<line x1="611.071" y1="611.071" x2="800.000" y2="611.071"/>
<line x1="988.929" y1="611.071" x2="1247.011" y2="541.918"/>
<line x1="988.929" y1="611.071" x2="730.847" y2="1058.082"/>
<line x1="988.929" y1="611.071" x2="1247.011" y2="1058.082"/>
<line x1="988.929" y1="611.071" x2="730.847" y2="541.918"/>
<line x1="988.929" y1="611.071" x2="988.929" y2="800.000"/>
<line x1="988.929" y1="611.071" x2="1058.082" y2="352.989"/>
<line x1="988.929" y1="611.071" x2="541.918" y2="869.153"/>
<line x1="988.929" y1="611.071" x2="1058.082" y2="869.153"/>
<line x1="988.929" y1="611.071" x2="541.918" y2="352.989"/>
<line x1="988.929" y1="611.071" x2="800.000" y2="611.071"/>
<line x1="869.153" y1="541.918" x2="869.153" y2="1058.082"/>
<line x1="869.153" y1="541.918" x2="352.989" y2="541.918"/>
<line x1="869.153" y1="541.918" x2="611.071" y2="800.000"/>
<line x1="869.153" y1="541.918" x2="1058.082" y2="730.847"/>
<line x1="869.153" y1="541.918" x2="1058.082" y2="352.989"/>
<line x1="869.153" y1="541.918" x2="1316.164" y2="800.000"/>
<line x1="869.153" y1="541.918" x2="800.000" y2="283.836"/>
<line x1="869.153" y1="541.918" x2="1058.082" y2="541.918"/>
<line x1="1247.011" y1="541.918" x2="1247.011" y2="1058.082"/>
<line x1="1247.011" y1="541.918" x2="730.847" y2="541.918"/>
<line x1="1247.011" y1="541.918" x2="988.929" y2="800.000"/>
<line x1="1247.011" y1="541.918" x2="1058.082" y2="730.847"/>
<line x1="1247.011" y1="541.918" x2="1058.082" y2="352.989"/>
<line x1="1247.011" y1="541.918" x2="1316.164" y2="800.000"/>
<line x1="1247.011" y1="541.918" x2="800.000" y2="283.836"/>
<line x1="1247.011" y1="541.918" x2="1058.082" y2="541.918"/>
<line x1="352.989" y1="1058.082" x2="869.153" y2="1058.082"/>
<line x1="352.989" y1="1058.082" x2="352.989" y2="541.918"/>
<line x1="352.989" y1="1058.082" x2="611.071" y2="800.000"/>
<line x1="352.989" y1="1058.082" x2="541.918" y2="1247.011"/>
<line x1="352.989" y1="1058.082" x2="541.918" y2="869.153"/>
<line x1="352.989" y1="1058.082" x2="800.000" y2="1316.164"/>
<line x1="352.989" y1="1058.082" x2="283.836" y2="800.000"/>
<line x1="352.989" y1="1058.082" x2="541.918" y2="1058.082"/>
<line x1="730.847" y1="1058.082" x2="1247.011" y2="1058.082"/>
<line x1="730.847" y1="1058.082" x2="730.847" y2="541.918"/>
<line x1="730.847" y1="1058.082" x2="988.929" y2="800.000"/>
<line x1="730.847" y1="1058.082" x2="541.918" y2="1247.011"/>
<line x1="730.847" y1="1058.082" x2="541.918" y2="869.153"/>
<line x1="730.847" y1="1058.082" x2="800.000" y2="1316.164"/>
<line x1="730.847" y1="1058.082" x2="283.836" y2="800.000"/>
<line x1="730.847" y1="1058.082" x2="541.918" y2="1058.082"/>
<line x1="869.153" y1="1058.082" x2="611.071" y2="800.000"/>
<line x1="869.153" y1="1058.082" x2="1058.082" y2="1247.011"/>
<line x1="869.153" y1="1058.082" x2="1058.082" y2="869.153"/>
<line x1="869.153" y1="1058.082" x2="1316.164" y2="800.000"/>
<line x1="869.153" y1="1058.082" x2="800.000" y2="1316.164"/>
<line x1="869.153" y1="1058.082" x2="1058.082" y2="1058.082"/>
<line x1="1247.011" y1="1058.082" x2="988.929" y2="800.000"/>
<line x1="1247.011" y1="1058.082" x2="1058.082" y2="1247.011"/>
<line x1="1247.011" y1="1058.082" x2="1058.082" y2="869.153"/>
<line x1="1247.011" y1="1058.082" x2="1316.164" y2="800.000"/>
<line x1="1247.011" y1="1058.082" x2="800.000" y2="1316.164"/>
<line x1="1247.011" y1="1058.082" x2="1058.082" y2="1058.082"/>
<line x1="352.989" y1="541.918" x2="611.071" y2="800.000"/>
<line x1="352.989" y1="541.918" x2="541.918" y2="730.847"/>
<line x1="352.989" y1="541.918" x2="541.918" y2="352.989"/>
<line x1="352.989" y1="541.918" x2="800.000" y2="283.836"/>
<line x1="352.989" y1="541.918" x2="283.836" y2="800.000"/>
<line x1="352.989" y1="541.918" x2="541.918" y2="541.918"/>
<line x1="730.847" y1="541.918" x2="988.929" y2="800.000"/>
<line x1="730.847" y1="541.918" x2="541.918" y2="730.847"/>
<line x1="730.847" y1="541.918" x2="541.918" y2="352.989"/>
<line x1="730.847" y1="541.918" x2="800.000" y2="283.836"/>
<line x1="730.847" y1="541.918" x2="283.836" y2="800.000"/>
<line x1="730.847" y1="541.918" x2="541.918" y2="541.918"/>
<line x1="611.071" y1="800.000" x2="800.000" y2="988.929"/>
<line x1="611.071" y1="800.000" x2="800.000" y2="611.071"/>
<line x1="611.071" y1="800.000" x2="1058.082" y2="541.918"/>
<line x1="611.071" y1="800.000" x2="541.918" y2="1058.082"/>
<line x1="611.071" y1="800.000" x2="1058.082" y2="1058.082"/>
<line x1="611.071" y1="800.000" x2="541.918" y2="541.918"/>
<line x1="988.929" y1="800.000" x2="800.000" y2="988.929"/>
<line x1="988.929" y1="800.000" x2="800.000" y2="611.071"/>
<line x1="988.929" y1="800.000" x2="1058.082" y2="541.918"/>
<line x1="988.929" y1="800.000" x2="541.918" y2="1058.082"/>
<line x1="988.929" y1="800.000" x2="1058.082" y2="1058.082"/>
<line x1="988.929" y1="800.000" x2="541.918" y2="541.918"/>
<line x1="1058.082" y1="730.847" x2="1058.082" y2="1247.011"/>
<line x1="1058.082" y1="730.847" x2="541.918" y2="730.847"/>
<line x1="1058.082" y1="730.847" x2="800.000" y2="988.929"/>
<line x1="1058.082" y1="730.847" x2="1316.164" y2="800.000"/>
<line x1="1058.082" y1="730.847" x2="800.000" y2="283.836"/>
<line x1="1058.082" y1="730.847" x2="1058.082" y2="541.918"/>
<line x1="1058.082" y1="352.989" x2="1058.082" y2="869.153"/>
<line x1="1058.082" y1="352.989" x2="541.918" y2="352.989"/>
<line x1="1058.082" y1="352.989" x2="800.000" y2="611.071"/>
<line x1="1058.082" y1="352.989" x2="1316.164" y2="800.000"/>
<line x1="1058.082" y1="352.989" x2="800.000" y2="283.836"/>
<line x1="1058.082" y1="352.989" x2="1058.082" y2="541.918"/>
<line x1="541.918" y1="1247.011" x2="1058.082" y2="1247.011"/>
<line x1="541.918" y1="1247.011" x2="541.918" y2="730.847"/>
<line x1="541.918" y1="1247.011" x2="800.000" y2="988.929"/>
<line x1="541.918" y1="1247.011" x2="800.000" y2="1316.164"/>
<line x1="541.918" y1="1247.011" x2="283.836" y2="800.000"/>
<line x1="541.918" y1="1247.011" x2="541.918" y2="1058.082"/>
<line x1="541.918" y1="869.153" x2="1058.082" y2="869.153"/>
<line x1="541.918" y1="869.153" x2="541.918" y2="352.989"/>
<line x1="541.918" y1="869.153" x2="800.000" y2="611.071"/>
<line x1="541.918" y1="869.153" x2="800.000" y2="1316.164"/>
<line x1="541.918" y1="869.153" x2="283.836" y2="800.000"/>
<line x1="541.918" y1="869.153" x2="541.918" y2="1058.082"/>
<line x1="1058.082" y1="1247.011" x2="800.000" y2="988.929"/>
<line x1="1058.082" y1="1247.011" x2="1316.164" y2="800.000"/>
<line x1="1058.082" y1="1247.011" x2="800.000" y2="1316.164"/>
<line x1="1058.082" y1="1247.011" x2="1058.082" y2="1058.082"/>
<line x1="1058.082" y1="869.153" x2="800.000" y2="611.071"/>
<line x1="1058.082" y1="869.153" x2="1316.164" y2="800.000"/>
<line x1="1058.082" y1="869.153" x2="800.000" y2="1316.164"/>
<line x1="1058.082" y1="869.153" x2="1058.082" y2="1058.082"/>
<line x1="541.918" y1="730.847" x2="800.000" y2="988.929"/>
<line x1="541.918" y1="730.847" x2="800.000" y2="283.836"/>
<line x1="541.918" y1="730.847" x2="283.836" y2="800.000"/>
<line x1="541.918" y1="730.847" x2="541.918" y2="541.918"/>
<line x1="541.918" y1="352.989" x2="800.000" y2="611.071"/>
<line x1="541.918" y1="352.989" x2="800.000" y2="283.836"/>
<line x1="541.918" y1="352.989" x2="283.836" y2="800.000"/>
<line x1="541.918" y1="352.989" x2="541.918" y2="541.918"/>
<line x1="800.000" y1="988.929" x2="1058.082" y2="541.918"/>
<line x1="800.000" y1="988.929" x2="541.918" y2="1058.082"/>
<line x1="800.000" y1="988.929" x2="1058.082" y2="1058.082"/>
<line x1="800.000" y1="988.929" x2="541.918" y2="541.918"/>
<line x1="800.000" y1="611.071" x2="1058.082" y2="541.918"/>
<line x1="800.000" y1="611.071" x2="541.918" y2="1058.082"/>
<line x1="800.000" y1="611.071" x2="1058.082" y2="1058.082"/>
<line x1="800.000" y1="611.071" x2="541.918" y2="541.918"/>
<line x1="1316.164" y1="800.000" x2="1058.082" y2="541.918"/>
<line x1="1316.164" y1="800.000" x2="1058.082" y2="1058.082"/>
<line x1="800.000" y1="1316.164" x2="541.918" y2="1058.082"/>
<line x1="800.000" y1="1316.164" x2="1058.082" y2="1058.082"/>
<line x1="800.000" y1="283.836" x2="1058.082" y2="541.918"/>
<line x1="800.000" y1="283.836" x2="541.918" y2="541.918"/>
<line x1="283.836" y1="800.000" x2="541.918" y2="1058.082"/>
<line x1="283.836" y1="800.000" x2="541.918" y2="541.918"/>
<line x1="1058.082" y1="541.918" x2="1058.082" y2="1058.082"/>
<line x1="1058.082" y1="541.918" x2="541.918" y2="541.918"/>
<line x1="541.918" y1="1058.082" x2="1058.082" y2="1058.082"/>
<line x1="541.918" y1="1058.082" x2="541.918" y2="541.918"/>
</g>
<g style="stroke:#000000;stroke-width:3.0;fill:#ff0000">
<circle cx="422.142" cy="800.000" r="31.6"/>
<circle cx="1177.858" cy="800.000" r="31.6"/>
<circle cx="800.000" cy="1177.858" r="31.6"/>
<circle cx="800.000" cy="422.142" r="31.6"/>
<circle cx="1316.164" cy="283.836" r="31.6"/>
<circle cx="283.836" cy="1316.164" r="31.6"/>
<circle cx="1316.164" cy="1316.164" r="31.6"/>
<circle cx="283.836" cy="283.836" r="31.6"/>
<circle cx="611.071" cy="988.929" r="31.6"/>
<circle cx="988.929" cy="988.929" r="31.6"/>
<circle cx="611.071" cy="611.071" r="31.6"/>
<circle cx="988.929" cy="611.071" r="31.6"/>
<circle cx="869.153" cy="541.918" r="31.6"/>
<circle cx="1247.011" cy="541.918" r="31.6"/>
<circle cx="352.989" cy="1058.082" r="31.6"/>
<circle cx="730.847" cy="1058.082" r="31.6"/>
<circle cx="869.153" cy="1058.082" r="31.6"/>
<circle cx="1247.011" cy="1058.082" r="31.6"/>
<circle cx="352.989" cy="541.918" r="31.6"/>
<circle cx="730.847" cy="541.918" r="31.6"/>
<circle cx="1058.082" cy="730.847" r="31.6"/>
<circle cx="1058.082" cy="352.989" r="31.6"/>
<circle cx="541.918" cy="1247.011" r="31.6"/>
<circle cx="541.918" cy="869.153" r="31.6"/>
<circle cx="1058.082" cy="1247.011" r="31.6"/>
<circle cx="1058.082" cy="869.153" r="31.6"/>
<circle cx="541.918" cy="730.847" r="31.6"/>
<circle cx="541.918" cy="352.989" r="31.6"/>
<circle cx="1316.164" cy="800.000" r="31.6"/>
<circle cx="800.000" cy="1316.164" r="31.6"/>
<circle cx="800.000" cy="283.836" r="31.6"/>
<circle cx="283.836" cy="800.000" r="31.6"/>
</g>
<g style="stroke:#000000;stroke-width:3.0;fill:#ff7f00">
<circle cx="800.000" cy="800.000" r="31.6"/>
<circle cx="611.071" cy="800.000" r="31.6"/>
<circle cx="988.929" cy="800.000" r="31.6"/>
<circle cx="800.000" cy="988.929" r="31.6"/>
<circle cx="800.000" cy="611.071" r="31.6"/>
<circle cx="1058.082" cy="541.918" r="31.6"/>
<circle cx="541.918" cy="1058.082" r="31.6"/>
<circle cx="1058.082" cy="1058.082" r="31.6"/>
<circle cx="541.918" cy="541.918" r="31.6"/>
</g>
</svg>
