<?xml version="1.0" encoding="UTF-8" standalone="no"?>
<!-- Created with Inkscape (http://www.inkscape.org/) -->

<svg
   version="1.1"
   id="svg1"
   width="432"
   height="288"
   viewBox="0 0 432 288"
   sodipodi:docname="candamo2.svg"
   inkscape:version="1.3 (0e150ed6c4, 2023-07-21)"
   xml:space="preserve"
   xmlns:inkscape="http://www.inkscape.org/namespaces/inkscape"
   xmlns:sodipodi="http://sodipodi.sourceforge.net/DTD/sodipodi-0.dtd"
   xmlns="http://www.w3.org/2000/svg"
   xmlns:svg="http://www.w3.org/2000/svg"><defs
     id="defs1" /><sodipodi:namedview
     id="namedview1"
     pagecolor="#ffffff"
     bordercolor="#000000"
     borderopacity="0.25"
     inkscape:showpageshadow="2"
     inkscape:pageopacity="0.0"
     inkscape:pagecheckerboard="0"
     inkscape:deskcolor="#d1d1d1"
     inkscape:zoom="0.70710678"
     inkscape:cx="168.29141"
     inkscape:cy="107.48023"
     inkscape:window-width="1920"
     inkscape:window-height="1036"
     inkscape:window-x="0"
     inkscape:window-y="0"
     inkscape:window-maximized="1"
     inkscape:current-layer="svg1" /><rect
     style="display:inline;fill:#ffff00;fill-opacity:1;stroke:none;stroke-width:0.432;stroke-opacity:1"
     id="rect150232"
     width="432"
     height="288"
     x="0"
     y="0" /><rect
     style="display:inline;fill:#0007bf;fill-opacity:1;stroke:none;stroke-width:0.431999;stroke-opacity:1"
     id="rect150649"
     width="102.94215"
     height="288"
     x="0"
     y="0" /><g
     id="g151142"
     transform="matrix(0.43299897,0,0,0.48000001,-5.9668905,-1.8892886)"
     style="display:inline;stroke:none;stroke-width:1.19381;stroke-dasharray:none;stroke-opacity:1"
     inkscape:label="g151142"><path
       sodipodi:type="star"
       style="fill:#ffff00;fill-opacity:1;stroke:none;stroke-width:4.82995;stroke-dasharray:none;stroke-opacity:1"
       id="path150912"
       inkscape:flatsided="false"
       sodipodi:sides="8"
       sodipodi:cx="-623.61963"
       sodipodi:cy="397.0127"
       sodipodi:r1="181.94881"
       sodipodi:r2="71.831238"
       sodipodi:arg1="0.75060413"
       sodipodi:arg2="1.1433032"
       inkscape:rounded="0"
       inkscape:randomized="0"
       d="m -490.56466,521.11646 -103.2744,-58.73677 -23.45111,116.47169 -31.49286,-114.55919 -98.94036,65.77547 58.73676,-103.27439 -116.47168,-23.45112 114.55919,-31.49286 -65.77547,-98.94036 103.27439,58.73677 23.45112,-116.47169 31.49285,114.55919 98.94037,-65.77547 -58.73677,103.27439 116.47168,23.45112 -114.55919,31.49286 z"
       transform="matrix(0.26077146,0.01077317,-0.01023588,0.23385251,247.99077,-32.541673)" /><path
       sodipodi:type="star"
       style="fill:#ffff00;fill-opacity:1;stroke:none;stroke-width:4.82995;stroke-dasharray:none;stroke-opacity:1"
       id="path150912-5"
       inkscape:flatsided="false"
       sodipodi:sides="8"
       sodipodi:cx="-623.61963"
       sodipodi:cy="397.0127"
       sodipodi:r1="181.94881"
       sodipodi:r2="71.831238"
       sodipodi:arg1="0.75060413"
       sodipodi:arg2="1.1433032"
       inkscape:rounded="0"
       inkscape:randomized="0"
       d="m -490.56466,521.11646 -103.2744,-58.73677 -23.45111,116.47169 -31.49286,-114.55919 -98.94036,65.77547 58.73676,-103.27439 -116.47168,-23.45112 114.55919,-31.49286 -65.77547,-98.94036 103.27439,58.73677 23.45112,-116.47169 31.49285,114.55919 98.94037,-65.77547 -58.73677,103.27439 116.47168,23.45112 -114.55919,31.49286 z"
       transform="matrix(0.26077146,0.01077317,-0.01023588,0.23385251,350.68417,5.4044372)" /><g
       id="g156960"
       transform="translate(0,98.165715)"
       style="display:inline;stroke:none;stroke-width:1.19381;stroke-dasharray:none;stroke-opacity:1"><path
         sodipodi:type="star"
         style="fill:#ffff00;fill-opacity:1;stroke:none;stroke-width:4.82995;stroke-dasharray:none;stroke-opacity:1"
         id="path156956"
         inkscape:flatsided="false"
         sodipodi:sides="8"
         sodipodi:cx="-623.61963"
         sodipodi:cy="397.0127"
         sodipodi:r1="181.94881"
         sodipodi:r2="71.831238"
         sodipodi:arg1="0.75060413"
         sodipodi:arg2="1.1433032"
         inkscape:rounded="0"
         inkscape:randomized="0"
         d="m -490.56466,521.11646 -103.2744,-58.73677 -23.45111,116.47169 -31.49286,-114.55919 -98.94036,65.77547 58.73676,-103.27439 -116.47168,-23.45112 114.55919,-31.49286 -65.77547,-98.94036 103.27439,58.73677 23.45112,-116.47169 31.49285,114.55919 98.94037,-65.77547 -58.73677,103.27439 116.47168,23.45112 -114.55919,31.49286 z"
         transform="matrix(0.26077146,0.01077317,-0.01023588,0.23385251,247.99077,-32.541673)" /><path
         sodipodi:type="star"
         style="fill:#ffff00;fill-opacity:1;stroke:none;stroke-width:4.82995;stroke-dasharray:none;stroke-opacity:1"
         id="path156958"
         inkscape:flatsided="false"
         sodipodi:sides="8"
         sodipodi:cx="-623.61963"
         sodipodi:cy="397.0127"
         sodipodi:r1="181.94881"
         sodipodi:r2="71.831238"
         sodipodi:arg1="0.75060413"
         sodipodi:arg2="1.1433032"
         inkscape:rounded="0"
         inkscape:randomized="0"
         d="m -490.56466,521.11646 -103.2744,-58.73677 -23.45111,116.47169 -31.49286,-114.55919 -98.94036,65.77547 58.73676,-103.27439 -116.47168,-23.45112 114.55919,-31.49286 -65.77547,-98.94036 103.27439,58.73677 23.45112,-116.47169 31.49285,114.55919 98.94037,-65.77547 -58.73677,103.27439 116.47168,23.45112 -114.55919,31.49286 z"
         transform="matrix(0.26077146,0.01077317,-0.01023588,0.23385251,350.68417,5.4044372)" /></g><g
       id="g156977"
       transform="translate(0,201.96188)"
       style="display:inline;stroke:none;stroke-width:1.19381;stroke-dasharray:none;stroke-opacity:1"><path
         sodipodi:type="star"
         style="fill:#ffff00;fill-opacity:1;stroke:none;stroke-width:4.82995;stroke-dasharray:none;stroke-opacity:1"
         id="path156973"
         inkscape:flatsided="false"
         sodipodi:sides="8"
         sodipodi:cx="-623.61963"
         sodipodi:cy="397.0127"
         sodipodi:r1="181.94881"
         sodipodi:r2="71.831238"
         sodipodi:arg1="0.75060413"
         sodipodi:arg2="1.1433032"
         inkscape:rounded="0"
         inkscape:randomized="0"
         d="m -490.56466,521.11646 -103.2744,-58.73677 -23.45111,116.47169 -31.49286,-114.55919 -98.94036,65.77547 58.73676,-103.27439 -116.47168,-23.45112 114.55919,-31.49286 -65.77547,-98.94036 103.27439,58.73677 23.45112,-116.47169 31.49285,114.55919 98.94037,-65.77547 -58.73677,103.27439 116.47168,23.45112 -114.55919,31.49286 z"
         transform="matrix(0.26077146,0.01077317,-0.01023588,0.23385251,247.99077,-32.541673)" /><path
         sodipodi:type="star"
         style="fill:#ffff00;fill-opacity:1;stroke:none;stroke-width:4.82995;stroke-dasharray:none;stroke-opacity:1"
         id="path156975"
         inkscape:flatsided="false"
         sodipodi:sides="8"
         sodipodi:cx="-623.61963"
         sodipodi:cy="397.0127"
         sodipodi:r1="181.94881"
         sodipodi:r2="71.831238"
         sodipodi:arg1="0.75060413"
         sodipodi:arg2="1.1433032"
         inkscape:rounded="0"
         inkscape:randomized="0"
         d="m -490.56466,521.11646 -103.2744,-58.73677 -23.45111,116.47169 -31.49286,-114.55919 -98.94036,65.77547 58.73676,-103.27439 -116.47168,-23.45112 114.55919,-31.49286 -65.77547,-98.94036 103.27439,58.73677 23.45112,-116.47169 31.49285,114.55919 98.94037,-65.77547 -58.73677,103.27439 116.47168,23.45112 -114.55919,31.49286 z"
         transform="matrix(0.26077146,0.01077317,-0.01023588,0.23385251,350.68417,5.4044372)" /></g><g
       id="g156983"
       transform="translate(0,304.42767)"
       style="display:inline;stroke:none;stroke-width:1.19381;stroke-dasharray:none;stroke-opacity:1"><path
         sodipodi:type="star"
         style="fill:#ffff00;fill-opacity:1;stroke:none;stroke-width:4.82995;stroke-dasharray:none;stroke-opacity:1"
         id="path156979"
         inkscape:flatsided="false"
         sodipodi:sides="8"
         sodipodi:cx="-623.61963"
         sodipodi:cy="397.0127"
         sodipodi:r1="181.94881"
         sodipodi:r2="71.831238"
         sodipodi:arg1="0.75060413"
         sodipodi:arg2="1.1433032"
         inkscape:rounded="0"
         inkscape:randomized="0"
         d="m -490.56466,521.11646 -103.2744,-58.73677 -23.45111,116.47169 -31.49286,-114.55919 -98.94036,65.77547 58.73676,-103.27439 -116.47168,-23.45112 114.55919,-31.49286 -65.77547,-98.94036 103.27439,58.73677 23.45112,-116.47169 31.49285,114.55919 98.94037,-65.77547 -58.73677,103.27439 116.47168,23.45112 -114.55919,31.49286 z"
         transform="matrix(0.26077146,0.01077317,-0.01023588,0.23385251,247.99077,-32.541673)" /><path
         sodipodi:type="star"
         style="fill:#ffff00;fill-opacity:1;stroke:none;stroke-width:4.82995;stroke-dasharray:none;stroke-opacity:1"
         id="path156981"
         inkscape:flatsided="false"
         sodipodi:sides="8"
         sodipodi:cx="-623.61963"
         sodipodi:cy="397.0127"
         sodipodi:r1="181.94881"
         sodipodi:r2="71.831238"
         sodipodi:arg1="0.75060413"
         sodipodi:arg2="1.1433032"
         inkscape:rounded="0"
         inkscape:randomized="0"
         d="m -490.56466,521.11646 -103.2744,-58.73677 -23.45111,116.47169 -31.49286,-114.55919 -98.94036,65.77547 58.73676,-103.27439 -116.47168,-23.45112 114.55919,-31.49286 -65.77547,-98.94036 103.27439,58.73677 23.45112,-116.47169 31.49285,114.55919 98.94037,-65.77547 -58.73677,103.27439 116.47168,23.45112 -114.55919,31.49286 z"
         transform="matrix(0.26077146,0.01077317,-0.01023588,0.23385251,350.68417,5.4044372)" /><path
         sodipodi:type="star"
         style="fill:#ffff00;fill-opacity:1;stroke:none;stroke-width:4.82995;stroke-dasharray:none;stroke-opacity:1"
         id="path157074"
         inkscape:flatsided="false"
         sodipodi:sides="8"
         sodipodi:cx="-623.61963"
         sodipodi:cy="397.0127"
         sodipodi:r1="181.94881"
         sodipodi:r2="71.831238"
         sodipodi:arg1="0.75060413"
         sodipodi:arg2="1.1433032"
         inkscape:rounded="0"
         inkscape:randomized="0"
         d="m -490.56466,521.11646 -103.2744,-58.73677 -23.45111,116.47169 -31.49286,-114.55919 -98.94036,65.77547 58.73676,-103.27439 -116.47168,-23.45112 114.55919,-31.49286 -65.77547,-98.94036 103.27439,58.73677 23.45112,-116.47169 31.49285,114.55919 98.94037,-65.77547 -58.73677,103.27439 116.47168,23.45112 -114.55919,31.49286 z"
         transform="matrix(0.26077146,0.01077317,-0.01023588,0.23385251,247.99077,163.73794)" /></g><g
       id="g157021"
       transform="translate(0,408.67715)"
       style="display:inline;stroke:none;stroke-width:1.19381;stroke-dasharray:none;stroke-opacity:1"><path
         sodipodi:type="star"
         style="fill:#ffff00;fill-opacity:1;stroke:none;stroke-width:4.82995;stroke-dasharray:none;stroke-opacity:1"
         id="path157017"
         inkscape:flatsided="false"
         sodipodi:sides="8"
         sodipodi:cx="-623.61963"
         sodipodi:cy="397.0127"
         sodipodi:r1="181.94881"
         sodipodi:r2="71.831238"
         sodipodi:arg1="0.75060413"
         sodipodi:arg2="1.1433032"
         inkscape:rounded="0"
         inkscape:randomized="0"
         d="m -490.56466,521.11646 -103.2744,-58.73677 -23.45111,116.47169 -31.49286,-114.55919 -98.94036,65.77547 58.73676,-103.27439 -116.47168,-23.45112 114.55919,-31.49286 -65.77547,-98.94036 103.27439,58.73677 23.45112,-116.47169 31.49285,114.55919 98.94037,-65.77547 -58.73677,103.27439 116.47168,23.45112 -114.55919,31.49286 z"
         transform="matrix(0.26077146,0.01077317,-0.01023588,0.23385251,247.99077,-32.541673)" /><path
         sodipodi:type="star"
         style="fill:#ffff00;fill-opacity:1;stroke:none;stroke-width:4.82995;stroke-dasharray:none;stroke-opacity:1"
         id="path157019"
         inkscape:flatsided="false"
         sodipodi:sides="8"
         sodipodi:cx="-623.61963"
         sodipodi:cy="397.0127"
         sodipodi:r1="181.94881"
         sodipodi:r2="71.831238"
         sodipodi:arg1="0.75060413"
         sodipodi:arg2="1.1433032"
         inkscape:rounded="0"
         inkscape:randomized="0"
         d="m -490.56466,521.11646 -103.2744,-58.73677 -23.45111,116.47169 -31.49286,-114.55919 -98.94036,65.77547 58.73676,-103.27439 -116.47168,-23.45112 114.55919,-31.49286 -65.77547,-98.94036 103.27439,58.73677 23.45112,-116.47169 31.49285,114.55919 98.94037,-65.77547 -58.73677,103.27439 116.47168,23.45112 -114.55919,31.49286 z"
         transform="matrix(0.26077146,0.01077317,-0.01023588,0.23385251,350.68417,5.4044372)" /></g></g><g
     id="g30"
     transform="matrix(1.1331767,0,0,1.1331767,-26.041058,-18.766708)"><path
       style="display:inline;opacity:1;fill:#ff3800;fill-opacity:1;stroke-width:100"
       d="m 125.6965,120.37521 c 1.4506,1.58923 1.98384,3.89449 3.504,5.43225 3.12749,3.16372 10.14018,5.6844 14.66357,3.87608 3.69143,-1.47573 8.1359,-3.15866 10.66347,-6.15551 0.49132,-0.58255 4.58107,-4.73508 4.85521,-3.91263 0.23922,0.71764 -0.004,1.68986 0.0418,2.43087 0.16667,2.68462 3.01922,3.87766 3.2982,6.55528 0.27835,2.67165 3.74997,20.21861 9.93106,35.01136 1.75681,4.20445 3.46379,8.45415 5.47227,12.64626 1.4498,3.02603 2.53964,6.14537 3.62934,9.30834 1.24696,3.61945 2.98454,7.06684 4.26382,10.67521 2.17023,6.1214 3.67266,12.53514 4.39045,18.99528 0.2243,2.01865 1.97313,10.99734 2.61615,12.15239 0.69015,1.23971 2.25433,3.62105 3.50412,4.18354 0.83068,0.37387 1.77011,0.32275 2.61756,0.72196 1.08096,0.5092 1.98979,1.30372 3.03924,1.86166 0.47131,0.25057 1.07903,0.28618 1.51963,0.56921 1.40779,0.90435 2.67211,2.43691 4.3069,2.92566 1.41172,0.42206 3.15434,0.0754 4.60064,0.11358 0.76619,0.0202 3.55441,0.31674 4.31396,0.24511 0.71774,-0.0677 -1.87887,-1.97058 -2.03457,-2.40965 -1.19749,-3.37898 -3.552,-6.14469 -5.06553,-9.40162 -1.15315,-2.48145 -1.33837,-5.44546 -2.4908,-7.9226 -3.29858,-7.09025 -5.91008,-14.86892 -5.91008,-22.75647 0,-4.32182 -1.14816,-9.66333 5.10849,-5.39439 3.34975,2.28554 5.20205,6.06307 8.52633,8.32006 25.84129,17.5447 51.13345,9.53721 75.87274,-2.69585 3.6978,-1.82849 11.59623,1.19793 15.63096,1.54185 2.32654,0.19829 4.37497,3.16636 5.92574,5.25601 0.48304,0.65089 0.65212,1.8115 1.01308,2.54576 1.0503,2.13645 7.43731,1.62782 8.97935,3.45048 1.11105,1.31324 1.76703,5.2256 2.96222,6.45056 2.94865,3.02212 5.09632,5.15915 7.94407,8.27438 2.55073,2.79029 3.15839,4.91578 5.88527,7.53022 1.37136,1.31481 0.6374,2.22171 2.34471,3.11496 1.25557,0.65691 8.24113,3.02436 9.79268,2.94002 0.69238,-0.0376 6.09215,0.29487 6.62681,-0.0379 1.02289,-0.63657 1.41829,-2.31943 2.02616,-3.30557 0.34132,-0.55372 0.80239,-1.08726 1.09794,-1.67106 0.49062,-0.96911 0.37991,-2.41006 0.37991,-3.45701 0,-1.44026 0.14498,-2.99948 -0.2115,-4.40742 -0.78703,-3.10846 -3.13945,-6.23187 -5.02363,-8.77569 -2.67908,-3.61702 -2.59913,-8.96671 -1.77289,-13.18311 0.50719,-2.58824 1.63117,-5.07558 2.27943,-7.63597 0.51848,-2.04778 1.04003,-4.13939 1.7729,-6.11635 0.59919,-1.61639 -0.14303,-3.36118 0.55008,-4.94793 0.69626,-1.59396 0.73748,-3.57205 1.51174,-5.14052 0.74576,-1.51074 1.56913,-4.26052 2.29638,-5.7875 2.82785,-5.93751 3.90678,-14.19462 6.63646,-20.17178 1.61502,-3.5364 0.60349,-10.40535 1.61257,-14.18221 1.25793,-4.70822 12.78466,-4.95555 11.90907,-9.53766 -0.71299,-3.73115 -7.46447,-4.14698 -8.60074,-7.77986 -1.58289,-5.06076 -9.06809,-9.62636 -13.29695,-12.88435 -3.47659,-2.67844 -5.01429,-7.54013 -8.94154,-9.37039 -1.26823,-0.591044 -2.65661,-2.040017 -3.9763,-2.514834 -1.25016,-0.449799 -2.54991,-0.66247 -3.79905,-1.139716 -1.48835,-0.568636 -2.92405,-1.271436 -4.43354,-1.785948 -1.86677,-0.636292 -4.96692,1.769184 -6.82524,1.084885 -1.89242,-0.696859 -3.91691,-1.007589 -5.90746,-1.398209 -1.9752,-0.387605 -4.3391,-1.773376 -6.32785,-1.951748 -3.40165,-0.305096 -4.90527,-2.758962 -8.33573,-2.635839 -2.28957,0.08218 -4.56259,0.737709 -6.83829,0.988277 -4.26893,0.470032 -9.96984,4.385157 -13.80846,6.258649 -3.05233,1.489734 -5.63214,2.090878 -8.40492,4.051019 -1.18612,0.838494 -3.14725,0.006 -4.38131,0.783314 -2.90763,1.8315 -6.34108,4.28229 -9.49764,5.585 -1.84925,0.76318 -3.74348,1.39869 -5.53017,2.31729 -4.7006,2.41674 -9.90855,5.46814 -15.36594,5.28082 -4.59701,-0.15779 -10.76672,-0.21274 -14.47949,-3.38129 -1.74174,-1.48644 -3.04948,-3.66427 -4.30559,-5.54714 -1.4095,-2.11279 -3.2252,-4.06477 -4.897,-5.964911 -1.96338,-2.231555 -4.2348,-4.511242 -6.54195,-6.382673 -0.89318,-0.7245 -1.8996,-1.35239 -2.66064,-2.240268 -0.28221,-0.329248 -0.39654,-1.018006 -0.59009,-1.406041 -0.96503,-1.934633 -2.07581,-5.166772 -3.46223,-6.724719 -1.90298,-2.13839 -5.32735,-2.083638 -7.37539,-4.131676 -0.17507,-0.175079 -2.85606,-3.736292 -2.96692,-3.580014 -0.7713,1.087288 -1.26458,0.671714 -1.89953,1.481762 -1.57715,2.012082 0.73367,3.748117 -3.67242,2.203713 -1.4427,-0.50569 -4.43962,-1.814467 -5.61372,-2.659338 -1.67199,-1.203143 -3.29787,-2.528847 -5.19335,-3.38129 -2.93835,-1.321445 -6.84037,-1.423001 -10.00418,-1.216742 -2.18544,0.142477 -4.41201,-0.08001 -6.58503,0.114886 -1.01719,0.09123 -1.26734,0.758906 -2.02616,1.063996 -1.20337,0.483828 -2.94017,0.236057 -4.17896,0 -1.31366,-0.250323 -2.46786,-1.119432 -3.7155,-1.558787 -2.3129,-0.814489 -4.70782,-1.159659 -7.13335,-1.442597 -0.5951,-0.06942 -2.85142,-0.804351 -3.29251,-0.456931 -0.38727,0.305033 -0.58751,0.748262 -1.05616,0.988277 -0.12324,0.06311 -0.75182,0.238692 -0.80159,0.417765 -0.0719,0.258843 3.15409,4.242895 3.41915,4.672446 0.41938,0.679663 -1.41938,1.420745 -1.29072,2.203713 0.32549,1.980685 1.4188,3.800491 0.10923,5.318677 -0.44261,0.513107 -0.95687,0.953661 -1.22458,1.595342 -0.64001,1.53405 -0.38472,3.386813 -1.22458,4.900911 -0.29977,0.540436 -0.87225,0.740929 -1.22457,1.216742 -0.81933,1.106523 -1.71852,2.146097 -2.74289,3.114964 -0.82111,0.776619 -2.38952,1.76693 -2.87083,2.848638 -0.20001,0.449498 -0.15864,0.997953 -0.37991,1.443902 -0.17101,0.344655 -0.57913,0.472282 -0.75981,0.797671 -0.23321,0.419987 -0.15448,0.785918 -0.29505,1.215437 -0.034,0.103962 -2.31455,3.484355 -2.57578,3.685475 -0.56613,0.43587 -1.09994,1.08464 -1.68804,1.48176 -1.81676,1.22679 -4.46197,1.64003 -5.61503,3.49487 -2.83172,4.55518 -3.84006,8.14697 -2.32123,12.80321 z"
       id="path29"
       sodipodi:nodetypes="csssscsssssssssssssscsssssssssssssssssssssssssssssssssssssssssssssssssssssssssssssssssssscsssssssssssssscc" /><path
       id="path23"
       style="opacity:1;fill:#ffff00;fill-opacity:1;stroke-width:100"
       d="m 286.77539,98.171875 c -1.74268,1.997465 -4.01777,3.087185 -6.17773,4.566405 -0.75,0.51362 -1.41524,1.13588 -2.20899,1.58594 -0.58292,0.33052 -1.24572,0.43865 -1.85156,0.69922 -0.81603,0.35098 -1.4766,0.92718 -2.26953,1.3164 -0.57014,0.27986 -1.16883,0.33099 -1.75977,0.53711 -1.21927,0.42528 -2.33429,0.87933 -3.58203,1.23438 -0.60394,0.17185 -1.1742,0.50309 -1.79101,0.61914 -2.17243,0.40878 -4.65933,-0.0419 -6.89454,0.32226 -1.2696,0.20684 -2.19918,1.32996 -3.22461,2.01563 -0.8956,0.59886 -2.61831,0.77759 -3.3125,1.61133 -0.47424,0.56959 -0.88303,1.18451 -1.37304,1.74609 -0.79347,0.90937 -0.38435,2.51481 -0.92578,3.59766 -0.24504,0.49009 -0.78884,1.18801 -1.31446,1.39844 -0.12728,0.0509 -0.78688,0.0397 -0.86328,0.1875 -0.0553,0.10692 -0.0761,0.23 -0.0898,0.3496 -0.19186,1.66934 0.35742,3.4194 0.35742,5.10352 0,2.63829 -0.8255,11.49576 2.41797,12.22266 1.69869,0.3807 2.57914,-1.77939 3.3125,-2.90039 2.78665,-4.25966 5.21028,-4.05365 9.40234,-6.07032 2.33723,-1.12436 4.49391,-2.87701 6.23828,-4.7832 1.1002,-1.20226 2.19411,-2.44887 3.16602,-3.75977 0.69194,-0.93328 1.30689,-1.92644 2.11719,-2.76757 1.09106,-1.13257 2.52353,-2.07866 3.73242,-3.08985 1.5134,-1.26591 3.37366,-0.39896 4.29883,-1.53125 2.06144,-2.52293 3.25087,-9.4651 3.10351,-12.35742 -0.0326,-0.639732 -0.33888,-1.235627 -0.50781,-1.853515 z m -152.7207,14.376955 c 0.23891,2.04398 0.90246,3.99044 1.07422,6.04492 0.0992,1.18676 1.00973,3.72556 -0.0605,4.75391 -0.67263,0.64628 -1.52508,1.19684 -2.32813,1.66601 -0.1916,0.11194 -0.349,0.20754 -0.5664,0.26758 -0.0488,0.0135 -0.20103,0.0273 -0.15039,0.0273 0.2692,0 5.95735,-1.35543 5.9707,-1.36914 0.42817,-0.43948 -0.20783,-3.24777 -0.32812,-3.78906 -0.23634,-1.06353 -1.51646,-7.29763 -2.47852,-7.4668 -0.37478,-0.0659 -0.75494,-0.0899 -1.13281,-0.13476 z m 154.21679,6.73828 c -0.7161,0.0108 -1.44421,0.19603 -2.20703,0.62695 -4.04724,2.2863 -4.74514,7.02567 -7.37109,10.45117 -0.74543,0.9724 -1.43488,2.12287 -2.44922,2.84571 -0.98133,0.69934 -1.93555,1.12151 -2.74414,2.07031 -2.36315,2.77288 -4.41289,5.92622 -5.9707,9.21289 -0.26002,0.54859 -2.70147,5.8793 -2.53711,6.125 0.13014,0.19453 0.28155,-0.37427 0.41797,-0.56445 0.38944,-0.54294 0.81297,-1.05814 1.22461,-1.58399 1.40322,-1.79254 3.05812,-3.32908 4.65625,-4.94336 1.69561,-1.71273 3.19669,-3.61302 4.92382,-5.29101 1.1316,-1.09938 3.37189,-2.54495 4.14844,-3.81445 0.84794,-1.38624 1.21543,-3.08745 1.97266,-4.54102 0.71197,-1.36669 1.76251,-2.56534 2.68554,-3.78711 2.06898,-2.73858 3.37565,-4.79951 6.86524,-5.72266 -1.25756,-0.63322 -2.42173,-1.10205 -3.61524,-1.08398 z m -47.57617,5.78516 c -2.19307,3.00109 -3.16234,6.83265 -5.58203,9.67187 -0.88791,1.04185 -2.57329,0.84899 -3.79101,0.48242 -0.47278,-0.14232 -0.8317,-0.58124 -1.31446,-0.69922 -0.22413,-0.0548 -0.63822,0.20586 -0.80469,0.32227 -2.49287,1.7433 -3.68513,4.34393 -5.58203,6.63672 -1.54366,1.86582 -3.72956,3.0049 -5.84961,4.08203 -0.79744,0.40515 -2.31825,1.35821 -3.25586,1.02148 -0.33401,-0.11996 0.24054,-1.20806 0.33008,-1.36914 0.67202,-1.20902 1.48545,-2.24995 2.4961,-3.16015 -1.16593,0.66511 -2.50379,1.27656 -3.33399,1.76367 -3.45366,2.02638 -6.76971,4.31312 -10.08789,6.55273 -1.36318,0.92009 -2.71318,1.86125 -4.0293,2.84766 -0.27245,0.20421 -0.89289,0.392 -0.74609,0.69922 0.18909,0.39572 2.12988,0.44541 2.44727,0.45703 2.76623,0.10122 5.33463,-0.75197 8.02929,-1.23633 1.93876,-0.34848 3.89851,-0.44575 5.85157,-0.67187 1.19203,-0.13801 2.55085,-0.5783 3.75976,-0.48243 0.14296,0.0113 0.12681,0.26089 0.15039,0.40235 0.28008,1.68046 -3.68055,5.10258 -3.46289,5.88281 0.0154,0.0551 2.28632,-1.37858 2.44727,-1.50391 4.12388,-3.21131 7.49456,-7.32549 11.2832,-10.90625 1.70896,-1.61519 5.31618,-4.04339 7.64258,-4.56835 0.79556,-0.17953 1.72327,-0.52206 2.53515,-0.5625 0.3715,-0.0185 0.78108,0.88716 1.19532,0.5625 1.12146,-0.87899 1.80119,-2.63943 2.44726,-3.86719 0.68055,-1.29328 1.18249,-2.67404 1.82032,-3.97657 0.25889,-0.5287 0.47226,-1.12202 0.80664,-1.61132 0.03,-0.0439 0.42536,-0.44598 0.38867,-0.45703 -1.08101,-0.32542 -2.65224,0.41725 -3.64258,-0.29493 -0.96672,-0.69521 -1.08709,-3.64203 -1.55273,-4.72851 -0.18656,-0.43532 -0.39692,-0.85919 -0.59571,-1.28906 z M 217.3418,142.06055 C 0,0 0,0 217.3418,142.06055 Z m 147.65625,-8.99805 c -3.8179,0.39851 -7.21568,2.53915 -10.98438,3.11523 -2.21932,0.33925 -4.42854,0.18279 -6.65625,0.0274 -0.29829,-0.0208 -1.11683,-0.25471 -0.89453,-0.0547 0.51448,0.46284 2.81273,1.14423 3.43164,1.37109 3.27645,1.20099 6.87093,1.30771 10.08985,2.63282 0.58348,0.2402 1.8496,0.58108 1.8496,1.36914 0,0.61638 -1.99406,5.54676 -2.41601,6.17968 -0.66898,1.00347 -2.1912,1.26831 -2.08985,1.45118 0.0823,0.14838 0.91592,-0.10868 1.01368,-0.13477 0.9611,-0.25651 1.90149,-0.58535 2.86718,-0.83398 0.0556,-0.0143 1.23559,-0.30837 1.22266,-0.26758 -0.17334,0.54688 -0.91054,1.18289 -1.25391,1.63867 -0.31277,0.41516 -0.24564,0.35297 -0.53711,0.80469 -0.3242,0.50248 -0.67134,1.00745 -1.07421,1.45117 -2.10262,2.31577 -4.64051,4.40225 -5.43164,7.60352 -0.0139,0.0561 -0.12656,0.96902 -0.1211,0.96679 0.35859,-0.14605 0.98479,-1.17465 1.28516,-1.47851 1.37675,-1.39272 3.54805,-2.80888 5.64062,-2.33594 1.08945,0.24622 0.6224,3.72336 0.41797,4.45898 -0.30249,1.08849 -0.82365,2.10415 -1.19531,3.16993 -0.42621,1.22219 -0.63418,2.53664 -1.13281,3.73437 -0.0894,0.21471 -0.42174,1.20538 -0.11914,1.39648 0.30422,0.19214 1.3009,-0.81627 1.49218,-0.99414 0.43534,-0.40482 0.86842,-0.92776 1.34375,-1.28906 0.0636,-0.0483 0.31482,0.0127 0.32813,-0.0273 0.1577,-0.47311 0.14128,-0.98738 0.23828,-1.47656 0.36688,-1.85034 0.92048,-3.70231 1.37305,-5.53516 0.88166,-3.57056 1.67066,-6.57309 3.34375,-9.88477 1.62006,-3.20671 4.2546,-6.50069 3.13281,-10.36914 -0.92016,-3.17314 -3.20934,-4.34546 -5.16406,-6.68945 z m -187.75196,11.3457 c 0.31849,0.4031 0.65692,0.79064 0.95508,1.20899 0.23496,0.32967 0.26262,1.00571 0.41797,1.39843 0.27446,0.69383 0.84362,1.27228 0.95508,2.04102 0.0604,0.41627 0.0546,0.90047 0,1.31641 -0.0989,0.75312 -1.42835,2.53939 -1.37305,2.71289 0.11388,0.3574 0.76174,0.72235 0.98438,0.99414 1.67969,2.05048 3.38676,2.70808 3.19531,5.74804 -0.0617,0.97921 -1.82052,5.93954 -1.76172,6.04493 0.20446,0.36677 1.64487,-0.54068 1.84961,-0.69922 1.04042,-0.80563 3.43159,-5.95611 4.95508,-2.60547 0.82709,1.81902 1.63017,4.1518 1.70117,6.15234 0.068,1.91634 -0.21121,5.36132 0.77734,6.95703 0.35818,0.57817 1.1867,1.5405 2,1.31641 0.34174,-0.0942 -0.13428,-2.48838 -0.17968,-2.76758 -0.26431,-1.62538 -0.18202,-3.26777 -0.41797,-4.88867 -0.21936,-1.50687 -0.79431,-2.99376 -1.28321,-4.43164 -0.56237,-1.65392 -0.5986,-3.26404 -0.5371,-4.99805 0.005,-0.14535 -0.0867,-1.15857 0.14843,-1.23437 0.25909,-0.0835 0.70293,-0.0647 0.92578,0.10742 1.10942,0.85689 1.82567,2.18445 2.77539,3.19727 0.38571,0.41134 1.31706,1.66454 1.28516,1.10156 -0.0119,-0.20968 -0.0685,-0.41582 -0.12109,-0.61914 -0.35548,-1.37361 -0.91068,-3.13248 -1.82032,-4.24414 -0.55352,-0.67646 -4.41796,-3.40023 -4.41796,-3.81446 0,-1.41539 0.81268,-3.30069 1.55273,-4.45898 0.22071,-0.34545 0.97062,-0.99225 1.04492,-1.39648 0.0198,-0.10742 -0.20983,0.0694 -0.29883,0.13281 -0.51489,0.36692 -1.00482,0.77317 -1.46289,1.20898 -0.51404,0.48906 -3.55727,3.56134 -3.84961,3.4375 -0.77088,-0.32658 -1.24692,-1.28459 -1.70117,-1.90625 -1.84734,-2.52819 -3.58639,-5.3315 -6.29883,-7.01172 z"
       sodipodi:nodetypes="csssssssssssssscssssssssssccssssscsscsssssssssssssscscssscsssscsssscssssscssssssscssccccssssssssssssssscsssssssscssssccssssssscssssssssssssscsssscsssc" /><path
       id="path1"
       style="display:inline;opacity:1;fill:#000000;fill-opacity:1;stroke-width:100"
       d="m 174.80469,53.947266 c -0.10366,0.006 -0.0664,0.582573 -0.0664,0.8125 0,0.737034 -0.0497,1.469147 -0.0898,2.205078 -0.16189,2.971979 0.13426,5.943102 -0.0293,8.917968 -0.0104,0.1889 -0.21761,2.685547 -0.35937,2.685547 -0.14763,0 -0.6843,-1.620802 -0.7461,-1.746093 -1.42051,-2.877622 -2.91735,-5.729714 -4.5957,-8.460938 -0.0214,-0.03486 0.0465,0.06833 0.0586,0.107422 0.10159,0.328496 0.14299,0.705867 0.17969,1.046875 0.12273,1.14126 0.19866,2.2952 0.29883,3.439453 0.1039,1.185836 0.0879,2.382027 0.0879,3.572266 0,1.240858 -0.18363,2.430502 -0.625,3.55664 -0.0452,-0.20835 -0.0899,-0.420498 -0.13867,-0.613281 -0.81442,-3.217458 -2.68893,-6.084567 -4.98633,-8.433594 -0.23286,-0.238093 -0.62692,-0.741252 -0.98438,-0.861328 -0.36354,-0.122113 0.27204,1.74346 0.32813,2.015625 0.39487,1.915847 0.63345,4.64525 -0.62695,6.232422 -0.12943,0.16299 -0.38942,0.509766 -0.62696,0.509766 -0.53148,0 -1.13693,-0.404125 -1.61133,-0.617188 -2.04584,-0.918818 -4.97208,-2.318507 -7.22265,-2.390625 -0.91699,-0.02938 -1.91111,-0.078 -2.80664,0.160157 -1.15834,0.308045 -2.36011,0.927446 -3.43164,1.451171 -1.46632,0.716684 -3.42569,1.245529 -5.01563,1.423829 0.34802,0.286788 0.70982,0.557587 1.04492,0.859374 0.59121,0.532436 0.91398,1.499224 1.22266,2.203126 1.37806,3.142554 2.66447,6.338243 2.32812,9.859374 -0.0846,0.885271 -0.70377,2.183991 -1.13281,2.955079 -0.63317,1.137961 -1.56364,1.986491 -2.47851,2.873047 -1.79776,1.742109 -3.65376,3.485802 -5.19336,5.425781 -0.47682,0.60083 -1.08531,1.607496 -1.25196,2.365234 -0.30333,1.379189 -0.088,2.586733 -1.10546,3.734375 -0.8203,0.925222 -1.73036,1.906082 -2.7168,2.658202 -1.55475,1.18545 -3.36497,2.30851 -4.56641,3.86914 -4.04414,5.25322 -4.89932,8.52014 -3.01562,14.99024 0.45827,1.57407 0.71839,3.4758 1.85156,4.7539 1.89866,2.14152 4.11635,-1.20523 4.80469,-2.71289 0.90359,-1.9791 1.50013,-4.52031 1.01562,-6.68945 -0.44964,-2.01299 -1.16323,-1.11075 -1.79101,-2.01367 -0.13351,-0.19202 0.5102,-1.27938 0.53711,-1.61133 0.0696,-0.85795 -0.70564,-0.95927 -0.62696,-1.74609 0.0985,-0.9847 1.65544,-2.74608 2.29883,-3.54688 0.33973,-0.42285 0.68158,-0.87853 0.95508,-1.34375 0.0611,-0.10393 0.19258,-0.41435 0.20898,-0.29492 0.0815,0.59322 -0.25378,1.53351 -0.44921,2.0957 -0.0648,0.18632 -0.3702,0.52118 -0.17774,0.56445 0.34194,0.0769 0.93671,-0.75557 1.10547,-0.96875 0.3543,-0.44754 0.90582,-0.59022 1.25195,-1.01953 0.23229,-0.28811 0.20269,-0.94459 0.29883,-1.29101 0.25841,-0.93106 1.26138,-2.15773 2.20899,-2.49805 0.71532,-0.2569 2.82408,4.34684 4.47656,4.46094 1.08434,0.0749 1.50182,-4.4217 1.91211,-5.32031 0.38853,-0.85101 2.36564,0.28781 3.13281,-2.013676 0.28439,-0.85317 1.31473,-4.255279 0.98633,-4.996094 -0.74646,-1.683862 -3.69675,-2.282158 -2.7461,-4.486328 0.6654,-1.542763 1.83339,-3.130523 3.22266,-4.083984 0.5326,-0.365524 0.98739,-0.699854 1.58203,-0.966797 0.0937,-0.04205 0.95904,-0.435313 0.89649,-0.53711 -0.29787,-0.484727 -0.99928,-0.717458 -1.31446,-1.261719 -0.44007,-0.75992 -0.59263,-6.490582 -0.53711,-7.550781 0.0205,-0.392233 0.19508,-0.777199 0.35742,-1.126953 1.03471,-2.229086 4.30227,-2.870414 6.38868,-1.773437 0.48291,0.253901 0.92843,0.723137 1.31445,1.101562 0.86384,0.846858 1.4586,3.32348 1.70117,4.486328 0.10149,0.486509 0.19461,2.31943 0.65625,2.525391 0.0149,0.0066 0.82918,-1.482228 0.89453,-1.611328 0.88193,-1.742075 1.4767,-3.490591 2.50782,-5.158203 1.06617,-1.724312 2.18761,-1.853881 2.86523,0.267578 0.27101,0.848481 0.16028,1.872533 0.0606,2.740234 -0.0626,0.544551 -0.15415,0.939453 -0.11914,0.939453 0.0944,0 0.0608,-0.177779 0.0898,-0.267578 0.12875,-0.397627 0.30376,-0.700783 0.47656,-1.074219 0.39098,-0.844888 0.695,-1.723984 1.13477,-2.552734 0.17818,-0.335781 0.55185,-0.538451 0.65625,-0.914063 0.11391,-0.409832 0.13687,-0.858306 0.1289,-1.314453 0.14597,0.120013 0.29546,0.234158 0.45704,0.332032 0.77898,0.471859 3.31451,-1.061001 4.20898,-0.994141 0.83004,0.06204 1.61569,0.567066 2.35742,0.914062 0.60383,0.282485 1.32786,0.40477 1.9707,0.564454 1.63118,0.405186 3.3732,0.135495 4.98438,0.617187 1.6378,0.489652 1.79576,2.575893 3.19336,2.632813 0.44598,0.01816 1.23141,-0.490102 1.64258,-0.1875 0.30198,0.222245 0.5361,0.615436 0.74609,0.912109 1.34375,1.89845 1.39839,2.440025 3.91016,2.955078 1.42608,0.292427 2.9231,0.190845 4.35937,0 0.13763,-0.01829 1.30366,-0.07712 1.22266,-0.214844 -0.50288,-0.855397 -1.62356,-1.229927 -2.08984,-2.121093 -0.51344,-0.981283 -0.64845,-2.107373 -1.10352,-3.117188 -1.01952,-2.262372 -2.53071,-4.367973 -3.91016,-6.419922 -0.73456,-1.092685 -2.88273,-3.21123 -3.38476,-4.447265 0.0417,0.119977 0.0923,0.281364 0.10156,0.365234 0.0428,0.384715 0.007,0.824158 -0.0293,1.207031 -0.16738,1.756673 -0.93503,3.516647 -1.97265,4.917969 -0.38941,0.525901 -0.89968,1.083707 -0.98438,0.992187 -0.43754,-0.472866 -0.72598,-1.200252 -1.13281,-1.71875 -1.41935,-1.808935 -2.99953,-3.480906 -4.38867,-5.318359 -0.33705,-0.445819 -0.74318,-1.600399 -1.16407,-1.853515 -0.0756,-0.04552 -0.0918,1.287398 -0.0898,1.396484 0.0192,1.325732 0.0613,2.649444 0.0898,3.974609 0.002,0.0943 -0.0353,1.759357 -0.0605,1.748047 -0.42189,-0.189201 -0.70889,-2.331052 -0.80469,-2.71289 -0.65938,-2.627355 -1.49745,-5.256431 -1.9707,-7.925782 -0.0562,-0.316973 -0.43927,-4.449984 -0.44727,-4.458984 -0.0211,-0.0252 -0.0379,-0.03601 -0.0527,-0.03516 z m 25.67969,16.90625 c -0.0828,0.0088 -0.0429,0.444307 -0.0762,0.617187 -0.3436,1.786482 -0.7443,3.588552 -1.46289,5.263672 0.40772,-0.349255 0.81407,-0.700934 1.22461,-1.046875 0.0865,-0.07293 0.20173,-0.218236 0.29883,-0.160156 0.16097,0.09625 0.31202,1.918244 0.71484,2.308594 0.9624,0.932613 1.84795,-0.286622 2.44727,-0.132813 0.5681,0.145794 1.16828,1.537815 1.4043,1.986328 0.31626,0.601015 0.6601,1.190233 1.01367,1.773438 0.1569,0.2588 0.1423,0.931552 0.41797,0.80664 0.13233,-0.05996 0.004,-1.010722 0,-1.101562 -0.0661,-1.502429 0.0344,-3.014197 -0.0879,-4.513672 -0.0781,-0.957656 -0.0605,-1.914704 -0.0605,-2.875 0,-0.304329 0.30433,-0.912109 0,-0.912109 -0.18099,0 -1.15717,2.440584 -1.91016,2.982421 -1.61994,1.165692 -3.08665,-4.146248 -3.88086,-4.970703 -0.0174,-0.01811 -0.0311,-0.02665 -0.043,-0.02539 z m 8.69921,9.482422 c -0.0796,3.910438 -0.23987,7.903738 1.25391,11.603515 0.21734,0.538314 0.84847,-2.42752 1.13477,-2.685547 0.21333,-0.192258 0.0505,0.572312 0.0586,0.859375 0.0263,0.931966 0.21339,1.771673 0.47852,2.660157 0.30361,1.01746 1.73571,5.509583 2.38867,6.097656 0.0342,0.03078 0.0255,-0.08894 0.0293,-0.134766 0.0284,-0.335894 -0.01,-0.687296 -0.0293,-1.021484 -0.0361,-0.607814 -0.14033,-1.194449 -0.20899,-1.798828 -0.1198,-1.054554 -0.90978,-7.594697 -0.56836,-8.382813 0.6636,-1.531835 4.10566,2.357617 4.23828,2.257813 0.25576,-0.192477 -0.24499,-3.075185 -0.32812,-3.439454 -0.11568,-0.506954 -1.5378,-5.066963 -2.26758,-4.673828 -0.63473,0.341929 -1.71067,2.021854 -2.47851,1.746094 -1.00722,-0.361728 -1.53497,-1.733497 -2.38672,-2.308594 -0.42171,-0.284735 -0.87689,-0.519587 -1.31446,-0.779296 z m 9.67188,3.357421 c 0.87023,1.476149 0.97413,3.211698 1.19336,4.888672 0.17984,1.375697 0.37155,3.17973 0.0898,4.566407 -0.0848,0.417685 -1.14465,1.201116 -1.04492,1.558593 0.006,0.02057 3.35638,2.348702 3.73047,2.685547 2.04464,1.841082 6.43879,6.367122 7.2832,8.947262 0.0736,0.225 -3.24882,0.1282 -3.61133,0.10743 -4.50976,-0.25829 -8.38393,-0.53898 -12.5664,-2.33789 -0.0253,-0.0109 -0.8179,-0.40412 -0.83594,-0.37696 -0.189,0.28448 1.46998,1.53169 1.67187,1.66602 0.63827,0.42466 1.33977,0.71757 2.0293,1.04883 0.61701,0.29642 1.17106,0.70644 1.79102,0.99414 1.85254,0.85972 4.13453,1.12692 6.12109,1.55664 1.64009,0.35478 3.69068,0.69401 5.3418,0.26757 0.571,-0.14747 2.36815,-1.75636 2.86523,-1.26171 1.84898,1.83994 3.37758,4.38901 4.41797,6.76953 0.074,0.16943 0.68049,1.53125 0.6875,1.53125 0.0302,0 0.32329,-3.36084 0.32813,-3.59961 0.0855,-4.22158 -0.2627,-8.26751 -1.34375,-12.35742 -0.0827,-0.31306 -0.85928,-3.912927 -1.25391,-3.839848 -0.135,0.025 -0.0586,2.334509 -0.0586,2.498047 0,1.684461 -0.0862,3.395401 0.0293,5.076171 0.052,0.75614 0.37204,3.95419 -0.0605,4.54102 -0.01,0.0136 -0.30662,-0.71035 -0.47657,-1.20899 -0.33589,-0.98555 -0.49877,-2.00678 -0.77734,-3.00976 -0.91176,-3.28281 -1.95058,-6.569709 -3.43164,-9.644534 -0.42949,-0.891651 -1.01823,-1.666475 -1.49414,-2.523438 -0.19573,-0.352449 -0.8177,-1.908203 -1.22266,-1.908203 -0.0112,0 0.90781,2.591543 1.01563,2.847656 1.40778,3.343859 2.37902,6.809342 2.5664,10.449219 0.005,0.0965 0.0854,1.68913 -0.0898,1.7207 -0.057,0.0103 -0.56544,-1.63118 -0.59766,-1.7207 -0.42012,-1.16714 -0.83004,-2.28649 -1.55273,-3.30273 -1.95093,-2.743373 -4.22959,-5.181419 -6.05859,-8.005864 -0.97597,-1.507139 -1.35723,-3.248599 -2,-4.888672 -0.57598,-1.469649 -1.60285,-2.627327 -2.68555,-3.734375 z m 94.67773,4.222657 c -3.52212,0.01742 -5.99938,0.431696 -9.64453,1.521484 -1.53109,0.457749 -2.93798,1.176479 -4.38672,1.826172 -0.4597,0.206156 -0.81242,0.555794 -1.2832,0.751953 -0.0863,0.03598 -0.51575,0.239656 -0.72266,0.300781 -0.59491,-1.271569 -0.58307,-1.403376 -2.85547,-0.246094 -1.33297,0.678858 -2.59462,1.523531 -3.8496,2.335938 -1.25863,0.814769 -2.48402,1.728182 -3.84961,2.363281 -1.30859,0.608583 -2.70523,0.991283 -4,1.638672 -1.57244,0.786217 -3.10019,1.650067 -4.7461,2.285157 -2.86181,1.10426 -5.33557,2.61112 -8,4.10937 -3.40853,1.91668 -6.80446,3.82041 -10.74609,4.37891 -2.21656,0.31407 -4.43128,0.62294 -6.65625,0.80469 -0.34683,0.0283 -1.16585,-0.29784 -1.43359,-0.1875 -0.42632,0.17569 -0.81464,0.42974 -1.22266,0.64453 1.42299,-0.0157 0.28075,4.28477 1.43359,4.64648 2.40306,0.75397 5.7836,-1.61602 7.96875,-2.4707 0.86064,-0.33662 1.75755,-0.58095 2.56641,-1.04687 0.64256,-0.37013 1.17395,-0.93158 1.85156,-1.23633 0.56408,-0.25369 1.18384,-0.59655 1.79102,-0.72461 1.95794,-0.41295 3.17994,0.0363 5.25195,-0.80664 1.93303,-0.78633 3.58429,-1.84747 5.375,-2.90039 1.07397,-0.63148 2.26582,-1.03806 3.3418,-1.66602 1.92084,-1.12103 3.70422,-2.44097 5.64062,-3.54492 1.14206,-0.65109 2.17622,-1.533507 3.34375,-2.123048 0.95379,-0.481618 3.82234,-1.206145 4.92578,-1.371093 0.12275,-0.01835 1.22604,-0.300595 1.28321,-0.214844 0.0274,0.04105 -0.85437,1.544788 -0.98438,1.800781 -1.09908,2.164154 -2.1564,4.509944 -2.95508,6.796874 -0.0513,0.14705 -0.6136,2.65351 -1.0039,3.83203 0.696,-1.07532 2.32891,-3.25258 2.52539,-3.50976 1.5739,-2.06022 2.83741,-4.69049 3.76172,-7.0918 0.27231,-0.707419 0.82625,-1.254024 1.13476,-1.933594 0.24106,-0.530986 0.38021,-1.164312 0.68555,-1.667968 0.0166,-0.02738 0.0445,-0.0547 0.0684,-0.08203 h 0.002 c 0.84754,0.04396 2.17098,-0.130859 2.70117,-0.130859 2.85463,0 6.91279,-0.396324 9.52149,0.779297 1.00457,0.452715 1.89147,1.186808 2.50781,2.095703 1.42101,2.095508 0.67143,7.546131 -0.26953,9.642571 -0.72789,1.62177 -1.62796,3.16141 -2.35742,4.78126 -0.24463,0.54324 -0.48083,1.07992 -0.6875,1.63867 -0.0808,0.21851 -0.46051,0.77709 -0.26758,0.64648 0.3528,-0.23881 0.81353,-1.05546 1.01367,-1.31641 2.60376,-3.39487 4.26109,-7.83832 4.89648,-12.0625 0.0936,-0.6224 0.26371,-4.161662 0.62696,-4.513665 1.36817,-1.325818 8.00868,-1.342937 9.73047,-0.697265 0.95584,0.35844 1.97154,1.300918 2.53711,2.121093 1.13501,1.645954 1.0964,3.481367 1.04492,5.400387 -0.0316,1.17649 -0.0326,2.4517 -0.44727,3.57227 -0.83714,2.26262 -4.64354,7.22269 -6.29883,8.99804 -1.00809,1.08121 -2.07535,2.05114 -2.95507,3.25196 -1.34538,1.83641 -2.54262,3.79967 -2.92579,6.07031 -0.11689,0.69273 -0.20745,1.39877 -0.29687,2.0957 -0.0186,0.14461 -0.0539,0.60531 -0.0605,0.72657 -0.002,0.0446 -0.0216,0.17183 0,0.13281 0.65906,-1.18903 1.09667,-2.50866 1.82032,-3.67969 1.45713,-2.35801 3.26622,-4.49614 5.01562,-6.63476 0.65668,-0.80279 1.25875,-1.67124 2.0293,-2.36524 1.29472,-1.16611 2.88028,-1.94005 4.26758,-2.95508 0.61908,-0.45296 1.11739,-1.0348 1.70117,-1.53125 0.4236,-0.36023 0.90713,-0.62533 1.22461,-1.10156 1.34758,-2.02137 2.01682,-4.99302 2.14843,-7.38672 0.0556,-1.01046 -0.32096,-2.31893 0.15039,-3.249997 0.88167,-1.741562 5.38115,-3.132646 7.19336,-4.191406 0.1714,-0.100137 1.55274,-0.745125 1.55274,-1.074219 0,-0.05678 -1.58512,-0.416871 -1.70117,-0.779297 -0.0845,-0.263915 1.52167,-1.11491 1.76172,-1.236328 0.19012,-0.09616 0.77053,-0.35595 0.5664,-0.294922 -0.40997,0.122569 -0.7725,0.345695 -1.19336,0.457032 -4.05515,1.072772 -10.62375,-0.804893 -14.59765,-1.960938 -2.12544,-0.61831 -4.32651,-0.959534 -6.47657,-1.478515 -0.85834,-0.207185 -1.66958,-0.54216 -2.53711,-0.72461 -1.30644,-0.274758 -2.64517,-0.209479 -3.9707,-0.240234 -0.5523,-0.01282 -1.07692,-0.02007 -1.58008,-0.01758 z m -23.5664,21.498044 c -0.21722,0.3356 -0.34755,0.57334 -0.3086,0.59961 0.0667,0.045 0.17738,-0.2034 0.3086,-0.59961 z m 56.00976,-15.812498 c -0.0368,1.808356 -0.0293,0.965387 -0.0293,2.523438 0,0.681469 -0.1741,5.65968 0.26953,6.01953 0.32887,0.26676 1.51542,0.0861 2.14843,0.53711 0.27149,0.19347 0.7168,1.03064 0.7168,0.69727 0,-0.87557 -0.48132,-1.72942 -0.65625,-2.57813 -0.19057,-0.924639 -0.22535,-1.884064 -0.47851,-2.794921 -0.43812,-1.576323 -1.23282,-2.95649 -1.97071,-4.404297 z m -103.80859,3.63086 c -0.19345,2.262804 1.18291,9.870218 0,11.712888 -0.14513,0.22608 -0.36392,0.24042 -0.59766,0.13477 -1.78258,-0.80575 -1.08956,-2.20277 -1.67187,-3.14453 -0.11185,-0.1809 -0.0898,0.65408 -0.0898,1.10156 0,2.11414 0.2404,4.22975 0.35938,6.33984 0.0349,0.61796 0.0662,1.23675 0.11914,1.85352 0.0231,0.2693 -0.11102,0.98756 0.0898,0.80664 0.87391,-0.78732 1.37603,-4.7247 3.34375,-3.2793 1.65575,1.21623 2.12285,3.47795 2.44727,5.40039 0.0976,0.57864 0.11191,1.21844 0.0586,1.80078 -0.0191,0.20908 -0.3291,0.61719 -0.11914,0.61719 0.0923,0 0.17234,-0.59407 0.17969,-0.61719 0.18887,-0.59485 0.5569,-1.23525 0.86523,-1.77343 0.32028,-0.55903 2.07793,-3.03796 2.11914,-3.4375 0.0308,-0.29905 -0.63392,-0.50408 -0.86523,-0.64649 -1.20397,-0.74121 -2.20831,-1.44672 -2.80664,-2.79297 -1.03801,-2.33551 -0.47185,-5.04196 -0.92578,-7.49414 -0.45095,-2.43607 -2.1201,-4.152147 -2.50586,-6.582028 z m 109.0332,0.666016 c -0.41863,0 0.65548,0.520309 0.98438,0.779296 l -1.13477,0.671875 c 0.33714,1.216281 0.18241,2.663711 1.07617,3.654301 0.32121,0.35601 0.76987,0.48565 1.19336,0.66992 1.62914,0.70889 3.10178,1.53051 4,3.14453 0.8823,1.58541 1.27121,3.78078 1.49219,5.56055 0.15595,1.25594 0.14677,2.67196 0.89453,3.75976 1.31573,1.91408 4.07236,1.86887 6.03125,2.49805 0.79614,0.25571 1.53916,0.67307 2.32813,0.93945 1.87348,0.63254 3.939,1.06424 5.61132,2.15039 0.98524,0.6399 2.13297,1.46605 2.92579,2.33789 0.26926,0.29609 0.45055,0.60554 0.77539,0.85938 1.06654,0.83344 2.36664,1.61114 3.16406,2.74023 0.17378,0.24606 0.0875,0.60889 0.0605,0.88672 -0.12095,1.24484 -2.39574,2.28289 -4.16016,2.9668 0.44312,-1.04508 0.81481,-1.92661 0.76758,-2.0293 -0.046,-0.10007 -2.72249,0.78718 -3.12305,0.91211 -1.09339,0.34104 -2.15591,0.79235 -3.29297,0.98828 -1.35573,0.23361 -3.84685,-0.048 -4.98047,0.53125 -0.91923,0.46974 -1.91475,1.55314 -2.61914,2.31641 -0.16595,0.17983 -0.62252,0.31615 -0.50586,0.53125 0.19701,0.36319 1.79568,0.20969 2.11133,0.30469 0.89536,0.26953 2.8162,1.19319 3.25,2.05273 1.2671,2.51066 -0.66611,6.29871 -1.18164,8.77539 -0.23319,1.12026 -0.31115,2.25117 -0.46484,3.38086 -0.78424,5.76455 -3.2791,10.90192 -5.10742,16.33594 -0.83416,2.47925 -1.02251,5.184 -1.6875,7.71289 -1.41081,5.36509 -3.06578,10.70979 -4.64454,16.03125 -1.43727,4.84458 -2.88894,9.6543 -4.13672,14.55078 -0.46561,1.82716 -1.86029,4.36533 -1.14062,6.30664 0.43428,1.17149 1.62255,2.32693 2.40625,3.30469 2.22949,2.78154 4.72107,5.49629 6.45898,8.625 1.3656,2.45845 2.90614,5.35288 2.02539,8.16601 0.64589,-0.10398 1.68839,-0.39694 2.44922,-0.22656 0.1817,0.0407 1.39258,0.36933 1.39258,0.30273 0,-0.7305 -0.3174,-1.47427 -0.3789,-2.20117 -0.53528,-6.32303 -5.14826,-10.71133 -7.38868,-16.375 -1.54948,-3.91703 -0.21475,-12.37818 0.75977,-16.375 1.33554,-5.47746 2.82919,-11.02903 4.64453,-16.37304 0.53949,-1.58818 1.35515,-3.07055 1.85742,-4.67188 1.0978,-3.50002 2.20082,-7.05486 3.50391,-10.48633 0.81543,-2.14729 1.89972,-4.20577 2.5332,-6.42187 0.65303,-2.28448 0.82644,-4.64469 1.18164,-6.98828 0.22832,-1.5064 0.62289,-3.00172 0.75977,-4.52149 0.12862,-1.42802 -0.0749,-3.13721 0.33789,-4.52148 0.23208,-0.77836 1.3983,-0.66415 2.53515,-0.4082 l 2.52344,15.86914 c -0.795,3.23191 -1.59701,6.46844 -2.94726,9.52343 -0.80468,1.82061 -1.93594,3.51533 -2.91407,5.24414 -1.37189,2.42478 -2.63192,4.9112 -4.00976,7.33203 -1.3733,2.4129 -2.74973,4.84332 -4.30664,7.14258 -0.24862,0.36718 -3.20171,3.99173 -3.08008,4.06446 1.22392,0.73182 6.45267,-4.53233 7.34375,-5.50977 2.03559,-2.23284 3.59463,-4.69923 5.36133,-7.14062 0.15418,-0.21307 0.29573,-0.42252 0.44726,-0.63477 -0.4172,1.09988 -0.83315,2.20402 -1.25,3.29492 -0.9629,2.51991 -2.25992,4.92553 -3.12304,7.48242 -0.58856,1.74354 -0.99198,3.54421 -1.60352,5.28125 -0.6586,1.87076 -1.69476,3.58275 -2.40625,5.4336 -0.22933,0.59658 -0.61133,1.12761 -0.8457,1.70898 -0.0289,0.0718 -0.11841,0.22852 -0.041,0.22852 1.9886,0 6.83395,-8.13161 7.6836,-9.68946 1.51345,-2.77497 3.21563,-5.47675 4.59961,-8.31835 1.18347,-2.42995 2.118,-4.92822 2.9375,-7.46094 -0.3952,5.8435 -1.50776,11.65871 -2.72461,17.375 -0.31244,1.46771 -0.72095,2.87004 -1.18164,4.29492 -0.18409,0.56936 -1.046,2.04488 -0.55079,1.70898 2.4566,-1.66629 3.66913,-5.40724 4.8125,-7.97851 2.84861,-6.40606 4.77236,-13.23546 6.08008,-20.09766 0.11367,-0.59642 1.03135,-6.99579 1.22266,-7.25586 0.0376,-0.0512 0,0.12787 0,0.19141 0,0.76994 0.0273,1.54688 0,2.3164 -0.0778,2.19352 -0.52596,4.28487 -0.75977,6.45899 -0.0783,0.72781 0.007,1.47888 -0.084,2.20117 -0.008,0.063 -0.062,0.20525 0,0.19141 0.92126,-0.20551 1.78319,-2.7836 2.02734,-3.45703 0.58934,-1.62554 0.89187,-3.47271 1.18164,-5.16797 0.88719,-5.19054 2.269,-10.38281 2.11133,-15.68946 -0.0523,-1.75886 -0.32319,-3.42995 -0.5918,-5.16601 -0.20451,-1.32172 -0.15985,-2.78392 -0.59179,-4.06445 -1.04613,-3.10134 -3.06206,-5.5856 -5.61524,-7.51172 0.0329,-0.0846 0.0758,-0.20971 0.10157,-0.26563 1.0644,-2.30732 2.53444,-7.42197 0.92578,-9.67187 -0.86841,-1.21458 -2.13276,-1.72893 -3.37305,-2.44336 -1.23431,-0.71099 -2.3707,-1.57535 -3.61133,-2.28321 -0.96537,-0.55081 -2.02771,-0.90297 -2.98437,-1.45117 -3.69431,-2.11697 -8.06865,-5.70512 -10.62696,-9.16015 -2.17744,-2.94068 -4.33687,-6.53237 -7.88086,-7.95118 -0.8419,-0.337052 -5.03011,-2.123042 -5.82031,-2.123042 z m -188.46094,9.083982 c -0.0604,-0.0728 -0.83943,1.35886 -0.89453,1.47656 -0.48656,1.03887 -2.46657,4.40324 -3.88086,4.05664 -0.57381,-0.14072 -0.41971,-1.72315 -0.56836,-2.12109 -0.006,-0.0156 -0.31634,0.7801 -0.5371,1.47656 -0.33664,1.06198 -0.62806,2.15234 -1.19336,3.11719 -1.76715,3.01615 -3.79716,6.62624 -6.26954,9.10742 -0.70978,0.71233 -1.50911,1.2841 -2.29687,1.90625 -1.93298,1.52661 -3.865,3.50093 -6.50781,3.27735 0.37818,0.25078 0.74224,0.52426 1.13476,0.75195 0.98289,0.57014 4.10214,-0.73858 5.01367,-1.02148 0.88477,-0.27458 1.8771,-0.37662 2.7168,-0.77735 1.94335,-0.92742 3.76305,-2.4053 5.25391,-3.92383 0.79731,-0.8121 1.57933,-1.7993 2.08984,-2.82031 0.17228,-0.34456 0.32497,-0.69934 0.41797,-1.07422 0.0221,-0.089 -0.0251,-0.30498 0.0586,-0.26758 0.0928,0.0414 0.45272,1.92537 0.50782,2.09571 1.14473,3.54055 2.54014,7.02386 4.17968,10.36719 0.86169,1.75712 1.50718,3.53946 2.68555,5.13085 0.41501,0.56048 0.81056,1.13365 1.22461,1.69336 0.0353,0.0478 0.10264,0.12026 0.16406,0.1875 -0.20061,-0.43167 -0.79159,-1.80641 -0.85156,-2.01367 -0.96405,-3.32944 -2.24324,-6.6053 -2.89453,-10.01953 -1.07132,-5.6161 -0.8097,-11.32466 0,-16.95312 0.001,-0.0104 0.45226,-3.64635 0.44726,-3.65235 z m 3.29883,32.63867 c 0.0325,0.07 0.12947,0.29688 0.13282,0.29688 0.13001,0 0.002,-0.14969 -0.13282,-0.29688 z m 0.0742,3.44727 c -0.3469,1.35186 1.07491,5.91028 1.46289,7.46875 0.72203,2.90032 1.26971,5.85266 2.20899,8.70312 0.43715,1.32664 1.05639,2.60078 1.58007,3.89649 0.27799,0.6878 0.44089,1.4586 0.77735,2.12109 0.4255,0.83782 1.06815,1.61358 1.55078,2.41797 1.05209,1.75348 2.03421,3.62865 2.89648,5.48047 2.62086,5.62858 3.7928,12.0973 5.88086,17.94531 1.41669,3.96772 3.69874,7.62132 4.83594,11.71289 0.46178,1.66146 0.9241,3.33452 1.37305,4.9961 1.01492,3.75623 1.30524,7.70482 2.17773,11.49609 0.56612,2.46001 1.00296,4.8823 1.31446,7.38867 0.0978,0.7871 0.11914,1.62616 0.11914,2.41797 0,0.4208 -0.1614,1.59743 0.0605,1.04688 1.1775,-2.92091 0.88522,-6.61874 0.65625,-9.64258 -0.328,-4.3316 -0.83028,-9.58094 -1.82031,-13.8086 -0.41686,-1.78011 -1.11225,-3.53354 -1.375,-5.3457 -0.5996,-4.13538 -2.1068,-8.01221 -3.78906,-11.79297 -0.51766,-1.1634 -1.05086,-2.37723 -1.67188,-3.49219 -0.23611,-0.42389 -0.41332,-0.88293 -0.61914,-1.32617 0.83283,0.90081 4.1978,2.49814 4.94727,2.88282 0.0201,0.0103 0.0404,0.0192 0.0605,0.0293 1.3913,3.51078 2.48625,6.6269 3.43165,10.25977 0.76044,2.92216 1.61346,5.84858 2.17773,8.8125 0.53543,2.81235 0.70762,5.86172 1.67187,8.56836 1.37379,3.85615 4.16239,7.16148 6,10.79883 0.62487,1.23686 1.49937,2.306 2.20899,3.49218 0.9344,1.56192 1.83379,3.15312 2.74609,4.72852 0.45255,0.78148 0.90862,1.6159 1.25391,2.44531 0.25935,0.62299 0.42607,1.27259 0.47851,1.1543 0.36437,-0.82194 -1.04597,-3.91736 -1.40429,-4.8086 -1.3799,-3.43218 -2.95772,-6.74419 -4.44727,-10.12695 -1.56412,-3.5521 -3.033,-7.53312 -4.32812,-11.20312 -0.51063,-1.447 -0.51611,-3.00333 -0.86524,-4.48633 -0.58177,-2.47125 -1.19138,-4.93789 -1.76172,-7.41406 -0.84602,-3.67314 -2.0507,-7.4139 -1.5625,-11.18555 1.15087,1.46742 2.46351,2.81343 3.50196,4.36328 0.65544,0.97821 1.13693,2.05058 1.73242,3.0625 0.72118,1.2255 1.39282,2.35005 1.76172,3.73438 0.33878,1.27127 0.86536,2.67662 0.80468,4.00195 -0.0937,2.04664 -1.00985,3.99515 -0.38671,6.23242 0.29816,1.07049 0.80573,2.08871 1.16406,3.14258 0.23377,0.68752 0.34108,1.42573 0.62695,2.0957 0.44308,1.03844 1.07701,1.97455 1.58203,2.98047 0.77923,1.55213 1.31344,3.20143 2.08789,4.75586 0.8357,1.67734 1.75502,3.31966 2.53907,5.02344 1.32786,2.88551 3.03119,5.51911 5.04297,7.97851 0.64968,0.79424 1.35009,1.724 2.17968,2.33789 0.60127,0.44495 1.22549,0.86358 1.22461,0.85938 -0.2862,-1.37198 -3.06822,-4.73248 -3.88086,-6.3125 -2.43931,-4.74275 -5.5957,-9.52486 -6.83593,-14.77539 -0.57324,-2.4268 -0.72211,-5.11328 -0.7754,-7.60352 -0.0289,-1.35127 -0.22177,-2.72982 -0.12109,-4.08203 0.25709,-3.45294 1.00167,-4.44599 -0.41601,-7.76367 -0.77726,-1.81896 -1.52966,-3.73517 -1.97071,-5.66797 -0.14864,-0.65137 -0.26339,-1.31153 -0.41797,-1.96094 -0.37001,-1.5544 0.23502,1.14443 -0.17968,-0.72656 -0.01,-0.0446 -0.0453,-0.17564 -0.0293,-0.13281 0.95413,2.5688 2.92823,4.19652 4.80469,6.09765 4.04635,4.09955 9.25835,7.32481 14.6582,9.32032 1.94173,0.71756 3.79947,1.69695 5.78906,2.28515 1.6112,0.47633 3.30606,0.85184 4.95508,1.18164 2.22441,0.44489 4.48773,0.71629 6.7168,1.1543 0.12086,0.0238 0.28156,0.0381 0.43164,0.0547 0.60668,0.17546 1.2036,0.35524 1.77343,0.55078 2.03504,0.6983 6.48032,0.64258 8.61524,0.64258 3.66512,0 7.22008,-0.53831 10.77539,-1.39649 0.85805,-0.20712 1.73679,-0.28374 2.5957,-0.48242 3.78405,-0.87527 7.57199,-2.17329 11.07617,-3.86914 1.71453,-0.82974 3.29013,-1.9176 5.01368,-2.74023 3.40109,-1.62332 6.63238,-3.43609 9.70117,-5.61329 0.73734,-0.52312 1.89525,-1.05883 2.50781,-1.7207 0.0463,-0.05 0.0904,-0.11388 0.13672,-0.16601 1.23676,0.79933 4.13744,1.58311 5.08398,1.7246 1.21211,0.18119 2.46436,0.18732 3.64258,0.56446 0.79168,0.2534 1.53941,0.65927 2.26758,1.04687 3.83041,2.03895 7.14398,4.94766 10.83594,7.22657 0.60589,0.374 1.24301,0.71386 1.89844,1.01171 3.49335,4.01371 6.88473,8.12206 10.60742,11.9375 1.70029,1.74265 3.64819,3.21817 5.34375,4.96875 2.82818,2.91997 5.34457,6.36946 7.07422,10.04688 0.57318,1.21864 1.05105,2.47092 1.61132,3.68164 0.2281,0.49293 0.40653,0.99 0.65625,1.47656 0.0306,0.0597 0.10069,0.22602 0.1211,0.16211 0.10668,-0.33484 -0.49189,-4.90128 -0.41797,-4.91601 0.52538,-0.10472 2.22681,1.40646 2.68555,1.6914 1.37659,0.85505 2.85956,1.54258 4.29882,2.28321 0.77573,0.39918 1.54153,0.8458 2.35743,1.15625 0.13477,0.0513 0.27444,0.091 0.41211,0.13476 -1.53691,-0.90902 -3.23123,-2.93955 -4.35157,-4.11133 -2.67757,-2.8005 -5.08324,-5.84665 -7.76172,-8.65039 -3.13334,-3.27987 -6.15509,-6.60414 -9.07421,-10.07422 -1.68298,-2.00062 -4.28954,-4.59066 -4.56641,-7.35937 -0.33235,-3.32359 3.96328,-4.27149 6.56641,-4.27149 0.20846,0 0.42375,0.0137 0.63867,0.0352 0.74889,0.72716 1.48689,1.4623 2.19726,2.2207 1.67181,1.78483 2.99424,3.81023 4.56641,5.66797 2.52923,2.98866 4.85519,6.03255 6.98633,9.32227 1.95996,3.02549 3.98213,5.94428 6.08789,8.86523 1.09874,1.52409 2.0373,3.13447 3.19531,4.61914 0.93519,1.19902 1.68627,2.5034 2.56641,3.73438 0.0837,0.11704 0.9056,1.63135 0.98632,1.55859 0.50767,-0.45753 -0.89866,-3.91443 -0.53906,-4.43164 0.24604,-0.35388 0.66653,-0.51157 1.04492,-0.67187 0.18756,-0.0795 1.89183,-0.66984 1.85157,-0.7793 -0.0315,-0.0857 -0.17965,-0.0387 -0.26953,-0.0547 -0.78359,-0.14027 -1.8091,-0.71275 -2.38868,-1.23437 -1.52549,-1.37296 -2.43248,-3.52687 -3.43164,-5.26563 -0.96616,-1.68131 -1.8513,-3.42192 -2.86523,-5.07812 -1.84279,-3.0101 -3.98662,-5.82608 -5.91016,-8.78321 -0.94578,-1.45399 -1.89514,-2.93831 -2.77734,-4.43164 -0.6008,-1.01699 -1.03904,-2.09621 -1.73047,-3.06445 -4.38439,-6.13965 -9.37208,-11.96904 -14.74414,-17.27148 -2.65309,-2.6187 -4.62903,-5.8484 -7.25586,-8.51758 -0.80485,-0.81784 -2.07369,-2.41932 -3.07227,-2.76563 -0.23217,-0.0805 -0.10566,0.89154 -0.0898,1.04688 0.21529,2.11969 0.0495,1.73678 -1.82227,0.51172 -0.99177,-0.64911 -1.81153,-1.41217 -2.71484,-2.17579 -0.80428,-0.67989 -1.72611,-1.22656 -2.50781,-1.93554 -0.79698,-0.72284 -1.59268,-1.5359 -2.23828,-2.39063 -0.10609,-0.14045 -0.32492,-0.36927 -0.52149,-0.58007 0.13643,0.20049 0.27799,0.39819 0.40039,0.60742 0.24636,0.42109 0.22957,1.02938 0.47852,1.47656 0.18503,0.33237 0.44859,0.62856 0.62695,0.96875 0.0898,0.17138 0.55943,0.83901 0.17969,0.64453 -0.33871,-0.17347 -3.26332,-2.71274 -3.34375,-2.58008 -0.21103,0.34809 0.42404,1.3313 0.56836,1.61133 1.19802,2.32474 2.9603,4.29055 4.70508,6.24414 -0.006,-0.003 -0.0134,-0.007 -0.0195,-0.01 -0.8171,-0.36738 -1.62878,-0.33249 -2.50782,-0.26954 -0.76086,3.49076 -1.64213,6.14196 -1.73047,9.05079 -0.59064,-0.28118 -1.25591,-0.44921 -1.73242,-0.91211 -0.78962,-0.76705 -1.35101,-1.58602 -2.05859,-2.41797 -0.51927,-0.61055 -1.26371,-1.12924 -1.70313,-1.79883 -0.40172,-0.61216 -0.49153,-1.67846 -1.19336,-2.01563 -0.60655,-0.29139 -1.3155,-0.24442 -2.02539,-0.082 0.77889,-2.48414 1.43497,-4.96392 1.51954,-7.65429 0.0531,-1.69014 0.022,-3.55998 -0.17774,-5.23828 -0.12853,-1.07989 -0.47862,-2.15417 -0.32812,-3.25 0.041,-0.2989 0.70852,-0.60202 0.92382,-0.69922 2.63948,-1.19123 5.87247,-0.89884 8.59766,-0.0801 0.71658,0.21529 1.26091,0.56415 1.88086,0.9668 0.23518,0.15274 0.47197,0.29703 0.7168,0.42968 0.0613,0.0332 0.22953,0.15412 0.17773,0.10742 -4.5838,-4.13108 -8.46401,-5.47062 -14.625,-4.96875 -1.40758,0.11467 -2.69109,0.29625 -3.9414,0.99415 -0.13046,0.0728 -1.14752,0.43642 -1.13282,0.48242 0.0387,0.1207 0.28192,0.26081 0.35742,0.34961 0.77084,0.90633 1.89891,2.32982 2.11914,3.51953 0.68303,3.68976 -0.91093,7.19667 -1.82031,10.71875 -1.09357,4.23548 -1.61419,8.57538 -4.23828,12.25 -6.85623,9.60109 -17.65295,12.06154 -28.53711,14.63867 -9.10861,2.15672 -19.01135,2.71803 -27.91601,-0.50781 -0.39042,-0.20166 -0.78302,-0.40071 -1.17188,-0.60547 -3.63742,-1.91532 -7.25823,-3.85707 -10.89453,-5.77539 -1.76472,-0.93098 -3.65452,-1.71616 -5.25391,-2.92774 -1.57078,-1.18992 -3.25108,-2.45526 -4.65625,-3.84179 -0.69142,-0.68226 -1.27148,-1.47297 -1.91015,-2.20313 -2.12334,-2.42753 -4.63862,-4.74997 -7.49219,-6.25976 -1.31125,-0.69378 -3.27845,-1.69484 -4.83594,-1.47657 -0.5755,0.0806 -1.0095,0.49615 -1.36523,0.92578 -0.31602,-0.85371 -0.58069,-1.70783 -0.78321,-2.61914 -0.44117,-1.98532 -0.76126,-3.99966 -1.28515,-5.96289 -0.15414,-0.57765 -0.48602,-1.1253 -0.62695,-1.69336 -0.0608,-0.24512 0.0154,-0.98241 -0.0879,-0.75195 -0.73176,1.6324 0.0643,6.41367 -0.83593,8.0332 -0.074,0.13316 -0.35894,0.16016 -0.47852,0.16016 -1.04268,0 -1.59356,-1.12899 -1.88086,-2.01367 -0.0445,-0.137 -0.35566,-2.27166 -0.44726,-2.23047 -0.28825,0.1296 -0.64464,1.20116 -0.80664,1.47852 -0.16098,0.27561 -0.52635,1.0833 -0.84766,1.92187 -0.88759,-2.19297 -1.77843,-4.41373 -2.375,-6.67773 -0.45024,-1.70869 -0.55444,-3.94614 -1.3125,-5.50586 -0.76045,-1.56464 -2.61304,-1.50581 -3.46289,-2.875 -0.68401,-1.10202 -1.32344,-3.875 -2.20898,-4.67383 -0.21409,-0.19311 -0.68415,-0.24453 -0.95508,-0.37695 -1.45009,-0.70875 -2.11708,-1.39704 -2.44727,-3.03516 -0.10954,-0.34926 -0.18558,-0.71253 -0.33008,-1.04883 -0.39016,-0.90801 -0.97298,-1.70607 -1.34179,-2.63281 -0.65116,-1.63622 -1.03796,-3.54205 -1.46289,-5.26367 -0.0483,-0.19586 -0.0972,-1.33389 -0.29883,-1.42383 -0.13121,-0.0585 -0.27539,0.12507 -0.41797,0.10742 -0.48068,-0.0595 -0.77359,-0.3553 -1.13477,-0.64648 -0.79168,-0.63824 -1.39007,-1.40505 -1.84961,-2.3086 -0.0267,-0.0526 -0.48601,-0.81151 -0.50781,-0.72656 z m 141.54492,30.35352 c -0.14668,-0.21557 -0.2877,-0.43508 -0.43164,-0.65235 0.002,8.9e-4 0.006,0.003 0.008,0.004 l -0.01,-0.008 v 0.002 c -0.3111,-0.14801 0.0488,0.24167 0.43359,0.6543 z m -0.42382,-0.64844 5.36132,4.5332 c -0.59512,-0.53565 -4.37759,-4.0566 -5.36132,-4.5332 z m 44.3789,66.96875 c 0.19079,0.11231 0.37998,0.21552 0.56445,0.28906 0.0622,0.0248 -0.0899,-0.10431 -0.15039,-0.13281 -0.1336,-0.063 -0.27311,-0.11127 -0.41406,-0.15625 z" /></g></svg>
