<?xml version="1.0" encoding="UTF-8" standalone="no"?>
<!-- Created with Inkscape (http://www.inkscape.org/) -->

<svg
   xmlns:dc="http://purl.org/dc/elements/1.1/"
   xmlns:cc="http://creativecommons.org/ns#"
   xmlns:rdf="http://www.w3.org/1999/02/22-rdf-syntax-ns#"
   xmlns:svg="http://www.w3.org/2000/svg"
   xmlns="http://www.w3.org/2000/svg"
   xmlns:sodipodi="http://sodipodi.sourceforge.net/DTD/sodipodi-0.dtd"
   xmlns:inkscape="http://www.inkscape.org/namespaces/inkscape"
   id="svg2"
   version="1.1"
   inkscape:version="0.91 r13725"
   xml:space="preserve"
   width="804.40179"
   height="663.17627"
   viewBox="0 0 804.40179 663.17627"
   sodipodi:docname="Chantonnay.svg"><metadata
     id="metadata8"><rdf:RDF><cc:Work
         rdf:about=""><dc:format>image/svg+xml</dc:format><dc:type
           rdf:resource="http://purl.org/dc/dcmitype/StillImage" /><dc:title></dc:title></cc:Work></rdf:RDF></metadata><defs
     id="defs6"><clipPath
   clipPathUnits="userSpaceOnUse"
   id="clipPath22"><path
     d="m 0,0 1833,0 0,1003 L 0,1003 0,0 Z"
     id="path24"
     inkscape:connector-curvature="0" /></clipPath><clipPath
   clipPathUnits="userSpaceOnUse"
   id="clipPath34"><path
     d="m 0,0 1833,0 0,1003 L 0,1003 0,0 Z"
     id="path36"
     inkscape:connector-curvature="0" /></clipPath><clipPath
   clipPathUnits="userSpaceOnUse"
   id="clipPath42"><path
     d="M 0,1003 0,0 l 1833,0 0,1003 -1833,0 z"
     id="path44"
     inkscape:connector-curvature="0" /></clipPath><clipPath
   clipPathUnits="userSpaceOnUse"
   id="clipPath54"><path
     d="m 0,1003 1833,0 L 1833,0 0,0 0,1003 Z"
     id="path56"
     inkscape:connector-curvature="0" /></clipPath>

</defs><sodipodi:namedview
     pagecolor="#ffffff"
     bordercolor="#666666"
     borderopacity="1"
     objecttolerance="10"
     gridtolerance="10"
     guidetolerance="10"
     inkscape:pageopacity="0"
     inkscape:pageshadow="2"
     inkscape:window-width="1366"
     inkscape:window-height="745"
     id="namedview4"
     showgrid="false"
     fit-margin-top="0"
     fit-margin-left="0"
     fit-margin-right="0"
     fit-margin-bottom="0"
     inkscape:zoom="0.63421264"
     inkscape:cx="633.29474"
     inkscape:cy="302.63933"
     inkscape:window-x="-8"
     inkscape:window-y="-8"
     inkscape:window-maximized="1"
     inkscape:current-layer="layer3"
     showguides="true"
     inkscape:guide-bbox="true"><sodipodi:guide
       position="872.50562,-17.234041"
       orientation="0,1"
       id="guide4212" /></sodipodi:namedview><g
     inkscape:groupmode="layer"
     id="layer3"
     inkscape:label="Chantonnay"
     style="display:inline"
     transform="translate(-153.87045,-99.634743)"><g
       id="g4261"
       transform="translate(36.563717,-30.144391)"><path
         transform="translate(153.38085,159.42404)"
         inkscape:connector-curvature="0"
         id="path5945-42"
         d="m 630.86953,298.39278 2e-5,0 c -0.71226,-0.94532 -2.60512,-0.89809 -3.51562,-1.8086 -0.14504,-0.14503 0,-0.87761 0,-1.11328 0,-3.73804 3.0608,-2.50417 5.01757,-4.46094 1.87049,-1.87049 -2.70779,-6.48947 -0.83593,-8.36132 0.89956,-0.89957 2.18139,-1.06617 3.0664,-1.95118 2.01816,-2.01816 -3.90234,-2.08015 -3.90234,-4.73828 0,-3.22846 3.11661,-3.11857 4.45898,-4.46093 0.91451,-0.91452 -0.14927,-8.21206 1.67188,-10.03321 5.24833,-5.24833 11.9697,-8.34666 16.44531,-12.82226 0.4568,-0.45681 5.86811,0.55032 6.96875,0 2.33029,-1.16515 5.05634,-5.05634 7.52539,-7.52539 0.35774,-0.35774 0.20085,-1.31414 0.55859,-1.67188 0.65834,-0.65835 2.5527,-0.88278 3.34375,-1.67383 1.35154,-1.35155 -2.68902,-2.60589 -1.39257,-3.90234 0.57489,-0.57489 2.51172,-0.28322 3.0664,-1.39258 0.79608,-1.59215 2.22852,-3.08903 2.22852,-2.78711 0,0.37164 0.26279,-0.85244 0,-1.11523 -0.27951,-0.27951 -4.55513,-1.85503 -2.78711,-3.62305 1.09009,-1.09009 3.68644,0.70915 4.73828,-1.39453 1.00484,-2.00969 -2.9927,-2.86081 -1.95117,-3.90235 0.55192,-0.55193 2.38939,-0.99485 4.18164,-2.7871 0.60392,-0.60393 -0.60393,-3.01912 0,-3.62305 1.30093,-1.30093 1.9282,-2.76609 3.34375,-4.18164 2.21542,-2.21542 -3.06753,-4.7352 -1.11328,-6.68945 0.70151,-0.70151 1.72601,-1.16937 2.50781,-1.95118 0.8262,-0.8262 2.77909,0.29729 3.3457,-0.83593 0.56623,-1.13247 2.19242,-1.09817 3.34375,-1.67383 0.38959,-0.1948 2.46522,-1.71644 3.34571,-0.83594 0.46456,0.46455 -0.18722,2.04522 0.27734,2.50977 1.48451,1.48451 1.71633,4.22414 3.90234,6.41015 0.56046,0.56083 -0.67525,0.98324 0.5586,1.39453 1.44592,0.48197 3.09921,-1.27226 3.90234,-1.67383 1.6438,-0.8219 2.00995,0.49787 3.34375,-0.83593 0.28474,-0.28516 -0.0586,-1.61322 0.2793,-1.95117 1.14134,-1.14134 5.57461,0.55703 6.13281,1.11523 0.64384,0.64385 1.36889,3.64673 3.06445,1.95117 0.19314,-0.19313 0.0862,-1.19946 0.2793,-1.39258 0.31923,-0.31921 1.33369,-0.45294 1.80469,-0.51172 0.0451,-0.022 0.0883,-0.0469 0.14648,-0.0469 0.22495,0 0.0882,0.0176 -0.14648,0.0469 -0.45943,0.22451 -0.27227,1.48554 0.14648,1.9043 1.05383,1.05382 9.84151,-3.93767 12.54297,-2.50781 -0.58767,-1.17525 0.37247,-2.97322 -0.55664,-3.90234 -5.08272,-5.08272 -16.30289,-0.90536 -23.41406,-4.46094 -1.4378,-0.7189 -4.86887,0.42801 -5.85352,-0.55664 -1.63695,-1.63695 -5.73275,-3.14568 -7.80469,-4.18164 -2.33952,-1.16977 -1.47399,-4.67167 -4.18164,-5.57422 -1.5502,-0.51673 -1.72785,0.61261 -2.7871,1.67187 -0.40629,0.40628 -7.27152,-3.92777 -8.08204,-4.73828 -1.39333,-1.39333 -2.62324,-3.73849 -3.90234,-5.01758 -0.86472,-0.86473 -3.22467,-12.97858 -3.90234,-13.65625 -2.38619,-2.38618 -4.15688,-6.36259 -5.85352,-9.75586 -0.48031,-0.96063 -0.29509,-2.26399 -0.83594,-3.3457 -1.2384,-2.4768 -4.01971,-5.25038 -5.29687,-7.80469 -0.49609,-0.99218 0.0724,-2.28862 -0.2793,-3.34375 -0.43997,-1.3199 -2.2282,-6.13363 -3.34375,-6.6914 -4.97864,-2.48932 -14.33237,0.6385 -17.28125,-0.83594 -1.15717,-0.57859 -5.41303,-0.11615 -6.13281,-0.83594 -1.44712,-1.44711 -6.38026,-1.36268 -7.80469,-2.78711 -1.28715,-1.28714 -4.03616,-2.69077 -5.85351,-3.90234 -0.41713,-0.27808 -1.71484,-0.3203 -1.95118,-0.55664 -3.58174,-3.58174 -9.55799,-5.09901 -12.82226,-8.36328 -0.45802,-0.45802 -1.82504,-0.43246 -2.22852,-0.83594 -0.71615,-0.71615 -1.66263,-3.33255 -1.67383,-3.34375 -1.149,-1.14901 -3.89999,-2.22812 -4.73828,-3.06641 -0.36467,-0.36467 -5.17358,-3.26672 -5.57422,-3.0664 -1.92322,0.96161 -4.02363,9.8165 -6.13281,10.87109 -2.76454,1.38227 -11.31192,-4.24785 -11.98437,-2.23047 -0.50957,1.5288 0.59764,7.16407 -0.5586,9.47656 -0.63533,1.27065 -0.98378,0.70645 -1.67187,1.39454 -0.79409,0.79409 0.22271,2.8437 -0.55664,3.62304 -0.37485,0.37486 -1.53444,0.41921 -1.95117,0.83594 -0.43128,0.43128 -1.89458,1.11524 -1.95118,1.11524 -0.11872,0 0.15854,4.14188 0,4.45898 -0.63463,1.26924 -1.24342,6.24001 -1.95117,8.36328 -0.30806,0.92418 -1.81968,1.96553 -2.23047,2.78711 -3.5157,7.03139 -8.53249,12.99147 -13.9375,18.39648 -0.10725,0.10725 -6.27434,-2.50173 -8.91797,1.67188 -0.12767,-0.38301 -1.46904,-1.54355 -1.95117,-2.50781 -0.20553,-0.41105 0.31248,-1.6387 0,-1.95118 -2.92513,-2.92513 -3.89131,-8.07295 -6.68945,-10.87109 -1.93414,-1.93414 1.85908,-7.89678 0,-9.75586 -0.84114,-0.84121 -1.57687,-0.18233 -2.23047,-0.83594 -0.42678,-0.42678 -0.0733,-2.02442 -0.55664,-2.50781 -2.04957,-2.04957 -11.70703,0.44685 -11.70703,-4.46094 0,-0.90792 -2.25147,-3.92334 -3.06641,-4.73828 -0.35699,-0.35699 -2.17183,-1.11523 -1.95117,-1.11523 0.0521,0 0,-1.60296 0,-1.11524 0,0.242 4.30349,-0.24368 4.73828,-1.11328 0.56689,-1.13376 -1.82909,-2.90919 -1.67187,-3.0664 2.55461,-2.55461 4.23165,-2.89104 6.13086,-6.68946 0.89727,-1.79454 1.95117,0.28856 1.95117,-1.95117 0,-0.0389 -2.28908,-2.0723 -2.50781,-2.50976 -0.17595,-0.3519 0.26758,-1.4043 0,-1.67188 -1.37653,-1.37654 -4.0965,-2.81291 -4.73829,-4.73828 -0.70236,-2.10709 -2.29046,-5.356866 -4.18164,-7.248046 -1.3139,-1.31389 -9.07818,-6.172 -9.19726,-6.41015 -0.63708,-1.27417 0.2487,-2.81576 -0.83789,-3.90235 -1.59482,-1.59482 -3.57642,-3.80909 -4.73828,-6.13281 -0.6512,-1.30239 0.98629,-5.14458 0,-6.13086 -0.87367,-0.87367 -2.33703,-3.81793 -3.62305,-4.46094 -0.41451,-0.20725 -1.35066,-0.23541 -1.67188,-0.55664 -0.58117,-0.58118 0.0575,-3.00694 -0.55859,-3.62304 -2.23603,-2.23603 -3.90308,-5.85622 -6.13086,-8.08399 -0.19335,-0.19336 -16.35573,5.66379 -18.39648,3.62305 -0.59492,-0.59493 -0.56401,-2.50781 0.27734,-2.50781 0.46455,0 0,-0.92999 0,-1.39453 0,-0.78593 0.55859,-2.07022 0.55859,-3.34376 0,-3.65164 8.14657,-9.13663 5.01758,-12.26562 -0.87996,-0.87996 -4.46094,0.49662 -4.46094,1.39453 0,1.02202 -2.04438,0 -3.0664,0 -0.36757,0 -1.47712,1.77023 -2.22852,1.39453 -1.26297,-0.63148 -1.88522,-2.33812 -2.78711,-2.78906 -1.28625,-0.64313 -7.79691,3.62791 -10.59179,2.23047 -1.37425,-0.68712 -0.99648,-2.66836 -1.95118,-3.62305 -1.23135,-1.23136 -3.02596,-2.66383 -3.625,-4.46094 -1.69014,-5.07042 3.00425,-10.09536 -0.55664,-13.65625 -0.74329,-0.74329 0.18665,-3.15905 -0.55664,-3.90234 -1.27975,-1.27975 -4.25027,0.81371 -6.6914,0 -1.13134,-0.37711 -2.00618,-1.98062 -3.06446,-2.50977 -1.83971,-0.91985 -1.67382,3.49145 -1.67382,4.46094 0,0.75826 0.91832,1.19567 1.95117,2.22852 0.76347,0.76348 0,6.3276 0,7.52734 0,4.1344 -5.01769,7.80685 -6.9668,11.70508 -0.56338,1.12675 3.57272,5.24654 4.45899,6.13281 2.12983,2.12982 -2.50782,9.12721 -2.50782,11.42774 0,3.44909 -0.61952,5.14138 -1.95117,7.80468 -1.68311,3.36613 1.44994,5.79617 -1.67383,8.91993 -0.71359,0.71359 -0.59501,1.95117 -1.39258,1.95117 -0.74329,0 0,1.48718 0,2.23047 0,1.71742 -0.27929,3.13845 -0.27929,3.06445 0,-0.55747 -1.11441,0 -1.67188,0 -1.52124,0 -3.19058,-0.55664 -4.46093,-0.55664 -3.63394,0 -6.88902,-2.78711 -10.3125,-2.78711 -3.74826,0 -12.97471,-8.94747 -14.49414,-11.98633 -1.52066,-3.0413 -5.57319,-3.89936 -7.80469,-6.13086 -6.29646,-6.29645 -14.74599,-12.60916 -20.62696,-20.90625 2.61767,-1.30884 5.70589,-5.14729 8.36329,-7.80468 1.0581,-1.05811 2.63884,-1.52361 3.90234,-2.78711 4.97631,-4.97631 9.66506,-10.31318 15.33008,-14.21485 -1.0979,-0.54895 -0.16553,-0.61035 -0.83594,-1.95117 -0.74411,-1.4882 -2.42634,-1.50698 -3.3457,-3.3457 -1.08655,-2.1730902 -2.34296,-9.1702102 -6.16797,-8.8125002 -0.255,0.0238 -0.52224,0.079 -0.80078,0.17187 -0.89795,0.29932 -1.35675,1.07941 -1.95117,1.67383 -0.64021,0.64019 -2.95882,0.72835 -3.62305,1.39258 -1.78177,1.78177 -6.17529,2.83154 -7.52539,4.18164 -0.34665,0.34665 -0.41103,0.90277 -0.83594,1.1152302 -2.75697,1.37848 -7.00072,0.86792 -9.19922,3.06641 -0.66375,0.66376 -3.01589,2.96538 -3.62305,4.17969 -0.23505,0.4701 -0.2843,1.67883 -0.55664,1.95117 -1.84012,1.84012 -4.33811,3.50022 -6.41211,5.57422 -1.65808,1.65809 -4.75449,0.008 -6.96875,1.11523 -2.85082,1.42542 -11.5881,2.94943 -13.09961,4.46094 -0.53798,0.53799 -1.07853,1.91447 -1.67187,2.50781 -0.78325,0.78325 -2.95349,-0.11486 -3.625,0.55664 -1.58754,1.58755 -9.18015,5.01188 -11.70508,5.85352 -2.22295,0.74098 -2.96446,2.12853 -4.46094,3.625 -0.36384,0.36384 -1.38547,0.90106 -1.70898,1.18945 0.17643,0.11755 0.26149,0.20313 0.0371,0.20313 -0.21111,0 -0.16983,-0.0848 -0.0371,-0.20313 -0.39414,-0.26261 -1.41059,-0.7411 -1.63477,-1.18945 -0.6137,-1.22738 0.0931,-1.57873 -0.83789,-2.50977 -0.43542,-0.43543 0.28359,-2.21994 0,-2.78711 -0.54491,-1.08982 -0.8498,-2.52167 -1.67187,-3.34375 -0.55329,-0.55328 -0.0471,-3.11544 -0.27734,-3.3457 -0.51313,-0.51312 -0.88142,1.15875 -1.39454,1.67188 -1.21915,1.21915 -4.53632,2.30781 -5.85351,3.625 -0.43276,0.43276 5.55523,16.10905 6.41015,18.67382 0.64143,1.92427 2.20939,3.60392 3.06641,4.46094 0.72566,0.72567 0.2793,4.09265 0.2793,3.06641 0,-0.46456 -0.92997,0 -1.39453,0 -1.10308,0 -2.86511,-0.34574 -3.90235,0 -0.56794,0.18931 -3.48353,0.97377 -3.90234,1.39257 -1.4118,1.4118 -6.99664,7.09446 -10.5918,5.29688 -1.53542,-0.76771 0.41009,-1.82233 -0.55664,-2.78906 -0.6749,-0.6749 -8.03618,-3.01666 -8.08398,-3.06446 -0.45233,-0.45233 -1.56237,-1.34075 -2.22852,-1.67382 -3.25648,-1.62824 -18.88374,-2.15718 -20.07031,-3.34375 -1.49755,-1.49756 -3.48595,-3.76525 -5.57422,-5.85352 -1.10372,-1.10372 -0.56817,-3.91387 -1.67188,-5.01758 -1.37718,-1.37718 -3.62748,-1.67631 -4.73828,-2.78711 -4.06981,-4.06981 -8.51413,-5.28567 -12.82226,-9.19922 -1.92516,0.64172 -3.01822,4.6419 -4.18164,6.96875 -0.86394,1.72788 -3.61417,3.60724 -4.45899,5.29688 -2.9812,5.9624 -7.72416,13.85502 -11.98633,18.11719 -1.0869,1.08691 1.00799,3.83754 0.83594,4.18164 -0.71564,1.43126 -4.34985,0.7268 -5.29492,1.67187 -0.78639,0.78638 -2.73831,1.08986 -3.90234,1.67188 -3.21283,1.60642 -6.48193,5.19214 -10.03516,6.96875 -1.15367,0.57684 -9.08111,2.11432 -9.19726,2.23047 -3.22702,3.227 -12.95798,5.70992 -15.88868,8.64062 -1.07484,1.07484 -2.45612,2.17878 -3.34375,3.06641 -1.04305,1.04305 -2.47004,4.41926 -3.625,5.57422 -1.08647,1.086466 -3.18776,1.103686 -4.45898,1.951166 -3.11941,2.07961 -4.82179,5.24176 -8.91992,6.13281 0,2.212 -1.44915,1.16986 -1.95117,1.67188 -1.9394,1.9394 -4.4095,4.71353 -6.68946,5.85351 -0.55672,0.27836 -1.45563,0.3404 -1.95117,0.83594 -3.12439,3.12439 -5.15372,7.31514 -9.47656,9.47656 -0.43988,0.21994 -1.88953,-0.34094 -2.23047,0 -1.82355,1.82356 -5.9032,2.00085 -7.52539,3.62305 -1.94386,1.94386 -5.14117,-1.82563 -5.57422,-1.39258 -0.44465,0.44465 -0.47482,0.79503 -1.11523,1.11523 -0.35191,0.17596 -1.4043,-0.26758 -1.67188,0 -1.8645,1.8645 -4.44667,1.93692 -6.41211,3.90235 -0.41352,0.41352 0.0345,0.76887 -0.27734,1.39258 -0.14029,0.28059 -4.95508,2.16796 -5.85352,3.0664 -0.49245,0.49245 -0.91106,1.747 -1.39453,2.23047 -0.89661,0.89661 -2.19401,0.79949 -3.06641,1.67188 -2.56764,2.56764 -5.37422,4.81563 -7.80468,7.24609 -2.07688,2.07689 -2.30025,4.53267 -4.45899,6.69141 -0.78975,0.78975 0.51045,3.66924 -0.2793,4.45898 -1.06941,1.06942 -1.48054,2.60351 -3.62304,2.50781 0.52206,1.04411 2.04004,4.91604 3.3457,7.52735 0.56717,1.13435 -0.38743,1.73296 0,2.50781 1.62983,3.25966 5.63457,4.24199 8.64063,7.24805 0.30392,0.30392 0.22209,4.85073 0,5.29492 -0.5323,1.06459 -3.52758,1.48547 -5.01758,2.23047 -1.48386,0.74193 -2.90791,3.96079 -3.34571,4.17968 -0.61394,0.30697 -1.59913,0.69048 -1.95117,1.39454 -0.66271,1.32542 -1.38668,2.49405 -1.95117,3.62304 -0.28304,0.56607 0.479,3.94214 0,4.18164 -0.89985,0.44993 -1.99572,-0.55859 -3.06445,-0.55859 -1.28765,0 -1.40894,0.57301 -1.95117,1.11523 -0.84933,0.84933 -3.99314,-0.68296 -5.01758,0 -3.03581,2.02388 -3.84307,8.75918 -1.95117,12.54297 0.82325,1.64651 -0.5531,4.19068 0,5.29688 0.52936,1.05872 3.42209,0.55664 4.45898,0.55664 4.30224,0 8.7489,-0.45031 11.15039,1.95117 1.54093,1.54094 6.5363,-1.14029 8.36133,2.50977 1.50072,3.00143 -7.57853,7.07307 -7.80469,7.52539 -0.44549,0.89098 -3.31196,9.30143 -0.55664,10.87109 1.08105,0 3.51307,-0.47296 4.45899,0 0.40293,0.20147 0.77181,1.22087 1.11523,1.39258 0.32339,0.1617 1.48568,0.55859 1.39258,0.55859 -1.22,0 -0.006,11.44292 -0.55664,12.54297 -0.38467,0.76934 -1.7288,1.72685 -2.23047,2.22852 -0.01,0.01 -1.20898,7.1543 -0.83594,7.52734 2.51767,2.51767 7.51258,7.551 4.73828,13.09961 -0.21171,0.42342 -0.3045,2.25566 -0.55664,2.50781 -1.24648,1.24648 -2.5082,2.36934 -4.46094,3.34571 -2.44199,1.22098 -11.94043,-0.60254 -13.3789,0.83593 -3.30819,3.30818 -6.99114,6.71379 -10.86914,10.5918 -1.55425,1.55424 -2.56154,5.04444 -5.29688,6.41211 -1.93524,0.96762 -12.96399,-0.69617 -13.9375,0.27734 -2.92205,2.92205 -5.8173,0.40084 -8.91797,1.95117 -1.88027,0.94014 -2.01202,2.78711 -5.01757,2.78711 -0.23811,0 -1.11081,3.06198 -2.23047,4.18164 -0.22565,0.22565 0,1.87595 0,2.23047 0,6.28298 4.61798,10.25235 8.64062,12.26367 1.55023,0.77511 4.15451,0.26961 5.85352,0.83594 2.51547,0.83849 4.39675,2.756 6.68945,3.90235 1.53724,0.76862 5.49121,0 7.24805,0 0.203,0 1.5031,0.16877 1.67187,0 2.1099,-2.1099 5.62481,-9.98458 10.5918,-5.01758 0.99046,0.99046 2.08294,1.38073 2.50781,2.23047 1.14274,2.28547 -1.67187,4.22165 -1.67187,5.57422 0,3.47395 -5.97441,3.7459 -7.80469,5.57617 -0.32519,0.32519 -1.62598,-0.32519 -1.95117,0 -1.25398,1.25399 -2.14797,2.9839 -3.34375,4.17969 -0.60984,0.60984 -2.55503,-0.23209 -3.06641,0.27929 -1.45914,1.45914 -3.82444,2.88781 -5.85351,3.90235 -1.76466,0.88233 -4.67081,-0.59039 -6.41016,0.27929 -2.22227,1.11113 -3.23822,4.0722 -4.46094,5.29492 -1.17485,1.17485 -3.25544,2.14022 -4.73828,3.62305 -1.08592,1.08592 -4.09637,0.65561 -5.57422,1.39453 -1.19459,0.5973 -1.9725503,1.97255 -2.7871103,2.78711 -0.67151,0.67151 -2.28315,0.332 -3.0664,1.11524 -0.50151,0.50152 -0.92777,1.4844 -1.39453,1.95117 -0.50634,0.50635 -2.20225,0.78143 -2.50782,1.39258 -0.40886,0.81771 0.2767,1.39129 0.55664,1.95117 0.23503,0.47005 -0.35729,1.87318 0,2.23047 0.97652,0.97652 1.52857,0.41332 2.78711,1.67187 0.66377,0.66376 -0.92874,1.30172 0,2.23047 1.32761,1.32761 2.20362,1.7605 3.625,3.3457 0.23683,0.47366 -0.20248,1.82745 0.27735,2.78711 0.0142,0.0285 5.3977103,6.32191 6.6914003,6.96875 3.07128,1.53564 11.3368,-1.07074 12.54297,-1.67383 0.79395,-0.39697 1.62102,0.53219 2.22852,0.83594 3.27081,1.63541 12.31151,-0.60253 14.21679,-2.50781 0.56146,-0.56145 3.41381,-1.2534 3.90235,-2.23047 l 1.39258,-2.78711 c 0.32335,-0.6467 -0.49152,-2.57488 0,-3.0664 1.29987,-1.29987 2.66826,-4.5006 3.62304,-6.41016 1.45959,-2.91917 5.61967,-5.06107 8.08399,-7.52539 0.2031,-0.20311 2.08894,0 3.0664,0 3.99148,0 6.43542,0.30259 8.64063,2.50781 0.39908,0.39907 0.0757,1.74951 0.55664,2.23047 1.36183,1.36183 2.50041,2.22112 3.90234,3.62305 0.48904,0.48905 0.30671,2.25788 0.83594,2.78711 4.52392,4.52392 -3.57042,13.55491 -5.29492,17.0039 -0.47663,0.95327 -0.55064,1.9432 -1.11524,2.50782 -0.78246,0.78245 -0.45209,2.95989 -1.39453,3.90234 -0.18583,0.18582 -0.92746,-0.18582 -1.11328,0 -1.04385,1.04385 -0.11416,1.22743 -1.39453,2.50781 -0.35729,0.35729 0.23502,1.76042 0,2.23047 -0.64482,1.28964 -2.44029,3.06641 -3.34375,3.06641 -0.14251,0 0.0557,3.50972 -0.83789,5.29687 -0.33603,0.67206 -0.74804,0.4707 -1.11328,0.83594 -0.4745,0.4745 -1.05596,3.84307 -1.95117,4.73828 -0.70827,0.70828 -1.85284,1.29424 -2.50977,1.95117 -0.9385,0.93851 0.61744,4.61864 0,5.85352 -0.54705,1.09411 -1.10521,1.65378 -1.67187,2.78711 -0.29392,0.58785 0.44679,2.34032 0,2.78711 -0.6881,0.6881 -1.71125,2.02795 -2.23047,3.0664 -0.52031,1.0406 0.5203,2.86175 0,3.90235 -2.97792,5.95583 1.38065,16.17989 -2.78711,20.34765 -1.43134,1.43134 0.98651,2.80701 1.39453,3.62305 0.99099,1.98199 -0.45926,3.44504 1.11328,5.01758 1.16398,1.16398 -1.11328,8.57168 -1.11328,9.19726 0,1.39279 0.44638,3.45402 0.27734,3.62305 -0.0853,0.0853 0.78294,1.00925 0.83594,1.11523 0.57363,1.14725 1.32428,2.71881 2.23047,3.625 1.25553,1.25554 4.21024,0.0878 4.73828,1.67188 0.83163,2.49489 -1.22278,4.63074 0,5.85352 0.61074,0.61075 2.20895,0.53707 2.78711,1.11523 0.89834,0.89834 0.92227,1.67187 2.78711,1.67187 1.62599,0 7.35962,0.77918 7.80469,0.55664 0.74506,-0.37252 5.05288,-6.14753 6.6914,-6.96679 0.53614,-0.26807 1.24042,0.27734 1.94922,0.27734 2.85734,0 3.07328,-2.23538 4.74024,-3.90234 1.60639,-1.60638 5.61302,-0.3181 7.24609,-1.95117 1.3984,-1.39841 1.11501,-4.45875 2.50976,-5.85352 0.31249,-0.31248 1.53817,0.20553 1.94922,0 0.83637,-0.41818 2.14596,-1.95117 2.78907,-1.95117 1.41127,0 3.65258,-1.95972 6.96679,-3.06445 1.94357,-0.64786 3.98549,0.45855 4.74024,0.83593 2.27912,1.13956 10.81276,-0.27929 13.93554,-0.27929 1.45575,0 2.72712,0.61859 3.34571,0 0.97191,-0.9719 1.02601,-1.94583 3.34375,-1.67188 0.83285,-0.41643 2.15045,-1.59382 2.78711,-2.23047 0.55747,-0.55747 2.78823,0.55746 3.3457,0 1.12723,-1.12723 9.66992,-4.54491 11.98437,-2.23047 0.75316,0.75315 2.29174,1.51512 2.78907,2.50977 0.82901,1.65802 0.24483,8.88545 1.39258,10.0332 1.02212,1.02212 2.50426,1.66833 3.3457,2.50977 0.57223,0.57223 -1.62746,1.99558 0,3.62304 2.93462,2.93462 4.08148,7.1479 6.68945,9.75586 0.65038,0.65038 2.97267,-0.37108 3.62305,0.2793 0.65038,0.65038 0.18556,2.41407 0.83594,3.06445 1.32289,1.32289 4.60309,2.79409 5.29687,4.18165 0.42167,0.84333 -0.42947,4.59007 0.27734,5.29687 1.17008,1.17008 1.72268,3.11525 3.34571,4.73828 2.05297,2.05296 -2.46732,8.28036 -2.78711,8.91992 -2.2004,4.40081 -5.19823,12.16502 -8.08399,15.05078 -0.78947,0.78947 -0.0494,8.03268 0.5586,8.64063 1.0999,1.0999 3.15802,2.32208 3.90234,3.06641 0.946,0.946 1.12232,3.07349 1.95117,3.90234 3.42454,3.42454 6.35836,1.44633 8.64063,-0.83594 l 5.01562,-5.01758 c 0.64891,-0.64891 0.24323,-6.41015 2.23047,-6.41015 0.13105,0 0.58971,-8.39439 1.39453,-9.19922 1.68485,-1.68485 3.82764,-4.0197 7.52539,-2.78711 0.22277,0.0743 0.95801,-0.15723 1.11524,0 0.79685,0.79684 2.39217,2.27459 3.0664,3.62305 0.74663,1.49326 0.0574,6.01616 -0.55859,7.24804 -0.6351,1.2702 0.3479,2.22852 0.2793,2.22852 -0.16437,0 1.41917,6.1594 0.55664,5.29687 -0.14691,-0.14691 -0.27735,0.34888 -0.27735,0.55664 0,1.37616 -0.20075,4.33679 0,4.73829 0.37509,0.75016 1.55875,1.0021 1.95118,1.39453 1.17423,1.17423 -0.77076,4.83503 1.95117,5.57422 1.16449,-0.58224 1.21269,-1.76934 1.95117,-2.50782 0.52288,-0.52287 1.90463,-1.11523 2.22852,-1.11523 0.29383,0 0.27929,-0.54212 0.27929,-0.83594 0,-0.92445 3.59646,-4.98904 4.18164,-5.57422 1.09825,-1.09824 5.0768,-3.79425 6.41016,-4.46094 1.49544,-0.74771 5.94617,-9.66185 6.68945,-11.14843 0.26585,-0.53169 0,-1.90215 0,-2.50977 0,-5.46589 -2.49039,-8.65805 1.39453,-12.54297 0.92,-0.91998 -0.49474,-2.40106 0.83594,-3.0664 2.58603,-1.29301 5.50122,-2.43287 6.96875,-3.90039 1.69429,-1.69429 3.06446,2.38353 3.06446,3.34375 0,3.07901 -0.83034,19.24365 0,20.90429 0.38427,0.76856 3.96112,3.84551 5.57617,2.23047 1.70218,-1.70221 4.79694,-1.45319 5.01562,-1.67187 0.54892,-0.54892 0.63472,-1.74995 1.11524,-2.23047 0.38063,-0.38063 1.57054,-0.45531 1.95117,-0.83594 0.8568,-0.8568 1.76017,-2.31876 2.78711,-3.3457 0.75513,-0.75513 0,-6.40075 0,-7.52539 0,-1.61555 -0.36102,-3.4557 0.83789,-5.85352 1.944,-3.88799 -2.25669,-16.69838 2.22851,-21.18359 0.58692,-0.58692 0.22525,-1.89713 0.83594,-2.50781 2.20393,-2.20394 4.49014,-4.2128 6.68945,-6.41211 0.52509,-0.52509 16.75146,1.08838 17.56055,0.27929 0.22278,-0.22277 0.30961,-0.85206 0.83594,-1.11523 1.4638,-0.7319 3.29245,0.33256 4.46094,-0.83594 0.24424,-0.24424 0.27929,-0.92668 0.27929,-1.39258 0,-3.34233 1.21015,-5.66367 0,-8.08398 -0.33685,-0.67369 -0.9968,-1.27416 -1.39453,-1.67188 -0.52936,-0.52937 -0.16459,-2.00301 -0.55664,-2.78711 -0.74203,-1.48404 -2.65894,-1.38485 -2.80257,-3.47902 l -0.0556,-0.56322 c -0.0897,-0.17804 -2.36249,-2.22229 -2.36249,-2.22229 -2.55965,-2.77822 -4.99132,-4.99131 -7.24709,-7.24708 -1.21947,-1.21947 0.28057,-2.50677 -1.11494,-3.90228 -1.16396,-1.16397 -3.27961,-1.88595 -4.73848,-3.34481 -1.1433,-1.14331 0.73192,-4.28529 -0.8362,-5.85342 -0.6207,-0.62069 -1.36863,-0.53242 -1.6724,-0.8362 -1.04926,-1.04925 1.39012,-11.71393 0,-14.49417 -0.49259,-0.98518 -2.99617,-11.21928 -1.11494,-13.10051 1.78651,-1.78651 5.54879,-1.08904 5.85342,-1.39367 1.62755,-1.62756 3.05821,-4.45188 5.01721,-6.41088 0.14861,-0.14861 0.29976,-6.6686 0,-6.96835 -0.65248,-0.65249 -1.5694,-2.22988 -1.11494,-2.22988 0.74908,0 0.80841,-1.70019 0.27874,-2.22987 -4.33935,-4.33935 -6.41089,-8.08315 -6.41089,-16.16658 1.43051,-1.09463 2.30679,-1.50904 3.34481,-3.06607 1.42534,-2.13801 4.36041,-2.40927 5.85342,-3.90228 0.13937,-0.13937 -0.13937,-0.69684 0,-0.8362 0.16832,-0.16833 1.40807,0 1.6724,0 3.95673,0 8.18063,-0.18472 11.14937,0.55746 1.06848,0.26713 6.55449,1.5288 7.52582,0.55747 4.05814,-4.05814 1.02468,-12.45278 3.34481,-14.77291 0.23228,-0.23227 1.16139,0.23228 1.39367,0 2.42566,-2.42565 6.48854,-0.55746 9.47696,-0.55746 2.91683,0 5.79994,-0.27874 8.64076,-0.27874 0.84134,0 2.5086,-1.12008 2.5086,-0.27873 0,0.19574 1.35534,1.63407 2.22988,2.50861 0.97583,0.97583 1.19022,3.14136 2.22987,4.18101 1.95198,1.95198 3.70559,2.86939 5.57468,4.73848 2.24782,2.24781 0.34341,5.36062 2.50861,7.52582 0.5839,0.5839 2.23094,0.2798 2.78734,0.8362 3.12327,3.12327 8.52075,5.09722 11.14936,3.34481 1.64382,-1.09588 -0.17483,-2.05504 1.39367,-3.62354 0.66177,-0.66177 2.25847,-0.0572 2.78735,-1.11494 0.93219,-1.86438 -0.40249,-6.31836 0,-7.52582 0.41309,-1.23928 2.23289,-0.84528 2.5086,-1.67241 1.43178,-0.33235 1.56824,-0.49927 2.22988,-0.27873 0.69245,0.23082 0.53348,2.03606 1.11493,2.22987 0.22114,0.0737 2.78734,-0.0553 2.78734,0 0,1.77036 -1.87529,2.86319 -1.6724,3.06608 1.46769,1.46769 4.68437,0.50336 5.85341,1.6724 0.27874,0.27874 -0.27873,1.39367 0,1.67241 1.10889,1.10889 2.58389,1.74769 3.62355,2.78734 0.69236,0.69237 2.54745,0.0388 3.06607,0.55747 0.27874,0.27873 -0.27873,1.39367 0,1.6724 2.49695,2.49695 -1.1774,9.41449 -0.55747,10.03443 0.37817,0.37816 6.96836,-0.35954 6.96836,0 0,0.21248 0.13893,1.74187 1.11493,2.22987 0.4847,0.24235 2.22988,-0.34665 2.22988,0.27874 0,5.98905 0.44954,4.90928 3.90227,8.36202 0.11683,0.11683 0,-1.81561 0,-2.50861 0,-0.0205 1.95114,-1.15734 1.95114,-3.62354 0,-0.50899 4.52948,-0.27873 5.29595,-0.27873 1.45696,0 1.45178,-2.78735 5.57468,-2.78735 2.18518,0 0.29228,-0.84974 1.95114,-2.5086 0.74789,-0.74789 3.02737,0.31743 3.90228,-0.55747 1.09379,-1.09379 2.34936,-2.6281 3.34481,-3.62354 0.22801,-0.22802 1.36767,0.026 1.6724,-0.27874 0.13965,-0.13964 0.096,-0.9322 0.27874,-1.11494 0.45921,-0.4592 2.59456,0.75025 3.34481,0 3.78707,-3.78707 3.62354,-13.76243 3.62354,-18.67518 -0.48697,-1.69583 -0.19127,-3.36116 -0.27873,-3.62354 -0.0407,-0.12204 -1.78582,-0.39215 -1.95114,-0.55747 -1.13172,-1.13172 -2.43724,-2.71598 -3.62355,-3.90228 -2.47454,-2.47455 -7.24708,-1.18488 -7.24708,-6.96835 0,-1.01435 -0.11744,-2.55248 0,-2.78734 0.0399,-0.0798 7.61089,-1.71494 9.75569,-2.78734 0.0451,-0.0226 3.53543,0.45496 3.90228,-0.27874 0.41034,-0.82069 1.6116,-8.14409 0.55747,-9.19822 -0.27874,-0.27874 -1.11494,0 -1.39367,-0.27874 -0.66061,-0.66061 0.39664,-1.55449 -0.27874,-2.22987 -0.83806,-0.83807 -2.05382,-1.21762 -2.78734,-1.95114 -1.8852,-1.8852 2.3314,-4.94154 3.06608,-6.41088 1.21309,-2.42618 -0.84728,-7.78242 0,-9.47696 0.15335,-0.30671 1.41728,-0.85982 1.6724,-1.11494 0.53479,-0.53479 -0.33394,-2.73213 0.27874,-3.34481 1.29635,-1.29635 1.95101,-3.62342 3.3448,-5.01721 0.37165,-0.37165 1.85823,0.37164 2.22988,0 0.45661,-0.45662 -0.839,-3.34202 -0.55747,-3.62355 2.75951,-2.75951 2.71973,-5.30422 3.34481,-7.80455 0.14269,-0.57077 1.56582,-0.45089 1.95114,-0.8362 1.17344,-1.17345 1.677,-4.19021 2.5086,-5.85342 1.09161,-2.18321 5.45972,-8.52579 6.68962,-9.7557 0.57108,-0.57107 2.15574,-1.24538 2.50861,-1.95113 0.82862,-1.65723 1.83353,-4.12221 3.62354,-5.01722 0.41366,-0.20682 1.67241,-2.33055 1.67241,-2.22987 0,0.30707 0.60818,-3.44623 1.95114,-6.13215 2.00722,-4.01446 4.0707,-8.25172 6.96835,-11.14937 0.38303,-0.38303 0.30389,-1.72271 0.55747,-2.22987 1.46088,-2.92176 5.6237,-8.5581 6.41088,-11.70683 0.7341,-2.93638 1.2701,-5.0488 2.50861,-7.52582 0.37164,-0.74329 -0.37165,-2.04405 0,-2.78734 0.64708,-1.29417 1.42602,-1.73711 1.95114,-2.78734 0.45443,-0.90888 -0.35055,-4.1092 0.27873,-4.73848 2.03857,-2.03857 6.53195,1.95113 8.36203,1.95113 1.23187,0 1.5681,0.64469 2.5086,1.11494 0.45583,0.22792 2.29917,-0.52282 3.34481,0 2.08244,1.04122 3.48743,1.46498 5.57468,2.50861 0.96582,0.48291 2.08878,1.81004 2.78734,2.50861 0.87458,0.87458 11.01248,6.0637 12.82177,6.96835 5.50506,2.75253 10.38031,4.49332 14.77291,6.68962 1.08663,0.54331 2.70416,0.23714 3.90228,0.8362 1.97284,0.98642 5.18613,3.34481 6.41088,3.34481 6.72842,-1.11993 10.24417,5.40082 16.16658,8.36202 1.38586,0.69293 2.52748,1.82121 3.90228,2.50861 0.97618,0.48809 2.36727,0.0687 3.34481,0.55747 1.41671,0.70835 0.67105,2.00793 1.6724,2.5086 4.6502,2.3251 8.43721,6.76481 11.70684,10.03443 1.2207,1.2207 2.95868,6.58223 3.62354,7.24709 1.89785,1.89785 4.48378,1.69643 6.13215,3.34481 0.905,0.905 1.97538,2.53285 3.06608,3.62354 0.78974,0.78975 -0.78975,3.94873 0,4.73848 1.23743,1.23744 1.67323,3.0669 2.78734,4.18101 0.87734,0.87735 2.65743,2.09997 3.62354,3.06608 0.723,0.723 3.34341,-0.55887 4.18101,0.27873 1.03947,1.03947 0.79202,3.30063 1.67241,4.18101 0.39534,0.39535 1.31977,0.48357 1.6724,0.83621 0.83867,0.83867 0.6752,3.1838 1.67241,4.18101 0.69683,0.69683 3.48417,-0.69684 4.18101,0 1.08772,1.08772 2.31863,2.0399 3.62354,3.34481 0.79111,0.79111 0.63253,2.28342 0.27873,3.34481 -0.0324,0.0974 -1.91128,0.87605 -1.39367,1.39367 1.881,1.88099 4.73619,1.39367 5.29595,1.39367 1.30076,0 3.90228,-1.30076 3.90228,0 0,0.94402 1.47544,1.95114 3.06607,1.95114 0.57744,0 3.25608,0.36747 3.62355,0 0.78737,-0.78738 1.53342,-1.25469 2.22987,-1.95114 1.2125,-1.2125 -0.78165,-5.35051 0.55747,-6.68962 0.36195,-0.36195 1.66816,0.28298 1.6724,0.27873 1.39518,-1.39518 3.75189,-3.26961 5.57469,-4.18101 z"
         style="display:inline;fill:#fefee4;fill-opacity:1;fill-rule:evenodd;stroke:#646464;stroke-width:2;stroke-linecap:round;stroke-linejoin:round;stroke-miterlimit:4;stroke-dasharray:none;stroke-opacity:1" /><path
         transform="translate(153.38085,159.42404)"
         inkscape:connector-curvature="0"
         id="path5945-4"
         d="m 630.49628,300.6346 c -1.8228,0.9114 -4.17951,2.78583 -5.57469,4.18101 -0.004,0.004 -1.31045,-0.64068 -1.6724,-0.27873 -1.33912,1.33911 0.65503,5.47712 -0.55747,6.68962 -0.69645,0.69645 -1.4425,1.16376 -2.22987,1.95114 -0.36747,0.36747 -3.04611,0 -3.62355,0 -1.59063,0 -3.06607,-1.00712 -3.06607,-1.95114 0,-1.30076 -2.60152,0 -3.90228,0 -0.55976,0 -3.41495,0.48732 -5.29595,-1.39367 -0.51761,-0.51762 1.36127,-1.29627 1.39367,-1.39367 0.3538,-1.06139 0.51238,-2.5537 -0.27873,-3.34481 -1.30491,-1.30491 -2.53582,-2.25709 -3.62354,-3.34481 -0.69684,-0.69684 -3.48418,0.69683 -4.18101,0 -0.99721,-0.99721 -0.83374,-3.34234 -1.67241,-4.18101 -0.35263,-0.35264 -1.27706,-0.44086 -1.6724,-0.83621 -0.88039,-0.88038 -0.63294,-3.14154 -1.67241,-4.18101 -0.8376,-0.8376 -3.45801,0.44427 -4.18101,-0.27873 -0.96611,-0.96611 -2.7462,-2.18873 -3.62354,-3.06608 -1.11411,-1.11411 -1.54991,-2.94357 -2.78734,-4.18101 -0.78975,-0.78975 0.78974,-3.94873 0,-4.73848 -1.0907,-1.09069 -2.16108,-2.71854 -3.06608,-3.62354 -1.64837,-1.64838 -4.2343,-1.44696 -6.13215,-3.34481 -0.66486,-0.66486 -2.40284,-6.02639 -3.62354,-7.24709 -3.26963,-3.26962 -7.05664,-7.70933 -11.70684,-10.03443 -1.00135,-0.50067 -0.25569,-1.80025 -1.6724,-2.5086 -0.97754,-0.48877 -2.36863,-0.0694 -3.34481,-0.55747 -1.3748,-0.6874 -2.51642,-1.81568 -3.90228,-2.50861 -5.92241,-2.9612 -9.43816,-9.48195 -16.16658,-8.36202 -1.22475,0 -4.43804,-2.35839 -6.41088,-3.34481 -1.19812,-0.59906 -2.81565,-0.29289 -3.90228,-0.8362 -4.3926,-2.1963 -9.26785,-3.93709 -14.77291,-6.68962 -1.80929,-0.90465 -11.94719,-6.09377 -12.82177,-6.96835 -0.69856,-0.69857 -1.82152,-2.0257 -2.78734,-2.50861 -2.08725,-1.04363 -3.49224,-1.46739 -5.57468,-2.50861 -1.04564,-0.52282 -2.88898,0.22792 -3.34481,0 -0.9405,-0.47025 -1.27673,-1.11494 -2.5086,-1.11494 -1.83008,0 -6.32346,-3.9897 -8.36203,-1.95113 -0.62928,0.62928 0.1757,3.8296 -0.27873,4.73848 -0.52512,1.05023 -1.30406,1.49317 -1.95114,2.78734 -0.37165,0.74329 0.37164,2.04405 0,2.78734 -1.23851,2.47702 -1.77451,4.58944 -2.50861,7.52582 -0.78718,3.14873 -4.95,8.78507 -6.41088,11.70683 -0.25358,0.50716 -0.17444,1.84684 -0.55747,2.22987 -2.89765,2.89765 -4.96113,7.13491 -6.96835,11.14937 -1.34296,2.68592 -1.95114,6.43922 -1.95114,6.13215 0,-0.10068 -1.25875,2.02305 -1.67241,2.22987 -1.79001,0.89501 -2.79492,3.35999 -3.62354,5.01722 -0.35287,0.70575 -1.93753,1.38006 -2.50861,1.95113 -1.2299,1.22991 -5.59801,7.57249 -6.68962,9.7557 -0.8316,1.66321 -1.33516,4.67997 -2.5086,5.85342 -0.38532,0.38531 -1.80845,0.26543 -1.95114,0.8362 -0.62508,2.50033 -0.5853,5.04504 -3.34481,7.80455 -0.28153,0.28153 1.01408,3.16693 0.55747,3.62355 -0.37165,0.37164 -1.85823,-0.37165 -2.22988,0 -1.39379,1.39379 -2.04845,3.72086 -3.3448,5.01721 -0.61268,0.61268 0.25605,2.81002 -0.27874,3.34481 -0.25512,0.25512 -1.51905,0.80823 -1.6724,1.11494 -0.84728,1.69454 1.21309,7.05078 0,9.47696 -0.73468,1.46934 -4.95128,4.52568 -3.06608,6.41088 0.73352,0.73352 1.94928,1.11307 2.78734,1.95114 0.67538,0.67538 -0.38187,1.56926 0.27874,2.22987 0.27873,0.27874 1.11493,0 1.39367,0.27874 1.05413,1.05413 -0.14713,8.37753 -0.55747,9.19822 -0.36685,0.7337 -3.85718,0.25614 -3.90228,0.27874 -2.1448,1.0724 -9.71579,2.70754 -9.75569,2.78734 -0.11744,0.23486 0,1.77299 0,2.78734 0,5.78347 4.77254,4.4938 7.24708,6.96835 1.18631,1.1863 2.49183,2.77056 3.62355,3.90228 0.16532,0.16532 1.91044,0.43543 1.95114,0.55747 0.0875,0.26238 -0.20824,1.92771 0.27873,3.62354 0,4.91275 0.16353,14.88811 -3.62354,18.67518 -0.75025,0.75025 -2.8856,-0.4592 -3.34481,0 -0.18274,0.18274 -0.13909,0.9753 -0.27874,1.11494 -0.30473,0.30474 -1.44439,0.0507 -1.6724,0.27874 -0.99545,0.99544 -2.25102,2.52975 -3.34481,3.62354 -0.87491,0.8749 -3.15439,-0.19042 -3.90228,0.55747 -1.65886,1.65886 0.23404,2.5086 -1.95114,2.5086 -4.1229,0 -4.11772,2.78735 -5.57468,2.78735 -0.76647,0 -5.29595,-0.23026 -5.29595,0.27873 0,2.4662 -1.95114,3.60304 -1.95114,3.62354 0,0.693 0.11683,2.62544 0,2.50861 -3.45273,-3.45274 -3.90227,-2.37297 -3.90227,-8.36202 0,-0.62539 -1.74518,-0.0364 -2.22988,-0.27874 -0.976,-0.488 -1.11493,-2.01739 -1.11493,-2.22987 0,-0.35954 -6.59019,0.37816 -6.96836,0 -0.61993,-0.61994 3.05442,-7.53748 0.55747,-10.03443 -0.27873,-0.27873 0.27874,-1.39367 0,-1.6724 -0.51862,-0.51867 -2.37371,0.1349 -3.06607,-0.55747 -1.03966,-1.03965 -2.51466,-1.67845 -3.62355,-2.78734 -0.27873,-0.27874 0.27874,-1.39367 0,-1.67241 -1.16904,-1.16904 -4.38572,-0.20471 -5.85341,-1.6724 -0.20289,-0.20289 1.6724,-1.29572 1.6724,-3.06608 0,-0.0553 -2.5662,0.0737 -2.78734,0 -0.58145,-0.19381 -0.42248,-1.99905 -1.11493,-2.22987 -0.66164,-0.22054 -0.7981,-0.0536 -2.22988,0.27873 -0.27571,0.82713 -2.09551,0.43313 -2.5086,1.67241 -0.40249,1.20746 0.93219,5.66144 0,7.52582 -0.52888,1.05774 -2.12558,0.45317 -2.78735,1.11494 -1.5685,1.5685 0.25015,2.52766 -1.39367,3.62354 -2.62861,1.75241 -8.02609,-0.22154 -11.14936,-3.34481 -0.5564,-0.5564 -2.20344,-0.2523 -2.78734,-0.8362 -2.1652,-2.1652 -0.26079,-5.27801 -2.50861,-7.52582 -1.86909,-1.86909 -3.6227,-2.7865 -5.57468,-4.73848 -1.03965,-1.03965 -1.25404,-3.20518 -2.22987,-4.18101 -0.87454,-0.87454 -2.22988,-2.31287 -2.22988,-2.50861 0,-0.84135 -1.66726,0.27873 -2.5086,0.27873 -2.84082,0 -5.72393,0.27874 -8.64076,0.27874 -2.98842,0 -7.0513,-1.86819 -9.47696,0.55746 -0.23228,0.23228 -1.16139,-0.23227 -1.39367,0 -2.32013,2.32013 0.71333,10.71477 -3.34481,14.77291 -0.97133,0.97133 -6.45734,-0.29034 -7.52582,-0.55747 -2.96874,-0.74218 -7.19264,-0.55746 -11.14937,-0.55746 -0.26433,0 -1.50408,-0.16833 -1.6724,0 -0.13937,0.13936 0.13937,0.69683 0,0.8362 -1.49301,1.49301 -4.42808,1.76427 -5.85342,3.90228 -1.03802,1.55703 -1.9143,1.97144 -3.34481,3.06607 0,8.08343 2.07154,11.82723 6.41089,16.16658 0.52967,0.52968 0.47034,2.22987 -0.27874,2.22987 -0.45446,0 0.46246,1.57739 1.11494,2.22988 0.29976,0.29975 0.14861,6.81974 0,6.96835 -1.959,1.959 -3.38966,4.78332 -5.01721,6.41088 -0.30463,0.30463 -4.06691,-0.39284 -5.85342,1.39367 -1.88123,1.88123 0.62235,12.11533 1.11494,13.10051 1.39012,2.78024 -1.04926,13.44492 0,14.49417 0.30377,0.30378 1.0517,0.21551 1.6724,0.8362 1.56812,1.56813 -0.3071,4.71011 0.8362,5.85342 1.45887,1.45886 3.57452,2.18084 4.73848,3.34481 1.39551,1.39551 -0.10453,2.68281 1.11494,3.90228 2.25577,2.25577 4.68744,4.46886 7.24709,7.24708 l 2.25797,1.03768 c 0.6615,-0.6615 1.65975,-1.17558 2.40408,-1.70724 0.99845,-0.71318 2.08856,-2.13632 3.20544,-2.50861 0.23588,-0.0786 0.62535,-0.0173 0.87105,-0.0348 0.361,-0.0258 1.73223,-0.2314 2.05566,-0.0697 0.31083,0.15542 0.88823,0.27874 1.04525,0.27874 l 0.71896,0.17754 c 2.73974,0.59928 5.5826,1.66365 6.32629,2.40734 0.39134,0.39134 1.87582,0.10042 2.36524,0.58984 l 5.51758,5.51953 c 0.89024,0.89024 0.56937,2.35501 1.77343,2.95704 0.76634,0.38317 2.00725,-0.179 2.75977,0.19726 l 3.54883,1.77344 c 1.46171,0.73085 13.76004,16.68218 14.38672,17.93555 0.40809,0.81619 3.19737,0.63291 3.94336,1.3789 0.44969,0.44969 0.038,1.89204 0.58984,2.16797 0.9244,0.4622 0.75719,-2.19983 1.57812,-1.3789 0.67934,0.67933 1.65069,2.31505 2.16797,3.3496 0.19933,0.39866 -0.24464,1.21116 0,1.57813 0.35297,0.52945 1.06964,0.28056 1.77344,0.98437 0.22096,0.22096 -0.14533,1.09021 0,1.38086 0.36177,0.72354 2.08458,2.59852 2.5625,2.75782 2.07052,0.69018 2.47438,2.22351 4.33594,3.15429 0.61309,0.30654 3.00447,0.0494 3.54687,0.5918 1.20822,1.20823 8.08203,4.54127 8.08203,5.51758 0,0.59812 2.43172,-1.70695 3.54688,-0.5918 0.78729,0.78729 -0.0202,2.34502 0.39453,2.75977 0.60042,0.60042 2.95412,-0.39501 3.74414,0 2.48355,1.24178 4.11081,2.35228 6.50391,3.54882 2.40611,1.20307 11.75643,-0.66736 13.79687,-1.18359 3.96472,0 5.77071,3.96068 9.85547,5.32227 3.59225,1.19741 7.1076,-1.86613 10.44531,-0.19727 2.93666,1.46833 8.06278,4.13002 9.65821,4.92774 0.79671,0.39835 3.11014,0.54764 3.54687,0.98437 3.5949,3.59489 8.77495,8.18316 13.00977,12.41797 2.90586,2.90587 5.28135,5.83611 6.89645,9.06641 0.7304,1.46067 2.3863,6.11989 3.5489,6.70117 0.4966,0.2483 1.4861,-1.0221 1.9707,-1.1836 0.3465,-0.11551 1.3789,0.0637 1.3789,-0.39257 0,-0.19615 1.0364,-1.23371 1.1836,-1.38086 0.4223,-0.42235 0.2428,-1.30402 1.1816,-1.77344 1.4101,-0.70503 4.8594,0.65429 6.3086,1.3789 1.1609,0.58043 3.7793,-0.75192 4.7285,0.19727 1.2195,1.21951 -1.3719,2.18187 -0.5898,3.74609 0.3627,0.72541 1.343,-0.21714 2.1679,0.19532 1.2159,0.60793 1.6779,2.02553 2.7598,2.95703 0.2925,0.5849 0.8896,1.08688 1.3789,1.57617 1.0321,1.03206 1.1111,3.47632 2.3652,4.73047 0.4306,0.43061 0.2188,2.01373 0.3946,2.36523 0.3279,0.65589 2.2657,-0.29485 2.7578,0.19727 1.1278,1.12776 2.7592,1.57561 3.7461,2.5625 0.2209,0.22095 -0.1453,1.08824 0,1.37891 0.5035,1.00703 0.1973,1.73203 0.1973,2.75976 0,0.3785 1.0422,1.7175 0.3945,2.36524 -1.0846,1.0846 -1.9936,1.42465 -2.5625,2.5625 -0.2823,0.56461 -0.843,2.81364 -1.1836,3.15429 -0.6368,0.63677 -1.3808,0.79086 -1.7734,1.57617 -0.5753,1.15058 1.598,5.34221 2.5625,6.30664 0.3285,0.32849 1.6422,-0.32849 1.9707,0 0.2251,0.22515 0.2062,0.99534 0.3945,1.1836 0.473,0.47296 0.9911,0.59662 1.3789,0.98437 0.3849,0.38492 0,3.58654 0,2.95703 0,-0.1984 0.1725,1.97071 -0.1973,1.97071 -0.2611,0 0.9864,1.71913 0.9864,1.77343 0,0.33245 1.6086,2.87464 1.7734,2.95704 0.1118,0.0559 2.7126,-0.15015 3.1543,-0.5918 1.9332,-1.93325 5.4241,-2.66435 6.8984,-4.13867 1.3729,-1.37288 4.2728,-1.05932 5.3203,-3.1543 0.067,-0.13355 0.241,-0.37551 0.2598,-0.50391 -0.013,-0.0217 -0.068,-0.0859 -0.062,-0.0859 0.058,0 0.07,0.0357 0.062,0.0859 0.1392,0.22838 1.2433,1.49024 2.8945,1.49024 1.6656,0 6.3302,0.7655 7.4903,-0.39453 0.7695,-0.76953 1.1081,-1.69994 1.7734,-2.36524 0.7884,-0.78838 3.5476,0.39384 4.3359,-0.39453 0.6952,-0.69512 0.7987,-2.5721 1.5762,-3.34961 0.3237,-0.32369 3.0794,0.0474 3.1543,0.19727 0.088,0.17629 -0.1394,0.45243 0,0.5918 0.6326,0.63263 1.4777,-0.69057 1.5762,-0.78907 0.5688,-0.56881 2.7984,0.37422 3.5469,0 0.5925,-0.29626 1.1205,-1.34736 1.5781,-1.57617 0.3811,-0.19055 1.633,-0.3243 2.5625,-0.78906 0.2687,-0.13437 2.0589,0 2.9551,0 4.6355,0 11.6601,0.36335 14.1914,-2.16797 0.3285,-0.32843 1.2477,-0.066 1.5761,-0.39453 0.5981,-0.59807 7.9295,0.15257 8.2793,-0.19727 0.5281,-0.52804 1.086,-1.48051 1.7735,-2.16797 0.6117,-0.61168 2.3983,-0.42763 3.1523,-1.18164 0.3117,-0.31163 -1.8504,-1.70764 0.5918,-1.18359 0.9111,-0.45554 0.5289,-1.11874 1.1836,-1.77344 0.4698,-0.46982 1.5882,-0.60378 2.168,-1.18359 0.7022,-0.70219 1.6402,-2.19901 2.7578,-2.75781 0.043,-0.0215 1.765,-0.5711 1.7754,-0.5918 0.1048,-0.20956 -0.3804,-0.6747 -0.5391,-0.6543 0,6e-4 -0.053,0.0655 -0.053,0.0625 0,-0.0444 0.023,-0.0585 0.053,-0.0625 0.079,-0.0169 1.2375,-1.62032 2.5098,-2.89258 0.4997,-0.49975 2.438,-0.46927 2.9551,-0.98632 0.5788,-0.57882 1.3117,-1.50708 1.9726,-2.16797 0.6143,-0.61424 3.2392,-0.43794 3.9414,-0.78907 1.0965,-0.54822 1.0545,-1.05446 1.9707,-1.9707 0.3614,-0.36134 1.8067,0.36134 2.168,0 0.2583,-0.2583 0.3312,-0.92296 1.1816,-1.77344 0.2843,-0.28429 1.4014,0.18702 1.7754,0 0.5508,-0.27537 2.2628,-4.77885 3.7442,-5.51953 1.3069,-0.65348 1.5629,1.17698 2.3652,1.57813 1.5663,0.78313 3.0985,-0.61873 4.7305,0.19726 0.3058,0.15294 0.703,1.09756 1.1816,1.57617 0.4646,0.46457 0.719,-1.11161 1.1836,-1.57617 0.6426,-0.64255 1.5711,0.88829 1.7734,0.78711 0.7719,-0.3859 0.7006,-1.48768 1.1836,-1.9707 0.5017,-0.5017 1.326,0.44744 2.7579,-0.98438 1.0038,-1.00384 0.089,-6.39593 0.789,-7.0957 1.234,-1.23402 0.3945,-7.49693 0.3945,-9.6582 0,-1.89041 0.2863,-3.13691 0.9844,-4.5332 0.3535,-0.70687 -0.5372,-2.81435 0,-3.35157 1.3239,-1.32383 1.9337,-4.69153 3.3516,-6.10937 0.5256,-0.52559 -0.5256,-2.62676 0,-3.15235 1.9184,-1.91842 2.0293,0.78711 3.1523,0.78711 0.2141,0 -0.055,-2.25436 0.1973,-2.75976 0.7869,-1.57382 3.3347,-2.72418 3.7461,-3.54688 0.6484,-1.29682 4.1387,-1.9471 4.1387,-1.9707 0,-0.0949 -2.4483,-0.23597 -3.1543,-0.19727 0.043,-0.0864 0.075,-1.45381 0.1972,-1.57617 0.7201,-0.72005 0.6657,-2.43907 1.3809,-3.1543 2.2285,-2.22848 3.4779,-8.01303 5.3203,-9.85546 1.1378,-1.13782 3.268,-1.10005 4.3359,-2.16797 0.2527,-0.25265 1.2458,0.16618 1.5782,0 1.2862,-0.6431 0.6781,-1.18164 1.9707,-1.18164 0.3538,0 0.1443,-0.73615 0.3945,-0.98633 1.7896,-1.78957 2.597,-3.97593 4.3359,-5.71484 0.5569,-0.5569 1.0132,-1.83106 1.3789,-2.5625 0.461,-0.92183 1.4761,-1.77045 1.9707,-2.75977 2.1801,-4.36019 3.2561,-8.37911 6.8985,-12.02149 0.1971,-0.19709 10e-5,-0.78922 0.1972,-0.98632 1.6978,-1.69779 5.0237,0.29663 7.8829,-2.5625 0.049,-0.0492 1.9159,-7.62885 1.9726,-7.68555 0.3942,-0.39419 0.1957,-1.3812 0.5899,-1.77539 0.4275,-0.42755 2.4217,-2.25033 1.9707,-3.15234 -0.1605,-0.32102 -2.0828,-2.28201 -2.3633,-2.5625 -0.2369,-0.23687 -0.9863,0.13772 -0.9863,-0.19727 0,-1.01097 2.1148,-2.84879 2.7597,-4.13867 0.6014,-1.20271 0.01,-2.97803 0.5899,-4.13867 0.5008,-1.00158 1.9087,-3.28769 2.7597,-4.13868 0.5728,-0.57273 -0.4039,-4.32651 0.9864,-5.71679 0.1068,-0.10686 0.1483,-7.34187 0,-7.49024 -0.4718,-0.47173 -1.8941,-1.33691 -1.1836,-2.75781 1.4166,-2.8333 2.7148,-4.24804 4.1386,-7.0957 0.3557,-0.71128 0.1844,-1.16879 0.9864,-1.97071 0.043,-0.0435 -0.033,-0.78906 0,-0.78906 0.2708,0 0.5262,0.13157 0.789,0.19727 1.0713,0.53562 3.3496,0.21785 3.3496,0.39453 0,0.0258 -0.1937,-1.57969 0.3946,-2.16797 1.1677,-1.16771 1.1527,-3.48911 1.9707,-5.125 0.5041,-1.00823 1.0128,-2.98349 1.7734,-3.74414 0.3527,-0.35265 0.8984,-0.61317 1.1836,-1.18359 1.961,-3.92202 3.0265,-11.70035 5.5176,-14.19141 0.6473,-0.64735 -1.794,-2.1455 -0.5899,-3.34961 0.1971,-0.19709 0.7873,-1.8e-4 0.9844,-0.19727 0,-0.004 -0.1575,-1.41863 1.1836,-2.75976 0.5252,-0.52516 -0.5038,-1.09364 -0.5918,-1.18164 -0.8735,-0.87353 1.4873,-4.85844 1.7734,-5.7168 0.1029,-0.30868 -0.2737,-1.74131 0,-2.5625 0.7818,-2.34536 3.1911,-2.79652 4.9278,-4.5332 1.4374,-1.43737 1.8117,-2.76613 4.1386,-3.54688 0,-0.98129 -0.8415,-1.03878 -1.5761,-1.77343 -0.2522,-0.25222 -0.2203,-1.00932 -0.5918,-1.38086 -2.783,-2.78294 -3.5921,-6.74439 -6.3067,-9.45899 -0.5198,-0.51986 0,-4.30807 0,-5.125 0,-3.31418 1.0096,-0.64226 1.1817,-0.98633 0.5518,-1.10373 -0.5519,-3.03494 0,-4.13867 0.9721,-1.94432 1.3022,-8.62988 0.1972,-10.83984 -0.6492,-1.29843 -1.5484,-2.50508 -2.1679,-3.74414 -0.3056,-0.61113 -0.1663,-1.54713 -0.5899,-1.97071 -0.7314,-0.73141 -2.1758,0.18941 -2.5625,-0.19726 -1.1885,-1.18854 1.0657,-1.81126 -2.7597,-1.9707 0,-0.6489 -1.5284,-3.30375 -2.3653,-4.14063 -0.7507,-0.75078 1.2874,-2.0622 0.5918,-2.75781 -0.8136,-0.8136 -3.1238,-3.09335 -3.3515,-3.54883 -0.8138,-1.62748 2.5483,-0.16706 3.1543,-1.37891 0.6781,-1.35635 -1.9707,-1.85354 -1.9707,-2.75976 0,-1.39123 -2.9269,0.98633 -3.7461,0.98633 -1.0436,0 -0.3159,0.94603 -0.7871,1.18164 -0.083,0.0414 -3.6588,-2.03693 -4.1407,-2.75977 -0.4006,-0.60094 -0.2817,-3.26321 -0.1953,-3.34961 0.065,-0.0654 1.5639,-0.0123 0.9844,-0.59179 -0.8935,-0.89347 -4.4199,0.62301 -5.3223,-1.18165 -0.3811,-0.76219 -0.3268,-3.02276 -0.5898,-3.15429 -0.4155,-0.20777 -1.8454,-0.19727 -1.3809,-0.19727 0.027,0 -0.036,-0.91413 0,-0.98633 0.5442,-1.08838 1.4048,-1.52839 0.9864,-2.36523 -0.2329,-0.46569 -0.9159,-0.71669 -1.1836,-0.98438 -1.4438,-1.44381 -4.7286,-0.44227 -4.7286,0.98438 0,0.26464 -0.046,3.70022 -0.9863,2.75977 -0.1892,-0.18922 0.1244,-0.93282 0,-1.18165 -0.4273,-0.85466 -0.9968,-0.81398 -1.3789,-1.57812 -0.3197,-0.63946 1.9238,-2.01765 0,-3.94141 -0.4572,-0.45721 -3.1239,2.10721 -3.3516,2.5625 -0.5622,1.12442 -2.7697,0.76977 -2.7597,0.78907 0.2185,0.43703 0.6519,0.0414 0.789,0.58984 0.6776,2.71033 -0.5192,1.38086 -2.1679,1.38086 -0.6146,0 -1.4017,2.38799 -1.7735,2.75976 -1.1487,1.14879 -1.5151,-4.64437 -2.957,-5.125 -2.4554,-0.81847 -0.4448,2.39137 -1.9707,3.1543 -1.9262,0.96311 -1.4604,-1.46238 -1.7734,-1.77539 -0.6454,-0.64536 -2.2772,2.41984 -2.5625,2.5625 -1.8807,0.94031 -3.6735,-2.36523 -5.3223,-2.36523 z"
         style="display:inline;fill:#fefee4;fill-opacity:1;fill-rule:evenodd;stroke:#646464;stroke-width:2;stroke-linecap:round;stroke-linejoin:round;stroke-miterlimit:4;stroke-dasharray:none;stroke-opacity:1" /><path
         inkscape:connector-curvature="0"
         id="path5945"
         d="m 784.25,457.81641 c -0.71226,-0.94532 -2.60512,-0.89809 -3.51562,-1.8086 -0.14504,-0.14503 0,-0.87761 0,-1.11328 0,-3.73804 3.0608,-2.50417 5.01757,-4.46094 1.87049,-1.87049 -2.70779,-6.48947 -0.83593,-8.36132 0.89956,-0.89957 2.18139,-1.06617 3.0664,-1.95118 2.01816,-2.01816 -3.90234,-2.08015 -3.90234,-4.73828 0,-3.22846 3.11661,-3.11857 4.45898,-4.46093 0.91451,-0.91452 -0.14927,-8.21206 1.67188,-10.03321 5.24833,-5.24833 11.9697,-8.34666 16.44531,-12.82226 0.4568,-0.45681 5.86811,0.55032 6.96875,0 2.33029,-1.16515 5.05634,-5.05634 7.52539,-7.52539 0.35774,-0.35774 0.20085,-1.31414 0.55859,-1.67188 0.65834,-0.65835 2.5527,-0.88278 3.34375,-1.67383 1.35154,-1.35155 -2.68902,-2.60589 -1.39257,-3.90234 0.57489,-0.57489 2.51172,-0.28322 3.0664,-1.39258 0.79608,-1.59215 2.22852,-3.08903 2.22852,-2.78711 0,0.37164 0.26279,-0.85244 0,-1.11523 -0.27951,-0.27951 -4.55513,-1.85503 -2.78711,-3.62305 1.09009,-1.09009 3.68644,0.70915 4.73828,-1.39453 1.00484,-2.00969 -2.9927,-2.86081 -1.95117,-3.90235 0.55192,-0.55193 2.38939,-0.99485 4.18164,-2.7871 0.60392,-0.60393 -0.60393,-3.01912 0,-3.62305 1.30093,-1.30093 1.9282,-2.76609 3.34375,-4.18164 2.21542,-2.21542 -3.06753,-4.7352 -1.11328,-6.68945 0.70151,-0.70151 1.72601,-1.16937 2.50781,-1.95118 0.8262,-0.8262 2.77909,0.29729 3.3457,-0.83593 0.56623,-1.13247 2.19242,-1.09817 3.34375,-1.67383 0.38959,-0.1948 2.46522,-1.71644 3.34571,-0.83594 0.46456,0.46455 -0.18722,2.04522 0.27734,2.50977 1.48451,1.48451 1.71633,4.22414 3.90234,6.41015 0.56046,0.56083 -0.67525,0.98324 0.5586,1.39453 1.44592,0.48197 3.09921,-1.27226 3.90234,-1.67383 1.6438,-0.8219 2.00995,0.49787 3.34375,-0.83593 0.28474,-0.28516 -0.0586,-1.61322 0.2793,-1.95117 1.14134,-1.14134 5.57461,0.55703 6.13281,1.11523 0.64384,0.64385 1.36889,3.64673 3.06445,1.95117 0.19314,-0.19313 0.0862,-1.19946 0.2793,-1.39258 0.31923,-0.31921 1.33369,-0.45294 1.80469,-0.51172 0.0451,-0.022 0.0883,-0.0469 0.14648,-0.0469 0.22495,0 0.0882,0.0176 -0.14648,0.0469 -0.45943,0.22451 -0.27227,1.48554 0.14648,1.9043 1.05383,1.05382 9.84151,-3.93767 12.54297,-2.50781 -0.58767,-1.17525 0.37247,-2.97322 -0.55664,-3.90234 -5.08272,-5.08272 -16.30289,-0.90536 -23.41406,-4.46094 -1.4378,-0.7189 -4.86887,0.42801 -5.85352,-0.55664 -1.63695,-1.63695 -5.73275,-3.14568 -7.80469,-4.18164 -2.33952,-1.16977 -1.47399,-4.67167 -4.18164,-5.57422 -1.5502,-0.51673 -1.72785,0.61261 -2.7871,1.67187 -0.40629,0.40628 -7.27152,-3.92777 -8.08204,-4.73828 -1.39333,-1.39333 -2.62324,-3.73849 -3.90234,-5.01758 -0.86472,-0.86473 -3.22467,-12.97858 -3.90234,-13.65625 -2.38619,-2.38618 -4.15688,-6.36259 -5.85352,-9.75586 -0.48031,-0.96063 -0.29509,-2.26399 -0.83594,-3.3457 -1.2384,-2.4768 -4.01971,-5.25038 -5.29687,-7.80469 -0.49609,-0.99218 0.0724,-2.28862 -0.2793,-3.34375 -0.43997,-1.3199 -2.2282,-6.13363 -3.34375,-6.6914 -4.97864,-2.48932 -14.33237,0.6385 -17.28125,-0.83594 -1.15717,-0.57859 -5.41303,-0.11615 -6.13281,-0.83594 -1.44712,-1.44711 -6.38026,-1.36268 -7.80469,-2.78711 -1.28715,-1.28714 -4.03616,-2.69077 -5.85351,-3.90234 -0.41713,-0.27808 -1.71484,-0.3203 -1.95118,-0.55664 -3.58174,-3.58174 -9.55799,-5.09901 -12.82226,-8.36328 -0.45802,-0.45802 -1.82504,-0.43246 -2.22852,-0.83594 -0.71615,-0.71615 -1.66263,-3.33255 -1.67383,-3.34375 -1.149,-1.14901 -3.89999,-2.22812 -4.73828,-3.06641 -0.36467,-0.36467 -5.17358,-3.26672 -5.57422,-3.0664 -1.92322,0.96161 -4.02363,9.8165 -6.13281,10.87109 -2.76454,1.38227 -11.31192,-4.24785 -11.98437,-2.23047 -0.50957,1.5288 0.59764,7.16407 -0.5586,9.47656 -0.63533,1.27065 -0.98378,0.70645 -1.67187,1.39454 -0.79409,0.79409 0.22271,2.8437 -0.55664,3.62304 -0.37485,0.37486 -1.53444,0.41921 -1.95117,0.83594 -0.43128,0.43128 -1.89458,1.11524 -1.95118,1.11524 -0.11872,0 0.15854,4.14188 0,4.45898 -0.63463,1.26924 -1.24342,6.24001 -1.95117,8.36328 -0.30806,0.92418 -1.81968,1.96553 -2.23047,2.78711 -3.5157,7.03139 -8.53249,12.99147 -13.9375,18.39648 -0.10725,0.10725 -6.27434,-2.50173 -8.91797,1.67188 -0.12767,-0.38301 -1.46904,-1.54355 -1.95117,-2.50781 -0.20553,-0.41105 0.31248,-1.6387 0,-1.95118 -2.92513,-2.92513 -3.89131,-8.07295 -6.68945,-10.87109 -1.93414,-1.93414 1.85908,-7.89678 0,-9.75586 -0.84114,-0.84121 -1.57687,-0.18233 -2.23047,-0.83594 -0.42678,-0.42678 -0.0733,-2.02442 -0.55664,-2.50781 -2.04957,-2.04957 -11.70703,0.44685 -11.70703,-4.46094 0,-0.90792 -2.25147,-3.92334 -3.06641,-4.73828 -0.35699,-0.35699 -2.17183,-1.11523 -1.95117,-1.11523 0.0521,0 0,-1.60296 0,-1.11524 0,0.242 4.30349,-0.24368 4.73828,-1.11328 0.56689,-1.13376 -1.82909,-2.90919 -1.67187,-3.0664 2.55461,-2.55461 4.23165,-2.89104 6.13086,-6.68946 0.89727,-1.79454 1.95117,0.28856 1.95117,-1.95117 0,-0.0389 -2.28908,-2.0723 -2.50781,-2.50976 -0.17595,-0.3519 0.26758,-1.4043 0,-1.67188 -1.37653,-1.37654 -4.0965,-2.81291 -4.73829,-4.73828 -0.70236,-2.10709 -2.29046,-5.35687 -4.18164,-7.24805 -1.3139,-1.31389 -9.07818,-6.172 -9.19726,-6.41015 -0.63708,-1.27417 0.2487,-2.81576 -0.83789,-3.90235 -1.59482,-1.59482 -3.57642,-3.80909 -4.73828,-6.13281 -0.6512,-1.30239 0.98629,-5.14458 0,-6.13086 -0.87367,-0.87367 -2.33703,-3.81793 -3.62305,-4.46094 -0.41451,-0.20725 -1.35066,-0.23541 -1.67188,-0.55664 -0.58117,-0.58118 0.0575,-3.00694 -0.55859,-3.62304 -2.23603,-2.23603 -3.90308,-5.85622 -6.13086,-8.08399 -0.19335,-0.19336 -16.35573,5.66379 -18.39648,3.62305 -0.59492,-0.59493 -0.56401,-2.50781 0.27734,-2.50781 0.46455,0 0,-0.92999 0,-1.39453 0,-0.78593 0.55859,-2.07022 0.55859,-3.34376 0,-3.65164 8.14657,-9.13663 5.01758,-12.26562 -0.87996,-0.87996 -4.46094,0.49662 -4.46094,1.39453 0,1.02202 -2.04438,0 -3.0664,0 -0.36757,0 -1.47712,1.77023 -2.22852,1.39453 -1.26297,-0.63148 -1.88522,-2.33812 -2.78711,-2.78906 -1.28625,-0.64313 -7.79691,3.62791 -10.59179,2.23047 -1.37425,-0.68712 -0.99648,-2.66836 -1.95118,-3.62305 -1.23135,-1.23136 -3.02596,-2.66383 -3.625,-4.46094 -1.69014,-5.07042 3.00425,-10.09536 -0.55664,-13.65625 -0.74329,-0.74329 0.18665,-3.15905 -0.55664,-3.90234 -1.27975,-1.27975 -4.25027,0.81371 -6.6914,0 -1.13134,-0.37711 -2.00618,-1.98062 -3.06446,-2.50977 -1.83971,-0.91985 -1.67382,3.49145 -1.67382,4.46094 0,0.75826 0.91832,1.19567 1.95117,2.22852 0.76347,0.76348 0,6.3276 0,7.52734 0,4.1344 -5.01769,7.80685 -6.9668,11.70508 -0.56338,1.12675 3.57272,5.24654 4.45899,6.13281 2.12983,2.12982 -2.50782,9.12721 -2.50782,11.42774 0,3.44909 -0.61952,5.14138 -1.95117,7.80468 -1.68311,3.36613 1.44994,5.79617 -1.67383,8.91993 -0.71359,0.71359 -0.59501,1.95117 -1.39258,1.95117 -0.74329,0 0,1.48718 0,2.23047 0,1.71742 -0.27929,3.13845 -0.27929,3.06445 0,-0.55747 -1.11441,0 -1.67188,0 -1.52124,0 -3.19058,-0.55664 -4.46093,-0.55664 -3.63394,0 -6.88902,-2.78711 -10.3125,-2.78711 -3.74826,0 -12.97471,-8.94747 -14.49414,-11.98633 -1.52066,-3.0413 -5.57319,-3.89936 -7.80469,-6.13086 -6.29646,-6.29645 -14.74599,-12.60916 -20.62696,-20.90625 2.61767,-1.30884 5.70589,-5.14729 8.36329,-7.80468 1.0581,-1.05811 2.63884,-1.52361 3.90234,-2.78711 4.97631,-4.97631 9.66506,-10.31318 15.33008,-14.21485 -1.0979,-0.54895 -0.16553,-0.61035 -0.83594,-1.95117 -0.74411,-1.4882 -2.42634,-1.50698 -3.3457,-3.3457 -1.08655,-2.17309 -2.34296,-9.17021 -6.16797,-8.8125 -0.255,0.0238 -0.52224,0.079 -0.80078,0.17187 -0.89795,0.29932 -1.35675,1.07941 -1.95117,1.67383 -0.64021,0.64019 -2.95882,0.72835 -3.62305,1.39258 -1.78177,1.78177 -6.17529,2.83154 -7.52539,4.18164 -0.34665,0.34665 -0.41103,0.90277 -0.83594,1.11523 -2.75697,1.37848 -7.00072,0.86792 -9.19922,3.06641 -0.66375,0.66376 -3.01589,2.96538 -3.62305,4.17969 -0.23505,0.4701 -0.2843,1.67883 -0.55664,1.95117 -1.84012,1.84012 -4.33811,3.50022 -6.41211,5.57422 -1.65808,1.65809 -4.75449,0.008 -6.96875,1.11523 -2.85082,1.42542 -11.5881,2.94943 -13.09961,4.46094 -0.53798,0.53799 -1.07853,1.91447 -1.67187,2.50781 -0.78325,0.78325 -2.95349,-0.11486 -3.625,0.55664 -1.58754,1.58755 -9.18015,5.01188 -11.70508,5.85352 -2.22295,0.74098 -2.96446,2.12853 -4.46094,3.625 -0.36384,0.36384 -1.38547,0.90106 -1.70898,1.18945 0.17643,0.11755 0.26149,0.20313 0.0371,0.20313 -0.21111,0 -0.16983,-0.0848 -0.0371,-0.20313 -0.39414,-0.26261 -1.41059,-0.7411 -1.63477,-1.18945 -0.6137,-1.22738 0.0931,-1.57873 -0.83789,-2.50977 -0.43542,-0.43543 0.28359,-2.21994 0,-2.78711 -0.54491,-1.08982 -0.8498,-2.52167 -1.67187,-3.34375 -0.55329,-0.55328 -0.0471,-3.11544 -0.27734,-3.3457 -0.51313,-0.51312 -0.88142,1.15875 -1.39454,1.67188 -1.21915,1.21915 -4.53632,2.30781 -5.85351,3.625 -0.43276,0.43276 5.55523,16.10905 6.41015,18.67382 0.64143,1.92427 2.20939,3.60392 3.06641,4.46094 0.72566,0.72567 0.2793,4.09265 0.2793,3.06641 0,-0.46456 -0.92997,0 -1.39453,0 -1.10308,0 -2.86511,-0.34574 -3.90235,0 -0.56794,0.18931 -3.48353,0.97377 -3.90234,1.39257 -1.4118,1.4118 -6.99664,7.09446 -10.5918,5.29688 -1.53542,-0.76771 0.41009,-1.82233 -0.55664,-2.78906 -0.6749,-0.6749 -8.03618,-3.01666 -8.08398,-3.06446 -0.45233,-0.45233 -1.56237,-1.34075 -2.22852,-1.67382 -3.25648,-1.62824 -18.88374,-2.15718 -20.07031,-3.34375 -1.49755,-1.49756 -3.48595,-3.76525 -5.57422,-5.85352 -1.10372,-1.10372 -0.56817,-3.91387 -1.67188,-5.01758 -1.37718,-1.37718 -3.62748,-1.67631 -4.73828,-2.78711 -4.06981,-4.06981 -8.51413,-5.28567 -12.82226,-9.19922 -1.92516,0.64172 -3.01822,4.6419 -4.18164,6.96875 -0.86394,1.72788 -3.61417,3.60724 -4.45899,5.29688 -2.9812,5.9624 -7.72416,13.85502 -11.98633,18.11719 -1.0869,1.08691 1.00799,3.83754 0.83594,4.18164 -0.71564,1.43126 -4.34985,0.7268 -5.29492,1.67187 -0.78639,0.78638 -2.73831,1.08986 -3.90234,1.67188 -3.21283,1.60642 -6.48193,5.19214 -10.03516,6.96875 -1.15367,0.57684 -9.08111,2.11432 -9.19726,2.23047 -3.22702,3.227 -12.95798,5.70992 -15.88868,8.64062 -1.07484,1.07484 -2.45612,2.17878 -3.34375,3.06641 -1.04305,1.04305 -2.47004,4.41926 -3.625,5.57422 -1.08647,1.08647 -3.18776,1.10369 -4.45898,1.95117 -3.11941,2.07961 -4.82179,5.24176 -8.91992,6.13281 0,2.212 -1.44915,1.16986 -1.95117,1.67188 -1.9394,1.9394 -4.4095,4.71353 -6.68946,5.85351 -0.55672,0.27836 -1.45563,0.3404 -1.95117,0.83594 -3.12439,3.12439 -5.15372,7.31514 -9.47656,9.47656 -0.43988,0.21994 -1.88953,-0.34094 -2.23047,0 -1.82355,1.82356 -5.9032,2.00085 -7.52539,3.62305 -1.94386,1.94386 -5.14117,-1.82563 -5.57422,-1.39258 -0.44465,0.44465 -0.47482,0.79503 -1.11523,1.11523 -0.35191,0.17596 -1.4043,-0.26758 -1.67188,0 -1.8645,1.8645 -4.44667,1.93692 -6.41211,3.90235 -0.41352,0.41352 0.0345,0.76887 -0.27734,1.39258 -0.14029,0.28059 -4.95508,2.16796 -5.85352,3.0664 -0.49245,0.49245 -0.91106,1.747 -1.39453,2.23047 -0.89661,0.89661 -2.19401,0.79949 -3.06641,1.67188 -2.56764,2.56764 -5.37422,4.81563 -7.80468,7.24609 -2.07688,2.07689 -2.30025,4.53267 -4.45899,6.69141 -0.78975,0.78975 0.51045,3.66924 -0.2793,4.45898 -1.06941,1.06942 -1.48054,2.60351 -3.62304,2.50781 0.52206,1.04411 2.04004,4.91604 3.3457,7.52735 0.56717,1.13435 -0.38743,1.73296 0,2.50781 1.62983,3.25966 5.63457,4.24199 8.64063,7.24805 0.30392,0.30392 0.22209,4.85073 0,5.29492 -0.5323,1.06459 -3.52758,1.48547 -5.01758,2.23047 -1.48386,0.74193 -2.90791,3.96079 -3.34571,4.17968 -0.61394,0.30697 -1.59913,0.69048 -1.95117,1.39454 -0.66271,1.32542 -1.38668,2.49405 -1.95117,3.62304 -0.28304,0.56607 0.479,3.94214 0,4.18164 -0.89985,0.44993 -1.99572,-0.55859 -3.06445,-0.55859 -1.28765,0 -1.40894,0.57301 -1.95117,1.11523 -0.84933,0.84933 -3.99314,-0.68296 -5.01758,0 -3.03581,2.02388 -3.84307,8.75918 -1.95117,12.54297 0.82325,1.64651 -0.5531,4.19068 0,5.29688 0.52936,1.05872 3.42209,0.55664 4.45898,0.55664 4.30224,0 8.7489,-0.45031 11.15039,1.95117 1.54093,1.54094 6.5363,-1.14029 8.36133,2.50977 1.50072,3.00143 -7.57853,7.07307 -7.80469,7.52539 -0.44549,0.89098 -3.31196,9.30143 -0.55664,10.87109 1.08105,0 3.51307,-0.47296 4.45899,0 0.40293,0.20147 0.77181,1.22087 1.11523,1.39258 0.32339,0.1617 1.48568,0.55859 1.39258,0.55859 -1.22,0 -0.006,11.44292 -0.55664,12.54297 -0.38467,0.76934 -1.7288,1.72685 -2.23047,2.22852 -0.01,0.01 -1.20898,7.1543 -0.83594,7.52734 2.51767,2.51767 7.51258,7.551 4.73828,13.09961 -0.21171,0.42342 -0.3045,2.25566 -0.55664,2.50781 -1.24648,1.24648 -2.5082,2.36934 -4.46094,3.34571 -2.44199,1.22098 -11.94043,-0.60254 -13.3789,0.83593 -3.30819,3.30818 -6.99114,6.71379 -10.86914,10.5918 -1.55425,1.55424 -2.56154,5.04444 -5.29688,6.41211 -1.93524,0.96762 -12.96399,-0.69617 -13.9375,0.27734 -2.92205,2.92205 -5.8173,0.40084 -8.91797,1.95117 -1.88027,0.94014 -2.01202,2.78711 -5.01757,2.78711 -0.23811,0 -1.11081,3.06198 -2.23047,4.18164 -0.22565,0.22565 0,1.87595 0,2.23047 0,6.28298 4.61798,10.25235 8.64062,12.26367 1.55023,0.77511 4.15451,0.26961 5.85352,0.83594 2.51547,0.83849 4.39675,2.756 6.68945,3.90235 1.53724,0.76862 5.49121,0 7.24805,0 0.203,0 1.5031,0.16877 1.67187,0 2.1099,-2.1099 5.62481,-9.98458 10.5918,-5.01758 0.99046,0.99046 2.08294,1.38073 2.50781,2.23047 1.14274,2.28547 -1.67187,4.22165 -1.67187,5.57422 0,3.47395 -5.97441,3.7459 -7.80469,5.57617 -0.32519,0.32519 -1.62598,-0.32519 -1.95117,0 -1.25398,1.25399 -2.14797,2.9839 -3.34375,4.17969 -0.60984,0.60984 -2.55503,-0.23209 -3.06641,0.27929 -1.45914,1.45914 -3.82444,2.88781 -5.85351,3.90235 -1.76466,0.88233 -4.67081,-0.59039 -6.41016,0.27929 -2.22227,1.11113 -3.23822,4.0722 -4.46094,5.29492 -1.17485,1.17485 -3.25544,2.14022 -4.73828,3.62305 -1.08592,1.08592 -4.09637,0.65561 -5.57422,1.39453 -1.19459,0.5973 -1.97255,1.97255 -2.78711,2.78711 -0.67151,0.67151 -2.28315,0.332 -3.0664,1.11524 -0.50151,0.50152 -0.92777,1.4844 -1.39453,1.95117 -0.50634,0.50635 -2.20225,0.78143 -2.50782,1.39258 -0.40886,0.81771 0.2767,1.39129 0.55664,1.95117 0.23503,0.47005 -0.35729,1.87318 0,2.23047 0.97652,0.97652 1.52857,0.41332 2.78711,1.67187 0.66377,0.66376 -0.92874,1.30172 0,2.23047 1.32761,1.32761 2.20362,1.7605 3.625,3.3457 0.23683,0.47366 -0.20248,1.82745 0.27735,2.78711 0.0142,0.0285 5.39771,6.32191 6.6914,6.96875 3.07128,1.53564 11.3368,-1.07074 12.54297,-1.67383 0.79395,-0.39697 1.62102,0.53219 2.22852,0.83594 3.27081,1.63541 12.31151,-0.60253 14.21679,-2.50781 0.56146,-0.56145 3.41381,-1.2534 3.90235,-2.23047 l 1.39258,-2.78711 c 0.32335,-0.6467 -0.49152,-2.57488 0,-3.0664 1.29987,-1.29987 2.66826,-4.5006 3.62304,-6.41016 1.45959,-2.91917 5.61967,-5.06107 8.08399,-7.52539 0.2031,-0.20311 2.08894,0 3.0664,0 3.99148,0 6.43542,0.30259 8.64063,2.50781 0.39908,0.39907 0.0757,1.74951 0.55664,2.23047 1.36183,1.36183 2.50041,2.22112 3.90234,3.62305 0.48904,0.48905 0.30671,2.25788 0.83594,2.78711 4.52392,4.52392 -3.57042,13.55491 -5.29492,17.0039 -0.47663,0.95327 -0.55064,1.9432 -1.11524,2.50782 -0.78246,0.78245 -0.45209,2.95989 -1.39453,3.90234 -0.18583,0.18582 -0.92746,-0.18582 -1.11328,0 -1.04385,1.04385 -0.11416,1.22743 -1.39453,2.50781 -0.35729,0.35729 0.23502,1.76042 0,2.23047 -0.64482,1.28964 -2.44029,3.06641 -3.34375,3.06641 -0.14251,0 0.0557,3.50972 -0.83789,5.29687 -0.33603,0.67206 -0.74804,0.4707 -1.11328,0.83594 -0.4745,0.4745 -1.05596,3.84307 -1.95117,4.73828 -0.70827,0.70828 -1.85284,1.29424 -2.50977,1.95117 -0.9385,0.93851 0.61744,4.61864 0,5.85352 -0.54705,1.09411 -1.10521,1.65378 -1.67187,2.78711 -0.29392,0.58785 0.44679,2.34032 0,2.78711 -0.6881,0.6881 -1.71125,2.02795 -2.23047,3.0664 -0.52031,1.0406 0.5203,2.86175 0,3.90235 -2.97792,5.95583 1.38065,16.17989 -2.78711,20.34765 -1.43134,1.43134 0.98651,2.80701 1.39453,3.62305 0.99099,1.98199 -0.45926,3.44504 1.11328,5.01758 1.16398,1.16398 -1.11328,8.57168 -1.11328,9.19726 0,1.39279 0.44638,3.45402 0.27734,3.62305 -0.0853,0.0853 0.78294,1.00925 0.83594,1.11523 0.57363,1.14725 1.32428,2.71881 2.23047,3.625 1.25553,1.25554 4.21024,0.0878 4.73828,1.67188 0.83163,2.49489 -1.22278,4.63074 0,5.85352 0.61074,0.61075 2.20895,0.53707 2.78711,1.11523 0.89834,0.89834 0.92227,1.67187 2.78711,1.67187 1.62599,0 7.35962,0.77918 7.80469,0.55664 0.74506,-0.37252 5.05288,-6.14753 6.6914,-6.96679 0.53614,-0.26807 1.24042,0.27734 1.94922,0.27734 2.85734,0 3.07328,-2.23538 4.74024,-3.90234 1.60639,-1.60638 5.61302,-0.3181 7.24609,-1.95117 1.3984,-1.39841 1.11501,-4.45875 2.50976,-5.85352 0.31249,-0.31248 1.53817,0.20553 1.94922,0 0.83637,-0.41818 2.14596,-1.95117 2.78907,-1.95117 1.41127,0 3.65258,-1.95972 6.96679,-3.06445 1.94357,-0.64786 3.98549,0.45855 4.74024,0.83593 2.27912,1.13956 10.81276,-0.27929 13.93554,-0.27929 1.45575,0 2.72712,0.61859 3.34571,0 0.97191,-0.9719 1.02601,-1.94583 3.34375,-1.67188 0.83285,-0.41643 2.15045,-1.59382 2.78711,-2.23047 0.55747,-0.55747 2.78823,0.55746 3.3457,0 1.12723,-1.12723 9.66992,-4.54491 11.98437,-2.23047 0.75316,0.75315 2.29174,1.51512 2.78907,2.50977 0.82901,1.65802 0.24483,8.88545 1.39258,10.0332 1.02212,1.02212 2.50426,1.66833 3.3457,2.50977 0.57223,0.57223 -1.62746,1.99558 0,3.62304 2.93462,2.93462 4.08148,7.1479 6.68945,9.75586 0.65038,0.65038 2.97267,-0.37108 3.62305,0.2793 0.65038,0.65038 0.18556,2.41407 0.83594,3.06445 1.32289,1.32289 4.60309,2.79409 5.29687,4.18165 0.42167,0.84333 -0.42947,4.59007 0.27734,5.29687 1.17008,1.17008 1.72268,3.11525 3.34571,4.73828 2.05297,2.05296 -2.46732,8.28036 -2.78711,8.91992 -2.2004,4.40081 -5.19823,12.16502 -8.08399,15.05078 -0.78947,0.78947 -0.0494,8.03268 0.5586,8.64063 1.0999,1.0999 3.15802,2.32208 3.90234,3.06641 0.946,0.946 1.12232,3.07349 1.95117,3.90234 3.42454,3.42454 6.35836,1.44633 8.64063,-0.83594 l 5.01562,-5.01758 c 0.64891,-0.64891 0.24323,-6.41015 2.23047,-6.41015 0.13105,0 0.58971,-8.39439 1.39453,-9.19922 1.68485,-1.68485 3.82764,-4.0197 7.52539,-2.78711 0.22277,0.0743 0.95801,-0.15723 1.11524,0 0.79685,0.79684 2.39217,2.27459 3.0664,3.62305 0.74663,1.49326 0.0574,6.01616 -0.55859,7.24804 -0.6351,1.2702 0.3479,2.22852 0.2793,2.22852 -0.16437,0 1.41917,6.1594 0.55664,5.29687 -0.14691,-0.14691 -0.27735,0.34888 -0.27735,0.55664 0,1.37616 -0.20075,4.33679 0,4.73829 0.37509,0.75016 1.55875,1.0021 1.95118,1.39453 1.17423,1.17423 -0.77076,4.83503 1.95117,5.57422 1.16449,-0.58224 1.21269,-1.76934 1.95117,-2.50782 0.52288,-0.52287 1.90463,-1.11523 2.22852,-1.11523 0.29383,0 0.27929,-0.54212 0.27929,-0.83594 0,-0.92445 3.59646,-4.98904 4.18164,-5.57422 1.09825,-1.09824 5.0768,-3.79425 6.41016,-4.46094 1.49544,-0.74771 5.94617,-9.66185 6.68945,-11.14843 0.26585,-0.53169 0,-1.90215 0,-2.50977 0,-5.46589 -2.49039,-8.65805 1.39453,-12.54297 0.92,-0.91998 -0.49474,-2.40106 0.83594,-3.0664 2.58603,-1.29301 5.50122,-2.43287 6.96875,-3.90039 1.69429,-1.69429 3.06446,2.38353 3.06446,3.34375 0,3.07901 -0.83034,19.24365 0,20.90429 0.38427,0.76856 3.96112,3.84551 5.57617,2.23047 1.70218,-1.70221 4.79694,-1.45319 5.01562,-1.67187 0.54892,-0.54892 0.63472,-1.74995 1.11524,-2.23047 0.38063,-0.38063 1.57054,-0.45531 1.95117,-0.83594 0.8568,-0.8568 1.76017,-2.31876 2.78711,-3.3457 0.75513,-0.75513 0,-6.40075 0,-7.52539 0,-1.61555 -0.36102,-3.4557 0.83789,-5.85352 1.944,-3.88799 -2.25669,-16.69838 2.22851,-21.18359 0.58692,-0.58692 0.22525,-1.89713 0.83594,-2.50781 2.20393,-2.20394 4.49014,-4.2128 6.68945,-6.41211 0.52509,-0.52509 16.75146,1.08838 17.56055,0.27929 0.22278,-0.22277 0.30961,-0.85206 0.83594,-1.11523 1.4638,-0.7319 3.29245,0.33256 4.46094,-0.83594 0.24424,-0.24424 0.27929,-0.92668 0.27929,-1.39258 0,-3.34233 1.21015,-5.66367 0,-8.08398 -0.33685,-0.67369 -0.9968,-1.27416 -1.39453,-1.67188 -0.52936,-0.52937 -0.16459,-2.00301 -0.55664,-2.78711 -0.74203,-1.48404 -2.65894,-1.38485 -2.80257,-3.47902 l -0.0556,-0.56322 c -0.0897,-0.17804 -0.65685,-0.8065 -0.55747,-0.90588 0.12625,-0.12625 0.32183,-0.14763 0.45295,-0.27874 0.6615,-0.6615 1.65975,-1.17558 2.40408,-1.70724 0.99845,-0.71318 2.08856,-2.13632 3.20544,-2.50861 0.23588,-0.0786 0.62535,-0.0173 0.87105,-0.0348 0.361,-0.0258 1.73223,-0.2314 2.05566,-0.0697 0.31083,0.15542 0.88823,0.27874 1.04525,0.27874 l 0.71896,0.17754 c 2.73974,0.59928 5.5826,1.66365 6.32629,2.40734 0.39134,0.39134 1.87582,0.10042 2.36524,0.58984 l 5.51758,5.51953 c 0.89024,0.89024 0.56937,2.35501 1.77343,2.95704 0.76634,0.38317 2.00725,-0.179 2.75977,0.19726 l 3.54883,1.77344 c 1.46171,0.73085 13.76004,16.68218 14.38672,17.93555 0.40809,0.81619 3.19737,0.63291 3.94336,1.3789 0.44969,0.44969 0.038,1.89204 0.58984,2.16797 0.9244,0.4622 0.75719,-2.19983 1.57812,-1.3789 0.67934,0.67933 1.65069,2.31505 2.16797,3.3496 0.19933,0.39866 -0.24464,1.21116 0,1.57813 0.35297,0.52945 1.06964,0.28056 1.77344,0.98437 0.22096,0.22096 -0.14533,1.09021 0,1.38086 0.36177,0.72354 2.08458,2.59852 2.5625,2.75782 2.07052,0.69018 2.47438,2.22351 4.33594,3.15429 0.61309,0.30654 3.00447,0.0494 3.54687,0.5918 1.20822,1.20823 8.08203,4.54127 8.08203,5.51758 0,0.59812 2.43172,-1.70695 3.54688,-0.5918 0.78729,0.78729 -0.0202,2.34502 0.39453,2.75977 0.60042,0.60042 2.95412,-0.39501 3.74414,0 2.48355,1.24178 4.11081,2.35228 6.50391,3.54882 2.40611,1.20307 11.75643,-0.66736 13.79687,-1.18359 3.96472,0 5.77071,3.96068 9.85547,5.32227 3.59225,1.19741 7.1076,-1.86613 10.44531,-0.19727 2.93666,1.46833 8.06278,4.13002 9.65821,4.92774 0.79671,0.39835 3.11014,0.54764 3.54687,0.98437 3.5949,3.59489 8.77495,8.18316 13.00977,12.41797 2.90586,2.90587 5.28132,5.83611 6.89648,9.06641 0.73033,1.46067 2.38628,6.11989 3.54883,6.70117 0.4966,0.2483 1.48618,-1.0221 1.9707,-1.1836 0.34653,-0.11551 1.37891,0.0637 1.37891,-0.39257 0,-0.19615 1.03644,-1.23371 1.18359,-1.38086 0.42234,-0.42235 0.24282,-1.30402 1.18164,-1.77344 1.41006,-0.70503 4.85936,0.65429 6.3086,1.3789 1.16087,0.58043 3.77932,-0.75192 4.72851,0.19727 1.21951,1.21951 -1.37195,2.18187 -0.58984,3.74609 0.36271,0.72541 1.34305,-0.21714 2.16797,0.19532 1.21586,0.60793 1.67782,2.02553 2.75976,2.95703 0.29246,0.5849 0.88962,1.08688 1.37891,1.57617 1.03206,1.03206 1.11109,3.47632 2.36523,4.73047 0.43059,0.43061 0.21879,2.01373 0.39454,2.36523 0.32795,0.65589 2.26569,-0.29485 2.75781,0.19727 1.12776,1.12776 2.75921,1.57561 3.74609,2.5625 0.22096,0.22095 -0.14533,1.08824 0,1.37891 0.50352,1.00703 0.19727,1.73203 0.19727,2.75976 0,0.3785 1.04227,1.7175 0.39453,2.36524 -1.08461,1.0846 -1.99357,1.42465 -2.5625,2.5625 -0.28231,0.56461 -0.84295,2.81364 -1.1836,3.15429 -0.63677,0.63677 -1.38077,0.79086 -1.77343,1.57617 -0.57529,1.15058 1.59807,5.34221 2.5625,6.30664 0.3285,0.32849 1.64221,-0.32849 1.9707,0 0.22515,0.22515 0.20627,0.99534 0.39453,1.1836 0.47297,0.47296 0.99116,0.59662 1.37891,0.98437 0.38492,0.38492 0,3.58654 0,2.95703 0,-0.1984 0.17249,1.97071 -0.19727,1.97071 -0.26112,0 0.98633,1.71913 0.98633,1.77343 0,0.33245 1.6086,2.87464 1.77344,2.95704 0.1118,0.0559 2.71265,-0.15015 3.15429,-0.5918 1.93326,-1.93325 5.42413,-2.66435 6.89844,-4.13867 1.37289,-1.37288 4.27282,-1.05932 5.32032,-3.1543 0.0668,-0.13355 0.24096,-0.37551 0.25976,-0.50391 -0.0132,-0.0217 -0.0681,-0.0859 -0.0625,-0.0859 0.0584,0 0.0699,0.0357 0.0625,0.0859 0.1392,0.22838 1.2433,1.49024 2.89453,1.49024 1.6656,0 6.33021,0.7655 7.49024,-0.39453 0.76953,-0.76953 1.10813,-1.69994 1.77343,-2.36524 0.78838,-0.78838 3.54756,0.39384 4.33594,-0.39453 0.69511,-0.69512 0.79866,-2.5721 1.57617,-3.34961 0.32369,-0.32369 3.0794,0.0474 3.1543,0.19727 0.0881,0.17629 -0.13937,0.45243 0,0.5918 0.63262,0.63263 1.47767,-0.69057 1.57617,-0.78907 0.56882,-0.56881 2.79844,0.37422 3.54688,0 0.59253,-0.29626 1.1205,-1.34736 1.57812,-1.57617 0.3811,-0.19055 1.63297,-0.3243 2.5625,-0.78906 0.26872,-0.13437 2.05895,0 2.95508,0 4.63557,0 11.6601,0.36335 14.19141,-2.16797 0.32849,-0.32848 1.24768,-0.066 1.57617,-0.39453 0.59807,-0.59807 7.92946,0.15257 8.2793,-0.19727 0.52804,-0.52804 1.08597,-1.48051 1.77343,-2.16797 0.61168,-0.61168 2.39834,-0.42763 3.15235,-1.18164 0.31163,-0.31163 -1.85041,-1.70764 0.59179,-1.18359 0.91108,-0.45554 0.5289,-1.11874 1.1836,-1.77344 0.46982,-0.46982 1.58815,-0.60378 2.16797,-1.18359 0.70218,-0.70219 1.64022,-2.19901 2.75781,-2.75781 0.0431,-0.0215 1.76499,-0.5711 1.77539,-0.5918 0.10477,-0.20956 -0.38042,-0.67465 -0.53906,-0.6543 -0.003,5.8e-4 -0.0527,0.0659 -0.0527,0.0625 0,-0.0444 0.0226,-0.0586 0.0527,-0.0625 0.0788,-0.0169 1.23751,-1.62032 2.50976,-2.89258 0.49976,-0.49975 2.43802,-0.46927 2.95508,-0.98632 0.57881,-0.57882 1.31178,-1.50708 1.97266,-2.16797 0.61425,-0.61424 3.23913,-0.43794 3.9414,-0.78907 1.09643,-0.54822 1.05446,-1.05446 1.97071,-1.9707 0.36134,-0.36134 1.80662,0.36134 2.16796,0 0.2583,-0.2583 0.33118,-0.92296 1.18165,-1.77344 0.28429,-0.28429 1.40135,0.18702 1.77539,0 0.55075,-0.27537 2.26279,-4.77885 3.74414,-5.51953 1.30697,-0.65348 1.56293,1.17698 2.36523,1.57813 1.56626,0.78313 3.09848,-0.61873 4.73047,0.19726 0.30587,0.15294 0.70302,1.09756 1.18164,1.57617 0.46456,0.46457 0.71903,-1.11161 1.18359,-1.57617 0.64256,-0.64255 1.57109,0.88829 1.77344,0.78711 0.77181,-0.3859 0.70057,-1.48768 1.1836,-1.9707 0.5017,-0.5017 1.32599,0.44744 2.75781,-0.98438 1.00384,-1.00384 0.0893,-6.39593 0.78906,-7.0957 1.23402,-1.23402 0.39453,-7.49693 0.39453,-9.6582 0,-1.89041 0.28623,-3.13691 0.98438,-4.5332 0.35343,-0.70687 -0.53721,-2.81435 0,-3.35157 1.32384,-1.32383 1.93372,-4.69153 3.35156,-6.10937 0.52559,-0.52559 -0.52558,-2.62676 0,-3.15235 1.91842,-1.91842 2.02928,0.78711 3.15234,0.78711 0.2141,0 -0.0554,-2.25436 0.19727,-2.75976 0.7869,-1.57382 3.33473,-2.72418 3.74609,-3.54688 0.6484,-1.29682 4.13867,-1.9471 4.13867,-1.9707 0,-0.0949 -2.44827,-0.23597 -3.15429,-0.19727 0.0432,-0.0864 0.0749,-1.45381 0.19726,-1.57617 0.72006,-0.72005 0.66564,-2.43907 1.38086,-3.1543 2.22849,-2.22848 3.47788,-8.01303 5.32031,-9.85546 1.13782,-1.13782 3.26802,-1.10005 4.33594,-2.16797 0.25265,-0.25265 1.24576,0.16618 1.57813,0 1.2862,-0.6431 0.67814,-1.18164 1.9707,-1.18164 0.35379,0 0.14436,-0.73615 0.39453,-0.98633 1.78957,-1.78957 2.59703,-3.97593 4.33594,-5.71484 0.5569,-0.5569 1.01318,-1.83106 1.37891,-2.5625 0.46091,-0.92183 1.47604,-1.77045 1.9707,-2.75977 2.1801,-4.36019 3.25608,-8.37911 6.89844,-12.02149 0.1971,-0.19709 1.6e-4,-0.78922 0.19726,-0.98632 1.69779,-1.69779 5.02368,0.29663 7.88281,-2.5625 0.0492,-0.0492 1.91596,-7.62885 1.97266,-7.68555 0.39418,-0.39419 0.19565,-1.3812 0.58984,-1.77539 0.42755,-0.42755 2.42171,-2.25033 1.97071,-3.15234 -0.16051,-0.32102 -2.08279,-2.28201 -2.36328,-2.5625 -0.23688,-0.23689 -0.98633,0.13772 -0.98633,-0.19727 0,-1.01097 2.11482,-2.84879 2.75976,-4.13867 0.60139,-1.20271 0.01,-2.97803 0.58985,-4.13867 0.50079,-1.00158 1.90878,-3.28769 2.75976,-4.13868 0.57274,-0.57273 -0.40396,-4.32651 0.98633,-5.71679 0.10686,-0.10686 0.14836,-7.34187 0,-7.49024 -0.47174,-0.47173 -1.89404,-1.33691 -1.18359,-2.75781 1.41665,-2.8333 2.71484,-4.24804 4.13867,-7.0957 0.35564,-0.71128 0.18441,-1.16879 0.98633,-1.97071 0.0435,-0.0435 -0.0333,-0.78906 0,-0.78906 0.27088,0 0.52627,0.13157 0.78906,0.19727 1.07123,0.53562 3.34961,0.21785 3.34961,0.39453 0,0.0258 -0.19375,-1.57969 0.39453,-2.16797 1.16772,-1.16771 1.15276,-3.48911 1.9707,-5.125 0.50411,-1.00823 1.01279,-2.98349 1.77344,-3.74414 0.35265,-0.35265 0.89838,-0.61317 1.18359,-1.18359 1.96101,-3.92202 3.02652,-11.70035 5.51758,-14.19141 0.64735,-0.64735 -1.79395,-2.1455 -0.58984,-3.34961 0.1971,-0.19709 0.78727,-1.8e-4 0.98437,-0.19727 0.004,-0.004 -0.15754,-1.41863 1.1836,-2.75976 0.52516,-0.52516 -0.5038,-1.09364 -0.5918,-1.18164 -0.87353,-0.87353 1.48732,-4.85844 1.77344,-5.7168 0.1029,-0.30868 -0.27373,-1.74131 0,-2.5625 0.78179,-2.34536 3.19106,-2.79652 4.92773,-4.5332 1.43738,-1.43737 1.81175,-2.76613 4.13867,-3.54688 0,-0.98129 -0.84152,-1.03878 -1.57617,-1.77343 -0.25222,-0.25222 -0.22025,-1.00932 -0.59179,-1.38086 -2.78294,-2.78294 -3.59204,-6.74439 -6.30664,-9.45899 -0.51986,-0.51986 0,-4.30807 0,-5.125 0,-3.31418 1.0096,-0.64226 1.18164,-0.98633 0.55186,-1.10373 -0.55187,-3.03494 0,-4.13867 0.97216,-1.94432 1.30224,-8.62988 0.19726,-10.83984 -0.64921,-1.29843 -1.54844,-2.50508 -2.16797,-3.74414 -0.30556,-0.61113 -0.16627,-1.54713 -0.58984,-1.97071 -0.73141,-0.73141 -2.17583,0.18941 -2.5625,-0.19726 -1.18854,-1.18854 1.0657,-1.81126 -2.75977,-1.9707 0,-0.6489 -1.52834,-3.30375 -2.36523,-4.14063 -0.75078,-0.75078 1.28741,-2.0622 0.5918,-2.75781 -0.8136,-0.8136 -3.12383,-3.09335 -3.35157,-3.54883 -0.81374,-1.62748 2.54837,-0.16706 3.1543,-1.37891 0.67817,-1.35635 -1.9707,-1.85354 -1.9707,-2.75976 0,-1.39123 -2.92683,0.98633 -3.7461,0.98633 -1.04359,0 -0.31588,0.94603 -0.78711,1.18164 -0.0829,0.0414 -3.65873,-2.03693 -4.14062,-2.75977 -0.40062,-0.60094 -0.28171,-3.26321 -0.19531,-3.34961 0.0654,-0.0654 1.56387,-0.0123 0.98437,-0.59179 -0.89346,-0.89347 -4.41993,0.62301 -5.32226,-1.18165 -0.3811,-0.76219 -0.32679,-3.02276 -0.58985,-3.15429 -0.41552,-0.2078 -1.84541,-0.19727 -1.38086,-0.19727 0.0273,0 -0.0361,-0.91413 0,-0.98633 0.54419,-1.08838 1.40475,-1.52839 0.98633,-2.36523 -0.23285,-0.46569 -0.9159,-0.71669 -1.18359,-0.98438 -1.44381,-1.44381 -4.72852,-0.44227 -4.72852,0.98438 0,0.26464 -0.0459,3.70022 -0.98633,2.75977 -0.18921,-0.18922 0.12442,-0.93282 0,-1.18165 -0.42733,-0.85466 -0.99684,-0.81398 -1.3789,-1.57812 -0.31973,-0.63946 1.92376,-2.01765 0,-3.94141 -0.45721,-0.45721 -3.12392,2.10721 -3.35157,2.5625 -0.56221,1.12442 -2.76976,0.76977 -2.75976,0.78907 0.21851,0.43703 0.65195,0.0414 0.78906,0.58984 0.67758,2.71033 -0.51923,1.38086 -2.16797,1.38086 -0.61454,0 -1.40166,2.38799 -1.77343,2.75976 -1.14879,1.14879 -1.51513,-4.64437 -2.95704,-5.125 -2.4554,-0.81847 -0.44483,2.39137 -1.9707,3.1543 -1.92621,0.96311 -1.46043,-1.46238 -1.77344,-1.77539 -0.64536,-0.64536 -2.27718,2.41984 -2.5625,2.5625 -1.88062,0.94031 -3.67345,-2.36523 -5.32226,-2.36523 l -1.96094,0.9375 c 0.0341,0.049 0.1442,0.19138 0.10742,0.14257 z"
         style="fill:none;fill-rule:evenodd;stroke:#000000;stroke-width:2;stroke-linecap:round;stroke-linejoin:round;stroke-miterlimit:4;stroke-dasharray:none;stroke-opacity:1" /><circle
         r="8"
         cy="369.76367"
         cx="573.94"
         id="path4069"
         style="display:inline;fill:#000000;fill-opacity:1;fill-rule:evenodd;stroke:none" /><circle
         r="8"
         cy="535.3233"
         cx="698.50391"
         id="path4069-5"
         style="display:inline;fill:#000000;fill-opacity:1;fill-rule:evenodd;stroke:none" /><text
         xml:space="preserve"
         style="font-style:normal;font-variant:normal;font-weight:normal;font-stretch:normal;font-size:25px;line-height:85.00000238%;font-family:sans-serif;-inkscape-font-specification:'sans-serif, Normal';text-align:center;letter-spacing:0.15000001px;word-spacing:0.15000001px;writing-mode:lr-tb;text-anchor:middle;display:inline;fill:#000000;fill-opacity:1;stroke:none;stroke-width:1px;stroke-linecap:butt;stroke-linejoin:miter;stroke-opacity:1"
         x="570.57898"
         y="357.42142"
         id="text4913-7"
         sodipodi:linespacing="85.000002%"><tspan
           sodipodi:role="line"
           id="tspan4929-2"
           x="570.65399"
           y="357.42142">Chantonnay</tspan></text>
<text
         xml:space="preserve"
         style="font-style:normal;font-variant:normal;font-weight:normal;font-stretch:normal;font-size:25px;line-height:85.00000238%;font-family:sans-serif;-inkscape-font-specification:'sans-serif, Normal';text-align:center;letter-spacing:0.15000001px;word-spacing:0.15000001px;writing-mode:lr-tb;text-anchor:middle;display:inline;fill:#000000;fill-opacity:1;stroke:none;stroke-width:1px;stroke-linecap:butt;stroke-linejoin:miter;stroke-opacity:1"
         x="698.17426"
         y="567.44843"
         id="text4913-7-6"
         sodipodi:linespacing="85.000002%"><tspan
           sodipodi:role="line"
           id="tspan4929-2-7"
           x="698.24927"
           y="567.44843">Saint-Philbert-</tspan><tspan
           id="tspan5996"
           sodipodi:role="line"
           x="698.24927"
           y="588.69843">du-Pont-Charrault</tspan></text>
</g></g></svg>