<?xml version="1.0" encoding="UTF-8" standalone="no"?>
<!-- Created with Arkyan's SVGCensus script -->
<svg
   xmlns:dc="http://purl.org/dc/elements/1.1/"
   xmlns:cc="http://web.resource.org/cc/"
   xmlns:rdf="http://www.w3.org/1999/02/22-rdf-syntax-ns#"
   xmlns:svg="http://www.w3.org/2000/svg"
   xmlns="http://www.w3.org/2000/svg"
   xmlns:sodipodi="http://sodipodi.sourceforge.net/DTD/sodipodi-0.dtd"
   xmlns:inkscape="http://www.inkscape.org/namespaces/inkscape"
   version="1.0"
   width="900"
   height="400"
   id="svg4192"
   sodipodi:version="0.32"
   inkscape:version="0.45.1"
   sodipodi:docname="outputmap.svg"
   inkscape:output_extension="org.inkscape.output.svg.inkscape"
   sodipodi:docbase="C:\files\wikibot">
  <metadata
     id="metadata4312">
    <rdf:RDF>
      <cc:Work
         rdf:about="">
        <dc:format>image/svg+xml</dc:format>
        <dc:type
           rdf:resource="http://purl.org/dc/dcmitype/StillImage" />
      </cc:Work>
    </rdf:RDF>
  </metadata>
  <defs
     id="defs4310" />
  <sodipodi:namedview
     inkscape:window-height="573"
     inkscape:window-width="744"
     inkscape:pageshadow="2"
     inkscape:pageopacity="0.0"
     guidetolerance="10.0"
     gridtolerance="10.0"
     objecttolerance="10.0"
     borderopacity="1.0"
     bordercolor="#666666"
     pagecolor="#ffffff"
     id="base"
     width="900px"
     height="400px"
     inkscape:zoom="0.73222222"
     inkscape:cx="450"
     inkscape:cy="200"
     inkscape:window-x="22"
     inkscape:window-y="29"
     inkscape:current-layer="svg4192" />
  <path
     id="033"
     style="fill:#ffffff;fill-opacity:1;fill-rule:evenodd;stroke:#000000;stroke-width:3px;stroke-linecap:butt;stroke-linejoin:miter;stroke-opacity:1"
     d="M 318.44264,47.026375 L 323.94264,46.926375 L 323.94264,46.926375 L 330.24264,46.926375 L 330.24264,46.926375 L 336.44264,47.026375 L 336.44264,47.026375 L 336.34264,59.026375 L 336.34264,59.026375 L 336.54264,71.726375 L 336.54264,78.026375 L 336.54264,78.026375 L 336.64264,84.526375 L 336.64264,84.526375 L 336.64264,90.926375 L 336.64264,90.926375 L 336.64264,93.426375 L 336.64264,93.426375 L 336.64264,103.62637 L 336.64264,122.62637 L 336.74264,128.62637 L 336.74264,128.62637 L 336.74264,134.92637 L 336.74264,135.02637 L 336.74264,135.02637 L 336.94264,142.02637 L 336.94264,142.32637 L 336.94264,142.32637 L 336.94264,142.52637 L 336.94264,142.52637 L 337.14264,153.92637 L 336.94264,173.12637 L 336.94264,185.82637 L 336.94264,187.32637 L 336.94264,187.32637 L 337.04264,193.22637 L 337.04264,193.22637 L 336.94264,198.32637 L 337.44264,236.82637 L 337.44264,236.82637 L 337.54264,238.12637 L 337.54264,238.12637 L 337.44264,263.32637 L 337.44264,264.62637 L 337.44264,264.62637 L 337.44264,269.52637 L 337.44264,269.52637 L 337.54264,275.92637 L 337.54264,275.92637 L 337.44264,277.82637 L 337.44264,277.82637 L 336.84264,288.62637 L 336.64264,336.52637 L 336.64264,336.52637 L 336.64264,337.42637 L 336.64264,337.42637 L 336.64264,342.92637 L 336.74264,352.12637 L 336.74264,352.12637 L 261.54264,352.42637 L 249.04264,352.42637 L 236.44264,352.42637 L 199.14264,352.42637 L 199.14264,352.42637 L 186.04264,352.32637 L 142.24264,352.32637 L 142.24264,352.32637 L 136.14264,352.22637 L 136.14264,352.22637 L 129.44264,352.22637 L 111.14264,352.12637 L 73.64264,351.72637 L 61.14264,351.72637 L 51.34264,351.62637 L 51.34264,351.62637 L 42.24264,351.52637 L 40.24264,351.52637 L 40.24264,351.52637 L 35.64264,351.52637 L 35.64264,351.52637 L 35.74264,338.82637 L 35.74264,338.82637 L 36.24264,288.02637 L 36.34264,275.32637 L 36.34264,275.32637 L 36.44264,262.62637 L 36.44264,262.62637 L 36.54264,211.82637 L 36.64264,198.22637 L 36.64264,174.02637 L 36.64264,174.02637 L 36.74264,167.62637 L 36.74264,160.22637 L 36.74264,160.22637 L 36.74264,147.52637 L 36.84264,122.32637 L 37.14264,47.126375 L 37.14264,47.126375 L 77.84264,47.226375 L 87.24264,47.126375 L 87.24264,47.126375 L 90.34264,47.226375 L 111.04264,47.326375 L 111.04264,47.326375 L 112.24264,47.326375 L 114.44264,47.326375 L 114.44264,47.326375 L 115.94264,47.326375 L 115.94264,47.326375 L 120.84264,47.026375 L 131.04264,47.126375 L 131.04264,47.126375 L 143.34264,47.226375 L 143.34264,47.226375 L 149.44264,47.526375 L 149.44264,47.526375 L 149.44264,47.526375 L 149.44264,47.526375 L 161.94264,47.426375 L 187.04264,47.526375 L 187.04264,47.526375 L 189.54264,47.526375 L 189.54264,47.526375 L 191.54264,47.526375 L 191.54264,47.526375 L 192.14264,47.526375 L 192.14264,47.526375 L 202.84264,47.526375 L 202.84264,47.526375 L 208.44264,47.526375 L 208.44264,47.526375 L 212.24264,47.626375 L 212.24264,47.626375 L 212.24264,47.626375 L 212.24264,47.626375 L 223.74264,47.526375 L 224.74264,47.526375 L 224.74264,47.526375 L 227.34264,47.626375 L 227.34264,47.626375 L 249.74264,47.526375 L 262.14264,47.526375 L 286.24264,47.326375 L 286.24264,47.326375 L 286.34264,47.326375 L 286.34264,47.326375 L 298.74264,47.226375 L 298.74264,47.226375 L 298.84264,47.226375 L 298.84264,47.226375 L 310.14264,47.126375 L 310.14264,47.126375 L 311.34264,47.026375 L 311.34264,47.026375 L 317.14264,47.026375 L 317.14264,47.026375 L 318.44264,47.026375 z " />
  <path
     id="50160"
     style="fill:#cccccc;fill-opacity:1;fill-rule:evenodd;stroke:#000000;stroke-width:1px;stroke-linecap:butt;stroke-linejoin:miter;stroke-opacity:1"
     d="M 230.14264,109.82637 L 231.24264,109.82637 L 231.64264,109.82637 L 236.64264,109.82637 L 236.64264,109.82637 L 241.04264,109.82637 L 241.04264,109.82637 L 241.04264,114.72637 L 243.44264,114.72637 L 243.44264,114.72637 L 243.44264,116.02637 L 242.04264,122.22637 L 242.04264,122.22637 L 241.74264,122.52637 L 241.74264,122.52637 L 243.14264,122.52637 L 244.14264,122.52637 L 244.14264,122.52637 L 247.44264,122.52637 L 247.44264,122.52637 L 249.04264,122.52637 L 249.04264,125.42637 L 262.04264,125.62637 L 280.44264,125.62637 L 280.64264,141.42637 L 280.74264,153.82637 L 261.94264,153.82637 L 261.54264,153.82637 L 249.74264,153.82637 L 249.84264,160.42637 L 232.34264,160.62637 L 230.84264,160.62637 L 230.84264,160.62637 L 224.54264,160.62637 L 224.54264,160.62637 L 224.54264,166.92637 L 224.54264,166.92637 L 212.04264,166.62637 L 212.04264,166.62637 L 212.04264,166.42637 L 212.04264,166.42637 L 205.54264,166.42637 L 205.64264,164.92637 L 206.24264,162.72637 L 208.34264,160.32637 L 203.04264,160.42637 L 186.94264,160.42637 L 186.94264,160.42637 L 180.64264,160.42637 L 180.64264,160.42637 L 180.64264,141.22637 L 180.64264,141.22637 L 174.34264,141.22637 L 174.34264,141.22637 L 174.34264,135.02637 L 174.34264,135.02637 L 180.64264,135.02637 L 180.64264,128.62637 L 180.64264,122.62637 L 186.84264,122.72637 L 199.64264,122.62637 L 199.64264,122.62637 L 199.64264,116.32637 L 199.64264,116.32637 L 199.74264,110.02637 L 204.24264,109.92637 L 204.24264,109.92637 L 204.24264,109.92637 L 204.24264,109.92637 L 222.24264,109.92637 L 222.94264,109.92637 L 224.84264,109.92637 L 224.84264,109.92637 L 230.14264,109.82637 z " />
  <path
     id="14025"
     style="fill:#ff0000;fill-opacity:1;fill-rule:evenodd;stroke:#000000;stroke-width:1px;stroke-linecap:butt;stroke-linejoin:miter;stroke-opacity:1"
     d="M 126.74264,134.92637 L 132.84264,134.92637 L 132.84264,139.32637 L 133.74264,140.12637 L 136.94264,140.12637 L 136.84264,141.42637 L 136.84264,141.42637 L 136.84264,141.52637 L 136.84264,141.52637 L 149.14264,141.62637 L 149.14264,154.12637 L 149.14264,160.32637 L 149.14264,160.32637 L 145.94264,160.32637 L 145.94264,160.32637 L 136.84264,160.32637 L 136.84264,160.32637 L 136.54264,160.32637 L 136.54264,160.32637 L 136.54264,173.12637 L 136.54264,173.12637 L 112.04264,173.12637 L 111.04264,173.12637 L 111.04264,173.12637 L 110.84264,179.52637 L 106.34264,179.52637 L 106.24264,176.12637 L 105.04264,176.12637 L 105.04264,174.32637 L 105.04264,174.32637 L 105.84264,173.22637 L 105.84264,173.22637 L 98.74264,173.32637 L 98.74264,160.12637 L 97.34264,160.12637 L 97.34264,160.12637 L 91.04264,161.62637 L 87.44264,161.62637 L 87.34264,160.12637 L 87.34264,160.12637 L 74.34264,160.12637 L 74.34264,160.12637 L 74.44264,154.32637 L 74.44264,154.32637 L 74.44264,151.92637 L 74.44264,151.92637 L 83.04264,149.62637 L 83.04264,149.62637 L 82.94264,147.62637 L 82.94264,147.62637 L 86.94264,147.62637 L 86.94264,147.62637 L 87.24264,141.12637 L 90.54264,141.12637 L 96.04264,141.12637 L 95.84264,137.72637 L 93.24264,137.72637 L 93.24264,134.82637 L 98.24264,134.82637 L 98.24264,134.82637 L 105.74264,134.92637 L 105.74264,134.92637 L 111.54264,134.92637 L 111.94264,134.92637 L 124.84264,134.92637 L 124.84264,132.52637 L 126.74264,132.52637 L 126.74264,132.52637 L 126.74264,134.92637 z " />
  <path
     id="80580"
     style="fill:#cccccc;fill-opacity:1;fill-rule:evenodd;stroke:#000000;stroke-width:1px;stroke-linecap:butt;stroke-linejoin:miter;stroke-opacity:1"
     d="M 74.44264,150.82637 L 74.44264,151.42637 L 74.44264,151.42637 L 74.44264,151.92637 L 74.44264,151.92637 L 74.44264,154.32637 L 74.44264,154.32637 L 74.34264,160.12637 L 74.34264,160.12637 L 74.34264,164.72637 L 53.44264,164.72637 L 43.04264,164.72637 L 43.24264,153.82637 L 61.94264,153.92637 L 61.94264,153.92637 L 61.94264,150.72637 L 61.94264,150.72637 L 74.44264,150.82637 z " />
  <path
     id="68250"
     style="fill:#cccccc;fill-opacity:1;fill-rule:evenodd;stroke:#000000;stroke-width:1px;stroke-linecap:butt;stroke-linejoin:miter;stroke-opacity:1"
     d="M 243.14264,276.32637 L 243.14264,282.32637 L 243.14264,282.32637 L 243.04264,284.22637 L 243.04264,284.22637 L 243.04264,288.72637 L 243.04264,288.72637 L 242.94264,301.42637 L 242.94264,301.42637 L 224.04264,301.42637 L 224.04264,301.42637 L 224.34264,276.42637 L 224.34264,276.42637 L 236.94264,276.22637 L 236.94264,276.22637 L 243.14264,276.32637 z " />
  <path
     id="51420"
     style="fill:#cccccc;fill-opacity:1;fill-rule:evenodd;stroke:#000000;stroke-width:1px;stroke-linecap:butt;stroke-linejoin:miter;stroke-opacity:1"
     d="M 61.14264,338.92637 L 61.14264,351.72637 L 61.14264,351.72637 L 51.34264,351.62637 L 51.34264,351.62637 L 42.24264,351.52637 L 42.24264,351.52637 L 42.34264,338.82637 L 42.34264,338.82637 L 61.14264,338.92637 z " />
  <path
     id="77880"
     style="fill:#cccccc;fill-opacity:1;fill-rule:evenodd;stroke:#000000;stroke-width:1px;stroke-linecap:butt;stroke-linejoin:miter;stroke-opacity:1"
     d="M 114.44264,314.02637 L 114.34264,326.72637 L 114.34264,326.72637 L 111.34264,326.62637 L 101.34264,326.62637 L 101.34264,326.62637 L 101.24264,326.62637 L 101.24264,326.62637 L 98.64264,326.62637 L 98.74264,320.12637 L 98.74264,320.12637 L 98.84264,313.82637 L 98.84264,313.82637 L 111.34264,313.92637 L 114.44264,314.02637 z " />
  <path
     id="22080"
     style="fill:#cccccc;fill-opacity:1;fill-rule:evenodd;stroke:#000000;stroke-width:1px;stroke-linecap:butt;stroke-linejoin:miter;stroke-opacity:1"
     d="M 336.64264,337.42637 L 336.64264,342.92637 L 336.64264,342.92637 L 322.84264,342.82637 L 322.84264,336.52637 L 336.64264,336.52637 L 336.64264,336.52637 L 336.64264,337.42637 z " />
  <path
     id="63885"
     style="fill:#cccccc;fill-opacity:1;fill-rule:evenodd;stroke:#000000;stroke-width:1px;stroke-linecap:butt;stroke-linejoin:miter;stroke-opacity:1"
     d="M 272.74264,49.626375 L 272.94264,49.626375 L 276.94264,49.626375 L 276.84264,60.726375 L 272.54264,60.726375 L 270.64264,60.526375 L 270.54264,49.626375 L 272.74264,49.626375 z " />
  <path
     id="68025"
     style="fill:#cccccc;fill-opacity:1;fill-rule:evenodd;stroke:#000000;stroke-width:1px;stroke-linecap:butt;stroke-linejoin:miter;stroke-opacity:1"
     d="M 299.04264,89.326375 L 300.24264,89.326375 L 301.54264,90.526375 L 301.64264,91.026375 L 297.44264,92.826375 L 294.14264,92.526375 L 292.24264,91.726375 L 292.24264,90.926375 L 292.24264,90.326375 L 294.94264,85.626375 L 297.14264,85.526375 L 297.14264,86.926375 L 298.94264,86.926375 L 298.94264,86.926375 L 299.04264,89.326375 z " />
  <path
     id="76620"
     style="fill:#cccccc;fill-opacity:1;fill-rule:evenodd;stroke:#000000;stroke-width:1px;stroke-linecap:butt;stroke-linejoin:miter;stroke-opacity:1"
     d="M 151.64264,288.82637 L 152.54264,288.82637 L 152.54264,288.82637 L 155.44264,288.82637 L 155.44264,288.82637 L 155.44264,291.22637 L 155.44264,291.22637 L 155.44264,295.02637 L 148.94264,295.12637 L 148.94264,295.12637 L 149.04264,292.22637 L 149.04264,292.22637 L 149.04264,291.12637 L 149.04264,291.12637 L 149.04264,289.32637 L 149.04264,289.32637 L 149.04264,288.82637 L 149.04264,288.82637 L 151.64264,288.82637 z " />
  <path
     id="path4205"
     style="fill:none;fill-opacity:1;fill-rule:evenodd;stroke:#000000;stroke-width:3px;stroke-linecap:butt;stroke-linejoin:miter;stroke-opacity:1"
     d="M 318.44264,47.026375 L 323.94264,46.926375 L 323.94264,46.926375 L 330.24264,46.926375 L 330.24264,46.926375 L 336.44264,47.026375 L 336.44264,47.026375 L 336.34264,59.026375 L 336.34264,59.026375 L 336.54264,71.726375 L 336.54264,78.026375 L 336.54264,78.026375 L 336.64264,84.526375 L 336.64264,84.526375 L 336.64264,90.926375 L 336.64264,90.926375 L 336.64264,93.426375 L 336.64264,93.426375 L 336.64264,103.62637 L 336.64264,122.62637 L 336.74264,128.62637 L 336.74264,128.62637 L 336.74264,134.92637 L 336.74264,135.02637 L 336.74264,135.02637 L 336.94264,142.02637 L 336.94264,142.32637 L 336.94264,142.32637 L 336.94264,142.52637 L 336.94264,142.52637 L 337.14264,153.92637 L 336.94264,173.12637 L 336.94264,185.82637 L 336.94264,187.32637 L 336.94264,187.32637 L 337.04264,193.22637 L 337.04264,193.22637 L 336.94264,198.32637 L 337.44264,236.82637 L 337.44264,236.82637 L 337.54264,238.12637 L 337.54264,238.12637 L 337.44264,263.32637 L 337.44264,264.62637 L 337.44264,264.62637 L 337.44264,269.52637 L 337.44264,269.52637 L 337.54264,275.92637 L 337.54264,275.92637 L 337.44264,277.82637 L 337.44264,277.82637 L 336.84264,288.62637 L 336.64264,336.52637 L 336.64264,336.52637 L 336.64264,337.42637 L 336.64264,337.42637 L 336.64264,342.92637 L 336.74264,352.12637 L 336.74264,352.12637 L 261.54264,352.42637 L 249.04264,352.42637 L 236.44264,352.42637 L 199.14264,352.42637 L 199.14264,352.42637 L 186.04264,352.32637 L 142.24264,352.32637 L 142.24264,352.32637 L 136.14264,352.22637 L 136.14264,352.22637 L 129.44264,352.22637 L 111.14264,352.12637 L 73.64264,351.72637 L 61.14264,351.72637 L 51.34264,351.62637 L 51.34264,351.62637 L 42.24264,351.52637 L 40.24264,351.52637 L 40.24264,351.52637 L 35.64264,351.52637 L 35.64264,351.52637 L 35.74264,338.82637 L 35.74264,338.82637 L 36.24264,288.02637 L 36.34264,275.32637 L 36.34264,275.32637 L 36.44264,262.62637 L 36.44264,262.62637 L 36.54264,211.82637 L 36.64264,198.22637 L 36.64264,174.02637 L 36.64264,174.02637 L 36.74264,167.62637 L 36.74264,160.22637 L 36.74264,160.22637 L 36.74264,147.52637 L 36.84264,122.32637 L 37.14264,47.126375 L 37.14264,47.126375 L 77.84264,47.226375 L 87.24264,47.126375 L 87.24264,47.126375 L 90.34264,47.226375 L 111.04264,47.326375 L 111.04264,47.326375 L 112.24264,47.326375 L 114.44264,47.326375 L 114.44264,47.326375 L 115.94264,47.326375 L 115.94264,47.326375 L 120.84264,47.026375 L 131.04264,47.126375 L 131.04264,47.126375 L 143.34264,47.226375 L 143.34264,47.226375 L 149.44264,47.526375 L 149.44264,47.526375 L 149.44264,47.526375 L 149.44264,47.526375 L 161.94264,47.426375 L 187.04264,47.526375 L 187.04264,47.526375 L 189.54264,47.526375 L 189.54264,47.526375 L 191.54264,47.526375 L 191.54264,47.526375 L 192.14264,47.526375 L 192.14264,47.526375 L 202.84264,47.526375 L 202.84264,47.526375 L 208.44264,47.526375 L 208.44264,47.526375 L 212.24264,47.626375 L 212.24264,47.626375 L 212.24264,47.626375 L 212.24264,47.626375 L 223.74264,47.526375 L 224.74264,47.526375 L 224.74264,47.526375 L 227.34264,47.626375 L 227.34264,47.626375 L 249.74264,47.526375 L 262.14264,47.526375 L 286.24264,47.326375 L 286.24264,47.326375 L 286.34264,47.326375 L 286.34264,47.326375 L 298.74264,47.226375 L 298.74264,47.226375 L 298.84264,47.226375 L 298.84264,47.226375 L 310.14264,47.126375 L 310.14264,47.126375 L 311.34264,47.026375 L 311.34264,47.026375 L 317.14264,47.026375 L 317.14264,47.026375 L 318.44264,47.026375 z " />
  <g
     id="g4207"
     transform="translate(370.61532,33.214435)">
    <path
       style="opacity:1;color:#000000;fill:#e8e2b7;fill-opacity:1;fill-rule:evenodd;stroke:#000000;stroke-width:1;stroke-linecap:butt;stroke-linejoin:miter;marker:none;marker-start:none;marker-mid:none;marker-end:none;stroke-miterlimit:4;stroke-dasharray:none;stroke-dashoffset:0;stroke-opacity:1;visibility:visible;display:inline;overflow:visible;enable-background:accumulate"
       d="M 124.2819,3.0409999 C 129.30257,3.1629078 136.03674,1.5508164 133.22082,9.2374264 C 133.14715,15.851376 133.05413,22.464964 132.95309,29.078699 C 120.95167,28.813905 108.94962,28.601354 96.947197,28.406099 C 97.14657,19.806601 97.352562,11.177022 97.511597,2.5966001 C 106.45218,2.7165799 115.34097,2.9118268 124.2819,3.0409999 z "
       id="059" />
    <path
       style="opacity:1;color:#000000;fill:#e8e2b7;fill-opacity:1;fill-rule:evenodd;stroke:#000000;stroke-width:1;stroke-linecap:butt;stroke-linejoin:miter;marker:none;marker-start:none;marker-mid:none;marker-end:none;stroke-miterlimit:4;stroke-dasharray:none;stroke-dashoffset:0;stroke-opacity:1;visibility:visible;display:inline;overflow:visible;enable-background:accumulate"
       d="M 401.5686,2.4885001 C 405.1952,3.0735146 416.71524,-0.25461065 412.0293,6.5598998 C 413.44386,9.4676147 416.30604,13.266811 413.6026,16.492201 C 415.78131,20.296197 422.78973,19.503736 424.01529,24.947201 C 425.20647,27.421276 426.73133,28.884725 423.6069,31.372601 C 420.07266,34.02939 419.93084,39.031948 416.94141,41.749199 C 419.73735,48.66027 411.75576,46.061111 407.7417,46.5532 C 400.00887,46.755358 392.27016,46.827461 384.53839,46.997601 C 384.72061,31.722828 383.51908,17.823065 383.2894,2.8849001 C 389.38225,2.7620432 395.48122,2.6671955 401.5686,2.4885001 z "
       id="005" />
    <path
       style="opacity:1;color:#000000;fill:#e8e2b7;fill-opacity:1;fill-rule:evenodd;stroke:#000000;stroke-width:1;stroke-linecap:butt;stroke-linejoin:miter;marker:none;marker-start:none;marker-mid:none;marker-end:none;stroke-miterlimit:4;stroke-dasharray:none;stroke-dashoffset:0;stroke-opacity:1;visibility:visible;display:inline;overflow:visible;enable-background:accumulate"
       d="M 370.54681,3.089 C 374.54219,3.553259 380.51108,1.8643108 383.31339,3.5334001 C 383.52245,18.237292 384.7316,31.942639 384.53839,46.997601 C 372.46667,47.204438 360.38996,47.385513 348.31631,47.466 C 348.09858,32.79444 348.02353,18.120914 347.7999,3.4493001 C 355.38279,3.3742955 362.96566,3.2508544 370.54681,3.089 z "
       id="191" />
    <path
       style="opacity:1;color:#000000;fill:#e8e2b7;fill-opacity:1;fill-rule:evenodd;stroke:#000000;stroke-width:1;stroke-linecap:butt;stroke-linejoin:miter;marker:none;marker-start:none;marker-mid:none;marker-end:none;stroke-miterlimit:4;stroke-dasharray:none;stroke-dashoffset:0;stroke-opacity:1;visibility:visible;display:inline;overflow:visible;enable-background:accumulate"
       d="M 340.3176,3.5453999 C 349.348,0.5646902 348.15562,8.1430643 347.94004,14.618228 C 347.58838,20.803101 349.07708,28.873613 347.39151,33.7626 C 335.65108,33.881773 323.91955,34.061982 312.17819,34.170898 C 312.054,24.076944 312.01446,13.987932 311.99811,3.8936999 C 321.43836,3.7863467 330.87796,3.7175497 340.3176,3.5453999 z "
       id="089" />
    <path
       style="opacity:1;color:#000000;fill:#e8e2b7;fill-opacity:1;fill-rule:evenodd;stroke:#000000;stroke-width:1;stroke-linecap:butt;stroke-linejoin:miter;marker:none;marker-start:none;marker-mid:none;marker-end:none;stroke-miterlimit:4;stroke-dasharray:none;stroke-dashoffset:0;stroke-opacity:1;visibility:visible;display:inline;overflow:visible;enable-background:accumulate"
       d="M 92.443398,2.4525001 C 100.64568,0.22207794 96.48074,9.8814801 97.262003,14.737236 C 95.946172,19.817168 100.45362,31.043127 91.664012,28.262568 C 81.436772,27.765459 71.206538,27.389709 60.965199,27.2892 C 61.317404,18.789418 61.520014,10.285104 61.6978,1.78 C 71.945773,2.0181872 82.192622,2.3851577 92.443398,2.4525001 z "
       id="143" />
    <path
       style="opacity:1;color:#000000;fill:#e8e2b7;fill-opacity:1;fill-rule:evenodd;stroke:#000000;stroke-width:1;stroke-linecap:butt;stroke-linejoin:miter;marker:none;marker-start:none;marker-mid:none;marker-end:none;stroke-miterlimit:4;stroke-dasharray:none;stroke-dashoffset:0;stroke-opacity:1;visibility:visible;display:inline;overflow:visible;enable-background:accumulate"
       d="M 138.6098,3.2932 C 148.74197,3.442339 158.87455,3.6371521 169.0071,3.7016001 C 168.98282,12.325747 168.81523,20.94784 168.70689,29.5711 C 156.78873,29.391204 144.86989,29.24285 132.95309,29.078699 C 133.10498,20.471321 133.16569,11.803392 133.3134,3.2332001 C 135.07933,3.2457346 136.84467,3.2861029 138.6098,3.2932 z "
       id="063" />
    <path
       style="opacity:1;color:#000000;fill:#e8e2b7;fill-opacity:1;fill-rule:evenodd;stroke:#000000;stroke-width:1;stroke-linecap:butt;stroke-linejoin:miter;marker:none;marker-start:none;marker-mid:none;marker-end:none;stroke-miterlimit:4;stroke-dasharray:none;stroke-dashoffset:0;stroke-opacity:1;visibility:visible;display:inline;overflow:visible;enable-background:accumulate"
       d="M 172.9584,3.7616 C 183.54694,3.9068128 194.13688,3.9193196 204.72479,4.1099 C 204.6292,24.892947 204.53362,45.684322 204.2805,66.465797 C 192.31738,66.223982 180.13458,66.400243 168.3105,66.033401 C 168.53744,45.254767 168.80822,24.481362 169.0071,3.7016001 C 170.3242,3.7216001 171.6413,3.7416 172.9584,3.7616 z "
       id="109" />
    <path
       style="opacity:1;color:#000000;fill:#e8e2b7;fill-opacity:1;fill-rule:evenodd;stroke:#000000;stroke-width:1;stroke-linecap:butt;stroke-linejoin:miter;marker:none;marker-start:none;marker-mid:none;marker-end:none;stroke-miterlimit:4;stroke-dasharray:none;stroke-dashoffset:0;stroke-opacity:1;visibility:visible;display:inline;overflow:visible;enable-background:accumulate"
       d="M 5.8994002,0.0625 C 24.49752,0.67874981 43.096497,1.2608288 61.6978,1.78 C 61.520715,10.285145 61.31657,18.789394 60.965199,27.2892 C 43.151778,26.536728 24.916821,26.83913 7.3526001,25.163401 C 5.5195224,25.012077 6.2273418,21.32222 7.3165998,21.572399 C 11.91387,23.402434 9.6856781,18.290923 11.0037,16.275999 C 11.030944,13.703508 12.239226,10.522893 8.7217999,10.0428 C 7.4011009,8.7598953 8.441261,7.0179794 6.0194998,7.0523 C 3.9532107,4.6528765 9.4000571,1.8963426 5.8634,0.5309 L 5.8994002,0.0625 z "
       id="119" />
    <path
       style="opacity:1;color:#000000;fill:#e8e2b7;fill-opacity:1;fill-rule:evenodd;stroke:#000000;stroke-width:1;stroke-linecap:butt;stroke-linejoin:miter;marker:none;marker-start:none;marker-mid:none;marker-end:none;stroke-miterlimit:4;stroke-dasharray:none;stroke-dashoffset:0;stroke-opacity:1;visibility:visible;display:inline;overflow:visible;enable-background:accumulate"
       d="M 300.3364,4.0138001 C 305.66603,4.544199 314.94332,1.0138685 312.0173,9.8982872 C 312.0171,17.989789 312.09429,26.078521 312.17819,34.170898 C 300.28,34.289736 288.38291,34.357289 276.4845,34.399101 C 276.45021,24.331109 276.36314,14.262384 276.34039,4.1939998 C 284.33958,4.1743198 292.33849,4.1382621 300.3364,4.0138001 z "
       id="131" />
    <path
       style="opacity:1;color:#000000;fill:#e8e2b7;fill-opacity:1;fill-rule:evenodd;stroke:#000000;stroke-width:1;stroke-linecap:butt;stroke-linejoin:miter;marker:none;marker-start:none;marker-mid:none;marker-end:none;stroke-miterlimit:4;stroke-dasharray:none;stroke-dashoffset:0;stroke-opacity:1;visibility:visible;display:inline;overflow:visible;enable-background:accumulate"
       d="M 225.2619,4.2179999 C 230.05628,5.7186137 241.2688,0.86626643 240.53563,7.8567399 C 240.48585,15.226806 240.52839,22.597 240.50259,29.9674 C 228.53329,29.87476 216.56333,29.960161 204.5927,29.859301 C 204.62791,21.272713 204.68081,12.694885 204.72479,4.1099 C 211.57036,4.1644184 218.41642,4.1953964 225.2619,4.2179999 z "
       id="189" />
    <path
       style="opacity:1;color:#000000;fill:#e8e2b7;fill-opacity:1;fill-rule:evenodd;stroke:#000000;stroke-width:1;stroke-linecap:butt;stroke-linejoin:miter;marker:none;marker-start:none;marker-mid:none;marker-end:none;stroke-miterlimit:4;stroke-dasharray:none;stroke-dashoffset:0;stroke-opacity:1;visibility:visible;display:inline;overflow:visible;enable-background:accumulate"
       d="M 276.34039,4.1939998 C 276.33868,12.761251 276.45342,21.328038 276.46051,29.8953 C 264.4732,30.06019 252.48816,29.929207 240.50259,29.9674 C 240.96601,21.619647 239.61748,11.47986 241.2352,4.2659998 C 252.93607,4.2779483 264.63884,4.2465933 276.34039,4.1939998 z "
       id="195" />
    <path
       style="opacity:1;color:#000000;fill:#e8e2b7;fill-opacity:1;fill-rule:evenodd;stroke:#000000;stroke-width:1;stroke-linecap:butt;stroke-linejoin:miter;marker:none;marker-start:none;marker-mid:none;marker-end:none;stroke-miterlimit:4;stroke-dasharray:none;stroke-dashoffset:0;stroke-opacity:1;visibility:visible;display:inline;overflow:visible;enable-background:accumulate"
       d="M 8.3734999,25.4757 C 25.889589,26.525529 43.439214,26.711835 60.965199,27.2892 C 60.631589,39.524988 60.542654,51.766929 60.196602,64.0037 C 43.011069,63.258362 25.383513,63.283503 8.4575005,62.310299 C 7.6857115,59.51923 10.597732,60.512066 10.7394,58.755402 C 12.639104,56.337979 8.1891173,54.514471 11.9044,53.134701 C 12.993644,51.367775 10.254689,50.022242 10.6073,48.8111 C 11.23446,46.991673 16.169784,47.37315 15.3513,43.8269 C 14.654156,42.652147 18.872448,38.794011 14.8108,37.5457 C 14.49419,34.597608 15.385978,31.551315 13.5498,29.427 C 11.33201,30.86503 9.8993462,28.416278 7.8330002,29.2348 C 5.0743407,26.750459 9.7875888,27.588295 8.3734999,25.4757 z "
       id="167" />
    <path
       style="opacity:1;color:#000000;fill:#e8e2b7;fill-opacity:1;fill-rule:evenodd;stroke:#000000;stroke-width:1;stroke-linecap:butt;stroke-linejoin:miter;marker:none;marker-start:none;marker-mid:none;marker-end:none;stroke-miterlimit:4;stroke-dasharray:none;stroke-dashoffset:0;stroke-opacity:1;visibility:visible;display:inline;overflow:visible;enable-background:accumulate"
       d="M 82.823402,27.877701 C 87.165571,29.382865 96.784621,25.650341 96.882654,30.999886 C 96.725572,42.259137 96.334073,53.513647 96.178497,64.7724 C 84.185365,64.477089 72.192351,64.19021 60.196602,64.0037 C 60.544054,51.766977 60.63292,39.524982 60.965199,27.2892 C 68.25026,27.506486 75.54758,27.416591 82.823402,27.877701 z "
       id="141" />
    <path
       style="opacity:1;color:#000000;fill:#e4744f;fill-opacity:1;fill-rule:evenodd;stroke:#000000;stroke-width:1;stroke-linecap:butt;stroke-linejoin:miter;marker:none;marker-start:none;marker-mid:none;marker-end:none;stroke-miterlimit:4;stroke-dasharray:none;stroke-dashoffset:0;stroke-opacity:1;visibility:visible;display:inline;overflow:visible;enable-background:accumulate"
       d="M 274.28671,29.8953 C 278.72705,30.004329 275.43202,37.851422 276.53259,41.364899 C 276.59357,49.760954 276.62488,58.153782 276.53259,66.549797 C 264.48249,66.626418 252.43236,66.602305 240.38251,66.525803 C 240.49933,54.340032 240.4677,42.153558 240.50259,29.9674 C 251.76453,29.906804 263.02314,30.090324 274.28671,29.8953 z "
       id="path4222" />
    <path
       style="opacity:1;color:#000000;fill:#e8e2b7;fill-opacity:1;fill-rule:evenodd;stroke:#000000;stroke-width:1;stroke-linecap:butt;stroke-linejoin:miter;marker:none;marker-start:none;marker-mid:none;marker-end:none;stroke-miterlimit:4;stroke-dasharray:none;stroke-dashoffset:0;stroke-opacity:1;visibility:visible;display:inline;overflow:visible;enable-background:accumulate"
       d="M 234.8219,29.943399 C 242.30629,27.763247 240.53656,34.879442 240.48584,40.199816 C 240.46046,48.975189 240.47795,57.75076 240.38251,66.525803 C 228.34475,66.527084 216.31817,66.390279 204.2805,66.465797 C 204.56908,54.360679 204.16232,41.404658 204.929,29.859301 C 214.89314,29.95042 224.85914,29.885799 234.8219,29.943399 z "
       id="081" />
    <path
       style="opacity:1;color:#000000;fill:#e8e2b7;fill-opacity:1;fill-rule:evenodd;stroke:#000000;stroke-width:1;stroke-linecap:butt;stroke-linejoin:miter;marker:none;marker-start:none;marker-mid:none;marker-end:none;stroke-miterlimit:4;stroke-dasharray:none;stroke-dashoffset:0;stroke-opacity:1;visibility:visible;display:inline;overflow:visible;enable-background:accumulate"
       d="M 110.4704,28.6343 C 117.9651,28.753313 125.45877,28.930926 132.95309,29.078699 C 132.51282,41.049916 133.18428,54.336999 131.84821,65.432899 C 119.9564,65.272882 108.06863,65.009024 96.178497,64.7724 C 96.376778,52.649493 96.737819,40.529394 96.947197,28.406099 C 101.45542,28.470606 105.96226,28.570336 110.4704,28.6343 z "
       id="041" />
    <path
       style="opacity:1;color:#000000;fill:#e8e2b7;fill-opacity:1;fill-rule:evenodd;stroke:#000000;stroke-width:1;stroke-linecap:butt;stroke-linejoin:miter;marker:none;marker-start:none;marker-mid:none;marker-end:none;stroke-miterlimit:4;stroke-dasharray:none;stroke-dashoffset:0;stroke-opacity:1;visibility:visible;display:inline;overflow:visible;enable-background:accumulate"
       d="M 157.5376,29.3909 C 163.02001,29.819737 171.27018,27.276543 168.67081,35.600101 C 168.56058,45.771464 168.41389,55.944592 168.3105,66.1175 C 156.32569,65.8484 144.33649,65.783576 132.3526,65.444901 C 132.53935,53.322367 132.8241,41.201888 132.95309,29.078699 C 141.14808,29.174794 149.34067,29.335396 157.5376,29.3909 z "
       id="147" />
    <path
       style="opacity:1;color:#000000;fill:#e8e2b7;fill-opacity:1;fill-rule:evenodd;stroke:#000000;stroke-width:1;stroke-linecap:butt;stroke-linejoin:miter;marker:none;marker-start:none;marker-mid:none;marker-end:none;stroke-miterlimit:4;stroke-dasharray:none;stroke-dashoffset:0;stroke-opacity:1;visibility:visible;display:inline;overflow:visible;enable-background:accumulate"
       d="M 334.86511,33.882702 C 339.29307,33.880763 343.72136,33.819997 348.14819,33.750599 C 348.27928,44.499177 348.4131,55.247858 348.52051,65.997398 C 336.49872,66.177408 324.47673,66.232786 312.4545,66.381699 C 312.42193,55.644441 312.25189,44.908051 312.17819,34.170898 C 319.74055,34.057586 327.30841,34.070047 334.86511,33.882702 z "
       id="037" />
    <path
       style="opacity:1;color:#000000;fill:#e8e2b7;fill-opacity:1;fill-rule:evenodd;stroke:#000000;stroke-width:1;stroke-linecap:butt;stroke-linejoin:miter;marker:none;marker-start:none;marker-mid:none;marker-end:none;stroke-miterlimit:4;stroke-dasharray:none;stroke-dashoffset:0;stroke-opacity:1;visibility:visible;display:inline;overflow:visible;enable-background:accumulate"
       d="M 293.11841,34.303001 C 299.47144,34.267911 305.82536,34.281722 312.17819,34.170898 C 312.08657,44.824583 312.74048,56.098643 312.22629,66.3937 C 300.32753,66.48102 288.43137,66.535078 276.53259,66.549797 C 276.68115,55.832457 276.5267,45.117833 276.4845,34.399101 C 282.02921,34.393212 287.57458,34.377592 293.11841,34.303001 z "
       id="067" />
    <path
       style="opacity:1;color:#000000;fill:#e8e2b7;fill-opacity:1;fill-rule:evenodd;stroke:#000000;stroke-width:1;stroke-linecap:butt;stroke-linejoin:miter;marker:none;marker-start:none;marker-mid:none;marker-end:none;stroke-miterlimit:4;stroke-dasharray:none;stroke-dashoffset:0;stroke-opacity:1;visibility:visible;display:inline;overflow:visible;enable-background:accumulate"
       d="M 348.31631,47.466 C 360.38999,47.386105 372.46668,47.204907 384.53839,46.997601 C 384.70091,62.38156 384.97462,77.759549 385.28311,93.139999 C 373.15222,93.351424 361.03522,93.784408 348.90479,93.920601 C 348.7139,78.432992 348.46075,62.953769 348.31631,47.466 z "
       id="065" />
    <path
       style="opacity:1;color:#000000;fill:#e8e2b7;fill-opacity:1;fill-rule:evenodd;stroke:#000000;stroke-width:1;stroke-linecap:butt;stroke-linejoin:miter;marker:none;marker-start:none;marker-mid:none;marker-end:none;stroke-miterlimit:4;stroke-dasharray:none;stroke-dashoffset:0;stroke-opacity:1;visibility:visible;display:inline;overflow:visible;enable-background:accumulate"
       d="M 387.7211,46.925499 C 397.52591,46.769444 407.32849,46.569239 417.13361,46.4571 C 416.97957,52.82 420.53557,58.669479 420.1481,64.904503 C 424.72373,65.151706 423.15355,71.211229 424.88,72.674896 C 425.89183,75.978101 425.84697,80.088492 427.7023,82.403 C 429.68142,82.050062 430.22309,85.069786 432.45831,85.261398 C 433.98894,89.193609 441.41697,85.903963 439.6283,91.722801 C 421.50993,91.988308 403.40371,92.830174 385.28311,93.139999 C 385.23498,77.899092 384.16472,61.606022 384.91071,46.997601 C 385.84668,46.954879 386.78508,46.976687 387.7211,46.925499 z "
       id="043" />
    <path
       style="opacity:1;color:#000000;fill:#e8e2b7;fill-opacity:1;fill-rule:evenodd;stroke:#000000;stroke-width:1;stroke-linecap:butt;stroke-linejoin:miter;marker:none;marker-start:none;marker-mid:none;marker-end:none;stroke-miterlimit:4;stroke-dasharray:none;stroke-dashoffset:0;stroke-opacity:1;visibility:visible;display:inline;overflow:visible;enable-background:accumulate"
       d="M 87.363197,64.568199 C 92.349494,64.612947 98.734042,63.275558 96.054651,70.66912 C 95.920504,80.939414 95.593589,91.20526 95.409897,101.4749 C 83.340121,101.20106 71.268796,100.9818 59.199799,100.7063 C 59.436071,88.467131 59.986042,76.241794 60.196602,64.0037 C 69.252453,64.191674 78.3098,64.28032 87.363197,64.568199 z "
       id="035" />
    <path
       style="opacity:1;color:#000000;fill:#e8e2b7;fill-opacity:1;fill-rule:evenodd;stroke:#000000;stroke-width:1;stroke-linecap:butt;stroke-linejoin:miter;marker:none;marker-start:none;marker-mid:none;marker-end:none;stroke-miterlimit:4;stroke-dasharray:none;stroke-dashoffset:0;stroke-opacity:1;visibility:visible;display:inline;overflow:visible;enable-background:accumulate"
       d="M 43.694901,63.451302 C 48.594842,64.952319 59.208826,61.123458 60.153884,66.405168 C 59.899815,77.840596 59.431193,89.268114 59.199799,100.7063 C 42.882934,100.34444 26.576957,99.54908 10.259,99.265099 C 10.462743,97.732225 11.628851,98.286824 10.6313,96.851097 C 10.03619,95.329628 9.6971956,92.874002 7.9891,93.824501 C 9.0296282,92.793187 9.483848,91.239767 7.5086999,90.053398 C 8.0052884,87.488498 5.3680057,89.714262 5.8754001,87.699402 C 4.1603685,87.303629 5.6769968,86.710658 3.5695,85.633698 C 3.2334995,84.395278 -0.73347985,84.583345 1.1675,81.598396 C -2.2144398,80.708131 3.4293536,78.277103 0.72310001,77.767197 C 0.3663925,75.093847 5.2469175,75.786304 3.6896,72.735001 C 4.7918673,70.519722 5.3124618,70.385913 6.5118999,69.768501 C 7.6326195,70.915392 7.2364056,67.713409 7.8210001,67.822899 C 6.0808129,65.856703 10.938081,64.158305 8.0852003,62.8988 C 18.986284,62.153685 32.069904,63.56362 43.694901,63.451302 z "
       id="149" />
    <path
       style="opacity:1;color:#000000;fill:#e8e2b7;fill-opacity:1;fill-rule:evenodd;stroke:#000000;stroke-width:1;stroke-linecap:butt;stroke-linejoin:miter;marker:none;marker-start:none;marker-mid:none;marker-end:none;stroke-miterlimit:4;stroke-dasharray:none;stroke-dashoffset:0;stroke-opacity:1;visibility:visible;display:inline;overflow:visible;enable-background:accumulate"
       d="M 106.7473,64.976501 C 115.11119,65.523018 125.04001,64.551768 132.3286,66.045403 C 132.29224,78.13925 131.6936,90.221814 131.71609,102.3156 C 119.61751,101.88311 107.5062,101.95274 95.409897,101.4749 C 95.668241,89.240855 95.968691,77.004488 96.178497,64.7724 C 99.701218,64.844672 103.22393,64.946391 106.7473,64.976501 z "
       id="021" />
    <path
       style="opacity:1;color:#000000;fill:#e8e2b7;fill-opacity:1;fill-rule:evenodd;stroke:#000000;stroke-width:1;stroke-linecap:butt;stroke-linejoin:miter;marker:none;marker-start:none;marker-mid:none;marker-end:none;stroke-miterlimit:4;stroke-dasharray:none;stroke-dashoffset:0;stroke-opacity:1;visibility:visible;display:inline;overflow:visible;enable-background:accumulate"
       d="M 148.7943,65.793198 C 155.30142,65.810459 161.80484,66.028308 168.3105,66.1175 C 168.19739,78.388215 167.97259,90.669395 167.90221,102.9401 C 155.8393,102.75007 143.77859,102.58991 131.71609,102.3156 C 131.71342,90.021933 132.27906,77.738126 132.3526,65.444901 C 137.83272,65.584558 143.31298,65.710669 148.7943,65.793198 z "
       id="151" />
    <path
       style="opacity:1;color:#000000;fill:#e8e2b7;fill-opacity:1;fill-rule:evenodd;stroke:#000000;stroke-width:1;stroke-linecap:butt;stroke-linejoin:miter;marker:none;marker-start:none;marker-mid:none;marker-end:none;stroke-miterlimit:4;stroke-dasharray:none;stroke-dashoffset:0;stroke-opacity:1;visibility:visible;display:inline;overflow:visible;enable-background:accumulate"
       d="M 210.3575,66.441803 C 220.36826,66.449079 230.36999,66.518302 240.38251,66.525803 C 240.18842,78.746934 240.68384,91.821964 239.9742,103.4926 C 228.0011,103.53356 216.02512,103.50552 204.05231,103.3485 C 204.12936,91.053465 204.17455,78.760941 204.2805,66.465797 C 206.30623,66.470421 208.33189,66.463334 210.3575,66.441803 z "
       id="197" />
    <path
       style="opacity:1;color:#000000;fill:#e8e2b7;fill-opacity:1;fill-rule:evenodd;stroke:#000000;stroke-width:1;stroke-linecap:butt;stroke-linejoin:miter;marker:none;marker-start:none;marker-mid:none;marker-end:none;stroke-miterlimit:4;stroke-dasharray:none;stroke-dashoffset:0;stroke-opacity:1;visibility:visible;display:inline;overflow:visible;enable-background:accumulate"
       d="M 240.9229,66.525803 C 252.7926,66.607125 264.66263,66.622536 276.53259,66.549797 C 276.54856,78.892083 276.53964,91.234523 276.53259,103.5766 C 264.44648,103.66166 252.36056,103.51785 240.2744,103.5286 C 240.61174,91.333207 239.69906,77.794578 240.9229,66.525803 z "
       id="069" />
    <path
       style="opacity:1;color:#000000;fill:#e8e2b7;fill-opacity:1;fill-rule:evenodd;stroke:#000000;stroke-width:1;stroke-linecap:butt;stroke-linejoin:miter;marker:none;marker-start:none;marker-mid:none;marker-end:none;stroke-miterlimit:4;stroke-dasharray:none;stroke-dashoffset:0;stroke-opacity:1;visibility:visible;display:inline;overflow:visible;enable-background:accumulate"
       d="M 184.7762,66.273598 C 191.27793,66.28232 197.77899,66.406514 204.2805,66.465797 C 204.1936,75.713796 204.16792,84.962132 204.1003,94.2089 C 192.06499,94.196802 180.03232,93.999879 167.99831,93.848602 C 168.06128,84.610596 168.21906,75.331133 168.32249,66.1175 C 173.8067,66.214383 179.29142,66.233953 184.7762,66.273598 z "
       id="091" />
    <path
       style="opacity:1;color:#000000;fill:#e8e2b7;fill-opacity:1;fill-rule:evenodd;stroke:#000000;stroke-width:1;stroke-linecap:butt;stroke-linejoin:miter;marker:none;marker-start:none;marker-mid:none;marker-end:none;stroke-miterlimit:4;stroke-dasharray:none;stroke-dashoffset:0;stroke-opacity:1;visibility:visible;display:inline;overflow:visible;enable-background:accumulate"
       d="M 276.53259,66.549797 C 288.50732,66.527273 300.48032,66.493933 312.4545,66.381699 C 312.5011,78.724747 312.62768,91.134009 312.81479,103.4325 C 300.93291,103.13108 287.37352,104.39446 276.54459,102.9641 C 276.52318,90.825947 276.55802,78.687973 276.53259,66.549797 z "
       id="023" />
    <path
       style="opacity:1;color:#000000;fill:#e8e2b7;fill-opacity:1;fill-rule:evenodd;stroke:#000000;stroke-width:1;stroke-linecap:butt;stroke-linejoin:miter;marker:none;marker-start:none;marker-mid:none;marker-end:none;stroke-miterlimit:4;stroke-dasharray:none;stroke-dashoffset:0;stroke-opacity:1;visibility:visible;display:inline;overflow:visible;enable-background:accumulate"
       d="M 325.2691,66.249603 C 333.01893,66.155431 340.77051,66.137807 348.52051,65.997398 C 348.6752,75.302218 348.7804,84.611825 348.90479,93.920601 C 336.82724,94.070317 324.74746,94.176657 312.67059,94.304901 C 312.58372,84.997787 312.49146,75.689833 312.4545,66.381699 C 316.72573,66.346604 320.99748,66.287385 325.2691,66.249603 z "
       id="017" />
    <path
       style="opacity:1;color:#000000;fill:#e8e2b7;fill-opacity:1;fill-rule:evenodd;stroke:#000000;stroke-width:1;stroke-linecap:butt;stroke-linejoin:miter;marker:none;marker-start:none;marker-mid:none;marker-end:none;stroke-miterlimit:4;stroke-dasharray:none;stroke-dashoffset:0;stroke-opacity:1;visibility:visible;display:inline;overflow:visible;enable-background:accumulate"
       d="M 459.69699,105.6664 C 455.37873,111.3666 466.50966,110.5261 466.5787,115.1903 C 470.10111,116.59365 476.48991,120.00833 468.33312,118.73767 C 460.45261,117.56183 455.84695,119.48254 458.44791,128.24519 C 446.52842,128.59928 434.60219,128.75412 422.68219,129.08591 C 422.78598,116.64432 421.00328,104.0296 421.9736,92.155098 C 427.73861,91.689036 434.47976,92.294452 439.6283,91.362503 C 438.54425,85.796291 446.74433,91.480865 450.11301,91.086304 C 455.88506,90.840643 455.28861,97.417048 458.14771,100.4781 C 459.11587,101.85557 460.37303,103.938 459.69699,105.6664 z "
       id="061" />
    <path
       style="opacity:1;color:#000000;fill:#e8e2b7;fill-opacity:1;fill-rule:evenodd;stroke:#000000;stroke-width:1;stroke-linecap:butt;stroke-linejoin:miter;marker:none;marker-start:none;marker-mid:none;marker-end:none;stroke-miterlimit:4;stroke-dasharray:none;stroke-dashoffset:0;stroke-opacity:1;visibility:visible;display:inline;overflow:visible;enable-background:accumulate"
       d="M 416.84531,92.2752 C 425.00859,89.974768 420.35488,100.87853 421.7934,105.6183 C 422.26652,113.27954 422.50842,121.13129 422.68219,129.08591 C 410.69927,129.27788 398.71866,129.60582 386.7363,129.79449 C 386.12081,123.00206 387.32512,114.51189 385.45564,109.10169 C 386.87862,104.17284 381.60581,92.491869 388.88475,93.049503 C 398.20725,92.954982 407.52443,92.504891 416.84531,92.2752 z "
       id="055" />
    <path
       style="opacity:1;color:#000000;fill:#e8e2b7;fill-opacity:1;fill-rule:evenodd;stroke:#000000;stroke-width:1;stroke-linecap:butt;stroke-linejoin:miter;marker:none;marker-start:none;marker-mid:none;marker-end:none;stroke-miterlimit:4;stroke-dasharray:none;stroke-dashoffset:0;stroke-opacity:1;visibility:visible;display:inline;overflow:visible;enable-background:accumulate"
       d="M 171.06081,93.884598 C 182.07372,94.043326 193.086,94.188889 204.1003,94.2089 C 205.12657,99.652495 202.08761,109.09031 205.25319,112.4136 C 209.61035,114.3055 205.63284,124.41101 206.94983,129.34968 C 206.07027,133.3086 209.61215,141.67379 203.1996,140.05099 C 192.46708,140.01948 181.71606,139.88754 170.9888,139.8708 C 171.03958,130.5869 171.29835,121.27226 171.265,112.0077 C 164.88636,113.29718 169.02799,104.40321 167.90221,100.53825 C 168.54124,97.712744 165.96621,92.166946 171.06081,93.884598 z "
       id="187" />
    <path
       style="opacity:1;color:#000000;fill:#e8e2b7;fill-opacity:1;fill-rule:evenodd;stroke:#000000;stroke-width:1;stroke-linecap:butt;stroke-linejoin:miter;marker:none;marker-start:none;marker-mid:none;marker-end:none;stroke-miterlimit:4;stroke-dasharray:none;stroke-dashoffset:0;stroke-opacity:1;visibility:visible;display:inline;overflow:visible;enable-background:accumulate"
       d="M 362.52411,93.680397 C 370.10479,93.282333 377.70044,93.50252 385.28311,93.139999 C 385.62078,99.572622 384.48395,107.87088 386.388,112.9084 C 386.42533,118.53908 386.59374,124.16604 386.7363,129.79449 C 374.79091,129.77314 362.26416,130.28709 350.71829,130.04671 C 350.13506,124.48515 351.45181,116.9599 350.05771,112.2719 C 347.84014,110.62615 349.66769,104.73419 348.96481,101.583 C 348.73917,97.312285 347.787,92.372846 353.44461,93.848602 C 356.46895,93.744034 359.5062,93.903431 362.52411,93.680397 z "
       id="019" />
    <path
       style="opacity:1;color:#000000;fill:#e8e2b7;fill-opacity:1;fill-rule:evenodd;stroke:#000000;stroke-width:1;stroke-linecap:butt;stroke-linejoin:miter;marker:none;marker-start:none;marker-mid:none;marker-end:none;stroke-miterlimit:4;stroke-dasharray:none;stroke-dashoffset:0;stroke-opacity:1;visibility:visible;display:inline;overflow:visible;enable-background:accumulate"
       d="M 319.07199,94.232903 C 328.86906,94.414772 339.81402,93.453177 348.90479,94.316902 C 348.97685,100.29711 348.95009,106.348 349.20499,112.2839 C 352.83842,112.463 349.36117,119.86816 350.63419,122.5044 C 352.70023,129.76426 349.02915,131.38455 342.62374,130.36069 C 333.2882,130.48527 323.95217,130.59126 314.6163,130.7072 C 314.55429,124.64585 314.66028,118.58507 314.4841,112.5241 C 310.84831,109.99813 313.93649,100.87552 312.67059,95.782204 C 311.74346,92.954745 317.36123,94.795117 319.07199,94.232903 z "
       id="013" />
    <path
       style="opacity:1;color:#000000;fill:#e8e2b7;fill-opacity:1;fill-rule:evenodd;stroke:#000000;stroke-width:1;stroke-linecap:butt;stroke-linejoin:miter;marker:none;marker-start:none;marker-mid:none;marker-end:none;stroke-miterlimit:4;stroke-dasharray:none;stroke-dashoffset:0;stroke-opacity:1;visibility:visible;display:inline;overflow:visible;enable-background:accumulate"
       d="M 10.259,99.265099 C 29.607105,99.615492 48.940124,100.61783 68.291298,100.8984 C 67.694309,106.57701 67.303441,111.71615 73.575699,110.8547 C 72.892078,119.65522 73.771277,129.97755 72.326698,137.9252 C 54.888243,137.6132 37.341442,136.77439 19.9991,136.0757 C 25.042424,135.37238 21.170301,130.12117 19.3386,127.9569 C 20.239299,123.9306 13.241406,122.67443 16.5042,118.409 C 14.920171,114.80173 22.737936,109.52784 16.5763,107.1796 C 13.099269,107.6815 9.6656728,105.10535 11.6282,102.9641 C 12.036408,100.3106 12.306469,100.30649 10.259,99.265099 z "
       id="193" />
    <path
       style="opacity:1;color:#000000;fill:#e8e2b7;fill-opacity:1;fill-rule:evenodd;stroke:#000000;stroke-width:1;stroke-linecap:butt;stroke-linejoin:miter;marker:none;marker-start:none;marker-mid:none;marker-end:none;stroke-miterlimit:4;stroke-dasharray:none;stroke-dashoffset:0;stroke-opacity:1;visibility:visible;display:inline;overflow:visible;enable-background:accumulate"
       d="M 93.896599,101.4389 C 97.853411,102.5868 91.818242,113.46626 99.841599,110.7346 C 100.58959,119.26075 99.576051,129.39706 99.613403,138.5858 C 90.680152,138.44115 81.749633,138.16773 72.819099,137.9492 C 73.094684,128.6898 73.290925,119.43008 73.5877,110.1701 C 66.401444,113.37195 67.196024,103.00393 69.491885,100.92684 C 77.626661,101.10268 85.761859,101.26107 93.896599,101.4389 z "
       id="093" />
    <path
       style="opacity:1;color:#000000;fill:#e8e2b7;fill-opacity:1;fill-rule:evenodd;stroke:#000000;stroke-width:1;stroke-linecap:butt;stroke-linejoin:miter;marker:none;marker-start:none;marker-mid:none;marker-end:none;stroke-miterlimit:4;stroke-dasharray:none;stroke-dashoffset:0;stroke-opacity:1;visibility:visible;display:inline;overflow:visible;enable-background:accumulate"
       d="M 95.409897,101.4749 C 107.50617,101.9539 119.61754,101.88193 131.71609,102.3156 C 128.66558,110.93068 135.60963,109.90248 135.94723,115.27373 C 135.77538,123.29697 135.57175,131.32694 135.4512,139.3544 C 123.63072,138.87654 110.72996,139.36629 99.625397,138.1774 C 99.576227,129.12687 100.60405,119.117 99.841599,110.7346 C 92.855513,112.3294 95.905822,105.99553 95.409897,101.4749 z "
       id="161" />
    <path
       style="opacity:1;color:#000000;fill:#e8e2b7;fill-opacity:1;fill-rule:evenodd;stroke:#000000;stroke-width:1;stroke-linecap:butt;stroke-linejoin:miter;marker:none;marker-start:none;marker-mid:none;marker-end:none;stroke-miterlimit:4;stroke-dasharray:none;stroke-dashoffset:0;stroke-opacity:1;visibility:visible;display:inline;overflow:visible;enable-background:accumulate"
       d="M 136.2439,102.3997 C 146.79682,102.65243 157.34854,102.75868 167.90221,102.9401 C 167.24988,108.08434 167.46679,112.38015 171.27144,113.20861 C 171.27214,122.09717 171.0398,130.98298 170.9888,139.8708 C 159.14301,139.70326 147.29662,139.57297 135.4512,139.3544 C 135.58348,130.05673 135.86483,120.76209 136.00369,111.4672 C 129.33502,114.81305 129.65054,98.427401 136.2439,102.3997 z "
       id="025" />
    <path
       style="opacity:1;color:#000000;fill:#e8e2b7;fill-opacity:1;fill-rule:evenodd;stroke:#000000;stroke-width:1;stroke-linecap:butt;stroke-linejoin:miter;marker:none;marker-start:none;marker-mid:none;marker-end:none;stroke-miterlimit:4;stroke-dasharray:none;stroke-dashoffset:0;stroke-opacity:1;visibility:visible;display:inline;overflow:visible;enable-background:accumulate"
       d="M 205.60159,103.3725 C 217.1577,103.52321 228.72188,103.48893 240.2744,103.5286 C 238.21135,111.5328 243.98549,111.70986 243.06588,118.51693 C 243.05639,125.76712 243.04238,133.01701 243.0367,140.2672 C 230.99024,140.28992 218.94423,140.19193 206.89861,140.063 C 206.95049,130.85192 206.94848,121.6396 207.05479,112.428 C 202.01869,115.31997 203.36364,102.58409 205.60159,103.3725 z "
       id="079" />
    <path
       style="opacity:1;color:#000000;fill:#e8e2b7;fill-opacity:1;fill-rule:evenodd;stroke:#000000;stroke-width:1;stroke-linecap:butt;stroke-linejoin:miter;marker:none;marker-start:none;marker-mid:none;marker-end:none;stroke-miterlimit:4;stroke-dasharray:none;stroke-dashoffset:0;stroke-opacity:1;visibility:visible;display:inline;overflow:visible;enable-background:accumulate"
       d="M 258.6857,103.5887 C 264.63473,103.59696 270.58365,103.62016 276.53259,103.5766 C 275.18035,111.19955 279.43442,113.05065 278.46619,120.3066 C 278.54794,126.93973 278.55479,133.57374 278.62231,140.20711 C 266.76129,140.36923 254.89894,140.27453 243.0367,140.2672 C 243.05832,131.07151 243.03489,121.87578 243.0968,112.6802 C 237.75106,113.14518 238.92003,99.140682 246.36349,103.5406 C 250.47073,103.54585 254.57849,103.53942 258.6857,103.5887 z "
       id="083" />
    <path
       style="opacity:1;color:#000000;fill:#e8e2b7;fill-opacity:1;fill-rule:evenodd;stroke:#000000;stroke-width:1;stroke-linecap:butt;stroke-linejoin:miter;marker:none;marker-start:none;marker-mid:none;marker-end:none;stroke-miterlimit:4;stroke-dasharray:none;stroke-dashoffset:0;stroke-opacity:1;visibility:visible;display:inline;overflow:visible;enable-background:accumulate"
       d="M 281.7449,103.5526 C 292.11007,103.61584 302.47542,103.47912 312.83881,103.4325 C 311.76713,110.35864 315.22475,112.66713 314.59219,119.2016 C 313.71211,123.65469 317.4576,132.69491 310.13651,130.7673 C 305.84009,132.01111 296.13563,127.97593 296.60129,133.91389 C 299.4649,141.73707 292.79838,140.18148 287.59381,140.08701 C 279.6668,142.20166 276.91954,139.0129 278.55284,131.35591 C 278.53063,125.11041 278.44547,118.86565 278.41809,112.6202 C 275.12855,112.13526 274.79745,100.00473 281.7449,103.5526 z "
       id="075" />
    <path
       style="opacity:1;color:#000000;fill:#e8e2b7;fill-opacity:1;fill-rule:evenodd;stroke:#000000;stroke-width:1;stroke-linecap:butt;stroke-linejoin:miter;marker:none;marker-start:none;marker-mid:none;marker-end:none;stroke-miterlimit:4;stroke-dasharray:none;stroke-dashoffset:0;stroke-opacity:1;visibility:visible;display:inline;overflow:visible;enable-background:accumulate"
       d="M 459.6369,118.9855 C 465.67593,119.35987 473.70668,116.23956 476.40289,123.261 C 479.19023,125.57827 474.74263,130.15304 478.24039,132.6048 C 481.42618,138.79019 490.19675,138.07029 494.3338,142.9574 C 494.29939,145.98729 499.11969,144.07153 497.9368,147.8094 C 496.66078,152.03288 500.6346,156.45281 493.90224,154.77042 C 476.34904,155.21373 458.80535,156.06121 441.2496,156.2885 C 441.00114,147.08482 440.76044,137.88243 440.55301,128.67751 C 446.52318,128.60557 452.4806,128.36061 458.44791,128.24519 C 459.31626,125.89461 456.33924,118.86456 459.6369,118.9855 z "
       id="097" />
    <path
       style="opacity:1;color:#000000;fill:#e8e2b7;fill-opacity:1;fill-rule:evenodd;stroke:#000000;stroke-width:1;stroke-linecap:butt;stroke-linejoin:miter;marker:none;marker-start:none;marker-mid:none;marker-end:none;stroke-miterlimit:4;stroke-dasharray:none;stroke-dashoffset:0;stroke-opacity:1;visibility:visible;display:inline;overflow:visible;enable-background:accumulate"
       d="M 364.19351,129.9986 C 372.03351,127.64171 367.53012,138.22955 368.7453,142.7773 C 368.69642,153.84311 369.07931,164.90136 369.4299,175.96091 C 357.37783,176.16339 345.32993,176.1371 333.27979,176.35719 C 333.51489,161.22805 332.08303,144.80461 333.18369,130.479 C 343.5198,130.31625 353.86681,130.3152 364.19351,129.9986 z "
       id="011" />
    <path
       style="opacity:1;color:#000000;fill:#e8e2b7;fill-opacity:1;fill-rule:evenodd;stroke:#000000;stroke-width:1;stroke-linecap:butt;stroke-linejoin:miter;marker:none;marker-start:none;marker-mid:none;marker-end:none;stroke-miterlimit:4;stroke-dasharray:none;stroke-dashoffset:0;stroke-opacity:1;visibility:visible;display:inline;overflow:visible;enable-background:accumulate"
       d="M 371.61569,129.87849 C 382.65686,130.00467 393.69976,129.65619 404.7392,129.4221 C 404.99569,144.77149 405.23466,160.11951 405.49591,175.46851 C 393.4764,175.85759 381.44988,175.63263 369.4299,175.96091 C 368.81705,160.58566 368.68978,145.20549 368.70929,129.8185 C 369.67809,129.8385 370.64689,129.8585 371.61569,129.87849 z "
       id="113" />
    <path
       style="opacity:1;color:#000000;fill:#e8e2b7;fill-opacity:1;fill-rule:evenodd;stroke:#000000;stroke-width:1;stroke-linecap:butt;stroke-linejoin:miter;marker:none;marker-start:none;marker-mid:none;marker-end:none;stroke-miterlimit:4;stroke-dasharray:none;stroke-dashoffset:0;stroke-opacity:1;visibility:visible;display:inline;overflow:visible;enable-background:accumulate"
       d="M 331.20209,130.50301 C 334.53752,132.1279 331.81305,139.92087 332.83539,143.8942 C 332.94096,154.71717 333.25572,165.53432 333.27979,176.35719 C 321.19449,176.54858 309.10824,176.6743 297.02161,176.72951 C 296.95261,161.45219 296.72656,146.17622 296.56519,130.8994 C 308.11092,130.77796 319.65667,130.66455 331.20209,130.50301 z "
       id="171" />
    <path
       style="opacity:1;color:#000000;fill:#e8e2b7;fill-opacity:1;fill-rule:evenodd;stroke:#000000;stroke-width:1;stroke-linecap:butt;stroke-linejoin:miter;marker:none;marker-start:none;marker-mid:none;marker-end:none;stroke-miterlimit:4;stroke-dasharray:none;stroke-dashoffset:0;stroke-opacity:1;visibility:visible;display:inline;overflow:visible;enable-background:accumulate"
       d="M 414.5394,129.23 C 423.21537,129.09545 431.88081,128.82361 440.55301,128.67751 C 440.83419,140.96085 441.16699,153.24176 441.47781,165.5242 C 429.42368,165.74186 417.36752,166.01691 405.3157,166.25681 C 405.1961,153.97757 404.90277,141.70128 404.7392,129.4221 C 408.00552,129.34814 411.27434,129.33649 414.5394,129.23 z "
       id="105" />
    <path
       style="opacity:1;color:#000000;fill:#e8e2b7;fill-opacity:1;fill-rule:evenodd;stroke:#000000;stroke-width:1;stroke-linecap:butt;stroke-linejoin:miter;marker:none;marker-start:none;marker-mid:none;marker-end:none;stroke-miterlimit:4;stroke-dasharray:none;stroke-dashoffset:0;stroke-opacity:1;visibility:visible;display:inline;overflow:visible;enable-background:accumulate"
       d="M 21.007999,136.14771 C 38.279216,136.79016 55.537025,137.62966 72.819099,137.9492 C 72.502514,150.19116 72.107954,162.43175 71.810204,174.6758 C 59.748017,173.97122 46.983463,174.81697 35.359901,172.91029 C 34.578738,170.45625 33.21489,168.61168 36.092499,167.36169 C 34.176422,165.22453 39.260383,161.25718 34.375099,161.3327 C 30.786959,162.96902 33.257634,159.22788 31.841,158.24609 C 30.856752,158.54355 27.301823,160.9294 28.430201,157.75369 C 32.467315,154.43109 26.218692,155.8842 25.7159,153.4782 C 24.739261,150.52688 28.861956,145.7478 23.6262,145.20329 C 21.776872,142.83991 19.838666,140.91792 20.383499,137.7211 C 19.471901,137.25815 19.48963,135.30054 21.007999,136.14771 z "
       id="133" />
    <path
       style="opacity:1;color:#000000;fill:#e8e2b7;fill-opacity:1;fill-rule:evenodd;stroke:#000000;stroke-width:1;stroke-linecap:butt;stroke-linejoin:miter;marker:none;marker-start:none;marker-mid:none;marker-end:none;stroke-miterlimit:4;stroke-dasharray:none;stroke-dashoffset:0;stroke-opacity:1;visibility:visible;display:inline;overflow:visible;enable-background:accumulate"
       d="M 74.380402,137.9733 C 88.762256,138.42771 103.14826,138.62263 117.5323,138.99409 C 117.27219,151.19706 116.9378,163.39723 116.7276,175.6006 C 101.75135,175.19879 86.790099,175.0285 71.810204,174.6758 C 72.111471,162.43187 72.498976,150.19098 72.819099,137.9492 C 73.335818,138.05022 73.861873,137.91757 74.380402,137.9733 z "
       id="047" />
    <path
       style="opacity:1;color:#000000;fill:#e8e2b7;fill-opacity:1;fill-rule:evenodd;stroke:#000000;stroke-width:1;stroke-linecap:butt;stroke-linejoin:miter;marker:none;marker-start:none;marker-mid:none;marker-end:none;stroke-miterlimit:4;stroke-dasharray:none;stroke-dashoffset:0;stroke-opacity:1;visibility:visible;display:inline;overflow:visible;enable-background:accumulate"
       d="M 117.5323,138.99409 C 129.40574,139.23606 141.27878,139.48528 153.1539,139.6306 C 153.02338,151.82778 152.7064,164.02137 152.6855,176.2131 C 140.69932,176.10652 128.71425,175.83155 116.7276,175.6006 C 116.93926,163.39722 117.27132,151.19707 117.5323,138.99409 z "
       id="027" />
    <path
       style="opacity:1;color:#000000;fill:#e8e2b7;fill-opacity:1;fill-rule:evenodd;stroke:#000000;stroke-width:1;stroke-linecap:butt;stroke-linejoin:miter;marker:none;marker-start:none;marker-mid:none;marker-end:none;stroke-miterlimit:4;stroke-dasharray:none;stroke-dashoffset:0;stroke-opacity:1;visibility:visible;display:inline;overflow:visible;enable-background:accumulate"
       d="M 295.97681,140.02699 C 297.62661,147.6272 296.46012,158.01591 296.9736,166.7852 C 297.93395,173.76635 297.40959,179.30382 288.75917,176.77318 C 279.48332,176.85049 270.20744,176.78453 260.93161,176.8376 C 260.93672,164.66039 260.88832,152.48127 260.88361,140.30321 C 272.58241,140.3506 284.2783,140.07885 295.97681,140.02699 z "
       id="127" />
    <path
       style="opacity:1;color:#000000;fill:#e8e2b7;fill-opacity:1;fill-rule:evenodd;stroke:#000000;stroke-width:1;stroke-linecap:butt;stroke-linejoin:miter;marker:none;marker-start:none;marker-mid:none;marker-end:none;stroke-miterlimit:4;stroke-dasharray:none;stroke-dashoffset:0;stroke-opacity:1;visibility:visible;display:inline;overflow:visible;enable-background:accumulate"
       d="M 206.89861,140.063 C 212.89558,140.12419 218.89246,140.18725 224.8896,140.2191 C 224.50992,152.24157 225.30983,165.28671 224.4332,176.72951 C 212.63246,176.39637 199.83746,177.19278 188.6915,176.153 C 188.77683,164.08702 188.75384,152.01947 188.9557,139.9549 C 194.93776,140.00899 200.91761,140.08548 206.89861,140.063 z "
       id="015" />
    <path
       style="opacity:1;color:#000000;fill:#e8e2b7;fill-opacity:1;fill-rule:evenodd;stroke:#000000;stroke-width:1;stroke-linecap:butt;stroke-linejoin:miter;marker:none;marker-start:none;marker-mid:none;marker-end:none;stroke-miterlimit:4;stroke-dasharray:none;stroke-dashoffset:0;stroke-opacity:1;visibility:visible;display:inline;overflow:visible;enable-background:accumulate"
       d="M 181.44949,139.9189 C 189.42427,137.50956 189.48078,142.74619 188.84497,148.83019 C 188.80621,158.06988 188.70645,167.30959 188.6915,176.54939 C 176.68823,176.52179 164.68833,176.25243 152.6855,176.2131 C 152.7103,164.02094 153.01743,151.82792 153.1539,139.6306 C 162.5903,139.75955 172.01547,139.91209 181.44949,139.9189 z "
       id="073" />
    <path
       style="opacity:1;color:#000000;fill:#e8e2b7;fill-opacity:1;fill-rule:evenodd;stroke:#000000;stroke-width:1;stroke-linecap:butt;stroke-linejoin:miter;marker:none;marker-start:none;marker-mid:none;marker-end:none;stroke-miterlimit:4;stroke-dasharray:none;stroke-dashoffset:0;stroke-opacity:1;visibility:visible;display:inline;overflow:visible;enable-background:accumulate"
       d="M 250.7952,140.2672 C 255.74811,140.58257 263.43801,138.07915 260.89406,145.86356 C 260.88284,156.1882 260.9464,166.51379 260.93161,176.8376 C 248.88682,176.76509 236.83935,176.83231 224.7935,176.72951 C 224.82312,164.55898 224.77678,152.38947 224.8896,140.2191 C 233.52465,140.285 242.16,140.26918 250.7952,140.2672 z "
       id="169" />
    <path
       style="opacity:1;color:#000000;fill:#e8e2b7;fill-opacity:1;fill-rule:evenodd;stroke:#000000;stroke-width:1;stroke-linecap:butt;stroke-linejoin:miter;marker:none;marker-start:none;marker-mid:none;marker-end:none;stroke-miterlimit:4;stroke-dasharray:none;stroke-dashoffset:0;stroke-opacity:1;visibility:visible;display:inline;overflow:visible;enable-background:accumulate"
       d="M 482.50391,155.08749 C 487.87331,155.42458 494.42842,153.80588 499.1138,155.27969 C 501.79385,158.66542 496.32096,162.29447 499.3179,165.3681 C 499.15856,170.02827 496.76986,174.55526 496.952,178.9514 C 492.92506,180.12517 488.42764,184.68312 486.75549,186.6978 C 484.66716,184.78763 484.44111,188.95565 482.17969,186.5056 C 480.76059,187.80061 480.11541,186.25281 478.79291,186.6378 C 479.38332,185.40845 477.07984,182.7101 475.6102,184.3078 C 475.34383,181.29013 472.14721,185.07127 470.6741,182.8786 C 469.47881,183.29255 466.93602,185.26425 465.3537,183.70731 C 464.1422,185.656 462.82736,183.22742 461.17419,185.1125 C 459.29423,182.64656 458.00683,187.32212 456.4783,187.3584 C 454.65223,187.04163 453.35044,186.39041 451.8064,184.1877 C 448.64983,182.12246 440.38804,186.92831 441.91019,180.5127 C 441.63204,172.43809 441.42907,164.36833 441.2496,156.2885 C 455.00382,156.07829 468.75635,155.60232 482.50391,155.08749 z "
       id="045" />
    <path
       style="opacity:1;color:#000000;fill:#e8e2b7;fill-opacity:1;fill-rule:evenodd;stroke:#000000;stroke-width:1;stroke-linecap:butt;stroke-linejoin:miter;marker:none;marker-start:none;marker-mid:none;marker-end:none;stroke-miterlimit:4;stroke-dasharray:none;stroke-dashoffset:0;stroke-opacity:1;visibility:visible;display:inline;overflow:visible;enable-background:accumulate"
       d="M 414.3472,166.0526 C 423.24995,166.26802 433.37209,165.00587 441.48981,166.02859 C 441.84075,178.1302 442.12956,190.24639 442.33051,202.3588 C 430.33031,202.45625 417.59205,203.32152 406.04831,202.77921 C 405.82092,190.60456 405.55725,178.43239 405.3157,166.25681 C 408.32603,166.20662 411.3359,166.12274 414.3472,166.0526 z "
       id="031" />
    <path
       style="opacity:1;color:#000000;fill:#e8e2b7;fill-opacity:1;fill-rule:evenodd;stroke:#000000;stroke-width:1;stroke-linecap:butt;stroke-linejoin:miter;marker:none;marker-start:none;marker-mid:none;marker-end:none;stroke-miterlimit:4;stroke-dasharray:none;stroke-dashoffset:0;stroke-opacity:1;visibility:visible;display:inline;overflow:visible;enable-background:accumulate"
       d="M 36.5369,173.4388 C 51.2551,174.38334 66.015031,174.44382 80.757698,174.856 C 80.842196,183.90086 79.723212,193.97948 80.421402,202.43089 C 87.271802,200.59021 83.919183,208.55602 84.480797,212.6994 C 71.560231,212.39251 58.612063,212.02466 45.712502,211.64259 C 47.632003,208.21741 42.291046,205.38553 42.845873,210.58103 C 41.570548,213.31715 37.886369,208.33301 38.098202,206.7785 C 41.039906,203.75495 37.222491,202.81647 36.548901,200.11301 C 39.580042,197.33047 37.654665,195.00148 36.524899,192.1864 C 37.61721,190.4958 42.944935,191.28566 38.770802,188.45129 C 36.315335,186.21362 41.209571,184.5483 41.064701,181.74969 C 41.963159,178.79333 35.955918,179.2522 38.038101,175.76871 C 38.370353,174.46904 34.303875,173.40684 36.5369,173.4388 z "
       id="085" />
    <path
       style="opacity:1;color:#000000;fill:#e8e2b7;fill-opacity:1;fill-rule:evenodd;stroke:#000000;stroke-width:1;stroke-linecap:butt;stroke-linejoin:miter;marker:none;marker-start:none;marker-mid:none;marker-end:none;stroke-miterlimit:4;stroke-dasharray:none;stroke-dashoffset:0;stroke-opacity:1;visibility:visible;display:inline;overflow:visible;enable-background:accumulate"
       d="M 98.808701,175.1682 C 104.43242,176.06979 113.13016,173.98657 116.70325,176.80128 C 116.4857,185.59543 116.37936,194.39165 116.2472,203.1875 C 122.75737,200.80969 122.50206,217.82702 114.6986,213.40486 C 104.62587,213.17028 94.553734,212.92553 84.480797,212.6994 C 83.937865,208.54064 87.278731,200.57953 80.421402,202.43089 C 79.728309,193.98223 80.829486,183.87748 80.769699,174.856 C 86.780822,175.02246 92.805952,175.13162 98.808701,175.1682 z "
       id="165" />
    <path
       style="opacity:1;color:#000000;fill:#e8e2b7;fill-opacity:1;fill-rule:evenodd;stroke:#000000;stroke-width:1;stroke-linecap:butt;stroke-linejoin:miter;marker:none;marker-start:none;marker-mid:none;marker-end:none;stroke-miterlimit:4;stroke-dasharray:none;stroke-dashoffset:0;stroke-opacity:1;visibility:visible;display:inline;overflow:visible;enable-background:accumulate"
       d="M 208.8322,176.6454 C 214.67913,175.26221 216.90251,177.46609 215.714,183.1068 C 215.69646,190.23015 215.72422,197.35049 215.66589,204.4726 C 219.41975,204.3258 216.65114,210.64144 217.4794,213.37199 C 206.86283,216.06421 193.86121,214.07681 182.3502,214.4769 C 183.17724,208.64797 182.24693,204.48971 179.4678,202.15469 C 179.52695,193.60151 179.53545,185.04378 179.672,176.4893 C 189.39333,176.51118 199.11148,176.71123 208.8322,176.6454 z "
       id="049" />
    <path
       style="opacity:1;color:#000000;fill:#e8e2b7;fill-opacity:1;fill-rule:evenodd;stroke:#000000;stroke-width:1;stroke-linecap:butt;stroke-linejoin:miter;marker:none;marker-start:none;marker-mid:none;marker-end:none;stroke-miterlimit:4;stroke-dasharray:none;stroke-dashoffset:0;stroke-opacity:1;visibility:visible;display:inline;overflow:visible;enable-background:accumulate"
       d="M 219.1969,176.6935 C 230.11025,176.78543 241.02258,176.80322 251.9361,176.80161 C 252.15039,185.92327 251.48415,195.89273 252.2123,204.4966 C 254.42845,206.1527 253.79285,213.61643 252.6927,216.90289 C 251.17649,214.68325 251.15985,217.10568 249.22189,215.73801 C 246.51014,218.55255 248.89745,213.39228 246.98801,215.8461 C 246.10401,215.00957 246.71426,213.76792 244.6701,214.3448 C 235.75751,213.49002 225.64303,214.35461 217.4794,213.37199 C 216.83775,210.3678 219.17254,204.38567 215.66589,204.1964 C 216.01037,195.16259 215.13082,184.92939 216.1463,176.6935 C 217.16317,176.6935 218.18003,176.6935 219.1969,176.6935 z "
       id="153" />
    <path
       style="opacity:1;color:#000000;fill:#e8e2b7;fill-opacity:1;fill-rule:evenodd;stroke:#000000;stroke-width:1;stroke-linecap:butt;stroke-linejoin:miter;marker:none;marker-start:none;marker-mid:none;marker-end:none;stroke-miterlimit:4;stroke-dasharray:none;stroke-dashoffset:0;stroke-opacity:1;visibility:visible;display:inline;overflow:visible;enable-background:accumulate"
       d="M 116.7276,175.6006 C 125.71401,175.83538 134.70518,175.89416 143.69,176.129 C 143.69282,185.29011 143.43707,194.44781 143.35381,203.60789 C 149.01169,201.20265 148.25578,216.82564 143.00628,213.94591 C 135.37684,213.78679 127.71155,213.70973 120.1024,213.52811 C 123.36862,203.39362 114.82819,204.67027 116.35113,196.19806 C 116.42747,189.33114 116.58029,182.46616 116.7276,175.6006 z "
       id="009" />
    <path
       style="opacity:1;color:#000000;fill:#e8e2b7;fill-opacity:1;fill-rule:evenodd;stroke:#000000;stroke-width:1;stroke-linecap:butt;stroke-linejoin:miter;marker:none;marker-start:none;marker-mid:none;marker-end:none;stroke-miterlimit:4;stroke-dasharray:none;stroke-dashoffset:0;stroke-opacity:1;visibility:visible;display:inline;overflow:visible;enable-background:accumulate"
       d="M 158.6665,176.23711 C 165.66855,176.32693 172.66992,176.42638 179.672,176.4893 C 179.51313,185.70049 179.54679,194.91471 179.4438,204.1243 C 184.06263,202.33967 184.15155,216.35411 179.3597,214.4529 C 168.44849,214.31972 157.52453,214.21478 146.60851,214.0085 C 147.98011,207.12239 145.92276,203.62968 143.3898,200.5573 C 143.47778,192.41455 143.70351,184.27313 143.69,176.129 C 148.68141,176.20092 153.67397,176.19208 158.6665,176.23711 z "
       id="077" />
    <path
       style="opacity:1;color:#000000;fill:#e8e2b7;fill-opacity:1;fill-rule:evenodd;stroke:#000000;stroke-width:1;stroke-linecap:butt;stroke-linejoin:miter;marker:none;marker-start:none;marker-mid:none;marker-end:none;stroke-miterlimit:4;stroke-dasharray:none;stroke-dashoffset:0;stroke-opacity:1;visibility:visible;display:inline;overflow:visible;enable-background:accumulate"
       d="M 257.9411,176.82561 C 270.96594,176.8214 283.99512,176.82519 297.02161,176.72951 C 297.06714,185.91157 297.12558,195.09717 297.15369,204.2804 C 298.10548,206.75889 300.21188,216.37746 293.77912,214.09995 C 280.33745,214.26783 266.89783,214.23767 253.4494,214.3208 C 254.02025,208.83901 252.84188,205.2511 251.9001,201.35007 C 251.88627,193.16777 251.946,184.98444 251.9361,176.80161 C 253.93776,176.80961 255.93943,176.81761 257.9411,176.82561 z "
       id="099" />
    <path
       style="opacity:1;color:#000000;fill:#e8e2b7;fill-opacity:1;fill-rule:evenodd;stroke:#000000;stroke-width:1;stroke-linecap:butt;stroke-linejoin:miter;marker:none;marker-start:none;marker-mid:none;marker-end:none;stroke-miterlimit:4;stroke-dasharray:none;stroke-dashoffset:0;stroke-opacity:1;visibility:visible;display:inline;overflow:visible;enable-background:accumulate"
       d="M 352.39969,176.117 C 358.07641,176.09258 363.75478,176.15065 369.4299,175.96091 C 369.44419,187.96978 369.73315,199.7465 370.20858,211.19801 C 368.68745,215.09316 360.22703,212.23255 355.82251,213.25191 C 348.4695,213.40175 341.1148,213.52534 333.76019,213.6362 C 333.49767,201.26159 333.16235,188.87396 333.27979,176.35719 C 339.65494,176.30598 346.02725,176.18596 352.39969,176.117 z "
       id="095" />
    <path
       style="opacity:1;color:#000000;fill:#e8e2b7;fill-opacity:1;fill-rule:evenodd;stroke:#000000;stroke-width:1;stroke-linecap:butt;stroke-linejoin:miter;marker:none;marker-start:none;marker-mid:none;marker-end:none;stroke-miterlimit:4;stroke-dasharray:none;stroke-dashoffset:0;stroke-opacity:1;visibility:visible;display:inline;overflow:visible;enable-background:accumulate"
       d="M 326.02579,176.4653 C 334.95648,173.36738 333.50412,180.86843 333.29181,187.0461 C 333.22691,196.02273 333.66982,204.74418 333.76019,213.6362 C 321.84246,213.81786 309.92513,213.95438 298.00641,214.05659 C 298.23237,205.97956 296.58766,199.86139 297.09369,191.5619 C 297.10915,186.61751 297.01562,181.67239 297.02161,176.72951 C 306.69006,176.68519 316.35808,176.59606 326.02579,176.4653 z "
       id="157" />
    <path
       style="opacity:1;color:#000000;fill:#e8e2b7;fill-opacity:1;fill-rule:evenodd;stroke:#000000;stroke-width:1;stroke-linecap:butt;stroke-linejoin:miter;marker:none;marker-start:none;marker-mid:none;marker-end:none;stroke-miterlimit:4;stroke-dasharray:none;stroke-dashoffset:0;stroke-opacity:1;visibility:visible;display:inline;overflow:visible;enable-background:accumulate"
       d="M 369.4299,175.96091 C 381.44989,175.63222 393.47639,175.85847 405.49591,175.46851 C 405.84559,190.83749 406.12886,206.20293 406.28851,221.5748 C 402.64399,221.21574 395.96736,223.48003 396.09201,218.6084 C 393.03928,216.992 397.15334,215.71252 395.03519,214.1046 C 394.93286,213.79902 393.55926,212.05507 391.84121,212.60739 C 384.62861,212.82443 377.41208,212.78313 370.19849,212.93961 C 369.94604,200.69266 369.34929,188.7285 369.4299,175.96091 z "
       id="103" />
    <path
       style="opacity:1;color:#000000;fill:#e8e2b7;fill-opacity:1;fill-rule:evenodd;stroke:#000000;stroke-width:1;stroke-linecap:butt;stroke-linejoin:miter;marker:none;marker-start:none;marker-mid:none;marker-end:none;stroke-miterlimit:4;stroke-dasharray:none;stroke-dashoffset:0;stroke-opacity:1;visibility:visible;display:inline;overflow:visible;enable-background:accumulate"
       d="M 445.6933,183.8394 C 449.70758,182.79095 452.66733,184.4356 454.78491,187.11819 C 455.62321,186.7295 458.15658,187.73175 457.9075,185.77299 C 459.51608,184.01946 460.45759,184.64733 461.73871,184.60809 C 463.45895,183.7192 464.29602,185.52703 465.56989,183.4671 C 467.20966,185.85875 469.60791,182.62544 470.7702,183.02271 C 472.31612,184.9278 475.35012,181.34005 475.6102,184.3078 C 477.07984,182.7101 479.38332,185.40845 478.79291,186.6378 C 480.11541,186.25281 480.76059,187.80061 482.17969,186.5056 C 484.56593,189.00216 484.93106,184.29152 487.25989,187.11819 C 489.17655,190.44766 485.2935,191.77286 485.6626,194.9126 C 485.42314,198.73859 487.37146,203.71931 481.44711,203.86011 C 478.23196,206.85468 475.42412,211.93123 470.12161,209.13251 C 465.66986,209.81165 464.77701,214.84451 460.70581,216.2664 C 456.97068,217.41415 449.32528,219.77832 451.54221,212.93961 C 451.47048,209.35629 451.45948,205.75146 451.362,202.1787 C 448.44705,201.18356 440.94815,204.98743 442.27051,199.57249 C 443.50262,194.86727 439.22746,184.96479 444.25211,183.8875 C 444.73302,183.88864 445.21375,183.87555 445.6933,183.8394 z "
       id="163" />
    <path
       style="opacity:1;color:#000000;fill:#e8e2b7;fill-opacity:1;fill-rule:evenodd;stroke:#000000;stroke-width:1;stroke-linecap:butt;stroke-linejoin:miter;marker:none;marker-start:none;marker-mid:none;marker-end:none;stroke-miterlimit:4;stroke-dasharray:none;stroke-dashoffset:0;stroke-opacity:1;visibility:visible;display:inline;overflow:visible;enable-background:accumulate"
       d="M 407.56161,203.0554 C 422.07688,203.14434 437.50301,201.91954 451.38611,202.58701 C 451.45045,207.50627 451.54659,212.42738 451.59021,217.34731 C 445.68639,214.8021 442.01719,223.7352 436.55371,219.70129 C 433.99814,220.80313 430.01548,221.06662 431.0531,225.0817 C 429.48407,228.80297 429.56247,231.8324 424.4476,230.5703 C 418.43813,230.62824 412.42832,230.68712 406.42059,230.7865 C 406.28924,221.55115 406.15941,212.31293 406.0603,203.07941 L 407.26107,203.06021 L 407.56161,203.0554 z "
       id="139" />
    <path
       style="opacity:1;color:#000000;fill:#e8e2b7;fill-opacity:1;fill-rule:evenodd;stroke:#000000;stroke-width:1;stroke-linecap:butt;stroke-linejoin:miter;marker:none;marker-start:none;marker-mid:none;marker-end:none;stroke-miterlimit:4;stroke-dasharray:none;stroke-dashoffset:0;stroke-opacity:1;visibility:visible;display:inline;overflow:visible;enable-background:accumulate"
       d="M 223.9288,213.81641 C 231.02902,213.51494 239.96324,214.38627 245.9431,214.33279 C 247.20762,214.46455 245.73731,216.73939 248.12891,215.2576 C 246.29424,217.70669 251.60009,217.05133 251.0714,216.1823 C 251.11275,214.43115 253.41581,217.87579 253.4734,217.34731 C 253.47915,228.56443 253.47914,239.78499 253.54539,250.9993 C 241.5115,251.11504 229.47806,250.78378 217.44341,250.8071 C 217.67125,238.56853 217.05421,225.74734 217.6956,213.8284 C 219.77335,213.82123 221.85108,213.79107 223.9288,213.81641 z "
       id="181" />
    <path
       style="opacity:1;color:#000000;fill:#e8e2b7;fill-opacity:1;fill-rule:evenodd;stroke:#000000;stroke-width:1;stroke-linecap:butt;stroke-linejoin:miter;marker:none;marker-start:none;marker-mid:none;marker-end:none;stroke-miterlimit:4;stroke-dasharray:none;stroke-dashoffset:0;stroke-opacity:1;visibility:visible;display:inline;overflow:visible;enable-background:accumulate"
       d="M 215.6059,214.0325 C 219.43987,213.97877 216.49173,221.44533 217.40739,224.6013 C 217.45602,233.34742 217.4642,242.06331 217.44341,250.8071 C 205.65759,251.76427 193.82373,251.06599 182.0139,251.0714 C 182.15333,238.57002 182.26979,226.96388 182.3502,214.4769 C 193.421,214.36466 204.59908,215.36281 215.6059,214.0325 z "
       id="121" />
    <path
       style="opacity:1;color:#000000;fill:#e8e2b7;fill-opacity:1;fill-rule:evenodd;stroke:#000000;stroke-width:1;stroke-linecap:butt;stroke-linejoin:miter;marker:none;marker-start:none;marker-mid:none;marker-end:none;stroke-miterlimit:4;stroke-dasharray:none;stroke-dashoffset:0;stroke-opacity:1;visibility:visible;display:inline;overflow:visible;enable-background:accumulate"
       d="M 373.21301,212.87959 C 380.22342,212.81265 387.23399,212.74936 394.24249,212.5553 C 392.71924,214.24269 396.07025,213.02865 395.1673,214.4169 C 396.13516,216.02699 394.13475,217.25055 395.7558,219.0407 C 399.43767,224.7102 396.49079,232.84729 397.52509,239.49351 C 397.82954,245.0606 399.21922,251.55315 391.6123,249.36591 C 381.63806,249.38223 371.67282,250.17154 361.6954,249.8463 C 361.67635,237.61124 361.09083,225.39409 361.1189,213.15581 C 365.15024,213.06292 369.18122,212.95262 373.21301,212.87959 z "
       id="183" />
    <path
       style="opacity:1;color:#000000;fill:#e8e2b7;fill-opacity:1;fill-rule:evenodd;stroke:#000000;stroke-width:1;stroke-linecap:butt;stroke-linejoin:miter;marker:none;marker-start:none;marker-mid:none;marker-end:none;stroke-miterlimit:4;stroke-dasharray:none;stroke-dashoffset:0;stroke-opacity:1;visibility:visible;display:inline;overflow:visible;enable-background:accumulate"
       d="M 360.75861,213.1678 C 361.5492,224.67627 361.44481,237.72505 361.6954,249.8463 C 349.58697,250.03432 337.47558,250.32944 325.3652,250.48289 C 325.17362,238.24173 324.99515,225.99924 324.83679,213.7563 C 336.81223,213.62862 348.78532,213.37917 360.75861,213.1678 z "
       id="107" />
    <path
       style="opacity:1;color:#000000;fill:#e8e2b7;fill-opacity:1;fill-rule:evenodd;stroke:#000000;stroke-width:1;stroke-linecap:butt;stroke-linejoin:miter;marker:none;marker-start:none;marker-mid:none;marker-end:none;stroke-miterlimit:4;stroke-dasharray:none;stroke-dashoffset:0;stroke-opacity:1;visibility:visible;display:inline;overflow:visible;enable-background:accumulate"
       d="M 321.0896,213.8044 C 328.83289,212.79802 323.19016,225.52116 325.065,230.5463 C 325.17208,237.19279 325.25396,243.83713 325.3652,250.48289 C 313.37095,250.6538 301.37759,250.73512 289.3833,250.8672 C 289.44116,238.71566 288.78426,225.80126 289.37131,214.14059 C 299.94371,214.01133 310.51793,213.97926 321.0896,213.8044 z "
       id="123" />
    <path
       style="opacity:1;color:#000000;fill:#e8e2b7;fill-opacity:1;fill-rule:evenodd;stroke:#000000;stroke-width:1;stroke-linecap:butt;stroke-linejoin:miter;marker:none;marker-start:none;marker-mid:none;marker-end:none;stroke-miterlimit:4;stroke-dasharray:none;stroke-dashoffset:0;stroke-opacity:1;visibility:visible;display:inline;overflow:visible;enable-background:accumulate"
       d="M 289.05899,214.14059 C 289.16096,226.38334 289.24649,238.62426 289.3833,250.8672 C 277.61417,250.55369 264.28897,251.7587 253.5334,250.36279 C 253.47072,238.35183 253.50385,226.33427 253.4494,214.3208 C 265.32213,214.23092 277.19459,214.28734 289.05899,214.14059 z "
       id="125" />
    <path
       style="opacity:1;color:#000000;fill:#e8e2b7;fill-opacity:1;fill-rule:evenodd;stroke:#000000;stroke-width:1;stroke-linecap:butt;stroke-linejoin:miter;marker:none;marker-start:none;marker-mid:none;marker-end:none;stroke-miterlimit:4;stroke-dasharray:none;stroke-dashoffset:0;stroke-opacity:1;visibility:visible;display:inline;overflow:visible;enable-background:accumulate"
       d="M 45.712502,211.64259 C 67.52463,212.31777 89.391035,212.81389 111.227,213.32401 C 110.98044,225.47821 110.75746,237.67395 110.4704,249.8463 C 91.544689,249.51167 72.619756,249.06336 53.6992,248.52521 C 57.55418,247.47969 57.255189,244.97898 52.039095,245.82816 C 47.889123,244.94774 53.453277,240.11963 50.8288,237.38 C 50.130063,231.77838 51.734965,235.2001 53.951401,235.6866 C 58.108817,230.46345 47.101575,232.64068 48.702999,227.9281 C 52.413662,226.16256 48.815205,220.88704 51.501301,218.0199 C 50.987689,214.18499 43.400386,217.6498 44.139198,213.09579 C 44.689029,212.66609 45.376573,212.28536 45.712502,211.64259 z "
       id="155" />
    <path
       style="opacity:1;color:#000000;fill:#e8e2b7;fill-opacity:1;fill-rule:evenodd;stroke:#000000;stroke-width:1;stroke-linecap:butt;stroke-linejoin:miter;marker:none;marker-start:none;marker-mid:none;marker-end:none;stroke-miterlimit:4;stroke-dasharray:none;stroke-dashoffset:0;stroke-opacity:1;visibility:visible;display:inline;overflow:visible;enable-background:accumulate"
       d="M 111.227,213.32401 C 123.01912,213.63781 134.8145,213.78498 146.60851,214.0085 C 146.18776,226.08247 146.75761,239.06122 145.7558,250.57899 C 133.9937,250.32478 122.22918,250.23742 110.4704,249.8463 C 110.75078,237.67357 110.98746,225.47867 111.227,213.32401 z "
       id="029" />
    <path
       style="opacity:1;color:#000000;fill:#e8e2b7;fill-opacity:1;fill-rule:evenodd;stroke:#000000;stroke-width:1;stroke-linecap:butt;stroke-linejoin:miter;marker:none;marker-start:none;marker-mid:none;marker-end:none;stroke-miterlimit:4;stroke-dasharray:none;stroke-dashoffset:0;stroke-opacity:1;visibility:visible;display:inline;overflow:visible;enable-background:accumulate"
       d="M 150.0674,214.05659 C 160.82834,214.27887 171.59291,214.34605 182.3502,214.4769 C 182.2696,226.97149 182.15424,238.57315 182.0139,251.0714 C 170.05394,250.9097 157.99772,250.78907 146.1041,250.54289 C 146.28591,238.36507 146.42472,226.1865 146.60851,214.0085 C 147.7614,214.02827 148.91439,214.04651 150.0674,214.05659 z "
       id="001" />
    <path
       style="opacity:1;color:#000000;fill:#e8e2b7;fill-opacity:1;fill-rule:evenodd;stroke:#000000;stroke-width:1;stroke-linecap:butt;stroke-linejoin:miter;marker:none;marker-start:none;marker-mid:none;marker-end:none;stroke-miterlimit:4;stroke-dasharray:none;stroke-dashoffset:0;stroke-opacity:1;visibility:visible;display:inline;overflow:visible;enable-background:accumulate"
       d="M 398.0737,221.65891 C 405.8292,219.61561 407.78697,223.48205 406.42059,230.7865 C 414.1574,230.66408 421.89758,230.58693 429.63599,230.52229 C 430.43654,234.93962 423.23496,239.94213 429.20361,243.1207 C 430.77064,248.0044 434.70651,246.93713 437.0781,250.21819 C 442.40663,255.63602 439.41696,259.67973 432.44629,257.98911 C 423.93387,258.29403 415.41516,258.21869 406.901,258.45749 C 407.69469,252.05213 406.75213,247.42392 399.46698,249.3179 C 395.50913,247.608 398.44274,238.97489 397.45445,234.30562 C 398.22441,230.8154 395.87898,223.65175 398.0737,221.65891 z "
       id="115" />
    <path
       style="opacity:1;color:#000000;fill:#e8e2b7;fill-opacity:1;fill-rule:evenodd;stroke:#000000;stroke-width:1;stroke-linecap:butt;stroke-linejoin:miter;marker:none;marker-start:none;marker-mid:none;marker-end:none;stroke-miterlimit:4;stroke-dasharray:none;stroke-dashoffset:0;stroke-opacity:1;visibility:visible;display:inline;overflow:visible;enable-background:accumulate"
       d="M 360.20621,249.8223 C 366.464,250.38669 374.07772,249.2516 379.6864,249.99049 C 379.74922,259.09508 379.77258,268.19813 379.9866,277.30121 C 368.07828,277.09686 355.00931,278.40871 343.80051,277.54141 C 343.6663,268.42511 343.51233,259.31147 343.36819,250.1946 C 348.9815,250.10002 354.59391,249.9584 360.20621,249.8223 z "
       id="101" />
    <path
       style="opacity:1;color:#000000;fill:#e8e2b7;fill-opacity:1;fill-rule:evenodd;stroke:#000000;stroke-width:1;stroke-linecap:butt;stroke-linejoin:miter;marker:none;marker-start:none;marker-mid:none;marker-end:none;stroke-miterlimit:4;stroke-dasharray:none;stroke-dashoffset:0;stroke-opacity:1;visibility:visible;display:inline;overflow:visible;enable-background:accumulate"
       d="M 388.66989,249.37801 C 394.69105,249.34019 400.71177,249.31519 406.73291,249.2579 C 406.71138,261.42632 407.6513,274.57243 406.98511,286.11649 C 398.02551,286.23994 389.06342,286.26869 380.10669,286.5369 C 380.22091,274.34548 379.13547,261.06911 380.15479,249.60609 C 382.99383,249.55208 385.83283,249.47103 388.66989,249.37801 z "
       id="087" />
    <path
       style="opacity:1;color:#000000;fill:#e8e2b7;fill-opacity:1;fill-rule:evenodd;stroke:#000000;stroke-width:1;stroke-linecap:butt;stroke-linejoin:miter;marker:none;marker-start:none;marker-mid:none;marker-end:none;stroke-miterlimit:4;stroke-dasharray:none;stroke-dashoffset:0;stroke-opacity:1;visibility:visible;display:inline;overflow:visible;enable-background:accumulate"
       d="M 336.9068,250.3027 C 345.10461,247.50922 343.58083,254.8034 343.5306,260.52299 C 343.61343,266.33631 343.74545,272.14729 343.80051,277.9617 C 331.75272,278.22427 319.70129,278.25395 307.65051,278.43011 C 307.56575,269.1862 307.44609,259.9419 307.3382,250.6991 C 317.19453,250.5887 327.05089,250.46161 336.9068,250.3027 z "
       id="179" />
    <path
       style="opacity:1;color:#000000;fill:#e8e2b7;fill-opacity:1;fill-rule:evenodd;stroke:#000000;stroke-width:1;stroke-linecap:butt;stroke-linejoin:miter;marker:none;marker-start:none;marker-mid:none;marker-end:none;stroke-miterlimit:4;stroke-dasharray:none;stroke-dashoffset:0;stroke-opacity:1;visibility:visible;display:inline;overflow:visible;enable-background:accumulate"
       d="M 218.2,250.7951 C 223.99329,250.82945 229.78524,250.88752 235.57851,250.91521 C 235.58239,260.18713 235.64037,269.45873 235.57851,278.73041 C 223.73431,277.96504 210.73739,279.4753 199.58459,278.27399 C 199.63511,269.26616 199.75493,260.25933 199.8127,251.2515 C 205.96333,251.51494 212.06581,251.16687 218.2,250.7951 z "
       id="039" />
    <path
       style="opacity:1;color:#000000;fill:#e8e2b7;fill-opacity:1;fill-rule:evenodd;stroke:#000000;stroke-width:1;stroke-linecap:butt;stroke-linejoin:miter;marker:none;marker-start:none;marker-mid:none;marker-end:none;stroke-miterlimit:4;stroke-dasharray:none;stroke-dashoffset:0;stroke-opacity:1;visibility:visible;display:inline;overflow:visible;enable-background:accumulate"
       d="M 305.897,250.71111 C 309.5121,251.0211 306.48605,258.08803 307.45831,261.06369 C 307.06678,266.64366 308.54611,273.98445 306.97791,278.44211 C 295.18606,278.5657 283.43173,278.64804 271.6445,278.67029 C 271.50065,269.4294 271.57607,260.1885 271.42831,250.95129 C 282.91883,250.94256 294.40697,250.79998 305.897,250.71111 z "
       id="135" />
    <path
       style="opacity:1;color:#000000;fill:#e8e2b7;fill-opacity:1;fill-rule:evenodd;stroke:#000000;stroke-width:1;stroke-linecap:butt;stroke-linejoin:miter;marker:none;marker-start:none;marker-mid:none;marker-end:none;stroke-miterlimit:4;stroke-dasharray:none;stroke-dashoffset:0;stroke-opacity:1;visibility:visible;display:inline;overflow:visible;enable-background:accumulate"
       d="M 235.57851,250.91521 C 247.52689,251.15402 259.47797,250.93388 271.42831,250.95129 C 271.57656,260.18859 271.50149,269.42937 271.6445,278.67029 C 259.62254,278.71342 247.60048,278.84285 235.57851,278.73041 C 235.6384,269.45858 235.58547,260.1873 235.57851,250.91521 z "
       id="117" />
    <path
       style="opacity:1;color:#000000;fill:#e8e2b7;fill-opacity:1;fill-rule:evenodd;stroke:#000000;stroke-width:1;stroke-linecap:butt;stroke-linejoin:miter;marker:none;marker-start:none;marker-mid:none;marker-end:none;stroke-miterlimit:4;stroke-dasharray:none;stroke-dashoffset:0;stroke-opacity:1;visibility:visible;display:inline;overflow:visible;enable-background:accumulate"
       d="M 57.8787,248.59731 C 69.472324,249.03259 81.074431,249.19514 92.6716,249.5341 C 92.298275,258.60049 92.233607,267.6678 91.962997,276.73669 C 80.741915,276.30024 69.180504,276.53432 58.166901,275.70389 C 53.84335,272.95136 60.163807,266.96713 54.359699,265.27921 C 55.602948,262.60225 54.313878,260.87034 53.435001,258.5296 C 57.438726,256.02136 52.062252,250.37206 54.407799,248.53729 C 55.565055,248.53876 56.72174,248.57687 57.8787,248.59731 z "
       id="129" />
    <path
       style="opacity:1;color:#000000;fill:#e8e2b7;fill-opacity:1;fill-rule:evenodd;stroke:#000000;stroke-width:1;stroke-linecap:butt;stroke-linejoin:miter;marker:none;marker-start:none;marker-mid:none;marker-end:none;stroke-miterlimit:4;stroke-dasharray:none;stroke-dashoffset:0;stroke-opacity:1;visibility:visible;display:inline;overflow:visible;enable-background:accumulate"
       d="M 93.776497,249.55811 C 105.29784,249.58827 116.81011,250.12038 128.3293,250.26669 C 128.20703,259.3431 127.98364,268.41745 127.8008,277.49329 C 115.85288,277.307 103.90776,277.00264 91.962997,276.73669 C 92.234498,267.66773 92.298533,258.60042 92.6716,249.5341 L 93.776497,249.55811 z "
       id="137" />
    <path
       style="opacity:1;color:#000000;fill:#e8e2b7;fill-opacity:1;fill-rule:evenodd;stroke:#000000;stroke-width:1;stroke-linecap:butt;stroke-linejoin:miter;marker:none;marker-start:none;marker-mid:none;marker-end:none;stroke-miterlimit:4;stroke-dasharray:none;stroke-dashoffset:0;stroke-opacity:1;visibility:visible;display:inline;overflow:visible;enable-background:accumulate"
       d="M 129.6864,250.2907 C 141.15623,250.4984 152.6252,250.67471 164.095,250.8432 C 163.95199,259.9347 163.90194,269.02653 163.7587,278.11789 C 151.74834,278.04503 139.80863,277.65492 127.8008,277.49329 C 127.98275,268.41746 128.20878,259.34311 128.3293,250.26669 L 129.23,250.2787 L 129.6864,250.2907 z "
       id="003" />
    <path
       style="opacity:1;color:#000000;fill:#e8e2b7;fill-opacity:1;fill-rule:evenodd;stroke:#000000;stroke-width:1;stroke-linecap:butt;stroke-linejoin:miter;marker:none;marker-start:none;marker-mid:none;marker-end:none;stroke-miterlimit:4;stroke-dasharray:none;stroke-dashoffset:0;stroke-opacity:1;visibility:visible;display:inline;overflow:visible;enable-background:accumulate"
       d="M 164.095,250.8432 C 176.0013,250.98158 187.9059,251.19207 199.8127,251.2515 C 199.75487,260.39943 199.63073,269.54637 199.58459,278.69431 C 187.84255,278.21191 174.44069,279.07165 163.78281,277.4693 C 163.88166,268.59319 163.97084,259.71891 164.095,250.8432 z "
       id="175" />
    <path
       style="opacity:1;color:#000000;fill:#e8e2b7;fill-opacity:1;fill-rule:evenodd;stroke:#000000;stroke-width:1;stroke-linecap:butt;stroke-linejoin:miter;marker:none;marker-start:none;marker-mid:none;marker-end:none;stroke-miterlimit:4;stroke-dasharray:none;stroke-dashoffset:0;stroke-opacity:1;visibility:visible;display:inline;overflow:visible;enable-background:accumulate"
       d="M 410.3959,258.38541 C 420.1734,258.41643 430.49062,257.79111 439.94049,258.06119 C 441.20905,263.31155 439.49258,268.35544 439.2439,273.47 C 434.47833,275.84924 432.86862,281.20686 429.26361,284.83151 C 428.94363,287.47797 430.279,290.3029 428.12271,292.72198 C 427.8444,295.81229 428.98281,299.47022 425.06009,296.94949 C 423.54435,292.83127 423.0787,298.78362 421.3851,295.66449 C 419.83611,297.28893 419.39682,292.31388 416.82129,292.4458 C 414.06294,293.06141 414.71654,289.50053 412.06531,290.15189 C 409.68234,288.33894 406.97492,287.78211 404.45099,286.1525 C 410.16819,287.38764 406.06654,279.14654 407.1893,275.93201 C 407.07499,270.10743 406.98546,264.28255 406.901,258.45749 C 408.06593,258.43202 409.23108,258.4156 410.3959,258.38541 z "
       id="057" />
    <path
       style="opacity:1;color:#000000;fill:#e8e2b7;fill-opacity:1;fill-rule:evenodd;stroke:#000000;stroke-width:1;stroke-linecap:butt;stroke-linejoin:miter;marker:none;marker-start:none;marker-mid:none;marker-end:none;stroke-miterlimit:4;stroke-dasharray:none;stroke-dashoffset:0;stroke-opacity:1;visibility:visible;display:inline;overflow:visible;enable-background:accumulate"
       d="M 81.214104,276.4725 C 86.121646,277.09797 94.478445,274.35396 91.868497,282.15228 C 92.142553,286.29401 91.06131,291.5995 92.023102,295.052 C 91.783884,298.36078 95.132351,311.58152 88.852402,310.55688 C 80.17249,310.06079 68.45904,310.18453 61.781898,309.09161 C 63.687718,307.12641 60.446902,305.30528 60.568901,302.87051 C 59.088115,300.15765 54.214833,301.00048 54.695999,296.92551 C 50.496513,295.4794 51.913613,290.63087 55.656799,289.67151 C 57.457448,287.6367 54.43026,284.9621 56.209301,282.6817 C 52.899055,278.88263 59.852214,278.88016 58.659302,275.94409 C 66.176908,276.15784 73.696773,276.32157 81.214104,276.4725 z "
       id="071" />
    <path
       style="opacity:1;color:#000000;fill:#e8e2b7;fill-opacity:1;fill-rule:evenodd;stroke:#000000;stroke-width:1;stroke-linecap:butt;stroke-linejoin:miter;marker:none;marker-start:none;marker-mid:none;marker-end:none;stroke-miterlimit:4;stroke-dasharray:none;stroke-dashoffset:0;stroke-opacity:1;visibility:visible;display:inline;overflow:visible;enable-background:accumulate"
       d="M 99.469299,276.89279 C 108.91173,277.14395 118.35591,277.33637 127.8008,277.49329 C 128.01613,283.46868 126.82634,290.86154 128.14909,295.82059 C 129.36498,299.96499 127.94893,306.80229 128.3293,311.92599 C 116.25875,311.5693 104.20002,311.10939 92.131203,310.677 C 91.627405,305.01666 93.736018,297.44203 91.590698,293.50269 C 91.772421,287.91708 91.880334,282.32601 91.962997,276.73669 C 94.464417,276.80586 96.968094,276.88307 99.469299,276.89279 z "
       id="145" />
    <path
       style="opacity:1;color:#000000;fill:#e8e2b7;fill-opacity:1;fill-rule:evenodd;stroke:#000000;stroke-width:1;stroke-linecap:butt;stroke-linejoin:miter;marker:none;marker-start:none;marker-mid:none;marker-end:none;stroke-miterlimit:4;stroke-dasharray:none;stroke-dashoffset:0;stroke-opacity:1;visibility:visible;display:inline;overflow:visible;enable-background:accumulate"
       d="M 367.95261,277.45731 C 372.87162,278.21573 382.0773,274.50354 380.04164,282.33316 C 380.03096,290.86144 380.69427,301.88624 380.40701,308.93549 C 376.32949,306.16029 369.15593,309.34872 363.89996,308.69013 C 357.31953,309.07493 350.73626,309.36727 344.1488,309.5961 C 344.3105,299.10867 343.74455,288.1768 343.9567,277.9617 C 351.95658,277.8707 359.95407,277.65761 367.95261,277.45731 z "
       id="177" />
    <path
       style="opacity:1;color:#000000;fill:#e8e2b7;fill-opacity:1;fill-rule:evenodd;stroke:#000000;stroke-width:1;stroke-linecap:butt;stroke-linejoin:miter;marker:none;marker-start:none;marker-mid:none;marker-end:none;stroke-miterlimit:4;stroke-dasharray:none;stroke-dashoffset:0;stroke-opacity:1;visibility:visible;display:inline;overflow:visible;enable-background:accumulate"
       d="M 138.2856,277.6615 C 146.76828,277.90458 155.25092,278.03659 163.7587,278.11789 C 163.48668,289.69472 163.50514,301.27282 163.33839,312.8508 C 151.66296,312.79864 139.9951,312.3197 128.3293,311.92599 C 127.96727,306.78287 129.35352,299.97698 128.14909,295.82059 C 126.83054,290.85772 128.02268,283.46212 127.8008,277.49329 C 131.29573,277.55262 134.79058,277.61012 138.2856,277.6615 z "
       id="173" />
    <path
       style="opacity:1;color:#000000;fill:#e8e2b7;fill-opacity:1;fill-rule:evenodd;stroke:#000000;stroke-width:1;stroke-linecap:butt;stroke-linejoin:miter;marker:none;marker-start:none;marker-mid:none;marker-end:none;stroke-miterlimit:4;stroke-dasharray:none;stroke-dashoffset:0;stroke-opacity:1;visibility:visible;display:inline;overflow:visible;enable-background:accumulate"
       d="M 343.80051,277.9617 C 343.97632,288.50609 344.19708,299.05007 344.1488,309.5961 C 332.22371,309.70676 319.05261,311.15247 307.98669,310.4368 C 307.92382,299.76809 307.75119,289.09862 307.65051,278.43011 C 319.70126,278.25278 331.75276,278.22438 343.80051,277.9617 z "
       id="051" />
    <path
       style="opacity:1;color:#000000;fill:#e8e2b7;fill-opacity:1;fill-rule:evenodd;stroke:#000000;stroke-width:1;stroke-linecap:butt;stroke-linejoin:miter;marker:none;marker-start:none;marker-mid:none;marker-end:none;stroke-miterlimit:4;stroke-dasharray:none;stroke-dashoffset:0;stroke-opacity:1;visibility:visible;display:inline;overflow:visible;enable-background:accumulate"
       d="M 172.68221,278.26199 C 181.64859,278.47067 190.616,278.6051 199.58459,278.69431 C 199.4302,290.07938 199.43059,301.46554 199.3083,312.8508 C 187.36945,312.93487 175.0112,313.08773 163.3504,312.69461 C 163.49328,301.1677 163.49288,289.64271 163.7587,278.11789 C 166.7332,278.1659 169.7077,278.2141 172.68221,278.26199 z "
       id="159" />
    <path
       style="opacity:1;color:#000000;fill:#e8e2b7;fill-opacity:1;fill-rule:evenodd;stroke:#000000;stroke-width:1;stroke-linecap:butt;stroke-linejoin:miter;marker:none;marker-start:none;marker-mid:none;marker-end:none;stroke-miterlimit:4;stroke-dasharray:none;stroke-dashoffset:0;stroke-opacity:1;visibility:visible;display:inline;overflow:visible;enable-background:accumulate"
       d="M 227.2075,278.5863 C 234.83607,276.82962 237.18312,280.43797 235.5305,287.7739 C 235.43544,295.84876 235.88888,304.78726 235.1942,312.3223 C 223.23428,312.69267 211.26641,312.52803 199.3083,312.8508 C 199.75594,301.63936 198.75862,289.05033 200.077,278.70639 C 209.12339,278.9341 218.15975,278.38913 227.2075,278.5863 z "
       id="053" />
    <path
       style="opacity:1;color:#000000;fill:#e8e2b7;fill-opacity:1;fill-rule:evenodd;stroke:#000000;stroke-width:1;stroke-linecap:butt;stroke-linejoin:miter;marker:none;marker-start:none;marker-mid:none;marker-end:none;stroke-miterlimit:4;stroke-dasharray:none;stroke-dashoffset:0;stroke-opacity:1;visibility:visible;display:inline;overflow:visible;enable-background:accumulate"
       d="M 307.65051,278.43011 C 307.69747,289.24596 308.03723,300.33443 307.9147,310.9892 C 295.84887,311.44141 283.84097,311.2885 271.76459,311.914 C 271.73432,300.83258 271.63893,289.7494 271.6445,278.67029 C 283.65421,278.6454 295.64523,278.56612 307.65051,278.43011 z "
       id="007" />
    <path
       style="opacity:1;color:#000000;fill:#e8e2b7;fill-opacity:1;fill-rule:evenodd;stroke:#000000;stroke-width:1;stroke-linecap:butt;stroke-linejoin:miter;marker:none;marker-start:none;marker-mid:none;marker-end:none;stroke-miterlimit:4;stroke-dasharray:none;stroke-dashoffset:0;stroke-opacity:1;visibility:visible;display:inline;overflow:visible;enable-background:accumulate"
       d="M 271.6445,278.67029 C 271.57169,289.71734 271.86008,301.02197 271.66849,311.914 C 259.62198,312.41911 247.55593,312.347 235.50639,312.33429 C 235.56226,301.13255 235.5404,289.93074 235.57851,278.73041 C 247.60026,278.84044 259.62273,278.71377 271.6445,278.67029 z "
       id="185" />
    <path
       style="opacity:1;color:#000000;fill:#e8e2b7;fill-opacity:1;fill-rule:evenodd;stroke:#000000;stroke-width:1;stroke-linecap:butt;stroke-linejoin:miter;marker:none;marker-start:none;marker-mid:none;marker-end:none;stroke-miterlimit:4;stroke-dasharray:none;stroke-dashoffset:0;stroke-opacity:1;visibility:visible;display:inline;overflow:visible;enable-background:accumulate"
       d="M 389.34241,286.30869 C 395.70536,287.17601 403.33511,284.12882 408.34219,288.38641 C 410.22648,289.05203 413.98952,289.6055 414.80359,292.22961 C 417.56794,291.38728 420.06764,295.11539 420.78461,296.1329 C 422.6376,297.21587 422.94748,295.54013 424.2074,295.82059 C 425.57917,298.27083 429.8138,296.85208 427.258,300.8168 C 423.24919,306.14282 416.64666,302.96916 411.67029,306.38554 C 408.57774,307.99211 405.4609,311.78066 405.45981,315.04861 C 412.02739,317.62571 405.72233,324.0476 408.24619,328.48779 C 408.94308,333.28463 403.31847,330.48394 401.92889,332.42709 C 400.31194,332.28739 399.17699,330.68481 398.68619,329.64069 C 395.20711,330.0113 397.34104,326.6421 395.51559,326.07379 C 398.42268,322.31815 391.62387,325.05065 391.43219,321.6781 C 389.26421,319.67146 387.9731,317.81426 388.00931,314.9285 C 382.37113,315.63068 384.16867,311.54628 381.05551,309.60809 C 379.81349,302.50176 380.58354,294.14581 380.10669,286.5369 C 383.18483,286.45319 386.26509,286.41788 389.34241,286.30869 z "
       id="111" />
  </g>
</svg>
