<?xml version="1.0" encoding="utf-8"?>
<!-- Generator: Adobe Illustrator 16.0.0, SVG Export Plug-In . SVG Version: 6.00 Build 0)  -->
<!DOCTYPE svg PUBLIC "-//W3C//DTD SVG 1.1//EN" "http://www.w3.org/Graphics/SVG/1.1/DTD/svg11.dtd">
<svg version="1.1" xmlns="http://www.w3.org/2000/svg" xmlns:xlink="http://www.w3.org/1999/xlink" x="0px" y="0px"
	 width="135px" height="67.924px" viewBox="0 0 135 67.924" enable-background="new 0 0 135 67.924" xml:space="preserve">
<g>
	<path fill="#FFFFFF" d="M123.336,67.923H11.662C5.232,67.923,0,62.693,0,56.263V11.662C0,5.231,5.232-0.001,11.662-0.001h111.674
		c6.432,0,11.664,5.232,11.664,11.663v44.601C135,62.693,129.768,67.923,123.336,67.923z"/>
	<path d="M123.334,2.996H11.663c-4.778,0-8.666,3.888-8.666,8.666v44.598c0,4.779,3.887,8.666,8.666,8.666h111.671
		c4.779,0,8.668-3.887,8.668-8.666V11.662C132.002,6.883,128.113,2.996,123.334,2.996z"/>
	<path fill="#FFFFFF" d="M13.604,6.028h107.79c5.219,0,7.447,2.916,7.447,7.746V54.15c0,4.828-2.229,7.744-7.447,7.744H13.604
		c-5.217,0-7.447-2.916-7.447-7.744V13.774C6.157,8.944,8.386,6.028,13.604,6.028z"/>
</g>
<g>
	<path d="M37.387,50.549h-6.496L25.37,38.891l-5.707,11.658h-6.45l8.77-18.387l-7.98-16.762h6.496l4.872,10.15l4.64-10.15h6.635
		L28.757,32.28L37.387,50.549z"/>
</g>
<g enable-background="new    ">
	<path d="M47.78,30.713c2.257-0.696,4.199-1.044,5.823-1.044s3.286,0.445,4.988,1.334c1.7,0.891,2.978,2.243,3.828,4.06c0.851,1.818,1.276,3.577,1.276,5.278c0,2.939-0.951,5.404-2.854,7.396s-4.494,2.986-7.772,2.986c-3.619,0-6.458-1.218-8.515-3.653c-2.058-2.437-3.085-6.013-3.085-10.73c0-3.712,0.734-7.211,2.204-10.498c1.469-3.285,3.472-5.848,6.009-7.685c2.536-1.836,5.15-2.793,7.841-2.871l1.902-0.059v6.845h-1.16c-2.196,0-4.245,0.734-6.147,2.203C50.216,25.746,48.77,27.892,47.78,30.713z M52.56,43.879c1.886,0,3.317-0.319,4.292-0.957c0.974-0.638,1.461-1.537,1.461-2.697c0-2.474-1.902-3.712-5.707-3.712c-1.702,0-2.993,0.339-3.875,1.016c-0.882,0.677-1.322,1.557-1.322,2.639c0,1.083,0.494,1.972,1.484,2.668C49.883,43.532,51.105,43.879,52.56,43.879z"/>
<path d="M92.812,22.593c-1.608,1.471-3.496,4.872-5.661,10.208s-3.248,11.252-3.248,17.748h-5.613c0-4.833,0.525-9.512,1.577-14.036c1.052-4.523,2.907-9.24,5.567-14.152H70.261v-6.96h22.55V22.593z"/>
<path d="M121.603,50.549H99.377c0.247-4.137,0.966-7.54,2.157-10.208s2.629-4.804,4.315-6.409c1.686-1.604,3.843-2.947,6.473-4.031c1.083-0.386,1.933-0.976,2.552-1.769c0.619-0.792,0.928-1.634,0.928-2.522c0-0.89-0.502-1.683-1.508-2.379c-1.005-0.695-2.25-1.043-3.734-1.043c-2.723,0-5.166,1.18-7.332,3.537l-3.851-5.046c1.825-1.778,3.619-3.103,5.382-3.973c1.764-0.87,3.773-1.306,6.032-1.306c3.403,0,6.001,0.938,7.796,2.813c1.793,1.876,2.691,4.282,2.691,7.222c0,2.938-0.751,5.336-2.251,7.191c-1.501,1.855-4.106,3.577-7.818,5.162c-1.856,0.851-3.542,2.784-5.058,5.8h15.451V50.549z"/>
</g>
</svg>
