<?xml version="1.0" encoding="UTF-8" standalone="no"?>
<!-- Created with Inkscape (http://www.inkscape.org/) -->

<svg
   xmlns:dc="http://purl.org/dc/elements/1.1/"
   xmlns:cc="http://creativecommons.org/ns#"
   xmlns:rdf="http://www.w3.org/1999/02/22-rdf-syntax-ns#"
   xmlns:svg="http://www.w3.org/2000/svg"
   xmlns="http://www.w3.org/2000/svg"
   xmlns:sodipodi="http://sodipodi.sourceforge.net/DTD/sodipodi-0.dtd"
   xmlns:inkscape="http://www.inkscape.org/namespaces/inkscape"
   width="1500"
   height="630"
   id="svg4203"
   sodipodi:version="0.32"
   inkscape:version="0.91 r13725"
   version="1.0"
   sodipodi:docname="Chubu_Odan_Expwy_Route_Sign.svg"
   inkscape:output_extension="org.inkscape.output.svg.inkscape">
  <defs
     id="defs4205">
    <inkscape:perspective
       sodipodi:type="inkscape:persp3d"
       inkscape:vp_x="0 : 315 : 1"
       inkscape:vp_y="0 : 1000 : 0"
       inkscape:vp_z="1500 : 315 : 1"
       inkscape:persp3d-origin="750 : 210 : 1"
       id="perspective9" />
    <inkscape:perspective
       id="perspective2831"
       inkscape:persp3d-origin="0.5 : 0.33333333 : 1"
       inkscape:vp_z="1 : 0.5 : 1"
       inkscape:vp_y="0 : 1000 : 0"
       inkscape:vp_x="0 : 0.5 : 1"
       sodipodi:type="inkscape:persp3d" />
    <inkscape:perspective
       id="perspective2831-4"
       inkscape:persp3d-origin="0.5 : 0.33333333 : 1"
       inkscape:vp_z="1 : 0.5 : 1"
       inkscape:vp_y="0 : 1000 : 0"
       inkscape:vp_x="0 : 0.5 : 1"
       sodipodi:type="inkscape:persp3d" />
    <inkscape:perspective
       id="perspective2831-48"
       inkscape:persp3d-origin="0.5 : 0.33333333 : 1"
       inkscape:vp_z="1 : 0.5 : 1"
       inkscape:vp_y="0 : 1000 : 0"
       inkscape:vp_x="0 : 0.5 : 1"
       sodipodi:type="inkscape:persp3d" />
    <inkscape:perspective
       id="perspective2831-45"
       inkscape:persp3d-origin="0.5 : 0.33333333 : 1"
       inkscape:vp_z="1 : 0.5 : 1"
       inkscape:vp_y="0 : 1000 : 0"
       inkscape:vp_x="0 : 0.5 : 1"
       sodipodi:type="inkscape:persp3d" />
    <inkscape:perspective
       id="perspective2831-7"
       inkscape:persp3d-origin="0.5 : 0.33333333 : 1"
       inkscape:vp_z="1 : 0.5 : 1"
       inkscape:vp_y="0 : 1000 : 0"
       inkscape:vp_x="0 : 0.5 : 1"
       sodipodi:type="inkscape:persp3d" />
    <inkscape:perspective
       id="perspective2831-2"
       inkscape:persp3d-origin="0.5 : 0.33333333 : 1"
       inkscape:vp_z="1 : 0.5 : 1"
       inkscape:vp_y="0 : 1000 : 0"
       inkscape:vp_x="0 : 0.5 : 1"
       sodipodi:type="inkscape:persp3d" />
    <inkscape:perspective
       id="perspective2831-1"
       inkscape:persp3d-origin="0.5 : 0.33333333 : 1"
       inkscape:vp_z="1 : 0.5 : 1"
       inkscape:vp_y="0 : 1000 : 0"
       inkscape:vp_x="0 : 0.5 : 1"
       sodipodi:type="inkscape:persp3d" />
    <inkscape:perspective
       id="perspective2833"
       inkscape:persp3d-origin="0.5 : 0.33333333 : 1"
       inkscape:vp_z="1 : 0.5 : 1"
       inkscape:vp_y="0 : 1000 : 0"
       inkscape:vp_x="0 : 0.5 : 1"
       sodipodi:type="inkscape:persp3d" />
    <inkscape:perspective
       id="perspective2851"
       inkscape:persp3d-origin="0.5 : 0.33333333 : 1"
       inkscape:vp_z="1 : 0.5 : 1"
       inkscape:vp_y="0 : 1000 : 0"
       inkscape:vp_x="0 : 0.5 : 1"
       sodipodi:type="inkscape:persp3d" />
    <inkscape:perspective
       id="perspective2929"
       inkscape:persp3d-origin="0.5 : 0.33333333 : 1"
       inkscape:vp_z="1 : 0.5 : 1"
       inkscape:vp_y="0 : 1000 : 0"
       inkscape:vp_x="0 : 0.5 : 1"
       sodipodi:type="inkscape:persp3d" />
  </defs>
  <sodipodi:namedview
     id="base"
     pagecolor="#ffffff"
     bordercolor="#666666"
     borderopacity="1.0"
     gridtolerance="10000"
     guidetolerance="10"
     objecttolerance="10"
     inkscape:pageopacity="0.0"
     inkscape:pageshadow="2"
     inkscape:zoom="0.70710678"
     inkscape:cx="746.58407"
     inkscape:cy="176.34975"
     inkscape:document-units="px"
     inkscape:current-layer="layer1"
     width="1500px"
     height="630px"
     inkscape:window-width="1920"
     inkscape:window-height="1001"
     inkscape:window-x="-9"
     inkscape:window-y="-9"
     showgrid="false"
     inkscape:window-maximized="1" />
  <metadata
     id="metadata4208">
    <rdf:RDF>
      <cc:Work
         rdf:about="">
        <dc:format>image/svg+xml</dc:format>
        <dc:type
           rdf:resource="http://purl.org/dc/dcmitype/StillImage" />
        <dc:title />
      </cc:Work>
    </rdf:RDF>
  </metadata>
  <g
     inkscape:label="sign"
     inkscape:groupmode="layer"
     id="layer1">
    <path
       style="fill:#005d35;fill-opacity:1;stroke:none"
       d="m 55,0 1390,0 c 30.47,0 55,24.53 55,55 l 0,520 c 0,30.47 -24.53,55 -55,55 L 55,630 C 24.53,630 0,605.47 0,575 L 0,55 C 0,24.53 24.53,0 55,0 z"
       id="rect_bg" />
    <text
       xml:space="preserve"
       style="font-size:36px;font-style:normal;font-variant:normal;font-weight:normal;font-stretch:normal;text-align:start;line-height:125%;writing-mode:lr-tb;text-anchor:start;fill:#000000;fill-opacity:1;stroke:none;font-family:GD-HighwayGothicJA-OTF;-inkscape-font-specification:GD-HighwayGothicJA-OTF"
       x="114"
       y="100"
       id="text2819"
       sodipodi:linespacing="125%"><tspan
         sodipodi:role="line"
         id="tspan2821" /></text>
    <g
       id="g4192"
       transform="translate(-0.83018633,0)">
      <g
         id="text2815"
         style="font-style:normal;font-variant:normal;font-weight:normal;font-stretch:normal;font-size:191.58557129px;line-height:125%;font-family:GD-HighwayGothicJA-OTF;-inkscape-font-specification:GD-HighwayGothicJA-OTF;text-align:start;writing-mode:lr-tb;text-anchor:start;fill:#ffffff;fill-opacity:1;stroke:none"
         transform="scale(1.0024675,0.99753857)">
        <path
           id="path2896"
           d="m 123.2915,147.00335 0,24.9058 -79.890157,0 0,100.00638 79.890157,0 0,61.68976 18.39198,0 0,-61.68976 79.89015,0 0,-100.00638 -79.89015,0 0,-24.9058 z m 79.89015,42.53145 0,64.37192 -61.49817,0 0,-64.37192 z m -142.154661,0 62.264511,0 0,64.37192 -62.264511,0 z"
           inkscape:connector-curvature="0" />
      </g>
      <g
         id="text2815-1"
         style="font-style:normal;font-variant:normal;font-weight:normal;font-stretch:normal;font-size:191.39889526px;line-height:125%;font-family:GD-HighwayGothicJA-OTF;-inkscape-font-specification:GD-HighwayGothicJA-OTF;text-align:start;writing-mode:lr-tb;text-anchor:start;fill:#ffffff;fill-opacity:1;stroke:none"
         transform="scale(1.0005639,0.99943643)">
        <path
           id="path2893"
           d="m 360.28076,332.6691 17.22568,0 0,-20.09662 56.46194,0 c 1.23194,-0.012 2.35639,-0.22729 3.37336,-0.64597 1.01661,-0.41867 1.99752,-0.96894 2.94273,-1.65079 0.68166,-0.94502 1.23192,-1.92592 1.65079,-2.94272 0.41849,-1.01679 0.63381,-2.14124 0.64596,-3.37336 -0.06,-13.55324 -1.61509,-25.20448 -4.66529,-34.95377 -3.05055,-9.74921 -7.23735,-17.81177 -12.56039,-24.18773 -2.02179,-2.47612 -4.19892,-4.65325 -6.5314,-6.5314 -2.33281,-1.878 -4.74918,-3.52879 -7.24914,-4.95238 4.01917,-3.2736 7.70355,-7.0138 11.05315,-11.22062 3.34926,-4.20664 6.36376,-8.76028 9.04348,-13.66092 3.09406,-6.03287 5.51842,-12.24527 7.27306,-18.63723 1.75428,-6.39171 2.64747,-12.93906 2.67955,-19.64206 l 0,-14.54612 -81.34348,0 z m -97.61218,-177.04169 0,17.22567 11.10099,0 5.3591,49.76308 -16.46009,0 0,17.22568 88.04236,0 0,-17.22568 -16.4601,0 5.3591,-49.76308 11.101,0 0,-17.22567 -35.40834,0 0,-9.56983 -17.22568,0 0,9.56983 z m 147.94944,53.2082 c -1.94203,2.86706 -4.03941,5.41104 -6.29216,7.63194 -2.25304,2.22109 -4.49397,4.14303 -6.7228,5.76581 -4.81695,2.90294 -8.96386,4.37031 -12.44077,4.40212 l -7.65585,0 0,-53.7824 46.89212,0 c -0.44277,6.22451 -1.90216,12.48476 -4.37819,18.78078 -2.47635,6.29626 -5.61047,12.03017 -9.40235,17.20175 z m -80.00371,56.84474 0,43.0642 -47.84911,0 0,-43.0642 z m 17.22568,-17.22568 -82.30047,0 0,77.51556 82.30047,0 z m -51.29424,-25.83851 -5.3591,-49.76308 31.00622,0 -5.3591,49.76308 z m 80.96069,72.73064 0,-51.48564 8.61284,0 c 4.82066,-0.0438 9.43809,0.85737 13.85231,2.70348 4.41393,1.84624 8.40933,4.9006 11.9862,9.1631 3.41308,3.78013 6.29997,8.89998 8.66069,15.35956 2.3604,6.45967 3.81182,14.54616 4.35427,24.2595 z"
           inkscape:connector-curvature="0" />
      </g>
      <g
         id="text2815-0"
         style="font-style:normal;font-variant:normal;font-weight:normal;font-stretch:normal;font-size:193.13136292px;line-height:125%;font-family:GD-HighwayGothicJA-OTF;-inkscape-font-specification:GD-HighwayGothicJA-OTF;text-align:start;writing-mode:lr-tb;text-anchor:start;fill:#ffffff;fill-opacity:1;stroke:none"
         transform="scale(1.0062192,0.99381926)">
        <path
           sodipodi:nodetypes="ccccccssccsccccccccccccccccccccccccccccccccccccccccccccccccccccccccccccccccccccsccsccccsccsc"
           id="path2872"
           d="m 506.62334,148.06703 0,32.0594 -26.07239,0 0,17.3816 26.07239,0 0,5.79386 c -0.0882,6.3674 -1.45684,14.27613 -4.10577,23.72624 -2.64899,9.45027 -6.04901,18.93265 -10.20007,28.44717 -4.15109,9.51462 -8.52391,17.55212 -13.11846,24.1125 l 14.48467,9.46331 c 2.22901,-3.11015 4.43389,-6.59451 6.61466,-10.4531 2.18073,-3.85852 4.28905,-7.97055 6.32497,-12.3361 l 0,67.20885 17.3816,0 1.7e-4,-93.86079 9.07655,10.62265 13.13332,-11.20224 -22.20987,-26.45853 -1.7e-4,-15.06382 19.31289,0 0,-17.3816 -19.31289,0 0,-32.0594 -17.3816,0 z m 75.32027,-0.96564 -17.3816,0 0,15.45031 -15.45031,0 0,17.3816 15.45031,0 0,13.51902 -15.45031,0 0,17.3816 46.35093,0 0,12.55338 -46.35093,0 0,77.25155 110.08346,3.2e-4 0,-77.25187 -46.35093,0 0,-12.55338 46.35093,0 0,-17.3816 -15.45031,0 0,-13.51902 15.45031,0 0,-17.3816 -15.45031,0 0,-15.45031 -17.3816,0 0,15.45031 -44.41964,0 0,-15.45031 z m 59.86995,136.15586 -28.96933,0 0,-12.55338 28.96933,0 0,12.55338 z m -75.32026,0 0,-12.55338 28.96933,0 0,12.55338 -28.96933,0 z m 75.32026,-42.48836 0,12.55338 -28.96933,0 0,-12.55338 28.96933,0 z m -75.32026,0 28.96933,0 0,12.55338 -28.96933,0 0,-12.55338 z m 15.45031,-47.31657 0,-13.51902 44.41964,0 0,13.51902 -44.41964,0 z m 42.68148,119.54677 c 4.38146,4.90065 9.37866,9.10119 14.99163,12.60166 5.61264,3.50045 12.20315,6.44566 19.77157,8.83565 l 5.21448,-16.60908 c -5.87452,-1.99165 -11.0729,-4.28505 -15.59516,-6.88022 -4.52261,-2.59516 -8.46565,-5.70936 -11.82914,-9.34261 l -12.55338,11.3946 z m -40.94332,0 -12.55338,-11.3946 c -3.36376,3.63324 -7.3068,6.74744 -11.82915,9.34261 -4.52252,2.59517 -9.72089,4.88857 -15.59515,6.88022 l 5.21448,16.60908 c 7.56815,-2.38999 14.15867,-5.3352 19.77157,-8.83565 5.6127,-3.50047 10.60991,-7.70101 14.99163,-12.60166 z"
           inkscape:connector-curvature="0" />
      </g>
      <g
         id="text2815-5"
         style="font-style:normal;font-variant:normal;font-weight:normal;font-stretch:normal;font-size:122.33922577px;line-height:125%;font-family:GD-HighwayGothicJA-OTF;-inkscape-font-specification:GD-HighwayGothicJA-OTF;text-align:start;writing-mode:lr-tb;text-anchor:start;fill:#ffffff;fill-opacity:1;stroke:none"
         transform="scale(0.99672536,1.0032854)">
        <path
           id="path2890"
           d="m 987.60697,211.68477 0,11.13272 -41.35013,0 0,105.5774 93.95536,0 0,-105.5774 -41.35017,0 0,-11.13272 z m 41.35013,22.7548 0,19.45169 -71.44519,0 0,-19.45169 z m 0,82.70025 -71.44519,0 0,-21.16441 71.44519,0 z m 0,-52.11584 0,19.69637 -71.44519,0 0,-19.69637 z"
           inkscape:connector-curvature="0" />
      </g>
      <g
         id="text2815-11"
         style="font-style:normal;font-variant:normal;font-weight:normal;font-stretch:normal;font-size:122.61639404px;line-height:125%;font-family:GD-HighwayGothicJA-OTF;-inkscape-font-specification:GD-HighwayGothicJA-OTF;text-align:start;writing-mode:lr-tb;text-anchor:start;fill:#ffffff;fill-opacity:1;stroke:none"
         transform="scale(1.0022485,0.99775659)">
        <path
           id="path2887"
           d="m 1069.5914,318.68871 0,11.28056 54.1957,0 0,-11.28056 -21.7028,0 0,-6.00813 18.6375,0 0,-11.28056 -18.6375,0 0,-5.64028 18.6375,0 0,-45.73533 -18.6375,0 0,-5.64028 21.7028,0 0,-11.77102 -21.7028,0 0,-5.27244 c 2.4931,-0.15828 5.4461,-0.51591 8.8589,-1.07288 3.4128,-0.55678 6.6723,-1.46617 9.7786,-2.72818 l -4.2916,-10.42226 c -3.9952,1.46893 -8.0211,2.363 -12.0775,2.6822 -4.0566,0.31941 -6.2432,0.44714 -6.5599,0.38317 l -23.4194,0 0,11.28057 16.553,0 0,5.14982 -21.335,0 0,11.77102 21.335,0 0,5.64028 -18.2697,0 0,45.73533 18.2697,0 0,5.64028 -18.2697,0 0,11.28056 18.2697,0 0,6.00813 z m 58.9777,-79.57702 0,11.28057 14.7138,0 c -10e-5,4.77438 -10e-5,8.74403 0,11.90896 -10e-5,3.16505 -10e-5,4.83567 0,5.01188 -0.4043,9.75171 -1.1218,17.78221 -2.1526,24.09154 -1.0309,6.30939 -2.4024,11.97842 -4.1144,17.00713 -1.7121,5.02872 -3.792,10.49795 -6.2397,16.40768 l -0.8583,1.71661 10.7901,4.29152 0.8583,-1.71661 c 2.4484,-6.14891 4.5677,-11.90272 6.3578,-17.26144 1.7899,-5.35871 3.2734,-11.43949 4.4504,-18.24236 1.1769,-6.80282 2.07,-15.44489 2.6794,-25.92622 l 0,-17.28869 14.7138,0 0,35.80352 c 0,9.98802 -0.4318,18.33604 -1.3028,25.04408 -0.8712,6.70805 -2.1944,11.80678 -3.9697,15.2962 l 10.0545,5.14982 c 2.3244,-4.26343 4.0512,-10.14382 5.1804,-17.64121 1.129,-7.49737 1.691,-16.78032 1.686,-27.84889 l 0,-47.08409 -26.3622,0 0,-26.36218 -11.771,0 c -10e-5,0.26322 -10e-5,2.98629 0,8.16921 -10e-5,5.18313 -10e-5,11.24744 0,18.19297 z m -19.0053,22.56113 0,5.64028 -7.4795,0 0,-5.64028 z m 0,22.80636 -7.4795,0 0,-5.88552 7.4795,0 z m -25.6265,0 0,-5.88552 6.9891,0 0,5.88552 z m 0,-22.80636 6.9891,0 0,5.64028 -6.9891,0 z"
           inkscape:connector-curvature="0" />
      </g>
      <g
         id="text2815-7"
         style="font-style:normal;font-variant:normal;font-weight:normal;font-stretch:normal;font-size:122.70495605px;line-height:125%;font-family:GD-HighwayGothicJA-OTF;-inkscape-font-specification:GD-HighwayGothicJA-OTF;text-align:start;writing-mode:lr-tb;text-anchor:start;fill:#ffffff;fill-opacity:1;stroke:none"
         transform="scale(0.99857101,1.001431)">
        <path
           id="path2884"
           d="m 1257.8316,210.7906 0,11.41141 -46.8727,0 0,11.65682 46.8727,0 0,7.85302 -42.9462,0 0,52.39434 42.9462,0 0,8.58924 -53.376,0 0,11.28871 53.376,0 0,17.91469 11.6568,0 0,-17.91469 53.376,0 0,-11.28871 -53.376,0 0,-8.58924 42.4554,0 0,-52.39434 -42.4554,0 0,-7.85302 46.8727,0 0,-11.65682 -46.8727,0 0,-11.41141 z m 42.9462,42.57807 0,8.71194 -31.2894,0 0,-8.71194 z m 0,29.44881 -31.2894,0 0,-9.08005 31.2894,0 z m -74.2356,0 0,-9.08005 31.2894,0 0,9.08005 z m 0,-29.44881 31.2894,0 0,8.71194 -31.2894,0 z"
           inkscape:connector-curvature="0" />
      </g>
      <g
         id="text2815-4"
         style="font-style:normal;font-variant:normal;font-weight:normal;font-stretch:normal;font-size:122.62975311px;line-height:125%;font-family:GD-HighwayGothicJA-OTF;-inkscape-font-specification:GD-HighwayGothicJA-OTF;text-align:start;writing-mode:lr-tb;text-anchor:start;fill:#ffffff;fill-opacity:1;stroke:none"
         transform="scale(1.0001678,0.99983222)">
        <path
           id="path2881"
           d="m 1364.0968,303.77385 0,-44.75929 -22.0731,0 0,11.03654 11.0365,0 0,33.72275 c 0.1124,1.93651 -0.4189,4.16425 -1.5941,6.68323 -1.1752,2.51899 -3.6687,5.4825 -7.4803,8.89054 l -3.1884,2.69782 6.8672,8.95186 3.4336,-2.94308 c 2.8204,-2.473 5.1504,-4.88469 6.9898,-7.23506 0.1814,-0.17883 0.3398,-0.34234 0.4752,-0.49051 0.1354,-0.14818 0.2631,-0.31168 0.3832,-0.49051 1.2365,0.98613 2.5343,1.92628 3.8934,2.82045 1.3591,0.89415 2.7183,1.71167 4.0774,2.45256 3.1219,1.58649 6.719,2.73613 10.7913,3.44892 4.0722,0.71276 8.6504,1.03466 13.7344,0.96569 l 66.4644,0 0,-11.03653 -66.4644,0 c -3.8067,0.0639 -7.322,-0.1865 -10.5461,-0.7511 -3.2241,-0.5646 -6.1263,-1.45877 -8.7066,-2.68249 -1.5431,-0.68978 -3.0555,-1.54818 -4.5372,-2.57519 -1.4818,-1.02701 -2.8716,-2.13066 -4.1694,-3.31096 0.2402,-1.23649 0.4037,-2.31971 0.4906,-3.24965 0.087,-0.92992 0.1277,-1.64525 0.1226,-2.14599 z m -22.6862,-79.2178 18.1489,10.54602 5.5183,-9.44237 -18.149,-10.54602 z m 31.8833,8.7066 36.7884,0 0,9.81025 -29.4307,0 0,68.05864 69.2849,0 0,-68.05864 -28.8176,0 0,-9.81025 36.7884,0 0,-11.03654 -18.3942,0 0,-9.81025 -11.0365,0 0,9.81025 -25.7519,0 0,-9.81025 -11.0366,0 0,9.81025 -18.3942,0 z m 65.6061,20.84679 0,7.97083 -47.2119,0 0,-7.97083 z m -47.2119,45.98556 0,-7.97083 47.2119,0 0,7.97083 z m 0,-19.00737 0,-7.97083 47.2119,0 0,7.97083 z"
           inkscape:connector-curvature="0" />
      </g>
      <g
         id="g2952">
        <g
           transform="scale(1.0003408,0.99965931)"
           style="font-style:normal;font-variant:normal;font-weight:normal;font-stretch:normal;font-size:191.34902954px;line-height:125%;font-family:GD-HighwayGothicJA-OTF;-inkscape-font-specification:GD-HighwayGothicJA-OTF;text-align:start;writing-mode:lr-tb;text-anchor:start;fill:#ffffff;fill-opacity:1;stroke:none"
           id="text2815-8">
          <path
             d="m 808.76627,165.08438 -8.80194,0 0,114.04256 c 0.0358,7.96881 -0.8492,14.99282 -2.65493,21.07204 -1.80593,6.07924 -4.74788,11.62031 -8.82586,16.62323 l 14.15964,10.71541 c 5.41739,-6.37026 9.36391,-13.52981 11.83957,-21.47866 2.47543,-7.94884 3.69526,-16.92617 3.6595,-26.93202 l 0,-59.50879 35.01643,0 0,111.93774 17.60388,0 0,-111.93774 17.60388,-3.3e-4 0,-18.17759 -70.22419,0 -7e-5,-19.51725 c 10.26482,-0.71742 20.97231,-2.82233 32.12238,-6.31454 11.14976,-3.49193 22.0007,-8.08424 32.55283,-13.77695 l -8.80194,-15.49907 c -12.63302,6.64148 -24.67987,11.44108 -36.14058,14.39883 -11.46099,2.95804 -21.16385,4.40909 -29.1086,4.35313 z"
             id="path2950"
             inkscape:connector-curvature="0" />
          <path
             d="m 709.57118,181.92298 3.1e-4,135.13704 72.55897,0 0,-18.17719 -54.38147,0 0,-116.95985 -18.17781,0 z"
             id="path2869"
             inkscape:connector-curvature="0" />
        </g>
        <g
           transform="matrix(0.72199308,0,0,0.75340239,183.81791,37.704658)"
           style="font-style:normal;font-variant:normal;font-weight:normal;font-stretch:normal;font-size:191.34902954px;line-height:125%;font-family:GD-HighwayGothicJA-OTF;-inkscape-font-specification:GD-HighwayGothicJA-OTF;text-align:start;writing-mode:lr-tb;text-anchor:start;fill:#ffffff;fill-opacity:1;stroke:none"
           id="text2815-8-1">
          <path
             d="m 790.63652,335.84704 25.18584,0 0,-58.29238 19.02095,14.01243 14.45444,-17.36257 -33.47539,-26.21043 0,-12.604 28.16381,0 0,-24.11874 -28.16381,0 0,-58.16029 -25.18584,0 0,58.16029 -30.46015,0 0,24.11874 22.0778,0 c -2.6031,8.89768 -4.77831,16.93423 -7.35741,24.10967 -2.5793,7.17554 -5.44298,13.48997 -7.75908,18.94331 -2.4357,5.6886 -5.28909,10.33673 -7.17459,13.94438 -1.8856,3.6077 -3.23239,5.91183 -4.04159,6.91239 l 17.54898,15.83331 c 1.7142,-2.10082 3.6436,-5.21817 5.7883,-9.35206 4.66991,-7.60756 10.19623,-20.75396 11.37774,-25.57181 l 0,55.63776 z"
             id="path2919"
             sodipodi:nodetypes="ccccccccccccccccscsccccc"
             inkscape:connector-curvature="0" />
          <path
             d="m 767.26596,206.13829 20.84802,-7.65386 c -4.79334,-10.41009 -10.45862,-20.47732 -14.4467,-31.21341 -1.2358,-3.45605 -1.9693,-6.63718 -2.2005,-9.54341 l -22.76142,2.4875 c 0.7176,4.28951 1.8178,8.48318 3.3007,12.58104 3.84494,11.61043 9.72272,22.42014 15.2599,33.34214 z"
             id="path2917"
             sodipodi:nodetypes="ccccccc"
             inkscape:connector-curvature="0" />
          <path
             d="m 818.56199,201.30617 21.3894,5.3577 12.43779,-39.22605 -21.38969,-5.3577 -12.4375,39.22605 z"
             id="path2875"
             sodipodi:nodetypes="ccccc"
             inkscape:connector-curvature="0" />
        </g>
      </g>
    </g>
    <g
       transform="matrix(1.005115,-0.00113549,0.00114656,0.99490973,0,0)"
       style="font-style:normal;font-variant:normal;font-weight:normal;font-stretch:normal;font-size:96.96779633px;line-height:125%;font-family:GD-HighwayGothicJA-OTF;-inkscape-font-specification:GD-HighwayGothicJA-OTF;text-align:center;letter-spacing:10px;writing-mode:lr-tb;text-anchor:middle;fill:#ffffff;fill-opacity:1;stroke:none"
       id="text3648-1-0">
      <path
         d="m 151.32617,393.63216 c -22.59349,0 -32.87208,21.91472 -32.87208,47.99906 0,25.8904 10.27859,47.80512 32.87208,47.80512 19.8784,0 29.47821,-14.35123 29.47821,-32.19331 l -13.76942,0 c 0,11.63614 -4.75143,18.52085 -15.70879,18.52085 -11.63613,0 -18.52085,-11.63613 -18.52085,-34.13266 0,-22.5935 6.88472,-34.3266 18.52085,-34.3266 11.63614,0 15.70879,8.92104 15.70879,17.84207 l 13.76942,0 c 0,-19.19962 -11.63613,-31.51453 -29.47821,-31.51453 z"
         style=""
         id="path4217" />
      <path
         d="m 246.44571,396.34726 13.67246,0 0,90.37398 -13.67246,0 0,-40.3386 -29.47821,0 0,40.3386 -13.67245,0 0,-90.37398 13.67245,0 0,36.36292 29.47821,0 0,-36.36292 z"
         style=""
         id="path4219" />
      <path
         d="m 327.08827,396.34726 13.67246,0 0,63.70784 c 0,12.99368 -6.49684,29.38124 -28.41157,29.38124 -21.91472,0 -28.41156,-16.38756 -28.41156,-29.38124 l 0,-63.70784 13.67246,0 0,63.70784 c 0,10.27859 6.20594,15.70878 14.7391,15.70878 8.53317,0 14.73911,-5.43019 14.73911,-15.70878 l 0,-63.70784 z"
         style=""
         id="path4221" />
      <path
         d="m 405.30664,439.20702 c 9.59981,2.7151 15.41788,9.21194 15.41788,22.8844 0,17.74511 -13.67246,24.62982 -23.95105,24.62982 l -32.19331,0 0,-90.37398 32.19331,0 c 10.27859,0 21.91472,6.20594 21.91472,24.04801 0,8.1453 -4.46051,15.70878 -13.38155,18.81175 z m -11.24827,-29.76911 -15.80575,0 0,23.95105 15.80575,0 c 6.78775,0 10.95736,-6.20594 10.95736,-12.31491 0,-6.20594 -4.16961,-11.63614 -10.95736,-11.63614 z m 0,64.28965 c 8.82407,0 12.99369,-5.52717 12.99369,-14.4482 0,-8.82407 -6.20594,-13.57549 -12.99369,-13.57549 l -15.80575,0 0,28.02369 15.80575,0 z"
         style=""
         id="path4223" />
      <path
         d="m 486.2901,396.34726 13.67246,0 0,63.70784 c 0,12.99368 -6.49685,29.38124 -28.41157,29.38124 -21.91472,0 -28.41156,-16.38756 -28.41156,-29.38124 l 0,-63.70784 13.67246,0 0,63.70784 c 0,10.27859 6.20594,15.70878 14.7391,15.70878 8.53317,0 14.73911,-5.43019 14.73911,-15.70878 l 0,-63.70784 z"
         style=""
         id="path4225" />
      <path
         d="m 614.45917,393.63216 c -22.5935,0 -33.55086,21.91472 -33.55086,47.99906 0,25.8904 10.95736,47.80512 33.55086,47.80512 22.5935,0 33.55086,-21.91472 33.55086,-47.80512 0,-26.08434 -10.95736,-47.99906 -33.55086,-47.99906 z m -19.19962,47.99906 c 0,-22.5935 7.56349,-34.3266 19.19962,-34.3266 11.63614,0 19.19963,11.7331 19.19963,34.3266 0,22.49653 -7.56349,34.13266 -19.19963,34.13266 -11.63613,0 -19.19962,-11.63613 -19.19962,-34.13266 z"
         style=""
         id="path4227" />
      <path
         d="m 700.64105,396.34726 c 15.03001,0 30.83576,13.09065 30.83576,45.28396 0,32.09634 -15.80575,45.09002 -30.83576,45.09002 l -30.15699,0 0,-90.37398 30.15699,0 z m -2.13329,76.70152 c 8.92103,0 18.52085,-7.56348 18.52085,-31.41756 0,-24.04802 -9.59982,-31.51454 -18.52085,-31.51454 l -14.35124,0 0,62.9321 14.35124,0 z"
         style=""
         id="path4229" />
      <path
         d="m 802.35894,486.72124 -5.1393,-19.87839 -26.66614,0 -5.13929,19.87839 -14.44821,0 25.40557,-90.37398 15.03,0 25.40557,90.37398 -14.4482,0 z m -28.41157,-33.55085 19.8784,0 -9.89072,-38.30228 -9.98768,38.30228 z"
         style=""
         id="path4231" />
      <path
         d="m 880.98031,396.34726 13.67246,0 0,90.37398 -16.38755,0 -26.76312,-64.28965 0,64.28965 -13.67246,0 0,-90.37398 16.38756,0 26.76311,63.99874 0,-63.99874 z"
         style=""
         id="path4233" />
      <path
         d="m 990.62857,473.04878 37.72043,0 0,13.67246 -51.39289,0 0,-90.37398 50.03539,0 0,13.76942 -36.36293,0 0,22.5935 32.19333,0 0,13.67246 -32.19333,0 0,26.66614 z"
         style=""
         id="path4235" />
      <path
         d="m 1109.7689,486.72124 -15.8058,0 -15.8057,-32.58118 -15.7088,32.58118 -15.8058,0 24.7268,-45.7688 -23.2723,-44.60518 15.7088,0 14.3513,31.51453 14.4482,-31.51453 15.7087,0 -23.2722,44.60518 24.7268,45.7688 z"
         style=""
         id="path4237" />
      <path
         d="m 1162.8589,396.34726 c 10.2786,0 21.9147,10.27858 21.9147,28.12066 0,17.84207 -11.6361,28.02369 -21.9147,28.02369 l -18.5209,0 0,34.22963 -13.6724,0 0,-90.37398 32.1933,0 z m -2.7151,42.47189 c 6.7877,0 10.9574,-6.10897 10.9574,-14.35123 0,-8.24226 -4.1697,-14.35124 -10.9574,-14.35124 l -15.8058,0 0,28.70247 15.8058,0 z"
         style=""
         id="path4239" />
      <path
         d="m 1277.2447,396.34726 14.3512,0 -18.5208,90.37398 -12.9937,0 -12.024,-60.89577 -12.024,60.89577 -12.9937,0 -18.5208,-90.37398 14.4482,0 11.6361,63.99874 11.6361,-63.99874 11.6362,0 11.6361,63.99874 11.7331,-63.99874 z"
         style=""
         id="path4241" />
      <path
         d="m 1372.9082,396.34726 -24.7268,54.39893 0,35.97505 -13.6724,0 0,-35.97505 -24.7268,-54.39893 15.8057,0 15.7088,40.43557 15.8058,-40.43557 15.8057,0 z"
         style=""
         id="path4243" />
    </g>
  </g>
</svg>
