<?xml version="1.0" encoding="UTF-8" standalone="no"?>
<!-- Created with Inkscape (http://www.inkscape.org/) -->

<svg
   width="602"
   height="602"
   viewBox="0 0 602 602.00002"
   version="1.1"
   id="svg5"
   sodipodi:docname="Template 9.svg"
   inkscape:version="1.2.2 (732a01da63, 2022-12-09)"
   xmlns:inkscape="http://www.inkscape.org/namespaces/inkscape"
   xmlns:sodipodi="http://sodipodi.sourceforge.net/DTD/sodipodi-0.dtd"
   xmlns="http://www.w3.org/2000/svg"
   xmlns:svg="http://www.w3.org/2000/svg">
  <sodipodi:namedview
     id="namedview7"
     pagecolor="#ffffff"
     bordercolor="#111111"
     borderopacity="1"
     inkscape:pageshadow="0"
     inkscape:pageopacity="0"
     inkscape:pagecheckerboard="1"
     inkscape:document-units="px"
     showgrid="false"
     units="px"
     inkscape:showpageshadow="0"
     inkscape:deskcolor="#d1d1d1"
     inkscape:zoom="0.93570313"
     inkscape:cx="514.05193"
     inkscape:cy="286.41563"
     inkscape:window-width="1920"
     inkscape:window-height="1057"
     inkscape:window-x="-8"
     inkscape:window-y="-8"
     inkscape:window-maximized="1"
     inkscape:current-layer="layer1" />
  <defs
     id="defs2" />
  <g
     inkscape:label="Lager 1"
     inkscape:groupmode="layer"
     id="layer1"
     transform="translate(0,-396)">
    <circle
       style="fill:#e63228;fill-rule:evenodd;stroke:none;stroke-width:0;stroke-linecap:round;fill-opacity:1"
       id="path37419"
       cx="301"
       cy="697"
       r="300" />
    <circle
       style="fill:#ffffff;fill-rule:evenodd;stroke:none;stroke-width:0;stroke-linecap:round;stroke-opacity:1;fill-opacity:1"
       id="path40339"
       cx="301"
       cy="697"
       r="228" />
    <rect
       style="fill:#000000;fill-rule:evenodd;stroke:none;stroke-width:0.435147;stroke-linecap:round;stroke-dashoffset:12;stroke-opacity:1;fill-opacity:1"
       id="rect218"
       width="420"
       height="90"
       x="91"
       y="652"
       rx="45"
       ry="45" />
    <path
       d="m 183.2,544 h 28.5 q 4.5,0 8.2,1.6 3.8,1.5 6.5,4.4 2.7,2.9 4.2,7.1 1.5,4.1 1.5,9.3 0,5.2 -1.5,9.4 -1.5,4.1 -4.2,7 -2.7,2.9 -6.5,4.5 -3.8,1.5 -8.2,1.5 H 196 V 616 h -12.8 z m 12.8,33.4 h 12.1 q 5.6,0 8,-2.9 2.5,-3 2.5,-8.1 0,-5.1 -2.5,-8 -2.4,-3 -8,-3 H 196 Z"
       id="path2063"
       style="font-size:100px;line-height:1.25;font-family:RutaCL;-inkscape-font-specification:RutaCL;text-align:center;text-anchor:middle;fill:#000000;fill-opacity:1;fill-rule:evenodd;stroke:none;stroke-width:1.04167;stroke-opacity:1" />
    <path
       d="m 279.80001,597.8 h -24.7 l -5.2,18.2 h -12.8 l 21.8,-72 h 18.8 l 20.6,72 h -13.5 z m -21.6,-10.8 h 18.7 l -8.9,-33.6 h -0.4 z"
       id="path2065"
       style="font-size:100px;line-height:1.25;font-family:RutaCL;-inkscape-font-specification:RutaCL;text-align:center;text-anchor:middle;fill:#000000;fill-opacity:1;fill-rule:evenodd;stroke:none;stroke-width:1.04167;stroke-opacity:1" />
    <path
       d="m 310.8001,544 h 29.1 q 4.8,0 8.5,1.5 3.8,1.5 6.4,4.3 2.6,2.7 3.9,6.6 1.4,3.8 1.4,8.5 0,5.2 -2,9 -1.9,3.8 -4.2,6.2 -2.7,2.9 -6.1,4.8 l 14.5,31.1 h -14.4 l -12.7,-29.2 h -11.6 V 616 h -12.8 z m 12.8,31.4 h 13.9 q 4.6,0 6.9,-2.7 2.3,-2.7 2.3,-7.7 0,-4.8 -2.3,-7.2 -2.3,-2.4 -6.4,-2.4 h -14.4 z"
       id="path2067"
       style="font-size:100px;line-height:1.25;font-family:RutaCL;-inkscape-font-specification:RutaCL;text-align:center;text-anchor:middle;fill:#000000;fill-opacity:1;fill-rule:evenodd;stroke:none;stroke-width:1.04167;stroke-opacity:1" />
    <path
       d="m 376.30016,544 h 42.5 v 11.4 h -29.7 v 18 h 24.8 l -1,11.4 h -23.8 v 19.8 h 29.7 V 616 h -42.5 z"
       id="path2069"
       style="font-size:100px;line-height:1.25;font-family:RutaCL;-inkscape-font-specification:RutaCL;text-align:center;text-anchor:middle;fill:#000000;fill-opacity:1;fill-rule:evenodd;stroke:none;stroke-width:1.04167;stroke-opacity:1" />
    <path
       d="M 173.35,804.5 V 850 h -12.7 v -72 h 13.7 l 25.2,48.2 V 778 h 12.7 v 72 h -13.7 z"
       id="path2071"
       style="font-size:100px;line-height:1.25;font-family:RutaCL;-inkscape-font-specification:RutaCL;text-align:center;text-anchor:middle;fill:#000000;fill-opacity:1;fill-rule:evenodd;stroke:none;stroke-width:1.04167;stroke-opacity:1" />
    <path
       d="m 237.94994,840.6 v -53.2 h -9.2 V 778 h 31 v 9.4 h -9.1 v 53.2 h 9.1 v 9.4 h -31 v -9.4 z"
       id="path2073"
       style="font-size:100px;line-height:1.25;font-family:RutaCL;-inkscape-font-specification:RutaCL;text-align:center;text-anchor:middle;fill:#000000;fill-opacity:1;fill-rule:evenodd;stroke:none;stroke-width:1.04167;stroke-opacity:1" />
    <path
       d="M 288.95,804.5 V 850 h -12.7 v -72 h 13.7 l 25.2,48.2 V 778 h 12.7 v 72 h -13.7 z m 32.4,-44.5 q 0,3.1 -1,5.4 -0.9,2.3 -2.5,3.9 -1.5,1.5 -3.6,2.3 -2,0.7 -4.2,0.7 -2.3,0 -4.4,-0.5 -2,-0.5 -3.9,-1 -1.8,-0.6 -3.6,-1.1 -1.8,-0.5 -3.4,-0.5 -2,0 -3.3,1.4 -1.3,1.3 -1.3,2.9 l -7.5,-2 q 0,-3.1 0.9,-5.4 1,-2.3 2.5,-3.8 1.6,-1.6 3.6,-2.3 2.1,-0.8 4.3,-0.8 2.2,0 4.3,0.5 2.1,0.5 3.9,1.1 1.9,0.5 3.6,1 1.8,0.5 3.5,0.5 2,0 3.3,-1.3 1.3,-1.3 1.3,-3 z"
       id="path2075"
       style="font-size:100px;line-height:1.25;font-family:RutaCL;-inkscape-font-specification:RutaCL;text-align:center;text-anchor:middle;fill:#000000;fill-opacity:1;fill-rule:evenodd;stroke:none;stroke-width:1.04167;stroke-opacity:1" />
    <path
       d="m 370.94995,851.2 q -5.9,0 -11.1,-2 -5.1,-2 -8.9,-6.4 -3.8,-4.4 -6,-11.4 -2.1,-7.1 -2.1,-17.2 0,-10.4 2.3,-17.5 2.3,-7.2 6.2,-11.6 3.9,-4.4 8.9,-6.3 5.1,-2 10.7,-2 5.5,0 10.6,2 5.1,1.9 9,6.3 3.9,4.4 6.2,11.6 2.3,7.1 2.3,17.5 0,10.1 -2.2,17.2 -2.1,7 -5.9,11.4 -3.8,4.4 -9,6.4 -5.1,2 -11,2 z m 0,-10.7 q 3.1,0 5.8,-1.3 2.7,-1.3 4.7,-4.3 2,-3.1 3.1,-8.1 1.1,-5.1 1.1,-12.6 0,-7.8 -1.2,-12.9 -1.2,-5.1 -3.3,-8.1 -2,-3.1 -4.7,-4.3 -2.6,-1.3 -5.5,-1.3 -2.9,0 -5.6,1.3 -2.7,1.2 -4.7,4.3 -2,3 -3.2,8.1 -1.2,5.1 -1.2,12.9 0,7.5 1.1,12.6 1.1,5 3.1,8.1 2,3 4.6,4.3 2.7,1.3 5.9,1.3 z"
       id="path2077"
       style="font-size:100px;line-height:1.25;font-family:RutaCL;-inkscape-font-specification:RutaCL;text-align:center;text-anchor:middle;fill:#000000;fill-opacity:1;fill-rule:evenodd;stroke:none;stroke-width:1.04167;stroke-opacity:1" />
    <path
       d="m 425.65005,796.2 q 0,3.6 2.4,5.7 2.4,2 6,3.6 3.7,1.5 7.9,3 4.3,1.4 7.9,3.9 3.7,2.4 6.1,6.3 2.4,3.9 2.4,10.2 0,4.8 -1.9,8.9 -1.8,4.1 -5.2,7.1 -3.4,2.9 -8.1,4.6 -4.7,1.7 -10.4,1.7 -5.7,0 -10,-1.7 -4.3,-1.7 -7.2,-3.8 -3.4,-2.5 -6,-5.6 l 7.2,-8.2 q 1.9,2.4 4.5,4.2 2.2,1.6 5.1,2.9 3,1.2 6.7,1.2 5.9,0 8.8,-2.7 3,-2.8 3,-7.1 0,-4.1 -2.4,-6.3 -2.4,-2.3 -6.1,-3.8 -3.6,-1.5 -7.8,-2.9 -4.2,-1.4 -7.9,-3.7 -3.6,-2.4 -6,-6.2 -2.4,-3.9 -2.4,-10.4 0,-4.1 1.5,-7.8 1.6,-3.7 4.6,-6.4 3,-2.8 7.3,-4.4 4.3,-1.7 10,-1.7 4.3,0 7.9,1 3.7,0.9 6.4,2.2 3.2,1.6 5.7,3.4 l -5.3,9.2 q -1.9,-1.2 -4.1,-2.3 -1.9,-0.9 -4.6,-1.6 -2.6,-0.8 -5.5,-0.8 -5.5,0 -8,2.3 -2.5,2.3 -2.5,6 z"
       id="path2079"
       style="font-size:100px;line-height:1.25;font-family:RutaCL;-inkscape-font-specification:RutaCL;text-align:center;text-anchor:middle;fill:#000000;fill-opacity:1;fill-rule:evenodd;stroke:none;stroke-width:1.04167;stroke-opacity:1" />
  </g>
</svg>
