<svg  xmlns="http://www.w3.org/2000/svg" version="1.1" width="360" height="185" xmlns:xlink="http://www.w3.org/1999/xlink" viewBox="8.883390426635742 9.780000686645508 342.2332458496094 173.22000122070312"><rect id="svgEditorBackground" x="8.899999618530273" y="9.780000686645508" width="342.20001220703125" height="173.22000122070312" style="fill:none;stroke:none;"/>
<!-- Created with the Wikimedia parliament diagram creator (http://tools.wmflabs.org/parliamentdiagram/parliamentinputform.html) -->
<g>
<text x="175" y="175" style="font-size:36px;font-weight:bold;text-align:center;text-anchor:middle;font-family:Sans-serif">25</text>
  
  <g style="fill:#318CE7; stroke:none" id="UCR-JR">
    <circle cx="31.51" cy="125.05" r="13.33"/>
    <circle cx="64.83" cy="131.40" r="13.33"/>
    <circle cx="101.96" cy="131.91" r="13.33"/>
    <circle cx="51.57" cy="87.40" r="13.33"/>
    <circle cx="83.77" cy="100.22" r="13.33"/>
    <circle cx="80.96" cy="56.46" r="13.33"/>
    <circle cx="127.41" cy="104.92" r="13.33"/>
    <circle cx="110.90" cy="75.84" r="13.33"/>
    <circle cx="117.55" cy="34.50" r="13.33"/>
    <circle cx="143.91" cy="60.32" r="13.33"/>
    <circle cx="161.46" cy="90.23" r="13.33"/>
    <circle cx="158.67" cy="23.11" r="13.33"/>
    <circle cx="180.00" cy="55.00" r="13.33"/>
    <circle cx="201.33" cy="23.11" r="13.33"/>
    <circle cx="198.54" cy="90.23" r="13.33"/>
    <circle cx="216.09" cy="60.32" r="13.33"/>
    <circle cx="242.45" cy="34.50" r="13.33"/>
  </g>
  <g style="fill:#005C9E; stroke:none" id="PDL">
    <circle cx="249.10" cy="75.84" r="13.33"/>
    <circle cx="232.59" cy="104.92" r="13.33"/>
    <circle cx="279.04" cy="56.46" r="13.33"/>
    <circle cx="276.23" cy="100.22" r="13.33"/>
    <circle cx="308.43" cy="87.40" r="13.33"/>
    <circle cx="258.04" cy="131.91" r="13.33"/>
    <circle cx="295.17" cy="131.40" r="13.33"/>
    <circle cx="328.49" cy="125.05" r="13.33"/>
  </g>
  
</g>
</svg>