<?xml version="1.0" encoding="UTF-8"?>
<svg width="1150.3" height="1226.5" version="1.0" xmlns="http://www.w3.org/2000/svg" xmlns:cc="http://creativecommons.org/ns#" xmlns:dc="http://purl.org/dc/elements/1.1/" xmlns:rdf="http://www.w3.org/1999/02/22-rdf-syntax-ns#" xmlns:xlink="http://www.w3.org/1999/xlink">
 <metadata>
  <rdf:RDF>
   <cc:Work rdf:about="">
    <dc:format>image/svg+xml</dc:format>
    <dc:type rdf:resource="http://purl.org/dc/dcmitype/StillImage"/>
    <dc:title/>
   </cc:Work>
  </rdf:RDF>
 </metadata>
 <g transform="translate(-92.911 62.98)" stroke="#000">
  <g transform="translate(1e-4 -.00356)">
   <path class="fil1 str1" d="m656.04 218.63-0.013 82.935 24.823 4e-3 0.013-82.935z" fill="#eac102" fill-rule="evenodd" stroke-linecap="round" stroke-linejoin="bevel" stroke-width="2.1"/>
   <path d="m652.9 268.57h31.108c4.0662 0 7.3398 3.2736 7.3398 7.3398 0 4.0663-3.2736 7.3398-7.3398 7.3398h-31.11c-4.0663 0-7.3398-3.2736-7.3398-7.3398 0-4.0663 3.2735-7.3398 7.3398-7.3398z" fill="#eac102" stroke-linecap="square" stroke-linejoin="round" stroke-width="2.1"/>
   <g transform="matrix(1.1576,0,0,1.1576,-584.64,-90.454)" fill-rule="evenodd">
    <path transform="translate(92.911,-62.98)" d="m989.56 199.25c-5.8466-8.1e-4 -10.493 4.1913-10.969 9.4375-5.3228 0.7762-9.4992 4.7795-9.5 9.875-8e-4 4.6331 3.4436 8.4553 8.0625 9.7188v42.531h-42.562c-1.3567-4.2634-5.4834-7.4679-10.562-7.4688-5.5598-8.4e-4 -9.9641 3.8413-10.812 8.7188-5.7248 0.43434-10.312 4.7045-10.312 10.062-1e-3 5.358 4.588 9.6261 10.312 10.062 0.8467 4.8778 5.2214 8.7176 10.781 8.7188 5.0557 8.4e-4 9.215-3.173 10.594-7.4062h42.562v0.0313l-0.0313 42.531c-4.6044 1.2715-8.032 5.0953-8.0312 9.7188 8e-4 5.0955 4.1772 9.0988 9.5 9.875 0.476 5.2462 5.1222 9.4383 10.969 9.4375 5.8469-8.9e-4 10.526-4.1917 11-9.4375 5.3221-0.77793 9.5-4.8108 9.5-9.9062 0-4.633-3.4738-8.4255-8.0938-9.6875v-42.562l42.562 0.0313c1.3774 4.2339 5.5071 7.4054 10.563 7.4062 5.56 8.1e-4 9.9324-3.8416 10.781-8.7188 5.7246-0.43462 10.312-4.7045 10.312-10.062 0-5.358-4.5882-9.6264-10.312-10.062-0.847-4.878-5.2213-8.7176-10.781-8.7188-5.0788-8.4e-4 -9.2041 3.2059-10.563 7.4688l-42.562-0.0313v-42.53c4.6201-1.262 8.0928-5.0544 8.0938-9.6875 0-5.0955-4.1779-9.1283-9.5-9.9062-0.4739-5.2458-5.1532-9.4366-11-9.4375z" fill="#eac102" stroke-linecap="round" stroke-linejoin="bevel" stroke-width="1.8141"/>
    <g transform="translate(-743.83,-12.806)" fill="#ed1c24" stroke-width="1.4685">
     <path class="fil5 str7" d="m1891.9 239.42c4.0913 0.0452 7.4458-3.2358 7.4911-7.3271 0.045-4.0911-3.236-7.4455-7.327-7.4908-4.0912-0.0452-7.4458 3.2358-7.491 7.3269-0.045 4.0913 3.2359 7.4457 7.3269 7.491z"/>
     <path class="fil5 str7" d="m1826.2 175.72c4.0913 0.0452 7.4458-3.2358 7.4911-7.3271 0.046-4.0911-3.236-7.4455-7.327-7.4908-4.0912-0.0452-7.4458 3.2358-7.491 7.3269-0.045 4.0913 3.2359 7.4457 7.3269 7.491z"/>
     <path class="fil5 str7" d="m1760.6 239.39c4.0913 0.0452 7.4458-3.2358 7.4911-7.3271 0.045-4.0911-3.236-7.4455-7.327-7.4908-4.0912-0.0452-7.4458 3.2358-7.491 7.3269-0.045 4.0913 3.2359 7.4457 7.3269 7.491z"/>
     <path class="fil5 str7" d="m1826.2 239.4c4.0913 0.0452 7.4458-3.2358 7.4911-7.3271 0.046-4.0911-3.236-7.4455-7.327-7.4908-4.0912-0.0452-7.4458 3.2358-7.491 7.3269-0.045 4.0913 3.2359 7.4457 7.3269 7.491z"/>
    </g>
    <path class="fil5 str7" d="m1082.4 290.89c4.0913 0.0452 7.4458-3.2358 7.4911-7.3271 0.046-4.0911-3.236-7.4455-7.327-7.4908-4.0912-0.0452-7.4458 3.2358-7.491 7.3269-0.045 4.0913 3.2359 7.4457 7.3269 7.491z" fill="#ed1c24" stroke-width="1.4685"/>
   </g>
  </g>
  <path d="m680.92 512.14-24.843-5e-3 -0.0798 584.84 12.583 59.654 12.599-59.65z" fill="#eac102" stroke-linecap="round" stroke-linejoin="bevel" stroke-width="2.1"/>
 </g>
 <g transform="translate(-69.966 -21.239)">
  <path class="fil6 str8" d="m879.54 368.11-0.4597 280.51c0.5145 221.06-212.5 272.11-233.84 280.76-22.27-9.1357-234.27-59.875-233.96-280.76l0.2879-280.51h467.98" fill="#e6e6e6" stroke="#000"/>
  <path class="fil6 str8" d="m879.54 368.11 1e-3 280.63c0.5145 221.06-212.5 272.11-233.84 280.76l-0.29471-561.39 234.13-1e-5" fill="#008f4c" stroke="#000"/>
  <path transform="rotate(90)" d="m368.11-879.28 187.07 0.19197v467.72l-187.07-0.19197z" fill="#0071bc"/>
  <g fill="#ed1c24" stroke="#000" stroke-linecap="round" stroke-linejoin="bevel" stroke-width=".97618">
   <path transform="translate(69.966 21.239)" d="m341.6 533.94h233.84v46.763h-233.84z"/>
   <path transform="translate(69.966 21.239)" d="m341.6 627.46h233.84v46.763h-230.78c-2.9474-17.278-2.82-31.863-3.0531-46.763z"/>
   <path transform="translate(69.966 21.239)" d="m355.87 720.99 219.57-1e-4v46.763h-198.17c-9.3699-16.003-16.286-31.551-21.393-46.763z"/>
   <path transform="translate(69.966 21.239)" d="m412.75 814.52h162.68v46.763h-104.99c-20.839-13.524-40.576-28.46-57.685-46.763z"/>
  </g>
 </g>
 <g transform="translate(-29.938 -.03125)" stroke="#000">
  <g>
   <g transform="matrix(-1.0084 0 0 1.0084 1221.3 -21.273)" fill="#eac102" stroke-width="1.4875">
    <path transform="translate(29.938 .03125)" d="m696.84 620.94c-10.227 10.256-24.536 22.109-25.031 44.031-0.59194 26.18 18.279 45.834 19.594 67.431 1.6496 27.088-10.414 36.105-10.969 48.156-0.42371 9.2093 6.0965 16.689 16.406 23.406 10.31-6.7176 16.83-14.197 16.406-23.406-0.55447-12.052-12.587-21.068-10.938-48.156 1.3151-21.597 20.154-41.251 19.562-67.431-0.49566-21.922-14.804-33.775-25.031-44.031z"/>
    <path d="m676.78 678.61c-13.884-0.30368-25.58 9.1596-25.548 24.28 0.0487 22.882 19.449 36.09 36.072 28.594-5.7627-5.0982-4.4084-14.601 2.239-16.612 9.1465-2.7676 19.927 10.015 19.552 25.365-0.34756 14.234-6.2863 20.32-14.132 20.876-3.6629 0.25956-9.0954-1.3632-11.784-6.4434-3.2557 10.793 1.3376 22.072 15.015 20.662 11.187-1.1528 18.724-15.483 20.098-35.145 1.6956-24.258-19.575-61.097-41.514-61.577z"/>
    <path d="m776.8 678.61c13.884-0.30368 25.58 9.1596 25.548 24.28-0.0487 22.882-19.449 36.09-36.072 28.594 5.7627-5.0982 4.4084-14.601-2.239-16.612-9.1465-2.7676-19.927 10.015-19.552 25.365 0.34756 14.234 6.2863 20.32 14.132 20.876 3.6629 0.25956 9.0954-1.3632 11.784-6.4434 3.2557 10.793-1.3376 22.072-15.015 20.662-11.187-1.1528-18.724-15.483-20.098-35.145-1.6956-24.258 19.575-61.097 41.514-61.577z"/>
    <path d="m704.01 734.8c-6.0828-0.40407-6.7818 11.67 0 11.681h45.238c7.2835 0.21472 6.4333-12.085 0-11.681z"/>
   </g>
   <path transform="translate(29.938 .03125)" d="m575.36 403.8c-3.6424 0.53805-8.1233 5.7766-8.7305 9.5391-0.84478 5.2353-2.6874 26.391-5.3984 37.24-11.591-19.432-20.255-28.961-26.521-35.371-4.4669 0.88474-7.6763 1.8971-11.879 3.2715 1.0036 10.755 4.2297 28.167 3.1973 49.186-1.0734 21.854-10.603 42.284-19.758 41.225 8.6029-5.781 3.4441-15.279-3.8867-15.377-6.9854-0.0935-11.675 7.8283-10.469 15.479 1.1039 7.0027 5.8918 14.057 17.656 12.709 23.282-2.6678 34.289-50.106 28.139-82.252 5.8901 6.2217 13.387 19.073 18.15 30-6.4549 19.678-16.787 36.499-26.219 47.73 1.5727 3.3296 9.0413 5.0672 12.869 4.5293 7.3198-9.4928 13.928-20.826 19.98-35.969 3.455 9.7811 10.709 32.16 12.869 39.449 2.1602-7.2894 9.4161-29.668 12.871-39.449 6.0524 15.143 12.659 26.476 19.979 35.969 3.8279 0.53789 11.298-1.1997 12.871-4.5293-9.4314-11.232-19.766-28.053-26.221-47.73 4.7634-10.927 12.26-23.778 18.15-30-6.1505 32.146 4.8587 79.584 28.141 82.252 11.764 1.348 16.552-5.7062 17.656-12.709 1.2059-7.6502-3.4852-15.572-10.471-15.479-7.3308 0.0981-12.49 9.596-3.8867 15.377-9.1552 1.0591-18.684-19.37-19.758-41.225-1.0324-21.019 2.1956-38.43 3.1992-49.186-4.2026-1.3744-7.4139-2.3867-11.881-3.2715-6.2666 6.4099-14.929 15.939-26.52 35.371-2.7111-10.849-4.5556-32.005-5.4004-37.24-0.6072-3.7625-5.088-9.001-8.7305-9.5391zm0 24.979c1.5715 10.869 3.6817 28.791 6.4199 37.91-2.3134 6.5029-4.3632 11.324-6.4199 19.32-2.0567-7.9967-4.1066-12.817-6.4199-19.32 2.7382-9.1189 4.8485-27.041 6.4199-37.91z" fill="#e6e6e6" stroke-width="1.5"/>
   <g transform="matrix(.59306 0 0 .59306 248.33 276.7)" fill="#eac102" stroke-width="2.5292">
    <path d="m318.25 133-9.035 47.234c-2.5162-9.3383-7.232-15.601-13.419-19.783-7.3857-4.9915-11.312-11.529-13.529-20.286-2.3532 9.203 0.26355 16.777 4.7611 23.915 4.4579 7.0758 6.9466 14.715 4.9653 23.161l-40.241-26.697 27.011 39.786c-8.3832-4.8246-16.144-5.9279-23.475-4.5096-8.752 1.693-16.156-0.13674-23.915-4.7611 4.8436 8.1715 12.058 11.661 20.286 13.529 8.1571 1.8514 15.305 5.5085 19.877 12.885l-47.328 9.5693 47.234 9.035c-9.3383 2.5162-15.601 7.232-19.783 13.419-4.9915 7.3857-11.529 11.312-20.286 13.529 9.203 2.3532 16.777-0.26356 23.915-4.7611 7.0758-4.4579 14.715-6.9466 23.161-4.9653l-26.697 40.241 39.786-27.011c-4.8246 8.3832-5.9279 16.144-4.5096 23.475 1.693 8.752-0.13674 16.156-4.7611 23.915 8.1715-4.8436 11.661-12.058 13.529-20.286 1.853-8.1638 5.512-15.322 12.9-19.893l9.5535 47.343 9.0507-47.233c2.5166 9.3332 7.2187 15.619 13.403 19.798 7.3857 4.9915 11.312 11.514 13.529 20.27 2.3532-9.203-0.26353-16.761-4.7611-23.9-4.4605-7.0798-6.9377-14.739-4.9496-23.192l40.225 26.712-26.995-39.801c8.3788 4.8201 16.131 5.9431 23.46 4.5254 8.752-1.693 16.156 0.13677 23.915 4.7611-4.8436-8.1715-12.058-11.661-20.286-13.529-8.1571-1.8514-15.29-5.5231-19.861-12.9l47.312-9.5535-47.234-9.0507c9.3331-2.5166 15.619-7.2187 19.798-13.403 4.9915-7.3857 11.514-11.312 20.27-13.529-9.203-2.3532-16.761 0.26354-23.9 4.7611-7.0799 4.4605-14.739 6.9377-23.192 4.9496l26.712-40.225-39.801 26.995c4.8201-8.3788 5.9431-16.131 4.5254-23.46-1.693-8.752 0.13676-16.156 4.7611-23.915-8.1715 4.8436-11.661 12.058-13.529 20.286-1.8505 8.1529-5.5149 15.29-12.885 19.861z" color="#000000"/>
    <path d="m318.23 181.82c-25.054 0-45.205 20.197-45.205 45.251 0 25.054 20.151 45.205 45.205 45.205 25.054 0 45.251-20.151 45.251-45.205 0-25.054-20.197-45.251-45.251-45.251z" stroke-linecap="square" stroke-linejoin="round"/>
   </g>
   <path transform="translate(29.938 .03125)" d="m737.64 366.75a43.807 43.807 0 0 0-27.332 9.5742 35.484 35.484 0 0 1 9.332-1.25 35.484 35.484 0 0 1 35.482 35.484 35.484 35.484 0 0 1-35.482 35.484 35.484 35.484 0 0 1-9.3359-1.252 43.807 43.807 0 0 0 27.336 9.5742 43.807 43.807 0 0 0 43.807-43.807 43.807 43.807 0 0 0-43.807-43.809z" fill="#e6e6e6" stroke-linecap="round" stroke-linejoin="bevel" stroke-width="1.5"/>
  </g>
  <g fill="#e6e6e6">
   <path transform="translate(29.938 .03125)" d="m713 702.92c-43.69 2.8716-61.538 23.276-79.376 43.687-11.155-11.578-15.521-38.63-15.521-57.56s4.366-45.982 15.521-57.56c17.838 20.412 35.686 40.816 79.376 43.687" stroke-width="1.5"/>
   <g stroke-linecap="round" stroke-linejoin="bevel">
    <path transform="translate(29.938 .03125)" d="m726.52 650.27c3.3432 0 6.0347 2.6915 6.0347 6.0347v9.8964c0 3.3432-2.6915 6.0347-6.0347 6.0347-3.3432 0-6.0347-2.6915-6.0347-6.0347v-9.8964c0-3.3432 2.6915-6.0347 6.0347-6.0347z" stroke-width="1.5"/>
    <path transform="translate(29.938 .03125)" d="m753.42 672.74-6.6822 6.6667c-3.3036 3.2361-6.0056 3.5865-13.781 3.9602l-0.0781 5.6731 0.0781 5.6751c7.7756 0.37368 10.478 0.72407 13.781 3.9602l6.6822 6.6667 16.473-16.302z" stroke-width="1.5688"/>
    <path d="m747.47 659.29h17.178v158.79l-17.178 15.964z" stroke-width="1.5"/>
    <path d="m742.93 666.87h26.242v44.414h-26.242z" stroke-width="1.5"/>
   </g>
  </g>
  <g transform="translate(20.892 -.55061)" stroke-width="1.5">
   <path d="m687.18 558.91 4.4902 16.189-18.24-3.498v19.223l17.979-2.5059-2.7051 13.4h-41.514l-5.8398-14.051 14.688 2.6289-1.7285-19.238-15.689 3.502-1.6973-15.25h-19.102l23.736 59.143h119.08l23.736-59.143h-19.1l-1.6973 15.25-15.691-3.502-1.7266 19.238 14.688-2.6289-5.8398 14.051h-41.514l-2.707-13.4 17.98 2.5059v-19.223l-18.242 3.498 4.4902-16.189h-13.914z" fill="#eac102"/>
   <g fill="#ed1c24" stroke-linecap="round" stroke-linejoin="bevel">
    <path d="m629.69 588.07c3.0112-0.90843 4.7159-4.086 3.8075-7.0972-0.90842-3.0112-4.086-4.7159-7.0972-3.8075-4.8916 1.6833-0.73451 11.928 3.2897 10.905z"/>
    <path d="m638.74 613.24c3.0112-0.90843 4.7159-4.086 3.8075-7.0972-0.90842-3.0112-4.086-4.7159-7.0972-3.8075-4.8916 1.6833-0.73451 11.928 3.2897 10.905z"/>
    <path d="m706.79 581.98a5.695 5.695 0 0 1-5.695 5.695 5.695 5.695 0 0 1-5.695-5.695 5.695 5.695 0 0 1 5.695-5.695 5.695 5.695 0 0 1 5.695 5.695z"/>
    <path d="m772.5 588.07c-3.0112-0.90843-4.7159-4.086-3.8075-7.0972 0.90842-3.0112 4.086-4.7159 7.0972-3.8075 4.8916 1.6833 0.73451 11.928-3.2897 10.905z"/>
    <path d="m763.46 613.24c-3.0112-0.90843-4.7159-4.086-3.8075-7.0972 0.90842-3.0112 4.086-4.7159 7.0972-3.8075 4.8916 1.6833 0.73451 11.928-3.2897 10.905z"/>
    <path d="m692.92 606.21h16.352l2.425 2.425v2.7033l-2.425 2.425h-16.352l-2.425-2.425v-2.7033z"/>
   </g>
  </g>
 </g>
 <g transform="translate(-92.911 62.98)">
  <g fill="none">
   <path d="m668.34 751.54-0.10466 46.768m0.10472-140.29-0.10466 46.768m0.11177-140.18-0.10466 46.768m0.20221-140.41-0.10466 46.768" stroke="#fff" stroke-width="2"/>
   <g stroke="#000">
    <path class="fil6 str8" d="m902.48 283.89 1e-3 280.63c0.5145 221.06-212.96 271.98-234.3 280.63-22.27-9.1357-234.27-59.875-233.96-280.76l0.2879-280.51h467.98" stroke-linecap="square" stroke-width="4"/>
    <path d="m434.32 470.95h467.72" stroke-width="2"/>
    <path d="m668.65 845.28-0.19651-374.32" stroke-width="2"/>
   </g>
  </g>
  <g>
   <use transform="matrix(-1 0 0 1 1336.9 0)" width="1150.3438" height="1226.4749" xlink:href="#g5567-8-9-1-4-4-8-2-3-9"/>
   <g id="g5567-8-9-1-4-4-8-2-3-9" transform="matrix(-.026462 -1.4538 -1.2888 .029849 1560.7 3226.8)" fill="#008f4c" stroke="#000" stroke-width="1.4608">
    <path transform="matrix(1.4077 0 0 .99723 1348.7 8.2722)" d="m637.51 727.09c0 5.0797-3.1727 9.1976-7.0864 9.1976s-7.0864-4.1179-7.0864-9.1976c0-5.0797 3.1727-9.1976 7.0864-9.1976 3.9124 0 7.0845 4.1152 7.0864 9.1932" fill="#008f4c" stroke="#000" stroke-linecap="square" stroke-linejoin="round" stroke-width="1.2329"/>
    <path d="m2236.1 787.25c6.6253 0.19079 11.517 0.0102 11.828-2.0443-8.1893-9.2001 8.8538-46.858-11.828-48.721-17.829 3.99-6.4378 26.663-11.828 48.721-0.1325 2.3522 7.5372 2.0282 11.828 2.0443z" fill="#008f4c" stroke="#000" stroke-width="1.4608"/>
    <path d="m2243.9 787.13c-7.561-19.755 6.3305-43.05-7.8169-50.642" fill="#008f4c" stroke="#000" stroke-width="1.4608"/>
    <path d="m2238.8 787.31c-4.8726-19.481 2.7724-37.101-2.6665-50.82" fill="#008f4c" stroke="#000" stroke-width="1.4608"/>
    <path d="m2228.3 787.13c4.1043-21.902-3.1296-44.683 7.8169-50.642" fill="#008f4c" stroke="#000" stroke-width="1.4608"/>
    <path d="m2233.4 787.31c-0.6922-5.3826-1.0984-39.166 2.6665-50.82" fill="#008f4c" stroke="#000" stroke-width="1.4608"/>
    <path transform="translate(1588.1 15.593)" d="m648 708.58v12.317" fill="#008f4c" stroke="#000" stroke-width="1.4608"/>
    <path d="m2240.8 738.33c1.6835-4.4198 0.1532-11.612-4.6776-14.165" fill="#008f4c" stroke="#000" stroke-width="1.4608"/>
    <path d="m2231.4 738.33c-1.6835-4.4198-0.1532-11.612 4.6776-14.165" fill="#008f4c" stroke="#000" stroke-width="1.4608"/>
    <path d="m2229.2 734.15h13.887c1.9063 0 3.441 1.2866 3.441 2.8846s-1.5347 2.8847-3.441 2.8847h-13.887c-1.9063 0-3.441-1.2866-3.441-2.8847s1.5347-2.8846 3.441-2.8846z" fill="#008f4c" stroke="#000" stroke-linecap="square" stroke-linejoin="round" stroke-width="1.4608"/>
   </g>
   <g fill="#008f4c" stroke="#000" stroke-linecap="square" stroke-linejoin="round">
    <path d="m775.88 13.81c0 38.588-48.09 24.595-107.41 24.595s-107.41 13.993-107.41-24.595c0-38.588 48.09-69.87 107.41-69.87 59.303 0 107.38 31.262 107.41 69.837" stroke-width="3.15"/>
    <path d="m904.59 28.54c0 17.852-105.71 32.323-236.12 32.323s-236.12-14.472-236.12-32.323c0-17.852 105.71-32.323 236.12-32.323 130.36 0 236.06 14.462 236.12 32.308" stroke-width="3"/>
    <path d="m781.86 28.54c0 8.4144-50.768 15.236-113.39 15.236-62.626 0-113.39-6.8212-113.39-15.236 0-8.4144 50.768-15.236 113.39-15.236 62.605 0 113.36 6.8169 113.39 15.228" stroke-width="2.5"/>
   </g>
  </g>
  <g transform="translate(-58.88 290.64)" fill="none" stroke="#000">
   <path d="m756.65-247.99v-28.303" stroke-width=".27699"/>
   <path d="m761.94-248.26v-27.745" stroke-width=".40376"/>
   <path d="m766.93-248.54v-27.193" stroke-width=".53548"/>
   <path d="m771.88-248.68v-26.921" stroke-width=".66787"/>
   <path d="m776.29-248.68v-26.536" stroke-width=".80294"/>
   <path d="m784.71-249.36 0.11654-25.253m-4.1048 25.585v-25.912" stroke-width=".95226"/>
   <path d="m792.47-250.21v-23.845m-3.9349 24.343 0.11647-24.662" stroke-width="1.0872"/>
   <path d="m802.89-251.41v-21.272m-3.4189 21.617v-22.309m-3.5222 23v-23.174" stroke-width="1.2434"/>
   <path d="m806.54-251.99v-20.424" stroke-width="1.3696"/>
   <path d="m809.95-252.41v-19.645" stroke-width="1.5232"/>
   <path d="m813.6-252.78v-18.536" stroke-width="1.6965"/>
   <path d="m821.15-254.23 0.0384-15.831m-3.9448 16.682v-17.474" stroke-width="1.8588"/>
   <path d="m824.91-254.96v-14.343" stroke-width="1.9929"/>
   <path d="m828.42-255.72v-12.82" stroke-width="2.2048"/>
   <path d="m832.25-256.74v-10.67" stroke-width="2.407"/>
   <path d="m836.19-258.43v-7.4564" stroke-width="2.5033"/>
   <path d="m735.6-247.45v-29.345m8.9238 29.073-0.0786-28.954m6.648 28.922v-28.626" stroke-width=".14128"/>
   <g transform="matrix(-1 0 0 1 1454.7 0)">
    <path d="m756.65-247.99v-28.303" stroke-width=".27699"/>
    <path d="m761.94-248.26v-27.745" stroke-width=".40376"/>
    <path d="m766.93-248.54v-27.193" stroke-width=".53548"/>
    <path d="m771.88-248.68v-26.921" stroke-width=".66787"/>
    <path d="m776.29-248.68v-26.536" stroke-width=".80294"/>
    <path d="m784.71-249.36 0.11654-25.253m-4.1048 25.585v-25.912" stroke-width=".95226"/>
    <path d="m792.47-250.21v-23.845m-3.9349 24.343 0.11647-24.662" stroke-width="1.0872"/>
    <path d="m802.89-251.41v-21.272m-3.4189 21.617v-22.309m-3.5222 23v-23.174" stroke-width="1.2434"/>
    <path d="m806.54-251.99v-20.424" stroke-width="1.3696"/>
    <path d="m809.95-252.41v-19.645" stroke-width="1.5232"/>
    <path d="m813.6-252.78v-18.536" stroke-width="1.6965"/>
    <path d="m821.15-254.23 0.0384-15.831m-3.9448 16.682v-17.474" stroke-width="1.8588"/>
    <path d="m824.91-254.96v-14.343" stroke-width="1.9929"/>
    <path d="m828.42-255.72v-12.82" stroke-width="2.2048"/>
    <path d="m832.25-256.74v-10.67" stroke-width="2.407"/>
    <path d="m836.19-258.43v-7.4564" stroke-width="2.5033"/>
    <path d="m735.6-247.45v-29.345m8.9238 29.073-0.0786-28.954m6.648 28.922v-28.626" stroke-width=".14128"/>
   </g>
  </g>
  <use transform="matrix(-1 0 0 1 1336.6 -2.2831e-5)" width="1150.3438" height="1226.4749" xlink:href="#g5014"/>
  <g id="g5014" transform="translate(-5.5579e-5)">
   <g transform="matrix(-1 0 0 1 2588.8 -14)" stroke="#000" stroke-width="1.7">
    <path d="m2326.7 354.89 0.2997-141.78c-0.369-31.505-10.585-39.862-19.66-46.18-16.144-11.238-37.128-7.7306-52.914 0.0629l6.6309 12.309c13.759-4.4936 27.639-9.0406 40.031 0.37127 7.324 5.5626 12.097 16.691 12.06 34.138l-0.2998 143.28z" fill="#008f4c" stroke="#000" stroke-width="1.7"/>
    <path d="m2242.6 143.84c10.734 15.354 25.125 70.424 70.589 73.032 0.052-5.088 0.032-10.152-0.8752-14.921-33.668-2.7379-46.915-47.319-56.506-62.935z" fill="#008f4c" stroke="#000" stroke-width="1.7"/>
    <path d="m2309.9 107.75c-28.948 1.352-55.278 20.513-89.31 27.325-31.047 6.2145-58.443 4.7996-80.701 0.65293l-4.1754 13.187c20.521 5.9999 55.213 7.2728 85.551 0.79604 38.778-8.2787 65.804-27.89 87.366-28.572 21.893-0.69253 49.093 13.613 48.984 45.162-1.3393 20.573-17.766 32.917-31.208 35.226 0.3253 3.9916 0.7832 10.974 0.5813 14.605 27.877-4.0289 44.218-26.9 44.772-51.768 0.2787-29.737-25.744-58.3-61.858-56.613z" fill="#008f4c" stroke="#000" stroke-width="1.7"/>
    <path d="m2007.2 33.307c29.726 41.606 70.125 102.86 128.56 115.61l3.368-13.402c-53.22-15.933-83.43-61.017-110.81-97.36-7.7949-2.7872-14.253-3.8119-21.117-4.849z" fill="#008f4c" stroke="#000" stroke-width="1.7"/>
    <path d="m2138.6 118.93c-14.826 22.081-8.106 60.489 26.269 74.207 17.755 7.0855 49.154 8.3684 96.241-13.766l-6.676-12.385c-40.059 16.898-62.413 20.842-81.927 14.36-20.331-6.7524-38.004-31.038-22.784-54.405 21.968-33.726 64.728-21.536 85.367 4.441l13.884-4.9616c-24.155-36.603-82.438-49.099-110.37-7.4907z" fill="#008f4c" stroke="#000" stroke-width="1.7"/>
    <path d="m2313.5 337.57c5.0237 0.42629 11.258-4.4726 13.26-8.7929" fill="none" stroke="#000" stroke-width="1.7"/>
    <path d="m2313.6 326.05c5.0237 0.42629 11.258-4.4726 13.26-8.7929" fill="none" stroke="#000" stroke-width="1.7"/>
    <path d="m2313.6 314.52c5.0237 0.42629 11.258-4.4726 13.26-8.7929" fill="none" stroke="#000" stroke-width="1.7"/>
    <path d="m2313.6 303.2c5.0238 0.42629 11.258-4.4726 13.26-8.7929" fill="none" stroke="#000" stroke-width="1.7"/>
    <path d="m2313.6 291.88c5.0238 0.42629 11.258-4.4726 13.26-8.7929" fill="none" stroke="#000" stroke-width="1.7"/>
    <path d="m2313.7 280.55c5.0238 0.42629 11.258-4.4726 13.26-8.7929" fill="none" stroke="#000" stroke-width="1.7"/>
    <path d="m2313.7 269.23c5.0237 0.42629 11.258-4.4726 13.26-8.7929" fill="none" stroke="#000" stroke-width="1.7"/>
    <path d="m2313.7 257.91c5.0236 0.42629 11.258-4.4726 13.26-8.7929" fill="none" stroke="#000" stroke-width="1.7"/>
    <path d="m2313.7 246.58c5.0238 0.42629 11.258-4.4726 13.26-8.7929" fill="none" stroke="#000" stroke-width="1.7"/>
    <path d="m2313.8 235.26c5.0238 0.42629 11.258-4.4726 13.26-8.7929" fill="none" stroke="#000" stroke-width="1.7"/>
    <path d="m2313.8 223.94c5.0238 0.42629 11.258-4.4726 13.26-8.7929" fill="none" stroke="#000" stroke-width="1.7"/>
    <g transform="translate(22)">
     <path d="m2291.2 212.3c4.6613 0.42629 11.552-4.6048 13.409-8.9251" fill="none" stroke="#000" stroke-width="1.7"/>
     <path d="m2290.3 201.95c6.5755-1.3617 10.504-5.5291 12.37-10.246" fill="none" stroke="#000" stroke-width="1.7"/>
     <path d="m2288.4 193.53c3.3218-0.0336 9.2859-6.5449 11.239-10.738" fill="none" stroke="#000" stroke-width="1.7"/>
     <path d="m2284.9 186.02c4.2371-1.759 8.0306-7.3051 9.0628-11.893" fill="none" stroke="#000" stroke-width="1.7"/>
     <path d="m2279.1 179.67c5.1351-2.5571 7.7881-9.5229 7.2777-12.022" fill="none" stroke="#000" stroke-width="1.7"/>
     <path d="m2273.4 176.29c4.6701-4.9671 5.759-11.315 4.3978-13.484" fill="none" stroke="#000" stroke-width="1.7"/>
     <path d="m2265.8 174.33c2.1363-3.1103 5.1901-8.3777 3.8323-13.855" fill="none" stroke="#000" stroke-width="1.7"/>
     <path d="m2257.9 174.44c1.1732-2.5152 3.563-9.5191 1.6813-14.654" fill="none" stroke="#000" stroke-width="1.7"/>
     <path d="m2250.4 171.04c0.5796-3.3385 0.9992-6.8412-0.3057-10.124" fill="none" stroke="#000" stroke-width="1.7"/>
     <path d="m2225.6 185.28c2.6267-4.1319 3.5373-11.88 3.3375-16.82" fill="none" stroke="#000" stroke-width="1.7"/>
     <path d="m2213.4 189.78c4.0642-4.8442 6.1362-13.127 5.4759-17.195" fill="none" stroke="#000" stroke-width="1.7"/>
     <path d="m2201.4 193.34c3.1314-3.3787 7.6412-12.862 6.7145-16.93" fill="none" stroke="#000" stroke-width="1.7"/>
     <path d="m2188.8 196.04c3.3979-3.2455 7.8676-11.213 8.4063-16.214" fill="none" stroke="#000" stroke-width="1.7"/>
     <path d="m2176.2 197.53c2.5986-2.313 8.8967-8.9164 9.0358-14.849" fill="none" stroke="#000" stroke-width="1.7"/>
     <path d="m2164 197.57c3.5871-1.9391 9.9147-7.7608 11.04-13.498" fill="none" stroke="#000" stroke-width="1.7"/>
     <path d="m2150.3 195.53c3.5871-1.9391 11.312-6.5727 12.836-11.511" fill="none" stroke="#000" stroke-width="1.7"/>
     <path d="m2136.3 190.03c3.0542-0.074 14.434-3.8251 16.092-8.0971" fill="none" stroke="#000" stroke-width="1.7"/>
     <path d="m2126 182.69c5.5392 0.57823 13.676-0.91171 16.838-4.8087" fill="none" stroke="#000" stroke-width="1.7"/>
     <path d="m2117.6 172.87c3.7395 1.6259 14.135 1.6022 16.972-1.0552" fill="none" stroke="#000" stroke-width="1.7"/>
     <path d="m2112.2 161.83c3.7903 2.9502 12.883 3.6684 15.894 2.3678" fill="none" stroke="#000" stroke-width="1.7"/>
     <path d="m2109.3 148.23c2.0584 3.3499 9.5262 7.6574 14.403 7.2894" fill="none" stroke="#000" stroke-width="1.7"/>
     <path d="m2110.2 134.79c1.3881 3.6786 8.1247 8.1752 11.885 9.1452" fill="none" stroke="#000" stroke-width="1.7"/>
     <path d="m2114.4 122.73c0.5114 3.8983 5.1347 9.6642 9.7367 11.319" fill="none" stroke="#000" stroke-width="1.7"/>
     <path d="m2122.4 111.52c-0.5916 3.8869 2.1347 11.41 6.0959 14.278" fill="none" stroke="#000" stroke-width="1.7"/>
     <path d="m2131.6 103.34c-1.3405 3.6961 0.05 11.182 3.3735 14.77" fill="none" stroke="#000" stroke-width="1.7"/>
     <path d="m2142.6 97.26c-2.41 3.1064-2.1375 10.595-0.075 15.029" fill="none" stroke="#000" stroke-width="1.7"/>
     <path d="m2155.8 93.597c-3.0087 2.5309-5.0647 9.7958-3.98 14.565" fill="none" stroke="#000" stroke-width="1.7"/>
     <path d="m2169.8 93.032c-3.4865 1.8173-8.3094 8.9631-8.2859 13.854" fill="none" stroke="#000" stroke-width="1.7"/>
     <path d="m2183.1 95.24c-3.866 0.71566-10.267 6.9223-11.678 11.605" fill="none" stroke="#000" stroke-width="1.7"/>
     <path d="m2194.7 99.351c-4.862 0.13761-10.426 5.7345-12.806 10.006" fill="none" stroke="#000" stroke-width="1.7"/>
     <path d="m2204.4 104.54c-3.931 0.0694-11.135 4.3826-13.298 8.769" fill="none" stroke="#000" stroke-width="1.7"/>
     <path d="m2214.6 112.2c-4.5973-1.459-12.266 2.9978-14.399 6.8062" fill="none" stroke="#000" stroke-width="1.7"/>
     <path d="m2222.2 119.94c-4.7426-1.3733-10.82 1.2542-14.2 5.6929" fill="none" stroke="#000" stroke-width="1.7"/>
     <path d="m2238.1 147.04c-4.3952-2.2494-10.207-1.636-14.369 2.0796" fill="none" stroke="#000" stroke-width="1.7"/>
     <path d="m2242.1 155.21c-4.3952-2.2494-10.207-1.636-14.369 2.0796" fill="none" stroke="#000" stroke-width="1.7"/>
     <path d="m2246 163.25c-4.3952-2.2494-10.207-1.636-14.369 2.0796" fill="none" stroke="#000" stroke-width="1.7"/>
     <path d="m2250.6 171.09c-5.1945-1.4501-11.783-0.71592-14.613 2.6001" fill="none" stroke="#000" stroke-width="1.7"/>
     <path d="m2255.2 178.3c-5.5941-1.7165-12.475 0.94966-14.372 3.866" fill="none" stroke="#000" stroke-width="1.7"/>
     <path d="m2261.5 186.27c-5.461-1.1836-10.966 0.33184-15.128 4.0475" fill="none" stroke="#000" stroke-width="1.7"/>
     <path d="m2267.1 191.83c-4.9331-0.20327-10.992 2.2594-13.217 7.3757" fill="none" stroke="#000" stroke-width="1.7"/>
     <path d="m2273.4 196.44c-5.0676 0.57232-10.08 5.4926-10.843 10.23" fill="none" stroke="#000" stroke-width="1.7"/>
     <path d="m2281 200.12c-4.5453 1.9281-7.6086 7.1414-7.4285 12.717" fill="none" stroke="#000" stroke-width="1.7"/>
     <path d="m2289.5 202.12c-3.9723 2.9323-5.5806 8.6604-4.1088 14.042" fill="none" stroke="#000" stroke-width="1.7"/>
     <path d="m2320.6 194.28c-2.8627 4.0228-0.3319 13.717 3.4941 15.361" fill="none" stroke="#000" stroke-width="1.7"/>
     <path d="m2311.3 199.55c-1.7537 5.9753-0.8597 9.9766 2.0829 14.716" fill="none" stroke="#000" stroke-width="1.7"/>
     <path d="m2326.4 188.85c-0.4915 4.9128 2.9008 12.291 7.0788 13.745" fill="none" stroke="#000" stroke-width="1.7"/>
     <path d="m2332.3 180.11c-0.4915 4.9128 3.8336 11.715 8.0117 13.169" fill="none" stroke="#000" stroke-width="1.7"/>
     <path d="m2334.9 172.14c1.6516 4.6529 7.0419 10.6 11.441 10.132" fill="none" stroke="#000" stroke-width="1.7"/>
     <path d="m2335.3 162.53c2.3221 4.8164 9.7202 10.171 13.965 8.9255" fill="none" stroke="#000" stroke-width="1.7"/>
     <path d="m2333.5 152.22c3.1619 4.815 12.871 9.1796 15.976 6.0284" fill="none" stroke="#000" stroke-width="1.7"/>
     <path d="m2330.6 144.86c6.4361 4.9128 14.799 3.2343 15.38-0.64061" fill="none" stroke="#000" stroke-width="1.7"/>
     <path d="m2326.8 138.9c3.5873 0.64569 14.601-0.029 13.53-5.3357" fill="none" stroke="#000" stroke-width="1.7"/>
     <path d="m2321.7 133.4c3.5873 0.6457 12.354-3.4048 11.284-8.7116" fill="none" stroke="#000" stroke-width="1.7"/>
     <path d="m2314.3 128.05c3.5873 0.6457 12.13-4.396 11.059-9.7027" fill="none" stroke="#000" stroke-width="1.7"/>
     <path d="m2304.7 123.78c4.7863-0.68652 12.564-4.6329 11.893-10.473" fill="none" stroke="#000" stroke-width="1.7"/>
     <path d="m2295.4 121.61c4.1936-0.83048 11.663-6.7981 10.592-12.105" fill="none" stroke="#000" stroke-width="1.7"/>
     <path d="m2286.7 121.14c6.1185-2.6849 9.5533-9.1548 7.1504-13.396" fill="none" stroke="#000" stroke-width="1.7"/>
     <path d="m2277 122.53c2.8881-2.2236 9.385-11.111 5.2675-14.283" fill="none" stroke="#000" stroke-width="1.7"/>
     <path d="m2266.2 125.84c2.8882-2.2236 9.7467-12.464 5.6292-15.636" fill="none" stroke="#000" stroke-width="1.7"/>
     <path d="m2256.6 129.58c2.8881-2.2236 8.9661-13.163 4.8486-16.334" fill="none" stroke="#000" stroke-width="1.7"/>
     <path d="m2247.4 133.46c2.8882-2.2236 8.8169-13.627 4.6994-16.799" fill="none" stroke="#000" stroke-width="1.7"/>
     <path d="m2237.7 137.47c2.8881-2.2236 8.7703-13.774 4.6528-16.946" fill="none" stroke="#000" stroke-width="1.7"/>
     <path d="m2227.4 141.34c3.9539-3.8222 8.8402-12.011 4.8559-16.781" fill="none" stroke="#000" stroke-width="1.7"/>
     <path d="m2215.9 145.37c2.8881-2.2236 9.4088-12.316 5.9573-17.086" fill="none" stroke="#000" stroke-width="1.7"/>
     <path d="m2203.2 148.77c2.8881-2.2236 9.6284-11.004 7.6425-16.706" fill="none" stroke="#000" stroke-width="1.7"/>
     <path d="m2189.7 151.43c5.0197-3.2894 10.284-12.382 8.9638-16.353" fill="none" stroke="#000" stroke-width="1.7"/>
     <path d="m2176 153.17c5.2861-3.1561 10.164-10.458 9.3768-15.856" fill="none" stroke="#000" stroke-width="1.7"/>
     <path d="m2163.2 153.93c5.1529-2.3568 9.2544-10.689 9.5168-15.608" fill="none" stroke="#000" stroke-width="1.7"/>
     <path d="m2149.4 153.91c4.7239-1.5312 10.957-9.8239 10.436-14.638" fill="none" stroke="#000" stroke-width="1.7"/>
     <path d="m2137.2 153.12c2.6101-1.885 9.6426-6.0306 11.073-13.988" fill="none" stroke="#000" stroke-width="1.7"/>
     <path d="m2124.8 151.45c4.4067-1.315 10.851-7.9535 11.115-13.165" fill="none" stroke="#000" stroke-width="1.7"/>
     <path d="m2122.2 141.54c1.7941-1.3781 2.1714-1.4807 3.7439-4.7526" fill="none" stroke="#000" stroke-width="1.7"/>
    </g>
    <path d="m2100.3 134.52c4.5758-0.45998 11.39-3.3261 13.487-9.5306" fill="none" stroke="#000" stroke-width="1.7"/>
    <path d="m2091.4 128.78c4.3363-0.40012 11.511-3.4337 13.823-8.7684" fill="none" stroke="#000" stroke-width="1.7"/>
    <path d="m2082.3 121.88c5.2419 0.47258 12.852-2.3749 15.161-7.1759" fill="none" stroke="#000" stroke-width="1.7"/>
    <path d="m2074.1 114.58c6.7073 0.6058 12.512-2.4643 14.954-6.3327" fill="none" stroke="#000" stroke-width="1.7"/>
    <path d="m2065 106.32c4.8421 1.2719 12.898-0.57845 16.273-4.8466" fill="none" stroke="#000" stroke-width="1.7"/>
    <path d="m2057.1 98.131c5.908 1.0055 13.7-0.52972 16.142-4.3982" fill="none" stroke="#000" stroke-width="1.7"/>
    <path d="m2050.3 90.498c4.5758 1.938 13.673-0.14525 16.115-4.0137" fill="none" stroke="#000" stroke-width="1.7"/>
    <path d="m2043.4 82.162c5.5083 2.0712 14.339 1.0602 16.781-2.8083" fill="none" stroke="#000" stroke-width="1.7"/>
    <path d="m2037 74.176c6.4407 2.2045 14.109 1.0045 16.551-2.864" fill="none" stroke="#000" stroke-width="1.7"/>
    <path d="m2031 65.985c5.2418 1.938 14.139 0.98512 16.581-2.8833" fill="none" stroke="#000" stroke-width="1.7"/>
    <path d="m2024.4 57.345c5.3751 1.8048 14.555 1.7532 16.997-2.1152" fill="none" stroke="#000" stroke-width="1.7"/>
    <path d="m2018.3 49.01c4.9754 2.4709 14.884 2.5213 17.326-1.3471" fill="none" stroke="#000" stroke-width="1.7"/>
    <path d="m2012.6 41.157c4.1761 1.5383 14.43 2.4428 16.872-1.4257" fill="none" stroke="#000" stroke-width="1.7"/>
    <path d="m2313.5 348.52c5.0236 0.42629 11.258-4.4726 13.26-8.7929" fill="none" stroke="#000" stroke-width="1.7"/>
    <path d="m2313.5 359.08c5.0238 0.42629 11.258-4.4726 13.26-8.7929" fill="none" stroke="#000" stroke-width="1.7"/>
    <path d="m2109.1 139.37c4.5758-0.45998 11.919-4.658 13.162-9.7255" fill="none" stroke="#000" stroke-width="1.7"/>
    <path d="m2119.9 144.14c4.5758-0.45998 10.11-3.8181 12.607-10.806" fill="none" stroke="#000" stroke-width="1.7"/>
   </g>
   <g id="g3853">
    <g transform="matrix(-1.7327 .21334 .14143 1.3633 4092 -963.87)">
     <path d="m2231.1 727.43c0.5638-3.2898 0.9611-6.5241 2.808-10.242 0.081-3.0924 0.6589-5.8534 2.3708-8.6477 0.1433-3.354 0.8877-6.1819 2.3708-8.6477 0.1946-3.1565 0.9222-5.9298 2.3708-8.6477 0.2281-3.2574 0.816-6.2748 2.3708-8.6477 0.018-3.0756 0.5809-6.0151 2.3708-8.6477-0.1339-3.4371 0.2951-6.5364 2.3708-8.6477-0.3333-2.8333 0.1072-6.7005 2.6164-9.5434l0.6841-2.4952 8.0518 0.0429c-0.2129 2.8166-0.9221 4.1443-1.5609 5.6834 0.3215 2.7046-0.7844 5.9467-2.3708 8.6477 0.2996 2.5979-0.8754 5.7908-2.3708 8.6477 0 2.7248-0.6843 5.4859-2.3708 8.6477-0.2844 2.417-0.3725 4.2551-2.3708 8.6477 0.2602 2.6028-0.8497 5.8908-2.3708 8.6477 0.017 3.1895-0.9063 6.4394-2.3708 8.6477 0.5958 2.3962-0.9321 7.1066-2.3708 8.6477 0.2542 3.9246-1.4532 5.8875-2.3953 8.6157l-7.8333-0.70962z" fill="#008f4c" stroke="#000" stroke-width="1.0991"/>
     <path transform="translate(1587.6 14.093)" d="m670.32 644.89c-2.0097 4.5571-6.9504 6.3595-9.7914 6.3122" fill="#008f4c" stroke="#000" stroke-width="1.0991"/>
     <path d="m2255.6 667.63c-3.3431 4.3904-6.9504 6.3595-9.7914 6.3122" fill="#008f4c" stroke="#000" stroke-width="1.0991"/>
     <path d="m2253.2 676.28c-3.0215 4.2951-7.075 6.4093-9.7914 6.3122" fill="#008f4c" stroke="#000" stroke-width="1.0991"/>
     <path d="m2250.8 684.93c-2.3431 3.5571-6.9504 6.3595-9.7914 6.3122" fill="#008f4c" stroke="#000" stroke-width="1.0991"/>
     <path d="m2248.4 693.58c-3.1454 4.5571-7.0009 6.3595-9.7914 6.3122" fill="#008f4c" stroke="#000" stroke-width="1.0991"/>
     <path d="m2246.1 702.22c-2.5098 3.8929-5.7838 5.4726-9.7914 6.3122" fill="#008f4c" stroke="#000" stroke-width="1.0991"/>
     <path d="m2243.7 710.87c-3.025 3.8802-6.1544 5.7235-9.7914 6.3122" fill="#008f4c" stroke="#000" stroke-width="1.0991"/>
     <path d="m2241.3 719.52c-3.1765 4.3904-6.1171 6.1928-9.7914 6.3122" fill="#008f4c" stroke="#000" stroke-width="1.0991"/>
    </g>
    <g transform="matrix(1.7327 .21334 -.14143 1.3633 -3554.8 -963.87)">
     <path d="m2231.1 727.43c0.5638-3.2898 0.9611-6.5241 2.808-10.242 0.081-3.0924 0.6589-5.8534 2.3708-8.6477 0.1433-3.354 0.8877-6.1819 2.3708-8.6477 0.1946-3.1565 0.9222-5.9298 2.3708-8.6477 0.2281-3.2574 0.816-6.2748 2.3708-8.6477 0.018-3.0756 0.5809-6.0151 2.3708-8.6477-0.1339-3.4371 0.2951-6.5364 2.3708-8.6477-0.3333-2.8333 0.1072-6.7005 2.6164-9.5434l0.6841-2.4952 8.0518 0.0429c-0.2129 2.8166-0.9221 4.1443-1.5609 5.6834 0.3215 2.7046-0.7844 5.9467-2.3708 8.6477 0.2996 2.5979-0.8754 5.7908-2.3708 8.6477 0 2.7248-0.6843 5.4859-2.3708 8.6477-0.2844 2.417-0.3725 4.2551-2.3708 8.6477 0.2602 2.6028-0.8497 5.8908-2.3708 8.6477 0.017 3.1895-0.9063 6.4394-2.3708 8.6477 0.5958 2.3962-0.9321 7.1066-2.3708 8.6477 0.2542 3.9246-1.4532 5.8875-2.3953 8.6157l-7.8333-0.70962z" fill="#008f4c" stroke="#000" stroke-width="1.0991"/>
     <path transform="translate(1587.6 14.093)" d="m670.32 644.89c-2.0097 4.5571-6.9504 6.3595-9.7914 6.3122" fill="#008f4c" stroke="#000" stroke-width="1.0991"/>
     <path d="m2255.6 667.63c-3.3431 4.3904-6.9504 6.3595-9.7914 6.3122" fill="#008f4c" stroke="#000" stroke-width="1.0991"/>
     <path d="m2253.2 676.28c-3.0215 4.2951-7.075 6.4093-9.7914 6.3122" fill="#008f4c" stroke="#000" stroke-width="1.0991"/>
     <path d="m2250.8 684.93c-2.3431 3.5571-6.9504 6.3595-9.7914 6.3122" fill="#008f4c" stroke="#000" stroke-width="1.0991"/>
     <path d="m2248.4 693.58c-3.1454 4.5571-7.0009 6.3595-9.7914 6.3122" fill="#008f4c" stroke="#000" stroke-width="1.0991"/>
     <path d="m2246.1 702.22c-2.5098 3.8929-5.7838 5.4726-9.7914 6.3122" fill="#008f4c" stroke="#000" stroke-width="1.0991"/>
     <path d="m2243.7 710.87c-3.025 3.8802-6.1544 5.7235-9.7914 6.3122" fill="#008f4c" stroke="#000" stroke-width="1.0991"/>
     <path d="m2241.3 719.52c-3.1765 4.3904-6.1171 6.1928-9.7914 6.3122" fill="#008f4c" stroke="#000" stroke-width="1.0991"/>
    </g>
    <g transform="matrix(-1.7941 0 0 1.9584 4403.4 -303.63)" fill="#008f4c" stroke="#000" stroke-width=".90693">
     <path d="m2304.7 365.92c8.7838 0.18105 15.27 0.01 15.682-1.9399-7.4357-20.423 8.0392-42.442-15.682-46.235-23.637 3.7864-8.5352 25.303-15.681 46.235-0.1758 2.2322 9.9928 1.9247 15.681 1.9399z" fill="#008f4c" stroke="#000" stroke-width=".90693"/>
     <path d="m2314.8 365.8c-4.9468-20.785 3.772-42.403-9.4215-48.057" fill="#008f4c" stroke="#000" stroke-width=".90693"/>
     <path d="m2308 365.97c-0.8378-18.031 2.0058-40.201-3.2138-48.226" fill="#008f4c" stroke="#000" stroke-width=".90693"/>
     <path d="m2294.7 365.8c4.9468-20.785-3.772-42.403 9.4215-48.057" fill="#008f4c" stroke="#000" stroke-width=".90693"/>
     <path d="m2301.5 365.97c0.8378-18.031-2.0058-40.201 3.2138-48.226" fill="#008f4c" stroke="#000" stroke-width=".90693"/>
     <path d="m2316.7 314.06c0 6.0736-5.355 7.8895-11.961 7.8895s-11.961-1.8159-11.961-7.8895c0-6.0736 5.355-10.997 11.961-10.997 6.6035 0 11.958 4.9205 11.961 10.992" fill="#008f4c" stroke="#000" stroke-linecap="square" stroke-linejoin="round" stroke-width=".90693"/>
     <path d="m2296.4 315.03h16.651c2.2856 0 4.1258 1.5426 4.1258 3.4587s-1.8402 3.4587-4.1258 3.4587h-16.651c-2.2856 0-4.1257-1.5426-4.1257-3.4587s1.8401-3.4587 4.1257-3.4587z" fill="#008f4c" stroke="#000" stroke-linecap="square" stroke-linejoin="round" stroke-width=".90693"/>
    </g>
   </g>
   <use transform="translate(52.656 209.84)" width="1" height="1" xlink:href="#g3853"/>
   <use transform="translate(-52.722 209.88)" width="1" height="1" xlink:href="#g3853"/>
   <g id="g7479-7-5-8-5-5-4-3-2-0-4-5-6" transform="matrix(1.7941 0 0 1.9584 -3971.8 116.16)" fill="#008f4c" stroke="#000" stroke-width=".90693">
    <path d="m2304.7 365.92c8.7838 0.18105 15.27 0.01 15.682-1.9399-7.4357-20.423 8.0392-42.442-15.682-46.235-23.637 3.7864-8.5352 25.303-15.681 46.235-0.1758 2.2322 9.9928 1.9247 15.681 1.9399z" fill="#008f4c" stroke="#000" stroke-width=".90693"/>
    <path d="m2314.8 365.8c-4.9468-20.785 3.772-42.403-9.4215-48.057" fill="#008f4c" stroke="#000" stroke-width=".90693"/>
    <path d="m2308 365.97c-0.8378-18.031 2.0058-40.201-3.2138-48.226" fill="#008f4c" stroke="#000" stroke-width=".90693"/>
    <path d="m2294.7 365.8c4.9468-20.785-3.772-42.403 9.4215-48.057" fill="#008f4c" stroke="#000" stroke-width=".90693"/>
    <path d="m2301.5 365.97c0.8378-18.031-2.0058-40.201 3.2138-48.226" fill="#008f4c" stroke="#000" stroke-width=".90693"/>
    <path d="m2316.7 314.06c0 6.0736-5.355 7.8895-11.961 7.8895s-11.961-1.8159-11.961-7.8895c0-6.0736 5.355-10.997 11.961-10.997 6.6035 0 11.958 4.9205 11.961 10.992" fill="#008f4c" stroke="#000" stroke-linecap="square" stroke-linejoin="round" stroke-width=".90693"/>
    <path d="m2296.4 315.03h16.651c2.2856 0 4.1258 1.5426 4.1258 3.4587s-1.8402 3.4587-4.1258 3.4587h-16.651c-2.2856 0-4.1257-1.5426-4.1257-3.4587s1.8401-3.4587 4.1257-3.4587z" fill="#008f4c" stroke="#000" stroke-linecap="square" stroke-linejoin="round" stroke-width=".90693"/>
   </g>
   <use transform="translate(105.4 -2e-5)" width="1" height="1" xlink:href="#g7479-7-5-8-5-5-4-3-2-0-4-5-6"/>
   <use transform="translate(210.78 -.0345)" width="1" height="1" xlink:href="#g7479-7-5-8-5-5-4-3-2-0-4-5-6"/>
  </g>
 </g>
 <g transform="translate(1230.3 27.601)">
  <g transform="matrix(.95 0 0 .95 -3676.4 111.45)" fill="#eac102" stroke="#000" stroke-width="2.1053">
   <g transform="matrix(1 0 0 -1 2573.8 1987)">
    <path d="m1057 957.55c-0.3737-12.832 19.868-13.327 53.994-9.1542 33.372 4.0811 51.985 4.8592 87.767-10.136-16.374 15.883-38.676 36.98-78.221 42.837 29.171 12.104 52.275 20.56 84.143 14.905-35.006 36.946-97.171 3.0768-135.02 22.968l-13.2-33.666z"/>
    <path d="m1149.4 984.04c0.3737-12.832-18.471-12.388-46.599-13.429-39.287 1.1596-45.553-3.5735-45.835-13.069l-0.6024 39.441 0.6424 0.10563 92.03 21z"/>
    <path d="m920.29 980.3c1.7824-19.005 60.219-7.1586 124.54 3.2423 26.781 3.7876 104.44 17.667 104.56 0.49959l-0.8947 83.549c-0.029 20.94-88.068-0.1969-136.16-3.5556l-90.857-8.8174z"/>
    <path d="m1019.6 1014.3c0.3737-12.832-16.645-14.099-44.774-15.141-51.287-0.34037-54.273-9.35-54.555-18.845l-2.4002 67.263 101.58 1.5261z"/>
    <path d="m606.45 1005.1c78.505 0.2318 179.39 9.3136 263.26 14.496 80.54 4.9769 149.18 14.359 149.91-5.2943l-0.37 87.758c0.8387 17.589-59.051 11.67-148.3 5.6123-82.898-5.6273-148.51-13.949-264.52-14.808l-5.9867 0.052"/>
   </g>
   <g transform="rotate(180 1893.4 993.51)">
    <path d="m1057 957.55c-0.3737-12.832 19.868-13.327 53.994-9.1542 33.372 4.0811 51.985 4.8592 87.767-10.136-16.374 15.883-38.676 36.98-78.221 42.837 29.171 12.104 52.275 20.56 84.143 14.905-35.006 36.946-97.171 3.0768-135.02 22.968l-13.2-33.666z"/>
    <path d="m1149.4 984.04c0.3737-12.832-18.471-12.388-46.599-13.429-39.287 1.1596-45.553-3.5735-45.835-13.069l-0.6024 39.441 0.6424 0.10563 92.03 21z"/>
    <path d="m920.29 980.3c1.7824-19.005 60.219-7.1586 124.54 3.2423 26.781 3.7876 104.44 17.667 104.56 0.49959l-0.8947 83.549c-0.029 20.94-88.068-0.1969-136.16-3.5556l-90.857-8.8174z"/>
    <path d="m1019.6 1014.3c0.3737-12.832-16.645-14.099-44.774-15.141-51.287-0.34037-54.273-9.35-54.555-18.845l-2.4002 67.263 101.58 1.5261z"/>
    <path d="m606.45 1005.1c78.505 0.2318 179.39 9.3136 263.26 14.496 80.54 4.9769 149.18 14.359 149.91-5.2943l-0.37 87.758c0.8387 17.589-59.051 11.67-148.3 5.6123-82.898-5.6273-148.51-13.949-264.52-14.808"/>
   </g>
  </g>
  <g stroke-width="15.788">
   <path d="m-990.33 983.67q0 6.5163-1.2467 11.049-1.1874 4.4674-3.5026 7.2235-2.2559 2.7578-5.5209 3.942-3.2059 1.1858-7.1834 1.0735-4.0369-0.114-8.5487-1.4508v-45.144q2.2559-0.47371 4.3931-0.74924t4.0963-0.22019q4.0368 0.11401 7.2427 1.481 3.265 1.3686 5.5209 4.2538 2.3153 2.8869 3.5026 7.4885 1.2467 4.5362 1.2467 11.052zm-5.6991-0.1609q0-4.9712-0.65309-8.483-0.653-3.5117-2.0184-5.7672-1.3654-2.2554-3.6213-3.3268-2.1965-1.0697-5.2835-1.1569-0.8312-0.0235-1.6623 0.0201-0.8312 0.0436-1.7217 0.15292v36.276q0.8905 0.1596 1.7217 0.2503 0.8311 0.09 1.6028 0.1122 3.1465 0.089 5.343-0.8568 2.1965-0.9455 3.562-3.0567 1.4247-2.1766 2.0777-5.6515 0.65309-3.4747 0.65309-8.5131z" style="font-variant-caps:normal;font-variant-east-asian:normal;font-variant-ligatures:normal;font-variant-numeric:normal"/>
   <path d="m-954.47 986.07q0 5.4414-0.89047 9.879-0.83114 4.3743-2.6715 7.4675-1.781 3.0301-4.5712 4.5775-2.7309 1.5517-6.4709 1.2846-3.74-0.267-6.5302-2.2129-2.7308-1.9416-4.5712-5.2303-1.781-3.3518-2.6715-7.8491-0.89047-4.5647-0.89047-10.006 0-5.4414 0.89047-9.8788 0.89047-4.4374 2.6715-7.4676 1.8404-3.0931 4.5712-4.6448 2.7902-1.6146 6.5302-1.3475 3.74 0.26707 6.4709 2.2759 2.7901 1.9459 4.5712 5.2976 1.8404 3.2888 2.6715 7.8491 0.89047 4.5645 0.89047 10.006zm-5.6992-0.407q0-4.2321-0.47485-7.7593-0.47494-3.5272-1.5436-6.0891-1.0686-2.6291-2.7902-4.1628-1.6622-1.5294-4.0962-1.7033-2.434-0.17375-4.1556 1.114-1.6622 1.292-2.7308 3.7685-1.0686 2.4093-1.6029 5.8644-0.47494 3.4594-0.47494 7.6915 0 4.2323 0.47494 7.7594 0.53426 3.5315 1.6029 6.0934t2.7308 4.0914q1.7216 1.4664 4.1556 1.6402 2.434 0.1741 4.0962-1.051 1.7216-1.2879 2.7902-3.6972 1.0686-2.4092 1.5436-5.8687 0.47485-3.4593 0.47485-7.6916z" style="font-variant-caps:normal;font-variant-east-asian:normal;font-variant-ligatures:normal;font-variant-numeric:normal"/>
   <path d="m-931.85 1004.6q-1.1873-4.9216-2.434-9.4444-1.2467-4.5227-2.434-8.5038-1.128-4.0441-2.1965-7.345-1.0686-3.3009-1.9591-5.7829-0.23747 3.8122-0.41556 8.4348-0.11874 4.5596-0.29683 9.3838-0.11874 4.8283-0.23747 9.7239-0.0593 4.8326-0.11873 9.2621l-5.1055-0.3646q0.17811-6.0333 0.3562-12.134 0.1781-6.1677 0.41556-12.062 0.29683-5.9577 0.59367-11.579 0.3562-5.6175 0.77175-10.626l5.2836 0.37727q1.0686 2.965 2.434 7.0932 1.3654 4.061 2.7308 8.5251 1.4248 4.4683 2.7308 8.9282 1.3061 4.4598 2.2559 8.1552 0.94985-3.5598 2.1966-7.8373 1.2467-4.2775 2.6121-8.5466 1.3654-4.2691 2.6715-8.1394 1.3654-3.9332 2.434-6.7455l5.2836 0.37727q0.41555 5.068 0.71239 10.732 0.35619 5.6684 0.59366 11.664 0.29683 5.9328 0.47492 12.126 0.1781 6.1258 0.3562 12.184l-5.1055-0.3645q-0.11874-4.4421-0.23746-9.3548-0.0593-4.9081-0.23747-9.8249-0.11873-4.9796-0.29683-9.6277-0.1781-4.7152-0.41557-8.6285-0.53429 1.6413-1.3654 4.1347-0.77176 2.4305-1.6622 5.3227-0.83112 2.8965-1.781 5.9861-0.89049 3.0266-1.7216 5.856-0.77176 2.8335-1.4248 5.2052-0.59365 2.3089-0.94985 3.7614z" style="font-variant-caps:normal;font-variant-east-asian:normal;font-variant-ligatures:normal;font-variant-numeric:normal"/>
   <path d="m-903.06 966.53 5.343 0.38151v46.555l-5.343-0.3815z" style="font-variant-caps:normal;font-variant-east-asian:normal;font-variant-ligatures:normal;font-variant-numeric:normal"/>
   <path d="m-867.56 1015.7q-1.4248-4.0653-3.2651-8.7647-1.781-4.7626-3.7994-9.5421-1.9591-4.8423-4.0369-9.5587-2.0778-4.7837-4.0963-8.8914v35.672l-4.9868-0.3561v-46.554l4.4525 0.31792q2.2559 4.3261 4.3337 8.8411 2.1372 4.5192 4.0369 8.9543 1.8997 4.3679 3.562 8.6516 1.7216 4.2208 3.1464 8.0173v-33.388l4.9868 0.35608v46.554z" style="font-variant-caps:normal;font-variant-east-asian:normal;font-variant-ligatures:normal;font-variant-numeric:normal"/>
   <path d="m-853.25 1016.7v-46.555l18.463 1.3183v5.1727l-13.12-0.93682v14.443l11.873 0.8479v5.0383l-11.873-0.8478v16.727l14.07 1.0047v5.1727z" style="font-variant-caps:normal;font-variant-east-asian:normal;font-variant-ligatures:normal;font-variant-numeric:normal"/>
   <path d="m-783.56 974.61v5.1727l-9.1424-0.54532v41.382l-5.343-0.3187v-41.382l-9.1424-0.54531v-5.1727z" style="font-variant-caps:normal;font-variant-east-asian:normal;font-variant-ligatures:normal;font-variant-numeric:normal"/>
   <path d="m-766.58 1023.2q-5.7585-0.3019-8.6674-4.1492-2.8496-3.8442-2.8496-11.838v-32.178l5.343 0.28008v31.641q0 5.307 1.3654 8.0658 1.3654 2.6915 4.9274 2.8782 3.6807 0.1929 4.9868-2.4257 1.3654-2.6827 1.3654-7.8554v-31.641l5.343 0.28008v32.178q0 7.86-2.9683 11.466-2.9683 3.6064-8.8455 3.2984z" style="font-variant-caps:normal;font-variant-east-asian:normal;font-variant-ligatures:normal;font-variant-numeric:normal"/>
   <path d="m-716.89 1020.4q3.2058 0.093 4.9274-1.8721 1.781-1.9636 1.781-5.3897 0-1.8138-0.5343-3.2401-0.53429-1.4263-1.4248-2.5941-0.83112-1.1662-1.9591-2.1394-1.128-0.9734-2.3153-1.9484-1.3654-1.1145-2.8496-2.3668-1.4842-1.2524-2.7308-2.9008-1.1873-1.6468-1.9591-3.8189t-0.77176-5.0608q0-2.8215 0.83113-5.0814 0.89049-2.2582 2.3746-3.8274 1.5435-1.5674 3.6213-2.3804 2.1372-0.81123 4.5712-0.74052 2.3746 0.069 4.3931 0.7994 2.0184 0.73042 3.3839 1.7106l-1.6622 4.7214q-1.2467-0.97672-2.7308-1.4901-1.4248-0.57881-3.0277-0.62537-2.9089-0.0845-4.6899 1.6776-1.7216 1.6966-1.7216 5.1227 0 1.881 0.53429 3.3073 0.59367 1.428 1.4842 2.5958 0.94987 1.1697 2.1372 2.1447 1.2467 0.9767 2.6121 2.024t2.7902 2.2979q1.4248 1.2506 2.5527 2.8957 1.1873 1.5796 1.8997 3.75 0.77176 2.1049 0.77176 4.9936 0 2.6199-0.71239 4.9505-0.7124 2.3306-2.2559 4.0995-1.4842 1.7036-3.7994 2.7111-2.2559 0.9422-5.343 0.8524-2.8496-0.083-4.9867-0.8838-2.1372-0.801-3.7994-2.0585l1.6622-4.7884q1.5435 1.1196 3.1464 1.8379 1.6622 0.6528 3.7994 0.7149z" style="font-variant-caps:normal;font-variant-east-asian:normal;font-variant-ligatures:normal;font-variant-numeric:normal"/>
   <path d="m-684.42 1026.5q-7.2427-0.2104-11.101-6.4357-3.8588-6.2254-3.8588-18.989 0-6.5163 1.0686-10.986 1.128-4.4682 3.087-7.2328 1.9591-2.7646 4.6306-3.8962 2.6715-1.1988 5.8179-1.1074 2.6121 0.0759 4.868 0.94755 2.2559 0.80449 3.6807 1.9879l-1.6029 4.9918q-1.4248-1.1162-3.087-1.8363-1.6029-0.71836-3.7401-0.78044-4.7493-0.13796-6.8865 4.3009-2.1372 4.3716-2.1372 13.777 0 9.4721 2.2559 14.643t7.3614 5.3194q2.434 0.071 3.9182-0.558 1.5435-0.6269 2.9683-1.6604l1.4842 4.8128q-1.3654 1.1695-3.6213 1.9773-2.1965 0.8095-5.1055 0.725z" style="font-variant-caps:normal;font-variant-east-asian:normal;font-variant-ligatures:normal;font-variant-numeric:normal"/>
   <path d="m-669.81 979.46h5.3429v46.554h-5.3429z" style="font-variant-caps:normal;font-variant-east-asian:normal;font-variant-ligatures:normal;font-variant-numeric:normal"/>
   <path d="m-649.39 1021.9q3.2058 0 4.9274-2.0153 1.781-2.0153 1.781-5.4414 0-1.8138-0.5343-3.2246-0.53429-1.4107-1.4248-2.5527-0.83113-1.142-1.9591-2.0825-1.128-0.9406-2.3153-1.8811-1.3654-1.0748-2.8496-2.284-1.4842-1.2093-2.7308-2.8215-1.1873-1.6123-1.9591-3.762-0.77175-2.1497-0.77175-5.0384 0-2.8215 0.83112-5.1055 0.8905-2.2841 2.3746-3.8963 1.5435-1.6123 3.6213-2.4856 2.1372-0.87331 4.5712-0.87331 2.3746 0 4.3931 0.67179 2.0184 0.67178 3.3839 1.6123l-1.6623 4.7697q-1.2467-0.9405-2.7308-1.4108-1.4248-0.53742-3.0277-0.53742-2.9089 0-4.6899 1.8138-1.7216 1.7466-1.7216 5.1727 0 1.881 0.5343 3.2917 0.59366 1.4107 1.4842 2.5528 0.94986 1.142 2.1372 2.0825 1.2467 0.94054 2.6121 1.9481 1.3654 1.0077 2.7902 2.2169t2.5527 2.8215q1.1873 1.5451 1.8997 3.6948 0.77176 2.0825 0.77176 4.9712 0 2.6199-0.71239 4.9712t-2.2559 4.1651q-1.4842 1.7466-3.7994 2.8214-2.2559 1.0077-5.3429 1.0077-2.8496 0-4.9868-0.739t-3.7994-1.9482l1.6622-4.8367q1.5435 1.0748 3.1464 1.7466 1.6622 0.6045 3.7994 0.6045z" style="font-variant-caps:normal;font-variant-east-asian:normal;font-variant-ligatures:normal;font-variant-numeric:normal"/>
   <path d="m-594.59 977.39c-2.4934 0.12853-4.6711 0.84608-6.5312 2.1512-1.8206 1.2582-3.3434 2.9933-4.5703 5.2063-1.1873 2.1662-2.0782 4.7647-2.6719 7.796-0.59366 3.0312-0.89062 6.3616-0.89062 9.9893 0 3.6276 0.29696 6.9253 0.89062 9.8955 0.59366 2.9251 1.4846 5.4319 2.6719 7.5204 1.2269 2.0416 2.7498 3.5982 4.5703 4.6687 1.8601 1.0685 4.0379 1.538 6.5312 1.4095 2.4934-0.1285 4.6501-0.8214 6.4707-2.0796 0.87156-0.5905 1.6648-1.2851 2.3887-2.0743l2.8692 3.7719 4.3105-3.3783-4.0762-5.3584c0.75952-1.7632 1.3468-3.7251 1.75-5.8968 0.59366-3.0313 0.89063-6.3596 0.89063-9.9872-1e-5 -3.6276-0.29697-6.9275-0.89063-9.8976-0.55408-2.972-1.445-5.4787-2.6719-7.5204-1.1873-2.0885-2.7102-3.6666-4.5703-4.7351-1.8206-1.1154-3.9773-1.6095-6.4707-1.481zm0 5.3086c1.6227-0.0837 2.9875 0.3157 4.0957 1.1991 1.1477 0.88139 2.0767 2.1539 2.7891 3.8191 0.71239 1.6203 1.2283 3.5864 1.5449 5.8988 0.31662 2.3126 0.47461 4.8807 0.47461 7.7022s-0.15799 5.4039-0.47461 7.749c-0.1235 0.9149-0.28699 1.7653-0.47071 2.5809l-5.2891-6.9539-4.3106 3.3765 7.1973 9.4611c-0.44088 0.6178-0.9252 1.1672-1.4609 1.6339-1.1082 0.9527-2.473 1.4712-4.0957 1.5548-1.6227 0.084-3.0085-0.293-4.1562-1.1294-1.1082-0.8835-2.0181-2.1356-2.7305-3.7558-0.71239-1.6204-1.2473-3.5854-1.6035-5.8959-0.31661-2.3125-0.4746-4.8786-0.4746-7.7001s0.15798-5.4059 0.4746-7.7511c0.3562-2.3472 0.89113-4.3674 1.6035-6.0611 0.71239-1.7387 1.6223-3.106 2.7305-4.1037 1.1477-0.99962 2.5336-1.5408 4.1562-1.6244z" style="font-variant-caps:normal;font-variant-east-asian:normal;font-variant-ligatures:normal;font-variant-numeric:normal"/>
   <path d="m-560.52 1024.4q-5.7585 0.2968-8.6674-3.2481-2.8496-3.5479-2.8496-11.542v-32.178l5.343-0.27541v31.641q0 5.307 1.3654 7.9238 1.3654 2.5495 4.9274 2.3659 3.6807-0.1897 4.9868-2.9442 1.3654-2.8247 1.3654-7.9974v-31.641l5.3429-0.27541v32.178q0 7.86-2.9683 11.775-2.9683 3.9149-8.8455 4.2179z" style="font-variant-caps:normal;font-variant-east-asian:normal;font-variant-ligatures:normal;font-variant-numeric:normal"/>
   <path d="m-539.09 975.44 5.3429-0.36508v46.554l-5.3429 0.3651z" style="font-variant-caps:normal;font-variant-east-asian:normal;font-variant-ligatures:normal;font-variant-numeric:normal"/>
   <path d="m-511.01 973.72q1.4248 4.941 2.7902 10.02 1.4248 5.0082 2.7308 10.562 1.3654 5.5497 2.6715 11.775 1.3654 6.2215 2.7308 13.451l-5.343 0.365q-0.47493-2.9905-1.0092-5.9099-0.47493-2.9233-1.0092-5.8427l-12.942 0.8843q-0.59366 2.9964-1.0686 5.9847-0.47493 2.9884-0.94986 6.0438l-5.1648 0.3529q1.3061-7.4116 2.6715-13.82 1.3654-6.408 2.6715-12.14 1.3654-5.7363 2.7308-10.935 1.4248-5.2701 2.8496-10.406zm-2.9089 7.051q-1.4841 5.6772-2.8496 11.413-1.3654 5.7363-2.6121 11.733l10.864-0.7423q-1.1873-5.8305-2.5527-11.38-1.3654-5.5496-2.8496-11.024z" style="font-variant-caps:normal;font-variant-east-asian:normal;font-variant-ligatures:normal;font-variant-numeric:normal"/>
   <path d="m-457.99 970q1.4248 4.941 2.7902 10.02 1.4248 5.0082 2.7308 10.562 1.3654 5.5496 2.6715 11.775 1.3654 6.2215 2.7308 13.451l-5.3429 0.3651q-0.47493-2.9906-1.0092-5.9099-0.47492-2.9234-1.0092-5.8428l-12.942 0.8843q-0.59365 2.9965-1.0686 5.9848-0.47492 2.9883-0.94985 6.0438l-5.1648 0.3529q1.3061-7.4117 2.6715-13.82 1.3654-6.408 2.6715-12.14 1.3654-5.7363 2.7308-10.935 1.4248-5.2701 2.8496-10.406zm-2.9089 7.051q-1.4842 5.6772-2.8496 11.413-1.3654 5.7364-2.6121 11.733l10.864-0.7424q-1.1873-5.8304-2.5527-11.38-1.3654-5.5497-2.8496-11.024z" style="font-variant-caps:normal;font-variant-east-asian:normal;font-variant-ligatures:normal;font-variant-numeric:normal"/>
   <path d="m-426.59 1007.8q-1.1873-4.7556-2.434-9.1043-1.2467-4.3485-2.434-8.1637-1.128-3.8865-2.1965-7.038-1.0686-3.1515-1.9591-5.5091-0.23746 3.8454-0.41556 8.4928-0.11873 4.5762-0.29683 9.4253-0.11874 4.8449-0.23746 9.757-0.0593 4.841-0.11874 9.2787l-5.1055 0.3489q0.1781-6.0582 0.3562-12.184 0.17809-6.1926 0.41556-12.12 0.29683-5.9992 0.59366-11.662 0.3562-5.6673 0.77176-10.734l5.2836-0.36103q1.0686 2.8156 2.434 6.753 1.3654 3.8702 2.7308 8.1435 1.4248 4.2692 2.7308 8.5465 1.306 4.2774 2.2559 7.8401 0.94986-3.6925 2.1966-8.1443t2.6121-8.9116q1.3654-4.4599 2.6715-8.5126 1.3654-4.124 2.434-7.0857l5.2836-0.36103q0.41556 5.01 0.71239 10.633 0.3562 5.6186 0.59366 11.581 0.29683 5.8914 0.47493 12.06 0.17809 6.101 0.3562 12.135l-5.1055 0.3488q-0.11873-4.4256-0.23746-9.3215-0.0594-4.8999-0.23746-9.7918-0.11874-4.9631-0.29683-9.5862-0.1781-4.6903-0.41557-8.5704-0.5343 1.7159-1.3654 4.3255-0.77177 2.5383-1.6623 5.555-0.83112 3.0126-1.781 6.2349-0.8905 3.1511-1.7216 6.0966-0.77175 2.9413-1.4248 5.4043-0.59366 2.3919-0.94986 3.8941z" style="font-variant-caps:normal;font-variant-east-asian:normal;font-variant-ligatures:normal;font-variant-numeric:normal"/>
   <path d="m-370.19 986.91q0 5.4414-0.89048 10.003-0.83113 4.4905-2.6715 7.8408-1.781 3.279-4.5712 5.2163-2.7308 1.9333-6.4709 2.1888-3.7401 0.2556-6.5303-1.3004-2.7308-1.56-4.5712-4.5916-1.781-3.1029-2.6715-7.4757-0.89049-4.4403-0.89049-9.8817 0-5.4414 0.89049-10.003 0.89049-4.5618 2.6715-7.8409 1.8404-3.3503 4.5712-5.2835 2.7902-2.0045 6.5303-2.26t6.4709 1.3716q2.7902 1.556 4.5712 4.6588 1.8404 3.0316 2.6715 7.4758 0.89048 4.4401 0.89048 9.8815zm-5.6991 0.3894q0-4.2322-0.47493-7.693-0.47494-3.4608-1.5435-5.8734-1.0686-2.4798-2.7902-3.7728-1.6622-1.2972-4.0963-1.1309-2.434 0.16631-4.1556 1.6947-1.6622 1.5243-2.7308 4.1501-1.0686 2.5586-1.6029 6.0884-0.47492 3.5257-0.47492 7.7579 0 4.2323 0.47492 7.693 0.5343 3.4568 1.6029 5.8694t2.7308 3.7098q1.7216 1.2259 4.1556 1.0595 2.434-0.1663 4.0963-1.6234 1.7216-1.5284 2.7902-4.087t1.5435-6.0844q0.47493-3.5256 0.47493-7.7579z" style="font-variant-caps:normal;font-variant-east-asian:normal;font-variant-ligatures:normal;font-variant-numeric:normal"/>
   <path d="m-319.26 960.49v5.1727l-9.1424 0.47082v41.382l-5.343 0.2751v-41.382l-9.1424 0.47082v-5.1727z" style="font-variant-caps:normal;font-variant-east-asian:normal;font-variant-ligatures:normal;font-variant-numeric:normal"/>
   <path d="m-313.44 1006.9v-46.554l18.463-0.1902v5.1727l-13.12 0.13516v14.443l11.873-0.12232v5.0384l-11.873 0.12232v16.727l14.07-0.145v5.1727z" style="font-variant-caps:normal;font-variant-east-asian:normal;font-variant-ligatures:normal;font-variant-numeric:normal"/>
  </g>
 </g>
</svg>
