<?xml version="1.0" encoding="UTF-8"?>
<svg width="1296" height="864"  xmlns="http://www.w3.org/2000/svg" id="Layer_1" data-name="Layer 1" viewBox="0 0 1296 864"><rect
          fill="#b88a57"
          x="0"
          y="0"
          width="1296"
          height="864" />
        
  <title>PFA-Colorado</title>
  <rect width="1296" height="864" fill="#b88a57"></rect>
  <path d="M585.1,663.8c-5.7-.1-9.6-.1-14.4,0v16.8c4.8-.3,9.6-.6,14.4-.8,1.1-.1,1.5-.4,1.6-1.7V665.6C586.7,664.3,586.3,663.7,585.1,663.8Z" fill="#f2e4d6"></path>
  <path d="M753.4,636.8H542.5a.43.43,0,0,0-.4.4V736c0,.3.3.5.5.4,22.1-8.5,61.1-14.2,105.5-14.2,44.2,0,83,5.6,105.1,14,.3.1.5-.1.5-.4V637.1C753.8,636.9,753.6,636.8,753.4,636.8ZM600.2,679.5c0,7.7-3.7,11.4-11.3,12-6.1.4-12.2.9-18.2,1.5v19.1c0,.2-.1.4-.3.4-4.2.6-8.5,1.2-12.7,1.9a.37.37,0,0,1-.4-.4V652.5a.43.43,0,0,1,.4-.4H589c7.6,0,11.3,3.6,11.2,11.3Zm46.4-27-3,11c0,.2-.2.3-.4.3-7.3,0-15-.1-22.2,0,0,3.4.1,6.4.1,9.8,7.1,0,12.8-.1,19.3-.1.3,0,.4.2.4.5-.5,1.7-2,7.3-3,10.5,0,.2-.2.3-.4.3l-16.5.3v11.4c8.4-.3,16.8-.5,25.2-.5.3,0,.4.2.4.5l-2.9,10.6c0,.2-.2.3-.4.3-11.7.1-23.8.6-35.5,1.4a.43.43,0,0,1-.4-.4c0-18.6.1-37.2.1-55.8a.43.43,0,0,1,.4-.4h38.3C646.5,652,646.7,652.3,646.6,652.5Zm47.7,10.9a.43.43,0,0,1-.4.4H679.5c0,14.6,0,29.1.1,43.8a.43.43,0,0,1-.4.4c-4.3-.2-8.5-.4-12.8-.5a.43.43,0,0,1-.4-.4V663.8H651.5a.43.43,0,0,1-.4-.4v-11a.43.43,0,0,1,.4-.4H694a.43.43,0,0,1,.4.4v11Zm45.5-10.9-3,11c0,.2-.2.3-.4.3H713.6v11.4c6,.4,11.6.7,19,1.1a.46.46,0,0,1,.4.5l-2.8,10.8c0,.2-.2.3-.4.3-6.6-.8-8.9-.9-16.2-1.5v12.5c8.9.9,17,1.9,24.6,3.2a.38.38,0,0,1,.3.5l-2.9,10.8c-.1.2-.2.3-.4.3-11.4-1.7-23.2-3.1-34.7-4.1a.43.43,0,0,1-.4-.4c0-18.9-.1-37.8-.1-56.7a.43.43,0,0,1,.4-.4h38.9C739.7,652,739.8,652.3,739.8,652.5Z" fill="#f2e4d6"></path>
  <path d="M475,676.7l-6.6,2.4c-3.5,1.3-5.6,2.5-5.6,5.8V694h19.7v-5.6H469.2V686c0-.7.3-.9,1.1-1.2l6.5-2.4c3.5-1.2,5.6-2.5,5.6-5.8v-4.4c0-3.6-1.8-5.3-5.3-5.3h-8.6c-3.6,0-5.3,1.8-5.3,5.3v3.2h6.3v-2.3c0-.6.2-.7.7-.7h5.1c.6,0,.7.2.7.7v2.4C476.1,676.2,475.7,676.4,475,676.7Z" fill="#f2e4d6"></path>
  <path d="M511.5,693.9c3.6,0,5.3-1.7,5.3-5.3V672.2c0-3.6-1.7-5.3-5.3-5.3h-9.9c-3.6,0-5.3,1.7-5.3,5.3v16.4c0,3.6,1.7,5.3,5.3,5.3Zm-8.8-20.7c0-.6.2-.7.7-.7h6.3c.5,0,.7.2.7.7v14.5c0,.5-.2.7-.7.7h-6.3c-.5,0-.7-.2-.7-.7Z" fill="#f2e4d6"></path>
  <rect x="462.8" y="652" width="54.2" height="5.6" fill="#f2e4d6"></rect>
  <rect x="462.8" y="702.8" width="54.2" height="5.6" fill="#f2e4d6"></rect>
  <path d="M791.2,676.7l-6.6,2.4c-3.5,1.3-5.6,2.5-5.6,5.8V694h19.7v-5.6H785.4V686c0-.7.3-.9,1.1-1.2l6.5-2.4c3.5-1.2,5.6-2.5,5.6-5.8v-4.4c0-3.6-1.8-5.3-5.3-5.3h-8.6c-3.6,0-5.3,1.8-5.3,5.3v3.2h6.3v-2.3c0-.6.2-.7.7-.7h5.1c.6,0,.7.2.7.7v2.4C792.3,676.2,791.9,676.4,791.2,676.7Z" fill="#f2e4d6"></path>
  <path d="M827.7,693.9c3.6,0,5.3-1.7,5.3-5.3V672.2c0-3.6-1.7-5.3-5.3-5.3h-9.9c-3.6,0-5.3,1.7-5.3,5.3v16.4c0,3.6,1.7,5.3,5.3,5.3Zm-8.9-20.7c0-.6.2-.7.7-.7h6.3c.5,0,.7.2.7.7v14.5c0,.5-.2.7-.7.7h-6.3c-.5,0-.7-.2-.7-.7Z" fill="#f2e4d6"></path>
  <rect x="779" y="652" width="54.2" height="5.6" fill="#f2e4d6"></rect>
  <rect x="779" y="702.8" width="54.2" height="5.6" fill="#f2e4d6"></rect>
  <path d="M606.9,562.1h19v5.3H612.7v6.1h10.7v5.2H612.7v11.6h-5.8Z" fill="#f2e4d6"></path>
  <path d="M634.8,584.7V567.8c0-3.8,1.8-5.6,5.6-5.6h10.3c3.8,0,5.6,1.8,5.6,5.6v16.9c0,3.8-1.8,5.6-5.6,5.6H640.4C636.6,590.3,634.8,588.5,634.8,584.7Zm15.1.3c.6,0,.8-.2.8-.8V568.3c0-.6-.2-.8-.8-.8h-8.4c-.6,0-.8.2-.8.8v15.9c0,.6.2.8.8.8Z" fill="#f2e4d6"></path>
  <path d="M689.1,590.3h-6.2l-4.7-9.9h-4.7v9.9h-5.8V562.1h14.9c3.8,0,5.6,1.8,5.6,5.6v6.8c0,3.2-1.2,5-3.9,5.5Zm-7.4-15.1c.6,0,.8-.2.8-.8v-6.2c0-.6-.2-.8-.8-.8h-8.1v7.8Z" fill="#f2e4d6"></path>
  <path d="M807,394.6c-.8-3.7-1-7.7-2.7-11-2.6-5.1-6.2-9.7-9.6-14.3a23.06,23.06,0,0,0-5.4-4.9c-6.9-5-13.9-9.8-22.9-10.3-6.2-.3-12.4-1.1-18.6-1.4a73,73,0,0,0-20.3,2.1c-5.3,1.2-10.6,2.5-16,3.7-1,.2-1.4-.4-1.4-1.3a7.08,7.08,0,0,1,.1-1.4l7.2-21.6a3.51,3.51,0,0,1,.5-.8c2.3-3.7,4.6-7.5,7-11.2a8.56,8.56,0,0,1,1.9-1.9c4.6-3,9.1-6,14.6-7,2.6-.5,3.6-2.3,2.5-4.7a18.46,18.46,0,0,0-2.4-3.3c-2.6-3-4-6.5-3.3-10.5a22.86,22.86,0,0,1,1.8-5.6,63.75,63.75,0,0,1,7.5-12.5c3.9-5.2,7.6-10.6,11.4-15.9,2.5-3.6,5.1-7.2,7.6-10.8,1.4-2,1.9-4.4.7-6.4-1.5-2.4-3.8-4-6.9-3.5s-5.9,1.5-8.9,1.8c-4.5.4-10.2,0-12.7-1.1-3.7-1.6-3.2-1-6.5-3.6-2.6-2.1-5.4-4.3-7.5-7.7-2.6-4.3-3.4-6.5-3.7-8.7-.1-1.2-.4-3.9-.7-6.7-.5-4.6.3-8.2,1.5-12.7,1.1-4.1,2.6-7.7,5.8-10.6a19.71,19.71,0,0,0,3.1-3.9c1-1.6.8-2-.5-3.5-2.6-2.8-5.9-4.1-9.5-5a17.7,17.7,0,0,0-13.2,1.4,27.16,27.16,0,0,0-13.2,16.1,47.92,47.92,0,0,0,.7,30.4c1.6,4.5,2.2,8.8.8,13.3-.6,2-1.3,4.1-2,6.1a48.85,48.85,0,0,0-2.6,7.3c-2,8.8-6.7,16.2-11.8,23.4-3.8,5.3-9.1,8.9-14.2,12.7-4.9,3.7-10.2,3.6-15.7,2.4-4.1-.9-5.1-3-4-6.9a114.11,114.11,0,0,0,2.9-17.5,55.7,55.7,0,0,0-.2-10,49.19,49.19,0,0,0-9.2-25.8,31.71,31.71,0,0,0-5.8-6.3,59.19,59.19,0,0,0-9.4-5.5,24.77,24.77,0,0,0-12.9-2.3c-1.4.1-2.7,0-4.1.2-2.6.2-5.1.5-7.7.9-4,.6-7.4,2.7-10.9,4.5a79.87,79.87,0,0,0-19.7,14.4,20.11,20.11,0,0,0-2.3,2.8c-1.3,1.7-2.4,3.5-3.8,5.1a41.79,41.79,0,0,0-6.9,11.2,32.79,32.79,0,0,1-9.1,11.7c-1.6,1.4-2.7,2.3-4.2,3.8-1.2,1.1-4,2.5-4.9,3.8s.4,3.2,1.6,4.6a16.55,16.55,0,0,1,2.8,3.6c3.2,6.5,3,7.7-.7,12.4a11,11,0,0,0-1.9,2.5c-2.3,4.5-5.9,8.1-9.3,11.7a36.27,36.27,0,0,1-8.9,7,72.71,72.71,0,0,1-8.1,3.7c-2.2,1-4.9,1.1-7.3,1.7-2.6.6-5.8-.5-8.3-1.4-3.5-1.3-5.5-4.1-7.7-6.8a10.81,10.81,0,0,1-2.4-4.3c-1.5-6.6-2.4-17.2-.8-33.7.6-6.7,2.3-12.3,3.9-18.6,2.2-8.7,6.6-17.4,14.9-21.5,2.9-1.4,6.9-2.9,9.6-5.3,3.8-3.4-3.5-7.3-4.6-8.5a4.65,4.65,0,0,1-1.1-4.6c.4-1.8.9-2.3,2.8-1.9,4,.9,8,1.8,12,2.8a40.57,40.57,0,0,0,18,.6,10.73,10.73,0,0,1,3.1,0c1.4,0,2.7.3,4.1.2,2.7-.2,5.4-.9,8-.9a32.41,32.41,0,0,0,12.7-3,5,5,0,0,1,1.3-.5c5.8-.8,10.9-3.5,16.4-5.1a9.2,9.2,0,0,0,2.8-1.4c4.5-3.1,9-6.2,12.8-10.1,2.1-2.2,4.5-4.1,6.5-6.3,2.5-2.8,5.9-4.8,7.2-8.6,1.5-4.3,4.1-8.1,5.9-12.2a44,44,0,0,0,3.2-9.9,86.19,86.19,0,0,0,.6-11.4,11.24,11.24,0,0,0-.4-3.2c-1.1-3.5-2.2-6.9-3.4-10.3-1.6-4.9-5.4-8.2-9.5-10.6-5.3-3.2-11.1-5.7-17.7-4.9a2.72,2.72,0,0,1-.9,0c-4.2-1.5-8.4-.7-12.6-.4-3,.2-5.9,1.2-8.9,1.8a62.21,62.21,0,0,0-20.8,7.7c-1.2.7-2.4,1.2-3.6,1.9a83.6,83.6,0,0,0-8.3,4.6,114.23,114.23,0,0,0-9.5,7.7c-1.9,1.6-3.6,3.2-5.4,4.9-2.5,2.4-4.2,5.6-7.5,7.1-.4.2-.6.7-.9,1l-3.7,4.6c-5.2,6.3-10.9,12.3-14.9,19.5-2.4,4.4-4.7,8.8-7.5,13-3.9,5.8-7.3,11.9-11.2,17.7A31.73,31.73,0,0,1,467,223.3c-2.7,1.3-5.3,2.8-8,4.4a7.71,7.71,0,0,0-2.3,2.1c-1.3,1.6-.9,5,1,6,3.3,1.7,4.1,4.8,4.6,7.9a52.75,52.75,0,0,1-.8,17.7c-.7,3.5-2.2,6.2-5.4,8-1,.6-1.8,1.6-2.9,2.2-4.2,2.7-8.3,5.5-12.7,7.9a18.1,18.1,0,0,1-6.5,1.9c-3.8.7-4.5,0-5.1-3.8-.1-.6-.1-1.2-.2-1.8-.1-3.8-.1-7.6-.3-11.4-.1-3.2.1-6.5-.8-9.5-1.3-4.9-2.5-10-6-14.2-.6-.7-.9-1.6-1.4-2.3a34.7,34.7,0,0,0-3.1-4.4c-5.2-6.3-12.4-9.6-19.6-12.8-3.2-1.4-6.5-1.1-9.8-1-5.5.1-10.9.5-16,3-.8.4-1.8.5-2.6.9-3.2,1.5-6.6,2.3-9.3,4.7-7.3,6.7-14.7,13.2-19.2,22.2-1.6,3.1-3.2,6.2-4.7,9.3-2.1,4.4-4.3,8.7-8.2,11.8-1.6,1.2-3.2,2.3-4.7,3.6-1.1,1-2.7,1.2-3.5,2.4-.9,1.5,0,3.9,1.5,4.9,4.5,3,5.9,7.6,6.3,12.5.4,5.1.8,10.3,1.7,15.3a17.42,17.42,0,0,0,1.5,5.2c2.4,4.6,5,9,7.6,13.5,1.3,2.3,7.2,6.3,10.1,8.8.2.2,4.6,2.2,4.9,2.3,3.3.9,4.3,1.7,7.7,2.3a52.61,52.61,0,0,0,15.3.4c7.3-1.1,12.1-3.7,18.7-7,3.8-1.9,8.8-4.8,11.1-8.6a23.69,23.69,0,0,1,3.4-3.7c3.4-3.5,4.9-6.7,7-11.1,1.4-2.9,2.9-5.7,4.4-8.5,1.9-3.4,1.9-3.4,5.5-2.8a8.17,8.17,0,0,0,2.7.1,69.8,69.8,0,0,0,14.9-4c3.9-1.6,7.4-4.1,11.6-5.2,3.2-.9,3.8-.7,4.1,2.4v.9c.5,9.2,1.8,18.1,6.2,26.3a42.78,42.78,0,0,0,7.1,9.9c2.8,2.9,6.6,4.2,9.6,6.8a5.51,5.51,0,0,0,2.5,1,102.93,102.93,0,0,0,17.5,2.8c8.7.4,16-2.6,22.8-7.5,4.4-3.2,8.8-6.5,13.1-9.9a55.55,55.55,0,0,0,6-5.9c.8-.8,1.5-1.9,2.4-2.3,1.5-.8,2.1-.6,3.1.9s1.6,2.6,2.5,4.2c.7,1.3,2.8,6.1,3.8,7,5.8,5.3,5,4.4,8.4,7.6s8.3,4.8,13.1,5.7c2.8.5,5.7,1.2,8.5,1.6a34.25,34.25,0,0,0,14.9-1.2c3-1,5.9-2.4,8.9-3.4,7.7-2.5,13.1-8,17.7-14.2a122.07,122.07,0,0,0,6.8-10.8c1.8-3,2-3.1,5.5-2.6s6.9,1.4,10.4,1.3c7.5-.2,14.7-1.8,21.1-6.1,1.6-1.1,3.1-2.5,4.7-3.5,8.2-5.1,13.7-12.8,18.9-20.6,4.9-7.2,8.5-15,12.2-22.8,1.4-2.9,2.7-5.8,4.1-8.6,1-2.1,2.1-2.5,4.1-1.4,3.2,1.7,6.2,3.8,9.3,5.8a2.45,2.45,0,0,1,1,3.2,60.07,60.07,0,0,1-2.3,5.9c-4.5,9.1-9.2,18.1-13.7,27.3-3.4,7-9.1,11.2-16,14-2.3.9-4.8,1.9-6.4,3.5-1.1,1.2-.4,3.6,1.7,4.9a16,16,0,0,0,2.6,2.6,6.52,6.52,0,0,1,2.7,6,39.51,39.51,0,0,1-.9,7.7c-.9,3.8-2.2,7.6-3.2,11.4a62.37,62.37,0,0,0-2.3,10.2c-.5,6.5-2.5,12.7-2.9,19.3-.3,6.8-1.6,11.7-1.7,19.5a111,111,0,0,0,0,12.9c.4,4.7,1.6,8,2.9,11.9,1,3,1.7,6.1,2.8,9.1a42.29,42.29,0,0,0,7,11.7,92.66,92.66,0,0,1,6,8,15.72,15.72,0,0,0,4.4,4.5c6.4,4.6,13.7,7.2,20.8,10.1a15.83,15.83,0,0,0,4.9,1c4.8.3,9.7.4,14.5.6,4,.3,7.8-.5,11.7-1a65.1,65.1,0,0,0,15.8-3.8,59.49,59.49,0,0,0,11-5.5,58.59,58.59,0,0,0,14-14.1,41.55,41.55,0,0,0,5.9-11.7,80.58,80.58,0,0,0,3.4-20.2,14.61,14.61,0,0,0-.3-3.6C807.7,398.5,807.4,396.5,807,394.6ZM520.3,197.5c3.4-5.4,6.4-10.9,10.3-16,4.9-6.3,10.8-11.4,16.1-17.3a10.63,10.63,0,0,1,1.1-.9c6.8-4.1,12.2-10,18.8-14.2,6.1-3.8,12.4-7.6,19.8-8.8,2.1-.3,4.1-1.1,6.2-1.5,5.7-1.1,12.7,1.5,15.3,6.5a8.82,8.82,0,0,1,.9,2c1.1,5.5,1.2,10.9-.9,16.1-.8,1.9-2.3,3.6-3.2,5.5-2.9,5.8-7.1,10.6-11.5,15.1-4.1,4.1-8.6,7.6-14.4,9.2a39.29,39.29,0,0,0-6.6,3c-3.9,2.1-8.2,3.1-12.5,4.1a83.63,83.63,0,0,1-15.8,2.3c-2.2-.3-4.5-.7-6.7-1a58.28,58.28,0,0,0-5.9-.3,25.52,25.52,0,0,1-9.9-1.3C519.8,199.8,519.4,198.9,520.3,197.5ZM403.6,250.4c-6.3,3.7-8.6,9.7-9.5,16.3-.8,5.9-.3,11.8,3.2,17.1,1.8,2.6,3.3,5.4,5.2,8a3.92,3.92,0,0,1,1,3.7c-.5,1.6-.8,3.2-1.4,4.8-1.5,3.8-3.5,6.5-5.2,10.2a24,24,0,0,1-9.7,11.2c-5,2.9-10.9,5.6-17,4.6-2.3-.4-3.5-.3-5.5-1.6s-4-2-6-4.1a22,22,0,0,1-3.5-6.8c-1.6-4.2-1.8-7.4-1.8-11.8,0-2.4.1-4.9.1-7.3a8.65,8.65,0,0,1,3-6.4c2.1-2,9.2-5.9,10.2-6.6,1.8-1.5,2.4-3.6.9-5.2-4.9-5.2-4.2-9.8-1.8-15.5a35.55,35.55,0,0,1,9.7-13c.7-.6,4.5-3.9,5.4-4.2,4.3-1.5,5-1.3,9.5-2.2,3.8-.8,7.2,0,10.7,1.1a7.44,7.44,0,0,1,2.7,1.6C407.1,246.7,407.2,248.3,403.6,250.4Zm223.2,4.4a36.37,36.37,0,0,1-4.6,3,11.23,11.23,0,0,0-5.2,4.9c-1.3,2.4-3.1,4.6-4.1,7.1-2.6,6.7-3.4,13.5.1,20.2,1.8,3.5,3.3,7.1,6.2,10,2.1,2,2.2,5.6.3,8.4-3.8,5.5-8.2,10.6-14.1,14a20.31,20.31,0,0,1-16.7,1.8c-4-1.2-7.6-2.4-10-5.8-1.8-2.5-3.1-3.9-3.8-6.5a44.64,44.64,0,0,1-1.6-11.8c0-7.3,2-13.6,7-18.9,1.3-1.4,4.3-2.6,5.9-3.7a19.92,19.92,0,0,0,1.9-1.2c1.5-1.2,2.1-2.6.9-3.9-3.6-4-3.8-8.2-3-12.7a9.9,9.9,0,0,1,.8-2.6c2.7-3.9,5.5-7.6,9.9-9.7,2-1,3.9-2.3,5.9-3.4,1.4-.8,3-1.3,4.5-2.1,3.6-1.8,7.5-1.1,11.1-.5a10.36,10.36,0,0,1,7.9,5.5,28.79,28.79,0,0,1,1.7,5.2A2.33,2.33,0,0,1,626.8,254.8ZM788.2,414a8.91,8.91,0,0,1-1.4,3.3c-2.7,3.4-5.3,7.1-8.5,10-5.5,5-11.2,9.7-18.5,12.1a26.31,26.31,0,0,1-4.9.7,59.49,59.49,0,0,1-16.3-.7,55.11,55.11,0,0,1-14.3-4.4,25.16,25.16,0,0,1-8.9-6.9,68.81,68.81,0,0,1-5.4-6.7,22.26,22.26,0,0,1-3.2-7,92.76,92.76,0,0,1-2.8-18.9c-.1-3.2.1-6.4.3-9.5a4.36,4.36,0,0,1,3.5-4.3c2.6-.7,5.2-1.6,7.8-2.4a70.87,70.87,0,0,0,7.3-2.6c5.9-2.7,12.2-3.6,18.4-4.7a38.52,38.52,0,0,0,4.9-.8,25.76,25.76,0,0,1,9.9-1c2,.1,3.9.3,5.9.3,4.3-.1,7.9,1.9,11.5,3.7.8.4,1.5,1.1,2.3,1.5,7.6,3.5,10.9,10.3,13.1,17.7.8,2.7.5,5.7.7,8.6A35.25,35.25,0,0,1,788.2,414Z" fill="#f2e4d6"></path>
  <path d="M1166.4,251.5a32,32,0,0,0-2.7-9.6c-4.1-8.6-9.7-15.8-19.1-19.6-7.6-3.1-15.1-4.4-23.1-2.8a88.63,88.63,0,0,0-12.6,2.9c-8.5,2.9-14.6,7.6-20.1,12.7a32,32,0,0,1-2.5,2.7c-4.6,3.9-8,9.5-10.6,14.8a32.3,32.3,0,0,1-14.4,14.6c-1.4.8-3.6,1.7-4.7,2.9-1.2,1.4-.2,3.1.7,4.9a61.26,61.26,0,0,1,3.5,7.3,27.38,27.38,0,0,1,.7,5,16.38,16.38,0,0,1-2.2,8.3c-1.8,3.1-4,6.1-5.6,9.4a42.66,42.66,0,0,1-13.4,15.2,23.16,23.16,0,0,1-11.3,4.4c-3.1.4-6.3.4-8.7-1.7a76.46,76.46,0,0,1-6.5-7.4.6.6,0,0,1-.1-.4c-1.1-4.6-2-9.2-.8-14,.8-3.1,1.3-6.2,2-9.4.8-3.4,1.7-6.8,2.5-10.2.5-2.1.9-4.1,1.5-6.2,2.9-9,6.7-17.6,10.4-26.2,2-4.7,4.4-9.3,6.6-14,.8-1.6,1.5-3.3,2.2-4.9,1.3-3.1,2.4-6.2,3.8-9.2,2-4.3,4.3-8.4,6.1-12.7,2.4-5.6,4.3-11.4,6.6-17a47.45,47.45,0,0,0,2.7-9.8c.3-2,.7-4.6.7-5.1-.2-7.8-.7-12.4-4.2-18.7-.5-.9-3.8-4.5-4.7-4.9a28,28,0,0,0-15.8-3.2,15.47,15.47,0,0,0-3.1.6c-3.3,1-4.3,3-3.5,6.5.6,2.5,1,3.3,1.5,5.8,1.4,6.8-.1,15.1-2.3,21.5-2.3,6.6-4.7,13.1-7.2,19.7a93.52,93.52,0,0,1-5,11.7,88.55,88.55,0,0,0-4.3,10c-1,2.9-2,5.7-3.2,8.5-.8,2-1.4,2-2.8.4-1.7-1.9-3.3-4-5.1-5.8-2.2-2.2-5.7-4.9-8.9-5.7a67.69,67.69,0,0,0-8.9-2.1,48.93,48.93,0,0,0-22.1,1.9,9.49,9.49,0,0,0-2.1.9c-7.6,3.7-13.8,9.2-19.6,15.4-3.8,4-6.5,8.7-9.3,13.5a39.78,39.78,0,0,1-4.3,6.4c-8,9.4-9.3,9.1-14.1,13.5-2.2,2-2.8,3.3-1.7,5.9a8.3,8.3,0,0,0,2.3,2.7,10.39,10.39,0,0,1,4,7.4,20,20,0,0,1-3.2,13,31.1,31.1,0,0,0-2.5,3.8c-3.9,8.7-11,14.3-18.7,19.4a7.2,7.2,0,0,1-2.6.8c-1.3.3-2.7.4-4,.6a9.88,9.88,0,0,1-10.8-6.9c-1.6-5.6-.4-11,1.7-16,2.4-5.6,4-11.4,6-17.2s3.8-11.8,7-17.3c1.9-3.2,3.2-6.8,4.8-10.3l.3-.9c.9-3.7-1.6-6.2-5.3-5.3-4.8,1.2-8-.6-8.9-5.6a25.58,25.58,0,0,0-4.3-9.5c-1-1.5-2.5-2.7-3.6-4.1-3.1-4-7.2-6.4-11.8-8.2a66.88,66.88,0,0,0-8.6-2.9,52,52,0,0,0-11.8-.7,96.8,96.8,0,0,0-13,2.7c-6.7,1.9-11.5,5.3-16.8,9.6a65.94,65.94,0,0,0-11.2,11.2,128.2,128.2,0,0,0-9.7,14.3c-3.7,6.6-7.1,13.4-15,16.4-3.2,1.2-3.4,4.6-.5,6.7a15.15,15.15,0,0,1,6.1,13.1c-.1,5.6,1.4,10.9,2.3,16.2.9,4.8,3.1,9.5,5.4,13.9,2.9,5.5,6.8,10.6,12.4,13.6a49.63,49.63,0,0,0,10.6,3.8,16.27,16.27,0,0,0,5.4.5c3.3-.1,6.7-.4,10-.6,3.7-.2,7.5-.8,10.5-2.8,4.5-3,9.5-5.4,13.4-9.3a51.94,51.94,0,0,1,4.5-3.7,23.85,23.85,0,0,1,3.4,4.3c2,3.4,3.9,4.9,7.8,8.3,1.7,1.5,3.2,1.7,5.1,2.8,2.9,1.7,11.5,1.5,14.6,1.1a24.28,24.28,0,0,0,8.4-2.2c7.8-3.1,14.7-6.9,19.8-13.8,1.8-2.4,3.6-4.9,5.6-7.2,1.4-1.6,2.6-1.5,3.7.2,1.8,2.6,3.4,5.4,5.1,8.1,3.9,6.2,8.6,11.3,16.2,12.9a29.72,29.72,0,0,1,3.9,1.3c6.2,2.2,12.6,2,18.8.5,4.3-1.1,8.8-2.6,12.2-5.8a3.36,3.36,0,0,1,1.5-.9,10.26,10.26,0,0,0,5.3-4.1,26.82,26.82,0,0,1,3-2.8c1.7-1.7,3.4-3.5,4.9-5.3,1.3-1.5,1.7-1.6,2.4.1,3.4,8.5,10.3,13.3,18.2,16.8a6.11,6.11,0,0,0,1.3.3c5.8,1.9,5.3,1.3,10.6,1.8a47.43,47.43,0,0,0,9.3-1.4c3.8-1.8,7.7-3.5,11.3-5.6,5.6-3.3,11.2-6.7,15.5-11.8a25,25,0,0,1,3.3-3.2c1.3-1.1,2.6-1.2,3.5.2,1.9,2.9,9.4,10.3,11.6,12.8s17.6,8.9,25.9,8.9c10.2,0,17.5-.8,28.5-6.9a37.13,37.13,0,0,0,4.1-2.8c3.6-2.9,7.4-7.6,10.2-11.2,7.2-9.2,10.5-18.9,14.1-29.9a130.38,130.38,0,0,0,3.9-16.4A56.51,56.51,0,0,0,1166.4,251.5ZM861.8,268.3c-2.7,8.2-4.7,16.7-8.6,24.4-2.4,4.7-4.5,9.6-7,14.3-3.4,6.5-8.2,12.1-15.2,15.1-5.3,2.3-10.8,3.4-16.3.7-4.3-2.1-8-5.5-8.9-10.4s-1.9-9.9-1-14.9a19.44,19.44,0,0,1,1.2-4.3,48.86,48.86,0,0,1,3.4-6.4,18.56,18.56,0,0,1,7.2-6.7c2.6-1.4,2.9-3.3,1.3-5.7a15.29,15.29,0,0,0-2.6-3.1c-2.3-2.2-2.5-4.8-1.6-7.6a27.25,27.25,0,0,1,4.9-9.2,11.18,11.18,0,0,0,1.7-2.1,20,20,0,0,1,8.4-7.4,73,73,0,0,1,8.2-3.1,35.18,35.18,0,0,1,9.5-1.3,53.16,53.16,0,0,1,5.7,1c5.2,1.7,8.1,5.5,9.4,10.7C863,257.6,863.6,262.8,861.8,268.3Zm131.6,17.9c-.7,3.6-1.9,7-2.7,10.6-1.2,5.3-4.2,9.7-6.9,14.3-1.6,2.7-4.6,3.9-6.5,6.2-.4.5-1.1.7-1.4,1.1-2.7,3.6-6.9,5-10.7,6.5a20.11,20.11,0,0,1-14.3.2,9.49,9.49,0,0,1-3.4-2.2,38.53,38.53,0,0,1-3.5-3.5c-1.2-1.2-1-1.1-1.8-2.9a19.09,19.09,0,0,1-1.1-4.1c-.7-10.5-1.4-14.9,3-21.6a63.38,63.38,0,0,1,4.1-6,54.5,54.5,0,0,1,5-4.6c.8-.7,1.8-1.1,2.6-1.8,1.9-1.7,2-3.5.3-5.5a53.25,53.25,0,0,1-3.8-4.5c-1.8-2.5-1.3-6.8.4-9.8,2.5-4.6,4.7-6.9,8-10.9a25.19,25.19,0,0,1,12.4-8.1c6.7-1.8,12.6-.4,17.4,4.8,3.8,4,6.2,8.5,6.2,14.2,0,2.3.2,4.5.3,6.8C997.3,272.7,994.8,279.4,993.4,286.2Zm154.2-25.7c-1.3,8.7-.6,17.3-3.8,25.7-.1,3.8-2,6.9-3.7,10.1-1.1,2-1.6,4.3-2.8,6.2-2.4,3.9-4.9,7.7-7.6,11.3-3.8,5-9.3,7.6-15,9.7-.9.3-12.3,3-19.8-4.8a6.23,6.23,0,0,1-1.4-1.8c-3.3-6.5-4.9-12-4.4-19.5.4-5.9.4-9.6,5.6-14.4.8-.7,2.6-2.1,3.5-2.8a18.19,18.19,0,0,1,5.7-3.1,18.94,18.94,0,0,0,2.1-.9,3.61,3.61,0,0,0,1.7-5c-.4-.8-1-1.5-1.4-2.3-3.4-5.3-3.2-10.1.5-15.1a41.33,41.33,0,0,1,9-9.2,21,21,0,0,1,6.9-3.3,27.76,27.76,0,0,1,8.2-1c7.5-.1,11.4,3.2,14.5,8.5C1146.7,251.5,1148.2,256.3,1147.6,260.5Z" fill="#f2e4d6"></path>
  <path d="M283.5,217.8a32.72,32.72,0,0,0-4.8,3.5c-2,1.9-1.9,3.6.3,5.3a19.36,19.36,0,0,0,9.2,3.6c5.8.9,11.5,0,17.1-1.4,4.2-1.1,9.8-3.7,12.8-6.8,8.2-8.7,10.1-10.5,14.1-21.4a34.36,34.36,0,0,0,2.4-13.9c-.1-3.3-.1-6.7-.5-10-1.1-10.2-7-18.5-13.7-26.5s-15.4-13.3-25.5-16.5c-6.7-2.2-13.3-5.3-20.7-4.4a3,3,0,0,1-1.3-.2,25.92,25.92,0,0,0-10,.3,11.24,11.24,0,0,1-3.2.4c-5.2-.4-10.3.6-15.3,1.7-4.7,1-9.5,1.8-13.7,4.6-3.3,2.2-6.9,3.8-10.3,5.7-7.8,4.1-15.4,8.6-20.9,15.8a4.35,4.35,0,0,1-.7.6c-3.4,3.4-7,6.8-10.3,10.3a111.05,111.05,0,0,0-9.8,10.8c-4,5.5-8.4,10.8-11.2,17.1-.7,1.7-2,3-2.9,4.6a112.82,112.82,0,0,0-5.5,11c-2.6,6.7-7.3,14.1-12.5,18.8a49.79,49.79,0,0,1-13.9,9.3,7,7,0,0,0-3.4,3.6c-.7,1.5.7,3.3,1.4,4.2,1.2,1.5,3,2,4.2,3.5.6.7,1.3,1.2,1.9,1.9,4.7,5.6,7.2,9.9,7,17.3-.1,5.6,0,8.8.1,14.4-.2,0,0,2.4-.2,2.4.5,7,2,13.8,2.4,20.7a83.69,83.69,0,0,0,2.7,14.8,114.1,114.1,0,0,0,10.4,26.5,68.27,68.27,0,0,0,6.3,8.9c3.5,4.7,6.7,9.8,11.3,13.7,2.7,2.2,5.6,4.1,8.4,6.3a38.51,38.51,0,0,0,9.5,5.3c3.8,1.5,7.8,2.6,11.4,4.6a32.32,32.32,0,0,0,9.9,3,50.67,50.67,0,0,1,5.4.9c4.2,1.2,8.4,1,12.6.7,3.5-.2,7-.3,10.5-.5a15.46,15.46,0,0,0,3.1-.4c7.4-2.2,17.2-3,23.7-7.6a.76.76,0,0,1,.4-.2c5.9-2.2,10.5-6.5,15.4-10.2,2.5-1.9,4.2-4.7,6.3-7.1,5.2-6,8.7-13,11.8-20.3,4.3-10.3,4.2-21.5.7-32-1.4-4.1-2.9-8.1-5.9-11.6-5.8-6.9-15.1-9.6-23.8-10a12.41,12.41,0,0,0-2.7.3c-2.3.6-3.2,2.2-2.6,4.5a8,8,0,0,0,.8,1.6,54.81,54.81,0,0,1,4.8,13.2c.4,3.4.1,11.9-.1,14.9-1.2,4.7-2.6,9.3-3.9,14a7.5,7.5,0,0,1-1,2c-3.7,4.4-5.3,10.1-10.1,13.6a8.3,8.3,0,0,0-1.5,1.7c-3.3,4.6-8.2,7-13,9.6a4.92,4.92,0,0,1-1.7.6c-5,.8-10,1.7-15,1.1-4.8-.5-10.9-.9-15.2-3.7-3.2-2.1-5.4-3-8.7-4.9-1.7-1-3.3-3.1-4.6-4.5a39.61,39.61,0,0,1-5.2-6.3,56.69,56.69,0,0,1-5-8.6c-1.2-2.6-1.9-5.4-3.7-7.7a8.7,8.7,0,0,1-1.4-2.9c-2-7.5-4.9-14.7-5.5-22.5-.3-4.2-1.4-12.2-1.1-16.4s.9-4.4.4-8.5c-.1-.5.1-14.5,7.3-22.3,3.6-3.9,6.2-7.8,10.7-10.7,2.4-1.6,4.8-3.1,7.2-4.7s3.7-2.9,3.1-5.5c-.5-1.9-2.6-3.1-4.4-3.9-2.6-1.2-5.7-2.9-6.9-6.8-.6-1.8.1-5.6.9-7.4,1.7-4,3.1-8.2,4.7-12.3,1.3-3.4,2.4-6.9,4.9-9.7a7.89,7.89,0,0,0,1.4-2.3c3.4-7.9,4.2-11.1,10.3-16.9,5.1-4.8,10.9-8.7,15.5-14.1.9-1,7.1-4.4,8.3-5.1,8.1-5.1,17-7.8,26.3-9.8a14.06,14.06,0,0,1,5.4-.1,48.26,48.26,0,0,1,9.3,2.1c5.1,1.9,10.3,3.9,12.8,9.5a2.19,2.19,0,0,0,.9,1c2.6,1.6,3.3,4.3,3.8,7a65.73,65.73,0,0,1,1.5,11.7c-.1,9.9-3.5,18.3-9.6,25.9C291.2,212.8,287.5,215.5,283.5,217.8Z" fill="#f2e4d6"></path>
  <path d="M666.6,378.8a42.38,42.38,0,0,0-6.1,1.7c-7.1,2.5-14.3,5.1-21.4,7.5a97,97,0,0,1-9.6,2.8c-5.9,1.5-11.8,2.8-17.7,4.3a55.54,55.54,0,0,1-18.1,1.5c-8.9-.7-17.8-2.1-26-6.1-1.6-.8-3.4-1.2-5.1-2-3.3-1.5-5.7-4-8.2-6.5-3.1-3.1-5-4-7.2-10.6-.5-1.6-1-2.7-2.6-2.9-1.3-.2-2.9,1.2-3.6,2.1-2.6,3.4-3.3,7.4-3.4,11.5-.1,5.9,3.4,17.6,7.5,22.2,2.1,2.4,4.2,4.8,6.3,7.1,5,5.3,12,8.5,18.9,10.7a74,74,0,0,0,21.5,3.7c5,.2,9.9-.8,14.9-1.5a109.07,109.07,0,0,0,23.2-6.3c2.1-.8,4.1-2.2,6.2-2.7,4.1-.8,7.5-3.1,11.2-4.9a200.26,200.26,0,0,0,18.8-10.1c2.4-1.5,4.8-2.9,5.6-5.7,1.2-3.9,2.3-7.9,1.2-12.1C672.2,379.6,669.9,378.2,666.6,378.8Z" fill="#f2e4d6"></path>
  <path d="M363.6,201.2c3.7-2.1,7.4-4,11.1-6.2,8.2-4.8,17.2-7.4,26.4-9.3,3.6-.7,7.2-1.2,10.8-1.9,3-.6,6.5-.4,9.4-.6a45.82,45.82,0,0,1,9.3.5,42.25,42.25,0,0,1,12.6,3.1c1,.4,4.9,1.9,5.8,2.3,2.5,1.1,4.9,2.4,7.3,3.5,4.6,2,9.2,4,13.7,6,2.6,1.2,5.1,1.4,7.3-.4a12.61,12.61,0,0,0,3.4-4.2c2.2-4.1.6-8.3-3.3-10.6-6.8-4-13.8-7.6-20.9-11-3.8-1.9-7.9-3.2-11.8-4.8-4.1-1.6-8.1-3.5-12.3-4.9a62.29,62.29,0,0,0-9.7-2.3,20.28,20.28,0,0,0-4.3-.3c0-.1-1.6-.1-1.6-.2-3.6.1-7.3.3-10.9.3-5.1.1-14.4,2.3-15.7,2.8-4.3,1.6-13.4,6.3-16.8,9.5-2.9,2.7-4,4.3-7.1,6.8a48.2,48.2,0,0,0-3.5,4.4,22.8,22.8,0,0,0-3.8,7.2c-.8,2.2-4.2,10.3-2.6,12.3C358.4,205.9,360.7,202.8,363.6,201.2Z" fill="#f2e4d6"></path>
</svg>