<?xml version="1.0" encoding="iso-8859-1"?>
<!-- Generator: Adobe Illustrator 17.1.0, SVG Export Plug-In . SVG Version: 6.00 Build 0)  -->
<!DOCTYPE svg PUBLIC "-//W3C//DTD SVG 1.1//EN" "http://www.w3.org/Graphics/SVG/1.1/DTD/svg11.dtd">
<svg version="1.1" id="Layer_1" xmlns="http://www.w3.org/2000/svg" xmlns:xlink="http://www.w3.org/1999/xlink" x="0px" y="0px"
	 viewBox="0 0 1000 150" style="enable-background:new 0 0 1000 150;" xml:space="preserve">
<g>
	<g>
		<path style="fill:#407CD9;" d="M1000.875,13.998c0,41.328,0,82.656,0,123.984c-1.327,1.429-2.972,2.032-4.913,2.054
			c-1.999,0.022-3.997,0.066-5.996,0.066c-261.888,0.002-523.776,0.007-785.664-0.04c-3.578-0.001-7.385,0.898-10.646-1.564
			c-1.605-1.72-1.751-3.87-1.756-6.055c-0.077-37.552-0.063-75.103-0.008-112.655c0.003-2.181,0.107-4.336,1.604-6.13
			c1.416-1.379,3.197-1.659,5.071-1.713c2.166-0.062,4.332-0.068,6.498-0.068c261.466-0.002,522.931-0.007,784.397,0.054
			C993.317,11.933,997.557,10.672,1000.875,13.998z"/>
		<path style="fill:#EAE4D8;" d="M1000.875,13.998c-266.608,0-533.216,0-799.824,0.002c-2.333,0-4.665,0.029-6.998,0.045
			c-4.391,3.588-9.475,1.597-14.29,1.784c-2.49,0.265-4.987,0.29-7.488,0.29c-51.144-0.005-102.288-0.003-153.432-0.003
			c-2.499,0-4.999,0.011-7.486-0.283C7.809,15.772,4.004,17.13,1,13.998C1,9.665-0.691,3.642,1.475,1.475S9.665,1,13.998,1
			c327.459,0,654.918,0.007,982.377-0.093c3.749-0.001,5.041,0.818,4.568,4.601C1000.594,8.297,1000.875,11.165,1000.875,13.998z"/>
		<path style="fill:#EAE4D8;" d="M194.053,137.936c2.333,0.016,4.665,0.045,6.998,0.045c266.608,0.002,533.216,0.002,799.824,0.002
			c0,4.333,0,8.666,0,12.998c-4.333,0-8.666,0-12.998,0c-327.459,0-654.918-0.007-982.377,0.093
			c-3.749,0.001-5.041-0.818-4.568-4.601C1.28,143.684,1,140.816,1,137.983c2.476-2.768,5.814-2.086,8.9-2.089
			c47.758-0.049,95.515-0.03,143.273-0.029c11.315,0,22.631-0.027,33.946,0.019C189.632,135.893,192.156,135.852,194.053,137.936z"
			/>
		<path style="fill:#FEFEFE;" d="M194.053,137.936C129.702,137.952,65.351,137.967,1,137.983C1,96.655,1,55.326,1,13.998
			c3.332,0.019,6.663,0.038,9.995,0.057c2.67,2.306,2.084,5.466,2.088,8.4c0.049,31.814,0.024,63.627,0.029,95.441
			c0,1.832,0.072,3.667,0.015,5.496c-0.117,3.733,1.518,5.611,5.354,5.461c1.495-0.059,2.997,0.017,4.496,0.017
			c48.137,0.001,96.274,0.002,144.411-0.002c1.998,0,3.996,0.001,5.994-0.093c2.823-0.132,4.229-1.591,4.38-4.386
			c0.108-1.998,0.099-3.996,0.1-5.994c0.008-31.98-0.019-63.961,0.031-95.941c0.005-2.934-0.582-6.094,2.088-8.401
			c4.691-0.003,9.382-0.006,14.072-0.009C194.053,55.342,194.053,96.639,194.053,137.936z"/>
		<path style="fill:#FEFEFE;" d="M521.301,61.732c-4.453,18.443-8.943,36.52-13.091,54.675c-0.788,3.45-1.969,4.608-5.535,4.546
			c-9.552-0.166-9.388-0.015-10.78-9.703c-3.954-27.507-8.004-55-12.18-82.474c-0.461-3.032-0.141-4.017,3.196-4.083
			c12.295-0.246,12.22-0.361,13.913,12.014c1.622,11.854,3.416,23.684,5.858,35.568c3.405-13.998,7.009-27.952,10.094-42.02
			c0.915-4.174,2.293-5.758,6.757-5.597c9.746,0.351,9.779,0.084,12.122,9.545c2.759,11.142,5.47,22.295,8.208,33.442
			c0.386,1.573,0.49,3.258,1.882,4.788c2.099-14.235,4.279-28.203,6.148-42.212c0.519-3.893,1.466-5.744,6.031-5.581
			c10.477,0.374,10.589,0.098,9.043,10.749c-3.946,27.17-8.059,54.317-11.909,81.501c-0.462,3.265-1.664,4.135-4.744,4.023
			c-11.924-0.435-9.012,1.98-11.872-9.139c-3.937-15.303-7.617-30.673-11.395-46.016C522.732,64.479,522.667,63.119,521.301,61.732z
			"/>
		<path style="fill:#FEFEFE;" d="M397.678,73.431c-0.295,10.051-1.166,20.426-5.607,30.206
			c-5.794,12.758-15.839,18.915-29.598,18.96c-13.574,0.044-23.671-6.041-29.449-18.457c-5.928-12.739-6.615-26.317-5.525-40.063
			c0.647-8.169,2.262-16.12,6.106-23.485c6.343-12.152,16.382-17.859,30.037-17.487c13.116,0.357,22.39,6.591,28.036,18.271
			C396.497,51.345,397.487,62.088,397.678,73.431z"/>
		<path style="fill:#FEFEFE;" d="M574.051,72.536c0-14.496,0.074-28.992-0.058-43.486c-0.028-3.132,0.715-4.382,4.136-4.348
			c16.327,0.164,32.657,0.151,48.984,0.006c3.166-0.028,3.849,1.059,3.88,4.029c0.118,11.483,0.224,11.482-11.358,11.482
			c-8.331,0-16.67,0.226-24.989-0.096c-4.097-0.158-5.154,1.291-4.912,5.106c0.295,4.647,0.263,9.337,0.007,13.988
			c-0.186,3.374,1.114,4.265,4.299,4.17c6.659-0.2,13.329,0.02,19.991-0.095c2.699-0.046,3.737,0.763,3.842,3.674
			c0.44,12.252,0.543,12.248-11.676,12.249c-4.332,0-8.668,0.117-12.995-0.038c-2.632-0.094-3.49,0.921-3.437,3.486
			c0.127,6.162,0.202,12.335-0.028,18.491c-0.117,3.136,0.953,3.938,3.981,3.898c11.994-0.159,23.993,0.026,35.988-0.127
			c3.103-0.04,4.298,0.619,4.306,4.057c0.028,11.881,0.176,11.881-11.481,11.881c-14.496,0-28.993-0.12-43.486,0.081
			c-3.806,0.053-5.172-0.817-5.098-4.923C574.21,101.53,574.05,87.032,574.051,72.536z"/>
		<path style="fill:#FEFEFE;" d="M408.595,24.782c5.578,0,10.23,0.124,14.871-0.048c2.615-0.097,3.383,1.609,4.264,3.429
			c3.835,7.917,7.681,15.829,11.96,24.644c3.956-8.14,7.843-15.443,11.054-23.031c1.71-4.042,3.96-5.223,8.231-5.113
			c12.005,0.308,12.007,0.099,6.747,10.929c-5.157,10.619-10.229,21.28-15.512,31.836c-1.314,2.626-1.44,4.763-0.095,7.453
			c6.916,13.831,13.565,27.796,20.484,41.626c1.687,3.371,1.367,3.986-2.628,4.534c-9.571,1.311-15.414-1.616-18.51-11.261
			c-2.197-6.844-6.187-13.113-9.742-20.387c-4.834,9.932-9.343,18.962-13.604,28.109c-1.143,2.454-2.452,3.568-5.239,3.421
			c-4.31-0.228-8.641-0.06-12.92-0.06c-0.976-1.837,0.296-2.996,0.891-4.23c6.645-13.776,13.276-27.56,20.066-41.265
			c1.375-2.775,1.483-5.044,0.082-7.906C422.21,53.602,415.661,39.627,408.595,24.782z"/>
		<path style="fill:#FEFEFE;" d="M266.13,73.19c0.244,7.685,0.942,15.271,3.857,22.502c2.49,6.176,6.615,10.46,13.481,11.122
			c6.48,0.625,11.874-1.777,15.325-7.383c1.453-2.36,2.692-2.342,4.717-1.156c1.719,1.007,3.547,1.828,5.333,2.72
			c6.823,3.41,6.835,3.459,1.965,9.627c-13.38,16.952-41.142,15.531-52.709-2.708c-4.656-7.342-6.752-15.534-7.555-24.059
			c-1.373-14.57-0.992-28.997,5.489-42.53c5.226-10.913,13.878-17.383,26.112-18.137c12.641-0.778,23.214,3.294,30.562,14.235
			c1.983,2.953,2.223,4.964-1.685,6.136c-1.105,0.331-2.232,0.795-3.166,1.456c-4.499,3.182-7.514,3.231-11.651-1.767
			c-6.863-8.29-20.381-5.382-25.322,4.647C266.954,55.868,266.341,64.498,266.13,73.19z"/>
		<path style="fill:#FEFEFE;" d="M647.919,72.868c0-14.646,0.087-29.292-0.068-43.936c-0.034-3.231,0.878-4.221,4.171-4.24
			c11.562-0.068,11.561-0.198,11.561,11.386c0,21.136,0.106,42.274-0.09,63.408c-0.039,4.172,0.734,5.779,5.383,5.626
			c11.638-0.382,23.297-0.043,34.945-0.182c2.939-0.035,3.999,0.692,4.05,3.854c0.196,12.082,0.319,12.08-11.809,12.08
			c-14.479,0-28.96-0.116-43.437,0.081c-3.621,0.049-4.868-0.772-4.804-4.64C648.062,101.829,647.919,87.348,647.919,72.868z"/>
		<path style="fill:#FEFEFE;" d="M721.687,72.358c0.001-14.478,0.088-28.957-0.066-43.434c-0.035-3.281,1.015-4.201,4.245-4.226
			c11.042-0.085,11.041-0.208,11.041,10.776c0,21.634,0.093,43.269-0.089,64.901c-0.031,3.722,0.916,4.782,4.68,4.703
			c11.977-0.251,23.964,0.035,35.942-0.174c3.388-0.059,4.166,1.083,4.195,4.253c0.108,11.705,0.213,11.704-11.245,11.704
			c-14.312,0-28.626-0.165-42.933,0.098c-4.414,0.081-6.003-0.903-5.892-5.671C721.899,100.986,721.686,86.67,721.687,72.358z"/>
		<path style="fill:#FEFEFE;" d="M896.6,85.569c-5.996,2.119-8.199-0.626-9.496-5.275c-0.627-2.247-0.49-5.693-3.362-6.099
			c-3.894-0.551-7.947-0.113-11.915,0.154c-0.539,0.036-1.101,1.494-1.441,2.375c-0.957,2.479-1.724,5.031-2.712,7.496
			c-1.33,3.317-4.365,2.201-6.478,1.748c-2.839-0.609-0.635-2.783-0.24-3.974c4.079-12.294,8.377-24.516,12.484-36.801
			c0.723-2.162,1.548-3.569,4.1-3.218c1.849,0.255,4.006-0.658,4.93,2.088C887.124,57.899,891.869,71.704,896.6,85.569z"/>
		<path style="fill:#FDFEFE;" d="M899.799,42.619c5.105-1.755,7.783-0.426,9.14,4.839c1.98,7.685,4.721,15.174,7.464,23.769
			c2.902-9.16,5.462-17.34,8.102-25.495c0.522-1.612,0.518-3.525,3.152-3.801c4.845-0.508,5.558,0.104,4.136,4.749
			c-3.645,11.899-7.349,23.78-10.967,35.688c-0.724,2.382-1.475,4.07-4.623,3.96c-2.82-0.098-3.602-1.427-4.287-3.726
			C907.943,69.264,903.855,55.96,899.799,42.619z"/>
		<path style="fill:#FDFDFC;" d="M179.981,14.054c-0.001,36.641,0.001,73.282-0.006,109.923c-0.001,6.955-0.047,7.003-6.946,7.004
			c-51.964,0.005-103.927-0.054-155.891,0.098c-4.724,0.014-6.271-1.193-6.245-6.104c0.193-36.973,0.103-73.948,0.102-110.921
			C67.324,14.055,123.652,14.054,179.981,14.054z"/>
		<path style="fill:#407DD9;" d="M343.121,73.285c0.357-8.09,0.987-15.862,3.959-23.233c3.016-7.478,8.032-11.388,14.813-11.324
			c7.664,0.073,13.138,3.863,15.724,10.916c5.699,15.546,5.517,31.296-0.035,46.832c-2.455,6.87-8.079,9.724-15.272,9.864
			c-7.129,0.139-12.128-3.021-15.044-9.406C343.799,89.346,343.617,81.152,343.121,73.285z"/>
		<path style="fill:#4D84DB;" d="M878.33,55.133c0.764,2.083,1.323,3.544,1.838,5.02c2.568,7.363,2.533,7.398-5.961,6.179
			C875.069,62.634,876.264,59.107,878.33,55.133z"/>
		<path style="fill:#EB0901;" d="M157.065,88.812c1.747,2.445-0.173,2.381-1.709,2.398c-4.329,0.049-8.663,0.12-12.988-0.02
			c-2.388-0.077-3.205,0.771-3.165,3.161c0.078,4.659-0.23,9.324-0.16,13.983c0.041,2.732-0.756,3.499-3.489,2.669
			c-4.453-1.352-9.039-2.263-13.5-3.592c-2.414-0.719-2.912,0.139-2.842,2.31c0.113,3.494-0.078,7.001,0.127,10.487
			c0.159,2.708-0.54,3.842-3.536,3.793c-2.747-0.045-3.567-1.064-3.246-3.538c0.021-0.164,0.015-0.334,0.001-0.499
			c-0.368-4.237,1.926-10.148-1.099-12.276c-2.883-2.027-8.083,1.302-12.277,2.213c-6.534,1.419-6.01,1.416-6.639-5.051
			c-1.083-11.133,1.595-20.794,8.266-29.828c4.794-6.493,8.507-13.785,13.246-21.619c-4.965,0-9.087-0.152-13.191,0.053
			c-2.782,0.139-4.283-0.518-4.67-3.594c-0.706-5.61-1.681-11.194-2.748-16.749c-0.563-2.93,0.557-3.315,2.785-2.182
			c6.158,3.131,10.411,0.695,14.592-4.056c4.456-5.063,5.048-5.067,9.751-0.102c4.36,4.603,8.736,6.737,14.864,3.759
			c3.299-1.603,3.567,0.383,3.101,3.069c-0.825,4.754-1.393,9.553-2.275,14.295c-0.737,3.96-0.337,6.255,4.733,5.711
			c4.606-0.494,9.313,0.001,13.975-0.038c2.09-0.017,3.552,0.463,2.095,2.755c-3.665,5.765-0.573,9.633,3.535,13.187
			c2.771,2.397,2.844,4.205-0.196,6.631c-2.45,1.956-5.821,3.676-5.324,7.802c0.417,5.53,0.417,5.528-5.073,5.541
			c-2.87,0.007-5.742-0.029-8.601,0.205c-0.638,0.346,0.236,1.102-0.049,0.5C146.47,88.337,151.94,90.533,157.065,88.812z"/>
		<path style="fill:#0504A6;" d="M32.951,110.119c-1.818-0.726-0.932-2.302-0.939-3.451c-0.094-16.331-0.014-32.663-0.21-48.991
			c-0.041-3.402,0.755-4.918,4.37-4.467c2.133,0.266,4.41,0.434,6.479-0.017c10.13-2.205,15.403,2.986,18.496,11.734
			c-2.05,2.968-4.907,1.008-7.322,1.484c2.651,0.328,5.387-0.054,8.124-0.292c0.733,0.67,1.054,1.378-0.239,1.642
			c-0.949,0.194-1.958,0.104-2.941,0.119c-7.802,0.119-7.802,0.117-7.635,7.685c1.068,2.238,3.128,1.241,4.783,1.399
			c4.378,0.416,8.857-0.754,13.168,0.821c1.972,2.961,3.945,5.922,6.207,9.318c-8.038,0-15.498,0-22.959,0
			c-3.288,1.93-1.972,5.031-1.47,7.517c0.513,2.541,3.175,1.776,5.093,1.867c6.452,0.307,12.938-0.621,19.368,0.525
			c0.247,0.43,0.497,0.855,0.55,1.369c1.15,11.099,1.146,11.104-9.839,11.104c-9.481,0-18.965-0.145-28.44,0.077
			c-3.411,0.08-4.397-1.126-4.141-4.306c0.235-2.928-0.02-5.887,0.123-8.83c0.081-0.665,0.73,0.294,0.127,0.01
			C32.874,100.965,34.336,105.621,32.951,110.119z"/>
		<path style="fill:#EB0D06;" d="M83.513,71.899c-3.533-5.699-6.611-10.783-9.816-15.786c-1.542-2.407-0.452-2.748,1.738-2.743
			c5.466,0.012,10.933-0.03,16.398-0.138c2.251-0.044,2.654,0.64,1.464,2.561C90.171,60.84,87.126,65.938,83.513,71.899z"/>
		<path style="fill:#00009A;" d="M32.951,110.119c0-6.222,0-12.444,0-18.667c0.349,0,0.697,0.001,1.046,0.001
			c0,4.452,0.095,8.907-0.034,13.355c-0.084,2.895,0.881,4.244,3.989,4.214c10.972-0.107,21.947-0.099,32.92-0.002
			c2.95,0.026,4.312-0.992,4.144-4.05c-0.146-2.652-0.026-5.319-0.023-7.979c0.637-0.357,1.108-0.203,1.411,0.461
			c-0.107,4.156,0.638,8.342-0.437,12.464c-8.535,1.274-17.118,0.321-25.677,0.504C44.515,110.544,38.731,110.234,32.951,110.119z"
			/>
		<path style="fill:#0202A3;" d="M69.086,77.784c-4.99,0.062-9.98,0.126-14.97,0.186c-1.653,0.02-2.881-0.496-2.981-2.406
			c4.722,0.07,9.444,0.142,14.167,0.211C66.908,75.799,68.706,75.454,69.086,77.784z"/>
		<path style="fill:#0D0CA9;" d="M75.684,97.109c-0.228-0.05-0.459-0.089-0.691-0.118c-6.794-0.004-13.588-0.008-20.382-0.012
			c-2.082-0.001-4.407-0.156-4.417-2.796c-0.01-2.45-1.9-5.761,2.139-7.08c-3.058,6.397-1.808,8.518,4.88,8.62
			c6.254,0.096,12.535-0.634,18.759,0.533c0.289,0.309,0.343,0.538,0.161,0.688C76.001,97.053,75.852,97.109,75.684,97.109z"/>
		<path style="fill:#EA0503;" d="M157.065,88.812c-5.336,2.588-10.941,0.331-16.45,0.176c2.382,0,4.779-0.164,7.144,0.037
			c3.932,0.334,7.281,0.084,7.322-5.078C155.742,85.569,156.403,87.191,157.065,88.812z"/>
		<path style="fill:#709AE0;" d="M45.945,41.097c2.111,1.684,1.64,4.287,0.75,5.799c-0.82,1.392-3.314,1.54-5.258,0.564
			c0.295-2.329,3.037,0.058,3.222-1.952c0.625-2.327-5.232,1.896-2.496-2.56C42.935,41.331,44.474,41.283,45.945,41.097z"/>
		<path style="fill:#427ED9;" d="M32.055,46.944c-0.063-1.324-0.174-2.647-0.18-3.971c-0.023-5.931,0.275-6.135,6.531-4.631
			c-1.214,1.863-5.042-0.979-4.947,2.274c0.071,2.404,3.231,0.46,4.648,1.781c-1.133,1.851-5.571-0.932-4.921,3.385
			C33.398,46.742,33.095,47.201,32.055,46.944z"/>
		<path style="fill:#5287DC;" d="M67.157,47.476c-1.613-5.519-1.613-5.519,2.149-7.628C68.521,42.637,67.839,45.056,67.157,47.476z"
			/>
		<path style="fill:#4C84DB;" d="M84.015,38.146c1.627,1.019,1.188,3.177,3.287,4.538c2.403,1.557-2.621,2.295-2.595,4.465
			c0.001,0.069-0.262,0.218-0.372,0.194c-0.137-0.03-0.242-0.202-0.361-0.313C83.588,44.067,82.395,41.1,84.015,38.146z"/>
		<path style="fill:#598CDD;" d="M57.359,47.722c-1.672-3.034-2.72-6.07-0.95-9.61C58.993,41.317,55.926,44.813,57.359,47.722z"/>
		<path style="fill:#DBE4F5;" d="M72.804,41.115c0.667-0.062,1.334-0.123,2.001-0.185c2.66,1.693,2.806,3.681,0.696,5.932
			c-1.06,0.842-1.919,0.168-2.794-0.372C70.956,44.667,71.418,42.883,72.804,41.115z"/>
		<path style="fill:#1414AA;" d="M75.684,97.109c0.115-0.278,0.211-0.562,0.288-0.853c1.046,4.554,1.099,9.107-0.005,13.66
			C75.872,105.647,75.778,101.378,75.684,97.109z"/>
		<path style="fill:#628FDD;" d="M84.015,38.146c-0.014,2.961-0.027,5.922-0.041,8.884c-1.574-1.35,0.938-5.116-2.998-5.069
			c-0.449-0.422-0.473-0.868-0.072-1.336C82.139,40.047,83.431,39.541,84.015,38.146z"/>
		<path style="fill:#6592DE;" d="M45.945,41.097c-0.824,1.509-2.197,1.897-3.782,1.851c-1.232-0.474-1.5-1.346-0.444-2.097
			C43.082,39.88,44.638,39.347,45.945,41.097z"/>
		<path style="fill:#6392DE;" d="M74.936,46.596c1.856-1.933,0.971-3.802-0.131-5.666c1.916-0.366,2.799,0.789,2.939,2.378
			c0.181,2.062-0.381,3.894-2.809,4.411C74.268,47.344,74.268,46.969,74.936,46.596z"/>
		<path style="fill:#7EA2E2;" d="M32.055,46.944c0.377-0.387,0.754-0.775,1.131-1.162c1.778,0.555,3.843-0.408,5.954,1.318
			C36.471,48.138,34.287,48.747,32.055,46.944z"/>
		<path style="fill:#0404A0;" d="M61.95,66.118c-3.077,1.677-6.301,0.524-9.492,0.496c2.818-1.06,6.032,0.058,8.69-1.688
			C61.415,65.323,61.682,65.721,61.95,66.118z"/>
		<path style="fill:#E1E8F6;" d="M54.042,45.03c-2.278,2.6-4.269,3.777-5.055-1.019c0.856-1.021,1.955-1.086,3.144-0.809
			C53.088,43.473,53.444,44.378,54.042,45.03z"/>
		<path style="fill:#4781DA;" d="M80.904,40.625c0.024,0.445,0.048,0.891,0.072,1.336c-0.348,1.689-0.695,3.377-1.043,5.066
			C79.993,44.839,76.754,42.091,80.904,40.625z"/>
		<path style="fill:#568ADC;" d="M72.804,41.115c-0.178,1.655-1.009,3.309-0.002,4.965c-0.126,0.401-0.384,0.678-0.775,0.831
			C70.534,44.744,69.445,42.631,72.804,41.115z"/>
		<path style="fill:#DCE4F5;" d="M54.042,45.03c-0.61-0.343-1.221-0.686-1.831-1.03c-1.001-0.625-3.232-0.19-2.206-2.561
			l-0.065,0.09c1.58-2.256,2.7,0.048,4.017,0.406C53.985,42.966,54.013,43.998,54.042,45.03z"/>
		<path style="fill:#5B8CDD;" d="M50.005,41.439c-0.122,1.592,1.661,1.544,2.206,2.561c-1.07,1.332-2.15-0.193-3.224,0.01
			C48.204,42.709,48.359,41.779,50.005,41.439z"/>
		<path style="fill:#598ADC;" d="M53.956,41.934c-1.339-0.135-2.678-0.27-4.017-0.405C51.579,38.69,52.763,40.355,53.956,41.934z"/>
		<path style="fill:#407DD9;" d="M72.026,46.91c0.258-0.277,0.517-0.554,0.775-0.831c0.711,0.174,1.423,0.348,2.134,0.519
			c0,0.372-0.001,0.746-0.001,1.121C73.789,48.081,72.78,47.954,72.026,46.91z"/>
	</g>
</g>
</svg>
