<?xml version="1.0" encoding="UTF-8" standalone="no"?>
<!-- Created with Inkscape (http://www.inkscape.org/) -->

<svg
   xmlns:dc="http://purl.org/dc/elements/1.1/"
   xmlns:cc="http://creativecommons.org/ns#"
   xmlns:rdf="http://www.w3.org/1999/02/22-rdf-syntax-ns#"
   xmlns:svg="http://www.w3.org/2000/svg"
   xmlns="http://www.w3.org/2000/svg"
   xmlns:inkscape="http://www.inkscape.org/namespaces/inkscape"
   version="1.1"
   width="451.00049"
   height="451.00049"
   id="svg2"
   xml:space="preserve"><metadata
     id="metadata8"><rdf:RDF><cc:Work
         rdf:about=""><dc:format>image/svg+xml</dc:format><dc:type
           rdf:resource="http://purl.org/dc/dcmitype/StillImage" /></cc:Work></rdf:RDF></metadata><defs
     id="defs6" /><g
     transform="matrix(1.25,0,0,-1.25,0,451.00048)"
     id="g10"><g
       id="g12"><g
         transform="matrix(1,0,0,-1,0,360.80038)"
         id="g14"><path
           d="M 76.164,360.398 1.961,103.07 C 0.949,99.555 0.406,95.836 0.406,91.996 0.406,75.195 10.789,60.813 25.5,54.887 L 142.895,7.637 c 11.585,-4.668 24.246,-7.239 37.511,-7.239 13.262,0 25.926,2.571 37.512,7.239 l 117.391,47.25 c 14.714,5.926 25.097,20.308 25.097,37.109 0,3.84 -0.543,7.559 -1.558,11.074 l -74.2,257.328 -208.484,0 z"
           inkscape:connector-curvature="0"
           id="path16"
           style="fill:#f7d117;fill-opacity:1;fill-rule:evenodd;stroke:#aaaaaa;stroke-width:0.80000103;stroke-linecap:butt;stroke-linejoin:miter;stroke-miterlimit:4;stroke-opacity:1;stroke-dasharray:none" /></g><path
         d="m 10.398,268.597 c 0,12.727 7.86,23.641 19.036,28.141 l 117.132,47.137 c 10.438,4.207 21.852,6.527 33.832,6.527 11.985,0 23.399,-2.32 33.836,-6.527 l 117.133,-47.137 c 11.176,-4.5 19.031,-15.414 19.031,-28.141 0,-2.929 -0.41,-5.742 -1.175,-8.402 l -72.039,-249.793 -193.567,0 -72.039,249.793 c -0.765,2.656 -1.18,5.473 -1.18,8.402 z"
         inkscape:connector-curvature="0"
         id="path18"
         style="fill:#003882;fill-opacity:1;fill-rule:evenodd;stroke:none" /><path
         d="m 124.219,149.418 0,-29.016 -17.246,0 0,29.016 -49.934,0 0,12.179 49.934,78.805 17.246,0 0,-74.867 7.183,0 0,-16.117 -7.183,0 z m -17.246,61.074 -28.739,-44.957 28.739,0 0,44.957 z m 109.769,-54.805 c -0.004,-5.734 -1.019,-11.199 -3.054,-16.391 -2.036,-5.195 -4.852,-9.523 -8.442,-12.984 -5.273,-5.371 -12.578,-8.055 -21.914,-8.058 -5.992,0.003 -11.109,1.074 -15.359,3.222 -4.25,2.145 -7.871,5.309 -10.864,9.492 -2.398,3.34 -4.257,7.161 -5.57,11.461 -1.32,4.297 -1.976,8.719 -1.976,13.258 0,5.969 0.925,11.488 2.785,16.563 1.851,5.074 4.695,9.523 8.531,13.347 -6.469,7.043 -9.699,15.34 -9.699,24.895 0,4.652 0.777,8.953 2.336,12.894 1.554,3.938 3.738,7.309 6.554,10.118 2.813,2.804 6.196,5.015 10.149,6.628 3.949,1.61 8.32,2.414 13.113,2.418 4.668,-0.004 8.922,-0.808 12.754,-2.418 3.832,-1.613 7.152,-3.824 9.969,-6.628 2.812,-2.809 5,-6.18 6.558,-10.118 1.555,-3.941 2.332,-8.242 2.336,-12.894 -0.004,-4.899 -0.812,-9.465 -2.426,-13.703 -1.621,-4.239 -4.046,-7.969 -7.277,-11.192 3.828,-3.586 6.703,-7.976 8.621,-13.168 1.914,-5.195 2.871,-10.773 2.875,-16.742 z m -18.679,54.805 c -0.004,4.414 -1.411,8.054 -4.223,10.922 -2.817,2.863 -6.32,4.297 -10.508,4.3 -4.434,-0.003 -8.086,-1.437 -10.957,-4.3 -2.875,-2.868 -4.309,-6.508 -4.309,-10.922 0,-4.899 1.434,-8.778 4.309,-11.645 2.871,-2.867 6.523,-4.301 10.957,-4.297 4.188,-0.004 7.691,1.43 10.508,4.297 2.812,2.867 4.219,6.746 4.223,11.645 z m 2.156,-54.805 c -0.004,6.563 -1.559,11.785 -4.672,15.668 -3.113,3.883 -7.188,5.824 -12.215,5.824 -5.031,0 -9.102,-1.941 -12.215,-5.824 -3.113,-3.883 -4.668,-9.105 -4.668,-15.668 0,-6.094 1.555,-11.051 4.668,-14.867 3.113,-3.824 7.184,-5.734 12.215,-5.731 5.027,-0.003 9.102,1.907 12.215,5.731 3.113,3.816 4.668,8.773 4.672,14.867 z m 86.957,-35.285 -8.442,32.777 -25.867,0 -7.902,-32.777 -17.422,0 29.996,120 16.887,0 29.996,-120 -17.246,0 z m -21.555,84.18 -8.441,-34.567 17.246,0 -8.805,34.567 z"
         inkscape:connector-curvature="0"
         id="path20"
         style="fill:#f7d117;fill-opacity:1;fill-rule:nonzero;stroke:none" /></g></g></svg>