<?xml version="1.0" encoding="UTF-8" standalone="no"?>
<svg
   xmlns:dc="http://purl.org/dc/elements/1.1/"
   xmlns:cc="http://creativecommons.org/ns#"
   xmlns:rdf="http://www.w3.org/1999/02/22-rdf-syntax-ns#"
   xmlns:svg="http://www.w3.org/2000/svg"
   xmlns="http://www.w3.org/2000/svg"
   xmlns:sodipodi="http://sodipodi.sourceforge.net/DTD/sodipodi-0.dtd"
   xmlns:inkscape="http://www.inkscape.org/namespaces/inkscape"
   width="450"
   height="750"
   viewBox="0 0 450 642.85715"
   style="fill:#000000;stroke:none"
   id="svg1409"
   sodipodi:version="0.32"
   inkscape:version="0.48.5 r10040"
   sodipodi:docname="Croix Haute Treflée.svg"
   version="1.0">
  <metadata
     id="metadata1420">
    <rdf:RDF>
      <cc:Work
         rdf:about="">
        <dc:format>image/svg+xml</dc:format>
        <dc:type
           rdf:resource="http://purl.org/dc/dcmitype/StillImage" />
        <cc:license
           rdf:resource="http://web.resource.org/cc/PublicDomain" />
        <dc:title>Heraldic Cross Crosslet</dc:title>
      </cc:Work>
      <cc:License
         rdf:about="http://web.resource.org/cc/PublicDomain">
        <cc:permits
           rdf:resource="http://web.resource.org/cc/Reproduction" />
        <cc:permits
           rdf:resource="http://web.resource.org/cc/Distribution" />
        <cc:permits
           rdf:resource="http://web.resource.org/cc/DerivativeWorks" />
      </cc:License>
    </rdf:RDF>
  </metadata>
  <defs
     id="defs1418" />
  <sodipodi:namedview
     guidetolerance="10.0"
     gridtolerance="10.0"
     objecttolerance="10.0"
     inkscape:window-height="847"
     inkscape:window-width="1600"
     inkscape:pageshadow="2"
     inkscape:pageopacity="0.0"
     borderopacity="1.0"
     bordercolor="#666666"
     pagecolor="#ffffff"
     id="base"
     inkscape:zoom="0.8"
     inkscape:cx="300"
     inkscape:cy="326.81607"
     inkscape:window-x="-8"
     inkscape:window-y="-8"
     inkscape:current-layer="svg1409"
     showgrid="false"
     showguides="false"
     inkscape:window-maximized="1">
    <inkscape:grid
       type="xygrid"
       id="grid6536"
       empspacing="5"
       visible="true"
       enabled="true"
       snapvisiblegridlinesonly="true"
       spacingx="50px"
       spacingy="50px" />
  </sodipodi:namedview>
  <title
     id="title1411">Heraldic Cross Crosslet</title>
  <desc
     id="desc1413">Heraldic Cross Crosslet</desc>
  <path
     d="m 250.75,557.81139 -25,122.86915 -25,-122.86915 0,-100.68498 0,-130 0,-50 0,-78 -127,0 0,-50 127,0 0,-127 50,0 0,127 125,0 0,50 -125,0 0,78 0,50 0,130 z"
     id="path1415"
     sodipodi:nodetypes="cccccccccccccccccccc"
     style="fill:#000000;fill-opacity:1;stroke:#000000;stroke-width:2;stroke-miterlimit:4;stroke-opacity:1;stroke-dasharray:none"
     inkscape:connector-curvature="0" />
  <path
     sodipodi:type="arc"
     style="fill:#000000;fill-opacity:1;fill-rule:nonzero;stroke:#000000;stroke-width:2;stroke-linecap:round;stroke-linejoin:bevel;stroke-miterlimit:4;stroke-opacity:1;stroke-dasharray:none"
     id="path6509"
     sodipodi:cx="82.5"
     sodipodi:cy="313.75"
     sodipodi:rx="31.25"
     sodipodi:ry="31.25"
     d="m 113.75,313.75 a 31.25,31.25 0 1 1 -62.5,0 31.25,31.25 0 1 1 62.5,0 z"
     transform="translate(-6.75,-175)" />
  <path
     sodipodi:type="arc"
     style="fill:#000000;fill-opacity:1;fill-rule:nonzero;stroke:#000000;stroke-width:2;stroke-linecap:round;stroke-linejoin:bevel;stroke-miterlimit:4;stroke-opacity:1;stroke-dasharray:none"
     id="path6509-4"
     sodipodi:cx="82.5"
     sodipodi:cy="313.75"
     sodipodi:rx="31.25"
     sodipodi:ry="31.25"
     d="m 113.75,313.75 a 31.25,31.25 0 1 1 -62.5,0 31.25,31.25 0 1 1 62.5,0 z"
     transform="translate(-31.75,-139.25)" />
  <path
     sodipodi:type="arc"
     style="fill:#000000;fill-opacity:1;fill-rule:nonzero;stroke:#000000;stroke-width:2;stroke-linecap:round;stroke-linejoin:bevel;stroke-miterlimit:4;stroke-opacity:1;stroke-dasharray:none"
     id="path6509-3"
     sodipodi:cx="82.5"
     sodipodi:cy="313.75"
     sodipodi:rx="31.25"
     sodipodi:ry="31.25"
     d="m 113.75,313.75 a 31.25,31.25 0 1 1 -62.5,0 31.25,31.25 0 1 1 62.5,0 z"
     transform="translate(-5.5,-108.75)" />
  <path
     sodipodi:type="arc"
     style="fill:#000000;fill-opacity:1;fill-rule:nonzero;stroke:#000000;stroke-width:2;stroke-linecap:round;stroke-linejoin:bevel;stroke-miterlimit:4;stroke-opacity:1;stroke-dasharray:none"
     id="path6509-1"
     sodipodi:cx="82.5"
     sodipodi:cy="313.75"
     sodipodi:rx="31.25"
     sodipodi:ry="31.25"
     d="m 113.75,313.75 a 31.25,31.25 0 1 1 -62.5,0 31.25,31.25 0 1 1 62.5,0 z"
     transform="matrix(-1,0,0,1,459.875,-174.125)" />
  <path
     sodipodi:type="arc"
     style="fill:#000000;fill-opacity:1;fill-rule:nonzero;stroke:#000000;stroke-width:2;stroke-linecap:round;stroke-linejoin:bevel;stroke-miterlimit:4;stroke-opacity:1;stroke-dasharray:none"
     id="path6509-4-0"
     sodipodi:cx="82.5"
     sodipodi:cy="313.75"
     sodipodi:rx="31.25"
     sodipodi:ry="31.25"
     d="m 113.75,313.75 a 31.25,31.25 0 1 1 -62.5,0 31.25,31.25 0 1 1 62.5,0 z"
     transform="matrix(-1,0,0,1,484.875,-138.375)" />
  <path
     sodipodi:type="arc"
     style="fill:#000000;fill-opacity:1;fill-rule:nonzero;stroke:#000000;stroke-width:2;stroke-linecap:round;stroke-linejoin:bevel;stroke-miterlimit:4;stroke-opacity:1;stroke-dasharray:none"
     id="path6509-3-4"
     sodipodi:cx="82.5"
     sodipodi:cy="313.75"
     sodipodi:rx="31.25"
     sodipodi:ry="31.25"
     d="m 113.75,313.75 a 31.25,31.25 0 1 1 -62.5,0 31.25,31.25 0 1 1 62.5,0 z"
     transform="matrix(-1,0,0,1,458.625,-107.875)" />
  <path
     sodipodi:type="arc"
     style="fill:#000000;fill-opacity:1;fill-rule:nonzero;stroke:#000000;stroke-width:2;stroke-linecap:round;stroke-linejoin:bevel;stroke-miterlimit:4;stroke-opacity:1;stroke-dasharray:none"
     id="path6509-0"
     sodipodi:cx="82.5"
     sodipodi:cy="313.75"
     sodipodi:rx="31.25"
     sodipodi:ry="31.25"
     d="m 113.75,313.75 a 31.25,31.25 0 1 1 -62.5,0 31.25,31.25 0 1 1 62.5,0 z"
     transform="matrix(-0.99996802,-0.00799732,0.00799732,-0.99996802,341.76717,331.28928)" />
  <path
     sodipodi:type="arc"
     style="fill:#000000;fill-opacity:1;fill-rule:nonzero;stroke:#000000;stroke-width:2;stroke-linecap:round;stroke-linejoin:bevel;stroke-miterlimit:4;stroke-opacity:1;stroke-dasharray:none"
     id="path6509-4-7"
     sodipodi:cx="82.5"
     sodipodi:cy="313.75"
     sodipodi:rx="31.25"
     sodipodi:ry="31.25"
     d="m 113.75,313.75 a 31.25,31.25 0 1 1 -62.5,0 31.25,31.25 0 1 1 62.5,0 z"
     transform="matrix(-0.99996802,-0.00799732,0.00799732,-0.99996802,306.21825,306.00417)" />
  <path
     sodipodi:type="arc"
     style="fill:#000000;fill-opacity:1;fill-rule:nonzero;stroke:#000000;stroke-width:2;stroke-linecap:round;stroke-linejoin:bevel;stroke-miterlimit:4;stroke-opacity:1;stroke-dasharray:none"
     id="path6509-3-9"
     sodipodi:cx="82.5"
     sodipodi:cy="313.75"
     sodipodi:rx="31.25"
     sodipodi:ry="31.25"
     d="m 113.75,313.75 a 31.25,31.25 0 1 1 -62.5,0 31.25,31.25 0 1 1 62.5,0 z"
     transform="matrix(-0.99996802,-0.00799732,0.00799732,-0.99996802,275.5093,332.00941)" />
</svg>
