<?xml version="1.0" encoding="UTF-8" standalone="no"?>
<!-- Created with Inkscape (http://www.inkscape.org/) -->

<svg
   xmlns:dc="http://purl.org/dc/elements/1.1/"
   xmlns:cc="http://creativecommons.org/ns#"
   xmlns:rdf="http://www.w3.org/1999/02/22-rdf-syntax-ns#"
   xmlns:svg="http://www.w3.org/2000/svg"
   xmlns="http://www.w3.org/2000/svg"
   xmlns:sodipodi="http://sodipodi.sourceforge.net/DTD/sodipodi-0.dtd"
   xmlns:inkscape="http://www.inkscape.org/namespaces/inkscape"
   width="250"
   height="100"
   id="svg1"
   version="1.1"
   inkscape:version="0.48.5 r10040"
   sodipodi:docname="Cyrillic_Sami_letters_handwritten_D.svg">
  <defs
     id="defs1" />
  <sodipodi:namedview
     id="base"
     pagecolor="#ffffff"
     bordercolor="#666666"
     borderopacity="1.0"
     inkscape:pageopacity="0.0"
     inkscape:pageshadow="2"
     inkscape:zoom="1"
     inkscape:cx="40.25656"
     inkscape:cy="155.375"
     inkscape:document-units="px"
     inkscape:current-layer="layer1"
     showgrid="true"
     fit-margin-left="0"
     fit-margin-top="0"
     fit-margin-bottom="0"
     fit-margin-right="0"
     inkscape:window-width="1024"
     inkscape:window-height="712"
     inkscape:window-x="-4"
     inkscape:window-y="-4"
     inkscape:window-maximized="1" />
  <metadata
     id="metadata1">
    <rdf:RDF>
      <cc:Work
         rdf:about="">
        <dc:format>image/svg+xml</dc:format>
        <dc:type
           rdf:resource="http://purl.org/dc/dcmitype/StillImage" />
        <dc:title />
      </cc:Work>
    </rdf:RDF>
  </metadata>
  <g
     inkscape:label="Layer 1"
     inkscape:groupmode="layer"
     id="layer1"
     transform="translate(191.42496,-291.92755)">
    <path
       style="font-size:72px;font-style:normal;font-variant:normal;font-weight:normal;font-stretch:normal;text-indent:0;text-align:start;text-decoration:none;line-height:100%;letter-spacing:0px;word-spacing:0px;text-transform:none;direction:ltr;block-progression:tb;writing-mode:lr-tb;text-anchor:start;baseline-shift:baseline;color:#000000;fill:#000000;fill-opacity:1;fill-rule:nonzero;stroke:none;stroke-width:1px;marker:none;visibility:visible;display:inline;overflow:visible;enable-background:accumulate;font-family:Didactica Felt Lower;-inkscape-font-specification:Didactica Felt Lower"
       d="m 106.29394,328.0213 c -0.14703,0.002 -0.30378,0.0557 -0.46875,0.15625 -0.16502,0.10053 -0.32178,0.22477 -0.46875,0.40625 l -4.03135,8.125 c -0.67201,1.2705 -1.72829,3.3818 -3.15625,6.28125 -1.428,2.89947 -2.23827,5.44504 -2.40625,7.6875 -0.012,0.372 0.002,0.73125 0.0625,1.03125 0.23998,0.82049 0.62823,1.38851 1.15625,1.75 0.52797,0.3615 1.06573,0.53875 1.59375,0.53125 0.72896,0 1.56824,-0.19776 2.53125,-0.59375 0.96297,-0.396 2.00474,-0.98926 3.09375,-1.78125 l -0.3125,0.53125 c -2.205,1.75648 -4.17779,3.41452 -5.96875,5 -1.79099,1.58547 -3.10052,2.89625 -3.9375,3.96875 -0.36601,0.47548 -0.68426,0.96624 -0.90625,1.46875 -0.22201,0.50248 -0.33777,0.998 -0.34375,1.4375 -0.009,0.55048 0.18874,1.00024 0.59375,1.34375 0.40498,0.34348 1.07299,0.52073 2,0.53125 2.11795,-0.18151 4.12925,-1.62004 6.03125,-4.3125 1.90195,-2.69247 3.51774,-5.56829 4.84375,-8.59375 3.41542,-2.64896 -0.7415,0.53323 2.125,-1.59375 2.86642,-2.12696 4.60646,-3.4485 5.25,-3.9375 0.17545,-0.11249 0.28521,-0.24874 0.34375,-0.40625 0.0585,-0.15749 0.0983,-0.28899 0.0937,-0.4375 -0.009,-0.29699 -0.10555,-0.57424 -0.3125,-0.78125 -0.20705,-0.20699 -0.4843,-0.30349 -0.78125,-0.3125 -0.21604,1e-5 -0.40904,0.0747 -0.625,0.21875 l -4.21875,3.15625 0,0 c 0.41997,-1.01999 0.73347,-1.72175 0.9375,-2.09375 0.084,-0.21599 0.14422,-0.44025 0.15625,-0.65625 -0.009,-0.32849 -0.13678,-0.58774 -0.34375,-0.78125 -0.20703,-0.19349 -0.45303,-0.27674 -0.75,-0.28125 -0.14702,0.002 -0.30378,0.0557 -0.46875,0.15625 -0.16503,0.10051 -0.32178,0.22476 -0.46875,0.40625 -1.779,2.21397 -3.4503,3.82251 -5.03125,4.8125 -1.581,0.98998 -2.76029,1.48675 -3.53125,1.46875 -0.0465,0.0105 -0.12252,-0.0365 -0.25,-0.125 -0.12752,-0.0885 -0.23002,-0.28026 -0.3125,-0.59375 -0.06,-0.144 -0.10575,-0.36825 -0.0937,-0.65625 -0.009,-0.46349 0.11875,-1.12301 0.34375,-1.9375 0.22498,-0.81449 0.62049,-1.81176 1.1875,-3.03125 l 7.6875,-15.84375 c 0.14397,-0.21597 0.21872,-0.44023 0.21875,-0.65625 -0.009,-0.29697 -0.10553,-0.54298 -0.3125,-0.75 -0.20703,-0.20697 -0.45304,-0.30347 -0.75,-0.3125 z m -4.5625,28.65625 c -0.87901,1.77447 -1.85578,3.35776 -2.96875,4.78125 -1.113,1.42347 -2.27054,2.16749 -3.4375,2.25 l -0.34375,0 c 0.24598,-0.6675 0.9695,-1.60927 2.1875,-2.84375 1.21797,-1.23449 2.73251,-2.62003 4.5625,-4.1875 z"
       id="path-tail"
       inkscape:connector-curvature="0"
       sodipodi:nodetypes="ccccscccccccscccscccscccccccccccccccccccccccccccccccc" />
    <path
       style="font-size:72px;font-style:normal;font-variant:normal;font-weight:normal;font-stretch:normal;text-indent:0;text-align:start;text-decoration:none;line-height:100%;letter-spacing:0px;word-spacing:0px;text-transform:none;direction:ltr;block-progression:tb;writing-mode:lr-tb;text-anchor:start;baseline-shift:baseline;color:#000000;fill:#000000;fill-opacity:1;fill-rule:nonzero;stroke:none;stroke-width:1px;marker:none;visibility:visible;display:inline;overflow:visible;enable-background:accumulate;font-family:Didactica Felt Lower;-inkscape-font-specification:Didactica Felt Lower"
       d="m -151.581,316.27135 c -0.10803,0.015 -0.20454,0.056 -0.3125,0.125 -1.10852,0.78452 -2.87255,1.9553 -5.25,3.46875 -2.37749,1.5135 -4.13678,2.35878 -5.28125,2.53125 -0.10202,0.005 -0.25402,-0.13648 -0.5,-0.375 -0.24602,-0.23847 -0.40753,-0.62073 -0.4375,-1.15625 -2e-5,-0.41996 0.14948,-0.92647 0.4375,-1.5625 0.069,-0.10646 0.10998,-0.20172 0.125,-0.28125 0.015,-0.0795 0.0343,-0.14822 0.0312,-0.21875 -0.012,-0.32846 -0.14702,-0.61897 -0.375,-0.8125 -0.22801,-0.19347 -0.48127,-0.27672 -0.78125,-0.28125 -0.18301,-0.003 -0.36627,0.038 -0.53125,0.125 -0.16502,0.087 -0.29527,0.22453 -0.40625,0.4375 -0.37201,0.86402 -0.55052,1.72979 -0.5625,2.59375 0.004,1.00352 0.26374,1.85604 0.78125,2.5625 0.51748,0.70651 1.24225,1.09352 2.21875,1.125 1.53746,-0.16198 3.5355,-1.00125 6,-2.53125 2.46444,-1.52995 4.39249,-2.79599 5.75,-3.75 0.34797,-0.27597 0.51196,-0.58947 0.5,-0.9375 -0.009,-0.29696 -0.10553,-0.54297 -0.3125,-0.75 -0.20703,-0.20697 -0.48429,-0.30347 -0.78125,-0.3125 -0.10803,-0.003 -0.20453,-0.015 -0.3125,0 z m -3.46875,7.78125 c -0.13968,0.002 -0.28156,0.0652 -0.4375,0.15625 -0.008,0.005 -0.023,-0.005 -0.0312,0 -0.0115,0.007 -0.0198,0.024 -0.0312,0.0312 -0.0635,0.0199 -0.12648,0.0303 -0.1875,0.0625 -0.16503,0.087 -0.29528,0.25578 -0.40625,0.46875 l -3.53125,7.28125 -0.34375,0.6875 c -0.42084,0.79564 -1.2496,2.49531 -1.96875,3.9375 -0.60202,0.71097 -1.82845,1.88812 -3.6875,3.5625 -2.00443,1.80532 -4.2046,3.51169 -6.625,5.125 -2.42042,1.61331 -4.52142,2.48441 -6.3125,2.59375 -0.0465,0.0105 -0.1225,-0.0365 -0.25,-0.125 -0.1275,-0.0885 -0.23001,-0.28025 -0.3125,-0.59375 -0.06,-0.14399 -0.10575,-0.36825 -0.0937,-0.65625 -0.009,-0.46349 0.11876,-1.09176 0.34375,-1.90625 0.225,-0.81449 0.6205,-1.84301 1.1875,-3.0625 l 7.6875,-15.84375 c 0.069,-0.10647 0.10999,-0.20172 0.125,-0.28125 0.015,-0.0795 0.0342,-0.14823 0.0312,-0.21875 -0.012,-0.32847 -0.14701,-0.58773 -0.375,-0.78125 -0.22801,-0.19348 -0.48126,-0.30798 -0.78125,-0.3125 -0.18301,-0.003 -0.36626,0.038 -0.53125,0.125 -0.16501,0.087 -0.29527,0.25578 -0.40625,0.46875 l -7.71875,15.84375 c -0.6075,1.28849 -1.038,2.40151 -1.3125,3.375 -0.2745,0.97349 -0.41076,1.84527 -0.40625,2.59375 -0.003,0.2145 0.0162,0.40626 0.0312,0.59375 0.015,0.1875 0.056,0.384 0.125,0.5625 0.20549,0.82049 0.57326,1.38851 1.09375,1.75 0.52049,0.3615 1.03301,0.53875 1.5625,0.53125 2.09547,-0.105 4.44078,-0.95877 7.03125,-2.59375 2.57733,-1.62668 4.9395,-3.38729 7.0625,-5.28125 -0.03,0.0829 -0.065,0.1678 -0.0937,0.25 -0.3259,0.78641 -0.57073,1.52203 -0.71875,2.1875 -0.16652,0.74849 -0.25451,1.42251 -0.25,2 -0.004,0.0412 0.003,0.084 0,0.125 -0.002,0.1628 -0.009,0.31717 0,0.46875 0.008,0.19654 0.0287,0.39485 0.0625,0.5625 0.06,0.20512 0.14075,0.38606 0.21875,0.5625 0.0784,0.17428 0.15347,0.35512 0.25,0.5 0.096,0.14775 0.1985,0.25594 0.3125,0.375 0.1144,0.11691 0.243,0.22213 0.375,0.3125 0.13199,0.0904 0.27334,0.18266 0.40625,0.25 0.132,0.0673 0.243,0.112 0.375,0.15625 0.264,0.0885 0.5485,0.12875 0.8125,0.125 0.72896,0 1.56824,-0.19776 2.53125,-0.59375 0.96297,-0.396 2.00474,-0.98926 3.09375,-1.78125 l -0.3125,0.53125 c -2.205,1.75648 -4.17779,3.41452 -5.96875,5 -1.79099,1.58547 -3.10052,2.89625 -3.9375,3.96875 -0.36601,0.47548 -0.68426,0.96624 -0.90625,1.46875 -0.22201,0.50248 -0.33777,0.998 -0.34375,1.4375 -0.009,0.55048 0.18874,1.00024 0.59375,1.34375 0.40498,0.34348 1.07299,0.52073 2,0.53125 2.11795,-0.18151 4.12925,-1.62004 6.03125,-4.3125 1.90195,-2.69247 3.51774,-5.56829 4.84375,-8.59375 1.40531,-1.08994 1.20444,-0.92095 1.0625,-0.8125 -0.0668,0.0422 0.0918,-0.0882 0.21875,-0.1875 0.13255,-0.0932 0.28325,-0.17785 0.84375,-0.59375 2.86642,-2.12696 4.60646,-3.4485 5.25,-3.9375 0.17545,-0.11249 0.28521,-0.24874 0.34375,-0.40625 0.0585,-0.15749 0.0983,-0.28899 0.0937,-0.4375 -0.009,-0.29699 -0.10555,-0.57424 -0.3125,-0.78125 -0.20705,-0.20699 -0.4843,-0.30349 -0.78125,-0.3125 -0.21604,1e-5 -0.40904,0.0747 -0.625,0.21875 l -4.21875,3.15625 c 0.41997,-1.01999 0.73347,-1.72175 0.9375,-2.09375 0.084,-0.21599 0.14422,-0.44025 0.15625,-0.65625 -0.009,-0.32849 -0.13678,-0.58774 -0.34375,-0.78125 -0.20703,-0.19349 -0.45303,-0.27674 -0.75,-0.28125 -0.14702,0.002 -0.30378,0.0557 -0.46875,0.15625 -0.16503,0.10051 -0.32178,0.22476 -0.46875,0.40625 -1.779,2.21397 -3.4503,3.82251 -5.03125,4.8125 -1.581,0.98998 -2.76029,1.48675 -3.53125,1.46875 -0.0465,0.0105 -0.12252,-0.0365 -0.25,-0.125 -0.0638,-0.0442 -0.13563,-0.12056 -0.1875,-0.21875 -0.0519,-0.0982 -0.0838,-0.21826 -0.125,-0.375 -0.06,-0.144 -0.1058,-0.36825 -0.0937,-0.65625 -0.009,-0.46349 0.11875,-1.12301 0.34375,-1.9375 0.10942,-0.39613 0.2473,-0.85662 0.4375,-1.34375 0.004,-0.0114 0.0268,-0.0198 0.0312,-0.0312 0.19788,-0.50356 0.43524,-1.04651 0.71875,-1.65625 l 7.6875,-15.84375 c 0.069,-0.10647 0.10997,-0.20172 0.125,-0.28125 0.0459,-0.12324 0.0937,-0.25403 0.0937,-0.375 -0.009,-0.29697 -0.10553,-0.54298 -0.3125,-0.75 -0.20703,-0.20697 -0.45304,-0.30347 -0.75,-0.3125 z m -4.5625,28.65625 c -0.87901,1.77447 -1.85578,3.35776 -2.96875,4.78125 -1.113,1.42347 -2.27054,2.16749 -3.4375,2.25 l -0.34375,0 c 0.24598,-0.6675 0.9695,-1.60927 2.1875,-2.84375 1.21797,-1.23449 2.73251,-2.62003 4.5625,-4.1875 z"
       id="path-yot"
       inkscape:connector-curvature="0" />
    <path
       style="font-size:72px;font-style:normal;font-variant:normal;font-weight:normal;font-stretch:normal;text-indent:0;text-align:start;text-decoration:none;line-height:100%;letter-spacing:0px;word-spacing:0px;text-transform:none;direction:ltr;block-progression:tb;writing-mode:lr-tb;text-anchor:start;baseline-shift:baseline;color:#000000;fill:#000000;fill-opacity:1;fill-rule:nonzero;stroke:none;stroke-width:1px;marker:none;visibility:visible;display:inline;overflow:visible;enable-background:accumulate;font-family:Didactica Felt Lower;-inkscape-font-specification:Didactica Felt Lower"
       d="m -109.01865,324.05255 c -0.14703,0.002 -0.30378,0.0557 -0.46875,0.15625 -0.16502,0.10053 -0.32178,0.22477 -0.46875,0.40625 -1.47601,2.01066 -3.91007,4.82615 -7.25,8.46875 -3.33997,3.64263 -6.81756,6.99663 -10.4375,10.03125 -3.6048,3.02193 -6.56329,4.64599 -8.875,4.84375 -0.006,10e-4 -0.0245,-9e-4 -0.0312,0 -0.17172,0.0231 -0.54271,-0.0772 -1.15625,-0.3125 -0.63749,-0.2445 -1.20301,-0.84376 -1.6875,-1.78125 -0.111,-0.21299 -0.24125,-0.38175 -0.40625,-0.46875 -0.165,-0.087 -0.34826,-0.128 -0.53125,-0.125 -0.2655,0.006 -0.49826,0.1265 -0.71875,0.3125 -0.2205,0.186 -0.3615,0.42475 -0.375,0.71875 -0.002,0.075 0.0242,0.15701 0.0312,0.25 0.007,0.093 0.028,0.175 0.0625,0.25 0.76349,1.42648 1.64501,2.32725 2.6875,2.71875 1.01879,0.38259 1.71961,0.53858 2.09375,0.5 0.01,-5.1e-4 0.0212,5.5e-4 0.0312,0 0.0118,-3.4e-4 0.0197,5.5e-4 0.0312,0 2.23836,-0.13098 4.8023,-1.21711 7.65625,-3.28125 2.8795,-2.08263 5.66421,-4.45036 8.34375,-7.125 2.6795,-2.67462 4.84711,-4.98434 6.5,-6.875 -0.67201,1.2705 -1.72829,3.3818 -3.15625,6.28125 -1.428,2.89947 -2.23827,5.44504 -2.40625,7.6875 -0.012,0.372 0.002,0.73125 0.0625,1.03125 0.23998,0.82049 0.62823,1.38851 1.15625,1.75 0.52797,0.3615 1.06573,0.53875 1.59375,0.53125 0.72896,0 1.56824,-0.19776 2.53125,-0.59375 0.96297,-0.396 2.00474,-0.98926 3.09375,-1.78125 l -0.3125,0.53125 c -2.205,1.75648 -4.17779,3.41452 -5.96875,5 -1.79099,1.58547 -3.10052,2.89625 -3.9375,3.96875 -0.36601,0.47548 -0.68426,0.96624 -0.90625,1.46875 -0.22201,0.50248 -0.33777,0.998 -0.34375,1.4375 -0.009,0.55048 0.18874,1.00024 0.59375,1.34375 0.40498,0.34348 1.07299,0.52073 2,0.53125 2.11795,-0.18151 4.12925,-1.62004 6.03125,-4.3125 1.90195,-2.69247 3.51774,-5.56829 4.84375,-8.59375 3.41542,-2.64896 -0.7415,0.53323 2.125,-1.59375 2.86642,-2.12696 4.60646,-3.4485 5.25,-3.9375 0.17545,-0.11249 0.28521,-0.24874 0.34375,-0.40625 0.0585,-0.15749 0.0983,-0.28899 0.0937,-0.4375 -0.009,-0.29699 -0.10555,-0.57424 -0.3125,-0.78125 -0.20705,-0.20699 -0.4843,-0.30349 -0.78125,-0.3125 -0.21604,1e-5 -0.40904,0.0747 -0.625,0.21875 l -4.21875,3.15625 0,0 c 0.41997,-1.01999 0.73347,-1.72175 0.9375,-2.09375 0.084,-0.21599 0.14422,-0.44025 0.15625,-0.65625 -0.009,-0.32849 -0.13678,-0.58774 -0.34375,-0.78125 -0.20703,-0.19349 -0.45303,-0.27674 -0.75,-0.28125 -0.14702,0.002 -0.30378,0.0557 -0.46875,0.15625 -0.16503,0.10051 -0.32178,0.22476 -0.46875,0.40625 -1.779,2.21397 -3.4503,3.82251 -5.03125,4.8125 -1.581,0.98998 -2.76029,1.48675 -3.53125,1.46875 -0.0465,0.0105 -0.12252,-0.0365 -0.25,-0.125 -0.12752,-0.0885 -0.23002,-0.28026 -0.3125,-0.59375 -0.06,-0.144 -0.10575,-0.36825 -0.0937,-0.65625 -0.009,-0.46349 0.11875,-1.12301 0.34375,-1.9375 0.22498,-0.81449 0.62049,-1.81176 1.1875,-3.03125 l 7.6875,-15.84375 c 0.14397,-0.21597 0.21872,-0.44023 0.21875,-0.65625 -0.009,-0.29697 -0.10553,-0.54298 -0.3125,-0.75 -0.20703,-0.20697 -0.45304,-0.30347 -0.75,-0.3125 z m -4.5625,28.65625 c -0.87901,1.77447 -1.85578,3.35776 -2.96875,4.78125 -1.113,1.42347 -2.27054,2.16749 -3.4375,2.25 l -0.34375,0 c 0.24598,-0.6675 0.9695,-1.60927 2.1875,-2.84375 1.21797,-1.23449 2.73251,-2.62003 4.5625,-4.1875 z"
       id="path-l"
       inkscape:connector-curvature="0"
       sodipodi:nodetypes="cccssccccscccscscccsscscccccccscccscccscccccccccccccccccccccccccccccccc" />
    <path
       style="fill:#000000;stroke:none;marker:none"
       d="m -63.764664,323.99035 c -0.129217,-0.0195 -0.2735,-10e-4 -0.40625,0.0312 -0.2655,0.0645 -0.54476,0.24401 -0.8125,0.53125 -1.47512,2.01066 -3.89037,4.82615 -7.21875,8.46875 -3.32842,3.64263 -6.79786,6.99663 -10.40625,10.03125 -3.6084,3.03463 -6.55992,4.62583 -8.875003,4.8125 -0.11673,0.0144 -0.21415,0.0345 -0.3125,0.0625 -0.19604,-0.0392 -0.45573,-0.11853 -0.875,-0.28125 -0.62999,-0.2445 -1.17026,-0.84376 -1.65625,-1.78125 -0.111,-0.21299 -0.2725,-0.3505 -0.4375,-0.4375 -0.16499,-0.087 -0.317,-0.128 -0.5,-0.125 -0.29999,0.006 -0.5845,0.0953 -0.8125,0.28125 -0.22799,0.186 -0.33175,0.42475 -0.34375,0.71875 -0.002,0.075 -0.008,0.15701 0,0.25 0.007,0.093 0.028,0.175 0.0625,0.25 0.7995,1.42648 1.73877,2.35851 2.78125,2.75 0.88612,0.33277 1.47133,0.48585 1.84375,0.5 0.0824,0.0206 0.1555,0.0509 0.25,0.0625 2.227973,-0.11156 4.781043,-1.18455 7.625003,-3.21875 2.84395,-2.03419 5.57477,-4.3818 8.21875,-7 1.082666,-1.07211 2.025518,-2.05518 2.9375,-3 0.53318,-0.55238 1.025036,-1.05335 1.5,-1.5625 0.131897,-0.14139 0.247588,-0.26818 0.375,-0.40625 0.547575,-0.58762 1.069185,-1.1628 1.59375,-1.75 -0.81001,1.47749 -1.94829,3.7553 -3.40625,6.84375 -0.397636,0.84231 -0.730973,1.6367 -1,2.40625 -0.100885,0.28858 -0.198445,0.56551 -0.28125,0.84375 -0.08234,0.24649 -0.188593,0.52094 -0.25,0.75 -0.26102,0.97349 -0.38401,1.84527 -0.375,2.59375 -0.012,0.42 0.03375,0.777 0.09375,1.125 0.0066,0.0227 0.02438,0.0401 0.03125,0.0625 0.09645,0.31419 0.203727,0.599 0.34375,0.84375 0.03,0.0524 0.06175,0.107 0.09375,0.15625 0.0045,0.007 -0.0045,0.024 0,0.0312 0.09509,0.15261 0.195133,0.2508 0.3125,0.375 0.107198,0.11344 0.217725,0.25425 0.34375,0.34375 0.131992,0.0937 0.270292,0.1482 0.40625,0.21875 0.407874,0.21164 0.826985,0.346 1.25,0.34375 2.05495,-0.1005 4.33401,-0.94577 6.875,-2.53125 2.54094,-1.58548 4.87299,-3.32302 7,-5.1875 -0.46053,1.18349 -0.73429,2.23851 -0.84375,3.125 -0.0068,0.0549 0.0058,0.10241 0,0.15625 -0.03296,0.30814 -0.06267,0.59939 -0.0625,0.875 -3.8e-5,0.0194 -1.5e-4,0.0433 0,0.0625 -0.003,0.2145 0.01625,0.40626 0.03125,0.59375 0.001,0.01 -0.0011,0.0214 0,0.0312 0.007,0.0646 0.02195,0.12488 0.03125,0.1875 0.0104,0.10356 0.01245,0.21904 0.03125,0.3125 0.007,0.0239 0.02405,0.039 0.03125,0.0625 0.0595,0.19289 0.11114,0.36651 0.1875,0.53125 0.0193,0.0442 0.0421,0.0825 0.0625,0.125 0.0575,0.11247 0.12162,0.24487 0.1875,0.34375 0.007,0.0116 0.02395,0.0199 0.03125,0.0312 0.009,0.0128 0.02225,0.0186 0.03125,0.0312 0.08651,0.1313 0.178106,0.26794 0.28125,0.375 0.102735,0.11524 0.22078,0.22288 0.34375,0.3125 0.07788,0.0568 0.170545,0.0767 0.25,0.125 0.04517,0.0261 0.07976,0.0704 0.125,0.0937 0.0079,0.004 0.02333,-0.004 0.03125,0 0.03302,0.0166 0.0607,0.0474 0.09375,0.0625 0.365447,0.17579 0.742661,0.2833 1.125,0.28125 0.19799,-0.0233 0.35151,-0.0669 0.5,-0.125 0.009,-0.004 0.02225,0.004 0.03125,0 0.58872,-0.0742 1.24649,-0.26551 1.96875,-0.5625 0.96297,-0.396 2.00474,-0.98926 3.09375,-1.78125 l -0.3125,0.53125 c -2.205,1.75648 -4.17779,3.41452 -5.96875,5 -1.79099,1.58547 -3.10052,2.89625 -3.9375,3.96875 -0.36601,0.47548 -0.68426,0.96624 -0.90625,1.46875 -0.22201,0.50248 -0.33777,0.998 -0.34375,1.4375 -0.009,0.55048 0.18874,1.00024 0.59375,1.34375 0.40498,0.34348 1.07299,0.52073 2,0.53125 2.11795,-0.18151 4.12925,-1.62004 6.03125,-4.3125 1.90195,-2.69247 3.51774,-5.56829 4.84375,-8.59375 1.425513,-1.10561 1.214,-0.95975 1.0625,-0.84375 -0.05593,0.0353 0.08146,-0.0412 0.1875,-0.125 -0.0067,0.005 0.0381,-0.0366 0.03125,-0.0312 0.129853,-0.0911 0.27525,-0.17192 0.84375,-0.59375 2.866424,-2.12696 4.60646,-3.4485 5.25,-3.9375 0.17545,-0.11249 0.28521,-0.24874 0.34375,-0.40625 0.0585,-0.15749 0.09835,-0.28899 0.09375,-0.4375 -0.009,-0.29699 -0.10555,-0.57424 -0.3125,-0.78125 -0.20705,-0.20699 -0.4843,-0.30349 -0.78125,-0.3125 -0.21604,1e-5 -0.40904,0.0747 -0.625,0.21875 l -4.21875,3.15625 c 0.41997,-1.01999 0.73347,-1.72175 0.9375,-2.09375 0.084,-0.21599 0.14422,-0.44025 0.15625,-0.65625 -0.009,-0.32849 -0.13678,-0.58774 -0.34375,-0.78125 -0.207034,-0.19349 -0.45303,-0.27674 -0.75,-0.28125 -0.14702,0.002 -0.30378,0.0557 -0.46875,0.15625 -0.16503,0.10051 -0.32178,0.22476 -0.46875,0.40625 -1.779,2.21397 -3.4503,3.82251 -5.03125,4.8125 -1.43081,0.89593 -2.51337,1.36545 -3.28125,1.4375 -0.0777,-0.017 -0.1314,-0.0522 -0.21875,-0.0625 -0.012,0.0135 -0.0987,0.005 -0.21875,-0.0625 -0.12003,-0.0675 -0.22854,-0.252 -0.3125,-0.5625 -0.12904,-0.38249 -0.08325,-1.04201 0.09375,-1.9375 0.17696,-0.89549 0.60873,-2.11702 1.34375,-3.6875 1.56039,-3.19151 2.75744,-5.59328 3.53125,-7.1875 0.77373,-1.59418 1.41093,-2.97078 1.96875,-4.125 0.55772,-1.15419 1.30627,-2.6597 2.21875,-4.53125 0.08121,-0.21961 0.125322,-0.41367 0.125,-0.59375 0.0014,-0.0209 -3e-6,-0.0417 0,-0.0625 -0.0028,-0.0918 -0.04233,-0.16762 -0.0625,-0.25 -0.0024,-0.01 0.0026,-0.0216 0,-0.0312 -0.04727,-0.17225 -0.114539,-0.33326 -0.25,-0.46875 -0.20703,-0.20697 -0.45304,-0.30347 -0.75,-0.3125 -0.102921,10e-4 -0.200568,0.0435 -0.3125,0.0937 -0.145856,0.028 -0.270598,0.0944 -0.40625,0.1875 -0.0735,0.0505 -0.150356,0.1161 -0.21875,0.1875 -0.0722,0.0754 -0.153945,0.14986 -0.21875,0.25 l -5.6875,11.65625 c -0.54359,0.68534 -1.81034,1.9447 -3.8125,3.75 -2.00223,1.80531 -4.21484,3.51169 -6.625,5.125 -2.41022,1.61331 -4.4825,2.45316 -6.25,2.5625 -0.012,0.0135 -0.0987,0.005 -0.21875,-0.0625 -0.12002,-0.0675 -0.19727,-0.252 -0.28125,-0.5625 -0.12902,-0.38249 -0.11452,-1.04201 0.0625,-1.9375 0.17698,-0.89549 0.63999,-2.11702 1.375,-3.6875 l 7.6875,-15.84375 c 0.29246,-0.75747 0.18271,-1.30848 -0.34375,-1.625 -0.13163,-0.0791 -0.245783,-0.13672 -0.375,-0.15625 z m 11.0625,28.71875 c -0.87901,1.77447 -1.85578,3.35776 -2.96875,4.78125 -1.113,1.42347 -2.27054,2.16749 -3.4375,2.25 l -0.34375,0 c 0.24598,-0.6675 0.9695,-1.60927 2.1875,-2.84375 1.21797,-1.23449 2.73251,-2.62003 4.5625,-4.1875 z"
       id="path-m"
       inkscape:connector-curvature="0" />
    <path
       style="font-size:72px;font-style:normal;font-variant:normal;font-weight:normal;font-stretch:normal;text-indent:0;text-align:start;text-decoration:none;line-height:100%;letter-spacing:0px;word-spacing:0px;text-transform:none;direction:ltr;block-progression:tb;writing-mode:lr-tb;text-anchor:start;baseline-shift:baseline;color:#000000;fill:#000000;fill-opacity:1;fill-rule:nonzero;stroke:none;stroke-width:1px;marker:none;visibility:visible;display:inline;overflow:visible;enable-background:accumulate;font-family:Didactica Felt Lower;-inkscape-font-specification:Didactica Felt Lower"
       d="m -2.923038,324.0527 c -0.1213,0.002 -0.241311,0.0557 -0.375,0.125 -0.02836,0.0147 -0.06488,0.0136 -0.09375,0.0312 -0.057,0.019 -0.13251,0.0335 -0.1875,0.0625 -0.16502,0.087 -0.29528,0.25578 -0.40625,0.46875 l -3.6875,7.53125 -0.0625,0.15625 c -1.72649,1.08451 -4.12006,2.16128 -7.1875,3.21875 -3.06748,1.0575 -5.92654,1.63752 -8.625,1.75 l 5.59375,-11.65625 c 0.069,-0.10647 0.10999,-0.20172 0.125,-0.28125 0.015,-0.0795 0.03425,-0.14823 0.03125,-0.21875 -0.012,-0.32847 -0.14702,-0.58773 -0.375,-0.78125 -0.22801,-0.19348 -0.48127,-0.30798 -0.78125,-0.3125 -0.18301,-0.003 -0.36626,0.038 -0.53125,0.125 -0.165,0.087 -0.29526,0.25578 -0.40625,0.46875 l -5.1875,10.78125 c -0.177,-0.10648 -0.341,-0.17524 -0.5,-0.21875 -0.159,-0.0435 -0.32301,-0.064 -0.5,-0.0625 -0.64349,0.024 -1.22351,0.26277 -1.75,0.71875 -0.52649,0.45601 -0.81225,0.99377 -0.84375,1.59375 -0.005,0.30001 0.10525,0.60626 0.34375,0.90625 0.2385,0.3 0.62076,0.53151 1.15625,0.6875 l 0.3125,0.0625 c -0.72149,1.77298 -1.64627,3.72879 -2.71875,5.84375 -1.07249,2.11498 -1.6405,3.2485 -1.75,3.4375 -0.06,0.20399 -0.10575,0.368 -0.09375,0.5 0.0135,0.294 0.15451,0.53275 0.375,0.71875 0.2205,0.186 0.45325,0.3065 0.71875,0.3125 0.18299,0.003 0.36625,-0.038 0.53125,-0.125 0.16499,-0.087 0.29525,-0.25576 0.40625,-0.46875 l 4.75,-9.875 0.875,0 c 2.33096,-0.0375 4.77402,-0.40775 7.375,-1.15625 2.551006,-0.73411 4.885221,-1.60855 6.96875,-2.59375 -0.535165,1.06538 -0.892564,1.73155 -1.625,3.21875 -0.569579,1.1565 -1.034783,2.23414 -1.40625,3.28125 -0.01137,0.0282 -0.02011,0.0658 -0.03125,0.0937 -0.08206,0.2343 -0.178019,0.48975 -0.25,0.71875 -0.09844,0.28683 -0.241803,0.58004 -0.3125,0.84375 -0.187313,0.69862 -0.264256,1.32351 -0.3125,1.90625 -0.01898,0.22928 -0.06505,0.47616 -0.0625,0.6875 -0.0046,0.0528 -0.02732,0.10383 -0.03125,0.15625 -0.012,0.372 0.002,0.73125 0.0625,1.03125 0.23998,0.82049 0.62823,1.38851 1.15625,1.75 0.395978,0.27112 0.788748,0.43637 1.1875,0.5 0.139627,0.0258 0.26662,0.0312 0.40625,0.0312 0.01009,0 0.02111,8e-5 0.03125,0 0.721882,-0.005 1.550324,-0.20324 2.5,-0.59375 0.96297,-0.396 2.00474,-0.98926 3.09375,-1.78125 l -0.3125,0.53125 c -2.205,1.75648 -4.17779,3.41452 -5.96875,5 -1.79099,1.58547 -3.10051,2.89625 -3.9375,3.96875 -0.36601,0.47548 -0.68426,0.96624 -0.90625,1.46875 -0.22201,0.50248 -0.33777,0.998 -0.34375,1.4375 -0.009,0.55048 0.18874,1.00024 0.59375,1.34375 0.40498,0.34348 1.07299,0.52073 2,0.53125 2.11795,-0.18151 4.12925,-1.62004 6.03125,-4.3125 1.90195,-2.69247 3.51774,-5.56829 4.84375,-8.59375 1.40531,-1.08994 1.204437,-0.92095 1.0625,-0.8125 -0.06676,0.0422 0.09176,-0.0882 0.21875,-0.1875 0.132553,-0.0932 0.283245,-0.17785 0.84375003,-0.59375 2.86641997,-2.12696 4.60645997,-3.4485 5.24999997,-3.9375 0.17545,-0.11249 0.28521,-0.24874 0.34375,-0.40625 0.0585,-0.15749 0.09835,-0.28899 0.09375,-0.4375 -0.009,-0.29699 -0.10555,-0.57424 -0.3125,-0.78125 -0.20705,-0.20699 -0.4843,-0.30349 -0.78125,-0.3125 -0.21604,1e-5 -0.40904,0.0747 -0.625,0.21875 l -4.21875,3.15625 c 0.41997003,-1.01999 0.73347003,-1.72175 0.93750003,-2.09375 0.084,-0.21599 0.14422,-0.44025 0.15625,-0.65625 -0.009,-0.32849 -0.13678,-0.58774 -0.34375,-0.78125 -0.20703,-0.19349 -0.45303,-0.27674 -0.75000003,-0.28125 -0.14702,0.002 -0.30378,0.0557 -0.46875,0.15625 -0.16503,0.10051 -0.32178,0.22476 -0.46875,0.40625 -1.779,2.21397 -3.4503,3.82251 -5.03125,4.8125 -1.504585,0.94213 -2.635004,1.40732 -3.40625,1.4375 -0.03295,-0.003 -0.05914,8.6e-4 -0.09375,0 -0.0465,0.0105 -0.12252,-0.0365 -0.25,-0.125 -0.12751,-0.0885 -0.23002,-0.28025 -0.3125,-0.59375 -0.06,-0.14399 -0.10575,-0.36825 -0.09375,-0.65625 -0.009,-0.46349 0.11876,-1.09176 0.34375,-1.90625 0.222466,-0.80539 0.599356,-1.82986 1.15625,-3.03125 l 0.03125,-0.0312 7.65625,-15.8125 c 0.0079,-0.0118 0.02378,-0.0194 0.03125,-0.0312 0.069,-0.10647 0.10997,-0.20172 0.125,-0.28125 0.0021,-0.0111 -0.0017,-0.0203 0,-0.0312 0.0078,-0.0233 0.02511,-0.0392 0.03125,-0.0625 0.004,-0.0423 0.0017,-0.0855 0,-0.125 0.0061,-0.0442 0.03124,-0.0814 0.03125,-0.125 -0.009,-0.29697 -0.10553,-0.54298 -0.3125,-0.75 -0.20703,-0.20697 -0.45304,-0.30347 -0.75,-0.3125 z m -4.5625,28.65625 c -0.87901,1.77447 -1.85578,3.35776 -2.96875,4.78125 -1.113,1.42347 -2.27054,2.16749 -3.4375,2.25 l -0.34375,0 c 0.24598,-0.6675 0.9695,-1.60927 2.1875,-2.84375 1.21797,-1.23449 2.73251,-2.62003 4.5625,-4.1875 z"
       id="path-n"
       inkscape:connector-curvature="0" />
    <path
       style="font-size:72px;font-style:normal;font-variant:normal;font-weight:normal;font-stretch:normal;text-indent:0;text-align:start;text-decoration:none;line-height:100%;letter-spacing:0px;word-spacing:0px;text-transform:none;direction:ltr;block-progression:tb;writing-mode:lr-tb;text-anchor:start;baseline-shift:baseline;color:#000000;fill:#000000;fill-opacity:1;fill-rule:nonzero;stroke:none;stroke-width:1px;marker:none;visibility:visible;display:inline;overflow:visible;enable-background:accumulate;font-family:Didactica Felt Lower;-inkscape-font-specification:Didactica Felt Lower"
       d="m 26.57504,320.39615 c -0.187512,-0.003 -0.352766,0.038 -0.53125,0.125 -0.17851,0.087 -0.326764,0.22453 -0.40625,0.4375 l -26.90625,55.375 c -0.084,0.20397 -0.14424,0.36797 -0.15625,0.5 0.012,0.32846 0.11576,0.58772 0.34375,0.78125 0.22801,0.19346 0.51251,0.30797 0.8125,0.3125 0.18301,0.003 0.36626,-0.038 0.53125,-0.125 0.16501,-0.087 0.29527,-0.25578 0.40625,-0.46875 l 19,-39.15625 0.0625,-0.0625 c 0.474653,-0.59553 1.73935,-1.80278 3.75,-3.625 2.010628,-1.82218 4.228851,-3.58778 6.6875,-5.25 2.458615,-1.66218 4.587585,-2.54067 6.40625,-2.65625 0.04647,-0.0105 0.153727,0.0365 0.28125,0.125 0.127475,0.0885 0.229979,0.28028 0.3125,0.59375 0.05997,0.20402 0.07447,0.44278 0.0625,0.71875 -0.08029,1.36181 -0.603559,3.07277 -1.5625,5.0625 -0.0923,0.19152 -0.180805,0.36516 -0.28125,0.5625 -0.674403,1.29344 -1.574789,3.07869 -2.875,5.71875 -0.138477,0.28117 -0.248164,0.53794 -0.375,0.8125 -0.06217,0.12831 -0.125328,0.24633 -0.1875,0.375 -0.08324,0.17226 -0.141105,0.33047 -0.21875,0.5 -0.07635,0.17881 -0.178888,0.35532 -0.25,0.53125 -0.835878,1.94406 -1.300304,3.73942 -1.375,5.3125 -5.28e-4,0.0317 -2.9e-5,0.0621 0,0.0937 -0.0016,0.0206 0.0015,0.042 0,0.0625 -0.012,0.372 0.002,0.73125 0.0625,1.03125 0.23998,0.82049 0.62823,1.38851 1.15625,1.75 0.52797,0.3615 1.06573,0.53875 1.59375,0.53125 0.72896,0 1.56824,-0.19776 2.53125,-0.59375 0.96297,-0.396 2.00474,-0.98926 3.09375,-1.78125 l -0.3125,0.53125 c -2.205,1.75648 -4.17779,3.41452 -5.96875,5 -1.79099,1.58547 -3.100516,2.89625 -3.9375,3.96875 -0.36601,0.47548 -0.68426,0.96624 -0.90625,1.46875 -0.22201,0.50248 -0.33777,0.998 -0.34375,1.4375 -0.009,0.55048 0.18874,1.00024 0.59375,1.34375 0.40498,0.34348 1.07299,0.52073 2,0.53125 2.11795,-0.18151 4.12925,-1.62004 6.03125,-4.3125 1.90195,-2.69247 3.51774,-5.56829 4.84375,-8.59375 1.40531,-1.08994 1.204437,-0.92095 1.0625,-0.8125 -0.06676,0.0422 0.09175,-0.0882 0.21875,-0.1875 0.132553,-0.0932 0.283245,-0.17785 0.84375,-0.59375 2.86642,-2.12696 4.60646,-3.4485 5.25,-3.9375 0.17545,-0.11249 0.28521,-0.24874 0.34375,-0.40625 0.0585,-0.15749 0.09835,-0.28899 0.09375,-0.4375 -0.009,-0.29699 -0.10555,-0.57424 -0.3125,-0.78125 -0.20705,-0.20699 -0.4843,-0.30349 -0.78125,-0.3125 -0.21604,1e-5 -0.40904,0.0747 -0.625,0.21875 l -4.21875,3.15625 c 0.41997,-1.01999 0.73347,-1.72175 0.9375,-2.09375 0.084,-0.21599 0.14422,-0.44025 0.15625,-0.65625 -0.009,-0.32849 -0.13678,-0.58774 -0.34375,-0.78125 -0.20703,-0.19349 -0.45303,-0.27674 -0.75,-0.28125 -0.14702,0.002 -0.30378,0.0557 -0.46875,0.15625 -0.16503,0.10051 -0.32178,0.22476 -0.46875,0.40625 -1.779,2.21397 -3.4503,3.82251 -5.03125,4.8125 -1.35439,0.84808 -2.395634,1.29563 -3.15625,1.40625 -0.114642,-0.0349 -0.231933,-0.0589 -0.375,-0.0625 -0.04652,0.0105 -0.122522,-0.005 -0.25,-0.0937 -0.108784,-0.0755 -0.236493,-0.26075 -0.3125,-0.5 -0.01024,-0.0246 -0.02206,-0.0646 -0.03125,-0.0937 -0.0028,-0.0102 0.0028,-0.0208 0,-0.0312 -0.01854,-0.0445 -0.01959,-0.0981 -0.03125,-0.15625 -0.01743,-0.11006 -0.03728,-0.231 -0.03125,-0.375 -6.59e-4,-0.0339 -7.9e-4,-0.089 0,-0.125 -0.004,-0.20536 0.0518,-0.44449 0.09375,-0.71875 0.05894,-0.32463 0.1375,-0.68651 0.25,-1.09375 0.22498,-0.81449 0.62049,-1.81176 1.1875,-3.03125 l 0.03125,-0.15625 c 0.213676,-0.38049 0.729731,-1.35473 1.59375,-3 0.881743,-1.67907 1.728708,-3.5764 2.5625,-5.6875 0.833741,-2.11106 1.283279,-3.99847 1.34375,-5.65625 0.01197,-0.91346 -0.205031,-1.64298 -0.625,-2.1875 -0.420019,-0.54447 -1.129038,-0.83023 -2.125,-0.84375 -2.095495,0.10803 -4.409553,1.00029 -7,2.65625 -2.590481,1.656 -4.962289,3.43579 -7.09375,5.34375 L 27.57504,321.99 c 0.08398,-0.20397 0.144235,-0.39923 0.15625,-0.53125 -0.01201,-0.32847 -0.115766,-0.58772 -0.34375,-0.78125 -0.228011,-0.19347 -0.512519,-0.27672 -0.8125,-0.28125 z m 9.5,32.65625 c -0.87901,1.77447 -1.85578,3.35776 -2.96875,4.78125 -1.113,1.42347 -2.27054,2.16749 -3.4375,2.25 l -0.34375,0 c 0.24598,-0.6675 0.9695,-1.60927 2.1875,-2.84375 1.21797,-1.23449 2.73251,-2.62003 4.5625,-4.1875 z"
       id="path-r"
       inkscape:connector-curvature="0" />
  </g>
</svg>
