<?xml version="1.0" encoding="UTF-8" standalone="no"?>
<!-- Generator: Adobe Illustrator 28.4.1, SVG Export Plug-In . SVG Version: 6.00 Build 0)  -->

<svg
   version="1.1"
   id="Warstwa_1"
   x="0px"
   y="0px"
   viewBox="0 0 841.9 595.3"
   style="enable-background:new 0 0 841.9 595.3;"
   xml:space="preserve"
   sodipodi:docname="Czorsztyn_zamek_plan.svg"
   inkscape:version="1.3 (0e150ed6c4, 2023-07-21)"
   xmlns:inkscape="http://www.inkscape.org/namespaces/inkscape"
   xmlns:sodipodi="http://sodipodi.sourceforge.net/DTD/sodipodi-0.dtd"
   xmlns="http://www.w3.org/2000/svg"
   xmlns:svg="http://www.w3.org/2000/svg"><defs
   id="defs510" /><sodipodi:namedview
   id="namedview510"
   pagecolor="#505050"
   bordercolor="#eeeeee"
   borderopacity="1"
   inkscape:showpageshadow="0"
   inkscape:pageopacity="0"
   inkscape:pagecheckerboard="0"
   inkscape:deskcolor="#505050"
   inkscape:zoom="15.0509"
   inkscape:cx="165.43861"
   inkscape:cy="411.37074"
   inkscape:window-width="1920"
   inkscape:window-height="1001"
   inkscape:window-x="-9"
   inkscape:window-y="-9"
   inkscape:window-maximized="1"
   inkscape:current-layer="Warstwa_1" />&#10;<style
   type="text/css"
   id="style1">&#10;	.st0{fill:#FFFFFF;}&#10;	.st1{stroke:#000000;stroke-width:3;stroke-miterlimit:10;}&#10;	.st2{fill:none;stroke:#000000;stroke-miterlimit:10;}&#10;	.st3{fill:#1D1D1B;stroke:#000000;stroke-width:3;stroke-miterlimit:10;}&#10;	.st4{fill:none;stroke:#000000;stroke-miterlimit:10;stroke-dasharray:5.9824,5.9824;}&#10;	.st5{fill:none;stroke:#000000;stroke-miterlimit:10;stroke-dasharray:5.9408,5.9408;}&#10;	.st6{fill:none;stroke:#000000;stroke-miterlimit:10;stroke-dasharray:3.9397,3.9397;}&#10;	.st7{fill:none;stroke:#000000;stroke-miterlimit:10;stroke-dasharray:4.0042,4.0042;}&#10;	.st8{fill:none;stroke:#000000;stroke-miterlimit:10;stroke-dasharray:4.7839,4.7839;}&#10;	.st9{fill:none;stroke:#000000;stroke-miterlimit:10;stroke-dasharray:4;}&#10;	.st10{stroke:#000000;stroke-miterlimit:10;}&#10;	.st11{fill:none;stroke:#000000;stroke-width:0.5;stroke-miterlimit:10;}&#10;	.st12{font-family:'DejaVuSans';}&#10;	.st13{font-size:14.6659px;}&#10;	.st14{font-size:14.6663px;}&#10;</style>&#10;<path
   class="st0"
   d="M0.1,0v595.3H842V0H0.1z"
   id="path1" />&#10;<path
   class="st1"
   d="M370.1,78.8l-149,72l28,29.9l-21.9,15.2l1.4,13.6l8.9-8.1l3,4l17.8-14.8l8.7,9.3l17.2-14.3l-25.1-31.7l97-44  l22.5,47.9c7.1,0.4,14,0.6,14,0.6l8.2-11.2L370.1,78.8z"
   id="path2" />&#10;<path
   class="st1"
   d="M205.3,219.5c1.8-0.3,0.1,0.3,10.7-4.1c-9.6-12.3-6.6-10.7-13.3-8.2L205.3,219.5z"
   id="path3" />&#10;<path
   d="M198.4,221.2c-6-15-1.8-7.9-19.8-31.9l-3,2c14.4,22.3,12,15.1,12,32C187.6,223.3,196.6,221.7,198.4,221.2z"
   id="path4" />&#10;<path
   class="st1"
   d="M415.6,180l-12-3.8c-12.6,14.4-11.3,10.6-8.5,16.5l-40.5,22.4c5,10,2.5,8.3,10,7.1c3.8,10.1,0.9,7.7,11,9.3  l47.5-34.8L415.6,180z"
   id="path5" />&#10;<path
   class="st2"
   d="M468.6,234.3l-48-36"
   id="path6" />&#10;<path
   class="st2"
   d="M457.1,240.3l-46.5-34"
   id="path7" />&#10;<path
   class="st2"
   d="M416.7,180l-15.2-33.5"
   id="path8" />&#10;<path
   class="st2"
   d="M392,188.5l-16.4-36"
   id="path9" />&#10;<path
   class="st2"
   d="M400.6,179.3l-12-22"
   id="path10" />&#10;<path
   class="st2"
   d="M403.6,176.3l-9.8-18.8"
   id="path11" />&#10;<path
   class="st1"
   d="M256.1,304.4c-6.6-1.7-5.2,0.3-5.2-9.7c-41.4,18-52.7,48.1-52.7,48.1s10.1-2.2,11.3-2.3s8.2,8.9,8.2,8.9  s5.1-26.6,37-37C257.8,311.4,257.1,312.6,256.1,304.4z"
   id="path12" />&#10;<path
   class="st3"
   d="M245.7,135.1c0-12.7,1.7-8.6-7.7-16.6l-6.5,4.6l-8.2-8.3l-11.4,5.6c-0.1,14.3-1.2,8.5,5.3,25.7  C217.3,146.1,239.6,131,245.7,135.1z"
   id="path13" />&#10;<path
   d="M155.7,98.5c0,0-14.6,6.2-30.5,12.5l39.8,1.9L155.7,98.5z"
   id="path14" />&#10;<path
   d="m 279.1,436 3.3,-8.1 -44.9,-19.5 -2.5,5 -31.4,-14.3 -2.3,3.5 -17.9,-7.2 1.1,-5.4 -9.7,-1.3 -5.2,12.5 -35.8,-16.1 -19.5,-82.5 c 9.3,-7.3 6,-2.2 13.9,-24 L 115.8,222 c -9.3,-9.1 -7.7,-5.7 -7.7,-14.5 C 88.4,189.9 89.5,191.2 88.9,189.3 l -6.9,2.8 48.1,204 c 45.1,16.3 31.9,12.8 59.2,16.3 17.9,5.6 12.9,3 22.6,11 3.9,-4.1 0.9,-3.9 13,1.2 l -1.5,5.6 48.6,20.5 1.9,-3.1 14.1,4.8 4.1,-10.6 z"
   id="path15"
   sodipodi:nodetypes="ccccccccccccccccccccccccccc" />&#10;<path
   d="M78.5,177.6c7.9-3,6.2-0.5,6.7-12.5c11.4-2.8,8-1.2,15.3-6.8c6.6-5.8,3.7-4.3,13-6.6l5.4-11l-8.1-6.8  c-0.6-8.1,1-6.7-3.1-6.6v-9.7C101,120,95,122,90.8,123.1l10.8,7.4l-15.5,21.1l2.1,4.1L74.8,162L78.5,177.6z"
   id="path16" />&#10;<path
   class="st2"
   d="M82.8,192.9l-4.1-16.8"
   id="path17" />&#10;<path
   class="st2"
   d="M84.3,174.6l4.3,15.9"
   id="path18" />&#10;<path
   class="st2"
   d="M79.5,176l-8.1,3.3l4.9,15.3l6.3-2.3"
   id="path19" />&#10;<polygon
   points="337.4,385.5 328.5,415.9 345.2,417.8 353,389.2 "
   id="polygon19" />&#10;<polygon
   points="394.1,392.2 387.7,405.2 404,412.4 413.9,401.5 "
   id="polygon20" />&#10;<path
   class="st2"
   d="M227.7,211.8l-10.6,4.3"
   id="path20" />&#10;<path
   class="st2"
   d="M207.9,204.3l19.2-9.5"
   id="path21" />&#10;<path
   class="st2"
   d="M202.9,206.3l-9.9,3.3"
   id="path22" />&#10;<path
   class="st2"
   d="M204.5,220.7h-7.7"
   id="path23" />&#10;<path
   class="st2"
   d="M285.3,185.6l10.1,14"
   id="path24" />&#10;<path
   class="st2"
   d="M276.3,192.3l11.7,14"
   id="path25" />&#10;<path
   class="st2"
   d="M265.9,199.9l13.9,16.7"
   id="path26" />&#10;<path
   class="st2"
   d="M240.5,206.8l26.1,25.5"
   id="path27" />&#10;<path
   class="st2"
   d="M360.8,244.5l22.9,13.4"
   id="path28" />&#10;<path
   class="st2"
   d="M339,256.8l21.3,14.7"
   id="path29" />&#10;<path
   class="st2"
   d="M127.4,277.5l26.3,110.7l18.3,7.1"
   id="path30" />&#10;<path
   class="st2"
   d="M175.1,389.8l1.7-8.6c0,0,10.5-9.6,19.9-37.4"
   id="path31" />&#10;<path
   class="st2"
   d="M213.2,405.2v-6.6c-28.5-11.3-24.7-11.5-29.4-7.9"
   id="path32" />&#10;<path
   class="st2"
   d="M218.2,351.9l-18.3,39.5"
   id="path33" />&#10;<path
   class="st2"
   d="M176.8,381.2L149,367.8"
   id="path34" />&#10;<path
   class="st2"
   d="M211.7,421c0,7.2-2.1,4.6,10.7,11.7c0,0,0.8-1.3,1.7-3.4"
   id="path35" />&#10;<path
   class="st2"
   d="M131.4,395.6c0,0-14.1,1.9-23,28.1l54.5,11.7"
   id="path36" />&#10;<path
   class="st2"
   d="M167.9,408.4l-6.6,21.5c0,0-0.3,8.3,8.4,11.9c19.9,8.3,48.6,23.4,111.6,49.3l12-26.6l-21.7-9l0.5-8.1"
   id="path37" />&#10;<path
   class="st2"
   d="M288.1,450.3l-3.2,10.7"
   id="path38" />&#10;<path
   class="st2"
   d="M257.7,312.3c0,0,21.6-7,56.6-35.6"
   id="path39" />&#10;<path
   class="st2"
   d="M252.3,292.9c0,0,21.4-5.4,56.4-33.9"
   id="path40" />&#10;<path
   class="st2"
   d="M334.4,226.4l18.6-11.5"
   id="path41" />&#10;<path
   class="st2"
   d="M377,231.5l-16.2,13"
   id="path42" />&#10;<path
   class="st1"
   d="M823.4,200.7l-45.7-26.4l-6.9,9l45.6,27.8L823.4,200.7z"
   id="path43" />&#10;<path
   class="st1"
   d="M654.4,256.3l-8.7,14.3c11.2,5.1,8.8,5.2,11.5,0.4l20.6,11.6c5.6-5,4.3-2.5,5.9-10.6L654.4,256.3z"
   id="path44" />&#10;<path
   class="st1"
   d="M616.4,332.7c-10.6-0.2-7.4-2-12.6,6.7c4.2,2.6,3.6,0.9,2.3,7.2c10.7-2.5,7.6-0.4,12.9-9.6L616.4,332.7z"
   id="path45" />&#10;<path
   class="st2"
   d="M644.6,270.4L643,273"
   id="path46" />&#10;<path
   class="st4"
   d="M639.9,278.1l-29.5,48.6"
   id="path47" />&#10;<path
   class="st2"
   d="M608.9,329.2l-1.6,2.6"
   id="path48" />&#10;<path
   class="st2"
   d="M620.2,337l1.5-2.6"
   id="path49" />&#10;<path
   class="st5"
   d="M624.7,329.3l28.2-48.9"
   id="path50" />&#10;<path
   class="st2"
   d="M654.4,277.9l1.5-2.6"
   id="path51" />&#10;<path
   d="M759.4,207.3l-7.5-1.9l-18,42.4l7.9,0.2L759.4,207.3z"
   id="path52" />&#10;<path
   d="M734.5,248.8l5.8,0.1l-12.4,28.8l-4.8-1.9L734.5,248.8z M733.9,247.8l-12.2,28.6l6.7,2.6l13.4-31L733.9,247.8z"
   id="path53" />&#10;<path
   class="st2"
   d="M113,151.4l-9.4,16.6l12,55.4"
   id="path54" />&#10;<path
   class="st2"
   d="M103.6,168l-7.9,4.6l5.4,28.7l9.6-0.5"
   id="path55" />&#10;<path
   class="st2"
   d="M75,162.4c-12.2,7.3-4.9,2.3-31.3,22.2l21,55.6"
   id="path56" />&#10;<path
   class="st2"
   d="M352.7,389.6l1.8,0.8"
   id="path57" />&#10;<path
   class="st6"
   d="M358.2,391.9l27.1,11.7"
   id="path58" />&#10;<path
   class="st2"
   d="M387.1,404.4l1.9,0.8"
   id="path59" />&#10;<path
   class="st2"
   d="M394.3,392.9l-1.8-0.9"
   id="path60" />&#10;<path
   class="st7"
   d="M388.9,390.3l-41.5-19.9"
   id="path61" />&#10;<path
   class="st2"
   d="M345.6,369.5c-2.3-1-1.6-1.3-2.5,1.1"
   id="path62" />&#10;<path
   class="st8"
   d="M341.6,375.1l-2.4,6.8"
   id="path63" />&#10;<path
   class="st2"
   d="M338.4,384.1l-0.6,1.9"
   id="path64" />&#10;<path
   class="st9"
   d="M485.7,432.9c-16.2-8.3-2.6-1.7-72.1-31.1"
   id="path65" />&#10;<path
   class="st2"
   d="M476.5,445.7l9.2-1.5v-11.7"
   id="path66" />&#10;<path
   class="st9"
   d="M404.2,411.9l58.9,27.4"
   id="path67" />&#10;<path
   class="st2"
   d="M490.1,432.4v14.2c55.5,2.7,20.4,3.5,91.4,6.6c0,0,12.6,10.6,33.3,18.6"
   id="path68" />&#10;<path
   class="st9"
   d="M605.6,439.3l-116-6.4"
   id="path69" />&#10;<path
   d="M709.5,359.8c1.8,5.1-1.1,7.5,13.3-14.5l-6.5-6.5l-13.5,20.1L709.5,359.8z"
   id="path70" />&#10;<path
   d="M704.3,367.1c-3-2.1-1.9-1.3-4.6-3.6l-11.2,16.7c6.6-0.2,5.4-1,8.7,4C710.3,364.3,709.4,367.8,704.3,367.1z"
   id="path71" />&#10;<g
   id="g502">&#10;	<path
   class="st2"
   d="M710.9,362.4l-3.8,5.8"
   id="path72" />&#10;	<path
   class="st2"
   d="M703.8,358.4l-3.9,5.7"
   id="path73" />&#10;	<path
   class="st2"
   d="M689.2,379.9l-5.3,9.8"
   id="path74" />&#10;	<path
   class="st2"
   d="M692.5,392.5l4.7-9.2"
   id="path75" />&#10;	<path
   class="st10"
   d="M166.4,236.3l-3.9-10.8c-5,5.8-4.6,2.8-1,13.8L166.4,236.3z"
   id="path76" />&#10;	<path
   class="st2"
   d="M170.7,266.6c4.8,6.3,2.8,5.3,8.7,5.3l-4.6-12.5"
   id="path77" />&#10;	<path
   class="st10"
   d="M171.4,261.1c4.6-2.3,4-0.2-0.5-12.5l-5.7,2.3C171.9,271.4,170.5,268.4,171.4,261.1z"
   id="path78" />&#10;	<path
   class="st2"
   d="M161.5,239.2l3.7,11.7"
   id="path79" />&#10;	<path
   class="st2"
   d="M166.4,236.3l4.5,12.3"
   id="path80" />&#10;	<path
   class="st2"
   d="M179.4,271.9c40.1-24.5,25.6-12.3,62.8-55.4"
   id="path81" />&#10;	<path
   class="st2"
   d="M480.3,527.6h10.1"
   id="path82" />&#10;	<path
   class="st2"
   d="M625.6,456.4l2.8,3.1"
   id="path83" />&#10;	<path
   class="st11"
   d="M360.8,279.1l-7.2,4"
   id="path84" />&#10;	<path
   class="st11"
   d="M363,281.1l-8.5,5.5"
   id="path85" />&#10;	<path
   class="st11"
   d="M366.1,283l-14.2,11.5"
   id="path86" />&#10;	<path
   class="st11"
   d="M368.9,284.8l-6.8,5.5"
   id="path87" />&#10;	<path
   class="st11"
   d="M370.8,286l-18.1,16.5"
   id="path88" />&#10;	<path
   class="st11"
   d="M373.2,288.2l-6.6,6.9"
   id="path89" />&#10;	<path
   class="st11"
   d="M376.3,290l-17.5,18.5"
   id="path90" />&#10;	<path
   class="st11"
   d="M379,291.6l-8.2,8.9"
   id="path91" />&#10;	<path
   class="st11"
   d="M380.8,293.6L362,315.1"
   id="path92" />&#10;	<path
   class="st11"
   d="M383.4,295.1l-9.4,11.1"
   id="path93" />&#10;	<path
   class="st11"
   d="M386.5,296.7l-17.9,21.5"
   id="path94" />&#10;	<path
   class="st11"
   d="M390,299.3l-9.2,11.8"
   id="path95" />&#10;	<path
   class="st11"
   d="M393.3,300.6l-14.6,20.3"
   id="path96" />&#10;	<path
   class="st11"
   d="M395.9,302.7l-8.2,11.6"
   id="path97" />&#10;	<path
   class="st11"
   d="M398.6,305.2l-12,19.3"
   id="path98" />&#10;	<path
   class="st11"
   d="M400.8,306.9l-6.5,12.9"
   id="path99" />&#10;	<path
   class="st11"
   d="M403.8,309.1l-9.5,19.7"
   id="path100" />&#10;	<path
   class="st11"
   d="M407.1,310.8l-6.3,13.4"
   id="path101" />&#10;	<path
   class="st11"
   d="M410.6,313.3l-9.1,17.3"
   id="path102" />&#10;	<path
   class="st11"
   d="M413.8,314.9l-6.5,12.7"
   id="path103" />&#10;	<path
   class="st11"
   d="M416.9,316l-6.3,16.9"
   id="path104" />&#10;	<path
   class="st11"
   d="M419.3,317.5l-3.5,12.6"
   id="path105" />&#10;	<path
   class="st11"
   d="M423,318.9l-5.5,16.7"
   id="path106" />&#10;	<path
   class="st11"
   d="M426.2,321.3l-3.2,10.9"
   id="path107" />&#10;	<path
   class="st11"
   d="M428.3,322.5l-2.7,14"
   id="path108" />&#10;	<path
   class="st11"
   d="M431.6,324.5l-2.5,11.1"
   id="path109" />&#10;	<path
   class="st11"
   d="M434.6,326.7l0.4,10.6"
   id="path110" />&#10;	<path
   class="st11"
   d="M437.7,328.7l0.5,7.1"
   id="path111" />&#10;	<path
   class="st11"
   d="M441.6,330.1l0.2,10.2"
   id="path112" />&#10;	<path
   class="st11"
   d="M447,332.2l-0.4,7.3"
   id="path113" />&#10;	<path
   class="st11"
   d="M324,225.4l-1.4-42.8"
   id="path114" />&#10;	<path
   class="st11"
   d="M321.7,218.7l-2.2-19.9"
   id="path115" />&#10;	<path
   class="st11"
   d="M320.6,222.7L312,183"
   id="path116" />&#10;	<path
   class="st11"
   d="M317.6,216.5l-4.3-19.7"
   id="path117" />&#10;	<path
   class="st11"
   d="M315.5,217.2l-7.3-31.2"
   id="path118" />&#10;	<path
   class="st11"
   d="M311.8,212l-4.3-16.2"
   id="path119" />&#10;	<path
   class="st11"
   d="M308.7,209.8l-10.6-25.5"
   id="path120" />&#10;	<path
   class="st11"
   d="M304.6,205.4l-3.9-8.3"
   id="path121" />&#10;	<path
   class="st11"
   d="M327,222.2l-0.4-26.8"
   id="path122" />&#10;	<path
   class="st11"
   d="M329.2,221.7l1.2-37.4"
   id="path123" />&#10;	<path
   class="st11"
   d="M331,220.9l1.9-25"
   id="path124" />&#10;	<path
   class="st11"
   d="M332.6,221.6l3.3-36.8"
   id="path125" />&#10;	<path
   class="st11"
   d="M334.9,218.7l3.2-21.6"
   id="path126" />&#10;	<path
   class="st11"
   d="M337.3,218l6.3-30.4"
   id="path127" />&#10;	<path
   class="st11"
   d="M340.5,216.5l4.4-18.8"
   id="path128" />&#10;	<path
   class="st11"
   d="M343.6,214.9l5.9-25.2"
   id="path129" />&#10;	<path
   class="st11"
   d="M346.5,214.9l3.5-14.7"
   id="path130" />&#10;	<path
   class="st11"
   d="M350,211l5.8-18.1"
   id="path131" />&#10;	<path
   class="st11"
   d="M352.3,209.4l3.7-10.1"
   id="path132" />&#10;	<path
   class="st11"
   d="M354.2,209.4l6.6-14"
   id="path133" />&#10;	<path
   class="st11"
   d="M356.6,208.8l9-7.5"
   id="path134" />&#10;	<path
   class="st11"
   d="M148,84.3l1.3-12"
   id="path135" />&#10;	<path
   class="st11"
   d="M150.1,85.8l0.5-5.5"
   id="path136" />&#10;	<path
   class="st11"
   d="M150.4,87.9l4.1-13.3"
   id="path137" />&#10;	<path
   class="st11"
   d="M152.4,89.7l3.1-7.1"
   id="path138" />&#10;	<path
   class="st11"
   d="M154,91.7l6.2-12.9"
   id="path139" />&#10;	<path
   class="st11"
   d="M155.6,94l4.9-8.1"
   id="path140" />&#10;	<path
   class="st11"
   d="M158,96.7l8.8-15.4"
   id="path141" />&#10;	<path
   class="st11"
   d="M160.2,99.5l6.9-11.9"
   id="path142" />&#10;	<path
   class="st11"
   d="M163,101.8L173.6,82"
   id="path143" />&#10;	<path
   class="st11"
   d="M165.4,103.8l7.4-13.8"
   id="path144" />&#10;	<path
   class="st11"
   d="M168.3,107.2l12.3-25.3"
   id="path145" />&#10;	<path
   class="st11"
   d="M171.5,108.7l8.3-18.7"
   id="path146" />&#10;	<path
   class="st11"
   d="M176.9,109.1l9.2-22.4"
   id="path147" />&#10;	<path
   class="st11"
   d="M181.5,108.8l6.4-16.6"
   id="path148" />&#10;	<path
   class="st11"
   d="M185.8,108.5l7.6-20.4"
   id="path149" />&#10;	<path
   class="st11"
   d="M189.6,107.9l5.2-14.3"
   id="path150" />&#10;	<path
   class="st11"
   d="M192.9,107.5l7.2-20.2"
   id="path151" />&#10;	<path
   class="st11"
   d="M197.7,106.5L201,95"
   id="path152" />&#10;	<path
   class="st11"
   d="M202.5,105.7l3.9-21.2"
   id="path153" />&#10;	<path
   class="st11"
   d="M206.7,105.7l1.5-8.8"
   id="path154" />&#10;	<path
   class="st11"
   d="M209.8,106.1l2.6-18.2"
   id="path155" />&#10;	<path
   class="st11"
   d="M213,105.7l1.4-7.8"
   id="path156" />&#10;	<path
   class="st11"
   d="M216.3,106.1l2.9-17.1"
   id="path157" />&#10;	<path
   class="st11"
   d="M218.5,106.4l7.8-15.9"
   id="path158" />&#10;	<path
   class="st11"
   d="M221.1,109.9l10.7-17.1"
   id="path159" />&#10;	<path
   class="st11"
   d="M219.8,107.7l3.7-6"
   id="path160" />&#10;	<path
   class="st11"
   d="M223.4,111.1l4.4-6.4"
   id="path161" />&#10;	<path
   class="st11"
   d="M224.9,114.1l14-19.2"
   id="path162" />&#10;	<path
   class="st11"
   d="M226.5,115l4.6-6.1"
   id="path163" />&#10;	<path
   class="st11"
   d="M228.3,117.2l13.6-17.2"
   id="path164" />&#10;	<path
   class="st11"
   d="M230.8,118.8l4.3-5.9"
   id="path165" />&#10;	<path
   class="st11"
   d="M235.1,117.9l8.9-12.5"
   id="path166" />&#10;	<path
   class="st11"
   d="M239.6,117.6l7-6.6"
   id="path167" />&#10;	<path
   class="st11"
   d="M243.6,121l5.9-4.1"
   id="path168" />&#10;	<path
   class="st11"
   d="M246,123.5l4.9-1.9"
   id="path169" />&#10;	<path
   class="st11"
   d="M247.5,126.2l6.3-2.5"
   id="path170" />&#10;	<path
   class="st11"
   d="M473.2,227.9v-2.1"
   id="path171" />&#10;	<path
   class="st11"
   d="M474.8,230.5l3.4-3.6"
   id="path172" />&#10;	<path
   class="st11"
   d="M478.8,233.1l3.8-5.2"
   id="path173" />&#10;	<path
   class="st11"
   d="M481.7,234l2.3-2.9"
   id="path174" />&#10;	<path
   class="st11"
   d="M482.9,237.3l5.5-7.3"
   id="path175" />&#10;	<path
   class="st11"
   d="M485.7,239.3l4.4-5.3"
   id="path176" />&#10;	<path
   class="st11"
   d="M487.9,241.3l7.2-9.8"
   id="path177" />&#10;	<path
   class="st11"
   d="M488.6,244.2l7.2-6.8"
   id="path178" />&#10;	<path
   class="st11"
   d="M491.5,246.5l9.2-9.2"
   id="path179" />&#10;	<path
   class="st11"
   d="M493.8,249.6l7-6.2"
   id="path180" />&#10;	<path
   class="st11"
   d="M495.5,252.5l13.7-13"
   id="path181" />&#10;	<path
   class="st11"
   d="M497.3,255l7.5-6.1"
   id="path182" />&#10;	<path
   class="st11"
   d="M497.8,257.4l21.6-15.5"
   id="path183" />&#10;	<path
   class="st11"
   d="M498.9,259.9l8.9-6.2"
   id="path184" />&#10;	<path
   class="st11"
   d="M497.3,263.9l29.8-15.4"
   id="path185" />&#10;	<path
   class="st11"
   d="M497.3,265.7l11.3-5"
   id="path186" />&#10;	<path
   class="st11"
   d="M496.7,269.3l32.4-13.1"
   id="path187" />&#10;	<path
   class="st11"
   d="M495.4,272l15-4.6"
   id="path188" />&#10;	<path
   class="st11"
   d="M491.5,276.4l34.1-10.3"
   id="path189" />&#10;	<path
   class="st11"
   d="M491.5,278.7l18.3-5"
   id="path190" />&#10;	<path
   class="st11"
   d="M487.9,281.8l34.9-6.7"
   id="path191" />&#10;	<path
   class="st11"
   d="M486.6,285.1l23.9-4.6"
   id="path192" />&#10;	<path
   class="st11"
   d="M482.9,288.5l36.4-5.7"
   id="path193" />&#10;	<path
   class="st11"
   d="M480.7,294.2l27.9-6"
   id="path194" />&#10;	<path
   class="st11"
   d="M480.7,297.3l38.8-8.8"
   id="path195" />&#10;	<path
   class="st11"
   d="M482.9,301.4l25.7-8.5"
   id="path196" />&#10;	<path
   class="st11"
   d="M484.8,303.8l34.2-10.9"
   id="path197" />&#10;	<path
   class="st11"
   d="M485.7,307.8l22.9-9.5"
   id="path198" />&#10;	<path
   class="st11"
   d="M487.9,311.8l31.5-12.4"
   id="path199" />&#10;	<path
   class="st11"
   d="M493.1,314.3l19.8-9.5"
   id="path200" />&#10;	<path
   class="st11"
   d="M497.1,316.5l25.8-11.6"
   id="path201" />&#10;	<path
   class="st11"
   d="M500.1,319l15.9-8.3"
   id="path202" />&#10;	<path
   class="st11"
   d="M503.6,321.3l21-11.5"
   id="path203" />&#10;	<path
   class="st11"
   d="M506.9,322.7l11.3-6.4"
   id="path204" />&#10;	<path
   class="st11"
   d="M510,325.3l17.9-11.1"
   id="path205" />&#10;	<path
   class="st11"
   d="M512.9,327.3l7.9-5.3"
   id="path206" />&#10;	<path
   class="st11"
   d="M516.8,329.5l13.8-11"
   id="path207" />&#10;	<path
   class="st11"
   d="M519.8,331.1l5-4.4"
   id="path208" />&#10;	<path
   class="st11"
   d="M522.3,332.9l12.3-11.1"
   id="path209" />&#10;	<path
   class="st11"
   d="M525.5,334.6l3-3.3"
   id="path210" />&#10;	<path
   class="st11"
   d="M527.7,336.5l8.3-8.5"
   id="path211" />&#10;	<path
   class="st11"
   d="M531.8,340l9.1-8.9"
   id="path212" />&#10;	<path
   class="st11"
   d="M535.8,342.2l8.2-7.7"
   id="path213" />&#10;	<path
   class="st11"
   d="M539.4,344.6l1.9-2.1"
   id="path214" />&#10;	<path
   class="st11"
   d="M542.4,346.6l6.4-7.1"
   id="path215" />&#10;	<path
   class="st11"
   d="M547.4,350.5l4.1-4.5"
   id="path216" />&#10;	<path
   class="st11"
   d="M550.8,354.5l4.6-4.7"
   id="path217" />&#10;	<path
   class="st11"
   d="M554.2,357.1l3.5-3.5"
   id="path218" />&#10;	<path
   class="st2"
   d="M162.5,225.4c19.2,2.5,9.3-0.8,25.1-2.7"
   id="path219" />&#10;	<path
   class="st2"
   d="M188.2,210.3c-15.8,3.2-8.6,2.4-32.4,3.6"
   id="path220" />&#10;	<path
   class="st2"
   d="M178.5,190.9c-0.1-0.2,3-6.3,3-6.3c9.3-10.5,7.7-8,7.7-13.5"
   id="path221" />&#10;	<path
   class="st2"
   d="M222.4,153.4c-12.7,10.7-8.1,7.9-20.3,12.6c-5.2,3.1-3.1,2.5-9.2,2.5c19.6-10.4,11.9-4.2,26.2-17.8"
   id="path222" />&#10;	<path
   class="st9"
   d="M211.8,131.8l-51.1,2.9"
   id="path223" />&#10;	<path
   class="st2"
   d="M199.9,334.4l-5.5,0.2"
   id="path224" />&#10;	<path
   class="st2"
   d="M202.8,331.3l-8.2-2.9"
   id="path225" />&#10;	<path
   class="st2"
   d="M204.5,326.7l-4.6,0.2"
   id="path226" />&#10;	<path
   class="st2"
   d="M206.8,324.2l-12-0.6"
   id="path227" />&#10;	<path
   class="st2"
   d="M209.4,319.9l-8.8-0.4"
   id="path228" />&#10;	<path
   class="st2"
   d="M212,318.3l-15.3-3"
   id="path229" />&#10;	<path
   class="st2"
   d="M213.2,315.6l-10.4-3.3"
   id="path230" />&#10;	<path
   class="st2"
   d="M214.9,314l-15.4-7.3"
   id="path231" />&#10;	<path
   class="st2"
   d="M216.3,313.1l-8.6-6.4"
   id="path232" />&#10;	<path
   class="st2"
   d="M218.1,311.6l-14.6-13"
   id="path233" />&#10;	<path
   class="st2"
   d="M220.2,309.4l-7.4-7.3"
   id="path234" />&#10;	<path
   class="st2"
   d="M222.8,307.6l-14.2-16.3"
   id="path235" />&#10;	<path
   class="st2"
   d="M227.2,304.5l-8-8.4"
   id="path236" />&#10;	<path
   class="st2"
   d="M213.2,284.7l17.1,17.8"
   id="path237" />&#10;	<path
   class="st2"
   d="M234.6,299.4l-8.6-9.3"
   id="path238" />&#10;	<path
   class="st2"
   d="M220.4,277.8l16.2,20.5"
   id="path239" />&#10;	<path
   class="st2"
   d="M238.8,297l-6.8-8.7"
   id="path240" />&#10;	<path
   class="st2"
   d="M227,274.2l12.9,22"
   id="path241" />&#10;	<path
   class="st2"
   d="M242.2,295.1l-5.6-10.4"
   id="path242" />&#10;	<path
   class="st2"
   d="M234.3,271.9l10.1,22.1"
   id="path243" />&#10;	<path
   class="st2"
   d="M246.8,293.3l-4.2-11.3"
   id="path244" />&#10;	<path
   class="st2"
   d="M244,269.5l4.5,22.7"
   id="path245" />&#10;	<path
   class="st2"
   d="M250.8,292.2l-1.7-13.5"
   id="path246" />&#10;	<path
   class="st2"
   d="M250.9,266.5l2.8,24.4"
   id="path247" />&#10;	<path
   class="st2"
   d="M256.2,289.9l-1.6-14.7"
   id="path248" />&#10;	<path
   class="st2"
   d="M254.8,265.4l4.4,23"
   id="path249" />&#10;	<path
   class="st2"
   d="M262.8,287.1l-3.5-15.6"
   id="path250" />&#10;	<path
   class="st2"
   d="M260.2,262.8l6.1,22.6"
   id="path251" />&#10;	<path
   class="st2"
   d="M264.7,269.2l6.4,14.2"
   id="path252" />&#10;	<path
   class="st2"
   d="M275.5,280.9l-10.6-20.7"
   id="path253" />&#10;	<path
   class="st2"
   d="M273,264.9l6.8,13.5"
   id="path254" />&#10;	<path
   class="st2"
   d="M284,276l-13.3-22.3"
   id="path255" />&#10;	<path
   class="st2"
   d="M279.3,259l7.9,13.9"
   id="path256" />&#10;	<path
   class="st2"
   d="M291.8,269.6l-16-23.3"
   id="path257" />&#10;	<path
   class="st2"
   d="M285.4,253.8l10.4,13.7"
   id="path258" />&#10;	<path
   class="st2"
   d="M298.6,265.1l-18.7-24.5"
   id="path259" />&#10;	<path
   class="st2"
   d="M291.7,250.6l10.4,12.2"
   id="path260" />&#10;	<path
   class="st2"
   d="M305,260.3l-21.2-24.9"
   id="path261" />&#10;	<path
   class="st2"
   d="M297.2,245.2l10.2,12.8"
   id="path262" />&#10;	<path
   class="st2"
   d="M309.3,256.7l-19.4-25.1"
   id="path263" />&#10;	<path
   class="st10"
   d="M334.4,226.4l-12.3,6.8l-27.3-34.4c-16.1,19.5-9.5,11.8-28.2,33.5l4,4c-13.8,11.3-22.3,26.7-37,34   c0,0,29-7,36-19c7-12,11.5-23.1,23.3-24.1l19,29.5c-1.9,1.7-1.9,1.3-5.4,4.2l8.9,4.6c-5.5,5.9-5.2,3-1.1,11.2   c9.8-7.4,21.4-16.4,29.4-24.4l9,5l8.2-12.8C338.9,230.7,349.4,235.1,334.4,226.4z"
   id="path264" />&#10;	<path
   class="st11"
   d="M334.8,418.5c0-2.5-5.4-2.5-5.4,0S334.8,420.9,334.8,418.5z"
   id="path265" />&#10;	<path
   class="st11"
   d="M339.9,418.5c0,1.6-4.3,1.6-4.3,0S339.9,416.9,339.9,418.5z"
   id="path266" />&#10;	<path
   class="st11"
   d="M336.3,422.1c0,2.2-4.8,2.2-4.8,0S336.3,419.9,336.3,422.1z"
   id="path267" />&#10;	<path
   class="st11"
   d="M339.9,425.9c0,2.8-5.6,2.8-5.6,0S339.9,423.1,339.9,425.9z"
   id="path268" />&#10;	<path
   class="st11"
   d="M339.9,421.1c0,2.2-3.3,2.2-3.3,0S339.9,418.9,339.9,421.1z"
   id="path269" />&#10;	<path
   class="st11"
   d="M344.2,419.5c0,2.3-4.8,2.3-4.8,0S344.2,417.2,344.2,419.5z"
   id="path270" />&#10;	<path
   class="st11"
   d="M344.3,423.7c0,2.9-4.4,2.9-4.4,0S344.3,420.8,344.3,423.7z"
   id="path271" />&#10;	<path
   class="st11"
   d="M342,428.1c0,1.6-2.4,1.6-2.4,0S342,426.5,342,428.1z"
   id="path272" />&#10;	<path
   class="st11"
   d="M340.6,431.1c0,3.7-5.6,3.7-5.6,0C334.9,427.4,340.6,427.4,340.6,431.1z"
   id="path273" />&#10;	<path
   class="st11"
   d="M340.8,435c0,1.9-2.9,1.9-2.9,0S340.8,433,340.8,435z"
   id="path274" />&#10;	<path
   class="st11"
   d="M457.7,506c0,2.6-3.9,2.6-3.9,0S457.7,503.4,457.7,506z"
   id="path275" />&#10;	<path
   class="st11"
   d="M459.6,511.9c0,2.6-3.9,2.6-3.9,0S459.6,509.3,459.6,511.9z"
   id="path276" />&#10;	<path
   class="st11"
   d="M457.7,516.4c0,4-3.9,4-3.9,0C453.8,512.5,457.7,512.5,457.7,516.4z"
   id="path277" />&#10;	<path
   class="st11"
   d="M454.1,513.7c0,5-5.9,5-5.9,0S454.1,508.7,454.1,513.7z"
   id="path278" />&#10;	<path
   class="st11"
   d="M453.3,506c0,4.6-5.9,4.6-5.9,0S453.3,501.4,453.3,506z"
   id="path279" />&#10;	<path
   class="st11"
   d="M447.4,503.4c0,4.1-3.9,4.1-3.9,0S447.4,499.3,447.4,503.4z"
   id="path280" />&#10;	<path
   class="st11"
   d="M446.3,497.8c0,2.2-4.5,2.2-4.5,0S446.3,495.6,446.3,497.8z"
   id="path281" />&#10;	<path
   class="st11"
   d="M449.8,499.1c0,3.3-3.1,3.3-3.1,0S449.8,495.8,449.8,499.1z"
   id="path282" />&#10;	<path
   class="st11"
   d="M455.2,501.2c0,2.3-5.4,2.3-5.4,0S455.2,498.8,455.2,501.2z"
   id="path283" />&#10;	<path
   class="st11"
   d="M455.5,509.5c0,1.7-2.6,1.7-2.6,0C452.8,507.7,455.5,507.7,455.5,509.5z"
   id="path284" />&#10;	<path
   class="st11"
   d="M143.3,114.3c0-3.3-8-3.3-8,0S143.3,117.6,143.3,114.3z"
   id="path285" />&#10;	<path
   class="st11"
   d="M132.9,115.8c0,2.3-7,2.3-7,0S132.9,113.5,132.9,115.8z"
   id="path286" />&#10;	<path
   class="st11"
   d="M128.6,119.4c0.4-2.3-5.8-3.5-6.2-1.2S128.2,121.8,128.6,119.4z"
   id="path287" />&#10;	<path
   class="st11"
   d="M124.2,121.8c-0.3,1.4-5.9,0-5.6-1.4S124.6,120.4,124.2,121.8z"
   id="path288" />&#10;	<path
   class="st11"
   d="M119.5,122.6c0,2.6-5.7,2.6-5.7,0S119.5,120,119.5,122.6z"
   id="path289" />&#10;	<path
   class="st11"
   d="M128.8,112.8c0,1.7-5,1.7-5,0C123.7,111.1,128.8,111.1,128.8,112.8z"
   id="path290" />&#10;	<path
   class="st11"
   d="M123.3,114.3c0,2-4.5,2-4.5,0S123.3,112.4,123.3,114.3z"
   id="path291" />&#10;	<path
   class="st11"
   d="M135.3,112.9c0,1.5-5.1,1.5-5.1,0S135.3,111.4,135.3,112.9z"
   id="path292" />&#10;	<path
   class="st11"
   d="M122.1,117.8c0-1.8-3.5-1.8-3.5,0S122.1,119.6,122.1,117.8z"
   id="path293" />&#10;	<path
   class="st11"
   d="M133.7,116.1c-1-1.6,0.5-2.6,1.6-1C136.3,116.7,134.7,117.7,133.7,116.1z"
   id="path294" />&#10;	<path
   class="st11"
   d="M115.6,125.4c0-1.1-6.1-1.1-6.1,0S115.6,126.5,115.6,125.4z"
   id="path295" />&#10;	<path
   class="st11"
   d="M125.6,115.6c0-1.7-2.5-1.7-2.5,0C123.1,117.2,125.6,117.2,125.6,115.6z"
   id="path296" />&#10;	<path
   class="st11"
   d="M199.5,390.3c0,2-2.3,2-2.3,0C197.1,388.3,199.5,388.3,199.5,390.3z"
   id="path297" />&#10;	<path
   class="st11"
   d="M200.8,386.9c0,2.4-2,2.4-2,0S200.8,384.5,200.8,386.9z"
   id="path298" />&#10;	<path
   class="st11"
   d="M196.7,388.8c0,2.5-3,2.5-3,0S196.7,386.3,196.7,388.8z"
   id="path299" />&#10;	<path
   class="st11"
   d="M197.8,385c0,2.2-2,2.2-2,0S197.8,382.8,197.8,385z"
   id="path300" />&#10;	<path
   class="st11"
   d="M202.7,383.8c0,1.1-2.9,1.1-2.9,0S202.7,382.7,202.7,383.8z"
   id="path301" />&#10;	<path
   class="st11"
   d="M195.2,385.6c0,1.4-2.8,1.4-2.8,0C192.4,384.3,195.2,384.3,195.2,385.6z"
   id="path302" />&#10;	<path
   class="st11"
   d="M193.7,388c0,1.8-3.7,1.8-3.7,0S193.7,386.2,193.7,388z"
   id="path303" />&#10;	<path
   class="st11"
   d="M190,386.8c0,1.6-3.2,1.6-3.2,0S190,385.3,190,386.8z"
   id="path304" />&#10;	<path
   class="st11"
   d="M192,385.6c0,1.3-2,1.3-2,0S192,384.3,192,385.6z"
   id="path305" />&#10;	<path
   class="st11"
   d="M189,384.2c0,1.6-2.5,1.6-2.5,0C186.5,382.5,189,382.5,189,384.2z"
   id="path306" />&#10;	<path
   class="st11"
   d="M128,395.9c0,2.4-6.5,2.4-6.5,0S128,393.5,128,395.9z"
   id="path307" />&#10;	<path
   class="st11"
   d="M128.8,392.8c0,1.7-3.2,1.7-3.2,0S128.8,391.2,128.8,392.8z"
   id="path308" />&#10;	<path
   class="st11"
   d="M128.2,388.7c0,3.1-3.2,3.1-3.2,0S128.2,385.6,128.2,388.7z"
   id="path309" />&#10;	<path
   class="st11"
   d="M170,399.1c0,1.4-3,1.4-3,0C167.1,397.8,170,397.8,170,399.1z"
   id="path310" />&#10;	<path
   class="st11"
   d="M170.8,396.1c0,1.7-3,1.7-3,0S170.8,394.3,170.8,396.1z"
   id="path311" />&#10;	<path
   class="st11"
   d="M166.7,397.5c0,2.1-3.2,2.1-3.2,0S166.7,395.4,166.7,397.5z"
   id="path312" />&#10;	<path
   class="st11"
   d="M167.1,394.5c0,1.6-2.6,1.6-2.6,0C164.4,392.9,167.1,392.9,167.1,394.5z"
   id="path313" />&#10;	<path
   class="st11"
   d="M163.7,395.9c0,1.8-3.9,1.8-3.9,0S163.7,394.1,163.7,395.9z"
   id="path314" />&#10;	<path
   class="st11"
   d="M164.4,393.4c0,1.5-3.7,1.5-3.7,0C160.8,391.8,164.4,391.8,164.4,393.4z"
   id="path315" />&#10;	<path
   class="st11"
   d="M159.8,394.6c0,1.6-3.2,1.6-3.2,0S159.8,393,159.8,394.6z"
   id="path316" />&#10;	<path
   class="st11"
   d="M160.8,392.2c0,1.6-2.9,1.6-2.9,0C157.8,390.6,160.8,390.6,160.8,392.2z"
   id="path317" />&#10;	<path
   class="st11"
   d="M156.6,393.1c0,2-3.4,2-3.4,0S156.6,391.1,156.6,393.1z"
   id="path318" />&#10;	<path
   class="st11"
   d="M157.4,390.7c0,1.8-3.2,1.8-3.2,0S157.4,388.9,157.4,390.7z"
   id="path319" />&#10;	<path
   class="st11"
   d="M154.1,389.6c0,2-3,2-3,0C151.1,387.7,154.1,387.7,154.1,389.6z"
   id="path320" />&#10;	<path
   class="st11"
   d="M153.2,392.1c0-1-2.2-1-2.2,0S153.2,393.1,153.2,392.1z"
   id="path321" />&#10;	<path
   class="st11"
   d="M151,390.8c0,1.4-3.6,1.4-3.6,0S151,389.4,151,390.8z"
   id="path322" />&#10;	<path
   class="st11"
   d="M147.4,388.6c0,2.3-2.5,2.3-2.5,0S147.4,386.4,147.4,388.6z"
   id="path323" />&#10;	<path
   class="st11"
   d="M150.7,388.2c0,1.6-2.5,1.6-2.5,0C148.2,386.5,150.7,386.5,150.7,388.2z"
   id="path324" />&#10;	<path
   class="st11"
   d="M152.9,386.5c0,2-2.2,2-2.2,0S152.9,384.5,152.9,386.5z"
   id="path325" />&#10;	<path
   class="st11"
   d="M150.6,385c0,1.7-3.7,1.7-3.7,0C146.9,383.4,150.6,383.4,150.6,385z"
   id="path326" />&#10;	<path
   class="st11"
   d="M151.3,382.4c0,1.6-3.9,1.6-3.9,0S151.3,380.8,151.3,382.4z"
   id="path327" />&#10;	<path
   class="st11"
   d="M150.5,379.5c0,1.6-3.6,1.6-3.6,0S150.5,377.9,150.5,379.5z"
   id="path328" />&#10;	<path
   class="st11"
   d="M150.2,377.1c0,1-4,1-4,0S150.2,376.1,150.2,377.1z"
   id="path329" />&#10;	<path
   class="st11"
   d="M150.2,375.1c0,1.7-5.7,1.7-5.7,0S150.2,373.4,150.2,375.1z"
   id="path330" />&#10;	<path
   class="st11"
   d="M149.5,372.7c0,1.1-4.5,1.1-4.5,0C144.9,371.6,149.5,371.6,149.5,372.7z"
   id="path331" />&#10;	<path
   class="st11"
   d="M148.9,369.8c0,2.2-5.5,2.2-5.5,0S148.9,367.5,148.9,369.8z"
   id="path332" />&#10;	<path
   class="st11"
   d="M145.2,366.6c0,2.1-2.6,2.1-2.6,0S145.2,364.5,145.2,366.6z"
   id="path333" />&#10;	<path
   class="st11"
   d="M147.8,365.9c0,2.6-2,2.6-2,0S147.8,363.3,147.8,365.9z"
   id="path334" />&#10;	<path
   class="st11"
   d="M146.2,363.1c0,1.8-4.3,1.8-4.3,0S146.2,361.3,146.2,363.1z"
   id="path335" />&#10;	<path
   class="st11"
   d="M146.3,360c0,2-3.4,2-3.4,0S146.3,358,146.3,360z"
   id="path336" />&#10;	<path
   class="st11"
   d="M142.8,359.1c0,2.7-3.2,2.7-3.2,0S142.8,356.3,142.8,359.1z"
   id="path337" />&#10;	<path
   class="st11"
   d="M145.8,356.4c0,2.1-4,2.1-4,0C141.8,354.4,145.8,354.4,145.8,356.4z"
   id="path338" />&#10;	<path
   class="st11"
   d="M142,354.4c0,2-2,2-2,0S142,352.4,142,354.4z"
   id="path339" />&#10;	<path
   class="st11"
   d="M144.6,353.1c0,2.3-2.7,2.3-2.7,0C142,350.7,144.6,350.7,144.6,353.1z"
   id="path340" />&#10;	<path
   class="st11"
   d="M142.3,351c0,2.5-2.3,2.5-2.3,0S142.3,348.5,142.3,351z"
   id="path341" />&#10;	<path
   class="st11"
   d="M144,349.1c0,2.9-2,2.9-2,0S144,346.2,144,349.1z"
   id="path342" />&#10;	<path
   class="st11"
   d="M142,347.1c0,1.9-2.8,1.9-2.8,0C139.1,345.2,142,345.2,142,347.1z"
   id="path343" />&#10;	<path
   class="st11"
   d="M155.1,443l-16.5,44.9"
   id="path344" />&#10;	<path
   class="st11"
   d="M159.8,444.9l-7.5,18.9"
   id="path345" />&#10;	<path
   class="st11"
   d="M166.4,447.6l-19.5,41.7"
   id="path346" />&#10;	<path
   class="st11"
   d="M170.5,449.8l-9.2,16.7"
   id="path347" />&#10;	<path
   class="st11"
   d="M178,451.8l-26.2,41.3"
   id="path348" />&#10;	<path
   class="st11"
   d="M181.8,453.7L170.1,471"
   id="path349" />&#10;	<path
   class="st11"
   d="M159.5,496l26.1-41.7"
   id="path350" />&#10;	<path
   class="st11"
   d="M188.7,458.1l-10.3,17.2"
   id="path351" />&#10;	<path
   class="st11"
   d="M172.6,499.9l22.3-41.8"
   id="path352" />&#10;	<path
   class="st11"
   d="M180.4,501.7l20.4-38.7"
   id="path353" />&#10;	<path
   class="st11"
   d="M197.8,460.7l-9.6,16.9"
   id="path354" />&#10;	<path
   class="st11"
   d="M198.6,480.7l7-15.6"
   id="path355" />&#10;	<path
   class="st11"
   d="M209.7,466.7l-20.6,40.7"
   id="path356" />&#10;	<path
   class="st11"
   d="M205.6,485.3l8.1-14.2"
   id="path357" />&#10;	<path
   class="st11"
   d="M196.2,507.6L218,472"
   id="path358" />&#10;	<path
   class="st11"
   d="M222.8,473.7l-9.2,14.5"
   id="path359" />&#10;	<path
   class="st11"
   d="M204.8,510.5l20.1-35.2"
   id="path360" />&#10;	<path
   class="st11"
   d="M227.3,476l-6,13.1"
   id="path361" />&#10;	<path
   class="st11"
   d="M231.1,477.7l-18.4,43"
   id="path362" />&#10;	<path
   class="st11"
   d="M235.5,479.6l-14,35.7"
   id="path363" />&#10;	<path
   class="st11"
   d="M233.3,479l-4.8,10.8"
   id="path364" />&#10;	<path
   class="st11"
   d="M238.2,479.9l-4.9,14.2"
   id="path365" />&#10;	<path
   class="st11"
   d="M231.5,515.4l9.8-33.8"
   id="path366" />&#10;	<path
   class="st11"
   d="M241.5,496.4l2.8-12.9"
   id="path367" />&#10;	<path
   class="st11"
   d="M248.6,484.4l-5.7,25.7"
   id="path368" />&#10;	<path
   class="st11"
   d="M249.1,499.8l3.6-13.1"
   id="path369" />&#10;	<path
   class="st11"
   d="M256.6,487.6l-6.4,23.9"
   id="path370" />&#10;	<path
   class="st11"
   d="M256.8,501.6l3.5-12.5"
   id="path371" />&#10;	<path
   class="st11"
   d="M263.5,489.8l-4.2,20"
   id="path372" />&#10;	<path
   class="st11"
   d="M264.2,503.6l2.4-12.1"
   id="path373" />&#10;	<path
   class="st11"
   d="M270,492.9l-2.7,16.9"
   id="path374" />&#10;	<path
   class="st11"
   d="M274.1,493.3l-1.4,11.9"
   id="path375" />&#10;	<path
   class="st11"
   d="M277.3,494.6l-0.9,12"
   id="path376" />&#10;	<path
   class="st11"
   d="M281.1,495.3l-0.5,8.9"
   id="path377" />&#10;	<path
   class="st11"
   d="M287.4,497.6v5.9"
   id="path378" />&#10;	<path
   class="st11"
   d="M151.5,442.1l-5.8,13.2"
   id="path379" />&#10;	<path
   class="st11"
   d="M148.6,441.1l-22.9,44.5"
   id="path380" />&#10;	<path
   class="st11"
   d="M144.2,439.6l-8.5,15.8"
   id="path381" />&#10;	<path
   class="st11"
   d="M139.9,439l-20.6,40"
   id="path382" />&#10;	<path
   class="st11"
   d="M134.6,437.3l-8.2,18.1"
   id="path383" />&#10;	<path
   class="st11"
   d="M130.5,436.4l-19.1,44.3"
   id="path384" />&#10;	<path
   class="st11"
   d="M127.2,436.4l-8.4,16.1"
   id="path385" />&#10;	<path
   class="st11"
   d="M123,435.4l-20.4,37.9"
   id="path386" />&#10;	<path
   class="st11"
   d="M119.9,434.5l-10.7,15.3"
   id="path387" />&#10;	<path
   class="st11"
   d="M116.7,433.3l-26.5,35.8"
   id="path388" />&#10;	<path
   class="st11"
   d="M112.8,433.7l-12,14.6"
   id="path389" />&#10;	<path
   class="st11"
   d="M109.3,432.9L82,462.3"
   id="path390" />&#10;	<path
   class="st11"
   d="M106,429.7l-40.4,28.8"
   id="path391" />&#10;	<path
   class="st11"
   d="M87.3,448.3l13.6-13.7"
   id="path392" />&#10;	<path
   class="st11"
   d="M107.9,424.3l-23,14.8"
   id="path393" />&#10;	<path
   class="st11"
   d="M64.8,444.1l44.7-23.6"
   id="path394" />&#10;	<path
   class="st11"
   d="M107.9,416.8L82,430.1"
   id="path395" />&#10;	<path
   class="st11"
   d="M61.7,436.2l47.9-22.9"
   id="path396" />&#10;	<path
   class="st11"
   d="M110.1,410.1l-30.4,10.7"
   id="path397" />&#10;	<path
   class="st11"
   d="M62,425.8l47.8-19.2"
   id="path398" />&#10;	<path
   class="st11"
   d="M109.2,403.3l-28,8.7"
   id="path399" />&#10;	<path
   class="st11"
   d="M60.9,415.4l49.5-16.3"
   id="path400" />&#10;	<path
   class="st11"
   d="M109.8,395.6l-26.5,5.2"
   id="path401" />&#10;	<path
   class="st11"
   d="M110.8,388.8l-53,17.2"
   id="path402" />&#10;	<path
   class="st11"
   d="M108.4,385L82,392.2"
   id="path403" />&#10;	<path
   class="st11"
   d="M57.3,397.3l51.1-17.3"
   id="path404" />&#10;	<path
   class="st11"
   d="M107.5,376.3l-26.3,7.3"
   id="path405" />&#10;	<path
   class="st11"
   d="M54.2,386.9l51.4-15.5"
   id="path406" />&#10;	<path
   class="st11"
   d="M105.8,367.8l-28,7.3"
   id="path407" />&#10;	<path
   class="st11"
   d="M105.1,362.5l-49.7,15.4"
   id="path408" />&#10;	<path
   class="st11"
   d="M103.5,358.5l-26.2,9.3"
   id="path409" />&#10;	<path
   class="st11"
   d="M55.3,370.2l48.2-15.3"
   id="path410" />&#10;	<path
   class="st11"
   d="M102.5,350.5l-28.7,8.6"
   id="path411" />&#10;	<path
   class="st11"
   d="M53.7,361.1L102,348"
   id="path412" />&#10;	<path
   class="st11"
   d="M102.6,343.8l-35.1,7.5"
   id="path413" />&#10;	<path
   class="st11"
   d="M53.5,350l49-9.6"
   id="path414" />&#10;	<path
   class="st11"
   d="M103,336.4l-31.1,4.3"
   id="path415" />&#10;	<path
   class="st11"
   d="M52.9,340.2l49.9-9.1"
   id="path416" />&#10;	<path
   class="st11"
   d="M102.2,328.3l-32.5,4.2"
   id="path417" />&#10;	<path
   class="st11"
   d="M53.2,330.4l48-6.5"
   id="path418" />&#10;	<path
   class="st11"
   d="M102.8,319.4l-32.7,3.9"
   id="path419" />&#10;	<path
   class="st11"
   d="M51.1,319.8l50.9-4.5"
   id="path420" />&#10;	<path
   class="st11"
   d="M101.2,309.7l-33,3.5"
   id="path421" />&#10;	<path
   class="st11"
   d="M52.8,311.4l49-6.1"
   id="path422" />&#10;	<path
   class="st11"
   d="M98.2,298l-29.9,7.3"
   id="path423" />&#10;	<path
   class="st11"
   d="M53.6,304.2l43-10.6"
   id="path424" />&#10;	<path
   class="st11"
   d="M96.7,289.7L64,297.8"
   id="path425" />&#10;	<path
   class="st11"
   d="M50.9,295.6l45.4-7.8"
   id="path426" />&#10;	<path
   class="st11"
   d="M95.8,284.3l-28.3,3.1"
   id="path427" />&#10;	<path
   class="st11"
   d="M50.5,284.9l44-4"
   id="path428" />&#10;	<path
   class="st11"
   d="M93.6,277.5l-31,4.5"
   id="path429" />&#10;	<path
   class="st11"
   d="M48.9,279.7l39.9-7.2"
   id="path430" />&#10;	<path
   class="st11"
   d="M84.7,267.5L58,275"
   id="path431" />&#10;	<path
   class="st11"
   d="M47.5,274.6l32.9-9.9"
   id="path432" />&#10;	<path
   class="st11"
   d="M77.3,258.9L59.4,267"
   id="path433" />&#10;	<path
   class="st11"
   d="M42,269.6l31.6-12.9"
   id="path434" />&#10;	<path
   class="st11"
   d="M71.9,252.4l-17.3,8.4"
   id="path435" />&#10;	<path
   class="st11"
   d="M68.3,249.8l-30.2,14.7"
   id="path436" />&#10;	<path
   class="st11"
   d="M35.5,258.9L61.7,243"
   id="path437" />&#10;	<path
   class="st11"
   d="M49.6,254l15.5-8"
   id="path438" />&#10;	<path
   class="st11"
   d="M59.4,240.3L48,246.7"
   id="path439" />&#10;	<path
   class="st11"
   d="M57.3,238.5l-28.1,12.4"
   id="path440" />&#10;	<path
   class="st11"
   d="M42.1,240.3l18.1-7.2"
   id="path441" />&#10;	<path
   class="st11"
   d="M57.3,230.3l-32.5,13.2"
   id="path442" />&#10;	<path
   class="st11"
   d="M41.1,232.2l15.6-7.1"
   id="path443" />&#10;	<path
   class="st11"
   d="M54.9,222.1l-30.7,14.8"
   id="path444" />&#10;	<path
   class="st11"
   d="M41.6,223.4l12.1-6.1"
   id="path445" />&#10;	<path
   class="st11"
   d="M52.7,213.2l-28.3,14.2"
   id="path446" />&#10;	<path
   class="st11"
   d="M38,216.7l13.3-6.9"
   id="path447" />&#10;	<path
   class="st11"
   d="M48.9,206.1L27,215.8"
   id="path448" />&#10;	<path
   class="st11"
   d="M48.6,201.3L34.9,208"
   id="path449" />&#10;	<path
   class="st11"
   d="M46.4,198.8l-20.7,8.6"
   id="path450" />&#10;	<path
   class="st11"
   d="M32.2,200.5l13.4-5.2"
   id="path451" />&#10;	<path
   class="st11"
   d="M44.6,191.9l-19.7,6.9"
   id="path452" />&#10;	<path
   class="st11"
   d="M43.7,188.2L21.6,190"
   id="path453" />&#10;	<path
   class="st11"
   d="M43.7,189.8l-14.8,3"
   id="path454" />&#10;	<path
   class="st11"
   d="M43.3,186.3l-18.1,1.1"
   id="path455" />&#10;	<path
   class="st11"
   d="M41.8,184.5l-23.3-2.3"
   id="path456" />&#10;	<path
   class="st11"
   d="M42.6,182.6l-13.1-3"
   id="path457" />&#10;	<path
   class="st11"
   d="M44.6,181.1l-24.2-7.7"
   id="path458" />&#10;	<path
   class="st11"
   d="M46.4,178.2l-23.6-12.6"
   id="path459" />&#10;	<path
   class="st11"
   d="M47.6,175.1l-14.4-8"
   id="path460" />&#10;	<path
   class="st11"
   d="M50.6,173.1l-25.9-14.5"
   id="path461" />&#10;	<path
   class="st11"
   d="M52.6,170.5l-16.3-9.4"
   id="path462" />&#10;	<path
   class="st11"
   d="M55.5,168.7l-33.8-19.5"
   id="path463" />&#10;	<path
   class="st11"
   d="M57.8,165.8l-16.7-9.4"
   id="path464" />&#10;	<path
   class="st11"
   d="M30.1,145.3l32.5,18.4"
   id="path465" />&#10;	<path
   class="st11"
   d="M66.2,160.4l-21.6-11.6"
   id="path466" />&#10;	<path
   class="st11"
   d="M68.9,156.3L29.5,138"
   id="path467" />&#10;	<path
   class="st11"
   d="M69.2,150.7l-22.8-9.5"
   id="path468" />&#10;	<path
   class="st11"
   d="M69.2,146l-40.3-14.9"
   id="path469" />&#10;	<path
   class="st11"
   d="M68.2,141.3l-21.8-8.6"
   id="path470" />&#10;	<path
   class="st11"
   d="M69.3,137.6l-40.9-17.2"
   id="path471" />&#10;	<path
   class="st11"
   d="M45.6,122.6L68,134.9"
   id="path472" />&#10;	<path
   class="st11"
   d="M69.6,132.4l-41.7-28.1"
   id="path473" />&#10;	<path
   class="st11"
   d="M50.1,114.3l20.1,16.6"
   id="path474" />&#10;	<path
   class="st11"
   d="M71.4,128.7l-37-31.6"
   id="path475" />&#10;	<path
   class="st11"
   d="M57.3,111.8l15.6,14.5"
   id="path476" />&#10;	<path
   class="st11"
   d="M74.8,124L45.6,95.8"
   id="path477" />&#10;	<path
   class="st11"
   d="M61.8,106.3L77,122"
   id="path478" />&#10;	<path
   class="st11"
   d="M80.2,120.6L52.9,90"
   id="path479" />&#10;	<path
   class="st11"
   d="M71.4,103.1l11.2,14.5"
   id="path480" />&#10;	<path
   class="st11"
   d="M84.6,115.8l-22.2-30"
   id="path481" />&#10;	<path
   class="st11"
   d="M78.9,99.8l8.8,14.3"
   id="path482" />&#10;	<path
   class="st11"
   d="M90.2,111.8L73.5,83.9"
   id="path483" />&#10;	<path
   class="st11"
   d="M85.2,97.4l7.6,11.7"
   id="path484" />&#10;	<path
   class="st11"
   d="M95.1,106.9l-13-20.3"
   id="path485" />&#10;	<path
   class="st11"
   d="M90.5,92.3l7.6,11.7"
   id="path486" />&#10;	<path
   class="st11"
   d="M100.4,101.6L89.1,82"
   id="path487" />&#10;	<path
   class="st11"
   d="M98.2,90.3l5,9.2"
   id="path488" />&#10;	<path
   class="st11"
   d="M105.6,96.8l-9.9-18.7"
   id="path489" />&#10;	<path
   class="st11"
   d="M103.2,84.7l6.3,10.2"
   id="path490" />&#10;	<path
   class="st11"
   d="M111.5,93.1l-8.3-15"
   id="path491" />&#10;	<path
   class="st11"
   d="M115.6,90l-5-7.7"
   id="path492" />&#10;	<path
   class="st11"
   d="M109.5,75.5l9.3,13.2"
   id="path493" />&#10;	<path
   class="st11"
   d="M121.4,86.2l-5.8-7.3"
   id="path494" />&#10;	<path
   class="st11"
   d="M114.8,72.4l9.1,12"
   id="path495" />&#10;	<path
   class="st11"
   d="M126.2,83.1l-4.8-6.6"
   id="path496" />&#10;	<path
   class="st11"
   d="M121.4,71.4l7.4,9.9"
   id="path497" />&#10;	<path
   class="st11"
   d="M132,79.8l-3.8-5.5"
   id="path498" />&#10;	<path
   class="st11"
   d="M129.5,69.3l5,9"
   id="path499" />&#10;	<path
   class="st11"
   d="M137.8,76.3l-3.3-5.4"
   id="path500" />&#10;	<path
   class="st11"
   d="M136.2,67.9l3.1,6.8"
   id="path501" />&#10;	<path
   class="st11"
   d="M141.2,73.6l-1.3-9.2"
   id="path502" />&#10;</g>&#10;<text
   transform="matrix(1 0 0 1 666.7523 552.3044)"
   class="st12 st13"
   id="text502">0</text>&#10;<text
   transform="matrix(1 0 0 1 696.1992 552.3054)"
   class="st12 st14"
   id="text503">2</text>&#10;<text
   transform="matrix(1 0 0 1 725.491 552.3054)"
   class="st12 st14"
   id="text504">4</text>&#10;<text
   transform="matrix(1 0 0 1 754.9022 552.3054)"
   class="st12 st14"
   id="text505">6</text>&#10;<text
   transform="matrix(1 0 0 1 784.3779 552.3054)"
   class="st12 st14"
   id="text506">8</text>&#10;<text
   transform="matrix(1 0 0 1 809.1879 552.3054)"
   class="st12 st14"
   id="text507">10</text>&#10;<path
   d="M770.4,93c1.8,48.5,0.8,50.5-1.1,0.1l-6.5,0.4c7-79.3,4.6-81.1,7.5-1.5c4.6-0.3,3.8-0.6,3.9,0.8L770.4,93z"
   id="path507" />&#10;<path
   d="M773.5,76.4c3.6-0.1,1.8-1.4,9.1,11.3l-0.4-11.6L784,76l0.5,13.9L782,90c-8.3-14.4-6.7-15.3-6.2,0.2l-1.8,0.1L773.5,76.4z"
   id="path508" />&#10;<path
   d="M818,555.5v4h-28.6c0-4.8,0.3-4-0.9-4v7.7h-28.4c0-8.9,0.4-7.7-0.9-7.7v4h-28.6c0-4.8,0.3-4-0.9-4v7.7h-28.4  c0-8.9,0.4-7.7-0.9-7.7v4h-28.6c0-4.8,0.3-4-0.9-4c0,16.4-0.5,16.4,0.9,16.4v-7.7h28.6c0,8.9-0.4,7.7,0.9,7.7v-4h28.4  c0,4.8-0.3,4,1,4v-7.7h28.5c0,8.9-0.4,7.7,0.9,7.7v-4h28.4c0,4.8-0.3,4,1,4v-7.7H818c0,8.9-0.4,7.7,0.9,7.7  C818.9,555.5,819.4,555.5,818,555.5z"
   id="path509" />&#10;<path
   d="M684.2,388.2c-38.7,62-35.8,56.3-38.2,54C476.9,306.9,521.8,337.7,449,298.9c12.2-13.4,4.7-5.9,41.1-40.2  c-3.3-4-3.9-7.9-2.2-11.8c0.7-1.7,0.7-0.9-17.1-14.5c-11.5,2.8-9.3,1.7-13.7,6.6c-1.6,1.8-3.8-0.6,16.3,13.6l-34.8,39.8  c-11.6-7.2-0.6-0.2-57.1-36.4c-2.8,2.4-10.2,8.6-12.1,9.8c-7.1-2.7-8.6-7-9.8,5.9c162.2,97.2,101.1,53.7,265,184.9  c1.5,1.2,0.1,2.1,7.5-6.5c4.8,1.4,3.3,1.5,13.1-7.1c6.6,6.3-6.9,1.4-77.6,63.4c-51-3.4-28.3-2.3-101.7-4.5  c1.2-14.4,2.9-15.2,2.5-15.4c6.3-27.7,4.4-18.8,8.8-41.2l-14.2-6.4l-12.6,59.6l9.3,4.9l0.4,19.1h-2.5c0.3,4.1-1.1,3,10.5,3.7l12.1,2  l3.3-18.4l6.6,18.4l57.7,2.8c0-14.2,50.2,6.8,87.4-55c9.6-15.9,16.7-24.4,57.9-83.6C686.4,391.2,688.4,392.2,684.2,388.2z   M392.1,288.3c-5.3-3.1,2.4-8.1,11.7-16.8l12.7,8.1C401.4,297.6,406.1,296.5,392.1,288.3z M433.4,298.4L419,290l5-5.6l14,8.7  L433.4,298.4z M472.8,462.7l-5.2,23l-8.9-5.6l4.3-18.8C470.5,461.6,469.4,461.2,472.8,462.7z M459,461.2c4.7,0.2,4.4-3.6-0.7,18.7  C454.2,477.3,455,479.7,459,461.2z"
   id="path510" />&#10;</svg>
