<?xml version="1.0" encoding="UTF-8" standalone="no"?>
<!-- Created with Inkscape (http://www.inkscape.org/) -->

<svg
   width="142.76373mm"
   height="158.49507mm"
   viewBox="0 0 142.76373 158.49507"
   version="1.1"
   id="svg6070"
   inkscape:version="1.2.2 (732a01da63, 2022-12-09)"
   sodipodi:docname="DEU_Winsen_(Holstein)_COA.svg"
   xmlns:inkscape="http://www.inkscape.org/namespaces/inkscape"
   xmlns:sodipodi="http://sodipodi.sourceforge.net/DTD/sodipodi-0.dtd"
   xmlns="http://www.w3.org/2000/svg"
   xmlns:svg="http://www.w3.org/2000/svg">
  <sodipodi:namedview
     id="namedview6072"
     pagecolor="#ffffff"
     bordercolor="#666666"
     borderopacity="1.0"
     inkscape:showpageshadow="2"
     inkscape:pageopacity="0.0"
     inkscape:pagecheckerboard="0"
     inkscape:deskcolor="#d1d1d1"
     inkscape:document-units="mm"
     showgrid="false"
     inkscape:zoom="1.263696"
     inkscape:cx="430.87895"
     inkscape:cy="300.30957"
     inkscape:current-layer="layer1" />
  <defs
     id="defs6067">
    <inkscape:path-effect
       effect="powerstroke"
       id="path-effect2285"
       is_visible="true"
       lpeversion="1"
       offset_points="0.21052624,0.24568295 | 1.0067106,0.45443294 | 1.8487432,0.12886443"
       not_jump="false"
       sort_points="true"
       interpolator_type="CentripetalCatmullRom"
       interpolator_beta="0.2"
       start_linecap_type="zerowidth"
       linejoin_type="round"
       miter_limit="4"
       scale_width="1"
       end_linecap_type="zerowidth" />
    <inkscape:path-effect
       effect="powerstroke"
       id="path-effect2291"
       is_visible="true"
       lpeversion="1"
       offset_points="0.21052624,0.24568295 | 1.0067106,0.45443294 | 1.8487432,0.12886443"
       not_jump="false"
       sort_points="true"
       interpolator_type="CentripetalCatmullRom"
       interpolator_beta="0.2"
       start_linecap_type="zerowidth"
       linejoin_type="round"
       miter_limit="4"
       scale_width="1"
       end_linecap_type="zerowidth" />
    <inkscape:path-effect
       effect="powerstroke"
       id="path-effect2297"
       is_visible="true"
       lpeversion="1"
       offset_points="0.21052624,0.24568295 | 1.0067106,0.45443294 | 1.8487432,0.12886443"
       not_jump="false"
       sort_points="true"
       interpolator_type="CentripetalCatmullRom"
       interpolator_beta="0.2"
       start_linecap_type="zerowidth"
       linejoin_type="round"
       miter_limit="4"
       scale_width="1"
       end_linecap_type="zerowidth" />
    <inkscape:path-effect
       effect="powerstroke"
       id="path-effect2303"
       is_visible="true"
       lpeversion="1"
       offset_points="0.21052624,0.24568295 | 1.0067106,0.45443294 | 1.8368971,0.23261532"
       not_jump="false"
       sort_points="true"
       interpolator_type="CentripetalCatmullRom"
       interpolator_beta="0.2"
       start_linecap_type="zerowidth"
       linejoin_type="round"
       miter_limit="4"
       scale_width="1"
       end_linecap_type="zerowidth" />
    <inkscape:path-effect
       effect="powerstroke"
       id="path-effect2309"
       is_visible="true"
       lpeversion="1"
       offset_points="0.21052624,0.24568295 | 1.0067106,0.45443294 | 1.8368971,0.23261532"
       not_jump="false"
       sort_points="true"
       interpolator_type="CentripetalCatmullRom"
       interpolator_beta="0.2"
       start_linecap_type="zerowidth"
       linejoin_type="round"
       miter_limit="4"
       scale_width="1"
       end_linecap_type="zerowidth" />
    <inkscape:path-effect
       effect="powerstroke"
       id="path-effect2359"
       is_visible="true"
       lpeversion="1"
       offset_points="0.21052624,0.24568295 | 1.0067106,0.45443294 | 1.8351354,0.29509547"
       not_jump="false"
       sort_points="true"
       interpolator_type="CentripetalCatmullRom"
       interpolator_beta="0.2"
       start_linecap_type="zerowidth"
       linejoin_type="round"
       miter_limit="4"
       scale_width="1"
       end_linecap_type="zerowidth" />
    <inkscape:path-effect
       effect="powerstroke"
       id="path-effect2365"
       is_visible="true"
       lpeversion="1"
       offset_points="0.21052624,0.24568295 | 1.0067106,0.45443294 | 1.84319,0.21627656"
       not_jump="false"
       sort_points="true"
       interpolator_type="CentripetalCatmullRom"
       interpolator_beta="0.2"
       start_linecap_type="zerowidth"
       linejoin_type="round"
       miter_limit="4"
       scale_width="1"
       end_linecap_type="zerowidth" />
    <inkscape:path-effect
       effect="powerstroke"
       id="path-effect2371"
       is_visible="true"
       lpeversion="1"
       offset_points="0.21052624,0.24568295 | 1.0067106,0.45443294 | 1.8368971,0.23261532"
       not_jump="false"
       sort_points="true"
       interpolator_type="CentripetalCatmullRom"
       interpolator_beta="0.2"
       start_linecap_type="zerowidth"
       linejoin_type="round"
       miter_limit="4"
       scale_width="1"
       end_linecap_type="zerowidth" />
    <inkscape:path-effect
       effect="powerstroke"
       id="path-effect2377"
       is_visible="true"
       lpeversion="1"
       offset_points="0.21052624,0.24568295 | 1.0067106,0.45443294 | 1.8351354,0.29509547"
       not_jump="false"
       sort_points="true"
       interpolator_type="CentripetalCatmullRom"
       interpolator_beta="0.2"
       start_linecap_type="zerowidth"
       linejoin_type="round"
       miter_limit="4"
       scale_width="1"
       end_linecap_type="zerowidth" />
    <inkscape:path-effect
       effect="powerstroke"
       id="path-effect2383"
       is_visible="true"
       lpeversion="1"
       offset_points="0.21052624,0.24568295 | 1.0067106,0.45443294 | 1.8368971,0.23261532"
       not_jump="false"
       sort_points="true"
       interpolator_type="CentripetalCatmullRom"
       interpolator_beta="0.2"
       start_linecap_type="zerowidth"
       linejoin_type="round"
       miter_limit="4"
       scale_width="1"
       end_linecap_type="zerowidth" />
    <inkscape:path-effect
       effect="powerstroke"
       id="path-effect2443"
       is_visible="true"
       lpeversion="1"
       offset_points="0.21052624,0.24568295 | 1.0067106,0.45443294 | 1.84319,0.21627656"
       not_jump="false"
       sort_points="true"
       interpolator_type="CentripetalCatmullRom"
       interpolator_beta="0.2"
       start_linecap_type="zerowidth"
       linejoin_type="round"
       miter_limit="4"
       scale_width="1"
       end_linecap_type="zerowidth" />
    <inkscape:path-effect
       effect="powerstroke"
       id="path-effect2449"
       is_visible="true"
       lpeversion="1"
       offset_points="0.21052624,0.24568295 | 1.0067106,0.45443294 | 1.84319,0.21627656"
       not_jump="false"
       sort_points="true"
       interpolator_type="CentripetalCatmullRom"
       interpolator_beta="0.2"
       start_linecap_type="zerowidth"
       linejoin_type="round"
       miter_limit="4"
       scale_width="1"
       end_linecap_type="zerowidth" />
    <inkscape:path-effect
       effect="powerstroke"
       id="path-effect2455"
       is_visible="true"
       lpeversion="1"
       offset_points="0.21052624,0.24568295 | 1.0067106,0.45443294 | 1.84319,0.21627656"
       not_jump="false"
       sort_points="true"
       interpolator_type="CentripetalCatmullRom"
       interpolator_beta="0.2"
       start_linecap_type="zerowidth"
       linejoin_type="round"
       miter_limit="4"
       scale_width="1"
       end_linecap_type="zerowidth" />
    <inkscape:path-effect
       effect="powerstroke"
       id="path-effect2461"
       is_visible="true"
       lpeversion="1"
       offset_points="0.21052624,0.24568295 | 1.0067106,0.45443294 | 1.8368971,0.23261532"
       not_jump="false"
       sort_points="true"
       interpolator_type="CentripetalCatmullRom"
       interpolator_beta="0.2"
       start_linecap_type="zerowidth"
       linejoin_type="round"
       miter_limit="4"
       scale_width="1"
       end_linecap_type="zerowidth" />
    <inkscape:path-effect
       effect="powerstroke"
       id="path-effect2467"
       is_visible="true"
       lpeversion="1"
       offset_points="0.21052624,0.24568295 | 1.0067106,0.45443294 | 1.848044,0.23312571"
       not_jump="false"
       sort_points="true"
       interpolator_type="CentripetalCatmullRom"
       interpolator_beta="0.2"
       start_linecap_type="zerowidth"
       linejoin_type="round"
       miter_limit="4"
       scale_width="1"
       end_linecap_type="zerowidth" />
    <inkscape:path-effect
       effect="powerstroke"
       id="path-effect2473"
       is_visible="true"
       lpeversion="1"
       offset_points="0.21052624,0.24568295 | 1.0067106,0.45443294 | 1.848044,0.23312571"
       not_jump="false"
       sort_points="true"
       interpolator_type="CentripetalCatmullRom"
       interpolator_beta="0.2"
       start_linecap_type="zerowidth"
       linejoin_type="round"
       miter_limit="4"
       scale_width="1"
       end_linecap_type="zerowidth" />
  </defs>
  <g
     inkscape:label="Ebene 1"
     inkscape:groupmode="layer"
     id="layer1"
     transform="translate(-536.46135,-74.286361)">
    <g
       id="g5851"
       transform="translate(502.91784,6.13514)">
      <path
         id="path3421"
         style="fill:#10a116;fill-opacity:1;stroke:none;stroke-width:1.7;stroke-linecap:round;stroke-dasharray:none"
         d="M 34.293514,68.901221 V 163.759 a 70.631882,62.13718 0 0 0 70.631866,62.13729 70.631882,62.13718 0 0 0 70.63186,-62.13678 70.631882,62.13718 0 0 0 0,-5.1e-4 V 68.901221 Z" />
      <path
         id="path845"
         style="fill:#ffffff;fill-opacity:1;stroke:#000000;stroke-width:0.8;stroke-dasharray:none"
         d="m 161.20308,183.51593 c -10.37375,7.8e-4 -17.80643,6.7228 -28.18019,6.72362 -10.37377,8.9e-4 -17.81214,-6.7198 -28.18588,-6.71897 -10.37382,7.8e-4 -17.807399,6.72227 -28.181224,6.7231 -10.373824,7.8e-4 -17.812062,-6.71979 -28.185876,-6.71896 -3.505066,2.6e-4 -6.671804,0.77372 -9.732223,1.79007 a 70.631882,62.13718 0 0 0 6.165515,11.17658 c 1.154994,-0.16607 2.339084,-0.26656 3.566708,-0.26665 10.373814,-8.3e-4 17.812052,6.71974 28.185876,6.71896 10.373825,-8.3e-4 17.807404,-6.72232 28.181224,-6.7231 10.37374,-8.3e-4 17.81211,6.71986 28.18588,6.71897 10.37376,-8.2e-4 17.80644,-6.72284 28.18019,-6.72362 1.28696,-10e-5 2.52839,0.10413 3.73621,0.28525 a 70.631882,62.13718 0 0 0 6.15621,-11.1435 c -3.11059,-1.04206 -6.3266,-1.84203 -9.89242,-1.84175 z" />
      <path
         style="fill:none;stroke:#000000;stroke-width:0.799999;stroke-linecap:round;stroke-dasharray:none"
         d="m 61.818567,194.63254 c 0,0 2.224688,1.39044 5.255829,2.36374 3.03114,0.9733 5.228021,1.16796 5.228021,1.16796"
         id="path4322" />
      <path
         style="fill:none;stroke:#000000;stroke-width:0.799999;stroke-linecap:round;stroke-dasharray:none"
         d="m 62.847486,192.01853 c 0,0 1.890985,1.22358 4.783082,2.03003 2.892097,0.80645 4.977744,1.05673 4.977744,1.05673"
         id="path4324" />
      <path
         style="fill:none;stroke:#000000;stroke-width:0.799999;stroke-linecap:round;stroke-dasharray:none"
         d="m 63.487085,189.23767 c 0,0 3.392651,1.64071 5.367062,2.33592 1.974414,0.69522 3.865399,0.55618 3.865399,0.55618"
         id="path4326" />
      <path
         style="fill:none;stroke:#000000;stroke-width:0.799999;stroke-linecap:round;stroke-dasharray:none"
         d="m 118.65939,188.57026 c 0,0 2.33592,0.9455 4.86651,1.86318 2.53058,0.91769 4.75527,1.39043 4.75527,1.39043"
         id="path4328" />
      <path
         style="fill:none;stroke:#000000;stroke-width:0.799999;stroke-linecap:round;stroke-dasharray:none"
         d="m 118.0476,191.37894 c 0,0 4.00444,1.75194 6.34037,2.41935 2.33592,0.6674 3.92101,0.86206 3.92101,0.86206"
         id="path4330" />
      <path
         style="fill:none;stroke:#000000;stroke-width:0.799999;stroke-linecap:round;stroke-dasharray:none"
         d="m 117.12992,193.93733 c 0,0 4.31033,2.00222 7.119,2.66963 2.80867,0.6674 4.14349,0.86206 4.14349,0.86206"
         id="path4332" />
      <path
         id="path4445"
         style="fill:#ffffff;stroke:#000000;stroke-width:1;stroke-linecap:round;stroke-dasharray:none"
         d="m 34.293514,68.901221 v 34.981329 c 5.445504,-4.326609 12.846678,-7.179013 21.007503,-7.555096 5.216212,-0.237146 10.342934,0.575982 14.88333,2.360579 3.397843,-9.648973 17.910805,-16.572141 34.741033,-16.572632 16.83022,4.92e-4 31.34318,6.92366 34.74103,16.572632 4.5404,-1.784597 9.66711,-2.597725 14.88333,-2.360579 8.16082,0.376084 15.562,3.228487 21.0075,7.555096 V 68.901221 Z" />
      <path
         id="path5768"
         style="fill:none;fill-opacity:1;stroke:#000000;stroke-width:1.5;stroke-linecap:round;stroke-dasharray:none"
         d="M 34.293514,68.901221 V 163.759 a 70.631882,62.13718 0 0 0 70.631866,62.13729 70.631882,62.13718 0 0 0 70.63186,-62.13678 70.631882,62.13718 0 0 0 0,-5.1e-4 V 68.901221 Z" />
      <g
         id="g3273"
         transform="translate(-207.64556,-0.31571548)">
        <path
           style="fill:#ffffff;stroke:#000000;stroke-width:0.5;stroke-linecap:round;stroke-dasharray:none"
           d="m 340.00212,170.99522 4.5606,4.92212 -3.76807,0.12514 1.87709,3.78197 -7.20243,-1.01501 -3.62903,-5.06117 2.97553,-3.03114 z"
           id="path2987" />
        <path
           style="fill:#ffffff;stroke:#000000;stroke-width:0.6;stroke-linecap:round;stroke-dasharray:none"
           d="m 307.75801,174.08197 c 0,0 -5.00554,3.55951 -6.86871,5.00555 -1.8632,1.44605 -3.69856,3.00334 -2.97553,4.03225 0.72302,1.02892 2.08565,1.89099 3.28141,0.77865 1.19578,-1.11235 3.36484,-3.2258 5.92323,-5.28364 2.55841,-2.05784 4.53281,-3.05895 4.53281,-3.05895 l -1.52947,-2.47497 z"
           id="path2662"
           sodipodi:nodetypes="cssssccc" />
        <g
           id="g2585">
          <path
             style="fill:#000000;stroke:#000000;stroke-width:0.1;stroke-linecap:round;stroke-dasharray:none"
             d="m 322.77907,173.90545 c 0,0 1.86284,-0.0651 2.04502,1.92704 0.25373,2.77463 -3.16585,3.7361 -3.16585,3.7361 0,0 1.36755,-1.66938 1.7304,-2.57594 0.42658,-1.06578 -1.92704,-1.59276 -1.92704,-1.59276 z"
             id="path2547"
             sodipodi:nodetypes="cscscc" />
          <path
             style="fill:#000000;stroke:#000000;stroke-width:0.1;stroke-linecap:round;stroke-dasharray:none"
             d="m 313.28151,179.54893 c 0,0 1.16017,2.3793 1.37646,2.8119 0.2163,0.4326 0.78656,1.98603 0.90454,2.00569 0.11797,0.0197 0.0786,-4.79793 0.0786,-4.79793 l -1.12083,-1.02251 -1.06182,0.31462 z"
             id="path2549" />
          <path
             style="fill:#ffea00;stroke:#000000;stroke-width:0.7;stroke-linecap:round;stroke-dasharray:none;fill-opacity:1"
             d="m 310.64657,170.60196 c 0,0 3.55913,-1.33713 5.93844,-1.14049 2.3793,0.19663 4.36534,0.39327 4.385,0.51125 0.0196,0.11798 -0.13764,0.84554 -0.13764,0.94386 0,0.0983 0.27527,0.76688 0.25561,0.96352 -0.0196,0.19663 -0.84552,1.49443 -0.84552,1.49443 0,0 -4.95525,-2.10401 -5.05357,-2.10401 -0.0983,0 -4.54232,-0.66856 -4.54232,-0.66856 z"
             id="path2543" />
          <path
             style="fill:#ffea00;stroke:#000000;stroke-width:0.7;stroke-linecap:round;stroke-dasharray:none;fill-opacity:1"
             d="m 304.94411,163.79833 c 0,0 2.32032,5.4665 5.93845,6.37103 3.61809,0.90452 2.98886,0.0786 5.66311,0.8652 2.67428,0.78655 4.56197,2.163 4.71929,2.24166 0.1573,0.0787 1.63207,0.19663 1.71073,0.70788 0.0787,0.51126 -1.86803,2.37931 -2.37928,2.30066 -0.51128,-0.0787 -2.32034,-2.30065 -2.94957,-2.30065 -0.62923,0 -2.06469,0.0787 -2.57594,0 -0.51125,-0.0787 -1.31746,-0.23597 -1.31746,-0.23597 0,0 0.2753,1.25848 0.55057,1.61243 0.2753,0.35394 1.51412,1.80905 1.67142,2.69392 0.0826,0.46464 -0.29495,1.78939 -0.49159,1.75006 -0.19663,-0.0393 -0.40405,-1.15507 -1.23882,-0.92419 -0.92418,0.2556 -0.25562,1.19948 -0.88485,1.31747 -0.62924,0.11798 -1.37647,-0.94386 -1.37647,-1.37646 0,-0.4326 0.0787,-1.17982 0.0787,-1.17982 0,0 -1.25847,-0.82587 -1.69106,-1.45511 -0.43262,-0.62924 -0.74724,-1.45511 -0.74724,-1.45511 l -4.60128,0.66856 c 0,0 -1.37647,1.53377 -1.57311,1.53377 -0.19664,0 -2.20231,-2.35964 -2.20231,-2.71359 0,-0.35394 -0.0787,-0.8652 -0.0787,-0.8652 0,0 -2.281,-0.74722 -2.83158,-1.41578 -0.55057,-0.66857 -1.0225,-3.26417 -1.06182,-3.46081 -0.0393,-0.19663 7.66881,-4.67995 7.66881,-4.67995 z"
             id="path2541"
             sodipodi:nodetypes="cssssssscsssssscsccsscssc" />
          <path
             style="fill:#000000;stroke:#000000;stroke-width:0.1;stroke-linecap:round;stroke-dasharray:none"
             d="m 320.97001,170.28734 c 0,0 0.80621,-0.0197 1.06182,0.92419 0.25564,0.94386 -0.33427,2.18267 -0.33427,2.18267 l -1.23881,-0.70789 0.55057,-1.06184 -0.31461,-0.84554 z"
             id="path2551" />
          <path
             style="fill:#000000;stroke:#000000;stroke-width:0.1;stroke-linecap:round;stroke-dasharray:none"
             d="m 308.93988,174.74938 c 0,0 -1.84928,-2.66963 -1.69632,-2.79477 0.15295,-0.12514 1.72413,0.33371 1.90489,0.65351 0.18076,0.3198 0.75083,1.91879 1.02891,2.65572 0.2781,0.73693 -0.66741,-0.58398 -0.66741,-0.58398 z"
             id="path2553" />
          <path
             style="fill:#000000;stroke:#000000;stroke-width:0.1;stroke-linecap:round;stroke-dasharray:none"
             d="m 303.92042,176.19543 c 0,0 0.33371,-0.84816 0.37541,-1.96051 0.0417,-1.11235 -0.0417,-1.71023 0.27811,-1.71023 0.3198,0 0.12512,1.20968 0.22246,1.65461 0.0973,0.44494 0.12515,0.69522 0.44495,0.70912 0.3198,0.0139 1.02891,0.15295 1.02891,0.15295 0,0 -1.41825,0.29199 -1.43214,0.40322 -0.014,0.11124 -0.9177,0.75084 -0.9177,0.75084 z"
             id="path2555" />
          <path
             style="fill:#000000;stroke:#000000;stroke-width:0.1;stroke-linecap:round;stroke-dasharray:none"
             d="m 298.52556,169.46574 c 0,0 0.16685,1.77975 0.3198,2.03003 0.15293,0.25028 0.77865,0.38932 0.90377,0.43103 0.12514,0.0417 0.80645,0.26419 0.90379,0.26419 0.0973,0 0.58399,-0.40323 0.76472,-0.33371 0.18077,0.0695 0.45884,0.38932 0.41714,0.6257 -0.0417,0.23637 -0.18076,0.70912 -0.18076,0.87597 0,0.16685 -0.0973,1.15406 -0.0973,1.15406 l -0.3198,-1.07064 -2.29423,-1.12625 -1.16795,-1.47385 -0.292,-1.00111 z"
             id="path2557" />
        </g>
        <path
           style="fill:#ffea00;stroke:#000000;stroke-width:0.7;stroke-linecap:round;fill-opacity:1"
           d="m 302.16848,115.68387 0.83425,-1.83537 -1.50166,-0.0556 c 0,0 1.16797,-1.83537 1.66854,-2.8921 0.50054,-1.05672 0.38931,-2.16907 0.50054,-2.44715 0.11123,-0.27809 0.72302,-1.66852 0.72302,-1.66852 0,0 -1.80869,-2.17441 -1.65139,-3.11827 0.15732,-0.94385 0.86521,-1.2978 0.90453,-1.92704 0.0393,-0.62924 -0.23596,-2.045018 0.39327,-2.792239 0.62924,-0.747217 2.39898,-2.04502 2.39898,-2.04502 0,0 -1.80906,-1.612421 -2.71359,-3.421478 -0.90453,-1.809056 -1.29781,-4.12937 -1.29781,-4.12937 0,0 1.7304,1.494441 2.04502,1.848384 0.31464,0.353947 1.06185,0.865204 1.06185,0.865204 0,0 -0.32049,-0.964235 -0.33441,-1.27013 -0.0138,-0.305895 0.0417,-1.126249 0.0417,-1.126249 0,0 1.98834,2.182957 4.15741,2.655704 2.16907,0.472746 6.84092,-0.139044 8.95438,-0.278087 2.11345,-0.139043 7.20243,0.556173 9.17684,0.05562 1.97441,-0.500556 4.39376,-2.864288 4.39376,-2.864288 0,0 0.0556,0.639598 0.0695,1.237483 0.0139,0.597886 -0.1615,1.100247 -0.1615,1.100247 0,0 0.73157,-0.516266 1.39898,-1.211481 0.66741,-0.695216 1.16122,-1.210085 1.16122,-1.210085 0,0 -0.35477,2.892506 -1.21684,4.282937 -0.86207,1.390432 -2.2803,2.308116 -2.2803,2.308116 0,0 2.5862,3.392652 2.89209,5.617342 0.3059,2.22469 -0.19466,4.47719 -0.19466,4.47719 0,0 0.66741,2.55839 1.11235,4.11567 0.44493,1.55728 -0.16686,3.83759 -0.16686,3.83759 0,0 0.55618,1.39043 0.44494,2.28031 -0.11123,0.88987 -0.44494,1.33481 -0.44494,1.33481 0,0 1.22358,4.39377 0.72303,4.8387 -0.50056,0.44494 1.33481,7.00778 0.77864,9.78864 -0.55617,2.78086 -2.28031,6.4516 -2.28031,6.4516 0,0 -1.22355,7.95326 -7.89762,13.57061 -6.67406,5.61734 -9.73301,7.45271 -9.73301,7.45271 0,0 -1.50167,2.55839 -8.67629,5.28363 -7.17463,2.72525 -10.40043,5.39488 -12.62512,7.23025 -2.22469,1.83537 -6.06228,3.33703 -6.7853,3.33703 -0.72303,0 -1.44325,-0.42248 -1.44325,-0.42248 0,0 0.27808,0.75002 -0.83706,1.36797 -1.4183,0.78595 -3.89321,1.11235 -6.50722,2.44716 -2.61401,1.33482 -3.39265,2.64182 -3.80978,1.77976 -0.41713,-0.86207 -0.0139,-1.79366 0.13905,-2.09956 0.15294,-0.30589 1.25138,-2.04393 1.25138,-2.04393 0,0 -3.2536,1.71023 -4.39376,1.32091 -1.14015,-0.38932 -1.33481,-1.76585 -1.33481,-1.76585 0,0 -2.66963,1.08454 -3.75417,-0.30589 -1.08453,-1.39043 2.8921,-4.505 2.8921,-4.505 0,0 -4.03225,1.72414 -4.72747,1.02892 -0.69521,-0.69522 2.83649,-4.53281 2.83649,-4.53281 0,0 -3.42047,2.78087 -4.86651,1.16797 -1.44605,-1.6129 1.11234,-2.83648 2.08564,-3.55951 0.9733,-0.72302 3.47608,-3.50388 4.33815,-4.69965 0.86206,-1.19577 3.39265,-3.2258 3.39265,-3.2258 0,0 -1.53162,0.9398 -2.82942,-0.59397 -1.29781,-1.53376 0.74722,-2.63493 0.74722,-2.63493 0,0 -3.5198,1.2978 -2.49729,-1.90737 1.02251,-3.20518 1.21465,-4.59675 3.13344,-7.26638 1.9188,-2.66963 5.25583,-5.53392 5.25583,-5.53392 0,0 -0.94549,-0.11123 0.22247,-1.52947 1.16796,-1.41824 2.08529,-2.60065 4.32695,-4.44903 2.24166,-1.84839 5.58448,-3.34283 5.58448,-3.34283 0,0 -0.62923,-0.4326 0.74722,-1.84838 1.37646,-1.41579 3.34283,-3.53946 7.39354,-7.00027 4.05072,-3.4608 6.7809,-5.52296 6.7809,-5.52296 z"
           id="path1698"
           sodipodi:nodetypes="cccsscssscscscccssscscscscscscscsscscssscsssscscscscssscscsscsscssc" />
        <ellipse
           style="fill:none;stroke:#000000;stroke-width:0.7;stroke-linecap:round"
           id="path1815"
           cx="313.29907"
           cy="102.34964"
           rx="3.8447468"
           ry="3.1562788" />
        <path
           style="fill:#000000;stroke:#000000;stroke-width:0.1;stroke-linecap:round;stroke-dasharray:none"
           d="m 312.13787,92.477573 c 0,0 1.54339,1.473856 1.64071,1.473856 0.0973,0 0.20857,-0.58398 0.18076,-0.764738 -0.0278,-0.180756 -0.51445,-0.695214 -0.51445,-0.695214 z"
           id="path1823" />
        <path
           style="fill:#000000;stroke:#000000;stroke-width:0.1;stroke-linecap:round;stroke-dasharray:none"
           d="m 314.51552,92.533188 c 0,0 0.66739,0.778643 0.84815,1.15406 0.18076,0.375415 0.19465,0.77864 0.37542,0.764736 0.18076,-0.01389 0.33372,-0.723024 0.33372,-0.931588 0,-0.208565 -0.13907,-0.639598 0.0695,-0.681312 0.20857,-0.04171 1.01502,0.959397 1.26529,1.640707 0.2503,0.681313 0.37542,1.237486 0.50057,1.181868 0.12515,-0.05562 0.12515,-1.251387 0.27808,-1.751944 0.15295,-0.500555 0.48664,-1.362623 0.72302,-1.348716 0.23638,0.01389 0.6535,1.167961 0.6535,1.501664 0,0.333703 0.0417,1.042823 0.22249,1.042823 0.18073,0 0.29199,-0.625695 0.58396,-1.251387 0.29199,-0.625694 1.04283,-1.473858 1.40435,-1.237485 0.3615,0.236374 0.0556,1.098442 0.0556,1.320911 0,0.222467 0.13904,0.570077 0.41711,0.458841 0.27811,-0.111234 1.09845,-1.877081 1.57121,-1.6129 0.47273,0.264183 -0.0278,1.084537 0.18073,1.195771 0.20857,0.111236 0.66741,-0.347607 1.14017,-0.750832 0.47273,-0.403225 1.32091,-0.875972 1.32091,-0.875972 l -6.4516,-0.180755 -4.22691,-0.01389 z"
           id="path1825" />
        <ellipse
           style="fill:none;stroke:#000000;stroke-width:0.7;stroke-linecap:round"
           id="ellipse1829"
           cx="324.99988"
           cy="102.34964"
           rx="3.8447468"
           ry="3.1562788" />
        <path
           style="fill:#000000;stroke:#000000;stroke-width:0.1;stroke-linecap:round;stroke-dasharray:none"
           d="m 310.64657,99.655454 c 0,0 0.31462,-0.432599 0.41294,-0.511254 0.0983,-0.07866 0.0393,-0.334283 0.118,-0.452266 0.0786,-0.11798 0.19661,-0.255627 0.19661,-0.37361 0,-0.11798 -0.64889,-0.58991 -0.76686,-0.727554 -0.11798,-0.137647 -0.4916,-0.334282 -0.35396,-0.58991 0.13766,-0.255627 0.0787,-0.511257 0.41293,-0.393274 0.3343,0.117983 0.3343,0.2163 0.70789,0.176972 0.37362,-0.03933 1.08152,0.05899 1.27815,0.275294 0.19664,0.216299 1.27815,1.337127 2.20234,1.691074 0.92419,0.353946 2.83157,1.691074 2.98887,2.654594 0.15732,0.96352 0.17698,1.98603 0.15732,2.12368 -0.0196,0.13764 1.08148,0.33428 1.04217,0.60957 -0.0393,0.27529 -0.55057,0.31462 -0.94385,0.45226 -0.39328,0.13765 -0.64892,0.8652 -0.64892,0.8652 0,0 -0.47191,-0.0983 -0.84553,-0.0196 -0.37362,0.0786 -0.72755,0.31461 -1.2388,0.35394 -0.51126,0.0393 -1.75006,-0.17697 -1.75006,-0.17697 l 3.20516,-1.75006 0.19664,-1.59276 -0.98319,-2.12368 -2.30064,-1.120828 -2.30065,0.432602 -0.88488,0.570246 z"
           id="path1831" />
        <path
           style="fill:#000000;stroke:#000000;stroke-width:0.1;stroke-linecap:round;stroke-dasharray:none"
           d="m 330.58891,95.578233 c 0,0 -1.27921,1.084538 -2.25251,1.418241 -0.97329,0.333703 -2.05785,0.305895 -3.19799,1.112345 -1.14017,0.80645 -1.77975,1.36262 -1.77975,1.36262 l 1.44603,-0.333703 0.94552,0.139044 c 0,0 0.16684,-0.500555 1.77974,-1.056727 1.6129,-0.556173 2.08563,-0.750832 2.39155,-1.001112 0.30588,-0.250278 1.30698,-0.862066 1.30698,-0.862066 z"
           id="path1833" />
        <path
           style="fill:#000000;stroke:#000000;stroke-width:0.1;stroke-linecap:round;stroke-dasharray:none"
           d="m 325.1106,99.360206 c -0.13904,-0.02781 -2.91991,1.307004 -3.14237,2.641824 -0.22247,1.33481 0.10332,2.16931 0.83088,2.93619 l 3.98001,0.56769 c 0,0 -2.61401,0.77864 -3.80979,0.94549 -1.19576,0.16686 -1.72413,0.16686 -1.83536,-0.11123 -0.11123,-0.27809 0.0556,-0.55617 -0.0278,-0.83426 -0.0834,-0.27808 -1.41825,-0.0834 -1.44605,-0.47274 -0.0278,-0.38933 0.33369,-1.05673 0.41714,-1.19578 0.0834,-0.13904 0.33369,-0.52836 0.52835,-0.72302 0.19465,-0.19466 0.55618,-0.80645 0.55618,-0.80645 l 0.55618,-1.86318 1.41822,-0.862065 1.47386,-0.444939 z"
           id="path1835"
           sodipodi:nodetypes="csccssssssccccc" />
        <path
           id="path1990"
           style="fill:#000000;stroke:#000000;stroke-width:0.1;stroke-linecap:round;stroke-dasharray:none"
           d="m 313.04549,100.69773 a 1.5534295,1.5337659 0 0 0 -1.55339,1.53376 1.5534295,1.5337659 0 0 0 1.55339,1.53375 1.5534295,1.5337659 0 0 0 1.5534,-1.53375 1.5534295,1.5337659 0 0 0 -0.35761,-0.97876 l -1.07797,0.46716 -0.0832,-1.02164 a 1.5534295,1.5337659 0 0 0 -0.0346,-5.2e-4 z" />
        <path
           id="path1995"
           style="fill:#000000;stroke:#000000;stroke-width:0.1;stroke-linecap:round;stroke-dasharray:none"
           d="m 325.49259,100.71739 a 1.5534295,1.5337659 0 0 0 -1.55339,1.53376 1.5534295,1.5337659 0 0 0 1.55339,1.53375 1.5534295,1.5337659 0 0 0 1.5534,-1.53375 1.5534295,1.5337659 0 0 0 -0.35761,-0.97876 l -1.07797,0.46716 -0.0832,-1.02164 a 1.5534295,1.5337659 0 0 0 -0.0346,-5.2e-4 z" />
        <path
           style="fill:#000000;stroke:#000000;stroke-width:0.1;stroke-linecap:round;stroke-dasharray:none"
           d="m 303.25303,91.990922 c 0,0 2.00221,2.39154 3.67072,3.642929 1.66852,1.251387 2.94773,1.501664 2.91992,1.668518 -0.0278,0.166852 -0.58399,0.750832 -0.80645,0.77864 -0.22246,0.02781 -0.33372,-0.166852 -0.88987,-0.166852 -0.55618,0 -1.64071,0.05562 -1.64071,0.05562 0,0 -0.66741,0.166852 -0.58399,0.389321 0.0834,0.222467 1.58509,0.77864 1.69632,1.00111 0.11123,0.222469 0.0278,0.417128 0.0278,0.417128 0,0 -1.44605,-0.389321 -2.19689,-0.08342 -0.75083,0.305895 -1.30699,0.834264 -1.30699,0.945494 0,0.11124 1.22357,0.27809 1.55729,0.44494 0.33369,0.16685 0.69522,0.6396 0.69522,0.6396 0,0 -1.05675,0.0834 -1.44606,0.22247 -0.38933,0.13904 -1.43216,0.6535 -1.37652,1.25139 0.0556,0.59788 1.2931,0.0973 1.71717,0.29199 0.42408,0.19466 0.72303,0.67435 0.64654,0.78559 -0.0765,0.11123 -0.81338,0.20856 -1.23052,0.47275 -0.41712,0.26418 -0.54923,0.38932 -0.47969,0.55617 0.0695,0.16685 2.36373,-0.0348 2.37069,0.22942 0.007,0.26418 -1.99528,1.66157 -1.58509,2.16212 0.41015,0.50055 2.23163,-0.54922 2.34981,-0.38932 0.11819,0.1599 -0.8551,1.86318 -0.47968,2.29421 0.37541,0.43103 0.60483,0.56312 1.4669,0.11123 0.86206,-0.45188 1.34871,-0.99415 1.51556,-0.77863 0.16684,0.21551 -0.77169,1.07063 0,1.35566 0.77168,0.28504 0.97329,-0.0904 1.07063,-0.38932 0.0973,-0.29894 0.21551,-0.67436 0.72999,-0.55617 0.51446,0.11819 1.3348,0.29199 2.16905,0.27114 0.83426,-0.0208 1.18883,-0.0904 1.27225,-0.0904 0.0834,0 1.08453,0.11123 1.08453,0.11123 l 0.85614,-1.21987 c 0,0 2.60543,1.59275 2.78241,1.62225 0.17695,0.0295 3.72626,-1.68124 3.72626,-1.68124 0,0 0.14748,0.28512 0.01,0.60957 -0.13766,0.32445 -0.34412,0.65873 -0.22614,0.79638 0.11798,0.13764 1.22896,-0.39327 1.93686,-0.18681 0.70789,0.20647 1.96638,0.50143 2.24165,0.50143 0.2753,0 1.24865,-0.53092 1.46495,-0.13765 0.21629,0.39328 -0.0885,0.63907 -0.7079,1.01268 -0.61939,0.37361 -1.24862,0.65873 -1.32728,0.45226 -0.0787,-0.20646 0.14748,-0.33428 0.11798,-0.46209 -0.0295,-0.12782 -2.163,-0.74722 -3.52962,-0.33428 -1.36663,0.41293 -1.87788,0.90452 -2.3105,2.04502 -0.4326,1.14049 -0.96351,2.94955 -0.96351,2.94955 0,0 -1.82872,-4.22769 -2.85123,-4.71928 -1.02251,-0.4916 -2.18268,-0.39328 -2.55627,-0.33428 -0.37362,0.059 -2.14334,-0.0787 -2.1925,0.0196 -0.0492,0.0983 0.22612,0.53092 0.31462,0.61941 0.0885,0.0885 0.46209,0.22613 0.37359,0.35395 -0.0885,0.12781 -0.75705,0.0786 -1.18964,-0.38345 -0.4326,-0.46209 -0.3736,-0.75705 -0.47192,-0.77671 -0.0983,-0.0197 -0.72757,0.76688 -1.35681,0.72755 -0.62923,-0.0393 -1.06182,-0.75705 -1.18964,-0.76688 -0.12782,-0.01 -1.27815,0.73739 -1.89754,0.58008 -0.61942,-0.15731 -1.12083,-1.96637 -1.25849,-2.02536 -0.13764,-0.059 -0.74721,0.10815 -1.12083,-0.12781 -0.37359,-0.23596 -0.72755,-1.03234 -0.72755,-1.03234 l 0.36378,-0.79638 -0.83569,-1.3568 -0.99695,-1.44076 0.33369,-1.33481 0.55618,-1.05673 0.22246,-2.196883 0.38934,-0.723022 2.11344,-1.974413 -1.89098,-2.224691 -1.14014,-1.779752 z"
           id="path2014" />
        <path
           style="fill:#000000;stroke:#000000;stroke-width:0.1;stroke-linecap:round;stroke-dasharray:none"
           d="m 331.07712,96.312632 c 0,0 0.059,1.120828 -0.1573,1.28797 -0.2163,0.16714 -1.08151,0.314619 -0.98319,0.688229 0.0983,0.373607 0.68823,0.452263 1.06185,0.452263 0.37359,0 1.16015,-0.117981 1.19949,-0.0295 0.0393,0.08849 -1.10117,1.110999 -1.05201,1.278139 0.0492,0.167147 0.22611,0.196637 0.76687,0.206467 0.54075,0.01 1.13067,-0.0983 1.11101,0.33429 -0.0196,0.4326 -1.03235,1.111 -1.03235,1.16999 0,0.059 1.39613,0.66856 1.4551,1.32729 0.059,0.65874 -0.56041,1.03235 -0.80621,1.13066 -0.2458,0.0983 -0.97335,0.38344 -0.97335,0.38344 0,0 1.15033,1.111 0.93403,1.5436 -0.21629,0.4326 -1.84838,0.4326 -1.84838,0.4326 0,0 0.60958,1.61242 0.0196,1.91721 -0.58991,0.30479 -2.55627,-0.27529 -2.62509,-0.1868 -0.0688,0.0885 -0.39327,0.1868 0.71771,0.65873 1.11101,0.47193 2.222,0.98318 2.84142,0.34411 0.61938,-0.63907 0.13763,-1.71073 0.16713,-1.75989 0.0295,-0.0492 0.74721,-0.39328 0.83572,-0.39328 0.0885,0 0.43259,-0.12781 0.43259,-0.12781 0,0 0.10279,0.5517 0.0611,0.71855 -0.0417,0.16685 -0.0417,0.26418 0.18076,0.62569 0.22247,0.36151 0.47274,0.6535 0.54227,0.88988 0.0695,0.23637 0.69522,1.20967 0.69522,1.20967 0,0 -0.45683,-1.91003 -0.45683,-2.06734 0,-0.1573 -0.62923,-2.32031 -0.62923,-2.32031 l 0.27527,-1.25847 v -3.26417 l -0.66855,-1.887718 -1.14049,-2.241655 -0.47193,-0.668565 z"
           id="path2016" />
        <path
           style="fill:#000000;stroke:#000000;stroke-width:0.1;stroke-linecap:round;stroke-dasharray:none"
           d="m 334.57943,113.5287 c 0,0 -0.34761,-1.22358 -0.70911,-1.08454 -0.36152,0.13904 -0.12515,0.69522 -0.0695,0.79255 0.0556,0.0973 0.44495,0.75083 0.44495,0.75083 z"
           id="path2037" />
        <path
           style="fill:#000000;stroke:#000000;stroke-width:0.1;stroke-linecap:round;stroke-dasharray:none"
           d="m 334.57943,117.01868 c 0,-0.0695 -0.44492,-0.9594 -0.66741,-0.88988 -0.22246,0.0695 -0.18074,0.292 -0.0695,0.57008 0.11124,0.27809 0.41712,0.93159 0.41712,0.93159 z"
           id="path2039" />
        <path
           style="fill:#000000;stroke:#000000;stroke-width:0.1;stroke-linecap:round;stroke-dasharray:none"
           d="m 335.24584,122.13102 c 0,0 -2.45798,-3.28383 -3.08721,-3.87374 -0.62924,-0.58991 -1.7304,-1.10116 -1.7304,-1.10116 0,0 -0.17698,-0.87504 -0.56042,-1.52394 -0.38343,-0.6489 -0.77671,-1.20931 -1.00285,-1.052 -0.22614,0.1573 0.29496,1.06184 0.38344,1.42561 0.0885,0.36378 -0.059,0.8652 -0.059,0.8652 0,0 -1.54361,-0.50142 -3.86392,-0.01 -2.32032,0.49159 -3.15601,1.19949 -2.99871,1.58293 0.15732,0.38344 1.06185,0.50142 2.2515,0.0393 1.18964,-0.46209 3.50012,-1.45511 4.78811,-0.94385 1.28796,0.51125 2.71357,2.34981 3.81474,3.7066 1.10116,1.35679 1.82872,2.35964 1.98604,2.98888 0.15729,0.62923 0.0787,-2.10402 0.0787,-2.10402 z"
           id="path2041" />
        <path
           style="fill:#000000;stroke:#000000;stroke-width:0.1;stroke-linecap:round;stroke-dasharray:none"
           d="m 301.86259,115.54482 c 0,0 0.95941,-0.73692 2.34982,-1.23748 1.39044,-0.50055 2.61403,-0.87597 2.61403,-0.44494 0,0.43104 -1.45756,0.61013 -2.66965,1.18187 -1.47385,0.69521 -2.64181,1.32091 -2.64181,1.32091 z"
           id="path2065"
           sodipodi:nodetypes="cssscc" />
        <path
           style="fill:#000000;stroke:#000000;stroke-width:0.1;stroke-linecap:round;stroke-dasharray:none"
           d="m 309.6351,113.43137 c 2.40546,-0.27809 3.78198,-0.38932 3.74025,0.15295 -0.0417,0.54226 -1.77974,0.11123 -2.91989,0.43103 -1.14016,0.3198 -3.03114,1.20967 -3.08676,0.6535 -0.0556,-0.55617 0.34761,-0.82035 0.83426,-0.94549 0.48665,-0.12514 1.43214,-0.29199 1.43214,-0.29199 z"
           id="path2116" />
        <path
           style="fill:#000000;stroke:#000000;stroke-width:0.1;stroke-linecap:round;stroke-dasharray:none"
           d="m 277.15935,138.35355 c 0,0 1.76974,-0.31462 2.98889,-1.23881 1.21915,-0.9242 3.20516,-2.4383 4.62095,-2.85124 1.41578,-0.41293 3.19534,-1.03234 3.52964,-1.39611 0.33428,-0.36378 0.41294,-0.62924 0.86519,-1.18966 0.45228,-0.56041 0.95369,-0.92419 1.02251,-0.85537 0.0688,0.0688 0.12782,0.41294 0.0983,0.48176 -0.0295,0.0688 -0.89469,0.94386 -0.70789,1.37646 0.18682,0.4326 0.43262,0.34411 2.15318,-0.17697 1.72055,-0.52109 2.9397,-0.84554 3.36248,-0.96352 0.42278,-0.11798 1.57311,-0.39328 1.63208,-0.8947 0.059,-0.50142 -0.0983,-1.37645 -0.059,-1.50427 0.0393,-0.12781 0.0786,-0.50142 0.43259,-0.47193 0.35393,0.0295 0.19664,1.40595 0.31462,1.75007 0.11797,0.34411 0.68823,1.22898 1.7894,0.66856 1.10114,-0.56041 1.63208,-0.8357 2.65459,-1.60259 1.02251,-0.76688 2.10399,-1.052 2.163,-1.38628 0.059,-0.33429 -0.42278,-0.54075 -0.42278,-0.97336 0,-0.4326 0.38346,-1.25847 0.73739,-1.16998 0.35396,0.0885 -0.10813,0.98318 0.2753,1.23881 0.38343,0.25562 0.36378,0.48176 1.15033,0.23596 0.78653,-0.2458 3.30348,-1.33713 3.31332,-1.47477 0.01,-0.13765 -0.47193,-0.69806 -0.25564,-1.27814 0.2163,-0.58008 0.81606,-1.24865 1.06186,-1.09133 0.24579,0.1573 -0.2163,0.96352 0.0983,1.16015 0.31462,0.19664 1.3961,0.36378 3.33299,-0.73738 1.93688,-1.10117 3.12653,-1.99587 4.31617,-3.32317 1.18965,-1.32729 1.9467,-2.80207 2.36948,-2.54644 0.42277,0.25563 -0.20648,1.43545 -0.88488,2.26132 -0.67839,0.82588 -4.43415,4.56197 -5.65329,5.01424 -1.21915,0.45226 -1.6714,0.41293 -2.35964,0.68822 -0.68823,0.2753 -2.61527,1.31747 -3.75576,1.76973 -1.14048,0.45227 -2.49729,0.58991 -2.71359,0.58991 -0.2163,0 -1.80906,0.68823 -2.53661,1.45511 -0.72756,0.76689 -2.163,2.18267 -2.81192,2.26133 -0.64889,0.0787 -1.59274,-0.39328 -2.04501,-0.4326 -0.45226,-0.0393 -2.41864,0.58991 -4.64061,1.37645 -2.222,0.78655 -3.18553,1.10117 -3.44115,1.06184 -0.25564,-0.0393 -0.45227,-0.17697 -0.58991,-0.13765 -0.13766,0.0393 -3.81476,1.17982 -4.66029,1.5731 -0.84553,0.39327 -1.39613,0.8652 -2.04502,1.35679 -0.64892,0.49159 -2.14334,1.21915 -2.43829,1.47478 -0.29496,0.25562 -2.02536,0.98318 -2.02536,0.98318 l -0.4916,-0.70789 z"
           id="path2142" />
        <path
           style="fill:#000000;stroke:#000000;stroke-width:0.1;stroke-linecap:round;stroke-dasharray:none"
           d="m 334.81581,135.1499 c 0,0 -3.46218,5.97886 -4.08787,5.49221 -0.62568,-0.48665 -0.97331,-3.01724 -1.34871,-2.96162 -0.60534,0.0897 0.43103,3.51779 1.02891,3.72635 0.59788,0.20857 1.7463,-0.73006 2.37764,-1.66852 1.02893,-1.52947 1.04283,-1.39043 1.04283,-1.39043 l 0.9872,-2.53058 z"
           id="path2169"
           sodipodi:nodetypes="cssssccc" />
        <path
           style="fill:#000000;stroke:#000000;stroke-width:0.1;stroke-linecap:round;stroke-dasharray:none"
           d="m 317.40104,158.36133 c 0,0 -0.98316,0.39327 -1.82872,0.58991 -0.84553,0.19663 -0.99301,-0.12782 -1.26831,0.0885 -0.27527,0.2163 -0.10813,0.63907 0.2458,0.82588 0.35396,0.1868 1.15033,0.0885 1.15033,0.0885 l 1.41579,-1.19948 z"
           id="path2171" />
        <path
           style="fill:#000000;stroke:#000000;stroke-width:0.1;stroke-linecap:round;stroke-dasharray:none"
           d="m 270.7785,153.90751 c 0,0 0.70789,-0.44244 1.2978,-0.76689 0.58992,-0.32445 0.95369,-0.66856 1.15033,-0.37361 0.19664,0.29496 -0.89471,0.94386 -1.25849,1.17982 -0.36377,0.23597 -1.30271,0.90453 -1.30271,0.90453 z"
           id="path2173"
           sodipodi:nodetypes="cssscc" />
        <path
           style="fill:#000000;stroke:#000000;stroke-width:0.1;stroke-linecap:round;stroke-dasharray:none"
           d="m 272.98083,157.13235 c 0,0 0.39328,-0.28512 0.90454,-0.72756 0.51125,-0.44243 0.68823,-0.79638 0.993,-0.48176 0.3048,0.31462 -0.56506,0.89273 -0.83571,1.16999 -0.40308,0.41294 -0.99301,0.82587 -0.99301,0.82587 z"
           id="path2175"
           sodipodi:nodetypes="cssscc" />
        <path
           style="fill:#000000;stroke:#000000;stroke-width:0.1;stroke-linecap:round;stroke-dasharray:none"
           d="m 267.28951,168.16569 c 0,0 2.53754,-2.52363 4.06702,-4.12263 1.52948,-1.59899 2.28031,-2.51668 2.47497,-2.30811 0.19465,0.20856 -2.47716,3.16183 -3.50388,4.33814 -1.04978,1.20273 -2.2247,2.22469 -2.2247,2.22469 z"
           id="path2206"
           sodipodi:nodetypes="cssscc" />
        <path
           style="fill:#000000;stroke:#000000;stroke-width:0.1;stroke-linecap:round;stroke-dasharray:none"
           d="m 269.29868,171.20378 c 0,0 0.2225,0.11123 3.18411,-2.2525 2.22081,-1.77248 4.10178,-4.40766 4.32424,-4.213 0.22246,0.19466 -2.86489,3.94005 -3.94884,4.8665 -1.62681,1.39044 -3.10064,2.22469 -3.10064,2.22469 z"
           id="path2208"
           sodipodi:nodetypes="cssscc" />
        <path
           style="fill:#000000;stroke:#000000;stroke-width:0.1;stroke-linecap:round;stroke-dasharray:none"
           d="m 270.72934,175.7735 c 0,0 4.03106,-1.92704 5.7418,-3.71643 1.71074,-1.78939 3.48045,-4.58164 3.77541,-4.46366 0.29495,0.11799 -1.59277,3.67711 -4.14903,5.72213 -2.30831,1.84666 -4.83727,2.85124 -4.83727,2.85124 z"
           id="path2210"
           sodipodi:nodetypes="cssscc" />
        <path
           style="fill:#000000;stroke:#000000;stroke-width:0.1;stroke-linecap:round;stroke-dasharray:none"
           d="m 275.54695,176.67803 c 0,0 1.16014,-0.47193 2.96921,-1.78939 1.80906,-1.31747 2.45795,-2.75292 3.34282,-3.77543 0.88485,-1.02251 2.35963,-1.88771 2.4383,-1.67141 0.0787,0.2163 -1.00286,1.21915 -1.84838,2.222 -0.84556,1.00284 -1.53379,2.02535 -2.89058,3.22484 -1.35678,1.19948 -3.44114,2.92988 -3.44114,2.92988 l 0.43259,-1.10116 z"
           id="path2212" />
        <path
           style="fill:#000000;stroke:#000000;stroke-width:0.1;stroke-linecap:round;stroke-dasharray:none"
           d="m 286.47993,175.3409 c 0,0 -1.55342,-1.04217 -1.00285,-2.75291 0.5506,-1.71074 1.21915,-2.33998 1.75009,-2.85123 0.53091,-0.51126 1.4551,-1.47478 1.4551,-1.47478 0,0 -1.16015,-0.0983 -1.33713,-1.23881 -0.17698,-1.14049 1.76972,-3.08719 1.65174,-3.22484 -0.11797,-0.13765 -2.81191,0.74722 -3.12652,-0.4326 -0.31462,-1.17982 0.27529,-3.44114 0.55059,-3.36249 0.27528,0.0787 -0.29495,2.6546 0.41294,2.98888 0.70789,0.33428 2.18265,-0.23597 3.4608,-1.41578 1.27812,-1.17982 2.0057,-1.94671 2.10402,-1.82873 0.0983,0.11799 -2.47764,3.63778 -3.28385,4.89626 -0.80621,1.25847 -1.29781,2.18266 -0.72755,2.5956 0.57026,0.41294 4.2277,-0.15731 4.2277,-0.15731 0,0 -3.87374,2.20233 -4.99457,3.63778 -1.12085,1.43545 -1.65177,2.4383 -1.5731,2.92989 0.0787,0.49159 0.90453,1.33713 0.90453,1.33713 z"
           id="path2247" />
        <path
           style="fill:#000000;fill-rule:nonzero;stroke:none;stroke-width:0.1;stroke-linecap:round;stroke-dasharray:none"
           d="m 283.15679,138.41254 c -0.0245,-0.0287 -0.16611,-0.10536 -0.47692,0.12533 -0.0381,0.0283 -0.08,0.0617 -0.12505,0.10067 -0.11819,0.10214 -0.26756,0.25038 -0.419,0.44167 -0.13007,0.16431 -0.26801,0.36858 -0.38234,0.6045 -0.10617,0.21908 -0.19536,0.47252 -0.23429,0.75036 -0.038,0.27133 -0.0276,0.56336 0.0592,0.86258 0.0875,0.30144 0.24733,0.5919 0.48452,0.86331 0.24609,0.28159 0.5666,0.53273 0.95434,0.75483 0.0195,0.0111 0.0389,0.022 0.0584,0.0326 0.3301,0.17949 0.68276,0.29161 1.05216,0.33324 0.36415,0.0411 0.72621,0.0116 1.0782,-0.071 0.34291,-0.0805 0.66982,-0.20985 0.97367,-0.36585 0.30857,-0.15843 0.59293,-0.34411 0.8455,-0.53329 0.5695,-0.42655 0.99166,-0.88024 1.2197,-1.15452 0.12828,-0.15428 0.21385,-0.27352 0.2666,-0.35425 0.14345,-0.21953 0.1074,-0.2832 0.0922,-0.29593 -0.0191,-0.016 -0.0771,-0.0322 -0.28056,0.12008 -0.0892,0.0667 -0.17223,0.13322 -0.33834,0.26331 -0.26082,0.20427 -0.74756,0.5835 -1.30276,0.90402 -0.25174,0.14533 -0.52199,0.28169 -0.80263,0.39183 -0.2767,0.10859 -0.55483,0.18828 -0.82978,0.22928 -0.28095,0.0419 -0.5486,0.0419 -0.8036,-0.001 -0.25697,-0.0436 -0.49939,-0.13076 -0.73116,-0.26133 -0.0138,-0.008 -0.0276,-0.0157 -0.0415,-0.0239 -0.32123,-0.18867 -0.55913,-0.38054 -0.73058,-0.57012 -0.16272,-0.17993 -0.2636,-0.35548 -0.32284,-0.52393 -0.0591,-0.16814 -0.0802,-0.33912 -0.0718,-0.51331 0.009,-0.18105 0.0493,-0.36293 0.10975,-0.54051 0.0647,-0.19008 0.15037,-0.36989 0.23554,-0.52773 0.096,-0.17798 0.20001,-0.34321 0.2715,-0.45824 0.0286,-0.046 0.0533,-0.086 0.0758,-0.12344 0.18066,-0.30089 0.15092,-0.41806 0.11609,-0.45887 z"
           id="path2283"
           sodipodi:nodetypes="csc"
           inkscape:path-effect="#path-effect2285"
           inkscape:original-d="m 283.15679,138.41254 c 0,0 -2.83253,2.41736 0.0885,4.1097 2.47764,1.43546 5.35834,-2.01552 5.35834,-2.01552" />
        <path
           style="fill:#000000;fill-rule:nonzero;stroke:none;stroke-width:0.1;stroke-linecap:round;stroke-dasharray:none"
           d="m 290.78629,141.04747 c -0.0237,-0.0297 -0.16349,-0.10939 -0.48663,0.1135 -0.0395,0.0273 -0.0831,0.0596 -0.13009,0.0973 -0.12316,0.0988 -0.27943,0.24247 -0.4389,0.42786 -0.13688,0.15912 -0.28313,0.35733 -0.40585,0.58631 -0.11388,0.21249 -0.2119,0.45978 -0.25792,0.73186 -0.045,0.26612 -0.0398,0.55399 0.0471,0.84861 0.0875,0.29682 0.25151,0.57906 0.4946,0.83874 0.25184,0.26902 0.58009,0.5051 0.97608,0.7108 0.0167,0.009 0.0334,0.017 0.0502,0.025 0.28587,0.13753 0.59728,0.19921 0.92328,0.19127 0.31953,-0.008 0.64028,-0.082 0.953,-0.19998 0.30537,-0.11523 0.60345,-0.27239 0.88526,-0.45026 0.28654,-0.18086 0.55717,-0.38372 0.80172,-0.58653 0.55342,-0.45898 0.98125,-0.9229 1.21886,-1.20635 0.13306,-0.15873 0.22261,-0.27936 0.27897,-0.362 0.15239,-0.22347 0.12016,-0.28758 0.1048,-0.30121 -0.0182,-0.0161 -0.0776,-0.0343 -0.29066,0.12266 -0.087,0.0641 -0.18662,0.14232 -0.35299,0.27351 -0.26568,0.2095 -0.7788,0.618 -1.32756,0.97387 -0.2513,0.16296 -0.51816,0.32078 -0.78996,0.45611 -0.26832,0.13358 -0.53214,0.24059 -0.78476,0.31123 -0.25908,0.0724 -0.49051,0.1022 -0.69492,0.0933 -0.20389,-0.009 -0.37559,-0.0559 -0.52493,-0.13166 -0.009,-0.005 -0.018,-0.009 -0.0269,-0.0141 -0.32931,-0.17564 -0.56987,-0.35483 -0.74066,-0.53098 -0.16161,-0.16668 -0.25814,-0.32779 -0.31308,-0.48016 -0.0549,-0.15222 -0.0731,-0.30914 -0.0612,-0.47262 0.0124,-0.17044 0.0573,-0.34442 0.1236,-0.5169 0.0711,-0.18483 0.16364,-0.36007 0.25582,-0.51515 0.10386,-0.17474 0.21593,-0.33772 0.29327,-0.45152 0.0309,-0.0455 0.0577,-0.0851 0.0821,-0.12228 0.19662,-0.29906 0.17194,-0.41831 0.13843,-0.46021 z"
           id="path2287"
           sodipodi:nodetypes="csc"
           inkscape:path-effect="#path-effect2291"
           inkscape:original-d="m 290.78629,141.04747 c 0,0 -2.97818,2.38137 0.01,3.95239 1.90739,1.00286 5.00439,-2.48745 5.00439,-2.48745" />
        <path
           style="fill:#000000;fill-rule:nonzero;stroke:none;stroke-width:0.1;stroke-linecap:round;stroke-dasharray:none"
           d="m 298.43546,142.34527 v 0 c -0.0294,-0.0268 -0.17114,-0.0861 -0.43901,0.15174 -0.033,0.0293 -0.069,0.0636 -0.10782,0.1033 -0.18068,0.18492 -0.47465,0.54596 -0.69993,1.02231 -0.0976,0.20649 -0.18485,0.44071 -0.23792,0.69179 -0.0516,0.24408 -0.0716,0.50736 -0.0351,0.7769 0.0369,0.27301 0.13049,0.54212 0.29361,0.79373 0.16968,0.26175 0.40285,0.48651 0.69011,0.67394 0.0147,0.01 0.0294,0.0188 0.0443,0.0277 0.12137,0.0726 0.25296,0.12544 0.39215,0.15949 0.14852,0.0363 0.3026,0.0506 0.45927,0.047 0.2983,-0.007 0.6097,-0.0784 0.92039,-0.18921 0.3046,-0.10865 0.61424,-0.25711 0.9154,-0.42559 0.30641,-0.17142 0.60521,-0.36421 0.88117,-0.55772 0.62843,-0.44068 1.12595,-0.87181 1.42938,-1.15721 0.16327,-0.15357 0.27546,-0.27006 0.34796,-0.35096 0.19534,-0.21798 0.17406,-0.28644 0.16034,-0.30223 -0.0157,-0.0181 -0.0748,-0.0429 -0.32361,0.10282 -0.0993,0.0582 -0.22076,0.13397 -0.41343,0.25623 -0.30463,0.1933 -0.91728,0.58863 -1.5294,0.92477 -0.2833,0.15557 -0.58055,0.30692 -0.87644,0.43689 -0.29225,0.12837 -0.57338,0.23156 -0.83339,0.29941 -0.26792,0.0699 -0.49231,0.0967 -0.67384,0.0872 -0.0932,-0.005 -0.1704,-0.0191 -0.23435,-0.039 -0.0592,-0.0184 -0.10779,-0.0418 -0.14874,-0.068 -0.005,-0.003 -0.0102,-0.007 -0.0152,-0.0101 -0.19815,-0.13377 -0.33748,-0.274 -0.43412,-0.41573 -0.092,-0.13501 -0.15022,-0.27843 -0.18099,-0.43181 -0.031,-0.15462 -0.0345,-0.32117 -0.0141,-0.49785 0.021,-0.18213 0.0662,-0.36646 0.12463,-0.54551 0.12962,-0.39746 0.3359,-0.79212 0.43383,-0.99331 0.0224,-0.046 0.0418,-0.0867 0.0587,-0.124 0.13653,-0.30015 0.0841,-0.4124 0.0462,-0.4469 z"
           id="path2293"
           sodipodi:nodetypes="csc"
           inkscape:path-effect="#path-effect2297"
           inkscape:original-d="m 298.43546,142.34527 c 0,0 -2.28562,2.51061 -0.28511,3.83441 1.46031,0.96633 5.29935,-2.36947 5.29935,-2.36947" />
        <path
           style="fill:#000000;fill-rule:nonzero;stroke:none;stroke-width:0.1;stroke-linecap:round;stroke-dasharray:none"
           d="m 305.61008,143.70789 c -0.0285,-0.0278 -0.16569,-0.0943 -0.42396,0.11646 -0.0317,0.0259 -0.0664,0.0565 -0.1036,0.0922 -0.17277,0.16543 -0.45423,0.49453 -0.66561,0.93748 -0.0917,0.19224 -0.17274,0.41198 -0.21938,0.64972 -0.0454,0.23152 -0.0586,0.48203 -0.0157,0.73985 0.0434,0.26117 0.14238,0.51758 0.30652,0.75834 0.17072,0.25042 0.4014,0.46861 0.68319,0.6552 0.0146,0.01 0.0292,0.019 0.044,0.028 0.12071,0.0735 0.25169,0.12797 0.39045,0.16469 0.14822,0.0392 0.30316,0.0576 0.4614,0.059 0.30214,0.003 0.62126,-0.0564 0.9425,-0.15387 0.31565,-0.0958 0.63838,-0.23038 0.9535,-0.38503 0.3212,-0.15763 0.63541,-0.3366 0.92584,-0.51713 0.66479,-0.41323 1.19173,-0.82133 1.50857,-1.09664 0.14854,-0.12908 0.25441,-0.23217 0.32655,-0.31239 0.22945,-0.25513 0.17448,-0.37982 0.15026,-0.40993 v 0 c -0.0265,-0.0329 -0.12925,-0.10655 -0.43031,0.0384 -0.0965,0.0465 -0.21887,0.11442 -0.38601,0.21238 -0.29151,0.17087 -0.95137,0.57744 -1.55537,0.89931 -0.28685,0.15286 -0.58795,0.30234 -0.88793,0.43152 -0.29556,0.12728 -0.58039,0.23068 -0.84428,0.29989 -0.27113,0.0711 -0.49993,0.10073 -0.68638,0.0942 -0.0957,-0.003 -0.17549,-0.0161 -0.24194,-0.0349 -0.0614,-0.0173 -0.1118,-0.0399 -0.15383,-0.0656 -0.005,-0.003 -0.0104,-0.006 -0.0155,-0.01 -0.2022,-0.13367 -0.34802,-0.27323 -0.4494,-0.41176 -0.0962,-0.13139 -0.15661,-0.26697 -0.19014,-0.40735 -0.0337,-0.14129 -0.0411,-0.29167 -0.0259,-0.45028 0.0157,-0.16377 0.0549,-0.32928 0.10744,-0.49058 0.1169,-0.35901 0.30914,-0.71256 0.40124,-0.89652 0.0209,-0.0418 0.039,-0.0789 0.0548,-0.11298 0.12703,-0.27472 0.0756,-0.38605 0.039,-0.42179 z"
           id="path2299"
           sodipodi:nodetypes="csc"
           inkscape:path-effect="#path-effect2303"
           inkscape:original-d="m 305.61008,143.70789 c 0,0 -2.18829,2.24643 -0.18778,3.57023 1.46031,0.96633 5.4523,-2.24433 5.4523,-2.24433" />
        <path
           style="fill:#000000;fill-rule:nonzero;stroke:none;stroke-width:0.1;stroke-linecap:round;stroke-dasharray:none"
           d="m 312.29032,145.07866 c -0.0302,-0.026 -0.17102,-0.0841 -0.41433,0.14045 -0.0299,0.0276 -0.0625,0.0601 -0.0972,0.0977 -0.16151,0.1749 -0.42047,0.51906 -0.60314,0.97376 -0.0793,0.19737 -0.14622,0.42157 -0.17811,0.66189 -0.031,0.23402 -0.0291,0.485 0.0284,0.74025 0.0582,0.25844 0.1706,0.50952 0.34634,0.74211 0.18286,0.24201 0.42322,0.44954 0.71284,0.62338 0.0168,0.0101 0.0337,0.0198 0.0508,0.0292 0.139,0.0765 0.28947,0.13174 0.44876,0.16773 0.17044,0.0385 0.34924,0.0546 0.53354,0.0521 0.35245,-0.005 0.72982,-0.0772 1.11586,-0.19447 0.37908,-0.11513 0.76939,-0.27435 1.15327,-0.45713 0.39112,-0.18623 0.77513,-0.39673 1.13143,-0.60884 0.81176,-0.48326 1.48118,-0.97411 1.86063,-1.28133 0.18484,-0.14965 0.3177,-0.26852 0.40945,-0.36034 0.29116,-0.2914 0.24458,-0.4224 0.22115,-0.45286 -0.026,-0.0338 -0.13264,-0.1042 -0.49362,0.0758 -0.11614,0.0579 -0.26384,0.14058 -0.46755,0.25929 -0.367,0.21385 -1.15111,0.68897 -1.90751,1.08516 -0.35319,0.18499 -0.72516,0.36696 -1.09667,0.52577 -0.36584,0.1564 -0.72106,0.28597 -1.05237,0.3755 -0.34001,0.0919 -0.6337,0.13581 -0.87849,0.13398 -0.12606,-9.5e-4 -0.23379,-0.014 -0.32539,-0.0359 -0.0849,-0.0203 -0.1553,-0.0481 -0.21422,-0.0806 -0.007,-0.004 -0.0145,-0.008 -0.0215,-0.0124 -0.20814,-0.12473 -0.3614,-0.25834 -0.47086,-0.39367 -0.10391,-0.12848 -0.17257,-0.2631 -0.21458,-0.4038 -0.0422,-0.14148 -0.0586,-0.2929 -0.0531,-0.45303 0.006,-0.16531 0.0345,-0.3332 0.0766,-0.4972 0.0937,-0.36487 0.26203,-0.72779 0.34155,-0.91589 0.018,-0.0427 0.0336,-0.0806 0.0471,-0.11544 0.10813,-0.27999 0.0499,-0.38772 0.011,-0.42116 z"
           id="path2305"
           sodipodi:nodetypes="csc"
           inkscape:path-effect="#path-effect2309"
           inkscape:original-d="m 312.29032,145.07866 c 0,0 -2.02864,2.35596 0.0285,3.58989 1.77493,1.06465 6.69111,-2.71626 6.69111,-2.71626" />
        <path
           style="fill:#000000;fill-rule:nonzero;stroke:none;stroke-width:0.1;stroke-linecap:round;stroke-dasharray:none"
           d="m 292.674,134.20451 c -0.0237,-0.0296 -0.16344,-0.10947 -0.48663,0.1135 -0.0395,0.0273 -0.083,0.0597 -0.12982,0.0975 -0.12269,0.0992 -0.2779,0.24368 -0.43609,0.42986 -0.13574,0.15977 -0.28051,0.35847 -0.40178,0.58741 -0.11258,0.21253 -0.20916,0.45919 -0.25431,0.72993 -0.0442,0.26493 -0.0386,0.55094 0.0473,0.84369 0.0867,0.29522 0.24904,0.5764 0.48993,0.83621 0.25001,0.26965 0.5762,0.50745 0.97002,0.71626 0.0162,0.009 0.0324,0.017 0.0487,0.0251 0.27757,0.1385 0.57823,0.21301 0.89568,0.22568 0.31289,0.0125 0.62796,-0.0356 0.93651,-0.12592 0.30179,-0.0883 0.59548,-0.21654 0.87229,-0.36538 0.28201,-0.15163 0.54714,-0.32504 0.78537,-0.49999 0.54257,-0.39844 0.95463,-0.80947 1.17398,-1.06754 0.10514,-0.1237 0.17665,-0.2236 0.22189,-0.30281 0.14862,-0.26026 0.0395,-0.3985 0.003,-0.431 -0.0395,-0.0354 -0.17782,-0.12299 -0.42306,0.0162 -0.0762,0.0433 -0.16903,0.10798 -0.29234,0.20075 -0.22461,0.16897 -0.70648,0.55873 -1.18127,0.87368 -0.22291,0.14787 -0.46034,0.29147 -0.70419,0.41501 -0.23995,0.12156 -0.47793,0.21953 -0.70866,0.28478 -0.23549,0.0666 -0.45174,0.0958 -0.64839,0.0886 -0.19629,-0.007 -0.37087,-0.0506 -0.52871,-0.12701 -0.009,-0.005 -0.0189,-0.009 -0.0283,-0.0142 -0.33071,-0.17209 -0.5737,-0.34956 -0.74672,-0.52551 -0.1636,-0.16636 -0.2619,-0.32839 -0.31775,-0.48269 -0.0557,-0.15397 -0.0737,-0.31268 -0.0609,-0.47754 0.0132,-0.17165 0.0596,-0.34635 0.12722,-0.51883 0.0725,-0.18483 0.16655,-0.35963 0.25988,-0.51406 0.10501,-0.17377 0.21855,-0.33645 0.29608,-0.44952 0.031,-0.0452 0.058,-0.085 0.0824,-0.12202 0.19669,-0.29911 0.17193,-0.41832 0.13843,-0.46021 z"
           id="path2355"
           sodipodi:nodetypes="csc"
           inkscape:path-effect="#path-effect2359"
           inkscape:original-d="m 292.674,134.20451 c 0,0 -2.97818,2.38137 0.01,3.95239 1.90739,1.00286 4.7263,-2.13984 4.7263,-2.13984" />
        <path
           style="fill:#000000;fill-rule:nonzero;stroke:none;stroke-width:0.1;stroke-linecap:round;stroke-dasharray:none"
           d="m 298.1758,137.13068 c -0.0393,-0.0115 -0.1935,0.001 -0.30553,0.22968 -0.0148,0.0301 -0.0299,0.0647 -0.045,0.10391 -0.0708,0.18347 -0.15967,0.52181 -0.16493,0.92913 -0.002,0.17595 0.0113,0.36949 0.0535,0.56605 0.0409,0.19102 0.10943,0.38791 0.21861,0.57394 0.11064,0.1885 0.25952,0.35965 0.45218,0.49865 0.20098,0.14502 0.43447,0.24418 0.69278,0.29957 0.0141,0.003 0.0282,0.006 0.0422,0.008 0.1145,0.0207 0.2315,0.0263 0.34965,0.0188 0.1263,-0.008 0.25277,-0.0312 0.37825,-0.0664 0.23959,-0.0671 0.47835,-0.17878 0.71011,-0.3171 0.45755,-0.27309 0.90067,-0.65812 1.26685,-1.02598 0.42242,-0.42436 0.73626,-0.81561 0.91716,-1.07481 0.0918,-0.13158 0.15161,-0.23237 0.18757,-0.30724 0.10503,-0.2187 0.0248,-0.31182 -0.003,-0.33421 -0.0298,-0.0239 -0.1324,-0.0786 -0.32611,0.0537 -0.0679,0.0464 -0.15352,0.11562 -0.2715,0.21849 -0.23002,0.20055 -0.58116,0.53258 -1.01173,0.89026 -0.38191,0.31725 -0.7935,0.62341 -1.18309,0.82691 -0.19484,0.10177 -0.36665,0.16855 -0.51467,0.20362 -0.0762,0.018 -0.14249,0.0268 -0.19986,0.0289 -0.0533,0.002 -0.0982,-0.002 -0.13639,-0.009 -0.005,-8.9e-4 -0.009,-0.002 -0.014,-0.003 -0.15364,-0.0333 -0.27336,-0.085 -0.36863,-0.14743 -0.0911,-0.0597 -0.16728,-0.13409 -0.23175,-0.22452 -0.0651,-0.0913 -0.11821,-0.19899 -0.16055,-0.3219 -0.0436,-0.12661 -0.0733,-0.26216 -0.0937,-0.39897 -0.0439,-0.29474 -0.0455,-0.63876 -0.054,-0.79454 -0.002,-0.0376 -0.004,-0.071 -0.008,-0.10127 -0.0246,-0.24387 -0.12943,-0.30978 -0.17676,-0.32368 z"
           id="path2361"
           sodipodi:nodetypes="csc"
           inkscape:path-effect="#path-effect2365"
           inkscape:original-d="m 298.1758,137.13068 c 0,0 -0.702,2.39073 0.99721,2.75662 1.38942,0.29919 3.753,-2.6543 3.753,-2.6543" />
        <path
           style="fill:#000000;fill-rule:nonzero;stroke:none;stroke-width:0.1;stroke-linecap:round;stroke-dasharray:none"
           d="m 305.10952,137.47876 c -0.0337,-0.0202 -0.17675,-0.0655 -0.33723,0.13276 -0.0197,0.0244 -0.0406,0.053 -0.0621,0.0863 -0.10016,0.15474 -0.24345,0.45791 -0.293,0.8695 -0.0426,0.35367 -0.0147,0.79225 0.19102,1.24893 0.1012,0.22469 0.24136,0.44436 0.42507,0.65362 0.19167,0.2183 0.4239,0.41751 0.69437,0.59662 0.0151,0.01 0.0302,0.0196 0.0456,0.0288 0.1253,0.0756 0.26161,0.12895 0.40577,0.16158 0.15395,0.0349 0.31359,0.0454 0.4754,0.0371 0.30842,-0.0159 0.63238,-0.10094 0.95648,-0.22696 0.31891,-0.124 0.64513,-0.29055 0.96374,-0.47834 0.32485,-0.19147 0.64296,-0.40573 0.93718,-0.62017 0.67347,-0.49087 1.20816,-0.96732 1.52895,-1.28501 0.15042,-0.14896 0.25738,-0.26674 0.32997,-0.35729 0.23099,-0.28816 0.16967,-0.41082 0.14346,-0.43917 -0.0288,-0.0311 -0.1384,-0.0953 -0.44898,0.0883 -0.0995,0.0588 -0.22522,0.14258 -0.3968,0.26217 -0.30246,0.21081 -0.97172,0.6977 -1.59233,1.0933 -0.29326,0.18693 -0.60095,0.37103 -0.90724,0.5327 -0.30184,0.15933 -0.59231,0.29157 -0.86076,0.38472 -0.27627,0.0959 -0.50665,0.14243 -0.6913,0.14707 -0.0944,0.002 -0.17115,-0.006 -0.23322,-0.0215 -0.0572,-0.014 -0.10282,-0.0336 -0.14038,-0.0564 -0.005,-0.003 -0.009,-0.006 -0.0139,-0.009 -0.21457,-0.14186 -0.38881,-0.28905 -0.52904,-0.43928 -0.13382,-0.14336 -0.23488,-0.28757 -0.31099,-0.43016 -0.15366,-0.28789 -0.2078,-0.57393 -0.21884,-0.83296 -0.0124,-0.28972 0.0323,-0.57361 0.0473,-0.71596 0.003,-0.0328 0.006,-0.0619 0.008,-0.0885 0.0127,-0.2126 -0.0729,-0.29708 -0.11588,-0.32285 z"
           id="path2367"
           sodipodi:nodetypes="csc"
           inkscape:path-effect="#path-effect2371"
           inkscape:original-d="m 305.10952,137.47876 c 0,0 -1.13156,1.88492 0.86895,3.20872 1.46031,0.96633 5.53573,-2.8005 5.53573,-2.8005" />
        <path
           style="fill:#000000;fill-rule:nonzero;stroke:none;stroke-width:0.1;stroke-linecap:round;stroke-dasharray:none"
           d="m 313.70301,137.66325 c -0.039,-0.002 -0.18772,0.0462 -0.23712,0.43242 -0.006,0.0478 -0.0111,0.10224 -0.0146,0.16338 -0.0161,0.28686 0.001,0.80205 0.15019,1.40193 0.1271,0.51125 0.35539,1.09992 0.75781,1.61588 0.19967,0.25599 0.43822,0.48889 0.72075,0.68415 0.2956,0.2043 0.62705,0.35888 0.99219,0.45968 0.0184,0.005 0.0369,0.01 0.0553,0.0144 0.31498,0.0767 0.63965,0.0689 0.96542,-0.0129 0.32015,-0.0804 0.62986,-0.22934 0.92396,-0.42119 0.28816,-0.18798 0.56236,-0.41787 0.81691,-0.66589 0.25944,-0.25279 0.49925,-0.52521 0.71231,-0.79183 0.48536,-0.6074 0.83862,-1.19055 1.02044,-1.54476 0.087,-0.1695 0.14362,-0.30213 0.17668,-0.40351 0.10833,-0.33221 -0.0267,-0.44643 -0.0696,-0.46974 -0.0469,-0.0255 -0.20412,-0.0728 -0.43705,0.1671 -0.0724,0.0746 -0.15854,0.17856 -0.27174,0.32389 -0.20693,0.26569 -0.64334,0.86149 -1.0863,1.37184 -0.20774,0.23934 -0.43159,0.47879 -0.66546,0.69729 -0.23025,0.21512 -0.46237,0.4026 -0.69193,0.54976 -0.23483,0.15053 -0.45263,0.24966 -0.65209,0.30046 -0.19799,0.0504 -0.37236,0.052 -0.53011,0.0156 -0.009,-0.002 -0.019,-0.005 -0.0286,-0.007 -0.27282,-0.0725 -0.5157,-0.18097 -0.73272,-0.32192 -0.20805,-0.13512 -0.39092,-0.29918 -0.5523,-0.48706 -0.32937,-0.38345 -0.55083,-0.84484 -0.70619,-1.28651 -0.17192,-0.48877 -0.27247,-0.99464 -0.32698,-1.23243 -0.0127,-0.0556 -0.0244,-0.10426 -0.0357,-0.14801 -0.0903,-0.34922 -0.2023,-0.40286 -0.25348,-0.40489 z"
           id="path2373"
           sodipodi:nodetypes="csc"
           inkscape:path-effect="#path-effect2377"
           inkscape:original-d="m 313.70301,137.66325 c 0,0 -0.14324,3.60437 2.4883,4.31913 2.07962,0.56486 4.48229,-3.85719 4.48229,-3.85719" />
        <path
           style="fill:#000000;fill-rule:nonzero;stroke:none;stroke-width:0.1;stroke-linecap:round;stroke-dasharray:none"
           d="m 321.15661,140.6896 c -0.0363,-0.0155 -0.18492,-0.0382 -0.32251,0.19152 -0.0169,0.0282 -0.0344,0.061 -0.052,0.0984 -0.0815,0.17366 -0.18964,0.50761 -0.1847,0.92732 0.002,0.18288 0.0261,0.38475 0.0876,0.59409 0.0599,0.20397 0.15454,0.41183 0.29551,0.61128 0.14206,0.201 0.32518,0.385 0.55237,0.5451 0.23673,0.16683 0.51216,0.30132 0.82247,0.40417 0.0185,0.006 0.037,0.0119 0.0556,0.0173 0.15123,0.044 0.30955,0.0659 0.47279,0.0683 0.17472,0.003 0.35412,-0.0172 0.53622,-0.0553 0.34847,-0.0728 0.71182,-0.21353 1.0781,-0.39873 0.35961,-0.18181 0.72386,-0.40748 1.07802,-0.65424 0.36097,-0.25152 0.71098,-0.52461 1.03315,-0.79406 0.73698,-0.61636 1.31139,-1.19346 1.65464,-1.57298 0.16085,-0.17784 0.27472,-0.31671 0.35185,-0.42219 0.24482,-0.33478 0.1788,-0.45706 0.15097,-0.48359 -0.0308,-0.0294 -0.14718,-0.0827 -0.47832,0.15301 -0.10646,0.0758 -0.24075,0.18137 -0.42514,0.33169 -0.32921,0.26837 -1.04281,0.87096 -1.73392,1.3885 -0.32403,0.24265 -0.66778,0.48646 -1.01526,0.70862 -0.34213,0.21875 -0.67885,0.41073 -0.99894,0.56058 -0.32838,0.15375 -0.62011,0.25413 -0.87168,0.30138 -0.12971,0.0244 -0.24336,0.0336 -0.34234,0.0309 -0.0919,-0.002 -0.16964,-0.0152 -0.23586,-0.0345 -0.008,-0.002 -0.0162,-0.005 -0.0242,-0.008 -0.24185,-0.08 -0.43947,-0.1755 -0.60046,-0.28148 -0.1533,-0.10094 -0.27219,-0.21055 -0.36536,-0.32434 -0.0928,-0.11331 -0.16219,-0.23335 -0.21427,-0.35711 -0.0539,-0.12806 -0.0889,-0.25934 -0.11149,-0.38844 -0.0505,-0.28841 -0.0387,-0.58534 -0.0396,-0.74085 -2e-4,-0.035 -8.1e-4,-0.0661 -0.002,-0.0945 -0.0107,-0.22762 -0.10449,-0.30246 -0.1511,-0.32241 z"
           id="path2379"
           sodipodi:nodetypes="csc"
           inkscape:path-effect="#path-effect2383"
           inkscape:original-d="m 321.15661,140.6896 c 0,0 -0.9357,2.18653 1.34156,2.94052 1.96485,0.65055 6.26847,-3.86404 6.26847,-3.86404" />
        <path
           style="fill:#000000;fill-rule:nonzero;stroke:none;stroke-width:0.1;stroke-linecap:round;stroke-dasharray:none"
           d="m 308.71553,129.99277 h 0 c -0.0405,-0.006 -0.19155,0.0299 -0.27136,0.2772 -0.0105,0.0327 -0.0208,0.07 -0.0305,0.11206 -0.0455,0.19743 -0.0872,0.55365 -0.0387,0.97205 0.021,0.1807 0.0596,0.37703 0.12579,0.57343 0.0643,0.19078 0.15545,0.38427 0.28362,0.56332 0.12969,0.18118 0.29416,0.34312 0.49808,0.47033 0.21316,0.13297 0.45443,0.21863 0.71745,0.25745 0.0196,0.003 0.0392,0.006 0.0586,0.008 0.33102,0.0411 0.66538,0.0169 0.99816,-0.0693 0.32804,-0.085 0.64141,-0.22684 0.93703,-0.40814 0.58193,-0.35691 1.08208,-0.85963 1.47062,-1.33768 0.44401,-0.5463 0.74929,-1.06622 0.90594,-1.37926 0.0827,-0.16535 0.13392,-0.29132 0.1624,-0.38167 0.0834,-0.26465 -0.0135,-0.34545 -0.0445,-0.36166 -0.0348,-0.0182 -0.14496,-0.0481 -0.32856,0.14267 -0.0654,0.0679 -0.14431,0.16229 -0.25689,0.30229 -0.19365,0.24083 -0.57357,0.73177 -1.00329,1.18125 -0.39798,0.4163 -0.85452,0.81781 -1.34309,1.08853 -0.24398,0.13518 -0.48244,0.2302 -0.71483,0.28378 -0.2335,0.0538 -0.45572,0.0647 -0.66978,0.0374 -0.0127,-0.002 -0.0255,-0.003 -0.0384,-0.005 -0.15384,-0.0231 -0.28002,-0.0678 -0.38592,-0.12775 -0.10177,-0.0576 -0.19143,-0.13311 -0.27145,-0.22749 -0.0804,-0.0948 -0.14982,-0.20738 -0.20961,-0.33493 -0.0615,-0.13128 -0.10982,-0.27191 -0.14871,-0.41307 -0.0831,-0.30178 -0.13246,-0.66116 -0.16165,-0.81696 -0.007,-0.0382 -0.0141,-0.0721 -0.0213,-0.10265 -0.0576,-0.24524 -0.17046,-0.29674 -0.21928,-0.30387 z"
           id="path2439"
           sodipodi:nodetypes="csc"
           inkscape:path-effect="#path-effect2443"
           inkscape:original-d="m 308.71553,129.99277 c 0,0 -0.36815,2.52096 1.35115,2.77628 2.41193,0.35818 4.42157,-3.48017 4.42157,-3.48017" />
        <path
           style="fill:#000000;fill-rule:nonzero;stroke:none;stroke-width:0.1;stroke-linecap:round;stroke-dasharray:none"
           d="m 316.50234,130.15008 h 0 c -0.0405,-0.006 -0.19152,0.0294 -0.27136,0.2772 -0.0105,0.0327 -0.0208,0.07 -0.0305,0.11206 -0.0454,0.1973 -0.0871,0.55355 -0.0386,0.97203 0.021,0.18068 0.0596,0.37701 0.12575,0.57341 0.0643,0.19078 0.15543,0.38426 0.28358,0.56332 0.12967,0.18118 0.29413,0.34314 0.49803,0.47035 0.21317,0.13299 0.45444,0.21865 0.71744,0.25747 0.0189,0.003 0.0377,0.005 0.0564,0.008 0.31734,0.041 0.63489,0.032 0.94896,-0.0274 0.3103,-0.0588 0.60373,-0.16427 0.87812,-0.30462 0.54186,-0.27717 0.98268,-0.67636 1.31478,-1.0587 0.37879,-0.43611 0.62106,-0.85394 0.74009,-1.10583 0.063,-0.13331 0.0994,-0.2355 0.1177,-0.30923 0.0536,-0.21665 -0.0478,-0.29036 -0.079,-0.30587 -0.0349,-0.0174 -0.14337,-0.0509 -0.29551,0.0893 -0.0542,0.0499 -0.11839,0.12053 -0.20936,0.22576 -0.1566,0.18116 -0.46139,0.55149 -0.81765,0.8869 -0.32948,0.3102 -0.71496,0.60569 -1.14744,0.79971 -0.21615,0.097 -0.43526,0.16464 -0.6579,0.2002 -0.22455,0.0358 -0.44902,0.0385 -0.6752,0.009 -0.0134,-0.002 -0.0269,-0.004 -0.0405,-0.006 -0.15383,-0.0231 -0.28002,-0.0678 -0.38593,-0.12773 -0.10178,-0.0576 -0.19146,-0.13309 -0.27149,-0.22747 -0.0804,-0.0949 -0.14986,-0.20738 -0.20966,-0.33493 -0.0616,-0.13129 -0.10985,-0.27192 -0.14875,-0.41309 -0.0832,-0.30195 -0.13244,-0.66121 -0.16156,-0.81698 -0.007,-0.0383 -0.0141,-0.0722 -0.0212,-0.10265 -0.0575,-0.24545 -0.17053,-0.29675 -0.21928,-0.30387 z"
           id="path2445"
           sodipodi:nodetypes="csc"
           inkscape:path-effect="#path-effect2449"
           inkscape:original-d="m 316.50234,130.15008 c 0,0 -0.36815,2.52096 1.35115,2.77628 2.41193,0.35818 3.91031,-2.6543 3.91031,-2.6543" />
        <path
           style="fill:#000000;fill-rule:nonzero;stroke:none;stroke-width:0.1;stroke-linecap:round;stroke-dasharray:none"
           d="m 323.54193,130.09109 c -0.0413,-0.003 -0.18487,0.03 -0.25782,0.34021 -0.009,0.0383 -0.0175,0.0818 -0.0252,0.13065 -0.0362,0.23008 -0.0608,0.63883 0.006,1.10517 0.0288,0.20123 0.0756,0.41762 0.14925,0.63052 0.0715,0.20647 0.16995,0.4145 0.30583,0.603 0.13757,0.19085 0.31238,0.35994 0.53069,0.4845 0.22907,0.1307 0.48609,0.20092 0.76211,0.21165 0.0305,0.001 0.0608,0.002 0.0909,0.003 0.51011,0.009 0.99505,-0.0756 1.44682,-0.25922 0.44672,-0.18155 0.83702,-0.45 1.17462,-0.78109 0.32896,-0.32261 0.59997,-0.69683 0.82301,-1.09028 0.22666,-0.39982 0.40327,-0.81863 0.54056,-1.2212 0.30961,-0.9079 0.42969,-1.75984 0.46886,-2.24917 0.0208,-0.26011 0.0225,-0.45558 0.0155,-0.58896 -0.0207,-0.39297 -0.14623,-0.43933 -0.17963,-0.44091 -0.0415,-0.002 -0.14899,0.0311 -0.25046,0.39486 -0.0376,0.13469 -0.0744,0.29595 -0.13405,0.55011 -0.10471,0.44638 -0.29746,1.26683 -0.62556,2.07125 -0.14788,0.36257 -0.32487,0.72743 -0.53749,1.06667 -0.20931,0.33396 -0.44712,0.63346 -0.71723,0.88168 -0.27541,0.25309 -0.57717,0.44632 -0.90907,0.57419 -0.33498,0.12906 -0.69983,0.19124 -1.09893,0.18336 -0.0237,-4.6e-4 -0.0476,-0.001 -0.0717,-0.002 -0.14502,-0.006 -0.26304,-0.0388 -0.36312,-0.0902 -0.0973,-0.05 -0.18864,-0.12345 -0.27474,-0.22548 -0.0866,-0.10257 -0.16378,-0.22939 -0.23211,-0.37688 -0.0702,-0.15143 -0.1268,-0.31571 -0.17354,-0.48108 -0.0998,-0.35322 -0.16676,-0.77747 -0.20352,-0.96042 -0.009,-0.0449 -0.0176,-0.0847 -0.0263,-0.12044 -0.0695,-0.28717 -0.18403,-0.33878 -0.23354,-0.3429 z"
           id="path2451"
           sodipodi:nodetypes="csc"
           inkscape:path-effect="#path-effect2455"
           inkscape:original-d="m 323.54193,130.09109 c 0,0 -0.24798,2.98253 1.4888,3.05157 4.06368,0.16154 4.36257,-6.1741 4.36257,-6.1741" />
        <path
           style="fill:#000000;fill-rule:nonzero;stroke:none;stroke-width:0.1;stroke-linecap:round;stroke-dasharray:none"
           d="m 308.63288,152.19691 v 0 c -0.0309,-0.0242 -0.18664,-0.0629 -0.47533,0.25178 -0.0355,0.0387 -0.0741,0.0836 -0.11529,0.1348 -0.19063,0.23713 -0.49992,0.69458 -0.69583,1.24732 -0.0852,0.24036 -0.15237,0.50956 -0.16957,0.78849 -0.0168,0.27198 0.0137,0.55957 0.12688,0.83755 0.0565,0.13877 0.13233,0.27187 0.22932,0.39646 0.0981,0.12597 0.21521,0.23999 0.35067,0.3412 0.28124,0.21012 0.63132,0.35771 1.03616,0.45203 0.0522,0.0121 0.10428,0.0237 0.15632,0.0346 0.88267,0.18551 1.81243,0.21349 2.78316,0.0881 0.96182,-0.12428 1.93376,-0.39527 2.90108,-0.7804 1.9203,-0.76456 3.73143,-1.94294 5.24509,-3.11907 1.71493,-1.33252 3.05095,-2.66308 3.77681,-3.44088 0.35605,-0.38154 0.6164,-0.684 0.79093,-0.90005 0.55962,-0.69274 0.50977,-0.8593 0.48442,-0.88094 -0.0365,-0.0311 -0.17743,-0.0303 -0.82373,0.56265 -0.2054,0.18846 -0.4846,0.45357 -0.86327,0.80683 -0.74757,0.69739 -2.15029,1.99005 -3.83293,3.2359 -1.51065,1.11851 -3.26843,2.21846 -5.096,2.92213 -0.91732,0.3532 -1.81916,0.59378 -2.69497,0.70125 -0.88208,0.10824 -1.70932,0.078 -2.48357,-0.0849 -0.0457,-0.01 -0.0915,-0.0198 -0.13734,-0.0304 -0.31952,-0.0742 -0.54945,-0.1768 -0.71236,-0.29141 -0.0777,-0.0547 -0.14027,-0.1121 -0.19093,-0.17111 -0.05,-0.0583 -0.0904,-0.12033 -0.12245,-0.1864 -0.0644,-0.13279 -0.0987,-0.28906 -0.10305,-0.47038 -0.004,-0.18741 0.0235,-0.38877 0.0722,-0.59325 0.10927,-0.4588 0.32557,-0.92862 0.43605,-1.18171 0.0246,-0.0563 0.046,-0.10601 0.065,-0.15182 0.15261,-0.36871 0.10432,-0.48558 0.0625,-0.51833 z"
           id="path2457"
           sodipodi:nodetypes="csc"
           inkscape:path-effect="#path-effect2461"
           inkscape:original-d="m 308.63288,152.19691 c 0,0 -2.59667,3.31201 0.39001,4.00702 7.28363,1.69491 16.03481,-8.55607 16.03481,-8.55607" />
        <path
           style="fill:#000000;fill-rule:nonzero;stroke:none;stroke-width:0.1;stroke-linecap:round;stroke-dasharray:none"
           d="m 277.63271,154.15369 c -0.0267,-0.0287 -0.18028,-0.0858 -0.55581,0.21885 -0.0462,0.0375 -0.0972,0.0813 -0.15244,0.13158 -0.25718,0.23425 -0.68705,0.68755 -1.03244,1.25787 -0.14982,0.24739 -0.28867,0.52564 -0.38275,0.81963 -0.0917,0.28662 -0.14339,0.59454 -0.1154,0.90948 0.014,0.15777 0.0481,0.31534 0.10611,0.46966 0.0588,0.15619 0.14057,0.30492 0.24607,0.44411 0.10748,0.1418 0.23697,0.27031 0.38641,0.38563 0.15385,0.11872 0.32759,0.22251 0.51857,0.31269 0.0219,0.0103 0.044,0.0198 0.0662,0.0286 0.0807,0.0317 0.16419,0.0534 0.24928,0.0666 0.10538,0.0164 0.21302,0.0197 0.32121,0.0128 0.20769,-0.0132 0.42586,-0.0644 0.64944,-0.14196 0.42726,-0.14826 0.90826,-0.40503 1.42106,-0.7348 0.5035,-0.32378 1.04054,-0.71995 1.58364,-1.15343 0.55195,-0.44054 1.10616,-0.91644 1.6291,-1.38582 1.18991,-1.06804 2.18092,-2.06297 2.79027,-2.71049 0.32589,-0.34631 0.55111,-0.60242 0.69853,-0.78457 0.39757,-0.49121 0.34613,-0.62847 0.31845,-0.65521 -0.0302,-0.0292 -0.16181,-0.0697 -0.6486,0.32598 -0.18499,0.15038 -0.43004,0.36494 -0.7871,0.68484 -0.57079,0.5114 -1.75075,1.58896 -2.88641,2.54838 -0.52929,0.44715 -1.0835,0.89914 -1.63011,1.31567 -0.53912,0.41082 -1.05899,0.77811 -1.53582,1.07285 -0.49154,0.30383 -0.90894,0.51283 -1.24338,0.62386 -0.17322,0.0575 -0.30966,0.0838 -0.41364,0.0894 -0.0529,0.003 -0.0942,1.4e-4 -0.1258,-0.005 -0.0252,-0.004 -0.044,-0.01 -0.0579,-0.0151 -0.004,-0.002 -0.007,-0.003 -0.0107,-0.005 -0.14166,-0.0667 -0.2595,-0.13746 -0.35674,-0.21045 -0.094,-0.0705 -0.16812,-0.14271 -0.2264,-0.21509 -0.0569,-0.0707 -0.10035,-0.14359 -0.13266,-0.21883 -0.032,-0.0746 -0.0543,-0.15436 -0.067,-0.24012 -0.0256,-0.17363 -0.0112,-0.3708 0.0417,-0.58919 0.0543,-0.22443 0.14547,-0.45567 0.25579,-0.68211 0.24642,-0.50576 0.60065,-1.00284 0.77926,-1.2633 0.0402,-0.0587 0.0754,-0.11039 0.10686,-0.15805 0.25311,-0.38304 0.22922,-0.51166 0.19313,-0.55037 z"
           id="path2463"
           sodipodi:nodetypes="csc"
           inkscape:path-effect="#path-effect2467"
           inkscape:original-d="m 277.63271,154.15369 c 0,0 -3.49731,3.26052 -0.78782,4.53851 1.87196,0.88295 9.53333,-7.04726 9.53333,-7.04726" />
        <path
           style="fill:#000000;fill-rule:nonzero;stroke:none;stroke-width:0.1;stroke-linecap:round;stroke-dasharray:none"
           d="m 281.88743,157.85224 c -0.036,-0.0215 -0.17337,-0.0631 -0.33741,0.11707 -0.0202,0.0222 -0.0416,0.0481 -0.0639,0.0781 -0.1043,0.13976 -0.25795,0.41003 -0.34475,0.75724 -0.0376,0.15026 -0.0636,0.32067 -0.0615,0.50012 0.002,0.1747 0.0309,0.36131 0.10445,0.5453 0.0747,0.18681 0.19146,0.36038 0.355,0.50874 0.1695,0.15377 0.37594,0.26853 0.60911,0.34846 0.0209,0.007 0.0418,0.0137 0.0628,0.0197 0.17075,0.0485 0.35028,0.0606 0.53251,0.0459 0.19439,-0.0157 0.39608,-0.0623 0.60186,-0.13189 0.39283,-0.13283 0.82078,-0.35646 1.26712,-0.64059 0.43785,-0.27873 0.89567,-0.61726 1.35234,-0.9858 0.46416,-0.37457 0.92431,-0.77788 1.35484,-1.17484 0.97998,-0.90356 1.77817,-1.74212 2.26445,-2.28904 0.2603,-0.29275 0.43793,-0.50963 0.55252,-0.66453 0.30968,-0.41861 0.24633,-0.54558 0.21809,-0.57155 v 0 c -0.0308,-0.0283 -0.15518,-0.0752 -0.55529,0.24954 -0.15164,0.12308 -0.35148,0.30056 -0.64189,0.56608 -0.46033,0.42088 -1.42623,1.32513 -2.35843,2.12426 -0.43602,0.37378 -0.89492,0.75185 -1.35205,1.10093 -0.45091,0.34432 -0.88953,0.65236 -1.29805,0.90059 -0.42083,0.2557 -0.78523,0.43291 -1.08671,0.52983 -0.15591,0.0501 -0.28464,0.0754 -0.38881,0.0828 -0.0967,0.007 -0.16565,-0.002 -0.21401,-0.0159 -0.006,-0.002 -0.0117,-0.003 -0.0172,-0.005 -0.14083,-0.048 -0.24007,-0.10507 -0.31112,-0.16265 -0.0669,-0.0542 -0.11615,-0.11466 -0.15292,-0.18277 -0.0377,-0.0698 -0.0648,-0.15242 -0.0804,-0.25001 -0.0162,-0.10085 -0.0189,-0.20982 -0.0126,-0.32237 0.0136,-0.24285 0.0759,-0.5265 0.0974,-0.66287 0.005,-0.0322 0.009,-0.0612 0.0118,-0.0878 0.022,-0.21377 -0.0646,-0.30126 -0.10703,-0.32663 z"
           id="path2469"
           sodipodi:nodetypes="csc"
           inkscape:path-effect="#path-effect2473"
           inkscape:original-d="m 281.88743,157.85224 c 0,0 -1.13358,1.89789 0.40795,2.42505 1.9584,0.66971 8.05947,-5.96272 8.05947,-5.96272" />
        <path
           style="fill:#ffffff;stroke:#000000;stroke-width:0.600001;stroke-linecap:round;stroke-dasharray:none"
           d="m 315.01191,170.36599 c 0,0 2.91023,-1.69107 6.76431,-3.22484 3.85408,-1.53376 8.33739,-4.05071 8.18007,-4.99457 -0.1573,-0.94385 -0.66855,-5.4665 -0.47191,-6.72497 0.19664,-1.25848 0.98316,-4.44399 1.02251,-4.6013 0.0393,-0.15731 1.16654,-1.29335 1.77834,-1.90514 0.61177,-0.61179 1.3626,-1.50167 1.6129,-1.64071 0.25027,-0.13904 3.19799,-2.08565 3.44826,-2.2525 0.25027,-0.16685 0.83426,-1.05673 0.94549,-1.16796 0.11123,-0.11123 1.91881,-0.80645 2.2525,-1.05673 0.3337,-0.25028 1.6129,-1.25138 1.6129,-1.25138 0,0 1.30702,0.0278 1.41825,-0.0278 0.11123,-0.0556 2.47497,-1.30701 2.614,-1.33482 0.13904,-0.0278 2.00221,0.0278 2.00221,0.0278 0,0 0.75084,-0.77864 0.8899,-0.77864 0.13904,0 1.22357,0.25028 1.64071,0.27809 0.41711,0.0278 1.9744,-0.50056 2.08563,-0.55618 0.11123,-0.0556 0.80645,0.36152 1.64071,0.3059 0.83426,-0.0556 1.80755,-0.41713 1.80755,-0.41713 0,0 1.05675,0.72302 1.89101,0.69522 0.83425,-0.0278 2.86427,-0.66741 2.86427,-0.66741 0,0 -0.94549,2.61401 -0.94549,2.83648 0,0.22247 -0.19465,1.58509 -0.16685,1.77975 0.0278,0.19466 -0.30588,1.41824 -0.41714,1.69633 -0.11123,0.27808 0,1.19577 0,1.19577 0,0 -0.25027,1.11234 -0.25027,1.58509 0,0.47274 0.11123,1.22358 0.11123,1.22358 0,0 -0.61177,1.41824 -0.72302,1.80756 -0.11123,0.38932 -0.44493,2.2803 -0.44493,2.2803 0,0 -0.55618,1.11235 -0.6396,1.41824 -0.0834,0.3059 -0.55618,1.75195 -0.55618,1.75195 0,0 -0.91768,0.94549 -1.25137,1.55728 -0.33372,0.61179 -1.08456,2.11345 -1.08456,2.11345 0,0 -1.3626,1.08454 -1.75194,1.52948 -0.3893,0.44494 -1.14014,0.9733 -1.3626,1.33481 -0.22249,0.36151 -2.44716,2.33593 -3.8376,2.91991 -1.39044,0.58398 -4.44939,1.44605 -7.06339,1.05673 -2.61401,-0.38933 -7.20244,-1.6129 -8.0367,-1.86318 -0.83425,-0.25028 -1.66851,-0.86207 -2.91991,-0.19466 -1.25137,0.66741 -2.03002,1.22358 -4.39375,2.53058 -2.36374,1.30701 -6.00665,3.11457 -6.00665,3.11457 z"
           id="path2718" />
        <path
           style="fill:#000000;stroke:#000000;stroke-width:0.1;stroke-linecap:round;stroke-dasharray:none"
           d="m 332.59111,162.2355 c 0,0 8.87095,-5.95105 11.20688,-7.92546 2.33593,-1.97441 6.14572,-5.28364 8.17573,-7.23024 2.03004,-1.9466 2.89211,-3.00333 2.89211,-3.00333 0,0 0.20857,0.61179 -1.20968,2.04393 -1.41824,1.43215 -9.52447,9.05171 -11.35983,10.49776 -1.83536,1.44605 -8.62068,6.06228 -8.62068,6.06228 z"
           id="path2799" />
        <path
           style="fill:#000000;stroke:#000000;stroke-width:0.1;stroke-linecap:round;stroke-dasharray:none"
           d="m 332.91568,162.10726 c 0,0 0.40312,-0.059 0.76689,-2.03519 0.36378,-1.9762 0.33428,-2.85124 0.54073,-3.47064 0.20648,-0.61941 0.50144,-1.19949 0.56042,-1.13066 0.059,0.0688 0.0983,1.16015 -0.0393,2.54644 -0.13764,1.38629 -0.12782,3.28383 -0.12782,3.28383 l -1.20931,0.81605 z"
           id="path2801" />
        <path
           style="fill:#000000;stroke:#000000;stroke-width:0.1;stroke-linecap:round;stroke-dasharray:none"
           d="m 334.97054,161.66482 c 0,0 4.08022,0.72756 4.08022,0.95369 0,0.22613 -5.07323,-0.4326 -5.07323,-0.4326 z"
           id="path2803" />
        <path
           style="fill:#000000;stroke:#000000;stroke-width:0.1;stroke-linecap:round;stroke-dasharray:none"
           d="m 342.25592,156.5621 c 0,0 1.92704,-0.01 4.38499,-0.0197 2.45796,-0.01 3.78526,-0.11798 3.83442,0.0295 0.0492,0.14748 -3.50996,0.62923 -5.32884,0.62923 -1.8189,0 -3.92292,-0.0786 -3.92292,-0.0786 z"
           id="path2805" />
        <path
           style="fill:#000000;stroke:#000000;stroke-width:0.1;stroke-linecap:round;stroke-dasharray:none"
           d="m 340.37804,157.15201 c 0,0 0.23596,0.13765 0.72755,-2.3793 0.4916,-2.51695 1.25849,-5.87944 1.35681,-6.48901 0.0983,-0.60958 0.51126,-2.4383 0.60957,-2.41863 0.0983,0.0197 -1.0225,6.62665 -1.08151,7.68849 -0.059,1.06184 -0.0787,2.59561 -0.0787,2.59561 z"
           id="path2807" />
        <path
           style="fill:#000000;stroke:#000000;stroke-width:0.1;stroke-linecap:round;stroke-dasharray:none"
           d="m 347.90922,150.95796 c 0,0 0.60957,-1.1405 0.72755,-2.16301 0.118,-1.02251 0.0787,-1.98603 0.3343,-2.91022 0.25562,-0.92419 0.58992,-1.88771 0.72755,-1.88771 0.13764,0 -0.35396,2.30065 -0.49159,3.61811 -0.13764,1.31747 0.0196,2.24166 0.0196,2.24166 z"
           id="path2809" />
        <path
           style="fill:#000000;stroke:#000000;stroke-width:0.1;stroke-linecap:round;stroke-dasharray:none"
           d="m 349.03005,150.21074 c 0,0 4.93559,-0.84554 4.95525,-0.53092 0.0196,0.31462 -5.58448,1.21915 -5.58448,1.21915 z"
           id="path2811" />
        <path
           style="fill:#ffffff;stroke:#000000;stroke-width:0.5;stroke-linecap:round;stroke-dasharray:none"
           d="m 324.88813,167.99189 5.1446,1.89098 c 0,0 2.69743,-1.80756 4.64404,-1.86317 1.9466,-0.0556 4.50499,0.38932 4.50499,0.38932 l -0.80644,0.38931 c 0,0 1.05672,0.27809 2.39154,1.11235 1.33481,0.83426 2.32201,2.01613 2.32201,2.01613 0,0 -2.23859,-0.6257 -4.24081,-0.0139 -2.00222,0.61179 -3.00333,1.41824 -4.31034,1.22358 -1.307,-0.19466 -1.86317,-0.6396 -1.86317,-0.6396 0,0 2.11345,1.86318 2.80867,3.50389 0.69521,1.64071 0.88987,2.5862 1.69632,3.47608 0.80645,0.88987 2.47497,2.14126 2.47497,2.14126 0,0 -1.00687,0.0545 -1.53778,-0.0831 -0.53092,-0.13765 -1.43545,-0.53092 -1.43545,-0.53092 l 0.41293,1.0815 c 0,0 -1.78939,-0.82587 -2.18266,-1.14049 -0.39328,-0.31462 -1.00285,-1.02251 -1.00285,-1.02251 l 0.13765,0.8652 c 0,0 -1.10117,-0.82588 -1.5731,-1.31747 -0.47192,-0.49159 -0.6489,-1.39612 -0.6489,-1.39612 l -0.27529,1.0815 c 0,0 -0.68823,-1.0815 -0.90453,-1.69107 -0.2163,-0.60957 -0.4326,-1.61242 -0.4326,-1.61242 l -0.53092,0.62924 c 0,0 -0.25562,-2.06469 -0.25562,-3.18552 0,-1.12083 0.0393,-2.14334 -0.88487,-2.47762 -0.92419,-0.33428 -5.70246,-1.80906 -5.70246,-1.80906 z"
           id="path2981"
           sodipodi:nodetypes="ccsccscsscsscsccsccsccsccsscc" />
        <path
           style="fill:#000000;stroke:#000000;stroke-width:0.1;stroke-linecap:round;stroke-dasharray:none"
           d="m 333.32229,172.68384 c 0,0 -2.1589,-1.44437 -2.26582,-1.35243 -0.1071,0.0921 2.24655,2.01564 2.24655,2.01564 z"
           id="path2985"
           sodipodi:nodetypes="cscc" />
        <path
           style="fill:none;stroke:#000000;stroke-width:0.499999;stroke-linecap:round;stroke-dasharray:none"
           d="m 338.60832,172.01774 2.10399,3.81475 -4.8569,0.90453"
           id="path2989" />
        <path
           style="fill:none;stroke:#000000;stroke-width:0.499999;stroke-linecap:round;stroke-dasharray:none"
           d="m 333.81037,173.04025 6.76431,2.73325"
           id="path2991" />
        <path
           style="fill:#000000;stroke:#000000;stroke-width:0.1;stroke-linecap:round;stroke-dasharray:none"
           d="m 335.19123,175.1526 c 0,0 2.01612,0.3198 1.9744,0.47275 -0.0417,0.15295 -1.12625,0.0973 -1.12625,0.19466 0,0.0973 1.55728,0.50056 1.55728,0.50056 l -1.83536,0.3198 -0.37542,-0.9455 z"
           id="path2995" />
        <path
           style="fill:#000000;stroke:#000000;stroke-width:0.1;stroke-linecap:round;stroke-dasharray:none"
           d="m 334.00936,173.62313 4.69966,1.86318 -3.94882,-0.75084 z"
           id="path2997" />
        <path
           style="fill:#000000;stroke:#000000;stroke-width:0.1;stroke-linecap:round;stroke-dasharray:none"
           d="m 336.84583,172.8862 c 0,0 0.69522,0.3059 0.6396,0.48665 -0.0556,0.18076 -2.26639,-0.22247 -2.26639,-0.22247 l 1.12625,-0.37541 z"
           id="path2999" />
        <path
           style="fill:#ffffff;stroke:none;stroke-width:0.1;stroke-linecap:round;stroke-dasharray:none"
           d="m 323.52628,167.63275 2.34982,1.07166 -1.28797,0.58008 -2.5563,-0.76688 z"
           id="path3003" />
      </g>
    </g>
  </g>
</svg>
