<?xml version="1.0" encoding="UTF-8" standalone="no"?>
<!-- Created with Inkscape (http://www.inkscape.org/) -->

<svg
   xmlns:dc="http://purl.org/dc/elements/1.1/"
   xmlns:cc="http://creativecommons.org/ns#"
   xmlns:rdf="http://www.w3.org/1999/02/22-rdf-syntax-ns#"
   xmlns:svg="http://www.w3.org/2000/svg"
   xmlns="http://www.w3.org/2000/svg"
   xmlns:sodipodi="http://sodipodi.sourceforge.net/DTD/sodipodi-0.dtd"
   xmlns:inkscape="http://www.inkscape.org/namespaces/inkscape"
   width="168.0509mm"
   height="50.30386mm"
   viewBox="0 0 168.0509 50.30386"
   version="1.1"
   id="svg2816"
   inkscape:version="0.92.3 (2405546, 2018-03-11)"
   sodipodi:docname="DII_Hemiporphyrazin-Synthese_2.svg">
  <defs
     id="defs2810" />
  <sodipodi:namedview
     id="base"
     pagecolor="#ffffff"
     bordercolor="#666666"
     borderopacity="1.0"
     inkscape:pageopacity="0.0"
     inkscape:pageshadow="2"
     inkscape:zoom="2.0153513"
     inkscape:cx="323.29081"
     inkscape:cy="29.348123"
     inkscape:document-units="mm"
     inkscape:current-layer="layer1"
     showgrid="false"
     fit-margin-top="0"
     fit-margin-left="0"
     fit-margin-right="0"
     fit-margin-bottom="0"
     inkscape:window-width="1920"
     inkscape:window-height="986"
     inkscape:window-x="-11"
     inkscape:window-y="-11"
     inkscape:window-maximized="1" />
  <metadata
     id="metadata2813">
    <rdf:RDF>
      <cc:Work
         rdf:about="">
        <dc:format>image/svg+xml</dc:format>
        <dc:type
           rdf:resource="http://purl.org/dc/dcmitype/StillImage" />
        <dc:title></dc:title>
      </cc:Work>
    </rdf:RDF>
  </metadata>
  <g
     inkscape:label="Ebene 1"
     inkscape:groupmode="layer"
     id="layer1"
     transform="translate(-20.295974,-106.2945)">
    <path
       style="font-size:medium;font-family:Helvetica;stroke:#000000;stroke-width:0.25654489;stroke-linecap:round"
       d="m 26.881014,135.40517 5.966768,3.33386"
       id="line3174"
       inkscape:connector-curvature="0" />
    <path
       style="font-size:medium;font-family:Helvetica;stroke:#000000;stroke-width:0.25654489;stroke-linecap:round"
       d="m 47.934219,134.04236 -2.571344,3.41966"
       id="line3178"
       inkscape:connector-curvature="0" />
    <path
       style="font-size:medium;font-family:Helvetica;stroke:#000000;stroke-width:0.25654489;stroke-linecap:round"
       d="m 26.881014,128.74253 5.966768,-3.33386"
       id="line3182"
       inkscape:connector-curvature="0" />
    <path
       style="font-size:medium;font-family:Helvetica;stroke:#000000;stroke-width:0.25654489;stroke-linecap:round"
       d="m 45.858366,137.30808 1.306536,3.89664"
       id="line3186"
       inkscape:connector-curvature="0" />
    <path
       style="font-size:medium;font-family:Helvetica;stroke:#000000;stroke-width:0.25654489;stroke-linecap:round"
       d="m 44.867382,137.61849 1.306537,3.89917"
       id="line3188"
       inkscape:connector-curvature="0" />
    <path
       style="font-size:medium;font-family:Helvetica;stroke:#000000;stroke-width:0.25654489;stroke-linecap:butt"
       d="M 51.340077,132.0789 H 54.4695"
       id="line3192"
       inkscape:connector-curvature="0" />
    <path
       style="font-size:medium;font-family:Helvetica;stroke:#000000;stroke-width:0.25654489;stroke-linecap:round"
       d="m 38.814554,135.40517 -5.966772,3.33386"
       id="line3196"
       inkscape:connector-curvature="0" />
    <path
       style="font-size:medium;font-family:Helvetica;stroke:#000000;stroke-width:0.25654489;stroke-linecap:round"
       d="m 37.286352,134.50926 -4.475078,2.50101"
       id="line3198"
       inkscape:connector-curvature="0" />
    <path
       style="font-size:medium;font-family:Helvetica;stroke:#000000;stroke-width:0.25654489;stroke-linecap:round"
       d="m 32.847782,125.40867 5.966772,3.33386"
       id="line3202"
       inkscape:connector-curvature="0" />
    <path
       style="font-size:medium;font-family:Helvetica;stroke:#000000;stroke-width:0.25654489;stroke-linecap:round"
       d="m 32.811274,127.13743 4.475078,2.50103"
       id="line3204"
       inkscape:connector-curvature="0" />
    <path
       style="font-size:medium;font-family:Helvetica;stroke:#000000;stroke-width:0.25654489;stroke-linecap:round"
       d="m 44.867382,126.52921 1.423888,-4.25249"
       id="line3208"
       inkscape:connector-curvature="0" />
    <path
       style="font-size:medium;font-family:Helvetica;stroke:#000000;stroke-width:0.25654489;stroke-linecap:round"
       d="m 45.858366,126.84216 1.426496,-4.2525"
       id="line3210"
       inkscape:connector-curvature="0" />
    <path
       style="font-size:medium;font-family:Helvetica;stroke:#000000;stroke-width:0.25654489;stroke-linecap:round"
       d="m 38.814554,128.74253 v 6.66264"
       id="line3214"
       inkscape:connector-curvature="0" />
    <path
       style="font-size:medium;font-family:Helvetica;stroke:#000000;stroke-width:0.25654489;stroke-linecap:round"
       d="m 38.814554,128.74253 6.548321,-2.05684"
       id="line3218"
       inkscape:connector-curvature="0" />
    <path
       style="font-size:medium;font-family:Helvetica;stroke:#000000;stroke-width:0.25654489;stroke-linecap:round"
       d="m 26.881014,128.74253 v 6.66264"
       id="line3222"
       inkscape:connector-curvature="0" />
    <path
       style="font-size:medium;font-family:Helvetica;stroke:#000000;stroke-width:0.25654489;stroke-linecap:round"
       d="m 28.445727,129.57536 v 4.99699"
       id="line3224"
       inkscape:connector-curvature="0" />
    <path
       style="font-size:medium;font-family:Helvetica;stroke:#000000;stroke-width:0.25654489;stroke-linecap:round"
       d="m 45.362875,126.68569 2.112359,2.81396"
       id="line3228"
       inkscape:connector-curvature="0" />
    <path
       style="font-size:medium;font-family:Helvetica;stroke:#000000;stroke-width:0.25654489;stroke-linecap:round"
       d="m 45.362875,137.46202 -6.548321,-2.05685"
       id="line3232"
       inkscape:connector-curvature="0" />
    <g
       aria-label="NH"
       style="font-size:4.23907232px;font-family:helvetica;fill:#000000;stroke-width:0.26494202;stroke-linecap:round"
       id="text3236"
       transform="matrix(0.98431122,0,0,0.95256041,1.2374069,6.1060712)">
      <path
         d="m 45.739848,120.71628 v -3.03442 h 0.411902 l 1.593792,2.38241 v -2.38241 h 0.384994 v 3.03442 h -0.411902 l -1.593792,-2.38448 v 2.38448 z"
         style="font-size:4.23907232px;font-family:helvetica;fill:#000000;stroke-width:0.26494202;stroke-linecap:round"
         id="path3981"
         inkscape:connector-curvature="0" />
      <path
         d="m 48.819799,120.71628 v -3.03442 h 0.401553 v 1.24606 h 1.577233 v -1.24606 h 0.401553 v 3.03442 h -0.401553 v -1.43027 h -1.577233 v 1.43027 z"
         style="font-size:4.23907232px;font-family:helvetica;fill:#000000;stroke-width:0.26494202;stroke-linecap:round"
         id="path3983"
         inkscape:connector-curvature="0" />
    </g>
    <g
       aria-label="N"
       style="font-size:4.23907232px;font-family:helvetica;fill:#000000;stroke-width:0.26494202;stroke-linecap:round"
       id="text3238"
       transform="matrix(0.98431122,0,0,0.95256041,1.2374069,6.1060712)">
      <path
         d="m 47.59444,133.04138 v -3.03441 h 0.411902 l 1.593792,2.38241 v -2.38241 h 0.384993 v 3.03441 h -0.411902 l -1.593791,-2.38448 v 2.38448 z"
         style="font-size:4.23907232px;font-family:helvetica;fill:#000000;stroke-width:0.26494202;stroke-linecap:round"
         id="path3986"
         inkscape:connector-curvature="0" />
    </g>
    <g
       aria-label="H"
       style="font-size:4.23907232px;font-family:helvetica;fill:#000000;stroke-width:0.26494202;stroke-linecap:round"
       id="text3240"
       transform="matrix(0.98431122,0,0,0.95256041,1.2374069,6.1060712)">
      <path
         d="m 54.764433,133.04138 v -3.03441 h 0.401553 v 1.24605 h 1.577233 v -1.24605 h 0.401553 v 3.03441 h -0.401553 v -1.43027 h -1.577233 v 1.43027 z"
         style="font-size:4.23907232px;font-family:helvetica;fill:#000000;stroke-width:0.26494202;stroke-linecap:round"
         id="path3989"
         inkscape:connector-curvature="0" />
    </g>
    <g
       aria-label="NH"
       style="font-size:4.23907232px;font-family:helvetica;fill:#000000;stroke-width:0.26494202;stroke-linecap:round"
       id="text3242"
       transform="matrix(0.98431122,0,0,0.95256041,1.2374069,6.1060712)">
      <path
         d="m 45.739848,145.35588 v -3.03441 h 0.411902 l 1.593792,2.3824 v -2.3824 h 0.384994 v 3.03441 h -0.411902 l -1.593792,-2.38448 v 2.38448 z"
         style="font-size:4.23907232px;font-family:helvetica;fill:#000000;stroke-width:0.26494202;stroke-linecap:round"
         id="path3992"
         inkscape:connector-curvature="0" />
      <path
         d="m 48.819799,145.35588 v -3.03441 h 0.401553 v 1.24605 h 1.577233 v -1.24605 h 0.401553 v 3.03441 h -0.401553 v -1.43027 h -1.577233 v 1.43027 z"
         style="font-size:4.23907232px;font-family:helvetica;fill:#000000;stroke-width:0.26494202;stroke-linecap:round"
         id="path3994"
         inkscape:connector-curvature="0" />
    </g>
    <g
       aria-label="2"
       transform="matrix(0.26078539,0,0,0.25237327,1.2692802,86.596192)"
       style="font-size:16px;font-family:helvetica;fill:#000000;stroke-linecap:round"
       id="text3244">
      <path
         d="m 84.054687,184.15843 v 1.35156 h -7.570312 q -0.01563,-0.50781 0.164062,-0.97656 0.289063,-0.77344 0.921875,-1.52344 0.640625,-0.75 1.84375,-1.73437 1.867188,-1.53125 2.523438,-2.42188 0.65625,-0.89843 0.65625,-1.69531 0,-0.83594 -0.601563,-1.40625 -0.59375,-0.57812 -1.554687,-0.57812 -1.015625,0 -1.625,0.60937 -0.609375,0.60938 -0.617188,1.6875 L 76.75,177.32249 q 0.148437,-1.61718 1.117187,-2.46093 0.96875,-0.85157 2.601563,-0.85157 1.648437,0 2.609375,0.91407 0.960937,0.91406 0.960937,2.26562 0,0.6875 -0.28125,1.35156 -0.28125,0.66407 -0.9375,1.39844 -0.648437,0.73438 -2.164062,2.01563 -1.265625,1.0625 -1.625,1.44531 -0.359375,0.375 -0.59375,0.75781 z"
         style="font-size:16px;font-family:helvetica;fill:#000000;stroke-linecap:round"
         id="path3997"
         inkscape:connector-curvature="0" />
    </g>
    <path
       style="font-size:medium;font-family:Helvetica;fill:none;stroke:#000000;stroke-width:0.25654486;stroke-linecap:round"
       d="m 106.36318,131.77353 h 9.4952"
       id="polyline3246"
       inkscape:connector-curvature="0" />
    <path
       style="font-size:medium;font-family:Helvetica;fill:#000000;fill-rule:evenodd;stroke:#000000;stroke-width:0.25654486;stroke-linecap:round"
       d="m 115.85838,131.77353 -0.52157,0.75712 2.60786,-0.75712 -2.60786,-0.75712 z"
       id="polygon3248"
       inkscape:connector-curvature="0" />
    <path
       style="font-size:medium;font-family:Helvetica;stroke:#000000;stroke-width:0.25654489;stroke-linecap:round"
       d="m 139.99927,136.98504 -6.517,-2.14265"
       id="line3250"
       inkscape:connector-curvature="0" />
    <path
       style="font-size:medium;font-family:Helvetica;stroke:#000000;stroke-width:0.25654489;stroke-linecap:round"
       d="m 174.36557,128.38164 0.16693,6.68031"
       id="line3254"
       inkscape:connector-curvature="0" />
    <path
       style="font-size:medium;font-family:Helvetica;stroke:#000000;stroke-width:0.25654489;stroke-linecap:round"
       d="m 175.95116,129.17913 0.12518,5.00962"
       id="line3256"
       inkscape:connector-curvature="0" />
    <path
       style="font-size:medium;font-family:Helvetica;stroke:#0000ff;stroke-width:0.25654489;stroke-linecap:round"
       d="m 163.47779,143.96821 -3.73445,1.17605"
       id="line3260"
       inkscape:connector-curvature="0" />
    <path
       style="font-size:medium;font-family:Helvetica;stroke:#000000;stroke-width:0.25654489;stroke-linecap:round"
       d="m 121.507,134.66068 0.10952,-6.67023"
       id="line3264"
       inkscape:connector-curvature="0" />
    <path
       style="font-size:medium;font-family:Helvetica;stroke:#0000ff;stroke-width:0.25654489;stroke-linecap:round"
       d="m 148.24271,145.08622 0.1669,6.71818"
       id="line3268"
       inkscape:connector-curvature="0" />
    <path
       style="font-size:medium;font-family:Helvetica;stroke:#0000ff;stroke-width:0.25654489;stroke-linecap:round"
       d="m 149.82828,145.88878 0.1252,5.03989"
       id="line3270"
       inkscape:connector-curvature="0" />
    <path
       style="font-size:medium;font-family:Helvetica;stroke:#000000;stroke-width:0.25654489;stroke-linecap:round"
       d="m 167.68948,137.02542 -1.35089,3.83102"
       id="line3274"
       inkscape:connector-curvature="0" />
    <path
       style="font-size:medium;font-family:Helvetica;stroke:#000000;stroke-width:0.25654489;stroke-linecap:round"
       d="m 166.0387,137.01532 -1.01184,2.87452"
       id="line3276"
       inkscape:connector-curvature="0" />
    <path
       style="font-size:medium;font-family:Helvetica;stroke:#0000ff;stroke-width:0.25654489;stroke-linecap:round"
       d="m 148.40961,151.8044 5.71121,3.34394"
       id="line3280"
       inkscape:connector-curvature="0" />
    <path
       style="font-size:medium;font-family:Helvetica;stroke:#000000;stroke-width:0.25654489;stroke-linecap:round"
       d="m 165.55103,128.99489 2.10975,-2.9477"
       id="line3284"
       inkscape:connector-curvature="0" />
    <path
       style="font-size:medium;font-family:Helvetica;stroke:#000000;stroke-width:0.25654489;stroke-linecap:round"
       d="m 186.49733,135.22347 -6.29275,3.26824"
       id="line3288"
       inkscape:connector-curvature="0" />
    <path
       style="font-size:medium;font-family:Helvetica;stroke:#000000;stroke-width:0.25654489;stroke-linecap:round"
       d="m 184.96911,134.29726 -4.71759,2.45307"
       id="line3290"
       inkscape:connector-curvature="0" />
    <path
       style="font-size:medium;font-family:Helvetica;stroke:#000000;stroke-width:0.25654489;stroke-linecap:butt"
       d="m 161.65229,131.57667 -2.86863,0.0152"
       id="line3294"
       inkscape:connector-curvature="0" />
    <path
       style="font-size:medium;font-family:Helvetica;stroke:#0000ff;stroke-width:0.25654489;stroke-linecap:round"
       d="m 148.15404,110.82907 -0.0104,6.48853"
       id="line3298"
       inkscape:connector-curvature="0" />
    <path
       style="font-size:medium;font-family:Helvetica;stroke:#0000ff;stroke-width:0.25654489;stroke-linecap:round"
       d="m 149.71615,111.64172 -0.008,4.86827"
       id="line3300"
       inkscape:connector-curvature="0" />
    <path
       style="font-size:medium;font-family:Helvetica;stroke:#000000;stroke-width:0.25654489;stroke-linecap:round"
       d="m 167.68948,137.02542 -2.54006,-3.4878"
       id="line3304"
       inkscape:connector-curvature="0" />
    <path
       style="font-size:medium;font-family:Helvetica;stroke:#000000;stroke-width:0.25654489;stroke-linecap:round"
       d="m 174.5325,135.06195 5.67208,3.42976"
       id="line3308"
       inkscape:connector-curvature="0" />
    <path
       style="font-size:medium;font-family:Helvetica;stroke:#000000;stroke-width:0.25654489;stroke-linecap:round"
       d="m 167.66078,126.04719 -0.93882,-4.62349"
       id="line3312"
       inkscape:connector-curvature="0" />
    <path
       style="font-size:medium;font-family:Helvetica;stroke:#000000;stroke-width:0.25654489;stroke-linecap:round"
       d="m 166.00743,125.762 -0.70413,-3.46761"
       id="line3314"
       inkscape:connector-curvature="0" />
    <path
       style="font-size:medium;font-family:Helvetica;stroke:#0000ff;stroke-width:0.25654489;stroke-linecap:round"
       d="m 148.24271,145.08622 4.02132,-2.2436"
       id="line3318"
       inkscape:connector-curvature="0" />
    <path
       style="font-size:medium;font-family:Helvetica;stroke:#000000;stroke-width:0.25654489;stroke-linecap:round"
       d="m 140.1688,126.18851 2.2219,3.05877"
       id="line3322"
       inkscape:connector-curvature="0" />
    <path
       style="font-size:medium;font-family:Helvetica;stroke:#000000;stroke-width:0.25654489;stroke-linecap:round"
       d="m 180.41058,125.1235 5.92765,3.43984"
       id="line3326"
       inkscape:connector-curvature="0" />
    <path
       style="font-size:medium;font-family:Helvetica;stroke:#000000;stroke-width:0.25654489;stroke-linecap:round"
       d="m 180.348,126.85226 4.44639,2.57925"
       id="line3328"
       inkscape:connector-curvature="0" />
    <path
       style="font-size:medium;font-family:Helvetica;stroke:#0000ff;stroke-width:0.25654489;stroke-linecap:round"
       d="m 164.26015,118.81417 -4.44899,-1.47639"
       id="line3332"
       inkscape:connector-curvature="0" />
    <path
       style="font-size:medium;font-family:Helvetica;stroke:#0000ff;stroke-width:0.25654489;stroke-linecap:round"
       d="m 148.15404,110.82907 5.96678,-3.34394"
       id="line3336"
       inkscape:connector-curvature="0" />
    <path
       style="font-size:medium;font-family:Helvetica;stroke:#000000;stroke-width:0.25654489;stroke-linecap:round"
       d="m 186.33823,128.56334 0.1591,6.66013"
       id="line3340"
       inkscape:connector-curvature="0" />
    <path
       style="font-size:medium;font-family:Helvetica;stroke:#000000;stroke-width:0.25654489;stroke-linecap:round"
       d="M 127.44508,138.09043 121.507,134.66068"
       id="line3344"
       inkscape:connector-curvature="0" />
    <path
       style="font-size:medium;font-family:Helvetica;stroke:#000000;stroke-width:0.25654489;stroke-linecap:round"
       d="m 127.50505,136.36167 -4.45161,-2.57168"
       id="line3346"
       inkscape:connector-curvature="0" />
    <path
       style="font-size:medium;font-family:Helvetica;stroke:#000000;stroke-width:0.25654489;stroke-linecap:round"
       d="m 133.48227,134.84239 0.0991,-6.69042"
       id="line3350"
       inkscape:connector-curvature="0" />
    <path
       style="font-size:medium;font-family:Helvetica;stroke:#000000;stroke-width:0.25654489;stroke-linecap:round"
       d="m 139.99927,136.98504 1.23875,3.8714"
       id="line3354"
       inkscape:connector-curvature="0" />
    <path
       style="font-size:medium;font-family:Helvetica;stroke:#000000;stroke-width:0.25654489;stroke-linecap:round"
       d="m 141.65007,137.02289 0.92838,2.9023"
       id="line3356"
       inkscape:connector-curvature="0" />
    <path
       style="font-size:medium;font-family:Helvetica;stroke:#0000ff;stroke-width:0.25654489;stroke-linecap:round"
       d="m 148.14362,117.3176 4.12041,2.41772"
       id="line3360"
       inkscape:connector-curvature="0" />
    <path
       style="font-size:medium;font-family:Helvetica;stroke:#000000;stroke-width:0.25654489;stroke-linecap:butt"
       d="m 146.00518,131.67511 3.12942,0.0428"
       id="line3364"
       inkscape:connector-curvature="0" />
    <path
       style="font-size:medium;font-family:Helvetica;stroke:#0000ff;stroke-width:0.25654489;stroke-linecap:round"
       d="m 154.12082,107.48513 5.71119,3.34394"
       id="line3368"
       inkscape:connector-curvature="0" />
    <path
       style="font-size:medium;font-family:Helvetica;stroke:#0000ff;stroke-width:0.25654489;stroke-linecap:round"
       d="m 154.02433,109.19874 4.28208,2.50859"
       id="line3370"
       inkscape:connector-curvature="0" />
    <path
       style="font-size:medium;font-family:Helvetica;stroke:#0000ff;stroke-width:0.25654489;stroke-linecap:round"
       d="m 156.1758,143.02686 3.56754,2.1174"
       id="line3374"
       inkscape:connector-curvature="0" />
    <path
       style="font-size:medium;font-family:Helvetica;stroke:#0000ff;stroke-width:0.25654489;stroke-linecap:round"
       d="m 155.80288,144.58147 2.67567,1.58743"
       id="line3376"
       inkscape:connector-curvature="0" />
    <path
       style="font-size:medium;font-family:Helvetica;stroke:#000000;stroke-width:0.25654489;stroke-linecap:round"
       d="m 140.1688,126.18851 1.05357,-4.00769"
       id="line3380"
       inkscape:connector-curvature="0" />
    <path
       style="font-size:medium;font-family:Helvetica;stroke:#000000;stroke-width:0.25654489;stroke-linecap:round"
       d="m 141.81697,126.06233 0.79016,-3.00577"
       id="line3382"
       inkscape:connector-curvature="0" />
    <path
       style="font-size:medium;font-family:Helvetica;stroke:#000000;stroke-width:0.25654489;stroke-linecap:round"
       d="m 121.61652,127.99045 6.02674,-3.25813"
       id="line3386"
       inkscape:connector-curvature="0" />
    <path
       style="font-size:medium;font-family:Helvetica;stroke:#000000;stroke-width:0.25654489;stroke-linecap:round"
       d="m 123.1343,128.90405 4.51941,-2.44297"
       id="line3388"
       inkscape:connector-curvature="0" />
    <path
       style="font-size:medium;font-family:Helvetica;stroke:#000000;stroke-width:0.25654489;stroke-linecap:round"
       d="m 174.36557,128.38164 6.04501,-3.25814"
       id="line3392"
       inkscape:connector-curvature="0" />
    <path
       style="font-size:medium;font-family:Helvetica;stroke:#000000;stroke-width:0.25654489;stroke-linecap:round"
       d="m 133.48227,134.84239 -6.03719,3.24804"
       id="line3396"
       inkscape:connector-curvature="0" />
    <path
       style="font-size:medium;font-family:Helvetica;stroke:#000000;stroke-width:0.25654489;stroke-linecap:round"
       d="m 174.5325,135.06195 -6.84302,1.96347"
       id="line3400"
       inkscape:connector-curvature="0" />
    <path
       style="font-size:medium;font-family:Helvetica;stroke:#0000ff;stroke-width:0.25654489;stroke-linecap:round"
       d="m 159.83201,110.82907 -0.0209,6.50871"
       id="line3404"
       inkscape:connector-curvature="0" />
    <path
       style="font-size:medium;font-family:Helvetica;stroke:#000000;stroke-width:0.25654489;stroke-linecap:round"
       d="m 133.58135,128.15197 -5.93809,-3.41965"
       id="line3408"
       inkscape:connector-curvature="0" />
    <path
       style="font-size:medium;font-family:Helvetica;stroke:#0000ff;stroke-width:0.25654489;stroke-linecap:round"
       d="m 159.81116,117.33778 -3.63536,2.22845"
       id="line3412"
       inkscape:connector-curvature="0" />
    <path
       style="font-size:medium;font-family:Helvetica;stroke:#0000ff;stroke-width:0.25654489;stroke-linecap:round"
       d="m 158.52026,116.33585 -2.7278,1.67073"
       id="line3414"
       inkscape:connector-curvature="0" />
    <path
       style="font-size:medium;font-family:Helvetica;stroke:#0000ff;stroke-width:0.25654489;stroke-linecap:round"
       d="m 159.74334,145.14426 0.0887,6.66014"
       id="line3418"
       inkscape:connector-curvature="0" />
    <path
       style="font-size:medium;font-family:Helvetica;stroke:#0000ff;stroke-width:0.25654489;stroke-linecap:round"
       d="m 159.83201,151.8044 -5.71119,3.34394"
       id="line3422"
       inkscape:connector-curvature="0" />
    <path
       style="font-size:medium;font-family:Helvetica;stroke:#0000ff;stroke-width:0.25654489;stroke-linecap:round"
       d="m 158.30641,150.92614 -4.28208,2.50858"
       id="line3424"
       inkscape:connector-curvature="0" />
    <path
       style="font-size:medium;font-family:Helvetica;stroke:#0000ff;stroke-width:0.25654489;stroke-linecap:round"
       d="m 143.91889,143.88491 4.32382,1.20131"
       id="line3428"
       inkscape:connector-curvature="0" />
    <path
       style="font-size:medium;font-family:Helvetica;stroke:#0000ff;stroke-width:0.25654489;stroke-linecap:round"
       d="m 143.65811,119.29367 4.48551,-1.97607"
       id="line3432"
       inkscape:connector-curvature="0" />
    <path
       style="font-size:medium;font-family:Helvetica;stroke:#000000;stroke-width:0.25654489;stroke-linecap:round"
       d="m 133.58135,128.15197 6.58745,-1.96346"
       id="line3436"
       inkscape:connector-curvature="0" />
    <path
       style="font-size:medium;font-family:Helvetica;stroke:#000000;stroke-width:0.25654489;stroke-linecap:round"
       d="m 142.47674,133.78999 -2.47747,3.19505"
       id="line3440"
       inkscape:connector-curvature="0" />
    <path
       style="font-size:medium;font-family:Helvetica;stroke:#000000;stroke-width:0.25654489;stroke-linecap:round"
       d="m 167.66078,126.04719 6.70479,2.33445"
       id="line3444"
       inkscape:connector-curvature="0" />
    <g
       aria-label="N"
       style="font-size:4.23907232px;font-family:helvetica;fill:#000000;stroke-width:0.26494202;stroke-linecap:round"
       id="text3448"
       transform="matrix(0.98431122,0,0,0.95256041,1.2374069,6.1060712)">
      <path
         d="m 143.76839,132.59097 v -3.03441 h 0.41191 l 1.59379,2.38241 v -2.38241 h 0.38499 v 3.03441 h -0.4119 l -1.59379,-2.38448 v 2.38448 z"
         style="font-size:4.23907232px;font-family:helvetica;fill:#000000;stroke-width:0.26494202;stroke-linecap:round"
         id="path4059"
         inkscape:connector-curvature="0" />
    </g>
    <g
       aria-label="H"
       style="font-size:4.23907232px;font-family:helvetica;fill:#000000;stroke-width:0.26494202;stroke-linecap:round"
       id="text3450"
       transform="matrix(0.98431122,0,0,0.95256041,1.2374069,6.1060712)">
      <path
         d="m 150.93838,132.69165 v -3.03441 h 0.40155 v 1.24605 h 1.57724 v -1.24605 h 0.40155 v 3.03441 h -0.40155 v -1.43027 h -1.57724 v 1.43027 z"
         style="font-size:4.23907232px;font-family:helvetica;fill:#000000;stroke-width:0.26494202;stroke-linecap:round"
         id="path4062"
         inkscape:connector-curvature="0" />
    </g>
    <g
       aria-label="N"
       style="font-size:4.23907232px;font-family:helvetica;fill:#0000ff;stroke-width:0.26494202;stroke-linecap:round"
       id="text3452"
       transform="matrix(0.98431122,0,0,0.95256041,1.2374069,6.1060712)">
      <path
         d="m 141.3839,120.49638 v -3.03441 h 0.4119 l 1.5938,2.38241 v -2.38241 h 0.38499 v 3.03441 h -0.4119 l -1.59379,-2.38447 v 2.38447 z"
         style="font-size:4.23907232px;font-family:helvetica;fill:#0000ff;stroke-width:0.26494202;stroke-linecap:round"
         id="path4065"
         inkscape:connector-curvature="0" />
    </g>
    <g
       aria-label="N"
       style="font-size:4.23907232px;font-family:helvetica;fill:#0000ff;stroke-width:0.26494202;stroke-linecap:round"
       id="text3454"
       transform="matrix(0.98431122,0,0,0.95256041,1.2374069,6.1060712)">
      <path
         d="m 141.64886,144.88693 v -3.03441 h 0.4119 l 1.59379,2.38241 v -2.38241 h 0.38499 v 3.03441 h -0.4119 l -1.59379,-2.38448 v 2.38448 z"
         style="font-size:4.23907232px;font-family:helvetica;fill:#0000ff;stroke-width:0.26494202;stroke-linecap:round"
         id="path4068"
         inkscape:connector-curvature="0" />
    </g>
    <g
       aria-label="N"
       style="font-size:4.23907232px;font-family:helvetica;fill:#0000ff;stroke-width:0.26494202;stroke-linecap:round"
       id="text3456"
       transform="matrix(0.98431122,0,0,0.95256041,1.2374069,6.1060712)">
      <path
         d="m 166.28846,119.83667 v -3.03441 h 0.4119 l 1.59379,2.3824 v -2.3824 h 0.385 v 3.03441 h -0.41191 l -1.59379,-2.38448 v 2.38448 z"
         style="font-size:4.23907232px;font-family:helvetica;fill:#0000ff;stroke-width:0.26494202;stroke-linecap:round"
         id="path4071"
         inkscape:connector-curvature="0" />
    </g>
    <g
       aria-label="N"
       style="font-size:4.23907232px;font-family:helvetica;fill:#000000;stroke-width:0.26494202;stroke-linecap:round"
       id="text3458"
       transform="matrix(0.98431122,0,0,0.95256041,1.2374069,6.1060712)">
      <path
         d="m 163.63903,132.5009 v -3.03441 h 0.4119 l 1.59379,2.3824 v -2.3824 h 0.385 v 3.03441 h -0.4119 l -1.5938,-2.38448 v 2.38448 z"
         style="font-size:4.23907232px;font-family:helvetica;fill:#000000;stroke-width:0.26494202;stroke-linecap:round"
         id="path4074"
         inkscape:connector-curvature="0" />
    </g>
    <g
       aria-label="H"
       style="font-size:4.23907232px;font-family:helvetica;fill:#000000;stroke-width:0.26494202;stroke-linecap:round"
       id="text3460"
       transform="matrix(0.98431122,0,0,0.95256041,1.2374069,6.1060712)">
      <path
         d="m 156.7671,132.54063 v -3.03441 h 0.40155 v 1.24606 h 1.57724 v -1.24606 h 0.40155 v 3.03441 h -0.40155 v -1.43027 h -1.57724 v 1.43027 z"
         style="font-size:4.23907232px;font-family:helvetica;fill:#000000;stroke-width:0.26494202;stroke-linecap:round"
         id="path4077"
         inkscape:connector-curvature="0" />
    </g>
    <g
       aria-label="N"
       style="font-size:4.23907232px;font-family:helvetica;fill:#0000ff;stroke-width:0.26494202;stroke-linecap:round"
       id="text3462"
       transform="matrix(0.98431122,0,0,0.95256041,1.2374069,6.1060712)">
      <path
         d="m 165.49363,144.86574 v -3.03442 h 0.4119 l 1.59379,2.38241 v -2.38241 h 0.385 v 3.03442 h -0.41191 l -1.59379,-2.38448 v 2.38448 z"
         style="font-size:4.23907232px;font-family:helvetica;fill:#0000ff;stroke-width:0.26494202;stroke-linecap:round"
         id="path4080"
         inkscape:connector-curvature="0" />
    </g>
    <g
       aria-label="N"
       style="font-size:4.23907232px;font-family:helvetica;fill:#0000ff;stroke-width:0.26494202;stroke-linecap:round"
       id="text3464"
       transform="matrix(0.98431122,0,0,0.95256041,1.2374069,6.1060712)">
      <path
         d="m 154.10113,121.22762 v -3.03441 h 0.4119 l 1.59379,2.38241 v -2.38241 h 0.38499 v 3.03441 h -0.4119 l -1.59379,-2.38448 v 2.38448 z"
         style="font-size:4.23907232px;font-family:helvetica;fill:#0000ff;stroke-width:0.26494202;stroke-linecap:round"
         id="path4083"
         inkscape:connector-curvature="0" />
    </g>
    <g
       aria-label="N"
       style="font-size:4.23907232px;font-family:helvetica;fill:#0000ff;stroke-width:0.26494202;stroke-linecap:round"
       id="text3466"
       transform="matrix(0.98431122,0,0,0.95256041,1.2374069,6.1060712)">
      <path
         d="m 154.10113,143.2549 v -3.03442 h 0.4119 l 1.59379,2.38241 v -2.38241 h 0.38499 v 3.03442 h -0.4119 l -1.59379,-2.38448 v 2.38448 z"
         style="font-size:4.23907232px;font-family:helvetica;fill:#0000ff;stroke-width:0.26494202;stroke-linecap:round"
         id="path4086"
         inkscape:connector-curvature="0" />
    </g>
    <g
       aria-label="+"
       style="font-size:4.94558382px;font-family:helvetica;fill:#000000;stroke-width:0.26494202;stroke-linecap:round"
       id="text3468"
       transform="matrix(0.98431122,0,0,0.95256041,1.2374069,6.1060712)">
      <path
         d="m 60.088317,132.94065 v -0.97076 h -0.963519 v -0.40569 h 0.963519 v -0.96352 h 0.410522 v 0.96352 h 0.96352 v 0.40569 h -0.96352 v 0.97076 z"
         style="font-size:4.94558382px;font-family:helvetica;fill:#000000;stroke-width:0.26494202;stroke-linecap:round"
         id="path4089"
         inkscape:connector-curvature="0" />
    </g>
    <g
       aria-label="2"
       transform="matrix(0.26078539,0,0,0.25237327,1.2692802,86.596192)"
       style="font-size:16px;font-family:helvetica;fill:#0000ff;stroke-linecap:round"
       id="text3470">
      <path
         d="m 253.05469,184.15843 v 1.35156 h -7.57032 q -0.0156,-0.50781 0.16407,-0.97656 0.28906,-0.77344 0.92187,-1.52344 0.64063,-0.75 1.84375,-1.73437 1.86719,-1.53125 2.52344,-2.42188 0.65625,-0.89843 0.65625,-1.69531 0,-0.83594 -0.60156,-1.40625 -0.59375,-0.57812 -1.55469,-0.57812 -1.01563,0 -1.625,0.60937 -0.60938,0.60938 -0.61719,1.6875 L 245.75,177.32249 q 0.14844,-1.61718 1.11719,-2.46093 0.96875,-0.85157 2.60156,-0.85157 1.64844,0 2.60937,0.91407 0.96094,0.91406 0.96094,2.26562 0,0.6875 -0.28125,1.35156 -0.28125,0.66407 -0.9375,1.39844 -0.64844,0.73438 -2.16406,2.01563 -1.26563,1.0625 -1.625,1.44531 -0.35938,0.375 -0.59375,0.75781 z"
         style="font-size:16px;font-family:helvetica;fill:#0000ff;stroke-linecap:round"
         id="path4092"
         inkscape:connector-curvature="0" />
    </g>
    <path
       style="font-size:medium;font-family:Helvetica;stroke:#0000ff;stroke-width:0.25654489;stroke-linecap:round"
       d="m 81.126986,127.22829 5.966771,-3.33386"
       id="line3472"
       inkscape:connector-curvature="0" />
    <path
       style="font-size:medium;font-family:Helvetica;stroke:#0000ff;stroke-width:0.25654489;stroke-linecap:round"
       d="m 81.126986,133.88842 -3.969155,2.21835"
       id="line3476"
       inkscape:connector-curvature="0" />
    <path
       style="font-size:medium;font-family:Helvetica;stroke:#0000ff;stroke-width:0.25654489;stroke-linecap:round"
       d="m 93.070951,133.88842 -3.916991,2.18555"
       id="line3480"
       inkscape:connector-curvature="0" />
    <path
       style="font-size:medium;font-family:Helvetica;stroke:#0000ff;stroke-width:0.25654489;stroke-linecap:round"
       d="m 91.798327,132.85117 -2.936449,1.63789"
       id="line3482"
       inkscape:connector-curvature="0" />
    <path
       style="font-size:medium;font-family:Helvetica;stroke:#0000ff;stroke-width:0.25654489;stroke-linecap:round"
       d="m 87.093757,123.89443 5.977194,3.33386"
       id="line3486"
       inkscape:connector-curvature="0" />
    <path
       style="font-size:medium;font-family:Helvetica;stroke:#0000ff;stroke-width:0.25654489;stroke-linecap:round"
       d="m 87.05985,125.62068 4.4829,2.50353"
       id="line3488"
       inkscape:connector-curvature="0" />
    <path
       style="font-size:medium;font-family:Helvetica;stroke:#0000ff;stroke-width:0.25654489;stroke-linecap:round"
       d="m 93.070951,133.88842 3.906568,2.18555"
       id="line3492"
       inkscape:connector-curvature="0" />
    <path
       style="font-size:medium;font-family:Helvetica;stroke:#0000ff;stroke-width:0.25654489;stroke-linecap:round"
       d="m 93.070951,127.22829 v 6.66013"
       id="line3496"
       inkscape:connector-curvature="0" />
    <path
       style="font-size:medium;font-family:Helvetica;stroke:#0000ff;stroke-width:0.25654489;stroke-linecap:round"
       d="m 81.126986,127.22829 v 6.66013"
       id="line3500"
       inkscape:connector-curvature="0" />
    <path
       style="font-size:medium;font-family:Helvetica;stroke:#0000ff;stroke-width:0.25654489;stroke-linecap:round"
       d="m 82.691699,128.06112 v 4.99447"
       id="line3502"
       inkscape:connector-curvature="0" />
    <path
       style="font-size:medium;font-family:Helvetica;stroke:#0000ff;stroke-width:0.25654489;stroke-linecap:round"
       d="m 81.126986,133.88842 4.115195,2.30164"
       id="line3506"
       inkscape:connector-curvature="0" />
    <g
       aria-label="NH2"
       style="font-size:4.23907232px;font-family:helvetica;fill:#0000ff;stroke-width:0.26494202;stroke-linecap:round"
       id="text3512"
       transform="matrix(0.98431122,0,0,0.95256041,1.2374069,6.1060712)">
      <path
         d="m 97.933417,138.44354 v -3.03441 h 0.411903 l 1.593791,2.38241 v -2.38241 h 0.384999 v 3.03441 h -0.411907 l -1.593792,-2.38448 v 2.38448 z"
         style="font-size:4.23907232px;font-family:helvetica;fill:#0000ff;stroke-width:0.26494202;stroke-linecap:round"
         id="path4106"
         inkscape:connector-curvature="0" />
      <path
         d="m 101.01337,138.44354 v -3.03441 h 0.40155 v 1.24605 h 1.57723 v -1.24605 h 0.40156 v 3.03441 h -0.40156 v -1.43027 h -1.57723 v 1.43027 z"
         style="font-size:4.23907232px;font-family:helvetica;fill:#0000ff;stroke-width:0.26494202;stroke-linecap:round"
         id="path4108"
         inkscape:connector-curvature="0" />
      <path
         d="m 105.33782,139.02279 v 0.26857 h -1.50427 q -0.003,-0.10091 0.0326,-0.19405 0.0574,-0.15369 0.18319,-0.30272 0.12729,-0.14903 0.36636,-0.34463 0.37102,-0.30427 0.50142,-0.48124 0.1304,-0.17853 0.1304,-0.33687 0,-0.16611 -0.11953,-0.27943 -0.11798,-0.11488 -0.30893,-0.11488 -0.20181,0 -0.32289,0.12109 -0.12109,0.12108 -0.12264,0.33531 l -0.2872,-0.0295 q 0.0295,-0.32135 0.222,-0.48901 0.19249,-0.16921 0.51694,-0.16921 0.32756,0 0.5185,0.18163 0.19095,0.18163 0.19095,0.4502 0,0.13661 -0.0559,0.26856 -0.0559,0.13195 -0.18629,0.27788 -0.12884,0.14592 -0.43001,0.40052 -0.25149,0.21112 -0.3229,0.28719 -0.0714,0.0745 -0.11798,0.15058 z"
         style="font-size:3.17930412px;baseline-shift:sub;stroke-width:0.26494202"
         id="path4110"
         inkscape:connector-curvature="0" />
    </g>
    <g
       aria-label="H2N"
       style="font-size:4.23907232px;font-family:helvetica;fill:#0000ff;stroke-width:0.26494202;stroke-linecap:round"
       id="text3516"
       transform="matrix(0.98431122,0,0,0.95256041,1.2374069,6.1060712)">
      <path
         d="m 69.071299,138.44354 v -3.03441 h 0.401553 v 1.24605 h 1.577233 v -1.24605 h 0.401552 v 3.03441 h -0.401552 v -1.43027 h -1.577233 v 1.43027 z"
         style="font-size:4.23907232px;font-family:helvetica;fill:#0000ff;stroke-width:0.26494202;stroke-linecap:round"
         id="path4113"
         inkscape:connector-curvature="0" />
      <path
         d="m 73.395753,139.02279 v 0.26857 h -1.50427 q -0.0031,-0.10091 0.0326,-0.19405 0.05744,-0.15369 0.183183,-0.30272 0.127296,-0.14903 0.366365,-0.34463 0.371022,-0.30427 0.501423,-0.48124 0.130401,-0.17853 0.130401,-0.33687 0,-0.16611 -0.119534,-0.27943 -0.117982,-0.11488 -0.308927,-0.11488 -0.201811,0 -0.322898,0.12109 -0.121087,0.12108 -0.122639,0.33531 l -0.287193,-0.0295 q 0.0295,-0.32135 0.221993,-0.48901 0.192496,-0.16921 0.516947,-0.16921 0.327555,0 0.5185,0.18163 0.190944,0.18163 0.190944,0.4502 0,0.13661 -0.05589,0.26856 -0.05589,0.13195 -0.186287,0.27788 -0.128849,0.14592 -0.430014,0.40052 -0.251488,0.21112 -0.322898,0.28719 -0.07141,0.0745 -0.117982,0.15058 z"
         style="font-size:3.17930412px;baseline-shift:sub;stroke-width:0.26494202"
         id="path4115"
         inkscape:connector-curvature="0" />
      <path
         d="m 73.887862,138.44354 v -3.03441 h 0.411902 l 1.593792,2.38241 v -2.38241 h 0.384994 v 3.03441 h -0.411902 l -1.593792,-2.38448 v 2.38448 z"
         style="font-size:4.23907232px;font-family:helvetica;fill:#0000ff;stroke-width:0.26494202;stroke-linecap:round"
         id="path4117"
         inkscape:connector-curvature="0" />
    </g>
    <g
       aria-label="N"
       style="font-size:4.23907232px;font-family:helvetica;fill:#0000ff;stroke-width:0.26494202;stroke-linecap:round"
       id="text3518"
       transform="matrix(0.98431122,0,0,0.95256041,1.2374069,6.1060712)">
      <path
         d="m 86.011031,138.44354 v -3.03441 h 0.411902 l 1.593792,2.38241 v -2.38241 h 0.384994 v 3.03441 h -0.411902 l -1.593792,-2.38448 v 2.38448 z"
         style="font-size:4.23907232px;font-family:helvetica;fill:#0000ff;stroke-width:0.26494202;stroke-linecap:round"
         id="path4120"
         inkscape:connector-curvature="0" />
    </g>
  </g>
</svg>
