<?xml version="1.0" encoding="UTF-8" standalone="no"?>
<svg
   xmlns:dc="http://purl.org/dc/elements/1.1/"
   xmlns:cc="http://creativecommons.org/ns#"
   xmlns:rdf="http://www.w3.org/1999/02/22-rdf-syntax-ns#"
   xmlns:svg="http://www.w3.org/2000/svg"
   xmlns="http://www.w3.org/2000/svg"
   xmlns:sodipodi="http://sodipodi.sourceforge.net/DTD/sodipodi-0.dtd"
   xmlns:inkscape="http://www.inkscape.org/namespaces/inkscape"
   id="svg118"
   version="1.1"
   height="800"
   width="800pt"
   sodipodi:docname="Dolphin_head-sat.svg"
   inkscape:version="0.92.4 (5da689c313, 2019-01-14)">
  <sodipodi:namedview
     pagecolor="#ffffff"
     bordercolor="#666666"
     borderopacity="1"
     objecttolerance="10"
     gridtolerance="10"
     guidetolerance="10"
     inkscape:pageopacity="0"
     inkscape:pageshadow="2"
     inkscape:window-width="1366"
     inkscape:window-height="705"
     id="namedview70"
     showgrid="false"
     inkscape:zoom="0.67"
     inkscape:cx="1448.9151"
     inkscape:cy="234.02985"
     inkscape:window-x="-8"
     inkscape:window-y="-8"
     inkscape:window-maximized="1"
     inkscape:current-layer="svg118" />
  <metadata
     id="metadata124">
    <rdf:RDF>
      <cc:Work
         rdf:about="">
        <dc:format>image/svg+xml</dc:format>
        <dc:type
           rdf:resource="http://purl.org/dc/dcmitype/StillImage" />
        <dc:title />
      </cc:Work>
    </rdf:RDF>
  </metadata>
  <defs
     id="defs122" />
  <path
     id="path68"
     stroke-width="3.537"
     stroke="#000"
     fill-rule="evenodd"
     fill="#898989"
     d="M61.157 652.99V22.03s239.33-4.528 331.92 6.038c92.597 10.566 191.63 28.156 243.6 67.926 51.284 39.247 75.5 76.983 91.17 125.29 15.67 45.284 15.67 52.83 22.794 57.36 7.13 4.528 58.41 0 122.51 16.604s85.48 25.66 85.48 49.812c1.43 30.19-52.71 57.36-92.59 66.417-39.88 9.057-215.11 33.21-293.46 67.927-78.35 34.717-116.81 67.926-162.4 87.55s-85.47 43.774-138.18 57.36-210.83 28.68-210.83 28.68z" />
  <path
     id="path70"
     stroke-width="2.358"
     stroke="#000"
     fill-rule="evenodd"
     fill="#fff"
     d="M423.35 31.462s5.342 6.226 5.342 14.15c0 7.926-4.71 6.887-4.808 14.34-6.766.19-30.27 4.34-31.34 9.435-1.257 5.997 24.356 10.492 26.176 14.15 1.893 3.807-3.56 24.907-8.19 48.493-4.48 12.522-5.877 19.434-10.33 19.812-4.085.346-19.765-63.02-21.01-67.926-1.203-4.73 1.083-4.578 1.78-6.792.712-2.265.487-4.532-2.493-4.718-3.028-.188-24.72 9.643-27.78 12.264-2.774 2.38-3.026 4.34-2.136 5.472.83 1.046 8.37-.566 9.62.944 1.34 1.62 4.52 25.886 8.91 40.378 4.46 14.717 22.8 34.53 23.15 36.793.39 2.448-7.12 16.038-8.9 19.812-1.78 3.77-105.77 172.08-105.77 172.08s14.96 20 19.59 23.77c4.63 3.77 5.7 1.88 9.98 7.55 4.27 5.66 7.834 12.83 7.834 12.83L457.9 291.09l-7.478-16.226s-4.63-22.265-11.753-29.812c-7.13-7.548-24.93-10.567-30.45-11.7-5.22-1.068-7.31-4.145-7.31-7.923 0-3.97 4.87-8.59 7.12-10.38 2.13-1.7 18.16-.95 26-8.87 8.1-8.2 8.9-15.1 10.32-23.02 1.42-7.93 17.45-89.06 17.45-89.06s2.85-5.28 7.12-7.17c4.274-1.89 16.74-4.15 17.095-9.81.356-5.66-31.138-15.85-37.93-18.49-6.634-2.58-4.948-9.7-4.45-13.59.544-4.26 4.807-10 4.807-10z" />
  <path
     id="path72"
     stroke-width="2.358"
     stroke="#000"
     fill-rule="evenodd"
     fill="#007400"
     d="M388.8 246.94s38.463 28.68 98.294 39.246 361.84 30.19 361.84 30.19 47.01 3.018 59.832 9.056 19.944 15.095 19.944 15.095c-95.683 12.327-174.28 22.644-282.78 26.416-108.44 3.77-197.06 16.1-291.32 23.397v6.038l-47.01 3.018s37.038-78.492 52.71-105.66c15.67-27.17 28.49-46.793 28.49-46.793zM317.58 79.388c11.396 27.925 7.637 38.797 25.642 70.945 17.69 31.588 37.038 39.247 37.038 39.247s-28.508 79.63-42.024 110.19c-13.385 30.264-26.09 49.415-34.19 55.85-8.547 6.793-49.147 7.548-49.147 7.548s-42.01-35.49-65.53-45.284c-22.91-9.536-53.42-3.774-76.93 0-24.2 3.885-32.4 2.687-39.89-4.53-7.84-7.546-5.61-27.994-7.84-54.34-2.24-26.402 1.29-58.777 2.85-63.397 1.78-5.284 13.16 5.2 22.08-6.793 9.26-12.453 8.54-27.548 5.7-47.55-2.85-20-2.85-31.697-2.85-31.697 12.58-11.825 17.98-18.616 34.19-31.7 15.54-12.55 22.79-19.622 38.46-24.15s31.34-6.794 74.79 3.773c38.46 9.056 77.64 21.887 77.64 21.887zm-8.55 320.762l199.44-15.85 408.14-30.19c15.79-1.167 23.15-3.772 24.93-.753 1.612 2.734-16.383 19.623-16.383 19.623s-127.5 11.32-206.56 24.15c-79.063 12.832-404.58 87.55-404.58 87.55s14.246-41.51 8.548-61.133c-4.274-13.585-13.533-23.397-13.533-23.397z" />
  <g
     id="g82"
     stroke-width="2.358"
     stroke="#000"
     fill-rule="evenodd">
    <path
       id="path74"
       fill="#f00"
       d="M444.18 95.615s-8.37 10.755-8.37 17.17 9.617 10.19 9.617 10.19l.356.943s-7.532.273-9.972 4.15c-2.49 3.963 8.91 20.945 8.91 20.945s3.21-13.208 3.56-24.53-4.09-28.868-4.09-28.868z" />
    <path
       id="path76"
       fill="#1d17ac"
       d="M488.52 114.11s34.9 21.887 59.83 21.887 42.025-15.094 56.983-15.094 73.365 43.02 80.488 55.85c7.13 12.83 3.57 40 2.14 43.775-1.42 3.774-22.08 21.132-38.46 27.17-16.38 6.038-57.69 10.19-76.21 9.057-18.49-1.13-68.38 1.132-85.47-2.264-17.67-3.51-24.93-8.3-32.76-18.11-7.83-9.81-11.39-50.56-9.97-87.55 1.43-36.98-1.42-54.34-1.42-54.34l24.93-7.54s-7.123 11.32-6.41 27.93c.58 13.57 2.848 18.12 6.41 19.63 3.56 1.51 19.94-20.38 19.94-20.38z" />
    <path
       id="path78"
       fill="#f00"
       d="M418.19 92.03s7.657 13.774 7.835 26.604c.178 12.83-15.492 11.133-15.492 11.133s2.85-30.944 3.384-33.397c.534-2.453 4.273-4.34 4.273-4.34z" />
    <path
       id="path80"
       fill="#00c4c4"
       d="M418.72 90.143s-10.684 0-14.78 4.34c-4.095 4.34 1.425 20.85 2.85 26.038 1.424 5.19 4.273 13.78 4.273 13.78s3.028-4.15 3.74-10.19 1.96-20.37 2.85-24.9c.89-4.53 1.067-9.05 1.067-9.05z" />
  </g>
  <g
     id="g116"
     transform="translate(85.183 -41.154)">
    <rect
       id="rect84"
       fill="#007400"
       height="29.189"
       width="68.907"
       y="515.63"
       x="617.14" />
    <rect
       id="rect86"
       fill="#1d17ac"
       height="29.189"
       width="68.907"
       y="552.87"
       x="617.14" />
    <rect
       id="rect88"
       fill="#00c4c4"
       height="29.189"
       width="68.907"
       y="590.12"
       x="617.14" />
    <g
       id="g102"
       font-family="'Bitstream Vera Sans'"
       fill="#000000">
      <text
         id="text92"
         style="font-style:normal;font-variant:normal;font-weight:normal;font-stretch:normal;line-height:0%;font-family:'Guru Gomke';-inkscape-font-specification:'Guru Gomke'"
         y="538.47699"
         x="696.74597">
        <tspan
           id="tspan90"
           style="font-style:normal;font-variant:normal;font-weight:normal;font-stretch:normal;font-size:24px;line-height:1;font-family:'Guru Gomke';-inkscape-font-specification:'Guru Gomke'"
           font-size="24"
           y="538.47699"
           x="696.74597">ᱠᱷᱟᱹᱯᱨᱤ</tspan>
      </text>
      <text
         id="text96"
         style="line-height:0%"
         y="575.80701"
         x="698.14099">
        <tspan
           id="tspan94"
           style="font-size:24px;line-height:1"
           font-size="24"
           y="575.80701"
           x="698.14099">
          <tspan
             id="tspan126"
             style="font-style:normal;font-variant:normal;font-weight:normal;font-stretch:normal;font-family:'Guru Gomke';-inkscape-font-specification:'Guru Gomke'">ᱥᱟᱢᱟᱝ ᱵᱩᱨᱥᱟ</tspan>
        </tspan>
      </text>
      <text
         id="text100"
         style="line-height:0%;-inkscape-font-specification:'Guru Gomke';font-family:'Guru Gomke';font-weight:normal;font-style:normal;font-stretch:normal;font-variant:normal;"
         y="687.79797"
         x="698.14099">
        <tspan
           id="tspan98"
           style="font-size:24px;line-height:1;-inkscape-font-specification:'Guru Gomke';font-family:'Guru Gomke';font-weight:normal;font-style:normal;font-stretch:normal;font-variant:normal;"
           font-size="24"
           y="687.79797"
           x="698.14099">ᱦᱚᱭᱚᱝ</tspan>
      </text>
    </g>
    <rect
       id="rect104"
       fill="#f00"
       height="29.189"
       width="68.907"
       y="627.36"
       x="617.14" />
    <rect
       id="rect106"
       stroke-width="2"
       stroke-linejoin="round"
       stroke="#000"
       fill="none"
       height="29.189"
       width="68.907"
       y="664.61"
       x="618.14" />
    <text
       id="text110"
       style="line-height:0%;font-family:'Bitstream Vera Sans';fill:#000000"
       y="613.13702"
       x="695.97302">
      <tspan
         id="tspan108"
         style="font-style:normal;font-variant:normal;font-weight:normal;font-stretch:normal;font-size:24px;line-height:1;font-family:'Guru Gomke';-inkscape-font-specification:'Guru Gomke'"
         font-size="24"
         y="613.13702"
         x="695.97302">ᱛᱟᱭᱚᱢ ᱵᱩᱨᱥᱟ</tspan>
    </text>
    <text
       id="text114"
       style="line-height:0%;font-family:'Bitstream Vera Sans';fill:#000000"
       y="650.46698"
       x="695.97302">
      <tspan
         id="tspan112"
         style="font-size:24px;line-height:1;-inkscape-font-specification:'Guru Gomke';font-family:'Guru Gomke';font-weight:normal;font-style:normal;font-stretch:normal;font-variant:normal"
         font-size="24"
         y="650.46698"
         x="695.97302">ᱟᱲᱟᱝ ᱞᱩᱴᱤ</tspan>
    </text>
  </g>
  <flowRoot
     xml:space="preserve"
     id="flowRoot1128"
     style="fill:black;fill-opacity:1;stroke:none;font-family:'Guru Gomke';font-style:normal;font-weight:normal;font-size:15.2253329px;line-height:1;letter-spacing:0px;word-spacing:0px;-inkscape-font-specification:'Guru Gomke, Normal';font-stretch:normal;font-variant:normal;text-anchor:start;text-align:start;writing-mode:lr;font-variant-ligatures:normal;font-variant-caps:normal;font-variant-numeric:normal;font-feature-settings:normal"><flowRegion
       id="flowRegion1130"><rect
         id="rect1132"
         width="68.656715"
         height="164.17911"
         x="335.82089"
         y="688.05969" /></flowRegion><flowPara
       id="flowPara1134"></flowPara></flowRoot></svg>
