<?xml version="1.0" standalone="no"?>
<!DOCTYPE svg PUBLIC "-//W3C//DTD SVG 1.1//EN" "http://www.w3.org/Graphics/SVG/1.1/DTD/svg11.dtd" >
<svg xmlns="http://www.w3.org/2000/svg" xmlns:xlink="http://www.w3.org/1999/xlink" version="1.1" viewBox="-42 0 1180 1000">
   <path fill="currentColor"
d="M721.5 280q-51.5 22 -82 66.5t-30.5 109.5q0 87 52 139.5t140 52.5q51 0 95 -25l8 -7l2 1q67 -46 67 -131h36v320h-40v-221q-12 27 -37 47l-235 216h-48l188 -171q-19 4 -45 4q-103 0 -163.5 -61.5t-60.5 -164.5q0 -76 36 -129h-240q36 21 59 60t23 90q0 53 -23.5 93.5
t-65.5 63t-96 22.5q-56 0 -99 -23t-67 -64t-24 -93q0 -84 54 -134t140 -50h368q36 -34 87.5 -51.5t112.5 -17.5h93v-127h-958v-35h1160v35h-162v163h-130q-63 0 -114.5 22zM369.5 368q-42.5 -41 -107.5 -41q-68 0 -111 41t-43 107q0 64 42.5 104.5t111.5 40.5
q65 0 107.5 -41.5t42.5 -105.5t-42.5 -105z" />
</svg>
