<?xml version="1.0" encoding="UTF-8" standalone="no"?>
<!-- Created with Inkscape (http://www.inkscape.org/) -->
<svg
   xmlns:dc="http://purl.org/dc/elements/1.1/"
   xmlns:cc="http://creativecommons.org/ns#"
   xmlns:rdf="http://www.w3.org/1999/02/22-rdf-syntax-ns#"
   xmlns:svg="http://www.w3.org/2000/svg"
   xmlns="http://www.w3.org/2000/svg"
   xmlns:sodipodi="http://sodipodi.sourceforge.net/DTD/sodipodi-0.dtd"
   xmlns:inkscape="http://www.inkscape.org/namespaces/inkscape"
   width="348"
   height="483"
   id="svg2"
   sodipodi:version="0.32"
   inkscape:version="0.46"
   version="1.0"
   sodipodi:docname="Edmonton federal ridings - Strathcona.svg"
   inkscape:output_extension="org.inkscape.output.svg.inkscape">
  <defs
     id="defs4">
    <inkscape:perspective
       sodipodi:type="inkscape:persp3d"
       inkscape:vp_x="0 : 526.18109 : 1"
       inkscape:vp_y="0 : 1000 : 0"
       inkscape:vp_z="744.09448 : 526.18109 : 1"
       inkscape:persp3d-origin="372.04724 : 350.78739 : 1"
       id="perspective10" />
    <inkscape:perspective
       id="perspective2466"
       inkscape:persp3d-origin="372.04724 : 350.78739 : 1"
       inkscape:vp_z="744.09448 : 526.18109 : 1"
       inkscape:vp_y="0 : 1000 : 0"
       inkscape:vp_x="0 : 526.18109 : 1"
       sodipodi:type="inkscape:persp3d" />
  </defs>
  <sodipodi:namedview
     id="base"
     pagecolor="#ffffff"
     bordercolor="#666666"
     borderopacity="1.0"
     gridtolerance="10000"
     guidetolerance="10"
     objecttolerance="10"
     inkscape:pageopacity="0.0"
     inkscape:pageshadow="2"
     inkscape:zoom="0.70710678"
     inkscape:cx="129.78164"
     inkscape:cy="110.85928"
     inkscape:document-units="px"
     inkscape:current-layer="layer1"
     showgrid="false"
     inkscape:window-width="1280"
     inkscape:window-height="1005"
     inkscape:window-x="1276"
     inkscape:window-y="-4" />
  <metadata
     id="metadata7">
    <rdf:RDF>
      <cc:Work
         rdf:about="">
        <dc:format>image/svg+xml</dc:format>
        <dc:type
           rdf:resource="http://purl.org/dc/dcmitype/StillImage" />
      </cc:Work>
    </rdf:RDF>
  </metadata>
  <g
     inkscape:label="Layer 1"
     inkscape:groupmode="layer"
     id="layer1"
     transform="translate(-1348.8572,-1265.1479)">
    <path
       style="fill:#e9c6af;fill-rule:evenodd;stroke:#000000;stroke-width:1px;stroke-linecap:butt;stroke-linejoin:miter;stroke-opacity:1;fill-opacity:1"
       d="M 276.07143,452.46429 L 134.82143,452.46429 L 134.82143,446.39286 L 143.57143,432.46429 L 144.28571,426.75 L 163.92857,386.57143 L 164.10714,377.64286 L 173.57143,364.60714 L 175.17857,297.64286 L 182.85714,297.28571 L 197.32143,293.71429 L 204.64286,291.57143 L 214.64286,291.57143 L 221.25,289.07143 L 243.03571,289.07143 L 253.92857,294.78571 L 275.53571,294.78571 L 276.07143,452.46429 z"
       id="Mill_Woods_Beaumont"
       transform="translate(1348.8572,1265.1479)"
       inkscape:label="#path2472" />
    <path
       style="fill:#e9c6af;fill-rule:evenodd;stroke:#000000;stroke-width:1px;stroke-linecap:butt;stroke-linejoin:miter;stroke-opacity:1;fill-opacity:1"
       d="M 162.14286,390.58929 L 71.339286,390.58929 L 69.196429,378.71429 L 65.178572,370.94643 L 62.589286,359.07143 L 62.589286,354.33929 L 75.178572,341.75 L 76.428572,334.96429 L 88.571429,325.23214 L 97.142857,313.17857 L 98.571429,311.92857 L 98.571429,307.01786 L 91.160715,301.125 L 84.375,296.83929 L 83.571429,292.10714 L 86.160715,288.71429 L 91.875,288.44643 L 101.51786,296.75 L 107.76786,296.75 L 110.53571,293 L 110.89286,284.42857 L 108.30357,277.91071 L 109.91071,274.16071 L 119.19643,270.14286 L 121.96429,269.42857 L 127.76786,269.51786 L 127.76786,271.39286 L 129.73214,279.60714 L 129.19643,286.57143 L 129.46429,290.85714 L 134.64286,294.25 L 165.71429,294.25 L 175.26786,297.64286 L 173.57143,364.42857 L 163.92857,377.73214 L 163.92857,386.66071 L 162.14286,390.58929 z"
       id="Leduc"
       transform="translate(1348.8572,1265.1479)"
       inkscape:label="#path2474" />
    <path
       style="fill:#e9c6af;fill-rule:evenodd;stroke:#000000;stroke-width:1px;stroke-linecap:butt;stroke-linejoin:miter;stroke-opacity:1;fill-opacity:1"
       d="M 69.553572,380.90179 L 40.401786,380.90179 L 40.401786,261.57143 L 24.464286,261.57143 L 24.464286,198.53571 L 41.785714,198.17857 L 54.285714,194.78571 L 71.785714,194.96429 L 81.25,196.92857 L 92.857143,193.35714 L 92.857143,261.92857 L 111.60714,261.92857 L 116.96429,261.39286 L 122.67857,263.71429 L 124.46429,266.66071 L 124.375,269.42857 L 121.83036,269.51786 L 119.01786,270.1875 L 109.82143,274.11607 L 108.30357,278.04464 L 110.84821,284.42857 L 110.49107,293.04464 L 107.76786,296.70536 L 101.47321,296.75 L 91.785715,288.40179 L 86.026786,288.66964 L 83.482143,292.15179 L 84.375,296.92857 L 91.383929,301.30357 L 98.526786,307.15179 L 98.526786,312.01786 L 97.008929,313.22321 L 88.616072,325.27679 L 76.383929,335.00893 L 75.133929,341.70536 L 62.544643,354.42857 L 62.589286,359.16071 L 65.178572,371.08036 L 69.285715,378.89286 L 69.553572,380.90179 z"
       id="Spruce_Grove"
       transform="translate(1348.8572,1265.1479)"
       inkscape:label="#path2476" />
    <path
       style="fill:#e9c6af;fill-rule:evenodd;stroke:#000000;stroke-width:1px;stroke-linecap:butt;stroke-linejoin:miter;stroke-opacity:1;fill-opacity:1"
       d="M 24.375,198.53571 L 24.375,173.625 L 41.25,173.625 L 47.857143,170.05357 L 52.589286,168 L 62.232143,154.69643 L 62.232143,150.76786 L 59.107143,150.76786 L 54.732143,144.875 L 54.732143,136.30357 L 50.267857,122.19643 L 50.267857,102.82143 L 76.428572,102.82143 L 76.428572,99.160713 L 81.964286,99.160713 L 86.428572,92.374999 L 92.946429,88.80357 L 95.625,92.107142 L 98.660715,92.285713 L 101.69643,102.375 L 105,102.91071 L 119.64286,112.01786 L 175.71429,112.01786 L 175.71429,187.01786 L 159.19643,187.01786 L 148.66071,187.01786 L 145.35714,184.69643 L 114.82143,184.69643 L 81.071429,196.92857 L 71.607143,194.96428 L 54.151786,194.78571 L 41.71875,198.22321 L 24.375,198.53571 z"
       id="St_Albert"
       transform="translate(1348.8572,1265.1479)"
       inkscape:label="#path2478" />
    <path
       style="fill:#e9c6af;fill-rule:evenodd;stroke:#000000;stroke-width:1px;stroke-linecap:butt;stroke-linejoin:miter;stroke-opacity:1;fill-opacity:1"
       d="M 175.49107,112.15178 L 217.54464,112.15178 L 217.54464,40.232141 L 308.79464,40.232141 L 308.79464,87.642856 L 321.91964,87.642856 L 325.53572,90.812499 L 325.53572,96.749999 L 315.35714,105.99107 L 315.35714,121.75 L 307.1875,123.66964 L 306.25,126.30357 L 295.625,126.30357 L 287.54464,129.83036 L 287.54464,134.74107 L 292.23214,136.125 L 297.76786,143.58036 L 302.05357,143.58036 L 305.13393,147.73214 L 306.65179,147.73214 L 307.94643,199.42857 L 257.14286,199.42857 L 257.14286,196.57143 L 227.85714,185.67857 L 210,185.67857 L 227.94643,166.92857 L 227.85714,162.82143 L 238.57143,144.96428 L 239.55357,136.30357 L 175.625,136.30357 L 175.49107,112.15178 z"
       id="Sherwood_Park"
       transform="translate(1348.8572,1265.1479)"
       inkscape:label="#path3250" />
    <path
       style="fill:#ff5555;fill-rule:evenodd;stroke:#000000;stroke-width:1px;stroke-linecap:butt;stroke-linejoin:miter;stroke-opacity:1;fill-opacity:1"
       d="M 275.45597,294.79595 L 275.45597,263.22869 L 272.10984,260.3245 L 253.48515,256.91523 L 241.80527,256.91523 L 241.80527,231.21948 L 237.07018,231.21948 L 236.06002,213.41554 L 228.48388,207.60716 L 224.56954,207.48089 L 209.41725,217.58242 L 201.33603,217.51928 L 198.1793,216.13032 L 193.88615,216.19346 L 192.30779,218.15063 L 192.37093,222.00184 L 196.53781,226.92633 L 196.41154,231.59828 L 193.57048,233.74486 L 180.2491,232.5453 L 178.44976,236.52278 L 178.44976,242.9625 L 173.74624,247.38192 L 171.28399,247.44505 L 163.20277,243.43601 L 150.03922,241.44727 L 141.13725,235.44949 L 134.60283,235.60733 L 131.5408,239.3954 L 131.5408,243.56228 L 142.74718,255.05276 L 142.74718,261.17681 L 135.36044,268.75296 L 133.05603,269.60527 L 127.65803,269.60527 L 127.65803,271.53088 L 129.77304,279.64367 L 129.11012,287.03041 L 129.48893,290.85005 L 134.79223,294.38558 L 165.72815,294.38558 L 175.48244,297.66857 L 182.96388,297.2582 L 204.61903,291.51296 L 214.59428,291.51296 L 221.22341,289.08228 L 243.09952,289.08228 L 253.9271,294.76439 L 275.45597,294.79595 z"
       id="Strathcona"
       transform="translate(1348.8572,1265.1479)"
       inkscape:label="#path3252" />
    <path
       style="fill:#e9c6af;fill-rule:evenodd;stroke:#000000;stroke-width:1px;stroke-linecap:butt;stroke-linejoin:miter;stroke-opacity:1;fill-opacity:1"
       d="M 236.09159,213.41554 L 242.43661,220.67601 L 247.73991,220.67601 L 251.68582,217.14048 L 253.32732,204.2926 L 257.14696,199.3681 L 257.11539,196.49548 L 227.7894,185.63634 L 209.92233,185.69948 L 227.9788,166.82225 L 227.82097,162.75008 L 238.5854,144.91457 L 239.50086,136.26514 L 175.57714,136.26514 L 175.57714,216.00405 L 180.12283,232.67157 L 193.44421,233.68172 L 196.47467,231.47202 L 196.53781,226.92633 L 192.24466,221.87557 L 192.30779,218.15063 L 193.94929,216.19346 L 198.24244,216.06719 L 201.33603,217.51928 L 209.48038,217.51928 L 224.63267,207.41776 L 228.54701,207.60716 L 236.09159,213.41554 z"
       id="East"
       transform="translate(1348.8572,1265.1479)"
       inkscape:label="#path3254" />
    <path
       style="fill:#e9c6af;fill-rule:evenodd;stroke:#000000;stroke-width:1px;stroke-linecap:butt;stroke-linejoin:miter;stroke-opacity:1;fill-opacity:1"
       d="M 175.57714,187.05687 L 148.61869,187.05687 L 145.27256,184.65776 L 114.8125,184.65776 L 92.8125,192.625 L 92.8125,262 L 111.75,262 L 116.875,261.375 L 122.75,263.75 L 124.625,266.875 L 124.375,269.4375 L 133.125,269.5625 L 135.4375,268.625 L 142.8125,261.0625 L 142.6875,255.0625 L 131.5,243.5625 L 131.5,239.3125 L 134.5625,235.5 L 141.0625,235.5 L 150.25,241.5625 L 163.1875,243.5 L 171.5625,247.625 L 173.75,247.4375 L 178.5,242.9375 L 178.5,236.375 L 180.1875,232.5 L 175.5,215.875 L 175.57714,187.05687 z"
       id="Centre"
       transform="translate(1348.8572,1265.1479)"
       inkscape:label="#path3256" />
    <path
       style="fill:#e9c6af;fill-rule:evenodd;stroke:#000000;stroke-width:1px;stroke-linecap:butt;stroke-linejoin:miter;stroke-opacity:1"
       d="M 275.5,294.625 L 348,294.625"
       id="path3258"
       transform="translate(1348.8572,1265.1479)" />
    <path
       style="fill:#e9c6af;fill-rule:evenodd;stroke:#000000;stroke-width:1px;stroke-linecap:butt;stroke-linejoin:miter;stroke-opacity:1"
       d="M 308.75,87.375001 L 328.75,69.250001 L 333.125,68.750001 L 347.625,56.625001"
       id="path3260"
       transform="translate(1348.8572,1265.1479)" />
    <path
       style="fill:#e9c6af;fill-rule:evenodd;stroke:#000000;stroke-width:1px;stroke-linecap:butt;stroke-linejoin:miter;stroke-opacity:1"
       d="M 24.571961,173.64078 L 12.28598,181.8609"
       id="path3262"
       transform="translate(1348.8572,1265.1479)" />
    <path
       style="fill:none;fill-rule:evenodd;stroke:#000000;stroke-width:1px;stroke-linecap:butt;stroke-linejoin:miter;stroke-opacity:1"
       d="M 71.417785,390.63418 L 70.710678,394.87682 L 62.932503,404.59954 L 55.06594,405.12987 L 47.287766,402.12466 L 42.072853,402.5666 L 39.156038,407.33957 L 38.890873,412.02416 L 43.221902,417.59262 L 43.221902,427.66889 L 38.095378,433.50253 L 31.819805,433.50253 L 28.814601,429.70183 L 29.256543,417.85779 L 26.604893,414.7642 L 12.639534,416.09002"
       id="path3264"
       transform="translate(1348.8572,1265.1479)" />
  </g>
</svg>
