<?xml version="1.0" encoding="UTF-8" standalone="no"?>
<!-- Created with Inkscape (http://www.inkscape.org/) -->

<svg
   xmlns:dc="http://purl.org/dc/elements/1.1/"
   xmlns:cc="http://creativecommons.org/ns#"
   xmlns:rdf="http://www.w3.org/1999/02/22-rdf-syntax-ns#"
   xmlns:svg="http://www.w3.org/2000/svg"
   xmlns="http://www.w3.org/2000/svg"
   xmlns:sodipodi="http://sodipodi.sourceforge.net/DTD/sodipodi-0.dtd"
   xmlns:inkscape="http://www.inkscape.org/namespaces/inkscape"
   width="33.089676mm"
   height="31.194393mm"
   viewBox="0 0 33.089676 31.194393"
   version="1.1"
   id="svg8"
   inkscape:version="0.92.4 (5da689c313, 2019-01-14)"
   sodipodi:docname="Former_Emblem_of_Kiryu,_Gumma.svg">
  <defs
     id="defs2" />
  <sodipodi:namedview
     id="base"
     pagecolor="#ffffff"
     bordercolor="#666666"
     borderopacity="1.0"
     inkscape:pageopacity="0.0"
     inkscape:pageshadow="2"
     inkscape:zoom="2.8"
     inkscape:cx="114.73219"
     inkscape:cy="94.610566"
     inkscape:document-units="mm"
     inkscape:current-layer="layer1"
     showgrid="false"
     inkscape:window-width="1920"
     inkscape:window-height="996"
     inkscape:window-x="1912"
     inkscape:window-y="-8"
     inkscape:window-maximized="1"
     fit-margin-top="0"
     fit-margin-left="0"
     fit-margin-right="0"
     fit-margin-bottom="0" />
  <metadata
     id="metadata5">
    <rdf:RDF>
      <cc:Work
         rdf:about="">
        <dc:format>image/svg+xml</dc:format>
        <dc:type
           rdf:resource="http://purl.org/dc/dcmitype/StillImage" />
        <dc:title></dc:title>
      </cc:Work>
    </rdf:RDF>
  </metadata>
  <g
     inkscape:label="レイヤー 1"
     inkscape:groupmode="layer"
     id="layer1"
     transform="translate(-91.900783,-52.926306)">
    <path
       style="fill:#000000;stroke-width:0.43861932"
       d="m 98.630397,83.751184 c -0.170967,-0.170966 -1.219323,-0.417689 -2.32968,-0.548274 -1.934772,-0.22754 -2.073024,-0.341048 -3.320312,-2.726055 -1.245479,-2.381548 -1.278826,-2.589151 -0.774985,-4.824812 0.780317,-3.462457 1.392022,-4.478145 2.980538,-4.94895 0.839634,-0.248851 1.415984,-0.708693 1.415984,-1.129746 0,-1.085735 1.886492,-2.617468 3.223691,-2.617468 1.043927,0 1.136507,-0.10624 0.739317,-0.848403 -0.719621,-1.344619 -0.53097,-3.332218 0.39588,-4.171007 0.66275,-0.599786 0.76206,-1.000295 0.45092,-1.818648 -0.56013,-1.47325 -0.16079,-2.295739 2.25931,-4.65337 3.49223,-3.402077 6.21233,-3.385846 9.92738,0.05923 2.08859,1.936823 2.30405,2.312766 2.3167,4.042434 0.008,1.04886 0.30374,2.290156 0.65793,2.758436 0.83217,1.100236 0.81802,2.433171 -0.0388,3.65649 -0.66163,0.944607 -0.64061,0.974834 0.67786,0.974834 1.43802,0 3.51389,1.640113 3.51389,2.776261 0,0.342671 0.58364,0.739766 1.29697,0.882433 1.6424,0.328479 2.4939,1.920516 2.88739,5.398496 0.55642,4.918129 -1.75447,7.219524 -7.94772,8.057646 -1.3155,0.178024 -1.53701,-0.111947 -2.19987,-0.990722 -0.69149,-0.916729 -0.96626,-1.002671 -1.98104,-0.619634 -1.38111,0.521314 -3.41316,-0.537525 -3.78888,-1.974277 -0.19852,-0.759169 -0.31387,-0.706373 -1.03019,0.47152 -0.89154,1.466014 -2.54555,2.10157 -3.73578,1.43548 -0.60136,-0.336536 -0.95536,-0.199621 -1.59878,0.618354 -0.81042,1.030293 -3.254836,1.482614 -3.997701,0.739748 z m 3.231183,-3.069371 c 0.58775,-0.411677 1.67618,-0.696161 2.41873,-0.632187 2.05347,0.176917 3.04687,-1.189007 3.05843,-4.205375 0.006,-1.569891 -0.18677,-2.51168 -0.5389,-2.632573 -0.34571,-0.118687 -0.54827,0.230411 -0.54827,0.944868 0,1.231245 -0.40404,1.430857 -1.22814,0.606757 -0.9099,-0.909899 -0.57112,0.202832 0.3652,1.199493 1.71983,1.830684 -0.44877,4.59443 -2.21735,2.825856 -0.93403,-0.934035 -1.15922,-2.451353 -0.4013,-2.703993 0.32173,-0.107244 0.32918,-0.515136 0.0241,-1.317641 -0.34677,-0.912057 -0.6501,-1.107873 -1.40882,-0.909463 -1.631186,0.426566 -3.130532,-2.923206 -1.575504,-3.519927 1.125904,-0.432051 2.932884,0.20235 2.932884,1.029691 0,0.440121 0.19737,0.922207 0.43861,1.071302 0.24125,0.149095 0.43862,-0.03663 0.43862,-0.412734 0,-0.376098 0.19738,-0.683815 0.43862,-0.683815 0.24124,0 0.43862,0.197379 0.43862,0.43862 0,0.24124 0.41121,0.438619 0.91379,0.438619 1.25111,0 0.86829,-0.883432 -0.90281,-2.083442 -2.59263,-1.756635 -6.151647,-1.040664 -6.151647,1.237533 0,0.524144 -0.302222,0.845909 -0.794532,0.845909 -1.09382,0 -2.714423,1.598641 -2.714423,2.677638 0,0.488943 -0.223234,1.306104 -0.496075,1.815913 -0.771185,1.440972 0.574791,3.582179 2.611079,4.153761 2.447116,0.6869 3.723308,0.638758 4.899118,-0.18481 z m -5.433441,-2.580716 c -0.367502,-0.957696 1.064748,-3.253041 2.14317,-3.434678 0.484912,-0.08167 1.424449,-0.151357 2.087861,-0.154854 1.41764,-0.0075 1.59047,0.955785 0.53701,2.992959 -0.58607,1.133332 -0.90714,1.294077 -2.584788,1.294077 -1.346435,0 -1.995122,-0.207242 -2.183253,-0.697504 z m 23.534421,2.866392 c 2.01582,-0.559811 3.16657,-2.13751 2.78227,-3.814523 -0.15193,-0.662965 -0.34176,-1.61901 -0.42185,-2.124544 -0.2254,-1.422774 -0.70381,-1.969977 -2.30845,-2.640442 -0.89921,-0.375713 -1.48163,-0.927099 -1.48163,-1.402689 0,-1.18563 -0.89089,-1.836315 -2.51421,-1.836315 -1.8538,0 -4.43478,1.064531 -4.78335,1.972898 -0.39191,1.021305 0.18909,1.365018 1.21955,0.721477 1.1295,-0.705384 1.57613,-0.323607 0.76743,0.655999 -0.52576,0.636879 -0.52089,0.710141 0.035,0.526355 0.35521,-0.117427 0.75589,-0.679698 0.8904,-1.249493 0.31552,-1.336586 2.53694,-2.031696 3.47977,-1.088866 1.04162,1.041625 0.10004,3.071863 -1.41446,3.049842 -0.65403,-0.0095 -1.18913,0.117407 -1.18913,0.282037 0,0.533798 1.29463,0.814115 2.57619,0.557803 1.04128,-0.208255 1.41306,-0.02219 2.21997,1.111009 1.46001,2.050393 1.08562,2.891254 -1.28731,2.891254 -1.74924,0 -2.02927,-0.142612 -2.58376,-1.315858 -0.62231,-1.316733 -1.39492,-2.088787 -1.74248,-1.741228 -0.10167,0.101674 0.0704,0.492427 0.38238,0.868342 0.46359,0.558598 0.46375,0.876854 8.3e-4,1.741813 -0.81846,1.529317 -1.83249,1.767658 -2.74197,0.644487 -1.02954,-1.271422 -0.97212,-2.085976 0.21546,-3.056795 0.79166,-0.647155 0.87843,-0.917043 0.43862,-1.364234 -0.44222,-0.449652 -0.54827,-0.413256 -0.54827,0.188175 0,0.410109 -0.19737,0.745653 -0.43861,0.745653 -0.24125,0 -0.43862,-0.493447 -0.43862,-1.096548 0,-1.272506 -0.66153,-1.441934 -1.26046,-0.322823 -0.4713,0.880617 -0.0434,3.762728 0.78828,5.309243 0.47876,0.890287 0.79951,1.006541 2.24295,0.812935 1.29185,-0.173273 1.85972,-0.03208 2.43715,0.605975 0.84542,0.934185 2.24558,1.044641 4.67826,0.369061 z m -7.62561,-13.095003 c 2.35975,-1.68029 2.91444,-3.686829 1.39845,-5.058778 -0.66276,-0.599786 -0.76206,-1.000296 -0.45092,-1.818649 0.54189,-1.425286 0.15424,-2.301831 -1.87381,-4.237079 -2.34201,-2.234826 -3.53922,-2.171103 -5.98426,0.318517 -1.68167,1.712321 -1.88741,2.128242 -1.64712,3.329728 0.20169,1.008455 0.0423,1.668309 -0.60035,2.485304 -1.26814,1.612185 -1.10687,2.238029 1.12872,4.3801 1.9308,1.850027 2.08828,1.913645 4.33001,1.749161 1.48527,-0.108978 2.82273,-0.524143 3.69928,-1.148304 z m -5.09849,-0.158159 c -1.22236,-0.562178 -1.30648,-1.382954 -0.10966,-1.069978 0.48249,0.126172 0.87724,0.06215 0.87724,-0.142267 0,-0.715455 -0.86753,-0.898121 -1.82691,-0.384673 -0.84172,0.450472 -1.10025,0.363991 -1.9843,-0.663783 -0.80596,-0.936983 -0.92215,-1.358013 -0.56099,-2.032839 0.71716,-1.34002 2.87602,-1.131853 3.6827,0.355102 0.58305,1.074723 0.65629,1.105077 0.67194,0.278462 0.01,-0.510258 -0.39602,-1.45353 -0.90152,-2.096161 -0.86026,-1.093653 -0.87749,-1.272854 -0.26928,-2.800522 1.06354,-2.671342 3.08827,-2.325141 3.64127,0.622609 0.20328,1.083599 0.083,1.729679 -0.42701,2.293214 -0.39052,0.431519 -0.69445,1.262484 -0.67541,1.84659 0.0339,1.038603 0.0443,1.035424 0.47517,-0.144192 0.49697,-1.360682 2.17028,-1.65912 3.24979,-0.579604 0.8121,0.812102 0.78159,1.121565 -0.24096,2.443736 -0.74614,0.964761 -0.95797,1.028869 -1.76257,0.533415 -0.91204,-0.561615 -1.96432,-0.348003 -1.55425,0.315512 0.11887,0.19233 -0.12463,0.648845 -0.54112,1.014477 -0.57665,0.50625 -0.99259,0.556545 -1.74413,0.210902 z"
       id="path826"
       inkscape:connector-curvature="0"
       sodipodi:nodetypes="cssssssccccccccsscsssccccccccsccssccccssscssssssssssccscccssccccsscccccccsssscccccccsssccscccccccccccccscsccccccscccccccccs" />
  </g>
</svg>
