<?xml version="1.0" encoding="UTF-8" standalone="no"?>
<!-- Created with Serif DrawPlus 11, 0, 2, 22 (Jul 14, 14:37:26) (http://www.serif.com) -->
<svg version="1.1" xmlns="http://www.w3.org/2000/svg" xmlns:xlink="http://www.w3.org/1999/xlink" width="277.756" height="291.18">
	<g id="dp_group001">
		<path id="dp_path003" fill="#a4a29c" fill-rule="evenodd" stroke="black" stroke-width="0.7" d="M 237.949,110.201 C 256.091,110.416 270.621,125.321 270.407,143.491 C 270.191,161.66 255.311,176.215 237.169,175.999 C 219.028,175.783 204.497,160.879 204.712,142.709 C 204.928,124.54 219.808,109.985 237.949,110.201 Z "/>
		<path id="dp_path004" fill="#a4a29c" fill-rule="evenodd" stroke="black" stroke-width="0.706667" d="M 244.659,0.354667 C 252.328,0.354667 258.545,6.58133 258.545,14.2627 C 258.545,21.944 252.328,28.1707 244.659,28.1707 C 236.989,28.1707 230.772,21.944 230.772,14.2627 C 230.772,6.58133 236.989,0.354667 244.659,0.354667 Z "/>
		<path id="dp_path005" fill="#a4a29c" fill-rule="evenodd" stroke="black" stroke-width="0.706667" d="M 44.472,146.887 C 50.508,146.887 55.4013,151.788 55.4013,157.833 C 55.4013,163.879 50.508,168.78 44.472,168.78 C 38.436,168.78 33.5427,163.879 33.5427,157.833 C 33.5427,151.788 38.436,146.887 44.472,146.887 Z "/>
		<path id="dp_path006" fill="#a4a29c" fill-rule="evenodd" stroke="black" stroke-width="0.706667" d="M 55.4013,127.499 C 61.4373,127.499 66.3307,132.4 66.3307,138.445 C 66.3307,144.491 61.4373,149.392 55.4013,149.392 C 49.3653,149.392 44.472,144.491 44.472,138.445 C 44.472,132.4 49.3653,127.499 55.4013,127.499 Z "/>
		<path id="dp_path007" fill="#a4a29c" fill-rule="evenodd" stroke="black" stroke-width="0.7" d="M 16.9293,136.936 C 26.0853,136.936 33.508,144.369 33.508,153.54 C 33.508,162.711 26.0853,170.144 16.9293,170.144 C 7.77333,170.144 0.350667,162.711 0.350667,153.54 C 0.350667,144.369 7.77333,136.936 16.9293,136.936 Z "/>
		<path id="dp_path008" fill="white" fill-rule="evenodd" stroke="black" stroke-width="0.706667" stroke-dasharray="5.088,4.24" d="M 233.169,116.299 C 240.839,116.299 247.056,122.525 247.056,130.207 C 247.056,137.888 240.839,144.115 233.169,144.115 C 225.5,144.115 219.283,137.888 219.283,130.207 C 219.283,122.525 225.5,116.299 233.169,116.299 Z "/>
		<path id="dp_path009" fill="white" fill-rule="evenodd" stroke="black" stroke-width="0.706667" stroke-dasharray="5.088,4.24" d="M 245.056,141.115 C 252.725,141.115 258.943,147.341 258.943,155.023 C 258.943,162.704 252.725,168.931 245.056,168.931 C 237.387,168.931 231.169,162.704 231.169,155.023 C 231.169,147.341 237.387,141.115 245.056,141.115 Z "/>
		<path id="dp_path010" fill="#04a021" fill-rule="evenodd" stroke="black" stroke-width="0.7" d="M 57.84,116.799 L 51.1253,102.788 L 55.544,102.788 L 55.544,70.0987 L 60.1373,70.0987 L 60.1373,102.788 L 64.556,102.788 Z "/>
		<path id="dp_path011" fill="#9f0000" fill-rule="evenodd" stroke="black" stroke-width="0.7" d="M 247.331,56.7707 L 240.616,70.7813 L 245.035,70.7813 L 245.035,103.471 L 249.628,103.471 L 249.628,70.7813 L 254.047,70.7813 Z "/>
		<path id="dp_path012" fill="#a4a29c" fill-rule="evenodd" stroke="black" stroke-width="0.706667" d="M 66.3307,146.824 C 72.3667,146.824 77.26,151.725 77.26,157.771 C 77.26,163.816 72.3667,168.717 66.3307,168.717 C 60.2947,168.717 55.4013,163.816 55.4013,157.771 C 55.4013,151.725 60.2947,146.824 66.3307,146.824 Z "/>
		<text id="dp_text001" transform="matrix(1.03233,0,0,1,62.215,162.518)" xml:space="preserve" fill="black" font-family="Arial" font-size="16" font-weight="400" font-style="italic" x="0" y="0">y  </text>
		<text id="dp_text002" transform="matrix(1.03233,0,0,1,51.285,142.963)" xml:space="preserve" fill="black" font-family="Arial" font-size="16" font-weight="400" font-style="italic" x="0" y="0">y  </text>
		<text id="dp_text003" transform="matrix(1.03233,0,0,1,40.613,162.739)" xml:space="preserve" fill="black" font-family="Arial" font-size="16" font-weight="400" font-style="italic" x="0" y="0">y  </text>
		<text id="dp_text004" transform="matrix(1.03233,0,0,1,12.812,159.567)" xml:space="preserve" fill="black" font-family="Arial" font-size="16" font-weight="400" font-style="italic" x="0" y="0">x  </text>
		<text id="dp_text005" transform="matrix(1.03233,0,0,1,240.541,20.2894)" xml:space="preserve" fill="black" font-family="Arial" font-size="16" font-weight="400" font-style="italic" x="0" y="0">z  </text>
		<text id="dp_text006" transform="matrix(1.03154,0,0,1,214.563,161.05)" xml:space="preserve" fill="black" font-family="Arial" font-size="16" font-weight="400" x="0" y="0">1 </text>
		<text id="dp_text007" transform="matrix(1,0,0,1,255.64,90.2975)" xml:space="preserve" fill="#9f0000" font-family="Times New Roman" font-size="27" font-weight="400" x="0" y="0">− </text>
		<text id="dp_text008" transform="matrix(1,0,0,1,270.987,90.2975)" xml:space="preserve" fill="black" font-family="Times New Roman" font-size="27" font-weight="400" x="0" y="0">  </text>
		<text id="dp_text009" transform="matrix(1,0,0,1,195.043,90.2987)" xml:space="preserve" fill="#04a021" font-family="Times New Roman" font-size="27" font-weight="400" x="0" y="0">+  </text>
		<path id="dp_path022" fill="#04a021" fill-rule="evenodd" stroke="black" stroke-width="0.7" d="M 223.013,104.211 L 216.299,90.2 L 220.717,90.2 L 220.717,57.5107 L 225.311,57.5107 L 225.311,90.2 L 229.729,90.2 Z "/>
		<text id="dp_text010" transform="matrix(1,0,0,1,67.557,103.417)" xml:space="preserve" fill="#04a021" font-family="Times New Roman" font-size="27" font-weight="400" x="0" y="0">+  </text>
		<path id="dp_path025" fill="#4040c0" fill-rule="evenodd" stroke="black" stroke-width="0.7" d="M 135.965,221.627 L 119.539,195.859 L 152.393,195.859 L 135.965,221.627 L 152.393,247.393 L 119.539,247.393 Z "/>
		<path id="dp_path026" fill="#8080c0" fill-rule="evenodd" stroke="black" stroke-width="0.7" d="M 39.4307,179.713 C 87.6987,179.713 87.6987,198.063 135.965,198.063 C 184.233,198.063 184.233,179.713 232.5,179.713 L 232.5,177.044 C 184.233,177.044 184.233,188.52 135.965,188.52 C 87.6987,188.52 87.6987,177.044 39.4307,177.044 Z "/>
		<path id="dp_path027" fill="#4040c0" fill-rule="evenodd" stroke="black" stroke-width="0.7" d="M 78.0427,167.164 C 78.0427,172.62 60.7547,177.043 39.4293,177.043 C 18.104,177.043 0.816,172.62 0.816,167.164 C 0.816,167.197 18.104,167.224 39.4293,167.224 C 60.7547,167.224 78.0427,167.197 78.0427,167.164 Z "/>
		<path id="dp_path028" fill="#4040c0" fill-rule="evenodd" stroke="black" stroke-width="0.7" d="M 271.115,167.164 C 271.115,172.62 253.827,177.043 232.501,177.043 C 211.176,177.043 193.888,172.62 193.888,167.164 C 193.888,167.197 211.176,167.224 232.501,167.224 C 253.827,167.224 271.115,167.197 271.115,167.164 Z "/>
		<text id="dp_text011" transform="matrix(1,0,0,1,128.292,160.266)" xml:space="preserve" fill="#4040c0" font-family="Times New Roman" font-size="27" font-weight="400" x="0" y="0">= </text>
		<text id="dp_text012" transform="matrix(1,0,0,1,143.639,160.266)" xml:space="preserve" fill="black" font-family="Times New Roman" font-size="27" font-weight="400" x="0" y="0">  </text>
		<path id="dp_path031" fill="#a4a29c" fill-rule="evenodd" stroke="black" stroke-width="0.706667" d="M 256.545,25.1707 C 264.215,25.1707 270.432,31.3973 270.432,39.0787 C 270.432,46.76 264.215,52.9867 256.545,52.9867 C 248.876,52.9867 242.659,46.76 242.659,39.0787 C 242.659,31.3973 248.876,25.1707 256.545,25.1707 Z "/>
		<text id="dp_text013" transform="matrix(1.03233,0,0,1,251.428,44.4454)" xml:space="preserve" fill="black" font-family="Arial" font-size="16" font-weight="400" font-style="italic" x="0" y="0">z  </text>
		<path id="dp_path033" fill="#04a021" fill-rule="evenodd" stroke="black" stroke-width="0.7" d="M 19.2253,116.799 L 12.5107,102.788 L 16.9293,102.788 L 16.9293,70.0987 L 21.5227,70.0987 L 21.5227,102.788 L 25.9413,102.788 Z "/>
		<text id="dp_text014" transform="matrix(1,0,0,1,28.942,103.417)" xml:space="preserve" fill="#04a021" font-family="Times New Roman" font-size="27" font-weight="400" x="0" y="0">+  </text>
		<text id="dp_text015" transform="matrix(1.03333,0,0,1,39.584,284.859)" xml:space="preserve" fill="black" font-family="Verdana" font-size="30" font-weight="400" x="0" y="0">   </text>
		<text id="dp_text016" transform="matrix(1.03158,0,0,1,199.036,283.558)" xml:space="preserve" fill="black" font-family="Arial" font-size="27" font-weight="400" x="0" y="0">2 </text>
		<text id="dp_text017" transform="matrix(1.03261,0,0,1,214.327,283.558)" xml:space="preserve" fill="black" font-family="Arial" font-size="27" font-weight="400" font-style="italic" x="0" y="0">z </text>
		<text id="dp_text018" transform="matrix(1.03158,0,0,1,228.123,283.558)" xml:space="preserve" fill="black" font-family="Arial" font-size="27" font-weight="400" x="0" y="0">  </text>
		<text id="dp_text019" transform="matrix(1.03158,0,0,1,152.615,283.558)" xml:space="preserve" fill="black" font-family="Arial" font-size="27" font-weight="400" x="0" y="0">1  </text>
		<text id="dp_text020" transform="matrix(1.03158,0,0,1,88.697,283.558)" xml:space="preserve" fill="black" font-family="Arial" font-size="27" font-weight="400" x="0" y="0">3 </text>
		<text id="dp_text021" transform="matrix(1.03261,0,0,1,103.986,283.558)" xml:space="preserve" fill="black" font-family="Arial" font-size="27" font-weight="400" font-style="italic" x="0" y="0">y </text>
		<text id="dp_text022" transform="matrix(1.03158,0,0,1,117.783,283.558)" xml:space="preserve" fill="black" font-family="Arial" font-size="27" font-weight="400" x="0" y="0">  </text>
		<text id="dp_text023" transform="matrix(1.03234,0,0,1,46.313,283.558)" xml:space="preserve" fill="black" font-family="Arial" font-size="27" font-weight="400" font-style="italic" x="0" y="0">x  </text>
		<path id="dp_path045" fill="black" fill-rule="evenodd" d="M 177.995,276.212 L 192.173,276.212 L 192.173,277.479 L 177.995,277.479 Z "/>
		<path id="dp_path046" fill="black" fill-rule="evenodd" d="M 128.881,273.811 L 143.06,273.811 L 143.06,275.077 L 128.881,275.077 Z M 128.881,278.7 L 143.06,278.7 L 143.06,279.967 L 128.881,279.967 Z "/>
		<path id="dp_path047" fill="black" fill-rule="evenodd" d="M 75.424,270.033 L 76.736,270.033 L 76.736,276.233 L 83.1587,276.233 L 83.1587,277.5 L 76.736,277.5 L 76.736,283.7 L 75.424,283.7 L 75.424,277.5 L 69.0027,277.5 L 69.0027,276.233 L 75.424,276.233 Z "/>
	</g>
</svg>