<svg xmlns="http://www.w3.org/2000/svg" width="800" height="246" xmlns:v="https://vecta.io/nano"><path d="M0 0h800v246H0z" fill="#00317f" stroke="#fff" stroke-width="24"/><path d="M196.675 89.725l-.47-1.274C184.834 58.065 155.123 39.9 124.787 39.9a73.139 73.139 0 0 0-39.669 11.545c-24.4 14.812-36.607 42.774-36.607 70.736s12.2 55.911 36.607 70.72a73.036 73.036 0 0 0 39.656 11.546c30.342 0 60.075-18.172 71.431-48.551l.47-1.274-34.862-13.744-.135.6c-3.333 17.741-19.83 29.751-36.88 29.751a34.983 34.983 0 0 1-15.412-3.537c-17.853-8.075-22.8-26.73-22.8-44.819v-.7-.724c0-18.083 4.963-36.72 22.8-44.8a35.052 35.052 0 0 1 15.4-3.526c17.049 0 33.537 11.992 36.888 29.74l.135.6zM313.387 43h-46.728l-52.695 158.35h38.012l8.314-25.342h58.594l8.316 25.342h38.011zm-41.969 98.954l17.432-54.64 18.972 54.64h-36.4zm110.375 4.022H436.5v-33.32h-54.707v33.32zm81.538 8.179l.2 1.274c2.482 20.755 16.024 39.645 36.672 45.253a93.738 93.738 0 0 0 27.361 4.06c24.248 0 48.8-9.5 56.709-33.826a59.93 59.93 0 0 0 3.172-18.986c0-13.92-5.395-27.438-20.066-31.832l-.47-.134.4-.135c7.921-2.993 13.09-10.379 15.754-18.168a39.235 39.235 0 0 0 2.27-13.289 44.73 44.73 0 0 0-6.293-22.644C568.844 47 547.852 39.7 527.378 39.7a88.374 88.374 0 0 0-14.972 1.286c-25.9 3.476-47.845 22.052-48.739 49.276v.872l37.342 3.62v-.335q-.032-.588-.032-1.16c0-13.252 12.893-20.294 25.29-20.294a28.651 28.651 0 0 1 11.816 2.414 15.943 15.943 0 0 1 8.464 13.857 13.694 13.694 0 0 1-.486 3.64c-2.609 9.084-15.347 11.673-25.216 11.673a51.134 51.134 0 0 1-6.025-.342l-.8-.068v32.918l2.681-.134c.523.016 1.052.022 1.586.022 2.97 0 6.1-.208 9.2-.208 5.556 0 11.006.67 15.225 4.41a15.949 15.949 0 0 1-.537 23.866 25.482 25.482 0 0 1-15.8 4.9 39.275 39.275 0 0 1-12.162-2.016 20.4 20.4 0 0 1-13.005-18.635v-.473zm267.623-11.4V43h-45.12L608.2 145.906v31.711h85.545v23.733h37.208v-23.733h19.777v-34.862h-19.776zm-37.208 0h-41.969l41.969-54.638v54.638z" fill="#fff" fill-rule="evenodd"/></svg>