<svg xmlns="http://www.w3.org/2000/svg" width="800" height="246" xmlns:v="https://vecta.io/nano"><path d="M0 0h800v246H0z" fill="#00317f" stroke="#fff" stroke-width="24"/><path d="M202.741 117.011l-.67-.4.535-.537a42.334 42.334 0 0 0 11.579-29.14c0-21.782-16.4-42.786-41.411-43.935H96.011V201.35h84.673c27.327-1.354 43.641-23.462 43.641-45.948 0-14.439-6.725-29.034-21.584-38.391zM132.415 76.25h31.643c9.434.274 14.148 7.268 14.148 14.259s-4.718 13.984-14.148 14.235h-31.643V76.25zm36.4 91.847h-36.4v-33.252h36.4c11.023.4 16.532 8.511 16.532 16.624s-5.51 16.231-16.529 16.631zm96.608 33.319h36.538V42.931h-36.535v158.485zm72.828-55.443h54.709v-33.32h-54.706v33.32zm81.538 8.179l.2 1.274c2.482 20.755 16.024 39.645 36.672 45.253a93.738 93.738 0 0 0 27.361 4.06c24.248 0 48.8-9.5 56.709-33.826a59.93 59.93 0 0 0 3.172-18.986c0-13.92-5.4-27.438-20.066-31.832l-.47-.134.4-.135c7.921-2.993 13.09-10.379 15.754-18.168a39.235 39.235 0 0 0 2.27-13.289 44.73 44.73 0 0 0-6.293-22.644C525.3 47 504.313 39.7 483.839 39.7a88.374 88.374 0 0 0-14.972 1.286c-25.9 3.476-47.845 22.052-48.739 49.276v.872l37.342 3.62v-.335q-.032-.588-.032-1.16c0-13.252 12.893-20.294 25.29-20.294a28.647 28.647 0 0 1 11.816 2.414 15.943 15.943 0 0 1 8.464 13.857 13.694 13.694 0 0 1-.486 3.64c-2.609 9.084-15.347 11.673-25.216 11.673a51.134 51.134 0 0 1-6.025-.342l-.8-.068v32.918l2.681-.134c.523.016 1.052.022 1.586.022 2.97 0 6.1-.208 9.2-.208 5.556 0 11.006.67 15.225 4.41a15.949 15.949 0 0 1-.537 23.866 25.48 25.48 0 0 1-15.795 4.9 39.275 39.275 0 0 1-12.162-2.016 20.4 20.4 0 0 1-13-18.635v-.473zm288.718-68.517c-8.078-26.647-34.252-46-62.061-46q-.614 0-1.227.013c-23.431.062-46.241 13.633-57.186 34.392-7.174 14.473-10.309 30.706-10.309 46.981a137.284 137.284 0 0 0 4.744 35.347c8.4 30.828 35.931 48.079 63.765 48.079a64.142 64.142 0 0 0 51.681-25.621c11.388-15.451 15.937-35.253 15.937-55.047a142.508 142.508 0 0 0-5.344-38.144zm-33.052 54.037c-1.3 19.071-15.623 29.137-29.9 29.137-12.649 0-25.264-7.9-28.762-24.444a148.934 148.934 0 0 1-1.837-22.87 115.591 115.591 0 0 1 2.644-25.132 29.663 29.663 0 0 1 20.313-19.979 27.911 27.911 0 0 1 7.692-1.068 29.739 29.739 0 0 1 23.818 11.929c5.623 7.708 7.18 20.42 7.18 32.5a195.17 195.17 0 0 1-1.148 19.927z" fill="#fff" fill-rule="evenodd"/></svg>