<?xml version="1.0" encoding="UTF-8" standalone="no"?>
<!-- Created with Inkscape (http://www.inkscape.org/) -->
<svg
   xmlns:dc="http://purl.org/dc/elements/1.1/"
   xmlns:cc="http://creativecommons.org/ns#"
   xmlns:rdf="http://www.w3.org/1999/02/22-rdf-syntax-ns#"
   xmlns:svg="http://www.w3.org/2000/svg"
   xmlns="http://www.w3.org/2000/svg"
   xmlns:sodipodi="http://sodipodi.sourceforge.net/DTD/sodipodi-0.dtd"
   xmlns:inkscape="http://www.inkscape.org/namespaces/inkscape"
   id="svg2"
   sodipodi:version="0.32"
   inkscape:version="0.46"
   width="260"
   height="52"
   version="1.0"
   sodipodi:docname="Ethylencyanhydrin.svg"
   inkscape:output_extension="org.inkscape.output.svg.inkscape">
  <metadata
     id="metadata7">
    <rdf:RDF>
      <cc:Work
         rdf:about="">
        <dc:format>image/svg+xml</dc:format>
        <dc:type
           rdf:resource="http://purl.org/dc/dcmitype/StillImage" />
      </cc:Work>
    </rdf:RDF>
  </metadata>
  <defs
     id="defs5">
    <inkscape:perspective
       sodipodi:type="inkscape:persp3d"
       inkscape:vp_x="0 : 526.18109 : 1"
       inkscape:vp_y="0 : 1000 : 0"
       inkscape:vp_z="744.09448 : 526.18109 : 1"
       inkscape:persp3d-origin="372.04724 : 350.78739 : 1"
       id="perspective9" />
  </defs>
  <sodipodi:namedview
     inkscape:window-height="1003"
     inkscape:window-width="1400"
     inkscape:pageshadow="2"
     inkscape:pageopacity="0.0"
     guidetolerance="10.0"
     gridtolerance="10.0"
     objecttolerance="10.0"
     borderopacity="1.0"
     bordercolor="#666666"
     pagecolor="#ffffff"
     id="base"
     showgrid="false"
     inkscape:zoom="4.1846154"
     inkscape:cx="115.57564"
     inkscape:cy="35.558824"
     inkscape:window-x="0"
     inkscape:window-y="20"
     inkscape:current-layer="svg2" />
  <path
     style="font-size:32px;font-style:normal;font-weight:normal;line-height:125%;fill:#000000;fill-opacity:1;stroke:none;stroke-width:1px;stroke-linecap:butt;stroke-linejoin:miter;stroke-opacity:1;font-family:Bitstream Vera Sans"
     d="M 5.8170509,33.074493 L 5.8170509,10.168243 L 8.9264259,10.168243 L 20.957676,28.152618 L 20.957676,10.168243 L 23.863926,10.168243 L 23.863926,33.074493 L 20.754551,33.074493 L 8.7233009,15.074493 L 8.7233009,33.074493 L 5.8170509,33.074493 z M 66.946201,25.043243 L 69.977451,25.808868 C 69.342013,28.298456 68.198785,30.196892 66.547764,31.504181 C 64.896705,32.811473 62.878478,33.465118 60.493076,33.465118 C 58.024316,33.465118 56.016506,32.962514 54.469639,31.957306 C 52.922759,30.9521 51.745677,29.496372 50.938389,27.590118 C 50.131095,25.683876 49.72745,23.637003 49.727451,21.449493 C 49.72745,19.064091 50.183178,16.983364 51.094639,15.207306 C 52.006093,13.431284 53.302967,12.082327 54.985264,11.160431 C 56.667547,10.238579 58.519108,9.7776416 60.539951,9.7776183 C 62.831603,9.7776416 64.758685,10.360974 66.321201,11.527618 C 67.883682,12.694305 68.972222,14.334929 69.586826,16.449493 L 66.602451,17.152618 C 66.071183,15.485969 65.300351,14.272429 64.289951,13.511993 C 63.27952,12.751597 62.008687,12.371389 60.477451,12.371368 C 58.717024,12.371389 57.245671,12.793264 56.063389,13.636993 C 54.88109,14.480762 54.050362,15.613573 53.571201,17.035431 C 53.09203,18.45732 52.852447,19.923465 52.852451,21.433868 C 52.852447,23.381795 53.1363,25.082314 53.704014,26.535431 C 54.271716,27.988561 55.154528,29.074497 56.352451,29.793243 C 57.550359,30.511996 58.847232,30.87137 60.243076,30.871368 C 61.940979,30.87137 63.378478,30.381788 64.555576,29.402618 C 65.732642,28.423456 66.529516,26.970333 66.946201,25.043243 L 66.946201,25.043243 z M 106.79338,39.808868 C 105.2413,37.85053 103.9288,35.558866 102.85588,32.933868 C 101.78297,30.308871 101.24651,27.590124 101.24651,24.777618 C 101.24651,22.298462 101.64755,19.923465 102.44963,17.652618 C 103.38713,15.01722 104.83505,12.392222 106.79338,9.7776183 L 108.80901,9.7776183 C 107.54858,11.944306 106.71525,13.49118 106.30901,14.418243 C 105.67359,15.855761 105.17359,17.355759 104.80901,18.918243 C 104.36109,20.866172 104.13713,22.824504 104.13713,24.793243 C 104.13713,29.803663 105.69442,34.808867 108.80901,39.808868 L 106.79338,39.808868 z M 125.76741,25.043243 L 128.79866,25.808868 C 128.16322,28.298456 127.01999,30.196892 125.36897,31.504181 C 123.71791,32.811473 121.69968,33.465118 119.31428,33.465118 C 116.84552,33.465118 114.83771,32.962514 113.29084,31.957306 C 111.74396,30.9521 110.56688,29.496372 109.75959,27.590118 C 108.9523,25.683876 108.54865,23.637003 108.54866,21.449493 C 108.54865,19.064091 109.00438,16.983364 109.91584,15.207306 C 110.8273,13.431284 112.12417,12.082327 113.80647,11.160431 C 115.48875,10.238579 117.34031,9.7776416 119.36116,9.7776183 C 121.65281,9.7776416 123.57989,10.360974 125.14241,11.527618 C 126.70489,12.694305 127.79343,14.334929 128.40803,16.449493 L 125.42366,17.152618 C 124.89239,15.485969 124.12156,14.272429 123.11116,13.511993 C 122.10072,12.751597 120.82989,12.371389 119.29866,12.371368 C 117.53823,12.371389 116.06688,12.793264 114.88459,13.636993 C 113.7023,14.480762 112.87157,15.613573 112.39241,17.035431 C 111.91323,18.45732 111.67365,19.923465 111.67366,21.433868 C 111.67365,23.381795 111.95751,25.082314 112.52522,26.535431 C 113.09292,27.988561 113.97573,29.074497 115.17366,29.793243 C 116.37156,30.511996 117.66844,30.87137 119.06428,30.871368 C 120.76218,30.87137 122.19968,30.381788 123.37678,29.402618 C 124.55385,28.423456 125.35072,26.970333 125.76741,25.043243 L 125.76741,25.043243 z M 131.9665,33.074493 L 131.9665,10.168243 L 134.99775,10.168243 L 134.99775,19.574493 L 146.904,19.574493 L 146.904,10.168243 L 149.93525,10.168243 L 149.93525,33.074493 L 146.904,33.074493 L 146.904,22.277618 L 134.99775,22.277618 L 134.99775,33.074493 L 131.9665,33.074493 z M 164.61103,37.130348 L 164.61103,39.157691 L 153.25556,39.157691 C 153.23993,38.649879 153.32196,38.161599 153.50165,37.692848 C 153.79071,36.919412 154.2536,36.157694 154.89032,35.407691 C 155.52704,34.657696 156.44696,33.790509 157.65009,32.806129 C 159.51727,31.274887 160.77899,30.061997 161.43525,29.167457 C 162.09149,28.272937 162.41961,27.427234 162.41962,26.630348 C 162.41961,25.794424 162.12078,25.089346 161.52314,24.515113 C 160.92547,23.94091 160.14618,23.653801 159.18525,23.653785 C 158.16961,23.653801 157.35712,23.958488 156.74775,24.567848 C 156.13837,25.177237 155.82977,26.020986 155.82196,27.099098 L 153.654,26.876441 C 153.80243,25.259268 154.36102,24.026847 155.32978,23.179176 C 156.29852,22.331536 157.5993,21.907709 159.23212,21.907691 C 160.88055,21.907709 162.18524,22.36474 163.14618,23.278785 C 164.10711,24.192863 164.58758,25.325674 164.58759,26.677223 C 164.58758,27.364735 164.44695,28.040515 164.16571,28.704566 C 163.88445,29.368639 163.41766,30.067857 162.76532,30.802223 C 162.11297,31.536605 161.02899,32.544417 159.51337,33.82566 C 158.24774,34.888164 157.43524,35.608867 157.07587,35.98777 C 156.71649,36.366679 156.41962,36.747538 156.18525,37.130348 L 164.61103,37.130348 z M 166.46195,39.808868 L 164.44632,39.808868 C 167.5609,34.808867 169.11819,29.803663 169.1182,24.793243 C 169.11819,22.83492 168.89423,20.892214 168.44632,18.965118 C 168.09215,17.402634 167.59736,15.902635 166.96195,14.465118 C 166.55569,13.527638 165.71715,11.965139 164.44632,9.7776183 L 166.46195,9.7776183 C 168.42028,12.392222 169.86819,15.01722 170.8057,17.652618 C 171.60777,19.923465 172.00881,22.298462 172.00882,24.777618 C 172.00881,27.590124 171.46975,30.308871 170.39164,32.933868 C 169.3135,35.558866 168.00361,37.85053 166.46195,39.808868 L 166.46195,39.808868 z M 185.61631,37.130348 L 185.61631,39.157691 L 174.26084,39.157691 C 174.24521,38.649879 174.32724,38.161599 174.50693,37.692848 C 174.79599,36.919412 175.25888,36.157694 175.8956,35.407691 C 176.53232,34.657696 177.45224,33.790509 178.65537,32.806129 C 180.52255,31.274887 181.78427,30.061997 182.44053,29.167457 C 183.09677,28.272937 183.42489,27.427234 183.4249,26.630348 C 183.42489,25.794424 183.12606,25.089346 182.52842,24.515113 C 181.93075,23.94091 181.15145,23.653801 180.19053,23.653785 C 179.17489,23.653801 178.3624,23.958488 177.75303,24.567848 C 177.14365,25.177237 176.83505,26.020986 176.82724,27.099098 L 174.65928,26.876441 C 174.80771,25.259268 175.3663,24.026847 176.33506,23.179176 C 177.3038,22.331536 178.60458,21.907709 180.2374,21.907691 C 181.88583,21.907709 183.19052,22.36474 184.15146,23.278785 C 185.11239,24.192863 185.59286,25.325674 185.59287,26.677223 C 185.59286,27.364735 185.45223,28.040515 185.17099,28.704566 C 184.88973,29.368639 184.42294,30.067857 183.7706,30.802223 C 183.11825,31.536605 182.03427,32.544417 180.51865,33.82566 C 179.25302,34.888164 178.44052,35.608867 178.08115,35.98777 C 177.72177,36.366679 177.4249,36.747538 177.19053,37.130348 L 185.61631,37.130348 z M 210.74558,21.918243 C 210.74558,18.116175 211.76641,15.139615 213.80808,12.988556 C 215.84974,10.837536 218.48515,9.7620166 221.71433,9.7619933 C 223.8289,9.7620166 225.73515,10.267224 227.43308,11.277618 C 229.13098,12.288056 230.42525,13.696908 231.31589,15.504181 C 232.20649,17.311488 232.65181,19.360965 232.65183,21.652618 C 232.65181,23.975544 232.18306,26.053667 231.24558,27.886993 C 230.30806,29.72033 228.97993,31.108349 227.2612,32.051056 C 225.54244,32.993764 223.68827,33.465118 221.6987,33.465118 C 219.54244,33.465118 217.61536,32.944285 215.91745,31.902618 C 214.21953,30.860954 212.93308,29.43908 212.05808,27.636993 C 211.18308,25.834917 210.74558,23.928669 210.74558,21.918243 L 210.74558,21.918243 z M 213.87058,21.965118 C 213.87057,24.725543 214.61276,26.90002 216.09714,28.488556 C 217.58151,30.0771 219.44349,30.87137 221.68308,30.871368 C 223.96431,30.87137 225.84192,30.069288 227.31589,28.465118 C 228.78983,26.860958 229.52681,24.584918 229.52683,21.636993 C 229.52681,19.772423 229.2117,18.144821 228.58152,16.754181 C 227.95129,15.363573 227.02942,14.28545 225.81589,13.519806 C 224.60233,12.754201 223.24036,12.371389 221.72995,12.371368 C 219.58411,12.371389 217.73776,13.108367 216.19089,14.582306 C 214.64401,16.056281 213.87057,18.517216 213.87058,21.965118 L 213.87058,21.965118 z M 234.60848,33.074493 L 234.60848,10.168243 L 237.63973,10.168243 L 237.63973,19.574493 L 249.54598,19.574493 L 249.54598,10.168243 L 252.57723,10.168243 L 252.57723,33.074493 L 249.54598,33.074493 L 249.54598,22.277618 L 237.63973,22.277618 L 237.63973,33.074493 L 234.60848,33.074493 z"
     id="text2392" />
  <path
     style="fill:#000000;fill-rule:evenodd;stroke:#000000;stroke-width:2;stroke-linecap:butt;stroke-linejoin:miter;stroke-miterlimit:4;stroke-dasharray:none;stroke-opacity:1"
     d="M 29,14 L 46.2398,14"
     id="path2440" />
  <path
     style="fill:#000000;fill-rule:evenodd;stroke:#000000;stroke-width:2;stroke-linecap:butt;stroke-linejoin:miter;stroke-miterlimit:4;stroke-dasharray:none;stroke-opacity:1"
     d="M 29,22 L 46.2398,22"
     id="path3216" />
  <path
     style="fill:#000000;fill-rule:evenodd;stroke:#000000;stroke-width:2;stroke-linecap:butt;stroke-linejoin:miter;stroke-miterlimit:4;stroke-dasharray:none;stroke-opacity:1"
     d="M 29,29 L 46.2398,29"
     id="path3218" />
  <path
     style="fill:#000000;fill-rule:evenodd;stroke:#000000;stroke-width:2;stroke-linecap:butt;stroke-linejoin:miter;stroke-miterlimit:4;stroke-dasharray:none;stroke-opacity:1"
     d="M 73.999886,22 L 97.000116,22"
     id="path3220" />
  <path
     style="fill:#000000;fill-rule:evenodd;stroke:#000000;stroke-width:1.99999964000000000;stroke-linecap:butt;stroke-linejoin:miter;stroke-miterlimit:4;stroke-dasharray:none;stroke-opacity:1"
     d="M 188,22 L 208.023,22"
     id="path3222" />
</svg>
