<?xml version="1.0" encoding="UTF-8" standalone="no"?>
<!-- Created with Inkscape (http://www.inkscape.org/) -->

<svg
   version="1.1"
   id="svg2"
   width="590.89331"
   height="184.90668"
   viewBox="0 0 590.89331 184.90668"
   sodipodi:docname="logo-ce-horizontal-lt-quadri.eps"
   xmlns:inkscape="http://www.inkscape.org/namespaces/inkscape"
   xmlns:sodipodi="http://sodipodi.sourceforge.net/DTD/sodipodi-0.dtd"
   xmlns="http://www.w3.org/2000/svg"
   xmlns:svg="http://www.w3.org/2000/svg">
  <defs
     id="defs6" />
  <sodipodi:namedview
     id="namedview4"
     pagecolor="#ffffff"
     bordercolor="#000000"
     borderopacity="0.25"
     inkscape:showpageshadow="2"
     inkscape:pageopacity="0.0"
     inkscape:pagecheckerboard="0"
     inkscape:deskcolor="#d1d1d1" />
  <g
     id="g8"
     inkscape:groupmode="layer"
     inkscape:label="ink_ext_XXXXXX"
     transform="matrix(1.3333333,0,0,-1.3333333,0,184.90667)">
    <g
       id="g10"
       transform="scale(0.1)">
      <path
         d="m 2824.7,723.836 c 0,4.93 2.29,7.598 7.6,7.598 h 139.82 c 4.55,0 7.21,-2.668 7.21,-7.219 v -23.563 c 0,-4.562 -1.89,-6.836 -7.6,-6.836 h -103.72 v -65.351 h 91.95 c 4.94,0 7.59,-2.277 7.59,-6.836 v -23.555 c 0,-4.562 -1.89,-6.847 -7.59,-6.847 h -91.95 v -74.844 h 106.39 c 4.56,0 6.84,-2.285 6.84,-7.215 v -23.184 c 0,-4.933 -1.91,-6.836 -7.22,-6.836 H 2832.3 c -5.31,0 -7.6,2.274 -7.6,6.836 v 237.852"
         style="fill:#5a5758;fill-opacity:1;fill-rule:nonzero;stroke:none"
         id="path12" />
      <path
         d="m 3172.76,479.148 h -26.98 c -5.7,0 -7.21,2.657 -7.21,7.215 v 11.778 l -0.76,0.382 c -14.83,-10.253 -40.67,-22.793 -63.83,-22.793 -51.3,0 -56.24,30.391 -56.24,70.293 v 111.7 c 0,4.558 1.9,7.597 7.22,7.597 h 27.73 c 4.94,0 6.85,-2.656 6.85,-7.597 V 550.957 c 0,-22.797 4.56,-37.238 27.73,-37.238 16.34,0 41.42,12.156 51.3,17.097 v 126.907 c 0,4.558 1.51,7.597 7.21,7.597 h 26.98 c 5.32,0 7.22,-2.656 7.22,-7.597 v -171.36 c 0,-4.941 -1.9,-7.215 -7.22,-7.215"
         style="fill:#5a5758;fill-opacity:1;fill-rule:nonzero;stroke:none"
         id="path14" />
      <path
         d="m 3269.29,486.363 c 0,-4.558 -1.89,-7.215 -7.22,-7.215 h -27.35 c -5.32,0 -7.22,2.274 -7.22,7.215 v 171.36 c 0,4.941 1.9,7.597 7.22,7.597 h 26.97 c 5.71,0 7.6,-3.039 7.6,-7.597 v -16.719 l 0.76,-0.762 c 11.4,10.645 38.38,23.555 56.23,26.981 4.95,1.132 8.36,0 9.13,-6.465 l 2.65,-25.457 c 0.38,-5.313 0.76,-7.598 -7.23,-9.113 -21.26,-4.18 -48.24,-11.778 -61.54,-17.481 V 486.363"
         style="fill:#5a5758;fill-opacity:1;fill-rule:nonzero;stroke:none"
         id="path16" />
      <path
         d="m 3436.87,632.645 c -32.3,0 -39.51,-20.52 -39.51,-60.032 0,-40.273 7.21,-60.027 39.13,-60.027 34.58,0 41.42,19.375 41.42,60.027 0,40.274 -6.47,60.032 -41.04,60.032 z m -0.38,-156.536 c -76.38,0 -81.31,55.852 -81.31,99.161 0,35.714 7.98,93.847 81.31,93.847 73.7,0 83.97,-49.012 83.97,-93.847 0,-43.309 -5.33,-99.161 -83.97,-99.161"
         style="fill:#5a5758;fill-opacity:1;fill-rule:nonzero;stroke:none"
         id="path18" />
      <path
         d="m 3649.27,630.367 c -15.56,0 -39.51,-11.023 -50.9,-17.097 v -94.993 c 17.09,-4.929 30.77,-6.453 43.7,-6.453 27.34,0 36.85,14.051 36.85,61.934 0,48.25 -9.51,56.609 -29.65,56.609 z m -3.02,-154.637 c -12.54,0 -30.02,2.274 -47.5,8.36 l -0.38,-0.383 v -66.875 c 0,-4.18 -1.15,-7.598 -7.22,-7.598 h -26.98 c -6.07,0 -7.22,2.668 -7.22,7.598 v 240.891 c 0,4.941 1.91,7.597 7.22,7.597 h 26.98 c 5.31,0 6.83,-3.039 6.83,-7.597 v -11.399 l 1.16,-0.761 c 13.67,9.503 37.98,22.792 60.02,22.792 49.78,0 62.69,-37.605 62.69,-94.98 0,-61.934 -15.59,-97.645 -75.6,-97.645"
         style="fill:#5a5758;fill-opacity:1;fill-rule:nonzero;stroke:none"
         id="path20" />
      <path
         d="m 3833.59,632.645 c -32.31,0 -39.53,-20.52 -39.53,-60.032 0,-40.273 7.22,-60.027 39.14,-60.027 34.57,0 41.42,19.375 41.42,60.027 0,40.274 -6.46,60.032 -41.03,60.032 z m -0.39,-156.536 c -76.37,0 -81.31,55.852 -81.31,99.161 0,35.714 7.99,93.847 81.31,93.847 73.71,0 83.96,-49.012 83.96,-93.847 0,-43.309 -5.31,-99.161 -83.96,-99.161"
         style="fill:#5a5758;fill-opacity:1;fill-rule:nonzero;stroke:none"
         id="path22" />
      <path
         d="m 4016.75,476.109 c -19,0 -44.45,2.657 -58.9,8.36 -7.6,3.039 -9.12,6.457 -7.97,12.539 l 2.65,12.531 c 1.14,6.086 3.79,6.465 9.89,5.703 16.72,-2.656 41.03,-4.562 53.94,-4.562 24.32,0 34.2,6.465 34.2,21.66 0,17.48 -6.46,21.281 -30.39,24.699 -37.25,5.313 -69.92,13.301 -69.92,54.707 0,37.617 28.89,57.371 71.42,57.371 15.59,0 41.8,-2.273 57.76,-8.359 6.46,-2.656 9.12,-5.692 7.99,-11.395 l -3.05,-13.683 c -1.13,-5.313 -3.42,-6.075 -10.25,-5.313 -16.35,1.895 -37.62,4.18 -51.68,4.18 -24.32,0 -30,-6.844 -30,-21.277 0,-14.813 9.1,-16.719 32.28,-20.52 36.1,-5.32 68.77,-12.539 68.77,-57.75 0,-44.457 -37.62,-58.891 -76.74,-58.891"
         style="fill:#5a5758;fill-opacity:1;fill-rule:nonzero;stroke:none"
         id="path24" />
      <path
         d="m 2868.18,209.852 28.88,37.238 63.82,78.64 c 3.43,3.801 6.46,5.7 12.54,5.7 H 3008 c 5.32,0 6.84,-3.801 3.42,-7.59 l -82.45,-100.32 85.11,-136.3911 c 3.04,-4.9375 0.38,-7.9805 -3.8,-7.9805 h -34.95 c -6.47,0 -9.12,2.6524 -12.17,7.211 l -62.31,103.3516 -33.43,-41.41 V 86.3594 c 0,-4.168 -1.53,-7.211 -6.84,-7.211 h -28.5 c -5.31,0 -7.59,2.2735 -7.59,7.211 V 323.84 c 0,4.93 2.28,7.59 7.59,7.59 h 28.5 c 5.31,0 6.84,-3.039 6.84,-7.59 V 209.852 h 0.76"
         style="fill:#5a5758;fill-opacity:1;fill-rule:nonzero;stroke:none"
         id="path26" />
      <path
         d="m 3118.21,232.641 c -32.3,0 -39.51,-20.512 -39.51,-60.032 0,-40.269 7.21,-60.019 39.13,-60.019 34.58,0 41.41,19.371 41.41,60.019 0,40.282 -6.45,60.032 -41.03,60.032 z m -0.38,-156.5316 c -76.37,0 -81.31,55.8516 -81.31,99.1606 0,35.71 7.99,93.851 81.31,93.851 73.71,0 83.96,-49.019 83.96,-93.851 0,-43.309 -5.31,-99.1606 -83.96,-99.1606"
         style="fill:#5a5758;fill-opacity:1;fill-rule:nonzero;stroke:none"
         id="path28" />
      <path
         d="m 3504.27,79.1484 h -27.36 c -5.31,0 -7.23,2.2735 -7.23,7.211 V 194.27 c 0,28.121 -6.83,36.101 -25.83,36.101 -14.05,0 -36.85,-11.031 -48.63,-17.101 0,-3.801 0.38,-10.641 0.38,-19.379 V 86.3594 c 0,-4.5586 -1.52,-7.211 -7.23,-7.211 h -27.73 c -4.94,0 -6.46,2.2735 -6.46,7.211 V 196.172 c 0,23.168 -6.08,34.199 -25.07,34.199 -13.29,0 -34.58,-9.5 -49.02,-17.101 V 86.3594 c 0,-4.5586 -1.89,-7.211 -7.21,-7.211 h -27.36 c -4.94,0 -6.83,2.2735 -6.83,7.211 V 257.719 c 0,4.941 1.89,7.601 6.83,7.601 h 26.98 c 5.7,0 7.59,-3.039 7.59,-7.601 v -11.008 l 0.38,-0.379 c 14.82,10.25 35.72,21.648 56.61,22.406 22.05,0 40.28,-4.558 52.06,-26.59 19,14.051 42.55,26.59 66.87,26.59 50.16,0 55.1,-32.679 55.1,-70.668 V 86.3594 c 0,-4.5586 -1.53,-7.211 -6.84,-7.211"
         style="fill:#5a5758;fill-opacity:1;fill-rule:nonzero;stroke:none"
         id="path30" />
      <path
         d="m 3598.9,86.3594 c 0,-4.168 -1.5,-7.211 -6.83,-7.211 h -26.98 c -5.31,0 -7.59,2.2735 -7.59,7.211 V 258.102 c 0,5.328 2.28,7.218 7.59,7.218 h 26.98 c 5.33,0 6.83,-3.039 6.83,-7.218 z m -20.14,206.3126 c -19.74,0 -22.4,11.027 -22.4,22.039 0,12.16 4.18,21.66 22.4,21.66 18.64,0 22.43,-8.742 22.43,-21.66 0,-11.77 -3.42,-22.039 -22.43,-22.039"
         style="fill:#5a5758;fill-opacity:1;fill-rule:nonzero;stroke:none"
         id="path32" />
      <path
         d="m 3708.35,76.1094 c -19,0 -44.45,2.6601 -58.9,8.3594 -7.6,3.0429 -9.12,6.4609 -7.97,12.5429 l 2.66,12.5273 c 1.13,6.082 3.78,6.461 9.88,5.699 16.72,-2.648 41.03,-4.558 53.94,-4.558 24.32,0 34.2,6.468 34.2,21.66 0,17.48 -6.46,21.281 -30.39,24.699 -37.24,5.313 -69.92,13.301 -69.92,54.711 0,37.609 28.89,57.371 71.43,57.371 15.58,0 41.79,-2.281 57.75,-8.359 6.47,-2.66 9.12,-5.692 7.99,-11.403 l -3.05,-13.679 c -1.13,-5.309 -3.42,-6.071 -10.25,-5.309 -16.35,1.891 -37.62,4.18 -51.68,4.18 -24.32,0 -30,-6.852 -30,-21.281 0,-14.821 9.1,-16.719 32.28,-20.52 36.1,-5.32 68.77,-12.539 68.77,-57.75 0,-44.4609 -37.61,-58.8906 -76.74,-58.8906"
         style="fill:#5a5758;fill-opacity:1;fill-rule:nonzero;stroke:none"
         id="path34" />
      <path
         d="m 3867.18,86.3594 c 0,-4.168 -1.5,-7.211 -6.83,-7.211 h -26.98 c -5.31,0 -7.59,2.2735 -7.59,7.211 V 258.102 c 0,5.328 2.28,7.218 7.59,7.218 h 26.98 c 5.33,0 6.83,-3.039 6.83,-7.218 z m -20.13,206.3126 c -19.75,0 -22.41,11.027 -22.41,22.039 0,12.16 4.18,21.66 22.41,21.66 18.63,0 22.42,-8.742 22.42,-21.66 0,-11.77 -3.42,-22.039 -22.42,-22.039"
         style="fill:#5a5758;fill-opacity:1;fill-rule:nonzero;stroke:none"
         id="path36" />
      <path
         d="m 3945.85,292.672 c -19.76,0 -22.42,11.027 -22.42,22.039 0,12.16 4.57,21.66 22.42,21.66 18.62,0 22.43,-8.742 22.43,-21.66 0,-11.77 -3.44,-22.039 -22.43,-22.039 z m 20.9,-217.7032 c 0,-49.3985 -20.9,-77.12896 -84.72,-74.847706 -2.66,0 -7.99,1.519536 -8.36,7.597656 l -1.53,17.85155 c -0.76,6.0899 0.77,7.2188 6.08,8.3594 35.72,7.2187 46.74,10.6523 46.74,40.2812 V 258.102 c 0,5.328 2.28,7.218 7.59,7.218 h 26.61 c 5.68,0 7.59,-3.039 7.59,-7.218 V 74.9688"
         style="fill:#5a5758;fill-opacity:1;fill-rule:nonzero;stroke:none"
         id="path38" />
      <path
         d="m 4129.37,163.871 h -46.35 c -19,0 -31.15,-6.832 -31.15,-31.91 0,-16.723 5.68,-22.039 23.55,-22.039 16.33,0 39.52,9.5 53.95,17.859 z m 2.29,-63.062 c -19.01,-14.4496 -44.46,-24.6996 -69.93,-24.6996 -40.27,0 -52.05,22.0312 -52.05,53.9496 -0.37,44.453 23.56,63.453 71.43,63.453 h 48.63 v 9.879 c 0,22.8 -8.34,30.781 -39.51,30.781 -12.54,0 -36.47,-1.91 -51.66,-3.422 -7.6,-1.141 -9.51,-0.762 -10.65,4.551 l -3.41,14.058 c -0.76,4.942 0.37,7.981 8.73,11.403 16.34,5.699 46.36,8.359 64.22,8.359 65.72,0 73.71,-26.973 73.71,-69.531 v -73.328 c 0,-15.582 1.89,-15.961 13.67,-17.473 5.7,-0.379 7.23,-1.527 7.23,-5.711 V 87.1289 c 0,-4.1797 -2.66,-6.8398 -9.13,-7.9805 -6.07,-1.1367 -12.16,-1.9101 -17.85,-1.9101 -17.87,0 -28.88,5.332 -32.67,23.1917 l -0.76,0.379"
         style="fill:#5a5758;fill-opacity:1;fill-rule:nonzero;stroke:none"
         id="path40" />
      <path
         d="M 4431.66,79.1992 V 842.844 H 4366.5 V 79.1992 h 65.16 v 0"
         style="fill:#254aa5;fill-opacity:1;fill-rule:nonzero;stroke:none"
         id="path42" />
      <path
         d="m 0,903.488 c 0,0 785.09,102.362 807.266,106.012 33.968,5.59 64.156,12.12 92.3,19.97 63.504,17.53 121.954,44.28 173.704,79.52 49.61,33.53 95.76,82.31 141.51,135.82 29.09,34.05 59.64,78.44 88.14,121.29 v 20.67 c -33.81,-50.43 -67.12,-93.88 -101.37,-132.25 -45.39,-50.91 -93.01,-92.56 -141.55,-123.81 -50.09,-32.51 -106.477,-56.78 -167.59,-72.14 -27.39,-6.95 -56.722,-12.59 -89.683,-17.21 -21.735,-3.08 -44.133,-5.45 -65.789,-7.75 C 728.285,1032.69 0,954.852 0,954.852 v -51.364"
         style="fill:#bdbcbc;fill-opacity:1;fill-rule:nonzero;stroke:none"
         id="path44" />
      <path
         d="m 1052.84,1036.14 c -49.14,-28.49 -105.902,-49.32 -168.684,-61.949 -26.82,-5.453 -56.047,-9.886 -89.383,-13.55 -19.57,-2.137 -39.293,-3.86 -59.043,-5.575 -10.656,-0.933 -21.312,-1.859 -31.929,-2.847 C 463.207,930.48 223.852,907.359 0,885.461 v -51.316 c 225.613,27.421 466.637,56.453 707.145,83.878 10.691,1.266 21.394,2.457 32.101,3.633 19.703,2.196 39.43,4.383 59.223,7.008 34.222,4.59 64.168,9.863 91.531,16.117 65.234,14.699 124.17,37.903 175.08,68.969 50.61,30.6 95.34,73.46 143.42,125.87 29.94,32.61 63.25,78.65 94.42,121.9 v 18.82 c -36.71,-50.19 -71.56,-92.36 -106.04,-128.32 -46.95,-49 -95.41,-87.98 -144.04,-115.88"
         style="fill:#bdbcbc;fill-opacity:1;fill-rule:nonzero;stroke:none"
         id="path46" />
      <path
         d="m 1190.24,1048.71 c -47.91,-44.27 -97.92,-79.093 -148.67,-103.511 -49.621,-24.117 -105.148,-41.043 -169.785,-51.754 -26.668,-4.449 -55.668,-8.09 -88.605,-11.109 L 0,817.531 V 766.32 l 696.176,74.438 90.078,9.547 c 33.922,3.945 63.519,8.379 90.461,13.547 66.937,12.722 124.355,31.75 175.515,58.136 52.3,26.653 104.56,70.992 153.14,117.942 32.61,31.48 64,72.14 97.55,114.79 v 17.06 c -38.75,-48.53 -75.75,-88.98 -112.68,-123.07"
         style="fill:#bdbcbc;fill-opacity:1;fill-rule:nonzero;stroke:none"
         id="path48" />
      <path
         d="m 1000.85,782.793 c -45.584,-25.707 -79.682,-40.516 -144.795,-47.359 -39.352,-4.27 -79.801,-6.305 -118.926,-8.266 -18.938,-0.953 -37.895,-1.902 -56.813,-3.102 -118.32,-6.816 -234.511,-14.371 -353.05,-22.16 L 0,679.699 V 628.5 l 330.531,30.559 c 106.809,9.656 230.922,20.789 352.09,30.75 l 88.078,6.867 c 34.383,2.668 62.582,5.496 88.703,8.926 67,8.711 124.235,22.351 174.948,41.66 54.6,20.586 106.09,52.531 157.66,90.086 46.5,33.855 110.84,100.629 110.91,101.504 v 18.089 c -42.07,-41.351 -66.29,-64.574 -112.33,-95.148 -55.03,-36.531 -148.86,-55.961 -189.74,-79"
         style="fill:#bdbcbc;fill-opacity:1;fill-rule:nonzero;stroke:none"
         id="path50" />
      <path
         d="m 1017.5,685.477 c -49.402,-14.59 -105.02,-24.473 -170.012,-30.2 -26.328,-2.297 -54.722,-4.058 -86.828,-5.363 l -87.601,-3.871 C 455.387,635.852 238.777,624.457 0,611.727 v -51.079 c 228.082,17.793 451.605,35.102 675.035,51.122 l 87.344,6.011 c 33.715,2.227 61.664,4.653 87.965,7.637 66.629,7.508 123.617,19.098 174.196,35.41 56.06,17.891 110.69,43.832 162.39,77.094 38.19,24.496 76.37,53.695 115.99,88.547 v 0.89 c -43.66,-37.55 -85.27,-45.882 -126.74,-71.117 -50.77,-30.996 -104.16,-54.804 -158.68,-70.765"
         style="fill:#bdbcbc;fill-opacity:1;fill-rule:nonzero;stroke:none"
         id="path52" />
      <path
         d="M 1009.43,600.637 C 959.664,588.914 905.738,581.375 839.691,576.922 814.215,575.199 786.84,573.91 753.492,572.863 l -86.758,-3.109 C 448.129,561.422 226.477,551.848 0,541.945 v -51.05 c 225.016,15.468 445.77,30.523 668.438,44.566 L 755,540.688 c 33.941,1.945 61.598,3.937 87.012,6.273 67.269,6.25 122.308,15.359 173.198,28.641 57.1,14.824 112.6,36.554 164.98,64.582 40.49,21.629 80.88,47.636 122.73,78.945 v 21.836 c -45.23,-32.93 -88.62,-59.758 -132.06,-81.641 -51.42,-25.941 -105.72,-45.679 -161.43,-58.687"
         style="fill:#bdbcbc;fill-opacity:1;fill-rule:nonzero;stroke:none"
         id="path54" />
      <path
         d="m 1002.02,517.453 c -49.934,-9.215 -103.707,-15.094 -169.262,-18.512 -24.66,-1.269 -51.043,-2.187 -85.567,-2.984 L 0,475.563 v -50.997 l 662.59,34.844 85.832,4.395 c 33.496,1.582 60.898,3.222 86.234,5.195 66.453,5.117 121.121,12.48 172.024,23.207 57.79,12.086 113.87,29.734 166.69,52.418 42.54,18.176 85.17,40.352 129.55,67.32 v 20.493 c -47.43,-27.793 -92.51,-50.106 -137.28,-67.95 -52.1,-20.867 -107.14,-36.679 -163.62,-47.035"
         style="fill:#bdbcbc;fill-opacity:1;fill-rule:nonzero;stroke:none"
         id="path56" />
      <path
         d="m 996.152,433.922 c -91.683,-12.324 -186.07,-13.75 -277.347,-15.117 -20.922,-0.293 -41.852,-0.625 -62.75,-1.055 L 0,405.836 v -50.938 l 657.188,28.543 c 20.839,0.95 41.707,1.789 62.593,2.629 91.922,3.711 186.981,7.52 279.899,22.403 58.83,9.336 115.44,23.164 168.25,41.054 43.75,14.766 89.08,33.868 134.99,56.446 v 19.547 c -48.25,-22.653 -95.7,-41.461 -141.25,-55.563 -52.21,-16.25 -107.89,-28.375 -165.518,-36.035"
         style="fill:#bdbcbc;fill-opacity:1;fill-rule:nonzero;stroke:none"
         id="path58" />
      <path
         d="m 990.941,349.859 c -85.906,-7.148 -173.824,-7.168 -258.855,-7.168 -26.449,0 -52.902,0 -79.352,-0.211 C 435.395,341.52 219.773,339.719 0,337.809 v -50.957 c 209.324,7.168 431.402,14.648 653.473,21.289 26.355,0.879 52.726,1.558 79.129,2.25 85.488,2.168 173.886,4.429 260.675,13.879 60.643,6.55 115.803,16.16 168.653,29.339 46.1,11.411 93.44,26.641 140.99,44.942 v 18.711 c -49.08,-17.754 -97.99,-32.242 -145.62,-42.793 -52.34,-11.637 -106.77,-19.688 -166.359,-24.61"
         style="fill:#bdbcbc;fill-opacity:1;fill-rule:nonzero;stroke:none"
         id="path60" />
      <path
         d="m 987.621,266.988 c -35.789,-1.429 -74.547,-2.109 -118.504,-2.109 -16.613,0 -33.222,0.101 -49.793,0.25 l -169.094,2.07 c -115.382,0.86 -230.324,1.063 -338.156,1.16 L 0,268.059 v -50.93 l 312.816,8.262 c 107.45,2.648 222.727,5.41 337.735,7.5 l 168.953,2.238 c 46.348,0.75 107.508,2.109 169.461,6.223 60.705,3.957 115.955,10.046 168.905,18.57 47.65,7.687 96.34,18.027 145.05,30.527 v 18.082 c -50.04,-11.64 -99.78,-20.922 -148.04,-27.422 C 1102.23,274 1047.52,269.391 987.621,266.988"
         style="fill:#bdbcbc;fill-opacity:1;fill-rule:nonzero;stroke:none"
         id="path62" />
      <path
         d="m 817.359,186.91 -168.515,1.82 C 433.867,191.77 219.086,195.738 0,199.859 v -50.961 c 209.125,1.411 430.613,3.012 649,5.493 l 168.602,2.519 c 56.812,0.981 112.453,2.012 168.711,3.91 115.847,3.75 219.627,11.95 316.607,24.879 v 17.723 c -97.35,-10.551 -201.28,-16.121 -317.197,-16.883 -56.09,-0.508 -112.227,-0.098 -168.364,0.371"
         style="fill:#bdbcbc;fill-opacity:1;fill-rule:nonzero;stroke:none"
         id="path64" />
      <path
         d="M 1302.92,96.8281 0,130.109 V 79.1992 h 1302.92 v 17.6289"
         style="fill:#bdbcbc;fill-opacity:1;fill-rule:nonzero;stroke:none"
         id="path66" />
      <path
         d="m 1185.6,952.484 c -49.49,-40.058 -87.72,-68.527 -148.3,-92.785 -52.749,-21.121 -109.413,-29.773 -174.152,-38.668 -41.656,-5.879 -85.195,-14.578 -126.785,-17.367 -17.101,-1.156 -34.215,-2.301 -51.273,-3.648 L 0,749.703 v -51.121 l 687.855,67.211 89.18,8.43 c 33.082,3.148 62.445,6.82 89.778,11.257 66.656,10.786 124.101,27.258 175.577,50.348 53.42,23.738 107.47,62.617 157.7,105.203 34.18,28.918 67.05,65.309 102.83,105.059 v 18.32 c -43.28,-45.08 -79.15,-81.097 -117.32,-111.926"
         style="fill:#bdbcbc;fill-opacity:1;fill-rule:nonzero;stroke:none"
         id="path68" />
      <path
         d="m 1857.41,1386.77 c 0,0 234.49,-373.47 277.36,-441.95 42.87,-68.461 91.88,-122.625 265.37,-159.422 173.49,-36.789 249.02,-54.164 249.02,-54.164 v -13.289 c 0,0 -110.24,23.512 -252.09,55.192 -141.85,31.679 -199.84,42.34 -264.51,132.308 -53.81,74.891 -275.15,393.105 -275.15,393.105 v 88.22"
         style="fill:#bdbcbc;fill-opacity:1;fill-rule:nonzero;stroke:none"
         id="path70" />
      <path
         d="m 1857.41,960.266 c 0,0 213.45,-223.676 275.15,-287.891 65.48,-68.121 149.35,-93.316 265.6,-114.082 110.98,-19.809 250.94,-42.691 250.94,-42.691 v -12.598 c 0,0 -131.43,21.535 -250.94,41.988 -117.16,20.071 -199.18,31.266 -266.29,93.098 -60.1,55.371 -274.46,256.387 -274.46,256.387 v 65.789"
         style="fill:#bdbcbc;fill-opacity:1;fill-rule:nonzero;stroke:none"
         id="path72" />
      <path
         d="m 1857.41,859.484 c 0,0 203,-188.5 275.15,-252.894 66.42,-59.262 120.24,-77.692 266.31,-103.586 146.09,-25.899 250.23,-41.992 250.23,-41.992 v -13.301 c 0,0 -132.11,21.699 -250.94,40.605 -118.8,18.891 -194.52,26.356 -265.6,83.977 -82.03,66.531 -275.15,225.602 -275.15,225.602 v 61.589"
         style="fill:#bdbcbc;fill-opacity:1;fill-rule:nonzero;stroke:none"
         id="path74" />
      <path
         d="m 1857.41,752.047 c 0,0 231.89,-183.953 275.22,-216.152 43.33,-32.188 100.66,-69.747 267,-93.79 164.95,-23.828 249.53,-35.683 249.53,-35.683 v -14.004 c 0,0 -149.58,21.699 -249.53,34.297 -99.94,12.598 -176.59,17.953 -266.3,77.695 -87.33,58.141 -275.92,190.922 -275.92,190.922 v 56.715"
         style="fill:#bdbcbc;fill-opacity:1;fill-rule:nonzero;stroke:none"
         id="path76" />
      <path
         d="m 1857.41,648.766 c 0,0 232.58,-154.864 276.62,-179.356 44.04,-24.492 95.76,-64.394 265.6,-86.09 169.86,-21.699 249.53,-31.492 249.53,-31.492 v -13.297 c 0,0 -140.49,15.391 -250.23,27.289 -109.73,11.91 -184.51,28.004 -266.3,72.789 -81.79,44.786 -275.22,157.813 -275.22,157.813 v 52.344"
         style="fill:#bdbcbc;fill-opacity:1;fill-rule:nonzero;stroke:none"
         id="path78" />
      <path
         d="m 1857.41,545.484 c 0,0 205.58,-111.836 275.15,-146.757 77.6,-38.965 144.71,-57.618 266.31,-72.086 119.41,-14.219 250.23,-28.012 250.23,-28.012 v -12.598 c 0,0 -120.96,12.949 -250.23,25.199 -128.15,12.149 -173.79,17.731 -266.31,58.79 -82.73,36.714 -275.15,126.441 -275.15,126.441 v 49.023"
         style="fill:#bdbcbc;fill-opacity:1;fill-rule:nonzero;stroke:none"
         id="path80" />
      <path
         d="m 1857.41,440.797 c 0,0 162.46,-69.567 276.62,-114.856 112.3,-44.562 198.04,-48.312 266.3,-56 30.06,-3.382 248.83,-25.902 248.83,-25.902 v -12.578 c 0,0 -130.71,10.488 -249.53,20.98 -118.83,10.489 -170.07,14.938 -266.3,46.887 -97.37,32.332 -275.92,94.594 -275.92,94.594 v 46.875"
         style="fill:#bdbcbc;fill-opacity:1;fill-rule:nonzero;stroke:none"
         id="path82" />
      <path
         d="m 1857.41,334.082 c 0,0 164.02,-50.844 275.86,-80.23 111.83,-29.403 214.58,-41.313 266.3,-44.793 51.72,-3.52 249.59,-19.59 249.59,-19.59 v -11.91 c 0,0 -112.54,7.671 -250.29,17.5 -111.37,7.929 -200.83,16.32 -266.31,30.8 -72.56,16.012 -275.15,64.161 -275.15,64.161 v 44.062"
         style="fill:#bdbcbc;fill-opacity:1;fill-rule:nonzero;stroke:none"
         id="path84" />
      <path
         d="m 1857.41,229.082 c 0,0 134.14,-23.133 275.86,-46.621 106.24,-17.621 250.23,-28.711 265.6,-29.422 15.39,-0.68 250.23,-16.789 250.23,-16.789 v -12.578 c 0,0 -150.32,7.769 -250.23,13.277 -104.08,5.762 -207.54,12.071 -266.31,18.199 -131.62,13.731 -275.15,31.903 -275.15,31.903 v 42.031"
         style="fill:#bdbcbc;fill-opacity:1;fill-rule:nonzero;stroke:none"
         id="path86" />
      <path
         d="m 1857.41,120.41 c 0,0 211.56,-7.949 275.86,-9.359 64.3,-1.379 515.83,-19.5901 515.83,-19.5901 V 79.1992 H 1857.41 V 120.41"
         style="fill:#bdbcbc;fill-opacity:1;fill-rule:nonzero;stroke:none"
         id="path88" />
      <path
         d="m 2398.87,727.668 c -191.51,41.293 -234.84,111.285 -267,154.68 -32.16,43.402 -274.46,397.542 -274.46,397.542 v -79.92 c 9.55,-12.5 216.94,-283.997 275.15,-358.911 65.62,-84.422 168.46,-103.586 266.31,-124.586 97.84,-20.996 250.29,-50.27 250.29,-50.27 v 11.195 c 0,0 -200.84,39.61 -250.29,50.27"
         style="fill:#bdbcbc;fill-opacity:1;fill-rule:nonzero;stroke:none"
         id="path90" />
      <path
         d="m 2398.87,671.676 c -157.26,30.797 -220.87,80.492 -267,140.683 -46.13,60.192 -274.46,361.151 -274.46,361.151 v -75.67 c 9.55,-11.34 218.43,-259.098 274.46,-323.274 65.36,-74.859 156.57,-94.492 267,-114.785 110.44,-20.297 250.23,-46.886 250.23,-46.886 v 11.191 c 0,0 -159.55,29.832 -250.23,47.59"
         style="fill:#bdbcbc;fill-opacity:1;fill-rule:nonzero;stroke:none"
         id="path92" />
      <path
         d="m 2398.87,613.59 c -163.54,31.719 -197.09,57.851 -266.31,133.683 -43.51,47.661 -265.78,310.117 -275.15,321.187 v -69.929 c 0,0 207.7,-221.535 274.46,-286.957 87.62,-85.859 169.85,-92.386 267,-109.883 97.16,-17.496 250.23,-45.496 250.23,-45.496 v 11.899 c 0,0 -184.81,32.801 -250.23,45.496"
         style="fill:#bdbcbc;fill-opacity:1;fill-rule:nonzero;stroke:none"
         id="path94" />
      <path
         d="M 1683.06,79.1992 V 842.816 H 541.559 V 79.1992 H 1683.06 v 0"
         style="fill:#254aa5;fill-opacity:1;fill-rule:nonzero;stroke:none"
         id="path96" />
      <path
         d="m 1124.68,734.242 h 39.72 l -32.01,-24.937 12.44,-39.563 -31.89,24.371 -31.89,-24.371 12.57,39.563 -32.26,24.937 h 39.58 l 12,38.582 11.74,-38.582 v 0"
         style="fill:#fff200;fill-opacity:1;fill-rule:nonzero;stroke:none"
         id="path98" />
      <path
         d="m 1126.08,225 h 39.77 l -32.01,-24.051 12.44,-38.019 -31.89,23.429 -31.89,-23.429 12.57,38.019 -32.33,24.051 h 39.66 l 11.99,37.129 11.69,-37.129 v 0"
         style="fill:#fff200;fill-opacity:1;fill-rule:nonzero;stroke:none"
         id="path100" />
      <path
         d="m 1252.05,258.73 h 39.78 l -32.02,-23.992 12.45,-38.078 -31.89,23.488 -31.89,-23.488 12.56,38.078 -32.32,23.992 h 39.65 l 12,37.129 11.68,-37.129 v 0"
         style="fill:#fff200;fill-opacity:1;fill-rule:nonzero;stroke:none"
         id="path102" />
      <path
         d="m 1252.05,700.27 h 39.78 l -32.02,-23.993 12.45,-38.078 -31.89,23.457 -31.89,-23.457 12.56,38.078 -32.32,23.993 h 39.65 l 12,37.125 11.68,-37.125 v 0"
         style="fill:#fff200;fill-opacity:1;fill-rule:nonzero;stroke:none"
         id="path104" />
      <path
         d="m 1345.57,606.754 h 39.71 l -32.01,-23.961 12.44,-38.109 -31.89,23.457 -31.82,-23.457 12.56,38.109 -32.33,23.961 h 39.59 l 12,37.129 11.75,-37.129 v 0"
         style="fill:#fff200;fill-opacity:1;fill-rule:nonzero;stroke:none"
         id="path106" />
      <path
         d="m 1345.57,350.969 h 39.71 l -32.01,-24.059 12.44,-38.058 -31.89,23.488 -31.82,-23.488 12.56,38.058 -32.33,24.059 h 39.59 l 12,37.133 11.75,-37.133 v 0"
         style="fill:#fff200;fill-opacity:1;fill-rule:nonzero;stroke:none"
         id="path108" />
      <path
         d="m 1380.61,480.816 h 39.79 l -32.03,-24.003 12.44,-38.086 -31.89,23.496 -31.88,-23.496 12.56,38.086 -32.32,24.003 h 39.59 l 12.05,37.098 11.69,-37.098 v 0"
         style="fill:#fff200;fill-opacity:1;fill-rule:nonzero;stroke:none"
         id="path110" />
      <path
         d="m 996.254,699.957 h 39.716 l -32.01,-24.027 12.44,-38.075 -31.892,23.489 -31.891,-23.489 12.574,38.075 -32.269,24.027 h 39.594 l 11.992,37.125 11.746,-37.125 v 0"
         style="fill:#fff200;fill-opacity:1;fill-rule:nonzero;stroke:none"
         id="path112" />
      <path
         d="m 905.328,606.441 h 39.777 l -32.015,-23.992 12.379,-38.082 -31.824,23.465 -31.887,-23.465 12.535,38.082 -32.301,23.992 h 39.653 l 12,37.125 11.683,-37.125 v 0"
         style="fill:#fff200;fill-opacity:1;fill-rule:nonzero;stroke:none"
         id="path114" />
      <path
         d="m 871.578,480.504 h 39.75 l -32.015,-24.024 12.433,-38.062 -31.883,23.414 -31.89,-23.414 12.57,38.062 -32.273,24.024 h 39.597 l 11.996,37.09 11.715,-37.09 v 0"
         style="fill:#fff200;fill-opacity:1;fill-rule:nonzero;stroke:none"
         id="path116" />
      <path
         d="m 905.328,350.66 h 39.777 l -32.015,-24.058 12.379,-38.071 -31.824,23.481 -31.887,-23.481 12.535,38.071 -32.301,24.058 h 39.653 l 12,37.07 11.683,-37.07 v 0"
         style="fill:#fff200;fill-opacity:1;fill-rule:nonzero;stroke:none"
         id="path118" />
      <path
         d="m 997.582,258.422 h 39.708 l -32.01,-24.012 12.38,-38.058 -31.832,23.468 -31.883,-23.468 12.571,38.058 -32.27,24.012 h 39.594 l 11.988,37.117 11.754,-37.117 v 0"
         style="fill:#fff200;fill-opacity:1;fill-rule:nonzero;stroke:none"
         id="path120" />
    </g>
  </g>
</svg>
