<?xml version="1.0" encoding="UTF-8" standalone="no"?>
<svg
   xmlns:dc="http://purl.org/dc/elements/1.1/"
   xmlns:cc="http://creativecommons.org/ns#"
   xmlns:rdf="http://www.w3.org/1999/02/22-rdf-syntax-ns#"
   xmlns:svg="http://www.w3.org/2000/svg"
   xmlns="http://www.w3.org/2000/svg"
   xmlns:sodipodi="http://sodipodi.sourceforge.net/DTD/sodipodi-0.dtd"
   xmlns:inkscape="http://www.inkscape.org/namespaces/inkscape"
   id="svg2361"
   height="200"
   width="450"
   version="1.0"
   inkscape:version="0.91 r13725"
   sodipodi:docname="example deadlock 2.svg">
  <sodipodi:namedview
     pagecolor="#ffffff"
     bordercolor="#666666"
     borderopacity="1"
     objecttolerance="10"
     gridtolerance="10"
     guidetolerance="10"
     inkscape:pageopacity="0"
     inkscape:pageshadow="2"
     inkscape:window-width="1400"
     inkscape:window-height="1000"
     id="namedview21"
     showgrid="false"
     fit-margin-top="20"
     fit-margin-left="6.75"
     fit-margin-right="6.75"
     fit-margin-bottom="20"
     inkscape:zoom="1"
     inkscape:cx="339.1174"
     inkscape:cy="-49.474915"
     inkscape:window-x="0"
     inkscape:window-y="0"
     inkscape:window-maximized="1"
     inkscape:current-layer="svg2361" />
  <metadata
     id="metadata8">
    <rdf:RDF>
      <cc:Work
         rdf:about="">
        <dc:format>image/svg+xml</dc:format>
        <dc:type
           rdf:resource="http://purl.org/dc/dcmitype/StillImage" />
        <dc:title>BSicon Museumbahn</dc:title>
      </cc:Work>
    </rdf:RDF>
  </metadata>
  <defs
     id="defs2374">
    <marker
       inkscape:stockid="Arrow1Lend"
       orient="auto"
       refY="0"
       refX="0"
       id="Arrow1Lend"
       style="overflow:visible"
       inkscape:isstock="true">
      <path
         id="path4176"
         d="M 0,0 5,-5 -12.5,0 5,5 0,0 Z"
         style="fill:#0000ff;fill-opacity:1;fill-rule:evenodd;stroke:#0000ff;stroke-width:1pt;stroke-opacity:1"
         transform="matrix(-0.8,0,0,-0.8,-10,0)"
         inkscape:connector-curvature="0" />
    </marker>
    <marker
       inkscape:stockid="Arrow1Lend"
       orient="auto"
       refY="0"
       refX="0"
       id="Arrow1Lend-0"
       style="overflow:visible"
       inkscape:isstock="true">
      <path
         inkscape:connector-curvature="0"
         id="path4176-9"
         d="M 0,0 5,-5 -12.5,0 5,5 0,0 Z"
         style="fill:#0000ff;fill-opacity:1;fill-rule:evenodd;stroke:#0000ff;stroke-width:1pt;stroke-opacity:1"
         transform="matrix(-0.8,0,0,-0.8,-10,0)" />
    </marker>
    <marker
       inkscape:stockid="Arrow1Lend"
       orient="auto"
       refY="0"
       refX="0"
       id="Arrow1Lend-6"
       style="overflow:visible"
       inkscape:isstock="true">
      <path
         inkscape:connector-curvature="0"
         id="path4176-0"
         d="M 0,0 5,-5 -12.5,0 5,5 0,0 Z"
         style="fill:#0000ff;fill-opacity:1;fill-rule:evenodd;stroke:#0000ff;stroke-width:1pt;stroke-opacity:1"
         transform="matrix(-0.8,0,0,-0.8,-10,0)" />
    </marker>
    <marker
       inkscape:stockid="Arrow1Lend"
       orient="auto"
       refY="0"
       refX="0"
       id="Arrow1Lend-6-2"
       style="overflow:visible"
       inkscape:isstock="true">
      <path
         inkscape:connector-curvature="0"
         id="path4176-0-6"
         d="M 0,0 5,-5 -12.5,0 5,5 0,0 Z"
         style="fill:#0000ff;fill-opacity:1;fill-rule:evenodd;stroke:#0000ff;stroke-width:1pt;stroke-opacity:1"
         transform="matrix(-0.8,0,0,-0.8,-10,0)" />
    </marker>
  </defs>
  <title
     id="title2363">BSicon Museumbahn</title>
  <rect
     y="-2.220446e-15"
     x="0"
     height="200"
     width="450"
     id="rect4349"
     style="fill:#ffffff;fill-opacity:1;stroke:none;stroke-width:1.5;stroke-miterlimit:4;stroke-dasharray:none;stroke-opacity:1" />
  <rect
     style="fill:#f39841;fill-opacity:0.33333333;stroke:none;stroke-opacity:1"
     id="rect4863"
     width="77"
     height="45"
     x="14.75"
     y="98.23745" />
  <path
     id="path4138-3-6"
     d="m 263.75,85.19451 -88,0 -73.25352,54.29294 -95.74648,0 257,0"
     style="fill:none;fill-rule:evenodd;stroke:#000000;stroke-width:1.5;stroke-linecap:butt;stroke-linejoin:miter;stroke-miterlimit:4;stroke-dasharray:none;stroke-opacity:1"
     inkscape:connector-curvature="0"
     sodipodi:nodetypes="ccccc" />
  <rect
     style="fill:#f39841;fill-opacity:0.33333333;stroke:none;stroke-opacity:1"
     id="rect4863-7"
     width="77"
     height="45"
     x="194.75"
     y="98.23745" />
  <path
     id="path2371-7-9"
     style="fill:#000000;fill-opacity:1"
     d="m 71.51056,140.15345 2.82568,-0.03 0.0371,-0.6673 c 0.0416,-0.7465 -0.0735,-0.9326 -0.50886,-0.8233 -0.42296,0.1061 -6.17693,0.093 -6.28404,-0.014 -0.0529,-0.053 0.19198,-0.2261 0.55549,-0.393 0.79036,-0.3628 1.43715,-1.0605 1.72438,-1.8603 l 0.20714,-0.5768 1.31241,-0.031 c 0.88071,-0.021 1.34032,-0.075 1.39728,-0.1648 0.0467,-0.073 0.0856,-0.7636 0.0866,-1.5336 l 0.002,-1.4001 -1.86194,0 -1.86193,0 -0.45923,-0.7863 c -0.6584,-1.1274 -0.65771,-1.1293 0.42059,-1.1673 1.04676,-0.037 1.03567,-0.026 1.36215,-1.2839 0.39923,-1.5377 0.37289,-3.7203 -0.06,-4.9722 l -0.14195,-0.4104 -4.04123,-0.1099 -0.0549,-1.2628 c -0.0509,-1.1706 -0.0709,-1.2629 -0.27452,-1.2644 -0.20225,0 -0.21671,-0.063 -0.18275,-0.7769 0.0434,-0.9118 -0.0943,-1.5041 -0.4669,-2.0092 -0.25682,-0.3481 -0.26705,-0.4206 -0.20863,-1.4795 0.0707,-1.2811 -0.0231,-1.7324 -0.53876,-2.5922 -0.68896,-1.1487 -1.89813,-1.7969 -3.35297,-1.7972 l -0.79682,0 -0.12058,-0.4477 c -0.26604,-0.9881 -0.93854,-1.844 -1.79972,-2.2907 -0.66727,-0.346 -2.01689,-0.3906 -2.79753,-0.092 l -0.60133,0.2297 -0.50852,-0.5008 -0.50852,-0.5009 0.0538,-1.029 c 0.0906,-1.7312 -0.32999,-2.8207 -1.52335,-3.9464 -0.9024,-0.8513 -1.63952,-1.1664 -2.90284,-1.2411 -1.60919,-0.095 -2.90357,0.4176 -4.02597,1.5943 -1.04596,1.0966 -1.44056,2.1434 -1.43471,3.8061 l 0.004,1.1005 -0.44231,0.4971 c -0.24327,0.2733 -0.57051,0.7688 -0.7272,1.101 -0.38273,0.8113 -0.4071,2.3057 -0.0504,3.0881 0.31653,0.6942 0.95588,1.3735 1.62184,1.723 0.48754,0.2559 0.6845,0.292 1.59922,0.2934 0.92365,0 1.1154,-0.034 1.67318,-0.3077 0.61884,-0.3039 0.85247,-0.3119 0.85247,-0.029 0,0.2775 0.78135,1.1605 1.29298,1.4613 0.45739,0.2688 0.62953,0.305 1.45228,0.305 0.92843,0 1.18137,-0.071 1.87387,-0.527 0.27088,-0.1783 0.29589,-0.1748 0.65598,0.091 0.53412,0.394 1.13453,0.5264 2.0273,0.4468 l 0.76867,-0.068 0.20366,0.497 c 0.5202,1.2696 2.23251,1.7399 3.37437,0.9268 0.16459,-0.1172 0.34912,-0.2131 0.41007,-0.2131 0.12882,0 1.99658,2.363 1.99658,2.526 0,0.1037 -0.16169,0.1557 -0.36844,0.1186 -0.30629,-0.055 -0.40023,0.269 -0.40023,1.3804 0,0.8181 -0.039,1.1553 -0.13727,1.1863 -0.21171,0.067 -5.9382,0.1524 -6.10086,0.091 -0.079,-0.03 -0.25816,-0.313 -0.39814,-0.6295 -0.40916,-0.9252 -1.22241,-1.3159 -2.31299,-1.1113 -0.50098,0.094 -1.2114,0.7257 -1.37561,1.2233 -0.0686,0.2078 -0.21636,0.4269 -0.32834,0.4869 -0.29395,0.1573 -7.53916,0.1465 -7.63675,-0.011 -0.0409,-0.066 -0.0661,-0.635 -0.0561,-1.2642 0.0136,-0.8503 -0.0183,-1.1579 -0.1243,-1.1983 l -11.65542,0.1121 -0.0313,1.1255 -0.0313,1.1256 2.08141,0 c 0.23146,0 0.44554,0.1038 0.66345,0.3217 l 0.32172,0.3218 -0.062,1.5725 c -0.0341,0.8648 -0.10205,2.6984 -0.15104,4.0746 -0.049,1.3761 -0.12426,2.5373 -0.16726,2.5805 -0.043,0.043 -1.12427,0.1032 -2.4028,0.1334 l -2.3246,0.055 0,2.9566 2.48077,-0.033 c 2.19217,-0.029 2.50196,-0.012 2.66291,0.1493 0.10017,0.1001 0.18213,0.2546 0.18213,0.3433 0,0.5779 0.94831,1.6972 1.73137,2.0436 0.28795,0.1274 0.44779,0.2563 0.38971,0.3144 -0.0546,0.055 -2.51588,0.1111 -5.52965,0.127 l -3.49819,0.028 -0.0327,0.6863 -0.0327,0.6863 18.41467,-0.026 c 11.19122,-0.014 22.43108,-0.04 24.97747,-0.056 z m -23.19422,-1.4799 c -0.044,-0.044 0.0136,-0.1116 0.12795,-0.1505 1.02522,-0.3488 1.99254,-1.2088 2.24644,-1.9972 0.22109,-0.6866 0.2099,-0.6825 1.87553,-0.6825 l 1.52626,0 0.11905,0.302 c 0.32252,0.8181 0.44723,1.0394 0.81528,1.4468 0.21898,0.2424 0.67288,0.5706 1.00865,0.7295 0.33577,0.1588 0.55798,0.3209 0.4938,0.3602 -0.16113,0.099 -8.11384,0.091 -8.21296,-0.01 z m -9.43343,0.031 c -0.0352,-0.057 0.17191,-0.2079 0.46022,-0.3354 0.28831,-0.1274 0.66673,-0.365 0.84094,-0.5278 0.4044,-0.3781 0.94608,-1.2156 0.94608,-1.4628 0,-0.4552 0.27058,-0.5354 1.80627,-0.5354 1.59329,0 1.59031,0 1.80899,0.6781 0.23253,0.7223 0.82213,1.3626 1.61336,1.7521 0.58231,0.2867 0.68625,0.374 0.52196,0.4386 -0.30995,0.1218 -7.9223,0.1147 -7.99782,-0.01 z m 19.15808,-0.1012 c 0,-0.052 0.22182,-0.1796 0.49294,-0.2832 0.64061,-0.2446 1.37052,-0.9624 1.68136,-1.6534 0.13584,-0.302 0.28415,-0.6168 0.32958,-0.6995 0.0639,-0.1165 0.41441,-0.1485 1.55203,-0.1418 0.80819,0 1.50285,0.048 1.54369,0.096 0.0408,0.048 0.15779,0.3142 0.25989,0.592 0.26033,0.7083 0.8507,1.3525 1.55556,1.6973 0.33062,0.1618 0.60113,0.3377 0.60113,0.3911 0,0.054 -1.76449,0.097 -4.00809,0.097 -2.20445,0 -4.00809,-0.043 -4.00809,-0.095 z"
     inkscape:connector-curvature="0" />
  <path
     inkscape:connector-curvature="0"
     id="path4138-35-3"
     d="m 196.25,85.19445 88,0 73.25352,54.29294 85.74648,0 -247,0"
     style="fill:none;fill-rule:evenodd;stroke:#000000;stroke-width:1.5;stroke-linecap:butt;stroke-linejoin:miter;stroke-miterlimit:4;stroke-dasharray:none;stroke-opacity:1"
     sodipodi:nodetypes="ccccc" />
  <path
     style="fill:none;fill-rule:evenodd;stroke:#0000ff;stroke-width:1px;stroke-linecap:butt;stroke-linejoin:miter;stroke-opacity:1;marker-end:url(#Arrow1Lend)"
     d="m 192.75,59.23745 c -46,3 -120,30 -120,30"
     id="path4167"
     inkscape:connector-curvature="0"
     sodipodi:nodetypes="cc" />
  <path
     id="path2371-7-9-5"
     style="fill:#000000;fill-opacity:1"
     d="m 251.51056,140.15345 2.82568,-0.03 0.0371,-0.6673 c 0.0416,-0.7465 -0.0735,-0.9326 -0.50886,-0.8233 -0.42296,0.1061 -6.17693,0.093 -6.28404,-0.014 -0.0529,-0.053 0.19198,-0.2261 0.55549,-0.393 0.79036,-0.3628 1.43715,-1.0605 1.72438,-1.8603 l 0.20714,-0.5768 1.31241,-0.031 c 0.88071,-0.021 1.34032,-0.075 1.39728,-0.1648 0.0467,-0.073 0.0856,-0.7636 0.0866,-1.5336 l 0.002,-1.4001 -1.86194,0 -1.86193,0 -0.45923,-0.7863 c -0.6584,-1.1274 -0.65771,-1.1293 0.42059,-1.1673 1.04676,-0.037 1.03567,-0.026 1.36215,-1.2839 0.39923,-1.5377 0.37289,-3.7203 -0.06,-4.9722 l -0.14195,-0.4104 -4.04123,-0.1099 -0.0549,-1.2628 c -0.0509,-1.1706 -0.0709,-1.2629 -0.27452,-1.2644 -0.20225,0 -0.21671,-0.063 -0.18275,-0.7769 0.0434,-0.9118 -0.0943,-1.5041 -0.4669,-2.0092 -0.25682,-0.3481 -0.26705,-0.4206 -0.20863,-1.4795 0.0707,-1.2811 -0.0231,-1.7324 -0.53876,-2.5922 -0.68896,-1.1487 -1.89813,-1.7969 -3.35297,-1.7972 l -0.79682,0 -0.12058,-0.4477 c -0.26604,-0.9881 -0.93854,-1.844 -1.79972,-2.2907 -0.66727,-0.346 -2.01689,-0.3906 -2.79753,-0.092 l -0.60133,0.2297 -0.50852,-0.5008 -0.50852,-0.5009 0.0538,-1.029 c 0.0906,-1.7312 -0.32999,-2.8207 -1.52335,-3.9464 -0.9024,-0.8513 -1.63952,-1.1664 -2.90284,-1.2411 -1.60919,-0.095 -2.90357,0.4176 -4.02597,1.5943 -1.04596,1.0966 -1.44056,2.1434 -1.43471,3.8061 l 0.004,1.1005 -0.44231,0.4971 c -0.24327,0.2733 -0.57051,0.7688 -0.7272,1.101 -0.38273,0.8113 -0.4071,2.3057 -0.0504,3.0881 0.31653,0.6942 0.95588,1.3735 1.62184,1.723 0.48754,0.2559 0.6845,0.292 1.59922,0.2934 0.92365,0 1.1154,-0.034 1.67318,-0.3077 0.61884,-0.3039 0.85247,-0.3119 0.85247,-0.029 0,0.2775 0.78135,1.1605 1.29298,1.4613 0.45739,0.2688 0.62953,0.305 1.45228,0.305 0.92843,0 1.18137,-0.071 1.87387,-0.527 0.27088,-0.1783 0.29589,-0.1748 0.65598,0.091 0.53412,0.394 1.13453,0.5264 2.0273,0.4468 l 0.76867,-0.068 0.20366,0.497 c 0.5202,1.2696 2.23251,1.7399 3.37437,0.9268 0.16459,-0.1172 0.34912,-0.2131 0.41007,-0.2131 0.12882,0 1.99658,2.363 1.99658,2.526 0,0.1037 -0.16169,0.1557 -0.36844,0.1186 -0.30629,-0.055 -0.40023,0.269 -0.40023,1.3804 0,0.8181 -0.039,1.1553 -0.13727,1.1863 -0.21171,0.067 -5.9382,0.1524 -6.10086,0.091 -0.079,-0.03 -0.25816,-0.313 -0.39814,-0.6295 -0.40916,-0.9252 -1.22241,-1.3159 -2.31299,-1.1113 -0.50098,0.094 -1.2114,0.7257 -1.37561,1.2233 -0.0686,0.2078 -0.21636,0.4269 -0.32834,0.4869 -0.29395,0.1573 -7.53916,0.1465 -7.63675,-0.011 -0.0409,-0.066 -0.0661,-0.635 -0.0561,-1.2642 0.0136,-0.8503 -0.0183,-1.1579 -0.1243,-1.1983 l -11.65542,0.1121 -0.0313,1.1255 -0.0313,1.1256 2.08141,0 c 0.23146,0 0.44554,0.1038 0.66345,0.3217 l 0.32172,0.3218 -0.062,1.5725 c -0.0341,0.8648 -0.10205,2.6984 -0.15104,4.0746 -0.049,1.3761 -0.12426,2.5373 -0.16726,2.5805 -0.043,0.043 -1.12427,0.1032 -2.4028,0.1334 l -2.3246,0.055 0,2.9566 2.48077,-0.033 c 2.19217,-0.029 2.50196,-0.012 2.66291,0.1493 0.10017,0.1001 0.18213,0.2546 0.18213,0.3433 0,0.5779 0.94831,1.6972 1.73137,2.0436 0.28795,0.1274 0.44779,0.2563 0.38971,0.3144 -0.0546,0.055 -2.51588,0.1111 -5.52965,0.127 l -3.49819,0.028 -0.0327,0.6863 -0.0327,0.6863 18.41467,-0.026 c 11.19122,-0.014 22.43108,-0.04 24.97747,-0.056 z m -23.19422,-1.4799 c -0.044,-0.044 0.0136,-0.1116 0.12795,-0.1505 1.02522,-0.3488 1.99254,-1.2088 2.24644,-1.9972 0.22109,-0.6866 0.2099,-0.6825 1.87553,-0.6825 l 1.52626,0 0.11905,0.302 c 0.32252,0.8181 0.44723,1.0394 0.81528,1.4468 0.21898,0.2424 0.67288,0.5706 1.00865,0.7295 0.33577,0.1588 0.55798,0.3209 0.4938,0.3602 -0.16113,0.099 -8.11384,0.091 -8.21296,-0.01 z m -9.43343,0.031 c -0.0352,-0.057 0.17191,-0.2079 0.46022,-0.3354 0.28831,-0.1274 0.66673,-0.365 0.84094,-0.5278 0.4044,-0.3781 0.94608,-1.2156 0.94608,-1.4628 0,-0.4552 0.27058,-0.5354 1.80627,-0.5354 1.59329,0 1.59031,0 1.80899,0.6781 0.23253,0.7223 0.82213,1.3626 1.61336,1.7521 0.58231,0.2867 0.68625,0.374 0.52196,0.4386 -0.30995,0.1218 -7.9223,0.1147 -7.99782,-0.01 z m 19.15808,-0.1012 c 0,-0.052 0.22182,-0.1796 0.49294,-0.2832 0.64061,-0.2446 1.37052,-0.9624 1.68136,-1.6534 0.13584,-0.302 0.28415,-0.6168 0.32958,-0.6995 0.0639,-0.1165 0.41441,-0.1485 1.55203,-0.1418 0.80819,0 1.50285,0.048 1.54369,0.096 0.0408,0.048 0.15779,0.3142 0.25989,0.592 0.26033,0.7083 0.8507,1.3525 1.55556,1.6973 0.33062,0.1618 0.60113,0.3377 0.60113,0.3911 0,0.054 -1.76449,0.097 -4.00809,0.097 -2.20445,0 -4.00809,-0.043 -4.00809,-0.095 z"
     inkscape:connector-curvature="0" />
  <rect
     style="fill:#f39841;fill-opacity:0.33333333;stroke:none;stroke-opacity:1"
     id="rect4863-3"
     width="77"
     height="45"
     x="-439.75"
     y="98.23745"
     transform="scale(-1,1)" />
  <path
     id="path2371-7-9-56"
     style="fill:#000000;fill-opacity:1"
     d="m 382.98944,140.15345 -2.82568,-0.03 -0.0371,-0.6673 c -0.0416,-0.7465 0.0735,-0.9326 0.50886,-0.8233 0.42296,0.1061 6.17693,0.093 6.28404,-0.014 0.0529,-0.053 -0.19198,-0.2261 -0.55549,-0.393 -0.79036,-0.3628 -1.43715,-1.0605 -1.72438,-1.8603 l -0.20714,-0.5768 -1.31241,-0.031 c -0.88071,-0.021 -1.34032,-0.075 -1.39728,-0.1648 -0.0467,-0.073 -0.0856,-0.7636 -0.0866,-1.5336 l -0.002,-1.4001 1.86194,0 1.86193,0 0.45923,-0.7863 c 0.6584,-1.1274 0.65771,-1.1293 -0.42059,-1.1673 -1.04676,-0.037 -1.03567,-0.026 -1.36215,-1.2839 -0.39923,-1.5377 -0.37289,-3.7203 0.06,-4.9722 l 0.14195,-0.4104 4.04123,-0.1099 0.0549,-1.2628 c 0.0509,-1.1706 0.0709,-1.2629 0.27452,-1.2644 0.20225,0 0.21671,-0.063 0.18275,-0.7769 -0.0434,-0.9118 0.0943,-1.5041 0.4669,-2.0092 0.25682,-0.3481 0.26705,-0.4206 0.20863,-1.4795 -0.0707,-1.2811 0.0231,-1.7324 0.53876,-2.5922 0.68896,-1.1487 1.89813,-1.7969 3.35297,-1.7972 l 0.79682,0 0.12058,-0.4477 c 0.26604,-0.9881 0.93854,-1.844 1.79972,-2.2907 0.66727,-0.346 2.01689,-0.3906 2.79753,-0.092 l 0.60133,0.2297 0.50852,-0.5008 0.50852,-0.5009 -0.0538,-1.029 c -0.0906,-1.7312 0.32999,-2.8207 1.52335,-3.9464 0.9024,-0.8513 1.63952,-1.1664 2.90284,-1.2411 1.60919,-0.095 2.90357,0.4176 4.02597,1.5943 1.04596,1.0966 1.44056,2.1434 1.43471,3.8061 l -0.004,1.1005 0.44231,0.4971 c 0.24327,0.2733 0.57051,0.7688 0.7272,1.101 0.38273,0.8113 0.4071,2.3057 0.0504,3.0881 -0.31653,0.6942 -0.95588,1.3735 -1.62184,1.723 -0.48754,0.2559 -0.6845,0.292 -1.59922,0.2934 -0.92365,0 -1.1154,-0.034 -1.67318,-0.3077 -0.61884,-0.3039 -0.85247,-0.3119 -0.85247,-0.029 0,0.2775 -0.78135,1.1605 -1.29298,1.4613 -0.45739,0.2688 -0.62953,0.305 -1.45228,0.305 -0.92843,0 -1.18137,-0.071 -1.87387,-0.527 -0.27088,-0.1783 -0.29589,-0.1748 -0.65598,0.091 -0.53412,0.394 -1.13453,0.5264 -2.0273,0.4468 l -0.76867,-0.068 -0.20366,0.497 c -0.5202,1.2696 -2.23251,1.7399 -3.37437,0.9268 -0.16459,-0.1172 -0.34912,-0.2131 -0.41007,-0.2131 -0.12882,0 -1.99658,2.363 -1.99658,2.526 0,0.1037 0.16169,0.1557 0.36844,0.1186 0.30629,-0.055 0.40023,0.269 0.40023,1.3804 0,0.8181 0.039,1.1553 0.13727,1.1863 0.21171,0.067 5.9382,0.1524 6.10086,0.091 0.079,-0.03 0.25816,-0.313 0.39814,-0.6295 0.40916,-0.9252 1.22241,-1.3159 2.31299,-1.1113 0.50098,0.094 1.2114,0.7257 1.37561,1.2233 0.0686,0.2078 0.21636,0.4269 0.32834,0.4869 0.29395,0.1573 7.53916,0.1465 7.63675,-0.011 0.0409,-0.066 0.0661,-0.635 0.0561,-1.2642 -0.0136,-0.8503 0.0183,-1.1579 0.1243,-1.1983 l 11.65542,0.1121 0.0313,1.1255 0.0313,1.1256 -2.08141,0 c -0.23146,0 -0.44554,0.1038 -0.66345,0.3217 l -0.32172,0.3218 0.062,1.5725 c 0.0341,0.8648 0.10205,2.6984 0.15104,4.0746 0.049,1.3761 0.12426,2.5373 0.16726,2.5805 0.043,0.043 1.12427,0.1032 2.4028,0.1334 l 2.3246,0.055 0,2.9566 -2.48077,-0.033 c -2.19217,-0.029 -2.50196,-0.012 -2.66291,0.1493 -0.10017,0.1001 -0.18213,0.2546 -0.18213,0.3433 0,0.5779 -0.94831,1.6972 -1.73137,2.0436 -0.28795,0.1274 -0.44779,0.2563 -0.38971,0.3144 0.0546,0.055 2.51588,0.1111 5.52965,0.127 l 3.49819,0.028 0.0327,0.6863 0.0327,0.6863 -18.41467,-0.026 c -11.19122,-0.014 -22.43108,-0.04 -24.97747,-0.056 z m 23.19422,-1.4799 c 0.044,-0.044 -0.0136,-0.1116 -0.12795,-0.1505 -1.02522,-0.3488 -1.99254,-1.2088 -2.24644,-1.9972 -0.22109,-0.6866 -0.2099,-0.6825 -1.87553,-0.6825 l -1.52626,0 -0.11905,0.302 c -0.32252,0.8181 -0.44723,1.0394 -0.81528,1.4468 -0.21898,0.2424 -0.67288,0.5706 -1.00865,0.7295 -0.33577,0.1588 -0.55798,0.3209 -0.4938,0.3602 0.16113,0.099 8.11384,0.091 8.21296,-0.01 z m 9.43343,0.031 c 0.0352,-0.057 -0.17191,-0.2079 -0.46022,-0.3354 -0.28831,-0.1274 -0.66673,-0.365 -0.84094,-0.5278 -0.4044,-0.3781 -0.94608,-1.2156 -0.94608,-1.4628 0,-0.4552 -0.27058,-0.5354 -1.80627,-0.5354 -1.59329,0 -1.59031,0 -1.80899,0.6781 -0.23253,0.7223 -0.82213,1.3626 -1.61336,1.7521 -0.58231,0.2867 -0.68625,0.374 -0.52196,0.4386 0.30995,0.1218 7.9223,0.1147 7.99782,-0.01 z m -19.15808,-0.1012 c 0,-0.052 -0.22182,-0.1796 -0.49294,-0.2832 -0.64061,-0.2446 -1.37052,-0.9624 -1.68136,-1.6534 -0.13584,-0.302 -0.28415,-0.6168 -0.32958,-0.6995 -0.0639,-0.1165 -0.41441,-0.1485 -1.55203,-0.1418 -0.80819,0 -1.50285,0.048 -1.54369,0.096 -0.0408,0.048 -0.15779,0.3142 -0.25989,0.592 -0.26033,0.7083 -0.8507,1.3525 -1.55556,1.6973 -0.33062,0.1618 -0.60113,0.3377 -0.60113,0.3911 0,0.054 1.76449,0.097 4.00809,0.097 2.20445,0 4.00809,-0.043 4.00809,-0.095 z"
     inkscape:connector-curvature="0" />
  <rect
     style="fill:#f39841;fill-opacity:0.33333333;stroke:none;stroke-opacity:1"
     id="rect4863-2"
     width="77"
     height="45"
     x="-271.75"
     y="44.094437"
     transform="scale(-1,1)" />
  <path
     id="path2371-7-9-9"
     style="fill:#000000;fill-opacity:1"
     d="m 214.98944,86.01045 -2.82568,-0.03 -0.0371,-0.6673 c -0.0416,-0.7465 0.0735,-0.9326 0.50886,-0.8233 0.42296,0.1061 6.17693,0.093 6.28404,-0.014 0.0529,-0.053 -0.19198,-0.2261 -0.55549,-0.393 -0.79036,-0.3628 -1.43715,-1.0605 -1.72438,-1.8603 l -0.20714,-0.5768 -1.31241,-0.031 c -0.88071,-0.021 -1.34032,-0.075 -1.39728,-0.1648 -0.0467,-0.073 -0.0856,-0.7636 -0.0866,-1.5336 l -0.002,-1.4001 1.86194,0 1.86193,0 0.45923,-0.7863 c 0.6584,-1.1274 0.65771,-1.1293 -0.42059,-1.1673 -1.04676,-0.037 -1.03567,-0.026 -1.36215,-1.2839 -0.39923,-1.5377 -0.37289,-3.7203 0.06,-4.9722 l 0.14195,-0.4104 4.04123,-0.1099 0.0549,-1.2628 c 0.0509,-1.1706 0.0709,-1.2629 0.27452,-1.2644 0.20225,0 0.21671,-0.063 0.18275,-0.7769 -0.0434,-0.9118 0.0943,-1.5041 0.4669,-2.0092 0.25682,-0.3481 0.26705,-0.4206 0.20863,-1.4795 -0.0707,-1.2811 0.0231,-1.7324 0.53876,-2.5922 0.68896,-1.1487 1.89813,-1.7969 3.35297,-1.7972 l 0.79682,0 0.12058,-0.4477 c 0.26604,-0.9881 0.93854,-1.844 1.79972,-2.2907 0.66727,-0.346 2.01689,-0.3906 2.79753,-0.092 l 0.60133,0.2297 0.50852,-0.5008 0.50852,-0.5009 -0.0538,-1.029 c -0.0906,-1.7312 0.32999,-2.8207 1.52335,-3.9464 0.9024,-0.8513 1.63952,-1.1664 2.90284,-1.2411 1.60919,-0.095 2.90357,0.4176 4.02597,1.5943 1.04596,1.0966 1.44056,2.1434 1.43471,3.8061 l -0.004,1.1005 0.44231,0.4971 c 0.24327,0.2733 0.57051,0.7688 0.7272,1.101 0.38273,0.8113 0.4071,2.3057 0.0504,3.0881 -0.31653,0.6942 -0.95588,1.3735 -1.62184,1.723 -0.48754,0.2559 -0.6845,0.292 -1.59922,0.2934 -0.92365,0 -1.1154,-0.034 -1.67318,-0.3077 -0.61884,-0.3039 -0.85247,-0.3119 -0.85247,-0.029 0,0.2775 -0.78135,1.1605 -1.29298,1.4613 -0.45739,0.2688 -0.62953,0.305 -1.45228,0.305 -0.92843,0 -1.18137,-0.071 -1.87387,-0.527 -0.27088,-0.1783 -0.29589,-0.1748 -0.65598,0.091 -0.53412,0.394 -1.13453,0.5264 -2.0273,0.4468 l -0.76867,-0.068 -0.20366,0.497 c -0.5202,1.2696 -2.23251,1.7399 -3.37437,0.9268 -0.16459,-0.1172 -0.34912,-0.2131 -0.41007,-0.2131 -0.12882,0 -1.99658,2.363 -1.99658,2.526 0,0.1037 0.16169,0.1557 0.36844,0.1186 0.30629,-0.055 0.40023,0.269 0.40023,1.3804 0,0.8181 0.039,1.1553 0.13727,1.1863 0.21171,0.067 5.9382,0.1524 6.10086,0.091 0.079,-0.03 0.25816,-0.313 0.39814,-0.6295 0.40916,-0.9252 1.22241,-1.3159 2.31299,-1.1113 0.50098,0.094 1.2114,0.7257 1.37561,1.2233 0.0686,0.2078 0.21636,0.4269 0.32834,0.4869 0.29395,0.1573 7.53916,0.1465 7.63675,-0.011 0.0409,-0.066 0.0661,-0.635 0.0561,-1.2642 -0.0136,-0.8503 0.0183,-1.1579 0.1243,-1.1983 l 11.65542,0.1121 0.0313,1.1255 0.0313,1.1256 -2.08141,0 c -0.23146,0 -0.44554,0.1038 -0.66345,0.3217 l -0.32172,0.3218 0.062,1.5725 c 0.0341,0.8648 0.10205,2.6984 0.15104,4.0746 0.049,1.3761 0.12426,2.5373 0.16726,2.5805 0.043,0.043 1.12427,0.1032 2.4028,0.1334 l 2.3246,0.055 0,2.9566 -2.48077,-0.033 c -2.19217,-0.029 -2.50196,-0.012 -2.66291,0.1493 -0.10017,0.1001 -0.18213,0.2546 -0.18213,0.3433 0,0.5779 -0.94831,1.6972 -1.73137,2.0436 -0.28795,0.1274 -0.44779,0.2563 -0.38971,0.3144 0.0546,0.055 2.51588,0.1111 5.52965,0.127 l 3.49819,0.028 0.0327,0.6863 0.0327,0.6863 -18.41467,-0.026 c -11.19122,-0.014 -22.43108,-0.04 -24.97747,-0.056 z m 23.19422,-1.4799 c 0.044,-0.044 -0.0136,-0.1116 -0.12795,-0.1505 -1.02522,-0.3488 -1.99254,-1.2088 -2.24644,-1.9972 -0.22109,-0.6866 -0.2099,-0.6825 -1.87553,-0.6825 l -1.52626,0 -0.11905,0.302 c -0.32252,0.8181 -0.44723,1.0394 -0.81528,1.4468 -0.21898,0.2424 -0.67288,0.5706 -1.00865,0.7295 -0.33577,0.1588 -0.55798,0.3209 -0.4938,0.3602 0.16113,0.099 8.11384,0.091 8.21296,-0.01 z m 9.43343,0.031 c 0.0352,-0.057 -0.17191,-0.2079 -0.46022,-0.3354 -0.28831,-0.1274 -0.66673,-0.365 -0.84094,-0.5278 -0.4044,-0.3781 -0.94608,-1.2156 -0.94608,-1.4628 0,-0.4552 -0.27058,-0.5354 -1.80627,-0.5354 -1.59329,0 -1.59031,0 -1.80899,0.6781 -0.23253,0.7223 -0.82213,1.3626 -1.61336,1.7521 -0.58231,0.2867 -0.68625,0.374 -0.52196,0.4386 0.30995,0.1218 7.9223,0.1147 7.99782,-0.01 z m -19.15808,-0.1012 c 0,-0.052 -0.22182,-0.1796 -0.49294,-0.2832 -0.64061,-0.2446 -1.37052,-0.9624 -1.68136,-1.6534 -0.13584,-0.302 -0.28415,-0.6168 -0.32958,-0.6995 -0.0639,-0.1165 -0.41441,-0.1485 -1.55203,-0.1418 -0.80819,0 -1.50285,0.048 -1.54369,0.096 -0.0408,0.048 -0.15779,0.3142 -0.25989,0.592 -0.26033,0.7083 -0.8507,1.3525 -1.55556,1.6973 -0.33062,0.1618 -0.60113,0.3377 -0.60113,0.3911 0,0.054 1.76449,0.097 4.00809,0.097 2.20445,0 4.00809,-0.043 4.00809,-0.095 z"
     inkscape:connector-curvature="0" />
  <path
     style="fill:none;fill-rule:evenodd;stroke:#0000ff;stroke-width:1px;stroke-linecap:butt;stroke-linejoin:miter;stroke-opacity:1;marker-end:url(#Arrow1Lend-0)"
     d="m 405.07277,95.23745 c 0,0 -74,-27 -120,-30"
     id="path4167-3"
     inkscape:connector-curvature="0"
     sodipodi:nodetypes="cc" />
  <path
     style="fill:none;fill-rule:evenodd;stroke:#0000ff;stroke-width:1px;stroke-linecap:butt;stroke-linejoin:miter;stroke-opacity:1;marker-end:url(#Arrow1Lend-6)"
     d="m 77.261861,148.49653 c 45.119759,9.445 123.649749,3.27731 123.649749,3.27731"
     id="path4167-6"
     inkscape:connector-curvature="0"
     sodipodi:nodetypes="cc" />
  <path
     style="fill:none;fill-rule:evenodd;stroke:#0000ff;stroke-width:1px;stroke-linecap:butt;stroke-linejoin:miter;stroke-opacity:1;marker-end:url(#Arrow1Lend-6-2)"
     d="m 257.26186,148.49653 c 45.11976,9.445 123.64975,3.27731 123.64975,3.27731"
     id="path4167-6-1"
     inkscape:connector-curvature="0"
     sodipodi:nodetypes="cc" />
</svg>
