<?xml version="1.0" encoding="UTF-8"?>
<svg xmlns="http://www.w3.org/2000/svg" xmlns:xlink="http://www.w3.org/1999/xlink" width="217pt" height="260pt" viewBox="0 0 217 260" version="1.1">
<g id="surface1">
<path style="fill:none;stroke-width:39.9997;stroke-linecap:butt;stroke-linejoin:miter;stroke:rgb(0%,58.399963%,85.499573%);stroke-opacity:1;stroke-miterlimit:22.9256;" d="M 26.914063 2571.875 L 2145.859375 2564.492188 L 2003.242188 576.5625 L 1091.015625 27.03125 L 166.445313 576.5625 Z M 26.914063 2571.875 " transform="matrix(0.1,0,0,-0.1,0,260)"/>
<path style="fill:none;stroke-width:24.8315;stroke-linecap:butt;stroke-linejoin:miter;stroke:rgb(0%,58.399963%,85.499573%);stroke-opacity:1;stroke-miterlimit:22.9256;" d="M 119.414063 2490.234375 L 2060.664063 2490.234375 L 1935.429688 627.34375 L 1090.9375 114.257813 L 235 627.34375 Z M 119.414063 2490.234375 " transform="matrix(0.1,0,0,-0.1,0,260)"/>
<path style=" stroke:none;fill-rule:evenodd;fill:rgb(0%,58.399963%,85.499573%);fill-opacity:1;" d="M 12.132813 11.003906 L 41.914063 11.003906 L 41.914063 207.515625 L 24.210938 197.355469 L 12.132813 11.003906 "/>
<path style=" stroke:none;fill-rule:evenodd;fill:rgb(0%,58.399963%,85.499573%);fill-opacity:1;" d="M 205.871094 11.003906 L 176.09375 11.003906 L 176.09375 207.515625 L 193.800781 197.355469 L 205.871094 11.003906 "/>
<path style=" stroke:none;fill-rule:evenodd;fill:rgb(0%,58.399963%,85.499573%);fill-opacity:1;" d="M 67.003906 11.050781 L 93.640625 11.050781 L 93.359375 240.167969 L 67.003906 224.621094 L 67.003906 11.050781 "/>
<path style=" stroke:none;fill-rule:evenodd;fill:rgb(0%,58.399963%,85.499573%);fill-opacity:1;" d="M 149.707031 11.050781 L 123.070313 11.050781 L 123.351563 240.167969 L 149.707031 224.621094 L 149.707031 11.050781 "/>
<path style=" stroke:none;fill-rule:evenodd;fill:rgb(100%,100%,100%);fill-opacity:1;" d="M 10.789063 10 L 207.21875 9.929688 L 203.195313 58.941406 L 14.742188 58.871094 L 10.789063 10 "/>
<path style="fill:none;stroke-width:19.1622;stroke-linecap:butt;stroke-linejoin:miter;stroke:rgb(0%,58.399963%,85.499573%);stroke-opacity:1;stroke-miterlimit:22.9256;" d="M 107.890625 2500 L 2072.1875 2500.703125 L 2031.953125 2010.585938 L 147.421875 2011.289063 Z M 107.890625 2500 " transform="matrix(0.1,0,0,-0.1,0,260)"/>
<path style=" stroke:none;fill-rule:evenodd;fill:rgb(100%,100%,100%);fill-opacity:1;" d="M 90.695313 183.6875 L 90.695313 202.585938 L 86.421875 202.585938 L 86.421875 190.203125 C 85.730469 190.84375 85.0625 191.363281 84.414063 191.761719 C 83.769531 192.15625 82.957031 192.539063 81.980469 192.902344 L 81.980469 188.667969 C 83.421875 188.097656 84.539063 187.421875 85.335938 186.628906 C 86.128906 185.832031 86.75 184.847656 87.199219 183.6875 Z M 130.527344 192.335938 C 129.863281 191.90625 129.378906 191.421875 129.074219 190.890625 C 128.660156 190.164063 128.453125 189.328125 128.453125 188.378906 C 128.453125 186.828125 129.050781 185.554688 130.246094 184.5625 C 131.179688 183.808594 132.414063 183.425781 133.953125 183.425781 C 135.984375 183.425781 137.488281 183.898438 138.460938 184.84375 C 139.433594 185.792969 139.917969 186.984375 139.917969 188.417969 C 139.917969 189.253906 139.726563 190.039063 139.335938 190.765625 C 139.046875 191.304688 138.589844 191.828125 137.964844 192.335938 C 138.789063 192.820313 139.402344 193.457031 139.808594 194.253906 C 140.214844 195.042969 140.417969 195.921875 140.417969 196.886719 C 140.417969 197.816406 140.242188 198.6875 139.894531 199.492188 C 139.542969 200.300781 139.113281 200.921875 138.605469 201.359375 C 138.097656 201.800781 137.464844 202.128906 136.710938 202.332031 C 135.949219 202.539063 135.144531 202.640625 134.28125 202.640625 C 132.671875 202.640625 131.441406 202.410156 130.589844 201.945313 C 129.738281 201.480469 129.09375 200.792969 128.652344 199.890625 C 128.207031 198.988281 127.984375 197.976563 127.984375 196.859375 C 127.984375 195.769531 128.195313 194.847656 128.609375 194.09375 C 129.023438 193.335938 129.664063 192.75 130.527344 192.335938 Z M 132.425781 188.6875 C 132.425781 189.328125 132.589844 189.847656 132.917969 190.242188 C 133.246094 190.628906 133.683594 190.828125 134.234375 190.828125 C 134.714844 190.828125 135.113281 190.636719 135.425781 190.246094 C 135.738281 189.855469 135.894531 189.355469 135.894531 188.734375 C 135.894531 188.09375 135.730469 187.570313 135.40625 187.171875 C 135.078125 186.769531 134.664063 186.566406 134.160156 186.566406 C 133.648438 186.566406 133.230469 186.765625 132.90625 187.160156 C 132.585938 187.550781 132.425781 188.058594 132.425781 188.6875 Z M 132.199219 196.683594 C 132.199219 197.507813 132.402344 198.175781 132.808594 198.695313 C 133.21875 199.214844 133.683594 199.472656 134.210938 199.472656 C 134.714844 199.472656 135.167969 199.210938 135.570313 198.683594 C 135.972656 198.15625 136.175781 197.484375 136.175781 196.671875 C 136.175781 195.851563 135.96875 195.183594 135.566406 194.660156 C 135.160156 194.132813 134.691406 193.871094 134.160156 193.871094 C 133.632813 193.871094 133.175781 194.121094 132.785156 194.632813 C 132.394531 195.140625 132.199219 195.824219 132.199219 196.683594 "/>
<path style=" stroke:none;fill-rule:evenodd;fill:rgb(0%,58.399963%,85.499573%);fill-opacity:1;" d="M 93.871094 198.15625 L 98.753906 197.511719 C 98.886719 198.226563 99.097656 198.734375 99.40625 199.027344 C 99.714844 199.328125 100.089844 199.472656 100.527344 199.472656 C 101.316406 199.472656 101.933594 199.054688 102.371094 198.21875 C 102.695313 197.601563 102.9375 196.292969 103.097656 194.300781 C 102.507813 194.933594 101.90625 195.398438 101.289063 195.699219 C 100.667969 195.992188 99.953125 196.136719 99.140625 196.136719 C 97.554688 196.136719 96.222656 195.550781 95.128906 194.363281 C 94.039063 193.183594 93.496094 191.6875 93.496094 189.878906 C 93.496094 188.644531 93.769531 187.519531 94.328125 186.507813 C 94.882813 185.488281 95.644531 184.722656 96.621094 184.207031 C 97.59375 183.6875 98.816406 183.425781 100.285156 183.425781 C 102.054688 183.425781 103.476563 183.746094 104.546875 184.382813 C 105.613281 185.019531 106.46875 186.035156 107.109375 187.425781 C 107.746094 188.8125 108.066406 190.652344 108.066406 192.933594 C 108.066406 196.285156 107.398438 198.742188 106.054688 200.304688 C 104.710938 201.863281 102.851563 202.640625 100.464844 202.640625 C 99.0625 202.640625 97.949219 202.472656 97.140625 202.132813 C 96.328125 201.785156 95.648438 201.285156 95.113281 200.625 C 94.574219 199.96875 94.15625 199.144531 93.871094 198.15625 Z M 102.917969 189.863281 C 102.917969 188.859375 102.679688 188.074219 102.191406 187.503906 C 101.710938 186.929688 101.125 186.644531 100.433594 186.644531 C 99.777344 186.644531 99.238281 186.90625 98.8125 187.421875 C 98.378906 187.933594 98.164063 188.710938 98.164063 189.738281 C 98.164063 190.777344 98.386719 191.574219 98.832031 192.125 C 99.28125 192.671875 99.835938 192.945313 100.503906 192.945313 C 101.195313 192.945313 101.773438 192.679688 102.230469 192.144531 C 102.6875 191.613281 102.917969 190.855469 102.917969 189.863281 Z M 124.035156 202.324219 L 109.292969 202.324219 C 109.460938 200.792969 109.976563 199.359375 110.835938 198.007813 C 111.691406 196.660156 113.296875 195.070313 115.652344 193.234375 C 117.09375 192.113281 118.011719 191.257813 118.414063 190.679688 C 118.816406 190.09375 119.019531 189.539063 119.019531 189.015625 C 119.019531 188.449219 118.816406 187.964844 118.421875 187.5625 C 118.023438 187.164063 117.519531 186.960938 116.921875 186.960938 C 116.289063 186.960938 115.777344 187.167969 115.378906 187.585938 C 114.984375 187.996094 114.71875 188.726563 114.578125 189.777344 L 109.65625 189.359375 C 109.847656 187.90625 110.203125 186.769531 110.71875 185.953125 C 111.234375 185.140625 111.957031 184.511719 112.894531 184.082031 C 113.832031 183.644531 115.128906 183.425781 116.789063 183.425781 C 118.511719 183.425781 119.859375 183.632813 120.824219 184.046875 C 121.78125 184.460938 122.539063 185.097656 123.089844 185.953125 C 123.640625 186.816406 123.914063 187.773438 123.914063 188.839844 C 123.914063 189.972656 123.597656 191.054688 122.96875 192.085938 C 122.339844 193.113281 121.191406 194.246094 119.527344 195.480469 C 118.535156 196.199219 117.875 196.703125 117.542969 196.992188 C 117.207031 197.277344 116.8125 197.652344 116.363281 198.117188 L 124.035156 198.117188 L 124.035156 202.324219 "/>
<path style=" stroke:none;fill-rule:evenodd;fill:rgb(0%,58.399963%,85.499573%);fill-opacity:1;" d="M 28.367188 29.789063 C 26.550781 29.789063 25.078125 29.273438 23.953125 28.242188 C 22.832031 27.203125 22.269531 25.90625 22.269531 24.351563 C 22.269531 22.976563 22.75 21.726563 23.703125 20.589844 C 24.648438 19.46875 26.199219 18.910156 28.367188 18.910156 L 28.367188 17.394531 L 31.160156 17.394531 L 31.160156 18.910156 C 33.328125 18.910156 34.890625 19.46875 35.84375 20.589844 C 36.785156 21.726563 37.257813 22.976563 37.257813 24.351563 C 37.257813 25.894531 36.703125 27.1875 35.59375 28.222656 C 34.472656 29.269531 32.992188 29.789063 31.160156 29.789063 L 31.160156 31.296875 L 28.367188 31.296875 Z M 28.367188 20.921875 C 27.167969 20.921875 26.316406 21.253906 25.816406 21.90625 C 25.316406 22.578125 25.0625 23.359375 25.0625 24.25 C 25.0625 25.425781 25.398438 26.304688 26.070313 26.882813 C 26.738281 27.480469 27.503906 27.777344 28.367188 27.777344 Z M 31.160156 27.753906 C 32.03125 27.753906 32.808594 27.464844 33.476563 26.882813 C 34.136719 26.304688 34.464844 25.421875 34.464844 24.234375 C 34.464844 23.339844 34.214844 22.566406 33.710938 21.90625 C 33.210938 21.253906 32.359375 20.921875 31.160156 20.921875 Z M 39.078125 28.394531 L 41.984375 28.394531 L 41.984375 31.296875 L 39.078125 31.296875 Z M 44.808594 17.394531 L 47.714844 17.394531 L 47.714844 23.089844 L 53.09375 17.394531 L 56.855469 17.394531 L 51.140625 23.089844 L 57.144531 31.296875 L 53.40625 31.296875 L 49.105469 25.199219 L 47.714844 26.632813 L 47.714844 31.296875 L 44.808594 31.296875 Z M 58.441406 28.394531 L 61.347656 28.394531 L 61.347656 31.296875 L 58.441406 31.296875 Z M 73.675781 17.394531 L 75.847656 17.394531 L 75.847656 22.71875 L 73.675781 22.71875 Z M 69.765625 17.394531 L 71.9375 17.394531 L 71.9375 22.71875 L 69.765625 22.71875 Z M 79.003906 17.394531 L 81.90625 17.394531 L 81.90625 22.679688 L 87.367188 22.679688 L 87.367188 17.394531 L 90.273438 17.394531 L 90.273438 31.296875 L 87.367188 31.296875 L 87.367188 25.082031 L 81.90625 25.082031 L 81.90625 31.296875 L 79.003906 31.296875 Z M 96.992188 17.394531 L 100.300781 17.394531 L 105.21875 31.296875 L 102.066406 31.296875 L 101.171875 28.433594 L 96.042969 28.433594 L 95.074219 31.296875 L 92.015625 31.296875 Z M 96.820313 26.03125 L 100.359375 26.03125 L 98.640625 20.535156 Z M 106.960938 17.394531 L 118.234375 17.394531 L 118.234375 31.296875 L 115.324219 31.296875 L 115.324219 19.796875 L 109.867188 19.796875 L 109.867188 31.296875 L 106.960938 31.296875 Z M 121.171875 17.394531 L 127.480469 17.394531 C 128.917969 17.394531 130.003906 17.78125 130.734375 18.558594 C 131.472656 19.335938 131.84375 20.433594 131.84375 21.847656 C 131.84375 23.164063 131.429688 24.238281 130.601563 25.0625 C 129.773438 25.890625 128.65625 26.300781 127.253906 26.300781 L 124.078125 26.300781 L 124.078125 31.296875 L 121.171875 31.296875 Z M 124.078125 23.902344 L 126.828125 23.902344 C 127.511719 23.902344 128.035156 23.738281 128.390625 23.421875 C 128.753906 23.097656 128.933594 22.574219 128.933594 21.847656 C 128.933594 21.152344 128.753906 20.636719 128.390625 20.300781 C 128.035156 19.964844 127.511719 19.796875 126.828125 19.796875 L 124.078125 19.796875 Z M 134.089844 17.394531 L 144.289063 17.394531 L 144.289063 19.796875 L 136.878906 19.796875 L 136.878906 22.875 L 143.6875 22.875 L 143.6875 25.277344 L 136.878906 25.277344 L 136.878906 28.785156 L 144.621094 28.785156 L 144.621094 31.296875 L 134.089844 31.296875 Z M 145.648438 28.894531 L 146.867188 28.894531 C 147.292969 28.109375 147.648438 27.21875 147.933594 26.226563 C 148.203125 25.246094 148.402344 24.257813 148.53125 23.261719 C 148.648438 22.28125 148.753906 21.273438 148.84375 20.242188 C 148.921875 19.222656 148.960938 18.273438 148.960938 17.394531 L 158.097656 17.394531 L 158.097656 28.894531 L 159.160156 28.894531 L 159.160156 35.285156 L 156.644531 35.285156 L 156.644531 31.296875 L 148.167969 31.296875 L 148.167969 35.285156 L 145.648438 35.285156 Z M 151.476563 19.796875 C 151.476563 20.480469 151.4375 21.175781 151.355469 21.882813 C 151.28125 22.597656 151.171875 23.421875 151.03125 24.351563 C 150.890625 25.277344 150.71875 26.121094 150.527344 26.882813 C 150.320313 27.65625 150.070313 28.328125 149.773438 28.894531 L 155.1875 28.894531 L 155.1875 19.796875 Z M 166.925781 17.042969 C 168.953125 17.042969 170.574219 17.726563 171.785156 19.097656 C 173 20.480469 173.605469 22.230469 173.605469 24.347656 C 173.605469 26.472656 173.007813 28.222656 171.808594 29.59375 C 170.59375 30.960938 168.96875 31.644531 166.925781 31.644531 C 164.769531 31.644531 163.117188 30.96875 161.972656 29.613281 C 160.820313 28.269531 160.246094 26.515625 160.246094 24.347656 C 160.246094 22.160156 160.820313 20.398438 161.972656 19.058594 C 163.105469 17.714844 164.757813 17.042969 166.925781 17.042969 Z M 170.703125 24.347656 C 170.703125 22.925781 170.367188 21.769531 169.695313 20.875 C 169.023438 20 168.101563 19.5625 166.925781 19.5625 C 165.765625 19.5625 164.851563 20.007813 164.179688 20.894531 C 163.496094 21.785156 163.152344 22.9375 163.152344 24.347656 C 163.152344 25.765625 163.488281 26.914063 164.160156 27.796875 C 164.832031 28.683594 165.753906 29.128906 166.925781 29.128906 C 168.089844 29.128906 169.011719 28.683594 169.695313 27.796875 C 170.367188 26.902344 170.703125 25.753906 170.703125 24.347656 Z M 176.046875 17.394531 L 178.949219 17.394531 L 178.949219 23.089844 L 184.332031 17.394531 L 188.09375 17.394531 L 182.378906 23.089844 L 188.378906 31.296875 L 184.644531 31.296875 L 180.34375 25.199219 L 178.949219 26.632813 L 178.949219 31.296875 L 176.046875 31.296875 Z M 194.144531 17.394531 L 196.316406 17.394531 L 196.316406 22.71875 L 194.144531 22.71875 Z M 190.238281 17.394531 L 192.410156 17.394531 L 192.410156 22.71875 L 190.238281 22.71875 Z M 75.980469 39.386719 L 78.886719 39.386719 L 78.886719 45.078125 L 84.269531 39.386719 L 88.027344 39.386719 L 82.3125 45.078125 L 88.316406 53.289063 L 84.578125 53.289063 L 80.28125 47.191406 L 78.886719 48.621094 L 78.886719 53.289063 L 75.980469 53.289063 Z M 89.652344 42.988281 L 92.328125 42.988281 L 92.328125 49.144531 L 96.003906 42.988281 L 98.925781 42.988281 L 98.925781 53.289063 L 96.253906 53.289063 L 96.253906 47.074219 L 92.578125 53.289063 L 89.652344 53.289063 Z M 109.695313 53.289063 L 107.023438 53.289063 L 107.023438 49.222656 C 106.789063 49.273438 106.429688 49.328125 105.9375 49.382813 C 105.433594 49.429688 105.015625 49.457031 104.679688 49.457031 C 103.429688 49.457031 102.472656 49.257813 101.8125 48.855469 C 101.144531 48.457031 100.808594 47.738281 100.808594 46.703125 L 100.808594 42.988281 L 103.480469 42.988281 L 103.480469 46.183594 C 103.480469 46.738281 103.609375 47.085938 103.867188 47.230469 C 104.113281 47.371094 104.609375 47.441406 105.359375 47.441406 C 106.082031 47.441406 106.636719 47.378906 107.023438 47.246094 L 107.023438 42.988281 L 109.695313 42.988281 Z M 114.160156 48.972656 C 114.160156 49.734375 114.378906 50.335938 114.820313 50.777344 C 115.257813 51.214844 115.84375 51.433594 116.585938 51.433594 C 116.972656 51.433594 117.332031 51.324219 117.664063 51.101563 C 118.003906 50.886719 118.222656 50.59375 118.324219 50.230469 L 121.097656 50.230469 C 121.097656 50.953125 120.683594 51.695313 119.855469 52.457031 C 119.019531 53.222656 117.875 53.601563 116.425781 53.601563 C 114.941406 53.601563 113.746094 53.152344 112.839844 52.242188 C 111.925781 51.339844 111.464844 49.933594 111.464844 48.023438 C 111.464844 46.5 111.871094 45.230469 112.691406 44.210938 C 113.503906 43.1875 114.726563 42.675781 116.351563 42.675781 C 118.09375 42.675781 119.347656 43.21875 120.105469 44.300781 C 120.855469 45.390625 121.230469 46.945313 121.230469 48.972656 Z M 118.441406 47.191406 C 118.441406 46.351563 118.234375 45.75 117.820313 45.390625 C 117.398438 45.023438 116.90625 44.84375 116.351563 44.84375 C 115.808594 44.84375 115.324219 45.023438 114.894531 45.390625 C 114.472656 45.765625 114.257813 46.363281 114.257813 47.191406 Z M 125.757813 47.035156 L 128.105469 47.035156 C 128.683594 47.035156 129.09375 46.945313 129.324219 46.765625 C 129.539063 46.585938 129.652344 46.304688 129.652344 45.933594 C 129.652344 45.597656 129.539063 45.339844 129.324219 45.15625 C 129.101563 44.972656 128.722656 44.882813 128.179688 44.882813 L 125.757813 44.882813 Z M 123.085938 42.988281 L 128.703125 42.988281 C 129.789063 42.988281 130.671875 43.1875 131.34375 43.589844 C 132 44.003906 132.328125 44.707031 132.328125 45.695313 C 132.328125 46.269531 132.21875 46.707031 131.996094 47.015625 C 131.777344 47.339844 131.480469 47.589844 131.101563 47.769531 C 132.164063 48.144531 132.695313 48.910156 132.695313 50.074219 C 132.695313 51.042969 132.378906 51.816406 131.746094 52.402344 C 131.101563 52.992188 130.234375 53.289063 129.148438 53.289063 L 123.085938 53.289063 Z M 125.757813 51.394531 L 128.105469 51.394531 C 128.789063 51.394531 129.261719 51.265625 129.519531 51.007813 C 129.777344 50.761719 129.90625 50.464844 129.90625 50.113281 C 129.90625 49.609375 129.777344 49.269531 129.519531 49.089844 C 129.246094 48.90625 128.777344 48.816406 128.105469 48.816406 L 125.757813 48.816406 Z M 139.488281 42.675781 C 141.113281 42.675781 142.398438 43.179688 143.339844 44.1875 C 144.28125 45.191406 144.753906 46.511719 144.753906 48.136719 C 144.753906 49.75 144.28125 51.0625 143.339844 52.070313 C 142.382813 53.09375 141.101563 53.601563 139.488281 53.601563 C 137.871094 53.601563 136.59375 53.09375 135.652344 52.070313 C 134.699219 51.0625 134.21875 49.75 134.21875 48.136719 C 134.21875 46.539063 134.699219 45.230469 135.652344 44.210938 C 136.609375 43.1875 137.886719 42.675781 139.488281 42.675781 Z M 139.488281 51.3125 C 140.378906 51.3125 141.015625 51.019531 141.402344 50.425781 C 141.777344 49.828125 141.964844 49.066406 141.964844 48.136719 C 141.964844 47.210938 141.777344 46.449219 141.402344 45.851563 C 141.015625 45.261719 140.378906 44.964844 139.488281 44.964844 C 138.636719 44.964844 138.011719 45.269531 137.613281 45.871094 C 137.210938 46.492188 137.011719 47.246094 137.011719 48.136719 C 137.011719 49.03125 137.210938 49.777344 137.613281 50.390625 C 138.011719 51.003906 138.636719 51.3125 139.488281 51.3125 "/>
</g>
</svg>
