<svg xmlns="http://www.w3.org/2000/svg" width="1024" height="682.66602" viewBox="0 0 1024 682.66602"><path d="M0 0v682.666h1024V0Z" style="fill:#fff;fill-opacity:1;stroke:none;stroke-width:.520191;stroke-linecap:butt;stroke-linejoin:miter;stroke-dasharray:none"/><path d="M220.391 91.27c67.772 0 122.733 54.961 122.733 122.733 0 18.842-.31 37.714-.31 56.57l-5.498-.23c-6.944-1.652-13.679-4.072-20.357-6.567-10.102-3.774-20.658-8.038-31.404-9.434a43.418 43.418 0 0 0-13.767.372c-5.818 1.084-11.486 3.241-16.977 5.402-7.378 2.904-14.622 5.836-22.17 8.306-4.57 1.495-9.309 2.072-14.104 1.835-11.027-.542-21.554-5.223-31.637-9.34-8.58-3.501-17.928-7.16-27.333-7.098-10.52.07-18.583 3.52-27.927 7.807-9.55 4.38-17.94 8-28.628 8.699l-5.043.07c0-18.797-.31-37.609-.31-56.392 0-67.772 54.96-122.733 122.732-122.733z" style="fill:#e5e5e5;fill-rule:evenodd;stroke-width:2.40829"/><path d="M0 455.338v227.328h1024V455.338Z" style="fill:#008bd0;fill-rule:evenodd;stroke-width:2.40829"/><path d="M97.701 230.806c8.675-4.756 15.687-10.505 23.004-17.19l-1.18 5.172 4.627-5.572-1.812 7.154 5.635-5.282.507 7.815 4.097-8.237 3.914 5.758.027-5.367 13.168 9.898-6.579-7.766 6.074 3.778 2.057-4.894 7.311 6.909-.433-5.025 13.037 7.82-8.023-6.26 5.326 1.732 1.479-2.826 3.622 2.765-.038-3.5c7.368 4.666 14.48 9.873 21.976 13.387v6.264c-7.34-1.745-14.357-5.726-21.668-6.676-7.814-1.014-12.653 2.622-22.72 5.917-10.119 3.312-19.51-6.216-29.824-6.148-9.503.063-14.442 6.26-23.584 6.857v-.026z" style="fill:#000;fill-rule:evenodd" transform="matrix(2.4083 0 0 2.4083 -132.55 -307.092)"/><path d="M131.095 191.342c-.463.295-1.345 1.839-1.642 3.405l-1.364-1.313c-.94 2.027 1.1 6.775 1.86 9.036h2.304c.758-2.26 2.8-7.009 1.86-9.036l-1.365 1.313c-.298-1.566-1.189-3.11-1.653-3.405zM150.043 196.423c-.463.295-1.345 1.838-1.643 3.405l-1.363-1.313c-.94 2.027 1.1 6.775 1.859 9.036h2.304c.759-2.261 2.8-7.009 1.86-9.036l-1.364 1.313c-.298-1.567-1.19-3.11-1.653-3.405zM168.79 200.565c-.463.295-1.345 1.838-1.642 3.405l-1.364-1.313c-.94 2.027 1.1 6.775 1.859 9.036h2.305c.758-2.261 2.799-7.009 1.859-9.036l-1.364 1.313c-.298-1.567-1.19-3.11-1.653-3.405z" style="fill:#e30016;fill-rule:evenodd" transform="matrix(2.4083 0 0 2.4083 -132.55 -307.092)"/><path d="M146.559 176.422c21.886 0 39.647 17.768 39.647 39.648 0 2.064-.158 6.006-.463 7.985-4.313-2.556-9.747-6.29-14.676-11.601l2.227-5.963c.296-.868.457-1.789.403-2.68-.069-1.116-.65-2.228-1.331-3.325l-1.283 1.127c-.426-1.21-1.119-2.14-2.25-2.827-1.076.685-1.808 1.614-2.244 2.824l-1.302-1.167c-.64 1.083-1.211 2.17-1.287 3.256-.167 2.387 1.819 6.445 2.596 8.572-1.558 1.994-3.263 3.95-5.159 5.488-3.402-2.742-5.937-5.518-8.986-9.246l2.173-6.164c.297-.868.458-1.789.403-2.68-.068-1.116-.65-2.228-1.33-3.325l-1.283 1.127c-.426-1.21-1.12-2.14-2.251-2.827-1.075.685-1.808 1.614-2.244 2.824l-1.301-1.167c-.64 1.083-1.212 2.17-1.287 3.256a6.881 6.881 0 0 0 .398 2.782l2.224 6.183c-1.679 2.475-4.179 4.765-6.646 6.741-3.476-4.072-5.663-7.895-7.869-12.052l2.239-6.002c.296-.869.457-1.789.403-2.68-.069-1.116-.65-2.228-1.331-3.325l-1.283 1.127c-.426-1.21-1.12-2.14-2.25-2.827-1.076.685-1.808 1.614-2.244 2.824l-1.302-1.167c-.64 1.083-1.211 2.17-1.287 3.256a6.884 6.884 0 0 0 .398 2.782l1.697 5.807c-7.835 9.58-15.861 16.081-21.038 20.213-.343-1.987-.523-5.028-.523-7.15 0-21.88 17.767-39.647 39.642-39.647z" style="fill:red;fill-rule:evenodd" transform="matrix(2.4083 0 0 2.4083 -132.55 -307.092)"/><path d="m195.214 220.783.023 8.626-6.067-3.648zM134.45 169.229l8.771-1.397-3.77 4.427zM149.838 167.817l8.768 1.41-4.964 3.029zM165.07 171.347l7.875 4.106-5.666 1.307zM178.39 179.489l6.18 6.379-5.79-.546zM188.526 191.518l3.834 8.01-5.317-2.355zM194.272 205.936l1.131 8.809-4.311-3.904zM120.167 175.44l7.887-4.085-2.188 5.388zM108.522 185.875l6.194-6.365-.374 5.804zM100.804 199.357l3.884-7.987 1.465 5.628zM97.712 214.406l1.214-8.798 3.139 4.896zM97.988 228.997l-.091-8.603 5.99 4.754z" style="fill:#008bd0;fill-rule:evenodd" transform="matrix(2.4083 0 0 2.4083 -132.55 -307.092)"/><path d="m127.557 178.962 3.626-8.952 8.242 5.018a41.658 41.658 0 0 0-11.868 3.934zM116.537 187.073l.584-9.718 9.437 2.132a42.127 42.127 0 0 0-10.021 7.586zM108.867 197.93l-2.481-9.484 9.707-.913a42.067 42.067 0 0 0-7.226 10.396zM104.955 210.897l-5.41-8.3 8.986-3.965a41.66 41.66 0 0 0-3.576 12.265zM105.297 224.036l-7.779-6.298 7.406-6.603a42.345 42.345 0 0 0 .373 12.9zM188.232 211.484l7.374 6.672-7.861 6.268a42.152 42.152 0 0 0 .487-12.94zM184.656 198.782l8.987 3.993-5.455 8.321a41.667 41.667 0 0 0-3.532-12.314zM177.173 187.694l9.715.95-2.527 9.51a42.07 42.07 0 0 0-7.188-10.46zM166.466 179.438l9.43-2.171.627 9.748a42.114 42.114 0 0 0-10.057-7.577zM153.54 175.003l8.208-5.06 3.685 8.957a41.664 41.664 0 0 0-11.893-3.897zM140.357 174.879l6.24-7.343 6.25 7.355a42.275 42.275 0 0 0-12.49-.012z" style="fill:red;fill-rule:evenodd" transform="matrix(2.4083 0 0 2.4083 -132.55 -307.092)"/></svg>