<svg width="1200" height="600" version="1.1" viewBox="0 0 1200 600.00002" xmlns="http://www.w3.org/2000/svg">
 <g transform="translate(0,-522.51965)">
  <path d="m 0,522.5197 h 1199.9997 v 600 H 0 Z" fill="#0093dd" style="paint-order:fill markers stroke"/>
  <g transform="matrix(.94915556 0 0 .94915556 441.17006 597.2254)">
   <path d="m160.44 17.801-0.281 1.156 0.031 0.25 0.406 0.094zm-8 7.937c-8e-3 0.021-0.023 0.04-0.031 0.063l-0.313 3.063 1.938 5.156 3 3.5v0.063l0.906-0.969-0.906-3.094-3-3.5zm-7.875 11.75-0.344 2.188 0.188 0.938 0.719-0.125zm-4.374 13.969-0.063 3.844 2.281 5.281 2.719 0.031c0.267-1.891 0-3.526 0-4l-2.719-0.031zm-109.69 1.562-2.5 2.656 2.907 1.563 3.844 2.969 4.156 3.688 4.813 6.469 5.531 5.563 9.813 13.75 1.563 2.906 2.969 0.625 1.979 0.22 6.78 4.094 7.688 2.313 5.563 0.344 6.219-1.063c1.909-0.616 3.727-1.413 5.438-2.406 6.414-3.724 11.562-9.553 14.438-16.156 8.663 8.673 21.434 11.474 32.812 9.125 9.221-1.902 17.87-7.371 22.84-15.72v-4c-13.659 22.063-40.05 22.72-56.35 6.72-11.94 23.021-29.7 26.415-45.43 12.749l-1.969-0.219-2.969-0.625-1.563-2.906-9.813-13.75-5.531-5.563-4.813-6.469-4.156-3.688-3.844-2.969zm24.851 5.218-0.375 2.375 0.5 0.969 0.219-1.438zm102.47 0.344c-0.324 0.172-1.946 1.461-2.219 1.531-0.346 0.09-0.827 2.667-1.625 3.719-0.726 0.957-3.348 4.196-5.531 4.156-1.042-0.02-2.709-0.862-3.5-2.406-0.056 0.233-0.112 0.483-0.188 0.719-1.16 3.607 2.05 5.657 3.689 5.687 2.185 0.041 4.806-3.199 5.531-4.156 0.799-1.052 1.279-3.629 1.625-3.719 0.312-0.08 2.403-1.752 2.281-1.531-0.274 0.498 2.372 1.089 2.25 1.563-0.041 0.162 8e-3 0.338 0.063 0.5 0.314-0.631 0.615-1.26 0.875-1.938 0.307-0.797-1.157-1.702-0.938-2.563 0.122-0.474-2.524-1.064-2.25-1.563 0.016-0.027-0.016-0.024-0.063 0zm-99.625 1.344-0.188 2.406 0.063 0.563 0.406-0.625zm20.69 11.375-0.656 1.625 1.188 1.094 0.531-1.281zm-7.344 9.843-1.094 0.969 1.313 1.25 4.531 2.969 3.188 1.094 1.938-0.281 1.531-1.625-0.656-3.313-0.875 0.938-3.906 0.594z" fill="#ccab6a"/>
   <path d="m167.36 69.462-10.537 8.618-9.535 7.389-20.472-0.307-16.47-9.701-8.46 12.164-10.16 6.462-11.859 2.157-10.311-4.157-6.3-0.85c7.67 5.396 13.21 16.588 12.65 21.138l13.593-7.796 23.96-6.811 31.423-2.673 22.491-1.912 22.483 1.912 31.421 2.673 23.96 6.81 13.59 7.797c-0.566-4.553 4.975-15.74 12.64-21.137l-6.313 0.851-10.318 4.157-11.858-2.157-10.157-6.463-8.463-12.164-16.477 9.701-20.472 0.307-9.557-7.389-10.5-8.621z" fill="#be8c32" stroke="#000" stroke-width="1.08850002"/>
   <path d="m167.36 74.984c-5.12 8.065-13.641 13.347-22.71 15.219-2.418 0.499-4.896 0.763-7.389 0.796 2.783 0.024 5.56-0.238 8.259-0.796 8.57-1.769 16.66-6.586 21.841-13.92 5.183 7.334 13.27 12.15 21.844 13.919 2.699 0.558 5.476 0.82 8.259 0.796-2.491-0.033-4.97-0.297-7.388-0.796-9.071-1.871-17.597-7.153-22.716-15.218zm-55.5 6.47c-5.471 12.094-16.221 19.223-27.51 19.403 11.427 0.18 22.421-6.785 28.117-18.845-0.203-0.185-0.406-0.368-0.605-0.558zm110.97 0c-0.2 0.19-0.4 0.373-0.6 0.559 5.695 12.059 16.689 19.023 28.117 18.845-11.289-0.181-22.039-7.31-27.52-19.403h3e-3z"/>
   <path d="m163.34 14.25-2.5 1.906-0.688 2.781 0.469 4.375-1.375-0.344-1.688-1.563-2.344-0.281c-1.948 1.419-2.231 3.074-2.813 4.688l-0.313 3.063 1.969 5.156 2.969 3.469 0.938 3.125-1.312 1.375-1.844-1.406-1.531-3.594-2.719-2.813-2.906-0.313-2.844 1.969-0.563 3.844 0.906 4.813-3.094 0.469-1.844 4.781-0.063 5.563 2.25 5.281 2.719 0.031c0 0.611 0.438 3.117-0.375 5.656-1.154 3.608 2.083 5.688 3.719 5.719 2.185 0.04 4.774-3.199 5.5-4.156 0.798-1.052 1.279-3.629 1.625-3.719 0.312-0.08 2.403-1.752 2.281-1.531-0.275 0.498 2.402 1.089 2.281 1.563-0.221 0.86 1.244 1.734 0.938 2.531-3.068 7.989-9.988 12.745-18.344 14.469-8.934 1.844-18.583-0.243-25.031-6.844l0.188-0.031c-0.601-0.703-1.192-1.446-1.719-2.25-0.023-0.035-0.017-0.087-0.031-0.125l-12.281 3.125c-0.141 0.824-0.34 1.628-0.563 2.406l0.094-0.031c-2.211 4.686-6.01 9.155-10.531 11.781-0.355 0.207-0.734 0.375-1.094 0.563l-5.688 1.969-5.406 0.188-4.469-1.563-4.5-3-1.344-1.25 1.125-0.938 5.969 2.563 3.906-0.594 1.531-1.625-1.063-5.156-3.656-3.406 1.688-4.219-7.469-10.125-3.188 0.031-1-0.094-1.156-3.969-3.125-2.313-3.563 0.25-2.125 2.656-0.247 3.156 0.469 3.938-0.844 1.281-1.781-1.188-0.875-1.719 0.719-4.469-0.938-5.375-2.219-3.719-4.5-1.781-1.75 0.531-0.812 1.189-0.594 2.406-1.25 0.563-1.375-3.781-3.313-2.469-4.063 1.344-2.781 2.281-4.093 4.343 2.906 1.563 3.844 2.938 4.156 3.719 4.781 6.469 5.563 5.563 9.813 13.75 1.563 2.875 2.969 0.656 1.969 0.188 6.781 4.125 7.688 2.313 5.563 0.344 6.219-1.063c1.909-0.615 3.727-1.443 5.438-2.438 6.414-3.724 11.562-9.521 14.438-16.125 8.663 8.673 21.434 11.474 32.813 9.125 9.219-1.901 17.876-7.4 22.844-15.75 4.97 8.352 13.593 13.848 22.813 15.75 11.379 2.348 24.182-0.452 32.844-9.125 2.876 6.604 8.024 12.401 14.438 16.125 1.711 0.994 3.528 1.822 5.438 2.438l6.188 1.063 5.594-0.344 7.656-2.313 6.781-4.094 2-0.219 2.938-0.656 1.594-2.875 9.781-13.75 5.563-5.563 4.813-6.469 4.156-3.719 3.813-2.938 2.906-1.563-4.094-4.313-2.781-2.313-4.063-1.344-3.313 2.469-1.375 3.781-1.25-0.531-0.594-2.406-0.813-1.219-1.75-0.5-4.469 1.75-2.25 3.719-0.938 5.375 0.719 4.469-0.844 1.719-1.813 1.219-0.844-1.281 0.469-3.938-0.25-3.188-2.125-2.656-3.563-0.25-3.125 2.313-1.156 3.969-1 0.125-3.188-0.063-7.469 10.125 1.688 4.219-3.656 3.406-1.067 5.157 1.531 1.656 3.906 0.563 5.969-2.563 1.125 0.938-1.344 1.25-4.5 3-4.5 1.563-5.375-0.188-5.688-1.938c-0.36-0.188-0.738-0.387-1.094-0.594-4.53-2.626-8.353-7.095-10.563-11.781l0.094 0.031c-0.218-0.761-0.395-1.54-0.531-2.344l-12.406-2.906c-0.501 0.745-1.063 1.435-1.625 2.094l0.188 0.031c-6.448 6.601-16.13 8.688-25.063 6.844-8.355-1.724-15.244-6.479-18.313-14.469-0.307-0.797 1.157-1.671 0.938-2.531-0.121-0.474 2.556-1.064 2.281-1.563-0.122-0.221 1.97 1.451 2.281 1.531 0.346 0.09 0.827 2.667 1.625 3.719 0.726 0.957 3.315 4.197 5.5 4.156 1.636-0.03 4.873-2.11 3.719-5.719-0.813-2.539-0.406-5.045-0.406-5.656l2.719-0.031 2.281-5.281-0.063-5.563-1.844-4.781-3.092-0.468 0.906-4.813-0.563-3.844-2.843-1.968-2.906 0.313-2.719 2.812-1.531 3.594-1.844 1.406-1.313-1.375 0.938-3.125 2.969-3.469 1.969-5.156-0.313-3.063c-0.581-1.613-0.864-3.269-2.813-4.688l-2.344 0.281-1.688 1.563-1.375 0.344 0.469-4.375-0.688-2.781-2.531-1.906-3.969 0.219-3.938-0.219z" fill="#f9e098"/>
   <g fill="#be8c32">
    <path d="m160.43 17.812-0.281 1.156 0.031 0.25 0.406 0.094zm13.843 0-0.156 1.5 0.406-0.094 0.031-0.25zm-21.843 7.938c-8e-3 0.022-0.023 0.04-0.031 0.063l-0.313 3.063 1.938 5.156 3 3.5v0.063l0.906-0.969-0.906-3.094-3-3.5zm29.843 0-1.594 4.281-3 3.5-0.906 3.094 0.906 0.969v-0.063l3-3.5 1.938-5.156-0.313-3.063c-7e-3 -0.022-0.023-0.04-0.031-0.062zm-37.687 11.75-0.344 2.188 0.188 0.938 0.719-0.125zm45.594 0-0.563 3 0.719 0.125 0.188-0.938zm-49.969 13.969-0.063 3.844 2.281 5.281 2.719 0.031c0.267-1.891 0-3.525 0-4l-2.719-0.031zm54.344 0-2.219 5.125-2.719 0.031c0 0.475-0.267 2.109 0 4l2.719-0.031 2.281-5.281zm-164.03 1.562-2.5 2.656 2.906 1.563 3.844 2.969 4.156 3.688 4.813 6.469 5.531 5.563 9.813 13.75 1.563 2.906 2.969 0.625 1.969 0.219 6.781 4.094 7.688 2.313 5.563 0.344 6.219-1.063c1.909-0.615 3.727-1.412 5.438-2.406 6.414-3.724 11.561-9.553 14.438-16.156 8.663 8.673 21.435 11.474 32.813 9.125 9.22-1.902 17.874-7.369 22.844-15.719v-4c-13.66 22.063-40.054 22.719-56.344 6.719-11.95 23.021-29.708 26.416-45.438 12.75l-1.969-0.219-2.969-0.625-1.563-2.906-9.813-13.75-5.531-5.563-4.813-6.469-4.156-3.688-3.844-2.969zm273.72 0-0.406 0.219-3.844 2.969-4.156 3.688-4.813 6.469-5.531 5.563-9.813 13.75-1.563 2.906-2.969 0.625-1.969 0.219c-15.73 13.666-33.498 10.271-45.438-12.75-16.3 16-42.684 15.345-56.344-6.719v4c4.96 8.351 13.624 13.817 22.844 15.719 11.378 2.348 24.149-0.452 32.813-9.125 2.876 6.604 8.023 12.433 14.438 16.156 1.711 0.994 3.528 1.791 5.438 2.406l6.219 1.063 5.563-0.344 7.688-2.313 6.781-4.094 1.969-0.219 2.969-0.625 1.563-2.906 9.813-13.75 5.531-5.563 4.813-6.469 4.154-3.687 3.844-2.969 2.906-1.563zm-248.88 5.219-0.375 2.375 0.5 0.969 0.219-1.438zm224.03 0-0.344 1.906 0.219 1.438 0.5-0.969zm-121.56 0.344c-0.324 0.172-1.946 1.461-2.219 1.531-0.346 0.09-0.827 2.667-1.625 3.719-0.726 0.957-3.348 4.197-5.531 4.156-1.042-0.019-2.709-0.862-3.5-2.406-0.056 0.234-0.112 0.483-0.188 0.719-1.15 3.607 2.048 5.657 3.688 5.688 2.18 0.04 4.801-3.199 5.531-4.156 0.798-1.052 1.279-3.629 1.625-3.719 0.312-0.08 2.403-1.752 2.281-1.531-0.275 0.498 2.371 1.089 2.25 1.563-0.041 0.161 8e-3 0.338 0.063 0.5 0.313-0.631 0.614-1.26 0.875-1.938 0.307-0.797-1.158-1.702-0.938-2.563 0.121-0.474-2.525-1.064-2.25-1.563 0.015-0.028-0.016-0.025-0.062 0zm19.031 0c0.274 0.498-2.372 1.089-2.25 1.563 0.22 0.86-1.244 1.766-0.938 2.563 0.26 0.678 0.562 1.307 0.875 1.938 0.054-0.162 0.104-0.339 0.063-0.5-0.122-0.474 2.524-1.064 2.25-1.563-0.122-0.221 1.97 1.451 2.281 1.531 0.346 0.09 0.827 2.667 1.625 3.719 0.726 0.957 3.347 4.197 5.531 4.156 1.636-0.03 4.842-2.079 3.688-5.688-0.075-0.235-0.132-0.484-0.188-0.719-0.792 1.545-2.459 2.388-3.5 2.406-2.185 0.04-4.806-3.199-5.531-4.156-0.798-1.052-1.279-3.629-1.625-3.719-0.272-0.07-1.895-1.359-2.219-1.531-0.046-0.025-0.078-0.028-0.062 0zm-118.66 1.343-0.188 2.406 0.063 0.563 0.406-0.625zm218.34 0-0.281 2.344 0.406 0.625 0.063-0.563zm-197.69 11.375-0.656 1.625 1.188 1.094 0.531-1.281zm177.03 0-1.063 1.438 0.531 1.281 1.188-1.094zm-184.38 9.844-1.094 0.969 1.313 1.25 4.531 2.969 3.188 1.094 1.938-0.281 1.531-1.625-0.656-3.313-0.875 0.938-3.907 0.593zm191.72 0-5.969 2.594-3.906-0.594-0.875-0.938-0.656 3.313 1.531 1.625 1.938 0.281 3.188-1.094 4.531-2.969 1.313-1.25z"/>
    <path d="m163.38 14.238-2.531 1.906-0.688 2.813 0.281 2.813c2.154-1.062 4.295-2.102 6.906-1.563 2.587-0.534 4.741 0.481 6.875 1.531l0.313-2.781-0.688-2.813-2.531-1.875-3.96 0.218v-0.031l-3.97-0.219zm-127.22 33.125-3.031 2.531v0.031l-2.563 3.125-1.656 2.094 2.188 2.219 1.906 2.031c0.865-5.759 3.442-8.81 10.031-7.75l-1.471-2.407-2.229-1.843-3.19-0.031zm262.41 0-3.188 0.031-2.219 1.844-1.469 2.406c6.589-1.06 9.165 1.991 10.03 7.75l1.906-2.031 2.188-2.219-1.65-2.095-2.56-3.125v-0.031l-3.031-2.531zm-251.78 2.062-1.719 1.625-0.438 2.25-0.438 0.531c5.793-0.252 9.187 4.747 11 9.719 1.055-1.266 0.382-3.714 0.219-5.313l-1.875-4.75-2.063-2.25c-1.43-0.947-2.28-1.837-4.69-1.812zm241.16 0c-2.41-0.024-3.258 0.865-4.688 1.813l-2.063 2.25-1.875 4.75c-0.164 1.599-0.836 4.047 0.219 5.313 1.813-4.972 5.207-9.971 11-9.719l-0.44-0.531-0.439-2.25-1.72-1.625h6e-3zm-227.48 6.218-2.119 2.031-0.594 3.094 0.625 3.781c0.328 1.001-0.02 1.744-0.344 2.5 0.844 0.1 1.149 0.568 1.563 1.875l1.71-3.219 2.149-3.188c0.53-1.074 0.46-2.268-0.28-3.594-0.67-1.223-1.239-2.213-1.84-3.281h-0.875zm212.91 0c-0.599 1.069-1.168 2.06-1.844 3.281-0.737 1.326-0.802 2.52-0.281 3.594l2.16 3.188 1.72 3.219c0.412-1.307 0.719-1.775 1.563-1.875-0.324-0.756-0.672-1.499-0.344-2.5l0.625-3.781-0.594-3.094-2.125-2.031h-0.88zm-228.81 0.938c2.235 2.7 3.433 5.593 3.563 8.813-0.023 1.934 1.305 3.139 2.156 3.188l0.938-1.188c2.401-8.96-0.704-10.107-6.657-10.813zm245.59 0c-5.952 0.706-9.058 1.854-6.656 10.812l0.938 1.188c0.852-0.049 2.18-1.254 2.156-3.188 0.13-3.22 1.327-6.112 3.562-8.812zm-215.93 6.656c-0.656 1.072-0.319 1.802-1.5 2.719-3.133 2.431-5.219 4.673-6.844 8.188 0.722-0.338 1.647-0.456 2.031-1.25l1.656-1.313 2.625-0.469 2.813-1.438 1.719-1.688 0.219-1.375zm186.28 0-2.719 3.375 0.219 1.375 1.719 1.688 2.813 1.438 2.625 0.469 1.656 1.313c0.383 0.794 1.31 0.912 2.031 1.25-1.625-3.516-3.711-5.757-6.844-8.188-1.182-0.918-0.844-1.648-1.5-2.72zm-181.81 5.875c-0.692 4.362-6.075 4.874-10.563 6.125-0.564 0.157-1.048 0.418-1.469 0.75-0.701 0.552-1.685 2.259-2.031 2.906l2.595-0.781 1.688-0.563 1.5 0.25 2.5 0.781 1.96-0.155 1.689-0.781 1.97-1.469c-0.043-0.067-0.124-0.177-0.156-0.219l1.844-1.813-0.219-3.094-1.313-1.938zm177.34 0-1.313 1.938-0.219 3.094 1.844 1.813c-0.031 0.042-0.112 0.151-0.156 0.219l1.97 1.47 1.69 0.781 1.969 0.156 2.5-0.781 1.5-0.25 1.688 0.563 2.6 0.78c-0.35-0.646-1.329-2.354-2.029-2.905-0.431-0.331-0.91-0.594-1.471-0.75-4.489-1.25-9.869-1.763-10.569-6.125zm-189.35 11.969c0.896 1.222 0.787 3.447 3.5 4.125 0.63-7e-3 1.3-0.038 1.438-0.094 0.33-0.135 2.231 1.663 3.5 2.031 1.153 0.334 5.209 1.398 6.938 0.063 0.352-0.272 0.26-0.05 0.531-0.625l-1.281-1.813-3.66-2.844-2.625-0.531-2.032 0.157-2.656 1-3.656-1.469zm201.34 0-3.656 1.469-2.656-1-2.031-0.156-2.625 0.531-3.656 2.844-1.281 1.813c0.271 0.575 0.18 0.353 0.531 0.625 1.729 1.336 5.784 0.271 6.938-0.063 1.269-0.368 3.17-2.166 3.5-2.031 0.138 0.056 0.808 0.087 1.438 0.094 2.711-0.679 2.602-2.905 3.498-4.126z"/>
    <path d="m155.26 21.144c-1.948 1.418-2.23 3.073-2.813 4.688l-0.313 3.031 1.969 5.156 2.969 3.5c-1.512-5.072-1.893-11.12 2.906-14.375l-0.699-0.156-1.69-1.562-2.34-0.281zm24.22 0-2.344 0.281-1.688 1.563-0.688 0.156c4.799 3.255 4.418 9.303 2.905 14.375l2.97-3.5 1.969-5.156-0.313-3.031c-0.581-1.613-0.863-3.27-2.811-4.688zm-18.282 4.844-1 2.406-0.781 2.125-0.125 3.031 0.938 2.5 2.063 2.594 1.469 0.375c0.654-0.548 0.985-2.307-0.188-3.844-1.818-2.661-2.557-5.686-2.376-9.187zm12.344 0c0.182 3.501-0.558 6.526-2.375 9.188-1.173 1.537-0.842 3.297-0.188 3.844l1.469-0.375 2.063-2.594 0.938-2.5-0.13-3.031-0.781-2.125-1-2.406h4e-3zm-25.844 7.875-0.719 0.5 0.531 3.906 1.906 3.063 3.656 1.281 3.438 2.25c-0.449-1.295-0.431-2.292 0.188-2.875l-1.86-1.374-1.53-3.626-2.729-2.78-2.91-0.343zm39.344 0-2.906 0.344-2.719 2.781-1.531 3.625-1.844 1.375c0.618 0.583 0.637 1.58 0.188 2.875l3.438-2.25 3.656-1.281 1.906-3.063 0.531-3.906zm-46.344 14.875-0.031 3.563 1 0.969 2.375 0.344 3-0.375 2.55-1.032 2.125 0.063c0.781 0.409 1.594-0.027 2.375-0.188-3.402-1.85-5.941-1.699-9.906-1.781-1.495-0.03-2.333-1.094-3.5-1.563zm53.344 0c-1.16 0.469-2.03 1.532-3.53 1.562-3.964 0.082-6.473-0.068-9.875 1.781 0.781 0.161 1.594 0.597 2.375 0.188l2.125-0.063 2.563 1.031 3 0.375 2.375-0.344 1-0.969zm-39 6c-0.535-0.015-1.078 0.07-1.625 0.281-4.347 1.675-9.528 3.712-12.688 0.625l0.094 2.313 1.656 2.625 2.719 0.031c0 0.053-6e-3 0.201 0 0.281h2.469l1.813-0.375 1.688-1.063 1.531-2.094 1.063-1.125 1.688-0.563 2-0.313c-0.666-0.31-1.516-0.599-2.408-0.623zm24.656 0c-0.89 0.024-1.74 0.312-2.41 0.625l2 0.313 1.688 0.563 1.063 1.125 1.53 2.094 1.688 1.063 1.813 0.375h2.469c5e-3 -0.08 0-0.229 0-0.281l2.719-0.031 1.656-2.625 0.094-2.313c-3.159 3.088-8.341 1.051-12.689-0.625-0.542-0.214-1.091-0.299-1.621-0.283zm-22.468 3.75-1.813 2.281-2.406 1.188-2 0.406-1.781 1.969-1.594 4.031-0.688 3.156c0.561 0.3 1.117 0.491 1.563 0.5 2.184 0.04 4.773-3.23 5.5-4.188 0.798-1.052 1.279-3.63 1.625-3.719 0.144-0.037 0.678-0.411 1.188-0.781 1.772-2.162 0.414-3.328 0.406-4.843zm20.28 0c-0.01 1.515-1.369 2.681 0.41 4.844 0.51 0.37 1.044 0.744 1.188 0.781 0.346 0.09 0.827 2.667 1.625 3.719 0.727 0.957 3.316 4.229 5.5 4.188 0.445-8e-3 1.002-0.2 1.563-0.5l-0.689-3.155-1.59-4.032-1.78-1.968-2-0.406-2.406-1.188-1.813-2.281z"/>
   </g>
   <path d="m166.03 12.937c-4.25 0.084-8.471 3.515-5.688 8.844 0.21 0.451 0.062 0.694-0.188 0.813-0.249 0.119-0.653 0.1-1.063-0.375-1.688-1.954-3.051-2.135-4.469-1.594-1.419 0.542-2.431 2.086-2.906 4.063-0.715 2.967-0.834 7.307 4.25 12.219 0.567 0.549 1.031 1.172 1.344 2.25 0.173 0.597 0.159 2.765-1.125 2.094-0.5-0.261-0.87-0.681-1.5-2.219-3.272-10.742-15.721-5.027-9.875 4.813-4.424-1.105-5.04 4.897-4.625 8.688 0.241 2.2-0.394 4.742 0.375 6.438 0.812 1.792 2.344 2.807 4.406 2.531-2.307 4.897-1.252 8.979 1.188 10.281 4.554 2.431 7.446-2.019 8.875-5.281 0.561-1.28 1.625-4 3.625-2.938 0.678 0.36 1.269 1.178 1.625 2.281 0.307 0.948 0.056 2.063-0.5 3.063-3.491 6.282-9.832 10.183-17.125 11.688-8.544 1.763-17.731-0.098-24.031-6.156-0.829-0.799-1.462-1.729-1.688-2.719l-1.16 0.279c0.268 1.16 0.984 2.25 2 3.156 6.551 6.391 16.224 8.33 25.094 6.5 7.683-1.585 14.451-5.813 18-12.656 0.615-1.188 0.968-2.302 0.375-3.719-0.443-1.06-1.036-1.91-1.781-2.438-2.336-1.651-4.527 0.91-5.375 3.25-0.911 2.515-3.782 6.843-7.344 4.875-2.591-1.431-1.796-6.101-0.5-9.406 2.468 0.284 5.258-1.271 6.906-3.625 1.964-2.806 2.551-0.961 4.656-2.656-2.082-0.157-4.015-0.142-5.625 1.906-2.59 3.86-4.145 2.927-7.844 3-0.998-0.066-1.888-0.472-2.469-1.719-1.09-2.396-0.535-4.111-0.219-5 2.128 0.688 5.194 0.651 7.188-0.5 2.66-1.537 3.114 0.492 5.188-0.906-1.295-0.339-2.539-0.806-3.781-0.813-0.746-4e-3 -1.502 0.175-2.25 0.625-2.763 1.665-4.453 1.743-6.188 1.219 0.027-0.101 0.018-0.199 0-0.25-0.778-2.272-0.708-8.167 2.5-7.375 4.168 1.841 4.146 3.981 8.031 2.594 1.504-0.537 2.345-0.223 4.844 0.469-1.614-1.505-2.821-2.06-5.313-1.281-1.95 0.56-3.977-0.428-5.375-2.469-1.186-1.729-2.018-4.152-1.625-6.375 0.225-1.271 0.451-2.566 2.281-2.813 0.31-1.538 1.839-1.507 3.156-0.781 1.317 0.727 2.731 1.905 3.781 4.469 0.658 1.609 1.328 2.558 2.031 2.969 1.674 0.979 2.262-1.302 2.094-2.813-0.126-1.138-0.75-2.326-1.75-3.313-2.021-1.991-6.785-10.589-1.094-14.469 1.121-0.428 1.975-0.464 3.563 1.375 0.557 0.645 1.296 0.793 1.844 0.531s0.855-0.961 0.531-1.656c-1.164-2.497-0.77-4.4 0.156-5.688 1.033-1.437 3.791-1.441 5.875-1.188 2.083-0.254 4.81-0.249 5.844 1.188 0.926 1.287 1.352 3.19 0.188 5.688-0.324 0.695-0.048 1.426 0.5 1.688s1.287 0.082 1.844-0.563c1.588-1.839 2.441-1.771 3.563-1.344 5.691 3.88 0.957 12.445-1.063 14.438-1 0.986-1.655 2.175-1.781 3.313-0.168 1.511 0.42 3.792 2.094 2.813 0.703-0.411 1.372-1.36 2.031-2.969 1.05-2.563 2.464-3.742 3.781-4.469 1.317-0.726 2.878-0.756 3.188 0.781 1.83 0.246 2.025 1.573 2.25 2.844 0.393 2.223-0.44 4.614-1.625 6.344-1.398 2.041-3.394 3.028-5.344 2.469-2.492-0.778-3.729-0.224-5.344 1.281 2.499-0.691 3.339-0.975 4.844-0.438 3.885 1.388 3.862-0.784 8.031-2.625 3.208-0.792 3.278 5.134 2.5 7.406-0.018 0.051-0.027 0.118 0 0.219-1.734 0.524-3.426 0.446-6.188-1.219-0.748-0.45-1.505-0.598-2.25-0.594-1.243 7e-3 -2.486 0.474-3.781 0.813 2.073 1.398 2.558-0.631 5.219 0.906 1.993 1.151 5.028 1.188 7.156 0.5 0.315 0.889 0.871 2.572-0.219 4.969-0.581 1.247-1.471 1.652-2.469 1.719-3.699-0.073-5.254 0.86-7.844-3-1.61-2.048-3.512-2.064-5.594-1.906 2.105 1.695 2.661-0.148 4.625 2.656 1.648 2.354 4.438 3.909 6.906 3.625 1.296 3.306 2.091 7.976-0.5 9.406-3.562 1.968-6.433-2.36-7.344-4.875-0.848-2.34-3.008-4.901-5.344-3.25-0.746 0.527-1.369 1.409-1.813 2.469-0.593 1.417-0.241 2.5 0.375 3.688 3.549 6.844 10.348 11.103 18.031 12.688 8.869 1.83 18.511-0.141 25.063-6.531 0.934-0.833 1.62-1.823 1.938-2.875l-1.16-0.282c-0.271 0.884-0.845 1.717-1.594 2.438-6.3 6.059-15.519 7.95-24.063 6.188-7.294-1.505-13.602-5.436-17.094-11.719-0.556-0.999-0.807-2.083-0.5-3.031 0.356-1.104 0.947-1.952 1.625-2.313 1.999-1.063 3.064 1.688 3.625 2.969 1.429 3.263 4.321 7.712 8.875 5.281 2.439-1.302 3.494-5.415 1.188-10.313 2.063 0.275 3.595-0.739 4.406-2.531 0.768-1.695 0.134-4.237 0.375-6.438 0.415-3.79-0.201-9.793-4.625-8.688 5.846-9.841-6.635-15.522-9.906-4.781-0.63 1.538-0.968 1.926-1.469 2.188-1.284 0.671-1.298-1.466-1.125-2.063 0.312-1.078 0.745-1.732 1.313-2.281 5.09-4.912 4.991-9.221 4.281-12.188-0.477-1.977-1.487-3.521-2.906-4.063-1.419-0.541-2.781-0.392-4.469 1.563-0.409 0.475-0.845 0.494-1.094 0.375-0.249-0.118-0.367-0.361-0.156-0.813 2.878-5.514-1.771-9.001-6.156-8.844-0.292 0.011-0.556 0.051-0.844 0.094v-0.03c-0.288-0.043-0.583-0.052-0.875-0.063-0.127-4e-3 -0.278-1e-3 -0.406 0h-0.031zm1.313 3.313c-0.833 5.355-2.273 18.962 0 21.906 2.269-2.953 0.832-16.557 0-21.906zm-6.781 11.125c-3.288 3.593-2.098 10.097 1.781 12.344 0.707 0.41 2.202-0.693 1.219-1.906-5.464-2.511-3.619-7.576-3-10.438zm13.531 0c0.617 2.862 2.464 7.927-3 10.438-0.983 1.213 0.512 2.316 1.219 1.906 3.878-2.248 5.069-8.751 1.781-12.344zm-26.875 8.75c-0.829 2.734 2.057 6.958 5.719 7.375 3.402 0.388 1.71 2.708 4.563 2.813-0.909-2.011-1.432-4.227-4.031-4.469-5.09-0.472-5.547-2.575-6.251-5.719zm40.219 0c-0.71 3.144-1.16 5.247-6.25 5.719-2.6 0.242-3.122 2.489-4.031 4.5 2.853-0.104 1.16-2.456 4.563-2.844 3.66-0.417 6.547-4.641 5.718-7.375zm-149.1 10.437c-4.354 5e-3 -8.463 6.593-12.938 9.875 5.504 0.91 8.857 4.235 12.938 9.031 3.568 4.195 7.162 8.652 11.344 11.375l0.469-0.906c-3.716-2.419-6.6-7.388-10.063-11.781-3.076-3.903-6.754-7.354-11-8.719 2.776-2.537 6.31-7.164 10.313-6.594 1.569 0.224 2.887 1.846 3.344 4.563 0.127 0.757 0.775 1.189 1.375 1.094s1.125-0.653 1.219-1.5c0.266-2.414 0.99-2.842 2.156-3.125 6.888-0.03 7.848 9.715 7.313 12.5-0.265 1.379-0.135 2.741 0.406 3.75 0.718 1.34 2.488 2.881 3.313 1.125 0.346-0.737 0.4-1.895 0.031-3.594-0.589-2.707 0.107-3.623 0.781-4.969 0.673-1.345 1.936-2.248 3.063-1.156 1.646-0.835 2.532 0.144 3.438 1.063 1.583 1.608 2.059 3.185 2.063 5.281 5e-3 2.475-1.077 4.418-3 5.063-2.494 0.771-3.211 1.938-3.688 4.094 1.666-1.986 2.206-2.715 3.75-3.125 3.987-1.059 2.046-2.277 4.438-6.156 2.193-2.472 5.603 2.343 6.25 4.656 0.015 0.052 0.076 0.12 0.156 0.188-1.132 1.415-1.906 1.774-5.125 1.969-0.872 0.053-1.576 0.355-2.188 0.781-1.021 0.71-1.782 1.8-2.656 2.813 2.501-0.022 1.749-1.945 4.813-2.188 2.294-0.181 4.104-1.353 5.469-3.125 0.764 0.553 2.227 1.627 2.688 4.219 0.229 1.356-0.153 1.849-0.938 2.469-3.09 2.036-3.304 3.494-7.625 1.781-2.487-0.774-4.063 0.284-5.688 1.594 2.695 0.203 2.136-1.604 5.344-0.406 2.692 1.006 5.847 0.695 7.719-0.938 3.033 0.704 5.189 5.002 4.469 8.469-2.271 1.663-6.294 0.981-8.344-0.281-1.261-0.775-2.166-1.196-2.938-0.75-1.026 0.594-1.254 1.262-0.25 1.969 3.926 3.543 7.818 5.236 11.563 5.531 8.734 0.579 15.924-5.532 20.719-12.781 0.748-1.291 1.637-3.064 1.5-4.781l-1.094 0.25c-0.068 1.372-0.798 2.881-1.469 4.031-4.2 7.055-10.932 12.28-19.594 12.219-3.505-0.276-7.153-1.844-10.969-5.313 0.626-0.607 1.073-0.021 2 0.469 2.627 1.391 6.961 3.824 9.969 0.188 0.573-3.693 0.354-8.875-4.531-10.031 1.854-0.942 2.565-2.626 2.219-4.563-0.329-1.832-2.327-3.582-3.375-5.531-1.8-3.359-5.699-7.95-8.719-4.531-0.763-11.421-14.269-9.048-10.875 1.656 0.353 1.624 0.295 2.157 0.031 2.656-0.678 1.281-1.898-0.473-2.094-1.063-0.354-1.065 0.062-2.258 0.219-3.031 1.403-6.929-1.136-10.43-3.406-12.469-1.513-1.358-3.243-2.045-4.719-1.688-1.476 0.358-2.874 1.652-3.156 4.219-0.068 0.623-0.415 0.895-0.688 0.938s-0.418-0.915-0.5-1.406c-0.458-3.733-2.73-5.381-5.252-5.378zm258 0c-2.522-2e-3 -4.794 1.677-5.25 5.406-0.083 0.491-0.228 1.418-0.5 1.375-0.28-0.035-0.617-0.284-0.688-0.906-0.282-2.566-1.712-3.86-3.188-4.219-1.476-0.357-3.175 0.329-4.688 1.688-2.271 2.039-4.81 5.541-3.406 12.469 0.156 0.773 0.542 1.935 0.188 3-0.196 0.59-1.416 2.375-2.094 1.094-0.265-0.499-0.322-1.032 0.031-2.656 3.394-10.704-10.112-13.077-10.875-1.656-3.018-3.419-6.912 1.174-8.719 4.531-1.049 1.949-3.016 3.699-3.344 5.531-0.348 1.937 0.332 3.62 2.188 4.563-4.886 1.155-5.104 6.338-4.531 10.031 3.008 3.637 7.341 1.203 9.969-0.188 0.927-0.49 1.374-1.107 2-0.5-3.816 3.469-7.464 5.036-10.969 5.313-8.662 0.062-15.361-5.132-19.563-12.188-0.665-1.142-1.395-2.637-1.469-4l-1.09-0.25c-0.12 1.706 0.757 3.468 1.5 4.75 4.795 7.249 11.983 13.36 20.719 12.781 3.744-0.295 7.636-2.02 11.563-5.563 1.003-0.707 0.776-1.375-0.25-1.969-0.771-0.446-1.677-0.025-2.938 0.75-2.05 1.263-6.073 1.976-8.344 0.313-0.721-3.467 1.436-7.765 4.469-8.469 1.872 1.633 5.026 1.912 7.719 0.906 3.208-1.197 2.648 0.641 5.344 0.438-1.626-1.31-3.2-2.399-5.688-1.625-4.321 1.712-4.536 0.286-7.625-1.75-0.785-0.62-1.166-1.144-0.938-2.5 0.461-2.592 1.924-3.666 2.688-4.219 1.363 1.772 3.174 2.944 5.469 3.125 3.063 0.242 2.312 2.165 4.813 2.188-0.875-1.013-1.637-2.103-2.656-2.813-0.612-0.426-1.316-0.729-2.188-0.781-3.22-0.194-3.993-0.554-5.125-1.969 0.08-0.067 0.142-0.104 0.156-0.156 0.647-2.313 4.057-7.158 6.25-4.688 2.391 3.879 0.45 5.098 4.438 6.156 1.544 0.41 2.083 1.139 3.75 3.125-0.477-2.155-1.193-3.323-3.688-4.094-1.924-0.645-3.005-2.588-3-5.063 4e-3 -2.097 0.479-3.673 2.063-5.281 0.905-0.919 1.79-1.866 3.438-1.031 1.126-1.092 2.42-0.22 3.094 1.125 0.673 1.345 1.339 2.262 0.75 4.969-0.369 1.699-0.314 2.856 0.031 3.594 0.823 1.756 2.594 0.215 3.313-1.125 0.541-1.009 0.671-2.34 0.406-3.719-0.535-2.785 0.424-12.562 7.313-12.531 1.166 0.283 1.891 0.71 2.156 3.125 0.093 0.847 0.618 1.405 1.219 1.5 0.6 0.096 1.248-0.306 1.375-1.063 0.456-2.717 1.774-4.37 3.344-4.594 4.003-0.57 7.536 4.057 10.313 6.594-4.246 1.364-7.924 4.815-11 8.719-3.463 4.395-6.347 9.362-10.063 11.781l0.466 0.908c4.182-2.722 7.775-7.18 11.344-11.375 4.079-4.796 7.433-8.09 12.938-9-4.475-3.283-8.584-9.902-12.938-9.907zm-248.28 4.563c3.61 2.337 5.084 11.559 1.844 16.688-0.123 1.557 1.712 1.613 2.063 0.875 1.919-4.052 0.833-16.468-3.907-17.563zm238.5 0c-4.745 1.096-5.828 13.513-3.906 17.563 0.351 0.738 2.217 0.682 2.094-0.875-3.244-5.13-1.801-14.351 1.812-16.688zm-128.94 6.781c-2.853 0.104-1.16 2.644-4.563 3.031-3.662 0.417-5.755 4.868-5.938 8.813 1.584-1.82 1.411-6.652 6.5-7.125 2.601-0.242 3.092-2.707 4.001-4.719zm19.375 0c0.908 2.012 1.432 4.508 4.031 4.75 5.089 0.473 4.885 5.273 6.469 7.094-0.183-3.944-2.276-8.364-5.938-8.781-3.402-0.388-1.709-2.958-4.562-3.063zm-114.41 0.125c1.202 2.989 1.799 4.07-2.125 7.344-2.004 1.673-1.142 3.828-0.75 6 2.29-1.703-0.427-2.658 2.156-4.906 2.78-2.419 2.951-6.655 0.719-8.438zm209.44 0c-2.233 1.783-2.03 6.019 0.75 8.438 2.583 2.248-0.135 3.204 2.156 4.906 0.392-2.172 1.223-4.296-0.781-5.969-3.924-3.273-3.327-4.386-2.125-7.375zm-104.72 14.875c-4.891 8.138-13.898 14.354-22.938 16.219-11.216 2.314-23.797-0.443-32.313-8.969l-0.594-0.563-0.313 0.719c-8.125 18.026-28.628 25.565-45.813 12.219-1.913 0.509-4.915 0.238-5.656-3.563l-1.25 0.219c0.101 3.221 2.87 5.885 6.781 4.719 16.292 13.319 37.976 6.568 46.594-12.469 8.795 8.403 21.476 11.083 32.781 8.75 9.071-1.871 17.601-7.153 22.719-15.219 5.118 8.068 13.646 13.347 22.719 15.219 11.307 2.333 23.955-0.347 32.75-8.75 8.619 19.037 30.302 25.788 46.594 12.469 3.911 1.166 6.712-1.498 6.813-4.719l-1.25-0.219c-0.741 3.801-3.744 4.072-5.656 3.563-17.185 13.347-37.688 5.839-45.813-12.188l-0.344-0.75-0.563 0.563c-8.516 8.525-21.098 11.283-32.313 8.969-9.04-1.865-18.046-8.078-22.935-16.219zm-93.594 7.5c-0.738 0.026-1.448 0.211-2.094 0.531-3.067 1.522-3.091-1.468-5.5 0.063 1.889 1.143 3.722 2.899 6 1.625 4.46-2.494 7.247 0.758 9.313 2.938-0.979-2.853-4.367-5.104-7.406-5.156-0.107-3e-3 -0.208-5e-3 -0.313-1e-3zm186.88 0.031c-3.039 0.052-6.428 2.304-7.406 5.156 2.064-2.18 4.853-5.464 9.313-2.969 2.278 1.274 4.08-0.482 5.969-1.625-2.409-1.53-2.401 1.46-5.469-0.063-0.738-0.364-1.557-0.512-2.407-0.499z"/>
   <path d="m167.37 44.719c-2.748 0-5 3.617-5 8.063s2.252 8.031 5 8.031c2.747 0 4.969-3.585 4.969-8.031s-2.221-8.063-4.969-8.063zm-114.97 30.531c-0.827 0.014-1.555 0.266-2.156 0.75-2.14 1.724-1.633 5.913 1.156 9.375 2.78 3.462 6.767 4.881 8.906 3.156 2.14-1.724 1.632-5.912-1.156-9.375-2-2.488-4.639-3.939-6.75-3.906zm229.91 0.031c-2.114-0.033-4.746 1.387-6.75 3.875-2.79 3.461-3.327 7.651-1.188 9.375s6.148 0.338 8.938-3.125c2.78-3.463 3.296-7.683 1.156-9.406-0.602-0.485-1.329-0.705-2.156-0.719z" fill="#fff"/>
   <path d="m167.34 47.375c-2.471 0-4.519 2.9-4.906 6.719 0.385 3.825 2.433 6.75 4.906 6.75s4.521-2.926 4.906-6.75c-0.39-3.819-2.436-6.719-4.906-6.719zm-114.94 30.531c-0.827 0.014-1.586 0.234-2.188 0.719-0.591 0.476-0.964 1.152-1.156 1.938 0.302 1.565 1.088 3.285 2.344 4.844 2.788 3.463 6.798 4.849 8.938 3.125 0.598-0.481 0.965-1.139 1.156-1.938-0.302-1.563-1.09-3.256-2.344-4.813-2.005-2.488-4.635-3.908-6.75-3.875zm229.91 0c-2.114-0.033-4.746 1.387-6.75 3.875-1.22 1.516-2.024 3.189-2.344 4.719 4e-3 0.021-5e-3 0.043 0 0.063 0.188 0.813 0.551 1.513 1.156 2 2.14 1.724 6.148 0.307 8.938-3.156 1.254-1.557 2.041-3.248 2.344-4.813-0.19-0.799-0.566-1.486-1.156-1.969-0.602-0.484-1.329-0.705-2.156-0.719z" fill="#f00"/>
   <g stroke="#000">
    <path d="m165.12 121.7c-46.727 0.091-82.641 8.871-81.15 16.895 0.859 4.621 35.591 5.811 83.391 5.811s82.53-1.189 83.39-5.811c1.491-8.023-34.423-16.804-81.149-16.895-0.742-1e-3 -1.487 3e-3 -2.234 6e-3h-0.013c-0.748-3e-3 -1.494-7e-3 -2.235-6e-3z" fill="#be8c32" stroke-width="1.74160004"/>
    <path d="m167.36 93.183-61.431 5.224-26.13 9.798-1.775 4.838c2.162 0.262 7.6 18.249 4.934 21.968 26.875-11.87 55.289-12.022 84.394-13.308 29.103 1.286 57.512 1.438 84.385 13.308-2.659-3.72 2.78-21.71 4.94-21.97l-1.775-4.838-26.124-9.796-61.42-5.229z" fill="#f9e098" stroke-linejoin="round" stroke-width="1.52390003"/>
    <path d="m167.36 89.951c-51.218 0-92.74 9.991-92.74 22.314 0 1.184 1.926 3.275 3.742 2.408 6.946-10.671 42.701-17.756 88.998-17.756 46.298 0 82.051 7.085 88.998 17.756 1.815 0.867 3.741-1.225 3.741-2.408 1e-3 -12.324-41.521-22.314-92.739-22.314z" fill="#f9e098" stroke-width="1.30620003"/>
    <g stroke-width="1.08850002">
     <path d="m167.34 118.3c-47.805 0-85.604 7.33-85.604 17.449 0 1.123 0.979 2.846 2.673 3.574 1.249-7.792 40.432-14.445 82.932-14.445h0.012c42.499 0 81.683 6.653 82.931 14.445 1.695-0.729 2.674-2.451 2.674-3.574 0-10.12-37.799-17.449-85.605-17.449z" fill="#fee79b"/>
     <path d="m151.25 114.66c11.063-0.566 21.859-0.461 32.178 0l-0.435-13.239c-10.509-0.965-21.131-1.056-31.308 0z" fill="#f7d676"/>
     <path d="m167.23 104.46c-3.996-0.01-7.94 0.184-11.837 0.489l-0.191 5.756c8.315-0.307 16.446-0.268 24.315 7e-3l-0.184-5.756c-4.042-0.296-8.087-0.488-12.103-0.496z" fill="#29569f"/>
    </g>
    <g stroke-linecap="round" stroke-linejoin="round">
     <g stroke-width="1.59720004">
      <path d="m131.8 108.82c0.575 3.571-4.747 7.401-11.889 8.556-7.141 1.154-13.396-0.805-13.971-4.375-0.575-3.571 4.747-7.401 11.889-8.556 7.141-1.154 13.396 0.805 13.971 4.375z" fill="#f7d676"/>
      <path d="m118.31 107.44c-3.168 0.513-5.907 1.651-7.56 2.841-1.652 1.19-1.857 2.083-1.829 2.258 0.028 0.176 0.505 0.958 2.448 1.566 1.942 0.607 4.901 0.824 8.069 0.312s5.907-1.651 7.56-2.841c1.651-1.19 1.856-2.083 1.828-2.258-0.028-0.176-0.504-0.958-2.447-1.566s-4.902-0.824-8.069-0.312z" fill="#f00"/>
      <path d="m93.575 117.34c1.309 3.371-3.098 8.226-9.841 10.843-2.916-1.098-4.777-9.958-3.867-12.21 6.745-2.617 12.4-2.005 13.708 1.367z" fill="#f7d676"/>
      <path d="m80.965 118.74c-6.139 3.051-2.515 8.026 1.688 6.644 3.048-1.003 5.434-2.846 6.802-4.353 1.368-1.508 1.384-2.424 1.319-2.59-0.064-0.165-0.693-0.832-2.72-1.022-2.028-0.19-4.212-0.108-7.089 1.321z" fill="#f00"/>
     </g>
     <path d="m138.25 100.54c-1.263 0-2.286 1.023-2.286 2.286s1.023 2.286 2.286 2.286 2.286-1.023 2.286-2.286-1.023-2.286-2.286-2.286zm-39.78 6.908c-0.077 4e-3 -0.16 0.015-0.237 0.027-1.247 0.199-2.092 1.373-1.892 2.619 0.199 1.246 1.373 2.091 2.619 1.892 1.246-0.2 2.091-1.373 1.892-2.619-0.188-1.169-1.225-1.985-2.382-1.919zm40.982 1.912c-1.263 0-2.286 1.023-2.286 2.285 0 1.263 1.023 2.286 2.286 2.286s2.286-1.023 2.286-2.286c0-1.261-1.023-2.285-2.286-2.285zm-38.41 6.6c-0.077 4e-3 -0.153 0.015-0.231 0.027-1.246 0.199-2.091 1.365-1.891 2.612 0.199 1.247 1.372 2.098 2.619 1.898 1.246-0.2 2.091-1.373 1.891-2.619-0.189-1.17-1.229-1.98-2.39-1.91z" fill="#fff" stroke-width="1.08850002"/>
     <g stroke-width="1.59720004">
      <path d="m202.9 108.82c-0.567 3.572 4.762 7.4 11.902 8.551 7.127 1.148 13.368-0.805 13.955-4.366 0.559-3.573-4.779-7.399-11.922-8.545-7.118-1.142-13.348 0.81-13.938 4.365z" fill="#f7d676"/>
      <path d="m216.39 107.44c3.167 0.513 5.907 1.651 7.559 2.841s1.857 2.083 1.829 2.258c-0.028 0.176-0.505 0.958-2.448 1.566-1.942 0.607-4.901 0.824-8.069 0.312s-5.907-1.651-7.559-2.841-1.857-2.083-1.829-2.258c0.028-0.176 0.505-0.958 2.447-1.566 1.943-0.608 4.902-0.824 8.07-0.312z" fill="#f00"/>
      <path d="m241.12 117.34c-1.309 3.371 3.098 8.226 9.841 10.843 2.916-1.098 4.777-9.958 3.867-12.21-6.745-2.617-12.399-2.005-13.708 1.367z" fill="#f7d676"/>
      <path d="m253.74 118.74c6.139 3.051 2.516 8.026-1.688 6.644-3.048-1.003-5.434-2.846-6.802-4.353-1.368-1.508-1.383-2.424-1.319-2.59 0.064-0.165 0.693-0.832 2.721-1.022 2.027-0.19 4.212-0.108 7.088 1.321z" fill="#f00"/>
     </g>
     <path d="m196.45 100.54c1.263 0 2.286 1.023 2.286 2.286s-1.023 2.286-2.286 2.286-2.286-1.023-2.286-2.286 1.024-2.286 2.286-2.286zm39.781 6.908c0.077 4e-3 0.16 0.015 0.237 0.027 1.247 0.199 2.092 1.373 1.892 2.619-0.199 1.246-1.372 2.091-2.619 1.892-1.246-0.2-2.091-1.373-1.891-2.619 0.186-1.169 1.223-1.985 2.381-1.919zm-40.983 1.912c1.263 0 2.286 1.023 2.286 2.285 0 1.263-1.023 2.286-2.286 2.286s-2.286-1.023-2.286-2.286c0-1.261 1.023-2.285 2.286-2.285zm38.411 6.606c0.077 4e-3 0.153 0.015 0.231 0.027 1.246 0.199 2.091 1.366 1.892 2.612-0.2 1.247-1.373 2.098-2.619 1.898-1.247-0.2-2.092-1.373-1.892-2.619 0.188-1.168 1.23-1.985 2.388-1.918z" fill="#fff" stroke-width="1.08850002"/>
    </g>
    <path d="m167.34 117.86c-47.805 0-85.604 7.331-85.604 17.45 0 1.122 0.979 2.846 2.673 3.573 1.249-7.792 40.432-14.444 82.932-14.444h0.012c42.499 0 81.683 6.652 82.931 14.444 1.695-0.728 2.674-2.451 2.674-3.573 0-10.12-37.799-17.45-85.605-17.45z" fill="#f9e098" stroke-width="1.08850002"/>
   </g>
   <path d="m167.35 121.86c-44.246 0-79.903 6.292-84.97 15.25 0.457 0.707 1.134 1.396 2.031 1.781 1.249-7.792 40.438-14.438 82.938-14.438 42.499 0 81.689 6.646 82.938 14.438 0.888-0.381 1.574-1.052 2.031-1.75-5-8.979-40.669-15.28-84.968-15.281z" fill="#be8c32"/>
   <path d="m167.34 117.86c-47.805 0-85.604 7.331-85.604 17.45 0 1.122 0.979 2.846 2.673 3.573 1.249-7.792 40.432-14.444 82.932-14.444h0.012c42.499 0 81.683 6.652 82.931 14.444 1.695-0.728 2.674-2.451 2.674-3.573 0-10.12-37.799-17.45-85.605-17.45z" fill="none" stroke="#000" stroke-width="1.08850002"/>
   <path d="m167.35 93.956c-47.57 0-86.75 8.617-92.091 19.72 0.716 0.869 1.918 1.562 3.094 1 6.95-10.671 42.7-17.75 89-17.75 46.299 0 82.054 7.079 89 17.75 1.192 0.568 2.414-0.145 3.125-1.031-5.38-11.092-44.579-19.69-92.119-19.69z" fill="#be8c32"/>
   <path d="m167.36 89.951c-51.218 0-92.74 9.991-92.74 22.314 0 1.184 1.926 3.275 3.742 2.408 6.946-10.671 42.701-17.756 88.998-17.756 46.298 0 82.051 7.085 88.998 17.756 1.815 0.867 3.741-1.225 3.741-2.408 1e-3 -12.324-41.521-22.314-92.739-22.314z" fill="none" stroke="#000" stroke-width="1.30620003"/>
   <path d="m167.37 44.719c-2.748 0-5 3.617-5 8.063s2.252 8.031 5 8.031c2.747 0 4.969-3.585 4.969-8.031s-2.221-8.063-4.969-8.063zm-114.97 30.531c-0.827 0.014-1.555 0.266-2.156 0.75-2.14 1.724-1.633 5.913 1.156 9.375 2.78 3.462 6.767 4.881 8.906 3.156 2.14-1.724 1.632-5.912-1.156-9.375-2-2.488-4.639-3.939-6.75-3.906zm229.91 0.031c-2.114-0.033-4.746 1.387-6.75 3.875-2.79 3.461-3.327 7.651-1.188 9.375s6.148 0.338 8.938-3.125c2.78-3.463 3.296-7.683 1.156-9.406-0.602-0.485-1.329-0.705-2.156-0.719z" fill="none" stroke="#000" stroke-linecap="round" stroke-linejoin="round" stroke-width="1.08850002"/>
   <path d="m121.76 107.14c-1.086 5e-3 -2.249 0.089-3.438 0.281-3.168 0.513-5.91 1.654-7.563 2.844-1.651 1.189-1.872 2.105-1.844 2.281 0.01 0.054 0.093 0.167 0.219 0.313 6.541-1.596 13.042-2.858 19.5-3.875-0.27-0.327-0.891-0.825-2.25-1.25-1.213-0.38-2.813-0.602-4.624-0.594zm91.22 0c-1.812-8e-3 -3.411 0.214-4.625 0.594-1.359 0.425-1.98 0.923-2.25 1.25 6.457 1.017 12.959 2.279 19.5 3.875 0.126-0.146 0.21-0.259 0.219-0.313 0.028-0.176-0.192-1.092-1.844-2.281s-4.395-2.331-7.563-2.844c-1.188-0.192-2.351-0.276-3.437-0.281zm-126.47 10.188c-1.604 0.011-3.374 0.335-5.531 1.406-2.947 1.465-3.631 3.374-3.094 4.813 4.308-1.944 8.598-3.67 12.845-5.188-0.172-0.233-0.842-0.767-2.656-0.938-0.508-0.046-1.029-0.096-1.564-0.093zm161.72 0c-0.535-3e-3 -1.056 0.047-1.563 0.094-1.815 0.171-2.485 0.704-2.656 0.938 4.246 1.518 8.536 3.243 12.844 5.188 0.537-1.438-0.146-3.348-3.094-4.813-2.156-1.072-3.927-1.396-5.531-1.407z" fill="#fff"/>
   <path d="m121.76 107.14c-1.086 5e-3 -2.249 0.089-3.438 0.281-3.168 0.513-5.91 1.654-7.563 2.844-1.651 1.189-1.872 2.105-1.844 2.281 0.028 0.175 0.526 0.954 2.469 1.563 1.943 0.607 4.896 0.825 8.063 0.313 3.168-0.513 5.911-1.654 7.563-2.844 1.652-1.189 1.841-2.106 1.813-2.281-0.028-0.176-0.494-0.955-2.438-1.563-1.214-0.38-2.814-0.602-4.625-0.594zm91.188 0c-1.812-8e-3 -3.411 0.214-4.625 0.594-1.943 0.607-2.409 1.387-2.438 1.563-0.028 0.175 0.16 1.092 1.813 2.281s4.395 2.331 7.563 2.844 6.119 0.295 8.063-0.313c1.943-0.608 2.44-1.388 2.469-1.563 0.028-0.176-0.191-1.092-1.844-2.281s-4.395-2.331-7.563-2.844c-1.188-0.192-2.351-0.276-3.438-0.281zm-126.44 10.188c-1.604 0.011-3.374 0.335-5.531 1.406-6.139 3.051-2.515 8.039 1.688 6.656 3.049-1.003 5.413-2.867 6.781-4.375 1.368-1.507 1.408-2.396 1.344-2.563-0.064-0.165-0.691-0.841-2.719-1.031-0.507-0.046-1.028-0.096-1.563-0.093zm161.69 0c-0.535-3e-3 -1.024 0.047-1.531 0.094-2.027 0.19-2.686 0.866-2.75 1.031-0.064 0.166-0.024 1.056 1.344 2.563 1.368 1.508 3.733 3.372 6.781 4.375 4.202 1.383 7.826-3.605 1.688-6.656-2.157-1.072-3.927-1.396-5.532-1.407z" fill="none" stroke="#000" stroke-linecap="round" stroke-linejoin="round" stroke-width="1.59720004"/>
   <path d="m167.23 104.46c-3.996-9e-3 -7.947 0.194-11.845 0.5l2.906 2.688 9.063-0.031 9.094 0.031 2.875-2.688c-4.043-0.296-8.078-0.491-12.093-0.5z" fill="#fff"/>
   <path d="m167.23 104.46c-3.996-0.01-7.94 0.184-11.837 0.489l-0.191 5.756c8.315-0.307 16.446-0.268 24.315 7e-3l-0.184-5.756c-4.042-0.296-8.087-0.488-12.103-0.496z" fill="none" stroke="#000" stroke-width="1.08850002"/>
   <path d="m107.2 52.975c-0.563-0.011-1.137 0.03-1.707 0.112-6.085 0.873-10.074 6.855-8.925 13.368 1.148 6.513 7.005 11.08 13.089 10.207 6.085-0.873 10.09-6.856 8.94-13.368-1.041-5.902-5.956-10.213-11.397-10.319z" fill="#fff"/>
   <path d="m96.41 64.362c8e-3 0.687 0.056 1.404 0.18 2.108 1.149 6.512 6.999 11.084 13.084 10.211 4.15-0.596 7.335-3.598 8.573-7.494 1e-3 -0.03 0.014-0.063 0.014-0.094-0.018-0.613-0.104-1.247-0.214-1.874 1.579 2.419-16.11 11.988-21.637-2.857z" fill="#c3c7c8"/>
   <path d="m107.2 52.975c-0.563-0.011-1.137 0.03-1.707 0.112-6.085 0.873-10.074 6.855-8.925 13.368 1.148 6.513 7.005 11.08 13.089 10.207 6.085-0.873 10.09-6.856 8.94-13.368-1.041-5.902-5.956-10.213-11.397-10.319z" fill="none" stroke="#000"/>
   <path d="m227.41 52.975c0.563-0.011 1.137 0.03 1.707 0.112 6.084 0.873 10.073 6.855 8.925 13.368-1.149 6.513-7.005 11.08-13.09 10.207-6.084-0.873-10.089-6.856-8.939-13.368 1.041-5.902 5.957-10.213 11.397-10.319z" fill="#fff"/>
   <path d="m238.2 64.362c-8e-3 0.687-0.056 1.404-0.181 2.108-1.148 6.512-6.998 11.084-13.083 10.211-4.15-0.596-7.335-3.598-8.574-7.494 0-0.03-0.013-0.063-0.013-0.094 0.018-0.613 0.104-1.247 0.214-1.874-1.579 2.419 16.11 11.988 21.637-2.857z" fill="#c3c7c8"/>
   <path d="m227.41 52.975c0.563-0.011 1.137 0.03 1.707 0.112 6.084 0.873 10.073 6.855 8.925 13.368-1.149 6.513-7.005 11.08-13.09 10.207-6.084-0.873-10.089-6.856-8.939-13.368 1.041-5.902 5.957-10.213 11.397-10.319z" fill="none" stroke="#000"/>
   <path d="m43.838 138.02v162.33c0 68.85 55.293 124.67 123.5 124.67s123.5-55.815 123.5-124.67v-162.33z" fill="#f7d676"/>
   <g stroke="#000">
    <path d="m48.338 142.53v157.81c0 66.437 53.254 120.19 119 120.19s119-53.747 119-120.19v-157.81z" fill="#c83232"/>
    <path d="m167.34 348.91c-36.577 0-70.211 7.968-96.875 21.281 21.579 30.482 56.922 50.344 96.875 50.344s75.296-19.861 96.875-50.344c-26.67-13.32-60.29-21.28-96.88-21.28v0z" fill="#1e9646" stroke-linecap="round" stroke-linejoin="round"/>
    <path d="m43.838 138.28v162.33c0 68.851 55.293 124.67 123.5 124.67s123.5-55.815 123.5-124.67v-162.33z" fill="none"/>
   </g>
   <path d="m100.07 289.71 0.528 0.547-0.586 0.128-1.548 0.4-3.002 1.729-3.469 1.386-5.195 3.086c-1.819 2.004-3.679 4.05-5.857 5.653-1.655 1.057-3.633 1.552-4.961 3.095-1.226 1.235-1.692 3.017-1.542 4.721 0.128 2.369 0.848 4.663 0.754 7.054 0.115 3.366-0.422 6.697-0.21 10.063 0.298 1.567 1.49 2.732 2.43 3.921 0.486 0.65 0.567 1.766 1.393 2.098 0.86 0.102 1.609-0.572 2.336-0.952 0.64-0.409 1.563-1.265 0.794-1.983-1.26-1.188-0.877-3.074-1.572-4.539-0.366-0.859-0.979-1.629-1.742-2.168-0.13-3.557-0.613-7.276 0.66-10.669 0.474-1.45 1.708-2.451 2.431-3.748l1.378-1.218 1.959-0.6 4.159-1.806 6.499-2.697c2.42-0.654 4.888-1.129 7.172-2.166 1.308-0.7 2.083-2.049 2.379-3.462 0.484-1.342 0.571-2.982-0.417-4.127-0.941-1.149-1.917-2.333-3.062-3.269-0.55-0.18-1.13-0.3-1.71-0.46z" fill="#f5f5f5"/>
   <path d="m78.647 333.77c-0.157 0.519 0.206 0.991 0.36 1.464 0.91 2.156 2.229 4.204 4.095 5.649 0.367 0.384 0.986 0.234 1.285-0.154 0.418-0.391 0.627-0.964 0.644-1.523 0.293 0.333 0.854 0.505 1.19 0.142 0.317-0.354 0.316-0.884 0.46-1.324 0.157-0.762 0.373-1.528 0.389-2.309-0.09-0.612-0.555-1.078-0.877-1.582-0.874-1.151-1.987-2.124-3.233-2.854-0.396-0.237-0.854-0.019-1.118 0.311-0.774 0.771-1.668 1.478-2.746 1.749-0.209 0.07-0.349 0.23-0.449 0.42z" fill="#876830"/>
   <path d="m99.14 294.72c-1.926 6.486-13.431 10.42-15.373 9.811-1.173-0.368-1.602 1.824-2.841 2.416-0.817 1.492-1.677 2.832-2.724 3.493 0.039 2.846-0.485 2.947 0.146 4.584l1.051-2.848 1.132-0.975 1.108-2.36 0.342-0.134 0.815-0.126c1.672-0.885 5.076-1.597 8.952-3.945l3.985-1.547 1.63-0.052 4.58-1.594 2.101-1.291-1.32-1.101-2.155-2.358-1.42-1.98z" fill="#cdcdcd"/>
   <path d="m86.385 296.69c-1.825 2.396-4.094 4.414-6.642 6.024-1.888 0.657-3.439 1.682-4.669 3.249-0.519 0.661-0.86 1.443-1.071 2.237-0.576 2.172 0.031 4.321 0.451 6.492 0.273 1.415 0.187 2.857 0.198 4.298 0.017 2.197-0.223 4.405-0.32 6.599-0.049 1.08 0.022 2.157 0.366 3.17 0.373 1.101 1.193 1.863 2.041 2.628 0.668 1.099 1.046 2.354 1.46 3.563 1.122 3.28 3.057 5.021 5.714 7.121 0.734-0.581 1.438-1.118 1.277-2.142 0.396 0.404 0.731 0.585 1.035 0.477 0.366-0.13 0.687-0.906 0.851-1.495 0.257-0.927 0.431-1.872 0.604-2.814l0.082-0.614c-1.15-2.349-3.462-4.204-5.43-5.253-0.323-0.175-0.5-0.446-0.615-0.756-0.418-1.117-0.449-2.357-0.805-3.503-0.306-0.984-1.019-1.641-1.767-2.31-0.157-1.705-0.143-3.426-0.184-5.135-0.036-1.49 0.205-2.939 0.533-4.382 0.225-0.989 0.844-1.83 1.447-2.596 0.424-0.537 0.642-1.2 0.942-1.805l13.656-6.085c1.863-0.83 4.058-0.895 5.67-1.302 2.391-0.611 3.994-1.861 4.431-4.364l0.325-1.315 1.306-3.815c-2.101-0.098-3.628-1.518-4.95-3.024-0.412-0.106-1.265-0.194-2.091-0.32-0.025-3e-3 -0.037-0.015-0.062-0.019-0.09-0.015-0.137-0.019-0.226-0.034l0.064 0.121c-4.75 2.91-10.476 3.13-13.625 7.08zm13.408-5.91 0.779-0.143c0.388 0.117 0.772 0.253 1.031 0.375 1.288 1.577 2.948 2.649 3.279 4.342 0.114 0.582-0.251 1.613-0.397 2.236-0.5 2.222-1.777 3.012-3.823 3.568-1.529 0.462-4.078 0.938-4.877 1.236-4.62 1.731-9.136 4.611-13.785 5.851-0.378 0.166-0.337-0.126-0.675-4e-3 -0.019 1.075-0.633 1.594-1.333 2.327-1.008 1.056-1.489 2.368-1.859 3.751-0.366 1.369-0.45 2.786-0.479 4.196-0.042 2.166 0.133 3.978 0.25 5.928 0.886 0.446 1.452 1.108 1.797 1.982 0.414 1.049 0.452 2.22 0.697 3.303 0.16 0.711 0.669 1.076 1.15 1.555-0.668 0.896-1.629 1.261-2.641 1.634-0.225-0.774-0.607-1.459-0.967-2.172-0.833-0.729-1.51-1.522-1.977-2.507-0.392-0.828-0.318-1.75-0.288-2.643 0.075-2.197 0.242-4.379 0.28-6.577 0.026-1.475 0.16-2.939-0.139-4.381-0.404-1.943-0.816-3.782-0.611-5.732 0.075-0.718 0.351-1.339 0.714-1.94 0.248-0.411 0.568-0.792 0.902-1.109 1.003-0.952 2.328-1.498 3.65-1.973 2.021-1.296 3.904-2.802 5.42-4.64 3.634-4.42 9.065-5.58 13.904-8.48zm-20.101 14.82c-0.476 0.399-0.767 0.892-1.035 1.44-0.305 0.623-0.572 1.146-0.968 1.663-0.365 0.477-0.797 0.876-1.118 1.382-0.162 0.254-0.165 0.508-0.262 0.763 2.087-0.11 3.975-3.8 3.383-5.24zm2.856 26.28c1.663 0.979 2.895 2.172 3.834 3.835-0.108 1.066-0.383 2.111-0.634 3.141-1.597-1.205-2.674-2.897-3.716-4.573 0.091 2.024 0.959 3.502 2.299 4.925-0.072 0.83-0.403 0.98-0.634 1.224-2.196-1.61-3.482-3.88-4.425-6.366 1.364-0.39 2.352-1.16 3.276-2.19z"/>
   <path d="m188.29 309.57c-1.078 5.301 0.031 10.332 0.805 15.351 0.605 3.923 0.731 8.205-0.7 11.777-1.563 3.797-5.223 6.207-8.523 8.165-1.446 0.858-2.612 1.712-3.298 3.083-0.549 1.098-0.417 2.743-1.014 4.07-0.023 0.036-0.052 0.069-0.083 0.1-0.556 0.723-1.174 1.155-1.737 1.571-0.563 0.417-1.028 0.818-1.437 1.362l0.256 0.298c0.14-3e-3 0.279 0.053 0.379 0.15 1.396 1.167 2.98 1.216 4.847 0.991l0.649-0.424c-0.212-1.366 0.196-2.582 0.947-3.79 0.226-0.315 0.811-0.223 0.928 0.146 0.15 0.651 0.467 1.225 0.776 1.533 0.154 0.154 0.333 0.247 0.437 0.282s0.138 6e-3 0.182-0.017c0.746-0.361 1.226-1.362 1.596-2.657 0.371-1.296 0.623-2.798 1.303-3.914 2.351-3.858 5.778-6.835 8.925-9.849 1.496-1.433 3.397-1.949 4.86-2.487 0.55-0.203 0.737-0.397 0.86-0.625 0.123-0.229 0.198-0.575 0.229-1.027 0.094-1.35-0.314-2.718-0.6-4.203-0.851-4.43-0.369-9.104 0.757-12.697-2e-3 -0.015-4e-3 -0.03-5e-3 -0.046 1.36-4.19 4.679-7.1 7.094-10.373l3.389-6.566c-9.27-10.64-20.34-2.34-21.85 9.81z" fill="#f5f5f5"/>
   <path d="m204.91 298.18c-2.751 1.053-5.504 1.537-8.433 1.845-2.023 0.206-3.951 3.068-5.872 3.616-0.869 0.544-1.205 4.802-1.937 5.542-0.734 1.739-0.586 3.539-0.558 5.604-0.24-2.795 5.788 8.092 10.448 9.151 0.197-4.161 0.971-8.546 3.62-11.913 1.484-2.169 3.46-4.011 4.697-6.336 0.294-0.821 2.947-6.474 1.966-6.243-1.31-0.98-2.62-1.84-3.94-1.26z" fill="#cdcdcd"/>
   <path d="m172.64 355.24c-0.118 1e-3 -0.233 0.052-0.355 0.123-0.661 0.618-0.959 1.562-1.348 2.36-0.47 1.387-0.848 2.806-1.043 4.257-0.029 0.717 0.783 0.886 1.355 0.842 0.351 0.022 0.724-0.194 0.713 0.303 0.207 0.86 1.135 1.428 1.975 1.107 2.391-0.676 4.254-2.668 5.147-4.938 0.265-0.543 0.26-1.155-0.145-1.635-0.326-0.506-0.421-1.278-1.164-1.271-1.411-0.039-2.916 0.129-4.138-0.733-0.29-0.18-0.63-0.43-0.98-0.42z" fill="#876830"/>
   <path d="m200.3 298.81c-1.674 0.543-3.498 0.892-5.157 0.684-1.425 0.944-3.241 0.451-4.747 2.111-1.838 3.108-1.929 4.806-2.564 7.869-1.124 5.427 5e-3 10.539 0.776 15.536 0.598 3.879 0.737 8.073-0.634 11.497-1.482 3.6-5.034 5.972-8.317 7.919-1.467 0.87-2.754 1.774-3.509 3.284-0.643 1.285-0.511 2.952-1.014 4.07-1.012 1.314-2.296 1.706-3.219 2.938-1.868 2.495-2.454 6.001-2.854 8.627l2.438 0.151c0.19 1.493 1.308 1.78 2.373 1.483 1.389-0.387 2.474-1.07 3.53-2.005 1.369-1.266 2.151-2.842 2.612-4.623-0.328-0.411-0.524-0.896-0.76-1.352-0.669-1.689-0.296-2.984 0.615-4.448 0.342 1.482 1.395 2.496 2.111 2.148 1.989-0.966 1.914-4.812 3.109-6.773 2.295-3.767 5.684-6.725 8.842-9.749 1.379-1.32 3.193-1.831 4.687-2.382 1.254-0.461 1.354-1.17 1.417-2.093 0.104-1.475-0.333-2.891-0.611-4.339-0.83-4.323-0.343-8.965 0.776-12.471 1.284-4.023 4.533-6.91 7.015-10.229 1.549-2.07 3.572-4.399 3.272-6.854-0.265-1.81-1.657-2.905-3.942-1.782-1.034-1.76-4.305-3.183-2.24-0.489-0.673 0.344-1.43 0.67-2.086 0.733l-1.94 0.52zm5.06-0.26c2.401-1.626 4.063 3.201 1.063 6.862-2.867 3.499-6.085 6.495-7.442 11.091-1.393 4.716-1.453 8.825-0.799 13.25 0.319 2.157 1.569 4.204-0.521 4.988-1.873 0.703-3.147 1.152-4.592 2.419-3.45 3.025-6.806 6.247-9.169 10.19-1.101 1.835-1.254 5.189-2.19 5.776-0.614 0.385-0.968-1.507-1.311-2.401-0.102-0.268-0.438-0.24-0.564-0.179-0.934 0.445-1.371 1.686-1.827 2.632-0.448 0.865-0.405 1.757-0.403 2.69-1.638 0.408-2.893 0.015-4.154-0.915 1.079-0.8 2.217-1.488 2.876-2.68 0.695-1.257 0.459-2.81 1.056-4.12 0.646-1.421 2.103-2.099 3.408-2.863 1.727-1.012 3.332-2.198 4.813-3.537 1.727-1.56 2.725-2.835 3.563-4.753 1.523-3.938 1.385-8.021 0.787-11.83-0.828-5.274-1.694-10.786-0.788-15.674 1.233-6.647 4.272-7.302 6.375-8.662 3.4-0.04 6.65-1.07 9.8-2.3zm-9.14 28.13c-0.651 0.684-0.74 1.31-0.773 2.127-0.026 0.657 0.134 1.303 0.173 1.953 0.041 0.704-0.302 1.147-0.674 1.706-0.523 0.788-1.277 1.398-1.92 2.092-0.396 0.427-0.743 0.877-0.925 1.454 0.625-0.115 1.146-0.482 1.666-0.833 0.803-0.541 1.404-1.277 2.068-1.967 0.514-0.533 0.824-1.056 0.904-1.682 0.2-1.61-0.4-3.3-0.52-4.85zm-23.56 29.21c1.538 1.288 3.307 1.373 5.226 1.141 0.13 0.524 0.463 0.978 0.723 1.447-0.42 1.63-1.242 2.684-2.412 3.782-1.002 0.94-2.86 1.655-3.23 1.246-1.205-1.336 0.146-4.451 0.717-5.876-1.326 1.219-1.84 2.827-2.117 4.534l-0.965-0.052c0.35-2.19 0.84-4.35 2.06-6.22z"/>
   <path d="m115.15 203.44c-0.616-0.054-1.145 0.32-1.734 0.382-1.316-0.254-2.861 0.061-3.712 1.18-0.572 0.286-0.127 1.013-0.139 1.145-0.712 0.237-1.365 0.631-1.908 1.145 0.434-0.487-0.104-1.193-0.693-0.971-1.132 0.028-2.193 0.723-2.741 1.699-0.68 0.651-1.985 0.845-2.047 1.978-0.053 0.473 0.269 0.904 0.347 1.318-0.336 0.539-0.158 1.641 0.659 1.491 0.716-0.368 1.068-1.242 1.874-1.491 0.431-0.166 0.067 0.098-0.139 0.242-0.945 0.674-1.693 1.741-1.943 2.88h-0.139c6e-3 -0.244 4e-3 -0.492 0.035-0.729-0.625-1.473-2.343 9e-3 -3.227 0.382-1.357 0.984-3.658 0.863-4.406 2.566-0.131 0.918 0.283 1.962-0.589 2.637-3.754 4.939-10.197 6.544-14.604 10.72-0.991 0.72-0.788 2.793 0.693 2.567 1.025-0.121 2.172-0.434 3.122-0.382-1.187 0.604-2.335 1.243-3.607 1.561-0.724 0.972-0.379 2.92 0.832 3.33 1.14 1.384 0.817-0.108 1.354 0.521 1.523 2.191 4.393 3.132 6.903 2.255 1.242-0.14 2.94-1.263 3.989-0.381-1.577 1.71-4.291 2.466-5.1 4.787 0.266 1.41 2.115 0.593 2.914 0.139 2.189-1.409 4.167-3.66 6.973-3.504 2.541-0.123 5.173-0.426 7.701-0.104-0.692 0.227-0.651 1.356-0.139 2.22 1.056 3.981-1.469 7.832-3.989 10.685-0.333 0.476-0.535 0.955-0.763 1.423h-1.318v0.034c-8e-3 0.162-0.109 0.324-0.243 0.416l-0.313 0.243h-0.034l-0.277 0.277c-1.213 1.149-1.833 2.527-1.978 4.197 4e-3 0.113-6e-3 0.22-0.069 0.313-1.796 1.98-2.218 4.193-1.145 6.592 0.086 0.172 0.044 0.364-0.069 0.52-1.542 2.246-1.386 4.987-0.035 6.904 0.114 0.155 0.122 0.383 0.035 0.555-1.008 2.158-0.169 4.356 1.248 5.516 0.203 0.153 0.268 0.439 0.139 0.659-0.867 1.506-0.844 2.838-0.139 4.44l0.278 1.214 0.901 1.735c0.059 0.11 0.064 0.26 0.035 0.381-0.356 1.377-0.248 2.531 0.208 3.851 0.017 0.075 0.017 0.169 0 0.243-0.296 2.599 0.37 4.577 2.081 6.521l0.625 1.318c0.288 1.208 0.835 2.012 1.561 2.567s1.68 0.909 2.88 1.145c0.189 0.034 0.36 0.163 0.416 0.348 0.72 3.166 3.113 5.019 6.313 5.377 0.14 9e-3 0.291 0.067 0.382 0.173 1.116 1.576 2.476 2.264 4.371 2.429 0.274 0.012 0.531 0.28 0.521 0.555-0.269 4.754 0.048 9.427 0.971 14.085 0.029 0.122 0.022 0.236-0.034 0.348-0.664 1.15-0.889 2.316-0.867 3.642 0.015 0.871 0.227 1.758 0.451 2.706 0.307 1.299 0.547 2.617 0.658 3.955 0.134 1.594 0.103 3.196 0 4.752-0.149 2.27-0.785 4.42-1.145 6.557-0.379 2.259-0.823 4.407-2.463 6.105-1.317 1.364-2.361 2.404-2.948 3.886l0.624 0.382c0.638 0.098 1.301-0.079 2.047-0.243 0.642-0.13 1.283-0.514 2.012-0.867l0.937-0.416c0.146-0.587 0.472-1.18 0.833-1.665 0.181-0.243 0.372-0.484 0.659-0.625 0.144-0.07 0.312-0.114 0.521-0.069s0.416 0.193 0.521 0.347c0.386 0.573 0.73 1.09 1.075 1.423 0.172 0.166 0.345 0.264 0.451 0.312 0.105 0.049 0.117 0.077 0.139 0.07 0.015-5e-3 0.128-0.07 0.208-0.278s0.145-0.506 0.174-0.867c0.058-0.722 0.02-1.61-0.035-2.15-0.252-2.481-0.846-4.957-0.693-7.598 0.102-1.769 0.551-3.487 0.937-5.134 0.371-1.584 1.339-2.665 2.012-3.851 0.689-1.217 1.048-2.736 1.249-3.99 0.235-1.469-0.061-3.014-0.139-4.648-0.086-1.774 0.633-3.342 1.075-4.822 1.149-3.844 2.074-7.825 3.92-11.517 0.031-0.07 0.081-0.158 0.139-0.208 0.087-0.08 0.194-0.131 0.313-0.139 2.171-0.011 4.241 0.131 6.14-0.417 1.205-0.347 2.295-0.178 3.192 0.277 0.797 0.405 1.43 1.05 2.047 1.666 0.198-0.039 0.369-0.081 0.52-0.209 0.2-0.169 0.399-0.463 0.694-0.798 0.166-0.188 0.484-0.242 0.693-0.104 0.769 0.452 1.054 1.096 1.284 1.734 2.86 0.232 5.28-0.443 7.563-2.186 0.087-0.08 0.194-0.131 0.312-0.139 2.674 0.07 4.981 1.151 7.077 2.602 0.867-0.212 1.148-0.587 1.596-1.422 0.102-0.192 0.306-0.312 0.521-0.277 2.262 0.476 4.39-0.154 6.521-1.18 0.111-0.059 0.26-0.063 0.382-0.035 0.876 0.255 1.307 0.794 1.7 1.354 3.43 0.121 6.317-0.984 9.089-2.74 0.098-0.048 0.239-0.054 0.347-0.035 3.743 0.784 8.443-0.229 11.344-2.081 3.241 0.183 6.491-0.381 9.957-1.318 0.22-0.262 1.469 2.404 1.63 2.706 0.562 1.02 1.432 1.836 2.429 2.324 0.097 0.05 0.193 0.146 0.243 0.242 1.889 4.012 6.066 6.473 9.99 7.251 0.082 0.012 0.141 0.057 0.208 0.104 3.381 2.855 6.986 5.574 10.824 7.736 1.821 1.026 3.66 1.964 5.55 2.88 0.092 0.037 0.187 0.093 0.243 0.173 0.671 1.064 1.479 1.998 2.394 2.914 1.402 1.328 3.179 2.535 4.128 4.476 0.965 1.97 0.804 4.262 1.007 6.209 0.151 1.462 0.22 2.951 0.242 4.44 4e-3 0.371 0.025 0.738 0.035 1.11 2e-3 0.069-2e-3 0.139 0 0.208-0.034 1.782-0.202 3.549-0.556 5.204-0.02 0.146-0.12 0.299-0.242 0.381-1.065 0.647-1.628 1.66-2.151 2.88l0.729 0.59c0.976 0.314 1.808 0.392 2.637 0.312 0.022 0 0.047 1e-3 0.069 0 0.254-8e-3 0.48-0.071 0.729-0.104 0.384-0.051 0.772-0.089 1.11-0.174 0.088-0.073 0.119-0.161 0.173-0.242 0.06-0.091 0.113-0.18 0.139-0.278l0.243-0.416c-0.173-0.476-0.32-0.99-0.382-1.526-0.03-0.344 0.331-0.66 0.659-0.555 0.633 0.246 1.27 0.54 1.804 0.693 0.48 0.138 0.864 0.156 1.249 0.035-0.029-0.136-0.102-0.332-0.208-0.521-0.055-0.081-0.1-0.181-0.104-0.277 0.044-2.004-0.186-4.053-0.59-6.036-0.719-3.52-1.748-7.013-2.532-10.581-0.507-2.947-0.985-5.934-0.867-8.984 4e-3 -0.063 9e-3 -0.116 0.034-0.174 0.358-0.872 0.454-1.814 0.416-2.775-0.024-0.617-0.275-1.059-0.729-1.457-0.452-0.398-1.063-0.7-1.596-0.867-3.364-1.053-5.676-3.693-6.903-6.557-0.104-0.21-0.042-0.51 0.139-0.659 1.313-1.145 1.82-2.262 1.804-3.954 0.012-0.082 0.022-0.176 0.069-0.243l2.255-4.128c0.212-0.351 0.831-0.257 0.937 0.139 0.334 1.986 0.751 4.582 1.562 6.799 0.811 2.218 1.985 3.979 3.92 4.579 0.107 0.03 0.209 0.121 0.277 0.208 0.839 1.156 1.828 1.804 2.88 2.082 1.051 0.278 2.21 0.179 3.503-0.313 0.09-0.024 0.188-0.024 0.278 0 1.768 0.251 2.858-0.901 3.087-2.255-6e-3 -0.045-6e-3 -0.059 0-0.104 1.514-3.373 1.175-6.85 0-10.13-0.025-0.058-0.03-0.11-0.034-0.174 0.036-1.456-0.802-2.625-1.805-3.851-0.079-0.087-0.131-0.194-0.139-0.313-0.016-2.07-0.841-3.891-1.977-5.688-0.098-0.146-0.14-0.36-0.069-0.521 0.607-1.341 0.655-2.718 0.52-4.268-0.017-0.074-0.017-0.168 0-0.242 1.178-3.132 1.18-6.279 0.174-9.437-0.023-0.089-0.023-0.188 0-0.277 0.564-3.771 0.126-6.719-0.902-10.095v-0.069c-0.228-1.351-0.738-2.654-1.283-3.955-0.986-2.496-2.693-4.435-5.064-5.62-0.07-0.031-0.124-0.08-0.174-0.139-1.285-1.726-2.954-2.394-5.03-2.394-0.081-0.012-0.141-0.057-0.208-0.104-1.7-0.824-2.986-0.897-4.579 0-0.183 0.105-0.426 0.097-0.59-0.035-6.245-5.253-14.613-6.903-22.688-6.903-0.063-4e-3 -0.115-9e-3 -0.173-0.034-1.933-0.669-3.988-0.597-5.724 0.173-0.09 0.024-0.188 0.024-0.278 0-2.182-0.251-4.137 0.101-5.967 1.18-0.123 0.069-0.28 0.11-0.416 0.069-2.382-0.643-4.846-0.245-7.25 0.486-0.089 0.023-0.154 0.023-0.243 0-3.276-0.785-6.595-0.654-9.956-0.174-0.089 0.024-0.188 0.024-0.277 0-2.406-0.867-4.66-1.042-6.834-0.313-0.104 0.033-0.209 0.033-0.313 0-2.083-0.529-3.961-0.415-5.551 0.625-0.152 0.083-0.367 0.083-0.52 0-2.389-1.274-4.395-1.136-6.141 0-0.153 0.083-0.367 0.083-0.521 0-2.635-1.338-4.519-0.875-6.279 0.45-0.188 0.162-0.505 0.162-0.693 0-1.674-1.482-3.904-1.634-6.071-1.873-0.045 6e-3 -0.059 6e-3 -0.104 0-0.503-0.171-0.955-0.399-1.388-0.659-0.02-0.016-0.05-0.019-0.069-0.034-0.164-0.101-0.294-0.241-0.451-0.347-0.174-0.118-0.337-0.218-0.521-0.313-0.126-0.091-0.259-0.188-0.382-0.277h-0.034c-0.36-0.317-0.698-0.62-1.041-0.937h-0.381c-0.08-0.143-0.164-0.276-0.313-0.313-0.528-0.253 1.087-0.036 0.763-0.833-0.339-0.864-1.072-2.194-2.047-2.15-0.604 0.674-0.782-0.865-1.457-1.041-0.038-0.038-0.021-0.054-0.034-0.069 0.172 0.082 0.876 0.515 1.075 0.069 0.72-1.593-0.538-3.33-0.867-4.892-0.4-0.767 0.354-2.389-0.971-2.358-0.369 0.071-1.292 1.222-0.729 0.277 0.767-1.238 0.777-3.08 0-4.163 0.984 0.748 1.541-0.635 1.248-1.422-0.336-1.459-1.174-2.753-1.075-4.302-0.264-1.072-0.637-2.665-1.699-2.983-0.732 1.24-0.412 0.369-0.972-0.521-0.51-0.265 1.93 0.045 0.798-1.699-0.435-2.352-2.584-4.145-4.995-4.094-2.535-0.171-5.449-0.425-7.354-2.082 2.105 0.739 4.434 1.636 6.66 1.041 0.254-0.513-0.215-0.968-0.521-1.18 0.106 0.052 0.177 0.079 0.486 0.209 1.859 0.721 4.1 1.644 6.07 0.763 0.528-0.718-0.508-1.301 0.833-0.833 1.105 0.104 3.02 0.345 3.435-0.971-0.141-0.945-1.321-0.759-1.978-1.11 1.45 0.26 3.635 0.625 4.51-0.867-0.153-1.153-1.763-0.698-2.532-1.249-4.119-1.379-7.029-5.536-11.588-5.585-1.51-0.027-2.076 1.657-3.399 2.15-1.396 1.127-3.299 1.512-4.961 0.659-0.307-0.122-0.596-0.273-0.901-0.416v-0.313c0.854 0.403 1.674 0.855 2.602 1.007 1.187 0.142 2.131-0.668 3.019-1.318 0.754-0.419 1.815-0.754 1.907-1.77 0.324-2.833-1.518-5.712-4.162-6.73-0.463-0.154-0.875 0.384-0.659 0.798-0.232-0.224-0.503-0.434-0.764-0.624 0.551-0.507-0.07-1.098-0.485-1.422-0.967-0.896-2.507-0.918-3.643-0.382-0.421 0.271-0.263 0.888 0.139 1.11-0.58-0.339-1.224-0.598-1.908-0.59 0.548-0.332 0.24-1.11-0.312-1.249-0.47-0.24-0.91-0.31-1.35-0.3zm-13.25 1.7c-1.812 0.132-3.595 0.53-5.412 0.59-0.586-0.045-0.842 0.681-0.485 1.109 0.713 1.874 2.604 2.945 4.475 3.365 0.535 0.228 1.205-0.076 1.249-0.693 0.25-0.845 1.084-1.246 1.839-1.526 0.439-0.327 0.915-0.835 0.937-1.388-0.4-0.98-1.59-1.5-2.61-1.45z" fill="#f5f5f5"/>
   <path d="m104.31 240.81c1.397 0.066 3.229-0.469 4.084 1.223 0.066 3.684 0.145 6.235 1.044 8.783-2.98 2.854-2.09 5.911-2.27 8.912-5.346-2.573-8.914-6.1-10.535 1.59l0.376-1.217 2.088-4.577 4.94-4.885 1.914-4.511-0.926-4.583-0.7-0.72z" fill="#cdcdcd"/>
   <path d="m136.18 222.83c8e-3 0.705-0.609 1.281-1.377 1.288-0.769 7e-3 -1.396-0.56-1.403-1.265v-0.023c-7e-3 -0.705 0.609-1.281 1.378-1.288 0.768-6e-3 1.396 0.561 1.402 1.265v0.01z" fill="#fff"/>
   <path d="m116.71 358.79c-0.729 0.218-1.363 0.659-2.097 0.866-0.193 0.074-0.329 0.175-0.456 0.319-0.148-0.109-0.306-0.165-0.502-0.137-0.562 0.132-1.264-0.147-1.732 0.273-1.265 1.177-2.451 2.572-2.872 4.285-0.132 0.709 0.684 1.136 1.322 1.14 0.43 0.015 0.932 0.047 1.186-0.364-0.023 0.094-0.071 0.178-0.091 0.273-0.096 0.492 0.38 0.945 0.866 0.957 0.98 0.059 1.996 0.014 2.917-0.364 1.401-0.512 2.491-1.547 3.465-2.645 0.344-0.408 0.267-1.013-0.046-1.413-0.509-0.831-0.947-1.718-1.094-2.689-0.12-0.36-0.5-0.58-0.87-0.51zm126.51 0.55c-1.405 0.491-2.992 0.652-4.422 0.182-0.527-0.21-0.996 0.186-1.14 0.684-0.728 1.556-1.806 2.931-2.644 4.422-0.275 0.588 0.253 1.099 0.774 1.277 0.367 0.151 0.808 0.288 1.186 0.182-0.095 0.599 0.51 1.001 1.049 0.958 1.217 0.077 2.523-0.01 3.601-0.639 1.443-0.756 2.536-2.142 3.009-3.692 0.275-1.052-0.133-2.143-0.638-3.055-0.16-0.28-0.48-0.38-0.78-0.32z" fill="#876830"/>
   <path d="m142.04 292.92-0.415 4.921-1.456 4.088-2.113 4.16-2.183 1.73-2.911 2.218c-1.646 0.875-1.672 2.021-2.049 3.107 2.487 0.173 4.987 0.23 7.586-0.592 1.255-0.348 2.51 0.427 3.765 2.096l1.915-1.094c0.599 0.188 0.882 1.086 1.276 1.732 2.819-0.108 5.539-0.565 7.887-2.325 2.654 0.094 5.079 1.106 7.418 2.463l1.524-2.163c1.052 2.149 5.2-0.597 7.954-0.769l0.882 1.518c3.354-0.082 6.57-1.345 9.769-2.756 3.291 0.713 6.771-0.235 10.854-1.9 3.337 6e-3 6.703-0.333 10.152-1.665-0.633-1.043-1.497-1.99-1.228-3.404l0.832-2.563-0.416-3.673 1.681-4.105-0.664-2.904c1.33 10.18-53.04 25.91-60.05 1.86z" fill="#cdcdcd"/>
   <path d="m239.32 303.22c-0.274 1.104-0.278 2.497 0.16 3.42-0.951 0.065-0.763 1.17-0.606 1.811 0.705 3.91 1.016 8.167 3.51 11.441 0.582 0.604 1.131 1.467 2.019 1.603 0.497 0.234 0.676-0.842 0.821-0.524 0.289 0.414 0.654 0.754 1.066 1.033-0.687 0.79 0.43 1.502 1.09 1.807 1.458 0.565 3.026 0.114 4.464-0.278 1.113-0.065 2.26-0.649 2.617-1.763 1.053-2.084 1.458-4.494 1.003-6.797-0.138-0.688-0.066-1.808-1.003-1.894-0.448 0.074-0.71 0.436-0.572-0.234 0.045-0.576-0.14-1.262-0.376-1.698 0.85 0.176 1.129-0.846 0.747-1.436-0.307-1.036-1.068-1.873-1.568-2.78 1.05 10.49-15.02 7.61-13.37-3.71z" fill="#cdcdcd"/>
   <path d="m110.32 222.73c0 0.747-0.669 1.353-1.495 1.353-0.825 0-1.494-0.605-1.494-1.353s0.669-1.353 1.494-1.353c0.83 0 1.5 0.6 1.5 1.35z" fill="#fff"/>
   <path d="m114.96 202.45c-0.439 0.039-0.864 0.177-1.283 0.381-2.479-0.428-4.419 0.218-5.378 2.775-1.041-0.203-1.956-0.377-2.948 0.139-1.454-1.388-2.806-1.707-4.787-1.422-2.071 0.298-4.158 0.612-6.244 0.277 0.956 4.008 3.03 6.485 7.284 7.042-0.029 0.211-0.223 0.455-0.45 0.59-0.878 0.522-1.757 0.993-2.741 1.318-1.433 0.475-2.938 0.56-4.059 1.596-0.815 0.755-0.775 1.657 0.139 2.671-0.947 1.685-2.292 2.987-3.954 3.99-1.465 0.99-2.976 1.896-4.51 2.775-2.111 1.241-4.285 2.431-6.071 4.128-1.334 1.268-1.981 2.69-1.006 4.475-0.056 1.734 0.138 3.104 1.457 4.648 1.193 1.396 2.725 2.465 4.51 2.983 1.078 0.313 2.181 0.406 3.296 0.313 0.207 0.562 0.187 1.048-0.486 1.665-0.443 0.57-0.894 1.097-0.971 1.839-0.094 0.886 1.607 1.602 3.295 1.457 1.105-0.219 1.944-0.771 2.811-1.631 0.965-0.958 1.962-1.993 3.399-2.428 0.934-0.283 1.864-0.357 2.983-0.313 0.677 0.026 1.309 0.103 1.978 0.034 0.524-0.053 1.04-0.133 1.561-0.277 1.074-0.297 2.058 0.609 2.29 1.804 0.926 4.761-1.858 8.25-5.863 11.865-1.725 1.056-2.933 3.39-2.879 5.134-1.906 2.102-2.361 4.583-1.215 7.146-1.666 2.428-1.474 5.436 0 7.528-1.111 2.381-0.241 4.835 1.354 6.14-1.187 3.024-0.395 5.183 1.041 7.909-0.38 1.469-0.31 2.798 0.173 4.198 0.043 3.212 0.512 5.535 2.603 7.354 0.601 2.954 2.834 4.664 4.995 4.718 0.769 3.377 3.393 5.347 6.765 5.724 1.198 1.691 2.754 2.428 4.753 2.602-0.271 4.801 0.109 9.527 1.04 14.223-0.714 1.238-0.959 2.522-0.937 3.92 0.016 0.962 0.266 1.912 0.485 2.845 0.303 1.278 0.55 2.544 0.659 3.851 0.13 1.549 0.033 3.1-0.069 4.648-0.145 2.199-0.71 4.351-1.075 6.522-0.377 2.244-0.807 4.29-2.324 5.862-1.552 1.607-2.881 2.812-3.399 4.961-0.69 0.841-2.187 2.089-2.532 4.648 0.743 0.565 1.584 0.81 2.463 0.764 0.487 1.507 1.317 1.41 2.74 1.248 2.639-0.299 4.479-2.209 6.105-4.197-1.016-1.254-1.63-2.631-1.838-4.197 0.248-0.996 1.173-2.448 1.561-1.873 0.789 1.17 1.645 2.239 2.324 2.012 0.888-0.297 0.738-2.735 0.625-3.851-0.257-2.52-0.771-4.945-0.625-7.493 0.099-1.701 0.515-3.376 0.902-5.03 0.336-1.433 1.271-2.501 1.978-3.746 0.745-1.314 1.044-2.854 1.248-4.129 0.254-1.582 8e-3 -3.195-0.069-4.787-0.078-1.613 0.585-3.125 1.041-4.648 1.156-3.866 2.076-7.83 3.886-11.447 2.147-0.01 4.231 0.129 6.244-0.451 2.169-0.625 3.62 0.644 4.961 2.012 0.885-0.045 1.21-0.615 1.769-1.248 0.759 0.446 0.922 1.016 1.18 1.769 3.115 0.325 5.794-0.375 8.257-2.255 2.655 0.07 4.929 1.093 7.042 2.603 1.154-0.232 1.586-0.809 2.081-1.734 2.421 0.509 4.657-0.202 6.834-1.249 0.843 0.244 1.14 0.771 1.596 1.422 3.641 0.177 6.765-1.02 9.645-2.845 3.994 0.781 8.169 0.258 11.379-1.908 3.405 0.278 6.745-0.479 9.99-1.422 0.636 2.095 2.159 3.814 3.816 4.926 1.98 4.204 6.313 6.723 10.372 7.528 3.394 2.865 6.942 5.618 10.823 7.805 1.839 1.036 3.729 1.964 5.62 2.88 0.703 1.115 1.57 2.056 2.498 2.983 1.441 1.365 3.152 2.556 4.024 4.336 0.88 1.8 0.728 4.026 0.937 6.036 0.376 3.622 0.473 7.472-0.243 10.823-1.199 0.729-1.856 1.87-2.394 3.123-0.741 2.436-2.074 4.581-3.781 6.452 0.438 0.977 1.483 1.199 2.567 1.388 2.854 2.651 8.284 0.089 9.02-3.955 0.379-2.088-1.144-3.664-1.354-5.516 1.216 0.473 2.403 1.13 3.539 0.659 0.466-0.193 0.124-0.877-0.104-1.283 0.046-2.059-0.215-4.099-0.624-6.106-0.726-3.551-1.788-7.038-2.567-10.58-0.505-2.938-0.913-5.894-0.798-8.881 0.395-0.961 0.491-1.938 0.451-2.948-0.062-1.563-1.564-2.477-2.741-2.845-3.186-0.997-5.339-3.521-6.521-6.279 1.403-1.224 1.994-2.565 1.978-4.371l2.22-4.163c0.664 3.954 1.517 10.493 5.828 11.829 1.789 2.468 4.233 2.983 6.973 1.943 2.024 0.287 3.442-1.037 3.712-2.637 1.582-3.524 1.204-7.185 0-10.546 0.042-1.662-0.896-2.893-1.907-4.128-0.019-2.215-0.959-4.136-2.116-5.967 0.666-1.47 0.657-3.007 0.52-4.579 1.22-3.242 1.212-6.528 0.174-9.783 0.577-3.851 0.104-6.952-0.937-10.372-0.238-1.414-0.698-2.744-1.249-4.06-1.029-2.605-2.858-4.621-5.342-5.862-1.377-1.849-3.21-2.637-5.412-2.637-1.792-0.868-3.341-0.971-5.064 0-6.39-5.368-14.88-7.042-23.035-7.042-2.051-0.71-4.24-0.654-6.105 0.174-2.271-0.263-4.382 0.109-6.313 1.248-2.523-0.681-5.081-0.258-7.528 0.486-3.367-0.808-6.768-0.659-10.164-0.174-2.484-0.896-4.877-1.085-7.181-0.313-2.175-0.553-4.229-0.442-5.967 0.694-2.514-1.341-4.768-1.231-6.661 0-2.779-1.411-4.965-0.922-6.834 0.485-1.836-1.627-4.243-1.706-6.383-1.942-0.774-0.264-1.454-0.711-2.116-1.18-0.284-0.343-0.623-0.618-1.006-0.867 0-2.066-0.424-2.998-2.047-4.197 0.017-1.771-0.169-3.433-1.249-4.926 0.125-1.561 0.145-3.161-0.798-4.753 0.245-0.85 0.48-1.702 0.486-2.602 8e-3 -1.173-0.361-2.317-1.11-3.331 0.042-1.002 0.098-1.977-0.313-2.914-0.363-0.832-0.759-1.587-1.457-2.22-0.036-1.075-6e-3 -2.178-0.485-3.157-0.343-0.698-0.792-1.327-1.457-1.769-0.176-0.117-0.291-0.347-0.382-0.59 1.191 0.156 2.255-0.103 3.122-1.146 1.842 0.227 3.619-0.316 4.545-2.22 1.433-0.348 2.569-1.199 2.948-2.983-2.07-0.157-4.522-0.628-6.557-1.804-1.735-1.004-3.371-2.422-5.238-3.608-1.639-1.041-3.404-1.767-5.377-1.179-0.604-2.678-1.896-5.989-5.689-7.008-1.203-1.542-3.142-2.005-5.585-1.18-0.638-0.655-1.559-1.098-2.532-1.145-0.17 0.04-0.33 0.03-0.47 0.05zm0.14 1.49c0.113-7e-3 0.194-0.016 0.313 0 0.353 0.047 0.773 0.197 1.283 0.485-0.901 0.197-1.401 0.251-1.839 1.18 2.33-0.551 3.468 0.082 5.377 1.7-0.249-1.123-0.435-1.779-1.596-2.394 1.632-0.621 2.685-0.484 3.886 0.937l-1.318 0.139c2.294 1.01 2.9 2.273 3.227 4.579 0.595-1.204 0.58-3.121-0.833-4.197 2.57 0.933 4.153 3.222 4.197 5.862 0.02 1.119-0.717 1.439-1.734 1.804-0.901 0.793-1.79 1.586-2.983 1.284-1.697-0.43-2.902-1.813-4.683-1.562-2.146 0.303-3.955 1.44-6.418 1.006-1.515 0.736-3.027 1.381-4.614 0.521 0.363-0.352 0.966-0.448 1.596-0.382 0.686 0.072 1.398 0.059 2.082 0-1.093-1.584-4.461-1.904-5.273 0.556-0.629 0.524-1.169 0.982-1.526 1.77-2.249-2.608 0.514-5.802 3.191-6.245-1.735-0.709-3.249-0.275-4.336 1.388-0.239-0.063-0.364-0.79 0.139-0.971-0.71-1.235-0.862-1.798 0.555-2.429 0.472-0.21 1.017-0.577 1.249-1.214 0.759-0.621 1.29-1.031 2.324-0.833-0.586 0.572-0.808 1.248-0.45 2.186 1.146-2.03 2.811-2.813 4.926-2.74-0.328-0.478-1.136-0.83-1.942-0.625 0.553-1.205 1.995-1.776 3.712-1.317 0.55-0.31 1.03-0.47 1.48-0.5zm-13.12 1.7c0.807-8e-3 1.503 0.276 2.081 1.075-0.229 0.287-0.523 0.535-0.693 0.867-1.067 0.209-2.096 0.906-2.255 2.255-2.445-0.575-3.911-1.195-4.787-3.573 1.562 0.021 3.206-0.263 4.787-0.521 0.3-0.06 0.6-0.11 0.86-0.11zm14.16 1.25c-0.974 0.069-1.884 0.646-2.463 1.873 2.118-0.643 3.507-0.794 5.654 0.034-0.529-1.117-1.625-1.825-2.74-1.908-0.14 0-0.31 0-0.45 0.01zm-4.58 2.15c-0.834 0.045-1.713 0.457-2.498 1.388 2.208-0.319 3.564-0.116 5.517 1.11-0.331-1.378-1.324-2.334-2.498-2.498-0.17-0.02-0.35-0.01-0.52 0zm8.57 0.86c-0.235 0.027-0.468 0.082-0.729 0.174-1.329 0.471-2.125 1.218-1.873 2.775 0.572-0.641 1.029-1.166 1.943-1.457 1.105-0.353 2.301-0.16 3.399-0.417-0.649-0.592-1.313-0.978-2.047-1.075-0.22 0-0.46 0-0.69 0.02zm9.64 3.27c0.234-0.02 0.489-0.018 0.729 0 1.433 0.109 3.029 0.763 4.336 1.734 1.53 1.139 2.746 2.087 4.51 3.019 1.511 0.798 2.767 1.297 4.545 1.631-2.202 1.787-5.542 0.093-8.568-0.798 1.925 1.664 3.755 2.467 6.417 2.636-2.494 2.016-6.934-0.039-8.984-1.596 1.305 1.477 2.712 2.725 4.752 3.088-2.339 1.021-4.626-8e-3 -6.938-1.041-1.202-0.537-2.256-1.32-3.331-2.081 0.95 1.265 2.139 2.948 3.921 3.504-1.271 0.227-2.721 0.155-4.094-0.278-1.74-0.509-3.711-1.497-5.551-2.394 1.391 1.65 3.789 3.522 6.418 4.163 2.271 0.554 4.828-0.354 6.903 1.283 1.311 1.034 1.782 1.986 1.77 4.024-0.457-0.525-1.261-1.436-2.463-1.249 2.387 2.023 3.108 3.799 0.173 6.279 1.961-0.117 3.15-1.766 2.741-3.781 0.848 0.961 1.448 1.921 1.422 3.261-0.014 0.672-0.169 1.064 0.174 1.665 0.654 1.149 1.267 2.019 0.624 3.296-0.842-0.674-1.2-0.991-2.221-0.867 2.412 1.651 2.313 3.939 0.243 6.278 1.015 0.216 1.745-0.175 2.394-1.353 0.1 0.753 0.26 1.476 0.104 2.255l0.277 1.006 0.139 0.277c0.604 1.174 0.967 2.091 0.763 3.504-1.004-0.639-1.805-0.915-2.913-0.208 1.903 0.274 2.788 1.025 3.018 2.879 0.271-0.273 0.489-0.596 0.521-1.317 0.905 0.754 1.653 1.303 1.665 2.566-1.017-0.742-1.65-0.877-2.706-0.242 1.728 0.27 2.893 1.037 2.925 2.874l0.405-1.14c1.218 0.983 2.65 1.917 3.781 2.706 0.231 0.142 0.506 0.678 0.729 0.798 0.563 0.301 0.659 0.552 1.041 1.006 0.486 0.577 0.749 0.777 0.694 1.804 0.977-1.504 0.257-2.368-1.076-3.504 1.519-0.188 2.541 0.477 3.852 1.145-1.041 0.38-1.444 0.767-1.527 1.492 0.933-0.487 1.78-0.865 2.811-0.729 1.326 0.177 2.231 1.119 2.532 2.29 0.147-1.555-0.54-2.444-1.596-2.983 2.301-1.169 3.955-0.66 5.897 0.208 2.401-1.596 4.238-1.484 6.695-0.069 1.692-1.361 3.632-1.453 5.654-0.902 2.698-0.74 5.054-0.424 7.598 0.451 3.285-1.004 6.792-0.412 10.129 0.104 2.442-0.983 5.028-1.033 7.563-0.45 1.809-1.35 3.861-1.526 6.036-1.284 1.916-0.772 3.829-0.813 5.793-0.277 7.547-0.042 14.938 1.485 20.676 5.308 4.073 2.714 7.022 6.702 8.083 11.24 0.522 2.235 0.625 4.546 1.006 6.799 0.66 3.912 0.622 7.772-0.382 11.587-0.426-0.941-1.418-1.482-2.637-1.387 2.232 1.639 2.473 3.582 0.902 5.516 0.517-8e-3 1.013-0.313 1.388-0.729 0.563 3.056-0.312 5.204-1.145 7.944-0.041-0.698-0.916-1.653-1.839-1.7 1.778 2.283 0.958 4.567-1.353 5.377 1.24 0.427 2.35-0.194 2.636-0.902 0.233 2.521-0.809 4.52-2.186 6.557 0.014-1.058-0.768-1.851-1.908-2.255 1.648 2.152 0.939 4.345-1.387 5.378 1.326 0.403 2.285-0.36 2.74-1.007-1.346 2.798-3.214 3.289-5.135 2.047-1.712 1.035-3.485 0.686-5.377 0.104 1.622 1.391 3.383 1.635 5.308 1.11 1.096 0.939 2.368 0.952 3.4 0.52 1.518 3.626 4.004 5.904 7.563 7.008 1.288 0.399 1.574 1.069 1.596 2.116-0.071 0.934-0.266 1.661-0.451 2.498-0.119 3.105 0.339 6.152 0.901 9.192 0.763 3.507 1.766 6.984 2.429 10.512 0.35 1.86 0.738 3.659 0.625 5.689-1.309-0.621-2.762-1.007-3.331-0.278s0.496 1.913 0.486 3.088c-1.246 0.682-3.156 0.349-4.268-0.174 0.331-1.348 1.532-2.01 2.221-3.156 0.545-3.673 0.617-7.374 0.277-11.066-0.216-2.351-0.135-4.713-1.041-6.557-0.979-1.992-2.954-3.408-4.302-4.753-1.026-0.99-1.886-2.09-2.845-3.122-1.96-0.882-3.897-1.896-5.758-2.983-3.21-1.876-6.391-4.154-9.124-6.418 2.431 0.194 4.547-0.741 5.03-2.566-2.279 2.114-5.374 1.593-8.014 0.832-3.646-1.05-6.845-3.212-8.257-6.383 1.117 0.189 1.872-0.013 2.394-0.59-2.762 0.265-4.226-1.483-3.677-4.163-1.008 1.021-0.934 2.042-0.451 3.122-1.273-0.749-1.66-1.935-2.116-3.191-1.879-1.291-2.354-3.873-1.353-5.169 0.395 1.291 0.786 1.963 2.22 2.116-2.004-1.98-1.471-3.644 0.208-5.585-1.331-0.213-1.813 0.55-2.324 1.596-0.457-2.336-0.013-4.385 0.937-6.313 0.222 1.198 1.063 2.233 2.429 2.22-2.271-1.385-1.982-4.488 0.174-5.55-1.344-0.133-1.965 0.764-2.325 1.665-0.119-0.597-0.271-1.178-0.416-1.77-0.248-1.012-0.174-2.021 0.035-3.019 0.115-0.549 0.247-1.081 0.277-1.63 0.073-1.35-0.543-2.521-1.18-3.678-0.546-0.992-0.887-2.036-1.145-3.122-0.032 1.148 0.28 2.266 0.729 3.296 0.517 1.188 0.945 2.271 0.971 3.538 0.011 0.541-0.25 1.043-0.416 1.562-0.317 0.996-0.234 2.034-0.173 3.053 0.046 0.772 0.143 1.578 0.45 2.289-1.648 2.781-2.13 5.611-1.457 8.396-0.959 1.803-1.186 4.137 0.174 5.412-0.7 0.282-1.491 0.55-2.15 0.555 0.896-1.356 0.586-2.454-0.486-3.399 0.786 1.603-0.076 3.43-1.457 3.746-1.715 0.395-3.569 0.596-5.203 0.243-3.136 1.947-6.54 2.684-10.164 2.15 1.37-1.145 1.358-3.179 0.242-4.336 0.668 2.769-0.663 4.311-3.504 4.336 0.247 0.19 0.468 0.341 0.833 0.382-1.846 1.339-4.832 2.669-7.598 2.29-0.1-0.285-0.431-0.486-0.59-0.729 0.1-0.231 0.8-0.595 1.318-0.556 2-0.444 3.071-1.895 2.464-3.781-1.077 2.572-2.69 2.964-5.135 2.151 0.182 0.399 0.128 0.728 0.902 1.04-2.593 1.105-6.189 2.419-7.806 1.631-8e-3 -0.334-4e-3 -0.718-0.104-1.075 1.896 0.08 3.055-1.022 3.053-2.845-1.804 2.046-3.337 2.24-5.517 0.624-0.025 1.157 0.465 1.454 1.492 1.978 0.026 1.186 0.039 2.62-1.075 2.914-1.656-1.278-3.277-1.815-5.238-2.22l0.589-0.729c-2.614 0.679-3.983-0.188-4.856-2.672-0.888 1.528-0.126 2.883 1.354 3.643-1.979 1.734-4.04 1.565-6.661 1.77-0.232-1.023-0.722-1.308-1.145-1.908l0.208-0.659c1.556 0.572 2.475 0.156 3.261-1.075-2.706 0.735-3.948-0.146-4.926-2.637-0.652 1.012-0.466 1.513 0.208 2.567 0.258 1.275-0.158 2.031-0.832 3.018-1.533-1.776-3.336-2.2-5.481-1.804-1.778 0.329-3.573 0.451-5.377 0.451 0.534-1.034 1.296-1.821 2.186-2.394 1.193-0.768 2.44-1.512 3.296-2.359-0.415 2.737 2.217 4.327 4.371 2.983-2.55-0.386-4.436-1.984-3.019-4.405 0.965-1.648 1.909-3.215 2.567-4.995 1.807-2.769 1.756-6.148 1.561-9.089 1.496-2.705 1.53-5.762 0.208-8.5 0.077 3.17 0.287 6.32-1.596 8.326 0.481 3.289 0.299 6.243-1.457 8.881-0.646 1.971-1.596 3.774-2.948 5.343-1.159 1.343-2.759 2.172-4.128 3.053-1.331 0.854-2.109 2.218-2.811 3.607-1.944 3.854-2.93 8.437-4.023 12.002-0.506 1.646-1.047 3.182-1.076 4.892-0.025 1.54 0.229 3.078 0.139 4.614-0.076 1.314-0.465 2.604-1.145 3.712-0.873 1.423-1.669 2.683-2.15 4.267-0.521 1.71-0.735 3.462-0.902 5.238-0.297 3.153 1.594 9.766 0.764 9.366-1.34-0.643-1.053-2.001-1.665-1.838-1.593 0.424-2.225 1.567-2.88 3.018-1.271 0.835-2.559 1.136-4.059 1.18 0.774-1.928 2.47-2.576 3.365-3.781 1.212-1.633 1.575-3.663 2.012-5.62 0.493-2.207 0.822-4.439 1.041-6.695 0.157-1.627 0.133-3.267 0.034-4.891-0.082-1.354-0.345-2.665-0.624-3.989-0.162-0.767-0.344-1.516-0.417-2.29-0.172-1.818 0.24-3.003 0.972-4.406-1.012-4.803-1.353-9.713-1.145-14.604 1.952 0.896 3.521 0.101 5.55-0.555 2.794 0.919 5.402-0.167 6.487-2.324-2.336 1.927-4.257 2.27-6.487 1.318-1.09 0.445-2.295 0.773-3.538 0.832-1.496 0.072-2.665-0.784-3.851-1.596-2.51-1.794-3.712-4.238-3.712-7.284-1.25-3.059-1.437-6.08-0.521-8.812 0.677 1.615 1.794 2.305 3.365 1.873-2.55-1.188-2.926-2.904-1.804-5.238-0.751 0.245-1.203 0.678-1.526 1.18-0.424-2.212 0.065-3.698 0.971-5.586-0.325-2.305 0.109-4.721 1.145-6.348-2.017 1.483-2.428 3.713-2.428 6.07-1.291 2.266-1.382 4.453-0.902 7.008-1.088 3.305-0.763 6.604 0.347 9.817-0.061 4.186 2.403 7.432 5.135 8.881-1.634-0.156-2.621-1.266-3.608-2.498-3.562-0.097-5.303-2.379-6.036-4.44 1.181 0.434 2.344 0.254 2.983-0.693-2.775 0.368-4.349-1.005-4.336-3.469-0.807 0.912-0.645 2.014-0.174 2.74-2.216-0.319-2.876-1.337-3.572-3.365 1.239 0.799 1.432 0.6 2.428 0.277-2.541-1.083-3.36-2.916-2.15-5.168-1.278 0.612-1.65 1.259-1.562 2.948-1.396-1.572-1.404-3.656-1.249-5.654-0.494-0.863-0.466-1.634-0.381-2.603 0.762 1.057 1.443 1.166 2.566 1.041-2.158-1.581-2.402-3.258-0.971-5.481-1.203 0.107-1.526 0.609-1.943 1.805-1.033-1.596-1.486-3.175-1.075-4.996 0.732 1.139 1.435 1.23 2.567 1.145-2.221-1.639-2.295-3.255-0.902-5.516-1.032 0.048-1.329 0.468-1.838 1.318-1.033-1.052-1.094-1.682-1.18-2.879 0.997 1.318 1.563 0.89 2.498 0.937-2.238-1.626-2.218-3.22-0.938-5.481-1.181 0.201-1.309 0.556-1.699 1.11-0.882-1.681-0.545-3.112 0.242-4.753 0.116 1.762 0.912 2.398 2.395 2.567-1.842-1.997-1.609-3.689 0.173-5.585-1.316-0.092-1.7 0.37-2.324 1.561-0.738-1.779-0.612-3.271 0.382-4.926 0.08 2 0.644 3.006 2.497 3.191-1.9-2.112-1.549-3.587 0.14-5.62l-1.631 0.556c0.164-1.433 0.639-2.221 1.561-3.227 0.064 1.366 0.418 1.874 1.318 2.15-0.544-1.994 0.255-3.565 1.482-4.456-0.236-0.06-0.983 0.104-1.17 0.363 3.779-3.438 7.129-7.98 4.892-13.842 1.193 0.102 2.288 0.137 2.81 1.249 0.174-0.899-0.382-1.623-1.318-2.013-1.106-0.46-2.369-0.448-3.607-0.416-1.617 0.042-3.204 0.231-4.822 0.277-1.1 0.031-2.181-0.132-3.399 0.485-1.528 0.774-2.875 1.886-4.163 3.019-0.833 0.731-1.511 0.889-2.637 0.485 0.25-0.364 0.44-0.735 0.729-1.075 0.566-0.669 1.22-1.114 2.047-1.631 0.94-0.616 2.084-1.16 2.637-2.15 0.123-0.221-0.04-0.493-0.347-0.59-0.44-0.138-0.863-0.332-1.318-0.416-2.056 0.784-5.065 1.871-7.39 0.763-1.639-0.78-3.218-3.446-3.781-4.787-0.07 1.365-0.016 2.043 0.764 2.983-1.183-0.605-1.752-1.805-1.562-3.469 0.781 0.038 1.279 0.065 2.013-0.416 0.328-0.216 0.671-0.434 0.971-0.694 0.458-0.397 1.093-0.488 1.735-0.451-0.312-0.579-1.039-0.88-1.735-0.867-0.341 7e-3 -0.685-0.049-1.006 0.139-0.183 0.107-0.114 0.102-0.451 0.243-0.246 0.104-0.553 0.078-0.798 0.208-0.398 0.212-0.935 0.187-1.075-0.208-0.365-1.028 0.197-1.59 1.041-2.29 1.754-1.453 3.741-2.53 5.724-3.642 1.48-0.888 3.262-1.896 4.787-2.983 1.726-1.289 3.399-2.681 4.302-4.684-0.073-0.711-0.541-1.503 0.104-2.081 0.729-0.655 2.008-0.77 2.983-1.249 1.082-0.533 2.18-1.057 3.156-1.77 0.121 0.181 0.243 0.385 0.382 0.555-0.382 2.154-0.074 3.734 2.082 5.238 0.653-1.032 1.163-1.954 2.22-2.636 1.854 0.883 3.538 0.701 5.377-0.278 2.259 0.188 4.01-0.771 6.21-1.075 1.651-0.228 2.968 1.317 4.752 1.492 1.367 0.133 2.724-0.23 3.747-1.249 1.015-0.483 1.741-1.016 2.255-2.047 0.26 0 0.48-0.04 0.71-0.06zm-19.98 4.16c-1.742 0.167-3.525 0.829-4.406 2.463 1.484-0.232 2.84-1.109 4.406-1.145 1.47-0.033 3.442 0.168 4.301 0.59-0.069-0.953-1.936-1.818-3.607-1.908-0.24 0-0.46-0.01-0.69 0.01zm0.03 2.22c-1.87-0.092-3.774 1.181-4.787 3.122-0.723 1.383-2.43 2.247-2.637 2.845 1.649-0.228 3.637-1.232 4.718-2.603 0.085 1.602 1.284 2.88 2.775 2.88 1.546 0 2.81-1.368 2.81-3.053 1.045 0.517 2.484 0.951 3.191 0.798 0.708-0.154 1.179-0.336 1.527-0.972-0.23-0.099-0.58-0.131-0.938-0.139-0.974-0.021-1.902-0.354-2.74-1.041-1.17-0.91-2.03-1.76-3.91-1.85zm-0.93 2.11c0.62 0 1.145 0.47 1.145 1.076 0 0.605-0.524 1.109-1.145 1.109s-1.145-0.504-1.145-1.109c-0.02-0.6 0.51-1.08 1.13-1.08zm6.69 2.92c-0.969 0.746-1.728 1.705-2.741 2.394-0.414 0.282-0.814 0.503-1.318 0.729-0.666 0.299-1.293 0.61-1.907 1.007 0.755 0.242 1.468 0.439 2.15 0.242 1.376-0.396 2.382-0.976 3.191-2.22 0.42-0.63 0.68-1.29 0.63-2.15zm-17.134 0.94c-4.114 0.02-8.656 2.211-11.274 5.343 3.516-2.33 7.405-4.18 11.274-5.34zm29.754 1.28c1.159 0.767 1.856 1.498 1.77 3.191s-0.698 2.282-1.596 3.122c1.729-0.098 2.94-1.588 2.914-3.156s-0.91-2.86-3.08-3.15zm-2.74 2.26c-3.025 4.705-8.204 8.735-14.57 10.303 5.9 0.21 13.19-4.05 14.57-10.3zm3.46 6.31c-0.177 1.371-0.247 2.761-1.561 3.504-0.993 0.562-2.022 0.69-3.191 0.624 0.116 0.933 2.655 1.352 4.059 0.382 1.54-1.05 1.92-3.09 0.69-4.5zm-13.38 4.58c0.619 2.976-0.057 4.441-2.983 5.517 2.28 1.82 6.4-2.77 2.98-5.52zm9.02 1.01c-1.618 1.958-3.902 2.382-6.21 0.313 0.09 3.74 6.37 3.33 6.21-0.31zm7.38 4.44c-0.243 0.01-0.532 0.065-0.798 0.104 2.768 1.217 3.684 2.608 2.811 5.62 2.569-1.806 1.73-5.25-1.354-5.655-0.22-0.02-0.41-0.07-0.66-0.06zm104.91 18.94c0.665 0.026 1.209 0.223 1.873 0.624 1.727-0.279 2.951 0.422 3.989 1.561-1.178-0.191-2.034 0.139-2.429 0.902 1.235-0.191 2.225-0.025 3.227 0.694 0.928 0.666 1.155 1.743 1.145 2.81 0.831-0.842 0.695-1.587 0.416-2.671 1.5 0.859 2.379 2.326 3.157 3.815 0.708 1.425 1.14 2.969 1.492 4.51 1.038 2.679 1.524 5.842 0.901 8.152-0.797-1.19-1.809-1.651-2.983-1.11 2.473 1.287 2.987 3.328 1.665 5.308 0.83-0.099 1.055-0.495 1.526-1.075 0.712 1.933 0.709 3.723 0.243 5.689-0.521-1.747-1.869-2.415-3.435-2.047 2.616 1.025 2.693 2.925 1.665 5.343 0.469 8e-3 0.753-0.358 1.11-0.556 0.473 1.62 0.14 2.902-0.416 4.024-0.814-1.241-1.905-1.63-3.053-1.214 2.64 0.888 3.08 3.227 1.734 5.308 1.143-0.165 1.624-1.04 1.804-1.978 1.072 1.567 1.574 3.078 1.457 4.892 1.023 1.027 1.56 1.985 1.873 3.399-0.804-1.111-1.692-1.194-2.81-0.902 2.457 1.35 2.678 2.842 1.734 5.308 0.958-0.154 1.313-0.861 1.734-1.596 0.722 2.654 0.75 5.421-0.45 7.424-0.41 1.623-1.29 1.92-2.706 1.908-1.627 0.782-3.501 0.854-4.648-0.347 0.674 0.097 1.17-0.098 1.63-0.486-2.763-0.569-3.195-2.146-2.914-4.683-1.252 1.054-1.397 2.164-0.867 3.607-4.291-3.001-4.252-9.564-5.203-13.945 1.068 1.594 2.473 1.736 3.92 0.798-2.588-0.25-4.025-1.64-3.33-4.093 0.912-3.219 1.26-6.216 0.937-9.471 1.461-4.358 1.315-8.808 0.659-13.321-0.335-2.3-0.482-4.614-1.041-6.869-0.91-3.673-2.802-6.86-5.446-9.505 0.416-0.093 0.772-0.138 1.11-0.174 0.25 0 0.51-0.02 0.73-0.01zm-136.43 8.01c-3.361 1.568-1.386 6.285 1.839 5.238-2.512-1.04-3.007-2.89-1.84-5.24zm146.22 1.77c-0.364-0.011-0.754 0.063-1.146 0.208 2.57 0.656 3.496 2.331 2.603 4.961 2.73-1.59 1.1-5.1-1.45-5.17zm-2.91 3.37c2.247 1.657 2.393 3.644 0.59 5.517 3.51-0.32 2.78-5.67-0.59-5.52zm-140.71 3.57c-3.279 1.584-1.294 6.324 1.838 5.273-2.58-1.15-2.78-2.8-1.84-5.27zm14.67 2.95c-2.896 0.306-3.231 4.976-0.034 5.516-1.836-2.168-1.288-4.085 0.659-5.516-0.22-0.02-0.43-0.02-0.63 0zm126.21 3.89c-0.191 3e-3 -0.385 0.059-0.59 0.104 2.479 1.132 2.996 3.038 1.631 5.308 3.15-1.01 1.84-5.47-1.04-5.41zm-104.9 0.72c0.245 2.786-0.896 4.063-3.538 4.232 2.7 2.28 5.93-1.83 3.54-4.23zm-34.87 3.16c-2.931 2.268 0.182 6.221 3.087 4.613-2.71-0.45-3.88-2.17-3.09-4.61zm94.99 0.31c1.338 2.494 0.796 4.251-1.562 5.377 3.44 0.83 4.76-4.33 1.56-5.38zm-5.97 1.88c0.516 2.771-0.782 4.281-3.47 4.405 2.92 1.91 5.94-2.09 3.47-4.41zm40.34 1.77c-0.189-0.015-0.381 7e-3 -0.589 0.034 2.306 1.609 2.414 3.656 0.901 5.516 3.26-0.64 2.55-5.35-0.31-5.55zm-102.3 0.76c0.135 2.776-0.929 4.205-3.608 4.268 2.74 2.27 5.92-1.86 3.61-4.27zm7.84 0c0.241 2.793-1.009 3.821-3.573 4.268 2.69 2.3 6.01-1.92 3.57-4.27zm105.15 1.14c-2.908 0.315-3.161 5.104 0.069 5.516-1.801-2.169-1.252-3.674 0.59-5.516-0.22-0.02-0.46-0.02-0.66 0zm-124.09 0.28c-2.144 2.964 1.932 5.524 3.851 4.024-2.92-0.57-3.88-1.65-3.85-4.02zm-4.78 0.66c-3.354 1.291-1.328 6.139 1.839 5.273-2.83-1.33-3.04-2.93-1.84-5.27zm80.34 0.52c1.621 2.415 0.93 4.387-1.596 5.343 3.36 1.01 4.73-4.14 1.6-5.34zm-8.6 1.94c0.661 2.589-0.827 4.173-3.469 4.302 2.98 1.85 5.94-2 3.47-4.3zm-41.01 0.8c-3.355 1.424-1.47 6.364 1.7 5.308-2.48-1.29-2.69-2.88-1.7-5.31zm61.86 0.59c-3.335 1.027-1.999 6.468 1.388 5.377-2.51-1.34-2.75-3.32-1.39-5.38zm-16.48 0.35c0.699 2.613-0.83 4.309-3.469 4.302 2.92 2.15 5.95-1.77 3.47-4.3zm-59.36 0.76c0.132 2.691-0.979 3.893-3.608 4.232 2.67 2.28 6.01-1.89 3.61-4.23zm-13.22 1.01c-2.361 2.898 0.673 6.271 3.399 4.405-2.71-0.48-3.5-1.77-3.4-4.41zm59.53 0.17c-1.247 2.259-3.228 2.504-5.481 1.04 1.07 3.43 6.01 2.18 5.48-1.04zm38.75 0.42c-2.607 2.325 0.469 6.278 3.399 4.475-2.7-0.37-3.9-2.26-3.4-4.48zm-61.71 0.34c-1.677 3.182 3.064 5.518 4.891 2.706-2.73 0.71-4.49-0.33-4.89-2.71zm77.29 0.56c0.581 2.633-0.658 4.117-3.364 4.44 3.04 1.84 5.93-2.23 3.36-4.44zm14.36 0.76c-2.531 0.397-3.364 4.432-0.485 5.412-1.387-2.433-0.582-4.2 1.665-5.308-0.42-0.1-0.82-0.15-1.18-0.1zm-21.37 2.74c0.359 2.743-0.513 4.175-3.365 4.44 2.95 1.73 5.96-2.23 3.37-4.44zm-11.69 0.73c-3.303 1.05-2.024 6.051 1.388 5.446-2.52-1.42-2.85-3.48-1.39-5.45zm28.83 0.94c-2.627 1.971-0.191 6.417 2.88 4.684-2.8-0.44-3.24-2.24-2.88-4.68zm7.21 1.45c0.993 2.556 0.382 4.485-2.255 5.065 3.29 1.44 5.26-3.54 2.26-5.06zm2.36 4.69c0.605 2.674-0.24 4.238-2.914 4.684 2.94 1.92 5.7-2.77 2.91-4.68zm-19.61 7.01c0.529 1.235 1.623 2.167 2.637 2.811 0.775 0.491 1.602 0.915 2.429 1.317 0.851 0.415 1.358 0.867 1.804 1.631 0.434 0.743 0.448 1.758 0.416 2.602-0.032 0.845 0.029 1.729 0.417 2.325 0.765-1.756 0.768-3.739 0.104-5.517-0.317-0.851-1.082-1.321-1.804-1.838-0.777-0.558-1.662-0.92-2.532-1.318-0.772-0.354-1.481-0.803-2.151-1.318-0.42-0.3-0.82-0.62-1.33-0.68zm-111.05 4.58c-0.18 0.472-0.231 0.959-0.208 1.457 0.037 0.776 0.102 1.547 0.139 2.324 0.032 0.681-0.114 1.316-0.313 1.942-0.114 0.363-0.229 0.727-0.347 1.075 0.691 0.025 0.971-0.421 1.318-0.937 0.368-0.546 0.458-1.229 0.555-1.873 0.122-0.815-0.081-1.597-0.242-2.394-0.12-0.64-0.54-1.09-0.9-1.6zm-4.85 30.49c0.135 1.241 0.771 2.289 1.422 3.33-1.561 1.964-3.657 3.318-6.14 2.88 0.488-1.984 1.563-3.609 2.602-5.308-1.926 1.076-2.893 2.501-3.781 4.51-0.742 0-1.021 0.016-1.249-0.313 0.451-1.626 1.708-3.043 2.775-3.955 0.769 0.118 1.519-0.081 2.255-0.242 0.76-0.16 1.41-0.57 2.11-0.91zm126.51 0.59c0.435 0.781 0.834 1.873 0.451 2.811-1.086 2.656-3.552 3.997-6.21 3.434 0.545-2.063 1.69-3.664 2.845-5.377-2.028 1.01-2.775 2.528-3.746 4.545-0.528-0.043-1.074-0.322-1.145-0.521 1.063-1.57 2.126-3.064 2.879-4.753 1.82 0.59 3.26 0.48 4.94-0.13z"/>
  </g>
  <g transform="matrix(2.7777771,0,0,2.7777771,-1.6054615,-1995.5899)" fill="#fff" style="font-feature-settings:normal;font-variant-caps:normal;font-variant-ligatures:normal;font-variant-numeric:normal" aria-label="KARCAG">
   <path d="m187.91945 1088.2875 1.8406 7.232q0.39138 1.5276 0.85972 2.2219 0.34272 0.4981 0.86766 0.7356l-0.14895 0.3292-6.28145-2.8422 0.14896-0.3292q0.62027 0.2163 0.8497 0.1594 0.23833-0.053 0.3269-0.2487 0.16908-0.3737-0.18248-1.7762l-1.19296-4.7308-0.61395 0.1724-1.48953 3.292q-0.42673 0.9431-0.42463 1.2227 2e-3 0.2797 0.22811 0.5856 0.23004 0.297 0.89734 0.5989l-0.14896 0.3292-6.0857-2.7536 0.14895-0.3292 0.40038 0.1812q0.52493 0.2375 0.92977 0.1956 0.28769-0.02 0.54913-0.266 0.19449-0.1693 0.60512-1.0768l3.59098-7.9363q0.41867-0.9254 0.42547-1.201 7e-3 -0.2756-0.21921-0.5815-0.21309-0.3108-0.72024-0.5403l-0.40037-0.1811 0.14895-0.3292 6.00563 2.7174-0.14895 0.3292q-0.61391-0.2778-1.01473-0.2448-0.28769 0.02-0.55399 0.2531-0.20741 0.1741-0.62207 1.0906l-1.69887 3.7546 6.11379-1.5962q1.2764-0.3336 1.48171-0.7873 0.15298-0.3381-0.14103-0.707-0.15146-0.1864-0.91344-0.5634l0.14895-0.3292 4.70664 2.1297-0.14895 0.3292q-0.65184-0.2414-1.10116-0.2196-0.43641 0.017-2.21044 0.479z" style="font-feature-settings:normal;font-variant-caps:normal;font-variant-ligatures:normal;font-variant-numeric:normal"/>
   <path d="m200.04488 1096.8122-4.55575-1.0613-0.83459 1.1292q-0.41254 0.5656-0.50781 0.9746-0.12629 0.5421 0.25139 0.9009 0.22134 0.212 1.21178 0.5229l-0.082 0.3519-4.28944-0.9992 0.082-0.352q0.71867 0.057 1.27425-0.3047 0.5578-0.3714 1.55748-1.6928l7.01015-9.2162 0.18071 0.042 2.18705 11.6596q0.3157 1.6578 0.65285 2.1475 0.25469 0.3702 0.83329 0.5551l-0.082 0.3519-6.23919-1.4535 0.082-0.3519 0.2568 0.06q0.75136 0.1751 1.10446 0.037 0.24469-0.1034 0.31116-0.3887 0.0399-0.1712 0.0249-0.3652 9.2e-4 -0.09-0.11915-0.7798zm-0.15941-0.7791-0.88651-4.8892-3.01299 3.9807z" style="font-feature-settings:normal;font-variant-caps:normal;font-variant-ligatures:normal;font-variant-numeric:normal"/>
   <path d="m210.34914 1096.077-0.20987 3.7049q-0.0608 1.0725 0.05 1.3625 0.12104 0.2807 0.44315 0.4652 0.32211 0.1846 1.22886 0.2359l-0.0204 0.3608-6.76649-0.3833 0.0204-0.3608q0.9165 0.052 1.24764-0.096 0.34144-0.1567 0.48366-0.4225 0.15196-0.2653 0.21271-1.3378l0.48602-8.58q0.0608-1.0725-0.0603-1.3532-0.11073-0.2899-0.43284-0.4745-0.32211-0.1845-1.22886-0.2359l0.0204-0.3607 6.1425 0.3479q2.3985 0.1359 3.49122 0.5304 1.09272 0.3944 1.74391 1.3312 0.65174 0.927 0.58381 2.1263-0.0828 1.4625-1.18997 2.3583-0.70699 0.5664-1.93311 0.8002l2.925 4.6553q0.57484 0.9031 0.82594 1.1325 0.38263 0.3249 0.90747 0.3839l-0.0204 0.3608-4.16325-0.2358-3.91943-6.2669zm0.36727-6.4838-0.32806 5.7915 0.55575 0.031q1.35525 0.077 2.04181-0.1289 0.68711-0.2154 1.10381-0.8373 0.427-0.6312 0.4861-1.6745 0.0856-1.5112-0.58528-2.273-0.66113-0.7613-2.23088-0.8502z" style="font-feature-settings:normal;font-variant-caps:normal;font-variant-ligatures:normal;font-variant-numeric:normal"/>
   <path d="m230.18714 1087.7009 0.50813 4.5617-0.37852 0.042q-0.62597-1.7382-1.89659-2.5596-1.27062-0.8215-2.74588-0.6571-1.23261 0.1373-2.18248 0.9604t-1.29787 2.0213q-0.4482 1.5337-0.24819 3.3292 0.19676 1.7664 0.80539 3.1726 0.60754 1.3964 1.64194 2.0377 1.03331 0.6317 2.54738 0.4631 1.24232-0.1384 2.21057-0.7965 0.97796-0.6592 1.9751-2.1165l0.12649 1.1356q-0.97778 1.2782-2.12289 1.9364-1.13649 0.6473-2.73791 0.8257-2.10612 0.2346-3.84042-0.4271-1.7246-0.6627-2.79374-2.1453-1.05943-1.4836-1.25836-3.2694-0.20974-1.8829 0.58241-3.6809 0.80186-1.799 2.36743-2.9167 1.57528-1.1188 3.45817-1.3285 1.3879-0.1546 2.99812 0.2752 0.93183 0.25 1.17447 0.2229 0.31058-0.035 0.50894-0.2827 0.20699-0.2588 0.21979-0.7614z" style="font-feature-settings:normal;font-variant-caps:normal;font-variant-ligatures:normal;font-variant-numeric:normal"/>
   <path d="m237.64241 1095.6639-4.51754 1.2137-0.20312 1.3893q-0.0968 0.6934 0.0121 1.099 0.14443 0.5376 0.64668 0.6757 0.29518 0.082 1.31516-0.1107l0.0937 0.349-4.25347 1.1427-0.0937-0.349q0.6606-0.2887 0.97971-0.8699 0.31658-0.5906 0.5746-2.2273l1.83258-11.4334 0.17919-0.048 7.42942 9.2485q1.06052 1.3128 1.58881 1.5854 0.3992 0.2062 0.99661 0.096l0.0937 0.349-6.18687 1.6621-0.0937-0.3489 0.25465-0.068q0.74506-0.2001 0.99111-0.4887 0.16695-0.2066 0.0909-0.4896-0.0456-0.1697-0.15034-0.3337-0.0417-0.08-0.47297-0.6313zm-0.50816-0.6117-3.08838-3.8926-0.77841 4.9314z" style="font-feature-settings:normal;font-variant-caps:normal;font-variant-ligatures:normal;font-variant-numeric:normal"/>
   <path d="m250.21354 1079.9035 2.04584 4.1957-0.32478 0.1584q-1.42699-1.4337-3.03977-1.7555t-3.00844 0.3587q-1.33422 0.6506-1.85269 1.8377-0.52276 1.1784-0.23658 2.7012 0.28617 1.5227 0.97525 2.936 0.8346 1.7116 1.86754 2.8051 1.03294 1.0934 2.22359 1.2625 1.19943 0.1648 2.43709-0.4386 0.43011-0.2098 0.83498-0.5158 0.40936-0.3191 0.79776-0.7258l-1.20696-2.4753q-0.3424-0.7022-0.5374-0.8571-0.19927-0.1635-0.58781-0.1805-0.37977-0.021-0.80988 0.1884l-0.30722 0.1498-0.15836-0.3247 5.78454-2.8206 0.15836 0.3248q-0.63693 0.3649-0.83178 0.6338-0.19036 0.2557-0.17672 0.6402 2e-3 0.2053 0.31904 0.8549l1.20696 2.4753q-0.89287 1.0655-2.00641 1.9235-1.10049 0.8626-2.42593 1.5089-1.6941 0.826-3.04022 0.9174-1.34161 0.078-2.56563-0.2483-1.21952-0.3398-2.16026-1.0436-1.20509-0.9117-1.93697-2.4127-1.30968-2.686-0.32554-5.4583t3.84568-4.1676q0.88656-0.4323 1.66604-0.6385 0.42046-0.1181 1.44332-0.204 1.02735-0.099 1.18535-0.176 0.24578-0.1198 0.37085-0.3981 0.12078-0.287 0.0524-0.873z" style="font-feature-settings:normal;font-variant-caps:normal;font-variant-ligatures:normal;font-variant-numeric:normal"/>
  </g>
 </g>
</svg>
