<?xml version="1.0" encoding="utf-8"?>
<!-- Generator: Adobe Illustrator 22.0.1, SVG Export Plug-In . SVG Version: 6.00 Build 0)  -->
<svg version="1.1" id="Layer_2" xmlns="http://www.w3.org/2000/svg" xmlns:xlink="http://www.w3.org/1999/xlink" x="0px" y="0px"
	 viewBox="0 0 5000 5000" style="enable-background:new 0 0 5000 5000;" xml:space="preserve">
<style type="text/css">
	.st0{fill:#8C4239;stroke:#000000;stroke-width:18;stroke-miterlimit:10;}
	.st1{display:none;fill:none;stroke:#FF0000;stroke-width:36;stroke-miterlimit:10;}
	.st2{fill:url(#SVGID_1_);stroke:url(#SVGID_2_);stroke-width:18;stroke-miterlimit:10;}
	.st3{fill:url(#SVGID_3_);stroke:#000000;stroke-width:18;stroke-miterlimit:10;}
	.st4{fill:#FFFFFF;}
	.st5{fill:url(#SVGID_4_);stroke:#000000;stroke-width:18;stroke-miterlimit:10;}
	.st6{fill:url(#SVGID_5_);stroke:#000000;stroke-width:18;stroke-miterlimit:10;}
	.st7{display:none;fill:none;stroke:#000000;stroke-width:25.4278;stroke-miterlimit:10;}
	.st8{display:none;fill:none;stroke:#000000;stroke-width:29.5288;stroke-miterlimit:10;}
	.st9{fill:url(#SVGID_6_);}
	.st10{fill:none;stroke:url(#SVGID_7_);stroke-width:20;stroke-miterlimit:10;}
	.st11{fill:none;stroke:url(#SVGID_8_);stroke-width:21;stroke-miterlimit:10;}
	.st12{fill:#003389;stroke:#FBB03B;stroke-width:16;stroke-miterlimit:10;}
	.st13{fill:url(#SVGID_9_);stroke:#FBB03B;stroke-width:16;stroke-miterlimit:10;}
	.st14{fill:#1353B4;stroke:#FBB03B;stroke-width:5;}
	.st15{fill:#FFFFFF;stroke:#003380;stroke-width:3.5942;}
	.st16{fill:url(#SVGID_10_);stroke:url(#SVGID_11_);stroke-width:18;stroke-miterlimit:10;}
</style>
<path class="st0" d="M710.7,3217.2V112h3631v3105.2c-2.8,90.6-15,216.6-56.3,360.8c-13.3,46.3-53.3,177.2-155.2,356
	c-40.8,71.7-193.5,335.2-430.8,539c-441.6,379.1-1006.8,405.6-1173.2,408c-166.4-2.4-731.6-28.9-1173.2-408
	c-237.3-203.7-390-467.3-430.8-539c-101.9-178.8-141.9-309.8-155.2-356C725.7,3433.8,713.5,3307.9,710.7,3217.2z"/>
<line class="st1" x1="2526.2" y1="0" x2="2526.2" y2="5000"/>
<linearGradient id="SVGID_1_" gradientUnits="userSpaceOnUse" x1="670.5549" y1="1550.2396" x2="4158.9487" y2="3564.2646">
	<stop  offset="0" style="stop-color:#D4AF37"/>
	<stop  offset="0.1538" style="stop-color:#CFB53B"/>
	<stop  offset="0.2582" style="stop-color:#FFDF00"/>
	<stop  offset="0.4396" style="stop-color:#D4AF37"/>
	<stop  offset="0.5769" style="stop-color:#FCC200"/>
	<stop  offset="0.8571" style="stop-color:#FFDF00"/>
	<stop  offset="1" style="stop-color:#D4AF37"/>
</linearGradient>
<linearGradient id="SVGID_2_" gradientUnits="userSpaceOnUse" x1="861.6797" y1="2962.2983" x2="4190.6455" y2="2962.2983">
	<stop  offset="0" style="stop-color:#000000"/>
	<stop  offset="7.538226e-02" style="stop-color:#0F0F0F"/>
	<stop  offset="0.2069" style="stop-color:#232323"/>
	<stop  offset="0.3388" style="stop-color:#2F2F2F"/>
	<stop  offset="0.4707" style="stop-color:#333333"/>
	<stop  offset="0.6123" style="stop-color:#2E2E2E"/>
	<stop  offset="0.7703" style="stop-color:#212121"/>
	<stop  offset="0.9357" style="stop-color:#0B0B0B"/>
	<stop  offset="1" style="stop-color:#000000"/>
</linearGradient>
<path class="st2" d="M2525.5,4721c-148.2-2.3-301.7-22.4-444-57.9c-244.9-61.2-454.9-166-624.3-311.5
	c-91.5-78.5-180.3-176.7-263.9-291.7c-70.6-97.1-116.9-178.4-132.1-205.1c-63.7-111.8-112.2-222.7-140.4-320.9
	c-29.6-103.3-46.5-210.5-50.1-318.6l0-0.7v-2011h3311v2011l0,0.7c-3.6,108.1-20.5,215.2-50.1,318.6
	c-28.1,98.2-76.7,209.1-140.4,320.9c-15.2,26.7-61.6,108-132.1,205.1c-83.6,115-172.4,213.2-263.9,291.7
	c-169.4,145.5-379.5,250.3-624.3,311.5c-142.2,35.5-295.7,55.6-444,57.9l-0.6,0L2525.5,4721z"/>
<linearGradient id="SVGID_3_" gradientUnits="userSpaceOnUse" x1="714.2164" y1="1583.8975" x2="4120.6484" y2="3550.6021">
	<stop  offset="0" style="stop-color:#000000"/>
	<stop  offset="0.1016" style="stop-color:#0A0A0A"/>
	<stop  offset="0.286" style="stop-color:#161616"/>
	<stop  offset="0.4707" style="stop-color:#1A1A1A"/>
	<stop  offset="0.6754" style="stop-color:#151515"/>
	<stop  offset="0.9035" style="stop-color:#080808"/>
	<stop  offset="1" style="stop-color:#000000"/>
</linearGradient>
<path class="st3" d="M4141.6,1243.6h-3231V3214c3.5,104.8,19.9,208.7,48.6,308.9c27.3,95.1,74.5,203.1,136.7,312.1
	c15,26.2,60.5,106.1,129.7,201.4c81.8,112.5,168.5,208.4,257.6,284.9c164.7,141.4,369.2,243.3,608,303
	c139.3,34.8,289.7,54.4,434.9,56.7c145.2-2.3,295.5-21.9,434.9-56.7c238.8-59.7,443.3-161.6,608-303
	c89.1-76.5,175.8-172.4,257.6-284.9c69.3-95.3,114.8-175.1,129.7-201.4c62.1-109,109.4-217,136.7-312.1
	c28.7-100.2,45.1-204.1,48.6-308.9V1243.6z"/>
<g>
	<path class="st4" d="M1932,4421.5l-88.3-38.5l-47.3,51.3l-32.4-14.1l186.8-197.8l27.2,11.9l-19.3,270.7l-32.4-14.1L1932,4421.5z
		 M1864.4,4360.5l70.1,30.5l9.7-115.6l-1-0.4L1864.4,4360.5z"/>
	<path class="st4" d="M2221.9,4573.4l-33.7-8.1l-74.4-218.8l-1.1,0.1l-45.4,189.8l-33.7-8.1l59.5-248.9l33.7,8.1l74.4,218.6l1.1-0.1
		l45.3-189.6l33.7,8.1L2221.9,4573.4z"/>
	<path class="st4" d="M2506.1,4568.4c-6.8,9-18.1,16.8-33.7,23.6c-15.6,6.8-35.4,9.2-59.4,7.3c-29.4-2.3-53-14-70.8-35.1
		c-17.7-21-25.4-47-22.9-78l4.2-52.6c2.5-31,13.7-55.5,33.9-73.5c20.1-18,44.8-25.9,74.2-23.6c28.4,2.3,50.2,11.6,65.5,28
		c15.3,16.4,21.7,36.3,19.4,59.6l-0.4,1l-33.1-2.6c1.2-15.5-2.8-28.9-12-40c-9.2-11.1-23.1-17.4-41.5-18.9
		c-19.5-1.5-35.8,4.5-48.9,18.2c-13.1,13.7-20.5,31.7-22.3,54.1l-4.2,52.9c-1.8,22.7,3,41.8,14.5,57.5c11.5,15.7,27,24.3,46.6,25.8
		c15.1,1.2,27.2,0.2,36.3-3c9.1-3.2,16.1-7.3,20.8-12.4l4.6-57.5l-57.8-4.6l2.1-27l92.3,7.3L2506.1,4568.4z"/>
	<path class="st4" d="M2787.7,4474.4c3.4,31.1-3.4,58-20.4,80.6c-17,22.6-40.9,35.6-71.7,39c-29.7,3.3-55-4.3-75.8-22.8
		c-20.8-18.5-33-43.2-36.4-74.3l-5-45.3c-3.4-31,3.1-57.8,19.4-80.5c16.3-22.7,39.3-35.6,69-38.9c30.8-3.4,56.9,4.2,78.4,22.6
		c21.5,18.4,34,43.2,37.4,74.3L2787.7,4474.4z M2748.3,4432.6c-2.6-23.3-10.9-41.7-25.2-55.2c-14.2-13.5-31.9-19.1-53.1-16.8
		c-20,2.2-35.2,11.4-45.5,27.6c-10.3,16.2-14.2,36-11.6,59.3l5,45.6c2.6,23.5,10.7,42.1,24.2,55.7c13.6,13.6,30.4,19.3,50.4,17.1
		c21.3-2.3,37.4-11.6,48.3-27.9c10.9-16.2,15-36.2,12.4-59.8L2748.3,4432.6z"/>
	<path class="st4" d="M2912.2,4526.3l120.9-31l6.7,26.2l-154.4,39.6l-63.6-247.9l33.5-8.6L2912.2,4526.3z"/>
	<path class="st4" d="M3211.6,4381.7l-88.2,38.6l5.5,69.5l-32.4,14.2l-18.2-271.5l27.2-11.9l185.4,198.2l-32.4,14.2L3211.6,4381.7z
		 M3120.9,4389.7l70-30.7l-78.2-85.7l-1,0.4L3120.9,4389.7z"/>
</g>
<linearGradient id="SVGID_4_" gradientUnits="userSpaceOnUse" x1="1103.5837" y1="-141.6004" x2="3948.7415" y2="1501.0521">
	<stop  offset="0" style="stop-color:#000000"/>
	<stop  offset="7.538226e-02" style="stop-color:#0F0F0F"/>
	<stop  offset="0.2069" style="stop-color:#232323"/>
	<stop  offset="0.3388" style="stop-color:#2F2F2F"/>
	<stop  offset="0.4707" style="stop-color:#333333"/>
	<stop  offset="0.6123" style="stop-color:#2E2E2E"/>
	<stop  offset="0.7703" style="stop-color:#212121"/>
	<stop  offset="0.9357" style="stop-color:#0B0B0B"/>
	<stop  offset="1" style="stop-color:#000000"/>
</linearGradient>
<polygon class="st5" points="870.7,1097.7 870.7,261.8 4181.6,261.8 4181.6,1097.7 "/>
<linearGradient id="SVGID_5_" gradientUnits="userSpaceOnUse" x1="910.6797" y1="679.7258" x2="4141.6455" y2="679.7258">
	<stop  offset="0" style="stop-color:#FFFFFF"/>
	<stop  offset="4.897869e-02" style="stop-color:#FFFFFB"/>
	<stop  offset="0.2182" style="stop-color:#FFFFF3"/>
	<stop  offset="0.5" style="stop-color:#FFFFF0"/>
	<stop  offset="0.7818" style="stop-color:#FFFFF3"/>
	<stop  offset="0.951" style="stop-color:#FFFFFB"/>
	<stop  offset="1" style="stop-color:#FFFFFF"/>
</linearGradient>
<rect x="910.7" y="301.8" class="st6" width="3231" height="755.8"/>
<g>
	<path d="M1475,588.2l-4.3-5.3l-7.7-10.1l-8.2-7.2c-8.3-7.4-24.3-11-48-11h-7.2l-3.8,1l-3.4,0.9c-6.1,2.2-9.9,8.6-11.5,19v75.6h51.4
		c3.5,0,5.7-0.3,6.5-1c0.8-0.6,2.5-3,5-7.2l1.4-2.4l1-2.4c3.8-9.3,10.4-13.9,19.7-13.9c10.9,0,17.6,3.2,20.2,9.6
		c2.2,5.1,3.2,16.9,2.9,35.4l-0.5,34.2c-1.3,10.2-6.1,16.6-14.4,19.2c-4.2,1.3-7.2,1.6-9.1,1c-6.4,0-12-3.7-16.8-11l-1-1.4l-1.9-3.4
		c-1-1.9-2-3.4-3.1-4.6c-1.1-1.1-2.7-2-4.8-2.6c-2.1-0.6-4.7-1-7.9-1.2c-3.2-0.2-7.5-0.2-13-0.2h-35.5v92.2c1.3,9,5.3,15,12,18.2
		l2.4,1.4c7.4,4.5,11,10.4,11,17.8c0,1.9-1.3,5.8-3.8,11.5c-2.6,5.4-8.2,8.2-16.8,8.2h-134.9c-4.8,0-8.5-0.7-11-2.2
		c-2.6-1.4-4.6-3.2-6-5.3c-1.4-2.1-2.3-4.2-2.6-6.5c-0.3-2.2-0.5-4.2-0.5-5.8c0-8.3,3.7-14.2,11-17.8l2.9-1.4
		c6.4-3.5,10.2-9.6,11.5-18.2V569.5c-1.6-9-5.4-15-11.5-18.2l-1.4-0.5l-1.4-1c-7.4-3.5-11-9.4-11-17.8c0-13.1,6.7-19.7,20.2-19.7
		h213.6c19.5,0,32.5,2.2,38.9,6.7c6.4,4.5,11,16.2,13.9,35l3.4,22.6c1,6.7-0.5,12.6-4.3,17.5c-3.8,5-9.1,7.4-15.8,7.4
		C1490.5,601.7,1482,597.2,1475,588.2z"/>
	<path d="M1826.8,826.8c-3.2,7.7-6.4,13-9.6,15.8c-3.2,2.9-8.5,4.6-15.8,5.3l-7.2,0.5h-213.6c-4.8,0-8.5-0.7-11-2.2
		c-2.6-1.4-4.6-3.2-6-5.3c-1.4-2.1-2.3-4.2-2.6-6.5c-0.3-2.2-0.5-4.2-0.5-5.8c0-8.3,3.7-14.2,11-17.8l2.9-1.4
		c6.4-3.5,10.2-9.4,11.5-17.8V569c-1.3-8.3-5.1-14.2-11.5-17.8l-1.4-0.5l-1.4-1c-7.4-3.5-11-9.4-11-17.8c0-13.1,6.7-19.7,20.2-19.7
		h134.9c9,0,15.4,4,19.2,12c1,2.9,1.4,5.6,1.4,8.2c0,7-3.7,12.8-11,17.3l-2.4,1.4c-6.4,2.9-10.4,9-12,18.2l0.5,216
		c0,8.6,1.8,14.2,5.3,16.8c3.5,2.2,13.8,3.4,30.7,3.4c9.3,0,21.1-9.9,35.5-29.8l5.3-7.2l7.7-12c2.6-5.1,7.8-8.3,15.8-9.6
		c2.6-1,5.6-1,9.1,0c13.8,3.2,20.6,10.9,20.6,23c0,6.4-2.4,17.4-7.2,33.1L1826.8,826.8z"/>
	<path d="M2158.5,848.4h-254.9c-4.8,0-8.5-0.7-11-2.2c-2.6-1.4-4.6-3.2-6-5.3c-1.4-2.1-2.3-4.2-2.6-6.5c-0.3-2.2-0.5-4.2-0.5-5.8
		c0-8.3,3.7-14.2,11-17.8l2.9-1.4c6.4-3.5,10.2-9.6,11.5-18.2V569.5c-1.6-9-5.4-15-11.5-18.2l-1.4-0.5l-1.4-1
		c-7.4-3.5-11-9.4-11-17.8c0-13.1,6.7-19.7,20.2-19.7h232.8c25.3,0,40.6,2.7,46.1,8.2c5.8,5.4,8.6,20.6,8.6,45.6
		c0,19.8-9.1,29.8-27.4,29.8c-7.7,0-19.4-8.3-35-25c-8.3-8.3-18.4-13-30.2-13.9l-6.7-0.5l-13.9-0.5h-17.3l-2.4,0.5l-5.3,1.4
		c-10.2,2.9-15.4,10.1-15.4,21.6v66.2h19.7l12.5,0.5h24.5c9.9,0,17-3.5,21.1-10.6l1.4-2.4l1.9-2.4l3.4-4.3c4.2-3.5,9.8-5.3,16.8-5.3
		c11.2,0,18.1,6.1,20.6,18.2l-0.5,24V691c0,6.1-0.2,9.3-0.5,9.6l-4.3,8.6c-2.6,4.5-8.8,6.7-18.7,6.7c-6.4,0-12.3-2.7-17.8-8.2
		l-4.8-4.8c-6.1-5.8-12.6-9.4-19.7-11c-0.6-0.3-2.9-0.5-6.7-0.5c-3.8,0-9.4-0.2-16.8-0.5l-19.7-0.5h-13.9v77.8
		c1.3,11.5,4.8,19.8,10.6,25c6.7,5.8,17.9,8.6,33.6,8.6c17,0,28.8-1.1,35.5-3.4c11.2-2.9,21.1-9.1,29.8-18.7l4.3-4.8l4.3-5.3
		c5.1-6.7,11.5-10.1,19.2-10.1c11.5,0,20,2.7,25.4,8.2c3.2,3.2,4.8,8.5,4.8,15.8c0,3.5-0.6,9.2-1.7,17c-1.1,7.8-2.8,17.8-5,30
		C2194.6,842.5,2181.8,848.4,2158.5,848.4z"/>
	<path d="M2612.1,771.1c0,15.7-10.4,31.7-31.2,48c-32.3,25-71.7,36.8-118.1,35.5c-42.2-1.6-78.9-11.2-109.9-28.8
		c-25.9-15-46.7-36-62.4-62.9c-15-26.6-22.6-55-22.6-85.4c0-36.2,14.1-71.4,42.2-105.6c28.2-34.2,59.8-54.1,95-59.5l48.5-7.2
		c1.6-0.3,7.2-0.5,16.8-0.5c26.2,0,49,3.7,68.2,11l11,4.3c24.6,9.6,39.7,17.6,45.1,24l7.2,11l1,7.2c1.3,9.6,2.2,17.5,2.9,23.8
		c0.6,6.2,1,10.6,1,13.2c0,5.1-0.5,9.3-1.4,12.5c-1.9,10.6-9.6,15.8-23,15.8c-6.1,0-12.2-1.7-18.2-5c-6.1-3.4-10.1-7.4-12-12.2
		l-5.3-14.4c-1.9-4.8-4.5-9.4-7.7-13.9c-3.2-4.5-6.9-8.6-11-12.5c-4.2-3.8-8.5-7-13-9.6c-4.5-2.6-8.8-4.3-13-5.3
		c-11.8-2.6-20.5-3.8-25.9-3.8c-17.9,0-33.9,6.4-48,19.2c-13.1,12.2-22.1,27.2-26.9,45.1c-4.5,17.3-6.7,37.1-6.7,59.5v21.1
		c0,6.7,3.2,21.4,9.6,44.2c2.2,8.6,5.8,16.5,10.8,23.5c5,7,10.8,13.2,17.5,18.5c6.7,5.3,14.2,9.4,22.3,12.2
		c8.2,2.9,16.6,4.3,25.2,4.3c24.3,0,45.4-6.9,63.4-20.6c4.2-3.2,9-7.5,14.4-13c13.1-13.1,23.4-19.7,30.7-19.7
		c10.2,0,17.6,5.8,22.1,17.3C2611.6,765,2612.1,767.9,2612.1,771.1z"/>
	<path d="M3033,848.4h-134.4c-6.7,0-11.9-2.1-15.6-6.2c-3.7-4.2-5.5-8.8-5.5-13.9c0-8,3.7-13.8,11-17.3l2.9-1.4
		c7-3.2,11-9.3,12-18.2l0.5-4.8v-96h-85.4v100.8c1.3,9,5.3,15,12,18.2l2.4,1.4c7.4,4.5,11,10.4,11,17.8c0,1.9-1.3,5.8-3.8,11.5
		c-2.6,5.4-8.2,8.2-16.8,8.2h-134.9c-4.8,0-8.5-0.7-11-2.2c-2.6-1.4-4.6-3.2-6-5.3c-1.4-2.1-2.3-4.2-2.6-6.5
		c-0.3-2.2-0.5-4.2-0.5-5.8c0-8.3,3.7-14.2,11-17.8l2.9-1.4c6.4-3.5,10.2-9.6,11.5-18.2V569.5c-1.6-9-5.4-15-11.5-18.2l-1.4-0.5
		l-1.4-1c-7.4-3.5-11-9.4-11-17.8c0-13.1,6.7-19.7,20.2-19.7h134.9c9,0,15.4,4,19.2,11.9c1,2.9,1.4,5.6,1.4,8.1
		c0,7-3.7,12.7-11,17.2l-2.4,1.4c-6.4,2.9-10.4,8.9-12,18.1v73.4h85.4l-0.5-73.9c-1-9-5-15-12-18.2l-1.4-0.5l-1.4-1
		c-7.4-3.8-11-9.8-11-17.8c0-13.1,7-19.7,21.1-19.7H3033c13.8,0,20.6,6.7,20.6,20.2c0,8-3.7,13.8-11,17.3l-2.9,1.4
		c-6.7,3.2-10.6,9.3-11.5,18.2l-0.5,4.8l0.5,217.6c1,8.4,4.8,14.5,11.5,18.3l1.4,0.5l1.4,1c7.4,4.8,11,10.8,11,17.8
		c0,2.9-0.5,5.5-1.4,7.7C3049,844.4,3042.6,848.4,3033,848.4z"/>
	<path d="M3443.5,848.4h-143c-9,0-15.4-4-19.2-12c-1-2.9-1.4-5.6-1.4-8.2c0-7,3.7-12.8,11-17.3l2.4-1.4l3.4-1.9
		c6.1-3.2,9.1-8.2,9.1-14.9c0-5.4-2.4-16.6-7.2-33.6l-3.8-13.4h-107l-3.4,9.6c-5.8,16.3-8.6,27.5-8.6,33.6c0,9.9,4.2,16.8,12.5,20.6
		l2.4,1.4c7.4,4.5,11,10.4,11,17.8c0,13.1-6.9,19.7-20.6,19.7h-74.4c-12.8,0-19.2-6.6-19.2-19.7c0-8.3,3.4-14.2,10.1-17.8l2.9-1.4
		c4.2-1.9,7.7-6.2,10.6-13l3.8-8.6l1-1.4l61-162.2c15.7-40.6,30.7-70.9,45.1-90.7c8-10.9,17.6-18.1,28.8-21.6
		c7-2.2,19.2-3.4,36.5-3.4c13.4,0,23.8,3.7,31.2,11l4.3,4.3c9.9,11.8,23.4,37.6,40.3,77.3c1.6,3.5,4,9.2,7.2,17
		c3.2,7.8,7.2,17.7,12,29.5c3.8,9.3,7.6,18.7,11.3,28.3c3.7,9.6,7.3,19.5,10.8,29.8l18.2,51.4c1.6,4.2,3.3,8.6,5,13.4
		c1.8,4.8,3.8,10.1,6,15.8l1.4,2.9l3.4,7.2c2.9,6.4,6.9,10.7,12,13l1.4,0.5l1.4,1c7.4,4.8,11,10.7,11,17.8c0,2.9-0.5,5.4-1.4,7.7
		C3459.5,844.4,3453.1,848.4,3443.5,848.4z M3266.8,663.1l-4.8-12.5l-5.8-15.4l-3.4-10.1c-1.6-5.1-5.4-13.4-11.5-25
		c-7,13.8-14.6,30.9-22.6,51.4l-4.3,11l-3.4,9.1l-3.8,11.5l-3.4,12h72.5L3266.8,663.1z"/>
	<path d="M3753.1,831.1c-29.4,15.4-62.6,23-99.4,23c-22.4,0-46.2-2.9-71.5-8.6c-9.9-2.6-21.8-6.9-35.5-13c-32-14.4-48-33.1-48-56.2
		c0-11.2,3-20.1,8.9-26.6c5.9-6.6,13.8-9.8,23.8-9.8c9.9,0,18.7,3.8,26.4,11.5c2.2,2.2,5.3,6,9.1,11.3c3.8,5.3,8.8,12.1,14.9,20.4
		c1.6,2.9,3.8,5.4,6.7,7.7c11.5,11.5,29,17.3,52.3,17.3c11.2,0,21.1-1.4,29.8-4.3l5.8-2.9c16-8.3,24-17.6,24-27.8
		c1.9-17.9-9-29.1-32.6-33.6l-50.4-9.6c-2.6-0.3-4.9-0.6-7-1c-2.1-0.3-4.2-0.8-6.5-1.4c-3.2-1.3-6.4-2.4-9.6-3.4
		c-3.2-1-6.4-2.1-9.6-3.4c-11.2-4.2-23-10.4-35.5-18.7c-28.2-19.2-42.2-45.3-42.2-78.2c0-34.6,15.7-63.4,47-86.4
		c28.2-21.1,64-31.7,107.5-31.7c6.4,0,11.7,0.1,15.8,0.2c4.2,0.2,7,0.4,8.6,0.7c3.8,0.3,9.6,1.2,17.3,2.6s17.3,3.6,28.8,6.5
		c9.3,2.2,17.8,4.6,25.4,7.2c7.7,2.6,14.7,5.1,21.1,7.7c3.2,1.6,5.9,3,8.2,4.3c2.2,1.3,4,3,5.3,5.3c1.3,2.2,2.2,5,2.9,8.2
		c0.6,3.2,1.3,7.4,1.9,12.5c0.6,5.1,1.1,9.2,1.4,12.2c0.3,3,0.5,5.2,0.5,6.5v6.2c0,22.4-7.8,33.6-23.5,33.6c-8,0-14.5-2-19.4-6
		c-5-4-9.8-12.9-14.6-26.6c-1.6-5.1-7.7-13.9-18.2-26.4c-7.4-8.6-21.4-13-42.2-13c-16.3,0-28.8,3.1-37.4,9.4
		c-8.6,6.2-13,14.5-13,24.7c0,16,10.7,26.6,32.2,31.7l9.6,2.4l7.2,1.4l2.9,1l71,20.6c1.6,0.3,3,0.6,4.1,1c1.1,0.3,2,0.6,2.6,1
		c22.1,5.4,37.9,14.3,47.5,26.6c9.6,12.3,14.4,30,14.4,53c0,10.9-1.6,22.2-4.8,34.1C3808.3,787.3,3787,812.9,3753.1,831.1z"/>
</g>
<polygon class="st7" points="1762.9,3147.4 1762.9,3643.4 2054.4,4044.7 2526.2,4198 2997.9,4044.7 3289.5,3643.4 3289.5,3147.4 
	2997.9,2746.1 2526.2,2592.8 2054.4,2746.1 "/>
<path class="st8" d="M2525.2,4191.8c-108.7,0-214.4-21.3-313.9-63.4c-96-40.6-182.2-98.6-256.2-172.4
	c-74-73.8-132.1-159.9-172.7-255.8c-42.1-99.4-63.5-204.8-63.5-313.4s21.4-214,63.5-313.4c40.6-95.9,98.7-181.9,172.7-255.8
	c74-73.8,160.2-131.8,256.2-172.4c99.6-42,205.2-63.4,313.9-63.4s214.4,21.3,313.9,63.4c96,40.6,182.2,98.6,256.2,172.4
	c74,73.8,132.1,159.9,172.7,255.8c42.1,99.4,63.5,204.8,63.5,313.4s-21.4,214-63.5,313.4c-40.6,95.9-98.7,181.9-172.7,255.8
	c-74,73.8-160.2,131.8-256.2,172.4C2739.5,4170.5,2633.9,4191.8,2525.2,4191.8z"/>
<g>
	<linearGradient id="SVGID_6_" gradientUnits="userSpaceOnUse" x1="1843.9783" y1="2994.4124" x2="3208.3433" y2="3782.1289">
		<stop  offset="0" style="stop-color:#B8860B"/>
		<stop  offset="0.1538" style="stop-color:#CFB53B"/>
		<stop  offset="0.2582" style="stop-color:#FFDF00"/>
		<stop  offset="0.5769" style="stop-color:#FCC200"/>
		<stop  offset="1" style="stop-color:#B8860B"/>
	</linearGradient>
	<path class="st9" d="M2576.7,2602.7c-29.4-24-71.7-24-101.1,0c-69.3,56.4-137.2,82.8-173.9,94.8c-75.9,24.6-144.5,28.3-196.4,25.5
		c-37.9-2.1-72.1,22.7-81.8,59.4c-22.9,86.4-62.3,147.7-85,178.9c-46.9,64.5-100.3,107.9-143.9,136.1c-31.9,20.6-45,60.8-31.3,96.2
		c32.2,83.4,36.4,156.1,36.4,194.7c0,79.8-17.7,146.2-36.4,194.6c-13.7,35.4-0.7,75.6,31.2,96.2c75.1,48.5,121.2,104.9,143.9,136.1
		c46.9,64.5,71.6,128.7,85,178.9c9.8,36.7,43.9,61.5,81.8,59.4c89.3-4.9,159.7,13.6,196.4,25.6c75.9,24.7,133.6,62,173.9,94.8
		c29.5,24,71.7,24,101.1,0c40.3-32.8,98-70.1,173.9-94.8c36.7-11.9,107.1-30.4,196.4-25.6c37.9,2.1,72.1-22.7,81.8-59.4
		c13.3-50.2,38.1-114.3,85-178.9c22.7-31.2,68.8-87.6,143.9-136.1c31.9-20.6,44.9-60.8,31.2-96.2c-18.7-48.4-36.4-114.9-36.4-194.6
		c0-38.6,4.2-111.3,36.4-194.7c13.7-35.4,0.6-75.6-31.3-96.2c-43.6-28.2-97-71.5-143.9-136.1c-22.7-31.2-62.1-92.5-85-178.9
		c-9.7-36.7-43.9-61.5-81.8-59.4c-51.8,2.8-120.5-0.9-196.4-25.5C2713.9,2685.6,2646.1,2659.2,2576.7,2602.7z"/>
	<linearGradient id="SVGID_7_" gradientUnits="userSpaceOnUse" x1="1748.0455" y1="3388.2905" x2="3304.2798" y2="3388.2905">
		<stop  offset="0" style="stop-color:#D4AF37"/>
		<stop  offset="0.1538" style="stop-color:#CFB53B"/>
		<stop  offset="0.2582" style="stop-color:#FFDF00"/>
		<stop  offset="0.4396" style="stop-color:#D4AF37"/>
		<stop  offset="0.5769" style="stop-color:#FCC200"/>
		<stop  offset="0.8571" style="stop-color:#FFDF00"/>
		<stop  offset="1" style="stop-color:#D4AF37"/>
	</linearGradient>
	<path class="st10" d="M3039.9,3957.5c8.3-24.2,19.2-50.5,33.6-77.7 M3113.1,2960.4c0.2,0.3,0.4,0.6,0.7,0.9
		c15.8,21.7,32.2,41,48.8,58.1 M3072.6,2894.9c14.8,28.3,29.6,50.4,40.5,65.5 M3164.4,3755.4c-22.4,22.9-38.9,43.8-49.9,58.9
		 M3039.2,2817.1c10,29.6,21.7,55.7,33.3,77.8 M3039.2,2817.1c-3.7-11-7.3-22.6-10.5-34.6c-4.9-18.6-16.2-34.2-31-44.7
		 M2606.2,2625.1c25.5,18,50.3,32.1,72.7,43.2 M2750.2,2697.4c0.1,0,0.3,0.1,0.4,0.1c25.7,8.4,50.6,14.3,74.3,18.4 M2824.9,2715.9
		c30.3,5.2,58.6,7.5,84.1,7.9 M2997.8,2737.7c-14.4-10.2-32.1-15.7-50.8-14.7c-11.8,0.6-24.5,0.9-37.9,0.7 M2678.9,2668.3
		c28.7,14.2,53.6,23.3,71.3,29.1 M3277.1,3227.3c-9.3,29.9-15.2,57.9-18.9,82.7 M3290.7,3635.3c5.1-16.7,4.8-35.1-1.8-52.4
		c-4.3-11.2-8.6-23.5-12.6-36.6 M3258.3,3309.9c-4.7,31.7-5.7,58.1-5.8,76.9 M3228.3,3699.5c-25.2,18.7-46.4,37.9-63.9,55.9
		 M3257.8,3463.8c4.3,30.4,10.9,58.1,18.4,82.5 M3277.1,3227.3c3.4-11,7.3-22.2,11.7-33.7c7-18.1,7-37.5,1-54.9 M3252.5,3386.9
		c0,0.5,0,0.9,0,1.4c0,26.7,2,52,5.3,75.5 M3289.9,3138.7c-5.7-16.5-16.7-31.3-32.3-41.3c-10.1-6.5-20.7-13.9-31.7-22.1
		 M3228.3,3699.5c9.3-6.9,19-13.7,29.4-20.4c16.3-10.6,27.7-26.2,33.1-43.8 M3162.6,3019.4c21.4,22,42.9,40.5,63.4,55.9
		 M1937.9,3814.3c-11.1-15.2-27.5-36-49.9-58.9 M1794.5,3463.8c3.3-23.6,5.3-48.8,5.3-75.5c0-0.4,0-0.9,0-1.4 M1826.4,3075.3
		c-10.9,8.2-21.6,15.6-31.7,22.1c-15.6,10.1-26.6,24.8-32.3,41.3 M2606.2,2625.1c-9.8-6.9-19.6-14.3-29.5-22.4
		c-14.7-12-32.6-18-50.6-18 M1826.4,3075.3c20.4-15.4,42-33.8,63.4-55.9 M1889.7,3019.4c16.6-17.1,33.1-36.4,48.8-58.1
		c0.2-0.3,0.4-0.6,0.7-0.9 M1762.4,3138.7c-6,17.4-6,36.7,1,54.9c4.4,11.5,8.3,22.7,11.7,33.7 M1799.8,3386.9
		c0-18.8-1.1-45.3-5.8-76.9 M3114.4,3814.3c-0.2,0.3-0.4,0.6-0.7,0.9c-15.8,21.7-29.1,43.4-40.2,64.6 M1776.1,3546.3
		c7.5-24.5,14.1-52.1,18.4-82.5 M1794.1,3309.9c-3.7-24.8-9.5-52.8-18.9-82.7 M1939.2,2960.4c11-15.2,25.7-37.2,40.5-65.5
		 M2302.1,2697.4c17.7-5.8,42.6-14.9,71.3-29.1 M2226.3,4060.5c-24.7-4.2-53.1-7.3-84.5-7.7 M2301.3,4078.9
		c-17.8-5.8-43.4-13-75-18.4 M2373.4,2668.3c22.4-11.1,47.1-25.2,72.7-43.2 M2227.4,2715.9c23.7-4.1,48.6-10,74.3-18.4
		c0.1,0,0.3-0.1,0.4-0.1 M2143.3,2723.8c-13.4,0.2-26.1-0.1-37.9-0.7c-18.7-1-36.4,4.5-50.8,14.7 M2054.5,2737.7
		c-14.8,10.5-26,26.1-31,44.7c-3.2,12-6.7,23.6-10.5,34.6 M1979.8,2894.9c11.6-22.2,23.3-48.2,33.3-77.8 M2143.3,2723.8
		c25.6-0.4,53.9-2.6,84.1-7.9 M2012.4,3957.5c-8.3-24.2-19.2-50.5-33.6-77.7 M1776.1,3546.3c-4,13.1-8.3,25.3-12.6,36.6
		c-6.7,17.3-7,35.7-1.8,52.4 M2526.2,2584.8c-17.9,0-35.8,6-50.6,18c-9.9,8.1-19.8,15.5-29.5,22.4 M2910.6,4052.8
		c11.7-0.2,23.9,0.1,36.4,0.7c19.2,1.1,37.5-4.8,52.1-15.7 M2910.6,4052.8c-31.4,0.4-59.8,3.5-84.5,7.7 M2826.1,4060.5
		c-31.7,5.4-57.3,12.7-75,18.4 M2999.1,4037.8c14.2-10.5,24.9-25.7,29.7-43.8c3.1-11.5,6.7-23.8,11.1-36.6 M2445.8,4151.3
		c10.8,7.6,20.7,15.2,29.8,22.6c29.5,24,71.7,24,101.1,0c9-7.4,19-14.9,29.8-22.6 M2751,4078.9c-0.1,0-0.3,0.1-0.4,0.1
		c-25.8,8.4-49.5,18.3-71.2,28.9 M2445.8,4151.3c-21-14.8-45.2-29.7-72.9-43.3 M1888,3755.4c-17.5-17.9-38.7-37.1-63.9-55.9
		 M2012.4,3957.5c4.4,12.8,8.1,25.1,11.1,36.6c4.8,18.1,15.5,33.3,29.7,43.8 M1978.8,3879.7c-11.2-21.1-24.4-42.8-40.2-64.6
		c-0.2-0.3-0.4-0.6-0.7-0.9 M2372.9,4108c-21.6-10.7-45.4-20.5-71.2-28.9c-0.1,0-0.3-0.1-0.4-0.1 M2053.2,4037.8
		c14.6,10.8,32.9,16.7,52.1,15.7c12.5-0.7,24.7-0.9,36.4-0.7 M2679.4,4108c-27.7,13.6-52,28.5-72.9,43.3 M1761.6,3635.3
		c5.4,17.5,16.8,33.2,33.1,43.8c10.3,6.7,20.1,13.5,29.4,20.4 M2526.2,2584.8v447.4 M2446.1,2625.1l43,409 M2452.4,3039.9l-79-371.6
		 M2302.1,2697.4l114.4,352.1 M2227.4,2715.9l154.4,346.9 M2348.8,3079.7l-205.5-355.9 M2054.5,2737.7l263.1,362.1 M2013.1,2817.1
		l275.7,306.2 M1979.8,2894.9l282.8,254.6 M2239.1,3178.4l-299.9-217.9 M1889.7,3019.4l329.2,190.1 M2202.1,3242.6l-375.7-167.3
		 M1762.4,3138.7l426.4,138.5 M2179.1,3313.1l-404-85.9 M1794.1,3309.9l379.3,39.9 M1799.8,3386.9h371.6 M1794.5,3463.8l378.8-39.8
		 M2179.1,3460.7l-403.1,85.7 M2188.8,3496.5l-427.2,138.8 M2202.1,3531.2l-378,168.3 M2218.9,3564.3l-331,191.1 M1937.9,3814.3
		l301.3-218.9 M1978.8,3879.7l283.7-255.5 M2288.8,3650.5l-276.4,307 M2317.6,3673.9l-264.4,363.9 M2348.8,3694.1l-207.1,358.6
		 M2381.9,3711l-155.6,349.5 M2416.5,3724.3l-115.2,354.6 M2452.4,3733.9l-79.5,374 M2489.1,3739.7l-43.3,411.6 M2526.2,3741.7
		v450.1 M2563.2,3739.7l43.3,411.6 M2599.9,3733.9l79.5,374 M2751,4078.9l-115.2-354.6 M2670.5,3711l155.6,349.5 M2703.5,3694.1
		l207.1,358.6 M2999.1,4037.8l-264.4-363.9 M2763.5,3650.5l276.4,307 M2789.8,3624.3l283.7,255.5 M3114.4,3814.3l-301.3-218.9
		 M3164.4,3755.4l-331-191.1 M2850.3,3531.2l378,168.3 M2863.6,3496.5l427.2,138.8 M3276.2,3546.3l-403.1-85.7 M2879,3424
		l378.8,39.8 M2880.9,3386.9h371.6 M2879,3349.8l379.3-39.9 M3277.1,3227.3l-404,85.9 M2863.6,3277.3l426.4-138.5 M2850.3,3242.6
		l375.7-167.3 M3162.6,3019.4l-329.2,190.1 M3113.1,2960.4l-299.9,217.9 M2789.8,3149.5l282.8-254.6 M2763.5,3123.2l275.7-306.2
		 M2997.8,2737.7l-263.1,362.1 M2703.5,3079.7l205.5-355.9 M2670.5,3062.8l154.4-346.9 M2750.2,2697.4l-114.4,352.1 M2599.9,3039.9
		l79-371.6 M2563.2,3034.1l43-409"/>
	<linearGradient id="SVGID_8_" gradientUnits="userSpaceOnUse" x1="2121.1353" y1="2686.7393" x2="2931.1938" y2="4089.802">
		<stop  offset="0" style="stop-color:#B8860B"/>
		<stop  offset="0.1538" style="stop-color:#CFB53B"/>
		<stop  offset="0.2582" style="stop-color:#FFDF00"/>
		<stop  offset="1" style="stop-color:#B8860B"/>
	</linearGradient>
	<path class="st11" d="M2576.7,2602.7c-29.4-24-71.7-24-101.1,0c-69.3,56.4-137.2,82.8-173.9,94.8c-75.9,24.6-144.5,28.3-196.4,25.5
		c-37.9-2.1-72.1,22.7-81.8,59.4c-22.9,86.4-62.3,147.7-85,178.9c-46.9,64.5-100.3,107.9-143.9,136.1c-31.9,20.6-45,60.8-31.3,96.2
		c32.2,83.4,36.4,156.1,36.4,194.7c0,79.8-17.7,146.2-36.4,194.6c-13.7,35.4-0.7,75.6,31.2,96.2c75.1,48.5,121.2,104.9,143.9,136.1
		c46.9,64.5,71.6,128.7,85,178.9c9.8,36.7,43.9,61.5,81.8,59.4c89.3-4.9,159.7,13.6,196.4,25.6c75.9,24.7,133.6,62,173.9,94.8
		c29.5,24,71.7,24,101.1,0c40.3-32.8,98-70.1,173.9-94.8c36.7-11.9,107.1-30.4,196.4-25.6c37.9,2.1,72.1-22.7,81.8-59.4
		c13.3-50.2,38.1-114.3,85-178.9c22.7-31.2,68.8-87.6,143.9-136.1c31.9-20.6,44.9-60.8,31.2-96.2c-18.7-48.4-36.4-114.9-36.4-194.6
		c0-38.6,4.2-111.3,36.4-194.7c13.7-35.4,0.6-75.6-31.3-96.2c-43.6-28.2-97-71.5-143.9-136.1c-22.7-31.2-62.1-92.5-85-178.9
		c-9.7-36.7-43.9-61.5-81.8-59.4c-51.8,2.8-120.5-0.9-196.4-25.5C2713.9,2685.6,2646.1,2659.2,2576.7,2602.7z"/>
	<circle class="st12" cx="2526.2" cy="3388.3" r="536.3"/>
	<radialGradient id="SVGID_9_" cx="2526.1624" cy="3388.29" r="356.3036" gradientUnits="userSpaceOnUse">
		<stop  offset="0" style="stop-color:#FFFAFA"/>
		<stop  offset="1" style="stop-color:#FFFFE7"/>
	</radialGradient>
	<path class="st13" d="M2526.2,3744.6c-95.2,0-184.6-37.1-251.9-104.4c-67.3-67.3-104.4-156.8-104.4-251.9s37.1-184.6,104.4-251.9
		c67.3-67.3,156.8-104.4,251.9-104.4s184.6,37.1,251.9,104.4c67.3,67.3,104.4,156.8,104.4,251.9s-37.1,184.6-104.4,251.9
		C2710.8,3707.5,2621.3,3744.6,2526.2,3744.6z"/>
	<g>
		<g>
			<path class="st14" d="M2440.8,3285.9v119.5c0,47.1,38.2,85.4,85.4,85.4s85.4-38.2,85.4-85.4v-119.5H2440.8z"/>
			<path class="st15" d="M2547.7,3382.1c0,11.9-9.7,21.6-21.6,21.6c-11.9,0-21.6-9.7-21.6-21.6c0-11.9,9.7-21.6,21.6-21.6
				C2538.1,3360.5,2547.7,3370.2,2547.7,3382.1z"/>
			<path class="st15" d="M2506.4,3339c0,11.9-9.7,21.6-21.6,21.6s-21.6-9.7-21.6-21.6c0-11.9,9.7-21.6,21.6-21.6
				S2506.4,3327,2506.4,3339z"/>
			<path class="st15" d="M2589.1,3339c0,11.9-9.7,21.6-21.6,21.6s-21.6-9.7-21.6-21.6c0-11.9,9.7-21.6,21.6-21.6
				S2589.1,3327,2589.1,3339z"/>
			<path class="st15" d="M2506.4,3425.2c0,11.9-9.7,21.6-21.6,21.6s-21.6-9.7-21.6-21.6c0-11.9,9.7-21.6,21.6-21.6
				S2506.4,3413.3,2506.4,3425.2z"/>
			<path class="st15" d="M2589.1,3425.2c0,11.9-9.7,21.6-21.6,21.6s-21.6-9.7-21.6-21.6c0-11.9,9.7-21.6,21.6-21.6
				S2589.1,3413.3,2589.1,3425.2z"/>
		</g>
		<g>
			<path class="st14" d="M2270.1,3285.9v119.5c0,47.1,38.2,85.4,85.4,85.4s85.4-38.2,85.4-85.4v-119.5H2270.1z"/>
			<path class="st15" d="M2377,3382.1c0,11.9-9.7,21.6-21.6,21.6c-11.9,0-21.6-9.7-21.6-21.6c0-11.9,9.7-21.6,21.6-21.6
				C2367.3,3360.5,2377,3370.2,2377,3382.1z"/>
			<path class="st15" d="M2335.7,3339c0,11.9-9.7,21.6-21.6,21.6s-21.6-9.7-21.6-21.6c0-11.9,9.7-21.6,21.6-21.6
				S2335.7,3327,2335.7,3339z"/>
			<path class="st15" d="M2418.3,3339c0,11.9-9.7,21.6-21.6,21.6c-11.9,0-21.6-9.7-21.6-21.6c0-11.9,9.7-21.6,21.6-21.6
				C2408.7,3317.4,2418.3,3327,2418.3,3339z"/>
			<path class="st15" d="M2335.7,3425.2c0,11.9-9.7,21.6-21.6,21.6s-21.6-9.7-21.6-21.6c0-11.9,9.7-21.6,21.6-21.6
				S2335.7,3413.3,2335.7,3425.2z"/>
			<path class="st15" d="M2418.3,3425.2c0,11.9-9.7,21.6-21.6,21.6c-11.9,0-21.6-9.7-21.6-21.6c0-11.9,9.7-21.6,21.6-21.6
				C2408.7,3403.6,2418.3,3413.3,2418.3,3425.2z"/>
		</g>
		<g>
			<path class="st14" d="M2611.5,3285.9v119.5c0,47.1,38.2,85.4,85.4,85.4s85.4-38.2,85.4-85.4v-119.5H2611.5z"/>
			<path class="st15" d="M2718.5,3382.1c0,11.9-9.7,21.6-21.6,21.6c-11.9,0-21.6-9.7-21.6-21.6c0-11.9,9.7-21.6,21.6-21.6
				C2708.8,3360.5,2718.5,3370.2,2718.5,3382.1z"/>
			<path class="st15" d="M2677.1,3339c0,11.9-9.7,21.6-21.6,21.6s-21.6-9.7-21.6-21.6c0-11.9,9.7-21.6,21.6-21.6
				S2677.1,3327,2677.1,3339z"/>
			<path class="st15" d="M2759.8,3339c0,11.9-9.7,21.6-21.6,21.6s-21.6-9.7-21.6-21.6c0-11.9,9.7-21.6,21.6-21.6
				S2759.8,3327,2759.8,3339z"/>
			<path class="st15" d="M2677.1,3425.2c0,11.9-9.7,21.6-21.6,21.6s-21.6-9.7-21.6-21.6c0-11.9,9.7-21.6,21.6-21.6
				S2677.1,3413.3,2677.1,3425.2z"/>
			<path class="st15" d="M2759.8,3425.2c0,11.9-9.7,21.6-21.6,21.6s-21.6-9.7-21.6-21.6c0-11.9,9.7-21.6,21.6-21.6
				S2759.8,3413.3,2759.8,3425.2z"/>
		</g>
		<g>
			<path class="st14" d="M2440.8,3081.1v119.5c0,47.1,38.2,85.4,85.4,85.4s85.4-38.2,85.4-85.4v-119.5H2440.8z"/>
			<path class="st15" d="M2547.7,3177.2c0,11.9-9.7,21.6-21.6,21.6c-11.9,0-21.6-9.7-21.6-21.6c0-11.9,9.7-21.6,21.6-21.6
				C2538.1,3155.7,2547.7,3165.3,2547.7,3177.2z"/>
			<path class="st15" d="M2506.4,3134.1c0,11.9-9.7,21.6-21.6,21.6s-21.6-9.7-21.6-21.6s9.7-21.6,21.6-21.6
				S2506.4,3122.2,2506.4,3134.1z"/>
			<path class="st15" d="M2589.1,3134.1c0,11.9-9.7,21.6-21.6,21.6s-21.6-9.7-21.6-21.6s9.7-21.6,21.6-21.6
				S2589.1,3122.2,2589.1,3134.1z"/>
			<path class="st15" d="M2506.4,3220.3c0,11.9-9.7,21.6-21.6,21.6s-21.6-9.7-21.6-21.6c0-11.9,9.7-21.6,21.6-21.6
				S2506.4,3208.4,2506.4,3220.3z"/>
			<path class="st15" d="M2589.1,3220.3c0,11.9-9.7,21.6-21.6,21.6s-21.6-9.7-21.6-21.6c0-11.9,9.7-21.6,21.6-21.6
				S2589.1,3208.4,2589.1,3220.3z"/>
		</g>
		<g id="XMLID_1_">
			<path class="st14" d="M2440.8,3490.6v119.5c0,47.1,38.2,85.4,85.4,85.4s85.4-38.2,85.4-85.4v-119.5H2440.8z"/>
			<path class="st15" d="M2547.7,3586.8c0,11.9-9.7,21.6-21.6,21.6c-11.9,0-21.6-9.7-21.6-21.6c0-11.9,9.7-21.6,21.6-21.6
				C2538.1,3565.2,2547.7,3574.9,2547.7,3586.8z"/>
			<path class="st15" d="M2506.4,3543.7c0,11.9-9.7,21.6-21.6,21.6s-21.6-9.7-21.6-21.6c0-11.9,9.7-21.6,21.6-21.6
				S2506.4,3531.7,2506.4,3543.7z"/>
			<path class="st15" d="M2589.1,3543.7c0,11.9-9.7,21.6-21.6,21.6s-21.6-9.7-21.6-21.6c0-11.9,9.7-21.6,21.6-21.6
				S2589.1,3531.7,2589.1,3543.7z"/>
			<path class="st15" d="M2506.4,3629.9c0,11.9-9.7,21.6-21.6,21.6s-21.6-9.7-21.6-21.6c0-11.9,9.7-21.6,21.6-21.6
				S2506.4,3618,2506.4,3629.9z"/>
			<path class="st15" d="M2589.1,3629.9c0,11.9-9.7,21.6-21.6,21.6s-21.6-9.7-21.6-21.6s9.7-21.6,21.6-21.6
				S2589.1,3618,2589.1,3629.9z"/>
		</g>
	</g>
</g>
<linearGradient id="SVGID_10_" gradientUnits="userSpaceOnUse" x1="3381.0313" y1="2434.2756" x2="1671.2938" y2="724.5381">
	<stop  offset="0" style="stop-color:#B8860B"/>
	<stop  offset="0.1538" style="stop-color:#CFB53B"/>
	<stop  offset="0.2582" style="stop-color:#FFDF00"/>
	<stop  offset="0.5769" style="stop-color:#FCC200"/>
	<stop  offset="1" style="stop-color:#B8860B"/>
</linearGradient>
<linearGradient id="SVGID_11_" gradientUnits="userSpaceOnUse" x1="1836.8276" y1="2638.6589" x2="2941.3445" y2="725.5795">
	<stop  offset="0" style="stop-color:#B8860B"/>
	<stop  offset="0.1538" style="stop-color:#CFB53B"/>
	<stop  offset="0.2582" style="stop-color:#FFDF00"/>
	<stop  offset="0.5769" style="stop-color:#FCC200"/>
	<stop  offset="1" style="stop-color:#B8860B"/>
</linearGradient>
<path class="st16" d="M2559.5,1543v452l75.6,114v316l-65-65l-44,54.6l-44-54.6l-65,65v-316l75.6-114v-452c-10.5-3.1-23.6-8-37.6-16
	c-16.8-9.5-29.3-20.2-38-28.9c12.3-33,28-69.5,48-108.1c20.1-38.8,41-72.7,61-101.8c20,29.1,40.9,63.1,61,101.8
	c20,38.6,35.7,75.1,48,108.1c-8.7,8.7-21.2,19.3-38,28.9C2583.1,1535,2570.1,1539.9,2559.5,1543z M3599.4,1864l-278.3,356.2
	l-129.8,43.3l-194.5,249l91.2-11.2l1.1,70.1l68.3-15.9l11.2,91.2l194.5-249l10.6-136.4l278.3-356.2l244.6-313
	c10.2,4,23.6,8.2,39.5,10.6c19.1,2.8,35.5,2.1,47.7,0.7c10.6-33.6,20.8-72,28.8-114.8c8-42.9,12.4-82.6,14.6-117.8
	c-33.7,10.7-71.1,24.5-110.8,42.7c-39.6,18.1-74.4,37.2-104.4,55.7c1.5,12.2,4.8,28.3,12.2,46.1c6.1,14.9,13.4,26.8,19.8,35.8
	L3599.4,1864z M1208.3,1551c6.4-8.9,13.6-20.9,19.8-35.8c7.4-17.8,10.6-33.9,12.2-46.1c-30-18.4-64.8-37.6-104.4-55.7
	c-39.7-18.2-77.1-32-110.8-42.7c2.2,35.3,6.6,74.9,14.6,117.8c8,42.8,18.1,81.2,28.8,114.8c12.2,1.5,28.6,2.2,47.7-0.7
	c15.9-2.4,29.3-6.5,39.5-10.6l244.6,313l278.3,356.2l10.6,136.4l194.5,249l11.2-91.2l68.3,15.9l1.1-70.1l91.2,11.2l-194.5-249
	l-129.8-43.3L1452.9,1864L1208.3,1551z"/>
</svg>
