<?xml version="1.0" encoding="UTF-8" standalone="no"?>
<svg
   xmlns:dc="http://purl.org/dc/elements/1.1/"
   xmlns:cc="http://creativecommons.org/ns#"
   xmlns:rdf="http://www.w3.org/1999/02/22-rdf-syntax-ns#"
   xmlns:svg="http://www.w3.org/2000/svg"
   xmlns="http://www.w3.org/2000/svg"
   viewBox="0 0 751 601"
   version="1.1"
   width="751"
   height="601"
   xml:space="preserve"
   id="Layer_1"><defs
     id="defs13" /><metadata
     id="metadata51"><rdf:RDF><cc:Work
         rdf:about=""><dc:format>image/svg+xml</dc:format><dc:type
           rdf:resource="http://purl.org/dc/dcmitype/StillImage" /><dc:title /></cc:Work></rdf:RDF></metadata><rect
     fill="#fff"
     x=".5"
     y=".5"
     stroke="#666"
     width="750"
     height="600"
     ry="50"
     rx="50"
     id="rect3815" /><path
     d="m50.5 13c-20.775 0-37.5 16.725-37.5 37.5v500c0 20.775 16.725 37.5 37.5 37.5h650c20.775 0 37.5-16.725 37.5-37.5v-500c0-20.775-16.72-37.5-37.5-37.5h-650zm0 15.625h650c12.119 0 21.875 9.7562 21.875 21.875v500c0 12.119-9.7562 21.875-21.875 21.875h-650c-12.119 0-21.875-9.7562-21.875-21.875v-500c0-12.119 9.7562-21.875 21.875-21.875z"
     id="rect3817" /><g
     id="routenum"><path
       d="m95.217 463q0.59702-17.612 4.4776-32.239t12.239-28.955q6.2686-11.343 15.522-20.896 9.2537-9.8507 19.701-17.612 2.6866-1.4925 4.7761-2.9851 2.0896-1.791 4.1791-3.2836l10.746-5.6716 9.8508-5.6716 9.5522-5.3731q5.9702-3.8806 9.5522-9.5522 3.8806-5.9702 3.8806-12.239 0-5.6716-2.9851-10.448-2.9851-5.0746-8.0597-8.6567-4.7761-3.5821-11.343-5.6716-6.5672-2.0896-14.03-2.0896-15.224 0-24.776 7.1642-9.2537 7.1642-11.642 20.896l-31.642-6.8657q5.0746-25.075 23.284-39.104 18.209-14.328 44.776-14.328 14.328 0 26.567 4.7761 12.537 4.7761 21.493 12.836 9.2537 8.0597 14.627 19.104 5.3731 10.746 5.3731 22.985 0 11.642-5.3731 22.985-5.0746 11.045-14.925 19.702-2.3881 1.791-4.4776 3.2836-1.791 1.4925-3.8806 2.3881l-9.8508 6.2686-10.746 5.6716-9.8507 5.6716q-7.1642 4.1791-12.836 8.9552-5.3731 4.4776-10.149 9.8508-4.4776 5.3731-8.6567 11.94-3.8806 6.5672-7.4627 14.925h98.209v32.239h-136.12z"
       style=""
       id="path13" /><path
       d="m402.65 397.03q0 15.224-5.0746 28.06t-14.328 22.09q-8.9552 8.9552-21.791 14.328-12.537 5.0746-27.761 5.0746-12.239 0-22.985-3.8806-10.448-3.8806-19.403-10.746-8.6567-6.8657-14.925-16.716-6.2687-9.8507-9.2537-22.09l31.045-8.9552q3.5821 14.627 13.134 22.388 9.5522 7.7612 23.881 7.7612 8.0597 0 14.627-2.6866 6.5672-2.6866 11.045-7.1642 4.7761-4.7761 7.4627-11.045 2.6866-6.5672 2.6866-14.328 0-7.7612-2.9851-14.627-2.9851-6.8657-8.3582-10.746-1.791-1.194-3.2836-1.791-1.194-0.89552-3.2836-1.194-1.791-0.29851-5.0746-0.59702-2.9851-0.2985-8.6567-0.59701h-3.5821v-32.239 0.89552h0.89553 0.59701 6.2687q9.5522 0 14.627-5.0746 5.0746-5.0746 5.0746-14.627 0-11.642-8.3582-19.104-8.0597-7.7612-20.299-7.7612-20 0-30.149 19.701l-29.552-11.045q7.7612-19.104 23.284-29.851 15.821-11.045 35.522-11.045 12.537 0 23.582 4.7761 11.343 4.7761 19.702 13.134 8.3582 8.3582 13.134 19.701 4.7761 11.045 4.7761 23.582 0 8.9552-2.3881 16.119-2.388 7.1642-8.9552 16.716 5.6716 5.0746 9.2537 9.8507 3.5821 4.4776 5.6716 9.5522 2.3881 5.0746 3.2836 11.045 0.89552 5.6716 0.89552 13.134z"
       style=""
       id="path15" /><path
       d="m574.64 397.03q0 15.224-5.0746 28.06t-14.328 22.09q-8.9552 8.9552-21.791 14.328-12.537 5.0746-27.761 5.0746-12.239 0-22.985-3.8806-10.448-3.8806-19.403-10.746-8.6567-6.8657-14.925-16.716-6.2686-9.8507-9.2537-22.09l31.045-8.9552q3.5821 14.627 13.134 22.388 9.5522 7.7612 23.881 7.7612 8.0597 0 14.627-2.6866 6.5672-2.6866 11.045-7.1642 4.7761-4.7761 7.4627-11.045 2.6866-6.5672 2.6866-14.328 0-7.7612-2.9851-14.627-2.9851-6.8657-8.3582-10.746-1.791-1.194-3.2836-1.791-1.194-0.89552-3.2836-1.194-1.791-0.29851-5.0746-0.59702-2.9851-0.2985-8.6567-0.59701h-3.5821v-32.239 0.89552h0.89552 0.59702 6.2687q9.5522 0 14.627-5.0746 5.0746-5.0746 5.0746-14.627 0-11.642-8.3582-19.104-8.0597-7.7612-20.299-7.7612-20 0-30.149 19.701l-29.57-11.04q7.7612-19.104 23.284-29.851 15.821-11.045 35.522-11.045 12.537 0 23.582 4.7761 11.343 4.7761 19.701 13.134 8.3582 8.3582 13.134 19.701 4.7761 11.045 4.7761 23.582 0 8.9552-2.3881 16.119-2.3881 7.1642-8.9552 16.716 5.6716 5.0746 9.2537 9.8507 3.5821 4.4776 5.6716 9.5522 2.3881 5.0746 3.2836 11.045 0.89553 5.6716 0.89553 13.134z"
       style=""
       id="path17" /></g><path
     d="m598.87 548.44c-7.9441-4.568-15.217-8.7371-16.163-9.2647-1.7011-0.94923-1.6579-1.0708 4.1311-11.619 3.2175-5.863 5.9889-10.801 6.1587-10.973 0.1698-0.17227 6.4534 3.1354 13.964 7.3502l13.655 7.6634 10.012-0.55487 10.012-0.55487 19.478-19.198 19.478-19.198 1.1081-22.079 1.108-22.079-2.503-15.464-2.5031-15.464-12.808-25.065-12.809-25.065-8.0465-44.571-8.0468-44.571 5.6779-29.347 5.6778-29.347-21.39-72.813c-11.765-40.047-21.566-72.991-21.78-73.208-0.2142-0.21742-5.2468-0.58754-11.183-0.82271l-10.794-0.42734-3.48 7.2366-3.48 7.2367-107.68-0.20088-107.68-0.20089-3.3583-8.3188-3.3584-8.3186-64.178-0.20272-64.178-0.20271 0.45989 2.3335c0.25292 1.2833 1.575 8.7194 2.938 16.525l2.4781 14.191 11.799 0.91494c16.132 1.2509 16.398 1.2314 21.419-1.5665l4.434-2.4711 22.251 4.8721c12.238 2.6796 23.052 5.2151 24.032 5.6344 0.97954 0.41932 15.38 11.347 32.001 24.283l30.22 23.521 32.943-8.3481 32.943-8.3481 16.97 9.3945c9.3336 5.167 17.129 9.5555 17.323 9.7522 0.51516 0.52279-10.963 21.822-11.76 21.822-0.37084 0-6.3646-3.1866-13.319-7.0814l-12.645-7.0814-33.916 8.6115c-18.654 4.7362-34.283 8.3915-34.731 8.1227-0.44795-0.26866-15.57-11.943-33.605-25.944l-32.791-25.455-15.252-3.3152c-8.3884-1.8234-15.81-3.3152-16.492-3.3152-0.68234 0-2.778 0.86573-4.6571 1.9239l-3.4165 1.9239-27.387-2.0781-27.387-2.0782-6.8442-38.468c-3.76-21.152-7.03-39.443-7.26-40.641l-0.41-2.179h87.454 87.454l3.2947 8.3188 3.2947 8.3188h91.538 91.538l3.2771-7.1575 3.2771-7.1574 28.261 0.53184c15.544 0.2925 28.315 0.57201 28.382 0.62122 0.066 0.0487 11.359 38.337 25.095 85.085l24.974 84.996-5.8075 30.096-5.8072 30.096 7.1362 39.796 7.1362 39.796 12.895 25.348 12.895 25.348 3.1064 18.622 3.1063 18.622-1.3784 28.777-1.3784 28.777-26.09 25.889-26.09 25.889-5.198 0.4864c-2.8587 0.2675-11.522 0.6922-19.251 0.9438l-14.053 0.4575z"
     id="path1341" /></svg>