<?xml version="1.0" encoding="UTF-8" standalone="no"?>
<!-- Created with Inkscape (http://www.inkscape.org/) -->

<svg
   xmlns:osb="http://www.openswatchbook.org/uri/2009/osb"
   xmlns:dc="http://purl.org/dc/elements/1.1/"
   xmlns:cc="http://creativecommons.org/ns#"
   xmlns:rdf="http://www.w3.org/1999/02/22-rdf-syntax-ns#"
   xmlns:svg="http://www.w3.org/2000/svg"
   xmlns="http://www.w3.org/2000/svg"
   xmlns:xlink="http://www.w3.org/1999/xlink"
   xmlns:sodipodi="http://sodipodi.sourceforge.net/DTD/sodipodi-0.dtd"
   xmlns:inkscape="http://www.inkscape.org/namespaces/inkscape"
   width="64"
   height="64"
   id="svg8575"
   version="1.1"
   inkscape:version="0.48.2 r9819"
   sodipodi:docname="Ginkgo_for_portal.svg">
  <defs
     id="defs8577">
    <linearGradient
       id="linearGradient3993">
      <stop
         style="stop-color:#e1ff9f;stop-opacity:1;"
         offset="0"
         id="stop3995" />
      <stop
         style="stop-color:#fff4f4;stop-opacity:0;"
         offset="1"
         id="stop3997" />
    </linearGradient>
    <linearGradient
       id="linearGradient11181"
       osb:paint="gradient">
      <stop
         style="stop-color:#ffffff;stop-opacity:1;"
         offset="0"
         id="stop11183" />
      <stop
         id="stop11187"
         offset="0.83333337"
         style="stop-color:#ffffff;stop-opacity:1;" />
      <stop
         id="stop11185"
         offset="1"
         style="stop-color:#ffffff;stop-opacity:0;" />
    </linearGradient>
    <linearGradient
       osb:paint="gradient"
       id="linearGradient11050">
      <stop
         id="stop11052"
         offset="0"
         style="stop-color:#ffffff;stop-opacity:1;" />
      <stop
         style="stop-color:#ffffff;stop-opacity:0.71527779;"
         offset="1"
         id="stop11054" />
    </linearGradient>
    <linearGradient
       id="linearGradient11030">
      <stop
         id="stop11038"
         offset="0"
         style="stop-color:#5ce100;stop-opacity:1;" />
      <stop
         style="stop-color:#063200;stop-opacity:1;"
         offset="1"
         id="stop11034" />
    </linearGradient>
    <linearGradient
       id="linearGradient11022"
       osb:paint="solid">
      <stop
         style="stop-color:#ff0000;stop-opacity:1;"
         offset="0"
         id="stop11024" />
    </linearGradient>
    <linearGradient
       id="linearGradient9568"
       osb:paint="solid">
      <stop
         style="stop-color:#ff0000;stop-opacity:1;"
         offset="0"
         id="stop9570" />
    </linearGradient>
    <radialGradient
       inkscape:collect="always"
       xlink:href="#linearGradient5401"
       id="radialGradient5607"
       cx="128.69897"
       cy="127.90698"
       fx="128.69897"
       fy="127.90698"
       r="126.03656"
       gradientTransform="matrix(0.99999435,-0.00336194,0.00554581,1.6495768,-0.70862047,-82.652727)"
       gradientUnits="userSpaceOnUse" />
    <linearGradient
       id="linearGradient5401"
       osb:paint="gradient">
      <stop
         style="stop-color:#ffffff;stop-opacity:1;"
         offset="0"
         id="stop5403" />
      <stop
         style="stop-color:#ffffff;stop-opacity:0.40277779;"
         offset="1"
         id="stop5405" />
    </linearGradient>
    <radialGradient
       r="126.03656"
       fy="127.90698"
       fx="128.69897"
       cy="127.90698"
       cx="128.69897"
       gradientTransform="matrix(0.25934221,-8.6612531e-4,0.00143827,0.42497583,-1.5228392,-20.755511)"
       gradientUnits="userSpaceOnUse"
       id="radialGradient9016"
       xlink:href="#linearGradient5401"
       inkscape:collect="always" />
    <radialGradient
       inkscape:collect="always"
       xlink:href="#linearGradient11050"
       id="radialGradient11048"
       gradientUnits="userSpaceOnUse"
       gradientTransform="matrix(0.2856314,-1.5537411e-8,2.6247978e-5,0.47605236,-0.682759,-27.220994)"
       cx="128.88458"
       cy="124.40018"
       fx="128.88458"
       fy="124.40018"
       r="126.03656" />
    <radialGradient
       inkscape:collect="always"
       xlink:href="#linearGradient11050-5"
       id="radialGradient11048-7"
       gradientUnits="userSpaceOnUse"
       gradientTransform="matrix(0.2856314,-1.5537411e-8,2.6247978e-5,0.47605236,-0.682759,-27.220994)"
       cx="128.88458"
       cy="124.40018"
       fx="128.88458"
       fy="124.40018"
       r="126.03656" />
    <linearGradient
       osb:paint="gradient"
       id="linearGradient11050-5">
      <stop
         id="stop11052-0"
         offset="0"
         style="stop-color:#ffffff;stop-opacity:1;" />
      <stop
         style="stop-color:#ffffff;stop-opacity:0.71527779;"
         offset="1"
         id="stop11054-8" />
    </linearGradient>
    <radialGradient
       inkscape:collect="always"
       xlink:href="#linearGradient11030"
       id="radialGradient3197"
       gradientUnits="userSpaceOnUse"
       gradientTransform="matrix(5.1230076,1.8452523e-7,-2.0502803e-7,5.6922304,-36.368519,-244.27016)"
       cx="32"
       cy="34.545452"
       fx="32"
       fy="34.545452"
       r="28" />
    <radialGradient
       inkscape:collect="always"
       xlink:href="#linearGradient3993"
       id="radialGradient3999"
       cx="127.979"
       cy="-63.38427"
       fx="127.979"
       fy="-63.38427"
       r="99.19136"
       gradientTransform="matrix(2.8228265,-3.9104301e-8,0,2.0163046,-233.2625,63.802004)"
       gradientUnits="userSpaceOnUse" />
    <radialGradient
       inkscape:collect="always"
       xlink:href="#linearGradient3993"
       id="radialGradient3708"
       gradientUnits="userSpaceOnUse"
       gradientTransform="matrix(0.71213942,0,0,0.50867101,-58.883657,64.597836)"
       cx="127.979"
       cy="-63.38427"
       fx="127.979"
       fy="-63.38427"
       r="99.19136" />
    <radialGradient
       inkscape:collect="always"
       xlink:href="#linearGradient11030"
       id="radialGradient3711"
       gradientUnits="userSpaceOnUse"
       gradientTransform="matrix(1.2924265,4.6551813e-8,-5.1724236e-8,1.4360293,-9.2114698,-13.122255)"
       cx="32"
       cy="34.545452"
       fx="32"
       fy="34.545452"
       r="28" />
  </defs>
  <sodipodi:namedview
     id="base"
     pagecolor="#ffffff"
     bordercolor="#666666"
     borderopacity="1.0"
     inkscape:pageopacity="0.0"
     inkscape:pageshadow="2"
     inkscape:zoom="3.8890873"
     inkscape:cx="45.439193"
     inkscape:cy="52.152227"
     inkscape:current-layer="layer1"
     showgrid="true"
     inkscape:document-units="px"
     inkscape:grid-bbox="true"
     inkscape:window-width="1366"
     inkscape:window-height="718"
     inkscape:window-x="-2"
     inkscape:window-y="-2"
     inkscape:window-maximized="1">
    <inkscape:grid
       type="xygrid"
       id="grid4001"
       empspacing="4"
       visible="true"
       enabled="true"
       snapvisiblegridlinesonly="true" />
  </sodipodi:namedview>
  <metadata
     id="metadata8580">
    <rdf:RDF>
      <cc:Work
         rdf:about="">
        <dc:format>image/svg+xml</dc:format>
        <dc:type
           rdf:resource="http://purl.org/dc/dcmitype/StillImage" />
        <dc:title />
      </cc:Work>
    </rdf:RDF>
  </metadata>
  <g
     id="layer1"
     inkscape:label="Layer 1"
     inkscape:groupmode="layer">
    <rect
       style="fill:url(#radialGradient3711);fill-opacity:1;stroke:none"
       id="rect9056"
       width="56.292351"
       height="56.292351"
       x="4"
       y="4.3189735"
       ry="3.8381147" />
    <path
       style="fill:url(#radialGradient3708);fill-opacity:1"
       d="m 17.714115,56.611813 c -0.07649,-0.149056 -0.183494,-0.562133 -0.237778,-0.917947 l -0.0987,-0.646938 0.890499,-0.541248 c 1.282315,-0.779397 1.935811,-1.510537 3.024616,-3.383983 0.529734,-0.911485 1.598087,-2.688544 2.374115,-3.94902 1.606243,-2.608964 2.206571,-3.898369 2.689319,-5.776206 0.835835,-3.251304 -0.496447,-6.478203 -2.960243,-7.169962 C 22.057237,33.85064 18.635416,33.220392 17.377707,33.11804 15.253402,32.945164 13.715704,32.635308 11.80262,31.994624 10.417364,31.530706 9.7508444,31.202485 8.9911584,30.610141 8.6798894,30.367439 8.2154685,30.053583 7.9591126,29.912682 7.2008106,29.495894 6.9731746,28.999347 6.9653209,27.744899 c -0.00674,-1.075344 0.011534,-1.131712 0.4907552,-1.514562 1.4465185,-1.155627 1.7138635,-1.495474 1.7138635,-2.178635 0,-0.507999 0.1047873,-0.775291 0.4645911,-1.185085 0.3911403,-0.445481 0.4645913,-0.658826 0.4645913,-1.349419 0,-1.108602 0.5631,-2.847527 1.082287,-3.342246 0.228095,-0.217346 0.576068,-0.629544 0.773281,-0.915999 0.19721,-0.286453 0.609538,-0.624996 0.916282,-0.752311 0.306742,-0.127318 0.735187,-0.442626 0.952096,-0.700689 0.328827,-0.391212 0.558891,-0.491702 1.384043,-0.604551 0.544313,-0.07444 1.237948,-0.282691 1.541413,-0.462786 0.329288,-0.195417 0.931977,-0.358533 1.494776,-0.404557 0.893103,-0.07304 0.958687,-0.106459 1.238908,-0.631421 0.589345,-1.104055 0.962023,-1.420509 1.672899,-1.420509 1.01994,0 3.396002,-1.241146 5.389192,-2.8150735 0.377487,-0.29808 0.605663,-0.3284872 2.419087,-0.3223619 1.936094,0.00653 2.778591,0.098669 3.276138,0.3582587 0.13056,0.068118 0.690356,0.3263 1.243992,0.5737297 0.757238,0.33843 1.607178,-0.09274 2.067484,0.440787 2.563049,2.97076 -1.277538,11.747471 0.740693,11.747471 0,0 0.872178,-0.536126 3.156028,-8.479948 0.187956,-1.239754 -0.143226,-0.964093 1.151121,-1.821246 0.773068,-0.51195 1.675182,-0.59339 3.126118,-0.28222 0.721692,0.154779 0.949081,0.315314 2.085446,1.47233 0.701489,0.714234 1.566813,1.725489 1.92295,2.247229 l 0.647517,0.948612 -0.08071,1.824544 c -0.05608,1.267683 -0.02527,1.900212 0.100917,2.072468 0.102735,0.140229 0.618895,0.325467 1.188248,0.426432 0.553636,0.09818 1.13393,0.28699 1.289544,0.419582 0.312636,0.266384 1.033404,1.697961 1.033404,2.052536 0,0.325258 0.320236,0.596768 0.703861,0.596768 0.1827,0 0.444614,0.124235 0.582027,0.276079 0.319567,0.353117 0.498501,2.278556 0.268072,2.884628 -0.211157,0.555386 -0.06607,0.734464 0.8029,0.991042 0.372601,0.110016 0.873387,0.356259 1.112858,0.547204 0.419411,0.334428 0.443839,0.432222 0.665297,2.663597 0.133511,1.345206 0.386201,2.845369 0.602691,3.577999 0.50895,1.722355 0.487355,2.482388 -0.101789,3.582325 -1.33012,2.483336 -1.995904,3.389333 -2.709944,3.687677 -0.281062,0.117435 -0.554741,0.284263 -0.608181,0.370728 -0.05344,0.08646 -0.226612,0.15721 -0.384832,0.15721 -0.158219,0 -0.425304,0.188938 -0.593521,0.419863 -0.272103,0.373538 -0.424729,0.426581 -1.383343,0.480748 -1.270852,0.07181 -3.000509,-0.253693 -4.763477,-0.896436 -0.6814,-0.248424 -1.447972,-0.501098 -1.703497,-0.561496 -0.255526,-0.0604 -1.335698,-0.487895 -2.400386,-0.949989 -1.302059,-0.56512 -2.51883,-0.962893 -3.716726,-1.215034 -1.919584,-0.404047 -2.668403,-0.453718 -3.543892,-0.235077 -0.307994,0.07692 -0.908433,0.220279 -1.334308,0.318582 -2.90851,0.671363 -5.902298,3.305389 -7.927688,6.975018 -0.305571,0.553637 -0.667818,1.134972 -0.804989,1.291853 -0.137175,0.156883 -0.423629,0.585068 -0.636567,0.951522 -1.098883,1.891121 -1.477709,2.487949 -1.858193,2.927528 -0.22928,0.264889 -0.749793,0.990273 -1.156696,1.611965 -0.406903,0.621693 -1.144116,1.486222 -1.638251,1.921178 -0.494135,0.434956 -0.932039,0.919361 -0.973121,1.076456 -0.09461,0.361799 -0.513777,0.370597 -0.696464,0.01462 z"
       id="path3187"
       inkscape:connector-curvature="0"
       sodipodi:nodetypes="cscssssssssssssssssssssssssscsascsssscscsssssssssssscsssssssssssssssscc" />
  </g>
</svg>
