<?xml version="1.0" encoding="UTF-8" standalone="no"?>
<!-- Generator: Adobe Illustrator 12.0.1, SVG Export Plug-In . SVG Version: 6.00 Build 51448)  -->
<svg
   xmlns:dc="http://purl.org/dc/elements/1.1/"
   xmlns:cc="http://web.resource.org/cc/"
   xmlns:rdf="http://www.w3.org/1999/02/22-rdf-syntax-ns#"
   xmlns:svg="http://www.w3.org/2000/svg"
   xmlns="http://www.w3.org/2000/svg"
   xmlns:sodipodi="http://sodipodi.sourceforge.net/DTD/sodipodi-0.dtd"
   xmlns:inkscape="http://www.inkscape.org/namespaces/inkscape"
   version="1.1"
   id="Layer_1"
   width="666.011"
   height="333.185"
   viewBox="0 0 666.011 333.185"
   style="overflow:visible;enable-background:new 0 0 666.011 333.185;"
   xml:space="preserve"
   sodipodi:version="0.32"
   inkscape:version="0.45.1"
   sodipodi:docname="Glykogenabbau2.svg"
   inkscape:output_extension="org.inkscape.output.svg.inkscape"
   sodipodi:docbase="C:\Dokumente und Einstellungen\Jonas Töle\Eigene Dateien"><metadata
   id="metadata286"><rdf:RDF><cc:Work
       rdf:about=""><dc:format>image/svg+xml</dc:format><dc:type
         rdf:resource="http://purl.org/dc/dcmitype/StillImage" /></cc:Work></rdf:RDF></metadata><defs
   id="defs284" /><sodipodi:namedview
   inkscape:window-height="579"
   inkscape:window-width="801"
   inkscape:pageshadow="2"
   inkscape:pageopacity="0.0"
   guidetolerance="10.0"
   gridtolerance="10.0"
   objecttolerance="10.0"
   borderopacity="1.0"
   bordercolor="#666666"
   pagecolor="#ffffff"
   id="base"
   inkscape:zoom="1.0765588"
   inkscape:cx="333.00549"
   inkscape:cy="166.5925"
   inkscape:window-x="154"
   inkscape:window-y="154"
   inkscape:current-layer="Layer_1" />
<path
   d="M 160.9676,268.33038 L 163.7226,270.75192 L 162.9151,273.17442 L 111.9951,273.17442 L 114.7026,270.75192 L 115.5101,268.33038 L 160.9676,268.33038 z "
   id="polygon3" />
<path
   d="M 80.8351,238.21442 L 80.0276,236.07692 L 81.2151,236.03037 L 113.8951,265.14693 L 114.7026,270.75192 L 111.9951,273.17442 L 80.8351,238.21442 z "
   id="polygon5" />
<path
   d="M 113.8951,201.06942 L 114.7026,201.40192 L 115.0351,202.20942 L 81.2151,236.03037 L 80.0276,236.07692 L 79.2201,235.74442 L 113.8951,201.06942 z "
   id="polygon7" />
<g
   id="g9"
   transform="matrix(0.95,0,0,0.95,16.65025,8.329625)">
	<path
   d="M 146.569,204.319 C 146.569,201.466 147.335,199.234 148.867,197.621 C 150.399,196.007 152.377,195.2 154.8,195.2 C 156.387,195.2 157.817,195.579 159.091,196.337 C 160.365,197.096 161.336,198.152 162.005,199.508 C 162.674,200.864 163.007,202.402 163.007,204.12 C 163.007,205.863 162.655,207.422 161.952,208.797 C 161.249,210.172 160.252,211.214 158.962,211.921 C 157.672,212.628 156.281,212.982 154.788,212.982 C 153.17,212.982 151.724,212.591 150.45,211.81 C 149.176,211.029 148.211,209.961 147.554,208.61 C 146.897,207.259 146.569,205.828 146.569,204.319 z M 148.913,204.349 C 148.913,206.419 149.47,208.05 150.584,209.242 C 151.698,210.434 153.096,211.029 154.776,211.029 C 156.488,211.029 157.897,210.427 159.004,209.224 C 160.11,208.021 160.663,206.314 160.663,204.103 C 160.663,202.705 160.427,201.484 159.954,200.441 C 159.481,199.398 158.789,198.589 157.878,198.015 C 156.967,197.441 155.945,197.154 154.812,197.154 C 153.202,197.154 151.816,197.707 150.655,198.812 C 149.494,199.917 148.913,201.763 148.913,204.349 z "
   id="path11" />
</g>
<path
   d="M 153.7476,200.59442 L 153.7476,202.20942 L 115.0351,202.20942 L 114.7026,201.40192 L 115.5101,200.59442 L 153.7476,200.59442 z "
   id="polygon13" />
<path
   d="M 199.1576,235.74442 L 198.3501,236.07692 L 197.2101,236.03037 L 171.0376,209.90537 L 172.1776,208.76442 L 199.1576,235.74442 z "
   id="polygon15" />
<path
   d="M 164.5301,275.26442 L 163.7226,270.75192 L 160.9676,268.33038 L 197.2101,236.03037 L 198.3501,236.07692 L 197.5426,238.21442 L 164.5301,275.26442 z "
   id="polygon17" />
<g
   id="g19"
   transform="matrix(0.95,0,0,0.95,16.65025,8.329625)">
	<path
   d="M 146.569,316.969 C 146.569,314.116 147.335,311.884 148.867,310.271 C 150.399,308.657 152.377,307.85 154.8,307.85 C 156.387,307.85 157.817,308.229 159.091,308.987 C 160.365,309.746 161.336,310.802 162.005,312.158 C 162.674,313.514 163.007,315.052 163.007,316.77 C 163.007,318.513 162.655,320.072 161.952,321.447 C 161.249,322.822 160.252,323.864 158.962,324.571 C 157.672,325.278 156.281,325.632 154.788,325.632 C 153.17,325.632 151.724,325.241 150.45,324.46 C 149.176,323.679 148.211,322.611 147.554,321.26 C 146.897,319.909 146.569,318.478 146.569,316.969 z M 148.913,316.998 C 148.913,319.068 149.47,320.699 150.584,321.891 C 151.698,323.083 153.096,323.678 154.776,323.678 C 156.488,323.678 157.897,323.076 159.004,321.873 C 160.11,320.67 160.663,318.963 160.663,316.752 C 160.663,315.354 160.427,314.133 159.954,313.09 C 159.481,312.047 158.789,311.238 157.878,310.664 C 156.967,310.09 155.945,309.803 154.812,309.803 C 153.202,309.803 151.816,310.356 150.655,311.461 C 149.494,312.566 148.913,314.412 148.913,316.998 z "
   id="path21" />
	<path
   d="M 166.019,325.334 L 166.019,308.146 L 168.3,308.146 L 168.3,315.209 L 177.191,315.209 L 177.191,308.146 L 179.472,308.146 L 179.472,325.334 L 177.191,325.334 L 177.191,317.24 L 168.3,317.24 L 168.3,325.334 L 166.019,325.334 z "
   id="path23" />
</g>
<path
   d="M 164.5301,298.63442 L 162.9151,298.63442 L 162.9151,273.17442 L 163.7226,270.75192 L 164.5301,275.26442 L 164.5301,298.63442 z "
   id="polygon25" />
<path
   d="M 199.1576,272.98442 L 197.5426,274.59943 L 197.5426,238.21442 L 198.3501,236.07692 L 199.1576,235.74442 L 199.1576,272.98442 z "
   id="polygon27" />
<path
   d="M 80.8351,274.59943 L 79.2201,272.98442 L 79.2201,235.74442 L 80.0276,236.07692 L 80.8351,238.21442 L 80.8351,274.59943 z "
   id="polygon29" />
<g
   id="g31"
   transform="matrix(0.95,0,0,0.95,16.65025,8.329625)">
	<path
   d="M 94.969,237.619 C 94.969,234.766 95.735,232.534 97.267,230.921 C 98.799,229.307 100.777,228.5 103.2,228.5 C 104.787,228.5 106.217,228.879 107.491,229.637 C 108.765,230.396 109.736,231.452 110.405,232.808 C 111.074,234.164 111.407,235.702 111.407,237.42 C 111.407,239.163 111.055,240.722 110.352,242.097 C 109.649,243.472 108.652,244.514 107.362,245.221 C 106.072,245.928 104.681,246.282 103.188,246.282 C 101.57,246.282 100.124,245.891 98.85,245.11 C 97.576,244.329 96.611,243.261 95.954,241.91 C 95.297,240.559 94.969,239.128 94.969,237.619 z M 97.313,237.648 C 97.313,239.718 97.87,241.349 98.984,242.541 C 100.098,243.733 101.496,244.328 103.176,244.328 C 104.888,244.328 106.297,243.726 107.404,242.523 C 108.51,241.32 109.063,239.613 109.063,237.402 C 109.063,236.004 108.827,234.783 108.354,233.74 C 107.881,232.697 107.189,231.888 106.278,231.314 C 105.367,230.74 104.345,230.453 103.212,230.453 C 101.602,230.453 100.216,231.006 99.055,232.111 C 97.894,233.216 97.313,235.063 97.313,237.648 z "
   id="path33" />
	<path
   d="M 114.418,245.984 L 114.418,228.796 L 116.699,228.796 L 116.699,235.859 L 125.59,235.859 L 125.59,228.796 L 127.871,228.796 L 127.871,245.984 L 125.59,245.984 L 125.59,237.89 L 116.7,237.89 L 116.7,245.984 L 114.418,245.984 z "
   id="path35" />
</g>
<path
   d="M 113.8951,244.38942 L 115.5101,244.38942 L 115.5101,268.33038 L 114.7026,270.75192 L 113.8951,265.14693 L 113.8951,244.38942 z "
   id="polygon37" />
<g
   id="g39"
   transform="matrix(0.95,0,0,0.95,16.65025,8.329625)">
	<path
   d="M 108.657,167.007 L 110.938,167.581 C 110.462,169.451 109.605,170.877 108.369,171.858 C 107.132,172.839 105.619,173.331 103.832,173.331 C 101.982,173.331 100.478,172.954 99.319,172.199 C 98.16,171.445 97.278,170.351 96.673,168.921 C 96.068,167.49 95.766,165.953 95.766,164.312 C 95.766,162.522 96.107,160.959 96.79,159.626 C 97.473,158.293 98.444,157.279 99.705,156.588 C 100.965,155.897 102.351,155.55 103.865,155.55 C 105.582,155.55 107.025,155.988 108.195,156.864 C 109.366,157.741 110.181,158.972 110.641,160.561 L 108.407,161.088 C 108.009,159.838 107.432,158.928 106.676,158.358 C 105.919,157.788 104.967,157.503 103.821,157.503 C 102.503,157.503 101.401,157.819 100.515,158.452 C 99.63,159.085 99.008,159.934 98.649,161.001 C 98.29,162.068 98.111,163.167 98.111,164.3 C 98.111,165.761 98.323,167.036 98.748,168.126 C 99.173,169.216 99.833,170.03 100.73,170.569 C 101.627,171.108 102.597,171.378 103.642,171.378 C 104.913,171.378 105.988,171.011 106.869,170.276 C 107.75,169.541 108.345,168.452 108.657,167.007 z "
   id="path41" />
	<path
   d="M 113.833,173.034 L 113.833,155.846 L 116.114,155.846 L 116.114,162.909 L 125.005,162.909 L 125.005,155.846 L 127.286,155.846 L 127.286,173.034 L 125.005,173.034 L 125.005,164.94 L 116.114,164.94 L 116.114,173.034 L 113.833,173.034 z "
   id="path43" />
</g>
<g
   id="g45"
   transform="matrix(0.95,0,0,0.95,16.65025,8.329625)">
	<path
   d="M 137.195,176.019 L 137.195,177.535 L 128.664,177.535 C 128.652,177.154 128.714,176.788 128.85,176.436 C 129.068,175.856 129.417,175.285 129.898,174.723 C 130.378,174.161 131.068,173.512 131.968,172.776 C 133.364,171.623 134.31,170.712 134.808,170.042 C 135.306,169.372 135.555,168.737 135.555,168.139 C 135.555,167.513 135.33,166.986 134.88,166.555 C 134.43,166.125 133.843,165.91 133.12,165.91 C 132.354,165.91 131.743,166.139 131.284,166.598 C 130.825,167.057 130.593,167.692 130.587,168.503 L 128.962,168.331 C 129.073,167.115 129.493,166.189 130.222,165.553 C 130.95,164.915 131.928,164.597 133.156,164.597 C 134.395,164.597 135.376,164.94 136.098,165.626 C 136.82,166.312 137.181,167.162 137.181,168.176 C 137.181,168.692 137.075,169.199 136.864,169.697 C 136.653,170.195 136.301,170.72 135.811,171.271 C 135.32,171.822 134.507,172.578 133.371,173.539 C 132.42,174.337 131.809,174.877 131.538,175.162 C 131.267,175.445 131.042,175.731 130.865,176.018 L 137.195,176.018 L 137.195,176.019 z "
   id="path47" />
</g>
<g
   id="g49"
   transform="matrix(0.95,0,0,0.95,16.65025,8.329625)">
	<path
   d="M 138.522,164.669 C 138.522,161.816 139.288,159.584 140.82,157.971 C 142.352,156.357 144.33,155.55 146.753,155.55 C 148.34,155.55 149.77,155.929 151.044,156.687 C 152.318,157.446 153.289,158.502 153.958,159.858 C 154.627,161.214 154.96,162.752 154.96,164.47 C 154.96,166.213 154.608,167.772 153.905,169.147 C 153.202,170.522 152.205,171.564 150.915,172.271 C 149.625,172.978 148.234,173.332 146.741,173.332 C 145.123,173.332 143.677,172.941 142.403,172.16 C 141.129,171.379 140.164,170.311 139.507,168.96 C 138.85,167.609 138.522,166.178 138.522,164.669 z M 140.866,164.698 C 140.866,166.768 141.423,168.399 142.537,169.591 C 143.651,170.783 145.049,171.378 146.729,171.378 C 148.441,171.378 149.85,170.776 150.957,169.573 C 152.063,168.37 152.616,166.663 152.616,164.452 C 152.616,163.054 152.38,161.833 151.907,160.79 C 151.434,159.747 150.742,158.938 149.831,158.364 C 148.92,157.79 147.898,157.503 146.765,157.503 C 145.155,157.503 143.769,158.056 142.608,159.161 C 141.447,160.266 140.866,162.112 140.866,164.698 z "
   id="path51" />
	<path
   d="M 157.972,173.034 L 157.972,155.846 L 160.253,155.846 L 160.253,162.909 L 169.144,162.909 L 169.144,155.846 L 171.425,155.846 L 171.425,173.034 L 169.144,173.034 L 169.144,164.94 L 160.253,164.94 L 160.253,173.034 L 157.972,173.034 z "
   id="path53" />
</g>
<path
   d="M 113.8951,175.08692 L 115.5101,175.08692 L 115.5101,200.59442 L 114.7026,201.40192 L 113.8951,201.06942 L 113.8951,175.08692 z "
   id="polygon55" />
<path
   d="M 354.7201,268.33038 L 357.4276,270.75192 L 356.6201,273.17442 L 305.7001,273.17442 L 308.4076,270.75192 L 309.2151,268.33038 L 354.7201,268.33038 z "
   id="polygon57" />
<path
   d="M 274.5876,238.21442 L 273.7801,236.07692 L 274.9201,236.03037 L 307.6001,265.14693 L 308.4076,270.75192 L 305.7001,273.17442 L 274.5876,238.21442 z "
   id="polygon59" />
<path
   d="M 307.6001,201.06942 L 308.4076,201.40192 L 308.7401,202.20942 L 274.9201,236.03037 L 273.7801,236.07692 L 272.9726,235.74442 L 307.6001,201.06942 z "
   id="polygon61" />
<g
   id="g63"
   transform="matrix(0.95,0,0,0.95,16.65025,8.329625)">
	<path
   d="M 350.52,204.319 C 350.52,201.466 351.286,199.234 352.817,197.621 C 354.35,196.007 356.327,195.2 358.751,195.2 C 360.337,195.2 361.768,195.579 363.042,196.337 C 364.315,197.096 365.286,198.152 365.955,199.508 C 366.624,200.864 366.958,202.402 366.958,204.12 C 366.958,205.863 366.606,207.422 365.902,208.797 C 365.198,210.172 364.202,211.214 362.913,211.921 C 361.622,212.628 360.231,212.982 358.739,212.982 C 357.12,212.982 355.675,212.591 354.401,211.81 C 353.126,211.029 352.161,209.961 351.505,208.61 C 350.849,207.259 350.52,205.828 350.52,204.319 z M 352.863,204.349 C 352.863,206.419 353.42,208.05 354.533,209.242 C 355.648,210.433 357.045,211.029 358.726,211.029 C 360.437,211.029 361.847,210.427 362.953,209.224 C 364.059,208.021 364.613,206.314 364.613,204.103 C 364.613,202.705 364.377,201.484 363.903,200.441 C 363.429,199.398 362.738,198.589 361.828,198.015 C 360.917,197.441 359.894,197.154 358.762,197.154 C 357.151,197.154 355.766,197.707 354.604,198.812 C 353.443,199.917 352.863,201.763 352.863,204.349 z "
   id="path65" />
</g>
<path
   d="M 347.4526,200.59442 L 347.4526,202.20942 L 308.7401,202.20942 L 308.4076,201.40192 L 309.2151,200.59442 L 347.4526,200.59442 z "
   id="polygon67" />
<path
   d="M 392.9101,235.74442 L 392.1026,236.07692 L 390.9151,236.03037 L 364.6951,209.80942 L 365.8351,208.66942 L 392.9101,235.74442 z "
   id="polygon69" />
<path
   d="M 358.2351,275.26442 L 357.4276,270.75192 L 354.7201,268.33038 L 390.9151,236.03037 L 392.1026,236.07692 L 391.2951,238.21442 L 358.2351,275.26442 z "
   id="polygon71" />
<g
   id="g73"
   transform="matrix(0.95,0,0,0.95,16.65025,8.329625)">
	<path
   d="M 350.52,316.969 C 350.52,314.116 351.286,311.884 352.817,310.271 C 354.35,308.657 356.327,307.85 358.751,307.85 C 360.337,307.85 361.768,308.229 363.042,308.987 C 364.315,309.746 365.286,310.802 365.955,312.158 C 366.624,313.514 366.958,315.052 366.958,316.77 C 366.958,318.513 366.606,320.072 365.902,321.447 C 365.198,322.822 364.202,323.864 362.913,324.571 C 361.622,325.278 360.231,325.632 358.739,325.632 C 357.12,325.632 355.675,325.241 354.401,324.46 C 353.126,323.679 352.161,322.611 351.505,321.26 C 350.849,319.909 350.52,318.478 350.52,316.969 z M 352.863,316.998 C 352.863,319.068 353.42,320.699 354.533,321.891 C 355.648,323.082 357.045,323.678 358.726,323.678 C 360.437,323.678 361.847,323.076 362.953,321.873 C 364.059,320.67 364.613,318.963 364.613,316.752 C 364.613,315.354 364.377,314.133 363.903,313.09 C 363.429,312.047 362.738,311.238 361.828,310.664 C 360.917,310.09 359.894,309.803 358.762,309.803 C 357.151,309.803 355.766,310.356 354.604,311.461 C 353.443,312.566 352.863,314.412 352.863,316.998 z "
   id="path75" />
	<path
   d="M 369.969,325.334 L 369.969,308.146 L 372.25,308.146 L 372.25,315.209 L 381.141,315.209 L 381.141,308.146 L 383.422,308.146 L 383.422,325.334 L 381.141,325.334 L 381.141,317.24 L 372.25,317.24 L 372.25,325.334 L 369.969,325.334 z "
   id="path77" />
</g>
<path
   d="M 358.2351,298.63442 L 356.6201,298.63442 L 356.6201,273.17442 L 357.4276,270.75192 L 358.2351,275.26442 L 358.2351,298.63442 z "
   id="polygon79" />
<path
   d="M 392.9101,272.98442 L 391.2951,274.59943 L 391.2951,238.21442 L 392.1026,236.07692 L 392.9101,235.74442 L 392.9101,272.98442 z "
   id="polygon81" />
<path
   d="M 274.5876,274.59943 L 272.9726,272.98442 L 272.9726,235.74442 L 273.7801,236.07692 L 274.5876,238.21442 L 274.5876,274.59943 z "
   id="polygon83" />
<g
   id="g85"
   transform="matrix(0.95,0,0,0.95,16.65025,8.329625)">
	<path
   d="M 298.919,237.619 C 298.919,234.766 299.685,232.534 301.217,230.921 C 302.749,229.307 304.727,228.5 307.15,228.5 C 308.737,228.5 310.167,228.879 311.441,229.637 C 312.715,230.396 313.686,231.452 314.355,232.808 C 315.024,234.164 315.357,235.702 315.357,237.42 C 315.357,239.163 315.005,240.722 314.302,242.097 C 313.599,243.472 312.602,244.514 311.312,245.221 C 310.022,245.928 308.631,246.282 307.138,246.282 C 305.52,246.282 304.074,245.891 302.8,245.11 C 301.526,244.329 300.561,243.261 299.904,241.91 C 299.247,240.559 298.919,239.128 298.919,237.619 z M 301.263,237.648 C 301.263,239.718 301.82,241.349 302.934,242.541 C 304.048,243.733 305.446,244.328 307.126,244.328 C 308.838,244.328 310.247,243.726 311.354,242.523 C 312.46,241.32 313.013,239.613 313.013,237.402 C 313.013,236.004 312.777,234.783 312.304,233.74 C 311.831,232.697 311.139,231.888 310.228,231.314 C 309.317,230.74 308.295,230.453 307.162,230.453 C 305.552,230.453 304.166,231.006 303.005,232.111 C 301.844,233.216 301.263,235.063 301.263,237.648 z "
   id="path87" />
	<path
   d="M 318.369,245.984 L 318.369,228.796 L 320.65,228.796 L 320.65,235.859 L 329.541,235.859 L 329.541,228.796 L 331.822,228.796 L 331.822,245.984 L 329.541,245.984 L 329.541,237.89 L 320.65,237.89 L 320.65,245.984 L 318.369,245.984 z "
   id="path89" />
</g>
<path
   d="M 307.6001,244.38942 L 309.2151,244.38942 L 309.2151,268.33038 L 308.4076,270.75192 L 307.6001,265.14693 L 307.6001,244.38942 z "
   id="polygon91" />
<g
   id="g93"
   transform="matrix(0.95,0,0,0.95,16.65025,8.329625)">
	<path
   d="M 312.607,167.007 L 314.888,167.581 C 314.412,169.451 313.555,170.877 312.319,171.858 C 311.082,172.839 309.569,173.331 307.782,173.331 C 305.932,173.331 304.428,172.954 303.269,172.199 C 302.11,171.445 301.228,170.351 300.623,168.921 C 300.018,167.49 299.716,165.953 299.716,164.312 C 299.716,162.522 300.057,160.959 300.74,159.626 C 301.423,158.293 302.394,157.279 303.655,156.588 C 304.915,155.897 306.301,155.55 307.815,155.55 C 309.532,155.55 310.975,155.988 312.145,156.864 C 313.316,157.741 314.131,158.972 314.591,160.561 L 312.357,161.088 C 311.959,159.838 311.382,158.928 310.626,158.358 C 309.869,157.788 308.917,157.503 307.771,157.503 C 306.453,157.503 305.351,157.819 304.465,158.452 C 303.58,159.085 302.958,159.934 302.599,161.001 C 302.24,162.068 302.061,163.167 302.061,164.3 C 302.061,165.761 302.273,167.036 302.698,168.126 C 303.123,169.216 303.783,170.03 304.68,170.569 C 305.577,171.108 306.547,171.378 307.592,171.378 C 308.863,171.378 309.938,171.011 310.819,170.276 C 311.7,169.541 312.295,168.452 312.607,167.007 z "
   id="path95" />
	<path
   d="M 317.783,173.034 L 317.783,155.846 L 320.064,155.846 L 320.064,162.909 L 328.955,162.909 L 328.955,155.846 L 331.236,155.846 L 331.236,173.034 L 328.955,173.034 L 328.955,164.94 L 320.064,164.94 L 320.064,173.034 L 317.783,173.034 z "
   id="path97" />
</g>
<g
   id="g99"
   transform="matrix(0.95,0,0,0.95,16.65025,8.329625)">
	<path
   d="M 341.146,176.019 L 341.146,177.535 L 332.615,177.535 C 332.603,177.154 332.665,176.788 332.801,176.436 C 333.019,175.856 333.368,175.285 333.849,174.723 C 334.329,174.161 335.019,173.512 335.919,172.776 C 337.315,171.623 338.261,170.712 338.759,170.042 C 339.257,169.372 339.506,168.737 339.506,168.139 C 339.506,167.513 339.28,166.986 338.831,166.555 C 338.381,166.125 337.794,165.91 337.071,165.91 C 336.305,165.91 335.694,166.139 335.235,166.598 C 334.776,167.057 334.544,167.692 334.538,168.503 L 332.913,168.331 C 333.024,167.115 333.444,166.189 334.173,165.553 C 334.901,164.915 335.879,164.597 337.107,164.597 C 338.346,164.597 339.327,164.94 340.049,165.626 C 340.771,166.312 341.132,167.162 341.132,168.176 C 341.132,168.692 341.026,169.199 340.815,169.697 C 340.604,170.195 340.252,170.72 339.762,171.271 C 339.271,171.822 338.458,172.578 337.322,173.539 C 336.371,174.337 335.76,174.877 335.489,175.162 C 335.218,175.445 334.993,175.731 334.816,176.018 L 341.146,176.018 L 341.146,176.019 z "
   id="path101" />
</g>
<g
   id="g103"
   transform="matrix(0.95,0,0,0.95,16.65025,8.329625)">
	<path
   d="M 342.473,164.669 C 342.473,161.816 343.239,159.584 344.771,157.971 C 346.303,156.357 348.281,155.55 350.704,155.55 C 352.291,155.55 353.722,155.929 354.995,156.687 C 356.268,157.446 357.24,158.502 357.909,159.858 C 358.577,161.213 358.911,162.752 358.911,164.47 C 358.911,166.213 358.559,167.772 357.856,169.147 C 357.152,170.522 356.155,171.564 354.866,172.271 C 353.576,172.978 352.184,173.332 350.692,173.332 C 349.074,173.332 347.628,172.941 346.354,172.16 C 345.08,171.379 344.115,170.311 343.458,168.96 C 342.801,167.607 342.473,166.178 342.473,164.669 z M 344.816,164.698 C 344.816,166.768 345.373,168.399 346.487,169.591 C 347.601,170.783 348.999,171.378 350.679,171.378 C 352.391,171.378 353.8,170.776 354.907,169.573 C 356.014,168.37 356.566,166.663 356.566,164.452 C 356.566,163.054 356.33,161.833 355.857,160.79 C 355.383,159.747 354.691,158.938 353.781,158.364 C 352.871,157.79 351.848,157.503 350.715,157.503 C 349.105,157.503 347.719,158.056 346.558,159.161 C 345.397,160.266 344.816,162.112 344.816,164.698 z "
   id="path105" />
	<path
   d="M 361.922,173.034 L 361.922,155.846 L 364.203,155.846 L 364.203,162.909 L 373.094,162.909 L 373.094,155.846 L 375.375,155.846 L 375.375,173.034 L 373.094,173.034 L 373.094,164.94 L 364.203,164.94 L 364.203,173.034 L 361.922,173.034 z "
   id="path107" />
</g>
<path
   d="M 307.6001,175.08692 L 309.2151,175.08692 L 309.2151,200.59442 L 308.4076,201.40192 L 307.6001,201.06942 L 307.6001,175.08692 z "
   id="polygon109" />
<path
   d="M 226.0901,272.98442 L 226.0901,274.59943 L 197.5426,274.59943 L 199.1576,272.98442 L 226.0901,272.98442 z "
   id="polygon111" />
<g
   id="g113"
   transform="matrix(0.95,0,0,0.95,16.65025,8.329625)">
	<path
   d="M 222.769,280.519 C 222.769,277.666 223.535,275.434 225.067,273.821 C 226.599,272.207 228.577,271.4 231,271.4 C 232.587,271.4 234.017,271.779 235.291,272.537 C 236.565,273.296 237.536,274.352 238.205,275.708 C 238.874,277.064 239.207,278.602 239.207,280.32 C 239.207,282.063 238.855,283.622 238.152,284.997 C 237.449,286.372 236.452,287.414 235.162,288.121 C 233.872,288.828 232.481,289.182 230.988,289.182 C 229.37,289.182 227.924,288.791 226.65,288.01 C 225.376,287.229 224.411,286.161 223.754,284.81 C 223.097,283.459 222.769,282.027 222.769,280.519 z M 225.113,280.548 C 225.113,282.618 225.67,284.249 226.784,285.441 C 227.898,286.633 229.296,287.228 230.976,287.228 C 232.688,287.228 234.097,286.626 235.204,285.423 C 236.31,284.22 236.863,282.513 236.863,280.302 C 236.863,278.904 236.627,277.683 236.154,276.64 C 235.681,275.597 234.989,274.788 234.078,274.214 C 233.167,273.64 232.145,273.353 231.012,273.353 C 229.402,273.353 228.016,273.906 226.855,275.011 C 225.694,276.116 225.113,277.962 225.113,280.548 z "
   id="path115" />
</g>
<path
   d="M 246.0876,274.59943 L 246.0876,272.98442 L 272.9726,272.98442 L 274.5876,274.59943 L 246.0876,274.59943 z "
   id="polygon117" />
<path
   d="M 419.8426,272.98442 L 419.8426,274.59943 L 391.2951,274.59943 L 392.9101,272.98442 L 419.8426,272.98442 z "
   id="polygon119" />
<g
   id="g121"
   transform="matrix(0.95,0,0,0.95,16.65025,8.329625)">
	<path
   d="M 0,288.884 L 0,286.478 L 2.406,286.478 L 2.406,288.884 L 0,288.884 z "
   id="path123" />
	<path
   d="M 6.668,288.884 L 6.668,286.478 L 9.074,286.478 L 9.074,288.884 L 6.668,288.884 z "
   id="path125" />
	<path
   d="M 13.336,288.884 L 13.336,286.478 L 15.742,286.478 L 15.742,288.884 L 13.336,288.884 z "
   id="path127" />
	<path
   d="M 18.973,280.519 C 18.973,277.666 19.739,275.434 21.271,273.821 C 22.803,272.207 24.781,271.4 27.204,271.4 C 28.791,271.4 30.221,271.779 31.495,272.537 C 32.769,273.296 33.74,274.352 34.409,275.708 C 35.078,277.064 35.411,278.602 35.411,280.32 C 35.411,282.063 35.059,283.622 34.356,284.997 C 33.653,286.372 32.656,287.414 31.366,288.121 C 30.076,288.828 28.685,289.182 27.192,289.182 C 25.574,289.182 24.128,288.791 22.854,288.01 C 21.58,287.229 20.615,286.161 19.958,284.81 C 19.301,283.459 18.973,282.027 18.973,280.519 z M 21.316,280.548 C 21.316,282.618 21.873,284.249 22.987,285.441 C 24.101,286.633 25.499,287.228 27.179,287.228 C 28.891,287.228 30.3,286.626 31.407,285.423 C 32.513,284.22 33.066,282.513 33.066,280.302 C 33.066,278.904 32.83,277.683 32.357,276.64 C 31.884,275.597 31.192,274.788 30.281,274.214 C 29.37,273.64 28.348,273.353 27.215,273.353 C 25.605,273.353 24.219,273.906 23.058,275.011 C 21.897,276.116 21.316,277.962 21.316,280.548 z "
   id="path129" />
</g>
<path
   d="M 52.3826,274.59943 L 52.3826,272.98442 L 79.2201,272.98442 L 80.8351,274.59943 L 52.3826,274.59943 z "
   id="polygon131" />
<path
   d="M 548.42605,268.33038 L 551.1801,270.75192 L 550.3726,273.17442 L 499.4526,273.17442 L 502.1601,270.75192 L 502.9676,268.33038 L 548.42605,268.33038 z "
   id="polygon133" />
<path
   d="M 468.2926,238.21442 L 467.4851,236.07692 L 468.6726,236.03037 L 501.3526,265.14693 L 502.1601,270.75192 L 499.4526,273.17442 L 468.2926,238.21442 z "
   id="polygon135" />
<path
   d="M 501.3526,201.06942 L 502.1601,201.40192 L 502.4926,202.20942 L 468.6726,236.03037 L 467.4851,236.07692 L 466.6776,235.74442 L 501.3526,201.06942 z "
   id="polygon137" />
<g
   id="g139"
   transform="matrix(0.95,0,0,0.95,16.65025,8.329625)">
	<path
   d="M 554.42,204.319 C 554.42,201.466 555.186,199.234 556.717,197.621 C 558.25,196.007 560.227,195.2 562.651,195.2 C 564.237,195.2 565.668,195.579 566.942,196.337 C 568.215,197.096 569.186,198.152 569.855,199.508 C 570.524,200.864 570.858,202.402 570.858,204.12 C 570.858,205.863 570.506,207.422 569.802,208.797 C 569.098,210.172 568.102,211.214 566.813,211.921 C 565.522,212.628 564.131,212.982 562.639,212.982 C 561.02,212.982 559.575,212.591 558.301,211.81 C 557.026,211.029 556.061,209.961 555.405,208.61 C 554.749,207.259 554.42,205.828 554.42,204.319 z M 556.764,204.349 C 556.764,206.419 557.321,208.05 558.434,209.242 C 559.549,210.433 560.946,211.029 562.627,211.029 C 564.338,211.029 565.748,210.427 566.854,209.224 C 567.96,208.021 568.514,206.314 568.514,204.103 C 568.514,202.705 568.278,201.484 567.804,200.441 C 567.33,199.398 566.639,198.589 565.729,198.015 C 564.818,197.441 563.795,197.154 562.663,197.154 C 561.052,197.154 559.667,197.707 558.505,198.812 C 557.344,199.917 556.764,201.763 556.764,204.349 z "
   id="path141" />
</g>
<path
   d="M 541.2051,200.59442 L 541.2051,202.20942 L 502.4926,202.20942 L 502.1601,201.40192 L 502.9676,200.59442 L 541.2051,200.59442 z "
   id="polygon143" />
<path
   d="M 586.6151,235.74442 L 585.8076,236.07692 L 584.6201,236.03037 L 558.4476,209.85692 L 559.5876,208.71787 L 586.6151,235.74442 z "
   id="polygon145" />
<path
   d="M 551.98855,275.26442 L 551.1801,270.75192 L 548.42605,268.33038 L 584.6201,236.03037 L 585.8076,236.07692 L 585.00105,238.21442 L 551.98855,275.26442 z "
   id="polygon147" />
<g
   id="g149"
   transform="matrix(0.95,0,0,0.95,16.65025,8.329625)">
	<path
   d="M 554.42,316.969 C 554.42,314.116 555.186,311.884 556.717,310.271 C 558.25,308.657 560.227,307.85 562.651,307.85 C 564.237,307.85 565.668,308.229 566.942,308.987 C 568.215,309.746 569.186,310.802 569.855,312.158 C 570.524,313.514 570.858,315.052 570.858,316.77 C 570.858,318.513 570.506,320.072 569.802,321.447 C 569.098,322.822 568.102,323.864 566.813,324.571 C 565.522,325.278 564.131,325.632 562.639,325.632 C 561.02,325.632 559.575,325.241 558.301,324.46 C 557.026,323.679 556.061,322.611 555.405,321.26 C 554.749,319.909 554.42,318.478 554.42,316.969 z M 556.764,316.998 C 556.764,319.068 557.321,320.699 558.434,321.891 C 559.549,323.082 560.946,323.678 562.627,323.678 C 564.338,323.678 565.748,323.076 566.854,321.873 C 567.96,320.67 568.514,318.963 568.514,316.752 C 568.514,315.354 568.278,314.133 567.804,313.09 C 567.33,312.047 566.639,311.238 565.729,310.664 C 564.818,310.09 563.795,309.803 562.663,309.803 C 561.052,309.803 559.667,310.356 558.505,311.461 C 557.344,312.566 556.764,314.412 556.764,316.998 z "
   id="path151" />
	<path
   d="M 573.869,325.334 L 573.869,308.146 L 576.15,308.146 L 576.15,315.209 L 585.041,315.209 L 585.041,308.146 L 587.322,308.146 L 587.322,325.334 L 585.041,325.334 L 585.041,317.24 L 576.15,317.24 L 576.15,325.334 L 573.869,325.334 z "
   id="path153" />
</g>
<path
   d="M 551.98855,298.63442 L 550.3726,298.63442 L 550.3726,273.17442 L 551.1801,270.75192 L 551.98855,275.26442 L 551.98855,298.63442 z "
   id="polygon155" />
<path
   d="M 586.6151,272.98442 L 585.00105,274.59943 L 585.00105,238.21442 L 585.8076,236.07692 L 586.6151,235.74442 L 586.6151,272.98442 z "
   id="polygon157" />
<path
   d="M 468.2926,274.59943 L 466.6776,272.98442 L 466.6776,235.74442 L 467.4851,236.07692 L 468.2926,238.21442 L 468.2926,274.59943 z "
   id="polygon159" />
<g
   id="g161"
   transform="matrix(0.95,0,0,0.95,16.65025,8.329625)">
	<path
   d="M 502.819,237.619 C 502.819,234.766 503.585,232.534 505.117,230.921 C 506.649,229.307 508.627,228.5 511.05,228.5 C 512.637,228.5 514.067,228.879 515.341,229.637 C 516.615,230.396 517.586,231.452 518.254,232.808 C 518.923,234.163 519.257,235.702 519.257,237.42 C 519.257,239.163 518.905,240.722 518.201,242.097 C 517.498,243.472 516.502,244.514 515.212,245.221 C 513.922,245.928 512.531,246.282 511.038,246.282 C 509.42,246.282 507.974,245.891 506.7,245.11 C 505.426,244.329 504.461,243.261 503.804,241.91 C 503.147,240.558 502.819,239.128 502.819,237.619 z M 505.163,237.648 C 505.163,239.718 505.72,241.349 506.834,242.541 C 507.948,243.733 509.346,244.328 511.026,244.328 C 512.738,244.328 514.147,243.726 515.254,242.523 C 516.359,241.32 516.913,239.613 516.913,237.402 C 516.913,236.004 516.677,234.783 516.203,233.74 C 515.73,232.697 515.039,231.888 514.128,231.314 C 513.217,230.74 512.195,230.453 511.062,230.453 C 509.452,230.453 508.066,231.006 506.905,232.111 C 505.744,233.216 505.163,235.063 505.163,237.648 z "
   id="path163" />
	<path
   d="M 522.269,245.984 L 522.269,228.796 L 524.55,228.796 L 524.55,235.859 L 533.441,235.859 L 533.441,228.796 L 535.722,228.796 L 535.722,245.984 L 533.441,245.984 L 533.441,237.89 L 524.55,237.89 L 524.55,245.984 L 522.269,245.984 z "
   id="path165" />
</g>
<path
   d="M 501.3526,244.38942 L 502.9676,244.38942 L 502.9676,268.33038 L 502.1601,270.75192 L 501.3526,265.14693 L 501.3526,244.38942 z "
   id="polygon167" />
<path
   d="M 501.3526,175.08692 L 502.9676,175.08692 L 502.9676,200.59442 L 502.1601,201.40192 L 501.3526,201.06942 L 501.3526,175.08692 z "
   id="polygon169" />
<g
   id="g171"
   transform="matrix(0.95,0,0,0.95,16.65025,8.329625)">
	<path
   d="M 426.67,280.519 C 426.67,277.666 427.436,275.434 428.967,273.821 C 430.5,272.207 432.477,271.4 434.901,271.4 C 436.487,271.4 437.918,271.779 439.192,272.537 C 440.465,273.296 441.436,274.352 442.105,275.708 C 442.774,277.064 443.108,278.602 443.108,280.32 C 443.108,282.063 442.756,283.622 442.052,284.997 C 441.348,286.372 440.352,287.414 439.063,288.121 C 437.772,288.828 436.381,289.182 434.889,289.182 C 433.27,289.182 431.825,288.791 430.551,288.01 C 429.276,287.229 428.311,286.161 427.655,284.81 C 426.999,283.459 426.67,282.027 426.67,280.519 z M 429.014,280.548 C 429.014,282.618 429.571,284.249 430.684,285.441 C 431.799,286.632 433.196,287.228 434.877,287.228 C 436.588,287.228 437.998,286.626 439.104,285.423 C 440.21,284.22 440.764,282.513 440.764,280.302 C 440.764,278.904 440.528,277.683 440.054,276.64 C 439.58,275.597 438.889,274.788 437.979,274.214 C 437.068,273.64 436.045,273.353 434.913,273.353 C 433.302,273.353 431.917,273.906 430.755,275.011 C 429.594,276.116 429.014,277.962 429.014,280.548 z "
   id="path173" />
</g>
<path
   d="M 439.7926,274.59943 L 439.7926,272.98442 L 466.6776,272.98442 L 468.2926,274.59943 L 439.7926,274.59943 z "
   id="polygon175" />
<path
   d="M 464.7776,120.55692 L 467.4851,122.98037 L 466.6776,125.40192 L 415.7576,125.40192 L 418.4651,122.98037 L 419.2726,120.55692 L 464.7776,120.55692 z "
   id="polygon177" />
<path
   d="M 384.6451,90.441925 L 383.8376,88.304425 L 384.9776,88.304425 L 417.6576,117.37442 L 418.4651,122.98037 L 415.7576,125.40192 L 384.6451,90.441925 z "
   id="polygon179" />
<path
   d="M 417.6576,53.344425 L 418.4651,53.676925 L 418.7976,54.484425 L 384.9776,88.304425 L 383.8376,88.304425 L 383.0301,87.971925 L 417.6576,53.344425 z "
   id="polygon181" />
<g
   id="g183"
   transform="matrix(0.95,0,0,0.95,16.65025,8.329625)">
	<path
   d="M 466.369,48.819 C 466.369,45.966 467.135,43.734 468.667,42.121 C 470.199,40.507 472.177,39.7 474.6,39.7 C 476.187,39.7 477.618,40.079 478.891,40.837 C 480.164,41.596 481.136,42.652 481.805,44.008 C 482.473,45.363 482.807,46.902 482.807,48.62 C 482.807,50.363 482.455,51.922 481.752,53.297 C 481.048,54.672 480.051,55.714 478.762,56.421 C 477.472,57.128 476.08,57.482 474.588,57.482 C 472.97,57.482 471.524,57.091 470.25,56.31 C 468.976,55.529 468.011,54.461 467.354,53.11 C 466.697,51.758 466.369,50.328 466.369,48.819 z M 468.713,48.849 C 468.713,50.919 469.27,52.55 470.384,53.742 C 471.498,54.934 472.896,55.529 474.576,55.529 C 476.288,55.529 477.697,54.927 478.804,53.724 C 479.911,52.521 480.463,50.814 480.463,48.603 C 480.463,47.205 480.227,45.984 479.754,44.941 C 479.28,43.898 478.588,43.089 477.678,42.515 C 476.768,41.941 475.745,41.654 474.612,41.654 C 473.002,41.654 471.616,42.207 470.455,43.312 C 469.294,44.417 468.713,46.263 468.713,48.849 z "
   id="path185" />
</g>
<path
   d="M 457.5101,52.869425 L 457.5101,54.484425 L 418.7976,54.484425 L 418.4651,53.676925 L 419.2726,52.869425 L 457.5101,52.869425 z "
   id="polygon187" />
<path
   d="M 502.9676,87.971925 L 502.1601,88.304425 L 500.9726,88.304425 L 474.8001,62.131925 L 475.9401,60.991925 L 502.9676,87.971925 z "
   id="polygon189" />
<path
   d="M 468.2926,127.53942 L 467.4851,122.98037 L 464.7776,120.55692 L 500.9726,88.304425 L 502.1601,88.304425 L 501.3526,90.441925 L 468.2926,127.53942 z "
   id="polygon191" />
<g
   id="g193"
   transform="matrix(0.95,0,0,0.95,16.65025,8.329625)">
	<path
   d="M 449.951,169.834 L 449.951,152.646 L 452.232,152.646 L 452.232,159.709 L 461.123,159.709 L 461.123,152.646 L 463.404,152.646 L 463.404,169.834 L 461.123,169.834 L 461.123,161.74 L 452.232,161.74 L 452.232,169.834 L 449.951,169.834 z "
   id="path195" />
	<path
   d="M 466.502,161.469 C 466.502,158.616 467.268,156.384 468.799,154.771 C 470.332,153.157 472.309,152.35 474.733,152.35 C 476.319,152.35 477.75,152.729 479.024,153.487 C 480.297,154.246 481.268,155.302 481.937,156.658 C 482.606,158.014 482.94,159.552 482.94,161.27 C 482.94,163.013 482.588,164.572 481.884,165.947 C 481.18,167.322 480.184,168.364 478.895,169.071 C 477.604,169.778 476.213,170.132 474.721,170.132 C 473.102,170.132 471.657,169.741 470.383,168.96 C 469.108,168.179 468.143,167.111 467.487,165.76 C 466.831,164.409 466.502,162.978 466.502,161.469 z M 468.846,161.498 C 468.846,163.568 469.403,165.199 470.516,166.391 C 471.631,167.582 473.028,168.178 474.709,168.178 C 476.42,168.178 477.83,167.576 478.936,166.373 C 480.042,165.17 480.596,163.463 480.596,161.252 C 480.596,159.854 480.36,158.633 479.886,157.59 C 479.412,156.547 478.721,155.738 477.811,155.164 C 476.9,154.59 475.877,154.303 474.745,154.303 C 473.134,154.303 471.749,154.856 470.587,155.961 C 469.426,157.066 468.846,158.912 468.846,161.498 z "
   id="path197" />
</g>
<path
   d="M 468.2926,150.86192 L 466.6776,150.86192 L 466.6776,125.40192 L 467.4851,122.98037 L 468.2926,127.53942 L 468.2926,150.86192 z "
   id="polygon199" />
<path
   d="M 502.9676,116.23442 L 501.3526,116.23442 L 501.3526,90.441925 L 502.1601,88.304425 L 502.9676,87.971925 L 502.9676,116.23442 z "
   id="polygon201" />
<path
   d="M 384.6451,126.82692 L 383.0301,125.21192 L 383.0301,87.971925 L 383.8376,88.304425 L 384.6451,90.441925 L 384.6451,126.82692 z "
   id="polygon203" />
<g
   id="g205"
   transform="matrix(0.95,0,0,0.95,16.65025,8.329625)">
	<path
   d="M 414.77,82.069 C 414.77,79.216 415.536,76.984 417.067,75.371 C 418.6,73.757 420.577,72.95 423.001,72.95 C 424.587,72.95 426.018,73.329 427.292,74.087 C 428.565,74.846 429.536,75.902 430.205,77.258 C 430.874,78.614 431.208,80.152 431.208,81.87 C 431.208,83.613 430.856,85.172 430.152,86.547 C 429.448,87.922 428.452,88.964 427.163,89.671 C 425.872,90.378 424.481,90.732 422.989,90.732 C 421.37,90.732 419.925,90.341 418.651,89.56 C 417.376,88.779 416.411,87.711 415.755,86.36 C 415.099,85.009 414.77,83.578 414.77,82.069 z M 417.113,82.099 C 417.113,84.169 417.67,85.8 418.783,86.992 C 419.898,88.183 421.295,88.779 422.976,88.779 C 424.687,88.779 426.097,88.177 427.203,86.974 C 428.309,85.771 428.863,84.064 428.863,81.853 C 428.863,80.455 428.627,79.234 428.153,78.191 C 427.679,77.148 426.988,76.339 426.078,75.765 C 425.167,75.191 424.144,74.904 423.012,74.904 C 421.401,74.904 420.016,75.457 418.854,76.562 C 417.693,77.667 417.113,79.513 417.113,82.099 z "
   id="path207" />
	<path
   d="M 434.219,90.435 L 434.219,73.247 L 436.5,73.247 L 436.5,80.31 L 445.391,80.31 L 445.391,73.247 L 447.672,73.247 L 447.672,90.435 L 445.391,90.435 L 445.391,82.341 L 436.5,82.341 L 436.5,90.435 L 434.219,90.435 z "
   id="path209" />
</g>
<path
   d="M 417.6576,96.664425 L 419.2726,96.664425 L 419.2726,120.55692 L 418.4651,122.98037 L 417.6576,117.37442 L 417.6576,96.664425 z "
   id="polygon211" />
<g
   id="g213"
   transform="matrix(0.95,0,0,0.95,16.65025,8.329625)">
	<path
   d="M 428.457,11.457 L 430.738,12.031 C 430.261,13.901 429.404,15.327 428.168,16.308 C 426.932,17.289 425.419,17.781 423.632,17.781 C 421.782,17.781 420.278,17.404 419.119,16.649 C 417.959,15.895 417.078,14.801 416.473,13.371 C 415.869,11.94 415.567,10.403 415.567,8.762 C 415.567,6.972 415.908,5.409 416.59,4.076 C 417.272,2.743 418.244,1.729 419.504,1.038 C 420.764,0.347 422.15,0 423.664,0 C 425.381,0 426.824,0.438 427.994,1.314 C 429.166,2.191 429.98,3.422 430.441,5.011 L 428.207,5.538 C 427.809,4.288 427.231,3.378 426.475,2.808 C 425.719,2.238 424.766,1.953 423.62,1.953 C 422.302,1.953 421.2,2.269 420.315,2.902 C 419.429,3.535 418.807,4.384 418.448,5.451 C 418.09,6.517 417.911,7.617 417.911,8.75 C 417.911,10.211 418.123,11.486 418.548,12.576 C 418.973,13.666 419.634,14.48 420.53,15.019 C 421.426,15.558 422.397,15.828 423.441,15.828 C 424.712,15.828 425.788,15.461 426.669,14.726 C 427.55,13.991 428.145,12.902 428.457,11.457 z "
   id="path215" />
	<path
   d="M 433.633,17.484 L 433.633,0.297 L 435.914,0.297 L 435.914,7.36 L 444.805,7.36 L 444.805,0.297 L 447.086,0.297 L 447.086,17.485 L 444.805,17.485 L 444.805,9.391 L 435.914,9.391 L 435.914,17.485 L 433.633,17.485 L 433.633,17.484 z "
   id="path217" />
</g>
<g
   id="g219"
   transform="matrix(0.95,0,0,0.95,16.65025,8.329625)">
	<path
   d="M 456.995,20.469 L 456.995,21.985 L 448.464,21.985 C 448.452,21.604 448.514,21.238 448.65,20.886 C 448.868,20.306 449.217,19.735 449.698,19.173 C 450.179,18.611 450.869,17.962 451.768,17.226 C 453.164,16.073 454.11,15.162 454.608,14.492 C 455.106,13.822 455.355,13.187 455.355,12.589 C 455.355,11.963 455.129,11.436 454.68,11.005 C 454.229,10.575 453.643,10.36 452.919,10.36 C 452.153,10.36 451.542,10.589 451.083,11.048 C 450.624,11.507 450.392,12.142 450.386,12.953 L 448.761,12.781 C 448.872,11.565 449.292,10.639 450.021,10.003 C 450.749,9.365 451.727,9.047 452.955,9.047 C 454.194,9.047 455.175,9.39 455.897,10.076 C 456.619,10.762 456.98,11.612 456.98,12.626 C 456.98,13.142 456.874,13.649 456.663,14.147 C 456.452,14.645 456.1,15.17 455.61,15.721 C 455.119,16.272 454.305,17.028 453.17,17.989 C 452.22,18.787 451.608,19.327 451.337,19.612 C 451.066,19.895 450.841,20.181 450.664,20.468 L 456.995,20.468 L 456.995,20.469 z "
   id="path221" />
</g>
<g
   id="g223"
   transform="matrix(0.95,0,0,0.95,16.65025,8.329625)">
	<path
   d="M 458.322,9.119 C 458.322,6.266 459.088,4.034 460.621,2.421 C 462.152,0.807 464.131,0 466.553,0 C 468.141,0 469.571,0.379 470.844,1.137 C 472.118,1.896 473.09,2.952 473.758,4.308 C 474.426,5.664 474.76,7.202 474.76,8.92 C 474.76,10.663 474.408,12.222 473.705,13.597 C 473.002,14.972 472.005,16.014 470.715,16.721 C 469.426,17.428 468.034,17.782 466.541,17.782 C 464.924,17.782 463.477,17.391 462.203,16.61 C 460.929,15.829 459.965,14.761 459.307,13.41 C 458.649,12.059 458.322,10.628 458.322,9.119 z M 460.666,9.148 C 460.666,11.218 461.223,12.849 462.338,14.041 C 463.451,15.232 464.85,15.828 466.529,15.828 C 468.242,15.828 469.65,15.226 470.758,14.023 C 471.863,12.82 472.416,11.113 472.416,8.902 C 472.416,7.504 472.18,6.283 471.707,5.24 C 471.234,4.197 470.542,3.388 469.631,2.814 C 468.721,2.24 467.699,1.953 466.565,1.953 C 464.956,1.953 463.569,2.506 462.409,3.611 C 461.246,4.717 460.666,6.563 460.666,9.148 z "
   id="path225" />
	<path
   d="M 477.771,17.484 L 477.771,0.297 L 480.052,0.297 L 480.052,7.36 L 488.943,7.36 L 488.943,0.297 L 491.224,0.297 L 491.224,17.485 L 488.943,17.485 L 488.943,9.391 L 480.052,9.391 L 480.052,17.485 L 477.771,17.485 L 477.771,17.484 z "
   id="path227" />
</g>
<path
   d="M 417.6576,27.314425 L 419.2726,27.314425 L 419.2726,52.869425 L 418.4651,53.676925 L 417.6576,53.344425 L 417.6576,27.314425 z "
   id="polygon229" />
<g
   id="g231"
   transform="matrix(0.95,0,0,0.95,16.65025,8.329625)">
	<path
   d="M 319.8,133.334 L 319.8,130.928 L 322.206,130.928 L 322.206,133.334 L 319.8,133.334 z "
   id="path233" />
	<path
   d="M 326.468,133.334 L 326.468,130.928 L 328.874,130.928 L 328.874,133.334 L 326.468,133.334 z "
   id="path235" />
	<path
   d="M 333.136,133.334 L 333.136,130.928 L 335.542,130.928 L 335.542,133.334 L 333.136,133.334 z "
   id="path237" />
	<path
   d="M 338.773,124.969 C 338.773,122.116 339.539,119.884 341.07,118.271 C 342.603,116.657 344.58,115.85 347.004,115.85 C 348.59,115.85 350.021,116.229 351.295,116.987 C 352.568,117.746 353.539,118.802 354.208,120.158 C 354.877,121.514 355.211,123.052 355.211,124.77 C 355.211,126.513 354.859,128.072 354.155,129.447 C 353.451,130.822 352.455,131.864 351.166,132.571 C 349.875,133.278 348.484,133.632 346.992,133.632 C 345.373,133.632 343.928,133.241 342.654,132.46 C 341.379,131.679 340.414,130.611 339.758,129.26 C 339.102,127.909 338.773,126.478 338.773,124.969 z M 341.117,124.998 C 341.117,127.068 341.674,128.699 342.787,129.891 C 343.902,131.082 345.299,131.678 346.98,131.678 C 348.691,131.678 350.101,131.076 351.207,129.873 C 352.313,128.67 352.867,126.963 352.867,124.752 C 352.867,123.354 352.631,122.133 352.157,121.09 C 351.683,120.047 350.992,119.238 350.082,118.664 C 349.171,118.09 348.148,117.803 347.016,117.803 C 345.405,117.803 344.02,118.356 342.858,119.461 C 341.697,120.566 341.117,122.412 341.117,124.998 z "
   id="path239" />
</g>
<path
   d="M 356.1926,126.82692 L 356.1926,125.21192 L 383.0301,125.21192 L 384.6451,126.82692 L 356.1926,126.82692 z "
   id="polygon241" />
<g
   id="g243"
   transform="matrix(0.95,0,0,0.95,16.65025,8.329625)">
	<path
   d="M 502.819,124.969 C 502.819,122.116 503.585,119.884 505.117,118.271 C 506.649,116.657 508.627,115.85 511.05,115.85 C 512.637,115.85 514.067,116.229 515.341,116.987 C 516.615,117.746 517.586,118.802 518.254,120.158 C 518.923,121.513 519.257,123.052 519.257,124.77 C 519.257,126.513 518.905,128.072 518.201,129.447 C 517.498,130.822 516.502,131.864 515.212,132.571 C 513.922,133.278 512.531,133.632 511.038,133.632 C 509.42,133.632 507.974,133.241 506.7,132.46 C 505.426,131.679 504.461,130.611 503.804,129.26 C 503.147,127.907 502.819,126.478 502.819,124.969 z M 505.163,124.998 C 505.163,127.068 505.72,128.699 506.834,129.891 C 507.948,131.083 509.346,131.678 511.026,131.678 C 512.738,131.678 514.147,131.076 515.254,129.873 C 516.359,128.67 516.913,126.963 516.913,124.752 C 516.913,123.354 516.677,122.133 516.203,121.09 C 515.73,120.047 515.039,119.238 514.128,118.664 C 513.217,118.09 512.195,117.803 511.062,117.803 C 509.452,117.803 508.066,118.356 506.905,119.461 C 505.744,120.566 505.163,122.412 505.163,124.998 z "
   id="path245" />
</g>
<g
   id="g247"
   transform="matrix(0.95,0,0,0.95,16.65025,8.329625)">
	<path
   d="M 516.507,167.007 L 518.788,167.581 C 518.312,169.451 517.455,170.877 516.219,171.858 C 514.982,172.839 513.469,173.331 511.682,173.331 C 509.832,173.331 508.328,172.954 507.169,172.199 C 506.01,171.445 505.128,170.351 504.523,168.921 C 503.918,167.49 503.616,165.953 503.616,164.312 C 503.616,162.522 503.957,160.959 504.64,159.626 C 505.322,158.293 506.293,157.279 507.554,156.588 C 508.814,155.897 510.2,155.55 511.714,155.55 C 513.431,155.55 514.874,155.988 516.044,156.864 C 517.215,157.741 518.03,158.972 518.49,160.561 L 516.256,161.088 C 515.859,159.838 515.28,158.928 514.525,158.358 C 513.768,157.788 512.816,157.503 511.67,157.503 C 510.352,157.503 509.25,157.819 508.364,158.452 C 507.478,159.085 506.857,159.934 506.498,161.001 C 506.139,162.068 505.96,163.167 505.96,164.3 C 505.96,165.761 506.172,167.036 506.598,168.126 C 507.022,169.216 507.683,170.03 508.579,170.569 C 509.475,171.108 510.446,171.378 511.49,171.378 C 512.761,171.378 513.837,171.011 514.718,170.276 C 515.599,169.541 516.195,168.452 516.507,167.007 z "
   id="path249" />
	<path
   d="M 521.683,173.034 L 521.683,155.846 L 523.964,155.846 L 523.964,162.909 L 532.855,162.909 L 532.855,155.846 L 535.136,155.846 L 535.136,173.034 L 532.855,173.034 L 532.855,164.94 L 523.964,164.94 L 523.964,173.034 L 521.683,173.034 z "
   id="path251" />
</g>
<g
   id="g253"
   transform="matrix(0.95,0,0,0.95,16.65025,8.329625)">
	<path
   d="M 545.045,176.019 L 545.045,177.535 L 536.514,177.535 C 536.502,177.154 536.565,176.788 536.7,176.436 C 536.919,175.856 537.268,175.285 537.749,174.723 C 538.23,174.161 538.919,173.512 539.819,172.776 C 541.214,171.623 542.161,170.712 542.659,170.042 C 543.157,169.372 543.405,168.737 543.405,168.139 C 543.405,167.513 543.18,166.986 542.73,166.555 C 542.28,166.125 541.694,165.91 540.969,165.91 C 540.203,165.91 539.592,166.139 539.133,166.598 C 538.674,167.057 538.442,167.692 538.436,168.503 L 536.811,168.331 C 536.922,167.115 537.342,166.189 538.071,165.553 C 538.8,164.915 539.778,164.597 541.005,164.597 C 542.244,164.597 543.226,164.94 543.947,165.626 C 544.669,166.312 545.03,167.162 545.03,168.176 C 545.03,168.692 544.925,169.199 544.714,169.697 C 544.502,170.195 544.151,170.72 543.661,171.271 C 543.169,171.822 542.356,172.578 541.22,173.539 C 540.27,174.337 539.659,174.877 539.388,175.162 C 539.117,175.445 538.892,175.731 538.714,176.018 L 545.045,176.018 L 545.045,176.019 z "
   id="path255" />
</g>
<path
   d="M 501.35261,137.41942 L 502.96761,137.41942 L 502.96761,153.90287 L 501.35261,153.90287 L 501.35261,137.41942 z "
   id="rect257" />
<g
   id="g259"
   transform="matrix(0.95,0,0,0.95,16.65025,8.329625)">
	<path
   d="M 630.569,280.519 C 630.569,277.666 631.335,275.434 632.867,273.821 C 634.399,272.207 636.377,271.4 638.8,271.4 C 640.387,271.4 641.817,271.779 643.091,272.537 C 644.365,273.296 645.336,274.352 646.004,275.708 C 646.673,277.063 647.007,278.602 647.007,280.32 C 647.007,282.063 646.655,283.622 645.951,284.997 C 645.248,286.372 644.252,287.414 642.962,288.121 C 641.672,288.828 640.281,289.182 638.788,289.182 C 637.17,289.182 635.724,288.791 634.45,288.01 C 633.176,287.229 632.211,286.161 631.554,284.81 C 630.897,283.457 630.569,282.027 630.569,280.519 z M 632.913,280.548 C 632.913,282.618 633.47,284.249 634.584,285.441 C 635.698,286.633 637.096,287.228 638.776,287.228 C 640.488,287.228 641.897,286.626 643.004,285.423 C 644.109,284.22 644.663,282.513 644.663,280.302 C 644.663,278.904 644.427,277.683 643.953,276.64 C 643.48,275.597 642.789,274.788 641.878,274.214 C 640.967,273.64 639.945,273.353 638.812,273.353 C 637.202,273.353 635.816,273.906 634.655,275.011 C 633.494,276.116 632.913,277.962 632.913,280.548 z "
   id="path261" />
	<path
   d="M 650.269,288.884 L 650.269,286.478 L 652.675,286.478 L 652.675,288.884 L 650.269,288.884 z "
   id="path263" />
	<path
   d="M 656.937,288.884 L 656.937,286.478 L 659.343,286.478 L 659.343,288.884 L 656.937,288.884 z "
   id="path265" />
	<path
   d="M 663.604,288.884 L 663.604,286.478 L 666.01,286.478 L 666.01,288.884 L 663.604,288.884 z "
   id="path267" />
</g>
<path
   d="M 613.5476,272.98442 L 613.5476,274.59943 L 585.00105,274.59943 L 586.6151,272.98442 L 613.5476,272.98442 z "
   id="polygon269" />
<path
   style="fill:none;stroke:#000000;stroke-width:1.61500001"
   d="M 226.3751,317.68192 L 216.0676,317.68192 L 216.0676,153.42692 L 226.3751,153.42692 M 393.6701,153.42692 L 403.9776,153.42692 L 403.9776,317.68097 L 393.6701,317.68097"
   id="path271" />
<g
   id="g273"
   transform="matrix(0.95,0,0,0.95,16.65025,8.329625)">
	<path
   d="M 415.322,321.981 L 415.322,320.465 L 423.666,320.465 L 423.666,321.692 C 422.844,322.565 422.029,323.725 421.223,325.173 C 420.416,326.62 419.792,328.11 419.352,329.64 C 419.036,330.719 418.832,331.9 418.745,333.184 L 417.12,333.184 C 417.138,332.169 417.337,330.945 417.719,329.508 C 418.1,328.071 418.648,326.687 419.361,325.353 C 420.074,324.02 420.833,322.896 421.636,321.981 L 415.322,321.981 L 415.322,321.981 z "
   id="path275" />
	<path
   d="M 425.036,329.31 L 425.036,327.716 L 429.911,327.716 L 429.911,329.31 L 425.036,329.31 z "
   id="path277" />
	<path
   d="M 437.171,333.185 L 435.593,333.185 L 435.593,323.104 C 435.211,323.467 434.71,323.831 434.09,324.194 C 433.471,324.557 432.914,324.83 432.421,325.011 L 432.421,323.482 C 433.307,323.066 434.082,322.562 434.745,321.97 C 435.408,321.378 435.878,320.804 436.154,320.247 L 437.171,320.247 L 437.171,333.185 L 437.171,333.185 z "
   id="path279" />
	<path
   d="M 447.182,333.185 L 445.604,333.185 L 445.604,323.104 C 445.222,323.467 444.721,323.831 444.102,324.194 C 443.482,324.557 442.925,324.83 442.432,325.011 L 442.432,323.482 C 443.319,323.066 444.093,322.562 444.756,321.97 C 445.419,321.378 445.889,320.804 446.164,320.247 L 447.182,320.247 L 447.182,333.185 z "
   id="path281" />
</g>
</svg>