<?xml version="1.0" encoding="UTF-8"?>
<!DOCTYPE svg PUBLIC "-//W3C//DTD SVG 1.1//EN" "http://www.w3.org/Graphics/SVG/1.1/DTD/svg11.dtd">
<svg xmlns="http://www.w3.org/2000/svg" xml:space="preserve" width="1000px" height="421px" style="shape-rendering:geometricPrecision; text-rendering:geometricPrecision; image-rendering:optimizeQuality; fill-rule:evenodd; clip-rule:evenodd"
viewBox="0 0 1000 421.053"
 xmlns:xlink="http://www.w3.org/1999/xlink">
 <defs>
  <style type="text/css">
   <![CDATA[
    .str0 {stroke:#B3B3B3;stroke-width:0.877193}
    .fil1 {fill:none}
    .fil4 {fill:#40C2F3}
    .fil3 {fill:#54BF63}
    .fil0 {fill:white}
    .fil2 {fill:#2B2A29;fill-rule:nonzero}
   ]]>
  </style>
 </defs>
 <g id="Layer_x0020_3">
  <rect class="fil0" x="8.39118" y="6.78105" width="985.291" height="406.941"/>
  <line class="fil1 str0" x1="102.79" y1="15.1867" x2="102.79" y2= "408.762" />
  <line class="fil1 str0" x1="200.139" y1="15.1867" x2="200.139" y2= "408.762" />
  <line class="fil1 str0" x1="296.505" y1="15.1867" x2="296.505" y2= "408.762" />
  <line class="fil1 str0" x1="395.82" y1="15.1867" x2="395.82" y2= "408.762" />
  <line class="fil1 str0" x1="494.153" y1="15.1867" x2="494.153" y2= "408.762" />
  <line class="fil1 str0" x1="591.502" y1="15.1867" x2="591.502" y2= "408.762" />
  <line class="fil1 str0" x1="690.326" y1="15.1867" x2="690.326" y2= "408.762" />
  <line class="fil1 str0" x1="787.184" y1="15.1867" x2="787.184" y2= "408.762" />
  <line class="fil1 str0" x1="885.516" y1="15.1867" x2="885.516" y2= "408.762" />
  <line class="fil1 str0" x1="982.865" y1="99.7526" x2="982.865" y2= "318.296" />
  <line class="fil1 str0" x1="8.39123" y1="107.865" x2="993.682" y2= "107.865" />
  <g>
   <path class="fil2" d="M102.79 107.865l10.7404 -5.36842 0 10.7404 -10.7404 -5.37193zm10.1789 -0.877193l0 1.75439 -0.0452632 -0.00105263 -0.0442105 -0.00350877 -0.0442105 -0.00561404 -0.0431579 -0.0077193 -0.0424561 -0.00982456 -0.0414035 -0.0115789 -0.0407018 -0.0140351 -0.04 -0.0157895 -0.0389474 -0.0175439 -0.0375439 -0.0192982 -0.0368421 -0.0210526 -0.0354386 -0.022807 -0.034386 -0.0245614 -0.0333333 -0.0259649 -0.0319298 -0.0277193 -0.0305263 -0.0291228 -0.0287719 -0.0301754 -0.0277193 -0.0319298 -0.0259649 -0.0333333 -0.0245614 -0.034386 -0.022807 -0.0354386 -0.0210526 -0.0368421 -0.0192982 -0.0375439 -0.0175439 -0.0389474 -0.0157895 -0.04 -0.0140351 -0.0407018 -0.0115789 -0.0414035 -0.00982456 -0.0424561 -0.0077193 -0.0431579 -0.00561404 -0.0442105 -0.00350877 -0.0442105 -0.00105263 -0.0452632 0.00105263 -0.0452632 0.00350877 -0.0442105 0.00561404 -0.0442105 0.0077193 -0.0431579 0.00982456 -0.0424561 0.0115789 -0.0414035 0.0140351 -0.0407018 0.0157895 -0.04 0.0175439 -0.0389474 0.0192982 -0.0375439 0.0210526 -0.0368421 0.022807 -0.0354386 0.0245614 -0.034386 0.0259649 -0.0333333 0.0277193 -0.0319298 0.0287719 -0.0305263 0.0305263 -0.0287719 0.0319298 -0.0277193 0.0333333 -0.0259649 0.034386 -0.0245614 0.0354386 -0.022807 0.0368421 -0.0210526 0.0375439 -0.0192982 0.0389474 -0.0175439 0.04 -0.0157895 0.0407018 -0.0140351 0.0414035 -0.0115789 0.0424561 -0.00982456 0.0431579 -0.0077193 0.0442105 -0.00561404 0.0442105 -0.00350877 0.0452632 -0.00105263zm859.718 1.75439l-859.718 0 0 -1.75439 859.718 0 0 1.75439zm10.1789 -0.877193l-10.7404 5.37193 0 -10.7404 10.7404 5.36842zm-10.1789 0.877193l0 -1.75439 0.0452632 0.00105263 0.0442105 0.00350877 0.0442105 0.00561404 0.0431579 0.0077193 0.0424561 0.00982456 0.0414035 0.0115789 0.0407018 0.0140351 0.04 0.0157895 0.0389474 0.0175439 0.0375439 0.0192982 0.0368421 0.0210526 0.0354386 0.022807 0.034386 0.0245614 0.0333333 0.0259649 0.0319298 0.0277193 0.0305263 0.0287719 0.0287719 0.0305263 0.0277193 0.0319298 0.0259649 0.0333333 0.0245614 0.034386 0.022807 0.0354386 0.0210526 0.0368421 0.0192982 0.0375439 0.0175439 0.0389474 0.0157895 0.04 0.0140351 0.0407018 0.0115789 0.0414035 0.00982456 0.0424561 0.0077193 0.0431579 0.00561404 0.0442105 0.00350877 0.0442105 0.00105263 0.0452632 -0.00105263 0.0452632 -0.00350877 0.0442105 -0.00561404 0.0442105 -0.0077193 0.0431579 -0.00982456 0.0424561 -0.0115789 0.0414035 -0.0140351 0.0407018 -0.0157895 0.04 -0.0175439 0.0389474 -0.0192982 0.0375439 -0.0210526 0.0368421 -0.022807 0.0354386 -0.0245614 0.034386 -0.0259649 0.0333333 -0.0277193 0.0319298 -0.0287719 0.0301754 -0.0305263 0.0291228 -0.0319298 0.0277193 -0.0333333 0.0259649 -0.034386 0.0245614 -0.0354386 0.022807 -0.0368421 0.0210526 -0.0375439 0.0192982 -0.0389474 0.0175439 -0.04 0.0157895 -0.0407018 0.0140351 -0.0414035 0.0115789 -0.0424561 0.00982456 -0.0431579 0.0077193 -0.0442105 0.00561404 -0.0442105 0.00350877 -0.0452632 0.00105263z"/>
  </g>
  <line class="fil1 str0" x1="8.39123" y1="205.46" x2="993.682" y2= "205.46" />
  <line class="fil1 str0" x1="8.39123" y1="303.792" x2="993.682" y2= "303.792" />
  <line class="fil1 str0" x1="8.39123" y1="398.437" x2="993.682" y2= "398.437" />
  <path class="fil2" d="M535.696 95.5354l1.32947 -0.123158c0.112632,0.624211 0.327719,1.07754 0.644912,1.36105 0.317193,0.280351 0.72386,0.422105 1.22211,0.422105 0.424561,0 0.796842,-0.097193 1.11684,-0.293684 0.32,-0.194035 0.582105,-0.453684 0.786667,-0.778947 0.207368,-0.324912 0.377544,-0.765614 0.516491,-1.31614 0.136491,-0.553333 0.207368,-1.11719 0.207368,-1.69158 0,-0.06 -0.00280702,-0.154386 -0.0077193,-0.275088 -0.278246,0.437895 -0.655789,0.796842 -1.13298,1.06982 -0.48,0.275439 -0.999298,0.411579 -1.55509,0.411579 -0.933333,0 -1.72246,-0.338246 -2.36772,-1.01474 -0.645263,-0.676491 -0.967368,-1.56561 -0.967368,-2.67193 0,-1.14316 0.335439,-2.06105 1.00912,-2.7586 0.674035,-0.697544 1.5186,-1.04632 2.53333,-1.04632 0.731579,0 1.4,0.199298 2.00842,0.592632 0.605614,0.393333 1.06737,0.957193 1.38211,1.68632 0.314386,0.728772 0.47193,1.78561 0.47193,3.17018 0,1.43684 -0.154737,2.58246 -0.467018,3.43754 -0.314386,0.852281 -0.778596,1.5 -1.39474,1.94561 -0.618947,0.445965 -1.34,0.668772 -2.17123,0.668772 -0.881053,0 -1.59965,-0.24386 -2.15789,-0.734386 -0.558596,-0.487719 -0.894386,-1.17474 -1.00702,-2.06105zm5.66105 -4.97158c0,-0.79193 -0.209474,-1.42386 -0.63193,-1.88807 -0.424561,-0.466667 -0.930877,-0.7 -1.52596,-0.7 -0.613684,0 -1.14842,0.251579 -1.60456,0.752632 -0.456491,0.503509 -0.684561,1.15368 -0.684561,1.95088 0,0.718596 0.217544,1.30035 0.650175,1.74877 0.432982,0.448421 0.964912,0.671579 1.59965,0.671579 0.642456,0 1.16667,-0.223158 1.5786,-0.671579 0.414035,-0.448421 0.618596,-1.06982 0.618596,-1.86421zm6.65544 7.57544l0 -8.15754 1.23509 0 0 1.14316c0.256842,-0.398596 0.597895,-0.721053 1.02281,-0.962456 0.424561,-0.243509 0.909825,-0.366667 1.45263,-0.366667 0.603158,0 1.0986,0.125614 1.48421,0.377544 0.387719,0.251579 0.660702,0.600351 0.817895,1.05123 0.647719,-0.951579 1.48667,-1.42877 2.52,-1.42877 0.810175,0 1.43158,0.225263 1.86702,0.673684 0.435439,0.448421 0.652982,1.13789 0.652982,2.06877l0 5.60105 -1.37404 0 0 -5.13965c0,-0.552982 -0.0445614,-0.951579 -0.133684,-1.19544 -0.0919298,-0.241053 -0.254386,-0.437895 -0.48807,-0.587368 -0.235789,-0.146667 -0.513684,-0.222807 -0.831228,-0.222807 -0.574035,0 -1.04877,0.191228 -1.42877,0.574035 -0.377544,0.380351 -0.569123,0.991228 -0.569123,1.83018l0 4.74105 -1.38175 0 0 -5.2993c0,-0.61614 -0.112982,-1.07789 -0.338246,-1.38456 -0.225614,-0.306667 -0.592632,-0.461404 -1.10667,-0.461404 -0.38807,0 -0.747368,0.102105 -1.07789,0.309474 -0.330175,0.204211 -0.571579,0.503158 -0.718246,0.896842 -0.149474,0.395789 -0.223158,0.964561 -0.223158,1.70667l0 4.23228 -1.38175 0z"/>
  <rect class="fil3" x="713.31" y="153.22" width="11.3082" height="11.3082"/>
  <path class="fil2" d="M737.118 158.686l0.225263 -1.06421 4.10807 0 -0.799649 3.82175c-0.515789,0.325614 -1.10561,0.590175 -1.76561,0.795439 -0.662105,0.203158 -1.31333,0.305965 -1.95368,0.305965 -1.36561,0 -2.38596,-0.410877 -3.0593,-1.23474 -0.56807,-0.696842 -0.85193,-1.59053 -0.85193,-2.68316 0,-1.12561 0.248772,-2.15263 0.744912,-3.07474 0.498246,-0.924211 1.12561,-1.60807 1.88351,-2.04982 0.75614,-0.441053 1.59965,-0.662105 2.52421,-0.662105 0.666316,0 1.26526,0.120351 1.79404,0.360702 0.528772,0.242456 0.932982,0.56386 1.21474,0.96807 0.282105,0.402105 0.485263,0.928772 0.609825,1.57754l-1.23053 0.133333c-0.130877,-0.642456 -0.406316,-1.13825 -0.821404,-1.4814 -0.417193,-0.343158 -0.950526,-0.515789 -1.60386,-0.515789 -0.679649,0 -1.31333,0.185965 -1.90105,0.555088 -0.590175,0.369474 -1.06,0.926316 -1.41193,1.66947 -0.351579,0.744912 -0.528772,1.59088 -0.528772,2.5393 0,0.94386 0.23193,1.65614 0.697193,2.1393 0.465263,0.480702 1.10807,0.723158 1.92737,0.723158 0.815088,0 1.69333,-0.268772 2.63088,-0.808421l0.42386 -2.01474 -2.85614 0zm5.73789 1.1186c0,-1.32632 0.391228,-2.42561 1.17123,-3.29509 0.644561,-0.718947 1.49018,-1.07719 2.53474,-1.07719 0.819649,0 1.48175,0.257544 1.98211,0.769123 0.500351,0.511228 0.751579,1.20386 0.751579,2.07368 0,0.782456 -0.157193,1.50772 -0.474035,2.18105 -0.314737,0.670526 -0.764912,1.18632 -1.34596,1.54456 -0.583509,0.358596 -1.19754,0.537544 -1.84211,0.537544 -0.528772,0 -1.00947,-0.111579 -1.44246,-0.338596 -0.432632,-0.225263 -0.764561,-0.546316 -0.99193,-0.959298 -0.229474,-0.415088 -0.343158,-0.893684 -0.343158,-1.43579zm1.15825 -0.113333c0,0.64 0.155088,1.12526 0.461053,1.45509 0.30807,0.330175 0.699298,0.49614 1.17123,0.49614 0.249123,0 0.494035,-0.0505263 0.736491,-0.150877 0.244561,-0.100351 0.469825,-0.251228 0.679298,-0.456491 0.207719,-0.205614 0.387018,-0.439298 0.533333,-0.701404 0.148772,-0.262456 0.266667,-0.544211 0.35614,-0.84807 0.133333,-0.42386 0.198947,-0.82807 0.198947,-1.21719 0,-0.614035 -0.155088,-1.09018 -0.465263,-1.43123 -0.30807,-0.338596 -0.697193,-0.507018 -1.16702,-0.507018 -0.362807,0 -0.694737,0.0852632 -0.992281,0.257895 -0.299298,0.172632 -0.570175,0.426316 -0.810526,0.758246 -0.240351,0.334386 -0.417193,0.721404 -0.530877,1.16246 -0.113684,0.441404 -0.170526,0.834737 -0.170526,1.18246zm6.1986 2.69404l1.42246 -6.79789 1.02281 0 -0.286316 1.38737c0.349825,-0.524211 0.690526,-0.913333 1.02702,-1.16456 0.334386,-0.251228 0.677544,-0.377895 1.02702,-0.377895 0.229825,0 0.513684,0.082807 0.852281,0.251228l-0.474035 1.07509c-0.201053,-0.146316 -0.421754,-0.218596 -0.66,-0.218596 -0.404211,0 -0.821404,0.227368 -1.24772,0.679649 -0.42807,0.452281 -0.762456,1.26526 -1.00526,2.4386l-0.576842 2.72702 -1.1014 0zm4.57298 0.614035l1.17123 0.109474c-0.00877193,0.264211 0.0242105,0.463158 0.0964912,0.596491 0.0719298,0.130877 0.187719,0.233684 0.344912,0.305965 0.209825,0.0940351 0.481053,0.141754 0.812982,0.141754 0.701404,0 1.20386,-0.181053 1.51228,-0.54386 0.198947,-0.244912 0.384561,-0.773684 0.557193,-1.58877l0.113684 -0.550526c-0.601053,0.609825 -1.2414,0.915439 -1.92105,0.915439 -0.685965,0 -1.2607,-0.253333 -1.72386,-0.757895 -0.463509,-0.507368 -0.695088,-1.22175 -0.695088,-2.14842 0,-0.764561 0.181754,-1.46596 0.546316,-2.10632 0.364912,-0.640351 0.8,-1.12316 1.30456,-1.45088 0.502456,-0.325614 1.02035,-0.489474 1.55579,-0.489474 0.891579,0 1.57789,0.42386 2.0607,1.26737l0.229474 -1.11228 1.06421 0 -1.37018 6.56211c-0.150877,0.721053 -0.345263,1.28281 -0.589825,1.68667 -0.242807,0.402456 -0.581404,0.714737 -1.01404,0.937544 -0.432632,0.220702 -0.932982,0.332281 -1.50105,0.332281 -0.546316,0 -1.01614,-0.0698246 -1.41193,-0.21193 -0.395439,-0.14 -0.690526,-0.345263 -0.882807,-0.61614 -0.194386,-0.271228 -0.292632,-0.581404 -0.292632,-0.933333 0,-0.104912 0.0108772,-0.220351 0.0326316,-0.345263zm1.44667 -3.62281c0,0.465263 0.0459649,0.815088 0.135439,1.05088 0.126667,0.32807 0.310526,0.579298 0.546316,0.75193 0.23614,0.172632 0.500702,0.257544 0.791228,0.257544 0.38,0 0.758246,-0.132982 1.13193,-0.399649 0.375789,-0.266667 0.679298,-0.679649 0.913333,-1.23895 0.231579,-0.557544 0.349474,-1.09263 0.349474,-1.59965 0,-0.559298 -0.155088,-1.00281 -0.465263,-1.33509 -0.30807,-0.329825 -0.692982,-0.49614 -1.14947,-0.49614 -0.281754,0 -0.555088,0.0764912 -0.819298,0.227368 -0.264561,0.150526 -0.511579,0.382456 -0.738947,0.690526 -0.229123,0.310175 -0.401754,0.681754 -0.517895,1.11228 -0.117895,0.430526 -0.176842,0.75614 -0.176842,0.978947zm6.38456 0.42807c0,-1.32632 0.391228,-2.42561 1.17123,-3.29509 0.644561,-0.718947 1.49018,-1.07719 2.53474,-1.07719 0.819649,0 1.48175,0.257544 1.98211,0.769123 0.500351,0.511228 0.751579,1.20386 0.751579,2.07368 0,0.782456 -0.157193,1.50772 -0.474035,2.18105 -0.314737,0.670526 -0.764912,1.18632 -1.34596,1.54456 -0.583509,0.358596 -1.19754,0.537544 -1.84211,0.537544 -0.529123,0 -1.00982,-0.111579 -1.44246,-0.338596 -0.432632,-0.225263 -0.764561,-0.546316 -0.99193,-0.959298 -0.229474,-0.415088 -0.343158,-0.893684 -0.343158,-1.43579zm1.15825 -0.113333c0,0.64 0.155088,1.12526 0.461053,1.45509 0.30807,0.330175 0.699298,0.49614 1.17123,0.49614 0.249123,0 0.493684,-0.0505263 0.736491,-0.150877 0.244561,-0.100351 0.469474,-0.251228 0.679298,-0.456491 0.207719,-0.205614 0.387018,-0.439298 0.533333,-0.701404 0.148421,-0.262456 0.266667,-0.544211 0.35614,-0.84807 0.133333,-0.42386 0.198947,-0.82807 0.198947,-1.21719 0,-0.614035 -0.155439,-1.09018 -0.465263,-1.43123 -0.308421,-0.338596 -0.697544,-0.507018 -1.16702,-0.507018 -0.362807,0 -0.695088,0.0852632 -0.992281,0.257895 -0.299298,0.172632 -0.570175,0.426316 -0.810526,0.758246 -0.240351,0.334386 -0.417193,0.721404 -0.531228,1.16246 -0.113333,0.441404 -0.170175,0.834737 -0.170175,1.18246zm6.30807 0.371228l1.15825 -0.0719298c0,0.334386 0.0522807,0.618246 0.154737,0.852281 0.100702,0.233684 0.290877,0.425965 0.565965,0.576491 0.275439,0.148772 0.596491,0.223158 0.96386,0.223158 0.511228,0 0.895789,-0.102807 1.15158,-0.305965 0.255789,-0.205263 0.384561,-0.44807 0.384561,-0.725614 0,-0.198596 -0.0764912,-0.388772 -0.231579,-0.56807 -0.157193,-0.178947 -0.542105,-0.399649 -1.15404,-0.662105 -0.613684,-0.264211 -1.00491,-0.44807 -1.17544,-0.555088 -0.286316,-0.174737 -0.500351,-0.38 -0.646667,-0.618246 -0.144211,-0.23614 -0.216491,-0.509123 -0.216491,-0.815088 0,-0.537544 0.21193,-0.998596 0.640351,-1.38316 0.425965,-0.384561 1.02281,-0.576842 1.79193,-0.576842 0.85193,0 1.50316,0.198596 1.94912,0.592281 0.445614,0.395439 0.677544,0.915439 0.694737,1.56l-1.13404 0.0764912c-0.0175439,-0.410877 -0.161754,-0.734386 -0.434737,-0.972632 -0.273333,-0.24 -0.66,-0.358246 -1.15825,-0.358246 -0.402105,0 -0.712281,0.0919298 -0.935439,0.273333 -0.222807,0.183509 -0.33193,0.382456 -0.33193,0.596491 0,0.214035 0.0961404,0.402105 0.288421,0.56386 0.126667,0.111228 0.456842,0.281754 0.992281,0.511228 0.887018,0.384561 1.44632,0.688421 1.67579,0.909123 0.367018,0.354035 0.550877,0.786667 0.550877,1.29333 0,0.336842 -0.102807,0.668772 -0.310526,0.992281 -0.207368,0.323509 -0.522105,0.583509 -0.948421,0.777895 -0.42386,0.194386 -0.924211,0.290526 -1.50105,0.290526 -0.784561,0 -1.45298,-0.194386 -2.00386,-0.581053 -0.550526,-0.389123 -0.810877,-1.02035 -0.78,-1.89474zm11.3011 1.47719c-0.402105,0.345263 -0.786667,0.598947 -1.15825,0.758246 -0.371228,0.161754 -0.769123,0.240351 -1.19088,0.240351 -0.627018,0 -1.13404,-0.183509 -1.5186,-0.552632 -0.382456,-0.369474 -0.574737,-0.841404 -0.574737,-1.41825 0,-0.380351 0.0852632,-0.716842 0.257895,-1.00737 0.172632,-0.292982 0.402105,-0.528772 0.68807,-0.705965 0.286316,-0.176842 0.63614,-0.30386 1.05123,-0.38 0.26,-0.0505263 0.753684,-0.0919298 1.4814,-0.122456 0.727719,-0.0284211 1.25018,-0.107018 1.56491,-0.229474 0.0894737,-0.316842 0.135439,-0.579298 0.135439,-0.788772 0,-0.268772 -0.0985965,-0.478596 -0.295088,-0.633684 -0.268772,-0.21193 -0.662105,-0.319298 -1.17789,-0.319298 -0.487368,0 -0.884912,0.107368 -1.19298,0.323509 -0.310175,0.216491 -0.535439,0.522456 -0.675439,0.917895l-1.17333 -0.102807c0.240351,-0.672982 0.618246,-1.18877 1.13614,-1.54912 0.520351,-0.358596 1.17368,-0.537544 1.96246,-0.537544 0.841404,0 1.50772,0.201053 1.99719,0.602807 0.37614,0.297544 0.56386,0.686316 0.56386,1.16491 0,0.362807 -0.0522807,0.782105 -0.159298,1.2607l-0.378246 1.69158c-0.120351,0.537544 -0.179298,0.974386 -0.179298,1.31088 0,0.214386 0.0484211,0.52 0.142105,0.922105l-1.17333 0c-0.0635088,-0.222807 -0.107368,-0.502456 -0.133333,-0.845614zm0.428421 -2.59825c-0.161754,0.0635088 -0.336842,0.113684 -0.522456,0.146667 -0.185614,0.0347368 -0.49614,0.0698246 -0.930877,0.109123 -0.672982,0.0589474 -1.14947,0.135439 -1.42702,0.227368 -0.277193,0.0915789 -0.487018,0.238246 -0.627018,0.439298 -0.142105,0.198596 -0.21193,0.421404 -0.21193,0.664211 0,0.325614 0.111228,0.59193 0.336491,0.801754 0.222807,0.207719 0.542105,0.312632 0.957193,0.312632 0.384561,0 0.753684,-0.100702 1.10772,-0.30386 0.354035,-0.203158 0.633684,-0.484912 0.836842,-0.847719 0.205614,-0.362807 0.365263,-0.880702 0.481053,-1.54947zm7.19088 2.21368c-0.815088,0.922105 -1.64982,1.38316 -2.50246,1.38316 -0.524211,0 -0.94807,-0.150526 -1.27158,-0.449825 -0.321053,-0.301754 -0.482807,-0.669123 -0.482807,-1.10596 0,-0.28386 0.0719298,-0.775789 0.218596,-1.47053l0.819298 -3.92456 1.15825 0 -0.909123 4.34632c-0.0764912,0.362807 -0.115789,0.644561 -0.115789,0.845614 0,0.255789 0.0785965,0.454386 0.233684,0.598596 0.155088,0.142105 0.384912,0.214035 0.688421,0.214035 0.323509,0 0.640351,-0.0785965 0.950526,-0.237895 0.310175,-0.157193 0.576842,-0.371579 0.799649,-0.640351 0.225263,-0.268772 0.406667,-0.585614 0.548772,-0.952632 0.0940351,-0.23614 0.203158,-0.647018 0.325263,-1.23684l0.614386 -2.93684 1.16035 0 -1.42281 6.79789 -1.06842 0 0.255789 -1.23018zm2.9207 1.23018l1.42246 -6.79789 1.02281 0 -0.286316 1.38737c0.349825,-0.524211 0.690526,-0.913333 1.02702,-1.16456 0.334386,-0.251228 0.677544,-0.377895 1.02702,-0.377895 0.229825,0 0.513684,0.082807 0.852281,0.251228l-0.474035 1.07509c-0.201053,-0.146316 -0.421754,-0.218596 -0.66,-0.218596 -0.404211,0 -0.821404,0.227368 -1.24772,0.679649 -0.42807,0.452281 -0.762456,1.26526 -1.00526,2.4386l-0.576842 2.72702 -1.1014 0zm9.27789 -1.23018c-0.815088,0.922105 -1.64982,1.38316 -2.50211,1.38316 -0.524561,0 -0.948421,-0.150526 -1.27158,-0.449825 -0.321404,-0.301754 -0.483158,-0.669123 -0.483158,-1.10596 0,-0.28386 0.0722807,-0.775789 0.218596,-1.47053l0.819298 -3.92456 1.15825 0 -0.909123 4.34632c-0.0764912,0.362807 -0.115789,0.644561 -0.115789,0.845614 0,0.255789 0.0785965,0.454386 0.233684,0.598596 0.155439,0.142105 0.384912,0.214035 0.688421,0.214035 0.323509,0 0.640351,-0.0785965 0.950877,-0.237895 0.309825,-0.157193 0.576491,-0.371579 0.799298,-0.640351 0.225263,-0.268772 0.406667,-0.585614 0.548772,-0.952632 0.0940351,-0.23614 0.203158,-0.647018 0.325614,-1.23684l0.614035 -2.93684 1.16035 0 -1.42281 6.79789 -1.06842 0 0.255789 -1.23018zm3.03018 -1.09263l1.15825 -0.0719298c0,0.334386 0.0522807,0.618246 0.155088,0.852281 0.100351,0.233684 0.290526,0.425965 0.565965,0.576491 0.275439,0.148772 0.596491,0.223158 0.963509,0.223158 0.511579,0 0.89614,-0.102807 1.15158,-0.305965 0.255789,-0.205263 0.384912,-0.44807 0.384912,-0.725614 0,-0.198596 -0.0768421,-0.388772 -0.23193,-0.56807 -0.157193,-0.178947 -0.541754,-0.399649 -1.15368,-0.662105 -0.614035,-0.264211 -1.00526,-0.44807 -1.17544,-0.555088 -0.286667,-0.174737 -0.500702,-0.38 -0.647018,-0.618246 -0.144211,-0.23614 -0.21614,-0.509123 -0.21614,-0.815088 0,-0.537544 0.21193,-0.998596 0.64,-1.38316 0.425965,-0.384561 1.02281,-0.576842 1.79193,-0.576842 0.852281,0 1.50316,0.198596 1.94912,0.592281 0.445614,0.395439 0.677544,0.915439 0.695088,1.56l-1.13404 0.0764912c-0.0175439,-0.410877 -0.161754,-0.734386 -0.435088,-0.972632 -0.272982,-0.24 -0.66,-0.358246 -1.15825,-0.358246 -0.402105,0 -0.712281,0.0919298 -0.935088,0.273333 -0.222807,0.183509 -0.332281,0.382456 -0.332281,0.596491 0,0.214035 0.0961404,0.402105 0.288421,0.56386 0.127018,0.111228 0.456842,0.281754 0.992281,0.511228 0.887018,0.384561 1.44632,0.688421 1.67579,0.909123 0.367368,0.354035 0.550877,0.786667 0.550877,1.29333 0,0.336842 -0.102807,0.668772 -0.310175,0.992281 -0.207719,0.323509 -0.522456,0.583509 -0.948421,0.777895 -0.42386,0.194386 -0.924561,0.290526 -1.5014,0.290526 -0.784561,0 -1.45298,-0.194386 -2.00386,-0.581053 -0.550526,-0.389123 -0.810526,-1.02035 -0.78,-1.89474zm10.2698 2.32281l1.96 -9.38526 1.15825 0 -1.96035 9.38526 -1.15789 0zm4.91825 -8.07193l0.275439 -1.31333 1.15158 0 -0.273333 1.31333 -1.15368 0zm-1.68912 8.07193l1.42035 -6.79789 1.15825 0 -1.4207 6.79789 -1.15789 0zm3.22667 0l1.96035 -9.38526 1.15825 0 -0.697544 3.35439c0.367368,-0.336491 0.699298,-0.574737 0.998947,-0.712281 0.297193,-0.14 0.609474,-0.209825 0.932982,-0.209825 0.63614,0 1.16702,0.238246 1.59088,0.712281 0.426316,0.47193 0.637895,1.16246 0.637895,2.06737 0,0.600702 -0.0849123,1.15123 -0.255439,1.65193 -0.170526,0.498246 -0.382456,0.917544 -0.633684,1.25614 -0.253684,0.341053 -0.513684,0.61193 -0.782456,0.812982 -0.268772,0.203158 -0.544211,0.356491 -0.825965,0.454737 -0.282105,0.100351 -0.552982,0.150526 -0.812982,0.150526 -0.447719,0 -0.841404,-0.117895 -1.18421,-0.354035 -0.341053,-0.238246 -0.607719,-0.598596 -0.8,-1.08596l-0.268421 1.28702 -1.0186 0zm1.71544 -2.79053l-0.00631579 0.216491c0,0.581053 0.139649,1.02281 0.417193,1.32632 0.277544,0.301754 0.622807,0.454386 1.03579,0.454386 0.406316,0 0.777895,-0.141754 1.11895,-0.425965 0.338596,-0.28386 0.61614,-0.727719 0.834737,-1.32842 0.218596,-0.601053 0.325614,-1.15614 0.325614,-1.66526 0,-0.570175 -0.137895,-1.01614 -0.413333,-1.33053 -0.272982,-0.317193 -0.614035,-0.474386 -1.02035,-0.474386 -0.417193,0 -0.802105,0.161754 -1.15158,0.483158 -0.349474,0.323158 -0.642456,0.819298 -0.87614,1.48807 -0.177193,0.500351 -0.264561,0.917544 -0.264561,1.25614zm5.84702 2.79053l1.42246 -6.79789 1.02281 0 -0.286316 1.38737c0.349825,-0.524211 0.690526,-0.913333 1.02702,-1.16456 0.334386,-0.251228 0.677544,-0.377895 1.02702,-0.377895 0.229474,0 0.513684,0.082807 0.852281,0.251228l-0.474386 1.07509c-0.200702,-0.146316 -0.421404,-0.218596 -0.659649,-0.218596 -0.404211,0 -0.821754,0.227368 -1.24772,0.679649 -0.428421,0.452281 -0.762807,1.26526 -1.00526,2.4386l-0.576842 2.72702 -1.1014 0zm9.2207 -0.845614c-0.402105,0.345263 -0.786667,0.598947 -1.15789,0.758246 -0.371579,0.161754 -0.769474,0.240351 -1.19088,0.240351 -0.627368,0 -1.13439,-0.183509 -1.51895,-0.552632 -0.382456,-0.369474 -0.574737,-0.841404 -0.574737,-1.41825 0,-0.380351 0.0852632,-0.716842 0.257895,-1.00737 0.172632,-0.292982 0.402105,-0.528772 0.688421,-0.705965 0.286316,-0.176842 0.635789,-0.30386 1.05088,-0.38 0.260351,-0.0505263 0.754035,-0.0919298 1.48175,-0.122456 0.727719,-0.0284211 1.24982,-0.107018 1.56456,-0.229474 0.0894737,-0.316842 0.135439,-0.579298 0.135439,-0.788772 0,-0.268772 -0.0982456,-0.478596 -0.294737,-0.633684 -0.269123,-0.21193 -0.662456,-0.319298 -1.17825,-0.319298 -0.487018,0 -0.884561,0.107368 -1.19298,0.323509 -0.310175,0.216491 -0.535088,0.522456 -0.675088,0.917895l-1.17368 -0.102807c0.240702,-0.672982 0.618596,-1.18877 1.13649,-1.54912 0.52,-0.358596 1.17333,-0.537544 1.96246,-0.537544 0.841053,0 1.50772,0.201053 1.99719,0.602807 0.375789,0.297544 0.56386,0.686316 0.56386,1.16491 0,0.362807 -0.0526316,0.782105 -0.159649,1.2607l-0.378246 1.69158c-0.12,0.537544 -0.178947,0.974386 -0.178947,1.31088 0,0.214386 0.0480702,0.52 0.141754,0.922105l-1.17298 0c-0.0638596,-0.222807 -0.107368,-0.502456 -0.133684,-0.845614zm0.428421 -2.59825c-0.161754,0.0635088 -0.336491,0.113684 -0.522105,0.146667 -0.185965,0.0347368 -0.49614,0.0698246 -0.930877,0.109123 -0.673333,0.0589474 -1.14947,0.135439 -1.42702,0.227368 -0.277544,0.0915789 -0.487368,0.238246 -0.627368,0.439298 -0.141754,0.198596 -0.211579,0.421404 -0.211579,0.664211 0,0.325614 0.111228,0.59193 0.336491,0.801754 0.222807,0.207719 0.541754,0.312632 0.956842,0.312632 0.384561,0 0.754035,-0.100702 1.10807,-0.30386 0.354035,-0.203158 0.633684,-0.484912 0.836842,-0.847719 0.205263,-0.362807 0.364912,-0.880702 0.480702,-1.54947zm5.25684 2.50211l-0.189825 0.948421c-0.277895,0.0719298 -0.546316,0.109123 -0.808772,0.109123 -0.458947,0 -0.825965,-0.113333 -1.09895,-0.340702 -0.205263,-0.170526 -0.30807,-0.402105 -0.30807,-0.697193 0,-0.148421 0.054386,-0.491579 0.165965,-1.03123l0.825965 -3.94877 -0.915789 0 0.185965 -0.895789 0.915439 0 0.35193 -1.67158 1.32632 -0.8 -0.52 2.47158 1.1407 0 -0.192281 0.895789 -1.13404 0 -0.786667 3.7586c-0.0982456,0.476491 -0.146316,0.762456 -0.146316,0.856491 0,0.137895 0.0392982,0.240351 0.117895,0.314737 0.0785965,0.0719298 0.207368,0.107018 0.386667,0.107018 0.255789,0 0.485263,-0.0238596 0.68386,-0.0764912zm5.84702 -0.288421c-0.814737,0.922105 -1.64947,1.38316 -2.50211,1.38316 -0.524211,0 -0.94807,-0.150526 -1.27158,-0.449825 -0.321053,-0.301754 -0.482807,-0.669123 -0.482807,-1.10596 0,-0.28386 0.0719298,-0.775789 0.218596,-1.47053l0.819298 -3.92456 1.15825 0 -0.909123 4.34632c-0.0764912,0.362807 -0.115789,0.644561 -0.115789,0.845614 0,0.255789 0.0785965,0.454386 0.233684,0.598596 0.155088,0.142105 0.384561,0.214035 0.688421,0.214035 0.323509,0 0.640351,-0.0785965 0.950526,-0.237895 0.310175,-0.157193 0.576842,-0.371579 0.799649,-0.640351 0.225263,-0.268772 0.406667,-0.585614 0.548421,-0.952632 0.0940351,-0.23614 0.203509,-0.647018 0.325614,-1.23684l0.614386 -2.93684 1.16 0 -1.42246 6.79789 -1.06842 0 0.255439 -1.23018zm3.03053 -1.09263l1.15825 -0.0719298c0,0.334386 0.0522807,0.618246 0.154737,0.852281 0.100702,0.233684 0.290877,0.425965 0.565965,0.576491 0.275439,0.148772 0.596491,0.223158 0.96386,0.223158 0.511228,0 0.895789,-0.102807 1.15158,-0.305965 0.255789,-0.205263 0.384561,-0.44807 0.384561,-0.725614 0,-0.198596 -0.0764912,-0.388772 -0.231579,-0.56807 -0.157193,-0.178947 -0.542105,-0.399649 -1.15404,-0.662105 -0.613684,-0.264211 -1.00491,-0.44807 -1.17544,-0.555088 -0.286316,-0.174737 -0.500351,-0.38 -0.646667,-0.618246 -0.144211,-0.23614 -0.216491,-0.509123 -0.216491,-0.815088 0,-0.537544 0.21193,-0.998596 0.640351,-1.38316 0.425965,-0.384561 1.02281,-0.576842 1.79193,-0.576842 0.85193,0 1.50316,0.198596 1.94912,0.592281 0.445614,0.395439 0.677544,0.915439 0.694737,1.56l-1.13404 0.0764912c-0.0175439,-0.410877 -0.161754,-0.734386 -0.434737,-0.972632 -0.273333,-0.24 -0.66,-0.358246 -1.15825,-0.358246 -0.402105,0 -0.712281,0.0919298 -0.935439,0.273333 -0.222807,0.183509 -0.33193,0.382456 -0.33193,0.596491 0,0.214035 0.0961404,0.402105 0.288421,0.56386 0.126667,0.111228 0.456842,0.281754 0.99193,0.511228 0.887368,0.384561 1.44667,0.688421 1.67614,0.909123 0.367018,0.354035 0.550877,0.786667 0.550877,1.29333 0,0.336842 -0.102807,0.668772 -0.310526,0.992281 -0.207368,0.323509 -0.522105,0.583509 -0.948421,0.777895 -0.42386,0.194386 -0.924211,0.290526 -1.50105,0.290526 -0.784561,0 -1.45298,-0.194386 -2.00386,-0.581053 -0.550526,-0.389123 -0.810877,-1.02035 -0.78,-1.89474z"/>
  <path class="fil3" d="M111.656 227.515c-4.31018,-1.83298 -8.20632,-11.9182 -6.57614,-17.7305 0.567018,-2.0214 4.18947,-3.68105 6.89088,-6.30105 2.50632,-2.43123 4.24211,-7.04491 20.2954,-13.5358 2.47965,-1.00246 5.1207,-3.29579 8.21333,-4.62351 2.20877,-0.948421 2.14561,-5.85825 4.42491,-7.49754 2.2793,-1.63965 4.62982,0.16386 6.76035,0.491579 2.55123,-1.64491 4.28526,-5.04912 7.29053,-7.06702 1.80246,-1.21018 3.3193,-1.31368 5.20491,-2.13088 1.12456,-0.487018 1.43474,-1.56982 2.50526,-2.15298 1.44702,-0.78807 3.57298,-1.07053 4.29719,-1.55509 1.48491,-0.994386 1.6186,-3.27439 4.11719,-5.89754 2.4986,-2.62316 8.92246,-8.85333 16.7979,-11.5281 6.68526,-2.27053 18.4102,-3.31193 27.6365,-1.87228 23.7996,3.71333 44.42,29.8091 59.9828,29.9912 15.5628,0.181754 131.09,-28.3895 176.507,-17.6996 45.4168,10.6898 142.646,34.5039 177.244,66.6204 96.0667,89.1761 129.748,74.3295 183.518,84.2281 36.6639,6.74912 108.466,-21.9196 109.267,-20.9267 2.03123,2.51649 -25.2491,12.1547 -37.9425,16.8004 -23.8811,8.73965 -48.0807,14.5067 -76.6147,16.5098 -43.7014,3.06842 -99.9905,-3.83649 -125.251,-15.9789 -25.2607,-12.1425 -56.6193,-33.5081 -98.0884,-44.5032 -21.7747,-5.77333 -51.0439,-7.11789 -52.9751,-6.50667 -1.93088,0.610877 -14.134,9.47789 -22.1775,13.9137 -8.04351,4.43579 -13.1723,5.56 -19.4912,8.33228 -6.3193,2.77263 -10.2361,5.70842 -13.1986,6.12316 -2.96211,0.415088 -6.23018,3.81754 -7.69684,6.04702 -1.46632,2.22947 -0.688772,13.9 -0.990175,22.5954 -0.195439,5.64807 -1.79544,8.06526 -1.47123,9.7007 0.375439,1.89228 4.75789,5.1386 6.49088,10.5172 2.07053,6.42526 1.88632,15.5123 1.99368,20.1196 0.354035,15.1951 -3.7586,16.7467 -3.64175,30.2754 0.0192982,2.22912 6.16211,5.11053 5.98246,7.13614 -0.110175,1.2407 -7.0386,-4.02421 -7.1386,-2.76702 -0.314386,3.9414 0.115088,8.31719 -0.18,12.4323 -0.256491,0.0715789 -36.7804,0.0680702 -50.9481,0.054386 -2.71404,-0.00280702 -1.52,-1.29509 -4.1614,-1.58632 -1.28737,-0.141754 -2.39404,0.929474 -3.46351,1.31263 -1.06947,0.383158 -2.07439,0.0750877 -2.20912,-0.272632 -0.52386,-1.35123 1.51789,-4.34175 4.82,-4.86526 1.92772,-0.305614 5.22667,0.196842 8.40386,0.0561404 2.26386,-0.100351 4.13439,-0.860702 6.91123,-0.964211 4.05263,-0.150877 5.86947,-2.34561 10.1947,-2.79614 14.6449,-1.52526 18.4611,-14.6214 17.6077,-27.0761 -0.259298,-3.78211 0.165614,-17.8477 -7.47088,-27.0716 -7.63649,-9.22421 -23.0196,-13.7256 -28.4965,-19.4747 -10.3972,-10.9137 -10.047,-12.907 -11.4782,-13.6211 -3.9814,-1.98667 -14.0484,3.57614 -19.2354,-0.0515789 -2.7607,-1.93088 -1.95719,-7.00632 -5.16316,-8.55228 -3.20632,-1.54632 -20.8607,-4.0007 -35.2481,-7.68877 -11.5312,-2.95649 -24.2902,-7.91228 -32.8811,-10.1895 -4.61825,-1.22456 -7.68351,-0.714386 -9.49228,-0.866316 -6.06737,-0.510877 -9.36667,10.3561 -12.7593,16.2961 -2.88035,5.04316 -9.24386,0.857895 -9.11965,-2.83719 0.0796491,-2.36702 2.27509,3.25754 5.09298,1.7607 2.81789,-1.49684 5.52491,-10.0435 4.67895,-10.4877 -1.36877,-0.718596 -4.43579,2.00526 -7.21123,1.81825 -2.77544,-0.187018 -5.93439,-4.40596 -5.38772,-5.3214 0.546667,-0.915088 3.16421,1.85053 6.15649,1.71509 2.99228,-0.135439 3.64105,-0.729825 5.57053,-1.88877 2.90667,-1.74632 5.29895,-4.82596 5.35825,-5.72596 0.146667,-2.22877 -12.2919,-4.38807 -20.9544,-12.5807 -7.69404,-7.27754 -11.7933,-19.2109 -15.9779,-22.1088 -8.89544,-6.16105 -14.0881,-4.89789 -23.8018,-8.18807 -9.71368,-3.28982 -16.9723,-7.69509 -20.6386,-9.66456 -3.66632,-1.96912 -11.9589,-3.29123 -13.5793,-2.95439 -1.6207,0.337193 -6.07825,2.37193 -9.67158,5.32 -2.16561,1.77684 -3.99509,4.08456 -6.51018,6.22316 -2.0014,1.70211 -4.36807,2.67158 -6.42596,4.56912 -2.75509,2.54105 -5.52772,6.46772 -8.53474,8.9814 -6.96,5.81719 -13.88,11.0453 -18.3589,15.1316 -3.27754,2.99018 -7.89333,5.08982 -8.26947,5.19228 -1.81018,0.491579 -8.57509,1.50386 -11.4425,0.74 -2.29544,-0.611579 -3.25649,-2.73193 -4.78246,-3.44456 -1.52596,-0.712281 -1.92842,-4.04351 -1.49333,-5.0007 0.434737,-0.957544 1.88877,0.670526 2.08456,0.229825 0.195789,-0.440351 -0.729474,-2.37404 -0.398947,-2.68737 0.330175,-0.313333 2.23298,1.1986 2.60105,0.747368 0.368421,-0.451579 -0.488772,-2.32702 0.0364912,-2.78351 0.525263,-0.456491 3.08,2.14772 4.05474,1.01439 0.974386,-1.13333 -0.0442105,-5.20807 0.670877,-5.70596 0.715088,-0.497895 2.79368,4.29579 3.39368,3.92105 0.6,-0.374737 -0.238596,-2.77509 0.281404,-3.15158 0.52,-0.376491 2.10281,2.23825 2.84175,1.59018 0.738947,-0.64807 -1.82667,-4.96456 -0.885263,-5.56386 0.941754,-0.599298 3.24912,4.34807 4.02105,3.76456 0.771579,-0.58386 -0.868421,-5.70842 0.437895,-6.49825 1.30632,-0.790175 3.97965,3.74842 4.72947,3.20421 0.750175,-0.544211 -2.19684,-3.09018 -1.72561,-3.97579 0.471579,-0.885965 5.57123,0.189825 6.21614,-0.809474 0.644561,-0.999649 -3.82772,-2.98807 -3.4414,-3.88702 0.386667,-0.899298 4.78316,0.201754 5.31579,-0.480702 0.532281,-0.682456 -2.06737,-1.95053 -1.60491,-2.57789 0.462456,-0.627719 0.706667,-2.26281 1.44386,-3.16842 0.736842,-0.905614 2.79684,1.36281 3.03579,-0.547018 0.63193,-5.05368 7.65965,-16.6709 9.35298,-18.467 0.922807,-0.978947 0.630877,-4.15439 0.51614,-4.47895 -0.521404,-1.47404 -8.67649,0.0796491 -11.4309,1.47509 -2.75439,1.39509 -8.24386,4.23298 -10.6954,7.20246 -1.17965,1.42842 2.28211,2.75333 -0.261404,4.54035 -1.08561,0.763158 -4.11018,-2.15825 -5.07333,-1.22667 -0.637544,0.617193 2.21088,3.77719 1.53754,4.29825 -0.627719,0.485263 -4.29719,-3.44526 -4.85263,-2.94386 -0.505965,0.456842 0.842105,2.93474 0.361754,3.37228 -0.812281,0.739649 -1.04526,-0.534035 -1.79895,0.234035 -0.495088,0.504912 2.07298,3.33509 1.55789,3.81579 -1.52281,1.4207 -7.81825,-3.60281 -8.47404,-3.79649 -0.763509,-0.225614 0.677895,2.26 -0.00210526,2.67719 -1.01965,0.625965 -3.44421,-1.48772 -4.44456,-0.805965 -0.649474,0.442807 5.5593,5.0607 4.85789,5.49474 -1.27684,0.00701754 -11.0333,-4.71053 -11.7495,-4.12281 -0.715789,0.587719 5.1614,4.04772 3.91509,4.88842 -1.24632,0.840351 -8.92491,-4.53544 -9.49368,-3.95649 -0.568772,0.578596 2.85965,3.58737 2.09649,4.19053 -0.442807,0.349825 -2.89298,-0.514386 -3.84281,-1.24105 -0.950175,-0.727018 -2.21018,-2.55649 -2.83474,-2.55825 -1.06316,-0.00350877 0.30386,3.35509 -0.801053,3.61509 -1.10491,0.26 -2.27509,-3.00596 -3.31754,-2.99158 -0.84,0.0115789 0.793333,2.97053 0.154035,2.6986z"/>
  <path class="fil4" d="M80.7709 392.173c-1.41614,-4.56281 -2.40351,-9.4386 -1.93158,-13.5295 -2.67474,-5.8214 -3.4614,-11.8004 -1.88807,-17.7793 -1.39053,-2.85684 -1.73088,-3.85895 -1.73088,-5.8214 -1.1014,-6.13614 -0.94386,-12.587 -1.88807,-18.7232 -0.786667,-2.98947 -2.63544,-8.81123 -3.93333,-8.81123 -0.70807,0.23614 -0.157544,5.82175 -0.944211,8.81123 0.629474,5.8214 0.472281,10.5414 0.472281,15.2618 -0.629474,1.1014 -0.944211,2.36 -0.786667,3.6186 2.1793,5.08491 2.46105,11.7663 1.57333,16.206 0,3.4614 -0.472281,6.92316 -1.57333,10.5418 0.173333,5.71544 0.793333,12.0326 1.88807,17.7793 1.57333,5.50667 -2.9614,5.4614 -6.73754,6.40526 -1.1593,1.09719 -1.88,2.07789 -2.54561,3.97895 -0.786667,2.51754 -2.67474,2.98947 -5.03474,2.51754 -1.73088,1.73053 -3.4614,2.36 -5.19228,0.47193 -0.629474,-0.314737 -1.1014,-0.94386 -1.2586,-1.73053 0,-0.629474 0,-1.1014 0.157193,-1.57333 -0.157193,-0.944211 0,-1.88807 0.629474,-2.83228 0.786667,-1.57333 1.88807,-2.20281 3.30421,-2.20281 1.2586,-0.157193 4.40526,-3.77614 6.92281,-6.60807m27.534 -113.126c-1.57333,3.93333 -2.67474,7.70947 -1.1014,10.3842 0.787018,3.6186 0.944211,6.76561 -0.314386,8.49614 2.83193,2.36035 2.20246,13.2165 3.14667,13.6888 0.825965,-0.393333 0,0.47193 1.41614,-0.944211 0.157193,-3.77614 0.786667,-8.96842 0.157193,-10.5418 -0.786667,-4.72 -1.1014,-9.28281 -0.0203509,-13.2961 -0.407018,-0.401754 -0.338947,-0.257193 -0.923509,-0.707018 -1.73088,-2.36 -1.25895,-5.03474 -2.36035,-7.08zm-7.03649 107.146c-0.186667,3.22351 -0.555439,5.71509 -0.358246,8.97018 -1.1014,4.24807 -2.20281,4.40526 2.67474,7.70947 -0.0259649,0.821404 0.00631579,1.28561 -0.157193,2.20281 -0.472281,1.88807 0.314386,3.14667 2.20246,3.77614 0.786667,2.51719 2.36035,3.30421 4.72035,2.20281 0.629123,0.157193 1.2586,-0.157544 1.73053,-0.944211 0.472281,0 0.786667,-0.47193 1.1014,-1.1014 0.472281,-0.314737 0.944211,-0.629123 0.944211,-1.73053 -0.157544,-2.04561 -1.1014,-3.77614 -2.04561,-5.50702 -1.73053,-3.93333 -3.14667,-7.39474 -5.19193,-7.86667 0.94386,-0.314737 1.73053,-0.944211 1.57333,-2.83228 -0.472281,-2.51754 -0.314737,-5.03474 0.629123,-7.55228 2.67474,-10.3842 4.09088,-20.7688 -0.314737,-31.153 0.629474,-3.77614 0.314737,-6.60842 0.000350877,-9.91228 0.323158,-0.653333 0.490877,-1.6807 0.94386,-2.36 1.25895,-3.4614 1.88807,-6.76561 1.73088,-10.0698 2.04526,-1.41614 2.83193,-2.20281 3.77614,-5.03474 0.786667,-1.25895 1.41579,-2.51754 1.2586,-4.09088 0.47193,-2.51754 0.314737,-5.03474 0.314737,-7.23754 1.73053,-5.03474 1.73053,-10.8565 3.4614,-15.5765 1.88807,-6.45088 -0.944211,-14.4751 -1.1014,-17.7793 -0.47193,-2.20281 -0.369474,-9.4214 -1.57333,-13.5312 -1.20386,-4.10947 0.199298,-4.81193 -0.314737,-6.76526 -1.42912,-5.71719 -5.40561,-9.85123 -10.5418,-9.59789 -2.04526,-2.67474 -7.08,-4.72 -8.65368,-7.39474 -0.239298,-2.43965 -0.501404,-4.62175 0.472281,-6.13614 0.314386,-0.786667 0.786667,-1.73088 0.786667,-2.51754 1.2586,-0.786667 2.20281,-1.88807 1.88807,-4.72 1.88807,-1.88807 1.88807,-4.40561 -0.786667,-8.02456 -0.506316,-2.76596 -2.02456,-4.44982 -4.09088,-3.93333 -0.904211,-2.63719 -3.81474,-4.05333 -8.02421,-2.20281 -0.944211,1.57333 -1.88807,1.41614 -2.98947,1.57333 -1.57333,-0.157193 -2.04561,0.944211 -2.51754,1.88807 -0.314737,1.41614 -1.73053,1.73088 -2.67474,2.36 -0.629123,0.944211 -0.786667,1.88807 -0.157193,2.83228 -1.41614,1.88807 -1.73088,3.77614 0,5.50667 -0.314737,1.41614 0.314737,1.88807 0.94386,2.04561 -0.314737,0.94386 -0.157193,1.73053 0.629474,2.51719 0.157193,1.88807 0.629123,2.36035 1.41614,2.83228 0.476491,1.08351 0.790877,2.30947 1.2586,3.30386 0,2.98947 -0.157193,5.34982 -1.57333,6.13649 -2.20281,1.1014 -4.40561,2.51719 -6.60842,4.24807 -1.32035,-0.314386 -3.05018,-0.207368 -5.8214,1.1014 -3.77614,2.20281 -5.19228,4.24807 -5.34947,6.29333 -1.85228,0.408421 -3.85614,2.28316 -5.19228,3.61895 -0.898596,-3.24632 -2.35719,-6.39018 -1.88807,-9.59754 0,-3.93368 0.472281,-7.55228 2.51754,-10.0698 1.2586,-1.2586 2.04526,-2.67474 2.36,-3.93333 0.944211,-1.2586 1.73088,-2.20281 2.51754,-2.83228 1.2586,-2.36 -1.78561,-2.11474 -4.40561,0 -0.484912,0.391579 -0.89614,0.844561 -1.57333,1.41614 -1.1014,-4.09088 0.157544,-10.5418 -1.57333,-12.4298 -1.73088,0.944211 -1.1014,5.50702 -1.73088,8.18175 -1.2586,-3.4614 1.1014,-9.12561 -0.629123,-9.44035 -1.2586,1.2586 -1.88807,5.9786 -2.67474,10.0695 -0.786667,-3.77614 1.2586,-7.86667 0,-8.33895 -2.51754,1.25895 -2.36,6.29368 -2.36,9.75509 -0.944211,-3.14667 -0.472281,-7.08 -1.57368,-7.23754 -1.41579,0.786667 -1.57333,3.93333 -0.47193,7.86702 -0.707719,3.5386 0.554035,6.68842 2.20281,10.227 -1.41614,8.65368 -2.98947,21.3979 -0.944211,26.7474 -0.47193,5.82175 -0.314737,4.87754 4.40561,5.19228 2.20281,0.314737 4.56281,0 8.02421,-1.88807 3.4614,-1.2586 7.23754,-2.36 8.65368,-5.50667 0.157193,4.56281 2.04526,7.86667 3.4614,12.4295 0.944211,3.14702 0.314737,5.97895 -0.47193,8.65368 -1.56281,2.21404 -1.59298,4.13439 -0.472281,5.66421 -1.73053,1.57333 -1.57333,3.77614 -1.10105,6.29368 0.47193,2.51719 -1.57368,5.19193 -1.57368,7.70947 -0.314386,7.39474 1.73088,14.6326 1.88807,22.0274 -0.314386,6.29368 0.0701754,7.29333 2.20281,10.227 0.157544,4.09088 0.629474,5.8214 2.67474,10.3842 -2.36,5.34947 0,17.7793 3.93368,32.2544 0.561754,2.52877 0.262105,4.64912 -0.314737,6.60842"/>
 </g>
</svg>
