<?xml version="1.0" encoding="UTF-8" standalone="no"?>
<!-- Created with Inkscape (http://www.inkscape.org/) -->

<svg
   xmlns:dc="http://purl.org/dc/elements/1.1/"
   xmlns:cc="http://creativecommons.org/ns#"
   xmlns:rdf="http://www.w3.org/1999/02/22-rdf-syntax-ns#"
   xmlns:svg="http://www.w3.org/2000/svg"
   xmlns="http://www.w3.org/2000/svg"
   xmlns:sodipodi="http://sodipodi.sourceforge.net/DTD/sodipodi-0.dtd"
   xmlns:inkscape="http://www.inkscape.org/namespaces/inkscape"
   width="646.41998"
   height="600"
   id="svg2854"
   version="1.1"
   inkscape:version="0.47 r22583"
   sodipodi:docname="HD179949.svg">
  <defs
     id="defs2856">
    <inkscape:perspective
       sodipodi:type="inkscape:persp3d"
       inkscape:vp_x="0 : 526.18109 : 1"
       inkscape:vp_y="0 : 1000 : 0"
       inkscape:vp_z="744.09448 : 526.18109 : 1"
       inkscape:persp3d-origin="372.04724 : 350.78739 : 1"
       id="perspective2862" />
    <inkscape:perspective
       id="perspective2872"
       inkscape:persp3d-origin="0.5 : 0.33333333 : 1"
       inkscape:vp_z="1 : 0.5 : 1"
       inkscape:vp_y="0 : 1000 : 0"
       inkscape:vp_x="0 : 0.5 : 1"
       sodipodi:type="inkscape:persp3d" />
    <inkscape:perspective
       id="perspective3698"
       inkscape:persp3d-origin="0.5 : 0.33333333 : 1"
       inkscape:vp_z="1 : 0.5 : 1"
       inkscape:vp_y="0 : 1000 : 0"
       inkscape:vp_x="0 : 0.5 : 1"
       sodipodi:type="inkscape:persp3d" />
    <inkscape:perspective
       id="perspective3723"
       inkscape:persp3d-origin="0.5 : 0.33333333 : 1"
       inkscape:vp_z="1 : 0.5 : 1"
       inkscape:vp_y="0 : 1000 : 0"
       inkscape:vp_x="0 : 0.5 : 1"
       sodipodi:type="inkscape:persp3d" />
    <inkscape:perspective
       id="perspective3723-2"
       inkscape:persp3d-origin="0.5 : 0.33333333 : 1"
       inkscape:vp_z="1 : 0.5 : 1"
       inkscape:vp_y="0 : 1000 : 0"
       inkscape:vp_x="0 : 0.5 : 1"
       sodipodi:type="inkscape:persp3d" />
    <inkscape:perspective
       id="perspective3761"
       inkscape:persp3d-origin="0.5 : 0.33333333 : 1"
       inkscape:vp_z="1 : 0.5 : 1"
       inkscape:vp_y="0 : 1000 : 0"
       inkscape:vp_x="0 : 0.5 : 1"
       sodipodi:type="inkscape:persp3d" />
    <inkscape:perspective
       id="perspective3783"
       inkscape:persp3d-origin="0.5 : 0.33333333 : 1"
       inkscape:vp_z="1 : 0.5 : 1"
       inkscape:vp_y="0 : 1000 : 0"
       inkscape:vp_x="0 : 0.5 : 1"
       sodipodi:type="inkscape:persp3d" />
    <inkscape:perspective
       id="perspective3783-5"
       inkscape:persp3d-origin="0.5 : 0.33333333 : 1"
       inkscape:vp_z="1 : 0.5 : 1"
       inkscape:vp_y="0 : 1000 : 0"
       inkscape:vp_x="0 : 0.5 : 1"
       sodipodi:type="inkscape:persp3d" />
    <inkscape:perspective
       id="perspective3783-9"
       inkscape:persp3d-origin="0.5 : 0.33333333 : 1"
       inkscape:vp_z="1 : 0.5 : 1"
       inkscape:vp_y="0 : 1000 : 0"
       inkscape:vp_x="0 : 0.5 : 1"
       sodipodi:type="inkscape:persp3d" />
    <inkscape:perspective
       id="perspective3783-4"
       inkscape:persp3d-origin="0.5 : 0.33333333 : 1"
       inkscape:vp_z="1 : 0.5 : 1"
       inkscape:vp_y="0 : 1000 : 0"
       inkscape:vp_x="0 : 0.5 : 1"
       sodipodi:type="inkscape:persp3d" />
    <inkscape:perspective
       id="perspective3832"
       inkscape:persp3d-origin="0.5 : 0.33333333 : 1"
       inkscape:vp_z="1 : 0.5 : 1"
       inkscape:vp_y="0 : 1000 : 0"
       inkscape:vp_x="0 : 0.5 : 1"
       sodipodi:type="inkscape:persp3d" />
    <inkscape:perspective
       id="perspective3832-7"
       inkscape:persp3d-origin="0.5 : 0.33333333 : 1"
       inkscape:vp_z="1 : 0.5 : 1"
       inkscape:vp_y="0 : 1000 : 0"
       inkscape:vp_x="0 : 0.5 : 1"
       sodipodi:type="inkscape:persp3d" />
    <inkscape:perspective
       id="perspective3832-2"
       inkscape:persp3d-origin="0.5 : 0.33333333 : 1"
       inkscape:vp_z="1 : 0.5 : 1"
       inkscape:vp_y="0 : 1000 : 0"
       inkscape:vp_x="0 : 0.5 : 1"
       sodipodi:type="inkscape:persp3d" />
    <inkscape:perspective
       id="perspective3872"
       inkscape:persp3d-origin="0.5 : 0.33333333 : 1"
       inkscape:vp_z="1 : 0.5 : 1"
       inkscape:vp_y="0 : 1000 : 0"
       inkscape:vp_x="0 : 0.5 : 1"
       sodipodi:type="inkscape:persp3d" />
    <inkscape:perspective
       id="perspective3897"
       inkscape:persp3d-origin="0.5 : 0.33333333 : 1"
       inkscape:vp_z="1 : 0.5 : 1"
       inkscape:vp_y="0 : 1000 : 0"
       inkscape:vp_x="0 : 0.5 : 1"
       sodipodi:type="inkscape:persp3d" />
    <inkscape:perspective
       id="perspective4475"
       inkscape:persp3d-origin="0.5 : 0.33333333 : 1"
       inkscape:vp_z="1 : 0.5 : 1"
       inkscape:vp_y="0 : 1000 : 0"
       inkscape:vp_x="0 : 0.5 : 1"
       sodipodi:type="inkscape:persp3d" />
  </defs>
  <sodipodi:namedview
     id="base"
     pagecolor="#ffffff"
     bordercolor="#666666"
     borderopacity="1.0"
     inkscape:pageopacity="0.0"
     inkscape:pageshadow="2"
     inkscape:zoom="1"
     inkscape:cx="362.15638"
     inkscape:cy="299.29478"
     inkscape:document-units="px"
     inkscape:current-layer="layer1"
     showgrid="false"
     inkscape:snap-bbox="false"
     inkscape:snap-global="true"
     inkscape:object-paths="false"
     inkscape:snap-nodes="true"
     inkscape:snap-smooth-nodes="true"
     inkscape:window-width="1680"
     inkscape:window-height="1000"
     inkscape:window-x="-8"
     inkscape:window-y="-8"
     inkscape:window-maximized="1" />
  <metadata
     id="metadata2859">
    <rdf:RDF>
      <cc:Work
         rdf:about="">
        <dc:format>image/svg+xml</dc:format>
        <dc:type
           rdf:resource="http://purl.org/dc/dcmitype/StillImage" />
        <dc:title></dc:title>
      </cc:Work>
    </rdf:RDF>
  </metadata>
  <g
     inkscape:groupmode="layer"
     id="layer4"
     inkscape:label="Layer 2"
     style="display:inline"
     transform="translate(0,-452.36218)">
    <rect
       style="fill:#000000;fill-opacity:1;stroke:none"
       id="rect4609"
       width="678"
       height="636"
       x="-16"
       y="-10"
       transform="translate(0,452.36218)" />
  </g>
  <g
     inkscape:label="Layer 1"
     inkscape:groupmode="layer"
     id="layer1"
     style="display:inline"
     transform="translate(0,-452.36218)">
    <g
       id="g4572"
       transform="translate(-6,-4)">
      <path
         transform="matrix(0.98336322,0,0,0.98336322,39.94128,230.7656)"
         d="m 528.30978,549.30621 c 0,150.07292 -121.65813,271.73105 -271.73104,271.73105 -150.07292,0 -271.731053,-121.65813 -271.731053,-271.73105 0,-150.07291 121.658133,-271.73105 271.731053,-271.73105 150.07291,0 271.73104,121.65814 271.73104,271.73105 z"
         sodipodi:ry="271.73105"
         sodipodi:rx="271.73105"
         sodipodi:cy="549.30621"
         sodipodi:cx="256.57874"
         id="path2878"
         style="fill:none;stroke:#ffff00;stroke-width:3.05075479;stroke-miterlimit:4;stroke-opacity:1;stroke-dasharray:none"
         sodipodi:type="arc" />
      <path
         transform="translate(-55,209)"
         d="m 520.22856,562.9433 c 0,96.79423 -78.46723,175.26146 -175.26146,175.26146 -96.79423,0 -175.26146,-78.46723 -175.26146,-175.26146 0,-96.79423 78.46723,-175.26146 175.26146,-175.26146 96.79423,0 175.26146,78.46723 175.26146,175.26146 z"
         sodipodi:ry="175.26146"
         sodipodi:rx="175.26146"
         sodipodi:cy="562.9433"
         sodipodi:cx="344.9671"
         id="path3652"
         style="fill:none;stroke:#ffff00;stroke-width:3;stroke-miterlimit:4;stroke-opacity:1;stroke-dasharray:none"
         sodipodi:type="arc" />
      <path
         transform="translate(-77,221)"
         d="m 490.93414,551.8316 c 0,67.22597 -54.49742,121.72339 -121.72339,121.72339 -67.22596,0 -121.72338,-54.49742 -121.72338,-121.72339 0,-67.22596 54.49742,-121.72338 121.72338,-121.72338 67.22597,0 121.72339,54.49742 121.72339,121.72338 z"
         sodipodi:ry="121.72338"
         sodipodi:rx="121.72338"
         sodipodi:cy="551.8316"
         sodipodi:cx="369.21075"
         id="path3654"
         style="fill:none;stroke:#ffff00;stroke-width:3;stroke-miterlimit:4;stroke-opacity:1;stroke-dasharray:none"
         sodipodi:type="arc" />
      <path
         transform="translate(-61,225)"
         d="m 424.26408,546.27576 c 0,39.05243 -31.65825,70.71067 -70.71067,70.71067 -39.05243,0 -70.71068,-31.65824 -70.71068,-70.71067 0,-39.05243 31.65825,-70.71068 70.71068,-70.71068 39.05242,0 70.71067,31.65825 70.71067,70.71068 z"
         sodipodi:ry="70.710678"
         sodipodi:rx="70.710678"
         sodipodi:cy="546.27576"
         sodipodi:cx="353.55341"
         id="path3656"
         style="fill:none;stroke:#ffff00;stroke-width:3;stroke-miterlimit:4;stroke-opacity:1;stroke-dasharray:none"
         sodipodi:type="arc" />
      <path
         transform="translate(-85,191)"
         d="m 570.73619,580.62097 c 0,107.11524 -86.83406,193.9493 -193.94929,193.9493 -107.11524,0 -193.9493,-86.83406 -193.9493,-193.9493 0,-107.11524 86.83406,-193.94929 193.9493,-193.94929 107.11523,0 193.94929,86.83405 193.94929,193.94929 z"
         sodipodi:ry="193.9493"
         sodipodi:rx="193.9493"
         sodipodi:cy="580.62097"
         sodipodi:cx="376.7869"
         id="path3658"
         style="fill:none;stroke:#ff0000;stroke-width:3;stroke-miterlimit:4;stroke-opacity:1;stroke-dasharray:none"
         sodipodi:type="arc" />
      <path
         transform="matrix(1.277243,-1.1406169,0.93504108,0.96179975,-267.75463,540.72781)"
         d="m 362.35553,403.33917 c 0,72.57 -73.36287,131.3996 -163.86055,131.3996 -90.49768,0 -163.86055,-58.8296 -163.86055,-131.3996 0,-72.56999 73.36287,-131.39959 163.86055,-131.39959 90.49768,0 163.86055,58.8296 163.86055,131.39959 z"
         sodipodi:ry="131.3996"
         sodipodi:rx="163.86055"
         sodipodi:cy="403.33917"
         sodipodi:cx="198.49498"
         id="path3666"
         style="fill:none;stroke:#ff0000;stroke-width:1.98783255;stroke-miterlimit:4;stroke-opacity:1;stroke-dasharray:none"
         sodipodi:type="arc" />
      <path
         transform="matrix(0.72701749,0.55818806,-0.51742593,0.78429097,305.51143,121.45542)"
         d="m 497.18996,559.91284 c 0,25.38408 -39.88621,45.96194 -89.08834,45.96194 -49.20212,0 -89.08833,-20.57786 -89.08833,-45.96194 0,-25.38408 39.88621,-45.96194 89.08833,-45.96194 49.20213,0 89.08834,20.57786 89.08834,45.96194 z"
         sodipodi:ry="45.961941"
         sodipodi:rx="89.088333"
         sodipodi:cy="559.91284"
         sodipodi:cx="408.10162"
         id="path3668"
         style="fill:none;stroke:#ff0000;stroke-width:3.23683882;stroke-miterlimit:4;stroke-opacity:1;stroke-dasharray:none"
         sodipodi:type="arc" />
      <path
         transform="translate(-73,217)"
         d="m 374.76658,554.86206 c 0,5.29997 -4.29647,9.59645 -9.59644,9.59645 -5.29998,0 -9.59645,-4.29648 -9.59645,-9.59645 0,-5.29997 4.29647,-9.59645 9.59645,-9.59645 5.29997,0 9.59644,4.29648 9.59644,9.59645 z"
         sodipodi:ry="9.5964489"
         sodipodi:rx="9.5964489"
         sodipodi:cy="554.86206"
         sodipodi:cx="365.17014"
         id="path3670"
         style="fill:none;stroke:#ff0000;stroke-width:3;stroke-miterlimit:4;stroke-opacity:1;stroke-dasharray:none"
         sodipodi:type="arc" />
      <text
         id="text3672"
         y="217"
         x="-73"
         style="font-size:40px;font-style:normal;font-weight:normal;fill:#000000;fill-opacity:1;stroke:none;font-family:Bitstream Vera Sans"
         xml:space="preserve"><tspan
           y="217"
           x="-73"
           id="tspan3674"
           sodipodi:role="line" /></text>
      <text
         id="text3676"
         y="619.77319"
         x="450.29962"
         style="font-size:18px;font-style:normal;font-weight:normal;fill:#ffff00;fill-opacity:1;stroke:none;font-family:Bitstream Vera Sans"
         xml:space="preserve"><tspan
           style="font-size:18px;font-family:Sans;-inkscape-font-specification:Sans"
           y="619.77319"
           x="450.29962"
           id="tspan3678"
           sodipodi:role="line">Mars</tspan></text>
      <text
         id="text3682"
         y="689.43311"
         x="271.50262"
         style="font-size:40px;font-style:normal;font-weight:normal;fill:#000000;fill-opacity:1;stroke:none;font-family:Bitstream Vera Sans"
         xml:space="preserve"><tspan
           style="font-size:18px;font-style:normal;font-variant:normal;font-weight:normal;font-stretch:normal;fill:#ffff00;font-family:Berlin Sans FB;-inkscape-font-specification:Berlin Sans FB"
           y="689.43311"
           x="271.50262"
           id="tspan3684"
           sodipodi:role="line">Mercury</tspan></text>
      <text
         id="text3686"
         y="720.84937"
         x="171.13203"
         style="font-size:40px;font-style:normal;font-weight:normal;fill:#000000;fill-opacity:1;stroke:none;font-family:Bitstream Vera Sans"
         xml:space="preserve"><tspan
           style="font-size:18px;fill:#ff0000;font-family:Sans;-inkscape-font-specification:Sans"
           y="720.84937"
           x="171.13203"
           id="tspan3688"
           sodipodi:role="line">HD164427</tspan></text>
      <text
         id="text3686-6"
         y="805.07349"
         x="271.11615"
         style="font-size:40px;font-style:normal;font-weight:normal;fill:#000000;fill-opacity:1;stroke:none;font-family:Sans;-inkscape-font-specification:Sans"
         xml:space="preserve"><tspan
           style="font-size:18px;fill:#ff0000;font-family:Sans;-inkscape-font-specification:Sans"
           y="805.07349"
           x="271.11615"
           id="tspan3688-1"
           sodipodi:role="line">HD179949</tspan></text>
      <text
         id="text3682-2"
         y="910.25555"
         x="311.60284"
         style="font-size:40px;font-style:normal;font-weight:normal;fill:#000000;fill-opacity:1;stroke:none;font-family:Bitstream Vera Sans"
         xml:space="preserve"><tspan
           style="font-size:18px;fill:#ffff00;font-family:Sans;-inkscape-font-specification:Sans"
           y="910.25555"
           x="311.60284"
           id="tspan3684-4"
           sodipodi:role="line">Venus</tspan></text>
      <text
         id="text3682-5"
         y="924.39777"
         x="221.69928"
         style="font-size:40px;font-style:normal;font-weight:normal;fill:#000000;fill-opacity:1;stroke:none;font-family:Bitstream Vera Sans"
         xml:space="preserve"><tspan
           style="font-size:18px;fill:#ffff00;font-family:Sans;-inkscape-font-specification:Sans"
           y="924.39777"
           x="221.69928"
           id="tspan3684-8"
           sodipodi:role="line">Earth</tspan></text>
      <path
         transform="matrix(0.83730752,0,0,0.83730752,-12.934662,308.00896)"
         d="m 367.69553,554.73578 c 0,1.74341 -1.46984,3.15673 -3.28299,3.15673 -1.81315,0 -3.283,-1.41332 -3.283,-3.15673 0,-1.74341 1.46985,-3.15673 3.283,-3.15673 1.81315,0 3.28299,1.41332 3.28299,3.15673 z"
         sodipodi:ry="3.1567266"
         sodipodi:rx="3.2829957"
         sodipodi:cy="554.73578"
         sodipodi:cx="364.41254"
         id="path3751"
         style="fill:#ffff00;fill-opacity:1;stroke:#ffff00;stroke-width:3;stroke-miterlimit:4;stroke-opacity:1;stroke-dasharray:none"
         sodipodi:type="arc" />
      <path
         transform="matrix(0.83730752,0,0,0.83730752,-13.460288,317.73168)"
         d="m 367.69553,554.73578 c 0,1.74341 -1.46984,3.15673 -3.28299,3.15673 -1.81315,0 -3.283,-1.41332 -3.283,-3.15673 0,-1.74341 1.46985,-3.15673 3.283,-3.15673 1.81315,0 3.28299,1.41332 3.28299,3.15673 z"
         sodipodi:ry="3.1567266"
         sodipodi:rx="3.2829957"
         sodipodi:cy="554.73578"
         sodipodi:cx="364.41254"
         id="path3751-2"
         style="fill:#ff6600;fill-opacity:1;stroke:#ff6600;stroke-width:2.38860869;stroke-miterlimit:4;stroke-opacity:1;stroke-dasharray:none"
         sodipodi:type="arc" />
      <path
         transform="matrix(0.83730752,0,0,0.83730752,-41.239483,263.43598)"
         d="m 367.69553,554.73578 c 0,1.74341 -1.46984,3.15673 -3.28299,3.15673 -1.81315,0 -3.283,-1.41332 -3.283,-3.15673 0,-1.74341 1.46985,-3.15673 3.283,-3.15673 1.81315,0 3.28299,1.41332 3.28299,3.15673 z"
         sodipodi:ry="3.1567266"
         sodipodi:rx="3.2829957"
         sodipodi:cy="554.73578"
         sodipodi:cx="364.41254"
         id="path3751-2-6"
         style="fill:#ff6600;fill-opacity:1;stroke:#ff6600;stroke-width:2.38860869;stroke-miterlimit:4;stroke-opacity:1;stroke-dasharray:none"
         sodipodi:type="arc" />
      <path
         transform="matrix(0.83730752,0,0,0.83730752,-107.90955,474.55786)"
         d="m 367.69553,554.73578 c 0,1.74341 -1.46984,3.15673 -3.28299,3.15673 -1.81315,0 -3.283,-1.41332 -3.283,-3.15673 0,-1.74341 1.46985,-3.15673 3.283,-3.15673 1.81315,0 3.28299,1.41332 3.28299,3.15673 z"
         sodipodi:ry="3.1567266"
         sodipodi:rx="3.2829957"
         sodipodi:cy="554.73578"
         sodipodi:cx="364.41254"
         id="path3751-2-3"
         style="fill:#ff6600;fill-opacity:1;stroke:#ff6600;stroke-width:2.38860869;stroke-miterlimit:4;stroke-opacity:1;stroke-dasharray:none"
         sodipodi:type="arc" />
      <path
         transform="matrix(0.83730752,0,0,0.83730752,258.01821,41.96003)"
         d="m 367.69553,554.73578 c 0,1.74341 -1.46984,3.15673 -3.28299,3.15673 -1.81315,0 -3.283,-1.41332 -3.283,-3.15673 0,-1.74341 1.46985,-3.15673 3.283,-3.15673 1.81315,0 3.28299,1.41332 3.28299,3.15673 z"
         sodipodi:ry="3.1567266"
         sodipodi:rx="3.2829957"
         sodipodi:cy="554.73578"
         sodipodi:cx="364.41254"
         id="path3751-2-2"
         style="fill:#ff6600;fill-opacity:1;stroke:#ff6600;stroke-width:2.38860869;stroke-miterlimit:4;stroke-opacity:1;stroke-dasharray:none"
         sodipodi:type="arc" />
      <path
         transform="matrix(0.83730752,0,0,0.83730752,198.92429,144.74306)"
         d="m 367.69553,554.73578 c 0,1.74341 -1.46984,3.15673 -3.28299,3.15673 -1.81315,0 -3.283,-1.41332 -3.283,-3.15673 0,-1.74341 1.46985,-3.15673 3.283,-3.15673 1.81315,0 3.28299,1.41332 3.28299,3.15673 z"
         sodipodi:ry="3.1567266"
         sodipodi:rx="3.2829957"
         sodipodi:cy="554.73578"
         sodipodi:cx="364.41254"
         id="path3751-2-61"
         style="fill:#00cbc7;fill-opacity:1;stroke:#00cbc7;stroke-width:2.38860869;stroke-miterlimit:4;stroke-opacity:1;stroke-dasharray:none"
         sodipodi:type="arc" />
      <path
         transform="matrix(0.83730752,0,0,0.83730752,-9.419678,236.16186)"
         d="m 367.69553,554.73578 c 0,1.74341 -1.46984,3.15673 -3.28299,3.15673 -1.81315,0 -3.283,-1.41332 -3.283,-3.15673 0,-1.74341 1.46985,-3.15673 3.283,-3.15673 1.81315,0 3.28299,1.41332 3.28299,3.15673 z"
         sodipodi:ry="3.1567266"
         sodipodi:rx="3.2829957"
         sodipodi:cy="554.73578"
         sodipodi:cx="364.41254"
         id="path3751-2-61-9"
         style="fill:#00cbc7;fill-opacity:1;stroke:#00cbc7;stroke-width:2.38860869;stroke-miterlimit:4;stroke-opacity:1;stroke-dasharray:none"
         sodipodi:type="arc" />
      <path
         transform="matrix(0.83730752,0,0,0.83730752,-3.611301,429.85861)"
         d="m 367.69553,554.73578 c 0,1.74341 -1.46984,3.15673 -3.28299,3.15673 -1.81315,0 -3.283,-1.41332 -3.283,-3.15673 0,-1.74341 1.46985,-3.15673 3.283,-3.15673 1.81315,0 3.28299,1.41332 3.28299,3.15673 z"
         sodipodi:ry="3.1567266"
         sodipodi:rx="3.2829957"
         sodipodi:cy="554.73578"
         sodipodi:cx="364.41254"
         id="path3751-2-61-6"
         style="fill:#00cbc7;fill-opacity:1;stroke:#00cbc7;stroke-width:2.38860869;stroke-miterlimit:4;stroke-opacity:1;stroke-dasharray:none"
         sodipodi:type="arc" />
      <path
         transform="matrix(0.83730752,0,0,0.83730752,-94.019954,463.19364)"
         d="m 367.69553,554.73578 c 0,1.74341 -1.46984,3.15673 -3.28299,3.15673 -1.81315,0 -3.283,-1.41332 -3.283,-3.15673 0,-1.74341 1.46985,-3.15673 3.283,-3.15673 1.81315,0 3.28299,1.41332 3.28299,3.15673 z"
         sodipodi:ry="3.1567266"
         sodipodi:rx="3.2829957"
         sodipodi:cy="554.73578"
         sodipodi:cx="364.41254"
         id="path3751-2-61-95"
         style="fill:#00cbc7;fill-opacity:1;stroke:#00cbc7;stroke-width:2.38860869;stroke-miterlimit:4;stroke-opacity:1;stroke-dasharray:none"
         sodipodi:type="arc" />
      <text
         id="text3682-5-2"
         y="954.72308"
         x="132.45609"
         style="font-size:40px;font-style:normal;font-weight:normal;fill:#ff0000;fill-opacity:1;stroke:none;font-family:Bitstream Vera Sans"
         xml:space="preserve"><tspan
           style="font-size:18px;fill:#ff0000;font-family:Sans;-inkscape-font-specification:Sans"
           y="954.72308"
           x="132.45609"
           id="tspan3684-8-0"
           sodipodi:role="line">ε Ret</tspan></text>
      <text
         id="text3676-0"
         y="492.82648"
         x="585.56848"
         style="font-size:18px;font-style:normal;font-weight:normal;fill:#ff0000;fill-opacity:1;stroke:none;font-family:Sans;-inkscape-font-specification:Sans"
         xml:space="preserve"><tspan
           style="font-size:18px;fill:#ff0000;font-family:Sans;-inkscape-font-specification:Sans"
           y="492.82648"
           x="585.56848"
           id="tspan3678-3"
           sodipodi:role="line">μ Ara</tspan></text>
    </g>
  </g>
</svg>
