<?xml version="1.0" encoding="utf-8"?>
<!-- Generator: Adobe Illustrator 28.0.0, SVG Export Plug-In . SVG Version: 6.00 Build 0)  -->
<svg version="1.1" id="Ebene_1" xmlns="http://www.w3.org/2000/svg" xmlns:xlink="http://www.w3.org/1999/xlink" x="0px" y="0px"
	 viewBox="0 0 1529 1000" style="enable-background:new 0 0 1529 1000;" xml:space="preserve">
<path d="M1514,145c3.3,5.3,4.7,11.8,4,19.5s-4.7,14.2-12,19.5c-8.7,6.7-18.2,12.2-28.5,16.5c-10.3,4.3-21,8.8-32,13.5
	c-11,4.7-22.2,9.8-33.5,15.5c-11.3,5.7-22.7,12.8-34,21.5c-8,13.3-14.2,29.8-18.5,49.5c-4.3,19.7-7.7,41.3-10,65
	c-2.3,23.7-3.8,48.2-4.5,73.5s-0.7,50.3,0,75c1.3,40,2,79.5,2,118.5s0.7,78.5,2,118.5c0,8,0.5,16.7,1.5,26s1.8,19,2.5,29
	s0.8,19.7,0.5,29s-1.8,17.3-4.5,24c-4,10-8.2,15-12.5,15s-8-2.2-11-6.5s-5.5-9.8-7.5-16.5s-3-12-3-16c-2-24-2.5-47.8-1.5-71.5
	s1.5-47.2,1.5-70.5c0-46-0.2-92.3-0.5-139s-1.8-93-4.5-139c-1.3-26-3.2-51.8-5.5-77.5c-2.3-25.7-5.2-51.2-8.5-76.5
	c-1.3-10-4.3-18.8-9-26.5c-4.7-7.7-10.3-14.8-17-21.5c-10.7,4.7-21.3,9.7-32,15c-10.7,5.3-21.3,12.7-32,22
	c-8,13.3-14.3,29.8-19,49.5c-4.7,19.7-8.2,41.3-10.5,65c-2.3,23.7-3.8,48.2-4.5,73.5s-0.7,50.3,0,75c1.3,39.3,2,78.7,2,118
	c0,39.3,0.3,78.7,1,118c0,8,0.7,16.7,2,26s2.3,19,3,29s0.8,19.7,0.5,29s-2.2,17.3-5.5,24c-4,10-7.8,15-11.5,15s-7-2.2-10-6.5
	s-5.7-9.8-8-16.5s-3.5-12-3.5-16c-1.3-23.3-1.5-46.8-0.5-70.5s1.5-47.2,1.5-70.5v-14c-7.3,3.3-15.7,5.8-25,7.5s-17.3,2.8-24,3.5
	c-35.3,1.3-70.8,1-106.5-1s-71.2-3.3-106.5-4c-70.7-1.3-140.7-2.3-210-3s-139.3,0.3-210,3c-79.3,1.3-157.3,5.3-234,12
	c-19.3,2-37,7.3-53,16s-29,18.3-39,29c-7.3,8-14.7,16.2-22,24.5s-14.8,16-22.5,23s-15.7,12.8-24,17.5s-16.8,7.3-25.5,8
	c-12,1.3-20.7-1.7-26-9s-6-13.7-2-19c6-8.7,13.2-16.8,21.5-24.5s16.7-15.5,25-23.5s15.7-16.3,22-25S92,695,94,685c6-30,8-60.3,6-91
	c-2-30.7-6.7-58.7-14-84c-2-6-4.8-11.7-8.5-17S70,482.3,66,477s-7.5-10.7-10.5-16S51,450,51,444c0-1.3,1.5-3.2,4.5-5.5
	s5.8-4.2,8.5-5.5c8-3.3,17.7-4.5,29-3.5s20.7,5.8,28,14.5c10,10.7,18,22.2,24,34.5s12,25,18,38s13,26.3,21,40
	c8,13.7,18.7,27.2,32,40.5c20,10,45,18,75,24s62.5,10.7,97.5,14c35,3.3,71.7,5.7,110,7s76.2,2,113.5,2c60,0,119.8,0.3,179.5,1
	s119.5,1.3,179.5,2c11.3,0,24.2-0.5,38.5-1.5s28.8-1.8,43.5-2.5s29-0.7,43,0s26.3,3,37,7c2,0.7,3.8,1,5.5,1s3.2,0.7,4.5,2
	c0-40-0.3-80-1-120s-2.3-80-5-120c-1.3-25.3-3.2-51-5.5-77s-5.2-51.7-8.5-77c-2-13.3-6.8-25-14.5-35s-15.8-18.3-24.5-25
	c-6.7-4.7-13.5-9.3-20.5-14s-13.5-9.5-19.5-14.5s-11.2-10.2-15.5-15.5s-6.8-11-7.5-17c-1.3-8,1-13.8,7-17.5s11.7-4.2,17-1.5
	c7.3,3.3,14.3,7.8,21,13.5c6.7,5.7,13.3,11.2,20,16.5s13.7,10.2,21,14.5s15,6.8,23,7.5c17.3,2,34.8,2.5,52.5,1.5
	c17.7-1,35.2-0.5,52.5,1.5c20.7,2,41.2,2.5,61.5,1.5s40.5-0.2,60.5,2.5c15.3,3.3,31,2.5,47-2.5s31.7-9.8,47-14.5
	c9.3-2,18.3-6.2,27-12.5s18-9.8,28-10.5c0.7,0,2,0.8,4,2.5S1513.3,143.7,1514,145z M247,642l-84-34l-14,63L247,642z M1196,213l-53-7
	l25,65L1196,213z M1368,215l-51-7l25,64L1368,215z M703,584c-8,1.3-14-0.5-18-5.5s-4.3-9.5-1-13.5c4-6.7,8.8-12.7,14.5-18
	c5.7-5.3,11.5-10.8,17.5-16.5c6-5.7,11.2-11.5,15.5-17.5s7.2-12.7,8.5-20c4-21.3,5.3-42.8,4-64.5s-4.7-41.2-10-58.5
	c-2-8.7-6.5-16.7-13.5-24c-7-7.3-10.5-14.7-10.5-22c0-1.3,1.2-2.8,3.5-4.5c2.3-1.7,4.2-2.5,5.5-2.5c5.3-3.3,12-4.3,20-3
	c8,1.3,14.7,4.7,20,10c6.7,7.3,12.2,15.3,16.5,24c4.3,8.7,8.5,17.7,12.5,27s8.8,18.8,14.5,28.5s13.2,19.2,22.5,28.5
	c6,6,15.5,10.7,28.5,14s27,6,42,8s29.7,3.5,44,4.5c14.3,1,25.8,1.8,34.5,2.5c15.3,0.7,31.3,1,48,1s32.7,0.7,48,2
	c8.7,0.7,15.5,4.2,20.5,10.5s1.5,12.2-10.5,17.5c-4,1.3-9.8,2-17.5,2H1039c0,0-8-0.2-24-0.5s-22.7-0.5-20-0.5
	c-28,1.3-55.2,2.5-81.5,3.5c-26.3,1-53.5,2.8-81.5,5.5c-13.3,1.3-25.5,5-36.5,11s-19.8,13-26.5,21c-9.3,10.7-19.7,21.5-31,32.5
	S715,583.3,703,584z M776,493l63-24l-56-37L776,493z"/>
</svg>
