<svg xmlns="http://www.w3.org/2000/svg" width="444" height="401"><path d="M111.3 400.5L.6 200.4l.2-.3L111.3.5H333l110.7 200-110.7 200H111.3h0z"/><path d="M112.1 399.1h220.1l110-198.7-110-198.6H112.1L2.1 200.4l110 198.7h0 0 0 0 0 0 0 0 0 0 0 0 0 0 0 0 0 0 0 0 0 0 0 0 0z" fill="#fff"/><path d="M328.1 9h-212L91.7 52.8 67.3 96.7H377L328.1 9h0z" fill-rule="evenodd" fill="#b12"/><path d="M119.1 74.6L109 49.8v24.8h-5.2V35.8h5.5l9.4 24.5V35.8h5.2v38.8h-4.8zm19.1-14.4h5.7L141 42.8l-2.8 17.4zm8.1 14.4l-1.7-9.4h-7.1l-1.7 9.4h-5.9l7.8-38.8h6.7l7.8 38.8h-5.9 0 0 0 0 0 0 0 0 0 0 0 0 0zm24-31.2s-2.1-2.7-5.2-2.9c-3.4-.2-4 2.9-4 4.6 0 2.1.2 4.2 5.2 7.1 6.1 4 6.3 9.2 6.3 11.5s0 11.5-9.2 11.7c-5.7.2-8.6-2.9-8.6-2.9l1.7-5.5s3.6 3.8 6.5 3.6c2.3-.2 4.2-1.5 4.2-5.9-.2-5.5-3.1-6.5-5.5-8.4-2.7-1.9-6.5-4.6-5.9-11.1.4-6.5 4.4-9.4 7.8-9.4 4 0 5.9.8 8 2.5l-1.3 5.1h0 0 0 0 0 0 0 0 0 0 0 0 0 0 0 0 0 0 0 0 0 0 0 0zm8.6-7.4h5.5v38.8h-5.5V36zm23.5-.6c-8.4 0-11.3 9-11.3 19.9s2.9 19.9 11.3 19.9 11.5-9 11.5-19.9-3.2-19.9-11.5-19.9zm0 34.6c-4.4 0-5.5-6.5-5.5-14.7s1.3-14.7 5.5-14.7c4.6 0 5.7 6.5 5.7 14.7S206.8 70 202.4 70h0 0 0 0 0 0 0 0zm33.7 4.6L226 49.8v24.8h-5.2V35.8h5.5l9.4 24.5V35.8h5.2v38.8c.1 0-4.8 0-4.8 0h0 0 0 0 0 0 0 0 0 0 0 0 0 0 0 0 0 0 0 0 0 0 0zm18.7-14.4h5.9l-2.9-17.4-3 17.4h0 0 0 0 0 0 0 0 0zm8.4 14.4l-1.7-9.4h-7.3l-1.7 9.4h-5.9l7.8-38.8h6.7l7.8 38.8h-5.7 0 0 0 0 0 0 0 0 0 0 0 0 0 0 0 0 0 0 0 0 0 0 0 0zm11.1 0V35.8h5.5v33.6h8v5.2c0 0-13.5 0-13.5 0zm35.3 0v-30l-3.1 4.4-3.1-3.1 6.7-10.1h4.8v38.8h-5.3zm22.7-25.1c-3.5 0-4.7 2.9-4.7 2.9.4-11.4 3.3-12 4.9-12.1s4.2 1.6 4.2 1.6l1.4-4.8c-2.2-1.7-6.2-2.5-9.1-1.1-2.9 1.5-6.8 5.1-6.8 21s5.5 18.3 9.4 18.3 8.8-3.5 8.8-13.4-4.6-12.4-8.1-12.4h0 0 0 0 0 0 0 0zm-.8 20.8c-2.5 0-3.7-3.6-3.7-8s1.3-7.8 3.7-8c2.5-.2 3.7 3.6 3.7 8s-1.3 8-3.7 8z" fill="#fff"/><path d="M116.5 302.4l7.9-20c10.6 6.1 16.4 8.6 22.6 9.2 10.8 1.1 15.9-.6 20.6-4.2 6.9-5.2 11.1-20.8 7.2-37.3-4-17-20.8-15.5-20.8-15.5h-13.6v-20.4h4.4s11.2.4 18.2-3.9 12.1-14.6 9.4-28.2-9.8-16.5-20.6-17-24.9 9.6-24.9 9.6l-8.3-18.7c4-2.2 18-10.7 35.9-11.2 16.9-.4 32.3 5.9 38.5 22.2 6.9 17.8 2.2 33.2 1 36-1.1 2.8-4.5 13.2-18.6 19.3v.5s13.6 3 19 14.4 6.3 22.4 4.4 38.6-12.1 30.1-27.6 34.5c-15.3 4.4-36.1 2.4-54.7-7.9h0 0 0 0 0 0zm133.2-118.8l-11.7-19s17.6-18.7 42-17.9 35.3 12.6 38.9 31c3.7 18.4-2.3 35.7-11.5 51.4s-24.6 35.2-46.6 59.3h58.5v20.7l-78.6.1-3.3-23s34.6-40.1 47.2-62.6 13.2-34.6 8.6-47.6c-2-5.7-8-8.6-12.4-8.9-9.9-.8-15.6 2.3-21.7 7-2.5 1.8-5.1 4.7-9.4 9.5z"/></svg>