<?xml version="1.0" encoding="utf-8"?>
<!-- Generator: Adobe Illustrator 26.0.3, SVG Export Plug-In . SVG Version: 6.00 Build 0)  -->
<svg version="1.1" id="Layer_1" xmlns="http://www.w3.org/2000/svg" xmlns:xlink="http://www.w3.org/1999/xlink" x="0px" y="0px"
	 viewBox="0 0 1920 1080" style="enable-background:new 0 0 1920 1080;" xml:space="preserve">
<style type="text/css">
	.st0{fill:#FFF9EA;}
	.st1{opacity:0.1;}
	.st2{fill:#FFFFFF;stroke:#FF0000;stroke-width:10;stroke-miterlimit:10;}
	.st3{fill:#FFFFFF;}
	.st4{fill:#006837;}
	.st5{fill:#FF0000;}
	.st6{fill:#0071BC;}
	.st7{fill:#39B54A;}
	.st8{fill:#29ABE2;}
</style>
<rect class="st0" width="1920" height="1080"/>
<g class="st1">
	<g>
		<g>
			<g>
				<path d="M430,941.7l-32.7-6.7c55.5-61.1,99.6-109.9,115.6-160.4c1.8-5.7,3.4-11.6,5-17.2c8.9-31.8,17.9-64.2,64.4-96.4
					c10.4-7.2,48.3-31.5,100.6-42.6c29.6-6.3,58.5-7.4,83.7-3.1c25.1,4.2,44.3,13.3,55.5,26.3c18.1,21,9.6,46.4,2.9,59.8l-33.9,1.3
					c5.3-10.4,12.1-30.2-1.6-46.3c-17.5-20.6-61.7-28-107.8-18.1c-40,8.5-68.9,27.2-76.9,32.7c-35.9,25-43.1,52-51,81
					c-1.6,5.8-3.2,11.7-5,17.7C532.2,823.1,488,877.3,430,941.7z"/>
			</g>
		</g>
		<g>
			<g>
				<path d="M675.7,790.8c-4.3-1-8.7-1.9-13.1-2.7c-28.5-5.4-53.5-6.3-62.9-6.5c-13.3-0.2-42.4,0.1-67.2,2.9l8.7-22.5
					c27.5-3.1,59.3-3.5,73.8-3.2c10.5,0.2,38.2,1.2,69.5,7c4.9,0.9,9.7,1.9,14.4,3L675.7,790.8z"/>
			</g>
		</g>
	</g>
	<g>
		<g>
			<g>
				<path d="M991.1,956.9c-30.7,0-65.9-16.9-81.6-27.3c-28.6-19-21.6-37.2-20-50.6c3.3-26.8,19.5-49.1,24.8-56.4l0.2-0.3
					c27.3-37.6,67.6-105,121.4-203.1l33-0.1c-53.5,99-93.8,167.4-121.5,206l-0.2,0.3c-4.4,6.1-17.8,24.8-20.3,46.8
					c-1.3,11.5-3.8,33.2,17.4,47.1c19.5,12.8,59,19.2,96.3,6.3c32.1-11.1,51.1-32.4,67.7-51c11.5-12.9,26.6-33.3,34-57.4l0.1-0.2
					c13.8-45,47-110.6,99.9-198.6l32.4,1.4c-50.7,85.4-83.6,151.4-96.3,194.2l-0.1,0.2c-8.3,28-25.8,51.7-39,66.7
					c-18.4,20.9-43.8,49.8-91,66.1C1026.5,954.5,1010.7,956.9,991.1,956.9z"/>
			</g>
		</g>
		<g>
			<g>
				<path d="M1163.8,958.6c-17.4-4.9-35.9-18.6-41.3-28.5c-3-5.4-1.9-3.8-2.3-8.1c-0.4-4.2-0.7-7.8-3.1-12.5
					c-1.6-3.1-8.5-6.6-13.1-8.9c-2.8-1.4-5.2-2.6-7-3.9l31-19.4c0.6,0.4,2.7,1.4,4.2,2.2c6.7,3.3,16.9,8.4,20.9,15.9
					c3.6,6.9,4.2,12.7,4.7,17.3c0.4,3.7,0.7,6.4,2.3,9.4c3.1,5.6,10.4,10,21.5,13.1L1163.8,958.6z"/>
			</g>
		</g>
	</g>
	<g>
		<g>
			<g>
				<polygon points="1339.5,956.6 1303.1,956.6 1447.7,618.5 1481.6,618.4 				"/>
			</g>
		</g>
		<g>
			<g>
				<path d="M1504.3,959.2l15.3-24.9c50.5-71.8,86.9-140.5,108.8-204.4c14.7-42.7,18.2-70.2-5.9-86.5c-1.7-0.8-27.6-12.7-60.6-6.9
					c-18.9,3.3-31.7,8.1-62.5,28.8c-19.3,13-44.8,31.9-53.4,39.6l-27.1-9.1c11.1-9.9,39-30.2,58-42.9c34.3-22.9,54.7-31.9,84.2-37.1
					c47.8-8.4,84.1,7.2,89.3,10.6c35.7,23.7,26.1,63.4,12.9,102.8c-20.1,60-52.5,124.1-97,191.1c2.5-0.1,5-0.1,7.4,0
					c20,0.6,33.2,6.3,40.6,10.7c3.6,0.4,9.5,0.9,13.7,1.2c10.5,0.9,17.2,1.4,21.4,2.2l-18.1,24.4c-2.2-0.4-10.9-1.1-16.6-1.6
					c-10.6-0.9-17.3-1.5-21.5-2.3l-3.5-0.7l-2.4-1.7c-3.6-2.5-11.6-6.9-24.6-7.3c-9.2-0.3-17.5,1.5-22.9,3.1L1504.3,959.2z
					 M1622.2,643.2C1622.3,643.2,1622.3,643.2,1622.2,643.2C1622.3,643.2,1622.3,643.2,1622.2,643.2z"/>
			</g>
		</g>
	</g>
</g>
<g>
	<path class="st2" d="M520.5,37.7"/>
</g>
<g>
	<g>
		<g>
			<g>
				<path d="M1158.9,739.5c-1.1,0-2.3-0.6-2.9-1.6c-12.8-20-39.8-42.5-72.2-60.3c-1.7-0.9-2.3-3-1.4-4.7c0.9-1.7,3-2.3,4.7-1.4
					c33.4,18.3,61.3,41.7,74.7,62.6c1,1.6,0.6,3.8-1,4.8C1160.2,739.4,1159.5,739.5,1158.9,739.5z"/>
			</g>
			<g>
				<g>
					<path class="st3" d="M1173.7,733.3c3-1.5,5.7,2.2,9.6,1.6c6.2-1,7.2-5.7,13-7.4c5.3-1.5,13.4,0,13.9,3.5
						c2.1,14-16.1,10.5-15,17c0.5,2.9,4.3,4.7,6.3,5.6c5.7,2.6,8.4-0.1,15.7,1.9c2.9,0.8,7,1.9,9.2,5.7c1.5,2.6,2.2,6.8,0.3,8.9
						c-2,2.1-6.1,3.7-12.3,3c-3.1-0.3-6.7-3.5-11.9-3.2c-2,0.1-3,2.4-1.8,3.9c0.8,1,3.3,2.9,4.4,3.5c2.4,1.1,3.9,2.2,5.5,3.2
						c9.5,5.7,8.7,10.2,7.5,14.4c-0.7,2.5-3.6,4.5-4.1,4.8c-0.2,0.1-4.5,2.9-8.9,1.7c-7.4-1.9-12.9-9.1-18.5-14.9
						c-0.8-0.8-1-2.2-2.7-0.9c-1.1,0.8-0.9,2.1-1,5.2c-0.3,8.3,1.3,11.3-0.5,13.5c-1.6,1.9-4.3,4.3-6.2,4.3c-0.9,0-3.1-0.7-5.1-1.7
						c-4.1-2.1-5.8-8.9-6.2-10.4c-2.1-8.5-0.5-9.8-2.5-16c-0.7-2.2-1.5-1.9-3.8-4.3c-3.3-3.4-4.7-6.1-5.9-11
						c-0.9-3.8-4.2-15.2,0.8-18.2c2-1.2,3.2,0.4,7.9-0.8c1.3-0.3,4.6-1.2,7.5-3.7c0.4-0.3,1.2-1.4,2.9-3.6
						C1174.3,735.3,1173,733.6,1173.7,733.3z"/>
					<path d="M1176.3,810c0,0-0.1,0-0.1,0c-1.3,0-3.7-0.8-5.7-1.9c-4.1-2.1-6.1-8-7-11.3c-1.1-4.4-1.2-6.9-1.4-9.1
						c-0.1-2.2-0.2-3.9-1.2-6.8c-0.3-1-0.5-1.2-1.4-1.8c-0.5-0.4-1.2-1-2.1-1.9c-3.5-3.6-5.1-6.5-6.3-11.6c-0.1-0.3-0.2-0.6-0.2-1
						c-1.2-5-3.8-15.5,1.7-18.8c1.4-0.8,2.6-0.7,3.7-0.6c1.1,0.1,2.4,0.2,4.6-0.3c1-0.3,4.2-1,6.9-3.4c0.2-0.2,1-1.2,2-2.5l0.7-1
						c1.4-1.9,1.4-3,1.4-3.7c0-0.5,0-1.6,1-2.1c2.1-1.1,4.1-0.2,5.9,0.5c1.4,0.6,2.7,1.1,4.2,0.9c2.9-0.5,4.4-1.8,6.2-3.4
						c1.7-1.5,3.6-3.1,6.6-4c4.4-1.2,10.3-0.6,13.3,1.4c1.7,1.1,2.2,2.4,2.4,3.3c1.4,9.5-5.7,12.1-10.4,13.8
						c-3.6,1.3-4.8,1.9-4.6,3.1c0.4,2.2,3.8,3.8,5.4,4.5c2.7,1.2,4.6,1.1,7,1c2.3-0.1,4.9-0.2,8.5,0.8c3,0.8,7.6,2.1,10.1,6.3
						c1.8,3.2,2.5,8,0.1,10.6c-2.7,2.9-7.6,4.1-13.6,3.5c-1.4-0.2-2.8-0.7-4.3-1.4c-2.1-0.9-4.6-1.9-7.4-1.8c-0.6,0-0.8,0.4-0.9,0.6
						c-0.1,0.2-0.2,0.6,0.1,1c0.6,0.8,2.9,2.6,3.9,3.1c1.8,0.9,3.1,1.7,4.3,2.5c0.4,0.3,0.9,0.6,1.3,0.8c9.9,6,9.6,11,8.2,16
						c-0.8,2.9-3.8,5.1-4.7,5.6c-0.2,0.1-5,3.2-10.1,1.9c-6.4-1.6-11.4-6.9-16.1-12c-1-1.1-2-2.2-3.1-3.2c-0.3-0.3-0.5-0.5-0.6-0.8
						c0,0,0-0.1-0.1-0.1c0,0-0.1,0.1-0.1,0.1c-0.3,0.2-0.3,0.7-0.4,2.5c0,0.5,0,1,0,1.6c-0.1,3.4,0.1,5.8,0.2,7.7
						c0.2,2.9,0.4,4.9-1,6.6C1183.1,805.7,1179.5,810,1176.3,810z M1155.2,747.8c-0.4,0-0.7,0.1-1,0.3c-3.6,2.2-1.3,12-0.4,15.6
						c0.1,0.4,0.2,0.7,0.3,1c1.1,4.6,2.4,7.1,5.5,10.3c0.8,0.8,1.4,1.3,1.9,1.7c1,0.8,1.7,1.4,2.3,3.2c1.1,3.3,1.2,5.3,1.3,7.5
						c0.1,2.1,0.2,4.5,1.3,8.6c0.6,2.3,2.2,7.8,5.5,9.5c1.9,1,3.8,1.6,4.5,1.6c1,0,3.3-1.6,5.1-3.7c0.7-0.8,0.6-1.9,0.4-4.5
						c-0.2-1.9-0.4-4.5-0.2-8.1c0-0.6,0-1.1,0-1.6c0-2.1,0.1-3.7,1.6-4.8c0.9-0.6,1.6-0.9,2.4-0.7c1,0.2,1.5,0.9,1.9,1.4
						c0.1,0.1,0.2,0.3,0.3,0.4c1,1.1,2.1,2.2,3.1,3.3c4.5,4.8,9.1,9.8,14.7,11.2c3.9,1,7.7-1.5,7.8-1.5c1.3-0.9,3.1-2.5,3.5-4
						c1-3.6,2-7.4-6.9-12.8c-0.5-0.3-0.9-0.6-1.4-0.9c-1.2-0.7-2.4-1.5-4-2.3c-1.3-0.6-4-2.6-5-3.9c-0.9-1.1-1.1-2.7-0.5-4
						c0.6-1.3,1.9-2.2,3.3-2.3c3.5-0.2,6.4,1,8.7,2c1.3,0.6,2.5,1.1,3.4,1.2c7.3,0.8,10.4-1.8,11.1-2.6c1.3-1.4,0.8-4.9-0.5-7.2
						c-1.9-3.2-5.6-4.2-8.3-5c-3.2-0.9-5.5-0.8-7.6-0.7c-2.6,0.1-5,0.2-8.3-1.3c-2.3-1-6.4-3-7.1-6.7c-0.7-3.8,3.1-5.2,6.4-6.4
						c4.7-1.7,9.6-3.5,8.5-10.6c-0.1-0.6-0.6-1-1.1-1.3c-2.4-1.5-7.4-2-11-1c-2.4,0.7-3.9,2-5.5,3.4c-2,1.7-4,3.5-7.7,4.1
						c-2.3,0.4-4.2-0.5-5.8-1.1c-1.3-0.5-2.1-0.9-2.9-0.8c0,1-0.2,2.8-2,5.2l-0.7,0.9c-1.4,1.8-1.9,2.5-2.4,2.9
						c-3.2,2.8-6.9,3.8-8.1,4.1c-2.7,0.7-4.3,0.5-5.6,0.4C1155.7,747.9,1155.4,747.8,1155.2,747.8z"/>
				</g>
				<g>
					<path class="st3" d="M1165.4,742.8c2.9-1.7,5.7-6,6.7-8.7c1-2.9-1-4.9-3.2-7c-3.4-3.3-6.4-4.2-7.4-4.2c-2.3,0-2.6,3.7-6.1,6.4
						c-4.3,3.4-6.3,1.1-7.7,3.6c-1.7,3-0.4,9.5,3.9,11.7C1156.1,746.9,1161.1,745.2,1165.4,742.8z"/>
					<path d="M1156.2,747.1c-1.9,0-3.7-0.4-5.4-1.3c-2.2-1.1-3.9-3.3-4.8-6.1c-0.8-2.8-0.7-5.7,0.3-7.5c1-1.8,2.4-2,3.7-2.2
						c1.2-0.2,2.5-0.3,4.4-1.9c1.5-1.1,2.3-2.5,3.1-3.7c1-1.5,1.9-3.1,3.9-3.1c0,0,0,0,0,0c1.4,0,4.7,1,8.4,4.6c2,2,4.9,4.7,3.5,8.5
						c-1.1,3.2-4.1,7.6-7.3,9.5l0,0C1162.6,746.1,1159.2,747.1,1156.2,747.1z M1161.5,724.3C1161.5,724.3,1161.5,724.3,1161.5,724.3
						c-0.4,0-0.8,0.7-1.5,1.7c-0.8,1.2-1.9,3-3.8,4.4c-2.6,2-4.5,2.3-5.8,2.4c-1.1,0.2-1.2,0.2-1.5,0.7c-0.7,1.2-0.7,3.3-0.1,5.3
						c0.6,2,1.8,3.6,3.3,4.4c3.4,1.7,7.5,1.1,12.6-1.8c2.5-1.4,5.1-5.3,6-7.9c0.6-1.8-0.4-3.2-2.8-5.5
						C1164.7,724.9,1162,724.3,1161.5,724.3z"/>
				</g>
			</g>
		</g>
		<g>
			<g>
				<path d="M657.9,714.9c-1.3,0-2.5-0.7-3.1-1.9c-12.6-24.2-48.1-50.5-87.5-32.8c-1.8,0.8-3.8,0-4.6-1.8c-0.8-1.8,0-3.8,1.8-4.6
					c25.3-11.3,46.8-5.7,60.3,1c15.2,7.5,28.8,20.6,36.3,35c0.9,1.7,0.2,3.8-1.5,4.7C658.9,714.8,658.4,714.9,657.9,714.9z"/>
			</g>
			<g>
				<g>
					<path class="st3" d="M672.8,710c3.1-1.2,5.5,2.7,9.4,2.4c6.3-0.4,7.6-5.1,13.6-6.2c5.4-1,13.3,1.2,13.5,4.8
						c0.8,14.2-16.9,9-16.4,15.5c0.2,3,3.8,5,5.7,6.1c5.4,3.1,8.4,0.7,15.5,3.3c2.8,1,6.8,2.5,8.7,6.5c1.3,2.8,1.6,7-0.5,8.9
						c-2.2,1.9-6.4,3.2-12.6,1.9c-3-0.6-6.4-4-11.6-4.2c-2-0.1-3.2,2.1-2.2,3.8c0.7,1.1,3,3.2,4.1,3.9c2.3,1.4,3.6,2.5,5.2,3.7
						c9,6.6,7.7,11,6.2,15c-0.9,2.5-4,4.2-4.5,4.4c-0.2,0.1-4.7,2.4-9,0.9c-7.2-2.5-12-10.3-17.1-16.5c-0.7-0.9-0.8-2.3-2.6-1.2
						c-1.2,0.7-1.1,2-1.5,5.1c-1.1,8.2,0.3,11.3-1.7,13.4c-1.8,1.8-4.7,3.9-6.6,3.7c-0.9-0.1-3.1-1-4.9-2.2c-3.9-2.5-5-9.3-5.3-10.9
						c-1.3-8.6,0.3-9.8-1.1-16.2c-0.5-2.2-1.3-2.1-3.4-4.6c-3-3.7-4.2-6.5-4.9-11.5c-0.6-3.9-2.8-15.5,2.4-18.1
						c2.1-1,3.2,0.7,7.9-0.1c1.3-0.2,4.7-0.8,7.8-3c0.4-0.3,1.3-1.3,3.2-3.4C673.3,712.1,672.1,710.3,672.8,710z"/>
					<path d="M668.9,786.6c-0.2,0-0.3,0-0.5,0c-1.2-0.2-3.6-1.2-5.5-2.4c-3.9-2.5-5.4-8.5-5.9-11.9c-0.7-4.4-0.6-7-0.5-9.2
						c0.1-2.2,0.1-3.9-0.5-6.9c-0.2-1-0.4-1.2-1.2-2c-0.5-0.5-1.1-1.1-1.9-2.1c-3.1-3.9-4.4-7-5.2-12.2c0-0.3-0.1-0.6-0.2-1
						c-0.8-5.1-2.4-15.8,3.3-18.6c1.4-0.7,2.6-0.5,3.7-0.3c1.1,0.2,2.4,0.4,4.6,0.1c1.1-0.2,4.2-0.7,7.2-2.8
						c0.2-0.2,1.1-1.1,2.2-2.3l0.8-0.9c1.6-1.7,1.7-2.8,1.8-3.6c0-0.5,0.1-1.6,1.2-2l0,0c2.2-0.9,4.1,0.1,5.8,1
						c1.3,0.7,2.6,1.4,4.1,1.3c2.9-0.2,4.6-1.4,6.5-2.8c1.8-1.3,3.8-2.8,7-3.3c4.5-0.8,10.3,0.3,13.1,2.6c1.6,1.3,2,2.6,2.1,3.5
						c0.5,9.6-6.8,11.5-11.6,12.8c-3.7,1-4.9,1.5-4.8,2.7c0.2,2.2,3.4,4.1,5,5c2.6,1.5,4.4,1.6,6.8,1.7c2.3,0.1,4.9,0.2,8.4,1.5
						c2.9,1.1,7.4,2.8,9.5,7.2c1.6,3.4,1.8,8.2-0.9,10.5c-2.9,2.6-8,3.4-13.8,2.2c-1.4-0.3-2.7-1-4.1-1.8c-2.1-1.1-4.4-2.3-7.2-2.4
						c-0.6-0.1-0.8,0.4-0.9,0.5c-0.1,0.2-0.3,0.6,0,1c0.6,0.9,2.6,2.8,3.6,3.4c1.7,1,2.9,1.9,4.1,2.8c0.4,0.3,0.8,0.6,1.2,0.9
						c9.4,6.8,8.5,11.8,6.7,16.7c-1,2.8-4.2,4.7-5.2,5.2c-0.2,0.1-5.2,2.8-10.2,1c-6.3-2.2-10.7-7.9-15-13.4
						c-0.9-1.2-1.8-2.4-2.8-3.5c-0.2-0.3-0.4-0.6-0.5-0.8c0,0,0-0.1-0.1-0.1c0,0-0.1,0.1-0.2,0.1c-0.3,0.2-0.4,0.7-0.6,2.4
						c-0.1,0.5-0.1,1-0.2,1.6c-0.4,3.3-0.5,5.8-0.5,7.7c0,2.9,0,4.9-1.6,6.5C675.5,783.2,671.9,786.6,668.9,786.6z M652.9,722.8
						c-0.3,0-0.5,0.1-0.8,0.2c-3.8,1.9-2.3,11.8-1.8,15.5c0.1,0.4,0.1,0.7,0.2,1.1c0.7,4.7,1.8,7.3,4.6,10.8
						c0.7,0.9,1.2,1.4,1.7,1.8c0.9,0.9,1.6,1.6,2,3.4c0.8,3.4,0.7,5.4,0.6,7.6c-0.1,2.1-0.2,4.5,0.5,8.7c0.4,2.3,1.5,7.9,4.6,9.9
						c1.8,1.2,3.7,1.9,4.3,2c1,0.1,3.5-1.3,5.4-3.3c0.7-0.7,0.8-1.8,0.8-4.5c0-1.9,0-4.6,0.5-8.1c0.1-0.6,0.1-1.1,0.2-1.5
						c0.2-2.1,0.4-3.7,2-4.6c0.9-0.5,1.7-0.7,2.4-0.5c1,0.3,1.4,1.1,1.8,1.6c0.1,0.2,0.2,0.3,0.3,0.4c0.9,1.1,1.9,2.3,2.8,3.6
						c4,5.2,8.2,10.6,13.7,12.5c3.8,1.3,7.8-0.8,7.9-0.8c1.4-0.8,3.3-2.2,3.8-3.7c1.3-3.5,2.7-7.2-5.7-13.3c-0.4-0.3-0.9-0.6-1.3-1
						c-1.1-0.8-2.2-1.7-3.8-2.6c-1.3-0.8-3.7-3-4.6-4.3c-0.8-1.2-0.8-2.8-0.1-4c0.7-1.3,2.1-2,3.5-2c3.5,0.1,6.3,1.6,8.5,2.8
						c1.3,0.7,2.4,1.3,3.3,1.5c7.2,1.5,10.5-0.8,11.3-1.6c1.5-1.3,1.3-4.8,0.2-7.2c-1.6-3.4-5.2-4.7-7.8-5.7
						c-3.1-1.2-5.4-1.3-7.5-1.4c-2.6-0.1-5-0.2-8.2-2c-2.1-1.2-6.1-3.5-6.4-7.3c-0.3-3.8,3.6-4.9,7-5.7c4.8-1.3,9.8-2.6,9.4-9.8
						c0-0.6-0.5-1.1-1-1.4c-2.2-1.8-7.2-2.7-10.8-2c-2.5,0.5-4.1,1.6-5.8,2.8c-2.1,1.5-4.3,3.1-8,3.3c-2.3,0.2-4.2-0.8-5.6-1.6
						c-1.2-0.6-2.1-1.1-2.8-1c-0.1,1-0.4,2.7-2.5,5l-0.8,0.9c-1.5,1.6-2.1,2.3-2.6,2.7c-3.5,2.5-7.2,3.1-8.4,3.3
						c-2.7,0.4-4.4,0.1-5.6-0.1C653.5,722.9,653.1,722.8,652.9,722.8z M673.3,711.4L673.3,711.4
						C673.3,711.4,673.3,711.4,673.3,711.4C673.3,711.4,673.3,711.4,673.3,711.4z"/>
				</g>
				<g>
					<path class="st3" d="M663.7,718.7c3.1-1.4,6.3-5.4,7.4-8.1c1.2-2.8-0.5-5-2.5-7.3c-3.1-3.6-6-4.7-7-4.8
						c-2.2-0.2-2.9,3.4-6.7,5.9c-4.6,3-6.4,0.5-8,2.9c-1.9,2.8-1.3,9.4,2.8,12C654.1,721.9,659.3,720.8,663.7,718.7z"/>
					<path d="M655.4,722.3c-2.4,0-4.6-0.6-6.5-1.8c-2.1-1.3-3.6-3.6-4.2-6.5c-0.6-2.8-0.2-5.7,1-7.5c1.2-1.7,2.6-1.8,3.8-1.8
						c1.2-0.1,2.5-0.1,4.6-1.5c1.6-1,2.5-2.3,3.4-3.4c1.1-1.4,2.2-2.9,4.2-2.7c1.4,0.1,4.6,1.4,8,5.3c1.9,2.2,4.4,5.1,2.8,8.8
						c-1.4,3.1-4.8,7.2-8.2,8.8l-0.6-1.3l0.6,1.3C661.1,721.5,658.1,722.3,655.4,722.3z M661.5,699.9c-0.4,0-0.9,0.6-1.6,1.6
						c-0.9,1.2-2.1,2.8-4.1,4c-2.7,1.7-4.7,1.8-6,1.9c-1.1,0.1-1.2,0.1-1.6,0.6c-0.8,1.1-1,3.2-0.6,5.2c0.4,2.1,1.5,3.8,2.9,4.7
						c3.3,2,7.4,1.8,12.7-0.6l0,0c2.6-1.2,5.6-4.8,6.7-7.3c0.8-1.7-0.1-3.2-2.3-5.8C664.6,700.9,662,700,661.5,699.9
						C661.5,699.9,661.5,699.9,661.5,699.9z"/>
				</g>
			</g>
		</g>
		<g>
			<g>
				<path class="st4" d="M430.1,941.7l-35-6.4c16.5-89.9,15.9-175.3-1.7-253.8c-2-9-4.3-18.2-6.6-27.2
					c-12.8-50.9-26-103.6,1.8-156.6c6.3-12,30.7-52.5,80.5-71c28.3-10.5,59.5-12,90.2-4.6c30.4,7.4,57.5,22.9,78.2,44.9
					c33.1,35.2,40,77,41.2,98.8l-35.6,1.9c-0.9-16.9-6.2-49.4-31.6-76.3c-32.6-34.6-86.1-47.5-130-31.2c-38,14-56.6,45-61.4,54.1
					c-21.5,40.9-10.5,84.9,1.2,131.4c2.3,9.1,4.7,18.6,6.8,28C446.8,756.9,447.5,847.1,430.1,941.7z"/>
			</g>
			<g>
				<path class="st4" d="M576.6,707.4c-5.1-1.6-10.4-3-15.6-4.3c-33.6-8.5-60.6-10.1-70.7-10.4c-14.2-0.4-44.8,0.1-69.2,4.3
					l-6.1-35.4c27.3-4.7,60.8-5.2,76.4-4.8c11.3,0.3,41.4,2.1,78.5,11.5c5.7,1.5,11.5,3.1,17.2,4.8L576.6,707.4z"/>
			</g>
		</g>
		<g>
			<g>
				<path class="st5" d="M990.5,957c-30.8,0-60.9-11-82.1-26c-39.2-27.6-51.2-68.9-56.9-88.8c-11.6-40.1-7.5-73.9-6.1-85l0.1-0.5
					c7.1-57.9,11-164.5,11.7-326l35.9,0.2c-0.7,162.9-4.6,271-12,330.3l-0.1,0.5c-1.1,9.3-4.6,37.5,4.9,70.5
					c5,17.2,14.3,49.1,43.1,69.5c26.5,18.7,69.5,27.8,100.5,9.3c26.8-16,35.3-47.3,42.8-74.8c5.2-19.2,10.5-49.7,5.9-86.4l0-0.4
					c-8.6-69.4-7.8-173.5,2.6-318.2l35.8,2.6c-10.1,140.4-11,245.1-2.8,311.2l0,0.4c5.3,42.5-0.8,78-6.9,100.3
					c-8.4,30.7-19.8,72.7-59.1,96.2C1030,952.5,1010.1,957,990.5,957z"/>
			</g>
			<g>
				<path class="st5" d="M1163.9,958.8c-19.7-7-34.8-17.8-45-31.9c-5.6-7.8-8.4-14.9-10.9-21.2c-2.4-6.1-4.5-11.4-9.2-18.2
					c-3.2-4.6-11.8-9.6-17.6-13c-3.5-2-6.5-3.8-9-5.7l21.8-28.6c0.8,0.6,3.4,2.1,5.3,3.2c8.5,4.9,21.3,12.4,29,23.6
					c7,10.2,10.4,18.5,13.1,25.3c2.2,5.4,3.7,9.3,6.8,13.6c5.8,8.1,15.1,14.5,27.8,19L1163.9,958.8z"/>
			</g>
		</g>
		<g>
			<g>
				<rect x="1303" y="433.1" class="st6" width="36.5" height="523.5"/>
			</g>
			<g>
				<path class="st6" d="M1504.3,959.3l7.7-35.6c22.7-104.7,33-208.3,30.5-307.7c-1.7-68.2-9-113-41.4-140.1
					c-2.1-1.3-34.8-21.3-67.5-11.9c-18.7,5.4-30.3,13.1-53.9,47.1c-14.6,21.1-33.1,51.6-38.7,64l-32.7-14.8
					c7.2-15.9,27.5-48.9,41.9-69.6c26.2-37.8,44.1-52.7,73.5-61.2c47.7-13.8,93.2,12.7,100.1,18.5c47.6,39.5,53.1,104.2,54.7,167.1
					c2.3,93.5-6.3,190.4-25.6,288.4c2.5-0.1,4.9-0.1,7.3,0c20,0.9,35.3,9.1,44.2,15.4c3.7,0.6,9.7,1.2,14,1.7
					c10.7,1.2,17.6,2.1,22,3.2l-9.1,34.7c-2.3-0.6-11.1-1.6-16.9-2.3c-10.7-1.2-17.5-2.1-22-3.2l-3.7-1l-3-2.4
					c-4.5-3.6-13.9-9.8-26.9-10.3c-9.2-0.4-16.7,2.2-21.4,4.4L1504.3,959.3z M1500.8,475.6C1500.8,475.6,1500.8,475.6,1500.8,475.6
					C1500.8,475.6,1500.8,475.6,1500.8,475.6z"/>
			</g>
		</g>
		<g>
			<g>
				<path d="M326.1,742.9c-0.4,0-0.9-0.1-1.3-0.2c-1.8-0.7-2.7-2.7-2-4.5c17.6-44.8,45.8-98.1,79.7-98.1c1.9,0,3.5,1.6,3.5,3.5
					s-1.6,3.5-3.5,3.5c-23.4,0-49.4,33.3-73.2,93.7C328.8,742.1,327.5,742.9,326.1,742.9z"/>
			</g>
			<g>
				<g>
					<path class="st3" d="M307.2,741.3c-4.1-0.7-6.1,4.5-11.1,5.2c-7.9,1-10.7-4.4-18.4-4.3c-7,0.1-16.2,4.6-15.6,9
						c2.4,17.3,23.2,6.9,24.1,15c0.4,3.7-3.5,7-5.6,8.8c-6,5.1-10.3,2.8-18.4,7.7c-3.2,1.9-7.9,4.7-9.2,9.9
						c-0.9,3.6-0.3,8.8,2.8,10.6c3.1,1.8,8.7,2.3,16-0.7c3.6-1.5,7-6.4,13.3-7.9c2.4-0.5,4.5,1.8,3.6,4.1c-0.6,1.5-2.9,4.6-4.1,5.7
						c-2.5,2.2-3.9,3.9-5.6,5.7c-9.5,10.1-6.9,15.1-4.1,19.6c1.7,2.8,6,4.1,6.6,4.3c0.3,0.1,6.4,1.8,11.4-1
						c8.3-4.8,12.4-15.3,17.2-24c0.7-1.2,0.4-2.9,3-2.1c1.6,0.6,1.8,2.1,3,5.8c3.3,9.7,2.4,13.8,5.3,15.8c2.6,1.8,6.8,3.6,9,2.9
						c1.1-0.4,3.5-1.9,5.5-3.8c4.2-3.9,4-12.5,3.9-14.5c-0.4-10.8-2.8-11.8-2.6-19.9c0.1-2.8,1.2-2.8,3.1-6.4
						c2.8-5.1,3.6-8.8,3.3-15c-0.3-4.9-0.3-19.5-7.3-21.4c-2.8-0.8-3.8,1.6-9.8,1.8c-1.7,0.1-6,0.2-10.4-1.9c-0.6-0.3-2-1.3-4.8-3.3
						C307.1,743.9,308.1,741.4,307.2,741.3z"/>
					<path d="M286.3,836.3c-2.9,0-5.1-0.6-5.2-0.7c-1.3-0.4-5.7-1.9-7.6-5.1c-3.3-5.3-5.7-11.3,4.3-21.8c0.5-0.5,0.9-1,1.3-1.4
						c1.2-1.4,2.5-2.8,4.4-4.4c1.1-0.9,3.2-3.8,3.7-5c0.2-0.6,0-1-0.2-1.2c-0.1-0.1-0.6-0.6-1.3-0.4c-3.5,0.8-6.1,2.9-8.4,4.7
						c-1.6,1.2-3,2.4-4.7,3.1c-6.9,2.8-13.3,3-17.6,0.6c-3.9-2.2-4.8-8.2-3.7-12.6c1.5-5.9,6.6-9,10-11c4.1-2.4,7.2-3.2,10-3.9
						c2.9-0.7,5.3-1.3,8.1-3.6c1.7-1.5,5.3-4.5,5-7.2c-0.2-1.6-2.2-1.9-6.7-2.1c-6.3-0.4-15.8-1-17.4-12.8c-0.2-1.1,0-2.8,1.6-4.7
						c3-3.5,9.9-6.2,15.7-6.3c4-0.1,6.9,1.3,9.4,2.4c2.7,1.2,5.1,2.3,8.8,1.9c1.9-0.2,3.3-1.3,4.8-2.5c1.8-1.5,3.9-3.1,6.9-2.6h0
						c1.4,0.2,1.8,1.5,2,2.1c0.3,0.9,0.7,2.2,3.1,3.9l1.2,0.9c1.6,1.2,2.9,2.1,3.2,2.3c4.1,1.9,8.2,1.7,9.6,1.7
						c2.9-0.1,4.4-0.7,5.7-1.2c1.3-0.5,2.7-1.1,4.7-0.5c7.8,2.1,8.3,15.4,8.6,21.7c0,0.5,0,0.9,0.1,1.3c0.3,6.5-0.5,10.5-3.5,16
						c-0.8,1.4-1.4,2.3-1.9,3c-0.8,1.1-1,1.4-1,2.6c-0.1,3.8,0.4,5.8,1,8.4c0.6,2.7,1.4,5.8,1.6,11.3c0.2,4.2-0.2,11.9-4.5,15.8
						c-2.1,2-4.7,3.7-6.2,4.2c-3.9,1.2-9.9-2.7-10.6-3.1c-2.4-1.6-2.8-3.9-3.6-7.5c-0.5-2.4-1.1-5.3-2.4-9.2
						c-0.2-0.7-0.4-1.3-0.6-1.9c-0.7-2.1-0.9-2.7-1.3-2.8c-0.1,0-0.2-0.1-0.3-0.1c0,0.1,0,0.1-0.1,0.2c-0.1,0.3-0.3,0.7-0.5,1.1
						c-0.9,1.6-1.7,3.2-2.6,4.9c-4,7.7-8.1,15.7-15.3,19.8C291.4,835.9,288.6,836.3,286.3,836.3z M285.9,792.6
						c1.4,0,2.8,0.6,3.8,1.7c1.2,1.4,1.5,3.2,0.8,4.9c-0.7,1.8-3.2,5.1-4.6,6.4c-1.7,1.5-2.9,2.8-4.1,4.1c-0.5,0.5-0.9,1-1.4,1.5
						c-8.9,9.4-6.3,13.5-3.9,17.4c1,1.7,3.7,2.9,5.6,3.5c0.1,0,5.6,1.7,10-0.9c6.3-3.6,10.2-11.1,13.9-18.4c0.9-1.6,1.7-3.4,2.6-5
						c0.1-0.1,0.2-0.4,0.2-0.6c0.3-0.9,1.3-3.6,4.9-2.3c2.2,0.7,2.7,2.6,3.6,5.1c0.2,0.5,0.4,1.1,0.6,1.8c1.4,4.1,2.1,7.3,2.6,9.7
						c0.7,3.2,1,4.5,2.1,5.2c2.8,1.9,6.2,3.1,7.5,2.7c0.7-0.2,2.9-1.6,4.9-3.4c3.3-3.1,3.4-10.2,3.3-13.1c-0.2-5.2-0.9-8.1-1.5-10.6
						c-0.6-2.6-1.2-5.1-1.1-9.4c0.1-2.3,0.8-3.3,1.7-4.6c0.5-0.7,1-1.4,1.7-2.6c2.6-4.9,3.4-8.3,3.1-14.1c0-0.4,0-0.8-0.1-1.3
						c-0.2-4.7-0.7-17-5.9-18.4c-0.8-0.2-1.2-0.1-2.4,0.4c-1.4,0.6-3.4,1.3-6.9,1.4c-1.6,0.1-6.3,0.2-11.2-2c-0.7-0.3-1.6-1-3.9-2.6
						l-1.2-0.9c-3.1-2.2-3.9-4.2-4.3-5.4c-1,0.1-1.9,0.8-3.3,1.9c-1.6,1.3-3.7,2.9-6.6,3.3c-4.7,0.6-7.8-0.8-10.7-2.2
						c-2.4-1.1-4.6-2.1-7.7-2.1c-0.1,0-0.1,0-0.2,0c-4.8,0.1-10.7,2.4-13,5.1c-0.4,0.5-0.9,1.2-0.8,1.9c1.2,8.9,7.8,9.3,14.1,9.7
						c4.4,0.3,9.5,0.6,10,5.3c0.5,4.6-3.9,8.4-6.2,10.4c-3.5,2.9-6.4,3.6-9.6,4.4c-2.7,0.6-5.4,1.3-9,3.4c-3,1.8-7.2,4.3-8.3,8.8
						c-0.8,3.1-0.2,7.4,2,8.6c1.2,0.7,5.8,2.7,14.4-0.8c1.1-0.5,2.4-1.4,3.8-2.6c2.5-2,5.5-4.4,9.8-5.4
						C285.2,792.7,285.5,792.6,285.9,792.6z M306.9,743C306.9,743,306.9,743,306.9,743C306.9,743,306.9,743,306.9,743z"/>
				</g>
				<g>
					<path class="st3" d="M320.5,749.6c-4.2-1-9.1-5.1-11.2-8c-2.2-3-0.6-6.1,1.4-9.4c3-5.1,6.3-7.2,7.6-7.5
						c2.7-0.8,4.4,3.5,9.7,5.5c6.4,2.5,8.1-0.9,10.6,1.6c3.1,2.9,3.9,11.2-0.6,15.2C333.3,751.3,326.6,751.1,320.5,749.6z"/>
					<path d="M327.7,752.4c-2.3,0-4.9-0.3-7.6-1l0,0c-4.5-1.1-9.8-5.3-12.2-8.7c-3-4.1-0.5-8.3,1.3-11.4c3.3-5.6,7-7.9,8.6-8.3
						c2.4-0.7,4.1,0.8,5.8,2.3c1.3,1.1,2.8,2.4,5,3.3c2.9,1.1,4.6,0.9,6.1,0.7c1.6-0.2,3.3-0.5,5.2,1.3c1.9,1.9,3.1,5.3,3.1,8.8
						c-0.1,3.7-1.4,6.9-3.7,9C336.3,751,332.4,752.4,327.7,752.4z M320.9,747.9c7.1,1.7,12.3,1,15.9-2.2c2.1-1.9,2.5-4.8,2.5-6.3
						c0-2.5-0.8-5-2-6.2c-0.6-0.5-0.8-0.5-2.2-0.4c-1.6,0.2-4.1,0.6-7.9-0.9c-2.8-1.1-4.7-2.7-6.1-3.9c-1.2-1-2-1.7-2.5-1.5
						c-0.6,0.2-3.6,1.8-6.5,6.7c-2.1,3.6-2.8,5.6-1.5,7.5C312.9,743.4,317.4,747,320.9,747.9L320.9,747.9z"/>
				</g>
			</g>
		</g>
		<g>
			<g>
				<path d="M752.6,740c-1.3,0-2.6-0.8-3.2-2c-0.8-1.7,0-3.8,1.7-4.6c8.7-3.9,19.1-9.5,30.2-15.4c28.2-15,60.1-32.1,84.5-34.5
					c1.9-0.2,3.6,1.2,3.8,3.1c0.2,1.9-1.2,3.6-3.1,3.8c-23,2.3-54.3,19-81.9,33.7c-11.2,6-21.7,11.6-30.6,15.6
					C753.6,739.9,753.1,740,752.6,740z"/>
			</g>
			<g>
				<g>
					<path class="st3" d="M751.1,751.5c0.6,3.3-3.7,4.8-4.2,8.8c-0.8,6.2,3.5,8.5,3.4,14.6c-0.1,5.5-3.7,12.8-7.3,12.3
						c-14-2-5.6-18.4-12.1-19.1c-3-0.3-5.7,2.8-7.1,4.4c-4.1,4.7-2.3,8.1-6.2,14.5c-1.6,2.5-3.8,6.2-8,7.2c-2.9,0.7-7.1,0.2-8.6-2.2
						c-1.5-2.5-1.9-6.9,0.6-12.7c1.2-2.8,5.2-5.5,6.4-10.5c0.4-1.9-1.4-3.6-3.3-2.8c-1.2,0.5-3.7,2.3-4.6,3.3
						c-1.8,2-3.2,3.1-4.6,4.4c-8.2,7.5-12.3,5.4-15.9,3.2c-2.3-1.4-3.3-4.7-3.5-5.3c-0.1-0.2-1.5-5.1,0.8-9
						c3.9-6.6,12.4-9.8,19.5-13.6c1-0.5,2.4-0.3,1.7-2.3c-0.4-1.3-1.7-1.4-4.7-2.4c-7.9-2.6-11.2-1.9-12.8-4.2
						c-1.4-2.1-2.9-5.4-2.4-7.2c0.3-0.9,1.6-2.8,3.1-4.4c3.2-3.3,10.1-3.1,11.7-3.1c8.7,0.3,9.6,2.2,16.1,2.1
						c2.3-0.1,2.3-0.9,5.2-2.5c4.2-2.2,7.2-2.8,12.2-2.6c3.9,0.2,15.8,0.3,17.3,5.8c0.6,2.2-1.3,3-1.5,7.8c0,1.3-0.1,4.7,1.5,8.2
						c0.2,0.5,1,1.6,2.7,3.8C749,751.6,751,750.8,751.1,751.5z"/>
					<path d="M707,796.1c-2.9,0-5.9-1-7.2-3.3c-2-3.4-1.8-8.5,0.5-14c0.5-1.3,1.5-2.5,2.5-3.7c1.5-1.8,3.2-3.8,3.8-6.6
						c0.1-0.5-0.2-0.9-0.3-1c-0.1-0.1-0.5-0.4-1-0.2c-1,0.4-3.3,2-4,2.9c-1.3,1.5-2.5,2.5-3.6,3.5c-0.4,0.3-0.8,0.7-1.2,1
						c-8.5,7.9-13.2,6.1-17.6,3.4c-2.6-1.6-3.8-5-4.1-6.1c-0.1-0.2-1.7-5.7,1-10.2c3.4-5.7,9.8-9,16.1-12.1c1.3-0.7,2.7-1.3,4-2
						c0.3-0.2,0.7-0.3,0.9-0.4c0,0,0.1,0,0.1,0c0,0,0-0.1-0.1-0.2c-0.1-0.3-0.6-0.5-2.3-1c-0.5-0.1-1-0.3-1.5-0.5
						c-3.2-1.1-5.6-1.6-7.5-2c-2.9-0.6-4.8-1-6.1-2.9c-0.6-0.9-3.5-5.4-2.5-8.4c0.4-1.2,1.8-3.3,3.4-4.9c3.2-3.4,9.4-3.6,12.8-3.5
						c4.5,0.2,7,0.8,9.1,1.3c2.1,0.5,3.8,0.9,6.8,0.8c1,0,1.3-0.2,2.1-0.8c0.5-0.4,1.3-0.9,2.4-1.5c4.4-2.3,7.7-3,12.9-2.7
						c0.3,0,0.6,0,1,0c5.2,0.2,15.9,0.7,17.6,6.9c0.4,1.5,0,2.7-0.4,3.7c-0.4,1.1-0.9,2.3-1,4.5c0,1.1-0.2,4.3,1.4,7.6
						c0.1,0.3,0.9,1.3,1.8,2.6l0.7,1c1.4,1.9,2.5,2.2,3.2,2.4c0.5,0.1,1.5,0.5,1.7,1.6l0,0c0.4,2.4-0.9,4-2.1,5.5
						c-1,1.2-1.9,2.3-2,3.8c-0.4,2.9,0.5,4.8,1.5,6.9c0.9,2,2,4.3,1.9,7.5c-0.1,4.6-2.3,10-5.1,12.4c-1.6,1.3-3,1.5-3.9,1.3
						c-9.5-1.3-10-8.9-10.3-13.9c-0.2-3.8-0.5-5.1-1.7-5.3c-2.2-0.3-4.7,2.6-5.9,3.9c-1.9,2.2-2.4,4.1-3,6.4c-0.5,2.2-1.2,4.7-3.1,8
						c-1.6,2.7-4.1,6.7-8.9,7.9C709,796,708,796.1,707,796.1z M705.6,764.4c0.9,0,1.8,0.3,2.5,0.9c1.1,0.9,1.6,2.4,1.3,3.8
						c-0.8,3.4-2.8,5.9-4.4,7.8c-0.9,1.1-1.7,2.1-2.1,3c-2.8,6.8-1.2,10.4-0.6,11.4c1,1.7,4.5,2.2,7,1.6c3.6-0.9,5.6-4.2,7.1-6.6
						c1.7-2.8,2.3-5,2.8-7.1c0.6-2.5,1.2-4.9,3.6-7.6c1.6-1.9,4.7-5.3,8.4-4.9c3.8,0.4,4.1,4.4,4.3,8c0.3,5,0.6,10.2,7.8,11.2
						c0.6,0.1,1.2-0.3,1.6-0.7c2.2-1.8,4-6.5,4.1-10.2c0-2.5-0.8-4.3-1.7-6.2c-1.1-2.4-2.2-4.8-1.7-8.5c0.3-2.3,1.6-3.9,2.7-5.2
						c0.9-1.1,1.4-1.8,1.5-2.6c-1-0.3-2.6-1-4.4-3.4l-0.7-1c-1.3-1.8-1.9-2.5-2.1-3c-1.8-3.9-1.7-7.7-1.6-8.9
						c0.1-2.7,0.7-4.3,1.2-5.5c0.4-1,0.5-1.3,0.3-1.9c-1.1-4.1-11.1-4.6-14.9-4.7c-0.4,0-0.8,0-1.1,0c-4.7-0.2-7.5,0.3-11.4,2.4
						c-1,0.5-1.6,1-2.1,1.3c-1,0.7-1.8,1.3-3.7,1.3c-3.4,0.1-5.5-0.4-7.6-0.9c-2.1-0.5-4.4-1-8.6-1.2c-5-0.2-8.8,0.8-10.6,2.6
						c-1.5,1.5-2.6,3.2-2.8,3.8c-0.3,1,0.6,3.7,2.2,5.9c0.6,0.9,1.7,1.1,4.2,1.6c1.9,0.4,4.5,0.9,7.8,2c0.6,0.2,1,0.3,1.5,0.5
						c2,0.6,3.5,1.1,4.1,2.8c0.4,1,0.4,1.8,0,2.5c-0.4,0.9-1.3,1.2-1.9,1.4c-0.2,0.1-0.3,0.1-0.5,0.2c-1.3,0.7-2.7,1.4-4,2.1
						c-5.9,2.9-11.9,6-14.9,11c-2,3.4-0.7,7.8-0.7,7.9c0.5,1.5,1.5,3.6,2.9,4.4c3.2,2,6.6,4,14.2-3c0.4-0.4,0.8-0.7,1.2-1.1
						c1-0.9,2.1-1.9,3.3-3.2c1-1.1,3.7-3.1,5.1-3.7C704.6,764.5,705.1,764.4,705.6,764.4z M749.7,751.8
						C749.7,751.8,749.7,751.8,749.7,751.8C749.7,751.8,749.7,751.8,749.7,751.8L749.7,751.8z"/>
				</g>
				<g>
					<path class="st3" d="M744.4,740.9c0.8,3.3,4.1,7.2,6.5,8.9c2.5,1.7,5,0.5,7.6-1.1c4.1-2.4,5.8-5,6.1-6c0.6-2.2-2.8-3.5-4.5-7.7
						c-2-5.1,0.7-6.4-1.3-8.4c-2.4-2.4-9-3.1-12.3,0.4C743,730.8,743.2,736.1,744.4,740.9z"/>
					<path d="M753.4,752.1c-1.1,0-2.2-0.3-3.4-1.1c-2.8-2-6.2-6.1-7.1-9.7l0,0c-1.6-6.6-0.8-11.7,2.5-15.2c1.7-1.8,4.3-2.9,7.2-2.9
						c2.9-0.1,5.6,0.9,7.1,2.4c1.5,1.5,1.3,2.9,1.1,4.1c-0.2,1.2-0.4,2.5,0.5,4.8c0.7,1.7,1.7,2.9,2.7,4c1.2,1.3,2.4,2.7,1.8,4.6
						c-0.4,1.3-2.2,4.2-6.8,6.8C757.6,750.9,755.5,752.1,753.4,752.1z M752.9,726.1c0,0-0.1,0-0.1,0c-2.1,0-4,0.7-5.1,2
						c-2.6,2.8-3.2,6.9-1.8,12.6v0c0.7,2.8,3.6,6.4,5.9,8c1.6,1.1,3.1,0.5,6.1-1.1c3.9-2.2,5.3-4.6,5.4-5.1c0.1-0.4-0.4-1-1.2-1.9
						c-1-1.1-2.3-2.6-3.2-4.8c-1.2-3-0.9-5-0.7-6.3c0.2-1.1,0.2-1.2-0.3-1.7C756.9,726.7,754.9,726.1,752.9,726.1z"/>
				</g>
			</g>
		</g>
		<g>
			<g>
				<path d="M1245,774.2c-1.1,0-2.1-0.5-2.9-1.4c-1.2-1.6-0.9-3.9,0.6-5.1c11.2-8.8,23.5-18.7,35.4-28.3
					c11.9-9.6,24.2-19.6,35.5-28.4c1.6-1.2,3.9-0.9,5.1,0.6c1.2,1.6,0.9,3.9-0.6,5.1c-11.2,8.8-23.5,18.7-35.4,28.3
					c-11.9,9.6-24.2,19.6-35.5,28.4C1246.5,773.9,1245.8,774.2,1245,774.2z"/>
			</g>
			<g>
				<g>
					<path class="st3" d="M1249.3,785.7c1.8,2.9-1.7,6.1-0.7,10.2c1.6,6.4,6.7,6.9,8.9,12.9c2.1,5.4,1.3,13.9-2.4,14.8
						c-14.4,3.5-12.5-15.7-19.1-14c-3,0.8-4.5,4.9-5.2,7c-2.2,6.2,0.9,8.8-0.5,16.5c-0.5,3.1-1.3,7.5-5,10.1
						c-2.6,1.8-6.9,2.9-9.2,1.1c-2.4-1.9-4.5-6-4.3-12.6c0.1-3.2,3-7.4,2.2-12.7c-0.3-2-2.8-2.9-4.3-1.5c-1,0.9-2.7,3.7-3.2,5
						c-1,2.6-1.9,4.2-2.8,6.1c-5,10.5-9.8,10-14.2,9.2c-2.7-0.5-5.1-3.3-5.4-3.8c-0.2-0.2-3.4-4.4-2.7-9.1
						c1.2-7.9,8.3-14.3,13.7-20.7c0.8-0.9,2.2-1.3,0.7-2.9c-0.9-1.1-2.2-0.7-5.5-0.5c-8.7,0.5-11.6,2.5-14.1,0.8
						c-2.2-1.5-4.9-4.1-5-6.1c-0.1-1,0.5-3.3,1.3-5.5c1.8-4.5,8.7-6.9,10.2-7.5c8.6-3,10.2-1.5,16.4-4.2c2.2-0.9,1.9-1.8,4.1-4.4
						c3.2-3.7,5.9-5.5,10.9-7.2c3.9-1.3,15.5-5.8,19.1-1c1.5,1.9-0.1,3.4,1.6,8.2c0.5,1.3,1.7,4.6,4.6,7.4c0.4,0.4,1.6,1.1,4.1,2.7
						C1247.3,786.6,1248.8,785,1249.3,785.7z"/>
					<path d="M1219.3,846.9c-1.5,0-2.9-0.4-4.1-1.3c-3.2-2.5-5-7.6-4.9-13.8c0-1.5,0.5-3,1-4.6c0.7-2.3,1.6-4.9,1.1-7.9
						c-0.1-0.6-0.5-0.8-0.7-0.8c-0.2-0.1-0.6-0.2-1.1,0.2c-0.8,0.7-2.4,3.2-2.8,4.4c-0.7,2-1.4,3.4-2.1,4.8c-0.2,0.5-0.5,1-0.7,1.5
						c-5.3,10.9-10.5,11-15.9,10.1c-3.1-0.5-5.6-3.4-6.3-4.3c-0.2-0.2-3.8-4.9-3-10.3c1.1-6.9,6.1-12.5,11-18c1-1.2,2.1-2.3,3.1-3.5
						c0.3-0.3,0.5-0.5,0.8-0.7c0,0,0.1-0.1,0.1-0.1c0,0-0.1-0.1-0.1-0.1c-0.2-0.3-0.8-0.3-2.6-0.1c-0.5,0-1,0.1-1.7,0.1
						c-3.5,0.2-6,0.6-8,1c-3,0.5-5,0.9-7-0.4c-0.9-0.6-5.5-3.9-5.7-7.2c-0.1-1.3,0.5-3.9,1.4-6.1c1.8-4.5,7.8-7.2,11.1-8.3
						c4.4-1.6,7.1-1.9,9.4-2.3c2.2-0.3,4-0.6,7-1.9c1-0.4,1.2-0.7,1.8-1.6c0.4-0.6,0.9-1.4,1.8-2.4c3.4-4,6.3-5.9,11.5-7.6
						c0.3-0.1,0.6-0.2,1-0.3c5.1-1.8,15.8-5.4,19.7-0.1c1,1.3,1,2.6,1,3.8c0,1.2,0,2.5,0.8,4.8c0.4,1,1.5,4.2,4.2,6.8
						c0.2,0.2,1.3,0.9,2.7,1.8l1.1,0.7c2.1,1.3,3.2,1.2,4,1.1c0.5,0,1.7-0.2,2.3,0.9c1.3,2.1,0.6,4.3,0,6.1
						c-0.5,1.5-0.9,2.9-0.5,4.4c0.8,3,2.3,4.4,4.1,6.2c1.7,1.6,3.6,3.4,4.8,6.5c1.7,4.5,1.6,10.6-0.2,14c-1,1.9-2.3,2.6-3.2,2.8
						c-9.8,2.4-13.1-4.8-15.3-9.5c-1.7-3.6-2.5-4.8-3.7-4.5c-2.2,0.6-3.6,4.3-4.2,6.1c-1,2.9-0.8,4.9-0.4,7.4c0.3,2.4,0.7,5,0,8.9
						c-0.6,3.2-1.4,8.1-5.6,11.1C1224.3,845.9,1221.7,846.9,1219.3,846.9z M1211.4,815.4c0.4,0,0.9,0.1,1.3,0.2
						c1.4,0.5,2.5,1.7,2.7,3.3c0.5,3.7-0.5,6.8-1.3,9.3c-0.5,1.4-0.9,2.7-0.9,3.7c-0.1,7.7,2.8,10.6,3.8,11.3
						c1.6,1.3,5.2,0.4,7.4-1.2c3.2-2.3,3.9-6.2,4.4-9.2c0.6-3.4,0.3-5.8,0-8c-0.4-2.7-0.7-5.2,0.6-8.8c0.9-2.4,2.5-7,6.2-8
						c3.9-1,5.7,2.7,7.2,6.1c2.2,4.7,4.5,9.6,11.9,7.9c0.6-0.1,1-0.8,1.3-1.3c1.4-2.6,1.4-7.9,0-11.5c-0.9-2.5-2.4-3.9-4-5.4
						c-2-1.9-4-3.8-5-7.6c-0.6-2.3,0.1-4.4,0.6-6.1c0.4-1.4,0.7-2.3,0.5-3.1c-1.1,0.1-2.9,0.1-5.6-1.6l-1.1-0.7
						c-2-1.2-2.8-1.7-3.2-2.2c-3.3-3.1-4.6-6.8-5-8c-1-2.7-1-4.5-1-5.8c0-1.1,0-1.5-0.4-2c-2.7-3.6-12.6-0.2-16.3,1.1
						c-0.4,0.1-0.7,0.3-1,0.4c-4.7,1.6-7.1,3.2-10.2,6.7c-0.8,0.9-1.2,1.6-1.6,2.1c-0.7,1.1-1.3,1.9-3.1,2.7
						c-3.3,1.4-5.5,1.7-7.7,2.1c-2.2,0.3-4.7,0.7-8.8,2.1c-2.3,0.8-7.9,3.1-9.3,6.6c-0.8,2.1-1.3,4.1-1.2,4.8c0.1,1.1,2,3.3,4.4,4.9
						c0.9,0.6,2,0.4,4.8,0c2-0.3,4.7-0.8,8.4-1c0.6,0,1.1-0.1,1.6-0.1c2.2-0.2,3.9-0.3,5.1,1.2c0.7,0.8,1,1.6,1,2.4
						c-0.1,1.1-0.8,1.7-1.3,2.1c-0.1,0.1-0.3,0.2-0.4,0.4c-1,1.2-2.1,2.4-3.1,3.6c-4.6,5.1-9.3,10.4-10.3,16.4
						c-0.6,4.1,2.3,7.9,2.3,7.9c1,1.3,2.9,2.9,4.5,3.2c3.9,0.7,7.9,1.4,12.6-8.4c0.2-0.5,0.5-1,0.8-1.5c0.7-1.3,1.3-2.6,2-4.4
						c0.5-1.4,2.4-4.4,3.6-5.5C1209.4,815.8,1210.4,815.4,1211.4,815.4z M1248,786.5C1248,786.5,1248,786.5,1248,786.5
						C1248,786.5,1248,786.5,1248,786.5L1248,786.5z"/>
				</g>
				<g>
					<path class="st3" d="M1238.6,778c2.1,2.9,6.8,5.4,9.7,6.1c3.1,0.7,5-1.5,7-4c3.1-3.9,3.7-7.1,3.6-8.2c-0.2-2.3-4.1-2.3-7.3-5.8
						c-3.9-4.2-1.8-6.5-4.5-7.7c-3.2-1.4-10,0.5-11.8,5.1C1233.4,768.7,1235.6,773.8,1238.6,778z"/>
					<path d="M1249.5,785.8c-0.5,0-1-0.1-1.5-0.2c-3.5-0.8-8.4-3.6-10.6-6.7l0,0c-4.1-5.8-5.2-11.1-3.4-15.8c1-2.4,3.1-4.4,5.9-5.6
						c2.8-1.1,5.8-1.3,7.9-0.4c2,0.9,2.3,2.3,2.6,3.6c0.3,1.2,0.6,2.5,2.4,4.4c1.3,1.4,2.8,2.2,4.1,2.9c1.7,0.9,3.4,1.7,3.6,3.8
						c0.1,1.4-0.5,5-4,9.2C1254.9,783.1,1252.8,785.8,1249.5,785.8z M1239.9,777.1c1.7,2.5,6,4.8,8.8,5.5c1.9,0.5,3.3-0.7,5.5-3.5
						c3-3.7,3.4-6.5,3.3-7.1c0-0.4-0.8-0.8-1.9-1.4c-1.4-0.7-3.3-1.7-4.9-3.5c-2.3-2.5-2.8-4.5-3.1-5.8c-0.3-1.1-0.3-1.3-0.9-1.5
						c-1.3-0.6-3.5-0.4-5.5,0.4c-2.1,0.8-3.6,2.3-4.3,3.9C1235.4,767.9,1236.3,772.2,1239.9,777.1L1239.9,777.1z"/>
				</g>
			</g>
		</g>
		<g>
			<g>
				<path d="M1600.8,715c-1.5,0-3-1-3.5-2.5c-4.2-13.6-9.2-28.6-14-43.1c-4.8-14.5-9.8-29.6-14.1-43.3c-0.6-1.9,0.5-3.9,2.4-4.5
					c1.9-0.6,3.9,0.5,4.5,2.4c4.2,13.6,9.2,28.6,14,43.1c4.8,14.5,9.8,29.6,14.1,43.2c0.6,1.9-0.5,3.9-2.4,4.5
					C1601.5,714.9,1601.2,715,1600.8,715z"/>
			</g>
			<g>
				<g>
					<path class="st3" d="M1616.5,712.7c3.4-0.7,5.1,3.8,9.3,4.2c6.5,0.7,8.8-3.8,15.2-3.8c5.8,0,13.5,3.7,13,7.4
						c-1.8,14.7-19.1,6.2-19.8,13c-0.3,3.1,3,5.9,4.8,7.4c5,4.2,8.5,2.3,15.3,6.3c2.7,1.6,6.6,3.9,7.7,8.3c0.8,3.1,0.3,7.5-2.2,9
						c-2.6,1.6-7.2,2.1-13.3-0.4c-3-1.2-5.8-5.4-11.1-6.5c-2-0.4-3.7,1.6-2.9,3.5c0.5,1.3,2.5,3.9,3.5,4.8c2.1,1.8,3.3,3.3,4.7,4.8
						c8,8.4,5.9,12.7,3.6,16.6c-1.4,2.4-4.9,3.6-5.4,3.7c-0.2,0.1-5.3,1.6-9.5-0.7c-6.9-3.9-10.5-12.8-14.6-20.1
						c-0.6-1-0.4-2.5-2.5-1.7c-1.3,0.5-1.5,1.8-2.4,5c-2.6,8.3-1.8,11.7-4.2,13.5c-2.1,1.5-5.6,3.2-7.5,2.6c-0.9-0.3-3-1.6-4.6-3.2
						c-3.5-3.3-3.4-10.6-3.4-12.2c0.2-9.1,2.2-10.1,1.9-16.9c-0.1-2.4-1-2.4-2.7-5.4c-2.4-4.3-3.1-7.4-2.9-12.7
						c0.2-4.1,0-16.5,5.8-18.2c2.3-0.7,3.1,1.3,8.2,1.4c1.4,0,4.9,0.1,8.6-1.7c0.5-0.2,1.6-1.1,3.9-2.9
						C1616.6,714.8,1615.7,712.8,1616.5,712.7z"/>
					<path d="M1634.7,792.9c-1.9,0-4.1-0.3-6.1-1.5c-6-3.4-9.6-10.1-12.9-16.6c-0.7-1.4-1.5-2.8-2.2-4.1c-0.2-0.3-0.3-0.7-0.4-1
						c0,0,0-0.1,0-0.1c-0.1,0-0.1,0-0.2,0.1c-0.3,0.1-0.5,0.6-1,2.4c-0.1,0.5-0.3,1-0.5,1.6c-1.1,3.3-1.5,5.9-1.9,7.9
						c-0.6,3-0.9,5-2.9,6.4c-0.9,0.6-5.6,3.8-8.8,2.8c-1.3-0.4-3.5-1.9-5.2-3.5c-3.6-3.3-4-9.8-3.9-13.3c0.1-4.7,0.7-7.3,1.2-9.6
						c0.5-2.2,0.9-4,0.7-7.2c0-1.1-0.2-1.3-0.9-2.2c-0.4-0.6-1-1.3-1.6-2.5c-2.5-4.6-3.3-8-3.1-13.5c0-0.3,0-0.7,0-1.1
						c0.1-5.4,0.4-16.7,6.9-18.5c1.6-0.5,2.8,0,3.9,0.4c1.1,0.4,2.4,0.9,4.7,0.9c1.1,0,4.5,0.1,7.9-1.5c0.3-0.1,1.3-0.9,2.7-2l1-0.8
						c2-1.5,2.3-2.6,2.5-3.4c0.1-0.5,0.4-1.6,1.6-1.8l0,0c2.5-0.5,4.2,0.9,5.8,2.1c1.2,1,2.4,1.9,4,2.1c3,0.3,5-0.6,7.2-1.7
						c2.1-1,4.5-2.2,7.8-2.2c0,0,0,0,0,0c4.8,0,10.5,2.2,13,5.1c1.4,1.6,1.6,3.1,1.5,4c-1.2,10-9.1,10.6-14.3,11
						c-4,0.3-5.4,0.6-5.5,1.9c-0.2,2.3,2.8,4.8,4.2,6.1c2.4,2,4.3,2.4,6.7,3c2.3,0.5,5,1.1,8.4,3.1c2.8,1.7,7.1,4.2,8.4,9.2
						c1,3.7,0.3,8.8-2.9,10.7c-3.5,2.1-8.8,2-14.6-0.3c-1.4-0.5-2.6-1.5-3.9-2.6c-1.9-1.5-4.1-3.2-7-3.9c-0.6-0.1-0.9,0.2-1,0.4
						c-0.1,0.1-0.4,0.5-0.2,1.1c0.4,1,2.2,3.4,3.1,4.2c1.6,1.4,2.7,2.5,3.7,3.7c0.4,0.4,0.7,0.8,1.1,1.2c8.4,8.8,6.6,13.7,3.8,18.4
						c-1.6,2.7-5.2,4.1-6.3,4.4C1639.2,792.3,1637.3,792.9,1634.7,792.9z M1613.3,766.5c0.4,0,0.8,0.1,1.1,0.2c1,0.5,1.3,1.4,1.5,2
						c0.1,0.2,0.1,0.3,0.2,0.5c0.8,1.4,1.5,2.8,2.2,4.2c3.2,6.1,6.5,12.4,11.8,15.4c3.6,2.1,8.2,0.6,8.3,0.6
						c1.6-0.5,3.8-1.6,4.6-3.1c2-3.4,4.1-6.9-3.4-14.8c-0.4-0.4-0.8-0.8-1.2-1.2c-1-1.1-2-2.2-3.4-3.4c-1.2-1-3.3-3.8-3.9-5.3
						c-0.6-1.4-0.3-3,0.6-4.2c1-1.2,2.5-1.7,4-1.4c3.6,0.8,6.2,2.8,8.2,4.4c1.2,0.9,2.2,1.7,3.1,2.1c7.1,2.8,10.9,1.1,11.9,0.5
						c1.8-1.1,2.2-4.7,1.5-7.3c-1-3.8-4.5-5.8-7-7.3c-3-1.8-5.3-2.3-7.5-2.8c-2.6-0.6-5.1-1.2-8-3.6c-2-1.7-5.7-4.8-5.3-8.7
						c0.4-4,4.6-4.3,8.3-4.6c5.2-0.4,10.6-0.8,11.5-8.4c0.1-0.6-0.4-1.2-0.7-1.7c-2-2.2-6.9-4.1-10.8-4.1c0,0,0,0,0,0
						c-2.7,0-4.5,0.9-6.5,1.9c-2.4,1.2-5,2.4-8.9,2c-2.4-0.3-4.1-1.6-5.5-2.7c-1.1-0.9-1.9-1.5-2.7-1.6c-0.3,1-1,2.7-3.5,4.7l-1,0.8
						c-1.9,1.4-2.6,2-3.2,2.3c-4.1,2-8,1.9-9.3,1.9c-2.9-0.1-4.5-0.7-5.7-1.1c-1-0.4-1.4-0.5-2-0.3c-4.3,1.2-4.6,11.7-4.7,15.7
						c0,0.4,0,0.8,0,1.1c-0.2,4.9,0.5,7.8,2.7,11.9c0.6,1,1,1.7,1.4,2.2c0.8,1.1,1.4,1.9,1.4,3.9c0.2,3.6-0.3,5.7-0.8,7.9
						c-0.5,2.2-1,4.6-1.1,9c-0.1,2.5,0.1,8.5,2.9,11.1c1.6,1.5,3.4,2.6,4.1,2.8c1.1,0.3,3.8-0.7,6.1-2.4c0.9-0.6,1.1-1.8,1.6-4.5
						c0.4-2,0.9-4.7,2-8.2c0.2-0.6,0.3-1.1,0.5-1.5c0.6-2.2,1.1-3.7,2.9-4.4C1612.4,766.6,1612.9,766.5,1613.3,766.5z"/>
				</g>
				<g>
					<path class="st3" d="M1605.5,719.9c3.4-0.9,7.4-4.4,9.2-6.9c1.8-2.6,0.4-5.2-1.3-8c-2.5-4.3-5.3-6-6.4-6.3
						c-2.3-0.6-3.6,3-8,4.8c-5.3,2.2-6.7-0.6-8.8,1.5c-2.5,2.5-3.1,9.5,0.7,12.8C1595,721.5,1600.5,721.2,1605.5,719.9z"/>
					<path d="M1599.3,722.3c-3.8,0-6.9-1.1-9.4-3.3c-1.9-1.7-3.1-4.4-3.1-7.5c-0.1-3,0.8-5.9,2.4-7.5c1.5-1.6,3-1.4,4.3-1.2
						c1.2,0.2,2.6,0.3,5-0.6c1.8-0.7,3-1.9,4.1-2.8c1.4-1.3,2.8-2.6,4.8-2c1.4,0.4,4.5,2.3,7.3,7c1.5,2.6,3.6,6.1,1.2,9.6
						c-2,2.9-6.3,6.6-10,7.6l0,0C1603.5,722,1601.3,722.3,1599.3,722.3z M1592.2,705.7c-0.4,0-0.6,0.1-0.8,0.4c-1,1-1.6,3.1-1.6,5.3
						c0.1,2.2,0.8,4.2,2.1,5.4c3,2.7,7.3,3.2,13.2,1.7l0,0c2.9-0.8,6.6-3.9,8.3-6.3c1.1-1.7,0.5-3.3-1.3-6.4
						c-2.4-4.1-4.9-5.4-5.4-5.6c-0.4-0.1-1,0.4-2,1.3c-1.1,1-2.7,2.5-5,3.4c-3.1,1.3-5.2,1-6.5,0.9
						C1592.7,705.7,1592.4,705.7,1592.2,705.7z"/>
				</g>
			</g>
		</g>
		<g>
			<g>
				<ellipse transform="matrix(0.9794 -0.202 0.202 0.9794 -67.7118 97.2745)" class="st3" cx="442.8" cy="380.4" rx="37" ry="52"/>
				<path d="M447.8,433.9c-8.5,0-17-3.7-24.6-10.7c-9.1-8.5-15.7-20.9-18.6-34.9c-6-29.2,6.2-56.4,27.3-60.7
					c10.3-2.1,21.1,1.5,30.4,10.1c9.1,8.5,15.7,20.9,18.6,34.9l0,0c2.9,14,1.7,28-3.3,39.4c-5.1,11.6-13.6,19.2-24,21.3
					C451.7,433.7,449.8,433.9,447.8,433.9z M437.7,331c-1.7,0-3.4,0.2-5,0.5c-18.9,3.9-29.7,29-24.1,56c2.7,13.2,8.9,24.8,17.4,32.8
					c8.3,7.8,17.9,11,26.9,9.1c9-1.9,16.5-8.6,21.1-19c4.7-10.6,5.8-23.8,3.1-37l0,0c-2.7-13.2-8.9-24.8-17.4-32.8
					C452.8,334.3,445.2,331,437.7,331z"/>
			</g>
			<g>
				
					<ellipse transform="matrix(0.9794 -0.202 0.202 0.9794 -70.112 99.2424)" class="st7" cx="451.2" cy="393.2" rx="26.4" ry="33.4"/>
				<path class="st7" d="M453.7,426.8c-5.6,0-11.3-2.2-16.3-6.4c-6.2-5.2-10.7-13-12.5-21.9c-3.8-18.3,5-35.6,19.5-38.6
					c7.1-1.5,14.4,0.6,20.7,5.9c6.2,5.2,10.7,13,12.5,21.9l0,0c1.8,8.9,0.8,17.7-2.8,25c-3.7,7.3-9.6,12.2-16.6,13.6
					C456.6,426.7,455.1,426.8,453.7,426.8z M448.8,360.4c-1.4,0-2.8,0.1-4.2,0.4c-14,2.9-22.4,19.7-18.8,37.5
					c1.8,8.6,6.1,16.2,12.2,21.3c6.1,5.1,13.1,7.1,19.9,5.7c6.8-1.4,12.5-6.1,16-13.1c3.6-7.1,4.5-15.8,2.8-24.4l0,0
					c-1.8-8.6-6.1-16.2-12.2-21.3C459.6,362.5,454.2,360.4,448.8,360.4z"/>
			</g>
			<g>
				<ellipse transform="matrix(0.9794 -0.202 0.202 0.9794 -71.4496 101.2819)" cx="460.5" cy="400.7" rx="16.2" ry="20.4"/>
				<path class="st7" d="M462,421.3c-3.5,0-6.9-1.3-9.9-3.9c-3.8-3.2-6.5-8-7.6-13.4c-1.1-5.4-0.5-10.8,1.7-15.3
					c2.2-4.5,5.9-7.4,10.2-8.3c8.9-1.8,18,5.8,20.3,17l0,0c1.1,5.4,0.5,10.8-1.7,15.3c-2.2,4.5-5.9,7.4-10.2,8.3
					C463.8,421.2,462.9,421.3,462,421.3z M459,380.7c-0.8,0-1.7,0.1-2.6,0.3c-4.1,0.9-7.6,3.7-9.8,8c-2.2,4.3-2.8,9.6-1.7,14.9
					s3.7,9.9,7.5,13c3.7,3.1,8,4.4,12.2,3.5c4.1-0.9,7.6-3.7,9.8-8c2.2-4.3,2.8-9.6,1.7-14.9l0,0C474.1,387.7,466.7,380.7,459,380.7
					z"/>
			</g>
			<g>
				
					<ellipse transform="matrix(0.9794 -0.202 0.202 0.9794 -69.1172 102.2685)" class="st3" cx="466.5" cy="389.8" rx="5.2" ry="6.5"/>
				<path class="st7" d="M467,396.4c-1.1,0-2.2-0.4-3.2-1.2c-1.2-1-2.1-2.5-2.4-4.3c-0.7-3.6,1-7,3.8-7.5c2.8-0.6,5.7,1.8,6.5,5.4
					l0,0c0.7,3.6-1,7-3.8,7.5C467.6,396.3,467.3,396.4,467,396.4z M466.1,383.4c-0.3,0-0.5,0-0.8,0.1c-2.7,0.6-4.4,3.9-3.7,7.3
					c0.3,1.7,1.2,3.2,2.4,4.2c1.2,1,2.6,1.4,3.9,1.1c2.7-0.6,4.4-3.9,3.7-7.3C470.9,385.6,468.5,383.4,466.1,383.4z"/>
			</g>
			<g>
				
					<ellipse transform="matrix(0.9996 -2.707228e-02 2.707228e-02 0.9996 -9.7139 15.0099)" class="st3" cx="549.5" cy="366.3" rx="37" ry="52"/>
				<path d="M550.2,420.2c-21.1,0-38.8-23.5-39.6-52.9c-0.4-14.3,3.2-27.9,10.2-38.2c7.1-10.6,16.8-16.5,27.3-16.8
					c10.5-0.3,20.5,5.2,28.2,15.3c7.5,10,11.8,23.3,12.2,37.6l0,0c0.4,14.3-3.2,27.9-10.2,38.2c-7.1,10.6-16.8,16.5-27.3,16.8
					C550.7,420.2,550.4,420.2,550.2,420.2z M548.8,316.3c-0.2,0-0.4,0-0.7,0c-9.2,0.2-17.8,5.6-24.1,15c-6.5,9.7-9.9,22.4-9.5,35.9
					c0.7,27.6,17,49.5,36.3,49c9.2-0.2,17.8-5.6,24.1-15c6.5-9.7,9.9-22.4,9.5-35.9l0,0c-0.4-13.5-4.4-26-11.4-35.3
					C566.3,321.1,557.8,316.3,548.8,316.3z"/>
			</g>
			<g>
				
					<ellipse transform="matrix(0.9996 -2.707228e-02 2.707228e-02 0.9996 -10.0914 15.1795)" class="st7" cx="555.6" cy="380.3" rx="26.4" ry="33.4"/>
				<path class="st7" d="M555.9,414.2c-7,0-13.6-3.3-18.7-9.5c-5.2-6.3-8.2-14.7-8.5-23.7c-0.5-18.7,11.1-34.2,26-34.6
					c7.2-0.2,14.1,3.2,19.3,9.5c5.2,6.3,8.2,14.7,8.5,23.7c0.5,18.7-11.1,34.2-26,34.6C556.3,414.2,556.1,414.2,555.9,414.2z
					 M555.2,347.3c-0.2,0-0.4,0-0.6,0c-14.3,0.4-25.6,15.5-25.1,33.7c0.2,8.8,3.2,17,8.3,23.1c5.1,6.1,11.7,9.3,18.6,9.1
					c14.3-0.4,25.6-15.5,25.1-33.7c-0.2-8.8-3.2-17-8.3-23.1C568.3,350.5,561.9,347.3,555.2,347.3z"/>
			</g>
			<g>
				
					<ellipse transform="matrix(0.9996 -2.707228e-02 2.707228e-02 0.9996 -10.3347 15.3954)" cx="563.4" cy="389.4" rx="16.2" ry="20.4"/>
				<path class="st7" d="M563.6,410.1c-8.9,0-16.3-9-16.6-20.3c-0.1-5.5,1.4-10.8,4.4-14.8c3-4,7.1-6.3,11.5-6.4
					c4.4-0.1,8.6,1.9,11.8,5.8c3.2,3.8,5,9,5.2,14.5s-1.4,10.8-4.4,14.8c-3,4-7.1,6.3-11.5,6.4C563.8,410.1,563.7,410.1,563.6,410.1
					z M563.2,369.2c-0.1,0-0.2,0-0.3,0c-4.2,0.1-8.1,2.3-11,6.2c-2.9,3.9-4.4,9-4.3,14.4c0.3,11,7.5,19.7,16.1,19.7
					c0.1,0,0.2,0,0.3,0c4.2-0.1,8.1-2.3,11-6.2c2.9-3.9,4.4-9,4.3-14.4c-0.1-5.4-1.9-10.4-5.1-14.2
					C571.2,371.2,567.3,369.2,563.2,369.2z"/>
			</g>
			<g>
				
					<ellipse transform="matrix(0.9996 -2.707228e-02 2.707228e-02 0.9996 -10.0689 15.6037)" class="st3" cx="571.2" cy="379.7" rx="5.2" ry="6.5"/>
				<path class="st7" d="M571.3,386.3c-2.8,0-5.2-2.9-5.3-6.5c0-1.8,0.5-3.4,1.4-4.7c1-1.3,2.3-2,3.7-2c0,0,0.1,0,0.1,0
					c2.8,0,5.2,2.9,5.3,6.5c0.1,3.6-2.2,6.7-5.1,6.8C571.4,386.3,571.3,386.3,571.3,386.3z M571.2,373.2c0,0-0.1,0-0.1,0
					c-1.3,0-2.6,0.7-3.5,2c-0.9,1.2-1.4,2.9-1.4,4.6c0.1,3.5,2.4,6.3,5.1,6.3c0,0,0.1,0,0.1,0c2.8-0.1,5-3,4.9-6.6
					C576.2,376,573.9,373.2,571.2,373.2z"/>
			</g>
			<g>
				<line class="st3" x1="512.6" y1="304.4" x2="560.8" y2="294"/>
				<path d="M512.6,306.4c-0.9,0-1.8-0.6-2-1.6c-0.2-1.1,0.5-2.1,1.5-2.4l48.2-10.4c1.1-0.2,2.1,0.5,2.4,1.5
					c0.2,1.1-0.5,2.1-1.5,2.4l-48.2,10.4C512.9,306.4,512.8,306.4,512.6,306.4z"/>
			</g>
			<g>
				<line class="st3" x1="444.1" y1="301.7" x2="397" y2="316.2"/>
				<path d="M397,318.2c-0.9,0-1.6-0.6-1.9-1.4c-0.3-1.1,0.3-2.2,1.3-2.5l47.1-14.5c1.1-0.3,2.2,0.3,2.5,1.3
					c0.3,1.1-0.3,2.2-1.3,2.5l-47.1,14.5C397.4,318.2,397.2,318.2,397,318.2z"/>
			</g>
		</g>
		<g>
			<g>
				
					<ellipse transform="matrix(0.202 -0.9794 0.9794 0.202 811.9321 1791.0001)" class="st3" cx="1505" cy="397.3" rx="50.5" ry="35.9"/>
				<path d="M1500,449.2c-1.9,0-3.7-0.2-5.6-0.6c-10-2.1-18.3-9.4-23.3-20.8c-4.9-11.1-6-24.7-3.2-38.3l0,0
					c2.8-13.6,9.2-25.7,18.1-33.9c9.1-8.4,19.6-11.9,29.6-9.9c10,2.1,18.3,9.4,23.3,20.8c4.9,11.1,6,24.7,3.2,38.3
					C1536.8,430.7,1518.6,449.2,1500,449.2z M1509.9,349.3c-7.2,0-14.6,3.2-21.2,9.4c-8.3,7.7-14.3,19-16.9,31.8l0,0
					c-2.6,12.8-1.6,25.5,3,35.9c4.4,10.1,11.7,16.7,20.5,18.5c18.3,3.8,37.6-14.5,43-40.6c2.6-12.8,1.6-25.5-3-35.9
					c-4.4-10.1-11.7-16.7-20.5-18.5C1513.2,349.4,1511.6,349.3,1509.9,349.3z M1469.8,390L1469.8,390L1469.8,390z"/>
			</g>
			<g>
				
					<ellipse transform="matrix(0.1208 -0.9927 0.9927 0.1208 912.0275 1843.6135)" class="st8" cx="1496.8" cy="406.9" rx="37.8" ry="25.8"/>
				<path class="st7" d="M1494.4,445.1c-1.4,0-2.9-0.2-4.3-0.5c-14.1-3.4-22.6-23-18.9-43.8c2.2-12.4,8.4-23,16.6-28.3
					c5.1-3.3,10.5-4.4,15.7-3.1c14.1,3.4,22.6,23,18.9,43.8c-2.2,12.4-8.4,23-16.6,28.4C1502.2,443.8,1498.3,445.1,1494.4,445.1z
					 M1499.2,369.8c-3.7,0-7.4,1.2-10.9,3.5c-8,5.2-14,15.6-16.1,27.7c-3.6,20.2,4.6,39.4,18.2,42.6c5,1.2,10.1,0.2,15-3
					c8-5.2,14-15.6,16.1-27.7c3.6-20.2-4.6-39.4-18.2-42.6C1501.9,369.9,1500.6,369.8,1499.2,369.8z"/>
			</g>
			<g>
				<ellipse transform="matrix(0.202 -0.9794 0.9794 0.202 778.8326 1789.8479)" cx="1487.7" cy="417" rx="19.9" ry="15.7"/>
				<path class="st7" d="M1486.3,437c-0.9,0-1.7-0.1-2.6-0.3c-4.2-0.9-7.7-3.7-9.9-8.1c-2.2-4.3-2.8-9.6-1.7-14.9
					c2.2-10.9,11.1-18.3,19.7-16.5c4.2,0.9,7.7,3.7,9.9,8.1c2.2,4.3,2.8,9.6,1.7,14.9C1501.4,430,1494,437,1486.3,437z
					 M1489.2,397.6c-7.5,0-14.6,6.8-16.6,16.3c-1.1,5.1-0.5,10.3,1.6,14.5c2.1,4.2,5.5,7,9.5,7.8c8.3,1.7,16.9-5.5,19.1-16.1
					c1.1-5.1,0.5-10.3-1.6-14.5c-2.1-4.2-5.5-7-9.5-7.8C1490.9,397.6,1490,397.6,1489.2,397.6z"/>
			</g>
			<g>
				
					<ellipse transform="matrix(0.202 -0.9794 0.9794 0.202 784.584 1775.6646)" class="st3" cx="1481.9" cy="406.4" rx="6.3" ry="5"/>
				<path class="st7" d="M1481.4,412.8c-0.3,0-0.6,0-0.8-0.1c-2.8-0.6-4.4-3.9-3.7-7.3c0.7-3.5,3.5-5.8,6.3-5.3
					c2.8,0.6,4.4,3.9,3.7,7.3c-0.3,1.7-1.2,3.1-2.4,4.1C1483.6,412.3,1482.5,412.8,1481.4,412.8z M1482.4,400.2
					c-2.4,0-4.7,2.2-5.3,5.2c-0.7,3.4,0.9,6.6,3.6,7.1c1.3,0.3,2.6-0.1,3.8-1.1c1.2-1,2-2.4,2.3-4c0.7-3.4-0.9-6.6-3.6-7.1
					C1482.9,400.2,1482.6,400.2,1482.4,400.2z"/>
			</g>
			<g>
				
					<ellipse transform="matrix(2.707228e-02 -0.9996 0.9996 2.707228e-02 980.0508 1773.9706)" class="st3" cx="1401.4" cy="383.5" rx="50.5" ry="35.9"/>
				<path d="M1400.7,436c-0.3,0-0.5,0-0.8,0c-10.3-0.3-19.7-6.1-26.6-16.4c-6.8-10.1-10.3-23.2-9.9-37.1c0.8-28.9,18.4-52,39.3-51.4
					c20.9,0.6,37.3,24.6,36.5,53.5c-0.4,13.9-4.6,26.9-11.9,36.6C1420.1,430.7,1410.7,436,1400.7,436z M1402,335
					c-18.4,0-33.8,21.1-34.6,47.6c-0.4,13.1,2.9,25.4,9.2,34.8c6.2,9.2,14.5,14.3,23.4,14.6c8.9,0.2,17.5-4.5,24.1-13.3
					c6.8-9,10.7-21.2,11.1-34.3c0.7-26.7-13.9-48.9-32.6-49.4C1402.5,335,1402.2,335,1402,335z"/>
			</g>
			<g>
				
					<ellipse transform="matrix(1.607703e-02 -0.9999 0.9999 1.607703e-02 979.858 1780.3998)" class="st8" cx="1394.6" cy="392.3" rx="37.9" ry="25.7"/>
				<path class="st7" d="M1394.2,430.7c-0.2,0-0.4,0-0.6,0c-14.4-0.5-25.7-18.1-25.2-39.2c0.3-12.7,4.8-24.5,12.2-31.4
					c4.4-4.2,9.6-6.3,14.9-6.2c14.4,0.5,25.7,18.1,25.2,39.2c-0.3,12.7-4.8,24.5-12.2,31.4C1404.2,428.6,1399.3,430.7,1394.2,430.7z
					 M1394.9,354.9c-4.8,0-9.5,2-13.6,5.9c-7.1,6.8-11.6,18.2-11.9,30.7l0,0c-0.5,20.6,10.4,37.8,24.3,38.2c5,0.2,9.9-1.9,14.2-5.9
					c7.1-6.8,11.6-18.2,11.9-30.7c0.5-20.6-10.4-37.8-24.3-38.2C1395.2,354.9,1395.1,354.9,1394.9,354.9z"/>
			</g>
			<g>
				
					<ellipse transform="matrix(2.707228e-02 -0.9996 0.9996 2.707228e-02 944.4414 1782.2955)" cx="1387.8" cy="406" rx="19.9" ry="15.7"/>
				<path class="st7" d="M1387.6,426.1c-0.1,0-0.2,0-0.4,0c-4.3-0.1-8.2-2.3-11.1-6.2c-2.9-3.9-4.4-9-4.3-14.3
					c0.1-5.4,1.9-10.4,5-14.1c3.1-3.7,7.2-5.7,11.5-5.6c4.3,0.1,8.2,2.3,11.1,6.2c2.9,3.9,4.4,9,4.3,14.3s-1.9,10.4-5,14.1
					C1395.7,424.1,1391.8,426.1,1387.6,426.1z M1388,386.4c-4,0-7.8,1.9-10.7,5.4c-3,3.6-4.8,8.5-4.9,13.7l0,0
					c-0.1,5.2,1.3,10.2,4.2,14c2.8,3.8,6.6,5.9,10.7,6c4.1,0.1,8-1.8,11-5.4c3-3.6,4.8-8.5,4.9-13.7c0.1-5.2-1.3-10.2-4.2-14
					c-2.8-3.8-6.6-5.9-10.7-6C1388.2,386.4,1388.1,386.4,1388,386.4z"/>
			</g>
			<g>
				
					<ellipse transform="matrix(2.707228e-02 -0.9996 0.9996 2.707228e-02 946.4777 1765.5194)" class="st3" cx="1380.2" cy="396.5" rx="6.3" ry="5"/>
				<path class="st7" d="M1380.2,403c0,0-0.1,0-0.1,0c-2.8-0.1-5-3-4.9-6.6c0.1-3.5,2.4-6.3,5.2-6.3c0,0,0.1,0,0.1,0
					c2.8,0.1,5,3,4.9,6.6C1385.2,400.2,1382.9,403,1380.2,403z M1380.3,390.3c-2.7,0-4.9,2.7-5,6.1c-0.1,3.4,2,6.3,4.7,6.4
					c0,0,0.1,0,0.1,0c2.7,0,4.9-2.7,5-6.1c0.1-3.4-2-6.3-4.7-6.4C1380.4,390.3,1380.3,390.3,1380.3,390.3z"/>
			</g>
			<g>
				<line class="st3" x1="1401.9" y1="298.9" x2="1359.6" y2="321.3"/>
				<path d="M1359.6,323.4c-0.7,0-1.4-0.4-1.8-1.1c-0.5-1-0.1-2.2,0.8-2.7l42.3-22.4c1-0.5,2.2-0.1,2.7,0.8c0.5,1,0.1,2.2-0.8,2.7
					l-42.3,22.4C1360.2,323.3,1359.9,323.4,1359.6,323.4z"/>
			</g>
			<g>
				<line class="st3" x1="1517" y1="308.3" x2="1546.9" y2="345.6"/>
				<path d="M1546.9,347.6c-0.6,0-1.2-0.3-1.6-0.7l-30-37.3c-0.7-0.9-0.6-2.1,0.3-2.8c0.9-0.7,2.1-0.6,2.8,0.3l30,37.3
					c0.7,0.9,0.6,2.1-0.3,2.8C1547.8,347.5,1547.4,347.6,1546.9,347.6z"/>
			</g>
		</g>
		<g>
			<path class="st5" d="M565.8,527.3c-8.6,13.8-21.8,28.7-41.9,32c-23.3,3.9-41.4-10.1-45.1-1.4c-4.3,10,13.3,43.5,36.4,53
				c16.3,6.7,29-1.1,34.3-5.5c0.4-0.3,1.1-1.2,1.9-2.4c4.1-5.9,6.7-12.8,7.5-19.9L565.8,527.3z"/>
			<path d="M527.9,614.6c-4,0-8.4-0.8-13.1-2.7c-15.8-6.5-29-24.1-34.6-37.7c-3-7.2-3.8-13.1-2.3-16.6c2.2-5.1,8.1-3.6,16.3-1.7
				c8,2,18,4.4,29.5,2.5c16-2.7,29.9-13.3,41.3-31.6l2.2-3.6l-7.3,60c-0.9,7.4-3.6,14.4-7.7,20.3c-1.4,2.1-2,2.5-2.1,2.6
				C545.7,609.8,538,614.6,527.9,614.6z M484,556c-2.2,0-3.6,0.7-4.3,2.3c-1.3,3-0.4,8.5,2.3,15.1c5.4,13.2,18.3,30.3,33.6,36.6
				c15.5,6.3,27.6-0.6,33.4-5.3c0.1-0.1,0.6-0.5,1.8-2.2c4-5.7,6.5-12.4,7.4-19.5l6.3-51.8c-11.2,16.7-24.8,26.4-40.3,29
				c-11.8,2-22.5-0.6-30.2-2.5C489.6,556.8,486.3,556,484,556z"/>
		</g>
		<g>
			<path class="st5" d="M1379.3,587.8c8.6,13.8,33,28.7,53.1,32c23.3,3.9,68.3-11,68.3-11s-36.4,53.1-59.6,62.6
				c-16.3,6.7-26.5,1-31.9-3.3c-0.4-0.3-3.6-3.4-4.4-4.6c-3.9-5.6-6.4-7.1-9.8-18.9c-0.2-0.7-1.9-5.9-2.1-6.6L1379.3,587.8z"/>
			<path d="M1426.9,675.4c-6.7,0-12.7-2.2-18.2-6.6c-0.4-0.3-3.7-3.5-4.6-4.8c-0.8-1.1-1.5-2-2.2-3c-2.8-3.7-5-6.6-7.7-16.2
				c-0.1-0.3-0.6-1.8-1-3.2c-0.5-1.6-1-3.1-1.1-3.4l-15.3-56.5l3.4,5.4c8.4,13.6,32.9,28.3,52.5,31.6c22.8,3.8,67.4-10.8,67.8-10.9
				l2.6-0.9l-1.6,2.3c-1.5,2.2-36.9,53.5-60,62.9C1436.4,674.4,1431.5,675.4,1426.9,675.4z M1381.6,592.4l12.3,45.4
				c0.1,0.3,0.6,1.9,1.1,3.3c0.5,1.5,0.9,2.9,1,3.3c2.6,9.2,4.7,12,7.4,15.6c0.7,0.9,1.4,1.9,2.2,3c0.8,1.1,3.9,4.1,4.3,4.4
				c8.6,7,19,8,30.9,3.2c19.9-8.2,50.3-49.8,57.6-60c-10.1,3.1-45.8,13.5-66.1,10.1C1414,617.6,1392.1,605.2,1381.6,592.4z"/>
		</g>
		<g>
			<g>
				<path d="M1118.7,358.2c1-5.1,6.8-5.3,14.7-12.9c11.2-10.7,13-22.9,14.6-22.6c1.2,0.2,0.9,6.8-1.7,13.8
					c-5.5,14.7-18.2,22.2-17.1,23.4c0.9,1,10.3-3,17.1-10.6c5.1-5.7,6.6-11.2,7.8-11c1.1,0.2,1.5,5.5-0.9,10.4
					c-5.3,10.9-21.1,13.7-20.5,15.9c0.4,1.5,7.6,1.5,13.9-1.2c5-2.1,7.2-4.9,7.6-4.6c0.7,0.5-3.9,8.7-12.9,12.3
					c-1.8,0.7-5.1,2-9,1.6C1124.2,371.9,1117.5,364.2,1118.7,358.2z"/>
				<path d="M1133.8,372.9c-0.5,0-1,0-1.5-0.1c-4.4-0.4-8.7-2.9-11.4-6.6c-2-2.7-2.8-5.5-2.3-8.1l0,0c0.6-2.9,2.7-4.2,5.9-6.2
					c2.4-1.5,5.4-3.4,8.9-6.7c7.4-7.1,10.7-14.9,12.5-19.1c1-2.4,1.6-3.7,2.2-3.5c0.2,0,0.3,0.1,0.4,0.3c0.8,1.4,0.4,7.2-2.1,13.6
					c-3.7,9.9-10.7,16.6-14.5,20.2c-1.6,1.6-2.9,2.8-2.6,3.1c0.1,0.1,0.2,0.1,0.4,0.1c0,0,0,0,0,0c2.1,0,10.2-3.7,16.5-10.7
					c2.8-3.1,4.5-6.2,5.7-8.2c1.1-1.9,1.7-2.9,2.3-2.8c0.2,0,0.4,0.2,0.5,0.5c0.7,1.4,0.7,5.8-1.4,10c-3.4,7.1-11.4,10.8-16.2,13.1
					c-2.5,1.2-4.4,2.1-4.2,2.7c0,0.2,0.2,0.3,0.5,0.4c1.8,0.8,7.8,0.6,13.3-1.7c3.1-1.3,5.1-2.9,6.3-3.9c0.8-0.6,1.2-0.9,1.4-0.8
					c0.1,0.1,0.1,0.2,0.1,0.4c-0.3,1.7-4.8,8.8-13,12.1C1139.7,371.8,1137.1,372.9,1133.8,372.9z M1148,322.8
					c-0.5,0-1.1,1.4-1.9,3.4c-1.8,4.2-5.2,12.1-12.6,19.2c-3.5,3.3-6.5,5.2-8.9,6.8c-3.1,2-5.2,3.3-5.8,6.1l0,0
					c-0.5,2.5,0.3,5.3,2.2,7.9c2.7,3.6,6.9,6.1,11.3,6.5c3.9,0.4,7-0.9,8.9-1.6c8.1-3.2,12.6-10.2,12.9-11.9c0-0.2,0-0.2,0-0.2
					c-0.1,0-0.6,0.4-1.1,0.8c-1.2,1-3.2,2.6-6.3,3.9c-5.5,2.3-11.7,2.6-13.4,1.7c-0.3-0.2-0.5-0.4-0.6-0.6c-0.2-0.9,1.5-1.7,4.3-3
					c5.1-2.4,12.7-5.9,16.1-12.9c1.9-3.9,2.1-8.4,1.4-9.8c-0.1-0.2-0.2-0.4-0.4-0.4c0,0,0,0-0.1,0c-0.5,0-1.1,1.1-2,2.7
					c-1.2,2-2.9,5.1-5.7,8.2c-6.3,7.1-14.5,10.8-16.6,10.8c0,0,0,0,0,0c-0.3,0-0.5-0.1-0.6-0.2c-0.4-0.5,0.6-1.5,2.6-3.4
					c3.8-3.6,10.7-10.3,14.5-20.1c2.3-6.2,2.8-12.1,2.1-13.4C1148.2,322.9,1148.1,322.8,1148,322.8
					C1148,322.8,1148,322.8,1148,322.8z"/>
			</g>
			<g>
				<ellipse class="st3" cx="1093.6" cy="396.6" rx="40" ry="58.8"/>
				<path d="M1093.6,457.4c-23.2,0-42-27.3-42-60.8s18.8-60.8,42-60.8c23.2,0,42,27.3,42,60.8S1116.8,457.4,1093.6,457.4z
					 M1093.6,339.8c-21,0-38,25.5-38,56.8s17.1,56.8,38,56.8s38-25.5,38-56.8S1114.6,339.8,1093.6,339.8z"/>
			</g>
			<g>
				<ellipse cx="1095.7" cy="401.7" rx="28.6" ry="48.5"/>
				<path d="M1095.7,450.5c-15.9,0-28.9-21.9-28.9-48.8c0-26.9,13-48.8,28.9-48.8s28.9,21.9,28.9,48.8
					C1124.6,428.6,1111.6,450.5,1095.7,450.5z M1095.7,353.6c-15.6,0-28.3,21.6-28.3,48.1c0,26.5,12.7,48.1,28.3,48.1
					s28.3-21.6,28.3-48.1C1124,375.2,1111.3,353.6,1095.7,353.6z"/>
			</g>
			<g>
				<g>
					
						<ellipse transform="matrix(0.9259 -0.3778 0.3778 0.9259 -60.5733 445.8516)" class="st3" cx="1106.1" cy="377.3" rx="8" ry="14.5"/>
					<path d="M1109.8,391.1c-1.6,0-3.4-0.7-5.1-2.1c-2.4-2-4.6-5-6.1-8.6c-1.5-3.6-2.1-7.3-1.7-10.4c0.4-3.1,1.7-5.3,3.7-6.1
						c2-0.8,4.5-0.2,6.9,1.8c2.4,2,4.6,5,6.1,8.6c1.5,3.6,2.1,7.3,1.7,10.4c-0.4,3.1-1.7,5.3-3.7,6.1
						C1111,391,1110.4,391.1,1109.8,391.1z M1102.4,363.7c-0.6,0-1.2,0.1-1.8,0.3c-2,0.8-3.2,2.9-3.6,6c-0.4,3.1,0.2,6.8,1.7,10.3
						s3.6,6.6,6,8.6c2.4,1.9,4.8,2.6,6.8,1.8c2-0.8,3.2-2.9,3.6-6c0.4-3.1-0.2-6.8-1.7-10.3l0,0c-1.5-3.6-3.6-6.6-6-8.6
						C1105.7,364.4,1104,363.7,1102.4,363.7z"/>
				</g>
				<g>
					
						<ellipse transform="matrix(0.9259 -0.3778 0.3778 0.9259 -56.2424 445.0723)" class="st3" cx="1106.3" cy="365.9" rx="4.9" ry="9.1"/>
					<path d="M1108.7,374.6c-1,0-2.1-0.5-3.2-1.4c-1.5-1.3-2.9-3.2-3.8-5.5s-1.3-4.6-1.1-6.5c0.2-2,1-3.3,2.2-3.8
						c2.5-1,6.2,1.9,8.1,6.6c0.9,2.3,1.3,4.6,1.1,6.5c-0.2,2-1,3.3-2.2,3.8C1109.4,374.5,1109,374.6,1108.7,374.6z M1103.9,357.3
						c-0.4,0-0.7,0.1-1,0.2c-1.2,0.5-2,1.8-2.2,3.7c-0.2,1.9,0.2,4.2,1.1,6.5c0.9,2.2,2.3,4.2,3.8,5.4c1.5,1.2,3,1.6,4.2,1.2
						c1.2-0.5,2-1.8,2.2-3.7c0.2-1.9-0.2-4.2-1.1-6.5l0,0C1109.1,360,1106.2,357.3,1103.9,357.3z"/>
				</g>
			</g>
			<g>
				<path d="M1060.3,333.8c-0.7,0-1.4-0.4-1.8-1.1c-0.5-1-0.1-2.1,0.9-2.6c14.1-6.9,28.3-10.8,42.2-11.7c10.2-0.7,20.3,0.3,29.9,3
					c1,0.3,1.6,1.4,1.4,2.4c-0.3,1-1.3,1.6-2.4,1.4c-9.1-2.5-18.8-3.5-28.6-2.9c-13.4,0.9-27.2,4.7-40.7,11.3
					C1060.9,333.7,1060.6,333.8,1060.3,333.8z"/>
			</g>
		</g>
		<g>
			<g>
				<path d="M849.9,357.4c-1.1-5.1-6.8-5.2-14.9-12.7c-11.4-10.6-13.4-22.7-15-22.4c-1.2,0.3-0.8,6.8,1.9,13.7
					c5.8,14.6,18.6,22,17.5,23.2c-0.9,1-10.3-2.8-17.2-10.3c-5.2-5.7-6.8-11.1-8-10.8c-1.1,0.2-1.4,5.5,1,10.3
					c5.4,10.8,21.3,13.4,20.7,15.6c-0.4,1.5-7.6,1.6-13.9-1c-5-2-7.2-4.8-7.6-4.5c-0.6,0.5,4,8.7,13.1,12.1c1.8,0.7,5.1,1.9,9,1.5
					C844.7,371.2,851.2,363.5,849.9,357.4z"/>
				<path d="M834.8,372.3c-3.2,0-5.7-1-7.3-1.6c-8.3-3.2-12.9-10.2-13.2-11.9c0-0.2,0-0.3,0.1-0.4c0.2-0.2,0.6,0.1,1.4,0.7
					c1.2,0.9,3.2,2.5,6.4,3.8c5.5,2.2,11.5,2.4,13.3,1.5c0.3-0.1,0.4-0.3,0.5-0.5c0.2-0.7-1.8-1.6-4.3-2.7
					c-4.8-2.2-12.9-5.8-16.4-12.8c-2.1-4.1-2.2-8.5-1.5-10c0.1-0.3,0.3-0.5,0.5-0.5c0.6-0.1,1.2,0.9,2.3,2.8c1.2,2,3,5.1,5.8,8.1
					c6.3,6.9,14.5,10.4,16.6,10.4c0,0,0,0,0,0c0.2,0,0.4,0,0.4-0.1c0.3-0.3-1-1.5-2.7-3.1c-3.8-3.6-10.9-10.2-14.8-20
					c-2.5-6.3-3-12.2-2.3-13.5c0.1-0.2,0.2-0.3,0.4-0.4c0.6-0.1,1.2,1.2,2.3,3.5c1.9,4.2,5.3,12,12.8,18.9c3.5,3.2,6.5,5.1,9,6.6
					c3.2,2,5.3,3.3,6,6.2l0,0c0.5,2.5-0.2,5.4-2.2,8.1c-2.7,3.7-6.9,6.2-11.3,6.7C836,372.3,835.4,372.3,834.8,372.3z M814.5,358.6
					c0,0,0,0,0,0.2c0.3,1.7,4.9,8.6,13.1,11.7c1.9,0.7,5.1,1.9,8.9,1.5c4.4-0.5,8.5-3,11.2-6.7c1.9-2.6,2.6-5.5,2.1-7.9
					c-0.6-2.8-2.7-4.1-5.9-6c-2.5-1.5-5.5-3.4-9-6.6c-7.5-7-11-14.8-12.9-19c-0.9-2-1.6-3.5-2-3.4c-0.1,0-0.2,0.1-0.2,0.2
					c-0.7,1.3-0.2,7.2,2.3,13.3c3.9,9.8,10.9,16.4,14.8,19.9c2.1,1.9,3.1,2.9,2.7,3.4c-0.1,0.1-0.3,0.2-0.6,0.2c0,0,0,0,0,0
					c-2.1,0-10.4-3.6-16.8-10.5c-2.8-3.1-4.6-6.1-5.8-8.2c-0.9-1.6-1.6-2.7-2.1-2.6c-0.1,0-0.3,0.2-0.4,0.4
					c-0.7,1.4-0.5,5.9,1.5,9.8c3.5,7,11.2,10.4,16.3,12.7c2.9,1.3,4.6,2.1,4.4,2.9c-0.1,0.2-0.3,0.4-0.6,0.6
					c-1.8,0.9-7.9,0.7-13.5-1.5c-3.2-1.3-5.2-2.9-6.4-3.8C815.1,358.9,814.6,358.5,814.5,358.6L814.5,358.6z"/>
			</g>
			<g>
				<ellipse class="st3" cx="877.7" cy="396.1" rx="40" ry="58.8"/>
				<path d="M877.7,456.9c-23.2,0-42-27.3-42-60.8s18.8-60.8,42-60.8s42,27.3,42,60.8S900.9,456.9,877.7,456.9z M877.7,339.3
					c-21,0-38,25.5-38,56.8s17.1,56.8,38,56.8s38-25.5,38-56.8S898.6,339.3,877.7,339.3z"/>
			</g>
			<g>
				<ellipse cx="879.4" cy="400.3" rx="28.6" ry="47.5"/>
				<path d="M879.4,448.1c-15.9,0-28.9-21.4-28.9-47.8c0-26.4,13-47.8,28.9-47.8s28.9,21.4,28.9,47.8
					C908.3,426.7,895.3,448.1,879.4,448.1z M879.4,353.1c-15.6,0-28.3,21.2-28.3,47.2c0,26,12.7,47.2,28.3,47.2s28.3-21.2,28.3-47.2
					C907.7,374.3,895,353.1,879.4,353.1z"/>
			</g>
			<g>
				<g>
					
						<ellipse transform="matrix(0.4261 -0.9047 0.9047 0.4261 154.1634 1002.9387)" class="st3" cx="867.5" cy="380" rx="16.1" ry="8.7"/>
					<path d="M862.8,395.1c-0.8,0-1.5-0.2-2.2-0.5c-2.1-1-3.4-3.5-3.6-6.9c-0.2-3.5,0.7-7.5,2.6-11.4c3.8-8.1,10.4-12.9,14.8-10.9
						c2.1,1,3.4,3.5,3.6,6.9c0.2,3.5-0.7,7.5-2.6,11.4l-0.1,0l0.1,0c-1.8,3.9-4.4,7.2-7.2,9.2C866.4,394.3,864.5,395.1,862.8,395.1z
						 M872.2,365.1c-4.1,0-9.3,4.5-12.4,11.2c-1.8,3.9-2.7,7.9-2.5,11.3c0.2,3.4,1.4,5.8,3.5,6.8c2.1,1,4.7,0.4,7.4-1.6
						c2.8-2,5.3-5.3,7.1-9.2l0,0c1.8-3.9,2.7-7.9,2.5-11.3c-0.2-3.4-1.4-5.8-3.5-6.8C873.7,365.2,873,365.1,872.2,365.1z"/>
				</g>
				<g>
					
						<ellipse transform="matrix(0.4261 -0.9047 0.9047 0.4261 166.3214 995.5298)" class="st3" cx="867.8" cy="366.7" rx="9.1" ry="4.9"/>
					<path d="M865.1,375.3c-0.4,0-0.8-0.1-1.2-0.3c-2.5-1.2-2.7-5.8-0.6-10.4c2.2-4.6,5.9-7.4,8.4-6.2c2.5,1.2,2.7,5.8,0.6,10.4l0,0
						C870.5,372.7,867.5,375.3,865.1,375.3z M870.4,358.2c-2.3,0-5.3,2.6-7.1,6.4c-2.1,4.5-1.9,9.1,0.5,10.3
						c2.4,1.1,6.1-1.6,8.3-6.1l0,0c2.1-4.5,1.9-9.1-0.5-10.3C871.3,358.3,870.9,358.2,870.4,358.2z"/>
				</g>
			</g>
			<g>
				<path d="M897.3,327.6c-0.3,0-0.6-0.1-0.8-0.2c-12-6.5-24.6-10.8-37.6-12.7c-9.5-1.4-19.1-1.5-28.5-0.3c-1,0.1-1.8-0.6-1.9-1.5
					s0.6-1.8,1.5-1.9c9.8-1.2,19.7-1.1,29.5,0.3c13.4,2,26.4,6.4,38.7,13.1c0.8,0.5,1.1,1.5,0.7,2.4
					C898.5,327.3,897.9,327.6,897.3,327.6z"/>
			</g>
		</g>
		<g>
			<path d="M982.8,684.4c-2.3,0-4.6-0.2-6.9-0.6c-33.3-5.5-49.1-43.4-50.8-47.7l1.5-0.6c1.7,4.2,17.2,41.3,49.6,46.7
				c26.5,4.4,53.1-18.6,65.7-43.5l1.4,0.7C1031.6,662.8,1007.7,684.4,982.8,684.4z"/>
		</g>
		<g>
			<rect x="957.5" y="681" transform="matrix(4.651112e-03 -1 1 4.651112e-03 295.9136 1660.1301)" width="48.9" height="0.8"/>
		</g>
		<g>
			<path class="st3" d="M952.6,646.2c9,4,23.6,6,27.9,6c50.6,0,66.3-28,69.2-20.1c3,8.1-27.8,53.1-29.4,55.2
				c-2,2.6-16.2,23.5-41.6,21.9c-40.6-2.5-62-78.7-59.4-83.2C920.8,623.6,923.5,633.1,952.6,646.2z"/>
			<path class="st5" d="M981.4,714.5c-1,0-2,0-3-0.1c-22.8-1.4-38.9-22.7-48.4-40.4c-6.8-12.7-10.9-24.7-12.7-30.7
				c-4.8-15.7-3.2-18.5-2.4-19.8c0.9-1.6,2.4-2.6,4.1-2.9c2.9-0.5,4.8,1.2,6.8,3c3.2,2.9,10.7,9.6,28.9,17.8h0
				c8.1,3.6,21.9,5.6,25.8,5.6c31.1,0,48.3-11.1,57.5-17c5.1-3.3,8.4-5.4,12.2-4.1c1.2,0.4,3.3,1.5,4.3,4.4
				c1.4,3.8,0.7,10.7-13.4,34.3c-7.4,12.4-15.7,24.5-16.7,25.9l-0.3,0.4C1012.7,706.2,997.6,714.5,981.4,714.5z M926.1,637.2
				c3.7,13.2,12.6,36,25.9,51.3c8.6,9.8,17.7,15.1,27,15.7c14,0.9,26.8-5.8,36.8-19.4c0.2-0.2,0.3-0.4,0.4-0.6
				c3.9-5.2,21.7-32.6,27-45.4c-10.2,6.6-29,18.5-62.8,18.5c-5.3,0-20.7-2.3-30-6.5l0,0C938.9,645.6,931.2,640.9,926.1,637.2z
				 M1044.9,633.4L1044.9,633.4C1044.9,633.4,1044.9,633.4,1044.9,633.4z M924.3,627.3L924.3,627.3z"/>
		</g>
	</g>
</g>
<g>
	<path d="M369.7,143.6h6.7c0.1,5.5,4.3,8,10,8.1c6,0,9.8-1.8,9.8-5.6c0.1-9.2-25.1-2.6-24.8-17.7c0.1-5.7,5.4-10,15.2-9.8
		c6.7,0.2,14.6,3.2,14.6,10.7h-6.7c0.1-2.4-2.7-4.8-7.9-4.9c-5,0-8.4,1.4-8.5,4.1c-0.2,8.4,25.2,2.1,24.8,18.2
		c-0.2,7.1-6.5,10.9-16.6,10.8C378.2,157.4,369.5,153.8,369.7,143.6z"/>
	<path d="M449.6,130.3V157h-6.5v-4.6c-1.7,3.3-4.5,4.9-8.3,4.9c-4.3,0-7.3-2.4-8.4-6.4c-1.6,4.4-4.8,6.4-9.1,6.4
		c-5.5,0-8.7-4-8.7-10.3v-16.8h6.5v14.9c0,3.8,1.5,6.1,4.7,6.1c3.8-0.1,6-3.4,6-7.7v-13.2h6.5v14.9c0,3.8,1.4,6.1,4.7,6.1
		c3.4-0.1,5.5-2.6,6-6.2v-14.8H449.6z"/>
	<path d="M485,152.3v4.8h-13.9v-4.8c3.2-3.2,6.1-5.5,6.2-10.1c0-3.8-2.2-6.1-6-6.1c-4,0-6.6,2.8-7,6.7V157h-6.6v-26.8h6.6v5
		c1.9-3.6,5.2-5.2,9.6-5.2c6.2,0,9.9,4,9.9,10.3c0,5.6-2.7,9.1-6.2,12H485z"/>
	<path d="M497.2,135.1v10.1c0,3.8,2.2,6,5.8,6c4.2,0,6.8-3.4,6.8-7.7v-3.4h6.6V157h-6.6v-5c-1.8,3.6-5,5.2-9.3,5.2
		c-6,0-9.7-4-9.7-10.3v-27.9h6.5v11.2h20.5v4.8H497.2z"/>
	<path d="M550,140.3V157h-6.6v-14.8c0-3.8-2.2-6.1-6-6.1c-4.1,0-6.6,2.8-7,6.7v24.8h-6.5v-37.3h6.5v5c1.9-3.6,5.3-5.2,9.6-5.2
		C546.2,130,550,134,550,140.3z"/>
	<path d="M584.6,162.8v4.8h-27.1v-37.3h6.6v5c1.9-3.6,5.2-5.2,9.6-5.2c6.2,0,9.9,4,9.9,10.3v16.5H577v-14.6c0-3.8-2.2-6.1-6-6.1
		c-4,0-6.6,2.8-7,6.7v20H584.6z"/>
	<path d="M664.9,140.3V157h-6.5v-14.8c0-3.8-2.2-6.1-6-6.1c-4,0-6.6,2.8-7,6.7v24.8h-6.6V125c-3.4,0.5-6.7,0.1-8.6-0.5
		c-6.5-2.3-9.1,0.8-3.8,5.8c3.4,3.1,4.2,6.7,4.2,11.2v15.6h-6.6v-5c-1.8,3.6-5,5.2-9.3,5.2c-6,0-9.7-4-9.7-10.3v-16.7h6.5V145
		c0,3.8,2.2,6.1,5.8,6c4.2-0.1,6.8-3.4,6.8-7.7v-2.2c0-5-2.6-8.6-6.2-12.7c-3.9-5.3,2.5-12,12.4-9.4c4.1,0.9,10.1,0.9,15.1,0v16.1
		c1.9-3.6,5.2-5.2,9.6-5.2C661.2,130,664.9,134,664.9,140.3z"/>
	<path d="M712.9,130.3V157h-6.5v-4.6c-1.7,3.3-4.5,4.9-8.3,4.9c-4.3,0-7.3-2.4-8.4-6.4c-1.6,4.4-4.8,6.4-9.1,6.4
		c-5.5,0-8.7-4-8.7-10.3v-16.8h6.5v14.9c0,3.8,1.5,6.1,4.7,6.1c3.8-0.1,6-3.4,6-7.7v-13.2h6.5v14.9c0,3.8,1.4,6.1,4.7,6.1
		c3.4-0.1,5.5-2.6,6-6.2v-14.8H712.9z"/>
	<path d="M753.4,162.8v4.8h-13.9v-15.5c-1.9,3.6-5.1,5.2-9.3,5.2c-6,0-9.7-4-9.7-10.3v-16.8h6.5v14.9c0,3.8,2.2,6,5.8,6
		c4.3,0,6.8-3.4,6.8-7.7v-24.3h6.5v43.7H753.4z"/>
	<path d="M781.9,140.3V157h-6.6v-14.8c0-3.8-2.2-6.1-6-6.1c-4,0-6.6,2.8-7,6.7V157h-6.6v-26.8h6.6v5c1.9-3.6,5.2-5.2,9.6-5.2
		C778.1,130,781.9,134,781.9,140.3z"/>
	<path d="M815.5,140.3V157h-6.6v-14.8c0-3.8-2.2-6.1-6-6.1c-4,0-6.6,2.8-7,6.7v24.8h-6.6v-37.3h6.6v5c1.9-3.6,5.2-5.2,9.6-5.2
		C811.7,130,815.5,134,815.5,140.3z"/>
	<path d="M855.4,162.8v4.8h-13.9v-15.5c-1.9,3.6-5.1,5.2-9.3,5.2c-6,0-9.7-4-9.7-10.3v-16.8h6.5v14.9c0,3.8,2.2,6,5.8,6
		c4.3,0,6.8-3.4,6.8-7.7v-24.3h6.5v43.7H855.4z"/>
	<path d="M883.9,140.3V157h-6.6v-14.8c0-3.8-2.2-6.1-6-6.1c-4.1,0-6.6,2.8-7,6.7V157h-6.5v-26.8h6.5v5c1.9-3.6,5.3-5.2,9.6-5.2
		C880.1,130,883.9,134,883.9,140.3z"/>
	<path d="M902.5,152.3v4.8h-13.9v-26.8h6.5v22H902.5z"/>
	<path d="M941.9,123.9h-7.4V157H928v-5c-1.9,3.6-5.1,5.2-9.3,5.2c-6,0-9.7-4-9.7-10.3v-16.8h6.5v14.9c0,3.8,2.2,6.1,5.8,6
		c4.3,0,6.8-3.4,6.8-7.7v-24.3h13.9V123.9z"/>
	<path d="M990.4,152.3v4.8h-13.9v-5c-1.8,3.6-5,5.2-9.3,5.2c-6,0-9.7-4-9.7-10.3v-27.9h6.5v26c0,3.8,2.2,6,5.8,6
		c4.2,0,6.8-3.4,6.8-7.7v-13.2h6.6v22H990.4z"/>
	<path d="M1036.6,130.3V157h-6.5v-5c-1.9,3.6-5.1,5.2-9.3,5.2c-6,0-9.7-4-9.7-10.3v-16.8h6.5v14.9c0,3.8,2.2,6,5.8,6
		c4.3,0,6.8-3.4,6.8-7.7v-13.2H1036.6z"/>
	<path d="M1084.6,140.3V157h-6.5v-14.8c0-3.8-1.4-6.1-4.7-6.1c-2.9,0.1-5,2.1-5.7,4.9v16h-6.5v-4.7c-1.7,3.4-4.6,5-8.4,5
		c-5.5,0-8.7-4-8.7-10.3v-16.8h6.5v14.9c0,3.8,1.5,6.1,4.7,6.1c3.2-0.1,5.3-2.4,5.8-5.8v-15.1h6.5v4.2c1.7-3,4.5-4.4,8.1-4.5
		C1081.3,130,1084.6,134,1084.6,140.3z"/>
	<path d="M1098.2,135.1v10.1c0,3.8,2.2,6,5.8,6c4.3,0,6.8-3.4,6.8-7.7v-3.4h6.5V157h-6.5v-5c-1.9,3.6-5.1,5.2-9.3,5.2
		c-6,0-9.7-4-9.7-10.3v-27.9h6.5v11.2h20.5v4.8H1098.2z"/>
	<path d="M1158.3,162.8v4.8h-13.9v-25.4c0-3.8-2.2-6.1-6-6.1c-4,0-6.6,2.8-7,6.7V157h-6.6v-26.8h6.6v5c1.9-3.6,5.2-5.2,9.6-5.2
		c6.2,0,9.9,4,9.9,10.3v22.5H1158.3z"/>
	<path d="M1189.3,135.1h-5.3c2.3,2.5,4,5.5,3.9,9.4c0,7.1-5.2,12.9-14.5,12.8c-8.1,0-14.2-5.6-14.2-13.6c0-6.2,4.2-12,10.8-13.2
		c-2.4-2-4.3-4.4-4.3-7.6c0-2.9,1.9-4.5,1.9-4.5h6.5c0,0-1.9,1.6-1.9,4c0,3.1,3,5.4,6.4,8l10.8,0V135.1z M1181.2,144.4
		c0.1-4.1-2.4-6.9-5.4-9.3h-2.5c-4.5,0-7.5,4.5-7.7,8.5c0,4.4,2.8,8.1,7.8,8.3C1179.4,151.8,1181.2,147.2,1181.2,144.4z"/>
	<path d="M1219.7,140.3V157h-6.6v-14.8c0-3.8-2.2-6.1-6-6.1c-4,0-6.6,2.8-7,6.7V157h-6.6v-26.8h6.6v5c1.9-3.6,5.2-5.2,9.6-5.2
		C1215.9,130,1219.7,134,1219.7,140.3z"/>
	<path d="M1238.3,152.3v4.8h-13.9v-26.8h6.6v22H1238.3z"/>
	<path d="M1277.7,123.9h-7.4V157h-6.6v-5c-1.8,3.6-5,5.2-9.3,5.2c-6,0-9.7-4-9.7-10.3v-16.8h6.5v14.9c0,3.8,2.2,6.1,5.8,6
		c4.2,0,6.8-3.4,6.8-7.7v-24.3h13.9V123.9z"/>
	<path d="M1299.7,135.1v10.1c0,3.8,2.2,6,5.8,6c4.2,0,6.8-3.4,6.8-7.7v-3.4h6.6V157h-6.6v-5c-1.8,3.6-5,5.2-9.3,5.2
		c-6,0-9.7-4-9.7-10.3v-27.9h6.5v11.2h20.5v4.8H1299.7z"/>
	<path d="M1352.1,130.3V157h-6.5v-5c-1.9,3.6-5.1,5.2-9.3,5.2c-6,0-9.7-4-9.7-10.3v-23.1h-7.4v-4.8h14v26c0,3.8,2.2,6,5.7,6
		c4.3,0,6.8-3.4,6.8-7.7v-13.2H1352.1z"/>
	<path d="M1402.2,157h-20.5v10.6h-6.6v-37.3h6.6v5c1.9-3.6,5.2-5.2,9.6-5.2c6.2,0,9.9,4,9.9,10.3v6.7h-6.6v-4.8c0-3.8-2.2-6.1-6-6.1
		c-4,0-6.6,2.8-7,6.7v9.5h20.5V157z"/>
	<path d="M1448.7,130.3V157h-6.5v-4.6c-1.7,3.3-4.6,4.9-8.3,4.9c-4.3,0-7.2-2.4-8.4-6.4c-1.6,4.4-4.8,6.4-9.1,6.4
		c-5.5,0-8.7-4-8.7-10.3v-16.8h6.5v14.9c0,3.8,1.5,6.1,4.7,6.1c3.8-0.1,6-3.4,6-7.7v-13.2h6.5v14.9c0,3.8,1.4,6.1,4.7,6.1
		c3.3-0.1,5.5-2.6,6-6.2v-14.8H1448.7z"/>
	<path d="M1484.1,152.3v4.8h-13.9v-4.8c3.2-3.2,6.1-5.5,6.2-10.1c0-3.8-2.2-6.1-6-6.1c-4,0-6.6,2.8-7,6.7V157h-6.6v-26.8h6.6v5
		c1.9-3.6,5.2-5.2,9.6-5.2c6.2,0,9.9,4,9.9,10.3c0,5.6-2.7,9.1-6.2,12H1484.1z"/>
	<path d="M1496.3,135.1v10.1c0,3.8,2.2,6,5.8,6c4.3,0,6.8-3.4,6.8-7.7v-3.4h6.6V157h-6.6v-5c-1.9,3.6-5.1,5.2-9.3,5.2
		c-6,0-9.7-4-9.7-10.3v-27.9h6.5v11.2h20.5v4.8H1496.3z"/>
	<path d="M1549.1,140.3V157h-6.5v-14.8c0-3.8-2.2-6.1-6-6.1c-4.1,0-6.6,2.8-7,6.7v24.8h-6.6v-37.3h6.6v5c1.9-3.6,5.2-5.2,9.6-5.2
		C1545.3,130,1549.1,134,1549.1,140.3z"/>
</g>
</svg>
