<?xml version="1.0" encoding="UTF-8" standalone="no"?>
<svg
   xmlns:dc="http://purl.org/dc/elements/1.1/"
   xmlns:cc="http://creativecommons.org/ns#"
   xmlns:rdf="http://www.w3.org/1999/02/22-rdf-syntax-ns#"
   xmlns:svg="http://www.w3.org/2000/svg"
   xmlns="http://www.w3.org/2000/svg"
   version="1.1"
   width="601"
   height="601"
   id="svg3775">
  <defs
     id="defs18" />
  <metadata
     id="metadata3780">
    <rdf:RDF>
      <cc:Work
         rdf:about="">
        <dc:format>image/svg+xml</dc:format>
        <dc:type
           rdf:resource="http://purl.org/dc/dcmitype/StillImage" />
        <dc:title />
      </cc:Work>
    </rdf:RDF>
  </metadata>
  <g
     stroke="#000"
     transform="translate(-212.56 -134)"
     id="layer1">
    <path
       fill="#fff"
       d="m513.05 134.5c-165.69 0-300 134.31-300 300s134.31 300 300 300 300-134.31 300-300-134.31-300-300-300zm0 65.755c4.4577 0 8.0729 3.6152 8.0729 8.0729s-3.6153 8.0729-8.0729 8.0729c-4.4577 0-8.0729-3.6152-8.0729-8.0729s3.6153-8.0729 8.0729-8.0729zm0 454.69c4.4577 0 8.0729 3.6152 8.0729 8.0729s-3.6153 8.0729-8.0729 8.0729c-4.4577 0-8.0729-3.6152-8.0729-8.0729s3.6153-8.0729 8.0729-8.0729z"
       id="path3783" />
    <path
       d="m513.05 146.22c-159.21 0-288.28 129.07-288.28 288.28s129.07 288.28 288.28 288.28 288.28-129.07 288.28-288.28-129.07-288.28-288.28-288.28zm0 16.406c116.32 0 215.58 73.056 254.4 175.78h-508.8c38.82-102.73 138.08-175.79 254.4-175.79zm-260 192.19h520c7.715 25.203 11.875 51.958 11.875 79.688 0 150.15-121.72 271.88-271.88 271.88-150.15 0-271.88-121.72-271.88-271.88 0-27.729 4.16-54.485 11.875-79.688z"
       id="path4293" />
    <g
       aria-label="361"
       id="routenum">
      <path
         d="m376.15 397h56.25q15.112 0 23.507 17.071 1.6791 4.1978 1.6791 8.3955v42.537q0 10.634-7.556 19.03v0.5597q7.556 7.2761 7.556 18.75v55.69q0 15.952-17.91 24.347-3.3582 1.1194-7.2761 1.1194h-56.25q-14.832 0-23.228-16.791-1.6791-3.9179-1.6791-8.1157v-26.87q0-0.83955 0.83955-0.83955h28.825q0.83955 0.27985 0.83955 0.83955v16.231q0 5.0373 5.0373 5.0373h35.821q4.4776-0.5597 4.4776-4.4776v-45.056q0-5.0373-4.1978-5.0373h-34.981q-0.83956 0-0.83956-0.83956v-29.104q0-0.83955 0.83956-0.83955h34.981q3.6381 0 4.1978-5.0373v-30.784q0-5.3172-5.0373-5.3172h-35.261q-5.0373 0-5.0373 5.0373v16.231q0 0.83956-0.83955 0.83956h-28.825q-0.83955 0-0.83955-0.83956v-26.866q0-14.832 16.791-23.228 3.9179-1.6791 8.1157-1.6791z"
         id="path17" />
      <path
         d="m519.9 397h56.25q15.112 0 23.507 17.071 1.6791 4.1978 1.6791 8.3955v26.306q0 0.83956-0.83955 0.83956h-28.825q-0.83955 0-0.83955-0.83956v-15.951q0-5.3172-5.0373-5.3172h-35.261q-5.0373 0-5.0373 5.0373v36.101h44.216q19.31 0 25.746 10.075 5.8769 6.4366 5.8769 16.511v63.806q0 16.791-19.31 24.627-3.0784 0.83955-5.8769 0.83955h-56.25q-14.832 0-23.228-16.791-1.6791-3.9179-1.6791-8.1157v-137.7q0-14.832 16.791-23.228 3.9179-1.6791 8.1157-1.6791zm5.597 106.62v45.336q0 5.0373 5.0373 5.0373h35.821q4.4776 0 4.4776-5.3172v-44.216q-0.27985-5.0373-4.1978-5.0373h-36.94q-4.1978 0.5597-4.1978 4.1978z"
         id="path19" />
      <path
         d="m649.66 397h28.825q0.83956 0 0.83956 0.83955v185.82q0 0.83955-0.83956 0.83955h-28.82q-0.83955 0-0.83955-0.83955v-149.16h-17.91q-0.83955 0-0.83955-0.83956v-17.071q0-0.83955 7.8358-2.5187 10.914-6.4366 10.914-16.791z"
         id="path21" />
    </g>
    <g
       transform="matrix(.41667 0 0 .41667 124.28 428.46)"
       id="text4305">
      <path
         d="m640.37-435.5h29.821c0.71636 0.00018 1.0746 0.26884 1.0746 0.80597v178.39c-0.00006 0.53731-0.35827 0.80597-1.0746 0.80597h-29.821c-0.53734 0-0.806-0.26866-0.80597-0.80597v-178.39c0.17908-0.53713 0.44773-0.80579 0.80597-0.80597"
         id="path4310" />
      <path
         d="m756.87-435.5h69.313c12.537 0.00018 21.224 6.7166 26.06 20.149 0.53717 2.3285 0.80583 4.5673 0.80597 6.7164v125.73c-0.00014 13.433-7.1643 22.388-21.493 26.866-1.7912 0.35821-3.3136 0.53732-4.5672 0.53732h-70.119c-10.567 0-18.716-6.0896-24.448-18.269-0.71644-3.0448-1.0746-5.4627-1.0746-7.2537v-128.96c-0.00002-10.567 6.0895-18.716 18.269-24.448 3.0447-0.71624 5.4626-1.0744 7.2537-1.0746m6.1791 36.269v107.19c0.17905 3.2239 1.6119 4.8359 4.2985 4.8358h49.701c3.0447 0.00004 4.567-1.7014 4.5672-5.1045v-106.66c-0.00011-3.4028-1.5225-5.1043-4.5672-5.1045h-49.164c-3.2239 0.00015-4.8359 1.6121-4.8358 4.8358"
         id="path4312" />
      <path
         d="m900.21-435.5h30.358c0.89549 0.00018 2.1492 7.3435 3.7612 22.03 0.35817 2.1494 3.7612 25.075 10.209 68.776h0.53732c0.89547-4.2984 8.0596-34.567 21.493-90.806h16.925c0.71632 0.00018 3.4029 10.567 8.0597 31.701 9.4924 37.791 14.239 57.493 14.239 59.104h0.806v-0.53731c8.2386-59.283 12.627-89.373 13.164-90.269h30.358c0.5372 0.17929 0.8059 0.44794 0.806 0.80597l-25.791 178.66-1.0747 0.53732h-26.328c-0.53741 0-3.3135-11.194-8.3284-33.582l-14.239-58.836c-12.716 53.91-20.06 84.716-22.03 92.418h-26.866c-1.0747 0-2.6866-9.7612-4.8358-29.284-0.89555-3.7612-8.2388-53.821-22.03-150.18l0.80597-0.53732"
         id="path4314" />
      <path
         d="m1168.8-435.5c1.0745 0.00018 12.268 33.672 33.582 101.01 16.119 50.507 24.179 76.478 24.179 77.91l-1.8806 1.0746h-29.821c0.179 0-3.4031-11.194-10.746-33.582h-58.836c-7.5224 22.209-11.284 33.403-11.284 33.582h-30.09c-1.2538 0-1.8806-0.62687-1.8806-1.8806 34.03-107.28 53.284-166.66 57.761-178.12h29.015m-33.851 114.45h38.687c-12.179-38.866-18.269-59.104-18.269-60.716-1.2539 0.00013-8.0598 20.239-20.418 60.716"
         id="path4316" />
    </g>
  </g>
</svg>
