<?xml version="1.0" encoding="UTF-8" standalone="no"?>
<svg
   xmlns:dc="http://purl.org/dc/elements/1.1/"
   xmlns:cc="http://creativecommons.org/ns#"
   xmlns:rdf="http://www.w3.org/1999/02/22-rdf-syntax-ns#"
   xmlns:svg="http://www.w3.org/2000/svg"
   xmlns="http://www.w3.org/2000/svg"
   xmlns:sodipodi="http://sodipodi.sourceforge.net/DTD/sodipodi-0.dtd"
   xmlns:inkscape="http://www.inkscape.org/namespaces/inkscape"
   width="225.77777mm"
   height="112.88889mm"
   viewBox="0 0 799.99998 399.99998"
   id="svg2"
   version="1.1"
   inkscape:version="0.91 r13725"
   sodipodi:docname="ISL 585.svg">
  <sodipodi:namedview
     pagecolor="#ffffff"
     bordercolor="#666666"
     borderopacity="1"
     objecttolerance="10"
     gridtolerance="10"
     guidetolerance="10"
     inkscape:pageopacity="0"
     inkscape:pageshadow="2"
     inkscape:window-width="1680"
     inkscape:window-height="987"
     id="namedview4145"
     showgrid="false"
     inkscape:zoom="0.76750002"
     inkscape:cx="399.99999"
     inkscape:cy="200.00001"
     inkscape:window-x="-4"
     inkscape:window-y="-4"
     inkscape:window-maximized="1"
     inkscape:current-layer="svg2" />
  <defs
     id="defs4" />
  <metadata
     id="metadata7">
    <rdf:RDF>
      <cc:Work
         rdf:about="">
        <dc:format>image/svg+xml</dc:format>
        <dc:type
           rdf:resource="http://purl.org/dc/dcmitype/StillImage" />
        <dc:title></dc:title>
      </cc:Work>
    </rdf:RDF>
  </metadata>
  <rect
     id="rect3006"
     style="color:#000000;display:inline;overflow:visible;visibility:visible;fill:#000000;fill-opacity:1;fill-rule:nonzero;stroke:none;stroke-width:9.9989996;marker-start:none;marker-mid:none;marker-end:none;enable-background:accumulate"
     x="-1.1113281e-005"
     y="-2.2851564e-006"
     width="800"
     height="400"
     rx="50"
     ry="50" />
  <rect
     id="rect3008"
     style="color:#000000;display:inline;overflow:visible;visibility:visible;fill:#ffffff;fill-opacity:1;fill-rule:nonzero;stroke:none;stroke-width:9.9989996;marker-start:none;marker-mid:none;marker-end:none;enable-background:accumulate"
     x="24.999989"
     y="24.999998"
     width="750"
     height="350"
     rx="25"
     ry="25" />
  <g
     transform="scale(0.98539836,1.014818)"
     style="font-style:normal;font-variant:normal;font-weight:normal;font-stretch:normal;font-size:306.82791138px;line-height:100%;font-family:'Transport Heavy';-inkscape-font-specification:'Transport Heavy,';text-align:center;letter-spacing:0px;word-spacing:0px;writing-mode:lr-tb;text-anchor:middle;fill:#000000;fill-opacity:1;stroke:none;stroke-width:10;stroke-linecap:butt;stroke-linejoin:miter;stroke-miterlimit:4;stroke-dasharray:none;stroke-opacity:1"
     id="text4207">
    <path
       d="m 131.62419,84.067764 4.19491,0 10.18765,0 4.79418,0 4.19492,0 1.79782,0 1.79782,0 11.98546,0 4.79419,0 4.79418,0 1.79782,0 1.79782,0 18.57747,0 4.19492,0 3.59564,0 4.19491,0 3.59564,0 2.99636,0 3.59564,0 2.3971,0 10.78692,0 6.592,0 2.3971,0 2.39709,0 2.39709,0 2.39709,0 10.18765,0 1.79782,0 7.19128,0 0,43.147676 -2.39709,0 -10.78692,0 -4.19492,0 -11.98546,0 -2.99637,0 -3.59564,0 -2.99636,0 -2.3971,0 -1.79782,0 -11.98546,0 -2.39709,0 -1.79782,0 -10.78692,0 -7.79056,0 -2.39709,0 -10.18764,0 -1.79782,0 -7.19128,0 -2.3971,1.79782 -0.59927,8.38982 -0.59927,1.79782 -0.59928,3.59564 -0.59927,4.19492 -1.79782,13.18401 q 34.3084,-20.82475 68.31715,-7.79055 32.06112,14.23274 43.74695,43.74694 20.82475,109.66701 -70.11497,122.25175 -77.00661,4.64437 -95.28445,-62.92369 L 126.83,251.265 l 1.79782,0 q 2.3971,-1.49818 4.79419,-1.79782 l 2.39709,-0.59927 2.39709,-0.59927 1.19855,-0.59928 4.79419,-1.19854 4.79418,-1.19855 q 5.39346,-2.69673 10.18765,-2.99636 1.94764,12.73455 9.58837,20.97456 22.47275,21.42402 47.34259,6.59201 25.76875,-20.3753 17.37892,-51.53751 -9.28873,-23.22183 -31.76148,-26.96729 -26.9673,-1.648 -39.55203,19.77602 l -2.99637,-0.59928 -2.39709,0 q -6.74183,-1.648 -11.3862,-1.79782 l -8.38982,-1.79782 -1.79782,0 q -2.84655,-0.59927 -4.79419,-0.59927 l -1.19854,-0.59927 -2.3971,0 -1.79782,-0.59928 -1.79782,0 -4.19491,-1.19854 -5.39346,-0.59928 0,-1.79782 0.59927,-2.39709 0,-1.79782 1.19855,-4.19491 0.59927,-5.39346 0.59928,-4.79419 0.59927,-2.39709 1.19855,-10.18765 q 0.59927,-2.84654 0.59927,-4.79418 l 0.59927,-4.19492 0.59928,-1.19854 q 0.29963,-6.29237 1.79782,-10.78692 l 0,-3.59564 q 1.19854,-4.79419 1.19854,-8.38983 l 0.59928,-1.19854 0.59927,-4.19492 0,-1.79781 q 0.59927,-2.84655 0.59927,-4.79419 l 0.59928,-3.59564 0.59927,-2.39709 0,-1.79782 q 0.89891,-2.3971 0.59927,-4.79419 l 0.59928,-2.99637 0.59927,-1.79782 0,-2.39709 0.59927,-1.79782 1.19855,-10.187644 q 0.59927,-2.846548 0.59927,-4.794186 l 0.59928,-4.194913 0.59927,-0.599273 -0.59927,0.599273 0.59927,-0.599273 z"
       style="text-align:center;text-anchor:middle;stroke:#ffffff;stroke-width:9.99999905;stroke-miterlimit:4;stroke-dasharray:none;stroke-opacity:1"
       id="path4738" />
    <path
       d="m 409.68698,80.472124 q 63.97242,-2.69673 85.69607,47.342586 14.53238,45.24513 -22.77238,66.51933 31.16221,16.77966 30.56294,49.14041 1.04873,35.20731 -23.37166,55.73242 -43.44731,29.36439 -92.88736,14.98183 -48.84077,-12.58474 -55.13314,-59.32806 -4.34473,-43.59713 30.56294,-59.32805 -35.65676,-23.82111 -24.5702,-62.32442 16.92947,-48.690951 71.91279,-52.736046 z m 2.99636,43.147676 q -18.12801,2.54691 -26.96729,16.18038 -6.74183,34.60803 28.16584,37.15494 36.55567,2.09746 37.15494,-31.16221 -10.03782,-25.16948 -38.35349,-22.17311 z m -1.19854,93.48663 q -32.51058,3.44582 -31.76149,32.36075 5.24365,26.06839 32.36076,25.76876 45.54477,4.04509 43.14768,-36.55567 -10.48729,-24.42039 -43.74695,-21.57384 z"
       style="text-align:center;text-anchor:middle;stroke:#ffffff;stroke-width:9.99999905;stroke-miterlimit:4;stroke-dasharray:none;stroke-opacity:1"
       id="path4740" />
    <path
       d="m 566.69658,84.067764 4.19491,0 10.18764,0 4.79419,0 4.19491,0 1.79782,0 1.79782,0 11.98547,0 4.79418,0 4.79419,0 1.79782,0 1.79782,0 18.57747,0 4.19491,0 3.59564,0 4.19492,0 3.59564,0 2.99636,0 3.59564,0 2.3971,0 10.78691,0 6.59201,0 2.39709,0 2.3971,0 2.39709,0 2.39709,0 10.18765,0 1.79782,0 7.19128,0 0,43.147676 -2.3971,0 -10.78692,0 -4.19491,0 -11.98546,0 -2.99637,0 -3.59564,0 -2.99637,0 -2.39709,0 -1.79782,0 -11.98546,0 -2.3971,0 -1.79782,0 -10.78692,0 -7.79055,0 -2.39709,0 -10.18765,0 -1.79782,0 -7.19128,0 -2.39709,1.79782 -0.59927,8.38982 -0.59927,1.79782 -0.59928,3.59564 -0.59927,4.19492 -1.79782,13.18401 q 34.30839,-20.82475 68.31715,-7.79055 32.06112,14.23274 43.74695,43.74694 20.82475,109.66701 -70.11497,122.25175 -77.00662,4.64437 -95.28445,-62.92369 l 13.18401,-4.19492 1.79782,0 q 2.39709,-1.49818 4.79419,-1.79782 l 2.39709,-0.59927 2.39709,-0.59927 1.19855,-0.59928 4.79418,-1.19854 4.79419,-1.19855 q 5.39346,-2.69673 10.18765,-2.99636 1.94763,12.73455 9.58837,20.97456 22.47275,21.42402 47.34259,6.59201 25.76875,-20.3753 17.37892,-51.53751 -9.28873,-23.22183 -31.76148,-26.96729 -26.9673,-1.648 -39.55204,19.77602 l -2.99636,-0.59928 -2.3971,0 q -6.74182,-1.648 -11.38619,-1.79782 l -8.38982,-1.79782 -1.79782,0 q -2.84655,-0.59927 -4.79419,-0.59927 l -1.19855,-0.59927 -2.39709,0 -1.79782,-0.59928 -1.79782,0 -4.19491,-1.19854 -5.39346,-0.59928 0,-1.79782 0.59927,-2.39709 0,-1.79782 1.19855,-4.19491 0.59927,-5.39346 0.59927,-4.79419 0.59928,-2.39709 1.19854,-10.18765 q 0.59928,-2.84654 0.59928,-4.79418 l 0.59927,-4.19492 0.59927,-1.19854 q 0.29964,-6.29237 1.79782,-10.78692 l 0,-3.59564 q 1.19855,-4.79419 1.19855,-8.38983 l 0.59927,-1.19854 0.59928,-4.19492 0,-1.79781 q 0.59927,-2.84655 0.59927,-4.79419 l 0.59927,-3.59564 0.59928,-2.39709 0,-1.79782 q 0.89891,-2.3971 0.59927,-4.79419 l 0.59927,-2.99637 0.59928,-1.79782 0,-2.39709 0.59927,-1.79782 1.19855,-10.187644 q 0.59927,-2.846548 0.59927,-4.794186 l 0.59927,-4.194913 0.59928,-0.599273 -0.59928,0.599273 0.59928,-0.599273 z"
       style="text-align:center;text-anchor:middle;stroke:#ffffff;stroke-width:9.99999905;stroke-miterlimit:4;stroke-dasharray:none;stroke-opacity:1"
       id="path4742" />
  </g>
</svg>
