<?xml version="1.0" encoding="UTF-8" standalone="no"?>
<!-- Created with Inkscape (http://www.inkscape.org/) -->

<svg
   width="53.710415mm"
   height="53.710415mm"
   viewBox="0 0 53.710415 53.710415"
   version="1.1"
   id="svg1"
   inkscape:version="1.4 (86a8ad7, 2024-10-11)"
   sodipodi:docname="ISO_7000_-_Ref-No_3743.svg"
   xmlns:inkscape="http://www.inkscape.org/namespaces/inkscape"
   xmlns:sodipodi="http://sodipodi.sourceforge.net/DTD/sodipodi-0.dtd"
   xmlns="http://www.w3.org/2000/svg"
   xmlns:svg="http://www.w3.org/2000/svg">
  <sodipodi:namedview
     id="namedview1"
     pagecolor="#ffffff"
     bordercolor="#000000"
     borderopacity="0.25"
     inkscape:showpageshadow="2"
     inkscape:pageopacity="0.0"
     inkscape:pagecheckerboard="0"
     inkscape:deskcolor="#d1d1d1"
     inkscape:document-units="mm"
     inkscape:zoom="0.71891835"
     inkscape:cx="171.09036"
     inkscape:cy="228.81597"
     inkscape:window-width="1920"
     inkscape:window-height="1009"
     inkscape:window-x="1912"
     inkscape:window-y="-8"
     inkscape:window-maximized="1"
     inkscape:current-layer="layer1" />
  <defs
     id="defs1" />
  <g
     inkscape:label="Ebene 1"
     inkscape:groupmode="layer"
     id="layer1"
     transform="translate(-59.53125,-87.841668)">
    <g
       id="layer1-2"
       transform="matrix(1,0,0,-1,-24.341667,214.3125)"
       inkscape:label="1">
      <g
         fill="none"
         stroke="#999999"
         stroke-width="3"
         id="g6"
         transform="matrix(0.26458333,0,0,0.26458333,84.269792,73.157291)"
         inkscape:label="1">
        <path
           d="M 0,16 V 0 h 16"
           id="path3"
           inkscape:label="1" />
        <path
           d="M 200,16 V 0 h -16"
           id="path4"
           inkscape:label="1" />
        <path
           d="m 0,184 v 16 h 16"
           id="path5"
           inkscape:label="1" />
        <path
           d="m 200,184 v 16 h -16"
           id="path6"
           inkscape:label="1" />
      </g>
    </g>
    <path
       id="path1-2"
       d="m 88.711401,89.178967 c -0.65963,0.013 -8.29462,0.0634 -11.43341,7.41247 -0.7768,1.81882 -0.92759,3.554883 -1.05833,5.374863 v 0.008 0.0103 c -0.15972,3.66105 0.19595,7.45817 -1.88516,10.37869 l -0.01,0.014 -0.01,0.0155 c -0.41857,0.66498 -1.18674,1.36775 -1.90841,2.00556 -0.36084,0.3189 -0.70924,0.62248 -1.00408,0.92604 -0.29484,0.30357 -0.55133,0.59186 -0.68316,1.00201 -0.31231,0.97164 0.0598,1.88514 0.63665,2.44326 0.57686,0.55813 1.3171,0.87078 1.95906,1.03146 1.42228,0.35601 3.67881,0.24663 5.21467,-0.69143 0.36272,-0.22154 0.66366,-0.46157 0.9219,-0.72243 0.0174,0.0452 0.033,0.0907 0.0532,0.13539 l 3.09335,6.82852 c 0.41218,0.90982 1.31357,1.46649 2.24483,1.45883 -0.17221,0.15427 -0.29897,0.26621 -0.52452,0.47335 l 0.007,0.008 c -1.68603,1.32623 -2.77245,3.38289 -2.77245,5.68854 0,3.98884 3.24742,7.23625 7.23626,7.23625 3.98884,0 7.23625,-3.24741 7.23625,-7.23625 0,-0.71259 -0.10467,-1.4011 -0.29766,-2.05207 -0.48465,-2.15862 -0.62199,-3.87334 -0.046,-6.32572 0.64328,-2.7389 4.597249,-16.62358 5.712829,-20.25199 l 0.002,-0.006 c 0.65492,-2.07361 1.32368,-4.33407 0.0465,-7.511693 l -0.004,-0.0114 -0.004,-0.0103 c -1.623489,-3.64759 -6.645609,-7.7506 -12.724799,-7.63054 z m 0.0253,1.26607 c 5.47286,-0.10808 10.16769,3.81105 11.535209,6.86728 1.14428,2.855473 0.57171,4.586273 -0.0822,6.656453 l -0.002,0.002 v 0.002 c -1.133499,3.68608 -5.047989,17.41014 -5.736089,20.33985 -0.18713,0.79676 -0.29795,1.53228 -0.35502,2.23707 l -6.30194,-1.757 c 0.0563,-0.14712 0.11098,-0.28786 0.17209,-0.45837 l 0.002,-0.006 c 1.32795,-3.6122 4.64384,-14.92036 5.641,-20.97805 0.26029,-1.58122 0.10974,-2.82297 -0.37517,-3.755843 -0.48491,-0.93287 -1.31044,-1.50888 -2.19935,-1.74615 -1.77782,-0.47454 -3.80795,0.19697 -5.03897,1.44126 -0.66177,0.66891 -1.18701,1.754243 -1.74201,3.107303 -0.555,1.35305 -1.10026,2.96167 -1.62109,4.58577 -1.04166,3.24822 -2.01486,6.61428 -2.59571,7.83415 -0.45693,0.95963 -0.74025,1.62659 -1.02939,2.09754 -0.28914,0.47096 -0.5641,0.76534 -1.13688,1.11518 -1.02831,0.62806 -3.27677,0.78876 -4.24987,0.54519 -0.46827,-0.11721 -1.0447,-0.38552 -1.38493,-0.71469 -0.34022,-0.32918 -0.48651,-0.61059 -0.31419,-1.1467 0.0135,-0.042 0.1481,-0.25829 0.3886,-0.50591 0.2405,-0.24762 0.57103,-0.5413 0.93328,-0.86145 0.7216,-0.63774 1.56815,-1.37627 2.1332,-2.26911 2.39715,-3.38361 1.95179,-7.51875 2.1053,-11.03757 0.12945,-1.79888 0.27363,-3.350943 0.95705,-4.951123 2.85417,-6.68271 9.4728,-6.62621 10.29705,-6.64249 z m 0.98857,8.53798 c 0.3461,-0.02 0.68115,0.007 0.98391,0.0873 0.60553,0.16163 1.08195,0.49073 1.4025,1.107423 0.32056,0.61668 0.4804,1.56782 0.25012,2.96675 -0.93144,5.65847 -4.07102,16.45848 -5.42655,20.2985 -0.007,-0.0161 -0.0119,-0.0326 -0.0191,-0.0486 l -3.09335,-6.828 c -0.4565,-1.00767 -1.51399,-1.57939 -2.54713,-1.43351 0.70302,-1.58717 1.57309,-4.68458 2.56057,-7.76387 0.5164,-1.61029 1.05625,-3.19579 1.58802,-4.49223 0.53178,-1.29643 1.09379,-2.31495 1.47226,-2.69751 0.65359,-0.660643 1.79044,-1.136203 2.82877,-1.196313 z m -8.12406,17.386023 c 0.43256,-0.006 0.85721,0.25308 1.06867,0.71985 l 3.09335,6.82801 c 0.28195,0.62235 0.0367,1.28715 -0.51676,1.53789 -0.55348,0.25075 -1.21512,-0.003 -1.49707,-0.6258 l -3.09335,-6.82801 c -0.28195,-0.62236 -0.0357,-1.28507 0.5178,-1.53582 0.13837,-0.0627 0.28318,-0.0942 0.42736,-0.0961 z m 3.221,7.2471 c -0.35766,0 -0.65526,0.2976 -0.65526,0.65526 0,0.35768 0.2976,0.65681 0.65526,0.65681 0.35768,0 0.65525,-0.29913 0.65525,-0.65681 0,-0.35766 -0.29757,-0.65526 -0.65525,-0.65526 z m 3.9672,3.39256 c 2.69772,0 4.96896,1.77616 5.71282,4.2261 0.0558,0.2503 0.11212,0.50082 0.1757,0.75913 h 5.2e-4 c 0.0529,0.32061 0.0816,0.64951 0.0816,0.98547 0,3.30518 -2.6655,5.97069 -5.97069,5.97069 -3.30518,0 -5.9707,-2.66551 -5.9707,-5.97069 0,-3.30518 2.66552,-5.9707 5.9707,-5.9707 z m 0,2.23242 c -2.05754,0 -3.74034,1.68074 -3.74034,3.73828 0,2.05754 1.6828,3.73827 3.74034,3.73827 2.05754,0 3.73827,-1.68073 3.73827,-3.73827 0,-2.05754 -1.68073,-3.73828 -3.73827,-3.73828 z m 0,1.26349 c 1.37389,0 2.47478,1.10091 2.47478,2.47479 0,1.37388 -1.10089,2.47427 -2.47478,2.47427 -1.37388,0 -2.47479,-1.10039 -2.47479,-2.47427 0,-1.37388 1.10091,-2.47479 2.47479,-2.47479 z"
       sodipodi:nodetypes="csccccccssssssccccccssscscccccccsccccsccccsssssssssssssscccsssssccccssssscsssssssssssscccssssssssssssss"
       inkscape:label="1" />
  </g>
</svg>
