<?xml version="1.0" encoding="UTF-8" standalone="no"?>
<svg xmlns="http://www.w3.org/2000/svg" version="1.0" width="1000.0" height="1000.0" id="c:\tom\isotoxal_16-gon_rhombic_dissection-size2.svg">
<!-- X Coordinate transform: fx(x)=(x+5.30058)*94.3293-->
<!-- Y Coordinate transform: fy(y)=(5.30058-y)*94.3293 -->
<!-- Dissect 2m-gon into rhombi -->
<g style="opacity:1.0;fill:#5a5aff;fill-opacity:1;stroke:#000000;stroke-width:2.0;stroke-opacity:1.00;"> <!-- group Area0.258819 -->
<polygon points=" 500,500 557.424,425.164 632.26,367.74 574.836,442.576" />
<polygon points=" 500,500 487.688,406.478 500,312.955 512.312,406.478" />
<polygon points=" 500,500 425.164,442.576 367.74,367.74 442.576,425.164" />
<polygon points=" 500,500 406.478,512.312 312.955,500 406.478,487.688" />
<polygon points=" 500,500 442.576,574.836 367.74,632.26 425.164,557.424" />
<polygon points=" 500,500 512.312,593.522 500,687.045 487.688,593.522" />
<polygon points=" 500,500 574.836,557.424 632.26,632.26 557.424,574.836" />
<polygon points=" 406.478,36.122 500,23.81 593.522,36.122 500,48.434" />
<polygon points=" 105.858,238.119 163.282,163.282 238.119,105.858 180.695,180.695" />
<polygon points=" 36.122,593.522 23.81,500 36.122,406.478 48.434,500" />
<polygon points=" 238.119,894.141 163.282,836.718 105.858,761.881 180.695,819.305" />
<polygon points=" 593.522,963.878 500,976.19 406.478,963.878 500,951.566" />
<polygon points=" 894.141,761.881 836.718,836.718 761.881,894.141 819.305,819.305" />
<polygon points=" 963.878,406.478 976.19,500 963.878,593.522 951.566,500" />
<polygon points=" 761.881,105.858 836.718,163.282 894.141,238.119 819.305,180.695" />
<polygon points=" 500,500 593.522,487.688 687.045,500 593.522,512.312" />
</g>
<g style="opacity:1.0;fill:#5abf5a;fill-opacity:1;stroke:#000000;stroke-width:2.0;stroke-opacity:1.00;"> <!-- group Area0.5 -->
<polygon points=" 500,500 574.836,442.576 668.359,430.264 593.522,487.688" />
<polygon points=" 500,500 512.312,406.478 569.736,331.641 557.424,425.164" />
<polygon points=" 500,500 442.576,425.164 430.264,331.641 487.688,406.478" />
<polygon points=" 500,500 406.478,487.688 331.641,430.264 425.164,442.576" />
<polygon points=" 500,500 425.164,557.424 331.641,569.736 406.478,512.312" />
<polygon points=" 500,500 487.688,593.522 430.264,668.359 442.576,574.836" />
<polygon points=" 500,500 557.424,574.836 569.736,668.359 512.312,593.522" />
<polygon points=" 500,500 593.522,512.312 668.359,569.736 574.836,557.424" />
<polygon points=" 761.881,105.858 668.359,93.546 593.522,36.122 687.045,48.434" />
<polygon points=" 238.119,105.858 312.955,48.434 406.478,36.122 331.641,93.546" />
<polygon points=" 36.122,406.478 48.434,312.955 105.858,238.119 93.546,331.641" />
<polygon points=" 105.858,761.881 48.434,687.045 36.122,593.522 93.546,668.359" />
<polygon points=" 406.478,963.878 312.955,951.566 238.119,894.141 331.641,906.454" />
<polygon points=" 761.881,894.141 687.045,951.566 593.522,963.878 668.359,906.454" />
<polygon points=" 963.878,593.522 951.566,687.045 894.141,761.881 906.454,668.359" />
<polygon points=" 894.141,238.119 951.566,312.955 963.878,406.478 906.454,331.641" />
</g>
<g style="opacity:1.0;fill:#5abfbf;fill-opacity:1;stroke:#000000;stroke-width:2.0;stroke-opacity:1.00;"> <!-- group Area0.70710677 -->
<polygon points=" 593.522,487.688 668.359,430.264 761.881,442.576 687.045,500" />
<polygon points=" 574.836,442.576 632.26,367.74 725.783,355.427 668.359,430.264" />
<polygon points=" 557.424,425.164 569.736,331.641 644.573,274.217 632.26,367.74" />
<polygon points=" 512.312,406.478 500,312.955 557.424,238.119 569.736,331.641" />
<polygon points=" 487.688,406.478 430.264,331.641 442.576,238.119 500,312.955" />
<polygon points=" 442.576,425.164 367.74,367.74 355.427,274.217 430.264,331.641" />
<polygon points=" 425.164,442.576 331.641,430.264 274.217,355.427 367.74,367.74" />
<polygon points=" 406.478,487.688 312.955,500 238.119,442.576 331.641,430.264" />
<polygon points=" 406.478,512.312 331.641,569.736 238.119,557.424 312.955,500" />
<polygon points=" 425.164,557.424 367.74,632.26 274.217,644.573 331.641,569.736" />
<polygon points=" 442.576,574.836 430.264,668.359 355.427,725.783 367.74,632.26" />
<polygon points=" 487.688,593.522 500,687.045 442.576,761.881 430.264,668.359" />
<polygon points=" 512.312,593.522 569.736,668.359 557.424,761.881 500,687.045" />
<polygon points=" 557.424,574.836 632.26,632.26 644.573,725.783 569.736,668.359" />
<polygon points=" 574.836,557.424 668.359,569.736 725.783,644.573 632.26,632.26" />
<polygon points=" 593.522,512.312 687.045,500 761.881,557.424 668.359,569.736" />
<polygon points=" 761.881,105.858 819.305,180.695 725.783,168.382 668.359,93.546" />
<polygon points=" 593.522,36.122 668.359,93.546 574.836,105.858 500,48.434" />
<polygon points=" 406.478,36.122 500,48.434 425.164,105.858 331.641,93.546" />
<polygon points=" 238.119,105.858 331.641,93.546 274.217,168.382 180.695,180.695" />
<polygon points=" 105.858,238.119 180.695,180.695 168.382,274.217 93.546,331.641" />
<polygon points=" 36.122,406.478 93.546,331.641 105.858,425.164 48.434,500" />
<polygon points=" 36.122,593.522 48.434,500 105.858,574.836 93.546,668.359" />
<polygon points=" 105.858,761.881 93.546,668.359 168.382,725.783 180.695,819.305" />
<polygon points=" 238.119,894.141 180.695,819.305 274.217,831.618 331.641,906.454" />
<polygon points=" 406.478,963.878 331.641,906.454 425.164,894.141 500,951.566" />
<polygon points=" 593.522,963.878 500,951.566 574.836,894.141 668.359,906.454" />
<polygon points=" 761.881,894.141 668.359,906.454 725.783,831.618 819.305,819.305" />
<polygon points=" 894.141,761.881 819.305,819.305 831.618,725.783 906.454,668.359" />
<polygon points=" 963.878,593.522 906.454,668.359 894.141,574.836 951.566,500" />
<polygon points=" 963.878,406.478 951.566,500 894.141,425.164 906.454,331.641" />
<polygon points=" 894.141,238.119 906.454,331.641 831.618,274.217 819.305,180.695" />
</g>
<g style="opacity:1.0;fill:#bf5a5a;fill-opacity:1;stroke:#000000;stroke-width:2.0;stroke-opacity:1.00;"> <!-- group Area0.8660253 -->
<polygon points=" 668.359,430.264 725.783,355.427 819.305,367.74 761.881,442.576" />
<polygon points=" 569.736,331.641 557.424,238.119 632.26,180.695 644.573,274.217" />
<polygon points=" 430.264,331.641 355.427,274.217 367.74,180.695 442.576,238.119" />
<polygon points=" 331.641,430.264 238.119,442.576 180.695,367.74 274.217,355.427" />
<polygon points=" 331.641,569.736 274.217,644.573 180.695,632.26 238.119,557.424" />
<polygon points=" 430.264,668.359 442.576,761.881 367.74,819.305 355.427,725.783" />
<polygon points=" 569.736,668.359 644.573,725.783 632.26,819.305 557.424,761.881" />
<polygon points=" 668.359,569.736 761.881,557.424 819.305,632.26 725.783,644.573" />
<polygon points=" 668.359,93.546 725.783,168.382 632.26,180.695 574.836,105.858" />
<polygon points=" 331.641,93.546 425.164,105.858 367.74,180.695 274.217,168.382" />
<polygon points=" 93.546,331.641 168.382,274.217 180.695,367.74 105.858,425.164" />
<polygon points=" 93.546,668.359 105.858,574.836 180.695,632.26 168.382,725.783" />
<polygon points=" 331.641,906.454 274.217,831.618 367.74,819.305 425.164,894.141" />
<polygon points=" 668.359,906.454 574.836,894.141 632.26,819.305 725.783,831.618" />
<polygon points=" 906.454,668.359 831.618,725.783 819.305,632.26 894.141,574.836" />
<polygon points=" 906.454,331.641 894.141,425.164 819.305,367.74 831.618,274.217" />
</g>
<g style="opacity:1.0;fill:#af5aaf;fill-opacity:1;stroke:#000000;stroke-width:2.0;stroke-opacity:1.00;"> <!-- group Area0.96592593 -->
<polygon points=" 632.26,367.74 644.573,274.217 738.095,261.905 725.783,355.427" />
<polygon points=" 500,312.955 442.576,238.119 500,163.282 557.424,238.119" />
<polygon points=" 367.74,367.74 274.217,355.427 261.905,261.905 355.427,274.217" />
<polygon points=" 312.955,500 238.119,557.424 163.282,500 238.119,442.576" />
<polygon points=" 367.74,632.26 355.427,725.783 261.905,738.095 274.217,644.573" />
<polygon points=" 500,687.045 557.424,761.881 500,836.718 442.576,761.881" />
<polygon points=" 632.26,632.26 725.783,644.573 738.095,738.095 644.573,725.783" />
<polygon points=" 687.045,500 761.881,442.576 836.718,500 761.881,557.424" />
<polygon points=" 819.305,180.695 831.618,274.217 738.095,261.905 725.783,168.382" />
<polygon points=" 500,48.434 574.836,105.858 500,163.282 425.164,105.858" />
<polygon points=" 180.695,180.695 274.217,168.382 261.905,261.905 168.382,274.217" />
<polygon points=" 48.434,500 105.858,425.164 163.282,500 105.858,574.836" />
<polygon points=" 180.695,819.305 168.382,725.783 261.905,738.095 274.217,831.618" />
<polygon points=" 500,951.566 425.164,894.141 500,836.718 574.836,894.141" />
<polygon points=" 819.305,819.305 725.783,831.618 738.095,738.095 831.618,725.783" />
<polygon points=" 951.566,500 894.141,574.836 836.718,500 894.141,425.164" />
</g>
<g style="opacity:1.0;fill:#bfbf5a;fill-opacity:1;stroke:#000000;stroke-width:2.0;stroke-opacity:1.00;"> <!-- group Area0.99999994 -->
<polygon points=" 831.618,274.217 819.305,367.74 725.783,355.427 738.095,261.905" />
<polygon points=" 725.783,168.382 738.095,261.905 644.573,274.217 632.26,180.695" />
<polygon points=" 574.836,105.858 632.26,180.695 557.424,238.119 500,163.282" />
<polygon points=" 425.164,105.858 500,163.282 442.576,238.119 367.74,180.695" />
<polygon points=" 274.217,168.382 367.74,180.695 355.427,274.217 261.905,261.905" />
<polygon points=" 168.382,274.217 261.905,261.905 274.217,355.427 180.695,367.74" />
<polygon points=" 105.858,425.164 180.695,367.74 238.119,442.576 163.282,500" />
<polygon points=" 105.858,574.836 163.282,500 238.119,557.424 180.695,632.26" />
<polygon points=" 168.382,725.783 180.695,632.26 274.217,644.573 261.905,738.095" />
<polygon points=" 274.217,831.618 261.905,738.095 355.427,725.783 367.74,819.305" />
<polygon points=" 425.164,894.141 367.74,819.305 442.576,761.881 500,836.718" />
<polygon points=" 574.836,894.141 500,836.718 557.424,761.881 632.26,819.305" />
<polygon points=" 725.783,831.618 632.26,819.305 644.573,725.783 738.095,738.095" />
<polygon points=" 831.618,725.783 738.095,738.095 725.783,644.573 819.305,632.26" />
<polygon points=" 894.141,574.836 819.305,632.26 761.881,557.424 836.718,500" />
<polygon points=" 894.141,425.164 836.718,500 761.881,442.576 819.305,367.74" />
</g>
<g style="stroke:#000000;stroke-width:2.0;stroke-opacity:0.50;fill-opacity:0.0">
<!-- Group: <Default>-->
</g>
</svg>
