<?xml version="1.0" standalone="no"?>
<!DOCTYPE svg PUBLIC "-//W3C//DTD SVG 20010904//EN"
 "http://www.w3.org/TR/2001/REC-SVG-20010904/DTD/svg10.dtd">
<svg version="1.0" xmlns="http://www.w3.org/2000/svg"
 width="575.000000pt" height="625.000000pt" viewBox="0 0 575.000000 625.000000"
 preserveAspectRatio="xMidYMid meet">
<metadata>
Created by potrace 1.15, written by Peter Selinger 2001-2017
</metadata>
<path d="M2380 6133 c-770 -27 -1534 -106 -2087 -215 -160 -31 -163 -32 -163
-57 0 -34 42 -821 80 -1481 34 -589 72 -1279 95 -1687 23 -420 58 -626 150
-879 127 -350 323 -660 589 -932 215 -220 421 -369 696 -506 241 -119 470
-192 753 -238 178 -29 564 -32 732 -5 578 92 1039 318 1434 702 221 215 376
427 515 705 164 331 244 646 266 1060 6 107 24 427 40 710 16 283 41 736 55
1005 14 270 39 732 56 1029 16 296 29 539 27 541 -14 10 -552 105 -683 120
-33 4 -129 15 -213 26 -344 43 -830 81 -1262 99 -216 9 -872 11 -1080 3z m548
-325 c211 -102z" 
transform="translate(0.000000,625.000000) scale(0.100000,-0.100000)" fill="#fff"/>
<g transform="translate(0.000000,625.000000) scale(0.100000,-0.100000)"
fill="#136630" stroke="none">
<path d="M2380 6133 c-770 -27 -1534 -106 -2087 -215 -160 -31 -163 -32 -163
-57 0 -34 42 -821 80 -1481 34 -589 72 -1279 95 -1687 23 -420 58 -626 150
-879 127 -350 323 -660 589 -932 215 -220 421 -369 696 -506 241 -119 470
-192 753 -238 178 -29 564 -32 732 -5 578 92 1039 318 1434 702 221 215 376
427 515 705 164 331 244 646 266 1060 6 107 24 427 40 710 16 283 41 736 55
1005 14 270 39 732 56 1029 16 296 29 539 27 541 -14 10 -552 105 -683 120
-33 4 -129 15 -213 26 -344 43 -830 81 -1262 99 -216 9 -872 11 -1080 3z m548
-325 c211 -544 301 -1130 289 -1876 -7 -469 -54 -889 -133 -1187 -3 -11 30 48
74 130 297 567 794 1177 1300 1596 209 173 559 409 606 409 37 0 39 -41 7
-166 -105 -417 -322 -881 -560 -1197 -243 -323 -637 -731 -919 -951 -34 -27
-61 -51 -59 -53 2 -2 52 15 111 37 229 84 554 163 809 195 177 23 431 30 576
16 157 -14 166 -17 180 -49 12 -25 9 -29 -61 -95 -413 -388 -970 -596 -1603
-597 l-160 0 157 -79 c179 -90 310 -173 453 -288 174 -139 355 -339 355 -391
0 -25 0 -25 -67 -19 -148 13 -434 112 -633 219 -263 141 -564 377 -676 530
-20 26 -41 45 -46 42 -17 -11 -2 -413 21 -596 32 -241 92 -501 160 -687 16
-44 26 -83 23 -85 -4 -2 -121 -6 -261 -7 -223 -3 -255 -2 -264 12 -7 11 0 46
26 125 112 337 183 780 175 1097 l-3 138 -64 -76 c-89 -106 -260 -250 -435
-366 -229 -153 -465 -260 -701 -319 -156 -39 -190 -42 -211 -19 -25 28 -12 55
74 154 103 118 182 190 323 295 146 109 253 174 420 254 l131 63 -204 6 c-235
6 -374 24 -583 77 -317 80 -588 217 -850 427 -138 111 -189 165 -180 192 8 25
19 28 160 41 393 36 872 -33 1341 -193 87 -29 177 -62 199 -71 22 -10 38 -16
35 -13 -3 2 -52 42 -109 87 -443 351 -886 848 -1124 1262 -93 160 -176 334
-229 478 -55 152 -121 356 -144 444 -23 91 -24 101 -9 115 14 14 20 13 72 -14
107 -56 348 -221 503 -345 184 -147 546 -505 703 -693 284 -343 521 -698 689
-1030 27 -54 52 -97 54 -94 2 2 -3 26 -11 53 -41 138 -100 499 -127 774 -17
180 -17 878 0 1055 49 487 139 906 264 1220 49 122 44 115 73 115 21 0 28 -13
63 -102z"/>
<path d="M2855 5211 c-3 -6 -11 -82 -18 -169 -13 -181 -17 -2432 -4 -2627 l7
-120 -37 40 c-47 50 -524 598 -693 795 -68 80 -156 181 -195 225 -83 92 -239
282 -480 580 -253 314 -343 415 -365 415 -46 0 -24 -39 184 -330 212 -298 345
-463 759 -938 221 -254 362 -408 574 -623 101 -102 183 -190 183 -195 0 -11
-60 -4 -370 41 -302 45 -505 84 -830 161 -357 84 -474 104 -492 86 -6 -6 -9
-14 -6 -18 12 -12 333 -115 463 -149 387 -102 777 -167 1087 -181 97 -5 138
-11 142 -20 7 -18 -315 -242 -662 -462 -160 -101 -298 -192 -308 -203 -37 -41
2 -31 129 33 287 146 606 351 806 519 94 79 137 110 146 103 7 -5 48 -40 91
-78 119 -103 223 -180 375 -277 244 -156 579 -337 599 -324 25 16 -3 42 -135
126 -459 293 -573 368 -694 456 -74 54 -136 104 -139 111 -3 9 13 12 56 12
251 0 703 70 1107 171 224 56 525 156 525 175 0 28 -90 13 -500 -84 -350 -83
-488 -109 -880 -166 -366 -54 -365 -54 -238 67 76 73 193 193 383 397 305 326
783 900 1005 1206 225 310 283 406 236 388 -17 -6 -204 -230 -478 -569 -174
-216 -272 -331 -478 -569 -481 -555 -793 -910 -797 -906 -2 3 -6 628 -8 1390
-2 762 -7 1414 -12 1449 -8 61 -23 85 -38 62z"/>
</g>



</svg>
