<?xml version="1.0" encoding="UTF-8" standalone="no"?>
<!-- Created with Arkyan's SVGCensus script -->
<svg
   xmlns:dc="http://purl.org/dc/elements/1.1/"
   xmlns:cc="http://web.resource.org/cc/"
   xmlns:rdf="http://www.w3.org/1999/02/22-rdf-syntax-ns#"
   xmlns:svg="http://www.w3.org/2000/svg"
   xmlns="http://www.w3.org/2000/svg"
   xmlns:sodipodi="http://sodipodi.sourceforge.net/DTD/sodipodi-0.dtd"
   xmlns:inkscape="http://www.inkscape.org/namespaces/inkscape"
   version="1.0"
   width="550"
   height="650"
   id="svg2706"
   sodipodi:version="0.32"
   inkscape:version="0.45"
   sodipodi:docname="outputmap.svg"
   inkscape:output_extension="org.inkscape.output.svg.inkscape"
   sodipodi:docbase="C:\files\wikibot"
   sodipodi:modified="true">
  <metadata
     id="metadata2813">
    <rdf:RDF>
      <cc:Work
         rdf:about="">
        <dc:format>image/svg+xml</dc:format>
        <dc:type
           rdf:resource="http://purl.org/dc/dcmitype/StillImage" />
      </cc:Work>
    </rdf:RDF>
  </metadata>
  <defs
     id="defs2811" />
  <sodipodi:namedview
     inkscape:window-height="579"
     inkscape:window-width="748"
     inkscape:pageshadow="2"
     inkscape:pageopacity="0.0"
     guidetolerance="10.0"
     gridtolerance="10.0"
     objecttolerance="10.0"
     borderopacity="1.0"
     bordercolor="#666666"
     pagecolor="#ffffff"
     id="base"
     width="550px"
     height="650px"
     inkscape:zoom="0.58153846"
     inkscape:cx="275"
     inkscape:cy="325"
     inkscape:window-x="88"
     inkscape:window-y="88"
     inkscape:current-layer="svg2706" />
  <path
     id="105"
     style="fill:#ffffff;fill-opacity:1;fill-rule:evenodd;stroke:#000000;stroke-width:3px;stroke-linecap:butt;stroke-linejoin:miter;stroke-opacity:1"
     d="M 512.84986,277.52234 L 512.74986,290.32234 L 513.04986,328.92234 L 513.04986,328.92234 L 513.04986,341.82234 L 513.04986,341.82234 L 513.34986,348.12234 L 514.54986,354.22234 L 514.14986,356.52234 L 514.24986,364.32234 L 514.24986,364.32234 L 514.24986,377.12234 L 514.24986,377.12234 L 514.34986,430.92234 L 514.84986,509.92234 L 514.84986,509.92234 L 514.84986,518.52234 L 514.84986,518.52234 L 514.84986,544.12234 L 514.84986,544.12234 L 514.84986,544.52234 L 514.84986,544.52234 L 514.84986,557.12234 L 514.84986,557.12234 L 514.94986,582.62234 L 510.84986,582.62234 L 510.84986,621.22234 L 510.84986,621.22234 L 510.94986,622.72234 L 510.94986,622.72234 L 501.44986,622.42234 L 485.14986,623.02234 L 485.14986,623.02234 L 485.14986,623.02234 L 485.14986,623.02234 L 442.84986,623.22234 L 442.84986,623.22234 L 435.84986,623.42234 L 435.84986,623.42234 L 411.34986,623.42234 L 385.44986,623.42234 L 385.44986,623.42234 L 270.54986,623.22234 L 262.14986,623.22234 L 200.04986,623.52234 L 200.04986,623.52234 L 187.24986,623.52234 L 187.24986,623.52234 L 175.34986,623.42234 L 175.34986,623.42234 L 168.74986,623.72234 L 137.94986,623.42234 L 137.94986,623.42234 L 126.24986,623.42234 L 126.24986,623.42234 L 125.44986,623.42234 L 125.44986,623.42234 L 95.649857,623.32234 L 95.649857,623.32234 L 92.349857,623.02234 L 92.349857,623.02234 L 81.949857,623.32234 L 81.949857,623.32234 L 72.749857,623.42234 L 72.749857,623.42234 L 72.949857,609.82234 L 72.949857,609.82234 L 72.949857,608.72234 L 72.949857,608.72234 L 73.149857,545.72234 L 73.149857,545.72234 L 73.249857,545.22234 L 73.249857,545.22234 L 73.249857,532.22234 L 73.249857,532.22234 L 73.249857,523.92234 L 73.249857,523.92234 L 73.149857,486.32234 L 74.049857,382.52234 L 74.049857,382.52234 L 74.049857,380.02234 L 74.049857,380.02234 L 74.149857,379.92234 L 74.149857,379.92234 L 74.249857,346.42234 L 74.249857,346.42234 L 74.249857,342.32234 L 74.249857,342.32234 L 74.349857,342.12234 L 74.349857,342.12234 L 74.149857,333.82234 L 74.649857,278.62234 L 74.649857,278.62234 L 79.749857,278.82234 L 79.749857,278.82234 L 104.74986,278.82234 L 104.74986,278.82234 L 105.14986,278.82234 L 105.14986,278.82234 L 119.04986,278.82234 L 119.04986,278.82234 L 129.14986,278.82234 L 129.14986,278.82234 L 136.04986,278.72234 L 136.04986,278.72234 L 138.24986,278.72234 L 138.24986,278.72234 L 154.24986,278.82234 L 154.24986,278.82234 L 157.34986,278.82234 L 157.34986,278.82234 L 159.54986,278.92234 L 159.54986,278.92234 L 161.14986,278.92234 L 161.14986,278.92234 L 168.84986,278.92234 L 168.84986,278.92234 L 170.24986,278.82234 L 170.24986,278.82234 L 179.94986,278.82234 L 179.94986,278.82234 L 206.24986,279.02234 L 206.24986,279.02234 L 240.44986,279.12234 L 243.14986,279.12234 L 243.14986,279.12234 L 255.64986,279.02234 L 255.64986,279.02234 L 260.74986,279.12234 L 260.74986,279.12234 L 264.54986,279.12234 L 264.54986,279.12234 L 264.64986,279.12234 L 264.64986,279.12234 L 304.44986,279.32234 L 304.44986,279.32234 L 327.24986,279.22234 L 327.24986,279.22234 L 389.14986,278.42234 L 425.44986,277.82234 L 425.44986,277.82234 L 426.94986,277.82234 L 426.94986,277.82234 L 433.04986,277.72234 L 439.24986,278.42234 L 439.24986,278.42234 L 439.24986,278.42234 L 439.24986,278.42234 L 463.94986,278.62234 L 463.94986,278.62234 L 468.44986,278.22234 L 468.44986,278.22234 L 487.74986,278.22234 L 487.74986,278.22234 L 493.74986,278.02234 L 493.74986,278.02234 L 500.44986,277.82234 L 500.44986,277.82234 L 511.94986,277.52234 L 511.94986,277.52234 L 512.84986,277.52234 z " />
  <path
     id="25475"
     style="fill:#cccccc;fill-opacity:1;fill-rule:evenodd;stroke:#000000;stroke-width:1px;stroke-linecap:butt;stroke-linejoin:miter;stroke-opacity:1"
     d="M 327.74986,410.72234 L 329.34986,410.72234 L 331.24986,410.72234 L 331.24986,410.72234 L 331.14986,414.42234 L 331.14986,414.42234 L 334.94986,414.62234 L 334.94986,414.62234 L 334.94986,417.72234 L 334.94986,417.72234 L 336.24986,417.82234 L 338.24986,417.82234 L 338.24986,417.82234 L 338.24986,416.82234 L 338.24986,416.82234 L 340.14986,416.92234 L 340.14986,416.92234 L 340.14986,417.82234 L 340.14986,417.82234 L 345.14986,422.42234 L 345.14986,422.42234 L 340.94986,422.42234 L 340.94986,422.42234 L 340.04986,422.32234 L 340.04986,422.32234 L 340.14986,420.92234 L 340.14986,420.92234 L 339.64986,420.92234 L 339.64986,420.92234 L 338.44986,421.02234 L 338.44986,421.02234 L 338.54986,424.52234 L 334.04986,424.52234 L 333.94986,425.62234 L 333.94986,425.62234 L 333.74986,425.72234 L 333.74986,425.72234 L 331.44986,426.62234 L 330.94986,423.82234 L 330.94986,423.82234 L 329.44986,423.82234 L 329.44986,423.82234 L 330.44986,426.02234 L 329.74986,426.62234 L 329.94986,429.02234 L 329.14986,431.32234 L 329.14986,431.32234 L 327.54986,432.52234 L 327.54986,432.52234 L 327.54986,428.92234 L 327.54986,428.92234 L 327.74986,428.92234 L 327.64986,423.92234 L 327.04986,423.92234 L 327.04986,423.92234 L 322.94986,422.72234 L 322.94986,422.72234 L 322.54986,421.62234 L 322.54986,421.62234 L 321.44986,420.22234 L 321.44986,420.22234 L 318.44986,419.82234 L 318.44986,419.82234 L 319.04986,418.72234 L 319.04986,418.72234 L 319.14986,417.72234 L 319.14986,417.72234 L 315.44986,417.72234 L 315.44986,417.72234 L 316.24986,417.22234 L 318.74986,417.22234 L 318.74986,416.32234 L 318.74986,416.32234 L 318.74986,415.32234 L 318.74986,414.92234 L 318.74986,414.92234 L 318.14986,414.62234 L 318.14986,414.62234 L 317.94986,414.42234 L 317.94986,414.42234 L 324.54986,415.02234 L 324.54986,415.02234 L 327.74986,414.32234 L 327.74986,414.32234 L 327.84986,413.52234 L 327.84986,411.22234 L 327.74986,410.92234 L 327.74986,410.92234 L 327.74986,410.72234 z M 323.74986,430.32234 L 325.64986,430.32234 L 325.64986,429.52234 L 325.14986,429.52234 L 325.14986,429.02234 L 327.34986,428.92234 L 327.24986,433.22234 L 326.64986,433.82234 L 323.54986,435.02234 L 323.74986,430.32234 z " />
  <path
     id="13190"
     style="fill:#cccccc;fill-opacity:1;fill-rule:evenodd;stroke:#000000;stroke-width:1px;stroke-linecap:butt;stroke-linejoin:miter;stroke-opacity:1"
     d="M 440.44986,415.72234 L 440.44986,415.12234 L 440.44986,415.12234 L 444.64986,415.72234 L 446.74986,417.62234 L 446.54986,418.92234 L 444.94986,418.72234 L 444.74986,421.82234 L 444.04986,421.62234 L 444.04986,421.62234 L 440.44986,421.42234 L 440.44986,421.42234 L 440.44986,422.32234 L 440.44986,422.32234 L 439.24986,422.42234 L 439.24986,417.72234 L 440.44986,417.12234 L 440.44986,417.12234 L 440.44986,416.62234 L 440.44986,416.62234 L 440.44986,415.72234 z " />
  <path
     id="07415"
     style="fill:#ff0000;fill-opacity:1;fill-rule:evenodd;stroke:#000000;stroke-width:1px;stroke-linecap:butt;stroke-linejoin:miter;stroke-opacity:1"
     d="M 179.54986,418.32234 L 183.34986,418.62234 L 183.24986,421.62234 L 180.34986,423.82234 L 178.74986,424.12234 L 176.24986,423.12234 L 176.24986,422.62234 L 176.24986,422.62234 L 176.24986,422.52234 L 176.24986,422.52234 L 176.24986,418.42234 L 176.24986,418.42234 L 177.14986,418.42234 L 177.14986,418.42234 L 177.14986,416.92234 L 177.14986,416.92234 L 179.14986,418.32234 L 179.14986,418.32234 L 179.54986,418.32234 z " />
  <path
     id="path2712"
     style="fill:none;fill-opacity:1;fill-rule:evenodd;stroke:#000000;stroke-width:3px;stroke-linecap:butt;stroke-linejoin:miter;stroke-opacity:1"
     d="M 512.84986,277.52234 L 512.74986,290.32234 L 513.04986,328.92234 L 513.04986,328.92234 L 513.04986,341.82234 L 513.04986,341.82234 L 513.34986,348.12234 L 514.54986,354.22234 L 514.14986,356.52234 L 514.24986,364.32234 L 514.24986,364.32234 L 514.24986,377.12234 L 514.24986,377.12234 L 514.34986,430.92234 L 514.84986,509.92234 L 514.84986,509.92234 L 514.84986,518.52234 L 514.84986,518.52234 L 514.84986,544.12234 L 514.84986,544.12234 L 514.84986,544.52234 L 514.84986,544.52234 L 514.84986,557.12234 L 514.84986,557.12234 L 514.94986,582.62234 L 510.84986,582.62234 L 510.84986,621.22234 L 510.84986,621.22234 L 510.94986,622.72234 L 510.94986,622.72234 L 501.44986,622.42234 L 485.14986,623.02234 L 485.14986,623.02234 L 485.14986,623.02234 L 485.14986,623.02234 L 442.84986,623.22234 L 442.84986,623.22234 L 435.84986,623.42234 L 435.84986,623.42234 L 411.34986,623.42234 L 385.44986,623.42234 L 385.44986,623.42234 L 270.54986,623.22234 L 262.14986,623.22234 L 200.04986,623.52234 L 200.04986,623.52234 L 187.24986,623.52234 L 187.24986,623.52234 L 175.34986,623.42234 L 175.34986,623.42234 L 168.74986,623.72234 L 137.94986,623.42234 L 137.94986,623.42234 L 126.24986,623.42234 L 126.24986,623.42234 L 125.44986,623.42234 L 125.44986,623.42234 L 95.649857,623.32234 L 95.649857,623.32234 L 92.349857,623.02234 L 92.349857,623.02234 L 81.949857,623.32234 L 81.949857,623.32234 L 72.749857,623.42234 L 72.749857,623.42234 L 72.949857,609.82234 L 72.949857,609.82234 L 72.949857,608.72234 L 72.949857,608.72234 L 73.149857,545.72234 L 73.149857,545.72234 L 73.249857,545.22234 L 73.249857,545.22234 L 73.249857,532.22234 L 73.249857,532.22234 L 73.249857,523.92234 L 73.249857,523.92234 L 73.149857,486.32234 L 74.049857,382.52234 L 74.049857,382.52234 L 74.049857,380.02234 L 74.049857,380.02234 L 74.149857,379.92234 L 74.149857,379.92234 L 74.249857,346.42234 L 74.249857,346.42234 L 74.249857,342.32234 L 74.249857,342.32234 L 74.349857,342.12234 L 74.349857,342.12234 L 74.149857,333.82234 L 74.649857,278.62234 L 74.649857,278.62234 L 79.749857,278.82234 L 79.749857,278.82234 L 104.74986,278.82234 L 104.74986,278.82234 L 105.14986,278.82234 L 105.14986,278.82234 L 119.04986,278.82234 L 119.04986,278.82234 L 129.14986,278.82234 L 129.14986,278.82234 L 136.04986,278.72234 L 136.04986,278.72234 L 138.24986,278.72234 L 138.24986,278.72234 L 154.24986,278.82234 L 154.24986,278.82234 L 157.34986,278.82234 L 157.34986,278.82234 L 159.54986,278.92234 L 159.54986,278.92234 L 161.14986,278.92234 L 161.14986,278.92234 L 168.84986,278.92234 L 168.84986,278.92234 L 170.24986,278.82234 L 170.24986,278.82234 L 179.94986,278.82234 L 179.94986,278.82234 L 206.24986,279.02234 L 206.24986,279.02234 L 240.44986,279.12234 L 243.14986,279.12234 L 243.14986,279.12234 L 255.64986,279.02234 L 255.64986,279.02234 L 260.74986,279.12234 L 260.74986,279.12234 L 264.54986,279.12234 L 264.54986,279.12234 L 264.64986,279.12234 L 264.64986,279.12234 L 304.44986,279.32234 L 304.44986,279.32234 L 327.24986,279.22234 L 327.24986,279.22234 L 389.14986,278.42234 L 425.44986,277.82234 L 425.44986,277.82234 L 426.94986,277.82234 L 426.94986,277.82234 L 433.04986,277.72234 L 439.24986,278.42234 L 439.24986,278.42234 L 439.24986,278.42234 L 439.24986,278.42234 L 463.94986,278.62234 L 463.94986,278.62234 L 468.44986,278.22234 L 468.44986,278.22234 L 487.74986,278.22234 L 487.74986,278.22234 L 493.74986,278.02234 L 493.74986,278.02234 L 500.44986,277.82234 L 500.44986,277.82234 L 511.94986,277.52234 L 511.94986,277.52234 L 512.84986,277.52234 z " />
  <g
     id="g2714"
     transform="translate(27.700646,24.261493)">
    <path
       id="165"       style="opacity:1;color:#000000;fill:#e8e2b7;fill-opacity:1;fill-rule:evenodd;stroke:#000000;stroke-width:0.49983701;stroke-linecap:butt;stroke-linejoin:miter;marker:none;marker-start:none;marker-mid:none;marker-end:none;stroke-miterlimit:4;stroke-dasharray:none;stroke-dashoffset:0;stroke-opacity:1;visibility:visible;display:inline;overflow:visible;enable-background:accumulate"
       d="M 20.2749,0.59289998 C 25.711056,1.2019606 32.603846,0.51112461 37.279499,1.7926 C 37.431707,6.9573327 36.313613,13.373814 37.175201,17.806101 C 38.906321,21.269644 37.087788,27.929364 37.405599,32.671832 C 37.698939,37.210375 35.525031,44.063544 38.8965,45.7645 C 38.561057,54.141462 38.264546,62.526908 37.914101,70.906197 C 42.553816,70.39363 40.921655,80.633094 35.662498,77.443703 C 24.974302,77.140319 14.281891,76.915251 3.6094,76.244003 C 4.7335255,50.857338 5.9656621,25.469671 7.0868001,0.0625 C 11.490436,0.073705517 15.871839,0.52151342 20.2749,0.59289998 z "
 />    <path
       id="045"       style="opacity:1;color:#000000;fill:#e8e2b7;fill-opacity:1;fill-rule:evenodd;stroke:#000000;stroke-width:0.49983701;stroke-linecap:butt;stroke-linejoin:miter;marker:none;marker-start:none;marker-mid:none;marker-end:none;stroke-miterlimit:4;stroke-dasharray:none;stroke-dashoffset:0;stroke-opacity:1;visibility:visible;display:inline;overflow:visible;enable-background:accumulate"
       d="M 46.355499,1.6969 C 56.440131,2.0804515 66.523861,2.4693997 76.609001,2.8445001 C 76.76585,8.7847631 75.098184,16.547101 77.064953,20.875333 C 76.722124,29.116942 76.576697,37.36553 76.252602,45.608002 C 63.148041,45.428965 50.054296,44.841604 36.957802,44.382198 C 37.2809,35.540121 37.644281,26.696041 38.001099,17.8582 C 35.263576,15.184376 37.957342,7.4346487 37.245257,2.8340823 C 36.489767,-0.38245073 44.475085,2.4448452 46.355499,1.6969 z "
 />    <path
       id="161"       style="opacity:1;color:#000000;fill:#e8e2b7;fill-opacity:1;fill-rule:evenodd;stroke:#000000;stroke-width:0.49983701;stroke-linecap:butt;stroke-linejoin:miter;marker:none;marker-start:none;marker-mid:none;marker-end:none;stroke-miterlimit:4;stroke-dasharray:none;stroke-dashoffset:0;stroke-opacity:1;visibility:visible;display:inline;overflow:visible;enable-background:accumulate"
       d="M 93.422302,3.4008999 C 100.72443,3.8894442 109.19299,3.2750089 115.73,4.4615002 C 115.8001,10.558678 114.45673,17.937112 116.16015,22.571584 C 115.99187,30.537927 115.73214,38.502051 115.5561,46.468601 C 119.06957,48.694735 115.83076,57.264426 116.6974,61.987562 C 115.44728,68.751083 117.65913,72.353828 118.07301,77.469037 C 117.81608,82.033414 109.8946,78.421599 106.28671,79.46678 C 97.324268,79.286302 88.363875,78.988385 79.399696,78.956398 C 80.357568,72.251615 75.647081,71.681823 77.364607,64.567773 C 77.288618,58.212509 77.274808,51.951034 77.582703,45.642799 C 74.414043,45.0043 77.521391,38.500325 76.574303,35.732101 C 76.164434,30.064603 78.212183,22.136033 76.075816,18.127292 C 77.631395,13.065922 72.888607,1.0746363 81.026344,2.9938258 C 85.158385,3.1280873 89.289827,3.2804135 93.422302,3.4008999 z "
 />    <path
       id="031"       style="opacity:1;color:#000000;fill:#e8e2b7;fill-opacity:1;fill-rule:evenodd;stroke:#000000;stroke-width:0.49983701;stroke-linecap:butt;stroke-linejoin:miter;marker:none;marker-start:none;marker-mid:none;marker-end:none;stroke-miterlimit:4;stroke-dasharray:none;stroke-dashoffset:0;stroke-opacity:1;visibility:visible;display:inline;overflow:visible;enable-background:accumulate"
       d="M 201.1526,5.5221 C 207.33112,5.5388376 213.5088,5.6593202 219.6873,5.6873002 C 219.6893,11.228229 219.62382,16.736298 219.5916,22.283199 C 221.48949,26.642405 219.89453,34.45666 220.35087,40.228386 C 219.73747,47.248302 221.83494,51.667068 221.12097,58.786557 C 219.90015,63.843917 223.60855,73.938663 218.82497,75.354007 C 184.66343,75.034306 150.50434,74.221741 116.3646,72.975197 C 116.64697,64.157769 116.87513,55.338914 117.1383,46.520802 C 113.56973,44.686861 116.80815,36.492572 115.9125,32.132999 C 116.70198,25.770547 115.54528,21.064764 115.34734,15.64034 C 116.23772,10.67474 112.90702,1.2087744 121.27049,4.161617 C 147.88226,5.1567796 174.52666,5.3170013 201.1526,5.5221 z "
 />    <path
       id="103"       style="opacity:1;color:#000000;fill:#e8e2b7;fill-opacity:1;fill-rule:evenodd;stroke:#000000;stroke-width:0.49983701;stroke-linecap:butt;stroke-linejoin:miter;marker:none;marker-start:none;marker-mid:none;marker-end:none;stroke-miterlimit:4;stroke-dasharray:none;stroke-dashoffset:0;stroke-opacity:1;visibility:visible;display:inline;overflow:visible;enable-background:accumulate"
       d="M 223.6602,5.6960001 C 239.70317,5.8520005 255.74442,5.8272692 271.7876,5.7393999 C 271.59931,11.071496 272.19558,16.031599 271.17911,21.022699 C 268.10729,22.073924 264.62555,22.08158 262.05951,23.908899 C 259.80844,25.22433 257.02897,27.992201 253.73981,26.699499 C 251.25215,27.36342 249.05613,25.042966 246.5677,26.473499 C 243.84738,25.68419 240.68564,25.493644 238.52609,24.274 C 237.34927,22.15264 232.93727,24.264815 230.9715,22.091999 C 227.9016,21.944519 223.13385,21.539114 222.55611,18.545 C 218.69043,19.168927 219.65125,12.882435 219.66991,9.6167002 C 219.07025,5.6645929 219.85493,5.215094 223.6602,5.6960001 z "
 />    <path
       id="015"       style="opacity:1;color:#000000;fill:#e8e2b7;fill-opacity:1;fill-rule:evenodd;stroke:#000000;stroke-width:0.49983701;stroke-linecap:butt;stroke-linejoin:miter;marker:none;marker-start:none;marker-mid:none;marker-end:none;stroke-miterlimit:4;stroke-dasharray:none;stroke-dashoffset:0;stroke-opacity:1;visibility:visible;display:inline;overflow:visible;enable-background:accumulate"
       d="M 313.48181,5.3569002 C 314.25156,9.20934 316.56454,10.685673 319.74979,11.3902 C 325.0958,12.670697 323.69062,18.134412 324.39221,21.9007 C 324.45255,24.757818 318.87902,21.132852 316.9505,22.7092 C 312.60674,23.085167 308.43331,21.613965 304.5275,20.066401 C 301.41702,20.797997 298.69335,18.427193 295.71219,18.118999 C 293.87161,16.607009 290.93304,18.119873 289.77451,14.8937 C 286.38105,11.053397 283.08153,16.843586 279.22931,17.128 C 276.64533,17.918403 274.1536,19.272226 271.70071,20.535801 C 271.54725,15.301324 271.91237,10.955884 271.7876,5.7393999 C 285.68579,5.6593238 299.58318,5.5636905 313.48181,5.3569002 z "
 />    <path
       id="089"       style="opacity:1;color:#000000;fill:#e8e2b7;fill-opacity:1;fill-rule:evenodd;stroke:#000000;stroke-width:0.49983701;stroke-linecap:butt;stroke-linejoin:miter;marker:none;marker-start:none;marker-mid:none;marker-end:none;stroke-miterlimit:4;stroke-dasharray:none;stroke-dashoffset:0;stroke-opacity:1;visibility:visible;display:inline;overflow:visible;enable-background:accumulate"
       d="M 285.8624,13.9722 C 289.5556,11.402379 290.78892,19.483912 294.74719,17.2323 C 297.40434,19.325612 300.74682,19.342547 303.92761,20.414101 C 306.47252,19.68083 309.04076,22.559722 311.71701,22.370199 C 316.00499,23.520919 320.27448,21.525979 324.4183,23.4221 C 324.45473,40.805897 325.35994,57.29114 325.418,74.661797 C 308.01142,74.927711 290.60389,75.100167 273.19601,75.235497 C 273.1715,63.966692 273.29321,52.615473 272.4657,42.113201 C 272.0032,35.657677 273.12287,27.645125 271.71811,22.187599 C 271.67907,18.828383 276.74248,18.473085 279.22931,17.128 C 281.90704,16.583935 283.53152,14.894045 285.8624,13.9722 z "
 />    <path
       id="107"       style="opacity:1;color:#000000;fill:#e8e2b7;fill-opacity:1;fill-rule:evenodd;stroke:#000000;stroke-width:0.49983701;stroke-linecap:butt;stroke-linejoin:miter;marker:none;marker-start:none;marker-mid:none;marker-end:none;stroke-miterlimit:4;stroke-dasharray:none;stroke-dashoffset:0;stroke-opacity:1;visibility:visible;display:inline;overflow:visible;enable-background:accumulate"
       d="M 324.0271,14.0678 C 327.58537,14.307746 330.28497,17.602056 333.5813,17.7278 C 336.33634,20.425036 339.02689,24.538462 343.3963,22.439699 C 347.62035,21.785416 346.63024,15.940119 349.71649,14.7633 C 353.83007,16.024877 358.90125,17.406135 363.12189,15.2328 C 367.33844,15.995901 371.3155,13.907337 369.77249,20.500999 C 369.89289,29.276659 370.18472,38.246309 370.37231,47.094601 C 355.16647,47.470183 339.96296,47.842299 324.75729,48.068199 C 324.66812,36.557065 324.41718,25.259346 324.0271,14.0678 z "
 />    <path
       id="027"       style="opacity:1;color:#000000;fill:#e8e2b7;fill-opacity:1;fill-rule:evenodd;stroke:#000000;stroke-width:0.49983701;stroke-linecap:butt;stroke-linejoin:miter;marker:none;marker-start:none;marker-mid:none;marker-end:none;stroke-miterlimit:4;stroke-dasharray:none;stroke-dashoffset:0;stroke-opacity:1;visibility:visible;display:inline;overflow:visible;enable-background:accumulate"
       d="M 369.66809,15.6674 C 372.62577,17.208605 373.72604,12.091025 376.46649,15.1458 C 378.78624,14.439503 380.05804,13.984732 382.25641,15.0937 C 385.75083,14.331063 383.4408,20.148555 387.51599,18.971001 C 389.03092,20.693207 390.3154,22.180478 393.01031,21.0487 C 398.6939,21.400039 394.77727,29.405604 396.12259,33.202301 C 396.04109,39.753977 397.09413,47.496833 396.02689,53.1105 C 389.70819,53.310508 383.38593,53.38715 377.06631,53.562599 C 379.84768,45.400978 371.62491,48.748798 370.3263,44.885147 C 370.08404,35.118597 369.82369,25.38133 369.66809,15.6674 z "
 />    <path
       id="017"       style="opacity:1;color:#000000;fill:#e8e2b7;fill-opacity:1;fill-rule:evenodd;stroke:#000000;stroke-width:0.49983701;stroke-linecap:butt;stroke-linejoin:miter;marker:none;marker-start:none;marker-mid:none;marker-end:none;stroke-miterlimit:4;stroke-dasharray:none;stroke-dashoffset:0;stroke-opacity:1;visibility:visible;display:inline;overflow:visible;enable-background:accumulate"
       d="M 221.0087,18.179899 C 222.46186,18.413241 222.8757,19.127 223.6515,20.431499 C 226.49943,22.352528 230.20838,21.392487 233.2057,22.978701 C 235.30488,23.866698 238.22751,22.452656 239.0565,24.595699 C 241.83362,25.500797 245.31016,26.511451 248.4281,26.1866 C 248.47072,35.389353 248.26025,44.933056 249.2018,53.190531 C 249.23434,60.605481 249.26671,68.020454 249.28,75.435501 C 239.86627,75.48982 230.45003,75.467144 221.03481,75.374603 C 220.64618,65.8585 222.07703,54.661308 220.3132,46.477299 C 220.36746,38.415571 220.39987,30.353731 220.43491,22.291901 C 219.37349,22.665272 218.51032,15.273441 221.0087,18.179899 z "
 />    <path
       id="149"       style="opacity:1;color:#000000;fill:#e8e2b7;fill-opacity:1;fill-rule:evenodd;stroke:#000000;stroke-width:0.49983701;stroke-linecap:butt;stroke-linejoin:miter;marker:none;marker-start:none;marker-mid:none;marker-end:none;stroke-miterlimit:4;stroke-dasharray:none;stroke-dashoffset:0;stroke-opacity:1;visibility:visible;display:inline;overflow:visible;enable-background:accumulate"
       d="M 271.70071,20.535801 C 273.00586,28.89111 272.13058,39.428086 272.51791,48.7463 C 273.91732,54.563677 272.73827,62.95273 273.16701,69.724748 C 275.79953,78.446541 265.39585,74.437121 260.173,75.374603 C 255.61144,74.647624 246.81789,78.200093 249.2627,70.418433 C 249.27622,61.122515 249.37075,51.670921 248.50452,43.292818 C 248.90462,37.659152 247.60352,30.924907 249.0105,25.9258 C 252.64811,27.111868 256.75199,27.74015 260.034,25.412901 C 261.8063,23.439177 264.76068,22.292948 267.6756,22.1441 C 268.80337,20.584649 270.65489,21.842771 271.70071,20.535801 z "
 />    <path
       id="051"       style="opacity:1;color:#000000;fill:#e8e2b7;fill-opacity:1;fill-rule:evenodd;stroke:#000000;stroke-width:0.49983701;stroke-linecap:butt;stroke-linejoin:miter;marker:none;marker-start:none;marker-mid:none;marker-end:none;stroke-miterlimit:4;stroke-dasharray:none;stroke-dashoffset:0;stroke-opacity:1;visibility:visible;display:inline;overflow:visible;enable-background:accumulate"
       d="M 395.79221,21.778999 C 398.61485,20.707708 398.52875,23.87247 399.2001,24.9174 C 401.85785,22.703208 405.96654,24.853447 407.8588,26.699499 C 406.55322,31.338006 414.69,26.264651 413.9617,30.3682 C 410.16669,34.667142 418.18193,35.295853 417.6391,39.244301 C 410.30258,37.162838 413.23442,44.719778 412.67428,49.068043 C 411.78574,52.582453 415.58315,60.533936 409.754,59.361198 C 405.41519,59.454887 401.0799,59.63844 396.73981,59.717602 C 396.37667,47.019427 396.29254,34.572588 395.79221,21.778999 z "
 />    <path
       id="043"       style="opacity:1;color:#000000;fill:#e8e2b7;fill-opacity:1;fill-rule:evenodd;stroke:#000000;stroke-width:0.49983701;stroke-linecap:butt;stroke-linejoin:miter;marker:none;marker-start:none;marker-mid:none;marker-end:none;stroke-miterlimit:4;stroke-dasharray:none;stroke-dashoffset:0;stroke-opacity:1;visibility:visible;display:inline;overflow:visible;enable-background:accumulate"
       d="M 415.3353,39.305199 C 417.78114,38.949384 419.49713,42.115745 421.7424,39.4095 C 424.33868,39.500781 424.85376,44.545423 428.1669,41.5481 C 432.60589,40.764407 432.2195,46.0609 429.95779,48.303001 C 430.65912,50.826268 429.19275,53.511479 432.61801,54.797001 C 435.40934,60.312903 426.18149,56.83659 422.73349,57.917999 C 419.40582,56.980628 411.12519,61.160084 412.84021,54.8405 C 412.51484,49.445477 412.88061,44.684191 412.5968,39.374699 C 413.50968,39.353071 414.4227,39.337978 415.3353,39.305199 z "
 />    <path
       id="013"       style="opacity:1;color:#000000;fill:#e8e2b7;fill-opacity:1;fill-rule:evenodd;stroke:#000000;stroke-width:0.49983701;stroke-linecap:butt;stroke-linejoin:miter;marker:none;marker-start:none;marker-mid:none;marker-end:none;stroke-miterlimit:4;stroke-dasharray:none;stroke-dashoffset:0;stroke-opacity:1;visibility:visible;display:inline;overflow:visible;enable-background:accumulate"
       d="M 76.409103,45.608002 C 78.801601,49.023786 76.567824,57.072201 77.324329,62.361757 C 76.107846,69.157819 78.614255,71.583477 79.345495,76.50304 C 79.346665,81.42592 70.544024,78.087831 66.595107,78.785485 C 57.745146,78.199776 48.874028,78.252827 40.026699,77.652298 C 41.227859,70.849275 36.158429,69.671397 38.27446,62.039213 C 38.482507,56.175905 38.724283,50.312214 38.939999,44.451698 C 51.427206,44.905775 63.915844,45.44109 76.409103,45.608002 z "
 />    <path
       id="139"       style="opacity:1;color:#000000;fill:#e8e2b7;fill-opacity:1;fill-rule:evenodd;stroke:#000000;stroke-width:0.49983701;stroke-linecap:butt;stroke-linejoin:miter;marker:none;marker-start:none;marker-mid:none;marker-end:none;stroke-miterlimit:4;stroke-dasharray:none;stroke-dashoffset:0;stroke-opacity:1;visibility:visible;display:inline;overflow:visible;enable-background:accumulate"
       d="M 376.91849,46.911999 C 377.11511,55.773795 377.3352,64.634863 377.5184,73.496803 C 368.85767,73.64739 359.82123,74.167395 351.43781,73.966301 C 351.26076,65.165927 351.08698,56.36529 350.95959,47.563999 C 359.61297,47.362216 368.266,47.148669 376.91849,46.911999 z "
 />    <path
       id="003"       style="opacity:1;color:#000000;fill:#e8e2b7;fill-opacity:1;fill-rule:evenodd;stroke:#000000;stroke-width:0.49983701;stroke-linecap:butt;stroke-linejoin:miter;marker:none;marker-start:none;marker-mid:none;marker-end:none;stroke-miterlimit:4;stroke-dasharray:none;stroke-dashoffset:0;stroke-opacity:1;visibility:visible;display:inline;overflow:visible;enable-background:accumulate"
       d="M 350.95959,47.563999 C 351.13898,60.842572 351.44963,74.115808 351.79419,87.389099 C 343.15898,87.605245 334.52422,87.799117 325.88751,87.936798 C 325.62971,74.644602 325.04548,61.632819 325.05289,48.0769 C 333.68981,47.906973 342.3236,47.77585 350.95959,47.563999 z "
 />    <path
       id="179"       style="opacity:1;color:#000000;fill:#e8e2b7;fill-opacity:1;fill-rule:evenodd;stroke:#000000;stroke-width:0.49983701;stroke-linecap:butt;stroke-linejoin:miter;marker:none;marker-start:none;marker-mid:none;marker-end:none;stroke-miterlimit:4;stroke-dasharray:none;stroke-dashoffset:0;stroke-opacity:1;visibility:visible;display:inline;overflow:visible;enable-background:accumulate"
       d="M 377.06631,53.562599 C 383.56579,53.391305 390.06718,53.290491 396.56589,53.101799 C 394.81227,59.956967 399.20001,60.382294 404.76389,59.500198 C 409.88886,58.137287 406.93734,65.304564 407.84908,68.420381 C 410.34061,75.722535 400.93989,71.724206 397.10489,73.010002 C 390.57605,73.180727 384.048,73.365816 377.5184,73.496803 C 377.39145,66.85121 377.21503,60.207927 377.06631,53.562599 z "
 />    <path
       id="173"       style="opacity:1;color:#000000;fill:#e8e2b7;fill-opacity:1;fill-rule:evenodd;stroke:#000000;stroke-width:0.49983701;stroke-linecap:butt;stroke-linejoin:miter;marker:none;marker-start:none;marker-mid:none;marker-end:none;stroke-miterlimit:4;stroke-dasharray:none;stroke-dashoffset:0;stroke-opacity:1;visibility:visible;display:inline;overflow:visible;enable-background:accumulate"
       d="M 412.93591,58.204899 C 420.10799,58.594698 428.03586,56.652402 434.7392,58.491798 C 436.08851,60.45835 435.03905,62.019201 433.64389,62.9342 C 434.84985,64.496807 433.77649,66.799772 436.13019,67.741699 C 437.10075,69.310171 440.53493,69.647392 438.547,72.375397 C 438.17251,75.188497 437.54312,77.802655 433.69521,77.542361 C 430.20157,76.385034 421.75862,80.840223 423.04052,74.592059 C 423.37773,69.339693 414.57318,73.916013 411.22272,72.604611 C 405.27303,74.243724 408.73696,65.975741 407.685,62.43 C 405.97725,56.592778 412.48714,61.395571 412.93591,58.204899 z "
 />    <path
       id="075"       style="opacity:1;color:#000000;fill:#e8e2b7;fill-opacity:1;fill-rule:evenodd;stroke:#000000;stroke-width:0.49983701;stroke-linecap:butt;stroke-linejoin:miter;marker:none;marker-start:none;marker-mid:none;marker-end:none;stroke-miterlimit:4;stroke-dasharray:none;stroke-dashoffset:0;stroke-opacity:1;visibility:visible;display:inline;overflow:visible;enable-background:accumulate"
       d="M 118.5901,73.0709 C 129.27053,73.676301 139.97194,73.66238 150.6606,74.061897 C 150.52548,82.95483 150.33826,91.84767 150.2085,100.7424 C 138.18385,100.56544 126.16066,100.31849 114.139,100.0295 C 114.37322,93.240202 114.48378,86.342699 114.765,79.625801 C 120.43029,81.496153 116.89852,75.286186 118.5901,73.0709 z "
 />    <path
       id="091"       style="opacity:1;color:#000000;fill:#e8e2b7;fill-opacity:1;fill-rule:evenodd;stroke:#000000;stroke-width:0.49983701;stroke-linecap:butt;stroke-linejoin:miter;marker:none;marker-start:none;marker-mid:none;marker-end:none;stroke-miterlimit:4;stroke-dasharray:none;stroke-dashoffset:0;stroke-opacity:1;visibility:visible;display:inline;overflow:visible;enable-background:accumulate"
       d="M 150.6606,74.061897 C 161.47612,74.31505 172.29373,74.611385 183.1049,74.870399 C 183.03969,83.729702 183.02909,92.586414 182.98309,101.4466 C 172.05672,101.39712 161.1355,100.81749 150.2085,100.7424 C 150.33511,91.847811 150.53124,82.954614 150.6606,74.061897 z "
 />    <path
       id="119"       style="opacity:1;color:#000000;fill:#e8e2b7;fill-opacity:1;fill-rule:evenodd;stroke:#000000;stroke-width:0.49983701;stroke-linecap:butt;stroke-linejoin:miter;marker:none;marker-start:none;marker-mid:none;marker-end:none;stroke-miterlimit:4;stroke-dasharray:none;stroke-dashoffset:0;stroke-opacity:1;visibility:visible;display:inline;overflow:visible;enable-background:accumulate"
       d="M 375.3537,73.549004 C 379.56278,73.016961 376.92456,79.658734 377.74438,82.6511 C 377.89665,88.452428 378.02894,94.254066 378.17041,100.0556 C 369.47627,100.27912 360.78239,100.48205 352.08981,100.6989 C 351.88294,91.848939 351.72405,82.995159 351.4552,74.148903 C 359.42162,73.944018 367.39003,73.795319 375.3537,73.549004 z "
 />    <path
       id="167"       style="opacity:1;color:#000000;fill:#e8e2b7;fill-opacity:1;fill-rule:evenodd;stroke:#000000;stroke-width:0.49983701;stroke-linecap:butt;stroke-linejoin:miter;marker:none;marker-start:none;marker-mid:none;marker-end:none;stroke-miterlimit:4;stroke-dasharray:none;stroke-dashoffset:0;stroke-opacity:1;visibility:visible;display:inline;overflow:visible;enable-background:accumulate"
       d="M 378.02261,73.488098 C 384.30262,73.44494 390.93625,73.000221 397.0267,73.114304 C 397.21147,81.911667 397.60831,90.839909 397.68741,99.551399 C 391.17831,99.72156 384.67879,99.897401 378.17041,100.0556 C 377.95193,91.201178 377.74927,82.34686 377.5184,73.496803 L 378.02261,73.488098 z "
 />    <path
       id="039"       style="opacity:1;color:#000000;fill:#e8e2b7;fill-opacity:1;fill-rule:evenodd;stroke:#000000;stroke-width:0.49983701;stroke-linecap:butt;stroke-linejoin:miter;marker:none;marker-start:none;marker-mid:none;marker-end:none;stroke-miterlimit:4;stroke-dasharray:none;stroke-dashoffset:0;stroke-opacity:1;visibility:visible;display:inline;overflow:visible;enable-background:accumulate"
       d="M 404.09451,72.810097 C 410.38222,72.62802 416.66519,72.455276 422.95081,72.262398 C 423.11964,81.025721 423.8423,90.433468 423.61151,98.847198 C 415.05797,98.946032 405.96895,99.625717 397.7309,99.342697 C 397.58419,90.581553 397.13521,81.640409 397.10489,73.010002 C 399.4348,72.945288 401.76481,72.874729 404.09451,72.810097 z "
 />    <path
       id="183"       style="opacity:1;color:#000000;fill:#e8e2b7;fill-opacity:1;fill-rule:evenodd;stroke:#000000;stroke-width:0.49983701;stroke-linecap:butt;stroke-linejoin:miter;marker:none;marker-start:none;marker-mid:none;marker-end:none;stroke-miterlimit:4;stroke-dasharray:none;stroke-dashoffset:0;stroke-opacity:1;visibility:visible;display:inline;overflow:visible;enable-background:accumulate"
       d="M 325.418,74.661797 C 326.17349,82.951908 325.75201,92.44307 326.07001,101.2118 C 317.39493,101.38112 308.71694,101.5157 300.0416,101.5943 C 299.82011,92.74084 299.7921,83.862635 299.65909,75.000801 C 308.24547,74.893203 316.83188,74.789149 325.418,74.661797 z "
 />    <path
       id="071"       style="opacity:1;color:#000000;fill:#e8e2b7;fill-opacity:1;fill-rule:evenodd;stroke:#000000;stroke-width:0.49983701;stroke-linecap:butt;stroke-linejoin:miter;marker:none;marker-start:none;marker-mid:none;marker-end:none;stroke-miterlimit:4;stroke-dasharray:none;stroke-dashoffset:0;stroke-opacity:1;visibility:visible;display:inline;overflow:visible;enable-background:accumulate"
       d="M 299.65909,75.000801 C 299.79438,83.86267 299.81862,92.740763 300.0416,101.5943 C 291.37387,101.64463 282.70691,101.77099 274.03922,101.7508 C 273.9967,92.909294 273.88848,84.068549 273.86539,75.226898 C 282.46328,75.148289 291.0614,75.094416 299.65909,75.000801 z "
 />    <path
       id="171"       style="opacity:1;color:#000000;fill:#e8e2b7;fill-opacity:1;fill-rule:evenodd;stroke:#000000;stroke-width:0.49983701;stroke-linecap:butt;stroke-linejoin:miter;marker:none;marker-start:none;marker-mid:none;marker-end:none;stroke-miterlimit:4;stroke-dasharray:none;stroke-dashoffset:0;stroke-opacity:1;visibility:visible;display:inline;overflow:visible;enable-background:accumulate"
       d="M 183.1049,74.870399 C 193.88389,75.115031 204.66582,75.17306 215.44479,75.322502 C 215.19541,84.034748 215.78744,93.54287 215.1058,101.7856 C 204.39539,101.74068 193.69225,101.63175 182.98309,101.4466 C 183.02445,92.586534 183.05025,83.72946 183.1049,74.870399 z "
 />    <path
       id="115"       style="opacity:1;color:#000000;fill:#e8e2b7;fill-opacity:1;fill-rule:evenodd;stroke:#000000;stroke-width:0.49983701;stroke-linecap:butt;stroke-linejoin:miter;marker:none;marker-start:none;marker-mid:none;marker-end:none;stroke-miterlimit:4;stroke-dasharray:none;stroke-dashoffset:0;stroke-opacity:1;visibility:visible;display:inline;overflow:visible;enable-background:accumulate"
       d="M 273.8045,75.226898 C 273.96237,83.955248 273.9599,92.923845 274.03922,101.7508 C 265.32603,101.64932 256.6342,101.86629 247.91521,101.8465 C 247.94328,93.039867 247.9461,84.233405 247.90649,75.426804 C 256.53904,75.38562 265.17289,75.393457 273.8045,75.226898 z "
 />    <path
       id="009"       style="opacity:1;color:#000000;fill:#e8e2b7;fill-opacity:1;fill-rule:evenodd;stroke:#000000;stroke-width:0.49983701;stroke-linecap:butt;stroke-linejoin:miter;marker:none;marker-start:none;marker-mid:none;marker-end:none;stroke-miterlimit:4;stroke-dasharray:none;stroke-dashoffset:0;stroke-opacity:1;visibility:visible;display:inline;overflow:visible;enable-background:accumulate"
       d="M 215.44479,75.322502 C 226.26507,75.411017 237.08789,75.537651 247.90649,75.426804 C 247.94642,84.233406 247.94354,93.039868 247.91521,101.8465 C 237.06176,101.82322 226.24817,102.01948 215.40131,101.7856 C 215.39769,92.964417 215.40951,84.144487 215.44479,75.322502 z "
 />    <path
       id="021"       style="opacity:1;color:#000000;fill:#e8e2b7;fill-opacity:1;fill-rule:evenodd;stroke:#000000;stroke-width:0.49983701;stroke-linecap:butt;stroke-linejoin:miter;marker:none;marker-start:none;marker-mid:none;marker-end:none;stroke-miterlimit:4;stroke-dasharray:none;stroke-dashoffset:0;stroke-opacity:1;visibility:visible;display:inline;overflow:visible;enable-background:accumulate"
       d="M 438.85129,74.974701 C 439.73828,75.90211 443.40231,75.468776 440.8508,77.574097 C 440.17993,80.996129 444.82038,75.621981 443.67621,79.234596 C 443.31342,81.176082 448.67278,78.556543 446.81461,81.946999 C 446.07826,83.276342 447.60331,84.938733 445.4584,85.633003 C 445.87265,88.379467 449.0002,89.123231 448.74451,91.935799 C 450.44589,92.609544 452.13536,93.797482 450.49191,95.648003 C 449.71183,97.558988 448.00582,98.885697 451.03961,100.412 C 448.83546,102.43481 445.81207,102.82122 442.12869,102.6897 C 438.30834,102.2836 432.3677,104.13151 430.16224,101.98505 C 430.63075,95.928479 420.59643,100.99904 423.61151,92.187897 C 423.56983,87.472673 423.09858,82.393557 423.31589,77.8871 C 427.834,77.743806 432.44416,77.539277 436.8952,77.4524 C 436.97625,75.640989 436.06198,74.607755 438.85129,74.974701 z "
 />    <path
       id="069"       style="opacity:1;color:#000000;fill:#e8e2b7;fill-opacity:1;fill-rule:evenodd;stroke:#000000;stroke-width:0.49983701;stroke-linecap:butt;stroke-linejoin:miter;marker:none;marker-start:none;marker-mid:none;marker-end:none;stroke-miterlimit:4;stroke-dasharray:none;stroke-dashoffset:0;stroke-opacity:1;visibility:visible;display:inline;overflow:visible;enable-background:accumulate"
       d="M 114.4868,79.625801 C 114.84728,85.972478 114.19182,93.301414 114.139,100.0295 C 122.11867,97.965488 117.54647,107.94397 118.4597,112.5656 C 117.37135,116.83599 120.67072,125.86881 116.18157,126.61809 C 112.04959,126.59165 114.88501,134.0675 113.90594,137.4133 C 112.93892,142.80688 102.35538,138.10795 97.524103,139.38195 C 92.928129,137.74067 81.641543,142.39967 82.5728,135.5948 C 83.90755,128.86265 81.226366,125.88467 81.544184,120.07608 C 81.787341,113.07044 81.851987,106.04899 82.207703,99.055801 C 78.079744,97.612602 80.754058,90.3608 80.270043,86.380631 C 78.448405,78.911441 82.843366,78.10868 89.008387,79.071518 C 97.502407,79.264506 105.99426,79.473726 114.4868,79.625801 z "
 />    <path
       id="123"       style="opacity:1;color:#000000;fill:#e8e2b7;fill-opacity:1;fill-rule:evenodd;stroke:#000000;stroke-width:0.49983701;stroke-linecap:butt;stroke-linejoin:miter;marker:none;marker-start:none;marker-mid:none;marker-end:none;stroke-miterlimit:4;stroke-dasharray:none;stroke-dashoffset:0;stroke-opacity:1;visibility:visible;display:inline;overflow:visible;enable-background:accumulate"
       d="M 79.399696,78.956398 C 82.175949,80.534942 79.507245,87.242317 80.086502,90.849098 C 78.438845,97.220628 83.286901,98.905355 81.981697,104.5936 C 81.814216,110.49032 81.647105,116.38761 81.477402,122.285 C 67.709262,121.8406 53.941874,121.41988 40.1744,120.9462 C 40.561598,108.50178 41.21625,96.955814 41.964571,84.850256 C 40.7027,78.840431 43.017385,76.844435 48.476799,78.086998 C 58.795276,78.114112 69.08912,79.31579 79.399696,78.956398 z "
 />    <path
       id="157"       style="opacity:1;color:#000000;fill:#e8e2b7;fill-opacity:1;fill-rule:evenodd;stroke:#000000;stroke-width:0.49983701;stroke-linecap:butt;stroke-linejoin:miter;marker:none;marker-start:none;marker-mid:none;marker-end:none;stroke-miterlimit:4;stroke-dasharray:none;stroke-dashoffset:0;stroke-opacity:1;visibility:visible;display:inline;overflow:visible;enable-background:accumulate"
       d="M 38.331402,77.539299 C 45.210501,76.45072 40.916898,85.553255 41.791401,89.901497 C 40.752272,93.786008 43.015372,101.16478 38.261902,100.8119 C 26.351734,100.50073 14.438159,99.993293 2.5314,99.438301 C 2.8933785,91.707532 3.2184726,83.971419 3.6094,76.244003 C 15.170372,76.988945 26.755228,77.146849 38.331402,77.539299 z "
 />    <path
       id="011"       style="opacity:1;color:#000000;fill:#e8e2b7;fill-opacity:1;fill-rule:evenodd;stroke:#000000;stroke-width:0.49983701;stroke-linecap:butt;stroke-linejoin:miter;marker:none;marker-start:none;marker-mid:none;marker-end:none;stroke-miterlimit:4;stroke-dasharray:none;stroke-dashoffset:0;stroke-opacity:1;visibility:visible;display:inline;overflow:visible;enable-background:accumulate"
       d="M 347.43011,87.493401 C 354.72701,85.443216 350.99338,94.903411 352.05184,99.369218 C 352.04706,104.96749 352.93798,112.28698 352.0376,117.1992 C 348.32824,118.74702 342.5284,118.19561 338.88431,119.7899 C 336.99612,120.81529 327.5434,122.9642 326.58569,119.51963 C 326.64827,108.69924 325.92596,98.650985 325.88751,87.936798 C 333.06922,87.811714 340.24979,87.682046 347.43011,87.493401 z "
 />    <path
       id="117"       style="opacity:1;color:#000000;fill:#e8e2b7;fill-opacity:1;fill-rule:evenodd;stroke:#000000;stroke-width:0.49983701;stroke-linecap:butt;stroke-linejoin:miter;marker:none;marker-start:none;marker-mid:none;marker-end:none;stroke-miterlimit:4;stroke-dasharray:none;stroke-dashoffset:0;stroke-opacity:1;visibility:visible;display:inline;overflow:visible;enable-background:accumulate"
       d="M 153.1382,100.7511 C 165.53508,101.06226 177.92892,101.46023 190.32919,101.577 C 190.07094,110.38775 190.0213,119.30885 189.9119,128.0488 C 176.86567,127.80036 163.81888,127.60679 150.77361,127.3272 C 150.9709,118.46854 151.11096,109.60969 151.2952,100.7511 L 152.40016,100.7511 L 153.1382,100.7511 z "
 />    <path
       id="037"       style="opacity:1;color:#000000;fill:#e8e2b7;fill-opacity:1;fill-rule:evenodd;stroke:#000000;stroke-width:0.49983701;stroke-linecap:butt;stroke-linejoin:miter;marker:none;marker-start:none;marker-mid:none;marker-end:none;stroke-miterlimit:4;stroke-dasharray:none;stroke-dashoffset:0;stroke-opacity:1;visibility:visible;display:inline;overflow:visible;enable-background:accumulate"
       d="M 389.05469,99.777397 C 394.07822,99.639516 399.10436,99.52407 404.1293,99.394897 C 404.3486,106.73223 404.52583,114.071 404.79001,121.4069 C 401.16688,121.63708 399.51466,125.70306 395.83569,125.3016 C 392.87395,128.29717 388.88228,127.22979 385.3165,127.7184 C 385.27563,118.47453 384.81232,109.12918 384.68188,99.890404 C 386.13832,99.860804 387.59698,99.820861 389.05469,99.777397 z "
 />    <path
       id="005"       style="opacity:1;color:#000000;fill:#e8e2b7;fill-opacity:1;fill-rule:evenodd;stroke:#000000;stroke-width:0.49983701;stroke-linecap:butt;stroke-linejoin:miter;marker:none;marker-start:none;marker-mid:none;marker-end:none;stroke-miterlimit:4;stroke-dasharray:none;stroke-dashoffset:0;stroke-opacity:1;visibility:visible;display:inline;overflow:visible;enable-background:accumulate"
       d="M 150.2085,100.7424 C 152.58463,103.94064 150.44733,111.60045 150.99091,116.5994 C 151.91892,124.09637 151.09817,129.80538 142.28806,127.17497 C 134.24957,127.01715 126.21082,126.87305 118.1728,126.6926 C 118.38938,117.83669 118.55564,108.98103 118.7727,100.1251 C 129.25017,100.39846 139.72871,100.5765 150.2085,100.7424 z "
 />    <path
       id="141"       style="opacity:1;color:#000000;fill:#e8e2b7;fill-opacity:1;fill-rule:evenodd;stroke:#000000;stroke-width:0.49983701;stroke-linecap:butt;stroke-linejoin:miter;marker:none;marker-start:none;marker-mid:none;marker-end:none;stroke-miterlimit:4;stroke-dasharray:none;stroke-dashoffset:0;stroke-opacity:1;visibility:visible;display:inline;overflow:visible;enable-background:accumulate"
       d="M 374.9277,100.1338 C 378.85143,100.86539 387.08581,97.036168 384.7775,104.3154 C 384.90944,112.13484 385.31308,119.99228 385.3165,127.788 C 381.57779,128.01991 378.75502,125.30057 375.5015,128.15311 C 372.06916,128.90533 369.03893,130.17244 365.9299,131.7001 C 369.09684,123.21636 357.00089,130.70052 359.7749,122.6327 C 360.76605,117.60993 358.63809,115.87277 353.57569,117.18265 C 351.21646,114.32913 352.85237,107.40801 352.22875,102.88027 C 352.17371,98.922439 358.70861,101.28143 361.90479,100.4642 C 366.24543,100.34235 370.58708,100.25858 374.9277,100.1338 z "
 />    <path
       id="053"       style="opacity:1;color:#000000;fill:#e8e2b7;fill-opacity:1;fill-rule:evenodd;stroke:#000000;stroke-width:0.49983701;stroke-linecap:butt;stroke-linejoin:miter;marker:none;marker-start:none;marker-mid:none;marker-end:none;stroke-miterlimit:4;stroke-dasharray:none;stroke-dashoffset:0;stroke-opacity:1;visibility:visible;display:inline;overflow:visible;enable-background:accumulate"
       d="M 404.1293,99.394897 C 412.77717,99.156896 421.42268,98.92005 430.0708,98.647202 C 430.57595,105.30724 429.75104,113.59048 431.80951,118.5815 C 433.23775,120.88933 437.17965,120.41268 437.46899,123.9628 C 436.41208,126.41093 430.97792,124.75467 428.05389,125.3103 C 424.95095,121.11116 419.92454,122.75238 415.67429,123.0413 C 412.70091,120.4071 409.31307,123.13777 406.01581,121.5112 C 402.98053,119.62783 405.46045,112.17106 404.38285,108.30438 C 404.29245,105.33463 404.21743,102.36482 404.1293,99.394897 z "
 />    <path
       id="041"       style="opacity:1;color:#000000;fill:#e8e2b7;fill-opacity:1;fill-rule:evenodd;stroke:#000000;stroke-width:0.49983701;stroke-linecap:butt;stroke-linejoin:miter;marker:none;marker-start:none;marker-mid:none;marker-end:none;stroke-miterlimit:4;stroke-dasharray:none;stroke-dashoffset:0;stroke-opacity:1;visibility:visible;display:inline;overflow:visible;enable-background:accumulate"
       d="M 268.6492,101.7247 C 275.59219,99.482777 275.0326,104.8718 274.6304,110.001 C 274.45153,124.21477 275.66924,137.14185 275.11719,151.49519 C 276.29254,157.47233 267.87259,153.8582 264.06781,154.877 C 248.25142,154.99234 232.445,154.77609 216.62711,154.8075 C 216.42267,146.12559 217.55686,136.29023 216.48801,128.29221 C 215.31367,120.39724 216.3634,110.43914 216.2011,101.803 C 233.67539,102.02145 251.17181,101.80134 268.6492,101.7247 z "
 />    <path
       id="077"       style="opacity:1;color:#000000;fill:#e8e2b7;fill-opacity:1;fill-rule:evenodd;stroke:#000000;stroke-width:0.49983701;stroke-linecap:butt;stroke-linejoin:miter;marker:none;marker-start:none;marker-mid:none;marker-end:none;stroke-miterlimit:4;stroke-dasharray:none;stroke-dashoffset:0;stroke-opacity:1;visibility:visible;display:inline;overflow:visible;enable-background:accumulate"
       d="M 326.40039,105.5238 C 326.48288,112.93897 326.60436,120.35481 326.69601,127.7706 C 318.03797,127.87458 309.37,127.98534 300.7197,128.06619 C 300.87192,119.27944 300.27514,110.12412 300.58929,101.577 C 309.17368,101.53042 317.75672,101.35811 326.33951,101.2118 C 326.3598,102.64913 326.3801,104.08647 326.40039,105.5238 z "
 />    <path
       id="175"       style="opacity:1;color:#000000;fill:#e8e2b7;fill-opacity:1;fill-rule:evenodd;stroke:#000000;stroke-width:0.49983701;stroke-linecap:butt;stroke-linejoin:miter;marker:none;marker-start:none;marker-mid:none;marker-end:none;stroke-miterlimit:4;stroke-dasharray:none;stroke-dashoffset:0;stroke-opacity:1;visibility:visible;display:inline;overflow:visible;enable-background:accumulate"
       d="M 282.37631,101.7247 C 288.39187,101.70142 294.40816,101.62516 300.4241,101.5943 C 300.48199,110.41884 300.76913,119.24095 300.7197,128.06619 C 292.04875,128.05614 283.3603,128.26658 274.69989,128.20531 C 274.67149,119.38993 274.62523,110.57469 274.58691,101.7595 C 277.18338,101.74838 279.78009,101.77054 282.37631,101.7247 z "
 />    <path
       id="113"       style="opacity:1;color:#000000;fill:#e8e2b7;fill-opacity:1;fill-rule:evenodd;stroke:#000000;stroke-width:0.49983701;stroke-linecap:butt;stroke-linejoin:miter;marker:none;marker-start:none;marker-mid:none;marker-end:none;stroke-miterlimit:4;stroke-dasharray:none;stroke-dashoffset:0;stroke-opacity:1;visibility:visible;display:inline;overflow:visible;enable-background:accumulate"
       d="M 214.4277,101.7769 C 218.53831,103.07402 214.85325,111.89168 216.02506,116.12216 C 214.95102,120.85672 219.26031,130.87496 210.9068,128.2487 C 203.94393,128.15107 196.82867,128.19321 189.9554,127.9966 C 189.9597,119.18537 190.10379,110.38796 190.32919,101.577 C 198.36325,101.61583 206.39158,101.79157 214.4277,101.7769 z "
 />    <path
       id="007"       style="opacity:1;color:#000000;fill:#e8e2b7;fill-opacity:1;fill-rule:evenodd;stroke:#000000;stroke-width:0.49983701;stroke-linecap:butt;stroke-linejoin:miter;marker:none;marker-start:none;marker-mid:none;marker-end:none;stroke-miterlimit:4;stroke-dasharray:none;stroke-dashoffset:0;stroke-opacity:1;visibility:visible;display:inline;overflow:visible;enable-background:accumulate"
       d="M 35.4799,100.7076 C 43.478879,98.428595 40.136316,106.69253 40.605681,111.45393 C 40.179755,115.45829 40.925399,121.13236 39.479,124.2149 C 26.816774,123.8496 14.146533,123.29416 1.4881999,122.7023 C 1.8608825,114.94864 2.156823,107.19179 2.5314,99.438301 C 13.511926,99.914762 24.496313,100.48323 35.4799,100.7076 z "
 />    <path
       id="177"       style="opacity:1;color:#000000;fill:#e8e2b7;fill-opacity:1;fill-rule:evenodd;stroke:#000000;stroke-width:0.49983701;stroke-linecap:butt;stroke-linejoin:miter;marker:none;marker-start:none;marker-mid:none;marker-end:none;stroke-miterlimit:4;stroke-dasharray:none;stroke-dashoffset:0;stroke-opacity:1;visibility:visible;display:inline;overflow:visible;enable-background:accumulate"
       d="M 432.3833,103.0201 C 437.6876,103.2105 444.03288,101.80732 448.57071,103.1331 C 451.98045,104.96281 446.36264,108.92407 450.88309,110.2357 C 449.22952,112.47863 451.29207,115.53095 453.63901,115.5909 C 452.8661,111.46031 457.2044,112.76329 455.8298,115.8344 C 452.47042,118.78754 458.50228,118.51847 460.03741,119.1379 C 460.27367,121.55029 460.26448,125.71645 456.24701,124.354 C 449.99285,124.62934 443.73427,124.82725 437.47769,125.0495 C 438.45777,120.20678 433.36857,121.89864 432.90589,118.54746 C 429.16181,116.50947 430.95551,108.41845 430.1925,103.0896 L 431.29692,103.05457 L 432.3833,103.0201 z "
 />    <path
       id="125"       style="opacity:1;color:#000000;fill:#e8e2b7;fill-opacity:1;fill-rule:evenodd;stroke:#000000;stroke-width:0.49983701;stroke-linecap:butt;stroke-linejoin:miter;marker:none;marker-start:none;marker-mid:none;marker-end:none;stroke-miterlimit:4;stroke-dasharray:none;stroke-dashoffset:0;stroke-opacity:1;visibility:visible;display:inline;overflow:visible;enable-background:accumulate"
       d="M 359.75751,121.3808 C 359.2246,125.20076 361.30041,131.41209 359.00989,133.67349 C 355.32678,134.1713 349.97374,133.02868 348.0386,135.0471 C 343.73763,135.02503 339.26311,135.05631 337.58899,137.5247 C 334.52981,136.80679 329.06392,138.93997 327.74784,136.55017 C 328.4889,130.24977 326.22703,127.10073 326.60901,121.12 C 332.24057,121.55151 336.19339,120.48096 340.6839,119.7291 C 343.72941,117.67683 349.79023,118.42612 353.67272,117.18105 C 357.95014,117.23387 360.74998,115.52756 359.75751,121.3808 z "
 />    <path
       id="023"       style="opacity:1;color:#000000;fill:#e8e2b7;fill-opacity:1;fill-rule:evenodd;stroke:#000000;stroke-width:0.49983701;stroke-linecap:butt;stroke-linejoin:miter;marker:none;marker-start:none;marker-mid:none;marker-end:none;stroke-miterlimit:4;stroke-dasharray:none;stroke-dashoffset:0;stroke-opacity:1;visibility:visible;display:inline;overflow:visible;enable-background:accumulate"
       d="M 404.79001,121.4069 C 404.78067,131.61358 405.42372,142.48381 405.40729,152.64281 C 396.76339,152.86975 388.12097,153.09889 379.4744,153.2774 C 379.47863,144.55349 378.63587,134.8805 379.10931,126.7013 C 381.98939,127.75096 385.54203,128.04179 388.707,127.3707 C 392.49812,128.858 395.20335,124.40799 399.0697,124.78 C 400.68045,123.37029 402.41453,121.40672 404.79001,121.4069 z "
 />    <path
       id="155"       style="opacity:1;color:#000000;fill:#e8e2b7;fill-opacity:1;fill-rule:evenodd;stroke:#000000;stroke-width:0.49983701;stroke-linecap:butt;stroke-linejoin:miter;marker:none;marker-start:none;marker-mid:none;marker-end:none;stroke-miterlimit:4;stroke-dasharray:none;stroke-dashoffset:0;stroke-opacity:1;visibility:visible;display:inline;overflow:visible;enable-background:accumulate"
       d="M 405.25949,121.4938 C 408.28189,122.45869 410.78284,121.74397 413.77911,121.8677 C 417.6743,125.34934 424.09588,119.40799 427.4454,124.9539 C 430.4934,125.60816 433.64626,127.89954 433.44391,131.4566 C 436.08479,132.60798 437.25434,135.41367 435.99979,137.8551 C 437.55444,140.16159 439.24045,142.46734 438.92081,145.5054 C 437.543,147.13688 438.67689,150.72466 438.21671,151.6691 C 438.62714,154.11609 430.21772,156.33855 430.78369,151.9212 C 422.37087,152.16668 413.95624,152.42049 405.5463,152.64281 C 405.57396,142.25992 404.20575,131.6972 405.25949,121.4938 z "
 />    <path
       id="033"       style="opacity:1;color:#000000;fill:#e8e2b7;fill-opacity:1;fill-rule:evenodd;stroke:#000000;stroke-width:0.49983701;stroke-linecap:butt;stroke-linejoin:miter;marker:none;marker-start:none;marker-mid:none;marker-end:none;stroke-miterlimit:4;stroke-dasharray:none;stroke-dashoffset:0;stroke-opacity:1;visibility:visible;display:inline;overflow:visible;enable-background:accumulate"
       d="M 74.957298,122.0589 C 82.457828,120.80204 83.13459,126.00963 82.677101,132.1608 C 82.288383,140.10188 82.519616,148.61363 81.329597,155.6768 C 66.960954,155.20895 52.264464,154.89701 38.122799,154.0685 C 39.469168,144.59507 38.629976,132.86425 40.000599,123.5716 C 40.287412,117.89124 50.111256,122.76777 54.318802,121.4069 C 61.196707,121.6801 68.077061,121.85462 74.957298,122.0589 z "
 />    <path
       id="143"       style="opacity:1;color:#000000;fill:#e8e2b7;fill-opacity:1;fill-rule:evenodd;stroke:#000000;stroke-width:0.49983701;stroke-linecap:butt;stroke-linejoin:miter;marker:none;marker-start:none;marker-mid:none;marker-end:none;stroke-miterlimit:4;stroke-dasharray:none;stroke-dashoffset:0;stroke-opacity:1;visibility:visible;display:inline;overflow:visible;enable-background:accumulate"
       d="M 378.82239,126.6578 C 379.04341,135.53085 379.26414,144.40392 379.4744,153.2774 C 370.77149,153.4933 362.07164,153.70824 353.36771,153.86861 C 352.81439,147.86711 352.82711,142.71166 357.3233,138.707 C 360.65761,136.15074 362.14098,133.44771 365.95599,132.91721 C 365.47203,130.55649 369.47407,130.94828 370.64182,129.2659 C 373.70863,129.52812 376.42857,127.46012 378.82239,126.6578 z "
 />    <path
       id="101"       style="opacity:1;color:#000000;fill:#e8e2b7;fill-opacity:1;fill-rule:evenodd;stroke:#000000;stroke-width:0.49983701;stroke-linecap:butt;stroke-linejoin:miter;marker:none;marker-start:none;marker-mid:none;marker-end:none;stroke-miterlimit:4;stroke-dasharray:none;stroke-dashoffset:0;stroke-opacity:1;visibility:visible;display:inline;overflow:visible;enable-background:accumulate"
       d="M 153.0687,127.3707 C 162.07706,124.8738 157.27777,135.59151 158.30336,140.75445 C 158.91177,144.85511 156.69873,151.75619 159.15494,154.09383 C 160.54633,160.51477 151.03427,156.09861 147.1832,157.2851 C 136.00538,157.0211 124.82547,156.89612 113.6522,156.48531 C 113.42435,146.85 114.0294,136.52904 114.1912,126.5622 C 127.1471,126.94179 140.10952,127.11754 153.0687,127.3707 z "
 />    <path
       id="121"       style="opacity:1;color:#000000;fill:#e8e2b7;fill-opacity:1;fill-rule:evenodd;stroke:#000000;stroke-width:0.49983701;stroke-linecap:butt;stroke-linejoin:miter;marker:none;marker-start:none;marker-mid:none;marker-end:none;stroke-miterlimit:4;stroke-dasharray:none;stroke-dashoffset:0;stroke-opacity:1;visibility:visible;display:inline;overflow:visible;enable-background:accumulate"
       d="M 361.8526,127.0316 C 366.75677,124.40674 366.97921,131.46435 365.1214,133.291 C 361.46904,133.69169 358.99563,137.35554 356.03648,140.34672 C 353.35161,144.2178 349.87626,150.77085 344.8046,150.7476 C 341.4973,152.89262 339.65106,157.09639 336.1893,158.0154 C 333.86807,161.59232 329.87953,164.07113 327.79141,167.5435 C 327.53174,154.25771 327.0101,141.27941 326.97421,127.7619 C 328.92446,130.98667 325.27185,140.12974 332.86825,137.52917 C 336.4917,137.84049 338.76382,137.00125 340.29269,135.25571 C 344.46197,135.22143 348.43202,135.16662 351.1683,133.9082 C 355.57537,133.59472 362.4582,135.46297 359.89708,128.40205 C 359.06027,126.52139 360.88956,127.19077 361.8526,127.0316 z "
 />    <path
       id="111"       style="opacity:1;color:#000000;fill:#e8e2b7;fill-opacity:1;fill-rule:evenodd;stroke:#000000;stroke-width:0.49983701;stroke-linecap:butt;stroke-linejoin:miter;marker:none;marker-start:none;marker-mid:none;marker-end:none;stroke-miterlimit:4;stroke-dasharray:none;stroke-dashoffset:0;stroke-opacity:1;visibility:visible;display:inline;overflow:visible;enable-background:accumulate"
       d="M 158.5369,127.5011 C 177.98899,127.82877 197.44092,128.22943 216.89661,128.28349 C 217.01352,137.12574 216.7069,145.96397 216.62711,154.8075 C 218.41175,158.2305 216.8169,164.92664 217.3313,169.61259 C 217.33853,173.50614 217.31984,177.3994 217.3139,181.29671 C 197.8357,181.22783 178.36231,180.88202 158.8847,180.8446 C 159.16876,171.93053 159.09058,163.01192 159.2063,154.0946 C 156.64614,152.20584 158.90876,145.58915 158.28481,141.8541 C 158.36147,137.06959 158.45264,132.28546 158.5369,127.5011 z "
 />    <path
       id="path2768"       style="opacity:1;color:#000000;fill:#e4744f;fill-opacity:1;fill-rule:evenodd;stroke:#000000;stroke-width:0.49983701;stroke-linecap:butt;stroke-linejoin:miter;marker:none;marker-start:none;marker-mid:none;marker-end:none;stroke-miterlimit:4;stroke-dasharray:none;stroke-dashoffset:0;stroke-opacity:1;visibility:visible;display:inline;overflow:visible;enable-background:accumulate"
       d="M 39.557201,124.2149 C 39.127148,134.19213 39.22411,144.79436 38.114101,154.1989 C 25.43582,153.76598 12.743479,153.15936 0.0625,152.64281 C 0.7680563,142.80347 0.47778163,131.7659 1.9316,122.737 C 14.47026,123.28912 27.015835,123.87008 39.557201,124.2149 z "
 />    <path
       id="163"       style="opacity:1;color:#000000;fill:#e8e2b7;fill-opacity:1;fill-rule:evenodd;stroke:#000000;stroke-width:0.49983701;stroke-linecap:butt;stroke-linejoin:miter;marker:none;marker-start:none;marker-mid:none;marker-end:none;stroke-miterlimit:4;stroke-dasharray:none;stroke-dashoffset:0;stroke-opacity:1;visibility:visible;display:inline;overflow:visible;enable-background:accumulate"
       d="M 297.25101,128.0575 C 302.73152,126.48564 300.73062,132.11735 301.05869,135.73563 C 301.05436,142.04603 301.07352,148.3359 301.15439,154.63361 C 292.47152,154.70629 283.78561,154.74821 275.09979,154.7988 C 275.16058,145.94728 275.24089,137.09926 275.21289,128.2487 C 282.55874,128.17693 289.905,128.16814 297.25101,128.0575 z "
 />    <path
       id="093"       style="opacity:1;color:#000000;fill:#e8e2b7;fill-opacity:1;fill-rule:evenodd;stroke:#000000;stroke-width:0.49983701;stroke-linecap:butt;stroke-linejoin:miter;marker:none;marker-start:none;marker-mid:none;marker-end:none;stroke-miterlimit:4;stroke-dasharray:none;stroke-dashoffset:0;stroke-opacity:1;visibility:visible;display:inline;overflow:visible;enable-background:accumulate"
       d="M 301.83249,128.0314 C 310.20484,128.0102 318.59491,127.85277 326.97421,127.7619 C 327.09525,136.62027 327.22023,145.4792 327.33929,154.338 C 318.61178,154.48506 309.88232,154.52552 301.15439,154.63361 C 301.09023,145.78254 300.95141,136.91406 301.1283,128.0488 L 301.83249,128.0314 z "
 />    <path
       id="055"       style="opacity:1;color:#000000;fill:#e8e2b7;fill-opacity:1;fill-rule:evenodd;stroke:#000000;stroke-width:0.49983701;stroke-linecap:butt;stroke-linejoin:miter;marker:none;marker-start:none;marker-mid:none;marker-end:none;stroke-miterlimit:4;stroke-dasharray:none;stroke-dashoffset:0;stroke-opacity:1;visibility:visible;display:inline;overflow:visible;enable-background:accumulate"
       d="M 430.94891,125.2581 C 440.49378,124.96817 450.03541,124.61145 459.57669,124.2323 C 460.88176,126.51455 456.63408,129.05796 461.21109,129.73531 C 466.01334,131.87395 461.15491,133.12153 460.32431,131.9174 C 461.19188,133.98536 461.82754,136.63438 460.81979,139.28951 C 458.76686,140.28727 453.9672,139.64139 450.90921,140.0632 C 446.07321,139.59197 439.85092,142.40296 436.3389,138.8461 C 435.79105,136.52224 437.59056,133.37623 434.24371,132.04781 C 432.23939,130.41588 433.52192,126.58657 429.923,125.9971 C 428.56271,124.90238 430.51739,125.42849 430.94891,125.2581 z "
 />    <path
       id="049"       style="opacity:1;color:#000000;fill:#e8e2b7;fill-opacity:1;fill-rule:evenodd;stroke:#000000;stroke-width:0.49983701;stroke-linecap:butt;stroke-linejoin:miter;marker:none;marker-start:none;marker-mid:none;marker-end:none;stroke-miterlimit:4;stroke-dasharray:none;stroke-dashoffset:0;stroke-opacity:1;visibility:visible;display:inline;overflow:visible;enable-background:accumulate"
       d="M 110.0618,139.74159 C 117.00645,138.55724 112.50893,148.22921 113.5218,152.7036 C 116.08039,159.31306 107.17886,155.64294 103.4112,156.33749 C 96.051124,156.13189 88.685414,155.95351 81.329597,155.6768 C 82.084765,150.45412 82.359695,144.87533 82.451103,138.9418 C 91.655534,139.18081 100.85712,139.51385 110.0618,139.74159 z "
 />    <path
       id="153"       style="opacity:1;color:#000000;fill:#e8e2b7;fill-opacity:1;fill-rule:evenodd;stroke:#000000;stroke-width:0.49983701;stroke-linecap:butt;stroke-linejoin:miter;marker:none;marker-start:none;marker-mid:none;marker-end:none;stroke-miterlimit:4;stroke-dasharray:none;stroke-dashoffset:0;stroke-opacity:1;visibility:visible;display:inline;overflow:visible;enable-background:accumulate"
       d="M 460.00269,139.672 C 461.61664,140.34326 466.72652,138.80642 465.05359,141.4368 C 460.80563,141.109 466.85098,146.93372 463.9147,148.8176 C 463.92922,151.24392 459.46508,148.49577 457.7684,150.3564 C 452.19457,146.87447 449.39936,154.63825 444.5542,155.22479 C 442.74346,152.74785 438.48227,153.46038 437.9472,149.4001 C 438.01708,147.03449 439.83508,145.41474 438.56439,142.7061 C 437.12952,138.32331 445.06679,141.41911 447.70129,140.1676 C 451.8038,140.03988 455.90263,139.8481 460.00269,139.672 z "
 />    <path
       id="081"       style="opacity:1;color:#000000;fill:#e8e2b7;fill-opacity:1;fill-rule:evenodd;stroke:#000000;stroke-width:0.49983701;stroke-linecap:butt;stroke-linejoin:miter;marker:none;marker-start:none;marker-mid:none;marker-end:none;stroke-miterlimit:4;stroke-dasharray:none;stroke-dashoffset:0;stroke-opacity:1;visibility:visible;display:inline;overflow:visible;enable-background:accumulate"
       d="M 353.19391,145.00121 C 353.49246,156.78658 353.83026,168.59855 354.0285,180.47951 C 345.34084,180.67308 336.65448,180.82876 327.96521,180.9489 C 328.40458,174.61592 325.69564,167.07135 331.75562,162.7534 C 334.78449,160.58171 336.17374,157.26938 339.37991,156.17239 C 341.66493,153.23669 344.16907,150.54715 347.49091,149.96519 C 349.99661,150.37561 352.94746,143.67482 353.19391,145.00121 z "
 />    <path
       id="025"       style="opacity:1;color:#000000;fill:#e8e2b7;fill-opacity:1;fill-rule:evenodd;stroke:#000000;stroke-width:0.49983701;stroke-linecap:butt;stroke-linejoin:miter;marker:none;marker-start:none;marker-mid:none;marker-end:none;stroke-miterlimit:4;stroke-dasharray:none;stroke-dashoffset:0;stroke-opacity:1;visibility:visible;display:inline;overflow:visible;enable-background:accumulate"
       d="M 454.59531,149.4783 C 458.08239,151.30693 462.3151,147.67947 465.06229,151.36481 C 462.3746,154.77928 468.88521,154.57309 466.55759,157.8241 C 465.66896,160.16923 470.65299,162.93599 466.54889,163.9705 C 466.12152,166.04554 466.8702,168.41194 467.28781,170.56889 C 455.34304,170.9526 443.40169,171.56671 431.45309,171.88161 C 431.2472,165.96966 431.05206,160.05804 430.85321,154.1468 C 435.93696,155.99839 436.71558,151.91468 439.16431,151.9299 C 441.53309,153.03422 443.88084,155.40171 446.23209,154.8075 C 449.55804,153.4202 450.71595,149.75803 454.59531,149.4783 z "
 />    <path
       id="047"       style="opacity:1;color:#000000;fill:#e8e2b7;fill-opacity:1;fill-rule:evenodd;stroke:#000000;stroke-width:0.49983701;stroke-linecap:butt;stroke-linejoin:miter;marker:none;marker-start:none;marker-mid:none;marker-end:none;stroke-miterlimit:4;stroke-dasharray:none;stroke-dashoffset:0;stroke-opacity:1;visibility:visible;display:inline;overflow:visible;enable-background:accumulate"
       d="M 230.4064,154.7988 C 241.17916,154.89361 251.93821,154.94464 262.71161,154.8857 C 263.09651,164.35534 262.09297,175.08335 263.28531,183.6265 C 258.00756,182.59932 252.11382,183.85374 247.0284,181.4097 C 237.24217,181.18046 226.64474,181.78568 217.3139,181.02721 C 217.32041,172.28612 217.35342,163.55083 217.4095,154.8075 C 221.74193,154.77429 226.07523,154.87544 230.4064,154.7988 z "
 />    <path
       id="019"       style="opacity:1;color:#000000;fill:#e8e2b7;fill-opacity:1;fill-rule:evenodd;stroke:#000000;stroke-width:0.49983701;stroke-linecap:butt;stroke-linejoin:miter;marker:none;marker-start:none;marker-mid:none;marker-end:none;stroke-miterlimit:4;stroke-dasharray:none;stroke-dashoffset:0;stroke-opacity:1;visibility:visible;display:inline;overflow:visible;enable-background:accumulate"
       d="M 282.12421,154.75529 C 288.97066,154.72919 295.81397,154.66964 302.65839,154.62489 C 302.63145,163.62096 303.1133,173.22599 302.79749,181.92261 C 297.33141,182.64315 292.68169,185.71142 286.82739,184.85229 C 278.898,184.71771 271.0959,183.92992 263.52011,183.82651 C 261.80382,175.40317 263.23928,164.40545 262.71161,154.8857 C 269.18231,154.82384 275.65342,154.8102 282.12421,154.75529 z "
 />    <path
       id="185"       style="opacity:1;color:#000000;fill:#e8e2b7;fill-opacity:1;fill-rule:evenodd;stroke:#000000;stroke-width:0.49983701;stroke-linecap:butt;stroke-linejoin:miter;marker:none;marker-start:none;marker-mid:none;marker-end:none;stroke-miterlimit:4;stroke-dasharray:none;stroke-dashoffset:0;stroke-opacity:1;visibility:visible;display:inline;overflow:visible;enable-background:accumulate"
       d="M 378.39639,153.3035 C 380.83975,155.6723 379.05824,162.46256 379.79611,166.6046 C 379.68248,170.92968 380.40465,176.08272 379.81351,179.93179 C 371.21906,180.12649 362.62379,180.31346 354.0285,180.47951 C 353.84589,171.61209 353.6703,162.74448 353.46341,153.8773 C 361.77663,153.69948 370.08506,153.51832 378.39639,153.3035 z "
 />    <path
       id="159"       style="opacity:1;color:#000000;fill:#e8e2b7;fill-opacity:1;fill-rule:evenodd;stroke:#000000;stroke-width:0.49983701;stroke-linecap:butt;stroke-linejoin:miter;marker:none;marker-start:none;marker-mid:none;marker-end:none;stroke-miterlimit:4;stroke-dasharray:none;stroke-dashoffset:0;stroke-opacity:1;visibility:visible;display:inline;overflow:visible;enable-background:accumulate"
       d="M 380.5524,153.25999 C 388.83932,153.07323 397.12268,152.86387 405.40729,152.64281 C 405.64146,161.49873 406.10126,170.63397 406.0419,179.2711 C 397.51763,179.24336 387.98144,180.28234 380.1004,179.53191 C 379.88021,170.78051 379.70573,162.02878 379.4744,153.2774 L 380.5524,153.25999 z "
 />    <path
       id="079"       style="opacity:1;color:#000000;fill:#e8e2b7;fill-opacity:1;fill-rule:evenodd;stroke:#000000;stroke-width:0.49983701;stroke-linecap:butt;stroke-linejoin:miter;marker:none;marker-start:none;marker-mid:none;marker-end:none;stroke-miterlimit:4;stroke-dasharray:none;stroke-dashoffset:0;stroke-opacity:1;visibility:visible;display:inline;overflow:visible;enable-background:accumulate"
       d="M 303.745,154.6075 C 311.69957,154.49862 319.6551,154.48479 327.6088,154.3293 C 327.70925,163.20299 327.86779,172.07459 327.96521,180.9489 C 319.6767,180.97262 310.97488,181.40567 302.95389,181.0446 C 302.82194,172.23707 302.78727,163.42939 302.65839,154.62489 L 303.7016,154.6075 L 303.745,154.6075 z "
 />    <path
       id="109"       style="opacity:1;color:#000000;fill:#e8e2b7;fill-opacity:1;fill-rule:evenodd;stroke:#000000;stroke-width:0.49983701;stroke-linecap:butt;stroke-linejoin:miter;marker:none;marker-start:none;marker-mid:none;marker-end:none;stroke-miterlimit:4;stroke-dasharray:none;stroke-dashoffset:0;stroke-opacity:1;visibility:visible;display:inline;overflow:visible;enable-background:accumulate"
       d="M 405.5463,152.64281 C 413.95628,152.42091 422.37086,152.16686 430.78369,151.9212 C 431.22135,165.23022 431.66872,178.54079 432.13989,191.8506 C 423.85527,191.52873 413.76458,193.40458 406.4505,192.02451 C 406.11404,178.95723 405.72377,165.58641 405.5463,152.64281 z "
 />    <path
       id="135"       style="opacity:1;color:#000000;fill:#e8e2b7;fill-opacity:1;fill-rule:evenodd;stroke:#000000;stroke-width:0.49983701;stroke-linecap:butt;stroke-linejoin:miter;marker:none;marker-start:none;marker-mid:none;marker-end:none;stroke-miterlimit:4;stroke-dasharray:none;stroke-dashoffset:0;stroke-opacity:1;visibility:visible;display:inline;overflow:visible;enable-background:accumulate"
       d="M 123.3803,156.7635 C 135.2117,157.24767 147.81103,156.94824 159.15421,157.7198 C 159.11853,165.42906 159.13367,173.13862 158.8847,180.8446 C 143.61406,180.51017 128.3545,180.01955 113.0784,179.9144 C 113.28816,172.10521 113.44751,164.29436 113.6522,156.48531 C 116.89199,156.65937 120.13895,156.66916 123.3803,156.7635 z "
 />    <path
       id="131"       style="opacity:1;color:#000000;fill:#e8e2b7;fill-opacity:1;fill-rule:evenodd;stroke:#000000;stroke-width:0.49983701;stroke-linecap:butt;stroke-linejoin:miter;marker:none;marker-start:none;marker-mid:none;marker-end:none;stroke-miterlimit:4;stroke-dasharray:none;stroke-dashoffset:0;stroke-opacity:1;visibility:visible;display:inline;overflow:visible;enable-background:accumulate"
       d="M 464.10599,170.65581 C 466.43452,170.00742 468.59453,170.9526 465.6795,172.29021 C 462.71772,174.07539 465.78812,176.0805 466.83578,177.75841 C 467.55474,180.38476 472.15658,179.53484 471.78241,183.14841 C 474.38916,184.62585 469.80149,186.52336 471.991,188.60789 C 474.0075,191.60768 476.09125,189.39975 469.9133,190.4249 C 457.32436,190.93587 444.73305,191.42354 432.13989,191.8506 C 431.91037,185.19631 431.65684,178.52263 431.46179,171.88161 C 442.3461,171.56764 453.22595,171.10039 464.10599,170.65581 z "
 />    <path
       id="063"       style="opacity:1;color:#000000;fill:#e8e2b7;fill-opacity:1;fill-rule:evenodd;stroke:#000000;stroke-width:0.49983701;stroke-linecap:butt;stroke-linejoin:miter;marker:none;marker-start:none;marker-mid:none;marker-end:none;stroke-miterlimit:4;stroke-dasharray:none;stroke-dashoffset:0;stroke-opacity:1;visibility:visible;display:inline;overflow:visible;enable-background:accumulate"
       d="M 204.8735,181.2097 C 213.60975,181.32066 222.37346,181.2872 231.0932,181.401 C 231.08847,188.07504 231.03935,194.74815 231.0584,201.4222 C 221.12605,197.02089 228.03409,209.51218 220.97391,208.0815 C 209.12755,208.06968 197.27636,207.91752 185.4173,207.8728 C 185.27247,198.96431 185.02649,189.77367 185.7912,181.0359 C 192.15085,181.1127 198.51286,181.17745 204.8735,181.2097 z "
 />    <path
       id="085"       style="opacity:1;color:#000000;fill:#e8e2b7;fill-opacity:1;fill-rule:evenodd;stroke:#000000;stroke-width:0.49983701;stroke-linecap:butt;stroke-linejoin:miter;marker:none;marker-start:none;marker-mid:none;marker-end:none;stroke-miterlimit:4;stroke-dasharray:none;stroke-dashoffset:0;stroke-opacity:1;visibility:visible;display:inline;overflow:visible;enable-background:accumulate"
       d="M 175.16769,180.9055 C 178.60519,182.10103 187.49219,178.18334 185.4608,184.4437 C 185.28752,192.25069 185.15801,200.06867 185.4173,207.8728 C 174.61745,207.72209 163.81888,207.41451 153.01649,207.3251 C 153.1518,198.45903 153.20697,189.59814 153.3295,180.7316 C 160.60744,180.91574 167.88948,180.92222 175.16769,180.9055 z "
 />    <path
       id="029"       style="opacity:1;color:#000000;fill:#e8e2b7;fill-opacity:1;fill-rule:evenodd;stroke:#000000;stroke-width:0.49983701;stroke-linecap:butt;stroke-linejoin:miter;marker:none;marker-start:none;marker-mid:none;marker-end:none;stroke-miterlimit:4;stroke-dasharray:none;stroke-dashoffset:0;stroke-opacity:1;visibility:visible;display:inline;overflow:visible;enable-background:accumulate"
       d="M 136.1163,180.2361 C 141.7088,180.68836 148.3234,180.15963 153.3295,181.0793 C 153.19948,189.82987 153.15319,198.57498 153.01649,207.3251 C 139.51503,207.0785 125.72331,207.02992 112.4003,206.4558 C 112.63591,197.60978 112.83529,188.76114 113.0784,179.9144 C 120.75841,179.96637 128.43547,180.21266 136.1163,180.2361 z "
 />    <path
       id="073"       style="opacity:1;color:#000000;fill:#e8e2b7;fill-opacity:1;fill-rule:evenodd;stroke:#000000;stroke-width:0.49983701;stroke-linecap:butt;stroke-linejoin:miter;marker:none;marker-start:none;marker-mid:none;marker-end:none;stroke-miterlimit:4;stroke-dasharray:none;stroke-dashoffset:0;stroke-opacity:1;visibility:visible;display:inline;overflow:visible;enable-background:accumulate"
       d="M 237.4481,181.38361 C 241.39067,182.07487 248.5211,179.74368 250.38409,183.60049 C 250.41626,191.77005 250.25041,199.9395 250.4537,208.1075 C 241.80584,208.12727 233.16029,208.09064 224.51221,208.0554 C 220.45577,198.08114 232.98443,204.81244 231.0584,197.00233 C 231.33371,191.92413 230.47517,185.61648 231.61481,181.4097 C 233.55912,181.38999 235.50409,181.4009 237.4481,181.38361 z "
 />    <path
       id="001"       style="opacity:1;color:#000000;fill:#e8e2b7;fill-opacity:1;fill-rule:evenodd;stroke:#000000;stroke-width:0.49983701;stroke-linecap:butt;stroke-linejoin:miter;marker:none;marker-start:none;marker-mid:none;marker-end:none;stroke-miterlimit:4;stroke-dasharray:none;stroke-dashoffset:0;stroke-opacity:1;visibility:visible;display:inline;overflow:visible;enable-background:accumulate"
       d="M 302.78879,181.2097 C 311.27417,181.18216 319.75914,181.07296 328.24341,180.9489 C 328.33209,189.82216 328.53445,198.69537 328.62589,207.5685 C 320.11617,207.70741 311.60425,207.82042 303.09299,207.8902 C 302.97621,198.99767 302.89276,190.10335 302.78879,181.2097 z "
 />    <path
       id="059"       style="opacity:1;color:#000000;fill:#e8e2b7;fill-opacity:1;fill-rule:evenodd;stroke:#000000;stroke-width:0.49983701;stroke-linecap:butt;stroke-linejoin:miter;marker:none;marker-start:none;marker-mid:none;marker-end:none;stroke-miterlimit:4;stroke-dasharray:none;stroke-dashoffset:0;stroke-opacity:1;visibility:visible;display:inline;overflow:visible;enable-background:accumulate"
       d="M 364.91281,180.2448 C 369.98206,180.19498 375.04945,179.99881 380.1178,179.9231 C 380.32564,188.80096 380.52515,197.68198 380.75241,206.5601 C 372.05008,206.73402 363.3479,206.94444 354.64569,207.1252 C 354.46922,198.24322 354.27357,189.36159 354.08929,180.47951 C 357.69713,180.39896 361.30534,180.35171 364.91281,180.2448 z "
 />    <path
       id="035"       style="opacity:1;color:#000000;fill:#e8e2b7;fill-opacity:1;fill-rule:evenodd;stroke:#000000;stroke-width:0.49983701;stroke-linecap:butt;stroke-linejoin:miter;marker:none;marker-start:none;marker-mid:none;marker-end:none;stroke-miterlimit:4;stroke-dasharray:none;stroke-dashoffset:0;stroke-opacity:1;visibility:visible;display:inline;overflow:visible;enable-background:accumulate"
       d="M 354.08929,180.47951 C 354.27202,189.36162 354.47074,198.2432 354.64569,207.1252 C 345.97024,207.30147 337.29868,207.40534 328.62589,207.5685 C 328.53428,198.69537 328.33212,189.82215 328.24341,180.9489 C 336.8601,180.82083 345.4741,180.6714 354.08929,180.47951 z "
 />    <path
       id="151"       style="opacity:1;color:#000000;fill:#e8e2b7;fill-opacity:1;fill-rule:evenodd;stroke:#000000;stroke-width:0.49983701;stroke-linecap:butt;stroke-linejoin:miter;marker:none;marker-start:none;marker-mid:none;marker-end:none;stroke-miterlimit:4;stroke-dasharray:none;stroke-dashoffset:0;stroke-opacity:1;visibility:visible;display:inline;overflow:visible;enable-background:accumulate"
       d="M 380.1178,179.9231 C 388.58874,180.04302 398.24384,178.90581 406.0506,179.6884 C 406.23338,188.3588 406.81553,197.47089 406.66779,205.9081 C 398.03117,206.19852 389.38969,206.36078 380.75241,206.5601 C 380.52473,197.68201 380.32654,188.8009 380.1178,179.9231 z "
 />    <path
       id="099"       style="opacity:1;color:#000000;fill:#e8e2b7;fill-opacity:1;fill-rule:evenodd;stroke:#000000;stroke-width:0.49983701;stroke-linecap:butt;stroke-linejoin:miter;marker:none;marker-start:none;marker-mid:none;marker-end:none;stroke-miterlimit:4;stroke-dasharray:none;stroke-dashoffset:0;stroke-opacity:1;visibility:visible;display:inline;overflow:visible;enable-background:accumulate"
       d="M 281.54181,184.64371 C 287.51705,184.95678 293.67697,185.24716 298.9201,182.66161 C 303.90904,180.27053 302.87865,185.45152 302.8757,189.3643 C 302.84758,195.48291 303.22517,202.04474 302.92789,207.8902 C 294.28165,207.98921 285.6336,208.02321 276.9863,208.0728 C 276.96396,200.1674 276.89158,192.26221 276.86459,184.3568 C 278.3838,184.45738 279.97989,184.94002 281.54181,184.64371 z "
 />    <path
       id="137"       style="opacity:1;color:#000000;fill:#e8e2b7;fill-opacity:1;fill-rule:evenodd;stroke:#000000;stroke-width:0.49983701;stroke-linecap:butt;stroke-linejoin:miter;marker:none;marker-start:none;marker-mid:none;marker-end:none;stroke-miterlimit:4;stroke-dasharray:none;stroke-dashoffset:0;stroke-opacity:1;visibility:visible;display:inline;overflow:visible;enable-background:accumulate"
       d="M 250.38409,182.5659 C 255.7073,183.20718 261.15793,183.12813 266.23239,183.95689 C 269.78725,183.47515 273.27284,184.77231 276.86459,184.3568 C 276.89085,192.26221 276.96528,200.16739 276.9863,208.0728 C 268.13947,208.13552 259.30055,208.12086 250.4537,208.1075 C 250.24993,199.59489 250.42326,191.07925 250.38409,182.5659 z "
 />    <path
       id="127"       style="opacity:1;color:#000000;fill:#e8e2b7;fill-opacity:1;fill-rule:evenodd;stroke:#000000;stroke-width:0.49983701;stroke-linecap:butt;stroke-linejoin:miter;marker:none;marker-start:none;marker-mid:none;marker-end:none;stroke-miterlimit:4;stroke-dasharray:none;stroke-dashoffset:0;stroke-opacity:1;visibility:visible;display:inline;overflow:visible;enable-background:accumulate"
       d="M 459.15939,190.85091 C 464.51584,190.06605 471.57888,191.43541 476.00751,189.4077 C 475.53522,183.82446 481.44858,191.1497 476.0596,191.442 C 478.02921,191.86938 474.63913,194.39305 477.58969,195.1889 C 479.95596,194.08386 479.34402,197.53472 478.30249,198.2838 C 478.49325,200.81804 482.88799,204.22499 478.89371,205.64729 C 479.36591,207.57276 482.78778,205.17001 484.3793,207.1078 C 487.27189,211.41857 479.63553,209.48785 477.11191,210.11658 C 469.93171,210.42696 462.75348,210.84483 455.569,210.9938 C 455.32933,204.32367 455.13743,197.72064 454.7952,191.0161 C 456.25012,190.95526 457.70607,190.92472 459.15939,190.85091 z "
 />    <path
       id="067"       style="opacity:1;color:#000000;fill:#e8e2b7;fill-opacity:1;fill-rule:evenodd;stroke:#000000;stroke-width:0.49983701;stroke-linecap:butt;stroke-linejoin:miter;marker:none;marker-start:none;marker-mid:none;marker-end:none;stroke-miterlimit:4;stroke-dasharray:none;stroke-dashoffset:0;stroke-opacity:1;visibility:visible;display:inline;overflow:visible;enable-background:accumulate"
       d="M 431.26181,191.87669 C 433.55477,194.70182 431.74574,201.78706 432.63541,206.1254 C 432.72396,214.59234 433.64439,223.9121 433.12219,231.7887 C 424.56421,232.09068 416.0022,232.30823 407.4415,232.5538 C 406.92071,219.09735 406.79845,205.96809 406.4592,192.60699 C 414.73136,192.49902 422.99123,192.02897 431.26181,191.87669 z "
 />    <path
       id="097"       style="opacity:1;color:#000000;fill:#e8e2b7;fill-opacity:1;fill-rule:evenodd;stroke:#000000;stroke-width:0.49983701;stroke-linecap:butt;stroke-linejoin:miter;marker:none;marker-start:none;marker-mid:none;marker-end:none;stroke-miterlimit:4;stroke-dasharray:none;stroke-dashoffset:0;stroke-opacity:1;visibility:visible;display:inline;overflow:visible;enable-background:accumulate"
       d="M 453.6564,191.0508 C 456.27172,193.28167 454.5832,200.15184 455.36899,204.3345 C 456.83643,210.12184 454.37406,212.14788 448.6402,211.2285 C 443.36868,211.46846 438.0899,211.54006 432.81799,211.79359 C 432.75726,205.22974 431.99465,197.98455 432.392,191.8506 C 439.48121,191.60606 446.56945,191.35631 453.6564,191.0508 z "
 />    <path
       id="145"       style="opacity:1;color:#000000;fill:#e8e2b7;fill-opacity:1;fill-rule:evenodd;stroke:#000000;stroke-width:0.49983701;stroke-linecap:butt;stroke-linejoin:miter;marker:none;marker-start:none;marker-mid:none;marker-end:none;stroke-miterlimit:4;stroke-dasharray:none;stroke-dashoffset:0;stroke-opacity:1;visibility:visible;display:inline;overflow:visible;enable-background:accumulate"
       d="M 208.0466,207.9337 C 211.44687,208.35274 215.99973,207.63863 218.6353,208.6205 C 218.70747,217.30028 218.9797,226.42435 218.53101,234.79671 C 207.74482,234.68687 196.95723,234.64619 186.17371,234.4576 C 186.3529,225.58844 186.13956,216.74757 186.4953,207.8815 C 193.68045,207.94833 200.86359,208.03581 208.0466,207.9337 z "
 />    <path
       id="065"       style="opacity:1;color:#000000;fill:#e8e2b7;fill-opacity:1;fill-rule:evenodd;stroke:#000000;stroke-width:0.49983701;stroke-linecap:butt;stroke-linejoin:miter;marker:none;marker-start:none;marker-mid:none;marker-end:none;stroke-miterlimit:4;stroke-dasharray:none;stroke-dashoffset:0;stroke-opacity:1;visibility:visible;display:inline;overflow:visible;enable-background:accumulate"
       d="M 230.46719,208.0728 C 237.3527,208.12243 244.23704,208.112 251.12309,208.1075 C 251.14879,217.02199 251.12778,225.93437 251.2709,234.84891 C 240.4217,234.88044 229.57282,234.85036 218.72231,234.78799 C 218.74559,225.90401 218.81852,217.00522 218.6266,208.1162 C 222.57318,208.03045 226.52032,208.06842 230.46719,208.0728 z "
 />    <path
       id="083"       style="opacity:1;color:#000000;fill:#e8e2b7;fill-opacity:1;fill-rule:evenodd;stroke:#000000;stroke-width:0.49983701;stroke-linecap:butt;stroke-linejoin:miter;marker:none;marker-start:none;marker-mid:none;marker-end:none;stroke-miterlimit:4;stroke-dasharray:none;stroke-dashoffset:0;stroke-opacity:1;visibility:visible;display:inline;overflow:visible;enable-background:accumulate"
       d="M 251.12309,208.1075 C 259.74674,208.12444 268.36252,208.13195 276.9863,208.0728 C 276.74582,216.83046 277.65625,226.72767 276.6908,234.7619 C 268.21732,234.8169 259.74495,234.81462 251.2709,234.84891 C 251.13046,225.93453 251.15118,217.02188 251.12309,208.1075 z "
 />    <path
       id="087"       style="opacity:1;color:#000000;fill:#e8e2b7;fill-opacity:1;fill-rule:evenodd;stroke:#000000;stroke-width:0.49983701;stroke-linecap:butt;stroke-linejoin:miter;marker:none;marker-start:none;marker-mid:none;marker-end:none;stroke-miterlimit:4;stroke-dasharray:none;stroke-dashoffset:0;stroke-opacity:1;visibility:visible;display:inline;overflow:visible;enable-background:accumulate"
       d="M 166.3959,207.50771 C 173.09552,207.61941 179.79469,207.85291 186.4953,207.8815 C 186.14069,216.74754 186.36023,225.58815 186.17371,234.4576 C 175.32328,234.35664 164.47367,234.17583 153.62511,233.9621 C 154.15658,225.29656 153.02631,215.16348 154.6248,207.3512 C 158.54862,207.39453 162.47233,207.46409 166.3959,207.50771 z "
 />    <path
       id="129"       style="opacity:1;color:#000000;fill:#e8e2b7;fill-opacity:1;fill-rule:evenodd;stroke:#000000;stroke-width:0.49983701;stroke-linecap:butt;stroke-linejoin:miter;marker:none;marker-start:none;marker-mid:none;marker-end:none;stroke-miterlimit:4;stroke-dasharray:none;stroke-dashoffset:0;stroke-opacity:1;visibility:visible;display:inline;overflow:visible;enable-background:accumulate"
       d="M 343.9527,207.30769 C 347.28071,207.96875 353.29956,205.77032 354.86792,208.22994 C 355.01753,216.74952 355.2255,225.26751 355.31509,233.78819 C 346.64261,233.93593 337.87828,234.11439 329.26059,234.16209 C 329.15599,225.29803 329.02912,216.43302 328.89539,207.5685 C 333.91631,207.46795 338.93202,207.39972 343.9527,207.30769 z "
 />    <path
       id="061"       style="opacity:1;color:#000000;fill:#e8e2b7;fill-opacity:1;fill-rule:evenodd;stroke:#000000;stroke-width:0.49983701;stroke-linecap:butt;stroke-linejoin:miter;marker:none;marker-start:none;marker-mid:none;marker-end:none;stroke-miterlimit:4;stroke-dasharray:none;stroke-dashoffset:0;stroke-opacity:1;visibility:visible;display:inline;overflow:visible;enable-background:accumulate"
       d="M 280.73331,208.0554 C 288.13156,208.00624 295.53058,207.97817 302.92789,207.8902 C 303.0411,216.77568 303.18,225.65923 303.21469,234.5446 C 294.52648,234.61029 285.83928,234.69307 277.15149,234.7619 C 277.09464,225.86471 277.0396,216.96984 276.9863,208.0728 C 278.2353,208.0684 279.48429,208.05529 280.73331,208.0554 z "
 />    <path
       id="169"       style="opacity:1;color:#000000;fill:#e8e2b7;fill-opacity:1;fill-rule:evenodd;stroke:#000000;stroke-width:0.49983701;stroke-linecap:butt;stroke-linejoin:miter;marker:none;marker-start:none;marker-mid:none;marker-end:none;stroke-miterlimit:4;stroke-dasharray:none;stroke-dashoffset:0;stroke-opacity:1;visibility:visible;display:inline;overflow:visible;enable-background:accumulate"
       d="M 373.1629,206.7166 C 376.09621,207.27529 382.13493,204.60603 380.8219,209.6028 C 380.98949,217.47375 381.18945,225.34365 381.3609,233.21449 C 372.68031,233.44355 363.99408,233.61632 355.31509,233.78819 C 355.21813,224.89925 355.00483,216.01303 354.8457,207.1252 C 360.95113,206.97995 367.05747,206.86513 373.1629,206.7166 z "
 />    <path
       id="181"       style="opacity:1;color:#000000;fill:#e8e2b7;fill-opacity:1;fill-rule:evenodd;stroke:#000000;stroke-width:0.49983701;stroke-linecap:butt;stroke-linejoin:miter;marker:none;marker-start:none;marker-mid:none;marker-end:none;stroke-miterlimit:4;stroke-dasharray:none;stroke-dashoffset:0;stroke-opacity:1;visibility:visible;display:inline;overflow:visible;enable-background:accumulate"
       d="M 327.9826,207.57719 C 330.16202,210.53916 328.41676,217.50325 329.10397,221.98323 C 329.15293,226.05495 329.2194,230.12548 329.26059,234.19679 C 320.57915,234.35628 311.89412,234.41679 303.21469,234.5446 C 303.29798,225.72304 302.81029,216.43751 303.09299,207.8902 C 311.38972,207.81997 319.68744,207.71668 327.9826,207.57719 z "
 />    <path
       id="057"       style="opacity:1;color:#000000;fill:#e8e2b7;fill-opacity:1;fill-rule:evenodd;stroke:#000000;stroke-width:0.49983701;stroke-linecap:butt;stroke-linejoin:miter;marker:none;marker-start:none;marker-mid:none;marker-end:none;stroke-miterlimit:4;stroke-dasharray:none;stroke-dashoffset:0;stroke-opacity:1;visibility:visible;display:inline;overflow:visible;enable-background:accumulate"
       d="M 154.0771,207.3425 C 153.77636,216.09887 153.7619,225.10869 153.62511,233.9621 C 139.6576,233.76915 125.69536,233.39246 111.7309,233.0493 C 111.91998,224.21871 112.17463,215.38957 112.4003,206.5601 C 126.29085,206.90224 140.18476,207.15655 154.0771,207.3425 z "
 />    <path
       id="095"       style="opacity:1;color:#000000;fill:#e8e2b7;fill-opacity:1;fill-rule:evenodd;stroke:#000000;stroke-width:0.49983701;stroke-linecap:butt;stroke-linejoin:miter;marker:none;marker-start:none;marker-mid:none;marker-end:none;stroke-miterlimit:4;stroke-dasharray:none;stroke-dashoffset:0;stroke-opacity:1;visibility:visible;display:inline;overflow:visible;enable-background:accumulate"
       d="M 380.75241,206.5601 C 389.35152,206.49257 398.49472,205.88866 406.67651,206.1689 C 406.91181,214.96705 407.16876,223.76121 407.4415,232.5538 C 398.74858,232.81495 390.05526,233.05519 381.3609,233.21449 C 381.15924,224.32965 380.94951,215.44489 380.75241,206.5601 z "
 />    <path
       id="133"       style="opacity:1;color:#000000;fill:#e8e2b7;fill-opacity:1;fill-rule:evenodd;stroke:#000000;stroke-width:0.49983701;stroke-linecap:butt;stroke-linejoin:miter;marker:none;marker-start:none;marker-mid:none;marker-end:none;stroke-miterlimit:4;stroke-dasharray:none;stroke-dashoffset:0;stroke-opacity:1;visibility:visible;display:inline;overflow:visible;enable-background:accumulate"
       d="M 437.1908,211.61971 C 444.39967,211.43132 451.60136,211.06185 458.81161,210.92419 C 459.07313,217.56996 459.31163,224.21348 459.5593,230.85851 C 450.86762,231.21573 442.18914,231.49863 433.4874,231.78 C 433.22873,225.11894 433.08482,218.46959 432.81799,211.79359 C 434.2756,211.73579 435.73307,211.67447 437.1908,211.61971 z "
 />    <path
       id="147"       style="opacity:1;color:#000000;fill:#e8e2b7;fill-opacity:1;fill-rule:evenodd;stroke:#000000;stroke-width:0.49983701;stroke-linecap:butt;stroke-linejoin:miter;marker:none;marker-start:none;marker-mid:none;marker-end:none;stroke-miterlimit:4;stroke-dasharray:none;stroke-dashoffset:0;stroke-opacity:1;visibility:visible;display:inline;overflow:visible;enable-background:accumulate"
       d="M 479.22409,210.0201 C 482.755,210.06589 487.91194,209.04851 489.90839,212.1848 C 488.70242,214.76102 489.95887,216.57623 492.22961,217.8269 C 492.10943,220.01406 495.89496,219.4958 494.58551,221.9303 C 495.48685,223.95559 491.76635,224.84394 494.1683,226.92039 C 496.12907,227.49104 499.03761,226.53473 499.97549,229.1981 C 486.50628,229.80477 473.03371,230.3535 459.5593,230.85851 C 459.62384,224.34744 458.42415,216.67534 459.2811,210.89819 C 465.93103,210.66813 472.5762,210.30993 479.22409,210.0201 z "
 />  </g>
<circle cx="179.79986" cy="420.52234" r="11" fill="none" stroke="red" stroke-width="2" /></svg>
