<?xml version="1.0" encoding="UTF-8" standalone="no"?>
<!-- Created with Inkscape (http://www.inkscape.org/) -->

<svg
   xmlns:dc="http://purl.org/dc/elements/1.1/"
   xmlns:cc="http://creativecommons.org/ns#"
   xmlns:rdf="http://www.w3.org/1999/02/22-rdf-syntax-ns#"
   xmlns:svg="http://www.w3.org/2000/svg"
   xmlns="http://www.w3.org/2000/svg"
   xmlns:sodipodi="http://sodipodi.sourceforge.net/DTD/sodipodi-0.dtd"
   xmlns:inkscape="http://www.inkscape.org/namespaces/inkscape"
   version="1.1"
   width="601"
   height="601"
   id="svg3607"
   inkscape:version="0.48.4 r"
   sodipodi:docname="Knox County Route 11 OH.svg">
  <sodipodi:namedview
     pagecolor="#ffffff"
     bordercolor="#666666"
     borderopacity="1"
     objecttolerance="10"
     gridtolerance="10"
     guidetolerance="10"
     inkscape:pageopacity="0"
     inkscape:pageshadow="2"
     inkscape:window-width="652"
     inkscape:window-height="480"
     id="namedview6676"
     showgrid="false"
     inkscape:zoom="0.39267887"
     inkscape:cx="300.5"
     inkscape:cy="300.5"
     inkscape:window-x="0"
     inkscape:window-y="0"
     inkscape:window-maximized="0"
     inkscape:current-layer="svg3607" />
  <metadata
     id="metadata18">
    <rdf:RDF>
      <cc:Work
         rdf:about="">
        <dc:format>image/svg+xml</dc:format>
        <dc:type
           rdf:resource="http://purl.org/dc/dcmitype/StillImage" />
        <dc:title></dc:title>
      </cc:Work>
    </rdf:RDF>
  </metadata>
  <defs
     id="defs3609" />
  <g
     id="g3778">
    <rect
       width="600"
       height="600"
       rx="37.5"
       ry="37.5"
       x="0.50000018"
       y="0.50000179"
       id="rect3617"
       style="fill:#ffffff;fill-opacity:1;stroke:#000000;stroke-opacity:1" />
    <rect
       width="581.25"
       height="581.25"
       rx="28.125"
       ry="28.125"
       x="9.375"
       y="10.375"
       id="rect4130"
       style="fill:#000000;fill-opacity:1;stroke:none" />
    <rect
       width="550"
       height="550"
       rx="12.5"
       ry="12.5"
       x="25"
       y="26"
       id="rect3776"
       style="color:#000000;fill:#ffffff;fill-opacity:1;fill-rule:nonzero;stroke:none;stroke-width:1;marker:none;visibility:visible;display:inline;overflow:visible;enable-background:accumulate" />
  </g>
  <g
     style="font-size:373.13433838px;font-style:normal;font-variant:normal;font-weight:normal;font-stretch:normal;text-align:center;line-height:100%;writing-mode:lr-tb;text-anchor:middle;fill:#000000;fill-opacity:1;stroke:none;font-family:Roadgeek 2005 Series D;-inkscape-font-specification:Roadgeek 2005 Series D"
     id="text4136">
    <path
       d="m 229.75497,426.00003 0,-202.61195 -22.7612,0 0,-31.71641 2.61194,0 c 5.22385,2.3e-4 10.44773,-1.36793 15.67164,-4.10448 5.22384,-2.73608 9.57707,-6.5918 13.05971,-11.56717 l 31.71642,0 0,250.00001 -40.29851,0"
       style="fill:#000000"
       id="path6720" />
    <path
       d="m 347.08823,426.00003 0,-202.61195 -22.7612,0 0,-31.71641 2.61194,0 c 5.22385,2.3e-4 10.44773,-1.36793 15.67164,-4.10448 5.22384,-2.73608 9.57707,-6.5918 13.05971,-11.56717 l 31.71642,0 0,250.00001 -40.29851,0"
       style="fill:#000000"
       id="path6722" />
  </g>
  <text
     x="299"
     y="93"
     id="text4140"
     xml:space="preserve"
     style="font-size:12px;font-style:normal;font-variant:normal;font-weight:normal;font-stretch:normal;text-align:center;line-height:100%;writing-mode:lr-tb;text-anchor:middle;fill:none;stroke:#000000;stroke-width:1px;stroke-linecap:butt;stroke-linejoin:miter;stroke-opacity:1;font-family:Roadgeek 2005 Series D;-inkscape-font-specification:Roadgeek 2005 Series D"><tspan
       x="299"
       y="93"
       id="tspan4142" /></text>
  <g
     style="font-size:111.94029999px;font-style:normal;font-variant:normal;font-weight:normal;font-stretch:normal;text-align:center;line-height:100%;writing-mode:lr-tb;text-anchor:middle;fill:#000000;fill-opacity:1;stroke:none;font-family:Roadgeek 2005 Series D;-inkscape-font-specification:Roadgeek 2005 Series D"
     id="text4144">
    <path
       d="m 217.19283,125.99998 -19.02985,-35.485078 -7.83582,9.738808 0,25.74627 -11.86568,0 0,-75.000004 11.86568,0 0,29.77612 23.6194,-29.77612 15.33582,0 -23.17164,29.216418 24.7388,45.783586 -13.65671,0"
       style="fill:#000000"
       id="path6698" />
    <path
       d="m 284.35526,125.99998 -28.65672,-50.820899 0,50.820899 -11.86567,0 0,-75.000004 11.86567,0 27.31343,47.910449 0,-47.910449 11.86567,0 0,75.000004 -10.52238,0"
       style="fill:#000000"
       id="path6700" />
    <path
       d="m 364.30687,88.611917 c -6e-5,5.970181 -0.70902,11.679133 -2.12687,17.126863 -1.41797,5.44778 -3.43289,9.85076 -6.04477,13.20896 -4.17916,5.59701 -10.22393,8.39552 -18.13433,8.39552 -5.29854,0 -9.66421,-1.08209 -13.09702,-3.24627 -3.43285,-2.16417 -6.26867,-5.55969 -8.50746,-10.18657 -1.56718,-3.20894 -2.83583,-7.08953 -3.80597,-11.64179 -0.97016,-4.626834 -1.45523,-9.179068 -1.45523,-13.656713 0,-6.193986 0.70895,-11.940249 2.12687,-17.238806 1.49253,-5.298448 3.50745,-9.738742 6.04478,-13.320896 2.23879,-2.83575 4.88804,-4.9253 7.94776,-6.268657 3.1343,-1.417835 6.86564,-2.126789 11.19403,-2.126865 4.77608,7.6e-5 8.84324,1.082164 12.20149,3.246268 3.35816,2.16425 6.23129,5.559769 8.6194,10.186568 1.56711,3.358268 2.79845,7.276175 3.69403,11.753731 0.89547,4.477659 1.34323,9.067206 1.34329,13.768657 m -11.86567,0 c -5e-5,-4.25369 -0.37319,-8.171596 -1.11941,-11.753732 -0.74631,-3.656663 -1.86571,-6.753675 -3.35821,-9.291044 -1.19407,-1.940239 -2.57466,-3.358148 -4.14179,-4.253732 -1.49257,-0.895459 -3.35824,-1.417846 -5.59701,-1.567164 -2.91048,-0.149189 -5.33585,0.522452 -7.27612,2.014925 -1.94033,1.492598 -3.5448,3.917969 -4.81343,7.27612 -0.97018,2.238859 -1.71644,4.962736 -2.23881,8.171642 -0.44778,3.134372 -0.67166,6.268697 -0.67164,9.402985 -2e-5,4.029884 0.37311,7.910477 1.1194,11.641793 0.74625,3.73136 1.86565,6.79106 3.35821,9.1791 1.194,1.94032 2.61191,3.39554 4.25373,4.36567 1.64176,0.97016 3.65669,1.45524 6.04478,1.45523 2.76115,1e-5 5.03727,-0.74626 6.82836,-2.23881 1.86562,-1.49252 3.43279,-3.91789 4.70149,-7.27612 0.37309,-0.97013 0.74622,-2.12684 1.1194,-3.47015 0.37309,-1.41788 0.6716,-2.873104 0.89552,-4.365668 0.29846,-1.567135 0.52234,-3.134297 0.67165,-4.701493 0.1492,-1.56713 0.22383,-3.096979 0.22388,-4.589552"
       style="fill:#000000"
       id="path6702" />
    <path
       d="m 413.26676,125.99998 -12.08955,-24.96269 -12.08956,24.96269 -13.43283,0 18.69403,-38.731347 -17.35075,-36.268657 13.43284,0 10.74627,22.38806 10.74627,-22.38806 13.43283,0 -17.57463,36.268657 18.91791,38.731347 -13.43283,0"
       style="fill:#000000"
       id="path6704" />
  </g>
  <g
     style="font-size:111.94029999px;font-style:normal;font-variant:normal;font-weight:normal;font-stretch:normal;text-align:center;line-height:100%;writing-mode:lr-tb;text-anchor:middle;fill:#000000;fill-opacity:1;stroke:none;font-family:Roadgeek 2005 Series D;-inkscape-font-specification:Roadgeek 2005 Series D"
     id="text4144-7">
    <path
       d="m 159.14043,535.77612 c -4.47767,11.04478 -12.01497,16.56716 -22.61194,16.56716 -5.59705,0 -10.22391,-1.08209 -13.8806,-3.24627 -3.65673,-2.16417 -6.67912,-5.55969 -9.06716,-10.18656 -1.71643,-3.3582 -3.05972,-7.2761 -4.02985,-11.75373 -0.97016,-4.47759 -1.45524,-9.06714 -1.45523,-13.76866 -1e-5,-5.97011 0.74626,-11.67906 2.23881,-17.12687 1.49252,-5.4477 3.54476,-9.85068 6.15671,-13.20895 2.23879,-2.76113 4.92536,-4.85068 8.05971,-6.26866 3.20892,-1.41783 6.94026,-2.12679 11.19403,-2.12686 5.6716,7e-5 10.33577,1.23141 13.99253,3.69403 3.73129,2.46275 6.86562,6.34335 9.40299,11.64179 l -11.08209,4.70149 c -1.04482,-1.56711 -2.01497,-2.87308 -2.91045,-3.91791 -0.82094,-1.04472 -1.71646,-1.86561 -2.68657,-2.46269 -0.89556,-0.59695 -1.90302,-1.0074 -3.02238,-1.23134 -1.04482,-0.22382 -2.27616,-0.33576 -3.69403,-0.33582 -3.05974,6e-5 -5.63436,0.70902 -7.72389,2.12686 -2.01495,1.41797 -3.65674,3.80603 -4.92537,7.16418 -0.97017,2.23886 -1.71644,4.88811 -2.2388,7.94776 -0.44779,3.05975 -0.67167,6.19407 -0.67165,9.40299 -2e-5,4.10451 0.41043,8.05973 1.23135,11.86567 0.82087,3.73137 1.97759,6.79106 3.47015,9.17911 1.34325,1.94031 2.91042,3.39553 4.70149,4.36567 1.79101,0.97016 3.9925,1.45523 6.60448,1.45522 2.53727,10e-6 4.73876,-0.67163 6.60447,-2.01492 1.86563,-1.4179 3.54473,-3.6567 5.03732,-6.71642 l 11.30597,4.25373 0,0"
       style="fill:#000000"
       id="path6707" />
    <path
       d="m 227.07595,513.61194 c -6e-5,5.97018 -0.70902,11.67913 -2.12687,17.12687 -1.41796,5.44777 -3.43289,9.85075 -6.04477,13.20895 -4.17916,5.59702 -10.22393,8.39552 -18.13433,8.39552 -5.29854,0 -9.66421,-1.08209 -13.09702,-3.24627 -3.43285,-2.16417 -6.26867,-5.55969 -8.50746,-10.18656 -1.56717,-3.20894 -2.83583,-7.08954 -3.80597,-11.64179 -0.97016,-4.62684 -1.45523,-9.17908 -1.45522,-13.65672 -1e-5,-6.19399 0.70894,-11.94025 2.12686,-17.23881 1.49253,-5.29844 3.50745,-9.73874 6.04478,-13.32089 2.23879,-2.83575 4.88804,-4.9253 7.94776,-6.26866 3.1343,-1.41783 6.86564,-2.12679 11.19403,-2.12686 4.77608,7e-5 8.84324,1.08216 12.20149,3.24626 3.35816,2.16425 6.23129,5.55977 8.61941,10.18657 1.5671,3.35827 2.79844,7.27618 3.69403,11.75373 0.89546,4.47766 1.34322,9.06721 1.34328,13.76866 m -11.86567,0 c -5e-5,-4.25369 -0.37319,-8.1716 -1.11941,-11.75373 -0.74631,-3.65667 -1.86571,-6.75368 -3.35821,-9.29105 -1.19407,-1.94023 -2.57466,-3.35814 -4.14179,-4.25373 -1.49257,-0.89546 -3.35824,-1.41784 -5.59701,-1.56716 -2.91048,-0.14919 -5.33585,0.52245 -7.27612,2.01492 -1.94032,1.4926 -3.5448,3.91797 -4.81343,7.27612 -0.97017,2.23886 -1.71644,4.96274 -2.23881,8.17164 -0.44778,3.13438 -0.67166,6.2687 -0.67164,9.40299 -2e-5,4.02988 0.37311,7.91048 1.1194,11.64179 0.74625,3.73137 1.86565,6.79106 3.35821,9.17911 1.19401,1.94031 2.61191,3.39553 4.25373,4.36567 1.64176,0.97016 3.65669,1.45523 6.04478,1.45522 2.76116,10e-6 5.03727,-0.74626 6.82836,-2.2388 1.86563,-1.49253 3.43279,-3.9179 4.70149,-7.27612 0.37309,-0.97013 0.74622,-2.12685 1.1194,-3.47015 0.37309,-1.41789 0.6716,-2.87311 0.89552,-4.36568 0.29846,-1.56713 0.52234,-3.13429 0.67165,-4.70149 0.1492,-1.56713 0.22383,-3.09698 0.22388,-4.58955"
       style="fill:#000000"
       id="path6709" />
    <path
       d="m 294.72987,524.13433 c -6e-5,2.91047 -0.33588,5.67166 -1.00746,8.28358 -0.59708,2.61196 -1.41797,5.03733 -2.46269,7.27612 -0.9702,1.86568 -2.23886,3.5821 -3.80597,5.14925 -1.56721,1.49255 -3.32094,2.79851 -5.26119,3.91791 -1.94035,1.11941 -4.0299,1.97762 -6.26866,2.57463 -2.16422,0.67164 -4.40302,1.00746 -6.71642,1.00746 -2.31346,0 -4.58958,-0.33582 -6.82836,-1.00746 -2.1642,-0.59701 -4.21644,-1.45522 -6.15671,-2.57463 -1.94032,-1.1194 -3.73136,-2.42536 -5.37314,-3.91791 -1.56718,-1.56715 -2.83583,-3.28357 -3.80597,-5.14925 -1.04478,-2.23879 -1.86568,-4.66416 -2.46268,-7.27612 -0.59703,-2.61192 -0.89554,-5.37311 -0.89553,-8.28358 l 0,-48.13433 11.86568,0 0,48.13433 c -3e-5,4.92539 1.23132,8.8433 3.69403,11.75373 2.53728,2.91046 5.85817,4.36568 9.96268,4.36567 4.10444,10e-6 7.38802,-1.45521 9.85075,-4.36567 2.53726,-2.91043 3.80592,-6.82834 3.80597,-11.75373 l 0,-48.13433 11.86567,0 0,48.13433 0,0"
       style="fill:#000000"
       id="path6711" />
    <path
       d="m 353.077,551 -28.65671,-50.8209 0,50.8209 -11.86567,0 0,-75 11.86567,0 27.31343,47.91045 0,-47.91045 11.86567,0 0,75 -10.52239,0"
       style="fill:#000000"
       id="path6713" />
    <path
       d="m 403.8122,486.52239 0,64.47761 -11.86567,0 0,-64.47761 -17.12687,0 0,-10.52239 46.34328,0 0,10.52239 -17.35074,0"
       style="fill:#000000"
       id="path6715" />
    <path
       d="m 465.05755,518.31343 0,32.68657 -11.86567,0 0,-32.68657 L 426.8859,476 l 14.21642,0 17.91045,28.99254 L 477.1471,476 l 13.99254,0 -26.08209,42.31343"
       style="fill:#000000"
       id="path6717" />
  </g>
</svg>
