<?xml version="1.0" encoding="UTF-8" standalone="no"?>
<!-- Created with Inkscape (http://www.inkscape.org/) -->

<svg
   xmlns:dc="http://purl.org/dc/elements/1.1/"
   xmlns:cc="http://creativecommons.org/ns#"
   xmlns:rdf="http://www.w3.org/1999/02/22-rdf-syntax-ns#"
   xmlns:svg="http://www.w3.org/2000/svg"
   xmlns="http://www.w3.org/2000/svg"
   xmlns:sodipodi="http://sodipodi.sourceforge.net/DTD/sodipodi-0.dtd"
   xmlns:inkscape="http://www.inkscape.org/namespaces/inkscape"
   id="svg2"
   version="1.1"
   inkscape:version="0.48.4 r9939"
   width="1076"
   height="1244"
   sodipodi:docname="Kotovsky_rayon Kuptsovskoe SP.svg">
  <metadata
     id="metadata8">
    <rdf:RDF>
      <cc:Work
         rdf:about="">
        <dc:format>image/svg+xml</dc:format>
        <dc:type
           rdf:resource="http://purl.org/dc/dcmitype/StillImage" />
        <dc:title></dc:title>
      </cc:Work>
    </rdf:RDF>
  </metadata>
  <defs
     id="defs6" />
  <sodipodi:namedview
     pagecolor="#ffffff"
     bordercolor="#666666"
     borderopacity="1"
     objecttolerance="10"
     gridtolerance="10"
     guidetolerance="10"
     inkscape:pageopacity="0"
     inkscape:pageshadow="2"
     inkscape:window-width="1920"
     inkscape:window-height="1028"
     id="namedview4"
     showgrid="false"
     inkscape:zoom="0.70710678"
     inkscape:cx="236.0965"
     inkscape:cy="667.1547"
     inkscape:window-x="1272"
     inkscape:window-y="-8"
     inkscape:window-maximized="1"
     inkscape:current-layer="svg2" />
  <path
     style="fill:#ffaaaa;fill-opacity:1;stroke:#ffaaaa;stroke-width:2.82842708000000000;stroke-miterlimit:4;stroke-opacity:1;stroke-dasharray:none"
     d="m 495.88516,1151.3339 c -1.37509,-2.3278 -3.73969,-4.8958 -5.25466,-5.7066 -1.92085,-1.028 -2.75449,-2.9656 -2.75449,-6.4022 0,-6.7539 -6.01077,-20.9814 -12.16801,-28.8017 l -5.09862,-6.4758 0.87117,-11.7685 c 1.003,-13.5493 2.94252,-18.015 11.66824,-26.8659 3.45865,-3.5083 8.78492,-10.6532 11.83617,-15.8777 6.07802,-10.407 7.14999,-11.0817 26.83218,-16.8875 12.69899,-3.746 14.96917,-5.5583 17.58518,-14.0387 1.10036,-3.5671 4.59986,-13.8041 7.77667,-22.74905 l 5.77601,-16.26345 -1.45802,-12.72792 c -0.80191,-7.00036 -1.70576,-15.27351 -2.00855,-18.38478 -0.30278,-3.11127 -1.24963,-9.11804 -2.1041,-13.34838 -0.85447,-4.23034 -1.19434,-9.6397 -0.75527,-12.02082 0.43908,-2.38111 -0.50475,-9.73865 -2.0974,-16.3501 -3.45238,-14.33164 -3.64709,-21.61258 -0.79421,-29.69849 1.16672,-3.30685 2.12132,-8.74315 2.12132,-12.08066 0,-4.98276 0.69565,-6.58048 3.88908,-8.93213 3.21177,-2.36515 3.61795,-3.30931 2.33225,-5.42126 -0.85625,-1.40653 -3.59743,-2.75947 -6.09149,-3.00653 -6.18166,-0.61235 -6.8416,-3.55763 -2.16961,-9.68292 l 3.93078,-5.15351 -3.01574,-2.44199 c -1.65865,-1.3431 -5.80033,-2.85957 -9.20372,-3.36994 -4.49461,-0.67401 -6.98656,-2.00807 -9.10616,-4.87498 l -2.91817,-3.94704 4.01715,-5.98138 c 2.20943,-3.28977 5.3514,-9.9908 6.98214,-14.8912 3.38615,-10.17537 5.83373,-12.79508 17.83006,-19.08397 5.92158,-3.10429 9.66337,-6.23495 12.02082,-10.05751 1.8826,-3.05261 4.55658,-5.56731 5.94217,-5.58823 2.57756,-0.0389 2.97938,0.62646 4.46064,7.38658 0.46869,2.139 1.63554,3.89696 2.59299,3.90659 2.9126,0.0293 8.10479,9.51827 8.10479,14.8119 0,4.73672 0.23194,4.96958 4.94974,4.96958 4.33693,0 4.94975,0.43774 4.94975,3.53554 0,2.13553 0.80695,3.53553 2.03786,3.53553 3.02559,0 4.10931,2.65494 2.0812,5.09865 -1.48113,1.78466 -1.12942,2.75077 2.08724,5.73343 4.40157,4.08136 6.81503,9.38518 5.651,12.41861 -0.69556,1.81258 2.19159,9.00414 10.51784,26.19878 1.713,3.53754 3.58873,5.14749 6.73969,5.78473 6.84128,1.38357 7.65472,2.44375 7.65472,9.97666 0,6.41813 0.35416,7.1897 3.88909,8.47253 2.139,0.77625 5.17018,3.44783 6.73596,5.93684 2.06671,3.28531 4.07886,4.64524 7.34249,4.96251 3.7263,0.36224 4.7747,1.28264 6.12643,5.37841 0.89694,2.71775 1.24636,6.4731 0.77649,8.34522 -0.65281,2.601 -0.10083,3.8037 2.34041,5.09908 1.75711,0.93237 4.01873,2.85621 5.02586,4.27521 1.00713,1.41899 3.87092,3.12375 6.36396,3.78836 3.37446,0.8996 4.41803,1.89959 4.08362,3.9131 -0.24707,1.4876 -0.68919,4.66749 -0.9825,7.06643 -0.29331,2.39895 -0.64384,4.94453 -0.77892,5.65686 -0.98309,5.18346 3.38592,6.4137 10.18277,2.8673 2.05122,-1.07028 6.97581,-3.0242 10.94351,-4.34206 3.96772,-1.31786 7.57728,-2.98385 8.02123,-3.7022 0.44396,-0.71835 1.81661,-1.30608 3.05033,-1.30608 1.23371,0 4.99947,-1.7438 8.36834,-3.8751 4.645,-2.93865 7.53084,-6.48667 11.94167,-14.68182 5.11906,-9.51095 6.69155,-11.24871 13.11495,-14.49324 4.01418,-2.02761 10.20355,-4.08249 13.75418,-4.56642 5.71741,-0.77924 6.90984,-1.59777 10.42728,-7.15763 4.36179,-6.89449 8.24639,-7.7079 9.06871,-1.89891 0.27269,1.92641 1.62137,5.10189 2.99703,7.05662 1.37568,1.95473 5.13706,9.09931 8.35863,15.87684 4.98839,10.4946 7.16337,13.3795 14.66016,19.44544 4.84152,3.91746 9.79839,7.12265 11.01527,7.12265 3.16414,0 5.6066,2.87564 5.6066,6.60099 0,3.58871 -9.63436,11.43607 -22.39383,18.24016 -7.9735,4.25195 -20.80615,18.07589 -22.2982,24.02069 -0.53858,2.14584 0.15104,4.76158 1.92295,7.29395 1.51946,2.17155 6.02769,10.70428 10.01829,18.96163 3.9906,8.2573 8.2255,15.8182 9.41088,16.802 1.18539,0.9838 3.14846,5.2052 4.36238,9.3809 2.75609,9.4806 5.06886,11.8327 11.65393,11.8521 5.86727,0.017 18.04872,3.3925 20.95811,5.8071 1.05701,0.8772 1.92184,2.4587 1.92184,3.5144 0,2.3081 -9.95847,7.6337 -14.2745,7.6337 -1.69043,0 -7.28425,2.131 -12.43072,4.7356 -5.14647,2.6046 -10.95151,5.1232 -12.90007,5.5969 -1.94856,0.4737 -9.51899,4.6932 -16.82316,9.3767 -7.30416,4.6834 -14.46033,8.8899 -15.90259,9.3476 -1.44224,0.4578 -2.62228,1.6609 -2.62228,2.6736 0,5.7955 -18.90327,23.4946 -27.36005,25.6172 -3.53808,0.888 -3.75265,0.6519 -3.75265,-4.1287 0,-3.8479 -0.85244,-5.629 -3.53553,-7.387 -2.09391,-1.372 -3.53553,-3.6578 -3.53553,-5.606 0,-1.8092 -0.6364,-3.6827 -1.41422,-4.1634 -0.77781,-0.4808 -1.41421,-2.0509 -1.41421,-3.4892 0,-1.9442 -2.24748,-3.3741 -8.75988,-5.5734 -4.81794,-1.627 -9.87797,-2.9582 -11.24452,-2.9582 -1.36656,0 -6.94251,-2.3286 -12.391,-5.1747 -11.47847,-5.9958 -12.27362,-5.7492 -18.0183,5.5873 -4.12637,8.143 -4.59805,13.5572 -1.55913,17.8958 1.72504,2.4629 1.89018,4.2202 0.78151,8.317 -1.74957,6.4651 -4.85505,9.8799 -13.03414,14.3325 l -6.39489,3.4814 -3.96161,-2.929 c -2.17888,-1.6109 -5.54028,-3.4094 -7.46978,-3.9967 -9.75587,-2.9696 -16.94321,-6.8934 -16.94321,-9.25 0,-2.7061 -4.88623,-5.0462 -19.04932,-9.1228 -4.6435,-1.3366 -10.82301,-3.6444 -13.73224,-5.1286 -7.16585,-3.6558 -9.42619,-3.3996 -10.50504,1.1905 -0.50274,2.139 -3.06045,6.6983 -5.68379,10.1316 -2.62335,3.4334 -4.77546,7.2518 -4.78247,8.4853 -0.007,1.2335 2.06127,3.9535 4.59619,6.0444 6.15137,5.0739 4.19604,6.8525 -9.07434,8.2542 -5.69709,0.6018 -14.64727,2.6901 -19.88929,4.6408 -8.94783,3.3296 -22.3779,11.8237 -24.75887,15.6592 -1.11241,1.792 -11.07519,7.9493 -12.86226,7.9493 -0.56566,0 -2.15354,-1.9046 -3.52864,-4.2325 l 0,0 z"
     id="path4319"
     inkscape:connector-curvature="0" />
  <path
     style="fill:#fff6d5;fill-opacity:1;stroke:#fff6d5;stroke-width:2.82842708;stroke-miterlimit:4;stroke-opacity:1;stroke-dasharray:none"
     d="m 468.5149,1071.7742 c -1.58598,-1.7501 -4.63371,-6.2263 -6.77276,-9.9471 -2.13905,-3.7208 -5.69779,-7.7003 -7.9083,-8.8435 -2.21053,-1.1431 -6.31657,-5.0872 -9.12454,-8.7647 -2.80796,-3.6774 -8.71886,-9.7416 -13.13534,-13.4759 -4.41647,-3.7342 -9.14903,-8.9708 -10.51677,-11.6368 -1.39222,-2.7137 -5.188,-6.4303 -8.62369,-8.4438 -5.23027,-3.0651 -6.76888,-3.3761 -10.41476,-2.1052 -6.70589,2.3377 -15.96611,16.9733 -15.96611,25.2342 0,4.2838 -2.44759,7.0302 -9.40301,10.5511 -4.18867,2.1203 -4.66686,2.0862 -8.04814,-0.5735 -1.97718,-1.5552 -3.94986,-3.9462 -4.38375,-5.3132 -0.43388,-1.3671 -2.75645,-3.6479 -5.16125,-5.0684 -2.4048,-1.4206 -6.43317,-4.3922 -8.95193,-6.6037 -2.51876,-2.2115 -8.98426,-6.3384 -14.36778,-9.1708 -5.38352,-2.8325 -11.25538,-6.985 -13.04858,-9.2278 -1.7932,-2.2429 -8.19396,-6.6447 -14.22391,-9.78181 -8.62396,-4.48666 -11.81681,-7.05374 -14.96198,-12.02954 -2.19914,-3.47914 -6.00383,-7.85528 -8.45487,-9.72478 -2.45104,-1.86951 -6.27212,-6.01914 -8.4913,-9.2214 -3.63043,-5.23871 -3.93915,-6.5658 -3.08003,-13.23999 3.13199,-24.33116 2.87805,-23.45096 8.16176,-28.29064 2.77109,-2.53821 6.97323,-8.42611 9.33809,-13.0842 2.36486,-4.6581 6.32589,-10.37845 8.80228,-12.7119 8.69779,-8.19575 10.24035,-14.66086 6.23975,-26.15181 -2.86281,-8.22286 -3.6541,-9.07375 -10.55662,-11.35178 -7.18844,-2.3724 -10.64324,-6.66267 -13.53889,-16.81294 -2.97518,-10.42908 -6.36548,-13.94217 -14.50241,-15.02767 -9.54351,-1.27315 -10.86091,-1.83923 -8.88313,-3.817 2.81921,-2.81921 1.83061,-6.77309 -2.63247,-10.52852 -5.58731,-4.70141 -4.06936,-6.50077 8.22749,-9.75275 5.21989,-1.38044 14.61844,-5.56223 20.88566,-9.29287 15.85791,-9.43961 20.80214,-11.25441 33.06245,-12.13568 15.12674,-1.08732 16.11449,-1.79807 15.34776,-11.0438 l -0.62637,-7.55322 10.00858,-2.15226 c 5.50472,-1.18374 15.41795,-2.89335 22.0294,-3.79912 12.84732,-1.76009 25.82795,-6.297 33.9129,-11.85303 10.56259,-7.25867 18.53546,-8.85058 50.87543,-10.15805 18.11549,-0.73239 21.03238,-1.19937 25.63322,-4.10376 5.45514,-3.44367 8.89356,-7.34697 12.91689,-14.66324 1.33276,-2.42356 3.46247,-4.80528 4.73267,-5.2927 3.46059,-1.32796 17.57271,5.06351 22.86483,10.35563 2.98879,2.98879 7.54926,5.47853 12.77004,6.97168 10.39487,2.97293 12.03152,4.51319 18.97291,17.85541 5.70882,10.9731 6.5473,11.68678 14.95922,12.73285 l 3.18377,0.39591 -2.73074,4.46681 c -1.74188,2.84931 -6.3969,6.39333 -12.85503,9.78698 -11.29957,5.93775 -12.83591,7.72828 -16.95744,19.76299 -1.58402,4.62529 -4.80446,11.10063 -7.15654,14.38963 -3.43952,4.80962 -3.98854,6.51804 -2.80518,8.72916 2.37232,4.43272 8.63208,8.62536 12.87794,8.62536 8.7414,0 10.82472,3.61156 5.40885,9.3765 -2.16886,2.30864 -2.7498,4.19726 -2.09438,6.80866 0.75167,2.99488 1.73586,3.61383 5.74636,3.61383 6.70959,0 7.52646,2.39401 2.41106,7.06619 -3.74792,3.42319 -4.23151,4.6575 -3.52664,9.00113 0.50848,3.13342 -0.0505,7.20155 -1.48038,10.77538 -2.61792,6.54283 -2.93341,17.88193 -0.7287,26.19031 0.82561,3.11127 2.02241,11.70262 2.65954,19.09189 0.63714,7.38926 2.47459,23.43815 4.08321,35.6642 l 2.92478,22.22919 -5.50348,15.95457 c -10.34039,29.9768 -11.17468,31.7948 -15.32285,33.3911 -2.11464,0.8137 -9.28472,3.0913 -15.9335,5.0613 -13.00131,3.8522 -16.07554,6.1996 -21.02011,16.0506 -1.66231,3.3118 -5.94055,9.0393 -9.50718,12.7279 -3.56663,3.6885 -7.44272,8.1383 -8.61355,9.8884 -1.17083,1.7501 -2.58104,3.182 -3.13383,3.182 -0.55277,0 -2.30265,-1.4319 -3.88862,-3.182 l 0,0 z"
     id="path4317"
     inkscape:connector-curvature="0" />
  <path
     style="fill:#fff6d5;fill-opacity:1;stroke:#fff6d5;stroke-width:2.82842708;stroke-miterlimit:4;stroke-opacity:1;stroke-dasharray:none"
     d="m 342.93912,1213.4429 c -4.56714,-3.1993 -13.70895,-8.3848 -20.31514,-11.5234 -10.83112,-5.1459 -13.20315,-5.7344 -24.14232,-5.9898 -11.7934,-0.2754 -30.17356,-4.3913 -38.35354,-8.5887 -1.97727,-1.0145 -6.75024,-4.4865 -10.60661,-7.7153 -3.85636,-3.2289 -10.06538,-7.444 -13.79783,-9.3668 -5.072,-2.613 -8.21686,-5.7141 -12.44954,-12.2763 -5.04797,-7.8262 -6.84592,-9.3591 -16.54826,-14.1086 -13.85516,-6.7825 -24.9704,-13.8773 -31.33607,-20.0019 -2.75261,-2.6483 -9.37145,-6.7752 -14.70855,-9.1707 -8.01226,-3.5964 -9.51983,-4.79 -8.64836,-6.8476 3.3393,-7.8842 4.64555,-13.5983 5.45887,-23.8797 l 0.90878,-11.4881 -4.61434,-1.7398 c -2.53789,-0.9568 -6.27936,-2.3522 -8.31437,-3.1008 -5.10726,-1.8786 -8.03607,-7.5264 -5.77805,-11.142 0.93494,-1.4971 1.6999,-4.2723 1.6999,-6.1671 0,-2.734 -1.09446,-3.798 -5.3033,-5.1553 -2.91682,-0.9406 -10.31499,-4.2701 -16.44039,-7.3988 -9.01916,-4.6067 -12.46319,-5.6415 -18.1104,-5.4416 -8.049895,0.2849 -15.487038,-2.754 -19.630104,-8.0211 -2.221816,-2.8245 -2.65277,-4.8601 -1.983058,-9.3665 0.718275,-4.8332 0.101668,-7.0864 -3.84033,-14.0331 -5.906871,-10.40926 -16.585647,-22.681 -25.698028,-29.53145 -8.199975,-6.16452 -24.355702,-14.35904 -33.445186,-16.96409 -5.839803,-1.67369 -6.327628,-2.16103 -5.922834,-5.91704 0.24262,-2.25122 1.869445,-7.65467 3.615166,-12.00766 3.160886,-7.88175 3.201167,-7.91632 9.721486,-8.3419 6.270689,-0.40928 6.681496,-0.70818 9.718659,-7.07106 1.744167,-3.65405 5.615422,-10.55017 8.60279,-15.32469 5.294044,-8.46117 7.999025,-10.34933 14.887056,-10.39161 2.112819,-0.0127 3.91849,-1.52842 5.499411,-4.6155 1.294561,-2.52791 4.174686,-6.68663 6.400278,-9.24161 2.225592,-2.55496 4.04653,-5.18964 4.04653,-5.85483 0,-0.66517 2.966404,-5.23899 6.592009,-10.16403 3.625604,-4.92503 7.992924,-12.4727 9.705155,-16.77259 1.712231,-4.29989 6.064383,-12.56168 9.671447,-18.35955 3.607063,-5.79785 6.558303,-10.93093 6.558303,-11.40683 0,-0.47591 -2.38649,-2.20685 -5.3033,-3.84654 -2.916818,-1.63968 -10.068321,-6.21165 -15.892232,-10.1599 -5.823909,-3.94826 -11.303568,-7.17866 -12.177019,-7.17866 -0.873451,0 -3.745186,-1.4637 -6.381635,-3.25268 -2.636449,-1.78897 -10.839306,-5.60326 -18.228572,-8.4762 -7.389266,-2.87295 -15.575908,-6.53521 -18.192536,-8.13835 -4.214132,-2.5819 -4.656501,-3.41985 -3.873142,-7.33666 0.96906,-4.84529 16.294803,-28.43033 24.766219,-38.11314 2.935631,-3.35542 9.043632,-11.51013 13.573337,-18.12157 12.440208,-18.15744 17.833978,-25.19876 27.730209,-36.20054 4.965906,-5.52066 11.574511,-14.73972 14.685781,-20.48678 3.11126,-5.74706 8.83883,-14.00072 12.72792,-18.34146 20.33845,-22.70043 24.1122,-26.76028 24.88979,-26.77669 2.57645,-0.0544 28.02612,16.62166 31.27615,20.49391 4.73668,5.6435 11.92877,9.18666 18.64755,9.18666 l 5.08957,0 0,7.10516 c 0,5.75588 0.90591,8.42211 4.77036,14.04003 3.17156,4.61064 5.35509,10.03392 6.51508,16.18162 0.9596,5.08572 2.59064,9.9488 3.62453,10.80685 2.4793,2.05764 6.51415,-0.10926 9.05958,-4.86544 1.51096,-2.82327 2.88727,-3.54758 6.25433,-3.29149 4.03928,0.30723 4.70696,-0.39345 10.37692,-10.88975 3.33294,-6.16996 7.26012,-12.53392 8.72707,-14.14213 1.46695,-1.60822 3.72937,-5.02481 5.02759,-7.59243 2.46902,-4.88323 15.43897,-18.07912 22.71918,-23.11496 2.33345,-1.61408 5.9133,-5.09235 7.95522,-7.72948 l 3.71257,-4.79479 7.05426,12.37564 c 3.87986,6.8066 8.79674,15.55762 10.92642,19.44671 l 3.87216,7.07107 -5.57966,9.19238 c -10.41483,17.15827 -13.5779,27.05533 -14.46333,45.25484 -0.65909,13.54724 -1.31831,17.09013 -3.94717,21.2132 -1.73576,2.72236 -3.15832,6.33531 -3.16122,8.02877 -0.006,3.55728 7.70003,10.4211 16.21475,14.4424 3.13514,1.48065 8.25043,5.20103 11.3673,8.2675 4.58966,4.51545 7.05001,5.75885 12.94173,6.54042 7.87136,1.04418 8.96841,2.28734 8.96841,10.16297 0,5.9058 -2.89941,7.71227 -12.37827,7.71227 -10.12528,0 -20.66108,3.61718 -34.10744,11.70984 -6.55259,3.94367 -15.88718,8.27209 -20.74352,9.61871 -9.79413,2.71584 -14.79516,5.02709 -14.79516,6.83768 0,0.65814 2.01709,3.16873 4.48242,5.57904 4.0458,3.95551 4.31956,4.73984 2.81047,8.05195 -2.18215,4.78928 -1.08675,6.28604 4.60035,6.28604 11.02381,0 16.15202,4.31296 18.4969,15.55635 1.5518,7.4407 7.31214,14.09879 14.94057,17.26902 6.04084,2.51045 6.99963,3.5389 8.9995,9.65314 1.23109,3.76381 2.23833,8.64429 2.23833,10.84549 0,4.53482 -5.71316,13.73201 -9.93299,15.9904 -1.54438,0.82652 -4.77802,5.45629 -7.18588,10.28836 -2.40784,4.83207 -6.78808,11.33117 -9.73386,14.44244 -4.44298,4.69259 -5.50299,6.98272 -6.21852,13.43503 -0.47443,4.278 -1.26705,11.396 -1.76141,15.81778 -0.8568,7.66389 -0.65563,8.3709 4.30483,15.1284 2.862,3.89883 6.4034,7.46956 7.86977,7.93496 1.46637,0.46541 4.31471,3.65931 6.32967,7.09756 4.23244,7.22212 10.10834,12.07703 19.81179,16.36929 3.77477,1.6698 9.49826,5.8255 12.71887,9.2349 3.22061,3.4093 6.7793,6.2056 7.90818,6.2139 4.65781,0.034 30.74097,19.2563 34.25498,25.2444 3.59455,6.1253 6.94393,6.6515 14.42642,2.2665 7.66749,-4.4935 8.15608,-5.188 8.54899,-12.1515 0.42946,-7.6112 8.48512,-20.5163 14.00881,-22.4418 3.75161,-1.3079 4.99971,-1.0003 9.86677,2.4315 3.06454,2.1608 6.80389,6.1561 8.30969,8.8785 1.5058,2.7224 3.38908,5.1892 4.18505,5.4819 2.74446,1.0091 16.80844,14.9643 19.5476,19.3963 1.51012,2.4435 5.27929,6.1193 8.37594,8.1686 3.09666,2.0492 6.86849,6.153 8.38186,9.1194 1.51338,2.9665 4.62617,7.4003 6.91733,9.853 3.81166,4.0804 4.06621,4.9742 2.99481,10.5148 -0.64404,3.3304 -1.19868,9.1843 -1.23255,13.0086 -0.0338,3.8242 -0.46062,6.5542 -0.94833,6.0665 -1.47163,-1.4717 -9.43324,2.518 -18.83195,9.4369 -4.8822,3.5941 -10.41586,6.5347 -12.29702,6.5347 -5.10315,0 -19.51382,7.7664 -22.29953,12.0179 -2.69374,4.1112 -7.77884,6.5506 -27.70914,13.2929 -19.80321,6.6992 -19.60851,6.4724 -22.04704,25.6799 -1.1301,8.9015 -2.26109,19.8406 -2.51331,24.3092 -0.44872,7.9497 -6.96072,23.5955 -10.28149,24.7024 -0.7601,0.2534 -5.11876,-2.1569 -9.68589,-5.3562 l 0,0 z"
     id="path4315"
     inkscape:connector-curvature="0" />
  <path
     style="fill:#fff6d5;fill-opacity:1;stroke:#fff6d5;stroke-width:2.82842708;stroke-miterlimit:4;stroke-opacity:1;stroke-dasharray:none"
     d="m 580.75808,774.67383 c -2.86046,-3.22578 -5.20083,-6.85817 -5.20083,-8.07198 0,-4.00099 -3.28527,-5.60105 -11.50026,-5.60105 -9.2038,0 -10.1207,-0.84481 -17.39752,-16.02954 -4.23724,-8.84195 -9.01222,-12.77219 -17.43772,-14.35282 -5.77685,-1.08375 -10.86418,-4.07525 -15.94975,-9.37896 -3.87587,-4.04212 -18.08008,-9.26119 -21.56532,-7.92377 -1.17274,0.45002 -3.87395,4.01828 -6.00269,7.92947 -2.17168,3.99009 -6.3671,8.84397 -9.55883,11.05907 -5.38549,3.7376 -6.82488,4.00485 -27.03082,5.01883 -11.73833,0.58905 -23.072,1.09358 -25.18596,1.12116 -5.53796,0.0723 -18.91979,4.9449 -26.44788,9.63029 -9.82858,6.11719 -20.69685,9.73362 -34.76239,11.56719 -7.00036,0.91257 -16.85822,2.59561 -21.90636,3.74011 -9.22873,2.09231 -19.26728,1.59544 -24.51618,-1.21344 -1.42006,-0.75993 -5.07934,-3.8791 -8.13173,-6.93149 -3.05239,-3.05239 -6.28959,-5.54981 -7.19376,-5.54981 -3.43127,0 -15.38043,-8.91443 -16.17092,-12.06399 -0.5346,-2.13003 0.45474,-5.44423 2.84041,-9.51507 3.20407,-5.46733 3.66075,-7.83389 3.66075,-18.97026 0,-13.61627 2.72459,-24.46882 9.49954,-37.83855 6.27799,-12.38902 10.26199,-17.33219 16.08554,-19.95824 3.11055,-1.40266 6.71856,-4.34985 8.01782,-6.54931 1.29925,-2.19946 3.02056,-4.00038 3.82513,-4.00205 0.80456,-0.002 5.18426,-1.96463 9.73265,-4.36214 6.22389,-3.28069 10.82206,-4.55214 18.58637,-5.13935 l 10.31657,-0.78024 7.33119,7.61725 c 8.39139,8.71884 12.19593,15.40046 15.56042,27.32757 2.97798,10.55693 5.36489,12.2787 12.0392,8.68435 2.73388,-1.47229 7.35727,-3.06284 10.27419,-3.53456 5.19798,-0.84059 5.32603,-1.01203 6.43606,-8.61624 3.13765,-21.49426 5.66476,-33.78144 8.06373,-39.20696 2.51222,-5.68168 2.89263,-5.94625 7.33329,-5.10017 2.57599,0.49081 4.93561,1.10599 5.24361,1.36707 0.30799,0.26108 -2.02131,7.01093 -5.17622,14.99966 -5.68344,14.3914 -10.23301,29.98313 -10.23301,35.06931 0,1.94484 2.28394,3.471 8.68995,5.80675 5.78897,2.11077 11.33625,5.60349 16.61701,10.46254 4.35987,4.01171 11.74543,9.18333 16.41234,11.49249 4.6669,2.30916 11.50816,5.96277 15.2028,8.11912 l 6.71751,3.92065 0,-4.29055 c 0,-2.3598 -1.67741,-9.57366 -3.7276,-16.03081 -3.45057,-10.86776 -3.60083,-12.36037 -2.02201,-20.08436 0.93807,-4.58925 3.00418,-11.8149 4.59135,-16.057 2.65335,-7.09173 3.50283,-7.9858 10.54762,-11.10134 4.21402,-1.86364 8.71638,-3.38844 10.00525,-3.38844 1.28887,0 3.8676,-1.43189 5.73051,-3.18198 3.35831,-3.15493 3.40455,-3.15812 5.4395,-0.3752 1.12881,1.54373 3.38488,6.46126 5.01349,10.92785 1.97644,5.42063 4.51096,9.30322 7.62203,11.67615 2.56351,1.95529 6.65608,7.04222 9.09459,11.30429 2.4385,4.26207 7.42056,10.32281 11.07124,13.46832 5.73605,4.94231 7.45636,5.68029 12.66567,5.4334 8.27191,-0.39205 9.44981,1.27603 9.05309,12.82063 -0.4108,11.95474 1.51245,14.81313 8.59937,12.78063 6.50121,-1.86452 22.28141,-1.68798 22.28141,0.24927 0,0.86034 -1.82894,3.88323 -4.06432,6.71752 -7.82715,9.92421 -12.90621,19.16148 -12.90012,23.46136 0.003,2.37562 2.54895,9.3438 5.65686,15.48484 7.72391,15.26201 7.54036,16.4409 -3.19538,20.52263 -2.92405,1.11171 -4.08078,0.49428 -8.58048,-4.5801 l 0,0 z"
     id="path4313"
     inkscape:connector-curvature="0" />
  <path
     style="fill:#fff6d5;fill-opacity:1;stroke:#fff6d5;stroke-width:2.82842708;stroke-miterlimit:4;stroke-opacity:1;stroke-dasharray:none"
     d="m 855.49309,1072.0055 c -2.53877,-3.9563 -7.98792,-9.6843 -12.10922,-12.7289 -4.1213,-3.0446 -9.15181,-8.3657 -11.17892,-11.8247 -3.17488,-5.4175 -4.73213,-6.5933 -11.23684,-8.4843 -4.15315,-1.2073 -9.83973,-2.1952 -12.63684,-2.1952 -6.34618,0 -10.02304,-3.4801 -11.37497,-10.7664 -0.56096,-3.0233 -2.4933,-7.4389 -4.29407,-9.8123 -3.29659,-4.3448 -13.45823,-23.44251 -13.45823,-25.29322 0,-0.54702 -1.99132,-3.88886 -4.42516,-7.42632 -4.32673,-6.28868 -4.3739,-6.53027 -2.12088,-10.86141 5.58236,-10.7313 11.54061,-16.83753 21.26321,-21.79128 5.37208,-2.73713 12.82658,-7.92524 16.56556,-11.52914 8.67988,-8.36629 8.23435,-11.44589 -2.38258,-16.4685 -9.66844,-4.57391 -20.12197,-16.0127 -24.54455,-26.85794 -1.88242,-4.61613 -4.9053,-10.60899 -6.71752,-13.31745 -1.81221,-2.70847 -3.29493,-5.97163 -3.29493,-7.25146 0,-3.08358 -3.67779,-6.0211 -6.28556,-5.02041 -1.14342,0.43878 -3.60566,3.21467 -5.47163,6.16863 -3.02973,4.79625 -4.31208,5.54466 -11.98625,6.99536 -12.45139,2.35377 -19.47955,7.78195 -26.43756,20.41893 -5.36716,9.74773 -6.34532,10.71529 -15.60278,15.43377 -9.9978,5.09583 -24.25297,10.94426 -29.97158,12.29636 -2.90535,0.68694 -3.09272,0.30663 -2.67288,-5.42553 0.24831,-3.39034 0.92687,-7.27795 1.5079,-8.63914 1.63709,-3.83517 -0.199,-6.71751 -4.27915,-6.71751 -2.34936,0 -5.0713,-1.55419 -7.43038,-4.24264 -2.04756,-2.33345 -4.61365,-4.24264 -5.70241,-4.24264 -1.39818,0 -1.56251,-0.51919 -0.55955,-1.76777 0.95959,-1.19458 0.84417,-3.99778 -0.35597,-8.64538 -1.82644,-7.07299 -4.26098,-9.87291 -7.53768,-8.66895 -2.50353,0.91988 -7.32217,-1.7671 -7.32217,-4.083 0,-2.518 -4.63157,-6.53339 -7.53598,-6.53339 -1.91344,0 -2.36351,-1.43791 -2.36351,-7.55116 0,-6.71941 -0.39678,-7.73196 -3.60208,-9.19239 -1.98114,-0.90268 -4.77241,-1.64122 -6.20282,-1.64122 -2.65984,0 -5.44573,-4.66908 -9.29422,-15.57684 -1.11323,-3.15526 -2.98167,-7.10399 -4.15209,-8.775 -1.17041,-1.67099 -1.77528,-4.44364 -1.34414,-6.16142 0.92618,-3.69019 -2.65852,-11.24568 -6.46268,-13.62142 -2.09292,-1.30704 -2.37087,-2.26322 -1.26082,-4.33735 1.76267,-3.29359 0.60391,-6.6823 -2.285,-6.6823 -1.36728,0 -2.16571,-1.30344 -2.16571,-3.53553 0,-3.09781 -0.61282,-3.53554 -4.94974,-3.53554 -4.70127,0 -4.94975,-0.24515 -4.94975,-4.88358 0,-4.42807 0.59357,-5.14612 6.36396,-7.69865 9.05813,-4.00683 8.83307,-6.35989 -2.65151,-27.72286 -4.39259,-8.17085 -2.36298,-14.62979 9.27918,-29.52966 2.96623,-3.79624 5.39315,-8.36129 5.39315,-10.14455 0,-1.78326 1.59085,-5.13291 3.53523,-7.44368 3.22257,-3.8298 4.50462,-4.2666 14.49569,-4.93876 17.24351,-1.16007 38.76491,-7.78631 51.26554,-15.78417 5.83363,-3.73234 11.25435,-7.57459 12.04604,-8.53833 3.67087,-4.46864 12.80039,-7.76655 21.49992,-7.76655 7.03592,0 10.5022,-0.85849 16.9915,-4.20825 4.48382,-2.31454 11.01619,-4.94364 14.51636,-5.84246 5.68494,-1.45984 7.48423,-1.24314 16.86341,2.03091 l 10.49945,3.6651 5.4092,-5.24727 c 2.97506,-2.886 5.40976,-5.93184 5.41045,-6.76852 0.003,-3.43502 6.5112,-7.49325 12.71862,-7.93061 5.47397,-0.38568 6.62977,-1.0349 8.35005,-4.69028 1.09815,-2.33345 2.69389,-4.71969 3.54609,-5.30276 3.15069,-2.15568 36.21243,-12.37491 40.03589,-12.37491 2.17725,0 5.91714,-0.56169 8.31085,-1.2482 2.45135,-0.70304 5.30449,-0.71527 6.53255,-0.028 3.68808,2.06395 8.89454,16.80434 8.69277,24.61072 -0.10055,3.88909 -0.21409,24.25377 -0.25239,45.25484 -0.0643,35.28301 0.12968,38.39864 2.55333,41.01219 1.44263,1.55564 5.53819,7.57214 9.10123,13.37 4.98,8.10352 6.47829,11.90854 6.47829,16.45206 0,7.08051 1.20264,7.58929 13.76653,5.82393 l 8.81679,-1.23884 1.48454,-5.88987 c 3.11474,-12.35747 2.99146,-12.25382 14.57343,-12.25382 9.67988,0 11.01265,-0.38456 18.81888,-5.42996 4.62066,-2.98648 10.92418,-5.83498 14.00783,-6.33 3.08365,-0.49503 8.47042,-1.47941 11.9706,-2.18752 3.50018,-0.70811 17.38057,-1.73098 30.84532,-2.27305 l 24.48137,-0.98557 -0.9869,5.42107 c -0.5428,2.98159 -2.2783,8.60305 -3.8567,12.49213 -1.5783,3.88909 -4.5651,13.40778 -6.6371,21.15265 -3.5858,13.40283 -3.9802,14.13672 -8.1807,15.2252 -2.4274,0.62898 -4.70943,1.62268 -5.07133,2.20822 -0.36188,0.58554 0.51722,7.60754 1.95357,15.60445 1.94606,10.83491 2.24346,15.59555 1.16716,18.68302 -1.2381,3.55174 -0.5175,6.45946 5.0479,20.36896 3.5707,8.92418 6.4922,16.76756 6.4922,17.42976 0,0.66219 1.9431,4.26794 4.3181,8.01277 6.301,9.93572 15.4336,34.56633 15.4656,41.71076 0.03,6.6771 -9.8067,21.72413 -22.3775,34.23053 -18.89554,18.79896 -23.4588,23.93756 -28.88674,32.52892 -4.94419,7.8257 -14.26524,18.21082 -16.34491,18.21082 -0.58418,0 -2.18994,1.90919 -3.56835,4.24264 -1.3784,2.33345 -3.2657,4.21383 -4.194,4.17873 -0.92829,-0.035 -4.06445,-3.86977 -6.96923,-8.5213 -2.90478,-4.65153 -6.19665,-8.80854 -7.31528,-9.2378 -2.746,-1.05373 -13.56625,9.91778 -13.56625,13.75593 0,1.6522 2.22739,7.93717 4.94975,13.96657 4.3676,9.6733 4.94975,12.3312 4.94975,22.5991 l 0,11.6364 -10.96016,-0.9541 c -6.02808,-0.5247 -13.69035,-0.9845 -17.02727,-1.0217 -5.57947,-0.062 -6.28837,-0.5015 -8.8199,-5.4637 -3.54723,-6.9531 -7.76239,-9.8254 -14.41904,-9.8254 -5.19815,0 -10.99903,3.7441 -10.99903,7.0991 0,0.7933 -1.48894,3.8162 -3.30877,6.7175 -1.81982,2.9014 -3.70277,7.7467 -4.18436,10.7673 -1.30322,8.1744 -6.90334,26.3278 -8.12181,26.3278 -0.58342,0 -3.13794,-3.237 -5.67671,-7.1934 l 0,0 z"
     id="path4311"
     inkscape:connector-curvature="0" />
  <path
     style="fill:#fff6d5;fill-opacity:1;stroke:#fff6d5;stroke-width:2.82842708;stroke-miterlimit:4;stroke-opacity:1;stroke-dasharray:none"
     d="m 885.27002,760.24669 c 0,-5.91488 -4.58798,-15.45618 -12.48752,-25.96949 l -5.71212,-7.60212 -0.26624,-34.10237 c -0.31521,-40.37345 -0.38318,-36.87838 0.86212,-44.33598 0.7439,-4.45495 0.19229,-8.50418 -2.1515,-15.79338 -3.9062,-12.14828 -7.39078,-16.29296 -12.57851,-14.96131 -2.05077,0.52642 -7.23745,1.46227 -11.52596,2.07968 -4.28849,0.61741 -15.10722,3.57866 -24.04163,6.58055 -15.19253,5.10459 -16.42749,5.80113 -19.07277,10.75747 -2.5093,4.70154 -3.43729,5.29991 -8.2247,5.3033 -6.78799,0.005 -10.29138,1.85921 -12.84621,6.79971 -1.10456,2.13599 -3.80679,5.84654 -6.00498,8.24568 l -3.99669,4.36207 -9.91956,-3.42761 c -12.27716,-4.24225 -17.55397,-3.73296 -31.19999,3.01126 -8.51209,4.20692 -11.74654,5.05434 -19.29128,5.05434 -9.81994,0 -7.97065,-0.89324 -31.7734,15.34716 -8.73747,5.96149 -13.79662,8.26643 -23.8214,10.85302 -7.00036,1.80623 -14.95111,3.96865 -17.66834,4.8054 -2.71722,0.83673 -8.63281,1.52134 -13.14576,1.52134 -6.68351,0 -8.8104,0.60505 -11.46767,3.26233 -1.79429,1.79429 -3.56058,4.15705 -3.9251,5.25061 -0.90167,2.70502 -28.1255,4.85642 -29.84497,2.35854 -0.63571,-0.9235 -0.8232,-4.86108 -0.41664,-8.75016 0.91469,-8.74987 -0.14638,-13.09851 -3.45203,-14.14767 -2.84505,-0.90299 -2.83352,-7.35524 0.13088,-73.20889 l 1.44958,-32.20224 -4.10418,-8.80996 c -11.30827,-24.27412 -13.48827,-29.314 -12.92262,-29.87531 0.338,-0.33541 5.38751,-0.0565 11.22114,0.61972 5.83363,0.67625 21.42533,1.29543 34.64823,1.37595 13.2229,0.0805 27.22361,0.74201 31.1127,1.46998 3.88909,0.72797 10.88944,2.06212 15.55635,2.9648 4.6669,0.90267 12.94005,1.74663 18.38478,1.87546 5.44472,0.12884 14.46164,0.9745 20.0376,1.87925 9.40127,1.52543 10.90288,1.39534 20.66052,-1.78987 8.98792,-2.93395 11.76126,-3.25975 19.01762,-2.23407 15.13335,2.13908 19.99745,6.86183 24.95124,24.22618 3.1238,10.94976 8.90106,20.76416 13.67652,23.23365 2.20841,1.14201 4.88836,3.32288 5.95547,4.84638 2.86405,4.08901 8.912,6.07712 10.96431,3.60423 1.24917,-1.50516 1.12653,-4.4255 -0.51646,-12.29772 -2.04704,-9.80823 -2.01607,-10.60632 0.62026,-15.98067 5.37413,-10.9555 7.4223,-12.40442 18.85682,-13.33969 10.67217,-0.87292 11.59344,-1.31079 21.63298,-10.28197 3.87148,-3.4595 7.91721,-5.63158 11.58047,-6.21736 6.10348,-0.97598 7.81076,-3.60979 11.3837,-17.56161 2.23382,-8.72276 4.44755,-14.11766 5.79303,-14.11766 1.56901,0 2.85008,6.54984 2.91393,14.89838 0.0296,3.86207 1.32913,10.98557 2.88799,15.83 2.62648,8.16232 2.57789,14.52646 -0.11093,14.52646 -1.81731,0 -28.90378,27.34906 -30.93742,31.23732 -1.71413,3.27741 -1.46054,3.96041 3.39113,9.13346 2.88409,3.07514 7.82968,7.31825 10.99018,9.42914 5.09349,3.40192 6.00629,3.60277 8.03395,1.76777 1.25815,-1.13862 3.31358,-2.07022 4.56761,-2.07022 1.25404,0 2.64331,-0.58774 3.08727,-1.30608 0.44395,-0.71835 3.93307,-2.34433 7.75357,-3.6133 5.91833,-1.96575 8.1725,-2.05396 15.23126,-0.59599 l 8.2849,1.71122 8.00229,-5.31322 8.00228,-5.31322 11.04931,3.67976 c 6.07713,2.02387 13.31813,3.67976 16.09112,3.67976 7.50922,0 18.40542,3.79486 23.43478,8.1617 7.21974,6.26873 9.89789,20.41155 4.7478,25.07232 -3.65903,3.31138 -3.57118,5.21869 0.35355,7.6753 4.44107,2.7798 16.81373,2.17583 26.02458,-1.27039 4.21801,-1.57816 9.14494,-2.86937 10.94876,-2.86937 1.80383,0 10.53038,-3.75922 19.39238,-8.35382 8.862,-4.59459 17.5251,-8.57207 19.2514,-8.83883 2.5808,-0.39882 4.4122,1.52578 10.3039,10.82869 3.9409,6.22254 7.5058,12.90469 7.9219,14.84924 0.4161,1.94454 1.666,6.51889 2.7775,10.16522 2.9725,9.75118 2.7214,11.5304 -1.4786,10.47626 -7.9857,-2.00427 -20.1666,-2.59411 -21.1373,-1.02354 -0.5422,0.87739 -2.2411,1.59526 -3.7752,1.59526 -4.342,0 -4.7488,3.78803 -0.8982,8.36421 5.5914,6.64494 6.1102,15.02681 1.6881,27.26881 -2.0521,5.68091 -4.3141,13.14041 -5.0266,16.57665 -0.7126,3.43626 -1.4544,6.40656 -1.6485,6.60067 -0.1941,0.1941 -11.8076,0.77581 -25.80781,1.29268 -14.00016,0.51686 -29.16552,1.84224 -33.70079,2.94528 -4.53527,1.10303 -9.58207,2.00553 -11.21511,2.00553 -1.63303,0 -6.91925,2.57358 -11.74714,5.71907 -8.39543,5.46984 -9.21628,5.70401 -18.83634,5.37344 -6.03402,-0.20736 -10.69613,0.2921 -11.65232,1.24829 -0.87667,0.87668 -2.35657,4.98169 -3.28867,9.12226 -1.86614,8.28973 -3.28004,9.12881 -15.97819,9.48232 -5.96858,0.16615 -6.01041,0.13251 -6.01041,-4.82944 l 0,0 z"
     id="path4309"
     inkscape:connector-curvature="0" />
  <path
     style="fill:#fff6d5;fill-opacity:1;stroke:#fff6d5;stroke-width:2.82842708;stroke-miterlimit:4;stroke-opacity:1;stroke-dasharray:none"
     d="m 773.12607,600.79463 c -1.71295,-1.77564 -4.78034,-4.28072 -6.81641,-5.56684 -4.90714,-3.09964 -10.14303,-12.30312 -13.85488,-24.3536 -4.07466,-13.2284 -8.20118,-18.29314 -17.84382,-21.90091 -9.87576,-3.695 -17.98827,-3.68032 -26.11763,0.0472 -7.14501,3.27623 -19.03926,3.75186 -28.70917,1.14802 -3.25039,-0.87524 -8.6237,-1.21936 -11.94069,-0.76472 -5.73231,0.78569 -13.9859,-0.36464 -26.52529,-3.69695 -3.11127,-0.82681 -20.08299,-1.88552 -37.71493,-2.35269 -17.63194,-0.46717 -32.51854,-1.31103 -33.08133,-1.87523 -0.56279,-0.5642 -1.33123,-8.51915 -1.70763,-17.67767 -0.61051,-14.85459 -0.28357,-18.12244 3.02929,-30.27781 3.12877,-11.47992 3.71367,-16.55197 3.71367,-32.20367 l 0,-18.57768 -3.88909,-1.67635 c -7.32003,-3.15523 -22.98097,-12.84796 -22.98097,-14.22319 0,-0.86797 6.1752,-1.00523 16.77135,-0.3728 l 16.77135,1.001 0.90632,-4.53161 c 1.24358,-6.2179 1.1425,-18.29393 -0.15434,-18.43802 -0.58336,-0.0648 -2.49224,-0.27665 -4.24195,-0.47072 -4.07788,-0.45231 -4.86762,-1.303 -3.7978,-4.0909 0.54286,-1.41469 3.32381,-2.57835 7.45791,-3.12071 3.62574,-0.47568 7.54684,-1.00458 8.71357,-1.17534 2.60714,-0.38159 2.61993,-11.21607 0.026,-22.02874 l -1.72233,-7.17951 -10.19678,0 -10.19678,0 -5.78361,-8.83884 c -6.19685,-9.47036 -12.10185,-20.77725 -13.8482,-26.5165 -0.59169,-1.94454 -2.27752,-5.24221 -3.74629,-7.32816 -3.38472,-4.80695 -2.94382,-6.88647 9.91558,-46.76659 5.32948,-16.52803 10.54798,-33.43036 11.59666,-37.56074 l 1.90669,-7.50978 31.88417,0.36209 c 17.5363,0.19914 37.52478,0.17076 44.41885,-0.0631 l 12.53467,-0.42515 -0.94176,-15.76167 c -0.68978,-11.54446 -0.36126,-18.97798 1.22785,-27.78249 1.19329,-6.61145 2.18134,-15.01375 2.19568,-18.67179 0.0253,-6.46019 2.31017,-13.85512 4.28092,-13.85512 0.53483,0 2.12032,2.54558 3.52331,5.65685 1.40299,3.11127 2.93803,5.65686 3.41121,5.65686 2.63044,0 8.7214,7.91668 10.07152,13.09039 0.86137,3.30082 3.47536,9.72107 5.80885,14.26721 2.3335,4.54615 3.92256,9.10001 3.53128,10.1197 -0.39128,1.01968 -2.61965,2.27308 -4.95191,2.78533 -5.63972,1.23869 -7.03663,3.1946 -9.01379,12.62073 -1.98804,9.47805 -1.38143,10.3217 10.23472,14.2342 4.278,1.4409 9.46741,3.7934 11.53202,5.22778 2.78773,1.93677 6.33646,2.60798 13.78858,2.60798 5.51911,0 10.03442,-0.4773 10.03403,-1.06066 -3.9e-4,-0.58337 -1.2706,-4.40174 -2.82267,-8.48529 -2.41358,-6.35019 -2.51074,-7.42462 -0.67138,-7.42462 1.1828,0 2.73062,1.52569 3.43959,3.39043 1.03845,2.7313 2.66526,3.5797 8.36806,4.36404 9.17666,1.26211 12.71275,0.052 13.63711,-4.66674 1.20711,-6.16224 9.16368,-31.22087 13.63512,-42.94282 l 4.14407,-10.86372 4.21224,1.46839 c 2.31672,0.80762 6.58286,1.17534 9.48033,0.81717 3.601,-0.44514 8.83714,0.65189 16.54643,3.46666 6.20306,2.26483 12.40721,3.82267 13.78695,3.46185 1.37975,-0.36081 4.89586,0.97354 7.81356,2.96523 10.15408,6.93138 16.46406,8.96701 24.76973,7.99084 7.50595,-0.88217 7.68785,-0.81622 10.66061,3.86544 10.5188,16.56553 14.1099,20.4908 25.76058,28.15765 6.59794,4.34185 14.76747,8.98977 18.15451,10.3287 3.38704,1.33894 9.751,4.8416 14.14214,7.78369 4.39113,2.94209 10.21127,6.21141 12.93363,7.26517 10.27897,3.97872 23.48782,11.26072 27.57716,15.2032 2.33346,2.24966 7.10643,7.65694 10.60661,12.01618 3.50017,4.35923 7.72067,8.68092 9.37888,9.60374 2.00959,1.11837 3.31122,3.63215 3.90354,7.5387 0.48875,3.22346 1.28563,8.38159 1.77083,11.4625 l 0.8822,5.60166 -3.37152,-2.41609 c -12.23834,-8.77012 -21.42421,-10.49404 -24.14134,-4.5306 -1.36531,2.99652 -1.16513,4.04308 1.28494,6.71751 1.59621,1.7424 4.2164,5.7877 5.82263,8.98957 1.60624,3.20186 4.54183,7.7485 6.52356,10.10365 2.21296,2.62995 3.60313,6.02211 3.60313,8.79203 0,5.53809 -4.29874,22.59348 -9.27556,36.80104 -2.31879,6.61958 -3.86441,14.35124 -4.11177,20.56836 -0.28673,7.20674 -1.42371,12.13343 -4.11112,17.81414 -2.04311,4.3188 -3.71475,8.46738 -3.71475,9.21908 0,1.96868 -7.05936,8.28602 -12.02082,10.75728 -7.22591,3.59918 -36.33718,1.76238 -52.97678,-3.34259 -7.35835,-2.25752 -13.80419,-4.10458 -14.32411,-4.10458 -1.39998,0 -3.6444,6.30863 -7.04391,19.79899 -2.36146,9.37107 -2.87146,14.64664 -2.31362,23.9331 0.476,7.92401 0.04,14.50573 -1.30205,19.65844 -1.10969,4.26039 -2.20889,10.6732 -2.44266,14.25067 -0.23378,3.57748 -1.71714,9.05009 -3.29636,12.16136 -1.57923,3.11127 -3.22927,7.88424 -3.66678,10.6066 -0.43751,2.72236 -1.77379,7.25053 -2.9695,10.06261 -1.83396,4.31307 -3.04055,5.25143 -7.71332,5.99863 -3.81456,0.60997 -7.24602,2.5864 -11.02076,6.34765 -7.58853,7.56145 -13.19567,10.11802 -22.19106,10.11802 -9.50193,0 -13.53688,2.86631 -18.59848,13.21184 -3.86063,7.89086 -3.86139,7.44703 0.045,26.03259 0.91309,4.34422 -4.08282,4.31621 -8.29144,-0.0465 l -3e-5,4e-5 z"
     id="path4307"
     inkscape:connector-curvature="0" />
  <path
     style="fill:#fff6d5;fill-opacity:1;stroke:#fff6d5;stroke-width:2.82842708;stroke-miterlimit:4;stroke-opacity:1;stroke-dasharray:none"
     d="m 477.56069,701.01249 c -4.4914,-2.70457 -10.4676,-5.74623 -13.28042,-6.75923 -2.81285,-1.013 -9.4543,-5.73128 -14.75882,-10.48508 -6.6191,-5.9319 -11.6945,-9.21721 -16.17934,-10.47289 -3.59413,-1.00629 -6.84178,-2.62966 -7.217,-3.60748 -1.00831,-2.62761 5.4639,-24.65241 12.23137,-41.62308 6.60945,-16.57443 19.82105,-54.84511 19.82105,-57.41661 0,-1.0633 -3.62434,-1.86598 -10.07,-2.23018 -10.82082,-0.61144 -10.07238,-0.13761 -19.90168,-12.59916 -2.0948,-2.65578 -7.32724,-9.28346 -11.62765,-14.72819 -4.3004,-5.44472 -8.18662,-11.56358 -8.63603,-13.59748 -0.44942,-2.03387 -1.92773,-4.89766 -3.28514,-6.36396 -1.35741,-1.46628 -4.0424,-5.52898 -5.96664,-9.02819 -2.43548,-4.4289 -6.22598,-8.14662 -12.47385,-12.23434 -13.34214,-8.72922 -13.98875,-9.54956 -11.25968,-14.28508 3.96325,-6.8771 7.05895,-18.46021 7.3129,-27.36255 0.20951,-7.34399 -0.18529,-8.91516 -2.58109,-10.27188 -7.04373,-3.98882 -12.19322,-8.44665 -14.16756,-12.2646 -1.17907,-2.28008 -3.99519,-5.103 -6.25804,-6.27317 -2.26285,-1.17016 -5.9113,-4.62756 -8.10766,-7.68309 -4.29988,-5.98193 -16.76679,-14.27884 -21.4553,-14.27884 -1.58264,0 -3.20252,-0.52586 -3.59974,-1.16858 -0.39723,-0.64271 3.4452,-7.80217 8.53873,-15.9099 5.09352,-8.10773 11.19072,-18.72257 13.54933,-23.58856 2.35862,-4.86598 6.66003,-11.54814 9.55869,-14.84924 2.89867,-3.3011 8.24166,-10.77498 11.87332,-16.60861 l 6.60301,-10.6066 -3.53763,-1.4715 c -5.72905,-2.38307 -12.13992,-9.31533 -15.91364,-17.20793 -1.93699,-4.05114 -4.41444,-8.10654 -5.50545,-9.01199 -1.09101,-0.90546 -1.98365,-2.40389 -1.98365,-3.32985 0,-0.92597 -1.90919,-3.51269 -4.24264,-5.74828 -2.33345,-2.23559 -4.24264,-5.18235 -4.24264,-6.54836 0,-1.36601 -1.31332,-3.40353 -2.91848,-4.52783 -1.90267,-1.33267 -4.50489,-7.14436 -7.47631,-16.6972 l -4.55783,-14.65302 -7.72649,-4.61208 c -13.59836,-8.1171 -15.39639,-10.68718 -9.1407,-13.06559 2.82168,-1.0728 3.53554,-2.32247 3.53554,-6.18927 0,-4.04031 0.82408,-5.33128 4.96149,-7.77241 2.72882,-1.61004 5.70171,-4.55194 6.60641,-6.53756 0.94768,-2.07992 3.19065,-3.91549 5.29156,-4.33043 2.00565,-0.39613 7.64201,-2.68698 12.52525,-5.09078 9.62398,-4.73748 10.31252,-6.82233 4.39387,-13.30421 -1.46624,-1.60577 -2.66588,-3.69941 -2.66588,-4.65253 0,-3.33828 5.90915,-13.2709 11.51014,-19.34726 6.61228,-7.17347 11.91638,-8.8509 18.01489,-5.69724 2.3516,1.21606 4.68685,2.21101 5.18946,2.21101 0.5026,0 0.67337,-3.34108 0.37948,-7.42462 -0.38256,-5.31559 0.0474,-7.86996 1.5137,-8.99241 1.12749,-0.8631 2.49465,-5.35541 3.04163,-9.99446 0.82908,-7.03148 2.05723,-9.81582 7.41781,-16.81698 3.53332,-4.61468 8.97554,-10.8569 12.09381,-13.87161 5.15344,-4.982277 6.79952,-5.662218 18.08126,-7.468783 6.82642,-1.093126 13.20462,-1.68322 14.17378,-1.31132 0.96915,0.3719 3.05846,4.873318 4.64291,10.003153 3.32174,10.75456 12.72673,27.51263 16.83474,29.99661 2.403,1.45303 2.63215,2.46788 1.59528,7.06527 -0.66594,2.95269 -0.82598,12.54941 -0.35562,21.32603 l 0.85519,15.9575 5.48126,2.43307 c 3.24197,1.43908 7.65223,5.31881 10.79526,9.49667 6.58766,8.7566 19.12338,17.5041 25.23428,17.60865 2.45922,0.0421 11.88717,-0.94305 20.95101,-2.18917 9.06385,-1.24611 16.87732,-1.86805 17.36327,-1.38209 0.48597,0.48596 -0.25874,4.06023 -1.65491,7.94283 -2.35731,6.55545 -2.3741,7.31015 -0.23521,10.57448 2.80132,4.27536 3.1783,4.28646 15.10633,0.44478 8.82266,-2.84153 10.20082,-3.86855 18.48512,-13.77525 4.92342,-5.88764 10.7798,-12.3018 13.01417,-14.25368 2.23436,-1.95187 8.33107,-7.52634 13.54825,-12.3877 9.52675,-8.87702 14.19766,-10.96707 14.22233,-6.36396 0.043,8.00846 20.47301,32.20803 31.2733,37.04346 5.65169,2.53034 6.34237,2.56872 8.64967,0.48064 1.37913,-1.2481 2.85253,-1.92426 3.2742,-1.50259 0.42166,0.42167 1.14441,5.27233 1.6061,10.77924 l 0.83942,10.01256 -8.33229,0.0165 c -4.58275,0.009 -24.5348,0.19262 -44.33786,0.40795 l -36.0056,0.39151 -3.31291,11.31371 c -1.82211,6.22254 -7.0309,22.76884 -11.57508,36.76955 -4.54419,14.00071 -9.06876,29.12342 -10.05459,33.60603 -1.69369,7.70121 -1.624,8.32949 1.26517,11.40485 1.68168,1.79007 3.05811,4.16824 3.05872,5.28485 10e-4,2.8853 8.08414,19.61193 11.91492,24.65759 1.7716,2.33345 4.28636,6.31093 5.58835,8.83883 2.34793,4.55871 2.45268,4.5962 12.84221,4.5962 11.75824,0 10.88733,-0.86612 13.41518,13.34121 2.38671,13.41411 2.34946,13.52587 -4.51735,13.54969 -7.2092,0.025 -12.86981,2.61671 -13.56166,6.20916 -0.58646,3.0453 1.95987,5.03119 6.49059,5.06204 2.74866,0.0187 3.18198,0.76792 3.18198,5.50173 0,3.01404 -0.40194,7.48976 -0.89319,9.94603 l -0.89319,4.46596 -15.87319,-0.94898 c -16.38772,-0.97975 -19.94481,-0.0225 -16.28833,4.38327 1.68624,2.03179 14.81589,9.97175 21.25943,12.85632 3.51598,1.57399 3.58032,1.88809 3.89876,19.03045 0.27932,15.03616 -0.18353,19.28821 -3.37011,30.95948 -3.30004,12.08688 -3.63437,15.46542 -3.13569,31.68643 l 0.55819,18.15699 -7.51139,-0.93848 -7.51139,-0.93849 2.41998,6.11602 c 1.33101,3.36381 3.56988,8.02521 4.97528,10.35866 1.4054,2.33346 2.55766,5.29171 2.56056,6.5739 0.003,1.2822 1.95747,6.04243 4.34346,10.57828 l 4.33818,8.24701 -1.50975,24.47109 c -0.83036,13.45908 -1.5655,33.51832 -1.63365,44.57605 -0.0682,11.05774 -0.54543,23.28695 -1.06066,27.17604 -0.84469,6.37614 -1.31649,7.11481 -4.80059,7.51613 -5.42318,0.62466 -15.40969,-8.06427 -20.72035,-18.02806 -2.31717,-4.34747 -6.23162,-9.3969 -8.69875,-11.22094 -2.46716,-1.82403 -5.7164,-6.27168 -7.22055,-9.88366 -6.85557,-16.4625 -9.38696,-18.74773 -14.50395,-13.09352 -1.32704,1.46637 -4.13035,3.01065 -6.2296,3.4317 -2.09923,0.4211 -6.79664,2.04405 -10.43868,3.60661 l -6.62188,2.841 -4.33827,13.54319 c -2.38605,7.44876 -4.33827,15.09817 -4.33827,16.99869 0,1.90052 1.64781,9.20007 3.66182,16.22123 2.014,7.02116 3.43964,13.43231 3.16807,14.247 -0.27156,0.81469 -4.16853,-0.7316 -8.65993,-3.43619 l 0,0 z"
     id="path4305"
     inkscape:connector-curvature="0" />
  <path
     style="fill:#fff6d5;fill-opacity:1;stroke:#fff6d5;stroke-width:2;stroke-miterlimit:4;stroke-opacity:1;stroke-dasharray:none"
     d="m 395.35899,674.1946 c -1.03764,-0.27901 -2.19731,-3.05696 -3.39246,-8.12651 -0.99874,-4.23643 -2.60736,-9.28096 -3.57471,-11.21008 -0.96736,-1.92911 -2.53272,-5.20171 -3.47859,-7.27245 -0.94587,-2.07073 -2.91427,-4.47058 -4.37424,-5.333 -1.45996,-0.86242 -3.60992,-3.22817 -4.77769,-5.25721 -1.32364,-2.29987 -3.80707,-4.53012 -6.59458,-5.92227 -4.16453,-2.07987 -5.10263,-2.16779 -13.67087,-1.28133 -7.49372,0.77529 -10.34549,1.5813 -15.3799,4.34693 -3.39921,1.86733 -7.88927,3.95836 -9.9779,4.64673 -2.47076,0.81432 -4.64409,2.53085 -6.22066,4.91321 -1.33273,2.01389 -4.43146,4.75871 -6.88606,6.09959 l -4.46291,2.43797 -2.03221,-2.44283 c -1.11771,-1.34355 -3.68,-5.59282 -5.69397,-9.44282 -2.01397,-3.85 -6.361,-11.41348 -9.66006,-16.80772 l -5.99831,-9.80773 1.7642,-3.91229 c 2.00427,-4.44467 1.5148,-7.19098 -3.70462,-20.78595 -1.54694,-4.0293 -2.80789,-9.29391 -2.80789,-11.72325 0,-7.28788 -3.40204,-12.8657 -9.98813,-16.37605 -3.09816,-1.6513 -9.01633,-5.67008 -13.15149,-8.93061 -8.34156,-6.57723 -11.79837,-8.57917 -16.59891,-9.6129 -1.7812,-0.38355 -3.50764,-1.13279 -3.83654,-1.66496 -0.3289,-0.53218 2.74347,-5.11006 6.82748,-10.17307 4.49915,-5.57765 9.90553,-13.98493 13.71853,-21.3332 l 6.29303,-12.12774 5.11802,0.12774 c 4.78258,0.11936 5.1375,-0.0396 5.41544,-2.42542 0.16358,-1.40423 -1.07392,-6.27243 -2.75,-10.81822 -3.61304,-9.79908 -3.78671,-14.07771 -0.8861,-21.83029 2.43536,-6.50908 2.89824,-18.44999 0.86264,-22.25354 -1.76056,-3.28965 -0.47617,-8.15331 3.33586,-12.63208 4.96465,-5.83297 5.64017,-7.63712 5.64017,-15.06355 0,-8.1758 -1.89554,-13.65057 -7.69171,-22.21544 -2.94981,-4.35887 -4.30829,-7.42078 -4.30829,-9.71057 0,-3.81481 -0.75362,-4.64519 -7,-7.71303 -3.90358,-1.9172 -5.19928,-3.45446 -9.77608,-11.59861 -2.90184,-5.16367 -5.64363,-11.01367 -6.09287,-13 -0.44923,-1.98634 -3.08956,-6.60952 -5.8674,-10.27374 -5.69914,-7.5177 -6.67205,-10.01992 -8.29654,-21.33778 -1.57158,-10.94919 -2.9043,-13.29517 -10.46575,-18.4228 -3.57575,-2.42482 -6.49458,-5.12166 -6.4863,-5.99298 0.008,-0.87132 0.62457,-3.33514 1.36953,-5.47514 0.74496,-2.14001 1.13197,-4.74176 0.86003,-5.78167 -0.64484,-2.46587 -3.79162,-4.10596 -6.33135,-3.29988 -2.16777,0.68802 -5.64136,-1.13847 -10.16327,-5.34407 -2.42841,-2.25854 -2.75,-3.28157 -2.75,-8.74811 0,-4.39853 0.45329,-6.56665 1.56594,-7.49007 2.74824,-2.28084 4.58806,-6.79133 3.55047,-8.70431 -2.17507,-4.01012 -8.00631,-8.50095 -18.61641,-14.3371 -3.65149,-2.00853 -4.48444,-2.10019 -9.56019,-1.05205 -8.41895,1.73851 -13.65308,1.35745 -22.40932,-1.63146 l -7.9695,-2.72036 -1.53992,-6 c -1.90492,-7.42214 -6.50749,-16.01647 -10.65306,-19.89235 -3.05321,-2.85458 -3.09581,-3.01488 -1.69324,-6.3717 1.30382,-3.12046 1.24585,-4.01471 -0.618,-9.53387 -2.5428,-7.52964 -2.56147,-8.70208 -0.13856,-8.70208 4.6644,0 5.08179,-0.79164 5.08179,-9.63837 0,-5.86747 0.37939,-8.54128 1.25,-8.80949 0.6875,-0.2118 2.50677,-0.66109 4.04282,-0.99842 3.63563,-0.79841 4.42089,-3.0755 2.2992,-6.66724 -2.1995,-3.72345 -1.38981,-4.88648 3.4019,-4.88648 6.25263,0 8.7351,-1.49754 11.73891,-7.08146 4.21216,-7.83016 6.74598,-10.45235 11.97971,-12.39752 5.60657,-2.08374 10.19493,-6.14432 14.46958,-12.80523 3.19173,-4.97346 3.25577,-5.82866 1.22602,-16.372061 -0.46494,-2.415091 0.003,-4.054688 1.99212,-6.982135 3.25011,-4.782962 3.39304,-10.493849 0.55859,-22.317898 -3.40495,-14.203919 -1.08843,-17.182017 10.17155,-13.076425 7.26501,2.648956 10.007,2.157523 11.9265,-2.137526 1.656,-3.705462 5.46266,-5.161479 10.9431,-4.185649 5.58354,0.994187 8.68333,3.035281 12.05742,7.939364 2.77886,4.038923 3.46469,4.499041 5.79715,3.889244 1.45499,-0.380391 9.29235,-1.481142 17.41636,-2.446113 16.82391,-1.998347 17.77181,-2.484586 20.26285,-10.394201 1.93259,-6.136392 8.53685,-12.737763 14.54386,-14.537508 3.04957,-0.913671 4.34424,-2.026263 5.68896,-4.888873 1.73553,-3.69455 1.76564,-3.708499 9.73716,-4.510566 15.4074,-1.550241 15.96126,-1.505854 16.278,1.304555 0.49581,4.399248 -3.80023,11.286158 -8.28176,13.276353 -6.32039,2.806809 -7,3.324543 -7,5.332633 0,1.257212 1.75905,2.833685 5.2483,4.703571 7.82233,4.19198 8.29133,5.835914 3.23113,11.325587 -3.36972,3.655712 -4.03732,4.995086 -3.51903,7.060101 1.43686,5.724904 9.45605,21.111723 13.32634,25.569888 2.88561,3.323933 4.7587,6.847719 6.18412,11.634039 1.12462,3.77625 2.7852,7.48041 3.69018,8.23148 0.90498,0.75107 2.20866,2.70514 2.89707,4.34239 0.91737,2.18178 3.48044,4.20712 9.59677,7.58337 5.66023,3.12449 9.11774,5.77836 10.74657,8.24871 1.56425,2.3724 3.90039,4.21459 6.70104,5.28417 2.36478,0.90312 5.02998,2.4491 5.92268,3.43553 1.77764,1.96427 3.64178,12.75097 2.34238,13.55404 -0.44485,0.27493 -2.14968,-0.19352 -3.78852,-1.04099 -7.19172,-3.71899 -14.49639,-0.50372 -22.62583,9.95913 -9.21731,11.86295 -10.51484,17.15064 -5.40892,22.04242 4.46131,4.27421 3.75519,7.24434 -2.54428,10.70194 -4.73306,2.59784 -8.60472,3.97283 -14.66242,5.20724 -1.82807,0.37252 -3.62264,2.10309 -5.72645,5.52221 -2.04427,3.32237 -4.23881,5.47053 -6.59393,6.45456 -3.73465,1.56043 -5.5172,4.64891 -5.5172,9.55918 0,2.37885 -0.58611,3.05078 -3.5,4.01245 -2.29173,0.75634 -3.5,1.78226 -3.5,2.9718 0,2.98193 5.12401,7.56191 12.76535,11.41003 7.63167,3.84325 9.13088,5.66761 11.19105,13.61817 4.19171,16.17651 6.08418,20.9109 9.06177,22.66981 2.15675,1.27402 2.98183,2.5207 2.98183,4.50549 0,1.91528 1.20113,3.85541 3.97678,6.42354 2.18722,2.0237 4.2738,4.62933 4.63683,5.7903 0.36303,1.16097 1.74771,3.41169 3.07707,5.00158 1.32936,1.5899 3.68668,5.6399 5.23847,9 3.04905,6.6021 10.73982,14.78219 15.26903,16.24051 l 2.69818,0.86877 -6.34261,10 c -3.48844,5.5 -8.2132,12.25 -10.49948,15 -6.96579,8.37864 -8.74771,10.89465 -9.56116,13.5 -1.1778,3.77233 -10.16816,19.7097 -14.9488,26.5 -6.81828,9.6845 -9.92543,15.51888 -8.84181,16.6025 0.53356,0.53356 2.73128,1.23934 4.88381,1.5684 6.24005,0.95391 17.35042,8.42919 21.3825,14.38656 2.05128,3.03075 5.04762,5.9306 7.33226,7.09614 2.1249,1.08404 4.61393,3.40545 5.53119,5.15869 2.35048,4.4927 11.1085,12.51579 14.46762,13.25358 4.28928,0.94208 5.04816,4.22267 3.2261,13.94637 -1.86712,9.96419 -4.74136,18.57712 -7.48542,22.43081 -1.12231,1.57613 -2.04056,3.54866 -2.04056,4.3834 0,2.05118 7.11782,8.00808 14.50506,12.13925 6.96727,3.89632 8.42046,5.3522 11.51301,11.5343 1.2381,2.475 3.49072,5.92143 5.00583,7.65874 1.51511,1.73731 3.51127,5.43642 4.4359,8.22024 0.94542,2.84637 3.55811,7.15332 5.96992,9.84126 2.35882,2.62887 5.94093,7.36726 7.96025,10.52976 2.01932,3.1625 4.03677,5.75 4.48323,5.75 0.44646,0 2.57013,2.4018 4.71927,5.33734 6.08108,8.30621 7.57189,9.10931 17.65753,9.51216 6.97206,0.27848 8.75,0.65552 8.75,1.85556 0,1.82225 -12.53755,39.8424 -14.21371,43.1031 -1.10775,2.15495 -1.59551,2.26437 -7.34797,1.64833 l -6.16147,-0.65984 -2.078,4.35168 c -3.14071,6.57719 -6.20767,19.81847 -8.06991,34.84101 l -1.67217,13.48934 -5.28034,0.75991 c -2.90703,0.41836 -6.93443,1.8839 -8.96052,3.26066 -3.66533,2.49066 -4.29665,2.65037 -7.29248,1.84482 l 0,0 z"
     id="path3769"
     inkscape:connector-curvature="0" />
  <path
     id="path3783"
     style="fill:none;stroke:#646464;stroke-width:1px;stroke-linecap:butt;stroke-linejoin:miter;stroke-opacity:1"
     d="m 331.4563,765.99582 c 0.51712,4.24697 4.22296,12.21727 0.88389,15.55634 -6.10364,6.10364 -19.42399,1.58027 -24.04163,3.88909 -2.11982,1.05991 -11.39223,3.2605 -12.72793,4.5962 -5.0887,5.0887 -14.25674,7.18567 -19.44543,12.37436 -1.91526,1.91526 -20.77293,4.50948 -24.04163,7.77818 -3.58313,3.58313 5.50365,8.33208 6.71751,9.54594 3.84969,3.84969 -3.9948,8.02601 -1.41421,10.6066 1.04145,1.04146 13.88264,-0.61304 19.44544,4.94975 4.9158,4.9158 3.39394,16.12187 8.48528,21.2132 1.40984,1.40984 2.72028,4.0118 4.59619,4.94975 3.9155,1.95775 10.21278,3.14172 13.08148,6.01041 1.7685,1.7685 1.0207,5.22338 2.12132,7.42462 6.74733,11.69467 0.30051,19.19265 -6.11658,25.60974 -1.2884,1.2884 -3.50927,2.01391 -4.5,3.5 -3.04867,4.57301 -5.07223,10.14447 -7.5,15 -2.82006,5.64012 -9.28352,8.06705 -12,13.5 2.59574,10.00847 -5.91242,21.33303 -2.76389,30.77861 0.18267,0.54799 8.2709,11.45288 9.54594,12.72792 2.06884,2.06884 5.91514,2.28434 7.07107,4.59619 1.99561,3.99123 5.17717,9.41981 8.13173,12.37437 3.23367,3.23367 10.77188,6.00275 14.49569,8.48531 2.04365,1.3624 5.41463,1.172 7.07107,2.8284 2.64662,2.6466 4.78698,7.8736 8.13172,9.5459 2.45233,-0.9325 1.43549,1.4249 2.12132,1.7678 1.35332,0.6767 5.09988,0.5037 6.36396,1.7678 3.62311,3.6231 9.11742,4.5212 13.08148,8.4853 0.97685,0.9768 3.53071,4.241 4.59619,4.5962 1.17259,0.3908 8.89442,5.0609 9.19239,5.6568 1.69648,3.393 5.07335,8.9006 8.48528,10.6066 3.25823,1.6291 6.49545,-1.6567 8.13173,-2.4749 5.32,-2.66 4.61765,-2.4963 8.48528,-6.3639 1.16272,-1.1627 -0.55393,-6.1164 0,-7.7782 2.11267,-6.338 3.66386,-10.7349 8.13173,-15.2028 0.9668,-0.9668 1.61813,-3.6375 2.82843,-4.2426 1.79314,-0.8966 3.68979,-0.9611 5.3033,-1.7678 0.76673,-0.3834 2.32914,-1.3103 3.53553,-0.7071 4.37108,2.1855 8.76942,4.8803 12.02082,8.1317 1.2682,1.2682 1.93234,6.5286 4.59619,9.1924 1.09484,1.0948 3.35637,2.2085 4.5962,2.8284 1.74663,0.8734 3.11896,3.4725 4.59619,4.9498 1.43097,1.4309 3.28682,1.8726 4.59619,3.182 3.09943,3.0994 7.60618,8.1412 9.8995,12.7279 1.62446,3.2489 9.51556,5.2425 10.96015,8.1317 2.65875,5.3175 9.04161,16.9393 14.76086,19.799 M 566.875,762.125 c -0.68949,2.06514 -3.30737,7.30737 -6.375,10.375 -4.06445,4.06445 -16.32351,7.32351 -21.5,12.5 -3.69933,3.69933 -7.57534,21.57534 -9.5,23.5 -1.64134,1.64134 -7.90736,9.09264 -6.5,10.5 2.6608,2.6608 4.12545,5.62545 6,7.5 1.91634,1.91634 11.40098,-0.099 15.5,4 6.35013,6.35013 -8.538,7.42399 -4.5,15.5 2.26434,4.52868 8.39163,0.39162 11,3 0.5,0.5 0.5,1.5 1,2 2.47563,2.47563 -5.44143,5.94143 -6.5,7 -3.08971,3.08971 1.61208,12.38792 -1,15 -1.48021,1.48021 -1.91432,5.32865 -3,7.5 -2.91593,5.83185 1.42645,26.8529 3.5,31 1.81499,3.62997 0.5,13.96262 0.5,18 1.01557,3.88563 0.50744,9.50744 3,12 0.73888,0.73888 0,5.99098 0,7 0,7.1166 5.25206,28.99587 2.5,34.5 -4.13623,8.27245 -5.43601,18.372 -9.5,26.5 -3.35813,6.7163 -2.34473,12.8447 -7.5,18 -2.85454,2.8545 -28.50631,7.0063 -34,12.5 -4.6909,4.6909 -5.11005,11.6101 -10,16.5 -1.77185,1.7719 -3.28736,4.7874 -5.5,7 -1.47231,1.4723 -4.36543,2.8654 -6,4.5 -2.32366,2.3237 -3.2485,6.7485 -5.5,9 -2.52533,2.5253 -2.67076,24.0915 -3.375,28.125 M 585.71297,781.09138 c 0.66656,1.81674 -0.92638,10.09811 0.64645,11.67094 1.89837,1.89837 7.95959,-1.66845 9.7316,0.10355 1.99734,1.99735 -1.89773,6.47576 -0.70711,7.07107 1.75717,0.87859 5.20743,-0.19174 6.01041,1.41421 1.69608,3.39217 -3.21432,5.94575 -2.47488,7.42463 0.46804,0.93606 3.53161,1.94258 4.5962,2.47487 1.7711,0.88555 3.61232,6.16399 4.59619,8.13173 1.17851,2.35702 -1.17851,6.48181 0,8.83883 1.00664,2.01327 2.75978,3.39823 3.53554,4.94975 2.2635,4.52701 6.03852,19.81305 9.54594,21.56676 1.07033,0.53516 2.7541,-0.74427 3.53553,-0.35356 2.44529,1.22265 5.42657,2.53651 8.13173,3.88909 0.37121,0.18561 -1.8918,9.65143 0.35355,14.14214 1.04959,2.09917 4.42627,0.97569 6.01041,1.76776 3.99672,1.99836 2.85869,7.61653 6.71752,9.54594 2.3695,1.18476 6.12268,-0.47419 8.48528,0.70711 1.47088,0.73544 5.20337,12.67415 4.59619,14.49569 -0.18166,0.54499 -3.29412,2.00918 -2.12132,3.18198 1.79491,1.79491 5.76071,1.26836 6.71751,3.18198 0.93346,1.8669 1.29638,4.5962 3.88909,4.5962 1.08823,0.12524 2.05627,1.76776 3.18198,1.76776 8.25262,0 7.7007,3.61302 3.53554,7.77818 -0.54498,0.54497 0.1917,3.37368 0.35355,3.53553 2.41157,2.41157 -4.90258,7.27143 0.35355,9.8995 3.2494,1.6247 9.72149,-2.9162 12.37437,-4.24264 3.12868,-1.56434 7.39248,-1.57492 10.6066,-3.18199 1.44335,-0.72167 2.81832,-2.4715 4.94975,-3.18198 2.74607,-0.91535 5.30843,-1.18193 7.77818,-2.82842 2.65799,-1.772 5.67929,-4.07709 8.13172,-5.3033 1.68888,-0.84444 8.52874,-18.07468 12.37437,-21.92031 0.59003,-0.59003 2.86067,-1.25356 3.88909,-1.76777 1.2705,-0.63525 3.27462,-2.21396 4.24264,-3.18198 1.09679,-1.09679 8.27228,-2.1916 10.25305,-3.18198 2.72515,-1.36258 7.02137,0.7568 9.19239,-1.41422 4.48719,-4.48719 6.09171,-17.59636 14.14213,-9.54594 0.77075,0.77075 -0.21228,4.52519 0.35356,5.65686 1.8435,3.687 5.2277,5.78361 6.71751,10.25305 3.25475,9.76425 6.76375,17.7239 13.43503,24.39518 1.49641,1.49641 10.62413,9.02438 12.37437,9.89949 2.38811,1.19406 7.84463,1.19357 9.19239,3.88909 0.53582,1.07165 0.56638,2.90054 1.06066,3.88909 1.68745,3.37491 -13.55326,14.73158 -16.61701,16.26346 -1.88079,0.94039 -4.17107,0.98908 -5.65686,2.47487 -0.73355,0.73355 -8.3843,4.89926 -9.89949,5.65685 -1.9592,0.9796 -5.01433,6.55771 -5.65686,8.48528 -0.53115,1.59348 -3.66506,2.38038 -4.24264,3.53554 -1.27452,2.54904 -2.51147,4.66939 -3.88908,7.42462 -1.00607,2.01214 0.96664,3.70105 1.41421,4.59619 1.67091,3.34182 4.18817,6.28226 6.36396,9.54595 1.71811,2.57716 1.69012,6.77782 3.53553,9.54594 2.20293,3.30435 4.80576,8.19725 6.01041,10.60655 0.34375,5.0739 5.29309,6.6971 7.07107,10.2531 2.17091,4.3418 2.06211,12.6687 5.65685,16.2635 2.92526,2.9252 10.67799,0.3892 14.14214,2.1213 4.73838,2.3692 11.49967,1.9537 14.84924,5.3033 0.94232,0.9423 2.36472,5.6651 2.91422,6.7641 M 311.53033,652.2019 C 302.09648,664.84105 294.76507,679.9397 291,695 c -2.2953,9.1812 2.72631,20.54737 -1.5,29 -1.39294,2.78588 -8.0833,10.3334 -6.5,13.5 4.02518,8.05037 10.04576,7.54576 15,12.5 0.66667,0.66667 2.83333,-0.16667 3.5,0.5 1.81319,1.81319 3.80732,2.90366 6,4 1.5086,0.7543 2.39704,4.39704 3.5,5.5 1.73975,1.73975 4.92571,2.42571 6.5,4 0.91667,0.91667 4.58333,-0.91667 5.5,0 2.13058,2.13058 5.79442,1.79366 8.5027,1.78893 5.12277,-0.009 14.00694,-1.79857 15.4973,-3.28893 0.94423,-0.94423 26.58429,-2.86143 30,-4 5.76933,-1.92311 12.52264,-4.76132 18,-7.5 2.98199,-1.49099 5.86014,-5.45338 9,-6.5 4.69079,-1.5636 9.38763,-2.44381 13.5,-4.5 2.98417,-1.49208 8.03801,0.98099 11,-0.5 7.34356,-3.67178 37.29726,-0.14863 42,-2.5 3.21709,-1.60854 11.55614,-7.11227 13.5,-11 1.90046,-3.80092 5.21545,-10.85773 8.5,-12.5 2.59432,-1.29716 18.25031,5.87516 20.5,7 0.8347,5.2076 4.22197,4.72197 6.5,7 4.91725,4.91725 15.91883,3.41883 21,8.5 6.65868,6.65868 7.70225,18.20227 14,24.5 1.7869,1.78689 8.24916,1.87416 12.34607,1.72106 4.09691,-0.15309 5.82846,-0.54653 6.65393,0.27894 1.88536,1.88536 1.18092,6.86184 2.5,9.5 0.94831,1.89661 2.92408,0.42408 4,1.5 1.30444,1.30444 3.03421,7.03016 5.625,7.625 2.4338,0.5588 11.84337,-4.09337 12.875,-5.125 4.1382,-4.1382 -7.98699,-22.98699 -9,-24 -1.11317,-1.11317 -1.06309,-5.12617 -2,-7 -2.9281,-5.85619 12.87492,-25.37492 16.5,-29 2.34768,-2.34768 0.0289,-6.1827 0.125,-6.375 m -36.93698,-23.97419 c 1.47175,0.15226 5.71143,1.70014 6.45235,3.18198 2.45648,4.91295 -2.22342,19.60849 1.94455,23.77646 1.77596,1.77596 9.27425,-2.12132 11.31371,-2.12132 3.02361,0 15.50833,1.10868 17.32412,-0.7071 3.4026,-3.40261 2.26566,-6.78969 7.77817,-9.54595 5.80824,-2.90411 17.77446,-0.0484 21.2132,-1.76776 3.30466,-1.65233 7.50915,-2.84956 11.66726,-3.88909 1.26425,-0.31606 10.54092,-1.70208 10.96016,-2.12132 2.43456,-2.43456 8.00343,-1.28592 10.6066,-3.88909 4.73657,-4.73657 15.74687,-9.38291 19.79899,-13.43503 0.44267,-0.44266 0.27749,-1.37618 1.06066,-1.76776 2.20745,-1.10373 5.46327,-2.63484 7.42462,-4.5962 3.05281,-3.0528 18.87862,-0.24692 21.92031,-1.76776 4.09994,-2.04997 8.19167,-4.80294 12.02082,-6.71752 3.50484,-1.75242 7.67471,-1.89281 11.66726,-3.88909 8.17982,-4.08991 25.4194,8.52173 28.63783,5.30331 0.84237,-0.84238 0.92871,-3.05004 1.76776,-3.88909 0.78495,-0.78495 2.88999,-1.97532 3.88909,-2.47488 2.72112,-1.36056 2.5109,-8.32651 6.36396,-10.25304 2.419,-3.69677 13.09873,-0.72436 15.2028,-2.82843 2.32244,-2.32245 2.44571,-7.04191 4.59619,-9.19239 2.66532,-2.66532 31.50026,-10.73579 37.47666,-12.72792 2.22079,-0.74027 5.70799,0.68154 7.77817,-0.35355 1.5401,-0.77005 10.21411,-3.22093 12.02082,-1.41422 3.4657,3.4657 3.82939,7.30523 6.36396,12.37437 2.10786,4.21571 5.50547,17.4755 1.41421,21.56676 -1.13933,1.13933 0,9.50272 0,11.31371 0,20.38824 0,40.77649 0,61.16473 2.96136,-0.3989 -0.15334,1.61442 0.35356,2.12132 7.19768,7.19768 13.52176,18.20468 18.03122,27.22361 1.58426,3.16852 -1.75278,9.56093 0.70711,12.02082 0.80419,0.80419 6.01087,0 7.42462,0 1.24443,0 13.0931,-2.13295 13.43503,-2.47487 1.44865,-1.44866 2.87001,-14.89084 4.94974,-16.97057 0.49758,-0.49757 1.74047,-0.6798 2.12133,-1.06066 1.48015,-1.48015 17.53913,1.30671 20.85965,-0.35355 5.61971,-2.80986 10.04137,-7.67234 16.617,-10.96016 1.88562,-0.94281 5.18545,0.94281 7.07107,0 8.58844,-4.29421 22.55314,-3.88908 32.88047,-3.88908 3.073,0 9.46463,0.34999 12.10925,-0.97227 4.6941,-1.02128 19.0555,-0.26517 21.9203,-0.26517 M 852.32884,511.96771 c -2.72757,1.85372 -4.99162,8.56902 -6.62913,11.84403 -0.62452,1.24905 0.27815,3.33279 -0.35355,4.5962 -1.46638,2.93275 -4.73216,15.69231 -6.01041,16.97056 -0.7176,0.7176 -9.01063,-0.18176 -10.96016,1.76777 -1.98657,1.98657 -5.13516,3.36739 -7.07106,5.3033 -0.59741,0.59741 -0.50744,1.92165 -1.06066,2.47487 -2.60878,2.60877 -6.59291,4.71067 -10.6066,6.71752 -1.0656,0.5328 -3.75196,0 -4.94975,0 -3.59829,0 -11.5982,0.31902 -14.49569,1.76776 -0.11493,0.0575 -4.33607,4.91312 -4.5962,5.3033 -2.00667,3.01002 -8.92807,11.84234 -6.0104,17.67767 0.84101,1.68204 1.06066,3.95223 1.06066,6.01041 0,2.15455 3.77582,13.08148 0,13.08148 -0.29894,0 -1.23025,0.18396 -1.41422,0 -1.0224,-1.0224 -3.48687,-1.28015 -4.94974,-1.76777 -2.48907,-0.82969 -2.05586,-4.38669 -4.5962,-5.65686 -3.10329,-1.55164 -7.55939,-3.45153 -9.19239,-6.71751 -1.54166,-3.08332 -3.04346,-6.93255 -5.3033,-9.19239 -0.941,-0.94101 -4.80835,-16.19282 -5.65685,-18.73833 -1.05936,-3.17807 -3.88027,-5.63921 -5.3033,-8.48528 -1.81899,-3.63798 -10.77328,-5.38664 -14.14214,-7.07107 -1.58068,-0.79034 -4.5075,-0.35355 -6.36396,-0.35355 -2.7846,0 -6.96588,-0.86002 -9.54594,0 -7.15418,2.38473 -14.10806,7.6983 -23.68808,5.3033 -4.30595,-1.07649 -8.79997,-0.5109 -12.72792,-2.47487 -4.19178,-2.09589 -14.59216,1.61775 -19.44544,0 -2.88202,-0.96068 -5.74316,-1.70096 -8.83883,-2.47488 -2.24152,-0.56038 -4.83036,0.20663 -7.07107,-0.35355 -2.88867,-0.72217 -5.61553,-2.11099 -8.48528,-2.82843 -1.44277,-0.36069 -3.13603,0.29204 -4.59619,0 -12.18647,-2.43729 -26.6357,-0.7071 -39.24443,-0.7071 -2.05147,0 -12.06975,1.36527 -13.43503,0 -1.11397,-1.11397 -5.0846,-1.91422 -7.1158,-1.91422 m 85.55861,-336.67659 c 0.15792,2.14568 3.16849,24.36964 1.41161,26.12652 -0.65263,0.65263 -10.86864,-2.04379 -14,-1 -10.48323,3.49441 -49.34224,1 -63.5,1 -2.87584,0 -9.33261,-0.5837 -10.5,0 -0.58653,0.29327 -7.71758,29.43516 -9.5,33 -2.51625,5.0325 -18.27033,52.95934 -16.5,56.5 1.35208,2.70416 3.66441,3.82882 5,6.5 1.06626,2.13251 0.91382,5.32765 2,7.5 3.96322,7.92644 7.8436,17.8436 14.5,24.5 1.75408,1.75408 1.61258,5.11258 3,6.5 3.40218,3.40218 18.78979,-0.6051 22,1 1.2995,2.79765 5.47352,26.02648 3.5,28 -2.92414,2.92414 -19,-2.61403 -19,7 0,5.62971 7.38805,0.88805 10,3.5 0.45948,0.45948 -1.36002,21.36002 -1.5,21.5 -0.80977,0.80977 -30.99389,-4.00611 -33.5,-1.5 -3.63123,3.63123 7.75315,8.12658 9.5,9 3.17677,1.58839 5.10165,3.80083 8.5,5.5 2.65397,1.32699 5.55402,1.05402 7.5,3 1.12316,1.12316 0,9.6929 0,11.5 0,8.50425 2.04459,19.82166 0,28 -1.65216,6.60864 -3.63663,13.90988 -5.5,19.5 -1.58686,4.76058 -0.65346,36.69307 1,40 -6.00778,1.77913 -11.86797,-1.5 -15.5,-1.5 1.80281,7.87019 6.22237,14.44474 9.5,21 0.78349,1.56698 0.21647,3.93293 1,5.5 2.08606,4.17212 4.07671,9.57671 7,12.5 1.0601,1.0601 0.55736,18.44264 -1,20 -0.64479,0.64479 0,5.49173 0,6.5 0,14.84058 -1.5,29.26838 -1.5,43.5 0,7.16432 0.11252,32.14744 -1.88128,36.17417 -0.39042,0.7885 -3.64618,1.0621 -4.11872,0.82583 -1.05449,-0.52725 -4.19853,0.80147 -5,0 -2.71947,-2.71947 -8.04476,-6.04476 -11.5,-9.5 -4.61044,-4.61044 -7.35037,-14.35037 -10.5,-17.5 -2.10425,-2.10425 -6.10577,-3.60577 -8,-5.5 -2.81839,-2.81839 -4.61022,-16.61022 -10,-22 -2.6783,-2.6783 -7.62844,3.75688 -8,4.5 -0.38185,0.76371 -6.02928,1.01464 -7,1.5 -4.39314,2.19657 -8.83638,3.16819 -13.5,5.5 -1.78753,0.89377 -11.47106,30.55788 -9.5,34.5 1.39199,2.78398 9.30216,28.19784 7.5,30 -0.5026,0.5026 -2.59829,-1.79915 -3,-2 -2.88004,-1.44002 -7.45559,-3.45559 -10,-6 -4.36474,-4.36474 -14.415,-4.915 -20,-10.5 -4.13606,-4.13606 -9.32679,-10.4134 -15.5,-13.5 -3.90047,-1.95023 -11.90634,-2.90634 -14,-5 -1.04543,-1.04543 0.70798,-7.91597 1,-8.5 2.29719,-4.59438 1.95218,-11.40437 3.5,-14.5 2.11502,-4.23004 11.32843,-26.41421 12.21231,-30.97487 M 377,141 c 0.67299,4.31528 2.19055,12.92836 1.5,15 -0.61689,1.85067 -3.54922,-2 -5.5,-2 -0.91472,0 -1.51391,-1.00696 -2.5,-1.5 -2.46201,-1.23101 -8.55213,1.02606 -10.5,2 -4.09871,2.04936 -21.31042,23.18958 -16.5,28 3.12549,3.12549 5.5,3.96639 5.5,7.5 m -61,422.125 c 2.3391,6.02453 9.05416,14.48331 12.5,21.375 3.33309,6.66618 6.05411,13.55411 11,18.5 1.9414,1.9414 6.99848,-3 8.5,-3 2.8751,0 4.90587,-7.45293 7,-8.5 2.11577,-1.05788 4.28205,-0.89103 6.5,-2 6.40491,-3.20246 11.1795,-8 21,-8 2.00607,0 11.2241,-1.2759 12.5,0 1.36582,1.36582 4.52381,2.02381 6,3.5 1.43303,1.43303 2.93146,4.36293 4,6.5 0.58206,1.16412 4.58449,3.08449 5.5,4 2.55898,2.55898 3.39942,9.39942 6,12 1.36141,1.36141 4.25581,17.25581 5,18 0.53819,0.53819 5.3284,1.0858 6.5,0.5 1.70241,-0.8512 4.19021,-3.09511 6,-4 3.79051,-1.89526 8.29195,-0.64597 12,-2.5 0.0914,-13.43852 4.92168,-45.42168 11.5,-52 1.33546,-1.33546 9.99034,2.7445 12.11612,0.61872 3.37953,-3.37953 5.64533,-17.64162 8.88388,-24.11872 0.96026,-1.92052 7.8883,-22.6117 7,-23.5 -3.56886,-3.56886 -18.59187,6.81625 -27,-10 -1.95683,-1.28214 -2.38911,-2.77822 -3,-4 -0.72316,-1.44631 -3.52449,-1.57347 -4,-3 -1.55023,-4.65069 -8.33781,-12.83781 -12.5,-17 -3.2271,-3.2271 -3.41442,-8.32885 -5.5,-12.5 -1.054,-2.10801 -2.80213,-2.80213 -4,-4 -2.76133,-2.76133 -4.98565,-12.74283 -9.5,-15 -2.60261,-1.3013 -20,-10.76262 -20,-14.5 0,-2.88539 2.21848,-3.43695 4,-7 2.87811,-5.75622 7,-23.29619 7,-28.5 -0.85322,-1.67674 -0.58935,-4.08935 -2,-5.5 -1.16667,-1.16667 -4.33333,-0.33333 -5.5,-1.5 -2.19026,-2.19026 -5.28653,-3.78653 -8,-6.5 -2.36948,-2.36948 -2.79198,-6.29198 -5.5,-9 -1.41417,-1.41417 -5.61538,-2.11539 -7,-3.5 -3.73017,-3.73017 -6.31504,-10.65752 -11,-13 -3.23483,-1.61742 -5.68904,-2.68904 -8,-5 -2.50144,-2.50144 -9.39009,-1.39009 -11.5,-3.5 -1.11733,-1.11733 8.1239,-15.1239 9.5,-16.5 2.32767,-2.32767 11.18193,-18.36385 13.5,-23 0.65894,-1.31788 0.94442,-4.44443 2,-5.5 2.09559,-2.09559 3.92377,-4.84755 5.5,-8 1.31484,-2.62967 4.88674,-3.27347 6.5,-6.5 4.05928,-8.11856 10.57982,-15.65963 14,-22.5 -2.08818,-0.62786 -5.77002,-0.77002 -7,-2 -1.74301,-1.74301 -9.796,-10.09199 -10,-10.5 -2.04244,-4.08488 -3.49198,-9.99198 -6.5,-13 -0.69125,-0.69125 -2.20013,-1.90027 -2.5,-2.5 -0.65812,-1.31624 -0.51569,-3.51569 -1.5,-4.5 -2.2019,-2.20191 -5.38298,-4.88298 -7,-6.5 -1.11343,-1.11343 -0.27334,-4.54667 -1,-6 -0.83003,-1.66007 -4.7308,-3.2308 -6,-4.5 -1.33171,-1.33171 -7.05951,-27.05951 -9,-29 -7.15072,-7.15072 -15.9944,-5.48881 -21,-15.5 -0.52211,-4.1548 6.00848,-2.51697 7,-4.5 1.21861,-2.43721 -0.35243,-6.29513 1,-9 1.64729,-3.29459 6.07104,-3.07104 8.5,-5.5 2.39019,-2.39019 2.88093,-5.88093 5.5,-8.5 2.97337,-2.97337 6.64433,-0.82217 10,-2.5 1.88221,-0.94111 12.39756,-6.39756 13,-7 1.50777,-1.50777 0.0332,-2.04695 -0.0329,-3.47228"
     inkscape:connector-curvature="0"
     sodipodi:nodetypes="cssssssssssscsssccssscsccscccccsssccssscccssccssssssssssssscsssssscsssccssssssssssssssssssscsssssssssssssssssssssssssssssscscscccssssssssscssssssssscssssssssssssccsssssssssssssssssscsssssssscsssscsssssscccssssssssccssscssssssssssssssssssccsssssssssscsssssssssssccsssssssssssssssssssssssssccsssssccsssssssssssssscsssscsssssssscssssssssssssscssssssssscssssssc" />
  <path
     style="fill:none;stroke:#323232;stroke-width:2;stroke-linecap:butt;stroke-linejoin:miter;stroke-miterlimit:4;stroke-opacity:1;stroke-dasharray:none"
     d="m 370,1153 c 1.84372,-0.6146 4.06413,-3.0321 6,-4 1.58061,-0.7903 3.26867,-0.1343 5,-1 8.65697,-4.3285 21.34093,-6.9205 29.5,-11 3.87824,-1.9391 7.80199,-8.901 10,-10 4.01076,-2.0054 8.23851,-2.7385 11,-5.5 2.39421,-2.3942 9.32991,-0.8299 11.5,-3 1.23446,-1.2345 5.1324,-3.5662 7,-4.5 3.43814,-1.7191 14.41867,-14.0813 19.5,-9 6.62421,6.6242 11.33796,13.5139 15,24.5 0.89402,2.6821 1.59436,5.2831 2.5,8 0.5707,1.7122 -0.68288,6.3171 0.5,7.5 1.18354,1.1835 6.5,3.8035 6.5,6 0,1.1535 2.1251,3.1251 3,4 0.69076,0.6908 -0.0385,4.5 1.5,4.5 1.06719,0 1.04548,-2.0227 2,-2.5 3.87775,-1.9389 8.54625,-5.0231 12.5,-7 0.007,0 0.36807,-1.8681 0.5,-2 4.71839,-4.7184 13.25212,-10.8761 19.5,-14 1.29079,-0.6454 4.52522,0.4748 5.5,-0.5 2.23054,-2.2305 7.61305,-2.8065 11,-4.5 5.18254,-2.5913 18.19364,2.1127 21.5,-4.5 2.61227,-5.2245 -6.87589,-6.2518 -8.5,-9.5 -1.50337,-3.0067 6.07065,-11.5707 8,-13.5 2.65257,-2.6526 1.20288,-7.2029 3.5,-9.5 2.15244,-2.1524 11.15594,4.552 12.5,5 8.2561,2.752 19.45099,4.9755 26.5,8.5 1.39474,0.6974 0.10258,4.8013 1.5,5.5 6.32502,3.1625 12.48265,5.7457 19.5,7.5 3.73719,0.9343 5.67037,5.0852 8.5,6.5 2.76519,1.3826 5.87864,-2.6893 7.5,-3.5 7.4948,-3.7474 11.02701,-4.581 14,-13.5 0.62746,-1.8824 2.13441,-6.7312 1,-9 -0.91279,-1.8256 -2.58381,-3.1676 -3.5,-5 -2.73637,-5.4727 5.79661,-19.2966 9,-22.5 2.13627,-2.1363 16.9976,6.8317 19.5,8.5 2.85155,1.901 6.16967,0.085 9,1.5 4.76615,2.3831 8.86237,2.1812 13.5,4.5 1.45554,0.7278 0.27524,3.5505 1,5 0.76884,1.5377 1.75209,1.0042 2.5,2.5 0.66384,1.3277 -0.4735,3.5795 0,5 0.98198,2.9459 5.14938,2.7988 6.5,5.5 1.12359,2.2472 -1.74519,8.6274 1,10 8.62953,4.3148 33.31884,-20.0711 33.5,-28 11.66683,-3.8889 19.59006,-12.795 31,-18.5 2.79936,-1.3997 6.67473,-1.3374 9,-2.5 7.79048,-3.8952 12.55563,-9 22.5,-9 3.18734,0 12.20171,-6.2983 12.5,-6 1.55758,1.5576 2.94286,4.4429 4.5,6 4.6709,4.6709 11.92269,6.3454 15,12.5 1.23394,2.4679 9.03544,14.4646 10.5,13 3.05468,-3.0547 6.64156,-20.9247 8.5,-26.5 0.68899,-2.067 -0.46727,-4.5655 0.5,-6.5 1.69776,-3.3955 4.68001,-6.86 6.5,-10.5 1.34802,-2.696 0.74042,-5.8702 4,-7.5 1.90966,-0.955 4.74363,-1 7.5,-1 10.58178,0 11.02097,10.521 15.5,15 0.55758,0.5576 4.62386,0 5.5,0 10.6792,0 21.09439,2.5 30.5,2.5 1.16667,0 0,-2.3333 0,-3.5 0,-4.1667 0,-8.3333 0,-12.5 0,-3.9755 0.19703,-7.9089 -1,-11.5 -2.47635,-7.429 -12.78678,-21.71322 -8,-26.5 0.97408,-0.97408 2.88512,-1.42341 4.5,-2.5 2.19296,-1.46198 2.09329,-4.09329 3.5,-5.5 4.24679,-4.24679 14.8289,17.414 15,17.5 1.28103,0.6405 2.4186,1.095 4.5,1 0.17219,-0.3444 2.91255,-6.41254 5.5,-9 3.29883,-3.29883 8.31627,-3.94879 10,-9 0.35296,-1.05889 2.21524,-0.93048 2.5,-1.5 2.62374,-5.24749 7.88367,-11.76734 10.5,-17 1.52107,-3.04213 7.21141,-4.92282 9,-8.5 2.19219,-4.38437 6.4738,-8.97383 10,-12.5 4.0985,-4.09852 9.3957,-7.39568 13.5,-11.5 5.1082,-5.10815 10.5199,-17.03977 14,-24 2.1759,-4.35173 -9.1725,-32.8451 -11.5,-37.5 -2.7728,-5.54563 -7.6939,-10.77544 -9.5,-18 -0.78,-3.12003 -7.785,-21.28502 -9,-22.5 -1.2873,-1.28734 -3,-10.20544 -3,-9 0,1.2693 0.6025,-2.60247 1.5,-3.5 1.6671,-1.66708 1.3704,-8.75911 0,-11.5 -2.90977,-5.81955 -1.1127,-14.7334 -4,-21 1.5728,-3.14552 9.0723,-2.5723 10.5,-4 0.629,-0.62899 3.1757,-18.35138 5,-22 3.5072,-7.01435 3.5085,-11.45629 7.2626,-18.96447 0.6667,-1.33333 2.4269,-11.79839 3.0936,-13.13172 0.9346,-2.5763 1.0142,-3.90965 2.1135,-6.55026 0.7333,-1.46667 -0.203,-4.38688 0.5303,-5.85355 2.6628,-5.3256 4.8401,-12.02036 7,-18.5 1.6111,-4.83319 0.2127,-17.78734 -2.5,-20.5 -1.7129,-1.71293 -5,-2.73187 -5,-6 0,-3.24995 4.638,0.36198 6.5,-1.5 0.228,-0.22804 2,-3.49945 2,-3.5 1.8115,-0.90574 22.4153,5.0847 25,2.5 0.7016,-0.70163 -1.5574,-7.61474 -2,-8.5 -2.6908,-5.38152 -2.3805,-12.76107 -5,-18 -3.5244,-7.0488 -10.7648,-15.60983 -14.25,-23.25 -6.1168,0 -26.7303,10.67276 -32.5,15 -1.6588,1.24408 -7.24756,2.49919 -9.5,3.25 -0.97064,0.32355 -2.25686,-0.24829 -3.25,0 -3.51752,0.87938 -6.63648,2.40912 -10,3.25 -1.66393,0.41598 -3.39903,1.46634 -5,2 -1.89126,0.63042 -4.37106,-0.12631 -6.25,0.5 -5.93506,1.97835 -11.47725,0.27275 -14.75,-3 -1.33169,-1.33169 3.65364,-4.90364 4.25,-5.5 1.27743,-1.27743 1,-4.93879 1,-7 0,-3.66613 -0.74775,-5.99325 -1.75,-9 -0.41593,-1.24779 -0.10305,-4.35305 -1,-5.25 -3.24824,-3.24824 -6.76279,-5.91637 -10.75,-8.75 -4.092,-2.046 -8.52438,-2.25813 -13,-3.75 -1.36709,-0.4557 -3.16386,0.19538 -4.5,-0.25 -1.71314,-0.57105 -3.96973,0.35605 -5.75,0 -4.89512,-0.97902 -20.58791,-8.33104 -24.25,-6.5 -0.55343,0.27671 -1.82987,0.32987 -2.25,0.75 -0.8307,0.8307 -1.92843,2.58922 -3.25,3.25 -2.49844,1.24922 -6.16704,3.41704 -8,5.25 -2.30772,2.30772 -15.61757,-4.06622 -17.75,-3 -3.63454,1.81727 -8.24614,2.37307 -12,4.25 -1.19632,0.59816 -2.02488,1.63744 -3.25,2.25 -1.38871,0.69435 -3.34728,0.29864 -4.75,1 -2.02715,1.01358 -3.8467,4.0766 -4,4 -1.87194,-0.93597 -10.6775,-6.67751 -12,-8 -1.98428,-1.98428 -2.65658,-5.02105 -5.25,-6.75 -0.86616,-0.57744 -4.60687,-2.53627 -4,-3.75 0.39259,-0.78517 1.95923,-1.16846 2.25,-1.75 4.51851,-9.03702 14.02851,-15.27851 21.5,-22.75 1.34132,-1.34132 2.16532,-3.41532 3.5,-4.75 2.1675,-2.1675 5.30846,-2.58769 7.25,-5.5 0.88898,-1.33348 1.57476,-1.93777 1.50606,-3.61845 0,-5.26424 -3.72807,-11.37675 -5.3033,-17.67767 -0.64351,-2.57404 1.18038,-6.83163 0,-9.19239 -1.46934,-2.93867 0.38596,-7.35981 -1.06066,-10.25305 -0.96818,-1.93636 -1.76421,-4.58553 -2.47487,-6.71751 -1.94089,-5.82266 1.75118,-18.68857 3.53553,-24.04163 1.30978,-3.92935 0,-10.70819 0,-14.84925 0,-4.32546 -1.34349,-11.17231 0,-15.20279 3.23627,-9.70881 3.39022,-18.47525 7.77817,-27.57717 2.20166,0 24.43814,6.76047 25.45585,7.77818 0.36493,0.36493 23.54265,0.70711 26.16295,0.70711 3.47067,0 7.55149,2.19688 10.96015,1.06066 6.86244,-2.28748 15.26911,-6.85014 18.38478,-13.08148 0.82776,-1.65552 1.02234,-7.03275 2.47487,-8.48528 3.13569,-3.13569 3.73215,-7.6609 4.94975,-11.31371 1.54638,-4.63915 -0.84277,-10.77103 0.35356,-15.55635 4.9631,-19.85242 14.51747,-35.59547 13.43502,-56.56854 -6.74464,-3.37232 -10.17947,-12.93432 -14.14213,-20.85965 -0.87311,-1.74621 -3.40906,-2.57547 -4.24264,-4.24264 -0.49508,-0.99016 1.61507,-4.79706 2.12132,-5.3033 0.59185,-0.59186 2.63811,-0.35356 3.53553,-0.35356 6.72816,0 7.53511,2.17657 12.37437,4.5962 1.19728,0.59864 2.57247,2.87722 3.88909,3.53553 1.38213,0.69111 5.31058,2.81387 6.36396,0.70711 1.45222,-2.90443 -1.00293,-11.96308 -2.82843,-13.78858 -1.52129,-1.52129 1.32047,-7.16481 -0.35355,-8.83884 -1.10675,-1.10674 -5.19272,-3.48024 -6.71752,-4.24264 -0.55303,-0.27651 -1.48036,-2.60717 -1.76776,-3.18198 -0.92737,-1.85473 -3.79337,-3.43982 -5.3033,-4.94975 -1.71154,-1.71154 -2.49183,-3.91451 -3.88909,-6.0104 -2.21444,-3.32166 -5.8294,-5.77189 -8.83884,-7.77818 -1.07716,-0.71811 -2.17079,-3.11487 -3.53553,-3.53553 -6.67076,-2.22359 -8.22789,-4.29072 -13.78858,-7.07107 -3.74938,-1.87469 -9.17825,-2.22974 -12.72792,-4.5962 -6.31137,-4.20758 -12.30691,-8.98187 -19.09189,-12.37436 -2.54245,-1.27123 -7.27753,-1.56907 -9.89949,-3.53554 -6.76334,-5.0725 -15.11551,-9.8413 -21.56676,-14.14213 -3.77079,-2.51387 -5.96125,-8.03342 -7.77817,-11.66727 -1.24376,-2.4875 -4.65355,-4.50545 -6.36396,-7.07106 -1.3353,-2.00295 -2.32411,-5.50609 -3.88909,-7.07107 -3.23915,-3.23915 -12.31007,2.14275 -16.61701,0.70711 -4.42805,-1.47602 -8.09211,-2.80202 -12.37437,-5.65686 -3.02033,-2.01355 -4.3399,-4.29127 -7.07107,-5.65685 -2.46493,-1.23247 -6.91844,0.52228 -9.54594,-0.35356 -5.94447,-1.98149 -12.40896,-4.08316 -17.67767,-6.71751 -4.05408,-2.02704 -11.14872,2.02704 -15.20279,0 -2.25586,-1.12793 -4.37723,-2.227 -7.47863,-2.2081 -1.53202,0.76601 -14.64152,40.92457 -17,48 -1.1287,3.3861 -0.0512,6.10233 -1.5,9 -1.59965,3.1993 -15.19888,1.65056 -17.5,0.5 -2.5869,-1.29345 -1.44615,-6.22307 -4,-7.5 -0.76572,-0.38286 -4.57525,0.0753 -5,0.5 -2.66783,2.66783 5.74848,16.25152 5,17 -0.53324,0.53324 -1.49922,0 -2.5,0 -3.23907,0 -13.71431,1.14284 -17,-0.5 -2.86447,-1.43224 -5.06169,-3.78084 -7.5,-5 -2.18485,-1.09243 -5.77059,-0.77059 -7.5,-2.5 -1.84682,-1.84682 -4.9156,-2.5 -8,-2.5 -4.37501,0 0.71396,-16.92791 1.5,-18.5 1.76088,-3.52176 9.5508,-2.1016 11.5,-6 2.43935,-4.87869 -3.86089,-11.72178 -5.5,-15 -2.89546,-5.79093 -2.70831,-11.41663 -5.5,-17 -2.51821,-5.03642 -8.60902,-5.71805 -11,-10.5 -1.45142,-2.90284 -1.94734,-6.94735 -4,-9 -1.88737,-1.88737 -4.49542,2.49085 -6,5.5 -2.52505,5.0501 0.80155,12.09534 -1,17.5 -1.90193,5.70578 -2.57303,15.04788 -3.58579,19.77297 -0.55487,2.58881 0.24444,6.51242 -0.34317,8.66281 -0.5876,2.15039 -2.56211,2.52756 -6.18976,6.15521 C 646.96948,213.50279 630.70599,202.41197 630,201 c -2.51804,-5.03608 -7.86743,-7.73487 -10.5,-13 -1.72676,-3.45352 -4.55482,-6.60964 -6,-9.5 -1.42172,-2.84345 -0.41751,-7.45875 -3.5,-9 -4.88916,-2.44458 -8.96472,6.73236 -11.5,8 -2.60945,1.30472 -5.20929,5.20929 -7,7 -2.66246,2.66246 -9.73286,4.96572 -11.5,8.5 -1.01471,2.02942 -18.91868,22.70934 -19.5,23 -4.87201,2.436 -9.96471,2.53201 -16,5.5 -1.95358,3.90717 -10.6489,-2.20219 -8,-7.5 1.21205,-2.4241 5.12078,-13.37922 4.5,-14 -2.41433,-2.41433 -42.15517,6.34483 -45,3.5 -2.48892,-2.48892 -8.67284,-5.83642 -12,-7.5 -4.88436,-2.44218 -10.27312,-13.27312 -13,-16 -3.34415,-3.34416 -7.76532,-3.63266 -11.5,-5.5 -0.52695,-0.26348 0,-6.01481 0,-7 0,-5.45617 -1.97086,-26.55829 0,-30.5 0.12298,-0.24597 1.84884,-3.65116 1,-4.5 -1.52443,-1.52443 -3.60695,-3.30347 -6,-4.5 -0.95065,-0.47533 -10.12082,-17.24163 -11,-19 -2.23376,-4.46752 -3.86611,-16.366113 -6.5,-19.000001 -1.75699,-1.75699 -12.82399,0.411995 -14,1 -2.08088,1.040441 -13.37596,0.875959 -14.5,2 -2.25574,2.25574 -13.87545,11.750911 -15,14.000001 -1.16506,2.33013 -3.49642,6.99642 -6,9.5 -1.2286,1.2286 -3.18211,2.36421 -4,4 -2.5142,5.02839 -0.26762,13.03524 -2.5,17.5 -0.74199,1.48397 -2.38022,1.82248 -4,3 -3.79044,-4.37404 -6.30469,-3.65235 -11,-6 -1.79668,-0.89834 -2.34989,-4.34989 -4,-6 -4.64105,-4.64106 -13.62693,-6.62693 -18.5,-11.5 -0.2585,-0.2585 -0.32231,-2.14462 -0.5,-2.5 -1.1076,-2.2152 -4.50263,-5.50527 -5,-6.5 -1.23109,-2.46219 -1.74531,-8.49062 -3.5,-12.000001 -2.03529,-4.070584 -6.88918,-7.278369 -8.5,-10.5 -3.16037,-6.320731 -6.80005,-12.900157 -9,-19.5 -1.14082,-5.594467 7.5,-7.729986 7.5,-11.5 0,-8.294536 -16.48431,-8.51569 -12.5,-12.5 2.63041,-2.630413 5.96097,-2.230483 9.5,-4 1.41998,-0.709988 9.07554,-13.424458 6,-16.5 -3.52364,-3.523637 -10.32544,-0.837277 -13,0.5 -3.8991,1.949549 -8.98434,-1.507829 -13,0.5 -1.8602,0.9301 -2.46989,5.969886 -4,7.5 -1.5118,1.511799 -5.79556,1.295557 -7,2.5 -1.99217,1.992172 -6.17609,4.176086 -8.5,6.5 -3.46027,3.460271 -2.36041,10.360406 -6,14 -3.7647,3.764698 -28.23603,2.618017 -35,6 -1.48359,0.741796 -5.00875,-8.004373 -9,-10 -4.58574,-2.292869 -14.34614,-4.653859 -19,0 -0.91944,0.91944 -1.18568,5.09284 -2,5.5 -5.62234,2.81117 -13.15536,-6.172318 -20.5,-2.5 -2.62202,1.31101 -2.40318,8.29045 -1.5,11 1.66181,4.985415 5.89577,21.104226 1.5,25.5 -1.37624,1.376242 -2.68453,2.869063 -3.5,4.5 -2.02804,4.056077 4.89685,9.706301 2,15.500001 -2.02848,4.05697 -6.74819,10.24818 -10,13.5 -1.68514,1.68514 -10.04862,3.04862 -13.5,6.5 -3.24778,3.24778 -6.12747,13.06373 -9,14.5 -3.05469,1.52734 -10.45716,-0.0428 -13,2.5 -2.35735,2.35735 3.60968,6.67097 3,8.5 -1.04946,3.14838 -6.16103,1.16103 -8,3 -3.98678,3.98678 0.33059,15.6694 -1,17 -1.5,1.5 -6,0 -7.5,1.5 -1.67783,1.67783 1.54579,7.13737 2,8.5 0.68568,2.05704 2.80856,6.88288 1.5,9.5 -0.42318,0.84636 -2.75323,3.99355 -2,5.5 0.82456,1.64912 4.28357,2.06714 5,3.5 1.51473,3.02945 2.90099,6.90099 5.5,9.5 2.9285,2.92849 2.93662,10.87323 5,15 0.95113,1.90226 4.15892,2.07946 6,3 4.51799,2.25899 17.99703,5.75149 23.5,3 1.37982,-0.68991 5.49759,-1.83414 8,-1 5.95704,1.98568 7.20864,3.20864 10,6 0.93152,0.93152 3.51921,1.01921 4.5,2 9.02769,7.89677 8.66047,8.83953 1.5,16 -0.65984,0.65984 -0.57506,12.92494 0,13.5 2.62122,2.62122 6.23533,6.61766 10,8.5 2.21917,1.10959 6.39753,-1.10247 8,0.5 4.31834,4.31834 -4.16105,11.83895 -1,15 4.22031,4.22031 8.24803,4.74803 12.5,9 5.5947,5.5947 3.12661,19.25321 7,27 2.38199,4.76398 7.2908,11.2908 10,14 1.73021,1.73021 1.13473,5.76946 2.5,8.5 2.80976,5.61952 6.89653,11.79307 9.5,17 2.05067,4.10134 9.81873,5.31873 11,6.5 2.13769,2.13769 0.71824,7.82736 2.5,10.5 2.53993,3.80989 5.63567,6.77135 7.5,10.5 1.24163,2.48326 1.53186,6.53186 3,8 0.42949,0.42949 0,3.39909 0,4 0,4.19139 0.67119,9.15763 -1,12.5 -2.37116,4.74232 -8.5,6.90001 -8.5,13.5 -0.16667,0.83333 -0.5,1.65016 -0.5,2.5 0,0.25065 1.69372,3.88744 2,4.5 0.99979,1.99958 0.99979,14.00042 0,16 -2.11567,4.23134 -5.6277,12.61689 -3.5,19 0.85194,2.55582 6.9802,16.53961 6,18.5 -1.60723,3.21446 -7.98553,-0.75724 -10.5,0.5 -0.59115,0.29557 -10.73197,20.46394 -13,25 -0.97249,1.94498 -16.58519,18.91481 -15.5,20 2.9069,2.9069 9.6716,2.78106 13,5 6.51651,4.34434 14.58095,12.29048 21,15.5 2.05513,1.02756 4.9261,1.9261 6.5,3.5 1.80109,1.80108 2.89174,5.78347 4,8 1.47429,2.94857 -0.53285,7.9343 1,11 2.99939,5.99879 6.00665,17.01994 7.5,21.5 -1.1429,2.49543 -1.52553,5.51277 -3.5,6.5 -3.77946,4.52021 -4.14745,6.14745 -8.5,10.5 -3.10616,3.10616 -7.10517,5.55259 -11,7.5 -1.00024,0.50012 -2.03957,3.07914 -2.5,4 -1.86158,3.72316 -6.74972,5.24972 -9.5,8 -3.44979,3.44979 -4.2835,9.7835 -7.5,13 -7.12006,7.12006 -10.52264,17.04528 -14.5,25 0.41426,-0.0585 -3.41918,3.08082 -4.5,2 -7.02331,-7.02331 -5.72709,4.61354 -12.5,8 -1.38567,0.69283 -2.24582,0.50836 -3,-1 -2.33237,-4.66475 -3.01237,-16.02473 -5.5,-21 -1.84586,-3.69173 -7.86166,-10.58497 -8.5,-12.5 -0.94116,-2.82348 1.98045,-11.51955 0,-13.5 -2.39215,-2.39215 -10.00573,-0.25287 -13.5,-2 -3.04441,-1.5222 -9.48739,-4.97477 -10.5,-7 -0.73454,-1.46909 -1.62537,-4.31268 -3,-5 -2.82899,-1.41449 -8.0624,-4.0624 -10.5,-6.5 -2.38005,-2.38005 -19.588,-11.412 -20,-11 -3.01287,3.01287 -5.5933,6.1866 -7.5,10 -0.883,1.76601 -5.51508,4.01508 -7.5,6 -2.54562,2.54562 -2.90836,5.40836 -5.5,8 -3.36598,3.36598 -8.35509,6.71017 -10.5,11 -2.43548,4.87095 -11.80572,22.30572 -15.5,26 -1.849283,1.84928 -15.896371,16.79274 -16.5,18 -2.872063,5.74413 -7.662837,10.24425 -11.5,16 -0.373338,0.56001 -0.455774,2.45577 -1,3 -2.556286,2.55629 -5.291349,4.87405 -6.5,8.5 -1.941092,5.82328 -8.37034,9.80551 -11.5,14.5 -4.375311,6.56297 -29.241148,36.0177 -25.5,43.5 2.4888,4.9776 28.192871,14.92322 34.5,16.5 3.648959,0.91224 5.660646,4.33032 9,6 2.507012,1.25351 6.139979,1.42665 8.5,3 9.814564,6.54304 18.253168,13.37658 28.5,18.5 -1.76094,2.07798 -0.80736,2.11472 -1.5,3.5 -3.562985,7.12597 -9.338945,13.17789 -12.5,19.5 -2.288718,4.57744 -2.311553,11.81155 -6.5,16 -5.230344,5.23034 -10.175967,13.35193 -14,21 -0.814956,1.62991 -4.371583,4.24317 -5.5,6.5 -1.32931,2.65862 -3.080757,6.58076 -4.5,8 -1.987391,1.98739 -10.193571,-1.20964 -14,4.5 -1.553985,2.33098 -10.301602,15.90481 -11,18 -1.161377,3.48413 -2.467145,7.46714 -5,10 -1.957785,1.95778 -10.320943,0.16047 -13,1.5 -1.144881,0.57244 -9.8914074,23.60859 -8,25.5 3.372229,3.37223 11.923952,3.64132 16,5 6.169841,2.05661 31.121024,16.74205 34,22.5 1.717898,3.4358 6.056134,4.8342 8.5,8.5 3.651238,5.47686 5.732233,12.7322 10.5,17.5 3.909916,3.9099 -1.926339,11.1473 0,15 3.574317,7.1486 17.190338,16.6548 27.5,11.5 2.45663,1.5331 5.20562,1.3528 7.5,2.5 6.2963,3.1482 11.55775,7.5193 19,10 2.54951,0.8498 6.99496,1.495 8.5,3 0.28578,0.2858 0.245,5.255 0,5.5 -0.7581,0.7581 -2.34192,0.1838 -3,1.5 -1.91524,3.8305 1.29171,9.2917 3.5,11.5 3.5387,3.5387 10.76937,2.7694 14,6 0.75276,0.7528 2,-0.2286 2,0 0,1.7715 -2.18237,26.5471 -2.5,27.5 -0.78086,2.3426 -6.97476,7.0252 -3.5,10.5 4.47143,4.4714 11.87556,5.6878 17.5,8.5 4.02519,2.0126 7.14754,6.6475 10.5,10 3.85581,3.8558 13.57817,5.6563 16,10.5 7.75171,4.117 14.38392,6.692 22,10.5 0.73447,0.3672 7.40615,13.4061 10,16 3.27208,3.2721 9.39613,4.7641 13.5,7.5 5.91634,3.9442 12.18254,11.3413 18.5,14.5 7.92315,3.9616 17.24155,5.0805 26,8 3.56823,1.1894 8.0027,0.3342 11.5,1.5 3.8017,1.2672 12.54252,-2.9575 15.5,0 3.51504,3.515 11.07969,5.0398 16,7.5 9.99613,4.9981 17.73162,12.6158 25.5,16.5 1.18466,-2.3176 1.48072,-3.4614 2.5,-5.5 0.9617,-1.9234 3.30312,-4.1062 4.5,-6.5 1.93387,-3.8677 2.0906,-8.6812 4,-12.5 1.73333,-3.4667 -1.73333,-9.5333 0,-13 4.80542,-9.6108 -0.0483,-22.2528 5.5,-31.5 z"
     id="path3757"
     inkscape:connector-curvature="0"
     sodipodi:nodetypes="csssssccssssssssssssscsssssssssssssssscssssssssssssssssssssssssssssssssssssscssssssscsssssssssscssssssscsssssssssssssssssssssssssssssscsssssssssssssscsssssssscsscsscssssssscssssssscssssssscssssssssssscssssssssssscsccccscsccccsscccscssssssssssccsssssssscscsssssssssscssscscscsssssssscsscssscscccscsccssssssscccssssssssssssssssssssssssscsssssssssssssssscsscssscsssssccsssscsscssssc" />
</svg>
