<?xml version="1.0" encoding="UTF-8" standalone="no"?>
<!-- Created with Inkscape (http://www.inkscape.org/) -->

<svg
   xmlns:dc="http://purl.org/dc/elements/1.1/"
   xmlns:cc="http://creativecommons.org/ns#"
   xmlns:rdf="http://www.w3.org/1999/02/22-rdf-syntax-ns#"
   xmlns:svg="http://www.w3.org/2000/svg"
   xmlns="http://www.w3.org/2000/svg"
   xmlns:sodipodi="http://sodipodi.sourceforge.net/DTD/sodipodi-0.dtd"
   xmlns:inkscape="http://www.inkscape.org/namespaces/inkscape"
   version="1.0"
   width="1700"
   height="800"
   id="svg26787"
   inkscape:version="0.47 r22583"
   sodipodi:docname="L79-AT.svg">
  <metadata
     id="metadata13">
    <rdf:RDF>
      <cc:Work
         rdf:about="">
        <dc:format>image/svg+xml</dc:format>
        <dc:type
           rdf:resource="http://purl.org/dc/dcmitype/StillImage" />
        <dc:title></dc:title>
      </cc:Work>
    </rdf:RDF>
  </metadata>
  <sodipodi:namedview
     pagecolor="#ffffff"
     bordercolor="#666666"
     borderopacity="1"
     objecttolerance="10"
     gridtolerance="10"
     guidetolerance="10"
     inkscape:pageopacity="0"
     inkscape:pageshadow="2"
     inkscape:window-width="1680"
     inkscape:window-height="994"
     id="namedview11"
     showgrid="false"
     showguides="true"
     inkscape:guide-bbox="true"
     inkscape:zoom="0.10319265"
     inkscape:cx="-186.69376"
     inkscape:cy="1647.1883"
     inkscape:window-x="-4"
     inkscape:window-y="-4"
     inkscape:window-maximized="1"
     inkscape:current-layer="svg26787" />
  <defs
     id="defs26789">
    <inkscape:perspective
       id="perspective5683"
       inkscape:persp3d-origin="0.5 : 0.33333333 : 1"
       inkscape:vp_z="1 : 0.5 : 1"
       inkscape:vp_y="0 : 1000 : 0"
       inkscape:vp_x="0 : 0.5 : 1"
       sodipodi:type="inkscape:persp3d" />
    <inkscape:perspective
       id="perspective5683-5"
       inkscape:persp3d-origin="0.5 : 0.33333333 : 1"
       inkscape:vp_z="1 : 0.5 : 1"
       inkscape:vp_y="0 : 1000 : 0"
       inkscape:vp_x="0 : 0.5 : 1"
       sodipodi:type="inkscape:persp3d" />
    <inkscape:perspective
       id="perspective5683-3"
       inkscape:persp3d-origin="0.5 : 0.33333333 : 1"
       inkscape:vp_z="1 : 0.5 : 1"
       inkscape:vp_y="0 : 1000 : 0"
       inkscape:vp_x="0 : 0.5 : 1"
       sodipodi:type="inkscape:persp3d" />
    <inkscape:perspective
       id="perspective5683-4"
       inkscape:persp3d-origin="0.5 : 0.33333333 : 1"
       inkscape:vp_z="1 : 0.5 : 1"
       inkscape:vp_y="0 : 1000 : 0"
       inkscape:vp_x="0 : 0.5 : 1"
       sodipodi:type="inkscape:persp3d" />
    <inkscape:perspective
       id="perspective5683-0"
       inkscape:persp3d-origin="0.5 : 0.33333333 : 1"
       inkscape:vp_z="1 : 0.5 : 1"
       inkscape:vp_y="0 : 1000 : 0"
       inkscape:vp_x="0 : 0.5 : 1"
       sodipodi:type="inkscape:persp3d" />
  </defs>
  <path
     d="m 1285.7154,780.23748 c 217.8864,0 394.5221,-170.24008 394.5221,-380.23737 0,-209.99763 -176.6357,-380.237585 -394.5221,-380.237585 l -871.43095,0 c -217.88661,0 -394.521935,170.239955 -394.521935,380.237585 0,209.99729 176.635325,380.23737 394.521935,380.23737 l 871.43095,0 z"
     style="fill:#ffffff;stroke:#000000;stroke-width:39.52505875;stroke-linecap:butt;stroke-linejoin:miter;stroke-miterlimit:4"
     id="path26411" />
  <path
     id="path2834-8-0-4"
     d="m 1123.3283,202.06685 c 25.8212,34.9758 38.7377,100.9543 38.7377,197.9332 0,97.5135 -12.9164,163.6221 -38.7377,198.3307 -25.581,34.4492 -60.1792,51.6694 -103.7872,51.6694 -44.1005,0 -78.9385,-17.2202 -104.5196,-51.6694 -25.5819,-34.9758 -38.3716,-101.0844 -38.3716,-198.3307 0,-96.98 12.7897,-162.9574 38.3716,-197.9332 25.5811,-34.7093 60.4191,-52.067 104.5196,-52.067 43.3624,-4e-4 77.9601,17.3577 103.7872,52.067 z m -158.6056,41.7327 c -6.5781,13.5136 -11.3292,33.3865 -14.2524,59.6191 -2.9236,26.7659 -4.3849,60.6805 -4.3849,101.7488 0,76.0509 6.2121,126.5281 18.6373,151.4314 12.9107,25.4378 31.1836,38.1561 54.8184,38.1561 23.3878,0 41.4147,-12.7183 54.086,-38.1561 6.0871,-12.4512 10.8376,-31.7965 14.2536,-58.029 3.4089,-25.9644 5.1159,-58.8239 5.1159,-98.5698 0,-78.4296 -6.4576,-130.4962 -19.3695,-156.2005 -12.6704,-25.4374 -30.6982,-38.1562 -54.086,-38.1562 -24.1202,0 -42.3923,12.7188 -54.8184,38.1562 z"
     style="fill:#000000" />
  <path
     style="fill:#000000"
     d="m 622.6511,640.86855 c -18.9882,-6.0867 -34.6897,-14.824 -47.1051,-26.2118 -12.6605,-11.1198 -22.035,-24.7534 -28.118,-40.9065 -6.3336,-15.8861 -9.494,-34.018 -9.494,-54.4071 0,-62.7482 28.2373,-107.3588 84.717,-133.8376 -13.8757,-10.3257 -25.0758,-20.2543 -33.594,-29.7857 -8.7641,-9.2647 -15.5818,-18.796 -20.4494,-28.5943 -4.8725,-9.5317 -8.1592,-19.3234 -9.8597,-29.3886 -1.7061,-9.7919 -2.5558,-20.3847 -2.5558,-31.771 0,-16.4138 2.5558,-31.7715 7.6684,-46.0692 5.1126,-14.0305 13.0202,-26.2117 23.7353,-36.5376 10.4645,-10.3256 23.7354,-18.5287 39.8023,-24.6221 16.0669,-5.821 35.1749,-8.7371 57.3304,-8.7371 18.4974,0 35.9049,2.2525 52.2168,6.7515 16.3082,4.5049 30.5493,11.2571 42.7248,20.2543 11.9236,9.2702 21.4177,20.9182 28.4822,34.9479 6.812,14.0365 10.2253,30.7171 10.2253,50.0401 0,13.7693 -1.461,27.1416 -4.3828,40.1111 -3.1663,12.9756 -7.7936,24.8894 -13.8763,35.7434 -6.0868,11.1199 -13.6358,21.0484 -22.6398,29.7856 -9.008,9.0043 -19.3529,16.2832 -31.0383,21.8427 24.3402,14.2967 45.1533,31.113 62.443,50.4371 8.7631,9.7984 15.3356,21.1844 19.717,34.1539 4.3816,12.9762 6.5726,28.0671 6.5726,45.2737 0,21.1843 -3.411,39.8501 -10.2237,55.9965 -6.8187,16.153 -16.5588,29.7866 -29.2123,40.9065 -12.9067,11.1199 -28.3629,19.4591 -46.3762,25.0185 -18.2582,5.8217 -38.7067,8.7373 -61.3464,8.7373 -24.83,0 -46.62,-3.0439 -65.3634,-9.1315 z m 45.2805,-228.357 c -2.4362,-1.0545 -4.8725,-2.3826 -7.3029,-3.971 -35.7853,25.4175 -53.6791,60.3656 -53.6791,104.8451 0,55.0731 27.5074,82.6053 82.526,82.6053 11.4394,0 21.9087,-1.7176 31.4028,-5.1623 9.4951,-3.1769 17.6477,-8.0742 24.4654,-14.6948 6.5728,-6.6139 11.6865,-14.9551 15.3369,-25.0185 3.6516,-9.7927 5.477,-21.3097 5.477,-34.5519 0,-10.0587 -1.459,-19.3222 -4.3803,-27.8002 -2.9225,-8.4703 -7.7948,-16.6803 -14.6079,-24.6223 -7.0627,-7.9431 -16.4315,-15.7493 -28.1168,-23.4302 -11.6855,-7.6751 -26.4176,-15.8861 -44.1848,-24.6224 -2.4343,-1.0573 -4.7452,-2.2486 -6.9364,-3.5768 z m -18.6228,-82.6056 c 17.5272,13.2423 36.1507,25.2866 55.8701,36.1405 6.812,-4.4993 13.0193,-9.5315 18.6227,-15.0909 5.5968,-5.8208 10.4644,-12.4412 14.6068,-19.857 4.1356,-7.4094 7.3038,-15.7496 9.4941,-25.0196 2.1903,-9.2645 3.2869,-19.59 3.2869,-30.9771 0,-46.8632 -22.1546,-70.294 -66.459,-70.294 -10.4701,0 -19.5988,1.5884 -27.3868,4.765 -7.7947,2.9168 -14.2412,7.149 -19.3538,12.7088 -5.3575,5.5602 -9.2549,12.1808 -11.6854,19.8567 -2.4362,7.6818 -3.6514,16.1521 -3.6514,25.4176 0.238,28.8605 9.1276,49.6419 26.6557,62.35 z"
     id="path3408" />
</svg>
