<?xml version="1.0" encoding="UTF-8" standalone="no"?>
<svg
   viewBox="12.8 20.56 770.8764 510.13878"
   preserveAspectRatio="xMidYMid"
   width="770.8764"
   height="510.13879"
   version="1.1"
   id="svg651"
   xmlns="http://www.w3.org/2000/svg"
   xmlns:svg="http://www.w3.org/2000/svg">
  <defs
     id="defs655" />
  <clipPath
     id="10143">
    <rect
       x="0.85000002"
       y="0.85000002"
       width="768.29999"
       height="521.29999"
       id="rect2" />
  </clipPath>
  <g
     id="page"
     clip-path="url(#10143)"
     transform="translate(8.3531492,3.5799203)">
    <g
       id="Solid">
      <path
         d="m 286.82,410 v 0 l 0.85,-0.49 0.85,0.49 v 38.71 l -0.85,0.49 -0.85,0.49 z"
         stroke="#000000"
         stroke-width="0"
         fill-rule="evenodd"
         stroke-linejoin="miter"
         fill="#000000"
         shape-rendering="geometricPrecision"
         id="path7" />
      <path
         id="line9"
         style="stroke:#000000;stroke-width:1.7"
         d="m 293.62,412.95001 v 32.81" />
    </g>
    <g
       id="g14">
      <path
         d="m 286.82,449.69 v 0 l 0.85,-0.49 0.85,-0.49 33.53,19.35 v 0.98 0.98 z"
         stroke="#000000"
         stroke-width="0"
         fill-rule="evenodd"
         stroke-linejoin="miter"
         fill="#000000"
         shape-rendering="geometricPrecision"
         id="path12" />
    </g>
    <g
       id="g20">
      <path
         d="m 322.05,470.02 v 0 -0.98 -0.98 l 33.52,-19.35 0.85,0.49 v 0.98 z"
         stroke="#000000"
         stroke-width="0"
         fill-rule="evenodd"
         stroke-linejoin="miter"
         fill="#000000"
         shape-rendering="geometricPrecision"
         id="path16" />
      <path
         id="line18"
         style="stroke:#000000;stroke-width:1.7"
         d="m 322.04999,462.17001 28.42001,-16.41" />
    </g>
    <g
       id="g24">
      <path
         d="m 357.27,448.71 v 0 l -0.85,0.49 -0.85,-0.49 V 410 l 0.85,-0.49 0.85,0.49 z"
         stroke="#000000"
         stroke-width="0"
         fill-rule="evenodd"
         stroke-linejoin="miter"
         fill="#000000"
         shape-rendering="geometricPrecision"
         id="path22" />
    </g>
    <g
       id="g30">
      <path
         d="m 356.42,408.53 v 0 0.98 l -0.85,0.49 -33.52,-19.36 v -0.98 -0.98 z"
         stroke="#000000"
         stroke-width="0"
         fill-rule="evenodd"
         stroke-linejoin="miter"
         fill="#000000"
         shape-rendering="geometricPrecision"
         id="path26" />
      <path
         id="line28"
         style="stroke:#000000;stroke-width:1.7"
         d="M 350.47,412.95001 322.04999,396.53" />
    </g>
    <g
       id="g34">
      <path
         d="m 322.05,388.68 v 0 0.98 0.98 l -33.53,19.36 -0.85,-0.49 v -0.98 z"
         stroke="#000000"
         stroke-width="0"
         fill-rule="evenodd"
         stroke-linejoin="miter"
         fill="#000000"
         shape-rendering="geometricPrecision"
         id="path32" />
    </g>
    <g
       id="g40">
      <g
         aria-label="Cl"
         id="text38"
         style="text-rendering:geometricPrecision">
        <path
           d="m 396.22937,393.08655 2.27344,0.57422 q -0.71485,2.80078 -2.57813,4.27734 -1.85156,1.46484 -4.53515,1.46484 -2.77735,0 -4.52344,-1.125 -1.73438,-1.13671 -2.64844,-3.28125 -0.90234,-2.14453 -0.90234,-4.60546 0,-2.6836 1.01953,-4.67579 1.03125,-2.0039 2.91797,-3.03515 1.89844,-1.04297 4.17187,-1.04297 2.57813,0 4.33594,1.3125 1.75781,1.3125 2.44922,3.69141 l -2.23828,0.52734 q -0.59766,-1.875 -1.73438,-2.73047 -1.13672,-0.85547 -2.85937,-0.85547 -1.98047,0 -3.31641,0.94922 -1.32422,0.94922 -1.86328,2.55469 -0.53906,1.59375 -0.53906,3.29297 0,2.1914 0.63281,3.83203 0.64453,1.6289 1.99219,2.4375 1.34765,0.80859 2.91797,0.80859 1.91015,0 3.23437,-1.10156 1.32422,-1.10156 1.79297,-3.26953 z"
           style="font-size:24px;font-family:Arial"
           id="path1476" />
        <path
           d="M 400.98718,399.10999 V 381.9303 h 2.10938 v 17.17969 z"
           style="font-size:24px;font-family:Arial"
           id="path1478" />
      </g>
    </g>
    <g
       id="g44">
      <path
         d="m 357.27,410 v 0 l -0.85,-0.49 v -0.98 l 24.79,-14.32 0.42,0.74 0.43,0.73 z"
         stroke="#000000"
         stroke-width="0"
         fill-rule="evenodd"
         stroke-linejoin="miter"
         fill="#000000"
         shape-rendering="geometricPrecision"
         id="path42" />
    </g>
    <g
       id="g50">
      <g
         aria-label="O"
         id="text48"
         style="text-rendering:geometricPrecision">
        <path
           d="m 382.63016,470.1228 q 0,-4.27734 2.29687,-6.6914 2.29688,-2.42578 5.92969,-2.42578 2.37891,0 4.28906,1.13671 1.91016,1.13672 2.90625,3.17579 1.00781,2.02734 1.00781,4.60546 0,2.61329 -1.05468,4.67579 -1.05469,2.0625 -2.98828,3.1289 -1.9336,1.05469 -4.17188,1.05469 -2.42578,0 -4.33594,-1.17188 -1.91015,-1.17187 -2.89453,-3.19921 -0.98437,-2.02735 -0.98437,-4.28907 z m 2.34375,0.0352 q 0,3.10547 1.66406,4.89844 1.67578,1.78125 4.19531,1.78125 2.56641,0 4.21875,-1.80469 1.66406,-1.80469 1.66406,-5.12109 0,-2.09766 -0.71484,-3.65625 -0.70312,-1.57032 -2.07422,-2.42579 -1.35937,-0.86718 -3.05859,-0.86718 -2.41406,0 -4.16016,1.66406 -1.73437,1.65234 -1.73437,5.53125 z"
           style="font-size:24px;font-family:Arial"
           id="path1481" />
      </g>
    </g>
    <g
       id="g54">
      <path
         d="m 356.42,450.18 v 0 -0.98 l 0.85,-0.49 24.69,14.25 -0.43,0.74 -0.42,0.73 z"
         stroke="#000000"
         stroke-width="0"
         fill-rule="evenodd"
         stroke-linejoin="miter"
         fill="#000000"
         shape-rendering="geometricPrecision"
         id="path52" />
    </g>
    <g
       id="g58">
      <path
         d="m 400.69,464.31 v 0 l -0.42,-0.74 -0.43,-0.74 24.47,-14.12 0.85,0.49 v 0.98 z"
         stroke="#000000"
         stroke-width="0"
         fill-rule="evenodd"
         stroke-linejoin="miter"
         fill="#000000"
         shape-rendering="geometricPrecision"
         id="path56" />
    </g>
    <g
       id="g68">
      <g
         aria-label="F3C"
         id="text66"
         style="text-anchor:end;text-rendering:geometricPrecision">
        <path
           d="M 221.94583,399.10999 V 381.9303 h 11.58985 v 2.02734 h -9.31641 v 5.32031 h 8.0625 v 2.02735 h -8.0625 v 7.80469 z"
           style="font-size:24px;font-family:Arial"
           id="path1484" />
        <path
           d="m 235.3931,401.13862 1.58203,-0.21094 q 0.27246,1.34473 0.92285,1.94238 0.65918,0.58887 1.59961,0.58887 1.11621,0 1.88086,-0.77344 0.77344,-0.77343 0.77344,-1.91601 0,-1.08985 -0.71192,-1.79297 -0.71191,-0.71192 -1.81054,-0.71192 -0.44825,0 -1.11622,0.17579 l 0.17579,-1.38868 q 0.1582,0.0176 0.25488,0.0176 1.01074,0 1.81933,-0.52734 0.8086,-0.52735 0.8086,-1.62598 0,-0.87012 -0.58887,-1.4414 -0.58887,-0.57129 -1.52051,-0.57129 -0.92285,0 -1.53808,0.58007 -0.61524,0.58008 -0.79102,1.74024 l -1.58203,-0.28125 q 0.29004,-1.59082 1.31836,-2.46094 1.02832,-0.8789 2.55762,-0.8789 1.05468,0 1.94238,0.45703 0.88769,0.44824 1.35352,1.23047 0.4746,0.78222 0.4746,1.66113 0,0.83496 -0.44824,1.52051 -0.44824,0.68554 -1.32715,1.08984 1.14258,0.26367 1.77539,1.09863 0.63282,0.82617 0.63282,2.07422 0,1.6875 -1.23047,2.86524 -1.23047,1.16894 -3.11133,1.16894 -1.69629,0 -2.82129,-1.01074 -1.11621,-1.01074 -1.27441,-2.61914 z"
           style="font-size:18px;font-family:Arial"
           id="path1486" />
        <path
           d="m 258.75735,393.08655 2.27344,0.57422 q -0.71484,2.80078 -2.57812,4.27734 -1.85157,1.46484 -4.53516,1.46484 -2.77734,0 -4.52344,-1.125 -1.73437,-1.13671 -2.64843,-3.28125 -0.90235,-2.14453 -0.90235,-4.60546 0,-2.6836 1.01953,-4.67579 1.03125,-2.0039 2.91797,-3.03515 1.89844,-1.04297 4.17188,-1.04297 2.57812,0 4.33593,1.3125 1.75782,1.3125 2.44922,3.69141 l -2.23828,0.52734 q -0.59765,-1.875 -1.73437,-2.73047 -1.13672,-0.85547 -2.85938,-0.85547 -1.98047,0 -3.3164,0.94922 -1.32422,0.94922 -1.86329,2.55469 -0.53906,1.59375 -0.53906,3.29297 0,2.1914 0.63281,3.83203 0.64454,1.6289 1.99219,2.4375 1.34766,0.80859 2.91797,0.80859 1.91016,0 3.23438,-1.10156 1.32421,-1.10156 1.79296,-3.26953 z"
           style="font-size:24px;font-family:Arial"
           id="path1488" />
      </g>
    </g>
    <g
       id="g72">
      <path
         d="m 287.67,408.53 v 0 0.98 l -0.85,0.49 -24.18,-13.96 0.43,-0.74 0.42,-0.74 z"
         stroke="#000000"
         stroke-width="0"
         fill-rule="evenodd"
         stroke-linejoin="miter"
         fill="#000000"
         shape-rendering="geometricPrecision"
         id="path70" />
    </g>
    <g
       id="g78">
      <path
         d="m 425.16,450.18 v 0 -0.98 l 0.85,-0.49 33.53,19.35 v 0.98 0.98 z"
         stroke="#000000"
         stroke-width="0"
         fill-rule="evenodd"
         stroke-linejoin="miter"
         fill="#000000"
         shape-rendering="geometricPrecision"
         id="path74" />
      <path
         id="line76"
         style="stroke:#000000;stroke-width:1.7"
         d="m 431.10999,445.76001 28.43002,16.41" />
    </g>
    <g
       id="g82">
      <path
         d="m 459.54,470.02 v 0 -0.98 -0.98 l 33.52,-19.35 0.85,0.49 v 0.98 z"
         stroke="#000000"
         stroke-width="0"
         fill-rule="evenodd"
         stroke-linejoin="miter"
         fill="#000000"
         shape-rendering="geometricPrecision"
         id="path80" />
    </g>
    <g
       id="g88">
      <path
         d="m 494.76,448.71 v 0 l -0.85,0.49 -0.85,-0.49 V 410 l 0.85,-0.49 0.85,0.49 z"
         stroke="#000000"
         stroke-width="0"
         fill-rule="evenodd"
         stroke-linejoin="miter"
         fill="#000000"
         shape-rendering="geometricPrecision"
         id="path84" />
      <path
         id="line86"
         style="stroke:#000000;stroke-width:1.7"
         d="m 486.99293,445.26113 v -32.81" />
    </g>
    <g
       id="g92">
      <path
         d="m 493.91,408.53 v 0 0.98 l -0.85,0.49 -33.52,-19.36 v -0.98 -0.98 z"
         stroke="#000000"
         stroke-width="0"
         fill-rule="evenodd"
         stroke-linejoin="miter"
         fill="#000000"
         shape-rendering="geometricPrecision"
         id="path90" />
    </g>
    <g
       id="g98">
      <path
         d="m 459.54,388.68 v 0 0.98 0.98 l -33.53,19.36 -0.85,-0.49 -0.85,-0.49 z"
         stroke="#000000"
         stroke-width="0"
         fill-rule="evenodd"
         stroke-linejoin="miter"
         fill="#000000"
         shape-rendering="geometricPrecision"
         id="path94" />
      <path
         id="line96"
         style="stroke:#000000;stroke-width:1.7"
         d="m 459.54001,396.54001 -28.43002,16.41" />
    </g>
    <g
       id="g102">
      <path
         d="m 424.31,409.02 v 0 l 0.85,0.49 0.85,0.49 v 38.71 l -0.85,0.49 -0.85,-0.49 z"
         stroke="#000000"
         stroke-width="0"
         fill-rule="evenodd"
         stroke-linejoin="miter"
         fill="#000000"
         shape-rendering="geometricPrecision"
         id="path100" />
    </g>
    <g
       id="g108">
      <g
         aria-label="N"
         id="text106"
         style="text-rendering:geometricPrecision">
        <path
           d="M 521.43811,399.10999 V 381.9303 h 2.33203 l 9.02344,13.48828 V 381.9303 h 2.17969 v 17.17969 h -2.33203 l -9.02344,-13.5 v 13.5 z"
           style="font-size:24px;font-family:Arial"
           id="path1494" />
      </g>
    </g>
    <g
       id="g112">
      <path
         d="m 494.76,410 v 0 l -0.85,-0.49 v -0.98 l 25.2,-14.56 0.42,0.74 0.43,0.74 z"
         stroke="#000000"
         stroke-width="0"
         fill-rule="evenodd"
         stroke-linejoin="miter"
         fill="#000000"
         shape-rendering="geometricPrecision"
         id="path110" />
    </g>
    <g
       id="g118">
      <g
         aria-label="O"
         id="text116"
         style="text-rendering:geometricPrecision">
        <path
           d="m 554.49017,410.5928 q 0,-4.27734 2.29688,-6.6914 2.29687,-2.42578 5.92969,-2.42578 2.3789,0 4.28906,1.13672 1.91015,1.13671 2.90625,3.17578 1.00781,2.02734 1.00781,4.60547 0,2.61328 -1.05469,4.67578 -1.05468,2.0625 -2.98828,3.1289 -1.93359,1.05469 -4.17187,1.05469 -2.42578,0 -4.33594,-1.17187 -1.91016,-1.17188 -2.89453,-3.19922 -0.98438,-2.02735 -0.98438,-4.28907 z m 2.34375,0.0352 q 0,3.10547 1.66407,4.89844 1.67578,1.78125 4.19531,1.78125 2.5664,0 4.21875,-1.80469 1.66406,-1.80469 1.66406,-5.12109 0,-2.09766 -0.71484,-3.65625 -0.70313,-1.57032 -2.07422,-2.42578 -1.35938,-0.86719 -3.0586,-0.86719 -2.41406,0 -4.16015,1.66406 -1.73438,1.65234 -1.73438,5.53125 z"
           style="font-size:24px;font-family:Arial"
           id="path1497" />
      </g>
    </g>
    <g
       id="g122">
      <path
         d="m 536.54,395.41 v 0 l 0.43,-0.73 0.42,-0.74 16.37,9.45 -0.43,0.74 -0.42,0.74 z"
         stroke="#000000"
         stroke-width="0"
         fill-rule="evenodd"
         stroke-linejoin="miter"
         fill="#000000"
         shape-rendering="geometricPrecision"
         id="path120" />
    </g>
    <g
       id="g128">
      <g
         aria-label="O"
         id="text126"
         style="text-rendering:geometricPrecision">
        <path
           d="m 520.12018,351.05283 q 0,-4.27735 2.29687,-6.69141 2.29688,-2.42578 5.92969,-2.42578 2.37891,0 4.28906,1.13672 1.91016,1.13672 2.90625,3.17578 1.00782,2.02734 1.00782,4.60547 0,2.61328 -1.05469,4.67578 -1.05469,2.0625 -2.98828,3.1289 -1.9336,1.05469 -4.17188,1.05469 -2.42578,0 -4.33594,-1.17187 -1.91015,-1.17188 -2.89453,-3.19922 -0.98437,-2.02735 -0.98437,-4.28906 z m 2.34375,0.0352 q 0,3.10547 1.66406,4.89844 1.67578,1.78125 4.19531,1.78125 2.56641,0 4.21875,-1.80469 1.66407,-1.80469 1.66407,-5.12109 0,-2.09766 -0.71485,-3.65625 -0.70312,-1.57031 -2.07422,-2.42578 -1.35937,-0.86719 -3.05859,-0.86719 -2.41406,0 -4.16016,1.66406 -1.73437,1.65235 -1.73437,5.53125 z"
           style="font-size:24px;font-family:Arial"
           id="path1500" />
      </g>
    </g>
    <g
       id="g136">
      <path
         id="line130"
         style="stroke:#000000;stroke-width:1.7"
         d="m 525.29999,379.73001 v -17.66" />
      <path
         d="m 530.41,379.73 v 0 h 1.7 v -17.66 h -1.7 z"
         stroke="#000000"
         stroke-width="0"
         fill-rule="evenodd"
         stroke-linejoin="miter"
         fill="#000000"
         shape-rendering="geometricPrecision"
         id="path132" />
      <path
         d="m 524.45,379.73 v 0 h 1.7 v -17.66 h -1.7 z"
         stroke="#000000"
         stroke-width="0"
         fill-rule="evenodd"
         stroke-linejoin="miter"
         fill="#000000"
         shape-rendering="geometricPrecision"
         id="path134" />
    </g>
    <g
       id="g140">
      <path
         d="m 493.91,450.18 v 0 -0.98 l 0.85,-0.49 33.52,19.35 v 0.98 0.98 z"
         stroke="#000000"
         stroke-width="0"
         fill-rule="evenodd"
         stroke-linejoin="miter"
         fill="#000000"
         shape-rendering="geometricPrecision"
         id="path138" />
    </g>
    <g
       id="g146">
      <g
         aria-label="O"
         id="text144"
         style="text-rendering:geometricPrecision">
        <path
           d="m 554.49017,450.28281 q 0,-4.27735 2.29688,-6.69141 2.29687,-2.42578 5.92969,-2.42578 2.3789,0 4.28906,1.13672 1.91015,1.13672 2.90625,3.17578 1.00781,2.02734 1.00781,4.60547 0,2.61328 -1.05469,4.67578 -1.05468,2.0625 -2.98828,3.12891 -1.93359,1.05468 -4.17187,1.05468 -2.42578,0 -4.33594,-1.17187 -1.91016,-1.17188 -2.89453,-3.19922 -0.98438,-2.02734 -0.98438,-4.28906 z m 2.34375,0.0352 q 0,3.10547 1.66407,4.89844 1.67578,1.78125 4.19531,1.78125 2.5664,0 4.21875,-1.80469 1.66406,-1.80468 1.66406,-5.12109 0,-2.09766 -0.71484,-3.65625 -0.70313,-1.57031 -2.07422,-2.42578 -1.35938,-0.86719 -3.0586,-0.86719 -2.41406,0 -4.16015,1.66406 -1.73438,1.65235 -1.73438,5.53125 z"
           style="font-size:24px;font-family:Arial"
           id="path1504" />
      </g>
    </g>
    <g
       id="g150">
      <path
         d="m 528.28,470.02 v 0 -0.98 -0.98 l 24.23,-13.99 0.42,0.74 0.43,0.73 z"
         stroke="#000000"
         stroke-width="0"
         fill-rule="evenodd"
         stroke-linejoin="miter"
         fill="#000000"
         shape-rendering="geometricPrecision"
         id="path148" />
    </g>
    <g
       id="g156">
      <g
         aria-label="O"
         id="text154"
         style="text-rendering:geometricPrecision">
        <path
           d="m 520.12018,509.81281 q 0,-4.27735 2.29687,-6.69141 2.29688,-2.42578 5.92969,-2.42578 2.37891,0 4.28906,1.13672 1.91016,1.13672 2.90625,3.17578 1.00782,2.02734 1.00782,4.60547 0,2.61328 -1.05469,4.67578 -1.05469,2.0625 -2.98828,3.1289 -1.9336,1.05469 -4.17188,1.05469 -2.42578,0 -4.33594,-1.17187 -1.91015,-1.17188 -2.89453,-3.19922 -0.98437,-2.02735 -0.98437,-4.28906 z m 2.34375,0.0351 q 0,3.10547 1.66406,4.89844 1.67578,1.78125 4.19531,1.78125 2.56641,0 4.21875,-1.80469 1.66407,-1.80469 1.66407,-5.12109 0,-2.09766 -0.71485,-3.65625 -0.70312,-1.57031 -2.07422,-2.42578 -1.35937,-0.86719 -3.05859,-0.86719 -2.41406,0 -4.16016,1.66406 -1.73437,1.65235 -1.73437,5.53125 z"
           style="font-size:24px;font-family:Arial"
           id="path1507" />
      </g>
    </g>
    <g
       id="g164">
      <path
         id="line158"
         style="stroke:#000000;stroke-width:1.7"
         d="M 531.26001,469.04001 V 498.53" />
      <path
         d="m 526.15,468.79 v 0 l -1.7,-0.98 v 30.72 h 1.7 z"
         stroke="#000000"
         stroke-width="0"
         fill-rule="evenodd"
         stroke-linejoin="miter"
         fill="#000000"
         shape-rendering="geometricPrecision"
         id="path160" />
      <path
         d="m 532.11,467.81 v 0 l -1.7,0.98 v 29.74 h 1.7 z"
         stroke="#000000"
         stroke-width="0"
         fill-rule="evenodd"
         stroke-linejoin="miter"
         fill="#000000"
         shape-rendering="geometricPrecision"
         id="path162" />
    </g>
    <g
       id="g168">
      <path
         d="m 572.14,455.66 v 0 l 0.43,-0.74 0.42,-0.73 24.04,13.87 v 0.98 l -0.85,0.49 z"
         stroke="#000000"
         stroke-width="0"
         fill-rule="evenodd"
         stroke-linejoin="miter"
         fill="#000000"
         shape-rendering="geometricPrecision"
         id="path166" />
    </g>
    <g
       id="g172">
      <path
         d="m 597.88,469.53 v 0 l -0.85,-0.49 v -0.98 l 34.37,-19.84 v 0.98 0.98 z"
         stroke="#000000"
         stroke-width="0"
         fill-rule="evenodd"
         stroke-linejoin="miter"
         fill="#000000"
         shape-rendering="geometricPrecision"
         id="path170" />
    </g>
    <g
       id="g180">
      <g
         aria-label="CH3"
         id="text178"
         style="text-rendering:geometricPrecision">
        <path
           d="m 602.45935,512.15656 2.27344,0.57421 q -0.71485,2.80079 -2.57813,4.27735 -1.85156,1.46484 -4.53515,1.46484 -2.77735,0 -4.52344,-1.125 -1.73438,-1.13672 -2.64844,-3.28125 -0.90234,-2.14453 -0.90234,-4.60547 0,-2.68359 1.01953,-4.67578 1.03125,-2.0039 2.91797,-3.03515 1.89844,-1.04297 4.17187,-1.04297 2.57813,0 4.33594,1.3125 1.75781,1.3125 2.44922,3.6914 l -2.23828,0.52735 q -0.59766,-1.875 -1.73438,-2.73047 -1.13672,-0.85547 -2.85937,-0.85547 -1.98047,0 -3.31641,0.94922 -1.32422,0.94922 -1.86328,2.55469 -0.53906,1.59375 -0.53906,3.29296 0,2.19141 0.63281,3.83204 0.64453,1.6289 1.99219,2.4375 1.34765,0.80859 2.91797,0.80859 1.91015,0 3.23437,-1.10156 1.32422,-1.10157 1.79297,-3.26953 z"
           style="font-size:24px;font-family:Arial"
           id="path1511" />
        <path
           d="m 607.60388,518.17999 v -17.17968 h 2.27344 v 7.05468 h 8.92969 v -7.05468 h 2.27343 v 17.17968 h -2.27343 v -8.09765 h -8.92969 v 8.09765 z"
           style="font-size:24px;font-family:Arial"
           id="path1513" />
        <path
           d="m 623.68636,518.62151 1.58203,-0.21094 q 0.27246,1.34472 0.92285,1.94238 0.65918,0.58887 1.59961,0.58887 1.11621,0 1.88086,-0.77344 0.77344,-0.77344 0.77344,-1.91602 0,-1.08984 -0.71192,-1.79296 -0.71191,-0.71192 -1.81054,-0.71192 -0.44825,0 -1.11622,0.17578 l 0.17579,-1.38867 q 0.1582,0.0176 0.25488,0.0176 1.01074,0 1.81933,-0.52734 0.8086,-0.52735 0.8086,-1.62598 0,-0.87012 -0.58887,-1.44141 -0.58887,-0.57129 -1.52051,-0.57129 -0.92285,0 -1.53808,0.58008 -0.61524,0.58008 -0.79102,1.74024 l -1.58203,-0.28125 q 0.29004,-1.59082 1.31836,-2.46094 1.02832,-0.87891 2.55762,-0.87891 1.05468,0 1.94238,0.45703 0.8877,0.44825 1.35352,1.23047 0.4746,0.78223 0.4746,1.66114 0,0.83496 -0.44824,1.5205 -0.44824,0.68555 -1.32715,1.08985 1.14258,0.26367 1.77539,1.09863 0.63282,0.82617 0.63282,2.07422 0,1.6875 -1.23047,2.86523 -1.23047,1.16895 -3.11133,1.16895 -1.69629,0 -2.82129,-1.01074 -1.11621,-1.01075 -1.27441,-2.61914 z"
           style="font-size:18px;font-family:Arial"
           id="path1515" />
      </g>
    </g>
    <g
       id="g184">
      <path
         d="m 596.18,469.53 v 0 l 0.85,-0.49 0.85,0.49 v 29 h -0.85 -0.85 z"
         stroke="#000000"
         stroke-width="0"
         fill-rule="evenodd"
         stroke-linejoin="miter"
         fill="#000000"
         shape-rendering="geometricPrecision"
         id="path182" />
    </g>
    <g
       id="g190">
      <g
         aria-label="O"
         id="text188"
         style="text-rendering:geometricPrecision">
        <path
           d="m 657.61017,470.1228 q 0,-4.27734 2.29687,-6.6914 2.29688,-2.42578 5.92969,-2.42578 2.37891,0 4.28906,1.13671 1.91016,1.13672 2.90625,3.17579 1.00782,2.02734 1.00782,4.60546 0,2.61329 -1.05469,4.67579 -1.05469,2.0625 -2.98828,3.1289 -1.9336,1.05469 -4.17188,1.05469 -2.42578,0 -4.33594,-1.17188 -1.91015,-1.17187 -2.89453,-3.19921 -0.98437,-2.02735 -0.98437,-4.28907 z m 2.34375,0.0352 q 0,3.10547 1.66406,4.89844 1.67578,1.78125 4.19531,1.78125 2.56641,0 4.21875,-1.80469 1.66407,-1.80469 1.66407,-5.12109 0,-2.09766 -0.71485,-3.65625 -0.70312,-1.57032 -2.07422,-2.42579 -1.35937,-0.86718 -3.05859,-0.86718 -2.41406,0 -4.16016,1.66406 -1.73437,1.65234 -1.73437,5.53125 z"
           style="font-size:24px;font-family:Arial"
           id="path1518" />
      </g>
    </g>
    <g
       id="g194">
      <path
         d="m 631.4,450.18 v 0 -0.98 -0.98 l 25.56,14.75 -0.43,0.74 -0.42,0.73 z"
         stroke="#000000"
         stroke-width="0"
         fill-rule="evenodd"
         stroke-linejoin="miter"
         fill="#000000"
         shape-rendering="geometricPrecision"
         id="path192" />
    </g>
    <g
       id="g200">
      <g
         aria-label="O"
         id="text198"
         style="text-rendering:geometricPrecision">
        <path
           d="m 623.23016,410.5928 q 0,-4.27734 2.29688,-6.6914 2.29687,-2.42578 5.92969,-2.42578 2.3789,0 4.28906,1.13672 1.91015,1.13671 2.90625,3.17578 1.00781,2.02734 1.00781,4.60547 0,2.61328 -1.05469,4.67578 -1.05468,2.0625 -2.98828,3.1289 -1.93359,1.05469 -4.17187,1.05469 -2.42578,0 -4.33594,-1.17187 -1.91016,-1.17188 -2.89453,-3.19922 -0.98438,-2.02735 -0.98438,-4.28907 z m 2.34375,0.0352 q 0,3.10547 1.66407,4.89844 1.67578,1.78125 4.19531,1.78125 2.5664,0 4.21875,-1.80469 1.66406,-1.80469 1.66406,-5.12109 0,-2.09766 -0.71484,-3.65625 -0.70313,-1.57032 -2.07422,-2.42578 -1.35938,-0.86719 -3.0586,-0.86719 -2.41406,0 -4.16015,1.66406 -1.73438,1.65234 -1.73438,5.53125 z"
           style="font-size:24px;font-family:Arial"
           id="path1521" />
      </g>
    </g>
    <g
       id="g208">
      <path
         id="line202"
         style="stroke:#000000;stroke-width:1.7"
         d="m 628.41998,449.20001 v -27.63" />
      <path
         d="m 633.53,449.45 v 0 l 1.7,0.98 v -28.86 h -1.7 z"
         stroke="#000000"
         stroke-width="0"
         fill-rule="evenodd"
         stroke-linejoin="miter"
         fill="#000000"
         shape-rendering="geometricPrecision"
         id="path204" />
      <path
         d="m 627.57,450.43 v 0 l 1.7,-0.98 v -27.88 h -1.7 z"
         stroke="#000000"
         stroke-width="0"
         fill-rule="evenodd"
         stroke-linejoin="miter"
         fill="#000000"
         shape-rendering="geometricPrecision"
         id="path206" />
    </g>
    <g
       id="g212">
      <path
         d="m 675.69,464.29 v 0 l -0.42,-0.73 -0.43,-0.74 25.3,-14.6 v 0.98 0.98 z"
         stroke="#000000"
         stroke-width="0"
         fill-rule="evenodd"
         stroke-linejoin="miter"
         fill="#000000"
         shape-rendering="geometricPrecision"
         id="path210" />
    </g>
    <g
       id="g220">
      <g
         aria-label="CH3"
         id="text218"
         style="text-rendering:geometricPrecision">
        <path
           d="m 739.9494,472.46655 2.27344,0.57422 q -0.71484,2.80078 -2.57813,4.27735 -1.85156,1.46484 -4.53515,1.46484 -2.77735,0 -4.52344,-1.125 -1.73437,-1.13672 -2.64844,-3.28125 -0.90234,-2.14453 -0.90234,-4.60547 0,-2.68359 1.01953,-4.67578 1.03125,-2.00391 2.91797,-3.03516 1.89844,-1.04297 4.17187,-1.04297 2.57813,0 4.33594,1.3125 1.75781,1.3125 2.44922,3.69141 l -2.23828,0.52734 q -0.59766,-1.875 -1.73438,-2.73046 -1.13671,-0.85547 -2.85937,-0.85547 -1.98047,0 -3.31641,0.94922 -1.32422,0.94921 -1.86328,2.55468 -0.53906,1.59375 -0.53906,3.29297 0,2.19141 0.63281,3.83203 0.64453,1.62891 1.99219,2.4375 1.34766,0.8086 2.91797,0.8086 1.91015,0 3.23437,-1.10157 1.32422,-1.10156 1.79297,-3.26953 z"
           style="font-size:24px;font-family:Arial"
           id="path1525" />
        <path
           d="M 745.09393,478.48999 V 461.3103 h 2.27344 v 7.05469 h 8.92969 v -7.05469 h 2.27344 v 17.17969 h -2.27344 v -8.09766 h -8.92969 v 8.09766 z"
           style="font-size:24px;font-family:Arial"
           id="path1527" />
        <path
           d="m 761.25995,480.51862 1.58203,-0.21093 q 0.27246,1.34472 0.92285,1.94238 0.65918,0.58887 1.59961,0.58887 1.11621,0 1.88086,-0.77344 0.77344,-0.77344 0.77344,-1.91602 0,-1.08984 -0.71192,-1.79297 -0.71191,-0.71191 -1.81054,-0.71191 -0.44825,0 -1.11621,0.17578 l 0.17578,-1.38867 q 0.1582,0.0176 0.25488,0.0176 1.01074,0 1.81934,-0.52735 0.80859,-0.52734 0.80859,-1.62597 0,-0.87012 -0.58887,-1.44141 -0.58886,-0.57129 -1.52051,-0.57129 -0.92285,0 -1.53808,0.58008 -0.61524,0.58008 -0.79102,1.74023 l -1.58203,-0.28125 q 0.29004,-1.59082 1.31836,-2.46093 1.02832,-0.87891 2.55762,-0.87891 1.05469,0 1.94238,0.45703 0.8877,0.44824 1.35352,1.23047 0.47461,0.78223 0.47461,1.66113 0,0.83496 -0.44825,1.52051 -0.44824,0.68555 -1.32714,1.08984 1.14257,0.26368 1.77539,1.09864 0.63281,0.82617 0.63281,2.07422 0,1.6875 -1.23047,2.86523 -1.23047,1.16895 -3.11133,1.16895 -1.69629,0 -2.82129,-1.01075 -1.11621,-1.01074 -1.27441,-2.61914 z"
           style="font-size:18px;font-family:Arial"
           id="path1529" />
      </g>
    </g>
    <g
       id="g224">
      <path
         d="m 700.14,450.18 v 0 -0.98 -0.98 l 26.02,15.01 -0.43,0.74 -0.42,0.74 z"
         stroke="#000000"
         stroke-width="0"
         fill-rule="evenodd"
         stroke-linejoin="miter"
         fill="#000000"
         shape-rendering="geometricPrecision"
         id="path222" />
    </g>
    <g
       id="Charge9961">
      <path
         id="line226"
         style="stroke:#000000;stroke-width:1.36"
         d="m 568.99732,398.95999 h 9.70002" />
    </g>
    <g
       id="Charge9962">
      <path
         id="line229"
         style="stroke:#000000;stroke-width:1.36"
         d="m 537.14001,377.37 h 9.70002" />
      <path
         id="line231"
         style="stroke:#000000;stroke-width:1.36"
         d="M 541.98999,372.51999 V 382.22" />
    </g>
    <g
       id="g238">
      <path
         d="m 79.67,52.49 v 0 L 80.52,52 81.37,52.49 V 91.2 l -0.85,0.49 -0.85,0.49 z"
         stroke="#000000"
         stroke-width="0"
         fill-rule="evenodd"
         stroke-linejoin="miter"
         fill="#000000"
         shape-rendering="geometricPrecision"
         id="path234" />
      <path
         id="line236"
         style="stroke:#000000;stroke-width:1.7"
         d="M 86.470001,55.439999 V 88.25" />
    </g>
    <g
       id="g242">
      <path
         d="m 79.67,92.18 v 0 l 0.85,-0.49 0.85,-0.49 33.53,19.35 v 0.98 0.98 z"
         stroke="#000000"
         stroke-width="0"
         fill-rule="evenodd"
         stroke-linejoin="miter"
         fill="#000000"
         shape-rendering="geometricPrecision"
         id="path240" />
    </g>
    <g
       id="g248">
      <path
         d="m 114.9,112.51 v 0 -0.98 -0.98 l 33.52,-19.35 0.85,0.49 v 0.98 z"
         stroke="#000000"
         stroke-width="0"
         fill-rule="evenodd"
         stroke-linejoin="miter"
         fill="#000000"
         shape-rendering="geometricPrecision"
         id="path244" />
      <path
         id="line246"
         style="stroke:#000000;stroke-width:1.7"
         d="M 114.9,104.66 143.32001,88.25" />
    </g>
    <g
       id="g252">
      <path
         d="m 150.12,91.2 v 0 l -0.85,0.49 -0.85,-0.49 V 52.49 l 0.85,-0.49 0.85,-0.49 z"
         stroke="#000000"
         stroke-width="0"
         fill-rule="evenodd"
         stroke-linejoin="miter"
         fill="#000000"
         shape-rendering="geometricPrecision"
         id="path250" />
    </g>
    <g
       id="g258">
      <path
         d="m 150.12,51.51 v 0 L 149.27,52 148.42,52.49 114.9,33.13 v -0.98 -0.98 z"
         stroke="#000000"
         stroke-width="0"
         fill-rule="evenodd"
         stroke-linejoin="miter"
         fill="#000000"
         shape-rendering="geometricPrecision"
         id="path254" />
      <path
         id="line256"
         style="stroke:#000000;stroke-width:1.7"
         d="M 143.32001,55.439999 114.9,39.02" />
    </g>
    <g
       id="g262">
      <path
         d="m 114.9,31.17 v 0 0.98 0.98 L 81.37,52.49 80.52,52 v -0.98 z"
         stroke="#000000"
         stroke-width="0"
         fill-rule="evenodd"
         stroke-linejoin="miter"
         fill="#000000"
         shape-rendering="geometricPrecision"
         id="path260" />
    </g>
    <g
       id="g272">
      <g
         aria-label="F3C"
         id="text270"
         style="text-anchor:end;text-rendering:geometricPrecision">
        <path
           d="M 14.795822,41.599998 V 24.420311 h 11.589844 v 2.027344 H 17.06926 v 5.320312 h 8.0625 v 2.027344 h -8.0625 v 7.804687 z"
           style="font-size:24px;font-family:Arial"
           id="path1538" />
        <path
           d="m 28.243088,43.628631 1.582031,-0.210937 q 0.272461,1.344726 0.922852,1.942382 0.659179,0.588868 1.599609,0.588868 1.116211,0 1.880859,-0.773438 0.773438,-0.773437 0.773438,-1.916016 0,-1.089843 -0.711914,-1.792968 -0.711914,-0.711914 -1.810547,-0.711914 -0.448242,0 -1.116211,0.175781 l 0.175781,-1.388672 q 0.158203,0.01758 0.254883,0.01758 1.010742,0 1.819336,-0.527344 0.808594,-0.527343 0.808594,-1.625976 0,-0.870117 -0.588867,-1.441406 -0.588868,-0.571289 -1.520508,-0.571289 -0.922852,0 -1.538086,0.580078 -0.615235,0.580078 -0.791016,1.740234 l -1.582031,-0.28125 q 0.290039,-1.59082 1.318359,-2.460937 1.028321,-0.878907 2.557617,-0.878907 1.054688,0 1.942383,0.457032 0.887696,0.448242 1.353516,1.230468 0.474609,0.782227 0.474609,1.661133 0,0.834961 -0.448242,1.520508 -0.448242,0.685547 -1.327148,1.089844 1.142578,0.263672 1.77539,1.098632 0.632813,0.826172 0.632813,2.074219 0,1.6875 -1.230469,2.865235 -1.230469,1.168945 -3.111328,1.168945 -1.696289,0 -2.821289,-1.010742 -1.116211,-1.010742 -1.274414,-2.619141 z"
           style="font-size:18px;font-family:Arial"
           id="path1540" />
        <path
           d="m 51.607346,35.576561 2.273437,0.574219 q -0.714844,2.800781 -2.578125,4.277343 -1.851562,1.464844 -4.535156,1.464844 -2.777344,0 -4.523438,-1.125 -1.734375,-1.136719 -2.648437,-3.28125 -0.902344,-2.144531 -0.902344,-4.605469 0,-2.683593 1.019531,-4.675781 1.03125,-2.003906 2.917969,-3.035156 1.898438,-1.042969 4.171875,-1.042969 2.578125,0 4.335938,1.3125 1.757812,1.3125 2.449218,3.691406 l -2.238281,0.527344 q -0.597656,-1.875 -1.734375,-2.730469 -1.136719,-0.855468 -2.859375,-0.855468 -1.980469,0 -3.316406,0.949218 -1.324219,0.949219 -1.863281,2.554688 -0.539063,1.59375 -0.539063,3.292969 0,2.191406 0.632813,3.832031 0.644531,1.628906 1.992187,2.4375 1.347656,0.808594 2.917969,0.808594 1.910156,0 3.234375,-1.101563 1.324219,-1.101562 1.792969,-3.269531 z"
           style="font-size:24px;font-family:Arial"
           id="path1542" />
      </g>
    </g>
    <g
       id="g276">
      <path
         d="m 80.52,51.02 v 0 0.98 l -0.85,0.49 -24.23,-13.99 0.43,-0.74 0.42,-0.73 z"
         stroke="#000000"
         stroke-width="0"
         fill-rule="evenodd"
         stroke-linejoin="miter"
         fill="#000000"
         shape-rendering="geometricPrecision"
         id="path274" />
    </g>
    <g
       id="g282">
      <g
         aria-label="OH"
         id="text280"
         style="text-rendering:geometricPrecision">
        <path
           d="m 175.48016,112.61282 q 0,-4.27735 2.29688,-6.69141 2.29687,-2.42578 5.92969,-2.42578 2.3789,0 4.28906,1.13672 1.91015,1.13672 2.90625,3.17578 1.00781,2.02734 1.00781,4.60547 0,2.61328 -1.05469,4.67578 -1.05468,2.0625 -2.98828,3.1289 -1.93359,1.05469 -4.17187,1.05469 -2.42578,0 -4.33594,-1.17187 -1.91016,-1.17188 -2.89453,-3.19922 -0.98438,-2.02735 -0.98438,-4.28906 z m 2.34375,0.0352 q 0,3.10547 1.66407,4.89844 1.67578,1.78125 4.19531,1.78125 2.5664,0 4.21875,-1.80469 1.66406,-1.80469 1.66406,-5.12109 0,-2.09766 -0.71484,-3.65625 -0.70313,-1.57031 -2.07422,-2.42578 -1.35938,-0.86719 -3.0586,-0.86719 -2.41406,0 -4.16015,1.66406 -1.73438,1.65235 -1.73438,5.53125 z"
           style="font-size:24px;font-family:Arial"
           id="path1545" />
        <path
           d="m 194.90985,120.98 v -17.17968 h 2.27344 v 7.05468 h 8.92969 v -7.05468 h 2.27343 V 120.98 h -2.27343 v -8.09765 h -8.92969 V 120.98 Z"
           style="font-size:24px;font-family:Arial"
           id="path1547" />
      </g>
    </g>
    <g
       id="g286">
      <path
         d="m 149.27,92.67 v 0 -0.98 l 0.85,-0.49 24.64,14.22 -0.43,0.74 -0.42,0.73 z"
         stroke="#000000"
         stroke-width="0"
         fill-rule="evenodd"
         stroke-linejoin="miter"
         fill="#000000"
         shape-rendering="geometricPrecision"
         id="path284" />
    </g>
    <g
       id="Arrow">
      <path
         id="line288"
         style="stroke:#000000;stroke-width:1.7"
         d="M 294.10001,67.550003 H 213.84" />
      <path
         d="m 315.42,67.55 -25.5,-6.37 c 3.62,3.58 3.62,9.16 0,12.74 z"
         stroke="#000000"
         stroke-width="0"
         fill-rule="evenodd"
         stroke-linejoin="miter"
         stroke-miterlimit="19.6374"
         fill="#000000"
         shape-rendering="geometricPrecision"
         id="path290" />
    </g>
    <g
       id="g299">
      <g
         aria-label="Cl2"
         id="text297"
         style="text-rendering:geometricPrecision">
        <path
           d="m 249.54938,53.526562 2.27343,0.574218 q -0.71484,2.800782 -2.57812,4.277344 -1.85156,1.464844 -4.53516,1.464844 -2.77734,0 -4.52343,-1.125 -1.73438,-1.136719 -2.64844,-3.28125 -0.90235,-2.144531 -0.90235,-4.605469 0,-2.683594 1.01954,-4.675781 1.03125,-2.003906 2.91796,-3.035156 1.89844,-1.042969 4.17188,-1.042969 2.57812,0 4.33594,1.3125 1.75781,1.3125 2.44922,3.691406 l -2.23829,0.527344 q -0.59765,-1.875 -1.73437,-2.730469 -1.13672,-0.855469 -2.85938,-0.855469 -1.98046,0 -3.3164,0.949219 -1.32422,0.949219 -1.86328,2.554688 -0.53907,1.59375 -0.53907,3.292968 0,2.191407 0.63282,3.832032 0.64453,1.628906 1.99218,2.4375 1.34766,0.808593 2.91797,0.808593 1.91016,0 3.23438,-1.101562 1.32422,-1.101563 1.79297,-3.269531 z"
           style="font-size:24px;font-family:Arial"
           id="path1551" />
        <path
           d="M 254.30719,59.549999 V 42.370312 h 2.10937 v 17.179687 z"
           style="font-size:24px;font-family:Arial"
           id="path1553" />
        <path
           d="m 267.16559,63.459491 v 1.520508 h -8.5166 q -0.0176,-0.571289 0.18457,-1.098633 0.32519,-0.870117 1.03711,-1.713867 0.7207,-0.84375 2.07422,-1.951172 2.10058,-1.722656 2.83886,-2.724609 0.73828,-1.010742 0.73828,-1.907227 0,-0.940429 -0.67675,-1.582031 -0.66797,-0.650391 -1.74903,-0.650391 -1.14258,0 -1.82812,0.685547 -0.68555,0.685547 -0.69434,1.898438 l -1.62598,-0.166992 q 0.167,-1.819336 1.25684,-2.768555 1.08984,-0.958008 2.92676,-0.958008 1.85449,0 2.93555,1.02832 1.08105,1.028321 1.08105,2.548829 0,0.773437 -0.31641,1.520507 -0.3164,0.747071 -1.05468,1.573243 -0.7295,0.826171 -2.43457,2.267578 -1.42383,1.195312 -1.82813,1.625976 -0.4043,0.421875 -0.66797,0.852539 z"
           style="font-size:18px;font-family:Arial"
           id="path1555" />
      </g>
    </g>
    <g
       id="g305">
      <path
         d="m 386,51.69 v 0 l 0.85,-0.49 0.85,0.49 V 90.4 l -0.85,0.49 -0.85,0.49 z"
         stroke="#000000"
         stroke-width="0"
         fill-rule="evenodd"
         stroke-linejoin="miter"
         fill="#000000"
         shape-rendering="geometricPrecision"
         id="path301" />
      <path
         id="line303"
         style="stroke:#000000;stroke-width:1.7"
         d="M 392.79999,54.639999 V 87.449997" />
    </g>
    <g
       id="g309">
      <path
         d="m 386,91.38 v 0 l 0.85,-0.49 0.85,-0.49 33.52,19.35 v 0.98 0.98 z"
         stroke="#000000"
         stroke-width="0"
         fill-rule="evenodd"
         stroke-linejoin="miter"
         fill="#000000"
         shape-rendering="geometricPrecision"
         id="path307" />
    </g>
    <g
       id="g315">
      <path
         d="m 421.22,111.71 v 0 -0.98 -0.98 l 33.52,-19.35 0.85,0.49 v 0.98 z"
         stroke="#000000"
         stroke-width="0"
         fill-rule="evenodd"
         stroke-linejoin="miter"
         fill="#000000"
         shape-rendering="geometricPrecision"
         id="path311" />
      <path
         id="line313"
         style="stroke:#000000;stroke-width:1.7"
         d="M 421.22,103.86 449.64001,87.449997" />
    </g>
    <g
       id="g319">
      <path
         d="m 456.44,90.4 v 0 l -0.85,0.49 -0.85,-0.49 V 51.69 l 0.85,-0.49 0.85,0.49 z"
         stroke="#000000"
         stroke-width="0"
         fill-rule="evenodd"
         stroke-linejoin="miter"
         fill="#000000"
         shape-rendering="geometricPrecision"
         id="path317" />
    </g>
    <g
       id="g325">
      <path
         d="m 455.59,50.22 v 0 0.98 l -0.85,0.49 -33.52,-19.36 v -0.98 -0.98 z"
         stroke="#000000"
         stroke-width="0"
         fill-rule="evenodd"
         stroke-linejoin="miter"
         fill="#000000"
         shape-rendering="geometricPrecision"
         id="path321" />
      <path
         id="line323"
         style="stroke:#000000;stroke-width:1.7"
         d="M 449.64001,54.639999 421.22,38.23" />
    </g>
    <g
       id="g329">
      <path
         d="m 421.22,30.37 v 0 0.98 0.98 L 387.7,51.69 386.85,51.2 v -0.98 z"
         stroke="#000000"
         stroke-width="0"
         fill-rule="evenodd"
         stroke-linejoin="miter"
         fill="#000000"
         shape-rendering="geometricPrecision"
         id="path327" />
    </g>
    <g
       id="g333">
      <path
         d="m 386.85,50.22 v 0 0.98 l -0.85,0.49 -24.26,-14.01 0.43,-0.74 0.42,-0.73 z"
         stroke="#000000"
         stroke-width="0"
         fill-rule="evenodd"
         stroke-linejoin="miter"
         fill="#000000"
         shape-rendering="geometricPrecision"
         id="path331" />
    </g>
    <g
       id="g343">
      <g
         aria-label="F3C"
         id="text341"
         style="text-anchor:end;text-rendering:geometricPrecision">
        <path
           d="M 321.11581,40.799999 V 23.620312 h 11.58985 v 2.027343 h -9.31641 v 5.320313 h 8.0625 v 2.027344 h -8.0625 v 7.804687 z"
           style="font-size:24px;font-family:Arial"
           id="path1561" />
        <path
           d="m 334.56308,42.828632 1.58203,-0.210938 q 0.27246,1.344727 0.92285,1.942383 0.65918,0.588867 1.59961,0.588867 1.11621,0 1.88086,-0.773437 0.77344,-0.773438 0.77344,-1.916016 0,-1.089843 -0.71192,-1.792968 -0.71191,-0.711915 -1.81054,-0.711915 -0.44824,0 -1.11621,0.175782 l 0.17578,-1.388672 q 0.1582,0.01758 0.25488,0.01758 1.01074,0 1.81934,-0.527344 0.80859,-0.527344 0.80859,-1.625976 0,-0.870118 -0.58887,-1.441407 -0.58886,-0.571289 -1.5205,-0.571289 -0.92286,0 -1.53809,0.580078 -0.61523,0.580079 -0.79102,1.740235 l -1.58203,-0.28125 q 0.29004,-1.59082 1.31836,-2.460938 1.02832,-0.878906 2.55762,-0.878906 1.05469,0 1.94238,0.457031 0.8877,0.448243 1.35352,1.230469 0.47461,0.782227 0.47461,1.661133 0,0.834961 -0.44824,1.520508 -0.44825,0.685547 -1.32715,1.089843 1.14257,0.263672 1.77539,1.098633 0.63281,0.826172 0.63281,2.074219 0,1.6875 -1.23047,2.865234 -1.23047,1.168946 -3.11133,1.168946 -1.69629,0 -2.82129,-1.010742 -1.11621,-1.010743 -1.27441,-2.619141 z"
           style="font-size:18px;font-family:Arial"
           id="path1563" />
        <path
           d="m 357.92734,34.776562 2.27344,0.574218 q -0.71485,2.800782 -2.57813,4.277344 -1.85156,1.464844 -4.53516,1.464844 -2.77734,0 -4.52343,-1.125 -1.73438,-1.136719 -2.64844,-3.28125 -0.90234,-2.144531 -0.90234,-4.605469 0,-2.683594 1.01953,-4.675781 1.03125,-2.003906 2.91797,-3.035156 1.89843,-1.042969 4.17187,-1.042969 2.57813,0 4.33594,1.3125 1.75781,1.3125 2.44922,3.691406 l -2.23828,0.527344 q -0.59766,-1.875 -1.73438,-2.730469 -1.13672,-0.855469 -2.85937,-0.855469 -1.98047,0 -3.31641,0.949219 -1.32422,0.949219 -1.86328,2.554688 -0.53906,1.59375 -0.53906,3.292968 0,2.191407 0.63281,3.832032 0.64453,1.628906 1.99219,2.4375 1.34765,0.808593 2.91796,0.808593 1.91016,0 3.23438,-1.101562 1.32422,-1.101563 1.79297,-3.269531 z"
           style="font-size:24px;font-family:Arial"
           id="path1565" />
      </g>
    </g>
    <g
       id="g347">
      <path
         d="m 455.59,91.87 v 0 -0.98 l 0.85,-0.49 24.72,14.26 -0.43,0.74 -0.42,0.74 z"
         stroke="#000000"
         stroke-width="0"
         fill-rule="evenodd"
         stroke-linejoin="miter"
         fill="#000000"
         shape-rendering="geometricPrecision"
         id="path345" />
    </g>
    <g
       id="g353">
      <g
         aria-label="OH"
         id="text351"
         style="text-rendering:geometricPrecision">
        <path
           d="m 481.80017,111.81281 q 0,-4.27734 2.29688,-6.6914 2.29687,-2.42578 5.92968,-2.42578 2.37891,0 4.28907,1.13671 1.91015,1.13672 2.90625,3.17579 1.00781,2.02734 1.00781,4.60546 0,2.61329 -1.05469,4.67579 -1.05469,2.0625 -2.98828,3.1289 -1.93359,1.05469 -4.17188,1.05469 -2.42578,0 -4.33593,-1.17188 -1.91016,-1.17187 -2.89453,-3.19921 -0.98438,-2.02735 -0.98438,-4.28907 z m 2.34375,0.0352 q 0,3.10547 1.66406,4.89844 1.67578,1.78125 4.19532,1.78125 2.5664,0 4.21875,-1.80469 1.66406,-1.80469 1.66406,-5.12109 0,-2.09766 -0.71485,-3.65625 -0.70312,-1.57032 -2.07421,-2.42579 -1.35938,-0.86718 -3.0586,-0.86718 -2.41406,0 -4.16015,1.66406 -1.73438,1.65234 -1.73438,5.53125 z"
           style="font-size:24px;font-family:Arial"
           id="path1568" />
        <path
           d="m 501.22986,120.18 v -17.17969 h 2.27344 v 7.05469 h 8.92968 v -7.05469 h 2.27344 V 120.18 h -2.27344 v -8.09766 H 503.5033 V 120.18 Z"
           style="font-size:24px;font-family:Arial"
           id="path1570" />
      </g>
    </g>
    <g
       id="g359">
      <g
         aria-label="Cl"
         id="text357"
         style="text-rendering:geometricPrecision">
        <path
           d="m 495.39938,34.776562 2.27344,0.574218 q -0.71484,2.800782 -2.57812,4.277344 -1.85157,1.464844 -4.53516,1.464844 -2.77734,0 -4.52344,-1.125 -1.73437,-1.136719 -2.64844,-3.28125 -0.90234,-2.144531 -0.90234,-4.605469 0,-2.683594 1.01953,-4.675781 1.03125,-2.003906 2.91797,-3.035156 1.89844,-1.042969 4.17188,-1.042969 2.57812,0 4.33593,1.3125 1.75782,1.3125 2.44922,3.691406 l -2.23828,0.527344 q -0.59766,-1.875 -1.73437,-2.730469 -1.13672,-0.855469 -2.85938,-0.855469 -1.98047,0 -3.31641,0.949219 -1.32421,0.949219 -1.86328,2.554688 -0.53906,1.59375 -0.53906,3.292968 0,2.191407 0.63281,3.832032 0.64453,1.628906 1.99219,2.4375 1.34766,0.808593 2.91797,0.808593 1.91016,0 3.23437,-1.101562 1.32422,-1.101563 1.79297,-3.269531 z"
           style="font-size:24px;font-family:Arial"
           id="path1573" />
        <path
           d="M 500.1572,40.799999 V 23.620312 h 2.10937 v 17.179687 z"
           style="font-size:24px;font-family:Arial"
           id="path1575" />
      </g>
    </g>
    <g
       id="g363">
      <path
         d="m 456.44,51.69 v 0 l -0.85,-0.49 v -0.98 l 24.82,-14.33 0.42,0.73 0.43,0.74 z"
         stroke="#000000"
         stroke-width="0"
         fill-rule="evenodd"
         stroke-linejoin="miter"
         fill="#000000"
         shape-rendering="geometricPrecision"
         id="path361" />
    </g>
    <g
       id="g369">
      <path
         d="m 271.63,214.41 v 0 l 0.85,-0.49 0.85,0.49 v 38.71 l -0.85,0.49 -0.85,0.49 z"
         stroke="#000000"
         stroke-width="0"
         fill-rule="evenodd"
         stroke-linejoin="miter"
         fill="#000000"
         shape-rendering="geometricPrecision"
         id="path365" />
      <path
         id="line367"
         style="stroke:#000000;stroke-width:1.7"
         d="m 278.42999,217.36 v 32.81" />
    </g>
    <g
       id="g373">
      <path
         d="m 271.63,254.1 v 0 l 0.85,-0.49 0.85,-0.49 33.52,19.36 v 0.98 0.98 z"
         stroke="#000000"
         stroke-width="0"
         fill-rule="evenodd"
         stroke-linejoin="miter"
         fill="#000000"
         shape-rendering="geometricPrecision"
         id="path371" />
    </g>
    <g
       id="g379">
      <path
         d="m 306.85,274.44 v 0 -0.98 -0.98 l 33.52,-19.36 0.85,0.49 v 0.98 z"
         stroke="#000000"
         stroke-width="0"
         fill-rule="evenodd"
         stroke-linejoin="miter"
         fill="#000000"
         shape-rendering="geometricPrecision"
         id="path375" />
      <path
         id="line377"
         style="stroke:#000000;stroke-width:1.7"
         d="M 306.85001,266.57999 335.26999,250.17" />
    </g>
    <g
       id="g383">
      <path
         d="m 342.07,253.12 v 0 l -0.85,0.49 -0.85,-0.49 v -38.71 l 0.85,-0.49 0.85,0.49 z"
         stroke="#000000"
         stroke-width="0"
         fill-rule="evenodd"
         stroke-linejoin="miter"
         fill="#000000"
         shape-rendering="geometricPrecision"
         id="path381" />
    </g>
    <g
       id="g389">
      <path
         d="m 341.22,212.94 v 0 0.98 l -0.85,0.49 -33.52,-19.35 v -0.98 -0.98 z"
         stroke="#000000"
         stroke-width="0"
         fill-rule="evenodd"
         stroke-linejoin="miter"
         fill="#000000"
         shape-rendering="geometricPrecision"
         id="path385" />
      <path
         id="line387"
         style="stroke:#000000;stroke-width:1.7"
         d="M 335.26999,217.36 306.85001,200.95" />
    </g>
    <g
       id="g393">
      <path
         d="m 306.85,193.1 v 0 0.98 0.98 l -33.52,19.35 -0.85,-0.49 v -0.98 z"
         stroke="#000000"
         stroke-width="0"
         fill-rule="evenodd"
         stroke-linejoin="miter"
         fill="#000000"
         shape-rendering="geometricPrecision"
         id="path391" />
    </g>
    <g
       id="g399">
      <g
         aria-label="Cl"
         id="text397"
         style="text-rendering:geometricPrecision">
        <path
           d="m 381.02939,197.50656 2.27344,0.57422 q -0.71485,2.80078 -2.57813,4.27734 -1.85156,1.46485 -4.53516,1.46485 -2.77734,0 -4.52343,-1.125 -1.73438,-1.13672 -2.64844,-3.28125 -0.90234,-2.14453 -0.90234,-4.60547 0,-2.68359 1.01953,-4.67578 1.03125,-2.00391 2.91797,-3.03516 1.89843,-1.04297 4.17187,-1.04297 2.57813,0 4.33594,1.3125 1.75781,1.3125 2.44922,3.69141 l -2.23828,0.52734 q -0.59766,-1.875 -1.73438,-2.73047 -1.13672,-0.85546 -2.85937,-0.85546 -1.98047,0 -3.31641,0.94921 -1.32422,0.94922 -1.86328,2.55469 -0.53906,1.59375 -0.53906,3.29297 0,2.19141 0.63281,3.83203 0.64453,1.62891 1.99219,2.4375 1.34765,0.8086 2.91796,0.8086 1.91016,0 3.23438,-1.10157 1.32422,-1.10156 1.79297,-3.26953 z"
           style="font-size:24px;font-family:Arial"
           id="path1581" />
        <path
           d="m 385.7872,203.53 v -17.17969 h 2.10938 V 203.53 Z"
           style="font-size:24px;font-family:Arial"
           id="path1583" />
      </g>
    </g>
    <g
       id="g403">
      <path
         d="m 342.07,214.41 v 0 l -0.85,-0.49 v -0.98 l 24.79,-14.31 0.42,0.74 0.43,0.73 z"
         stroke="#000000"
         stroke-width="0"
         fill-rule="evenodd"
         stroke-linejoin="miter"
         fill="#000000"
         shape-rendering="geometricPrecision"
         id="path401" />
    </g>
    <g
       id="g407">
      <path
         d="m 341.22,254.59 v 0 -0.98 l 0.85,-0.49 24.69,14.26 -0.43,0.73 -0.42,0.74 z"
         stroke="#000000"
         stroke-width="0"
         fill-rule="evenodd"
         stroke-linejoin="miter"
         fill="#000000"
         shape-rendering="geometricPrecision"
         id="path405" />
    </g>
    <g
       id="g413">
      <g
         aria-label="O"
         id="text411"
         style="text-rendering:geometricPrecision">
        <path
           d="m 367.43015,274.54282 q 0,-4.27735 2.29687,-6.69141 2.29688,-2.42578 5.92969,-2.42578 2.3789,0 4.28906,1.13672 1.91016,1.13672 2.90625,3.17578 1.00781,2.02734 1.00781,4.60547 0,2.61328 -1.05468,4.67578 -1.05469,2.0625 -2.98829,3.1289 -1.93359,1.05469 -4.17187,1.05469 -2.42578,0 -4.33594,-1.17187 -1.91015,-1.17188 -2.89453,-3.19922 -0.98437,-2.02735 -0.98437,-4.28906 z m 2.34375,0.0351 q 0,3.10547 1.66406,4.89844 1.67578,1.78125 4.19531,1.78125 2.56641,0 4.21875,-1.80469 1.66406,-1.80469 1.66406,-5.12109 0,-2.09766 -0.71484,-3.65625 -0.70313,-1.57031 -2.07422,-2.42578 -1.35937,-0.86719 -3.05859,-0.86719 -2.41407,0 -4.16016,1.66406 -1.73437,1.65235 -1.73437,5.53125 z"
           style="font-size:24px;font-family:Arial"
           id="path1586" />
      </g>
    </g>
    <g
       id="g417">
      <path
         d="m 385.49,268.73 v 0 l -0.42,-0.74 -0.43,-0.74 24.48,-14.13 0.85,0.49 v 0.98 z"
         stroke="#000000"
         stroke-width="0"
         fill-rule="evenodd"
         stroke-linejoin="miter"
         fill="#000000"
         shape-rendering="geometricPrecision"
         id="path415" />
    </g>
    <g
       id="g421">
      <path
         d="m 272.48,212.94 v 0 0.98 l -0.85,0.49 -24.19,-13.96 0.43,-0.73 0.42,-0.74 z"
         stroke="#000000"
         stroke-width="0"
         fill-rule="evenodd"
         stroke-linejoin="miter"
         fill="#000000"
         shape-rendering="geometricPrecision"
         id="path419" />
    </g>
    <g
       id="g431">
      <g
         aria-label="F3C"
         id="text429"
         style="text-anchor:end;text-rendering:geometricPrecision">
        <path
           d="m 206.74582,203.53 v -17.17969 h 11.58984 v 2.02735 h -9.3164 v 5.32031 h 8.0625 v 2.02734 h -8.0625 V 203.53 Z"
           style="font-size:24px;font-family:Arial"
           id="path1589" />
        <path
           d="m 220.19308,205.55863 1.58204,-0.21094 q 0.27246,1.34473 0.92285,1.94239 0.65918,0.58886 1.59961,0.58886 1.11621,0 1.88086,-0.77343 0.77343,-0.77344 0.77343,-1.91602 0,-1.08984 -0.71191,-1.79297 -0.71191,-0.71191 -1.81055,-0.71191 -0.44824,0 -1.11621,0.17578 l 0.17578,-1.38867 q 0.15821,0.0176 0.25489,0.0176 1.01074,0 1.81933,-0.52735 0.8086,-0.52734 0.8086,-1.62597 0,-0.87012 -0.58887,-1.44141 -0.58887,-0.57129 -1.52051,-0.57129 -0.92285,0 -1.53809,0.58008 -0.61523,0.58008 -0.79101,1.74023 l -1.58203,-0.28125 q 0.29004,-1.59082 1.31836,-2.46094 1.02832,-0.8789 2.55761,-0.8789 1.05469,0 1.94239,0.45703 0.88769,0.44824 1.35351,1.23047 0.47461,0.78223 0.47461,1.66113 0,0.83496 -0.44824,1.52051 -0.44824,0.68555 -1.32715,1.08984 1.14258,0.26367 1.77539,1.09864 0.63281,0.82617 0.63281,2.07421 0,1.6875 -1.23046,2.86524 -1.23047,1.16894 -3.11133,1.16894 -1.69629,0 -2.82129,-1.01074 -1.11621,-1.01074 -1.27442,-2.61914 z"
           style="font-size:18px;font-family:Arial"
           id="path1591" />
        <path
           d="m 243.55734,197.50656 2.27344,0.57422 q -0.71484,2.80078 -2.57812,4.27734 -1.85157,1.46485 -4.53516,1.46485 -2.77734,0 -4.52344,-1.125 -1.73437,-1.13672 -2.64844,-3.28125 -0.90234,-2.14453 -0.90234,-4.60547 0,-2.68359 1.01953,-4.67578 1.03125,-2.00391 2.91797,-3.03516 1.89844,-1.04297 4.17188,-1.04297 2.57812,0 4.33593,1.3125 1.75782,1.3125 2.44922,3.69141 l -2.23828,0.52734 q -0.59766,-1.875 -1.73437,-2.73047 -1.13672,-0.85546 -2.85938,-0.85546 -1.98047,0 -3.31641,0.94921 -1.32421,0.94922 -1.86328,2.55469 -0.53906,1.59375 -0.53906,3.29297 0,2.19141 0.63281,3.83203 0.64453,1.62891 1.99219,2.4375 1.34766,0.8086 2.91797,0.8086 1.91016,0 3.23437,-1.10157 1.32422,-1.10156 1.79297,-3.26953 z"
           style="font-size:24px;font-family:Arial"
           id="path1593" />
      </g>
    </g>
    <g
       id="g437">
      <path
         d="m 409.97,254.59 v 0 -0.98 l 0.85,-0.49 33.52,19.36 v 0.98 0.98 z"
         stroke="#000000"
         stroke-width="0"
         fill-rule="evenodd"
         stroke-linejoin="miter"
         fill="#000000"
         shape-rendering="geometricPrecision"
         id="path433" />
      <path
         id="line435"
         style="stroke:#000000;stroke-width:1.7"
         d="M 415.92001,250.17 444.34,266.57999" />
    </g>
    <g
       id="g441">
      <path
         d="m 444.34,274.44 v 0 -0.98 -0.98 l 33.52,-19.36 0.85,0.49 v 0.98 z"
         stroke="#000000"
         stroke-width="0"
         fill-rule="evenodd"
         stroke-linejoin="miter"
         fill="#000000"
         shape-rendering="geometricPrecision"
         id="path439" />
    </g>
    <g
       id="g447">
      <path
         d="m 479.56,253.12 v 0 l -0.85,0.49 -0.85,-0.49 v -38.71 l 0.85,-0.49 0.85,0.49 z"
         stroke="#000000"
         stroke-width="0"
         fill-rule="evenodd"
         stroke-linejoin="miter"
         fill="#000000"
         shape-rendering="geometricPrecision"
         id="path443" />
      <path
         id="line445"
         style="stroke:#000000;stroke-width:1.7"
         d="m 472.34662,250.0054 v -32.81" />
    </g>
    <g
       id="g451">
      <path
         d="m 478.71,212.94 v 0 0.98 l -0.85,0.49 -33.52,-19.35 v -0.98 -0.98 z"
         stroke="#000000"
         stroke-width="0"
         fill-rule="evenodd"
         stroke-linejoin="miter"
         fill="#000000"
         shape-rendering="geometricPrecision"
         id="path449" />
    </g>
    <g
       id="g457">
      <path
         d="m 444.34,193.1 v 0 0.98 0.98 l -33.52,19.35 -0.85,-0.49 -0.85,-0.49 z"
         stroke="#000000"
         stroke-width="0"
         fill-rule="evenodd"
         stroke-linejoin="miter"
         fill="#000000"
         shape-rendering="geometricPrecision"
         id="path453" />
      <path
         id="line455"
         style="stroke:#000000;stroke-width:1.7"
         d="m 444.34,200.95 -28.41999,16.41" />
    </g>
    <g
       id="g461">
      <path
         d="m 409.12,213.43 v 0 l 0.85,0.49 0.85,0.49 v 38.71 l -0.85,0.49 -0.85,-0.49 z"
         stroke="#000000"
         stroke-width="0"
         fill-rule="evenodd"
         stroke-linejoin="miter"
         fill="#000000"
         shape-rendering="geometricPrecision"
         id="path459" />
    </g>
    <g
       id="g465">
      <path
         d="m 479.56,214.41 v 0 l -0.85,-0.49 v -0.98 l 25.2,-14.55 0.42,0.74 0.43,0.73 z"
         stroke="#000000"
         stroke-width="0"
         fill-rule="evenodd"
         stroke-linejoin="miter"
         fill="#000000"
         shape-rendering="geometricPrecision"
         id="path463" />
    </g>
    <g
       id="g471">
      <g
         aria-label="N"
         id="text469"
         style="text-rendering:geometricPrecision">
        <path
           d="m 506.23813,203.53 v -17.17969 h 2.33203 l 9.02344,13.48828 v -13.48828 h 2.17968 V 203.53 h -2.33203 l -9.02343,-13.5 v 13.5 z"
           style="font-size:24px;font-family:Arial"
           id="path1599" />
      </g>
    </g>
    <g
       id="g477">
      <g
         aria-label="O"
         id="text475"
         style="text-rendering:geometricPrecision">
        <path
           d="m 539.29016,215.00281 q 0,-4.27735 2.29688,-6.69141 2.29687,-2.42578 5.92968,-2.42578 2.37891,0 4.28907,1.13672 1.91015,1.13672 2.90625,3.17578 1.00781,2.02734 1.00781,4.60547 0,2.61328 -1.05469,4.67578 -1.05469,2.0625 -2.98828,3.12891 -1.93359,1.05468 -4.17188,1.05468 -2.42578,0 -4.33593,-1.17187 -1.91016,-1.17188 -2.89453,-3.19922 -0.98438,-2.02734 -0.98438,-4.28906 z m 2.34375,0.0351 q 0,3.10547 1.66406,4.89844 1.67578,1.78125 4.19532,1.78125 2.5664,0 4.21875,-1.80469 1.66406,-1.80468 1.66406,-5.12109 0,-2.09766 -0.71485,-3.65625 -0.70312,-1.57031 -2.07421,-2.42578 -1.35938,-0.86719 -3.0586,-0.86719 -2.41406,0 -4.16015,1.66406 -1.73438,1.65235 -1.73438,5.53125 z"
           style="font-size:24px;font-family:Arial"
           id="path1602" />
      </g>
    </g>
    <g
       id="g481">
      <path
         d="m 521.34,199.83 v 0 l 0.43,-0.74 0.42,-0.73 16.47,9.5 -0.43,0.74 -0.42,0.73 z"
         stroke="#000000"
         stroke-width="0"
         fill-rule="evenodd"
         stroke-linejoin="miter"
         fill="#000000"
         shape-rendering="geometricPrecision"
         id="path479" />
    </g>
    <g
       id="g489">
      <path
         id="line483"
         style="stroke:#000000;stroke-width:1.7"
         d="M 510.10001,184.13 V 166.47" />
      <path
         d="m 515.21,184.13 v 0 h 1.7 v -17.66 h -1.7 z"
         stroke="#000000"
         stroke-width="0"
         fill-rule="evenodd"
         stroke-linejoin="miter"
         fill="#000000"
         shape-rendering="geometricPrecision"
         id="path485" />
      <path
         d="m 509.25,184.13 v 0 h 1.7 v -17.66 h -1.7 z"
         stroke="#000000"
         stroke-width="0"
         fill-rule="evenodd"
         stroke-linejoin="miter"
         fill="#000000"
         shape-rendering="geometricPrecision"
         id="path487" />
    </g>
    <g
       id="g495">
      <g
         aria-label="O"
         id="text493"
         style="text-rendering:geometricPrecision">
        <path
           d="m 504.92017,155.47281 q 0,-4.27734 2.29687,-6.69141 2.29688,-2.42578 5.92969,-2.42578 2.3789,0 4.28906,1.13672 1.91016,1.13672 2.90625,3.17578 1.00781,2.02735 1.00781,4.60547 0,2.61328 -1.05468,4.67578 -1.05469,2.0625 -2.98829,3.12891 -1.93359,1.05469 -4.17187,1.05469 -2.42578,0 -4.33594,-1.17188 -1.91015,-1.17187 -2.89453,-3.19922 -0.98437,-2.02734 -0.98437,-4.28906 z m 2.34375,0.0352 q 0,3.10546 1.66406,4.89843 1.67578,1.78125 4.19531,1.78125 2.56641,0 4.21875,-1.80468 1.66406,-1.80469 1.66406,-5.1211 0,-2.09765 -0.71484,-3.65625 -0.70313,-1.57031 -2.07422,-2.42578 -1.35937,-0.86719 -3.05859,-0.86719 -2.41407,0 -4.16016,1.66407 -1.73437,1.65234 -1.73437,5.53125 z"
           style="font-size:24px;font-family:Arial"
           id="path1606" />
      </g>
    </g>
    <g
       id="g499">
      <path
         d="m 478.71,254.59 v 0 -0.98 l 0.85,-0.49 33.52,19.36 v 0.98 0.98 z"
         stroke="#000000"
         stroke-width="0"
         fill-rule="evenodd"
         stroke-linejoin="miter"
         fill="#000000"
         shape-rendering="geometricPrecision"
         id="path497" />
    </g>
    <g
       id="g503">
      <path
         d="m 513.08,274.44 v 0 -0.98 -0.98 l 24.23,-13.99 0.42,0.74 0.43,0.73 z"
         stroke="#000000"
         stroke-width="0"
         fill-rule="evenodd"
         stroke-linejoin="miter"
         fill="#000000"
         shape-rendering="geometricPrecision"
         id="path501" />
    </g>
    <g
       id="g509">
      <g
         aria-label="OH"
         id="text507"
         style="text-rendering:geometricPrecision">
        <path
           d="m 539.29016,254.69281 q 0,-4.27734 2.29688,-6.69141 2.29687,-2.42578 5.92968,-2.42578 2.37891,0 4.28907,1.13672 1.91015,1.13672 2.90625,3.17578 1.00781,2.02735 1.00781,4.60547 0,2.61328 -1.05469,4.67578 -1.05469,2.0625 -2.98828,3.12891 -1.93359,1.05469 -4.17188,1.05469 -2.42578,0 -4.33593,-1.17188 -1.91016,-1.17187 -2.89453,-3.19922 -0.98438,-2.02734 -0.98438,-4.28906 z m 2.34375,0.0352 q 0,3.10547 1.66406,4.89843 1.67578,1.78125 4.19532,1.78125 2.5664,0 4.21875,-1.80468 1.66406,-1.80469 1.66406,-5.1211 0,-2.09765 -0.71485,-3.65625 -0.70312,-1.57031 -2.07421,-2.42578 -1.35938,-0.86719 -3.0586,-0.86719 -2.41406,0 -4.16015,1.66407 -1.73438,1.65234 -1.73438,5.53125 z"
           style="font-size:24px;font-family:Arial"
           id="path1609" />
        <path
           d="m 558.71985,263.06 v -17.17969 h 2.27344 v 7.05469 h 8.92968 v -7.05469 h 2.27344 V 263.06 h -2.27344 v -8.09766 h -8.92968 V 263.06 Z"
           style="font-size:24px;font-family:Arial"
           id="path1611" />
      </g>
    </g>
    <g
       id="g517">
      <path
         id="line511"
         style="stroke:#000000;stroke-width:1.7"
         d="m 516.06,273.45999 v 29.47" />
      <path
         d="m 510.95,273.21 v 0 l -1.7,-0.98 v 30.7 h 1.7 z"
         stroke="#000000"
         stroke-width="0"
         fill-rule="evenodd"
         stroke-linejoin="miter"
         fill="#000000"
         shape-rendering="geometricPrecision"
         id="path513" />
      <path
         d="m 516.91,272.23 v 0 l -1.7,0.98 v 29.72 h 1.7 z"
         stroke="#000000"
         stroke-width="0"
         fill-rule="evenodd"
         stroke-linejoin="miter"
         fill="#000000"
         shape-rendering="geometricPrecision"
         id="path515" />
    </g>
    <g
       id="g523">
      <g
         aria-label="O"
         id="text521"
         style="text-rendering:geometricPrecision">
        <path
           d="m 504.92017,314.23282 q 0,-4.27735 2.29687,-6.69141 2.29688,-2.42578 5.92969,-2.42578 2.3789,0 4.28906,1.13672 1.91016,1.13672 2.90625,3.17578 1.00781,2.02734 1.00781,4.60547 0,2.61328 -1.05468,4.67578 -1.05469,2.0625 -2.98829,3.12891 -1.93359,1.05468 -4.17187,1.05468 -2.42578,0 -4.33594,-1.17187 -1.91015,-1.17188 -2.89453,-3.19922 -0.98437,-2.02734 -0.98437,-4.28906 z m 2.34375,0.0351 q 0,3.10547 1.66406,4.89844 1.67578,1.78125 4.19531,1.78125 2.56641,0 4.21875,-1.80469 1.66406,-1.80468 1.66406,-5.12109 0,-2.09766 -0.71484,-3.65625 -0.70313,-1.57031 -2.07422,-2.42578 -1.35937,-0.86719 -3.05859,-0.86719 -2.41407,0 -4.16016,1.66406 -1.73437,1.65235 -1.73437,5.53125 z"
           style="font-size:24px;font-family:Arial"
           id="path1615" />
      </g>
    </g>
    <g
       id="Charge10092">
      <path
         id="line525"
         style="stroke:#000000;stroke-width:1.36"
         d="m 553.59402,204.11786 h 9.70001" />
    </g>
    <g
       id="Charge10093">
      <path
         id="line528"
         style="stroke:#000000;stroke-width:1.36"
         d="m 521.94,181.78 h 9.70001" />
      <path
         id="line530"
         style="stroke:#000000;stroke-width:1.36"
         d="M 526.78998,176.92999 V 186.63" />
    </g>
    <g
       id="g537">
      <path
         id="line533"
         style="stroke:#000000;stroke-width:1.7"
         d="M 178.13,263.5 H 23.49" />
      <path
         d="m 199.45,263.5 -25.5,-6.38 c 3.62,3.59 3.62,9.17 0,12.76 z"
         stroke="#000000"
         stroke-width="0"
         fill-rule="evenodd"
         stroke-linejoin="miter"
         stroke-miterlimit="19.6374"
         fill="#000000"
         shape-rendering="geometricPrecision"
         id="path535" />
    </g>
    <g
       id="g543">
      <path
         d="m 68.24,189.39 v 0 l 0.85,0.49 0.85,0.49 v 23.92 l -0.85,0.49 -0.85,-0.49 z"
         stroke="#000000"
         stroke-width="0"
         fill-rule="evenodd"
         stroke-linejoin="miter"
         fill="#000000"
         shape-rendering="geometricPrecision"
         id="path539" />
      <path
         id="line541"
         style="stroke:#000000;stroke-width:1.7"
         d="m 73.339996,192.33 v 20" />
    </g>
    <g
       id="g547">
      <path
         d="m 69.09,215.76 v 0 -0.98 l 0.85,-0.49 20.71,11.96 v 0.98 0.98 z"
         stroke="#000000"
         stroke-width="0"
         fill-rule="evenodd"
         stroke-linejoin="miter"
         fill="#000000"
         shape-rendering="geometricPrecision"
         id="path545" />
    </g>
    <g
       id="g553">
      <path
         d="m 90.65,228.21 v 0 -0.98 -0.98 l 20.72,-11.96 0.85,0.49 v 0.98 z"
         stroke="#000000"
         stroke-width="0"
         fill-rule="evenodd"
         stroke-linejoin="miter"
         fill="#000000"
         shape-rendering="geometricPrecision"
         id="path549" />
      <path
         id="line551"
         style="stroke:#000000;stroke-width:1.7"
         d="M 90.650002,222.32001 107.97,212.33" />
    </g>
    <g
       id="g557">
      <path
         d="m 113.07,214.29 v 0 l -0.85,0.49 -0.85,-0.49 v -23.92 l 0.85,-0.49 0.85,0.49 z"
         stroke="#000000"
         stroke-width="0"
         fill-rule="evenodd"
         stroke-linejoin="miter"
         fill="#000000"
         shape-rendering="geometricPrecision"
         id="path555" />
    </g>
    <g
       id="g563">
      <path
         d="m 112.22,188.9 v 0 0.98 l -0.85,0.49 -20.72,-11.96 v -0.98 -0.98 z"
         stroke="#000000"
         stroke-width="0"
         fill-rule="evenodd"
         stroke-linejoin="miter"
         fill="#000000"
         shape-rendering="geometricPrecision"
         id="path559" />
      <path
         id="line561"
         style="stroke:#000000;stroke-width:1.7"
         d="M 107.97,192.33 90.650002,182.34" />
    </g>
    <g
       id="g567">
      <path
         d="m 90.65,176.45 v 0 0.98 0.98 l -20.71,11.96 -0.85,-0.49 -0.85,-0.49 z"
         stroke="#000000"
         stroke-width="0"
         fill-rule="evenodd"
         stroke-linejoin="miter"
         fill="#000000"
         shape-rendering="geometricPrecision"
         id="path565" />
    </g>
    <g
       id="g573">
      <g
         aria-label="Cl"
         id="text571"
         style="text-anchor:end;text-rendering:geometricPrecision">
        <path
           d="m 42.621094,230.09047 1.894531,0.47851 q -0.595703,2.33399 -2.148438,3.56446 -1.542968,1.2207 -3.779296,1.2207 -2.314454,0 -3.769532,-0.9375 -1.445312,-0.94726 -2.207031,-2.73437 -0.751953,-1.78711 -0.751953,-3.83789 0,-2.23633 0.849609,-3.89649 0.859375,-1.66992 2.431641,-2.5293 1.582031,-0.86914 3.476562,-0.86914 2.148438,0 3.613282,1.09375 1.464843,1.09375 2.041015,3.07618 l -1.865234,0.43945 q -0.498047,-1.5625 -1.445313,-2.27539 -0.947265,-0.71289 -2.382812,-0.71289 -1.650391,0 -2.763672,0.79101 -1.103516,0.79102 -1.552734,2.12891 -0.449219,1.32812 -0.449219,2.74414 0,1.82617 0.527344,3.19336 0.537109,1.35742 1.660156,2.03125 1.123047,0.67383 2.431641,0.67383 1.591796,0 2.695312,-0.91797 1.103516,-0.91797 1.494141,-2.72461 z"
           style="font-size:20px;font-family:Arial"
           id="path1625" />
        <path
           d="M 46.585937,235.11 V 220.79359 H 48.34375 V 235.11 Z"
           style="font-size:20px;font-family:Arial"
           id="path1627" />
      </g>
    </g>
    <g
       id="g577">
      <path
         d="m 68.24,214.29 v 0 l 0.85,0.49 v 0.98 l -18.3,10.56 -0.42,-0.73 -0.43,-0.74 z"
         stroke="#000000"
         stroke-width="0"
         fill-rule="evenodd"
         stroke-linejoin="miter"
         fill="#000000"
         shape-rendering="geometricPrecision"
         id="path575" />
    </g>
    <g
       id="g581">
      <path
         d="m 113.07,190.37 v 0 l -0.85,-0.49 v -0.98 l 13.49,-7.79 0.42,0.74 0.43,0.74 z"
         stroke="#000000"
         stroke-width="0"
         fill-rule="evenodd"
         stroke-linejoin="miter"
         fill="#000000"
         shape-rendering="geometricPrecision"
         id="path579" />
    </g>
    <g
       id="g589">
      <g
         aria-label="NO2"
         id="text587"
         style="text-rendering:geometricPrecision">
        <path
           d="m 128.08344,185.3 v -14.3164 h 1.94335 l 7.51954,11.24023 V 170.9836 h 1.8164 V 185.3 h -1.94336 l -7.51953,-11.25 v 11.25 z"
           style="font-size:20px;font-family:Arial"
           id="path1630" />
        <path
           d="m 141.97015,178.32735 q 0,-3.56446 1.91407,-5.57618 1.91406,-2.02148 4.9414,-2.02148 1.98242,0 3.57422,0.94727 1.5918,0.94726 2.42188,2.64648 0.83984,1.68945 0.83984,3.83789 0,2.17774 -0.87891,3.89649 -0.8789,1.71875 -2.49023,2.60742 -1.61133,0.8789 -3.47656,0.8789 -2.02149,0 -3.61328,-0.97656 -1.5918,-0.97656 -2.41211,-2.66601 -0.82032,-1.68946 -0.82032,-3.57422 z m 1.95313,0.0293 q 0,2.58789 1.38672,4.08203 1.39648,1.48438 3.49609,1.48438 2.13867,0 3.51563,-1.50391 1.38672,-1.5039 1.38672,-4.26757 0,-1.74805 -0.59571,-3.04688 -0.58594,-1.30859 -1.72851,-2.02148 -1.13282,-0.72266 -2.54883,-0.72266 -2.01172,0 -3.4668,1.38672 -1.44531,1.37695 -1.44531,4.60937 z"
           style="font-size:20px;font-family:Arial"
           id="path1632" />
        <path
           d="M 164.11127,188.56291 V 189.83 h -7.09717 q -0.0147,-0.47607 0.15381,-0.91552 0.27099,-0.7251 0.86426,-1.42823 0.60058,-0.70312 1.72851,-1.62597 1.75049,-1.43555 2.36572,-2.27051 0.61524,-0.84229 0.61524,-1.58936 0,-0.78369 -0.56397,-1.31836 -0.55664,-0.54199 -1.45752,-0.54199 -0.95214,0 -1.52343,0.57129 -0.57129,0.57129 -0.57862,1.58203 l -1.35498,-0.13916 q 0.13916,-1.51611 1.04737,-2.30713 0.9082,-0.79834 2.43896,-0.79834 1.54541,0 2.44629,0.85694 0.90088,0.85693 0.90088,2.12402 0,0.64453 -0.26367,1.26709 -0.26368,0.62256 -0.87891,1.31104 -0.60791,0.68847 -2.02881,1.88964 -1.18652,0.9961 -1.52344,1.35498 -0.33691,0.35157 -0.55664,0.71045 z"
           style="font-size:15px;font-family:Arial"
           id="path1634" />
      </g>
    </g>
    <g
       id="g593">
      <path
         d="m 112.22,215.76 v 0 -0.98 l 0.85,-0.49 20.72,11.96 v 0.98 0.98 z"
         stroke="#000000"
         stroke-width="0"
         fill-rule="evenodd"
         stroke-linejoin="miter"
         fill="#000000"
         shape-rendering="geometricPrecision"
         id="path591" />
    </g>
    <g
       id="g599">
      <g
         aria-label="O"
         id="text597"
         style="text-rendering:geometricPrecision">
        <path
           d="m 126.9768,253.03735 q 0,-3.56445 1.91406,-5.57617 1.91406,-2.02148 4.94141,-2.02148 1.98242,0 3.57422,0.94726 1.59179,0.94727 2.42187,2.64649 0.83985,1.68945 0.83985,3.83789 0,2.17773 -0.87891,3.89648 -0.87891,1.71875 -2.49024,2.60742 -1.61132,0.87891 -3.47656,0.87891 -2.02148,0 -3.61328,-0.97656 -1.5918,-0.97656 -2.41211,-2.66602 -0.82031,-1.68945 -0.82031,-3.57422 z m 1.95312,0.0293 q 0,2.58789 1.38672,4.08203 1.39649,1.48438 3.4961,1.48438 2.13867,0 3.51562,-1.50391 1.38672,-1.50391 1.38672,-4.26758 0,-1.74804 -0.5957,-3.04687 -0.58594,-1.3086 -1.72852,-2.02149 -1.13281,-0.72265 -2.54883,-0.72265 -2.01172,0 -3.46679,1.38672 -1.44532,1.37695 -1.44532,4.60937 z"
           style="font-size:20px;font-family:Arial"
           id="path1637" />
      </g>
    </g>
    <g
       id="g607">
      <path
         id="line601"
         style="stroke:#000000;stroke-width:1.7"
         d="m 135.92,227.23 v 16" />
      <path
         d="m 132.52,227.48 v 0 l -1.71,-0.99 0.01,16.74 h 1.7 z"
         stroke="#000000"
         stroke-width="0"
         fill-rule="evenodd"
         stroke-linejoin="miter"
         fill="#000000"
         shape-rendering="geometricPrecision"
         id="path603" />
      <path
         d="m 136.76,226.49 v 0 l -1.69,0.99 v 15.75 h 1.7 z"
         stroke="#000000"
         stroke-width="0"
         fill-rule="evenodd"
         stroke-linejoin="miter"
         fill="#000000"
         shape-rendering="geometricPrecision"
         id="path605" />
    </g>
    <g
       id="g611">
      <path
         d="m 133.79,228.21 v 0 -0.98 -0.98 l 12.62,-7.29 0.42,0.74 0.43,0.73 z"
         stroke="#000000"
         stroke-width="0"
         fill-rule="evenodd"
         stroke-linejoin="miter"
         fill="#000000"
         shape-rendering="geometricPrecision"
         id="path609" />
    </g>
    <g
       id="g617">
      <g
         aria-label="OH"
         id="text615"
         style="text-rendering:geometricPrecision">
        <path
           d="m 148.5468,215.68735 q 0,-3.56446 1.91406,-5.57617 1.91406,-2.02149 4.94141,-2.02149 1.98242,0 3.57422,0.94727 1.59179,0.94726 2.42187,2.64648 0.83984,1.68945 0.83984,3.83789 0,2.17774 -0.8789,3.89649 -0.87891,1.71875 -2.49024,2.60742 -1.61132,0.8789 -3.47656,0.8789 -2.02148,0 -3.61328,-0.97656 -1.5918,-0.97656 -2.41211,-2.66601 -0.82031,-1.68946 -0.82031,-3.57422 z m 1.95312,0.0293 q 0,2.58789 1.38672,4.08204 1.39649,1.48437 3.4961,1.48437 2.13867,0 3.51562,-1.50391 1.38672,-1.5039 1.38672,-4.26757 0,-1.74805 -0.5957,-3.04688 -0.58594,-1.30859 -1.72852,-2.02148 -1.13281,-0.72266 -2.54883,-0.72266 -2.01172,0 -3.46679,1.38672 -1.44532,1.37695 -1.44532,4.60937 z"
           style="font-size:20px;font-family:Arial"
           id="path1641" />
        <path
           d="m 164.7382,222.66 v -14.3164 h 1.89454 v 5.8789 h 7.4414 v -5.8789 h 1.89453 V 222.66 h -1.89453 v -6.74804 h -7.4414 V 222.66 Z"
           style="font-size:20px;font-family:Arial"
           id="path1643" />
      </g>
    </g>
    <g
       id="g623">
      <path
         id="line619"
         style="stroke:#000000;stroke-width:1.7"
         d="M 177.35001,449.85001 H 25.889999" />
      <path
         d="m 201.85,449.85 -25.5,-6.37 c 0.5,3.18 0.5,9.56 0,12.74 z"
         stroke="#000000"
         stroke-width="0"
         fill-rule="evenodd"
         stroke-linejoin="miter"
         stroke-miterlimit="15.5796"
         fill="#000000"
         shape-rendering="geometricPrecision"
         id="path621" />
    </g>
    <g
       id="g633">
      <g
         aria-label="Milchsure-"
         id="text631"
         style="text-rendering:geometricPrecision">
        <path
           d="M 49.771252,421.45999 V 404.2803 h 3.421875 l 4.066406,12.16407 q 0.5625,1.69922 0.820312,2.54297 0.292969,-0.9375 0.914063,-2.75391 l 4.113281,-11.95313 h 3.058594 v 17.17969 h -2.191406 v -14.3789 l -4.992188,14.3789 h -2.050781 l -4.96875,-14.625 v 14.625 z"
           style="font-size:24px;font-family:Arial"
           id="path1647" />
        <path
           d="m 69.575939,406.70609 v -2.42579 h 2.109375 v 2.42579 z m 0,14.7539 v -12.44531 h 2.109375 v 12.44531 z"
           style="font-size:24px;font-family:Arial"
           id="path1649" />
        <path
           d="M 74.849377,421.45999 V 404.2803 h 2.109375 v 17.17969 z"
           style="font-size:24px;font-family:Arial"
           id="path1651" />
        <path
           d="m 88.349377,416.9014 2.074218,0.26953 q -0.339843,2.14453 -1.746093,3.36328 -1.394532,1.20703 -3.433594,1.20703 -2.554688,0 -4.113281,-1.66406 -1.546875,-1.67578 -1.546875,-4.79297 0,-2.01562 0.667968,-3.52734 0.667969,-1.51172 2.027344,-2.26172 1.371094,-0.76172 2.976563,-0.76172 2.027343,0 3.316406,1.03125 1.289062,1.01953 1.652344,2.90625 l -2.050782,0.31641 q -0.292968,-1.25391 -1.042968,-1.88672 -0.738282,-0.63282 -1.792969,-0.63282 -1.59375,0 -2.589844,1.14844 -0.996094,1.13672 -0.996094,3.60938 0,2.50781 0.960938,3.64453 0.960937,1.13672 2.507812,1.13672 1.242188,0 2.074219,-0.76172 0.832031,-0.76172 1.054688,-2.34375 z"
           style="font-size:24px;font-family:Arial"
           id="path1653" />
        <path
           d="M 92.228283,421.45999 V 404.2803 h 2.109375 v 6.16407 q 1.476562,-1.71094 3.726562,-1.71094 1.382813,0 2.40234,0.55078 1.01954,0.53906 1.45313,1.5 0.44531,0.96094 0.44531,2.78906 v 7.88672 h -2.10937 v -7.88672 q 0,-1.58203 -0.69141,-2.29687 -0.679687,-0.72656 -1.933593,-0.72656 -0.9375,0 -1.769532,0.49218 -0.820312,0.48047 -1.171875,1.3125 -0.351562,0.83203 -0.351562,2.29688 v 6.80859 z"
           style="font-size:24px;font-family:Arial"
           id="path1655" />
        <path
           d="m 104.73219,417.74515 2.08594,-0.32813 q 0.17578,1.25391 0.97265,1.92188 0.8086,0.66797 2.25,0.66797 1.45313,0 2.15625,-0.58594 0.70313,-0.59766 0.70313,-1.39453 0,-0.71485 -0.6211,-1.125 -0.43359,-0.28125 -2.15625,-0.71485 -2.32031,-0.58593 -3.22265,-1.00781 -0.89063,-0.43359 -1.35938,-1.18359 -0.45703,-0.76172 -0.45703,-1.67578 0,-0.83203 0.375,-1.53516 0.38672,-0.71484 1.04297,-1.18359 0.49219,-0.36328 1.33594,-0.60938 0.85547,-0.25781 1.82812,-0.25781 1.46485,0 2.56641,0.42187 1.11328,0.42188 1.64062,1.14844 0.52735,0.71485 0.72657,1.92188 l -2.0625,0.28125 q -0.14063,-0.96094 -0.82032,-1.5 -0.66796,-0.53907 -1.89843,-0.53907 -1.45313,0 -2.07422,0.48047 -0.6211,0.48047 -0.6211,1.125 0,0.41016 0.25782,0.73828 0.25781,0.33985 0.80859,0.5625 0.31641,0.11719 1.86328,0.53907 2.23828,0.59765 3.11719,0.98437 0.89062,0.375 1.39453,1.10156 0.50391,0.72657 0.50391,1.80469 0,1.05469 -0.6211,1.99219 -0.60937,0.92578 -1.76953,1.44141 -1.16015,0.5039 -2.625,0.5039 -2.42578,0 -3.70312,-1.00781 -1.26563,-1.00781 -1.61719,-2.98828 z"
           style="font-size:24px;font-family:Arial"
           id="path1657" />
        <path
           d="m 125.69703,419.92484 q -1.17187,0.99609 -2.26172,1.40625 -1.07812,0.41015 -2.32031,0.41015 -2.05078,0 -3.15234,-0.99609 -1.10156,-1.00781 -1.10156,-2.56641 0,-0.91406 0.41015,-1.66406 0.42188,-0.76172 1.08985,-1.21875 0.67968,-0.45703 1.52343,-0.69141 0.6211,-0.16406 1.875,-0.3164 2.55469,-0.30469 3.76172,-0.72657 0.0117,-0.43359 0.0117,-0.55078 0,-1.28906 -0.59766,-1.8164 -0.80859,-0.71485 -2.40234,-0.71485 -1.48828,0 -2.20312,0.52735 -0.70313,0.51562 -1.04297,1.83984 l -2.0625,-0.28125 q 0.28125,-1.32422 0.92578,-2.13281 0.64453,-0.82031 1.86328,-1.25391 1.21875,-0.44531 2.82422,-0.44531 1.59375,0 2.58984,0.375 0.9961,0.375 1.46485,0.94922 0.46875,0.5625 0.65625,1.42969 0.10546,0.53906 0.10546,1.94531 v 2.8125 q 0,2.9414 0.12891,3.72656 0.14063,0.77344 0.53906,1.48828 h -2.20312 q -0.32813,-0.65625 -0.42188,-1.53515 z m -0.17578,-4.71094 q -1.14844,0.46875 -3.44531,0.79687 -1.30078,0.1875 -1.83984,0.42188 -0.53907,0.23437 -0.83204,0.6914 -0.29296,0.44532 -0.29296,0.9961 0,0.84375 0.63281,1.40625 0.64453,0.5625 1.875,0.5625 1.21875,0 2.16797,-0.52735 0.94922,-0.53906 1.39453,-1.46484 0.33984,-0.71484 0.33984,-2.10937 z m -6.21094,-8.63672 v -2.40234 h 2.20313 v 2.40234 z m 4.3711,0 v -2.40234 h 2.20312 v 2.40234 z"
           style="font-size:24px;font-family:Arial"
           id="path1659" />
        <path
           d="m 139.07985,421.45999 v -1.82812 q -1.45313,2.10937 -3.94922,2.10937 -1.10157,0 -2.0625,-0.42187 -0.94922,-0.42188 -1.41797,-1.05469 -0.45703,-0.64453 -0.64453,-1.57031 -0.12891,-0.6211 -0.12891,-1.96875 v -7.71094 h 2.10938 v 6.90234 q 0,1.65235 0.1289,2.22657 0.19922,0.83203 0.84375,1.3125 0.64453,0.46875 1.59375,0.46875 0.94922,0 1.78125,-0.48047 0.83203,-0.49219 1.17188,-1.32422 0.35156,-0.84375 0.35156,-2.4375 v -6.66797 h 2.10937 v 12.44531 z"
           style="font-size:24px;font-family:Arial"
           id="path1661" />
        <path
           d="m 144.24781,421.45999 v -12.44531 h 1.89844 v 1.88672 q 0.72656,-1.32422 1.33594,-1.7461 0.62109,-0.42187 1.35937,-0.42187 1.06641,0 2.16797,0.67969 l -0.72656,1.95703 q -0.77344,-0.45703 -1.54687,-0.45703 -0.69141,0 -1.24219,0.42187 -0.55078,0.41016 -0.78516,1.14844 -0.35156,1.125 -0.35156,2.46094 v 6.51562 z"
           style="font-size:24px;font-family:Arial"
           id="path1663" />
        <path
           d="m 160.78297,417.45218 2.17969,0.26953 q -0.51563,1.91016 -1.91016,2.96484 -1.39453,1.05469 -3.5625,1.05469 -2.73047,0 -4.33594,-1.67578 -1.59375,-1.6875 -1.59375,-4.72266 0,-3.14062 1.61719,-4.875 1.61719,-1.73437 4.19531,-1.73437 2.4961,0 4.07813,1.69922 1.58203,1.69922 1.58203,4.78125 0,0.1875 -0.0117,0.5625 H 153.74 q 0.11719,2.05078 1.16016,3.14062 1.04297,1.08985 2.60156,1.08985 1.16016,0 1.98047,-0.60938 0.82031,-0.60937 1.30078,-1.94531 z m -6.92578,-3.41016 h 6.94922 q -0.14063,-1.57031 -0.79688,-2.35547 -1.00781,-1.21875 -2.61328,-1.21875 -1.45312,0 -2.44922,0.97266 -0.98437,0.97266 -1.08984,2.60156 z"
           style="font-size:24px;font-family:Arial"
           id="path1665" />
        <path
           d="m 164.79078,416.30374 v -2.12109 h 6.48047 v 2.12109 z"
           style="font-size:24px;font-family:Arial"
           id="path1667" />
      </g>
    </g>
    <g
       id="g641">
      <g
         aria-label="SOCl2"
         id="text639"
         style="text-rendering:geometricPrecision">
        <path
           d="m 69.858124,468.73047 2.144531,-0.1875 q 0.152344,1.28906 0.703125,2.12109 0.5625,0.82031 1.734375,1.33594 1.171875,0.50391 2.636719,0.50391 1.300781,0 2.296875,-0.38672 0.996094,-0.38672 1.476562,-1.05469 0.492188,-0.67969 0.492188,-1.47656 0,-0.8086 -0.46875,-1.40625 -0.46875,-0.60938 -1.546875,-1.01953 -0.691406,-0.26954 -3.058594,-0.83204 -2.367187,-0.57421 -3.316406,-1.07812 -1.230469,-0.64453 -1.839844,-1.59375 -0.597656,-0.96094 -0.597656,-2.14453 0,-1.30078 0.738281,-2.42578 0.738281,-1.13672 2.15625,-1.72266 1.417969,-0.58594 3.152344,-0.58594 1.910156,0 3.363281,0.6211 1.464844,0.60937 2.25,1.80468 0.785156,1.19532 0.84375,2.70704 l -2.179687,0.16406 q -0.175782,-1.62891 -1.195313,-2.46094 -1.007812,-0.83203 -2.988281,-0.83203 -2.0625,0 -3.011719,0.76172 -0.9375,0.75 -0.9375,1.8164 0,0.92579 0.667969,1.52344 0.65625,0.59766 3.421875,1.23047 2.777344,0.62109 3.808594,1.08984 1.5,0.69141 2.214843,1.75782 0.714844,1.05468 0.714844,2.4375 0,1.37109 -0.785156,2.58984 -0.785156,1.20703 -2.261719,1.88672 -1.464844,0.66797 -3.304687,0.66797 -2.332032,0 -3.914063,-0.67969 -1.570312,-0.67969 -2.472656,-2.03906 -0.890625,-1.3711 -0.9375,-3.09375 z"
           style="font-size:24px;font-family:Arial"
           id="path1670" />
        <path
           d="m 85.947968,465.88281 q 0,-4.27734 2.296875,-6.6914 2.296875,-2.42579 5.929687,-2.42579 2.378906,0 4.289063,1.13672 1.910157,1.13672 2.906247,3.17578 1.00782,2.02735 1.00782,4.60547 0,2.61328 -1.05469,4.67578 -1.05469,2.0625 -2.988284,3.12891 -1.933593,1.05469 -4.171875,1.05469 -2.425781,0 -4.335937,-1.17188 -1.910156,-1.17187 -2.894531,-3.19922 -0.984375,-2.02734 -0.984375,-4.28906 z m 2.34375,0.0352 q 0,3.10547 1.664062,4.89844 1.675781,1.78125 4.195313,1.78125 2.566406,0 4.21875,-1.80469 1.664067,-1.80469 1.664067,-5.1211 0,-2.09765 -0.714849,-3.65625 -0.703125,-1.57031 -2.074218,-2.42578 -1.359375,-0.86718 -3.058594,-0.86718 -2.414063,0 -4.160156,1.66406 -1.734375,1.65234 -1.734375,5.53125 z"
           style="font-size:24px;font-family:Arial"
           id="path1672" />
        <path
           d="m 117.56516,468.22656 2.27343,0.57422 q -0.71484,2.80078 -2.57812,4.27734 -1.85156,1.46485 -4.53516,1.46485 -2.77734,0 -4.52344,-1.125 -1.73437,-1.13672 -2.64843,-3.28125 -0.90235,-2.14453 -0.90235,-4.60547 0,-2.68359 1.01953,-4.67578 1.03125,-2.00391 2.91797,-3.03516 1.89844,-1.04297 4.17188,-1.04297 2.57812,0 4.33594,1.3125 1.75781,1.3125 2.44921,3.69141 l -2.23828,0.52734 q -0.59765,-1.875 -1.73437,-2.73047 -1.13672,-0.85546 -2.85938,-0.85546 -1.98047,0 -3.3164,0.94921 -1.32422,0.94922 -1.86328,2.55469 -0.53907,1.59375 -0.53907,3.29297 0,2.19141 0.63282,3.83203 0.64453,1.62891 1.99218,2.4375 1.34766,0.8086 2.91797,0.8086 1.91016,0 3.23438,-1.10157 1.32422,-1.10156 1.79297,-3.26953 z"
           style="font-size:24px;font-family:Arial"
           id="path1674" />
        <path
           d="m 122.32297,474.25 v -17.17969 h 2.10937 V 474.25 Z"
           style="font-size:24px;font-family:Arial"
           id="path1676" />
        <path
           d="M 135.18137,478.15949 V 479.68 h -8.51661 q -0.0176,-0.57129 0.18457,-1.09863 0.3252,-0.87012 1.03711,-1.71387 0.72071,-0.84375 2.07422,-1.95117 2.10059,-1.72266 2.83887,-2.72461 0.73828,-1.01074 0.73828,-1.90723 0,-0.94043 -0.67676,-1.58203 -0.66797,-0.65039 -1.74902,-0.65039 -1.14258,0 -1.82812,0.68555 -0.68555,0.68554 -0.69434,1.89843 l -1.62598,-0.16699 q 0.16699,-1.81933 1.25684,-2.76855 1.08984,-0.95801 2.92676,-0.95801 1.85449,0 2.93554,1.02832 1.08106,1.02832 1.08106,2.54883 0,0.77344 -0.31641,1.52051 -0.3164,0.74707 -1.05469,1.57324 -0.72949,0.82617 -2.43457,2.26758 -1.42382,1.19531 -1.82812,1.62597 -0.4043,0.42188 -0.66797,0.85254 z"
           style="font-size:18px;font-family:Arial"
           id="path1678" />
      </g>
    </g>
    <g
       id="g647">
      <g
         aria-label="ethylester"
         id="text645"
         style="text-rendering:geometricPrecision">
        <path
           d="m 58.031563,439.77219 2.179687,0.26953 q -0.515625,1.91015 -1.910156,2.96484 -1.394531,1.05469 -3.5625,1.05469 -2.730469,0 -4.335937,-1.67578 -1.59375,-1.6875 -1.59375,-4.72266 0,-3.14062 1.617187,-4.875 1.617188,-1.73437 4.195313,-1.73437 2.496093,0 4.078125,1.69922 1.582031,1.69921 1.582031,4.78125 0,0.1875 -0.01172,0.5625 h -9.28125 q 0.117188,2.05078 1.160156,3.14062 1.042969,1.08984 2.601563,1.08984 1.160156,0 1.980469,-0.60937 0.820312,-0.60938 1.300782,-1.94531 z m -6.925781,-3.41016 H 58.055 q -0.140625,-1.57031 -0.796875,-2.35547 -1.007812,-1.21875 -2.613281,-1.21875 -1.453125,0 -2.449219,0.97266 -0.984375,0.97265 -1.089843,2.60156 z"
           style="font-size:24px;font-family:Arial"
           id="path1681" />
        <path
           d="m 67.465157,441.89328 0.304687,1.86328 q -0.890625,0.1875 -1.59375,0.1875 -1.148437,0 -1.78125,-0.36328 -0.632812,-0.36328 -0.890625,-0.94922 -0.257812,-0.59765 -0.257812,-2.49609 v -7.16016 h -1.546875 v -1.64062 h 1.546875 v -3.08203 l 2.097656,-1.26563 v 4.34766 h 2.121094 v 1.64062 h -2.121094 v 7.27735 q 0,0.90234 0.105469,1.16015 0.117187,0.25781 0.363281,0.41016 0.257812,0.15234 0.726562,0.15234 0.351563,0 0.925782,-0.082 z"
           style="font-size:24px;font-family:Arial"
           id="path1683" />
        <path
           d="m 69.527657,443.78 v -17.17969 h 2.109375 v 6.16406 q 1.476562,-1.71093 3.726562,-1.71093 1.382813,0 2.402344,0.55078 1.019531,0.53906 1.453125,1.5 0.445312,0.96094 0.445312,2.78906 V 443.78 H 77.555 v -7.88672 q 0,-1.58203 -0.691406,-2.29687 -0.679687,-0.72657 -1.933594,-0.72657 -0.9375,0 -1.769531,0.49219 -0.820312,0.48047 -1.171875,1.3125 -0.351562,0.83203 -0.351562,2.29688 V 443.78 Z"
           style="font-size:24px;font-family:Arial"
           id="path1685" />
        <path
           d="m 82.781563,448.57297 -0.234375,-1.98047 q 0.691406,0.1875 1.207031,0.1875 0.703125,0 1.125,-0.23438 0.421875,-0.23437 0.691406,-0.65625 0.199219,-0.3164 0.644532,-1.57031 0.05859,-0.17578 0.1875,-0.51562 L 81.68,431.33469 h 2.273438 l 2.589844,7.20703 q 0.503906,1.37109 0.902343,2.88281 0.363282,-1.45312 0.867188,-2.83594 l 2.660156,-7.2539 h 2.109375 l -4.734375,12.65625 q -0.761719,2.05078 -1.183594,2.82422 -0.5625,1.04296 -1.289062,1.52343 -0.726563,0.49219 -1.734375,0.49219 -0.609375,0 -1.359375,-0.25781 z"
           style="font-size:24px;font-family:Arial"
           id="path1687" />
        <path
           d="m 94.828438,443.78 v -17.17969 h 2.109375 V 443.78 Z"
           style="font-size:24px;font-family:Arial"
           id="path1689" />
        <path
           d="m 108.72688,439.77219 2.17968,0.26953 q -0.51562,1.91015 -1.91015,2.96484 -1.39453,1.05469 -3.5625,1.05469 -2.73047,0 -4.33594,-1.67578 -1.593751,-1.6875 -1.593751,-4.72266 0,-3.14062 1.617191,-4.875 1.61718,-1.73437 4.19531,-1.73437 2.49609,0 4.07812,1.69922 1.58204,1.69921 1.58204,4.78125 0,0.1875 -0.0117,0.5625 h -9.28125 q 0.11718,2.05078 1.16015,3.14062 1.04297,1.08984 2.60157,1.08984 1.16015,0 1.98046,-0.60937 0.82032,-0.60938 1.30079,-1.94531 z m -6.92579,-3.41016 h 6.94922 q -0.14062,-1.57031 -0.79687,-2.35547 -1.00781,-1.21875 -2.61328,-1.21875 -1.45313,0 -2.44922,0.97266 -0.98438,0.97265 -1.08985,2.60156 z"
           style="font-size:24px;font-family:Arial"
           id="path1691" />
        <path
           d="m 112.71125,440.06516 2.08594,-0.32813 q 0.17578,1.25391 0.97265,1.92188 0.8086,0.66796 2.25,0.66796 1.45313,0 2.15625,-0.58593 0.70313,-0.59766 0.70313,-1.39453 0,-0.71485 -0.62109,-1.125 -0.4336,-0.28125 -2.15625,-0.71485 -2.32032,-0.58594 -3.22266,-1.00781 -0.89063,-0.43359 -1.35938,-1.18359 -0.45703,-0.76172 -0.45703,-1.67579 0,-0.83203 0.375,-1.53515 0.38672,-0.71485 1.04297,-1.1836 0.49219,-0.36328 1.33594,-0.60937 0.85547,-0.25781 1.82812,-0.25781 1.46485,0 2.56641,0.42187 1.11328,0.42188 1.64063,1.14844 0.52734,0.71484 0.72656,1.92187 l -2.0625,0.28125 q -0.14063,-0.96093 -0.82031,-1.5 -0.66797,-0.53906 -1.89844,-0.53906 -1.45313,0 -2.07422,0.48047 -0.62109,0.48047 -0.62109,1.125 0,0.41016 0.25781,0.73828 0.25781,0.33985 0.80859,0.5625 0.31641,0.11719 1.86328,0.53906 2.23828,0.59766 3.11719,0.98438 0.89063,0.375 1.39453,1.10156 0.50391,0.72656 0.50391,1.80469 0,1.05469 -0.6211,1.99219 -0.60937,0.92578 -1.76953,1.4414 -1.16015,0.50391 -2.625,0.50391 -2.42578,0 -3.70312,-1.00781 -1.26563,-1.00782 -1.61719,-2.98828 z"
           style="font-size:24px;font-family:Arial"
           id="path1693" />
        <path
           d="m 130.16047,441.89328 0.30469,1.86328 q -0.89063,0.1875 -1.59375,0.1875 -1.14844,0 -1.78125,-0.36328 -0.63282,-0.36328 -0.89063,-0.94922 -0.25781,-0.59765 -0.25781,-2.49609 v -7.16016 h -1.54688 v -1.64062 h 1.54688 v -3.08203 l 2.09766,-1.26563 v 4.34766 h 2.12109 v 1.64062 h -2.12109 v 7.27735 q 0,0.90234 0.10546,1.16015 0.11719,0.25781 0.36329,0.41016 0.25781,0.15234 0.72656,0.15234 0.35156,0 0.92578,-0.082 z"
           style="font-size:24px;font-family:Arial"
           id="path1695" />
        <path
           d="m 140.7425,439.77219 2.17969,0.26953 q -0.51563,1.91015 -1.91016,2.96484 -1.39453,1.05469 -3.5625,1.05469 -2.73047,0 -4.33594,-1.67578 -1.59375,-1.6875 -1.59375,-4.72266 0,-3.14062 1.61719,-4.875 1.61719,-1.73437 4.19531,-1.73437 2.4961,0 4.07813,1.69922 1.58203,1.69921 1.58203,4.78125 0,0.1875 -0.0117,0.5625 h -9.28125 q 0.11719,2.05078 1.16016,3.14062 1.04297,1.08984 2.60156,1.08984 1.16016,0 1.98047,-0.60937 0.82031,-0.60938 1.30078,-1.94531 z m -6.92578,-3.41016 h 6.94922 q -0.14063,-1.57031 -0.79688,-2.35547 -1.00781,-1.21875 -2.61328,-1.21875 -1.45312,0 -2.44922,0.97266 -0.98437,0.97265 -1.08984,2.60156 z"
           style="font-size:24px;font-family:Arial"
           id="path1697" />
        <path
           d="m 145.54719,443.78 v -12.44531 h 1.89844 v 1.88672 q 0.72656,-1.32422 1.33593,-1.7461 0.6211,-0.42187 1.35938,-0.42187 1.0664,0 2.16797,0.67968 l -0.72657,1.95704 q -0.77343,-0.45704 -1.54687,-0.45704 -0.69141,0 -1.24219,0.42188 -0.55078,0.41016 -0.78515,1.14844 -0.35157,1.125 -0.35157,2.46093 V 443.78 Z"
           style="font-size:24px;font-family:Arial"
           id="path1699" />
      </g>
    </g>
  </g>
</svg>
