<?xml version="1.0" encoding="UTF-8" standalone="no"?>
<!-- Created with Inkscape (http://www.inkscape.org/) -->

<svg
   xmlns:dc="http://purl.org/dc/elements/1.1/"
   xmlns:cc="http://creativecommons.org/ns#"
   xmlns:rdf="http://www.w3.org/1999/02/22-rdf-syntax-ns#"
   xmlns:svg="http://www.w3.org/2000/svg"
   xmlns="http://www.w3.org/2000/svg"
   xmlns:sodipodi="http://sodipodi.sourceforge.net/DTD/sodipodi-0.dtd"
   xmlns:inkscape="http://www.inkscape.org/namespaces/inkscape"
   version="1.0"
   width="620"
   height="210.81"
   id="svg2"
   inkscape:version="0.48.1 r9760"
   sodipodi:docname="LDH_reaction.svg">
  <metadata
     id="metadata8">
    <rdf:RDF>
      <cc:Work
         rdf:about="">
        <dc:format>image/svg+xml</dc:format>
        <dc:type
           rdf:resource="http://purl.org/dc/dcmitype/StillImage" />
      </cc:Work>
    </rdf:RDF>
  </metadata>
  <sodipodi:namedview
     pagecolor="#ffffff"
     bordercolor="#666666"
     borderopacity="1"
     objecttolerance="10"
     gridtolerance="10"
     guidetolerance="10"
     inkscape:pageopacity="0"
     inkscape:pageshadow="2"
     inkscape:window-width="1366"
     inkscape:window-height="706"
     id="namedview6"
     showgrid="false"
     inkscape:zoom="1.9935484"
     inkscape:cx="310"
     inkscape:cy="105.405"
     inkscape:window-x="-8"
     inkscape:window-y="-8"
     inkscape:window-maximized="1"
     inkscape:current-layer="svg2" />
  <defs
     id="defs4" />
  <path
     inkscape:connector-curvature="0"
     style="fill:#000000"
     id="path2453"
     d="m 114.08053,167.99027 c -0.73325,-0.44706 -1.64582,-1.46848 -2.02795,-2.26981 -0.60392,-1.26643 -0.61659,-1.50644 -0.0969,-1.83515 1.01507,-0.64203 1.50013,-0.43921 2.03441,0.85066 0.60633,1.4638 1.51075,2.02729 3.25389,2.02729 2.40743,0 4.02027,-2.75058 2.87149,-4.89711 -0.48826,-0.91231 -2.86818,-1.7694 -3.85825,-1.38948 -0.56429,0.21654 -0.68266,0.0839 -0.57308,-0.64237 0.0973,-0.64502 0.60861,-1.07625 1.73157,-1.46047 2.42249,-0.82883 2.99762,-2.34124 1.47088,-3.86798 -1.52049,-1.52048 -4.6396,-0.5858 -5.3714,1.60961 -0.12014,0.36041 -0.48794,0.44417 -1.09888,0.25027 -1.16021,-0.36824 -0.88361,-1.55884 0.75366,-3.24409 1.62366,-1.67126 4.53576,-1.93682 6.50228,-0.59296 2.25569,1.54147 2.67468,4.39 0.87268,5.93292 -0.74554,0.63835 -0.72513,0.70296 0.62407,1.97542 4.30558,4.06068 -1.92601,10.70084 -7.0885,7.55325 z m 459.65271,0 c -0.73324,-0.44706 -1.6458,-1.46848 -2.02795,-2.26981 -0.60392,-1.26643 -0.61659,-1.50644 -0.0969,-1.83515 1.01507,-0.64203 1.50014,-0.43921 2.0344,0.85066 0.60633,1.4638 1.51077,2.02729 3.25389,2.02729 2.40744,0 4.02027,-2.75058 2.8715,-4.89711 -0.48825,-0.91231 -2.86819,-1.7694 -3.85826,-1.38948 -0.56429,0.21654 -0.68266,0.0839 -0.57308,-0.64237 0.0973,-0.64502 0.60863,-1.07625 1.73157,-1.46047 2.42251,-0.82883 2.99763,-2.34124 1.47089,-3.86798 -1.52049,-1.52048 -4.6396,-0.5858 -5.3714,1.60961 -0.12013,0.36041 -0.48793,0.44417 -1.09888,0.25027 -1.1602,-0.36824 -0.8836,-1.55884 0.75367,-3.24409 1.62365,-1.67126 4.53573,-1.93682 6.50226,-0.59296 2.25569,1.54147 2.67469,4.39 0.87269,5.93292 -0.74554,0.63835 -0.72515,0.70296 0.62407,1.97542 4.30557,4.06068 -1.92601,10.70084 -7.0885,7.55325 z M 71.7707,161.67692 c -2.57376,-0.91792 -3.91839,-2.27013 -5.50567,-5.53675 -0.9467,-1.94828 -1.09292,-2.76349 -1.09932,-6.1287 -0.008,-4.29072 0.83248,-6.86862 2.97673,-9.12833 2.43803,-2.56931 6.96582,-3.73359 10.64715,-2.7378 2.13403,0.57725 4.70229,2.88689 5.56412,5.00384 l 0.6162,1.5136 -1.5299,0.42288 c -0.84144,0.23259 -1.57659,0.28691 -1.63366,0.12072 -0.41473,-1.20767 -1.9463,-3.09888 -3.059,-3.7773 -2.95564,-1.80208 -7.48158,-0.40896 -9.29893,2.86227 -0.88884,1.59991 -1.02145,2.34252 -1.02145,5.72012 0,3.3776 0.13261,4.12021 1.02145,5.72012 1.36441,2.45595 3.88885,3.80211 6.66986,3.5567 2.45669,-0.21679 3.86707,-1.22661 5.17896,-3.70809 0.98333,-1.86 1.07482,-1.92236 2.45148,-1.67107 0.78652,0.14356 1.48879,0.3187 1.5606,0.3892 0.4324,0.42448 -1.92505,4.54161 -3.24978,5.67553 -2.61367,2.2372 -6.83292,2.93559 -10.28884,1.70306 z m 459.65271,0 c -2.57377,-0.91792 -3.9184,-2.27013 -5.50566,-5.53675 -0.94672,-1.94828 -1.09295,-2.76349 -1.09932,-6.1287 -0.008,-4.29072 0.83248,-6.86862 2.97671,-9.12833 2.43804,-2.56931 6.96584,-3.73359 10.64715,-2.7378 2.13405,0.57725 4.70231,2.88689 5.56412,5.00384 l 0.61618,1.5136 -1.52988,0.42288 c -0.84143,0.23259 -1.57659,0.28691 -1.63367,0.12072 -0.41471,-1.20767 -1.94627,-3.09888 -3.059,-3.7773 -2.95563,-1.80208 -7.48155,-0.40896 -9.29892,2.86227 -0.88882,1.59991 -1.02145,2.34252 -1.02145,5.72012 0,3.3776 0.13263,4.12021 1.02145,5.72012 1.36442,2.45595 3.88887,3.80211 6.66987,3.5567 2.45667,-0.21679 3.86709,-1.22661 5.17896,-3.70809 0.98333,-1.86 1.07481,-1.92236 2.45148,-1.67107 0.78652,0.14356 1.48878,0.3187 1.56061,0.3892 0.4324,0.42448 -1.92506,4.54161 -3.2498,5.67553 -2.61365,2.2372 -6.83289,2.93559 -10.28883,1.70306 z m -442.36314,-11.66545 0,-11.84882 1.63432,0 1.63432,0 0,4.90296 0,4.90296 6.1287,0 6.1287,0 0,-4.90296 0,-4.90296 1.63432,0 1.63432,0 0,11.84882 0,11.84883 -1.63432,0 -1.63432,0 0,-5.51584 0,-5.51583 -6.1287,0 -6.1287,0 0,5.51583 0,5.51584 -1.63432,0 -1.63432,0 z m 459.6527,0 0,-11.84882 1.63432,0 1.63432,0 0,4.90296 0,4.90296 6.12871,0 6.1287,0 0,-4.90296 0,-4.90296 1.63432,0 1.63432,0 0,11.84882 0,11.84883 -1.63432,0 -1.63432,0 0,-5.51584 0,-5.51583 -6.1287,0 -6.12871,0 0,5.51583 0,5.51584 -1.63432,0 -1.63432,0 z M 73.9428,123.24942 l 0,-12.05312 1.22574,0 1.22574,0 0,12.05312 0,12.05311 -1.22574,0 -1.22574,0 z m 459.65271,0 0,-12.05312 1.22574,0 1.22574,0 0,12.05312 0,12.05311 -1.22574,0 -1.22574,0 z M 17.26996,107.36048 c -2.60155,-0.85051 -4.83273,-2.84557 -6.12473,-5.47657 C 10.13467,99.82601 10,99.09534 10,95.67026 c 0,-3.42856 0.13415,-4.1547 1.14956,-6.22251 2.45866,-5.00685 7.55982,-7.11012 13.17873,-5.43376 4.32962,1.2917 6.99658,5.07672 7.40775,10.51323 0.57002,7.53694 -3.50108,12.83404 -10.1749,13.23906 -1.50948,0.0916 -3.28258,-0.0761 -4.29118,-0.4058 z m 7.94338,-3.77478 c 1.97632,-1.57541 2.99295,-3.65356 3.26727,-6.6788 0.42057,-4.63806 -1.30562,-8.38287 -4.54145,-9.85233 -4.22391,-1.91815 -8.95002,0.23965 -10.27154,4.68968 -2.17686,7.33028 1.46438,13.60933 7.66421,13.21634 1.85574,-0.11763 2.66303,-0.40358 3.88151,-1.37489 z m 46.55736,3.75001 c -2.57376,-0.91792 -3.91839,-2.27014 -5.50567,-5.53675 -0.9467,-1.94828 -1.09292,-2.76349 -1.09932,-6.1287 -0.008,-4.29073 0.83248,-6.86862 2.97673,-9.12833 2.43803,-2.56931 6.96582,-3.73359 10.64715,-2.73781 2.13403,0.57725 4.70229,2.88689 5.56412,5.00384 l 0.6162,1.5136 -1.5299,0.42289 c -0.84144,0.23258 -1.57659,0.28691 -1.63366,0.12072 -0.41473,-1.20767 -1.9463,-3.09888 -3.059,-3.7773 -2.95564,-1.80208 -7.48158,-0.40897 -9.29893,2.86226 -0.88884,1.59992 -1.02145,2.34253 -1.02145,5.72013 0,3.37759 0.13261,4.1202 1.02145,5.72012 1.36441,2.45595 3.88885,3.8021 6.66986,3.55669 2.45669,-0.21679 3.86707,-1.22661 5.17896,-3.70809 0.98333,-1.85999 1.07482,-1.92236 2.45148,-1.67107 0.78652,0.14356 1.48879,0.31871 1.5606,0.38921 0.4324,0.42447 -1.92505,4.54161 -3.24978,5.67552 -2.61367,2.23721 -6.83292,2.9356 -10.28884,1.70307 z m 405.15196,0.0248 c -2.60156,-0.85051 -4.83273,-2.84557 -6.1247,-5.47657 -1.01059,-2.0579 -1.14525,-2.78857 -1.14525,-6.21365 0,-3.42856 0.13413,-4.1547 1.14958,-6.22251 2.45863,-5.00685 7.55979,-7.11012 13.17871,-5.43376 4.3296,1.2917 6.99657,5.07672 7.40772,10.51323 0.57005,7.53694 -3.50104,12.83404 -10.17487,13.23906 -1.5095,0.0916 -3.28257,-0.0761 -4.29119,-0.4058 z m 7.94337,-3.77478 c 1.97634,-1.57541 2.99297,-3.65356 3.26729,-6.6788 0.42055,-4.63806 -1.30562,-8.38287 -4.54145,-9.85233 -4.2239,-1.91815 -8.95003,0.23965 -10.27154,4.68968 -2.17688,7.33028 1.46439,13.60933 7.66419,13.21634 1.85577,-0.11763 2.66304,-0.40358 3.88151,-1.37489 z m 46.55738,3.75001 c -2.57377,-0.91792 -3.9184,-2.27014 -5.50566,-5.53675 -0.94672,-1.94828 -1.09295,-2.76349 -1.09932,-6.1287 -0.008,-4.29073 0.83248,-6.86862 2.97671,-9.12833 2.43804,-2.56931 6.96584,-3.73359 10.64715,-2.73781 2.13405,0.57725 4.70231,2.88689 5.56412,5.00384 l 0.61618,1.5136 -1.52988,0.42289 c -0.84143,0.23258 -1.57659,0.28691 -1.63367,0.12072 -0.41471,-1.20767 -1.94627,-3.09888 -3.059,-3.7773 -2.95563,-1.80208 -7.48155,-0.40897 -9.29892,2.86226 -0.88882,1.59992 -1.02145,2.34253 -1.02145,5.72013 0,3.37759 0.13263,4.1202 1.02145,5.72012 1.36442,2.45595 3.88887,3.8021 6.66987,3.55669 2.45667,-0.21679 3.86709,-1.22661 5.17896,-3.70809 0.98333,-1.85999 1.07481,-1.92236 2.45148,-1.67107 0.78652,0.14356 1.48878,0.31871 1.56061,0.38921 0.4324,0.42447 -1.92506,4.54161 -3.2498,5.67552 -2.61365,2.23721 -6.83289,2.9356 -10.28883,1.70307 z m -84.4469,-11.66545 0,-11.84883 1.63432,0 1.63432,0 0,4.90296 0,4.90297 6.1287,0 6.1287,0 0,-4.90297 0,-4.90296 1.63432,0 1.63433,0 0,11.84883 0,11.84882 -1.63433,0 -1.63432,0 0,-5.51583 0,-5.51583 -6.1287,0 -6.1287,0 0,5.51583 0,5.51583 -1.63432,0 -1.63432,0 z m 101.73646,0 0,-11.84883 1.63432,0 1.63432,0 0,4.90296 0,4.90297 6.12871,0 6.1287,0 0,-4.90297 0,-4.90296 1.63432,0 1.63432,0 0,11.84883 0,11.84882 -1.63432,0 -1.63432,0 0,-5.51583 0,-5.51583 -6.1287,0 -6.12871,0 0,5.51583 0,5.51583 -1.63432,0 -1.63432,0 z m -356.9933,1.6598 c -6.34631,-1.69941 -11.54039,-3.18562 -11.54239,-3.3027 -0.003,-0.19972 22.31297,-5.7609 22.9825,-5.72716 0.17045,0.009 -0.26078,1.02685 -0.95831,2.2628 l -1.26824,2.24719 38.13911,-0.0218 38.1391,-0.0218 -5.31154,-1.75656 C 256.74856,85.99944 243.84009,77.89944 233.32753,66.8061 l -4.13035,-4.35854 -0.71197,1.69408 c -0.39158,0.93175 -0.82694,1.69595 -0.96745,1.69824 -0.29857,0.005 -7.06547,-17.53867 -6.84142,-17.73672 0.0831,-0.0734 3.44697,2.7391 7.47532,6.25006 l 7.32429,6.38356 -2.15345,0.20429 -2.15345,0.20429 4.66649,4.69867 c 7.92723,7.98192 14.93697,13.04629 24.62411,17.79034 7.03445,3.44496 13.64119,5.81488 20.28671,7.27709 7.9535,1.75001 11.1937,2.0061 22.62675,1.7883 9.43944,-0.17981 11.16307,-0.32051 15.61653,-1.27475 18.25005,-3.91044 33.67653,-12.26682 46.68149,-25.28694 l 4.98691,-4.99271 -2.15212,-0.20429 -2.15212,-0.20429 7.42065,-6.43915 c 4.08135,-3.54154 7.42065,-6.29368 7.42065,-6.11588 0,0.1778 -0.98108,2.89155 -2.18018,6.03057 -1.1991,3.13901 -2.68606,7.04029 -3.30436,8.66951 -0.6183,1.62921 -1.26287,2.9622 -1.43237,2.9622 -0.16951,0 -0.52853,-0.73544 -0.79784,-1.63432 -0.26931,-0.89887 -0.56251,-1.63432 -0.65155,-1.63432 -0.089,0 -2.60974,2.43804 -5.60157,5.41787 C 356.26618,78.91035 344.99,85.93192 330.70231,90.73697 l -6.09557,2.04999 38.1001,0.0117 c 20.95506,0.006 38.10011,-0.11134 38.10011,-0.26171 0,-0.15037 -0.55316,-1.25354 -1.22924,-2.45148 -0.67608,-1.19795 -1.01965,-2.17809 -0.76351,-2.17809 0.99905,0 22.42175,5.87076 22.42175,6.14455 0,0.15994 -5.1481,1.57838 -11.44024,3.15208 -6.29214,1.5737 -11.44025,2.78895 -11.44025,2.70055 0,-0.0884 0.56606,-1.16373 1.25791,-2.38962 l 1.25791,-2.22889 -99.91536,-1.4e-4 -99.91536,-1.5e-4 0.42091,1.10708 c 0.2315,0.60889 0.79746,1.71634 1.25768,2.461 0.46023,0.74466 0.76984,1.40169 0.68803,1.46007 -0.0818,0.0584 -5.34119,-1.28428 -11.68751,-2.9837 z m -156.59199,1.60884 0,-1.22574 13.48315,0 13.48314,0 0,1.22574 0,1.22574 -13.48314,0 -13.48315,0 z m 460.06129,-4.0858 0,-1.22574 13.27885,0 13.27886,0 0,1.22574 0,1.22574 -13.27886,0 -13.27885,0 z m -460.06129,-4.08581 0,-1.22574 13.48315,0 13.48314,0 0,1.22574 0,1.22574 -13.48314,0 -13.48315,0 z m 38.81512,-21.45046 0,-12.05311 1.22574,0 1.22574,0 0,12.05311 0,12.05312 -1.22574,0 -1.22574,0 z m 459.65271,0 0,-12.05311 1.22574,0 1.22574,0 0,12.05311 0,12.05312 -1.22574,0 -1.22574,0 z M 71.7707,53.40317 c -2.57376,-0.91792 -3.91839,-2.27013 -5.50567,-5.53675 -0.9467,-1.94828 -1.09292,-2.76348 -1.09932,-6.1287 -0.008,-4.29072 0.83248,-6.86862 2.97673,-9.12833 2.43803,-2.56931 6.96582,-3.73358 10.64715,-2.7378 2.13403,0.57725 4.70229,2.88689 5.56412,5.00384 l 0.6162,1.5136 -1.5299,0.42288 c -0.84144,0.23259 -1.57659,0.28692 -1.63366,0.12073 -0.41473,-1.20768 -1.9463,-3.09889 -3.059,-3.77731 -2.95564,-1.80207 -7.48158,-0.40896 -9.29893,2.86227 -0.88884,1.59991 -1.02145,2.34252 -1.02145,5.72012 0,3.3776 0.13261,4.12021 1.02145,5.72012 1.36441,2.45596 3.88885,3.80211 6.66986,3.5567 2.45669,-0.21679 3.86707,-1.22661 5.17896,-3.70809 0.98333,-1.86 1.07482,-1.92236 2.45148,-1.67107 0.78652,0.14356 1.48879,0.3187 1.5606,0.3892 0.4324,0.42448 -1.92505,4.54161 -3.24978,5.67553 -2.61367,2.2372 -6.83292,2.93559 -10.28884,1.70306 z m 23.94665,0.0248 C 93.1158,52.57747 90.88462,50.5824 89.59263,47.9514 88.58206,45.8935 88.4474,45.16283 88.4474,41.73775 c 0,-3.42855 0.13414,-4.15469 1.14956,-6.22251 2.45866,-5.00684 7.55982,-7.11012 13.17873,-5.43376 4.32961,1.29171 6.99658,5.07673 7.40774,10.51324 0.57002,7.53694 -3.50107,12.83403 -10.17489,13.23906 -1.50948,0.0916 -3.28259,-0.0761 -4.29119,-0.40581 z m 7.94339,-3.77477 c 1.97631,-1.57542 2.99295,-3.65357 3.26727,-6.6788 0.42056,-4.63806 -1.30562,-8.38288 -4.54146,-9.85233 -4.22391,-1.91816 -8.95002,0.23965 -10.27154,4.68968 -2.17686,7.33028 1.46439,13.60932 7.66421,13.21634 1.85574,-0.11763 2.66304,-0.40359 3.88152,-1.37489 z m 17.79716,3.77477 c -2.60154,-0.8505 -4.83273,-2.84557 -6.12472,-5.47657 -1.01057,-2.0579 -1.14523,-2.78857 -1.14523,-6.21365 0,-3.42855 0.13415,-4.15469 1.14956,-6.22251 2.45866,-5.00684 7.55982,-7.11012 13.17873,-5.43376 4.32961,1.29171 6.99658,5.07673 7.40774,10.51324 0.57002,7.53694 -3.50107,12.83403 -10.17489,13.23906 -1.50948,0.0916 -3.28259,-0.0761 -4.29119,-0.40581 z m 7.94339,-3.77477 c 1.97632,-1.57542 2.99295,-3.65357 3.26727,-6.6788 0.42056,-4.63806 -1.30562,-8.38288 -4.54145,-9.85233 -4.22391,-1.91816 -8.95003,0.23965 -10.27155,4.68968 -2.17686,7.33028 1.46439,13.60932 7.66422,13.21634 1.85573,-0.11763 2.66303,-0.40359 3.88151,-1.37489 z m 402.02212,3.75 c -2.57377,-0.91792 -3.9184,-2.27013 -5.50566,-5.53675 -0.94672,-1.94828 -1.09295,-2.76348 -1.09932,-6.1287 -0.008,-4.29072 0.83248,-6.86862 2.97671,-9.12833 2.43804,-2.56931 6.96584,-3.73358 10.64715,-2.7378 2.13405,0.57725 4.70231,2.88689 5.56412,5.00384 l 0.61618,1.5136 -1.52988,0.42288 c -0.84143,0.23259 -1.57659,0.28692 -1.63367,0.12073 -0.41471,-1.20768 -1.94627,-3.09889 -3.059,-3.77731 -2.95563,-1.80207 -7.48155,-0.40896 -9.29892,2.86227 -0.88882,1.59991 -1.02145,2.34252 -1.02145,5.72012 0,3.3776 0.13263,4.12021 1.02145,5.72012 1.36442,2.45596 3.88887,3.80211 6.66987,3.5567 2.45667,-0.21679 3.86709,-1.22661 5.17896,-3.70809 0.98333,-1.86 1.07481,-1.92236 2.45148,-1.67107 0.78652,0.14356 1.48878,0.3187 1.56061,0.3892 0.4324,0.42448 -1.92506,4.54161 -3.2498,5.67553 -2.61365,2.2372 -6.83289,2.93559 -10.28883,1.70306 z m 23.94664,0.0248 c -2.60155,-0.8505 -4.83273,-2.84557 -6.1247,-5.47657 -1.01058,-2.0579 -1.14525,-2.78857 -1.14525,-6.21365 0,-3.42855 0.13414,-4.15469 1.14958,-6.22251 2.45863,-5.00684 7.5598,-7.11012 13.17872,-5.43376 4.3296,1.29171 6.99656,5.07673 7.40772,10.51324 0.57005,7.53694 -3.50104,12.83403 -10.17487,13.23906 -1.5095,0.0916 -3.28258,-0.0761 -4.2912,-0.40581 z m 7.94337,-3.77477 c 1.97635,-1.57542 2.99297,-3.65357 3.2673,-6.6788 0.42055,-4.63806 -1.30562,-8.38288 -4.54146,-9.85233 -4.2239,-1.91816 -8.95003,0.23965 -10.27154,4.68968 -2.17687,7.33028 1.46439,13.60932 7.66419,13.21634 1.85577,-0.11763 2.66304,-0.40359 3.88151,-1.37489 z M 581.1106,53.428 c -2.60155,-0.8505 -4.83272,-2.84557 -6.1247,-5.47657 -1.01058,-2.0579 -1.14525,-2.78857 -1.14525,-6.21365 0,-3.42855 0.13414,-4.15469 1.14958,-6.22251 2.45864,-5.00684 7.5598,-7.11012 13.17872,-5.43376 4.3296,1.29171 6.99657,5.07673 7.40772,10.51324 0.57005,7.53694 -3.50104,12.83403 -10.17487,13.23906 -1.5095,0.0916 -3.28258,-0.0761 -4.2912,-0.40581 z m 7.94337,-3.77477 c 1.97635,-1.57542 2.99298,-3.65357 3.2673,-6.6788 0.42055,-4.63806 -1.30562,-8.38288 -4.54145,-9.85233 -4.22391,-1.91816 -8.95003,0.23965 -10.27155,4.68968 -2.17687,7.33028 1.4644,13.60932 7.66419,13.21634 1.85577,-0.11763 2.66305,-0.40359 3.88151,-1.37489 z M 138.08989,34.58763 c 0,-0.51754 0.95335,-0.61287 6.1287,-0.61287 5.17535,0 6.1287,0.0953 6.1287,0.61287 0,0.51753 -0.95335,0.61287 -6.1287,0.61287 -5.17535,0 -6.1287,-0.0953 -6.1287,-0.61287 z m 459.6527,0 c 0,-0.51754 0.95334,-0.61287 6.12871,-0.61287 5.17536,0 6.1287,0.0953 6.1287,0.61287 0,0.51753 -0.95334,0.61287 -6.1287,0.61287 -5.17537,0 -6.12871,-0.0953 -6.12871,-0.61287 z"
     sodipodi:nodetypes="csssssscssssssssccccscsssccsccssssccsscssscssssssssscsssccssscscccssssscsscccccccccccccccccccccccccccccccccccccccccccccccccccccccccccccccccccccsssssscsssssssscssscssssssssscssccscssscsssssssccssscscccscssscsscccccccccccccccccccccccccccccccccccccccccccccccccccccscccsscsccscccsssssscccsssssssssccssssssscccssccccccccccccccccccccccccccccccccccccccccccccccccsscssscssssssssscsscsssssscsssssscsssssscsssssssccssscscccssssscssccssssscsssssscsssssscssssssssssssssss" />
  <text
     xml:space="preserve"
     style="font-size:28px;font-style:normal;font-weight:normal;line-height:125%;letter-spacing:0px;word-spacing:0px;fill:#000000;fill-opacity:1;stroke:none;font-family:Microsoft YaHei;-inkscape-font-specification:Microsoft YaHei;font-stretch:normal;font-variant:normal"
     x="31.11327"
     y="199.80029"
     id="text2986"
     sodipodi:linespacing="125%"><tspan
       sodipodi:role="line"
       id="tspan2988"
       x="31.11327"
       y="199.80029">丙酮酸</tspan></text>
  <text
     xml:space="preserve"
     style="font-size:28px;font-style:normal;font-variant:normal;font-weight:normal;font-stretch:normal;line-height:125%;letter-spacing:0px;word-spacing:0px;fill:#000000;fill-opacity:1;stroke:none;font-family:Microsoft YaHei;-inkscape-font-specification:Microsoft YaHei"
     x="513.11328"
     y="199.80029"
     id="text2986-1"
     sodipodi:linespacing="125%"><tspan
       sodipodi:role="line"
       id="tspan2988-7"
       x="513.11328"
       y="199.80029">乳酸</tspan></text>
  <text
     xml:space="preserve"
     style="font-size:28px;font-style:normal;font-variant:normal;font-weight:normal;font-stretch:normal;line-height:125%;letter-spacing:0px;word-spacing:0px;fill:#000000;fill-opacity:1;stroke:none;font-family:Microsoft YaHei;-inkscape-font-specification:Microsoft YaHei"
     x="159.60518"
     y="36.246891"
     id="text3011"
     sodipodi:linespacing="125%"><tspan
       sodipodi:role="line"
       id="tspan3013"
       x="159.60518"
       y="36.246891">NADH,H<tspan
   style="font-size:28px;font-style:normal;font-variant:normal;font-weight:normal;font-stretch:normal;baseline-shift:super;font-family:Microsoft YaHei;-inkscape-font-specification:Microsoft YaHei"
   id="tspan3036" /></tspan></text>
  <text
     xml:space="preserve"
     style="font-size:28px;font-style:normal;font-variant:normal;font-weight:normal;font-stretch:normal;line-height:125%;letter-spacing:0px;word-spacing:0px;fill:#000000;fill-opacity:1;stroke:none;font-family:Microsoft YaHei;-inkscape-font-specification:Microsoft YaHei"
     x="353.60516"
     y="36.246891"
     id="text3011-4"
     sodipodi:linespacing="125%"><tspan
       sodipodi:role="line"
       id="tspan3013-0"
       x="353.60516"
       y="36.246891">NAD<tspan
   style="font-size:28px;font-style:normal;font-variant:normal;font-weight:normal;font-stretch:normal;baseline-shift:super;font-family:Microsoft YaHei;-inkscape-font-specification:Microsoft YaHei"
   id="tspan3038" /></tspan></text>
  <text
     xml:space="preserve"
     style="font-size:28px;font-style:normal;font-variant:normal;font-weight:normal;font-stretch:normal;line-height:125%;letter-spacing:0px;word-spacing:0px;fill:#000000;fill-opacity:1;stroke:none;font-family:Microsoft YaHei;-inkscape-font-specification:Microsoft YaHei"
     x="230.70462"
     y="129.77882"
     id="text2986-9"
     sodipodi:linespacing="125%"><tspan
       sodipodi:role="line"
       id="tspan2988-4"
       x="230.70462"
       y="129.77882">乳酸脱氢酶</tspan></text>
  <text
     xml:space="preserve"
     style="font-size:40px;font-style:normal;font-weight:normal;line-height:125%;letter-spacing:0px;word-spacing:0px;fill:#000000;fill-opacity:1;stroke:none;font-family:Sans"
     x="270.41101"
     y="21.712912"
     id="text2994"
     sodipodi:linespacing="125%"><tspan
       sodipodi:role="line"
       id="tspan2996"
       x="270.41101"
       y="21.712912"
       style="font-size:20px;font-style:normal;font-variant:normal;font-weight:normal;font-stretch:normal;font-family:Microsoft YaHei;-inkscape-font-specification:Microsoft YaHei">+</tspan></text>
  <text
     xml:space="preserve"
     style="font-size:40px;font-style:normal;font-weight:normal;line-height:125%;letter-spacing:0px;word-spacing:0px;fill:#000000;fill-opacity:1;stroke:none;font-family:Sans"
     x="414.41101"
     y="21.712914"
     id="text2994-1"
     sodipodi:linespacing="125%"><tspan
       sodipodi:role="line"
       id="tspan2996-7"
       x="414.41101"
       y="21.712914"
       style="font-size:20px;font-style:normal;font-variant:normal;font-weight:normal;font-stretch:normal;font-family:Microsoft YaHei;-inkscape-font-specification:Microsoft YaHei">+</tspan></text>
</svg>
