<?xml version="1.0" encoding="UTF-8" standalone="no"?>
<!-- Created with Inkscape (http://www.inkscape.org/) -->

<svg
   xmlns:dc="http://purl.org/dc/elements/1.1/"
   xmlns:cc="http://creativecommons.org/ns#"
   xmlns:rdf="http://www.w3.org/1999/02/22-rdf-syntax-ns#"
   xmlns:svg="http://www.w3.org/2000/svg"
   xmlns="http://www.w3.org/2000/svg"
   xmlns:sodipodi="http://sodipodi.sourceforge.net/DTD/sodipodi-0.dtd"
   xmlns:inkscape="http://www.inkscape.org/namespaces/inkscape"
   id="svg2"
   version="1.1"
   inkscape:version="0.48.2 r9819"
   width="620"
   height="850"
   sodipodi:docname="Caué District.svg">
  <metadata
     id="metadata8">
    <rdf:RDF>
      <cc:Work
         rdf:about="">
        <dc:format>image/svg+xml</dc:format>
        <dc:type
           rdf:resource="http://purl.org/dc/dcmitype/StillImage" />
        <dc:title></dc:title>
      </cc:Work>
    </rdf:RDF>
  </metadata>
  <defs
     id="defs6" />
  <sodipodi:namedview
     pagecolor="#ffffff"
     bordercolor="#666666"
     borderopacity="1"
     objecttolerance="10"
     gridtolerance="10"
     guidetolerance="10"
     inkscape:pageopacity="0"
     inkscape:pageshadow="2"
     inkscape:window-width="1366"
     inkscape:window-height="706"
     id="namedview4"
     showgrid="false"
     inkscape:zoom="0.5549743"
     inkscape:cx="292.69259"
     inkscape:cy="324.59216"
     inkscape:window-x="-8"
     inkscape:window-y="-8"
     inkscape:window-maximized="1"
     inkscape:current-layer="svg2" />
  <path
     style="fill:#ffd5d5;fill-opacity:1;stroke:#ffd5d5;stroke-width:2.58844900000000020;stroke-opacity:1"
     d="m 538.67134,171.58135 c -0.42338,-0.55818 -0.76977,-1.33415 -0.76977,-1.72437 0,-3.98105 -6.37827,-7.51129 -10.67884,-5.91049 -1.79423,0.66788 -2.90645,0.30828 -3.75732,-1.21484 -1.72904,-3.09516 -4.57141,-4.55611 -9.73684,-5.00467 -4.85349,-0.42146 -8.90928,-2.19601 -12.67523,-5.54588 -3.63935,-3.23728 -8.22929,-4.68662 -12.701,-4.01055 -3.3777,0.51068 -4.98634,1.51257 -6.84688,4.26438 -0.41595,0.61519 -0.7926,0.85608 -1.01385,0.64837 -0.19369,-0.18183 -0.49394,-3.0595 -0.66737,-6.39494 -0.44625,-8.58303 -2.18683,-14.91226 -6.85682,-24.93332 -3.78171,-8.11494 -4.42092,-9.75326 -4.58788,-11.75907 -0.15362,-1.84465 -0.097,-2.01665 0.85367,-2.60148 0.56184,-0.3456 1.95679,-0.68832 3.1128,-0.76479 1.79818,-0.11888 2.41083,0.0176 4.32758,0.96881 1.22806,0.60904 3.15423,1.33586 4.28034,1.61517 3.03747,0.75335 9.65462,0.99507 14.05751,0.51353 7.51374,-0.82176 9.11711,-1.73442 10.48406,-5.9675 1.05701,-3.2732 1.57597,-4.218512 3.30213,-6.014782 l 1.37472,-1.43055 -0.0187,-4.92556 c -0.0214,-5.42462 -0.5585,-8.06623 -2.31469,-11.38992 -0.7894,-1.49401 -1.34688,-2.06713 -2.50428,-2.57455 -1.68171,-0.73727 -2.03327,-1.11695 -2.04142,-2.20467 -0.008,-1.08911 1.57562,-2.10756 3.70501,-2.38251 2.14136,-0.27648 3.56695,-1.39923 3.9163,-3.08439 0.12663,-0.61057 0.3134,-1.5228 0.41513,-2.02718 0.20998,-1.04135 1.4776,-2.27314 2.52624,-2.45497 1.43499,-0.24879 2.26131,-1.90326 2.38524,-4.77568 0.13866,-3.215368 -0.61954,-4.914403 -2.44965,-5.488857 -0.62807,-0.197128 -1.50709,-0.668679 -1.95339,-1.047862 -2.99512,-2.544653 -5.63429,-10.957416 -4.3457,-13.85266 0.93447,-2.099636 4.4964,-3.191914 12.95167,-3.971672 2.98767,-0.275527 6.58873,-0.834282 8.00241,-1.241654 2.36435,-0.681344 2.82371,-0.985413 5.73401,-3.795611 3.65316,-3.527508 4.69868,-4.250911 7.25797,-5.021766 2.8687,-0.864026 5.41744,-1.053329 7.84599,-0.582755 2.87097,0.556321 4.45955,1.33944 7.07406,3.487329 2.53383,2.081578 5.25891,2.998348 10.40028,3.498841 3.43928,0.334817 8.00815,0.04891 10.90079,-0.682473 2.11534,-0.534727 3.80172,-1.734122 4.88496,-3.474288 1.58599,-2.547813 1.6622,-2.547562 6.4083,0.02257 4.90045,2.652546 8.26004,3.9649 11.03049,4.308846 2.50111,0.310488 3.2234,1.145322 2.65701,3.071029 -0.20971,0.712669 -0.7751,1.725795 -1.25661,2.251343 l -0.87553,0.955543 -2.55005,-1.62051 c -3.30848,-2.102495 -4.76792,-2.50929 -8.27503,-2.306495 -4.24124,0.245282 -6.74387,1.964004 -6.74387,4.631599 0,2.830237 -2.27579,4.840162 -7.33357,6.476874 -3.53689,1.144519 -6.06578,2.692398 -6.06578,3.712672 0,0.901621 -1.42685,3.155322 -3.65319,5.770199 -1.20156,1.411219 -2.61341,3.273448 -3.13748,4.138252 -1.50755,2.487826 -2.9231,6.605136 -3.15466,9.175896 -0.28513,3.16523 0.23643,3.7528 3.33197,3.7528 1.9399,0 2.33461,-0.12239 3.29216,-1.0214 0.59839,-0.56177 1.08796,-1.25126 1.08796,-1.53221 0,-1.50416 5.44063,-2.72367 9.00336,-2.0181 2.35818,0.46701 4.02381,1.49158 4.02381,2.47516 0,0.96116 1.59995,1.96796 3.52001,2.21503 2.50752,0.32265 4.26774,1.31659 6.39182,3.60924 2.17005,2.34226 4.48057,3.64588 7.95052,4.48581 1.32872,0.32162 2.54569,0.66013 2.70438,0.75219 0.59059,0.34264 -1.11604,2.35902 -4.00363,4.73027 -4.74086,3.89314 -9.26367,5.75123 -15.11163,6.20827 -5.40996,0.42279 -6.04877,0.73052 -7.61156,3.66662 -0.7205,1.35366 -2.58555,3.954972 -4.14456,5.780712 -4.9245,5.76704 -5.44362,7.70844 -4.39391,16.43242 1.17388,9.75599 0.17552,22.78812 -2.1641,28.24567 -1.16522,2.71826 -2.07169,3.22429 -6.464,3.60849 -8.75696,0.76596 -13.34755,1.84427 -14.81329,3.47961 -1.14388,1.27621 -1.22114,3.21523 -0.38024,9.54441 0.95565,7.19288 0.65505,9.27301 -1.34007,9.27301 -0.71377,0 -1.26867,-0.31263 -1.80128,-1.01486 l 0,0 z"
     id="path3869"
     inkscape:connector-curvature="0"
     sodipodi:nodetypes="cssssssscsscccccsssccsscscccccssssssssscscscccsssssscsscsssssscssssscssssccc" />
  <path
     style="fill:#ffd5d5;fill-opacity:1;stroke:#ffd5d5;stroke-width:2.81346250000000000;stroke-linecap:round;stroke-linejoin:miter;stroke-miterlimit:4;stroke-opacity:1;stroke-dasharray:none;stroke-dashoffset:0"
     d="m 225.20828,622.49912 c -6.55988,-1.2708 -18.68269,-1.51468 -27.87482,-0.56074 -6.60668,0.68564 -8.89829,0.39855 -16.01319,-2.00624 -4.56671,-1.54351 -13.25817,-3.6062 -19.31434,-4.58374 -14.01313,-2.2619 -16.52287,-3.38488 -19.40084,-8.68089 l -2.34693,-4.31883 3.59486,-9.74762 c 2.76975,-7.51029 3.78059,-12.61848 4.40407,-22.25519 1.04589,-16.16653 1.90557,-17.33332 13.51746,-18.34649 11.09995,-0.96849 16.35248,-3.6358 27.84888,-14.14203 10.6623,-9.74403 14.93512,-11.44264 27.28845,-10.84832 6.92454,0.33316 7.12073,0.42934 7.51176,3.68277 0.56756,4.72257 1.86507,5.76102 8.01077,6.41132 3.66389,0.38771 6.4672,1.5242 8.68919,3.52272 2.21237,1.98986 5.31352,3.25208 9.52582,3.87722 4.41069,0.65456 6.99245,1.74774 8.78775,3.721 3.29654,3.62331 3.81748,3.76656 25.58083,7.03485 10.16236,1.52613 20.92624,3.52643 23.91975,4.4451 6.05155,1.85719 12.41809,7.29488 11.41478,9.74947 -0.75325,1.84277 -16.01862,5.80895 -26.25306,6.82097 -7.97358,0.78844 -14.38441,3.32461 -21.85329,8.64528 -5.03692,3.5882 -5.4814,3.68373 -19.68653,4.2315 -15.88257,0.61245 -17.64663,1.25901 -20.41812,7.48348 -2.1306,4.78506 -2.02758,17.23192 0.1838,22.20042 0.97857,2.19872 1.77924,4.18705 1.77924,4.41849 0,0.59921 -3.39469,0.31129 -8.89623,-0.7545 l 0,0 z"
     id="path3883"
     inkscape:connector-curvature="0" />
  <path
     style="fill:#ffd5d5;fill-opacity:1;stroke:#ffd5d5;stroke-width:2.81346250000000000;stroke-linecap:round;stroke-linejoin:miter;stroke-miterlimit:4;stroke-opacity:1;stroke-dasharray:none;stroke-dashoffset:0"
     d="m 69.227922,830.73224 c 0,-12.66666 4.0498,-31.7662 7.48614,-35.30583 4.05538,-4.1773 4.17074,-13.98132 0.26689,-22.6758 -6.01728,-13.40102 -4.94857,-12.24562 -18.35872,-19.84825 -3.42729,-1.94304 -4.81433,-3.47971 -4.81433,-5.33379 0,-4.68755 4.4428,-10.9215 12.23269,-17.16445 9.4163,-7.54636 13.91432,-12.29684 18.9621,-20.02642 2.14425,-3.28346 7.16238,-10.58922 11.1514,-16.23507 7.554448,-10.69213 11.802688,-20.71401 15.238098,-35.94775 2.62682,-11.64826 3.59818,-31.8912 1.8441,-38.43092 -1.1723,-4.37072 -1.11211,-5.6674 0.36113,-7.77822 2.06459,-2.95812 10.58566,-7.08019 16.49795,-7.98089 3.94061,-0.60033 4.30992,-0.35814 8.23338,5.39985 4.62708,6.79057 6.6396,7.65457 22.82687,9.79988 12.48955,1.65524 16.28251,2.85331 19.63286,6.20132 2.61681,2.61498 2.83208,3.92171 3.61784,21.96058 0.4595,10.54906 1.23135,20.18234 1.71521,21.40726 1.61951,4.09991 8.18091,9.577 15.36362,12.82474 13.98183,6.32206 28.58573,23.60298 27.64112,32.70803 -0.30656,2.95481 -1.36099,3.96347 -7.17264,6.86109 -3.74731,1.8684 -7.48374,4.23093 -8.30316,5.25005 -0.8194,1.01914 -3.62495,2.4971 -6.23452,3.28436 -4.44684,1.34149 -4.76747,1.72715 -5.10835,6.14426 -0.32985,4.27386 0.14773,5.22622 5.12595,10.22265 l 5.48971,5.5097 -2.75367,1.681 c -1.5145,0.92452 -6.57369,2.49239 -11.24263,3.48412 -9.2578,1.96646 -18.35575,6.59605 -28.00604,14.2512 -3.41374,2.70795 -7.80814,5.28385 -9.7653,5.72418 -4.27105,0.96096 -7.69537,3.65158 -7.74952,6.08914 -0.0315,1.42082 -0.45664,1.30764 -2.12488,-0.56588 -1.14701,-1.2881 -3.22925,-2.91671 -4.62722,-3.61907 -3.10288,-1.55899 -18.63163,-1.69324 -21.62956,-0.1871 -2.61648,1.31459 -4.79143,6.7498 -4.79143,11.97383 0,2.10267 -1.53979,7.16421 -3.42175,11.24787 -1.88196,4.08365 -3.78057,9.93032 -4.21912,12.99262 -1.60479,11.20561 -2.47033,11.73953 -7.33311,4.52355 -1.83163,-2.71795 -4.57462,-5.47403 -6.095548,-6.1246 -3.79296,-1.62241 -12.77693,-1.49032 -14.22373,0.20917 -0.65179,0.76556 -1.57233,4.39855 -2.04567,8.07333 -0.75213,5.83899 -1.44984,7.20785 -5.53405,10.85725 -6.50541,5.81281 -8.132,5.52135 -8.132,-1.45704 z m 81.845218,-99.04213 c 0,-0.61245 -0.83217,-1.11354 -1.84927,-1.11354 -1.01706,0 -1.51935,0.50109 -1.11615,1.11354 0.40321,0.61248 1.23536,1.11357 1.84927,1.11357 0.61388,0 1.11615,-0.50109 1.11615,-1.11357 z"
     id="path3877"
     inkscape:connector-curvature="0" />
  <path
     style="fill:#ffd5d5;fill-opacity:1;stroke:#ffd5d5;stroke-width:2.81346250000000000;stroke-linecap:round;stroke-linejoin:miter;stroke-miterlimit:4;stroke-opacity:1;stroke-dasharray:none;stroke-dashoffset:0"
     d="m 154.63162,548.01273 c -2.77283,-0.66494 -3.02926,-1.33878 -3.94855,-10.37629 l -0.98314,-9.66515 4.24509,-6.45666 c 5.15753,-7.84445 5.41768,-12.25139 1.38089,-23.39357 l -2.86416,-7.90564 7.04291,-5.75082 c 3.87359,-3.16297 9.13857,-8.64793 11.69992,-12.18883 5.00317,-6.9166 6.8025,-7.79545 16.04651,-7.83774 3.26195,-0.015 13.31157,-0.76245 22.33248,-1.66119 l 16.40166,-1.63407 10.28699,3.69436 c 5.65785,2.03192 12.82344,4.56827 15.92352,5.63637 4.36682,1.50454 5.79444,2.61089 6.33758,4.91139 1.42818,6.04886 1.98594,7.46497 3.637,9.23428 0.9293,0.99585 2.00089,3.75192 2.38131,6.1246 0.38042,2.37268 1.90953,5.41876 3.39806,6.76906 3.69292,3.34994 5.717,9.61085 4.72208,14.60618 -0.44873,2.25305 -1.1699,10.7558 -1.6026,18.89497 -0.60349,11.35217 -1.20108,15.04368 -2.56594,15.85125 -2.86481,1.695 -4.52733,1.25966 -5.41768,-1.41869 -1.08666,-3.26896 -2.63156,-4.13808 -7.39248,-4.15882 -4.05528,-0.0176 -10.91311,-2.7331 -10.91311,-4.32116 0,-1.4823 -5.74972,-3.49084 -9.99293,-3.49084 -4.74599,0 -6.29041,-1.51563 -6.81295,-6.68587 l -0.39346,-3.89299 -11.3645,0.12991 c -6.2505,0.0715 -13.33637,0.74081 -15.7464,1.48751 -2.54121,0.78736 -8.72689,5.13671 -14.7257,10.35412 -12.95466,11.26723 -22.36361,15.24231 -31.1124,13.14436 z"
     id="path3881"
     inkscape:connector-curvature="0" />
  <path
     style="fill:#ff2a2a;fill-opacity:1;stroke:#ff2a2a;stroke-width:2.81346250000000000;stroke-linecap:round;stroke-linejoin:miter;stroke-miterlimit:4;stroke-opacity:1;stroke-dasharray:none;stroke-dashoffset:0"
     d="m 48.930162,730.22868 c -4.73269,-5.63637 -4.80257,-5.86304 -5.68721,-18.44827 -0.74682,-10.62445 -1.20092,-12.41428 -4.03457,-15.90198 -1.75616,-2.16154 -3.19302,-4.47076 -3.19302,-5.13159 0,-0.66086 -1.93,-3.57526 -4.2889,-6.47645 -4.91215,-6.04139 -6.38655,-10.02136 -6.38655,-17.23965 0,-2.80413 -0.86674,-7.48646 -1.9261,-10.4052 -1.58216,-4.35921 -1.82818,-8.71919 -1.37776,-24.41838 0.6536,-22.7824 1.09966,-24.05264 12.49887,-35.59427 6.93376,-7.02036 8.59909,-9.50356 10.70334,-15.9598 1.37058,-4.20521 3.9229,-12.03256 5.67179,-17.39408 2.03718,-6.24519 4.30135,-10.79117 6.30075,-12.65046 4.44996,-4.13813 17.68814,-11.6358 23.18057,-13.12868 3.48593,-0.94749 5.30204,-2.33544 7.18285,-5.48938 2.56998,-4.3097 12.799738,-13.17719 19.844568,-17.20198 2.18173,-1.24644 7.33454,-2.58493 11.62795,-3.02046 11.16978,-1.13309 16.57173,-3.71508 21.82292,-10.43084 2.46109,-3.14748 5.25993,-5.72268 6.21964,-5.72268 1.84717,0 5.88172,7.51664 7.09735,13.22291 0.56409,2.64778 -0.0783,4.5389 -2.89982,8.53809 -4.15391,5.88739 -4.44467,7.6402 -6.18045,37.25791 -1.30916,22.33811 -1.61355,24.65318 -4.2761,32.51983 -2.35521,6.95861 -7.79948,11.25255 -18.28784,14.4238 -4.66491,1.41049 -9.83171,3.73913 -11.48179,5.17478 -2.82523,2.4581 -2.95272,3.04367 -2.1868,10.04481 0.44731,4.089 1.10295,10.1906 1.45693,13.55913 0.40855,3.88762 -0.0484,8.62363 -1.25101,12.96671 -1.04207,3.76318 -1.89465,8.8467 -1.89465,11.29675 0,8.88735 -10.438968,33.38164 -17.184918,40.32325 -1.48799,1.53115 -5.68881,7.3486 -9.33513,12.92766 -5.45556,8.34731 -8.33276,11.40409 -16.24629,17.26026 -12.73202,9.42196 -12.04739,9.19659 -15.48862,5.09826 z"
     id="path3871"
     inkscape:connector-curvature="0" />
  <path
     style="fill:#ffd5d5;fill-opacity:1;stroke:#ffd5d5;stroke-width:2.81346250000000000;stroke-linecap:round;stroke-linejoin:miter;stroke-miterlimit:4;stroke-opacity:1;stroke-dasharray:none;stroke-dashoffset:0"
     d="m 229.95579,700.51878 c -2.3083,-6.82769 -17.39187,-19.99786 -27.39875,-23.9231 -5.92786,-2.32523 -9.84074,-5.7528 -11.99712,-10.50917 -2.47511,-5.45933 -3.70312,-36.69675 -1.49304,-37.97903 0.87531,-0.5079 6.01163,-1.54078 11.414,-2.29534 7.59087,-1.0602 12.05467,-1.07908 19.64729,-0.083 13.11116,1.71995 18.721,1.66535 18.721,-0.18233 0,-0.80755 -0.76432,-3.93945 -1.69846,-6.95979 -4.13534,-13.37073 -3.48565,-19.85728 2.34833,-23.44591 2.56223,-1.57609 5.54198,-1.88294 16.47221,-1.6963 l 13.34411,0.22798 6.87028,-5.00838 c 8.97614,-6.54351 13.4837,-8.0495 33.31406,-11.13034 13.43694,-2.08757 16.83631,-2.30271 18.15547,-1.14898 2.31554,2.02515 0.45284,4.17168 -2.92863,3.37495 -3.6192,-0.85277 -10.58045,1.86135 -12.23982,4.77217 -0.7813,1.37054 -1.28165,10.03841 -1.28165,22.20342 l 0,19.95525 -8.38918,6.99953 c -4.61407,3.84976 -11.05699,10.31179 -14.31763,14.36008 -3.26061,4.04829 -7.35863,8.04645 -9.10669,8.88479 -1.74807,0.83832 -4.70995,2.84275 -6.58198,4.45426 -6.0345,5.19467 -18.82409,20.60734 -21.14326,25.47966 -1.4899,3.13007 -3.00487,4.73264 -4.47395,4.73264 -1.22168,0 -5.1414,2.50553 -8.71049,5.56783 -3.56909,3.06231 -6.77875,5.56781 -7.13262,5.56781 -0.35386,0 -0.98092,-0.99838 -1.39348,-2.21867 z"
     id="path3873"
     inkscape:connector-curvature="0" />
  <path
     style="fill:#ffd5d5;fill-opacity:1;stroke:#ffd5d5;stroke-width:2.81346250000000000;stroke-linecap:round;stroke-linejoin:miter;stroke-miterlimit:4;stroke-opacity:1;stroke-dasharray:none;stroke-dashoffset:0"
     d="m 294.5988,552.93757 c -19.10988,-2.80546 -19.5595,-3.32918 -18.52886,-21.5824 0.40102,-7.10192 1.04923,-14.99804 1.44044,-17.54693 0.92674,-6.03755 -2.3012,-16.51208 -6.10965,-19.8256 -3.41305,-2.96951 -3.80268,-6.16305 -0.75189,-6.16305 4.54982,0 6.50829,2.76901 7.51592,10.62651 0.74872,5.83849 1.7638,8.5331 4.36084,11.57606 4.7878,5.60984 5.72306,7.65137 6.50843,14.20679 0.9627,8.03546 3.65364,12.58746 7.44118,12.58746 2.43445,0 3.4661,-0.98572 5.45962,-5.21659 2.28373,-4.84676 2.57332,-5.06849 4.08488,-3.12786 1.06424,1.36638 1.62688,5.2366 1.62688,11.19101 0,7.5224 0.42672,9.61158 2.45842,12.03638 l 2.45841,2.93409 -3.94112,-0.10784 c -2.16762,-0.0594 -8.4782,-0.77392 -14.0235,-1.58801 z"
     id="path3875"
     inkscape:connector-curvature="0" />
  <path
     style="fill:#634f4f"
     d="m 544.59388,17.161684 c -8.07269,0.139946 -15.68108,1.936767 -17.61516,5.329471 -2.12592,3.729225 -5.60049,5.015972 -13.52444,5.015972 -9.06536,0 -11.07326,1.021578 -13.35746,6.661838 -2.71435,6.702267 0.44977,21.057728 6.09434,27.744593 1.82535,2.16241 0.59075,3.46203 -4.34118,4.6241 -7.96711,1.87723 -9.5123,10.82026 -2.92194,17.00728 5.34285,5.01585 5.01976,8.33013 -1.33575,14.73442 -4.68986,4.725902 -6.03261,4.999372 -11.77127,2.116112 -9.59843,-4.822532 -24.07272,-1.582312 -27.88371,6.26997 -2.65635,5.47323 -2.21235,7.23875 3.25588,12.77505 6.94816,7.03465 13.64618,24.56896 10.93643,28.6851 -2.81584,4.27727 1.21612,14.81279 5.67692,14.81279 2.28095,0 5.98802,-1.78117 8.26493,-3.91873 3.73884,-3.51 4.55073,-3.38854 8.01448,1.25399 2.33337,3.12744 6.74395,5.17272 11.35385,5.17272 4.27084,0 8.31652,1.64158 9.18326,3.76198 0.84574,2.06909 4.58289,3.76198 8.34842,3.76198 3.76552,0 7.50267,1.69289 8.34842,3.76198 1.96309,4.80262 12.74051,4.91538 16.94728,0.15675 1.83759,-2.07864 2.38736,-5.98092 1.33575,-9.09145 -2.29578,-6.7906 2.62942,-9.99282 12.43914,-8.15095 6.89708,1.29497 7.34482,0.68157 10.26855,-12.53993 1.68425,-7.61651 2.75509,-19.4615 2.42105,-26.33386 -0.70122,-14.42691 3.82491,-20.60649 13.85837,-18.88827 9.70727,1.66237 21.20498,-9.452122 21.20498,-20.534132 0,-7.07192 -0.96759,-8.69958 -5.42647,-8.69958 -3.0088,0 -8.28348,-2.82149 -11.68779,-6.26997 -3.40431,-3.44848 -8.84529,-6.26996 -12.1052,-6.26996 -8.35905,0 -5.40959,-6.072087 3.42285,-7.053713 4.17287,-0.463751 7.09615,-2.358134 7.09615,-4.545724 0,-2.058781 1.18628,-3.086153 2.58801,-2.272863 5.23672,3.038375 15.64478,-1.637991 17.28123,-7.759082 1.82318,-6.81954 -1.99433,-11.813768 -11.27037,-14.577669 -3.23745,-0.964647 -5.92737,-2.789056 -5.92737,-4.075478 0,-4.194506 -16.66019,-2.511045 -20.20317,2.037739 -3.22116,4.135594 -3.64769,4.135594 -8.51539,0 -3.87481,-3.292058 -12.38093,-4.842369 -20.45362,-4.702474 z m 2.25407,7.837457 c 3.73414,0.06295 7.35497,1.316091 9.5172,3.761979 4.51055,5.102197 23.70165,5.046921 25.79661,-0.07825 1.41591,-3.46398 2.21613,-3.46398 7.84751,0 3.44417,2.118596 8.05899,3.840354 10.26855,3.840354 2.54994,0 3.44086,1.423808 2.42104,3.918728 -1.13853,2.785419 -2.48772,3.150758 -4.50814,1.253993 -4.93022,-4.628438 -15.11064,-3.185619 -15.11064,2.116113 0,2.968728 -2.49937,5.285205 -6.67873,6.269965 -3.67331,0.865506 -6.67874,2.585759 -6.67874,3.840354 0,1.25457 -1.70882,3.95547 -3.84027,5.956467 -2.13145,2.000972 -4.71043,6.573584 -5.67692,10.188694 -1.35044,5.05128 -0.71412,6.58346 2.58801,6.58346 2.36328,0 4.25769,-1.12859 4.25769,-2.50798 0,-1.37939 3.00543,-2.50799 6.67873,-2.50799 3.67331,0 6.67874,1.1286 6.67874,2.50799 0,1.37939 1.7093,2.50798 3.84027,2.50798 2.13097,0 4.83586,1.53314 6.01086,3.44849 1.175,1.91532 4.53793,3.95825 7.43009,4.46735 4.99473,0.87919 4.93879,1.16327 -1.16878,6.50508 -3.53655,3.09315 -9.81095,5.64297 -13.94185,5.64297 -4.13091,0 -7.51358,0.9478 -7.51358,2.11612 0,1.16834 -2.49499,4.80908 -5.50995,8.072582 -4.29211,4.64594 -5.06564,7.9318 -3.75679,15.20466 0.91942,5.10877 0.84293,14.44683 -0.16697,20.76926 -1.51971,9.5139 -2.87332,11.5711 -7.59706,11.59944 -3.13914,0.0201 -8.39145,0.65972 -11.68778,1.48911 -5.30594,1.33498 -5.8105,2.65977 -4.34118,11.28594 1.10391,6.48096 0.66827,9.71845 -1.33575,9.71845 -1.65712,0 -3.00543,-1.60536 -3.00543,-3.52686 0,-3.92996 -7.19075,-7.26764 -10.93642,-5.09434 -1.34713,0.78158 -3.20924,-0.35147 -4.09073,-2.50799 -0.91352,-2.23489 -4.68008,-3.91873 -8.84932,-3.91873 -4.02303,0 -9.52924,-2.25719 -12.18869,-5.01597 -5.86569,-6.08483 -16.1526,-6.53672 -19.5353,-0.86212 -1.82978,3.0695 -2.42184,1.6025 -2.25407,-5.64297 0.13117,-5.67051 -2.70806,-15.81481 -6.76222,-24.06099 -5.99632,-12.19651 -6.44166,-14.40695 -2.92194,-15.67491 2.25984,-0.81412 5.6879,-0.31187 7.59706,1.17561 1.90915,1.48747 8.60314,2.38851 14.94366,1.95937 9.05161,-0.61263 11.73748,-1.86133 12.52263,-5.79972 0.54998,-2.75878 2.26372,-5.699952 3.75679,-6.583462 3.31278,-1.9603 0.23349,-19.75039 -3.42285,-19.75039 -1.40275,0 -2.58801,-1.1286 -2.58801,-2.50799 0,-1.37939 1.80326,-2.50799 4.00724,-2.50799 2.20398,0 4.00724,-1.69289 4.00724,-3.76198 0,-2.06908 1.20217,-3.76197 2.67149,-3.76197 1.46932,0 2.67149,-2.25719 2.67149,-5.01598 0,-2.758782 -1.24929,-5.01597 -2.75497,-5.01597 -3.8045,0 -8.38785,-12.251436 -5.92738,-15.831662 1.10987,-1.614967 6.77803,-3.107896 12.60611,-3.291732 7.56933,-0.23876 11.67723,-1.850818 14.35928,-5.642968 2.21199,-3.127534 6.40589,-4.947454 10.68597,-5.251096 0.53502,-0.03787 1.05276,-0.08728 1.5862,-0.07825 z m -24.37738,74.299087 c -0.56504,0.29002 -0.83484,0.60944 -0.83484,0.940502 0,0.25152 0.15815,0.47584 0.41742,0.70537 0.11942,-0.55003 0.23242,-1.083952 0.41742,-1.645872 z M 226.60267,451.98378 c -1.64364,0.0441 -3.40065,0.14521 -5.17602,0.39187 -6.07658,0.84404 -19.68755,2.08973 -30.30475,2.74311 -19.04377,1.17196 -30.13779,5.85549 -30.13779,12.77505 0,1.60389 -3.30597,4.99019 -7.34661,7.44559 -11.23825,6.82922 -19.40794,14.37567 -21.95634,20.22063 -2.23251,5.12046 -12.26813,8.46446 -25.21222,8.46446 -6.585148,0 -28.301128,16.64766 -28.301128,21.70975 0,1.83793 -1.78619,3.37011 -4.00724,3.37011 -6.32599,0 -30.64604,15.8748 -30.72217,20.06389 -0.12824,7.05559 -10.1567,34.96734 -13.77489,38.32516 -1.98425,1.84146 -5.52145,4.03349 -7.84752,4.85922 -6.44572,2.28814 -14.4618297,28.55337 -10.93642,35.81718 1.56581,3.22627 2.16906,11.93546 1.33574,19.51527 -0.97477,8.86676 -0.44678,14.30868 1.50272,15.43979 1.65416,0.95975 3.0622,5.88112 3.08891,10.97244 0.0321,6.10167 2.7857,13.09509 8.09797,20.45576 5.82142,8.06616 7.61066,12.93727 6.51176,17.63427 -1.55176,6.63275 4.44574,23.48822 9.35023,26.33386 1.49158,0.8654 2.73361,4.59578 2.75498,8.3077 0.0494,8.13814 1.85971,10.75181 10.60249,15.04792 8.54694,4.19987 17.96136,22.24686 13.6914,26.25548 -1.6462,1.54544 -3.00543,6.48899 -3.00543,10.97244 0,4.93418 -1.69989,9.03615 -4.34117,10.42381 -3.17005,1.66553 -4.04921,4.59489 -3.08892,10.73732 0.72697,4.65011 0.16189,10.28879 -1.33574,12.53993 -1.49754,2.25117 -2.00574,5.97753 -1.0853,8.22933 2.16621,5.29953 18.04912,5.41482 28.71856,0.235 6.58133,-3.19503 7.83415,-5.36757 7.84751,-13.16693 l 0,-9.32657 4.17421,7.44558 c 5.454518,9.82035 4.620768,9.45965 15.611538,7.52396 8.93411,-1.57346 9.60535,-2.34334 9.68416,-10.81569 0.0467,-5.01921 1.84998,-11.35147 4.00724,-14.02905 2.15726,-2.67757 3.92376,-8.07348 3.92376,-11.99131 0,-8.26827 6.33932,-11.67763 13.6914,-7.3672 6.96058,4.08089 17.54092,3.60856 19.36833,-0.86213 0.84574,-2.06908 3.69964,-3.76197 6.42828,-3.76197 2.72864,0 7.86734,-2.86425 11.35385,-6.34834 7.09877,-7.09382 19.88828,-13.71555 26.46448,-13.71555 14.47506,0 22.72867,-20.26822 10.18507,-25.00149 l -6.01086,-2.27286 6.01086,-0.15675 c 3.30597,-0.0875 6.01086,-1.37034 6.01086,-2.82149 0,-1.45114 3.52132,-3.75693 7.84751,-5.17272 6.49034,-2.12406 8.0085,-4.16837 8.68236,-11.67781 0.7143,-7.96017 2.26828,-9.78275 12.27217,-14.26417 8.26616,-3.70294 11.22898,-6.37367 10.68597,-9.79682 -0.80796,-5.09364 21.16932,-29.15534 26.63145,-29.15534 1.74574,0 4.60764,-2.53933 6.3448,-5.64297 1.73717,-3.10363 8.42725,-10.54437 14.94367,-16.53703 10.61096,-9.7581 11.78807,-11.98388 11.27036,-21.31788 -0.31791,-5.73218 -0.36439,-15.67865 -0.16697,-22.10163 0.29993,-9.76256 1.10079,-11.53821 5.00905,-10.65894 13.42316,3.01997 14.55315,-14.4555 1.83665,-28.13647 -9.89865,-10.64941 -10.47759,-11.71172 -10.68597,-17.8694 -0.64041,-18.93808 -1.11903,-20.10439 -8.26493,-21.78813 -4.61068,-1.08638 -7.82625,-0.56482 -9.26675,1.56749 -1.51882,2.24826 -2.29828,1.31893 -2.33755,-2.97823 -0.0315,-3.44848 -1.8911,-9.60499 -4.17421,-13.71555 -2.67839,-4.82226 -3.16289,-7.81431 -1.33575,-8.38608 1.55751,-0.48738 2.83846,-2.83254 2.83846,-5.17272 0,-2.77441 -4.55695,-5.89826 -13.10701,-9.01307 -10.41618,-3.79469 -13.59309,-6.32259 -15.44457,-12.38319 -1.75269,-5.73724 -4.6347,-8.24016 -11.6043,-10.18869 -5.09751,-1.42514 -12.13753,-4.1127 -15.61154,-5.95647 -3.04494,-1.61604 -7.25778,-2.40536 -12.18869,-2.27286 z m -3.08892,8.85632 c 4.03714,-0.0572 6.99058,0.5163 8.93281,1.72424 2.56669,1.59626 9.78435,4.26691 16.02896,5.95647 9.39353,2.54154 11.35385,4.14407 11.35385,9.2482 0,3.3931 1.20217,6.19159 2.67149,6.19159 1.46932,0 2.6715,2.82148 2.6715,6.26996 0,3.44849 1.09547,6.26997 2.42104,6.26997 4.38624,0 8.6072,15.41493 5.2595,19.20177 -1.76759,1.99949 -2.35872,7.25914 -1.41923,12.77505 0.87972,5.16525 0.8646,11.94429 0,15.04792 -1.74828,6.27581 -8.93281,7.7899 -8.93281,1.88099 0,-2.51664 -2.68044,-3.76198 -8.09796,-3.76198 -4.73408,0 -8.70178,-1.56283 -9.60068,-3.76198 -0.87655,-2.1444 -4.86124,-3.76198 -9.26675,-3.76198 -6.40156,0 -7.76402,-1.06996 -7.76402,-6.11322 0,-5.89271 -0.4946,-6.05214 -15.36109,-4.78084 -13.44312,1.14958 -16.52356,2.49512 -24.7948,10.73731 -5.19822,5.17997 -12.04034,10.72026 -15.19412,12.30481 -3.15378,1.58454 -9.43729,2.89986 -13.94186,2.89986 -7.26811,0 -8.18144,-0.79391 -8.18144,-7.28884 0,-4.02536 -0.63539,-8.89806 -1.41924,-10.81569 -0.78381,-1.9176 1.01945,-6.17082 4.00724,-9.40494 6.43149,-6.9617 6.784,-12.22556 1.5862,-23.90425 -3.74904,-8.42357 -3.63926,-8.76609 3.58982,-12.77505 4.08018,-2.26271 9.597,-7.95483 12.27218,-12.61831 4.52286,-7.88445 5.7993,-8.48226 18.45,-8.6212 7.48256,-0.0823 19.31361,-1.03698 26.29751,-2.11611 3.17091,-0.48996 6.00961,-0.74949 8.4319,-0.78375 z m 46.16675,25.86361 c 1.2879,-0.21218 3.33213,0.50551 6.17783,2.19449 2.3896,1.41824 3.64846,5.2227 3.1724,9.48332 -0.52391,4.68893 1.0585,8.76192 4.67511,11.83456 3.01796,2.56406 5.48859,6.98534 5.50996,9.87519 0.10178,14.66126 8.30602,22.51169 12.02172,11.52107 3.87623,-11.46546 8.4385,-3.36096 6.92918,12.3048 -0.31932,3.31438 0.95357,6.90058 2.83847,7.99421 5.59504,3.24631 1.7599,3.89974 -12.52263,2.11611 -23.9224,-2.98749 -23.99816,-3.0468 -23.79299,-19.28014 0.10045,-7.94723 1.11853,-16.37447 2.25407,-18.73152 2.32915,-4.83455 -2.80926,-22.02326 -6.59525,-22.02326 -1.35538,0 -2.50452,-1.69289 -2.50452,-3.76198 0,-2.15762 0.54875,-3.31475 1.83665,-3.52685 z m -122.38779,7.68071 c 1.94612,0.0898 3.60293,2.61307 5.42647,7.52395 3.80995,10.26028 3.75841,11.04926 -1.41923,15.91004 -3.42935,3.21945 -4.55541,10.40125 -5.25951,33.38757 -1.15096,37.57632 -4.92265,46.50694 -21.03801,50.31647 -16.07622,3.80027 -18.8982,7.82301 -14.94367,21.08276 2.30842,7.74019 2.39441,12.62487 0.33394,17.71265 -1.56386,3.86154 -2.83846,11.6597 -2.83846,17.32078 0,9.24476 -12.405188,35.42658 -18.700458,39.50078 -1.06565,0.68969 -3.94114,5.00531 -6.42828,9.56169 -2.48713,4.55639 -6.58675,10.18072 -9.09977,12.53994 -2.51302,2.35921 -8.29467,6.82563 -12.85656,9.87519 l -8.34842,5.48622 -4.92557,-5.09435 c -3.57991,-3.7136 -4.74745,-8.39791 -4.34117,-17.16403 0.37905,-8.17889 -0.71845,-13.09758 -3.42286,-15.20466 -2.19655,-1.7114 -4.00724,-4.50517 -4.00724,-6.19159 0,-1.6864 -2.40434,-5.10566 -5.34298,-7.60234 -3.78131,-3.21258 -5.34299,-7.72768 -5.34299,-15.43979 0,-5.99346 -0.90163,-10.89391 -2.00362,-10.89406 -2.67034,-3.3e-4 -2.25359,-39.68231 0.50091,-47.65174 1.19188,-3.44848 6.05913,-9.32283 10.85294,-13.08855 6.98195,-5.48454 9.71846,-10.49971 13.52443,-25.07986 4.34188,-16.63294 8.61912,-24.53124 13.27399,-24.53124 0.9752,0 4.77951,-2.25719 8.51538,-5.01597 3.73587,-2.75879 9.03077,-5.01597 11.77127,-5.01597 2.7405,0 5.00665,-1.41074 5.00905,-3.13499 0.008,-5.39523 20.919588,-21.94487 27.716748,-21.94487 14.11921,0 21.90472,-3.08152 26.29751,-10.26707 2.86967,-4.6941 5.15003,-6.98685 7.09616,-6.89696 z m 71.79638,31.50657 c 5.44982,0.0125 6.01204,1.18691 6.01086,5.09435 -0.001,4.55197 1.52962,5.64297 7.76403,5.64297 4.40551,0 8.3902,1.61757 9.26674,3.76198 0.89891,2.19915 4.86661,3.76198 9.60068,3.76198 5.07119,0 8.09797,1.29951 8.09797,3.44848 0,2.03162 4.0873,3.98687 10.0181,4.85922 5.50995,0.81046 17.8062,2.62049 27.29932,3.9971 12.81019,1.85759 18.4164,3.95301 21.78937,8.15096 4.46409,5.55596 4.35029,5.71337 -5.2595,8.85632 -5.38074,1.75983 -14.13808,3.27167 -19.5353,3.29173 -6.76689,0.0261 -12.59563,2.141 -18.61697,6.89697 -7.50748,5.92985 -10.61844,6.75162 -22.45724,6.03484 -10.13538,-0.61363 -14.94749,0.31706 -18.19955,3.3701 -5.05999,4.75031 -5.8129,19.17534 -1.41923,26.88248 2.85158,5.00215 2.53674,5.16226 -7.34661,3.29173 -5.67924,-1.07485 -13.35746,-1.92638 -17.03077,-1.88099 -3.6733,0.0454 -9.68416,0.74166 -13.35747,1.56749 -3.78163,0.85021 -9.57583,-0.01 -13.35746,-2.03773 -3.67331,-1.96915 -13.4397,-4.34321 -21.70589,-5.2511 -12.21372,-1.34142 -15.7075,-2.80182 -18.53348,-7.75908 -2.94308,-5.16259 -2.79105,-7.50264 1.00181,-14.96954 2.46488,-4.85253 4.50814,-14.26703 4.50814,-21.00439 0,-17.44023 1.73634,-20.22064 12.52263,-20.22064 11.83124,0 18.72303,-3.54391 29.63688,-15.20466 7.56949,-8.08748 10.61539,-9.52373 22.03982,-10.26707 3.06004,-0.19913 5.44651,-0.31729 7.26312,-0.3135 z m 106.94323,48.67061 c 2.53415,0.0406 3.25588,1.00216 3.25588,3.05661 0,2.43736 -1.44883,3.49618 -3.75679,2.66473 -2.08916,-0.75262 -6.19818,-0.2039 -9.09977,1.25399 -4.65748,2.34005 -5.25937,5.1169 -5.00905,23.98262 l 0.25032,21.39626 -10.85295,9.40494 c -5.99213,5.1721 -12.31139,11.94429 -14.02534,15.04792 -1.71397,3.10363 -4.55984,5.62541 -6.34479,5.64297 -4.49108,0.0439 -28.63508,26.35111 -28.63508,31.19308 0,2.16695 -1.81626,3.91873 -4.09072,3.91873 -2.27446,0 -6.8593,2.95368 -10.18507,6.58346 l -6.09434,6.58346 -4.00724,-7.75908 c -3.7235,-7.21763 -20.79884,-20.45576 -26.381,-20.45576 -1.34684,0 -4.93511,-2.46733 -7.931,-5.48622 -4.50366,-4.53825 -5.42647,-8.80376 -5.42647,-24.76636 l 0,-19.35852 8.68235,-1.64587 c 11.16784,-2.11067 14.00029,-2.06404 29.80385,0.0783 12.93011,1.75288 13.10539,1.70089 11.1034,-4.23222 -7.89739,-23.40471 -2.93563,-31.27946 18.28303,-28.92022 12.0292,1.33748 14.23826,0.79295 20.87105,-5.17272 4.80534,-4.32204 11.87211,-7.36039 20.11968,-8.54283 6.99309,-1.00259 17.19774,-2.60389 22.7077,-3.60523 3.07844,-0.55945 5.24173,-0.88645 6.76221,-0.86212 z m -193.51631,28.44996 c 2.9735,0.0514 4.51159,1.77235 6.59525,6.19159 2.94561,6.24732 5.25386,7.31828 18.36651,8.85633 26.91795,3.15733 27.54978,3.8389 27.54978,28.84184 0,18.36791 0.81507,22.54915 5.42647,27.19598 2.99589,3.01888 6.58416,5.48621 7.931,5.48621 5.69768,0 22.40501,13.10536 27.04887,21.23951 7.21407,12.63606 6.44786,17.91063 -3.00543,21.00439 -4.40796,1.44256 -8.01448,3.79995 -8.01448,5.25109 0,1.45115 -2.33641,2.66474 -5.17602,2.66474 -8.84251,0 -9.68667,9.55432 -1.41923,16.22353 7.14908,5.76704 7.18696,5.89111 1.75317,8.6212 -3.03485,1.52481 -7.95547,2.74311 -11.01991,2.74311 -6.12194,0 -23.49803,9.51646 -29.21946,15.98842 -1.99502,2.25671 -5.74687,4.07547 -8.34842,4.07547 -2.60153,0 -5.60458,1.97504 -6.59525,4.38898 -1.71545,4.17998 -1.92505,4.17998 -4.42466,0 -1.87058,-3.12811 -5.92252,-4.38898 -14.19231,-4.38898 -12.41732,0 -14.78739,2.33938 -14.94367,14.65605 -0.0468,3.68049 -1.85001,8.84348 -4.00724,11.52106 -2.15726,2.67757 -3.92375,8.72287 -3.92375,13.40205 0,9.56182 -4.98194,10.09753 -9.35023,1.01887 -1.92943,-4.01 -4.976218,-5.48622 -11.353848,-5.48622 -8.15364,0 -8.68235,0.5433 -8.68235,8.6212 0,6.08081 -1.74657,9.7908 -5.92738,12.53993 -11.32459,7.44659 -11.49581,6.82965 -5.92737,-28.05809 0.93571,-5.86242 2.72551,-10.65894 3.92375,-10.65894 4.63715,0 5.65211,-14.86078 1.41923,-20.53414 -2.31274,-3.09982 -4.17421,-7.53693 -4.17421,-9.8752 0,-2.49818 -4.33962,-6.1559 -10.519,-8.85632 -9.02129,-3.94231 -10.34165,-5.51534 -9.09978,-10.89407 0.79619,-3.44848 4.02872,-8.32363 7.17964,-10.81569 3.15095,-2.49208 8.92701,-7.02472 12.77308,-10.11032 3.84604,-3.08557 9.0842,-9.49638 11.68778,-14.26417 2.60359,-4.76778 5.57108,-9.26387 6.59525,-9.95357 1.02415,-0.68969 5.3637,-6.86879 9.600678,-13.71555 9.89725,-15.99345 16.15835,-54.80182 11.01991,-68.26424 -2.30576,-6.04096 4.10711,-11.40971 16.94729,-14.1858 1.38838,-0.30018 2.51516,-0.4874 3.50634,-0.47025 z m 16.19593,127.5938 c -0.18834,0.0823 -0.39178,0.16954 -0.58439,0.235 0.13678,0.47624 0.39885,0.79443 0.66787,1.01886 0.47227,0.39401 1.15125,0.39709 2.17059,-0.23499 -0.5129,0.0201 -0.99147,0.0176 -1.50272,0.0783 -0.226,-0.37984 -0.51226,-0.72403 -0.75135,-1.09725 z m 0.66787,1.17562 c -0.063,0.0637 -0.21666,0.072 -0.41742,0.0782 0.13197,-0.0226 0.27695,-0.0607 0.41742,-0.0782 z"
     id="path2993"
     inkscape:connector-curvature="0" />
</svg>
