<?xml version="1.0" encoding="UTF-8"?><svg xmlns="http://www.w3.org/2000/svg" viewBox="0 0 2726.06 3448"><defs><style>.cls-1{fill:red;}.cls-1,.cls-2{stroke:#646464;stroke-miterlimit:10;stroke-width:5px;}.cls-2{fill:#fefee9;}.cls-3{fill:#b2daf7;}.cls-4{fill:#f6e1b9;}</style></defs><g id="Landmass"><rect class="cls-3" x=".56" y=".44" width="2725.48" height="3447.56"/><path id="Liverpool" class="cls-4" d="m2726,3245.69c-11.58-7.59-21.64-14.03-29-18.58-30.22-18.67-52.44-36.44-88.89-28.44s-68.52,24.18-68.52,24.18c0,0-91.48,116.26-148.37,112.7-56.89-3.56-209.78-17.78-209.78-17.78,0,0-17.78-3.56-90.67-37.33-72.89-33.78-264.89-144-426.67-259.56-149.73-106.95-174.59-148.42-216.92-201.92-.5-.64-5.01-5.09-12.64-12.51-27.02-26.23-93.28-89.45-160.41-151.2-42.36-38.96-85.06-77.34-118.47-105.48-42.42-35.72-111.01-82.97-181.13-128.32-13.45-8.7-26.95-17.32-40.33-25.78-83.53-52.81-162.47-99.2-194.54-116.12-20.46-10.8-45.82-31.4-71.9-55.54-55.52-51.39-114.33-118.81-136.1-141.79-21.04-22.21-50.52-69-72.81-108.05-11.61-20.35-21.27-38.6-26.75-50.17-8.98-18.96-60.54-148.28-106.56-263.75-3.05-7.65-6.07-15.23-9.05-22.72-32.24-80.88-60.01-150.47-65.72-163.31-3.26-7.33-7.27-22.51-11.51-41.56-8.01-35.98-16.86-85.75-23.07-122.46-4.85-28.63-8.09-49.32-8.09-49.32,0,0-19.56-234.67-21.33-273.78s-19.6-160.15-19.6-160.15l-18.32-47.85-88.3-187.26L.56,531.11.11,0l2725.33.44"/><path id="Wirral" class="cls-4" d="m0,1344.5c1.79,2.38,3.58,4.64,5.38,6.77,21.33,25.33,41.33,60,49.33,78.67s16,84,18.67,96c2.67,12,5.33,28-9.33,33.33-14.67,5.33-63.93,22.06-63.93,22.06v32.44l25.27-13.17,1.33-21.33,37.33-8,9.33,21.33,10.67,8s28,92,30.67,97.33c2.67,5.33,0,18.67-8,18.67h-16l38.67,10.67,29.33,81.33-10.67,9.33s4,54.67,8,80c4,25.33,5.33,58.67,12,78.67,6.67,20,22.67,81.33,22.67,81.33l-14.67,6.67s12,32,12,36-8,14.67-8,14.67l29.33,64,26.67-12,25.33,52-33.33,14.67s38.67,70.67,54.67,90.67,25.33,38.67,28,50.67,10.67,24,20,30.67,86.67,138.67,86.67,138.67c0,0,16-17.33,33.33-20,17.33-2.67,40,26.67,46.67,38.67,6.67,12,46.67,68,46.67,68,0,0,16,9.33,21.33,22.67,5.33,13.33,113.33,197.33,113.33,197.33l-18.67,18.67s6.67-2.67,17.33,12c10.67,14.67,32,44,48,81.33,16,37.33,58.67,125.33,65.33,164,6.67,38.67,10.67,80,34.67,112s44,65.33,52,77.33,25.33,89.33,25.33,89.33l20-2.67,36,16s6.9,11.79,17.04,28.94L0,3448.01"/></g><g id="_2004_Ward_Boundaries"><g id="Liverpool-2"><path id="Woolton" class="cls-2" d="m1691.37,2058.81l36.58-10.27-23.25-100.85,111.11,36.44,3.85-11.85s2.07-2.67,4.74-4.15c2.67-1.48,5.04-.59,9.48.89,4.44,1.48,4.44,7.7,4.44,7.7l5.93,1.78,3.26-14.81,35.56-38.52s29.63-19.56,34.67-22.81c5.04-3.26,14.22-13.33,14.22-13.33,0,0-3.56-4.74-5.33-6.52-1.78-1.78-22.22-19.26-30.22-26.67-8-7.41-56-45.33-56-45.33l11.56-13.04,14.52-9.19-5.04-6.81,36.74-25.19,60.44,74.67,96.3,117.04,78.22,105.48,69.15,96.91c-8,7.11-29.33,24.44-29.33,24.44l-34.22,15.56c-10.22,4-13.78,9.33-16,13.78-2.22,4.44-6.67,17.33-11.56,26.22-4.89,8.89-15.56,18.67-27.11,27.56-11.56,8.89-42.67,18.67-42.67,18.67,0,0,17.78,27.56,23.56,35.11,5.78,7.56,6.67,16.89,8.89,24,2.22,7.11,0,32,0,32,0,0-11.11.89-16.44,1.78s-24,1.78-30.67,2.22c-6.67.44-7.11,6.67-7.11,10.22s1.33,11.56,0,18.22c-1.33,6.67-19.56,13.33-19.56,13.33l-15.56-33.78-35.11,36.89-15.11-72.89-69.33-92.44-95.11-107.56-78.48-84.91Z"/><path id="Wavertree" class="cls-2" d="m1215.74,1755l55.76,157.78s14.22-5.93,26.67,0c12.44,5.93,51.56,14.22,65.19,20.74,13.63,6.52,26.15,8.25,26.15,8.25l12.82-19,24.89-17.33,52.44-30.67s13.33-10.67,16.89-13.78,7.56-10.67,7.56-10.67c0,0,45,27.88,50.77,32.77l35.5-49.88,31.41-48s10.67-18.07,9.78-25.19c-.89-7.11-19.85-102.22-19.85-102.22,0,0-19.26.89-23.41,2.67-4.15,1.78-19.56,5.33-25.78,9.48-6.22,4.15-9.19,9.78-18.37,9.48-9.19-.3-25.19-.3-25.19-.3,0,0,2.37-17.78,0-22.52-2.37-4.74-9.48-19.56-12.44-24-2.96-4.44-12.15-9.19-15.41-17.78-3.26-8.59-5.93-14.52-6.22-21.33-.3-6.81,0-28.74,0-28.74l-68.15,1.48s-52.22-.14-72.22,1.64c-20,1.78-203.55,34.67-203.55,34.67,0,0,36.44,2.67,48,20,11.56,17.33,16,47.56,14.67,69.33-1.33,21.78,12.1,63.12,12.1,63.12Z"/><path id="Yew_Tree" class="cls-2" d="m1999.7,764.33c.19,1.83.62,4.19,1.19,5.7,3.56,9.33,5.77,25.33,2.22,29.77s-3.11,36.44-6.22,41.33-5.33,20-15.11,25.33c-9.78,5.33-27.56,22.22-27.56,22.22l21.78,20.89-11.11,8.89,53.33,53.33s4.89,17.78,4.44,23.56c-.44,5.78,0,12.89,4,17.78s15.56,21.33,16,30.67c.44,9.33,11.56,21.33,4.89,29.78-6.67,8.44-26.22,38.22-32.89,42.67-6.67,4.44-12.89,11.56-15.56,21.78-2.67,10.22,1.78,18.22,6.22,23.56,4.44,5.33,15.11,12.44,15.11,12.44l-13.33,12.89,17.75,56.82s-12.18,2.29-24.92,2.29-66.37-.59-76.15,1.19-73.48,11.56-73.48,11.56c0,0-32.59-15.41-37.33-16.3s-14.81-1.48-14.81-1.48l-1.48-15.7,18.67-.89,10.07-10.96-41.48-34.37,22.22-23.11s3.56-4.44.3-8.89-14.81-11.85-14.81-11.85l3.85-8.3-17.48-8.3s-4.44,11.85-11.85,13.33c-7.41,1.48-18.18,2.91-25.88,14.76l-18.19-8.87-65.33-46.77-24-13.33s-10.67-7.29-14.67-11.42-15.56-12.58-15.56-12.58l15.56-24.44-24-50.67,40.89-28.44s7.56-6.67,16.44-6.22,46.22-1.78,46.22-1.78l18.2-8.44,76.03-40s-7.56-22.67-13.78-32.89c-6.22-10.22-12.44-21.33-21.33-27.56-2.22-1.56-5.25-2.97-8.71-4.32l29.16-19.93-4-6.63,29.78-24.48,18.9-10.67,18.44-6.67s9.78,3.11,18.22,1.33c8.44-1.78,18.48-4.44,24.8-8.89s11.2-13.33,20.54-15.56c9.33-2.22,21.33-.89,21.33-.89l22.22,31.56,39.11-3.11,13.16-.72Z"/><path id="West_Derby" class="cls-2" d="m1527.09,754.82l-21.33-48.44,64.89-63.11,33.51,39.83,9.15-17.16s11.56,18.67,12.89,22.22c1.33,3.56,20.89,55.56,20.89,55.56,0,0,16.44,37.78,22.67,45.78,6.22,8,36,21.78,46.2,28,10.2,6.22,32.03,10.22,40.91,16.44,8.89,6.22,15.11,17.33,21.33,27.56,6.22,10.22,13.78,32.89,13.78,32.89l-76.03,40-18.2,8.44s-37.33,2.22-46.22,1.78-16.44,6.22-16.44,6.22l-40.89,28.44,24,50.67-15.56,24.44s11.56,8.44,15.56,12.58,14.67,11.42,14.67,11.42l24,13.33,65.33,46.77,17.87,8.51c-7.7,11.85-28.74,34.67-38.52,41.19-9.78,6.52-56,36.74-56,36.74,0,0-22.52-19.56-30.22-27.56-7.7-8-20.74-22.52-28.44-34.96-7.7-12.44-45.04-72.3-45.04-72.3,0,0-19.26-28.44-26.67-35.56s-26.67-29.63-26.67-29.63l-32.89,9.48s-9.19,5.04-12.44,11.85-20.41,26.37-26.07,30.52l-37.92,29.87s-20.17-25.44-27.73-32.1c-7.56-6.67-30.6-28-35.08-34.22l-27.24-49.77,16.79-42.21c5.33-10.07,30.22-32.59,30.22-32.59l33.38-27.19,157.55-133.73Z"/><path id="Warbreck" class="cls-2" d="m1090.04,489.7s-44.57-19.43-55.83-25.35c-11.26-5.93-24.89-24.89-36.15-37.93s-24.89-46.81-29.04-56.89-18.96-27.26-28.44-37.33-17.19-38.52-17.19-38.52l-57.48,40.89-17.19-44.44-11.26-27.85,12.44-17.19s-13.04-7.7-16-14.81-6.52-29.04-6.52-29.04l4.58-14.83-16.1-.63,1.2-12.73-23.63-2.82-22.15,9.49-46.08-.16-46.67,60-46.67,44,34.08,150.83,2.89,101.81-16.21,21.63,14.58,7.98,40.08-1.18,28.44,3.11s-5.33,8.89-6.67,17.33-4.44,42.22-4.44,42.22l5.78-.44,42.67-37.33,27.56,2.22,14.67-10.22,20.89-5.33s32.89-6.22,40.44-6.67,23.11-8.44,28-9.78,34.67,4.44,34.67,4.44l28.44,3.56,32,18.22,45.82,30.58,36.11-19.93-20.15-32,54.26-25.63-25.75-49.29Z"/><path id="Tuebrook_Stoneycroft" class="cls-2" d="m969.93,1212.53l18.44,90.66s69.33-19.56,79.36-23.11c10.02-3.56,14.42-1.33,21.53,0,7.11,1.33,17.78,7.11,23.11,8s35.56-.89,39.11-1.78,11.56-7.11,13.78-8.89-1.33-9.33-2.22-15.56c-.89-6.22,7.07-8.44,7.07-8.44l91.84-33.57,30.22,38.22,87.56-36.44,29.33,1.33,6-22.9c-10.91-4.71-12.4-16.31-15.36-23.12-2.96-6.81-3.56-28.15-3.85-38.86-.3-10.71-16.66-31.43-16.66-31.43,0,0-20.17-25.44-27.73-32.1-7.56-6.67-31.18-27.62-35.08-34.22-3.91-6.62-27.24-49.77-27.24-49.77,0,0-19.04,34.82-24.37,42.82s-21.78,32.89-21.78,32.89l-48-76s-19.26-3.56-25.18-4.44-22.37-14.22-22.37-14.22l-11.56,8,4.44,9.78-26.67,21.33s-14.67-16.44-17.33-18.22-8.44,3.11-8.44,3.11l-11.4-33.33-36.07,35.01-8,7.56-31.51-25.78-20.49,28.44-16.89,17.03-26.22,22.53,16.89,36.89,72.89,50.67-30.67,31.11,4.49,8,17.73-12.89,7.56,28.89s-27.56,6.99-35.11,10.61-21.16,12.22-21.16,12.22Z"/><polygon id="Princes_Park" class="cls-2" points="938.5 1856.28 932.06 1927.41 953.59 1975.17 884.31 2048.22 827.09 2109.8 694.65 1987.58 647.54 1888.91 698.65 1876.91 641.76 1786.69 648.87 1782.69 649.76 1685.8 663.54 1646.69 701.32 1660.47 769.76 1667.13 767.54 1700.02 830.65 1688.47 875.54 1687.58 934.65 1718.69 938.5 1856.28"/><path id="Speke_Garston" class="cls-2" d="m2540.99,3226.06s-91.48,116.26-148.37,112.7c-56.89-3.56-209.78-17.78-209.78-17.78,0,0-17.78-3.56-90.67-37.33-72.89-33.78-264.89-144-426.67-259.56-149.73-106.95-173.02-151.29-215.36-204.8l16.47-20.12s-2.37-5.33-2.96-12.44,11.85-17.19,11.85-17.19c0,0,31.41-32.59,38.52-43.26,7.11-10.67,21.93-40.3,21.93-40.3,0,0-16.59-14.81-26.67-23.7-10.07-8.89-16-21.33-16-21.33l182.52,10.67,36.9-39.62,97.19,94.67c41.78,38.22,123.56,34.22,123.56,34.22l365.33-13.33s34.06,71.18,39.39,85.4c5.33,14.22,35.11,59.11,35.11,59.11,0,0,76.44,18.67,86.67,19.11,10.22.44,66.22-6.22,82.67-12,16.44-5.78,59.56-24.44,59.56-24.44l21.78,14.22,35.99-1.59s3.6,46.65,2.38,53.11c-1.21,6.46-6.37,36.93-5.48,42.71.89,5.78,12,19.11,12,19.11l-23.56,31.11,15.56,14.22-.89,18.67-28-2.22.44-12-17.33-3.11s-8.89,32.44-12.89,35.56-2.67,34.67-2.67,34.67c0,0-37.78-12-46.67-12s-49.33,4-49.33,4l-9.78,18.22-22.22.89,11.56,48,56.84,65.62"/><path id="St_Michaels" class="cls-2" d="m978.94,2421.17c-1.36-.88-31.04-19.97-44.42-28.43-83.53-52.81-162.47-99.2-194.54-116.12-19.95-10.53-44.56-30.38-69.95-53.74l33.83-37.68,30.22,25.48,30.81-24.3-4.44-5.04,28.44-32.3,37.33-38.22,58.37-62.81,68.99-72.84s18.98-15.39,27.87-20.13c8.89-4.74,40.27-18.11,40.27-18.11l4.77,19.3s18.96.59,39.7,3.56c20.74,2.96,39.11,16,55.11,32s27.26,42.67,34.37,60.44,13.04,53.33,14.22,72.3c1.19,18.96-5.55,39.28-5.55,39.28,0,0-11.59,32.3-16.73,39.24-7.27,9.82-12.44,20.15-20.74,23.7-8.3,3.56-15.41,9.48-22.52,8.89-7.11-.59-14.22-1.78-14.22-1.78,0,0,8.89,20.74,11.85,23.11s19.56,16,19.56,16l-64.59,83.7-41.48,57.93s-10.07-7.11-12.44-9.48l-7.34-8.28"/><path id="Riverside" class="cls-2" d="m325.59,1656.59c46.02,115.47,97.85,245.51,106.83,264.47,5.48,11.57,15.14,29.82,26.75,50.17,22.28,39.05,51.77,85.84,72.81,108.05,21.77,22.98,80.58,90.4,136.1,141.79l1.95,1.8,33.25-37.26,30.45,25.37,30.81-24.3-4.44-5.04,28.44-32.3,38.19-39.25-132.44-122.22-47.11-98.67,51.11-12-56.89-90.22,7.11-4,.89-96.89,13.78-39.11-41.49-6.23-32.89-4.89s3.56-9.78-2.67-20-29.33-56.44-29.33-56.44l-37.33,12.44s-39.11,30.22-46.67,34.67c-7.56,4.44-29.78,21.33-35.56,22.67s-25.33,8.44-25.33,8.44l-5.33-10.22-33.78,13.78-9.78.89-37.43,14.49"/><path id="Picton" class="cls-2" d="m1141.12,1602.03s36.44,2.67,48,20c11.56,17.33,16,47.56,14.67,69.33-1.33,21.78,12.23,63.5,12.23,63.5l-72.27,98.79-18.51-21.74-27.26-26.07-6.52,71.11-10.67,3.56-78.81-12.44v7.11l-33.8-6.52-29.69-12.37-3.98-137.98-59.11-31.11s-22.76-12.78-31.06-21.67c-8.3-8.89-18.96-23.7-20.74-32.59-1.78-8.89-7.7-26.67-7.7-26.67l18.96-4.23-14.22-81.1h77.04s26.46-1.78,34.27-6.52,23.21-11.26,39.81-11.26,38.52-.59,53.33-4.15c14.81-3.56,123.85-32.59,123.85-32.59,0,0,60.33-6.52,67.2-7.7,6.87-1.19,19.32,0,19.32,0,0,0,10.67,37.33,15.41,48s7.7,28.44,24.89,35.56c17.19,7.11,43.26,13.04,43.26,13.04l-10.22,17.78-167.68,28.96Z"/><path id="Old_Swan" class="cls-2" d="m1170.11,1253.41l65.93,205.65,14.66,47.55c4.74,10.67,7.7,28.44,24.89,35.56s43.26,13.04,43.26,13.04l-10.22,17.78,36-5.32,71.95-1.6s-5.04-33.48-5.33-45.63c-.3-12.15-1.78-41.19-1.78-41.19,0,0,18.96,6.81,26.37,11.56s33.48,22.52,40.3,26.07c6.81,3.56,18.96,6.52,31.11,6.52s27.56-5.33,37.33-5.04c9.78.3,14.22-1.19,21.04,3.26,4.93,3.21,7.84,10.77,15.02,16.16,0,0,1.74-25.39,0-43.16-1.74-17.78-5.29-38.67-10.18-49.78-4.89-11.11-43.11-97.33-43.11-97.33l-23.56-57.33s-7.56-20.44-8.89-30.67c-1.33-10.22-19.11-31.56-19.11-31.56,0,0-16-8.89-23.56-12-7.56-3.11-37.17-15.89-37.17-15.89l-6,22.9-29.33-1.33-87.56,36.44-30.22-38.22-91.84,33.57Z"/><path id="Norris_Green" class="cls-2" d="m1300.4,802.08l-12.44-16.59-49.78-62.22-77.04-87.7-13.63-31.41-31.72-65.16-25.92-48.96s18.67-.89,25.96-1.78,28.26-10.67,37.54-17.78,30.72-9.78,30.72-9.78l-7.91-34.67,55.91-16v10.67l56.89-8.89,15.11-10.67s8.89,8.89,12.48,16c3.59,7.11,8.86,18.67,8.86,18.67l18.22,40.89s12,26.67,15.56,35.56c3.56,8.89,42.67,46.22,46.22,53.33,3.56,7.11,37.33,42.67,43.56,48,6.22,5.33,29.33,34.67,29.33,34.67l28.09,57.94,21.33,48.44-158.19,133.91-69.14-86.48Z"/><path id="Mossley_Hill" class="cls-2" d="m1246.44,2626.69c-32.75-29.79-64.43-57.93-90.46-79.86-41.6-35.03-108.36-81.14-177.04-125.67l16.6-23.64.05-.4s4.74,5.93,7.11,8.3,12.44,9.48,12.44,9.48l41.48-57.93,64.59-83.7s-16.59-13.63-19.56-16-11.85-23.11-11.85-23.11c0,0,7.11,1.19,14.22,1.78,7.11.59,14.22-5.33,22.52-8.89,8.3-3.56,13.04-14.22,20.74-23.7s17.05-39.55,17.05-39.55l130.55,8.93,16,37.93,71.89-52.69s18.14,47.75,24.66,66.71,36.74,84.74,45.04,96,32,45.04,32,45.04l-31.41,17.19-60.44,37.93-24.3,15.41s-12.44,10.67-15.41,18.37c-2.96,7.7-18.96,29.63-18.96,29.63l-35.56,39.11,20.74,18.96-71.7,82.96"/><path id="Knotty_Ash" class="cls-2" d="m1415.06,1200.05s29.92,13.04,37.47,16.15c7.56,3.11,23.56,12,23.56,12,0,0,17.78,21.33,19.11,31.56,1.33,10.22,8.89,30.67,8.89,30.67l23.56,57.33s38.22,86.22,43.11,97.33c4.89,11.11,8.44,32,10.18,49.78s0,43.16,0,43.16l10.63,4.97c15.7,3.85,26.96,10.07,39.11,12.44s88.78-16.05,88.78-16.05l10.42-3.05s-1.78-27.11-5.78-40.89c-4-13.78-16.89-38.22-16.89-38.22l.75-22.75s26.22-24.89,32.44-33.33c6.22-8.44,16.89-31.11,19.11-37.78s37.33-31.56,37.33-31.56l42.67,5.33,142.67,89.33s45.78-96,52.44-108c6.67-12,19.11-25.78,19.11-25.78l-15.11-34.22-8.89,1.33-4.77-15.45s-12.18,2.29-24.92,2.29-66.37-.59-76.15,1.19c-9.78,1.78-73.48,11.56-73.48,11.56,0,0-32.59-15.41-37.33-16.3s-14.81-1.48-14.81-1.48l-1.48-15.7,18.67-.89,10.07-10.96-41.48-34.37,22.22-23.11s3.56-4.44.3-8.89-14.81-11.85-14.81-11.85l3.85-8.3-17.48-8.3s-4.44,11.85-11.85,13.33c-7.41,1.48-18.37,1.78-26.07,13.63-7.7,11.85-28.74,34.67-38.52,41.19-9.78,6.52-56,36.74-56,36.74,0,0-22.52-19.56-30.22-27.56-7.7-8-20.74-22.52-28.44-34.96-7.7-12.44-45.04-72.3-45.04-72.3,0,0-19.26-28.44-26.67-35.56-7.41-7.11-26.67-29.63-26.67-29.63l-32.89,9.48s-9.19,5.04-12.44,11.85c-3.26,6.81-20.41,26.37-26.07,30.52s-38.05,30.65-38.05,30.65c0,0,16.36,20.72,16.66,31.43.3,10.71.89,32.04,3.85,38.86,2.96,6.81,4.45,18.41,15.36,23.12Z"/><path id="Kirkdale" class="cls-2" d="m167.17,826.96s17.83,121.04,19.6,160.15,21.33,273.78,21.33,273.78c0,0,3.24,20.69,8.09,49.32,6.21,36.71,23.63,124.97,23.91,126.19l.33-2.94,15.79-4.15c4-4,14.22-1.33,17.78-1.78,3.56-.44,8.44-9.33,9.33-13.78s.44-18.22.44-18.22l31.56-.44.44,27.56,45.33-19.56,53.33-6.67s28-4.44,38.67-6.22c10.67-1.78,52.98-13.69,52.98-13.69,0,0,9.33-81.44,9.72-94.07.44-14.67,3.11-68,3.11-68,0,0-4.44-51.56-5.33-60.44s2.67-20.62,4.89-30.67c1.66-7.49,21.33-45.78,28.44-56.44s38.74-56.38,38.74-56.38c0,0,55.91-14.53,64.35-16.75s11.57-6.87,11.57-6.87l31.73-45.53,13.8-73.44c.89-9.78,8.68-11.59,8.68-11.59,0,0-3.43-4.37-6.03-6.32-3.56-2.67-11.65-7.42-18.31-9.64s-31.56-6.67-31.56-6.67l-50.84-114.45-22.87,7.62-25.33-12-13.33,18.67-69.71,22.73-101.59,31.5-22.67-33.33-82.67,24,5.23,13.8"/><path id="Kensington_Fairfield" class="cls-2" d="m988.37,1303.19s69.33-19.56,79.36-23.11c10.02-3.56,14.42-1.33,21.53,0,7.11,1.33,17.78,7.11,23.11,8s35.56-.89,39.11-1.78c3.56-.89,11.56-7.11,13.78-8.89s-1.33-9.33-2.22-15.56,7.07-8.44,7.07-8.44l66.1,205.74s-12.44-1.19-19.32,0c-6.87,1.19-67.2,7.7-67.2,7.7,0,0-109.04,29.04-123.85,32.59-14.81,3.56-36.74,4.15-53.33,4.15s-32,6.52-39.81,11.26c-7.81,4.74-34.27,6.52-34.27,6.52l-12.13.09v-18.6l-7.56-.44,2.22-83.56-56.89,9.33-44,10.67s-8-15.11-9.78-21.33-4.75-41.9-4.75-41.9l10.48-8.25,26.67-10.67,37.26-24.22s29.78-20,37.78-24.89,30.22-16,30.22-16c0,0,38.22-51.11,42.67-57.78,4.44-6.67,19.29-21.3,19.29-21.3l18.44,90.66Z"/><path id="Greenbank" class="cls-2" d="m938.5,1856.28l29.69,12.37,33.8,6.52v-7.11l78.81,12.44,10.67-3.56,6.52-71.11,27.26,26.07,18.51,21.74,72.27-98.79,55.76,157.78s14.22-5.93,26.67,0c12.44,5.93,51.56,14.22,65.19,20.74s26.15,8.25,26.15,8.25l-81.16,61.03,74.16,155.3-71.89,52.69-16-37.93-130.55-8.93s6.74-20.31,5.55-39.28c-1.19-18.96-7.11-54.52-14.22-72.3-7.11-17.78-18.37-44.44-34.37-60.44s-34.37-29.04-55.11-32c-20.74-2.96-39.7-3.56-39.7-3.56l-4.77-19.3s-31.38,13.37-40.27,18.11c-8.89,4.74-27.87,20.13-27.87,20.13l-21.53-47.76,6.44-71.12Z"/><path id="Fazakerley" class="cls-2" d="m1089.52,489.54s18.67-.89,25.96-1.78,28.26-10.67,37.54-17.78,30.72-9.78,30.72-9.78l-7.91-34.67,55.91-16v10.67l56.89-8.89,15.11-10.67s8.89,8.89,12.48,16c3.59,7.11,8.86,18.67,8.86,18.67l18.22,40.89,28.92-28.03c11.11-9.33,43.56-27.11,83.11-45.78,39.56-18.67,192-84.89,192-84.89,0,0,29.78-14.73,46.22-16.92l26.77-4.63c-9.38-6.62-20.78-17.35-23.97-22.45-4.44-7.11,0-15.56,0-15.56,0,0-7.11-3.11-12.89-5.33-5.78-2.22-7.11-21.78-7.11-21.78l10.22-4.89-8.44-25.78-88.89-56.44s-7.56,0-14.22.89c-6.67.89-34.67-11.11-34.67-11.11,0,0,1.78,14.67,6.22,19.56,4.44,4.89,6.67,15.56,7.56,22.22.89,6.67,7.56,12.89,10.23,16,2.68,3.11-.46,3.56-.01,18.22.44,14.67-11.11,33.33-16,39.56-4.89,6.22-21.33,4-27.11,6.67s-32,2.67-32,2.67l-36.89-15.11s-2.22,1.33-12.89,9.33c-10.67,8-15.11-10.67-20.44-19.11-5.33-8.44-7.11-32-7.11-39.56s-7.56-32.44-7.56-32.44l-39.11,7.11-25.33-88,12.89-12.89-37.92-44.68-51.11,27.56-7.56-12.89-13.78,9.33-65.78,13.33-1.78-16.44-154.67,10.67-26.22,23.56-11.11-21.33-103.11,16s-8.89,35.56-8.89,45.78-11.56,34.67-11.56,34.67h-16.89l-10.46,33.12-5.1,14.67s3.56,21.93,6.52,29.04,16,14.81,16,14.81l-12.44,17.19,11.26,27.85,17.19,44.44,57.48-40.89s7.7,28.44,17.19,38.52,24.3,27.26,28.44,37.33,17.78,43.85,29.04,56.89,24.89,32,36.15,37.93,55.83,25.35,55.83,25.35Z"/><path id="Everton" class="cls-2" d="m776.05,1367.39l26.67-10.67,37.26-24.22s29.78-20,37.78-24.89c8-4.89,30.22-16,30.22-16,0,0,38.22-51.11,42.67-57.78,4.44-6.67,19.29-21.3,19.29-21.3l-33-40.25-55.8-35.11-13.98-12.89-57.4-95.36-78.6-28.19-69.56-13.85s-3.13,4.65-11.57,6.87-64.35,16.75-64.35,16.75c0,0-31.63,45.71-38.74,56.38s-26.79,48.95-28.44,56.44c-2.22,10.05-5.78,21.78-4.89,30.67s5.33,60.44,5.33,60.44c0,0-2.67,53.33-3.11,68-.38,12.63-9.72,94.07-9.72,94.07l-1.43,40.58c-.44,9.33,13.33,8.89,18.67,10.67s22.22,2.67,28.44,2.67,36-.44,36-.44c0,0,33.33-6.67,40.89-7.56,7.56-.89,47.56-4.89,58.22-4.89s27.11-1.33,27.11-1.33l51.56-40.56,10.48-8.25Z"/><path id="Croxteth" class="cls-2" d="m1730.04,301.69c7.56,1.78,14.67,7.11,14.22,16.44-.44,9.33,2.67,17.78,13.78,23.11,11.11,5.33,15.56,6.22,18.67,12s8,13.33,14.67,13.33,8.89,6.67,12.44,9.33,17.33,12.89,20,16.89,7.11,11.56,15.56,14.22c8.44,2.67,12.44,11.11,17.78,14.67,5.33,3.56,11.11,16,18.22,16.44s11.56-1.33,16.89,6.67c5.33,8,3.11,11.56,11.56,13.33s12.44,4.44,19.11,11.56c6.67,7.11,11.56,8.89,17.78,13.78s9.78,7.56,17.33,13.78c7.56,6.22,22.22,12,28.44,20.44,6.22,8.44,12.89,30.22,17.33,38.22,4.44,8,1.33,20.89,11.11,27.11,9.78,6.22,18.22,7.56,20.89,18.22,2.67,10.67,4,29.78,0,39.56s-7.11,22.67-6.67,30.22c.44,7.56,5.78,30.67,1.78,35.56s-8.89,14.22-13.33,16.89c-4.44,2.67-14.67,5.33-15.11,12.89-.44,7.56-3.83,18.87-2.78,27.98l-14.29.12-39.11,3.11-22.22-31.56s-12-1.33-21.33.89c-9.33,2.22-14.22,11.11-20.54,15.56s-16.35,7.11-24.8,8.89c-8.44,1.78-18.22-1.33-18.22-1.33l-18.44,6.67-18.9,10.67-29.78,24.48,4,6.63-28.94,20.43c-10.36-4.02-24.48-7.43-32.1-12.08-10.2-6.22-39.97-20-46.2-28-6.22-8-22.67-45.78-22.67-45.78,0,0-19.56-52-20.89-55.56s-12.89-22.22-12.89-22.22l-9.15,17.16-33.51-39.83-64.25,62.93-28.09-57.94s-23.11-29.33-29.33-34.67-40-40.89-43.56-48c-3.56-7.11-42.67-44.44-46.22-53.33-3.56-8.89-5.6-13.21-5.6-13.21l-9.49-21.86s18.25-18.48,29.36-27.81c11.11-9.33,43.56-27.11,83.11-45.78,39.56-18.67,192-84.89,192-84.89,0,0,29.78-14.73,46.22-16.92s26.42-5.12,26.42-5.12l9.72,5.73Z"/><path id="Cressington" class="cls-1" d="m1450.15,2819.3c-.5-.64-5.96-7.88-13.59-15.3-27.02-26.23-93.28-89.45-160.41-151.2-9.35-8.61-20.42-17.66-29.7-26.1l72.43-84.25-20.74-18.96,35.56-39.11s16-21.93,18.96-29.63c2.96-7.7,15.41-18.37,15.41-18.37l24.3-15.41,60.44-37.93,31.41-17.19s17.54-11.03,24.65-12.81c7.11-1.78,27.85-7.7,30.22-9.48s26.07-5.93,26.07-5.93l40.3-33.78,114.37,210.96s7.11,24.3,5.93,37.33c-1.19,13.04-2.37,49.19-2.37,49.19l-34.96,34.96-12.44,14.81-182.52-10.67s5.93,12.44,16,21.33c10.07,8.89,26.67,23.7,26.67,23.7,0,0-14.81,29.63-21.93,40.3-7.11,10.67-38.52,43.26-38.52,43.26,0,0-12.44,10.07-11.85,17.19.59,7.11,2.96,12.44,2.96,12.44l-16.63,20.63Z"/><path id="County" class="cls-2" d="m667.22,565.8l39.56-1.33,28.44,3.11s-5.33,8.89-6.67,17.33-4.44,42.22-4.44,42.22l5.78-.44,42.67-37.33,27.56,2.22,14.67-10.22,20.89-5.33s32.89-6.22,40.44-6.67,23.11-8.44,28-9.78,34.67,4.44,34.67,4.44l28.44,3.56,32,18.22,46.34,30.74-101.98,52.47-6.06,137c-19.21-10.95-37.48-22.34-37.48-22.34l-93.04-48.59s-16.59,23.7-17.19,32.59c-.59,8.89-7.11,53.93-12.44,61.04-5.33,7.11-10.07,17.78-23.11,20.15l-38.47,7.45s-3.43-4.37-6.03-6.32c-3.56-2.67-11.65-7.42-18.31-9.64s-31.56-6.67-31.56-6.67l-50.84-114.45,13.13-4.38-24.54-45.35s18.67-6.67,20-18.67,1.87-21.31,1.87-21.31h16l-2.67-46.67,19.79-25.04,14.58,7.98Z"/><path id="Clubmoor" class="cls-2" d="m1305.94,948.34c5.33-10.07,30.22-32.59,30.22-32.59l33.38-27.19-69.14-86.48-12.44-16.59-49.78-62.22-77.04-87.7-13.63-31.41-31.72-65.16-54.26,25.63,20.15,32-36.11,19.93-101.98,52.47-6.06,137,57.59,36.55c17.19,13.63,47.41,44.44,53.93,55.11s27.45,64.57,27.45,64.57l11.4,33.33s5.78-4.89,8.44-3.11,17.33,18.22,17.33,18.22l26.67-21.33-4.44-9.78,11.56-8s16.44,13.33,22.37,14.22,25.18,4.44,25.18,4.44l48,76s16.44-24.89,21.78-32.89,24.37-42.82,24.37-42.82l16.79-42.21Z"/><path id="Church" class="cls-2" d="m1452.93,2320.3c-8.3-11.26-38.52-77.04-45.04-96-6.52-18.96-25.1-66.33-25.1-66.33l-74.16-155.3,81.16-61.03,12.55-18.97,24.89-17.33,52.44-30.67s13.33-10.67,16.89-13.78c3.56-3.11,7.56-10.67,7.56-10.67,0,0,40,24.44,45.78,29.33,5.78,4.89,33.78,18.67,43.56,24,9.78,5.33,111.7,43.77,111.7,43.77l23.25,100.85-36.58,10.27,79.41,84.74s-10.67,4.44-17.78,10.67c-7.11,6.22-12.44,16-16.89,23.11-4.44,7.11-26.67,22.22-42.67,27.56s-28.44,18.67-28.44,18.67l-59.56,80.3-40.3,33.78s-23.7,4.15-26.07,5.93c-2.37,1.78-23.11,7.7-30.22,9.48-7.11,1.78-24.65,12.81-24.65,12.81l-31.72-45.17Z"/><path id="Childwall" class="cls-2" d="m1729.9,1536.68l113.78-22.67,4.44,32s-4.29-2.1,14.7,16.56l-37.48,37.41,16.89,15.56-43.56,49.78s20.89,17.78,29.78,22.67c8.89,4.89,29.78,24.44,35.56,29.33l34.19,39.21-36.74,25.19,5.04,6.81-14.52,9.19-11.56,13.04s48,37.93,56,45.33c8,7.41,28.44,24.89,30.22,26.67,1.78,1.78,5.33,6.52,5.33,6.52,0,0-9.19,10.07-14.22,13.33-5.04,3.26-34.67,22.81-34.67,22.81l-35.56,38.52-3.26,14.81-5.93-1.78s0-6.22-4.44-7.7c-4.44-1.48-6.81-2.37-9.48-.89-2.67,1.48-4.74,4.15-4.74,4.15l-3.85,11.85-110.67-36.82s-101.93-38.44-111.7-43.77c-9.78-5.33-32.8-15.81-38.58-20.7l35.23-49.85,31.41-48s10.67-18.07,9.78-25.19-19.85-102.22-19.85-102.22c0,0-19.26.89-23.41,2.67-4.15,1.78-19.56,5.33-25.78,9.48-6.22,4.15-9.19,9.78-18.37,9.48-9.19-.3-25.19-.3-25.19-.3,0,0,2.37-17.78,0-22.52-2.37-4.74-9.48-19.56-12.44-24-2.96-4.44-12.15-9.19-15.41-17.78-3.26-8.59-5.93-14.52-6.22-21.33-.3-6.81,0-28.74,0-28.74l-68.15,1.48s-5.04-33.48-5.33-45.63c-.3-12.15-1.78-41.19-1.78-41.19,0,0,18.96,6.81,26.37,11.56,7.41,4.74,33.48,22.52,40.3,26.07,6.81,3.56,18.96,6.52,31.11,6.52s27.56-5.33,37.33-5.04c9.78.3,14.22-1.19,21.04,3.26,6.81,4.44,9.78,17.19,25.48,21.04,15.7,3.85,26.96,10.07,39.11,12.44,12.15,2.37,99.79-18.64,99.79-18.64Z"/><path id="Central" class="cls-2" d="m240.44,1433.46c4.24,19.06,8.22,34.17,11.51,41.56,5.71,12.85,33.48,82.43,65.72,163.31.45,1.13,3.58,7.38,7.92,18.26l37.01-14.39,9.78-.89,33.78-13.78,5.33,10.22s19.56-7.11,25.33-8.44c5.78-1.33,28-18.22,35.56-22.67s46.67-34.67,46.67-34.67l37.33-12.44s23.11,46.22,29.33,56.44c6.22,10.22,2.67,20,2.67,20l32.89,4.89,41.49,6.23,38.13,13.47,68.44,6.67-2.22,32.89,63.11-11.56,44.76-1.28s-22.76-12.78-31.06-21.67-18.96-23.7-20.74-32.59-7.7-26.67-7.7-26.67l18.96-4.23-14.22-81.1h65.33v-18.6l-7.56-.44,2.22-83.56-56.89,9.33-44,10.67s-8-15.11-9.78-21.33c-1.78-6.22-4-41.45-4-41.45l-51.56,40.56s-16.44,1.33-27.11,1.33-50.67,4-58.22,4.89c-7.56.89-40.89,7.56-40.89,7.56,0,0-29.78.44-36,.44s-23.11-.89-28.44-2.67-19.11-1.33-18.67-10.67,1.43-40.58,1.43-40.58c0,0-42.31,11.91-52.98,13.69-10.67,1.78-38.67,5.56-38.67,5.56l-53.33,7.33-45.33,19.56-.44-27.56-31.56.44s.44,13.78-.44,18.22-5.78,13.33-9.33,13.78c-3.56.44-13.78-2.22-17.78,1.78l-15.96,4.19"/><path id="Belle_Vale" class="cls-2" d="m1862.81,1562.34c7.44,9.06,15.67,19.94,18.78,27.28,6.22,14.67,37.33,71.11,37.33,71.11,0,0,6.22,12.89,15.11,12.89s29.33-.89,29.33-.89c0,0,7.56,23.56,12.89,32,5.33,8.44,28,22.67,41.78,21.33,13.78-1.33,36,16,36,16,0,0,76.44,38.67,86.67,46.67,10.22,8,33.78,24.44,33.78,24.44l56.44-37.33,60-24.89,3.56,5.33,122.22-52.44,11.11,5.78s4,20.89,7.56,26.22c3.56,5.33,17.78,23.11,17.78,28.89s0,13.33,6.67,16.44,12.44-2.22,12.44-2.22c0,0,5.78,5.78,8.44,15.11,2.67,9.33-2.67,21.78,0,31.11,2.67,9.33,10.67,36.89,11.56,46.67s2.67,19.11-2.67,27.56c-5.33,8.44-10.67,12-8,20s4,4.89-1.33,15.11c-5.33,10.22.69,25.78,13.01,36.89,12.32,11.11,19.88,12.89,28.32,17.33s12.89,8.44,14.67,17.33c1.78,8.89-.44,16.89,16.44,24,16.89,7.11,25.78,14.22,25.78,14.22,0,0-2.67,11.56,5.33,20.44s16.89,26.22,25.33,32c8.44,5.78,15.11,21.78,16.44,28.89s4.89,19.11,4.89,19.11l-18.67,9.78s2.22-8.44-37.78-7.11c-40,1.33-34.67-2.67-40-8-5.33-5.33-16.44-7.11-21.78-6.22-5.33.89-11.56-8.89-26.67-11.56-15.11-2.67-21.78,4.44-31.56,2.22s-7.11-8-26.22-8-24,.89-43.11-1.33c-19.11-2.22-30.67-11.11-46.67-11.11s-32.89-4.44-40,2.22c-7.11,6.67,0,15.56-17.33,16-17.33.44-22.67,5.78-33.33,5.78s-17.78-.44-17.78-.44c0,0-17.78,16.44-25.78,23.56l-70.07-96.74-78.22-105.48-96.3-117.04-60.44-74.67s-29-34.61-34.78-39.5-26.67-24.44-35.56-29.33-29.78-22.67-29.78-22.67l43.56-49.78-16.89-15.56,37.48-37.41Z"/><path id="Anfield" class="cls-2" d="m731.34,1000.77l78.6,28.19,57.4,95.36,13.98,12.89,55.8,35.11,32.81,40.2s13.79-8.55,21.34-12.17,35.11-10.61,35.11-10.61l-7.56-28.89-17.73,12.89-4.49-8,30.67-31.11-72.89-50.67-16.89-36.89,26.22-22.53,16.89-17.03,20.49-28.44,31.51,25.78,8-7.56,35.88-35.06s-20.93-53.91-27.45-64.57-36.74-41.48-53.93-55.11c-9.04-7.17-35.03-22.97-57.59-36.55-20.31-12.23-37.48-22.34-37.48-22.34l-93.04-48.59s-16.59,23.7-17.19,32.59c-.59,8.89-7.11,53.93-12.44,61.04-5.33,7.11-10.07,17.78-23.11,20.15s-38.47,7.45-38.47,7.45c0,0-7.79,1.81-8.68,11.59l-13.8,73.44-31.73,45.53,69.75,13.9Z"/><path id="Allterton_Hunts_Cross" class="cls-2" d="m2298.84,2728.18l-75.49-160.26s-16.57-39.92-19.68-50.59c-3.11-10.67-2.22-35.56-2.22-35.56-.44-9.78,3.11-23.11,7.11-45.33,4-22.22,16.44-60,16.44-60l-4-55.56-20.44-104.89-2.22-6.67-28.44-32.44s-20,9.33-30.22,13.33c-10.22,4-13.78,9.33-16,13.78-2.22,4.44-6.67,17.33-11.56,26.22s-15.56,18.67-27.11,27.56c-11.56,8.89-42.67,18.67-42.67,18.67,0,0,17.78,27.56,23.56,35.11,5.78,7.56,6.67,16.89,8.89,24,2.22,7.11,0,32,0,32,0,0-11.11.89-16.44,1.78s-24,1.78-30.67,2.22c-6.67.44-7.11,6.67-7.11,10.22s1.33,11.56,0,18.22c-1.33,6.67-19.56,13.33-19.56,13.33l-15.56-33.78-35.11,36.89-15.11-72.89-69.33-92.44-95.11-107.56s-10.67,4.44-17.78,10.67-12.44,16-16.89,23.11-26.67,22.22-42.67,27.56c-16,5.33-28.44,18.67-28.44,18.67l-59.87,79.77,114.37,210.96s7.11,24.3,5.93,37.33c-1.19,13.04-2.37,49.19-2.37,49.19l-9.28,11.81,97.19,94.67c41.78,38.22,123.56,34.22,123.56,34.22l364.33-13.33Z"/></g></g></svg>