<?xml version="1.0" encoding="utf-8"?>
<!-- Generator: Adobe Illustrator 22.0.1, SVG Export Plug-In . SVG Version: 6.00 Build 0)  -->
<svg version="1.1" xmlns="http://www.w3.org/2000/svg" xmlns:xlink="http://www.w3.org/1999/xlink" x="0px" y="0px"
	 viewBox="0 0 400 400" enable-background="new 0 0 400 400" xml:space="preserve">
<g id="ESCUDO">
	
		<circle id="CÍRCULO_1_" fill="#FFFFFF" stroke="#000000" stroke-width="11" stroke-miterlimit="10" cx="199.5" cy="200.5" r="184.5"/>
</g>
<g id="NÚMERO">
	<g>
		<rect x="1.356" y="140.999" fill="none" width="399.19" height="207.001"/>
		<path d="M263.857,270.973c0,19.043-5.332,33.98-15.996,44.814s-25.391,16.25-44.18,16.25c-21.075,0-37.261-7.383-48.56-22.154
			c-11.299-14.768-16.948-36.668-16.948-65.697c0-31.908,5.733-55.923,17.202-72.046c11.467-16.123,27.866-24.185,49.195-24.185
			c15.148,0,27.104,3.345,35.863,10.029c8.76,6.687,14.959,17.056,18.6,31.104l-33.643,4.697
			c-3.218-11.763-10.41-17.646-21.582-17.646c-9.565,0-17.076,4.782-22.535,14.346c-5.459,9.565-8.188,24.079-8.188,43.545
			c3.809-6.348,9.097-11.215,15.869-14.6c6.77-3.385,14.429-5.078,22.979-5.078c15.996,0,28.647,5.078,37.959,15.234
			C259.201,239.742,263.857,253.537,263.857,270.973z M228.057,271.988c0-10.156-2.35-17.92-7.047-23.297
			c-4.697-5.373-11.151-8.061-19.359-8.061c-7.872,0-14.178,2.52-18.917,7.553c-4.741,5.037-7.109,11.701-7.109,19.996
			c0,10.41,2.476,19.023,7.427,25.834c4.951,6.814,11.446,10.221,19.488,10.221c8.039,0,14.302-2.857,18.789-8.57
			C225.813,289.951,228.057,282.061,228.057,271.988z"/>
	</g>
</g>
<g id="LETRAS">
	<g>
		<rect x="0.667" y="42" fill="none" width="400.668" height="82.334"/>
		<path d="M148.86,45.699h13.013v56h33.205v12.6H148.86V45.699z"/>
		<path d="M221.91,45.699h16.333l24.052,68.6h-14.18l-4.397-13.1h-28l-4.397,13.1h-13.461L221.91,45.699z M239.59,89.099
			l-5.833-17.4c-0.48-1.4-1.167-3.733-2.064-7c-0.897-3.266-1.496-5.433-1.795-6.5h-0.449c-0.3,1.067-0.896,3.234-1.794,6.5
			c-0.897,3.267-1.586,5.6-2.064,7l-5.833,17.4H239.59z"/>
	</g>
</g>
</svg>
