<?xml version="1.0" encoding="UTF-8" standalone="no"?>
<!-- Created with Inkscape (http://www.inkscape.org/) -->
<svg
   xmlns:dc="http://purl.org/dc/elements/1.1/"
   xmlns:cc="http://web.resource.org/cc/"
   xmlns:rdf="http://www.w3.org/1999/02/22-rdf-syntax-ns#"
   xmlns:svg="http://www.w3.org/2000/svg"
   xmlns="http://www.w3.org/2000/svg"
   xmlns:sodipodi="http://sodipodi.sourceforge.net/DTD/sodipodi-0.dtd"
   xmlns:inkscape="http://www.inkscape.org/namespaces/inkscape"
   width="375.72333"
   height="395.16309"
   id="svg2195"
   sodipodi:version="0.32"
   inkscape:version="0.44"
   version="1.0"
   sodipodi:docbase="C:\Documents and Settings\Joan Borràs Comes\Escritorio\Localización de (Murcia)"
   sodipodi:docname="Localización de Puerto Lumbreras.svg">
  <defs
     id="defs1369">
    <clipPath
       id="SVG_CP_1">
      <path
         id="path6"
         d="M 0,0 L 0,413.26299 L 777.74173,413.26299 L 777.74173,0 L 0,0 z " />
    </clipPath>
  </defs>
  <sodipodi:namedview
     id="base"
     pagecolor="#ffffff"
     bordercolor="#666666"
     borderopacity="1.0"
     inkscape:pageopacity="0.0"
     inkscape:pageshadow="2"
     inkscape:zoom="1.2956676"
     inkscape:cx="187.86166"
     inkscape:cy="197.58154"
     inkscape:document-units="px"
     inkscape:current-layer="g2259"
     inkscape:window-width="1024"
     inkscape:window-height="710"
     inkscape:window-x="-4"
     inkscape:window-y="-4" />
  <metadata
     id="metadata1372">
    <rdf:RDF>
      <cc:Work
         rdf:about="">
        <dc:format>image/svg+xml</dc:format>
        <dc:type
           rdf:resource="http://purl.org/dc/dcmitype/StillImage" />
      </cc:Work>
    </rdf:RDF>
  </metadata>
  <g
     inkscape:label="Capa 1"
     inkscape:groupmode="layer"
     id="layer1"
     transform="translate(-187.1383,-334.8605)">
    <g
       id="g2259">
      <path
         clip-path="url(#SVG_CP_1)"
         stroke-miterlimit="10"
         d="M 553.18725,277.69907 L 553.90723,277.93909 L 552.70726,278.65914 L 552.46726,278.41912 L 552.94725,278.17911 L 552.70726,277.45906 L 553.18725,277.69907"
         id="path178"
         style="fill:#f6c567;fill-opacity:1;stroke:black;stroke-width:0.24545901;stroke-miterlimit:10"
         transform="matrix(1.0185,0,0,1.0185,-21.10588,321.9647)" />
      <path
         clip-path="url(#SVG_CP_1)"
         stroke-miterlimit="10"
         d="M 353.27186,142.32978 L 352.79187,144.24991 L 350.39192,144.72994 L 350.39192,146.17004 L 349.19195,147.61014 L 348.95195,148.5702 L 347.75198,148.33019 L 347.032,146.17004 L 346.07202,146.65007 L 345.59203,145.93002 L 344.87205,146.65007 L 344.63205,147.37012 L 345.35204,148.33019 L 345.11204,149.29025 L 343.19209,149.05024 L 340.55215,149.53027 L 341.03214,150.73035 L 340.79214,152.41047 L 341.99212,152.65049 L 342.4721,153.13052 L 342.4721,153.85057 L 342.95209,154.09058 L 342.4721,154.81063 L 341.75212,156.49075 L 341.03214,156.49075 L 340.31215,157.45081 L 339.11218,158.41088 L 339.35218,161.29108 L 337.91221,167.05147 L 337.91221,173.05189 L 338.1522,174.97202 L 336.95223,175.45205 L 333.59231,178.09223 L 330.95237,181.45246 L 330.95237,182.41253 L 329.99239,182.65255 L 328.07244,183.85263 L 326.15248,185.77276 L 324.23252,185.77276 L 322.79256,185.77276 L 322.07257,186.25279 L 320.63261,185.53274 L 320.15262,186.01278 L 309.59286,187.69289 L 308.87288,187.45288 L 308.1529,187.45288 L 303.11301,186.49281 L 301.19306,187.21286 L 300.47307,187.93291 L 295.19319,188.65296 L 291.59328,189.61302 L 290.15331,189.13299 L 288.95334,189.37301 L 288.47335,189.13299 L 287.99336,189.61302 L 285.11343,188.41294 L 278.63358,190.57309 L 276.47363,191.53316 L 275.51365,192.73324 L 273.1137,192.97325 L 260.394,199.21368 L 258.71404,200.8938 L 256.79408,202.09388 L 255.35411,204.25403 L 247.91428,209.53439 L 243.59438,213.13464 L 242.39441,212.65461 L 240.47446,216.25485 L 238.5545,217.93497 L 226.31478,225.6155 L 224.87482,225.6155 L 222.95486,226.09553 L 220.07493,225.85551 L 217.67498,224.1754 L 214.79505,222.7353 L 210.71514,219.61508 L 210.23515,218.415 L 211.43513,213.85469 L 213.11509,210.25444 L 213.11509,208.81434 L 216.715,205.45411 L 221.0349,202.81393 L 227.75475,195.85345 L 230.15469,191.77317 L 230.15469,189.85304 L 229.9147,188.65296 L 231.11467,186.25279 L 232.79463,183.61261 L 233.75461,182.89256 L 236.15456,178.33225 L 235.91456,176.65213 L 237.35453,173.77194 L 237.83452,171.61179 L 239.27448,170.17169 L 243.35439,168.25156 L 245.99433,165.61138 L 247.1943,164.89133 L 253.67415,163.45123 L 258.95403,161.5311 L 265.43388,154.3306 L 266.87385,149.53027 L 269.51379,145.44999 L 272.63371,143.28984 L 276.71362,144.96996 L 277.4336,144.48992 L 278.63358,144.48992 L 283.19347,149.05024 L 286.3134,149.53027 L 287.99336,149.29025 L 291.11329,147.85016 L 294.23322,147.37012 L 302.87302,144.96996 L 305.99295,143.52986 L 311.27282,139.44958 L 314.15276,136.08935 L 316.7927,134.88927 L 319.91262,135.12928 L 321.1126,134.40923 L 323.27255,130.32895 L 327.35245,129.6089 L 329.03241,128.88885 L 326.39247,126.48869 L 326.63247,125.04859 L 328.79242,126.24867 L 329.5124,125.52862 L 329.99239,125.52862 L 330.23239,126.24867 L 331.91235,126.48869 L 331.67235,122.64842 L 332.39234,122.40841 L 334.0723,123.12846 L 335.27227,124.08852 L 335.75226,123.84851 L 335.99225,122.40841 L 337.67221,121.92837 L 339.59217,123.60849 L 339.83216,124.56856 L 340.79214,124.32854 L 342.23211,125.28861 L 342.95209,125.28861 L 343.43208,125.52862 L 343.19209,126.48869 L 344.15207,126.7287 L 344.39206,124.32854 L 345.35204,124.56856 L 346.55201,123.60849 L 347.032,123.60849 L 347.51199,125.04859 L 348.71196,125.28861 L 349.67194,126.00866 L 350.87191,127.44875 L 350.15193,129.6089 L 351.1119,130.32895 L 350.39192,131.049 L 349.19195,130.80898 L 348.71196,131.049 L 348.71196,133.68918 L 349.67194,134.16922 L 349.91193,135.60931 L 350.63192,136.56938 L 353.03186,137.76946 L 353.75184,139.44958 L 353.51185,140.40964 L 353.27186,142.32978"
         id="path10"
         style="fill:#f6c567;fill-opacity:1;stroke:black;stroke-width:0.24545901;stroke-miterlimit:10"
         transform="matrix(1.0185,0,0,1.0185,-21.10588,321.9647)" />
      <path
         clip-path="url(#SVG_CP_1)"
         stroke-miterlimit="10"
         d="M 428.39012,139.44958 L 428.15013,139.92961 L 428.15013,144.00989 L 426.95016,144.96996 L 425.99018,146.65007 L 424.79021,147.37012 L 424.55021,148.09017 L 423.83023,149.29025 L 424.31022,151.4504 L 423.83023,151.93044 L 424.55021,153.37053 L 422.15027,156.97078 L 420.7103,157.93085 L 419.99032,160.33101 L 418.55035,161.05106 L 419.03034,161.77111 L 419.03034,162.73118 L 416.87039,163.69124 L 414.47044,163.69124 L 412.31049,164.89133 L 411.83051,165.61138 L 410.63053,165.13134 L 409.91055,166.33142 L 409.19057,166.09141 L 407.99059,166.57144 L 405.11066,166.33142 L 403.91069,166.81146 L 402.23073,169.21162 L 401.03075,169.69166 L 399.59079,171.37177 L 397.43084,171.61179 L 396.95085,171.8518 L 396.71085,171.37177 L 390.231,174.49199 L 387.11107,180.73241 L 384.71113,180.01236 L 379.43125,179.53233 L 379.19126,179.0523 L 376.07133,177.6122 L 375.59134,176.41212 L 372.9514,175.45205 L 371.27144,175.45205 L 371.99142,174.49199 L 371.27144,173.2919 L 373.43139,164.65131 L 371.99142,149.77029 L 369.59148,142.08976 L 370.79145,140.40964 L 376.55132,136.8094 L 379.43125,134.40923 L 380.87122,131.76905 L 381.8312,130.80898 L 382.31119,130.80898 L 385.19112,128.64884 L 386.1511,127.68877 L 394.31091,122.40841 L 400.31077,123.36847 L 404.63067,126.24867 L 414.23045,130.80898 L 417.59037,132.24908 L 420.95029,133.20915 L 423.11024,135.12928 L 427.19015,137.52945 L 428.63012,138.96955 L 428.39012,139.44958"
         id="path14"
         style="fill:#f6c567;fill-opacity:1;stroke:black;stroke-width:0.24545901;stroke-miterlimit:10"
         transform="matrix(1.0185,0,0,1.0185,-21.10588,321.9647)" />
      <path
         clip-path="url(#SVG_CP_1)"
         stroke-miterlimit="10"
         d="M 449.74963,228.25568 L 451.1896,227.77565 L 453.10955,227.53563 L 452.86956,228.97573 L 453.58954,228.97573 L 454.78951,229.45576 L 455.98949,228.73571 L 455.74949,229.93579 L 456.70947,231.61591 L 455.02951,232.57598 L 455.5095,233.77606 L 455.2695,234.49611 L 457.42945,233.29602 L 457.90944,234.01607 L 455.2695,238.8164 L 452.86956,236.89627 L 451.1896,234.49611 L 451.66959,234.25609 L 449.98963,232.33596 L 447.34969,234.25609 L 445.18974,235.45617 L 439.66986,228.97573 L 439.90986,228.49569 L 441.10983,227.77565 L 441.34982,227.0556 L 443.74977,226.09553 L 448.06967,228.97573 L 449.74963,228.25568"
         id="path18"
         style="fill:#f6c567;fill-opacity:1;stroke:black;stroke-width:0.24545901;stroke-miterlimit:10"
         transform="matrix(1.0185,0,0,1.0185,-21.10588,321.9647)" />
      <path
         clip-path="url(#SVG_CP_1)"
         stroke-miterlimit="10"
         d="M 320.8726,234.25609 L 321.1126,234.25609 L 322.31257,233.53604 L 322.79256,233.53604 L 325.4325,235.69619 L 328.79242,237.85634 L 331.43236,239.05642 L 338.87219,240.2565 L 341.51213,239.05642 L 344.15207,241.21657 L 344.39206,241.93662 L 346.31202,244.09677 L 347.51199,244.5768 L 348.71196,246.25691 L 350.63192,249.85716 L 354.23183,252.49734 L 353.27186,257.53769 L 356.39178,261.85799 L 355.19181,272.65873 L 356.15179,276.49899 L 356.87177,277.21904 L 357.59176,279.85922 L 357.83175,282.4994 L 357.35176,283.45947 L 357.59176,284.17952 L 356.87177,285.85963 L 357.35176,289.45988 L 358.07174,291.86005 L 361.19167,296.42036 L 363.35162,295.46029 L 364.5516,293.78018 L 365.75157,294.74024 L 367.91152,292.82011 L 369.35148,292.5801 L 378.23128,295.46029 L 381.5912,299.06054 L 383.03117,303.86087 L 389.75101,314.4216 L 390.231,314.66161 L 397.91083,311.06137 L 398.8708,311.30138 L 400.79076,311.30138 L 402.95071,314.90163 L 402.47072,316.10171 L 401.99073,316.34173 L 402.47072,317.54181 L 403.1907,318.26186 L 403.91069,318.98191 L 402.95071,319.22193 L 403.1907,320.18199 L 402.71072,323.30221 L 398.15082,324.98232 L 401.27075,327.14247 L 403.91069,334.10295 L 404.63067,337.46318 L 403.1907,340.10336 L 402.23073,340.34338 L 401.51074,342.98356 L 403.1907,345.14371 L 404.63067,345.62374 L 406.07064,348.98397 L 407.7506,348.74395 L 415.91041,354.98438 L 414.71044,356.90451 L 414.71044,357.38455 L 414.23045,357.86458 L 411.59051,357.86458 L 410.39054,359.06466 L 408.95057,358.82465 L 408.71058,359.30468 L 406.31063,360.26475 L 405.83064,360.9848 L 405.11066,361.22481 L 403.67069,362.18488 L 401.99073,363.62498 L 401.99073,364.58504 L 401.27075,365.06508 L 400.31077,366.98521 L 399.59079,366.74519 L 395.51088,362.66491 L 391.67097,361.22481 L 390.71099,360.26475 L 389.75101,358.58463 L 388.07105,357.38455 L 387.35107,354.74437 L 388.07105,353.30427 L 389.03103,353.30427 L 387.59106,348.26392 L 388.07105,345.14371 L 384.47114,342.26351 L 382.79117,342.26351 L 381.5912,343.46359 L 379.43125,344.18364 L 378.71127,344.90369 L 377.03131,345.14371 L 374.63136,346.58381 L 374.87136,347.06384 L 374.39137,348.0239 L 369.83147,350.9041 L 369.59148,352.82423 L 367.91152,352.82423 L 367.19153,353.54428 L 366.95154,351.86417 L 364.5516,351.14412 L 362.87163,352.58422 L 361.43167,353.06425 L 360.95168,354.74437 L 361.67166,355.70443 L 360.71168,357.62456 L 356.63178,360.50476 L 355.6718,360.9848 L 354.95182,362.18488 L 354.95182,362.90493 L 353.99184,364.10501 L 354.23183,364.82506 L 353.75184,365.06508 L 353.75184,366.26516 L 352.07188,366.98521 L 352.07188,367.46524 L 352.55187,368.18529 L 351.59189,369.86541 L 352.55187,370.34544 L 350.87191,372.7456 L 351.59189,374.1857 L 351.1119,374.90575 L 353.27186,378.26598 L 352.79187,378.74602 L 353.27186,379.46606 L 349.43194,382.10625 L 342.4721,376.34585 L 333.35231,375.38578 L 329.7524,373.94569 L 326.39247,374.1857 L 327.11246,378.98603 L 319.19264,373.22564 L 318.47266,371.78554 L 321.1126,369.86541 L 322.55256,367.70526 L 322.31257,366.98521 L 323.75254,365.30509 L 324.47252,365.06508 L 324.71251,363.86499 L 326.63247,362.66491 L 326.63247,360.50476 L 329.5124,357.62456 L 329.27241,356.90451 L 329.99239,356.18447 L 331.91235,355.46442 L 332.39234,354.74437 L 332.63233,354.98438 L 333.59231,353.06425 L 334.55229,352.10419 L 335.75226,352.10419 L 336.95223,350.9041 L 338.63219,351.86417 L 338.63219,345.14371 L 341.03214,344.42366 L 342.95209,344.18364 L 343.91207,344.42366 L 346.55201,343.70361 L 347.032,338.66326 L 349.67194,337.94321 L 348.71196,336.2631 L 347.27199,334.823 L 346.07202,332.66285 L 346.07202,331.9428 L 343.91207,332.90287 L 340.55215,332.42283 L 339.35218,333.14288 L 338.3922,333.14288 L 336.47224,333.86293 L 331.43236,332.90287 L 329.5124,332.18282 L 327.59245,332.90287 L 327.35245,334.10295 L 324.71251,336.74313 L 322.55256,337.94321 L 320.15262,340.34338 L 318.47266,338.90328 L 316.7927,339.14329 L 314.63275,338.42325 L 313.67277,338.42325 L 312.71279,338.90328 L 311.99281,340.10336 L 310.55284,340.82341 L 310.07285,342.50353 L 310.31285,342.98356 L 309.35287,343.70361 L 308.87288,345.14371 L 306.95292,345.14371 L 306.47293,345.62374 L 306.47293,346.58381 L 305.99295,346.58381 L 306.47293,347.30386 L 305.27296,348.50394 L 303.35301,349.22399 L 295.19319,337.46318 L 294.71321,336.50311 L 295.19319,335.06301 L 294.71321,334.10295 L 292.79325,332.90287 L 291.59328,330.5027 L 290.15331,329.30262 L 289.91332,327.38249 L 289.19333,326.66244 L 288.95334,324.26227 L 287.75337,322.10212 L 286.55339,322.58216 L 286.0734,320.66203 L 284.63344,319.22193 L 283.43347,315.62168 L 282.47349,314.4216 L 282.95348,310.82135 L 282.47349,309.38125 L 282.71348,307.70114 L 282.23349,306.98109 L 283.19347,304.10089 L 283.19347,301.94074 L 283.91345,301.22069 L 284.87343,300.98067 L 285.83341,299.54057 L 284.15345,294.26021 L 283.67346,289.45988 L 282.71348,287.05972 L 284.39344,278.89916 L 285.35342,275.05889 L 284.63344,273.85881 L 285.59342,268.81846 L 287.03338,265.69825 L 289.43333,263.77812 L 289.91332,261.61797 L 290.3933,260.89792 L 290.15331,258.49776 L 298.31312,251.77729 L 306.95292,245.29685 L 316.5527,236.41624 L 320.63261,234.49611 L 320.8726,234.25609"
         id="path22"
         style="fill:#f6c567;fill-opacity:1;stroke:black;stroke-width:0.24545901;stroke-miterlimit:10"
         transform="matrix(1.0185,0,0,1.0185,-21.10588,321.9647)" />
      <path
         clip-path="url(#SVG_CP_1)"
         stroke-miterlimit="10"
         d="M 562.78702,295.22028 L 562.54703,294.98026 L 562.78702,294.26021 L 563.02702,294.26021 L 563.747,294.50023 L 563.02702,295.46029 L 562.78702,295.22028"
         id="path26"
         style="fill:#f6c567;fill-opacity:1;stroke:black;stroke-width:0.24545901;stroke-miterlimit:10"
         transform="matrix(1.0185,0,0,1.0185,-21.10588,321.9647)" />
      <path
         clip-path="url(#SVG_CP_1)"
         stroke-miterlimit="10"
         d="M 503.2684,332.42283 L 503.74839,332.90287 L 503.2684,334.10295 L 503.98838,334.34297 L 504.46837,335.06301 L 503.74839,334.823 L 503.2684,335.78306 L 502.30842,334.58298 L 501.34844,334.34297 L 501.34844,335.06301 L 498.9485,334.823 L 499.18849,335.30303 L 498.46851,336.02308 L 498.46851,336.74313 L 498.22851,337.94321 L 496.54855,337.94321 L 495.82857,338.18323 L 494.3886,336.74313 L 491.98866,336.74313 L 491.74866,336.50311 L 491.02868,336.74313 L 490.54869,336.2631 L 488.86873,335.78306 L 488.38874,336.74313 L 486.22879,336.50311 L 485.50881,335.78306 L 485.02882,335.54305 L 484.54883,336.02308 L 484.06884,336.2631 L 483.58885,337.22316 L 481.4289,338.18323 L 480.70892,339.38331 L 479.02896,340.10336 L 477.58899,339.86334 L 476.86901,340.82341 L 475.18904,341.78348 L 475.18904,342.26351 L 474.70906,342.26351 L 474.94905,343.22358 L 474.46906,342.98356 L 473.74908,344.42366 L 474.22907,345.86376 L 475.90903,346.34379 L 478.06898,348.74395 L 477.34899,349.22399 L 475.42904,349.22399 L 475.18904,348.26392 L 473.98907,347.78389 L 469.66917,347.54387 L 469.42918,347.30386 L 468.2292,347.78389 L 467.98921,347.30386 L 465.58927,347.54387 L 464.1493,346.34379 L 463.42932,345.14371 L 464.38929,344.42366 L 464.62929,343.22358 L 462.70933,341.06343 L 461.74935,340.58339 L 460.30939,340.10336 L 457.90944,339.14329 L 456.22948,339.14329 L 454.06953,338.42325 L 452.38957,339.14329 L 453.10955,336.2631 L 452.86956,335.06301 L 454.54952,333.86293 L 454.30953,332.66285 L 454.54952,331.46277 L 455.74949,331.22275 L 455.02951,329.54264 L 455.74949,328.58257 L 455.02951,326.90245 L 455.74949,326.66244 L 455.74949,326.1824 L 454.06953,323.54222 L 455.74949,322.58216 L 456.70947,323.30221 L 457.66945,322.82217 L 460.30939,322.58216 L 460.54938,321.86211 L 462.70933,320.18199 L 462.94933,319.70196 L 462.70933,319.22193 L 462.94933,318.50188 L 462.46934,315.62168 L 463.42932,315.14165 L 469.66917,307.2211 L 471.34913,305.54099 L 472.30911,306.02102 L 472.7891,304.58092 L 473.74908,303.62085 L 474.22907,300.98067 L 473.74908,300.74066 L 473.74908,299.78059 L 474.22907,296.18034 L 474.70906,295.94033 L 475.90903,296.18034 L 477.109,298.10048 L 479.50894,298.58051 L 480.70892,299.54057 L 481.90889,299.78059 L 485.9888,299.54057 L 488.38874,297.86046 L 489.10872,297.62044 L 491.50867,297.86046 L 496.06856,296.66038 L 499.42849,298.34049 L 500.86845,298.10048 L 502.54841,296.90039 L 503.98838,297.38043 L 506.14833,297.14041 L 507.3483,297.86046 L 509.74825,297.62044 L 513.58816,296.90039 L 517.42807,297.14041 L 518.62804,297.62044 L 522.46795,297.86046 L 527.02785,297.14041 L 528.46782,297.62044 L 530.38777,297.38043 L 531.10775,299.54057 L 534.46768,303.62085 L 535.90764,306.50105 L 537.34761,307.70114 L 538.06759,309.62127 L 542.86748,314.18158 L 546.22741,316.10171 L 548.38736,316.82176 L 549.34733,316.58175 L 552.46726,318.26186 L 554.14722,318.26186 L 554.38722,319.70196 L 555.1072,320.18199 L 556.54717,320.90204 L 557.98714,320.90204 L 559.18711,320.18199 L 560.14709,319.22193 L 559.90709,318.50188 L 560.38708,318.02184 L 560.38708,316.34173 L 560.86707,316.10171 L 560.14709,315.14165 L 560.14709,313.70155 L 559.4271,313.22151 L 558.70712,313.22151 L 557.50715,312.50146 L 557.98714,311.06137 L 559.4271,310.82135 L 559.90709,312.02143 L 560.86707,312.26145 L 560.38708,312.50146 L 561.10706,314.18158 L 563.02702,317.78183 L 564.70698,319.94198 L 566.14695,320.66203 L 567.58691,319.46194 L 567.58691,320.18199 L 566.62694,321.14206 L 565.18697,320.90204 L 564.94697,321.38207 L 564.70698,322.34214 L 563.50701,323.54222 L 563.747,324.02226 L 563.02702,324.74231 L 562.30704,324.74231 L 562.30704,325.70237 L 561.58705,326.90245 L 561.58705,327.6225 L 559.90709,328.10254 L 558.22713,329.30262 L 554.62721,330.26268 L 551.98727,330.26268 L 551.26729,330.74272 L 550.30731,330.5027 L 549.10734,331.46277 L 548.62735,331.22275 L 547.66737,331.46277 L 546.4674,332.18282 L 546.4674,333.14288 L 542.1475,334.10295 L 539.98755,336.74313 L 537.34761,336.02308 L 535.42766,336.2631 L 535.18766,335.30303 L 535.42766,334.823 L 535.18766,334.10295 L 535.18766,329.78265 L 533.74769,328.10254 L 532.30773,327.86252 L 532.30773,325.70237 L 530.14778,324.50229 L 529.66779,324.02226 L 528.9478,323.78224 L 528.9478,322.82217 L 528.22782,322.34214 L 527.02785,322.58216 L 526.06787,319.94198 L 522.70795,319.22193 L 521.26798,318.02184 L 519.82802,318.50188 L 518.38805,319.94198 L 517.42807,320.18199 L 515.9881,321.14206 L 516.46809,321.86211 L 516.70809,324.50229 L 517.42807,325.46236 L 521.74797,324.02226 L 522.22796,324.74231 L 522.22796,325.70237 L 524.38791,328.58257 L 524.8679,330.02267 L 526.30787,331.46277 L 526.78785,331.22275 L 527.02785,331.9428 L 528.46782,331.70278 L 528.9478,336.74313 L 527.98783,336.74313 L 527.74783,336.2631 L 527.26784,336.2631 L 527.02785,336.74313 L 527.26784,338.42325 L 526.30787,338.42325 L 524.6279,339.38331 L 524.38791,338.90328 L 523.66793,339.14329 L 522.94794,339.86334 L 521.26798,340.34338 L 521.26798,340.82341 L 520.308,341.30344 L 519.34803,341.54346 L 518.38805,342.74354 L 516.46809,341.78348 L 515.50811,342.02349 L 514.54814,341.30344 L 511.42821,342.02349 L 510.70823,341.54346 L 509.26826,341.06343 L 509.50825,340.58339 L 512.38819,339.14329 L 512.86818,338.66326 L 512.14819,338.42325 L 511.42821,338.90328 L 511.18821,337.7032 L 510.46823,337.7032 L 510.22824,337.94321 L 509.98824,337.46318 L 508.54828,337.7032 L 508.30828,337.46318 L 507.82829,337.94321 L 507.5883,337.46318 L 506.38832,336.98315 L 506.38832,335.78306 L 505.66834,335.54305 L 506.38832,333.86293 L 506.86831,332.90287 L 506.62832,332.66285 L 506.62832,331.46277 L 506.14833,330.98273 L 503.0284,331.70278 L 503.2684,332.42283 M 503.0284,330.98273 L 502.78841,330.5027 L 502.06842,330.5027 L 502.30842,331.70278 L 503.0284,331.70278 L 503.0284,330.98273"
         id="path30"
         style="fill:#f6c567;fill-opacity:1;stroke:black;stroke-width:0.24545901;stroke-miterlimit:10"
         transform="matrix(1.0185,0,0,1.0185,-21.10588,321.9647)" />
      <path
         clip-path="url(#SVG_CP_1)"
         stroke-miterlimit="10"
         d="M 428.39012,302.18076 L 430.07008,305.54099 L 431.51005,307.2211 L 433.19001,311.30138 L 437.26992,312.26145 L 446.8697,316.10171 L 452.38957,322.34214 L 454.06953,323.06219 L 454.06953,323.54222 L 455.74949,326.1824 L 455.74949,326.66244 L 455.02951,326.90245 L 455.74949,328.58257 L 455.02951,329.54264 L 455.74949,331.22275 L 454.54952,331.46277 L 454.30953,332.66285 L 454.54952,333.86293 L 452.86956,335.06301 L 453.10955,336.2631 L 452.38957,339.14329 L 451.90958,338.18323 L 450.46961,338.42325 L 449.74963,337.94321 L 448.06967,338.18323 L 447.58968,339.38331 L 446.14971,340.10336 L 445.42973,341.30344 L 445.42973,342.26351 L 446.38971,342.50353 L 445.66972,343.46359 L 444.22976,343.22358 L 443.74977,342.74354 L 442.3098,343.22358 L 441.58982,343.94362 L 441.58982,343.22358 L 441.10983,342.98356 L 439.18987,343.46359 L 438.70989,342.98356 L 436.06995,342.98356 L 435.82995,342.74354 L 433.19001,342.26351 L 432.23003,342.98356 L 431.99004,342.26351 L 430.79007,342.50353 L 429.5901,343.46359 L 429.3501,344.18364 L 427.91013,343.94362 L 424.55021,346.10377 L 420.23031,351.14412 L 419.03034,351.38414 L 417.83037,352.58422 L 417.11038,352.82423 L 415.91041,354.98438 L 407.7506,348.74395 L 406.07064,348.98397 L 404.63067,345.62374 L 403.1907,345.14371 L 401.51074,342.98356 L 402.23073,340.34338 L 403.1907,340.10336 L 404.63067,337.46318 L 403.91069,334.10295 L 401.27075,327.14247 L 398.15082,324.98232 L 402.71072,323.30221 L 403.1907,320.18199 L 402.95071,319.22193 L 403.91069,318.98191 L 403.1907,318.26186 L 402.47072,317.54181 L 401.99073,316.34173 L 402.47072,316.10171 L 402.95071,314.90163 L 400.79076,311.30138 L 406.55063,307.70114 L 414.95043,304.10089 L 420.7103,299.54057 L 426.71016,298.82053 L 428.39012,302.18076"
         id="path34"
         style="fill:#f6c567;fill-opacity:1;stroke:black;stroke-width:0.24545901;stroke-miterlimit:10"
         transform="matrix(1.0185,0,0,1.0185,-21.10588,321.9647)" />
      <path
         clip-path="url(#SVG_CP_1)"
         stroke-miterlimit="10"
         d="M 469.18918,26.64183 L 469.66917,30.48209 L 485.02882,43.20297 L 487.42876,44.64307 L 489.10872,44.88308 L 489.58871,49.20338 L 491.50867,50.40346 L 492.46865,58.32401 L 494.86859,67.20462 L 493.18863,71.04488 L 491.98866,77.04529 L 489.82871,80.88556 L 492.70864,87.84603 L 486.94877,95.28654 L 481.4289,100.80692 L 478.54897,102.96707 L 475.90903,104.16715 L 471.58913,102.96707 L 469.66917,101.52697 L 466.06925,100.32689 L 462.70933,95.28654 L 456.46948,87.84603 L 449.74963,78.24537 L 446.38971,74.40511 L 442.5498,66.72458 L 435.58996,59.28407 L 432.47003,56.88391 L 421.67028,40.32277 L 424.55021,38.88267 L 424.79021,38.16262 L 428.15013,35.28242 L 433.43001,32.40223 L 436.78993,28.32195 L 437.74991,26.40181 L 441.34982,23.52162 L 442.06981,23.52162 L 442.5498,22.80157 L 445.42973,21.60148 L 450.46961,20.64142 L 455.02951,18.72129 L 468.70919,23.04158 L 469.18918,26.64183"
         id="path38"
         style="fill:#f6c567;fill-opacity:1;stroke:black;stroke-width:0.24545901;stroke-miterlimit:10"
         transform="matrix(1.0185,0,0,1.0185,-21.10588,321.9647)" />
      <path
         clip-path="url(#SVG_CP_1)"
         stroke-miterlimit="10"
         d="M 419.03034,36.72252 L 421.67028,40.32277 L 432.47003,56.88391 L 435.58996,59.28407 L 442.5498,66.72458 L 446.38971,74.40511 L 449.74963,78.24537 L 456.46948,87.84603 L 462.70933,95.28654 L 466.06925,100.32689 L 469.66917,101.52697 L 471.58913,102.96707 L 475.90903,104.16715 L 479.74894,105.84727 L 477.82898,106.56732 L 477.34899,113.5278 L 477.58899,114.9679 L 477.58899,123.12846 L 478.54897,128.88885 L 470.62915,135.84933 L 466.30925,137.28943 L 465.58927,138.48951 L 464.86928,138.72953 L 461.98935,140.88968 L 460.78938,141.36971 L 460.78938,141.60973 L 459.5894,142.56979 L 458.38943,142.56979 L 456.94946,144.00989 L 455.98949,144.24991 L 454.54952,144.96996 L 453.34955,144.00989 L 451.90958,141.84974 L 450.46961,141.60973 L 449.98963,140.88968 L 446.38971,140.40964 L 442.5498,136.8094 L 441.34982,137.52945 L 439.42987,138.00948 L 437.50991,137.76946 L 436.06995,137.04941 L 434.86997,137.28943 L 433.67,138.48951 L 432.71002,138.2495 L 431.51005,138.2495 L 430.07008,139.20956 L 428.63012,138.96955 L 427.19015,137.52945 L 423.11024,135.12928 L 420.95029,133.20915 L 417.59037,132.24908 L 414.23045,130.80898 L 404.63067,126.24867 L 400.31077,123.36847 L 394.31091,122.40841 L 394.7909,113.5278 L 394.07091,110.16757 L 393.83092,100.80692 L 393.35093,97.92673 L 393.35093,94.08646 L 391.19098,84.72582 L 389.27103,80.16551 L 390.71099,74.88514 L 391.43098,71.76493 L 395.99087,68.4047 L 398.8708,66.72458 L 399.59079,58.32401 L 400.55077,51.84356 L 399.59079,48.24331 L 404.87067,40.8028 L 408.95057,36.72252 L 413.03048,34.32236 L 416.3904,33.12228 L 419.03034,36.72252"
         id="path42"
         style="fill:#f6c567;fill-opacity:1;stroke:black;stroke-width:0.24545901;stroke-miterlimit:10"
         transform="matrix(1.0185,0,0,1.0185,-21.10588,321.9647)" />
      <path
         clip-path="url(#SVG_CP_1)"
         stroke-miterlimit="10"
         d="M 487.18877,129.84892 L 490.54869,130.80898 L 498.9485,135.60931 L 500.14847,139.20956 L 502.78841,143.52986 L 503.98838,148.5702 L 503.98838,152.8905 L 502.30842,157.2108 L 499.66848,168.25156 L 497.50853,172.81187 L 496.54855,175.93208 L 495.58857,177.37218 L 489.82871,185.29273 L 481.66889,177.37218 L 477.58899,172.57185 L 476.14902,169.93167 L 475.90903,168.73159 L 473.50908,166.09141 L 468.94919,154.57062 L 468.70919,150.25032 L 466.30925,137.28943 L 470.62915,135.84933 L 478.54897,128.88885 L 484.06884,128.88885 L 487.18877,129.84892"
         id="path46"
         style="fill:#f6c567;fill-opacity:1;stroke:black;stroke-width:0.24545901;stroke-miterlimit:10"
         transform="matrix(1.0185,0,0,1.0185,-21.10588,321.9647)" />
      <path
         clip-path="url(#SVG_CP_1)"
         stroke-miterlimit="10"
         d="M 429.3501,139.20956 L 430.07008,139.20956 L 431.51005,138.2495 L 432.71002,138.2495 L 433.67,138.48951 L 434.86997,137.28943 L 436.06995,137.04941 L 437.50991,137.76946 L 439.42987,138.00948 L 441.34982,137.52945 L 442.5498,136.8094 L 446.38971,140.40964 L 449.98963,140.88968 L 450.46961,141.60973 L 451.90958,141.84974 L 453.34955,144.00989 L 454.54952,144.96996 L 451.90958,148.33019 L 451.42959,149.77029 L 448.54966,150.49034 L 447.82968,152.17045 L 447.10969,152.8905 L 446.14971,152.65049 L 444.22976,155.7707 L 438.94988,155.05065 L 435.34996,155.05065 L 432.47003,155.7707 L 427.43015,160.091 L 425.75018,162.01113 L 422.39026,168.49157 L 418.07036,170.89174 L 417.35038,170.89174 L 414.95043,169.45164 L 414.71044,169.93167 L 415.43042,170.89174 L 414.71044,171.13175 L 413.51047,173.05189 L 412.0705,172.81187 L 410.87053,175.69207 L 406.55063,177.6122 L 404.63067,177.85222 L 401.75074,177.37218 L 397.67083,174.732 L 397.43084,171.61179 L 399.59079,171.37177 L 401.03075,169.69166 L 402.23073,169.21162 L 403.91069,166.81146 L 405.11066,166.33142 L 407.99059,166.57144 L 409.19057,166.09141 L 409.91055,166.33142 L 410.63053,165.13134 L 411.83051,165.61138 L 412.31049,164.89133 L 414.47044,163.69124 L 416.87039,163.69124 L 419.03034,162.73118 L 419.03034,161.77111 L 418.55035,161.05106 L 419.99032,160.33101 L 420.7103,157.93085 L 422.15027,156.97078 L 424.55021,153.37053 L 423.83023,151.93044 L 424.31022,151.4504 L 423.83023,149.29025 L 424.55021,148.09017 L 424.79021,147.37012 L 425.99018,146.65007 L 426.95016,144.96996 L 428.15013,144.00989 L 428.15013,139.92961 L 428.63012,138.96955 L 429.3501,139.20956"
         id="path50"
         style="fill:#f6c567;fill-opacity:1;stroke:black;stroke-width:0.24545901;stroke-miterlimit:10"
         transform="matrix(1.0185,0,0,1.0185,-21.10588,321.9647)" />
      <path
         clip-path="url(#SVG_CP_1)"
         stroke-miterlimit="10"
         d="M 455.2695,144.48992 L 455.98949,144.24991 L 456.94946,144.00989 L 458.38943,142.56979 L 459.5894,142.56979 L 460.78938,141.60973 L 460.78938,141.36971 L 461.98935,140.88968 L 464.86928,138.72953 L 465.58927,138.48951 L 466.30925,137.28943 L 468.70919,150.25032 L 468.94919,154.57062 L 473.50908,166.09141 L 475.90903,168.73159 L 476.14902,169.93167 L 477.58899,172.57185 L 481.66889,177.37218 L 489.82871,185.29273 L 491.26867,191.29314 L 486.22879,189.13299 L 476.14902,192.25321 L 473.98907,191.77317 L 472.06912,192.01319 L 469.66917,191.05312 L 469.18918,188.41294 L 468.70919,188.17293 L 468.4692,187.45288 L 469.18918,187.21286 L 468.4692,186.49281 L 468.2292,185.53274 L 467.74922,185.29273 L 467.50922,184.33266 L 467.02923,184.33266 L 466.54924,183.61261 L 465.34927,182.89256 L 459.5894,173.2919 L 457.90944,168.25156 L 457.18946,167.53151 L 455.02951,162.25114 L 451.42959,149.77029 L 451.90958,148.33019 L 454.54952,144.96996 L 455.2695,144.48992"
         id="path54"
         style="fill:#f6c567;fill-opacity:1;stroke:black;stroke-width:0.24545901;stroke-miterlimit:10"
         transform="matrix(1.0185,0,0,1.0185,-21.10588,321.9647)" />
      <path
         clip-path="url(#SVG_CP_1)"
         stroke-miterlimit="10"
         d="M 342.7121,154.09058 L 342.4721,153.85057 L 342.4721,153.13052 L 341.99212,152.65049 L 340.79214,152.41047 L 341.03214,150.73035 L 340.55215,149.53027 L 343.19209,149.05024 L 345.11204,149.29025 L 345.35204,148.33019 L 344.63205,147.37012 L 344.87205,146.65007 L 345.59203,145.93002 L 346.07202,146.65007 L 347.032,146.17004 L 347.75198,148.33019 L 348.95195,148.5702 L 349.19195,147.61014 L 350.39192,146.17004 L 350.39192,144.72994 L 352.79187,144.24991 L 353.51185,140.40964 L 360.95168,141.12969 L 361.19167,140.64966 L 362.39164,141.12969 L 365.51157,140.16963 L 366.23156,139.68959 L 368.39151,139.44958 L 370.79145,140.40964 L 369.59148,142.08976 L 371.99142,149.77029 L 373.43139,164.65131 L 371.27144,173.2919 L 365.75157,177.37218 L 362.15165,180.73241 L 359.27172,180.97243 L 358.07174,180.01236 L 344.39206,175.21203 L 341.75212,174.97202 L 338.1522,174.97202 L 337.91221,173.05189 L 337.91221,167.05147 L 339.35218,161.29108 L 339.11218,158.41088 L 340.31215,157.45081 L 341.03214,156.49075 L 341.75212,156.49075 L 342.4721,154.81063 L 342.95209,154.09058 L 342.7121,154.09058 M 343.67208,154.3306 L 344.15207,154.81063 L 343.91207,154.09058 L 342.95209,154.09058 L 343.67208,154.3306"
         id="path58"
         style="fill:#f6c567;fill-opacity:1;stroke:black;stroke-width:0.24545901;stroke-miterlimit:10"
         transform="matrix(1.0185,0,0,1.0185,-21.10588,321.9647)" />
      <path
         clip-path="url(#SVG_CP_1)"
         stroke-miterlimit="10"
         d="M 450.70961,154.3306 L 449.98963,159.13093 L 450.22962,162.73118 L 447.34969,166.09141 L 446.6297,169.69166 L 443.02979,169.21162 L 429.11011,175.93208 L 426.95016,176.1721 L 425.99018,179.53233 L 425.75018,180.25238 L 423.35024,180.4924 L 422.15027,180.01236 L 421.19029,179.53233 L 418.55035,179.0523 L 416.63039,176.89215 L 416.3904,176.1721 L 415.43042,176.41212 L 414.47044,175.93208 L 414.23045,174.732 L 410.87053,175.69207 L 412.0705,172.81187 L 413.51047,173.05189 L 414.71044,171.13175 L 415.43042,170.89174 L 414.71044,169.93167 L 414.95043,169.45164 L 417.35038,170.89174 L 418.07036,170.89174 L 422.39026,168.49157 L 425.75018,162.01113 L 427.43015,160.091 L 432.47003,155.7707 L 435.34996,155.05065 L 438.94988,155.05065 L 444.22976,155.7707 L 446.14971,152.65049 L 447.10969,152.8905 L 447.82968,152.17045 L 448.54966,150.49034 L 451.42959,149.77029 L 450.70961,154.3306"
         id="path62"
         style="fill:#f6c567;fill-opacity:1;stroke:black;stroke-width:0.24545901;stroke-miterlimit:10"
         transform="matrix(1.0185,0,0,1.0185,-21.10588,321.9647)" />
      <path
         clip-path="url(#SVG_CP_1)"
         stroke-miterlimit="10"
         d="M 453.10955,156.01072 L 455.02951,162.25114 L 457.18946,167.53151 L 457.90944,168.25156 L 459.5894,173.2919 L 465.34927,182.89256 L 466.54924,183.61261 L 467.02923,184.33266 L 467.50922,184.33266 L 467.74922,185.29273 L 468.2292,185.53274 L 468.4692,186.49281 L 469.18918,187.21286 L 468.4692,187.45288 L 468.70919,188.17293 L 469.18918,188.41294 L 469.66917,191.05312 L 468.94919,197.29355 L 468.4692,197.77358 L 468.70919,198.73365 L 468.70919,201.13382 L 465.34927,202.81393 L 465.58927,205.2141 L 463.9093,205.69413 L 463.66931,206.41418 L 463.9093,207.37424 L 464.62929,208.33431 L 463.66931,208.33431 L 463.66931,209.05436 L 462.70933,209.53439 L 461.02937,212.89462 L 460.06939,213.13464 L 460.30939,214.09471 L 459.8294,214.33472 L 460.54938,215.77482 L 460.30939,217.69495 L 458.62943,219.37507 L 457.90944,219.13505 L 457.42945,219.61508 L 456.70947,219.61508 L 455.5095,222.49528 L 454.30953,222.97532 L 452.14958,222.7353 L 451.66959,222.25527 L 452.38957,221.05518 L 452.62956,220.33513 L 452.38957,220.09512 L 451.42959,219.8551 L 451.66959,218.17499 L 452.62956,218.17499 L 453.10955,217.69495 L 451.66959,216.25485 L 451.42959,215.29479 L 452.14958,214.81476 L 451.90958,214.33472 L 451.42959,214.09471 L 450.70961,214.33472 L 450.22962,213.13464 L 451.90958,211.69454 L 452.38957,210.49446 L 452.14958,210.25444 L 449.50964,209.77441 L 448.78965,210.25444 L 448.06967,209.77441 L 448.78965,209.05436 L 448.54966,208.81434 L 447.82968,207.85428 L 446.6297,205.2141 L 446.14971,204.73406 L 445.42973,205.2141 L 444.70975,204.73406 L 444.94974,203.53398 L 446.38971,202.09388 L 446.8697,200.41377 L 449.26964,197.29355 L 449.50964,194.41335 L 448.06967,192.73324 L 447.34969,192.73324 L 446.38971,191.29314 L 443.50977,190.33307 L 443.26978,189.85304 L 442.06981,189.61302 L 441.34982,188.41294 L 440.62984,188.65296 L 440.86984,187.45288 L 439.18987,185.53274 L 439.18987,183.85263 L 439.66986,183.61261 L 439.66986,182.41253 L 440.86984,181.9325 L 440.62984,181.45246 L 441.10983,181.21245 L 440.86984,180.73241 L 441.34982,180.73241 L 441.82981,179.53233 L 444.22976,178.09223 L 444.70975,176.65213 L 445.90972,175.21203 L 446.6297,173.2919 L 446.6297,169.69166 L 447.34969,166.09141 L 450.22962,162.73118 L 449.98963,159.13093 L 451.42959,149.77029 L 453.10955,156.01072"
         id="path66"
         style="fill:#f6c567;fill-opacity:1;stroke:black;stroke-width:0.24545901;stroke-miterlimit:10"
         transform="matrix(1.0185,0,0,1.0185,-21.10588,321.9647)" />
      <path
         clip-path="url(#SVG_CP_1)"
         stroke-miterlimit="10"
         d="M 426.47017,177.85222 L 426.95016,176.1721 L 429.11011,175.93208 L 443.02979,169.21162 L 446.6297,169.69166 L 446.6297,173.2919 L 445.90972,175.21203 L 444.70975,176.65213 L 444.22976,178.09223 L 441.82981,179.53233 L 441.34982,180.73241 L 440.86984,180.73241 L 441.10983,181.21245 L 440.62984,181.45246 L 440.86984,181.9325 L 439.66986,182.41253 L 439.66986,183.61261 L 439.18987,183.85263 L 439.18987,185.53274 L 438.46989,186.97284 L 435.34996,189.13299 L 434.86997,190.09306 L 433.91,189.85304 L 432.47003,188.41294 L 431.99004,188.41294 L 431.51005,189.13299 L 430.79007,188.89297 L 429.3501,185.77276 L 428.63012,185.29273 L 426.95016,187.45288 L 426.47017,187.45288 L 425.2702,186.01278 L 428.39012,183.85263 L 427.91013,182.89256 L 428.15013,181.45246 L 427.91013,180.73241 L 425.99018,179.53233 L 426.47017,177.85222"
         id="path70"
         style="fill:#f6c567;fill-opacity:1;stroke:black;stroke-width:0.24545901;stroke-miterlimit:10"
         transform="matrix(1.0185,0,0,1.0185,-21.10588,321.9647)" />
      <path
         clip-path="url(#SVG_CP_1)"
         stroke-miterlimit="10"
         d="M 412.55049,175.21203 L 414.23045,174.732 L 414.47044,175.93208 L 415.43042,176.41212 L 416.3904,176.1721 L 416.63039,176.89215 L 418.55035,179.0523 L 421.19029,179.53233 L 422.15027,180.01236 L 422.63026,181.21245 L 422.63026,184.09264 L 423.35024,186.25279 L 422.87025,187.45288 L 421.43028,187.93291 L 420.95029,187.69289 L 420.23031,188.41294 L 419.75032,188.17293 L 419.27033,189.13299 L 417.35038,189.37301 L 417.11038,189.85304 L 415.19043,189.85304 L 410.87053,190.81311 L 408.47058,195.37342 L 404.87067,193.45329 L 398.8708,192.73324 L 395.51088,193.21327 L 395.03089,192.49322 L 393.83092,192.73324 L 392.63095,191.77317 L 389.27103,185.77276 L 387.11107,180.73241 L 390.231,174.49199 L 396.71085,171.37177 L 396.95085,171.8518 L 397.43084,171.61179 L 397.67083,174.732 L 401.75074,177.37218 L 404.63067,177.85222 L 406.55063,177.6122 L 410.87053,175.69207 L 412.55049,175.21203"
         id="path74"
         style="fill:#f6c567;fill-opacity:1;stroke:black;stroke-width:0.24545901;stroke-miterlimit:10"
         transform="matrix(1.0185,0,0,1.0185,-21.10588,321.9647)" />
      <path
         clip-path="url(#SVG_CP_1)"
         stroke-miterlimit="10"
         d="M 363.83161,179.0523 L 365.75157,177.37218 L 371.27144,173.2919 L 371.99142,174.49199 L 371.27144,175.45205 L 372.9514,175.45205 L 375.59134,176.41212 L 376.07133,177.6122 L 379.19126,179.0523 L 379.43125,179.53233 L 384.71113,180.01236 L 387.11107,180.73241 L 389.27103,185.77276 L 392.63095,191.77317 L 393.83092,192.73324 L 395.03089,192.49322 L 395.51088,193.21327 L 398.8708,192.73324 L 404.87067,193.45329 L 403.67069,194.41335 L 405.35065,198.0136 L 408.23059,202.09388 L 414.95043,210.25444 L 412.55049,211.69454 L 411.59051,213.37466 L 412.0705,218.65502 L 413.03048,223.93538 L 414.95043,226.81558 L 421.19029,225.37548 L 421.43028,232.81599 L 421.91027,234.73612 L 420.95029,235.93621 L 419.99032,235.21616 L 419.03034,237.3763 L 417.83037,237.3763 L 417.59037,237.85634 L 416.3904,237.61632 L 416.15041,238.33637 L 416.87039,240.49652 L 419.03034,242.17663 L 419.51033,243.61673 L 416.63039,246.0169 L 414.71044,246.49693 L 410.87053,249.61715 L 399.1108,251.77729 L 395.99087,252.73736 L 392.39095,254.65749 L 390.95099,255.13752 L 385.67111,254.65749 L 384.95112,254.89751 L 384.23114,255.61756 L 381.5912,255.61756 L 379.43125,254.89751 L 378.71127,255.37754 L 377.75129,255.37754 L 375.59134,253.45741 L 372.71141,252.97738 L 370.07147,253.69743 L 367.67152,255.13752 L 361.43167,260.89792 L 358.79173,262.81805 L 356.39178,261.85799 L 353.27186,257.53769 L 354.23183,252.49734 L 350.63192,249.85716 L 348.71196,246.25691 L 347.51199,244.5768 L 346.31202,244.09677 L 344.39206,241.93662 L 344.15207,241.21657 L 341.51213,239.05642 L 342.23211,238.09635 L 343.43208,237.61632 L 343.91207,236.17622 L 345.35204,234.49611 L 347.99198,232.33596 L 354.47183,228.25568 L 354.23183,227.77565 L 356.39178,226.33555 L 356.63178,224.65543 L 362.87163,215.5348 L 364.3116,214.33472 L 365.51157,211.69454 L 365.75157,210.25444 L 366.47155,209.53439 L 364.07161,200.65378 L 362.15165,180.73241 L 363.83161,179.0523 M 388.79104,238.33637 L 389.75101,237.3763 L 391.43098,238.8164 L 398.63081,234.97614 L 397.43084,233.77606 L 396.23086,231.13588 L 396.47086,229.69578 L 396.23086,227.0556 L 395.51088,224.65543 L 395.03089,224.41541 L 394.31091,223.45535 L 393.11094,223.21533 L 393.11094,222.49528 L 390.231,220.81517 L 389.03103,221.77523 L 388.55104,220.57515 L 387.59106,222.01525 L 387.11107,222.49528 L 386.1511,222.01525 L 385.9111,222.97532 L 386.39109,223.21533 L 386.63109,224.41541 L 386.1511,225.6155 L 386.39109,226.33555 L 385.9111,226.57556 L 386.39109,227.0556 L 385.67111,227.53563 L 385.9111,227.77565 L 385.67111,229.21574 L 386.39109,229.45576 L 385.67111,229.93579 L 385.9111,231.13588 L 384.47114,231.37589 L 385.19112,231.61591 L 384.23114,232.09594 L 384.95112,232.57598 L 383.27116,233.53604 L 383.51116,234.97614 L 383.03117,235.21616 L 383.51116,235.69619 L 383.75115,237.61632 L 385.43111,237.85634 L 386.1511,237.3763 L 387.59106,239.05642 L 388.79104,238.33637"
         id="path78"
         style="fill:#f6c567;fill-opacity:1;stroke:black;stroke-width:0.24545901;stroke-miterlimit:10"
         transform="matrix(1.0185,0,0,1.0185,-21.10588,321.9647)" />
      <path
         clip-path="url(#SVG_CP_1)"
         stroke-miterlimit="10"
         d="M 363.11163,190.57309 L 364.07161,200.65378 L 359.75171,198.97367 L 355.19181,199.21368 L 347.75198,204.97408 L 345.59203,207.13423 L 343.67208,209.53439 L 343.91207,214.81476 L 343.43208,218.17499 L 344.15207,220.57515 L 345.83203,223.69537 L 344.87205,224.1754 L 345.83203,224.65543 L 346.792,226.33555 L 347.27199,226.57556 L 346.07202,227.29561 L 346.792,229.69578 L 346.31202,233.29602 L 345.35204,234.49611 L 343.91207,236.17622 L 343.43208,237.61632 L 342.23211,238.09635 L 341.51213,239.05642 L 338.87219,240.2565 L 331.43236,239.05642 L 328.79242,237.85634 L 325.4325,235.69619 L 322.79256,233.53604 L 322.31257,233.53604 L 321.1126,234.25609 L 320.8726,233.05601 L 321.35259,232.09594 L 320.8726,229.45576 L 321.83258,223.45535 L 320.39261,217.45494 L 319.67263,208.57433 L 320.63261,198.49363 L 323.75254,195.85345 L 323.75254,192.25321 L 322.79256,190.81311 L 324.23252,185.77276 L 326.15248,185.77276 L 328.07244,183.85263 L 329.99239,182.65255 L 330.95237,182.41253 L 330.95237,181.45246 L 333.59231,178.09223 L 336.95223,175.45205 L 338.1522,174.97202 L 341.75212,174.97202 L 344.39206,175.21203 L 358.07174,180.01236 L 359.27172,180.97243 L 362.15165,180.73241 L 363.11163,190.57309"
         id="path82"
         style="fill:#f6c567;fill-opacity:1;stroke:black;stroke-width:0.24545901;stroke-miterlimit:10"
         transform="matrix(1.0185,0,0,1.0185,-21.10588,321.9647)" />
      <path
         clip-path="url(#SVG_CP_1)"
         stroke-miterlimit="10"
         d="M 426.95016,180.01236 L 427.91013,180.73241 L 428.15013,181.45246 L 427.91013,182.89256 L 428.39012,183.85263 L 425.2702,186.01278 L 426.47017,187.45288 L 426.23017,187.93291 L 427.19015,189.37301 L 425.75018,194.41335 L 426.47017,198.0136 L 425.99018,200.65378 L 427.43015,201.85386 L 428.15013,203.774 L 427.19015,205.69413 L 427.19015,207.37424 L 426.95016,207.61426 L 422.63026,205.93415 L 420.95029,204.97408 L 418.07036,204.25403 L 416.87039,203.53398 L 415.43042,203.29396 L 415.43042,202.3339 L 413.51047,200.41377 L 413.03048,199.69372 L 413.51047,197.53357 L 412.79048,197.29355 L 412.31049,196.33349 L 409.43056,196.09347 L 408.47058,195.37342 L 410.87053,190.81311 L 415.19043,189.85304 L 417.11038,189.85304 L 417.35038,189.37301 L 419.27033,189.13299 L 419.75032,188.17293 L 420.23031,188.41294 L 420.95029,187.69289 L 421.43028,187.93291 L 422.87025,187.45288 L 423.35024,186.25279 L 422.63026,184.09264 L 422.63026,181.21245 L 422.15027,180.01236 L 423.35024,180.4924 L 425.75018,180.25238 L 425.99018,179.53233 L 426.95016,180.01236"
         id="path86"
         style="fill:#f6c567;fill-opacity:1;stroke:black;stroke-width:0.24545901;stroke-miterlimit:10"
         transform="matrix(1.0185,0,0,1.0185,-21.10588,321.9647)" />
      <path
         clip-path="url(#SVG_CP_1)"
         stroke-miterlimit="10"
         d="M 431.51005,190.09306 L 431.51005,190.81311 L 430.79007,191.05312 L 431.51005,192.49322 L 429.5901,193.6933 L 429.11011,194.65337 L 428.63012,196.09347 L 428.87011,197.53357 L 428.39012,198.0136 L 428.39012,199.4537 L 430.79007,199.4537 L 432.47003,200.41377 L 432.47003,201.37383 L 431.51005,201.85386 L 431.51005,202.81393 L 431.75005,204.25403 L 429.83009,207.37424 L 427.19015,207.37424 L 427.19015,205.69413 L 428.15013,203.774 L 427.43015,201.85386 L 425.99018,200.65378 L 426.47017,198.0136 L 425.75018,194.41335 L 427.19015,189.37301 L 426.23017,187.93291 L 426.47017,187.45288 L 426.95016,187.45288 L 428.63012,185.29273 L 429.3501,185.77276 L 430.79007,188.89297 L 431.51005,189.13299 L 431.51005,190.09306"
         id="path90"
         style="fill:#f6c567;fill-opacity:1;stroke:black;stroke-width:0.24545901;stroke-miterlimit:10"
         transform="matrix(1.0185,0,0,1.0185,-21.10588,321.9647)" />
      <path
         clip-path="url(#SVG_CP_1)"
         stroke-miterlimit="10"
         d="M 221.51489,226.09553 L 222.95486,226.09553 L 224.87482,225.6155 L 226.31478,225.6155 L 238.5545,217.93497 L 240.47446,216.25485 L 242.39441,212.65461 L 243.59438,213.13464 L 247.91428,209.53439 L 255.35411,204.25403 L 256.79408,202.09388 L 258.71404,200.8938 L 260.394,199.21368 L 273.1137,192.97325 L 275.51365,192.73324 L 276.47363,191.53316 L 278.63358,190.57309 L 285.11343,188.41294 L 287.99336,189.61302 L 288.47335,189.13299 L 288.95334,189.37301 L 290.15331,189.13299 L 291.59328,189.61302 L 295.19319,188.65296 L 300.47307,187.93291 L 301.19306,187.21286 L 303.11301,186.49281 L 308.1529,187.45288 L 308.87288,187.45288 L 309.59286,187.69289 L 320.15262,186.01278 L 320.63261,185.53274 L 322.07257,186.25279 L 322.79256,185.77276 L 324.23252,185.77276 L 322.79256,190.81311 L 323.75254,192.25321 L 323.75254,195.85345 L 320.63261,198.49363 L 319.67263,208.57433 L 320.39261,217.45494 L 321.83258,223.45535 L 320.8726,229.45576 L 321.35259,232.09594 L 320.8726,233.05601 L 321.1126,234.25609 L 320.63261,234.49611 L 316.5527,236.41624 L 306.95292,245.29685 L 298.31312,251.77729 L 290.15331,258.49776 L 290.3933,260.89792 L 289.91332,261.61797 L 288.23335,260.17787 L 287.03338,260.17787 L 285.59342,258.25774 L 284.63344,259.45782 L 283.67346,259.2178 L 283.43347,258.25774 L 279.83355,261.61797 L 278.87357,261.61797 L 275.99364,259.69784 L 275.27365,260.17787 L 274.55367,259.93785 L 274.79366,259.69784 L 273.59369,258.73777 L 272.39372,258.25774 L 271.67374,258.49776 L 270.95375,257.77771 L 269.27379,257.29767 L 268.55381,257.53769 L 267.83382,259.2178 L 266.39386,260.6579 L 265.91387,260.17787 L 263.27393,259.2178 L 262.07396,258.25774 L 261.11398,258.25774 L 261.59397,257.05766 L 260.63399,255.85757 L 258.95403,254.89751 L 257.99405,253.21739 L 256.55408,253.45741 L 255.35411,253.93744 L 251.7542,254.17746 L 251.99419,254.65749 L 250.79422,255.85757 L 249.11426,255.37754 L 247.4343,256.57762 L 244.79436,252.97738 L 244.55436,252.49734 L 239.75447,248.8971 L 236.63454,247.457 L 236.63454,246.97696 L 235.43457,247.21698 L 234.95458,246.49693 L 233.27462,245.77688 L 229.9147,242.89668 L 228.71473,240.01649 L 227.03477,239.29644 L 225.3548,237.3763 L 224.87482,237.3763 L 220.31492,229.21574 L 220.07493,225.85551 L 221.51489,226.09553"
         id="path94"
         style="fill:#f6c567;fill-opacity:1;stroke:black;stroke-width:0.24545901;stroke-miterlimit:10"
         transform="matrix(1.0185,0,0,1.0185,-21.10588,321.9647)" />
      <path
         clip-path="url(#SVG_CP_1)"
         stroke-miterlimit="10"
         d="M 440.14985,191.77317 L 439.66986,194.89339 L 438.2299,194.41335 L 438.70989,195.37342 L 435.82995,196.81352 L 435.34996,198.49363 L 432.47003,200.41377 L 430.79007,199.4537 L 428.39012,199.4537 L 428.39012,198.0136 L 428.87011,197.53357 L 428.63012,196.09347 L 429.11011,194.65337 L 429.5901,193.6933 L 431.51005,192.49322 L 430.79007,191.05312 L 431.51005,190.81311 L 431.51005,189.13299 L 431.99004,188.41294 L 432.47003,188.41294 L 433.91,189.85304 L 434.86997,190.09306 L 435.34996,189.13299 L 438.46989,186.97284 L 439.18987,185.53274 L 440.86984,187.45288 L 440.62984,188.65296 L 440.14985,191.77317"
         id="path98"
         style="fill:#f6c567;fill-opacity:1;stroke:black;stroke-width:0.24545901;stroke-miterlimit:10"
         transform="matrix(1.0185,0,0,1.0185,-21.10588,321.9647)" />
      <path
         clip-path="url(#SVG_CP_1)"
         stroke-miterlimit="10"
         d="M 441.10983,188.41294 L 441.34982,188.41294 L 442.06981,189.61302 L 443.26978,189.85304 L 443.50977,190.33307 L 446.38971,191.29314 L 447.34969,192.73324 L 448.06967,192.73324 L 449.50964,194.41335 L 449.26964,197.29355 L 446.8697,200.41377 L 446.38971,202.09388 L 444.94974,203.53398 L 444.70975,204.73406 L 443.98976,204.73406 L 443.50977,203.29396 L 442.3098,203.05395 L 442.5498,200.17375 L 441.10983,198.97367 L 441.82981,198.25362 L 441.34982,197.77358 L 440.14985,197.29355 L 439.66986,195.61344 L 438.70989,195.37342 L 438.2299,194.41335 L 439.66986,194.89339 L 440.62984,188.65296 L 441.10983,188.41294"
         id="path102"
         style="fill:#f6c567;fill-opacity:1;stroke:black;stroke-width:0.24545901;stroke-miterlimit:10"
         transform="matrix(1.0185,0,0,1.0185,-21.10588,321.9647)" />
      <path
         clip-path="url(#SVG_CP_1)"
         stroke-miterlimit="10"
         d="M 481.18891,190.57309 L 486.22879,189.13299 L 491.26867,191.29314 L 491.50867,196.33349 L 493.42862,202.09388 L 496.06856,206.41418 L 488.14875,211.93456 L 485.02882,206.89421 L 483.82885,205.69413 L 482.14888,205.45411 L 481.66889,205.69413 L 479.26895,204.73406 L 478.78896,202.57391 L 478.06898,200.65378 L 478.30897,200.17375 L 479.02896,199.93373 L 477.109,195.85345 L 475.42904,194.17334 L 475.42904,193.21327 L 476.14902,192.73324 L 476.14902,192.25321 L 481.18891,190.57309"
         id="path106"
         style="fill:#f6c567;fill-opacity:1;stroke:black;stroke-width:0.24545901;stroke-miterlimit:10"
         transform="matrix(1.0185,0,0,1.0185,-21.10588,321.9647)" />
      <path
         clip-path="url(#SVG_CP_1)"
         stroke-miterlimit="10"
         d="M 470.86914,191.53316 L 472.06912,192.01319 L 473.98907,191.77317 L 476.14902,192.25321 L 476.14902,192.73324 L 475.42904,193.21327 L 475.42904,194.17334 L 477.109,195.85345 L 479.02896,199.93373 L 478.30897,200.17375 L 478.06898,200.65378 L 478.78896,202.57391 L 479.26895,204.73406 L 481.66889,205.69413 L 482.14888,205.45411 L 483.82885,205.69413 L 485.02882,206.89421 L 488.14875,211.93456 L 496.06856,206.41418 L 496.78855,207.61426 L 498.46851,208.57433 L 498.22851,209.05436 L 497.26854,209.05436 L 496.54855,210.25444 L 495.34858,210.25444 L 496.06856,211.69454 L 495.10858,213.37466 L 495.82857,213.37466 L 498.46851,216.01484 L 497.98852,216.73489 L 500.38846,221.2952 L 505.66834,218.89504 L 507.3483,222.49528 L 512.86818,230.65584 L 515.74811,237.13629 L 520.308,242.89668 L 529.90778,252.97738 L 531.10775,253.93744 L 530.86776,254.17746 L 531.34775,256.33761 L 530.62777,258.49776 L 528.22782,258.73777 L 526.54786,259.93785 L 525.82788,261.13794 L 523.66793,262.81805 L 521.98797,262.57804 L 518.38805,264.73818 L 516.94808,266.4183 L 513.10817,268.09841 L 503.50839,270.49858 L 501.58844,266.4183 L 499.18849,263.29809 L 497.50853,265.21822 L 495.82857,266.17828 L 495.10858,267.37837 L 494.3886,270.7386 L 493.42862,272.41871 L 492.22865,273.61879 L 490.78868,274.33884 L 490.0687,274.33884 L 488.62873,276.01896 L 487.18877,276.73901 L 483.58885,280.81929 L 484.54883,283.9395 L 482.62887,284.41954 L 481.66889,283.45947 L 481.18891,283.69949 L 479.26895,282.25939 L 478.06898,284.17952 L 476.86901,284.17952 L 475.90903,285.3796 L 474.46906,285.85963 L 472.54911,287.29973 L 472.30911,289.21987 L 469.42918,290.41995 L 468.4692,288.73983 L 467.02923,287.77977 L 466.06925,285.85963 L 464.38929,284.41954 L 465.34927,280.33926 L 461.74935,277.21904 L 459.34941,274.33884 L 456.94946,276.49899 L 454.30953,277.69907 L 451.42959,276.73901 L 452.86956,275.05889 L 451.90958,272.89874 L 449.74963,270.25856 L 445.90972,269.05848 L 445.90972,268.33843 L 443.26978,265.21822 L 441.58982,264.73818 L 440.38985,256.57762 L 438.46989,249.61715 L 440.62984,247.69701 L 439.90986,246.73695 L 437.26992,245.29685 L 435.10997,242.89668 L 431.03006,241.45659 L 429.11011,241.45659 L 426.47017,239.53645 L 425.51019,240.2565 L 422.15027,240.73654 L 421.91027,241.21657 L 422.15027,242.17663 L 421.43028,243.61673 L 419.51033,243.61673 L 419.03034,242.17663 L 416.87039,240.49652 L 416.15041,238.33637 L 416.3904,237.61632 L 417.59037,237.85634 L 417.83037,237.3763 L 419.03034,237.3763 L 419.99032,235.21616 L 420.95029,235.93621 L 421.91027,234.73612 L 421.43028,232.81599 L 421.19029,225.37548 L 423.11024,221.53522 L 423.35024,219.13505 L 430.07008,216.01484 L 431.51005,217.21492 L 430.55007,217.45494 L 429.3501,218.17499 L 428.15013,220.57515 L 429.83009,222.01525 L 435.58996,224.1754 L 437.74991,223.69537 L 440.14985,224.41541 L 441.58982,223.93538 L 444.22976,223.93538 L 446.14971,224.65543 L 446.38971,224.1754 L 445.66972,223.93538 L 445.66972,223.45535 L 448.54966,221.77523 L 449.98963,220.57515 L 452.38957,220.09512 L 452.62956,220.33513 L 452.38957,221.05518 L 451.66959,222.25527 L 452.14958,222.7353 L 454.30953,222.97532 L 455.5095,222.49528 L 456.70947,219.61508 L 457.42945,219.61508 L 457.90944,219.13505 L 458.62943,219.37507 L 460.30939,217.69495 L 460.54938,215.77482 L 459.8294,214.33472 L 460.30939,214.09471 L 460.06939,213.13464 L 461.02937,212.89462 L 462.70933,209.53439 L 463.66931,209.05436 L 463.66931,208.33431 L 464.62929,208.33431 L 463.9093,207.37424 L 463.66931,206.41418 L 463.9093,205.69413 L 465.58927,205.2141 L 465.34927,202.81393 L 468.70919,201.13382 L 468.70919,198.73365 L 468.4692,197.77358 L 468.94919,197.29355 L 469.66917,191.05312 L 470.86914,191.53316 M 445.90972,227.53563 L 443.74977,226.09553 L 441.34982,227.0556 L 441.10983,227.77565 L 439.90986,228.49569 L 439.66986,228.97573 L 445.18974,235.45617 L 447.34969,234.25609 L 449.98963,232.33596 L 451.66959,234.25609 L 451.1896,234.49611 L 452.86956,236.89627 L 455.2695,238.8164 L 457.90944,234.01607 L 457.42945,233.29602 L 455.2695,234.49611 L 455.5095,233.77606 L 455.02951,232.57598 L 456.70947,231.61591 L 455.74949,229.93579 L 455.98949,228.73571 L 454.78951,229.45576 L 453.58954,228.97573 L 452.86956,228.97573 L 453.10955,227.53563 L 451.1896,227.77565 L 448.06967,228.97573 L 445.90972,227.53563"
         id="path110"
         style="fill:#f6c567;fill-opacity:1;stroke:black;stroke-width:0.24545901;stroke-miterlimit:10"
         transform="matrix(1.0185,0,0,1.0185,-21.10588,321.9647)" />
      <path
         clip-path="url(#SVG_CP_1)"
         stroke-miterlimit="10"
         d="M 408.95057,195.61344 L 409.43056,196.09347 L 412.31049,196.33349 L 412.79048,197.29355 L 413.51047,197.53357 L 413.03048,199.69372 L 413.51047,200.41377 L 415.43042,202.3339 L 415.43042,203.29396 L 416.87039,203.53398 L 418.07036,204.25403 L 420.95029,204.97408 L 422.63026,205.93415 L 426.95016,207.61426 L 427.19015,207.37424 L 429.83009,207.37424 L 431.27006,208.57433 L 433.19001,211.21451 L 432.71002,211.93456 L 433.43001,212.41459 L 433.91,214.09471 L 431.51005,216.49487 L 431.51005,217.21492 L 430.07008,216.01484 L 423.35024,219.13505 L 423.11024,221.53522 L 421.19029,225.37548 L 414.95043,226.81558 L 413.03048,223.93538 L 422.39026,217.69495 L 421.43028,213.85469 L 419.27033,211.69454 L 419.51033,210.01443 L 418.31036,209.29438 L 415.43042,209.53439 L 414.95043,210.25444 L 408.23059,202.09388 L 405.35065,198.0136 L 403.67069,194.41335 L 404.87067,193.45329 L 408.47058,195.37342 L 408.95057,195.61344"
         id="path114"
         style="fill:#f6c567;fill-opacity:1;stroke:black;stroke-width:0.24545901;stroke-miterlimit:10"
         transform="matrix(1.0185,0,0,1.0185,-21.10588,321.9647)" />
      <path
         clip-path="url(#SVG_CP_1)"
         stroke-miterlimit="10"
         d="M 439.18987,195.61344 L 439.66986,195.61344 L 440.14985,197.29355 L 441.34982,197.77358 L 441.82981,198.25362 L 441.10983,198.97367 L 442.5498,200.17375 L 442.3098,203.05395 L 443.50977,203.29396 L 442.06981,204.73406 L 441.10983,204.01401 L 431.51005,202.81393 L 431.51005,201.85386 L 432.47003,201.37383 L 432.47003,200.41377 L 435.34996,198.49363 L 435.82995,196.81352 L 438.70989,195.37342 L 439.18987,195.61344"
         id="path118"
         style="fill:#f6c567;fill-opacity:1;stroke:black;stroke-width:0.24545901;stroke-miterlimit:10"
         transform="matrix(1.0185,0,0,1.0185,-21.10588,321.9647)" />
      <path
         clip-path="url(#SVG_CP_1)"
         stroke-miterlimit="10"
         d="M 345.83203,234.01607 L 346.31202,233.29602 L 346.792,229.69578 L 346.07202,227.29561 L 347.27199,226.57556 L 346.792,226.33555 L 345.83203,224.65543 L 344.87205,224.1754 L 345.83203,223.69537 L 344.15207,220.57515 L 343.43208,218.17499 L 343.91207,214.81476 L 343.67208,209.53439 L 345.59203,207.13423 L 347.75198,204.97408 L 355.19181,199.21368 L 359.75171,198.97367 L 364.07161,200.65378 L 366.47155,209.53439 L 365.75157,210.25444 L 365.51157,211.69454 L 364.3116,214.33472 L 362.87163,215.5348 L 356.63178,224.65543 L 356.39178,226.33555 L 354.23183,227.77565 L 354.47183,228.25568 L 347.99198,232.33596 L 345.35204,234.49611 L 345.83203,234.01607"
         id="path122"
         style="fill:#f6c567;fill-opacity:1;stroke:black;stroke-width:0.24545901;stroke-miterlimit:10"
         transform="matrix(1.0185,0,0,1.0185,-21.10588,321.9647)" />
      <path
         clip-path="url(#SVG_CP_1)"
         stroke-miterlimit="10"
         d="M 443.74977,204.01401 L 443.98976,204.73406 L 444.70975,204.73406 L 445.42973,205.2141 L 446.14971,204.73406 L 446.6297,205.2141 L 447.82968,207.85428 L 448.54966,208.81434 L 448.78965,209.05436 L 448.06967,209.77441 L 448.78965,210.25444 L 449.50964,209.77441 L 452.14958,210.25444 L 452.38957,210.49446 L 451.90958,211.69454 L 450.22962,213.13464 L 449.26964,211.45452 L 448.30966,211.21451 L 446.6297,210.25444 L 445.18974,210.73447 L 444.94974,211.21451 L 444.22976,211.21451 L 443.98976,212.17457 L 444.22976,212.65461 L 443.50977,213.13464 L 443.50977,213.85469 L 442.06981,213.37466 L 441.82981,212.65461 L 439.18987,212.65461 L 438.70989,211.69454 L 437.26992,212.65461 L 436.78993,212.41459 L 436.30994,212.89462 L 434.14999,211.21451 L 433.19001,211.21451 L 431.27006,208.57433 L 429.83009,207.37424 L 431.75005,204.25403 L 431.51005,202.81393 L 441.10983,204.01401 L 442.06981,204.73406 L 443.50977,203.29396 L 443.74977,204.01401"
         id="path126"
         style="fill:#f6c567;fill-opacity:1;stroke:black;stroke-width:0.24545901;stroke-miterlimit:10"
         transform="matrix(1.0185,0,0,1.0185,-21.10588,321.9647)" />
      <path
         clip-path="url(#SVG_CP_1)"
         stroke-miterlimit="10"
         d="M 503.0284,220.09512 L 500.38846,221.2952 L 497.98852,216.73489 L 498.46851,216.01484 L 495.82857,213.37466 L 495.10858,213.37466 L 496.06856,211.69454 L 495.34858,210.25444 L 496.54855,210.25444 L 497.26854,209.05436 L 498.22851,209.05436 L 498.46851,208.57433 L 502.30842,214.57474 L 505.66834,218.89504 L 503.0284,220.09512"
         id="path130"
         style="fill:#f6c567;fill-opacity:1;stroke:black;stroke-width:0.24545901;stroke-miterlimit:10"
         transform="matrix(1.0185,0,0,1.0185,-21.10588,321.9647)" />
      <path
         clip-path="url(#SVG_CP_1)"
         stroke-miterlimit="10"
         d="M 412.55049,221.2952 L 412.0705,218.65502 L 411.59051,213.37466 L 412.55049,211.69454 L 414.95043,210.25444 L 415.43042,209.53439 L 418.31036,209.29438 L 419.51033,210.01443 L 419.27033,211.69454 L 421.43028,213.85469 L 422.39026,217.69495 L 413.03048,223.93538 L 412.55049,221.2952"
         id="path134"
         style="fill:#f6c567;fill-opacity:1;stroke:black;stroke-width:0.24545901;stroke-miterlimit:10"
         transform="matrix(1.0185,0,0,1.0185,-21.10588,321.9647)" />
      <path
         clip-path="url(#SVG_CP_1)"
         stroke-miterlimit="10"
         d="M 450.46961,213.61467 L 450.70961,214.33472 L 451.42959,214.09471 L 451.90958,214.33472 L 452.14958,214.81476 L 451.42959,215.29479 L 451.66959,216.25485 L 453.10955,217.69495 L 452.62956,218.17499 L 451.66959,218.17499 L 451.42959,219.8551 L 452.38957,220.09512 L 449.98963,220.57515 L 448.54966,221.77523 L 445.66972,223.45535 L 445.66972,223.93538 L 446.38971,224.1754 L 446.14971,224.65543 L 444.22976,223.93538 L 441.58982,223.93538 L 440.14985,224.41541 L 437.74991,223.69537 L 435.58996,224.1754 L 429.83009,222.01525 L 428.15013,220.57515 L 429.3501,218.17499 L 430.55007,217.45494 L 431.51005,217.21492 L 431.51005,216.49487 L 433.91,214.09471 L 433.43001,212.41459 L 432.71002,211.93456 L 433.19001,211.21451 L 434.14999,211.21451 L 436.30994,212.89462 L 436.78993,212.41459 L 437.26992,212.65461 L 438.70989,211.69454 L 439.18987,212.65461 L 441.82981,212.65461 L 442.06981,213.37466 L 443.50977,213.85469 L 443.50977,213.13464 L 444.22976,212.65461 L 443.98976,212.17457 L 444.22976,211.21451 L 444.94974,211.21451 L 445.18974,210.73447 L 446.6297,210.25444 L 448.30966,211.21451 L 449.26964,211.45452 L 450.22962,213.13464 L 450.46961,213.61467"
         id="path138"
         style="fill:#f6c567;fill-opacity:1;stroke:black;stroke-width:0.24545901;stroke-miterlimit:10"
         transform="matrix(1.0185,0,0,1.0185,-21.10588,321.9647)" />
      <path
         clip-path="url(#SVG_CP_1)"
         stroke-miterlimit="10"
         d="M 386.87108,238.33637 L 386.1511,237.3763 L 385.43111,237.85634 L 383.75115,237.61632 L 383.51116,235.69619 L 383.03117,235.21616 L 383.51116,234.97614 L 383.27116,233.53604 L 384.95112,232.57598 L 384.23114,232.09594 L 385.19112,231.61591 L 384.47114,231.37589 L 385.9111,231.13588 L 385.67111,229.93579 L 386.39109,229.45576 L 385.67111,229.21574 L 385.9111,227.77565 L 385.67111,227.53563 L 386.39109,227.0556 L 385.9111,226.57556 L 386.39109,226.33555 L 386.1511,225.6155 L 386.63109,224.41541 L 386.39109,223.21533 L 385.9111,222.97532 L 386.1511,222.01525 L 387.11107,222.49528 L 387.59106,222.01525 L 388.55104,220.57515 L 389.03103,221.77523 L 390.231,220.81517 L 393.11094,222.49528 L 393.11094,223.21533 L 394.31091,223.45535 L 395.03089,224.41541 L 395.51088,224.65543 L 396.23086,227.0556 L 396.47086,229.69578 L 396.23086,231.13588 L 397.43084,233.77606 L 398.63081,234.97614 L 391.43098,238.8164 L 389.75101,237.3763 L 387.59106,239.05642 L 386.87108,238.33637"
         id="path142"
         style="fill:#f6c567;fill-opacity:1;stroke:black;stroke-width:0.24545901;stroke-miterlimit:10"
         transform="matrix(1.0185,0,0,1.0185,-21.10588,321.9647)" />
      <path
         clip-path="url(#SVG_CP_1)"
         stroke-miterlimit="10"
         d="M 437.26992,250.3372 L 436.06995,251.29726 L 435.34996,253.21739 L 434.86997,253.69743 L 433.19001,253.93744 L 431.99004,255.37754 L 431.75005,257.05766 L 431.03006,257.77771 L 427.91013,258.01772 L 427.19015,259.45782 L 424.55021,261.37795 L 423.83023,261.61797 L 423.35024,261.37795 L 421.67028,261.85799 L 422.87025,258.97779 L 421.43028,257.29767 L 421.43028,256.57762 L 419.75032,255.85757 L 418.55035,255.13752 L 415.43042,253.93744 L 412.55049,250.57721 L 410.87053,249.61715 L 414.71044,246.49693 L 416.63039,246.0169 L 419.51033,243.61673 L 421.43028,243.61673 L 422.15027,242.17663 L 421.91027,241.21657 L 422.15027,240.73654 L 425.51019,240.2565 L 426.47017,239.53645 L 429.11011,241.45659 L 431.03006,241.45659 L 435.10997,242.89668 L 437.26992,245.29685 L 439.90986,246.73695 L 440.62984,247.69701 L 438.46989,249.61715 L 437.26992,250.3372"
         id="path146"
         style="fill:#f6c567;fill-opacity:1;stroke:black;stroke-width:0.24545901;stroke-miterlimit:10"
         transform="matrix(1.0185,0,0,1.0185,-21.10588,321.9647)" />
      <path
         clip-path="url(#SVG_CP_1)"
         stroke-miterlimit="10"
         d="M 378.23128,255.37754 L 378.71127,255.37754 L 379.43125,254.89751 L 381.5912,255.61756 L 384.23114,255.61756 L 384.95112,254.89751 L 385.67111,254.65749 L 390.95099,255.13752 L 392.39095,254.65749 L 395.99087,252.73736 L 399.1108,251.77729 L 410.87053,249.61715 L 412.55049,250.57721 L 415.43042,253.93744 L 418.55035,255.13752 L 419.75032,255.85757 L 421.43028,256.57762 L 421.43028,257.29767 L 422.87025,258.97779 L 421.67028,261.85799 L 423.35024,261.37795 L 423.83023,261.61797 L 424.55021,261.37795 L 427.19015,259.45782 L 427.91013,258.01772 L 431.03006,257.77771 L 431.75005,257.05766 L 431.99004,255.37754 L 433.19001,253.93744 L 434.86997,253.69743 L 435.34996,253.21739 L 436.06995,251.29726 L 438.46989,249.61715 L 440.38985,256.57762 L 441.58982,264.73818 L 437.9899,271.21863 L 437.9899,275.77894 L 437.50991,280.81929 L 438.94988,283.45947 L 440.38985,287.53975 L 440.86984,293.06013 L 441.34982,293.30015 L 438.94988,294.98026 L 434.14999,297.14041 L 432.71002,296.90039 L 430.31008,298.10048 L 426.71016,298.82053 L 420.7103,299.54057 L 411.83051,290.89998 L 407.99059,288.01978 L 405.59065,284.89957 L 399.59079,279.61921 L 399.1108,278.41912 L 395.99087,276.01896 L 387.59106,265.93827 L 377.75129,255.37754 L 378.23128,255.37754"
         id="path150"
         style="fill:#f6c567;fill-opacity:1;stroke:black;stroke-width:0.24545901;stroke-miterlimit:10"
         transform="matrix(1.0185,0,0,1.0185,-21.10588,321.9647)" />
      <path
         clip-path="url(#SVG_CP_1)"
         stroke-miterlimit="10"
         d="M 382.55118,260.6579 L 387.59106,265.93827 L 395.99087,276.01896 L 399.1108,278.41912 L 399.59079,279.61921 L 405.59065,284.89957 L 407.99059,288.01978 L 411.83051,290.89998 L 420.7103,299.54057 L 414.95043,304.10089 L 406.55063,307.70114 L 400.79076,311.30138 L 398.8708,311.30138 L 397.91083,311.06137 L 390.231,314.66161 L 389.75101,314.4216 L 383.03117,303.86087 L 381.5912,299.06054 L 378.23128,295.46029 L 369.35148,292.5801 L 367.91152,292.82011 L 365.75157,294.74024 L 364.5516,293.78018 L 363.35162,295.46029 L 361.19167,296.42036 L 358.07174,291.86005 L 361.67166,290.17993 L 365.51157,288.97985 L 368.15151,288.97985 L 373.67138,286.8197 L 376.31132,286.8197 L 377.03131,282.73942 L 378.23128,282.4994 L 379.43125,281.29932 L 379.19126,277.45906 L 373.1914,274.33884 L 363.35162,273.13876 L 359.27172,273.37878 L 357.59176,279.85922 L 356.87177,277.21904 L 356.15179,276.49899 L 355.19181,272.65873 L 356.39178,261.85799 L 358.79173,262.81805 L 361.43167,260.89792 L 367.67152,255.13752 L 370.07147,253.69743 L 372.71141,252.97738 L 375.59134,253.45741 L 377.75129,255.37754 L 382.55118,260.6579"
         id="path154"
         style="fill:#f6c567;fill-opacity:1;stroke:black;stroke-width:0.24545901;stroke-miterlimit:10"
         transform="matrix(1.0185,0,0,1.0185,-21.10588,321.9647)" />
      <path
         clip-path="url(#SVG_CP_1)"
         stroke-miterlimit="10"
         d="M 532.30773,255.13752 L 533.26771,256.33761 L 533.26771,257.53769 L 537.8276,261.37795 L 536.86762,263.77812 L 540.46754,266.4183 L 539.74756,268.09841 L 540.22754,269.77853 L 542.38749,271.21863 L 543.10748,270.25856 L 544.78744,271.93868 L 544.06746,272.1787 L 543.34747,273.13876 L 541.90751,276.49899 L 542.86748,278.41912 L 542.86748,279.85922 L 542.86748,280.33926 L 541.42752,282.73942 L 540.70753,282.97944 L 539.02757,285.3796 L 538.30759,284.89957 L 536.38763,284.41954 L 535.66765,285.3796 L 534.70767,284.17952 L 533.74769,282.4994 L 533.26771,286.57968 L 531.82774,286.09965 L 529.90778,287.53975 L 528.70781,285.3796 L 527.98783,284.41954 L 529.90778,281.53934 L 530.14778,280.33926 L 532.06773,277.93909 L 529.90778,276.73901 L 527.02785,273.61879 L 522.70795,271.69866 L 518.38805,264.73818 L 521.98797,262.57804 L 523.66793,262.81805 L 525.82788,261.13794 L 526.54786,259.93785 L 528.22782,258.73777 L 530.62777,258.49776 L 531.34775,256.33761 L 530.86776,254.17746 L 531.10775,253.93744 L 532.30773,255.13752"
         id="path158"
         style="fill:#f6c567;fill-opacity:1;stroke:black;stroke-width:0.24545901;stroke-miterlimit:10"
         transform="matrix(1.0185,0,0,1.0185,-21.10588,321.9647)" />
      <path
         clip-path="url(#SVG_CP_1)"
         stroke-miterlimit="10"
         d="M 534.46768,257.29767 L 535.90764,258.49776 L 541.66751,259.69784 L 544.54745,262.57804 L 546.4674,263.5381 L 548.62735,263.5381 L 550.54731,262.81805 L 551.74728,269.2985 L 551.50728,270.49858 L 553.42724,277.21904 L 553.90723,277.93909 L 552.70726,277.45906 L 551.0273,276.97902 L 551.0273,275.77894 L 547.66737,270.25856 L 545.98741,270.49858 L 545.98741,271.69866 L 544.78744,271.93868 L 543.10748,270.25856 L 542.38749,271.21863 L 540.22754,269.77853 L 539.74756,268.09841 L 540.46754,266.4183 L 536.86762,263.77812 L 537.8276,261.37795 L 533.26771,257.53769 L 533.26771,256.33761 L 534.46768,257.29767"
         id="path162"
         style="fill:#f6c567;fill-opacity:1;stroke:black;stroke-width:0.24545901;stroke-miterlimit:10"
         transform="matrix(1.0185,0,0,1.0185,-21.10588,321.9647)" />
      <path
         clip-path="url(#SVG_CP_1)"
         stroke-miterlimit="10"
         d="M 484.06884,282.25939 L 483.58885,280.81929 L 487.18877,276.73901 L 488.62873,276.01896 L 490.0687,274.33884 L 490.78868,274.33884 L 492.22865,273.61879 L 493.42862,272.41871 L 494.3886,270.7386 L 495.10858,267.37837 L 495.82857,266.17828 L 497.50853,265.21822 L 499.18849,263.29809 L 501.58844,266.4183 L 503.50839,270.49858 L 513.10817,268.09841 L 516.94808,266.4183 L 518.38805,264.73818 L 522.70795,271.69866 L 527.02785,273.61879 L 529.90778,276.73901 L 532.06773,277.93909 L 530.14778,280.33926 L 529.90778,281.53934 L 527.98783,284.41954 L 528.70781,285.3796 L 526.78785,286.33967 L 523.18794,293.06013 L 521.50798,295.22028 L 518.62804,297.62044 L 517.42807,297.14041 L 513.58816,296.90039 L 509.74825,297.62044 L 507.3483,297.86046 L 506.14833,297.14041 L 503.98838,297.38043 L 502.54841,296.90039 L 500.86845,298.10048 L 499.42849,298.34049 L 496.06856,296.66038 L 491.50867,297.86046 L 489.10872,297.62044 L 486.22879,287.77977 L 484.54883,283.9395 L 484.06884,282.25939"
         id="path166"
         style="fill:#f6c567;fill-opacity:1;stroke:black;stroke-width:0.24545901;stroke-miterlimit:10"
         transform="matrix(1.0185,0,0,1.0185,-21.10588,321.9647)" />
      <path
         clip-path="url(#SVG_CP_1)"
         stroke-miterlimit="10"
         d="M 485.50881,285.85963 L 486.22879,287.77977 L 479.26895,293.30015 L 481.90889,299.78059 L 480.70892,299.54057 L 479.50894,298.58051 L 477.109,298.10048 L 475.90903,296.18034 L 474.70906,295.94033 L 474.22907,296.18034 L 473.74908,299.78059 L 473.74908,300.74066 L 474.22907,300.98067 L 473.74908,303.62085 L 472.7891,304.58092 L 472.30911,306.02102 L 471.34913,305.54099 L 469.66917,307.2211 L 463.42932,315.14165 L 462.46934,315.62168 L 462.94933,318.50188 L 462.70933,319.22193 L 462.94933,319.70196 L 462.70933,320.18199 L 460.54938,321.86211 L 460.30939,322.58216 L 457.66945,322.82217 L 456.70947,323.30221 L 455.74949,322.58216 L 454.06953,323.54222 L 454.06953,323.06219 L 452.38957,322.34214 L 446.8697,316.10171 L 437.26992,312.26145 L 433.19001,311.30138 L 431.51005,307.2211 L 430.07008,305.54099 L 426.71016,298.82053 L 430.31008,298.10048 L 432.71002,296.90039 L 434.14999,297.14041 L 438.94988,294.98026 L 441.34982,293.30015 L 440.86984,293.06013 L 440.38985,287.53975 L 438.94988,283.45947 L 437.50991,280.81929 L 437.9899,275.77894 L 437.9899,271.21863 L 441.58982,264.73818 L 443.26978,265.21822 L 445.90972,268.33843 L 445.90972,269.05848 L 449.74963,270.25856 L 451.90958,272.89874 L 452.86956,275.05889 L 451.42959,276.73901 L 454.30953,277.69907 L 456.94946,276.49899 L 459.34941,274.33884 L 461.74935,277.21904 L 465.34927,280.33926 L 464.38929,284.41954 L 466.06925,285.85963 L 467.02923,287.77977 L 468.4692,288.73983 L 469.42918,290.41995 L 472.30911,289.21987 L 472.54911,287.29973 L 474.46906,285.85963 L 475.90903,285.3796 L 476.86901,284.17952 L 478.06898,284.17952 L 479.26895,282.25939 L 481.18891,283.69949 L 481.66889,283.45947 L 482.62887,284.41954 L 484.54883,283.9395 L 485.50881,285.85963"
         id="path170"
         style="fill:#f6c567;fill-opacity:1;stroke:black;stroke-width:0.24545901;stroke-miterlimit:10"
         transform="matrix(1.0185,0,0,1.0185,-21.10588,321.9647)" />
      <path
         clip-path="url(#SVG_CP_1)"
         stroke-miterlimit="10"
         d="M 357.83175,290.65996 L 357.35176,289.45988 L 356.87177,285.85963 L 357.59176,284.17952 L 357.35176,283.45947 L 357.83175,282.4994 L 357.59176,279.85922 L 359.27172,273.37878 L 363.35162,273.13876 L 373.1914,274.33884 L 379.19126,277.45906 L 379.43125,281.29932 L 378.23128,282.4994 L 377.03131,282.73942 L 376.31132,286.8197 L 373.67138,286.8197 L 368.15151,288.97985 L 365.51157,288.97985 L 361.67166,290.17993 L 358.07174,291.86005 L 357.83175,290.65996"
         id="path174"
         style="fill:#f6c567;fill-opacity:1;stroke:black;stroke-width:0.24545901;stroke-miterlimit:10"
         transform="matrix(1.0185,0,0,1.0185,-21.10588,321.9647)" />
      <path
         clip-path="url(#SVG_CP_1)"
         stroke-miterlimit="10"
         d="M 553.90723,280.57927 L 554.14722,280.33926 L 555.1072,281.29932 L 555.3472,282.73942 L 554.62721,283.69949 L 554.62721,286.09965 L 554.86721,287.53975 L 554.38722,286.57968 L 553.90723,283.9395 L 552.94725,282.01937 L 553.66723,281.29932 L 553.66723,280.57927 L 553.90723,280.57927"
         id="path182"
         style="fill:#f6c567;fill-opacity:1;stroke:black;stroke-width:0.24545901;stroke-miterlimit:10"
         transform="matrix(1.0185,0,0,1.0185,-21.10588,321.9647)" />
      <path
         clip-path="url(#SVG_CP_1)"
         stroke-miterlimit="10"
         d="M 529.1878,286.33967 L 529.90778,287.53975 L 531.82774,286.09965 L 533.26771,286.57968 L 533.74769,282.4994 L 534.70767,284.17952 L 535.66765,285.3796 L 536.38763,284.41954 L 538.30759,284.89957 L 539.02757,285.3796 L 537.10762,287.77977 L 534.46768,288.73983 L 533.26771,289.6999 L 532.54772,291.62003 L 532.78772,292.34008 L 532.54772,293.30015 L 532.06773,293.54016 L 532.06773,294.74024 L 530.62777,296.18034 L 530.38777,297.38043 L 528.46782,297.62044 L 527.02785,297.14041 L 522.46795,297.86046 L 518.62804,297.62044 L 521.50798,295.22028 L 523.18794,293.06013 L 526.78785,286.33967 L 528.70781,285.3796 L 529.1878,286.33967"
         id="path186"
         style="fill:#f6c567;fill-opacity:1;stroke:black;stroke-width:0.24545901;stroke-miterlimit:10"
         transform="matrix(1.0185,0,0,1.0185,-21.10588,321.9647)" />
      <path
         clip-path="url(#SVG_CP_1)"
         stroke-miterlimit="10"
         d="M 488.86873,297.62044 L 488.38874,297.86046 L 485.9888,299.54057 L 481.90889,299.78059 L 479.26895,293.30015 L 486.22879,287.77977 L 489.10872,297.62044 L 488.86873,297.62044"
         id="path190"
         style="fill:#f6c567;fill-opacity:1;stroke:black;stroke-width:0.24545901;stroke-miterlimit:10"
         transform="matrix(1.0185,0,0,1.0185,-21.10588,321.9647)" />
      <path
         clip-path="url(#SVG_CP_1)"
         stroke-miterlimit="10"
         d="M 543.34747,302.90081 L 542.86748,302.66079 L 542.38749,302.42077 L 542.86748,301.94074 L 543.58747,301.94074 L 544.06746,302.42077 L 543.58747,303.14082 L 543.34747,302.90081"
         id="path194"
         style="fill:#f6c567;fill-opacity:1;stroke:black;stroke-width:0.24545901;stroke-miterlimit:10"
         transform="matrix(1.0185,0,0,1.0185,-21.10588,321.9647)" />
      <path
         clip-path="url(#SVG_CP_1)"
         stroke-miterlimit="10"
         d="M 549.34733,305.06095 L 548.86735,304.82094 L 548.62735,303.86087 L 548.62735,303.14082 L 549.34733,301.94074 L 550.7873,303.62085 L 551.0273,304.3409 L 551.0273,304.82094 L 550.06732,305.30097 L 549.34733,305.06095"
         id="path198"
         style="fill:#f6c567;fill-opacity:1;stroke:black;stroke-width:0.24545901;stroke-miterlimit:10"
         transform="matrix(1.0185,0,0,1.0185,-21.10588,321.9647)" />
      <path
         clip-path="url(#SVG_CP_1)"
         stroke-miterlimit="10"
         d="M 528.70781,334.10295 L 528.46782,331.70278 L 527.02785,331.9428 L 526.78785,331.22275 L 526.30787,331.46277 L 524.8679,330.02267 L 524.38791,328.58257 L 522.22796,325.70237 L 522.22796,324.74231 L 521.74797,324.02226 L 517.42807,325.46236 L 516.70809,324.50229 L 516.46809,321.86211 L 515.9881,321.14206 L 517.42807,320.18199 L 518.38805,319.94198 L 519.82802,318.50188 L 521.26798,318.02184 L 522.70795,319.22193 L 526.06787,319.94198 L 527.02785,322.58216 L 528.22782,322.34214 L 528.9478,322.82217 L 528.9478,323.78224 L 529.66779,324.02226 L 530.14778,324.50229 L 532.30773,325.70237 L 532.30773,327.86252 L 533.74769,328.10254 L 535.18766,329.78265 L 535.18766,334.10295 L 534.22768,333.62292 L 532.78772,333.62292 L 532.30773,334.34297 L 532.78772,335.54305 L 530.62777,336.02308 L 530.14778,335.54305 L 528.9478,336.74313 L 528.70781,334.10295"
         id="path202"
         style="fill:#f6c567;fill-opacity:1;stroke:black;stroke-width:0.24545901;stroke-miterlimit:10"
         transform="matrix(1.0185,0,0,1.0185,-21.10588,321.9647)" />
      <path
         clip-path="url(#SVG_CP_1)"
         stroke-miterlimit="10"
         d="M 304.07299,349.94404 L 303.35301,349.22399 L 305.27296,348.50394 L 306.47293,347.30386 L 305.99295,346.58381 L 306.47293,346.58381 L 306.47293,345.62374 L 306.95292,345.14371 L 308.87288,345.14371 L 309.35287,343.70361 L 310.31285,342.98356 L 310.07285,342.50353 L 310.55284,340.82341 L 311.99281,340.10336 L 312.71279,338.90328 L 313.67277,338.42325 L 314.63275,338.42325 L 316.7927,339.14329 L 318.47266,338.90328 L 320.15262,340.34338 L 322.55256,337.94321 L 324.71251,336.74313 L 327.35245,334.10295 L 327.59245,332.90287 L 329.5124,332.18282 L 331.43236,332.90287 L 336.47224,333.86293 L 338.3922,333.14288 L 339.35218,333.14288 L 340.55215,332.42283 L 343.91207,332.90287 L 346.07202,331.9428 L 346.07202,332.66285 L 347.27199,334.823 L 348.71196,336.2631 L 349.67194,337.94321 L 347.032,338.66326 L 346.55201,343.70361 L 343.91207,344.42366 L 342.95209,344.18364 L 341.03214,344.42366 L 338.63219,345.14371 L 338.63219,351.86417 L 336.95223,350.9041 L 335.75226,352.10419 L 334.55229,352.10419 L 333.59231,353.06425 L 332.63233,354.98438 L 332.39234,354.74437 L 331.91235,355.46442 L 329.99239,356.18447 L 329.27241,356.90451 L 329.5124,357.62456 L 326.63247,360.50476 L 326.63247,362.66491 L 324.71251,363.86499 L 324.47252,365.06508 L 323.75254,365.30509 L 322.31257,366.98521 L 322.55256,367.70526 L 321.1126,369.86541 L 318.47266,371.78554 L 316.07271,366.74519 L 314.87274,364.82506 L 313.43277,363.86499 L 304.55298,350.9041 L 304.07299,349.94404"
         id="path206"
         style="fill:#c43434;fill-opacity:1;stroke:black;stroke-width:0.24545901;stroke-miterlimit:10"
         transform="matrix(1.0185,0,0,1.0185,-21.10588,321.9647)" />
      <path
         clip-path="url(#SVG_CP_1)"
         stroke-miterlimit="10"
         d="M 351.3519,380.66615 L 353.27186,379.46606 L 352.79187,378.74602 L 353.27186,378.26598 L 351.1119,374.90575 L 351.59189,374.1857 L 350.87191,372.7456 L 352.55187,370.34544 L 351.59189,369.86541 L 352.55187,368.18529 L 352.07188,367.46524 L 352.07188,366.98521 L 353.75184,366.26516 L 353.75184,365.06508 L 354.23183,364.82506 L 353.99184,364.10501 L 354.95182,362.90493 L 354.95182,362.18488 L 355.6718,360.9848 L 356.63178,360.50476 L 360.71168,357.62456 L 361.67166,355.70443 L 360.95168,354.74437 L 361.43167,353.06425 L 362.87163,352.58422 L 364.5516,351.14412 L 366.95154,351.86417 L 367.19153,353.54428 L 367.91152,352.82423 L 369.59148,352.82423 L 369.83147,350.9041 L 374.39137,348.0239 L 374.87136,347.06384 L 374.63136,346.58381 L 377.03131,345.14371 L 378.71127,344.90369 L 379.43125,344.18364 L 381.5912,343.46359 L 382.79117,342.26351 L 384.47114,342.26351 L 388.07105,345.14371 L 387.59106,348.26392 L 389.03103,353.30427 L 388.07105,353.30427 L 387.35107,354.74437 L 388.07105,357.38455 L 389.75101,358.58463 L 390.71099,360.26475 L 391.67097,361.22481 L 395.51088,362.66491 L 399.59079,366.74519 L 400.31077,366.98521 L 399.35079,368.66532 L 399.1108,368.90534 L 399.35079,369.38537 L 398.8708,370.34544 L 398.39081,372.02555 L 397.67083,372.7456 L 398.15082,373.22564 L 397.67083,373.70567 L 397.19084,377.30592 L 397.19084,377.78595 L 398.8708,378.02597 L 398.63081,379.22605 L 397.91083,379.46606 L 396.47086,381.14618 L 395.51088,381.14618 L 394.31091,380.90616 L 393.35093,378.506 L 389.51102,378.74602 L 389.27103,379.22605 L 388.31105,379.46606 L 387.11107,381.3862 L 386.39109,381.3862 L 385.9111,381.86623 L 384.95112,382.10625 L 383.75115,384.50641 L 383.03117,384.02638 L 381.35121,384.02638 L 380.87122,384.50641 L 380.87122,384.98644 L 380.63122,385.46648 L 381.35121,385.70649 L 381.11121,385.94651 L 379.67125,386.66656 L 379.91124,385.94651 L 378.47127,385.22646 L 377.2713,385.46648 L 376.79131,386.18653 L 377.2713,386.90658 L 376.79131,387.14659 L 375.83133,387.38661 L 376.07133,386.90658 L 375.59134,386.42654 L 374.63136,386.66656 L 372.23142,388.58669 L 371.27144,389.06672 L 370.07147,390.98686 L 369.83147,391.70691 L 368.6315,391.94692 L 368.15151,391.70691 L 367.43153,392.90699 L 366.95154,392.90699 L 366.23156,393.86705 L 365.99156,394.5871 L 358.07174,387.38661 L 349.43194,382.10625 L 351.3519,380.66615"
         id="path210"
         style="fill:#f6c567;fill-opacity:1;stroke:black;stroke-width:0.24545901;stroke-miterlimit:10"
         transform="matrix(1.0185,0,0,1.0185,-21.10588,321.9647)" />
      <path
         clip-path="url(#SVG_CP_1)"
         d="M 443.26978,344.42366 L 442.78979,344.18364 L 443.50977,343.46359 L 443.74977,344.42366 L 443.26978,344.42366 z "
         id="path212"
         style="fill:#f6c567;fill-opacity:1;fill-rule:evenodd;stroke:none;stroke-width:0.24545901"
         transform="matrix(1.0185,0,0,1.0185,-21.10588,321.9647)" />
      <path
         clip-path="url(#SVG_CP_1)"
         stroke-miterlimit="10"
         d="M 443.02979,344.18364 L 442.78979,344.18364 L 443.50977,343.46359 L 443.74977,344.42366 L 443.26978,344.42366 L 443.02979,344.18364"
         id="path214"
         style="fill:#f6c567;fill-opacity:1;stroke:black;stroke-width:0.24545901;stroke-miterlimit:10"
         transform="matrix(1.0185,0,0,1.0185,-21.10588,321.9647)" />
      <path
         clip-path="url(#SVG_CP_1)"
         d="M 383.75115,385.22646 L 383.75115,384.50641 L 384.47114,384.74643 L 383.75115,385.22646 z "
         id="path216"
         style="fill:#f6c567;fill-opacity:1;fill-rule:evenodd;stroke:none;stroke-width:0.24545901"
         transform="matrix(1.0185,0,0,1.0185,-21.10588,321.9647)" />
      <path
         clip-path="url(#SVG_CP_1)"
         stroke-miterlimit="10"
         d="M 383.75115,384.98644 L 383.75115,384.50641 L 384.47114,384.74643 L 383.75115,385.22646 L 383.75115,384.98644"
         id="path218"
         style="fill:#f6c567;fill-opacity:1;stroke:black;stroke-width:0.24545901;stroke-miterlimit:10"
         transform="matrix(1.0185,0,0,1.0185,-21.10588,321.9647)" />
    </g>
  </g>
</svg>
