<?xml version="1.0" encoding="UTF-8"?>
<!-- Converted by misc2svg (http://www.network-science.de/tools/misc2svg/) -->
<svg xmlns="http://www.w3.org/2000/svg" xmlns:xlink="http://www.w3.org/1999/xlink" width="459pt" height="151pt" viewBox="0 0 459 151" version="1.1">
<defs>
<clipPath id="clip1">
  <path d="M 0 151.25 L 458.75 151.25 L 458.75 0 L 0 0 L 0 151.25 Z M 0 151.25 "/>
</clipPath>
</defs>
<g id="misc2svg">
<g clip-path="url(#clip1)" clip-rule="nonzero">
<path style=" stroke:none;fill-rule:nonzero;fill:rgb(0%,0%,0%);fill-opacity:1;" d="M 25.414062 108.0625 L 25.414062 99.117188 L 29.378906 99.117188 C 30.183594 99.117188 30.789062 99.203125 31.195312 99.371094 C 31.609375 99.527344 31.941406 99.8125 32.191406 100.210938 C 32.449219 100.617188 32.582031 101.066406 32.582031 101.558594 C 32.582031 102.199219 32.371094 102.730469 31.957031 103.160156 C 31.539062 103.589844 30.90625 103.875 30.0625 104 C 30.375 104.148438 30.609375 104.289062 30.765625 104.429688 C 31.117188 104.757812 31.4375 105.152344 31.742188 105.621094 L 33.304688 108.0625 L 31.820312 108.0625 L 30.628906 106.207031 C 30.289062 105.660156 30.003906 105.25 29.769531 104.976562 C 29.546875 104.695312 29.34375 104.488281 29.164062 104.371094 C 28.992188 104.253906 28.816406 104.175781 28.636719 104.136719 C 28.503906 104.113281 28.285156 104.097656 27.972656 104.097656 L 26.605469 104.097656 L 26.605469 108.0625 L 25.414062 108.0625 Z M 26.605469 103.0625 L 29.144531 103.0625 C 29.691406 103.0625 30.109375 103.015625 30.414062 102.90625 C 30.726562 102.789062 30.960938 102.609375 31.117188 102.359375 C 31.273438 102.117188 31.351562 101.847656 31.351562 101.558594 C 31.351562 101.128906 31.195312 100.777344 30.882812 100.503906 C 30.578125 100.230469 30.101562 100.09375 29.4375 100.09375 L 26.605469 100.09375 L 26.605469 103.0625 Z M 26.605469 103.0625 "/>
<path style=" stroke:none;fill-rule:nonzero;fill:rgb(0%,0%,0%);fill-opacity:1;" d="M 33.957031 101.925781 L 34.835938 101.808594 C 34.921875 102.304688 35.09375 102.660156 35.34375 102.882812 C 35.585938 103.105469 35.878906 103.214844 36.222656 103.214844 C 36.636719 103.214844 36.988281 103.070312 37.277344 102.785156 C 37.558594 102.5 37.707031 102.148438 37.707031 101.730469 C 37.707031 101.328125 37.570312 100.996094 37.296875 100.734375 C 37.03125 100.460938 36.699219 100.324219 36.300781 100.324219 C 36.128906 100.324219 35.917969 100.355469 35.675781 100.421875 L 35.773438 99.660156 C 35.835938 99.660156 35.890625 99.660156 35.929688 99.660156 C 36.289062 99.660156 36.621094 99.5625 36.925781 99.367188 C 37.222656 99.171875 37.375 98.871094 37.375 98.46875 C 37.375 98.144531 37.261719 97.875 37.042969 97.667969 C 36.832031 97.460938 36.554688 97.355469 36.203125 97.355469 C 35.859375 97.355469 35.578125 97.464844 35.34375 97.6875 C 35.117188 97.894531 34.976562 98.214844 34.914062 98.644531 L 34.035156 98.488281 C 34.136719 97.902344 34.375 97.445312 34.757812 97.121094 C 35.148438 96.796875 35.621094 96.632812 36.183594 96.632812 C 36.574219 96.632812 36.929688 96.71875 37.257812 96.886719 C 37.59375 97.054688 37.847656 97.285156 38.019531 97.570312 C 38.199219 97.855469 38.292969 98.164062 38.292969 98.488281 C 38.292969 98.800781 38.203125 99.085938 38.039062 99.347656 C 37.867188 99.59375 37.617188 99.789062 37.296875 99.933594 C 37.726562 100.039062 38.058594 100.246094 38.292969 100.558594 C 38.527344 100.859375 38.644531 101.242188 38.644531 101.710938 C 38.644531 102.335938 38.414062 102.871094 37.960938 103.3125 C 37.5 103.742188 36.925781 103.957031 36.222656 103.957031 C 35.597656 103.957031 35.074219 103.769531 34.660156 103.390625 C 34.238281 103.011719 34.003906 102.523438 33.957031 101.925781 Z M 33.957031 101.925781 "/>
<path style=" stroke:none;fill-rule:nonzero;fill:rgb(0%,0%,0%);fill-opacity:1;" d="M 32.0625 95.125 L 24.5625 95.125 L 27.5 75.4375 L 28.25 75.25 L 29.1875 76 L 32.0625 95.125 Z M 32.0625 95.125 "/>
<path style=" stroke:none;fill-rule:nonzero;fill:rgb(0%,0%,0%);fill-opacity:1;" d="M 9.851562 55.1875 L 9.851562 46.242188 L 13.816406 46.242188 C 14.621094 46.242188 15.226562 46.332031 15.632812 46.496094 C 16.046875 46.652344 16.378906 46.9375 16.628906 47.335938 C 16.886719 47.742188 17.019531 48.191406 17.019531 48.683594 C 17.019531 49.324219 16.808594 49.855469 16.394531 50.285156 C 15.976562 50.714844 15.34375 51 14.5 51.125 C 14.8125 51.273438 15.046875 51.414062 15.203125 51.554688 C 15.554688 51.882812 15.875 52.277344 16.179688 52.746094 L 17.742188 55.1875 L 16.257812 55.1875 L 15.066406 53.332031 C 14.726562 52.785156 14.441406 52.375 14.207031 52.101562 C 13.984375 51.820312 13.78125 51.613281 13.601562 51.496094 C 13.429688 51.378906 13.253906 51.300781 13.074219 51.261719 C 12.941406 51.238281 12.722656 51.222656 12.410156 51.222656 L 11.042969 51.222656 L 11.042969 55.1875 L 9.851562 55.1875 Z M 11.042969 50.1875 L 13.582031 50.1875 C 14.128906 50.1875 14.546875 50.140625 14.851562 50.03125 C 15.164062 49.914062 15.398438 49.734375 15.554688 49.484375 C 15.710938 49.242188 15.789062 48.972656 15.789062 48.683594 C 15.789062 48.253906 15.632812 47.902344 15.320312 47.628906 C 15.015625 47.355469 14.539062 47.21875 13.875 47.21875 L 11.042969 47.21875 L 11.042969 50.1875 Z M 11.042969 50.1875 "/>
<path style=" stroke:none;fill-rule:nonzero;fill:rgb(0%,0%,0%);fill-opacity:1;" d="M 21.695312 50.945312 L 20.816406 50.945312 L 20.816406 45.339844 C 20.605469 45.546875 20.328125 45.757812 19.976562 45.964844 C 19.632812 46.160156 19.332031 46.304688 19.058594 46.394531 L 19.058594 45.554688 C 19.550781 45.320312 19.980469 45.039062 20.347656 44.714844 C 20.707031 44.390625 20.972656 44.070312 21.128906 43.757812 L 21.695312 43.757812 L 21.695312 50.945312 Z M 21.695312 50.945312 "/>
<path style=" stroke:none;fill-rule:nonzero;fill:rgb(0%,0%,0%);fill-opacity:1;" d="M 17.4375 58.1875 L 18.8125 57.375 L 28.75 74.4375 L 28.25 75.25 L 27.5 75.4375 L 17.4375 58.1875 Z M 17.4375 58.1875 "/>
<path style=" stroke:none;fill-rule:nonzero;fill:rgb(0%,0%,0%);fill-opacity:1;" d="M 52.558594 79.625 L 56.015625 74.957031 L 52.96875 70.679688 L 54.375 70.679688 L 55.996094 72.964844 C 56.332031 73.449219 56.570312 73.820312 56.71875 74.078125 C 56.914062 73.757812 57.148438 73.410156 57.421875 73.042969 L 59.21875 70.679688 L 60.507812 70.679688 L 57.363281 74.898438 L 60.761719 79.625 L 59.296875 79.625 L 57.050781 76.441406 C 56.917969 76.246094 56.789062 76.046875 56.660156 75.835938 C 56.449219 76.164062 56.308594 76.382812 56.230469 76.5 L 53.984375 79.625 L 52.558594 79.625 Z M 52.558594 79.625 "/>
<path style=" stroke:none;fill-rule:nonzero;fill:rgb(0%,0%,0%);fill-opacity:1;" d="M 50.125 74.375 L 50.125 75.9375 L 29.1875 76 L 28.25 75.25 L 28.75 74.4375 L 50.125 74.375 Z M 50.125 74.375 "/>
<path style=" stroke:none;fill-rule:nonzero;fill:rgb(0%,0%,0%);fill-opacity:1;" d="M 4.101562 99.8125 L 4.101562 90.867188 L 8.066406 90.867188 C 8.871094 90.867188 9.476562 90.957031 9.882812 91.121094 C 10.296875 91.277344 10.628906 91.5625 10.878906 91.960938 C 11.136719 92.367188 11.269531 92.816406 11.269531 93.308594 C 11.269531 93.949219 11.058594 94.480469 10.644531 94.910156 C 10.226562 95.339844 9.59375 95.625 8.75 95.75 C 9.0625 95.898438 9.296875 96.039062 9.453125 96.179688 C 9.804688 96.507812 10.128906 96.902344 10.429688 97.371094 L 11.992188 99.8125 L 10.507812 99.8125 L 9.316406 97.957031 C 8.976562 97.410156 8.691406 97 8.457031 96.726562 C 8.234375 96.445312 8.03125 96.238281 7.851562 96.121094 C 7.679688 96.003906 7.503906 95.925781 7.324219 95.886719 C 7.191406 95.863281 6.972656 95.847656 6.660156 95.847656 L 5.292969 95.847656 L 5.292969 99.8125 L 4.101562 99.8125 Z M 5.292969 94.8125 L 7.832031 94.8125 C 8.378906 94.8125 8.800781 94.765625 9.101562 94.65625 C 9.414062 94.539062 9.648438 94.359375 9.804688 94.109375 C 9.960938 93.867188 10.039062 93.597656 10.039062 93.308594 C 10.039062 92.878906 9.882812 92.527344 9.570312 92.253906 C 9.269531 91.980469 8.789062 91.84375 8.125 91.84375 L 5.292969 91.84375 L 5.292969 94.8125 Z M 5.292969 94.8125 "/>
<path style=" stroke:none;fill-rule:nonzero;fill:rgb(0%,0%,0%);fill-opacity:1;" d="M 17.253906 94.730469 L 17.253906 95.570312 L 12.527344 95.570312 C 12.511719 95.363281 12.546875 95.160156 12.625 94.964844 C 12.742188 94.640625 12.925781 94.320312 13.191406 94.007812 C 13.464844 93.695312 13.84375 93.332031 14.34375 92.914062 C 15.125 92.277344 15.652344 91.773438 15.925781 91.410156 C 16.199219 91.03125 16.335938 90.679688 16.335938 90.355469 C 16.335938 90.003906 16.207031 89.710938 15.964844 89.476562 C 15.714844 89.230469 15.386719 89.105469 14.988281 89.105469 C 14.566406 89.105469 14.230469 89.234375 13.972656 89.496094 C 13.722656 89.742188 13.589844 90.09375 13.582031 90.550781 L 12.683594 90.453125 C 12.746094 89.777344 12.980469 89.261719 13.386719 88.910156 C 13.785156 88.558594 14.328125 88.382812 15.007812 88.382812 C 15.695312 88.382812 16.238281 88.570312 16.628906 88.949219 C 17.027344 89.328125 17.234375 89.800781 17.234375 90.375 C 17.234375 90.660156 17.175781 90.941406 17.058594 91.214844 C 16.941406 91.488281 16.746094 91.78125 16.472656 92.09375 C 16.207031 92.394531 15.757812 92.808594 15.125 93.34375 C 14.601562 93.785156 14.265625 94.085938 14.109375 94.242188 C 13.960938 94.398438 13.839844 94.5625 13.738281 94.730469 L 17.253906 94.730469 Z M 17.253906 94.730469 "/>
<path style=" stroke:none;fill-rule:nonzero;fill:rgb(0%,0%,0%);fill-opacity:1;" d="M 19.8125 89.125 L 14.5 83.8125 L 15.8125 82.9375 L 20.625 87.75 L 19.8125 89.125 Z M 19.8125 89.125 "/>
<path style=" stroke:none;fill-rule:nonzero;fill:rgb(0%,0%,0%);fill-opacity:1;" d="M 21.75 85.9375 L 17.625 81.875 L 19 81 L 22.5625 84.5625 L 21.75 85.9375 Z M 21.75 85.9375 "/>
<path style=" stroke:none;fill-rule:nonzero;fill:rgb(0%,0%,0%);fill-opacity:1;" d="M 23.6875 82.75 L 20.8125 79.875 L 22.1875 79.0625 L 24.5 81.375 L 23.6875 82.75 Z M 23.6875 82.75 "/>
<path style=" stroke:none;fill-rule:nonzero;fill:rgb(0%,0%,0%);fill-opacity:1;" d="M 25.625 79.5625 L 24 77.9375 L 25.3125 77.125 L 26.4375 78.1875 L 25.625 79.5625 Z M 25.625 79.5625 "/>
<path style="fill:none;stroke-width:20;stroke-linecap:butt;stroke-linejoin:miter;stroke:rgb(0%,0%,0%);stroke-opacity:1;stroke-miterlimit:10;" d="M 3626.75 7715.4375 L 2923.5 7715.4375 " transform="matrix(0.0625,0,0,0.0625,-105,-406.25)"/>
<path style="fill-rule:nonzero;fill:rgb(0%,0%,0%);fill-opacity:1;stroke-width:25;stroke-linecap:butt;stroke-linejoin:miter;stroke:rgb(0%,0%,0%);stroke-opacity:1;stroke-miterlimit:10;" d="M 3844 7715.4375 C 3844 7715.4375 3594.5625 7778.8125 3594.5625 7778.8125 C 3594.5625 7778.8125 3625.75 7743.1875 3625.75 7715.4375 C 3625.75 7687.3125 3594.5625 7651.0625 3594.5625 7651.0625 C 3594.5625 7651.0625 3844 7715.4375 3844 7715.4375 " transform="matrix(0.0625,0,0,0.0625,-105,-406.25)"/>
<path style=" stroke:none;fill-rule:nonzero;fill:rgb(0%,0%,0%);fill-opacity:1;" d="M 85.230469 98.457031 L 85.230469 97.578125 L 92.183594 97.578125 L 92.183594 98.457031 L 85.230469 98.457031 Z M 85.230469 98.457031 "/>
<path style=" stroke:none;fill-rule:nonzero;fill:rgb(0%,0%,0%);fill-opacity:1;" d=""/>
<path style=" stroke:none;fill-rule:nonzero;fill:rgb(0%,0%,0%);fill-opacity:1;" d="M 95.796875 101.25 L 99.253906 96.582031 L 96.207031 92.304688 L 97.613281 92.304688 L 99.234375 94.589844 C 99.570312 95.074219 99.808594 95.445312 99.957031 95.703125 C 100.152344 95.382812 100.386719 95.035156 100.660156 94.667969 L 102.457031 92.304688 L 103.746094 92.304688 L 100.601562 96.523438 L 104 101.25 L 102.535156 101.25 L 100.289062 98.066406 C 100.15625 97.871094 100.023438 97.671875 99.898438 97.460938 C 99.6875 97.789062 99.546875 98.007812 99.46875 98.125 L 97.222656 101.25 L 95.796875 101.25 Z M 95.796875 101.25 "/>
<path style="fill:none;stroke-width:20;stroke-linecap:butt;stroke-linejoin:miter;stroke:rgb(0%,0%,0%);stroke-opacity:1;stroke-miterlimit:10;" d="M 3479.9375 7880.5625 C 3479.9375 7843.6875 3450.0625 7813.8125 3413.25 7813.8125 C 3376.5 7813.8125 3346.625 7843.6875 3346.625 7880.5625 C 3346.625 7917.3125 3376.5 7947.1875 3413.25 7947.1875 C 3450.0625 7947.1875 3479.9375 7917.3125 3479.9375 7880.5625 Z M 3479.9375 7880.5625 " transform="matrix(0.0625,0,0,0.0625,-105,-406.25)"/>
<path style="fill:none;stroke-width:20;stroke-linecap:butt;stroke-linejoin:miter;stroke:rgb(0%,0%,0%);stroke-opacity:1;stroke-miterlimit:10;" d="M 3379.9375 7880.5625 L 3446.625 7880.5625 " transform="matrix(0.0625,0,0,0.0625,-105,-406.25)"/>
<path style=" stroke:none;fill-rule:nonzero;fill:rgb(0%,0%,0%);fill-opacity:1;" d="M 215.101562 88 L 215.101562 79.054688 L 219.066406 79.054688 C 219.871094 79.054688 220.476562 79.144531 220.882812 79.308594 C 221.296875 79.464844 221.628906 79.75 221.878906 80.148438 C 222.136719 80.554688 222.269531 81.003906 222.269531 81.496094 C 222.269531 82.136719 222.058594 82.667969 221.644531 83.097656 C 221.226562 83.527344 220.59375 83.8125 219.75 83.9375 C 220.0625 84.085938 220.296875 84.226562 220.453125 84.367188 C 220.804688 84.695312 221.125 85.089844 221.429688 85.558594 L 222.992188 88 L 221.507812 88 L 220.316406 86.144531 C 219.976562 85.597656 219.691406 85.1875 219.457031 84.914062 C 219.234375 84.632812 219.03125 84.425781 218.851562 84.308594 C 218.679688 84.191406 218.503906 84.113281 218.324219 84.074219 C 218.191406 84.050781 217.972656 84.035156 217.660156 84.035156 L 216.292969 84.035156 L 216.292969 88 L 215.101562 88 Z M 216.292969 83 L 218.832031 83 C 219.378906 83 219.796875 82.953125 220.101562 82.84375 C 220.414062 82.726562 220.648438 82.546875 220.804688 82.296875 C 220.960938 82.054688 221.039062 81.785156 221.039062 81.496094 C 221.039062 81.066406 220.882812 80.714844 220.570312 80.441406 C 220.265625 80.167969 219.789062 80.03125 219.125 80.03125 L 216.292969 80.03125 L 216.292969 83 Z M 216.292969 83 "/>
<path style=" stroke:none;fill-rule:nonzero;fill:rgb(0%,0%,0%);fill-opacity:1;" d="M 223.644531 81.863281 L 224.523438 81.746094 C 224.609375 82.242188 224.78125 82.597656 225.03125 82.820312 C 225.273438 83.042969 225.566406 83.152344 225.910156 83.152344 C 226.324219 83.152344 226.675781 83.007812 226.964844 82.722656 C 227.246094 82.4375 227.394531 82.085938 227.394531 81.667969 C 227.394531 81.265625 227.257812 80.933594 226.984375 80.671875 C 226.71875 80.398438 226.386719 80.261719 225.988281 80.261719 C 225.816406 80.261719 225.605469 80.292969 225.363281 80.359375 L 225.460938 79.597656 C 225.523438 79.597656 225.578125 79.597656 225.617188 79.597656 C 225.976562 79.597656 226.308594 79.5 226.613281 79.304688 C 226.910156 79.109375 227.0625 78.808594 227.0625 78.40625 C 227.0625 78.082031 226.949219 77.8125 226.730469 77.605469 C 226.519531 77.398438 226.242188 77.292969 225.890625 77.292969 C 225.546875 77.292969 225.265625 77.402344 225.03125 77.625 C 224.804688 77.832031 224.664062 78.152344 224.601562 78.582031 L 223.722656 78.425781 C 223.824219 77.839844 224.0625 77.382812 224.445312 77.058594 C 224.835938 76.734375 225.308594 76.570312 225.871094 76.570312 C 226.261719 76.570312 226.617188 76.65625 226.945312 76.824219 C 227.28125 76.992188 227.535156 77.222656 227.707031 77.507812 C 227.886719 77.792969 227.980469 78.101562 227.980469 78.425781 C 227.980469 78.738281 227.890625 79.023438 227.726562 79.285156 C 227.554688 79.53125 227.304688 79.726562 226.984375 79.871094 C 227.414062 79.976562 227.746094 80.183594 227.980469 80.496094 C 228.214844 80.796875 228.332031 81.179688 228.332031 81.648438 C 228.332031 82.273438 228.101562 82.808594 227.648438 83.25 C 227.1875 83.679688 226.613281 83.894531 225.910156 83.894531 C 225.285156 83.894531 224.761719 83.707031 224.347656 83.328125 C 223.925781 82.949219 223.691406 82.460938 223.644531 81.863281 Z M 223.644531 81.863281 "/>
<path style=" stroke:none;fill-rule:nonzero;fill:rgb(0%,0%,0%);fill-opacity:1;" d="M 212.75 78.25 L 210.8125 85.5 L 190.4375 76.9375 L 190.8125 75.4375 L 212.75 78.25 Z M 212.75 78.25 "/>
<path style=" stroke:none;fill-rule:nonzero;fill:rgb(0%,0%,0%);fill-opacity:1;" d="M 158.101562 80.6875 L 158.101562 71.742188 L 162.066406 71.742188 C 162.871094 71.742188 163.476562 71.832031 163.882812 71.996094 C 164.296875 72.152344 164.628906 72.4375 164.878906 72.835938 C 165.136719 73.242188 165.269531 73.691406 165.269531 74.183594 C 165.269531 74.824219 165.058594 75.355469 164.644531 75.785156 C 164.226562 76.214844 163.59375 76.5 162.75 76.625 C 163.0625 76.773438 163.296875 76.914062 163.453125 77.054688 C 163.804688 77.382812 164.125 77.777344 164.429688 78.246094 L 165.992188 80.6875 L 164.507812 80.6875 L 163.316406 78.832031 C 162.976562 78.285156 162.691406 77.875 162.457031 77.601562 C 162.234375 77.320312 162.03125 77.113281 161.851562 76.996094 C 161.679688 76.878906 161.503906 76.800781 161.324219 76.761719 C 161.191406 76.738281 160.972656 76.722656 160.660156 76.722656 L 159.292969 76.722656 L 159.292969 80.6875 L 158.101562 80.6875 Z M 159.292969 75.6875 L 161.832031 75.6875 C 162.378906 75.6875 162.796875 75.640625 163.101562 75.53125 C 163.414062 75.414062 163.648438 75.234375 163.804688 74.984375 C 163.960938 74.742188 164.039062 74.472656 164.039062 74.183594 C 164.039062 73.753906 163.882812 73.402344 163.570312 73.128906 C 163.265625 72.855469 162.789062 72.71875 162.125 72.71875 L 159.292969 72.71875 L 159.292969 75.6875 Z M 159.292969 75.6875 "/>
<path style=" stroke:none;fill-rule:nonzero;fill:rgb(0%,0%,0%);fill-opacity:1;" d="M 169.945312 76.445312 L 169.066406 76.445312 L 169.066406 70.839844 C 168.855469 71.046875 168.578125 71.257812 168.226562 71.464844 C 167.882812 71.660156 167.582031 71.804688 167.308594 71.894531 L 167.308594 71.054688 C 167.800781 70.820312 168.230469 70.539062 168.597656 70.214844 C 168.957031 69.890625 169.222656 69.570312 169.378906 69.257812 L 169.945312 69.257812 L 169.945312 76.445312 Z M 169.945312 76.445312 "/>
<path style=" stroke:none;fill-rule:nonzero;fill:rgb(0%,0%,0%);fill-opacity:1;" d="M 172.125 77 L 190.625 77 L 190.625 75.4375 L 172.125 75.4375 L 172.125 77 Z M 172.125 77 "/>
<path style=" stroke:none;fill-rule:nonzero;fill:rgb(0%,0%,0%);fill-opacity:1;" d="M 215.101562 73.3125 L 215.101562 64.367188 L 219.066406 64.367188 C 219.871094 64.367188 220.476562 64.457031 220.882812 64.621094 C 221.296875 64.777344 221.628906 65.0625 221.878906 65.460938 C 222.136719 65.867188 222.269531 66.316406 222.269531 66.808594 C 222.269531 67.449219 222.058594 67.980469 221.644531 68.410156 C 221.226562 68.839844 220.59375 69.125 219.75 69.25 C 220.0625 69.398438 220.296875 69.539062 220.453125 69.679688 C 220.804688 70.007812 221.125 70.402344 221.429688 70.871094 L 222.992188 73.3125 L 221.507812 73.3125 L 220.316406 71.457031 C 219.976562 70.910156 219.691406 70.5 219.457031 70.226562 C 219.234375 69.945312 219.03125 69.738281 218.851562 69.621094 C 218.679688 69.503906 218.503906 69.425781 218.324219 69.386719 C 218.191406 69.363281 217.972656 69.347656 217.660156 69.347656 L 216.292969 69.347656 L 216.292969 73.3125 L 215.101562 73.3125 Z M 216.292969 68.3125 L 218.832031 68.3125 C 219.378906 68.3125 219.796875 68.265625 220.101562 68.15625 C 220.414062 68.039062 220.648438 67.859375 220.804688 67.609375 C 220.960938 67.367188 221.039062 67.097656 221.039062 66.808594 C 221.039062 66.378906 220.882812 66.027344 220.570312 65.753906 C 220.265625 65.480469 219.789062 65.34375 219.125 65.34375 L 216.292969 65.34375 L 216.292969 68.3125 Z M 216.292969 68.3125 "/>
<path style=" stroke:none;fill-rule:nonzero;fill:rgb(0%,0%,0%);fill-opacity:1;" d="M 228.253906 68.230469 L 228.253906 69.070312 L 223.527344 69.070312 C 223.511719 68.863281 223.546875 68.660156 223.625 68.464844 C 223.742188 68.140625 223.925781 67.820312 224.191406 67.507812 C 224.464844 67.195312 224.84375 66.832031 225.34375 66.414062 C 226.125 65.777344 226.652344 65.273438 226.925781 64.910156 C 227.199219 64.53125 227.335938 64.179688 227.335938 63.855469 C 227.335938 63.503906 227.207031 63.210938 226.964844 62.976562 C 226.714844 62.730469 226.386719 62.605469 225.988281 62.605469 C 225.566406 62.605469 225.230469 62.734375 224.972656 62.996094 C 224.722656 63.242188 224.589844 63.59375 224.582031 64.050781 L 223.683594 63.953125 C 223.746094 63.277344 223.980469 62.761719 224.386719 62.410156 C 224.785156 62.058594 225.328125 61.882812 226.007812 61.882812 C 226.695312 61.882812 227.238281 62.070312 227.628906 62.449219 C 228.027344 62.828125 228.234375 63.300781 228.234375 63.875 C 228.234375 64.160156 228.175781 64.441406 228.058594 64.714844 C 227.941406 64.988281 227.746094 65.28125 227.472656 65.59375 C 227.207031 65.894531 226.757812 66.308594 226.125 66.84375 C 225.601562 67.285156 225.265625 67.585938 225.109375 67.742188 C 224.960938 67.898438 224.839844 68.0625 224.738281 68.230469 L 228.253906 68.230469 Z M 228.253906 68.230469 "/>
<path style=" stroke:none;fill-rule:nonzero;fill:rgb(0%,0%,0%);fill-opacity:1;" d="M 210.8125 66.9375 L 212.75 74.1875 L 211.1875 74.3125 L 209.375 67.5625 L 210.8125 66.9375 Z M 210.8125 66.9375 "/>
<path style=" stroke:none;fill-rule:nonzero;fill:rgb(0%,0%,0%);fill-opacity:1;" d="M 207.6875 68.3125 L 209.375 74.5 L 207.8125 74.6875 L 206.25 68.9375 L 207.6875 68.3125 Z M 207.6875 68.3125 "/>
<path style=" stroke:none;fill-rule:nonzero;fill:rgb(0%,0%,0%);fill-opacity:1;" d="M 204.5625 69.75 L 205.9375 74.875 L 204.375 75 L 203.125 70.375 L 204.5625 69.75 Z M 204.5625 69.75 "/>
<path style=" stroke:none;fill-rule:nonzero;fill:rgb(0%,0%,0%);fill-opacity:1;" d="M 201.4375 71.125 L 202.5 75.1875 L 200.9375 75.375 L 200 71.75 L 201.4375 71.125 Z M 201.4375 71.125 "/>
<path style=" stroke:none;fill-rule:nonzero;fill:rgb(0%,0%,0%);fill-opacity:1;" d="M 198.25 72.5625 L 199.0625 75.5625 L 197.5 75.75 L 196.8125 73.1875 L 198.25 72.5625 Z M 198.25 72.5625 "/>
<path style=" stroke:none;fill-rule:nonzero;fill:rgb(0%,0%,0%);fill-opacity:1;" d="M 195.125 73.9375 L 195.6875 75.9375 L 194.125 76.0625 L 193.6875 74.5625 L 195.125 73.9375 Z M 195.125 73.9375 "/>
<path style="fill-rule:nonzero;fill:rgb(100%,100%,100%);fill-opacity:1;stroke-width:25;stroke-linecap:butt;stroke-linejoin:miter;stroke:rgb(100%,100%,100%);stroke-opacity:1;stroke-miterlimit:10;" d="M 4809.3125 7537.75 C 4809.3125 7580.5625 4772.5625 7719.375 4730.0625 7719.375 C 4687.5 7719.375 4650.75 7580.5625 4650.75 7537.75 C 4650.75 7485.3125 4662 7447.25 4730.0625 7447.25 C 4798.0625 7447.25 4809.3125 7485.3125 4809.3125 7537.75 Z M 4809.3125 7537.75 " transform="matrix(0.0625,0,0,0.0625,-105,-406.25)"/>
<path style="fill:none;stroke-width:25;stroke-linecap:butt;stroke-linejoin:miter;stroke:rgb(0%,0%,0%);stroke-opacity:1;stroke-miterlimit:10;" d="M 4809.3125 7537.75 C 4809.3125 7580.5625 4772.5625 7719.375 4730.0625 7719.375 C 4687.5 7719.375 4650.75 7580.5625 4650.75 7537.75 C 4650.75 7485.3125 4662 7447.25 4730.0625 7447.25 C 4798.0625 7447.25 4809.3125 7485.3125 4809.3125 7537.75 Z M 4809.3125 7537.75 " transform="matrix(0.0625,0,0,0.0625,-105,-406.25)"/>
<path style="fill-rule:nonzero;fill:rgb(100%,100%,100%);fill-opacity:1;stroke-width:25;stroke-linecap:butt;stroke-linejoin:miter;stroke:rgb(100%,100%,100%);stroke-opacity:1;stroke-miterlimit:10;" d="M 4650.75 7901 C 4650.75 7858.125 4687.5 7719.375 4730.0625 7719.375 C 4772.5625 7719.375 4809.3125 7858.125 4809.3125 7901 C 4809.3125 7953.375 4798.0625 7991.5 4730.0625 7991.5 C 4662 7991.5 4650.75 7953.375 4650.75 7901 Z M 4650.75 7901 " transform="matrix(0.0625,0,0,0.0625,-105,-406.25)"/>
<path style="fill:none;stroke-width:25;stroke-linecap:butt;stroke-linejoin:miter;stroke:rgb(0%,0%,0%);stroke-opacity:1;stroke-miterlimit:10;" d="M 4650.75 7901 C 4650.75 7858.125 4687.5 7719.375 4730.0625 7719.375 C 4772.5625 7719.375 4809.3125 7858.125 4809.3125 7901 C 4809.3125 7953.375 4798.0625 7991.5 4730.0625 7991.5 C 4662 7991.5 4650.75 7953.375 4650.75 7901 Z M 4650.75 7901 " transform="matrix(0.0625,0,0,0.0625,-105,-406.25)"/>
<path style="fill:none;stroke-width:25;stroke-linecap:butt;stroke-linejoin:miter;stroke:rgb(0%,0%,0%);stroke-opacity:1;stroke-miterlimit:10;" d="M 5358.1875 7432 L 5395.25 7432 L 5395.25 8015.9375 L 5358.1875 8015.9375 " transform="matrix(0.0625,0,0,0.0625,-105,-406.25)"/>
<path style="fill:none;stroke-width:25;stroke-linecap:butt;stroke-linejoin:miter;stroke:rgb(0%,0%,0%);stroke-opacity:1;stroke-miterlimit:10;" d="M 4150.9375 8015.9375 L 4114 8015.9375 L 4114 7432 L 4150.9375 7432 " transform="matrix(0.0625,0,0,0.0625,-105,-406.25)"/>
<path style="fill:none;stroke-width:20;stroke-linecap:butt;stroke-linejoin:miter;stroke:rgb(0%,0%,0%);stroke-opacity:1;stroke-miterlimit:10;" d="M 5591.8125 7394.3125 C 5591.8125 7357.4375 5561.9375 7327.5625 5525.1875 7327.5625 C 5488.375 7327.5625 5458.5 7357.4375 5458.5 7394.3125 C 5458.5 7431.0625 5488.375 7460.9375 5525.1875 7460.9375 C 5561.9375 7460.9375 5591.8125 7431.0625 5591.8125 7394.3125 Z M 5591.8125 7394.3125 " transform="matrix(0.0625,0,0,0.0625,-105,-406.25)"/>
<path style="fill:none;stroke-width:20;stroke-linecap:butt;stroke-linejoin:miter;stroke:rgb(0%,0%,0%);stroke-opacity:1;stroke-miterlimit:10;" d="M 5491.8125 7394.3125 L 5558.5 7394.3125 " transform="matrix(0.0625,0,0,0.0625,-105,-406.25)"/>
<path style="fill:none;stroke-width:20;stroke-linecap:butt;stroke-linejoin:miter;stroke:rgb(0%,0%,0%);stroke-opacity:1;stroke-miterlimit:10;" d="M 5525.1875 7360.9375 L 5525.1875 7427.5625 " transform="matrix(0.0625,0,0,0.0625,-105,-406.25)"/>
<path style="fill:none;stroke-width:20;stroke-linecap:butt;stroke-linejoin:miter;stroke:rgb(0%,0%,0%);stroke-opacity:1;stroke-miterlimit:10;" d="M 6599.8125 8305.25 L 5730.0625 8007.1875 " transform="matrix(0.0625,0,0,0.0625,-105,-406.25)"/>
<path style="fill-rule:nonzero;fill:rgb(0%,0%,0%);fill-opacity:1;stroke-width:25;stroke-linecap:butt;stroke-linejoin:miter;stroke:rgb(0%,0%,0%);stroke-opacity:1;stroke-miterlimit:10;" d="M 6805.375 8375.6875 C 6805.375 8375.6875 6548.1875 8354.875 6548.1875 8354.875 C 6548.1875 8354.875 6589.625 8331.1875 6598.875 8304.9375 C 6608.1875 8278.6875 6590.625 8234.875 6590.625 8234.875 C 6590.625 8234.875 6805.375 8375.6875 6805.375 8375.6875 " transform="matrix(0.0625,0,0,0.0625,-105,-406.25)"/>
<path style=" stroke:none;fill-rule:nonzero;fill:rgb(0%,0%,0%);fill-opacity:1;" d="M 257.75 49.742188 L 257.75 47.28125 L 255.328125 47.28125 L 255.328125 46.265625 L 257.75 46.265625 L 257.75 43.824219 L 258.785156 43.824219 L 258.785156 46.265625 L 261.226562 46.265625 L 261.226562 47.28125 L 258.785156 47.28125 L 258.785156 49.742188 L 257.75 49.742188 Z M 257.75 49.742188 "/>
<path style=" stroke:none;fill-rule:nonzero;fill:rgb(0%,0%,0%);fill-opacity:1;" d=""/>
<path style=" stroke:none;fill-rule:nonzero;fill:rgb(0%,0%,0%);fill-opacity:1;" d="M 266.355469 51.1875 L 266.355469 42.242188 L 267.566406 42.242188 L 272.273438 49.273438 L 272.273438 42.242188 L 273.40625 42.242188 L 273.40625 51.1875 L 272.195312 51.1875 L 267.488281 44.15625 L 267.488281 51.1875 L 266.355469 51.1875 Z M 266.355469 51.1875 "/>
<path style=" stroke:none;fill-rule:nonzero;fill:rgb(0%,0%,0%);fill-opacity:1;" d="M 279.503906 51.1875 L 279.503906 50.230469 C 278.996094 50.972656 278.300781 51.34375 277.433594 51.34375 C 277.050781 51.34375 276.695312 51.269531 276.359375 51.128906 C 276.03125 50.972656 275.78125 50.789062 275.617188 50.5625 C 275.460938 50.34375 275.347656 50.070312 275.285156 49.742188 C 275.246094 49.539062 275.226562 49.195312 275.226562 48.726562 L 275.226562 44.703125 L 276.320312 44.703125 L 276.320312 48.296875 C 276.320312 48.875 276.34375 49.265625 276.398438 49.46875 C 276.460938 49.757812 276.601562 49.984375 276.828125 50.152344 C 277.046875 50.308594 277.324219 50.386719 277.667969 50.386719 C 277.988281 50.386719 278.296875 50.304688 278.585938 50.132812 C 278.867188 49.96875 279.074219 49.738281 279.191406 49.449219 C 279.316406 49.152344 279.386719 48.726562 279.386719 48.179688 L 279.386719 44.703125 L 280.480469 44.703125 L 280.480469 51.1875 L 279.503906 51.1875 Z M 279.503906 51.1875 "/>
<path style=" stroke:none;fill-rule:nonzero;fill:rgb(0%,0%,0%);fill-opacity:1;" d="M 263.8125 132.742188 L 263.8125 130.28125 L 261.390625 130.28125 L 261.390625 129.265625 L 263.8125 129.265625 L 263.8125 126.824219 L 264.847656 126.824219 L 264.847656 129.265625 L 267.289062 129.265625 L 267.289062 130.28125 L 264.847656 130.28125 L 264.847656 132.742188 L 263.8125 132.742188 Z M 263.8125 132.742188 "/>
<path style=" stroke:none;fill-rule:nonzero;fill:rgb(0%,0%,0%);fill-opacity:1;" d=""/>
<path style=" stroke:none;fill-rule:nonzero;fill:rgb(0%,0%,0%);fill-opacity:1;" d="M 272.417969 134.1875 L 272.417969 125.242188 L 273.628906 125.242188 L 278.335938 132.273438 L 278.335938 125.242188 L 279.46875 125.242188 L 279.46875 134.1875 L 278.257812 134.1875 L 273.550781 127.15625 L 273.550781 134.1875 L 272.417969 134.1875 Z M 272.417969 134.1875 "/>
<path style=" stroke:none;fill-rule:nonzero;fill:rgb(0%,0%,0%);fill-opacity:1;" d="M 285.566406 134.1875 L 285.566406 133.230469 C 285.058594 133.972656 284.363281 134.34375 283.496094 134.34375 C 283.113281 134.34375 282.757812 134.269531 282.421875 134.128906 C 282.09375 133.972656 281.84375 133.789062 281.679688 133.5625 C 281.523438 133.34375 281.410156 133.070312 281.347656 132.742188 C 281.308594 132.539062 281.289062 132.195312 281.289062 131.726562 L 281.289062 127.703125 L 282.382812 127.703125 L 282.382812 131.296875 C 282.382812 131.875 282.40625 132.265625 282.460938 132.46875 C 282.523438 132.757812 282.664062 132.988281 282.890625 133.152344 C 283.109375 133.308594 283.386719 133.386719 283.730469 133.386719 C 284.050781 133.386719 284.359375 133.304688 284.648438 133.132812 C 284.929688 132.96875 285.136719 132.738281 285.253906 132.449219 C 285.378906 132.152344 285.449219 131.726562 285.449219 131.179688 L 285.449219 127.703125 L 286.542969 127.703125 L 286.542969 134.1875 L 285.566406 134.1875 Z M 285.566406 134.1875 "/>
<path style=" stroke:none;fill-rule:nonzero;fill:rgb(0%,0%,0%);fill-opacity:1;" d="M 374.332031 14.0625 L 374.332031 5.117188 L 375.542969 5.117188 L 380.25 12.148438 L 380.25 5.117188 L 381.382812 5.117188 L 381.382812 14.0625 L 380.171875 14.0625 L 375.464844 7.03125 L 375.464844 14.0625 L 374.332031 14.0625 Z M 374.332031 14.0625 "/>
<path style=" stroke:none;fill-rule:nonzero;fill:rgb(0%,0%,0%);fill-opacity:1;" d="M 387.480469 14.0625 L 387.480469 13.105469 C 386.972656 13.847656 386.28125 14.21875 385.410156 14.21875 C 385.03125 14.21875 384.671875 14.144531 384.335938 14.003906 C 384.007812 13.847656 383.761719 13.664062 383.59375 13.4375 C 383.4375 13.21875 383.324219 12.945312 383.261719 12.617188 C 383.222656 12.414062 383.203125 12.070312 383.203125 11.601562 L 383.203125 7.578125 L 384.296875 7.578125 L 384.296875 11.171875 C 384.296875 11.75 384.320312 12.140625 384.375 12.34375 C 384.4375 12.632812 384.582031 12.859375 384.804688 13.027344 C 385.023438 13.183594 385.304688 13.261719 385.644531 13.261719 C 385.96875 13.261719 386.273438 13.179688 386.5625 13.007812 C 386.847656 12.84375 387.050781 12.613281 387.167969 12.324219 C 387.296875 12.027344 387.363281 11.601562 387.363281 11.054688 L 387.363281 7.578125 L 388.457031 7.578125 L 388.457031 14.0625 L 387.480469 14.0625 Z M 387.480469 14.0625 "/>
<path style=" stroke:none;fill-rule:nonzero;fill:rgb(0%,0%,0%);fill-opacity:1;" d="M 376.0625 16.5625 L 377.625 16.5625 L 377.625 37.6875 L 376.875 37.9375 L 376.0625 37.5 L 376.0625 16.5625 Z M 376.0625 16.5625 "/>
<path style=" stroke:none;fill-rule:nonzero;fill:rgb(0%,0%,0%);fill-opacity:1;" d="M 348.101562 56.625 L 348.101562 47.679688 L 352.066406 47.679688 C 352.871094 47.679688 353.476562 47.765625 353.882812 47.933594 C 354.296875 48.089844 354.628906 48.375 354.878906 48.773438 C 355.136719 49.179688 355.269531 49.628906 355.269531 50.121094 C 355.269531 50.761719 355.058594 51.292969 354.644531 51.722656 C 354.226562 52.152344 353.59375 52.4375 352.75 52.5625 C 353.0625 52.710938 353.296875 52.851562 353.453125 52.992188 C 353.804688 53.320312 354.125 53.714844 354.429688 54.183594 L 355.992188 56.625 L 354.507812 56.625 L 353.316406 54.769531 C 352.976562 54.222656 352.691406 53.8125 352.457031 53.539062 C 352.234375 53.257812 352.03125 53.050781 351.851562 52.933594 C 351.679688 52.816406 351.503906 52.738281 351.324219 52.699219 C 351.191406 52.675781 350.972656 52.660156 350.660156 52.660156 L 349.292969 52.660156 L 349.292969 56.625 L 348.101562 56.625 Z M 349.292969 51.625 L 351.832031 51.625 C 352.378906 51.625 352.796875 51.578125 353.101562 51.46875 C 353.414062 51.351562 353.648438 51.171875 353.804688 50.921875 C 353.960938 50.679688 354.039062 50.410156 354.039062 50.121094 C 354.039062 49.691406 353.882812 49.339844 353.570312 49.066406 C 353.265625 48.792969 352.789062 48.65625 352.125 48.65625 L 349.292969 48.65625 L 349.292969 51.625 Z M 349.292969 51.625 "/>
<path style=" stroke:none;fill-rule:nonzero;fill:rgb(0%,0%,0%);fill-opacity:1;" d="M 359.945312 52.382812 L 359.066406 52.382812 L 359.066406 46.777344 C 358.855469 46.984375 358.578125 47.195312 358.226562 47.402344 C 357.882812 47.597656 357.582031 47.742188 357.308594 47.832031 L 357.308594 46.992188 C 357.800781 46.757812 358.230469 46.476562 358.597656 46.152344 C 358.957031 45.828125 359.222656 45.507812 359.378906 45.195312 L 359.945312 45.195312 L 359.945312 52.382812 Z M 359.945312 52.382812 "/>
<path style=" stroke:none;fill-rule:nonzero;fill:rgb(0%,0%,0%);fill-opacity:1;" d="M 362.9375 46.9375 L 362.125 45.5625 L 376.0625 37.5 L 376.875 37.9375 L 376.4375 39.0625 L 362.9375 46.9375 Z M 362.9375 46.9375 "/>
<path style=" stroke:none;fill-rule:nonzero;fill:rgb(0%,0%,0%);fill-opacity:1;" d="M 401.289062 49.75 L 401.289062 40.804688 L 405.253906 40.804688 C 406.058594 40.804688 406.664062 40.890625 407.070312 41.058594 C 407.484375 41.214844 407.816406 41.5 408.066406 41.898438 C 408.324219 42.304688 408.457031 42.753906 408.457031 43.246094 C 408.457031 43.886719 408.246094 44.417969 407.832031 44.847656 C 407.414062 45.277344 406.78125 45.5625 405.9375 45.6875 C 406.25 45.835938 406.484375 45.976562 406.640625 46.117188 C 406.992188 46.445312 407.3125 46.839844 407.617188 47.308594 L 409.179688 49.75 L 407.695312 49.75 L 406.503906 47.894531 C 406.164062 47.347656 405.878906 46.9375 405.644531 46.664062 C 405.421875 46.382812 405.21875 46.175781 405.039062 46.058594 C 404.867188 45.941406 404.691406 45.863281 404.511719 45.824219 C 404.378906 45.800781 404.160156 45.785156 403.847656 45.785156 L 402.480469 45.785156 L 402.480469 49.75 L 401.289062 49.75 Z M 402.480469 44.75 L 405.019531 44.75 C 405.566406 44.75 405.984375 44.703125 406.289062 44.59375 C 406.601562 44.476562 406.835938 44.296875 406.992188 44.046875 C 407.148438 43.804688 407.226562 43.535156 407.226562 43.246094 C 407.226562 42.816406 407.070312 42.464844 406.757812 42.191406 C 406.453125 41.917969 405.976562 41.78125 405.3125 41.78125 L 402.480469 41.78125 L 402.480469 44.75 Z M 402.480469 44.75 "/>
<path style=" stroke:none;fill-rule:nonzero;fill:rgb(0%,0%,0%);fill-opacity:1;" d="M 414.441406 44.667969 L 414.441406 45.507812 L 409.714844 45.507812 C 409.699219 45.300781 409.734375 45.097656 409.8125 44.902344 C 409.929688 44.578125 410.113281 44.257812 410.378906 43.945312 C 410.652344 43.632812 411.03125 43.269531 411.53125 42.851562 C 412.3125 42.214844 412.839844 41.710938 413.113281 41.347656 C 413.386719 40.96875 413.523438 40.617188 413.523438 40.292969 C 413.523438 39.941406 413.394531 39.648438 413.152344 39.414062 C 412.902344 39.167969 412.574219 39.042969 412.175781 39.042969 C 411.753906 39.042969 411.417969 39.171875 411.160156 39.433594 C 410.910156 39.679688 410.777344 40.03125 410.769531 40.488281 L 409.871094 40.390625 C 409.933594 39.714844 410.167969 39.199219 410.574219 38.847656 C 410.972656 38.496094 411.515625 38.320312 412.195312 38.320312 C 412.882812 38.320312 413.425781 38.507812 413.816406 38.886719 C 414.214844 39.265625 414.421875 39.738281 414.421875 40.3125 C 414.421875 40.597656 414.363281 40.878906 414.246094 41.152344 C 414.128906 41.425781 413.933594 41.71875 413.660156 42.03125 C 413.394531 42.332031 412.945312 42.746094 412.3125 43.28125 C 411.789062 43.722656 411.453125 44.023438 411.296875 44.179688 C 411.148438 44.335938 411.027344 44.5 410.925781 44.667969 L 414.441406 44.667969 Z M 414.441406 44.667969 "/>
<path style=" stroke:none;fill-rule:nonzero;fill:rgb(0%,0%,0%);fill-opacity:1;" d="M 399 40 L 397.0625 47.25 L 395.625 46.625 L 397.4375 39.875 L 399 40 Z M 399 40 "/>
<path style=" stroke:none;fill-rule:nonzero;fill:rgb(0%,0%,0%);fill-opacity:1;" d="M 395.5625 39.6875 L 393.9375 45.875 L 392.4375 45.1875 L 394 39.5 L 395.5625 39.6875 Z M 395.5625 39.6875 "/>
<path style=" stroke:none;fill-rule:nonzero;fill:rgb(0%,0%,0%);fill-opacity:1;" d="M 392.125 39.3125 L 390.75 44.4375 L 389.3125 43.8125 L 390.5625 39.125 L 392.125 39.3125 Z M 392.125 39.3125 "/>
<path style=" stroke:none;fill-rule:nonzero;fill:rgb(0%,0%,0%);fill-opacity:1;" d="M 388.75 38.9375 L 387.625 43.0625 L 386.1875 42.375 L 387.125 38.8125 L 388.75 38.9375 Z M 388.75 38.9375 "/>
<path style=" stroke:none;fill-rule:nonzero;fill:rgb(0%,0%,0%);fill-opacity:1;" d="M 385.3125 38.625 L 384.5 41.625 L 383.0625 41 L 383.75 38.4375 L 385.3125 38.625 Z M 385.3125 38.625 "/>
<path style=" stroke:none;fill-rule:nonzero;fill:rgb(0%,0%,0%);fill-opacity:1;" d="M 381.875 38.25 L 381.375 40.25 L 379.9375 39.625 L 380.3125 38.0625 L 381.875 38.25 Z M 381.875 38.25 "/>
<path style="fill:none;stroke-width:20;stroke-linecap:butt;stroke-linejoin:miter;stroke:rgb(0%,0%,0%);stroke-opacity:1;stroke-miterlimit:10;" d="M 6246.625 7073.875 C 6246.625 7037.125 6216.8125 7007.25 6179.9375 7007.25 C 6143.125 7007.25 6113.25 7037.125 6113.25 7073.875 C 6113.25 7110.6875 6143.125 7140.5625 6179.9375 7140.5625 C 6216.8125 7140.5625 6246.625 7110.6875 6246.625 7073.875 Z M 6246.625 7073.875 " transform="matrix(0.0625,0,0,0.0625,-105,-406.25)"/>
<path style="fill:none;stroke-width:20;stroke-linecap:butt;stroke-linejoin:miter;stroke:rgb(0%,0%,0%);stroke-opacity:1;stroke-miterlimit:10;" d="M 6146.625 7073.875 L 6213.25 7073.875 " transform="matrix(0.0625,0,0,0.0625,-105,-406.25)"/>
<path style="fill:none;stroke-width:20;stroke-linecap:butt;stroke-linejoin:miter;stroke:rgb(0%,0%,0%);stroke-opacity:1;stroke-miterlimit:10;" d="M 6345.875 8372.5625 C 6345.875 8335.8125 6316 8305.875 6279.1875 8305.875 C 6242.3125 8305.875 6212.5 8335.8125 6212.5 8372.5625 C 6212.5 8409.375 6242.3125 8439.25 6279.1875 8439.25 C 6316 8439.25 6345.875 8409.375 6345.875 8372.5625 Z M 6345.875 8372.5625 " transform="matrix(0.0625,0,0,0.0625,-105,-406.25)"/>
<path style="fill:none;stroke-width:20;stroke-linecap:butt;stroke-linejoin:miter;stroke:rgb(0%,0%,0%);stroke-opacity:1;stroke-miterlimit:10;" d="M 6245.875 8372.5625 L 6312.5 8372.5625 " transform="matrix(0.0625,0,0,0.0625,-105,-406.25)"/>
<path style=" stroke:none;fill-rule:nonzero;fill:rgb(0%,0%,0%);fill-opacity:1;" d="M 390.375 53.875 L 383.875 57.625 L 376.4375 39.0625 L 376.875 37.9375 L 377.625 37.6875 L 390.375 53.875 Z M 390.375 53.875 "/>
<path style=" stroke:none;fill-rule:nonzero;fill:rgb(0%,0%,0%);fill-opacity:1;" d="M 388.101562 67 L 388.101562 58.054688 L 392.066406 58.054688 C 392.871094 58.054688 393.476562 58.144531 393.882812 58.308594 C 394.296875 58.464844 394.628906 58.75 394.878906 59.148438 C 395.136719 59.554688 395.269531 60.003906 395.269531 60.496094 C 395.269531 61.136719 395.058594 61.667969 394.644531 62.097656 C 394.226562 62.527344 393.59375 62.8125 392.75 62.9375 C 393.0625 63.085938 393.296875 63.226562 393.453125 63.367188 C 393.804688 63.695312 394.125 64.089844 394.429688 64.558594 L 395.992188 67 L 394.507812 67 L 393.316406 65.144531 C 392.976562 64.597656 392.691406 64.1875 392.457031 63.914062 C 392.234375 63.632812 392.03125 63.425781 391.851562 63.308594 C 391.679688 63.191406 391.503906 63.113281 391.324219 63.074219 C 391.191406 63.050781 390.972656 63.035156 390.660156 63.035156 L 389.292969 63.035156 L 389.292969 67 L 388.101562 67 Z M 389.292969 62 L 391.832031 62 C 392.378906 62 392.796875 61.953125 393.101562 61.84375 C 393.414062 61.726562 393.648438 61.546875 393.804688 61.296875 C 393.960938 61.054688 394.039062 60.785156 394.039062 60.496094 C 394.039062 60.066406 393.882812 59.714844 393.570312 59.441406 C 393.265625 59.167969 392.789062 59.03125 392.125 59.03125 L 389.292969 59.03125 L 389.292969 62 Z M 389.292969 62 "/>
<path style=" stroke:none;fill-rule:nonzero;fill:rgb(0%,0%,0%);fill-opacity:1;" d="M 396.644531 60.863281 L 397.523438 60.746094 C 397.609375 61.242188 397.78125 61.597656 398.03125 61.820312 C 398.273438 62.042969 398.566406 62.152344 398.910156 62.152344 C 399.324219 62.152344 399.675781 62.007812 399.964844 61.722656 C 400.246094 61.4375 400.394531 61.085938 400.394531 60.667969 C 400.394531 60.265625 400.257812 59.933594 399.984375 59.671875 C 399.71875 59.398438 399.386719 59.261719 398.988281 59.261719 C 398.816406 59.261719 398.605469 59.292969 398.363281 59.359375 L 398.460938 58.597656 C 398.523438 58.597656 398.578125 58.597656 398.617188 58.597656 C 398.976562 58.597656 399.308594 58.5 399.613281 58.304688 C 399.910156 58.109375 400.0625 57.808594 400.0625 57.40625 C 400.0625 57.082031 399.949219 56.8125 399.730469 56.605469 C 399.519531 56.398438 399.242188 56.292969 398.890625 56.292969 C 398.546875 56.292969 398.265625 56.402344 398.03125 56.625 C 397.804688 56.832031 397.664062 57.152344 397.601562 57.582031 L 396.722656 57.425781 C 396.824219 56.839844 397.0625 56.382812 397.445312 56.058594 C 397.835938 55.734375 398.308594 55.570312 398.871094 55.570312 C 399.261719 55.570312 399.617188 55.65625 399.945312 55.824219 C 400.28125 55.992188 400.535156 56.222656 400.707031 56.507812 C 400.886719 56.792969 400.980469 57.101562 400.980469 57.425781 C 400.980469 57.738281 400.890625 58.023438 400.726562 58.285156 C 400.554688 58.53125 400.304688 58.726562 399.984375 58.871094 C 400.414062 58.976562 400.746094 59.183594 400.980469 59.496094 C 401.214844 59.796875 401.332031 60.179688 401.332031 60.648438 C 401.332031 61.273438 401.101562 61.808594 400.648438 62.25 C 400.1875 62.679688 399.613281 62.894531 398.910156 62.894531 C 398.285156 62.894531 397.761719 62.707031 397.347656 62.328125 C 396.925781 61.949219 396.691406 61.460938 396.644531 60.863281 Z M 396.644531 60.863281 "/>
<path style=" stroke:none;fill-rule:nonzero;fill:rgb(0%,0%,0%);fill-opacity:1;" d="M 372.519531 147.6875 L 372.519531 138.742188 L 373.730469 138.742188 L 378.4375 145.773438 L 378.4375 138.742188 L 379.570312 138.742188 L 379.570312 147.6875 L 378.359375 147.6875 L 373.652344 140.65625 L 373.652344 147.6875 L 372.519531 147.6875 Z M 372.519531 147.6875 "/>
<path style=" stroke:none;fill-rule:nonzero;fill:rgb(0%,0%,0%);fill-opacity:1;" d="M 385.667969 147.6875 L 385.667969 146.730469 C 385.160156 147.472656 384.46875 147.84375 383.597656 147.84375 C 383.21875 147.84375 382.859375 147.769531 382.523438 147.628906 C 382.195312 147.472656 381.949219 147.289062 381.78125 147.0625 C 381.625 146.84375 381.511719 146.570312 381.449219 146.242188 C 381.410156 146.039062 381.390625 145.695312 381.390625 145.226562 L 381.390625 141.203125 L 382.484375 141.203125 L 382.484375 144.796875 C 382.484375 145.375 382.507812 145.765625 382.5625 145.96875 C 382.625 146.257812 382.769531 146.488281 382.992188 146.652344 C 383.210938 146.808594 383.492188 146.886719 383.832031 146.886719 C 384.15625 146.886719 384.460938 146.804688 384.75 146.632812 C 385.035156 146.46875 385.238281 146.238281 385.355469 145.949219 C 385.484375 145.652344 385.550781 145.226562 385.550781 144.679688 L 385.550781 141.203125 L 386.644531 141.203125 L 386.644531 147.6875 L 385.667969 147.6875 Z M 385.667969 147.6875 "/>
<path style=" stroke:none;fill-rule:nonzero;fill:rgb(0%,0%,0%);fill-opacity:1;" d="M 375.875 136.3125 L 374.3125 136.3125 L 374.3125 115.1875 L 375.0625 114.875 L 375.875 115.125 L 375.875 136.3125 Z M 375.875 136.3125 "/>
<path style=" stroke:none;fill-rule:nonzero;fill:rgb(0%,0%,0%);fill-opacity:1;" d="M 350.851562 99.3125 L 350.851562 90.367188 L 354.816406 90.367188 C 355.621094 90.367188 356.226562 90.453125 356.632812 90.621094 C 357.046875 90.777344 357.378906 91.0625 357.628906 91.460938 C 357.886719 91.867188 358.019531 92.316406 358.019531 92.808594 C 358.019531 93.449219 357.808594 93.980469 357.394531 94.410156 C 356.976562 94.839844 356.34375 95.125 355.5 95.25 C 355.8125 95.398438 356.046875 95.539062 356.203125 95.679688 C 356.554688 96.007812 356.875 96.402344 357.179688 96.871094 L 358.742188 99.3125 L 357.257812 99.3125 L 356.066406 97.457031 C 355.726562 96.910156 355.441406 96.5 355.207031 96.226562 C 354.984375 95.945312 354.78125 95.738281 354.601562 95.621094 C 354.429688 95.503906 354.253906 95.425781 354.074219 95.386719 C 353.941406 95.363281 353.722656 95.347656 353.410156 95.347656 L 352.042969 95.347656 L 352.042969 99.3125 L 350.851562 99.3125 Z M 352.042969 94.3125 L 354.582031 94.3125 C 355.128906 94.3125 355.546875 94.265625 355.851562 94.15625 C 356.164062 94.039062 356.398438 93.859375 356.554688 93.609375 C 356.710938 93.367188 356.789062 93.097656 356.789062 92.808594 C 356.789062 92.378906 356.632812 92.027344 356.320312 91.753906 C 356.015625 91.480469 355.539062 91.34375 354.875 91.34375 L 352.042969 91.34375 L 352.042969 94.3125 Z M 352.042969 94.3125 "/>
<path style=" stroke:none;fill-rule:nonzero;fill:rgb(0%,0%,0%);fill-opacity:1;" d="M 362.695312 95.070312 L 361.816406 95.070312 L 361.816406 89.464844 C 361.605469 89.671875 361.328125 89.882812 360.976562 90.089844 C 360.632812 90.285156 360.332031 90.429688 360.058594 90.519531 L 360.058594 89.679688 C 360.550781 89.445312 360.980469 89.164062 361.347656 88.839844 C 361.707031 88.515625 361.972656 88.195312 362.128906 87.882812 L 362.695312 87.882812 L 362.695312 95.070312 Z M 362.695312 95.070312 "/>
<path style=" stroke:none;fill-rule:nonzero;fill:rgb(0%,0%,0%);fill-opacity:1;" d="M 360.25 101.1875 L 361.375 100.0625 L 374.8125 113.5 L 375.0625 114.875 L 374.3125 115.1875 L 360.25 101.1875 Z M 360.25 101.1875 "/>
<path style=" stroke:none;fill-rule:nonzero;fill:rgb(0%,0%,0%);fill-opacity:1;" d="M 386.289062 94.8125 L 386.289062 85.867188 L 390.253906 85.867188 C 391.058594 85.867188 391.664062 85.957031 392.070312 86.121094 C 392.484375 86.277344 392.816406 86.5625 393.066406 86.960938 C 393.324219 87.367188 393.457031 87.816406 393.457031 88.308594 C 393.457031 88.949219 393.246094 89.480469 392.832031 89.910156 C 392.414062 90.339844 391.78125 90.625 390.9375 90.75 C 391.25 90.898438 391.484375 91.039062 391.640625 91.179688 C 391.992188 91.507812 392.3125 91.902344 392.617188 92.371094 L 394.179688 94.8125 L 392.695312 94.8125 L 391.503906 92.957031 C 391.164062 92.410156 390.878906 92 390.644531 91.726562 C 390.421875 91.445312 390.21875 91.238281 390.039062 91.121094 C 389.867188 91.003906 389.691406 90.925781 389.511719 90.886719 C 389.378906 90.863281 389.160156 90.847656 388.847656 90.847656 L 387.480469 90.847656 L 387.480469 94.8125 L 386.289062 94.8125 Z M 387.480469 89.8125 L 390.019531 89.8125 C 390.566406 89.8125 390.984375 89.765625 391.289062 89.65625 C 391.601562 89.539062 391.835938 89.359375 391.992188 89.109375 C 392.148438 88.867188 392.226562 88.597656 392.226562 88.308594 C 392.226562 87.878906 392.070312 87.527344 391.757812 87.253906 C 391.453125 86.980469 390.976562 86.84375 390.3125 86.84375 L 387.480469 86.84375 L 387.480469 89.8125 Z M 387.480469 89.8125 "/>
<path style=" stroke:none;fill-rule:nonzero;fill:rgb(0%,0%,0%);fill-opacity:1;" d="M 394.832031 88.675781 L 395.710938 88.558594 C 395.796875 89.054688 395.96875 89.410156 396.21875 89.632812 C 396.460938 89.855469 396.753906 89.964844 397.097656 89.964844 C 397.511719 89.964844 397.863281 89.820312 398.152344 89.535156 C 398.433594 89.25 398.582031 88.898438 398.582031 88.480469 C 398.582031 88.078125 398.445312 87.746094 398.171875 87.484375 C 397.90625 87.210938 397.574219 87.074219 397.175781 87.074219 C 397.003906 87.074219 396.792969 87.105469 396.550781 87.171875 L 396.648438 86.410156 C 396.710938 86.410156 396.765625 86.410156 396.804688 86.410156 C 397.164062 86.410156 397.496094 86.3125 397.800781 86.117188 C 398.097656 85.921875 398.25 85.621094 398.25 85.21875 C 398.25 84.894531 398.136719 84.625 397.917969 84.417969 C 397.707031 84.210938 397.429688 84.105469 397.078125 84.105469 C 396.734375 84.105469 396.453125 84.214844 396.21875 84.4375 C 395.992188 84.644531 395.851562 84.964844 395.789062 85.394531 L 394.910156 85.238281 C 395.011719 84.652344 395.25 84.195312 395.632812 83.871094 C 396.023438 83.546875 396.496094 83.382812 397.058594 83.382812 C 397.449219 83.382812 397.804688 83.46875 398.132812 83.636719 C 398.46875 83.804688 398.722656 84.035156 398.894531 84.320312 C 399.074219 84.605469 399.167969 84.914062 399.167969 85.238281 C 399.167969 85.550781 399.078125 85.835938 398.914062 86.097656 C 398.742188 86.34375 398.492188 86.539062 398.171875 86.683594 C 398.601562 86.789062 398.933594 86.996094 399.167969 87.308594 C 399.402344 87.609375 399.519531 87.992188 399.519531 88.460938 C 399.519531 89.085938 399.289062 89.621094 398.835938 90.0625 C 398.375 90.492188 397.800781 90.707031 397.097656 90.707031 C 396.472656 90.707031 395.949219 90.519531 395.535156 90.140625 C 395.113281 89.761719 394.878906 89.273438 394.832031 88.675781 Z M 394.832031 88.675781 "/>
<path style=" stroke:none;fill-rule:nonzero;fill:rgb(0%,0%,0%);fill-opacity:1;" d="M 382.125 95.1875 L 388.625 98.9375 L 375.875 115.125 L 375.0625 114.875 L 374.8125 113.5 L 382.125 95.1875 Z M 382.125 95.1875 "/>
<path style=" stroke:none;fill-rule:nonzero;fill:rgb(0%,0%,0%);fill-opacity:1;" d="M 399.539062 112 L 399.539062 103.054688 L 403.503906 103.054688 C 404.308594 103.054688 404.914062 103.144531 405.320312 103.308594 C 405.734375 103.464844 406.066406 103.75 406.316406 104.148438 C 406.574219 104.554688 406.707031 105.003906 406.707031 105.496094 C 406.707031 106.136719 406.496094 106.667969 406.082031 107.097656 C 405.664062 107.527344 405.03125 107.8125 404.1875 107.9375 C 404.5 108.085938 404.734375 108.226562 404.890625 108.367188 C 405.242188 108.695312 405.5625 109.089844 405.867188 109.558594 L 407.429688 112 L 405.945312 112 L 404.753906 110.144531 C 404.414062 109.597656 404.128906 109.1875 403.894531 108.914062 C 403.671875 108.632812 403.46875 108.425781 403.289062 108.308594 C 403.117188 108.191406 402.941406 108.113281 402.761719 108.074219 C 402.628906 108.050781 402.410156 108.035156 402.097656 108.035156 L 400.730469 108.035156 L 400.730469 112 L 399.539062 112 Z M 400.730469 107 L 403.269531 107 C 403.816406 107 404.234375 106.953125 404.539062 106.84375 C 404.851562 106.726562 405.085938 106.546875 405.242188 106.296875 C 405.398438 106.054688 405.476562 105.785156 405.476562 105.496094 C 405.476562 105.066406 405.320312 104.714844 405.007812 104.441406 C 404.703125 104.167969 404.226562 104.03125 403.5625 104.03125 L 400.730469 104.03125 L 400.730469 107 Z M 400.730469 107 "/>
<path style=" stroke:none;fill-rule:nonzero;fill:rgb(0%,0%,0%);fill-opacity:1;" d="M 412.691406 106.917969 L 412.691406 107.757812 L 407.964844 107.757812 C 407.949219 107.550781 407.984375 107.347656 408.0625 107.152344 C 408.179688 106.828125 408.363281 106.507812 408.628906 106.195312 C 408.902344 105.882812 409.28125 105.519531 409.78125 105.101562 C 410.5625 104.464844 411.089844 103.960938 411.363281 103.597656 C 411.636719 103.21875 411.773438 102.867188 411.773438 102.542969 C 411.773438 102.191406 411.644531 101.898438 411.402344 101.664062 C 411.152344 101.417969 410.824219 101.292969 410.425781 101.292969 C 410.003906 101.292969 409.667969 101.421875 409.410156 101.683594 C 409.160156 101.929688 409.027344 102.28125 409.019531 102.738281 L 408.121094 102.640625 C 408.183594 101.964844 408.417969 101.449219 408.824219 101.097656 C 409.222656 100.746094 409.765625 100.570312 410.445312 100.570312 C 411.132812 100.570312 411.675781 100.757812 412.066406 101.136719 C 412.464844 101.515625 412.671875 101.988281 412.671875 102.5625 C 412.671875 102.847656 412.613281 103.128906 412.496094 103.402344 C 412.378906 103.675781 412.183594 103.96875 411.910156 104.28125 C 411.644531 104.582031 411.195312 104.996094 410.5625 105.53125 C 410.039062 105.972656 409.703125 106.273438 409.546875 106.429688 C 409.398438 106.585938 409.277344 106.75 409.175781 106.917969 L 412.691406 106.917969 Z M 412.691406 106.917969 "/>
<path style=" stroke:none;fill-rule:nonzero;fill:rgb(0%,0%,0%);fill-opacity:1;" d="M 395.3125 105.625 L 397.25 112.8125 L 395.625 113 L 393.8125 106.25 L 395.3125 105.625 Z M 395.3125 105.625 "/>
<path style=" stroke:none;fill-rule:nonzero;fill:rgb(0%,0%,0%);fill-opacity:1;" d="M 392.125 107 L 393.8125 113.1875 L 392.25 113.375 L 390.6875 107.625 L 392.125 107 Z M 392.125 107 "/>
<path style=" stroke:none;fill-rule:nonzero;fill:rgb(0%,0%,0%);fill-opacity:1;" d="M 389 108.4375 L 390.375 113.5625 L 388.8125 113.6875 L 387.5625 109.0625 L 389 108.4375 Z M 389 108.4375 "/>
<path style=" stroke:none;fill-rule:nonzero;fill:rgb(0%,0%,0%);fill-opacity:1;" d="M 385.875 109.8125 L 386.9375 113.875 L 385.375 114.0625 L 384.4375 110.4375 L 385.875 109.8125 Z M 385.875 109.8125 "/>
<path style=" stroke:none;fill-rule:nonzero;fill:rgb(0%,0%,0%);fill-opacity:1;" d="M 382.75 111.1875 L 383.5625 114.25 L 381.9375 114.4375 L 381.25 111.875 L 382.75 111.1875 Z M 382.75 111.1875 "/>
<path style=" stroke:none;fill-rule:nonzero;fill:rgb(0%,0%,0%);fill-opacity:1;" d="M 379.5625 112.625 L 380.125 114.625 L 378.5625 114.75 L 378.125 113.25 L 379.5625 112.625 Z M 379.5625 112.625 "/>
<path style="fill:none;stroke-width:16;stroke-linecap:butt;stroke-linejoin:miter;stroke:rgb(0%,0%,0%);stroke-opacity:1;stroke-dasharray:54,54;stroke-miterlimit:10;" d="M 8429 7705.75 L 7013.8125 7705.75 " transform="matrix(0.0625,0,0,0.0625,-105,-406.25)"/>
<path style="fill:none;stroke-width:20;stroke-linecap:butt;stroke-linejoin:miter;stroke:rgb(0%,0%,0%);stroke-opacity:1;stroke-miterlimit:10;" d="M 6603.5625 7286.375 L 5733.8125 7584.4375 " transform="matrix(0.0625,0,0,0.0625,-105,-406.25)"/>
<path style="fill-rule:nonzero;fill:rgb(0%,0%,0%);fill-opacity:1;stroke-width:25;stroke-linecap:butt;stroke-linejoin:miter;stroke:rgb(0%,0%,0%);stroke-opacity:1;stroke-miterlimit:10;" d="M 6809.125 7215.9375 C 6809.125 7215.9375 6594.375 7356.8125 6594.375 7356.8125 C 6594.375 7356.8125 6611.9375 7312.9375 6602.6875 7286.6875 C 6593.375 7260.4375 6551.9375 7236.8125 6551.9375 7236.8125 C 6551.9375 7236.8125 6809.125 7215.9375 6809.125 7215.9375 " transform="matrix(0.0625,0,0,0.0625,-105,-406.25)"/>
<path style="fill:none;stroke-width:20;stroke-linecap:butt;stroke-linejoin:miter;stroke:rgb(0%,0%,0%);stroke-opacity:1;stroke-miterlimit:10;" d="M 2647.25 7468.25 C 2558.375 7393.6875 2425.625 7405.3125 2351 7494.1875 C 2310.0625 7543.0625 2293.125 7610.75 2306.375 7673.125 " transform="matrix(0.0625,0,0,0.0625,-105,-406.25)"/>
<path style="fill-rule:nonzero;fill:rgb(0%,0%,0%);fill-opacity:1;stroke-width:20;stroke-linecap:butt;stroke-linejoin:miter;stroke:rgb(0%,0%,0%);stroke-opacity:1;stroke-miterlimit:10;" d="M 2717.8125 7585.6875 C 2717.8125 7585.6875 2602.625 7472.75 2602.625 7472.75 C 2602.625 7472.75 2632.5 7477.3125 2647.25 7468.25 C 2662.0625 7459.3125 2671.75 7430.375 2671.75 7430.375 C 2671.75 7430.375 2717.8125 7585.6875 2717.8125 7585.6875 " transform="matrix(0.0625,0,0,0.0625,-105,-406.25)"/>
<path style=" stroke:none;fill-rule:nonzero;fill:rgb(0%,0%,0%);fill-opacity:1;" d="M 431.339844 43.90625 L 432.492188 43.808594 C 432.570312 44.371094 432.765625 44.796875 433.078125 45.078125 C 433.390625 45.367188 433.765625 45.507812 434.210938 45.507812 C 434.726562 45.507812 435.171875 45.308594 435.539062 44.902344 C 435.914062 44.503906 436.105469 43.976562 436.105469 43.320312 C 436.105469 42.695312 435.929688 42.203125 435.578125 41.835938 C 435.226562 41.476562 434.761719 41.289062 434.191406 41.289062 C 433.839844 41.289062 433.515625 41.378906 433.234375 41.542969 C 432.945312 41.699219 432.71875 41.90625 432.550781 42.148438 L 431.535156 42.011719 L 432.394531 37.421875 L 436.847656 37.421875 L 436.847656 38.476562 L 433.273438 38.476562 L 432.785156 40.878906 C 433.332031 40.503906 433.898438 40.3125 434.484375 40.3125 C 435.265625 40.3125 435.921875 40.585938 436.457031 41.132812 C 436.988281 41.671875 437.257812 42.363281 437.257812 43.222656 C 437.257812 44.035156 437.023438 44.726562 436.554688 45.3125 C 435.976562 46.046875 435.195312 46.40625 434.210938 46.40625 C 433.390625 46.40625 432.71875 46.183594 432.199219 45.722656 C 431.691406 45.269531 431.402344 44.664062 431.339844 43.90625 Z M 431.339844 43.90625 "/>
<path style=" stroke:none;fill-rule:nonzero;fill:rgb(0%,0%,0%);fill-opacity:1;" d="M 438.292969 41.835938 C 438.292969 40.78125 438.394531 39.9375 438.605469 39.296875 C 438.824219 38.648438 439.152344 38.144531 439.582031 37.792969 C 440.011719 37.441406 440.546875 37.265625 441.203125 37.265625 C 441.679688 37.265625 442.101562 37.363281 442.453125 37.558594 C 442.8125 37.753906 443.117188 38.039062 443.351562 38.398438 C 443.59375 38.765625 443.785156 39.210938 443.917969 39.726562 C 444.042969 40.25 444.113281 40.953125 444.113281 41.835938 C 444.113281 42.890625 444 43.746094 443.78125 44.394531 C 443.570312 45.035156 443.253906 45.527344 442.824219 45.878906 C 442.394531 46.230469 441.851562 46.40625 441.203125 46.40625 C 440.34375 46.40625 439.664062 46.09375 439.171875 45.46875 C 438.585938 44.726562 438.292969 43.515625 438.292969 41.835938 Z M 439.40625 41.835938 C 439.40625 43.3125 439.570312 44.292969 439.914062 44.785156 C 440.265625 45.269531 440.695312 45.507812 441.203125 45.507812 C 441.710938 45.507812 442.128906 45.269531 442.472656 44.785156 C 442.824219 44.292969 443 43.3125 443 41.835938 C 443 40.367188 442.824219 39.390625 442.472656 38.90625 C 442.128906 38.429688 441.699219 38.183594 441.183594 38.183594 C 440.683594 38.183594 440.285156 38.394531 439.972656 38.808594 C 439.589844 39.355469 439.40625 40.367188 439.40625 41.835938 Z M 439.40625 41.835938 "/>
<path style=" stroke:none;fill-rule:nonzero;fill:rgb(0%,0%,0%);fill-opacity:1;" d="M 445.441406 39.453125 C 445.441406 38.820312 445.601562 38.277344 445.929688 37.832031 C 446.25 37.378906 446.714844 37.148438 447.316406 37.148438 C 447.886719 37.148438 448.355469 37.355469 448.722656 37.753906 C 449.082031 38.160156 449.269531 38.746094 449.269531 39.511719 C 449.269531 40.269531 449.078125 40.855469 448.703125 41.269531 C 448.335938 41.675781 447.882812 41.875 447.335938 41.875 C 446.796875 41.875 446.347656 41.675781 445.988281 41.269531 C 445.621094 40.871094 445.441406 40.265625 445.441406 39.453125 Z M 447.355469 37.910156 C 447.082031 37.910156 446.851562 38.027344 446.671875 38.261719 C 446.484375 38.496094 446.398438 38.925781 446.398438 39.550781 C 446.398438 40.136719 446.484375 40.546875 446.671875 40.78125 C 446.851562 41.007812 447.082031 41.113281 447.355469 41.113281 C 447.628906 41.113281 447.851562 40.996094 448.039062 40.761719 C 448.21875 40.527344 448.3125 40.097656 448.3125 39.472656 C 448.3125 38.902344 448.21875 38.496094 448.039062 38.261719 C 447.851562 38.027344 447.628906 37.910156 447.355469 37.910156 Z M 447.355469 46.582031 L 452.257812 37.148438 L 453.15625 37.148438 L 448.273438 46.582031 L 447.355469 46.582031 Z M 451.222656 44.140625 C 451.222656 43.507812 451.382812 42.964844 451.710938 42.519531 C 452.03125 42.082031 452.5 41.855469 453.117188 41.855469 C 453.671875 41.855469 454.136719 42.0625 454.503906 42.460938 C 454.878906 42.851562 455.070312 43.4375 455.070312 44.21875 C 455.070312 44.976562 454.878906 45.5625 454.503906 45.976562 C 454.136719 46.378906 453.671875 46.582031 453.117188 46.582031 C 452.578125 46.582031 452.128906 46.378906 451.769531 45.976562 C 451.402344 45.578125 451.222656 44.960938 451.222656 44.140625 Z M 453.15625 42.597656 C 452.867188 42.597656 452.632812 42.726562 452.453125 42.96875 C 452.28125 43.203125 452.199219 43.632812 452.199219 44.257812 C 452.199219 44.835938 452.285156 45.234375 452.472656 45.46875 C 452.652344 45.703125 452.871094 45.820312 453.136719 45.820312 C 453.417969 45.820312 453.652344 45.703125 453.839844 45.46875 C 454.019531 45.234375 454.113281 44.804688 454.113281 44.179688 C 454.113281 43.59375 454.019531 43.183594 453.839844 42.949219 C 453.652344 42.714844 453.429688 42.597656 453.15625 42.597656 Z M 453.15625 42.597656 "/>
<path style=" stroke:none;fill-rule:nonzero;fill:rgb(0%,0%,0%);fill-opacity:1;" d="M 430.714844 112.03125 L 431.867188 111.933594 C 431.945312 112.496094 432.140625 112.921875 432.453125 113.203125 C 432.765625 113.492188 433.140625 113.632812 433.585938 113.632812 C 434.101562 113.632812 434.546875 113.433594 434.914062 113.027344 C 435.289062 112.628906 435.480469 112.101562 435.480469 111.445312 C 435.480469 110.820312 435.304688 110.328125 434.953125 109.960938 C 434.601562 109.601562 434.136719 109.414062 433.566406 109.414062 C 433.214844 109.414062 432.890625 109.503906 432.609375 109.667969 C 432.320312 109.824219 432.09375 110.03125 431.925781 110.273438 L 430.910156 110.136719 L 431.769531 105.546875 L 436.222656 105.546875 L 436.222656 106.601562 L 432.648438 106.601562 L 432.160156 109.003906 C 432.707031 108.628906 433.273438 108.4375 433.859375 108.4375 C 434.640625 108.4375 435.296875 108.710938 435.832031 109.257812 C 436.363281 109.796875 436.632812 110.488281 436.632812 111.347656 C 436.632812 112.160156 436.398438 112.851562 435.929688 113.4375 C 435.351562 114.171875 434.570312 114.53125 433.585938 114.53125 C 432.765625 114.53125 432.09375 114.308594 431.574219 113.847656 C 431.066406 113.394531 430.777344 112.789062 430.714844 112.03125 Z M 430.714844 112.03125 "/>
<path style=" stroke:none;fill-rule:nonzero;fill:rgb(0%,0%,0%);fill-opacity:1;" d="M 437.667969 109.960938 C 437.667969 108.90625 437.769531 108.0625 437.980469 107.421875 C 438.199219 106.773438 438.527344 106.269531 438.957031 105.917969 C 439.386719 105.566406 439.921875 105.390625 440.578125 105.390625 C 441.054688 105.390625 441.476562 105.488281 441.828125 105.683594 C 442.1875 105.878906 442.492188 106.164062 442.726562 106.523438 C 442.96875 106.890625 443.160156 107.335938 443.292969 107.851562 C 443.417969 108.375 443.488281 109.078125 443.488281 109.960938 C 443.488281 111.015625 443.375 111.871094 443.15625 112.519531 C 442.945312 113.160156 442.628906 113.652344 442.199219 114.003906 C 441.769531 114.355469 441.226562 114.53125 440.578125 114.53125 C 439.71875 114.53125 439.039062 114.21875 438.546875 113.59375 C 437.960938 112.851562 437.667969 111.640625 437.667969 109.960938 Z M 438.78125 109.960938 C 438.78125 111.4375 438.945312 112.417969 439.289062 112.910156 C 439.640625 113.394531 440.070312 113.632812 440.578125 113.632812 C 441.085938 113.632812 441.503906 113.394531 441.847656 112.910156 C 442.199219 112.417969 442.375 111.4375 442.375 109.960938 C 442.375 108.492188 442.199219 107.515625 441.847656 107.03125 C 441.503906 106.554688 441.074219 106.308594 440.558594 106.308594 C 440.058594 106.308594 439.660156 106.519531 439.347656 106.933594 C 438.964844 107.480469 438.78125 108.492188 438.78125 109.960938 Z M 438.78125 109.960938 "/>
<path style=" stroke:none;fill-rule:nonzero;fill:rgb(0%,0%,0%);fill-opacity:1;" d="M 444.816406 107.578125 C 444.816406 106.945312 444.976562 106.402344 445.304688 105.957031 C 445.625 105.503906 446.089844 105.273438 446.691406 105.273438 C 447.261719 105.273438 447.730469 105.480469 448.097656 105.878906 C 448.457031 106.285156 448.644531 106.871094 448.644531 107.636719 C 448.644531 108.394531 448.453125 108.980469 448.078125 109.394531 C 447.710938 109.800781 447.257812 110 446.710938 110 C 446.171875 110 445.722656 109.800781 445.363281 109.394531 C 444.996094 108.996094 444.816406 108.390625 444.816406 107.578125 Z M 446.730469 106.035156 C 446.457031 106.035156 446.226562 106.152344 446.046875 106.386719 C 445.859375 106.621094 445.773438 107.050781 445.773438 107.675781 C 445.773438 108.261719 445.859375 108.671875 446.046875 108.90625 C 446.226562 109.132812 446.457031 109.238281 446.730469 109.238281 C 447.003906 109.238281 447.226562 109.121094 447.414062 108.886719 C 447.59375 108.652344 447.6875 108.222656 447.6875 107.597656 C 447.6875 107.027344 447.59375 106.621094 447.414062 106.386719 C 447.226562 106.152344 447.003906 106.035156 446.730469 106.035156 Z M 446.730469 114.707031 L 451.632812 105.273438 L 452.53125 105.273438 L 447.648438 114.707031 L 446.730469 114.707031 Z M 450.597656 112.265625 C 450.597656 111.632812 450.757812 111.089844 451.085938 110.644531 C 451.40625 110.207031 451.875 109.980469 452.492188 109.980469 C 453.046875 109.980469 453.511719 110.1875 453.878906 110.585938 C 454.253906 110.976562 454.445312 111.5625 454.445312 112.34375 C 454.445312 113.101562 454.253906 113.6875 453.878906 114.101562 C 453.511719 114.503906 453.046875 114.707031 452.492188 114.707031 C 451.953125 114.707031 451.503906 114.503906 451.144531 114.101562 C 450.777344 113.703125 450.597656 113.085938 450.597656 112.265625 Z M 452.53125 110.722656 C 452.242188 110.722656 452.007812 110.851562 451.828125 111.09375 C 451.65625 111.328125 451.574219 111.757812 451.574219 112.382812 C 451.574219 112.960938 451.660156 113.359375 451.847656 113.59375 C 452.027344 113.828125 452.246094 113.945312 452.511719 113.945312 C 452.792969 113.945312 453.027344 113.828125 453.214844 113.59375 C 453.394531 113.359375 453.488281 112.929688 453.488281 112.304688 C 453.488281 111.71875 453.394531 111.308594 453.214844 111.074219 C 453.027344 110.839844 452.804688 110.722656 452.53125 110.722656 Z M 452.53125 110.722656 "/>
<path style="fill:none;stroke-width:20;stroke-linecap:butt;stroke-linejoin:miter;stroke:rgb(0%,0%,0%);stroke-opacity:1;stroke-miterlimit:10;" d="M 6092.9375 6990 C 5773.4375 6685.0625 5266.5625 6696.9375 4961.625 7016.5 C 4897.5 7083.75 4845.1875 7162.25 4807.8125 7247.3125 " transform="matrix(0.0625,0,0,0.0625,-105,-406.25)"/>
<path style="fill-rule:nonzero;fill:rgb(0%,0%,0%);fill-opacity:1;stroke-width:20;stroke-linecap:butt;stroke-linejoin:miter;stroke:rgb(0%,0%,0%);stroke-opacity:1;stroke-miterlimit:10;" d="M 4762.9375 7380 C 4762.9375 7380 4775.3125 7214.625 4775.3125 7214.625 C 4775.3125 7214.625 4790.75 7241.3125 4807.8125 7247.3125 C 4824.8125 7253.4375 4853.125 7242.25 4853.125 7242.25 C 4853.125 7242.25 4762.9375 7380 4762.9375 7380 " transform="matrix(0.0625,0,0,0.0625,-105,-406.25)"/>
<path style="fill:none;stroke-width:20;stroke-linecap:butt;stroke-linejoin:miter;stroke:rgb(0%,0%,0%);stroke-opacity:1;stroke-miterlimit:10;" d="M 4941.5 8126 C 5221.25 8480.0625 5761.5 8584.375 6152.9375 8360 " transform="matrix(0.0625,0,0,0.0625,-105,-406.25)"/>
<path style="fill-rule:nonzero;fill:rgb(0%,0%,0%);fill-opacity:1;stroke-width:20;stroke-linecap:butt;stroke-linejoin:miter;stroke:rgb(0%,0%,0%);stroke-opacity:1;stroke-miterlimit:10;" d="M 4862.9375 8010 C 4862.9375 8010 4986.875 8119.1875 4986.875 8119.1875 C 4986.875 8119.1875 4956.375 8115.75 4941.5 8126 C 4926.5625 8136.3125 4918.5 8166 4918.5 8166 C 4918.5 8166 4862.9375 8010 4862.9375 8010 " transform="matrix(0.0625,0,0,0.0625,-105,-406.25)"/>
</g>
</g>
</svg>
