<?xml version="1.0" encoding="UTF-8" standalone="no"?>
<svg xmlns="http://www.w3.org/2000/svg" 
   width="600"
   height="420"
   id="NATO Map Symbol">
  <g
     id="ICON"
	 transform="translate(0 10)">
  <path
     d="M 300.00069,279.09617 299.46377,133.46594 M 147.61257,279.09617 V 133.46594 h 151.31496 151.31496 l 2.14632,145.63023"
     style="fill:none;fill-rule:evenodd;stroke:#000000;stroke-width:25.5;stroke-linecap:butt;stroke-linejoin:miter;stroke-miterlimit:4;stroke-dasharray:none;stroke-opacity:1"
     id="ENGR" />
    <g
       id="Dive">
      <path
         style="color:#000000;display:inline;overflow:visible;visibility:visible;fill:none;stroke:#000000;stroke-width:8.5;stroke-linecap:round;stroke-linejoin:miter;stroke-miterlimit:4;stroke-dasharray:none;stroke-dashoffset:0;stroke-opacity:1;marker:none;enable-background:accumulate"
         id="Face"
         d="m 323.7096,60.414332 a 23.709604,23.709604 0 1 1 -47.4192,0 23.709604,23.709604 0 1 1 47.4192,0 z" />
      <path
         style="fill:none;stroke:#000000;stroke-width:8.5;stroke-linecap:butt;stroke-linejoin:miter;stroke-miterlimit:4;stroke-dasharray:none;stroke-opacity:1"
         id="Right"
         d="M 335.21393,75.290207 H 348.2669 V 45.538459 h -13.05297" />
      <path
         style="fill:none;stroke:#000000;stroke-width:8.5;stroke-linecap:butt;stroke-linejoin:miter;stroke-miterlimit:4;stroke-dasharray:none;stroke-opacity:1"
         id="Left"
         d="M 264.78606,75.290207 H 251.73309 V 45.53846 h 13.05297" />
      <path
         style="fill:none;stroke:#000000;stroke-width:8.5;stroke-linecap:butt;stroke-linejoin:miter;stroke-miterlimit:4;stroke-dasharray:none;stroke-opacity:1"
         id="Neck"
         d="m 285.12412,95.62826 -8.41322,15.45675 h 46.57818 l -8.41322,-15.45675" />
      <path
         d="m 336.62051,60.427977 a 36.754102,36.939029 0 1 1 -73.5082,0 36.754102,36.939029 0 1 1 73.5082,0 z"
         id="Helmet"
         style="color:#000000;display:inline;overflow:visible;visibility:visible;fill:none;stroke:#000000;stroke-width:8.5;stroke-linecap:round;stroke-linejoin:miter;stroke-miterlimit:4;stroke-dasharray:none;stroke-dashoffset:0;stroke-opacity:1;marker:none;enable-background:accumulate" />
    </g>
  </g>
  <path
     id="Neutral Frame"
     style="opacity:1;fill:none;fill-opacity:1;stroke:#00af00;stroke-width:10;stroke-linecap:butt;stroke-linejoin:miter;stroke-miterlimit:4;stroke-dasharray:none;stroke-dashoffset:0;stroke-opacity:1"
     d="M 95,5 H 505 V 415 H 95 Z" />
</svg>
