<?xml version="1.0" encoding="UTF-8" standalone="no"?>
<svg
   xmlns="http://www.w3.org/2000/svg"
   width="600"
   height="600"
   id="NATO Map Symbol">
  <path
     d="m 452.46733,447.52131 c 19.30852,0 33.66336,-3.83989 51.50148,-11.23021 17.83823,-7.39031 34.19965,-18.32522 47.85074,-31.98034 13.65119,-13.65512 24.58141,-30.0197 31.96656,-47.86001 7.38517,-17.8403 11.21948,-37.14228 11.21389,-56.45076 0.006,-19.30847 -3.82872,-38.61044 -11.21389,-56.45075 -7.38515,-17.8403 -18.31537,-34.20489 -31.96656,-47.86 -13.65109,-13.65512 -30.01251,-24.59004 -47.85074,-31.98035 -17.83812,-7.39031 -32.19296,-11.23021 -51.50148,-11.23021 h -4.94604 c 0,-19.30847 -3.83989,-38.60934 -11.23021,-56.44751 C 428.90076,78.193 417.96591,61.83159 404.31075,48.18041 390.6556,34.52923 374.29102,23.59906 356.45076,16.21391 338.6104,8.82874 319.3085,4.99383 299.99998,5.00001 c -19.30852,-0.006 -38.61042,3.82873 -56.45078,11.2139 -17.84026,7.38515 -34.20484,18.31532 -47.86,31.9665 -13.65515,13.65118 -24.59,30.01259 -31.98032,47.85076 -7.39032,17.83817 -11.23021,37.13904 -11.23021,56.44751 h -4.94604 c -19.30852,0 -33.66336,3.83989 -51.501478,11.23021 -17.83823,7.3903 -34.19955,18.32521 -47.85074,31.98034 -13.65119,13.65511 -24.5814,30.0197 -31.9666,47.86 -7.3851003,17.84031 -11.2200003,37.14229 -11.2138003,56.45076 -0.01,19.30848 3.8287,38.61046 11.2138003,56.45076 7.3852,17.84031 18.31541,34.20489 31.9666,47.86002 13.65119,13.65511 30.01251,24.59002 47.85074,31.98033 17.838118,7.39032 32.192958,11.23021 51.501478,11.23021 h 4.94604 c 0,19.30847 3.83989,38.60934 11.23021,56.44751 7.39032,17.83817 18.32517,34.19958 31.98032,47.85076 13.65516,13.65118 30.01974,24.58136 47.86,31.96651 17.84036,7.38517 37.14226,11.22008 56.45078,11.2139 19.30852,0.006 38.61042,-3.82873 56.45078,-11.2139 17.84026,-7.38515 34.20484,-18.31533 47.85999,-31.96651 13.65516,-13.65118 24.59001,-30.01259 31.98033,-47.85076 7.39032,-17.83817 11.23021,-37.13904 11.23021,-56.44751 z"
     id="Unknown Fill"
     style="fill:#ffff80;fill-opacity:1;stroke:none;stroke-width:10;stroke-linecap:butt;stroke-linejoin:miter;stroke-miterlimit:4" />
  <g
     id="ICON"
	 transform="translate(0 100)">
  <path
     style="fill:#000000;stroke:#000000;stroke-width:10;stroke-linejoin:miter;stroke-miterlimit:4"
     id="Aviation"
     d="m 394.47775,143.54479 c 33.96844,-20.29784 81.02658,25.27586 81.02658,56.45521 0,31.17935 -47.05814,76.75305 -81.02658,56.45521 L 205.52226,143.54479 c -33.96842,-20.29784 -81.0266,25.27586 -81.0266,56.45521 0,31.17935 47.05818,76.75305 81.0266,56.45521 z" />
  <g
     id="Navy"
	 style="fill:none;stroke:#000000;stroke-width:10;stroke-miterlimit:4">
    <path
       id="N1"
       d="m 300.50537,18.460153 c -4.44226,0 -8.04274,3.466765 -8.0414,7.738171 -0.002,4.271406 3.59914,7.738172 8.0414,7.738172 4.44227,0 8.04275,-3.466766 8.04141,-7.738172 0,-0.0012 0,-0.0024 0,-0.0036 0,-4.269773 -3.60037,-7.734614 -8.04141,-7.734614 z" />
    <path
       d="M 328.92701,85.238782 C 313.04271,101.12308 287.1406,100.9745 271.07303,84.906917"
       id="N2" />
    <path
       d="M 300,35 V 95"
       id="N3" />
    <path
       d="m 280,48 h 40"
       id="N4" />
    <path
       d="m 267.2756,83.776292 3.43264,-3.697195 -4.53193,-1.506913 z"
       id="N5" />
    <path
       d="m 332.7244,83.776292 -3.43265,-3.697195 4.53193,-1.506913 z"
       id="N6" />
  </g>
  <text
     style="font-size:100px;font-family:sans-serif;text-align:center;text-anchor:middle;fill:#000000;stroke:none"
     id="S2"
     y="380"
     x="300">U</text>
  </g>
  <path
     d="m 452.46733,447.52131 c 19.30852,0 33.66336,-3.83989 51.50148,-11.23021 17.83823,-7.39031 34.19965,-18.32522 47.85074,-31.98034 13.65119,-13.65512 24.58141,-30.0197 31.96656,-47.86 C 591.17128,338.61045 595.00559,319.30847 595,300 c 0.006,-19.30848 -3.82872,-38.61045 -11.21389,-56.45076 -7.38515,-17.8403 -18.31537,-34.20489 -31.96656,-47.86 -13.65109,-13.65511 -30.01251,-24.59003 -47.85074,-31.98035 -17.83812,-7.39031 -32.19296,-11.23021 -51.50148,-11.23021 h -4.94604 c 0,-19.30847 -3.83989,-38.60934 -11.23021,-56.44751 C 428.90076,78.193 417.96591,61.83159 404.31075,48.18041 390.6556,34.52923 374.29102,23.59906 356.45076,16.21391 338.6104,8.82874 319.3085,4.99383 299.99998,5.00001 c -19.30852,-0.006 -38.61042,3.82873 -56.45078,11.2139 -17.84026,7.38515 -34.20484,18.31532 -47.86,31.9665 -13.65515,13.65118 -24.59,30.01259 -31.98032,47.85076 -7.39032,17.83817 -11.23021,37.13904 -11.23021,56.44751 h -4.94604 c -19.30852,0 -33.66336,3.83989 -51.501479,11.23021 -17.83823,7.39031 -34.19955,18.32521 -47.85074,31.98034 -13.65119,13.65511 -24.5814,30.0197 -31.9666,47.86 C 8.8287112,261.38954 4.9938112,280.69152 5.0000112,300 c -0.01,19.30847 3.8287,38.61045 11.2137998,56.45076 7.3852,17.8403 18.31541,34.20488 31.9666,47.86001 13.65119,13.65511 30.01251,24.59002 47.85074,31.98033 17.838119,7.39032 32.192959,11.23021 51.501479,11.23021 h 4.94604 c 0,19.30847 3.83989,38.60934 11.23021,56.44751 7.39032,17.83817 18.32517,34.19958 31.98032,47.85076 13.65516,13.65118 30.01974,24.58136 47.86,31.96651 17.84036,7.38517 37.14226,11.22008 56.45078,11.2139 19.30852,0.006 38.61042,-3.82873 56.45078,-11.2139 17.84026,-7.38515 34.20484,-18.31533 47.85999,-31.96651 13.65516,-13.65118 24.59001,-30.01259 31.98033,-47.85076 7.39032,-17.83817 11.23021,-37.13904 11.23021,-56.44751 z"
     id="Unknown Frame"
     style="fill:none;fill-opacity:1;stroke:#000000;stroke-width:10;stroke-linecap:butt;stroke-linejoin:miter;stroke-miterlimit:4" />
</svg>
