<?xml version="1.0" encoding="UTF-8" standalone="no"?>
<svg
   xmlns="http://www.w3.org/2000/svg"
   id="NATO Map Symbol"
   height="440"
   width="600">
  <path
     id="Recce"
     style="fill:none;stroke:#000000;stroke-width:10;stroke-linecap:butt"
     d="M 515,5 85,435" />
  <g
     id="ICON"
	 transform="translate(0 20)">
  <g
     id="Sniper"
	 style="stroke:#000000;stroke-width:10;stroke-linecap:butt">
    <path
       d="m 222,29 h 55" />
    <path
       d="M 322,29 h 55" />
    <path
       d="M 300,96 v -55" />
  </g>
   <path
      id="ARMOUR"
      d="m 215.40054,292.5 c -51.4861,0 -93.22383,-41.01389 -93.22383,-92.5 0,-51.4861 41.73773,-92.5 93.22383,-92.5 h 169.19892 c 51.4861,0 93.22383,41.0139 93.22383,92.5 0,51.48611 -41.73773,92.5 -93.22383,92.5 z"
      style="fill:none;stroke:#000000;stroke-width:10" />
  <path
     id="ABN"
     d="m 185,357 c 0,0 35.45511,-32.13869 70,-31 39.3232,1.29621 45,41 45,41 0,0 4.74354,-39.62637 45,-41 40.25646,-1.37362 70,31 70,31"
     style="fill:none;stroke:#000000;stroke-width:10;stroke-linecap:butt;stroke-linejoin:miter;stroke-miterlimit:4" />
  </g>
  <path
     id="Neutral Frame"
     style="opacity:1;fill:none;fill-opacity:1;stroke:#00af00;stroke-width:10;stroke-linejoin:miter;stroke-miterlimit:4"
     d="M 85,5 H 515 V 435 H 85 Z" />
</svg>