<?xml version="1.0" encoding="UTF-8" standalone="no"?>
<svg
   xmlns="http://www.w3.org/2000/svg"
   width="600"
   height="400"
   id="NATO Map Symbol">
  <path
     id="Friendly Fill"
     d="M 5,5 H 595 V 395 H 5 Z"
     style="fill:#ffffff;fill-opacity:1;stroke:#0000ff;stroke-width:5;stroke-linecap:round;stroke-linejoin:miter;stroke-miterlimit:4" />
  <path
     id="UAV"
     style="fill:#000000;stroke:#000000;stroke-width:1.4411906px;stroke-linecap:butt;stroke-linejoin:miter"
     d="M 300,276 115,140 V 124.4 L 300,184 485,124.4 V 140 Z" />
  <g
     id="Missile"
     style="fill:none;stroke:#000000;stroke-width:10;stroke-linecap:butt;stroke-linejoin:miter;stroke-miterlimit:4;">
    <path
       d="M 281,96 V 42 c 0,-9.543303 12.40576,-23 19,-23 6.59424,0 19,13.456697 19,23 v 54"
       id="Msl1"/>
    <path
       d="M 300,19 V 96"
       id="Msl2" />
  </g>
  <path
     id="Sled"
     d="m 381.07148,313.51307 c 17.32251,0 31.36345,14.04593 31.35726,31.36845 0.006,17.32252 -14.03475,31.36845 -31.35726,31.36845 l -162.14296,0.01 c -17.32632,0 -31.36883,-14.05187 -31.35725,-31.3782 -0.0116,-17.32633 14.03093,-31.3782 31.35725,-31.3782"
     style="fill:none;stroke:#000000;stroke-width:10;stroke-linecap:round" />
  <path
     id="Friendly Frame"
     d="M 5,5 H 595 V 395 H 5 Z"
     style="fill:none;stroke:#0000ff;stroke-width:10;stroke-linecap:round;stroke-linejoin:miter;stroke-miterlimit:4" />
</svg>
