<?xml version="1.0" encoding="UTF-8" standalone="no"?>
<svg
   xmlns="http://www.w3.org/2000/svg"
   id="NATO Map Symbol"
   height="600"
   width="600">
  <path
     id="Recce"
     style="fill:none;stroke:#000000;stroke-width:10;stroke-linecap:butt1"
     d="m 153.5,446.5 293,-293" />
  <g
     id="ICON"
	 transform="translate(0 100)">
  <g
     id="CBRN"
	 style="fill:none;stroke:#000000;stroke-width:10;stroke-linecap:round;stroke-linejoin:round">
    <path
       d="m 249.78974,177.29784 c 3.82873,-4.59447 0,-25.26959 -16.84639,-36.75577 -17.61214,-11.48618 -37.52152,-13.01767 -42.88173,-3.82873 -7.65746,9.18894 0,25.26959 16.84639,36.75577 17.61214,11.48618 39.05301,8.4232 42.88173,3.82873 z m -31.39555,-43.64748 c 65.85409,26.03534 134.00541,135.5369 134.00541,135.5369" />
    <path
       d="m 350.21026,177.29784 c -3.82873,-4.59447 0,-25.26959 16.84639,-36.75577 17.61214,-11.48618 37.52152,-13.01767 42.88174,-3.82873 7.65745,9.18894 0,25.26959 -16.8464,36.75577 -17.61214,11.48618 -39.053,8.4232 -42.88173,3.82873 z m 31.39555,-43.64748 C 315.75172,159.6857 247.6004,269.18726 247.6004,269.18726" />
    <g
        id="CBRN1"
	    style="fill:#000000;stroke:none">
	   <path
          d="m 249.78974,177.29784 c 3.82873,-4.59447 0,-25.26959 -16.84639,-36.75577 -17.61214,-11.48618 -37.52152,-13.01767 -42.88173,-3.82873 -7.65746,9.18894 0,25.26959 16.84639,36.75577 17.61214,11.48618 39.05301,8.4232 42.88173,3.82873 z" />
       <path
          d="m 350.21026,177.29784 c -3.82873,-4.59447 0,-25.26959 16.84639,-36.75577 17.61214,-11.48618 37.52152,-13.01767 42.88174,-3.82873 7.65745,9.18894 0,25.26959 -16.8464,36.75577 -17.61214,11.48618 -39.053,8.4232 -42.88173,3.82873 z" />
    </g>
  </g>
   <path
      id="ARMOUR"
      d="m 215.40054,292.5 c -51.4861,0 -93.22383,-41.01389 -93.22383,-92.5 0,-51.4861 41.73773,-92.5 93.22383,-92.5 h 169.19892 c 51.4861,0 93.22383,41.0139 93.22383,92.5 0,51.48611 -41.73773,92.5 -93.22383,92.5 z"
      style="fill:none;stroke:#000000;stroke-width:10" />
  <path
     style="fill:none;stroke:#000000;stroke-width:10;stroke-linecap:butt;stroke-linejoin:miter;stroke-miterlimit:4"
     id="AMob"
     d="M 386,20 300,85 214,20" />
    <g
       id="Wheeled"
	   style="fill:none;stroke:#000000;stroke-width:10">
      <path
         id="Wheel-L"
         d="m 250.28578,338.88127 a 31.357262,31.357262 0 1 1 -62.71451,0 31.357262,31.357262 0 1 1 62.71451,0 z" />
      <path
         id="Wheel-C"
         d="m 331.35727,338.88127 a 31.357262,31.357262 0 1 1 -62.71452,0 31.357262,31.357262 0 1 1 62.71452,0 z" />
      <path
         id="Wheel-R"
         d="m 412.42874,338.88127 a 31.357262,31.357262 0 1 1 -62.71452,0 31.357262,31.357262 0 1 1 62.71452,0 z" />
    </g>
  </g>
  <path
     d="m 452.46733,447.52131 c 19.30852,0 33.66336,-3.83989 51.50148,-11.23021 17.83823,-7.39031 34.19965,-18.32522 47.85074,-31.98034 13.65119,-13.65512 24.58141,-30.0197 31.96656,-47.86 C 591.17128,338.61045 595.00559,319.30847 595,300 c 0.006,-19.30848 -3.82872,-38.61045 -11.21389,-56.45076 -7.38515,-17.8403 -18.31537,-34.20489 -31.96656,-47.86 -13.65109,-13.65511 -30.01251,-24.59003 -47.85074,-31.98035 -17.83812,-7.39031 -32.19296,-11.23021 -51.50148,-11.23021 h -4.94604 c 0,-19.30847 -3.83989,-38.60934 -11.23021,-56.44751 C 428.90076,78.193 417.96591,61.83159 404.31075,48.18041 390.6556,34.52923 374.29102,23.59906 356.45076,16.21391 338.6104,8.82874 319.3085,4.99383 299.99998,5.00001 c -19.30852,-0.006 -38.61042,3.82873 -56.45078,11.2139 -17.84026,7.38515 -34.20484,18.31532 -47.86,31.9665 -13.65515,13.65118 -24.59,30.01259 -31.98032,47.85076 -7.39032,17.83817 -11.23021,37.13904 -11.23021,56.44751 h -4.94604 c -19.30852,0 -33.66336,3.83989 -51.501479,11.23021 -17.83823,7.39031 -34.19955,18.32521 -47.85074,31.98034 -13.65119,13.65511 -24.5814,30.0197 -31.9666,47.86 C 8.8287112,261.38954 4.9938112,280.69152 5.0000112,300 c -0.01,19.30847 3.8287,38.61045 11.2137998,56.45076 7.3852,17.8403 18.31541,34.20488 31.9666,47.86001 13.65119,13.65511 30.01251,24.59002 47.85074,31.98033 17.838119,7.39032 32.192959,11.23021 51.501479,11.23021 h 4.94604 c 0,19.30847 3.83989,38.60934 11.23021,56.44751 7.39032,17.83817 18.32517,34.19958 31.98032,47.85076 13.65516,13.65118 30.01974,24.58136 47.86,31.96651 17.84036,7.38517 37.14226,11.22008 56.45078,11.2139 19.30852,0.006 38.61042,-3.82873 56.45078,-11.2139 17.84026,-7.38515 34.20484,-18.31533 47.85999,-31.96651 13.65516,-13.65118 24.59001,-30.01259 31.98033,-47.85076 7.39032,-17.83817 11.23021,-37.13904 11.23021,-56.44751 z"
     id="Unknown Frame"
     style="fill:none;stroke:#000000;stroke-width:10;stroke-linejoin:miter;stroke-miterlimit:4" />
</svg>
