<?xml version="1.0" encoding="UTF-8" standalone="no"?>
<svg xmlns="http://www.w3.org/2000/svg" 
   width="600"
   height="420"
   id="NATO Map Symbol">
  <g
     id="SpLvl"
	 style="fill:none;stroke:#000000;stroke-width:10;stroke-linecap:butt">
  <path
     id="Corps"
     d="M 505,5 440,205 505,415" />
  </g>
  <g
     id="ICON"
	 transform="translate(0 10)">
  <path
     style="fill:none;stroke:#000000;stroke-width:10;stroke-linecap:round;stroke-linejoin:miter;stroke-miterlimit:4"
     id="Postal"
     d="m 421.6868,171.59281 c -14.23654,35.9153 -53.5522,59.48384 -91.9384,55.09776 -39.26797,-3.23864 -73.71167,-35.23434 -79.82586,-74.15877 -2.07482,-6.63457 2.11942,-18.34152 -8.17068,-15.26723 -21.16628,0.34901 -42.33257,0.69802 -63.49885,1.04702 -0.46971,46.10372 27.18607,90.94092 68.56888,111.25432 41.4115,21.41758 94.62098,16.51976 131.41659,-12.11603 16.51526,-11.35221 26.5512,-29.16979 34.94621,-46.87176 3.00912,-6.24799 5.84449,-12.57989 8.50211,-18.98531 z" />
  </g>
  <path
     id="Neutral Frame"
     style="fill:none;stroke:#00af00;stroke-width:10;stroke-linejoin:miter;stroke-miterlimit:4"
     d="M 95,5 H 505 V 415 H 95 Z" />
</svg>
