<?xml version="1.0" encoding="utf-8"?>
<!-- Generator: Adobe Illustrator 14.0.0, SVG Export Plug-In  -->
<!DOCTYPE svg PUBLIC "-//W3C//DTD SVG 1.1//EN" "http://www.w3.org/Graphics/SVG/1.1/DTD/svg11.dtd" [
	<!ENTITY ns_flows "http://ns.adobe.com/Flows/1.0/">
]>
<svg version="1.1"
	 xmlns="http://www.w3.org/2000/svg" xmlns:xlink="http://www.w3.org/1999/xlink" xmlns:a="http://ns.adobe.com/AdobeSVGViewerExtensions/3.0/"
	 x="0px" y="0px" width="288px" height="270px" viewBox="191.923 49.146 288 270" enable-background="new 191.923 49.146 288 270"
	 xml:space="preserve">
<defs>
</defs>
<rect x="191.923" y="40.146" fill="#FFFFFF" width="288" height="288"/>
<circle fill="none" cx="265.648" cy="139.224" r="2.178"/>
<path fill="none" d="M342.521,116.152c0,3.639-2.947,6.59-6.589,6.59c-3.639,0-6.587-2.951-6.587-6.59
	c0-3.636,2.948-6.587,6.587-6.587C339.574,109.565,342.521,112.517,342.521,116.152z"/>
<circle fill="none" cx="381.616" cy="114.5" r="2.179"/>
<path fill="none" d="M404.686,191.372c-3.637,0-6.59-2.946-6.59-6.59c0-3.638,2.953-6.585,6.591-6.585
	c3.635,0,6.587,2.946,6.587,6.585C411.274,188.425,408.321,191.372,404.686,191.372z"/>
<circle fill="none" cx="265.653" cy="139.254" r="2.179"/>
<path fill="#ED1C24" stroke="#ED1C24" stroke-width="2" d="M313.678,294.544c-24.298,24.293-63.831,24.297-88.127,0
	c-24.298-24.297-24.298-63.832,0-88.129c9.508-9.508,22.084-15.773,35.412-17.645c0.864-0.123,1.745,0.139,2.403,0.715
	c0.663,0.574,1.041,1.406,1.039,2.281l-0.029,53.359c-0.003,5.836,4.749,10.584,10.59,10.584l53.363-0.025
	c0.875,0.002,1.707,0.381,2.281,1.041c0.576,0.66,0.836,1.537,0.714,2.406C329.46,272.452,323.192,285.028,313.678,294.544
	L313.678,294.544z"/>
<path fill="#FFFFFF" d="M252.192,207.958c4.252,4.252,4.253,11.148,0,15.398c-4.249,4.254-11.146,4.256-15.4,0.002
	c-4.253-4.252-4.25-11.148,0.001-15.398C241.045,203.706,247.943,203.704,252.192,207.958z"/>
<path stroke="#000000" stroke-width="2" d="M270.697,191.772c-0.003-2.34,1.899-4.24,4.226-4.24l53.355,0.031
	c2.337,0.002,4.236,1.9,4.236,4.229l0.033,53.359c0,2.336-1.898,4.238-4.23,4.238l-53.354-0.031c-2.337,0-4.235-1.898-4.235-4.227
	L270.697,191.772z"/>
<path fill="#ED1C24" stroke="#ED1C24" stroke-width="2" d="M313.678,73.755c9.515,9.514,15.782,22.09,17.646,35.41
	c0.122,0.869-0.138,1.746-0.714,2.408c-0.574,0.658-1.406,1.037-2.281,1.039l-53.363-0.025c-5.842,0.002-10.594,4.748-10.59,10.584
	l0.028,53.36c0.002,0.875-0.376,1.707-1.039,2.281c-0.659,0.576-1.539,0.838-2.403,0.715c-13.327-1.871-25.903-8.137-35.412-17.646
	c-24.297-24.297-24.297-63.83,0.001-88.127C249.847,49.457,289.38,49.46,313.678,73.755L313.678,73.755z"/>
<path stroke="#000000" stroke-width="2" d="M270.697,176.526c-0.003,2.34,1.899,4.24,4.226,4.24l53.355-0.031
	c2.337-0.002,4.236-1.9,4.236-4.229l0.033-53.36c0-2.336-1.898-4.238-4.23-4.238l-53.354,0.031c-2.337,0-4.235,1.9-4.235,4.229
	L270.697,176.526z"/>
<path fill="#FFFFFF" d="M312.124,100.416c-4.254,4.254-11.149,4.252-15.4,0c-4.253-4.25-4.254-11.146-0.002-15.4
	c4.252-4.252,11.149-4.25,15.402,0.004C316.374,89.269,316.377,96.166,312.124,100.416z"/>
<path fill="#ED1C24" stroke="#ED1C24" stroke-width="2" d="M446.347,161.909c-9.512,9.516-22.09,15.783-35.41,17.646
	c-0.867,0.122-1.746-0.137-2.408-0.713c-0.656-0.574-1.035-1.407-1.039-2.281l0.027-53.363c-0.004-5.842-4.75-10.595-10.584-10.59
	l-53.361,0.027c-0.875,0.002-1.707-0.376-2.281-1.039c-0.578-0.658-0.838-1.539-0.715-2.402
	c1.871-13.328,8.137-25.904,17.645-35.412c24.297-24.297,63.832-24.298,88.127,0C470.646,98.077,470.642,137.61,446.347,161.909
	L446.347,161.909z"/>
<path stroke="#000000" stroke-width="2" d="M343.578,118.928c-2.34-0.002-4.24,1.9-4.24,4.227l0.031,53.354
	c0.002,2.337,1.9,4.236,4.229,4.235l53.359,0.035c2.338-0.001,4.24-1.899,4.24-4.23l-0.033-53.355c0-2.336-1.9-4.234-4.227-4.234
	L343.578,118.928z"/>
<path fill="#FFFFFF" d="M419.689,160.355c-4.254-4.253-4.252-11.149-0.002-15.4c4.25-4.253,11.148-4.253,15.4-0.001
	s4.25,11.148-0.002,15.401C430.833,164.606,423.937,164.608,419.689,160.355z"/>
<path fill="none" d="M342.525,116.184c0,3.637-2.945,6.59-6.589,6.59c-3.638,0-6.585-2.953-6.585-6.591
	c0-3.635,2.946-6.587,6.585-6.587C339.578,109.596,342.525,112.549,342.525,116.184z"/>
<rect y="184.577" fill="#FFFFFF" width="335.363" height="183.651"/>
<rect x="335.829" fill="#FFFFFF" width="335.363" height="183.651"/>
<path fill="#ED1C24" stroke="#ED1C24" stroke-width="2" d="M358.19,225.97c-9.516-9.512-15.783-22.09-17.646-35.41
	c-0.122-0.867,0.137-1.746,0.713-2.408c0.574-0.656,1.407-1.035,2.281-1.039l53.363,0.027c5.842-0.004,10.595-4.75,10.59-10.584
	l-0.027-53.361c-0.002-0.875,0.376-1.707,1.039-2.281c0.658-0.578,1.539-0.838,2.402-0.715c13.328,1.871,25.904,8.137,35.412,17.645
	c24.297,24.297,24.298,63.832,0,88.127C422.022,250.269,382.489,250.265,358.19,225.97L358.19,225.97z"/>
<path stroke="#000000" stroke-width="2" d="M401.17,123.2c0.002-2.34-1.9-4.24-4.227-4.24l-53.354,0.031
	c-2.337,0.002-4.236,1.9-4.235,4.229l-0.035,53.359c0.001,2.338,1.899,4.24,4.23,4.24l53.355-0.033c2.336,0,4.234-1.9,4.234-4.227
	L401.17,123.2z"/>
<path fill="#FFFFFF" d="M359.744,199.312c4.253-4.254,11.149-4.252,15.4-0.002c4.253,4.25,4.253,11.148,0.001,15.4
	s-11.148,4.25-15.401-0.002C355.493,210.456,355.491,203.56,359.744,199.312z"/>
</svg>
