<?xml version="1.0" encoding="UTF-8" standalone="no"?>
<!-- Created with Inkscape (http://www.inkscape.org/) -->

<svg
   xmlns:dc="http://purl.org/dc/elements/1.1/"
   xmlns:cc="http://creativecommons.org/ns#"
   xmlns:rdf="http://www.w3.org/1999/02/22-rdf-syntax-ns#"
   xmlns:svg="http://www.w3.org/2000/svg"
   xmlns="http://www.w3.org/2000/svg"
   xmlns:xlink="http://www.w3.org/1999/xlink"
   xmlns:sodipodi="http://sodipodi.sourceforge.net/DTD/sodipodi-0.dtd"
   xmlns:inkscape="http://www.inkscape.org/namespaces/inkscape"
   width="50.000278mm"
   height="120.00021mm"
   viewBox="0 0 177.16635 425.19758"
   id="svg13688"
   version="1.1"
   inkscape:version="0.91 r13725"
   sodipodi:docname="Mongolian_Border troops-SSG-parade.svg">
  <defs
     id="defs13690">
    <linearGradient
       id="linearGradient1251">
      <stop
         style="stop-color:#fade41;stop-opacity:1;"
         offset="0"
         id="stop1247" />
      <stop
         id="stop1255"
         offset="0.35239989"
         style="stop-color:#fae8b1;stop-opacity:0.96862745" />
      <stop
         style="stop-color:#fade41;stop-opacity:1"
         offset="0.50104016"
         id="stop1259" />
      <stop
         style="stop-color:#fade41;stop-opacity:1"
         offset="1"
         id="stop1249" />
    </linearGradient>
    <linearGradient
       inkscape:collect="always"
       xlink:href="#linearGradient1251"
       id="linearGradient5625-0-9-4-3-8-3"
       gradientUnits="userSpaceOnUse"
       gradientTransform="matrix(0.86021507,0,0,0.86021507,702.40243,-58.591908)"
       x1="640.078"
       y1="453.36691"
       x2="670.37872"
       y2="486.56741" />
  </defs>
  <sodipodi:namedview
     id="base"
     pagecolor="#ffffff"
     bordercolor="#666666"
     borderopacity="1.0"
     inkscape:pageopacity="0.0"
     inkscape:pageshadow="2"
     inkscape:zoom="0.98994949"
     inkscape:cx="15.599305"
     inkscape:cy="207.57846"
     inkscape:document-units="mm"
     inkscape:current-layer="g6423"
     showgrid="false"
     fit-margin-top="0"
     fit-margin-left="0"
     fit-margin-right="0"
     fit-margin-bottom="0"
     inkscape:window-width="1600"
     inkscape:window-height="838"
     inkscape:window-x="-8"
     inkscape:window-y="-8"
     inkscape:window-maximized="1" />
  <metadata
     id="metadata13693">
    <rdf:RDF>
      <cc:Work
         rdf:about="">
        <dc:format>image/svg+xml</dc:format>
        <dc:type
           rdf:resource="http://purl.org/dc/dcmitype/StillImage" />
        <dc:title></dc:title>
      </cc:Work>
    </rdf:RDF>
  </metadata>
  <g
     inkscape:label="Layer 1"
     inkscape:groupmode="layer"
     id="layer1"
     transform="translate(468.86617,-1247.4776)">
    <g
       transform="matrix(3.5433071,0,0,3.5433071,-1979.5426,623.41057)"
       style="display:inline"
       id="g13238">
      <g
         transform="translate(408.12968,146.01387)"
         style="display:inline"
         id="g14051">
        <g
           id="g14010">
          <g
             transform="translate(-166.62381,17.807832)"
             style="display:inline"
             id="g14993">
            <g
               transform="translate(-7.4986024,0)"
               id="g6423">
              <g
                 transform="translate(-257.12038,105.30807)"
                 style="display:inline"
                 id="g15935">
                <g
                   transform="matrix(0.28222222,0,0,0.28222222,573.93387,-103.63511)"
                   id="g5635-2-3-5-1-8-7"
                   style="display:inline">
                  <g
                     id="g5627-2-1-3-6-1-0">
                    <path
                       sodipodi:nodetypes="ccccccc"
                       style="display:inline;opacity:1;fill:#197837;fill-opacity:1;stroke:none;stroke-width:2;stroke-miterlimit:4;stroke-dasharray:none;stroke-opacity:1"
                       d="m -388.41414,37.66859 -52.63653,56.04872 0,369.14813 177.16535,0 10e-4,-369.24225 -52.54189,-55.95459 z"
                       id="rect4821-7-6-9-7-5-8-6-9-0-4-0-3-8"
                       inkscape:connector-curvature="0" />
                    <path
                       style="opacity:1;fill:#fade41;fill-opacity:1;stroke:none;stroke-width:2;stroke-miterlimit:4;stroke-dasharray:none;stroke-opacity:1"
                       d="m -385.53796,44.755994 -48.4256,51.759297 0,366.350149 162.99213,0 0,-366.444264 -48.33754,-51.665182 z"
                       id="rect4821-7-6-9-7-6-1-6-12-2-6-9-9-8"
                       inkscape:connector-curvature="0" />
                    <path
                       style="fill:#ead041;fill-opacity:1;fill-rule:evenodd;stroke:none;stroke-width:0.9375px;stroke-linecap:butt;stroke-linejoin:miter;stroke-opacity:1"
                       d="m -317.80223,46.368136 0,416.498094 4.88977,0 0,-411.283744 z"
                       id="path1953-1-6-70-4-1-2-8-1"
                       inkscape:connector-curvature="0" />
                    <path
                       style="fill:#ead041;fill-opacity:1;fill-rule:evenodd;stroke:none;stroke-width:0.9375px;stroke-linecap:butt;stroke-linejoin:miter;stroke-opacity:1"
                       d="m -387.03508,46.368136 0,416.498094 -4.88976,0 0,-411.283744 z"
                       id="path1953-2-7-4-0-1-2-14-3-8-4"
                       inkscape:connector-curvature="0" />
                    <path
                       inkscape:connector-curvature="0"
                       style="fill:#ead041;fill-opacity:1;fill-rule:evenodd;stroke:none;stroke-width:0.9375px;stroke-linecap:butt;stroke-linejoin:miter;stroke-opacity:1"
                       d="m -307.10932,68.346575 0,5.226957 0,31.358078 0,5.22695 4.88863,0 13.04025,0 0,-5.22695 0,-7.837717 8.14996,0 0,31.358097 -8.14996,0 0,-7.83953 0,-5.22695 -4.89031,0 -8.14994,0 -4.88863,0 0,5.22695 0,31.35809 0,5.22694 4.88863,0 13.04025,0 0,-5.22694 0,-7.83772 8.14996,0 0,31.35805 -8.14996,0 0,-7.83948 0,-5.22696 -4.89031,0 -8.14994,0 -4.88863,0 0,5.22696 0,31.35811 0,5.2269 4.88863,0 13.04025,0 0,-5.2269 0,-7.83774 8.14996,0 0,31.35804 -8.14996,0 0,-7.83951 0,-5.2269 -4.89031,0 -8.14994,0 -4.88863,0 0,5.2269 0,31.35814 0,5.2269 4.88863,0 13.04025,0 0,-5.2269 0,-7.83774 8.14996,0 0,31.35805 -8.14996,0 0,-7.83951 0,-5.2269 -4.89031,0 -8.14994,0 -4.88863,0 0,5.2269 0,31.35814 0,5.22689 4.88863,0 13.04025,0 0,-5.22689 0,-7.83774 8.14996,0 0,31.35804 -8.14996,0 0,-7.83951 0,-5.2269 -4.89031,0 -8.14994,0 -4.88863,0 0,5.2269 0,31.35814 0,5.2269 4.88863,0 13.04025,0 0,-5.2269 0,-7.83774 8.14996,0 0,31.35804 -8.14996,0 0,-7.83951 0,-5.2269 -4.89031,0 -8.14994,0 -4.88863,0 0,5.2269 0,31.35814 0,5.2269 4.88863,0 13.04025,0 0,-5.2269 0,-7.83774 8.14996,0 0,31.35814 -8.14996,0 0,-7.83961 0,-5.22689 -4.89031,0 -8.14994,0 -4.88863,0 0,5.22689 0,31.35815 0,5.22689 4.88863,0 8.14994,0 4.89031,0 0,-5.22689 0,-7.83774 8.14996,0 0,31.35815 -8.14996,0 0,-7.83962 0,-5.2269 -4.89031,0 -8.14994,0 -4.88863,0 0,5.2269 0,12.98008 4.88863,0 0,-12.98008 8.14994,0 0,7.83962 0,5.14046 17.92889,0 0,-5.14046 0,-31.35815 0,-5.2269 -4.88862,0 -13.04027,0 0,5.2269 0,7.83774 -8.14994,0 0,-31.35815 8.14994,0 0,7.83961 0,5.2269 13.04027,0 4.88862,0 0,-5.2269 0,-31.35814 0,-5.2269 -4.88862,0 -13.04027,0 0,5.2269 0,7.83774 -8.14994,0 0,-31.35814 8.14994,0 0,7.83951 0,5.227 13.04027,0 4.88862,0 0,-5.227 0,-31.35804 0,-5.2269 -4.88862,0 -13.04027,0 0,5.2269 0,7.83774 -8.14994,0 0,-31.35814 8.14994,0 0,7.83951 0,5.227 13.04027,0 4.88862,0 0,-5.227 0,-31.35804 0,-5.227 -4.88862,0 -13.04027,0 0,5.227 0,7.83774 -8.14994,0 0,-31.35814 8.14994,0 0,7.83951 0,5.22699 13.04027,0 4.88862,0 0,-5.22699 0,-31.35805 0,-5.22699 -4.88862,0 -13.04027,0 0,5.22699 0,7.83774 -8.14994,0 0,-31.35814 8.14994,0 0,7.83951 0,5.227 13.04027,0 4.88862,0 0,-5.227 0,-31.35804 0,-5.227 -4.88862,0 -13.04027,0 0,5.227 0,7.83774 -8.14994,0 0,-31.35811 8.14994,0 0,7.83948 0,5.227 13.04027,0 4.88862,0 0,-5.227 0,-31.35805 0,-5.22695 -4.88862,0 -13.04027,0 0,5.22695 0,7.83772 -8.14994,0 0,-31.35809 8.14994,0 0,7.83953 0,5.22694 13.04027,0 4.88862,0 0,-5.22694 0,-31.358097 0,-5.226957 -4.88862,0 -13.04027,0 0,5.226957 0,7.837717 -8.14994,0 0,-31.358078 8.14994,0 0,7.839511 0,5.226946 13.04027,0 0.90797,0 -4.8903,-5.226946 -4.16763,0 0,-4.454521 -8.0573,-8.611947 -4.98295,0 z"
                       id="path3006-6-6-6-1-8-7-3-4-6" />
                    <path
                       inkscape:connector-curvature="0"
                       style="fill:#ead041;fill-opacity:1;fill-rule:evenodd;stroke:none;stroke-width:0.9375px;stroke-linecap:butt;stroke-linejoin:miter;stroke-opacity:1"
                       d="m -397.72856,68.346939 0,5.226957 0,31.358094 0,5.22694 -4.88862,0 -13.04027,0 0,-5.22694 0,-7.837733 -8.14995,0 0,31.358103 8.14995,0 0,-7.83952 0,-5.22696 4.89031,0 8.14996,0 4.88862,0 0,5.22696 0,31.35809 0,5.22695 -4.88862,0 -13.04027,0 0,-5.22695 0,-7.83773 -8.14995,0 0,31.35807 8.14995,0 0,-7.8395 0,-5.22695 4.89031,0 8.14996,0 4.88862,0 0,5.22695 0,31.35804 0,5.22699 -4.88862,0 -13.04027,0 0,-5.22699 0,-7.83765 -8.14995,0 0,31.35805 8.14995,0 0,-7.83951 0,-5.227 4.89031,0 8.14996,0 4.88862,0 0,5.227 0,31.35804 0,5.22699 -4.88862,0 -13.04027,0 0,-5.22699 0,-7.83764 -8.14995,0 0,31.35804 8.14995,0 0,-7.83951 0,-5.2269 4.89031,0 8.14996,0 4.88862,0 0,5.2269 0,31.35804 0,5.227 -4.88862,0 -13.04027,0 0,-5.227 0,-7.83764 -8.14995,0 0,31.35804 8.14995,0 0,-7.83951 0,-5.2269 4.89031,0 8.14996,0 4.88862,0 0,5.2269 0,31.35814 0,5.2269 -4.88862,0 -13.04027,0 0,-5.2269 0,-7.83774 -8.14995,0 0,31.35805 8.14995,0 0,-7.83952 0,-5.22689 4.89031,0 8.14996,0 4.88862,0 0,5.22689 0,31.35815 0,5.22689 -4.88862,0 -13.04027,0 0,-5.22689 0,-7.83774 -8.14995,0 0,31.35814 8.14995,0 0,-7.83961 0,-5.2269 4.89031,0 8.14996,0 4.88862,0 0,5.2269 0,31.35814 0,5.2269 -4.88862,0 -8.14996,0 -4.89031,0 0,-5.2269 0,-7.83774 -8.14995,0 0,31.35815 8.14995,0 0,-7.83962 0,-5.2269 4.89031,0 8.14996,0 4.88862,0 0,5.2269 0,12.98008 -4.88862,0 0,-12.98008 -8.14996,0 0,7.83962 0,5.14046 -17.92888,0 0,-5.14046 0,-31.35815 0,-5.2269 4.88862,0 13.04026,0 0,5.2269 0,7.83774 8.14996,0 0,-31.35814 -8.14996,0 0,7.83961 0,5.2269 -13.04026,0 -4.88862,0 0,-5.2269 0,-31.35814 0,-5.227 4.88862,0 13.04026,0 0,5.227 0,7.83774 8.14996,0 0,-31.35815 -8.14996,0 0,7.83952 0,5.22699 -13.04026,0 -4.88862,0 0,-5.22699 0,-31.35805 0,-5.22699 4.88862,0 13.04026,0 0,5.22699 0,7.83774 8.14996,0 0,-31.35814 -8.14996,0 0,7.83951 0,5.227 -13.04026,0 -4.88862,0 0,-5.227 0,-31.35804 0,-5.227 4.88862,0 13.04026,0 0,5.227 0,7.83774 8.14996,0 0,-31.35814 -8.14996,0 0,7.83951 0,5.227 -13.04026,0 -4.88862,0 0,-5.227 0,-31.35804 0,-5.227 4.88862,0 13.04026,0 0,5.227 0,7.83774 8.14996,0 0,-31.35814 -8.14996,0 0,7.83951 0,5.22699 -13.04026,0 -4.88862,0 0,-5.22699 0,-31.35805 0,-5.22699 4.88862,0 13.04026,0 0,5.22699 0,7.83774 8.14996,0 0,-31.35812 -8.14996,0 0,7.83949 0,5.227 -13.04026,0 -4.88862,0 0,-5.227 0,-31.35806 0,-5.22695 4.88862,0 13.04026,0 0,5.22695 0,7.83772 8.14996,0 0,-31.35809 -8.14996,0 0,7.83952 0,5.22695 -13.04026,0 -4.88862,0 0,-5.22695 0,-31.358103 0,-5.226947 4.88862,0 13.04026,0 0,5.226947 0,7.837733 8.14996,0 0,-31.358094 -8.14996,0 0,7.83952 0,5.226947 -13.04026,0 -0.90797,0 4.8903,-5.226947 4.16762,0 0,-4.45452 8.05731,-8.611957 4.98296,0 z"
                       id="path3006-6-3-8-7-0-9-3-8-5-8-5" />
                  </g>
                  <g
                     style="display:inline"
                     id="g1996-4-4-9-7-1-7-4"
                     transform="translate(-1616.9885,-267.77177)">
                    <circle
                       r="21.259842"
                       cy="344.41675"
                       cx="1264.5684"
                       id="path1378-2-8-4-4-6-9-8-7"
                       style="opacity:1;fill:url(#linearGradient5625-0-9-4-3-8-3);fill-opacity:1;stroke:none;stroke-width:0.17716534;stroke-linecap:butt;stroke-linejoin:miter;stroke-miterlimit:4;stroke-dasharray:none;stroke-dashoffset:0;stroke-opacity:1;paint-order:normal" />
                    <circle
                       r="19.583439"
                       cy="344.41675"
                       cx="1264.5684"
                       id="path1378-4-0-8-7-6-3-6-8-4"
                       style="opacity:1;fill:none;fill-opacity:1;stroke:#c79f1d;stroke-width:1.06299222;stroke-linecap:butt;stroke-linejoin:miter;stroke-miterlimit:4;stroke-dasharray:none;stroke-dashoffset:0;stroke-opacity:1;paint-order:normal" />
                    <g
                       id="g2555-1-7-03-2-2-0-1-0"
                       transform="matrix(0.6750003,0,0,0.6750003,1239.6033,323.76987)"
                       style="fill:#c79f1d;fill-opacity:1;stroke-width:25.25252533">
                      <path
                         inkscape:connector-curvature="0"
                         id="circle2461-0-8-8-4-5-3-0"
                         d="m 36.985294,34.222128 c -2.759452,0 -5,2.240546 -5,4.999995 0,2.068587 1.258302,3.844207 3.050958,4.604047 -0.524768,-0.508884 -0.850228,-1.222277 -0.850219,-2.010434 0,-1.541083 1.247439,-2.792619 2.786984,-2.79926 0.0041,0 0.0081,2e-5 0.01228,0 1.322606,-0.0067 2.394104,-1.082208 2.394104,-2.406382 0,-1.191049 -0.867535,-2.180752 -2.0043,-2.372619 -0.128893,-0.01 -0.258366,-0.01535 -0.389804,-0.01535 z m 1.95519,0.395948 c 0.513876,0.507603 0.831793,1.213199 0.831793,1.992018 0,1.541083 -1.247449,2.792618 -2.786983,2.799261 -0.0041,1.7e-5 -0.0082,0 -0.01228,0 -1.322617,0.0067 -2.394105,1.082207 -2.394105,2.406381 -1e-5,1.267127 0.981814,2.307166 2.225294,2.400244 0.06003,0.0021 0.120526,0.0031 0.181088,0.0031 2.759452,0 5,-2.237477 5,-4.996926 0,-2.066163 -1.255552,-3.84272 -3.04481,-4.604047 z m -1.95519,1.009821 c 0.542163,-10e-7 0.982197,0.440024 0.982197,0.982197 -1e-5,0.542172 -0.440024,0.982197 -0.982197,0.982197 -0.542182,-1e-6 -0.982197,-0.440025 -0.982197,-0.982197 -10e-6,-0.542174 0.440024,-0.982197 0.982197,-0.982197 z m 0,5.205643 c 0.542163,-10e-7 0.982197,0.440024 0.982197,0.982196 -1e-5,0.542172 -0.440024,0.982197 -0.982197,0.982197 -0.542182,-10e-7 -0.982197,-0.440024 -0.982197,-0.982197 -10e-6,-0.542173 0.440024,-0.982196 0.982197,-0.982196 z"
                         style="fill:#c79f1d;fill-opacity:1;stroke-width:25.25252533" />
                      <path
                         inkscape:connector-curvature="0"
                         id="lower_bow_of_crescent-8-1-0-2-2-1-5"
                         transform="scale(0.1,0.1)"
                         d="m 314.875,206.25 c -0.006,0.32187 -0.0312,0.64556 -0.0312,0.96875 0,30.36 24.64,55.00001 55,55 30.36,0 55,-24.64 55,-55 0,-0.32327 -0.0257,-0.6468 -0.0312,-0.96875 -9.27434,21.16143 -30.39738,35.96875 -54.96875,35.96875 -24.57255,0 -45.69511,-14.80568 -54.96875,-35.96875 z"
                         style="fill:#c79f1d;fill-opacity:1;stroke-width:25.25252533" />
                      <circle
                         transform="translate(16.9853,0.220588)"
                         id="upper_circle-2-6-9-5-6-0-4"
                         cx="20"
                         cy="19"
                         r="4"
                         style="fill:#c79f1d;fill-opacity:1;stroke-width:25.25252533" />
                      <path
                         inkscape:connector-curvature="0"
                         id="flame-3-55-0-4-1-6-3-1"
                         d="m 36.887817,6.2676076 c -0.7612,0.5523115 -0.19058,1.4414231 -0.24656,1.9151376 -0.06041,0.511177 -0.314926,0.6145293 -0.430046,1.0321092 -0.146016,0.5296495 -0.07407,1.0783306 0.0344,1.2958716 0.09853,0.197596 0.170996,0.370145 0.206422,0.521789 0.0028,0.01189 0.0092,0.02273 0.01147,0.0344 8.11e-4,0.0026 -7.69e-4,0.0088 0,0.01147 2.55e-4,0.0015 -2.48e-4,0.0043 0,0.0057 0.0011,0.004 0.0047,0.0075 0.0057,0.01147 0.0021,0.008 0.0041,0.01479 0.0057,0.02294 4.15e-4,0.002 -3.91e-4,0.0037 0,0.0057 2.84e-4,0.0024 -2.61e-4,0.0034 0,0.0057 2.92e-4,0.0016 -2.77e-4,0.0041 0,0.0057 0.0046,0.02722 0.01149,0.05176 0.01147,0.08028 2.16e-4,0.276526 -0.228061,0.504587 -0.504587,0.504587 -0.276527,2e-6 -0.49907,-0.228061 -0.498854,-0.504587 -3e-6,-0.0043 -1.04e-4,-0.0072 0,-0.01147 1.07e-4,-0.0043 -2.12e-4,-0.0072 0,-0.01147 2.35e-4,-0.0047 0.0054,-0.0068 0.0057,-0.01147 9.9e-5,-0.0013 -1.08e-4,-0.0045 0,-0.0057 1.62e-4,-0.0027 -2.05e-4,-0.0088 0,-0.01147 2.13e-4,-0.0021 -2.38e-4,-0.0036 0,-0.0057 2.48e-4,-0.0027 -2.9e-4,-0.0031 0,-0.0057 5.29e-4,-0.0042 -6.29e-4,-0.0073 0,-0.01147 9.91e-4,-0.0079 0.0044,-0.01507 0.0057,-0.02294 4.15e-4,-0.002 -4.4e-4,-0.0037 0,-0.0057 2.43e-4,-0.0013 -2.51e-4,-0.0044 0,-0.0057 3.73e-4,-0.0016 -3.87e-4,-0.0041 0,-0.0057 5.23e-4,-0.0026 0.0052,-0.0031 0.0057,-0.0057 5.14e-4,-0.002 -5.37e-4,-0.0037 0,-0.0057 0.0012,-0.0052 0.0044,-0.01203 0.0057,-0.0172 3.56e-4,-0.0012 -3.65e-4,-0.0046 0,-0.0057 10e-4,-0.0039 0.0046,-0.0076 0.0057,-0.01147 0.0011,-0.0039 -0.0012,-0.01335 0,-0.0172 0.07999,-0.258998 0.316182,-0.492163 0.315367,-0.831422 -0.0011,-0.4488699 -0.304321,-0.6742791 -0.372706,-0.8142204 -0.0482,-0.098662 -0.127257,-0.3753394 -0.01147,-0.6536697 -0.211521,0.2602863 -0.448598,0.4594184 -0.447248,0.7454129 10e-4,0.2136513 0.120195,0.4284532 0.108945,0.7396792 -0.01305,0.36111 -0.597816,0.592359 -0.619266,1.496559 0,1.381866 1.118136,2.500002 2.5,2.5 1.381864,0 2.5,-1.118134 2.5,-2.5 -0.02145,-0.9042 -0.606215,-1.135449 -0.619266,-1.496559 -0.01125,-0.311226 0.107936,-0.5260279 0.108945,-0.7396792 0.0014,-0.2859945 -0.235727,-0.4851266 -0.447248,-0.7454129 0.115789,0.2783303 0.03673,0.5550074 -0.01147,0.6536697 -0.06839,0.1399413 -0.371625,0.3653505 -0.372706,0.8142204 -8.15e-4,0.339259 0.23538,0.572424 0.315367,0.831422 5.74e-4,0.0015 -5.62e-4,0.0042 0,0.0057 3.89e-4,0.0013 -3.8e-4,0.0045 0,0.0057 6.77e-4,0.0019 -6.55e-4,0.0038 0,0.0057 0.0011,0.0039 0.0047,0.0076 0.0057,0.01147 0.0021,0.0077 0.0039,0.01515 0.0057,0.02294 0.0027,0.01 0.0037,0.01848 0.0057,0.02867 8.95e-4,0.0052 0.005,0.01193 0.0057,0.0172 0.0016,0.0099 -10e-4,0.01857 0,0.02867 4.11e-4,0.0053 -2.37e-4,0.01183 0,0.0172 3.63e-4,0.0047 0.0055,0.0068 0.0057,0.01147 2.5e-5,0.0014 -1.5e-5,0.0044 0,0.0057 7.8e-5,0.0021 -5.4e-5,0.0036 0,0.0057 1.04e-4,0.0043 3e-6,0.0071 0,0.01147 2.16e-4,0.276526 -0.222327,0.504587 -0.498854,0.504587 -0.216034,2e-6 -0.400106,-0.14082 -0.470183,-0.332569 -5.62e-4,-0.0015 5.47e-4,-0.0042 0,-0.0057 -0.01856,-0.05239 -0.03445,-0.107521 -0.0344,-0.166284 -2.4e-5,-0.03024 0.0063,-0.05724 0.01147,-0.08601 7.32e-4,-0.0041 -8.31e-4,-0.0074 0,-0.01147 0.0013,-0.0065 0.0042,-0.01078 0.0057,-0.0172 9.19e-4,-0.0051 0.0047,-0.0121 0.0057,-0.0172 0.0011,-0.004 -0.0012,-0.01328 0,-0.0172 0.0011,-0.0051 0.0045,-0.0064 0.0057,-0.01147 0.002,-0.0058 0.0036,-0.01148 0.0057,-0.0172 4.37e-4,-0.0017 -4.46e-4,-0.0041 0,-0.0057 0.04778,-0.179345 0.149826,-0.343466 0.194954,-0.464449 0.08122,-0.217749 0.249435,-0.5756979 0.24656,-1.0321107 C 37.957894,9.191236 37.877204,8.4195241 37.455477,7.8215066 37.118109,7.3431158 36.899725,7.1378872 36.784606,6.8295342 36.725907,6.6723355 36.7724,6.4694969 36.887817,6.2676076 Z"
                         style="fill:#c79f1d;fill-opacity:1;stroke-width:25.25252533" />
                      <rect
                         id="left_beam-0-7-9-7-8-6-9"
                         x="25.985294"
                         y="27.220589"
                         width="5"
                         height="24"
                         style="fill:#c79f1d;fill-opacity:1;stroke-width:25.25252533" />
                      <rect
                         id="right_beam-0-0-5-3-7-3-6"
                         x="42.985294"
                         y="27.220589"
                         width="5"
                         height="24"
                         style="fill:#c79f1d;fill-opacity:1;stroke-width:25.25252533" />
                      <path
                         inkscape:connector-curvature="0"
                         id="upper_triangle-54-4-9-8-3-0-3"
                         d="m 31.985294,27.220588 10,0 -5,3"
                         style="fill:#c79f1d;fill-opacity:1;stroke-width:25.25252533" />
                      <rect
                         id="upper_crossbeam-3-5-2-1-1-3-7"
                         x="31.985294"
                         y="31.220589"
                         width="10"
                         height="2"
                         style="fill:#c79f1d;fill-opacity:1;stroke-width:25.25252533" />
                      <rect
                         id="lower_crossbeam-6-7-7-29-5-4-7"
                         x="31.985294"
                         y="45.220589"
                         width="10"
                         height="2"
                         style="fill:#c79f1d;fill-opacity:1;stroke-width:25.25252533" />
                      <path
                         inkscape:connector-curvature="0"
                         id="lower_triangle-4-9-8-7-2-6-6"
                         d="m 31.985294,48.220588 10,0 -5,3"
                         style="fill:#c79f1d;fill-opacity:1;stroke-width:25.25252533" />
                    </g>
                  </g>
                </g>
                <g
                   id="g15923">
                  <g
                     transform="translate(-327.96974,-7.0828668)"
                     style="display:inline"
                     id="g5599-2-5-3-8-1-5-9">
                    <path
                       id="path4948-8-0-1-0-82-9-5-9-8-2-9"
                       d="m 802.38608,-8.5352035 -10.47481,7.5111696 0,9.9998928 6.74016,-4.8332814 3.73465,2.829814 3.73466,-2.829814 6.74015,4.8332814 0,-9.9998928 z m -1.31258,10.9409289 1.31258,0.9043529 1.31259,-0.9043529 1.43815,1.0309578 -2.75074,1.9724794 -2.75022,-1.9724794 z"
                       style="fill:#e0e0e0;fill-opacity:1;fill-rule:evenodd;stroke:#9a9a9a;stroke-width:0.05000001;stroke-linecap:butt;stroke-linejoin:miter;stroke-miterlimit:4;stroke-dasharray:none;stroke-opacity:1"
                       inkscape:connector-curvature="0" />
                    <path
                       sodipodi:nodetypes="cccccccc"
                       inkscape:connector-curvature="0"
                       id="path4264-3-5-7-9-5-1-7-2"
                       d="m 802.38615,-5.03536 -7.475,5.36006335 0,2.99999405 7.475,-5.360069 7.475,5.360069 0,0 0,-2.99999405 z"
                       style="fill:#e0e0e0;fill-opacity:1;fill-rule:evenodd;stroke:#9a9a9a;stroke-width:0.39999998;stroke-linecap:butt;stroke-linejoin:miter;stroke-miterlimit:4;stroke-dasharray:none;stroke-opacity:1;paint-order:normal" />
                    <path
                       sodipodi:nodetypes="cccccccc"
                       inkscape:connector-curvature="0"
                       id="path4264-3-7-5-1-2-6-3-4-8"
                       d="m 802.38615,-0.0672751 1.20954,-0.86008354 0,-0.48138366 -1.20954,0.86008356 -1.20955,-0.86008356 0,0 0,0.48138366 z"
                       style="display:inline;fill:#9a9a9a;fill-opacity:1;fill-rule:evenodd;stroke:none;stroke-width:0.35000002;stroke-linecap:butt;stroke-linejoin:miter;stroke-miterlimit:4;stroke-dasharray:none;stroke-opacity:1;paint-order:normal" />
                  </g>
                  <g
                     transform="translate(-327.96974,-4.4923428)"
                     style="display:inline"
                     id="g5603-0-0-2-9-4-1">
                    <path
                       style="fill:#e0e0e0;fill-opacity:1;fill-rule:evenodd;stroke:#9a9a9a;stroke-width:0.05;stroke-linecap:butt;stroke-linejoin:miter;stroke-miterlimit:4;stroke-dasharray:none;stroke-opacity:1"
                       d="m 802.38608,-26.125906 10.475,7.511246 0,9.9999968 -10.475,-7.5112568 -10.475,7.5112568 0,-9.9999998 10.475,-7.511243"
                       id="path4948-17-4-5-4-1-3"
                       inkscape:connector-curvature="0" />
                    <path
                       sodipodi:nodetypes="cccccccc"
                       inkscape:connector-curvature="0"
                       id="path4264-3-9-6-8-8-0-1-5"
                       d="m 802.38608,-22.625905 -7.475,5.36005 0,2.999994 7.475,-5.36005 7.47499,5.36005 0,0 0,-2.999994 z"
                       style="display:inline;fill:#e0e0e0;fill-opacity:1;fill-rule:evenodd;stroke:#9a9a9a;stroke-width:0.39999998;stroke-linecap:butt;stroke-linejoin:miter;stroke-miterlimit:4;stroke-dasharray:none;stroke-opacity:1;paint-order:normal" />
                  </g>
                  <g
                     transform="translate(-327.96974,-19.492342)"
                     style="display:inline"
                     id="g5603-0-0-6-9-0-4-4">
                    <path
                       style="fill:#e0e0e0;fill-opacity:1;fill-rule:evenodd;stroke:#9a9a9a;stroke-width:0.05;stroke-linecap:butt;stroke-linejoin:miter;stroke-miterlimit:4;stroke-dasharray:none;stroke-opacity:1"
                       d="m 802.38608,-26.125906 10.475,7.511246 0,9.9999968 -10.475,-7.5112568 -10.475,7.5112568 0,-9.9999998 10.475,-7.511243"
                       id="path4948-17-4-1-2-7-6-4"
                       inkscape:connector-curvature="0" />
                    <path
                       sodipodi:nodetypes="cccccccc"
                       inkscape:connector-curvature="0"
                       id="path4264-3-9-6-8-5-3-6-7-0"
                       d="m 802.38608,-22.625905 -7.475,5.36005 0,2.999994 7.475,-5.36005 7.47499,5.36005 0,0 0,-2.999994 z"
                       style="display:inline;fill:#e0e0e0;fill-opacity:1;fill-rule:evenodd;stroke:#9a9a9a;stroke-width:0.39999998;stroke-linecap:butt;stroke-linejoin:miter;stroke-miterlimit:4;stroke-dasharray:none;stroke-opacity:1;paint-order:normal" />
                  </g>
                </g>
              </g>
            </g>
          </g>
        </g>
      </g>
    </g>
  </g>
</svg>
