<?xml version="1.0" encoding="UTF-8" standalone="no"?>
<!-- Created with Inkscape (http://www.inkscape.org/) -->

<svg
   xmlns:dc="http://purl.org/dc/elements/1.1/"
   xmlns:cc="http://creativecommons.org/ns#"
   xmlns:rdf="http://www.w3.org/1999/02/22-rdf-syntax-ns#"
   xmlns:svg="http://www.w3.org/2000/svg"
   xmlns="http://www.w3.org/2000/svg"
   xmlns:inkscape="http://www.inkscape.org/namespaces/inkscape"
   version="1.1"
   width="600"
   height="600"
   id="svg2">
  <defs
     id="defs12" />
  <metadata
     id="metadata7">
    <rdf:RDF>
      <cc:Work
         rdf:about="">
        <dc:format>image/svg+xml</dc:format>
        <dc:type
           rdf:resource="http://purl.org/dc/dcmitype/StillImage" />
        <dc:title />
      </cc:Work>
    </rdf:RDF>
  </metadata>
  <rect
     width="600"
     height="600"
     rx="37.5"
     ry="37.5"
     x="0"
     y="0"
     id="rect3017"
     style="fill:#000000" />
  <path
     d="m 165.47,37.504 c -7.8228,0.0806 -15.942,0.95484 -21.593,3.3752 -3.713,1.5904 -6.279,3.1877 -10.25,3.1877 -3.6789,0 -7.0162,4.3246 -7.9684,7.9379 -1.0913,4.1407 0.41767,7.1818 2.9374,10.532 -3.2073,5.7475 -4.375,12.979 -2.0312,18.97 2.8871,7.3798 10.708,10.388 18.593,11.688 2.6725,0.44073 4.8122,2.2478 6.3748,3.8127 13.206,1.3758 19.41,8.0094 20.405,20.407 0.7119,8.8633 -4.5774,18.501 -12.749,18.501 -6.6999,-0.36205 -13.986,0.90308 -20.03,3.6564 -5.919,2.6963 -11.383,6.1089 -15.656,10.407 -10.258,-0.24563 -18.649,3.1875 -26.749,8.9379 -7.6989,5.4658 -12.415,13.498 -15.937,22.314 -6.539,6.1966 -9.1199,13.717 -8.9371,22.314 0.18594,8.7485 4.7355,15.605 10.843,21.72 -2.074,13.31 -2.8818,28.177 -0.28124,39.721 3.1802,14.117 7.1239,23.235 14.312,34.908 -3.2897,15.893 -2.6144,34.346 2.3124,47.659 8.1482,22.017 17.234,32.688 33.999,46.127 -0.79226,15.559 3.3248,32.938 10.625,44.502 10.792,17.097 21.458,25.36 38.436,33.345 4.4245,11.245 10.16,23.004 17.718,31.127 9.9255,10.668 17.989,15.779 30.093,21.814 7.7608,13.619 19.147,26.465 29.655,35.096 13.192,10.835 25.134,16.313 40.405,21.689 15.271,-5.3757 27.213,-10.853 40.405,-21.689 10.508,-8.6307 21.894,-21.476 29.655,-35.096 12.104,-6.0347 20.167,-11.146 30.093,-21.814 7.5577,-8.123 13.294,-19.881 17.718,-31.127 16.978,-7.985 27.644,-16.248 38.436,-33.345 7.2997,-11.565 11.417,-28.943 10.625,-44.502 16.764,-13.439 25.85,-24.111 33.999,-46.127 4.9268,-13.312 5.6021,-31.765 2.3124,-47.659 7.188,-11.673 11.132,-20.791 14.312,-34.908 2.6005,-11.544 1.7927,-26.411 -0.28124,-39.721 6.1078,-6.1153 10.657,-12.971 10.843,-21.72 0.18272,-8.5969 -2.3981,-16.117 -8.9371,-22.314 -3.522,-8.816 -8.238,-16.848 -15.937,-22.314 -8.0998,-5.7505 -16.491,-9.1836 -26.749,-8.9379 -4.2729,-4.2979 -9.7366,-7.7105 -15.656,-10.407 -6.0444,-2.7534 -13.331,-4.0185 -20.03,-3.6564 -8.1721,0 -13.461,-9.6376 -12.75,-18.501 0.99579,-12.398 7.1992,-19.031 20.405,-20.407 1.5626,-1.5649 3.7022,-3.372 6.3748,-3.8127 7.8853,-1.3003 15.706,-4.3082 18.593,-11.688 2.3438,-5.9912 1.1761,-13.222 -2.0312,-18.97 2.5197,-3.35 4.0286,-6.391 2.9374,-10.532 -0.95227,-3.6133 -4.2895,-7.9379 -7.9684,-7.9379 -3.9706,0 -6.5366,-1.5972 -10.25,-3.1877 -5.6505,-2.4203 -13.77,-3.2946 -21.593,-3.3752 -9.7311,-0.10033 -21.489,1.7116 -31.311,6.5628 -12.208,-2.8136 -20.952,-4.7072 -34.374,-4.9378 -11.897,-0.20439 -28.511,1.7385 -36.374,4.9378 -9.9,-4.982 -21.45,-6.391 -32.45,-6.391 -11.002,0 -22.547,1.4089 -32.467,6.3753 -7.8624,-3.1993 -24.477,-5.1421 -36.374,-4.9378 -13.422,0.23059 -22.166,2.1241 -34.374,4.9378 -9.8227,-4.8512 -21.58,-6.6632 -31.311,-6.5628 z"
     inkscape:connector-curvature="0"
     id="rect3019"
     style="fill:#ffffff" />
  <g
     id="routenum"
     style="font-size:252.16000366px;font-style:normal;font-variant:normal;font-weight:normal;font-stretch:normal;text-align:center;line-height:125%;letter-spacing:0px;word-spacing:0px;writing-mode:lr-tb;text-anchor:middle;fill:#000000;font-family:Roadgeek 2005 Series C">
    <path
       d="m 224.77,313.83 c -1e-4,6.8924 -1.1768,13.365 -3.5303,19.416 -2.3536,5.8838 -5.6317,11.011 -9.8343,15.382 -4.0347,4.3708 -8.9938,7.817 -14.878,10.339 -5.7157,2.3535 -11.936,3.5302 -18.66,3.5302 -6.8925,0 -13.196,-1.1768 -18.912,-3.5302 -5.5476,-2.3535 -10.423,-5.6316 -14.625,-9.8343 -4.0346,-4.2027 -7.3127,-9.1618 -9.8343,-14.878 -2.3535,-5.8837 -3.6984,-12.272 -4.0346,-19.164 h 23.703 c 0.67239,6.8924 3.11,12.608 7.3127,17.147 4.3708,4.3708 9.8342,6.5562 16.39,6.5562 6.8923,2e-5 12.524,-2.3535 16.895,-7.0605 4.5388,-4.8751 6.8083,-10.843 6.8084,-17.903 -8e-5,-4.5388 -0.58846,-8.7415 -1.7651,-12.608 -1.1768,-4.0345 -2.7738,-7.4807 -4.7911,-10.339 -2.0174,-3.0259 -4.3709,-5.3794 -7.0605,-7.0605 -2.5217,-1.681 -5.2954,-2.5215 -8.3213,-2.5216 h -11.852 v -23.199 h 10.086 c 3.0259,10e-5 5.2953,-0.50423 6.8084,-1.513 1.681,-1.0085 3.5302,-2.6896 5.5476,-5.0432 4.875,-5.3793 7.3126,-11.683 7.3127,-18.912 -8e-5,-6.5561 -1.8493,-11.767 -5.5476,-15.634 -3.5303,-3.8663 -8.2373,-5.7996 -14.121,-5.7997 -5.3795,1.5e-4 -9.6662,1.5972 -12.86,4.7911 -3.026,3.0261 -4.8752,7.3969 -5.5476,13.112 l -23.703,-3.0259 c 0.67242,-5.5474 2.1854,-10.675 4.5389,-15.382 2.3535,-4.875 5.3794,-8.9936 9.0778,-12.356 3.6983,-3.362 7.9851,-5.9676 12.86,-7.817 4.8751,-2.0171 10.086,-3.0258 15.634,-3.0259 6.0518,1.7e-4 11.683,1.0929 16.895,3.2781 5.2112,2.1856 9.6661,5.2956 13.365,9.33 3.8664,3.8666 6.8923,8.4896 9.0778,13.869 2.1853,5.2115 3.278,10.843 3.2781,16.895 -1e-4,7.0606 -1.1768,13.617 -3.5303,19.669 -2.1855,6.052 -6.136,12.356 -11.852,18.912 6.5561,5.8838 11.431,12.608 14.625,20.173 3.362,7.5649 5.0431,15.634 5.0432,24.207"
       inkscape:connector-curvature="0"
       id="path2988" />
    <path
       d="m 349.11,274.75 c -1.1e-4,12.944 -0.75659,23.955 -2.2694,33.033 -1.345,9.0778 -3.7825,17.651 -7.3127,25.72 -4.2028,10.086 -9.4982,17.483 -15.886,22.19 -6.2201,4.5389 -14.121,6.8084 -23.703,6.8084 -10.087,0 -18.324,-2.2694 -24.712,-6.8084 -6.22,-4.707 -11.431,-12.104 -15.634,-22.19 -3.5303,-8.2372 -6.0519,-16.811 -7.5648,-25.72 -1.3449,-9.0777 -2.0173,-20.089 -2.0173,-33.033 -1e-5,-12.776 0.67242,-23.703 2.0173,-32.781 1.513,-9.2458 4.0346,-17.903 7.5648,-25.973 4.3708,-10.086 9.6662,-17.315 15.886,-21.686 6.388,-4.5387 14.541,-6.8082 24.46,-6.8084 9.7502,1.7e-4 17.735,2.2696 23.955,6.8084 6.2199,4.371 11.431,11.768 15.634,22.19 1.681,4.2028 3.1099,8.4055 4.2868,12.608 1.3448,4.2028 2.3534,8.6577 3.0259,13.365 0.84043,4.539 1.4288,9.4982 1.7651,14.878 0.3361,5.2114 0.50421,11.011 0.50432,17.399 m -23.199,0 c -9e-5,-4.7069 -0.1682,-8.9937 -0.50432,-12.86 -0.1682,-3.8664 -0.50441,-7.3966 -1.0086,-10.591 -0.33631,-3.362 -0.84063,-6.5561 -1.513,-9.5821 -0.67252,-3.0258 -1.429,-6.0518 -2.2694,-9.0778 -2.1855,-7.5647 -4.9593,-13.028 -8.3213,-16.39 -3.1941,-3.362 -7.3127,-5.0431 -12.356,-5.0432 -10.423,1.5e-4 -17.567,6.9766 -21.434,20.929 -2.0173,6.3882 -3.4462,12.86 -4.2867,19.416 -0.67247,6.3882 -1.0087,14.289 -1.0086,23.703 -4e-5,4.539 0.084,8.7417 0.25216,12.608 0.33618,3.6984 0.67239,7.2287 1.0086,10.591 0.50428,3.1941 1.0927,6.3881 1.7651,9.5821 0.67239,3.1941 1.4289,6.4722 2.2694,9.8343 3.8664,13.953 11.011,20.929 21.434,20.929 5.0432,2e-5 9.1618,-1.681 12.356,-5.0432 3.3621,-3.3621 6.1358,-8.6575 8.3213,-15.886 1.0086,-3.3621 1.8491,-6.5561 2.5216,-9.5821 0.67234,-3.194 1.1767,-6.4721 1.513,-9.8343 0.50423,-3.3621 0.84044,-6.8923 1.0086,-10.591 0.16802,-3.8664 0.25207,-8.2372 0.25216,-13.112"
       inkscape:connector-curvature="0"
       id="path2990" />
    <path
       d="m 464.26,214.23 c -7.5649,8.5736 -14.289,18.324 -20.173,29.251 -5.8838,10.759 -11.179,22.947 -15.886,36.563 -4.539,12.944 -7.8171,25.636 -9.8343,38.076 -2.0174,12.272 -3.3622,26.057 -4.0346,41.354 h -23.703 v -3.5303 c -2e-5,-4.2027 0.25214,-9.0778 0.75649,-14.625 0.50429,-5.5475 1.1767,-11.263 2.0173,-17.147 1.0086,-6.0518 2.1013,-12.104 3.2781,-18.156 1.1767,-6.2199 2.5216,-12.104 4.0346,-17.651 1.8492,-6.7242 3.7824,-13.112 5.7997,-19.164 2.1854,-6.2199 4.5389,-12.272 7.0605,-18.156 2.6897,-5.8836 5.6316,-11.767 8.8256,-17.651 3.194,-6.0517 6.8923,-12.44 11.095,-19.164 h -63.545 v -23.703 h 94.308 v 23.703"
       inkscape:connector-curvature="0"
       id="path2992" />
  </g>
</svg>
