<?xml version="1.0" encoding="UTF-8" standalone="no"?>
<!-- Created with Inkscape (http://www.inkscape.org/) -->

<svg
   xmlns:dc="http://purl.org/dc/elements/1.1/"
   xmlns:cc="http://creativecommons.org/ns#"
   xmlns:rdf="http://www.w3.org/1999/02/22-rdf-syntax-ns#"
   xmlns:svg="http://www.w3.org/2000/svg"
   xmlns="http://www.w3.org/2000/svg"
   version="1.1"
   width="2016.7927"
   height="440.36041"
   id="svg2"
   xml:space="preserve"><metadata
     id="metadata8"><rdf:RDF><cc:Work
         rdf:about=""><dc:format>image/svg+xml</dc:format><dc:type
           rdf:resource="http://purl.org/dc/dcmitype/StillImage" /><dc:title></dc:title></cc:Work></rdf:RDF></metadata><defs
     id="defs6"><clipPath
       id="clipPath20"><path
         d="m 28.346,447.448 538.583,0 0,119.48 -538.583,0 0,-119.48 z"
         id="path22" /></clipPath><clipPath
       id="clipPath276"><path
         d="m 0,0 595.275,0 0,391.181 L 0,391.181 0,0 z"
         id="path278" /></clipPath></defs><g
     transform="matrix(1.25,0,0,-1.25,-35.682625,1001.1904)"
     id="g10"><g
       transform="matrix(3,0,0,2.997,66.0305,792.64823)"
       id="g12"><path
         d="m 0,0 0,-46.045 10.893,0 -0.476,27.581 8.682,-13.407 8.635,13.407 -0.429,-27.581 10.893,0 L 38.198,0 27.896,0 19.099,-15.397 10.216,0 0,0 z"
         id="path14"
         style="fill:#918f90;fill-opacity:1;fill-rule:nonzero;stroke:none" /></g><g
       transform="matrix(3,0,0,2.997,-57.0922,-895.98203)"
       id="g16"><g
         clip-path="url(#clipPath20)"
         id="g18"><g
           transform="translate(119.6383,563.4402)"
           id="g24"><path
             d="m 0,0 -10.998,0 0,-35.539 -3.765,0 c -5.327,-0.083 -7.958,3.14 -7.882,9.646 0.068,6.538 2.564,15.169 7.472,25.893 l -11.426,0 c -4.813,-10.019 -7.215,-18.961 -7.215,-26.835 0.038,-8.921 2.707,-14.724 8.024,-17.418 1.744,-0.829 3.68,-1.326 5.804,-1.491 2.107,-0.197 4.461,-0.301 7.072,-0.301 L 0,-46.045 0,0 z"
             id="path26"
             style="fill:#918f90;fill-opacity:1;fill-rule:nonzero;stroke:none" /></g><g
           transform="translate(139.0705,546.2819)"
           id="g28"><path
             d="m 0,0 0,0 11.227,-15.956 0,-12.931 10.837,0 0,46.045 -10.837,0 0,-16.702 -11.693,16.702 -10.532,0 0,-46.045 10.998,0 L 0,0 z"
             id="path30"
             style="fill:#918f90;fill-opacity:1;fill-rule:nonzero;stroke:none" /></g><g
           transform="translate(170.1504,551.2037)"
           id="g32"><path
             d="m 0,0 0,-33.809 7.319,0 c 7.682,-0.165 13.982,2.176 18.918,7.015 5.281,5.481 7.948,12.361 8.025,20.639 -0.038,6.352 -1.735,11.138 -5.08,14.351 -3.336,2.838 -7.805,4.185 -13.409,4.041 l -15.22,0 -2.488,-10.383 17.813,0 c 4.955,-0.041 7.452,-2.87 7.491,-8.496 -0.039,-4.434 -1.163,-8.164 -3.383,-11.2 -2.259,-3.015 -5.252,-4.797 -8.988,-5.346 L 10.998,0 0,0 z"
             id="path34"
             style="fill:#918f90;fill-opacity:1;fill-rule:nonzero;stroke:none" /></g><g
           transform="translate(234.0042,552.9342)"
           id="g36"><path
             d="m 0,0 -2.525,10.506 -10.198,0 c -2.602,0 -4.775,-0.218 -6.5,-0.663 -1.801,-0.591 -3.288,-1.699 -4.46,-3.316 -1.306,-1.937 -1.953,-4.175 -1.953,-6.703 0,-3.181 1.076,-6.144 3.239,-8.901 l 10.131,-12.288 c 0.582,-0.788 0.868,-1.42 0.868,-1.885 0,-1.109 -0.668,-1.669 -2.001,-1.669 l -12.323,0 2.744,-10.62 9.626,0 c 4.766,-0.125 8.368,0.642 10.808,2.31 2.401,2.021 3.621,4.766 3.66,8.248 0,3.357 -1.345,6.714 -4.032,10.081 l -9.388,11.263 c -0.705,0.684 -1.048,1.378 -1.048,2.093 0,1.026 0.848,1.544 2.554,1.544 L 0,0 z"
             id="path38"
             style="fill:#918f90;fill-opacity:1;fill-rule:nonzero;stroke:none" /></g><g
           transform="translate(259.5749,517.3951)"
           id="g40"><path
             d="m 0,0 0,35.363 11.446,0 -2.43,10.682 -29.002,0 -2.487,-10.682 11.475,0 L -10.998,0 0,0 z"
             id="path42"
             style="fill:#918f90;fill-opacity:1;fill-rule:nonzero;stroke:none" /></g><g
           transform="translate(292.3404,564.0207)"
           id="g44"><path
             d="m 0,0 c -12.494,0.124 -18.708,-5.864 -18.632,-17.966 0.076,-9.17 2.335,-16.879 6.795,-23.137 3.174,-4.466 7.119,-6.704 11.837,-6.704 4.736,0 8.673,2.238 11.808,6.704 4.442,6.321 6.71,14.029 6.805,23.137 C 18.689,-5.864 12.485,0.124 0,0 m -7.519,-18.723 c -0.115,5.523 2.391,8.227 7.519,8.102 2.745,0 4.718,-0.611 5.909,-1.823 1.058,-1.316 1.592,-3.512 1.592,-6.59 C 7.462,-24.877 6.157,-30.058 3.574,-34.576 2.564,-36.275 1.372,-37.124 0,-37.124 c -1.944,0 -3.679,1.916 -5.194,5.74 -1.554,4.144 -2.325,8.372 -2.325,12.661"
             id="path46"
             style="fill:#918f90;fill-opacity:1;fill-rule:nonzero;stroke:none" /></g><g
           transform="translate(340.0977,517.3951)"
           id="g48"><path
             d="m 0,0 0.543,0 2.783,10.382 -0.839,0 c -10.693,0.238 -16.106,5.812 -16.249,16.723 -0.076,5.761 2.84,8.579 8.749,8.434 l 7.663,0 -2.65,10.506 -6.376,0 c -5.537,0.145 -9.902,-1.139 -13.114,-3.854 -3.469,-3.264 -5.213,-8.02 -5.213,-14.299 0.076,-8.745 2.869,-15.946 8.377,-21.613 C -12.094,2.051 -6.652,-0.042 0,0"
             id="path50"
             style="fill:#918f90;fill-opacity:1;fill-rule:nonzero;stroke:none" /></g><g
           transform="translate(349.2855,563.4402)"
           id="g52"><path
             d="m 0,0 0,-46.045 11.055,0 0,24.97 10.636,-24.97 12.857,0 L 22.854,-20.246 32.928,0 20.585,0 11.055,-20.319 11.055,0 0,0 z"
             id="path54"
             style="fill:#918f90;fill-opacity:1;fill-rule:nonzero;stroke:none" /></g><g
           transform="translate(35.8303,563.4402)"
           id="g56"><path
             d="m 0,0 0,-46.045 10.893,0 -0.476,27.581 8.682,-13.407 8.635,13.407 -0.429,-27.581 10.894,0 L 38.199,0 27.896,0 19.099,-15.397 10.216,0 0,0 z"
             id="path58"
             style="fill:#ed1c24;fill-opacity:1;fill-rule:nonzero;stroke:none" /></g><g
           transform="translate(114.4278,563.4402)"
           id="g60"><path
             d="m 0,0 -10.998,0 0,-35.539 -3.765,0 c -5.327,-0.083 -7.958,3.14 -7.882,9.646 0.068,6.538 2.564,15.169 7.472,25.893 l -11.426,0 c -4.813,-10.019 -7.215,-18.961 -7.215,-26.835 0.038,-8.921 2.706,-14.724 8.024,-17.418 1.744,-0.829 3.68,-1.326 5.804,-1.491 2.107,-0.197 4.461,-0.301 7.072,-0.301 L 0,-46.045 0,0 z"
             id="path62"
             style="fill:#ed1c24;fill-opacity:1;fill-rule:nonzero;stroke:none" /></g><g
           transform="translate(133.86,546.2819)"
           id="g64"><path
             d="m 0,0 0,0 11.227,-15.956 0,-12.931 10.837,0 0,46.045 -10.837,0 0,-16.702 -11.693,16.702 -10.532,0 0,-46.045 10.998,0 L 0,0 z"
             id="path66"
             style="fill:#ed1c24;fill-opacity:1;fill-rule:nonzero;stroke:none" /></g><g
           transform="translate(164.9399,551.2037)"
           id="g68"><path
             d="m 0,0 0,-33.809 7.319,0 c 7.682,-0.165 13.982,2.176 18.918,7.015 5.281,5.481 7.948,12.361 8.025,20.639 -0.038,6.352 -1.735,11.138 -5.08,14.351 -3.336,2.838 -7.805,4.185 -13.409,4.041 l -15.22,0 -2.488,-10.383 17.813,0 c 4.955,-0.041 7.452,-2.87 7.491,-8.496 -0.039,-4.434 -1.163,-8.164 -3.383,-11.2 -2.259,-3.015 -5.252,-4.797 -8.988,-5.346 L 10.998,0 0,0 z"
             id="path70"
             style="fill:#ed1c24;fill-opacity:1;fill-rule:nonzero;stroke:none" /></g><g
           transform="translate(228.7936,552.9342)"
           id="g72"><path
             d="m 0,0 -2.525,10.506 -10.198,0 c -2.602,0 -4.775,-0.218 -6.5,-0.663 -1.801,-0.591 -3.288,-1.699 -4.46,-3.316 -1.306,-1.937 -1.953,-4.175 -1.953,-6.703 0,-3.181 1.076,-6.144 3.239,-8.901 l 10.131,-12.288 c 0.582,-0.788 0.868,-1.42 0.868,-1.885 0,-1.109 -0.668,-1.669 -2.001,-1.669 l -12.323,0 2.744,-10.62 9.626,0 c 4.766,-0.125 8.368,0.642 10.808,2.31 2.401,2.021 3.621,4.766 3.66,8.248 0,3.357 -1.345,6.714 -4.032,10.081 l -9.388,11.263 c -0.705,0.684 -1.048,1.378 -1.048,2.093 0,1.026 0.848,1.544 2.554,1.544 L 0,0 z"
             id="path74"
             style="fill:#ed1c24;fill-opacity:1;fill-rule:nonzero;stroke:none" /></g><g
           transform="translate(254.3644,517.3951)"
           id="g76"><path
             d="m 0,0 0,35.363 11.446,0 -2.43,10.682 -29.002,0 -2.487,-10.682 11.475,0 L -10.998,0 0,0 z"
             id="path78"
             style="fill:#ed1c24;fill-opacity:1;fill-rule:nonzero;stroke:none" /></g><g
           transform="translate(287.1299,564.0207)"
           id="g80"><path
             d="m 0,0 c -12.494,0.124 -18.708,-5.864 -18.632,-17.966 0.076,-9.17 2.335,-16.879 6.795,-23.137 3.174,-4.466 7.119,-6.704 11.837,-6.704 4.736,0 8.673,2.238 11.808,6.704 4.442,6.321 6.71,14.029 6.805,23.137 C 18.689,-5.864 12.485,0.124 0,0 m -7.519,-18.723 c -0.115,5.523 2.391,8.227 7.519,8.102 2.745,0 4.718,-0.611 5.909,-1.823 1.058,-1.316 1.592,-3.512 1.592,-6.59 C 7.462,-24.877 6.157,-30.058 3.574,-34.576 2.564,-36.275 1.372,-37.124 0,-37.124 c -1.944,0 -3.679,1.916 -5.194,5.74 -1.554,4.144 -2.325,8.372 -2.325,12.661"
             id="path82"
             style="fill:#ed1c24;fill-opacity:1;fill-rule:nonzero;stroke:none" /></g><g
           transform="translate(334.8871,517.3951)"
           id="g84"><path
             d="m 0,0 0.543,0 2.783,10.382 -0.838,0 c -10.694,0.238 -16.107,5.812 -16.25,16.723 -0.076,5.761 2.84,8.579 8.749,8.434 l 7.663,0 -2.65,10.506 -6.376,0 c -5.537,0.145 -9.902,-1.139 -13.114,-3.854 -3.469,-3.264 -5.213,-8.02 -5.213,-14.299 0.076,-8.745 2.869,-15.946 8.377,-21.613 C -12.094,2.051 -6.652,-0.042 0,0"
             id="path86"
             style="fill:#ed1c24;fill-opacity:1;fill-rule:nonzero;stroke:none" /></g><g
           transform="translate(344.0749,563.4402)"
           id="g88"><path
             d="m 0,0 0,-46.045 11.055,0 0,24.97 10.636,-24.97 12.857,0 L 22.854,-20.246 32.928,0 20.585,0 11.055,-20.319 11.055,0 0,0 z"
             id="path90"
             style="fill:#ed1c24;fill-opacity:1;fill-rule:nonzero;stroke:none" /></g><g
           transform="translate(418.8323,548.1254)"
           id="g92"><path
             d="m 0,0 c 4.785,2.728 7.181,5.992 7.181,9.789 -0.063,5.109 -3.696,7.72 -10.9,7.831 l -16.108,0 -2.083,-6.956 16.522,0 c 1.802,-0.028 2.702,-0.653 2.702,-1.868 0,-1.916 -2.803,-4.381 -8.41,-7.407 3.399,-7.075 7.885,-13.462 13.445,-19.154 l 7.385,4.894 C 6.249,-9.483 3.007,-5.193 0,0 m -20.32,-13.232 9.036,0 0,22.653 -9.036,0 0,-22.653 z"
             id="path94"
             style="fill:#918f90;fill-opacity:1;fill-rule:nonzero;stroke:none" /></g><g
           transform="translate(444.7053,534.8932)"
           id="g96"><path
             d="m 0,0 3.437,0 1.856,6.144 -4.409,0 c -1.221,0 -2.262,0.153 -3.124,0.465 5.912,3.11 8.865,6.589 8.865,10.428 0.031,4.36 -3.579,6.484 -10.839,6.373 -8.065,0.083 -12.074,-2.964 -12.011,-9.129 0.031,-4.305 1.589,-7.838 4.674,-10.622 C -8.645,1.222 -4.793,0 0,0 m -7.909,10.92 c -0.47,0.882 -0.697,1.798 -0.697,2.757 0.031,2.554 1.449,3.86 4.26,3.915 1.808,-0.028 2.725,-0.507 2.756,-1.451 0,-1.534 -2.106,-3.277 -6.319,-5.221"
             id="path98"
             style="fill:#918f90;fill-opacity:1;fill-rule:nonzero;stroke:none" /></g><path
           d="m 454.955,534.893 8.215,0 0,23.167 -8.215,0 0,-23.167 z m 0,24.791 8.215,0 0,6.061 -8.215,0 0,-6.061 z"
           id="path100"
           style="fill:#918f90;fill-opacity:1;fill-rule:nonzero;stroke:none" /><g
           transform="translate(467.7666,540.9541)"
           id="g102"><path
             d="m 0,0 2.06,-6.061 6.014,0 c 5.606,-0.027 8.41,1.819 8.41,5.54 0,1.59 -0.689,3.187 -2.067,4.805 L 9.898,9.456 c -0.211,0.27 -0.321,0.541 -0.321,0.798 0,0.528 0.423,0.791 1.269,0.791 l 4.659,0 -1.958,6.061 -4.596,0 C 7.588,17.106 6.398,17.057 5.396,16.967 4.37,16.829 3.493,16.537 2.749,16.092 1.003,15.044 0.125,13.558 0.125,11.628 0.125,10.053 0.862,8.435 2.326,6.762 L 6.688,1.707 C 7.072,1.291 7.259,0.93 7.259,0.631 7.259,0.18 6.931,-0.028 6.265,0 L 0,0 z"
             id="path104"
             style="fill:#918f90;fill-opacity:1;fill-rule:nonzero;stroke:none" /></g><g
           transform="translate(502.7466,534.8932)"
           id="g106"><path
             d="m 0,0 3.437,0 1.856,6.144 -4.409,0 c -1.221,0 -2.262,0.153 -3.124,0.465 5.912,3.11 8.865,6.589 8.865,10.428 0.031,4.36 -3.579,6.484 -10.839,6.373 -8.065,0.083 -12.074,-2.964 -12.011,-9.129 0.031,-4.305 1.589,-7.838 4.674,-10.622 C -8.645,1.222 -4.793,0 0,0 m -7.909,10.92 c -0.47,0.882 -0.697,1.798 -0.697,2.757 0.031,2.554 1.449,3.86 4.26,3.915 1.808,-0.028 2.725,-0.507 2.756,-1.451 0,-1.534 -2.106,-3.277 -6.319,-5.221"
             id="path108"
             style="fill:#918f90;fill-opacity:1;fill-rule:nonzero;stroke:none" /></g><g
           transform="translate(512.4017,558.0604)"
           id="g110"><path
             d="m 0,0 0,-23.167 8.073,0 0,16.905 2.17,0 c 0.9,0 1.581,-0.056 2.028,-0.16 0.501,-0.139 0.83,-0.375 0.995,-0.715 0.305,-0.611 0.438,-1.597 0.407,-2.957 l 0,-13.073 8.073,0 0,14.114 c 0.031,3.339 -0.673,5.699 -2.115,7.081 -1.472,1.34 -4.001,2 -7.603,1.972 L 0,0 z"
             id="path112"
             style="fill:#918f90;fill-opacity:1;fill-rule:nonzero;stroke:none" /></g><g
           transform="translate(415.6815,548.5907)"
           id="g114"><path
             d="m 0,0 c 4.784,2.728 7.181,5.992 7.181,9.789 -0.063,5.11 -3.697,7.72 -10.901,7.831 l -16.107,0 -2.083,-6.956 16.522,0 c 1.802,-0.028 2.702,-0.653 2.702,-1.868 0,-1.916 -2.803,-4.381 -8.41,-7.407 3.398,-7.075 7.885,-13.462 13.445,-19.154 l 7.385,4.894 C 6.249,-9.483 3.006,-5.193 0,0 m -20.321,-13.232 9.036,0 0,22.653 -9.036,0 0,-22.653 z"
             id="path116"
             style="fill:#ed1c24;fill-opacity:1;fill-rule:nonzero;stroke:none" /></g><g
           transform="translate(441.5539,535.3586)"
           id="g118"><path
             d="m 0,0 3.438,0 1.856,6.144 -4.409,0 c -1.222,0 -2.263,0.153 -3.125,0.465 5.913,3.11 8.865,6.589 8.865,10.428 0.031,4.36 -3.579,6.484 -10.838,6.373 -8.066,0.083 -12.075,-2.964 -12.012,-9.13 0.031,-4.304 1.589,-7.837 4.675,-10.621 C -8.645,1.222 -4.792,0 0,0 m -7.909,10.92 c -0.47,0.882 -0.697,1.798 -0.697,2.757 0.032,2.554 1.449,3.86 4.26,3.915 1.809,-0.028 2.725,-0.507 2.756,-1.451 0,-1.534 -2.106,-3.277 -6.319,-5.221"
             id="path120"
             style="fill:#ed1c24;fill-opacity:1;fill-rule:nonzero;stroke:none" /></g><path
           d="m 451.805,535.359 8.214,0 0,23.167 -8.214,0 0,-23.167 z m 0,24.791 8.214,0 0,6.061 -8.214,0 0,-6.061 z"
           id="path122"
           style="fill:#ed1c24;fill-opacity:1;fill-rule:nonzero;stroke:none" /><g
           transform="translate(464.6157,541.4194)"
           id="g124"><path
             d="m 0,0 2.059,-6.061 6.014,0 c 5.607,-0.028 8.411,1.819 8.411,5.54 0,1.59 -0.69,3.187 -2.068,4.805 L 9.899,9.456 c -0.212,0.27 -0.322,0.541 -0.322,0.798 0,0.528 0.423,0.791 1.269,0.791 l 4.659,0 -1.958,6.061 -4.597,0 C 7.588,17.106 6.398,17.057 5.395,16.967 4.37,16.828 3.493,16.537 2.749,16.092 1.003,15.044 0.125,13.558 0.125,11.628 0.125,10.053 0.861,8.435 2.326,6.762 L 6.688,1.708 C 7.071,1.291 7.259,0.93 7.259,0.632 7.259,0.18 6.931,-0.028 6.265,0 L 0,0 z"
             id="path126"
             style="fill:#ed1c24;fill-opacity:1;fill-rule:nonzero;stroke:none" /></g><g
           transform="translate(499.5953,535.3586)"
           id="g128"><path
             d="m 0,0 3.438,0 1.856,6.144 -4.409,0 c -1.222,0 -2.263,0.153 -3.125,0.465 5.913,3.11 8.865,6.589 8.865,10.428 0.031,4.36 -3.579,6.484 -10.838,6.373 -8.066,0.083 -12.075,-2.964 -12.012,-9.13 0.031,-4.304 1.589,-7.837 4.675,-10.621 C -8.645,1.222 -4.792,0 0,0 m -7.909,10.92 c -0.47,0.882 -0.697,1.798 -0.697,2.757 0.031,2.554 1.449,3.86 4.26,3.915 1.809,-0.028 2.725,-0.507 2.756,-1.451 0,-1.534 -2.106,-3.277 -6.319,-5.221"
             id="path130"
             style="fill:#ed1c24;fill-opacity:1;fill-rule:nonzero;stroke:none" /></g><g
           transform="translate(509.2504,558.5257)"
           id="g132"><path
             d="m 0,0 0,-23.167 8.074,0 0,16.905 2.169,0 c 0.9,0 1.581,-0.056 2.028,-0.16 0.502,-0.139 0.83,-0.375 0.995,-0.715 0.305,-0.611 0.438,-1.597 0.407,-2.957 l 0,-13.073 8.073,0 0,14.114 c 0.031,3.339 -0.673,5.699 -2.114,7.081 -1.473,1.34 -4.001,2 -7.603,1.972 L 0,0 z"
             id="path134"
             style="fill:#ed1c24;fill-opacity:1;fill-rule:nonzero;stroke:none" /></g><g
           transform="translate(35.2925,462.1831)"
           id="g136"><path
             d="m 0,0 -1.428,-1.344 195.565,0.701 36.469,-2.176 c 24.636,-1.113 60.148,-6.446 83.915,2.6 8.512,3.24 14.616,8.852 22.473,12.671 2.62,1.272 3.177,-1.178 3.772,-2.911 -1.306,-18.71 -3.444,-21.999 9.506,-23.011 20.3,-1.585 57.481,35.703 67.219,41.098 6.998,3.878 3.008,-4.103 -0.242,-12.314 -1.271,-3.213 -3.303,-6.694 -2.5,-9.214 0.802,-2.521 4.233,-4.098 11.184,-1.306 l 13.698,4.817 46.235,18.588 c 14.896,6.116 29.934,10.513 45.066,14.446 l 0.133,4.549 C 519.528,44.048 507.556,40.99 496.168,37.202 476.344,30.607 457.21,22.876 437.476,16.368 c -0.3,-0.099 -0.559,0.224 -0.769,0.197 -3.163,-0.407 4.472,7.659 14.025,25.322 6.007,11.104 -3.556,18.084 -37.775,-4.363 C 404.215,31.789 393.827,23.672 385.091,15.783 370.072,2.22 357.745,-4.08 363.544,17.849 l 2.521,11.757 C 372.875,61.369 310.84,13.31 289.204,4.906 281.802,2.031 272.403,0.829 264.739,0 L 0,0 z"
             id="path138"
             style="fill:#918f90;fill-opacity:1;fill-rule:evenodd;stroke:none" /></g><g
           transform="translate(29.9741,465.5835)"
           id="g140"><path
             d="m 0,0 -1.428,-6.514 286.522,0 c 9.83,0.748 21.182,2.427 29.427,6.295 8.246,3.869 14.616,8.852 22.473,12.671 2.62,1.272 3.177,-1.178 3.772,-2.911 -1.306,-18.71 -3.444,-21.999 9.506,-23.011 20.3,-1.585 57.481,35.703 67.219,41.098 6.998,3.878 3.008,-4.103 -0.242,-12.314 -1.272,-3.213 -3.303,-6.694 -2.5,-9.215 0.802,-2.52 4.233,-4.097 11.184,-1.305 l 13.698,4.817 46.235,18.588 c 14.897,6.116 29.934,10.513 45.066,14.446 l 0.133,4.549 C 519.528,44.048 507.556,40.99 496.168,37.202 476.344,30.607 457.21,22.876 437.476,16.368 c -0.3,-0.099 -0.559,0.224 -0.769,0.197 -3.163,-0.407 4.472,7.659 14.025,25.322 6.007,11.104 -3.556,18.084 -37.775,-4.363 C 404.215,31.789 393.827,23.672 385.091,15.783 370.072,2.22 357.745,-4.08 363.544,17.849 l 2.521,11.757 C 372.875,61.369 310.84,13.31 289.204,4.906 281.802,2.031 272.403,0.829 264.739,0 L 0,0 z"
             id="path142"
             style="fill:#ed1c24;fill-opacity:1;fill-rule:evenodd;stroke:none" /></g><g
           transform="translate(39.3036,491.6811)"
           id="g144"><path
             d="m 0,0 c -0.399,0 -0.721,0.134 -0.973,0.399 -0.248,0.269 -0.374,0.623 -0.374,1.071 0,0.484 0.146,0.88 0.439,1.193 0.297,0.31 0.672,0.464 1.136,0.464 0.359,0 0.66,-0.134 0.913,-0.407 C 1.389,2.452 1.515,2.122 1.515,1.731 1.515,1.222 1.372,0.807 1.092,0.485 0.811,0.163 0.444,0 0,0"
             id="path146"
             style="fill:#231f20;fill-opacity:1;fill-rule:nonzero;stroke:none" /></g><g
           transform="translate(45.0165,491.6811)"
           id="g148"><path
             d="m 0,0 c -0.399,0 -0.721,0.134 -0.973,0.399 -0.248,0.269 -0.374,0.623 -0.374,1.071 0,0.484 0.146,0.88 0.439,1.193 0.297,0.31 0.672,0.464 1.136,0.464 0.359,0 0.66,-0.134 0.913,-0.407 C 1.389,2.452 1.515,2.122 1.515,1.731 1.515,1.222 1.372,0.807 1.092,0.485 0.811,0.163 0.444,0 0,0"
             id="path150"
             style="fill:#231f20;fill-opacity:1;fill-rule:nonzero;stroke:none" /></g><g
           transform="translate(50.7294,491.6811)"
           id="g152"><path
             d="m 0,0 c -0.399,0 -0.721,0.134 -0.973,0.399 -0.248,0.269 -0.374,0.623 -0.374,1.071 0,0.484 0.146,0.88 0.439,1.193 0.297,0.31 0.672,0.464 1.136,0.464 0.359,0 0.66,-0.134 0.913,-0.407 C 1.389,2.452 1.515,2.122 1.515,1.731 1.515,1.222 1.372,0.807 1.092,0.485 0.811,0.163 0.444,0 0,0"
             id="path154"
             style="fill:#231f20;fill-opacity:1;fill-rule:nonzero;stroke:none" /></g><g
           transform="translate(60.6122,501.1283)"
           id="g156"><path
             d="m 0,0 c -0.745,-0.684 -1.348,-1.511 -1.808,-2.476 -0.456,-0.965 -0.684,-1.881 -0.684,-2.749 0,-0.126 0.012,-0.272 0.036,-0.435 0.025,-0.163 0.062,-0.359 0.119,-0.591 0.342,0.359 0.668,0.737 0.973,1.133 0.305,0.398 0.599,0.826 0.875,1.286 0,0.566 0.041,1.169 0.126,1.804 C -0.281,-1.393 -0.159,-0.717 0,0 m -0.391,-7.456 c -0.489,-0.684 -0.932,-1.173 -1.336,-1.462 -0.407,-0.289 -0.839,-0.435 -1.302,-0.435 -0.77,0 -1.402,0.338 -1.894,1.009 -0.493,0.673 -0.741,1.564 -0.741,2.676 0,1.001 0.199,2.02 0.602,3.054 0.404,1.034 0.998,2.068 1.796,3.103 0.395,0.517 0.725,0.907 0.982,1.168 0.26,0.265 0.444,0.395 0.557,0.395 0.159,0 0.404,-0.122 0.738,-0.362 0.334,-0.245 0.708,-0.579 1.119,-0.998 0.55,2.346 1.047,4.215 1.495,5.607 0.444,1.393 0.757,2.089 0.94,2.089 0.24,0 0.668,-0.203 1.283,-0.615 C 4.463,7.362 4.772,7.016 4.772,6.731 4.772,5.941 4.528,4.581 4.043,2.643 3.559,0.704 2.911,-1.364 2.101,-3.567 l 0,-0.289 c 0,-0.355 0.02,-0.701 0.065,-1.03 0.045,-0.33 0.106,-0.648 0.183,-0.949 0.407,0.049 0.807,0.134 1.201,0.256 0.392,0.122 0.608,0.183 0.636,0.183 0.057,0 0.098,-0.008 0.126,-0.028 0.028,-0.02 0.041,-0.053 0.041,-0.102 0,-0.142 -0.139,-0.603 -0.415,-1.384 C 3.66,-7.688 3.372,-8.307 3.078,-8.767 3.001,-8.897 2.777,-9.024 2.415,-9.158 2.056,-9.288 1.714,-9.353 1.396,-9.353 c -0.533,0 -0.952,0.167 -1.266,0.497 -0.309,0.329 -0.484,0.797 -0.521,1.4"
             id="path158"
             style="fill:#231f20;fill-opacity:1;fill-rule:nonzero;stroke:none" /></g><g
           transform="translate(72.9909,501.2586)"
           id="g160"><path
             d="m 0,0 c -1.059,-0.399 -1.975,-1.189 -2.749,-2.378 -0.778,-1.189 -1.164,-2.378 -1.164,-3.563 0,-0.094 0.004,-0.195 0.016,-0.297 0.013,-0.102 0.033,-0.216 0.057,-0.334 0.794,0.342 1.478,0.997 2.056,1.962 C -1.209,-3.644 -0.615,-2.105 0,0 m -1.861,-7.407 c -0.717,-0.717 -1.348,-1.238 -1.893,-1.564 -0.546,-0.325 -1.055,-0.488 -1.532,-0.488 -0.651,0 -1.164,0.252 -1.539,0.757 -0.374,0.505 -0.561,1.206 -0.561,2.106 0,1.009 0.24,2.093 0.72,3.249 0.481,1.156 1.136,2.215 1.963,3.168 0.517,0.598 1.05,1.091 1.6,1.486 0.55,0.391 0.953,0.591 1.218,0.591 0.211,0 0.505,-0.131 0.875,-0.387 C -0.639,1.25 -0.256,0.9 0.142,0.452 0.228,0.725 0.305,1.046 0.366,1.421 0.44,1.816 0.558,2.02 0.725,2.028 0.989,2.028 1.393,1.828 1.934,1.433 2.48,1.034 2.753,0.667 2.753,0.334 2.753,-0.183 2.614,-1.059 2.337,-2.297 2.056,-3.534 1.681,-4.846 1.214,-6.238 l 0.24,0 c 0.191,0 0.379,0.008 0.557,0.024 0.184,0.017 0.277,0.024 0.277,0.024 0.11,0 0.176,-0.012 0.192,-0.032 0.016,-0.016 0.024,-0.073 0.032,-0.159 0,-0.15 -0.077,-0.383 -0.236,-0.692 C 2.118,-7.382 1.894,-7.745 1.608,-8.16 1.242,-8.694 0.957,-9.04 0.753,-9.207 0.554,-9.374 0.338,-9.459 0.118,-9.459 c -0.668,0 -1.168,0.134 -1.502,0.399 -0.334,0.269 -0.501,0.672 -0.501,1.213 0,0.118 0,0.208 0.003,0.273 0.005,0.065 0.013,0.118 0.021,0.167"
             id="path162"
             style="fill:#231f20;fill-opacity:1;fill-rule:nonzero;stroke:none" /></g><g
           transform="translate(79.677,494.8533)"
           id="g164"><path
             d="m 0,0 c -0.619,1.36 -1.059,2.431 -1.319,3.209 -0.257,0.778 -0.387,1.413 -0.387,1.897 0,0.977 0.236,1.771 0.704,2.383 0.468,0.614 1.083,0.92 1.837,0.92 0.399,0 0.822,-0.078 1.27,-0.228 C 2.557,8.03 2.911,7.851 3.176,7.647 3.335,7.517 3.445,7.314 3.514,7.032 3.583,6.747 3.616,6.369 3.616,5.892 3.616,5.306 3.591,4.903 3.538,4.683 3.485,4.463 3.392,4.353 3.258,4.353 3.131,4.353 2.883,4.503 2.52,4.801 2.154,5.098 1.779,5.31 1.396,5.428 1.987,4.092 2.398,3.022 2.634,2.211 2.866,1.405 2.985,0.684 2.985,0.045 c 0,-1.002 -0.269,-1.78 -0.811,-2.338 -0.541,-0.557 -1.299,-0.834 -2.268,-0.834 -0.566,0 -1.001,0.044 -1.307,0.138 -0.305,0.09 -0.546,0.249 -0.721,0.469 -0.215,0.28 -0.399,0.692 -0.549,1.237 -0.151,0.546 -0.228,1.063 -0.228,1.556 0,0.138 0.02,0.24 0.065,0.317 0.045,0.078 0.11,0.114 0.195,0.114 0.049,0 0.326,-0.121 0.831,-0.366 0.505,-0.24 1.006,-0.362 1.499,-0.362 0.024,0 0.072,0.004 0.142,0.012 C -0.094,-0.004 -0.041,0 0,0"
             id="path166"
             style="fill:#231f20;fill-opacity:1;fill-rule:nonzero;stroke:none" /></g><g
           transform="translate(91.5264,496.7588)"
           id="g168"><path
             d="m 0,0 c -0.024,0.017 -0.069,0.045 -0.134,0.086 -0.628,0.382 -0.941,0.77 -0.941,1.156 0,0.978 0.142,1.666 0.423,2.065 0.282,0.399 0.746,0.598 1.389,0.598 l 0.122,0 c 0.611,2.729 1.189,4.895 1.739,6.507 0.55,1.609 0.977,2.415 1.291,2.415 0.093,0 0.297,-0.082 0.606,-0.245 0.31,-0.162 0.595,-0.358 0.859,-0.59 0.285,-0.24 0.493,-0.509 0.619,-0.81 C 6.1,10.877 6.165,10.498 6.165,10.033 6.165,9.288 5.961,8.303 5.558,7.081 5.151,5.864 4.454,4.17 3.469,2.008 3.555,1.89 3.644,1.796 3.738,1.731 3.828,1.67 3.917,1.637 4.007,1.637 c 0.244,0 0.574,0.191 0.989,0.574 0.412,0.379 0.664,0.57 0.75,0.57 0.065,0 0.122,-0.04 0.166,-0.118 C 5.961,2.582 5.986,2.484 5.986,2.366 5.986,2.191 5.912,1.796 5.758,1.189 5.607,0.583 5.424,0.029 5.212,-0.464 5.013,-0.924 4.784,-1.266 4.524,-1.482 4.267,-1.702 3.966,-1.812 3.624,-1.812 3.498,-1.812 3.372,-1.8 3.241,-1.771 3.115,-1.742 2.98,-1.702 2.838,-1.645 2.822,-1.877 2.798,-2.219 2.765,-2.671 2.431,-7.309 2.089,-9.626 1.739,-9.626 c -0.102,0 -0.326,0.094 -0.672,0.285 -0.346,0.192 -0.668,0.424 -0.961,0.693 -0.452,0.406 -0.737,0.712 -0.851,0.92 -0.118,0.207 -0.175,0.46 -0.175,0.761 0,0.607 0.081,1.535 0.244,2.789 C -0.513,-2.927 -0.289,-1.535 0,0"
             id="path170"
             style="fill:#231f20;fill-opacity:1;fill-rule:nonzero;stroke:none" /></g><g
           transform="translate(102.0605,502.012)"
           id="g172"><path
             d="m 0,0 c 0.159,0.476 0.31,0.835 0.452,1.079 0.143,0.24 0.277,0.362 0.407,0.362 0.228,0 0.591,-0.244 1.079,-0.729 0.489,-0.484 0.733,-0.891 0.733,-1.225 0,-0.139 -0.049,-0.343 -0.151,-0.623 -0.097,-0.277 -0.285,-0.729 -0.566,-1.36 0.082,0.032 0.164,0.057 0.245,0.073 0.085,0.016 0.175,0.025 0.269,0.025 0.048,0 0.085,-0.021 0.11,-0.062 0.02,-0.04 0.032,-0.097 0.032,-0.179 0,-0.484 -0.139,-0.981 -0.424,-1.49 -0.281,-0.509 -0.602,-0.762 -0.96,-0.762 -0.176,0 -0.355,0.041 -0.546,0.122 -0.191,0.086 -0.411,0.212 -0.656,0.387 -0.366,-1.245 -0.679,-2.544 -0.936,-3.888 -0.261,-1.344 -0.444,-2.016 -0.558,-2.016 -0.102,0 -0.293,0.082 -0.57,0.24 -0.281,0.159 -0.627,0.387 -1.038,0.693 -0.224,0.159 -0.375,0.301 -0.448,0.427 -0.078,0.126 -0.115,0.334 -0.115,0.619 0,0.44 0.078,1.173 0.229,2.203 0.15,1.03 0.354,2.162 0.606,3.392 0.318,1.592 0.55,2.618 0.693,3.074 0.142,0.456 0.285,0.684 0.431,0.684 0.151,0 0.363,-0.085 0.635,-0.256 C -0.77,0.619 -0.424,0.354 0,0"
             id="path174"
             style="fill:#231f20;fill-opacity:1;fill-rule:nonzero;stroke:none" /></g><g
           transform="translate(108.5143,496.9057)"
           id="g176"><path
             d="M 0,0 C 0.554,0.224 1.038,0.688 1.454,1.396 1.865,2.105 2.073,2.773 2.073,3.4 l 0,0.26 0,0.253 C 1.604,3.62 1.189,3.135 0.835,2.464 0.477,1.791 0.2,0.969 0,0 m -0.142,-2.052 c 0.15,-0.029 0.305,-0.053 0.464,-0.07 0.159,-0.016 0.321,-0.024 0.489,-0.024 0.659,0 1.339,0.187 2.044,0.562 0.704,0.371 1.062,0.558 1.078,0.558 0.058,0 0.098,-0.033 0.127,-0.094 0.028,-0.065 0.041,-0.159 0.041,-0.277 0,-0.277 -0.094,-0.696 -0.281,-1.25 C 3.632,-3.204 3.437,-3.62 3.229,-3.889 2.92,-4.28 2.452,-4.601 1.824,-4.862 1.193,-5.118 0.546,-5.249 -0.122,-5.249 c -0.977,0 -1.747,0.326 -2.309,0.973 -0.558,0.648 -0.839,1.535 -0.839,2.668 0,0.92 0.204,1.93 0.607,3.021 0.407,1.095 0.953,2.097 1.637,3.013 0.493,0.652 1.001,1.157 1.531,1.515 0.529,0.358 1.034,0.537 1.523,0.537 0.676,0 1.279,-0.269 1.812,-0.81 0.533,-0.541 0.798,-1.185 0.798,-1.934 0,-1.27 -0.444,-2.362 -1.336,-3.27 -0.891,-0.904 -2.04,-1.404 -3.444,-1.49 -0.009,-0.033 -0.013,-0.069 -0.013,-0.106 -0.024,-0.175 -0.036,-0.301 -0.036,-0.383 0,-0.073 0.012,-0.22 0.036,-0.439 0.009,-0.041 0.013,-0.074 0.013,-0.098"
             id="path178"
             style="fill:#231f20;fill-opacity:1;fill-rule:nonzero;stroke:none" /></g><g
           transform="translate(119.7571,495.5088)"
           id="g180"><path
             d="m 0,0 c -0.863,-1.226 -1.584,-2.142 -2.158,-2.749 -0.57,-0.61 -1.01,-0.911 -1.311,-0.911 -0.294,0 -0.68,0.187 -1.153,0.557 -0.472,0.375 -0.708,0.742 -0.708,1.1 0,0.692 0.122,1.751 0.362,3.172 0.245,1.425 0.57,2.874 0.986,4.357 0.248,0.895 0.448,1.498 0.602,1.8 0.155,0.301 0.326,0.452 0.517,0.452 0.416,0 0.876,-0.196 1.385,-0.591 0.509,-0.391 0.765,-0.822 0.765,-1.295 0,-0.317 -0.089,-0.847 -0.265,-1.584 -0.175,-0.741 -0.582,-2.223 -1.229,-4.45 0.607,0.541 1.161,1.234 1.661,2.076 0.501,0.843 1.055,2.048 1.67,3.612 C 1.226,5.811 1.352,6.157 1.503,6.585 1.8,7.411 2.044,7.826 2.244,7.826 2.5,7.826 2.87,7.619 3.363,7.199 3.856,6.784 4.104,6.389 4.104,6.015 4.104,5.705 3.982,4.947 3.734,3.742 3.49,2.537 3.172,1.193 2.781,-0.285 c 0.033,-0.008 0.065,-0.012 0.102,-0.016 0.036,-0.004 0.085,-0.008 0.146,-0.008 0.106,0 0.229,0.016 0.367,0.048 0.138,0.033 0.228,0.049 0.269,0.049 0.118,0 0.207,-0.02 0.273,-0.056 0.065,-0.033 0.093,-0.086 0.093,-0.147 0,-0.232 -0.114,-0.591 -0.35,-1.075 C 3.445,-1.975 3.148,-2.471 2.781,-2.98 2.59,-3.245 2.378,-3.433 2.142,-3.543 1.91,-3.653 1.608,-3.709 1.242,-3.709 c -0.55,0 -0.969,0.118 -1.266,0.35 -0.294,0.236 -0.44,0.57 -0.44,0.998 0,0.276 0.036,0.61 0.114,0.989 C -0.277,-0.989 -0.159,-0.533 0,0"
             id="path182"
             style="fill:#231f20;fill-opacity:1;fill-rule:nonzero;stroke:none" /></g><g
           transform="translate(132.1233,499.8861)"
           id="g184"><path
             d="m 0,0 c -0.884,-0.826 -1.645,-1.714 -2.28,-2.659 -0.635,-0.949 -1.144,-1.959 -1.527,-3.029 -0.143,-0.391 -0.29,-0.884 -0.44,-1.478 -0.151,-0.615 -0.293,-0.921 -0.42,-0.921 -0.061,0 -0.223,0.077 -0.488,0.232 -0.261,0.155 -0.566,0.359 -0.908,0.603 -0.269,0.208 -0.464,0.399 -0.59,0.574 -0.123,0.175 -0.184,0.35 -0.184,0.525 0,0.477 0.114,1.324 0.346,2.545 0.233,1.222 0.538,2.497 0.92,3.824 0.355,1.23 0.628,2.052 0.811,2.463 0.183,0.408 0.354,0.615 0.513,0.615 0.375,0 0.823,-0.175 1.352,-0.525 0.529,-0.35 0.794,-0.721 0.794,-1.111 C -2.101,1.49 -2.13,1.263 -2.183,0.973 -2.239,0.68 -2.341,0.257 -2.496,-0.297 -1.47,1.063 -0.667,2.016 -0.09,2.557 0.485,3.103 0.965,3.376 1.348,3.376 1.45,3.376 1.62,3.327 1.861,3.233 2.097,3.136 2.342,3.013 2.586,2.863 2.818,2.72 2.973,2.582 3.054,2.447 3.132,2.309 3.172,2.097 3.172,1.8 3.172,1.181 3.038,0.31 2.773,-0.819 2.504,-1.942 2.125,-3.192 1.633,-4.569 l 0.106,0 c 0.183,0 0.391,0.025 0.623,0.074 0.228,0.045 0.375,0.069 0.427,0.069 0.098,0 0.159,-0.012 0.192,-0.041 0.032,-0.028 0.048,-0.085 0.048,-0.175 0,-0.151 -0.061,-0.35 -0.178,-0.598 C 2.732,-5.493 2.455,-5.961 2.028,-6.645 1.669,-7.223 1.405,-7.611 1.238,-7.802 1.071,-7.993 0.92,-8.087 0.786,-8.087 c -0.126,0 -0.379,0.077 -0.757,0.232 -0.379,0.155 -0.738,0.351 -1.079,0.579 -0.233,0.142 -0.408,0.338 -0.526,0.586 -0.118,0.244 -0.179,0.537 -0.179,0.871 0,0.554 0.155,1.356 0.464,2.403 C -0.981,-2.37 -0.55,-1.234 0,0"
             id="path186"
             style="fill:#231f20;fill-opacity:1;fill-rule:nonzero;stroke:none" /></g><g
           transform="translate(142.3522,501.1283)"
           id="g188"><path
             d="m 0,0 c -0.745,-0.684 -1.348,-1.511 -1.808,-2.476 -0.456,-0.965 -0.684,-1.881 -0.684,-2.749 0,-0.126 0.012,-0.272 0.036,-0.435 0.025,-0.163 0.062,-0.359 0.119,-0.591 0.342,0.359 0.668,0.737 0.973,1.133 0.305,0.398 0.599,0.826 0.875,1.286 0,0.566 0.041,1.169 0.126,1.804 C -0.281,-1.393 -0.159,-0.717 0,0 m -0.391,-7.456 c -0.489,-0.684 -0.932,-1.173 -1.336,-1.462 -0.407,-0.289 -0.839,-0.435 -1.302,-0.435 -0.77,0 -1.402,0.338 -1.894,1.009 -0.493,0.673 -0.741,1.564 -0.741,2.676 0,1.001 0.199,2.02 0.602,3.054 0.404,1.034 0.998,2.068 1.796,3.103 0.395,0.517 0.725,0.907 0.982,1.168 0.26,0.265 0.444,0.395 0.557,0.395 0.159,0 0.404,-0.122 0.738,-0.362 0.334,-0.245 0.708,-0.579 1.119,-0.998 0.55,2.346 1.046,4.215 1.495,5.607 0.444,1.393 0.757,2.089 0.94,2.089 0.24,0 0.668,-0.203 1.283,-0.615 C 4.463,7.362 4.772,7.016 4.772,6.731 4.772,5.941 4.528,4.581 4.043,2.643 3.559,0.704 2.911,-1.364 2.101,-3.567 l 0,-0.289 c 0,-0.355 0.02,-0.701 0.065,-1.03 0.045,-0.33 0.106,-0.648 0.183,-0.949 0.407,0.049 0.807,0.134 1.201,0.256 0.392,0.122 0.608,0.183 0.636,0.183 0.057,0 0.098,-0.008 0.126,-0.028 0.028,-0.02 0.041,-0.053 0.041,-0.102 0,-0.142 -0.139,-0.603 -0.415,-1.384 C 3.66,-7.688 3.372,-8.307 3.078,-8.767 3.001,-8.897 2.777,-9.024 2.415,-9.158 2.056,-9.288 1.714,-9.353 1.396,-9.353 c -0.533,0 -0.952,0.167 -1.266,0.497 -0.309,0.329 -0.484,0.797 -0.521,1.4"
             id="path190"
             style="fill:#231f20;fill-opacity:1;fill-rule:nonzero;stroke:none" /></g><g
           transform="translate(151.4487,495.0773)"
           id="g192"><path
             d="m 0,0 c 0.094,-0.016 0.188,-0.025 0.285,-0.029 0.094,-0.004 0.228,-0.007 0.403,-0.007 0.301,0 0.624,0.032 0.965,0.097 0.098,0.024 0.155,0.033 0.18,0.033 0.081,0 0.142,-0.013 0.191,-0.041 0.049,-0.028 0.073,-0.066 0.073,-0.114 0,-0.175 -0.057,-0.456 -0.163,-0.847 -0.106,-0.387 -0.256,-0.798 -0.447,-1.226 -0.175,-0.407 -0.424,-0.704 -0.75,-0.9 -0.326,-0.195 -0.745,-0.293 -1.254,-0.293 -0.851,0 -1.535,0.326 -2.052,0.973 -0.518,0.648 -0.774,1.519 -0.774,2.619 0,0.419 0.045,1.042 0.13,1.86 0.09,0.819 0.216,1.723 0.383,2.708 0.216,1.299 0.448,2.435 0.696,3.421 0.253,0.981 0.546,1.934 0.888,2.854 0.415,1.157 0.749,1.963 0.997,2.431 0.253,0.464 0.465,0.697 0.64,0.697 0.085,0 0.261,-0.098 0.525,-0.298 0.261,-0.199 0.55,-0.46 0.868,-0.778 0.28,-0.276 0.472,-0.557 0.574,-0.846 C 2.459,12.029 2.513,11.642 2.513,11.157 2.513,10.139 2.134,8.596 1.38,6.527 1.307,6.336 1.258,6.197 1.226,6.108 1.185,6.006 1.132,5.863 1.059,5.681 0.305,3.689 -0.073,2.219 -0.073,1.266 -0.073,1.083 -0.069,0.884 -0.057,0.668 -0.045,0.452 -0.024,0.232 0,0"
             id="path194"
             style="fill:#231f20;fill-opacity:1;fill-rule:nonzero;stroke:none" /></g><g
           transform="translate(158.4855,504.7439)"
           id="g196"><path
             d="m 0,0 c -0.399,0 -0.721,0.143 -0.973,0.424 -0.249,0.281 -0.375,0.647 -0.375,1.091 0,0.493 0.155,0.912 0.46,1.254 0.305,0.342 0.672,0.513 1.104,0.513 0.358,0 0.664,-0.146 0.916,-0.435 C 1.388,2.557 1.515,2.203 1.515,1.792 1.515,1.275 1.368,0.847 1.079,0.509 0.79,0.171 0.427,0 0,0 m -0.632,-9.569 c 0.184,0.017 0.375,0.049 0.583,0.094 0.207,0.049 0.326,0.073 0.358,0.073 0.102,0 0.175,-0.016 0.216,-0.053 0.041,-0.037 0.057,-0.102 0.057,-0.195 0,-0.163 -0.065,-0.485 -0.195,-0.97 -0.131,-0.484 -0.294,-0.956 -0.485,-1.416 -0.151,-0.35 -0.383,-0.619 -0.696,-0.803 -0.314,-0.183 -0.697,-0.272 -1.141,-0.272 -0.606,0 -1.075,0.223 -1.408,0.676 -0.334,0.447 -0.501,1.086 -0.501,1.913 0,0.762 0.167,1.853 0.497,3.274 0.33,1.417 0.769,2.875 1.319,4.373 0.187,0.521 0.346,0.896 0.468,1.112 0.127,0.22 0.24,0.33 0.354,0.33 0.102,0 0.265,-0.069 0.481,-0.204 0.22,-0.134 0.501,-0.338 0.843,-0.607 0.24,-0.183 0.387,-0.333 0.448,-0.447 0.061,-0.114 0.089,-0.294 0.089,-0.53 0,-0.297 -0.118,-1.046 -0.358,-2.252 -0.236,-1.205 -0.55,-2.569 -0.929,-4.096"
             id="path198"
             style="fill:#231f20;fill-opacity:1;fill-rule:nonzero;stroke:none" /></g><g
           transform="translate(164.2959,494.7109)"
           id="g200"><path
             d="m 0,0 c 0.928,0.024 1.901,0.207 2.911,0.55 0.261,0.085 0.42,0.13 0.477,0.13 0.065,0 0.106,-0.008 0.13,-0.02 C 3.543,0.651 3.559,0.623 3.567,0.582 3.567,0.448 3.477,0.065 3.298,-0.566 3.119,-1.201 2.932,-1.731 2.732,-2.158 2.63,-2.358 2.268,-2.557 1.645,-2.757 1.026,-2.956 0.395,-3.054 -0.253,-3.054 c -0.969,0 -1.739,0.313 -2.313,0.937 -0.573,0.623 -0.858,1.478 -0.858,2.557 0,0.883 0.15,1.795 0.447,2.732 0.298,0.937 0.717,1.808 1.259,2.61 0.586,0.883 1.209,1.592 1.864,2.13 0.656,0.537 1.218,0.806 1.678,0.806 0.684,0 1.275,-0.2 1.771,-0.599 C 4.092,7.724 4.34,7.224 4.34,6.617 4.34,5.399 4.149,4.593 3.767,4.19 3.388,3.787 2.691,3.587 1.678,3.587 1.551,3.587 1.458,3.6 1.401,3.628 1.34,3.656 1.311,3.697 1.311,3.754 c 0,0.094 0.073,0.375 0.22,0.843 0.147,0.464 0.22,0.859 0.22,1.185 l 0,0.395 C 1.156,5.709 0.672,5.025 0.301,4.125 -0.069,3.229 -0.253,2.272 -0.253,1.262 -0.253,1.067 -0.232,0.859 -0.188,0.643 -0.143,0.427 -0.081,0.216 0,0"
             id="path202"
             style="fill:#231f20;fill-opacity:1;fill-rule:nonzero;stroke:none" /></g><g
           transform="translate(173.5065,499.9554)"
           id="g204"><path
             d="m 0,0 c 0.798,1.083 1.503,1.942 2.118,2.573 0.619,0.631 1.054,0.949 1.306,0.949 0.098,0 0.29,-0.061 0.579,-0.183 C 4.296,3.213 4.557,3.074 4.784,2.916 5.025,2.749 5.176,2.598 5.241,2.468 5.302,2.333 5.334,2.134 5.334,1.865 5.334,1.14 5.228,0.179 5.017,-1.022 4.809,-2.223 4.516,-3.555 4.141,-5.008 c 0.183,0.007 0.379,0.044 0.591,0.105 0.211,0.066 0.337,0.098 0.374,0.098 0.09,0 0.151,-0.012 0.192,-0.037 0.04,-0.024 0.061,-0.065 0.061,-0.117 0,-0.123 -0.078,-0.408 -0.228,-0.86 C 4.98,-6.271 4.793,-6.735 4.569,-7.203 4.418,-7.529 4.186,-7.777 3.872,-7.948 3.559,-8.12 3.188,-8.205 2.757,-8.205 c -0.534,0 -0.961,0.204 -1.287,0.607 -0.326,0.407 -0.489,0.952 -0.489,1.637 0,0.602 0.098,1.409 0.289,2.418 0.196,1.01 0.473,2.154 0.831,3.425 -0.635,-0.684 -1.197,-1.454 -1.69,-2.313 -0.488,-0.859 -0.904,-1.792 -1.246,-2.793 -0.166,-0.518 -0.35,-1.149 -0.549,-1.894 -0.188,-0.724 -0.342,-1.087 -0.452,-1.087 -0.286,0 -0.726,0.212 -1.312,0.631 -0.59,0.424 -0.883,0.831 -0.883,1.23 0,0.607 0.191,2.077 0.578,4.414 0.387,2.341 0.884,4.784 1.499,7.337 0.366,1.512 0.651,2.578 0.863,3.197 0.211,0.623 0.387,0.932 0.533,0.932 0.285,0 0.701,-0.236 1.25,-0.704 C 1.242,8.364 1.515,7.952 1.515,7.602 1.515,7.199 1.376,6.263 1.091,4.797 0.81,3.335 0.448,1.735 0,0"
             id="path206"
             style="fill:#231f20;fill-opacity:1;fill-rule:nonzero;stroke:none" /></g><g
           transform="translate(183.6942,496.9057)"
           id="g208"><path
             d="M 0,0 C 0.554,0.224 1.038,0.688 1.454,1.396 1.865,2.105 2.073,2.773 2.073,3.4 l 0,0.26 0,0.253 C 1.604,3.62 1.189,3.135 0.835,2.464 0.477,1.791 0.2,0.969 0,0 m -0.142,-2.052 c 0.15,-0.029 0.305,-0.053 0.464,-0.07 0.159,-0.016 0.322,-0.024 0.489,-0.024 0.659,0 1.339,0.187 2.044,0.562 0.704,0.371 1.062,0.558 1.078,0.558 0.058,0 0.098,-0.033 0.127,-0.094 0.028,-0.065 0.041,-0.159 0.041,-0.277 0,-0.277 -0.094,-0.696 -0.281,-1.25 C 3.632,-3.204 3.437,-3.62 3.23,-3.889 2.92,-4.28 2.452,-4.601 1.824,-4.862 1.193,-5.118 0.546,-5.249 -0.122,-5.249 c -0.977,0 -1.747,0.326 -2.309,0.973 -0.558,0.648 -0.839,1.535 -0.839,2.668 0,0.92 0.204,1.93 0.607,3.021 0.407,1.095 0.953,2.097 1.637,3.013 0.493,0.652 1.002,1.157 1.531,1.515 0.529,0.358 1.034,0.537 1.523,0.537 0.676,0 1.279,-0.269 1.812,-0.81 C 4.373,5.127 4.638,4.483 4.638,3.734 4.638,2.464 4.195,1.372 3.302,0.464 2.411,-0.44 1.263,-0.94 -0.142,-1.026 c -0.009,-0.033 -0.013,-0.069 -0.013,-0.106 -0.024,-0.175 -0.036,-0.301 -0.036,-0.383 0,-0.073 0.012,-0.22 0.036,-0.439 0.009,-0.041 0.013,-0.074 0.013,-0.098"
             id="path210"
             style="fill:#231f20;fill-opacity:1;fill-rule:nonzero;stroke:none" /></g><g
           transform="translate(201.778,506.7312)"
           id="g212"><path
             d="m 0,0 c 0.602,0.851 1.25,1.506 1.942,1.959 0.692,0.451 1.397,0.68 2.113,0.68 0.884,0 1.605,-0.314 2.163,-0.937 0.561,-0.623 0.843,-1.429 0.843,-2.415 0,-0.916 -0.249,-1.767 -0.742,-2.565 -0.492,-0.794 -1.201,-1.478 -2.121,-2.048 0.558,-0.35 0.985,-0.851 1.291,-1.507 0.301,-0.651 0.452,-1.413 0.452,-2.288 0,-1.568 -0.497,-2.981 -1.491,-4.243 -0.993,-1.258 -2.072,-1.889 -3.233,-1.889 -0.884,0 -1.665,0.386 -2.345,1.156 -0.68,0.774 -1.022,1.641 -1.022,2.614 0,0.485 0.122,0.953 0.358,1.413 0.24,0.456 0.469,0.684 0.693,0.684 0.158,0 0.301,-0.175 0.431,-0.525 0.061,-0.167 0.114,-0.293 0.155,-0.379 0.22,-0.464 0.554,-0.835 1.001,-1.115 0.444,-0.282 0.925,-0.424 1.442,-0.424 0.114,0 0.2,0 0.269,0.004 0.069,0.004 0.13,0.012 0.183,0.02 0.089,0.335 0.154,0.636 0.192,0.905 0.04,0.272 0.06,0.521 0.06,0.752 0,0.652 -0.105,1.194 -0.322,1.629 -0.215,0.432 -0.521,0.729 -0.92,0.888 -0.26,-0.134 -0.48,-0.232 -0.659,-0.293 -0.18,-0.057 -0.338,-0.09 -0.472,-0.09 -0.286,0 -0.501,0.069 -0.64,0.208 -0.138,0.142 -0.208,0.354 -0.208,0.639 0,0.916 0.163,1.58 0.485,1.996 0.322,0.411 0.843,0.619 1.568,0.619 0.126,0 0.228,0 0.297,-0.005 0.073,-0.004 0.134,-0.007 0.191,-0.007 0.595,0.549 1.08,1.164 1.45,1.848 0.371,0.684 0.554,1.266 0.554,1.751 0,0.224 -0.057,0.395 -0.167,0.513 -0.11,0.118 -0.269,0.179 -0.477,0.179 -0.692,0 -1.592,-0.786 -2.703,-2.354 -1.108,-1.571 -1.995,-3.497 -2.663,-5.782 -0.416,-1.412 -0.721,-2.886 -0.913,-4.418 -0.195,-1.531 -0.398,-2.296 -0.602,-2.296 -0.123,0 -0.298,0.085 -0.534,0.256 -0.232,0.171 -0.643,0.526 -1.234,1.055 -0.231,0.216 -0.399,0.452 -0.5,0.713 -0.102,0.256 -0.155,0.594 -0.155,1.005 0,1.511 0.228,3.417 0.684,5.709 0.46,2.293 1.087,4.597 1.881,6.914 0.244,0.713 0.469,1.255 0.66,1.613 0.195,0.362 0.371,0.546 0.521,0.546 0.342,0 0.811,-0.208 1.401,-0.615 C -0.249,1.661 0.045,1.23 0.045,0.778 0.045,0.688 0.041,0.59 0.032,0.485 0.024,0.379 0.016,0.216 0,0"
             id="path214"
             style="fill:#231f20;fill-opacity:1;fill-rule:nonzero;stroke:none" /></g><g
           transform="translate(214.7267,495.5088)"
           id="g216"><path
             d="m 0,0 c -0.863,-1.226 -1.584,-2.142 -2.158,-2.749 -0.57,-0.61 -1.01,-0.911 -1.311,-0.911 -0.294,0 -0.68,0.187 -1.153,0.557 -0.472,0.375 -0.708,0.742 -0.708,1.1 0,0.692 0.122,1.751 0.362,3.172 0.245,1.425 0.57,2.874 0.986,4.357 0.248,0.895 0.448,1.498 0.602,1.8 0.155,0.301 0.326,0.452 0.517,0.452 0.416,0 0.876,-0.196 1.385,-0.591 0.509,-0.391 0.765,-0.822 0.765,-1.295 0,-0.317 -0.089,-0.847 -0.265,-1.584 -0.175,-0.741 -0.582,-2.223 -1.229,-4.45 0.607,0.541 1.161,1.234 1.661,2.076 0.501,0.843 1.055,2.048 1.67,3.612 C 1.226,5.811 1.352,6.157 1.503,6.585 1.8,7.411 2.044,7.826 2.244,7.826 2.5,7.826 2.871,7.619 3.363,7.199 3.856,6.784 4.104,6.389 4.104,6.015 4.104,5.705 3.982,4.947 3.734,3.742 3.49,2.537 3.172,1.193 2.781,-0.285 c 0.033,-0.008 0.065,-0.012 0.102,-0.016 0.036,-0.004 0.085,-0.008 0.146,-0.008 0.106,0 0.229,0.016 0.367,0.048 0.138,0.033 0.228,0.049 0.269,0.049 0.118,0 0.207,-0.02 0.273,-0.056 0.065,-0.033 0.093,-0.086 0.093,-0.147 0,-0.232 -0.114,-0.591 -0.35,-1.075 C 3.445,-1.975 3.148,-2.471 2.781,-2.98 2.59,-3.245 2.378,-3.433 2.142,-3.543 1.91,-3.653 1.608,-3.709 1.242,-3.709 c -0.55,0 -0.969,0.118 -1.267,0.35 -0.293,0.236 -0.439,0.57 -0.439,0.998 0,0.276 0.036,0.61 0.114,0.989 C -0.277,-0.989 -0.159,-0.533 0,0"
             id="path218"
             style="fill:#231f20;fill-opacity:1;fill-rule:nonzero;stroke:none" /></g><g
           transform="translate(223.0333,494.8533)"
           id="g220"><path
             d="m 0,0 c -0.619,1.36 -1.059,2.431 -1.319,3.209 -0.257,0.778 -0.387,1.413 -0.387,1.897 0,0.977 0.236,1.771 0.704,2.383 0.468,0.614 1.083,0.92 1.837,0.92 0.399,0 0.822,-0.078 1.27,-0.228 C 2.557,8.03 2.911,7.851 3.176,7.647 3.335,7.517 3.445,7.314 3.514,7.032 3.583,6.747 3.616,6.369 3.616,5.892 3.616,5.306 3.591,4.903 3.539,4.683 3.485,4.463 3.392,4.353 3.258,4.353 3.131,4.353 2.883,4.503 2.52,4.801 2.154,5.098 1.779,5.31 1.396,5.428 1.987,4.092 2.398,3.022 2.634,2.211 2.866,1.405 2.985,0.684 2.985,0.045 c 0,-1.002 -0.269,-1.78 -0.811,-2.338 -0.541,-0.557 -1.299,-0.834 -2.268,-0.834 -0.566,0 -1.001,0.044 -1.307,0.138 -0.305,0.09 -0.546,0.249 -0.721,0.469 -0.215,0.28 -0.399,0.692 -0.549,1.237 -0.151,0.546 -0.228,1.063 -0.228,1.556 0,0.138 0.02,0.24 0.065,0.317 0.045,0.078 0.11,0.114 0.195,0.114 0.049,0 0.326,-0.121 0.831,-0.366 0.505,-0.24 1.006,-0.362 1.498,-0.362 0.025,0 0.073,0.004 0.143,0.012 C -0.094,-0.004 -0.041,0 0,0"
             id="path222"
             style="fill:#231f20;fill-opacity:1;fill-rule:nonzero;stroke:none" /></g><g
           transform="translate(233.3028,495.5088)"
           id="g224"><path
             d="m 0,0 c -0.863,-1.226 -1.584,-2.142 -2.158,-2.749 -0.57,-0.61 -1.01,-0.911 -1.311,-0.911 -0.294,0 -0.68,0.187 -1.153,0.557 -0.472,0.375 -0.708,0.742 -0.708,1.1 0,0.692 0.122,1.751 0.362,3.172 0.245,1.425 0.57,2.874 0.986,4.357 0.248,0.895 0.448,1.498 0.602,1.8 0.155,0.301 0.326,0.452 0.517,0.452 0.416,0 0.876,-0.196 1.385,-0.591 0.509,-0.391 0.765,-0.822 0.765,-1.295 0,-0.317 -0.089,-0.847 -0.265,-1.584 -0.175,-0.741 -0.582,-2.223 -1.229,-4.45 0.607,0.541 1.161,1.234 1.661,2.076 0.501,0.843 1.055,2.048 1.67,3.612 C 1.226,5.811 1.352,6.157 1.503,6.585 1.8,7.411 2.044,7.826 2.244,7.826 2.5,7.826 2.87,7.619 3.363,7.199 3.856,6.784 4.104,6.389 4.104,6.015 4.104,5.705 3.982,4.947 3.734,3.742 3.49,2.537 3.172,1.193 2.781,-0.285 c 0.033,-0.008 0.065,-0.012 0.102,-0.016 0.036,-0.004 0.086,-0.008 0.146,-0.008 0.106,0 0.229,0.016 0.367,0.048 0.138,0.033 0.228,0.049 0.269,0.049 0.118,0 0.208,-0.02 0.273,-0.056 0.065,-0.033 0.093,-0.086 0.093,-0.147 0,-0.232 -0.114,-0.591 -0.35,-1.075 C 3.445,-1.975 3.148,-2.471 2.781,-2.98 2.59,-3.245 2.378,-3.433 2.142,-3.543 1.91,-3.653 1.609,-3.709 1.242,-3.709 c -0.55,0 -0.969,0.118 -1.266,0.35 -0.294,0.236 -0.44,0.57 -0.44,0.998 0,0.276 0.036,0.61 0.114,0.989 C -0.277,-0.989 -0.159,-0.533 0,0"
             id="path226"
             style="fill:#231f20;fill-opacity:1;fill-rule:nonzero;stroke:none" /></g><g
           transform="translate(245.669,499.8861)"
           id="g228"><path
             d="m 0,0 c -0.884,-0.826 -1.645,-1.714 -2.28,-2.659 -0.635,-0.949 -1.144,-1.959 -1.527,-3.029 -0.143,-0.391 -0.29,-0.884 -0.44,-1.478 -0.151,-0.615 -0.293,-0.921 -0.42,-0.921 -0.061,0 -0.223,0.077 -0.488,0.232 -0.261,0.155 -0.566,0.359 -0.908,0.603 -0.269,0.208 -0.464,0.399 -0.59,0.574 -0.123,0.175 -0.184,0.35 -0.184,0.525 0,0.477 0.114,1.324 0.346,2.545 0.233,1.222 0.538,2.497 0.92,3.824 0.355,1.23 0.628,2.052 0.811,2.463 0.183,0.408 0.354,0.615 0.513,0.615 0.375,0 0.823,-0.175 1.352,-0.525 0.529,-0.35 0.794,-0.721 0.794,-1.111 0,-0.168 -0.029,-0.395 -0.082,-0.685 -0.056,-0.293 -0.158,-0.716 -0.313,-1.27 1.026,1.36 1.829,2.313 2.406,2.854 0.575,0.546 1.055,0.819 1.438,0.819 0.102,0 0.273,-0.049 0.513,-0.143 C 2.097,3.136 2.342,3.013 2.586,2.863 2.818,2.72 2.973,2.582 3.054,2.447 3.132,2.309 3.172,2.097 3.172,1.8 3.172,1.181 3.038,0.31 2.773,-0.819 2.504,-1.942 2.125,-3.192 1.633,-4.569 l 0.106,0 c 0.183,0 0.391,0.025 0.623,0.074 0.228,0.045 0.375,0.069 0.427,0.069 0.098,0 0.159,-0.012 0.192,-0.041 0.032,-0.028 0.048,-0.085 0.048,-0.175 0,-0.151 -0.061,-0.35 -0.178,-0.598 C 2.732,-5.493 2.455,-5.961 2.028,-6.645 1.669,-7.223 1.405,-7.611 1.238,-7.802 1.071,-7.993 0.92,-8.087 0.786,-8.087 c -0.126,0 -0.378,0.077 -0.757,0.232 -0.379,0.155 -0.738,0.351 -1.079,0.579 -0.233,0.142 -0.408,0.338 -0.526,0.586 -0.118,0.244 -0.179,0.537 -0.179,0.871 0,0.554 0.155,1.356 0.464,2.403 C -0.981,-2.37 -0.55,-1.234 0,0"
             id="path230"
             style="fill:#231f20;fill-opacity:1;fill-rule:nonzero;stroke:none" /></g><g
           transform="translate(251.5366,498.7419)"
           id="g232"><path
             d="m 0,0 c -0.366,0.192 -0.619,0.415 -0.753,0.668 -0.134,0.256 -0.204,0.757 -0.204,1.503 l 0,0.166 c 0,0.456 0.021,0.75 0.061,0.88 0.041,0.13 0.106,0.195 0.204,0.195 0.102,0 0.31,-0.049 0.619,-0.146 0.309,-0.102 0.541,-0.171 0.692,-0.212 0.444,2.545 0.823,4.353 1.128,5.424 0.305,1.071 0.602,1.604 0.887,1.604 0.351,0 0.783,-0.175 1.292,-0.529 C 4.435,9.199 4.687,8.812 4.687,8.4 4.687,7.908 4.618,7.094 4.479,5.961 4.341,4.826 4.149,3.596 3.913,2.268 4.031,2.244 4.198,2.216 4.414,2.183 4.952,2.097 5.225,1.938 5.225,1.706 5.225,1.491 5.106,1.112 4.866,0.562 4.756,0.298 4.671,0.098 4.613,-0.045 L 4.593,-0.118 C 4.41,-0.595 4.137,-0.835 3.779,-0.835 c -0.053,0 -0.114,0.004 -0.18,0.009 C 3.539,-0.822 3.466,-0.818 3.388,-0.81 3.347,-1.05 3.282,-1.396 3.197,-1.849 2.562,-5.244 2.057,-6.943 1.682,-6.943 c -0.151,0 -0.354,0.049 -0.603,0.151 -0.252,0.098 -0.545,0.244 -0.888,0.436 -0.207,0.118 -0.358,0.264 -0.447,0.436 -0.094,0.171 -0.139,0.415 -0.139,0.732 0,0.367 0.037,1.019 0.106,1.963 C -0.216,-2.284 -0.122,-1.209 0,0"
             id="path234"
             style="fill:#231f20;fill-opacity:1;fill-rule:nonzero;stroke:none" /></g><g
           transform="translate(260.6415,496.9057)"
           id="g236"><path
             d="M 0,0 C 0.554,0.224 1.038,0.688 1.454,1.396 1.865,2.105 2.073,2.773 2.073,3.4 l 0,0.26 0,0.253 C 1.604,3.62 1.189,3.135 0.835,2.464 0.477,1.791 0.2,0.969 0,0 m -0.142,-2.052 c 0.15,-0.029 0.305,-0.053 0.464,-0.07 0.159,-0.016 0.322,-0.024 0.489,-0.024 0.659,0 1.339,0.187 2.044,0.562 0.704,0.371 1.062,0.558 1.078,0.558 0.058,0 0.098,-0.033 0.127,-0.094 0.028,-0.065 0.041,-0.159 0.041,-0.277 0,-0.277 -0.094,-0.696 -0.281,-1.25 C 3.632,-3.204 3.437,-3.62 3.229,-3.889 2.92,-4.28 2.452,-4.601 1.824,-4.862 1.193,-5.118 0.546,-5.249 -0.122,-5.249 c -0.977,0 -1.747,0.326 -2.309,0.973 -0.558,0.648 -0.839,1.535 -0.839,2.668 0,0.92 0.204,1.93 0.607,3.021 0.407,1.095 0.953,2.097 1.637,3.013 0.493,0.652 1.001,1.157 1.531,1.515 0.529,0.358 1.034,0.537 1.523,0.537 0.676,0 1.279,-0.269 1.812,-0.81 C 4.373,5.127 4.638,4.483 4.638,3.734 4.638,2.464 4.194,1.372 3.302,0.464 2.411,-0.44 1.263,-0.94 -0.142,-1.026 c -0.009,-0.033 -0.013,-0.069 -0.013,-0.106 -0.024,-0.175 -0.036,-0.301 -0.036,-0.383 0,-0.073 0.012,-0.22 0.036,-0.439 0.009,-0.041 0.013,-0.074 0.013,-0.098"
             id="path238"
             style="fill:#231f20;fill-opacity:1;fill-rule:nonzero;stroke:none" /></g><g
           transform="translate(270.1497,502.012)"
           id="g240"><path
             d="m 0,0 c 0.159,0.476 0.31,0.835 0.452,1.079 0.143,0.24 0.277,0.362 0.407,0.362 0.228,0 0.591,-0.244 1.079,-0.729 0.489,-0.484 0.733,-0.891 0.733,-1.225 0,-0.139 -0.049,-0.343 -0.151,-0.623 -0.097,-0.277 -0.285,-0.729 -0.566,-1.36 0.082,0.032 0.164,0.057 0.245,0.073 0.085,0.016 0.175,0.025 0.269,0.025 0.048,0 0.085,-0.021 0.11,-0.062 0.02,-0.04 0.032,-0.097 0.032,-0.179 0,-0.484 -0.139,-0.981 -0.424,-1.49 -0.28,-0.509 -0.602,-0.762 -0.96,-0.762 -0.176,0 -0.355,0.041 -0.546,0.122 -0.191,0.086 -0.411,0.212 -0.655,0.387 -0.367,-1.245 -0.68,-2.544 -0.937,-3.888 -0.261,-1.344 -0.444,-2.016 -0.558,-2.016 -0.102,0 -0.293,0.082 -0.57,0.24 -0.281,0.159 -0.627,0.387 -1.038,0.693 -0.224,0.159 -0.375,0.301 -0.448,0.427 -0.078,0.126 -0.115,0.334 -0.115,0.619 0,0.44 0.078,1.173 0.229,2.203 0.15,1.03 0.354,2.162 0.606,3.392 0.318,1.592 0.55,2.618 0.693,3.074 0.142,0.456 0.285,0.684 0.431,0.684 0.151,0 0.363,-0.085 0.635,-0.256 C -0.77,0.619 -0.424,0.354 0,0"
             id="path242"
             style="fill:#231f20;fill-opacity:1;fill-rule:nonzero;stroke:none" /></g><g
           transform="translate(280.1707,499.8861)"
           id="g244"><path
             d="m 0,0 c -0.884,-0.826 -1.645,-1.714 -2.28,-2.659 -0.635,-0.949 -1.144,-1.959 -1.527,-3.029 -0.143,-0.391 -0.29,-0.884 -0.44,-1.478 -0.151,-0.615 -0.293,-0.921 -0.42,-0.921 -0.061,0 -0.223,0.077 -0.488,0.232 -0.261,0.155 -0.566,0.359 -0.908,0.603 -0.269,0.208 -0.464,0.399 -0.59,0.574 -0.123,0.175 -0.184,0.35 -0.184,0.525 0,0.477 0.114,1.324 0.346,2.545 0.233,1.222 0.538,2.497 0.92,3.824 0.355,1.23 0.628,2.052 0.811,2.463 0.183,0.408 0.354,0.615 0.513,0.615 0.375,0 0.823,-0.175 1.352,-0.525 0.529,-0.35 0.794,-0.721 0.794,-1.111 C -2.101,1.49 -2.13,1.263 -2.183,0.973 -2.239,0.68 -2.341,0.257 -2.496,-0.297 -1.47,1.063 -0.667,2.016 -0.09,2.557 0.485,3.103 0.965,3.376 1.348,3.376 1.45,3.376 1.62,3.327 1.861,3.233 2.097,3.136 2.342,3.013 2.586,2.863 2.818,2.72 2.973,2.582 3.054,2.447 3.132,2.309 3.172,2.097 3.172,1.8 3.172,1.181 3.038,0.31 2.773,-0.819 2.504,-1.942 2.125,-3.192 1.633,-4.569 l 0.106,0 c 0.183,0 0.391,0.025 0.623,0.074 0.228,0.045 0.375,0.069 0.427,0.069 0.098,0 0.159,-0.012 0.192,-0.041 0.032,-0.028 0.048,-0.085 0.048,-0.175 0,-0.151 -0.061,-0.35 -0.178,-0.598 C 2.732,-5.493 2.455,-5.961 2.028,-6.645 1.669,-7.223 1.405,-7.611 1.238,-7.802 1.071,-7.993 0.92,-8.087 0.786,-8.087 c -0.126,0 -0.379,0.077 -0.757,0.232 -0.379,0.155 -0.738,0.351 -1.079,0.579 -0.233,0.142 -0.408,0.338 -0.526,0.586 -0.118,0.244 -0.179,0.537 -0.179,0.871 0,0.554 0.155,1.356 0.464,2.403 C -0.981,-2.37 -0.55,-1.234 0,0"
             id="path246"
             style="fill:#231f20;fill-opacity:1;fill-rule:nonzero;stroke:none" /></g><g
           transform="translate(287.7932,496.9057)"
           id="g248"><path
             d="M 0,0 C 0.554,0.224 1.038,0.688 1.454,1.396 1.865,2.105 2.073,2.773 2.073,3.4 l 0,0.26 0,0.253 C 1.604,3.62 1.189,3.135 0.835,2.464 0.477,1.791 0.2,0.969 0,0 m -0.142,-2.052 c 0.15,-0.029 0.305,-0.053 0.464,-0.07 0.159,-0.016 0.321,-0.024 0.489,-0.024 0.659,0 1.339,0.187 2.044,0.562 0.704,0.371 1.062,0.558 1.078,0.558 0.058,0 0.098,-0.033 0.127,-0.094 0.028,-0.065 0.041,-0.159 0.041,-0.277 0,-0.277 -0.094,-0.696 -0.281,-1.25 C 3.632,-3.204 3.437,-3.62 3.229,-3.889 2.92,-4.28 2.452,-4.601 1.824,-4.862 1.193,-5.118 0.546,-5.249 -0.122,-5.249 c -0.977,0 -1.747,0.326 -2.309,0.973 -0.558,0.648 -0.839,1.535 -0.839,2.668 0,0.92 0.204,1.93 0.607,3.021 0.407,1.095 0.953,2.097 1.637,3.013 0.493,0.652 1.001,1.157 1.531,1.515 0.529,0.358 1.034,0.537 1.523,0.537 0.676,0 1.279,-0.269 1.812,-0.81 C 4.373,5.127 4.638,4.483 4.638,3.734 4.638,2.464 4.194,1.372 3.302,0.464 2.411,-0.44 1.263,-0.94 -0.142,-1.026 c -0.009,-0.033 -0.013,-0.069 -0.013,-0.106 -0.024,-0.175 -0.036,-0.301 -0.036,-0.383 0,-0.073 0.012,-0.22 0.036,-0.439 0.009,-0.041 0.013,-0.074 0.013,-0.098"
             id="path250"
             style="fill:#231f20;fill-opacity:1;fill-rule:nonzero;stroke:none" /></g><g
           transform="translate(297.6922,499.9554)"
           id="g252"><path
             d="m 0,0 c 0.798,1.083 1.503,1.942 2.118,2.573 0.619,0.631 1.054,0.949 1.306,0.949 0.098,0 0.29,-0.061 0.579,-0.183 C 4.296,3.213 4.557,3.074 4.784,2.916 5.025,2.749 5.176,2.598 5.241,2.468 5.302,2.333 5.334,2.134 5.334,1.865 5.334,1.14 5.228,0.179 5.017,-1.022 4.809,-2.223 4.516,-3.555 4.141,-5.008 c 0.183,0.007 0.379,0.044 0.591,0.105 0.211,0.066 0.337,0.098 0.374,0.098 0.09,0 0.151,-0.012 0.192,-0.037 0.04,-0.024 0.061,-0.065 0.061,-0.117 0,-0.123 -0.078,-0.408 -0.228,-0.86 C 4.98,-6.271 4.793,-6.735 4.569,-7.203 4.418,-7.529 4.186,-7.777 3.872,-7.948 3.559,-8.12 3.188,-8.205 2.757,-8.205 c -0.534,0 -0.961,0.204 -1.287,0.607 -0.326,0.407 -0.489,0.952 -0.489,1.637 0,0.602 0.098,1.409 0.289,2.418 0.196,1.01 0.473,2.154 0.831,3.425 -0.635,-0.684 -1.197,-1.454 -1.69,-2.313 -0.488,-0.859 -0.904,-1.792 -1.246,-2.793 -0.166,-0.518 -0.35,-1.149 -0.549,-1.894 -0.188,-0.724 -0.342,-1.087 -0.452,-1.087 -0.286,0 -0.726,0.212 -1.312,0.631 -0.59,0.424 -0.883,0.831 -0.883,1.23 0,0.607 0.191,2.077 0.578,4.414 0.387,2.341 0.884,4.784 1.498,7.337 0.367,1.512 0.652,2.578 0.864,3.197 0.211,0.623 0.387,0.932 0.533,0.932 0.285,0 0.701,-0.236 1.25,-0.704 C 1.242,8.364 1.515,7.952 1.515,7.602 1.515,7.199 1.376,6.263 1.091,4.797 0.81,3.335 0.448,1.735 0,0"
             id="path254"
             style="fill:#231f20;fill-opacity:1;fill-rule:nonzero;stroke:none" /></g><g
           transform="translate(312.9575,498.8602)"
           id="g256"><path
             d="m 0,0 c 1.165,1.576 2.073,2.695 2.732,3.363 0.66,0.668 1.177,1.002 1.552,1.002 0.44,0 0.863,-0.151 1.279,-0.46 C 5.974,3.599 6.181,3.233 6.181,2.805 6.181,2.309 6.08,1.58 5.872,0.615 5.664,-0.35 5.322,-1.71 4.846,-3.469 l 0.191,0 c 0.127,0 0.273,0.016 0.44,0.048 0.167,0.033 0.277,0.045 0.322,0.045 0.097,0 0.159,-0.016 0.191,-0.053 0.033,-0.037 0.049,-0.105 0.049,-0.207 0,-0.127 -0.078,-0.371 -0.228,-0.729 C 5.66,-4.723 5.465,-5.106 5.229,-5.522 4.915,-6.055 4.642,-6.442 4.402,-6.678 4.166,-6.918 3.934,-7.036 3.714,-7.036 c -0.448,0 -0.921,0.207 -1.421,0.627 -0.501,0.415 -0.754,0.892 -0.754,1.425 0,0.553 0.155,1.388 0.461,2.5 0.305,1.116 0.725,2.309 1.258,3.579 -0.762,-0.692 -1.43,-1.461 -2,-2.313 -0.566,-0.851 -1.107,-1.897 -1.624,-3.135 -0.232,-0.566 -0.44,-1.164 -0.623,-1.804 -0.183,-0.635 -0.342,-0.953 -0.477,-0.953 -0.085,0 -0.248,0.065 -0.488,0.196 -0.241,0.134 -0.53,0.317 -0.872,0.558 -0.276,0.203 -0.468,0.39 -0.566,0.554 -0.102,0.162 -0.15,0.354 -0.15,0.577 0,0.579 0.179,1.491 0.533,2.729 0.354,1.242 0.827,2.569 1.425,3.986 -0.859,-0.859 -1.596,-1.783 -2.215,-2.769 -0.615,-0.985 -1.107,-2.032 -1.474,-3.147 -0.175,-0.534 -0.326,-1.104 -0.456,-1.719 -0.134,-0.61 -0.249,-0.916 -0.354,-0.916 -0.359,0 -0.835,0.208 -1.438,0.627 -0.598,0.416 -0.9,0.819 -0.9,1.209 0,0.351 0.123,1.169 0.363,2.452 0.244,1.283 0.562,2.659 0.949,4.121 0.366,1.368 0.619,2.211 0.757,2.524 0.138,0.314 0.281,0.469 0.423,0.469 0.408,0 0.851,-0.127 1.332,-0.379 0.481,-0.257 0.721,-0.533 0.721,-0.839 0,-0.167 -0.045,-0.431 -0.143,-0.79 -0.094,-0.362 -0.285,-0.985 -0.574,-1.869 0.807,1.226 1.527,2.187 2.174,2.887 0.644,0.701 1.116,1.051 1.418,1.051 0.39,0 0.798,-0.147 1.225,-0.44 C 0.648,3.665 0.859,3.339 0.859,2.98 0.859,2.63 0.684,1.963 0.334,0.977 0.192,0.562 0.082,0.236 0,0"
             id="path258"
             style="fill:#231f20;fill-opacity:1;fill-rule:nonzero;stroke:none" /></g><g
           transform="translate(323.6626,496.9057)"
           id="g260"><path
             d="M 0,0 C 0.554,0.224 1.038,0.688 1.454,1.396 1.865,2.105 2.073,2.773 2.073,3.4 l 0,0.26 0,0.253 C 1.604,3.62 1.189,3.135 0.835,2.464 0.477,1.791 0.2,0.969 0,0 m -0.142,-2.052 c 0.15,-0.029 0.305,-0.053 0.464,-0.07 0.159,-0.016 0.321,-0.024 0.489,-0.024 0.659,0 1.339,0.187 2.044,0.562 0.704,0.371 1.062,0.558 1.078,0.558 0.058,0 0.098,-0.033 0.127,-0.094 0.028,-0.065 0.041,-0.159 0.041,-0.277 0,-0.277 -0.094,-0.696 -0.281,-1.25 C 3.632,-3.204 3.437,-3.62 3.229,-3.889 2.92,-4.28 2.452,-4.601 1.824,-4.862 1.193,-5.118 0.546,-5.249 -0.122,-5.249 c -0.977,0 -1.747,0.326 -2.309,0.973 -0.558,0.648 -0.839,1.535 -0.839,2.668 0,0.92 0.204,1.93 0.607,3.021 0.407,1.095 0.953,2.097 1.637,3.013 0.493,0.652 1.001,1.157 1.531,1.515 0.529,0.358 1.034,0.537 1.523,0.537 0.676,0 1.279,-0.269 1.812,-0.81 0.533,-0.541 0.798,-1.185 0.798,-1.934 0,-1.27 -0.444,-2.362 -1.336,-3.27 -0.891,-0.904 -2.04,-1.404 -3.444,-1.49 -0.009,-0.033 -0.013,-0.069 -0.013,-0.106 -0.024,-0.175 -0.036,-0.301 -0.036,-0.383 0,-0.073 0.012,-0.22 0.036,-0.439 0.009,-0.041 0.013,-0.074 0.013,-0.098"
             id="path262"
             style="fill:#231f20;fill-opacity:1;fill-rule:nonzero;stroke:none" /></g><g
           transform="translate(336.1758,499.8861)"
           id="g264"><path
             d="m 0,0 c -0.884,-0.826 -1.645,-1.714 -2.28,-2.659 -0.635,-0.949 -1.144,-1.959 -1.527,-3.029 -0.143,-0.391 -0.29,-0.884 -0.44,-1.478 -0.151,-0.615 -0.293,-0.921 -0.42,-0.921 -0.061,0 -0.223,0.077 -0.488,0.232 -0.261,0.155 -0.566,0.359 -0.908,0.603 -0.269,0.208 -0.464,0.399 -0.59,0.574 -0.123,0.175 -0.184,0.35 -0.184,0.525 0,0.477 0.114,1.324 0.346,2.545 0.233,1.222 0.538,2.497 0.92,3.824 0.355,1.23 0.628,2.052 0.811,2.463 0.183,0.408 0.354,0.615 0.513,0.615 0.375,0 0.823,-0.175 1.352,-0.525 0.529,-0.35 0.794,-0.721 0.794,-1.111 C -2.101,1.49 -2.13,1.263 -2.183,0.973 -2.24,0.68 -2.341,0.257 -2.496,-0.297 -1.47,1.063 -0.667,2.016 -0.09,2.557 0.485,3.103 0.965,3.376 1.348,3.376 1.45,3.376 1.62,3.327 1.861,3.233 2.097,3.136 2.342,3.013 2.586,2.863 2.818,2.72 2.973,2.582 3.054,2.447 3.132,2.309 3.172,2.097 3.172,1.8 3.172,1.181 3.038,0.31 2.773,-0.819 2.504,-1.942 2.125,-3.192 1.633,-4.569 l 0.106,0 c 0.183,0 0.391,0.025 0.623,0.074 0.228,0.045 0.375,0.069 0.427,0.069 0.098,0 0.159,-0.012 0.192,-0.041 0.032,-0.028 0.048,-0.085 0.048,-0.175 0,-0.151 -0.061,-0.35 -0.178,-0.598 C 2.732,-5.493 2.455,-5.961 2.028,-6.645 1.669,-7.223 1.405,-7.611 1.238,-7.802 1.071,-7.993 0.92,-8.087 0.786,-8.087 c -0.126,0 -0.379,0.077 -0.757,0.232 -0.379,0.155 -0.738,0.351 -1.079,0.579 -0.233,0.142 -0.408,0.338 -0.526,0.586 -0.118,0.244 -0.179,0.537 -0.179,0.871 0,0.554 0.155,1.356 0.464,2.403 C -0.981,-2.37 -0.55,-1.234 0,0"
             id="path266"
             style="fill:#231f20;fill-opacity:1;fill-rule:nonzero;stroke:none" /></g><g
           transform="translate(342.2346,491.6811)"
           id="g268"><path
             d="m 0,0 c -0.399,0 -0.721,0.134 -0.973,0.399 -0.248,0.269 -0.374,0.623 -0.374,1.071 0,0.484 0.146,0.88 0.439,1.193 0.297,0.31 0.672,0.464 1.136,0.464 0.359,0 0.66,-0.134 0.913,-0.407 C 1.389,2.452 1.515,2.122 1.515,1.731 1.515,1.222 1.372,0.807 1.092,0.485 0.811,0.163 0.444,0 0,0"
             id="path270"
             style="fill:#231f20;fill-opacity:1;fill-rule:nonzero;stroke:none" /></g></g></g></g></svg>