<?xml version="1.0" encoding="UTF-8" standalone="no"?> 
<svg xmlns="http://www.w3.org/2000/svg" x="0" y="0" width="30" height="60"  >
<g id="staff" >
<rect x="-10" y="16" width="44" height="1" fill="#000000" />
<rect x="-10" y="22" width="44" height="1" fill="#000000" />
<rect x="-10" y="28" width="44" height="1" fill="#000000" />
<rect x="-10" y="34" width="44" height="1" fill="#000000" />
<rect x="-10" y="40" width="44" height="1" fill="#000000" />
</g>
<g transform="translate(10,0)" fill="#000000">
<g id="note" fill="#000000" transform="translate(-170,-496)" >
<path d="M 183.32825,537.99494 C 183.25004,538.79049 182.64569,539.39862 182.13138,539.95603 C 180.97913,541.06357 179.56711,541.94914 178.01121,542.32187 C 177.55025,542.40218 176.80690,542.47930 176.67383,541.87610 C 176.54514,541.23787 177.02374,540.67784 177.38470,540.20578 C 178.32107,539.11438 179.54806,538.29916 180.84608,537.71532 C 181.52160,537.46034 182.30762,537.13863 183.01565,537.44746 C 183.20917,537.55686 183.34251,537.76645 183.32825,537.99494 z M 181.39173,536.34800 C 179.63336,536.36064 177.96477,537.33707 176.88097,538.70616 C 176.15644,539.64489 175.67538,541.00514 176.26344,542.13082 C 176.70654,543.03586 177.76412,543.39482 178.70619,543.34316 C 180.33110,543.30889 181.83790,542.40806 182.91461,541.21868 C 183.71165,540.30383 184.29905,538.98012 183.83740,537.77066 C 183.50354,536.89010 182.58732,536.37839 181.68335,536.35743 C 181.58628,536.35097 181.48896,536.34796 181.39173,536.34800 z " fill="#000000" fill-opacity="1" />
</g>
<g id="natural" fill="none" stroke="#000000" stroke-width="1px" transform="translate(-3,35)" >
<path d="M 0,0 L 0,13 L 5,11 L 5,20 L 5,5 L 0,7" />
</g></g>
</svg>
