<?xml version="1.0" encoding="UTF-8" standalone="no"?>
<!-- Created with Inkscape (http://www.inkscape.org/) -->

<svg
   xmlns:dc="http://purl.org/dc/elements/1.1/"
   xmlns:cc="http://creativecommons.org/ns#"
   xmlns:rdf="http://www.w3.org/1999/02/22-rdf-syntax-ns#"
   xmlns:svg="http://www.w3.org/2000/svg"
   xmlns="http://www.w3.org/2000/svg"
   xmlns:sodipodi="http://sodipodi.sourceforge.net/DTD/sodipodi-0.dtd"
   xmlns:inkscape="http://www.inkscape.org/namespaces/inkscape"
   width="90.71875"
   height="68.1875"
   id="svg2"
   sodipodi:version="0.32"
   inkscape:version="0.48.2 r9819"
   version="1.0"
   sodipodi:docname="MUTCD R8-3a.svg"
   inkscape:output_extension="org.inkscape.output.svg.inkscape">
  <defs
     id="defs4">
    <inkscape:perspective
       sodipodi:type="inkscape:persp3d"
       inkscape:vp_x="0 : 300.5 : 1"
       inkscape:vp_y="0 : 1000 : 0"
       inkscape:vp_z="601 : 300.5 : 1"
       inkscape:persp3d-origin="300.5 : 200.33333 : 1"
       id="perspective3380" />
    <inkscape:perspective
       id="perspective3990"
       inkscape:persp3d-origin="375 : 250 : 1"
       inkscape:vp_z="750 : 375 : 1"
       inkscape:vp_y="0 : 1000 : 0"
       inkscape:vp_x="0 : 375 : 1"
       sodipodi:type="inkscape:persp3d" />
  </defs>
  <sodipodi:namedview
     id="base"
     pagecolor="#ffffff"
     bordercolor="#666666"
     borderopacity="1.0"
     gridtolerance="10000"
     guidetolerance="10"
     objecttolerance="10"
     inkscape:pageopacity="0.0"
     inkscape:pageshadow="2"
     inkscape:zoom="7.278486"
     inkscape:cx="34.753484"
     inkscape:cy="34.993345"
     inkscape:document-units="px"
     inkscape:current-layer="layer1"
     width="601px"
     height="601px"
     inkscape:window-width="1280"
     inkscape:window-height="1004"
     inkscape:window-x="-8"
     inkscape:window-y="-8"
     showgrid="false"
     fit-margin-top="0"
     fit-margin-left="0"
     fit-margin-right="0"
     fit-margin-bottom="0"
     inkscape:window-maximized="1" />
  <metadata
     id="metadata7">
    <rdf:RDF>
      <cc:Work
         rdf:about="">
        <dc:format>image/svg+xml</dc:format>
        <dc:type
           rdf:resource="http://purl.org/dc/dcmitype/StillImage" />
        <dc:title></dc:title>
      </cc:Work>
    </rdf:RDF>
  </metadata>
  <g
     inkscape:label="Layer 1"
     inkscape:groupmode="layer"
     id="layer1"
     transform="translate(-1053.4375,3281.9688)">
    <rect
       style="color:#000000;fill:#000000;fill-opacity:1;fill-rule:nonzero;stroke:none;stroke-width:0.8735441;marker:none;visibility:visible;display:inline;overflow:visible"
       id="rect3653"
       width="0"
       height="27.202072"
       x="578.73834"
       y="298.1684"
       rx="249.48199"
       ry="27.202072" />
    <path
       inkscape:connector-curvature="0"
       d="m 1053.793,-3219.7593 0,-56.2488 c 0,-3.0988 2.5262,-5.625 5.625,-5.625 l 78.7488,0 c 3.0987,0 5.625,2.5262 5.625,5.625 l 0,56.2488 c 0,3.0987 -2.5263,5.625 -5.625,5.625 l -78.7488,0 c -3.0588,0 -5.625,-2.565 -5.625,-5.625"
       style="fill:#ffffff;fill-opacity:1;fill-rule:nonzero;stroke:#000000;stroke-width:0.69999999;stroke-miterlimit:4;stroke-opacity:1;stroke-dasharray:none"
       id="path3513" />
    <path
       inkscape:connector-curvature="0"
       style="fill:#bf2519;fill-opacity:1;fill-rule:evenodd;stroke:none"
       d="m 1059.4375,-3280.2188 c -2.315,0.01 -4.2463,1.9012 -4.25,4.2187 l 0,56.2188 c 0,2.3138 1.935,4.2475 4.25,4.25 l 78.7188,0 c 2.32,-0.01 4.2112,-1.9362 4.2187,-4.25 l 0,-56.2188 c -0.01,-2.3175 -1.8987,-4.21 -4.2187,-4.2187 l -78.7188,0 z m 0.031,2.3437 78.6563,0 c 1.055,-0.019 1.9263,0.85 1.9063,1.9063 l 0,56.1562 c 0.02,1.0575 -0.8513,1.9525 -1.9063,1.9375 l -78.6563,0 c -1.0587,0.015 -1.9537,-0.88 -1.9375,-1.9375 l 0,-56.1562 c -0.016,-1.0563 0.88,-1.925 1.9375,-1.9063 z"
       id="path3537" />
    <path
       inkscape:connector-curvature="0"
       d="m 1107.1756,-3251.6907 0,-10.3062 -1.6287,0 0,6.5825 -3.7625,-6.5825 -1.6275,0 0,10.3062 1.6275,0 0,-6.9787 3.9437,6.9787 1.4475,0 z m -10.8912,-5.135 c 0,0.7963 -0.18,1.8088 -0.3975,2.3513 -0.3613,0.9037 -0.8325,1.3012 -1.5925,1.3012 -0.6513,0 -1.0863,-0.2525 -1.4113,-0.795 -0.3975,-0.65 -0.615,-1.7725 -0.615,-2.8575 0,-0.8675 0.1438,-1.8075 0.3975,-2.4225 0.3625,-0.9037 0.8675,-1.3025 1.6638,-1.265 0.615,0.035 1.0125,0.2525 1.34,0.795 0.3975,0.6875 0.615,1.7363 0.615,2.8925 m 1.6287,0 c 0,-1.3012 -0.2537,-2.6037 -0.6887,-3.5075 -0.6513,-1.265 -1.555,-1.8437 -2.8588,-1.8437 -1.1937,0 -2.0262,0.3612 -2.6412,1.1562 -0.6863,0.9775 -1.1213,2.4963 -1.1213,4.195 0,1.23 0.2888,2.6038 0.7225,3.4713 0.615,1.2662 1.5213,1.8512 2.9688,1.8512 1.085,0 1.9162,-0.3675 2.495,-1.1637 0.725,-0.9038 1.1237,-2.5313 1.1237,-4.1588"
       style="fill:#bf2519;fill-opacity:1;fill-rule:evenodd;stroke:none"
       id="path3545" />
    <path
       inkscape:connector-curvature="0"
       d="m 1132.7689,-3242.6657 0,-1.4461 -6.3675,0 0,1.4461 2.3512,0 0,8.8601 1.6288,0 0,-8.8601 2.3875,0 z m -7.8888,8.8601 0,-10.3062 -1.6275,0 0,6.5812 -3.7625,-6.5812 -1.6287,0 0,10.3062 1.6287,0 0,-6.98 3.9425,6.98 1.4475,0 z m -8.72,0 0,-1.6637 -4.775,0 0,-2.8201 3.0025,0 0,-1.6637 -3.0025,0 0,-2.5312 4.45,0 0,-1.6275 -6.0787,0 0,10.3062 6.4037,0 z m -8.865,0 0,-10.3062 -1.6287,0 -2.3875,5.7862 -2.3875,-5.7862 -1.6288,0 0,10.3062 1.6288,0 0,-5.9662 2.3875,5.9662 2.3875,-5.9662 0,5.9662 1.6287,0 z m -9.7337,0 0,-1.6637 -4.775,0 0,-2.8201 3.0025,0 0,-1.6637 -3.0025,0 0,-2.5312 4.45,0 0,-1.6275 -6.0788,0 0,10.3062 6.4038,0 z m -7.925,-10.3062 -1.7363,0 -2.17,6.8712 -2.2062,-6.8712 -1.7025,0 3.2575,10.3062 1.2662,0 3.2913,-10.3062 z m -11.7938,5.7487 -2.0637,0 1.05,-2.8925 1.0137,2.8925 z m 3.3275,4.5575 -3.545,-10.3062 -1.6287,0 -3.5475,10.3062 1.7387,0 1.0125,-2.8925 3.22,0 1.0138,2.8925 1.7362,0 z m -10.9987,-7.4137 c 0,0.4337 -0.2538,0.905 -0.615,1.085 -0.2913,0.145 -0.4713,0.1812 -0.9775,0.1812 l -2.1363,0 0,-2.5312 2.1363,0 c 0.5062,0 0.6862,0.036 0.9775,0.18 0.3612,0.2175 0.615,0.6511 0.615,1.085 m 1.665,0 c 0,-1.0488 -0.6888,-2.1339 -1.5938,-2.5676 -0.5062,-0.2538 -1.0475,-0.3249 -1.88,-0.3249 l -3.5475,0 0,10.3062 1.6275,0 0,-4.4838 1.92,0 c 0.795,0 1.4113,-0.145 1.88,-0.3625 0.905,-0.3975 1.5938,-1.4825 1.5938,-2.5675"
       style="fill:#bf2519;fill-opacity:1;fill-rule:evenodd;stroke:none"
       id="path3549" />
  </g>
</svg>
