<svg xmlns="http://www.w3.org/2000/svg" width="81.702" height="81.703" viewBox="0 0 230.583 230.583">
    <path d="M3.297 107.288 107.292 3.299c4.396-4.399 11.596-4.399 15.999 0l103.984 103.989c4.41 4.402 4.41 11.603 0 16.002L123.291 227.282c-4.403 4.402-11.603 4.402-15.999 0L3.297 123.29c-4.396-4.4-4.396-11.6 0-16.002" style="fill:#fcd116;fill-opacity:1;fill-rule:nonzero;stroke:none"/>
    <path d="M5.805 108.942 108.943 5.808c3.49-3.49 9.2-3.49 12.693 0l103.131 103.134c3.496 3.493 3.496 9.204 0 12.69L121.636 224.773c-3.492 3.486-9.204 3.486-12.693 0L5.805 121.632c-3.485-3.486-3.485-9.197 0-12.69" style="fill:#000;fill-opacity:1;fill-rule:evenodd;stroke:none"/>
    <path d="M9.03 112.12 112.121 9.033c1.742-1.743 4.593-1.743 6.346 0L221.55 112.121c1.742 1.739 1.742 4.593 0 6.343L118.468 221.552c-1.753 1.74-4.604 1.74-6.346 0L9.029 118.464c-1.735-1.75-1.735-4.604 0-6.343" style="fill:#fcd116;fill-opacity:1;fill-rule:evenodd;stroke:none"/>
    <path d="M158.967 79.21v-4.265h-13.141V50.85h-4.381v28.36h17.522zm-21.671 0v-4.265H124.15V50.85h-4.498v28.36h17.643zM113.2 50.85h-4.614v28.36h4.614V50.85zm-11.183 28.36V50.85H97.52v11.41H87.145V50.85H82.76v28.36h4.385V66.873H97.52V79.21h4.498zM184.102 120.827c0-11.183-13.257-7.606-13.606-12.911-.23-2.537 2.198-3.345 4.265-3.228 3.231 0 4.272 2.42 4.272 2.42l3.92-1.15c-1.387-3.458-4.04-5.768-8.076-5.768-5.073 0-8.76 2.074-8.76 7.61 0 4.61 3.687 6.339 5.42 7.034 3.69 1.495 8.075 2.074 8.075 5.88 0 2.42-1.849 4.15-4.385 4.15-2.653-.001-4.844-1.5-6.11-4.15l-4.266 1.613c1.958 4.268 5.532 7.147 10.376 7.147 2.303 0 4.494-.804 6.106-2.19 1.845-1.613 2.77-3.92 2.77-6.457m-22.021 8.072-9.338-17.18 8.76-11.067h-5.761l-8.883 11.183v-11.183h-4.491v28.247h4.49v-9.684l3.006-3.69 7.144 13.374h5.073zm-25.823-5.765-4.265-1.502c-1.154 2.19-2.537 3.231-4.385 3.231-1.955 0-3.225-.691-4.266-2.19-1.15-1.73-1.845-4.844-1.845-7.96 0-2.303.463-4.84 1.158-6.568 1.033-2.42 2.42-3.457 4.727-3.457 2.19 0 3.108.691 4.727 2.995l4.149-1.725c-1.958-4.04-4.611-5.768-8.876-5.768-3.115 0-5.532 1.037-7.264 3.115-1.961 2.536-3.111 7.03-3.111 11.409 0 3.577.804 7.154 2.07 9.69 1.733 3.458 4.502 5.07 8.65 5.07 4.03 0 6.799-2.074 8.53-6.34m-29.167-8.3c0 2.19-.462 4.956-1.04 6.455-1.034 2.533-2.3 3.574-4.382 3.574-1.842 0-2.999-.691-3.92-2.19-1.033-1.73-1.615-4.844-1.615-7.84 0-2.423.352-4.96 1.04-6.688 1.041-2.42 2.42-3.457 4.611-3.457 1.612.116 2.77.691 3.577 2.19 1.15 1.958 1.729 4.84 1.729 7.956m4.49 0c0-3.574-.687-7.151-1.954-9.571-1.732-3.461-4.265-5.073-7.842-5.073-3.224 0-5.531.924-7.144 3.115-1.965 2.766-3.115 6.918-3.115 11.529 0 3.34.805 7.147 1.958 9.57 1.729 3.458 4.153 5.07 8.185 5.07 2.886 0 5.19-1.04 6.808-3.228 1.955-2.424 3.105-6.918 3.105-11.412m-23.633 14.065v-4.152H74.812v-24.095h-4.385v28.247h17.522zm-26.747-7.842c0 2.19-1.267 3.347-3.45 3.347h-6.81v-7.725h5.652c1.038 0 1.267 0 1.845.112 1.613.576 2.763 2.424 2.763 4.266m-.572-13.025c0 1.266-.695 2.417-1.612 3.228-.811.575-1.386.804-2.653.804h-5.422v-6.914h6.572c1.958 0 3.115.92 3.115 2.882m5.073 12.912c0-2.999-1.612-5.419-4.61-6.805 2.645-1.496 3.919-3.57 3.919-6.34 0-4.032-3.348-7.147-7.84-7.147h-10.72v28.247h10.72c1.267 0 2.996-.23 4.03-.692 2.653-1.037 4.501-4.152 4.501-7.263M155.743 150.457h-4.498l-2.188 14.873-3.69-14.873h-4.385l-3.573 14.873-2.191-14.873h-4.61l4.264 28.13h3.92l4.381-17.984 4.495 17.985h3.926l4.149-28.13zm-27.21 28.13v-4.497h-13.028v-7.723h8.075v-4.494h-8.075v-6.918h12.104v-4.498H111.01v28.13h17.523zm-24.095-28.13h-4.61v28.13h4.61v-28.13zm-8.756 0h-4.734l-5.994 18.789-5.997-18.789h-4.724l8.989 28.13h3.46l9-28.13z" style="fill:#000;fill-opacity:1;fill-rule:evenodd;stroke:none"/>
</svg>
