<svg xmlns="http://www.w3.org/2000/svg" width="3678.575" height="3678.575" viewBox="-0.525 -0.67 3678.575 3678.575" xml:space="preserve">
    <path style="fill:#fcd116;fill-rule:nonzero;stroke:none" d="M1958.087 3628.48c-65.9 65.9-172.75 65.9-238.65 0L48.901 1957.942c-65.901-65.9-65.901-172.75 0-238.65L1719.437 48.756c65.9-65.901 172.75-65.901 238.65 0l1670.538 1670.536c65.9 65.9 65.9 172.75 0 238.65L1958.087 3628.48z"/>
    <path style="fill:#000;fill-rule:nonzero;stroke:none" d="M80.72 1926.126c-48.249-48.25-48.249-126.762 0-175.012L1751.26 80.576c48.25-48.25 126.75-48.25 175.012 0L3596.81 1751.114c48.25 48.25 48.25 126.762 0 175.012L1926.27 3596.664c-48.25 48.25-126.762 48.25-175.012 0L80.72 1926.126z"/>
    <path style="fill:#fcd116;fill-rule:nonzero;stroke:none" d="M128.45 1878.387c-21.931-21.925-21.931-57.613 0-79.55l1670.532-1670.53c21.937-21.933 57.625-21.933 79.55 0l1670.537 1670.53c21.938 21.937 21.938 57.625 0 79.55L1878.532 3548.924c-21.925 21.938-57.613 21.938-79.55 0L128.45 1878.387z"/>
    <path style="fill:#000;fill-rule:nonzero;stroke:none" d="M1528.962 2163.855c-14.25-23.688-31.65-33.15-58.563-34.738-34.825-1.575-56.987 15.788-72.812 55.263-11.075 26.837-17.4 67.9-17.4 105.787 0 47.375 9.487 96.313 26.9 124.738 14.25 23.687 33.237 34.737 61.725 34.737 33.25 0 53.825-17.362 69.65-56.837 9.5-23.688 17.412-67.9 17.412-102.638 0-50.525-9.5-96.312-26.912-126.312zm49.062 307.9c-25.325 34.737-61.725 50.525-109.212 50.525-63.3 0-102.875-25.263-129.788-80.525-18.987-37.9-31.65-97.9-31.65-151.588 0-74.212 18.988-140.525 49.063-183.15 26.912-34.737 63.312-50.525 115.537-50.525 56.988 0 96.563 25.263 125.05 80.525 18.988 39.463 30.075 96.313 30.075 153.15 0 71.05-17.412 142.113-49.075 181.588zM2355.287 2513.83l-114.05-213.163-47.525 58.425v154.738h-71.275v-450h71.275v178.425l142.562-178.425h91.875l-139.387 175.262 148.9 274.738h-82.375zM1130.912 2142.78c-11.05-6.313-17.368-7.9-41.054-7.9h-85.267v110.525h85.267c22.109 0 30.004-1.575 41.054-7.888 17.374-9.475 28.427-28.425 28.427-47.375 0-18.937-11.053-37.887-28.427-47.362zm31.582 371.05-72.636-195.788h-85.267v195.788h-71.058v-450h148.429c34.741 0 58.426 3.162 80.532 14.212 39.478 18.95 67.902 66.313 67.902 112.1 0 47.375-28.424 94.738-69.48 113.688l78.956 210h-77.378zM2744.787 2486.442c-25.275 22.1-60.013 34.738-97.9 34.738-77.375 0-134.225-45.788-164.225-113.688l67.9-25.262c18.95 42.625 53.687 66.312 96.325 66.312 41.05 0 69.475-28.425 69.475-66.312 0-60-69.475-69.475-127.913-93.163-26.837-11.05-86.837-37.887-86.837-112.1 0-88.425 60-121.575 140.537-121.575 63.163 0 105.788 36.313 127.9 91.575l-63.162 18.938s-15.788-37.888-66.325-39.463c-33.163-1.587-72.638 11.05-69.475 52.1 6.312 83.688 217.912 28.425 217.912 205.263 0 41.05-15.8 77.375-44.212 102.637zM1887.624 2521.73c-66.312 0-108.95-25.263-137.375-80.538-20.525-39.462-33.162-96.312-33.162-153.15 0-71.05 18.95-142.112 50.537-181.575 26.838-33.162 64.738-50.537 115.275-50.537 67.9 0 110.525 28.425 140.538 91.587l-66.325 28.413c-25.263-37.888-39.475-47.363-74.213-47.363-36.325 0-60.012 15.788-75.8 55.263-11.05 26.837-17.375 66.312-17.375 104.212 0 48.95 11.063 97.9 28.425 126.313 15.8 23.687 36.325 34.737 67.9 34.737 30 0 52.113-15.787 69.488-52.1l67.9 25.263c-26.85 66.312-71.063 99.475-135.813 99.475zM2831.362 1737.58l-172.113-304.738v304.738h-71.062v-450.013h71.062l164.213 287.375v-287.375h71.062v450.013h-63.162zM1539.35 1737.58v-450.013h70.962v383.7h208.15v66.313h-279.113zM1885.962 1737.58v-450.013h70.962v383.7h208.15v66.313h-279.112zM2232.574 1737.58v-450h264.913v71.05h-193.95v110.525h130.875v72.625h-130.875v123.162h208.15v72.638h-279.113zM1281.274 1412.317l-46.047 126.313h90.522l-44.475-126.313zm114.35 325.263-44.462-126.325h-141.345l-44.466 126.325h-76.228l155.631-450h71.458l155.637 450h-76.225zM853.972 1358.63v110.525h130.88v72.625h-130.88v195.8h-70.964v-450h279.114v71.05h-208.15z"/>
</svg>
