<?xml version="1.0" encoding="UTF-8" standalone="no"?>
<!-- Created with Inkscape (http://www.inkscape.org/) -->

<svg xmlns:dc="http://purl.org/dc/elements/1.1/" xmlns:cc="http://creativecommons.org/ns#" xmlns:rdf="http://www.w3.org/1999/02/22-rdf-syntax-ns#" xmlns:svg="http://www.w3.org/2000/svg" xmlns="http://www.w3.org/2000/svg" xmlns:sodipodi="http://sodipodi.sourceforge.net/DTD/sodipodi-0.dtd" xmlns:inkscape="http://www.inkscape.org/namespaces/inkscape" width="740.84918" height="245.16202" id="svg4574" version="1.1" inkscape:version="0.48.2 r9819" sodipodi:docname="N0=N1,1.svg">
  <defs id="defs4576" />
  <sodipodi:namedview id="base" pagecolor="#ffffff" bordercolor="#666666" borderopacity="1.0" inkscape:pageopacity="0.0" inkscape:pageshadow="2" inkscape:zoom="1.1596554" inkscape:cx="400.61533" inkscape:cy="106.72307" inkscape:document-units="px" inkscape:current-layer="layer1" showgrid="false" fit-margin-top="0" fit-margin-left="0" fit-margin-right="0" fit-margin-bottom="0" inkscape:window-width="1300" inkscape:window-height="744" inkscape:window-x="66" inkscape:window-y="24" inkscape:window-maximized="1" />
  <metadata id="metadata4579">
    <rdf:RDF>
      <cc:Work rdf:about="">
        <dc:format>image/svg+xml</dc:format>
        <dc:type rdf:resource="http://purl.org/dc/dcmitype/StillImage" />
        <dc:title></dc:title>
      </cc:Work>
    </rdf:RDF>
  </metadata>
  <g inkscape:label="Layer 1" inkscape:groupmode="layer" id="layer1" transform="translate(15.08763,-240.34076)">
    <g id="g5310">
      <path transform="matrix(0.39787739,0,0,0.39787739,-2.448098,176.6923)" d="m 120.97984,276.53735 c 0,6.74283 -5.46614,12.20898 -12.20897,12.20898 -6.74283,0 -12.208978,-5.46615 -12.208978,-12.20898 0,-6.74283 5.466148,-12.20897 12.208978,-12.20897 6.74283,0 12.20897,5.46614 12.20897,12.20897 z" sodipodi:ry="12.208975" sodipodi:rx="12.208975" sodipodi:cy="276.53735" sodipodi:cx="108.77087" id="path4582" style="fill:blue;fill-opacity:1;fill-rule:evenodd;stroke:none" sodipodi:type="arc" />
      <path sodipodi:type="arc" style="fill:blue;fill-opacity:1;fill-rule:evenodd;stroke:none" id="path5092" sodipodi:cx="108.77087" sodipodi:cy="276.53735" sodipodi:rx="12.208975" sodipodi:ry="12.208975" d="m 120.97984,276.53735 c 0,6.74283 -5.46614,12.20898 -12.20897,12.20898 -6.74283,0 -12.208978,-5.46615 -12.208978,-12.20898 0,-6.74283 5.466148,-12.20897 12.208978,-12.20897 6.74283,0 12.20897,5.46614 12.20897,12.20897 z" transform="matrix(0.39787739,0,0,0.39787739,46.12865,176.6923)" />
      <path transform="matrix(0.39787739,0,0,0.39787739,94.7054,176.6923)" d="m 120.97984,276.53735 c 0,6.74283 -5.46614,12.20898 -12.20897,12.20898 -6.74283,0 -12.208978,-5.46615 -12.208978,-12.20898 0,-6.74283 5.466148,-12.20897 12.208978,-12.20897 6.74283,0 12.20897,5.46614 12.20897,12.20897 z" sodipodi:ry="12.208975" sodipodi:rx="12.208975" sodipodi:cy="276.53735" sodipodi:cx="108.77087" id="path5094" style="fill:blue;fill-opacity:1;fill-rule:evenodd;stroke:none" sodipodi:type="arc" />
      <path sodipodi:type="arc" style="fill:blue;fill-opacity:1;fill-rule:evenodd;stroke:none" id="path5096" sodipodi:cx="108.77087" sodipodi:cy="276.53735" sodipodi:rx="12.208975" sodipodi:ry="12.208975" d="m 120.97984,276.53735 c 0,6.74283 -5.46614,12.20898 -12.20897,12.20898 -6.74283,0 -12.208978,-5.46615 -12.208978,-12.20898 0,-6.74283 5.466148,-12.20897 12.208978,-12.20897 6.74283,0 12.20897,5.46614 12.20897,12.20897 z" transform="matrix(0.39787739,0,0,0.39787739,143.28215,176.6923)" />
      <path transform="matrix(0.39787739,0,0,0.39787739,191.8589,176.6923)" d="m 120.97984,276.53735 c 0,6.74283 -5.46614,12.20898 -12.20897,12.20898 -6.74283,0 -12.208978,-5.46615 -12.208978,-12.20898 0,-6.74283 5.466148,-12.20897 12.208978,-12.20897 6.74283,0 12.20897,5.46614 12.20897,12.20897 z" sodipodi:ry="12.208975" sodipodi:rx="12.208975" sodipodi:cy="276.53735" sodipodi:cx="108.77087" id="path5098" style="fill:blue;fill-opacity:1;fill-rule:evenodd;stroke:none" sodipodi:type="arc" />
      <path sodipodi:type="arc" style="fill:blue;fill-opacity:1;fill-rule:evenodd;stroke:none" id="path5100" sodipodi:cx="108.77087" sodipodi:cy="276.53735" sodipodi:rx="12.208975" sodipodi:ry="12.208975" d="m 120.97984,276.53735 c 0,6.74283 -5.46614,12.20898 -12.20897,12.20898 -6.74283,0 -12.208978,-5.46615 -12.208978,-12.20898 0,-6.74283 5.466148,-12.20897 12.208978,-12.20897 6.74283,0 12.20897,5.46614 12.20897,12.20897 z" transform="matrix(0.39787739,0,0,0.39787739,240.43565,176.6923)" />
      <path transform="matrix(0.39787739,0,0,0.39787739,289.0124,176.6923)" d="m 120.97984,276.53735 c 0,6.74283 -5.46614,12.20898 -12.20897,12.20898 -6.74283,0 -12.208978,-5.46615 -12.208978,-12.20898 0,-6.74283 5.466148,-12.20897 12.208978,-12.20897 6.74283,0 12.20897,5.46614 12.20897,12.20897 z" sodipodi:ry="12.208975" sodipodi:rx="12.208975" sodipodi:cy="276.53735" sodipodi:cx="108.77087" id="path5102" style="fill:blue;fill-opacity:1;fill-rule:evenodd;stroke:none" sodipodi:type="arc" />
      <path sodipodi:type="arc" style="fill:blue;fill-opacity:1;fill-rule:evenodd;stroke:none" id="path5104" sodipodi:cx="108.77087" sodipodi:cy="276.53735" sodipodi:rx="12.208975" sodipodi:ry="12.208975" d="m 120.97984,276.53735 c 0,6.74283 -5.46614,12.20898 -12.20897,12.20898 -6.74283,0 -12.208978,-5.46615 -12.208978,-12.20898 0,-6.74283 5.466148,-12.20897 12.208978,-12.20897 6.74283,0 12.20897,5.46614 12.20897,12.20897 z" transform="matrix(0.39787739,0,0,0.39787739,337.58915,176.6923)" />
      <path transform="matrix(0.39787739,0,0,0.39787739,386.1659,176.6923)" d="m 120.97984,276.53735 c 0,6.74283 -5.46614,12.20898 -12.20897,12.20898 -6.74283,0 -12.208978,-5.46615 -12.208978,-12.20898 0,-6.74283 5.466148,-12.20897 12.208978,-12.20897 6.74283,0 12.20897,5.46614 12.20897,12.20897 z" sodipodi:ry="12.208975" sodipodi:rx="12.208975" sodipodi:cy="276.53735" sodipodi:cx="108.77087" id="path5106" style="fill:blue;fill-opacity:1;fill-rule:evenodd;stroke:none" sodipodi:type="arc" />
      <path sodipodi:type="arc" style="fill:blue;fill-opacity:1;fill-rule:evenodd;stroke:none" id="path5108" sodipodi:cx="108.77087" sodipodi:cy="276.53735" sodipodi:rx="12.208975" sodipodi:ry="12.208975" d="m 120.97984,276.53735 c 0,6.74283 -5.46614,12.20898 -12.20897,12.20898 -6.74283,0 -12.208978,-5.46615 -12.208978,-12.20898 0,-6.74283 5.466148,-12.20897 12.208978,-12.20897 6.74283,0 12.20897,5.46614 12.20897,12.20897 z" transform="matrix(0.39787739,0,0,0.39787739,434.74265,176.6923)" />
      <path transform="matrix(0.39787739,0,0,0.39787739,483.3194,176.6923)" d="m 120.97984,276.53735 c 0,6.74283 -5.46614,12.20898 -12.20897,12.20898 -6.74283,0 -12.208978,-5.46615 -12.208978,-12.20898 0,-6.74283 5.466148,-12.20897 12.208978,-12.20897 6.74283,0 12.20897,5.46614 12.20897,12.20897 z" sodipodi:ry="12.208975" sodipodi:rx="12.208975" sodipodi:cy="276.53735" sodipodi:cx="108.77087" id="path5110" style="fill:blue;fill-opacity:1;fill-rule:evenodd;stroke:none" sodipodi:type="arc" />
      <path sodipodi:type="arc" style="fill:blue;fill-opacity:1;fill-rule:evenodd;stroke:none" id="path5112" sodipodi:cx="108.77087" sodipodi:cy="276.53735" sodipodi:rx="12.208975" sodipodi:ry="12.208975" d="m 120.97984,276.53735 c 0,6.74283 -5.46614,12.20898 -12.20897,12.20898 -6.74283,0 -12.208978,-5.46615 -12.208978,-12.20898 0,-6.74283 5.466148,-12.20897 12.208978,-12.20897 6.74283,0 12.20897,5.46614 12.20897,12.20897 z" transform="matrix(0.39787739,0,0,0.39787739,531.89615,176.6923)" />
      <path transform="matrix(0.39787739,0,0,0.39787739,580.4729,176.6923)" d="m 120.97984,276.53735 c 0,6.74283 -5.46614,12.20898 -12.20897,12.20898 -6.74283,0 -12.208978,-5.46615 -12.208978,-12.20898 0,-6.74283 5.466148,-12.20897 12.208978,-12.20897 6.74283,0 12.20897,5.46614 12.20897,12.20897 z" sodipodi:ry="12.208975" sodipodi:rx="12.208975" sodipodi:cy="276.53735" sodipodi:cx="108.77087" id="path5114" style="fill:blue;fill-opacity:1;fill-rule:evenodd;stroke:none" sodipodi:type="arc" />
      <path sodipodi:type="arc" style="fill:blue;fill-opacity:1;fill-rule:evenodd;stroke:none" id="path5116" sodipodi:cx="108.77087" sodipodi:cy="276.53735" sodipodi:rx="12.208975" sodipodi:ry="12.208975" d="m 120.97984,276.53735 c 0,6.74283 -5.46614,12.20898 -12.20897,12.20898 -6.74283,0 -12.208978,-5.46615 -12.208978,-12.20898 0,-6.74283 5.466148,-12.20897 12.208978,-12.20897 6.74283,0 12.20897,5.46614 12.20897,12.20897 z" transform="matrix(0.39787739,0,0,0.39787739,629.04965,176.6923)" />
    </g>
    <g id="g5327">
      <text sodipodi:linespacing="100%" id="text5120" y="259.50278" x="31.664368" style="font-size:26px;font-style:normal;font-variant:normal;font-weight:normal;font-stretch:normal;text-align:start;line-height:100%;letter-spacing:0px;word-spacing:0px;writing-mode:lr-tb;text-anchor:start;fill:black;fill-opacity:1;stroke:none;font-family:URW Bookman L;-inkscape-font-specification:URW Bookman L" xml:space="preserve"><tspan style="font-size:26px;font-weight:bold;-inkscape-font-specification:URW Bookman L Bold" y="259.50278" x="31.664368" id="tspan5122" sodipodi:role="line">1</tspan></text>
      <text sodipodi:linespacing="100%" id="text5120-5" y="259.50278" x="80.709122" style="font-size:26px;font-style:normal;font-variant:normal;font-weight:normal;font-stretch:normal;text-align:start;line-height:100%;letter-spacing:0px;word-spacing:0px;writing-mode:lr-tb;text-anchor:start;fill:black;fill-opacity:1;stroke:none;font-family:URW Bookman L;-inkscape-font-specification:URW Bookman L" xml:space="preserve"><tspan style="font-size:26px;font-weight:bold;-inkscape-font-specification:URW Bookman L Bold" y="259.50278" x="80.709122" id="tspan5122-0" sodipodi:role="line">2</tspan></text>
      <text sodipodi:linespacing="100%" id="text5120-4" y="259.16476" x="129.29886" style="font-size:26px;font-style:normal;font-variant:normal;font-weight:normal;font-stretch:normal;text-align:start;line-height:100%;letter-spacing:0px;word-spacing:0px;writing-mode:lr-tb;text-anchor:start;fill:black;fill-opacity:1;stroke:none;font-family:URW Bookman L;-inkscape-font-specification:URW Bookman L" xml:space="preserve"><tspan style="font-size:26px;font-weight:bold;-inkscape-font-specification:URW Bookman L Bold" y="259.16476" x="129.29886" id="tspan5122-8" sodipodi:role="line">3</tspan></text>
      <text sodipodi:linespacing="100%" id="text5120-7" y="259.50278" x="177.87563" style="font-size:26px;font-style:normal;font-variant:normal;font-weight:normal;font-stretch:normal;text-align:start;line-height:100%;letter-spacing:0px;word-spacing:0px;writing-mode:lr-tb;text-anchor:start;fill:black;fill-opacity:1;stroke:none;font-family:URW Bookman L;-inkscape-font-specification:URW Bookman L" xml:space="preserve"><tspan style="font-size:26px;font-weight:bold;-inkscape-font-specification:URW Bookman L Bold" y="259.50278" x="177.87563" id="tspan5122-1" sodipodi:role="line">4</tspan></text>
      <text sodipodi:linespacing="100%" id="text5120-72" y="259.50278" x="323.60587" style="font-size:26px;font-style:normal;font-variant:normal;font-weight:normal;font-stretch:normal;text-align:start;line-height:100%;letter-spacing:0px;word-spacing:0px;writing-mode:lr-tb;text-anchor:start;fill:black;fill-opacity:1;stroke:none;font-family:URW Bookman L;-inkscape-font-specification:URW Bookman L" xml:space="preserve"><tspan style="font-size:26px;font-weight:bold;-inkscape-font-specification:URW Bookman L Bold" y="259.50278" x="323.60587" id="tspan5122-7" sodipodi:role="line">7</tspan></text>
      <text sodipodi:linespacing="100%" id="text5120-2" y="259.16476" x="226.46536" style="font-size:26px;font-style:normal;font-variant:normal;font-weight:normal;font-stretch:normal;text-align:start;line-height:100%;letter-spacing:0px;word-spacing:0px;writing-mode:lr-tb;text-anchor:start;fill:black;fill-opacity:1;stroke:none;font-family:URW Bookman L;-inkscape-font-specification:URW Bookman L" xml:space="preserve"><tspan style="font-size:26px;font-weight:bold;-inkscape-font-specification:URW Bookman L Bold" y="259.16476" x="226.46536" id="tspan5122-2" sodipodi:role="line">5</tspan></text>
      <text sodipodi:linespacing="100%" id="text5120-6" y="259.16476" x="275.02911" style="font-size:26px;font-style:normal;font-variant:normal;font-weight:normal;font-stretch:normal;text-align:start;line-height:100%;letter-spacing:0px;word-spacing:0px;writing-mode:lr-tb;text-anchor:start;fill:black;fill-opacity:1;stroke:none;font-family:URW Bookman L;-inkscape-font-specification:URW Bookman L" xml:space="preserve"><tspan style="font-size:26px;font-weight:bold;-inkscape-font-specification:URW Bookman L Bold" y="259.16476" x="275.02911" id="tspan5122-10" sodipodi:role="line">6</tspan></text>
      <text sodipodi:linespacing="100%" id="text5120-61" y="259.16476" x="372.16962" style="font-size:26px;font-style:normal;font-variant:normal;font-weight:normal;font-stretch:normal;text-align:start;line-height:100%;letter-spacing:0px;word-spacing:0px;writing-mode:lr-tb;text-anchor:start;fill:black;fill-opacity:1;stroke:none;font-family:URW Bookman L;-inkscape-font-specification:URW Bookman L" xml:space="preserve"><tspan style="font-size:26px;font-weight:bold;-inkscape-font-specification:URW Bookman L Bold" y="259.16476" x="372.16962" id="tspan5122-5" sodipodi:role="line">8</tspan></text>
      <text sodipodi:linespacing="100%" id="text5120-9" y="259.16476" x="420.74637" style="font-size:26px;font-style:normal;font-variant:normal;font-weight:normal;font-stretch:normal;text-align:start;line-height:100%;letter-spacing:0px;word-spacing:0px;writing-mode:lr-tb;text-anchor:start;fill:black;fill-opacity:1;stroke:none;font-family:URW Bookman L;-inkscape-font-specification:URW Bookman L" xml:space="preserve"><tspan style="font-size:26px;font-weight:bold;-inkscape-font-specification:URW Bookman L Bold" y="259.16476" x="420.74637" id="tspan5122-4" sodipodi:role="line">9</tspan></text>
      <text sodipodi:linespacing="100%" id="text5120-90" y="259.16476" x="459.3501" style="font-size:26px;font-style:normal;font-variant:normal;font-weight:normal;font-stretch:normal;text-align:start;line-height:100%;letter-spacing:0px;word-spacing:0px;writing-mode:lr-tb;text-anchor:start;fill:black;fill-opacity:1;stroke:none;font-family:URW Bookman L;-inkscape-font-specification:URW Bookman L" xml:space="preserve"><tspan style="font-size:26px;font-weight:bold;-inkscape-font-specification:URW Bookman L Bold" y="259.16476" x="459.3501" id="tspan5122-9" sodipodi:role="line">10</tspan></text>
      <text sodipodi:linespacing="100%" id="text5120-90-1" y="259.16476" x="508.84985" style="font-size:26px;font-style:normal;font-variant:normal;font-weight:normal;font-stretch:normal;text-align:start;line-height:100%;letter-spacing:0px;word-spacing:0px;writing-mode:lr-tb;text-anchor:start;fill:black;fill-opacity:1;stroke:none;font-family:URW Bookman L;-inkscape-font-specification:URW Bookman L" xml:space="preserve"><tspan style="font-size:26px;font-weight:bold;-inkscape-font-specification:URW Bookman L Bold" y="259.16476" x="508.84985" id="tspan5122-9-7" sodipodi:role="line">11</tspan></text>
      <text sodipodi:linespacing="100%" id="text5120-90-7" y="259.16476" x="556.64661" style="font-size:26px;font-style:normal;font-variant:normal;font-weight:normal;font-stretch:normal;text-align:start;line-height:100%;letter-spacing:0px;word-spacing:0px;writing-mode:lr-tb;text-anchor:start;fill:black;fill-opacity:1;stroke:none;font-family:URW Bookman L;-inkscape-font-specification:URW Bookman L" xml:space="preserve"><tspan style="font-size:26px;font-weight:bold;-inkscape-font-specification:URW Bookman L Bold" y="259.16476" x="556.64661" id="tspan5122-9-1" sodipodi:role="line">12</tspan></text>
      <text sodipodi:linespacing="100%" id="text5120-90-15" y="259.16476" x="605.18433" style="font-size:26px;font-style:normal;font-variant:normal;font-weight:normal;font-stretch:normal;text-align:start;line-height:100%;letter-spacing:0px;word-spacing:0px;writing-mode:lr-tb;text-anchor:start;fill:black;fill-opacity:1;stroke:none;font-family:URW Bookman L;-inkscape-font-specification:URW Bookman L" xml:space="preserve"><tspan style="font-size:26px;font-weight:bold;-inkscape-font-specification:URW Bookman L Bold" y="259.16476" x="605.18433" id="tspan5122-9-9" sodipodi:role="line">13</tspan></text>
      <text sodipodi:linespacing="100%" id="text5256" y="255.21844" x="654.07715" style="font-size:30px;font-style:normal;font-variant:normal;font-weight:bold;font-stretch:normal;text-align:start;line-height:100%;letter-spacing:0px;word-spacing:0px;writing-mode:lr-tb;text-anchor:start;fill:black;fill-opacity:1;stroke:none;font-family:URW Bookman L;-inkscape-font-specification:Sans Bold" xml:space="preserve"><tspan y="255.21844" x="654.07715" id="tspan5258" sodipodi:role="line">.....</tspan></text>
    </g>
    <g id="g5292" transform="translate(0,14)">
      <path sodipodi:type="arc" style="fill:blue;fill-opacity:1;fill-rule:evenodd;stroke:none" id="path5260" sodipodi:cx="108.77087" sodipodi:cy="276.53735" sodipodi:rx="12.208975" sodipodi:ry="12.208975" d="m 120.97984,276.53735 c 0,6.74283 -5.46614,12.20898 -12.20897,12.20898 -6.74283,0 -12.208978,-5.46615 -12.208978,-12.20898 0,-6.74283 5.466148,-12.20897 12.208978,-12.20897 6.74283,0 12.20897,5.46614 12.20897,12.20897 z" transform="matrix(0.39787739,0,0,0.39787739,-50.448098,222.6923)" />
      <path transform="matrix(0.39787739,0,0,0.39787739,-1.87135,222.6923)" d="m 120.97984,276.53735 c 0,6.74283 -5.46614,12.20898 -12.20897,12.20898 -6.74283,0 -12.208978,-5.46615 -12.208978,-12.20898 0,-6.74283 5.466148,-12.20897 12.208978,-12.20897 6.74283,0 12.20897,5.46614 12.20897,12.20897 z" sodipodi:ry="12.208975" sodipodi:rx="12.208975" sodipodi:cy="276.53735" sodipodi:cx="108.77087" id="path5262" style="fill:blue;fill-opacity:1;fill-rule:evenodd;stroke:none" sodipodi:type="arc" />
      <path sodipodi:type="arc" style="fill:blue;fill-opacity:1;fill-rule:evenodd;stroke:none" id="path5264" sodipodi:cx="108.77087" sodipodi:cy="276.53735" sodipodi:rx="12.208975" sodipodi:ry="12.208975" d="m 120.97984,276.53735 c 0,6.74283 -5.46614,12.20898 -12.20897,12.20898 -6.74283,0 -12.208978,-5.46615 -12.208978,-12.20898 0,-6.74283 5.466148,-12.20897 12.208978,-12.20897 6.74283,0 12.20897,5.46614 12.20897,12.20897 z" transform="matrix(0.39787739,0,0,0.39787739,46.7054,222.6923)" />
      <path transform="matrix(0.39787739,0,0,0.39787739,95.28215,222.6923)" d="m 120.97984,276.53735 c 0,6.74283 -5.46614,12.20898 -12.20897,12.20898 -6.74283,0 -12.208978,-5.46615 -12.208978,-12.20898 0,-6.74283 5.466148,-12.20897 12.208978,-12.20897 6.74283,0 12.20897,5.46614 12.20897,12.20897 z" sodipodi:ry="12.208975" sodipodi:rx="12.208975" sodipodi:cy="276.53735" sodipodi:cx="108.77087" id="path5266" style="fill:blue;fill-opacity:1;fill-rule:evenodd;stroke:none" sodipodi:type="arc" />
      <path sodipodi:type="arc" style="fill:blue;fill-opacity:1;fill-rule:evenodd;stroke:none" id="path5268" sodipodi:cx="108.77087" sodipodi:cy="276.53735" sodipodi:rx="12.208975" sodipodi:ry="12.208975" d="m 120.97984,276.53735 c 0,6.74283 -5.46614,12.20898 -12.20897,12.20898 -6.74283,0 -12.208978,-5.46615 -12.208978,-12.20898 0,-6.74283 5.466148,-12.20897 12.208978,-12.20897 6.74283,0 12.20897,5.46614 12.20897,12.20897 z" transform="matrix(0.39787739,0,0,0.39787739,143.8589,222.6923)" />
      <path transform="matrix(0.39787739,0,0,0.39787739,192.43565,222.6923)" d="m 120.97984,276.53735 c 0,6.74283 -5.46614,12.20898 -12.20897,12.20898 -6.74283,0 -12.208978,-5.46615 -12.208978,-12.20898 0,-6.74283 5.466148,-12.20897 12.208978,-12.20897 6.74283,0 12.20897,5.46614 12.20897,12.20897 z" sodipodi:ry="12.208975" sodipodi:rx="12.208975" sodipodi:cy="276.53735" sodipodi:cx="108.77087" id="path5270" style="fill:blue;fill-opacity:1;fill-rule:evenodd;stroke:none" sodipodi:type="arc" />
      <path sodipodi:type="arc" style="fill:blue;fill-opacity:1;fill-rule:evenodd;stroke:none" id="path5272" sodipodi:cx="108.77087" sodipodi:cy="276.53735" sodipodi:rx="12.208975" sodipodi:ry="12.208975" d="m 120.97984,276.53735 c 0,6.74283 -5.46614,12.20898 -12.20897,12.20898 -6.74283,0 -12.208978,-5.46615 -12.208978,-12.20898 0,-6.74283 5.466148,-12.20897 12.208978,-12.20897 6.74283,0 12.20897,5.46614 12.20897,12.20897 z" transform="matrix(0.39787739,0,0,0.39787739,241.0124,222.6923)" />
      <path transform="matrix(0.39787739,0,0,0.39787739,289.58915,222.6923)" d="m 120.97984,276.53735 c 0,6.74283 -5.46614,12.20898 -12.20897,12.20898 -6.74283,0 -12.208978,-5.46615 -12.208978,-12.20898 0,-6.74283 5.466148,-12.20897 12.208978,-12.20897 6.74283,0 12.20897,5.46614 12.20897,12.20897 z" sodipodi:ry="12.208975" sodipodi:rx="12.208975" sodipodi:cy="276.53735" sodipodi:cx="108.77087" id="path5274" style="fill:blue;fill-opacity:1;fill-rule:evenodd;stroke:none" sodipodi:type="arc" />
      <path sodipodi:type="arc" style="fill:blue;fill-opacity:1;fill-rule:evenodd;stroke:none" id="path5276" sodipodi:cx="108.77087" sodipodi:cy="276.53735" sodipodi:rx="12.208975" sodipodi:ry="12.208975" d="m 120.97984,276.53735 c 0,6.74283 -5.46614,12.20898 -12.20897,12.20898 -6.74283,0 -12.208978,-5.46615 -12.208978,-12.20898 0,-6.74283 5.466148,-12.20897 12.208978,-12.20897 6.74283,0 12.20897,5.46614 12.20897,12.20897 z" transform="matrix(0.39787739,0,0,0.39787739,338.1659,222.6923)" />
      <path transform="matrix(0.39787739,0,0,0.39787739,386.74265,222.6923)" d="m 120.97984,276.53735 c 0,6.74283 -5.46614,12.20898 -12.20897,12.20898 -6.74283,0 -12.208978,-5.46615 -12.208978,-12.20898 0,-6.74283 5.466148,-12.20897 12.208978,-12.20897 6.74283,0 12.20897,5.46614 12.20897,12.20897 z" sodipodi:ry="12.208975" sodipodi:rx="12.208975" sodipodi:cy="276.53735" sodipodi:cx="108.77087" id="path5278" style="fill:blue;fill-opacity:1;fill-rule:evenodd;stroke:none" sodipodi:type="arc" />
      <path sodipodi:type="arc" style="fill:blue;fill-opacity:1;fill-rule:evenodd;stroke:none" id="path5280" sodipodi:cx="108.77087" sodipodi:cy="276.53735" sodipodi:rx="12.208975" sodipodi:ry="12.208975" d="m 120.97984,276.53735 c 0,6.74283 -5.46614,12.20898 -12.20897,12.20898 -6.74283,0 -12.208978,-5.46615 -12.208978,-12.20898 0,-6.74283 5.466148,-12.20897 12.208978,-12.20897 6.74283,0 12.20897,5.46614 12.20897,12.20897 z" transform="matrix(0.39787739,0,0,0.39787739,435.3194,222.6923)" />
      <path transform="matrix(0.39787739,0,0,0.39787739,483.89615,222.6923)" d="m 120.97984,276.53735 c 0,6.74283 -5.46614,12.20898 -12.20897,12.20898 -6.74283,0 -12.208978,-5.46615 -12.208978,-12.20898 0,-6.74283 5.466148,-12.20897 12.208978,-12.20897 6.74283,0 12.20897,5.46614 12.20897,12.20897 z" sodipodi:ry="12.208975" sodipodi:rx="12.208975" sodipodi:cy="276.53735" sodipodi:cx="108.77087" id="path5282" style="fill:blue;fill-opacity:1;fill-rule:evenodd;stroke:none" sodipodi:type="arc" />
      <path sodipodi:type="arc" style="fill:blue;fill-opacity:1;fill-rule:evenodd;stroke:none" id="path5284" sodipodi:cx="108.77087" sodipodi:cy="276.53735" sodipodi:rx="12.208975" sodipodi:ry="12.208975" d="m 120.97984,276.53735 c 0,6.74283 -5.46614,12.20898 -12.20897,12.20898 -6.74283,0 -12.208978,-5.46615 -12.208978,-12.20898 0,-6.74283 5.466148,-12.20897 12.208978,-12.20897 6.74283,0 12.20897,5.46614 12.20897,12.20897 z" transform="matrix(0.39787739,0,0,0.39787739,532.4729,222.6923)" />
      <path transform="matrix(0.39787739,0,0,0.39787739,581.04965,222.6923)" d="m 120.97984,276.53735 c 0,6.74283 -5.46614,12.20898 -12.20897,12.20898 -6.74283,0 -12.208978,-5.46615 -12.208978,-12.20898 0,-6.74283 5.466148,-12.20897 12.208978,-12.20897 6.74283,0 12.20897,5.46614 12.20897,12.20897 z" sodipodi:ry="12.208975" sodipodi:rx="12.208975" sodipodi:cy="276.53735" sodipodi:cx="108.77087" id="path5286" style="fill:blue;fill-opacity:1;fill-rule:evenodd;stroke:none" sodipodi:type="arc" />
      <path sodipodi:type="arc" style="fill:blue;fill-opacity:1;fill-rule:evenodd;stroke:none" id="path5288" sodipodi:cx="108.77087" sodipodi:cy="276.53735" sodipodi:rx="12.208975" sodipodi:ry="12.208975" d="m 120.97984,276.53735 c 0,6.74283 -5.46614,12.20898 -12.20897,12.20898 -6.74283,0 -12.208978,-5.46615 -12.208978,-12.20898 0,-6.74283 5.466148,-12.20897 12.208978,-12.20897 6.74283,0 12.20897,5.46614 12.20897,12.20897 z" transform="matrix(0.39787739,0,0,0.39787739,629.6264,222.6923)" />
    </g>
    <g id="g5455" transform="translate(0,-4)">
      <path sodipodi:nodetypes="ccccc" inkscape:connector-curvature="0" id="path5404" d="m 41.26738,307.61473 0,21.08823 6.659441,-7.76935 -6.659441,14.42879 -6.381964,-13.87383" style="fill:none;stroke:black;stroke-width:1px;stroke-linecap:round;stroke-linejoin:round;stroke-opacity:1" />
      <path style="fill:none;stroke:black;stroke-width:1px;stroke-linecap:round;stroke-linejoin:round;stroke-opacity:1" d="m 89.26738,307.61473 0,21.08823 6.659441,-7.76935 -6.659441,14.42879 -6.381964,-13.87383" id="path5406" inkscape:connector-curvature="0" sodipodi:nodetypes="ccccc" />
      <path sodipodi:nodetypes="ccccc" inkscape:connector-curvature="0" id="path5408" d="m 138.3773,307.61473 0,21.08823 6.65944,-7.76935 -6.65944,14.42879 -6.38196,-13.87383" style="fill:none;stroke:black;stroke-width:1px;stroke-linecap:round;stroke-linejoin:round;stroke-opacity:1" />
      <path style="fill:none;stroke:black;stroke-width:1px;stroke-linecap:round;stroke-linejoin:round;stroke-opacity:1" d="m 186.71242,307.61473 0,21.08823 6.65944,-7.76935 -6.65944,14.42879 -6.38196,-13.87383" id="path5410" inkscape:connector-curvature="0" sodipodi:nodetypes="ccccc" />
      <path sodipodi:nodetypes="ccccc" inkscape:connector-curvature="0" id="path5412" d="m 234.71242,307.61473 0,21.08823 6.65944,-7.76935 -6.65944,14.42879 -6.38196,-13.87383" style="fill:none;stroke:black;stroke-width:1px;stroke-linecap:round;stroke-linejoin:round;stroke-opacity:1" />
      <path style="fill:none;stroke:black;stroke-width:1px;stroke-linecap:round;stroke-linejoin:round;stroke-opacity:1" d="m 283.82234,307.61473 0,21.08823 6.65944,-7.76935 -6.65944,14.42879 -6.38196,-13.87383" id="path5414" inkscape:connector-curvature="0" sodipodi:nodetypes="ccccc" />
      <path sodipodi:nodetypes="ccccc" inkscape:connector-curvature="0" id="path5416" d="m 332.71242,307.61473 0,21.08823 6.65944,-7.76935 -6.65944,14.42879 -6.38196,-13.87383" style="fill:none;stroke:black;stroke-width:1px;stroke-linecap:round;stroke-linejoin:round;stroke-opacity:1" />
      <path style="fill:none;stroke:black;stroke-width:1px;stroke-linecap:round;stroke-linejoin:round;stroke-opacity:1" d="m 380.71242,307.61473 0,21.08823 6.65944,-7.76935 -6.65944,14.42879 -6.38196,-13.87383" id="path5418" inkscape:connector-curvature="0" sodipodi:nodetypes="ccccc" />
      <path sodipodi:nodetypes="ccccc" inkscape:connector-curvature="0" id="path5420" d="m 429.82234,307.61473 0,21.08823 6.65944,-7.76935 -6.65944,14.42879 -6.38196,-13.87383" style="fill:none;stroke:black;stroke-width:1px;stroke-linecap:round;stroke-linejoin:round;stroke-opacity:1" />
      <path style="fill:none;stroke:black;stroke-width:1px;stroke-linecap:round;stroke-linejoin:round;stroke-opacity:1" d="m 478.43494,307.61473 0,21.08823 6.65944,-7.76935 -6.65944,14.42879 -6.38196,-13.87383" id="path5422" inkscape:connector-curvature="0" sodipodi:nodetypes="ccccc" />
      <path sodipodi:nodetypes="ccccc" inkscape:connector-curvature="0" id="path5424" d="m 526.43494,307.61473 0,21.08823 6.65944,-7.76935 -6.65944,14.42879 -6.38196,-13.87383" style="fill:none;stroke:black;stroke-width:1px;stroke-linecap:round;stroke-linejoin:round;stroke-opacity:1" />
      <path style="fill:none;stroke:black;stroke-width:1px;stroke-linecap:round;stroke-linejoin:round;stroke-opacity:1" d="m 575.54486,307.61473 0,21.08823 6.65944,-7.76935 -6.65944,14.42879 -6.38196,-13.87383" id="path5426" inkscape:connector-curvature="0" sodipodi:nodetypes="ccccc" />
      <path sodipodi:nodetypes="ccccc" inkscape:connector-curvature="0" id="path5428" d="m 624.15746,307.61473 0,21.08823 6.65944,-7.76935 -6.65944,14.42879 -6.38196,-13.87383" style="fill:none;stroke:black;stroke-width:1px;stroke-linecap:round;stroke-linejoin:round;stroke-opacity:1" />
      <path style="fill:none;stroke:black;stroke-width:1px;stroke-linecap:round;stroke-linejoin:round;stroke-opacity:1" d="m 672.15746,307.61473 0,21.08823 6.65944,-7.76935 -6.65944,14.42879 -6.38196,-13.87383" id="path5430" inkscape:connector-curvature="0" sodipodi:nodetypes="ccccc" />
    </g>
    <text xml:space="preserve" style="font-size:20.27266693px;font-style:normal;font-variant:normal;font-weight:bold;font-stretch:normal;text-align:start;line-height:100%;letter-spacing:0px;word-spacing:0px;writing-mode:lr-tb;text-anchor:start;fill:black;fill-opacity:1;stroke:none;font-family:URW Bookman L;-inkscape-font-specification:Sans Bold" x="688.99854" y="327.27206" id="text5256-7" sodipodi:linespacing="100%"><tspan sodipodi:role="line" id="tspan5258-7" x="688.99854" y="327.27206">.....</tspan></text>
    <g id="g5659">
      <g transform="translate(0,134.16637)" id="g5516">
        <text sodipodi:linespacing="100%" id="text5518" y="259.50278" x="31.664368" style="font-size:26px;font-style:normal;font-variant:normal;font-weight:normal;font-stretch:normal;text-align:start;line-height:100%;letter-spacing:0px;word-spacing:0px;writing-mode:lr-tb;text-anchor:start;fill:black;fill-opacity:1;stroke:none;font-family:URW Bookman L;-inkscape-font-specification:URW Bookman L" xml:space="preserve"><tspan style="font-size:26px;font-weight:bold;-inkscape-font-specification:URW Bookman L Bold" y="259.50278" x="31.664368" id="tspan5520" sodipodi:role="line">1</tspan></text>
        <text sodipodi:linespacing="100%" id="text5522" y="259.50278" x="80.709122" style="font-size:26px;font-style:normal;font-variant:normal;font-weight:normal;font-stretch:normal;text-align:start;line-height:100%;letter-spacing:0px;word-spacing:0px;writing-mode:lr-tb;text-anchor:start;fill:black;fill-opacity:1;stroke:none;font-family:URW Bookman L;-inkscape-font-specification:URW Bookman L" xml:space="preserve"><tspan style="font-size:26px;font-weight:bold;-inkscape-font-specification:URW Bookman L Bold" y="259.50278" x="80.709122" id="tspan5524" sodipodi:role="line">2</tspan></text>
        <text sodipodi:linespacing="100%" id="text5526" y="259.16476" x="129.29886" style="font-size:26px;font-style:normal;font-variant:normal;font-weight:normal;font-stretch:normal;text-align:start;line-height:100%;letter-spacing:0px;word-spacing:0px;writing-mode:lr-tb;text-anchor:start;fill:black;fill-opacity:1;stroke:none;font-family:URW Bookman L;-inkscape-font-specification:URW Bookman L" xml:space="preserve"><tspan style="font-size:26px;font-weight:bold;-inkscape-font-specification:URW Bookman L Bold" y="259.16476" x="129.29886" id="tspan5528" sodipodi:role="line">3</tspan></text>
        <text sodipodi:linespacing="100%" id="text5530" y="259.50278" x="177.87563" style="font-size:26px;font-style:normal;font-variant:normal;font-weight:normal;font-stretch:normal;text-align:start;line-height:100%;letter-spacing:0px;word-spacing:0px;writing-mode:lr-tb;text-anchor:start;fill:black;fill-opacity:1;stroke:none;font-family:URW Bookman L;-inkscape-font-specification:URW Bookman L" xml:space="preserve"><tspan style="font-size:26px;font-weight:bold;-inkscape-font-specification:URW Bookman L Bold" y="259.50278" x="177.87563" id="tspan5532" sodipodi:role="line">4</tspan></text>
        <text sodipodi:linespacing="100%" id="text5534" y="259.50278" x="323.60587" style="font-size:26px;font-style:normal;font-variant:normal;font-weight:normal;font-stretch:normal;text-align:start;line-height:100%;letter-spacing:0px;word-spacing:0px;writing-mode:lr-tb;text-anchor:start;fill:black;fill-opacity:1;stroke:none;font-family:URW Bookman L;-inkscape-font-specification:URW Bookman L" xml:space="preserve"><tspan style="font-size:26px;font-weight:bold;-inkscape-font-specification:URW Bookman L Bold" y="259.50278" x="323.60587" id="tspan5536" sodipodi:role="line">7</tspan></text>
        <text sodipodi:linespacing="100%" id="text5538" y="259.16476" x="226.46536" style="font-size:26px;font-style:normal;font-variant:normal;font-weight:normal;font-stretch:normal;text-align:start;line-height:100%;letter-spacing:0px;word-spacing:0px;writing-mode:lr-tb;text-anchor:start;fill:black;fill-opacity:1;stroke:none;font-family:URW Bookman L;-inkscape-font-specification:URW Bookman L" xml:space="preserve"><tspan style="font-size:26px;font-weight:bold;-inkscape-font-specification:URW Bookman L Bold" y="259.16476" x="226.46536" id="tspan5540" sodipodi:role="line">5</tspan></text>
        <text sodipodi:linespacing="100%" id="text5542" y="259.16476" x="275.02911" style="font-size:26px;font-style:normal;font-variant:normal;font-weight:normal;font-stretch:normal;text-align:start;line-height:100%;letter-spacing:0px;word-spacing:0px;writing-mode:lr-tb;text-anchor:start;fill:black;fill-opacity:1;stroke:none;font-family:URW Bookman L;-inkscape-font-specification:URW Bookman L" xml:space="preserve"><tspan style="font-size:26px;font-weight:bold;-inkscape-font-specification:URW Bookman L Bold" y="259.16476" x="275.02911" id="tspan5544" sodipodi:role="line">6</tspan></text>
        <text sodipodi:linespacing="100%" id="text5546" y="259.16476" x="372.16962" style="font-size:26px;font-style:normal;font-variant:normal;font-weight:normal;font-stretch:normal;text-align:start;line-height:100%;letter-spacing:0px;word-spacing:0px;writing-mode:lr-tb;text-anchor:start;fill:black;fill-opacity:1;stroke:none;font-family:URW Bookman L;-inkscape-font-specification:URW Bookman L" xml:space="preserve"><tspan style="font-size:26px;font-weight:bold;-inkscape-font-specification:URW Bookman L Bold" y="259.16476" x="372.16962" id="tspan5548" sodipodi:role="line">8</tspan></text>
        <text sodipodi:linespacing="100%" id="text5550" y="259.16476" x="420.74637" style="font-size:26px;font-style:normal;font-variant:normal;font-weight:normal;font-stretch:normal;text-align:start;line-height:100%;letter-spacing:0px;word-spacing:0px;writing-mode:lr-tb;text-anchor:start;fill:black;fill-opacity:1;stroke:none;font-family:URW Bookman L;-inkscape-font-specification:URW Bookman L" xml:space="preserve"><tspan style="font-size:26px;font-weight:bold;-inkscape-font-specification:URW Bookman L Bold" y="259.16476" x="420.74637" id="tspan5552" sodipodi:role="line">9</tspan></text>
        <text sodipodi:linespacing="100%" id="text5554" y="259.16476" x="459.3501" style="font-size:26px;font-style:normal;font-variant:normal;font-weight:normal;font-stretch:normal;text-align:start;line-height:100%;letter-spacing:0px;word-spacing:0px;writing-mode:lr-tb;text-anchor:start;fill:black;fill-opacity:1;stroke:none;font-family:URW Bookman L;-inkscape-font-specification:URW Bookman L" xml:space="preserve"><tspan style="font-size:26px;font-weight:bold;-inkscape-font-specification:URW Bookman L Bold" y="259.16476" x="459.3501" id="tspan5556" sodipodi:role="line">10</tspan></text>
        <text sodipodi:linespacing="100%" id="text5558" y="259.16476" x="508.84985" style="font-size:26px;font-style:normal;font-variant:normal;font-weight:normal;font-stretch:normal;text-align:start;line-height:100%;letter-spacing:0px;word-spacing:0px;writing-mode:lr-tb;text-anchor:start;fill:black;fill-opacity:1;stroke:none;font-family:URW Bookman L;-inkscape-font-specification:URW Bookman L" xml:space="preserve"><tspan style="font-size:26px;font-weight:bold;-inkscape-font-specification:URW Bookman L Bold" y="259.16476" x="508.84985" id="tspan5560" sodipodi:role="line">11</tspan></text>
        <text sodipodi:linespacing="100%" id="text5562" y="259.16476" x="556.64661" style="font-size:26px;font-style:normal;font-variant:normal;font-weight:normal;font-stretch:normal;text-align:start;line-height:100%;letter-spacing:0px;word-spacing:0px;writing-mode:lr-tb;text-anchor:start;fill:black;fill-opacity:1;stroke:none;font-family:URW Bookman L;-inkscape-font-specification:URW Bookman L" xml:space="preserve"><tspan style="font-size:26px;font-weight:bold;-inkscape-font-specification:URW Bookman L Bold" y="259.16476" x="556.64661" id="tspan5564" sodipodi:role="line">12</tspan></text>
        <text sodipodi:linespacing="100%" id="text5566" y="259.16476" x="605.18433" style="font-size:26px;font-style:normal;font-variant:normal;font-weight:normal;font-stretch:normal;text-align:start;line-height:100%;letter-spacing:0px;word-spacing:0px;writing-mode:lr-tb;text-anchor:start;fill:black;fill-opacity:1;stroke:none;font-family:URW Bookman L;-inkscape-font-specification:URW Bookman L" xml:space="preserve"><tspan style="font-size:26px;font-weight:bold;-inkscape-font-specification:URW Bookman L Bold" y="259.16476" x="605.18433" id="tspan5568" sodipodi:role="line">13</tspan></text>
        <text sodipodi:linespacing="100%" id="text5570" y="255.21844" x="654.07715" style="font-size:30px;font-style:normal;font-variant:normal;font-weight:bold;font-stretch:normal;text-align:start;line-height:100%;letter-spacing:0px;word-spacing:0px;writing-mode:lr-tb;text-anchor:start;fill:black;fill-opacity:1;stroke:none;font-family:URW Bookman L;-inkscape-font-specification:Sans Bold" xml:space="preserve"><tspan y="255.21844" x="654.07715" id="tspan5572" sodipodi:role="line">.....</tspan></text>
      </g>
      <text sodipodi:linespacing="100%" id="text5518-6" y="393.33115" x="-15.86763" style="font-size:26px;font-style:normal;font-variant:normal;font-weight:normal;font-stretch:normal;text-align:start;line-height:100%;letter-spacing:0px;word-spacing:0px;writing-mode:lr-tb;text-anchor:start;fill:black;fill-opacity:1;stroke:none;font-family:URW Bookman L;-inkscape-font-specification:URW Bookman L" xml:space="preserve"><tspan style="font-size:26px;font-weight:bold;-inkscape-font-specification:URW Bookman L Bold" y="393.33115" x="-15.86763" id="tspan5520-7" sodipodi:role="line">0</tspan></text>
    </g>
  </g>
</svg>
