<?xml version="1.0" standalone="no"?>
<!DOCTYPE svg PUBLIC "-//W3C//DTD SVG 1.1//EN" "http://www.w3.org/Graphics/SVG/1.1/DTD/svg11.dtd" >
<svg xmlns="http://www.w3.org/2000/svg" xmlns:xlink="http://www.w3.org/1999/xlink" version="1.1" viewBox="-10 0 1023 1000">
   <path fill="currentColor"
d="M1003 138c0 29 -17 29 -31 29c-8 0 -34 0 -57 5c-29 6 -30 9 -34 24l-45 179h77c14 0 22 11 18 24c-3 13 -16 24 -30 24h-77l-19 80h76c14 0 22 11 18 24c-3 13 -16 24 -30 24h-76l-58 231c-6 24 -11 24 -34 24c-22 0 -23 -1 -31 -16l-124 -239h-252l-49 198
c24 10 60 10 69 10c14 0 31 0 31 18c0 29 -19 29 -27 29c-38 0 -80 -3 -119 -3c-38 0 -78 3 -115 3c-17 0 -20 -14 -20 -18c0 -29 18 -29 34 -29c25 0 46 -3 57 -5c27 -6 28 -10 32 -25l44 -178h-77c-14 0 -22 -11 -18 -24c3 -13 16 -24 30 -24h77l20 -80h-77
c-14 0 -22 -11 -18 -24c3 -13 16 -24 30 -24h77l48 -192c1 -3 3 -11 3 -11c0 -3 0 -5 -43 -5h-27c-15 0 -32 0 -32 -18c0 -29 18 -29 35 -29h185c23 0 24 1 33 17l123 238h173l50 -198c-25 -10 -61 -10 -70 -10c-14 0 -31 0 -31 -18c0 -29 20 -29 28 -29c38 0 79 3 118 3
c38 0 78 -3 115 -3c11 0 20 7 20 18zM455 375l-79 -153l-38 153h117zM521 503l-41 -80h-154l-20 80h215zM741 503l20 -80h-136l42 80h74zM717 600l12 -49h-37z" />
</svg>
