<?xml version="1.0" encoding="UTF-8" standalone="no"?>
<!-- Created with Inkscape (http://www.inkscape.org/) -->

<svg
   width="92mm"
   height="64mm"
   viewBox="0 0 92 64"
   version="1.1"
   id="svg5"
   inkscape:version="1.1 (c68e22c387, 2021-05-23)"
   sodipodi:docname="Nat road 55 BG.svg"
   xmlns:inkscape="http://www.inkscape.org/namespaces/inkscape"
   xmlns:sodipodi="http://sodipodi.sourceforge.net/DTD/sodipodi-0.dtd"
   xmlns="http://www.w3.org/2000/svg"
   xmlns:svg="http://www.w3.org/2000/svg">
  <sodipodi:namedview
     id="namedview7"
     pagecolor="#ffffff"
     bordercolor="#666666"
     borderopacity="1.0"
     inkscape:pageshadow="2"
     inkscape:pageopacity="0.0"
     inkscape:pagecheckerboard="0"
     inkscape:document-units="mm"
     showgrid="false"
     showguides="true"
     inkscape:guide-bbox="true"
     inkscape:zoom="1.4467452"
     inkscape:cx="229.82623"
     inkscape:cy="230.51744"
     inkscape:window-width="1920"
     inkscape:window-height="1001"
     inkscape:window-x="-9"
     inkscape:window-y="-9"
     inkscape:window-maximized="1"
     inkscape:current-layer="layer1" />
  <defs
     id="defs2" />
  <g
     inkscape:label="Ebene 1"
     inkscape:groupmode="layer"
     id="layer1">
    <rect
       style="fill:#153770;fill-opacity:1;stroke:none;stroke-width:4.46411;stroke-linecap:round;stroke-linejoin:round;stroke-miterlimit:4;stroke-dasharray:none;stroke-opacity:1;paint-order:markers fill stroke"
       id="rect1316"
       width="84.338997"
       height="53.941826"
       x="3.8947554"
       y="5.2162862"
       ry="4.7473316" />
    <path
       style="fill:#ffffff;fill-opacity:1;stroke:none;stroke-width:0.184209;stroke-linecap:butt;stroke-linejoin:miter;stroke-miterlimit:4;stroke-dasharray:none;stroke-opacity:1"
       d="m 24.409401,25.950925 c 11.304896,-4.24092 19.118456,3.58053 19.005816,12.39213 0.191,9.48564 -7.03288,14.2203 -13.287,14.33304 -6.702763,0.29489 -13.232391,-3.94613 -14.539057,-11.37142 h 7.496029 c 2.277177,4.41611 4.177336,4.60847 6.572978,4.74429 2.55451,-0.12053 6.25125,-1.20702 6.31944,-7.1367 -0.0938,-5.58376 -3.0852,-7.11958 -5.9149,-7.38971 -3.005843,0.0833 -4.51562,1.28237 -5.762197,2.92193 h -7.549838 v -22.86729 h 23.738435 v 6.42462 h -16.44268 v 8.0217 z"
       id="path5079"
       sodipodi:nodetypes="cccccccccccccccc" />
    <path
       style="fill:#ffffff;fill-opacity:1;stroke:none;stroke-width:0.184209;stroke-linecap:butt;stroke-linejoin:miter;stroke-miterlimit:4;stroke-dasharray:none;stroke-opacity:1"
       d="m 58.161123,25.950926 c 11.304896,-4.24092 19.118456,3.58053 19.005816,12.39213 0.191,9.48564 -7.03288,14.2203 -13.287,14.33304 -6.702763,0.29489 -13.232391,-3.94613 -14.539057,-11.37142 h 7.496029 c 2.277177,4.41611 4.177336,4.60847 6.572978,4.74429 2.55451,-0.12053 6.25125,-1.20702 6.31944,-7.1367 -0.0938,-5.58376 -3.0852,-7.11958 -5.9149,-7.38971 -3.005843,0.0833 -4.51562,1.28237 -5.762197,2.92193 h -7.549838 v -22.86729 h 23.738435 v 6.42462 h -16.44268 v 8.0217 z"
       id="path918"
       sodipodi:nodetypes="cccccccccccccccc" />
  </g>
</svg>
