<?xml version="1.0" encoding="UTF-8" standalone="no"?>
<!-- Created with Inkscape (http://www.inkscape.org/) -->
<svg
   xmlns:svg="http://www.w3.org/2000/svg"
   xmlns="http://www.w3.org/2000/svg"
   version="1.0"
   width="600"
   height="600"
   id="svg1873">
  <defs
     id="defs1875" />
  <g
     id="layer1">
    <g
       id="g1876">
      <path
         d="M 37.50003,-0.00048 L 562.50045,-0.00048 C 583.27547,-0.00048 600.00048,16.724533 600.00048,37.49955 L 600.00048,562.49997 C 600.00048,583.27499 583.27547,600 562.50045,600 L 37.50003,600 C 16.725013,600 0,583.27499 0,562.49997 L 0,37.49955 C 0,16.724533 16.725013,-0.00048 37.50003,-0.00048 z "
         style="fill:black;fill-opacity:1;fill-rule:nonzero;stroke:none;stroke-width:10;stroke-linecap:square;stroke-linejoin:bevel;stroke-miterlimit:4;stroke-dashoffset:0;stroke-opacity:1"
         id="rect1899" />
      <path
         d="M 326.51728,24.227931 L 575.77298,273.48364 C 590.46316,288.17382 590.46316,311.82659 575.77298,326.51677 L 326.51727,575.77248 C 311.8271,590.46266 288.17432,590.46266 273.48414,575.77248 L 24.228435,326.51677 C 9.5382579,311.8266 9.5382579,288.17382 24.228435,273.48364 L 273.48415,24.227931 C 288.17432,9.5377543 311.8271,9.5377543 326.51728,24.227931 z "
         style="fill:white;fill-opacity:1;fill-rule:nonzero;stroke:none;stroke-width:10;stroke-linecap:square;stroke-linejoin:bevel;stroke-miterlimit:4;stroke-dashoffset:0;stroke-opacity:1"
         id="rect2789" />
      <path
         d="M 311.90751,353.25627 C 311.90733,363.57088 309.80818,373.22475 305.61007,382.21791 C 301.4116,391.21115 295.65405,399.00746 288.3374,405.60684 C 281.02042,412.20627 272.32553,417.42393 262.2527,421.25986 C 252.1796,425.09579 241.38556,427.01375 229.87056,427.01376 C 218.35535,427.01375 207.55949,425.03539 197.48293,421.07868 C 187.40623,417.12196 178.71134,411.66455 171.39824,404.70643 C 164.08504,397.74834 158.32932,389.5915 154.13106,380.23589 C 149.93273,370.88037 147.83359,360.8074 147.83361,350.01696 C 147.83359,333.22387 150.05169,316.55149 154.48793,299.99978 C 158.9241,283.44832 165.21971,267.61597 173.37476,252.50268 C 181.52972,237.38974 191.30438,223.41679 202.69877,210.58379 C 214.09301,197.75121 226.74828,186.65704 240.66461,177.30123 L 260.0895,209.68337 C 252.65177,215.44479 246.11458,221.02299 240.47794,226.41799 C 234.84106,231.81337 229.68379,237.38974 225.0061,243.14711 C 220.32822,248.90484 216.07137,254.96253 212.23553,261.3202 C 208.39951,267.67819 204.68071,274.69303 201.07912,282.36475 C 208.04081,281.17165 213.37926,280.45425 217.0945,280.21253 C 220.80954,279.97109 225.06823,279.85031 229.87056,279.85016 C 240.90241,279.85031 251.3963,281.7701 261.35228,285.60955 C 271.30799,289.44927 280.06327,294.66694 287.61816,301.26256 C 295.17273,307.85843 301.10963,315.65473 305.42889,324.6515 C 309.74779,333.64845 311.90733,343.18337 311.90751,353.25627 L 311.90751,353.25627 z M 273.7605,352.53154 C 273.76035,347.97828 272.62201,343.54207 270.34549,339.22291 C 268.06868,334.90391 264.95199,331.18512 260.99541,328.0665 C 257.03856,324.94807 252.36078,322.42983 246.96205,320.51176 C 241.56308,318.5939 235.86592,317.63492 229.87056,317.63482 C 223.87499,317.63492 218.29862,318.5939 213.14144,320.51176 C 207.98408,322.42983 203.42525,324.94807 199.46495,328.0665 C 195.5045,331.18512 192.38598,334.90391 190.10938,339.22291 C 187.83265,343.54207 186.69431,347.97828 186.69438,352.53154 C 186.69431,357.33384 187.83265,361.89266 190.10938,366.20803 C 192.38598,370.5235 195.5045,374.30086 199.46495,377.54013 C 203.42525,380.77948 207.98408,383.35812 213.14144,385.27604 C 218.29862,387.19405 223.87499,388.15303 229.87056,388.15299 C 235.86592,388.15303 241.50269,387.19405 246.78087,385.27604 C 252.05881,383.35812 256.6762,380.77948 260.63305,377.54013 C 264.58963,374.30086 267.76671,370.5235 270.16431,366.20803 C 272.56162,361.89266 273.76035,357.33384 273.7605,352.53154 L 273.7605,352.53154 z M 381.31663,422.69833 L 381.31663,227.3184 L 359.36618,227.3184 L 359.36618,196.7371 L 361.88076,196.7371 C 366.91722,196.73733 371.9537,195.41781 376.99023,192.77855 C 382.02667,190.13975 386.22496,186.41912 389.58511,181.61665 L 420.16642,181.61665 L 420.16642,422.69833 L 381.31663,422.69833 z "
         style="font-size:359.81619263px"
         id="text2799" />
    </g>
  </g>
</svg>
