<?xml version="1.0" encoding="UTF-8"?>
<!DOCTYPE svg PUBLIC "-//W3C//DTD SVG 1.1//EN" "http://www.w3.org/Graphics/SVG/1.1/DTD/svg11.dtd">
<!-- Creator: CorelDRAW -->
<svg xmlns="http://www.w3.org/2000/svg" xml:space="preserve" width="210mm" height="297mm" style="shape-rendering:geometricPrecision; text-rendering:geometricPrecision; image-rendering:optimizeQuality; fill-rule:evenodd; clip-rule:evenodd"
viewBox="0 0 210 297"
 xmlns:xlink="http://www.w3.org/1999/xlink">
 <defs>
  <style type="text/css">
   <![CDATA[
    .str0 {stroke:#008E41;stroke-width:0.2}
    .fil0 {fill:#008E41}
    .fil2 {fill:#008E41;fill-rule:nonzero}
    .fil1 {fill:#FEFEFE;fill-rule:nonzero}
   ]]>
  </style>
 </defs>
 <g id="Layer_x0020_1">
  <metadata id="CorelCorpID_0Corel-Layer"/>
  <g id="_393920288">
   <path id="_396347072" class="fil0" d="M7.473 70.5858l89.8988 0c3.0994,0 5.613,2.5136 5.613,5.6131l0.0001 44.7363c-0.0001,3.0995 -2.5137,5.6131 -5.6132,5.6131l-89.8987 0c-3.0996,0 -5.6132,-2.5136 -5.6132,-5.6131l0.0001 -44.7363c-0.0001,-3.0995 2.5135,-5.6131 5.613,-5.6131z"/>
   <path id="_393919280" class="fil1" d="M14.2789 116.645l0 -30.8017 4.693 0 0 4.3762c2.2674,-3.3861 5.5346,-5.0792 9.8019,-5.0792 1.8613,0 3.5643,0.3367 5.1187,1.0001 1.5644,0.6732 2.7228,1.5445 3.4951,2.6335 0.7821,1.0793 1.3168,2.3664 1.6336,3.8515 0.1882,0.9703 0.2872,2.6633 0.2872,5.0792l0 18.9404 -5.2277 0 0 -18.7424c0,-2.1188 -0.1981,-3.7128 -0.604,-4.7722 -0.4059,-1.0496 -1.1287,-1.8911 -2.1583,-2.5148 -1.0397,-0.6337 -2.2475,-0.9505 -3.6436,-0.9505 -2.2277,0 -4.1386,0.7128 -5.7623,2.1188 -1.6139,1.4157 -2.4158,4.089 -2.4158,8.0395l0 16.8216 -5.2178 0zm55.1085 -9.9207l5.396 0.6633c-0.8515,3.1584 -2.4258,5.6039 -4.7228,7.3465 -2.3068,1.7326 -5.2474,2.604 -8.8216,2.604 -4.5049,0 -8.0792,-1.3862 -10.7127,-4.1584 -2.6436,-2.7723 -3.9604,-6.6633 -3.9604,-11.6731 0,-5.1881 1.3366,-9.2079 3.9999,-12.0692 2.6733,-2.8614 6.1287,-4.2971 10.386,-4.2971 4.1188,0 7.4851,1.406 10.0891,4.208 2.6138,2.8019 3.9207,6.7523 3.9207,11.8315 0,0.3168 -0.01,0.7822 -0.0297,1.3961l-22.97 0c0.188,3.386 1.1484,5.98 2.8712,7.7721 1.7227,1.802 3.8613,2.7029 6.4356,2.7029 1.9108,0 3.5445,-0.5049 4.9009,-1.5147 1.3565,-1.0001 2.4258,-2.6041 3.2178,-4.8119zm-17.1385 -8.4455l17.1979 0c-0.2277,-2.5841 -0.8911,-4.5346 -1.9702,-5.8217 -1.6634,-2.0099 -3.8219,-3.0197 -6.4653,-3.0197 -2.3961,0 -4.4158,0.8019 -6.0495,2.4059 -1.6336,1.6039 -2.5346,3.7523 -2.7129,6.4355zm41.485 13.6929l0.7524 4.6139c-1.4653,0.3069 -2.7821,0.4653 -3.9406,0.4653 -1.9009,0 -3.3663,-0.297 -4.4157,-0.901 -1.0396,-0.594 -1.7723,-1.3861 -2.1981,-2.3663 -0.4257,-0.9702 -0.6435,-3.0297 -0.6435,-6.1583l0 -17.7226 -3.8317 0 0 -4.0594 3.8317 0 0 -7.6336 5.198 -3.1287 0 10.7623 5.2475 0 0 4.0594 -5.2475 0 0 18.0096c0,1.4951 0.0891,2.4456 0.2673,2.8714 0.1881,0.4257 0.4852,0.7623 0.901,1.0198 0.4158,0.2475 1.0099,0.3761 1.7822,0.3761 0.5841,0 1.3464,-0.0692 2.297,-0.2079z"/>
   <path id="_393917960" class="fil2" d="M108.982 127.294l0 -42.6035 4.7524 0 0 3.9999c1.1188,-1.5643 2.3861,-2.7425 3.8019,-3.5247 1.406,-0.7821 3.1188,-1.1782 5.1287,-1.1782 2.6337,0 4.9504,0.6832 6.9604,2.0297 2.0197,1.3565 3.5345,3.2673 4.5543,5.7326 1.0297,2.4653 1.5445,5.1682 1.5445,8.1088 0,3.1485 -0.5643,5.9901 -1.7029,8.5148 -1.1287,2.5247 -2.7723,4.4554 -4.9306,5.8019 -2.1584,1.3366 -4.4257,2.0099 -6.802,2.0099 -1.7425,0 -3.2969,-0.3664 -4.6831,-1.099 -1.3861,-0.7326 -2.5148,-1.6634 -3.4058,-2.7822l0 14.99 -5.2178 0zm4.7227 -27.0294c0,3.9604 0.802,6.8909 2.4059,8.792 1.604,1.891 3.5545,2.8415 5.8317,2.8415 2.3167,0 4.3068,-0.9802 5.9603,-2.9505 1.6534,-1.9603 2.4851,-4.9999 2.4851,-9.1187 0,-3.9306 -0.8118,-6.8612 -2.4257,-8.8217 -1.6139,-1.9504 -3.5446,-2.9307 -5.7822,-2.9307 -2.2276,0 -4.1979,1.0397 -5.9108,3.1189 -1.7128,2.0792 -2.5643,5.1088 -2.5643,9.0692zm28.3363 15.2275l0 -30.8016 5.2277 0 0 30.8016 -5.2277 0zm13.1781 0l0 -30.8016 4.693 0 0 4.3762c2.2673,-3.3862 5.5346,-5.0792 9.8019,-5.0792 1.8613,0 3.5643,0.3367 5.1187,1 1.5644,0.6733 2.7228,1.5445 3.495,2.6336 0.7822,1.0793 1.3169,2.3663 1.6337,3.8515 0.1881,0.9702 0.2871,2.6633 0.2871,5.0791l0 18.9404 -5.2277 0 0 -18.7423c0,-2.1189 -0.198,-3.7129 -0.6039,-4.7723 -0.406,-1.0495 -1.1287,-1.891 -2.1584,-2.5148 -1.0396,-0.6337 -2.2475,-0.9505 -3.6435,-0.9505 -2.2278,0 -4.1386,0.7129 -5.7623,2.1188 -1.6139,1.4158 -2.4158,4.0891 -2.4158,8.0396l0 16.8215 -5.2178 0zm32.0788 2.5544l5.0792 0.7525c0.2079,1.5644 0.802,2.7029 1.7624,3.4257 1.297,0.9604 3.0692,1.4456 5.3068,1.4456 2.4257,0 4.2871,-0.4852 5.6039,-1.4456 1.3169,-0.9703 2.198,-2.3266 2.6633,-4.0593 0.2773,-1.0693 0.3961,-3.297 0.3763,-6.7029 -2.2772,2.6831 -5.1188,4.0296 -8.5247,4.0296 -4.2375,0 -7.5147,-1.5247 -9.8315,-4.5841 -2.3169,-3.0495 -3.4851,-6.7227 -3.4851,-10.99 0,-2.9406 0.5346,-5.6534 1.594,-8.1385 1.0693,-2.4852 2.6138,-4.4058 4.6336,-5.7623 2.0198,-1.3465 4.396,-2.0297 7.1188,-2.0297 3.6335,0 6.6335,1.4752 8.9899,4.4158l0 -3.7128 4.8218 0 0 26.6235c0,4.792 -0.4951,8.1979 -1.4654,10.1978 -0.9802,2.0001 -2.5246,3.5842 -4.6435,4.7425 -2.1188,1.1585 -4.7227,1.7427 -7.8217,1.7427 -3.6732,0 -6.6435,-0.8318 -8.9008,-2.4852 -2.2674,-1.6535 -3.3564,-4.1385 -3.2773,-7.4653zm4.3168 -18.5047c0,4.0396 0.802,6.99 2.4158,8.8414 1.604,1.8615 3.6138,2.7822 6.0297,2.7822 2.396,0 4.4058,-0.9207 6.0296,-2.7623 1.6237,-1.8515 2.4356,-4.7425 2.4356,-8.693 0,-3.7722 -0.8316,-6.6138 -2.5049,-8.5246 -1.6732,-1.9109 -3.6931,-2.8713 -6.0494,-2.8713 -2.3168,0 -4.2871,0.9406 -5.9207,2.8317 -1.6238,1.8811 -2.4357,4.6831 -2.4357,8.3959z"/>
   <path id="_393918080" class="fil0 str0" d="M141.144 80.8738l8.9251 -5.1517 -8.9251 -5.1516 2.9798 5.1516 -2.9798 5.1517zm8.2407 -5.1517l-4.8617 0 -2.4404 -4.2201 7.3021 4.2201z"/>
  </g>
 </g>
</svg>
