<?xml version="1.0" encoding="UTF-8" standalone="no"?>
<svg
   xmlns:dc="http://purl.org/dc/elements/1.1/"
   xmlns:cc="http://creativecommons.org/ns#"
   xmlns:rdf="http://www.w3.org/1999/02/22-rdf-syntax-ns#"
   xmlns:svg="http://www.w3.org/2000/svg"
   xmlns="http://www.w3.org/2000/svg"
   xmlns:sodipodi="http://sodipodi.sourceforge.net/DTD/sodipodi-0.dtd"
   xmlns:inkscape="http://www.inkscape.org/namespaces/inkscape"
   version="1.1"
   width="360.0"
   height="267.9"
   id="svg2"
   inkscape:version="0.91 r13725"
   sodipodi:docname="New South Wales Legislative Assembly 1891.svg">
  <metadata
     id="metadata323">
    <rdf:RDF>
      <cc:Work
         rdf:about="">
        <dc:format>image/svg+xml</dc:format>
        <dc:type
           rdf:resource="http://purl.org/dc/dcmitype/StillImage" />
        <dc:title></dc:title>
      </cc:Work>
    </rdf:RDF>
  </metadata>
  <defs
     id="defs321" />
  <sodipodi:namedview
     pagecolor="#ffffff"
     bordercolor="#666666"
     borderopacity="1"
     objecttolerance="10"
     gridtolerance="10"
     guidetolerance="10"
     inkscape:pageopacity="0"
     inkscape:pageshadow="2"
     inkscape:window-width="807"
     inkscape:window-height="480"
     id="namedview319"
     showgrid="false"
     inkscape:zoom="0.76111111"
     inkscape:cx="180"
     inkscape:cy="133.95"
     inkscape:window-x="78"
     inkscape:window-y="23"
     inkscape:window-maximized="0"
     inkscape:current-layer="svg2" />
  <!-- Created with the Wikimedia westminster parliament diagram creator (http://tools.wmflabs.org/parliamentdiagram/westminsterinputform.html) -->
  <g
     id="diagram">
    <g
       id="headbench" />
    <g
       id="leftbench">
      <g
         style="fill:#1E90FF"
         id="Protectionist">
        <rect
           x="5.9211"
           y="98.0263"
           rx="0.00"
           ry="0.00"
           width="16.58"
           height="16.58"
           id="rect8" />
        <rect
           x="5.9211"
           y="79.6053"
           rx="0.00"
           ry="0.00"
           width="16.58"
           height="16.58"
           id="rect10" />
        <rect
           x="5.9211"
           y="61.1842"
           rx="0.00"
           ry="0.00"
           width="16.58"
           height="16.58"
           id="rect12" />
        <rect
           x="5.9211"
           y="42.7632"
           rx="0.00"
           ry="0.00"
           width="16.58"
           height="16.58"
           id="rect14" />
        <rect
           x="5.9211"
           y="24.3421"
           rx="0.00"
           ry="0.00"
           width="16.58"
           height="16.58"
           id="rect16" />
        <rect
           x="5.9211"
           y="5.9211"
           rx="0.00"
           ry="0.00"
           width="16.58"
           height="16.58"
           id="rect18" />
        <rect
           x="24.3421"
           y="98.0263"
           rx="0.00"
           ry="0.00"
           width="16.58"
           height="16.58"
           id="rect20" />
        <rect
           x="24.3421"
           y="79.6053"
           rx="0.00"
           ry="0.00"
           width="16.58"
           height="16.58"
           id="rect22" />
        <rect
           x="24.3421"
           y="61.1842"
           rx="0.00"
           ry="0.00"
           width="16.58"
           height="16.58"
           id="rect24" />
        <rect
           x="24.3421"
           y="42.7632"
           rx="0.00"
           ry="0.00"
           width="16.58"
           height="16.58"
           id="rect26" />
        <rect
           x="24.3421"
           y="24.3421"
           rx="0.00"
           ry="0.00"
           width="16.58"
           height="16.58"
           id="rect28" />
        <rect
           x="24.3421"
           y="5.9211"
           rx="0.00"
           ry="0.00"
           width="16.58"
           height="16.58"
           id="rect30" />
        <rect
           x="42.7632"
           y="98.0263"
           rx="0.00"
           ry="0.00"
           width="16.58"
           height="16.58"
           id="rect32" />
        <rect
           x="42.7632"
           y="79.6053"
           rx="0.00"
           ry="0.00"
           width="16.58"
           height="16.58"
           id="rect34" />
        <rect
           x="42.7632"
           y="61.1842"
           rx="0.00"
           ry="0.00"
           width="16.58"
           height="16.58"
           id="rect36" />
        <rect
           x="42.7632"
           y="42.7632"
           rx="0.00"
           ry="0.00"
           width="16.58"
           height="16.58"
           id="rect38" />
        <rect
           x="42.7632"
           y="24.3421"
           rx="0.00"
           ry="0.00"
           width="16.58"
           height="16.58"
           id="rect40" />
        <rect
           x="42.7632"
           y="5.9211"
           rx="0.00"
           ry="0.00"
           width="16.58"
           height="16.58"
           id="rect42" />
        <rect
           x="61.1842"
           y="98.0263"
           rx="0.00"
           ry="0.00"
           width="16.58"
           height="16.58"
           id="rect44" />
        <rect
           x="61.1842"
           y="79.6053"
           rx="0.00"
           ry="0.00"
           width="16.58"
           height="16.58"
           id="rect46" />
        <rect
           x="61.1842"
           y="61.1842"
           rx="0.00"
           ry="0.00"
           width="16.58"
           height="16.58"
           id="rect48" />
        <rect
           x="61.1842"
           y="42.7632"
           rx="0.00"
           ry="0.00"
           width="16.58"
           height="16.58"
           id="rect50" />
        <rect
           x="61.1842"
           y="24.3421"
           rx="0.00"
           ry="0.00"
           width="16.58"
           height="16.58"
           id="rect52" />
        <rect
           x="61.1842"
           y="5.9211"
           rx="0.00"
           ry="0.00"
           width="16.58"
           height="16.58"
           id="rect54" />
        <rect
           x="79.6053"
           y="98.0263"
           rx="0.00"
           ry="0.00"
           width="16.58"
           height="16.58"
           id="rect56" />
        <rect
           x="79.6053"
           y="79.6053"
           rx="0.00"
           ry="0.00"
           width="16.58"
           height="16.58"
           id="rect58" />
        <rect
           x="79.6053"
           y="61.1842"
           rx="0.00"
           ry="0.00"
           width="16.58"
           height="16.58"
           id="rect60" />
        <rect
           x="79.6053"
           y="42.7632"
           rx="0.00"
           ry="0.00"
           width="16.58"
           height="16.58"
           id="rect62" />
        <rect
           x="79.6053"
           y="24.3421"
           rx="0.00"
           ry="0.00"
           width="16.58"
           height="16.58"
           id="rect64" />
        <rect
           x="79.6053"
           y="5.9211"
           rx="0.00"
           ry="0.00"
           width="16.58"
           height="16.58"
           id="rect66" />
        <rect
           x="98.0263"
           y="98.0263"
           rx="0.00"
           ry="0.00"
           width="16.58"
           height="16.58"
           id="rect68" />
        <rect
           x="98.0263"
           y="79.6053"
           rx="0.00"
           ry="0.00"
           width="16.58"
           height="16.58"
           id="rect70" />
        <rect
           x="98.0263"
           y="61.1842"
           rx="0.00"
           ry="0.00"
           width="16.58"
           height="16.58"
           id="rect72" />
        <rect
           x="98.0263"
           y="42.7632"
           rx="0.00"
           ry="0.00"
           width="16.58"
           height="16.58"
           id="rect74" />
        <rect
           x="98.0263"
           y="24.3421"
           rx="0.00"
           ry="0.00"
           width="16.58"
           height="16.58"
           id="rect76" />
        <rect
           x="98.0263"
           y="5.9211"
           rx="0.00"
           ry="0.00"
           width="16.58"
           height="16.58"
           id="rect78" />
        <rect
           x="116.4474"
           y="98.0263"
           rx="0.00"
           ry="0.00"
           width="16.58"
           height="16.58"
           id="rect80" />
        <rect
           x="116.4474"
           y="79.6053"
           rx="0.00"
           ry="0.00"
           width="16.58"
           height="16.58"
           id="rect82" />
        <rect
           x="116.4474"
           y="61.1842"
           rx="0.00"
           ry="0.00"
           width="16.58"
           height="16.58"
           id="rect84" />
        <rect
           x="116.4474"
           y="42.7632"
           rx="0.00"
           ry="0.00"
           width="16.58"
           height="16.58"
           id="rect86" />
        <rect
           x="116.4474"
           y="24.3421"
           rx="0.00"
           ry="0.00"
           width="16.58"
           height="16.58"
           id="rect88" />
        <rect
           x="116.4474"
           y="5.9211"
           rx="0.00"
           ry="0.00"
           width="16.58"
           height="16.58"
           id="rect90" />
        <rect
           x="134.8684"
           y="98.0263"
           rx="0.00"
           ry="0.00"
           width="16.58"
           height="16.58"
           id="rect92" />
        <rect
           x="134.8684"
           y="79.6053"
           rx="0.00"
           ry="0.00"
           width="16.58"
           height="16.58"
           id="rect94" />
        <rect
           x="134.8684"
           y="61.1842"
           rx="0.00"
           ry="0.00"
           width="16.58"
           height="16.58"
           id="rect96" />
        <rect
           x="134.8684"
           y="42.7632"
           rx="0.00"
           ry="0.00"
           width="16.58"
           height="16.58"
           id="rect98" />
        <rect
           x="134.8684"
           y="24.3421"
           rx="0.00"
           ry="0.00"
           width="16.58"
           height="16.58"
           id="rect100" />
        <rect
           x="134.8684"
           y="5.9211"
           rx="0.00"
           ry="0.00"
           width="16.58"
           height="16.58"
           id="rect102" />
        <rect
           x="153.2895"
           y="98.0263"
           rx="0.00"
           ry="0.00"
           width="16.58"
           height="16.58"
           id="rect104" />
        <rect
           x="153.2895"
           y="79.6053"
           rx="0.00"
           ry="0.00"
           width="16.58"
           height="16.58"
           id="rect106" />
        <rect
           x="153.2895"
           y="61.1842"
           rx="0.00"
           ry="0.00"
           width="16.58"
           height="16.58"
           id="rect108" />
        <rect
           x="153.2895"
           y="42.7632"
           rx="0.00"
           ry="0.00"
           width="16.58"
           height="16.58"
           id="rect110" />
      </g>
      <g
         style="fill:#B60000"
         id="Labour">
        <rect
           x="153.2895"
           y="24.3421"
           rx="0.00"
           ry="0.00"
           width="16.58"
           height="16.58"
           id="rect113" />
        <rect
           x="153.2895"
           y="5.9211"
           rx="0.00"
           ry="0.00"
           width="16.58"
           height="16.58"
           id="rect115" />
        <rect
           x="171.7105"
           y="98.0263"
           rx="0.00"
           ry="0.00"
           width="16.58"
           height="16.58"
           id="rect117" />
        <rect
           x="171.7105"
           y="79.6053"
           rx="0.00"
           ry="0.00"
           width="16.58"
           height="16.58"
           id="rect119" />
        <rect
           x="171.7105"
           y="61.1842"
           rx="0.00"
           ry="0.00"
           width="16.58"
           height="16.58"
           id="rect121" />
        <rect
           x="171.7105"
           y="42.7632"
           rx="0.00"
           ry="0.00"
           width="16.58"
           height="16.58"
           id="rect123" />
        <rect
           x="171.7105"
           y="24.3421"
           rx="0.00"
           ry="0.00"
           width="16.58"
           height="16.58"
           id="rect125" />
        <rect
           x="171.7105"
           y="5.9211"
           rx="0.00"
           ry="0.00"
           width="16.58"
           height="16.58"
           id="rect127" />
        <rect
           x="190.1316"
           y="98.0263"
           rx="0.00"
           ry="0.00"
           width="16.58"
           height="16.58"
           id="rect129" />
        <rect
           x="190.1316"
           y="79.6053"
           rx="0.00"
           ry="0.00"
           width="16.58"
           height="16.58"
           id="rect131" />
        <rect
           x="190.1316"
           y="61.1842"
           rx="0.00"
           ry="0.00"
           width="16.58"
           height="16.58"
           id="rect133" />
        <rect
           x="190.1316"
           y="42.7632"
           rx="0.00"
           ry="0.00"
           width="16.58"
           height="16.58"
           id="rect135" />
        <rect
           x="190.1316"
           y="24.3421"
           rx="0.00"
           ry="0.00"
           width="16.58"
           height="16.58"
           id="rect137" />
        <rect
           x="190.1316"
           y="5.9211"
           rx="0.00"
           ry="0.00"
           width="16.58"
           height="16.58"
           id="rect139" />
        <rect
           x="208.5526"
           y="98.0263"
           rx="0.00"
           ry="0.00"
           width="16.58"
           height="16.58"
           id="rect141" />
        <rect
           x="208.5526"
           y="79.6053"
           rx="0.00"
           ry="0.00"
           width="16.58"
           height="16.58"
           id="rect143" />
        <rect
           x="208.5526"
           y="61.1842"
           rx="0.00"
           ry="0.00"
           width="16.58"
           height="16.58"
           id="rect145" />
        <rect
           x="208.5526"
           y="42.7632"
           rx="0.00"
           ry="0.00"
           width="16.58"
           height="16.58"
           id="rect147" />
        <rect
           x="208.5526"
           y="24.3421"
           rx="0.00"
           ry="0.00"
           width="16.58"
           height="16.58"
           id="rect149" />
        <rect
           x="208.5526"
           y="5.9211"
           rx="0.00"
           ry="0.00"
           width="16.58"
           height="16.58"
           id="rect151" />
        <rect
           x="226.9737"
           y="98.0263"
           rx="0.00"
           ry="0.00"
           width="16.58"
           height="16.58"
           id="rect153" />
        <rect
           x="226.9737"
           y="79.6053"
           rx="0.00"
           ry="0.00"
           width="16.58"
           height="16.58"
           id="rect155" />
        <rect
           x="226.9737"
           y="61.1842"
           rx="0.00"
           ry="0.00"
           width="16.58"
           height="16.58"
           id="rect157" />
        <rect
           x="226.9737"
           y="42.7632"
           rx="0.00"
           ry="0.00"
           width="16.58"
           height="16.58"
           id="rect159" />
        <rect
           x="226.9737"
           y="24.3421"
           rx="0.00"
           ry="0.00"
           width="16.58"
           height="16.58"
           id="rect161" />
        <rect
           x="226.9737"
           y="5.9211"
           rx="0.00"
           ry="0.00"
           width="16.58"
           height="16.58"
           id="rect163" />
        <rect
           x="245.3947"
           y="98.0263"
           rx="0.00"
           ry="0.00"
           width="16.58"
           height="16.58"
           id="rect165" />
        <rect
           x="245.3947"
           y="79.6053"
           rx="0.00"
           ry="0.00"
           width="16.58"
           height="16.58"
           id="rect167" />
        <rect
           x="245.3947"
           y="61.1842"
           rx="0.00"
           ry="0.00"
           width="16.58"
           height="16.58"
           id="rect169" />
        <rect
           x="245.3947"
           y="42.7632"
           rx="0.00"
           ry="0.00"
           width="16.58"
           height="16.58"
           id="rect171" />
        <rect
           x="245.3947"
           y="24.3421"
           rx="0.00"
           ry="0.00"
           width="16.58"
           height="16.58"
           id="rect173" />
        <rect
           x="245.3947"
           y="5.9211"
           rx="0.00"
           ry="0.00"
           width="16.58"
           height="16.58"
           id="rect175" />
        <rect
           x="263.8158"
           y="98.0263"
           rx="0.00"
           ry="0.00"
           width="16.58"
           height="16.58"
           id="rect177" />
        <rect
           x="263.8158"
           y="79.6053"
           rx="0.00"
           ry="0.00"
           width="16.58"
           height="16.58"
           id="rect179" />
        <rect
           x="263.8158"
           y="61.1842"
           rx="0.00"
           ry="0.00"
           width="16.58"
           height="16.58"
           id="rect181" />
      </g>
    </g>
    <g
       id="rightbench">
      <g
         style="fill:#BFFF00"
         id="Free Trade">
        <rect
           x="5.9211"
           y="153.2895"
           rx="0.00"
           ry="0.00"
           width="16.58"
           height="16.58"
           id="rect185" />
        <rect
           x="5.9211"
           y="171.7105"
           rx="0.00"
           ry="0.00"
           width="16.58"
           height="16.58"
           id="rect187" />
        <rect
           x="5.9211"
           y="190.1316"
           rx="0.00"
           ry="0.00"
           width="16.58"
           height="16.58"
           id="rect189" />
        <rect
           x="5.9211"
           y="208.5526"
           rx="0.00"
           ry="0.00"
           width="16.58"
           height="16.58"
           id="rect191" />
        <rect
           x="5.9211"
           y="226.9737"
           rx="0.00"
           ry="0.00"
           width="16.58"
           height="16.58"
           id="rect193" />
        <rect
           x="5.9211"
           y="245.3947"
           rx="0.00"
           ry="0.00"
           width="16.58"
           height="16.58"
           id="rect195" />
        <rect
           x="24.3421"
           y="153.2895"
           rx="0.00"
           ry="0.00"
           width="16.58"
           height="16.58"
           id="rect197" />
        <rect
           x="24.3421"
           y="171.7105"
           rx="0.00"
           ry="0.00"
           width="16.58"
           height="16.58"
           id="rect199" />
        <rect
           x="24.3421"
           y="190.1316"
           rx="0.00"
           ry="0.00"
           width="16.58"
           height="16.58"
           id="rect201" />
        <rect
           x="24.3421"
           y="208.5526"
           rx="0.00"
           ry="0.00"
           width="16.58"
           height="16.58"
           id="rect203" />
        <rect
           x="24.3421"
           y="226.9737"
           rx="0.00"
           ry="0.00"
           width="16.58"
           height="16.58"
           id="rect205" />
        <rect
           x="24.3421"
           y="245.3947"
           rx="0.00"
           ry="0.00"
           width="16.58"
           height="16.58"
           id="rect207" />
        <rect
           x="42.7632"
           y="153.2895"
           rx="0.00"
           ry="0.00"
           width="16.58"
           height="16.58"
           id="rect209" />
        <rect
           x="42.7632"
           y="171.7105"
           rx="0.00"
           ry="0.00"
           width="16.58"
           height="16.58"
           id="rect211" />
        <rect
           x="42.7632"
           y="190.1316"
           rx="0.00"
           ry="0.00"
           width="16.58"
           height="16.58"
           id="rect213" />
        <rect
           x="42.7632"
           y="208.5526"
           rx="0.00"
           ry="0.00"
           width="16.58"
           height="16.58"
           id="rect215" />
        <rect
           x="42.7632"
           y="226.9737"
           rx="0.00"
           ry="0.00"
           width="16.58"
           height="16.58"
           id="rect217" />
        <rect
           x="42.7632"
           y="245.3947"
           rx="0.00"
           ry="0.00"
           width="16.58"
           height="16.58"
           id="rect219" />
        <rect
           x="61.1842"
           y="153.2895"
           rx="0.00"
           ry="0.00"
           width="16.58"
           height="16.58"
           id="rect221" />
        <rect
           x="61.1842"
           y="171.7105"
           rx="0.00"
           ry="0.00"
           width="16.58"
           height="16.58"
           id="rect223" />
        <rect
           x="61.1842"
           y="190.1316"
           rx="0.00"
           ry="0.00"
           width="16.58"
           height="16.58"
           id="rect225" />
        <rect
           x="61.1842"
           y="208.5526"
           rx="0.00"
           ry="0.00"
           width="16.58"
           height="16.58"
           id="rect227" />
        <rect
           x="61.1842"
           y="226.9737"
           rx="0.00"
           ry="0.00"
           width="16.58"
           height="16.58"
           id="rect229" />
        <rect
           x="61.1842"
           y="245.3947"
           rx="0.00"
           ry="0.00"
           width="16.58"
           height="16.58"
           id="rect231" />
        <rect
           x="79.6053"
           y="153.2895"
           rx="0.00"
           ry="0.00"
           width="16.58"
           height="16.58"
           id="rect233" />
        <rect
           x="79.6053"
           y="171.7105"
           rx="0.00"
           ry="0.00"
           width="16.58"
           height="16.58"
           id="rect235" />
        <rect
           x="79.6053"
           y="190.1316"
           rx="0.00"
           ry="0.00"
           width="16.58"
           height="16.58"
           id="rect237" />
        <rect
           x="79.6053"
           y="208.5526"
           rx="0.00"
           ry="0.00"
           width="16.58"
           height="16.58"
           id="rect239" />
        <rect
           x="79.6053"
           y="226.9737"
           rx="0.00"
           ry="0.00"
           width="16.58"
           height="16.58"
           id="rect241" />
        <rect
           x="79.6053"
           y="245.3947"
           rx="0.00"
           ry="0.00"
           width="16.58"
           height="16.58"
           id="rect243" />
        <rect
           x="98.0263"
           y="153.2895"
           rx="0.00"
           ry="0.00"
           width="16.58"
           height="16.58"
           id="rect245" />
        <rect
           x="98.0263"
           y="171.7105"
           rx="0.00"
           ry="0.00"
           width="16.58"
           height="16.58"
           id="rect247" />
        <rect
           x="98.0263"
           y="190.1316"
           rx="0.00"
           ry="0.00"
           width="16.58"
           height="16.58"
           id="rect249" />
        <rect
           x="98.0263"
           y="208.5526"
           rx="0.00"
           ry="0.00"
           width="16.58"
           height="16.58"
           id="rect251" />
        <rect
           x="98.0263"
           y="226.9737"
           rx="0.00"
           ry="0.00"
           width="16.58"
           height="16.58"
           id="rect253" />
        <rect
           x="98.0263"
           y="245.3947"
           rx="0.00"
           ry="0.00"
           width="16.58"
           height="16.58"
           id="rect255" />
        <rect
           x="116.4474"
           y="153.2895"
           rx="0.00"
           ry="0.00"
           width="16.58"
           height="16.58"
           id="rect257" />
        <rect
           x="116.4474"
           y="171.7105"
           rx="0.00"
           ry="0.00"
           width="16.58"
           height="16.58"
           id="rect259" />
        <rect
           x="116.4474"
           y="190.1316"
           rx="0.00"
           ry="0.00"
           width="16.58"
           height="16.58"
           id="rect261" />
        <rect
           x="116.4474"
           y="208.5526"
           rx="0.00"
           ry="0.00"
           width="16.58"
           height="16.58"
           id="rect263" />
        <rect
           x="116.4474"
           y="226.9737"
           rx="0.00"
           ry="0.00"
           width="16.58"
           height="16.58"
           id="rect265" />
        <rect
           x="116.4474"
           y="245.3947"
           rx="0.00"
           ry="0.00"
           width="16.58"
           height="16.58"
           id="rect267" />
        <rect
           x="134.8684"
           y="153.2895"
           rx="0.00"
           ry="0.00"
           width="16.58"
           height="16.58"
           id="rect269" />
        <rect
           x="134.8684"
           y="171.7105"
           rx="0.00"
           ry="0.00"
           width="16.58"
           height="16.58"
           id="rect271" />
      </g>
    </g>
    <g
       id="centerbench">
      <g
         style="fill:#DDDDDD"
         id="Independent">
        <rect
           x="300.6579"
           y="61.1842"
           rx="0.00"
           ry="0.00"
           width="16.58"
           height="16.58"
           id="rect275" />
        <rect
           x="319.0789"
           y="61.1842"
           rx="0.00"
           ry="0.00"
           width="16.58"
           height="16.58"
           id="rect277" />
        <rect
           x="337.5000"
           y="79.6053"
           rx="0.00"
           ry="0.00"
           width="16.58"
           height="16.58"
           id="rect279" />
        <rect
           x="300.6579"
           y="79.6053"
           rx="0.00"
           ry="0.00"
           width="16.58"
           height="16.58"
           id="rect281" />
        <rect
           x="319.0789"
           y="79.6053"
           rx="0.00"
           ry="0.00"
           width="16.58"
           height="16.58"
           id="rect283" />
        <rect
           x="300.6579"
           y="98.0263"
           rx="0.00"
           ry="0.00"
           width="16.58"
           height="16.58"
           id="rect285" />
        <rect
           x="319.0789"
           y="98.0263"
           rx="0.00"
           ry="0.00"
           width="16.58"
           height="16.58"
           id="rect287" />
        <rect
           x="337.5000"
           y="98.0263"
           rx="0.00"
           ry="0.00"
           width="16.58"
           height="16.58"
           id="rect289" />
        <rect
           x="300.6579"
           y="116.4474"
           rx="0.00"
           ry="0.00"
           width="16.58"
           height="16.58"
           id="rect291" />
        <rect
           x="319.0789"
           y="116.4474"
           rx="0.00"
           ry="0.00"
           width="16.58"
           height="16.58"
           id="rect293" />
        <rect
           x="337.5000"
           y="116.4474"
           rx="0.00"
           ry="0.00"
           width="16.58"
           height="16.58"
           id="rect295" />
        <rect
           x="300.6579"
           y="134.8684"
           rx="0.00"
           ry="0.00"
           width="16.58"
           height="16.58"
           id="rect297" />
        <rect
           x="319.0789"
           y="134.8684"
           rx="0.00"
           ry="0.00"
           width="16.58"
           height="16.58"
           id="rect299" />
        <rect
           x="337.5000"
           y="134.8684"
           rx="0.00"
           ry="0.00"
           width="16.58"
           height="16.58"
           id="rect301" />
        <rect
           x="300.6579"
           y="153.2895"
           rx="0.00"
           ry="0.00"
           width="16.58"
           height="16.58"
           id="rect303" />
        <rect
           x="319.0789"
           y="153.2895"
           rx="0.00"
           ry="0.00"
           width="16.58"
           height="16.58"
           id="rect305" />
        <rect
           x="337.5000"
           y="153.2895"
           rx="0.00"
           ry="0.00"
           width="16.58"
           height="16.58"
           id="rect307" />
        <rect
           x="300.6579"
           y="171.7105"
           rx="0.00"
           ry="0.00"
           width="16.58"
           height="16.58"
           id="rect309" />
        <rect
           x="319.0789"
           y="171.7105"
           rx="0.00"
           ry="0.00"
           width="16.58"
           height="16.58"
           id="rect311" />
        <rect
           x="337.5000"
           y="171.7105"
           rx="0.00"
           ry="0.00"
           width="16.58"
           height="16.58"
           id="rect313" />
        <rect
           x="300.6579"
           y="190.1316"
           rx="0.00"
           ry="0.00"
           width="16.58"
           height="16.58"
           id="rect315" />
        <rect
           x="319.0789"
           y="190.1316"
           rx="0.00"
           ry="0.00"
           width="16.58"
           height="16.58"
           id="rect317" />
      </g>
    </g>
  </g>
</svg>
