<?xml version="1.0" encoding="UTF-8" standalone="no"?>
<!-- Created with Inkscape (http://www.inkscape.org/) -->

<svg
   width="126.04351mm"
   height="141.00851mm"
   viewBox="0 0 126.04351 141.00851"
   version="1.1"
   id="svg5"
   xmlns:inkscape="http://www.inkscape.org/namespaces/inkscape"
   xmlns:sodipodi="http://sodipodi.sourceforge.net/DTD/sodipodi-0.dtd"
   xmlns="http://www.w3.org/2000/svg"
   xmlns:svg="http://www.w3.org/2000/svg">
  <sodipodi:namedview
     id="namedview7"
     pagecolor="#ffffff"
     bordercolor="#cccccc"
     borderopacity="1"
     inkscape:showpageshadow="0"
     inkscape:pageopacity="1"
     inkscape:pagecheckerboard="0"
     inkscape:deskcolor="#d1d1d1"
     inkscape:document-units="mm"
     showgrid="false" />
  <defs
     id="defs2" />
  <g
     inkscape:label="Layer 1"
     inkscape:groupmode="layer"
     id="layer1"
     transform="translate(-37.268487,-14.029007)">
    <g
       id="g1666">
      <g
         id="g1230"
         transform="translate(-9.3623995,22.068513)"
         inkscape:export-filename="NHK sarameshi logo.svg"
         inkscape:export-xdpi="96"
         inkscape:export-ydpi="96">
        <path
           id="rect346"
           style="fill:#ff5400;fill-rule:evenodd;stroke-width:8.07629"
           d="M 46.921911,16.835604 H 172.38336 C 172.54459,16.835604 172.67439,16.965401 172.67439,17.126629 V 132.67797 C 172.67439,132.8392 172.54459,132.969 172.38336,132.969 H 46.921911 C 46.760683,132.969 46.630886,132.8392 46.630886,132.67797 V 17.126629 C 46.630886,16.965401 46.760683,16.835604 46.921911,16.835604 Z" />
        <g
           aria-label="サラ
メシ"
           transform="scale(0.99217356,1.0078882)"
           id="text402"
           style="font-weight:bold;font-size:50.4024px;line-height:0.9;font-family:'Arphic YuyuGothictai4 Extra JIS';-inkscape-font-specification:'Arphic YuyuGothictai4 Extra JIS Bold';text-align:center;text-anchor:middle;fill:#eb6b26;fill-rule:evenodd;stroke-width:7.24088">
          <path
             d="M 80.755027,69.623143 Q 85.392048,64.330891 87.559351,59.038639 89.777057,53.746387 90.029069,48.706147 L 90.180276,45.127576 H 79.797382 L 79.394162,55.762483 73.04346,56.568921 V 45.127576 H 63.517406 L 62.509358,40.288946 73.04346,39.835324 V 28.645991 L 80.40221,29.402027 79.998991,39.53291 90.281081,39.028886 Q 90.281081,36.206351 90.230679,33.383817 90.230679,30.51088 90.180276,27.738748 L 97.690234,28.645991 Q 97.639832,31.266916 97.589429,33.787036 97.589429,36.307156 97.488624,38.726471 L 108.02273,38.222447 V 45.127576 H 97.18621 Q 97.135808,46.186027 96.9846,47.244477 96.883796,48.252525 96.782991,49.310976 96.329369,53.544777 95.119712,57.324957 93.960456,61.105137 91.389934,64.784513 88.819411,68.413486 84.131988,72.244068 Z"
             style="font-family:'RocknRoll One';-inkscape-font-specification:'RocknRoll One Bold';fill:#ffffff"
             id="path2465" />
          <path
             d="M 121.83289,35.450315 120.32082,30.662087 148.59656,28.545186 V 35.450315 Z M 124.75623,68.211876 Q 132.97182,64.482098 138.51608,59.189846 144.06035,53.897594 147.3365,47.798904 H 116.99426 L 115.43178,43.212285 152.37674,41.145787 156.35853,46.337234 Q 152.52795,53.292765 148.14294,58.181798 143.80834,63.020429 138.56649,66.246182 133.37504,69.421534 127.02434,71.43763 Z"
             style="font-family:'RocknRoll One';-inkscape-font-specification:'RocknRoll One Bold';fill:#ffffff"
             id="path2467" />
          <path
             d="M 96.631784,113.13144 Q 94.8677,110.76253 93.103616,108.59522 91.339531,106.42792 89.575447,104.41182 85.140036,109.45206 79.595772,113.33305 74.10191,117.16363 67.146379,120.03657 L 64.827869,117.01242 Q 70.976961,113.43385 76.017202,109.14965 81.057442,104.86545 85.039231,99.522791 82.367904,96.750659 79.444565,94.129734 76.521226,91.508809 73.194667,88.887885 L 75.76519,86.216557 Q 79.14215,88.182251 82.267099,90.248749 85.442451,92.264846 88.466595,94.482551 92.801201,87.224605 95.623736,77.799356 L 102.83128,81.125915 Q 99.000696,91.3072 93.910054,98.766755 96.12776,100.63164 98.295063,102.69814 100.46237,104.71424 102.52886,106.98235 Z"
             style="font-family:'RocknRoll One';-inkscape-font-specification:'RocknRoll One Bold';fill:#ffffff"
             id="path2469" />
          <path
             d="M 139.77614,84.704485 Q 139.77614,87.022996 138.11286,88.58547 136.49999,90.147945 134.23188,90.147945 131.91337,90.147945 130.30049,88.58547 128.73802,87.022996 128.73802,84.704485 128.73802,82.385975 130.30049,80.773098 131.91337,79.160221 134.23188,79.160221 135.74395,79.160221 137.00401,79.916257 138.26407,80.672293 139.02011,81.932353 139.77614,83.142011 139.77614,84.704485 Z M 128.78842,94.482551 Q 128.78842,96.095428 127.98198,97.40589 127.22595,98.716353 125.86508,99.522791 124.55462,100.27883 122.94174,100.27883 120.52243,100.27883 118.80874,98.615548 117.14547,96.901866 117.14547,94.482551 117.14547,92.063236 118.80874,90.399957 120.52243,88.686275 122.94174,88.686275 124.55462,88.686275 125.86508,89.492713 127.22595,90.248749 127.98198,91.559212 128.78842,92.869674 128.78842,94.482551 Z M 158.52584,95.843416 Q 154.14083,100.63164 148.79817,104.86545 143.45552,109.04885 136.8528,112.98023 130.25009,116.91162 121.9841,120.89341 L 117.09506,112.82903 Q 124.50422,111.21615 131.40934,108.29281 138.36488,105.36947 144.56437,101.38768 150.76387,97.355488 155.95531,92.617662 Z"
             style="font-family:'RocknRoll One';-inkscape-font-specification:'RocknRoll One Bold';fill:#ffffff"
             id="path2471" />
        </g>
      </g>
      <g
         aria-label="中井貴一"
         id="text1286"
         style="font-weight:bold;font-size:22.5778px;line-height:3;font-family:'RocknRoll One';-inkscape-font-specification:'RocknRoll One Bold';text-align:center;text-anchor:middle;fill:#ff5400;fill-rule:evenodd;stroke-width:7.298">
        <path
           d="M 53.540665,17.912389 H 47.602703 C 46.699591,17.912389 46.225458,17.889811 45.570701,17.822078 45.638435,18.544567 45.661012,18.950968 45.661012,19.786346 V 26.695153 C 45.661012,27.643421 45.638435,28.207866 45.548123,28.952933 H 48.212304 V 27.598265 H 53.540665 V 32.181559 C 53.540665,33.445916 53.495509,34.145828 53.38262,34.981206 H 56.272579 C 56.15969,34.190983 56.114534,33.536227 56.114534,32.181559 V 27.598265 H 61.713829 V 28.952933 H 64.378009 C 64.287698,28.298177 64.26512,27.711154 64.26512,26.695153 V 19.808924 C 64.26512,18.92839 64.287698,18.454256 64.355432,17.822078 63.768409,17.889811 63.294275,17.912389 62.300852,17.912389 H 56.114534 V 16.444832 C 56.114534,15.361097 56.15969,14.774075 56.250001,14.074163 H 53.405198 C 53.518087,14.81923 53.540665,15.361097 53.540665,16.535143 Z M 53.540665,20.305636 V 25.205019 H 48.212304 V 20.305636 Z M 56.114534,25.205019 V 20.305636 H 61.713829 V 25.205019 Z"
           style="font-weight:600;font-family:'Hiragino Kaku Gothic Pro';-inkscape-font-specification:'Hiragino Kaku Gothic Pro Semi-Bold';fill:#000000"
           id="path2474" />
        <path
           d="M 72.618863,20.46368 V 22.585994 C 72.618863,23.44395 72.573707,24.527685 72.483396,25.385641 H 69.909527 C 68.712903,25.385641 67.967836,25.340485 67.222768,25.250174 V 27.891777 C 67.967836,27.778888 68.622592,27.733732 69.954682,27.733732 H 72.144729 C 71.557706,29.946357 70.496549,31.210714 67.854947,32.904049 68.690325,33.60396 69.096726,34.032939 69.796638,35.003784 71.30935,33.987783 72.122151,33.242716 72.934952,32.136403 73.928375,30.804313 74.537976,29.359334 74.808909,27.733732 H 80.272737 V 32.023514 C 80.272737,33.355605 80.227582,34.12325 80.13727,34.890895 H 82.91434 C 82.801451,34.100672 82.756295,33.310449 82.756295,32.023514 V 27.733732 H 85.17212 C 86.368743,27.733732 87.068655,27.778888 87.949189,27.891777 V 25.250174 C 87.136389,25.340485 86.436477,25.385641 85.17212,25.385641 H 82.756295 V 20.46368 H 84.607675 C 85.849454,20.46368 86.549366,20.508836 87.384744,20.599147 V 17.957545 C 86.526788,18.070434 85.781721,18.115589 84.607675,18.115589 H 82.756295 V 16.828654 C 82.756295,15.586875 82.801451,14.954697 82.91434,14.232207 H 80.13727 C 80.250159,14.932119 80.272737,15.54172 80.272737,16.828654 V 18.115589 H 75.192732 V 16.738343 C 75.192732,15.428831 75.21531,14.864386 75.328199,14.20963 H 72.483396 C 72.596285,14.751497 72.618863,15.248208 72.618863,16.602876 V 18.115589 H 70.609438 C 69.412815,18.115589 68.622592,18.070434 67.832369,17.957545 V 20.599147 C 68.532281,20.486258 69.187037,20.46368 70.632016,20.46368 Z M 75.192732,20.46368 H 80.272737 V 25.385641 H 75.079843 C 75.170154,24.234173 75.192732,23.692306 75.192732,23.082705 Z"
           style="font-weight:600;font-family:'Hiragino Kaku Gothic Pro';-inkscape-font-specification:'Hiragino Kaku Gothic Pro Semi-Bold';fill:#000000"
           id="path2476" />
        <path
           d="M 98.831646,19.65088 V 20.441103 H 92.509861 C 91.29066,20.441103 90.726215,20.418525 89.95857,20.305636 V 22.360216 C 90.771371,22.247327 91.335816,22.224749 92.509861,22.224749 H 107.81761 C 109.03681,22.224749 109.62383,22.247327 110.39148,22.360216 V 20.305636 C 109.62383,20.418525 109.05939,20.441103 107.81761,20.441103 H 101.20231 V 19.65088 H 106.01139 C 107.1177,19.65088 107.79503,19.673457 108.47237,19.718613 108.40463,19.199324 108.38206,18.792923 108.38206,17.912389 V 17.031855 C 108.38206,16.15132 108.40463,15.767498 108.47237,15.225631 107.77245,15.293364 107.18543,15.315942 105.87592,15.315942 H 101.20231 C 101.20231,14.81923 101.22489,14.548297 101.33778,14.029007 H 98.696179 C 98.809068,14.525719 98.831646,14.751497 98.831646,15.315942 H 94.451552 C 93.14204,15.315942 92.532439,15.293364 91.855105,15.225631 91.922838,15.790076 91.945416,16.196476 91.945416,17.031855 V 17.912389 C 91.945416,18.770345 91.922838,19.176746 91.855105,19.718613 92.509861,19.673457 93.187195,19.65088 94.316085,19.65088 Z M 101.20231,18.0027 V 17.009277 H 106.03396 V 18.0027 Z M 98.831646,18.0027 H 94.27093 V 17.009277 H 98.831646 Z M 95.39982,31.639692 C 93.909685,32.362181 92.396972,32.723426 89.552169,32.99436 90.36497,33.807161 90.56817,34.100672 91.155193,35.04894 94.27093,34.461917 95.761065,33.942627 98.176889,32.610537 L 96.393243,31.639692 H 103.66329 L 101.94738,32.633115 C 104.54383,34.032939 106.03396,34.52965 109.1497,35.04894 109.80446,33.965205 110.03023,33.626538 110.68499,32.904049 108.11112,32.746004 106.25974,32.362181 104.61156,31.639692 H 105.60499 C 106.66614,31.639692 107.38863,31.66227 107.97565,31.707425 107.9305,31.188136 107.88534,30.21729 107.88534,29.2916 V 25.363063 C 107.88534,24.098706 107.90792,23.466528 107.97565,22.879505 107.34348,22.947238 106.95965,22.947238 105.6953,22.947238 H 94.564441 C 93.367818,22.947238 92.916262,22.947238 92.284083,22.879505 92.329239,23.601995 92.351817,24.16644 92.351817,25.205019 V 29.449645 C 92.351817,30.352757 92.306661,31.301025 92.261506,31.707425 92.961417,31.66227 93.503285,31.639692 94.654752,31.639692 Z M 94.699908,24.527685 H 105.53725 V 25.317908 H 94.699908 Z M 94.699908,26.785465 H 105.53725 V 27.598265 H 94.699908 Z M 94.699908,29.065822 H 105.53725 V 29.923779 H 94.699908 Z"
           style="font-weight:600;font-family:'Hiragino Kaku Gothic Pro';-inkscape-font-specification:'Hiragino Kaku Gothic Pro Semi-Bold';fill:#000000"
           id="path2478" />
        <path
           d="M 132.83377,22.631149 C 131.95323,22.744038 130.91465,22.789194 129.40194,22.789194 H 116.03588 C 114.56833,22.789194 113.55233,22.744038 112.58148,22.631149 V 25.611419 C 113.59748,25.521108 114.77153,25.453374 116.03588,25.453374 H 129.40194 C 130.75661,25.453374 131.79519,25.49853 132.83377,25.611419 Z"
           style="font-weight:600;font-family:'Hiragino Kaku Gothic Pro';-inkscape-font-specification:'Hiragino Kaku Gothic Pro Semi-Bold';fill:#000000"
           id="path2480" />
      </g>
      <g
         aria-label="の"
         id="text1446"
         style="font-weight:600;font-size:16.9333px;line-height:3;font-family:'Hiragino Kaku Gothic Pro';-inkscape-font-specification:'Hiragino Kaku Gothic Pro Semi-Bold';text-align:center;text-anchor:middle;fill:#ff5400;fill-rule:evenodd;stroke-width:7.298">
        <path
           d="M 149.24354,19.780717 C 149.98861,19.84845 150.42887,19.983916 150.95381,20.288716 152.30847,21.101514 153.0366,22.422312 153.0366,24.047908 153.0366,25.859771 152.15607,27.468435 150.68287,28.281233 149.88701,28.738432 148.87101,29.009365 147.31315,29.212565 147.85501,29.923763 148.05821,30.296296 148.34608,31.193761 149.53141,30.990561 150.19181,30.821228 151.00461,30.482562 153.5954,29.432698 155.1194,27.095902 155.1194,24.166441 155.1194,20.356449 152.4778,17.884187 148.41381,17.884187 146.00928,17.884187 144.01115,18.696986 142.58876,20.254849 141.38649,21.575647 140.72609,23.319776 140.72609,25.182439 140.72609,27.908701 142.11462,29.872964 144.04502,29.872964 145.43355,29.872964 146.51728,28.873899 147.48248,26.689503 148.32914,24.77604 148.92181,22.439245 149.24354,19.780717 Z M 147.17768,19.79765 C 146.97448,21.711113 146.41568,23.997108 145.77222,25.521105 145.16262,26.977369 144.58689,27.688568 144.02809,27.688568 143.28302,27.688568 142.69036,26.587903 142.69036,25.199373 142.69036,23.38751 143.57089,21.64338 144.99328,20.627382 145.68755,20.136316 146.29715,19.89925 147.17768,19.79765 Z"
           id="path2483" />
      </g>
    </g>
  </g>
</svg>
