<?xml version="1.0" encoding="UTF-8" standalone="no"?>
<!-- Created with Inkscape (http://www.inkscape.org/) -->

<svg
   xmlns:dc="http://purl.org/dc/elements/1.1/"
   xmlns:cc="http://creativecommons.org/ns#"
   xmlns:rdf="http://www.w3.org/1999/02/22-rdf-syntax-ns#"
   xmlns:svg="http://www.w3.org/2000/svg"
   xmlns="http://www.w3.org/2000/svg"
   xmlns:inkscape="http://www.inkscape.org/namespaces/inkscape"
   version="1.1"
   width="190"
   height="80"
   id="svg4929">
  <defs
     id="defs13" />
  <metadata
     id="metadata17">
    <rdf:RDF>
      <cc:Work
         rdf:about="">
        <dc:format>image/svg+xml</dc:format>
        <dc:type
           rdf:resource="http://purl.org/dc/dcmitype/StillImage" />
        <dc:title />
      </cc:Work>
    </rdf:RDF>
  </metadata>
  <rect
     width="190"
     height="80"
     rx="10"
     ry="10"
     x="0"
     y="0"
     id="rect2994"
     style="color:#000000" />
  <rect
     width="186"
     height="76"
     rx="8"
     ry="8"
     x="2"
     y="2"
     id="rect3766"
     style="color:#000000;fill:#f5c600;stroke:#ffffff;stroke-width:1.5" />
  <g
     id="routenum">
    <path
       d="M 46.899,60 27.854,32.478 V 60 H 20.8092 V 20 H 27.854 L 46.182,46.388 V 20 h 6.9254 v 40 h -6.209"
       inkscape:connector-curvature="0"
       id="path2986" />
    <path
       d="m 61.099,60 c -3e-6,-2.3881 0.2388,-4.5174 0.71642,-6.3881 0.51741,-1.9104 1.3532,-3.8607 2.5075,-5.8507 1.791,-2.9453 3.9602,-5.3333 6.5075,-7.1642 2.5472,-1.8706 5.6716,-3.3035 9.3731,-4.2985 2.2686,-0.63679 3.8408,-1.3333 4.7164,-2.0896 0.8756,-0.79599 1.3134,-1.791 1.3134,-2.9851 -2.8e-5,-1.4726 -0.67664,-2.6069 -2.0299,-3.403 -1.3533,-0.83579 -3.3035,-1.2537 -5.8507,-1.2537 -2.6269,3.4e-5 -4.9154,0.35824 -6.8657,1.0746 -1.9503,0.67665 -3.7811,1.7712 -5.4925,3.2836 l -4.893,-5.432 c 4.7363,-4.1393 10.348,-6.2089 16.836,-6.209 2.3482,4.1e-5 4.4776,0.27865 6.3881,0.83582 1.9104,0.55725 3.5224,1.3533 4.8358,2.3881 1.3532,1.0349 2.388,2.2886 3.1045,3.7612 0.75618,1.4727 1.1343,3.1244 1.1343,4.9552 -3.5e-5,1.6717 -0.35824,3.2637 -1.0746,4.7761 -0.67665,1.4727 -1.6717,2.7861 -2.9851,3.9403 -0.67665,0.47763 -1.4926,0.95524 -2.4478,1.4328 -0.91545,0.47763 -2.0697,0.93534 -3.4627,1.3731 -1.3533,0.39803 -2.4876,0.75624 -3.403,1.0746 -0.87564,0.27862 -1.6518,0.57713 -2.3284,0.89552 -0.67664,0.31842 -1.2936,0.67663 -1.8507,1.0746 -0.51743,0.35822 -1.0746,0.79603 -1.6716,1.3134 -0.91544,0.79603 -1.7115,1.612 -2.3881,2.4478 -0.63683,0.83583 -1.2935,1.9304 -1.9701,3.2836 h 23.582 v 7.1642 h -32.299"
       inkscape:connector-curvature="0"
       id="path2988" />
    <path
       d="m 131.29,47.224 c -3e-5,2.3881 -0.45775,4.4378 -1.3731,6.1493 -0.91546,1.7114 -2.1294,3.1045 -3.6418,4.1791 -1.4727,1.0746 -3.1841,1.8706 -5.1343,2.3881 -1.9503,0.51741 -3.9602,0.77612 -6.0298,0.77612 -2.4677,-10e-7 -4.6965,-0.31841 -6.6866,-0.95522 -1.9503,-0.63682 -3.6418,-1.5522 -5.0746,-2.7463 -1.393,-1.194 -2.4677,-2.607 -3.2239,-4.2388 -0.75622,-1.6716 -1.1343,-3.5224 -1.1343,-5.5522 -3e-6,-3.7015 1.4925,-6.9254 4.4776,-9.6716 -1.2736,-1.4726 -2.1294,-2.7263 -2.5672,-3.7612 -0.43781,-1.0348 -0.65672,-2.2089 -0.65672,-3.5224 0,-1.6716 0.35821,-3.184 1.0746,-4.5373 0.71641,-1.3532 1.7313,-2.5074 3.0448,-3.4627 1.3134,-0.95518 2.8657,-1.6915 4.6567,-2.209 1.8308,-0.51737 3.8607,-0.77608 6.0896,-0.77612 2.2686,4.1e-5 4.3184,0.25875 6.1492,0.77612 1.8308,0.51745 3.3831,1.2538 4.6567,2.209 1.3134,0.95526 2.3283,2.1095 3.0448,3.4627 0.71639,1.3533 1.0746,2.8657 1.0746,4.5373 -3e-5,1.3135 -0.21894,2.4876 -0.65672,3.5224 -0.43784,1.0349 -1.2538,2.2886 -2.4478,3.7612 2.9054,2.6667 4.3582,5.8906 4.3582,9.6716 m -8.4179,-17.134 c -3e-5,-1.1144 -0.67664,-1.99 -2.0298,-2.6269 -1.3135,-0.67658 -3.2239,-1.0149 -5.7313,-1.0149 -2.4677,3.4e-5 -4.3781,0.33834 -5.7314,1.0149 -1.3134,0.63685 -1.9702,1.5125 -1.9702,2.6269 -1e-5,1.1941 0.65671,2.1294 1.9702,2.806 1.3532,0.67664 3.2637,1.015 5.7314,1.0149 2.5074,2.6e-5 4.4179,-0.33828 5.7313,-1.0149 1.3532,-0.67659 2.0298,-1.6119 2.0298,-2.806 m 1.2537,17.134 c -3e-5,-1.99 -0.77614,-3.5025 -2.3284,-4.5373 -1.5523,-1.0746 -3.7811,-1.6119 -6.6866,-1.6119 -2.8657,1.9e-5 -5.0746,0.53733 -6.6269,1.6119 -1.5522,1.0348 -2.3284,2.5473 -2.3284,4.5373 -1e-5,0.99504 0.2587,1.9503 0.77612,2.8657 0.5174,0.91543 1.2338,1.6518 2.1493,2.209 0.5572,0.31842 1.393,0.59702 2.5075,0.83582 1.1542,0.19901 2.3283,0.29851 3.5224,0.29851 1.7114,6e-6 3.1044,-0.1194 4.1791,-0.35821 1.1144,-0.2786 2.0298,-0.73631 2.7463,-1.3731 1.393,-1.2736 2.0895,-2.7662 2.0896,-4.4776"
       inkscape:connector-curvature="0"
       id="path2990" />
    <path
       d="m 168.06,27.164 c -0.67665,0.63685 -1.2339,1.1742 -1.6716,1.6119 -0.43784,0.39804 -0.81595,0.77615 -1.1343,1.1343 -0.31844,0.35824 -0.59705,0.69655 -0.83582,1.0149 -0.23884,0.27864 -0.47765,0.61694 -0.71642,1.0149 -1.3533,1.8309 -2.6269,3.9801 -3.8209,6.4478 -1.1542,2.4279 -2.1294,4.8159 -2.9254,7.1642 -0.39803,1.194 -0.73634,2.3483 -1.0149,3.4627 -0.23882,1.0746 -0.45773,2.1891 -0.65671,3.3433 -0.15923,1.1144 -0.27863,2.2886 -0.35821,3.5224 -0.0796,1.2338 -0.13933,2.607 -0.17911,4.1194 h -7.1642 c 0.0398,-1.5124 0.0796,-2.8657 0.11941,-4.0597 0.0796,-1.2338 0.17909,-2.408 0.29851,-3.5224 0.15918,-1.1144 0.33829,-2.2089 0.53731,-3.2836 0.23879,-1.0746 0.5174,-2.2288 0.83582,-3.4627 0.7164,-2.5074 1.5522,-4.8955 2.5075,-7.1642 0.99501,-2.3084 2.0895,-4.4577 3.2836,-6.4478 0.31839,-0.63679 0.7164,-1.3134 1.194,-2.0299 0.47759,-0.71639 1.1542,-1.7114 2.0298,-2.9851 h -22.627 l -0.13,-7.043 h 32.418 v 7.1642"
       inkscape:connector-curvature="0"
       id="path2992" />
  </g>
</svg>
