<?xml version="1.0" encoding="UTF-8" standalone="no"?>
<svg
   xmlns:dc="http://purl.org/dc/elements/1.1/"
   xmlns:cc="http://creativecommons.org/ns#"
   xmlns:rdf="http://www.w3.org/1999/02/22-rdf-syntax-ns#"
   xmlns:svg="http://www.w3.org/2000/svg"
   xmlns="http://www.w3.org/2000/svg"
   xmlns:sodipodi="http://sodipodi.sourceforge.net/DTD/sodipodi-0.dtd"
   xmlns:inkscape="http://www.inkscape.org/namespaces/inkscape"
   version="1.1"
   x="0px"
   y="0px"
   viewBox="0 0 100 100"
   enable-background="new 0 0 164 164"
   xml:space="preserve"
   id="svg36"
   sodipodi:docname="noun_swot analysis_1849876.svg"
   width="100"
   height="100"
   inkscape:version="1.0.2-2 (e86c870879, 2021-01-15)"><metadata
     id="metadata42"><rdf:RDF><cc:Work
         rdf:about=""><dc:format>image/svg+xml</dc:format><dc:type
           rdf:resource="http://purl.org/dc/dcmitype/StillImage" /><dc:title></dc:title></cc:Work></rdf:RDF></metadata><defs
     id="defs40" /><sodipodi:namedview
     pagecolor="#ffffff"
     bordercolor="#666666"
     borderopacity="1"
     objecttolerance="10"
     gridtolerance="10"
     guidetolerance="10"
     inkscape:pageopacity="0"
     inkscape:pageshadow="2"
     inkscape:window-width="1920"
     inkscape:window-height="1172"
     id="namedview38"
     showgrid="false"
     inkscape:zoom="3.5853659"
     inkscape:cx="82"
     inkscape:cy="102.5"
     inkscape:window-x="-8"
     inkscape:window-y="-8"
     inkscape:window-maximized="1"
     inkscape:current-layer="g59" /><g
     id="g59"
     transform="matrix(0.58448597,0,0,0.58448597,3.5789533,2.4259019)"><g
       id="g30"
       transform="translate(-1.9087648,-0.47719121)"><g
         id="g4"><path
           d="m 160.2,84.8 c 0,-39 -29,-72.2 -67.5,-77.5 L 89.5,4.1 C 85.4,0 78.6,0 74.5,4.1 L 71.3,7.3 C 32.8,12.6 3.8,45.8 3.8,84.8 3.8,127.7 38.6,163 82,163 v 0 0 c 0,0 0,0 0,0 43,0 78.2,-35 78.2,-78.2 z m -1.9,0 c 0,21.2 -8.7,40.4 -22.8,54.3 H 88.2 c 0.5,-0.3 0.9,-0.7 1.4,-1.1 l 29.7,-29.7 0.3,-0.3 0.3,-0.3 v 0 l 29,-29 c 4.2,-4.2 4.2,-10.9 0,-15.1 L 119.2,33.9 95,9.6 c 36.3,6.2 63.3,38 63.3,75.2 z M 82,161.1 c 0,0 0,0 0,0 -18.6,0 -37,-6.7 -51.5,-20.1 2.9,0 60.7,0 103,0 -13.9,12.7 -32.2,20.1 -51.5,20.1 z M 46.8,107.6 c 8.7,-8.7 10.7,-10.7 10.9,-10.9 1.5,-1.5 1.2,-4.2 -0.8,-5.2 -0.8,-0.4 -1.6,-1 -2.2,-1.8 -1.9,-2.4 -1.9,-5.9 0,-8.3 2.6,-3.2 7.2,-3.3 9.9,-0.6 1.4,1.4 1.4,3 3.6,3.3 1.1,0.2 2.1,-0.2 2.8,-0.9 l 11,-10.8 4.1,4.1 6.1,6.1 v 0 c 0.7,0.7 0.6,0.6 0.6,0.6 0.7,0.7 0.5,1.8 -0.3,2.2 -0.7,0.4 -1.4,0.9 -2,1.5 -3.6,3.6 -3.3,9.6 0.8,12.8 3.1,2.5 7.6,2.5 10.7,0 0.9,-0.7 1.7,-1.6 2.2,-2.6 0.4,-0.8 1.5,-1 2.2,-0.4 l 10.8,10.8 -29,29 c -3.4,3.4 -9,3.4 -12.4,0 L 57,117.7 Z M 16.5,77.2 c -3.4,-3.4 -3.4,-9 0,-12.4 l 29,-29 10.9,10.9 v 0 c 0.7,0.7 1.7,1.1 2.8,0.9 2.6,-0.4 2,-2.4 4.7,-4.2 2.2,-1.5 5.1,-1.5 7.3,0 4.2,2.9 3.9,9.1 -0.5,11.4 -1,0.5 -1.6,1.4 -1.7,2.5 -0.2,1 0.2,2.1 0.9,2.8 L 80.6,71 c -14.8,14.8 -10.9,12.1 -14.5,8.5 -3.6,-3.6 -9.6,-3.3 -12.8,0.7 -2.5,3.1 -2.5,7.6 0,10.7 0.8,1 1.7,1.7 2.8,2.3 0.8,0.4 0.9,1.5 0.3,2.1 L 45.5,106.2 Z M 96.4,60.6 c 0.4,0.7 0.9,1.4 1.5,2 3.8,3.8 10.2,3.3 13.3,-1.3 1.9,-2.8 1.9,-6.6 0,-9.5 -0.8,-1.3 -1.9,-2.2 -3.2,-2.9 -0.8,-0.4 -0.9,-1.5 -0.3,-2.1 l 10.8,-10.8 29,29 c 3.4,3.4 3.4,9 0,12.4 l -29,29 c -0.3,-0.3 -10.7,-10.7 -11,-11 v 0 0 0 c -1.3,-1.3 -4,-1.1 -5.1,0.9 -0.4,0.8 -1,1.5 -1.7,2.1 -2.4,1.9 -5.9,1.9 -8.3,0 -3.2,-2.6 -3.4,-7.2 -0.6,-10 1.4,-1.4 3,-1.5 3.3,-3.6 0.2,-1.1 -0.2,-2.1 -0.9,-2.8 l -0.6,-0.6 v 0 0 L 87.8,75.6 83.4,71 94.2,60.2 c 0.7,-0.7 1.8,-0.5 2.2,0.4 z M 75.8,5.5 c 3.4,-3.4 8.9,-3.5 12.4,0 l 29,29 C 105.7,46 105,46 105.4,48.2 c 0.2,1 0.8,1.9 1.7,2.4 1,0.5 1.9,1.3 2.5,2.3 1.5,2.2 1.5,5.1 0,7.3 -2.4,3.6 -7.3,4 -10.3,1.1 -1.4,-1.4 -1.4,-3 -3.6,-3.3 -1,-0.1 -2.1,0.2 -2.8,0.9 L 82,69.7 71.2,58.8 c -0.3,-0.3 -0.5,-0.7 -0.4,-1.2 0.1,-0.5 0.3,-0.8 0.8,-1.1 5.7,-3.1 6.1,-11.1 0.7,-14.7 -4,-2.7 -9.8,-1.6 -12.3,3.1 -0.2,0.4 -0.6,0.7 -1.1,0.8 -0.4,0.1 -0.8,-0.1 -1.1,-0.4 L 46.8,34.5 Z M 5.7,84.8 C 5.7,47.7 32.7,15.9 69,9.6 L 44.8,33.8 15.1,63.5 c -4.2,4.2 -4.2,10.9 0,15.1 l 29.7,29.7 c 0,0 0,0 0,0 l 10.8,10.8 18.8,18.8 c 0.4,0.4 0.9,0.8 1.4,1.1 H 28.5 C 14.4,125.2 5.7,106 5.7,84.8 Z"
           id="path2" /></g><g
         id="g8"><path
           d="M 78.8,145.9 H 55.4 c -0.5,0 -1,0.4 -1,1 0,0.5 0.4,1 1,1 h 23.4 c 1.3,-0.1 1.3,-2 0,-2 z"
           id="path6" /></g><g
         id="g12"><path
           d="m 81.6,146.8 c 0,0.5 0.4,1 1,1 h 3.9 c 0.5,0 1,-0.4 1,-1 0,-0.5 -0.4,-1 -1,-1 -3.7,0.1 -4.9,-0.2 -4.9,1 z"
           id="path10" /></g><g
         id="g16"><path
           d="m 89.7,147.8 h 2.5 c 0.5,0 1,-0.4 1,-1 0,-0.5 -0.4,-1 -1,-1 h -2.5 c -0.5,0 -1,0.4 -1,1 0,0.6 0.5,1 1,1 z"
           id="path14" /></g><g
         id="g20"><path
           d="m 84.2,151.6 c 0,0.5 0.4,1 1,1 h 23.4 c 0.5,0 1,-0.4 1,-1 0,-0.5 -0.4,-1 -1,-1 H 85.2 c -0.5,0 -1,0.4 -1,1 z"
           id="path18" /></g><g
         id="g24"><path
           d="m 81.4,150.6 h -3.9 c -0.5,0 -1,0.4 -1,1 0,0.5 0.4,1 1,1 h 3.9 c 0.5,0 1,-0.4 1,-1 0,-0.6 -0.4,-1 -1,-1 z"
           id="path22" /></g><g
         id="g28"><path
           d="m 74.3,150.6 h -2.5 c -0.5,0 -1,0.4 -1,1 0,0.5 0.4,1 1,1 h 2.5 c 0.5,0 1,-0.4 1,-1 0,-0.6 -0.5,-1 -1,-1 z"
           id="path26" /></g></g></g></svg>
