<svg xmlns="http://www.w3.org/2000/svg" width="650" height="400" viewBox="0 0 650 400" version="1.1"><path d="M 37.670 22.623 C 34.550 23.582, 31.299 25.649, 28.486 28.461 C 20.440 36.507, 21 23.572, 21 201.500 C 21 379.400, 20.443 366.495, 28.474 374.526 C 36.642 382.695, 9.212 382, 323.500 382 C 637.839 382, 610.355 382.698, 618.542 374.510 C 626.605 366.448, 626.063 379.571, 625.765 199.442 L 625.500 39.500 623.160 34.749 C 620.237 28.814, 614.969 24.381, 608.568 22.471 C 601.080 20.237, 44.955 20.385, 37.670 22.623 M 533.158 70.572 C 527.014 73.676, 522.914 78.732, 520.397 86.309 C 515.012 102.523, 521.854 117.669, 548.042 147.500 C 564.207 165.915, 567.141 170.072, 567.743 175.413 C 568.169 179.188, 567.862 179.905, 564.381 183.287 L 560.551 187.007 569.026 195.561 L 577.500 204.115 582.210 199.031 C 589.040 191.659, 590.970 182.287, 587.186 174.864 C 586.188 172.907, 579.775 164.876, 572.936 157.017 C 553.440 134.617, 554.599 136.787, 561.465 135.546 C 566.658 134.607, 570.214 132.705, 575.199 128.201 C 580.650 123.277, 583.159 117.210, 583.169 108.935 C 583.183 97.045, 580.138 89.503, 571.602 80.283 C 563.941 72.009, 556.850 68.592, 546.500 68.187 C 539.440 67.910, 537.873 68.191, 533.158 70.572 M 55.167 73.876 C 55.350 74.358, 57.750 79.077, 60.500 84.364 L 65.500 93.975 85.327 93.988 L 105.155 94 104.827 107.423 C 104.520 120.025, 104.352 121.002, 102.076 123.423 C 98.871 126.829, 94.623 126.836, 91.700 123.438 C 90.233 121.732, 88.094 120.688, 85.297 120.313 C 81.546 119.810, 80.757 120.089, 77.925 122.921 C 75.033 125.813, 74.796 126.524, 75.226 130.997 C 75.531 134.173, 76.897 137.897, 79.099 141.555 C 83.462 148.805, 121.353 197.500, 122.631 197.500 C 123.162 197.500, 125.743 195.666, 128.365 193.425 L 133.133 189.349 118.427 171.147 C 110.339 161.136, 103.897 152.812, 104.111 152.650 C 104.325 152.488, 106.625 151.568, 109.222 150.605 C 115.224 148.382, 123.234 141.214, 125.921 135.662 C 127.799 131.784, 128 129.560, 128 112.684 L 128 94 154 94 L 180 94 180 138.347 L 180 182.694 190.408 189.843 C 196.132 193.775, 201.532 197.267, 202.408 197.603 C 203.852 198.157, 204 193.358, 204 146.107 L 204 94 216.500 94 C 223.375 94, 229 93.735, 229 93.411 C 229 93.087, 226.637 88.369, 223.750 82.926 L 218.500 73.031 136.667 73.015 C 90.235 73.007, 54.978 73.379, 55.167 73.876 M 224.182 74.244 C 224.364 74.935, 226.652 79.662, 229.267 84.750 L 234.020 94 253.510 94 L 273 94 273 107.354 C 273 120.143, 272.896 120.820, 270.548 123.354 C 267.581 126.555, 262.588 126.968, 261.073 124.137 C 258.593 119.502, 248.558 118.937, 245.529 123.262 C 243.516 126.137, 243.571 134.257, 245.631 138.300 C 246.528 140.060, 249.443 144.518, 252.110 148.206 C 260.325 159.569, 290.175 197.479, 291.211 197.865 C 292.144 198.213, 301 190.205, 301 189.013 C 301 188.699, 294.473 180.358, 286.496 170.477 C 273.189 153.996, 272.178 152.463, 274.252 151.908 C 281.345 150.011, 289.250 144.252, 293.105 138.173 L 296 133.608 296 113.804 L 296 94 322.500 94 L 349 94 349 138.438 L 349 182.877 359.911 190.438 C 365.912 194.597, 371.087 198, 371.411 198 C 371.735 198, 372 174.600, 372 146 L 372 94 385.085 94 L 398.169 94 392.750 83.750 L 387.331 73.500 305.591 73.244 C 240.387 73.040, 223.918 73.242, 224.182 74.244 M 419.009 82.250 C 419.043 111.611, 425.822 142.397, 436.470 161.556 C 441.260 170.173, 453.593 182.715, 460.500 185.992 C 467.163 189.154, 477.070 189.802, 483.928 187.524 C 491.762 184.922, 499.232 177.493, 503.946 167.617 C 508.697 157.662, 510 151.635, 510 139.611 C 510 122.331, 503.279 104.242, 493.031 93.939 C 486.457 87.330, 481.164 85.383, 472.837 86.512 C 460.090 88.238, 453.427 95.518, 452.301 108.949 C 450.945 125.127, 459.218 140.111, 472.897 146.250 C 477.276 148.215, 484.929 148.345, 489.242 146.526 C 490.877 145.837, 490.890 146.061, 489.454 150.132 C 488.611 152.519, 486.702 155.774, 485.211 157.366 C 479.293 163.684, 467.927 166.026, 460.734 162.409 C 444.071 154.030, 432.072 122.417, 432.018 86.750 L 432 75 425.500 75 L 419 75 419.009 82.250 M 547.234 90.250 C 542.260 93.705, 539.563 100.141, 539.584 108.500 C 539.594 112.350, 540.186 116.566, 540.899 117.868 C 542.058 119.983, 542.724 120.185, 547.138 119.761 C 556.682 118.844, 564.198 109.712, 564.393 98.794 C 564.489 93.440, 564.215 92.589, 561.694 90.417 C 557.970 87.208, 551.715 87.136, 547.234 90.250 M 474.607 106.095 C 470.779 109.106, 468 115.168, 468 120.510 C 468 130.674, 473.818 134.748, 481.528 129.982 C 489.695 124.935, 492.056 112.056, 485.935 105.935 C 483.362 103.362, 477.985 103.437, 474.607 106.095 M 472.140 235.573 C 461.652 238.395, 453.527 246.235, 450.578 256.379 C 448.565 263.302, 448.522 278.029, 450.495 284.672 C 451.379 287.647, 453.682 291.629, 456.122 294.401 C 466.152 305.796, 483.718 308.714, 498.332 301.414 C 500.990 300.086, 503.352 299, 503.582 299 C 504.567 299, 503.877 304.359, 502.452 307.768 C 496.916 321.020, 479.227 324.270, 472.357 313.298 C 471.394 311.759, 470.499 310.342, 470.369 310.150 C 470.093 309.741, 452.846 316.034, 451.781 316.932 C 450.565 317.957, 455.559 327.314, 459.128 330.699 C 464.140 335.454, 471.085 338.126, 480.016 338.739 C 500.163 340.119, 516.014 330.176, 521.883 312.476 C 530.922 285.217, 523.240 250.383, 505.755 239.345 C 497.699 234.260, 483.110 232.623, 472.140 235.573 M 142 286 L 142 337 152.487 337 L 162.974 337 163.237 302.981 L 163.500 268.963 186 302.987 L 208.500 337.011 220.500 336.755 L 232.500 336.500 232.759 285.750 L 233.018 235 222.009 235 L 211 235 211 268.694 L 211 302.389 208.750 299.239 C 207.512 297.506, 197.500 282.368, 186.500 265.599 L 166.500 235.109 154.250 235.055 L 142 235 142 286 M 366 244.500 L 366 254 390 254 C 404.017 254, 414 254.384, 414 254.924 C 414 255.432, 411.584 261.620, 408.631 268.674 C 405.679 275.728, 401.122 286.675, 398.506 293 C 395.889 299.325, 390.880 311.302, 387.374 319.616 C 383.868 327.930, 381 335.258, 381 335.899 C 381 336.735, 384.165 336.985, 392.168 336.783 L 403.336 336.500 409.178 322.500 C 416.938 303.903, 422.377 290.946, 430.916 270.715 L 438 253.931 438 244.465 L 438 235 402 235 L 366 235 366 244.500 M 265 287 L 265 338 275.500 338 L 286 338 286 316 L 286 294 306.500 294 L 327 294 327 316 L 327 338 337.500 338 L 348 338 348 287 L 348 236 337.500 236 L 327 236 327 255 L 327 274 306.500 274 L 286 274 286 255 L 286 236 275.500 236 L 265 236 265 287 M 478.530 255.220 C 470.188 260.074, 467.605 269.420, 472.060 278.624 C 474.335 283.324, 480.279 287, 485.604 287 C 489.980 287, 497.158 282.990, 499.742 279.102 C 502.493 274.963, 502.771 267.426, 500.359 262.345 C 496.500 254.211, 486.097 250.816, 478.530 255.220" stroke="none" fill="#04743c" fill-rule="evenodd"/><path d="M 1 200.500 L 1 400 325.500 400 L 650 400 650 200.500 L 650 1 325.500 1 L 1 1 1 200.500 M 37.670 22.623 C 34.550 23.582, 31.299 25.649, 28.486 28.461 C 20.440 36.507, 21 23.572, 21 201.500 C 21 379.400, 20.443 366.495, 28.474 374.526 C 36.642 382.695, 9.212 382, 323.500 382 C 637.839 382, 610.355 382.698, 618.542 374.510 C 626.605 366.448, 626.063 379.571, 625.765 199.442 L 625.500 39.500 623.160 34.749 C 620.237 28.814, 614.969 24.381, 608.568 22.471 C 601.080 20.237, 44.955 20.385, 37.670 22.623 M 533.158 70.572 C 527.014 73.676, 522.914 78.732, 520.397 86.309 C 515.012 102.523, 521.854 117.669, 548.042 147.500 C 564.207 165.915, 567.141 170.072, 567.743 175.413 C 568.169 179.188, 567.862 179.905, 564.381 183.287 L 560.551 187.007 569.026 195.561 L 577.500 204.115 582.210 199.031 C 589.040 191.659, 590.970 182.287, 587.186 174.864 C 586.188 172.907, 579.775 164.876, 572.936 157.017 C 553.440 134.617, 554.599 136.787, 561.465 135.546 C 566.658 134.607, 570.214 132.705, 575.199 128.201 C 580.650 123.277, 583.159 117.210, 583.169 108.935 C 583.183 97.045, 580.138 89.503, 571.602 80.283 C 563.941 72.009, 556.850 68.592, 546.500 68.187 C 539.440 67.910, 537.873 68.191, 533.158 70.572 M 55.167 73.876 C 55.350 74.358, 57.750 79.077, 60.500 84.364 L 65.500 93.975 85.327 93.988 L 105.155 94 104.827 107.423 C 104.520 120.025, 104.352 121.002, 102.076 123.423 C 98.871 126.829, 94.623 126.836, 91.700 123.438 C 90.233 121.732, 88.094 120.688, 85.297 120.313 C 81.546 119.810, 80.757 120.089, 77.925 122.921 C 75.033 125.813, 74.796 126.524, 75.226 130.997 C 75.531 134.173, 76.897 137.897, 79.099 141.555 C 83.462 148.805, 121.353 197.500, 122.631 197.500 C 123.162 197.500, 125.743 195.666, 128.365 193.425 L 133.133 189.349 118.427 171.147 C 110.339 161.136, 103.897 152.812, 104.111 152.650 C 104.325 152.488, 106.625 151.568, 109.222 150.605 C 115.224 148.382, 123.234 141.214, 125.921 135.662 C 127.799 131.784, 128 129.560, 128 112.684 L 128 94 154 94 L 180 94 180 138.347 L 180 182.694 190.408 189.843 C 196.132 193.775, 201.532 197.267, 202.408 197.603 C 203.852 198.157, 204 193.358, 204 146.107 L 204 94 216.500 94 C 223.375 94, 229 93.735, 229 93.411 C 229 93.087, 226.637 88.369, 223.750 82.926 L 218.500 73.031 136.667 73.015 C 90.235 73.007, 54.978 73.379, 55.167 73.876 M 224.182 74.244 C 224.364 74.935, 226.652 79.662, 229.267 84.750 L 234.020 94 253.510 94 L 273 94 273 107.354 C 273 120.143, 272.896 120.820, 270.548 123.354 C 267.581 126.555, 262.588 126.968, 261.073 124.137 C 258.593 119.502, 248.558 118.937, 245.529 123.262 C 243.516 126.137, 243.571 134.257, 245.631 138.300 C 246.528 140.060, 249.443 144.518, 252.110 148.206 C 260.325 159.569, 290.175 197.479, 291.211 197.865 C 292.144 198.213, 301 190.205, 301 189.013 C 301 188.699, 294.473 180.358, 286.496 170.477 C 273.189 153.996, 272.178 152.463, 274.252 151.908 C 281.345 150.011, 289.250 144.252, 293.105 138.173 L 296 133.608 296 113.804 L 296 94 322.500 94 L 349 94 349 138.438 L 349 182.877 359.911 190.438 C 365.912 194.597, 371.087 198, 371.411 198 C 371.735 198, 372 174.600, 372 146 L 372 94 385.085 94 L 398.169 94 392.750 83.750 L 387.331 73.500 305.591 73.244 C 240.387 73.040, 223.918 73.242, 224.182 74.244 M 419.009 82.250 C 419.043 111.611, 425.822 142.397, 436.470 161.556 C 441.260 170.173, 453.593 182.715, 460.500 185.992 C 467.163 189.154, 477.070 189.802, 483.928 187.524 C 491.762 184.922, 499.232 177.493, 503.946 167.617 C 508.697 157.662, 510 151.635, 510 139.611 C 510 122.331, 503.279 104.242, 493.031 93.939 C 486.457 87.330, 481.164 85.383, 472.837 86.512 C 460.090 88.238, 453.427 95.518, 452.301 108.949 C 450.945 125.127, 459.218 140.111, 472.897 146.250 C 477.276 148.215, 484.929 148.345, 489.242 146.526 C 490.877 145.837, 490.890 146.061, 489.454 150.132 C 488.611 152.519, 486.702 155.774, 485.211 157.366 C 479.293 163.684, 467.927 166.026, 460.734 162.409 C 444.071 154.030, 432.072 122.417, 432.018 86.750 L 432 75 425.500 75 L 419 75 419.009 82.250 M 547.234 90.250 C 542.260 93.705, 539.563 100.141, 539.584 108.500 C 539.594 112.350, 540.186 116.566, 540.899 117.868 C 542.058 119.983, 542.724 120.185, 547.138 119.761 C 556.682 118.844, 564.198 109.712, 564.393 98.794 C 564.489 93.440, 564.215 92.589, 561.694 90.417 C 557.970 87.208, 551.715 87.136, 547.234 90.250 M 474.607 106.095 C 470.779 109.106, 468 115.168, 468 120.510 C 468 130.674, 473.818 134.748, 481.528 129.982 C 489.695 124.935, 492.056 112.056, 485.935 105.935 C 483.362 103.362, 477.985 103.437, 474.607 106.095 M 472.140 235.573 C 461.652 238.395, 453.527 246.235, 450.578 256.379 C 448.565 263.302, 448.522 278.029, 450.495 284.672 C 451.379 287.647, 453.682 291.629, 456.122 294.401 C 466.152 305.796, 483.718 308.714, 498.332 301.414 C 500.990 300.086, 503.352 299, 503.582 299 C 504.567 299, 503.877 304.359, 502.452 307.768 C 496.916 321.020, 479.227 324.270, 472.357 313.298 C 471.394 311.759, 470.499 310.342, 470.369 310.150 C 470.093 309.741, 452.846 316.034, 451.781 316.932 C 450.565 317.957, 455.559 327.314, 459.128 330.699 C 464.140 335.454, 471.085 338.126, 480.016 338.739 C 500.163 340.119, 516.014 330.176, 521.883 312.476 C 530.922 285.217, 523.240 250.383, 505.755 239.345 C 497.699 234.260, 483.110 232.623, 472.140 235.573 M 142 286 L 142 337 152.487 337 L 162.974 337 163.237 302.981 L 163.500 268.963 186 302.987 L 208.500 337.011 220.500 336.755 L 232.500 336.500 232.759 285.750 L 233.018 235 222.009 235 L 211 235 211 268.694 L 211 302.389 208.750 299.239 C 207.512 297.506, 197.500 282.368, 186.500 265.599 L 166.500 235.109 154.250 235.055 L 142 235 142 286 M 366 244.500 L 366 254 390 254 C 404.017 254, 414 254.384, 414 254.924 C 414 255.432, 411.584 261.620, 408.631 268.674 C 405.679 275.728, 401.122 286.675, 398.506 293 C 395.889 299.325, 390.880 311.302, 387.374 319.616 C 383.868 327.930, 381 335.258, 381 335.899 C 381 336.735, 384.165 336.985, 392.168 336.783 L 403.336 336.500 409.178 322.500 C 416.938 303.903, 422.377 290.946, 430.916 270.715 L 438 253.931 438 244.465 L 438 235 402 235 L 366 235 366 244.500 M 265 287 L 265 338 275.500 338 L 286 338 286 316 L 286 294 306.500 294 L 327 294 327 316 L 327 338 337.500 338 L 348 338 348 287 L 348 236 337.500 236 L 327 236 327 255 L 327 274 306.500 274 L 286 274 286 255 L 286 236 275.500 236 L 265 236 265 287 M 478.530 255.220 C 470.188 260.074, 467.605 269.420, 472.060 278.624 C 474.335 283.324, 480.279 287, 485.604 287 C 489.980 287, 497.158 282.990, 499.742 279.102 C 502.493 274.963, 502.771 267.426, 500.359 262.345 C 496.500 254.211, 486.097 250.816, 478.530 255.220" stroke="none" fill="#f9fafa" fill-rule="evenodd"/></svg>