<?xml version="1.0" encoding="UTF-8"?><svg xmlns="http://www.w3.org/2000/svg" xmlns:xlink="http://www.w3.org/1999/xlink" width="156pt" height="212.87999pt" viewBox="0 0 156 212.87999" version="1.1"><symbol overflow="visible" id="g1"><path style="stroke:none;" d="M 72.34375 5.375 C 71.6875 -4.988281 70.625 -15.140625 69.15625 -25.078125 C 67.695313 -35.015625 65.835938 -45.539063 63.578125 -56.65625 C 59.535156 -54.019531 54.921875 -51.238281 49.734375 -48.3125 C 44.554688 -45.394531 38.8125 -42.242188 32.5 -38.859375 L 27.40625 -48.328125 C 38.613281 -54.066406 47.820313 -59.125 55.03125 -63.5 C 62.238281 -67.882813 67.84375 -71.820313 71.84375 -75.3125 C 75.851563 -78.800781 78.65625 -82.070313 80.25 -85.125 C 81.851563 -88.1875 82.65625 -91.226563 82.65625 -94.25 C 82.65625 -96.789063 82.132813 -99.378906 81.09375 -102.015625 C 80.0625 -104.648438 78.367188 -107.570313 76.015625 -110.78125 C 67.441406 -103.8125 58.84375 -97.546875 50.21875 -91.984375 C 41.601563 -86.421875 32.304688 -80.816406 22.328125 -75.171875 L 16.671875 -83.9375 C 25.523438 -89.019531 33.8125 -94.007813 41.53125 -98.90625 C 49.257813 -103.800781 56.726563 -108.976563 63.9375 -114.4375 C 71.144531 -119.90625 78.328125 -125.984375 85.484375 -132.671875 L 93.109375 -125.609375 C 90.097656 -122.878906 87.132813 -120.242188 84.21875 -117.703125 C 87.695313 -113.273438 90.09375 -109.242188 91.40625 -105.609375 C 92.726563 -101.984375 93.390625 -98.195313 93.390625 -94.25 C 93.390625 -88.875 91.835938 -83.710938 88.734375 -78.765625 C 85.628906 -73.828125 80.117188 -68.4375 72.203125 -62.59375 C 75.117188 -50.539063 77.492188 -38.953125 79.328125 -27.828125 C 81.171875 -16.710938 82.421875 -5.882813 83.078125 4.65625 Z M 96.21875 -41.828125 C 94.144531 -41.828125 92.398438 -42.460938 90.984375 -43.734375 C 89.578125 -45.003906 88.875 -47.003906 88.875 -49.734375 C 88.875 -52.460938 89.578125 -54.460938 90.984375 -55.734375 C 92.398438 -57.015625 94.144531 -57.65625 96.21875 -57.65625 C 98.195313 -57.65625 99.890625 -57.015625 101.296875 -55.734375 C 102.710938 -54.460938 103.421875 -52.460938 103.421875 -49.734375 C 103.421875 -47.003906 102.710938 -45.003906 101.296875 -43.734375 C 99.890625 -42.460938 98.195313 -41.828125 96.21875 -41.828125 Z M 33.203125 -30.796875 C 33.109375 -29.578125 32.96875 -27.765625 32.78125 -25.359375 C 32.59375 -22.960938 32.40625 -20.441406 32.21875 -17.796875 C 36.457031 -11.773438 40.109375 -5.890625 43.171875 -0.140625 C 46.234375 5.609375 49.175781 12.15625 52 19.5 L 41.96875 23.3125 C 40.175781 18.601563 38.597656 14.578125 37.234375 11.234375 C 35.867188 7.890625 34.550781 4.847656 33.28125 2.109375 C 32.007813 -0.617188 30.617188 -3.441406 29.109375 -6.359375 L 28.40625 -6.21875 C 27.738281 -1.132813 26.789063 4.160156 25.5625 9.671875 C 24.34375 15.179688 22.507813 21.519531 20.0625 28.6875 L 9.890625 25.859375 C 12.148438 19.734375 14.101563 13.726563 15.75 7.84375 C 17.40625 1.957031 18.820313 -4.1875 20 -10.59375 C 21.175781 -17 22.140625 -24.113281 22.890625 -31.9375 Z M 50.296875 -13 C 48.222656 -13 46.476563 -13.632813 45.0625 -14.90625 C 43.65625 -16.175781 42.953125 -18.175781 42.953125 -20.90625 C 42.953125 -23.644531 43.65625 -25.648438 45.0625 -26.921875 C 46.476563 -28.191406 48.222656 -28.828125 50.296875 -28.828125 C 52.273438 -28.828125 53.972656 -28.191406 55.390625 -26.921875 C 56.804688 -25.648438 57.515625 -23.644531 57.515625 -20.90625 C 57.515625 -18.175781 56.804688 -16.175781 55.390625 -14.90625 C 53.972656 -13.632813 52.273438 -13 50.296875 -13 Z M 50.296875 -13"/></symbol><use xlink:href="#g1" x="20.697706" y="151.184768"/></svg>