<?xml version="1.0" encoding="UTF-8" standalone="no"?>
<!-- Created with Inkscape (http://www.inkscape.org/) -->

<svg
   xmlns:dc="http://purl.org/dc/elements/1.1/"
   xmlns:cc="http://creativecommons.org/ns#"
   xmlns:rdf="http://www.w3.org/1999/02/22-rdf-syntax-ns#"
   xmlns:svg="http://www.w3.org/2000/svg"
   xmlns="http://www.w3.org/2000/svg"
   xmlns:sodipodi="http://sodipodi.sourceforge.net/DTD/sodipodi-0.dtd"
   xmlns:inkscape="http://www.inkscape.org/namespaces/inkscape"
   width="640"
   height="640"
   id="svg2"
   version="1.1"
   inkscape:version="0.48.4 r9939"
   sodipodi:docname="Obsolete Simplified 288.svg">
  <defs
     id="defs4" />
  <sodipodi:namedview
     id="base"
     pagecolor="#ffffff"
     bordercolor="#666666"
     borderopacity="1.0"
     inkscape:pageopacity="0.0"
     inkscape:pageshadow="2"
     inkscape:zoom="0.8140625"
     inkscape:cx="320"
     inkscape:cy="320"
     inkscape:document-units="px"
     inkscape:current-layer="layer1"
     showgrid="false"
     inkscape:window-width="1366"
     inkscape:window-height="716"
     inkscape:window-x="-8"
     inkscape:window-y="-8"
     inkscape:window-maximized="1" />
  <metadata
     id="metadata7">
    <rdf:RDF>
      <cc:Work
         rdf:about="">
        <dc:format>image/svg+xml</dc:format>
        <dc:type
           rdf:resource="http://purl.org/dc/dcmitype/StillImage" />
        <dc:title></dc:title>
      </cc:Work>
    </rdf:RDF>
  </metadata>
  <g
     inkscape:label="Ebene 1"
     inkscape:groupmode="layer"
     id="layer1"
     transform="translate(0,-412.36218)">
    <g
       id="text2985">
      <path
         d="m 456.81641,621.32703 c 4.68705,3.3e-4 8.39799,-1.36685 11.13281,-4.10157 l 14.64844,-15.23437 c 1.17141,-1.56214 2.34328,-2.34339 3.51562,-2.34375 1.56203,3.6e-4 3.12453,0.58629 4.6875,1.75781 12.10889,8.98472 22.46045,17.18784 31.05469,24.60938 1.17137,1.1722 1.75731,2.34408 1.75781,3.51562 -5e-4,0.78158 -0.97706,1.36752 -2.92969,1.75781 -6.64112,1.1722 -11.71924,3.51595 -15.23437,7.03125 -3.12548,3.51595 -4.68798,7.22688 -4.6875,11.13282 l 0,124.21875 c 0.39014,26.56265 1.95264,59.17981 4.6875,97.85156 -4.9e-4,5.07821 -1.95361,8.78914 -5.85938,11.13281 -16.79733,9.76569 -26.36764,14.6485 -28.71093,14.64844 -1.17233,-0.78119 -1.75827,-3.12494 -1.75782,-7.03125 l 0,-3.51563 c 1.95268,-22.65615 3.12455,-54.68737 3.51563,-96.09375 l 0,-151.17187 -300,0 0,241.99219 c -0.39078,5.85944 -7.81265,13.67193 -22.26563,23.4375 -3.12512,1.56255 -5.46887,2.3438 -7.03125,2.34375 -1.95324,-0.39058 -2.9298,-3.32026 -2.92968,-8.78907 l 0,-2.92968 c 1.56237,-39.0624 2.92956,-79.29674 4.10156,-120.70313 l 0,-119.53125 c -0.39075,-12.49968 -1.75794,-27.73404 -4.10156,-45.70312 -0.39075,-1.56215 -0.58606,-2.92934 -0.58594,-4.10157 -1.2e-4,-1.17152 0.3905,-1.95277 1.17187,-2.34375 0.39051,3.6e-4 8.203,6.05504 23.4375,18.16407 l 292.38282,0 z M 356.62109,898.47546 c -2.73471,-0.78119 -4.10189,-2.34368 -4.10156,-4.6875 -3.3e-4,-1.17181 0.19498,-2.14837 0.58594,-2.92968 0.78091,-2.34368 2.53873,-3.51556 5.27344,-3.51563 1.17153,7e-5 2.53872,0.19538 4.10156,0.58594 97.65581,18.35943 160.15575,40.62503 187.5,66.79687 10.54633,8.98437 16.01508,18.35936 16.40625,28.125 0.7807,4.29685 1.17133,8.2031 1.17187,11.71875 -5.4e-4,3.51559 -0.39117,6.64059 -1.17187,9.37499 -1.56305,4.2968 -3.71148,7.0312 -6.44531,8.2031 l -1.17188,0 c -1.95366,0 -4.68803,-1.9531 -8.20312,-5.8593 -33.20363,-39.84379 -97.852,-75.78126 -193.94532,-107.81254 z m -41.60156,-205.66406 0,-2.34375 c -2.9e-4,-3.51535 1.36689,-5.27316 4.10156,-5.27344 l 1.75782,0 c 21.09342,6.6409 35.15591,11.91433 42.1875,15.82032 2.73403,1.56275 4.10121,3.12525 4.10156,4.6875 -3.5e-4,1.17212 -1.17222,2.344 -3.51563,3.51562 -7.42221,4.29712 -11.91439,8.20337 -13.47656,11.71875 -2.7347,7.03148 -4.10189,22.46115 -4.10156,46.28906 -3.3e-4,50.00014 -4.88314,86.32823 -14.64844,108.98438 -10.9378,26.95318 -31.05497,49.41409 -60.35156,67.38281 -33.98459,21.09374 -96.09391,43.35935 -186.328126,66.79685 -2.343813,0.3906 -4.296936,0.5859 -5.859375,0.586 -3.906306,-10e-5 -6.054741,-1.5626 -6.445313,-4.6875 -0.390677,-0.7813 -0.585989,-1.5626 -0.585937,-2.3438 -5.2e-5,-3.5157 2.148383,-5.66409 6.445312,-6.4453 70.312369,-18.75002 123.242009,-37.69531 158.789059,-56.83594 30.85913,-16.79684 51.75755,-37.10932 62.69532,-60.9375 12.4997,-27.34364 18.7497,-66.21079 18.75,-116.60156 -3e-4,-21.48416 -1.17218,-44.92163 -3.51563,-70.3125 z M 270.48828,479.53015 c -0.7815,-1.17139 -1.17212,-2.34327 -1.17187,-3.51562 -2.5e-4,-1.56202 0.58568,-2.92921 1.75781,-4.10157 0.781,-0.78076 1.56225,-1.17138 2.34375,-1.17187 1.95287,4.9e-4 4.29662,1.36767 7.03125,4.10156 45.31219,41.40669 67.96842,73.2426 67.96875,95.50781 l 0,1.75782 c -0.78158,8.2035 -4.88314,17.18787 -12.30469,26.95312 -6.25031,7.42223 -11.32843,11.13316 -15.23437,11.13281 l -0.58594,0 c -3.51592,-1.17152 -5.27373,-4.88246 -5.27344,-11.13281 l 0,-1.75781 c -2.34404,-38.67148 -17.18778,-77.92925 -44.53125,-117.77344 z m -86.13281,137.10938 c -2.73454,-1.56216 -4.10172,-5.46841 -4.10156,-11.71875 -5.85953,-39.45274 -25.19545,-78.5152 -58.00782,-117.1875 -0.78135,-1.56203 -1.17197,-2.92922 -1.17187,-4.10157 -1e-4,-1.1714 0.39052,-2.34327 1.17187,-3.51562 0.78115,-0.39015 1.75771,-0.58546 2.92969,-0.58594 1.95302,4.8e-4 4.10145,0.78173 6.44531,2.34375 52.73421,39.45356 79.10138,71.09416 79.10157,94.92188 l 0,2.34375 c -1.9e-4,7.42224 -3.12519,16.01598 -9.375,25.78125 -4.68768,6.25034 -8.39861,10.15659 -11.13282,11.71875 z m 229.6875,1.75781 c -2.73477,-1.95278 -4.10195,-3.7106 -4.10156,-5.27344 -3.9e-4,-0.39028 0.19492,-0.7809 0.58593,-1.17187 27.73396,-42.18712 48.04644,-89.06207 60.9375,-140.625 0.39018,-2.73389 1.17143,-4.29639 2.34375,-4.6875 l 1.17188,0 c 4.68704,4.9e-4 18.74952,7.22704 42.1875,21.67968 4.29637,2.34422 6.44481,4.49266 6.44531,6.44532 -5e-4,0.39108 -0.19581,0.78171 -0.58594,1.17187 -0.78175,1.95359 -2.34425,2.93015 -4.6875,2.92969 l -1.17187,0 c -12.50049,4.6e-4 -23.24266,9.76607 -32.22656,29.29687 -13.28171,23.82854 -33.00825,53.32069 -59.17969,88.47657 z"
         style=""
         id="path3615" />
    </g>
  </g>
</svg>
