<?xml version="1.0" encoding="UTF-8" standalone="no"?>
<svg xmlns="http://www.w3.org/2000/svg" version="1.0" width="1000.0" height="1000.0" id="C:\tom\rhombs\octagon_dissection-size2.svg">
<!-- X Coordinate transform: fx(x)=(x+423.87933)*0.5411964-->
<!-- Y Coordinate transform: fy(y)=(1917.8018-y)*0.5411964 -->
<!-- Flac geometry view -->
<g style="opacity:1.0;fill:#5a5aff;fill-opacity:1;stroke:#000000;stroke-width:4.0;stroke-opacity:1.00;"> <!-- group Area93925.84 -->
<polygon points=" 360.527,836.717 500,976.19 302.756,976.19 163.283,836.717" />
<polygon points=" 163.283,639.473 163.283,836.717 23.81,697.245 23.81,500" />
<polygon points=" 302.756,500 500,500 360.527,639.473 163.283,639.473" />
<polygon points=" 302.756,500 163.283,360.527 360.527,360.527 500,500" />
<polygon points=" 500,500 697.245,500 836.717,639.473 639.473,639.473" />
<polygon points=" 500,500 639.473,360.527 836.718,360.527 697.245,500" />
<polygon points=" 976.19,500 836.718,360.527 836.717,163.284 976.19,302.756" />
<polygon points=" 836.717,163.284 639.472,163.284 500,23.811 697.244,23.811" />
<polygon points=" 163.283,360.527 23.81,500 23.81,302.755 163.283,163.282" />
<polygon points=" 500,500 360.527,360.527 360.527,163.282 500,302.755" />
<polygon points=" 500,500 639.473,639.473 639.473,836.717 500,697.244" />
<polygon points=" 836.718,836.717 697.245,976.191 500,976.19 639.473,836.717" />
<polygon points=" 836.718,836.717 836.717,639.473 976.19,500 976.19,697.244" />
<polygon points=" 500,500 500,302.755 639.472,163.284 639.473,360.527" />
<polygon points=" 500,500 500,697.244 360.527,836.717 360.527,639.473" />
<polygon points=" 360.527,163.282 163.283,163.282 302.756,23.81 500,23.811" />
</g>
<g style="opacity:1.0;fill:#5abf5a;fill-opacity:1;stroke:#000000;stroke-width:4.0;stroke-opacity:1.00;"> <!-- group Area132830.94 -->
<polygon points=" 163.283,639.473 360.527,639.473 360.527,836.717 163.283,836.717" />
<polygon points=" 302.756,500 163.283,639.473 23.81,500 163.283,360.527" />
<polygon points=" 976.19,500 836.717,639.473 697.245,500 836.718,360.527" />
<polygon points=" 836.718,360.527 639.473,360.527 639.472,163.284 836.717,163.284" />
<polygon points=" 360.527,360.527 163.283,360.527 163.283,163.282 360.527,163.282" />
<polygon points=" 836.718,836.717 639.473,836.717 639.473,639.473 836.717,639.473" />
<polygon points=" 500,697.244 639.473,836.717 500,976.19 360.527,836.717" />
<polygon points=" 360.527,163.282 500,23.811 639.472,163.284 500,302.755" />
</g>
</svg>
