<?xml version="1.0" encoding="UTF-8" standalone="no"?>
<!-- Created with Inkscape (http://www.inkscape.org/) -->

<svg
   xmlns:dc="http://purl.org/dc/elements/1.1/"
   xmlns:cc="http://creativecommons.org/ns#"
   xmlns:rdf="http://www.w3.org/1999/02/22-rdf-syntax-ns#"
   xmlns:svg="http://www.w3.org/2000/svg"
   xmlns="http://www.w3.org/2000/svg"
   xmlns:sodipodi="http://sodipodi.sourceforge.net/DTD/sodipodi-0.dtd"
   xmlns:inkscape="http://www.inkscape.org/namespaces/inkscape"
   id="svg2985"
   version="1.1"
   inkscape:version="0.48.5 r10040"
   width="691.90002"
   height="697.54999"
   xml:space="preserve"
   sodipodi:docname="Logo Biro Tata Negara.svg"><metadata
     id="metadata2991"><rdf:RDF><cc:Work
         rdf:about=""><dc:format>image/svg+xml</dc:format><dc:type
           rdf:resource="http://purl.org/dc/dcmitype/StillImage" /><dc:title /></cc:Work></rdf:RDF></metadata><defs
     id="defs2989"><clipPath
       clipPathUnits="userSpaceOnUse"
       id="clipPath2999"><path
         d="m 0,841.89 595.276,0 L 595.276,0 0,0 0,841.89 z"
         id="path3001"
         inkscape:connector-curvature="0" /></clipPath></defs><sodipodi:namedview
     pagecolor="#ffffff"
     bordercolor="#666666"
     borderopacity="1"
     objecttolerance="10"
     gridtolerance="10"
     guidetolerance="10"
     inkscape:pageopacity="0"
     inkscape:pageshadow="2"
     inkscape:window-width="1366"
     inkscape:window-height="705"
     id="namedview2987"
     showgrid="false"
     inkscape:zoom="0.4922258"
     inkscape:cx="340.89827"
     inkscape:cy="318.39516"
     inkscape:window-x="-8"
     inkscape:window-y="-8"
     inkscape:window-maximized="1"
     inkscape:current-layer="g2993"
     fit-margin-top="0"
     fit-margin-left="0"
     fit-margin-right="0"
     fit-margin-bottom="0" /><g
     id="g2993"
     inkscape:groupmode="layer"
     inkscape:label="Logo Biro Tata Negara"
     transform="matrix(1.25,0,0,-1.25,-31.149218,905.33651)"><g
       id="g2995"
       transform="matrix(1.8747115,0,0,1.8707025,-259.04922,-409.0903)"><g
         id="g2997"
         clip-path="url(#clipPath2999)"><path
           d="m 320.058,455.35 -21.056,-21.057 -21.057,21.057 42.113,0 z"
           style="fill:#ee3338;fill-opacity:1;fill-rule:nonzero;stroke:none"
           id="path3003"
           inkscape:connector-curvature="0" /><path
           d="m 277.947,518.517 21.056,21.056 21.056,-21.056 -42.112,0 z"
           style="fill:#ee3338;fill-opacity:1;fill-rule:nonzero;stroke:none"
           id="path3005"
           inkscape:connector-curvature="0" /><path
           d="m 235.835,476.405 21.056,21.056 84.223,0 21.055,-21.056 -126.334,0 z"
           style="fill:#ee3338;fill-opacity:1;fill-rule:nonzero;stroke:none"
           id="path3007"
           inkscape:connector-curvature="0" /><path
           d="m 299.002,464.177 -2.513,11.771 -7.366,-9.519 2.857,11.694 -10.769,-5.381 7.635,9.306 -12.035,-0.175 10.925,5.061 -10.925,5.06 12.036,-0.174 -7.635,9.306 10.768,-5.382 -2.857,11.694 7.368,-9.519 2.511,11.771 2.514,-11.771 7.367,9.519 -2.86,-11.694 10.77,5.382 -7.635,-9.306 12.035,0.173 -10.925,-5.058 10.925,-5.06 -12.035,0.175 7.634,-9.309 -10.769,5.382 2.859,-11.694 -7.367,9.519 -2.513,-11.771 z"
           style="fill:#fff215;fill-opacity:1;fill-rule:nonzero;stroke:none"
           id="path3009"
           inkscape:connector-curvature="0" /><path
           d="m 174.817,454.968 0.073,3.96 c 0.024,1.337 -0.196,2.284 -0.661,2.842 -0.464,0.557 -1.096,0.843 -1.896,0.857 -0.743,0.014 -1.345,-0.247 -1.807,-0.781 -0.461,-0.535 -0.704,-1.482 -0.729,-2.842 l -0.072,-3.943 5.092,-0.093 z m -9.875,0.178 0.061,3.379 c 0.022,1.211 -0.171,2.058 -0.58,2.54 -0.408,0.482 -1.006,0.73 -1.796,0.745 -0.731,0.013 -1.307,-0.214 -1.727,-0.681 -0.42,-0.467 -0.64,-1.289 -0.662,-2.466 l -0.063,-3.429 4.767,-0.088 z m -10.001,-7.655 0.265,14.54 c 0.044,2.423 0.677,4.272 1.901,5.547 1.225,1.276 2.722,1.897 4.494,1.865 1.485,-0.027 2.752,-0.513 3.797,-1.459 0.698,-0.63 1.242,-1.543 1.631,-2.738 0.468,1.797 1.238,3.113 2.31,3.945 1.074,0.832 2.41,1.234 4.01,1.205 1.303,-0.024 2.469,-0.349 3.498,-0.973 1.029,-0.625 1.837,-1.468 2.424,-2.531 0.366,-0.659 0.622,-1.646 0.769,-2.964 0.197,-1.753 0.29,-2.915 0.279,-3.487 l -0.243,-13.408 -25.135,0.458 z"
           style="fill:#008a4d;fill-opacity:1;fill-rule:nonzero;stroke:none"
           id="path3011"
           inkscape:connector-curvature="0" /><path
           d="m 156.638,479.222 4.786,20.262 5.224,-1.234 -2.996,-12.685 3.889,-0.918 2.779,11.767 4.99,-1.179 -2.779,-11.767 4.823,-1.139 3.083,13.052 5.542,-1.309 -4.873,-20.629 -24.468,5.779 z"
           style="fill:#008a4d;fill-opacity:1;fill-rule:nonzero;stroke:none"
           id="path3013"
           inkscape:connector-curvature="0" /><path
           d="m 177.053,510.865 1.418,2.952 c 0.154,0.32 0.347,0.987 0.582,2.003 0.13,0.509 0.075,1.001 -0.165,1.478 -0.24,0.477 -0.608,0.834 -1.103,1.072 -0.731,0.351 -1.404,0.389 -2.018,0.113 -0.615,-0.275 -1.229,-1.051 -1.843,-2.329 l -1.478,-3.076 4.607,-2.213 z m 10.099,-13.509 -22.66,10.887 5.607,11.67 c 1.04,2.164 2.02,3.729 2.941,4.694 0.92,0.966 2.051,1.558 3.392,1.776 1.341,0.218 2.734,-0.02 4.175,-0.713 1.258,-0.604 2.214,-1.393 2.869,-2.367 0.654,-0.974 1.04,-2.066 1.155,-3.276 0.074,-0.771 -0.021,-1.734 -0.284,-2.888 0.68,0.701 1.25,1.175 1.711,1.423 0.309,0.167 0.885,0.351 1.729,0.548 0.842,0.198 1.469,0.299 1.878,0.307 l 8.195,0.228 -3.802,-7.914 -8.722,-0.413 c -1.124,-0.044 -1.909,-0.186 -2.355,-0.428 -0.593,-0.337 -1.043,-0.825 -1.35,-1.464 l -0.297,-0.618 9.197,-4.419 -3.379,-7.033 z"
           style="fill:#008a4d;fill-opacity:1;fill-rule:nonzero;stroke:none"
           id="path3015"
           inkscape:connector-curvature="0" /><path
           d="m 191.705,524.929 4.177,6.111 c 1.045,-0.612 1.966,-0.917 2.764,-0.916 1.294,0.004 2.397,0.593 3.311,1.765 0.681,0.874 1.001,1.707 0.961,2.5 -0.042,0.793 -0.333,1.4 -0.873,1.821 -0.514,0.401 -1.149,0.534 -1.906,0.399 -0.757,-0.133 -1.955,-0.88 -3.594,-2.239 -2.697,-2.214 -4.993,-3.504 -6.885,-3.869 -1.9,-0.373 -3.625,0.045 -5.175,1.254 -1.018,0.794 -1.749,1.839 -2.195,3.135 -0.445,1.297 -0.465,2.739 -0.06,4.329 0.407,1.588 1.415,3.414 3.023,5.478 1.975,2.532 3.952,4.096 5.93,4.69 1.978,0.595 4.092,0.217 6.343,-1.133 l -4.163,-6.035 c -1.01,0.543 -1.91,0.727 -2.699,0.552 -0.789,-0.175 -1.52,-0.695 -2.195,-1.56 -0.554,-0.711 -0.822,-1.365 -0.802,-1.961 0.021,-0.596 0.249,-1.062 0.681,-1.4 0.315,-0.246 0.715,-0.319 1.199,-0.218 0.486,0.085 1.264,0.58 2.331,1.486 2.665,2.226 4.743,3.688 6.236,4.386 1.493,0.697 2.883,0.969 4.168,0.814 1.285,-0.154 2.468,-0.653 3.55,-1.496 1.27,-0.991 2.167,-2.256 2.692,-3.795 0.523,-1.54 0.571,-3.155 0.141,-4.849 -0.429,-1.694 -1.392,-3.501 -2.889,-5.42 -2.629,-3.37 -5.097,-5.197 -7.406,-5.483 -2.309,-0.286 -4.532,0.266 -6.665,1.654"
           style="fill:#008a4d;fill-opacity:1;fill-rule:nonzero;stroke:none"
           id="path3017"
           inkscape:connector-curvature="0" /><path
           d="m 218.946,556.238 -7.923,5.159 3.67,-8.708 4.253,3.549 z m 4.734,-3.131 -6.794,-5.669 1.724,-3.966 -6.097,-5.087 -8.851,25.357 6.505,5.427 23.361,-13.249 -6.241,-5.208 -3.607,2.395 z"
           style="fill:#008a4d;fill-opacity:1;fill-rule:nonzero;stroke:none"
           id="path3019"
           inkscape:connector-curvature="0" /><path
           d="m 223.993,579.501 9.207,4.43 10.184,-12.071 -3.093,15.483 9.176,4.415 10.897,-22.647 -5.716,-2.75 -8.31,17.271 3.877,-19.404 -5.175,-2.491 -12.729,15.145 8.311,-17.27 -5.732,-2.758 -10.897,22.647 z"
           style="fill:#008a4d;fill-opacity:1;fill-rule:nonzero;stroke:none"
           id="path3021"
           inkscape:connector-curvature="0" /><path
           d="m 276.14,582.222 -4.513,8.305 -0.915,-9.402 5.428,1.097 z m 2.673,-5.004 -8.67,-1.753 -0.372,-4.308 -7.78,-1.573 4.279,26.507 8.301,1.679 14.24,-22.764 -7.966,-1.61 -2.032,3.822 z"
           style="fill:#008a4d;fill-opacity:1;fill-rule:nonzero;stroke:none"
           id="path3023"
           inkscape:connector-curvature="0" /><path
           d="m 304.772,600.343 10.122,-1.39 1.827,-15.685 5.967,14.615 10.088,-1.385 -3.419,-24.897 -6.283,0.863 2.608,18.987 -7.482,-18.318 -5.689,0.782 -2.249,19.653 -2.608,-18.986 -6.3,0.864 3.418,24.897 z"
           style="fill:#008a4d;fill-opacity:1;fill-rule:nonzero;stroke:none"
           id="path3025"
           inkscape:connector-curvature="0" /><path
           d="m 342.504,593.452 19.356,-7.658 -1.975,-4.99 -12.116,4.794 -1.47,-3.715 11.24,-4.447 -1.886,-4.767 -11.241,4.447 -1.822,-4.608 12.467,-4.933 -2.094,-5.293 -19.706,7.797 9.247,23.373 z"
           style="fill:#008a4d;fill-opacity:1;fill-rule:nonzero;stroke:none"
           id="path3027"
           inkscape:connector-curvature="0" /><path
           d="m 370.251,581.491 5.985,-4.094 -0.039,-16.819 7.85,11.475 6.042,-4.133 -14.191,-20.743 -6.042,4.134 0.024,16.704 -7.792,-11.39 -6.027,4.124 14.19,20.742 z"
           style="fill:#008a4d;fill-opacity:1;fill-rule:nonzero;stroke:none"
           id="path3029"
           inkscape:connector-curvature="0" /><path
           d="m 398.006,538.815 3.078,-6.41 c -1.717,-0.951 -3.379,-1.497 -4.987,-1.636 -1.609,-0.14 -3.145,0.109 -4.61,0.744 -1.464,0.634 -2.957,1.783 -4.477,3.444 -1.845,2.015 -3.059,3.93 -3.642,5.743 -0.583,1.815 -0.561,3.861 0.066,6.138 0.626,2.278 2.089,4.471 4.391,6.578 3.07,2.81 6.175,4.153 9.317,4.03 3.142,-0.122 6.079,-1.676 8.811,-4.661 2.138,-2.336 3.346,-4.604 3.626,-6.805 0.278,-2.201 -0.264,-4.521 -1.625,-6.961 l -5.757,4.029 c 0.404,0.694 0.647,1.258 0.731,1.691 0.145,0.722 0.123,1.423 -0.065,2.102 -0.189,0.68 -0.546,1.306 -1.07,1.88 -1.189,1.299 -2.623,1.815 -4.301,1.55 -1.254,-0.188 -2.711,-1.042 -4.373,-2.562 -2.056,-1.883 -3.182,-3.486 -3.373,-4.809 -0.192,-1.322 0.229,-2.548 1.263,-3.678 1.004,-1.096 2.069,-1.643 3.198,-1.64 1.129,0.002 2.395,0.414 3.799,1.233"
           style="fill:#008a4d;fill-opacity:1;fill-rule:nonzero;stroke:none"
           id="path3031"
           inkscape:connector-curvature="0" /><path
           d="m 417.515,537.592 4.244,-6.523 -21.065,-13.707 -4.244,6.524 21.065,13.706 z"
           style="fill:#008a4d;fill-opacity:1;fill-rule:nonzero;stroke:none"
           id="path3033"
           inkscape:connector-curvature="0" /><path
           d="m 419.726,512.217 0.775,-1.738 c 0.608,-1.368 1.274,-2.222 1.997,-2.564 0.721,-0.341 1.452,-0.347 2.193,-0.016 0.72,0.321 1.224,0.833 1.512,1.537 0.287,0.704 0.135,1.719 -0.457,3.044 l -0.9,2.02 -5.12,-2.283 z m 6.609,11.489 5.258,-11.791 c 1.145,-2.568 1.391,-4.764 0.741,-6.588 -0.65,-1.823 -2.105,-3.238 -4.359,-4.243 -2.319,-1.034 -4.44,-1.145 -6.367,-0.333 -1.926,0.812 -3.526,2.648 -4.802,5.509 l -1.732,3.883 -8.519,-3.799 -3.176,7.125 22.956,10.237 z"
           style="fill:#008a4d;fill-opacity:1;fill-rule:nonzero;stroke:none"
           id="path3035"
           inkscape:connector-curvature="0" /><path
           d="m 437.161,497.87 4.961,-23.073 -6.065,-1.304 -1.664,7.74 -18.498,-3.978 -1.633,7.591 18.498,3.978 -1.664,7.741 6.065,1.305 z"
           style="fill:#008a4d;fill-opacity:1;fill-rule:nonzero;stroke:none"
           id="path3037"
           inkscape:connector-curvature="0" /><path
           d="m 427.363,455.521 8.985,2.941 -9.086,2.596 0.101,-5.537 z m -5.406,-1.729 -0.16,8.847 -4.171,1.142 -0.145,7.938 25.306,-8.989 0.154,-8.469 -24.962,-9.906 -0.148,8.127 4.126,1.31 z"
           style="fill:#008a4d;fill-opacity:1;fill-rule:nonzero;stroke:none"
           id="path3039"
           inkscape:connector-curvature="0" /><path
           d="m 184.82,418.593 3.142,-7.102 -8.684,-3.843 11.979,-3.602 4.176,-9.437 -12.372,4.535 -10.442,-15.08 -3.871,8.748 7.309,9.026 -5.464,1.968 -5.612,-2.484 -3.141,7.102 22.98,10.169 z"
           style="fill:#008a4d;fill-opacity:1;fill-rule:nonzero;stroke:none"
           id="path3041"
           inkscape:connector-curvature="0" /><path
           d="m 196.43,393.782 12.265,-16.823 -4.338,-3.162 -7.677,10.531 -3.229,-2.353 7.122,-9.77 -4.143,-3.02 -7.123,9.769 -4.004,-2.92 7.9,-10.837 -4.6,-3.352 -12.487,17.127 20.314,14.81 z"
           style="fill:#008a4d;fill-opacity:1;fill-rule:nonzero;stroke:none"
           id="path3043"
           inkscape:connector-curvature="0" /><path
           d="m 209.217,354.401 3.483,3.9 8.95,-7.992 -7.136,-7.992 c -2.757,0.363 -4.982,0.921 -6.675,1.675 -1.693,0.754 -3.444,1.939 -5.251,3.553 -2.225,1.986 -3.7,3.984 -4.424,5.995 -0.725,2.011 -0.804,4.11 -0.235,6.3 0.568,2.188 1.72,4.255 3.456,6.198 1.826,2.046 3.838,3.449 6.032,4.209 2.196,0.759 4.458,0.804 6.786,0.134 1.81,-0.529 3.789,-1.752 5.937,-3.67 2.071,-1.851 3.453,-3.422 4.145,-4.714 0.693,-1.293 1.026,-2.635 0.999,-4.028 -0.026,-1.395 -0.409,-2.849 -1.149,-4.364 l -6.479,3.993 c 0.402,0.913 0.495,1.802 0.281,2.668 -0.215,0.867 -0.749,1.68 -1.601,2.441 -1.27,1.135 -2.676,1.597 -4.218,1.388 -1.542,-0.208 -3.167,-1.268 -4.872,-3.176 -1.811,-2.029 -2.724,-3.819 -2.737,-5.369 -0.014,-1.551 0.661,-2.935 2.026,-4.154 0.647,-0.578 1.349,-1.036 2.105,-1.374 0.755,-0.337 1.714,-0.619 2.876,-0.844 l 1.575,1.764 -3.874,3.459 z"
           style="fill:#008a4d;fill-opacity:1;fill-rule:nonzero;stroke:none"
           id="path3045"
           inkscape:connector-curvature="0" /><path
           d="m 231.321,356.913 18.103,-10.277 -2.65,-4.668 -11.333,6.433 -1.973,-3.474 10.513,-5.969 -2.531,-4.458 -10.513,5.968 -2.447,-4.31 11.662,-6.62 -2.811,-4.951 -18.432,10.465 12.412,21.861 z"
           style="fill:#008a4d;fill-opacity:1;fill-rule:nonzero;stroke:none"
           id="path3047"
           inkscape:connector-curvature="0" /><path
           d="m 251.437,345.354 9.797,-2.909 -0.572,-15.785 8.117,13.546 9.765,-2.898 -7.153,-24.099 -6.082,1.805 5.455,18.378 -10.174,-16.978 -5.507,1.635 0.754,19.774 -5.455,-18.379 -6.099,1.811 7.154,24.099 z"
           style="fill:#008a4d;fill-opacity:1;fill-rule:nonzero;stroke:none"
           id="path3049"
           inkscape:connector-curvature="0" /><path
           d="m 282.781,337.456 7.747,-0.79 -2.55,-25.015 -7.748,0.789 2.551,25.016 z"
           style="fill:#008a4d;fill-opacity:1;fill-rule:nonzero;stroke:none"
           id="path3051"
           inkscape:connector-curvature="0" /><path
           d="m 295.83,336.127 7.758,0.379 0.926,-18.927 12.111,0.593 0.301,-6.185 -19.868,-0.97 -1.228,25.11 z"
           style="fill:#008a4d;fill-opacity:1;fill-rule:nonzero;stroke:none"
           id="path3053"
           inkscape:connector-curvature="0" /><path
           d="m 334.988,325.672 -4.913,8.074 -0.453,-9.436 5.366,1.362 z m 2.916,-4.867 -8.574,-2.176 -0.16,-4.321 -7.693,-1.953 2.974,26.686 8.209,2.082 15.337,-22.037 -7.876,-1.999 -2.217,3.718 z"
           style="fill:#008a4d;fill-opacity:1;fill-rule:nonzero;stroke:none"
           id="path3055"
           inkscape:connector-curvature="0" /><path
           d="m 342.312,343.857 6.465,3.285 14.735,-8.112 -6.296,12.398 6.526,3.314 11.381,-22.409 -6.526,-3.315 -14.642,8.044 6.25,-12.307 -6.512,-3.307 -11.381,22.409 z"
           style="fill:#008a4d;fill-opacity:1;fill-rule:nonzero;stroke:none"
           id="path3057"
           inkscape:connector-curvature="0" /><path
           d="m 386.281,352.243 -3.354,4.014 9.212,7.698 6.874,-8.225 c -0.76,-2.675 -1.636,-4.796 -2.627,-6.363 -0.994,-1.567 -2.419,-3.128 -4.28,-4.682 -2.29,-1.914 -4.482,-3.083 -6.577,-3.508 -2.097,-0.425 -4.186,-0.198 -6.27,0.682 -2.084,0.882 -3.962,2.322 -5.634,4.323 -1.759,2.104 -2.855,4.299 -3.289,6.582 -0.432,2.283 -0.148,4.528 0.853,6.735 0.788,1.716 2.286,3.497 4.497,5.345 2.13,1.78 3.887,2.921 5.267,3.418 1.38,0.497 2.757,0.632 4.132,0.403 1.376,-0.229 2.759,-0.819 4.151,-1.772 l -4.891,-5.832 c -0.846,0.53 -1.713,0.752 -2.602,0.665 -0.888,-0.087 -1.771,-0.497 -2.648,-1.23 -1.307,-1.093 -1.969,-2.417 -1.987,-3.974 -0.017,-1.556 0.794,-3.318 2.437,-5.283 1.744,-2.088 3.383,-3.251 4.916,-3.49 1.533,-0.238 3.001,0.229 4.405,1.402 0.666,0.557 1.223,1.186 1.666,1.884 0.444,0.699 0.862,1.608 1.254,2.725 l -1.516,1.815 -3.989,-3.332 z"
           style="fill:#008a4d;fill-opacity:1;fill-rule:nonzero;stroke:none"
           id="path3059"
           inkscape:connector-curvature="0" /><path
           d="m 407.746,375.801 -8.856,3.31 5.478,-7.7 3.378,4.39 z m 5.301,-2.025 -5.396,-7.011 2.546,-3.497 -4.843,-6.291 -14.159,22.821 5.167,6.713 25.685,-7.846 -4.957,-6.441 -4.043,1.552 z"
           style="fill:#008a4d;fill-opacity:1;fill-rule:nonzero;stroke:none"
           id="path3061"
           inkscape:connector-curvature="0" /><path
           d="m 402.296,394.618 3.062,6.573 16.597,2.705 -12.6,5.873 3.09,6.634 22.78,-10.614 -3.091,-6.635 -16.484,-2.702 12.508,-5.828 -3.084,-6.619 -22.778,10.613 z"
           style="fill:#008a4d;fill-opacity:1;fill-rule:nonzero;stroke:none"
           id="path3063"
           inkscape:connector-curvature="0" /><path
           d="m 284.975,344.163 14.027,14.027 14.028,-14.028 93.883,93.884 c 5.96,5.96 5.96,15.711 0,21.669 L 299.003,567.627 191.091,459.715 c -5.959,-5.958 -5.959,-15.709 0,-21.668 l 93.884,-93.884 z m 14.027,62.079 0,10e-4 10e-4,-10e-4 49.235,49.237 c 3.643,3.642 9.55,3.642 13.194,0 3.642,-3.644 3.642,-9.55 0,-13.193 l -62.43,-62.43 -62.429,62.43 c -3.643,3.643 -3.643,9.549 0,13.193 3.643,3.642 9.55,3.642 13.193,0 l 49.236,-49.237 z m 10.833,-37.22 62.43,62.43 c 9.625,9.626 9.625,25.234 -10e-4,34.86 -9.626,9.626 -25.234,9.626 -34.86,0 L 299.002,427.909 260.6,466.312 c -9.626,9.626 -25.234,9.626 -34.86,0 -9.626,-9.626 -9.626,-25.234 -0.001,-34.86 l 62.431,-62.43 -2.129,-2.127 -81.987,81.987 94.948,94.948 94.949,-94.949 -81.988,-81.986 -2.128,2.127 z"
           style="fill:#3f4096;fill-opacity:1;fill-rule:nonzero;stroke:none"
           id="path3065"
           inkscape:connector-curvature="0" /></g></g></g></svg>