<?xml version="1.0" standalone="no"?>
<!DOCTYPE svg PUBLIC "-//W3C//DTD SVG 1.1//EN" "http://www.w3.org/Graphics/SVG/1.1/DTD/svg11.dtd" >
<svg xmlns="http://www.w3.org/2000/svg" xmlns:xlink="http://www.w3.org/1999/xlink" version="1.1" viewBox="-11 0 1172 1000">
   <path fill="currentColor"
d="M426 680q18 14 33 30t16 38h-1q-18 -2 -33 -11.5t-31 -20.5q-15 -11 -29.5 -22t-30.5 -17q-16 -7 -32.5 -8.5t-32.5 0.5q-10 1 -23.5 4.5t-27.5 6.5t-26.5 3t-21.5 -7q-7 -6 -5 -12q-4 -2 -7.5 -4.5t-7.5 -5.5q-11 -8 -21.5 -16t-22.5 -13q-22 -8 -47 -6q-7 1 -16.5 4
t-20 5t-19.5 2t-15 -5q-7 -6 -2.5 -13t13.5 -14t18.5 -12t12.5 -8q10 -7 19.5 -15t18.5 -17q6 -8 15.5 -22t19.5 -30q-3 0 -6 -3q-7 -6 -2.5 -13.5t13.5 -13.5t18 -11.5t12 -7.5q20 -15 39 -34q6 -6 15 -19.5t19 -29.5q-3 -1 -5 -4q-7 -5 -2.5 -12.5t13.5 -13.5t18 -11.5
t12 -7.5q5 -3 6 -4q7 -7 13 -11q5 -4 10 -8.5t10 -10.5q8 -9 20.5 -28.5t27.5 -40.5q14 -20 29 -35t28 -15q-4 21 -14.5 38t-20.5 36q-10 18 -16 37t-2 43q3 14 15.5 25t25.5 23q12 9 22.5 19t12.5 23q8 -2 12 -2q-6 28 -20.5 52t-27.5 50q-14 25 -23 51.5t-2 58.5
q4 20 20.5 35.5t36.5 30.5zM114 597q3 -1 1.5 -7t-4 -13t-6 -12.5t-4.5 -4.5q-11 6 -17 12t-7 10q-3 4 -2 9q10 3 18 4q6 2 13 2.5t8 -0.5zM318 294q-11 6 -16.5 12t-7.5 10q-2 5 -1 10q9 2 17 4q7 1 13.5 1.5t8.5 -0.5t1 -7t-4 -13t-6 -12t-5 -5zM210 426q-12 6 -17.5 12
t-6.5 10q-3 5 -2 10q10 2 18 4q6 1 13 1.5t8 -0.5q3 -1 1.5 -7t-4 -12.5t-6 -12t-4.5 -5.5zM197 643q12 -10 27 -18.5t19 -11.5q14 -11 27 -22t26 -25q4 -4 9 -10t10 -14q-11 -3 -20.5 -9t-19.5 -13q-11 -8 -21.5 -16t-22.5 -13q-11 -5 -23 -6t-24 1q-5 0 -11.5 2t-12.5 3
l-6 9q-10 18 -16 37t-1 42q2 15 14.5 26t26.5 22q4 4 9 8zM338 638q3 -1 1.5 -9.5t-5.5 -18t-8 -17t-6 -6.5q-16 8 -23 15.5t-11 14.5q-3 7 -2 13q13 3 24 5q10 2 18.5 3.5t11.5 -0.5zM321 534q9 -14 19.5 -30t21.5 -32q15 -21 30 -37.5t30 -25.5q-11 -3 -20 -9l-18 -12
q-11 -8 -21.5 -16t-22.5 -13q-11 -5 -23 -6t-24 0q-5 1 -12 3t-14 3q-1 3 -4 7q-10 18 -16 37t-1 43q2 14 14.5 25t25.5 23q12 8 21.5 18t13.5 22zM1137 448q14 7 14 13.5t-6.5 11.5t-16.5 8.5t-17 3.5q-35 1 -70 -1t-71 -4q-51 -1 -101.5 -1.5t-100.5 -0.5q1 48 1 94.5
t1 93.5q0 12 1.5 26t2.5 29t0.5 28.5t-5.5 24.5q-7 15 -13.5 15.5t-12 -6.5t-9 -17t-3.5 -16q-2 -36 0 -71t2 -71q0 -33 0.5 -65t-0.5 -64q-11 0 -21 0.5t-20 0.5q-78 2 -155 12q-20 2 -35.5 15t-25.5 28q-7 11 -14.5 22.5t-15.5 21.5t-16 16.5t-17 8.5q-11 2 -17 -8t-2 -19
q7 -12 15.5 -23.5t16.5 -22.5t14.5 -23.5t8.5 -26.5q5 -43 3 -86.5t-10 -79.5q-3 -16 -12 -31t-10 -31q-1 -2 2.5 -5t5.5 -5q9 -6 19.5 -3.5t18.5 14.5q10 15 16 32t12.5 35.5t14.5 38t21 38.5q16 11 38 19t48.5 12.5t56 7.5t59.5 5q-1 -28 -1.5 -56t-2.5 -56
q-4 -79 -14 -155q-4 -20 -16.5 -35.5t-27.5 -24.5q-11 -7 -23 -14t-22 -15t-17 -16t-9 -16q-1 -12 9 -18t18 -2q12 6 23.5 14.5t23 16.5t23.5 14.5t26 7.5q44 4 87.5 1.5t79.5 -10.5q16 -4 30.5 -14t30.5 -10q2 0 5 3l5 5q6 8 4 19t-14 19q-14 10 -31 16.5t-35.5 13.5
t-38 15t-38.5 21q-13 20 -21 50t-12.5 65t-6 73.5t-0.5 75.5v12q7 0 13 0.5t12 -0.5q60 0 119 1.5t119 1.5q11 0 25.5 -1.5t28.5 -2.5t28 0t25 7zM550 441l-56 -33l-9 60zM765 187l31 -57l-59 -8z" />
</svg>
