<?xml version="1.0" encoding="UTF-8" standalone="no"?>
<!-- Created with Inkscape (http://www.inkscape.org/) -->

<svg
   xmlns:dc="http://purl.org/dc/elements/1.1/"
   xmlns:cc="http://creativecommons.org/ns#"
   xmlns:rdf="http://www.w3.org/1999/02/22-rdf-syntax-ns#"
   xmlns:svg="http://www.w3.org/2000/svg"
   xmlns="http://www.w3.org/2000/svg"
   xmlns:inkscape="http://www.inkscape.org/namespaces/inkscape"
   version="1.1"
   width="600"
   height="581.26001"
   id="svg2">
  <defs
     id="defs19" />
  <metadata
     id="metadata18">
    <rdf:RDF>
      <cc:Work
         rdf:about="">
        <dc:format>image/svg+xml</dc:format>
        <dc:type
           rdf:resource="http://purl.org/dc/dcmitype/StillImage" />
        <dc:title />
      </cc:Work>
    </rdf:RDF>
  </metadata>
  <g
     transform="matrix(0.41638,0,0,0.41638,-47.465,-128.98)"
     id="g3614"
     style="fill:#ffffff;fill-rule:nonzero;stroke:#000000;stroke-linejoin:round;stroke-miterlimit:4;stroke-dasharray:none">
    <path
       d="m 114.5,535.27 h 270 l -90,-225 h 1080 l -90,225 h 270 l -315,1170 h -810 l -315,-1170 z"
       inkscape:connector-curvature="0"
       id="rect2816"
       style="stroke-width:1" />
    <path
       d="M 1194,1660.8 H 474 L 181.5,580.8 h 270 l -90,-225 h 945 l -90,225 h 270 l -292.5,1080 z"
       inkscape:connector-curvature="0"
       id="path3601"
       style="stroke-width:35" />
  </g>
  <g
     id="routenum"
     style="font-size:234.21000671px;font-style:normal;font-variant:normal;font-weight:normal;font-stretch:normal;text-align:center;line-height:125%;writing-mode:lr-tb;text-anchor:middle;fill:#000000;font-family:USHighwaysOldStyleBCBA">
    <path
       d="m 150.13,375.16 c -7.1825,0 -13.35,-2.5763 -18.503,-7.729 -5.1527,-5.1527 -7.729,-11.32 -7.729,-18.503 v -54.806 c 0,-4.528 1.2491,-8.9 3.7474,-13.116 -2.4983,-4.0596 -3.7474,-8.4315 -3.7474,-13.116 v -53.869 c 0,-7.1823 2.5763,-13.35 7.729,-18.503 5.1527,-5.1525 11.32,-7.7288 18.503,-7.729 h 53.635 c 7.1824,1.9e-4 13.35,2.5765 18.503,7.729 5.1526,5.1528 7.7289,11.32 7.729,18.503 v 53.869 c -1.1e-4,4.6844 -1.2492,9.0563 -3.7474,13.116 2.4982,4.2159 3.7473,8.5879 3.7474,13.116 v 54.806 c -1.1e-4,7.1825 -2.5764,13.35 -7.729,18.503 -5.1528,5.1527 -11.32,7.729 -18.503,7.729 H 150.13 m 44.032,-115.47 c 3.7473,1.2e-4 5.621,-1.7955 5.6211,-5.3869 v -30.682 c -8e-5,-3.7472 -1.8738,-5.6209 -5.6211,-5.6211 h -34.429 c -3.7474,1.6e-4 -5.6211,1.8739 -5.6211,5.6211 v 30.682 c -3e-5,3.5914 1.8737,5.387 5.6211,5.3869 h 34.429 m 0,85.253 c 3.7473,3e-5 5.621,-1.8737 5.6211,-5.6211 v -44.032 c -8e-5,-3.5912 -1.8738,-5.3868 -5.6211,-5.3869 h -34.429 c -3.7474,8e-5 -5.6211,1.7957 -5.6211,5.3869 v 44.032 c -3e-5,3.7474 1.8737,5.6211 5.6211,5.6211 h 34.429"
       inkscape:connector-curvature="0"
       id="path2994" />
    <path
       d="M 339.41,301.61 V 187.78 h -30.213 l -59.958,113.59 v 30.448 h 59.958 v 43.329 h 30.213 v -43.329 h 14.053 V 301.605 H 339.41 m -30.213,0 h -25.763 l 25.763,-48.95 v 48.95"
       inkscape:connector-curvature="0"
       id="path2996" />
    <path
       d="m 476.56,214.02 c -1.1e-4,-7.3385 -2.5764,-13.506 -7.729,-18.503 -4.9966,-5.1525 -11.164,-7.7288 -18.503,-7.729 h -53.635 c -7.1825,1.9e-4 -13.35,2.5765 -18.503,7.729 -5.1527,5.1528 -7.729,11.32 -7.729,18.503 v 26.232 h 30.213 v -16.629 c -3e-5,-3.7472 1.8737,-5.6209 5.6211,-5.6211 h 34.429 c 3.7473,1.6e-4 5.621,1.8739 5.6211,5.6211 l -0.23422,24.592 c -7e-5,3.4352 -1.4053,6.3238 -4.2158,8.6658 l -59.958,39.816 c -7.6509,5.1527 -11.476,12.413 -11.476,21.782 v 56.679 h 106.1 v -30.213 h -70.264 c -3.7474,3e-5 -5.6211,-1.8737 -5.6211,-5.6211 v -15.224 c -3e-5,-1.8736 0.93682,-3.4351 2.8106,-4.6842 l 65.579,-43.798 c 4.8403,-3.2789 7.2605,-8.7438 7.2606,-16.395 l 0.23421,-45.203"
       inkscape:connector-curvature="0"
       id="path2998" />
  </g>
  <g
     transform="matrix(0.41638,0,0,0.41638,-49.131,-128.98)"
     id="g3660"
     style="fill:#000000;stroke:#000000;stroke-linejoin:round;stroke-miterlimit:4">
    <path
       d="m 609.69,493.89 v -51.606 c -1.1e-4,-6.91 -3.5758,-12.718 -10.727,-17.422 -6.9348,-4.8516 -15.495,-7.2776 -25.68,-7.2777 l -66.45,0.015 v 176.41 h 27.442 v -75.424 h 28.808 l 18.54,75.409 27.742,0.015 -19.179,-78.291 c 13.002,-4.7047 19.504,-11.982 19.504,-21.833 m -27.437,-6.175 c -8e-5,4.1168 -3.0223,6.2042 -9.09,6.2041 l -38.888,-0.029 v -51.606 l 38.888,-0.0252 c 6.0678,1.6e-4 9.0899,2.0934 9.09,6.21 v 39.246"
       inkscape:connector-curvature="0"
       id="path3645"
       style="text-align:center;stroke-width:3.56999993" />
    <path
       d="m 683.18,417.59 c -9.9676,1.7e-4 -18.527,2.4261 -25.677,7.2777 -7.1506,4.852 -10.726,10.659 -10.726,17.422 v 127.03 c 0,6.7632 3.5753,12.571 10.726,17.422 7.1506,4.8518 15.71,7.2778 25.677,7.2778 h 39.004 c 10.184,0 18.743,-2.3524 25.677,-7.0572 7.1505,-4.8518 10.726,-10.733 10.726,-17.643 v -127.03 c -1.1e-4,-6.91 -3.5754,-12.718 -10.726,-17.422 -6.9341,-4.8517 -15.493,-7.2776 -25.677,-7.2777 H 683.18 m 48.039,145.55 c -7e-5,4.1167 -3.1119,6.1848 -9.1791,6.1848 l -38.786,0.0252 c -6.0673,2e-5 -9.0891,-2.0835 -9.0891,-6.2003 v -114.67 c -4e-5,-4.1166 3.0218,-6.2099 9.0891,-6.21 h 38.786 c 6.0672,1.5e-4 9.179,2.0934 9.1791,6.21 v 114.66"
       inkscape:connector-curvature="0"
       id="path3647"
       style="text-align:center;stroke-width:3.56990004" />
    <path
       d="m 879.27,417.6 v 145.53 c -8e-5,4.1167 -3.0222,6.1848 -9.09,6.1848 l -38.79,0.0252 c -6.0679,2e-5 -9.09,-2.0933 -9.09,-6.21 V 417.6 l -27.441,-0.015 v 151.73 c 0,6.7632 3.5757,12.571 10.727,17.422 7.1513,4.8518 15.711,7.2778 25.68,7.2778 h 39.007 c 10.185,0 18.745,-2.3524 25.68,-7.0572 7.1512,-4.8518 10.727,-10.733 10.727,-17.643 v -151.73 l -27.41,0.015"
       inkscape:connector-curvature="0"
       id="path3649"
       style="text-align:center;stroke-width:3.56999993" />
    <path
       d="m 939.79,417.59 v 24.7 l 39.822,-0.0252 v 151.75 h 29.79 v -151.76 l 42.534,0.0253 v -24.7 h -112.15"
       inkscape:connector-curvature="0"
       id="path3651"
       style="text-align:center;stroke-width:3.56999993" />
    <path
       d="m 1173.6,417.59 h -91.992 v 176.43 h 91.992 v -24.7 h -64.605 v -60.185 h 48.027 v -24.66 h -48.027 v -42.21 l 64.605,0.0252 v -24.7"
       inkscape:connector-curvature="0"
       id="path3653"
       style="text-align:center;stroke-width:3.56999993" />
  </g>
</svg>
