<?xml version="1.0" encoding="UTF-8" standalone="no"?>
<svg
   xmlns:dc="http://purl.org/dc/elements/1.1/"
   xmlns:cc="http://creativecommons.org/ns#"
   xmlns:rdf="http://www.w3.org/1999/02/22-rdf-syntax-ns#"
   xmlns:svg="http://www.w3.org/2000/svg"
   xmlns="http://www.w3.org/2000/svg"
   version="1.0"
   width="600"
   height="600"
   id="svg2">
  <defs
     id="defs12" />
  <metadata
     id="metadata7">
    <rdf:RDF>
      <cc:Work
         rdf:about="">
        <dc:format>image/svg+xml</dc:format>
        <dc:type
           rdf:resource="http://purl.org/dc/dcmitype/StillImage" />
        <dc:title />
      </cc:Work>
    </rdf:RDF>
  </metadata>
  <g
     transform="translate(0 0.00048)"
     id="layer1">
    <rect
       x="0"
       y="-0.00048"
       width="600"
       height="600"
       ry="37.5"
       rx="37.5"
       id="rect3805" />
    <path
       fill="#fff"
       d="m125 25 14.438 100h-114.44l65 450h420l65-450h-114.44l14.438-100z"
       id="rect2989" />
    <g
       id="routenum">
      <path
         d="m269.28 240.45q0 30.896-8.5075 61.791-8.0597 30.448-23.284 58.657t-36.716 52.388q-21.493 24.179-47.463 42.09l-22.836-40.298q13.433-10.746 23.731-20.597 10.746-10.299 19.254-21.045 8.5075-10.746 15.672-22.836 7.1642-12.09 13.881-26.866-12.985 2.2388-20.149 3.1343-6.7164 0.89552-15.672 0.89552-21.045 0-39.851-7.1642-18.358-7.1642-32.239-19.254-13.881-12.537-21.94-29.104-8.0597-17.015-8.0597-35.821 0-19.254 8.0597-35.821 8.0597-17.015 21.493-29.104 13.881-12.537 32.239-19.701 18.806-7.1642 40.299-7.1642t40.299 7.6119q18.806 7.1642 32.239 20.149 13.881 12.537 21.493 30 8.0597 17.463 8.0597 38.06zm-47.463-4.0298q0-8.5075-4.4776-16.567-4.4776-8.0597-12.09-13.881-7.1642-5.8209-17.015-9.403t-21.045-3.5821-21.045 3.5821q-9.403 3.1343-17.015 8.9552-7.1642 5.8209-11.642 13.881-4.0298 8.0597-4.0298 17.015 0 8.9552 4.0298 17.015 4.4776 7.6119 11.642 13.433 7.6119 5.8209 17.015 9.403 9.8507 3.1343 21.045 3.1343t21.045-3.1343q10.299-3.5821 17.463-9.403 7.612-5.8209 11.642-13.433 4.4776-8.0597 4.4776-17.015z"
         style=""
         id="path13" />
      <path
         d="m500.72 375.22v74.776h-47.015v-74.776h-148.66v-28.209l148.67-197.01h47.015v182.24h28.657v42.985h-28.657zm-47.015-155.82-85.522 112.84h85.522v-112.84z"
         style=""
         id="path15" />
    </g>
  </g>
</svg>
