<?xml version="1.0" encoding="UTF-8" standalone="no"?>
<!-- Created with Inkscape (http://www.inkscape.org/) -->

<svg
   width="79.289993mm"
   height="118.38373mm"
   viewBox="0 0 79.289993 118.38373"
   version="1.1"
   id="svg1"
   inkscape:version="1.3.2 (091e20e, 2023-11-25, custom)"
   sodipodi:docname="PBOTdraw.svg"
   xml:space="preserve"
   xmlns:inkscape="http://www.inkscape.org/namespaces/inkscape"
   xmlns:sodipodi="http://sodipodi.sourceforge.net/DTD/sodipodi-0.dtd"
   xmlns="http://www.w3.org/2000/svg"
   xmlns:svg="http://www.w3.org/2000/svg"><sodipodi:namedview
     id="namedview1"
     pagecolor="#ffffff"
     bordercolor="#000000"
     borderopacity="0.25"
     inkscape:showpageshadow="2"
     inkscape:pageopacity="0.0"
     inkscape:pagecheckerboard="0"
     inkscape:deskcolor="#d1d1d1"
     inkscape:document-units="mm"
     inkscape:zoom="0.38531773"
     inkscape:cx="2849.5964"
     inkscape:cy="-4213.4059"
     inkscape:window-width="1920"
     inkscape:window-height="1017"
     inkscape:window-x="-8"
     inkscape:window-y="-8"
     inkscape:window-maximized="1"
     inkscape:current-layer="layer1"
     inkscape:lockguides="true"
     showguides="true" /><defs
     id="defs1"><style
       id="style1">.a{fill:#fff;}</style><style
       id="style1-6">
	.a {
		fill: #fff;
	}

	.b {
		fill: #af1e2d;
	}
  </style><style
       id="style1-8">.a{fill:#fff;}</style><style
       id="style1-6-3">
	.a {
		fill: #fff;
	}

	.b {
		fill: #af1e2d;
	}
  </style><style
       id="style1-3">.a{fill:#fff;}</style><style
       id="style1-6-6">
	.a {
		fill: #fff;
	}

	.b {
		fill: #af1e2d;
	}
  </style><style
       id="style1-0">.a{fill:#fff;}</style><style
       id="style1-6-31">
	.a {
		fill: #fff;
	}

	.b {
		fill: #af1e2d;
	}
  </style></defs><g
     inkscape:label="Layer 1"
     inkscape:groupmode="layer"
     id="layer1"
     transform="translate(-1384.4502,1066.8654)"><g
       id="g806"><g
         id="g226"
         transform="translate(-15.560968,87.883301)"><path
           id="path225"
           style="color:#000000;fill:#f7f7f7;fill-opacity:1;fill-rule:evenodd;stroke:#000000;stroke-width:0.3;stroke-linejoin:round;stroke-miterlimit:19.4;stroke-dasharray:none;stroke-dashoffset:402.406;stroke-opacity:1;paint-order:stroke fill markers"
           d="m 1409.8134,-1154.5988 c -5.2755,0 -9.6522,4.3751 -9.6522,9.6506 v 98.7831 c 0,5.2755 4.3767,9.65 9.6522,9.65 h 59.6873 c 5.2755,0 9.6505,-4.3745 9.6505,-9.65 v -98.7831 c 0,-5.2755 -4.375,-9.6506 -9.6505,-9.6506 z" /><path
           id="path226"
           style="color:#000000;fill:#000000;fill-rule:evenodd;stroke-miterlimit:19.4;stroke-dashoffset:402.406;-inkscape-stroke:none;paint-order:stroke fill markers"
           d="m 1409.8165,-1151.8008 c -3.7729,0 -6.8538,3.0826 -6.8538,6.8554 v 98.7775 c 0,3.7728 3.0808,6.8533 6.8538,6.8533 h 59.6796 c 3.7729,0 6.8533,-3.0805 6.8533,-6.8533 v -98.7775 c 0,-3.7728 -3.0804,-6.8554 -6.8533,-6.8554 z m 0,2.8438 h 59.6796 c 2.2475,0 4.0116,1.7641 4.0116,4.0116 v 46.5899 c 0,2.2202 -1.7237,3.9637 -3.932,4.006 -0.027,-3e-4 -0.053,0 -0.08,0 h -59.6796 c -0.027,0 -0.053,0 -0.08,0 -2.2083,-0.042 -3.9325,-1.7858 -3.9325,-4.006 v -46.5899 c 0,-2.2475 1.7646,-4.0116 4.0121,-4.0116 z m -0.066,57.4533 c 0.022,2e-4 0.044,0 0.066,0 h 59.6796 c 0.022,0 0.044,0 0.066,0 2.215,0.035 3.9455,1.7807 3.9455,4.0055 v 41.3303 c 0,2.2475 -1.7641,4.0116 -4.0116,4.0116 h -59.6796 c -2.2475,0 -4.0121,-1.7641 -4.0121,-4.0116 v -41.3303 c 0,-2.2248 1.731,-3.9703 3.946,-4.0055 z"
           sodipodi:nodetypes="sccssccsssssscsscssscsscssssssc" /><path
           d="m 1438.3574,-1040.0616 q -0.3046,0.4848 -0.8484,0.4848 -0.4291,0 -0.6814,-0.3112 -0.249,-0.3112 -0.249,-0.8288 0,-0.5208 0.249,-0.8255 0.249,-0.3046 0.6814,-0.3046 0.547,0 0.8484,0.4848 l -0.357,0.1769 q -0.1704,-0.2621 -0.4914,-0.2719 -0.249,0.01 -0.3898,0.2228 -0.1409,0.2129 -0.1409,0.511 0,0.3538 0.1441,0.5503 0.1474,0.1933 0.3931,0.1933 0.3276,0 0.475,-0.2653 z m 2.2407,-0.6617 q 0,0.5143 -0.249,0.832 -0.2457,0.3145 -0.6584,0.3145 -0.4521,0 -0.7076,-0.3636 -0.2228,-0.3145 -0.2228,-0.7764 0,-0.5241 0.249,-0.8255 0.249,-0.3046 0.6814,-0.3046 0.4062,0 0.6552,0.3112 0.2522,0.3079 0.2522,0.8124 z m -0.3898,0.01 q 0,-0.3472 -0.1376,-0.5438 -0.1343,-0.1965 -0.38,-0.1965 -0.249,0 -0.3898,0.1965 -0.1409,0.1966 -0.1409,0.5438 0,0.3505 0.1409,0.5504 0.1408,0.1965 0.3898,0.1965 0.2817,0 0.4127,-0.2457 0.1049,-0.1932 0.1049,-0.5012 z m 1.8246,0.2392 h -0.629 v 0.8615 h -0.3931 v -2.1948 h 1.009 q 0.2162,0 0.3767,0.092 0.3374,0.1966 0.3374,0.5799 0,0.4127 -0.3374,0.5929 -0.1605,0.069 -0.3636,0.069 z m 0.3079,-0.6617 q 0,-0.1278 -0.085,-0.2032 -0.085,-0.075 -0.2294,-0.075 h -0.6224 v 0.5471 h 0.6224 q 0.1442,0 0.2294,-0.072 0.085,-0.075 0.085,-0.1965 z"
           id="text226"
           style="font-size:3.27583px;font-family:'Highway Gothic Wide';-inkscape-font-specification:'Highway Gothic Wide, Normal';text-align:center;text-anchor:middle;fill:#ffffff;fill-rule:evenodd;stroke-width:0.00564851;stroke-linejoin:round;stroke-miterlimit:19.4;stroke-dashoffset:402.406;paint-order:stroke fill markers"
           aria-label="COP" /></g><g
         id="g228"
         transform="matrix(1.6793245,0,0,1.6793245,2064.0606,703.8913)"
         style="stroke-width:0.595478"><path
           d="m -378.35462,-1032.3586 h -4.9835 v 6.8264 h -3.11468 v -17.3903 h 7.99435 q 1.71308,0 2.98491,0.7267 2.67343,1.5574 2.67343,4.5942 0,3.2704 -2.67343,4.698 -1.27183,0.545 -2.88108,0.545 z m 2.43983,-5.243 q 0,-1.0123 -0.67485,-1.6093 -0.67485,-0.597 -1.8169,-0.597 h -4.93158 v 4.3346 h 4.93158 q 1.14205,0 1.8169,-0.571 0.67485,-0.597 0.67485,-1.5573 z"
           id="text227"
           style="font-size:25.9557px;font-family:'Highway Gothic Wide';-inkscape-font-specification:'Highway Gothic Wide, Normal';text-align:center;text-anchor:middle;fill-rule:evenodd;stroke-width:2.38192;stroke-miterlimit:19.4;stroke-dashoffset:402.406;paint-order:stroke fill markers"
           aria-label="P" /><path
           id="path228"
           style="color:#000000;fill:#af1e2d;fill-opacity:1;fill-rule:evenodd;stroke-width:0.595478;stroke-miterlimit:19.4;stroke-dashoffset:402.406;-inkscape-stroke:none;paint-order:stroke fill markers"
           d="m -381.0858,-1050.1313 c -8.4048,0 -15.26,6.8549 -15.26,15.2595 0,8.4048 6.8552,15.2617 15.26,15.2617 8.4048,0 15.2616,-6.8569 15.2616,-15.2617 0,-8.4047 -6.8568,-15.2595 -15.2616,-15.2595 z m 0,3.9999 c 6.2431,0 11.2614,5.0168 11.2614,11.2597 0,2.3949 -0.7407,4.6083 -2.0035,6.4286 l -15.6864,-15.6848 c 1.8201,-1.2628 4.0334,-2.0035 6.4285,-2.0035 z m -9.2568,4.8316 15.6859,15.6859 c -1.8205,1.2633 -4.0338,2.004 -6.4291,2.004 -6.2431,0 -11.2603,-5.0188 -11.2603,-11.2619 0,-2.395 0.7408,-4.6079 2.0035,-6.428 z" /></g><path
         d="m 1401.9818,-979.89762 q 0,1.78992 -1.1102,3.17201 -1.1102,1.35943 -3.0587,1.35943 -1.7899,0 -3.036,-1.38208 -1.2235,-1.40475 -1.2235,-3.35327 h 2.0844 q 0,1.20083 0.5891,1.9032 0.6118,0.70238 1.5407,0.70238 0.861,0 1.4954,-0.67972 0.6344,-0.70237 0.6117,-1.63132 -0.023,-0.74768 -0.5664,-1.56334 -0.5211,-0.83832 -1.9485,-1.74461 -1.6313,-1.04223 -2.379,-2.0618 -0.7477,-1.04223 -0.7477,-1.94852 -0.023,-1.63132 1.0422,-2.76418 1.0649,-1.15552 2.7189,-1.17817 1.7446,0 2.8548,1.15551 1.1328,1.13286 1.1328,2.76418 h -2.2204 q 0.023,-0.88363 -0.5664,-1.38209 -0.5664,-0.49846 -1.2008,-0.45314 -0.7477,0.0453 -1.1555,0.56643 -0.4079,0.49846 -0.3852,1.22349 0.023,0.4758 0.4078,0.92894 0.3852,0.45315 1.6767,1.35943 1.8125,1.22349 2.6055,2.40167 0.8157,1.17817 0.8383,2.60557 z m 10.377,-0.27188 q 0,1.65397 -0.589,2.67355 -0.5438,0.92894 -1.5634,1.54069 -0.9969,0.58908 -2.0618,0.58908 -1.1102,0 -2.1524,-0.58908 -1.0196,-0.58909 -1.5634,-1.54069 -0.5891,-1.04223 -0.5891,-2.67355 v -10.64889 h 2.1751 v 10.92077 q 0,1.08755 0.5891,1.74461 0.5891,0.65706 1.5407,0.65706 0.8836,0 1.4501,-0.65706 0.5664,-0.67972 0.5664,-1.74461 v -10.92077 h 2.1977 z m 10.3997,4.53144 h -2.1071 l -4.2369,-9.65197 v 9.65197 h -2.1751 v -15.18033 h 2.1751 l 4.1462,9.51603 v -9.51603 h 2.1978 z m 10.4223,-7.59016 q 0,3.67046 -1.2008,5.64164 -1.1782,1.94852 -3.5119,1.94852 h -3.7611 v -15.18033 h 3.7611 q 2.3337,0 3.5119,1.97118 1.2008,1.94852 1.2008,5.61899 z m -2.1071,-0.0453 q 0,-2.87746 -0.7477,-4.14627 -0.725,-1.29146 -1.9485,-1.29146 h -1.5634 v 5.46039 5.46038 h 1.5634 q 1.2235,0 1.9485,-1.2688 0.7477,-1.29146 0.7477,-4.21424 z m 13.1412,7.63548 h -2.1978 l -1.0649,-4.14627 h -3.2399 l -1.0196,4.14627 h -2.1751 l 3.7837,-15.18033 h 2.1298 z m -3.7838,-6.27605 -1.1102,-4.37284 -1.0649,4.37284 z m 14.2061,-8.90428 -3.7838,8.3152 v 6.86513 h -2.1751 v -6.86513 l -3.7384,-8.3152 h 2.2884 l 2.5602,5.48305 2.4923,-5.48305 z"
         id="text228"
         style="font-size:22.6572px;font-family:'Highway Gothic Narrow';-inkscape-font-specification:'Highway Gothic Narrow, Normal';text-align:center;text-anchor:middle;fill:#af1e2d;stroke-width:0.400001;stroke-miterlimit:19.4;stroke-dashoffset:402.406"
         aria-label="SUNDAY" /><path
         id="path230"
         style="fill:#af1e2d;fill-opacity:1;stroke-width:0.0205248"
         d="m 1411.5186,-965.30844 c 0.4532,0.032 0.8378,0.5054 0.6396,1.0134 l -0.7429,2.3787 h 32.7844 v 3.17602 h -32.789 l 0.7475,2.4107 c 0.2643,0.657 -0.5079,1.2725 -1.097,0.862 l -7.0704,-4.8654 7.0704,-4.84462 c 0.1475,-0.1027 0.3061,-0.1413 0.4574,-0.1308 z"
         sodipodi:nodetypes="scccccccccs" /></g></g></svg>
