<?xml version="1.0" encoding="UTF-8" standalone="no"?>
<!-- Created with Inkscape (http://www.inkscape.org/) -->

<svg
   width="79.289993mm"
   height="118.38367mm"
   viewBox="0 0 79.289993 118.38367"
   version="1.1"
   id="svg1"
   inkscape:version="1.3.2 (091e20e, 2023-11-25, custom)"
   sodipodi:docname="PBOTdraw.svg"
   xml:space="preserve"
   xmlns:inkscape="http://www.inkscape.org/namespaces/inkscape"
   xmlns:sodipodi="http://sodipodi.sourceforge.net/DTD/sodipodi-0.dtd"
   xmlns="http://www.w3.org/2000/svg"
   xmlns:svg="http://www.w3.org/2000/svg"><sodipodi:namedview
     id="namedview1"
     pagecolor="#ffffff"
     bordercolor="#000000"
     borderopacity="0.25"
     inkscape:showpageshadow="2"
     inkscape:pageopacity="0.0"
     inkscape:pagecheckerboard="0"
     inkscape:deskcolor="#d1d1d1"
     inkscape:document-units="mm"
     inkscape:zoom="0.38531772"
     inkscape:cx="6222.1379"
     inkscape:cy="16.869195"
     inkscape:window-width="1920"
     inkscape:window-height="1017"
     inkscape:window-x="-8"
     inkscape:window-y="-8"
     inkscape:window-maximized="1"
     inkscape:current-layer="layer1"
     inkscape:lockguides="true"
     showguides="true" /><defs
     id="defs1"><style
       id="style1">.a{fill:#fff;}</style><style
       id="style1-6">
	.a {
		fill: #fff;
	}

	.b {
		fill: #af1e2d;
	}
  </style><style
       id="style1-8">.a{fill:#fff;}</style><style
       id="style1-6-3">
	.a {
		fill: #fff;
	}

	.b {
		fill: #af1e2d;
	}
  </style></defs><g
     inkscape:label="Layer 1"
     inkscape:groupmode="layer"
     id="layer1"
     transform="translate(-1399.1064,833.78873)"><g
       id="g636"><g
         id="g249"
         transform="translate(-142.58383,-110.77821)"><path
           id="path248"
           style="color:#000000;fill:#f7f7f7;fill-opacity:1;fill-rule:evenodd;stroke:#000000;stroke-width:0.3;stroke-linejoin:round;stroke-miterlimit:19.4;stroke-dasharray:none;stroke-dashoffset:402.406;stroke-opacity:1;paint-order:stroke fill markers"
           d="m 1551.4923,-722.8605 c -5.2755,0 -9.6521,4.3751 -9.6521,9.6506 v 98.7831 c 0,5.2755 4.3766,9.65 9.6521,9.65 h 59.6873 c 5.2756,0 9.6506,-4.3745 9.6506,-9.65 v -98.7831 c 0,-5.2755 -4.375,-9.6506 -9.6506,-9.6506 z" /><path
           id="rect248"
           style="fill:none;fill-rule:evenodd;stroke:#af1e2d;stroke-width:2.84212;stroke-miterlimit:19.4;stroke-dashoffset:402.406;paint-order:stroke fill markers"
           d="m 1551.4957,-718.64062 h 59.6787 c 3.0102,0 5.4336,2.42337 5.4336,5.43357 v 98.77674 c 0,3.0102 -2.4234,5.43357 -5.4336,5.43357 h -59.6787 c -3.0102,0 -5.4336,-2.42337 -5.4336,-5.43357 v -98.77674 c 0,-3.0102 2.4234,-5.43357 5.4336,-5.43357 z" /><path
           d="m 1580.0365,-608.32332 q -0.3047,0.48482 -0.8484,0.48482 -0.4292,0 -0.6814,-0.3112 -0.249,-0.31121 -0.249,-0.82879 0,-0.52085 0.249,-0.82551 0.249,-0.30465 0.6814,-0.30465 0.547,0 0.8484,0.48482 l -0.3571,0.1769 q -0.1703,-0.26207 -0.4913,-0.27189 -0.249,0.007 -0.3899,0.22275 -0.1408,0.21293 -0.1408,0.51103 0,0.35379 0.1441,0.55034 0.1474,0.19328 0.3931,0.19328 0.3276,-0.003 0.475,-0.26535 z m 2.2407,-0.66172 q 0,0.51431 -0.249,0.83206 -0.2457,0.31448 -0.6584,0.31448 -0.4521,0 -0.7076,-0.36361 -0.2228,-0.31448 -0.2228,-0.77638 0,-0.52413 0.249,-0.82551 0.249,-0.30465 0.6814,-0.30465 0.4062,0 0.6551,0.31121 0.2523,0.30792 0.2523,0.8124 z m -0.3899,0.007 q 0,-0.34723 -0.1375,-0.54378 -0.1344,-0.19655 -0.38,-0.19655 -0.249,0 -0.3899,0.19655 -0.1408,0.19655 -0.1408,0.54378 0,0.35052 0.1408,0.55034 0.1409,0.19655 0.3899,0.19655 0.2817,0 0.4127,-0.24568 0.1048,-0.19328 0.1048,-0.50121 z m 1.8247,0.23914 h -0.629 v 0.86154 h -0.3931 v -2.1948 h 1.009 q 0.2162,0 0.3767,0.0917 0.3374,0.19655 0.3374,0.57982 0,0.41276 -0.3374,0.59293 -0.1605,0.0688 -0.3636,0.0688 z m 0.3079,-0.66172 q 0,-0.12776 -0.085,-0.2031 -0.085,-0.0753 -0.2293,-0.0753 h -0.6224 v 0.54706 h 0.6224 q 0.1442,0 0.2293,-0.0721 0.085,-0.0753 0.085,-0.19655 z"
           id="text249"
           style="font-size:3.27583px;font-family:'Highway Gothic Wide';-inkscape-font-specification:'Highway Gothic Wide, Normal';text-align:center;text-anchor:middle;fill:#ffffff;fill-rule:evenodd;stroke-width:0.00564851;stroke-linejoin:round;stroke-miterlimit:19.4;stroke-dashoffset:402.406;paint-order:stroke fill markers"
           aria-label="COP" /></g><path
         d="m 1414.5426,-813.914 h -1.6981 l -1.5947,-4.29688 h -1.8753 v 4.29688 h -1.5652 v -9.89315 h 3.913 q 1.2108,0.0148 1.9048,0.88595 0.7088,0.85642 0.7088,1.89003 0,0.7826 -0.4282,1.49136 -0.4283,0.694 -1.1075,1.00408 z m -1.7571,-7.07287 q 0,-0.57587 -0.3544,-0.88595 -0.3396,-0.31009 -0.7679,-0.32485 h -2.2887 v 2.43637 h 2.3478 q 0.443,0 0.7531,-0.32485 0.3101,-0.32485 0.3101,-0.90072 z m 9.3615,7.07287 h -6.1426 v -9.89315 h 5.8326 v 1.56518 h -4.2674 v 2.43637 h 2.8794 v 1.59472 h -2.8794 v 2.70216 h 4.5774 z m 5.9064,-7.64874 q -0.4725,-0.87119 -1.4618,-0.88595 -0.5759,0 -0.9598,0.35438 -0.3839,0.35438 -0.3692,0.84166 0,0.35438 0.3396,0.63493 0.3544,0.28055 1.1075,0.39868 1.7867,0.31008 2.584,1.2108 0.8121,0.88596 0.8121,2.0377 0,1.26986 -0.9597,2.25918 -0.9598,0.97455 -2.3921,0.97455 -2.274,-0.0295 -3.3814,-2.30348 l 1.4914,-0.75306 q 0.694,1.43229 1.9195,1.43229 0.7088,0.0148 1.2256,-0.48727 0.5168,-0.51681 0.5168,-1.19604 0.015,-0.45775 -0.3987,-0.90072 -0.4134,-0.45774 -1.4618,-0.6497 -1.4175,-0.20672 -2.1706,-0.85642 -0.7531,-0.66447 -0.7531,-1.57996 -0.03,-1.09267 0.7679,-2.00816 0.7973,-0.93025 2.1115,-0.93025 1.8457,0.0443 2.7465,1.74238 z m 9.4502,7.64874 h -6.1427 v -9.89315 h 5.8326 v 1.56518 h -4.2674 v 2.43637 h 2.8794 v 1.59472 h -2.8794 v 2.70216 h 4.5775 z m 8.195,0 h -1.6981 l -1.5947,-4.29688 h -1.8752 v 4.29688 h -1.5652 v -9.89315 h 3.9129 q 1.2108,0.0148 1.9048,0.88595 0.7088,0.85642 0.7088,1.89003 0,0.7826 -0.4282,1.49136 -0.4282,0.694 -1.1075,1.00408 z m -1.7571,-7.07287 q 0,-0.57587 -0.3544,-0.88595 -0.3396,-0.31009 -0.7678,-0.32485 h -2.2887 v 2.43637 h 2.3477 q 0.443,0 0.7531,-0.32485 0.3101,-0.32485 0.3101,-0.90072 z m 10.3214,-2.82028 -3.0566,9.89315 h -1.4323 l -3.0122,-9.89315 h 1.639 l 2.1115,6.60035 2.082,-6.60035 z m 7.2352,9.89315 h -6.1426 v -9.89315 h 5.8326 v 1.56518 h -4.2674 v 2.43637 h 2.8794 v 1.59472 h -2.8794 v 2.70216 h 4.5774 z m 8.1951,-4.94658 q -0.015,2.58403 -1.0779,3.76531 -1.0484,1.18127 -2.584,1.18127 h -3.0861 v -9.89315 h 3.0861 q 1.5356,0 2.584,1.18127 1.0631,1.18127 1.0779,3.7653 z m -5.1828,0 v 3.38139 h 1.5209 q 0.9893,-0.0295 1.5356,-0.94501 0.5611,-0.91549 0.5759,-2.43638 0,-1.62425 -0.5611,-2.48067 -0.5611,-0.87119 -1.5504,-0.90072 h -1.5209 z"
         id="text250"
         style="font-size:14.7659px;font-family:'Highway Gothic';-inkscape-font-specification:'Highway Gothic, Normal';text-align:center;text-anchor:middle;fill:#af1e2d;stroke-width:0.4;stroke-miterlimit:19.4;stroke-dashoffset:402.406"
         aria-label="RESERVED" /><path
         id="path256"
         style="fill:#af1e2d;fill-opacity:1;stroke-width:0.0293108"
         d="m 1423.6969,-733.98225 c -0.1556,-0.011 -0.3186,0.029 -0.4702,0.1346 l -7.2768,4.9864 7.2768,5.0069 c 0.6065,0.4225 1.4009,-0.2111 1.1291,-0.8873 l -0.723,-2.3316 h 1.0908 28.0556 1.0908 l -0.723,2.3316 c -0.2718,0.6762 0.5227,1.3098 1.1292,0.8873 l 7.2767,-5.0069 -7.2768,-4.9864 c -0.1515,-0.1057 -0.3147,-0.1455 -0.4703,-0.1346 -0.4666,0.033 -0.8628,0.5202 -0.6589,1.043 l 0.7604,2.4355 h -1.1282 -28.0555 -1.1282 l 0.7604,-2.4355 c 0.2039,-0.5228 -0.1923,-1.0104 -0.6589,-1.043 z" /><path
         d="m 1415.9675,-804.99262 h -1.8753 v 4.29688 h -1.5652 v -9.89315 h 3.2633 q 1.0927,0 1.7571,0.32485 0.6645,0.31008 1.078,1.00408 0.4282,0.694 0.4282,1.44706 0,0.78259 -0.3397,1.41752 -0.3396,0.63494 -1.0336,1.03362 -0.6792,0.38391 -1.7128,0.36914 z m 1.5061,-2.79075 q 0,-0.57587 -0.3544,-0.88596 -0.3396,-0.31008 -0.7678,-0.32485 h -2.2887 v 2.43638 h 2.3478 q 0.4429,0 0.753,-0.32485 0.3101,-0.32485 0.3101,-0.90072 z m 11.0597,7.08763 h -1.6538 l -0.9746,-2.77599 h -3.086 l -0.9746,2.77599 h -1.6685 l 3.3961,-9.89315 h 1.5652 z m -3.1895,-4.37071 -0.9745,-2.77599 -1.0041,2.77599 z m 10.9416,4.37071 h -1.6981 l -1.5947,-4.29688 h -1.8753 v 4.29688 h -1.5652 v -9.89315 h 3.913 q 1.2108,0.0148 1.9048,0.88595 0.7087,0.85642 0.7087,1.89004 0,0.78259 -0.4282,1.49135 -0.4282,0.694 -1.1074,1.00408 z m -1.7572,-7.07287 q 0,-0.57587 -0.3544,-0.88595 -0.3396,-0.31008 -0.7678,-0.32485 h -2.2887 v 2.43637 h 2.3478 q 0.443,0 0.753,-0.32485 0.3101,-0.32485 0.3101,-0.90072 z m 10.0408,7.07287 h -1.8162 l -2.4954,-4.68079 -1.0336,1.28463 v 3.39616 h -1.5652 v -9.89315 h 1.5652 v 3.92773 l 3.1156,-3.92773 h 2.0082 l -3.0418,3.8539 z m 3.4553,0 h -1.5948 v -9.89315 h 1.5948 z m 8.7118,0 h -1.388 l -3.78,-6.70372 v 6.70372 h -1.5652 v -9.89315 h 1.5652 l 3.6029,6.3198 v -6.3198 h 1.5651 z m 5.0205,-1.40276 q 1.3289,-0.0295 1.5799,-1.83097 h -1.5209 v -1.65378 h 3.3076 v 0.42821 q -0.015,2.28871 -0.9155,3.46998 -0.886,1.16651 -2.4069,1.16651 -1.7866,-0.0148 -2.7316,-1.35846 -0.9303,-1.3437 -0.9303,-3.76531 0,-2.4216 0.9303,-3.7653 0.945,-1.3437 2.6874,-1.3437 2.141,0.0443 3.0417,1.87527 l -1.4618,0.72353 q -0.4873,-1.01885 -1.5799,-1.03361 -1.0337,0 -1.5062,0.98931 -0.4725,0.97455 -0.4725,2.5545 0,1.57996 0.4725,2.56927 0.4725,0.97455 1.5062,0.97455 z"
         id="text256"
         style="font-size:14.7659px;font-family:'Highway Gothic';-inkscape-font-specification:'Highway Gothic, Normal';text-align:center;text-anchor:middle;fill:#af1e2d;stroke-width:0.4;stroke-miterlimit:19.4;stroke-dashoffset:402.406"
         aria-label="PARKING" /><path
         d="m 1417.4537,-790.38672 h -1.6169 v 6.00842 h -1.1057 v -6.00842 h -1.596 v -0.98055 h 4.3186 z m 5.8102,6.00842 h -1.1057 v -3.0355 h -2.5453 v 3.0355 h -1.1057 v -6.98897 h 1.1057 v 2.82689 h 2.5453 v -2.82689 h 1.1057 z m 5.7894,-2.50351 q 0,0.82407 -0.3234,1.44995 -0.2608,0.52157 -0.8345,0.85537 -0.5737,0.32337 -1.2205,0.32337 -0.6467,0 -1.2204,-0.32337 -0.5738,-0.3338 -0.845,-0.85537 -0.3129,-0.62588 -0.3129,-1.44995 v -4.48546 h 1.1057 v 4.48546 q 0,0.67804 0.3442,1.09529 0.3547,0.40682 0.9284,0.40682 0.5737,0 0.918,-0.40682 0.3546,-0.41725 0.3546,-1.09529 v -4.48546 h 1.1058 z m 5.7893,2.50351 h -1.1996 l -1.1265,-3.0355 h -1.3248 v 3.0355 h -1.1057 v -6.98897 h 2.7643 q 0.8553,0.0104 1.3456,0.62588 0.5007,0.60502 0.5007,1.33521 0,0.55286 -0.3025,1.05356 -0.3025,0.49027 -0.7824,0.70933 z m -1.2413,-4.99659 q 0,-0.40682 -0.2503,-0.62588 -0.24,-0.21905 -0.5425,-0.22949 h -1.6168 v 1.72117 h 1.6586 q 0.3129,0 0.532,-0.22949 0.219,-0.22949 0.219,-0.63631 z m 5.4139,-0.40682 q -0.3338,-0.61545 -1.0327,-0.62588 -0.4069,0 -0.6781,0.25035 -0.2712,0.25036 -0.2608,0.59459 0,0.25035 0.24,0.44854 0.2503,0.1982 0.7823,0.28165 1.2622,0.21906 1.8255,0.85537 0.5737,0.62587 0.5737,1.43951 0,0.8971 -0.678,1.59599 -0.6781,0.68847 -1.6899,0.68847 -1.6064,-0.0209 -2.3888,-1.62728 l 1.0536,-0.532 q 0.4903,1.01184 1.3561,1.01184 0.5007,0.0104 0.8658,-0.34424 0.3651,-0.36509 0.3651,-0.84493 0.01,-0.32337 -0.2817,-0.63631 -0.2921,-0.32337 -1.0327,-0.45898 -1.0014,-0.14604 -1.5334,-0.60501 -0.532,-0.46941 -0.532,-1.11615 -0.021,-0.77192 0.5425,-1.41866 0.5632,-0.65717 1.4916,-0.65717 1.3039,0.0313 1.9402,1.23089 z m 7.0932,1.90893 q -0.01,1.82548 -0.7614,2.65998 -0.7407,0.8345 -1.8255,0.8345 h -2.1802 v -6.98897 h 2.1802 q 1.0848,0 1.8255,0.83451 0.751,0.8345 0.7614,2.65998 z m -3.6613,0 v 2.38877 h 1.0744 q 0.6989,-0.0209 1.0848,-0.66761 0.3964,-0.64674 0.4069,-1.72116 0,-1.14744 -0.3964,-1.75246 -0.3964,-0.61545 -1.0953,-0.63631 h -1.0744 z m 10.2852,3.49448 h -1.1683 l -0.6884,-1.96108 h -2.1802 l -0.6885,1.96108 h -1.1787 l 2.3992,-6.98897 h 1.1057 z m -2.2531,-3.08766 -0.6885,-1.96109 -0.7093,1.96109 z m 8.6997,-3.90131 -2.4201,3.95347 v 3.0355 h -1.1057 v -3.0355 l -2.4514,-3.95347 h 1.3248 l 1.669,2.70171 1.6899,-2.70171 z m 3.9326,1.58556 q -0.3338,-0.61545 -1.0327,-0.62588 -0.4069,0 -0.6781,0.25035 -0.2712,0.25036 -0.2608,0.59459 0,0.25035 0.24,0.44854 0.2503,0.1982 0.7823,0.28165 1.2622,0.21906 1.8255,0.85537 0.5737,0.62587 0.5737,1.43951 0,0.8971 -0.678,1.59599 -0.6781,0.68847 -1.6899,0.68847 -1.6064,-0.0209 -2.3888,-1.62728 l 1.0536,-0.532 q 0.4903,1.01184 1.3561,1.01184 0.5007,0.0104 0.8658,-0.34424 0.3651,-0.36509 0.3651,-0.84493 0.01,-0.32337 -0.2817,-0.63631 -0.2921,-0.32337 -1.0327,-0.45898 -1.0014,-0.14604 -1.5334,-0.60501 -0.532,-0.46941 -0.532,-1.11615 -0.021,-0.77192 0.5424,-1.41866 0.5633,-0.65717 1.4917,-0.65717 1.3039,0.0313 1.9402,1.23089 z"
         id="text257"
         style="font-size:10.4313px;font-family:'Highway Gothic';-inkscape-font-specification:'Highway Gothic, Normal';text-align:center;text-anchor:middle;fill:#af1e2d;stroke-width:0.4;stroke-miterlimit:19.4;stroke-dashoffset:402.406"
         aria-label="THURSDAYS" /><path
         d="m 1415.3901,-772.10889 h -1.197 v -6.0186 h -0.6936 v -0.96208 q 0.6601,-0.0336 0.9621,-0.51461 h 0.9285 z m 3.9714,0.13425 q -1.32,0 -2.036,-0.99565 -0.7048,-1.00683 -0.7048,-2.88624 0,-1.83467 0.7048,-2.85269 0.716,-1.01801 2.036,-1.01801 1.3425,0 2.0361,1.01801 0.7047,1.01802 0.7047,2.85269 0,1.87941 -0.7047,2.88624 -0.6936,0.99565 -2.0361,0.99565 z m 0,-6.56677 q -0.7831,0 -1.1411,0.74953 -0.3579,0.73834 -0.3691,1.91297 0,1.32007 0.3468,2.00248 0.358,0.6824 1.1634,0.67122 0.8502,-0.0224 1.1747,-0.70478 0.3244,-0.68241 0.3468,-1.96892 -0.022,-1.25294 -0.3804,-1.93535 -0.3468,-0.6824 -1.1411,-0.72715 z m 9.7215,6.43252 h -1.2529 l -0.7384,-2.10315 h -2.338 l -0.7384,2.10315 h -1.2641 l 2.573,-7.49529 h 1.1858 z m -2.4164,-3.31135 -0.7383,-2.10315 -0.7607,2.10315 z m 8.9944,3.31135 h -1.1858 v -4.34055 l -1.734,4.34055 -1.734,-4.34055 v 4.34055 h -1.1858 v -7.49529 h 1.1858 l 1.734,4.20632 1.734,-4.20632 h 1.1858 z m 6.2647,-3.07642 h -2.4947 v -1.2082 h 2.4947 z m 9.095,3.07642 h -5.1013 q 0.078,-2.67369 2.6849,-4.15037 1.2753,-0.67122 1.2306,-1.26413 0,-0.42511 -0.3692,-0.70479 -0.358,-0.27967 -0.9397,-0.30204 -1.0516,0.0783 -1.4207,1.06276 l -1.1859,-0.3468 q 0.2909,-0.80546 0.9621,-1.35362 0.6824,-0.55935 1.5886,-0.55935 1.0627,0 1.8011,0.64884 0.7495,0.64885 0.7495,1.51025 -0.034,1.42075 -1.7228,2.29333 -1.5997,0.92852 -1.913,1.95773 h 3.6358 z m 3.9714,-3.25541 h -1.4208 v 3.25541 h -1.1858 v -7.49529 h 2.4724 q 0.8278,0 1.3312,0.24612 0.5034,0.23492 0.8167,0.76071 0.3244,0.52579 0.3244,1.09633 0,0.59291 -0.2573,1.07395 -0.2573,0.48104 -0.7831,0.78309 -0.5146,0.29086 -1.2977,0.27968 z m 1.1411,-2.11435 q 0,-0.43629 -0.2685,-0.67122 -0.2573,-0.23492 -0.5817,-0.24611 h -1.734 v 1.84585 h 1.7787 q 0.3356,0 0.5705,-0.24611 0.235,-0.24611 0.235,-0.68241 z m 8.1889,5.36976 h -1.1859 v -4.34055 l -1.734,4.34055 -1.7339,-4.34055 v 4.34055 h -1.1859 v -7.49529 h 1.1859 l 1.7339,4.20632 1.734,-4.20632 h 1.1859 z"
         id="text258"
         style="font-size:11.187px;font-family:'Highway Gothic';-inkscape-font-specification:'Highway Gothic, Normal';text-align:center;text-anchor:middle;fill:#af1e2d;stroke-width:0.4;stroke-miterlimit:19.4;stroke-dashoffset:402.406"
         aria-label="10AM - 2PM" /><path
         d="m 1435.7225,-760.43561 h -1.2529 l -0.7384,-2.10315 h -2.3381 l -0.7383,2.10315 h -1.2641 l 2.573,-7.49529 h 1.1858 z m -2.4164,-3.31135 -0.7383,-2.10316 -0.7608,2.10316 z m 8.2896,3.31135 h -1.0516 l -2.8639,-5.0789 v 5.0789 h -1.1858 v -7.49529 h 1.1858 l 2.7296,4.78804 v -4.78804 h 1.1859 z m 6.2088,-3.74764 q -0.011,1.95772 -0.8167,2.85268 -0.7943,0.89496 -1.9577,0.89496 h -2.3381 v -7.49529 h 2.3381 q 1.1634,0 1.9577,0.89496 0.8055,0.89496 0.8167,2.85269 z m -3.9267,0 v 2.56182 h 1.1523 q 0.7495,-0.0224 1.1634,-0.71597 0.4251,-0.69359 0.4363,-1.84585 0,-1.23057 -0.4251,-1.87942 -0.4251,-0.66003 -1.1746,-0.68241 h -1.1523 z"
         id="text259"
         style="font-size:11.187px;font-family:'Highway Gothic';-inkscape-font-specification:'Highway Gothic, Normal';text-align:center;text-anchor:middle;fill:#af1e2d;stroke-width:0.4;stroke-miterlimit:19.4;stroke-dashoffset:402.406"
         aria-label="AND" /><path
         d="m 1420.3404,-750.92142 q 0,0.97327 -0.7384,1.6333 -0.7271,0.66003 -1.8123,0.66003 -1.0851,0 -1.8234,-0.69359 -0.7272,-0.69359 -0.7272,-1.70042 0,-1.555 0.7943,-3.02049 0.7943,-1.47669 2.092,-2.33809 l 0.6041,0.99565 q -1.3201,1.01801 -1.8347,2.30452 0.4139,-0.12306 0.8949,-0.12306 1.0404,0 1.79,0.67122 0.7607,0.67122 0.7607,1.61093 z m -1.1858,-0.0224 q 0,-0.4363 -0.4028,-0.74953 -0.4027,-0.32443 -0.9621,-0.32443 -0.6376,-0.0112 -0.9844,0.27968 -0.3468,0.29086 -0.358,0.79428 0,0.45866 0.3915,0.78309 0.3916,0.32442 0.9509,0.32442 0.5482,0 0.9509,-0.32442 0.414,-0.33561 0.414,-0.78309 z m 8.2895,2.18146 h -1.2529 l -0.7384,-2.10316 h -2.338 l -0.7384,2.10316 h -1.2641 l 2.573,-7.49529 h 1.1858 z m -2.4164,-3.31135 -0.7383,-2.10316 -0.7607,2.10316 z m 8.9944,3.31135 h -1.1858 v -4.34056 l -1.734,4.34056 -1.734,-4.34056 v 4.34056 h -1.1858 v -7.49529 h 1.1858 l 1.734,4.20631 1.734,-4.20631 h 1.1858 z m 6.2647,-3.07642 h -2.4947 v -1.2082 h 2.4947 z m 8.916,0.6824 q 0,1.02921 -0.7607,1.77874 -0.7607,0.74952 -1.7899,0.74952 -1.0292,0 -1.7899,-0.74952 -0.7608,-0.74953 -0.7608,-1.77874 0.022,-1.12988 0.8726,-1.7228 -0.5481,-0.53697 -0.5593,-1.376 0,-0.87258 0.66,-1.49905 0.6712,-0.62648 1.5774,-0.62648 0.9061,0 1.5773,0.63766 0.6825,0.62647 0.6825,1.48787 -0.045,0.83903 -0.6489,1.36482 0.9062,0.55935 0.9397,1.73398 z m -1.499,-3.12117 q 0,-0.38036 -0.3133,-0.63766 -0.302,-0.2573 -0.7383,-0.2573 -0.4363,0 -0.7495,0.2573 -0.3021,0.2573 -0.3021,0.63766 0,0.32442 0.3021,0.57054 0.3132,0.23492 0.7495,0.23492 0.4251,0 0.7383,-0.23492 0.3133,-0.24612 0.3133,-0.57054 z m 0.3132,3.15473 q 0,-0.46985 -0.4027,-0.80546 -0.4028,-0.33561 -0.9621,-0.33561 -0.5594,0 -0.9509,0.33561 -0.3916,0.32442 -0.3916,0.80546 0,0.52579 0.3916,0.90615 0.3915,0.38036 0.9509,0.38036 0.5705,0 0.9621,-0.38036 0.4027,-0.38036 0.4027,-0.90615 z m 4.9782,-0.89496 h -1.4207 v 3.25542 h -1.1859 v -7.49529 h 2.4724 q 0.8278,0 1.3312,0.24611 0.5034,0.23493 0.8167,0.76072 0.3244,0.52579 0.3244,1.09633 0,0.59291 -0.2573,1.07395 -0.2573,0.48104 -0.7831,0.78309 -0.5146,0.29086 -1.2977,0.27967 z m 1.1411,-2.11434 q 0,-0.43629 -0.2685,-0.67122 -0.2573,-0.23493 -0.5817,-0.24611 h -1.734 v 1.84585 h 1.7787 q 0.3356,0 0.5706,-0.24611 0.2349,-0.24612 0.2349,-0.68241 z m 8.1889,5.36976 h -1.1858 v -4.34056 l -1.734,4.34056 -1.734,-4.34056 v 4.34056 h -1.1858 v -7.49529 h 1.1858 l 1.734,4.20631 1.734,-4.20631 h 1.1858 z"
         id="text260"
         style="font-size:11.187px;font-family:'Highway Gothic';-inkscape-font-specification:'Highway Gothic, Normal';text-align:center;text-anchor:middle;fill:#af1e2d;stroke-width:0.4;stroke-miterlimit:19.4;stroke-dashoffset:402.406"
         aria-label="6AM - 8PM" /><path
         d="m 1421.392,-739.56138 q -0.011,1.18582 -0.6713,1.90179 -0.66,0.70478 -1.7228,0.70478 -1.8234,-0.0447 -2.6065,-1.86823 l 1.1746,-0.48104 q 0.481,1.10752 1.4207,1.14108 0.5594,0 0.8838,-0.38036 0.3244,-0.39155 0.3133,-1.00683 v -5.03415 h 1.2082 z m 6.1081,-0.21255 q 0,0.88377 -0.3468,1.55499 -0.2797,0.55935 -0.895,0.91734 -0.6153,0.34679 -1.3089,0.34679 -0.6936,0 -1.3089,-0.34679 -0.6152,-0.35799 -0.9061,-0.91734 -0.3356,-0.67122 -0.3356,-1.55499 v -4.81041 h 1.1858 v 4.81041 q 0,0.72715 0.3692,1.17463 0.3803,0.4363 0.9956,0.4363 0.6153,0 0.9845,-0.4363 0.3803,-0.44748 0.3803,-1.17463 v -4.81041 h 1.1859 z m 6.2087,2.68488 h -1.0515 l -2.8639,-5.0789 v 5.0789 h -1.1858 v -7.49529 h 1.1858 l 2.7296,4.78804 v -4.78804 h 1.1858 z m 6.2983,-3.07643 h -2.4947 v -1.20819 h 2.4947 z m 6.4102,3.21067 q -1.3201,0 -2.0361,-0.99564 -0.7048,-1.00683 -0.7048,-2.88625 0,-1.83466 0.7048,-2.85268 0.716,-1.01802 2.0361,-1.01802 1.3424,0 2.036,1.01802 0.7048,1.01802 0.7048,2.85268 0,1.87942 -0.7048,2.88625 -0.6936,0.99564 -2.036,0.99564 z m 0,-6.56677 q -0.7831,0 -1.1411,0.74953 -0.358,0.73835 -0.3692,1.91298 0,1.32007 0.3468,2.00247 0.358,0.68241 1.1635,0.67122 0.8502,-0.0224 1.1746,-0.70478 0.3244,-0.6824 0.3468,-1.96891 -0.022,-1.25294 -0.3804,-1.93535 -0.3468,-0.68241 -1.141,-0.72716 z m 6.4884,5.36976 q 0.8279,-0.0112 1.197,-0.78309 l 1.1075,0.54817 q -0.6824,1.38719 -2.3045,1.42075 -1.32,0 -2.036,-1.01802 -0.7048,-1.01802 -0.7048,-2.85269 0,-1.83466 0.7048,-2.85268 0.716,-1.01802 2.036,-1.01802 1.6221,0.0336 2.3045,1.42075 l -1.1075,0.54816 q -0.3691,-0.7719 -1.197,-0.78309 -0.7831,0 -1.1411,0.74953 -0.3579,0.73835 -0.3579,1.93535 0,1.19701 0.3579,1.94654 0.358,0.73834 1.1411,0.73834 z m 8.077,-5.38094 h -1.7339 v 6.44371 h -1.1859 v -6.44371 h -1.7116 v -1.05158 h 4.6314 z"
         id="text261"
         style="font-size:11.187px;font-family:'Highway Gothic';-inkscape-font-specification:'Highway Gothic, Normal';text-align:center;text-anchor:middle;fill:#af1e2d;stroke-width:0.4;stroke-miterlimit:19.4;stroke-dashoffset:402.406"
         aria-label="JUN - OCT" /></g></g></svg>
