<?xml version="1.0" encoding="UTF-8" standalone="no"?>
<!-- Created with Inkscape (http://www.inkscape.org/) -->
<svg
   xmlns:svg="http://www.w3.org/2000/svg"
   xmlns="http://www.w3.org/2000/svg"
   version="1.0"
   width="685.5553"
   height="802.52148"
   id="svg2">
  <defs
     id="defs3" />
  <path
     d="M 0.07309,0 C 0.364148,160.74562 -0.513178,321.51113 0.519219,482.24416 C 6.153226,632.96914 126.08009,767.70871 273.59498,795.34668 C 411.07653,824.97688 562.99855,760.84034 635.51779,639.76023 C 674.90243,578.57338 688.38821,504.89798 685.07309,433.25719 C 685.07309,288.83813 685.07309,144.41906 685.07309,0 C 456.73976,0 228.40642,0 0.07309,0 z "
     style="fill:black;fill-opacity:1;stroke:none;stroke-width:19.93831825;stroke-linecap:square;stroke-miterlimit:4;stroke-opacity:1"
     id="path2896" />
  <path
     d="M 15.0625,17.5625 C 15.308389,153.36237 14.718506,289.17372 15.25,424.96875 L 670.09375,424.96875 C 670.09375,289.16129 670.09375,153.36994 670.09375,17.5625 C 451.75241,17.562499 233.40384,17.5625 15.0625,17.5625 z "
     style="fill:#05f;fill-opacity:1;stroke:none;stroke-width:19.93831825;stroke-linecap:square;stroke-miterlimit:4;stroke-opacity:1"
     id="path2956" />
  <path
     d="M 327.50801,193.08488 C 348.01377,199.50488 329.69153,231.79661 309.09059,226.71808 C 297.6035,223.93927 269.12324,212.44073 268.74346,240.51633 C 274.91422,236.87512 280.13569,236.39602 283.17348,237.35423 C 287.54051,238.79155 295.51501,245.69067 299.9769,247.70291 C 298.26804,251.34412 288.29992,257.76412 287.7304,262.74682 C 278.04704,252.2065 271.40163,251.63158 269.59789,250.29008 C 264.09167,246.16978 248.99711,249.33186 241.97192,248.27783 C 219.47238,244.92409 201.62463,212.63239 211.68778,190.21024 C 212.63708,193.75562 220.5167,197.68428 223.17487,200.36728 C 225.45325,202.76281 234.94672,206.59565 239.50364,204.39176 C 228.11142,190.68934 223.93428,184.1735 224.88373,171.9084 C 226.30769,155.61881 237.22511,137.22116 244.72495,124.09366 C 263.80691,90.556269 228.4912,64.397105 200.39057,73.212652 C 184.63147,78.099529 159.85355,88.54403 145.80316,78.67445 C 125.48714,64.397105 115.80378,57.689624 101.56365,71.966969 C 111.34188,72.733541 118.17719,73.404287 122.82898,81.261627 C 125.20238,85.190297 136.30969,104.45033 145.5184,105.50436 C 134.2212,113.26588 119.88605,131.951 108.39896,143.54534 C 102.9876,149.00716 96.057432,155.42716 87.608286,156.19374 C 79.443899,156.96031 75.836433,152.84 70.804861,149.10297 C 67.292264,165.39257 77.924925,190.88099 95.298022,192.03084 C 122.63908,193.94726 130.51871,178.13677 138.6831,171.4293 C 138.11343,174.5914 113.24064,202.37952 110.20269,205.9249 C 103.36739,213.59059 90.55121,237.73752 70.42508,222.02285 C 67.197395,237.35423 71.089621,251.43993 87.608286,258.72234 C 106.59522,267.05878 136.78434,242.7202 147.03738,227.67629 C 141.0565,240.51633 117.70254,269.26265 112.67097,274.62864 C 106.69009,281.14447 97.196624,291.01405 90.83597,295.51764 C 82.671737,301.26692 75.551519,296.6675 72.039075,291.87645 C 69.855561,311.61559 75.836433,331.1631 92.449966,333.55863 C 103.46241,335.1876 114.37983,332.69625 125.58216,323.97652 C 126.34157,323.40159 154.34733,288.71435 159.47377,283.63582 C 153.4929,295.99675 127.67066,335.37923 119.12649,345.34462 C 112.76599,352.72285 97.861165,366.5211 88.842346,372.65364 C 84.760229,375.43246 75.836433,372.55783 71.184643,366.71273 C 71.279512,382.81068 72.988376,397.27968 85.044989,405.52029 C 99.475161,415.29404 120.17081,410.11971 135.92991,394.11758 C 158.14469,371.59961 184.82121,323.40159 191.65651,313.24455 C 186.53007,332.31296 156.15106,395.26744 145.61327,409.64059 C 135.83504,422.95973 113.90518,439.53679 101.46878,449.88547 C 96.532082,454.00577 86.279203,454.1016 71.279512,445.76516 C 74.222437,500.67067 134.2212,489.26795 149.88543,473.17 C 193.93505,427.94243 206.65621,398.81281 225.64314,357.13063 C 223.45963,379.2653 220.61157,387.21846 215.76989,407.62835 C 213.49151,417.30628 207.51064,434.1708 203.04874,442.3156 C 200.39057,447.10666 190.42245,458.2219 183.49213,464.92939 C 237.88965,470.77447 269.12324,451.61025 271.21174,380.1277 C 274.53444,387.21846 293.23662,429.09229 291.43289,435.41649 C 278.90147,452.85593 265.70551,471.92433 255.16788,479.49419 C 238.07954,491.66347 227.35201,485.33929 210.45356,482.46465 C 350.00289,497.91713 342.96925,487.43235 481.68175,480.54822 C 444.46744,480.54822 438.77133,474.9906 422.9172,464.45027 C 410.76557,456.30549 406.2088,443.46545 397.37987,434.64992 C 404.87972,413.66509 413.80352,390.66802 417.31611,368.72499 C 419.5945,398.33371 430.32218,444.23202 458.70757,457.83862 C 468.77071,462.62968 499.81426,463.30043 504.27616,451.89771 C 478.35905,440.78246 465.54287,363.93392 461.36573,347.35688 C 463.35936,357.80138 491.555,415.38987 503.80151,435.5123 C 518.04163,458.79684 545.09809,486.58496 573.95813,486.58496 C 592.66031,486.58496 617.72299,461.28818 610.22314,437.23708 C 600.25502,453.81414 577.66062,445.57351 573.57835,441.54903 C 545.66761,414.14419 517.85174,367.67096 504.9407,335.47506 C 516.71255,355.2142 542.3449,399.6752 565.50898,407.24507 C 581.45797,412.51523 616.86856,398.23789 612.21677,364.70049 C 609.27384,365.56289 593.89437,375.43246 587.53387,369.77901 C 558.00914,343.81149 534.46543,301.93766 522.69342,283.25254 L 562.56606,322.92249 C 568.6418,328.95921 577.66062,330.39653 587.15409,327.71354 C 601.67913,323.78487 614.49515,306.34543 612.31179,289.28927 C 612.59655,290.24748 601.48924,299.06303 593.89437,293.79286 C 577.28084,282.1027 534.5603,228.73032 528.48456,214.74045 C 529.1491,214.26134 559.24335,255.17696 581.64786,256.23099 C 596.74242,256.90174 619.62174,236.10855 611.64725,217.80672 C 581.45797,239.74976 549.46497,174.5914 534.46543,156.0021 C 545.8575,163.2845 570.73044,186.47321 589.52749,185.32336 C 602.7233,184.46097 621.80526,165.48839 614.59017,148.7197 C 594.55891,159.45166 584.49592,144.21609 572.62905,132.33429 C 563.89514,123.51874 552.97757,109.33721 542.3449,99.275991 C 549.55999,92.281049 548.99032,93.622542 556.30027,86.052678 C 561.71163,80.399229 576.14164,67.559203 586.01489,68.038314 C 556.68005,46.574376 535.31971,78.67445 518.32655,80.207594 C 501.14334,81.644913 456.90383,45.807804 437.727,81.357437 C 432.41067,91.131206 433.54986,104.06704 434.87895,108.66646 C 438.48657,121.60231 449.02421,136.35877 454.62545,147.76148 C 458.80243,156.4812 461.08097,167.88392 461.08097,178.52006 C 461.08097,186.95232 456.23929,193.6598 453.01145,199.79234 C 461.74551,198.45085 462.22016,196.05532 466.77693,190.78516 C 469.62499,187.43143 474.56169,182.83201 477.12483,175.54961 C 484.2449,190.4977 490.79544,216.08194 466.3973,239.65393 C 456.90383,248.85276 446.74582,244.73246 432.3158,242.43274 C 426.14504,241.37871 416.84146,245.21155 408.86697,248.18202 C 405.16448,249.52351 398.89885,258.33906 398.89885,257.76412 C 388.93057,237.06677 408.01253,209.5661 412.37956,195.28875 C 420.73369,168.07556 412.09465,161.27226 402.41129,149.29462 C 407.34799,152.26507 410.10103,151.40268 415.60725,151.40268 C 420.82871,151.40268 425.86013,140.5749 427.18921,136.45459 C 411.52513,144.40774 407.82264,136.16713 397.37987,120.93156 C 393.39263,115.18231 382.0004,107.42079 376.77909,105.98347 C 376.77909,105.98347 352.22284,91.834881 333.40215,92.481683 C 314.58131,93.128469 301.49588,108.57065 301.49588,108.57065 L 308.33118,112.40349 L 309.94502,118.72767 L 308.33118,124.18949 L 301.97053,129.74711 L 313.17286,141.05401 L 341.0836,150.73194 L 347.63414,159.73912 L 346.9696,172.96243 L 341.27349,183.31112 L 331.87489,189.53949 L 327.50801,193.08488 z "
     style="fill:yellow;fill-opacity:1;fill-rule:evenodd;stroke:black;stroke-width:3.90495515;stroke-miterlimit:4;stroke-dasharray:none;stroke-opacity:1"
     id="path26" />
  <path
     d="M 321.14736,181.68215 C 304.72372,170.75854 282.69883,182.83201 266.74984,179.95737 C 249.85154,176.79528 233.9024,167.59646 246.8136,144.50357 C 256.11718,159.64329 268.26881,161.36807 290.00878,161.55972 C 305.67302,161.65555 321.24223,164.05108 331.96991,172.7708 C 331.02061,175.93289 326.2738,180.43649 321.14736,181.68215 z "
     style="fill:black;fill-rule:evenodd"
     id="path2522" />
  <path
     d="M 246.90847,148.7197 C 238.93397,162.70958 249.85154,172.38751 264.47145,176.60364 C 278.80645,180.72395 287.54051,175.0705 306.0528,174.97467 C 313.36275,174.97467 321.05249,176.60364 323.23585,178.32842 C 327.50801,176.79528 329.7864,173.24989 329.40661,172.96243 C 324.56493,169.22541 314.59681,166.73406 309.66026,165.77585 C 291.52776,161.84718 287.54051,164.91346 273.77503,163.76361 C 255.64253,162.13465 252.50971,157.43942 246.90847,148.7197 z "
     style="fill:#ba2b1a;fill-rule:evenodd"
     id="path2524" />
  <path
     d="M 304.53382,130.1304 C 306.14767,134.82562 313.55264,139.99998 320.19806,142.29968 C 326.93834,144.59938 335.95716,145.84506 342.88733,150.157 C 355.51362,157.91852 348.96322,179.28663 338.42543,187.81471 C 331.02061,193.85143 310.60957,196.05532 295.98966,203.81684 C 295.23025,204.20012 294.18592,202.37952 293.99603,201.90041 C 293.23662,199.79234 298.74284,192.31831 300.45155,190.30607 C 308.90085,179.86155 332.53943,181.77798 332.34969,168.84213 C 332.25467,159.35583 306.14767,158.97255 300.92636,153.89404 C 293.42651,146.61163 282.98359,137.98772 280.98997,151.21103 C 276.4332,142.58714 275.38887,143.25788 273.68001,139.42504 C 270.73709,132.62175 271.21174,126.87247 273.20536,122.84799 C 275.95855,117.57783 280.42045,116.71543 286.3063,115.75723 C 288.96446,110.39124 294.18592,106.94168 298.93273,106.36676 C 303.4895,105.79184 309.09059,109.62468 310.41967,114.41573 C 311.74876,118.72767 311.55902,124.18949 304.53382,130.1304 z "
     style="fill:black;fill-rule:evenodd"
     id="path2526" />
  <path
     d="M 296.36944,127.06412 C 312.69821,129.17219 311.65389,110.00795 298.93273,110.00795 C 293.04673,110.00795 290.95809,115.56559 289.05948,119.30261 C 285.1671,119.39844 274.24968,118.63186 274.62946,130.70532 C 274.8192,135.01727 277.85715,141.24564 279.7559,143.35371 C 287.7304,133.67578 296.84409,148.14476 303.77426,151.69014 C 307.19199,153.41492 313.74238,154.94807 320.38795,156.38539 C 330.64083,158.78091 339.46976,165.10511 331.21035,176.60364 C 325.79915,184.07768 305.48313,182.25709 299.12247,195.28875 C 295.32511,203.05027 300.26182,198.73831 306.43243,196.91772 C 328.36244,190.4977 347.44425,184.94008 346.58982,162.70958 C 346.11517,149.58208 318.2993,145.74924 312.79308,141.91639 C 309.18561,139.32921 296.08468,128.7889 296.36944,127.06412 z "
     style="fill:#ba2b1a;fill-rule:evenodd"
     id="path2528" />
  <path
     d="M 337.76089,120.6441 L 323.52076,119.11096 L 311.74876,118.53604 C 309.85016,124.66858 309.28048,135.30473 316.30568,138.56266 C 320.8626,140.67072 329.7864,140.95818 333.48888,136.16713 C 336.6217,132.04681 337.38111,126.01009 337.76089,120.6441 z "
     style="fill:black;fill-rule:evenodd"
     id="path2530" />
  <path
     d="M 335.00786,120.73993 L 323.80552,119.11096 L 314.12216,118.63186 C 314.02729,123.90203 310.41967,135.01727 320.38795,137.02951 C 333.86851,139.80833 335.38749,126.48919 335.00786,120.73993 z "
     style="fill:white;fill-rule:evenodd"
     id="path2532" />
  <path
     d="M 327.6979,120.45247 L 323.71065,119.01515 L 320.8626,118.91932 C 318.48919,120.93156 317.16011,125.43516 317.91952,128.02233 C 318.67908,130.32203 320.76758,132.62175 323.61563,132.4301 C 327.12823,132.33429 329.40661,127.54322 328.74207,127.92651 C 321.52714,132.33429 318.01454,120.6441 327.6979,120.45247 z "
     style="fill:black;fill-rule:evenodd"
     id="path2534" />
  <path
     d="M 311.17924,118.05693 C 324.28017,118.15275 336.33694,119.97336 350.95685,120.45247 C 351.24161,121.02739 351.05172,121.5065 350.19729,121.60231 C 346.39993,122.46471 333.1091,121.69814 331.40024,121.41068 C 327.50801,120.83574 314.88173,120.26082 310.89448,119.87753 C 310.32481,119.78171 311.08422,118.15275 311.17924,118.05693 z "
     style="fill:black;fill-rule:evenodd"
     id="path2536" />
  <path
     d="M 271.409,369.77168 C 257.24393,387.83229 228.99057,367.26216 231.10915,342.87711 C 211.95596,356.69132 193.45073,323.23478 198.53173,302.03783 C 172.76045,307.62898 162.3992,292.13625 166.97285,276.43396 C 145.5861,278.01473 147.47764,241.75856 155.49097,222.27646 C 138.72316,220.71718 133.09321,189.78967 147.71051,166.9323 C 132.30218,157.08655 134.22059,124.68689 150.19552,110.42951"
     style="fill:none;fill-opacity:0.75;fill-rule:evenodd;stroke:black;stroke-width:3.08387947;stroke-linecap:butt;stroke-linejoin:miter;stroke-miterlimit:4;stroke-dasharray:none;stroke-opacity:1"
     id="path4181" />
  <path
     d="M 419.0741,364.96915 C 435.30985,381.15881 460.27612,362.11654 455.23565,338.17206 C 472.91269,352.56016 505.53954,346.12269 497.94268,325.70597 C 524.19643,328.09534 522.42064,293.90167 515.98937,278.87666 C 537.4079,277.82306 529.96347,227.24497 519.66254,208.88999 C 536.11826,205.28605 543.07791,174.80494 525.81534,153.90952 C 539.92345,142.24726 550.60631,111.83557 533.03227,99.642906"
     style="fill:none;fill-opacity:0.75;fill-rule:evenodd;stroke:black;stroke-width:3.08387947;stroke-linecap:butt;stroke-linejoin:miter;stroke-miterlimit:4;stroke-dasharray:none;stroke-opacity:1"
     id="path4445" />
  <path
     d="M 15.25,424.96875 C 15.320102,442.87954 15.384963,460.77747 15.5,478.6875 C 17.159176,523.07496 29.187269,566.02588 49.15625,604.96875 L 636.625,604.96875 C 663.54611,551.79356 672.83545,491.09272 670.09375,431.84375 C 670.09375,429.55199 670.09375,427.26051 670.09375,424.96875 L 15.25,424.96875 z "
     style="fill:green;fill-opacity:1;stroke:none;stroke-width:1;stroke-linecap:butt;stroke-miterlimit:4;stroke-dasharray:none;stroke-opacity:1"
     id="rect2006" />
  <path
     d="M 49.15625,604.96875 C 94.027937,692.47608 179.00755,759.80443 276.625,778.09375 C 408.0903,806.42732 553.37299,745.09408 622.71875,629.3125 C 627.80768,621.40648 632.41897,613.27659 636.625,604.96875 L 49.15625,604.96875 z "
     style="fill:black;fill-opacity:1;stroke:none;stroke-width:1;stroke-linecap:butt;stroke-miterlimit:4;stroke-dasharray:none;stroke-opacity:1"
     id="rect2008" />
  <g
     transform="matrix(0.653472,0,0,0.653472,-313.1318,330.8394)"
     id="g2807">
    <g
       transform="matrix(-11.03981,13.15672,13.15672,11.03981,780.6223,258.8599)"
       style="fill:#ffd500;fill-opacity:1;stroke:black;stroke-width:0.58224541;stroke-miterlimit:4;stroke-dasharray:none;stroke-opacity:1"
       id="g46">
      <path
         d="M 1.5,0 L 2.2,28 C 2.2,28.552285 1.2150264,29 6.231452e-016,29 C -1.2150264,29 -2.2,28.552285 -2.2,28 L -1.5,0 L 1.5,0 z "
         style="fill:#ffd500;fill-opacity:1;stroke:black;stroke-width:0.58224541;stroke-miterlimit:4;stroke-dasharray:none;stroke-opacity:1"
         id="path48" />
      <path
         d="M 0,2.2 C 3.5614088,2.4895696 7.0815176,3.1600665 10.5,4.2 C 7.0815176,5.2399335 3.5614088,5.9104304 2.0816682e-015,6.2 L -7,6 L -7,2.4 L 0,2.2 z "
         style="fill:#ffd500;fill-opacity:1;stroke:black;stroke-width:0.58224541;stroke-miterlimit:4;stroke-dasharray:none;stroke-opacity:1"
         id="path50" />
    </g>
    <g
       transform="matrix(-11.03981,-13.15672,-13.15672,11.03981,1175.324,258.8599)"
       style="fill:#ffd500;fill-opacity:1;stroke:black;stroke-width:0.58224541;stroke-miterlimit:4;stroke-dasharray:none;stroke-opacity:1"
       id="g40">
      <path
         d="M 1.5,0 L 2.2,28 C 2.2,28.552285 1.2150264,29 6.231452e-016,29 C -1.2150264,29 -2.2,28.552285 -2.2,28 L -1.5,0 L 1.5,0 z "
         style="fill:#ffd500;fill-opacity:1;stroke:black;stroke-width:0.58224541;stroke-miterlimit:4;stroke-dasharray:none;stroke-opacity:1"
         id="path42" />
      <path
         d="M 6,0.2 L 5.9,5.2 C 1.9804548,4.7342397 -1.9804548,4.7342397 -5.9,5.2 L -6,0.2 C -2.0145046,-0.28174055 2.0145046,-0.28174055 6,0.2 L 6,0.2 z "
         style="fill:#ffd500;fill-opacity:1;stroke:black;stroke-width:0.58224541;stroke-miterlimit:4;stroke-dasharray:none;stroke-opacity:1"
         id="path44" />
    </g>
  </g>
</svg>
