<?xml version="1.0" encoding="UTF-8" standalone="no"?>
<!-- Created with Inkscape (http://www.inkscape.org/) -->

<svg
   xmlns:dc="http://purl.org/dc/elements/1.1/"
   xmlns:cc="http://creativecommons.org/ns#"
   xmlns:rdf="http://www.w3.org/1999/02/22-rdf-syntax-ns#"
   xmlns:svg="http://www.w3.org/2000/svg"
   xmlns="http://www.w3.org/2000/svg"
   xmlns:xlink="http://www.w3.org/1999/xlink"
   xmlns:sodipodi="http://sodipodi.sourceforge.net/DTD/sodipodi-0.dtd"
   xmlns:inkscape="http://www.inkscape.org/namespaces/inkscape"
   width="534"
   height="738"
   id="svg2"
   sodipodi:version="0.32"
   inkscape:version="0.48.2 r9819"
   sodipodi:docname="POL-GRE_2012-06-08_ka.svg"
   version="1.0"
   inkscape:output_extension="org.inkscape.output.svg.inkscape">
  <defs
     id="defs4">
    <inkscape:perspective
       sodipodi:type="inkscape:persp3d"
       inkscape:vp_x="0 : 369 : 1"
       inkscape:vp_y="0 : 1000 : 0"
       inkscape:vp_z="534 : 369 : 1"
       inkscape:persp3d-origin="267 : 246 : 1"
       id="perspective2523" />
    <linearGradient
       id="linearGradient3076">
      <stop
         style="stop-color:#ff0a0a;stop-opacity:1;"
         offset="0"
         id="stop3078" />
      <stop
         id="stop3084"
         offset="0.33000001"
         style="stop-color:#ff0a0a;stop-opacity:1;" />
      <stop
         style="stop-color:#ffffff;stop-opacity:1;"
         offset="0.33000001"
         id="stop3086" />
      <stop
         id="stop3088"
         offset="0.66000003"
         style="stop-color:#ffffff;stop-opacity:1;" />
      <stop
         style="stop-color:#ffff00;stop-opacity:1;"
         offset="0.66000003"
         id="stop3090" />
      <stop
         style="stop-color:#ffff00;stop-opacity:1;"
         offset="1"
         id="stop3080" />
    </linearGradient>
    <linearGradient
       inkscape:collect="always"
       xlink:href="#linearGradient3076"
       id="linearGradient3136"
       gradientUnits="userSpaceOnUse"
       x1="24.566006"
       y1="168.72964"
       x2="42.667271"
       y2="168.72964"
       gradientTransform="translate(0,1.131285)" />
  </defs>
  <sodipodi:namedview
     id="base"
     pagecolor="#ffffff"
     bordercolor="#666666"
     borderopacity="1.0"
     inkscape:pageopacity="0.0"
     inkscape:pageshadow="2"
     inkscape:zoom="1.4142137"
     inkscape:cx="259.90724"
     inkscape:cy="456.92288"
     inkscape:document-units="px"
     inkscape:current-layer="layer2"
     inkscape:window-width="1366"
     inkscape:window-height="706"
     inkscape:window-x="-8"
     inkscape:window-y="-8"
     inkscape:guide-points="true"
     showgrid="true"
     inkscape:window-maximized="1">
    <inkscape:grid
       type="xygrid"
       id="grid2525" />
  </sodipodi:namedview>
  <metadata
     id="metadata7">
    <rdf:RDF>
      <cc:Work
         rdf:about="">
        <dc:format>image/svg+xml</dc:format>
        <dc:type
           rdf:resource="http://purl.org/dc/dcmitype/StillImage" />
        <dc:title />
      </cc:Work>
    </rdf:RDF>
  </metadata>
  <g
     inkscape:label="Layer 1"
     inkscape:groupmode="layer"
     id="layer1"
     style="fill-opacity:0.5"
     sodipodi:insensitive="true">
    <rect
       style="fill:#009d00;fill-rule:evenodd;stroke:none;stroke-width:2.5;stroke-linecap:butt;stroke-linejoin:round;stroke-miterlimit:4;stroke-dasharray:none;stroke-dashoffset:0;stroke-opacity:1"
       id="rect1317"
       width="737.99988"
       height="533.99994"
       x="-738"
       y="3.509668e-005"
       rx="2.5634737"
       ry="2.5538738"
       transform="matrix(0,-1,1,0,0,0)" />
    <g
       id="g4041"
       style="stroke:#ffffff;stroke-width:1.5;stroke-miterlimit:4;stroke-dasharray:none;stroke-opacity:0.62921352"
       transform="matrix(0,-1.509164,1.506335,0,-115.6011,876.1191)">
      <path
         id="path2194"
         d="M 118.19246,416.99231 L 118.19246,90.425866 L 552.70347,91.109059 L 553.38666,416.99231 L 118.19246,416.99231 z "
         style="fill:none;fill-opacity:0.75;fill-rule:evenodd;stroke:#ffffff;stroke-width:1.5;stroke-linecap:butt;stroke-linejoin:miter;stroke-miterlimit:4;stroke-dasharray:none;stroke-opacity:0.62921352" />
      <path
         transform="matrix(0.952617,0,0,0.916433,15.58528,21.60032)"
         d="m 370.97403,254.39229 c 0,19.6205 -15.59968,35.52606 -34.84287,35.52606 -19.24318,0 -34.84286,-15.90556 -34.84286,-35.52606 0,-19.6205 15.59968,-35.52606 34.84286,-35.52606 19.24319,0 34.84287,15.90556 34.84287,35.52606 z"
         sodipodi:ry="35.526058"
         sodipodi:rx="34.842865"
         sodipodi:cy="254.39229"
         sodipodi:cx="336.13116"
         id="path2212"
         style="fill:none;fill-opacity:1;fill-rule:evenodd;stroke:#ffffff;stroke-width:1.60539436;stroke-linecap:butt;stroke-linejoin:round;stroke-miterlimit:4;stroke-dasharray:none;stroke-dashoffset:0;stroke-opacity:0.62921352"
         sodipodi:type="arc" />
      <path
         sodipodi:nodetypes="ccccc"
         id="path2196"
         d="M 117.96294,327.15238 L 178.441,327.15238 L 178.441,181.63218 L 118.31998,181.63218 L 118.31998,181.63218"
         style="fill:none;fill-opacity:0.75;fill-rule:evenodd;stroke:#ffffff;stroke-width:1.5;stroke-linecap:butt;stroke-linejoin:miter;stroke-miterlimit:4;stroke-dasharray:none;stroke-opacity:0.62921352" />
      <path
         sodipodi:nodetypes="cccc"
         id="path2198"
         d="M 118.4324,219.89101 L 139.49897,219.89101 L 138.81578,286.84397 L 117.63679,286.84396"
         style="fill:none;fill-opacity:0.75;fill-rule:evenodd;stroke:#ffffff;stroke-width:1.5;stroke-linecap:butt;stroke-linejoin:miter;stroke-miterlimit:4;stroke-dasharray:none;stroke-opacity:0.62921352" />
      <path
         sodipodi:nodetypes="cccc"
         id="path2200"
         d="M 118.31998,240.38682 L 107.38888,240.38682 L 107.38888,267.03136 L 118.31998,267.03135"
         style="fill:none;fill-opacity:0.75;fill-rule:evenodd;stroke:#ffffff;stroke-width:1.5;stroke-linecap:butt;stroke-linejoin:miter;stroke-miterlimit:4;stroke-dasharray:none;stroke-opacity:0.62921352" />
      <path
         sodipodi:nodetypes="cc"
         id="path2206"
         d="M 178.32858,279.68588 C 197.458,268.58399 196.69325,238.58186 178.24704,227.65076"
         style="fill:none;fill-opacity:0.75;fill-rule:evenodd;stroke:#ffffff;stroke-width:1.5;stroke-linecap:butt;stroke-linejoin:miter;stroke-miterlimit:4;stroke-dasharray:none;stroke-opacity:0.62921352" />
      <path
         sodipodi:nodetypes="cccc"
         id="path3091"
         d="M 553.15787,327.23393 L 493.82135,327.15239 L 493.82135,181.63219 L 552.88237,181.63219"
         style="fill:none;fill-opacity:0.75;fill-rule:evenodd;stroke:#ffffff;stroke-width:1.5;stroke-linecap:butt;stroke-linejoin:miter;stroke-miterlimit:4;stroke-dasharray:none;stroke-opacity:0.62921352" />
      <path
         sodipodi:nodetypes="cccc"
         id="path3093"
         d="M 553.25918,219.89102 L 532.76338,219.89102 L 533.44657,286.84398 L 553.15787,286.84397"
         style="fill:none;fill-opacity:0.75;fill-rule:evenodd;stroke:#ffffff;stroke-width:1.5;stroke-linecap:butt;stroke-linejoin:miter;stroke-miterlimit:4;stroke-dasharray:none;stroke-opacity:0.62921352" />
      <path
         sodipodi:nodetypes="cccc"
         id="path3095"
         d="M 552.96391,240.38683 L 564.87347,240.38683 L 564.87347,267.03137 L 553.20852,267.03136"
         style="fill:none;fill-opacity:0.75;fill-rule:evenodd;stroke:#ffffff;stroke-width:1.5;stroke-linecap:butt;stroke-linejoin:miter;stroke-miterlimit:4;stroke-dasharray:none;stroke-opacity:0.62921352" />
      <path
         sodipodi:nodetypes="cc"
         id="path3097"
         d="M 493.68916,279.68589 C 474.55974,268.584 475.32448,238.98956 493.77069,228.05846"
         style="fill:none;fill-opacity:0.75;fill-rule:evenodd;stroke:#ffffff;stroke-width:1.5;stroke-linecap:butt;stroke-linejoin:miter;stroke-miterlimit:4;stroke-dasharray:none;stroke-opacity:0.62921352" />
      <path
         id="path3107"
         d="M 336.13116,90.425866 L 336.13116,416.30912 L 336.13116,416.30912"
         style="fill:none;fill-opacity:0.75;fill-rule:evenodd;stroke:#ffffff;stroke-width:1.5;stroke-linecap:butt;stroke-linejoin:miter;stroke-miterlimit:4;stroke-dasharray:none;stroke-opacity:0.62921352" />
      <path
         sodipodi:nodetypes="cs"
         id="path3117"
         d="M 118.34857,95.731078 C 118.34857,95.731078 122.38844,94.767442 123.38913,90.542267"
         style="fill:none;fill-opacity:0.75;fill-rule:evenodd;stroke:#ffffff;stroke-width:1.5;stroke-linecap:butt;stroke-linejoin:miter;stroke-miterlimit:4;stroke-dasharray:none;stroke-opacity:0.62921352" />
      <path
         sodipodi:nodetypes="cs"
         id="path3120"
         d="M 123.06916,417.24402 C 123.06916,417.24402 122.10552,413.20416 117.88035,412.20346"
         style="fill:none;fill-opacity:0.75;fill-rule:evenodd;stroke:#ffffff;stroke-width:1.5;stroke-linecap:butt;stroke-linejoin:miter;stroke-miterlimit:4;stroke-dasharray:none;stroke-opacity:0.62921352" />
      <path
         sodipodi:nodetypes="cs"
         id="path3122"
         d="M 553.14946,411.81092 C 553.14946,411.81092 549.10959,412.77456 548.1089,416.99973"
         style="fill:none;fill-opacity:0.75;fill-rule:evenodd;stroke:#ffffff;stroke-width:1.5;stroke-linecap:butt;stroke-linejoin:miter;stroke-miterlimit:4;stroke-dasharray:none;stroke-opacity:0.62921352" />
      <path
         sodipodi:nodetypes="cs"
         id="path3124"
         d="M 547.05631,91.357379 C 547.05631,91.357379 548.01995,95.397249 552.24513,96.397939"
         style="fill:none;fill-opacity:0.75;fill-rule:evenodd;stroke:#ffffff;stroke-width:1.5;stroke-linecap:butt;stroke-linejoin:miter;stroke-miterlimit:4;stroke-dasharray:none;stroke-opacity:0.62921352" />
      <path
         d="m 514.91535,253.57072 c 0,0.74304 -0.47458,1.34539 -1.06,1.34539 -0.58543,0 -1.06,-0.60235 -1.06,-1.34539 0,-0.74303 0.47457,-1.34538 1.06,-1.34538 0.58542,0 1.06,0.60235 1.06,1.34538 z"
         sodipodi:ry="1.3453845"
         sodipodi:rx="1.0599999"
         sodipodi:cy="253.57072"
         sodipodi:cx="513.85535"
         id="path3126"
         style="fill:none;fill-opacity:1;fill-rule:evenodd;stroke:#ffffff;stroke-width:1.5;stroke-linecap:butt;stroke-linejoin:round;stroke-miterlimit:4;stroke-dasharray:none;stroke-dashoffset:0;stroke-opacity:0.62921352"
         sodipodi:type="arc" />
      <path
         d="m 159.65229,253.44841 c 0,0.72052 -0.65711,1.30462 -1.46769,1.30462 -0.81058,0 -1.46769,-0.5841 -1.46769,-1.30462 0,-0.72052 0.65711,-1.30462 1.46769,-1.30462 0.81058,0 1.46769,0.5841 1.46769,1.30462 z"
         sodipodi:ry="1.3046153"
         sodipodi:rx="1.4676921"
         sodipodi:cy="253.44841"
         sodipodi:cx="158.1846"
         id="path3128"
         style="fill:none;fill-opacity:1;fill-rule:evenodd;stroke:#ffffff;stroke-width:1.5;stroke-linecap:butt;stroke-linejoin:round;stroke-miterlimit:4;stroke-dasharray:none;stroke-dashoffset:0;stroke-opacity:0.62921352"
         sodipodi:type="arc" />
      <path
         transform="translate(-0.683193,0)"
         d="m 337.49755,253.02589 c 0,0.75464 -0.61175,1.36639 -1.36639,1.36639 -0.75463,0 -1.36638,-0.61175 -1.36638,-1.36639 0,-0.75463 0.61175,-1.36638 1.36638,-1.36638 0.75464,0 1.36639,0.61175 1.36639,1.36638 z"
         sodipodi:ry="1.3663868"
         sodipodi:rx="1.3663868"
         sodipodi:cy="253.02589"
         sodipodi:cx="336.13116"
         id="path3130"
         style="fill:none;fill-opacity:1;fill-rule:evenodd;stroke:#ffffff;stroke-width:1.5;stroke-linecap:butt;stroke-linejoin:round;stroke-miterlimit:4;stroke-dasharray:none;stroke-dashoffset:0;stroke-opacity:0.62921352"
         sodipodi:type="arc" />
    </g>
  </g>
  <g
     inkscape:groupmode="layer"
     id="layer2"
     inkscape:label="Players"
     transform="matrix(0,-1,1,0,-75.24466,404.0203)">
    <g
       id="g1457"
       style="fill:#fff000;fill-opacity:1">
      <path
         sodipodi:nodetypes="cccccccccccccc"
         id="path1471"
         d="M -267.79597,322.90416 L -262.14564,331.15611 L -262.14564,334.17187 L -268.00086,339.99463 L -262.14564,345.77053 L -262.14564,348.78628 L -267.99479,357.25352 L -273.56484,354.6025 L -270.84464,348.78628 L -291.10937,348.72001 L -291.04309,331.22239 L -270.84464,331.22239 L -273.46275,325.55519 L -267.79597,322.90416 z "
         style="fill:#fff000;fill-opacity:1;fill-rule:evenodd;stroke:#000000;stroke-width:0.57993298999999998px;stroke-linecap:butt;stroke-linejoin:miter;stroke-opacity:1" />
      <path
         id="path1485"
         d="M -262.14564,334.17187 C -263.30551,339.9712 -263.30551,339.9712 -263.30551,339.9712 L -262.14564,345.77053"
         style="fill:#fff000;fill-opacity:1;fill-rule:evenodd;stroke:#000000;stroke-width:0.57993298999999998px;stroke-linecap:butt;stroke-linejoin:miter;stroke-opacity:1" />
    </g>
    <text
       xml:space="preserve"
       style="font-size:16px;font-style:normal;font-variant:normal;font-weight:normal;font-stretch:normal;text-align:center;line-height:100%;writing-mode:lr-tb;text-anchor:middle;fill:#000000;fill-opacity:1;stroke:none;font-family:Arial Unicode MS;-inkscape-font-specification:Arial Unicode MS"
       x="339.31888"
       y="316.13596"
       id="text6173"
       sodipodi:linespacing="100%"
       transform="matrix(0,1,-1,0,0,0)"><tspan
         sodipodi:role="line"
         x="339.31888"
         y="316.13596"
         id="tspan4157">შესნი</tspan></text>
    <g
       style="fill:#ffffff;fill-opacity:1"
       transform="matrix(0.588968,0,0,0.581043,-123.91299,269.26577)"
       id="use8001">
      <path
         style="fill:#ffffff;fill-opacity:1;fill-rule:evenodd;stroke:#000000;stroke-width:1px;stroke-linecap:butt;stroke-linejoin:miter;stroke-opacity:1"
         d="M -112.72276,230.81533 L -102.9797,245.04448 L -102.9797,250.24466 L -113.07606,260.28506 L -102.9797,270.24466 L -102.9797,275.44484 L -113.0656,290.04522 L -122.67024,285.47396 L -117.9797,275.44484 L -152.92293,275.33056 L -152.80864,245.15876 L -117.9797,245.15876 L -122.4942,235.3866 L -112.72276,230.81533 z"
         id="path8354"
         sodipodi:nodetypes="cccccccccccccc" />
      <path
         style="fill:#ffffff;fill-opacity:1;fill-rule:evenodd;stroke:#000000;stroke-width:1px;stroke-linecap:butt;stroke-linejoin:miter;stroke-opacity:1"
         d="M -102.9797,250.24466 C -104.9797,260.24466 -104.9797,260.24466 -104.9797,260.24466 L -102.9797,270.24466"
         id="path8356" />
    </g>
    <use
       x="0"
       y="0"
       xlink:href="#use8001"
       id="use8003"
       transform="translate(0.3460424,-151.89376)"
       width="534"
       height="738"
       style="fill:#ffffff;fill-opacity:1" />
    <g
       transform="matrix(0.588968,0,0,0.581043,254.26915,188.57325)"
       id="g8141"
       style="fill:#0000ff;fill-opacity:1">
      <path
         style="fill:#0000ff;fill-opacity:1;fill-rule:evenodd;stroke:#000000;stroke-width:1px;stroke-linecap:butt;stroke-linejoin:miter;stroke-opacity:1"
         d="m -112.72276,230.81533 9.74306,14.22915 0,5.20018 -10.09636,10.0404 10.09636,9.9596 0,5.20018 -10.0859,14.60038 -9.60464,-4.57126 4.69054,-10.02912 -34.94323,-0.11428 0.11429,-30.1718 34.82894,0 -4.5145,-9.77216 9.77144,-4.57127 z"
         id="path8143"
         sodipodi:nodetypes="cccccccccccccc"
         inkscape:connector-curvature="0" />
      <path
         style="fill:#0000ff;fill-opacity:1;fill-rule:evenodd;stroke:#000000;stroke-width:1px;stroke-linecap:butt;stroke-linejoin:miter;stroke-opacity:1"
         d="m -102.9797,250.24466 c -2,10 -2,10 -2,10 l 2,10"
         id="path8145"
         inkscape:connector-curvature="0" />
    </g>
    <text
       xml:space="preserve"
       style="font-size:16px;font-style:normal;font-variant:normal;font-weight:normal;font-stretch:normal;text-align:center;line-height:100%;writing-mode:lr-tb;text-anchor:middle;fill:#000000;fill-opacity:1;stroke:none;font-family:Arial Unicode MS;-inkscape-font-specification:Arial Unicode MS"
       x="457.48767"
       y="-183.20633"
       id="text8147"
       sodipodi:linespacing="100%"
       transform="matrix(0,1,-1,0,0,0)"><tspan
         sodipodi:role="line"
         x="457.48767"
         y="-183.20633"
         id="tspan4213">კარაგუნისი</tspan></text>
    <text
       xml:space="preserve"
       style="font-size:16px;font-style:normal;font-variant:normal;font-weight:normal;font-stretch:normal;text-align:center;line-height:100%;writing-mode:lr-tb;text-anchor:middle;fill:#000000;fill-opacity:1;stroke:none;font-family:Arial Unicode MS;-inkscape-font-specification:Arial Unicode MS"
       x="221.38193"
       y="-183.20633"
       id="text8151"
       sodipodi:linespacing="100%"
       transform="matrix(0,1,-1,0,0,0)"><tspan
         sodipodi:role="line"
         x="221.38193"
         y="-183.20633"
         id="tspan4215">მანიატისი</tspan></text>
    <text
       xml:space="preserve"
       style="font-size:16px;font-style:normal;font-variant:normal;font-weight:normal;font-stretch:normal;text-align:center;line-height:100%;writing-mode:lr-tb;text-anchor:middle;fill:#000000;fill-opacity:1;stroke:none;font-family:Arial Unicode MS;-inkscape-font-specification:Arial Unicode MS"
       x="339.97903"
       y="-197.99716"
       id="text8155"
       sodipodi:linespacing="100%"
       transform="matrix(0,1,-1,0,0,0)"><tspan
         sodipodi:role="line"
         x="339.97903"
         y="-197.99716"
         id="tspan4211">კაცურანისი</tspan></text>
    <g
       id="use8159"
       transform="matrix(0.588968,0,0,0.581043,238.26915,71.143734)"
       style="fill:#0000ff;fill-opacity:1"
       inkscape:transform-center-x="-90.942988"
       inkscape:transform-center-y="-14.999978">
      <path
         sodipodi:nodetypes="cccccccccccccc"
         id="path2293"
         d="m -112.72276,230.81533 9.74306,14.22915 0,5.20018 -10.09636,10.0404 10.09636,9.9596 0,5.20018 -10.0859,14.60038 -9.60464,-4.57126 4.69054,-10.02912 -34.94323,-0.11428 0.11429,-30.1718 34.82894,0 -4.5145,-9.77216 9.77144,-4.57127 z"
         style="fill:#0000ff;fill-opacity:1;fill-rule:evenodd;stroke:#000000;stroke-width:1px;stroke-linecap:butt;stroke-linejoin:miter;stroke-opacity:1"
         inkscape:connector-curvature="0" />
      <path
         id="path2295"
         d="m -102.9797,250.24466 c -2,10 -2,10 -2,10 l 2,10"
         style="fill:#0000ff;fill-opacity:1;fill-rule:evenodd;stroke:#000000;stroke-width:1px;stroke-linecap:butt;stroke-linejoin:miter;stroke-opacity:1"
         inkscape:connector-curvature="0" />
    </g>
    <g
       id="use8161"
       transform="matrix(0.588968,0,0,0.581043,237.61,305.47492)"
       style="fill:#0000ff;fill-opacity:1">
      <path
         sodipodi:nodetypes="cccccccccccccc"
         id="path2299"
         d="m -112.72276,230.81533 9.74306,14.22915 0,5.20018 -10.09636,10.0404 10.09636,9.9596 0,5.20018 -10.0859,14.60038 -9.60464,-4.57126 4.69054,-10.02912 -34.94323,-0.11428 0.11429,-30.1718 34.82894,0 -4.5145,-9.77216 9.77144,-4.57127 z"
         style="fill:#0000ff;fill-opacity:1;fill-rule:evenodd;stroke:#000000;stroke-width:1px;stroke-linecap:butt;stroke-linejoin:miter;stroke-opacity:1"
         inkscape:connector-curvature="0" />
      <path
         id="path2301"
         d="m -102.9797,250.24466 c -2,10 -2,10 -2,10 l 2,10"
         style="fill:#0000ff;fill-opacity:1;fill-rule:evenodd;stroke:#000000;stroke-width:1px;stroke-linecap:butt;stroke-linejoin:miter;stroke-opacity:1"
         inkscape:connector-curvature="0" />
    </g>
    <text
       xml:space="preserve"
       style="font-size:16px;font-style:normal;font-variant:normal;font-weight:normal;font-stretch:normal;text-align:center;line-height:100%;writing-mode:lr-tb;text-anchor:middle;fill:#000000;fill-opacity:1;stroke:none;font-family:Arial Unicode MS;-inkscape-font-specification:Arial Unicode MS"
       x="534.96368"
       y="-276.30936"
       id="text8163"
       sodipodi:linespacing="100%"
       transform="matrix(0,1,-1,0,0,0)"><tspan
         sodipodi:role="line"
         x="534.96368"
         y="-276.30936"
         id="tspan4223"
         style="font-size:16px;font-style:normal;font-variant:normal;font-weight:normal;font-stretch:normal;text-align:center;line-height:100%;writing-mode:lr-tb;text-anchor:middle;font-family:Arial Unicode MS;-inkscape-font-specification:Arial Unicode MS">ოლებასი</tspan></text>
    <text
       xml:space="preserve"
       style="font-size:16px;font-style:normal;font-variant:normal;font-weight:normal;font-stretch:normal;text-align:center;line-height:100%;writing-mode:lr-tb;text-anchor:middle;fill:#000000;fill-opacity:1;stroke:none;font-family:Arial Unicode MS;-inkscape-font-specification:Arial Unicode MS"
       x="420.63632"
       y="-301.38748"
       id="text8167"
       sodipodi:linespacing="100%"
       transform="matrix(0,1,-1,0,0,0)"><tspan
         sodipodi:role="line"
         x="420.63632"
         y="-301.38748"
         id="tspan4221">ა. პაპადოპულოსი</tspan></text>
    <text
       xml:space="preserve"
       style="font-size:16px;font-style:normal;font-variant:normal;font-weight:normal;font-stretch:normal;text-align:center;line-height:100%;writing-mode:lr-tb;text-anchor:middle;fill:#000000;fill-opacity:1;stroke:none;font-family:Arial Unicode MS;-inkscape-font-specification:Arial Unicode MS"
       x="268.90091"
       y="-301.60318"
       id="text8173"
       sodipodi:linespacing="100%"
       transform="matrix(0,1,-1,0,0,0)"><tspan
         sodipodi:role="line"
         x="268.90091"
         y="-301.60318"
         id="tspan4217">პაპასტატოპულოსი</tspan></text>
    <g
       id="use8177"
       transform="matrix(0.588968,0,0,0.581043,355.80126,117.88978)"
       style="fill:#0000ff;fill-opacity:1">
      <path
         sodipodi:nodetypes="cccccccccccccc"
         id="path2305"
         d="M -112.72276,230.81533 L -102.9797,245.04448 L -102.9797,250.24466 L -113.07606,260.28506 L -102.9797,270.24466 L -102.9797,275.44484 L -113.0656,290.04522 L -122.67024,285.47396 L -117.9797,275.44484 L -152.92293,275.33056 L -152.80864,245.15876 L -117.9797,245.15876 L -122.4942,235.3866 L -112.72276,230.81533 z "
         style="fill:#0000ff;fill-opacity:1;fill-rule:evenodd;stroke:#000000;stroke-width:1px;stroke-linecap:butt;stroke-linejoin:miter;stroke-opacity:1" />
      <path
         id="path2307"
         d="M -102.9797,250.24466 C -104.9797,260.24466 -104.9797,260.24466 -104.9797,260.24466 L -102.9797,270.24466"
         style="fill:#0000ff;fill-opacity:1;fill-rule:evenodd;stroke:#000000;stroke-width:1px;stroke-linecap:butt;stroke-linejoin:miter;stroke-opacity:1" />
    </g>
    <g
       style="opacity:1;fill:#0000ff;fill-opacity:1"
       transform="matrix(0.588968,0,0,0.581043,355.70076,270.18045)"
       id="use8179">
      <path
         style="fill:#0000ff;fill-opacity:1;fill-rule:evenodd;stroke:#000000;stroke-width:1px;stroke-linecap:butt;stroke-linejoin:miter;stroke-opacity:1"
         d="M -112.72276,230.81533 L -102.9797,245.04448 L -102.9797,250.24466 L -113.07606,260.28506 L -102.9797,270.24466 L -102.9797,275.44484 L -113.0656,290.04522 L -122.67024,285.47396 L -117.9797,275.44484 L -152.92293,275.33056 L -152.80864,245.15876 L -117.9797,245.15876 L -122.4942,235.3866 L -112.72276,230.81533 z "
         id="path1518"
         sodipodi:nodetypes="cccccccccccccc" />
      <path
         style="fill:#0000ff;fill-opacity:1;fill-rule:evenodd;stroke:#000000;stroke-width:1px;stroke-linecap:butt;stroke-linejoin:miter;stroke-opacity:1"
         d="M -102.9797,250.24466 C -104.9797,260.24466 -104.9797,260.24466 -104.9797,260.24466 L -102.9797,270.24466"
         id="path1520" />
    </g>
    <g
       style="font-size:27.35079765px;font-style:normal;font-variant:normal;font-weight:normal;font-stretch:normal;text-align:center;line-height:100%;writing-mode:lr-tb;text-anchor:middle;fill:#0000ff;fill-opacity:1;font-family:Verdana"
       transform="matrix(0.588968,0,0,0.581043,330.59651,383.69709)"
       id="use8181">
      <path
         style="font-size:27.35079765px;font-style:normal;font-variant:normal;font-weight:normal;font-stretch:normal;text-align:center;line-height:100%;writing-mode:lr-tb;text-anchor:middle;fill:#0000ff;fill-opacity:1;fill-rule:evenodd;stroke:#000000;stroke-width:1px;stroke-linecap:butt;stroke-linejoin:miter;stroke-opacity:1;font-family:Verdana"
         d="m -112.72276,230.81533 9.74306,14.22915 0,5.20018 -10.09636,10.0404 10.09636,9.9596 0,5.20018 -10.0859,14.60038 -9.60464,-4.57126 4.69054,-10.02912 -34.94323,-0.11428 0.11429,-30.1718 34.82894,0 -4.5145,-9.77216 9.77144,-4.57127 z"
         id="path1530"
         sodipodi:nodetypes="cccccccccccccc"
         inkscape:connector-curvature="0" />
      <path
         style="font-size:27.35079765px;font-style:normal;font-variant:normal;font-weight:normal;font-stretch:normal;text-align:center;line-height:100%;writing-mode:lr-tb;text-anchor:middle;fill:#0000ff;fill-opacity:1;fill-rule:evenodd;stroke:#000000;stroke-width:1px;stroke-linecap:butt;stroke-linejoin:miter;stroke-opacity:1;font-family:Verdana"
         d="m -102.9797,250.24466 c -2,10 -2,10 -2,10 l 2,10"
         id="path1532"
         inkscape:connector-curvature="0" />
    </g>
    <g
       style="fill:#0000ff;fill-opacity:1"
       transform="matrix(0.588968,0,0,0.581043,329.96037,-0.09219216)"
       id="use8201">
      <path
         style="fill:#0000ff;fill-opacity:1;fill-rule:evenodd;stroke:#000000;stroke-width:1px;stroke-linecap:butt;stroke-linejoin:miter;stroke-opacity:1"
         d="m -112.72276,230.81533 9.74306,14.22915 0,5.20018 -10.09636,10.0404 10.09636,9.9596 0,5.20018 -10.0859,14.60038 -9.60464,-4.57126 4.69054,-10.02912 -34.94323,-0.11428 0.11429,-30.1718 34.82894,0 -4.5145,-9.77216 9.77144,-4.57127 z"
         id="path1500"
         sodipodi:nodetypes="cccccccccccccc"
         inkscape:connector-curvature="0" />
      <path
         style="fill:#0000ff;fill-opacity:1;fill-rule:evenodd;stroke:#000000;stroke-width:1px;stroke-linecap:butt;stroke-linejoin:miter;stroke-opacity:1"
         d="m -102.9797,250.24466 c -2,10 -2,10 -2,10 l 2,10"
         id="path1502"
         inkscape:connector-curvature="0" />
    </g>
    <g
       id="g1461"
       style="fill:#decd87;fill-opacity:1">
      <path
         sodipodi:nodetypes="cccccccccccccc"
         id="path8203"
         d="M 356.81981,324.08832 L 362.47014,332.34027 L 362.47014,335.35603 L 356.61492,341.17879 L 362.47014,346.95469 L 362.47014,349.97044 L 356.62099,358.43768 L 351.05094,355.78666 L 353.77114,349.97044 L 333.50641,349.90417 L 333.57269,332.40655 L 353.77114,332.40655 L 351.15303,326.73935 L 356.81981,324.08832 z "
         style="fill:#decd87;fill-opacity:1;fill-rule:evenodd;stroke:#000000;stroke-width:0.57993298999999998px;stroke-linecap:butt;stroke-linejoin:miter;stroke-opacity:1" />
      <path
         id="path8205"
         d="M 362.47014,335.35603 C 361.31027,341.15536 361.31027,341.15536 361.31027,341.15536 L 362.47014,346.95469"
         style="fill:#decd87;fill-opacity:1;fill-rule:evenodd;stroke:#000000;stroke-width:0.57993298999999998px;stroke-linecap:butt;stroke-linejoin:miter;stroke-opacity:1" />
    </g>
    <text
       xml:space="preserve"
       style="font-size:16px;font-style:normal;font-variant:normal;font-weight:normal;font-stretch:normal;text-align:center;line-height:100%;writing-mode:lr-tb;text-anchor:middle;fill:#000000;fill-opacity:1;stroke:none;font-family:Arial Unicode MS;-inkscape-font-specification:Arial Unicode MS"
       x="267.90948"
       y="228.28931"
       id="text4159"
       sodipodi:linespacing="100%"
       transform="matrix(0,1,-1,0,0,0)"><tspan
         sodipodi:role="line"
         x="267.90948"
         y="228.28931"
         id="tspan4163">პერკისი</tspan></text>
    <text
       xml:space="preserve"
       style="font-size:16px;font-style:normal;font-variant:normal;font-weight:normal;font-stretch:normal;text-align:center;line-height:100%;writing-mode:lr-tb;text-anchor:middle;fill:#000000;fill-opacity:1;stroke:none;font-family:Arial Unicode MS;-inkscape-font-specification:Arial Unicode MS"
       x="420.07901"
       y="227.66354"
       id="text4167"
       sodipodi:linespacing="100%"
       transform="matrix(0,1,-1,0,0,0)"><tspan
         sodipodi:role="line"
         x="420.07901"
         y="227.66354"
         id="tspan4171">ვასილევსკი</tspan></text>
    <text
       xml:space="preserve"
       style="font-size:16px;font-style:normal;font-variant:normal;font-weight:normal;font-stretch:normal;text-align:center;line-height:100%;writing-mode:lr-tb;text-anchor:middle;fill:#000000;fill-opacity:1;stroke:none;font-family:Arial Unicode MS;-inkscape-font-specification:Arial Unicode MS"
       x="339.99954"
       y="-372.38358"
       id="text4181"
       sodipodi:linespacing="100%"
       transform="matrix(0,1,-1,0,0,0)"><tspan
         sodipodi:role="line"
         x="339.99954"
         y="-372.38358"
         id="tspan4185">ხალკიასი</tspan></text>
    <text
       xml:space="preserve"
       style="font-size:16px;font-style:normal;font-variant:normal;font-weight:normal;font-stretch:normal;text-align:center;line-height:100%;writing-mode:lr-tb;text-anchor:middle;fill:#000000;fill-opacity:1;stroke:none;font-family:Arial Unicode MS;-inkscape-font-specification:Arial Unicode MS"
       x="151.02278"
       y="-276.30725"
       id="text4187"
       sodipodi:linespacing="100%"
       transform="matrix(0,1,-1,0,0,0)"><tspan
         sodipodi:role="line"
         x="151.02278"
         y="-276.30725"
         id="tspan4191">ტოროსიდისი</tspan></text>
    <g
       style="fill:#ffffff;fill-opacity:1"
       transform="matrix(0.588968,0,0,0.581043,-102.09349,-4.8006362)"
       id="g8358">
      <path
         style="fill:#ffffff;fill-opacity:1;fill-rule:evenodd;stroke:#000000;stroke-width:1px;stroke-linecap:butt;stroke-linejoin:miter;stroke-opacity:1"
         d="m -112.72276,230.81533 9.74306,14.22915 0,5.20018 -10.09636,10.0404 10.09636,9.9596 0,5.20018 -10.0859,14.60038 -9.60464,-4.57126 4.69054,-10.02912 -34.94323,-0.11428 0.11429,-30.1718 34.82894,0 -4.5145,-9.77216 9.77144,-4.57127 z"
         id="path8360"
         sodipodi:nodetypes="cccccccccccccc"
         inkscape:connector-curvature="0" />
      <path
         style="fill:#ffffff;fill-opacity:1;fill-rule:evenodd;stroke:#000000;stroke-width:1px;stroke-linecap:butt;stroke-linejoin:miter;stroke-opacity:1"
         d="m -102.9797,250.24466 c -2,10 -2,10 -2,10 l 2,10"
         id="path8362"
         inkscape:connector-curvature="0" />
    </g>
    <text
       xml:space="preserve"
       style="font-size:16px;font-style:normal;font-variant:normal;font-weight:normal;font-stretch:normal;text-align:center;line-height:100%;writing-mode:lr-tb;text-anchor:middle;fill:#000000;fill-opacity:1;stroke:none;font-family:Arial Unicode MS;-inkscape-font-specification:Arial Unicode MS"
       x="144.72006"
       y="206.96109"
       id="text8364"
       sodipodi:linespacing="100%"
       transform="matrix(0,1,-1,0,0,0)"><tspan
         sodipodi:role="line"
         x="144.72006"
         y="206.96109"
         id="tspan8366">ბოენიში</tspan></text>
    <g
       style="fill:#ffffff;fill-opacity:1"
       transform="matrix(0.588968,0,0,0.581043,16.021115,189.37201)"
       id="g8368">
      <path
         style="fill:#ffffff;fill-opacity:1;fill-rule:evenodd;stroke:#000000;stroke-width:1px;stroke-linecap:butt;stroke-linejoin:miter;stroke-opacity:1"
         d="m -112.72276,230.81533 9.74306,14.22915 0,5.20018 -10.09636,10.0404 10.09636,9.9596 0,5.20018 -10.0859,14.60038 -9.60464,-4.57126 4.69054,-10.02912 -34.94323,-0.11428 0.11429,-30.1718 34.82894,0 -4.5145,-9.77216 9.77144,-4.57127 z"
         id="path8370"
         sodipodi:nodetypes="cccccccccccccc"
         inkscape:connector-curvature="0" />
      <path
         style="fill:#ffffff;fill-opacity:1;fill-rule:evenodd;stroke:#000000;stroke-width:1px;stroke-linecap:butt;stroke-linejoin:miter;stroke-opacity:1"
         d="m -102.9797,250.24466 c -2,10 -2,10 -2,10 l 2,10"
         id="path8372"
         inkscape:connector-curvature="0" />
    </g>
    <text
       xml:space="preserve"
       style="font-size:16px;font-style:normal;font-variant:normal;font-weight:normal;font-stretch:normal;text-align:center;line-height:100%;writing-mode:lr-tb;text-anchor:middle;fill:#000000;fill-opacity:1;stroke:none;font-family:Arial Unicode MS;-inkscape-font-specification:Arial Unicode MS"
       x="340.33588"
       y="90.720093"
       id="text8374"
       sodipodi:linespacing="100%"
       transform="matrix(0,1,-1,0,0,0)"><tspan
         sodipodi:role="line"
         x="340.33588"
         y="90.720093"
         id="tspan8376">ობრანიაკი</tspan></text>
    <g
       style="fill:#ffffff;fill-opacity:1"
       transform="matrix(0.588968,0,0,0.581043,-51.238477,117.71592)"
       id="g8436">
      <path
         style="fill:#ffffff;fill-opacity:1;fill-rule:evenodd;stroke:#000000;stroke-width:1px;stroke-linecap:butt;stroke-linejoin:miter;stroke-opacity:1"
         d="m -112.72276,230.81533 9.74306,14.22915 0,5.20018 -10.09636,10.0404 10.09636,9.9596 0,5.20018 -10.0859,14.60038 -9.60464,-4.57126 4.69054,-10.02912 -34.94323,-0.11428 0.11429,-30.1718 34.82894,0 -4.5145,-9.77216 9.77144,-4.57127 z"
         id="path8438"
         sodipodi:nodetypes="cccccccccccccc"
         inkscape:connector-curvature="0" />
      <path
         style="fill:#ffffff;fill-opacity:1;fill-rule:evenodd;stroke:#000000;stroke-width:1px;stroke-linecap:butt;stroke-linejoin:miter;stroke-opacity:1"
         d="m -102.9797,250.24466 c -2,10 -2,10 -2,10 l 2,10"
         id="path8440"
         inkscape:connector-curvature="0" />
    </g>
    <use
       x="0"
       y="0"
       xlink:href="#use8001"
       id="use8442"
       transform="translate(200.61092,-79.04488)"
       width="534"
       height="738"
       style="fill:#ffffff;fill-opacity:1" />
    <text
       xml:space="preserve"
       style="font-size:16px;font-style:normal;font-variant:normal;font-weight:normal;font-stretch:normal;text-align:center;line-height:100%;writing-mode:lr-tb;text-anchor:middle;fill:#000000;fill-opacity:1;stroke:none;font-family:Arial Unicode MS;-inkscape-font-specification:Arial Unicode MS"
       x="339.61053"
       y="30.298012"
       id="text8444"
       sodipodi:linespacing="100%"
       transform="matrix(0,1,-1,0,0,0)"><tspan
         sodipodi:role="line"
         x="339.61053"
         y="30.298012"
         id="tspan8446">ლევანდოვსკი</tspan></text>
    <text
       xml:space="preserve"
       style="font-size:16px;font-style:normal;font-variant:normal;font-weight:normal;font-stretch:normal;text-align:center;line-height:100%;writing-mode:lr-tb;text-anchor:middle;fill:#000000;fill-opacity:1;stroke:none;font-family:Arial Unicode MS;-inkscape-font-specification:Arial Unicode MS"
       x="268.67975"
       y="157.97971"
       id="text8448"
       sodipodi:linespacing="100%"
       transform="matrix(0,1,-1,0,0,0)"><tspan
         sodipodi:role="line"
         x="268.67975"
         y="157.97971"
         id="tspan8450">პოლანსკი</tspan></text>
    <g
       style="fill:#ffffff;fill-opacity:1"
       transform="matrix(0.588968,0,0,0.581043,15.4104,380.4553)"
       id="g8452">
      <path
         style="fill:#ffffff;fill-opacity:1;fill-rule:evenodd;stroke:#000000;stroke-width:1px;stroke-linecap:butt;stroke-linejoin:miter;stroke-opacity:1"
         d="m -112.72276,230.81533 9.74306,14.22915 0,5.20018 -10.09636,10.0404 10.09636,9.9596 0,5.20018 -10.0859,14.60038 -9.60464,-4.57126 4.69054,-10.02912 -34.94323,-0.11428 0.11429,-30.1718 34.82894,0 -4.5145,-9.77216 9.77144,-4.57127 z"
         id="path8454"
         sodipodi:nodetypes="cccccccccccccc"
         inkscape:connector-curvature="0" />
      <path
         style="fill:#ffffff;fill-opacity:1;fill-rule:evenodd;stroke:#000000;stroke-width:1px;stroke-linecap:butt;stroke-linejoin:miter;stroke-opacity:1"
         d="m -102.9797,250.24466 c -2,10 -2,10 -2,10 l 2,10"
         id="path8456"
         inkscape:connector-curvature="0" />
    </g>
    <text
       xml:space="preserve"
       style="font-size:16px;font-style:normal;font-variant:normal;font-weight:normal;font-stretch:normal;text-align:center;line-height:100%;writing-mode:lr-tb;text-anchor:middle;fill:#000000;fill-opacity:1;stroke:none;font-family:Arial Unicode MS;-inkscape-font-specification:Arial Unicode MS"
       x="531.96948"
       y="89.971832"
       id="text8458"
       sodipodi:linespacing="100%"
       transform="matrix(0,1,-1,0,0,0)"><tspan
         sodipodi:role="line"
         x="531.96948"
         y="89.971832"
         id="tspan8460">ბლაშიკოვსკი</tspan></text>
    <g
       style="fill:#ffffff;fill-opacity:1"
       transform="matrix(0.588968,0,0,0.581043,16.452175,-4.2840847)"
       id="g8462">
      <path
         style="fill:#ffffff;fill-opacity:1;fill-rule:evenodd;stroke:#000000;stroke-width:1px;stroke-linecap:butt;stroke-linejoin:miter;stroke-opacity:1"
         d="m -112.72276,230.81533 9.74306,14.22915 0,5.20018 -10.09636,10.0404 10.09636,9.9596 0,5.20018 -10.0859,14.60038 -9.60464,-4.57126 4.69054,-10.02912 -34.94323,-0.11428 0.11429,-30.1718 34.82894,0 -4.5145,-9.77216 9.77144,-4.57127 z"
         id="path8464"
         sodipodi:nodetypes="cccccccccccccc"
         inkscape:connector-curvature="0" />
      <path
         style="fill:#ffffff;fill-opacity:1;fill-rule:evenodd;stroke:#000000;stroke-width:1px;stroke-linecap:butt;stroke-linejoin:miter;stroke-opacity:1"
         d="m -102.9797,250.24466 c -2,10 -2,10 -2,10 l 2,10"
         id="path8466"
         inkscape:connector-curvature="0" />
    </g>
    <text
       xml:space="preserve"
       style="font-size:16px;font-style:normal;font-variant:normal;font-weight:normal;font-stretch:normal;text-align:center;line-height:100%;writing-mode:lr-tb;text-anchor:middle;fill:#000000;fill-opacity:1;stroke:none;font-family:Arial Unicode MS;-inkscape-font-specification:Arial Unicode MS"
       x="147.24471"
       y="88.773308"
       id="text8468"
       sodipodi:linespacing="100%"
       transform="matrix(0,1,-1,0,0,0)"><tspan
         sodipodi:role="line"
         x="147.24471"
         y="88.773308"
         id="tspan8470">რიბუსი</tspan></text>
    <g
       transform="matrix(0.588968,0,0,0.581043,146.67205,304.86328)"
       id="g9482"
       style="fill:#0000ff;fill-opacity:1">
      <path
         style="fill:#0000ff;fill-opacity:1;fill-rule:evenodd;stroke:#000000;stroke-width:1px;stroke-linecap:butt;stroke-linejoin:miter;stroke-opacity:1"
         d="m -112.72276,230.81533 9.74306,14.22915 0,5.20018 -10.09636,10.0404 10.09636,9.9596 0,5.20018 -10.0859,14.60038 -9.60464,-4.57126 4.69054,-10.02912 -34.94323,-0.11428 0.11429,-30.1718 34.82894,0 -4.5145,-9.77216 9.77144,-4.57127 z"
         id="path9484"
         sodipodi:nodetypes="cccccccccccccc"
         inkscape:connector-curvature="0" />
      <path
         style="fill:#0000ff;fill-opacity:1;fill-rule:evenodd;stroke:#000000;stroke-width:1px;stroke-linecap:butt;stroke-linejoin:miter;stroke-opacity:1"
         d="m -102.9797,250.24466 c -2,10 -2,10 -2,10 l 2,10"
         id="path9486"
         inkscape:connector-curvature="0" />
    </g>
    <text
       xml:space="preserve"
       style="font-size:16px;font-style:normal;font-variant:normal;font-weight:normal;font-stretch:normal;text-align:center;line-height:100%;writing-mode:lr-tb;text-anchor:middle;fill:#000000;fill-opacity:1;stroke:none;font-family:Arial Unicode MS;-inkscape-font-specification:Arial Unicode MS"
       x="456.03354"
       y="-91.681625"
       id="text9488"
       sodipodi:linespacing="100%"
       transform="matrix(0,1,-1,0,0,0)"><tspan
         sodipodi:role="line"
         x="456.03354"
         y="-91.681625"
         id="tspan9490">სამარასი</tspan></text>
    <text
       xml:space="preserve"
       style="font-size:16px;font-style:normal;font-variant:normal;font-weight:normal;font-stretch:normal;text-align:center;line-height:100%;writing-mode:lr-tb;text-anchor:middle;fill:#000000;fill-opacity:1;stroke:none;font-family:Arial Unicode MS;-inkscape-font-specification:Arial Unicode MS"
       x="342.10095"
       y="-91.477257"
       id="text9492"
       sodipodi:linespacing="100%"
       transform="matrix(0,1,-1,0,0,0)"><tspan
         sodipodi:role="line"
         x="342.10095"
         y="-91.477257"
         id="tspan9494">გეკასი</tspan></text>
    <text
       xml:space="preserve"
       style="font-size:16px;font-style:normal;font-variant:normal;font-weight:normal;font-stretch:normal;text-align:center;line-height:100%;writing-mode:lr-tb;text-anchor:middle;fill:#000000;fill-opacity:1;stroke:none;font-family:Arial Unicode MS;-inkscape-font-specification:Arial Unicode MS"
       x="222.00464"
       y="-91.716103"
       id="text9496"
       sodipodi:linespacing="100%"
       transform="matrix(0,1,-1,0,0,0)"><tspan
         sodipodi:role="line"
         x="222.00464"
         y="-91.716103"
         id="tspan9498">ნინისი</tspan></text>
    <g
       id="g9500"
       transform="matrix(0.588968,0,0,0.581043,146.67205,72.22089)"
       style="fill:#0000ff;fill-opacity:1">
      <path
         sodipodi:nodetypes="cccccccccccccc"
         id="path9502"
         d="m -112.72276,230.81533 9.74306,14.22915 0,5.20018 -10.09636,10.0404 10.09636,9.9596 0,5.20018 -10.0859,14.60038 -9.60464,-4.57126 4.69054,-10.02912 -34.94323,-0.11428 0.11429,-30.1718 34.82894,0 -4.5145,-9.77216 9.77144,-4.57127 z"
         style="fill:#0000ff;fill-opacity:1;fill-rule:evenodd;stroke:#000000;stroke-width:1px;stroke-linecap:butt;stroke-linejoin:miter;stroke-opacity:1"
         inkscape:connector-curvature="0" />
      <path
         id="path9504"
         d="m -102.9797,250.24466 c -2,10 -2,10 -2,10 l 2,10"
         style="fill:#0000ff;fill-opacity:1;fill-rule:evenodd;stroke:#000000;stroke-width:1px;stroke-linecap:butt;stroke-linejoin:miter;stroke-opacity:1"
         inkscape:connector-curvature="0" />
    </g>
    <g
       style="fill:#0000ff;fill-opacity:1"
       transform="matrix(0.588968,0,0,0.581043,146.47723,189.63423)"
       id="g9506">
      <path
         style="fill:#0000ff;fill-opacity:1;fill-rule:evenodd;stroke:#000000;stroke-width:1px;stroke-linecap:butt;stroke-linejoin:miter;stroke-opacity:1"
         d="m -112.72276,230.81533 9.74306,14.22915 0,5.20018 -10.09636,10.0404 10.09636,9.9596 0,5.20018 -10.0859,14.60038 -9.60464,-4.57126 4.69054,-10.02912 -34.94323,-0.11428 0.11429,-30.1718 34.82894,0 -4.5145,-9.77216 9.77144,-4.57127 z"
         id="path9508"
         sodipodi:nodetypes="cccccccccccccc"
         inkscape:connector-curvature="0" />
      <path
         style="fill:#0000ff;fill-opacity:1;fill-rule:evenodd;stroke:#000000;stroke-width:1px;stroke-linecap:butt;stroke-linejoin:miter;stroke-opacity:1"
         d="m -102.9797,250.24466 c -2,10 -2,10 -2,10 l 2,10"
         id="path9510"
         inkscape:connector-curvature="0" />
    </g>
    <g
       id="g9512"
       style="fill:#ffffff;fill-opacity:1"
       transform="translate(149.81793,73.149643)">
      <path
         sodipodi:nodetypes="cccccccccccccc"
         id="path9514"
         d="m -267.79597,322.90416 5.65033,8.25195 0,3.01576 -5.85522,5.82276 5.85522,5.7759 0,3.01575 -5.84915,8.46724 -5.57005,-2.65102 2.7202,-5.81622 -20.26473,-0.0663 0.0663,-17.49762 20.19845,0 -2.61811,-5.6672 5.66678,-2.65103 z"
         style="fill:#ffffff;fill-opacity:1;fill-rule:evenodd;stroke:#000000;stroke-width:0.57993299px;stroke-linecap:butt;stroke-linejoin:miter;stroke-opacity:1"
         inkscape:connector-curvature="0" />
      <path
         id="path9516"
         d="m -262.14564,334.17187 c -1.15987,5.79933 -1.15987,5.79933 -1.15987,5.79933 l 1.15987,5.79933"
         style="fill:#ffffff;fill-opacity:1;fill-rule:evenodd;stroke:#000000;stroke-width:0.57993299px;stroke-linecap:butt;stroke-linejoin:miter;stroke-opacity:1"
         inkscape:connector-curvature="0" />
    </g>
    <text
       xml:space="preserve"
       style="font-size:16px;font-style:normal;font-variant:normal;font-weight:normal;font-stretch:normal;text-align:center;line-height:100%;writing-mode:lr-tb;text-anchor:middle;fill:#000000;fill-opacity:1;stroke:none;font-family:Arial Unicode MS;-inkscape-font-specification:Arial Unicode MS"
       x="412.9209"
       y="159.66983"
       id="text9518"
       sodipodi:linespacing="100%"
       transform="matrix(0,1,-1,0,0,0)"><tspan
         sodipodi:role="line"
         x="412.9209"
         y="159.66983"
         id="tspan9520">მურავსკი</tspan></text>
    <g
       id="g9522"
       style="fill:#ffffff;fill-opacity:1"
       transform="translate(98.86494,191.85813)">
      <path
         sodipodi:nodetypes="cccccccccccccc"
         id="path9524"
         d="m -267.79597,322.90416 5.65033,8.25195 0,3.01576 -5.85522,5.82276 5.85522,5.7759 0,3.01575 -5.84915,8.46724 -5.57005,-2.65102 2.7202,-5.81622 -20.26473,-0.0663 0.0663,-17.49762 20.19845,0 -2.61811,-5.6672 5.66678,-2.65103 z"
         style="fill:#ffffff;fill-opacity:1;fill-rule:evenodd;stroke:#000000;stroke-width:0.57993299px;stroke-linecap:butt;stroke-linejoin:miter;stroke-opacity:1"
         inkscape:connector-curvature="0" />
      <path
         id="path9526"
         d="m -262.14564,334.17187 c -1.15987,5.79933 -1.15987,5.79933 -1.15987,5.79933 l 1.15987,5.79933"
         style="fill:#ffffff;fill-opacity:1;fill-rule:evenodd;stroke:#000000;stroke-width:0.57993299px;stroke-linecap:butt;stroke-linejoin:miter;stroke-opacity:1"
         inkscape:connector-curvature="0" />
    </g>
    <text
       xml:space="preserve"
       style="font-size:16px;font-style:normal;font-variant:normal;font-weight:normal;font-stretch:normal;text-align:center;line-height:100%;writing-mode:lr-tb;text-anchor:middle;fill:#000000;fill-opacity:1;stroke:none;font-family:Arial Unicode MS;-inkscape-font-specification:Arial Unicode MS"
       x="531.54938"
       y="207.60397"
       id="text9528"
       sodipodi:linespacing="100%"
       transform="matrix(0,1,-1,0,0,0)"><tspan
         sodipodi:role="line"
         x="531.54938"
         y="207.60397"
         id="tspan9530">პიშეკი</tspan></text>
  </g>
</svg>
