<?xml version="1.0" encoding="UTF-8" standalone="no"?>
<!-- Created with Inkscape (http://www.inkscape.org/) -->

<svg
   xmlns:dc="http://purl.org/dc/elements/1.1/"
   xmlns:cc="http://creativecommons.org/ns#"
   xmlns:rdf="http://www.w3.org/1999/02/22-rdf-syntax-ns#"
   xmlns:svg="http://www.w3.org/2000/svg"
   xmlns="http://www.w3.org/2000/svg"
   xmlns:sodipodi="http://sodipodi.sourceforge.net/DTD/sodipodi-0.dtd"
   xmlns:inkscape="http://www.inkscape.org/namespaces/inkscape"
   width="693.15094"
   height="339.7865"
   id="svg2"
   version="1.1"
   inkscape:version="0.48.0 r9654"
   sodipodi:docname="East London 1936-1939.svg">
  <defs
     id="defs4" />
  <sodipodi:namedview
     id="base"
     pagecolor="#ffffff"
     bordercolor="#666666"
     borderopacity="1.0"
     inkscape:pageopacity="0.0"
     inkscape:pageshadow="2"
     inkscape:zoom="0.7"
     inkscape:cx="299.67815"
     inkscape:cy="173.50645"
     inkscape:document-units="px"
     inkscape:current-layer="layer1"
     showgrid="false"
     fit-margin-top="0"
     fit-margin-left="0"
     fit-margin-right="0"
     fit-margin-bottom="0"
     inkscape:window-width="1600"
     inkscape:window-height="838"
     inkscape:window-x="-8"
     inkscape:window-y="-8"
     inkscape:window-maximized="1" />
  <metadata
     id="metadata7">
    <rdf:RDF>
      <cc:Work
         rdf:about="">
        <dc:format>image/svg+xml</dc:format>
        <dc:type
           rdf:resource="http://purl.org/dc/dcmitype/StillImage" />
        <dc:title></dc:title>
      </cc:Work>
    </rdf:RDF>
  </metadata>
  <g
     inkscape:label="Ebene 1"
     inkscape:groupmode="layer"
     id="layer1"
     transform="translate(-19.674869,-92.701141)">
    <path
       style="fill:none;stroke:#000000;stroke-width:10;stroke-linecap:round;stroke-linejoin:round;stroke-miterlimit:4;stroke-opacity:1;stroke-dasharray:none"
       d="M 95.964492,123.24819 373.75644,-141.91686 c 35.48817,-34.22483 72.94908,-35.40611 111.11678,-24.74874 l 129.8046,41.92134 c 18.04384,6.28385 36.33708,17.30621 55.05332,36.365487 l 91.4188,111.621856 c 15.22955,21.659371 5.25557,25.451816 -15.15228,23.738585 L 539.92654,39.405524 c -13.81898,-1.189358 -28.52555,-3.08879 -48.9924,-9.596449 L 450.02296,15.161863 C 439.75882,9.6002765 433.94442,-0.4110493 426.78945,-9.0817981 417.15483,-20.774829 409.45862,-31.7913 384.36304,-32.315307 358.14046,-29.04971 333.15011,-24.798331 346.48232,10.1111 l 7.07107,24.243661 c 5.81223,25.396297 6.12699,49.341875 -35.86041,62.124382 L 115.15739,150.01723 c -26.062147,7.31464 -41.483135,-5.73252 -19.192898,-26.76904 z"
       id="path3989"
       inkscape:connector-curvature="0"
       transform="translate(-60.631257,270.18022)"
       sodipodi:nodetypes="ccccccccccccccccc" />
    <path
       style="fill:none;stroke:#000000;stroke-width:5;stroke-linecap:round;stroke-linejoin:miter;stroke-miterlimit:4;stroke-opacity:1;stroke-dasharray:none"
       d="m 200.0102,10.363638 11.8693,13.889598"
       id="path3991"
       inkscape:connector-curvature="0"
       transform="translate(-60.631257,270.18022)" />
    <g
       style="font-size:40px;font-style:normal;font-weight:normal;line-height:125%;letter-spacing:0px;word-spacing:0px;fill:#000000;fill-opacity:1;stroke:none;font-family:Sans"
       id="text3993">
      <path
         d="m 57.025764,393.48532 0,-14.31641 5.371094,0 c 1.093742,2e-5 1.97102,0.14488 2.631836,0.43458 0.660797,0.28972 1.178375,0.73569 1.552735,1.33789 0.374337,0.60222 0.561511,1.2321 0.561523,1.88964 -1.2e-5,0.61199 -0.166027,1.18816 -0.498047,1.72852 -0.332042,0.54037 -0.833343,0.97657 -1.503906,1.30859 0.865875,0.25392 1.531564,0.68686 1.99707,1.29883 0.465483,0.61199 0.69823,1.33464 0.698242,2.16797 -1.2e-5,0.67058 -0.141613,1.29395 -0.424804,1.87012 -0.283215,0.57617 -0.63315,1.02051 -1.049805,1.33301 -0.416677,0.3125 -0.939138,0.5485 -1.567383,0.708 -0.628264,0.15951 -1.39812,0.23926 -2.30957,0.23926 z m 1.894532,-8.30078 3.095703,0 c 0.839836,10e-6 1.442049,-0.0553 1.80664,-0.16602 0.481763,-0.14322 0.844718,-0.38085 1.088868,-0.71289 0.244131,-0.33202 0.366201,-0.74868 0.366211,-1.25 -10e-6,-0.47525 -0.113942,-0.89354 -0.341797,-1.25488 -0.227874,-0.36132 -0.553395,-0.60871 -0.976563,-0.74219 -0.423185,-0.13345 -1.149096,-0.20018 -2.177734,-0.20019 l -2.861328,0 z m 0,6.61133 3.564453,0 c 0.611971,0 1.041659,-0.0228 1.289062,-0.0684 0.43619,-0.0781 0.800773,-0.20833 1.09375,-0.39063 0.292959,-0.18229 0.533845,-0.44759 0.722657,-0.79589 0.188791,-0.34831 0.283192,-0.75033 0.283203,-1.20606 -1.1e-5,-0.53385 -0.136729,-0.99772 -0.410157,-1.3916 -0.273447,-0.39388 -0.652678,-0.67057 -1.137695,-0.83008 -0.485034,-0.1595 -1.183276,-0.23925 -2.094726,-0.23926 l -3.310547,0 z"
         style="font-size:20px"
         id="path4063"
         inkscape:connector-curvature="0" />
      <path
         d="m 77.338264,390.14548 1.816407,0.22461 c -0.286469,1.0612 -0.817067,1.88476 -1.591797,2.4707 -0.774748,0.58594 -1.76433,0.87891 -2.96875,0.87891 -1.516931,0 -2.71973,-0.46713 -3.608399,-1.40137 -0.888673,-0.93424 -1.333008,-2.24446 -1.333007,-3.93067 -10e-7,-1.74478 0.449217,-3.09895 1.347656,-4.0625 0.898434,-0.96353 2.063798,-1.4453 3.496094,-1.44531 1.386711,1e-5 2.519523,0.47202 3.398437,1.41602 0.878896,0.94402 1.318349,2.27214 1.318359,3.98437 -10e-6,0.10417 -0.0033,0.26042 -0.0098,0.46875 l -7.734375,0 c 0.0651,1.13933 0.387367,2.01172 0.966797,2.61719 0.579423,0.60547 1.302078,0.9082 2.167968,0.9082 0.644525,0 1.194655,-0.16927 1.650391,-0.50781 0.455721,-0.33854 0.817049,-0.8789 1.083984,-1.62109 z m -5.771484,-2.8418 5.791016,0 c -0.07813,-0.87239 -0.299488,-1.52668 -0.664063,-1.96289 -0.559903,-0.67707 -1.285814,-1.01562 -2.177734,-1.01563 -0.807297,1e-5 -1.486007,0.2702 -2.036133,0.81055 -0.550133,0.54037 -0.854495,1.26303 -0.913086,2.16797 z"
         style="font-size:20px"
         id="path4065"
         inkscape:connector-curvature="0" />
      <path
         d="m 88.139046,392.20602 c -0.651049,0.55339 -1.277676,0.94401 -1.879883,1.17188 -0.602219,0.22786 -1.248377,0.3418 -1.938477,0.3418 -1.139326,0 -2.014976,-0.27832 -2.626953,-0.83496 -0.61198,-0.55664 -0.917969,-1.26791 -0.917969,-2.13379 0,-0.50781 0.11556,-0.97168 0.34668,-1.39161 0.231119,-0.41991 0.533853,-0.75683 0.908203,-1.01074 0.374347,-0.2539 0.795896,-0.44596 1.264649,-0.57617 0.345048,-0.0911 0.865881,-0.17903 1.5625,-0.26367 1.419264,-0.16927 2.464185,-0.37109 3.134765,-0.60547 0.0065,-0.24088 0.0098,-0.39387 0.0098,-0.45898 -8e-6,-0.71614 -0.166023,-1.2207 -0.498047,-1.51368 -0.449226,-0.39712 -1.116543,-0.59569 -2.001953,-0.5957 -0.826828,1e-5 -1.437179,0.14487 -1.831055,0.43457 -0.393883,0.28972 -0.685224,0.80242 -0.874023,1.53809 l -1.71875,-0.23438 c 0.156249,-0.73567 0.41341,-1.32974 0.771484,-1.78222 0.358071,-0.45247 0.875649,-0.80078 1.552735,-1.04493 0.677079,-0.24413 1.461583,-0.3662 2.353515,-0.36621 0.88541,1e-5 1.604811,0.10418 2.158203,0.3125 0.553377,0.20835 0.960278,0.47039 1.220703,0.78614 0.260408,0.31576 0.442699,0.71452 0.546875,1.19628 0.05859,0.29949 0.08788,0.83986 0.08789,1.6211 l 0,2.34375 c -1e-5,1.63412 0.03742,2.66764 0.112305,3.10058 0.07486,0.43295 0.222971,0.84799 0.444336,1.24512 l -1.835938,0 c -0.1823,-0.36458 -0.299487,-0.79101 -0.351562,-1.2793 z m -0.146485,-3.92578 c -0.638028,0.26042 -1.595058,0.48178 -2.871093,0.66407 -0.722661,0.10417 -1.233728,0.22135 -1.533204,0.35156 -0.299482,0.13021 -0.530601,0.32064 -0.693359,0.57129 -0.162763,0.25065 -0.244143,0.52897 -0.244141,0.83496 -2e-6,0.46875 0.177407,0.85937 0.532227,1.17187 0.354814,0.3125 0.874019,0.46875 1.557617,0.46875 0.677078,0 1.279291,-0.14811 1.806641,-0.44433 0.527337,-0.29623 0.914706,-0.7015 1.162109,-1.21582 0.188794,-0.39714 0.283195,-0.98307 0.283203,-1.75782 z"
         style="font-size:20px"
         id="path4067"
         inkscape:connector-curvature="0" />
      <path
         d="m 99.271858,389.68649 1.728512,0.22461 c -0.18881,1.19141 -0.67221,2.12403 -1.450191,2.79785 -0.778003,0.67383 -1.733406,1.01075 -2.866211,1.01075 -1.419275,0 -2.560225,-0.46387 -3.422852,-1.39161 -0.862631,-0.92773 -1.293946,-2.25748 -1.293945,-3.98925 -10e-7,-1.11979 0.185546,-2.09961 0.55664,-2.93946 0.371092,-0.83983 0.93587,-1.46971 1.694336,-1.88964 0.75846,-0.41992 1.583655,-0.62988 2.475586,-0.62989 1.126296,1e-5 2.047519,0.28484 2.763672,0.85449 0.716135,0.56968 1.175125,1.37859 1.376955,2.42676 l -1.708986,0.26367 c -0.162768,-0.6966 -0.450854,-1.22069 -0.864258,-1.57226 -0.413418,-0.35155 -0.913092,-0.52734 -1.499023,-0.52735 -0.885422,1e-5 -1.604822,0.3174 -2.158204,0.95215 -0.553388,0.63478 -0.83008,1.63901 -0.830078,3.0127 -2e-6,1.39323 0.266925,2.4056 0.800782,3.03711 0.53385,0.63151 1.230464,0.94726 2.089843,0.94726 0.690098,0 1.26627,-0.21158 1.728516,-0.63476 0.462232,-0.42318 0.7552,-1.07422 0.878906,-1.95313 z"
         style="font-size:20px"
         id="path4069"
         inkscape:connector-curvature="0" />
      <path
         d="m 101.84998,388.29977 c 0,-1.92056 0.53386,-3.34309 1.60157,-4.26757 0.89192,-0.76822 1.97916,-1.15234 3.26171,-1.15235 1.42578,1e-5 2.59114,0.46713 3.4961,1.40137 0.90494,0.93425 1.35741,2.22494 1.35742,3.87207 -10e-6,1.33464 -0.20021,2.38444 -0.60059,3.14941 -0.4004,0.76498 -0.98308,1.35905 -1.74804,1.78223 -0.76498,0.42318 -1.59994,0.63477 -2.50489,0.63477 -1.45182,0 -2.62532,-0.4655 -3.5205,-1.39649 -0.89519,-0.93099 -1.34278,-2.27213 -1.34278,-4.02344 z m 1.80664,0 c 0,1.32813 0.28971,2.3226 0.86914,2.9834 0.57943,0.66081 1.30859,0.99121 2.1875,0.99121 0.87239,0 1.5983,-0.33203 2.17774,-0.99609 0.57942,-0.66406 0.86913,-1.67643 0.86914,-3.03711 -1e-5,-1.28255 -0.29135,-2.25422 -0.87402,-2.91504 -0.58269,-0.6608 -1.30698,-0.9912 -2.17286,-0.99121 -0.87891,1e-5 -1.60807,0.32879 -2.1875,0.98633 -0.57943,0.65756 -0.86914,1.6504 -0.86914,2.97851 z"
         style="font-size:20px"
         id="path4071"
         inkscape:connector-curvature="0" />
      <path
         d="m 113.63709,393.48532 0,-10.37109 1.58203,0 0,1.47461 c 0.76172,-1.13932 1.86198,-1.70898 3.30079,-1.70899 0.62499,1e-5 1.19953,0.11232 1.72363,0.33692 0.52408,0.22462 0.91633,0.51921 1.17676,0.88379 0.2604,0.36459 0.44269,0.79753 0.54687,1.29882 0.0651,0.32553 0.0977,0.89519 0.0977,1.70899 l 0,6.37695 -1.75782,0 0,-6.30859 c 0,-0.71614 -0.0684,-1.25162 -0.20507,-1.60645 -0.13673,-0.35481 -0.37924,-0.63801 -0.72754,-0.84961 -0.34832,-0.21158 -0.75684,-0.31737 -1.22559,-0.31738 -0.7487,10e-6 -1.39486,0.23764 -1.93848,0.71289 -0.54362,0.47527 -0.81543,1.37696 -0.81542,2.70508 l 0,5.66406 z"
         style="font-size:20px"
         id="path4073"
         inkscape:connector-curvature="0" />
    </g>
    <g
       style="font-size:40px;font-style:normal;font-weight:normal;line-height:125%;letter-spacing:0px;word-spacing:0px;fill:#000000;fill-opacity:1;stroke:none;font-family:Sans"
       id="text3997">
      <path
         d="m 105.48846,428.27866 0,-14.31641 5.37109,0 c 1.09374,1e-5 1.97102,0.14487 2.63184,0.43457 0.66079,0.28973 1.17837,0.73569 1.55273,1.33789 0.37434,0.60223 0.56151,1.23211 0.56152,1.88965 -10e-6,0.61199 -0.16602,1.18816 -0.49804,1.72851 -0.33204,0.54038 -0.83335,0.97658 -1.50391,1.3086 0.86588,0.25391 1.53157,0.68685 1.99707,1.29883 0.46548,0.61198 0.69823,1.33464 0.69824,2.16797 -1e-5,0.67057 -0.14161,1.29394 -0.4248,1.87011 -0.28322,0.57618 -0.63315,1.02051 -1.04981,1.33301 -0.41667,0.3125 -0.93913,0.5485 -1.56738,0.70801 -0.62826,0.1595 -1.39812,0.23926 -2.30957,0.23926 z m 1.89453,-8.30079 3.0957,0 c 0.83984,1e-5 1.44205,-0.0553 1.80664,-0.16601 0.48176,-0.14322 0.84472,-0.38085 1.08887,-0.71289 0.24413,-0.33202 0.3662,-0.74869 0.36621,-1.25 -1e-5,-0.47525 -0.11394,-0.89354 -0.3418,-1.25488 -0.22787,-0.36132 -0.55339,-0.60872 -0.97656,-0.74219 -0.42318,-0.13345 -1.1491,-0.20018 -2.17773,-0.2002 l -2.86133,0 z m 0,6.61133 3.56445,0 c 0.61197,0 1.04166,-0.0228 1.28906,-0.0684 0.43619,-0.0781 0.80078,-0.20833 1.09375,-0.39062 0.29296,-0.18229 0.53385,-0.44759 0.72266,-0.7959 0.18879,-0.3483 0.28319,-0.75032 0.2832,-1.20605 -1e-5,-0.53385 -0.13673,-0.99772 -0.41015,-1.39161 -0.27345,-0.39387 -0.65268,-0.67056 -1.1377,-0.83007 -0.48503,-0.1595 -1.18327,-0.23926 -2.09473,-0.23926 l -3.31054,0 z"
         style="font-size:20px"
         id="path4076"
         inkscape:connector-curvature="0" />
      <path
         d="m 125.46893,426.99936 c -0.65105,0.55339 -1.27768,0.94401 -1.87989,1.17187 -0.60222,0.22787 -1.24837,0.3418 -1.93847,0.3418 -1.13933,0 -2.01498,-0.27832 -2.62696,-0.83496 -0.61198,-0.55664 -0.91797,-1.2679 -0.91797,-2.13379 0,-0.50781 0.11556,-0.97167 0.34668,-1.3916 0.23112,-0.41992 0.53386,-0.75683 0.90821,-1.01074 0.37434,-0.2539 0.79589,-0.44596 1.26465,-0.57617 0.34504,-0.0911 0.86588,-0.17904 1.5625,-0.26368 1.41926,-0.16926 2.46418,-0.37108 3.13476,-0.60547 0.007,-0.24087 0.01,-0.39387 0.01,-0.45898 -1e-5,-0.71614 -0.16603,-1.22069 -0.49805,-1.51367 -0.44923,-0.39713 -1.11654,-0.5957 -2.00195,-0.5957 -0.82683,0 -1.43718,0.14486 -1.83106,0.43457 -0.39388,0.28972 -0.68522,0.80241 -0.87402,1.53808 l -1.71875,-0.23437 c 0.15625,-0.73567 0.41341,-1.32975 0.77148,-1.78223 0.35807,-0.45246 0.87565,-0.80077 1.55274,-1.04492 0.67708,-0.24413 1.46158,-0.3662 2.35351,-0.36621 0.88541,1e-5 1.60481,0.10417 2.15821,0.3125 0.55337,0.20834 0.96027,0.47038 1.2207,0.78613 0.26041,0.31576 0.4427,0.71453 0.54687,1.19629 0.0586,0.29949 0.0879,0.83985 0.0879,1.62109 l 0,2.34375 c 0,1.63412 0.0374,2.66765 0.11231,3.10059 0.0749,0.43294 0.22297,0.84798 0.44434,1.24512 l -1.83594,0 c -0.1823,-0.36459 -0.29949,-0.79102 -0.35156,-1.2793 z m -0.14649,-3.92578 c -0.63803,0.26042 -1.59506,0.48177 -2.87109,0.66406 -0.72266,0.10417 -1.23373,0.22136 -1.53321,0.35156 -0.29948,0.13022 -0.5306,0.32064 -0.69336,0.57129 -0.16276,0.25066 -0.24414,0.52898 -0.24414,0.83496 0,0.46876 0.17741,0.85938 0.53223,1.17188 0.35482,0.3125 0.87402,0.46875 1.55762,0.46875 0.67708,0 1.27929,-0.14811 1.80664,-0.44434 0.52734,-0.29622 0.9147,-0.70149 1.16211,-1.21582 0.18879,-0.39713 0.28319,-0.98307 0.2832,-1.75781 z"
         style="font-size:20px"
         id="path4078"
         inkscape:connector-curvature="0" />
      <path
         d="m 136.60174,424.47983 1.72851,0.22461 c -0.18881,1.19141 -0.67221,2.12402 -1.45019,2.79785 -0.778,0.67383 -1.73341,1.01074 -2.86621,1.01074 -1.41928,0 -2.56023,-0.46387 -3.42285,-1.3916 -0.86264,-0.92773 -1.29395,-2.25748 -1.29395,-3.98926 0,-1.11978 0.18555,-2.0996 0.55664,-2.93945 0.37109,-0.83984 0.93587,-1.46972 1.69434,-1.88965 0.75846,-0.41991 1.58365,-0.62987 2.47558,-0.62988 1.1263,1e-5 2.04752,0.28484 2.76367,0.85449 0.71614,0.56967 1.17513,1.37859 1.37696,2.42676 l -1.70899,0.26367 c -0.16276,-0.69661 -0.45085,-1.2207 -0.86425,-1.57227 -0.41342,-0.35155 -0.9131,-0.52733 -1.49903,-0.52734 -0.88542,1e-5 -1.60482,0.31739 -2.1582,0.95215 -0.55339,0.63477 -0.83008,1.639 -0.83008,3.01269 0,1.39324 0.26693,2.40561 0.80078,3.03711 0.53385,0.63151 1.23047,0.94727 2.08985,0.94727 0.69009,0 1.26627,-0.21159 1.72851,-0.63477 0.46223,-0.42317 0.7552,-1.07421 0.87891,-1.95312 z"
         style="font-size:20px"
         id="path4080"
         inkscape:connector-curvature="0" />
      <path
         d="m 139.84393,428.27866 0,-14.31641 1.75781,0 0,8.16406 4.16015,-4.21875 2.27539,0 -3.96484,3.84766 4.36524,6.52344 -2.16797,0 -3.42774,-5.30274 -1.24023,1.19141 0,4.11133 z"
         style="font-size:20px"
         id="path4082"
         inkscape:connector-curvature="0" />
      <path
         d="m 154.96111,423.67905 1.78711,-0.15625 c 0.0846,0.71615 0.28157,1.30371 0.59082,1.76269 0.30924,0.45899 0.78939,0.83008 1.44043,1.11328 0.65104,0.28321 1.38346,0.42481 2.19727,0.42481 0.72265,0 1.36067,-0.10742 1.91406,-0.32227 0.55338,-0.21484 0.96516,-0.50944 1.23535,-0.88379 0.27017,-0.37434 0.40527,-0.78287 0.40528,-1.22558 -1e-5,-0.44922 -0.13022,-0.84147 -0.39063,-1.17676 -0.26043,-0.33528 -0.69011,-0.61686 -1.28906,-0.84473 -0.38413,-0.14973 -1.23373,-0.38248 -2.54883,-0.69824 -1.31511,-0.31575 -2.23633,-0.6136 -2.76367,-0.89355 -0.6836,-0.35807 -1.19304,-0.8024 -1.52832,-1.33301 -0.33529,-0.53059 -0.50293,-1.12467 -0.50293,-1.78223 0,-0.72264 0.20507,-1.3981 0.61523,-2.02637 0.41016,-0.62824 1.00911,-1.10513 1.79688,-1.43066 0.78775,-0.32551 1.6634,-0.48827 2.62695,-0.48828 1.06119,10e-6 1.99706,0.17091 2.80762,0.51269 0.81053,0.34182 1.43391,0.84474 1.87011,1.50879 0.43619,0.66408 0.67057,1.41603 0.70313,2.25586 l -1.81641,0.13672 c -0.0977,-0.90494 -0.42807,-1.58853 -0.99121,-2.05078 -0.56316,-0.46223 -1.39486,-0.69335 -2.49511,-0.69336 -1.14584,10e-6 -1.9808,0.20997 -2.50489,0.62988 -0.52409,0.41994 -0.78613,0.92612 -0.78613,1.51856 0,0.51433 0.18554,0.93751 0.55664,1.26953 0.36458,0.33204 1.31673,0.67221 2.85645,1.02051 1.5397,0.34831 2.59602,0.65267 3.16894,0.91308 0.83332,0.38413 1.44856,0.87078 1.8457,1.45996 0.39713,0.5892 0.5957,1.26791 0.59571,2.03614 -1e-5,0.76172 -0.21811,1.47949 -0.6543,2.15332 -0.43621,0.67383 -1.06284,1.19791 -1.87988,1.57226 -0.81707,0.37435 -1.73666,0.56153 -2.75879,0.56153 -1.29558,0 -2.38119,-0.18881 -3.25684,-0.56641 -0.87565,-0.3776 -1.5625,-0.94564 -2.06054,-1.7041 -0.49805,-0.75846 -0.7601,-1.61621 -0.78614,-2.57324 z"
         style="font-size:20px"
         id="path4084"
         inkscape:connector-curvature="0" />
      <path
         d="m 172.5783,426.70639 0.25391,1.55273 c -0.4948,0.10417 -0.93751,0.15625 -1.32813,0.15625 -0.63802,0 -1.13281,-0.10091 -1.48437,-0.30273 -0.35157,-0.20182 -0.59896,-0.46712 -0.74219,-0.7959 -0.14323,-0.32877 -0.21485,-1.0205 -0.21484,-2.07519 l 0,-5.9668 -1.28907,0 0,-1.36719 1.28907,0 0,-2.56836 1.74804,-1.05468 0,3.62304 1.76758,0 0,1.36719 -1.76758,0 0,6.06445 c 0,0.50131 0.0309,0.82357 0.0928,0.9668 0.0618,0.14323 0.16275,0.25716 0.30273,0.3418 0.13997,0.0846 0.34017,0.12695 0.60059,0.12695 0.1953,0 0.45247,-0.0228 0.77148,-0.0684 z"
         style="font-size:20px"
         id="path4086"
         inkscape:connector-curvature="0" />
      <path
         d="m 174.26775,428.27866 0,-10.3711 1.58203,0 0,1.57227 c 0.40365,-0.73567 0.77637,-1.2207 1.11817,-1.45508 0.34179,-0.23436 0.71777,-0.35155 1.12793,-0.35156 0.59244,1e-5 1.19465,0.18881 1.80664,0.5664 l -0.60547,1.63086 c -0.42969,-0.25389 -0.85938,-0.38085 -1.28906,-0.38086 -0.38412,10e-6 -0.72917,0.11557 -1.03516,0.34668 -0.30599,0.23113 -0.52409,0.55177 -0.6543,0.96192 -0.19531,0.625 -0.29297,1.3086 -0.29296,2.05078 l 0,5.42969 z"
         style="font-size:20px"
         id="path4088"
         inkscape:connector-curvature="0" />
      <path
         d="m 187.73455,426.99936 c -0.65105,0.55339 -1.27768,0.94401 -1.87988,1.17187 -0.60222,0.22787 -1.24838,0.3418 -1.93848,0.3418 -1.13932,0 -2.01498,-0.27832 -2.62695,-0.83496 -0.61198,-0.55664 -0.91797,-1.2679 -0.91797,-2.13379 0,-0.50781 0.11556,-0.97167 0.34668,-1.3916 0.23112,-0.41992 0.53385,-0.75683 0.9082,-1.01074 0.37435,-0.2539 0.7959,-0.44596 1.26465,-0.57617 0.34505,-0.0911 0.86588,-0.17904 1.5625,-0.26368 1.41927,-0.16926 2.46419,-0.37108 3.13477,-0.60547 0.007,-0.24087 0.01,-0.39387 0.01,-0.45898 -1e-5,-0.71614 -0.16602,-1.22069 -0.49805,-1.51367 -0.44922,-0.39713 -1.11654,-0.5957 -2.00195,-0.5957 -0.82683,0 -1.43718,0.14486 -1.83105,0.43457 -0.39389,0.28972 -0.68523,0.80241 -0.87403,1.53808 l -1.71875,-0.23437 c 0.15625,-0.73567 0.41341,-1.32975 0.77149,-1.78223 0.35807,-0.45246 0.87565,-0.80077 1.55273,-1.04492 0.67708,-0.24413 1.46159,-0.3662 2.35352,-0.36621 0.88541,1e-5 1.60481,0.10417 2.1582,0.3125 0.55338,0.20834 0.96028,0.47038 1.2207,0.78613 0.26041,0.31576 0.4427,0.71453 0.54688,1.19629 0.0586,0.29949 0.0879,0.83985 0.0879,1.62109 l 0,2.34375 c -1e-5,1.63412 0.0374,2.66765 0.1123,3.10059 0.0749,0.43294 0.22298,0.84798 0.44434,1.24512 l -1.83594,0 c -0.1823,-0.36459 -0.29948,-0.79102 -0.35156,-1.2793 z m -0.14648,-3.92578 c -0.63803,0.26042 -1.59506,0.48177 -2.8711,0.66406 -0.72266,0.10417 -1.23373,0.22136 -1.5332,0.35156 -0.29948,0.13022 -0.5306,0.32064 -0.69336,0.57129 -0.16276,0.25066 -0.24414,0.52898 -0.24414,0.83496 0,0.46876 0.17741,0.85938 0.53223,1.17188 0.35481,0.3125 0.87402,0.46875 1.55761,0.46875 0.67708,0 1.27929,-0.14811 1.80664,-0.44434 0.52734,-0.29622 0.91471,-0.70149 1.16211,-1.21582 0.1888,-0.39713 0.2832,-0.98307 0.28321,-1.75781 z"
         style="font-size:20px"
         id="path4090"
         inkscape:connector-curvature="0" />
      <path
         d="m 192.10955,415.98373 0,-2.02148 1.75781,0 0,2.02148 z m 0,12.29493 0,-10.3711 1.75781,0 0,10.3711 z"
         style="font-size:20px"
         id="path4092"
         inkscape:connector-curvature="0" />
      <path
         d="m 196.23064,429.13803 1.70899,0.25391 c 0.0716,0.52734 0.27018,0.91145 0.5957,1.15234 0.4362,0.32552 1.0319,0.48828 1.78711,0.48828 0.8138,0 1.44205,-0.16276 1.88477,-0.48828 0.4427,-0.32552 0.74218,-0.78125 0.89843,-1.36719 0.0911,-0.35807 0.13346,-1.11002 0.12696,-2.25586 -0.76824,0.90495 -1.72527,1.35743 -2.8711,1.35743 -1.42578,0 -2.5293,-0.51433 -3.31054,-1.54297 -0.78125,-1.02865 -1.17188,-2.26237 -1.17188,-3.70117 0,-0.98958 0.17904,-1.90267 0.53711,-2.73926 0.35807,-0.83658 0.87728,-1.48274 1.55762,-1.93848 0.68033,-0.45572 1.47949,-0.68358 2.39746,-0.68359 1.22395,1e-5 2.23306,0.4948 3.02734,1.48437 l 0,-1.25 1.6211,0 0,8.96485 c -1e-5,1.61458 -0.1644,2.75878 -0.49317,3.43261 -0.32878,0.67383 -0.84962,1.20605 -1.5625,1.59668 -0.71289,0.39062 -1.59017,0.58594 -2.63183,0.58594 -1.23699,0 -2.23633,-0.27832 -2.99805,-0.83496 -0.76172,-0.55664 -1.12956,-1.39486 -1.10352,-2.51465 z m 1.45508,-6.23047 c 0,1.36068 0.27018,2.35352 0.81055,2.97852 0.54036,0.625 1.21744,0.9375 2.03125,0.9375 0.80728,0 1.48437,-0.31087 2.03125,-0.93262 0.54687,-0.62174 0.8203,-1.59668 0.82031,-2.9248 -10e-6,-1.26953 -0.28158,-2.22656 -0.84472,-2.8711 -0.56316,-0.64452 -1.24187,-0.96679 -2.03614,-0.96679 -0.78125,0 -1.44531,0.31739 -1.99219,0.95214 -0.54687,0.63478 -0.82031,1.57716 -0.82031,2.82715 z"
         style="font-size:20px"
         id="path4094"
         inkscape:connector-curvature="0" />
      <path
         d="m 207.68572,428.27866 0,-14.31641 1.75781,0 0,5.13672 c 0.82031,-0.95051 1.85547,-1.42577 3.10547,-1.42578 0.76823,1e-5 1.43554,0.15137 2.00196,0.4541 0.56639,0.30274 0.97167,0.72104 1.21582,1.25488 0.24413,0.53386 0.3662,1.3086 0.36621,2.32422 l 0,6.57227 -1.75781,0 0,-6.57227 c -1e-5,-0.8789 -0.19044,-1.51855 -0.57129,-1.91894 -0.38087,-0.40039 -0.91961,-0.60058 -1.61621,-0.60059 -0.52084,10e-6 -1.01075,0.1351 -1.46973,0.40527 -0.45899,0.27019 -0.78614,0.6364 -0.98145,1.09864 -0.19531,0.46224 -0.29297,1.10026 -0.29297,1.91406 l 0,5.67383 z"
         style="font-size:20px"
         id="path4096"
         inkscape:connector-curvature="0" />
      <path
         d="m 222.65643,426.70639 0.2539,1.55273 c -0.49479,0.10417 -0.9375,0.15625 -1.32812,0.15625 -0.63803,0 -1.13282,-0.10091 -1.48438,-0.30273 -0.35156,-0.20182 -0.59896,-0.46712 -0.74219,-0.7959 -0.14323,-0.32877 -0.21484,-1.0205 -0.21484,-2.07519 l 0,-5.9668 -1.28906,0 0,-1.36719 1.28906,0 0,-2.56836 1.74805,-1.05468 0,3.62304 1.76758,0 0,1.36719 -1.76758,0 0,6.06445 c -1e-5,0.50131 0.0309,0.82357 0.0928,0.9668 0.0619,0.14323 0.16276,0.25716 0.30274,0.3418 0.13997,0.0846 0.34016,0.12695 0.60058,0.12695 0.19531,0 0.45247,-0.0228 0.77149,-0.0684 z"
         style="font-size:20px"
         id="path4098"
         inkscape:connector-curvature="0" />
    </g>
    <g
       style="font-size:40px;font-style:normal;font-weight:normal;line-height:125%;letter-spacing:0px;word-spacing:0px;fill:#000000;fill-opacity:1;stroke:none;font-family:Sans"
       id="text4001">
      <path
         d="m 294.83075,357.009 1.78711,-0.15625 c 0.0846,0.71615 0.28157,1.30372 0.59082,1.7627 0.30924,0.45898 0.78938,0.83008 1.44043,1.11328 0.65104,0.2832 1.38346,0.42481 2.19726,0.4248 0.72265,1e-5 1.36067,-0.10742 1.91407,-0.32226 0.55337,-0.21484 0.96516,-0.50944 1.23535,-0.88379 0.27017,-0.37435 0.40526,-0.78287 0.40527,-1.22559 -10e-6,-0.44921 -0.13022,-0.84146 -0.39062,-1.17675 -0.26043,-0.33529 -0.69012,-0.61686 -1.28907,-0.84473 -0.38412,-0.14973 -1.23373,-0.38248 -2.54882,-0.69824 -1.31511,-0.31575 -2.23634,-0.6136 -2.76368,-0.89356 -0.68359,-0.35806 -1.19303,-0.8024 -1.52832,-1.33301 -0.33528,-0.53059 -0.50293,-1.12466 -0.50293,-1.78222 0,-0.72265 0.20508,-1.3981 0.61524,-2.02637 0.41015,-0.62824 1.00911,-1.10513 1.79687,-1.43066 0.78776,-0.32551 1.66341,-0.48827 2.62696,-0.48828 1.06119,1e-5 1.99706,0.17091 2.80761,0.51269 0.81054,0.34181 1.43391,0.84474 1.87012,1.50879 0.43619,0.66407 0.67056,1.41603 0.70313,2.25586 l -1.81641,0.13672 c -0.0977,-0.90494 -0.42807,-1.58853 -0.99121,-2.05078 -0.56316,-0.46223 -1.39487,-0.69335 -2.49512,-0.69336 -1.14584,1e-5 -1.9808,0.20997 -2.50488,0.62988 -0.52409,0.41993 -0.78614,0.92612 -0.78613,1.51855 -10e-6,0.51434 0.18554,0.93751 0.55664,1.26954 0.36458,0.33204 1.31672,0.67221 2.85644,1.0205 1.53971,0.34832 2.59602,0.65268 3.16895,0.91309 0.83332,0.38412 1.44855,0.87077 1.8457,1.45996 0.39712,0.5892 0.59569,1.26791 0.5957,2.03613 -1e-5,0.76173 -0.21811,1.4795 -0.65429,2.15332 -0.43621,0.67383 -1.06284,1.19792 -1.87989,1.57227 -0.81706,0.37435 -1.73666,0.56152 -2.75878,0.56152 -1.29558,0 -2.38119,-0.1888 -3.25684,-0.5664 -0.87565,-0.37761 -1.5625,-0.94564 -2.06055,-1.70411 -0.49805,-0.75846 -0.76009,-1.6162 -0.78613,-2.57324 z"
         style="font-size:20px"
         id="path4101"
         inkscape:connector-curvature="0" />
      <path
         d="m 310.52411,361.60861 -3.17383,-10.37109 1.81641,0 1.65039,5.98633 0.61523,2.22656 c 0.026,-0.11068 0.20508,-0.82357 0.53711,-2.13867 l 1.65039,-6.07422 1.80664,0 1.55274,6.01562 0.51758,1.98243 0.5957,-2.00196 1.77734,-5.99609 1.70899,0 -3.24219,10.37109 -1.82617,0 -1.65039,-6.21094 -0.40039,-1.76757 -2.09961,7.97851 z"
         style="font-size:20px"
         id="path4103"
         inkscape:connector-curvature="0" />
      <path
         d="m 330.16278,358.26877 1.81641,0.22461 c -0.28647,1.0612 -0.81707,1.88476 -1.5918,2.4707 -0.77475,0.58594 -1.76433,0.87891 -2.96875,0.87891 -1.51693,0 -2.71973,-0.46713 -3.6084,-1.40137 -0.88867,-0.93424 -1.33301,-2.24446 -1.33301,-3.93066 0,-1.74479 0.44922,-3.09895 1.34766,-4.0625 0.89843,-0.96354 2.0638,-1.44531 3.49609,-1.44532 1.38672,1e-5 2.51953,0.47202 3.39844,1.41602 0.8789,0.94402 1.31835,2.27214 1.31836,3.98437 -10e-6,0.10418 -0.003,0.26043 -0.01,0.46875 l -7.73438,0 c 0.0651,1.13933 0.38737,2.01173 0.9668,2.61719 0.57942,0.60547 1.30208,0.90821 2.16797,0.9082 0.64452,10e-6 1.19465,-0.16926 1.65039,-0.50781 0.45572,-0.33854 0.81705,-0.8789 1.08398,-1.62109 z m -5.77148,-2.8418 5.79101,0 c -0.0781,-0.87239 -0.29949,-1.52668 -0.66406,-1.96289 -0.5599,-0.67707 -1.28581,-1.01562 -2.17773,-1.01562 -0.8073,0 -1.48601,0.27019 -2.03614,0.81054 -0.55013,0.54038 -0.85449,1.26303 -0.91308,2.16797 z"
         style="font-size:20px"
         id="path4105"
         inkscape:connector-curvature="0" />
      <path
         d="m 341.29559,358.26877 1.81641,0.22461 c -0.28647,1.0612 -0.81707,1.88476 -1.5918,2.4707 -0.77474,0.58594 -1.76433,0.87891 -2.96875,0.87891 -1.51693,0 -2.71973,-0.46713 -3.6084,-1.40137 -0.88867,-0.93424 -1.333,-2.24446 -1.333,-3.93066 0,-1.74479 0.44921,-3.09895 1.34765,-4.0625 0.89844,-0.96354 2.0638,-1.44531 3.4961,-1.44532 1.38671,1e-5 2.51952,0.47202 3.39843,1.41602 0.8789,0.94402 1.31835,2.27214 1.31836,3.98437 -1e-5,0.10418 -0.003,0.26043 -0.01,0.46875 l -7.73438,0 c 0.0651,1.13933 0.38737,2.01173 0.9668,2.61719 0.57942,0.60547 1.30208,0.90821 2.16797,0.9082 0.64452,10e-6 1.19465,-0.16926 1.65039,-0.50781 0.45572,-0.33854 0.81705,-0.8789 1.08398,-1.62109 z m -5.77148,-2.8418 5.79101,0 c -0.0781,-0.87239 -0.29948,-1.52668 -0.66406,-1.96289 -0.5599,-0.67707 -1.28581,-1.01562 -2.17773,-1.01562 -0.8073,0 -1.48601,0.27019 -2.03614,0.81054 -0.55013,0.54038 -0.85449,1.26303 -0.91308,2.16797 z"
         style="font-size:20px"
         id="path4107"
         inkscape:connector-curvature="0" />
      <path
         d="m 345.3288,365.58322 0,-14.3457 1.60156,0 0,1.34765 c 0.3776,-0.52733 0.80403,-0.92284 1.2793,-1.18652 0.47525,-0.26366 1.05142,-0.3955 1.72851,-0.39551 0.88541,1e-5 1.66666,0.22788 2.34375,0.6836 0.67708,0.45574 1.18814,1.09864 1.5332,1.92871 0.34505,0.83008 0.51757,1.73991 0.51758,2.72949 -10e-6,1.0612 -0.19044,2.0166 -0.57129,2.86621 -0.38087,0.84961 -0.93425,1.50065 -1.66015,1.95313 -0.72592,0.45247 -1.48927,0.67871 -2.29004,0.67871 -0.58594,0 -1.11166,-0.1237 -1.57715,-0.3711 -0.4655,-0.24739 -0.84799,-0.55989 -1.14746,-0.9375 l 0,5.04883 z m 1.59179,-9.10156 c 0,1.33464 0.27018,2.32097 0.81055,2.95898 0.54036,0.63803 1.19466,0.95704 1.96289,0.95703 0.78124,10e-6 1.45019,-0.3304 2.00684,-0.99121 0.55663,-0.6608 0.83495,-1.68456 0.83496,-3.07129 -10e-6,-1.3216 -0.27182,-2.31119 -0.81543,-2.96875 -0.54363,-0.65754 -1.19304,-0.98631 -1.94824,-0.98632 -0.74871,10e-6 -1.41114,0.34994 -1.98731,1.0498 -0.57617,0.69988 -0.86426,1.71713 -0.86426,3.05176 z"
         style="font-size:20px"
         id="path4109"
         inkscape:connector-curvature="0" />
    </g>
    <g
       style="font-size:40px;font-style:normal;font-weight:normal;line-height:125%;letter-spacing:0px;word-spacing:0px;fill:#000000;fill-opacity:1;stroke:none;font-family:Sans"
       id="text4005">
      <path
         d="m 251.14186,261.63474 1.89453,0.47851 c -0.39715,1.55599 -1.11166,2.74252 -2.14355,3.55957 -1.03191,0.81706 -2.29331,1.22559 -3.78418,1.22559 -1.54298,0 -2.79786,-0.31413 -3.76465,-0.94239 -0.9668,-0.62825 -1.70248,-1.53808 -2.20703,-2.72949 -0.50456,-1.1914 -0.75684,-2.4707 -0.75684,-3.83789 0,-1.49088 0.28483,-2.79133 0.85449,-3.90137 0.56966,-1.11001 1.38021,-1.95311 2.43165,-2.52929 1.05142,-0.57616 2.20865,-0.86425 3.47167,-0.86426 1.43229,1e-5 2.63671,0.3646 3.61329,1.09375 0.97655,0.72918 1.65688,1.75457 2.04101,3.07617 l -1.86523,0.43945 c -0.33205,-1.04165 -0.81382,-1.80011 -1.44532,-2.27539 -0.63152,-0.47524 -1.42579,-0.71287 -2.38281,-0.71289 -1.10026,2e-5 -2.01986,0.26369 -2.75879,0.79102 -0.73893,0.52735 -1.25814,1.23536 -1.55761,2.12402 -0.29949,0.88868 -0.44923,1.80502 -0.44922,2.74903 -1e-5,1.21745 0.1774,2.28027 0.53222,3.18847 0.35482,0.90821 0.90657,1.58692 1.65528,2.03614 0.74869,0.44922 1.55924,0.67382 2.43164,0.67382 1.06119,0 1.95962,-0.30598 2.69531,-0.91797 0.73567,-0.61197 1.23371,-1.52017 1.49414,-2.7246 z"
         style="font-size:20px"
         id="path4112"
         inkscape:connector-curvature="0" />
      <path
         d="m 254.50124,261.46872 c 0,-1.92057 0.53385,-3.34309 1.60156,-4.26758 0.89192,-0.76822 1.97916,-1.15233 3.26172,-1.15234 1.42577,10e-6 2.59113,0.46713 3.49609,1.40136 0.90494,0.93426 1.35741,2.22495 1.35742,3.87208 -10e-6,1.33463 -0.2002,2.38444 -0.60058,3.14941 -0.4004,0.76497 -0.98308,1.35905 -1.74805,1.78223 -0.76498,0.42317 -1.59994,0.63476 -2.50488,0.63476 -1.45183,0 -2.62533,-0.46549 -3.52051,-1.39648 -0.89518,-0.93099 -1.34277,-2.27213 -1.34277,-4.02344 z m 1.80664,0 c -1e-5,1.32813 0.28971,2.32259 0.86914,2.9834 0.57942,0.66081 1.30859,0.99121 2.1875,0.99121 0.87239,0 1.5983,-0.33203 2.17773,-0.99609 0.57942,-0.66406 0.86913,-1.67643 0.86914,-3.03711 -10e-6,-1.28255 -0.29135,-2.25423 -0.87402,-2.91504 -0.58269,-0.6608 -1.30697,-0.99121 -2.17285,-0.99121 -0.87891,0 -1.60808,0.32878 -2.1875,0.98632 -0.57943,0.65756 -0.86915,1.6504 -0.86914,2.97852 z"
         style="font-size:20px"
         id="path4114"
         inkscape:connector-curvature="0" />
      <path
         d="m 265.11647,266.65427 3.78906,-5.39063 -3.50586,-4.98047 2.19727,0 1.5918,2.43164 c 0.29947,0.46225 0.54036,0.84962 0.72265,1.16211 0.28646,-0.42968 0.55013,-0.81054 0.79102,-1.14258 l 1.74804,-2.45117 2.09961,0 -3.58398,4.88282 3.85742,5.48828 -2.1582,0 -2.12891,-3.22266 -0.5664,-0.86914 -2.72461,4.0918 z"
         style="font-size:20px"
         id="path4116"
         inkscape:connector-curvature="0" />
    </g>
    <g
       style="font-size:40px;font-style:normal;font-weight:normal;line-height:125%;letter-spacing:0px;word-spacing:0px;fill:#000000;fill-opacity:1;stroke:none;font-family:Sans"
       id="text4009">
      <path
         d="m 86.315079,222.20755 0,-14.31641 2.851562,0 3.388672,10.13672 c 0.312492,0.94402 0.540356,1.6504 0.683594,2.11914 0.162752,-0.52083 0.416658,-1.2858 0.761719,-2.29492 l 3.427734,-9.96094 2.548828,0 0,14.31641 -1.826172,0 0,-11.98242 -4.160156,11.98242 -1.708984,0 -4.140625,-12.1875 0,12.1875 z"
         style="font-size:20px"
         id="path4119"
         inkscape:connector-curvature="0" />
      <path
         d="m 109.59633,220.92825 c -0.65105,0.55339 -1.27768,0.94401 -1.87988,1.17188 -0.60222,0.22786 -1.24838,0.34179 -1.93848,0.3418 -1.13933,-1e-5 -2.01498,-0.27833 -2.62695,-0.83497 -0.61198,-0.55664 -0.91797,-1.2679 -0.91797,-2.13378 0,-0.50781 0.11556,-0.97168 0.34668,-1.39161 0.23112,-0.41991 0.53385,-0.75683 0.9082,-1.01074 0.37435,-0.2539 0.7959,-0.44596 1.26465,-0.57617 0.34505,-0.0911 0.86588,-0.17903 1.5625,-0.26367 1.41926,-0.16927 2.46418,-0.37109 3.13476,-0.60547 0.007,-0.24088 0.01,-0.39387 0.01,-0.45899 -1e-5,-0.71613 -0.16602,-1.22069 -0.49805,-1.51367 -0.44922,-0.39712 -1.11654,-0.59569 -2.00195,-0.5957 -0.82683,1e-5 -1.43718,0.14487 -1.83105,0.43457 -0.39389,0.28972 -0.68523,0.80242 -0.87403,1.53809 l -1.71875,-0.23438 c 0.15625,-0.73567 0.41341,-1.32974 0.77149,-1.78223 0.35807,-0.45246 0.87564,-0.80077 1.55273,-1.04492 0.67708,-0.24413 1.46158,-0.3662 2.35352,-0.36621 0.88541,1e-5 1.60481,0.10418 2.1582,0.3125 0.55338,0.20834 0.96028,0.47039 1.2207,0.78613 0.26041,0.31577 0.4427,0.71453 0.54688,1.19629 0.0586,0.29949 0.0879,0.83985 0.0879,1.6211 l 0,2.34375 c -1e-5,1.63411 0.0374,2.66764 0.1123,3.10058 0.0749,0.43295 0.22297,0.84799 0.44434,1.24512 l -1.83594,0 c -0.1823,-0.36458 -0.29949,-0.79101 -0.35156,-1.2793 z m -0.14649,-3.92578 c -0.63802,0.26042 -1.59505,0.48178 -2.87109,0.66406 -0.72266,0.10418 -1.23373,0.22136 -1.5332,0.35157 -0.29948,0.13021 -0.5306,0.32064 -0.69336,0.57129 -0.16276,0.25065 -0.24415,0.52897 -0.24414,0.83496 -1e-5,0.46875 0.1774,0.85937 0.53222,1.17187 0.35482,0.3125 0.87402,0.46875 1.55762,0.46875 0.67708,0 1.27929,-0.14811 1.80664,-0.44433 0.52734,-0.29623 0.91471,-0.7015 1.16211,-1.21582 0.1888,-0.39714 0.2832,-0.98307 0.2832,-1.75782 z"
         style="font-size:20px"
         id="path4121"
         inkscape:connector-curvature="0" />
      <path
         d="m 113.97133,209.91263 0,-2.02149 1.75781,0 0,2.02149 z m 0,12.29492 0,-10.37109 1.75781,0 0,10.37109 z"
         style="font-size:20px"
         id="path4123"
         inkscape:connector-curvature="0" />
      <path
         d="m 118.41469,222.20755 0,-10.37109 1.58203,0 0,1.47461 c 0.76171,-1.13932 1.86197,-1.70898 3.30078,-1.70899 0.62499,1e-5 1.19954,0.11232 1.72363,0.33692 0.52408,0.22461 0.91634,0.51921 1.17676,0.88378 0.26041,0.3646 0.4427,0.79754 0.54688,1.29883 0.0651,0.32553 0.0976,0.89519 0.0977,1.70899 l 0,6.37695 -1.75781,0 0,-6.30859 c -1e-5,-0.71614 -0.0684,-1.25162 -0.20508,-1.60645 -0.13672,-0.35481 -0.37924,-0.63801 -0.72754,-0.84961 -0.34831,-0.21158 -0.75684,-0.31737 -1.22558,-0.31738 -0.74871,1e-5 -1.39486,0.23764 -1.93848,0.71289 -0.54362,0.47527 -0.81543,1.37696 -0.81543,2.70508 l 0,5.66406 z"
         style="font-size:20px"
         id="path4125"
         inkscape:connector-curvature="0" />
      <path
         d="m 134.67445,217.60794 1.78711,-0.15625 c 0.0846,0.71615 0.28158,1.30372 0.59082,1.7627 0.30924,0.45898 0.78939,0.83008 1.44043,1.11328 0.65104,0.2832 1.38346,0.4248 2.19727,0.4248 0.72265,0 1.36067,-0.10742 1.91406,-0.32226 0.55338,-0.21485 0.96516,-0.50944 1.23535,-0.88379 0.27017,-0.37435 0.40527,-0.78288 0.40528,-1.22559 -10e-6,-0.44921 -0.13022,-0.84147 -0.39063,-1.17676 -0.26043,-0.33528 -0.69011,-0.61685 -1.28906,-0.84472 -0.38412,-0.14974 -1.23373,-0.38248 -2.54883,-0.69825 -1.31511,-0.31574 -2.23633,-0.61359 -2.76367,-0.89355 -0.6836,-0.35807 -1.19304,-0.8024 -1.52832,-1.33301 -0.33529,-0.53059 -0.50293,-1.12466 -0.50293,-1.78222 0,-0.72265 0.20508,-1.3981 0.61523,-2.02637 0.41016,-0.62824 1.00911,-1.10513 1.79688,-1.43067 0.78775,-0.3255 1.6634,-0.48826 2.62695,-0.48828 1.06119,2e-5 1.99706,0.17092 2.80762,0.5127 0.81054,0.34181 1.43391,0.84474 1.87012,1.50879 0.43618,0.66407 0.67056,1.41602 0.70312,2.25586 l -1.81641,0.13672 c -0.0977,-0.90494 -0.42807,-1.58853 -0.99121,-2.05079 -0.56316,-0.46222 -1.39486,-0.69334 -2.49511,-0.69335 -1.14584,10e-6 -1.9808,0.20997 -2.50489,0.62988 -0.52409,0.41993 -0.78613,0.92612 -0.78613,1.51855 0,0.51434 0.18554,0.93751 0.55664,1.26953 0.36458,0.33204 1.31673,0.67221 2.85645,1.02051 1.5397,0.34832 2.59602,0.65268 3.16894,0.91309 0.83332,0.38412 1.44856,0.87077 1.8457,1.45996 0.39713,0.5892 0.5957,1.26791 0.59571,2.03613 -1e-5,0.76172 -0.21811,1.4795 -0.6543,2.15332 -0.43621,0.67383 -1.06283,1.19792 -1.87988,1.57227 -0.81707,0.37435 -1.73666,0.56152 -2.75879,0.56152 -1.29558,0 -2.38119,-0.1888 -3.25684,-0.56641 -0.87565,-0.3776 -1.5625,-0.94563 -2.06054,-1.7041 -0.49805,-0.75846 -0.7601,-1.6162 -0.78614,-2.57324 z"
         style="font-size:20px"
         id="path4127"
         inkscape:connector-curvature="0" />
      <path
         d="m 152.29164,220.63528 0.25391,1.55274 c -0.4948,0.10417 -0.93751,0.15625 -1.32813,0.15625 -0.63802,0 -1.13281,-0.10091 -1.48437,-0.30274 -0.35157,-0.20182 -0.59896,-0.46712 -0.74219,-0.79589 -0.14323,-0.32878 -0.21485,-1.02051 -0.21484,-2.0752 l 0,-5.9668 -1.28907,0 0,-1.36718 1.28907,0 0,-2.56836 1.74804,-1.05469 0,3.62305 1.76758,0 0,1.36718 -1.76758,0 0,6.06446 c 0,0.5013 0.0309,0.82357 0.0928,0.96679 0.0618,0.14323 0.16275,0.25717 0.30273,0.3418 0.13997,0.0846 0.34017,0.12696 0.60059,0.12695 0.1953,1e-5 0.45247,-0.0228 0.77148,-0.0684 z"
         style="font-size:20px"
         id="path4129"
         inkscape:connector-curvature="0" />
      <path
         d="m 153.98109,222.20755 0,-10.37109 1.58204,0 0,1.57226 c 0.40364,-0.73567 0.77636,-1.22069 1.11816,-1.45508 0.34179,-0.23436 0.71777,-0.35155 1.12793,-0.35156 0.59244,1e-5 1.19465,0.18881 1.80664,0.56641 l -0.60547,1.63086 c -0.42969,-0.2539 -0.85938,-0.38085 -1.28906,-0.38086 -0.38412,1e-5 -0.72917,0.11557 -1.03516,0.34668 -0.30599,0.23113 -0.52409,0.55176 -0.65429,0.96191 -0.19532,0.62501 -0.29298,1.3086 -0.29297,2.05078 l 0,5.42969 z"
         style="font-size:20px"
         id="path4131"
         inkscape:connector-curvature="0" />
      <path
         d="m 167.44789,220.92825 c -0.65105,0.55339 -1.27767,0.94401 -1.87988,1.17188 -0.60222,0.22786 -1.24838,0.34179 -1.93848,0.3418 -1.13932,-1e-5 -2.01497,-0.27833 -2.62695,-0.83497 -0.61198,-0.55664 -0.91797,-1.2679 -0.91797,-2.13378 0,-0.50781 0.11556,-0.97168 0.34668,-1.39161 0.23112,-0.41991 0.53385,-0.75683 0.9082,-1.01074 0.37435,-0.2539 0.7959,-0.44596 1.26465,-0.57617 0.34505,-0.0911 0.86588,-0.17903 1.5625,-0.26367 1.41927,-0.16927 2.46419,-0.37109 3.13477,-0.60547 0.006,-0.24088 0.01,-0.39387 0.01,-0.45899 -1e-5,-0.71613 -0.16602,-1.22069 -0.49804,-1.51367 -0.44923,-0.39712 -1.11655,-0.59569 -2.00196,-0.5957 -0.82683,1e-5 -1.43718,0.14487 -1.83105,0.43457 -0.39389,0.28972 -0.68523,0.80242 -0.87403,1.53809 l -1.71875,-0.23438 c 0.15625,-0.73567 0.41341,-1.32974 0.77149,-1.78223 0.35807,-0.45246 0.87565,-0.80077 1.55273,-1.04492 0.67708,-0.24413 1.46159,-0.3662 2.35352,-0.36621 0.88541,1e-5 1.60481,0.10418 2.1582,0.3125 0.55338,0.20834 0.96028,0.47039 1.2207,0.78613 0.26041,0.31577 0.4427,0.71453 0.54688,1.19629 0.0586,0.29949 0.0879,0.83985 0.0879,1.6211 l 0,2.34375 c -1e-5,1.63411 0.0374,2.66764 0.11231,3.10058 0.0749,0.43295 0.22297,0.84799 0.44433,1.24512 l -1.83594,0 c -0.1823,-0.36458 -0.29948,-0.79101 -0.35156,-1.2793 z m -0.14648,-3.92578 c -0.63803,0.26042 -1.59506,0.48178 -2.8711,0.66406 -0.72266,0.10418 -1.23372,0.22136 -1.5332,0.35157 -0.29948,0.13021 -0.5306,0.32064 -0.69336,0.57129 -0.16276,0.25065 -0.24414,0.52897 -0.24414,0.83496 0,0.46875 0.17741,0.85937 0.53223,1.17187 0.35481,0.3125 0.87402,0.46875 1.55761,0.46875 0.67708,0 1.27929,-0.14811 1.80664,-0.44433 0.52734,-0.29623 0.91471,-0.7015 1.16211,-1.21582 0.1888,-0.39714 0.2832,-0.98307 0.28321,-1.75782 z"
         style="font-size:20px"
         id="path4133"
         inkscape:connector-curvature="0" />
      <path
         d="m 171.82289,209.91263 0,-2.02149 1.75781,0 0,2.02149 z m 0,12.29492 0,-10.37109 1.75781,0 0,10.37109 z"
         style="font-size:20px"
         id="path4135"
         inkscape:connector-curvature="0" />
      <path
         d="m 175.94398,223.06693 1.70899,0.2539 c 0.0716,0.52734 0.27018,0.91146 0.5957,1.15235 0.4362,0.32551 1.0319,0.48827 1.78711,0.48828 0.8138,-10e-6 1.44205,-0.16277 1.88477,-0.48828 0.4427,-0.32553 0.74218,-0.78126 0.89843,-1.36719 0.0911,-0.35808 0.13346,-1.11003 0.12696,-2.25586 -0.76824,0.90495 -1.72527,1.35742 -2.8711,1.35742 -1.42578,0 -2.5293,-0.51432 -3.31054,-1.54297 -0.78125,-1.02864 -1.17188,-2.26236 -1.17188,-3.70117 0,-0.98958 0.17904,-1.90266 0.53711,-2.73926 0.35807,-0.83658 0.87728,-1.48274 1.55762,-1.93847 0.68033,-0.45572 1.47949,-0.68359 2.39746,-0.6836 1.22395,1e-5 2.23307,0.4948 3.02734,1.48438 l 0,-1.25 1.6211,0 0,8.96484 c -1e-5,1.61458 -0.1644,2.75879 -0.49317,3.43262 -0.32878,0.67382 -0.84961,1.20605 -1.5625,1.59668 -0.71289,0.39062 -1.59017,0.58593 -2.63183,0.58593 -1.23699,0 -2.23633,-0.27832 -2.99805,-0.83496 -0.76172,-0.55664 -1.12956,-1.39486 -1.10352,-2.51464 z m 1.45508,-6.23047 c 0,1.36068 0.27018,2.35351 0.81055,2.97851 0.54036,0.625 1.21744,0.9375 2.03125,0.9375 0.80729,0 1.48437,-0.31087 2.03125,-0.93262 0.54687,-0.62174 0.8203,-1.59667 0.82031,-2.9248 -1e-5,-1.26952 -0.28158,-2.22655 -0.84472,-2.87109 -0.56316,-0.64453 -1.24187,-0.96679 -2.03614,-0.9668 -0.78125,1e-5 -1.44531,0.31739 -1.99218,0.95215 -0.54688,0.63477 -0.82032,1.57715 -0.82032,2.82715 z"
         style="font-size:20px"
         id="path4137"
         inkscape:connector-curvature="0" />
      <path
         d="m 187.39906,222.20755 0,-14.31641 1.75782,0 0,5.13672 c 0.8203,-0.95051 1.85546,-1.42577 3.10546,-1.42578 0.76823,1e-5 1.43554,0.15138 2.00196,0.4541 0.56639,0.30275 0.97167,0.72104 1.21582,1.25489 0.24413,0.53386 0.3662,1.3086 0.36621,2.32421 l 0,6.57227 -1.75781,0 0,-6.57227 c -10e-6,-0.87889 -0.19044,-1.51854 -0.57129,-1.91894 -0.38087,-0.40038 -0.91961,-0.60058 -1.61621,-0.60059 -0.52084,1e-5 -1.01075,0.1351 -1.46973,0.40528 -0.45899,0.27019 -0.78614,0.6364 -0.98145,1.09863 -0.19531,0.46225 -0.29297,1.10027 -0.29296,1.91406 l 0,5.67383 z"
         style="font-size:20px"
         id="path4139"
         inkscape:connector-curvature="0" />
      <path
         d="m 202.36977,220.63528 0.2539,1.55274 c -0.49479,0.10417 -0.9375,0.15625 -1.32812,0.15625 -0.63803,0 -1.13282,-0.10091 -1.48438,-0.30274 -0.35156,-0.20182 -0.59896,-0.46712 -0.74219,-0.79589 -0.14323,-0.32878 -0.21484,-1.02051 -0.21484,-2.0752 l 0,-5.9668 -1.28906,0 0,-1.36718 1.28906,0 0,-2.56836 1.74805,-1.05469 0,3.62305 1.76758,0 0,1.36718 -1.76758,0 0,6.06446 c -1e-5,0.5013 0.0309,0.82357 0.0928,0.96679 0.0618,0.14323 0.16276,0.25717 0.30274,0.3418 0.13997,0.0846 0.34016,0.12696 0.60058,0.12695 0.19531,1e-5 0.45247,-0.0228 0.77149,-0.0684 z"
         style="font-size:20px"
         id="path4141"
         inkscape:connector-curvature="0" />
    </g>
    <g
       style="font-size:40px;font-style:normal;font-weight:normal;line-height:125%;letter-spacing:0px;word-spacing:0px;fill:#000000;fill-opacity:1;stroke:none;font-family:Sans"
       id="text4013">
      <path
         d="m 333.86105,132.30399 0,-14.31641 5.40039,0 c 0.95052,1e-5 1.67643,0.0456 2.17774,0.13672 0.70311,0.1172 1.29231,0.34018 1.76758,0.66894 0.47525,0.32879 0.85773,0.7894 1.14746,1.38184 0.2897,0.59246 0.43456,1.2435 0.43457,1.95312 -1e-5,1.21746 -0.38738,2.24773 -1.16211,3.09082 -0.77475,0.84311 -2.17449,1.26466 -4.19922,1.26465 l -3.67188,0 0,5.82032 z m 1.89453,-7.50977 3.70118,0 c 1.22395,1e-5 2.09309,-0.22786 2.60742,-0.68359 0.51431,-0.45572 0.77147,-1.097 0.77148,-1.92383 -1e-5,-0.59895 -0.15137,-1.11164 -0.4541,-1.53809 -0.30274,-0.42642 -0.70151,-0.70799 -1.19629,-0.84472 -0.31902,-0.0846 -0.90821,-0.12694 -1.76758,-0.12696 l -3.66211,0 z"
         style="font-size:20px"
         id="path4144"
         inkscape:connector-curvature="0" />
      <path
         d="m 346.34152,127.11844 c 0,-1.92057 0.53386,-3.34309 1.60156,-4.26758 0.89193,-0.76822 1.97917,-1.15233 3.26172,-1.15234 1.42578,1e-5 2.59114,0.46713 3.4961,1.40136 0.90494,0.93426 1.35741,2.22495 1.35742,3.87207 -10e-6,1.33464 -0.20021,2.38445 -0.60059,3.14942 -0.4004,0.76497 -0.98308,1.35905 -1.74804,1.78222 -0.76498,0.42318 -1.59995,0.63477 -2.50489,0.63477 -1.45182,0 -2.62532,-0.46549 -3.5205,-1.39648 -0.89519,-0.93099 -1.34278,-2.27214 -1.34278,-4.02344 z m 1.80664,0 c 0,1.32813 0.28971,2.32259 0.86914,2.9834 0.57943,0.66081 1.30859,0.99121 2.1875,0.99121 0.87239,0 1.5983,-0.33203 2.17774,-0.9961 0.57942,-0.66406 0.86913,-1.67642 0.86914,-3.03711 -1e-5,-1.28254 -0.29135,-2.25422 -0.87402,-2.91503 -0.58269,-0.6608 -1.30698,-0.99121 -2.17286,-0.99122 -0.87891,1e-5 -1.60807,0.32879 -2.1875,0.98633 -0.57943,0.65756 -0.86914,1.6504 -0.86914,2.97852 z"
         style="font-size:20px"
         id="path4146"
         inkscape:connector-curvature="0" />
      <path
         d="m 361.96652,130.73172 0.25391,1.55273 c -0.4948,0.10417 -0.93751,0.15625 -1.32813,0.15625 -0.63802,0 -1.13281,-0.10091 -1.48437,-0.30273 -0.35157,-0.20182 -0.59896,-0.46712 -0.74219,-0.7959 -0.14323,-0.32877 -0.21484,-1.0205 -0.21484,-2.07519 l 0,-5.9668 -1.28907,0 0,-1.36719 1.28907,0 0,-2.56836 1.74804,-1.05469 0,3.62305 1.76758,0 0,1.36719 -1.76758,0 0,6.06445 c 0,0.50131 0.0309,0.82357 0.0928,0.9668 0.0618,0.14323 0.16275,0.25716 0.30273,0.3418 0.13997,0.0846 0.34017,0.12695 0.60059,0.12695 0.19531,0 0.45247,-0.0228 0.77148,-0.0684 z"
         style="font-size:20px"
         id="path4148"
         inkscape:connector-curvature="0" />
      <path
         d="m 367.5134,130.73172 0.2539,1.55273 c -0.49479,0.10417 -0.9375,0.15625 -1.32812,0.15625 -0.63803,0 -1.13282,-0.10091 -1.48438,-0.30273 -0.35156,-0.20182 -0.59896,-0.46712 -0.74218,-0.7959 -0.14323,-0.32877 -0.21485,-1.0205 -0.21485,-2.07519 l 0,-5.9668 -1.28906,0 0,-1.36719 1.28906,0 0,-2.56836 1.74805,-1.05469 0,3.62305 1.76758,0 0,1.36719 -1.76758,0 0,6.06445 c 0,0.50131 0.0309,0.82357 0.0928,0.9668 0.0618,0.14323 0.16276,0.25716 0.30274,0.3418 0.13997,0.0846 0.34016,0.12695 0.60058,0.12695 0.19531,0 0.45247,-0.0228 0.77149,-0.0684 z"
         style="font-size:20px"
         id="path4150"
         inkscape:connector-curvature="0" />
      <path
         d="m 376.32199,128.96414 1.81641,0.22461 c -0.28647,1.0612 -0.81707,1.88477 -1.5918,2.4707 -0.77475,0.58594 -1.76433,0.87891 -2.96875,0.87891 -1.51693,0 -2.71973,-0.46712 -3.6084,-1.40137 -0.88867,-0.93424 -1.33301,-2.24446 -1.33301,-3.93066 0,-1.74479 0.44922,-3.09895 1.34766,-4.0625 0.89843,-0.96353 2.0638,-1.4453 3.49609,-1.44531 1.38672,1e-5 2.51953,0.47201 3.39844,1.41601 0.8789,0.94402 1.31835,2.27214 1.31836,3.98438 -1e-5,0.10417 -0.003,0.26042 -0.01,0.46875 l -7.73438,0 c 0.0651,1.13932 0.38737,2.01172 0.9668,2.61718 0.57942,0.60548 1.30208,0.90821 2.16797,0.90821 0.64452,0 1.19465,-0.16927 1.65039,-0.50781 0.45572,-0.33854 0.81705,-0.87891 1.08398,-1.6211 z m -5.77148,-2.8418 5.79101,0 c -0.0781,-0.87238 -0.29949,-1.52668 -0.66406,-1.96289 -0.5599,-0.67707 -1.28581,-1.01561 -2.17773,-1.01562 -0.8073,1e-5 -1.48601,0.27019 -2.03614,0.81055 -0.55013,0.54037 -0.85449,1.26302 -0.91308,2.16796 z"
         style="font-size:20px"
         id="path4152"
         inkscape:connector-curvature="0" />
      <path
         d="m 380.33566,132.30399 0,-10.3711 1.58203,0 0,1.57227 c 0.40365,-0.73567 0.77637,-1.2207 1.11817,-1.45508 0.34179,-0.23437 0.71777,-0.35155 1.12793,-0.35156 0.59244,1e-5 1.19465,0.18881 1.80664,0.5664 l -0.60547,1.63086 c -0.42969,-0.2539 -0.85938,-0.38085 -1.28906,-0.38086 -0.38412,1e-5 -0.72917,0.11557 -1.03516,0.34668 -0.30599,0.23113 -0.52409,0.55177 -0.6543,0.96192 -0.19531,0.625 -0.29297,1.3086 -0.29296,2.05078 l 0,5.42969 z"
         style="font-size:20px"
         id="path4154"
         inkscape:connector-curvature="0" />
      <path
         d="m 386.33176,129.20828 1.73828,-0.27344 c 0.0976,0.69662 0.36946,1.23048 0.81543,1.60157 0.44596,0.37109 1.06933,0.55664 1.87011,0.55664 0.80729,0 1.40625,-0.16439 1.79688,-0.49317 0.39062,-0.32877 0.58593,-0.71451 0.58594,-1.15722 -10e-6,-0.39713 -0.17254,-0.70963 -0.51758,-0.9375 -0.24089,-0.15625 -0.83985,-0.35482 -1.79688,-0.59571 -1.28906,-0.32551 -2.18262,-0.60709 -2.68066,-0.84472 -0.49805,-0.23763 -0.87565,-0.5664 -1.13281,-0.98633 -0.25716,-0.41992 -0.38575,-0.88378 -0.38574,-1.3916 -10e-6,-0.46223 0.10579,-0.89029 0.31738,-1.28418 0.21159,-0.39387 0.49967,-0.72102 0.86426,-0.98145 0.27343,-0.20181 0.64615,-0.37271 1.11816,-0.51269 0.472,-0.13997 0.97819,-0.20995 1.51855,-0.20996 0.8138,1e-5 1.52832,0.11719 2.14356,0.35156 0.61523,0.23438 1.06933,0.55177 1.3623,0.95215 0.29296,0.4004 0.49479,0.93588 0.60547,1.60644 l -1.71875,0.23438 c -0.0781,-0.53385 -0.30437,-0.95051 -0.67871,-1.25 -0.37435,-0.29947 -0.90332,-0.44921 -1.58691,-0.44922 -0.8073,1e-5 -1.38347,0.13347 -1.72852,0.40039 -0.34505,0.26694 -0.51758,0.57944 -0.51758,0.9375 0,0.22787 0.0716,0.43295 0.21485,0.61523 0.14322,0.18881 0.36783,0.34506 0.67383,0.46875 0.17577,0.0651 0.69335,0.21485 1.55273,0.44922 1.24348,0.33204 2.111,0.60385 2.60254,0.81543 0.49153,0.2116 0.87727,0.51921 1.15723,0.92285 0.27993,0.40365 0.41991,0.90496 0.41992,1.50391 -1e-5,0.58594 -0.17091,1.1377 -0.5127,1.65527 -0.3418,0.51758 -0.83497,0.91797 -1.47949,1.20118 -0.64454,0.2832 -1.3737,0.4248 -2.1875,0.4248 -1.34766,0 -2.37468,-0.27995 -3.08105,-0.83984 -0.70639,-0.5599 -1.15723,-1.38998 -1.35254,-2.49024 z"
         style="font-size:20px"
         id="path4156"
         inkscape:connector-curvature="0" />
      <path
         d="m 402.80637,132.30399 0,-14.31641 5.40039,0 c 0.95051,1e-5 1.67642,0.0456 2.17773,0.13672 0.70312,0.1172 1.29231,0.34018 1.76758,0.66894 0.47525,0.32879 0.85773,0.7894 1.14746,1.38184 0.2897,0.59246 0.43456,1.2435 0.43457,1.95312 -1e-5,1.21746 -0.38738,2.24773 -1.16211,3.09082 -0.77475,0.84311 -2.17449,1.26466 -4.19922,1.26465 l -3.67187,0 0,5.82032 z m 1.89453,-7.50977 3.70117,0 c 1.22395,1e-5 2.09309,-0.22786 2.60742,-0.68359 0.51431,-0.45572 0.77147,-1.097 0.77149,-1.92383 -2e-5,-0.59895 -0.15138,-1.11164 -0.45411,-1.53809 -0.30274,-0.42642 -0.7015,-0.70799 -1.19629,-0.84472 -0.31901,-0.0846 -0.90821,-0.12694 -1.76757,-0.12696 l -3.66211,0 z"
         style="font-size:20px"
         id="path4158"
         inkscape:connector-curvature="0" />
      <path
         d="m 422.70871,131.02469 c -0.65105,0.55338 -1.27768,0.94401 -1.87988,1.17187 -0.60222,0.22787 -1.24838,0.3418 -1.93848,0.3418 -1.13933,0 -2.01498,-0.27832 -2.62695,-0.83496 -0.61198,-0.55664 -0.91797,-1.2679 -0.91797,-2.13379 0,-0.50781 0.11556,-0.97168 0.34668,-1.3916 0.23112,-0.41992 0.53385,-0.75683 0.9082,-1.01074 0.37435,-0.2539 0.7959,-0.44596 1.26465,-0.57618 0.34505,-0.0911 0.86588,-0.17903 1.5625,-0.26367 1.41926,-0.16926 2.46419,-0.37108 3.13477,-0.60547 0.007,-0.24087 0.01,-0.39387 0.01,-0.45898 -10e-6,-0.71614 -0.16602,-1.22069 -0.49805,-1.51367 -0.44922,-0.39713 -1.11654,-0.5957 -2.00195,-0.59571 -0.82683,1e-5 -1.43718,0.14487 -1.83105,0.43458 -0.39389,0.28972 -0.68523,0.80241 -0.87403,1.53808 l -1.71875,-0.23437 c 0.15625,-0.73567 0.41341,-1.32975 0.77149,-1.78223 0.35807,-0.45246 0.87565,-0.80077 1.55273,-1.04492 0.67708,-0.24413 1.46159,-0.3662 2.35352,-0.36621 0.88541,1e-5 1.60481,0.10417 2.1582,0.3125 0.55338,0.20834 0.96028,0.47038 1.2207,0.78613 0.26041,0.31576 0.4427,0.71453 0.54688,1.19629 0.0586,0.29949 0.0879,0.83985 0.0879,1.62109 l 0,2.34375 c -10e-6,1.63412 0.0374,2.66765 0.1123,3.10059 0.0749,0.43294 0.22298,0.84798 0.44434,1.24512 l -1.83594,0 c -0.1823,-0.36459 -0.29949,-0.79102 -0.35156,-1.2793 z m -0.14648,-3.92578 c -0.63803,0.26042 -1.59506,0.48177 -2.8711,0.66406 -0.72266,0.10417 -1.23373,0.22136 -1.5332,0.35156 -0.29948,0.13021 -0.5306,0.32064 -0.69336,0.57129 -0.16276,0.25066 -0.24414,0.52898 -0.24414,0.83496 0,0.46875 0.1774,0.85938 0.53223,1.17188 0.35481,0.3125 0.87401,0.46875 1.55761,0.46875 0.67708,0 1.27929,-0.14811 1.80664,-0.44434 0.52734,-0.29622 0.91471,-0.70149 1.16211,-1.21582 0.1888,-0.39713 0.2832,-0.98307 0.28321,-1.75781 z"
         style="font-size:20px"
         id="path4160"
         inkscape:connector-curvature="0" />
      <path
         d="m 426.37082,129.20828 1.73828,-0.27344 c 0.0976,0.69662 0.36946,1.23048 0.81543,1.60157 0.44596,0.37109 1.06933,0.55664 1.87012,0.55664 0.80728,0 1.40624,-0.16439 1.79687,-0.49317 0.39062,-0.32877 0.58593,-0.71451 0.58594,-1.15722 -10e-6,-0.39713 -0.17253,-0.70963 -0.51758,-0.9375 -0.24089,-0.15625 -0.83985,-0.35482 -1.79687,-0.59571 -1.28907,-0.32551 -2.18262,-0.60709 -2.68067,-0.84472 -0.49805,-0.23763 -0.87565,-0.5664 -1.13281,-0.98633 -0.25716,-0.41992 -0.38574,-0.88378 -0.38574,-1.3916 0,-0.46223 0.10579,-0.89029 0.31738,-1.28418 0.21159,-0.39387 0.49967,-0.72102 0.86426,-0.98145 0.27343,-0.20181 0.64615,-0.37271 1.11816,-0.51269 0.472,-0.13997 0.97819,-0.20995 1.51856,-0.20996 0.81379,1e-5 1.52831,0.11719 2.14355,0.35156 0.61523,0.23438 1.06933,0.55177 1.36231,0.95215 0.29296,0.4004 0.49478,0.93588 0.60547,1.60644 l -1.71875,0.23438 c -0.0781,-0.53385 -0.30437,-0.95051 -0.67872,-1.25 -0.37435,-0.29947 -0.90332,-0.44921 -1.58691,-0.44922 -0.8073,1e-5 -1.38347,0.13347 -1.72852,0.40039 -0.34505,0.26694 -0.51758,0.57944 -0.51757,0.9375 -10e-6,0.22787 0.0716,0.43295 0.21484,0.61523 0.14323,0.18881 0.36784,0.34506 0.67383,0.46875 0.17578,0.0651 0.69335,0.21485 1.55273,0.44922 1.24349,0.33204 2.111,0.60385 2.60254,0.81543 0.49153,0.2116 0.87727,0.51921 1.15723,0.92285 0.27994,0.40365 0.41991,0.90496 0.41992,1.50391 -1e-5,0.58594 -0.17091,1.1377 -0.51269,1.65527 -0.34181,0.51758 -0.83497,0.91797 -1.4795,1.20118 -0.64454,0.2832 -1.3737,0.4248 -2.1875,0.4248 -1.34766,0 -2.37467,-0.27995 -3.08105,-0.83984 -0.70638,-0.5599 -1.15723,-1.38998 -1.35254,-2.49024 z"
         style="font-size:20px"
         id="path4162"
         inkscape:connector-curvature="0" />
      <path
         d="m 436.37082,129.20828 1.73828,-0.27344 c 0.0976,0.69662 0.36946,1.23048 0.81543,1.60157 0.44596,0.37109 1.06933,0.55664 1.87012,0.55664 0.80728,0 1.40624,-0.16439 1.79687,-0.49317 0.39062,-0.32877 0.58593,-0.71451 0.58594,-1.15722 -10e-6,-0.39713 -0.17253,-0.70963 -0.51758,-0.9375 -0.24089,-0.15625 -0.83985,-0.35482 -1.79687,-0.59571 -1.28907,-0.32551 -2.18262,-0.60709 -2.68067,-0.84472 -0.49805,-0.23763 -0.87565,-0.5664 -1.13281,-0.98633 -0.25716,-0.41992 -0.38574,-0.88378 -0.38574,-1.3916 0,-0.46223 0.10579,-0.89029 0.31738,-1.28418 0.21159,-0.39387 0.49967,-0.72102 0.86426,-0.98145 0.27343,-0.20181 0.64615,-0.37271 1.11816,-0.51269 0.472,-0.13997 0.97819,-0.20995 1.51856,-0.20996 0.81379,1e-5 1.52831,0.11719 2.14355,0.35156 0.61523,0.23438 1.06933,0.55177 1.36231,0.95215 0.29296,0.4004 0.49478,0.93588 0.60547,1.60644 l -1.71875,0.23438 c -0.0781,-0.53385 -0.30437,-0.95051 -0.67872,-1.25 -0.37435,-0.29947 -0.90332,-0.44921 -1.58691,-0.44922 -0.8073,1e-5 -1.38347,0.13347 -1.72852,0.40039 -0.34505,0.26694 -0.51758,0.57944 -0.51757,0.9375 -10e-6,0.22787 0.0716,0.43295 0.21484,0.61523 0.14323,0.18881 0.36784,0.34506 0.67383,0.46875 0.17578,0.0651 0.69335,0.21485 1.55273,0.44922 1.24349,0.33204 2.111,0.60385 2.60254,0.81543 0.49153,0.2116 0.87727,0.51921 1.15723,0.92285 0.27994,0.40365 0.41991,0.90496 0.41992,1.50391 -1e-5,0.58594 -0.17091,1.1377 -0.51269,1.65527 -0.34181,0.51758 -0.83497,0.91797 -1.4795,1.20118 -0.64454,0.2832 -1.3737,0.4248 -2.1875,0.4248 -1.34766,0 -2.37467,-0.27995 -3.08105,-0.83984 -0.70638,-0.5599 -1.15723,-1.38998 -1.35254,-2.49024 z"
         style="font-size:20px"
         id="path4164"
         inkscape:connector-curvature="0" />
    </g>
    <g
       style="font-size:40px;font-style:normal;font-weight:normal;line-height:125%;letter-spacing:0px;word-spacing:0px;fill:#000000;fill-opacity:1;stroke:none;font-family:Sans"
       id="text4017">
      <path
         d="m 603.60107,167.65932 0,-14.31641 6.34766,0 c 1.27603,2e-5 2.24608,0.1286 2.91016,0.38574 0.66405,0.25718 1.19465,0.71128 1.59179,1.36231 0.39713,0.65105 0.59569,1.37045 0.59571,2.1582 -2e-5,1.01564 -0.32879,1.87175 -0.98633,2.56836 -0.65756,0.69662 -1.67319,1.13933 -3.04688,1.32813 0.5013,0.24089 0.88216,0.47852 1.14258,0.71289 0.55338,0.50781 1.07746,1.14258 1.57227,1.90429 l 2.49023,3.89649 -2.38281,0 -1.89453,-2.97852 c -0.5534,-0.85937 -1.00913,-1.51692 -1.36719,-1.97265 -0.35808,-0.45573 -0.67872,-0.77474 -0.96191,-0.95704 -0.28321,-0.18228 -0.5713,-0.30923 -0.86426,-0.38086 -0.21485,-0.0456 -0.56641,-0.0684 -1.05469,-0.0684 l -2.19726,0 0,6.35742 z m 1.89454,-7.99805 4.07226,0 c 0.86588,1e-5 1.54296,-0.0895 2.03125,-0.26855 0.48827,-0.17903 0.85937,-0.46549 1.11328,-0.85938 0.2539,-0.39387 0.38085,-0.82193 0.38086,-1.28418 -10e-6,-0.67707 -0.24578,-1.23371 -0.7373,-1.66992 -0.49155,-0.43619 -1.26792,-0.65429 -2.3291,-0.6543 l -4.53125,0 z"
         style="font-size:20px"
         id="path4167"
         inkscape:connector-curvature="0" />
      <path
         d="m 617.81006,155.3644 0,-2.02149 1.75781,0 0,2.02149 z m 0,12.29492 0,-10.3711 1.75781,0 0,10.3711 z"
         style="font-size:20px"
         id="path4169"
         inkscape:connector-curvature="0" />
      <path
         d="m 622.67334,167.65932 0,-9.00391 -1.55273,0 0,-1.36719 1.55273,0 0,-1.10351 c 0,-0.6966 0.0618,-1.21418 0.18555,-1.55274 0.16927,-0.45571 0.46712,-0.82518 0.89355,-1.1084 0.42643,-0.28318 1.02376,-0.42479 1.79199,-0.4248 0.49479,1e-5 1.04166,0.0586 1.64063,0.17578 l -0.26367,1.5332 c -0.36459,-0.0651 -0.70964,-0.0976 -1.03516,-0.0976 -0.53386,1e-5 -0.91146,0.11394 -1.13281,0.3418 -0.22136,0.22787 -0.33204,0.6543 -0.33203,1.27929 l 0,0.95703 2.02148,0 0,1.36719 -2.02148,0 0,9.00391 z"
         style="font-size:20px"
         id="path4171"
         inkscape:connector-curvature="0" />
      <path
         d="m 627.76123,167.65932 0,-14.31641 1.75781,0 0,14.31641 z"
         style="font-size:20px"
         id="path4173"
         inkscape:connector-curvature="0" />
      <path
         d="m 639.35303,164.31947 1.8164,0.22461 c -0.28646,1.0612 -0.81706,1.88477 -1.59179,2.47071 -0.77475,0.58593 -1.76433,0.8789 -2.96875,0.8789 -1.51693,0 -2.71973,-0.46712 -3.6084,-1.40137 -0.88867,-0.93424 -1.33301,-2.24446 -1.33301,-3.93066 0,-1.74478 0.44922,-3.09895 1.34766,-4.0625 0.89843,-0.96353 2.06379,-1.4453 3.49609,-1.44531 1.38671,10e-6 2.51952,0.47201 3.39844,1.41601 0.87889,0.94402 1.31835,2.27215 1.31836,3.98438 -10e-6,0.10417 -0.003,0.26042 -0.01,0.46875 l -7.73437,0 c 0.0651,1.13933 0.38736,2.01172 0.96679,2.61719 0.57943,0.60547 1.30208,0.9082 2.16797,0.9082 0.64453,0 1.19466,-0.16927 1.65039,-0.50781 0.45572,-0.33854 0.81705,-0.87891 1.08399,-1.6211 z m -5.77149,-2.84179 5.79102,0 c -0.0781,-0.87239 -0.29949,-1.52669 -0.66406,-1.96289 -0.55991,-0.67708 -1.28582,-1.01562 -2.17774,-1.01563 -0.80729,1e-5 -1.486,0.27019 -2.03613,0.81055 -0.55013,0.54037 -0.8545,1.26303 -0.91309,2.16797 z"
         style="font-size:20px"
         id="path4175"
         inkscape:connector-curvature="0" />
    </g>
    <g
       style="font-size:40px;font-style:normal;font-weight:normal;line-height:125%;letter-spacing:0px;word-spacing:0px;fill:#000000;fill-opacity:1;stroke:none;font-family:Sans"
       id="text4021">
      <path
         d="m 615.80688,302.04083 1.89454,0.47852 c -0.39715,1.55599 -1.11167,2.74251 -2.14356,3.55957 -1.03191,0.81706 -2.2933,1.22558 -3.78418,1.22558 -1.54297,0 -2.79785,-0.31412 -3.76465,-0.94238 -0.9668,-0.62825 -1.70247,-1.53808 -2.20703,-2.72949 -0.50456,-1.1914 -0.75683,-2.4707 -0.75683,-3.83789 0,-1.49088 0.28483,-2.79133 0.85449,-3.90137 0.56966,-1.11001 1.3802,-1.95311 2.43164,-2.5293 1.05143,-0.57615 2.20865,-0.86424 3.47168,-0.86425 1.43228,10e-6 2.63671,0.36459 3.61328,1.09375 0.97655,0.72918 1.65689,1.75457 2.04102,3.07617 l -1.86524,0.43945 c -0.33204,-1.04165 -0.81381,-1.80012 -1.44531,-2.27539 -0.63152,-0.47525 -1.42579,-0.71288 -2.38281,-0.71289 -1.10027,1e-5 -2.01987,0.26369 -2.75879,0.79102 -0.73894,0.52735 -1.25814,1.23536 -1.55762,2.12402 -0.29948,0.88868 -0.44922,1.80502 -0.44922,2.74902 0,1.21746 0.17741,2.28028 0.53223,3.18848 0.35481,0.90821 0.90657,1.58692 1.65527,2.03613 0.74869,0.44922 1.55924,0.67383 2.43164,0.67383 1.06119,0 1.95963,-0.30599 2.69531,-0.91797 0.73567,-0.61197 1.23372,-1.52018 1.49414,-2.72461 z"
         style="font-size:20px"
         id="path4178"
         inkscape:connector-curvature="0" />
      <path
         d="m 619.16626,301.87482 c 0,-1.92057 0.53385,-3.34309 1.60156,-4.26758 0.89193,-0.76822 1.97916,-1.15233 3.26172,-1.15234 1.42578,10e-6 2.59114,0.46713 3.49609,1.40136 0.90494,0.93426 1.35742,2.22494 1.35743,3.87207 -10e-6,1.33464 -0.20021,2.38445 -0.60059,3.14942 -0.4004,0.76497 -0.98308,1.35905 -1.74805,1.78222 -0.76498,0.42318 -1.59994,0.63477 -2.50488,0.63477 -1.45183,0 -2.62533,-0.4655 -3.52051,-1.39649 -0.89518,-0.93098 -1.34277,-2.27213 -1.34277,-4.02343 z m 1.80664,0 c 0,1.32813 0.28971,2.32259 0.86914,2.9834 0.57942,0.6608 1.30859,0.99121 2.1875,0.99121 0.87239,0 1.5983,-0.33203 2.17774,-0.9961 0.57941,-0.66406 0.86913,-1.67643 0.86914,-3.03711 -10e-6,-1.28254 -0.29135,-2.25422 -0.87403,-2.91504 -0.58269,-0.66079 -1.30697,-0.9912 -2.17285,-0.99121 -0.87891,1e-5 -1.60808,0.32879 -2.1875,0.98633 -0.57943,0.65756 -0.86914,1.6504 -0.86914,2.97852 z"
         style="font-size:20px"
         id="path4180"
         inkscape:connector-curvature="0" />
      <path
         d="m 637.72095,303.26154 1.72851,0.22461 c -0.18881,1.1914 -0.67221,2.12402 -1.45019,2.79785 -0.778,0.67382 -1.73341,1.01074 -2.86621,1.01074 -1.41928,0 -2.56023,-0.46387 -3.42285,-1.3916 -0.86264,-0.92774 -1.29395,-2.25749 -1.29395,-3.98926 0,-1.11979 0.18555,-2.0996 0.55664,-2.93945 0.37109,-0.83984 0.93587,-1.46972 1.69434,-1.88965 0.75846,-0.41991 1.58365,-0.62987 2.47558,-0.62988 1.1263,10e-6 2.04752,0.28484 2.76367,0.85449 0.71614,0.56967 1.17512,1.37859 1.37696,2.42676 l -1.70899,0.26367 c -0.16277,-0.69661 -0.45085,-1.2207 -0.86425,-1.57227 -0.41342,-0.35155 -0.9131,-0.52733 -1.49903,-0.52734 -0.88542,10e-6 -1.60482,0.31739 -2.1582,0.95215 -0.55339,0.63477 -0.83008,1.639 -0.83008,3.01269 0,1.39323 0.26692,2.4056 0.80078,3.03711 0.53385,0.63151 1.23047,0.94727 2.08985,0.94727 0.69009,0 1.26626,-0.21159 1.72851,-0.63477 0.46223,-0.42317 0.7552,-1.07422 0.87891,-1.95312 z"
         style="font-size:20px"
         id="path4182"
         inkscape:connector-curvature="0" />
      <path
         d="m 647.72095,305.78107 c -0.65105,0.55338 -1.27768,0.94401 -1.87989,1.17187 -0.60221,0.22787 -1.24837,0.3418 -1.93847,0.3418 -1.13933,0 -2.01498,-0.27832 -2.62696,-0.83496 -0.61198,-0.55664 -0.91796,-1.2679 -0.91796,-2.13379 0,-0.50781 0.11556,-0.97168 0.34668,-1.3916 0.23111,-0.41992 0.53385,-0.75683 0.9082,-1.01074 0.37435,-0.25391 0.79589,-0.44596 1.26465,-0.57618 0.34505,-0.0911 0.86588,-0.17903 1.5625,-0.26367 1.41926,-0.16926 2.46418,-0.37109 3.13476,-0.60547 0.007,-0.24088 0.01,-0.39387 0.01,-0.45898 -1e-5,-0.71614 -0.16602,-1.2207 -0.49805,-1.51367 -0.44922,-0.39713 -1.11654,-0.5957 -2.00195,-0.59571 -0.82683,1e-5 -1.43718,0.14487 -1.83106,0.43457 -0.39388,0.28973 -0.68522,0.80242 -0.87402,1.53809 l -1.71875,-0.23438 c 0.15625,-0.73566 0.41341,-1.32974 0.77148,-1.78222 0.35808,-0.45247 0.87565,-0.80077 1.55274,-1.04492 0.67708,-0.24413 1.46158,-0.3662 2.35351,-0.36621 0.88541,10e-6 1.60482,0.10417 2.15821,0.3125 0.55337,0.20834 0.96028,0.47038 1.2207,0.78613 0.26041,0.31576 0.4427,0.71452 0.54688,1.19629 0.0586,0.29948 0.0879,0.83985 0.0879,1.62109 l 0,2.34375 c -10e-6,1.63412 0.0374,2.66765 0.1123,3.10059 0.0749,0.43294 0.22297,0.84798 0.44434,1.24511 l -1.83594,0 c -0.1823,-0.36458 -0.29949,-0.79101 -0.35156,-1.27929 z m -0.14649,-3.92578 c -0.63803,0.26042 -1.59506,0.48177 -2.87109,0.66406 -0.72266,0.10417 -1.23373,0.22136 -1.5332,0.35156 -0.29949,0.13021 -0.53061,0.32064 -0.69336,0.57129 -0.16277,0.25065 -0.24415,0.52897 -0.24414,0.83496 -10e-6,0.46875 0.1774,0.85938 0.53222,1.17188 0.35482,0.3125 0.87402,0.46875 1.55762,0.46875 0.67708,0 1.27929,-0.14812 1.80664,-0.44434 0.52734,-0.29622 0.91471,-0.7015 1.16211,-1.21582 0.18879,-0.39713 0.28319,-0.98307 0.2832,-1.75781 z"
         style="font-size:20px"
         id="path4184"
         inkscape:connector-curvature="0" />
      <path
         d="m 653.70728,307.06036 -1.63086,0 0,-14.3164 1.75781,0 0,5.10742 c 0.74218,-0.93098 1.68945,-1.39647 2.8418,-1.39648 0.63801,10e-6 1.24185,0.12859 1.81152,0.38574 0.56965,0.25717 1.0384,0.6185 1.40625,1.08398 0.36783,0.46551 0.65591,1.02703 0.86426,1.68457 0.20832,0.65756 0.31249,1.36069 0.3125,2.10938 -10e-6,1.77734 -0.43947,3.15104 -1.31836,4.12109 -0.87892,0.97005 -1.9336,1.45508 -3.16407,1.45508 -1.22396,0 -2.18424,-0.51107 -2.88085,-1.5332 z m -0.0195,-5.26367 c 0,1.2435 0.16927,2.14193 0.50782,2.69531 0.55338,0.90495 1.30208,1.35743 2.24609,1.35743 0.76822,0 1.43228,-0.33366 1.99219,-1.00098 0.55989,-0.66732 0.83983,-1.66178 0.83984,-2.9834 -10e-6,-1.35416 -0.26856,-2.35351 -0.80566,-2.99805 -0.53712,-0.64452 -1.18653,-0.96678 -1.94824,-0.96679 -0.76824,10e-6 -1.4323,0.33367 -1.99219,1.00097 -0.5599,0.66733 -0.83985,1.6325 -0.83985,2.89551 z"
         style="font-size:20px"
         id="path4186"
         inkscape:connector-curvature="0" />
      <path
         d="m 669.98657,305.78107 c -0.65105,0.55338 -1.27767,0.94401 -1.87988,1.17187 -0.60222,0.22787 -1.24838,0.3418 -1.93848,0.3418 -1.13932,0 -2.01497,-0.27832 -2.62695,-0.83496 -0.61198,-0.55664 -0.91797,-1.2679 -0.91797,-2.13379 0,-0.50781 0.11556,-0.97168 0.34668,-1.3916 0.23112,-0.41992 0.53385,-0.75683 0.9082,-1.01074 0.37435,-0.25391 0.7959,-0.44596 1.26465,-0.57618 0.34505,-0.0911 0.86588,-0.17903 1.5625,-0.26367 1.41927,-0.16926 2.46419,-0.37109 3.13477,-0.60547 0.006,-0.24088 0.01,-0.39387 0.01,-0.45898 0,-0.71614 -0.16602,-1.2207 -0.49804,-1.51367 -0.44923,-0.39713 -1.11655,-0.5957 -2.00196,-0.59571 -0.82682,1e-5 -1.43717,0.14487 -1.83105,0.43457 -0.39388,0.28973 -0.68523,0.80242 -0.87402,1.53809 l -1.71875,-0.23438 c 0.15624,-0.73566 0.41341,-1.32974 0.77148,-1.78222 0.35807,-0.45247 0.87565,-0.80077 1.55273,-1.04492 0.67708,-0.24413 1.46159,-0.3662 2.35352,-0.36621 0.88541,10e-6 1.60481,0.10417 2.1582,0.3125 0.55338,0.20834 0.96028,0.47038 1.22071,0.78613 0.2604,0.31576 0.44269,0.71452 0.54687,1.19629 0.0586,0.29948 0.0879,0.83985 0.0879,1.62109 l 0,2.34375 c -10e-6,1.63412 0.0374,2.66765 0.11231,3.10059 0.0749,0.43294 0.22297,0.84798 0.44433,1.24511 l -1.83594,0 c -0.1823,-0.36458 -0.29948,-0.79101 -0.35156,-1.27929 z m -0.14648,-3.92578 c -0.63803,0.26042 -1.59506,0.48177 -2.8711,0.66406 -0.72266,0.10417 -1.23372,0.22136 -1.5332,0.35156 -0.29948,0.13021 -0.5306,0.32064 -0.69336,0.57129 -0.16276,0.25065 -0.24414,0.52897 -0.24414,0.83496 0,0.46875 0.17741,0.85938 0.53223,1.17188 0.35481,0.3125 0.87402,0.46875 1.55761,0.46875 0.67708,0 1.2793,-0.14812 1.80665,-0.44434 0.52733,-0.29622 0.9147,-0.7015 1.1621,-1.21582 0.1888,-0.39713 0.2832,-0.98307 0.28321,-1.75781 z"
         style="font-size:20px"
         id="path4188"
         inkscape:connector-curvature="0" />
      <path
         d="m 674.35181,307.06036 0,-10.37109 1.58203,0 0,1.47461 c 0.76171,-1.13931 1.86197,-1.70897 3.30078,-1.70898 0.62499,10e-6 1.19954,0.11231 1.72363,0.33691 0.52408,0.22462 0.91633,0.51921 1.17676,0.88379 0.26041,0.36459 0.4427,0.79753 0.54687,1.29883 0.0651,0.32552 0.0977,0.89519 0.0977,1.70898 l 0,6.37695 -1.75781,0 0,-6.30859 c -10e-6,-0.71614 -0.0684,-1.25162 -0.20508,-1.60645 -0.13673,-0.3548 -0.37924,-0.63801 -0.72754,-0.8496 -0.34831,-0.21158 -0.75684,-0.31738 -1.22558,-0.31739 -0.74871,10e-6 -1.39487,0.23764 -1.93848,0.71289 -0.54362,0.47527 -0.81543,1.37696 -0.81543,2.70508 l 0,5.66406 z"
         style="font-size:20px"
         id="path4190"
         inkscape:connector-curvature="0" />
      <path
         d="m 692.2522,305.78107 c -0.65105,0.55338 -1.27768,0.94401 -1.87989,1.17187 -0.60221,0.22787 -1.24837,0.3418 -1.93847,0.3418 -1.13933,0 -2.01498,-0.27832 -2.62696,-0.83496 -0.61198,-0.55664 -0.91796,-1.2679 -0.91796,-2.13379 0,-0.50781 0.11556,-0.97168 0.34668,-1.3916 0.23111,-0.41992 0.53385,-0.75683 0.9082,-1.01074 0.37435,-0.25391 0.79589,-0.44596 1.26465,-0.57618 0.34505,-0.0911 0.86588,-0.17903 1.5625,-0.26367 1.41926,-0.16926 2.46418,-0.37109 3.13476,-0.60547 0.007,-0.24088 0.01,-0.39387 0.01,-0.45898 -1e-5,-0.71614 -0.16602,-1.2207 -0.49805,-1.51367 -0.44922,-0.39713 -1.11654,-0.5957 -2.00195,-0.59571 -0.82683,1e-5 -1.43718,0.14487 -1.83106,0.43457 -0.39388,0.28973 -0.68522,0.80242 -0.87402,1.53809 l -1.71875,-0.23438 c 0.15625,-0.73566 0.41341,-1.32974 0.77148,-1.78222 0.35808,-0.45247 0.87565,-0.80077 1.55274,-1.04492 0.67708,-0.24413 1.46158,-0.3662 2.35351,-0.36621 0.88541,10e-6 1.60482,0.10417 2.15821,0.3125 0.55337,0.20834 0.96028,0.47038 1.2207,0.78613 0.26041,0.31576 0.4427,0.71452 0.54688,1.19629 0.0586,0.29948 0.0879,0.83985 0.0879,1.62109 l 0,2.34375 c -10e-6,1.63412 0.0374,2.66765 0.1123,3.10059 0.0749,0.43294 0.22297,0.84798 0.44434,1.24511 l -1.83594,0 c -0.1823,-0.36458 -0.29949,-0.79101 -0.35156,-1.27929 z m -0.14649,-3.92578 c -0.63803,0.26042 -1.59506,0.48177 -2.87109,0.66406 -0.72266,0.10417 -1.23373,0.22136 -1.5332,0.35156 -0.29949,0.13021 -0.53061,0.32064 -0.69336,0.57129 -0.16277,0.25065 -0.24415,0.52897 -0.24414,0.83496 -10e-6,0.46875 0.1774,0.85938 0.53222,1.17188 0.35482,0.3125 0.87402,0.46875 1.55762,0.46875 0.67708,0 1.27929,-0.14812 1.80664,-0.44434 0.52734,-0.29622 0.91471,-0.7015 1.16211,-1.21582 0.18879,-0.39713 0.28319,-0.98307 0.2832,-1.75781 z"
         style="font-size:20px"
         id="path4192"
         inkscape:connector-curvature="0" />
    </g>
    <g
       style="font-size:40px;font-style:normal;font-weight:normal;line-height:125%;letter-spacing:0px;word-spacing:0px;fill:#000000;fill-opacity:1;stroke:none;font-family:Sans"
       id="text4025">
      <path
         d="m 515.61041,336.3548 0,-14.31641 5.3711,0 c 1.09374,2e-5 1.97102,0.14487 2.63183,0.43457 0.6608,0.28973 1.17838,0.73569 1.55274,1.33789 0.37433,0.60223 0.56151,1.23211 0.56152,1.88965 -1e-5,0.61199 -0.16603,1.18816 -0.49805,1.72852 -0.33204,0.54037 -0.83334,0.97657 -1.5039,1.30859 0.86587,0.25391 1.53156,0.68686 1.99707,1.29883 0.46548,0.61198 0.69823,1.33464 0.69824,2.16797 -1e-5,0.67057 -0.14161,1.29394 -0.42481,1.87011 -0.28321,0.57618 -0.63314,1.02051 -1.0498,1.33301 -0.41668,0.3125 -0.93914,0.5485 -1.56738,0.70801 -0.62827,0.1595 -1.39812,0.23926 -2.30957,0.23926 z m 1.89453,-8.30078 3.09571,0 c 0.83983,0 1.44205,-0.0553 1.80664,-0.16602 0.48176,-0.14322 0.84472,-0.38085 1.08886,-0.71289 0.24414,-0.33202 0.36621,-0.74869 0.36622,-1.25 -1e-5,-0.47525 -0.11395,-0.89354 -0.3418,-1.25488 -0.22787,-0.36132 -0.5534,-0.60871 -0.97656,-0.74219 -0.42319,-0.13345 -1.1491,-0.20018 -2.17774,-0.2002 l -2.86133,0 z m 0,6.61132 3.56446,0 c 0.61197,10e-6 1.04166,-0.0228 1.28906,-0.0684 0.43619,-0.0781 0.80077,-0.20833 1.09375,-0.39062 0.29296,-0.18229 0.53384,-0.44759 0.72266,-0.7959 0.18879,-0.3483 0.28319,-0.75032 0.2832,-1.20605 -10e-6,-0.53385 -0.13673,-0.99772 -0.41016,-1.3916 -0.27344,-0.39388 -0.65268,-0.67057 -1.13769,-0.83008 -0.48504,-0.1595 -1.18328,-0.23925 -2.09473,-0.23926 l -3.31055,0 z"
         style="font-size:20px"
         id="path4195"
         inkscape:connector-curvature="0" />
      <path
         d="m 535.92291,333.01495 1.81641,0.22461 c -0.28647,1.0612 -0.81707,1.88477 -1.5918,2.47071 -0.77475,0.58593 -1.76433,0.8789 -2.96875,0.8789 -1.51693,0 -2.71973,-0.46712 -3.6084,-1.40136 -0.88867,-0.93425 -1.33301,-2.24447 -1.333,-3.93067 -1e-5,-1.74478 0.44921,-3.09895 1.34765,-4.0625 0.89844,-0.96353 2.0638,-1.4453 3.4961,-1.44531 1.38671,1e-5 2.51952,0.47201 3.39843,1.41601 0.8789,0.94402 1.31835,2.27215 1.31836,3.98438 -10e-6,0.10417 -0.003,0.26042 -0.01,0.46875 l -7.73438,0 c 0.0651,1.13933 0.38737,2.01172 0.9668,2.61719 0.57942,0.60547 1.30208,0.9082 2.16797,0.9082 0.64452,0 1.19465,-0.16927 1.65039,-0.50781 0.45572,-0.33854 0.81705,-0.87891 1.08398,-1.6211 z m -5.77148,-2.84179 5.79101,0 c -0.0781,-0.87239 -0.29948,-1.52669 -0.66406,-1.96289 -0.5599,-0.67708 -1.28581,-1.01562 -2.17773,-1.01563 -0.8073,1e-5 -1.48601,0.27019 -2.03614,0.81055 -0.55013,0.54037 -0.85449,1.26303 -0.91308,2.16797 z"
         style="font-size:20px"
         id="path4197"
         inkscape:connector-curvature="0" />
      <path
         d="m 546.72369,335.0755 c -0.65105,0.55339 -1.27767,0.94401 -1.87988,1.17188 -0.60222,0.22786 -1.24838,0.34179 -1.93848,0.34179 -1.13932,0 -2.01497,-0.27832 -2.62695,-0.83496 -0.61198,-0.55664 -0.91797,-1.2679 -0.91797,-2.13379 0,-0.50781 0.11556,-0.97167 0.34668,-1.3916 0.23112,-0.41992 0.53385,-0.75683 0.90821,-1.01074 0.37434,-0.2539 0.79589,-0.44596 1.26464,-0.57617 0.34505,-0.0911 0.86589,-0.17903 1.5625,-0.26368 1.41927,-0.16926 2.46419,-0.37108 3.13477,-0.60546 0.006,-0.24088 0.01,-0.39388 0.01,-0.45899 -10e-6,-0.71614 -0.16603,-1.22069 -0.49805,-1.51367 -0.44923,-0.39713 -1.11654,-0.59569 -2.00195,-0.5957 -0.82683,1e-5 -1.43718,0.14486 -1.83106,0.43457 -0.39388,0.28972 -0.68522,0.80241 -0.87402,1.53808 l -1.71875,-0.23437 c 0.15625,-0.73567 0.41341,-1.32975 0.77148,-1.78223 0.35807,-0.45246 0.87565,-0.80077 1.55274,-1.04492 0.67708,-0.24413 1.46158,-0.3662 2.35351,-0.36621 0.88541,1e-5 1.60481,0.10418 2.1582,0.3125 0.55338,0.20834 0.96028,0.47039 1.22071,0.78613 0.2604,0.31577 0.4427,0.71453 0.54687,1.19629 0.0586,0.29949 0.0879,0.83985 0.0879,1.62109 l 0,2.34375 c -10e-6,1.63412 0.0374,2.66765 0.11231,3.10059 0.0749,0.43294 0.22297,0.84798 0.44433,1.24512 l -1.83593,0 c -0.1823,-0.36459 -0.29949,-0.79102 -0.35157,-1.2793 z m -0.14648,-3.92578 c -0.63803,0.26042 -1.59506,0.48177 -2.87109,0.66406 -0.72266,0.10417 -1.23373,0.22136 -1.53321,0.35156 -0.29948,0.13022 -0.5306,0.32065 -0.69336,0.57129 -0.16276,0.25066 -0.24414,0.52898 -0.24414,0.83496 0,0.46876 0.17741,0.85938 0.53223,1.17188 0.35481,0.3125 0.87402,0.46875 1.55762,0.46875 0.67707,0 1.27929,-0.14811 1.80664,-0.44434 0.52733,-0.29622 0.9147,-0.70149 1.16211,-1.21582 0.18879,-0.39713 0.28319,-0.98307 0.2832,-1.75781 z"
         style="font-size:20px"
         id="path4199"
         inkscape:connector-curvature="0" />
      <path
         d="m 557.85651,332.55597 1.72851,0.22461 c -0.18881,1.19141 -0.67221,2.12402 -1.45019,2.79785 -0.77801,0.67383 -1.73341,1.01074 -2.86621,1.01074 -1.41928,0 -2.56023,-0.46386 -3.42286,-1.3916 -0.86263,-0.92773 -1.29394,-2.25748 -1.29394,-3.98926 0,-1.11978 0.18554,-2.0996 0.55664,-2.93945 0.37109,-0.83983 0.93587,-1.46972 1.69434,-1.88965 0.75846,-0.41991 1.58365,-0.62987 2.47558,-0.62988 1.1263,1e-5 2.04752,0.28484 2.76367,0.85449 0.71614,0.56967 1.17512,1.37859 1.37696,2.42676 l -1.70899,0.26367 c -0.16277,-0.69661 -0.45085,-1.22069 -0.86426,-1.57227 -0.41341,-0.35155 -0.91309,-0.52733 -1.49902,-0.52734 -0.88542,1e-5 -1.60482,0.31739 -2.1582,0.95215 -0.55339,0.63477 -0.83008,1.639 -0.83008,3.01269 0,1.39324 0.26692,2.40561 0.80078,3.03711 0.53385,0.63152 1.23046,0.94727 2.08984,0.94727 0.6901,0 1.26627,-0.21159 1.72852,-0.63477 0.46223,-0.42317 0.7552,-1.07421 0.87891,-1.95312 z"
         style="font-size:20px"
         id="path4201"
         inkscape:connector-curvature="0" />
      <path
         d="m 561.08893,336.3548 0,-14.31641 1.75781,0 0,5.13672 c 0.82031,-0.95051 1.85546,-1.42577 3.10547,-1.42578 0.76822,1e-5 1.43554,0.15138 2.00195,0.4541 0.5664,0.30274 0.97167,0.72104 1.21582,1.25488 0.24413,0.53387 0.3662,1.3086 0.36621,2.32422 l 0,6.57227 -1.75781,0 0,-6.57227 c -10e-6,-0.8789 -0.19044,-1.51854 -0.57129,-1.91894 -0.38086,-0.40039 -0.9196,-0.60058 -1.61621,-0.60059 -0.52084,1e-5 -1.01075,0.1351 -1.46973,0.40527 -0.45898,0.27019 -0.78613,0.63641 -0.98144,1.09864 -0.19532,0.46224 -0.29297,1.10026 -0.29297,1.91406 l 0,5.67383 z"
         style="font-size:20px"
         id="path4203"
         inkscape:connector-curvature="0" />
      <path
         d="m 577.34869,331.75519 1.78711,-0.15625 c 0.0846,0.71615 0.28158,1.30371 0.59082,1.76269 0.30924,0.45899 0.78939,0.83008 1.44043,1.11328 0.65104,0.28321 1.38346,0.42481 2.19727,0.42481 0.72265,0 1.36067,-0.10742 1.91406,-0.32227 0.55338,-0.21484 0.96516,-0.50943 1.23535,-0.88379 0.27017,-0.37434 0.40527,-0.78287 0.40528,-1.22558 -10e-6,-0.44922 -0.13022,-0.84147 -0.39063,-1.17676 -0.26043,-0.33528 -0.69011,-0.61686 -1.28906,-0.84473 -0.38412,-0.14973 -1.23373,-0.38248 -2.54883,-0.69824 -1.31511,-0.31575 -2.23633,-0.6136 -2.76367,-0.89355 -0.6836,-0.35807 -1.19304,-0.8024 -1.52832,-1.33301 -0.33529,-0.53059 -0.50293,-1.12466 -0.50293,-1.78223 0,-0.72264 0.20508,-1.3981 0.61523,-2.02636 0.41016,-0.62825 1.00911,-1.10513 1.79688,-1.43067 0.78775,-0.3255 1.6634,-0.48826 2.62695,-0.48828 1.06119,2e-5 1.99706,0.17091 2.80762,0.5127 0.81054,0.34181 1.43391,0.84474 1.87012,1.50878 0.43618,0.66408 0.67056,1.41603 0.70312,2.25586 l -1.81641,0.13672 c -0.0977,-0.90493 -0.42807,-1.58853 -0.99121,-2.05078 -0.56316,-0.46223 -1.39486,-0.69334 -2.49511,-0.69336 -1.14584,2e-5 -1.9808,0.20998 -2.50489,0.62989 -0.52409,0.41993 -0.78613,0.92611 -0.78613,1.51855 0,0.51433 0.18554,0.93751 0.55664,1.26953 0.36458,0.33204 1.31673,0.67221 2.85645,1.02051 1.5397,0.34831 2.59602,0.65268 3.16894,0.91308 0.83332,0.38413 1.44856,0.87078 1.84571,1.45997 0.39712,0.58919 0.59569,1.2679 0.5957,2.03613 -10e-6,0.76172 -0.21811,1.47949 -0.6543,2.15332 -0.43621,0.67383 -1.06283,1.19792 -1.87988,1.57226 -0.81707,0.37435 -1.73666,0.56153 -2.75879,0.56153 -1.29558,0 -2.38119,-0.1888 -3.25684,-0.56641 -0.87565,-0.3776 -1.5625,-0.94564 -2.06054,-1.7041 -0.49805,-0.75846 -0.7601,-1.61621 -0.78614,-2.57324 z"
         style="font-size:20px"
         id="path4205"
         inkscape:connector-curvature="0" />
      <path
         d="m 594.96588,334.78253 0.25391,1.55274 c -0.4948,0.10416 -0.93751,0.15625 -1.32813,0.15625 -0.63802,0 -1.13281,-0.10092 -1.48437,-0.30274 -0.35157,-0.20182 -0.59896,-0.46712 -0.74219,-0.7959 -0.14323,-0.32877 -0.21485,-1.0205 -0.21484,-2.07519 l 0,-5.9668 -1.28907,0 0,-1.36719 1.28907,0 0,-2.56836 1.74804,-1.05468 0,3.62304 1.76758,0 0,1.36719 -1.76758,0 0,6.06445 c 0,0.50131 0.0309,0.82357 0.0928,0.9668 0.0618,0.14323 0.16275,0.25716 0.30273,0.3418 0.13997,0.0846 0.34017,0.12695 0.60059,0.12695 0.1953,0 0.45247,-0.0228 0.77148,-0.0684 z"
         style="font-size:20px"
         id="path4207"
         inkscape:connector-curvature="0" />
      <path
         d="m 596.65533,336.3548 0,-10.3711 1.58204,0 0,1.57227 c 0.40364,-0.73567 0.77636,-1.22069 1.11816,-1.45508 0.34179,-0.23436 0.71777,-0.35155 1.12793,-0.35156 0.59244,1e-5 1.19465,0.18881 1.80664,0.5664 l -0.60547,1.63086 c -0.42969,-0.25389 -0.85938,-0.38085 -1.28906,-0.38086 -0.38412,1e-5 -0.72917,0.11557 -1.03516,0.34668 -0.30599,0.23113 -0.52409,0.55177 -0.65429,0.96192 -0.19532,0.62501 -0.29298,1.3086 -0.29297,2.05078 l 0,5.42969 z"
         style="font-size:20px"
         id="path4209"
         inkscape:connector-curvature="0" />
      <path
         d="m 610.12213,335.0755 c -0.65105,0.55339 -1.27767,0.94401 -1.87988,1.17188 -0.60222,0.22786 -1.24838,0.34179 -1.93848,0.34179 -1.13932,0 -2.01497,-0.27832 -2.62695,-0.83496 -0.61198,-0.55664 -0.91797,-1.2679 -0.91797,-2.13379 0,-0.50781 0.11556,-0.97167 0.34668,-1.3916 0.23112,-0.41992 0.53385,-0.75683 0.9082,-1.01074 0.37435,-0.2539 0.7959,-0.44596 1.26465,-0.57617 0.34505,-0.0911 0.86588,-0.17903 1.5625,-0.26368 1.41927,-0.16926 2.46419,-0.37108 3.13477,-0.60546 0.007,-0.24088 0.01,-0.39388 0.01,-0.45899 -10e-6,-0.71614 -0.16602,-1.22069 -0.49804,-1.51367 -0.44923,-0.39713 -1.11655,-0.59569 -2.00196,-0.5957 -0.82682,1e-5 -1.43718,0.14486 -1.83105,0.43457 -0.39389,0.28972 -0.68523,0.80241 -0.87403,1.53808 l -1.71875,-0.23437 c 0.15625,-0.73567 0.41341,-1.32975 0.77149,-1.78223 0.35807,-0.45246 0.87565,-0.80077 1.55273,-1.04492 0.67708,-0.24413 1.46159,-0.3662 2.35352,-0.36621 0.88541,1e-5 1.60481,0.10418 2.1582,0.3125 0.55338,0.20834 0.96028,0.47039 1.22071,0.78613 0.2604,0.31577 0.44269,0.71453 0.54687,1.19629 0.0586,0.29949 0.0879,0.83985 0.0879,1.62109 l 0,2.34375 c -10e-6,1.63412 0.0374,2.66765 0.11231,3.10059 0.0749,0.43294 0.22297,0.84798 0.44433,1.24512 l -1.83594,0 c -0.1823,-0.36459 -0.29948,-0.79102 -0.35156,-1.2793 z m -0.14648,-3.92578 c -0.63803,0.26042 -1.59506,0.48177 -2.8711,0.66406 -0.72266,0.10417 -1.23372,0.22136 -1.5332,0.35156 -0.29948,0.13022 -0.5306,0.32065 -0.69336,0.57129 -0.16276,0.25066 -0.24414,0.52898 -0.24414,0.83496 0,0.46876 0.17741,0.85938 0.53223,1.17188 0.35481,0.3125 0.87402,0.46875 1.55761,0.46875 0.67708,0 1.27929,-0.14811 1.80664,-0.44434 0.52734,-0.29622 0.91471,-0.70149 1.16211,-1.21582 0.1888,-0.39713 0.2832,-0.98307 0.28321,-1.75781 z"
         style="font-size:20px"
         id="path4211"
         inkscape:connector-curvature="0" />
      <path
         d="m 614.49713,324.05988 0,-2.02149 1.75781,0 0,2.02149 z m 0,12.29492 0,-10.3711 1.75781,0 0,10.3711 z"
         style="font-size:20px"
         id="path4213"
         inkscape:connector-curvature="0" />
      <path
         d="m 618.61823,337.21417 1.70898,0.25391 c 0.0716,0.52734 0.27018,0.91145 0.5957,1.15234 0.4362,0.32552 1.0319,0.48828 1.78711,0.48828 0.8138,0 1.44205,-0.16276 1.88477,-0.48828 0.4427,-0.32552 0.74218,-0.78125 0.89844,-1.36719 0.0911,-0.35807 0.13345,-1.11002 0.12695,-2.25585 -0.76824,0.90494 -1.72527,1.35742 -2.8711,1.35742 -1.42578,0 -2.5293,-0.51433 -3.31054,-1.54297 -0.78125,-1.02864 -1.17188,-2.26237 -1.17188,-3.70117 0,-0.98958 0.17904,-1.90267 0.53711,-2.73926 0.35807,-0.83658 0.87728,-1.48274 1.55762,-1.93848 0.68033,-0.45572 1.47949,-0.68358 2.39746,-0.68359 1.22395,1e-5 2.23307,0.4948 3.02734,1.48437 l 0,-1.25 1.6211,0 0,8.96485 c -10e-6,1.61458 -0.1644,2.75879 -0.49317,3.43261 -0.32878,0.67383 -0.84961,1.20606 -1.5625,1.59668 -0.71289,0.39063 -1.59017,0.58594 -2.63183,0.58594 -1.23699,0 -2.23633,-0.27832 -2.99805,-0.83496 -0.76172,-0.55664 -1.12956,-1.39486 -1.10351,-2.51465 z m 1.45507,-6.23047 c 0,1.36068 0.27018,2.35352 0.81055,2.97852 0.54036,0.625 1.21744,0.9375 2.03125,0.9375 0.80729,0 1.48437,-0.31087 2.03125,-0.93262 0.54687,-0.62174 0.8203,-1.59667 0.82031,-2.9248 -10e-6,-1.26953 -0.28158,-2.22656 -0.84472,-2.8711 -0.56316,-0.64452 -1.24187,-0.96678 -2.03614,-0.96679 -0.78125,1e-5 -1.44531,0.31739 -1.99218,0.95215 -0.54688,0.63477 -0.82032,1.57715 -0.82032,2.82714 z"
         style="font-size:20px"
         id="path4215"
         inkscape:connector-curvature="0" />
      <path
         d="m 630.0733,336.3548 0,-14.31641 1.75782,0 0,5.13672 c 0.8203,-0.95051 1.85546,-1.42577 3.10546,-1.42578 0.76823,1e-5 1.43554,0.15138 2.00196,0.4541 0.5664,0.30274 0.97167,0.72104 1.21582,1.25488 0.24413,0.53387 0.3662,1.3086 0.36621,2.32422 l 0,6.57227 -1.75781,0 0,-6.57227 c -10e-6,-0.8789 -0.19044,-1.51854 -0.57129,-1.91894 -0.38087,-0.40039 -0.91961,-0.60058 -1.61621,-0.60059 -0.52084,1e-5 -1.01075,0.1351 -1.46973,0.40527 -0.45899,0.27019 -0.78614,0.63641 -0.98145,1.09864 -0.19531,0.46224 -0.29297,1.10026 -0.29296,1.91406 l 0,5.67383 z"
         style="font-size:20px"
         id="path4217"
         inkscape:connector-curvature="0" />
      <path
         d="m 645.04401,334.78253 0.2539,1.55274 c -0.49479,0.10416 -0.9375,0.15625 -1.32812,0.15625 -0.63803,0 -1.13282,-0.10092 -1.48438,-0.30274 -0.35156,-0.20182 -0.59896,-0.46712 -0.74218,-0.7959 -0.14324,-0.32877 -0.21485,-1.0205 -0.21485,-2.07519 l 0,-5.9668 -1.28906,0 0,-1.36719 1.28906,0 0,-2.56836 1.74805,-1.05468 0,3.62304 1.76758,0 0,1.36719 -1.76758,0 0,6.06445 c -10e-6,0.50131 0.0309,0.82357 0.0928,0.9668 0.0619,0.14323 0.16276,0.25716 0.30274,0.3418 0.13997,0.0846 0.34016,0.12695 0.60058,0.12695 0.19531,0 0.45247,-0.0228 0.77149,-0.0684 z"
         style="font-size:20px"
         id="path4219"
         inkscape:connector-curvature="0" />
    </g>
    <g
       style="font-size:40px;font-style:normal;font-weight:normal;line-height:125%;letter-spacing:0px;word-spacing:0px;fill:#000000;fill-opacity:1;stroke:none;font-family:Sans"
       id="text4029">
      <path
         d="m 433.49432,325.68878 0,-1.67969 6.06446,-0.01 0,5.3125 c -0.93101,0.74219 -1.89129,1.30046 -2.88086,1.6748 -0.9896,0.37435 -2.00522,0.56153 -3.04688,0.56153 -1.40625,0 -2.68392,-0.30111 -3.83301,-0.90332 -1.14909,-0.60222 -2.0166,-1.47298 -2.60253,-2.61231 -0.58594,-1.13932 -0.87891,-2.4121 -0.87891,-3.81836 0,-1.39322 0.29134,-2.69367 0.87402,-3.90136 0.58268,-1.20767 1.4209,-2.10448 2.51465,-2.69043 1.09375,-0.58593 2.35351,-0.8789 3.7793,-0.87891 1.03515,1e-5 1.97102,0.16766 2.80762,0.50293 0.83657,0.3353 1.4925,0.80242 1.96777,1.40137 0.47525,0.59897 0.83657,1.38022 1.08398,2.34375 l -1.70898,0.46875 c -0.21486,-0.72916 -0.48178,-1.30208 -0.80078,-1.71875 -0.31902,-0.41666 -0.77475,-0.75032 -1.36719,-1.00098 -0.59246,-0.25064 -1.25001,-0.37596 -1.97266,-0.37598 -0.86589,2e-5 -1.61459,0.13185 -2.24609,0.39551 -0.63152,0.26368 -1.14096,0.61036 -1.52832,1.04004 -0.38737,0.4297 -0.68848,0.9017 -0.90332,1.41602 -0.36459,0.88542 -0.54688,1.84571 -0.54688,2.88085 0,1.27605 0.21973,2.34376 0.65918,3.20313 0.43945,0.85938 1.0791,1.4974 1.91895,1.91406 0.83984,0.41667 1.73176,0.625 2.67578,0.625 0.8203,0 1.62108,-0.15787 2.40234,-0.47363 0.78124,-0.31575 1.37369,-0.65267 1.77735,-1.01074 l 0,-2.66602 z"
         style="font-size:20px"
         id="path4222"
         inkscape:connector-curvature="0" />
      <path
         d="m 448.88495,330.02472 c -0.65105,0.55339 -1.27768,0.94401 -1.87988,1.17187 -0.60222,0.22787 -1.24838,0.3418 -1.93848,0.3418 -1.13933,0 -2.01498,-0.27832 -2.62695,-0.83496 -0.61198,-0.55664 -0.91797,-1.2679 -0.91797,-2.13379 0,-0.50781 0.11556,-0.97167 0.34668,-1.3916 0.23112,-0.41992 0.53385,-0.75683 0.9082,-1.01074 0.37435,-0.2539 0.7959,-0.44596 1.26465,-0.57617 0.34505,-0.0911 0.86588,-0.17904 1.5625,-0.26368 1.41926,-0.16926 2.46418,-0.37108 3.13476,-0.60547 0.007,-0.24087 0.01,-0.39387 0.01,-0.45898 -1e-5,-0.71614 -0.16602,-1.22069 -0.49805,-1.51367 -0.44922,-0.39713 -1.11654,-0.5957 -2.00195,-0.5957 -0.82683,0 -1.43718,0.14486 -1.83105,0.43457 -0.39389,0.28972 -0.68523,0.80241 -0.87403,1.53808 l -1.71875,-0.23437 c 0.15625,-0.73567 0.41341,-1.32975 0.77149,-1.78223 0.35807,-0.45246 0.87564,-0.80077 1.55273,-1.04492 0.67708,-0.24413 1.46158,-0.3662 2.35352,-0.36621 0.88541,10e-6 1.60481,0.10417 2.1582,0.3125 0.55338,0.20834 0.96028,0.47038 1.2207,0.78613 0.26041,0.31576 0.4427,0.71453 0.54688,1.19629 0.0586,0.29949 0.0879,0.83985 0.0879,1.62109 l 0,2.34375 c -1e-5,1.63412 0.0374,2.66765 0.1123,3.10059 0.0749,0.43294 0.22297,0.84798 0.44434,1.24512 l -1.83594,0 c -0.1823,-0.36459 -0.29949,-0.79102 -0.35156,-1.2793 z m -0.14649,-3.92578 c -0.63802,0.26042 -1.59505,0.48177 -2.87109,0.66406 -0.72266,0.10417 -1.23373,0.22136 -1.5332,0.35156 -0.29948,0.13022 -0.5306,0.32064 -0.69336,0.57129 -0.16276,0.25066 -0.24415,0.52898 -0.24414,0.83496 -10e-6,0.46876 0.1774,0.85938 0.53222,1.17188 0.35482,0.3125 0.87402,0.46875 1.55762,0.46875 0.67708,0 1.27929,-0.14811 1.80664,-0.44434 0.52734,-0.29622 0.91471,-0.70149 1.16211,-1.21582 0.1888,-0.39713 0.2832,-0.98307 0.2832,-1.75781 z"
         style="font-size:20px"
         id="path4224"
         inkscape:connector-curvature="0" />
      <path
         d="m 457.08807,329.73175 0.25391,1.55273 c -0.4948,0.10417 -0.9375,0.15625 -1.32813,0.15625 -0.63802,0 -1.13281,-0.10091 -1.48437,-0.30273 -0.35156,-0.20182 -0.59896,-0.46712 -0.74219,-0.7959 -0.14323,-0.32877 -0.21484,-1.0205 -0.21484,-2.07519 l 0,-5.9668 -1.28906,0 0,-1.36719 1.28906,0 0,-2.56836 1.74805,-1.05468 0,3.62304 1.76757,0 0,1.36719 -1.76757,0 0,6.06445 c -10e-6,0.50131 0.0309,0.82357 0.0928,0.9668 0.0618,0.14323 0.16276,0.25716 0.30273,0.3418 0.13997,0.0846 0.34017,0.12695 0.60059,0.12695 0.19531,0 0.45247,-0.0228 0.77148,-0.0684 z"
         style="font-size:20px"
         id="path4226"
         inkscape:connector-curvature="0" />
      <path
         d="m 465.89667,327.96417 1.8164,0.22461 c -0.28646,1.0612 -0.81706,1.88477 -1.59179,2.4707 -0.77475,0.58594 -1.76433,0.87891 -2.96875,0.87891 -1.51693,0 -2.71973,-0.46712 -3.6084,-1.40137 -0.88867,-0.93424 -1.33301,-2.24446 -1.33301,-3.93066 0,-1.74478 0.44922,-3.09895 1.34766,-4.0625 0.89843,-0.96353 2.06379,-1.4453 3.49609,-1.44531 1.38671,10e-6 2.51952,0.47201 3.39844,1.41601 0.87889,0.94402 1.31835,2.27215 1.31836,3.98438 -10e-6,0.10417 -0.003,0.26042 -0.01,0.46875 l -7.73437,0 c 0.0651,1.13932 0.38736,2.01172 0.96679,2.61719 0.57943,0.60547 1.30208,0.9082 2.16797,0.9082 0.64453,0 1.19466,-0.16927 1.65039,-0.50781 0.45572,-0.33854 0.81705,-0.87891 1.08399,-1.6211 z m -5.77149,-2.84179 5.79102,0 c -0.0781,-0.87239 -0.29949,-1.52669 -0.66406,-1.9629 -0.55991,-0.67707 -1.28582,-1.01561 -2.17774,-1.01562 -0.80729,10e-6 -1.486,0.27019 -2.03613,0.81055 -0.55013,0.54037 -0.8545,1.26302 -0.91309,2.16797 z"
         style="font-size:20px"
         id="path4228"
         inkscape:connector-curvature="0" />
    </g>
    <g
       style="font-size:40px;font-style:normal;font-weight:normal;line-height:125%;letter-spacing:0px;word-spacing:0px;fill:#000000;fill-opacity:1;stroke:none;font-family:Sans"
       id="text4033">
      <path
         d="m 383.39758,267.66443 0,-14.31641 10.35157,0 0,1.68946 -8.45704,0 0,4.38476 7.91993,0 0,1.67969 -7.91993,0 0,4.87305 8.78907,0 0,1.68945 z"
         style="font-size:20px"
         id="path4231"
         inkscape:connector-curvature="0" />
      <path
         d="m 395.79016,264.56873 1.73828,-0.27344 c 0.0977,0.69662 0.36947,1.23047 0.81543,1.60156 0.44596,0.3711 1.06933,0.55664 1.87012,0.55664 0.80729,0 1.40624,-0.16439 1.79687,-0.49316 0.39062,-0.32878 0.58593,-0.71452 0.58594,-1.15723 -10e-6,-0.39713 -0.17253,-0.70963 -0.51758,-0.9375 -0.24089,-0.15625 -0.83985,-0.35481 -1.79687,-0.5957 -1.28907,-0.32552 -2.18262,-0.60709 -2.68067,-0.84473 -0.49804,-0.23762 -0.87565,-0.5664 -1.13281,-0.98633 -0.25716,-0.41991 -0.38574,-0.88378 -0.38574,-1.3916 0,-0.46223 0.10579,-0.89029 0.31738,-1.28418 0.21159,-0.39387 0.49968,-0.72102 0.86426,-0.98144 0.27344,-0.20182 0.64616,-0.37271 1.11816,-0.5127 0.47201,-0.13996 0.97819,-0.20995 1.51856,-0.20996 0.8138,10e-6 1.52831,0.1172 2.14355,0.35156 0.61523,0.23439 1.06933,0.55177 1.36231,0.95215 0.29296,0.4004 0.49478,0.93588 0.60547,1.60645 l -1.71875,0.23437 c -0.0781,-0.53384 -0.30437,-0.95051 -0.67871,-1.25 -0.37436,-0.29947 -0.90333,-0.44921 -1.58692,-0.44922 -0.80729,10e-6 -1.38346,0.13348 -1.72851,0.40039 -0.34506,0.26694 -0.51758,0.57944 -0.51758,0.9375 0,0.22788 0.0716,0.43295 0.21484,0.61524 0.14323,0.18881 0.36784,0.34506 0.67383,0.46875 0.17578,0.0651 0.69336,0.21485 1.55273,0.44922 1.24349,0.33203 2.111,0.60384 2.60254,0.81543 0.49153,0.21159 0.87727,0.51921 1.15723,0.92285 0.27994,0.40365 0.41991,0.90495 0.41992,1.5039 -10e-6,0.58594 -0.17091,1.1377 -0.51269,1.65528 -0.34181,0.51758 -0.83497,0.91797 -1.4795,1.20117 -0.64453,0.2832 -1.3737,0.4248 -2.1875,0.4248 -1.34766,0 -2.37467,-0.27994 -3.08105,-0.83984 -0.70638,-0.55989 -1.15723,-1.38997 -1.35254,-2.49023 z"
         style="font-size:20px"
         id="path4233"
         inkscape:connector-curvature="0" />
      <path
         d="m 405.79016,264.56873 1.73828,-0.27344 c 0.0977,0.69662 0.36947,1.23047 0.81543,1.60156 0.44596,0.3711 1.06933,0.55664 1.87012,0.55664 0.80729,0 1.40624,-0.16439 1.79687,-0.49316 0.39062,-0.32878 0.58593,-0.71452 0.58594,-1.15723 -10e-6,-0.39713 -0.17253,-0.70963 -0.51758,-0.9375 -0.24089,-0.15625 -0.83985,-0.35481 -1.79687,-0.5957 -1.28907,-0.32552 -2.18262,-0.60709 -2.68067,-0.84473 -0.49804,-0.23762 -0.87565,-0.5664 -1.13281,-0.98633 -0.25716,-0.41991 -0.38574,-0.88378 -0.38574,-1.3916 0,-0.46223 0.10579,-0.89029 0.31738,-1.28418 0.21159,-0.39387 0.49968,-0.72102 0.86426,-0.98144 0.27344,-0.20182 0.64616,-0.37271 1.11816,-0.5127 0.47201,-0.13996 0.97819,-0.20995 1.51856,-0.20996 0.8138,10e-6 1.52831,0.1172 2.14355,0.35156 0.61523,0.23439 1.06933,0.55177 1.36231,0.95215 0.29296,0.4004 0.49478,0.93588 0.60547,1.60645 l -1.71875,0.23437 c -0.0781,-0.53384 -0.30437,-0.95051 -0.67871,-1.25 -0.37436,-0.29947 -0.90333,-0.44921 -1.58692,-0.44922 -0.80729,10e-6 -1.38346,0.13348 -1.72851,0.40039 -0.34506,0.26694 -0.51758,0.57944 -0.51758,0.9375 0,0.22788 0.0716,0.43295 0.21484,0.61524 0.14323,0.18881 0.36784,0.34506 0.67383,0.46875 0.17578,0.0651 0.69336,0.21485 1.55273,0.44922 1.24349,0.33203 2.111,0.60384 2.60254,0.81543 0.49153,0.21159 0.87727,0.51921 1.15723,0.92285 0.27994,0.40365 0.41991,0.90495 0.41992,1.5039 -10e-6,0.58594 -0.17091,1.1377 -0.51269,1.65528 -0.34181,0.51758 -0.83497,0.91797 -1.4795,1.20117 -0.64453,0.2832 -1.3737,0.4248 -2.1875,0.4248 -1.34766,0 -2.37467,-0.27994 -3.08105,-0.83984 -0.70638,-0.55989 -1.15723,-1.38997 -1.35254,-2.49023 z"
         style="font-size:20px"
         id="path4235"
         inkscape:connector-curvature="0" />
      <path
         d="m 423.5929,264.32458 1.8164,0.22461 c -0.28647,1.0612 -0.81706,1.88477 -1.5918,2.47071 -0.77474,0.58594 -1.76432,0.8789 -2.96875,0.8789 -1.51693,0 -2.71972,-0.46712 -3.60839,-1.40136 -0.88868,-0.93425 -1.33301,-2.24447 -1.33301,-3.93067 0,-1.74478 0.44922,-3.09895 1.34765,-4.0625 0.89844,-0.96353 2.0638,-1.4453 3.4961,-1.44531 1.38671,10e-6 2.51952,0.47202 3.39844,1.41602 0.87889,0.94401 1.31835,2.27214 1.31836,3.98437 -10e-6,0.10417 -0.003,0.26042 -0.01,0.46875 l -7.73438,0 c 0.0651,1.13933 0.38737,2.01172 0.9668,2.61719 0.57942,0.60547 1.30208,0.9082 2.16797,0.9082 0.64453,0 1.19466,-0.16927 1.65039,-0.50781 0.45572,-0.33854 0.81705,-0.8789 1.08399,-1.6211 z m -5.77149,-2.84179 5.79102,0 c -0.0781,-0.87239 -0.29949,-1.52669 -0.66407,-1.96289 -0.5599,-0.67708 -1.28581,-1.01562 -2.17773,-1.01563 -0.8073,10e-6 -1.48601,0.27019 -2.03613,0.81055 -0.55014,0.54037 -0.8545,1.26303 -0.91309,2.16797 z"
         style="font-size:20px"
         id="path4237"
         inkscape:connector-curvature="0" />
      <path
         d="m 426.92297,264.56873 1.73828,-0.27344 c 0.0977,0.69662 0.36947,1.23047 0.81543,1.60156 0.44596,0.3711 1.06934,0.55664 1.87012,0.55664 0.80729,0 1.40625,-0.16439 1.79688,-0.49316 0.39061,-0.32878 0.58593,-0.71452 0.58593,-1.15723 0,-0.39713 -0.17253,-0.70963 -0.51757,-0.9375 -0.2409,-0.15625 -0.83985,-0.35481 -1.79688,-0.5957 -1.28907,-0.32552 -2.18262,-0.60709 -2.68066,-0.84473 -0.49805,-0.23762 -0.87566,-0.5664 -1.13282,-0.98633 -0.25716,-0.41991 -0.38574,-0.88378 -0.38574,-1.3916 0,-0.46223 0.1058,-0.89029 0.31739,-1.28418 0.21158,-0.39387 0.49967,-0.72102 0.86425,-0.98144 0.27344,-0.20182 0.64616,-0.37271 1.11817,-0.5127 0.472,-0.13996 0.97818,-0.20995 1.51855,-0.20996 0.8138,10e-6 1.52832,0.1172 2.14356,0.35156 0.61522,0.23439 1.06932,0.55177 1.3623,0.95215 0.29296,0.4004 0.49478,0.93588 0.60547,1.60645 l -1.71875,0.23437 c -0.0781,-0.53384 -0.30437,-0.95051 -0.67871,-1.25 -0.37436,-0.29947 -0.90333,-0.44921 -1.58692,-0.44922 -0.80729,10e-6 -1.38346,0.13348 -1.72851,0.40039 -0.34506,0.26694 -0.51758,0.57944 -0.51758,0.9375 0,0.22788 0.0716,0.43295 0.21484,0.61524 0.14323,0.18881 0.36784,0.34506 0.67383,0.46875 0.17578,0.0651 0.69336,0.21485 1.55274,0.44922 1.24348,0.33203 2.11099,0.60384 2.60254,0.81543 0.49152,0.21159 0.87727,0.51921 1.15722,0.92285 0.27994,0.40365 0.41992,0.90495 0.41992,1.5039 0,0.58594 -0.1709,1.1377 -0.51269,1.65528 -0.34181,0.51758 -0.83497,0.91797 -1.47949,1.20117 -0.64454,0.2832 -1.37371,0.4248 -2.1875,0.4248 -1.34766,0 -2.37468,-0.27994 -3.08106,-0.83984 -0.70638,-0.55989 -1.15722,-1.38997 -1.35254,-2.49023 z"
         style="font-size:20px"
         id="path4239"
         inkscape:connector-curvature="0" />
    </g>
    <g
       transform="matrix(0.82979612,-0.55806666,0.55806666,0.82979612,0,0)"
       style="font-size:40px;font-style:normal;font-weight:normal;line-height:125%;letter-spacing:0px;word-spacing:0px;fill:#ff0000;fill-opacity:1;stroke:none;font-family:Sans"
       id="text4037">
      <path
         d="m -19.904705,294.12296 16.71875,0 -25.3125,-7.96875 z m -13.59375,-10.9375 34.21874995,10.9375 -34.21874995,10.9375 11.5625,-10.9375 z"
         id="path4242"
         inkscape:connector-curvature="0" />
    </g>
    <g
       transform="matrix(-0.99994437,0.01054815,-0.01054815,-0.99994437,0,0)"
       style="font-size:40px;font-style:normal;font-weight:normal;line-height:125%;letter-spacing:0px;word-spacing:0px;fill:#ff0000;fill-opacity:1;stroke:none;font-family:Sans"
       id="text4037-6">
      <path
         d="m -486.95166,-294.12759 16.71875,0 -25.3125,-7.96875 z m -13.59375,-10.9375 34.21875,10.9375 -34.21875,10.9375 11.5625,-10.9375 z"
         id="path4245"
         inkscape:connector-curvature="0" />
    </g>
  </g>
</svg>
