<?xml version="1.0" encoding="UTF-8" standalone="no"?>
<svg
   xmlns:dc="http://purl.org/dc/elements/1.1/"
   xmlns:cc="http://creativecommons.org/ns#"
   xmlns:rdf="http://www.w3.org/1999/02/22-rdf-syntax-ns#"
   xmlns:svg="http://www.w3.org/2000/svg"
   xmlns="http://www.w3.org/2000/svg"
   version="1.1"
   width="500"
   height="300"
   id="svg2">
  <defs
     id="defs13" />
  <metadata
     id="metadata7">
    <rdf:RDF>
      <cc:Work
         rdf:about="">
        <dc:format>image/svg+xml</dc:format>
        <dc:type
           rdf:resource="http://purl.org/dc/dcmitype/StillImage" />
        <dc:title />
      </cc:Work>
    </rdf:RDF>
  </metadata>
  <g
     transform="translate(-97.143 -172.36)"
     id="g2992">
    <rect
       fill="#ffce35"
       x="97.143"
       y="172.36"
       width="500"
       height="300"
       ry="37.5"
       rx="37.5"
       id="rect2985" />
    <path
       d="m134.66 179.88c-16.62 0-30 13.38-30 30v225c0 16.62 13.38 30 30 30h425c16.62 0 30-13.38 30-30v-225c0-16.62-13.38-30-30-30h-425zm-1.0312 10c0.34182-0.0172 0.685 0 1.0312 0h425c11.08 0 20 8.92 20 20v225c0 11.08-8.92 20-20 20h-425c-11.08 0-20-8.92-20-20v-225c0-10.734 8.3722-19.466 18.969-20z"
       id="rect2987" />
  </g>
  <g
     id="routenum">
    <path
       d="m132.64 218.94h-74.286v-25.788l65.788-143.15h37.07v143.15h8.6447v25.788h-8.6447v31.062h-28.571v-31.062zm0-25.788v-93.48l-43.077 93.48h43.077z"
       style=""
       id="path12" />
    <path
       d="m265.97 218.94h-74.286v-25.788l65.788-143.15h37.07v143.15h8.6447v25.788h-8.6447v31.062h-28.571v-31.062zm0-25.788v-93.48l-43.077 93.48h43.077z"
       style=""
       id="path14" />
    <path
       d="m399.01 218.94h-74.286v-25.788l65.788-143.15h37.07v143.15h8.6447v25.788h-8.6447v31.062h-28.571v-31.062zm0-25.788v-93.48l-43.077 93.48h43.077z"
       style=""
       id="path16" />
  </g>
</svg>
