<?xml version="1.0" encoding="UTF-8" standalone="no"?>
<!-- Created with Inkscape (http://www.inkscape.org/) -->

<svg
   xmlns:dc="http://purl.org/dc/elements/1.1/"
   xmlns:cc="http://creativecommons.org/ns#"
   xmlns:rdf="http://www.w3.org/1999/02/22-rdf-syntax-ns#"
   xmlns:svg="http://www.w3.org/2000/svg"
   xmlns="http://www.w3.org/2000/svg"
   xmlns:sodipodi="http://sodipodi.sourceforge.net/DTD/sodipodi-0.dtd"
   xmlns:inkscape="http://www.inkscape.org/namespaces/inkscape"
   width="404.89902mm"
   height="521.5365mm"
   viewBox="0 0 404.89902 521.5365"
   version="1.1"
   id="svg827"
   inkscape:version="0.92.3 (2405546, 2018-03-11)"
   sodipodi:docname="dibujo.svg">
  <defs
     id="defs821" />
  <sodipodi:namedview
     id="base"
     pagecolor="#ffffff"
     bordercolor="#666666"
     borderopacity="1.0"
     inkscape:pageopacity="0.0"
     inkscape:pageshadow="2"
     inkscape:zoom="0.0875"
     inkscape:cx="875.18931"
     inkscape:cy="225.7811"
     inkscape:document-units="mm"
     inkscape:current-layer="layer1"
     showgrid="false"
     fit-margin-top="0"
     fit-margin-left="0"
     fit-margin-right="0"
     fit-margin-bottom="0"
     inkscape:window-width="1280"
     inkscape:window-height="663"
     inkscape:window-x="0"
     inkscape:window-y="0"
     inkscape:window-maximized="1" />
  <metadata
     id="metadata824">
    <rdf:RDF>
      <cc:Work
         rdf:about="">
        <dc:format>image/svg+xml</dc:format>
        <dc:type
           rdf:resource="http://purl.org/dc/dcmitype/StillImage" />
        <dc:title></dc:title>
      </cc:Work>
    </rdf:RDF>
  </metadata>
  <g
     inkscape:label="Capa 1"
     inkscape:groupmode="layer"
     id="layer1"
     transform="translate(699.66392,150.20244)">
    <path
       style="fill:#d9271d;fill-opacity:1;stroke:#da261d;stroke-width:3.83800006;stroke-miterlimit:4;stroke-dasharray:none;stroke-opacity:1"
       d="m -494.44689,365.10008 c -9.6746,-21.43945 -24.2902,-34.43242 -49.9677,-44.41996 -21.6158,-8.40772 -44.2681,-11.86154 -83.3642,-12.71056 -29.4551,-0.63968 -36.3972,-1.65621 -44.7535,-6.55333 -13.2113,-7.74237 -19.7081,-20.30889 -22.495,-43.51164 -0.8044,-6.69661 -0.9665,-68.37996 -0.5382,-204.72834 0.3373,-107.329286 0.7996,-195.74859 1.0274,-196.48719 0.2816,-0.91263 2.2227,-0.18683 6.0581,2.26513 9.6055,6.14089 31.8024,16.81692 44.1304,21.22538 11.8107,4.22348 14.2674,4.8635 29.8129,7.76694 38.7206,7.23188 81.484,-2.76304 119.2406,-27.86957 4.8545,-3.228 8.1179,-4.73481 9.2848,-4.28703 0.9897,0.37977 8.1962,4.77427 16.0146,9.76557 15.61376,9.96801 26.81302,15.19596 41.24498,19.25369 36.52687,10.27002 76.95322,2.43921 119.86387,-23.21822 7.9539,-4.75584 13.04978,-7.20183 13.68356,-6.56803 0.63381,0.63379 0.625,32.03844 -0.0236,84.3286 -0.56845,45.825235 -1.33241,134.073078 -1.69769,196.10622 -0.74923,127.23712 -0.94438,131.06362 -7.37595,144.61682 -8.27008,17.42758 -20.86772,23.08845 -55.13867,24.7771 -52.95709,2.60942 -86.74353,11.70556 -106.7576,28.74179 -11.5801,9.85718 -17.5824,19.49352 -23.2873,37.38655 -0.914,2.86676 -1.1309,2.6098 -4.9618,-5.87992 z m 9.2035,-19.94098 c 4.9496,-8.01899 16.7146,-19.10911 26.033,-24.53971 22.06766,-12.86065 48.04056,-18.86545 95.49385,-22.0777 28.7247,-1.94448 29.64913,-2.08696 37.94461,-5.8483 6.73896,-3.05559 12.85208,-9.00766 15.94448,-15.52443 5.05079,-10.64375 5.07214,-11.01671 6.00366,-104.82803 1.4987,-150.935916 1.71833,-302.8267 0.43973,-304.11108 -0.80891,-0.81257 -5.30619,0.97661 -15.50162,6.16714 -42.52145,21.64784 -77.62488,26.803045 -113.08111,16.60681 -11.18894,-3.21763 -30.2276,-12.47823 -47.6818,-23.19285 -3.4934,-2.14448 -6.9642,-3.89905 -7.7129,-3.89905 -0.7487,0 -4.9265,2.16443 -9.2838,4.80985 -19.9639,12.12039 -45.8173,22.37097 -64.8507,25.71254 -14.3865,2.52575 -40.0994,2.55114 -54.523,0.0538 -15.4746,-2.67928 -36.6314,-9.82182 -54.6089,-18.43596 -14.4899,-6.94294 -15.1781,-7.15898 -16.6025,-5.2111 -1.2556,1.71716 -1.4859,32.148358 -1.4859,196.333788 0,171.953482 0.1911,195.125602 1.6619,201.467272 4.0817,17.60008 13.6418,28.03014 28.8515,31.477 2.9154,0.66069 17.3278,1.35504 32.0277,1.54303 28.5458,0.36504 43.8871,1.94323 63.4017,6.52229 28.7065,6.73595 51.4893,20.01473 64.5361,37.61441 5.6894,7.67475 7.9301,7.56441 12.994,-0.63976 z"
       id="path2485"
       inkscape:connector-curvature="0" />
    <path
       style="fill:#ffffff;fill-opacity:1;stroke:none;stroke-width:18.71999931;stroke-miterlimit:4;stroke-dasharray:none;stroke-opacity:1"
       d="m -500.22336,339.63044 c -9.17863,-10.46424 -25.83659,-21.537 -41.47095,-27.56625 -20.23327,-7.80277 -39.40368,-10.83402 -81.08508,-12.82134 -35.31555,-1.68375 -38.21822,-2.03996 -44.20243,-5.42419 -3.52266,-1.99216 -8.16173,-6.15731 -10.30906,-9.25595 -8.57631,-12.37556 -8.23257,-3.34835 -8.23257,-216.199313 V -127.82049 l 16.25299,7.2592 c 24.6068,10.9904 43.94422,16.66173 63.46684,18.6137 34.57221,3.456704 63.86677,-2.93005 100.65369,-21.94439 l 18.06049,-9.33503 6.23834,3.58956 c 15.45625,8.89352 38.74352,20.05801 47.44157,22.74457 32.61436,10.073586 66.25926,6.06757 108.16885,-12.87947 10.03446,-4.53649 18.63076,-7.86121 19.10288,-7.38826 1.21592,1.21806 0.12186,309.40194 -1.26337,355.90254 -1.28005,42.9669 -2.40903,48.19107 -12.19373,56.42435 -8.23584,6.93002 -13.7976,8.27445 -44.922,10.85903 -45.98697,3.81878 -70.03029,9.0125 -91.29099,19.72014 -9.83091,4.9512 -22.83499,15.95019 -29.34832,24.82313 -3.07398,4.18758 -6.04137,7.60523 -6.59421,7.59473 -0.55285,-0.0106 -4.36565,-3.85027 -8.47294,-8.53287 z"
       id="path2621"
       inkscape:connector-curvature="0" />
    <path
       style="fill:#ff0000;fill-opacity:1;stroke:none;stroke-width:16.01439857;stroke-miterlimit:4;stroke-dasharray:none;stroke-opacity:1"
       d=""
       id="path902"
       inkscape:connector-curvature="0"
       transform="scale(0.26458333)" />
    <path
       style="fill:#f9f9f9;fill-opacity:1;stroke:none;stroke-width:32.02879715;stroke-miterlimit:4;stroke-dasharray:none;stroke-opacity:1"
       d=""
       id="path2391"
       inkscape:connector-curvature="0"
       transform="scale(0.26458333)" />
    <path
       style="fill:#da261d;fill-opacity:1;stroke:none;stroke-width:128.03707886;stroke-miterlimit:4;stroke-dasharray:none;stroke-opacity:1"
       d="m -2491.4749,1055.3508 c -14.1576,-6.1575 -32.3403,-23.2888 -40.4061,-38.0695 -13.7137,-25.13039 -14.8313,-64.88417 -17.2266,-612.76238 -1.4088,-322.238665 -0.1507,-637.12797 2.7959,-699.754 l 5.3572,-113.86551 61.854,22.82921 c 34.0196,12.55606 77.3092,26.66108 96.1991,31.34449 l 34.3452,8.51528 v 701.81217 701.81214 l -18.1828,4.8728 c -31.6113,8.4715 -98.0171,4.8861 -124.7359,-6.7347 z"
       id="path2487"
       inkscape:connector-curvature="0"
       transform="scale(0.26458333)" />
    <path
       style="fill:#da261d;fill-opacity:1;stroke:none;stroke-width:128.03707886;stroke-miterlimit:4;stroke-dasharray:none;stroke-opacity:1"
       d="m -2146.5257,-156.70046 c 0,-139.14354 2.4107,-183.51062 10.1015,-185.90473 5.5558,-1.72951 41.0122,-11.98061 78.7919,-22.7802 37.7797,-10.7996 75.0543,-22.3874 82.8325,-25.75067 13.2026,-5.70877 14.1421,4.68047 14.1421,156.37397 0,124.60033 -2.3554,162.490492 -10.1015,162.495382 -17.9241,0.01131 -112.2848,48.047881 -144.4944,73.5583623 l -31.2721,24.7680267 z"
       id="path2489"
       inkscape:connector-curvature="0"
       transform="scale(0.26458333)" />
    <path
       style="fill:#da261d;fill-opacity:1;stroke:none;stroke-width:128.03707886;stroke-miterlimit:4;stroke-dasharray:none;stroke-opacity:1"
       d="m -1623.9993,-13.530072 c -21.5151,-15.940845 -61.5172,-37.091047 -88.8934,-47.000442 l -49.7751,-18.017089 -2.1906,-163.457707 c -2.0605,-153.75113 -1.3406,-163.10116 12.1219,-157.45366 56.6371,23.75919 97.9905,37.91375 132.2045,45.25134 l 39.6917,8.51234 v 181.15781 c 0,99.636804 -0.9091,180.895236 -2.0203,180.574299 -1.1112,-0.320906 -19.6236,-13.6260369 -41.1387,-29.566891 z"
       id="path2491"
       inkscape:connector-curvature="0"
       transform="scale(0.26458333)" />
    <path
       style="fill:#da261d;fill-opacity:1;stroke:none;stroke-width:128.03707886;stroke-miterlimit:4;stroke-dasharray:none;stroke-opacity:1"
       d="m -1394.9722,349.3793 v -703.76273 l 30.3045,-5.5 c 16.6676,-3.02501 57.1303,-16.06312 89.9172,-28.97357 32.7869,-12.91046 60.9445,-22.14168 62.5724,-20.51381 1.6278,1.62786 -0.08,313.607355 -3.7955,693.28776 -4.8433,494.94252 -9.4425,697.23688 -16.2497,714.73822 -13.54,34.81143 -37.401,46.43073 -104.1601,50.72133 l -58.5888,3.7655 z"
       id="path2493"
       inkscape:connector-curvature="0"
       transform="scale(0.26458333)" />
    <path
       style="fill:#da261d;fill-opacity:1;stroke:none;stroke-width:128.03707886;stroke-miterlimit:4;stroke-dasharray:none;stroke-opacity:1"
       d="m -1764.8205,924.73661 2.1527,-215.63695 42.9649,-14.60052 c 23.6306,-8.03029 64.5418,-29.0091 90.9137,-46.61957 l 47.9489,-32.01905 V 844.31475 1072.769 l -62.28,18.0962 c -34.254,9.9529 -76.1339,25.164 -93.0665,33.8023 l -30.7864,15.7061 z"
       id="path2495"
       inkscape:connector-curvature="0"
       transform="scale(0.26458333)" />
    <path
       style="fill:#da261d;fill-opacity:1;stroke:none;stroke-width:128.03707886;stroke-miterlimit:4;stroke-dasharray:none;stroke-opacity:1"
       d="m -2021.2668,1123.7147 c -31.1127,-12.9702 -72.0239,-27.5004 -90.9137,-32.2892 l -34.3452,-8.707 V 843.95489 605.19131 l 31.8605,25.234 c 17.5233,13.87871 59.3436,37.93197 92.934,53.4517 l 61.0735,28.2177 v 217.94824 c 0,119.87155 -0.9091,217.79205 -2.0203,217.60115 -1.1111,-0.1909 -27.4761,-10.9591 -58.5888,-23.9294 z"
       id="path2497"
       inkscape:connector-curvature="0"
       transform="scale(0.26458333)" />
    <path
       style="fill:#da261d;fill-opacity:1;stroke:#da261d;stroke-width:15.11811066;stroke-miterlimit:4;stroke-dasharray:none;stroke-opacity:1"
       d="m -2125.3011,560.73722 -27.5,-23.81042 1.9559,-201.3476 c 1.8698,-192.48934 13.1634,-204.94655 26.4076,-208.78934 17.8323,-5.17402 91.3324,-7.24682 214.2876,-6.04318 l 94.9543,0.92952 v 64.3851 64.38509 l -90.9137,2.28498 -90.9138,2.28497 -4.0406,149.50258 13.195,175.52323 z"
       id="path2499"
       inkscape:connector-curvature="0"
       transform="scale(0.26458333)"
       sodipodi:nodetypes="ccssscccccccc" />
    <path
       style="fill:#ff0000;fill-opacity:1;stroke:none;stroke-width:128.03707886;stroke-miterlimit:4;stroke-dasharray:none;stroke-opacity:1"
       d=""
       id="path2501"
       inkscape:connector-curvature="0"
       transform="scale(0.26458333)" />
    <path
       style="fill:#da261d;fill-opacity:1;stroke:#da261d;stroke-width:16.53921318;stroke-miterlimit:4;stroke-dasharray:none;stroke-opacity:1"
       d="m -1650.4734,223.27552 c 3.5742,-13.93304 9.0239,-43.46721 9.0239,-66.2488 0,-37.98657 -9.7715,-44.97587 5.0508,-39.60273 25.9175,9.39521 50.469,49.46748 42.3483,87.78485 -6.0994,28.77966 -15.4558,32.68289 -38.7453,37.44017 -26.6066,5.43487 -24.153,5.86927 -17.6777,-19.37349 z"
       id="path2503"
       inkscape:connector-curvature="0"
       transform="scale(0.26458333)"
       sodipodi:nodetypes="csscsc" />
    <path
       style="fill:#da261d;fill-opacity:1;stroke:#da261d;stroke-width:12.38173199;stroke-miterlimit:4;stroke-dasharray:none;stroke-opacity:1"
       d="m -1641.9546,494.55452 c -4.3473,-69.26133 -14.8238,-69.95354 19.7574,-66.30077 36.8758,3.89514 35.531,83.97004 4.9914,116.92284 l -20.2031,21.79945 z"
       id="path2505"
       inkscape:connector-curvature="0"
       transform="scale(0.26458333)"
       sodipodi:nodetypes="ssccs" />
    <path
       style="fill:#ffffff;fill-opacity:1;stroke:#da261d;stroke-width:17.96787453;stroke-miterlimit:4;stroke-dasharray:none;stroke-opacity:1"
       d="m -1761.4973,572.89929 c -1.4307,-7.07143 -3.9785,-37.87059 -5.6616,-68.44257 -2.399,-43.57537 -6.0766,-61.4779 -17.0209,-82.85714 -15.8921,-31.04458 -27.6246,-39.7967 -60.3676,-45.03252 -39.0455,-6.24363 -40.2805,-2.96199 -40.2805,107.03192 v 96.44317 h -51.5205 -51.5204 l 1.5204,-155.71429 1.5205,-155.71428 85.3199,-1.58726 c 51.0268,-0.94928 88.3495,-4.10148 92.8572,-7.84254 5.4636,-4.53436 7.5371,-24.87249 7.5371,-73.92598 0,-61.05571 -1.0804,-68.24893 -11.0529,-73.58603 -6.216,-3.32674 -48.7265,-5.91534 -97.1428,-5.91534 h -86.09 V 69.327862 c 0,-20.035714 1.6072,-44.464285 3.5715,-54.285714 l 3.5714,-17.8571428 h 104.5007 104.5007 l 36.2136,18.6927698 c 56.2822,29.051851 84.7212,78.403659 84.7212,147.021515 0,41.31664 -7.005,64.86075 -31.3038,105.21287 -11.0335,18.32303 -20.061,37.1636 -20.061,41.86792 0,4.70433 7.6039,17.2137 16.8976,27.79859 26.3709,30.03483 35.4872,68.53466 38.7604,163.69205 l 2.8992,84.28571 h -54.884 c -52.3365,0 -55.0048,-0.5968 -57.4854,-12.85714 z"
       id="path2507"
       inkscape:connector-curvature="0"
       transform="scale(0.26458333)" />
  </g>
</svg>
