<?xml version="1.0" encoding="UTF-8" standalone="no"?>
<svg xmlns="http://www.w3.org/2000/svg" version="1.0" width="1000.0" height="984.80774" id="c:\regular_star_figure_2(9,1).svg">
<!-- X Coordinate transform: fx(x)=(x+1.1)*454.54544-->
<!-- Y Coordinate transform: fy(y)=(1.0832886-y)*454.54544 -->
<g style="stroke:#ff0000;stroke-width:5.0;stroke-opacity:1.00;fill-opacity:00">
<!-- Group: <Default>-->
</g>
<g style="stroke:#ff7f00;stroke-width:5.0;stroke-opacity:1.00;fill-opacity:00">
<!-- Group: poly0-->
<path d="M 954.545,492.404 848.202,200.228" />
<path d="M 578.931,44.764 848.202,200.228" />
<path d="M 578.931,44.764 272.727,98.756" />
<path d="M 72.867,336.94 272.727,98.756" />
<path d="M 72.867,336.94 72.867,647.868" />
<path d="M 72.867,647.868 272.727,886.052" />
<path d="M 578.931,940.044 272.727,886.052" />
<path d="M 578.931,940.044 848.202,784.58" />
<path d="M 954.545,492.404 848.202,784.58" />
</g>
<g style="stroke:#ff0000;stroke-width:5.0;stroke-opacity:1.00;fill-opacity:00">
<!-- Group: poly1-->
<path d="M 927.133,336.94 727.273,98.756" />
<path d="M 421.069,44.764 727.273,98.756" />
<path d="M 421.069,44.764 151.798,200.228" />
<path d="M 45.455,492.404 151.798,200.228" />
<path d="M 45.455,492.404 151.798,784.58" />
<path d="M 421.069,940.044 151.798,784.58" />
<path d="M 421.069,940.044 727.273,886.052" />
<path d="M 927.133,647.868 727.273,886.052" />
<path d="M 927.133,647.868 927.133,336.94" />
</g>
<g style="stroke:#000000;stroke-width:0.6666667;fill:#000000">
<circle cx="954.545" cy="492.404" r="8.0"/>
<circle cx="848.202" cy="200.228" r="8.0"/>
<circle cx="848.202" cy="200.228" r="8.0"/>
<circle cx="578.931" cy="44.764" r="8.0"/>
<circle cx="578.931" cy="44.764" r="8.0"/>
<circle cx="272.727" cy="98.756" r="8.0"/>
<circle cx="272.727" cy="98.756" r="8.0"/>
<circle cx="72.867" cy="336.94" r="8.0"/>
<circle cx="72.867" cy="336.94" r="8.0"/>
<circle cx="72.867" cy="647.868" r="8.0"/>
<circle cx="72.867" cy="647.868" r="8.0"/>
<circle cx="272.727" cy="886.052" r="8.0"/>
<circle cx="272.727" cy="886.052" r="8.0"/>
<circle cx="578.931" cy="940.044" r="8.0"/>
<circle cx="578.931" cy="940.044" r="8.0"/>
<circle cx="848.202" cy="784.58" r="8.0"/>
<circle cx="848.202" cy="784.58" r="8.0"/>
<circle cx="954.545" cy="492.404" r="8.0"/>
<circle cx="927.133" cy="336.94" r="8.0"/>
<circle cx="727.273" cy="98.756" r="8.0"/>
<circle cx="727.273" cy="98.756" r="8.0"/>
<circle cx="421.069" cy="44.764" r="8.0"/>
<circle cx="421.069" cy="44.764" r="8.0"/>
<circle cx="151.798" cy="200.228" r="8.0"/>
<circle cx="151.798" cy="200.228" r="8.0"/>
<circle cx="45.455" cy="492.404" r="8.0"/>
<circle cx="45.455" cy="492.404" r="8.0"/>
<circle cx="151.798" cy="784.58" r="8.0"/>
<circle cx="151.798" cy="784.58" r="8.0"/>
<circle cx="421.069" cy="940.044" r="8.0"/>
<circle cx="421.069" cy="940.044" r="8.0"/>
<circle cx="727.273" cy="886.052" r="8.0"/>
<circle cx="727.273" cy="886.052" r="8.0"/>
<circle cx="927.133" cy="647.868" r="8.0"/>
<circle cx="927.133" cy="647.868" r="8.0"/>
<circle cx="927.133" cy="336.94" r="8.0"/>
</g>
</svg>
