<?xml version="1.0" encoding="UTF-8" standalone="no"?>
<svg xmlns="http://www.w3.org/2000/svg" version="1.0" width="866.02545" height="1000.0" id="c:\Regular_truncation_3_0.666666666666.svg">
<!-- X Coordinate transform: fx(x)=(x+0.55)*787.29584-->
<!-- Y Coordinate transform: fy(y)=(0.6350853-y)*787.29584 -->
<!-- Regular polygon truncations 3 0.666666666666 -->
<g style="stroke:#000000;stroke-width:4.3301272;stroke-opacity:1.00;fill-opacity:00">
<!-- Group: <Default>-->
</g>
<g style="stroke:#000000;stroke-width:4.3301272;stroke-opacity:1.00;fill-opacity:00">
<!-- Group: poly-->
</g>
<g style="stroke:#bf0000;stroke-width:4.3301272;stroke-opacity:1.00;fill-opacity:00">
<!-- Group: 1-->
<path d="M 39.365,272.727 826.661,727.273" />
<path d="M 433.013,954.545 433.013,45.455" />
<path d="M 826.661,272.727 39.365,727.273" />
</g>
<g style="stroke:#ff7f00;stroke-width:4.3301272;stroke-opacity:1.00;fill-opacity:00">
<!-- Group: 2-->
<path d="M 433.013,954.545 826.661,727.273" />
<path d="M 433.013,45.455 826.661,272.727" />
<path d="M 39.365,727.273 39.365,272.727" />
</g>
<g style="stroke:#000000;stroke-width:0.5773503;fill:#000000">
<circle cx="39.365" cy="272.727" r="6.9282036"/>
<circle cx="826.661" cy="727.273" r="6.9282036"/>
<circle cx="826.661" cy="727.273" r="6.9282036"/>
<circle cx="433.013" cy="954.545" r="6.9282036"/>
<circle cx="433.013" cy="954.545" r="6.9282036"/>
<circle cx="433.013" cy="45.455" r="6.9282036"/>
<circle cx="433.013" cy="45.455" r="6.9282036"/>
<circle cx="826.661" cy="272.727" r="6.9282036"/>
<circle cx="826.661" cy="272.727" r="6.9282036"/>
<circle cx="39.365" cy="727.273" r="6.9282036"/>
<circle cx="39.365" cy="727.273" r="6.9282036"/>
<circle cx="39.365" cy="272.727" r="6.9282036"/>
</g>
</svg>
