<?xml version="1.0"?><svg xmlns="http://www.w3.org/2000/svg" xmlns:xlink="http://www.w3.org/1999/xlink" viewBox="165.64 216.3 86.47 76.7" preserveAspectRatio="xMidYMid" width="100%" height="100%"><clipPath id="180"><rect x="0.3" y="0.3" width="539.4" height="719.4" /></clipPath><g id="drawing"><rect x="165.64" y="216.3" width="100%" height="100%" fill="rgb(255, 255, 255)" /><g id="page" clip-path="url(#180)"><g id="ObjectTag"><g><text xml:space="preserve" text-anchor="start" text-rendering="geometricPrecision"><tspan x="186.92" y="265.33" font-family="Symbol" font-size="7.9" fill="rgb(0, 0, 0)">*</tspan></text></g></g><g><text xml:space="preserve" text-anchor="start" text-rendering="geometricPrecision"><tspan x="181.38" y="282.35" font-family="Arial" font-size="10" fill="rgb(0, 0, 255)">N</tspan><tspan x="181.38" y="292.54" font-family="Arial" font-size="10" fill="rgb(128, 128, 128)">H</tspan></text></g><g id="Solid"><path d="M191.87 255.99 L191.87 255.99 L192.17 256.29 L191.95 256.59 L177.99 256.6 L177.77 256.3 L177.55 256 Z" stroke="rgb(0, 0, 0)" stroke-width="0" fill-rule="evenodd" stroke-linejoin="miter" fill="rgb(0, 0, 0)" shape-rendering="geometricPrecision" /></g><g id="Solid"><path d="M177.55 256 L177.55 256 L177.77 256.3 L177.99 256.6 L173.68 269.89 L173.33 270 L172.98 270.11 Z" stroke="rgb(0, 0, 0)" stroke-width="0" fill-rule="evenodd" stroke-linejoin="miter" fill="rgb(0, 0, 0)" shape-rendering="geometricPrecision" /></g><g id="Solid"><path d="M172.98 270.11 L172.98 270.11 L173.33 270 L173.68 269.89 L181.08 275.25 L180.9 275.49 L180.73 275.74 Z" stroke="rgb(0, 0, 0)" stroke-width="0" fill-rule="evenodd" stroke-linejoin="miter" fill="rgb(0, 0, 0)" shape-rendering="geometricPrecision" /></g><g id="Solid"><path d="M189.27 275.7 L189.27 275.7 L189.09 275.46 L188.92 275.22 L196.28 269.87 L196.63 269.98 L196.98 270.09 Z" stroke="rgb(0, 0, 0)" stroke-width="0" fill-rule="evenodd" stroke-linejoin="miter" fill="rgb(0, 0, 0)" shape-rendering="geometricPrecision" /></g><g id="Solid"><path d="M196.98 270.09 L196.98 270.09 L196.63 269.98 L196.28 269.87 L191.95 256.59 L192.17 256.29 L192.53 256.43 Z" stroke="rgb(0, 0, 0)" stroke-width="0" fill-rule="evenodd" stroke-linejoin="miter" fill="rgb(0, 0, 0)" shape-rendering="geometricPrecision" /></g><g id="Solid"><path d="M192.53 256.43 L192.53 256.43 L192.17 256.29 L192.47 255.77 L204.34 248.92 L204.64 249.09 L204.64 249.44 Z" stroke="rgb(0, 0, 0)" stroke-width="0" fill-rule="evenodd" stroke-linejoin="miter" fill="rgb(0, 0, 0)" shape-rendering="geometricPrecision" /></g><g id="Solid"><path d="M192.47 255.77 L192.47 255.77 L192.17 256.29 L191.87 255.99 L191.87 242.12 L192.17 241.89 L192.47 241.66 Z" stroke="rgb(0, 0, 0)" stroke-width="0" fill-rule="evenodd" stroke-linejoin="miter" fill="rgb(0, 0, 0)" shape-rendering="geometricPrecision" /></g><g id="Solid"><path d="M204.64 249.44 L204.64 249.44 L204.64 249.09 L204.94 248.92 L217.11 255.94 L217.11 256.29 L217.11 256.64 Z" stroke="rgb(0, 0, 0)" stroke-width="0" fill-rule="evenodd" stroke-linejoin="miter" fill="rgb(0, 0, 0)" shape-rendering="geometricPrecision" /><line x1="207.23" y1="247.59" x2="217.11" y2="253.3" stroke="rgb(0, 0, 0)" stroke-width="0.6" shape-rendering="auto" /></g><g id="Solid"><path d="M217.11 256.64 L217.11 256.64 L217.11 256.29 L217.11 255.94 L229.28 248.92 L229.58 249.09 L229.61 249.42 Z" stroke="rgb(0, 0, 0)" stroke-width="0" fill-rule="evenodd" stroke-linejoin="miter" fill="rgb(0, 0, 0)" shape-rendering="geometricPrecision" /></g><g id="Solid"><path d="M229.88 248.87 L229.88 248.87 L229.58 249.09 L229.28 248.92 L229.28 234.86 L229.58 234.69 L229.88 234.91 Z" stroke="rgb(0, 0, 0)" stroke-width="0" fill-rule="evenodd" stroke-linejoin="miter" fill="rgb(0, 0, 0)" shape-rendering="geometricPrecision" /><line x1="226.99" y1="247.59" x2="226.99" y2="236.19" stroke="rgb(0, 0, 0)" stroke-width="0.6" shape-rendering="auto" /></g><g id="Solid"><path d="M229.61 234.36 L229.61 234.36 L229.58 234.69 L229.28 234.86 L217.11 227.84 L217.11 227.49 L217.11 227.14 Z" stroke="rgb(0, 0, 0)" stroke-width="0" fill-rule="evenodd" stroke-linejoin="miter" fill="rgb(0, 0, 0)" shape-rendering="geometricPrecision" /></g><g id="Solid"><path d="M217.11 227.14 L217.11 227.14 L217.11 227.49 L217.11 227.84 L204.94 234.86 L204.64 234.69 L204.34 234.52 Z" stroke="rgb(0, 0, 0)" stroke-width="0" fill-rule="evenodd" stroke-linejoin="miter" fill="rgb(0, 0, 0)" shape-rendering="geometricPrecision" /><line x1="217.11" y1="230.48" x2="207.23" y2="236.19" stroke="rgb(0, 0, 0)" stroke-width="0.6" shape-rendering="auto" /></g><g id="Solid"><path d="M204.34 234.52 L204.34 234.52 L204.64 234.69 L204.94 234.86 L204.94 248.92 L204.64 249.09 L204.34 248.92 Z" stroke="rgb(0, 0, 0)" stroke-width="0" fill-rule="evenodd" stroke-linejoin="miter" fill="rgb(0, 0, 0)" shape-rendering="geometricPrecision" /></g><g><text xml:space="preserve" text-anchor="start" text-rendering="geometricPrecision"><tspan x="239.68" y="257.44" font-family="Arial" font-size="10" fill="rgb(0, 0, 255)">N</tspan><tspan x="239.68" y="267.63" font-family="Arial" font-size="10" fill="rgb(128, 128, 128)">H</tspan></text></g><g id="Solid"><path d="M229.61 249.42 L229.61 249.42 L229.58 249.09 L229.88 248.87 L239.07 251.86 L238.98 252.14 L238.89 252.43 Z" stroke="rgb(0, 0, 0)" stroke-width="0" fill-rule="evenodd" stroke-linejoin="miter" fill="rgb(0, 0, 0)" shape-rendering="geometricPrecision" /></g><g id="Solid"><path d="M246.82 249.18 L246.82 249.18 L246.57 249.01 L246.33 248.83 L251.37 241.89 L251.74 241.89 L252.11 241.89 Z" stroke="rgb(0, 0, 0)" stroke-width="0" fill-rule="evenodd" stroke-linejoin="miter" fill="rgb(0, 0, 0)" shape-rendering="geometricPrecision" /></g><g id="Solid"><path d="M252.11 241.89 L252.11 241.89 L251.74 241.89 L251.37 241.89 L243.17 230.59 L243.28 230.24 L243.39 229.89 Z" stroke="rgb(0, 0, 0)" stroke-width="0" fill-rule="evenodd" stroke-linejoin="miter" fill="rgb(0, 0, 0)" shape-rendering="geometricPrecision" /><line x1="248.54" y1="241.89" x2="242.29" y2="233.29" stroke="rgb(0, 0, 0)" stroke-width="0.6" shape-rendering="auto" /></g><g id="Solid"><path d="M243.39 229.89 L243.39 229.89 L243.28 230.24 L243.17 230.59 L229.88 234.91 L229.58 234.69 L229.61 234.36 Z" stroke="rgb(0, 0, 0)" stroke-width="0" fill-rule="evenodd" stroke-linejoin="miter" fill="rgb(0, 0, 0)" shape-rendering="geometricPrecision" /></g><g id="Solid"><path d="M192.47 241.66 L192.47 241.66 L192.17 241.89 L191.87 242.12 L177.96 238.39 L178.26 238.16 L178.56 237.93 Z" stroke="rgb(0, 0, 0)" stroke-width="0" fill-rule="evenodd" stroke-linejoin="miter" fill="rgb(0, 0, 0)" shape-rendering="geometricPrecision" /></g><g id="Solid"><path d="M178.56 237.93 L178.56 237.93 L178.26 238.16 L177.96 238.39 L177.96 223.93 L178.26 223.76 L178.56 223.59 Z" stroke="rgb(0, 0, 0)" stroke-width="0" fill-rule="evenodd" stroke-linejoin="miter" fill="rgb(0, 0, 0)" shape-rendering="geometricPrecision" /></g><g id="Solid"><path d="M178.56 223.59 L178.56 223.59 L178.26 223.76 L177.96 223.93 L165.64 216.82 L165.79 216.56 L165.94 216.3 Z" stroke="rgb(0, 0, 0)" stroke-width="0" fill-rule="evenodd" stroke-linejoin="miter" fill="rgb(0, 0, 0)" shape-rendering="geometricPrecision" /></g></g></g></svg>