<?xml version="1.0" encoding="UTF-8" standalone="no"?>
<svg
   xmlns:dc="http://purl.org/dc/elements/1.1/"
   xmlns:cc="http://creativecommons.org/ns#"
   xmlns:rdf="http://www.w3.org/1999/02/22-rdf-syntax-ns#"
   xmlns:svg="http://www.w3.org/2000/svg"
   xmlns="http://www.w3.org/2000/svg"
   xmlns:sodipodi="http://sodipodi.sourceforge.net/DTD/sodipodi-0.dtd"
   xmlns:inkscape="http://www.inkscape.org/namespaces/inkscape"
   width="854.15094"
   height="1245.0157"
   viewBox="-5 -5 867.23098 1263.1364"
   id="svg2"
   version="1.1"
   inkscape:version="0.48.1 "
   sodipodi:docname="Roman Catholic Diocese of Juneau.svg">
  <metadata
     id="metadata10">
    <rdf:RDF>
      <cc:Work
         rdf:about="">
        <dc:format>image/svg+xml</dc:format>
        <dc:type
           rdf:resource="http://purl.org/dc/dcmitype/StillImage" />
        <dc:title />
      </cc:Work>
    </rdf:RDF>
  </metadata>
  <defs
     id="defs8">
    <inkscape:path-effect
       effect="skeletal"
       id="path-effect3056"
       is_visible="true"
       pattern="M 0,5 C 0,2.24 2.24,0 5,0 7.76,0 10,2.24 10,5 10,7.76 7.76,10 5,10 2.24,10 0,7.76 0,5 z"
       copytype="single_stretched"
       prop_scale="1"
       scale_y_rel="false"
       spacing="0"
       normal_offset="0"
       tang_offset="0"
       prop_units="false"
       vertical_pattern="false"
       fuse_tolerance="0" />
    <inkscape:path-effect
       effect="spiro"
       id="path-effect3054"
       is_visible="true" />
    <inkscape:path-effect
       effect="skeletal"
       id="path-effect3050"
       is_visible="true"
       pattern="M 0,5 C 0,2.24 2.24,0 5,0 7.76,0 10,2.24 10,5 10,7.76 7.76,10 5,10 2.24,10 0,7.76 0,5 z"
       copytype="single_stretched"
       prop_scale="1"
       scale_y_rel="false"
       spacing="0"
       normal_offset="0"
       tang_offset="0"
       prop_units="false"
       vertical_pattern="false"
       fuse_tolerance="0" />
    <inkscape:path-effect
       effect="spiro"
       id="path-effect3048"
       is_visible="true" />
    <inkscape:path-effect
       effect="skeletal"
       id="path-effect3044"
       is_visible="true"
       pattern="M 0,5 C 0,2.24 2.24,0 5,0 7.76,0 10,2.24 10,5 10,7.76 7.76,10 5,10 2.24,10 0,7.76 0,5 z"
       copytype="single_stretched"
       prop_scale="1"
       scale_y_rel="false"
       spacing="0"
       normal_offset="0"
       tang_offset="0"
       prop_units="false"
       vertical_pattern="false"
       fuse_tolerance="0" />
    <inkscape:path-effect
       effect="spiro"
       id="path-effect3042"
       is_visible="true" />
    <inkscape:path-effect
       effect="spiro"
       id="path-effect3038"
       is_visible="true" />
  </defs>
  <sodipodi:namedview
     pagecolor="#ffffff"
     bordercolor="#666666"
     borderopacity="1"
     objecttolerance="10"
     gridtolerance="10"
     guidetolerance="10"
     inkscape:pageopacity="0"
     inkscape:pageshadow="2"
     inkscape:window-width="1600"
     inkscape:window-height="848"
     id="namedview6"
     showgrid="false"
     fit-margin-top="0"
     fit-margin-left="0"
     fit-margin-right="0"
     fit-margin-bottom="0"
     inkscape:zoom="0.41966736"
     inkscape:cx="-151.02498"
     inkscape:cy="512.96012"
     inkscape:window-x="-8"
     inkscape:window-y="-8"
     inkscape:window-maximized="1"
     inkscape:current-layer="svg2"
     showguides="true"
     inkscape:guide-bbox="true" />
  <g
     style="display:inline;stroke-width:3;stroke-miterlimit:4;stroke-dasharray:none"
     id="g3140"
     transform="matrix(1.0153135,0,0,1.0153135,-5,-5.2817712)">
    <g
       transform="translate(-0.83230931,-129.16872)"
       style="display:inline;stroke-width:3;stroke-miterlimit:4;stroke-dasharray:none"
       inkscape:label="Mitar"
       id="layer2">
      <g
         transform="matrix(4.2307872,0,0,4.219215,-2.6856811,-2465.9916)"
         id="g3054"
         style="stroke-width:0.71005965;stroke-miterlimit:4;stroke-dasharray:none">
        <path
           style="fill:#eacd02;fill-opacity:1;stroke:#000000;stroke-width:0.71005965;stroke-linecap:butt;stroke-linejoin:miter;stroke-opacity:1;stroke-miterlimit:4;stroke-dasharray:none"
           d="m 154.55323,735.0339 9.41351,-10.40136 13.27334,20.30585 13.076,-7.42955 -15.05643,-20.10969 -18.0306,0.49569 -14.65821,17.13906 11.98239,0 z"
           id="path3752-5"
           sodipodi:nodetypes="cccccccc"
           inkscape:connector-curvature="0" />
        <path
           id="path2894-1"
           style="fill:#eac102;fill-opacity:1;stroke:#000000;stroke-width:0.71005965;stroke-linecap:butt;stroke-linejoin:miter;stroke-opacity:1;display:inline;stroke-miterlimit:4;stroke-dasharray:none"
           d="m 177.56614,742.90495 c 0,0 -2.64178,2.92535 -3.31004,1.8946 -3.10297,-4.78618 -8.93315,-13.68342 -8.93315,-13.68342 l -3.36217,-6.00386 c -3.10508,-5.54479 -5.76369,-2.52162 -5.76369,-2.52162 l -11.28725,12.48802 0.18011,-5.23231 11.76755,-12.48802 c 0,0 2.52759,-2.51334 6.24402,2.64169 l 3.72239,5.16333 z"
           sodipodi:nodetypes="csccccccccc"
           inkscape:connector-curvature="0" />
        <path
           style="fill:#eac102;fill-opacity:1;stroke:#000000;stroke-width:0.71005965;stroke-linecap:round;stroke-linejoin:round;stroke-opacity:1;display:inline;stroke-miterlimit:4;stroke-dasharray:none"
           d="m 152.33284,735.08487 9.33717,-10.42411 1.56001,2.70588 -7.30681,7.56544 -3.59037,0.15279 z"
           id="path2851"
           sodipodi:nodetypes="ccccc"
           inkscape:connector-curvature="0" />
        <path
           style="fill:#eacd02;fill-opacity:1;stroke:#000000;stroke-width:0.71005965;stroke-linecap:butt;stroke-linejoin:miter;stroke-opacity:1;display:inline;stroke-miterlimit:4;stroke-dasharray:none"
           d="m 48.999177,734.43958 -9.41351,-10.40136 -13.273336,20.30584 -13.075999,-7.42954 15.056426,-20.10971 18.030604,0.49571 14.658208,17.13906 -11.982393,0 z"
           id="path3752-5-0"
           sodipodi:nodetypes="cccccccc"
           inkscape:connector-curvature="0" />
        <path
           id="path2894-1-9"
           style="fill:#eac102;fill-opacity:1;stroke:#000000;stroke-width:0.71005965;stroke-linecap:butt;stroke-linejoin:miter;stroke-opacity:1;display:inline;stroke-miterlimit:4;stroke-dasharray:none"
           d="m 26.13537,741.86331 c 0,0 0.887742,5.40112 3.68281,1.14908 2.795068,-4.25205 7.665754,-12.26693 7.665754,-12.26693 l 4.405899,-6.74938 c 3.105081,-5.54479 5.465489,-1.99975 5.465489,-1.99975 L 58.64257,734.48435 58.462457,729.25204 46.6949,716.76402 c 0,0 -2.527584,-2.51334 -6.244007,2.64169 l -3.722394,5.16332 z"
           sodipodi:nodetypes="czccccccccc"
           inkscape:connector-curvature="0" />
        <path
           style="fill:#eac102;fill-opacity:1;stroke:#000000;stroke-width:0.71005965;stroke-linecap:round;stroke-linejoin:round;stroke-opacity:1;display:inline;stroke-miterlimit:4;stroke-dasharray:none"
           d="m 51.219571,734.49054 -9.337168,-10.4241 -1.560015,2.70588 7.306807,7.56543 3.590376,0.15279 z"
           id="path2851-4"
           sodipodi:nodetypes="ccccc"
           inkscape:connector-curvature="0" />
        <path
           style="fill:#eac102;fill-opacity:1;stroke:#000000;stroke-width:0.71005965;stroke-linecap:butt;stroke-linejoin:miter;stroke-opacity:1;display:inline;stroke-miterlimit:4;stroke-dasharray:none"
           d="m 14.97822,734.47402 c -0.211468,-0.12806 -0.560457,-1.32502 -0.178445,-1.99438 3.355753,-5.87988 12.92851,-17.33905 12.92851,-17.33905 l 0,0 c 0.999993,-0.0913 1.307205,0.13168 1.642244,0.26204 0.427888,0.22749 0.956552,0.51215 0.941104,1.40464 l -13.166734,17.91676 c -0.447982,0.60959 -1.645367,0.0657 -2.166679,-0.25001 z"
           id="path3649-8"
           sodipodi:nodetypes="csccccss"
           inkscape:connector-curvature="0" />
        <path
           style="fill:#eacd02;fill-opacity:1;stroke:#000000;stroke-width:0.71005965;stroke-linecap:butt;stroke-linejoin:miter;stroke-opacity:1;stroke-miterlimit:4;stroke-dasharray:none"
           d="M 51.982354,734.67832 C 54.209279,714.2308 54.899908,706.63015 41.38534,694.6839 l 59.7936,-64.57177 61.78207,67.86132 c -11.90172,7.87473 -16.39652,21.78003 -14.16789,37.13553 l -96.810766,-0.43066 z"
           id="path3750"
           sodipodi:nodetypes="cccccc"
           inkscape:connector-curvature="0" />
        <path
           style="fill:#eac102;fill-opacity:1;stroke:#000000;stroke-width:0.71005965;stroke-linecap:butt;stroke-linejoin:miter;stroke-opacity:1;display:inline;stroke-miterlimit:4;stroke-dasharray:none"
           d="m 91.980642,642.87611 9.385918,-8.42713 12.0099,11.70715 1.86709,-0.35323 -0.0505,-2.47264 -13.877,-13.62469 -13.221,11.55576 1.412927,2.11939 2.472625,-0.50461 z"
           id="path3039"
           sodipodi:nodetypes="ccccccccc"
           inkscape:connector-curvature="0" />
        <path
           style="fill:#eac102;fill-opacity:1;stroke:#000000;stroke-width:0.71005965;stroke-linecap:butt;stroke-linejoin:miter;stroke-opacity:1;display:inline;stroke-miterlimit:4;stroke-dasharray:none"
           d="m 188.57419,735.06834 c 0.21147,-0.12806 0.56046,-1.32501 0.17844,-1.99437 -3.35575,-5.87989 -12.92851,-17.33906 -12.92851,-17.33906 l 0,0 c -0.99999,-0.0913 -1.30721,0.13169 -1.64224,0.26206 -0.42789,0.22748 -0.95656,0.51213 -0.94111,1.40462 l 13.16674,17.91676 c 0.44799,0.60959 1.64537,0.0657 2.16668,-0.25001 z"
           id="path3649"
           sodipodi:nodetypes="csccccss"
           inkscape:connector-curvature="0" />
        <path
           style="fill:#eac102;fill-opacity:1;fill-rule:evenodd;stroke:#000000;stroke-width:0.71005965;stroke-linecap:round;stroke-linejoin:round;stroke-miterlimit:4;stroke-opacity:1;stroke-dashoffset:0;display:inline;stroke-dasharray:none"
           d="m 175.36232,742.39299 12.28445,-7.95988 c 0.75174,-0.48709 1.84217,-0.13036 2.44491,0.79984 0.60274,0.93022 0.48279,2.07123 -0.26894,2.55833 l -12.28445,7.95987 c -0.75174,0.48709 -1.84217,0.13036 -2.44491,-0.79985 -0.60274,-0.93021 -0.48279,-2.07122 0.26894,-2.55831 z"
           id="rect3653"
           inkscape:connector-curvature="0" />
        <path
           style="fill:#eac102;fill-opacity:1;fill-rule:evenodd;stroke:#000000;stroke-width:0.71005965;stroke-linecap:round;stroke-linejoin:round;stroke-miterlimit:4;stroke-opacity:1;stroke-dashoffset:0;display:inline;stroke-dasharray:none"
           d="m 176.32976,746.42427 12.5313,-8.18631 c 1.23522,-0.80692 2.75172,-0.65736 3.40022,0.33535 0.6485,0.9927 0.17617,2.44151 -1.05905,3.24843 l -12.5313,8.18631 c -1.23522,0.80693 -2.75171,0.65736 -3.40022,-0.33534 -0.6485,-0.99271 -0.17617,-2.44152 1.05905,-3.24844 z"
           id="rect3653-1"
           inkscape:connector-curvature="0" />
        <path
           style="fill:#eac102;fill-opacity:1;stroke:#000000;stroke-width:0.71005965;stroke-linecap:butt;stroke-linejoin:miter;stroke-opacity:1;display:inline;stroke-miterlimit:4;stroke-dasharray:none"
           d="m 197.57347,756.21962 c -1.89999,-0.23264 -3.82756,1.64536 -8.95891,-3.51105 l -3.68237,-6.73635 1.7553,-1.13983 c 1.45917,3.75738 4.44989,6.94542 7.12453,8.87959 l 3.76145,2.50764 z"
           id="path3681"
           sodipodi:nodetypes="cscccc"
           inkscape:connector-curvature="0" />
        <path
           style="fill:#eac102;fill-opacity:1;stroke:#000000;stroke-width:0.71005965;stroke-linecap:butt;stroke-linejoin:miter;stroke-opacity:1;display:inline;stroke-miterlimit:4;stroke-dasharray:none"
           d="m 186.48218,744.88927 2.84981,-1.86906 c 2.58264,3.76244 5.0912,8.84189 9.10757,11.1706 l 2.16569,1.13983 c -1.17325,0.93021 -2.40441,0.83086 -3.87544,0.56992 -4.24622,-2.56437 -8.32096,-6.67928 -10.24763,-11.01129 z"
           id="path3683"
           sodipodi:nodetypes="cccccc"
           inkscape:connector-curvature="0" />
        <path
           style="fill:#eac102;fill-opacity:1;stroke:#000000;stroke-width:0.71005965;stroke-linecap:butt;stroke-linejoin:miter;stroke-opacity:1;display:inline;stroke-miterlimit:4;stroke-dasharray:none"
           d="m 189.43465,743.05443 2.59805,-1.92661 6.63483,10.21341 c 1.29181,1.46703 2.58362,3.09987 3.87543,2.50763 l -1.93771,0.56991 c -3.48083,0.19133 -5.40122,-3.51848 -7.75088,-6.1551 l -3.41972,-5.20924 z"
           id="path3685"
           sodipodi:nodetypes="ccccccc"
           inkscape:connector-curvature="0" />
        <path
           style="fill:#eac102;fill-opacity:1;stroke:#000000;stroke-width:0.71005965;stroke-linecap:butt;stroke-linejoin:miter;stroke-opacity:1;display:inline;stroke-miterlimit:4;stroke-dasharray:none"
           d="m 187.77542,762.38887 c 0.68959,-1.78565 3.2541,-2.60159 1.12203,-9.55671 l -4.20823,-6.42098 -1.83218,1.01162 c 2.62737,3.0568 4.03119,7.19653 4.47777,10.46689 l 0.44061,4.49918 z"
           id="path3681-1"
           sodipodi:nodetypes="cscccc"
           inkscape:connector-curvature="0" />
        <path
           style="fill:#eac102;fill-opacity:1;stroke:#000000;stroke-width:0.71005965;stroke-linecap:butt;stroke-linejoin:miter;stroke-opacity:1;display:inline;stroke-miterlimit:4;stroke-dasharray:none"
           d="m 183.00391,747.26848 -2.99095,1.63372 c 2.10272,4.05024 5.40212,8.65541 5.56483,13.2952 l -0.0144,2.44728 c 1.37313,-0.59688 1.86533,-1.72974 2.32793,-3.15032 -0.26235,-4.95353 -1.97326,-10.48604 -4.88738,-14.22588 z"
           id="path3683-7"
           sodipodi:nodetypes="cccccc"
           inkscape:connector-curvature="0" />
        <path
           style="fill:#eac102;fill-opacity:1;stroke:#000000;stroke-width:0.71005965;stroke-linecap:butt;stroke-linejoin:miter;stroke-opacity:1;display:inline;stroke-miterlimit:4;stroke-dasharray:none"
           d="m 179.9948,749.00886 -2.92315,1.38452 5.88502,10.66306 c 0.68575,1.8305 1.51778,3.73909 0.38693,4.59973 l 1.41534,-1.44095 c 1.80812,-2.98051 -0.56007,-6.42177 -1.77936,-9.73627 l -2.98478,-5.47009 z"
           id="path3685-4"
           sodipodi:nodetypes="ccccccc"
           inkscape:connector-curvature="0" />
        <path
           style="fill:#eac102;fill-opacity:1;fill-rule:evenodd;stroke:#000000;stroke-width:0.71005965;stroke-linecap:round;stroke-linejoin:round;stroke-miterlimit:4;stroke-opacity:1;stroke-dashoffset:0;display:inline;stroke-dasharray:none"
           d="M 27.407987,741.29197 16.6877,734.34562 c -1.185009,-0.76785 -2.624248,-0.63713 -3.226986,0.29308 -0.602743,0.93021 -0.133984,2.29723 1.051026,3.06507 l 10.720287,6.94635 c 1.185009,0.76784 2.624242,0.63713 3.226985,-0.29308 0.602738,-0.9302 0.133984,-2.29723 -1.051025,-3.06507 z"
           id="rect3653-8"
           inkscape:connector-curvature="0" />
        <path
           style="fill:#eac102;fill-opacity:1;fill-rule:evenodd;stroke:#000000;stroke-width:0.71005965;stroke-linecap:round;stroke-linejoin:round;stroke-miterlimit:4;stroke-opacity:1;stroke-dashoffset:0;display:inline;stroke-dasharray:none"
           d="m 27.065536,745.72745 -12.217222,-7.98113 c -1.322218,-0.86376 -2.908754,-0.75995 -3.557253,0.23275 -0.648504,0.99271 -0.10613,2.48726 1.216088,3.35103 l 12.217222,7.98112 c 1.322218,0.86376 2.908753,0.75996 3.557258,-0.23275 0.648499,-0.9927 0.106125,-2.48726 -1.216093,-3.35102 z"
           id="rect3653-1-2"
           inkscape:connector-curvature="0" />
        <path
           style="fill:#eac102;fill-opacity:1;stroke:#000000;stroke-width:0.71005965;stroke-linecap:butt;stroke-linejoin:miter;stroke-opacity:1;display:inline;stroke-miterlimit:4;stroke-dasharray:none"
           d="m 5.9789388,755.62529 c 1.8999825,-0.23264 3.8275596,1.64536 8.9589112,-3.51105 l 3.682365,-6.73634 -1.755297,-1.13983 c -1.459167,3.75737 -4.449888,6.94541 -7.1245236,8.87959 l -3.7614556,2.50763 z"
           id="path3681-4"
           sodipodi:nodetypes="cscccc"
           inkscape:connector-curvature="0" />
        <path
           style="fill:#eac102;fill-opacity:1;stroke:#000000;stroke-width:0.71005965;stroke-linecap:butt;stroke-linejoin:miter;stroke-opacity:1;display:inline;stroke-miterlimit:4;stroke-dasharray:none"
           d="m 17.070224,744.29495 -2.84981,-1.86906 c -2.582636,3.76244 -5.0911948,8.84189 -9.1075655,11.17059 l -2.1656852,1.13983 c 1.1732429,0.93022 2.4044011,0.83087 3.8754344,0.56992 4.2462173,-2.56436 8.3209573,-6.67927 10.2476263,-11.01128 z"
           id="path3683-5"
           sodipodi:nodetypes="cccccc"
           inkscape:connector-curvature="0" />
        <path
           style="fill:#eac102;fill-opacity:1;stroke:#000000;stroke-width:0.71005965;stroke-linecap:butt;stroke-linejoin:miter;stroke-opacity:1;display:inline;stroke-miterlimit:4;stroke-dasharray:none"
           d="m 14.117759,742.46011 -2.598051,-1.92662 -6.6348255,10.2134 c -1.2918111,1.46704 -2.5836222,3.09989 -3.8754343,2.50764 l 1.9377151,0.56991 c 3.4808327,0.19134 5.4012095,-3.51848 7.7508687,-6.15509 l 3.419727,-5.20924 z"
           id="path3685-5"
           sodipodi:nodetypes="ccccccc"
           inkscape:connector-curvature="0" />
        <path
           style="fill:#eac102;fill-opacity:1;stroke:#000000;stroke-width:0.71005965;stroke-linecap:butt;stroke-linejoin:miter;stroke-opacity:1;display:inline;stroke-miterlimit:4;stroke-dasharray:none"
           d="m 15.77699,761.79455 c -0.689591,-1.78565 -3.254099,-2.60159 -1.122035,-9.55671 l 4.208228,-6.42098 1.832188,1.01162 c -2.627371,3.0568 -4.031187,7.19651 -4.477772,10.46689 l -0.440609,4.49918 z"
           id="path3681-1-1"
           sodipodi:nodetypes="cscccc"
           inkscape:connector-curvature="0" />
        <path
           style="fill:#eac102;fill-opacity:1;stroke:#000000;stroke-width:0.71005965;stroke-linecap:butt;stroke-linejoin:miter;stroke-opacity:1;display:inline;stroke-miterlimit:4;stroke-dasharray:none"
           d="m 20.548502,746.67416 2.990943,1.6337 c -2.10271,4.05025 -5.402122,8.65542 -5.564831,13.2952 l 0.01443,2.4473 c -1.373142,-0.59689 -1.865335,-1.72975 -2.32794,-3.15032 0.262349,-4.95354 1.973268,-10.48605 4.887379,-14.22588 z"
           id="path3683-7-7"
           sodipodi:nodetypes="cccccc"
           inkscape:connector-curvature="0" />
        <path
           style="fill:#eac102;fill-opacity:1;stroke:#000000;stroke-width:0.71005965;stroke-linecap:butt;stroke-linejoin:miter;stroke-opacity:1;display:inline;stroke-miterlimit:4;stroke-dasharray:none"
           d="m 23.557611,748.41454 2.923152,1.38452 -5.885021,10.66306 c -0.68575,1.8305 -1.517775,3.73908 -0.386927,4.59973 l -1.415344,-1.44096 c -1.808125,-2.98051 0.560072,-6.42176 1.779361,-9.73627 l 2.984779,-5.47008 z"
           id="path3685-4-1"
           sodipodi:nodetypes="ccccccc"
           inkscape:connector-curvature="0" />
        <path
           style="fill:#eac102;fill-opacity:1;stroke:#000000;stroke-width:0.71005965;stroke-linecap:butt;stroke-linejoin:miter;stroke-opacity:1;display:inline;stroke-miterlimit:4;stroke-dasharray:none"
           d="m 79.300752,653.48113 -4.656319,4.40235 c -0.869554,0.87403 -1.970158,2.21918 -0.846598,3.97903 0.987701,1.0985 1.89075,-0.20778 2.878451,-1.10058 l 5.58758,-5.84156 c 1.449511,-0.70879 1.085782,-2.81455 1.015931,-4.82565 0.04768,-0.83492 1.122109,-1.18926 2.285829,-1.35456 0.620843,0.39293 1.241687,-0.0159 1.86252,2.03185 0.338856,0.69574 1.101388,0.68536 2.116515,0.25398 0.919976,-0.51643 1.324084,-1.01763 1.354569,-2.20117 -0.244161,-1.04415 -0.732275,-1.91898 -0.761946,-2.96312 l 1.523882,-1.6932 c 0.431743,-1.05148 -0.264097,-1.87743 -0.931259,-2.70913 0.757714,-0.59686 1.076574,-1.63256 0.931259,-3.13244 0.176238,-0.90304 0.579024,-1.80608 -0.761946,-2.70913 -2.336538,3.75343 -5.390512,6.31113 -8.381369,8.97399 -1.766127,1.27785 -2.914251,2.78743 -2.878452,4.74099 0.359458,2.44554 0.204538,3.73375 -0.338647,4.14835 z"
           id="path2959-1-5"
           sodipodi:nodetypes="cccccccccccccccccc"
           inkscape:connector-curvature="0" />
        <path
           style="fill:#eac102;fill-opacity:1;stroke:#000000;stroke-width:0.71005965;stroke-linecap:butt;stroke-linejoin:miter;stroke-opacity:1;display:inline;stroke-miterlimit:4;stroke-dasharray:none"
           d="m 63.257227,670.48248 -4.656314,4.40235 c -0.869555,0.87403 -1.97016,2.21917 -0.846606,3.97903 0.987706,1.0985 1.890753,-0.20778 2.878454,-1.10058 l 5.587579,-5.84157 c 1.449512,-0.70878 1.085783,-2.81455 1.015932,-4.82564 0.04768,-0.83493 1.122109,-1.18926 2.285829,-1.35456 0.620843,0.39292 1.241686,-0.0159 1.86252,2.03184 0.338855,0.69574 1.101388,0.68536 2.116515,0.25399 0.919976,-0.51643 1.324083,-1.01762 1.354569,-2.20118 -0.244162,-1.04414 -0.732276,-1.91897 -0.761946,-2.96311 l 1.523882,-1.69321 c 0.431743,-1.05147 -0.264097,-1.87743 -0.93126,-2.70913 0.757715,-0.59685 1.076575,-1.63255 0.93126,-3.13243 0.176247,-0.90304 0.579024,-1.80608 -0.761946,-2.70913 -2.336539,3.75343 -5.390512,6.31112 -8.381369,8.974 -1.766127,1.27784 -2.914252,2.78741 -2.878452,4.74097 0.359458,2.44555 0.204537,3.73375 -0.338647,4.14836 z"
           id="path2959-1"
           sodipodi:nodetypes="cccccccccccccccccc"
           inkscape:connector-curvature="0" />
        <path
           style="fill:#eac102;fill-opacity:1;stroke:#000000;stroke-width:0.71005965;stroke-linecap:butt;stroke-linejoin:miter;stroke-opacity:1;display:inline;stroke-miterlimit:4;stroke-dasharray:none"
           d="m 46.860182,688.31026 -4.656316,4.40234 c -0.869554,0.87403 -1.97016,2.21917 -0.846606,3.97903 0.987707,1.0985 1.89075,-0.20778 2.878452,-1.10058 l 5.587586,-5.84157 c 1.44951,-0.70878 1.085778,-2.81454 1.015924,-4.82564 0.04768,-0.83493 1.122111,-1.18926 2.285829,-1.35456 0.620842,0.39292 1.241685,-0.0159 1.862528,2.03184 0.338855,0.69575 1.101378,0.68536 2.116509,0.25399 0.919973,-0.51643 1.324085,-1.01762 1.354566,-2.20118 -0.244157,-1.04414 -0.732269,-1.91897 -0.761942,-2.96311 l 1.523886,-1.69321 c 0.431743,-1.05147 -0.264103,-1.87743 -0.931266,-2.70912 0.757713,-0.59686 1.076581,-1.63256 0.931266,-3.13243 0.176238,-0.90305 0.579024,-1.80609 -0.761947,-2.70914 -2.336539,3.75343 -5.390511,6.31112 -8.381375,8.974 -1.766126,1.27784 -2.914246,2.78742 -2.878449,4.74097 0.35946,2.44556 0.204537,3.73376 -0.338645,4.14837 z"
           id="path2959"
           sodipodi:nodetypes="cccccccccccccccccc"
           inkscape:connector-curvature="0" />
        <path
           style="fill:#eac102;fill-opacity:1;stroke:#000000;stroke-width:0.71005965;stroke-linecap:butt;stroke-linejoin:miter;stroke-opacity:1;display:inline;stroke-miterlimit:4;stroke-dasharray:none"
           d="m 125.21107,655.94139 4.65632,4.40235 c 0.86955,0.87403 1.97015,2.21917 0.84659,3.97903 -0.9877,1.0985 -1.89074,-0.20778 -2.87845,-1.10058 l -5.58758,-5.84157 c -1.44951,-0.70878 -1.08578,-2.81455 -1.01593,-4.82564 -0.0477,-0.83493 -1.12211,-1.18926 -2.28582,-1.35457 -0.62084,0.39293 -1.24168,-0.0159 -1.86253,2.03186 -0.33885,0.69574 -1.10138,0.68536 -2.11651,0.25397 -0.91997,-0.51642 -1.32409,-1.01762 -1.35456,-2.20117 0.24415,-1.04414 0.73226,-1.91897 0.76193,-2.96311 l -1.52388,-1.69321 c -0.43174,-1.05147 0.2641,-1.87743 0.93126,-2.70912 -0.7577,-0.59686 -1.07657,-1.63256 -0.93126,-3.13244 -0.17623,-0.90304 -0.57902,-1.80609 0.76195,-2.70913 2.33654,3.75342 5.39051,6.31112 8.38137,8.97399 1.76612,1.27785 2.91425,2.78743 2.87845,4.74098 -0.35946,2.44555 -0.20454,3.73376 0.33865,4.14836 z"
           id="path2959-1-5-2"
           sodipodi:nodetypes="cccccccccccccccccc"
           inkscape:connector-curvature="0" />
        <path
           style="fill:#eac102;fill-opacity:1;stroke:#000000;stroke-width:0.71005965;stroke-linecap:butt;stroke-linejoin:miter;stroke-opacity:1;display:inline;stroke-miterlimit:4;stroke-dasharray:none"
           d="m 141.25459,672.94274 4.65632,4.40234 c 0.86956,0.87404 1.97016,2.21918 0.8466,3.97904 -0.9877,1.0985 -1.89075,-0.20779 -2.87845,-1.10058 l -5.58758,-5.84157 c -1.44951,-0.70878 -1.08578,-2.81455 -1.01593,-4.82564 -0.0477,-0.83493 -1.12211,-1.18926 -2.28583,-1.35456 -0.62084,0.39292 -1.24168,-0.0159 -1.86252,2.03184 -0.33886,0.69574 -1.10138,0.68536 -2.11652,0.25399 -0.91996,-0.51644 -1.32408,-1.01763 -1.35457,-2.20118 0.24417,-1.04414 0.73228,-1.91897 0.76195,-2.96311 l -1.52388,-1.69321 c -0.43174,-1.05147 0.2641,-1.87743 0.93126,-2.70913 -0.75771,-0.59685 -1.07658,-1.63255 -0.93126,-3.13243 -0.17624,-0.90304 -0.57903,-1.80608 0.76194,-2.70913 2.33654,3.75343 5.39052,6.31112 8.38137,8.974 1.76613,1.27783 2.91425,2.78741 2.87845,4.74097 -0.35945,2.44555 -0.20453,3.73375 0.33865,4.14836 z"
           id="path2959-1-7"
           sodipodi:nodetypes="cccccccccccccccccc"
           inkscape:connector-curvature="0" />
        <path
           style="fill:#eac102;fill-opacity:1;stroke:#000000;stroke-width:0.71005965;stroke-linecap:butt;stroke-linejoin:miter;stroke-opacity:1;display:inline;stroke-miterlimit:4;stroke-dasharray:none"
           d="m 157.65163,690.77051 4.65632,4.40234 c 0.86956,0.87404 1.97016,2.21918 0.84661,3.97904 -0.98771,1.0985 -1.89075,-0.20779 -2.87845,-1.10058 l -5.58759,-5.84157 c -1.44951,-0.70878 -1.08577,-2.81455 -1.01592,-4.82564 -0.0477,-0.83493 -1.12211,-1.18926 -2.28583,-1.35456 -0.62084,0.39292 -1.24169,-0.0159 -1.86253,2.03184 -0.33886,0.69574 -1.10138,0.68536 -2.1165,0.25399 -0.91998,-0.51644 -1.32409,-1.01762 -1.35457,-2.20118 0.24416,-1.04414 0.73226,-1.91897 0.76194,-2.96311 l -1.52389,-1.69321 c -0.43173,-1.05147 0.26411,-1.87743 0.93127,-2.70913 -0.75771,-0.59685 -1.07657,-1.63255 -0.93126,-3.13243 -0.17625,-0.90304 -0.57903,-1.80608 0.76194,-2.70913 2.33654,3.75343 5.39051,6.31112 8.38138,8.974 1.76612,1.27783 2.91424,2.78741 2.87845,4.74097 -0.35947,2.44555 -0.20454,3.73375 0.33863,4.14836 z"
           id="path2959-6"
           sodipodi:nodetypes="cccccccccccccccccc"
           inkscape:connector-curvature="0" />
        <path
           style="fill:#eac102;fill-opacity:1;fill-rule:evenodd;stroke:#000000;stroke-width:0.71005965;stroke-linecap:round;stroke-linejoin:round;stroke-miterlimit:4;stroke-opacity:1;stroke-dashoffset:0;display:inline;stroke-dasharray:none"
           d="m 104.35064,621.06536 c 0,2.01583 -0.068,4.71674 -0.84642,5.74867 -0.45222,0.59955 -2.79991,0.24477 -3.38197,0.24477 -1.583879,0 -1.507313,-2.8064 -1.507313,-5.99344 0,-3.18704 1.283988,-5.77064 2.867863,-5.77064 1.58387,0 2.86784,2.5836 2.86784,5.77064 z"
           id="path3043"
           sodipodi:nodetypes="cssssc"
           inkscape:connector-curvature="0" />
        <path
           style="fill:#eac102;fill-opacity:1;fill-rule:evenodd;stroke:#000000;stroke-width:0.71005965;stroke-linecap:round;stroke-linejoin:round;stroke-miterlimit:4;stroke-opacity:1;stroke-dashoffset:0;display:inline;stroke-dasharray:none"
           d="m 100.13247,629.46646 c 0,1.88408 -1.473789,3.41142 -3.2918,3.41142 -1.818014,0 -3.291801,-1.52734 -3.291801,-3.41142 0,-1.88407 1.473787,-3.41141 3.291801,-3.41141 1.818011,0 3.2918,1.52734 3.2918,3.41141 z"
           id="path3046-1"
           inkscape:connector-curvature="0" />
        <path
           style="fill:#eac102;fill-opacity:1;fill-rule:evenodd;stroke:#000000;stroke-width:0.71005965;stroke-linecap:round;stroke-linejoin:round;stroke-miterlimit:4;stroke-opacity:1;stroke-dashoffset:0;display:inline;stroke-dasharray:none"
           d="m 108.90539,629.22724 c 0,1.84062 -1.49212,3.33274 -3.33274,3.33274 -1.84063,0 -3.33274,-1.49212 -3.33274,-3.33274 0,-1.84062 1.49211,-3.33274 3.33274,-3.33274 1.84062,0 3.33274,1.49212 3.33274,3.33274 z"
           id="path3046-2"
           inkscape:connector-curvature="0" />
        <path
           style="fill:#eac102;fill-opacity:1;fill-rule:evenodd;stroke:#000000;stroke-width:0.71005965;stroke-linecap:round;stroke-linejoin:round;stroke-miterlimit:4;stroke-opacity:1;stroke-dashoffset:0;display:inline;stroke-dasharray:none"
           d="m 103.82858,630.02468 c 0,1.6956 -1.11139,3.07015 -2.48237,3.07015 -1.370976,0 -2.482372,-1.37455 -2.482372,-3.07015 0,-1.6956 1.111396,-3.07015 2.482372,-3.07015 1.37098,0 2.48237,1.37455 2.48237,3.07015 z"
           id="path3046"
           inkscape:connector-curvature="0" />
        <path
           style="fill:#eac102;fill-opacity:1;fill-rule:evenodd;stroke:#000000;stroke-width:0.71005965;stroke-linecap:round;stroke-linejoin:round;stroke-miterlimit:4;stroke-opacity:1;stroke-dashoffset:0;display:inline;stroke-dasharray:none"
           d="m 143.15976,731.23496 -85.169463,-0.11989 c -3.886741,-0.005 -7.017046,0.89177 -7.018622,2.01175 -0.0016,1.11997 3.12619,2.02602 7.012931,2.03149 l 85.169464,0.11989 c 3.88673,0.005 7.01704,-0.89177 7.01861,-2.01174 0.002,-1.11998 -3.12619,-2.02603 -7.01292,-2.0315 z"
           id="rect3653-1-2-3"
           inkscape:connector-curvature="0" />
        <path
           id="rect3653-1-2-3-1"
           style="fill:#eac102;fill-opacity:1;fill-rule:evenodd;stroke:#000000;stroke-width:0.71005965;stroke-linecap:round;stroke-linejoin:round;stroke-miterlimit:4;stroke-opacity:1;stroke-dashoffset:0;display:inline;stroke-dasharray:none"
           d="m 153.27723,705.8144 -41.90216,-45.73536 -0.0874,54.5398 36.16959,-0.123 8e-5,0 c 1.38501,0.002 2.4989,0.69339 2.49783,1.55031 l -9.9e-4,0.94966 c -0.001,0.85692 -1.11719,1.54505 -2.50219,1.54327 l -40.33492,-0.17718 -0.28068,-68.30581 48.91772,52.56118 c 0.84908,0.72597 1.51957,1.64382 1.02573,2.75509 l -0.58257,0.74998 c -0.52562,0.6768 -1.82565,0.54146 -2.91963,-0.30794 z"
           sodipodi:nodetypes="cccccccccccccc"
           inkscape:connector-curvature="0" />
        <path
           id="rect3653-1-2-3-1-6"
           style="fill:#eac102;fill-opacity:1;fill-rule:evenodd;stroke:#000000;stroke-width:0.71005965;stroke-linecap:round;stroke-linejoin:round;stroke-miterlimit:4;stroke-opacity:1;stroke-dashoffset:0;display:inline;stroke-dasharray:none"
           d="m 50.237356,702.8344 42.411333,-42.67088 0.427292,54.5398 -38.813571,-0.12301 -7.9e-5,0 c -1.385004,0.002 -2.498899,0.69339 -2.49783,1.55032 l 0.0014,0.94966 c 0.0011,0.85692 1.117179,1.54505 2.502185,1.54327 l 42.638972,0.16275 -0.0592,-67.72553 -49.086961,48.57648 c -0.849082,0.72598 -1.519577,1.64382 -1.025731,2.75509 l 0.582571,0.74999 c 0.525618,0.67679 1.82565,0.54145 2.919625,-0.30794 z"
           sodipodi:nodetypes="cccccccccccccc"
           inkscape:connector-curvature="0" />
        <path
           style="fill:#eac102;fill-opacity:1;stroke:#000000;stroke-width:0.71005965;stroke-linecap:butt;stroke-linejoin:miter;stroke-opacity:1;display:inline;stroke-miterlimit:4;stroke-dasharray:none"
           d="m 60.474106,705.98228 c -1.649343,-0.57903 -3.17966,-1.78464 -5.161185,-0.61488 -1.649246,0.87375 -2.642575,2.08826 -2.046677,4.12842 0.261733,1.18942 0.864274,2.14336 3.470449,1.71284 1.206169,-0.27709 1.756323,-1.26261 1.423779,-2.59123 0.687809,0.97874 1.997187,1.75822 3.514941,1.80069 0.248512,0.79661 -0.577991,1.71271 2.625092,1.53717 0.776826,-0.1049 0.833437,-0.35196 1.051036,-0.56725 1.675217,-0.99103 3.163042,-0.50227 4.733045,-0.6625 3.550501,-0.30462 4.378792,0.20111 8.498165,1.5811 3.129964,1.62078 8.331206,1.33141 9.432515,0 2.255214,4.43224 7.266998,-1.45753 1.510105,-1.54807 1.455551,-1.25921 1.575645,-2.90949 1.826869,-4.68845 0.508447,-3.15919 0.159748,-5.13386 0.133484,-7.5541 -0.150689,-2.31454 -0.532228,-2.6979 -1.112325,-3.95273 -1.370323,-3.23361 -0.932144,-6.11019 -1.245809,-9.13519 -0.19359,-3.23795 -0.166721,-6.34119 2.091176,-8.08113 -0.35921,-1.54323 -2.049336,-1.15021 -3.51495,-1.27366 -1.217628,-0.45495 -0.485472,-1.37231 -0.400433,-2.15204 0.77939,-1.90214 1.198487,-1.81113 2.447117,-1.97636 1.157491,-1.28185 0.939872,-1.66467 1.023342,-2.19596 0.08652,-0.94718 -0.324512,-1.59971 -1.423785,-1.84461 -1.268765,0.0103 -2.220974,-0.38816 -3.158998,1.58109 -0.806369,0.0367 -1.87748,-0.13576 -1.557259,0.79055 0.230185,1.29591 0.211232,1.29185 -0.266958,1.88852 -0.07241,0.78679 0.410614,2.18802 -0.31145,2.54732 -0.948484,-0.0381 -2.024205,-1.14365 -2.758566,0.61487 -0.947591,1.16535 -0.517328,2.7193 0.177975,4.34799 -1.540948,0.46988 -3.211178,-0.46405 -4.538291,2.32772 1.725608,-0.67265 2.63718,-0.0395 3.425967,0.79054 -0.02702,0.63319 -0.441706,1.06029 -2.002183,0.87839 -0.877272,-0.26067 -1.580552,-0.74216 -3.247991,0 -1.563894,0.37845 -1.688955,1.23033 -1.868709,2.0642 l 0.355941,3.03042 -6.451481,3.8649 c -0.301576,0.1415 -1.004141,-0.11282 -1.646241,-0.30744 -2.446501,0.9741 -2.644919,3.54683 -3.8264,5.66557 0.285852,0.43984 0.584497,0.87021 1.334792,0.96623 -0.611675,-0.12562 -0.923284,-1.06581 -1.957691,-0.0439 -1.465147,0.42841 -1.672366,2.40895 -1.735225,4.5676 -0.448667,1.31485 0.191555,2.00271 1.156817,2.5034 z"
           id="path3004-1"
           sodipodi:nodetypes="ccccccccccccccccccccccccccccccccccccccccc"
           inkscape:connector-curvature="0" />
        <path
           style="fill:#eacd02;fill-opacity:1;fill-rule:evenodd;stroke:#000000;stroke-width:0.71005965;stroke-linecap:round;stroke-linejoin:round;stroke-miterlimit:4;stroke-opacity:1;stroke-dashoffset:0;display:inline;stroke-dasharray:none"
           d="m 66.414927,696.64623 c 0,5.94352 4.746171,10.7617 10.600865,10.7617 5.854698,0 10.60087,-4.81818 10.60087,-10.7617 0,-5.94353 -4.746172,-10.76171 -10.60087,-10.76171 -5.850561,0 -10.595017,4.81163 -10.600861,10.75096"
           id="path3988-7"
           inkscape:connector-curvature="0" />
        <path
           style="fill:#eac102;fill-opacity:1;fill-rule:evenodd;stroke:#000000;stroke-width:0.71005965;stroke-linecap:round;stroke-linejoin:round;stroke-miterlimit:4;stroke-opacity:1;stroke-dasharray:none;stroke-dashoffset:0;display:inline"
           d="m 76.995216,685.86671 c 1.204277,0 2.105241,1.10195 2.105241,2.51796 l 0,6.25036 5.847604,0 c 1.434512,0 2.644978,0.95164 2.644978,2.14038 0,1.18875 -1.210466,2.15177 -2.644978,2.15177 l -5.847604,0 0,5.99989 c 0,1.41603 -0.965262,2.47485 -2.16954,2.47485 -1.204277,0 -2.178688,-1.05882 -2.178688,-2.47485 l 0,-5.99989 -5.766866,0 c -1.434522,0 -2.49274,-0.96302 -2.49274,-2.15177 0,-1.18874 1.058218,-2.14038 2.49274,-2.14038 l 5.766866,0 0,-6.25036 c 0,-1.41601 1.038709,-2.51796 2.242987,-2.51796 z"
           id="rect3990-4"
           sodipodi:nodetypes="ccccscccscccscccc"
           inkscape:connector-curvature="0" />
        <path
           style="fill:#eac102;fill-opacity:1;stroke:#000000;stroke-width:0.71005965;stroke-linecap:butt;stroke-linejoin:miter;stroke-opacity:1;display:inline;stroke-miterlimit:4;stroke-dasharray:none"
           d="m 143.745,706.10899 c 1.64934,-0.57903 3.17966,-1.78464 5.16118,-0.61487 1.64925,0.87374 2.64258,2.08825 2.04668,4.12841 -0.26173,1.18942 -0.86428,2.14336 -3.47045,1.71284 -1.20617,-0.27709 -1.75632,-1.26261 -1.42378,-2.59123 -0.6878,0.97874 -1.99719,1.75822 -3.51494,1.80069 -0.24851,0.79662 0.57799,1.71271 -2.62509,1.53717 -0.77682,-0.1049 -0.83344,-0.35196 -1.05104,-0.56724 -1.67521,-0.99104 -3.16304,-0.50228 -4.73304,-0.66251 -3.5505,-0.30462 -4.37879,0.20111 -8.49817,1.5811 -3.12996,1.62077 -8.3312,1.33142 -9.43251,0 -2.25522,4.43224 -7.267,-1.45753 -1.51011,-1.54807 -1.45554,-1.25921 -1.57564,-2.90949 -1.82687,-4.68845 -0.50844,-3.15919 -0.15973,-5.13385 -0.13348,-7.5541 0.15069,-2.31453 0.53223,-2.69789 1.11232,-3.95272 1.37033,-3.23362 0.93215,-6.1102 1.24581,-9.13519 0.19359,-3.23796 0.16672,-6.3412 -2.09117,-8.08114 0.35921,-1.54322 2.04933,-1.1502 3.51495,-1.27365 1.21763,-0.45495 0.48547,-1.37231 0.40043,-2.15205 -0.77939,-1.90213 -1.19849,-1.81112 -2.44712,-1.97635 -1.15749,-1.28186 -0.93986,-1.66467 -1.02333,-2.19597 -0.0865,-0.94717 0.3245,-1.59971 1.42378,-1.8446 1.26877,0.0103 2.22097,-0.38817 3.15899,1.58109 0.80637,0.0367 1.87748,-0.13576 1.55726,0.79055 -0.23018,1.29591 -0.21123,1.29184 0.26696,1.88851 0.0724,0.78679 -0.41061,2.18802 0.31145,2.54733 0.94849,-0.0381 2.02421,-1.14365 2.75857,0.61486 0.94759,1.16536 0.51733,2.7193 -0.17798,4.348 1.54095,0.46988 3.21118,-0.46405 4.53829,2.32772 -1.72561,-0.67265 -2.63718,-0.0395 -3.42596,0.79054 0.027,0.63319 0.4417,1.06028 2.00218,0.87839 0.87727,-0.26067 1.58055,-0.74216 3.24799,0 1.5639,0.37845 1.68896,1.23033 1.86871,2.0642 l -0.35594,3.03042 6.45148,3.86488 c 0.30158,0.14152 1.00414,-0.1128 1.64624,-0.30742 2.4465,0.97409 2.64492,3.54682 3.8264,5.66557 -0.28585,0.43984 -0.5845,0.87021 -1.33479,0.96622 0.61168,-0.12562 0.92328,-1.0658 1.95769,-0.0439 1.46515,0.4284 1.67237,2.40894 1.73522,4.5676 0.44867,1.31484 -0.19155,2.0027 -1.15681,2.50339 z"
           id="path3004-1-5"
           sodipodi:nodetypes="ccccccccccccccccccccccccccccccccccccccccc"
           inkscape:connector-curvature="0" />
        <path
           style="fill:#eacd02;fill-opacity:1;fill-rule:evenodd;stroke:#000000;stroke-width:0.71005965;stroke-linecap:round;stroke-linejoin:round;stroke-miterlimit:4;stroke-opacity:1;stroke-dashoffset:0;display:inline;stroke-dasharray:none"
           d="m 137.80418,696.77295 c 0,5.94352 -4.74617,10.7617 -10.60087,10.7617 -5.8547,0 -10.60087,-4.81818 -10.60087,-10.7617 0,-5.94353 4.74617,-10.76171 10.60087,-10.76171 5.85056,0 10.59502,4.81163 10.60086,10.75096"
           id="path3988-7-5"
           inkscape:connector-curvature="0" />
        <path
           style="fill:#eac102;fill-opacity:1;fill-rule:evenodd;stroke:#000000;stroke-width:0.71005965;stroke-linecap:round;stroke-linejoin:round;stroke-miterlimit:4;stroke-opacity:1;stroke-dasharray:none;stroke-dashoffset:0;display:inline"
           d="m 127.22389,685.99343 c -1.20428,0 -2.10524,1.10194 -2.10524,2.51795 l 0,6.25037 -5.84761,0 c -1.43451,0 -2.64498,0.95163 -2.64498,2.14038 0,1.18874 1.21047,2.15176 2.64498,2.15176 l 5.84761,0 0,5.9999 c 0,1.41602 0.96526,2.47484 2.16954,2.47484 1.20427,0 2.17868,-1.05882 2.17868,-2.47484 l 0,-5.9999 5.76687,0 c 1.43452,0 2.49274,-0.96302 2.49274,-2.15176 0,-1.18875 -1.05822,-2.14038 -2.49274,-2.14038 l -5.76687,0 0,-6.25037 c 0,-1.41601 -1.0387,-2.51795 -2.24298,-2.51795 z"
           id="rect3990-4-1"
           sodipodi:nodetypes="ccccscccscccscccc"
           inkscape:connector-curvature="0" />
        <path
           style="fill:#ed1c24;fill-opacity:1;stroke:#000000;stroke-width:0.71005965;stroke-linecap:butt;stroke-linejoin:miter;stroke-miterlimit:4;stroke-opacity:1;stroke-dasharray:none;display:inline"
           d="m 101.9138,642.04809 4.08727,6.86353 -4.08727,7.32625 -4.318639,-7.24913 4.318639,-6.94065 z"
           id="path3113"
           sodipodi:nodetypes="ccccc"
           inkscape:connector-curvature="0" />
        <path
           style="fill:none;stroke:#ae0c0f;stroke-width:0.71005965;stroke-linecap:round;stroke-linejoin:round;stroke-opacity:1;display:inline;stroke-miterlimit:4;stroke-dasharray:none"
           d="m 102.33899,652.07887 1.62497,-3.28189 -0.8483,-1.61948"
           id="path3117"
           sodipodi:nodetypes="ccc"
           inkscape:connector-curvature="0" />
        <path
           style="fill:#ed1c24;fill-opacity:1;stroke:#000000;stroke-width:0.71005965;stroke-linecap:butt;stroke-linejoin:miter;stroke-miterlimit:4;stroke-opacity:1;stroke-dasharray:none;display:inline"
           d="m 102.07783,680.48832 4.08728,6.86353 -4.08728,7.32626 -4.31864,-7.24913 4.31864,-6.94066 z"
           id="path3113-7"
           sodipodi:nodetypes="ccccc"
           inkscape:connector-curvature="0" />
        <path
           style="fill:none;stroke:#800000;stroke-width:0.71005965;stroke-linecap:round;stroke-linejoin:round;stroke-opacity:1;display:inline;stroke-miterlimit:4;stroke-dasharray:none"
           d="m 102.50303,690.5191 1.62496,-3.28189 -0.8483,-1.61948"
           id="path3117-1"
           sodipodi:nodetypes="ccc"
           inkscape:connector-curvature="0" />
        <path
           style="fill:#0071bc;fill-opacity:1;fill-rule:evenodd;stroke:#000000;stroke-width:0.71005965;stroke-linecap:round;stroke-linejoin:round;stroke-miterlimit:4;stroke-opacity:1;stroke-dashoffset:0;display:inline;stroke-dasharray:none"
           d="m 105.90746,667.95663 c 0,3.91116 -1.779,7.08178 -3.97351,7.08178 -2.194514,0 -3.973516,-3.17062 -3.973516,-7.08178 0,-3.91116 1.779002,-7.08178 3.973516,-7.08178 2.19296,0 3.97132,3.16631 3.97351,7.07471"
           id="path3916"
           inkscape:connector-curvature="0" />
        <path
           style="fill:none;stroke:#000080;stroke-width:0.71005965;stroke-linecap:butt;stroke-linejoin:miter;stroke-opacity:1;display:inline;stroke-miterlimit:4;stroke-dasharray:none"
           d="m 101.51558,672.53257 c 1.20059,0.0124 1.96521,-0.67374 2.41345,-1.86682 0.53541,-1.19719 0.46218,-2.16708 0.33711,-3.11762 -0.0923,-0.6483 -0.30514,-0.88351 -0.5069,-1.15662"
           id="path3920"
           sodipodi:nodetypes="cccc"
           inkscape:connector-curvature="0" />
        <path
           style="fill:#0071bc;fill-opacity:1;fill-rule:evenodd;stroke:#000000;stroke-width:0.71005965;stroke-linecap:round;stroke-linejoin:round;stroke-miterlimit:4;stroke-opacity:1;stroke-dashoffset:0;display:inline;stroke-dasharray:none"
           d="m 105.93415,708.66873 c 0,3.91116 -1.779,7.08178 -3.97351,7.08178 -2.194507,0 -3.973509,-3.17062 -3.973509,-7.08178 0,-3.91116 1.779002,-7.08178 3.973509,-7.08178 2.19296,0 3.97132,3.16631 3.97351,7.07471"
           id="path3916-1"
           inkscape:connector-curvature="0" />
        <path
           style="fill:none;stroke:#000080;stroke-width:0.71005965;stroke-linecap:butt;stroke-linejoin:miter;stroke-opacity:1;display:inline;stroke-miterlimit:4;stroke-dasharray:none"
           d="m 101.54228,713.24468 c 1.20059,0.0124 1.96521,-0.67373 2.41345,-1.86682 0.5354,-1.19719 0.46218,-2.16709 0.33711,-3.11763 -0.0923,-0.6483 -0.30514,-0.88351 -0.5069,-1.15662"
           id="path3920-5"
           sodipodi:nodetypes="cccc"
           inkscape:connector-curvature="0" />
        <path
           style="fill:#ed1c24;fill-opacity:1;stroke:#000000;stroke-width:0.71005965;stroke-linecap:butt;stroke-linejoin:miter;stroke-miterlimit:4;stroke-opacity:1;stroke-dasharray:none;display:inline"
           d="m 82.1976,724.80146 6.863536,4.08727 7.326251,-4.08727 -7.249128,-4.31864 -6.940659,4.31864 z"
           id="path3113-2"
           sodipodi:nodetypes="ccccc"
           inkscape:connector-curvature="0" />
        <path
           style="fill:none;stroke:#800000;stroke-width:0.71005965;stroke-linecap:round;stroke-linejoin:round;stroke-opacity:1;display:inline;stroke-miterlimit:4;stroke-dasharray:none"
           d="m 92.22838,725.22665 -3.281874,1.62497 -1.619491,-0.84831"
           id="path3117-7"
           sodipodi:nodetypes="ccc"
           inkscape:connector-curvature="0" />
        <path
           style="fill:#ed1c24;fill-opacity:1;stroke:#000000;stroke-width:0.71005965;stroke-linecap:butt;stroke-linejoin:miter;stroke-miterlimit:4;stroke-opacity:1;stroke-dasharray:none;display:inline"
           d="m 106.49206,724.89057 6.86353,4.08728 7.32626,-4.08728 -7.24913,-4.31864 -6.94066,4.31864 z"
           id="path3113-2-6"
           sodipodi:nodetypes="ccccc"
           inkscape:connector-curvature="0" />
        <path
           style="fill:none;stroke:#800000;stroke-width:0.71005965;stroke-linecap:round;stroke-linejoin:round;stroke-opacity:1;display:inline;stroke-miterlimit:4;stroke-dasharray:none"
           d="m 116.52284,725.31576 -3.28188,1.62497 -1.61948,-0.84831"
           id="path3117-7-1"
           sodipodi:nodetypes="ccc"
           inkscape:connector-curvature="0" />
        <path
           style="fill:#0071bc;fill-opacity:1;fill-rule:evenodd;stroke:#000000;stroke-width:0.71005965;stroke-linecap:round;stroke-linejoin:round;stroke-miterlimit:4;stroke-opacity:1;stroke-dashoffset:0;display:inline;stroke-dasharray:none"
           d="m 136.38624,728.50553 c 3.91115,0 7.08177,-1.779 7.08177,-3.97351 0,-2.19451 -3.17062,-3.97351 -7.08177,-3.97351 -3.91116,0 -7.08178,1.779 -7.08178,3.97351 0,2.19296 3.16631,3.97132 7.0747,3.97351"
           id="path3916-1-2"
           inkscape:connector-curvature="0" />
        <path
           style="fill:none;stroke:#000080;stroke-width:0.71005965;stroke-linecap:butt;stroke-linejoin:miter;stroke-opacity:1;display:inline;stroke-miterlimit:4;stroke-dasharray:none"
           d="m 140.96218,724.11366 c 0.0124,1.20058 -0.67373,1.9652 -1.86682,2.41344 -1.19718,0.53541 -2.16708,0.46218 -3.11762,0.33712 -0.6483,-0.0923 -0.88351,-0.30514 -1.15662,-0.50691"
           id="path3920-5-3"
           sodipodi:nodetypes="cccc"
           inkscape:connector-curvature="0" />
        <path
           style="fill:#0071bc;fill-opacity:1;fill-rule:evenodd;stroke:#000000;stroke-width:0.71005965;stroke-linecap:round;stroke-linejoin:round;stroke-miterlimit:4;stroke-opacity:1;stroke-dashoffset:0;display:inline;stroke-dasharray:none"
           d="m 65.990524,728.90214 c 3.911157,0 7.081775,-1.779 7.081775,-3.97351 0,-2.19451 -3.170618,-3.97351 -7.081775,-3.97351 -3.91116,0 -7.081778,1.779 -7.081778,3.97351 0,2.19296 3.166311,3.97132 7.074701,3.97351"
           id="path3916-1-2-2"
           inkscape:connector-curvature="0" />
        <path
           style="fill:none;stroke:#000080;stroke-width:0.71005965;stroke-linecap:butt;stroke-linejoin:miter;stroke-opacity:1;display:inline;stroke-miterlimit:4;stroke-dasharray:none"
           d="m 70.566462,724.51026 c 0.01242,1.20059 -0.673729,1.96521 -1.866821,2.41345 -1.197186,0.5354 -2.167086,0.46218 -3.117627,0.33711 -0.648299,-0.0923 -0.88351,-0.30514 -1.156617,-0.50691"
           id="path3920-5-3-1"
           sodipodi:nodetypes="cccc"
           inkscape:connector-curvature="0" />
        <path
           style="fill:#e3e4e5;fill-opacity:1;stroke:#000000;stroke-width:0.71005965;stroke-linecap:round;stroke-linejoin:round;stroke-miterlimit:4;stroke-opacity:1;stroke-dashoffset:0;display:inline;stroke-dasharray:none"
           d="m 103.7351,722.27385 c 0,1.00007 -0.81071,1.81078 -1.81078,1.81078 -1.00006,0 -1.81077,-0.81071 -1.81077,-1.81078 0,-1.00006 0.81071,-1.81077 1.81077,-1.81077 0.99936,0 1.80978,0.80961 1.81077,1.80896"
           id="path4101"
           inkscape:connector-curvature="0" />
        <path
           style="fill:#e3e4e5;fill-opacity:1;stroke:#000000;stroke-width:0.71005965;stroke-linecap:round;stroke-linejoin:round;stroke-miterlimit:4;stroke-opacity:1;stroke-dashoffset:0;display:inline;stroke-dasharray:none"
           d="m 103.67784,727.10463 c 0,1.00007 -0.81071,1.81078 -1.81077,1.81078 -1.00006,0 -1.81078,-0.81071 -1.81078,-1.81078 0,-1.00006 0.81072,-1.81077 1.81078,-1.81077 0.99935,0 1.80977,0.80961 1.81077,1.80896"
           id="path4101-7"
           inkscape:connector-curvature="0" />
        <path
           style="fill:#e3e4e5;fill-opacity:1;stroke:#000000;stroke-width:0.71005965;stroke-linecap:round;stroke-linejoin:round;stroke-miterlimit:4;stroke-opacity:1;stroke-dashoffset:0;display:inline;stroke-dasharray:none"
           d="m 128.07007,722.18648 c 0,1.00007 -0.81071,1.81078 -1.81077,1.81078 -1.00006,0 -1.81077,-0.81071 -1.81077,-1.81078 0,-1.00006 0.81071,-1.81077 1.81077,-1.81077 0.99935,0 1.80977,0.80961 1.81077,1.80896"
           id="path4101-3"
           inkscape:connector-curvature="0" />
        <path
           style="fill:#e3e4e5;fill-opacity:1;stroke:#000000;stroke-width:0.71005965;stroke-linecap:round;stroke-linejoin:round;stroke-miterlimit:4;stroke-opacity:1;stroke-dashoffset:0;display:inline;stroke-dasharray:none"
           d="m 128.01281,727.01726 c 0,1.00007 -0.81071,1.81078 -1.81077,1.81078 -1.00006,0 -1.81078,-0.81071 -1.81078,-1.81078 0,-1.00006 0.81072,-1.81077 1.81078,-1.81077 0.99935,0 1.80977,0.80961 1.81077,1.80896"
           id="path4101-7-1"
           inkscape:connector-curvature="0" />
        <path
           style="fill:#e3e4e5;fill-opacity:1;stroke:#000000;stroke-width:0.71005965;stroke-linecap:round;stroke-linejoin:round;stroke-miterlimit:4;stroke-opacity:1;stroke-dashoffset:0;display:inline;stroke-dasharray:none"
           d="m 148.15475,722.3316 c 0,1.00007 -0.81071,1.81078 -1.81077,1.81078 -1.00006,0 -1.81078,-0.81071 -1.81078,-1.81078 0,-1.00006 0.81072,-1.81077 1.81078,-1.81077 0.99935,0 1.80977,0.80961 1.81077,1.80896"
           id="path4101-33"
           inkscape:connector-curvature="0" />
        <path
           style="fill:#e3e4e5;fill-opacity:1;stroke:#000000;stroke-width:0.71005965;stroke-linecap:round;stroke-linejoin:round;stroke-miterlimit:4;stroke-opacity:1;stroke-dashoffset:0;display:inline;stroke-dasharray:none"
           d="m 148.09749,727.16238 c 0,1.00007 -0.81071,1.81078 -1.81077,1.81078 -1.00006,0 -1.81078,-0.81071 -1.81078,-1.81078 0,-1.00006 0.81072,-1.81077 1.81078,-1.81077 0.99935,0 1.80977,0.80961 1.81077,1.80896"
           id="path4101-7-4"
           inkscape:connector-curvature="0" />
        <path
           style="fill:#e3e4e5;fill-opacity:1;stroke:#000000;stroke-width:0.71005965;stroke-linecap:round;stroke-linejoin:round;stroke-miterlimit:4;stroke-opacity:1;stroke-dashoffset:0;display:inline;stroke-dasharray:none"
           d="m 79.500157,722.3316 c 0,1.00007 -0.810713,1.81078 -1.810773,1.81078 -1.000061,0 -1.810774,-0.81071 -1.810774,-1.81078 0,-1.00006 0.810713,-1.81077 1.810774,-1.81077 0.999355,0 1.809774,0.80961 1.81077,1.80896"
           id="path4101-1"
           inkscape:connector-curvature="0" />
        <path
           style="fill:#e3e4e5;fill-opacity:1;stroke:#000000;stroke-width:0.71005965;stroke-linecap:round;stroke-linejoin:round;stroke-miterlimit:4;stroke-opacity:1;stroke-dashoffset:0;display:inline;stroke-dasharray:none"
           d="m 79.442898,727.16238 c 0,1.00007 -0.810713,1.81078 -1.810773,1.81078 -1.000061,0 -1.810774,-0.81071 -1.810774,-1.81078 0,-1.00006 0.810713,-1.81077 1.810774,-1.81077 0.999355,0 1.809774,0.80961 1.81077,1.80896"
           id="path4101-7-3"
           inkscape:connector-curvature="0" />
        <path
           style="fill:#e3e4e5;fill-opacity:1;stroke:#000000;stroke-width:0.71005965;stroke-linecap:round;stroke-linejoin:round;stroke-miterlimit:4;stroke-opacity:1;stroke-dashoffset:0;display:inline;stroke-dasharray:none"
           d="m 57.1197,722.3316 c 0,1.00007 -0.810713,1.81078 -1.810773,1.81078 -1.000061,0 -1.810774,-0.81071 -1.810774,-1.81078 0,-1.00006 0.810713,-1.81077 1.810774,-1.81077 0.999355,0 1.809774,0.80961 1.81077,1.80896"
           id="path4101-74"
           inkscape:connector-curvature="0" />
        <path
           style="fill:#e3e4e5;fill-opacity:1;stroke:#000000;stroke-width:0.71005965;stroke-linecap:round;stroke-linejoin:round;stroke-miterlimit:4;stroke-opacity:1;stroke-dashoffset:0;display:inline;stroke-dasharray:none"
           d="m 57.062439,727.16238 c 0,1.00007 -0.810713,1.81078 -1.810773,1.81078 -1.000061,0 -1.810774,-0.81071 -1.810774,-1.81078 0,-1.00006 0.810713,-1.81077 1.810774,-1.81077 0.999355,0 1.809774,0.80961 1.81077,1.80896"
           id="path4101-7-2"
           inkscape:connector-curvature="0" />
      </g>
    </g>
    <g
       transform="translate(-0.83230931,-129.16872)"
       style="display:inline;stroke-width:3;stroke-miterlimit:4;stroke-dasharray:none"
       inkscape:label="Shield"
       id="layer1" />
  </g>
  <g
     id="layer1-0"
     transform="matrix(1.8315437,0,0,1.8315437,-403.30478,-14.683781)"
     style="fill:#0071bc;fill-opacity:1">
    <path
       style="fill:#0071bc;fill-opacity:1;stroke:#000000;stroke-width:3;stroke-linecap:round;stroke-linejoin:bevel;stroke-miterlimit:4;stroke-opacity:1;stroke-dasharray:none;stroke-dashoffset:0;marker:none;visibility:visible;display:block"
       id="path1298"
       d="m 284.5145,285.20411 339.54243,0 0,204.30095 c 0,114.62655 -166.08254,204.30091 -169.77121,204.30091 -7.75795,0 -169.77122,-89.40626 -169.77122,-204.30091 l 0,-204.30095 z"
       inkscape:connector-curvature="0" />
  </g>
  <path
     sodipodi:type="arc"
     id="path3042"
     style="fill:#000000;stroke:none"
     sodipodi:cx="165.43169"
     sodipodi:cy="758.87421"
     sodipodi:rx="1.5"
     sodipodi:ry="1.5"
     d="m 166.93169,758.87421 a 1.5,1.5 0 1 1 -3,0 1.5,1.5 0 1 1 3,0 z"
     transform="translate(-46.65405,106.35114)" />
  <path
     style="fill:none;stroke:#000000;stroke-width:4.06125402;stroke-linecap:butt;stroke-linejoin:miter;stroke-miterlimit:4;stroke-opacity:1;stroke-dasharray:none"
     d="m 199.25636,915.49958 c 24.84176,9.63919 50.78413,17.27327 70.7845,17.3551 55.80561,0.22832 101.51888,-56.86744 157.3246,-56.66413 54.7006,0.19928 99.0914,56.41929 153.79182,56.66413 20.42357,0.0914 46.95448,-7.40329 72.43283,-16.96924"
     id="path3045"
     inkscape:connector-curvature="0"
     sodipodi:nodetypes="csasc" />
  <path
     style="fill:none;stroke:#000000;stroke-width:4.06125402;stroke-linecap:butt;stroke-linejoin:miter;stroke-miterlimit:4;stroke-opacity:1;stroke-dasharray:none"
     d="m 150.85121,959.0048 c 33.71276,16.61455 85.91474,39.24129 120.42535,39.38249 55.8058,0.22832 101.51921,-56.86744 157.3251,-56.66414 54.70078,0.19929 99.09172,56.4193 153.79231,56.66414 34.28869,0.15348 85.7917,-21.07543 120.62754,-37.5897"
     id="path3045-0"
     inkscape:connector-curvature="0"
     sodipodi:nodetypes="csasc" />
  <path
     style="fill:none;stroke:#000000;stroke-width:4.06125402;stroke-linecap:butt;stroke-linejoin:miter;stroke-miterlimit:4;stroke-opacity:1;stroke-dasharray:none"
     d="m 244.3957,1125.8088 c 9.80027,2.2606 19.08304,3.6095 27.34205,3.6436 55.2321,0.2283 100.47558,-56.8673 155.70778,-56.664 54.13844,0.1992 98.07304,56.4192 152.21131,56.664 8.76164,0.04 18.65893,-1.346 29.11479,-3.7079"
     id="path3045-0-5"
     inkscape:connector-curvature="0"
     sodipodi:nodetypes="csasc" />
  <path
     style="fill:none;stroke:#000000;stroke-width:4.04691601;stroke-linecap:butt;stroke-linejoin:miter;stroke-miterlimit:4;stroke-opacity:1;stroke-dasharray:none"
     d="m 165.69676,1031.21 c 32.95108,15.3303 76.28953,32.3804 106.26953,32.5027 55.77519,0.2276 101.46355,-56.6667 157.23885,-56.4641 54.67079,0.1986 99.03739,56.2202 153.70801,56.4641 30.26208,0.135 73.94018,-16.3446 107.71679,-31.5323"
     id="path3045-5"
     inkscape:connector-curvature="0"
     sodipodi:nodetypes="csasc" />
  <path
     style="fill:none;stroke:#000000;stroke-width:4.06125402;stroke-linecap:butt;stroke-linejoin:miter;stroke-miterlimit:4;stroke-opacity:1;stroke-dasharray:none"
     d="m 312.6643,1185.0815 c 38.94236,-16.3625 74.14613,-46.9456 115.05388,-46.7603 39.44638,0.1787 72.74041,31.1976 113.32777,47.0855"
     id="path3148"
     inkscape:connector-curvature="0"
     sodipodi:nodetypes="csc" />
  <path
     style="fill:none;stroke:#000000;stroke-width:4.06125402;stroke-linecap:butt;stroke-linejoin:miter;stroke-miterlimit:4;stroke-opacity:1;stroke-dasharray:none"
     d="m 366.51828,1222.0787 c 43.66743,-25.2621 83.91605,-23.5537 121.3028,0.7318"
     id="path3150"
     inkscape:connector-curvature="0"
     sodipodi:nodetypes="cc" />
  <path
     style="fill:none;stroke:#000000;stroke-width:4.06125402;stroke-miterlimit:4"
     d="m 137.58694,975.33671 c 62.73886,-80.38304 168.82119,-133.21203 289.12194,-133.21203 122.37423,0 230.03567,54.66578 292.32722,137.39284"
     id="path3063"
     inkscape:connector-curvature="0"
     sodipodi:nodetypes="csc" />
  <path
     style="fill:#e3e4e5;fill-opacity:1;fill-rule:evenodd;stroke:#000000;stroke-width:1.710724;stroke-linecap:round;stroke-linejoin:round;stroke-miterlimit:4;stroke-opacity:1;stroke-dasharray:none"
     d="m 424.30415,843.76192 c -78.57011,0.0938 -157.46553,24.16367 -221.13782,70.50054 -0.56897,1.81505 2.79801,1.79477 3.96941,2.63291 20.07856,7.00317 40.69849,13.68405 62.12067,14.40751 17.90621,0.11445 35.17927,-5.58631 51.05443,-13.48532 26.47079,-12.52911 50.7273,-29.88625 78.82695,-38.59822 17.02531,-5.4869 35.63715,-5.97746 52.80343,-0.83596 21.37093,6.10771 40.33849,18.09479 59.79607,28.57616 16.98416,9.26984 34.18673,18.99452 53.39262,22.70014 20.26743,3.90596 41.04673,-0.3454 60.54518,-6.05506 8.05765,-2.55922 16.26934,-4.85947 24.11053,-8.03238 0.91186,-1.5093 -1.71752,-2.46834 -2.52208,-3.40887 -64.37528,-46.00402 -144.04499,-69.1754 -222.95939,-68.40145 z"
     id="path3834"
     inkscape:connector-curvature="0" />
  <path
     style="fill:#e3e4e5;fill-opacity:1;fill-rule:evenodd;stroke:#000000;stroke-width:1.710724;stroke-linecap:round;stroke-linejoin:round;stroke-miterlimit:4;stroke-opacity:1;stroke-dasharray:none"
     d="m 426.37573,943.39823 c -19.99463,0.16157 -38.8039,8.42156 -56.25786,17.413 -23.85177,12.28727 -46.57785,27.37777 -72.39394,35.16503 -14.28769,4.24554 -29.51696,4.96024 -44.17143,2.19187 -28.51519,-5.07279 -55.5597,-16.09534 -81.94395,-27.78027 -6.76916,-2.88327 -13.4034,-6.45857 -20.19162,-9.21414 -4.19433,4.41536 -8.02043,9.39014 -11.93498,14.1402 0.84796,3.84406 3.03631,7.56762 4.55748,11.2801 7.14021,15.16998 14.98739,30.08878 24.09716,44.15808 27.2524,12.0583 55.03578,23.8216 84.41354,29.4832 14.10935,2.7401 28.8069,2.7468 42.70172,-1.1585 23.17832,-6.2113 43.65723,-19.167 64.64922,-30.3772 19.6793,-10.5421 40.2834,-21.0984 62.9699,-22.6924 19.27531,-1.2295 38.34209,4.4039 55.40893,13.03 24.39277,11.8407 47.19009,27.1537 72.55101,36.9748 11.75575,4.287 24.24114,6.7243 36.79359,5.9432 23.39444,-1.0917 45.75639,-8.9471 67.61303,-16.7886 10.92759,-4.1334 21.84945,-8.4304 32.39786,-13.4121 10.69523,-16.8116 20.7102,-34.17741 28.36055,-52.56472 -0.99033,-3.57798 -4.26949,-6.05258 -6.30829,-9.06149 -2.24618,-2.4435 -4.12892,-5.51782 -6.74192,-7.44342 -10.84924,4.54216 -21.63805,9.78326 -32.67115,14.16422 -24.95074,10.05047 -50.58705,19.30494 -77.43738,22.4818 -11.53007,0.79331 -23.30139,0.42816 -34.42618,-2.98696 -18.25029,-5.01069 -34.82162,-14.5222 -51.25804,-23.72007 -21.17924,-11.42719 -42.2803,-24.72358 -66.48022,-28.37917 -4.73699,-0.66903 -9.51454,-0.93648 -14.29703,-0.84646 z"
     id="path3836"
     inkscape:connector-curvature="0" />
  <path
     style="fill:#e3e4e5;fill-opacity:1;fill-rule:evenodd;stroke:#000000;stroke-width:1.710724;stroke-linecap:round;stroke-linejoin:round;stroke-miterlimit:4;stroke-opacity:1;stroke-dasharray:none"
     d="m 425.38672,1074.4023 c -18.35537,0.339 -35.78539,7.3031 -51.87915,15.627 -25.64029,12.6237 -49.54175,29.4439 -77.20034,37.4321 -13.86762,4.0882 -28.59553,3.9814 -42.79482,1.791 -1.6849,-0.5673 -1.79773,1.4661 -0.40094,2.0347 18.73895,17.4332 38.16964,34.2443 58.61902,49.6345 1.33294,1.2058 3.138,2.2416 4.75795,0.842 22.70225,-10.5031 43.8745,-24.1719 66.65646,-34.4376 17.88191,-7.9478 37.89546,-12.6778 57.45361,-9.2498 23.60089,3.8465 44.14351,16.9168 64.86019,28.073 11.06135,5.8136 21.89168,12.2418 33.57088,16.7237 2.61248,-0.5947 4.50371,-3.1077 6.78943,-4.4773 19.67386,-15.3258 38.942,-31.2537 57.01523,-48.4082 0.88894,-1.8317 -2.02853,-1.1015 -3.0205,-0.9756 -16.90583,3.1895 -34.63433,2.1491 -50.81385,-3.7823 -20.4156,-7.0006 -38.52267,-19.0275 -57.48521,-29.1515 -20.37021,-11.3178 -42.17646,-22.371 -66.12796,-21.6757 z"
     id="path3838"
     inkscape:connector-curvature="0" />
  <path
     style="fill:#e3e4e5;fill-opacity:1;fill-rule:evenodd;stroke:#000000;stroke-width:1.710724;stroke-linecap:round;stroke-linejoin:round;stroke-miterlimit:4;stroke-opacity:1;stroke-dasharray:none"
     d="m 425.21297,1205.4598 c -19.18995,0.5425 -37.92594,6.9299 -54.56394,16.1089 0.64701,1.8351 3.31164,2.528 4.82158,3.8037 15.74662,9.5942 31.5562,19.3293 48.45234,26.7264 2.22499,0.9242 4.76463,2.1079 7.03699,0.6197 16.41597,-7.8906 32.01782,-17.6455 47.55015,-27.2577 1.24539,-1.1961 4.15098,-1.8558 4.05223,-3.8828 -5.79143,-4.0665 -12.4808,-6.8411 -19.04438,-9.4931 -12.18371,-4.6447 -25.25443,-7.0311 -38.30497,-6.6251 z"
     id="path3840"
     inkscape:connector-curvature="0" />
  <path
     sodipodi:type="star"
     style="fill:#eac102;fill-opacity:1;fill-rule:evenodd;stroke:#000000;stroke-width:4.26160717;stroke-linecap:round;stroke-linejoin:round;stroke-miterlimit:4;stroke-opacity:1;stroke-dasharray:none"
     id="path3842"
     sodipodi:sides="5"
     sodipodi:cx="-185.34142"
     sodipodi:cy="757.94006"
     sodipodi:r1="50.939293"
     sodipodi:r2="18.847536"
     sodipodi:arg1="0.59717666"
     sodipodi:arg2="1.2254952"
     inkscape:flatsided="false"
     inkscape:rounded="0"
     inkscape:randomized="0"
     d="m -143.21836,786.58374 -35.74354,-10.90864 -20.60453,31.17775 -0.67063,-37.36508 -36.01895,-9.96162 35.32907,-12.18425 -1.65641,-37.33436 22.50519,29.8348 34.99524,-13.1123 -21.4201,30.62317 z"
     transform="matrix(-0.51109116,0,0,0.51109116,107.53182,237.81582)"
     inkscape:transform-center-x="-2.2127556"
     inkscape:transform-center-y="0.24671645" />
  <path
     sodipodi:type="star"
     style="fill:#eac102;fill-opacity:1;fill-rule:evenodd;stroke:#000000;stroke-width:4.26160717;stroke-linecap:round;stroke-linejoin:round;stroke-miterlimit:4;stroke-opacity:1;stroke-dasharray:none"
     id="path3856"
     sodipodi:sides="7"
     sodipodi:cx="-212.30017"
     sodipodi:cy="560.8042"
     sodipodi:r1="81.313858"
     sodipodi:r2="30.086123"
     sodipodi:arg1="0.97704666"
     sodipodi:arg2="1.4258456"
     inkscape:flatsided="false"
     inkscape:rounded="0"
     inkscape:randomized="0"
     d="m -166.80727,628.20108 -41.14715,-37.62627 -28.6744,47.81844 3.76258,-55.62973 -55.26416,7.39576 45.83901,-31.74287 -40.23888,-38.59608 53.39773,16.04703 5.0871,-55.52428 20.74687,51.75318 46.58238,-30.64157 -27.5268,48.48813 53.00018,17.31487 -55.07223,8.71054 z"
     transform="matrix(0.59561654,0,0,0.59561654,797.68936,244.57071)"
     inkscape:transform-center-x="-0.50946563"
     inkscape:transform-center-y="-4.0678278" />
  <path
     sodipodi:type="star"
     style="fill:#eac102;fill-opacity:1;fill-rule:evenodd;stroke:#000000;stroke-width:4.26160717;stroke-linecap:round;stroke-linejoin:round;stroke-miterlimit:4;stroke-opacity:1;stroke-dasharray:none"
     id="path3842-4"
     sodipodi:sides="5"
     sodipodi:cx="-185.34142"
     sodipodi:cy="757.94006"
     sodipodi:r1="50.939293"
     sodipodi:r2="18.847536"
     sodipodi:arg1="0.59717666"
     sodipodi:arg2="1.2254952"
     inkscape:flatsided="false"
     inkscape:rounded="0"
     inkscape:randomized="0"
     d="m -143.21836,786.58374 -35.74354,-10.90864 -20.60453,31.17775 -0.67063,-37.36508 -36.01895,-9.96162 35.32907,-12.18425 -1.65641,-37.33436 22.50519,29.8348 34.99524,-13.1123 -21.4201,30.62317 z"
     transform="matrix(0.51109116,0,0,0.51109116,372.68454,248.12694)"
     inkscape:transform-center-x="2.2466444"
     inkscape:transform-center-y="0.25050009" />
  <path
     sodipodi:type="star"
     style="fill:#eac102;fill-opacity:1;fill-rule:evenodd;stroke:#000000;stroke-width:4.26160717;stroke-linecap:round;stroke-linejoin:round;stroke-miterlimit:4;stroke-opacity:1;stroke-dasharray:none"
     id="path3842-6"
     sodipodi:sides="5"
     sodipodi:cx="-185.34142"
     sodipodi:cy="757.94006"
     sodipodi:r1="50.939293"
     sodipodi:r2="18.847536"
     sodipodi:arg1="0.59717666"
     sodipodi:arg2="1.2254952"
     inkscape:flatsided="false"
     inkscape:rounded="0"
     inkscape:randomized="0"
     d="m -143.21836,786.58374 -35.74354,-10.90864 -20.60453,31.17775 -0.67063,-37.36508 -36.01895,-9.96162 35.32907,-12.18425 -1.65641,-37.33436 22.50519,29.8348 34.99524,-13.1123 -21.4201,30.62317 z"
     transform="matrix(-0.51109116,0,0,0.51109116,235.38059,276.41741)"
     inkscape:transform-center-x="-2.2466424"
     inkscape:transform-center-y="0.25050361" />
  <path
     sodipodi:type="star"
     style="fill:#eac102;fill-opacity:1;fill-rule:evenodd;stroke:#000000;stroke-width:4.26160717;stroke-linecap:round;stroke-linejoin:round;stroke-miterlimit:4;stroke-opacity:1;stroke-dasharray:none"
     id="path3842-60"
     sodipodi:sides="5"
     sodipodi:cx="-185.34142"
     sodipodi:cy="757.94006"
     sodipodi:r1="50.939293"
     sodipodi:r2="18.847536"
     sodipodi:arg1="0.59717666"
     sodipodi:arg2="1.2254952"
     inkscape:flatsided="false"
     inkscape:rounded="0"
     inkscape:randomized="0"
     d="m -143.21836,786.58374 -35.74354,-10.90864 -20.60453,31.17775 -0.67063,-37.36508 -36.01895,-9.96162 35.32907,-12.18425 -1.65641,-37.33436 22.50519,29.8348 34.99524,-13.1123 -21.4201,30.62317 z"
     transform="matrix(0.51109116,0,0,0.51109116,488.04464,330.73161)"
     inkscape:transform-center-x="2.2466384"
     inkscape:transform-center-y="0.2505035" />
  <path
     sodipodi:type="star"
     style="fill:#eac102;fill-opacity:1;fill-rule:evenodd;stroke:#000000;stroke-width:4.26160717;stroke-linecap:round;stroke-linejoin:round;stroke-miterlimit:4;stroke-opacity:1;stroke-dasharray:none"
     id="path3842-61"
     sodipodi:sides="5"
     sodipodi:cx="-185.34142"
     sodipodi:cy="757.94006"
     sodipodi:r1="50.939293"
     sodipodi:r2="18.847536"
     sodipodi:arg1="0.59717666"
     sodipodi:arg2="1.2254952"
     inkscape:flatsided="false"
     inkscape:rounded="0"
     inkscape:randomized="0"
     d="m -143.21836,786.58374 -35.74354,-10.90864 -20.60453,31.17775 -0.67063,-37.36508 -36.01895,-9.96162 35.32907,-12.18425 -1.65641,-37.33436 22.50519,29.8348 34.99524,-13.1123 -21.4201,30.62317 z"
     transform="matrix(-0.51109116,0,0,0.51109116,320.52176,398.25735)"
     inkscape:transform-center-x="-2.2466457"
     inkscape:transform-center-y="0.25049962" />
  <path
     sodipodi:type="star"
     style="fill:#eac102;fill-opacity:1;fill-rule:evenodd;stroke:#000000;stroke-width:4.26160717;stroke-linecap:round;stroke-linejoin:round;stroke-miterlimit:4;stroke-opacity:1;stroke-dasharray:none"
     id="path3842-0"
     sodipodi:sides="5"
     sodipodi:cx="-185.34142"
     sodipodi:cy="757.94006"
     sodipodi:r1="50.939293"
     sodipodi:r2="18.847536"
     sodipodi:arg1="0.59717666"
     sodipodi:arg2="1.2254952"
     inkscape:flatsided="false"
     inkscape:rounded="0"
     inkscape:randomized="0"
     d="m -143.21836,786.58374 -35.74354,-10.90864 -20.60453,31.17775 -0.67063,-37.36508 -36.01895,-9.96162 35.32907,-12.18425 -1.65641,-37.33436 22.50519,29.8348 34.99524,-13.1123 -21.4201,30.62317 z"
     transform="matrix(0.51109116,0,0,0.51109116,587.86531,398.25735)"
     inkscape:transform-center-x="2.2466367"
     inkscape:transform-center-y="0.25049962" />
  <path
     sodipodi:type="star"
     style="fill:#eac102;fill-opacity:1;fill-rule:evenodd;stroke:#000000;stroke-width:4.26160717;stroke-linecap:round;stroke-linejoin:round;stroke-miterlimit:4;stroke-opacity:1;stroke-dasharray:none"
     id="path3842-8"
     sodipodi:sides="5"
     sodipodi:cx="-185.34142"
     sodipodi:cy="757.94006"
     sodipodi:r1="50.939293"
     sodipodi:r2="18.847536"
     sodipodi:arg1="0.59717666"
     sodipodi:arg2="1.2254952"
     inkscape:flatsided="false"
     inkscape:rounded="0"
     inkscape:randomized="0"
     d="m -143.21836,786.58374 -35.74354,-10.90864 -20.60453,31.17775 -0.67063,-37.36508 -36.01895,-9.96162 35.32907,-12.18425 -1.65641,-37.33436 22.50519,29.8348 34.99524,-13.1123 -21.4201,30.62317 z"
     transform="matrix(-0.51109116,0,0,0.51109116,438.06218,341.25912)"
     inkscape:transform-center-x="-2.2466485"
     inkscape:transform-center-y="0.25049738" />
  <path
     id="path3913"
     d="m 576.62575,565.50694 a 64.249397,64.465001 0 1 1 -102.6266,0 51.744481,51.313277 0 1 0 102.6266,0 z"
     inkscape:connector-curvature="0"
     style="fill:#e3e4e5;fill-opacity:1;stroke:#000000;stroke-width:2.53828382;stroke-miterlimit:4;stroke-dasharray:none" />
</svg>
