<?xml version="1.0" encoding="UTF-8" standalone="no"?>
<!-- Created with Inkscape (http://www.inkscape.org/) -->

<svg
   xmlns:dc="http://purl.org/dc/elements/1.1/"
   xmlns:cc="http://creativecommons.org/ns#"
   xmlns:rdf="http://www.w3.org/1999/02/22-rdf-syntax-ns#"
   xmlns:svg="http://www.w3.org/2000/svg"
   xmlns="http://www.w3.org/2000/svg"
   xmlns:sodipodi="http://sodipodi.sourceforge.net/DTD/sodipodi-0.dtd"
   xmlns:inkscape="http://www.inkscape.org/namespaces/inkscape"
   width="300"
   height="100"
   id="svg3193"
   version="1.1"
   inkscape:version="0.48.1 "
   sodipodi:docname="Route_nationale_française_G.svg">
  <defs
     id="defs3195" />
  <sodipodi:namedview
     id="base"
     pagecolor="#ffffff"
     bordercolor="#666666"
     borderopacity="1.0"
     inkscape:pageopacity="0.0"
     inkscape:pageshadow="2"
     inkscape:zoom="1.9258373"
     inkscape:cx="110.80621"
     inkscape:cy="64.285714"
     inkscape:document-units="px"
     inkscape:current-layer="g4214"
     showgrid="false"
     inkscape:window-width="1366"
     inkscape:window-height="705"
     inkscape:window-x="-8"
     inkscape:window-y="-8"
     inkscape:window-maximized="1" />
  <metadata
     id="metadata3198">
    <rdf:RDF>
      <cc:Work
         rdf:about="">
        <dc:format>image/svg+xml</dc:format>
        <dc:type
           rdf:resource="http://purl.org/dc/dcmitype/StillImage" />
        <dc:title></dc:title>
      </cc:Work>
    </rdf:RDF>
  </metadata>
  <g
     inkscape:label="Layer 1"
     inkscape:groupmode="layer"
     id="layer1"
     transform="translate(0,-952.36218)">
    <g
       transform="translate(-2170,227.14288)"
       id="g4214">
      <path
         style="fill:#d40000;fill-opacity:1;stroke:none"
         d="m 2177.5,725.2193 285,0 c 4.155,0 7.5,2.23 7.5,5 l 0,90 c 0,2.77 -3.345,5 -7.5,5 l -285,0 c -4.155,0 -7.5,-2.23 -7.5,-5 l 0,-90 c 0,-2.77 3.345,-5 7.5,-5 z"
         id="rect2985-8-1-2-1-3-18-7-42-9-9-5" />
      <g
         transform="matrix(1.1129653,0,0,1.2489479,2182.0934,712.28839)"
         style="font-size:82px;font-style:normal;font-variant:normal;font-weight:normal;font-stretch:normal;text-align:start;line-height:125%;letter-spacing:0px;word-spacing:0px;writing-mode:lr-tb;text-anchor:start;fill:#ffffff;fill-opacity:1;stroke:none;font-family:Caracteres L1;-inkscape-font-specification:Caracteres L1"
         id="flowRoot3049">
        <path
           d="m 34.381836,20.958431 14.734375,31.310547 0,-31.310547 10.890625,0 0.04004,58.777344 -10.69043,0 -17.897461,-37.036133 -0.04004,37.076172 -11.010742,0 0,-58.817383 z"
           style="fill:#ffffff"
           id="path3114" />
        <path
           d="m 122.62793,20.918392 0,58.817383 -11.1709,0 0.04,-41.520508 -0.16016,0 c -0.0801,0.347047 -1.04103,1.107788 -2.88281,2.282227 l -3.4834,1.841797 -3.12304,1.201172 c -1.25457,0.266963 -1.935237,0.467158 -2.041996,0.600586 l 0,-12.41211 2.482426,-1.161133 c 4.13735,-2.642526 7.11358,-5.858994 8.92871,-9.649414 z"
           style="fill:#ffffff"
           id="path3116" />
        <path
           d="m 176.32031,20.878353 -0.04,11.250977 -19.77929,0 -1.36133,10.009765 c 1.86847,-0.533816 3.84372,-0.760703 5.92578,-0.680664 1.94854,-0.05335 3.93714,0.160195 5.96582,0.640625 2.93616,0.934282 5.55205,2.575882 7.84766,4.924805 3.17639,3.470081 4.97814,7.313828 5.40527,11.53125 0.0267,0.613953 0.04,1.214538 0.04,1.801758 -5e-5,2.562517 -0.3337,4.778009 -1.00098,6.646484 -1.22791,2.85613 -2.90954,5.418627 -5.04492,7.6875 -3.52347,3.309898 -7.82099,4.964844 -12.89258,4.964844 l -0.80078,0 -3.68359,-0.240234 C 153.0576,78.98838 149.72101,77.6404 146.8916,75.371517 143.23469,72.008244 140.97916,68.551541 140.125,65.0014 l 11.53125,-2.922851 c 0.34699,1.574885 1.25454,2.989598 2.72266,4.24414 2.21547,1.628267 5.33851,1.961926 9.36914,1.000977 3.33655,-1.361315 4.89808,-3.736963 4.68457,-7.126953 0.08,-3.069639 -1.30798,-5.245093 -4.16407,-6.526368 -1.97528,-0.587213 -4.20412,-0.747369 -6.68652,-0.480468 -1.8952,0.400416 -3.59019,1.134465 -5.08496,2.202148 l -9.96973,-7.807617 2.96289,-26.706055 z"
           style="fill:#ffffff"
           id="path3118" />
        <path
           d="m 210.43359,20.958431 c 2.64255,0.427142 5.5654,1.775122 8.76856,4.043946 0.9609,0.774142 2.01526,1.988659 3.16308,3.643554 l 1.40137,2.5625 0.52051,1.241211 -0.12012,0.120117 c 0.66728,1.81515 1.00094,3.550174 1.00098,5.205079 -0.1602,3.203163 -0.45382,5.271846 -0.88086,6.206054 -0.72074,1.921909 -1.36137,3.296582 -1.92188,4.124024 l -0.92089,1.321289 -2.042,2.242187 -16.69629,16.616211 23.34278,0 0,11.451172 -39.43848,0 0.04,-11.571289 24.62402,-24.864258 c 0.77406,-0.934207 1.32126,-1.788373 1.64161,-2.5625 0.82744,-2.695922 0.44039,-4.9648 -1.16114,-6.80664 -1.46812,-1.414667 -3.53681,-2.122023 -6.20605,-2.122071 l -2.36231,0.320313 -1.08105,0.520508 -0.68067,0.04004 -1.48144,1.161132 -0.84082,1.000977 c -0.53387,0.960981 -0.89422,1.708377 -1.08106,2.242188 l -0.24023,1.401367 c -0.10679,0.29366 -0.17352,0.400431 -0.2002,0.320312 l -10.81054,0.04004 -0.0801,-0.280273 0.0801,-1.961914 0.16015,-0.240235 c 0.10677,-1.681595 0.65397,-3.563429 1.64161,-5.645507 l 1.84179,-3.083008 1.48145,-1.641602 0.24023,-0.08008 c 2.82942,-2.535751 5.97915,-4.110619 9.44922,-4.724609 2.02863,-0.346947 3.87042,-0.520449 5.52539,-0.520508 1.22784,5.9e-5 2.33559,0.09348 3.32324,0.280273 z"
           style="fill:#ffffff"
           id="path3120" />
      </g>
    </g>
  </g>
</svg>
