<?xml version="1.0" encoding="UTF-8"?>
<svg width="300pt" version="1.1" xmlns="http://www.w3.org/2000/svg" height="192pt" viewBox="0 0 300 192" xmlns:xlink="http://www.w3.org/1999/xlink">
 <defs>
  <clipPath id="Clip0">
   <path d="M0 0 L300 0 L300 192 L0 192 L0 0 Z" transform="translate(0, 0)"/>
  </clipPath>
 </defs>
 <g id="Hintergrund">
  <g id="Gruppe1" clip-path="url(#Clip0)">
   <path style="fill:#999999; fill-rule:evenodd;stroke:none;" d="M2.938 0 C0.864 3.1367 0 5.5895 0 8.3675 C0 11.1605 0.864 13.6135 2.938 16.7495 L4.743 16.7495 C2.813 13.0355 2.219 11.0355 2.219 8.3675 C2.219 5.7145 2.829 3.6755 4.743 0 L2.938 0 Z" transform="translate(115.772, 96.8555)"/>
   <path style="fill:#999999; fill-rule:evenodd;stroke:none;" d="M11.559 4.2183 C11.668 3.7153 11.703 3.4613 11.703 3.1016 C11.703 1.1563 10.027 0 7.16 0 C5.41 0 4.039 0.4336 3.012 1.336 C1.984 2.2188 1.352 3.5703 1.352 4.8513 C1.352 6.3473 2.254 7.1403 4.399 7.5743 L6.168 7.9333 C7.809 8.2613 8.332 8.6213 8.332 9.4683 C8.332 10.6953 7.121 11.4683 5.246 11.4683 C3.606 11.4683 2.668 10.8753 2.668 9.8473 C2.668 9.7583 2.688 9.5933 2.703 9.4333 L0.07 9.4333 C0.016 9.7933 0 9.9723 0 10.2263 C0 11.1793 0.359 12.0113 1.008 12.6053 C1.875 13.3983 3.102 13.7773 4.852 13.7773 C7.051 13.7773 8.727 13.1483 9.774 11.9373 C10.531 11.0903 11.02 9.7733 11.02 8.5863 C11.02 7.1953 10.027 6.2583 8.188 5.8983 L6.223 5.5003 C4.527 5.1563 4.039 4.8713 4.039 4.1833 C4.039 3.0313 5.051 2.3086 6.691 2.3086 C8.223 2.3086 9.07 2.8321 9.07 3.8043 C9.07 3.8943 9.051 4.0583 9.035 4.2183 L11.559 4.2183 Z" transform="translate(122.414, 96.6367)"/>
   <path style="fill:#999999; fill-rule:evenodd;stroke:none;" d="M1.801 16.7495 C3.875 13.6135 4.742 11.1605 4.742 8.3825 C4.742 5.5895 3.875 3.1367 1.801 0 L0 0 C1.93 3.7145 2.524 5.7145 2.524 8.3825 C2.524 11.0355 1.91 13.0745 0 16.7495 L1.801 16.7495 Z" transform="translate(133.447, 96.8555)"/>
   <path style="fill:#999999; fill-rule:evenodd;stroke:none;" d="M2.9375 0 C0.8633 3.1367 0 5.5898 0 8.3672 C0 11.1601 0.8633 13.6133 2.9375 16.75 L4.7422 16.75 C2.8125 13.0351 2.2188 11.0351 2.2188 8.3672 C2.2188 5.7148 2.8282 3.6758 4.7422 0 L2.9375 0 Z" transform="translate(86.623, 73.8555)"/>
   <path style="fill:#999999; fill-rule:evenodd;stroke:none;" d="M3.8046 7.9336 L6.906 7.9336 C7.937 7.9336 8.441 8.2578 8.441 8.9258 C8.441 9.1406 8.406 9.3593 8.223 10.0234 C7.883 11.25 7.754 11.9375 7.754 12.4062 C7.754 12.6406 7.793 12.8203 7.898 13.1445 L10.766 13.1445 L10.875 12.6562 C10.641 12.4765 10.551 12.2968 10.551 12.0429 C10.551 11.9179 10.57 11.7578 10.605 11.5742 C11.019 9.3593 11.109 8.7265 11.109 8.2773 C11.109 7.5898 10.641 7.1015 9.703 6.7968 C10.66 6.3281 11.129 6.0195 11.562 5.5703 C12.266 4.8476 12.715 3.7148 12.715 2.7031 C12.715 2.0195 12.426 1.3164 11.941 0.8281 C11.363 0.25 10.641 0 9.594 0 L2.7968 0 L0 13.1445 L2.707 13.1445 L3.8046 7.9336 Z M4.2929 5.6797 L5.0156 2.2539 L8.043 2.2539 C8.875 2.2539 9.289 2.3593 9.633 2.6328 C9.883 2.8672 10.027 3.1718 10.027 3.5156 C10.027 4.0195 9.828 4.5781 9.488 4.9375 C9.019 5.4609 8.461 5.6797 7.559 5.6797 L4.2929 5.6797 Z" transform="translate(93.335, 73.8555)"/>
   <path style="fill:#999999; fill-rule:evenodd;stroke:none;" d="M1.801 16.75 C3.875 13.6133 4.742 11.1601 4.742 8.3828 C4.742 5.5898 3.875 3.1367 1.801 0 L0 0 C1.93 3.7148 2.524 5.7148 2.524 8.3828 C2.524 11.0351 1.91 13.0742 0 16.75 L1.801 16.75 Z" transform="translate(105.287, 73.8555)"/>
   <path style="fill:#000000; fill-rule:evenodd;stroke:none;" d="M13.6758 0 L11.5625 0 L11.5625 14.301 L2.4219 0 L0 0 L0 17.492 L2.1094 17.492 L2.1094 3.312 L11.1563 17.492 L13.6758 17.492 L13.6758 0 Z" transform="translate(27.4238, 172.008)"/>
   <path style="fill:#000000; fill-rule:evenodd;stroke:none;" d="M13.6758 0 L11.5625 0 L11.5625 14.3 L2.4219 0 L0 0 L0 17.492 L2.1094 17.492 L2.1094 3.312 L11.1563 17.492 L13.6758 17.492 L13.6758 0 Z" transform="translate(70.6738, 124.558)"/>
   <path style="fill:#000000; fill-rule:evenodd;stroke:none;" d="M13.6758 0 L11.5625 0 L11.5625 14.301 L2.4219 0 L0 0 L0 17.492 L2.1094 17.492 L2.1094 3.313 L11.1563 17.492 L13.6758 17.492 L13.6758 0 Z" transform="translate(34.4746, 108.208)"/>
   <path style="fill:#000000; fill-rule:nonzero;stroke:none;" d="M28.75 0 L30.3008 1.4 L0.3506 7.6 L0 5.9 L28.75 0 Z" transform="translate(43.5996, 171.35)"/>
   <path style="fill:#000000; fill-rule:nonzero;stroke:none;" d="M25.0996 0 L25.4492 1.65 L0.3496 6.85 L0 5.2 L25.0996 0 Z" transform="translate(42.4004, 166.25)"/>
   <path style="fill:#000000; fill-rule:nonzero;stroke:none;" d="M3.0508 0 L4.7002 0.2 L1.5508 28.7 L0 27.3 L3.0508 0 Z" transform="translate(72.3496, 144.05)"/>
   <path style="fill:#000000; fill-rule:nonzero;stroke:none;" d="M0 1.55 L0.7002 0 L16.7002 7.2 L16 8.75 L0 1.55 Z" transform="translate(51, 120)"/>
   <path style="fill:#000000; fill-rule:nonzero;stroke:none;" d="M2.0508 19.8 L0 19.55 L17.8008 0 L19.0508 1.1 L2.0508 19.8 Z" transform="translate(13.5996, 125.9)"/>
   <path style="fill:#000000; fill-rule:nonzero;stroke:none;" d="M1.25 17.05 L0 15.9 L14.5 0 L15.7998 1.15 L1.25 17.05 Z" transform="translate(21.2998, 129.9)"/>
   <path style="fill:#000000; fill-rule:nonzero;stroke:none;" d="M15.25 23.45 L13.8008 24.3 L0 0 L2.0508 0.25 L15.25 23.45 Z" transform="translate(13.5996, 145.45)"/>
   <path style="fill:#000000; fill-rule:nonzero;stroke:none;" d="M23.8 0 L24.65 0.5 L24 1.85 L0.8496 15.2 L0 13.75 L23.8 0 Z" transform="translate(87.25, 112.25)"/>
   <path style="fill:#000000; fill-rule:nonzero;stroke:none;" d="M0 0.5 L0.85 0 L1.7 0.5 L1.7 39.2002 L0.85 39.7002 L0 39.2002 L0 0.5 Z" transform="translate(111.05, 73.0498)"/>
   <path style="fill:#000000; fill-rule:evenodd;stroke:none;" d="M8.422 0 C3.411 0 0 3.6954 0 9.168 C0 14.6602 3.383 18.3321 8.45 18.3321 C10.582 18.3321 12.453 17.6836 13.871 16.4844 C15.766 14.8789 16.895 12.168 16.895 9.3125 C16.895 3.6719 13.559 0 8.422 0 Z M8.422 1.9688 C12.215 1.9688 14.661 4.8243 14.661 9.2618 C14.661 13.4883 12.141 16.3672 8.45 16.3672 C4.703 16.3672 2.235 13.4883 2.235 9.168 C2.235 4.8477 4.703 1.9688 8.422 1.9688 Z" transform="translate(137.86, 44.8691)"/>
   <path style="fill:#000000; fill-rule:evenodd;stroke:none;" d="M11.227 9.5273 L11.227 17.4922 L13.461 17.4922 L13.461 0 L11.227 0 L11.227 7.5586 L2.231 7.5586 L2.231 0 L0 0 L0 17.4922 L2.231 17.4922 L2.231 9.5273 L11.227 9.5273 Z" transform="translate(157.614, 45.1582)"/>
   <path style="fill:#000000; fill-rule:nonzero;stroke:none;" d="M24.25 0 L25.1 1.5 L0.85 15.5 L0 15 L0 14.0498 L24.25 0 Z" transform="translate(111.9, 58.0498)"/>
   <path style="fill:#000000; fill-rule:nonzero;stroke:none;" d="M0 1.4004 L0.0498 0.4502 L0.8994 0 L34.4498 19.3496 L34.4498 20.2998 L33.5998 20.7998 L0 1.4004 Z" transform="translate(77.4502, 52.75)"/>
   <path style="fill:#000000; fill-rule:evenodd;stroke:none;" d="M8.422 0 C3.411 0 0 3.695 0 9.168 C0 14.66 3.383 18.332 8.45 18.332 C10.582 18.332 12.453 17.683 13.871 16.484 C15.766 14.878 16.895 12.168 16.895 9.312 C16.895 3.671 13.559 0 8.422 0 Z M8.422 1.968 C12.215 1.968 14.661 4.824 14.661 9.261 C14.661 13.488 12.141 16.367 8.45 16.367 C4.703 16.367 2.235 13.488 2.235 9.168 C2.235 4.847 4.703 1.968 8.422 1.968 Z" transform="translate(137.86, 124.269)"/>
   <path style="fill:#000000; fill-rule:nonzero;stroke:none;" d="M25.8 14.45 L24.95 15.9 L1.65 2.45 L0 0.5 L0.85 0 L25.8 14.45 Z" transform="translate(111.9, 112.25)"/>
   <path style="fill:#000000; fill-rule:nonzero;stroke:none;" d="M24.9 0 L25.75 0.5 L25.75 1.5 L0.85 15.85 L0 14.4 L24.9 0 Z" transform="translate(154.85, 112.25)"/>
   <path style="fill:#000000; fill-rule:nonzero;stroke:none;" d="M34.4 19.35 L34.4 21.35 L0 1.5 L0 0.5 L0.85 0 L34.4 19.35 Z" transform="translate(180.6, 112.25)"/>
   <path style="fill:#000000; fill-rule:nonzero;stroke:none;" d="M33.5 0 L35.2 1 L0 21.35 L0 19.35 L33.5 0 Z" transform="translate(215, 112.25)"/>
   <path style="fill:#000000; fill-rule:nonzero;stroke:none;" d="M28.45 0 L29.3 1.45 L0.85 17.85 L0 16.4 L28.45 0 Z" transform="translate(214.55, 108.6)"/>
   <path style="fill:#000000; fill-rule:nonzero;stroke:none;" d="M0 0.5 L0.85 0 L1.7 0.5 L1.7 40.2002 L0 39.2002 L0 0.5 Z" transform="translate(248.5, 73.0498)"/>
   <path style="fill:#000000; fill-rule:nonzero;stroke:none;" d="M0 1.9502 L0 0 L34.35 19.8496 L34.35 20.7998 L33.5 21.2998 L0 1.9502 Z" transform="translate(215, 52.25)"/>
   <path style="fill:#000000; fill-rule:nonzero;stroke:none;" d="M0 1.5 L0.85 0 L29.3 16.4004 L28.45 17.9004 L0 1.5 Z" transform="translate(214.55, 59.3496)"/>
   <path style="fill:#000000; fill-rule:nonzero;stroke:none;" d="M1.7 21.2998 L0 20.3496 L35.25 0 L35.25 1.9502 L1.7 21.2998 Z" transform="translate(179.75, 52.25)"/>
   <path style="fill:#000000; fill-rule:nonzero;stroke:none;" d="M1.7 39.6504 L0.85 40.1504 L0 39.6504 L0 0 L1.7 0.9502 L1.7 39.6504 Z" transform="translate(179.75, 72.5996)"/>
   <path style="fill:#000000; fill-rule:nonzero;stroke:none;" d="M1.7 32.8 L0 32.8 L0 0 L1.7 0 L1.7 32.8 Z" transform="translate(185.7, 76.5)"/>
   <path style="fill:#000000; fill-rule:evenodd;stroke:none;" d="M14.731 5.711 C14.035 1.875 11.828 0 7.988 0 C5.637 0 3.742 0.7461 2.445 2.1836 C0.863 3.9141 0 6.4102 0 9.2383 C0 12.1172 0.887 14.5899 2.52 16.293 C3.887 17.6836 5.613 18.3321 7.895 18.3321 C12.164 18.3321 14.563 16.0313 15.09 11.3985 L12.789 11.3985 C12.598 12.5977 12.356 13.4141 11.996 14.1094 C11.277 15.5508 9.789 16.3672 7.918 16.3672 C4.438 16.3672 2.231 13.5821 2.231 9.2149 C2.231 4.7305 4.317 1.9688 7.727 1.9688 C9.141 1.9688 10.461 2.3789 11.18 3.0743 C11.828 3.6719 12.188 4.3946 12.453 5.711 L14.731 5.711 Z" transform="translate(276.202, 44.8691)"/>
   <path style="fill:#000000; fill-rule:evenodd;stroke:none;" d="M2.015 0 L0 0 L0 17.4922 L2.015 17.4922 L2.015 0 Z" transform="translate(294.01, 45.1582)"/>
   <path style="fill:#000000; fill-rule:nonzero;stroke:none;" d="M24.7 0 L25.55 1.4502 L0.85 15.7002 L0 15.2002 L0 14.25 L24.7 0 Z" transform="translate(249.35, 57.8496)"/>
   <path style="fill:#000000; fill-rule:evenodd;stroke:none;" d="M11.2265 9.5274 L11.2265 17.4922 L13.4609 17.4922 L13.4609 0 L11.2265 0 L11.2265 7.5586 L2.23047 7.5586 L2.23047 0 L0 0 L0 17.4922 L2.23047 17.4922 L2.23047 9.5274 L11.2265 9.5274 Z" transform="translate(4.12988, 60.458)"/>
   <path style="fill:#000000; fill-rule:evenodd;stroke:none;" d="M3.4062 6.9258 L3.6054 6.9258 L4.2734 6.9063 C6.0234 6.9063 6.9218 7.6993 6.9218 9.2344 C6.9218 10.836 5.9336 11.793 4.2734 11.793 C2.5429 11.793 1.6953 10.9258 1.5859 9.0704 L0 9.0704 C0.0703 10.0977 0.25 10.7657 0.5586 11.3438 C1.207 12.5704 2.4687 13.1993 4.2187 13.1993 C6.8515 13.1993 8.5468 11.6329 8.5468 9.2149 C8.5468 7.5899 7.914 6.6914 6.3828 6.168 C7.5742 5.6797 8.1679 4.7969 8.1679 3.5157 C8.1679 1.3164 6.707 0 4.2734 0 C1.6953 0 0.3242 1.4063 0.2695 4.1289 L1.8554 4.1289 C1.875 3.3555 1.9453 2.9219 2.1445 2.5235 C2.5039 1.8204 3.3008 1.3868 4.289 1.3868 C5.6992 1.3868 6.5468 2.1993 6.5468 3.5704 C6.5468 4.4727 6.2187 5.0118 5.5156 5.3008 C5.0859 5.4805 4.5234 5.5547 3.4062 5.5704 L3.4062 6.9258 Z" transform="translate(20.043, 69.665)"/>
   <path style="fill:#000000; fill-rule:evenodd;stroke:none;" d="M14.7305 5.711 C14.0352 1.875 11.8281 0 7.9883 0 C5.6367 0 3.7422 0.7461 2.4453 2.1836 C0.8633 3.9141 0 6.4102 0 9.2383 C0 12.1172 0.8867 14.5899 2.5195 16.293 C3.8867 17.6836 5.6133 18.3321 7.8945 18.3321 C12.1641 18.3321 14.5625 16.0313 15.0898 11.3985 L12.7891 11.3985 C12.5977 12.5977 12.3555 13.4141 11.9961 14.1094 C11.2773 15.5508 9.7891 16.3672 7.918 16.3672 C4.4375 16.3672 2.2305 13.5821 2.2305 9.2149 C2.2305 4.7305 4.3164 1.9688 7.7266 1.9688 C9.1406 1.9688 10.4609 2.379 11.1797 3.0743 C11.8281 3.6719 12.1875 4.3946 12.4531 5.711 L14.7305 5.711 Z" transform="translate(30.625, 60.1689)"/>
   <path style="fill:#000000; fill-rule:nonzero;stroke:none;" d="M0.6494 12.3496 L0 10.75 L27.5 0.0996 L30.0498 0 L30 0.9502 L0.6494 12.3496 Z" transform="translate(47.4502, 53.2002)"/>
   <path style="fill:#000000; fill-rule:evenodd;stroke:none;" d="M11.2265 9.5274 L11.2265 17.4922 L13.4609 17.4922 L13.4609 0 L11.2265 0 L11.2265 7.5586 L2.23047 7.5586 L2.23047 0 L0 0 L0 17.4922 L2.23047 17.4922 L2.23047 9.5274 L11.2265 9.5274 Z" transform="translate(7.08008, 33.3574)"/>
   <path style="fill:#000000; fill-rule:evenodd;stroke:none;" d="M3.4062 6.9257 L3.6054 6.9257 L4.2734 6.9062 C6.0234 6.9062 6.9218 7.6992 6.9218 9.2343 C6.9218 10.8359 5.9336 11.7929 4.2734 11.7929 C2.5429 11.7929 1.6953 10.9257 1.5859 9.0703 L0 9.0703 C0.0703 10.0976 0.25 10.7656 0.5586 11.3437 C1.207 12.5703 2.4687 13.1992 4.2187 13.1992 C6.8515 13.1992 8.5468 11.6328 8.5468 9.2148 C8.5468 7.5898 7.914 6.6914 6.3828 6.1679 C7.5742 5.6796 8.1679 4.7968 8.1679 3.5156 C8.1679 1.3164 6.707 0 4.2734 0 C1.6953 0 0.3242 1.4062 0.2695 4.1289 L1.8554 4.1289 C1.875 3.3554 1.9453 2.9218 2.1445 2.5234 C2.5039 1.8203 3.3007 1.3867 4.289 1.3867 C5.6992 1.3867 6.5468 2.1992 6.5468 3.5703 C6.5468 4.4726 6.2187 5.0117 5.5156 5.3007 C5.0859 5.4804 4.5234 5.5546 3.4062 5.5703 L3.4062 6.9257 Z" transform="translate(22.9932, 42.5645)"/>
   <path style="fill:#000000; fill-rule:evenodd;stroke:none;" d="M14.7305 5.7109 C14.0352 1.875 11.8281 0 7.9883 0 C5.6367 0 3.7422 0.7461 2.4453 2.1836 C0.8633 3.914 0 6.4101 0 9.2382 C0 12.1171 0.8867 14.5898 2.5195 16.2929 C3.8867 17.6836 5.6133 18.332 7.8945 18.332 C12.1641 18.332 14.5625 16.0312 15.0898 11.3984 L12.7891 11.3984 C12.5977 12.5976 12.3555 13.414 11.9961 14.1093 C11.2773 15.5507 9.7891 16.3671 7.918 16.3671 C4.4375 16.3671 2.2305 13.582 2.2305 9.2148 C2.2305 4.7304 4.3164 1.9687 7.7266 1.9687 C9.1406 1.9687 10.4609 2.3789 11.1797 3.0742 C11.8281 3.6718 12.1875 4.3945 12.4531 5.7109 L14.7305 5.7109 Z" transform="translate(33.5752, 33.0684)"/>
   <path style="fill:#000000; fill-rule:nonzero;stroke:none;" d="M0 1.5996 L0.5 0 L25.4502 8.0996 L26.2998 9.25 L23.75 9.3496 L0 1.5996 Z" transform="translate(51.2002, 43.9502)"/>
   <path style="fill:#000000; fill-rule:evenodd;stroke:none;" d="M14.7304 5.71095 C14.0351 1.875 11.8281 0 7.9882 0 C5.6367 0 3.7421 0.74609 2.4453 2.18359 C0.8632 3.91406 0 6.41015 0 9.23825 C0 12.1171 0.8867 14.5898 2.5195 16.293 C3.8867 17.6835 5.6132 18.332 7.8945 18.332 C12.164 18.332 14.5625 16.0312 15.0898 11.3984 L12.789 11.3984 C12.5976 12.5977 12.3554 13.4141 11.996 14.1093 C11.2773 15.5508 9.789 16.3671 7.9179 16.3671 C4.4375 16.3671 2.2304 13.582 2.2304 9.21485 C2.2304 4.73047 4.3164 1.96875 7.7265 1.96875 C9.1406 1.96875 10.4609 2.37891 11.1796 3.07422 C11.8281 3.67188 12.1875 4.39453 12.4531 5.71095 L14.7304 5.71095 Z" transform="translate(70.002, 5.21875)"/>
   <path style="fill:#000000; fill-rule:evenodd;stroke:none;" d="M11.2266 9.52739 L11.2266 17.4922 L13.4611 17.4922 L13.4611 0 L11.2266 0 L11.2266 7.55859 L2.2305 7.55859 L2.2305 0 L0 0 L0 17.4922 L2.2305 17.4922 L2.2305 9.52739 L11.2266 9.52739 Z" transform="translate(88.1689, 5.50781)"/>
   <path style="fill:#000000; fill-rule:evenodd;stroke:none;" d="M3.406 6.9258 L3.606 6.9258 L4.273 6.9063 C6.023 6.9063 6.922 7.6993 6.922 9.2344 C6.922 10.836 5.934 11.793 4.273 11.793 C2.543 11.793 1.695 10.9258 1.586 9.0704 L0 9.0704 C0.07 10.0977 0.25 10.7657 0.559 11.3438 C1.207 12.5704 2.469 13.1993 4.219 13.1993 C6.852 13.1993 8.547 11.6329 8.547 9.2149 C8.547 7.5899 7.914 6.6915 6.383 6.168 C7.574 5.6797 8.168 4.7969 8.168 3.5157 C8.168 1.3165 6.707 0 4.273 0 C1.695 0 0.324 1.4063 0.27 4.129 L1.856 4.129 C1.875 3.3555 1.945 2.9219 2.145 2.5235 C2.504 1.8204 3.301 1.3868 4.289 1.3868 C5.699 1.3868 6.547 2.1993 6.547 3.5704 C6.547 4.4727 6.219 5.0118 5.516 5.3008 C5.086 5.4805 4.523 5.5547 3.406 5.5704 L3.406 6.9258 Z" transform="translate(104.082, 14.7148)"/>
   <path style="fill:#000000; fill-rule:nonzero;stroke:none;" d="M0 0 L1.6992 0 L1.6992 27.25 L0.8496 27.7002 L0 26.5498 L0 0 Z" transform="translate(76.6504, 25.5)"/>
   <path style="fill:#000000; fill-rule:evenodd;stroke:none;" d="M11.227 9.527 L11.227 17.492 L13.461 17.492 L13.461 0 L11.227 0 L11.227 7.558 L2.231 7.558 L2.231 0 L0 0 L0 17.492 L2.231 17.492 L2.231 9.527 L11.227 9.527 Z" transform="translate(115.442, 143.058)"/>
   <path style="fill:#000000; fill-rule:nonzero;stroke:none;" d="M11.6 26.25 L4.25 28.25 L0 1.35 L0.65 0 L2.3 1.95 L11.6 26.25 Z" transform="translate(111.25, 112.75)"/>
   <path style="fill:#000000; fill-rule:evenodd;stroke:none;" d="M11.227 9.5274 L11.227 17.4922 L13.461 17.4922 L13.461 0 L11.227 0 L11.227 7.5586 L2.23 7.5586 L2.23 0 L0 0 L0 17.4922 L2.23 17.4922 L2.23 9.5274 L11.227 9.5274 Z" transform="translate(143.542, 75.3076)"/>
   <path style="fill:#000000; fill-rule:nonzero;stroke:none;" d="M3.55 0.25 L1.6 7.6504 L0 7 L1.85 0 L3.55 0.25 Z" transform="translate(137.25, 76.5996)"/>
   <path style="fill:#000000; fill-rule:nonzero;stroke:none;" d="M3.25 0.25 L1.6 6.5498 L0 5.9502 L1.6 0 L3.25 0.25 Z" transform="translate(132.95, 75.9502)"/>
   <path style="fill:#000000; fill-rule:nonzero;stroke:none;" d="M3 0.25 L1.6 5.5 L0 4.8506 L1.3 0 L3 0.25 Z" transform="translate(128.65, 75.2998)"/>
   <path style="fill:#000000; fill-rule:nonzero;stroke:none;" d="M2.7 0.25 L1.6 4.4492 L0 3.7998 L1 0 L2.7 0.25 Z" transform="translate(124.35, 74.6504)"/>
   <path style="fill:#000000; fill-rule:nonzero;stroke:none;" d="M2.45 0.25 L1.6 3.3496 L0 2.7002 L0.75 0 L2.45 0.25 Z" transform="translate(120.05, 74)"/>
   <path style="fill:#000000; fill-rule:nonzero;stroke:none;" d="M2.15 0.25 L1.6 2.3008 L0 1.6504 L0.45 0 L2.15 0.25 Z" transform="translate(115.75, 73.3496)"/>
  </g>
 </g>
</svg>
