<?xml version="1.0" standalone="no" ?>
<!DOCTYPE svg PUBLIC "-//W3C//DTD SVG 1.1//EN" "http://www.w3.org/Graphics/SVG/1.1/DTD/svg11.dtd">
<svg width="188px" height="62px" viewBox="0 0 188 62" style="background-color: #ffffff00" xmlns="http://www.w3.org/2000/svg" xmlns:xlink="http://www.w3.org/1999/xlink" version="1.1" >
<text x="0" y="0" stroke="none" fill="#000000" transform="matrix(0.05 0 0 0.05 76.938 41.3037)" font-style="normal" font-weight="normal" font-size="240px" font-family="Helvetica" >
S</text>
<path stroke="none" fill="#000000" transform="matrix(0.05 0 0 0.05 -143 -208)" d="M 4582.71,4974.08 L 4594.91,4952.95 L 4998.32,5186.28 L 4998.33,5214.47 L 4582.71,4974.08 Z " />
<path stroke="none" fill="#000000" transform="matrix(0.05 0 0 0.05 -143 -208)" d="M 4998.33,5214.47 L 4998.32,5186.28 L 5518.07,4885.53 L 5518.08,4913.72 L 4998.33,5214.47 Z " />
<text x="0" y="0" stroke="none" fill="#000000" transform="matrix(0.05 0 0 0.05 154.547 56.3037)" font-style="normal" font-weight="normal" font-size="240px" font-family="Helvetica" >
CO</text>
<text x="0" y="0" stroke="none" fill="#000000" transform="matrix(0.05 0 0 0.05 172.547 59.0635)" font-style="normal" font-weight="normal" font-size="180px" font-family="Helvetica" >
2</text>
<text x="0" y="0" stroke="none" fill="#000000" transform="matrix(0.05 0 0 0.05 177.552 56.3037)" font-style="normal" font-weight="normal" font-size="240px" font-family="Helvetica" >
H</text>
<path stroke="none" fill="#000000" transform="matrix(0.05 0 0 0.05 -143 -208)" d="M 5518.08,4913.72 L 5518.07,4885.53 L 5937.53,5128.13 L 5925.33,5149.26 L 5518.08,4913.72 Z " />
<text x="0" y="0" stroke="none" fill="#000000" transform="matrix(0.05 0 0 0.05 128.567 11.3037)" font-style="normal" font-weight="normal" font-size="240px" font-family="Helvetica" >
NH</text>
<text x="0" y="0" stroke="none" fill="#000000" transform="matrix(0.05 0 0 0.05 145.899 14.0635)" font-style="normal" font-weight="normal" font-size="180px" font-family="Helvetica" >
2</text>
<path stroke="none" fill="#000000" transform="matrix(0.05 0 0 0.05 -143 -208)" d="M 5530.2,4836.99 L 5505.8,4836.99 L 5504.24,4812.59 L 5531.75,4812.59 L 5530.2,4836.99 Z " />
<path stroke="none" fill="#000000" transform="matrix(0.05 0 0 0.05 -143 -208)" d="M 5534.31,4772.55 L 5501.69,4772.55 L 5500.14,4748.15 L 5535.86,4748.15 L 5534.31,4772.55 Z " />
<path stroke="none" fill="#000000" transform="matrix(0.05 0 0 0.05 -143 -208)" d="M 5538.41,4708.1 L 5497.58,4708.1 L 5496.03,4683.7 L 5539.97,4683.7 L 5538.41,4708.1 Z " />
<path stroke="none" fill="#000000" transform="matrix(0.05 0 0 0.05 -143 -208)" d="M 5542.52,4643.66 L 5493.48,4643.66 L 5491.92,4619.26 L 5544.08,4619.26 L 5542.52,4643.66 Z " />
<path stroke="none" fill="#000000" transform="matrix(0.05 0 0 0.05 -143 -208)" d="M 5546.63,4579.21 L 5489.37,4579.21 L 5487.81,4554.81 L 5548.18,4554.81 L 5546.63,4579.21 Z " />
<path stroke="none" fill="#000000" transform="matrix(0.05 0 0 0.05 -143 -208)" d="M 5550.74,4514.77 L 5485.26,4514.77 L 5483.71,4490.37 L 5552.29,4490.37 L 5550.74,4514.77 Z " />
<path stroke="none" fill="#000000" transform="matrix(0.05 0 0 0.05 -143 -208)" d="M 5554.84,4450.33 L 5481.15,4450.33 L 5479.6,4425.93 L 5556.4,4425.93 L 5554.84,4450.33 Z " />
<path stroke="none" fill="#000000" transform="matrix(0.05 0 0 0.05 -143 -208)" d="M 4363,4952.77 L 4375.2,4973.9 L 3959.27,5214.47 L 3959.28,5186.28 L 4363,4952.77 Z " />
<text x="0" y="0" stroke="none" fill="#000000" transform="matrix(0.05 0 0 0.05 76.273 11.3037)" font-style="normal" font-weight="normal" font-size="240px" font-family="Helvetica" >
O</text>
<path stroke="none" fill="#000000" transform="matrix(0.05 0 0 0.05 -143 -208)" d="M 4491,4770.58 L 4466.6,4770.58 L 4440.4,4433.58 L 4517.2,4433.58 L 4491,4770.58 Z " />
<path stroke="none" fill="#000000" transform="matrix(0.05 0 0 0.05 -143 -208)" d="M 3959.28,5186.28 L 3959.27,5214.47 L 3439.58,4913.77 L 3439.58,4885.58 L 3959.28,5186.28 Z " />
<path stroke="none" fill="#000000" transform="matrix(0.05 0 0 0.05 -143 -208)" d="M 3439.58,4885.58 L 3439.58,4913.77 L 2926.07,5210.58 L 2913.87,5189.45 L 3439.58,4885.58 Z " />
<path stroke="none" fill="#000000" transform="matrix(0.05 0 0 0.05 -143 -208)" d="M 3433.48,4972.58 L 3445.68,4993.71 L 2962.07,5272.93 L 2949.87,5251.8 L 3433.48,4972.58 Z " />
</svg>
