<?xml version="1.0" encoding="UTF-8" standalone="no"?>
<svg
   xmlns:dc="http://purl.org/dc/elements/1.1/"
   xmlns:cc="http://creativecommons.org/ns#"
   xmlns:rdf="http://www.w3.org/1999/02/22-rdf-syntax-ns#"
   xmlns:svg="http://www.w3.org/2000/svg"
   xmlns="http://www.w3.org/2000/svg"
   version="1.1"
   width="601"
   height="601"
   id="svg3607">
  <defs
     id="defs15" />
  <metadata
     id="metadata18">
    <rdf:RDF>
      <cc:Work
         rdf:about="">
        <dc:format>image/svg+xml</dc:format>
        <dc:type
           rdf:resource="http://purl.org/dc/dcmitype/StillImage" />
        <dc:title />
      </cc:Work>
    </rdf:RDF>
  </metadata>
  <rect
     fill="#fff"
     x="0.5"
     y="0.5"
     stroke="#000"
     width="600"
     height="600"
     ry="37.5"
     rx="37.5"
     id="rect3617" />
  <text
     fill="none"
     font-family="Roadgeek 2005 Series D"
     x="299"
     y="93"
     stroke="#000000"
     line-height="100%"
     font-size="12px"
     xml:space="preserve"
     stroke-width="1px"
     style="text-anchor:middle"
     id="text4140"><tspan
       x="299"
       y="93"
       id="tspan4142" /></text>
  <g
     id="g4616">
    <path
       d="m38 10.5c-15.235 0-27.5 12.265-27.5 27.5v525c0 15.235 12.265 27.5 27.5 27.5h525c15.235 0 27.5-12.265 27.5-27.5v-525c0-15.235-12.26-27.5-27.5-27.5h-525zm-0.5 15.5h525c6.925 0 12.5 5.575 12.5 12.5v525c0 6.925-5.575 12.5-12.5 12.5h-525c-6.925 0-12.5-5.58-12.5-12.5v-525c0-6.925 5.575-12.5 12.5-12.5z"
       id="rect4130" />
    <path
       fill="none"
       stroke-width="15.5"
       stroke="#000"
       d="m141.95 90.281c-20.62 12.089-44.463 18.169-68.156 23.979-12.74 13.043-44.449 32.732-23.882 51.077 11.926 10.637 10.278 8.3001 15.67 15.274 5.7233 7.4021 20.34 6.722 24.471 13.139 14.795 22.981 17.342 56.417 41.058 71.77 21.618 13.995 27.428 35.2 47.956 48.942 16.389 10.971 12.84 28.445 25.62 43.193 13.601 15.695 29.546 22.094 35.31 46.478 4.0381 17.083 0.84595 34.957 23.485 46.15 22.097 10.924 4.4726 60.752 21.611 53.622 23.031-9.5825 27.866 0.48932 50.98-37.034 12.819-20.81 5.4905-13.457 26.77-20.529 13.272-4.411 40.212-18.463 44.179-32.19 5.3403-18.482 28.871-22.882 46.642-35.31 26.431-15.912 24.216-17.558 22.664-35.146-0.60939-6.9051 18.16-22.023 27.427-36.131 14.937-22.742 31.269-24.846 50.584-40.401-38.285-42.294-79.958-81.446-120.38-121.7-40.298-0.25378-80.906-1.9102-121.2-2.135 9.5621-20.903-14.318-28.134-24.124-30.655-8.8703-2.2799 3.0214-17.091-10.857-18.123-45.315 0.16673-90.561-2.3638-135.82-4.27z"
       id="Abbeville" />
  </g>
  <g
     aria-label="51"
     id="routenum">
    <path
       d="m253.9 193.89h83.731q0.67164 0 0.67164 0.67164v23.06q0 0.67164-0.67164 0.67164h-60v32.91h35.373q15.448 0 20.597 8.0597 4.7015 5.1492 4.7015 13.209v51.045q0 13.433-15.448 19.702-2.4627 0.67164-4.7015 0.67164h-45q-11.866 0-18.582-13.433-1.3433-3.1343-1.3433-6.4925v-21.493q0-0.67165 0.67164-0.67165h23.06q0.67164 0.22389 0.67164 0.67165v12.985q0 4.0298 4.0298 4.0298h28.657q3.5821 0 3.5821-4.2537v-35.373q-0.22388-4.0298-3.3582-4.0298h-36.94q-1.791 0-20.373-14.552v-66.716q0-0.67164 0.67164-0.67164z"
       id="path15" />
    <path
       d="m376.96 193.89h23.06q0.67164 0 0.67164 0.67164v148.66q0 0.67164-0.67164 0.67164h-23.06q-0.67165 0-0.67165-0.67164v-119.33h-14.328q-0.67165 0-0.67165-0.67165v-13.657q0-0.67164 6.2687-2.0149 8.7313-5.1492 8.7313-13.433z"
       id="path17" />
  </g>
</svg>
