<?xml version="1.0" encoding="UTF-8" standalone="no"?>
<!-- Created with Inkscape (http://www.inkscape.org/) -->

<svg
   xmlns:svg="http://www.w3.org/2000/svg"
   xmlns="http://www.w3.org/2000/svg"
   version="1.0"
   width="450"
   height="450"
   viewBox="0 0 448.94922 449.99951"
   id="Layer_1"
   xml:space="preserve"
   style="overflow:visible"><defs
   id="defs52" />
<g
   id="g3">
	<path
   d="M 94.170481,449.99951 1.4208031,128.3374 c -1.26711763,-4.39648 -1.9459481,-9.04101 -1.9459481,-13.84375 0,-21.001951 12.978533,-38.979002 31.370092,-46.384763 L 177.5849,9.0478516 C 192.06841,3.2128906 207.89539,0 224.47461,0 c 16.57873,0 32.40572,3.2128906 46.88971,9.0478516 L 418.10427,68.108887 c 18.39156,7.405761 31.3701,25.382812 31.3701,46.384763 0,4.80274 -0.67835,9.44727 -1.94596,13.84375 l -92.74968,321.66211 -260.608249,0 0,0 z"
   id="path5"
   style="fill:#003882;fill-rule:evenodd" />
	<path
   d="m 7.2004057,126.67871 c -1.1134385,-3.8623 -1.7115141,-7.94873 -1.7115141,-12.18506 0,-18.472166 11.4109094,-34.299314 27.6064244,-40.82031 L 179.83625,14.611816 C 193.61597,9.0600586 208.68043,6 224.47461,6 c 15.79468,0 30.85815,3.0600586 44.63836,8.611816 L 415.8539,73.67334 c 16.196,6.520996 27.60643,22.348144 27.60643,40.82031 0,4.23633 -0.59808,8.32276 -1.71202,12.18506 l -91.49773,317.32178 -251.552442,0 L 7.2004057,126.67871 z"
   id="path7"
   style="fill:#f7d117;fill-rule:evenodd" />
	<path
   d="m 11.502928,114.49365 c 0,-15.944334 9.844755,-29.620115 23.842757,-35.256345 L 182.08711,20.175293 C 195.16352,14.907227 209.46497,12 224.47461,12 c 15.00964,0 29.31156,2.907227 42.38701,8.175293 l 146.74092,59.062012 c 13.99849,5.63623 23.84375,19.312011 23.84375,35.256345 0,3.66992 -0.51782,7.19776 -1.47709,10.52686 l -90.24579,312.97998 -242.49712,0 -90.246281,-312.97998 c -0.95927,-3.32862 -1.477081,-6.85694 -1.477081,-10.52686 z"
   id="path9"
   style="fill:#003882;fill-rule:evenodd" />
	
</g>


<g
   transform="scale(1.001454,0.998548)"
   id="text1361"
   style="font-size:216.45353699px;font-style:normal;font-variant:normal;font-weight:normal;font-stretch:normal;text-align:center;line-height:100%;writing-mode:lr-tb;text-anchor:middle;fill:#f7d117;fill-opacity:1;font-family:Roadgeek 2005 Series D"><path
     d="m 121.85185,322.8754 0,-117.53427 -13.20367,0 0,-18.39855 1.51518,0 c 3.03033,1.3e-4 6.06067,-0.79353 9.09104,-2.38099 3.03033,-1.58719 5.55562,-3.82387 7.57588,-6.71006 l 18.39855,0 0,145.02387 -23.37698,0"
     id="path3650" /><path
     d="m 279.5281,250.57992 c -1.1e-4,11.54424 -1.37099,22.58336 -4.11261,33.11739 -2.74186,10.5341 -6.63802,19.04793 -11.6885,25.54151 -8.08102,10.82268 -19.7695,16.23402 -35.06547,16.23402 -10.24552,0 -18.6872,-2.09239 -25.32506,-6.27715 -6.63795,-4.18476 -12.12143,-10.75051 -16.45047,-19.69728 -3.03037,-6.20497 -5.48351,-13.70868 -7.35942,-22.51116 -1.87595,-8.94669 -2.81391,-17.74913 -2.8139,-26.40733 -1e-5,-11.97702 1.37086,-23.08829 4.11262,-33.33385 2.88603,-10.24535 6.78219,-18.83133 11.68849,-25.75797 4.32904,-5.48335 9.45177,-9.52381 15.3682,-12.1214 6.06065,-2.7416 13.27576,-4.11247 21.64536,-4.11262 9.23527,1.5e-4 17.09974,2.09253 23.59343,6.27716 6.49351,4.1849 12.04915,10.75065 16.66692,19.69727 3.03024,6.49372 5.41123,14.06959 7.14297,22.72762 1.73151,8.65823 2.59733,17.53282 2.59744,26.62379 m -22.94407,0 c -10e-5,-8.22516 -0.72161,-15.80102 -2.16454,-22.72763 -1.44311,-7.07071 -3.60764,-13.05925 -6.4936,-17.96564 -2.30892,-3.75174 -4.97852,-6.49349 -8.00878,-8.22523 -2.88613,-1.73151 -6.49368,-2.74162 -10.82268,-3.03035 -5.62785,-0.28848 -10.31768,1.01024 -14.06948,3.89616 -3.75191,2.88616 -6.85441,7.57599 -9.3075,14.06948 -1.87598,4.32917 -3.319,9.5962 -4.32907,15.80111 -0.86586,6.06078 -1.29876,12.12147 -1.29873,18.1821 -3e-5,7.79239 0.72148,15.2961 2.16454,22.51116 1.44298,7.21516 3.60752,13.13155 6.49361,17.74919 2.30879,3.75189 5.05053,6.56579 8.22523,8.44169 3.17459,1.87595 7.07075,2.81392 11.68849,2.8139 5.33912,2e-5 9.74033,-1.443 13.20367,-4.32907 3.60747,-2.88602 6.63782,-7.57584 9.09105,-14.06948 0.72142,-1.87589 1.44293,-4.11258 2.16453,-6.71006 0.72142,-2.7417 1.29863,-5.55559 1.73163,-8.44169 0.57712,-3.03029 1.01002,-6.06064 1.29872,-9.09105 0.28851,-3.03028 0.43281,-5.98848 0.43291,-8.87459"
     id="path3652" /><path
     d="m 321.8177,322.8754 0,-117.53427 -13.20367,0 0,-18.39855 1.51518,0 c 3.03033,1.3e-4 6.06067,-0.79353 9.09105,-2.38099 3.03032,-1.58719 5.55561,-3.82387 7.57587,-6.71006 l 18.39855,0 0,145.02387 -23.37698,0"
     id="path3654" /></g>
<g
   transform="scale(1.001112,0.998889)"
   id="text1375"
   style="font-size:53.37337494px;font-style:normal;font-variant:normal;font-weight:normal;font-stretch:normal;text-align:center;line-height:100%;writing-mode:lr-tb;text-anchor:middle;fill:#f7d117;fill-opacity:1;font-family:Roadgeek 2005 Series D"><path
     d="m 180.27969,126.21125 c -2e-5,1.63679 -0.30247,3.14904 -0.90735,4.53674 -0.60492,1.38771 -1.47668,2.59751 -2.61529,3.62939 -0.99633,0.88956 -2.17054,1.58341 -3.52264,2.08156 -1.31656,0.46257 -2.73985,0.69385 -4.26987,0.69385 -3.09567,0 -5.74655,-0.81839 -7.95264,-2.45517 -2.17052,-1.67236 -3.86067,-3.87846 -5.07047,-6.6183 l 5.39071,-1.97481 c 0.74722,1.70795 1.77911,3.02449 3.09566,3.94963 1.31653,0.88956 2.82878,1.33433 4.53674,1.33433 1.67235,0 3.00668,-0.49815 4.003,-1.49445 1.03186,-1.03188 1.54781,-2.29505 1.54783,-3.78951 -2e-5,-1.17421 -0.32026,-2.13493 -0.96072,-2.88217 -0.60492,-0.74721 -1.40552,-1.3699 -2.40181,-1.86806 -0.99631,-0.53372 -2.09936,-0.99629 -3.30914,-1.38771 -1.17423,-0.39139 -2.34844,-0.81838 -3.52265,-1.28096 -0.53374,-0.21348 -1.19201,-0.51593 -1.97481,-0.90735 -0.78282,-0.39139 -1.54784,-0.92512 -2.29506,-1.6012 -0.71165,-0.71163 -1.33434,-1.58339 -1.86807,-2.6153 -0.49815,-1.03186 -0.74723,-2.29503 -0.74722,-3.78951 -1e-5,-1.7435 0.28465,-3.22016 0.85397,-4.42999 0.56931,-1.24534 1.33433,-2.24165 2.29506,-2.98891 0.99629,-0.78277 2.17051,-1.35209 3.52264,-1.70794 1.3877,-0.35579 2.88215,-0.5337 4.48336,-0.53374 2.52633,4e-5 4.62568,0.65831 6.29806,1.97482 1.70793,1.31657 3.00668,3.09568 3.89626,5.33733 l -5.0171,1.49446 c -0.28468,-0.56929 -0.65829,-1.08523 -1.12084,-1.54783 -0.39142,-0.39137 -0.94295,-0.7472 -1.65458,-1.06747 -0.67607,-0.32021 -1.51226,-0.49812 -2.50854,-0.53373 -0.6405,-0.0356 -1.31656,0.0178 -2.02819,0.16012 -0.67608,0.10678 -1.28097,0.32027 -1.8147,0.64048 -0.53374,0.32027 -0.96073,0.76505 -1.28096,1.33433 -0.32025,0.53377 -0.44478,1.20983 -0.37361,2.02819 0.0712,1.10308 0.55151,1.95705 1.44108,2.56193 0.88954,0.56933 1.9748,1.06749 3.25578,1.49445 1.28094,0.42701 2.65086,0.87179 4.10975,1.33433 1.49443,0.42701 2.86435,1.06749 4.10975,1.92145 1.24535,0.81841 2.27724,1.93925 3.09565,3.36252 0.85395,1.38772 1.28094,3.25579 1.28096,5.6042"
     id="path3544" /><path
     d="m 209.87439,129.25353 c -2.13496,5.26618 -5.72876,7.89926 -10.78142,7.89926 -2.66868,0 -4.87478,-0.51594 -6.6183,-1.54782 -1.74353,-1.03189 -3.18461,-2.65088 -4.32324,-4.85698 -0.8184,-1.60119 -1.45888,-3.46926 -1.92144,-5.60421 -0.46257,-2.13492 -0.69386,-4.32322 -0.69385,-6.56492 -10e-6,-2.84656 0.35581,-5.5686 1.06746,-8.16613 0.71164,-2.59747 1.69015,-4.69682 2.93554,-6.29805 1.06746,-1.31651 2.34842,-2.31282 3.84288,-2.98891 1.53003,-0.67603 3.30914,-1.01406 5.33734,-1.0141 2.70423,4e-5 4.92812,0.58715 6.67167,1.76132 1.77909,1.17425 3.27354,3.02453 4.48336,5.55083 l -5.28396,2.24169 c -0.49817,-0.7472 -0.96074,-1.36989 -1.38771,-1.86807 -0.39142,-0.49812 -0.81841,-0.88953 -1.28096,-1.17422 -0.427,-0.28462 -0.90736,-0.48033 -1.44108,-0.5871 -0.49817,-0.10672 -1.08528,-0.16009 -1.76132,-0.16012 -1.45889,3e-5 -2.68647,0.33806 -3.68276,1.01409 -0.96074,0.67609 -1.74354,1.81472 -2.34843,3.4159 -0.46258,1.06749 -0.8184,2.33066 -1.06747,3.78951 -0.2135,1.45889 -0.32025,2.95334 -0.32024,4.48336 -10e-6,1.95704 0.19569,3.8429 0.58711,5.65758 0.39139,1.77912 0.94292,3.23799 1.65457,4.37661 0.64047,0.92515 1.3877,1.619 2.24168,2.08157 0.85396,0.46257 1.90364,0.69385 3.14903,0.69385 1.20978,0 2.25946,-0.32023 3.14903,-0.96072 0.88954,-0.67606 1.69014,-1.74352 2.4018,-3.2024 l 5.39071,2.02818 0,0"
     id="path3546" /><path
     d="m 242.2662,118.68561 c -3e-5,2.84659 -0.33806,5.56863 -1.0141,8.16612 -0.67609,2.59751 -1.63681,4.69686 -2.88216,6.29806 -1.99263,2.66867 -4.87479,4.003 -8.64649,4.003 -2.52635,0 -4.60791,-0.51594 -6.24468,-1.54782 -1.63679,-1.03189 -2.98892,-2.65088 -4.05638,-4.85698 -0.74723,-1.53003 -1.35213,-3.38031 -1.81469,-5.55083 -0.46257,-2.20609 -0.69386,-4.3766 -0.69386,-6.51155 0,-2.95331 0.33803,-5.69314 1.0141,-8.2195 0.71164,-2.52631 1.67236,-4.64346 2.88216,-6.35143 1.06746,-1.3521 2.33063,-2.3484 3.78951,-2.98891 1.49444,-0.67603 3.27355,-1.01406 5.33734,-1.0141 2.27724,4e-5 4.21647,0.51598 5.8177,1.54783 1.60117,1.03192 2.97109,2.65091 4.10975,4.85698 0.7472,1.60123 1.3343,3.46929 1.76132,5.6042 0.42696,2.13496 0.64045,4.32326 0.64048,6.56493 m -5.65758,0 c -2e-5,-2.02817 -0.17793,-3.89624 -0.53373,-5.60421 -0.35585,-1.7435 -0.88958,-3.22016 -1.60121,-4.42999 -0.56933,-0.92511 -1.2276,-1.60117 -1.97481,-2.02819 -0.71166,-0.42695 -1.60122,-0.67603 -2.66867,-0.74722 -1.38772,-0.0711 -2.54414,0.2491 -3.46927,0.96072 -0.92515,0.71167 -1.69017,1.86809 -2.29505,3.46927 -0.46258,1.06749 -0.81841,2.36624 -1.06747,3.89625 -0.2135,1.49448 -0.32025,2.98893 -0.32024,4.48337 -1e-5,1.92145 0.1779,3.77173 0.53373,5.55083 0.35581,1.77912 0.88955,3.23799 1.6012,4.37661 0.56931,0.92515 1.24537,1.619 2.02819,2.08157 0.7828,0.46257 1.74352,0.69385 2.88216,0.69385 1.31653,0 2.40179,-0.35582 3.25578,-1.06747 0.88954,-0.71164 1.63676,-1.86806 2.24168,-3.46927 0.17789,-0.46256 0.3558,-1.01408 0.53374,-1.65457 0.17788,-0.67605 0.32021,-1.36991 0.42698,-2.08156 0.14231,-0.74722 0.24906,-1.49444 0.32024,-2.24169 0.0711,-0.74721 0.10673,-1.47664 0.10675,-2.1883"
     id="path3548" /><path
     d="m 260.86015,105.76925 0,30.74306 -5.65758,0 0,-30.74306 -8.16613,0 0,-5.0171 22.09658,0 0,5.0171 -8.27287,0"
     id="path3550" /><path
     d="m 285.04495,105.76925 0,30.74306 -5.65758,0 0,-30.74306 -8.16612,0 0,-5.0171 22.09658,0 0,5.0171 -8.27288,0"
     id="path3552" /></g>
<g
   transform="scale(1.001053,0.998948)"
   id="text1389"
   style="font-size:53.37023163px;font-style:normal;font-variant:normal;font-weight:normal;font-stretch:normal;text-align:center;line-height:125%;writing-mode:lr-tb;text-anchor:middle;fill:#f7d117;fill-opacity:1;font-family:Roadgeek 2005 Series D"><path
     d="m 161.07143,392.52186 c -2.13484,5.26587 -5.72843,7.89879 -10.78079,7.8988 -2.66853,-10e-6 -4.87449,-0.51592 -6.61791,-1.54774 -1.74343,-1.03182 -3.18443,-2.65072 -4.32299,-4.85669 -0.81835,-1.6011 -1.45879,-3.46906 -1.92133,-5.60388 -0.46254,-2.13479 -0.69381,-4.32297 -0.69381,-6.56454 0,-2.84639 0.3558,-5.56827 1.06741,-8.16564 0.71159,-2.59732 1.69005,-4.69655 2.93536,-6.29769 1.0674,-1.31643 2.34828,-2.31267 3.84266,-2.98873 1.52993,-0.67599 3.30894,-1.014 5.33702,-1.01404 2.70407,4e-5 4.92783,0.58711 6.67128,1.76122 1.77898,1.17418 3.27335,3.02435 4.4831,5.55051 l -5.28366,2.24155 c -0.49814,-0.74716 -0.96068,-1.36981 -1.38762,-1.86796 -0.3914,-0.4981 -0.81837,-0.88948 -1.28089,-1.17415 -0.42698,-0.28461 -0.90731,-0.4803 -1.44099,-0.58707 -0.49814,-0.10671 -1.08522,-0.16008 -1.76122,-0.16011 -1.4588,3e-5 -2.68632,0.33804 -3.68255,1.01403 -0.96067,0.67606 -1.74344,1.81462 -2.34829,3.4157 -0.46255,1.06743 -0.81835,2.33052 -1.0674,3.78929 -0.21349,1.4588 -0.32023,2.95317 -0.32022,4.48309 -1e-5,1.95693 0.19568,3.84268 0.58707,5.65725 0.39137,1.77902 0.94286,3.2378 1.65448,4.37636 0.64043,0.92509 1.38761,1.6189 2.24155,2.08144 0.85391,0.46254 1.90352,0.69382 3.14884,0.69381 1.20971,10e-6 2.25932,-0.32022 3.14884,-0.96066 0.88949,-0.67602 1.69004,-1.74342 2.40166,-3.20222 l 5.3904,2.02807 0,0"
     id="path2903"
     style="fill:#f7d117;fill-opacity:1" /><path
     d="m 193.46132,381.95456 c -3e-5,2.84642 -0.33804,5.5683 -1.01403,8.16564 -0.67605,2.59736 -1.63672,4.69659 -2.882,6.29769 -1.99251,2.66851 -4.8745,4.00276 -8.64597,4.00277 -2.52621,-10e-6 -4.60765,-0.51592 -6.24432,-1.54774 -1.6367,-1.03182 -2.98874,-2.65072 -4.05614,-4.85669 -0.74719,-1.52994 -1.35205,-3.38011 -1.81459,-5.55051 -0.46254,-2.20595 -0.69381,-4.37634 -0.69381,-6.51116 0,-2.95314 0.33801,-5.69281 1.01403,-8.21902 0.7116,-2.52616 1.67227,-4.64318 2.882,-6.35106 1.06739,-1.35201 2.33049,-2.34825 3.78928,-2.98873 1.49436,-0.67599 3.27336,-1.014 5.33703,-1.01404 2.27711,4e-5 4.21622,0.51595 5.81735,1.54774 1.60108,1.03186 2.97092,2.65075 4.10951,4.85669 0.74716,1.60114 1.33423,3.46909 1.76122,5.60388 0.42693,2.13483 0.64041,4.32301 0.64044,6.56454 m -5.65724,0 c -3e-5,-2.02805 -0.17793,-3.89601 -0.53371,-5.60388 -0.35582,-1.7434 -0.88952,-3.21998 -1.6011,-4.42973 -0.56931,-0.92505 -1.22754,-1.60108 -1.9747,-2.02807 -0.71162,-0.42693 -1.60113,-0.67599 -2.66851,-0.74718 -1.38765,-0.0711 -2.544,0.24909 -3.46907,0.96066 -0.9251,0.71164 -1.69007,1.86799 -2.29492,3.46907 -0.46255,1.06743 -0.81835,2.3661 -1.0674,3.89603 -0.21349,1.49438 -0.32023,2.98875 -0.32022,4.4831 -1e-5,1.92134 0.17789,3.77151 0.5337,5.5505 0.35579,1.77902 0.88949,3.2378 1.6011,4.37636 0.56927,0.92509 1.2453,1.6189 2.02807,2.08144 0.78275,0.46254 1.74342,0.69382 2.882,0.69381 1.31644,10e-6 2.40164,-0.3558 3.25558,-1.0674 0.88948,-0.7116 1.63667,-1.86795 2.24155,-3.46907 0.17788,-0.46253 0.35578,-1.01402 0.5337,-1.65448 0.17788,-0.67601 0.3202,-1.36982 0.42696,-2.08144 0.1423,-0.74716 0.24904,-1.49435 0.32023,-2.24155 0.0711,-0.74716 0.10671,-1.47655 0.10674,-2.18817"
     id="path2905"
     style="fill:#f7d117;fill-opacity:1" /><path
     d="m 225.71695,386.97136 c -3e-5,1.38763 -0.16014,2.7041 -0.48033,3.94939 -0.28467,1.24532 -0.67605,2.40167 -1.17414,3.46907 -0.46257,0.88951 -1.06744,1.70785 -1.81459,2.45503 -0.74721,0.7116 -1.58334,1.33426 -2.5084,1.86796 -0.92511,0.5337 -1.92135,0.94287 -2.98874,1.22751 -1.03184,0.32022 -2.09924,0.48033 -3.20221,0.48034 -1.103,-10e-6 -2.18819,-0.16012 -3.25558,-0.48034 -1.03184,-0.28464 -2.01029,-0.69381 -2.93537,-1.22751 -0.92509,-0.5337 -1.77901,-1.15636 -2.56177,-1.86796 -0.74719,-0.74718 -1.35205,-1.56552 -1.81459,-2.45503 -0.49812,-1.0674 -0.8895,-2.22375 -1.17414,-3.46907 -0.28465,-1.24529 -0.42697,-2.56176 -0.42696,-3.94939 l 0,-22.9492 5.65724,0 0,22.9492 c -1e-5,2.3483 0.58706,4.21625 1.76122,5.60387 1.20971,1.38763 2.79303,2.08145 4.74995,2.08144 1.95689,10e-6 3.52242,-0.69381 4.69658,-2.08144 1.2097,-1.38762 1.81457,-3.25557 1.81459,-5.60387 l 0,-22.9492 5.65724,0 0,22.9492 0,0"
     id="path2907"
     style="fill:#f7d117;fill-opacity:1" /><path
     d="m 253.53535,399.78021 -13.66278,-24.23008 0,24.23008 -5.65724,0 0,-35.75805 5.65724,0 13.02234,22.84246 0,-22.84246 5.65724,0 0,35.75805 -5.0168,0"
     id="path2909"
     style="fill:#f7d117;fill-opacity:1" /><path
     d="m 277.72457,369.03896 0,30.74125 -5.65724,0 0,-30.74125 -8.16565,0 0,-5.0168 22.09528,0 0,5.0168 -8.27239,0"
     id="path2911"
     style="fill:#f7d117;fill-opacity:1" /><path
     d="m 306.92477,384.1961 0,15.58411 -5.65725,0 0,-15.58411 -12.542,-20.17394 6.77802,0 8.53924,13.82289 8.64597,-13.82289 6.67128,0 -12.43526,20.17394"
     id="path2913"
     style="fill:#f7d117;fill-opacity:1" /></g>

</svg>