<?xml version="1.0" encoding="UTF-8" standalone="no"?>
<svg
   xmlns:dc="http://purl.org/dc/elements/1.1/"
   xmlns:cc="http://creativecommons.org/ns#"
   xmlns:rdf="http://www.w3.org/1999/02/22-rdf-syntax-ns#"
   xmlns:svg="http://www.w3.org/2000/svg"
   xmlns="http://www.w3.org/2000/svg"
   viewBox="0 0 749.99982 600"
   version="1.1"
   width="750"
   height="600"
   xml:space="preserve"
   id="Layer_1"><defs
     id="defs13" /><metadata
     id="metadata24"><rdf:RDF><cc:Work
         rdf:about=""><dc:format>image/svg+xml</dc:format><dc:type
           rdf:resource="http://purl.org/dc/dcmitype/StillImage" /><dc:title /></cc:Work></rdf:RDF></metadata><path
     d="m0 37.5c0-20.711 16.789-37.5 37.5-37.5h675c20.711 0 37.5 16.789 37.5 37.5v525c0 20.71-16.79 37.5-37.5 37.5h-675c-20.711 0-37.5-16.79-37.5-37.5v-525z"
     id="path7" /><path
     d="m375 300"
     id="path9" /><path
     d="m650 25c41.421 0 75 33.578 75 75 0 15.192-4.5181 29.328-12.28 41.14l-254.09 388.71c-17.873 27.194-48.653 45.148-83.626 45.148-34.975 0-65.755-17.953-83.627-45.148l-254.1-388.71c-7.763-11.81-12.28-25.95-12.28-41.14 0-41.422 33.578-75 75-75h550z"
     fill="#fff"
     fill-rule="evenodd"
     id="path11" /><g
     id="routenum"><path
       d="m136.13 300q0.74627-12.687 1.4925-22.015 1.1194-9.3284 2.2388-16.791 1.4925-7.4627 3.3582-14.179 2.2388-7.0896 5.2239-15.298 15.299-39.179 40.299-62.313 2.2388-1.8657 4.4776-3.7313 2.6119-2.2388 5.9702-4.8508 3.7314-2.6119 8.5821-6.3433 5.2239-3.7314 12.687-8.9552 12.313-8.5821 16.418-14.552 4.4776-5.9701 4.4776-15.298 0-7.0896-2.9851-13.433-2.6119-6.3433-7.4627-11.194-4.4776-4.8507-11.194-7.4627-6.3433-2.9851-13.433-2.9851-7.4627 0-13.806 2.9851-6.3433 2.6119-11.194 7.4627-4.4776 4.8507-7.4627 11.194-2.6119 6.3433-2.6119 13.433h-35.075q0.37313-14.552 5.597-27.239 5.597-13.06 14.925-22.388 9.3284-9.7015 22.015-14.925 12.687-5.597 27.612-5.597 14.552 0 26.866 5.597 12.687 5.597 22.015 15.299 9.7015 9.3284 14.925 22.015 5.597 12.687 5.597 27.239 0 29.851-21.269 49.254-1.8657 1.4925-4.1045 2.9851-1.8657 1.1194-3.7314 2.9851l-8.5821 6.3433-8.9552 5.9702-9.7015 7.0896q-5.9702 4.4776-11.94 10.821-5.597 5.9702-11.194 13.433-5.2239 7.0896-9.3284 15.298-4.1045 7.8358-6.7164 15.672-2.2388 4.8507-3.3582 8.9552-0.74627 3.7313-2.2388 10.448h101.12v35.075h-139.55z"
       id="path13" /><path
       d="m444.76 226.49q0 17.91-6.3433 34.328-6.3433 16.045-17.537 26.866-16.418 16.791-45.522 16.791-18.657 0-32.09-6.7164-13.06-6.7164-22.388-19.776-7.4627-10.448-11.567-23.881-4.1045-13.433-4.1045-27.612 0-18.657 5.597-34.328 5.9702-16.045 17.91-27.985-20.149-22.015-20.149-51.866 0-14.552 4.8508-26.866 4.8507-12.313 13.433-20.896 8.9552-8.9552 21.269-13.806 12.313-5.2239 27.239-5.2239 14.552 0 26.493 5.2239 11.94 4.8507 20.522 13.806 8.9552 8.5821 13.806 20.896 4.8507 12.313 4.8507 26.866 0 15.299-5.2239 28.731-4.8508 13.06-14.925 23.134 11.94 11.194 17.91 27.612 5.9702 16.045 5.9702 34.702zm-38.8-114.18q0-13.806-8.9552-22.761-8.5821-8.9552-21.642-8.9552-13.806 0-22.761 8.9552-8.9552 8.9552-8.9552 22.761 0 15.299 8.9552 24.254 8.9552 8.9552 22.761 8.9552 13.06 0 21.642-8.9552 8.9552-8.9552 8.9552-24.254zm4.4776 114.18q0-20.522-9.7015-32.463-9.7015-12.313-25.373-12.313t-25.373 12.313q-9.7015 11.94-9.7015 32.463 0 19.03 9.7015 30.97t25.373 11.94 25.373-11.94q9.7015-11.94 9.7015-30.97z"
       id="path15" /><path
       d="m606.75 85.075q-16.791 19.03-29.851 43.284-13.06 23.881-23.507 54.104-10.075 28.731-14.552 56.343-4.4776 27.239-5.9702 61.194h-35.075v-5.2239q0-9.3284 1.1194-21.642 1.1194-12.313 2.9851-25.373 2.2388-13.433 4.8507-26.866 2.6119-13.806 5.9702-26.119 4.1045-14.925 8.5821-28.358 4.8508-13.806 10.448-26.866 5.9702-13.06 13.06-26.119 7.0896-13.433 16.418-28.358h-94.03v-35.075h139.55v35.075z"
       id="path17" /></g></svg>