<?xml version="1.0" encoding="UTF-8" standalone="no"?>
<!DOCTYPE svg PUBLIC "-//W3C//DTD SVG 1.1//EN" "http://www.w3.org/Graphics/SVG/1.1/DTD/svg11.dtd">
<svg width="100%" height="100%" viewBox="0 0 980 1135" version="1.1" xmlns="http://www.w3.org/2000/svg" xmlns:xlink="http://www.w3.org/1999/xlink" xml:space="preserve" xmlns:serif="http://www.serif.com/" style="fill-rule:evenodd;clip-rule:evenodd;stroke-linejoin:round;stroke-miterlimit:2;">
    <g transform="matrix(0.797357,0,0,0.922287,-446.834,-108.481)">
        <rect id="アートボード1" x="560.394" y="117.621" width="1228.76" height="1230.56" style="fill:none;"/>
        <g id="アートボード11" serif:id="アートボード1">
            <g transform="matrix(1.25414,0,0,1.08426,471.556,-171.408)">
                <path d="M724.777,630.381C724.206,629.938 723.408,629.937 722.836,630.377C722.263,630.818 722.061,631.589 722.342,632.254C759.008,719.058 777.275,799.708 780.211,844.164C788.575,970.797 789.281,1118.45 688.063,1241.6C594.748,1355.13 472.498,1373.14 367.039,1368C252.493,1362.42 87.237,1252.48 80.286,1075.32C76.035,966.972 106.944,895.972 145.342,847.108C221.02,750.803 337.981,745.519 357.567,745.052C538.53,740.731 610.176,848.779 630.006,929.64C643.337,983.999 642.895,1032.8 630.742,1072.44C603.075,1162.69 530.075,1211.28 530.075,1211.28C530.075,1211.28 654.049,1155.66 682.145,1019.75C707.346,897.834 670.772,791.985 648.07,741.215C618.27,674.573 570.531,633.371 523.652,617.801C487.38,605.754 450.345,609.479 430.568,625.947C314.905,722.256 138.9,667.648 103.827,515.457C83.668,427.98 129.727,331.149 223.206,294.58C255.136,282.089 290.571,274.498 333.536,279.598C470.347,295.84 571.545,382.78 642.723,485.681C643.304,486.525 644.375,486.879 645.344,486.546C646.312,486.214 646.94,485.277 646.88,484.255C646.659,480.416 646.547,476.548 646.547,472.654C646.547,363.273 735.35,274.47 844.73,274.47C954.111,274.47 1042.91,363.273 1042.91,472.654C1042.91,582.035 954.111,670.838 844.73,670.838C799.661,670.838 758.086,655.761 724.777,630.381Z" style="fill:rgb(0,61,165);"/>
            </g>
        </g>
    </g>
</svg>
