<?xml version="1.0" encoding="UTF-8" standalone="no"?>
<svg
   xmlns:dc="http://purl.org/dc/elements/1.1/"
   xmlns:cc="http://creativecommons.org/ns#"
   xmlns:rdf="http://www.w3.org/1999/02/22-rdf-syntax-ns#"
   xmlns:svg="http://www.w3.org/2000/svg"
   xmlns="http://www.w3.org/2000/svg"
   width="1000"
   height="992"
   viewBox="2.288460772 48.80743668 0.314137659 0.204962930000001"
   preserveAspectRatio="none"
   version="1.1"
   id="svg2">
  <metadata
     id="metadata54">
    <rdf:RDF>
      <cc:Work
         rdf:about="">
        <dc:format>image/svg+xml</dc:format>
        <dc:type
           rdf:resource="http://purl.org/dc/dcmitype/StillImage" />
        <dc:title></dc:title>
      </cc:Work>
    </rdf:RDF>
  </metadata>
  <defs
     id="defs52" />
  <g
       id="g4031"
       style="fill:#b9b9b9;stroke:#ffffff;stroke-width:4">
      <path
         id="9301 AUBERVILLIERS"
         transform="matrix(3.1413766e-4,0,0,2.0661586e-4,2.2884608,48.807437)"
         d="m 274.65625,429.375 -26,13.5 -2.28125,93.34375 14.09375,-0.21875 61,2.40625 28.5625,-36.4375 30.625,-3.96875 -1.5625,-40.6875 -27.9375,-18.71875 L 302.125,448.75 274.65625,429.375 z" />
      <path
         id="9302 AULNAY-SOUS-BOIS"
         transform="matrix(3.1413766e-4,0,0,2.0661586e-4,2.2884608,48.807437)"
         d="M 645.15625,189.53125 567,236.875 l -22.5625,40.65625 29.96875,14.875 39.8125,73.15625 -6.40625,82.71875 39.28125,14.03125 49.53125,-8.625 32.6875,-33.90625 -29.90625,-57.375 L 712.375,331.375 750.25,299.25 660.6875,192.03125 l -15.53125,-2.5 z" />
      <path
         id="9303 BAGNOLET"
         transform="matrix(3.1413766e-4,0,0,2.0661586e-4,2.2884608,48.807437)"
         d="m 486.46875,552.3125 -43.15625,11.59375 -10.5,22.71875 -41.75,38.5 -1.96875,23.0625 8.25,25.90625 6.5,86.84375 25.21875,-20.71875 38.5625,-73.1875 23.1875,13.09375 28.71875,-32.03125 L 513.5,617.25 l -21.125,-18.6875 -5.90625,-46.25 z" />
      <path
         id="9304 LE BLANC-MESNIL"
         transform="matrix(3.1413766e-4,0,0,2.0661586e-4,2.2884608,48.807437)"
         d="m 506.34375,273.9375 -39.75,51.84375 -6.34375,30.5625 29.28125,7.53125 31.40625,-7.34375 12.71875,10.96875 19.28125,27.4375 7.4375,48.96875 3.3125,1.15625 -8.625,15.65625 9.375,17.1875 30.0625,-13.34375 -3.03125,-9.75 16.34375,-6.53125 6.40625,-82.71875 -39.8125,-73.15625 -29.96875,-14.875 -11.0625,-3.5 -27.03125,-0.0937 z" />
      <path
         id="9305 BOBIGNY"
         transform="matrix(3.1413766e-4,0,0,2.0661586e-4,2.2884608,48.807437)"
         d="m 398.03125,450.75 -10.9375,12.46875 14.09375,57.0625 42.125,43.625 43.15625,-11.59375 5.90625,46.25 21.125,18.6875 6.03125,30.84375 41.6875,2.03125 37.8125,-51.25 -15.71875,-1.8125 7.125,-30.90625 -12.96875,-45.25 9.5625,-31.65625 -5.96875,-2.15625 1.875,-6.6875 -6.3125,-1.125 -6.5,-3.90625 -34.90625,15.5 -137.1875,-40.125 z" />
      <path
         id="9307 LA COURNEUVE"
         transform="matrix(3.1413766e-4,0,0,2.0661586e-4,2.2884608,48.807437)"
         d="m 415.0625,264.5 -36.5,7.84375 -9.34375,23.25 -18.90625,15.65625 -34.90625,33.5625 -40.75,84.5625 27.46875,19.375 49.03125,-10.15625 27.9375,18.71875 8,5.90625 10.9375,-12.46875 27.15625,-50.15625 58.5,-14.46875 12.5,-8.625 -6.65625,-13.625 -29.28125,-7.53125 6.34375,-30.5625 39.75,-51.84375 L 415.0625,264.5 z" />
      <path
         id="9308 DRANCY"
         transform="matrix(3.1413766e-4,0,0,2.0661586e-4,2.2884608,48.807437)"
         d="m 520.9375,356.53125 -31.40625,7.34375 6.65625,13.625 -12.5,8.625 -58.5,14.46875 -27.15625,50.15625 137.1875,40.125 29.21875,-12.96875 -9.375,-17.1875 8.625,-15.65625 -3.3125,-1.15625 L 552.9375,394.9375 533.65625,367.5 520.9375,356.53125 z" />
      <path
         id="9309 ÉPINAY-SUR-SEINE"
         transform="matrix(3.1413766e-4,0,0,2.0661586e-4,2.2884608,48.807437)"
         d="m 247.34375,184.75 -40.40625,41.625 -31.0625,-7.65625 -33.09375,57.25 -15.8125,-20.71875 -26.1875,6.09375 -18,-15.0625 -26.6875,12.6875 11.15625,14.5 6.6875,8.53125 8.15625,7.4375 9.6875,3.34375 15.59375,2.59375 9.28125,1.125 -4.53125,15.3125 23.40625,6.28125 23.3125,19.65625 11.28125,-20.375 12.40625,1.4375 19.8125,-19.15625 61.9375,15.25 -15.6875,-46.46875 21.28125,-24.8125 8.59375,-48.21875 -31.125,-10.65625 z" />
      <path
         id="9310 GAGNY"
         transform="matrix(3.1413766e-4,0,0,2.0661586e-4,2.2884608,48.807437)"
         d="m 794.5625,549.15625 -18.9375,17.90625 -4.65625,12.96875 -39.65625,6.65625 37.09375,81.75 -29.96875,-1.375 9.625,12.03125 -17.5,25.46875 -1.96875,60.125 11.125,10.71875 124.59375,-8.375 22.09375,-18.40625 -0.34375,-38.71875 3.6875,-1.0625 8.09375,-61.53125 L 862.5,614.96875 832.125,610.125 l -10.4375,-60.78125 -27.125,-0.1875 z" />
      <path
         id="9311 LIVRY-GARGAN"
         transform="matrix(3.1413766e-4,0,0,2.0661586e-4,2.2884608,48.807437)"
         d="m 855.625,376.84375 -32.9375,0.4375 -33.09375,34.65625 -60.28125,7.84375 -32.6875,33.90625 6.84375,31 29.71875,10.59375 -25.03125,40.03125 33.6875,-9.03125 28.0625,9.40625 5.71875,31.375 18.9375,-17.90625 27.125,0.1875 59.25,-45.8125 -19,-63.15625 17.0625,-33.40625 -23.375,-30.125 z" />
      <path
         id="9312 MONTREUIL-1"
         transform="matrix(3.1413766e-4,0,0,2.0661586e-4,2.2884608,48.807437)"
         d="m 599.03125,598.875 -37.8125,51.25 -41.6875,-2.03125 -28.71875,32.03125 -23.1875,-13.09375 -38.5625,73.1875 -14.84375,12.1875 2.4375,3.6875 54.125,-16.8125 1.0625,-20.5 18.90625,1.0625 1.03125,-5.28125 15.78125,-0.5 5.25,-13.15625 14.71875,-4.71875 -11.03125,-15.25 9.96875,-7.875 4.21875,-8.9375 10.5,4.21875 4.1875,-6.84375 17.875,15.78125 12.8125,0.1875 7.03125,12.90625 28.59375,11.125 2.9375,29.28125 47.28125,7.25 40.5625,-87.15625 -31.6875,-0.25 -12.5,-28 -26.90625,-15.875 -32.34375,-7.875 z" />
      <path
         id="9313 MONTREUIL-2"
         transform="matrix(3.1413766e-4,0,0,2.0661586e-4,2.2884608,48.807437)"
         d="M 576.0625,677.46875 563.25,677.28125 545.375,661.5 l -4.1875,6.84375 -10.5,-4.21875 -4.21875,8.9375 -9.96875,7.875 11.03125,15.25 -14.71875,4.71875 -5.25,13.15625 -15.78125,0.5 -1.03125,5.28125 -18.90625,-1.0625 -1.0625,20.5 -54.125,16.8125 -2.4375,-3.6875 -10.375,8.53125 3.25,28.75 8.34375,-0.46875 32.46875,2.25 25.71875,-19 L 505,780.40625 527.90625,759.75 614.625,730.78125 611.6875,701.5 583.09375,690.375 576.0625,677.46875 z" />
      <path
         id="9314 NOISY-LE-GRAND"
         transform="matrix(3.1413766e-4,0,0,2.0661586e-4,2.2884608,48.807437)"
         d="m 889.75,708.84375 -3.6875,1.0625 0.34375,38.71875 -22.09375,18.40625 -124.59375,8.375 -16.5,3.90625 68.46875,45.59375 -1.59375,16.6875 101.875,68.21875 -0.53125,29.6875 5.03125,15.34375 L 967.15625,992 978.34375,958.9375 948.0625,862.21875 908.4375,769.625 936.09375,755.96875 951.40625,713.375 889.75,708.84375 z" />
      <path
         id="9315 PANTIN"
         transform="matrix(3.1413766e-4,0,0,2.0661586e-4,2.2884608,48.807437)"
         d="m 379.09375,457.3125 1.5625,40.6875 -30.625,3.96875 -28.5625,36.4375 22.46875,24.03125 6.84375,32.8125 5.375,27.40625 32.9375,25.53125 1.96875,-23.0625 41.75,-38.5 10.5,-22.71875 -42.125,-43.625 -14.09375,-57.0625 -8,-5.90625 z" />
      <path
         id="9316 SAINT-DENIS-1"
         transform="matrix(3.1413766e-4,0,0,2.0661586e-4,2.2884608,48.807437)"
         d="m 233.5,307.3125 -31.15625,-7.65625 -19.8125,19.15625 -12.40625,-1.4375 -11.28125,20.375 10.3125,43 -27.875,52.28125 51.34375,56.4375 9.25,47.15625 44.5,-0.40625 2.28125,-93.34375 26,-13.5 6.59375,-13.65625 -28.96875,-16.3125 -3.71875,-13.375 -19.6875,20.0625 L 217.34375,418 l -6.3125,-4.84375 6.3125,-9.28125 0.75,-67.625 11.5,-4.84375 L 233.5,307.3125 z" />
      <path
         id="9317 SAINT-DENIS-2"
         transform="matrix(3.1413766e-4,0,0,2.0661586e-4,2.2884608,48.807437)"
         d="m 278.46875,195.40625 -8.59375,48.21875 -21.28125,24.8125 15.6875,46.46875 -30.78125,-7.59375 -3.90625,24.09375 -11.5,4.84375 -0.75,67.625 -6.3125,9.28125 6.3125,4.84375 11.53125,-11.90625 19.6875,-20.0625 3.71875,13.375 28.96875,16.3125 34.15625,-70.90625 34.90625,-33.5625 18.90625,-15.65625 9.34375,-23.25 -79.375,-73.40625 -20.71875,-3.53125 z" />
      <path
         id="9318 SAINT-OUEN"
         transform="matrix(3.1413766e-4,0,0,2.0661586e-4,2.2884608,48.807437)"
         d="M 32.34375,222.875 0,258.53125 12.15625,295.28125 8,297.3125 l 65.875,14.625 74,31 3.40625,48.25 -23.96875,42.625 -20.46875,19.8125 -7.03125,13.25 -19.28125,9.25 19.5,65.65625 32.15625,-3.40625 69.6875,-1.75 -9.25,-47.15625 -51.34375,-56.4375 27.875,-52.28125 -10.3125,-43 -23.3125,-19.65625 L 112.125,311.8125 116.65625,296.5 107.375,295.375 91.78125,292.78125 82.09375,289.4375 73.9375,282 67.25,273.46875 l -11.15625,-14.5 26.6875,-12.6875 -4.09375,-3.40625 -46.34375,-20 z" />
      <path
         id="9319 SEVRAN"
         transform="matrix(3.1413766e-4,0,0,2.0661586e-4,2.2884608,48.807437)"
         d="m 675.0625,179.625 -14.375,12.40625 89.5625,107.21875 -37.875,32.125 -12.96875,31.03125 29.90625,57.375 60.28125,-7.84375 33.09375,-34.65625 32.9375,-0.4375 -0.625,-3.71875 30.59375,-7.59375 7.5,-30.78125 -47.21875,-120.375 -14.21875,-8.65625 -47.25,15.21875 L 757.125,180 675.0625,179.625 z" />
      <path
         id="9320 TREMBLAY-EN-FRANCE"
         transform="matrix(3.1413766e-4,0,0,2.0661586e-4,2.2884608,48.807437)"
         d="m 882.84375,0 -40.53125,12.5 -17.09375,26.4375 -47.375,-0.34375 -67.65625,113.375 -30.8125,11.90625 -4.3125,15.75 82.0625,0.375 27.28125,40.9375 47.25,-15.21875 14.21875,8.65625 47.21875,120.375 -7.5,30.78125 L 855,373.125 l 0.625,3.71875 23.375,30.125 -17.0625,33.40625 19,63.15625 -59.25,45.8125 10.4375,60.78125 30.375,4.84375 22.53125,-23.75 62.125,-23.8125 -1.71875,-32.0625 18.96875,-25.96875 3.03125,-2.65625 -10.5625,-11 L 967.34375,422.875 1000,401.90625 999.375,373.0625 978.78125,357.09375 965.96875,305.15625 884.5625,179.78125 883,163.125 l 31.8125,-9.21875 13.15625,-30.59375 -13.125,-64.6875 -13.75,-6.03125 L 882.84375,0 z" />
      <path
         id="9321 VILLEMOMBLE"
         transform="matrix(3.1413766e-4,0,0,2.0661586e-4,2.2884608,48.807437)"
         d="m 741.84375,526.28125 -33.6875,9.03125 -10.4375,15.875 -24.78125,13.40625 -14.0625,28.09375 -27.5,14.0625 26.90625,15.875 12.5,28 31.6875,0.25 -40.5625,87.15625 L 672.5,758.5 l 13.4375,-7.5 30.96875,34.1875 6.3125,-5.875 16.5,-3.90625 -11.125,-10.71875 1.96875,-60.125 17.5,-25.46875 -9.625,-12.03125 29.96875,1.375 -37.09375,-81.75 39.65625,-6.65625 4.65625,-12.96875 -5.71875,-31.375 -28.0625,-9.40625 z" />
  </g>
      <path
         id="9306 BONDY"
       style="fill:#ff0000;stroke:#000000;stroke-width:4"
         transform="matrix(3.1413766e-4,0,0,2.0661586e-4,2.2884608,48.807437)"
         d="m 607.8125,448.28125 -16.34375,6.53125 3.03125,9.75 -24.375,10.8125 6.5,3.90625 6.3125,1.125 -1.875,6.6875 5.96875,2.15625 -9.5625,31.65625 12.96875,45.25 -7.125,30.90625 15.71875,1.8125 32.34375,7.875 27.5,-14.0625 14.0625,-28.09375 24.78125,-13.40625 10.4375,-15.875 25.03125,-40.03125 -29.71875,-10.59375 -6.84375,-31 -49.53125,8.625 -39.28125,-14.03125 z" />
</svg>
