<?xml version="1.0" encoding="UTF-8"?>
<!-- Generator: Adobe Illustrator 16.0.0, SVG Export Plug-In . SVG Version: 6.00 Build 0)  -->
<!DOCTYPE svg PUBLIC "-//W3C//DTD SVG 1.1//EN" "http://www.w3.org/Graphics/SVG/1.1/DTD/svg11.dtd">
<svg version="1.1" id="svg2" xmlns:inkscape="http://www.inkscape.org/namespaces/inkscape" xmlns:svg="http://www.w3.org/2000/svg" xmlns:sodipodi="http://sodipodi.sourceforge.net/DTD/sodipodi-0.dtd" xmlns:rdf="http://www.w3.org/1999/02/22-rdf-syntax-ns#" xmlns:dc="http://purl.org/dc/elements/1.1/" xmlns:cc="http://creativecommons.org/ns#" inkscape:label="Pozad‚Äö√†√∂‚Äö√¢‚Ä†" inkscape:version="0.48.5 r10040" sodipodi:docname="CZ_traffic_sign_IS16d_-_BLANK.svg" xmlns="http://www.w3.org/2000/svg" xmlns:xlink="http://www.w3.org/1999/xlink" x="0px" y="0px" width="369.572px" height="218.799px" viewBox="0 0 369.572 218.799" enable-background="new 0 0 369.572 218.799" xml:space="preserve">
<sodipodi:namedview fit-margin-left="0" showgrid="false" fit-margin-top="0" showguides="true" id="base" inkscape:cx="-0.33254814" inkscape:zoom="1.9698492" borderopacity="1.0" bordercolor="#666666" pagecolor="#ffffff" inkscape:cy="72.148845" inkscape:window-height="1018" inkscape:current-layer="layer1" inkscape:document-units="px" inkscape:pageshadow="2" inkscape:guide-bbox="true" inkscape:window-width="1920" inkscape:window-x="-8" inkscape:window-y="-8" inkscape:window-maximized="1" inkscape:pageopacity="0.0" fit-margin-bottom="0" fit-margin-right="0">
	</sodipodi:namedview>
<g id="číslo503" transform="translate(-162.95663,-262.45401)" inkscape:label="Vrstva 1" inkscape:groupmode="layer">
<path id="rect2995" inkscape:connector-curvature="0" fill="#01498E" d="M197.956,262.454h299.571c19.392,0,35,15.61,35,35v148.799c0,19.39-15.608,35-35,35H197.956c-19.391,0-35-15.61-35-35V297.454C162.956,278.064,178.567,262.454,197.956,262.454z"/>
<path id="rect3765" inkscape:connector-curvature="0" fill="none" stroke="#FFFFFF" stroke-width="11.5337" stroke-linejoin="round" stroke-miterlimit="1" d="   M196.243,276.353h303c11.08,0,20,8.92,20,20v151c0,11.08-8.92,20-20,20h-303c-11.079,0-20-8.92-20-20v-151   C176.243,285.273,185.162,276.353,196.243,276.353z"/>
<path id="číslo_0_" inkscape:connector-curvature="0" fill="#FFFFFF" d="M379.313,394.189c0,6.076-1.351,11.394-4.052,15.953c-2.701,4.561-6.396,8.078-11.079,10.555c-4.684,2.477-9.854,3.713-15.508,3.713c-5.687,0-10.854-1.234-15.504-3.707c-4.652-2.471-8.315-5.995-10.988-10.572c-2.674-4.578-4.011-9.892-4.011-15.941v-44.604c0-4.562,0.768-8.7,2.301-12.415c1.534-3.715,3.723-6.921,6.565-9.619c2.844-2.698,6.117-4.727,9.828-6.085c3.713-1.357,7.646-2.036,11.809-2.036c4.146,0,8.1,0.691,11.854,2.074c3.754,1.383,7.021,3.391,9.805,6.024c2.778,2.633,4.973,5.846,6.573,9.635c1.604,3.79,2.406,7.931,2.406,12.422L379.313,394.189L379.313,394.189z M361.809,393.775v-43.777c0-2.965-0.534-5.581-1.604-7.849c-1.07-2.268-2.617-4.016-4.646-5.243c-2.023-1.228-4.322-1.841-6.889-1.841c-2.622,0-4.921,0.609-6.896,1.83c-1.975,1.22-3.482,2.963-4.529,5.228c-1.051,2.265-1.571,4.89-1.571,7.875v43.777c0,4.615,1.161,8.269,3.479,10.961c2.322,2.691,5.494,4.037,9.52,4.037c4.043,0,7.243-1.354,9.6-4.063C360.631,402,361.809,398.355,361.809,393.775z"/>
</g>
<path id="číslo5__" inkscape:connector-curvature="0" fill="#FFFFFF" d="M138.704,126.616c0,6.266-0.602,11.634-1.806,16.102c-1.204,4.469-3.58,8.512-7.128,12.129c-5.502,5.612-12.92,8.418-22.254,8.418c-4.787,0-9.127-0.776-13.02-2.33c-3.892-1.553-7.104-3.57-9.639-6.052c-2.596-2.649-4.491-5.634-5.687-8.952s-1.96-7.657-2.294-13.016h17.323c0.621,5.132,2.016,8.792,4.184,10.981s5.212,3.284,9.132,3.284c3.855,0,6.955-1.193,9.299-3.58c1.755-1.789,2.925-4.063,3.511-6.823s0.879-6.147,0.879-10.161c0-6.596-0.998-11.59-2.995-14.982c-1.996-3.394-5.378-5.09-10.145-5.09c-3.507,0-6.324,0.761-8.453,2.281c-2.128,1.521-3.688,3.83-4.682,6.926H79.15V56.938h57.283v15.937H95.207v24.193c2.215-3.937,7.26-5.905,15.135-5.905c8.171,0,14.707,2.957,19.608,8.871c3.346,2.464,5.642,6.042,6.887,10.732C138.082,115.458,138.704,120.74,138.704,126.616z"/>
<path id="čislo__3" inkscape:connector-curvature="0" fill="#FFFFFF" d="M295.044,130.765c0,6.371-1.438,11.853-4.314,16.445c-2.877,4.595-6.783,8.05-11.719,10.371c-4.936,2.319-10.377,3.48-16.324,3.48c-9.1,0-16.686-2.478-22.756-7.43c-6.072-4.955-9.256-12.698-9.539-23.234h17.402c0.305,5.502,1.854,9.388,4.646,11.658c2.795,2.271,6.209,3.407,10.244,3.407c4.389,0,7.963-1.321,10.721-3.967c2.758-2.646,4.137-6.359,4.137-11.139c0-4.729-1.283-8.395-3.852-10.998c-2.568-2.601-6.375-3.901-11.42-3.901h-3.896v-15.259h3.896c4.67,0,8.131-1.174,10.381-3.522c2.25-2.349,3.375-5.731,3.375-10.152c0-4.495-1.246-7.942-3.738-10.346c-2.49-2.403-5.691-3.604-9.604-3.604c-3.873,0-7.01,1.134-9.406,3.404c-2.396,2.271-3.826,5.883-4.287,10.844h-17.357c0.287-5.466,1.232-9.917,2.842-13.356c1.604-3.437,3.811-6.398,6.613-8.881c2.809-2.484,6.045-4.385,9.725-5.702c3.678-1.315,7.635-1.974,11.875-1.974c5.965,0,11.291,1.25,15.979,3.748c4.688,2.499,8.326,5.958,10.912,10.382c2.588,4.422,3.881,9.448,3.881,15.076c0,10.647-4.182,17.698-12.547,21.157c4.213,1.33,7.623,4.04,10.23,8.132C293.743,119.498,295.044,124.618,295.044,130.765z"/>
</svg>