<?xml version="1.0" encoding="utf-8"?>
<!-- Generator: Adobe Illustrator 26.5.3, SVG Export Plug-In . SVG Version: 6.00 Build 0)  -->
<svg version="1.1" id="Layer_1" xmlns="http://www.w3.org/2000/svg" xmlns:xlink="http://www.w3.org/1999/xlink" x="0px" y="0px"
	 width="231.38232px" height="114.54639px" viewBox="0 0 231.38232 114.54639" enable-background="new 0 0 231.38232 114.54639"
	 xml:space="preserve">
<g>
	<path fill="#E0E0E0" d="M140.57664,99.11637c38.5948,0.01658,57.43661-34.7803,65.66699-67.8887l0.43361-1.8261v84.4326h-66.1006
		V99.11637z"/>
	<path d="M126.03175,64.25795c0-1.09178-0.8857-1.97848-1.9804-1.97848c-1.0938,0-1.9795,0.8867-1.9795,1.97848
		c0,1.09382,0.8857,1.98052,1.9795,1.98052C125.14605,66.23847,126.03175,65.35177,126.03175,64.25795z"/>
	<g>
		<g>
			
				<line fill="none" stroke="#000000" stroke-width="0.68854" stroke-linejoin="round" x1="124.05135" y1="113.83416" x2="124.05135" y2="17.11449"/>
			<g>
				<polygon points="124.05135,14.68377 125.45096,18.109 124.05135,17.29626 122.65207,18.109 				"/>
			</g>
		</g>
	</g>
	<g>
		<g>
			<path d="M228.24854,61.52197c0.18457,0.20312,0.32422,0.40625,0.41895,0.60938c0.06738,0.14062,0.17871,0.50977,0.33398,1.10742
				l0.49805-0.77344c0.13184-0.1875,0.29199-0.36621,0.48047-0.53613s0.35449-0.28613,0.49805-0.34863
				c0.09082-0.03906,0.19043-0.05859,0.2998-0.05859c0.16211,0,0.29102,0.04492,0.3877,0.13477
				c0.0957,0.08984,0.14453,0.19922,0.14453,0.32812c0,0.14844-0.02832,0.25-0.08496,0.30469
				c-0.10645,0.09766-0.22656,0.14648-0.3623,0.14648c-0.0791,0-0.16406-0.01758-0.25488-0.05273
				c-0.17773-0.0625-0.2959-0.09375-0.35645-0.09375c-0.09082,0-0.19824,0.05469-0.32227,0.16406
				c-0.23438,0.20312-0.51367,0.5957-0.83789,1.17773l0.46387,2.01562c0.07227,0.30859,0.13281,0.49316,0.18164,0.55371
				s0.09766,0.09082,0.14648,0.09082c0.08008,0,0.17188-0.04492,0.27734-0.13477c0.20801-0.17969,0.38477-0.41406,0.53223-0.70312
				l0.19824,0.10547c-0.23828,0.46094-0.54004,0.84375-0.90527,1.14844c-0.20801,0.17188-0.38281,0.25781-0.52637,0.25781
				c-0.21094,0-0.37891-0.12305-0.50391-0.36914c-0.0791-0.15234-0.24316-0.80859-0.49219-1.96875
				c-0.58789,1.05859-1.05957,1.74023-1.41406,2.04492c-0.23047,0.19531-0.45312,0.29297-0.66797,0.29297
				c-0.15039,0-0.28809-0.05664-0.41309-0.16992c-0.09082-0.08594-0.13574-0.20117-0.13574-0.3457
				c0-0.12891,0.04199-0.23633,0.125-0.32227s0.18457-0.12891,0.30469-0.12891c0.12109,0,0.24902,0.0625,0.38477,0.1875
				c0.09863,0.08984,0.17383,0.13477,0.22656,0.13477c0.0459,0,0.10352-0.03125,0.17578-0.09375
				c0.17676-0.14844,0.41895-0.46875,0.72363-0.96094c0.30566-0.49219,0.50586-0.84766,0.60059-1.06641
				c-0.23438-0.94922-0.36035-1.45117-0.37988-1.50586c-0.08691-0.25391-0.19922-0.43359-0.33887-0.53906
				s-0.3457-0.1582-0.61719-0.1582c-0.08691,0-0.18652,0.00391-0.2998,0.01172v-0.21094L228.24854,61.52197z"/>
		</g>
	</g>
	<g>
		<g>
			<path d="M124.32568,4.66992c0.12988,0.22656,0.21973,0.43848,0.27051,0.63574c0.0498,0.19727,0.09961,0.58496,0.14941,1.16309
				l0.25293,2.88281c0.23047-0.28125,0.56445-0.72656,1.00195-1.33594c0.21094-0.29688,0.47168-0.70117,0.78223-1.21289
				c0.18848-0.3125,0.30371-0.53125,0.3457-0.65625c0.02246-0.0625,0.03418-0.12695,0.03418-0.19336
				c0-0.04297-0.01367-0.07812-0.04004-0.10547c-0.02734-0.02734-0.09668-0.05957-0.20996-0.09668s-0.20703-0.10547-0.28223-0.20508
				s-0.1123-0.21387-0.1123-0.34277c0-0.16016,0.0459-0.28906,0.13867-0.38672c0.0918-0.09766,0.20703-0.14648,0.34473-0.14648
				c0.16895,0,0.3125,0.07129,0.43164,0.21387s0.17871,0.33887,0.17871,0.58887c0,0.30859-0.10352,0.66113-0.31055,1.05762
				s-0.60645,1.00488-1.19727,1.8252s-1.30664,1.71484-2.14746,2.68359c-0.5791,0.66797-1.00879,1.08887-1.28906,1.2627
				s-0.51953,0.26074-0.71973,0.26074c-0.11816,0-0.22266-0.0459-0.31348-0.1377c-0.08984-0.0918-0.13477-0.19824-0.13477-0.31934
				c0-0.15234,0.0625-0.29102,0.18652-0.41602c0.125-0.125,0.25977-0.1875,0.40625-0.1875
				c0.07617,0,0.13965,0.01758,0.18945,0.05273c0.03125,0.01953,0.06445,0.0752,0.10059,0.16699
				c0.03711,0.0918,0.07031,0.15332,0.10156,0.18457c0.01855,0.01953,0.04199,0.0293,0.06836,0.0293
				c0.02344,0,0.06348-0.01953,0.12109-0.05859c0.21094-0.13281,0.45703-0.34375,0.73633-0.63281
				c0.36914-0.38281,0.6416-0.69531,0.81738-0.9375l-0.32227-3.71484c-0.05371-0.61328-0.13379-0.98633-0.24121-1.11914
				s-0.28809-0.19922-0.54102-0.19922c-0.08105,0-0.22461,0.01172-0.43164,0.03516l-0.05176-0.2168L124.32568,4.66992z"/>
		</g>
	</g>
	<g>
		<g>
			
				<line fill="none" stroke="#000000" stroke-width="0.68854" stroke-linejoin="round" x1="124.05135" y1="64.25796" x2="220.7709" y2="64.25796"/>
			<g>
				<polygon points="223.20163,64.25796 219.7764,65.65755 220.58917,64.25796 219.7764,62.85867 				"/>
			</g>
		</g>
	</g>
	<g>
		<g>
			
				<line fill="none" stroke="#1B75BB" stroke-width="0.68854" stroke-linecap="square" stroke-linejoin="round" x1="140.57664" y1="99.11636" x2="141.60947" y2="99.11636"/>
			
				<line fill="none" stroke="#1B75BB" stroke-width="0.68854" stroke-linecap="square" stroke-linejoin="round" stroke-dasharray="2.06563,2.06563" x1="143.67509" y1="99.11636" x2="188.08621" y2="99.11636"/>
			<polyline fill="none" stroke="#1B75BB" stroke-width="0.68854" stroke-linecap="square" stroke-linejoin="round" points="
				189.11902,99.11636 190.15186,99.11636 190.39008,98.11141 			"/>
			
				<line fill="none" stroke="#1B75BB" stroke-width="0.68854" stroke-linecap="square" stroke-linejoin="round" stroke-dasharray="2.10852,2.10852" x1="190.8764" y1="96.05975" x2="206.19586" y2="31.43236"/>
			
				<line fill="none" stroke="#1B75BB" stroke-width="0.68854" stroke-linecap="square" stroke-linejoin="round" x1="206.43903" y1="30.40655" x2="206.67725" y2="29.40157"/>
		</g>
	</g>
	<g>
		<g>
			<path fill="none" stroke="#000000" stroke-width="1.37709" stroke-linecap="round" stroke-linejoin="round" d="
				M140.57664,99.11636c37.13445,0.01596,55.98244-32.19681,64.68666-64.12512"/>
			<g>
				<polygon points="206.24365,31.22768 206.98523,37.10131 205.15967,35.26464 202.66019,35.93999 				"/>
			</g>
		</g>
	</g>
	<path fill="#EE4036" d="M196.35695,64.25795c0-1.51948-1.23241-2.75388-2.75391-2.75388c-1.5224,0-2.7549,1.2344-2.7549,2.75388
		c0,1.52152,1.2325,2.75592,2.7549,2.75592C195.12454,67.01387,196.35695,65.77947,196.35695,64.25795z"/>
	<path d="M142.55615,99.11637c0-1.0928-0.88571-1.9795-1.97951-1.9795c-1.0937,0-1.97939,0.8867-1.97939,1.9795
		c0,1.0918,0.88568,1.9795,1.97939,1.9795C141.67044,101.09587,142.55615,100.20817,142.55615,99.11637z"/>
	<path d="M191.98885,99.11637c0-1.0928-0.8868-1.9795-1.9805-1.9795c-1.0938,0-1.97951,0.8867-1.97951,1.9795
		c0,1.0918,0.88571,1.9795,1.97951,1.9795C191.10205,101.09587,191.98885,100.20817,191.98885,99.11637z"/>
	<circle cx="206.67725" cy="29.40157" r="1.9795"/>
	<g>
		<path d="M191.68774,64.50262v-0.4873h3.82959v0.4873H191.68774z"/>
	</g>
	<g>
		<g>
			<path d="M140.88623,108.30615l1.11816-0.54297h0.11133v3.86035c0,0.25586,0.01074,0.41602,0.03223,0.47852
				c0.02148,0.06348,0.06641,0.11133,0.13379,0.14551c0.06836,0.0332,0.20605,0.05273,0.41309,0.05664v0.125h-1.72754v-0.125
				c0.2168-0.00391,0.35742-0.02246,0.4209-0.05566c0.0625-0.03223,0.10645-0.07617,0.13184-0.13086
				c0.02441-0.05566,0.03711-0.21973,0.03711-0.49414v-2.46777c0-0.33301-0.01172-0.54688-0.03418-0.64062
				c-0.01562-0.07227-0.04395-0.125-0.08594-0.15918c-0.04199-0.0332-0.0918-0.0498-0.15137-0.0498
				c-0.08301,0-0.19922,0.03418-0.34863,0.10449L140.88623,108.30615z"/>
		</g>
		<g>
			<path d="M135.27881,110.0083v2.0293c0,0.28027,0.02246,0.4707,0.06738,0.57129c0.04492,0.10156,0.11426,0.1748,0.20801,0.22168
				s0.27734,0.07031,0.55078,0.07031v0.21582h-3.12305v-0.21582c0.24219-0.00781,0.42188-0.07617,0.53906-0.2041
				c0.07812-0.08984,0.11719-0.32129,0.11719-0.69434v-5.75586c0-0.38477-0.04492-0.63086-0.13477-0.73828
				c-0.08984-0.10645-0.26367-0.16797-0.52148-0.18359v-0.21582h2.29688v0.71777c0.19141-0.28027,0.38672-0.48242,0.58594-0.60645
				c0.28418-0.18262,0.59473-0.27441,0.93066-0.27441c0.40234,0,0.76855,0.12695,1.09863,0.37891
				c0.33008,0.25293,0.58105,0.60156,0.75293,1.04688s0.25781,0.9248,0.25781,1.4375c0,0.55273-0.08887,1.05664-0.2666,1.51367
				s-0.43555,0.80469-0.77344,1.04395s-0.71387,0.3584-1.12793,0.3584c-0.30078,0-0.58203-0.06641-0.84277-0.19824
				C135.69775,110.42627,135.49365,110.25244,135.27881,110.0083z M135.27881,109.41943
				c0.33594,0.47363,0.69434,0.71094,1.07812,0.71094c0.20996,0,0.38379-0.11035,0.52051-0.33203
				c0.20312-0.32715,0.30469-0.94922,0.30469-1.86621c0-0.94141-0.11133-1.58496-0.33398-1.93066
				c-0.14844-0.22949-0.34766-0.34375-0.59668-0.34375c-0.39551,0-0.71875,0.2832-0.97266,0.85156V109.41943z"/>
		</g>
	</g>
	<g>
		<g>
			<path d="M201.55322,111.54932l-0.31934,0.87988h-2.6875v-0.125c0.79102-0.72363,1.34668-1.31445,1.66992-1.77344
				c0.32227-0.45801,0.4834-0.87793,0.4834-1.25781c0-0.28906-0.08887-0.52734-0.26562-0.71387s-0.38867-0.28027-0.63477-0.28027
				c-0.22363,0-0.4248,0.06543-0.60254,0.19727c-0.17871,0.13184-0.30957,0.32422-0.39453,0.57812h-0.125
				c0.05664-0.41602,0.2002-0.73535,0.43164-0.95703c0.23242-0.22266,0.52148-0.33398,0.86816-0.33398
				c0.37012,0,0.67871,0.11914,0.92578,0.35742c0.24805,0.23828,0.37109,0.51855,0.37109,0.84277
				c0,0.23145-0.05371,0.46289-0.16113,0.69434c-0.16602,0.36426-0.43457,0.75-0.80566,1.15625
				c-0.55762,0.61133-0.90625,0.98047-1.04492,1.10645h1.18945c0.24121,0,0.41113-0.00879,0.50879-0.02734
				c0.09668-0.01758,0.18457-0.05469,0.26367-0.10938c0.07812-0.05566,0.14648-0.13379,0.20508-0.23438H201.55322z"/>
		</g>
		<g>
			<path d="M192.91553,110.0083v2.0293c0,0.28027,0.02246,0.4707,0.06738,0.57129c0.04395,0.10156,0.11328,0.1748,0.20605,0.22168
				s0.27441,0.07031,0.5459,0.07031v0.21582h-3.09668v-0.21582c0.24023-0.00781,0.41797-0.07617,0.53418-0.2041
				c0.07812-0.08984,0.11621-0.32129,0.11621-0.69434v-5.75586c0-0.38477-0.04395-0.63086-0.13379-0.73828
				c-0.08887-0.10645-0.26074-0.16797-0.5166-0.18359v-0.21582h2.27734v0.71777c0.19043-0.28027,0.38379-0.48242,0.58105-0.60645
				c0.2832-0.18262,0.59082-0.27441,0.92383-0.27441c0.39941,0,0.7627,0.12695,1.08984,0.37891
				c0.32715,0.25293,0.57617,0.60156,0.74609,1.04688c0.1709,0.44531,0.25586,0.9248,0.25586,1.4375
				c0,0.55273-0.08789,1.05664-0.26367,1.51367c-0.17676,0.45703-0.43262,0.80469-0.76758,1.04395s-0.70801,0.3584-1.11816,0.3584
				c-0.29883,0-0.57715-0.06641-0.83691-0.19824C193.33252,110.42627,193.12842,110.25244,192.91553,110.0083z M192.91553,109.41943
				c0.33301,0.47363,0.68945,0.71094,1.06934,0.71094c0.20898,0,0.38184-0.11035,0.51758-0.33203
				c0.20117-0.32715,0.30176-0.94922,0.30176-1.86621c0-0.94141-0.11035-1.58496-0.33105-1.93066
				c-0.14746-0.22949-0.34473-0.34375-0.59277-0.34375c-0.3916,0-0.71289,0.2832-0.96484,0.85156V109.41943z"/>
		</g>
	</g>
	<g>
		<g>
			<path d="M214.85693,19.34863c0.12988-0.30762,0.29395-0.5459,0.49219-0.71289s0.44531-0.25098,0.74121-0.25098
				c0.36523,0,0.64453,0.11914,0.83984,0.35742c0.14746,0.17773,0.22168,0.36719,0.22168,0.56934
				c0,0.33301-0.20801,0.67676-0.625,1.03223c0.28027,0.10938,0.49121,0.26758,0.63477,0.47168s0.21484,0.44531,0.21484,0.72168
				c0,0.39551-0.125,0.73828-0.37598,1.02832c-0.32715,0.37793-0.80078,0.56641-1.4209,0.56641
				c-0.30664,0-0.51562-0.03809-0.62598-0.11523c-0.11133-0.07617-0.16699-0.1582-0.16699-0.24609
				c0-0.06445,0.02637-0.12207,0.0791-0.17188c0.05273-0.04883,0.11621-0.07422,0.18945-0.07422
				c0.05664,0,0.11328,0.00977,0.17188,0.02734c0.03809,0.01172,0.12402,0.05273,0.25879,0.12305
				c0.13379,0.07129,0.22656,0.11328,0.27832,0.12695c0.08301,0.02441,0.17188,0.03613,0.26562,0.03613
				c0.22852,0,0.42676-0.08789,0.59668-0.26562c0.16895-0.17773,0.25293-0.3877,0.25293-0.63086
				c0-0.17773-0.03906-0.35059-0.11719-0.51953c-0.05859-0.125-0.12207-0.2207-0.19141-0.28613
				c-0.09668-0.08984-0.22852-0.1709-0.39648-0.24414s-0.33984-0.11035-0.51367-0.11035h-0.10742v-0.10059
				c0.17676-0.02246,0.35352-0.08691,0.53223-0.19238c0.17773-0.10547,0.30762-0.23242,0.3877-0.38086
				c0.08105-0.14844,0.12109-0.31152,0.12109-0.48926c0-0.23145-0.07227-0.41797-0.2168-0.56055
				c-0.14453-0.14355-0.32422-0.21484-0.53906-0.21484c-0.34766,0-0.6377,0.18652-0.87012,0.55957L214.85693,19.34863z"/>
		</g>
		<g>
			<path d="M209.24268,20.62988v2.0293c0,0.28027,0.02246,0.4707,0.06738,0.57129c0.04395,0.10156,0.11328,0.1748,0.20605,0.22168
				s0.27441,0.07031,0.5459,0.07031v0.21582h-3.09668v-0.21582c0.24023-0.00781,0.41797-0.07617,0.53418-0.2041
				c0.07812-0.08984,0.11621-0.32129,0.11621-0.69434v-5.75586c0-0.38477-0.04395-0.63086-0.13379-0.73828
				c-0.08887-0.10645-0.26074-0.16797-0.5166-0.18359v-0.21582h2.27734v0.71777c0.19043-0.28027,0.38379-0.48242,0.58105-0.60645
				c0.2832-0.18262,0.59082-0.27441,0.92383-0.27441c0.39941,0,0.7627,0.12695,1.08984,0.37891
				c0.32715,0.25293,0.57617,0.60156,0.74609,1.04688c0.1709,0.44531,0.25586,0.9248,0.25586,1.4375
				c0,0.55273-0.08789,1.05664-0.26367,1.51367c-0.17676,0.45703-0.43262,0.80469-0.76758,1.04395s-0.70801,0.3584-1.11816,0.3584
				c-0.29883,0-0.57715-0.06641-0.83691-0.19824C209.65967,21.04785,209.45557,20.87402,209.24268,20.62988z M209.24268,20.04102
				c0.33301,0.47363,0.68945,0.71094,1.06934,0.71094c0.20898,0,0.38184-0.11035,0.51758-0.33203
				c0.20117-0.32715,0.30176-0.94922,0.30176-1.86621c0-0.94141-0.11035-1.58496-0.33105-1.93066
				c-0.14746-0.22949-0.34473-0.34375-0.59277-0.34375c-0.3916,0-0.71289,0.2832-0.96484,0.85156V20.04102z"/>
		</g>
	</g>
</g>
<g>
	<path fill="#E0E0E0" d="M19.07867,99.02946c25.91409,0.0039,52.44429-8.3242,65.03119-32.7324l1.0684-2.125v49.6621h-66.1504
		L19.07867,99.02946z"/>
	<path d="M4.53276,64.25794c0-1.09178-0.8848-1.97848-1.9795-1.97848c-1.0937,0-1.9795,0.8867-1.9795,1.97848
		c0,1.09382,0.8858,1.98051,1.9795,1.98051C3.64796,66.23846,4.53276,65.35176,4.53276,64.25794z"/>
	<g>
		<g>
			
				<line fill="none" stroke="#000000" stroke-width="0.68854" stroke-linejoin="round" x1="2.55326" y1="113.83416" x2="2.55326" y2="17.11449"/>
			<g>
				<polygon points="2.55326,14.68377 3.95287,18.109 2.55326,17.29619 1.15398,18.109 				"/>
			</g>
		</g>
	</g>
	<g>
		<g>
			<path d="M106.74854,61.52197c0.18457,0.20312,0.32422,0.40625,0.41846,0.60938c0.06787,0.14062,0.1792,0.50977,0.33398,1.10742
				l0.49805-0.77344c0.13184-0.1875,0.29199-0.36621,0.48047-0.53613c0.18896-0.16992,0.35449-0.28613,0.49805-0.34863
				c0.09082-0.03906,0.19043-0.05859,0.2998-0.05859c0.16211,0,0.2915,0.04492,0.3877,0.13477s0.14453,0.19922,0.14453,0.32812
				c0,0.14844-0.02832,0.25-0.08496,0.30469c-0.10596,0.09766-0.22656,0.14648-0.3623,0.14648
				c-0.0791,0-0.16406-0.01758-0.25439-0.05273c-0.17773-0.0625-0.29639-0.09375-0.35645-0.09375
				c-0.09082,0-0.19824,0.05469-0.32275,0.16406c-0.23389,0.20312-0.51318,0.5957-0.8374,1.17773l0.46387,2.01562
				c0.07178,0.30859,0.13232,0.49316,0.18115,0.55371s0.09814,0.09082,0.14697,0.09082c0.07959,0,0.17188-0.04492,0.27734-0.13477
				c0.20752-0.17969,0.38477-0.41406,0.53223-0.70312l0.19775,0.10547c-0.23779,0.46094-0.53955,0.84375-0.90527,1.14844
				c-0.20752,0.17188-0.38281,0.25781-0.52637,0.25781c-0.21094,0-0.37891-0.12305-0.50342-0.36914
				c-0.0791-0.15234-0.24316-0.80859-0.49219-1.96875c-0.58838,1.05859-1.06006,1.74023-1.41455,2.04492
				c-0.22998,0.19531-0.45264,0.29297-0.66748,0.29297c-0.15088,0-0.28857-0.05664-0.41309-0.16992
				c-0.09082-0.08594-0.13574-0.20117-0.13574-0.3457c0-0.12891,0.0415-0.23633,0.12451-0.32227s0.18457-0.12891,0.30518-0.12891
				s0.24902,0.0625,0.38477,0.1875c0.09814,0.08984,0.17383,0.13477,0.22656,0.13477c0.04541,0,0.10352-0.03125,0.17529-0.09375
				c0.17725-0.14844,0.41895-0.46875,0.72412-0.96094c0.30566-0.49219,0.50537-0.84766,0.6001-1.06641
				c-0.23438-0.94922-0.36035-1.45117-0.37939-1.50586c-0.08691-0.25391-0.19971-0.43359-0.33936-0.53906
				s-0.34521-0.1582-0.6167-0.1582c-0.08691,0-0.18701,0.00391-0.2998,0.01172v-0.21094L106.74854,61.52197z"/>
		</g>
	</g>
	<g>
		<g>
			<path d="M2.8252,4.66992C2.95557,4.89648,3.04541,5.1084,3.0957,5.30566c0.0498,0.19727,0.09961,0.58496,0.14941,1.16309
				l0.25342,2.88281C3.72852,9.07031,4.0625,8.625,4.5,8.01562c0.21094-0.29688,0.47168-0.70117,0.78271-1.21289
				c0.18799-0.3125,0.30322-0.53125,0.34521-0.65625C5.65088,6.08398,5.6626,6.01953,5.6626,5.95312
				c0-0.04297-0.01367-0.07812-0.04004-0.10547C5.59521,5.82031,5.52539,5.78809,5.41211,5.75098S5.20508,5.64551,5.13037,5.5459
				c-0.0752-0.09961-0.1123-0.21387-0.1123-0.34277c0-0.16016,0.0459-0.28906,0.13818-0.38672
				c0.0918-0.09766,0.20703-0.14648,0.34521-0.14648c0.16895,0,0.3125,0.07129,0.43164,0.21387s0.17822,0.33887,0.17822,0.58887
				c0,0.30859-0.10352,0.66113-0.31055,1.05762s-0.60645,1.00488-1.19727,1.8252s-1.30664,1.71484-2.14697,2.68359
				c-0.57959,0.66797-1.00928,1.08887-1.28906,1.2627c-0.28027,0.17383-0.52002,0.26074-0.71973,0.26074
				c-0.11865,0-0.22314-0.0459-0.31348-0.1377s-0.13525-0.19824-0.13525-0.31934c0-0.15234,0.0625-0.29102,0.18701-0.41602
				s0.25977-0.1875,0.40576-0.1875c0.07666,0,0.14014,0.01758,0.18994,0.05273c0.03076,0.01953,0.06445,0.0752,0.10059,0.16699
				c0.03662,0.0918,0.07031,0.15332,0.10107,0.18457c0.01904,0.01953,0.04199,0.0293,0.06885,0.0293
				c0.02295,0,0.06348-0.01953,0.12109-0.05859c0.21094-0.13281,0.45654-0.34375,0.73633-0.63281
				c0.36865-0.38281,0.64111-0.69531,0.81738-0.9375L2.40479,6.5918c-0.05371-0.61328-0.13428-0.98633-0.2417-1.11914
				s-0.2876-0.19922-0.54102-0.19922c-0.08057,0-0.22461,0.01172-0.43164,0.03516L1.13867,5.0918L2.8252,4.66992z"/>
		</g>
	</g>
	<g>
		<g>
			
				<line fill="none" stroke="#000000" stroke-width="0.68854" stroke-linejoin="round" x1="2.55326" y1="64.17205" x2="99.27292" y2="64.17205"/>
			<g>
				<polygon points="101.70367,64.17205 98.27844,65.57168 99.0912,64.17205 98.27844,62.77279 				"/>
			</g>
		</g>
	</g>
	<g>
		<g>
			
				<line fill="none" stroke="#1B75BB" stroke-width="0.68854" stroke-linecap="square" stroke-linejoin="round" x1="19.07867" y1="99.02947" x2="20.11149" y2="99.02947"/>
			
				<line fill="none" stroke="#1B75BB" stroke-width="0.68854" stroke-linecap="square" stroke-linejoin="round" stroke-dasharray="2.06559,2.06559" x1="22.17708" y1="99.02947" x2="66.58725" y2="99.02947"/>
			<polyline fill="none" stroke="#1B75BB" stroke-width="0.68854" stroke-linecap="square" stroke-linejoin="round" points="
				67.62004,99.02947 68.65286,99.02947 69.09529,98.09621 			"/>
			
				<line fill="none" stroke="#1B75BB" stroke-width="0.68854" stroke-linecap="square" stroke-linejoin="round" stroke-dasharray="2.14768,2.14768" x1="70.01532" y1="96.15557" x2="84.2758" y2="66.07565"/>
			
				<line fill="none" stroke="#1B75BB" stroke-width="0.68854" stroke-linecap="square" stroke-linejoin="round" x1="84.73581" y1="65.10531" x2="85.17825" y2="64.17205"/>
		</g>
	</g>
	<g>
		<g>
			<path fill="none" stroke="#000000" stroke-width="1.37709" stroke-linecap="round" stroke-linejoin="round" d="
				M19.07867,99.02947c24.67352,0.00369,49.90557-7.54593,63.12922-29.33667"/>
			<g>
				<polygon points="84.10985,66.29705 83.32376,72.16491 82.02898,69.92223 79.43988,69.93554 				"/>
			</g>
		</g>
	</g>
	<path fill="#EE4036" d="M87.93215,64.17206c0-1.5196-1.2314-2.7539-2.7539-2.7539s-2.7539,1.2343-2.7539,2.7539
		c0,1.5195,1.2314,2.7558,2.7539,2.7558S87.93215,65.69156,87.93215,64.17206z"/>
	<path d="M21.05816,99.02946c0-1.0918-0.8858-1.97852-1.97949-1.97852c-1.09472,0-1.97952,0.88672-1.97952,1.97852
		c0,1.0928,0.8848,1.98048,1.97952,1.98048C20.17236,101.00994,21.05816,100.12226,21.05816,99.02946z"/>
	<path d="M70.54646,99.02946c0-1.0918-0.88479-1.97852-1.9795-1.97852c-1.0938,0-1.9795,0.88672-1.9795,1.97852
		c0,1.0928,0.8857,1.98048,1.9795,1.98048C69.66167,101.00994,70.54646,100.12226,70.54646,99.02946z"/>
	<g>
		<path d="M83.26346,64.41666v-0.48731h3.82959v0.48731H83.26346z"/>
	</g>
	<g>
		<g>
			<path d="M21.58545,108.30615l1.11768-0.54297h0.11182v3.86035c0,0.25586,0.01074,0.41602,0.03223,0.47852
				c0.02148,0.06348,0.06592,0.11133,0.13379,0.14551c0.06787,0.0332,0.20557,0.05273,0.41309,0.05664v0.125H21.6665v-0.125
				c0.2168-0.00391,0.35693-0.02246,0.42041-0.05566c0.06299-0.03223,0.10693-0.07617,0.13184-0.13086
				c0.0249-0.05566,0.03711-0.21973,0.03711-0.49414v-2.46777c0-0.33301-0.01123-0.54688-0.03369-0.64062
				c-0.01562-0.07227-0.04443-0.125-0.08643-0.15918c-0.0415-0.0332-0.0918-0.0498-0.15088-0.0498
				c-0.0835,0-0.19971,0.03418-0.34863,0.10449L21.58545,108.30615z"/>
		</g>
		<g>
			<path d="M15.97754,110.0083v2.0293c0,0.28027,0.02246,0.4707,0.06738,0.57129c0.04492,0.10156,0.11426,0.1748,0.20801,0.22168
				s0.27734,0.07031,0.55078,0.07031v0.21582h-3.12305v-0.21582c0.24219-0.00781,0.42188-0.07617,0.53906-0.2041
				c0.07812-0.08984,0.11719-0.32129,0.11719-0.69434v-5.75586c0-0.38477-0.04492-0.63086-0.13477-0.73828
				c-0.08984-0.10645-0.26367-0.16797-0.52148-0.18359v-0.21582h2.29688v0.71777c0.19141-0.28027,0.38672-0.48242,0.58594-0.60645
				c0.28467-0.18262,0.59521-0.27441,0.93115-0.27441c0.40234,0,0.76855,0.12695,1.09863,0.37891
				c0.33008,0.25293,0.58105,0.60156,0.75293,1.04688s0.25781,0.9248,0.25781,1.4375c0,0.55273-0.08887,1.05664-0.2666,1.51367
				s-0.43555,0.80469-0.77344,1.04395s-0.71387,0.3584-1.12793,0.3584c-0.30078,0-0.58203-0.06641-0.84326-0.19824
				C16.39697,110.42627,16.19238,110.25244,15.97754,110.0083z M15.97754,109.41943
				c0.33594,0.47363,0.69482,0.71094,1.07812,0.71094c0.21045,0,0.38428-0.11035,0.521-0.33203
				c0.20312-0.32715,0.30469-0.94922,0.30469-1.86621c0-0.94141-0.11133-1.58496-0.33398-1.93066
				c-0.14844-0.22949-0.34766-0.34375-0.59717-0.34375c-0.39502,0-0.71875,0.2832-0.97266,0.85156V109.41943z"/>
		</g>
	</g>
	<g>
		<g>
			<path d="M79.1543,111.54932l-0.31934,0.87988h-2.68701v-0.125c0.79053-0.72363,1.34668-1.31445,1.66943-1.77344
				c0.32227-0.45801,0.48389-0.87793,0.48389-1.25781c0-0.28906-0.08887-0.52734-0.26562-0.71387s-0.38867-0.28027-0.63477-0.28027
				c-0.22412,0-0.4248,0.06543-0.60303,0.19727s-0.30957,0.32422-0.39453,0.57812h-0.12451
				c0.05615-0.41602,0.19971-0.73535,0.43164-0.95703c0.23193-0.22266,0.521-0.33398,0.86816-0.33398
				c0.36963,0,0.67822,0.11914,0.92578,0.35742s0.37109,0.51855,0.37109,0.84277c0,0.23145-0.05371,0.46289-0.16113,0.69434
				c-0.16602,0.36426-0.43457,0.75-0.80615,1.15625c-0.55762,0.61133-0.90625,0.98047-1.04492,1.10645h1.18945
				c0.2417,0,0.41113-0.00879,0.50879-0.02734c0.09717-0.01758,0.18506-0.05469,0.26367-0.10938
				c0.07812-0.05566,0.14648-0.13379,0.20508-0.23438H79.1543z"/>
		</g>
		<g>
			<path d="M70.51807,110.0083v2.0293c0,0.28027,0.02197,0.4707,0.06689,0.57129c0.04443,0.10156,0.11328,0.1748,0.20605,0.22168
				c0.09326,0.04688,0.2749,0.07031,0.54639,0.07031v0.21582h-3.09717v-0.21582c0.24023-0.00781,0.41846-0.07617,0.53467-0.2041
				c0.07764-0.08984,0.11621-0.32129,0.11621-0.69434v-5.75586c0-0.38477-0.04443-0.63086-0.13379-0.73828
				c-0.08887-0.10645-0.26123-0.16797-0.51709-0.18359v-0.21582h2.27783v0.71777c0.18994-0.28027,0.3833-0.48242,0.58105-0.60645
				c0.28271-0.18262,0.59082-0.27441,0.92383-0.27441c0.39893,0,0.76221,0.12695,1.08936,0.37891
				c0.32764,0.25293,0.57617,0.60156,0.74658,1.04688s0.25586,0.9248,0.25586,1.4375c0,0.55273-0.08789,1.05664-0.26416,1.51367
				s-0.43213,0.80469-0.76709,1.04395s-0.70801,0.3584-1.11865,0.3584c-0.29834,0-0.57715-0.06641-0.83691-0.19824
				C70.93457,110.42627,70.73096,110.25244,70.51807,110.0083z M70.51807,109.41943
				c0.33301,0.47363,0.68945,0.71094,1.06934,0.71094c0.20898,0,0.38135-0.11035,0.51709-0.33203
				c0.20117-0.32715,0.30176-0.94922,0.30176-1.86621c0-0.94141-0.11035-1.58496-0.33105-1.93066
				c-0.14697-0.22949-0.34473-0.34375-0.59277-0.34375c-0.39111,0-0.7124,0.2832-0.96436,0.85156V109.41943z"/>
		</g>
	</g>
	<g>
		<g>
			<path d="M92.83154,53.42969c0.12988-0.30762,0.29395-0.5459,0.49219-0.71289s0.44531-0.25098,0.74072-0.25098
				c0.36523,0,0.64502,0.11914,0.83984,0.35742c0.14795,0.17773,0.22168,0.36719,0.22168,0.56934
				c0,0.33301-0.20801,0.67676-0.62451,1.03223c0.27979,0.10938,0.49121,0.26758,0.63477,0.47168
				c0.14307,0.2041,0.21484,0.44531,0.21484,0.72168c0,0.39551-0.12549,0.73828-0.37598,1.02832
				c-0.32715,0.37793-0.80078,0.56641-1.4209,0.56641c-0.30713,0-0.51562-0.03809-0.62646-0.11523
				c-0.11084-0.07617-0.1665-0.1582-0.1665-0.24609c0-0.06445,0.02637-0.12207,0.0791-0.17188
				c0.05225-0.04883,0.11572-0.07422,0.18945-0.07422c0.05615,0,0.11328,0.00977,0.17139,0.02734
				c0.03809,0.01172,0.12451,0.05273,0.25879,0.12305c0.13428,0.07129,0.22705,0.11328,0.27881,0.12695
				c0.08301,0.02441,0.17139,0.03613,0.26562,0.03613c0.22803,0,0.42676-0.08789,0.59619-0.26562
				c0.16895-0.17773,0.25342-0.3877,0.25342-0.63086c0-0.17773-0.03906-0.35059-0.11768-0.51953
				c-0.05811-0.125-0.12207-0.2207-0.19141-0.28613c-0.09619-0.08984-0.22852-0.1709-0.39648-0.24414
				s-0.33936-0.11035-0.51367-0.11035h-0.10742v-0.10059c0.17676-0.02246,0.354-0.08691,0.53223-0.19238
				s0.30762-0.23242,0.38818-0.38086s0.12061-0.31152,0.12061-0.48926c0-0.23145-0.07227-0.41797-0.21631-0.56055
				c-0.14453-0.14355-0.32422-0.21484-0.53955-0.21484c-0.34717,0-0.63721,0.18652-0.86963,0.55957L92.83154,53.42969z"/>
		</g>
		<g>
			<path d="M87.21729,54.71191v2.0293c0,0.28027,0.02197,0.4707,0.06689,0.57129c0.04443,0.10156,0.11328,0.1748,0.20605,0.22168
				c0.09326,0.04688,0.2749,0.07031,0.54639,0.07031v0.21582h-3.09717v-0.21582c0.24023-0.00781,0.41846-0.07617,0.53467-0.2041
				c0.07764-0.08984,0.11621-0.32129,0.11621-0.69434V50.9502c0-0.38477-0.04443-0.63086-0.13379-0.73828
				c-0.08887-0.10645-0.26123-0.16797-0.51709-0.18359V49.8125h2.27783v0.71777c0.18994-0.28027,0.3833-0.48242,0.58105-0.60645
				c0.28271-0.18262,0.59082-0.27441,0.92383-0.27441c0.39893,0,0.76221,0.12695,1.08936,0.37891
				c0.32764,0.25293,0.57617,0.60156,0.74658,1.04688S90.81396,52,90.81396,52.5127c0,0.55273-0.08789,1.05664-0.26416,1.51367
				s-0.43213,0.80469-0.76709,1.04395s-0.70801,0.3584-1.11865,0.3584c-0.29834,0-0.57715-0.06641-0.83691-0.19824
				C87.63379,55.12988,87.43018,54.95605,87.21729,54.71191z M87.21729,54.12305c0.33301,0.47363,0.68945,0.71094,1.06934,0.71094
				c0.20898,0,0.38135-0.11035,0.51709-0.33203c0.20117-0.32715,0.30176-0.94922,0.30176-1.86621
				c0-0.94141-0.11035-1.58496-0.33105-1.93066c-0.14697-0.22949-0.34473-0.34375-0.59277-0.34375
				c-0.39111,0-0.7124,0.2832-0.96436,0.85156V54.12305z"/>
		</g>
	</g>
</g>
<g>
</g>
<g>
</g>
<g>
</g>
<g>
</g>
<g>
</g>
<g>
</g>
<g>
</g>
</svg>
