<?xml version="1.0" encoding="UTF-8" standalone="no"?>
<!-- Created with Inkscape (http://www.inkscape.org/) -->

<svg
   xmlns:dc="http://purl.org/dc/elements/1.1/"
   xmlns:cc="http://creativecommons.org/ns#"
   xmlns:rdf="http://www.w3.org/1999/02/22-rdf-syntax-ns#"
   xmlns:svg="http://www.w3.org/2000/svg"
   xmlns="http://www.w3.org/2000/svg"
   xmlns:sodipodi="http://sodipodi.sourceforge.net/DTD/sodipodi-0.dtd"
   xmlns:inkscape="http://www.inkscape.org/namespaces/inkscape"
   id="svg2"
   sodipodi:version="0.32"
   inkscape:version="0.48.4 r9939"
   width="641.3681"
   height="354.83762"
   version="1.0"
   sodipodi:docname="Snells_law.svg">
  <metadata
     id="metadata7">
    <rdf:RDF>
      <cc:Work
         rdf:about="">
        <dc:format>image/svg+xml</dc:format>
        <dc:type
           rdf:resource="http://purl.org/dc/dcmitype/StillImage" />
      </cc:Work>
    </rdf:RDF>
  </metadata>
  <defs
     id="defs5">
    <marker
       inkscape:stockid="Arrow1Mstart"
       orient="auto"
       refY="0"
       refX="0"
       id="Arrow1Mstart"
       style="overflow:visible">
      <path
         id="path3828"
         d="M 0,0 L 5,-5 L -12.5,0 L 5,5 L 0,0 z "
         style="fill-rule:evenodd;stroke:black;stroke-width:1pt;marker-start:none"
         transform="matrix(0.4,0,0,0.4,4,0)" />
    </marker>
    <marker
       inkscape:stockid="Arrow1Mend"
       orient="auto"
       refY="0"
       refX="0"
       id="Arrow1Mend"
       style="overflow:visible">
      <path
         id="path3825"
         d="M 0,0 L 5,-5 L -12.5,0 L 5,5 L 0,0 z "
         style="fill-rule:evenodd;stroke:black;stroke-width:1pt;marker-start:none"
         transform="matrix(-0.4,0,0,-0.4,-4,0)" />
    </marker>
    <marker
       inkscape:stockid="Arrow1Lstart"
       orient="auto"
       refY="0"
       refX="0"
       id="Arrow1Lstart"
       style="overflow:visible">
      <path
         id="path3834"
         d="M 0,0 L 5,-5 L -12.5,0 L 5,5 L 0,0 z "
         style="fill-rule:evenodd;stroke:black;stroke-width:1pt;marker-start:none"
         transform="matrix(0.8,0,0,0.8,10,0)" />
    </marker>
    <marker
       inkscape:stockid="TriangleOutM"
       orient="auto"
       refY="0"
       refX="0"
       id="TriangleOutM"
       style="overflow:visible">
      <path
         id="path3733"
         d="M 5.77,0 L -2.88,5 L -2.88,-5 L 5.77,0 z "
         style="fill-rule:evenodd;stroke:black;stroke-width:1pt;marker-start:none"
         transform="scale(0.4,0.4)" />
    </marker>
    <marker
       inkscape:stockid="Arrow1Lend"
       orient="auto"
       refY="0"
       refX="0"
       id="Arrow1Lend"
       style="overflow:visible">
      <path
         id="path3831"
         d="M 0,0 L 5,-5 L -12.5,0 L 5,5 L 0,0 z "
         style="fill-rule:evenodd;stroke:black;stroke-width:1pt;marker-start:none"
         transform="matrix(-0.8,0,0,-0.8,-10,0)" />
    </marker>
  </defs>
  <sodipodi:namedview
     inkscape:window-height="716"
     inkscape:window-width="1366"
     inkscape:pageshadow="2"
     inkscape:pageopacity="0.0"
     guidetolerance="10.0"
     gridtolerance="10.0"
     objecttolerance="10.0"
     borderopacity="1.0"
     bordercolor="#666666"
     pagecolor="#ffffff"
     id="base"
     showguides="true"
     inkscape:guide-bbox="true"
     inkscape:guide-points="true"
     inkscape:zoom="1.182693"
     inkscape:cx="405.40792"
     inkscape:cy="239.69875"
     inkscape:window-x="-8"
     inkscape:window-y="-8"
     inkscape:current-layer="svg2"
     showgrid="false"
     inkscape:window-maximized="1">
    <inkscape:grid
       type="xygrid"
       id="grid3041" />
  </sodipodi:namedview>
  <path
     style="opacity:0.80813952;fill:#d8f2ff;fill-opacity:1;fill-rule:nonzero;stroke:none"
     d="m 304.79907,0.22905831 336.56903,0 0,354.60855169 -336.56903,0 z"
     id="rect2770" />
  <path
     transform="matrix(1.115239,0,0,1.347179,40.8643,3.665129)"
     style="fill:none;stroke:#8f8f8f;stroke-width:1.7648809;stroke-linecap:round;stroke-linejoin:round;stroke-miterlimit:4;stroke-dashoffset:0;stroke-opacity:1"
     d="m 100.90501,135.34564 c 0,-22.27469 8.84858,-43.637058 24.59916,-59.387639"
     id="path3871" />
  <path
     style="fill:none;stroke:#000000;stroke-width:1.80272937px;stroke-linecap:butt;stroke-linejoin:miter;stroke-opacity:1"
     d="M 304.79909,0.90136468 305,269.83762"
     id="path3657"
     sodipodi:nodetypes="cc"
     inkscape:connector-curvature="0" />
  <path
     transform="matrix(1.802683,0,0,1.802777,-28.50228,-57.99809)"
     style="fill:none;stroke:#8f8f8f;stroke-width:1.20000005;stroke-linecap:round;stroke-linejoin:round;stroke-miterlimit:4;stroke-dashoffset:0;stroke-opacity:1"
     d="m 268.87862,135.34564 c 0,8.67327 -1.34347,17.29421 -3.98265,25.55619"
     id="path3873" />
  <g
     id="g3863"
     style="fill:red;fill-opacity:1;stroke:none"
     transform="matrix(1.802683,0,0,1.802777,-28.50228,-57.99809)">
    <path
       style="fill:red;fill-opacity:1;fill-rule:evenodd;stroke:none;stroke-width:2.20000005;stroke-linecap:butt;stroke-linejoin:miter;stroke-miterlimit:4;stroke-dasharray:none;stroke-opacity:1"
       d="M 185.21875,134.3125 L 184.5625,136.40625 L 348.3125,188.96875 L 348.96875,186.875 L 185.21875,134.3125 z "
       id="path3841" />
    <path
       style="fill:red;fill-opacity:1;fill-rule:evenodd;stroke:none;stroke-width:0.88000002pt;marker-start:none"
       d="M 340.25706,185.22305 L 334.72272,188.06752 L 350.73058,188.5854 L 337.41259,179.6887 L 340.25706,185.22305 z "
       id="path3869" />
  </g>
  <path
     style="fill:none;fill-opacity:0.75;fill-rule:evenodd;stroke:#8f8f8f;stroke-width:1.80272937;stroke-linecap:butt;stroke-linejoin:miter;stroke-miterlimit:4;stroke-dasharray:5.40818812, 5.40818812;stroke-dashoffset:0;stroke-opacity:1"
     d="M 0.90136468,185.9998 L 616.11549,185.9998"
     id="path3875" />
  <g
     id="g3855"
     style="fill:red;fill-opacity:1;stroke:none"
     transform="matrix(1.768803,-0.347849,0.347867,1.768896,-69.41798,11.04682)">
    <path
       style="fill:red;fill-opacity:1;fill-rule:evenodd;stroke:none;stroke-width:2.20000005;stroke-linecap:butt;stroke-linejoin:miter;stroke-miterlimit:4;stroke-dasharray:none;stroke-opacity:1"
       d="M 62.40625,11.3125 L 60.84375,12.875 L 103.15625,55.15625 L 184.125,136.125 L 185.65625,134.5625 L 104.71875,53.59375 L 62.40625,11.3125 z "
       id="path3847" />
    <path
       style="fill:red;fill-opacity:1;fill-rule:evenodd;stroke:none;stroke-width:0.88000002pt;marker-start:none"
       d="M 97.70358,48.157407 L 91.48104,48.157407 L 105.48175,55.935582 L 97.70358,41.934867 L 97.70358,48.157407 z "
       id="path3861" />
  </g>
  <g
     transform="scale(0.999975,1.000025)"
     style="font-size:32.4491272px;font-style:normal;font-variant:normal;font-weight:bold;font-stretch:normal;text-align:start;line-height:125%;writing-mode:lr-tb;text-anchor:start;fill:#000000;fill-opacity:1;stroke:none;font-family:Luxi Sans"
     id="text3877">
    <path
       d="m 18.309458,29.929033 0,-23.2277441 8.761898,0 c 1.542166,2.32e-5 2.719925,0.073963 3.533279,0.2218202 1.140774,0.1901544 2.096713,0.5519323 2.867819,1.0853346 0.771071,0.5334462 1.391638,1.2807682 1.861705,2.2419683 0.470028,0.96124 0.705051,2.017525 0.705071,3.16886 -2e-5,1.975271 -0.62851,3.646843 -1.885471,5.014721 -1.256999,1.367902 -3.528013,2.051847 -6.813049,2.051837 l -5.957457,0 0,9.443203 z m 3.073795,-12.184267 6.004989,0 c 1.985806,1.2e-5 3.395947,-0.369688 4.230429,-1.109101 0.83445,-0.739386 1.251682,-1.779828 1.251699,-3.121327 -1.7e-5,-0.971766 -0.245603,-1.803591 -0.73676,-2.495477 C 31.642421,10.327013 30.995446,9.870169 30.192684,9.6483288 29.675089,9.5110319 28.719151,9.4423734 27.324865,9.4423529 l -5.941612,0 z"
       style=""
       id="path3047" />
  </g>
  <g
     transform="scale(0.999975,1.000025)"
     style="font-size:32.4491272px;font-style:normal;font-variant:normal;font-weight:bold;font-stretch:normal;text-align:start;line-height:125%;writing-mode:lr-tb;text-anchor:start;fill:#000000;fill-opacity:1;stroke:none;font-family:Luxi Sans"
     id="text3881">
    <path
       d="m 622.72904,298.45059 c 1.42596,0.98234 2.74104,1.70062 3.94523,2.15482 l -0.90313,2.13898 c -1.66895,-0.60208 -3.3326,-1.55274 -4.99095,-2.85197 -1.72177,0.96122 -3.62308,1.44183 -5.70395,1.44183 -2.10202,0 -4.00862,-0.50702 -5.71979,-1.52105 -1.71119,-1.01404 -3.02891,-2.44002 -3.95316,-4.27797 -0.92425,-1.83793 -1.38637,-3.90825 -1.38637,-6.21096 0,-2.29213 0.46476,-4.37829 1.3943,-6.2585 0.92953,-1.88017 2.25252,-3.31144 3.96899,-4.29381 1.71646,-0.98232 3.63626,-1.47349 5.75941,-1.47352 2.14424,3e-5 4.07725,0.50969 5.79901,1.52898 1.72173,1.01934 3.03416,2.44532 3.93731,4.27796 0.9031,1.83267 1.35466,3.90035 1.35469,6.20304 -3e-5,1.91189 -0.2905,3.631 -0.87144,5.15732 -0.58098,1.52634 -1.4577,2.85462 -2.63015,3.98485 z m -6.76552,-3.92939 c 1.77455,0.49646 3.2375,1.23586 4.38887,2.2182 1.80623,-1.6478 2.70936,-4.12479 2.70938,-7.43098 -2e-5,-1.88017 -0.31955,-3.5227 -0.95858,-4.92757 -0.63908,-1.40485 -1.57389,-2.49546 -2.80444,-3.27185 -1.23059,-0.77635 -2.61169,-1.16454 -4.14329,-1.16456 -2.29215,2e-5 -4.19347,0.78432 -5.70395,2.35288 -1.51049,1.5686 -2.26574,3.91092 -2.26573,7.02695 -10e-6,3.02099 0.74732,5.33953 2.24197,6.95565 1.49463,1.61612 3.40387,2.42418 5.72771,2.42417 1.09853,10e-6 2.13369,-0.20597 3.10548,-0.61792 -0.96123,-0.62321 -1.97527,-1.06685 -3.0421,-1.33092 z"
       style=""
       id="path3050" />
  </g>
  <g
     transform="scale(0.999975,1.000025)"
     style="font-size:32.4491272px;font-style:normal;font-variant:normal;font-weight:bold;font-stretch:normal;text-align:start;line-height:125%;writing-mode:lr-tb;text-anchor:start;fill:#000000;fill-opacity:1;stroke:none;font-family:Luxi Sans"
     id="text3885">
    <path
       d="m 279.63698,204.35692 c -10e-6,-3.85543 1.03515,-6.87376 3.10548,-9.05501 2.07031,-2.18121 4.74272,-3.27183 8.01721,-3.27185 2.14425,2e-5 4.07725,0.51232 5.79902,1.53689 1.72173,1.02462 3.03416,2.45325 3.93731,4.28589 0.9031,1.83267 1.35466,3.91091 1.35468,6.23473 -2e-5,2.35553 -0.47535,4.46282 -1.42598,6.32188 -0.95068,1.85906 -2.29745,3.26656 -4.0403,4.2225 -1.74289,0.95594 -3.62308,1.43391 -5.64057,1.43391 -2.18652,0 -4.14065,-0.52814 -5.86239,-1.58443 -1.72175,-1.05628 -3.02627,-2.49811 -3.91354,-4.32549 -0.88729,-1.82737 -1.33093,-3.76037 -1.33092,-5.79902 z m 3.16886,0.0475 c -10e-6,2.79916 0.75259,5.00416 2.25781,6.61499 1.5052,1.61084 3.39331,2.41626 5.66434,2.41626 2.31325,0 4.2172,-0.81334 5.71187,-2.44002 1.49462,-1.62668 2.24194,-3.93466 2.24196,-6.92396 -2e-5,-1.89074 -0.31954,-3.54119 -0.95858,-4.95135 -0.63907,-1.41012 -1.57388,-2.50338 -2.80444,-3.27977 -1.23059,-0.77635 -2.61168,-1.16453 -4.14328,-1.16455 -2.17596,2e-5 -4.04823,0.74734 -5.61681,2.24196 -1.56859,1.49467 -2.35288,3.99014 -2.35287,7.48644 z"
       style=""
       id="path3053" />
  </g>
  <path
     sodipodi:nodetypes="cc"
     id="path1915"
     d="M 304.79909,353.59584 305,269.83762"
     style="fill:none;stroke:#b3b3b3;stroke-width:1.80272937px;stroke-linecap:butt;stroke-linejoin:miter;stroke-opacity:1"
     inkscape:connector-curvature="0" />
  <g
     transform="matrix(0,-0.999975,1.000025,0,0,0)"
     style="font-size:21.63275337px;font-style:oblique;font-variant:normal;font-weight:bold;font-stretch:normal;text-align:start;line-height:125%;writing-mode:lr-tb;text-anchor:start;fill:#000000;fill-opacity:1;stroke:none;font-family:Luxi Sans"
     id="text3897">
    <path
       d="m -341.5972,300.23344 8.85168,0 0,11.21776 -1.90132,0 0,-9.6439 -5.04905,0 0,9.6439 -1.90131,0 z"
       style=""
       id="path3056" />
    <path
       d="m -329.90411,315.75029 0,-15.51685 1.73231,0 0,1.45767 c 0.40843,-0.57038 0.86967,-0.99818 1.38374,-1.28339 0.51405,-0.28518 1.13726,-0.42778 1.86963,-0.42779 0.95769,10e-6 1.80272,0.24648 2.53508,0.7394 0.73235,0.49294 1.28514,1.18833 1.65837,2.08617 0.37321,0.89785 0.55982,1.88195 0.55984,2.95232 -2e-5,1.14783 -0.20599,2.18123 -0.61793,3.1002 -0.41196,0.91897 -1.01053,1.62316 -1.79569,2.11257 -0.78518,0.48941 -1.61084,0.73412 -2.47699,0.73412 -0.63378,0 -1.20241,-0.1338 -1.7059,-0.40139 -0.50351,-0.26759 -0.91722,-0.6056 -1.24114,-1.01403 l 0,5.461 z m 1.72175,-9.84459 c 0,1.44359 0.29224,2.51044 0.87672,3.20055 0.58447,0.6901 1.29218,1.03516 2.12313,1.03516 0.84503,0 1.56858,-0.35738 2.17067,-1.07213 0.60208,-0.71476 0.90312,-1.82209 0.90313,-3.32203 -1e-5,-1.4295 -0.29401,-2.49987 -0.882,-3.21111 -0.58801,-0.71122 -1.29044,-1.06684 -2.10729,-1.06685 -0.80983,10e-6 -1.52634,0.37851 -2.14955,1.13551 -0.62321,0.75701 -0.93481,1.85731 -0.93481,3.3009 z"
       style=""
       id="path3058" />
    <path
       d="m -310.18323,307.8387 1.96469,0.24295 c -0.30985,1.14783 -0.88377,2.03863 -1.72175,2.6724 -0.83799,0.63378 -1.90836,0.95066 -3.21111,0.95066 -1.64077,0 -2.94176,-0.50526 -3.90298,-1.51577 -0.96122,-1.01051 -1.44183,-2.4277 -1.44183,-4.25155 0,-1.88723 0.48589,-3.35195 1.45768,-4.39416 0.97178,-1.04219 2.23228,-1.56329 3.7815,-1.5633 1.49992,10e-6 2.72521,0.51055 3.67588,1.53161 0.95065,1.02109 1.42598,2.45764 1.42599,4.30965 -10e-6,0.11268 -0.004,0.28169 -0.0106,0.50702 l -8.36579,0 c 0.0704,1.23234 0.41899,2.17596 1.04573,2.83085 0.62672,0.6549 1.40837,0.98235 2.34495,0.98235 0.69715,0 1.29219,-0.18309 1.78513,-0.54927 0.49292,-0.36618 0.88375,-0.95066 1.17248,-1.75344 z m -6.24266,-3.07379 6.26378,0 c -0.0845,-0.94361 -0.32393,-1.65132 -0.71827,-2.12314 -0.60561,-0.73235 -1.39079,-1.09853 -2.35552,-1.09854 -0.8732,1e-5 -1.60732,0.29225 -2.20236,0.87672 -0.59504,0.58449 -0.92425,1.36614 -0.98763,2.34496 z"
       style=""
       id="path3060" />
    <path
       d="m -306.52848,305.84232 c 0,-2.07736 0.57743,-3.61601 1.73231,-4.61597 0.96474,-0.83094 2.14073,-1.24641 3.528,-1.24642 1.54217,10e-6 2.80267,0.50527 3.7815,1.51577 0.97882,1.01052 1.46823,2.40658 1.46824,4.18818 -10e-6,1.44359 -0.21655,2.5791 -0.64962,3.40652 -0.43308,0.82743 -1.06333,1.47 -1.89075,1.92772 -0.82743,0.45773 -1.73056,0.68659 -2.70937,0.68659 -1.57036,0 -2.83966,-0.5035 -3.80792,-1.51049 -0.96826,-1.00699 -1.45239,-2.45762 -1.45239,-4.3519 z m 1.95413,0 c 0,1.43655 0.31336,2.5122 0.94009,3.22696 0.62673,0.71475 1.41542,1.07213 2.36609,1.07213 0.9436,0 1.72878,-0.35914 2.35552,-1.07742 0.62672,-0.71827 0.94008,-1.81328 0.94009,-3.28505 -1e-5,-1.38725 -0.31513,-2.43825 -0.94538,-3.15301 -0.63026,-0.71475 -1.41367,-1.07212 -2.35023,-1.07213 -0.95067,10e-6 -1.73936,0.35562 -2.36609,1.06684 -0.62673,0.71125 -0.94009,1.78514 -0.94009,3.22168 z"
       style=""
       id="path3062" />
    <path
       d="m -292.27918,300.23344 7.81653,0 0,9.65446 1.21473,0 0,4.74273 -1.56331,0 0,-3.17943 -8.83056,0 0,3.17943 -1.5633,0 0,-4.74273 1.00347,0 c 1.33796,-1.81681 1.97878,-5.03496 1.92244,-9.65446 z m 1.58444,1.57386 c -0.14085,3.64068 -0.7042,6.33421 -1.69006,8.0806 l 6.03139,0 0,-8.0806 z"
       style=""
       id="path3064" />
  </g>
  <g
     transform="scale(0.999975,1.000025)"
     style="font-size:21.63275337px;font-style:oblique;font-variant:normal;font-weight:bold;font-stretch:normal;text-align:start;line-height:125%;writing-mode:lr-tb;text-anchor:start;fill:#000000;fill-opacity:1;stroke:none;font-family:Luxi Sans"
     id="text3901">
    <path
       d="m 24.493044,167.92771 1.901316,0 0,4.66879 5.270871,0 0,-4.66879 1.901316,0 0,11.21777 -1.901316,0 0,-4.97511 -5.270871,0 0,4.97511 -1.901316,0 z"
       style=""
       id="path3067" />
    <path
       d="m 35.731935,173.53659 c 0,-2.07735 0.577436,-3.61601 1.732311,-4.61597 0.964738,-0.83093 2.140736,-1.24641 3.527998,-1.24642 1.542171,10e-6 2.802672,0.50527 3.781506,1.51577 0.978815,1.01053 1.468228,2.40659 1.468239,4.18818 -1.1e-5,1.4436 -0.21655,2.5791 -0.649616,3.40653 -0.433088,0.82742 -1.063339,1.47 -1.890754,1.92772 -0.827432,0.45772 -1.730557,0.68659 -2.709375,0.68659 -1.570351,0 -2.839654,-0.5035 -3.807914,-1.51049 -0.968264,-1.007 -1.452395,-2.45763 -1.452395,-4.35191 z m 1.954131,0 c -3e-6,1.43656 0.313362,2.51221 0.940095,3.22696 0.626726,0.71476 1.41542,1.07213 2.366083,1.07213 0.943609,0 1.728781,-0.35913 2.355519,-1.07741 0.626721,-0.71827 0.940086,-1.81329 0.940095,-3.28505 -9e-6,-1.38725 -0.315134,-2.43826 -0.945376,-3.15302 -0.630259,-0.71474 -1.413671,-1.07212 -2.350238,-1.07213 -0.950663,10e-6 -1.739357,0.35563 -2.366083,1.06685 -0.626733,0.71124 -0.940098,1.78513 -0.940095,3.22167 z"
       style=""
       id="path3069" />
    <path
       d="m 48.481317,183.44456 0,-15.51685 1.732311,0 0,1.45768 c 0.408427,-0.57039 0.869672,-0.99818 1.383735,-1.28339 0.514055,-0.28519 1.137264,-0.42779 1.869628,-0.4278 0.957693,10e-6 1.802721,0.24648 2.535088,0.7394 0.73235,0.49295 1.285139,1.18834 1.658371,2.08617 0.37321,0.89785 0.55982,1.88196 0.559832,2.95232 -1.2e-5,1.14784 -0.205987,2.18124 -0.617928,3.1002 -0.411962,0.91897 -1.010524,1.62316 -1.795688,2.11258 -0.785181,0.48941 -1.610844,0.73412 -2.476992,0.73412 -0.633778,0 -1.202412,-0.1338 -1.705903,-0.40139 -0.503501,-0.2676 -0.917213,-0.60561 -1.241137,-1.01404 l 0,5.461 z m 1.721748,-9.84459 c -3e-6,1.4436 0.292236,2.51045 0.876718,3.20055 0.584474,0.69011 1.292185,1.03516 2.123136,1.03516 0.845023,0 1.568579,-0.35737 2.17067,-1.07213 0.602074,-0.71475 0.903116,-1.82209 0.903125,-3.32202 -9e-6,-1.4295 -0.294009,-2.49987 -0.882,-3.21111 -0.588007,-0.71123 -1.290437,-1.06684 -2.107292,-1.06685 -0.809825,1e-5 -1.526339,0.37851 -2.149543,1.13551 -0.623213,0.75701 -0.934817,1.85731 -0.934814,3.30089 z"
       style=""
       id="path3071" />
    <path
       d="m 60.5758,167.92771 2.957603,0 2.94704,8.97844 3.274489,-8.97844 2.735783,0 0,11.21777 -1.901317,0 0,-9.03125 -3.31674,9.03125 -1.700622,0 -3.137172,-9.46433 0,9.46433 -1.859064,0 z"
       style=""
       id="path3073" />
    <path
       d="m 82.715569,177.76174 c -0.704199,0.59856 -1.381982,1.02108 -2.033352,1.26755 -0.651383,0.24646 -1.350292,0.3697 -2.096729,0.3697 -1.232338,0 -2.179474,-0.30105 -2.841411,-0.90313 -0.661941,-0.60208 -0.992911,-1.37141 -0.99291,-2.30799 -10e-7,-0.54926 0.124993,-1.051 0.374982,-1.5052 0.249986,-0.4542 0.577435,-0.81862 0.982347,-1.09326 0.404907,-0.27463 0.86087,-0.48237 1.367891,-0.62321 0.373217,-0.0986 0.93657,-0.19365 1.690059,-0.2852 1.53513,-0.18308 2.665356,-0.40138 3.39068,-0.6549 0.007,-0.26054 0.01055,-0.42602 0.01056,-0.49645 -8e-6,-0.7746 -0.179577,-1.32035 -0.538706,-1.63724 -0.485899,-0.42955 -1.207695,-0.64433 -2.165388,-0.64434 -0.894328,10e-6 -1.554506,0.15669 -1.980538,0.47005 -0.426039,0.31337 -0.741164,0.86792 -0.945376,1.66365 l -1.859065,-0.25351 c 0.169005,-0.79573 0.44716,-1.4383 0.834467,-1.92772 0.387302,-0.48941 0.947134,-0.86615 1.679496,-1.13023 0.732354,-0.26406 1.580904,-0.3961 2.545651,-0.39611 0.957693,10e-6 1.735823,0.11268 2.334393,0.33801 0.598554,0.22536 1.038673,0.50879 1.320359,0.85032 0.281666,0.34154 0.47884,0.77285 0.591521,1.29395 0.06337,0.32393 0.09506,0.90841 0.09507,1.75343 l 0,2.53509 c -1e-5,1.76752 0.04048,2.88543 0.121473,3.35371 0.08097,0.46829 0.241175,0.91721 0.480611,1.34677 l -1.985819,0 c -0.197183,-0.39435 -0.323937,-0.85559 -0.380264,-1.38374 z m -0.158443,-4.24627 c -0.690115,0.28168 -1.725275,0.52111 -3.105483,0.71827 -0.781657,0.11268 -1.334446,0.23943 -1.65837,0.38027 -0.323931,0.14084 -0.573919,0.34682 -0.749964,0.61792 -0.17605,0.27112 -0.264074,0.57216 -0.264071,0.90313 -3e-6,0.50702 0.191889,0.92953 0.575676,1.26754 0.38378,0.33802 0.945372,0.50702 1.684777,0.50702 0.732353,0 1.38373,-0.1602 1.954131,-0.48061 0.570387,-0.3204 0.989381,-0.75876 1.256981,-1.31508 0.204207,-0.42955 0.306315,-1.06332 0.306323,-1.90131 z"
       style=""
       id="path3075" />
    <path
       d="m 88.366702,167.92771 8.830558,0 0,11.21777 -1.890754,0 0,-9.6439 -5.038487,0 0,5.58776 c -5e-6,1.30275 -0.04226,2.16186 -0.126755,2.57734 -0.08451,0.41547 -0.31689,0.77813 -0.697149,1.08797 -0.380266,0.30985 -0.929535,0.46477 -1.647808,0.46477 -0.443641,0 -0.954179,-0.0282 -1.531615,-0.0845 l 0,-1.58443 0.834466,0 c 0.394346,1e-5 0.676022,-0.0405 0.84503,-0.12147 0.169003,-0.081 0.281674,-0.20949 0.338011,-0.38554 0.05633,-0.17605 0.0845,-0.74996 0.0845,-1.72175 z"
       style=""
       id="path3077" />
    <path
       d="m 107.39043,177.76174 c -0.7042,0.59856 -1.38198,1.02108 -2.03335,1.26755 -0.65138,0.24646 -1.35029,0.3697 -2.09673,0.3697 -1.23234,0 -2.17947,-0.30105 -2.84141,-0.90313 -0.661942,-0.60208 -0.992912,-1.37141 -0.992911,-2.30799 -10e-7,-0.54926 0.124993,-1.051 0.374982,-1.5052 0.249989,-0.4542 0.577439,-0.81862 0.982349,-1.09326 0.4049,-0.27463 0.86087,-0.48237 1.36789,-0.62321 0.37322,-0.0986 0.93657,-0.19365 1.69006,-0.2852 1.53513,-0.18308 2.66535,-0.40138 3.39068,-0.6549 0.007,-0.26054 0.0106,-0.42602 0.0106,-0.49645 -10e-6,-0.7746 -0.17958,-1.32035 -0.53871,-1.63724 -0.48589,-0.42955 -1.20769,-0.64433 -2.16538,-0.64434 -0.89433,10e-6 -1.55451,0.15669 -1.98054,0.47005 -0.42604,0.31337 -0.74117,0.86792 -0.94538,1.66365 l -1.859062,-0.25351 c 0.169004,-0.79573 0.447162,-1.4383 0.834462,-1.92772 0.38731,-0.48941 0.94714,-0.86615 1.6795,-1.13023 0.73235,-0.26406 1.5809,-0.3961 2.54565,-0.39611 0.95769,10e-6 1.73582,0.11268 2.3344,0.33801 0.59855,0.22536 1.03867,0.50879 1.32035,0.85032 0.28167,0.34154 0.47884,0.77285 0.59152,1.29395 0.0634,0.32393 0.0951,0.90841 0.0951,1.75343 l 0,2.53509 c -1e-5,1.76752 0.0405,2.88543 0.12147,3.35371 0.081,0.46829 0.24118,0.91721 0.48061,1.34677 l -1.98582,0 c -0.19718,-0.39435 -0.32393,-0.85559 -0.38026,-1.38374 z m -0.15844,-4.24627 c -0.69012,0.28168 -1.72528,0.52111 -3.10548,0.71827 -0.78166,0.11268 -1.33445,0.23943 -1.65838,0.38027 -0.32393,0.14084 -0.57391,0.34682 -0.74996,0.61792 -0.17605,0.27112 -0.26407,0.57216 -0.26407,0.90313 0,0.50702 0.19189,0.92953 0.57568,1.26754 0.38378,0.33802 0.94537,0.50702 1.68477,0.50702 0.73236,0 1.38373,-0.1602 1.95413,-0.48061 0.57039,-0.3204 0.98938,-0.75876 1.25699,-1.31508 0.2042,-0.42955 0.30631,-1.06332 0.30632,-1.90131 z"
       style=""
       id="path3079" />
  </g>
  <g
     transform="scale(0.999975,1.000025)"
     style="font-size:32.4491272px;font-style:normal;font-variant:normal;font-weight:bold;font-stretch:normal;text-align:start;line-height:100%;writing-mode:lr-tb;text-anchor:start;fill:#000000;fill-opacity:1;stroke:none;font-family:Luxi Sans"
     id="text3889">
    <path
       d="m 126.61397,118.89091 c 0,-8.88279 2.80077,-13.32419 8.40234,-13.32421 5.60155,2e-5 8.40233,4.44142 8.40235,13.32421 -2e-5,8.8711 -2.8008,13.30665 -8.40235,13.30665 -5.60157,0 -8.40234,-4.43555 -8.40234,-13.30665 z m 3.26953,-1.2832 10.26562,0 c -0.1172,-3.66795 -0.64454,-6.15818 -1.58203,-7.4707 -0.93751,-1.31248 -2.13282,-1.96873 -3.58593,-1.96875 -3.26954,2e-5 -4.96876,3.1465 -5.09766,9.43945 z m 10.26562,2.54883 -10.26562,0 c 0.1289,6.29297 1.83984,9.43946 5.13281,9.43945 3.30468,1e-5 5.01561,-3.14648 5.13281,-9.43945 z"
       style="font-size:36px;font-style:oblique;font-weight:normal;line-height:100%;font-family:Luxi Sans"
       id="path3082" />
  </g>
  <g
     transform="scale(0.999975,1.000025)"
     style="font-size:14.42183495px;font-style:oblique;font-variant:normal;font-weight:normal;font-stretch:normal;text-align:start;line-height:100%;writing-mode:lr-tb;text-anchor:start;fill:#000000;fill-opacity:1;stroke:none;font-family:Luxi Sans"
     id="text3915">
    <path
       d="m 156.81537,137.43941 -2.10938,0 0,-13.44141 c -0.50782,0.48439 -1.17383,0.96876 -1.99804,1.45313 -0.82423,0.48438 -1.56446,0.84766 -2.22071,1.08984 l 0,-2.03906 c 1.17969,-0.55468 2.21094,-1.22655 3.09375,-2.01563 0.88281,-0.78904 1.50781,-1.55467 1.875,-2.29687 l 1.35938,0 z"
       style="font-size:24px;font-style:normal;line-height:100%;font-family:Luxi Sans"
       id="path3085" />
  </g>
  <g
     transform="scale(0.999949,1.000051)"
     style="font-size:32.44997025px;font-style:normal;font-variant:normal;font-weight:bold;font-stretch:normal;text-align:start;line-height:100%;writing-mode:lr-tb;text-anchor:start;fill:#000000;fill-opacity:1;stroke:none;font-family:Luxi Sans"
     id="use3905">
    <path
       d="m 460.4819,205.5751 c 0,-8.88279 2.80078,-13.32419 8.40235,-13.32421 5.60154,2e-5 8.40232,4.44142 8.40234,13.32421 -2e-5,8.8711 -2.8008,13.30664 -8.40234,13.30664 -5.60157,0 -8.40235,-4.43554 -8.40235,-13.30664 z m 3.26953,-1.2832 10.26563,0 c -0.1172,-3.66795 -0.64455,-6.15818 -1.58203,-7.4707 -0.93751,-1.31248 -2.13283,-1.96873 -3.58594,-1.96875 -3.26954,2e-5 -4.96875,3.1465 -5.09766,9.43945 z m 10.26563,2.54883 -10.26563,0 c 0.12891,6.29297 1.83984,9.43945 5.13282,9.43945 3.30467,0 5.01561,-3.14648 5.13281,-9.43945 z"
       style="font-size:36px;font-weight:normal;line-height:100%;font-family:Luxi Sans"
       id="path3088" />
  </g>
  <g
     transform="scale(0.999974,1.000026)"
     style="font-size:14.42183971px;font-style:oblique;font-variant:normal;font-weight:normal;font-stretch:normal;text-align:start;line-height:100%;writing-mode:lr-tb;text-anchor:start;fill:#000000;fill-opacity:1;stroke:none;font-family:Luxi Sans"
     id="text3919">
    <path
       d="m 495.11038,222.11336 0,2.02734 -11.35547,0 c -0.0156,-0.50781 0.0664,-0.99609 0.2461,-1.46484 0.28906,-0.77344 0.75195,-1.53516 1.38867,-2.28516 0.63671,-0.74999 1.55664,-1.61718 2.75976,-2.60156 1.86719,-1.53124 3.1289,-2.74413 3.78516,-3.63867 0.65624,-0.89452 0.98437,-1.74023 0.98438,-2.53711 -10e-6,-0.83593 -0.29884,-1.541 -0.89649,-2.11524 -0.59766,-0.5742 -1.37696,-0.86131 -2.33789,-0.86132 -1.01563,1e-5 -1.82813,0.3047 -2.4375,0.91406 -0.60938,0.60939 -0.91797,1.45314 -0.92578,2.53125 l -2.16797,-0.22266 c 0.14844,-1.61717 0.70703,-2.84959 1.67578,-3.69726 0.96875,-0.84764 2.26953,-1.27147 3.90235,-1.27149 1.64842,2e-5 2.95311,0.45705 3.91406,1.3711 0.96092,0.91407 1.44139,2.04688 1.4414,3.39843 -1e-5,0.68751 -0.14063,1.36329 -0.42187,2.02735 -0.28126,0.66407 -0.74806,1.36329 -1.40039,2.09765 -0.65235,0.73439 -1.73634,1.7422 -3.25195,3.02344 -1.26563,1.0625 -2.07813,1.78321 -2.4375,2.16211 -0.35938,0.37891 -0.65626,0.75977 -0.89063,1.14258 z"
       style="font-size:24px;font-style:normal;line-height:100%;font-family:Luxi Sans"
       id="path3091" />
  </g>
  <g
     transform="scale(0.999974,1.000026)"
     style="font-size:14.42183971px;font-style:oblique;font-variant:normal;font-weight:normal;font-stretch:normal;text-align:start;line-height:100%;writing-mode:lr-tb;text-anchor:start;fill:#000000;fill-opacity:1;stroke:none;font-family:Luxi Sans"
     id="text3911">
    <path
       d="m 368.60141,60.184437 0,2.027344 -11.35547,0 c -0.0156,-0.507812 0.0664,-0.996093 0.24609,-1.464844 0.28907,-0.773435 0.75196,-1.535153 1.38868,-2.285156 0.63671,-0.749996 1.55663,-1.617183 2.75976,-2.601563 1.86718,-1.531242 3.1289,-2.744131 3.78516,-3.638672 0.65624,-0.89452 0.98436,-1.740222 0.98437,-2.537109 -1e-5,-0.835924 -0.29883,-1.541002 -0.89648,-2.115235 -0.59767,-0.574203 -1.37696,-0.861312 -2.33789,-0.861328 -1.01563,1.6e-5 -1.82813,0.304703 -2.4375,0.914063 -0.60938,0.609389 -0.91797,1.453138 -0.92578,2.53125 l -2.16797,-0.222656 c 0.14843,-1.617174 0.70703,-2.849595 1.67578,-3.697266 0.96875,-0.84764 2.26953,-1.271467 3.90234,-1.271484 1.64843,1.7e-5 2.95312,0.457048 3.91407,1.371093 0.96092,0.914078 1.44139,2.046889 1.4414,3.398438 -10e-6,0.687512 -0.14063,1.363292 -0.42187,2.027344 -0.28126,0.664072 -0.74806,1.36329 -1.40039,2.097656 -0.65236,0.734382 -1.73634,1.742194 -3.25196,3.023437 -1.26563,1.062505 -2.07813,1.783207 -2.4375,2.16211 -0.35938,0.378909 -0.65625,0.759768 -0.89062,1.142578 z"
       style="font-size:24px;font-style:normal;line-height:100%;font-family:Luxi Sans"
       id="path3094" />
  </g>
  <g
     transform="scale(0.999974,1.000026)"
     style="font-size:21.63275909px;font-style:oblique;font-variant:normal;font-weight:bold;font-stretch:normal;text-align:start;line-height:100%;writing-mode:lr-tb;text-anchor:start;fill:#000000;fill-opacity:1;stroke:none;font-family:Luxi Sans"
     id="text3923">
    <path
       d="m 335.87769,55.310345 0,-18.667969 2.84765,0 0,2.654297 c 1.37109,-2.050763 3.35156,-3.076153 5.94141,-3.076172 1.12499,1.9e-5 2.15916,0.202167 3.10254,0.606445 0.94334,0.404315 1.6494,0.934588 2.11816,1.590821 0.46873,0.656266 0.79686,1.435562 0.98438,2.33789 0.11717,0.585952 0.17576,1.611341 0.17578,3.076172 l 0,11.478516 -3.16407,0 0,-11.355469 c -10e-6,-1.28905 -0.12306,-2.252916 -0.36914,-2.891602 -0.2461,-0.638657 -0.68263,-1.148422 -1.30957,-1.529296 -0.62696,-0.380844 -1.36231,-0.571273 -2.20605,-0.57129 -1.34767,1.7e-5 -2.51075,0.427751 -3.48926,1.283204 -0.97852,0.855483 -1.46778,2.478528 -1.46777,4.86914 l 0,10.195313 z"
       style="font-size:36px;font-weight:normal;line-height:100%;font-family:Luxi Sans"
       id="path3097" />
  </g>
  <g
     transform="scale(0.999974,1.000026)"
     style="font-size:14.42183971px;font-style:oblique;font-variant:normal;font-weight:normal;font-stretch:normal;text-align:start;line-height:100%;writing-mode:lr-tb;text-anchor:start;fill:#000000;fill-opacity:1;stroke:none;font-family:Luxi Sans"
     id="text2897">
    <path
       d="m 270.75919,61.057346 -2.10938,0 0,-13.441406 c -0.50782,0.484388 -1.17383,0.968763 -1.99805,1.453125 -0.82422,0.484387 -1.56445,0.847667 -2.2207,1.089844 l 0,-2.039063 c 1.17968,-0.554674 2.21093,-1.226548 3.09375,-2.015625 0.88281,-0.789046 1.50781,-1.554671 1.875,-2.296875 l 1.35938,0 z"
       style="font-size:24px;font-style:normal;line-height:100%;font-family:Luxi Sans"
       id="path3100" />
  </g>
  <g
     transform="scale(0.999974,1.000026)"
     style="font-size:21.63275909px;font-style:oblique;font-variant:normal;font-weight:bold;font-stretch:normal;text-align:start;line-height:100%;writing-mode:lr-tb;text-anchor:start;fill:#000000;fill-opacity:1;stroke:none;font-family:Luxi Sans"
     id="text2901">
    <path
       d="m 241.1761,54.155903 0,-18.667969 2.84766,0 0,2.654297 c 1.37109,-2.050763 3.35155,-3.076153 5.9414,-3.076172 1.12499,1.9e-5 2.15917,0.202167 3.10254,0.606445 0.94335,0.404315 1.6494,0.934588 2.11817,1.590821 0.46873,0.656266 0.79686,1.435562 0.98437,2.33789 0.11717,0.585952 0.17577,1.611341 0.17578,3.076172 l 0,11.478516 -3.16406,0 0,-11.355469 c -1e-5,-1.28905 -0.12306,-2.252916 -0.36914,-2.891601 -0.24611,-0.638657 -0.68263,-1.148423 -1.30957,-1.529297 -0.62697,-0.380844 -1.36232,-0.571273 -2.20605,-0.571289 -1.34767,1.6e-5 -2.51075,0.42775 -3.48926,1.283203 -0.97852,0.855483 -1.46778,2.478528 -1.46778,4.86914 l 0,10.195313 z"
       style="font-size:36px;font-weight:normal;line-height:100%;font-family:Luxi Sans"
       id="path3103" />
  </g>
  <g
     transform="scale(0.999974,1.000026)"
     style="font-size:14.42183971px;font-style:oblique;font-variant:normal;font-weight:normal;font-stretch:normal;text-align:start;line-height:100%;writing-mode:lr-tb;text-anchor:start;fill:#000000;fill-opacity:1;stroke:none;font-family:Luxi Sans"
     id="text2905">
    <path
       d="m 369.44696,108.3783 0,2.02734 -11.35547,0 c -0.0156,-0.50781 0.0664,-0.99609 0.2461,-1.46484 0.28906,-0.77344 0.75195,-1.53516 1.38867,-2.28516 0.63671,-0.75 1.55663,-1.61718 2.75976,-2.60156 1.86718,-1.53124 3.1289,-2.74413 3.78516,-3.63867 0.65624,-0.894525 0.98436,-1.740227 0.98437,-2.537114 -1e-5,-0.835924 -0.29883,-1.541002 -0.89648,-2.115234 -0.59766,-0.574204 -1.37696,-0.861313 -2.33789,-0.861329 -1.01563,1.6e-5 -1.82813,0.304703 -2.4375,0.914063 -0.60938,0.609389 -0.91797,1.453138 -0.92578,2.53125 l -2.16797,-0.222656 c 0.14844,-1.617174 0.70703,-2.849595 1.67578,-3.697266 0.96875,-0.847639 2.26953,-1.271467 3.90234,-1.271484 1.64843,1.7e-5 2.95312,0.457048 3.91407,1.371093 0.96092,0.914078 1.44139,2.046889 1.4414,3.398438 -10e-6,0.687512 -0.14063,1.363292 -0.42187,2.027344 -0.28126,0.664075 -0.74806,1.363285 -1.40039,2.097655 -0.65236,0.73438 -1.73634,1.7422 -3.25196,3.02344 -1.26563,1.0625 -2.07813,1.78321 -2.4375,2.16211 -0.35937,0.37891 -0.65625,0.75977 -0.89062,1.14258 z"
       style="font-size:24px;font-style:normal;line-height:100%;font-family:Luxi Sans"
       id="path3106" />
  </g>
  <g
     transform="scale(0.999974,1.000026)"
     style="font-size:21.63275909px;font-style:oblique;font-variant:normal;font-weight:bold;font-stretch:normal;text-align:start;line-height:100%;writing-mode:lr-tb;text-anchor:start;fill:#000000;fill-opacity:1;stroke:none;font-family:Luxi Sans"
     id="text2909">
    <path
       d="m 341.90878,103.5042 -7.10156,-18.667965 3.33984,0 4.00782,11.179688 c 0.43358,1.207037 0.83202,2.460942 1.19531,3.761718 0.28124,-0.98437 0.67382,-2.167963 1.17773,-3.550781 l 4.14844,-11.390625 3.25195,0 -7.0664,18.667965 z"
       style="font-size:36px;font-weight:normal;line-height:100%;font-family:Luxi Sans"
       id="path3109" />
  </g>
  <g
     transform="scale(0.999974,1.000026)"
     style="font-size:14.42183971px;font-style:oblique;font-variant:normal;font-weight:normal;font-stretch:normal;text-align:start;line-height:100%;writing-mode:lr-tb;text-anchor:start;fill:#000000;fill-opacity:1;stroke:none;font-family:Luxi Sans"
     id="text2913">
    <path
       d="m 271.60474,109.25119 -2.10938,0 0,-13.441406 c -0.50782,0.484388 -1.17383,0.968762 -1.99805,1.453125 -0.82422,0.484386 -1.56445,0.847667 -2.2207,1.089844 l 0,-2.039063 c 1.17969,-0.554674 2.21093,-1.226548 3.09375,-2.015625 0.88281,-0.789047 1.50781,-1.554671 1.875,-2.296875 l 1.35938,0 z"
       style="font-size:24px;font-style:normal;line-height:100%;font-family:Luxi Sans"
       id="path3112" />
  </g>
  <g
     transform="scale(0.999974,1.000026)"
     style="font-size:21.63275909px;font-style:oblique;font-variant:normal;font-weight:bold;font-stretch:normal;text-align:start;line-height:100%;writing-mode:lr-tb;text-anchor:start;fill:#000000;fill-opacity:1;stroke:none;font-family:Luxi Sans"
     id="text2917">
    <path
       d="m 247.2072,102.34975 -7.10156,-18.667972 3.33984,0 4.00781,11.179687 c 0.43359,1.207038 0.83203,2.460943 1.19532,3.761719 0.28124,-0.98437 0.67381,-2.167963 1.17773,-3.550781 l 4.14844,-11.390625 3.25195,0 -7.06641,18.667972 z"
       style="font-size:36px;font-weight:normal;line-height:100%;font-family:Luxi Sans"
       id="path3115" />
  </g>
  <g
     transform="scale(0.999974,1.000026)"
     style="font-size:21.63275909px;font-style:oblique;font-variant:normal;font-weight:bold;font-stretch:normal;text-align:start;line-height:100%;writing-mode:lr-tb;text-anchor:start;fill:#000000;fill-opacity:1;stroke:none;font-family:Luxi Sans"
     id="text2925">
    <path
       d="m 395.89709,36.642376 14.73047,0 0,18.667969 -3.16406,0 0,-16.048828 -8.40234,0 0,16.048828 -3.16407,0 z"
       style="font-size:36px;font-style:normal;font-weight:normal;font-family:Luxi Sans"
       id="path3118" />
    <path
       d="m 414.17834,45.97636 c 0,-3.457018 0.96094,-6.017562 2.88282,-7.68164 1.60546,-1.382794 3.56249,-2.0742 5.87109,-2.074219 2.56639,1.9e-5 4.66405,0.840839 6.29297,2.522461 1.62889,1.681655 2.44334,4.004895 2.44336,6.969726 -2e-5,2.402351 -0.36037,4.291998 -1.08106,5.668946 -0.72072,1.376955 -1.76954,2.44629 -3.14648,3.208008 -1.37697,0.761718 -2.87989,1.142577 -4.50879,1.142578 -2.61329,-10e-7 -4.72559,-0.837891 -6.33691,-2.513672 -1.61133,-1.675778 -2.417,-4.089838 -2.417,-7.242188 z m 3.25196,0 c -10e-6,2.390632 0.52148,4.18067 1.56445,5.370118 1.04296,1.189455 2.35546,1.784181 3.9375,1.784179 1.5703,2e-6 2.87694,-0.597653 3.91992,-1.792969 1.04296,-1.195307 1.56444,-3.017571 1.56446,-5.466796 -2e-5,-2.308582 -0.52443,-4.057604 -1.57325,-5.247071 -1.04884,-1.189437 -2.35255,-1.784163 -3.91113,-1.784179 -1.58204,1.6e-5 -2.89454,0.591812 -3.9375,1.77539 -1.04297,1.183607 -1.56446,2.970715 -1.56445,5.361328 z"
       style="font-size:36px;font-style:normal;font-weight:normal;font-family:Luxi Sans"
       id="path3120" />
    <path
       d="m 435.37756,36.642376 3.16407,0 0,8.068359 c 1.0078,1.1e-5 1.71386,-0.193348 2.11816,-0.580078 0.40429,-0.386707 0.99901,-1.511706 1.78418,-3.375 0.62108,-1.476546 1.12499,-2.449202 1.51172,-2.917969 0.38671,-0.468732 0.83202,-0.785138 1.33594,-0.949218 0.50389,-0.164044 1.31248,-0.246075 2.42578,-0.246094 l 0.63281,0 0,2.619141 -0.87891,-0.01758 c -0.83204,1.7e-5 -1.36524,0.123063 -1.59961,0.369141 -0.2461,0.257828 -0.6211,1.025405 -1.125,2.302734 -0.48048,1.218763 -0.91993,2.062512 -1.31836,2.53125 -0.39844,0.468761 -1.01368,0.896495 -1.8457,1.283204 1.35937,0.36329 2.6953,1.628914 4.00781,3.796875 l 3.46289,5.783203 -3.48046,0 -3.375,-5.783203 c -0.69142,-1.16015 -1.29493,-1.924797 -1.81055,-2.293946 -0.51563,-0.369132 -1.13087,-0.553702 -1.8457,-0.553711 l 0,8.63086 -3.16407,0 z"
       style="font-size:36px;font-style:normal;font-weight:normal;font-family:Luxi Sans"
       id="path3122" />
    <path
       d="m 463.32678,53.00761 c -1.17189,0.996095 -2.29981,1.69922 -3.38379,2.109375 -1.08399,0.410156 -2.24708,0.615234 -3.48925,0.615235 -2.05079,-10e-7 -3.62696,-0.500977 -4.72852,-1.50293 -1.10156,-1.001951 -1.65235,-2.282223 -1.65234,-3.84082 -10e-6,-0.914057 0.208,-1.749017 0.62402,-2.504883 0.41601,-0.755851 0.96093,-1.362296 1.63477,-1.819336 0.67382,-0.457022 1.43261,-0.802724 2.27636,-1.037109 0.62109,-0.164052 1.55859,-0.322255 2.8125,-0.47461 2.55468,-0.304676 4.43554,-0.667957 5.64258,-1.089844 0.0117,-0.433581 0.0176,-0.708971 0.0176,-0.826171 -2e-5,-1.289049 -0.29884,-2.197251 -0.89649,-2.72461 -0.8086,-0.714827 -2.00977,-1.072249 -3.60351,-1.072265 -1.48829,1.6e-5 -2.58692,0.260758 -3.2959,0.782226 -0.70899,0.5215 -1.2334,1.44435 -1.57324,2.768555 l -3.09375,-0.421875 c 0.28125,-1.324204 0.74414,-2.393539 1.38867,-3.208008 0.64453,-0.814436 1.57617,-1.441388 2.79492,-1.880859 1.21874,-0.439435 2.63085,-0.659161 4.23633,-0.65918 1.59374,1.9e-5 2.88866,0.187519 3.88477,0.5625 0.99607,0.375018 1.7285,0.846697 2.19726,1.415039 0.46873,0.568376 0.79686,1.286149 0.98438,2.15332 0.10545,0.539077 0.15818,1.511733 0.1582,2.917969 l 0,4.21875 c -2e-5,2.941411 0.0674,4.801761 0.20215,5.581055 0.13475,0.779298 0.40135,1.526368 0.7998,2.241211 l -3.30469,0 c -0.32814,-0.65625 -0.53907,-1.423827 -0.63281,-2.302735 z m -0.26367,-7.066406 c -1.14845,0.468759 -2.8711,0.867196 -5.16797,1.195313 -1.30079,0.187508 -2.22071,0.398445 -2.75976,0.632812 -0.53907,0.234382 -0.95509,0.577155 -1.24805,1.02832 -0.29297,0.451178 -0.43946,0.952154 -0.43945,1.50293 -10e-6,0.843754 0.31933,1.546879 0.958,2.109375 0.63867,0.562502 1.57324,0.843752 2.80371,0.84375 1.21875,2e-6 2.30273,-0.266599 3.25196,-0.799805 0.9492,-0.533199 1.64647,-1.262691 2.09179,-2.188476 0.33983,-0.714838 0.50976,-1.769525 0.50977,-3.164063 z"
       style="font-size:36px;font-style:normal;font-weight:normal;font-family:Luxi Sans"
       id="path3124" />
    <path
       d="m 475.31506,46.872845 0,-2.478516 c 1.33593,-0.01171 2.24707,-0.06444 2.7334,-0.158203 0.48632,-0.09374 0.94628,-0.374989 1.37988,-0.84375 0.43359,-0.468738 0.65038,-1.054675 0.6504,-1.757813 -2e-5,-0.855454 -0.2842,-1.53807 -0.85254,-2.047851 -0.56837,-0.50975 -1.30372,-0.764632 -2.20606,-0.764649 -1.78125,1.7e-5 -3.0293,1.048844 -3.74414,3.146485 l -3.00586,-0.492188 c 0.9375,-3.503889 3.19922,-5.25584 6.78516,-5.255859 1.99218,1.9e-5 3.5537,0.54494 4.68457,1.634766 1.13084,1.08986 1.69627,2.39064 1.69629,3.902343 -2e-5,1.52345 -0.7383,2.736339 -2.21485,3.638672 0.93749,0.503916 1.64061,1.145517 2.10938,1.924805 0.46873,0.779304 0.70311,1.702155 0.70312,2.768555 -1e-5,1.675784 -0.60939,3.035158 -1.82812,4.078125 -1.21876,1.042968 -2.92384,1.564452 -5.11524,1.564453 -4.25391,-10e-7 -6.7207,-1.892577 -7.40039,-5.677735 l 2.97071,-0.632812 c 0.26952,1.195317 0.81737,2.121097 1.64355,2.777344 0.82617,0.656252 1.77245,0.984377 2.83887,0.984375 1.0664,2e-6 1.95409,-0.301756 2.66308,-0.905274 0.70898,-0.603512 1.06347,-1.374019 1.06348,-2.311523 -1e-5,-0.726557 -0.22267,-1.359369 -0.66797,-1.898438 -0.44532,-0.539055 -0.91993,-0.875968 -1.42383,-1.010742 -0.50391,-0.134757 -1.41797,-0.20214 -2.74218,-0.202148 -0.10548,8e-6 -0.34571,0.0059 -0.72071,0.01758 z"
       style="font-size:36px;font-style:normal;font-weight:normal;font-family:Luxi Sans"
       id="path3126" />
    <path
       d="m 499.88928,53.00761 c -1.17189,0.996095 -2.29981,1.69922 -3.38379,2.109375 -1.08399,0.410156 -2.24708,0.615234 -3.48925,0.615235 -2.05079,-10e-7 -3.62696,-0.500977 -4.72852,-1.50293 -1.10156,-1.001951 -1.65235,-2.282223 -1.65234,-3.84082 -10e-6,-0.914057 0.208,-1.749017 0.62402,-2.504883 0.41601,-0.755851 0.96093,-1.362296 1.63477,-1.819336 0.67382,-0.457022 1.43261,-0.802724 2.27636,-1.037109 0.62109,-0.164052 1.55859,-0.322255 2.8125,-0.47461 2.55468,-0.304676 4.43554,-0.667957 5.64258,-1.089844 0.0117,-0.433581 0.0176,-0.708971 0.0176,-0.826171 -2e-5,-1.289049 -0.29884,-2.197251 -0.89649,-2.72461 -0.8086,-0.714827 -2.00977,-1.072249 -3.60351,-1.072265 -1.48829,1.6e-5 -2.58692,0.260758 -3.2959,0.782226 -0.70899,0.5215 -1.2334,1.44435 -1.57324,2.768555 l -3.09375,-0.421875 c 0.28125,-1.324204 0.74414,-2.393539 1.38867,-3.208008 0.64453,-0.814436 1.57617,-1.441388 2.79492,-1.880859 1.21874,-0.439435 2.63085,-0.659161 4.23633,-0.65918 1.59374,1.9e-5 2.88866,0.187519 3.88477,0.5625 0.99607,0.375018 1.7285,0.846697 2.19726,1.415039 0.46873,0.568376 0.79686,1.286149 0.98438,2.15332 0.10545,0.539077 0.15818,1.511733 0.1582,2.917969 l 0,4.21875 c -2e-5,2.941411 0.0674,4.801761 0.20215,5.581055 0.13475,0.779298 0.40135,1.526368 0.7998,2.241211 l -3.30469,0 c -0.32814,-0.65625 -0.53907,-1.423827 -0.63281,-2.302735 z m -0.26367,-7.066406 c -1.14845,0.468759 -2.8711,0.867196 -5.16797,1.195313 -1.30079,0.187508 -2.22071,0.398445 -2.75976,0.632812 -0.53907,0.234382 -0.95509,0.577155 -1.24805,1.02832 -0.29297,0.451178 -0.43946,0.952154 -0.43945,1.50293 -10e-6,0.843754 0.31933,1.546879 0.958,2.109375 0.63867,0.562502 1.57324,0.843752 2.80371,0.84375 1.21875,2e-6 2.30273,-0.266599 3.25196,-0.799805 0.9492,-0.533199 1.64647,-1.262691 2.09179,-2.188476 0.33983,-0.714838 0.50976,-1.769525 0.50977,-3.164063 z"
       style="font-size:36px;font-style:normal;font-weight:normal;font-family:Luxi Sans"
       id="path3128" />
    <path
       d="m 506.04163,36.642376 15.16992,0 0,2.619141 -6.01172,0 0,16.048828 -3.14649,0 0,-16.048828 -6.01171,0 z"
       style="font-size:36px;font-style:normal;font-weight:normal;font-family:Luxi Sans"
       id="path3130" />
    <path
       d="m 537.04944,49.298626 3.26953,0.404297 c -0.51564,1.91016 -1.47072,3.39258 -2.86523,4.447265 -1.39455,1.054688 -3.1758,1.582031 -5.34375,1.582032 -2.73048,-10e-7 -4.89552,-0.84082 -6.49512,-2.522461 -1.59961,-1.681637 -2.39942,-4.040033 -2.39942,-7.075196 0,-3.140612 0.8086,-5.57811 2.42579,-7.3125 1.61718,-1.734356 3.71483,-2.601543 6.29296,-2.601562 2.49609,1.9e-5 4.53515,0.849628 6.11719,2.548828 1.58202,1.699234 2.37303,4.089856 2.37305,7.171875 -2e-5,0.187509 -0.006,0.468759 -0.0176,0.84375 l -13.92187,0 c 0.11718,2.050788 0.69726,3.621099 1.74023,4.710938 1.04296,1.089846 2.34374,1.634767 3.90234,1.634765 1.16015,2e-6 2.15038,-0.304685 2.97071,-0.914062 0.8203,-0.609372 1.47069,-1.582027 1.95117,-2.917969 z m -10.38867,-5.115234 10.42382,0 c -0.14064,-1.5703 -0.53907,-2.748033 -1.19531,-3.533204 -1.00782,-1.218734 -2.31446,-1.828108 -3.91992,-1.828125 -1.45313,1.7e-5 -2.67481,0.486345 -3.66504,1.458985 -0.99024,0.97267 -1.53809,2.27345 -1.64355,3.902344 z"
       style="font-size:36px;font-style:normal;font-weight:normal;font-family:Luxi Sans"
       id="path3132" />
    <path
       d="m 545.85608,36.642376 14.69531,0 0,18.667969 -3.14648,0 0,-16.048828 -8.38477,0 0,9.298828 c -10e-6,2.167973 -0.0703,3.597659 -0.21094,4.289062 -0.14063,0.691408 -0.52735,1.294923 -1.16015,1.810547 -0.63282,0.515625 -1.54688,0.773437 -2.74219,0.773438 -0.73828,-10e-7 -1.58789,-0.04688 -2.54883,-0.140625 l 0,-2.636719 1.38867,0 c 0.65625,2e-6 1.125,-0.06738 1.40625,-0.202149 0.28125,-0.134762 0.46875,-0.348629 0.5625,-0.641601 0.0937,-0.292965 0.14063,-1.248042 0.14063,-2.865235 z"
       style="font-size:36px;font-style:normal;font-weight:normal;font-family:Luxi Sans"
       id="path3134" />
  </g>
  <g
     transform="scale(0.999974,1.000026)"
     style="font-size:21.63275909px;font-style:oblique;font-variant:normal;font-weight:bold;font-stretch:normal;text-align:start;line-height:100%;writing-mode:lr-tb;text-anchor:start;fill:#000000;fill-opacity:1;stroke:none;font-family:Luxi Sans"
     id="text2933">
    <path
       d="m 410.40085,77.119438 2.79492,0.03516 c -0.12892,1.253932 -0.40724,2.126978 -0.83496,2.619141 -0.42775,0.492211 -0.97853,0.808617 -1.65234,0.949219 -0.67385,0.140647 -1.99514,0.21096 -3.96387,0.210937 -2.61329,2.3e-5 -4.39454,0.251976 -5.34375,0.75586 -0.94923,0.503927 -1.63184,1.30959 -2.04785,2.416992 -0.41602,1.10744 -0.64747,2.534196 -0.69434,4.280273 0.79687,-1.183577 1.72851,-2.071272 2.79492,-2.663086 1.0664,-0.591778 2.26757,-0.887676 3.60352,-0.887695 2.4492,1.9e-5 4.47655,0.840838 6.08203,2.522461 1.60545,1.681655 2.40818,3.95802 2.4082,6.829102 -2e-5,2.179694 -0.40431,3.966802 -1.21289,5.361328 -0.80861,1.394534 -1.76662,2.472654 -2.87402,3.234374 -1.10744,0.76172 -2.61622,1.14258 -4.52637,1.14258 -2.21485,0 -3.93751,-0.50684 -5.16797,-1.52051 -1.23047,-1.01367 -2.17383,-2.31152 -2.83008,-3.893554 -0.65625,-1.582024 -0.98437,-4.335928 -0.98437,-8.261718 0,-4.933576 0.83496,-8.255838 2.50488,-9.966797 1.66992,-1.710913 4.23925,-2.566381 7.70801,-2.566407 2.15624,2.6e-5 3.38084,-0.03513 3.67383,-0.105468 0.29295,-0.07029 0.48045,-0.234349 0.5625,-0.492188 z m -0.1582,16.980469 c -2e-5,-1.945301 -0.45998,-3.53905 -1.37989,-4.78125 -0.91993,-1.242172 -2.21778,-1.863265 -3.89355,-1.863281 -1.7461,1.6e-5 -3.09376,0.656265 -4.04297,1.96875 -0.94923,1.312512 -1.42383,3.064464 -1.42383,5.255859 0,2.167975 0.52441,3.826177 1.57324,4.974609 1.04882,1.148436 2.34081,1.722656 3.87598,1.722656 1.5703,0 2.84471,-0.66504 3.82324,-1.995117 0.9785,-1.330072 1.46776,-3.090813 1.46778,-5.282226 z"
       style="font-size:36px;font-style:normal;font-weight:normal;font-family:Luxi Sans"
       id="path3137" />
    <path
       d="m 417.32663,110.6585 0,-25.822265 2.88281,0 0,2.425781 c 0.67968,-0.949201 1.44726,-1.661115 2.30274,-2.135742 0.85546,-0.47459 1.89257,-0.711895 3.11132,-0.711914 1.59374,1.9e-5 2.99999,0.410175 4.21875,1.230469 1.21874,0.820329 2.13866,1.977555 2.75977,3.471679 0.62108,1.494154 0.93162,3.131848 0.93164,4.913086 -2e-5,1.910164 -0.34279,3.629889 -1.02832,5.15918 -0.68556,1.529296 -1.68166,2.701176 -2.98828,3.515626 -1.30665,0.81445 -2.68068,1.22168 -4.12207,1.22168 -1.0547,0 -2.00099,-0.22266 -2.83887,-0.66797 -0.8379,-0.44531 -1.52637,-1.00781 -2.06543,-1.6875 l 0,9.08789 z m 2.86523,-16.382812 c 0,2.402351 0.48633,4.17774 1.45899,5.326172 0.97265,1.14844 2.15038,1.72266 3.5332,1.72266 1.40624,0 2.61034,-0.59473 3.61231,-1.784183 1.00193,-1.189448 1.50291,-3.03222 1.50293,-5.528321 -2e-5,-2.378894 -0.48928,-4.160142 -1.46778,-5.34375 -0.97853,-1.183577 -2.14747,-1.775374 -3.50683,-1.77539 -1.34767,1.6e-5 -2.54005,0.629898 -3.57715,1.889648 -1.03712,1.259779 -1.55567,3.090832 -1.55567,5.493164 z"
       style="font-size:36px;font-style:normal;font-weight:normal;font-family:Luxi Sans"
       id="path3139" />
    <path
       d="m 441.49655,95.066704 0,-2.478516 c 1.33593,-0.01171 2.24706,-0.06444 2.7334,-0.158203 0.48632,-0.09374 0.94628,-0.374989 1.37988,-0.84375 0.43359,-0.468738 0.65038,-1.054674 0.65039,-1.757812 -1e-5,-0.855455 -0.28419,-1.538071 -0.85254,-2.047852 -0.56836,-0.509749 -1.30372,-0.764632 -2.20605,-0.764648 -1.78126,1.6e-5 -3.0293,1.048843 -3.74414,3.146484 l -3.00586,-0.492188 c 0.9375,-3.503888 3.19921,-5.25584 6.78516,-5.255859 1.99217,1.9e-5 3.5537,0.54494 4.68457,1.634766 1.13084,1.08986 1.69627,2.39064 1.69629,3.902343 -2e-5,1.52345 -0.7383,2.736339 -2.21485,3.638672 0.93749,0.503916 1.64061,1.145517 2.10938,1.924805 0.46873,0.779304 0.70311,1.702155 0.70312,2.768555 -1e-5,1.675784 -0.60939,3.035159 -1.82812,4.078129 -1.21877,1.04296 -2.92384,1.56445 -5.11524,1.56445 -4.25391,0 -6.7207,-1.89258 -7.40039,-5.677736 l 2.9707,-0.632812 c 0.26953,1.195317 0.81738,2.121097 1.64356,2.777348 0.82616,0.65625 1.77245,0.98437 2.83887,0.98437 1.06639,0 1.95409,-0.30175 2.66308,-0.90527 0.70898,-0.603515 1.06347,-1.374022 1.06348,-2.311526 -1e-5,-0.726557 -0.22267,-1.359369 -0.66797,-1.898438 -0.44532,-0.539054 -0.91993,-0.875968 -1.42383,-1.010742 -0.50391,-0.134757 -1.41798,-0.20214 -2.74219,-0.202148 -0.10547,8e-6 -0.34571,0.0059 -0.7207,0.01758 z"
       style="font-size:36px;font-style:normal;font-weight:normal;font-family:Luxi Sans"
       id="path3141" />
    <path
       d="m 453.88913,84.836235 3.16406,0 0,14.238281 8.77149,-14.238281 3.41015,0 0,18.667965 -3.16406,0 0,-14.150387 -8.77148,14.150387 -3.41016,0 z"
       style="font-size:36px;font-style:normal;font-weight:normal;font-family:Luxi Sans"
       id="path3143" />
    <path
       d="m 474.01608,84.836235 3.16407,0 0,7.769531 8.77148,0 0,-7.769531 3.16406,0 0,18.667965 -3.16406,0 0,-8.279293 -8.77148,0 0,8.279293 -3.16407,0 z"
       style="font-size:36px;font-style:normal;font-weight:normal;font-family:Luxi Sans"
       id="path3145" />
    <path
       d="m 506.07858,101.20147 c -1.17189,0.99609 -2.29981,1.69922 -3.38379,2.10937 -1.08399,0.41016 -2.24708,0.61524 -3.48925,0.61524 -2.05079,0 -3.62696,-0.50098 -4.72852,-1.50293 -1.10156,-1.00195 -1.65234,-2.28222 -1.65234,-3.840821 0,-0.914057 0.208,-1.749017 0.62402,-2.504883 0.41601,-0.755851 0.96093,-1.362296 1.63477,-1.819336 0.67382,-0.457022 1.43261,-0.802724 2.27636,-1.037109 0.62109,-0.164052 1.55859,-0.322255 2.8125,-0.47461 2.55468,-0.304676 4.43554,-0.667957 5.64258,-1.089843 0.0117,-0.433582 0.0176,-0.708972 0.0176,-0.826172 -2e-5,-1.289049 -0.29884,-2.197251 -0.89649,-2.72461 -0.8086,-0.714827 -2.00977,-1.072249 -3.60351,-1.072265 -1.48829,1.6e-5 -2.58692,0.260758 -3.2959,0.782226 -0.70899,0.5215 -1.2334,1.44435 -1.57324,2.768555 l -3.09375,-0.421875 c 0.28125,-1.324204 0.74414,-2.393539 1.38867,-3.208008 0.64453,-0.814436 1.57617,-1.441388 2.79492,-1.880859 1.21874,-0.439435 2.63085,-0.659161 4.23633,-0.65918 1.59374,1.9e-5 2.88866,0.187519 3.88477,0.5625 0.99607,0.375018 1.7285,0.846697 2.19726,1.415039 0.46873,0.568376 0.79686,1.286149 0.98438,2.15332 0.10545,0.539077 0.15818,1.511733 0.1582,2.917969 l 0,4.21875 c -2e-5,2.941411 0.0674,4.801762 0.20215,5.581052 0.13475,0.7793 0.40135,1.52637 0.7998,2.24121 l -3.30468,0 c -0.32814,-0.65625 -0.53908,-1.42382 -0.63282,-2.30273 z m -0.26367,-7.066407 c -1.14845,0.468759 -2.8711,0.867196 -5.16797,1.195313 -1.30079,0.187508 -2.22071,0.398445 -2.75976,0.632812 -0.53907,0.234382 -0.95509,0.577156 -1.24805,1.02832 -0.29297,0.451178 -0.43946,0.952154 -0.43945,1.50293 -10e-6,0.843754 0.31933,1.546882 0.958,2.109372 0.63867,0.56251 1.57324,0.84376 2.80372,0.84375 1.21874,1e-5 2.30272,-0.2666 3.25195,-0.7998 0.9492,-0.5332 1.64647,-1.262693 2.0918,-2.188478 0.33982,-0.714838 0.50975,-1.769525 0.50976,-3.164063 z"
       style="font-size:36px;font-style:normal;font-weight:normal;font-family:Luxi Sans"
       id="path3147" />
  </g>
</svg>
