<?xml version="1.0" encoding="UTF-8" standalone="no"?>
<!-- Created with Inkscape (http://www.inkscape.org/) -->

<svg
   xmlns:dc="http://purl.org/dc/elements/1.1/"
   xmlns:cc="http://creativecommons.org/ns#"
   xmlns:rdf="http://www.w3.org/1999/02/22-rdf-syntax-ns#"
   xmlns:svg="http://www.w3.org/2000/svg"
   xmlns="http://www.w3.org/2000/svg"
   xmlns:sodipodi="http://sodipodi.sourceforge.net/DTD/sodipodi-0.dtd"
   xmlns:inkscape="http://www.inkscape.org/namespaces/inkscape"
   version="1.1"
   width="1300.36"
   height="231"
   viewBox="485.323 180.628 1300.3599 231"
   id="Stalexport-Autostrada-Małopolska-Logo"
   xml:space="preserve"
   inkscape:version="0.48.0 r9654"
   sodipodi:docname="Stalexport-Autostrada-Małopolska-Logo.svg"><sodipodi:namedview
   pagecolor="#ffffff"
   bordercolor="#666666"
   borderopacity="1"
   objecttolerance="10"
   gridtolerance="10"
   guidetolerance="10"
   inkscape:pageopacity="0"
   inkscape:pageshadow="2"
   inkscape:window-width="1366"
   inkscape:window-height="716"
   id="namedview45"
   showgrid="false"
   inkscape:zoom="0.60409715"
   inkscape:cx="695.02335"
   inkscape:cy="240.8553"
   inkscape:window-x="-8"
   inkscape:window-y="-8"
   inkscape:window-maximized="1"
   inkscape:current-layer="Stalexport-Autostrada-Małopolska-Logo"
   width="1052.36px"
   fit-margin-top="1.9"
   height="101.09px" /><metadata
   id="metadata85"><rdf:RDF><cc:Work
       rdf:about=""><dc:format>image/svg+xml</dc:format><dc:type
         rdf:resource="http://purl.org/dc/dcmitype/StillImage" /><dc:title /></cc:Work></rdf:RDF></metadata><defs
   id="defs83" />
<linearGradient
   x1="68.270302"
   y1="-57.765099"
   x2="68.270203"
   y2="261.49219"
   id="polygon60_1_"
   gradientUnits="userSpaceOnUse"
   gradientTransform="translate(253.2178,50.4561)">
	<stop
   id="stop4"
   style="stop-color:#dcdcdc;stop-opacity:1"
   offset="0" />
	<stop
   id="stop6"
   style="stop-color:#07366c;stop-opacity:1"
   offset="1" />
</linearGradient>
<polygon
   points="514.009,311.948 514.009,-7.309 413.484,201.887 384.082,201.887 514.009,-7.309 128.967,311.948 315.724,311.948 357.718,244.334 393.089,244.334 360.598,311.948 "
   transform="matrix(0.71612426,0,0,0.71612426,393.47007,188.2381)"
   id="polygon60"
   style="fill:url(#polygon60_1_)" />
<g
   transform="matrix(1.7797474,0,0,1.7797474,702.25307,-420.30818)"
   id="g9">
	<g
   id="g11">
		<path
   d="m 41.012,370.73 h 10.029 v 11.537 c 0,1.146 0.695,1.719 2.087,1.719 1.343,0 2.016,-0.572 2.016,-1.719 v -5.961 c 0,-1.823 -1.216,-3.963 -3.647,-6.418 -4.699,-4.559 -7.622,-7.621 -8.767,-9.188 -1.146,-1.565 -1.718,-3.284 -1.718,-5.154 V 349.9 c 0,-6.522 4.261,-9.783 12.783,-9.783 7.632,0 11.448,2.969 11.448,8.907 v 8.696 H 55.215 v -9.258 c 0,-1.005 -0.561,-1.508 -1.681,-1.508 -1.311,0 -1.966,0.971 -1.966,2.91 l 0.211,3.262 c 0,1.871 1.242,4.045 3.726,6.522 4.617,4.419 7.552,7.505 8.806,9.258 1.253,1.753 1.88,3.741 1.88,5.962 v 6.417 c 0,6.687 -4.273,10.029 -12.818,10.029 -8.241,0 -12.36,-3.039 -12.36,-9.117 V 370.73 z"
   id="path13"
   style="fill:#adadad"
   inkscape:connector-curvature="0" />
		<path
   d="m 91.579,347.13 h -6.172 v 43.729 H 74.361 V 347.13 h -6.172 v -6.558 h 23.39 v 6.558 z"
   id="path15"
   style="fill:#adadad"
   inkscape:connector-curvature="0" />
		<path
   d="M 123.526,390.859 H 112.58 l -1.864,-13.501 h -4.902 l -1.887,13.501 H 92.982 l 8.261,-50.286 h 14.006 l 8.277,50.286 z m -13.701,-20.48 -1.589,-15.009 -1.504,15.009 h 3.093 z"
   id="path17"
   style="fill:#adadad"
   inkscape:connector-curvature="0" />
		<path
   d="m 146.109,390.859 h -20.725 v -50.286 h 11.046 v 43.834 h 9.678 v 6.452 z"
   id="path19"
   style="fill:#adadad"
   inkscape:connector-curvature="0" />
		<path
   d="m 169.428,390.859 h -21.601 v -50.286 h 21.461 v 6.452 h -10.415 v 13.606 h 9.398 v 6.102 h -9.398 v 17.674 h 10.555 v 6.452 z"
   id="path21"
   style="fill:#adadad"
   inkscape:connector-curvature="0" />
		<path
   d="m 202.497,390.859 h -11.853 l -5.05,-16.166 -4.734,16.166 h -10.555 l 8.696,-28.58 -6.452,-21.706 h 10.625 l 3.927,14.588 4.383,-14.588 h 9.924 l -7.54,23.284 8.629,27.002 z"
   id="path23"
   style="fill:#adadad"
   inkscape:connector-curvature="0" />
		<path
   d="m 214.701,372.343 v 18.516 h -10.766 v -50.286 h 11.607 c 4.605,0 8.024,0.584 10.257,1.753 2.232,1.169 3.349,3.554 3.349,7.154 v 13.956 c 0,3.297 -0.912,5.629 -2.735,6.996 -1.823,1.368 -5.728,2.005 -11.712,1.911 z m 3.682,-9.853 v -12.063 c 0,-1.776 -1.228,-2.665 -3.682,-2.665 v 17.394 c 2.455,-0.001 3.682,-0.89 3.682,-2.666 z"
   id="path25"
   style="fill:#adadad"
   inkscape:connector-curvature="0" />
		<path
   d="M 231.042,382.267 V 349.9 c 0,-6.522 4.226,-9.783 12.677,-9.783 8.334,0 12.501,3.238 12.501,9.714 v 32.367 c 0,2.922 -1.162,5.172 -3.484,6.75 -2.323,1.578 -5.353,2.367 -9.087,2.367 -8.405,0 -12.607,-3.016 -12.607,-9.048 z m 14.412,0.526 v -34.261 c 0,-1.005 -0.596,-1.508 -1.788,-1.508 -1.24,0 -1.859,0.503 -1.859,1.508 v 34.261 c 0,1.006 0.619,1.508 1.859,1.508 1.192,0 1.788,-0.502 1.788,-1.508 z"
   id="path27"
   style="fill:#adadad"
   inkscape:connector-curvature="0" />
		<path
   d="m 285.852,390.929 h -11.046 c -1.192,-1.426 -1.788,-5.471 -1.788,-12.134 v -0.069 l 0.07,-3.017 c 0.07,-4.185 0.105,-6.323 0.105,-6.417 0,-1.706 -1.146,-2.56 -3.437,-2.56 v 24.126 H 258.71 v -50.286 h 13.641 c 3.109,0 5.815,0.713 8.118,2.139 2.302,1.427 3.454,3.683 3.454,6.769 v 6.031 c 0,3.904 -2.279,6.546 -6.838,7.925 4.582,1.076 6.874,3.846 6.874,8.312 l -0.175,5.505 c -10e-4,8.042 0.688,12.601 2.068,13.676 z m -12.694,-32.971 v -8.297 c 0,-1.758 -1.134,-2.637 -3.401,-2.637 v 13.606 c 2.267,10e-4 3.401,-0.889 3.401,-2.672 z"
   id="path29"
   style="fill:#adadad"
   inkscape:connector-curvature="0" />
		<path
   d="m 310.4,347.13 h -6.172 v 43.729 H 293.181 V 347.13 h -6.172 v -6.558 H 310.4 v 6.558 z"
   id="path31"
   style="fill:#adadad"
   inkscape:connector-curvature="0" />
		<path
   d="M 355.145,390.859 H 344.2 l -1.864,-13.501 h -4.902 l -1.886,13.501 h -10.945 l 8.261,-50.286 h 14.006 l 8.275,50.286 z m -13.699,-20.48 -1.59,-15.009 -1.505,15.009 h 3.095 z"
   id="path33"
   style="fill:#adadad"
   inkscape:connector-curvature="0" />
		<path
   d="m 356.828,340.573 h 11.046 v 42.221 c 0,1.006 0.619,1.508 1.858,1.508 1.216,0 1.824,-0.502 1.824,-1.508 v -42.221 h 11.046 v 41.625 c 0,2.898 -1.204,5.143 -3.612,6.732 -2.408,1.589 -5.493,2.385 -9.258,2.385 -3.483,0 -6.505,-0.713 -9.064,-2.14 -2.56,-1.426 -3.84,-3.729 -3.84,-6.908 v -41.694 z"
   id="path35"
   style="fill:#adadad"
   inkscape:connector-curvature="0" />
		<path
   d="m 408.027,347.13 h -6.172 v 43.729 H 390.809 V 347.13 h -6.172 v -6.558 h 23.39 v 6.558 z"
   id="path37"
   style="fill:#adadad"
   inkscape:connector-curvature="0" />
		<path
   d="M 410.026,382.267 V 349.9 c 0,-6.522 4.226,-9.783 12.677,-9.783 8.334,0 12.502,3.238 12.502,9.714 v 32.367 c 0,2.922 -1.162,5.172 -3.484,6.75 -2.323,1.578 -5.353,2.367 -9.088,2.367 -8.405,0 -12.607,-3.016 -12.607,-9.048 z m 14.413,0.526 v -34.261 c 0,-1.005 -0.597,-1.508 -1.789,-1.508 -1.239,0 -1.858,0.503 -1.858,1.508 v 34.261 c 0,1.006 0.619,1.508 1.858,1.508 1.192,0 1.789,-0.502 1.789,-1.508 z"
   id="path39"
   style="fill:#adadad"
   inkscape:connector-curvature="0" />
		<path
   d="m 437.518,370.73 h 10.029 v 11.537 c 0,1.146 0.695,1.719 2.087,1.719 1.344,0 2.016,-0.572 2.016,-1.719 v -5.961 c 0,-1.823 -1.216,-3.963 -3.646,-6.418 -4.699,-4.559 -7.622,-7.621 -8.768,-9.188 -1.146,-1.565 -1.718,-3.284 -1.718,-5.154 V 349.9 c 0,-6.522 4.261,-9.783 12.783,-9.783 7.632,0 11.448,2.969 11.448,8.907 v 8.696 H 451.72 v -9.258 c 0,-1.005 -0.561,-1.508 -1.681,-1.508 -1.311,0 -1.967,0.971 -1.967,2.91 l 0.211,3.262 c 0,1.871 1.242,4.045 3.727,6.522 4.616,4.419 7.552,7.505 8.806,9.258 1.254,1.753 1.88,3.741 1.88,5.962 v 6.417 c 0,6.687 -4.272,10.029 -12.817,10.029 -8.24,0 -12.36,-3.039 -12.36,-9.117 V 370.73 z"
   id="path41"
   style="fill:#adadad"
   inkscape:connector-curvature="0" />
		<path
   d="m 488.085,347.13 h -6.172 v 43.729 H 470.867 V 347.13 h -6.172 v -6.558 h 23.39 v 6.558 z"
   id="path43"
   style="fill:#adadad"
   inkscape:connector-curvature="0" />
		<path
   d="m 517.472,390.929 h -11.046 c -1.192,-1.426 -1.789,-5.471 -1.789,-12.134 v -0.069 l 0.07,-3.017 c 0.07,-4.185 0.105,-6.323 0.105,-6.417 0,-1.706 -1.146,-2.56 -3.437,-2.56 v 24.126 h -11.047 v -50.286 h 13.642 c 3.109,0 5.815,0.713 8.118,2.139 2.303,1.427 3.454,3.683 3.454,6.769 v 6.031 c 0,3.904 -2.279,6.546 -6.838,7.925 4.581,1.076 6.873,3.846 6.873,8.312 l -0.176,5.505 c 0.002,8.042 0.691,12.601 2.071,13.676 z m -12.694,-32.971 v -8.297 c 0,-1.758 -1.135,-2.637 -3.401,-2.637 v 13.606 c 2.266,10e-4 3.401,-0.889 3.401,-2.672 z"
   id="path45"
   style="fill:#adadad"
   inkscape:connector-curvature="0" />
		<path
   d="m 548.822,390.859 h -10.945 l -1.864,-13.501 h -4.902 l -1.886,13.501 H 518.28 l 8.261,-50.286 h 14.006 l 8.275,50.286 z m -13.7,-20.48 -1.59,-15.009 -1.505,15.009 h 3.095 z"
   id="path47"
   style="fill:#adadad"
   inkscape:connector-curvature="0" />
		<path
   d="m 550.4,390.859 v -50.286 h 13.785 c 3,0 5.673,0.812 8.018,2.437 2.344,1.625 3.516,4.121 3.516,7.487 v 30.438 c 0,3.133 -1.096,5.57 -3.288,7.312 -2.191,1.741 -4.917,2.612 -8.175,2.612 H 550.4 z m 14.202,-9.12 v -32.081 c 0,-1.755 -1.052,-2.633 -3.155,-2.633 v 37.382 c 2.103,0 3.155,-0.89 3.155,-2.668 z"
   id="path49"
   style="fill:#adadad"
   inkscape:connector-curvature="0" />
		<path
   d="m 607.839,390.859 h -10.945 l -1.864,-13.501 h -4.902 l -1.886,13.501 h -10.945 l 8.261,-50.286 h 14.006 l 8.275,50.286 z m -13.699,-20.48 -1.59,-15.009 -1.505,15.009 h 3.095 z"
   id="path51"
   style="fill:#adadad"
   inkscape:connector-curvature="0" />
		<path
   d="m 170.043,466.859 h -9.854 V 438.63 l -5.751,28.229 h -7.61 l -6.592,-28.229 v 28.229 h -8.627 v -50.286 h 14.203 l 5.049,26.09 4.384,-26.09 h 14.798 v 50.286 z"
   id="path53"
   style="fill:#adadad"
   inkscape:connector-curvature="0" />
		<path
   d="m 202.34,466.859 h -10.946 l -1.864,-13.501 h -4.902 l -1.887,13.501 h -10.945 l 8.261,-50.286 h 14.006 l 8.277,50.286 z m -13.701,-20.48 -1.589,-15.009 -1.504,15.009 h 3.093 z"
   id="path55"
   style="fill:#adadad"
   inkscape:connector-curvature="0" />
		<path
   d="m 229.937,466.859 h -20.83 v -23.022 l -5.015,2.052 v -7.955 l 5.015,-2.053 v -19.308 h 11.046 v 14.789 l 5.892,-2.411 v 7.956 l -5.892,2.411 v 21.089 h 9.784 v 6.452 z"
   id="path57"
   style="fill:#adadad"
   inkscape:connector-curvature="0" />
		<path
   d="M 232.147,458.267 V 425.9 c 0,-6.522 4.226,-9.783 12.677,-9.783 8.334,0 12.501,3.238 12.501,9.714 v 32.367 c 0,2.922 -1.162,5.172 -3.484,6.75 -2.323,1.578 -5.353,2.367 -9.087,2.367 -8.405,0 -12.607,-3.016 -12.607,-9.048 z m 14.412,0.526 v -34.261 c 0,-1.005 -0.596,-1.508 -1.788,-1.508 -1.24,0 -1.859,0.503 -1.859,1.508 v 34.261 c 0,1.006 0.619,1.508 1.859,1.508 1.192,0 1.788,-0.502 1.788,-1.508 z"
   id="path59"
   style="fill:#adadad"
   inkscape:connector-curvature="0" />
		<path
   d="m 270.44,448.343 v 18.516 h -10.766 v -50.286 h 11.607 c 4.605,0 8.024,0.584 10.257,1.753 2.232,1.169 3.349,3.554 3.349,7.154 v 13.956 c 0,3.297 -0.912,5.629 -2.735,6.996 -1.823,1.368 -5.727,2.005 -11.712,1.911 z m 3.682,-9.853 v -12.063 c 0,-1.776 -1.228,-2.665 -3.682,-2.665 v 17.394 c 2.455,-0.001 3.682,-0.89 3.682,-2.666 z"
   id="path61"
   style="fill:#adadad"
   inkscape:connector-curvature="0" />
		<path
   d="M 286.781,458.267 V 425.9 c 0,-6.522 4.226,-9.783 12.677,-9.783 8.334,0 12.502,3.238 12.502,9.714 v 32.367 c 0,2.922 -1.162,5.172 -3.484,6.75 -2.323,1.578 -5.353,2.367 -9.088,2.367 -8.404,0 -12.607,-3.016 -12.607,-9.048 z m 14.414,0.526 v -34.261 c 0,-1.005 -0.597,-1.508 -1.789,-1.508 -1.239,0 -1.858,0.503 -1.858,1.508 v 34.261 c 0,1.006 0.619,1.508 1.858,1.508 1.192,0 1.789,-0.502 1.789,-1.508 z"
   id="path63"
   style="fill:#adadad"
   inkscape:connector-curvature="0" />
		<path
   d="m 335.14,466.859 h -20.725 v -50.286 h 11.046 v 43.834 h 9.679 v 6.452 z"
   id="path65"
   style="fill:#adadad"
   inkscape:connector-curvature="0" />
		<path
   d="m 336.823,446.73 h 10.029 v 11.537 c 0,1.146 0.695,1.719 2.087,1.719 1.344,0 2.016,-0.572 2.016,-1.719 v -5.961 c 0,-1.823 -1.216,-3.963 -3.646,-6.418 -4.699,-4.559 -7.622,-7.621 -8.768,-9.188 -1.146,-1.565 -1.718,-3.284 -1.718,-5.154 V 425.9 c 0,-6.522 4.261,-9.783 12.783,-9.783 7.632,0 11.448,2.969 11.448,8.907 v 8.696 h -10.029 v -9.258 c 0,-1.005 -0.561,-1.508 -1.681,-1.508 -1.311,0 -1.967,0.971 -1.967,2.91 l 0.211,3.262 c 0,1.871 1.242,4.045 3.727,6.522 4.616,4.419 7.552,7.505 8.806,9.258 1.254,1.753 1.88,3.741 1.88,5.962 v 6.417 c 0,6.687 -4.272,10.029 -12.817,10.029 -8.24,0 -12.36,-3.039 -12.36,-9.117 V 446.73 z"
   id="path67"
   style="fill:#adadad"
   inkscape:connector-curvature="0" />
		<path
   d="m 391.913,466.859 h -12.142 l -4.234,-18.623 v 18.623 H 364.49 v -50.286 h 11.047 v 16.8 l 4.837,-16.8 h 10.242 l -6.804,22.934 8.101,27.352 z"
   id="path69"
   style="fill:#adadad"
   inkscape:connector-curvature="0" />
		<path
   d="m 423.333,466.859 h -10.945 l -1.864,-13.501 h -4.902 l -1.886,13.501 H 392.79 l 8.261,-50.286 h 14.006 l 8.276,50.286 z m -13.699,-20.48 -1.59,-15.009 -1.505,15.009 h 3.095 z"
   id="path71"
   style="fill:#adadad"
   inkscape:connector-curvature="0" />
		<path
   d="m 437.852,446.73 h 10.029 v 11.537 c 0,1.146 0.695,1.719 2.087,1.719 1.344,0 2.016,-0.572 2.016,-1.719 v -5.961 c 0,-1.823 -1.216,-3.963 -3.646,-6.418 -4.699,-4.559 -7.622,-7.621 -8.768,-9.188 -1.146,-1.565 -1.718,-3.284 -1.718,-5.154 V 425.9 c 0,-6.522 4.261,-9.783 12.783,-9.783 7.632,0 11.448,2.969 11.448,8.907 v 8.696 h -10.029 v -9.258 c 0,-1.005 -0.561,-1.508 -1.681,-1.508 -1.311,0 -1.967,0.971 -1.967,2.91 l 0.211,3.262 c 0,1.871 1.242,4.045 3.727,6.522 4.616,4.419 7.552,7.505 8.806,9.258 1.254,1.753 1.88,3.741 1.88,5.962 v 6.417 c 0,6.687 -4.272,10.029 -12.817,10.029 -8.24,0 -12.36,-3.039 -12.36,-9.117 V 446.73 z"
   id="path73"
   style="fill:#adadad"
   inkscape:connector-curvature="0" />
		<path
   d="m 474.251,466.859 h -9.118 v -7.329 h 9.118 v 7.329 z"
   id="path75"
   style="fill:#adadad"
   inkscape:connector-curvature="0" />
		<path
   d="m 506.268,466.859 h -10.945 l -1.864,-13.501 h -4.902 l -1.886,13.501 h -10.945 l 8.261,-50.286 h 14.006 l 8.275,50.286 z m -13.699,-20.48 -1.59,-15.009 -1.505,15.009 h 3.095 z"
   id="path77"
   style="fill:#adadad"
   inkscape:connector-curvature="0" />
		<path
   d="m 516.893,466.859 h -9.118 v -7.329 h 9.118 v 7.329 z"
   id="path79"
   style="fill:#adadad"
   inkscape:connector-curvature="0" />
	</g>
</g>
</svg>