<?xml version="1.0" encoding="UTF-8" standalone="no"?>
<!-- Created with Inkscape (http://www.inkscape.org/) -->
<svg
   xmlns:dc="http://purl.org/dc/elements/1.1/"
   xmlns:cc="http://web.resource.org/cc/"
   xmlns:rdf="http://www.w3.org/1999/02/22-rdf-syntax-ns#"
   xmlns:svg="http://www.w3.org/2000/svg"
   xmlns="http://www.w3.org/2000/svg"
   xmlns:sodipodi="http://sodipodi.sourceforge.net/DTD/sodipodi-0.dtd"
   xmlns:inkscape="http://www.inkscape.org/namespaces/inkscape"
   id="svg5910"
   sodipodi:version="0.32"
   inkscape:version="0.44.1"
   width="800"
   height="850"
   version="1.0"
   sodipodi:docbase="/home/lx/Desktop/stadsdelsområden"
   sodipodi:docname="Stockholm boroughs 2007 Södermalm.svg">
  <metadata
     id="metadata5915">
    <rdf:RDF>
      <cc:Work
         rdf:about="">
        <dc:format>image/svg+xml</dc:format>
        <dc:type
           rdf:resource="http://purl.org/dc/dcmitype/StillImage" />
      </cc:Work>
    </rdf:RDF>
  </metadata>
  <defs
     id="defs5913">
    <marker
       inkscape:stockid="Arrow1Mstart"
       orient="auto"
       refY="0.0"
       refX="0.0"
       id="Arrow1Mstart"
       style="overflow:visible">
      <path
         id="path6126"
         d="M 0.0,0.0 L 5.0,-5.0 L -12.5,0.0 L 5.0,5.0 L 0.0,0.0 z "
         style="fill-rule:evenodd;stroke:#000000;stroke-width:1.0pt;marker-start:none"
         transform="scale(0.4) translate(10,0)" />
    </marker>
    <marker
       inkscape:stockid="Arrow1Lstart"
       orient="auto"
       refY="0.0"
       refX="0.0"
       id="Arrow1Lstart"
       style="overflow:visible">
      <path
         id="path6132"
         d="M 0.0,0.0 L 5.0,-5.0 L -12.5,0.0 L 5.0,5.0 L 0.0,0.0 z "
         style="fill-rule:evenodd;stroke:#000000;stroke-width:1.0pt;marker-start:none"
         transform="scale(0.8) translate(12.5,0)" />
    </marker>
  </defs>
  <sodipodi:namedview
     inkscape:window-height="1120"
     inkscape:window-width="1292"
     inkscape:pageshadow="2"
     inkscape:pageopacity="0.0"
     guidetolerance="10.0"
     gridtolerance="10.0"
     objecttolerance="10.0"
     borderopacity="1.0"
     bordercolor="#666666"
     pagecolor="#ffffff"
     id="base"
     inkscape:zoom="0.94625"
     inkscape:cx="548.79393"
     inkscape:cy="360.88713"
     inkscape:window-x="0"
     inkscape:window-y="0"
     inkscape:current-layer="svg5910"
     showgrid="true"
     showguides="true"
     inkscape:guide-bbox="true"
     inkscape:grid-points="true" />
  <path
     style="fill:#9ec7f3;fill-opacity:1;fill-rule:evenodd;stroke:none;stroke-width:1;stroke-linecap:round;stroke-linejoin:round;stroke-opacity:1;stroke-miterlimit:4;stroke-dasharray:none;opacity:1"
     d="M 24 234 C 22 247 30 251 42 271 C 48.347122 281.57854 51 286 56 291 C 57.5 292.5 57.700775 296.24093 65 305 C 67.5 308 72 312 81 316 C 83.043345 316.90815 95.988248 325.29398 99 328 C 111.04701 338.8241 108 340 122 350 C 122.73349 350.52392 123 354 129 355 C 131.95918 355.4932 139 366 145 371 C 147.76986 373.30822 150 382 158 388 C 164.08532 392.56399 176 398 182 404 C 188.14325 410.14325 187 418 199 424 C 205.57189 427.28595 221.06992 433.96151 226 443 C 232 454 240.83294 454.27429 249 462 C 257.16706 469.72571 255 474 265 480 C 271.24264 483.74559 280 489 283 490 C 286.91152 491.30384 310.13755 500.98762 314 510 C 317 517 312 526 304 527 C 289.96707 528.75412 286 534 284 535 C 279.52786 537.23607 261.5 547 258 548 C 251.91879 549.73749 247.51446 554.54566 246 555 C 236 558 224.70711 572.87868 224 575 C 223 578 218 583 216 586 C 207.53287 598.7007 217 607 202 615 C 193.86511 619.33861 190 629 183 632 C 171.48315 636.93579 177 636 185 653 C 189 650 190 647 195 646 C 197.19265 645.56147 200.01561 641.38426 200 637 C 199.98325 632.29456 203.35914 627.78394 206.71875 627.5625 C 230.00099 626.02796 232 595 235 592 C 248.50926 578.49074 243 572 255 566 C 270.24466 558.37767 297.15325 546.47427 304 544 C 305.74692 543.3687 312.14235 541.00997 318 540 C 323.85765 538.99003 329.17753 539.32883 330 539 C 340.82854 534.67071 343 519 362 519 C 368 519 369.241 524 375 524 C 380 524 381 514 386 511 C 390.2875 508.42752 394 491 404 489 C 405.0963 488.78074 406.38106 486.97044 408.40625 485.21875 C 410.43165 483.46706 413.1618 481.63969 417 481 C 418.125 480.8125 419.33354 480.72876 420.59375 480.75 C 432.77475 480.95532 450.1875 490 452 490 C 458 490 462 493 463 495 C 468 505 467 516 478 522 C 500.4336 534.23652 527.0212 533.74098 553 536 C 553.00185 536.012 552.99816 536.01926 553 536.03125 C 576 538.03125 567 526.03125 586 525.03125 C 586.4057 525.0099 586.78246 524.99982 587.15625 525 C 598.69313 525.00542 595.66062 534.94256 614.75 535.03125 C 614.83276 535.02265 614.91729 535.00856 615 535 C 627 539 618.72761 528.21268 618 527 C 618 534.23043 616 527 611 524 C 610.03863 523.42318 603 520 599 517 C 595 514 595 509 595 508 C 595 503 600 498 601 495 C 602.70294 489.89118 607.17157 484.58579 610 486 C 610 483 615 480 618 480 C 622 480 618 470 650 470 C 659 470 670 468 686 465 C 692.94996 463.69688 694 460 694 447 C 694 425 690.89269 417.56222 686 409 C 670 381 670 376 661 365 C 653.75356 356.14324 650.93839 349.03581 646 346 C 641.06161 342.96419 634.26274 343.69706 632 342 C 626 337.5 615.07606 322.42696 610 313 C 603 300 601.82199 302.15079 601 301 C 591 287 579.53399 277.79057 574 277 C 570.5 276.5 569.25 275.25 568.25 274.75 C 567.25 274.25 566.5 274.5 564 277 C 568 280 575 289 575 293 C 575 295 571.30115 296.00277 571.125 301.0625 C 570.98789 305.00156 583.74071 301.28393 587 304 C 593 309 597 320 608 331 C 614 337 598 339 601 344 C 601.57522 344.95871 604.2104 343.9078 607 346 C 611 349 611.78648 356.89324 616 359 C 620 361 623 357 631 359 C 635 360 638.0223 357.15859 627 365 C 623.3658 367.58546 620.6164 373.31098 621 375 C 621.5299 377.33297 631 373 633 372 C 635 371 640.718 371.74645 643 372 C 652 373 654.2406 389.71654 659 394 C 679 412 678.9954 418.0933 679 422 C 679.0014 423.21595 678.0003 426.46024 675.625 429.03125 C 673.2496 431.60226 669.4083 433.80278 664 432 C 662.5 431.5 657 430 656 429 C 652.1844 425.18445 643.7206 420.86028 642 420 C 640 419 630.4472 418.22361 630 418 C 626 416 616.49985 412.49988 613 415 C 611.18049 416.29977 599.5 414 596 416 C 594.05855 417.1094 593.0036 417.98703 589.78125 417.75 C 585.01061 417.39907 576.5 423 575 423 C 567 423 564.98822 420.69321 561 421 C 548 422 551 432 547 432 C 536.3886 432 530 432 525 433 C 523.44957 433.31009 513 437 516 433 C 516.84853 431.86863 509.34217 423.05105 498 411 C 490 402.5 472 392 469 392 C 466 392 463 389.57624 463 387 C 460 382 460 388 455 388 C 449 388 440 383 435 383 C 428 383 430 385 425 385 C 413 385 418 390 410 390 C 405.75 390 398.16025 387.7735 394 385 C 391 383 387 384 385 383 C 371.79394 376.39697 374 366 367 369 C 367 376 351 379 351 383 C 351 387 356 388 358 389 C 361.5432 390.77159 364 387 367 384 C 368.5811 382.41886 376.2112 382.65836 378 384 C 386 390 398.9933 392.00956 399.125 399.46875 C 399.1977 403.59123 396 425 394 428 C 392.2459 430.63117 392 435.5 392 437 C 392 442 391 445 389 447 C 384 452 380 454 377 464 C 371.3545 482.8183 359 495 351 498 C 345.0781 500.2207 333 491 310 480 C 306.7473 478.44437 303.5811 477.58114 302 476 C 301 475 285 470 281 466 C 280 465 276 465 275 461 C 274.4577 458.8307 270.4059 456.81175 267 450 C 266 448 260 443 249 433 C 245.5778 429.88887 240.0912 423.78823 235 417 C 232 413 220.9609 415.11035 218 414 C 202 408 196 398 190 384 C 187.5086 378.18682 187 377 181 377 C 179.5841 377 177.3534 378.56893 175 377 C 169 373 170 370 168 367 C 166.4311 364.64661 157.4482 357.01562 151 352 C 150.194 351.37304 147.3744 350.24958 144 348 C 141 346 135.5 344.5 133 342 C 129.7573 338.75733 124.5 337 121 335 C 111.2987 329.45641 109.375 326.625 109 326 C 103.1818 316.30306 99.000002 309 96 307 C 91.8397 304.2265 83.048002 300.03598 79 297 C 71 291 71.905402 287.08643 71 286 C 66 280 69.999998 272 61 273 C 58.0183 273.33129 54.403098 262.80623 54 262 C 50 254 40.999998 244 38 241 C 32.4773 235.47732 24.3162 234.94869 24 234 z M 406.71875 569.65625 C 406.63459 570.21139 406.56045 570.76197 406.5 571.3125 C 406.56168 570.76193 406.63396 570.21106 406.71875 569.65625 z M 406.3125 573.34375 C 406.28526 573.75446 406.26759 574.15931 406.25 574.5625 C 406.26889 574.15751 406.28393 573.75627 406.3125 573.34375 z M 321.875 584.78125 C 322.09009 585.66947 322.28311 586.56144 322.46875 587.5 C 322.28719 586.58019 322.08482 585.65245 321.875 584.78125 z "
     id="water" />
  <path
     style="opacity:1;fill:#ffffd0;fill-opacity:1;fill-rule:evenodd;stroke:#d0c0a0;stroke-width:1;stroke-linecap:butt;stroke-linejoin:miter;stroke-miterlimit:4;stroke-dasharray:none;stroke-opacity:1"
     d="M 610,486 C 607.17157,484.58579 602.70294,489.89118 601,495 C 600,498 595,503 595,508 C 595,509 595,514 599,517 C 603,520 610.03863,523.42318 611,524 C 616,527 618,534.23043 618,527 C 618,519 621,519 621,507 C 621,492 614,488 610,486 z "
     id="henriksdalshamnen"
     sodipodi:nodetypes="csssssss"
     inkscape:label="Henriksdalshamnen" />
  <path
     style="opacity:1;fill:#f7d3aa;fill-opacity:1;fill-rule:evenodd;stroke:#d0c0a0;stroke-width:1;stroke-linecap:round;stroke-linejoin:round;stroke-miterlimit:4;stroke-dasharray:none;stroke-opacity:1"
     d="M 304,544 C 297.15325,546.47427 270.24466,558.37767 255,566 C 243,572 248.50926,578.49074 235,592 C 232,595 230.00099,626.02796 206.71875,627.5625 C 203.35914,627.78394 199.98325,632.29456 200,637 C 200.01561,641.38426 197.19265,645.56147 195,646 C 190,647 189,650 185,653 C 191,658 193.69656,656.69656 199,662 C 204,667 207,679 214,679 C 221,679 220,670 226,670 C 229,670 226,677 250,677 C 285,677 273,654 285,637 C 289.96082,629.97218 322.00974,613.31189 327,613 C 324,605 324,588 320,579 C 313.81388,565.08124 311,560 304,544 z "
     id="skarholmen"
     sodipodi:nodetypes="cssssscssssscsc"
     inkscape:label="Skärholmen" />
  <path
     style="opacity:1;fill:#f7d3aa;fill-opacity:1;fill-rule:evenodd;stroke:#d0c0a0;stroke-width:1;stroke-linecap:round;stroke-linejoin:round;marker-start:none;marker-mid:none;stroke-miterlimit:4;stroke-dasharray:none;stroke-opacity:1"
     d="M 277.1875,282.3125 C 273.4375,282.45312 272.5,285.25 271,292 C 270.5661,293.95237 268,295 267,299 C 266.4577,301.1693 263.6325,302.10263 263,304 C 261,310 257.7678,311.23223 256,313 C 255,314 251,314 249,313 C 248.5528,312.77639 247.302,312.13346 245.9062,311.5 C 244.5105,310.86654 242.9701,310.24254 242,310 C 238,309 236,307.5 233,306 C 229,314.5 229,321 230,327 C 230.7399,331.4392 228,337 222,341 C 219.9199,342.38675 215,347 206,352 C 204.4241,352.87551 200.5298,357.73509 198,359 C 192,362 187,366 175,377 C 177.3534,378.56893 179.5841,377 181,377 C 187,377 187.5086,378.18682 190,384 C 196,398 202,408 218,414 C 220.9609,415.11035 232,413 235,417 C 240.0912,423.78823 245.5778,429.88887 249,433 C 260,443 266,448 267,450 C 270.4059,456.81175 274.4577,458.8307 275,461 C 276,465 280,465 281,466 C 285,470 301,475 302,476 C 303.5811,477.58114 306.7473,478.44437 310,480 C 333,491 345.0781,500.2207 351,498 C 359,495 371.3545,482.8183 377,464 C 380,454 384,452 389,447 C 391,445 392,442 392,437 C 392,435.5 392.2459,430.63117 394,428 C 396,425 399.1977,403.59123 399.125,399.46875 C 398.9933,392.00956 386,390 378,384 C 376.2112,382.65836 368.5811,382.41886 367,384 C 364,387 361.5432,390.77159 358,389 C 356,388 351,387 351,383 C 351,379 367,376 367,369 C 367,362 359,363 356,353 C 352.3653,340.88435 340,326 334,308 C 333,305 329.9612,301.39223 328,301 C 323,300 320.4398,297.02609 317,289 C 307,289 290,285 282,283 C 280,282.5 278.4375,282.26562 277.1875,282.3125 z "
     id="bromma"
     inkscape:label="Bromma" />
  <path
     style="fill:#f7d3aa;fill-opacity:1;fill-rule:evenodd;stroke:#1821de;stroke-width:1;stroke-linecap:butt;stroke-linejoin:miter;stroke-opacity:1;stroke-miterlimit:4;stroke-dasharray:none;opacity:1"
     d="M 574.94569,426.75513 C 570.83884,437.60026 584.51451,448.11984 586.99802,458.3807 C 589.35252,468.10853 595.32741,460.35726 597.44517,456.47406 C 598.90168,453.80334 608.37064,452.62332 611.91715,456.57033 C 615.79326,460.88416 619.43341,459.32022 624.05156,459.65604 C 631.76672,460.21707 628.81479,451.88517 640.73787,453.49983 C 653.45331,455.22179 666.47799,458.1923 671.86007,457.92931 C 676.82929,457.6865 684.31886,455.92112 680.20961,448.83007 C 672.20629,435.0193 659.69543,433.45858 640.75064,429.62459 C 639.13276,429.29717 633.57556,423.85369 610.78549,423.92514 C 606.52526,423.9385 591.24002,427.54131 584.7797,427.50611 C 579.02343,427.47637 575.73151,424.67999 574.94569,426.75513 z "
     id="valdemarson"
     sodipodi:nodetypes="csssssssssss"
     inkscape:label="Valdemarsön" />
  <path
     style="opacity:1;fill:#f7d3aa;fill-opacity:1;fill-rule:evenodd;stroke:#d0c0a0;stroke-width:1;stroke-linecap:round;stroke-linejoin:round;stroke-miterlimit:4;stroke-dasharray:none;stroke-opacity:1"
     d="M 478,522 C 477,526 474.1649,527.13406 474,528 C 470,549 463,567 459,593 C 460,593 475,591 483,595 C 491.8091,599.40454 496,600 496,604 C 496,607 493,608 490,617 C 489,616.5 487.26615,616.29528 485.65625,616.3125 C 484.04646,616.32972 482.5604,616.56887 482,617 C 478.75,619.5 471.0938,624.75 466,630 C 460.9062,635.25 458,641 453,646.25 C 442.1434,657.64942 434,668 430,668 C 426,668 423.713,665.35651 419,663 C 413,660 408.5,660 408,661 C 407.2929,662.41422 408.04155,671.41605 408.84375,680.6875 C 409.64534,689.95895 410.5,698.5 410,701 C 413.7547,703.42949 448,718 450,718 C 456,718 451,716 457,716 C 460,716 461,716 462,718 C 462.7071,719.41422 459,727 473,735 C 484.8725,741.78426 505.3185,753.79113 514,759 C 522,745 534.9306,730.94634 545,718 C 552,709 551,705 551,702 C 551,701 551,702 551,701 C 554,695 553,687 554,677 C 555,667 554.5193,661.72104 557,658 C 558.75,655.375 559.7266,655.04102 562.625,655 C 563.0391,654.99414 563.5,655 564,655 C 567,655 573.0597,657.51493 575,658 C 579,659 589,664 593,668 C 605.0104,680.01041 610,690 621,702 C 621.9556,703.04249 623,703 628,702 C 628.9806,701.80388 633,699 637,699 C 642,696 648.5793,697.10675 647,690 C 645,681 642.2361,674.47214 640,670 C 635,660 630,662 627,659 C 619.4833,651.48335 618.0512,650.10247 614,642 C 612,638 610.75,636.75 610,634 C 609.25,631.25 610,628 608,625 C 606.4311,622.64661 607.4417,620.97553 607,617 C 606,608 608,605 608,603 C 608,601 606,595 603,595 C 598,595 597.8284,597.58579 595,599 C 591,601 590,603 586,603 C 583,603 582,601 582,599 C 582,598 582,595 581,593 C 579,589 577,587 574,580 C 569.3893,569.24168 567,564 559,553 C 555,554 555,549 553,536 C 527.0212,533.74098 500.4336,534.23652 478,522 z "
     id="enskede-arsta-vantor"
     sodipodi:nodetypes="cscsscsssssssscsssscsccsssssssscssssssssssssssccc"
     inkscape:label="Enskede-Årsta-Vantör" />
  <path
     style="opacity:1;fill:#f7d3aa;fill-opacity:1;fill-rule:evenodd;stroke:#d0c0a0;stroke-width:1;stroke-linecap:round;stroke-linejoin:round;stroke-miterlimit:4;stroke-dasharray:none;stroke-opacity:1"
     d="M 420.59375 480.75 C 419.33354 480.72876 418.125 480.8125 417 481 C 413.1618 481.63969 410.43165 483.46706 408.40625 485.21875 C 406.38106 486.97044 405.0963 488.78074 404 489 C 394 491 390.2875 508.42752 386 511 C 381 514 380 524 375 524 C 369.241 524 368 519 362 519 C 343 519 340.82854 534.67071 330 539 C 329.17753 539.32883 323.85765 538.99003 318 540 C 312.14235 541.00997 305.74692 543.3687 304 544 C 311 560 313.81388 565.08124 320 579 C 324 588 324 605 327 613 C 343 612 343.83667 618.11556 346 621 C 350 620 350.83975 615.7735 355 613 C 358 611 371 615 379 610 C 380.5287 609.04453 388 602 394 599 C 397.2249 597.38755 404.5 588 406 587 C 413 587 414.8398 579.7735 419 577 C 425 573 427 570 430 570 C 435 570 438 573 442 577 C 445 580 450 583 450 592 C 450 594 457 594 459 593 C 463 567 470 549 474 528 C 474.1649 527.13406 477 526 478 522 C 467 516 468 505 463 495 C 462 493 458 490 452 490 C 450.1875 490 432.77475 480.95532 420.59375 480.75 z "
     id="hagersten-liljeholmen"
     inkscape:label="Hägersten-Liljeholmen" />
  <path
     style="opacity:1;fill:#f7d3aa;fill-opacity:1;fill-rule:evenodd;stroke:#d0c0a0;stroke-width:1;stroke-linecap:round;stroke-linejoin:round;stroke-miterlimit:4;stroke-dasharray:none;stroke-opacity:1"
     d="M 500,320 C 500,324.03972 496.98777,347.77914 495,348 C 486,349 486,349 484,357 C 483.75746,357.97014 478,363 475,369 C 472.22536,374.54929 463,386.25 463,387 C 463,389.57624 466,392 469,392 C 472,392 490,402.5 498,411 C 509.34217,423.05105 516.84853,431.86863 516,433 C 513,437 523.44957,433.31009 525,433 C 530,432 536.3886,432 547,432 C 551,432 548,422 561,421 C 560,417 556,399 554,396 C 550,390 548,381 546,377 C 544.38755,373.7751 538.5,369.5 539,368 C 541.40832,360.77504 541,357 542,355 C 544,351 529.74953,355.19925 529,354 C 524,346 508,320 500,320 z "
     id="norrmalm"
     inkscape:label="Norrmalm" />
  <path
     style="opacity:1;fill:#f7d3aa;fill-opacity:1;fill-rule:evenodd;stroke:#d0c0a0;stroke-width:1;stroke-linecap:round;stroke-linejoin:round;stroke-miterlimit:4;stroke-dasharray:none;stroke-opacity:1"
     d="M 500,252 C 495,252 486.06133,262.97935 486.5,267.75 C 487.99292,283.98613 500,276 500,320 C 508,320 524,346 529,354 C 529.74953,355.19925 544,351 542,355 C 541,357 541.40832,360.77504 539,368 C 538.5,369.5 544.38755,373.7751 546,377 C 548,381 550,390 554,396 C 556,399 560,417 561,421 C 564.98822,420.69321 567,423 575,423 C 576.5,423 585.01061,417.39907 589.78125,417.75 C 593.0036,417.98703 594.05855,417.1094 596,416 C 599.5,414 611.18049,416.29977 613,415 C 616.49985,412.49988 626,416 630,418 C 630.4472,418.22361 640,419 642,420 C 643.7206,420.86028 652.1844,425.18445 656,429 C 657,430 662.5,431.5 664,432 C 669.4083,433.80278 673.2496,431.60226 675.625,429.03125 C 678.0003,426.46024 679.0014,423.21595 679,422 C 678.9954,418.0933 679,412 659,394 C 654.2406,389.71654 652,373 643,372 C 640.718,371.74645 635,371 633,372 C 631,373 621.5299,377.33297 621,375 C 620.6164,373.31098 623.3658,367.58546 627,365 C 638.0223,357.15859 635,360 631,359 C 623,357 620,361 616,359 C 611.78648,356.89324 611,349 607,346 C 604.2104,343.9078 601.57522,344.95871 601,344 C 598,339 614,337 608,331 C 597,320 593,309 587,304 C 583.74071,301.28393 570.98789,305.00156 571.125,301.0625 C 571.30115,296.00277 575,295 575,293 C 575,289 568,280 564,277 C 562.21691,275.66269 566,275.5 561,275 C 559.00993,274.80099 561.99932,271.99296 554.625,270.71875 C 546.09525,269.2449 530,257 512,257 C 507,257 506,252 500,252 z "
     id="ostermalm"
     inkscape:label="Östermalm" />
  <path
     style="opacity:1;fill:#ffffd0;fill-opacity:0;fill-rule:evenodd;stroke:#1821de;stroke-width:1;stroke-linecap:round;stroke-linejoin:round;stroke-miterlimit:4;stroke-dasharray:none;stroke-opacity:1"
     d="M 463,387 C 463,389.57624 466,392 469,392 C 472,392 490,402.5 498,411 C 509.34217,423.05105 516.84853,431.86863 516,433 C 513,437 523.44957,433.31009 525,433 C 530,432 536.3886,432 547,432 C 551,432 548,422 561,421 C 564.98822,420.69321 567,423 575,423 C 576.5,423 585.00701,417.41203 589.77765,417.76296 C 593,418 594.05855,417.1094 596,416 C 599.5,414 611.18049,416.29977 613,415 C 616.49985,412.49988 626,416 630,418 C 630.44721,418.22361 640,419 642,420 C 643.72057,420.86028 652.18445,425.18445 656,429 C 657,430 662.5,431.5 664,432 C 669.40833,433.80278 673.25072,431.60797 675.62608,429.03696 C 678.00144,426.46595 679.00144,423.21595 679,422 C 678.99539,418.0933 679,412 659,394 C 654.2406,389.71654 652,373 643,372 C 640.71803,371.74645 635,371 633,372 C 631,373 621.52992,377.33297 621,375 C 620.61635,373.31098 623.36575,367.58546 627,365 C 638.02227,357.15859 635,360 631,359 C 623,357 620,361 616,359 C 611.78648,356.89324 611,349 607,346 C 604.2104,343.9078 601.57522,344.95871 601,344 C 598,339 614,337 608,331 C 597,320 593,309 587,304 C 583.74071,301.28393 571,305 571.13711,301.06094 C 571.31323,296.00121 575,295 575,293 C 575,289 568,280 564,277"
     id="norrmalm_ostermalm_water"
     sodipodi:nodetypes="csssssssssssssssssssssssssssssc"
     inkscape:label="Norrmalm and Östermalm water border" />
  <path
     style="fill:#f7d3aa;fill-opacity:1;fill-rule:evenodd;stroke:#1821de;stroke-width:1;stroke-linecap:round;stroke-linejoin:round;stroke-opacity:1;stroke-miterlimit:4;stroke-dasharray:none;opacity:1"
     d="M 423.41436,392.75974 C 413.51943,396.27743 411.04271,413.78105 413.90055,421.36411 C 419.91085,437.31204 429.60783,453.81318 441.97911,454.79607 C 451.4269,455.5467 463.22697,440.95875 469.06594,440.06247 C 475.51458,439.0726 477.91742,442.67022 486.43984,441.91317 C 498.00029,440.88623 517.34215,433.84878 509.29946,436.03264 C 503.47155,437.61511 508.30688,421.48016 478.84353,403.59456 C 458.46793,391.22565 439.34507,387.09631 423.41436,392.75974 z "
     id="kungsholmen"
     sodipodi:nodetypes="csssssss"
     inkscape:label="Kungsholmen" />
  <path
     style="fill:#f7d3aa;fill-opacity:1;fill-rule:evenodd;stroke:#1821de;stroke-width:1;stroke-linecap:butt;stroke-linejoin:miter;stroke-opacity:1;stroke-miterlimit:4;stroke-dasharray:none;opacity:1"
     d="M 396.26073,450.5012 C 391.53632,456.11405 384.54669,478.23526 387.54059,481.08944 C 390.72125,484.12167 397.07923,478.43719 405.11534,472.56607 C 408.05544,470.41804 412.03323,468.85808 411.78672,459.353 C 411.45493,446.55916 397.74077,448.74284 396.26073,450.5012 z "
     id="stora_essingen"
     sodipodi:nodetypes="cssss"
     inkscape:label="Stora Essingen" />
  <path
     style="fill:#f7d3aa;fill-opacity:1;fill-rule:evenodd;stroke:#1821de;stroke-width:1;stroke-linecap:round;stroke-linejoin:round;stroke-opacity:1;stroke-miterlimit:4;stroke-dasharray:none;opacity:1"
     d="M 415.6185,448.51926 C 421.95443,447.63256 423.59592,448.71687 426.71752,451.95409 C 429.83912,455.1913 429.56444,461.19929 426.916,459.75082 C 423.98318,458.1468 421.59269,458.54535 417.26987,457.30556 C 412.43096,455.91775 412.96672,448.89037 415.6185,448.51926 z "
     id="lilla_essingen"
     sodipodi:nodetypes="cssss"
     inkscape:label="Lilla Essingen" />
  <path
     style="opacity:1;fill:#ffffd0;fill-opacity:1;fill-rule:evenodd;stroke:#1821de;stroke-width:1;stroke-linecap:butt;stroke-linejoin:miter;stroke-miterlimit:4;stroke-dasharray:none;stroke-opacity:1"
     d="M 441.25201,467.28247 C 442.98623,464.04526 453.98591,460.11393 462.19457,458.49532 C 470.40322,456.87671 471.39934,461.04012 471.44461,462.92165 C 471.52726,466.35669 466.96818,468.7178 462.52514,468.53668 C 457.09452,468.31529 457.52304,468.642 452.35146,470.12318 C 443.69088,472.60363 439.51779,470.51969 441.25201,467.28247 z "
     id="langholmen"
     sodipodi:nodetypes="csssss"
     inkscape:label="Långholmen" />
  <path
     style="fill:#ffffd0;fill-opacity:1;fill-rule:evenodd;stroke:#1821de;stroke-width:1;stroke-linecap:butt;stroke-linejoin:miter;stroke-opacity:1;stroke-miterlimit:4;stroke-dasharray:none;opacity:1"
     d="M 522.89141,448.2587 C 522.64191,453.93711 526.79117,451.63342 532.18319,456.43459 C 538.22429,461.81371 546.61335,454.61158 546.84458,449.06207 C 547.07581,443.51256 542.23419,438.28229 535.75976,437.24175 C 529.28533,436.20122 523.17994,441.69183 522.89141,448.2587 z "
     id="stadsholmen"
     sodipodi:nodetypes="cssss"
     inkscape:label="Stadsholmen" />
  <path
     style="fill:#f7d3aa;fill-opacity:1;fill-rule:evenodd;stroke:#1821de;stroke-width:1;stroke-linecap:butt;stroke-linejoin:miter;stroke-opacity:1;stroke-miterlimit:4;stroke-dasharray:none;opacity:1"
     d="M 555.48136,440.72361 C 555.0124,444.18119 558.72923,445.89944 561.39863,446.70875 C 564.46228,447.63758 569.60513,444.46427 567.74995,441.1324 C 563.81983,434.07397 556.81035,430.92514 555.48136,440.72361 z "
     id="skeppsholmen"
     sodipodi:nodetypes="csss"
     inkscape:label="Skeppsholmen" />
  <path
     style="opacity:1;fill:#f7d3aa;fill-opacity:1;fill-rule:evenodd;stroke:#1821de;stroke-width:1;stroke-linecap:butt;stroke-linejoin:miter;stroke-miterlimit:4;stroke-dasharray:none;stroke-opacity:1"
     d="M 564.26809,449.94595 C 563.80563,451.79579 565.66967,454.9174 569.99438,454.63842 C 572.00931,454.50845 571.81738,449.34027 570.43,448.29973 C 569.04263,447.2592 564.73055,448.09612 564.26809,449.94595 z "
     id="kastellholmen"
     sodipodi:nodetypes="csss"
     inkscape:label="Kastellholmen" />
  <path
     style="opacity:1;fill:#f7d3aa;fill-opacity:1;fill-rule:evenodd;stroke:#d0c0a0;stroke-width:1;stroke-linecap:round;stroke-linejoin:round;stroke-miterlimit:4;stroke-dasharray:none;stroke-opacity:1"
     d="M 430,570 C 427,570 425,573 419,577 C 414.8398,579.7735 413,587 406,587 C 404.5,588 397.2249,597.38755 394,599 C 388,602 380.5287,609.04453 379,610 C 371,615 358,611 355,613 C 350.8398,615.7735 350,620 346,621 C 347.5,623 352,638 352,647 C 352,655.66044 349,658 351,665 C 351.8687,668.04061 356.2872,668.76374 362,676 C 377,695 393,690.00001 410,701 C 410.5,698.5 409.6454,689.95895 408.8438,680.6875 C 408.0419,671.41605 407.2929,662.41422 408,661 C 408.5,660 413,660 419,663 C 423.713,665.35651 426,668 430,668 C 434,668 442.1434,657.64942 453,646.25 C 458,641 460.9062,635.25 466,630 C 471.0938,624.75 478.75,619.5 482,617 C 483.1209,616.13774 488,616 490,617 C 493,608 496,607 496,604 C 496,600 491.8091,599.40454 483,595 C 475,591 460,593 459,593 C 457,594 450,594 450,592 C 450,583 445,580 442,577 C 438,573 435,570 430,570 z "
     id="alvsjo"
     sodipodi:nodetypes="cscssscssscssssssscsscssc"
     inkscape:label="Älvsjö" />
  <path
     style="opacity:1;fill:#f7d3aa;fill-opacity:1;fill-rule:evenodd;stroke:#d0c0a0;stroke-width:1;stroke-linecap:round;stroke-linejoin:round;stroke-miterlimit:4;stroke-dasharray:none;stroke-opacity:1"
     d="M 615,535 C 611,541 594.0498,544.21115 586,546 C 577,548 578,551 559,553 C 567,564 569.3893,569.24168 574,580 C 577,587 579,589 581,593 C 582,595 582,598 582,599 C 582,601 583,603 586,603 C 590,603 591,601 595,599 C 597.8284,597.58579 598,595 603,595 C 606,595 608,601 608,603 C 608,605 606,608 607,617 C 607.4417,620.97553 606.4311,622.64661 608,625 C 610,628 609.25,631.25 610,634 C 610.75,636.75 612,638 614,642 C 618.0512,650.10247 619.4833,651.48335 627,659 C 630,662 635,660 640,670 C 642.2361,674.47214 645,681 647,690 C 648.5793,697.10675 642,696 637,699 C 640,705 642.3875,705.7751 644,709 C 645,711 653,723 658,734 C 659.3086,736.87883 665,754 666,763 C 668,764 680,771 692,772 C 703.6623,772.97186 713.5,775 719,777 C 738.9347,784.24898 739,789 743,796 C 743.3508,796.61394 747.2127,797.77849 752,800 C 756.7873,802.22151 762.1696,806.07614 763,804 C 763.5,802.75 764,800 767,796 C 768.2765,794.29801 766.9357,784.19288 769,778 C 771,772 773,766 773,759 C 773,752.87628 779.2404,750.20174 778,744 C 777,739 762.9127,744.63758 749,740 C 743,738 734,731 730,727 C 725.7427,722.74265 725,715.79924 725,708 C 725,704 722,696 721,687 C 720.7531,684.77761 713,683 695,674 C 685,669 695,660 677,623 C 664.514,597.33435 660,595 640,575 C 627.2524,562.25245 660,540 650,540 C 630,540 635,540 625,540 C 620,540 615,535 615,535 z "
     id="skarpnack"
     inkscape:label="Skarpnäck" />
  <path
     style="opacity:1;fill:#f7d3aa;fill-opacity:1;fill-rule:evenodd;stroke:#d0c0a0;stroke-width:1;stroke-linecap:round;stroke-linejoin:round;stroke-miterlimit:4;stroke-dasharray:none;stroke-opacity:1"
     d="M 562.625,655 C 559.7266,655.04102 558.75,655.375 557,658 C 554.5193,661.72104 555,667 554,677 C 553,687 554,695 551,701 C 551,702 551,701 551,702 C 551,705 552,709 545,718 C 534.9306,730.94634 522,745 514,759 C 519,762 533,766 537,769 C 537.8944,769.67082 543.5685,769.2822 545,771 C 550,777 556.3663,783.1279 564,789 C 577,799 581,811 585,813 C 594.2087,817.60435 595,821 598,821 C 599,821 602,821 603,821 C 608,821 608.0352,813.93057 615,810 C 619.004,807.74032 623,807 625,805 C 626,804 635,800 637,800 C 641,800 641.7004,798.99251 642,793 C 643,773 638.3359,772.85603 652,767 C 659,764 662,761 666,763 C 665,754 659.3086,736.87883 658,734 C 653,723 645,711 644,709 C 642.3875,705.7751 640,705 637,699 C 633,699 628.9806,701.80388 628,702 C 623,703 621.9556,703.04249 621,702 C 610,690 605.0104,680.01041 593,668 C 589,664 579,659 575,658 C 573.0597,657.51493 567,655 564,655 C 563.5,655 563.0391,654.99414 562.625,655 z "
     id="farsta"
     inkscape:label="Farsta"
     sodipodi:nodetypes="cssccscssssssssssscsscsssssc" />
  <path
     style="opacity:1;fill:#ffffd0;fill-opacity:1;fill-rule:evenodd;stroke:#d0c0a0;stroke-width:1;stroke-linecap:round;stroke-linejoin:round;stroke-miterlimit:4;stroke-dasharray:none;stroke-opacity:1"
     d="M 587.1562,525 C 586.7824,524.99982 586.4057,525.0099 586,525.03125 C 567,526.03125 576,538.03125 553,536.03125 C 555,549.03125 555,554.03125 559,553.03125 C 578,551.03125 577,548.03125 586,546.03125 C 594.0498,544.2424 611,541.03125 615,535.03125 C 595.625,535.03125 598.7448,525.00544 587.1562,525 z "
     id="sodra_hammarbyhamnen"
     inkscape:label="Södra Hammarbyhamnen" />
  <path
     style="opacity:1;fill:#f7d3aa;fill-opacity:1;fill-rule:evenodd;stroke:#d0c0a0;stroke-width:1;stroke-linecap:round;stroke-linejoin:round;marker-start:none;marker-mid:none;stroke-miterlimit:4;stroke-dasharray:none;stroke-opacity:1"
     d="M 236 7 C 229 7 215.8776 27.59176 212 40 C 207 56 220 47 227 72 C 227.4263 73.52258 226.2971 85.07943 228 97 C 230 111 225 112 220 122 C 222 124 229 125 233 128 C 234.1314 128.84853 239 132 241 136 C 242.6125 139.2249 248 144 253 149 C 253.5 149.5 262 154 264 156 C 264.5 156.5 268 161 269 163 C 269.6325 164.26491 273 165 276 169 C 271 177 269 182 267 187 C 265.2234 191.44146 263.3058 196.42286 261 200 C 258.6942 203.57714 256 205.75 256 207 C 256 210 262 212 268 215 C 270 216 277 223 281 223 C 286 223 282 218 286 218 C 290 218 288 224 296 222 C 296 215 310.5529 214.51184 312 208 C 314 199 317 198 317 186 C 317 171 323 175 332 174 C 333.9878 173.77914 348.2265 159.16025 351 155 C 354 150.5 341.1984 146.84216 334 138 C 330.6381 133.87038 314.914 122.91399 302 110 C 296 104 294 99 269 85 C 267.049 83.90745 270 80 270 78 C 270 71 261 73 261 65 C 261 59.15405 263 59 263 43 C 263 30 264 28 260 24 C 246.6677 10.667653 240 7 236 7 z "
     id="rinkeby-kista"
     inkscape:label="Rinkeby-Kista" />
  <path
     style="opacity:1;fill:#f7d3aa;fill-opacity:1;fill-rule:evenodd;stroke:#d0c0a0;stroke-width:1;stroke-linecap:round;stroke-linejoin:round;marker-start:none;marker-mid:none;stroke-miterlimit:4;stroke-dasharray:none;stroke-opacity:1"
     d="M 220,122 C 219.3675,123.26491 213,128 209,133 C 208.6508,133.43652 206,136 205,139 C 204.0179,141.94638 203,144.5 200,145 C 193.2493,146.12511 184,146.34516 184,151 C 184,166 197,177 192,181 C 187.1509,184.87931 184,188 179,191 C 173.4512,194.32931 171,201 166,205 C 164.8957,205.88345 161,213 155,216 C 152.1716,217.41421 148.11,221.24604 144,227 C 146,228 161,227 173,228 C 176.1514,228.26261 171,234 180,234 C 181.6142,234 186,232 186,238 C 186,240.11487 185,241 187,246 C 187.8305,248.07614 188.8683,251.64196 190,253 C 195,259 210.6754,258.83772 217,262 C 219,263 220.4505,263.45049 223,266 C 225,268 228,269 230,275 C 232.6077,282.82304 226.6234,287.62763 224,292 C 221,297 224,297 226,298 C 226.8944,298.44721 228,299 229,302 C 229.4472,303.34164 232,302 233,306 C 236,307.5 238,309 242,310 C 242.9701,310.24254 244.5108,310.86654 245.9062,311.5 C 247.3021,312.13346 248.5528,312.77639 249,313 C 251,314 255,314 256,313 C 257.7678,311.23223 261,310 263,304 C 263.6325,302.10263 266.4577,301.1693 267,299 C 268,295 270.5661,293.95237 271,292 C 272.5,285.25 273.4375,282.45312 277.1875,282.3125 C 278.4375,282.26562 280,282.5 282,283 C 290,285 307,289 317,289 C 314,282 309.7178,282.4315 308,281 C 302,276 287.5475,265.96644 284,261 C 279,254 286,243 294,231 C 295,229.5 296,226 296,222 C 288,224 290,218 286,218 C 282,218 286,223 281,223 C 277,223 270,216 268,215 C 262,212 256,210 256,207 C 256,205.75 258.6942,203.57714 261,200 C 263.3058,196.42286 265.2234,191.44146 267,187 C 269,182 271,177 276,169 C 273,165 269.6325,164.26491 269,163 C 268,161 264.5,156.5 264,156 C 262,154 253.5,149.5 253,149 C 248,144 242.6125,139.2249 241,136 C 239,132 234.1314,128.84853 233,128 C 229,125 222,124 220,122 z "
     id="spanga-tensta"
     inkscape:label="Spånga-Tensta" />
  <path
     style="opacity:1;fill:#f7d3aa;fill-opacity:1;fill-rule:evenodd;stroke:#d0c0a0;stroke-width:1;stroke-linecap:round;stroke-linejoin:round;marker-start:none;marker-mid:none;stroke-miterlimit:4;stroke-dasharray:none;stroke-opacity:1"
     d="M 84.687502,186.375 C 81.581802,186.51845 79.000002,188.75 76.000002,191 C 74.211102,192.34164 68.000002,203 59.000002,206 C 53.891202,207.70294 47.000002,207 42.000002,201 C 39.283902,197.74071 35.000002,196 31.000002,193 C 29.000002,191.5 25.000002,192 25.000002,200 C 25.000002,204 21.000002,225 24.000002,234 C 24.316202,234.94869 32.477302,235.47732 38.000002,241 C 41.000002,244 50.000002,254 54.000002,262 C 54.403102,262.80623 58.018302,273.33129 61.000002,273 C 70.000002,272 66.000002,280 71.000002,286 C 71.905402,287.08643 71.000002,291 79.000002,297 C 83.048002,300.03598 91.839702,304.2265 96.000002,307 C 99.000002,309 103.1818,316.30306 109,326 C 109.375,326.625 111.2987,329.45641 121,335 C 124.5,337 129.7573,338.75733 133,342 C 135.5,344.5 141,346 144,348 C 147.3744,350.24958 150.194,351.37304 151,352 C 157.4482,357.01562 166.4311,364.64661 168,367 C 170,370 169,373 175,377 C 187,366 192,362 198,359 C 200.5298,357.73509 204.4241,352.87551 206,352 C 215,347 219.9199,342.38675 222,341 C 228,337 230.7399,331.4392 230,327 C 229,321 229,314.5 233,306 C 232,302 229.4472,303.34164 229,302 C 228,299 226.8944,298.44721 226,298 C 224,297 221,297 224,292 C 226.6234,287.62763 232.6077,282.82304 230,275 C 228,269 225,268 223,266 C 220.4505,263.45049 219,263 217,262 C 210.6754,258.83772 195,259 190,253 C 188.8683,251.64196 187.8305,248.07614 187,246 C 185,241 186,240.11487 186,238 C 186,232 181.6142,234 180,234 C 171,234 176.1514,228.26261 173,228 C 161,227 146,228 144,227 C 139,234 136,236 134,238 C 133.2094,238.79057 114,240 105,239 C 103.5944,238.84383 105.2122,226.83829 106,225 C 109,218 100,192 88.000002,187 C 86.812002,186.50502 85.722702,186.32718 84.687502,186.375 z "
     id="hasselby-vallingby"
     inkscape:label="Hässelby-Vällingby" />
  <path
     style="opacity:1;fill:#ffffd0;fill-opacity:0;fill-rule:evenodd;stroke:#1821de;stroke-width:1;stroke-linecap:round;stroke-linejoin:round;marker-start:none;marker-mid:none;stroke-miterlimit:4;stroke-dasharray:none;stroke-opacity:1"
     d="M 367,369 C 367,376 351,379 351,383 C 351,387 356,388 358,389 C 361.54318,390.77159 364,387 367,384 C 368.58114,382.41886 376.21115,382.65836 378,384 C 386,390 399,392 399.13166,399.45919 C 399.20442,403.58165 396,425 394,428 C 392.24588,430.63117 392,435.5 392,437 C 392,442 391,445 389,447 C 384,452 380,454 377,464 C 371.35451,482.8183 359,495 351,498 C 345.07813,500.2207 333,491 310,480 C 306.74731,478.44437 303.58114,477.58114 302,476 C 301,475 285,470 281,466 C 280,465 276,465 275,461 C 274.45767,458.8307 270.40588,456.81175 267,450 C 266,448 260,443 249,433 C 245.57775,429.88887 240.09117,423.78823 235,417 C 232,413 220.96093,415.11035 218,414 C 202,408 196,398 190,384 C 187.50864,378.18682 187,377 181,377 C 179.58411,377 177.35339,378.56893 175,377 C 169,373 170,370 168,367 C 166.43107,364.64661 157.44816,357.01562 151,352 C 150.19398,351.37304 147.37437,350.24958 144,348 C 141,346 135.5,344.5 133,342 C 129.75733,338.75733 124.5,337 121,335 C 111.29872,329.45641 109.375,326.625 109,326 C 103.18183,316.30306 99,309 96,307 C 91.83975,304.2265 83.04797,300.03598 79,297 C 71,291 71.90536,287.08643 71,286 C 66,280 70,272 61,273 C 58.01835,273.33129 54.40311,262.80623 54,262 C 50,254 41,244 38,241 C 32.47732,235.47732 24.31623,234.94869 24,234"
     id="vasterort"
     sodipodi:nodetypes="csssssssssssssssssssssssssssssssssc"
     inkscape:label="Västerort water border" />
  <path
     style="opacity:1;fill:none;fill-opacity:1;fill-rule:evenodd;stroke:#1821de;stroke-width:1;stroke-linecap:round;stroke-linejoin:round;stroke-miterlimit:4;stroke-dasharray:none;stroke-opacity:1"
     d="M 615,535 C 595,535 598.982,524.31674 586,525 C 567,526 576,538 553,536 C 527.0212,533.74098 500.43362,534.23652 478,522 C 467,516 468,505 463,495 C 462,493 458,490 452,490 C 450,490 429,479 417,481 C 413.16183,481.63969 410.44216,483.46292 408.41687,485.21461 C 406.39158,486.96629 405.09632,488.78074 404,489 C 394,491 390.28746,508.42752 386,511 C 381,514 380,524 375,524 C 369.24098,524 368,519 362,519 C 343,519 340.82854,534.67071 330,539 C 329.17753,539.32883 323.85765,538.99003 318,540 C 312.14235,541.00997 305.74692,543.3687 304,544 C 297.15325,546.47427 270.24466,558.37767 255,566 C 243,572 248.50926,578.49074 235,592 C 232,595 230.0015,626.02259 206.71926,627.55713 C 203.35963,627.77857 199.98325,632.29456 200,637 C 200.01561,641.38426 197.19265,645.56147 195,646 C 190,647 189,650 185,653"
     id="soderort_water"
     sodipodi:nodetypes="csssssssssssssssssssc"
     inkscape:label="Söderort water border" />
  <path
     style="fill:#ffffd0;fill-opacity:1;fill-rule:evenodd;stroke:#1821de;stroke-width:1;stroke-linecap:butt;stroke-linejoin:miter;stroke-opacity:1;stroke-miterlimit:4;stroke-dasharray:none;opacity:1"
     d="M 520,461 C 501.63863,461 461.77069,474.80257 460,481 C 458,488 464.81884,482.86213 474,493 C 480.20133,499.84753 502.76953,512.04901 508,513 C 519,515 542,526 552,526 C 554,526 558.06556,523.9241 566,521 C 570.85909,519.20927 575.8355,508.09951 583,500 C 586.22226,496.35721 590.41084,492.15532 594,491 C 596.08391,490.32921 594.47532,486.48775 598,485 C 602.1445,483.25063 601.54728,479 601,479 C 598,479 588.38185,478.57716 585,477 C 578.15272,473.8067 563.33879,474.00911 560,474 C 557.20445,473.99238 552.82843,470.41421 550,469 C 544,466 532,461 520,461 z "
     id="sodermalm"
     sodipodi:nodetypes="csssssssssssss"
     inkscape:label="Södermalm" />
  <path
     style="opacity:1;fill:none;fill-opacity:1;fill-rule:evenodd;stroke:#1821de;stroke-width:1;stroke-linecap:round;stroke-linejoin:round;stroke-miterlimit:4;stroke-dasharray:none;stroke-opacity:1"
     d="M 610,486 C 607.17157,484.58579 602.70294,489.89118 601,495 C 600,498 595,503 595,508 C 595,509 595,514 599,517 C 603,520 610.03863,523.42318 611,524 C 616,527 618,534.23043 618,527"
     id="henriksdalshamnen_water"
     sodipodi:nodetypes="cssssc"
     inkscape:label="Henriksdalshamnen water border" />
</svg>
