<svg height="167" width="101" xmlns="http://www.w3.org/2000/svg">
	<path d="m50.359375.27929688-.185547.01367187-.373047.01367187c-1 .053-2.013344.09348438-3.027343.14648438-.506.027-1.012532.04007813-1.519532.08007812l-1.521484.21289063c-1.013.133-2.038453.26706245-3.064453.41406245-1.014.173-2.027688.4393438-3.054688.6523438-2.066.387-4.05375 1.1210469-6.09375 1.7480469-8 2.907-15.788234 7.7324221-21.6152341 14.7324221-2.867 3.507-5.4030938 7.414109-6.9960938 11.787109-.477 1.053-.7083594 2.212641-1.0683593 3.306641-.16.56-.3424688 1.105687-.4804688 1.679687l-.3164062 1.800782-.30273442 1.785156c-.044.294-.1078125.614859-.1328125.880859l-.04492188.814453-.17382812 3.199219c-.00800001.4 0 .172969 0 .292969l.0078125.107422.01171874.21289.02734376.439453.0546875.867188.11132812 1.746094c.019 1.174.338625 2.308078.515625 3.455078l.3183594 1.705078c.14.56.3291875 1.119016.4921875 1.666015.371 1.093.6106562 2.239969 1.0976562 3.292969 1.5166053 4.057036 3.8537877 7.692306 6.5019532 10.966797-.188359.335081-.3729229.670381-.5507813.980469-.15.373-.2965.721359-.4375 1.068359-.275.706-.558625 1.332656-.765625 1.972656-.165.693-.3169844 1.332251-.4589844 1.90625-.113.560001-.2920156 1.185532-.2910156 1.519532-.133 1.56-.2050781 2.386718-.2050781 2.386718l-.0078125.09375c-.00397.048731-.0046332.09767-.0019531.146485l.1933593 2.800781c.094.907.4054533 1.986297.6894531 3.279297.1900001.627.4684219 1.279328.7324219 1.986328l.4257813 1.080078c.187.347.380125.70836.578125 1.06836.6356166 1.231869 1.4494536 2.502473 2.4199216 3.765625-.901836 1.160706-1.670037 2.325838-2.2792966 3.458984-.203.36-.4007969.707687-.5917969 1.054688-.15.359999-.2965.720406-.4375 1.066406-.275.707-.558625 1.318656-.765625 1.972656l-.4589844 1.90625c-.113.56-.2920156 1.17353-.2910156 1.51953l-.2050781 2.38867-.0078125.0918c-.00406.0448-.0047132.0899-.0019531.13477l.1933593 2.79882c.094.906.4054533 1.99997.6894531 3.29297.1900001.627.4684219 1.26861.7324219 1.97461.137.36.2797813.72008.4257813 1.08008.187.347.380125.70708.578125 1.08008.4815707.92923 1.0721516 1.88178 1.7460936 2.83789-1.5830903 1.38078-3.0390531 2.93835-4.2773436 4.68164-1.7736003 2.52849-3.1111185 5.33622-3.9570313 8.30664-.833 2.947-1.1800312 5.95992-1.2070312 8.91992l.0078125-.24023-.6464844 7.89258c-.004.054-.0078125.1205-.0078125.1875v.0664c-.027021 2.45938.4724377 4.89607 1.4648437 7.14649.9875892 2.239 2.4149159 4.25678 4.1972657 5.93359 1.763 1.666 3.8692341 2.94678 6.1152341 3.80078 1.125.426 2.286844.74531 3.464844.94531.592351.1075 1.189337.18766 1.789063.24024l.955078.04101.820312.01368c2.384195-.0491 4.73726-.55154 6.933594-1.48047 2.173-.947 4.173781-2.29333 5.800781-3.98633 1.078507-1.11336 1.976226-2.38169 2.705078-3.73047.761867 1.22432 1.696657 2.33212 2.775391 3.28906 1.693 1.547 3.733516 2.66806 5.853516 3.41406 1.066999.38703 2.158953.63918 3.251953.82618.557145.0883 1.117445.15542 1.679687.20117l.867188.05273.773437.02735c2.214-.027 4.454219-.36041 6.574219-1.10743 2.12-.75998 4.159234-1.86578 5.865234-3.42578 1.078551-.96039 2.027807-2.08748 2.796875-3.32422.737371 1.35135 1.643071 2.6155 2.710938 3.73633 1.613 1.707 3.600437 3.04 5.773437 4 1.091732.4676 2.225843.82929 3.386719 1.08008.587.12 1.159766.21297 1.759766.29297l.958984.09375.814453.04102c2.374.04 4.786063-.34818 7.039063-1.20118 2.254-.867 4.360424-2.14617 6.107421-3.82617 1.772041-1.68547 3.190303-3.70729 4.171876-5.94726.46993-1.13441.823309-2.31364 1.054687-3.51954.107089-.60027.187247-1.20505.240234-1.8125l.039063-.98828v-.74609l-.105469-7.59961-.027344-.70703c-.106-3.027-.625687-6.09233-1.679687-8.98633-1.08-2.893-2.665938-5.58531-4.585938-7.94531-1.237321-1.52088-2.639664-2.87225-4.123046-4.09375.624981-.82737 1.213082-1.69129 1.748046-2.60156.987-1.626 1.693297-3.37297 2.279297-5.29297.227-.987.495905-2.08.628907-3l.171874-2.49219c-.016814-5.50165-2.114134-10.104617-5.072265-13.875.716525-.920056 1.388713-1.88526 1.992187-2.912109.987-1.64 1.693297-3.386969 2.279297-5.292969.227-1 .495905-2.093672.628907-3.013672l.185546-2.720703c-.024678-3.582932-1.058413-7.093466-2.720703-10.125a42.658 42.658 0 0 0 6.894531-11.980469c.573-1.96 1.226454-3.614922 1.439454-5.294922.280004-1.6.599614-3.053328.599614-3.986328.133-2.014.20117-3.080078.20117-3.080078l.01172-.173828s-.06488-1.172703-.17188-3.345703c0-1.107-.30755-2.413328-.560546-3.986328-.187-1.587-.827047-3.293907-1.373047-5.253907-1.387-3.827-3.599219-8.319015-7.199219-12.666015-3.56-4.347-8.468156-8.5207034-14.535156-11.7207034-.76-.4-1.519969-.7862187-2.292969-1.1992187-.8-.36-1.626453-.6803438-2.439453-1.0273438-.827-.32-1.640812-.7063281-2.507812-.9863281-.866-.267-1.731329-.5461719-2.611329-.8261719-1.747-.613-3.601406-.9076562-5.441406-1.3476562-1.867-.41300003-3.878562-.57351565-5.851562-.85351565-.947-.067-1.854782-.0928125-2.800782-.1328125l-1.40039-.06640625-.707031-.04101562zm.013672 6.66796872h.027344l.707031.0253906 1.40039.0546876c.92.053 1.865766.0658124 2.759766.1328124 1.666.253 3.291641.3473594 4.931641.6933594 1.627.4 3.281453.6268281 4.814453 1.1738282.774.2399999 1.54664.4790781 2.30664.7050781.76.24 1.479219.5871871 2.199219.8671871.72.293 1.453157.57386 2.160157.88086.68.347 1.347671.706062 2.013671 1.039062 5.32 2.787 9.600032 6.347344 12.707032 10.027344 3.133 3.68 5.038953 7.453625 6.251953 10.640625.467 1.653 1.054844 3.080391 1.214844 4.400391.225999 1.306.519859 2.412031.505859 3.332031.130277 1.776235.189792 2.681212.193359 2.734375-.003569.072527-.051029 1.042418-.154297 2.972656 0 1.08-.264843 2.040313-.464843 3.320313-.12 1.24-.694766 2.720047-1.134766 4.373046-1.186 3.227001-3.051531 7.052501-6.144531 10.8125-3.067 3.760001-7.360375 7.426907-12.734375 10.253907-5.346 2.853-11.760094 4.880547-18.746094 5.560547-.867.066-1.760625.079812-2.640625.132812l-1.333984.066406-.679688.027344-.585937-.027344c-.947-.04-1.893844-.092812-2.839844-.132812-.48-.026-.973453-.040078-1.439453-.080078l-1.320313-.1875-2.679687-.359375c-.894-.16-1.814703-.39961-2.720703-.59961-1.854-.334-3.626453-1.014546-5.439454-1.560547-7.134-2.587-14.000484-6.880265-19.021484-12.947265-2.47-3.027-4.6484686-6.372406-5.9804686-10.066406-.414-.893-.5884375-1.865157-.8984375-2.785157-.133-.48-.2952031-.934062-.4082031-1.414062l-.2480469-1.453125c-.133-.96-.41625-1.919578-.40625-2.892578l-.078125-1.46875-.0410157-.732422-.0214843-.373047-.0117188-.1875-.0039062-.080078c-.004.04.0002812-.239922-.0117188.080078l.2070313-3.212891.0507812-.800781c.026-.253.0869063-.466359.1289063-.693359l.2636719-1.373047.25-1.373047c.1159999-.453.2829218-.933719.4199218-1.386719.322-.934.5018281-1.894109.9238282-2.787109 1.3649999-3.667 3.5716872-6.960266 6.0546872-9.947266 5.052-5.973 11.912188-10.158672 18.992188-12.6386716 1.813-.533 3.558437-1.1871406 5.398437-1.4941406.906-.1870001 1.801032-.3985938 2.707032-.5585938.907-.107 1.81275-.2279844 2.71875-.3339844l1.347656-.1738281c.453-.04.907656-.0397344 1.347656-.0527344.906-.04 1.799687-.0804218 2.679688-.1074219l.332031-.0117187zm36.691406 65.8906254c.680554 1.740648 1.060847 3.561125 1.078125 5.402343l-.009766.052735-.013671.160156-.025391.306641-.041016.626953-.105468 1.240234c-.134.72-.335078 1.225232-.455078 1.865235-.413001 1.254-.958751 2.600781-1.71875 3.800781-1.480002 2.44-3.532844 4.599125-5.839844 6.453125-2.386 1.786-5.001375 3.294484-7.734375 4.521484-2.76 1.146-5.573125 2.145774-8.453125 2.759762-.72.16-1.426485.34485-2.146485.46485s-1.440156.24065-2.160156.34765c-1.413.28-2.865625.32047-4.265625.48047-1.426.147-2.840562.10716-4.226562.16016l-.253907.01172h-.201171l-.50586-.01172-1.09375-.02735c-.72-.02599-1.440156-.0404-2.160156-.0664-1.36-.094-2.612578-.25338-3.892578-.35938-1.293-.2-2.572172-.41523-3.826172-.61523-1.226-.293-2.440625-.572235-3.640625-.865235-1.16-.36-2.30511-.693406-3.412109-1.066406-4.4-1.573-8.161688-3.639578-11.054688-5.892578-2.914-2.254-4.880688-4.733922-6.054688-6.919922-.155998-.267-.307078-.53411-.455078-.78711-.107-.267-.2125-.533109-.3125-.787109-.196-.506-.421359-.974063-.568359-1.414062-.191-.920001-.457344-1.692032-.527344-2.332032l-.175781-1.935547.152344-2.199218c0-.44.139937-.652063.210937-1.039063.085-.346.17186-.720484.25586-1.146484.103653-.335304.269224-.72938.421875-1.121094 5.236484 4.82565 11.468228 8.285022 17.826172 10.521484 2.027.6 4.012734 1.319688 6.052734 1.679688 1.027.213 2.015015.452 3.041016.625 1.039999.134 2.080421.266719 3.107421.386719l1.546875.1875c.493.04.959454.040406 1.439454.066406.96.04 1.906515.080422 2.853515.107422l.826172.027343.732422-.027343 1.466797-.052735c.986-.054 1.961875-.067765 2.921875-.134765 7.693-.706 14.824219-2.905735 20.824219-6.052735 4.051593-2.120114 7.586974-4.667702 10.572265-7.402343zm-2.076172 23.767578c.315542.446606.618708.899742.892578 1.367187.747 1.227 1.266688 2.547864 1.679688 3.880864.133.68.332453 1.34734.439453 2.02734l.066406 1.03906.041016.51953.011719.25391.013671.13281v.05469l-.185546 2.33203c-.134.72-.335078 1.22652-.455078 1.85352-.413001 1.253-.958752 2.61378-1.71875 3.80078-1.480002 2.44-3.532844 4.60012-5.839844 6.45312-2.400992 1.79102-4.995342 3.30701-7.734375 4.51953-2.76 1.147-5.573125 2.14677-8.453125 2.75977-.72.16-1.426485.36047-2.146485.48047s-1.440156.22765-2.160156.34765c-1.413.28-2.865625.31852-4.265625.47852-1.426.133-2.840562.0932-4.226562.16016h-.253907l-.132812.01367h-.027344l-.546875-.01367-1.09375-.03907c-.72-.014-1.440156-.04068-2.160156-.05468-1.36-.093-2.612578-.25238-3.892578-.35938-1.293-.213-2.572172-.41328-3.826172-.61328-1.226-.293-2.440625-.58719-3.640625-.86719-1.16-.373-2.305111-.69308-3.412109-1.08008-4.4-1.56-8.161688-3.62557-11.054688-5.89257-2.914-2.253-4.880688-4.73225-6.054688-6.90625-.155998-.266-.307078-.53411-.455078-.78711-.107-.28-.2125-.53411-.3125-.78711-.196-.507-.421359-.97178-.568359-1.42578-.191-.92-.457344-1.68099-.527344-2.33399l-.175781-1.91992.152344-2.19922c0-.453.139937-.66801.210937-1.04101.085-.347.17186-.73249.25586-1.14649.132-.44.352109-.91945.537109-1.43945.096-.253006.195828-.520783.298828-.800783.143-.253.291406-.520781.441406-.800781.319871-.624589.717014-1.278265 1.167969-1.941407.348406.304372.701983.606864 1.072266.902344 3.45 2.813997 7.797547 5.267077 12.810547 7.080077 5.027 1.827 10.559765 3.02706 16.759765 3.41406.719817.0292 1.439903.05131 2.160157.06641l1.09375.03906.546874.02735h.386719l.292969-.01368c1.547-.08 3.107359-.0672 4.693359-.24023 1.574-.187 3.173766-.26594 4.759766-.58594.8-.147 1.600391-.28073 2.400391-.42773.814-.146 1.60039-.37355 2.40039-.56055 3.227-.733 6.412594-1.89195 9.558594-3.25195 3.12-1.453 6.148281-3.240736 8.988281-5.427736.405035-.333026.792923-.69529 1.1875-1.046875zm-69.707031 27.066411c.532026.49115 1.080929.97645 1.667969 1.44726 3.45 2.8 7.797547 5.26836 12.810547 7.06836 5.027 1.826 10.559765 3.02511 16.759765 3.41211l2.160157.08008 1.09375.04101.546874.02539h.251954l.134765-.01367.292969-.01172c1.547-.08 3.107359-.0685 4.693359-.22851 1.574-.2 3.173766-.27961 4.759766-.59961.8-.133 1.600391-.27911 2.400391-.41211.814-.147 1.60039-.37355 2.40039-.56055 3.227-.733 6.412594-1.89358 9.558594-3.26758 3.189309-1.46727 6.204204-3.28721 8.988281-5.42578.479559-.39205.949505-.80302 1.414063-1.22265 1.221312 1.09491 2.345947 2.27072 3.292968 3.55664 1.426001 1.907 2.531954 4.00023 3.251954 6.24023.71662 2.25595 1.094434 4.60577 1.121093 6.97266l.119141 8.13281.013672 1.17383c-.053.32-.1075.65265-.1875.97265-.174.734-.412422 1.4411-.732422 2.1211-.619538 1.37613-1.503474 2.61709-2.601562 3.65234-2.260166 2.12499-5.217739 3.35274-8.31836 3.45313l-.654297.01367-.533203-.01367c-.374-.027-.774156-.0661-1.160156-.11914-.774-.107-1.533297-.30688-2.279297-.54688-1.507-.493-2.906484-1.29364-4.146484-2.30664-1.263753-1.02554-2.307398-2.29571-3.06836-3.73437-.8-1.426-1.278515-3.0531-1.478515-4.7461.094-1.054-.654032-2.01348-1.707032-2.14648-1.086038-.15027-2.088557.60752-2.240234 1.69336l-.052734.45312c-.226 1.64-.693125 3.18749-1.453125 4.52149-.747 1.346-1.787672 2.49278-3.013672 3.42578-2.44 1.854-5.626516 2.80011-8.853516 2.78711l-.652344-.01367-.560547-.02735c-.386999-.027-.800499-.0668-1.1875-.13281-.785997-.107-1.560312-.29353-2.320312-.51953-1.506-.44-2.905814-1.17408-4.132812-2.08008-1.213001-.934-2.251719-2.08074-3.011719-3.42773-.774-1.34702-1.228078-2.88021-1.455078-4.53321.09398-1.05776-.65428-2.00487-1.705079-2.1582-1.090037-.14994-2.094385.61449-2.240234 1.70508l-.054687.45312c-.226 1.693-.705532 3.30738-1.519532 4.73438-.773 1.427-1.840406 2.68003-3.066406 3.70703-2.454 2.053-5.614375 3.11872-8.734375 3.01172l-.65625-.02539-.519531-.05469c-.368-.04-.764625-.10555-1.140625-.18555-.757-.146-1.496078-.38764-2.205078-.68164-1.413526-.59048-2.703991-1.44041-3.804688-2.50586-2.2044517-2.07933-3.4396785-4.97337-3.5019529-7.9375l.4863281-7.71484.0058594-.08008.0039063-.17383c-.066-4.933 1.0475169-9.67961 3.6035151-13.59961.88038-1.32277 1.941819-2.52958 3.117188-3.64843z"/>
</svg>
