<?xml version="1.0" encoding="UTF-8"?>
<svg xmlns="http://www.w3.org/2000/svg" xmlns:xlink="http://www.w3.org/1999/xlink" viewBox="0 0 338 267">
  <defs>
    <path id="e" fill="none" stroke="#000" stroke-width=".1" d="m452.88-150.77 2.6722-114.7 5.7555-10.072h1.4389l6.1666 10.894v113.26z"/>
    <path id="f" fill="none" stroke="#3d3d3d" stroke-width=".1" d="M445.16-168.31s13.67-7.5451 17.162-11.321c3.492-3.7757 29.974-33.402 36.377-41.535 6.4031-8.1334 19.5-24.109 25.318-28.464 5.8181-4.3549 16.581-11.903 16.581-11.903s-7.8652 17.144-17.471 30.216c-9.6055 13.072-34.925 42.699-40.164 49.38-5.2389 6.681-17.173 22.658-17.173 22.658z"/>
    <path id="B" fill="#585856" d="m255.92-106.89 1.2333 26.414 2.3639-.30833z" filter="url(#a)"/>
  </defs>
  <defs>
    <linearGradient id="b">
      <stop offset="0" stop-color="#dfe0db"/>
      <stop offset=".49415" stop-color="#787976"/>
      <stop offset=".60805" stop-color="#81817e"/>
      <stop offset="1" stop-color="#8a8a87"/>
    </linearGradient>
    <linearGradient id="c">
      <stop offset="0" stop-color="#2c2c2c"/>
      <stop offset="1" stop-color="#2c2c2c" stop-opacity="0"/>
    </linearGradient>
    <linearGradient id="d">
      <stop offset="0" stop-color="#fff"/>
      <stop offset="1" stop-color="#fff" stop-opacity="0"/>
    </linearGradient>
    <linearGradient xlink:href="#b" id="h" x1="284.13" x2="313.06" y1="-59.311" y2="4.9333" gradientTransform="rotate(-1.146 392.34626405 2587.72302721)" gradientUnits="userSpaceOnUse"/>
    <linearGradient xlink:href="#b" id="m" x1="1221.4" x2="1277.1" y1="629.02" y2="629.02" gradientTransform="matrix(.48302 -.07789 .07789 .48302 -428.38 132.05)" gradientUnits="userSpaceOnUse"/>
    <linearGradient id="n" x1="1267.6" x2="1268.1" y1="511.85" y2="682.36" gradientUnits="userSpaceOnUse">
      <stop offset="0" stop-color="#dfe0db"/>
      <stop offset=".49415" stop-color="#787976"/>
      <stop offset=".60805" stop-color="#81817e"/>
      <stop offset="1" stop-color="#8a8a87" stop-opacity=".604"/>
    </linearGradient>
    <linearGradient id="o" x1="378.54" x2="395.58" y1="-160.54" y2="-160.54" gradientTransform="translate(66.382 -76.425)" gradientUnits="userSpaceOnUse">
      <stop offset="0" stop-color="#2b2b29"/>
      <stop offset=".074279" stop-color="#393b3a"/>
      <stop offset=".17933" stop-color="#5f6160"/>
      <stop offset=".28942" stop-color="#f3f5f4"/>
      <stop offset=".57885" stop-color="#dde3e3"/>
      <stop offset=".69615" stop-color="#585d60"/>
      <stop offset=".88462" stop-color="#a8b0b2"/>
      <stop offset="1" stop-color="#6c7477"/>
    </linearGradient>
    <linearGradient id="v" x1="402.33" x2="409.3" y1="-140.99" y2="-134.88" gradientTransform="translate(18.605 2.3256)" gradientUnits="userSpaceOnUse">
      <stop offset="0" stop-color="#ebebeb"/>
      <stop offset="1" stop-color="#b2b2b2"/>
    </linearGradient>
    <linearGradient xlink:href="#b" id="z" x1="1401.3" x2="1414.6" y1="838.13" y2="806.52" gradientTransform="matrix(.48302 -.07789 .07789 .48302 -428.38 132.05)" gradientUnits="userSpaceOnUse"/>
    <linearGradient xlink:href="#b" id="A" x1="113.61" x2="270.36" y1="-89.401" y2="-81.178" gradientUnits="userSpaceOnUse"/>
    <linearGradient id="G" x1="509.22" x2="602.24" y1="-94.138" y2="-95.93" gradientUnits="userSpaceOnUse">
      <stop offset="0" stop-color="#d8d8d4"/>
      <stop offset=".32364" stop-color="#d9dad5"/>
      <stop offset=".64729" stop-color="#c0c1bc"/>
      <stop offset=".73216" stop-color="#787976"/>
      <stop offset=".91443" stop-color="#81817e"/>
      <stop offset="1" stop-color="#8a8a87"/>
    </linearGradient>
    <linearGradient xlink:href="#b" id="J" x1="933.84" x2="989.59" y1="574.78" y2="772.8" gradientUnits="userSpaceOnUse"/>
    <linearGradient id="M" x1="1342.5" x2="1478.1" y1="715.25" y2="715.25" gradientTransform="matrix(.48302 -.07789 .07789 .48302 -428.38 132.05)" gradientUnits="userSpaceOnUse">
      <stop offset="0" stop-color="#dfe0db"/>
      <stop offset=".49415" stop-color="#787976"/>
      <stop offset=".60805" stop-color="#81817e"/>
      <stop offset="1" stop-color="#8a8a87"/>
    </linearGradient>
    <linearGradient id="N" x1="334.33" x2="335.85" y1="435.99" y2="430.99" gradientUnits="userSpaceOnUse">
      <stop offset="0" stop-color="#414242"/>
      <stop offset="1" stop-color="#414242" stop-opacity="0"/>
    </linearGradient>
    <linearGradient xlink:href="#b" id="X" x1="233.04" x2="250.1" y1="620.35" y2="620.35" gradientUnits="userSpaceOnUse"/>
    <filter id="g" color-interpolation-filters="sRGB">
      <feGaussianBlur stdDeviation="10.920062"/>
    </filter>
    <filter id="k" width="1.2248" height="1.1676" x="-.11238" y="-.083788" color-interpolation-filters="sRGB">
      <feGaussianBlur stdDeviation=".85637256"/>
    </filter>
    <filter id="l" width="1.3393" height="1.1116" x="-.16966" y="-.055818" color-interpolation-filters="sRGB">
      <feGaussianBlur stdDeviation="1.4232833"/>
    </filter>
    <filter id="q" width="1.3162" height="1.0406" x="-.15808" y="-.020313" color-interpolation-filters="sRGB">
      <feGaussianBlur stdDeviation="1.0560352"/>
    </filter>
    <filter id="s" width="1.3404" height="1.0403" x="-.17018" y="-.020129" color-interpolation-filters="sRGB">
      <feGaussianBlur stdDeviation=".2267442"/>
    </filter>
    <filter id="u" width="1.3044" height="1.0408" x="-.15218" y="-.020415" color-interpolation-filters="sRGB">
      <feGaussianBlur stdDeviation=".20276152"/>
    </filter>
    <filter id="y" color-interpolation-filters="sRGB">
      <feGaussianBlur stdDeviation="1.4826909"/>
    </filter>
    <filter id="a" width="1.5006" height="1.0682" x="-.25029" y="-.034086" color-interpolation-filters="sRGB">
      <feGaussianBlur stdDeviation=".37513656"/>
    </filter>
    <filter id="F" color-interpolation-filters="sRGB">
      <feGaussianBlur stdDeviation="1.1777015"/>
    </filter>
    <filter id="I" width="1.1443" height="1.7137" x="-.072127" y="-.35685" color-interpolation-filters="sRGB">
      <feGaussianBlur stdDeviation=".56316498"/>
    </filter>
    <filter id="O" color-interpolation-filters="sRGB">
      <feGaussianBlur stdDeviation="3.205601"/>
    </filter>
    <filter id="Q" width="1.0412" height="1.286" x="-.020592" y="-.14299" color-interpolation-filters="sRGB">
      <feGaussianBlur stdDeviation=".3821076"/>
    </filter>
    <filter id="T" width="1.0241" height="7.4199" x="-.012045" y="-3.21" color-interpolation-filters="sRGB">
      <feGaussianBlur stdDeviation=".7776163"/>
    </filter>
    <filter id="V" color-interpolation-filters="sRGB">
      <feGaussianBlur stdDeviation=".37963568"/>
    </filter>
    <filter id="W" color-interpolation-filters="sRGB">
      <feGaussianBlur stdDeviation=".52629456"/>
    </filter>
    <radialGradient id="i" cx="229.37" cy="-39.348" r="2.5538" gradientTransform="matrix(.99236 -.12341 2.7888 22.424 111.49 871.3)" gradientUnits="userSpaceOnUse">
      <stop offset="0" stop-color="#292a24"/>
      <stop offset="1" stop-color="#292a24" stop-opacity="0"/>
    </radialGradient>
    <radialGradient id="r" cx="390.26" cy="-207.77" r="2.643" gradientTransform="matrix(1.2552 -.14751 .70939 6.036 48.533 1104.3)" gradientUnits="userSpaceOnUse">
      <stop offset="0" stop-color="#3d3d3d"/>
      <stop offset="1" stop-color="#3d3d3d" stop-opacity="0"/>
    </radialGradient>
    <radialGradient id="t" cx="386.63" cy="-208.02" r="3.3762" gradientTransform="matrix(.99912 .04186 -.25831 6.1662 -53.396 1059.7)" gradientUnits="userSpaceOnUse">
      <stop offset="0" stop-color="#676767"/>
      <stop offset="1" stop-color="#676767" stop-opacity="0"/>
    </radialGradient>
    <radialGradient id="w" cx="448.67" cy="-170.51" r="12.044" gradientTransform="matrix(.29896 .24955 -1.4016 1.679 75.554 3.8169)" gradientUnits="userSpaceOnUse">
      <stop offset="0" stop-color="#2b2b29"/>
      <stop offset="1" stop-color="#2b2b29" stop-opacity="0"/>
    </radialGradient>
    <radialGradient xlink:href="#c" id="C" cx="163.21" cy="-101.3" r="19.117" gradientTransform="matrix(-1.9166 .23652 -.02183 -.17691 473.81 -157.82)" gradientUnits="userSpaceOnUse"/>
    <radialGradient id="D" cx="220.1" cy="-88.253" r="100.91" gradientTransform="matrix(1.056 -.10851 .03113 .30297 -9.576 -99.122)" gradientUnits="userSpaceOnUse">
      <stop offset="0" stop-color="#d9d9d9"/>
      <stop offset="1" stop-color="#d9d9d9" stop-opacity="0"/>
    </radialGradient>
    <radialGradient id="H" cx="526.36" cy="-69.049" r="17.113" gradientTransform="matrix(.92336 -.41186 .35677 .79984 64.973 199.26)" gradientUnits="userSpaceOnUse">
      <stop offset="0"/>
      <stop offset="1" stop-opacity="0"/>
    </radialGradient>
    <radialGradient xlink:href="#c" id="K" cx="163.21" cy="-101.3" r="19.117" gradientTransform="matrix(.21974 -3.1429 -.29011 -.02028 882.19 1139.1)" gradientUnits="userSpaceOnUse"/>
    <radialGradient id="L" cx="1410.3" cy="715.25" r="67.27" gradientTransform="matrix(.48302 -.07789 .08783 .54466 -435.49 87.957)" gradientUnits="userSpaceOnUse">
      <stop offset="0" stop-color="#4d4d4d"/>
      <stop offset="1" stop-color="#4d4d4d" stop-opacity="0"/>
    </radialGradient>
    <radialGradient xlink:href="#d" id="P" cx="186.57" cy="103.77" r="22.767" gradientTransform="matrix(1.4467 .14172 -.02212 .22577 -10.518 -41.382)" gradientUnits="userSpaceOnUse"/>
    <radialGradient xlink:href="#d" id="R" cx="188.9" cy="109.63" r="22.767" gradientTransform="matrix(1.9968 0 0 .09919 -172.42 122.86)" gradientUnits="userSpaceOnUse"/>
    <radialGradient id="S" cx="299.27" cy="121.8" r="80.337" gradientTransform="matrix(1 0 0 .0393 68.605 -30.612)" gradientUnits="userSpaceOnUse">
      <stop offset="0" stop-color="#fff"/>
      <stop offset="1" stop-color="#fff" stop-opacity="0"/>
    </radialGradient>
    <radialGradient id="U" cx="502.34" cy="-101.24" r="14.008" gradientTransform="matrix(.69003 .00171 -.00181 .72871 116.18 55.785)" gradientUnits="userSpaceOnUse">
      <stop offset="0" stop-color="#fbfbfb"/>
      <stop offset="1" stop-color="#fbfbfb" stop-opacity="0"/>
    </radialGradient>
    <clipPath id="j">
      <path fill="none" stroke="#000" stroke-width=".1" d="m309.12 87.98-23.852-5.6221s-14.738 22.054-20.585 33.916c-2.9592 6.0026-6.1776 12.112-7.2702 18.715-.89361 5.3999-.48164 11.06.6982 16.405 1.2912 5.8489 2.3253 8.9411 6.865 16.606 2.6858 4.5349 10.643 11.693 10.643 11.693l-2.0928-35.262c-5.499-.97776-4.8527-8.6815-2.8934-11.636l11.479-17.31c1.6564-2.4977 8.7188-3.4552 12.352-.79614 3.6333 2.659 4.9655 8.5146 3.5422 12.606-1.4232 4.0915-8.9579 7.0185-8.9579 7.0185s1.4462 3.4093 7.5451 2.2673c5.7178-1.0707 9.7118-4.7838 12.302-11.233.92284-2.2978 1.9307-4.6288 2.225-7.0874 1.2022-10.044-1.9996-30.281-1.9996-30.281z"/>
    </clipPath>
    <clipPath id="p">
      <use xlink:href="#e" stroke-width=".1"/>
    </clipPath>
    <clipPath id="x">
      <use xlink:href="#f" stroke-width=".1"/>
    </clipPath>
    <clipPath id="E">
      <path fill="none" stroke="#1f1f1f" stroke-width=".1" d="M147.69-160.65c1.3741.27481 4.7696-9.625 27.085-17.953 25.514-9.5214 51.404-7.6287 74.659-8.2101 23.256-.5814 33.14-.5814 50.581-1.1628 17.442-.5814 41.837-2.1909 41.837-2.1909l-2.302 30.098-41.743 3.194s.18793-2.4423-4.4632-2.4423c-4.6512 0-4.8567 1.9145-4.8567 1.9145s-13.323 1.1261-31.495 3.7292c-8.5678 1.2273-28.817 4.5806-50.851 4.8214-16.288.17802-26.914.34058-39.705-4.892s-18.746-6.9062-18.746-6.9062z" opacity=".60153"/>
    </clipPath>
  </defs>
  <g transform="translate(-62.558 -274.73)">
    <path d="M1237.6 525.97s-6.0453 8.4836-7.9688 34.312c-1.2759 17.133 3.3041 63.816 6.5625 93.594l-8.1563 18.063s-20.455 10.103-25.406 15.812c-4.9509 5.7106-3.8486 3.6402-5 13.313-1.1513 9.6721 6.9859 32.046 6.4062 43.125-.2101 4.0234-5.8544 18.937-12.906 36.25-.657-.9927-1.24-2.4768-1.5625-4.75-1.0655-7.5136 2-8.2813 2-8.2813s-1.2293-21.8-1.1875-51.75c.01-7.0603.1979-18.941-.1875-33.531-.048-1.8225-.088-3.69-.1563-5.5937-.4755-13.326-1.493-28.498-3.5312-44.094-3.4438-26.352-5.6177-43.569-17-63.031s-15.438-28.688-15.438-28.688c.047.1348.041.284-.031.4688-.034.086-.1291.2123-.1874.3124-.3424-.7264-.6563-1.375-.6563-1.375.7587 2.1578-14.441 9.8902-22.781 47.844-9.5344 43.394-.5445 84.802 3.8438 122.5s6.631 53.662 9.6875 81.969c1.3317 12.332 2.6544 26.708 3.7187 39.156l-6.75-7.1562s-8.9729 8.1099-12.719 5.4374c-3.7457-2.6721 2.8437-14.5 2.8437-14.5l-7.625 10.125-4.7812-4.4062 3.0312-14.312-7.8124 9.9375-4.7813-4.4062 3.2187-14.156-8 9.7813-4.7812-4.4063 3.4062-13.969-8.1874 9.5937-4.7813-4.4063 3.625-13.781-8.4063 9.4062-4.7812-4.4062 3.8125-13.594-8.5937 9.2188-4.7813-4.4062 4-13.438-8.7813 9.0626-4.7812-4.4063 4.1875-13.25-8.9687 8.875-4.7813-4.4063 4.4063-13.062-9.1876 8.6874-4.7812-4.4062 4.5938-12.875-9.375 8.5-4.7813-4.4062 4.7813-12.719-9.5626 8.3438-4.7812-4.4063 4.9688-12.531-9.75 8.1563-4.7813-4.4063 5.1563-12.344-9.9376 7.9687-4.7812-4.4062 5.375-12.156-10.156 7.7812-4.7813-4.4062 5.5625-12-10.344 7.625-4.7812-4.4063 5.75-11.812-10.531 7.4375-4.7813-4.4063 5.9375-11.625-10.719 7.25-4.7812-4.4062 6.1562-11.438-10.937 7.0625-4.7813-4.4062 6.5937-11.031-22.375-18.406s-5.3941 29.004 1.7813 41.219c5.606 9.5433 119.69 137.78 170.5 194.75l-6.8437-1.9062s-31.54 35.108-31.969 36.156c-.345.843 10.691-2.3566 18.594-5.9688-4.205 4.1946-6.8061 9.4978-7.8126 16.063-1.6842 10.996 3.3438 13.594 3.3438 13.594s4.3368-13.59 10.375-16.156c6.0383-2.5661 14.67-.1764 18.594 6.375 3.9239 6.5527 2.5298 19.294-1.1563 22.281l-25.562 20.719c-4.3602 3.5342-15.713 4.6968-17.156-5.2187l-52.063-3.7813s10.589 14.345 17.281 19.188c11.312 8.1845 15.868 10.046 24.5 12.375 7.8875 2.1268 16.25 2.8608 24.219 1.25 9.7446-1.9714 18.735-7.7579 27.594-13.094 17.505-10.544 50.062-37.125 50.062-37.125l-.6875-3.625c5.4928 2.6107 10.112 3.0212 28.5 1.6875 17.27-1.2524 100.58-72.359 145.28-111.5l103.62 140.31 16.406 7.6875 1.8125-1.2813-1.9062-19.437-79.031-112.44c3.5941 1.7437 6.3729 2.9846 7.5625 3.2813 6.595 1.6447 10.605-1.8975 15.281-4.2813 4.6767-2.3835 14.688-9.5312 14.688-9.5312s1.4882 22.167 5.625 27.344c4.1363 5.1766 3.1155 4.8513 9.0312 3.9687 5.9157-.8827 19.781-14.938 19.781-14.938s.9522 21.71 3.375 25.656c2.4232 3.9462 4.8854 4.7332 10.719 3.6563 5.8333-1.0769 18.656-13.531 18.656-13.531l2.25 20.906s1.3404 5.1807 4.5 7.0313c3.1599 1.8502 6.3038 2.4088 11.875-.5626 5.5713-2.9711 15.5-18.906 15.5-18.906l-2.5312-1.9375-20.312 14.375s-.4511-22.143-4.25-27.375c-3.799-5.2317-3.1419-4.7046-9.0313-3.9687-5.889.7356-18.906 14.406-18.906 14.406s-2.0605-20.836-4.8125-25.969c-2.752-5.1326-4.1299-5.0244-6.7812-5.6562-2.6509-.6319-5.3437 1.6875-5.3437 1.6875s-11.614 11.262-15.25 14.688c-3.6362 3.425-4.25-25.885-6.1875-29.344-1.9376-3.4584-2.6626-4.5293-9.0312-3.9687-6.3687.5606-23.719 15.812-23.719 15.812l-10.469-5.6562 5.8126-21.906c5.794-.7156 11.301-1.3518 15.281-1.7813 13.91-1.5005 78.025-5.6769 104.5-9.375 26.475-3.6976 55.75-14.156 55.75-14.156s-21.294-4.0171-33.125-5.875c-11.831-1.858-45.755 1.0777-62.719 2.875-16.963 1.7973-82.371 4.5913-90.844 4.8125-2.5801.067-6.6691-.5708-11.094-1.5-.8788-5.4601-1.7053-10.7-1.9688-13-.6929-6.0497 142.78-115.19 142.78-115.19.0005 0-7.7527-18.408-14.656-24.844-6.9036-6.4357-15.02-11.371-24.844-12.406-9.2464-.9744-9.5786-3.5192-27.031 5.9688l.9062-3.25-68-62.875-31.812-19.531-14.219 14.188 17.281 25.625 36.438 17.781s13.175 8.709 14.156 17.813c.9815 9.1025-2.4906 14.392-6.0625 18.562-3.572 4.1703-3.0625 3.5626-3.0625 3.5626l-8.4375-8.25-3.0625 10.812 8.75 8.5s8.0963-10.067 11.969-6.75c3.8715 3.3176-4.1563 14.5-4.1563 14.5l4 3.3126c-29.313 23.517-69.559 56.582-109.44 89.656l-14.062-84.219c11.306-30.469 29.272-85.969 32.188-105.75 3.9264-26.64 0-26.531 0-26.531l-42 87.844-22.406-94.344zm19.281 162.44c1.3301 1.2782 2.6428 2.7377 3.875 4.4375 8.3514 11.52 13.596 57.497 14.25 63.5-22.822 18.952-44.049 36.664-63.469 52.938l-3.8124-13.688-5.6563-5.6562s22.344-91.256 29.938-95.969c6.0631-3.763 17.658-2.3403 24.875-5.5625z" filter="url(#g)" opacity=".5" transform="matrix(.48302 -.07789 .07789 .48302 -428.38 132.05)"/>
    <g transform="matrix(-.14045 -.87097 -.71284 .11495 173.11 742.22)">
      <g transform="rotate(32.995 279.54963992 -2.09851243)">
        <path fill="url(#h)" d="m248.08-86.729-23.067 8.2737s-.351 26.523 1.2038 39.656c.7868 6.646 1.4145 13.523 4.0936 19.655 2.1911 5.0156 5.6191 9.5389 9.5192 13.379 4.268 4.2025 6.8193 6.2328 14.801 10.19 4.7222 2.3409 15.294 4.0118 15.294 4.0118l-20.96-28.436c-5.1446 2.1745-8.7977-4.6388-8.7633-8.1837l.20168-20.769c.0291-2.9969 5.4311-7.6458 9.9264-7.3942 4.4953.25162 8.8014 4.4373 9.8358 8.644s-3.6912 10.765-3.6912 10.765 3.0696 2.0719 7.5629-2.2071c4.2126-4.0117 5.5404-9.3009 4.2009-16.12-.47727-2.4297-.90134-4.9337-1.9934-7.156-4.4613-9.0787-18.167-24.308-18.167-24.308z"/>
        <path fill="url(#i)" d="m226.82-57.662 3.4884 36.628s2.4709-5.6686 1.3081-17.587c-1.1628-11.919-4.7965-19.041-4.7965-19.041z"/>
      </g>
      <g fill="none" clip-path="url(#j)" transform="translate(-9.8837 -178.2)">
        <path stroke="#000" d="M270.93 137.5s-2.9716.0466 2.7616-9.8837c7.1221-10.756 11.195-18.52 15.846-12.996 4.6512 5.5233-18.608 22.88-18.608 22.88z" filter="url(#k)"/>
        <path stroke="#fff" d="m313.23 82.703-4.1043 5.2767s2.2147 14.636 1.6333 24.084c-.58139 9.4477-1.3081 11.192-3.7791 15.843-2.4709 4.6512-5.3779 16.279-4.7965 15.988.5814-.2907 20.058-21.657 20.058-21.657z" filter="url(#l)"/>
      </g>
    </g>
    <path fill="url(#m)" d="M205.54 284.18s-2.2652 4.5803-1.1825 17.206 13.957 57.105 13.957 57.105 6.1341-.76434 11.408 4.4916c5.2743 5.256 11.98 30.12 11.98 30.12l4.6841-1.4771-16.086-47.709z"/>
    <path fill="#fff" d="M194.1325521 445.9165278s12.75644193-48.30708301 12.17396178-53.70170571c-.58303322-5.39651584-6.25477493-15.57894493-6.45210397-20.34087215-.19721064-4.76150028-.56254641-3.67906571 1.38406983-6.82283212 1.9467923-3.14359656 11.04072613-9.6150144 11.04072613-9.6150144l6.66910507-24.5793195 4.27545608-1.24905328 13.91853259-47.29319089s1.88838633-.35632703 2.06688904 12.81741873-7.79361712 59.80462033-9.82811612 63.98335459c-2.03463141 4.17791311-10.17684284 3.78253146-13.47735708 6.65018198s-6.9778525 48.692006-6.9778525 48.692006l3.16694617 2.28735619 4.31032306 9.37809758-20.92048012 22.95988109z"/>
    <path fill="url(#n)" d="M1154 835.89s41.459-93.325 42.039-104.4c.5795-11.079-7.5519-33.471-6.4006-43.144 1.1514-9.6721.062-7.6068 5.0129-13.317 4.9512-5.7098 25.407-15.809 25.407-15.809l21.455-47.427 9.0336-1.1292 43.474-90.901s3.9264-.10455 0 26.536-35.186 118.14-40.651 125.91c-5.465 7.7683-21.766 4.3211-29.359 9.0336s-29.924 95.982-29.924 95.982l5.6461 5.646 5.646 20.326-49.685 39.522z" transform="matrix(.48302 -.07789 .07789 .48302 -428.38 132.05)"/>
    <g transform="matrix(.54678 -.53306 -.53306 -.54678 15.598 570.12)">
      <path fill="url(#o)" d="m445.42-174.58 2.6722-114.7 5.7555-10.072h1.4389l6.1666 10.894v113.26z" transform="translate(-65.466 75.988)"/>
      <use xlink:href="#e" clip-path="url(#p)" filter="url(#q)" transform="translate(-72.92 52.18)"/>
      <path fill="none" stroke="url(#r)" stroke-linecap="round" stroke-linejoin="round" stroke-width="2" d="M390.26-225.29s.5814 7.9942.43605 14.68c-.14535 6.686 3.0523 16.279 3.0523 16.279" filter="url(#s)"/>
      <path fill="none" stroke="url(#t)" stroke-linecap="round" stroke-linejoin="round" stroke-width="2" d="M387.5-220.2s-.24664 8.1184-.87208 13.372c-.72675 6.1047-2.907 10.174-2.907 10.174" filter="url(#u)"/>
    </g>
    <g transform="rotate(36.58 -461.46864634 311.06068522) scale(.48927)">
      <g transform="translate(-266.02 62.761) scale(1.6479)">
        <path fill="url(#v)" d="M387.79-110.76s13.663-7.5581 17.151-11.337c3.4884-3.7791 29.942-33.43 36.337-41.57 6.3954-8.1395 19.477-24.128 25.291-28.488 5.814-4.3605 16.57-11.919 16.57-11.919s-7.8488 17.151-17.442 30.233c-9.593 13.081-34.884 42.733-40.116 49.419-5.2326 6.686-17.151 22.674-17.151 22.674z"/>
        <path fill="url(#w)" d="m460.72-184.99-24.088 28.947s10.892-8.8946 14.985-14.029c4.093-5.1348 9.1035-14.918 9.1035-14.918z"/>
      </g>
      <use xlink:href="#f" clip-path="url(#x)" filter="url(#y)" opacity=".5" transform="translate(-360.38 158.22) scale(1.6479)"/>
    </g>
    <path fill="url(#z)" d="M271.33 417.81s27.693 9.9569 31.007 10.238c3.3136.28073 4.9816-1.7324 7.0547-3.248 2.0732-1.5156 6.3467-5.7565 6.3467-5.7565s2.457 10.597 4.8582 12.775c2.4012 2.1782 1.8826 2.0925 4.6713 1.2054 2.7887-.88711 8.3815-8.7546 8.3815-8.7546s2.1577 10.416 3.6354 12.133c1.4777 1.7173 2.7337 1.9116 5.4674.93709 2.7338-.97453 7.946-7.9849 7.946-7.9849l2.718 9.9146s1.0592 2.3979 2.7296 3.0456c1.6703.64768 3.2235.67298 5.683-1.1962s6.0168-10.332 6.0168-10.332l-1.3677-.74694-8.6982 8.5259s-1.9358-10.666-4.1782-12.897c-2.2425-2.2311-1.884-2.0196-4.6713-1.2054-2.7873.81419-8.0146 8.4275-8.0146 8.4275s-2.6235-9.9044-4.3526-12.169c-1.7291-2.2649-2.3826-2.1007-3.7124-2.1994s-2.4474 1.2341-2.4474 1.2341-4.7303 6.3404-6.2199 8.278-4.0814-12.178-5.2867-13.697c-1.2053-1.5197-1.6387-1.9722-4.6713-1.2054-3.0326.76684-10.223 9.4831-10.223 9.4831l-5.485-1.9136 1.1246-11.246-11.544-2.1838z"/>
    <path fill="#fff" d="M166.34 297.81c.53444.98259-6.2102 5.9123-7.2823 24.894-1.2258 21.703 6.3393 40.993 11.395 58.861 5.056 17.867 7.3932 25.403 11.074 38.838 3.6812 13.435 8.2228 32.414 8.2228 32.414l22.402-8.8722-7.4358-32.58s-1.8176.72081-2.9174-2.8252.31113-4.1554.31113-4.1554-2.2919-10.424-4.6045-24.893c-1.0902-6.8222-3.3221-23.053-8.349-39.909-3.716-12.46-6.1048-20.6-13.119-29.114-7.0138-8.5142-9.698-12.658-9.698-12.658z"/>
    <g transform="matrix(.23647 .76239 .76239 -.23647 201.72 192.57)">
      <path fill="url(#A)" d="M112.79-81.395c1.3741.27481 4.7696-9.6251 27.085-17.953 25.514-9.5214 51.404-7.6287 74.659-8.2101 23.256-.5814 33.14-.5814 50.581-1.1628 17.442-.5814 41.837-2.1909 41.837-2.1909l-2.302 30.098-41.743 3.194s.18793-2.4423-4.4632-2.4423c-4.6512 0-4.8567 1.9145-4.8567 1.9145s-13.323 1.1261-31.495 3.7292c-8.5678 1.2273-28.817 4.5806-50.851 4.8214-16.288.17802-26.914.34057-39.705-4.892s-18.746-6.9062-18.746-6.9062z" opacity=".60153"/>
      <use xlink:href="#B" filter="url(#a)"/>
      <path fill="url(#C)" d="m144.09-98.981 38.233-5.3444s-6.9888 4.3166-15.828 5.55c-8.8388 1.2333-22.405-.20556-22.405-.20556z"/>
      <path fill="none" stroke="url(#D)" stroke-width="4" d="M147.69-160.65c1.3741.27481 4.7696-9.625 27.085-17.953 25.514-9.5214 51.404-7.6287 74.659-8.2101 23.256-.5814 33.14-.5814 50.581-1.1628 17.442-.5814 41.837-2.1909 41.837-2.1909l-2.302 30.098-41.743 3.194s.18793-2.4423-4.4632-2.4423c-4.6512 0-4.8567 1.9145-4.8567 1.9145s-13.323 1.1261-31.495 3.7292c-8.5678 1.2273-28.817 4.5806-50.851 4.8214-16.288.17802-26.914.34058-39.705-4.892s-18.746-6.9062-18.746-6.9062z" clip-path="url(#E)" filter="url(#F)" transform="translate(-35.332 78.78)"/>
    </g>
    <g transform="matrix(-.56331 -.34413 -.34413 .56331 559.32 547.79)">
      <path fill="url(#G)" d="m505.52-104.65 68.605-2.6163 27.326 4.3605 1.1628 14.826-22.093 6.1047-29.07-7.5581s-11.628-1.4535-16.57 3.1977c-4.9419 4.6512-5.5232 9.3023-5.5232 13.372v3.4884l8.7209-.5814-3.4884 7.5581-9.0116.5814s.29069-9.593-3.4884-9.593-4.6512 10.174-4.6512 10.174l-31.977-.5814z"/>
      <path fill="none" stroke="url(#H)" stroke-width="4" d="M508.95-71.034s7.6921 1.5784 13.198.15958c7.6463-1.9704 12.175-5.8566 16.326-11.453" filter="url(#I)" opacity=".53257" transform="rotate(-31.503 520.68333308 -53.95939821)"/>
    </g>
    <g transform="matrix(.26931 -.40847 .40847 .26931 -422.69 610.24)">
      <path fill="#fff" d="M976.34 564.92s-25.012 15.637-29.157 29.184c-4.1445 13.547-32.01 296.11-32.01 296.11l58.709 1.0517 4.0294-55.432s-12.039-1.13-12.604-5.6966c-.56482-4.5665 12.604-7.7211 12.604-7.7211l-12.604 1.2296v-6.4915l12.604-7.4562-12.604.96462v-6.4915l12.604-7.1912-12.604.69968v-6.4915l12.604-6.9263-12.604.43475v-6.4915l12.604-6.6613-12.604.16981v-6.4915l12.604-6.3964-12.604-.0951v-6.4915l12.604-6.1315-12.604-.36006v-6.4915l12.604-5.8665-12.604-.62505v-6.4915l12.604-5.6016-12.604-.88998v-6.4915l12.604-5.3366-12.604-1.155v-6.4915l12.604-5.0716-12.604-1.4199v-6.4915l12.604-4.8067-12.604-1.6848v-6.4915l12.604-4.5418-12.604-1.9498v-6.4915l12.604-4.2768-12.604-2.2147v-6.4915l12.604-4.0119-12.604-2.4796v-6.4915l12.604-3.747-12.604-2.7446v-6.4915l12.604-3.482-12.604-3.0095v-6.4915l12.604-3.2171-12.604-3.2744v-6.4915l12.604-2.6154z"/>
      <path fill="url(#J)" d="M976.34 564.92s-25.012 15.637-29.157 29.184c-4.1445 13.547-32.01 296.11-32.01 296.11l58.709 1.0517 4.0294-55.432s-12.039-1.13-12.604-5.6966c-.56482-4.5665 12.604-7.7211 12.604-7.7211l-12.604 1.2296v-6.4915l12.604-7.4562-12.604.96462v-6.4915l12.604-7.1912-12.604.69968v-6.4915l12.604-6.9263-12.604.43475v-6.4915l12.604-6.6613-12.604.16981v-6.4915l12.604-6.3964-12.604-.0951v-6.4915l12.604-6.1315-12.604-.36006v-6.4915l12.604-5.8665-12.604-.62505v-6.4915l12.604-5.6016-12.604-.88998v-6.4915l12.604-5.3366-12.604-1.155v-6.4915l12.604-5.0716-12.604-1.4199v-6.4915l12.604-4.8067-12.604-1.6848v-6.4915l12.604-4.5418-12.604-1.9498v-6.4915l12.604-4.2768-12.604-2.2147v-6.4915l12.604-4.0119-12.604-2.4796v-6.4915l12.604-3.747-12.604-2.7446v-6.4915l12.604-3.482-12.604-3.0095v-6.4915l12.604-3.2171-12.604-3.2744v-6.4915l12.604-2.6154z" opacity=".602"/>
      <use xlink:href="#B" filter="url(#a)" transform="matrix(.22908 1.6153 1.6153 -.22908 1045.7 408.6)"/>
      <path fill="url(#K)" d="m949.57 596.84-5.4037 62.75s6.4288-11.759 7.6744-26.266-2.2707-36.485-2.2707-36.485z"/>
    </g>
    <path fill="url(#L)" d="m281.28 390.68 7.6134 17.766s36.507-40.475 44.715-51.53c8.2084-11.055.54843-30.954.54843-30.954l-56.808 55.063z"/>
    <path fill="url(#M)" d="m281.28 390.68 7.6134 17.766s36.507-40.475 44.715-51.53c8.2084-11.055.54843-30.954.54843-30.954l-56.808 55.063z"/>
    <path fill="url(#N)" d="M271.33 417.81s27.693 9.9569 31.007 10.238c3.3136.28073 4.9816-1.7324 7.0547-3.248 2.0732-1.5156 6.3467-5.7565 6.3467-5.7565s2.457 10.597 4.8582 12.775c2.4012 2.1782 1.8826 2.0925 4.6713 1.2054 2.7887-.88711 8.3815-8.7546 8.3815-8.7546s2.1577 10.416 3.6354 12.133c1.4777 1.7173 2.7337 1.9116 5.4674.93709 2.7338-.97453 7.946-7.9849 7.946-7.9849l2.718 9.9146s1.0592 2.3979 2.7296 3.0456c1.6703.64768 3.2235.67298 5.683-1.1962s6.0168-10.332 6.0168-10.332l-1.3677-.74694-8.6982 8.5259s-1.9358-10.666-4.1782-12.897c-2.2425-2.2311-1.884-2.0196-4.6713-1.2054-2.7873.81419-8.0146 8.4275-8.0146 8.4275s-2.6235-9.9044-4.3526-12.169c-1.7291-2.2649-2.3826-2.1007-3.7124-2.1994s-2.4474 1.2341-2.4474 1.2341-4.7303 6.3404-6.2199 8.278-4.0814-12.178-5.2867-13.697c-1.2053-1.5197-1.6387-1.9722-4.6713-1.2054-3.0326.76684-10.223 9.4831-10.223 9.4831l-5.485-1.9136 1.1246-11.246-11.544-2.1838z"/>
    <path fill="#c72d25" d="M187.97 454.65c4.2375-5.602 111.69-129.65 120.88-136.94 9.1929-7.2957 9.2851-5.9276 14.111-6.1928 4.8259-.26518 9.1311 1.4937 12.967 4.0648s9.0256 10.856 9.0256 10.856-60.812 63.889-60.006 66.757c.80595 2.8682 4.8978 14.879 4.8978 14.879s-62.481 77.495-73.812 80.176c-11.33 2.6801-11.808 2.1901-16.715.45689-4.9067-1.7332-8.1446-3.8203-11.031-9.4134-2.8868-5.5931-4.5534-19.038-.31598-24.64z"/>
    <path fill="#cf453a" d="M1450.8 617.84c-17.69 3.7903-31.697 17.158-45.446 28.386-87.277 69.988-173.59 141.38-258.46 214.43-8.0385 13.453-7.7753 31.308-.3125 44.844 11.659 15.341 35.789 15.189 50.125 3.5625 32.746-22.089 62.654-48.072 93.019-73.363 19.174-16.323 38.207-33.062 56.981-49.887-1.6686-11.182-6.5954-23.43-1.625-34.375 21.879-23.972 49.557-41.658 74.276-62.577 20.93-16.406 41.938-32.695 63.068-48.86-5.5302-12.123-17.685-22.813-31.625-22.156z" filter="url(#O)" transform="matrix(.48302 -.07789 .07789 .48302 -428.38 132.05)"/>
    <path fill="none" stroke="url(#P)" stroke-width="3" d="M248.84 2.0814s1.7442 5.5233 9.8837 7.2674c8.1395 1.7442 35.465 1.7442 35.465 1.7442" filter="url(#Q)" opacity=".50192" transform="matrix(.62769 -.7043 .69679 .62306 46.791 656.35)"/>
    <path fill="none" stroke="url(#R)" stroke-width="3" d="M191.86 126.74s1.7442 5.5233 9.8837 7.2674c8.1395 1.7442 62.791.87209 62.791.87209" filter="url(#Q)" opacity=".50192" transform="matrix(.62769 -.7043 -.69679 -.62306 160.54 681.58)"/>
    <path fill="none" stroke="url(#S)" stroke-linecap="round" stroke-width="2" d="m290.41-25.535 154.94-.5814" filter="url(#T)" opacity=".61303" transform="matrix(.62769 -.7043 .69679 .62306 46.791 656.35)"/>
    <path fill="none" stroke="url(#U)" stroke-width="2" d="M445.35-26.116c14.451-4.6356 29.353 8.6607 23.844 24.667" filter="url(#V)" opacity=".7" transform="matrix(.62769 -.7043 .69679 .62306 46.791 656.35)"/>
    <g transform="matrix(.44927 -.21547 .21547 .44927 -18.663 123.37)">
      <path fill="#4d4d4d" d="M245.6 604.36c0 4.8444-3.9272 8.7716-8.7716 8.7716s-8.7716-3.9272-8.7716-8.7716 3.9272-8.7716 8.7716-8.7716 8.7716 3.9272 8.7716 8.7716z" filter="url(#W)" transform="translate(4.7384 15.992)"/>
      <path fill="url(#X)" d="M241.57 611.59c-4.1388 0-7.6085 2.8627-8.5312 6.7188h17.062c-.92279-3.856-4.3924-6.7188-8.5312-6.7188zm-8.4062 11.25c1.0719 3.6335 4.4254 6.2812 8.4062 6.2812s7.3343-2.6477 8.4062-6.2812h-16.812z"/>
    </g>
  </g>
</svg>