<?xml version="1.0" encoding="UTF-8" standalone="no"?>
<svg
   width="325.35681"
   height="287.66043"
   fill="#ffffff"
   version="1.1"
   id="svg15003"
   xmlns="http://www.w3.org/2000/svg"
   xmlns:svg="http://www.w3.org/2000/svg">
  <defs
     id="defs15007">
    <clipPath
       clipPathUnits="userSpaceOnUse"
       id="clipPath15097">
      <path
         d="m 147.1914,4.4884 c -48.814995,0 -88.749,44.482 -89.636,94.418 v 5.447 c 4.9945,120.07 141.1,172.43 158.19,178.54 17.09,-6.1188 153.19999,-58.479 158.19,-178.54 v -5.447 c -0.88754,-49.936 -40.82101,-94.418 -89.636,-94.418 -27.547,0 -51.735,14.539 -68.554,35.295 -16.81801,-20.756 -41.007,-35.295 -68.554,-35.295 z"
         fill="none"
         stroke="#000000"
         stroke-width="8.9768"
         id="path15099" />
    </clipPath>
    <clipPath
       clipPathUnits="userSpaceOnUse"
       id="clipPath15101">
      <path
         d="m 147.1914,4.4884 c -48.814995,0 -88.749,44.482 -89.636,94.418 v 5.447 c 4.9945,120.07 141.1,172.43 158.19,178.54 17.09,-6.1188 153.19999,-58.479 158.19,-178.54 v -5.447 c -0.88754,-49.936 -40.82101,-94.418 -89.636,-94.418 -27.547,0 -51.735,14.539 -68.554,35.295 -16.81801,-20.756 -41.007,-35.295 -68.554,-35.295 z"
         fill="none"
         stroke="#000000"
         stroke-width="8.9768"
         id="path15103" />
    </clipPath>
    <clipPath
       clipPathUnits="userSpaceOnUse"
       id="clipPath15105">
      <path
         d="m 147.1914,4.4884 c -48.814995,0 -88.749,44.482 -89.636,94.418 v 5.447 c 4.9945,120.07 141.1,172.43 158.19,178.54 17.09,-6.1188 153.19999,-58.479 158.19,-178.54 v -5.447 c -0.88754,-49.936 -40.82101,-94.418 -89.636,-94.418 -27.547,0 -51.735,14.539 -68.554,35.295 -16.81801,-20.756 -41.007,-35.295 -68.554,-35.295 z"
         fill="none"
         stroke="#000000"
         stroke-width="8.9768"
         id="path15107" />
    </clipPath>
    <clipPath
       clipPathUnits="userSpaceOnUse"
       id="clipPath15109">
      <path
         d="m 147.1914,4.4884 c -48.814995,0 -88.749,44.482 -89.636,94.418 v 5.447 c 4.9945,120.07 141.1,172.43 158.19,178.54 17.09,-6.1188 153.19999,-58.479 158.19,-178.54 v -5.447 c -0.88754,-49.936 -40.82101,-94.418 -89.636,-94.418 -27.547,0 -51.735,14.539 -68.554,35.295 -16.81801,-20.756 -41.007,-35.295 -68.554,-35.295 z"
         fill="none"
         stroke="#000000"
         stroke-width="8.9768"
         id="path15111" />
    </clipPath>
  </defs>
  <g
     id="g15517">
    <g
       id="g15491">
      <path
         d="M 0,0 H 431.49 V 287.66 H 0 Z"
         fill="#fe0000"
         id="path14995"
         style="stroke-width:0.479433"
         clip-path="url(#clipPath15109)"
         transform="translate(-53.555,-2.488)" />
      <path
         d="M 0,0 H 215.745 V 143.83 H 0 Z"
         fill="#000095"
         id="path14997"
         style="stroke-width:0.479433"
         clip-path="url(#clipPath15105)"
         transform="translate(-53.555,-2.488)" />
      <path
         d="M 142.8725,32.979 120.90425,114.96568 180.92268,54.94725 98.936,76.9155 180.92268,98.88375 120.90425,38.865319 142.8725,120.852 164.84075,38.865319 104.82232,98.88375 186.809,76.9155 104.82232,54.94725 164.84075,114.96568 142.8725,32.979"
         id="path14999"
         style="stroke-width:0.390546;fill:#f9f9f9;fill-opacity:1"
         clip-path="url(#clipPath15101)"
         transform="translate(-53.555,-2.488)" />
      <circle
         cy="76.915497"
         cx="142.8725"
         r="23.4328"
         stroke="#000095"
         stroke-width="2.9291"
         id="circle15001"
         clip-path="url(#clipPath15097)"
         transform="translate(-53.555,-2.488)"
         style="fill:#f9f9f9;fill-opacity:1" />
    </g>
    <path
       d="m 94.1244,4.4884 c -48.815,0 -88.749,44.482 -89.636,94.418 v 5.447 c 4.9945,120.07 141.1,172.43 158.19,178.54 17.09,-6.1188 153.2,-58.479 158.19,-178.54 v -5.447 c -0.88754,-49.936 -40.821,-94.418 -89.636,-94.418 -27.547,0 -51.735,14.539 -68.554,35.295 -16.81801,-20.756 -41.00701,-35.295 -68.554,-35.295 z"
       fill="none"
       stroke="#000000"
       stroke-width="8.9768"
       id="path3359"
       style="stroke:#ffffff;stroke-opacity:1" />
  </g>
</svg>
