<?xml version="1.0" encoding="UTF-8" standalone="no"?>
<!-- Created with Inkscape (http://www.inkscape.org/) -->

<svg
   xmlns:dc="http://purl.org/dc/elements/1.1/"
   xmlns:cc="http://creativecommons.org/ns#"
   xmlns:rdf="http://www.w3.org/1999/02/22-rdf-syntax-ns#"
   xmlns:svg="http://www.w3.org/2000/svg"
   xmlns="http://www.w3.org/2000/svg"
   xmlns:sodipodi="http://sodipodi.sourceforge.net/DTD/sodipodi-0.dtd"
   xmlns:inkscape="http://www.inkscape.org/namespaces/inkscape"
   width="1600"
   height="1600"
   viewBox="0 0 423.33332 423.33334"
   version="1.1"
   id="svg8"
   inkscape:version="0.92.4 (5da689c313, 2019-01-14)"
   sodipodi:docname="Texas_15_1917.svg">
  <defs
     id="defs2" />
  <sodipodi:namedview
     id="base"
     pagecolor="#ffffff"
     bordercolor="#666666"
     borderopacity="1.0"
     inkscape:pageopacity="0.0"
     inkscape:pageshadow="2"
     inkscape:zoom="0.24748737"
     inkscape:cx="-661.67745"
     inkscape:cy="934.5701"
     inkscape:document-units="mm"
     inkscape:current-layer="layer1"
     showgrid="false"
     units="px"
     inkscape:snap-bbox="true"
     inkscape:bbox-paths="true"
     inkscape:bbox-nodes="true"
     inkscape:snap-bbox-edge-midpoints="true"
     inkscape:snap-bbox-midpoints="true"
     inkscape:snap-object-midpoints="true"
     inkscape:snap-center="true"
     inkscape:snap-page="true"
     inkscape:object-paths="true"
     inkscape:snap-intersection-paths="true"
     inkscape:snap-smooth-nodes="true"
     inkscape:snap-midpoints="true"
     inkscape:snap-text-baseline="true"
     inkscape:window-width="1920"
     inkscape:window-height="1001"
     inkscape:window-x="-9"
     inkscape:window-y="-9"
     inkscape:window-maximized="1" />
  <metadata
     id="metadata5">
    <rdf:RDF>
      <cc:Work
         rdf:about="">
        <dc:format>image/svg+xml</dc:format>
        <dc:type
           rdf:resource="http://purl.org/dc/dcmitype/StillImage" />
        <dc:title></dc:title>
      </cc:Work>
    </rdf:RDF>
  </metadata>
  <g
     inkscape:label="Layer 1"
     inkscape:groupmode="layer"
     id="layer1"
     transform="translate(0,126.33335)">
    <rect
       style="opacity:1;fill:#feffff;fill-opacity:1;stroke:#000000;stroke-width:0.9431622;stroke-linecap:square;stroke-linejoin:miter;stroke-miterlimit:0;stroke-dasharray:none;stroke-opacity:1;paint-order:markers stroke fill"
       id="rect825"
       width="422.84018"
       height="422.84018"
       x="0.021581125"
       y="-125.86177" />
    <path
       style="opacity:1;fill:#000000;fill-opacity:1;stroke:none;stroke-width:4.92839146;stroke-linecap:square;stroke-linejoin:miter;stroke-miterlimit:0;stroke-dasharray:none;stroke-opacity:1;paint-order:markers stroke fill"
       d="M 25 25 L 25 1575 L 1575 1575 L 1575 25 L 25 25 z M 50 50 L 1550 50 L 1550 1550 L 50 1550 L 50 50 z "
       transform="matrix(0.26458333,0,0,0.26458333,0,-126.33335)"
       id="rect827" />
    <path
       style="opacity:1;fill:#000004;fill-opacity:1;stroke:none;stroke-width:26.13921165;stroke-miterlimit:4;stroke-dasharray:none;stroke-opacity:1;paint-order:normal"
       d="M 800 92.369141 A 707.62991 707.62991 0 0 0 92.369141 800 A 707.62991 707.62991 0 0 0 800 1507.6309 A 707.62991 707.62991 0 0 0 1507.6309 800 A 707.62991 707.62991 0 0 0 800 92.369141 z M 800 120 A 680.00002 680.00002 0 0 1 1480 800 A 680.00002 680.00002 0 0 1 800 1480 A 680.00002 680.00002 0 0 1 120 800 A 680.00002 680.00002 0 0 1 800 120 z "
       transform="matrix(0.26458333,0,0,0.26458333,0,-126.33335)"
       id="path821" />
    <path
       style="opacity:1;fill:#000004;fill-opacity:1;stroke:none;stroke-width:20.31650162;stroke-miterlimit:4;stroke-dasharray:none;stroke-opacity:1;paint-order:normal"
       d="M 791.20117 250.31055 A 549.99998 549.99998 0 0 0 280.4668 621.29492 L 670.66211 621.29492 L 791.20117 250.31055 z M 809.85742 250.49414 L 930.33789 621.29492 L 1319.4629 621.29492 A 549.99998 549.99998 0 0 0 809.85742 250.49414 z M 274.28125 638.57227 A 549.99998 549.99998 0 0 0 250 800 A 549.99998 549.99998 0 0 0 469.92773 1239.0957 L 590.41797 868.25977 L 274.28125 638.57227 z M 1325.5 639.45898 L 1010.582 868.25977 L 1130.9316 1238.6621 A 549.99998 549.99998 0 0 0 1350 800 A 549.99998 549.99998 0 0 0 1325.5 639.45898 z M 800.5 1020.8926 L 484.70703 1250.3301 A 549.99998 549.99998 0 0 0 800 1350 A 549.99998 549.99998 0 0 0 1115.4609 1249.7246 L 800.5 1020.8926 z "
       transform="matrix(0.26458333,0,0,0.26458333,0,-126.33335)"
       id="path821-1" />
    <g
       aria-label="HIGHWAY"
       style="font-style:normal;font-variant:normal;font-weight:normal;font-stretch:normal;font-size:50.79999924px;line-height:1.25;font-family:'FHWA 1926 square D';-inkscape-font-specification:'FHWA 1926 square D';text-align:center;letter-spacing:0px;word-spacing:0px;text-anchor:middle;fill:#000000;fill-opacity:1;stroke:none;stroke-width:0.26458332"
       id="text988">
      <path
         d="m 112.41421,196.77768 3.76417,2.88292 q 0.10083,0.0772 0.0236,0.17804 l -6.58953,8.60384 10.35149,7.92802 6.58952,-8.60383 q 0.11083,-0.0751 0.17805,-0.0236 l 3.76418,2.88292 q 0.10082,0.0772 0.0236,0.17805 l -17.09158,22.31619 q -0.0772,0.10082 -0.17805,0.0236 l -3.76417,-2.88291 q -0.10083,-0.0772 -0.0236,-0.17805 l 7.49044,-9.78014 -10.35149,-7.92802 -7.490435,9.78014 q -0.07722,0.10082 -0.178047,0.0236 l -3.764177,-2.88292 q -0.100826,-0.0772 -0.02361,-0.17804 l 17.091584,-22.31619 q 0.0772,-0.10083 0.17805,-0.0236 z"
         style="font-style:normal;font-variant:normal;font-weight:normal;font-stretch:normal;font-size:42.33333206px;font-family:'FHWA 1926 square E';-inkscape-font-specification:'FHWA 1926 square E';letter-spacing:11.90625px"
         id="path1027" />
      <path
         d="m 142.85371,217.26515 4.24284,2.11625 q 0.11365,0.0567 0.057,0.17033 l -12.54632,25.15402 q -0.0567,0.11364 -0.17033,0.057 l -4.24285,-2.11625 q -0.11365,-0.0567 -0.057,-0.17033 l 12.54632,-25.15402 q 0.0567,-0.11364 0.17033,-0.057 z"
         style="font-style:normal;font-variant:normal;font-weight:normal;font-stretch:normal;font-size:42.33333206px;font-family:'FHWA 1926 square E';-inkscape-font-specification:'FHWA 1926 square E';letter-spacing:11.90625px"
         id="path1029" />
      <path
         d="m 164.15808,226.47414 14.3831,4.05458 q 2.44472,0.68916 2.93826,3.77516 0.0492,0.76159 -0.20348,1.65799 l -1.05672,3.74857 q -0.0345,0.12223 -0.15669,0.0878 l -4.56348,-1.28644 q -0.12224,-0.0345 -0.0878,-0.1567 l 0.62025,-2.20024 q 0.31012,-1.10013 -0.3418,-1.28391 l -11.20497,-3.15866 q -0.73341,-0.20675 -0.94016,0.52666 l -4.58294,16.25739 q -0.166,0.7449 0.44518,0.91719 l 11.28645,3.18164 q 0.65193,0.18378 0.95056,-0.8756 l 0.97632,-3.46335 -2.03727,-0.57431 q -0.12223,-0.0345 -0.0878,-0.15669 l 1.30941,-4.64497 q 0.023,-0.0815 0.1452,-0.047 l 7.94534,2.23978 q 0.12224,0.0345 0.0993,0.11595 l -1.30941,4.64497 q -0.0345,0.12223 -0.1567,0.0878 l -1.10012,-0.31013 -1.41279,5.01168 q -0.87294,3.09664 -4.19822,3.3468 -0.60489,-0.0386 -0.9716,-0.14195 l -14.3831,-4.05458 q -2.40397,-0.67767 -2.91528,-3.85666 0.009,-0.65712 0.13565,-1.10532 l 5.51331,-19.55775 q 0.68917,-2.44472 3.85666,-2.91529 0.65713,0.009 1.10532,0.13566 z"
         style="font-style:normal;font-variant:normal;font-weight:normal;font-stretch:normal;font-size:42.33333206px;font-family:'FHWA 1926 square E';-inkscape-font-specification:'FHWA 1926 square E';letter-spacing:11.90625px"
         id="path1031" />
      <path
         d="m 195.37871,233.64167 4.73863,0.16 q 0.12693,0.004 0.12264,0.13121 l -0.36571,10.83116 13.03124,0.44001 0.36571,-10.83116 q 0.0466,-0.1255 0.13122,-0.12264 l 4.73863,0.16 q 0.12693,0.004 0.12264,0.13121 l -0.94858,28.09332 q -0.004,0.12693 -0.13121,0.12265 l -4.73864,-0.16001 q -0.12692,-0.004 -0.12264,-0.13121 l 0.41572,-12.31198 -13.03124,-0.44001 -0.41572,12.31199 q -0.004,0.12692 -0.13121,0.12264 l -4.73863,-0.16 q -0.12693,-0.004 -0.12265,-0.13122 l 0.94859,-28.09332 q 0.004,-0.12693 0.13121,-0.12264 z"
         style="font-style:normal;font-variant:normal;font-weight:normal;font-stretch:normal;font-size:42.33333206px;font-family:'FHWA 1926 square E';-inkscape-font-specification:'FHWA 1926 square E';letter-spacing:11.90625px"
         id="path1033" />
      <path
         d="m 228.21337,233.75109 4.68491,-0.96701 q 0.16584,-0.0342 1.29794,3.14692 l 4.68894,11.82697 0.0829,-0.0171 q 0.33535,-4.86728 1.35142,-16.4886 l 2.52902,-0.52201 q 0.26587,0.0316 1.82113,3.16861 1.00698,1.7373 6.17292,11.47744 l 0.0415,-0.009 -0.56427,-16.13641 0.11582,-0.0671 4.64345,-0.95845 0.13294,0.0158 q 1.6396,27.62862 1.66203,28.57496 l -4.76782,0.98412 q -0.2073,0.0428 -7.5945,-13.12916 l -0.0829,0.0171 q 0.004,0.64756 -1.6924,15.04608 l -4.76782,0.98413 q -0.24876,0.0513 -1.23937,-3.07257 -0.34555,-0.83641 -8.63162,-23.80798 z"
         style="font-style:normal;font-variant:normal;font-weight:normal;font-stretch:normal;font-size:42.33333206px;font-family:'FHWA 1926 square E';-inkscape-font-specification:'FHWA 1926 square E';letter-spacing:11.90625px"
         id="path1035" />
      <path
         d="m 277.35928,218.61781 q 0.15312,-0.0723 3.09522,2.98597 17.15074,17.08847 18.20232,18.3241 l -4.5554,2.15091 q -0.1914,0.0904 -2.85598,-2.67759 -1.53857,-1.47384 -1.61514,-1.43769 l -10.8717,5.13327 q -0.11485,0.0542 0.41447,5.14122 0.0755,0.85386 -0.0777,0.92615 l -4.44055,2.09669 -0.13292,0.016 q -2.97176,-29.49477 -2.98131,-29.91159 z m -0.16195,7.19236 q 0.10632,0.32432 1.03409,12.10498 l 7.73269,-3.65112 -0.0181,-0.0383 -8.67214,-8.45172 z"
         style="font-style:normal;font-variant:normal;font-weight:normal;font-stretch:normal;font-size:42.33333206px;font-family:'FHWA 1926 square E';-inkscape-font-specification:'FHWA 1926 square E';letter-spacing:11.90625px"
         id="path1037" />
      <path
         d="m 293.5251,209.9968 4.93095,-3.9335 q 11.22182,3.0701 11.82976,3.28912 l 0.0993,-0.0792 q -0.64487,-11.66995 -0.54483,-12.29128 l 4.93095,-3.9335 0.0264,0.0331 0.93882,18.96269 7.97259,9.99428 q 0.0792,0.0993 -0.0201,0.17847 l -3.70648,2.95673 q -0.0993,0.0792 -0.17848,-0.0201 l -7.81419,-9.79571 q -0.2112,-0.26475 -5.68341,-1.69382 l -12.75487,-3.6342 z"
         style="font-style:normal;font-variant:normal;font-weight:normal;font-stretch:normal;font-size:42.33333206px;font-family:'FHWA 1926 square E';-inkscape-font-specification:'FHWA 1926 square E';letter-spacing:11.90625px"
         id="path1039" />
    </g>
    <text
       xml:space="preserve"
       style="font-style:normal;font-variant:normal;font-weight:normal;font-stretch:normal;font-size:50.79999924px;line-height:1.25;font-family:'FHWA 1926 square D';-inkscape-font-specification:'FHWA 1926 square D';text-align:center;letter-spacing:0px;word-spacing:0px;text-anchor:middle;fill:#000000;fill-opacity:1;stroke:none;stroke-width:0.26458332"
       x="258.15775"
       y="241.81546"
       id="text1010"><tspan
         sodipodi:role="line"
         id="tspan1008"
         x="258.15775"
         y="287.98798"
         style="stroke-width:0.26458332" /></text>
    <g
       aria-label="STATE"
       style="font-style:normal;font-variant:normal;font-weight:normal;font-stretch:normal;font-size:50.79999924px;line-height:1.25;font-family:'FHWA 1926 square E';-inkscape-font-specification:'FHWA 1926 square E';text-align:center;letter-spacing:0px;word-spacing:0px;text-anchor:middle;fill:#000000;fill-opacity:1;stroke:none;stroke-width:0.26458332"
       id="text1044">
      <path
         d="m 141.95229,-77.057223 13.97632,-5.289197 q 2.37558,-0.899013 4.60686,1.289226 0.49228,0.583179 0.82192,1.454225 l 1.37848,3.642554 q 0.045,0.118779 -0.0738,0.163729 l -4.43441,1.678159 q -0.11878,0.04495 -0.16373,-0.07383 l -0.80911,-2.138021 q -0.38957,-1.029418 -1.02306,-0.789681 l -10.88807,4.120479 q -0.69769,0.309297 -0.47294,0.903192 l 1.31856,3.484182 q 0.30929,0.69769 0.90319,0.472937 l 12.19464,-4.614936 q 2.85069,-1.078817 5.09804,1.51071 0.38849,0.667723 0.58327,1.182432 l 3.25144,8.591676 q 1.13875,3.009066 -1.38658,5.18686 -0.50935,0.328549 -0.86569,0.463401 l -13.97632,5.289196 q -2.33598,0.88403 -4.62184,-1.328818 -0.39811,-0.573554 -0.56293,-1.009077 l -1.73809,-4.592785 q -0.045,-0.118779 0.0738,-0.16373 l 4.43441,-1.678158 q 0.11878,-0.04495 0.16373,0.07383 l 1.12377,2.969473 q 0.30929,0.69769 0.90319,0.472937 l 10.96725,-4.150446 q 0.63349,-0.239737 0.24392,-1.269154 l -2.14265,-5.661796 q -0.38957,-1.029418 -1.14184,-0.74473 l -12.3926,4.689854 q -2.33599,0.88403 -4.62184,-1.328819 -0.39811,-0.573553 -0.56293,-1.009076 l -2.50226,-6.612027 q -0.88403,-2.335986 1.32882,-4.621843 0.57355,-0.398109 1.00908,-0.562928 z"
         style="font-size:42.33333206px"
         id="path1049" />
      <path
         d="m 170.01493,-86.533321 20.20117,-3.669076 q 0.13252,0.01896 0.14765,0.102261 l 0.83973,4.62336 q 0.0227,0.124955 -0.10226,0.147651 l -7.66395,1.391979 4.1608,22.908541 q 0.0227,0.124956 -0.10226,0.147651 l -4.66501,0.847292 q -0.12495,0.02269 -0.14765,-0.10226 l -4.16081,-22.908542 -7.62229,1.384415 q -0.12496,0.02269 -0.14765,-0.102261 l -0.83973,-4.62336 q -0.0227,-0.124956 0.10226,-0.147651 z"
         style="font-size:42.33333206px"
         id="path1051" />
      <path
         d="m 214.6438,-91.182619 q 0.16933,2.73e-4 1.51753,4.024112 8.17604,22.788509 8.59685,24.355521 l -5.03766,-0.0081 q -0.21166,-3.4e-4 -1.43348,-3.642976 -0.7588,-1.990889 -0.84346,-1.991025 l -12.02265,-0.01933 q -0.127,-2.04e-4 -1.82809,4.823067 -0.29763,0.803856 -0.46696,0.803583 l -4.91066,-0.0079 -0.12693,-0.04254 q 9.95091,-27.924035 10.12085,-28.304762 z m -3.22767,6.429485 q -0.0429,0.338598 -4.25164,11.380845 l 8.55132,0.01375 7e-5,-0.04233 -4.21509,-11.352126 z"
         style="font-size:42.33333206px"
         id="path1053" />
      <path
         d="m 232.75437,-90.188704 20.20521,3.646765 q 0.11746,0.06422 0.10242,0.147538 l -0.83462,4.624285 q -0.0226,0.12498 -0.14754,0.102423 l -7.66548,-1.383515 -4.13551,22.913122 q -0.0225,0.12498 -0.14753,0.102423 l -4.66595,-0.842139 q -0.12498,-0.02256 -0.10242,-0.147538 l 4.1355,-22.913122 -7.62382,-1.375996 q -0.12498,-0.02256 -0.10242,-0.147538 l 0.83462,-4.624285 q 0.0226,-0.124981 0.14754,-0.102423 z"
         style="font-size:42.33333206px"
         id="path1055" />
      <path
         d="m 263.12996,-83.715195 21.29705,7.951419 q 0.11897,0.04442 0.0745,0.163399 l -1.62878,4.362524 q -0.0444,0.118977 -0.1634,0.07456 l -16.73623,-6.2486 -2.35433,6.305829 10.2321,3.820235 q 0.11898,0.04442 0.0746,0.163399 l -1.64359,4.402183 q -0.0444,0.118978 -0.1634,0.07456 l -10.2321,-3.820234 -2.35433,6.305829 16.73623,6.248601 q 0.10417,0.08408 0.0746,0.163399 l -1.6584,4.441842 q -0.0444,0.118978 -0.1634,0.07456 L 253.224,-57.183119 q -0.11898,-0.04442 -0.0745,-0.1634 l 9.81711,-26.294119 q 0.0444,-0.118978 0.1634,-0.07456 z"
         style="font-size:42.33333206px"
         id="path1057" />
    </g>
    <g
       aria-label="15"
       style="font-style:normal;font-variant:normal;font-weight:normal;font-stretch:normal;font-size:115.62384033px;line-height:1.25;font-family:'FHWA 1926 square C';-inkscape-font-specification:'FHWA 1926 square C';text-align:center;letter-spacing:0px;word-spacing:0px;text-anchor:middle;fill:#000000;fill-opacity:1;stroke:none;stroke-width:0.60220748"
       id="text1062">
      <path
         d="m 180.93243,46.599326 h 11.90926 q 0.34687,0 0.34687,0.346871 v 76.774233 q 0,0.34687 -0.34687,0.34687 h -11.90926 q -0.34687,0 -0.34687,-0.34687 V 62.09292 h -7.39992 q -0.34688,0 -0.34688,-0.346871 v -7.053054 q 0,-0.346872 3.23747,-1.040615 4.50933,-2.659348 4.50933,-6.93743 z"
         style="font-style:normal;font-variant:normal;font-weight:normal;font-stretch:normal;font-family:'FHWA 1926 square C';-inkscape-font-specification:'FHWA 1926 square C';letter-spacing:-5.29166651px;stroke-width:0.60220748"
         id="path842" />
      <path
         d="m 203.32003,46.599326 h 43.24332 q 0.34687,0 0.34687,0.346871 v 11.909256 q 0,0.346871 -0.34687,0.346871 h -30.98719 v 16.996705 h 18.26857 q 7.97804,0 10.63739,4.162458 2.4281,2.659349 2.4281,6.821807 v 26.362236 q 0,6.93743 -7.97805,10.1749 -1.27186,0.34687 -2.4281,0.34687 h -23.24039 q -6.12806,0 -9.59678,-6.93743 -0.69374,-1.61874 -0.69374,-3.35309 v -11.09989 q 0,-0.34687 0.34687,-0.34687 h 11.90926 q 0.34687,0.11562 0.34687,0.34687 v 6.70618 q 0,2.08123 2.08123,2.08123 h 14.79985 q 1.84998,0 1.84998,-2.19685 V 90.998881 q -0.11562,-2.08123 -1.73436,-2.08123 h -19.07793 q -0.92499,0 -10.52177,-7.515549 V 46.946197 q 0,-0.346871 0.34687,-0.346871 z"
         style="font-style:normal;font-variant:normal;font-weight:normal;font-stretch:normal;font-family:'FHWA 1926 square C';-inkscape-font-specification:'FHWA 1926 square C';letter-spacing:-5.29166651px;stroke-width:0.60220748"
         id="path844" />
    </g>
  </g>
</svg>
