<?xml version="1.0" encoding="UTF-8" standalone="no"?>
<!-- Created with Inkscape (http://www.inkscape.org/) -->

<svg
   xmlns:dc="http://purl.org/dc/elements/1.1/"
   xmlns:cc="http://creativecommons.org/ns#"
   xmlns:rdf="http://www.w3.org/1999/02/22-rdf-syntax-ns#"
   xmlns:svg="http://www.w3.org/2000/svg"
   xmlns="http://www.w3.org/2000/svg"
   xmlns:inkscape="http://www.inkscape.org/namespaces/inkscape"
   version="1.0"
   width="384"
   height="384"
   id="svg2">
  <defs
     id="defs14" />
  <metadata
     id="metadata7">
    <rdf:RDF>
      <cc:Work
         rdf:about="">
        <dc:format>image/svg+xml</dc:format>
        <dc:type
           rdf:resource="http://purl.org/dc/dcmitype/StillImage" />
        <dc:title />
      </cc:Work>
    </rdf:RDF>
  </metadata>
  <g
     transform="translate(-888,219.64)"
     id="layer1">
    <rect
       width="384"
       height="384"
       rx="24"
       ry="24"
       x="888"
       y="-219.64"
       id="rect2178"
       style="color:#000000;fill:#000000;fill-rule:nonzero;marker-start:none;marker-mid:none;marker-end:none;enable-background:accumulate" />
    <rect
       width="336"
       height="336"
       x="912"
       y="-195.64"
       id="rect3152"
       style="color:#000000;fill:#ffffff;fill-rule:nonzero;marker-start:none;marker-mid:none;marker-end:none;enable-background:accumulate" />
    <g
       id="routenum"
       style="font-size:167.16000366px;font-style:normal;font-weight:normal;writing-mode:lr-tb;fill:#000000;font-family:Bitstream Vera Sans">
      <path
         d="m 1023,43.073 c -10e-5,6.2407 -1.226,11.98 -3.6776,17.218 -2.3403,5.2377 -5.6835,9.8068 -10.03,13.707 -4.3463,3.9004 -9.5283,6.965 -15.546,9.1938 -5.9064,2.1174 -12.426,3.1761 -19.558,3.1761 -4.9034,-2e-6 -9.7511,-0.5572 -14.543,-1.6716 -4.6805,-1.1144 -8.971,-2.6746 -12.871,-4.6805 l 8.6924,-15.713 c 2.3402,1.2259 5.4048,2.2288 9.1938,3.0089 3.7889,0.66866 7.7451,1.003 11.868,1.003 4.0118,1.6e-5 7.7451,-0.61291 11.2,-1.8388 3.566,-1.3373 6.6306,-3.1203 9.1938,-5.3491 2.6745,-2.2288 4.7361,-4.8476 6.1849,-7.8566 1.4487,-3.1203 2.173,-6.5192 2.1731,-10.197 -10e-5,-2.786 -0.5573,-5.3491 -1.6716,-7.6894 -1.003,-2.3402 -2.4518,-4.4018 -4.3462,-6.185 -1.7831,-1.783 -3.9005,-3.176 -6.3521,-4.179 -2.3403,-1.0029 -4.9034,-1.5044 -7.6894,-1.5044 -2.006,6.1e-5 -3.789,0.16722 -5.3492,0.50148 -1.4488,0.33438 -2.8418,0.9473 -4.179,1.8388 -1.3373,0.89158 -2.6746,2.1174 -4.0119,3.6775 -1.3373,1.4488 -2.8418,3.3433 -4.5133,5.6835 l -17.719,-5.0148 2.8417,-57.838 h 64.357 v 17.719 h -47.139 l -1.1701,18.388 c 4.1233,-1.2258 7.355,-2.0616 9.6953,-2.5074 2.3402,-0.44568 4.9033,-0.66856 7.6894,-0.66864 5.1262,7.91e-5 9.9182,1.003 14.376,3.0089 4.569,2.006 8.5252,4.7363 11.868,8.1909 3.4546,3.4547 6.1292,7.4666 8.0238,12.036 2.0058,4.5691 3.0088,9.4168 3.0089,14.543"
         inkscape:connector-curvature="0"
         id="path2990"
         style="text-align:center" />
      <path
         d="m 1124.4,28.53 c -1e-4,8.9153 -1.0588,17.44 -3.1761,25.576 -2.1174,8.1352 -5.1263,14.71 -9.0266,19.725 -6.2408,8.358 -15.268,12.537 -27.08,12.537 -7.9123,-2e-6 -14.432,-1.6159 -19.558,-4.8477 -5.1263,-3.2318 -9.361,-8.3023 -12.704,-15.212 -2.3403,-4.7919 -4.2348,-10.587 -5.6835,-17.385 -1.4487,-6.9093 -2.1731,-13.707 -2.1731,-20.394 0,-9.2495 1.0587,-17.83 3.1761,-25.743 2.2288,-7.9122 5.2376,-14.543 9.0266,-19.892 3.3432,-4.2346 7.2994,-7.355 11.868,-9.361 4.6804,-2.1173 10.252,-3.1759 16.716,-3.1761 7.1322,1.14e-4 13.206,1.616 18.221,4.8477 5.0147,3.2319 9.3052,8.3024 12.871,15.212 2.3401,5.0149 4.1789,10.866 5.5163,17.552 1.3372,6.6865 2.0058,13.54 2.0059,20.561 m -17.719,0 c 0,-6.352 -0.5572,-12.203 -1.6716,-17.552 -1.1144,-5.4605 -2.786,-10.085 -5.0148,-13.874 -1.7831,-2.8974 -3.8447,-5.0147 -6.1849,-6.3521 -2.2289,-1.3372 -5.0149,-2.1173 -8.3581,-2.3403 -4.3462,-0.22278 -7.968,0.78018 -10.865,3.0089 -2.8975,2.2289 -5.2935,5.8507 -7.1879,10.865 -1.4488,3.3433 -2.5632,7.4109 -3.3433,12.203 -0.6686,4.6806 -1.003,9.3611 -1.0029,14.042 -1e-4,6.0178 0.5571,11.813 1.6716,17.385 1.1144,5.5721 2.786,10.141 5.0148,13.707 1.783,2.8975 3.9004,5.0706 6.3521,6.5193 2.4517,1.4487 5.4606,2.1731 9.0267,2.1731 4.1232,1.6e-5 7.5222,-1.1144 10.197,-3.3432 2.786,-2.2288 5.1262,-5.8506 7.0208,-10.865 0.5571,-1.4487 1.1143,-3.176 1.6716,-5.182 0.5571,-2.1173 1.0029,-4.2904 1.3373,-6.5193 0.4457,-2.3402 0.78,-4.6805 1.0029,-7.0208 0.2228,-2.3402 0.3343,-4.6247 0.3343,-6.8536"
         inkscape:connector-curvature="0"
         id="path2992"
         style="text-align:center" />
      <path
         d="m 1211.2,56.446 v 27.916 h -17.552 V 56.446 h -55.497 V 45.915 l 55.497,-73.551 h 17.552 v 68.034 h 10.698 V 56.445 H 1211.2 m -17.552,-58.172 -31.928,42.125 h 31.928 V -1.727"
         inkscape:connector-curvature="0"
         id="path2994"
         style="text-align:center" />
    </g>
    <path
       d="m 979,-92.744 v -61.786 h 9.78 v 52.66 h 28.62 v 9.126 H 979 z m 90.1,-30.806 c 0,4.92 -0.6,9.63 -1.8,14.11 -1.2,4.49 -2.8,8.12 -5,10.887 -3.4,4.61 -8.4,6.915 -14.9,6.915 -4.4,0 -8,-0.891 -10.8,-2.673 -2.8,-1.783 -5.2,-4.58 -7,-8.389 -1.3,-2.65 -2.3,-5.86 -3.1,-9.64 -0.8,-3.78 -1.2,-7.52 -1.2,-11.21 0,-5.1 0.6,-9.83 1.8,-14.2 1.2,-4.36 2.8,-8.02 4.9,-10.97 1.8,-2.34 4,-4.07 6.6,-5.21 2.5,-1.14 5.6,-1.71 9.2,-1.71 3.9,0 7.2,0.89 10,2.68 2.8,1.78 5.1,4.58 7.1,8.39 1.3,2.77 2.3,5.99 3.1,9.68 0.7,3.69 1.1,7.47 1.1,11.34 z m -9.8,0 c 0,-3.5 -0.3,-6.74 -0.9,-9.72 -0.6,-2.99 -1.6,-5.52 -2.8,-7.61 -1,-1.6 -2.1,-2.77 -3.4,-3.51 -1.2,-0.73 -2.8,-1.16 -4.6,-1.29 -2.4,-0.12 -4.4,0.43 -6,1.66 -1.6,1.23 -2.9,3.23 -4,6 -0.8,1.84 -1.4,4.07 -1.8,6.68 -0.4,2.61 -0.6,5.21 -0.6,7.79 0,3.32 0.3,6.52 0.9,9.6 0.7,3.07 1.6,5.59 2.8,7.56 1,1.6 2.2,2.79 3.5,3.59 1.4,0.8 3,1.2 5,1.2 2.3,0 4.2,-0.61 5.7,-1.84 1.5,-1.23 2.7,-3.23 3.8,-6 0.3,-0.79 0.6,-1.76 0.9,-2.9 0.3,-1.14 0.6,-2.34 0.8,-3.6 0.2,-1.26 0.4,-2.53 0.5,-3.82 0.1,-1.29 0.2,-2.56 0.2,-3.79 z m 66,0 c 0,4.92 -0.6,9.63 -1.8,14.11 -1.2,4.49 -2.8,8.12 -5,10.887 -3.4,4.61 -8.4,6.915 -14.9,6.915 -4.4,0 -8,-0.891 -10.8,-2.673 -2.8,-1.783 -5.2,-4.58 -7,-8.389 -1.3,-2.65 -2.3,-5.86 -3.1,-9.64 -0.8,-3.78 -1.2,-7.52 -1.2,-11.21 0,-5.1 0.6,-9.83 1.8,-14.2 1.2,-4.36 2.8,-8.02 4.9,-10.97 1.8,-2.34 4,-4.07 6.6,-5.21 2.5,-1.14 5.6,-1.71 9.2,-1.71 3.9,0 7.2,0.89 10,2.68 2.8,1.78 5.1,4.58 7.1,8.39 1.3,2.77 2.3,5.99 3.1,9.68 0.7,3.69 1.1,7.47 1.1,11.34 z m -9.8,0 c 0,-3.5 -0.3,-6.74 -0.9,-9.72 -0.6,-2.99 -1.6,-5.52 -2.8,-7.61 -1,-1.6 -2.1,-2.77 -3.4,-3.51 -1.2,-0.73 -2.8,-1.16 -4.6,-1.29 -2.4,-0.12 -4.4,0.43 -6,1.66 -1.6,1.23 -2.9,3.23 -4,6 -0.8,1.84 -1.4,4.07 -1.8,6.68 -0.4,2.61 -0.6,5.21 -0.6,7.79 0,3.32 0.3,6.52 0.9,9.6 0.7,3.07 1.6,5.59 2.8,7.56 1,1.6 2.2,2.79 3.5,3.59 1.4,0.8 3,1.2 5,1.2 2.3,0 4.2,-0.61 5.7,-1.84 1.5,-1.23 2.7,-3.23 3.8,-6 0.3,-0.79 0.6,-1.76 0.9,-2.9 0.3,-1.14 0.6,-2.34 0.8,-3.6 0.2,-1.26 0.4,-2.53 0.5,-3.82 0.1,-1.29 0.2,-2.56 0.2,-3.79 z m 65.5,-13.64 c 0,1.66 -0.2,3.27 -0.7,4.84 -0.5,1.57 -1.2,3.04 -2.1,4.42 -0.8,1.39 -1.8,2.6 -3,3.65 -1.1,1.04 -2.3,1.87 -3.7,2.49 -1.4,0.67 -3.1,1.2 -4.9,1.57 -1.9,0.36 -4,0.55 -6.4,0.55 h -11.5 v 26.926 h -9.8 v -61.786 h 21.3 c 2.5,0 4.6,0.14 6.4,0.41 1.7,0.28 3.4,0.79 4.9,1.53 1.4,0.67 2.6,1.55 3.7,2.62 1.2,1.08 2.2,2.31 3,3.69 0.9,1.39 1.6,2.86 2.1,4.43 0.5,1.57 0.7,3.12 0.7,4.66 z m -10,0 c 0,-1.29 -0.3,-2.52 -1,-3.69 -0.7,-1.17 -1.6,-2.09 -2.7,-2.77 -0.8,-0.49 -1.6,-0.8 -2.4,-0.92 -0.8,-0.12 -1.9,-0.18 -3.5,-0.18 h -12.7 v 15.12 h 12.7 c 1.6,0 2.7,-0.06 3.5,-0.19 0.8,-0.12 1.6,-0.4 2.4,-0.83 1.1,-0.55 2,-1.46 2.7,-2.72 0.7,-1.26 1,-2.53 1,-3.82 z"
       inkscape:connector-curvature="0"
       id="Loop"
       style="fill:#000000" />
  </g>
</svg>
