<?xml version="1.0" encoding="utf-8"?>
<!-- Generator: Adobe Illustrator 21.0.0, SVG Export Plug-In . SVG Version: 6.00 Build 0)  -->
<svg version="1.1" xmlns="http://www.w3.org/2000/svg" xmlns:xlink="http://www.w3.org/1999/xlink" x="0px" y="0px" width="900px"
	 height="900px" viewBox="0 0 900 900" style="enable-background:new 0 0 900 900;" xml:space="preserve">
<style type="text/css">
	.st0{fill:#FFFFFF;}
	.st1{display:none;}
</style>
<g id="Layer_1">
	<g>
		<path class="st0" d="M180,899C81.299,899,1,818.701,1,720V180C1,81.299,81.299,1,180,1h540c98.701,0,179,80.299,179,179v540
			c0,98.701-80.299,179-179,179H180z"/>
		<path d="M720,2c24.031,0,47.342,4.706,69.285,13.987c21.196,8.965,40.232,21.8,56.58,38.148
			c16.348,16.348,29.183,35.384,38.148,56.58C893.294,132.658,898,155.969,898,180v540c0,24.031-4.706,47.342-13.987,69.285
			c-8.965,21.196-21.8,40.232-38.148,56.58c-16.348,16.348-35.384,29.183-56.58,38.148C767.342,893.294,744.031,898,720,898H180
			c-24.031,0-47.342-4.706-69.285-13.987c-21.196-8.965-40.232-21.8-56.58-38.148c-16.348-16.348-29.183-35.384-38.148-56.58
			C6.706,767.342,2,744.031,2,720V180c0-24.031,4.706-47.342,13.987-69.285c8.965-21.196,21.8-40.232,38.148-56.58
			c16.348-16.348,35.384-29.183,56.58-38.148C132.658,6.706,155.969,2,180,2H720 M720,0H180C80.589,0,0,80.589,0,180v540
			c0,99.411,80.589,180,180,180h540c99.411,0,180-80.589,180-180V180C900,80.589,819.411,0,720,0L720,0z"/>
	</g>
	<g>
		<path d="M720,42c36.861,0,71.516,14.354,97.581,40.419C843.646,108.484,858,143.139,858,180v540
			c0,36.861-14.354,71.516-40.419,97.581C791.516,843.646,756.861,858,720,858H180c-36.861,0-71.516-14.354-97.581-40.419
			C56.354,791.516,42,756.861,42,720V180c0-36.861,14.354-71.516,40.419-97.581C108.484,56.354,143.139,42,180,42H720 M720,18H180
			C90.53,18,18,90.53,18,180v540c0,89.47,72.53,162,162,162h540c89.47,0,162-72.53,162-162V180C882,90.53,809.47,18,720,18L720,18z"
			/>
	</g>
	<path d="M417.861,191.894c1.06,0.682,2.121,1.603,3.181,1.402l2.163,0.701l2.927,0.35l1.018-0.935l-0.891-0.818l-0.127-2.22
		l-0.891-0.117l-1.145-0.467l-1.4-1.635l-0.382-1.168l-0.636-0.935l0.254-0.701h0.891l0.636,0.701l0.636,1.051l0.382-0.234
		l1.018-0.584l2.29,0.234l1.781,1.869l0.763,2.22l1.654,0.35l0.127-1.285l1.018-0.234v-0.935l-0.509-1.519l-0.636-1.519
		l-0.636-0.467l-1.018-2.103l-0.254-2.336l-0.763-1.402l-1.4-1.168l-0.254-1.402l-1.527-2.687l0.636-0.935l2.927,0.234l-1.018-1.402
		l-0.382-1.168l1.527-0.234l0.127-1.051v-3.972l-0.382-0.35l0.636-1.168l0.891,0.701l1.527,0.818l-0.127-1.402l0.636,0.234v-2.57
		l1.527-0.584l1.4,1.402l1.272,0.467v-3.154l0.509,0.234l-0.254-3.037l1.145-1.519l1.272,1.168l1.654,1.402h1.654l-1.909-2.57
		l0.509-4.206l1.145-0.117l-0.382-2.22h1.781l1.4,1.285l0.127-0.818l-1.145-3.388l0.509-2.57l1.145-2.921l0.763-2.453l0.891-6.892
		l-0.763-0.467l0.127-2.22l0.636-0.467h2.927l0.891,0.935l-0.127,1.285l-0.382,1.051l1.272,7.477l0.891,1.752l1.145,0.818
		l-0.382,1.519l0.636,2.453l-0.127,2.687l-0.254,1.168l1.909-0.701v1.519l1.145,1.752l-0.127,1.168h1.4l-0.254,2.103l-1.4,2.103
		l0.127,0.584l1.527-0.117l0.763-1.168l1.909-1.168v2.687l1.018,2.804l0.127,1.519l0.636,0.818l1.018-1.519l1.909-1.285l0.509,1.635
		l0.509,1.051l-0.254,2.57l1.018-0.935h2.799l0.127,1.402l-0.636,0.117l-0.127,3.154l-0.254,1.168h1.654v0.935l-0.763,0.818
		l-1.018,0.818l1.654-0.117l1.781,1.285l-0.509,0.584l-0.636,1.986l-0.254,1.285l-0.891,1.051l-0.636,1.519h-1.145v1.402
		l-0.763,0.818l0.254,0.818l0.509,1.051l-1.654,0.234l0.127,0.818l-0.636,1.752l-0.636,1.986l1.272,1.519l1.272,0.234l-0.127-0.818
		l0.509-1.869l1.4-1.402l2.418-0.584h2.418l1.4-1.635l1.909,0.234l-0.763,1.051l-0.636,1.635l-1.145,1.635l-1.654,0.35v2.103
		l-1.909,2.453l2.672-0.234l1.909-0.701l1.272,0.701l2.036-0.818l4.326-2.453l3.817-0.234l1.018-1.402l1.654-0.467l-0.127,1.752
		l1.781-0.467l1.4,0.117l1.654-1.519l1.909-1.869l3.181-1.519l3.435-1.752l-0.763-0.234l-0.127-1.168h1.018l1.76-2.288l1.294-1.1
		l2.163,0.117l-0.127-0.818l-1.4-0.35v-0.935l1.654-0.467l0.127-1.168l0.127-1.635l1.272-0.234l-1.272-1.986l-3.817-3.972
		l-5.471-3.972l-2.036-3.271l-0.509-4.089l0.382-2.804l1.018,0.701l0.763,0.467l0.254-1.986l1.145-0.935v3.154l0.891,0.234
		l0.127-1.635l0.254-1.752l1.781-0.35l0.254,0.701l-0.763,1.168l1.781,1.635l0.382,2.336l1.909,1.285l1.527-0.818l1.251,0.419
		l-1.012,1.664l1.797,0.604c0.975,0.409,1.873,0.711,3.308,1.752l3.817,3.855l1.4,0.234l0.127-0.935l1.781-3.037l1.4-2.22
		l1.527-4.206l0.509-3.037l1.145-0.467l0.382,1.402l1.527,1.285l1.018-3.154l2.545-6.892l1.077-4.624l1.341-7.174l-0.127-9.579
		l-0.636-5.023l-1.272-3.505l-1.654-1.986l-0.254-1.752h0.891l1.527,0.701l4.453,2.103l3.944,3.388l3.054,5.023l2.29,7.944
		l-0.255,7.71l-0.891,6.075l-2.418,5.607l0.254,2.804l1.145-2.687l2.418-5.374l1.018-4.906l0.105-2.659l1.654,0.832
		c0.434,0.856,1.002,2.323,1.676,4.28l0.636,5.023l-0.382,10.631l-1.781,4.79l-2.799,5.607l-3.054,4.439l-4.326,4.322l-0.509,1.519
		l4.453-3.972l4.326-4.206c1.106-1.701,2.49-4.935,3.166-4.266l0.27,4.032c-0.254,1.752-0.509,3.505-0.763,5.257
		c-0.687,1.924-1.508,3.786-2.672,5.491l-3.054,4.322c-2.212,2.398-3.706,3.697-5.217,5.023l-6.744,4.556l0.891-0.117l5.599-2.453
		c1.019-0.328,2.21-0.865,3.944-2.069c1.463-1.885,3.638-3.796,4.453-3.621l-2.036,5.106l-3.435,4.79l-4.835,4.79l-6.871,4.322
		l-10.815,3.738l4.236-0.453l4.543-0.715l6.871-2.103c1.886-0.692,3.772-2.27,5.658-2.074l-1.077,2.542l-3.054,3.037l-3.563,2.921
		l-3.817,2.336l-5.344,1.869l-3.563,0.935l-4.072,0.467l-2.163,0.701l2.29,0.117l5.726-0.818l4.708-0.701l4.072-1.519
		c1.388-0.908,2.255-0.62,3.181-0.467l-1.909,2.103l-0.509,1.051l-1.145,0.818l-4.581,3.271l-6.107,2.57l-7.634,1.986l-5.471,0.584
		v0.584h4.581l4.708-0.467l4.745-1.174c1.59-0.621,3.488-1.81,3.944-0.35l-0.801,0.59l-2.672,3.154l-0.763,0.467l-2.418,2.103
		l-4.326,1.752l-3.435,0.584l2.036,2.921l0.763,2.57l0.127,3.855l-0.763,5.607l-2.545,4.439l-1.663,2.558
		c-0.525,0.672-0.935,1.287-1.958,2.208l-2.313,1.707l-3.101,1.588l-8.143,4.322l-1.272,0.35l-7.634,3.037l-1.4,2.22l0.636,0.935
		l-0.891,0.818l0.763,1.051l1.781,0.935l1.781,0.467l0.127,0.935l0.763,1.051l1.781,0.117l0.891,1.986l2.799,0.467l0.127,1.635h2.29
		l0.763,1.402l1.527,0.117l0.254-0.818l1.4-0.35l0.891-1.168l1.654-0.584l0.763-0.818l1.4-2.57l1.4-0.701l1.145-1.752l1.654-0.935
		l0.382-0.818l4.072-2.804l3.054-0.701l2.672,0.234l2.672,1.051l0.763,1.986l-1.527,0.35l0.509,0.701l1.909,2.103l1.018,2.687
		l-1.272,1.402v-0.584l-1.527-1.051l-0.127,1.285l1.018,1.168v2.687l-0.891,0.935l-1.909-2.22l-1.145,0.701l-3.563,0.234
		l-1.145,1.168l-2.29,0.584l-0.254,1.519l-1.781,1.402l-0.763,0.117l-0.254,1.402l-3.181,3.505l-1.272,0.467l-0.254,1.402
		l-2.163,2.103l-2.036,2.687l-0.636,1.635l-1.527,1.752l2.163,2.103l-0.891,1.168l-2.799-0.117l-2.418-1.869l-1.145-1.519
		l-0.509-2.921l1.018-1.636l0.127-1.635l1.145-1.869l0.509-2.103l-1.4-1.519l-2.545-1.636l-1.909,0.701l-2.672,0.935l-2.926-0.117
		l0.254-1.402l1.527-1.051l0.509-1.752l-1.527-1.051l-4.708-3.621l-4.453-3.271l-2.418-1.635l-0.254,1.752l2.036,0.584
		c1.824,0.895,3.155,1.902,4.019,3.017c1.137,1.187,1.784,2.598,1.961,4.226c0.177,1.246,0.357,2.492-0.636,3.738l-1.909,1.752
		l-0.509-1.752l-0.636-2.57l-2.036-1.285l0.763,1.285l1.145,2.687l-0.254,2.921l-1.272,2.57l-2.418,2.336l-0.254-0.584l-0.382-2.921
		l-1.272-2.453l-0.891-0.467l1.4,2.921l0.382,1.986l-0.127,2.453c-0.81,1.734-1.906,3.118-3.435,3.972l-3.181,0.35l-0.509-1.752
		l-0.509,1.519l-0.636,1.519l-2.672,3.037l-2.799,1.168l-3.054-0.584l-1.4-1.752h-0.763l-0.382,1.986L450.816,310l-2.036-0.818
		l-1.018-2.22l-1.145-1.869l-0.636-3.621v-3.855h-0.636l-0.891,2.336l-0.382,1.986l0.509,2.921l2.29,1.402v1.051l-0.891,0.818
		h-4.199l-1.654-0.818l-2.036-1.168l-1.018-2.22l-0.763-2.22l-0.127-4.322l-0.734-0.142l-0.336,3.391l0.672,2.466l-1.859,0.677
		c-0.985-0.514-1.89-0.883-3.334-2.241l-1.187-3.986v-4.316l0.336-1.233l-0.672,1.541l-0.336,2.775l-1.007,1.541l-2.015-1.233
		l-1.229-2.18l-0.45-5.527l-1.007,3.391c-1.237-0.508-1.903-1.541-2.686-2.466l0.024-3.309l1.991-4.399l-2.35,2.158l-3.694,2.158
		c-0.048,1.161-0.306,2.467,0.557,3c0.556,0.739,1.111,1.48,1.901,1.789l0.114,1.211l-4.587-0.143l-3.358-1.541l-1.007,1.85
		l-1.343-0.308l-1.679,0.308c0.222,1.032-0.014,3.326,0.672,3.083c0.495,1.43,0.787,2.487,1.499,4.316
		c-0.881,1.578-1.694,3.466-2.8,4.008l-2.212,1.85c-1.149-0.44-1.611,0.381-2.326,0.738l-0.336-1.437l1.475-1.459l-1.115-2.362
		l-0.228-1.646l-1.007-0.308v-2.158l-2.596-1.112l-1.433-2.438l-1.887-1.233l-0.484-0.992c-0.067-0.255-0.347-0.387-0.651-0.506
		c0.155-0.688,0.17-1.055-1.343-2.968l-1.842-0.925l-1.181-2.466l-1.679-0.308l-1.679-1.233h-3.358l-1.007-0.308l-2.015,1.541
		v-3.391l1.679-2.158l-1.933-0.117l-0.753,1.658l-1.343-0.617l0.336-3.7l3.022-2.466l-2.015-0.925l3.195-2.531l3.185-0.86
		c1.842,0.687,2.4,1.079,3.358,1.564l4.701,3.677c0.981,1.322,3.738,3.697,5.373,6.166l3.358,4.008l2.686,1.233l0.672-1.85h1.679
		c1.079-0.822,1.735-1.644,3.694-2.466l0.336-1.233l3.022-1.85l-0.336-0.308l4.365-3.7l-2.015-0.925l1.343-0.925l-1.343-2.158
		l-4.365-2.158c-3.394-1.575-6.971-3.317-11.081-5.549c-3.894-1.999-4.868-3.327-7.052-4.933c-2.049-1.716-3.424-4.05-5.037-6.166
		c-0.836-2.128-1.555-4.399-1.679-7.399l0.672-6.782l2.686-2.775l-3.694-0.925l-3.652-1.685l-4.365-3.391l-2.656-2.956
		c1.346-0.883,4.417,0.611,6.643,0.941c3.261,0.602,5.29,0.751,7.387,0.925l11.081-0.308l-0.929-0.473
		c-2.718-0.179-5.522-0.365-10.824-0.76c-4.092-0.4-6.259-1.153-8.73-1.85c-2.381-0.776-4.652-1.982-7.723-4.008
		c-4.372-2.606-4.052-3.775-5.708-5.549c3.91,1.782,7.296,2.359,10.745,3.083c2.127,0,4.253,0,6.38,0l0.672-0.308l-4.365-0.617
		l-4.701-0.617l-5.373-2.466l-6.044-3.7l-4.029-4.624c-2.182-2.921-1.783-3.811-1.679-4.933l3.358,3.083l8.059,2.775
		c9.308,2.816,7.148,1.245,9.066,1.233l-4.701-1.233l-5.708-2.158c-2.967-1.745-5.656-4.002-8.395-6.166
		c-2.406-2.466-4.495-4.933-5.708-7.399c-1.223-2.436-2.032-4.448-1.115-4.701l3.13,2.257c2.825,1.662,5.51,3.195,7.387,3.986
		l4.701,1.541l-8.059-5.241c-2.691-2.139-4.774-4.054-6.266-5.753c-1.063-1.181-2.219-2.452-4.029-5.858
		c-1.179-2.607-1.861-6.127-2.574-9.588c-0.392-2.008,0.544-2.961,1.453-3.774c2.217,5.203,2.72,4.635,4.029,6.782
		c1.495,1.605,3.23,3.342,8.059,6.782l-3.694-4.624l-5.627-7.198c-2.321-4.305-2.677-5.904-3.775-8.525l-0.672-7.399l1.007-9.249
		l2.686-5.549l1.343,9.249l5.037,10.79l6.044,7.707l-2.015-2.775l-5.373-11.715c-1.666-4.328-2.351-9.557-3.022-14.798
		c0.073-4.182,0.593-7.543,1.343-10.482c1.786-4.343,3.93-6.713,6.044-9.249l4.991-3.19l2.396,0.107
		c0.688,0.803-1.677,2.984-1.679,3.784c-0.766,2.655-1.594,5.658-1.716,6.834l0.037,8.804c1.189,4.605,2.378,10.9,3.566,13.565
		c1.068,3.813,2.7,7.724,3.694,11.183l1.933-2.307l1.216,4.073l4.005,5.775l0.696,3.166l2.686-2.466l4.275-2.73
		c1.319-1.051,2.356-1.063,3.448-1.277l-0.672-0.925v-2.775l0.336,1.233l2.35,0.617l1.887-1.691l1.135-2.317
		c-0.469-2.318-0.182-2.556,0-3.083c2.173,1.983,2.131,3.153,2.732,4.559l0.173-3.742l2.131,1.649c1.256,1.85,1.445,3.7,1.007,5.549
		c-0.075,2.123-0.265,4.035-1.343,4.316c-3.11,3.413-3.796,2.821-5.373,3.7l-0.672,2.158l-4.701,3.7l0.042,1.03
		c1.171,0.734,0.934,1.727,0.966,2.67l1.343,0.925l-0.156,2.037l1.499,0.143l2.015,1.211v1.233l1.679,0.925l-0.336,1.541l3.52,1.658
		c2.021,1.471,2.555,3.397,6.38,4.316l3.531,1.733l-0.29-2.032l2.64,1.107c0,0-1.007,0.308,4.701,0.925L417.861,191.894z"/>
	<g>
		<path d="M278.72,511.555c0,5.975-0.448,11.418-1.344,16.343c-0.896,4.926-2.539,10.229-4.925,15.896
			c-2.393,5.674-5.674,12.089-9.851,19.253c-4.184,7.165-9.703,15.672-16.566,25.522c-8.955,14.328-17.539,28.88-25.746,43.655
			c-8.213,14.776-14.705,27.984-19.477,39.626c-2.687,5.975-4.632,11.719-5.821,17.238c-1.196,5.527-2.092,12.02-2.687,19.478
			h81.043v38.954H149.32c0.294-18.505,1.49-35.295,3.582-50.372c2.084-15.069,5.597-29.552,10.521-43.432
			c4.926-13.88,11.418-27.684,19.478-41.417c8.06-13.727,18.204-28.656,30.447-44.774c10.144-13.727,17.084-24.627,20.82-32.687
			c3.729-8.06,5.597-15.818,5.597-23.283c0-9.851-2.239-17.532-6.717-23.059c-4.478-5.521-10.599-8.283-18.357-8.283
			c-7.465,0-13.586,2.315-18.357,6.939c-4.778,4.632-7.465,10.677-8.06,18.134H149.32c1.188-18.504,7.682-33.65,19.477-45.446
			c11.789-11.789,27.089-17.687,45.895-17.687c9.249,0,17.833,1.721,25.746,5.149c7.905,3.435,14.698,8.214,20.372,14.328
			c5.667,6.122,10.074,13.433,13.209,21.939C277.152,492.078,278.72,501.411,278.72,511.555z"/>
		<path d="M434.982,663.343c0,14.93-1.497,28.362-4.478,40.297c-2.987,11.942-7.465,21.646-13.433,29.104
			c-5.975,6.87-12.537,11.942-19.701,15.223c-7.164,3.281-17.014,4.926-29.551,4.926c-11.348,0-21.198-2.687-29.552-8.06
			c-8.36-5.373-15.825-13.278-22.388-23.73c-6.269-9.249-9.402-19.1-9.402-29.552h38.954c0.595,6.569,3.057,11.942,7.388,16.119
			c4.323,4.184,9.627,6.269,15.896,6.269c10.144,0,17.238-3.953,21.268-11.865c4.03-7.906,6.045-20.82,6.045-38.73
			c0-11.936-0.524-21.786-1.567-29.552c-1.049-7.759-2.764-13.88-5.149-18.357c-2.393-4.478-5.75-7.612-10.074-9.403
			c-4.33-1.791-9.626-2.687-15.895-2.687h-12.537V564.39h9.402c10.445,0,17.833-3.358,22.164-10.074
			c4.323-6.717,6.492-18.729,6.492-36.044c0-24.773-7.766-37.163-23.283-37.163c-5.975,0-10.676,1.791-14.104,5.373
			c-3.436,3.582-5.45,8.507-6.045,14.775h-38.954c1.189-18.505,7.087-32.979,17.686-43.432
			c10.593-10.446,24.402-15.672,41.417-15.672c41.487,0,62.237,25.375,62.237,76.118c0,13.139-1.196,24.626-3.582,34.477
			c-2.393,9.851-6.569,20.002-12.537,30.447c3.876,3.883,6.94,7.241,9.179,10.074c2.239,2.841,4.1,5.897,5.598,9.179
			c3.281,7.164,5.52,15.748,6.716,25.746C434.381,638.198,434.982,649.91,434.982,663.343z"/>
		<path d="M590.704,628.418c0,14.328-1.567,28.656-4.701,42.984c-3.135,14.328-7.836,27.76-14.104,40.297
			c-14.93,27.467-36.421,41.193-64.476,41.193c-15.524,0-30.601-4.632-45.223-13.88l20.148-33.582
			c5.072,3.288,9.473,5.527,13.209,6.717c3.729,1.196,7.682,1.791,11.865,1.791c7.458,0,13.656-2.239,18.581-6.717
			c4.926-4.478,9.326-11.788,13.209-21.939c3.582-8.354,6.563-18.428,8.955-30.223c2.386-11.789,3.582-22.759,3.582-32.91
			c0-11.341-2.238-20.442-6.716-27.313c-4.478-6.863-10.746-10.299-18.806-10.299c-4.184,0-7.766,1.05-10.746,3.135
			c-2.987,2.092-6.422,5.226-10.298,9.402l-38.955-4.478l5.373-145.071h110.595v38.955h-73.431l-1.344,60.894
			c4.177-0.595,7.759-1.042,10.746-1.343c2.98-0.294,6.114-0.448,9.402-0.448c11.642,0,21.269,2.169,28.88,6.492
			c7.612,4.331,14.398,11.271,20.373,20.821c4.177,6.87,7.534,15.223,10.074,25.073
			C589.431,607.821,590.704,617.973,590.704,628.418z"/>
		<path d="M750.683,660.208c0,14.328-1.645,27.838-4.926,40.521c-3.288,12.691-7.912,23.06-13.88,31.119
			c-5.373,6.87-11.796,12.089-19.253,15.671c-7.465,3.582-16.119,5.373-25.97,5.373c-13.433,0-24.256-2.687-32.462-8.06
			c-8.214-5.373-15-13.579-20.373-24.626c-3.582-7.759-6.569-16.938-8.955-27.537c-2.393-10.592-3.582-21.415-3.582-32.462
			c0-15.224,2.016-29.104,6.045-41.641c4.03-12.537,9.773-23.577,17.238-33.134c-6.569-7.457-11.193-15.671-13.88-24.626
			s-4.03-19.995-4.03-33.134c0-25.97,5.296-46.713,15.896-62.237c10.592-15.517,24.85-23.283,42.76-23.283
			c18.806,0,33.505,7.689,44.104,23.06c10.592,15.378,15.896,36.198,15.896,62.461c0,12.537-1.344,23.584-4.03,33.134
			c-2.687,9.557-7.317,17.764-13.88,24.626c7.458,9.557,13.209,20.373,17.238,32.462
			C748.667,629.985,750.683,644.089,750.683,660.208z M711.729,660.208c0-17.015-2.239-29.845-6.717-38.506
			c-4.478-8.654-10.599-12.985-18.357-12.985c-17.616,0-26.417,17.169-26.417,51.491c0,17.015,2.238,30.224,6.716,39.626
			c4.478,9.403,11.04,14.104,19.701,14.104c7.759,0,13.88-4.701,18.357-14.104C709.489,690.432,711.729,677.223,711.729,660.208z
			 M706.355,529.465c0-15.818-1.567-27.83-4.702-36.044c-3.134-8.206-8.136-12.313-14.999-12.313
			c-7.465,0-12.838,4.106-16.119,12.313c-3.288,8.214-4.926,20.226-4.926,36.044c0,26.865,7.011,40.298,21.045,40.298
			C699.786,569.763,706.355,556.33,706.355,529.465z"/>
	</g>
</g>
<g id="Guide" class="st1">
</g>
</svg>
