<?xml version="1.0" encoding="utf-8"?>
<!-- Generator: Adobe Illustrator 21.0.2, SVG Export Plug-In . SVG Version: 6.00 Build 0)  -->
<svg version="1.1" xmlns="http://www.w3.org/2000/svg" xmlns:xlink="http://www.w3.org/1999/xlink" x="0px" y="0px"
	 viewBox="0 0 544.7 341.3" style="enable-background:new 0 0 544.7 341.3;" xml:space="preserve">
<style type="text/css">
	.st0{fill:#C5C5C4;stroke:#9B9B9B;stroke-width:5;stroke-miterlimit:10;}
	.st1{fill:#FFFFFF;stroke:#000000;stroke-miterlimit:10;}
	.st2{fill:#FF0000;stroke:#000000;stroke-miterlimit:10;}
	.st3{fill:none;stroke:#0077BA;stroke-width:2;stroke-miterlimit:10;}
	.st4{fill:#0077BA;}
</style>
<g id="Layer_3">
	<circle class="st0" cx="162.3" cy="120.8" r="80"/>
	<circle class="st0" cx="388.6" cy="120.8" r="80"/>
	<rect x="266.2" y="282.7" class="st0" width="272.2" height="52.3"/>
	<polygon class="st1" points="389.1,170.4 400,170.4 394.6,162.7 389.1,155 383.7,162.7 378.3,170.4 	"/>
	<polygon class="st1" points="414.1,182.9 425,182.9 419.6,175.2 414.1,167.5 408.7,175.2 403.3,182.9 	"/>
	
		<ellipse transform="matrix(7.217591e-02 -0.9974 0.9974 7.217591e-02 242.9369 574.9749)" class="st1" cx="430.5" cy="156.9" rx="6.7" ry="17"/>
	<polygon class="st1" points="332.1,149.2 343,149.2 337.6,141.5 332.1,133.8 326.7,141.5 321.3,149.2 	"/>
	<polygon class="st1" points="384.9,139.9 395.7,139.9 390.3,132.2 384.9,124.5 379.5,132.2 374.1,139.9 	"/>
	<polygon class="st1" points="389.1,105.4 400,105.4 394.6,97.7 389.1,90 383.7,97.7 378.3,105.4 	"/>
	<polygon class="st1" points="423.4,79 434.2,79 428.8,71.3 423.4,63.6 418,71.3 412.6,79 	"/>
	<polygon class="st1" points="357.8,79 368.7,79 363.2,71.3 357.8,63.6 352.4,71.3 347,79 	"/>
	<polygon class="st1" points="348.2,266.2 359.1,266.2 353.7,258.5 348.2,250.8 342.8,258.5 337.4,266.2 	"/>
	<ellipse transform="matrix(0.5 -0.866 0.866 0.5 34.2896 390.8914)" class="st1" cx="355.7" cy="165.8" rx="6.7" ry="17"/>
	<ellipse transform="matrix(0.7071 -0.7071 0.7071 0.7071 14.1085 280.327)" class="st1" cx="345.4" cy="123.1" rx="6.7" ry="17"/>
	<ellipse transform="matrix(0.7924 -0.6101 0.6101 0.7924 34.9999 250.0962)" class="st1" cx="384.9" cy="73.6" rx="17" ry="6.7"/>
	<ellipse transform="matrix(0.7071 -0.7071 0.7071 0.7071 50.1676 325.0338)" class="st1" cx="417.4" cy="102" rx="6.7" ry="17"/>
	<ellipse transform="matrix(0.8413 -0.5405 0.5405 0.8413 2.8222 260.7803)" class="st1" cx="445.6" cy="125.6" rx="17" ry="6.7"/>
	<ellipse class="st1" cx="348.2" cy="238.4" rx="17" ry="6.7"/>
	<circle class="st2" cx="113.1" cy="238.4" r="10.8"/>
	<polygon class="st1" points="113.1,253.8 123.9,253.8 118.5,246.1 113.1,238.4 107.7,246.1 102.3,253.8 	"/>
	<circle class="st2" cx="154.7" cy="149.5" r="10.8"/>
	<polygon class="st1" points="154.7,164.9 165.5,164.9 160.1,157.2 154.7,149.5 149.3,157.2 143.8,164.9 	"/>
	<circle class="st2" cx="187.8" cy="123.3" r="10.8"/>
	<polygon class="st1" points="187.8,138.7 198.6,138.7 193.2,131 187.8,123.3 182.3,131 176.9,138.7 	"/>
	<circle class="st2" cx="187.3" cy="68.3" r="10.8"/>
	<polygon class="st1" points="187.3,83.7 198.1,83.7 192.7,76 187.3,68.3 181.8,76 176.4,83.7 	"/>
	<circle class="st2" cx="130.6" cy="81.4" r="10.8"/>
	<polygon class="st1" points="130.6,96.8 141.4,96.8 136,89.1 130.6,81.4 125.2,89.1 119.8,96.8 	"/>
	<circle class="st2" cx="119.8" cy="118.7" r="10.8"/>
	<polygon class="st1" points="119.8,134.1 130.6,134.1 125.2,126.4 119.8,118.7 114.4,126.4 108.9,134.1 	"/>
	<g>
		<g>
			<line class="st3" x1="488.9" y1="163.1" x2="453.8" y2="149.4"/>
			<g>
				<polygon class="st4" points="456.8,145.5 447.4,146.9 453.3,154.4 				"/>
			</g>
		</g>
	</g>
	<g>
		<g>
			<line class="st3" x1="299.5" y1="42.6" x2="351.4" y2="72.6"/>
			<g>
				<polygon class="st4" points="347.8,76 357.4,76 352.6,67.7 				"/>
			</g>
		</g>
	</g>
	<g>
		<g>
			<line class="st3" x1="302" y1="94.3" x2="334.6" y2="113.1"/>
			<g>
				<polygon class="st4" points="331,116.5 340.6,116.5 335.8,108.3 				"/>
			</g>
		</g>
	</g>
	<g>
		<g>
			<line class="st3" x1="251.3" y1="42.7" x2="193.7" y2="76"/>
			<g>
				<polygon class="st4" points="192.5,71.1 187.8,79.4 197.3,79.4 				"/>
			</g>
		</g>
	</g>
	<g>
		<g>
			<line class="st3" x1="248.7" y1="92.2" x2="200.3" y2="120.2"/>
			<g>
				<polygon class="st4" points="199.1,115.3 194.4,123.6 203.9,123.6 				"/>
			</g>
		</g>
	</g>
	<g>
		<g>
			<line class="st3" x1="62.4" y1="163.1" x2="97.5" y2="149.4"/>
			<g>
				<polygon class="st4" points="97.9,154.4 103.9,146.9 94.4,145.5 				"/>
			</g>
		</g>
	</g>
</g>
<g id="Layer_2">
	<g>
		<path d="M114.1,8.7h1.2v1c0.3-0.4,0.6-0.6,0.8-0.8c0.4-0.3,0.9-0.4,1.4-0.4c0.6,0,1.1,0.1,1.4,0.4c0.2,0.2,0.4,0.4,0.5,0.7
			c0.3-0.4,0.6-0.7,1-0.9s0.8-0.3,1.2-0.3c1,0,1.7,0.4,2,1.1c0.2,0.4,0.3,0.9,0.3,1.5V16h-1.3v-5.1c0-0.5-0.1-0.8-0.4-1
			s-0.5-0.3-0.9-0.3c-0.5,0-0.9,0.2-1.2,0.5s-0.5,0.9-0.5,1.6V16h-1.3v-4.8c0-0.5-0.1-0.9-0.2-1.1c-0.2-0.3-0.5-0.5-1-0.5
			c-0.5,0-0.9,0.2-1.3,0.5s-0.6,1-0.6,2V16h-1.2V8.7z"/>
		<path d="M129.7,11.6c0.3,0,0.5-0.2,0.6-0.4c0.1-0.1,0.1-0.3,0.1-0.5c0-0.4-0.1-0.7-0.4-0.9s-0.7-0.3-1.3-0.3
			c-0.6,0-1.1,0.2-1.4,0.5c-0.2,0.2-0.2,0.5-0.3,0.9h-1.1c0-0.9,0.3-1.5,0.9-1.9s1.2-0.5,2-0.5c0.9,0,1.6,0.2,2.1,0.5
			c0.5,0.3,0.8,0.8,0.8,1.5v4.2c0,0.1,0,0.2,0.1,0.3c0.1,0.1,0.2,0.1,0.3,0.1c0.1,0,0.1,0,0.2,0s0.1,0,0.2,0V16
			c-0.2,0.1-0.3,0.1-0.4,0.1s-0.2,0-0.4,0c-0.4,0-0.7-0.2-0.9-0.5c-0.1-0.2-0.2-0.4-0.2-0.7c-0.3,0.3-0.6,0.6-1.1,0.9
			c-0.5,0.2-1,0.4-1.6,0.4c-0.7,0-1.2-0.2-1.7-0.6c-0.4-0.4-0.6-0.9-0.6-1.5c0-0.7,0.2-1.2,0.6-1.6c0.4-0.4,1-0.6,1.7-0.7
			L129.7,11.6z M127.1,14.9c0.3,0.2,0.6,0.3,0.9,0.3c0.4,0,0.9-0.1,1.3-0.3c0.7-0.3,1-0.9,1-1.6v-1c-0.2,0.1-0.3,0.2-0.6,0.2
			c-0.2,0.1-0.5,0.1-0.7,0.1l-0.7,0.1c-0.4,0.1-0.8,0.2-1,0.3c-0.4,0.2-0.6,0.6-0.6,1C126.8,14.4,126.9,14.7,127.1,14.9z"/>
		<path d="M133.8,6.6h1.2v2h1.2v1h-1.2v4.8c0,0.3,0.1,0.4,0.3,0.5c0.1,0.1,0.3,0.1,0.5,0.1c0.1,0,0.1,0,0.2,0s0.1,0,0.2,0v1
			c-0.1,0-0.3,0.1-0.4,0.1s-0.3,0-0.5,0c-0.6,0-1-0.1-1.2-0.4s-0.3-0.7-0.3-1.1V9.7h-1v-1h1V6.6z"/>
		<path d="M141.4,11.6c0.3,0,0.5-0.2,0.6-0.4c0.1-0.1,0.1-0.3,0.1-0.5c0-0.4-0.1-0.7-0.4-0.9s-0.7-0.3-1.3-0.3
			c-0.6,0-1.1,0.2-1.4,0.5c-0.2,0.2-0.2,0.5-0.3,0.9h-1.1c0-0.9,0.3-1.5,0.9-1.9s1.2-0.5,2-0.5c0.9,0,1.6,0.2,2.1,0.5
			c0.5,0.3,0.8,0.8,0.8,1.5v4.2c0,0.1,0,0.2,0.1,0.3c0.1,0.1,0.2,0.1,0.3,0.1c0.1,0,0.1,0,0.2,0s0.1,0,0.2,0V16
			c-0.2,0.1-0.3,0.1-0.4,0.1s-0.2,0-0.4,0c-0.4,0-0.7-0.2-0.9-0.5c-0.1-0.2-0.2-0.4-0.2-0.7c-0.3,0.3-0.6,0.6-1.1,0.9
			c-0.5,0.2-1,0.4-1.6,0.4c-0.7,0-1.2-0.2-1.7-0.6c-0.4-0.4-0.6-0.9-0.6-1.5c0-0.7,0.2-1.2,0.6-1.6c0.4-0.4,1-0.6,1.7-0.7
			L141.4,11.6z M138.8,14.9c0.3,0.2,0.6,0.3,0.9,0.3c0.4,0,0.9-0.1,1.3-0.3c0.7-0.3,1-0.9,1-1.6v-1c-0.2,0.1-0.3,0.2-0.6,0.2
			c-0.2,0.1-0.5,0.1-0.7,0.1l-0.7,0.1c-0.4,0.1-0.8,0.2-1,0.3c-0.4,0.2-0.6,0.6-0.6,1C138.4,14.4,138.6,14.7,138.8,14.9z"/>
		<path d="M145.3,6h1.2v10h-1.2V6z"/>
		<path d="M152.3,11.6c0.3,0,0.5-0.2,0.6-0.4c0.1-0.1,0.1-0.3,0.1-0.5c0-0.4-0.1-0.7-0.4-0.9s-0.7-0.3-1.3-0.3
			c-0.6,0-1.1,0.2-1.4,0.5c-0.2,0.2-0.2,0.5-0.3,0.9h-1.1c0-0.9,0.3-1.5,0.9-1.9s1.2-0.5,2-0.5c0.9,0,1.6,0.2,2.1,0.5
			c0.5,0.3,0.8,0.8,0.8,1.5v4.2c0,0.1,0,0.2,0.1,0.3c0.1,0.1,0.2,0.1,0.3,0.1c0.1,0,0.1,0,0.2,0s0.1,0,0.2,0V16
			c-0.2,0.1-0.3,0.1-0.4,0.1s-0.2,0-0.4,0c-0.4,0-0.7-0.2-0.9-0.5c-0.1-0.2-0.2-0.4-0.2-0.7c-0.3,0.3-0.6,0.6-1.1,0.9
			c-0.5,0.2-1,0.4-1.6,0.4c-0.7,0-1.2-0.2-1.7-0.6c-0.4-0.4-0.6-0.9-0.6-1.5c0-0.7,0.2-1.2,0.6-1.6c0.4-0.4,1-0.6,1.7-0.7
			L152.3,11.6z M149.7,14.9c0.3,0.2,0.6,0.3,0.9,0.3c0.4,0,0.9-0.1,1.3-0.3c0.7-0.3,1-0.9,1-1.6v-1c-0.2,0.1-0.3,0.2-0.6,0.2
			c-0.2,0.1-0.5,0.1-0.7,0.1l-0.7,0.1c-0.4,0.1-0.8,0.2-1,0.3c-0.4,0.2-0.6,0.6-0.6,1C149.3,14.4,149.5,14.7,149.7,14.9z"/>
		<path d="M160.1,6h1.2v10h-1.2V6z"/>
		<path d="M167.1,11.6c0.3,0,0.5-0.2,0.6-0.4c0.1-0.1,0.1-0.3,0.1-0.5c0-0.4-0.1-0.7-0.4-0.9s-0.7-0.3-1.3-0.3
			c-0.6,0-1.1,0.2-1.4,0.5c-0.2,0.2-0.2,0.5-0.3,0.9h-1.1c0-0.9,0.3-1.5,0.9-1.9s1.2-0.5,2-0.5c0.9,0,1.6,0.2,2.1,0.5
			c0.5,0.3,0.8,0.8,0.8,1.5v4.2c0,0.1,0,0.2,0.1,0.3c0.1,0.1,0.2,0.1,0.3,0.1c0.1,0,0.1,0,0.2,0s0.1,0,0.2,0V16
			c-0.2,0.1-0.3,0.1-0.4,0.1s-0.2,0-0.4,0c-0.4,0-0.7-0.2-0.9-0.5c-0.1-0.2-0.2-0.4-0.2-0.7c-0.3,0.3-0.6,0.6-1.1,0.9
			c-0.5,0.2-1,0.4-1.6,0.4c-0.7,0-1.2-0.2-1.7-0.6c-0.4-0.4-0.6-0.9-0.6-1.5c0-0.7,0.2-1.2,0.6-1.6c0.4-0.4,1-0.6,1.7-0.7
			L167.1,11.6z M164.5,14.9c0.3,0.2,0.6,0.3,0.9,0.3c0.4,0,0.9-0.1,1.3-0.3c0.7-0.3,1-0.9,1-1.6v-1c-0.2,0.1-0.3,0.2-0.6,0.2
			c-0.2,0.1-0.5,0.1-0.7,0.1l-0.7,0.1c-0.4,0.1-0.8,0.2-1,0.3c-0.4,0.2-0.6,0.6-0.6,1C164.1,14.4,164.2,14.7,164.5,14.9z M164.5,6.1
			h1.3v1.4h-1.3V6.1z M166.7,6.1h1.3v1.4h-1.3V6.1z"/>
		<path d="M171,8.7h1.2v1c0.3-0.4,0.6-0.6,0.8-0.8c0.4-0.3,0.9-0.4,1.4-0.4c0.6,0,1.1,0.1,1.4,0.4c0.2,0.2,0.4,0.4,0.5,0.7
			c0.3-0.4,0.6-0.7,1-0.9s0.8-0.3,1.2-0.3c1,0,1.7,0.4,2,1.1c0.2,0.4,0.3,0.9,0.3,1.5V16h-1.3v-5.1c0-0.5-0.1-0.8-0.4-1
			s-0.5-0.3-0.9-0.3c-0.5,0-0.9,0.2-1.2,0.5s-0.5,0.9-0.5,1.6V16h-1.3v-4.8c0-0.5-0.1-0.9-0.2-1.1c-0.2-0.3-0.5-0.5-1-0.5
			c-0.5,0-0.9,0.2-1.3,0.5s-0.6,1-0.6,2V16H171V8.7z"/>
		<path d="M182.5,8.7h1.2v1c0.2-0.3,0.5-0.6,0.8-0.8c0.4-0.3,0.9-0.4,1.5-0.4c0.8,0,1.5,0.3,2.1,1c0.6,0.6,0.9,1.5,0.9,2.7
			c0,1.6-0.4,2.7-1.3,3.4c-0.5,0.4-1.1,0.6-1.9,0.6c-0.6,0-1-0.1-1.4-0.4c-0.2-0.1-0.5-0.4-0.7-0.7v3.7h-1.2V8.7z M187.1,14.5
			c0.4-0.5,0.6-1.2,0.6-2.2c0-0.6-0.1-1.1-0.3-1.5c-0.3-0.8-0.9-1.2-1.8-1.2c-0.9,0-1.4,0.4-1.8,1.3c-0.2,0.5-0.3,1-0.3,1.7
			c0,0.6,0.1,1,0.3,1.4c0.3,0.8,0.9,1.1,1.8,1.1C186.3,15.2,186.8,14.9,187.1,14.5z"/>
		<path d="M195.7,9.4c0.6,0.6,1,1.6,1,2.8c0,1.2-0.3,2.2-0.9,2.9c-0.6,0.8-1.5,1.2-2.7,1.2c-1,0-1.8-0.3-2.4-1s-0.9-1.6-0.9-2.7
			c0-1.2,0.3-2.2,0.9-2.9c0.6-0.7,1.5-1.1,2.5-1.1C194.3,8.5,195.1,8.8,195.7,9.4z M194.9,14.3c0.3-0.6,0.4-1.3,0.4-2.1
			c0-0.7-0.1-1.2-0.3-1.7c-0.3-0.7-0.9-1-1.8-1c-0.7,0-1.3,0.3-1.6,0.9s-0.5,1.3-0.5,2.1c0,0.8,0.2,1.4,0.5,1.9s0.9,0.8,1.6,0.8
			C194.1,15.2,194.6,14.9,194.9,14.3z M191.6,6.1h1.3v1.4h-1.3V6.1z M193.9,6.1h1.3v1.4h-1.3V6.1z"/>
		<path d="M198.4,6.6h1.2v2h1.2v1h-1.2v4.8c0,0.3,0.1,0.4,0.3,0.5c0.1,0.1,0.3,0.1,0.5,0.1c0.1,0,0.1,0,0.2,0s0.1,0,0.2,0v1
			c-0.1,0-0.3,0.1-0.4,0.1s-0.3,0-0.5,0c-0.6,0-1-0.1-1.2-0.4s-0.3-0.7-0.3-1.1V9.7h-1v-1h1V6.6z"/>
		<path d="M202.1,6h1.3v1.4h-1.3V6z M202.1,8.7h1.3V16h-1.3V8.7z"/>
		<path d="M205.2,6h1.2v10h-1.2V6z"/>
		<path d="M212.2,11.6c0.3,0,0.5-0.2,0.6-0.4c0.1-0.1,0.1-0.3,0.1-0.5c0-0.4-0.1-0.7-0.4-0.9s-0.7-0.3-1.3-0.3
			c-0.6,0-1.1,0.2-1.4,0.5c-0.2,0.2-0.2,0.5-0.3,0.9h-1.1c0-0.9,0.3-1.5,0.9-1.9s1.2-0.5,2-0.5c0.9,0,1.6,0.2,2.1,0.5
			c0.5,0.3,0.8,0.8,0.8,1.5v4.2c0,0.1,0,0.2,0.1,0.3c0.1,0.1,0.2,0.1,0.3,0.1c0.1,0,0.1,0,0.2,0s0.1,0,0.2,0V16
			c-0.2,0.1-0.3,0.1-0.4,0.1s-0.2,0-0.4,0c-0.4,0-0.7-0.2-0.9-0.5c-0.1-0.2-0.2-0.4-0.2-0.7c-0.3,0.3-0.6,0.6-1.1,0.9
			c-0.5,0.2-1,0.4-1.6,0.4c-0.7,0-1.2-0.2-1.7-0.6c-0.4-0.4-0.6-0.9-0.6-1.5c0-0.7,0.2-1.2,0.6-1.6c0.4-0.4,1-0.6,1.7-0.7
			L212.2,11.6z M209.6,14.9c0.3,0.2,0.6,0.3,0.9,0.3c0.4,0,0.9-0.1,1.3-0.3c0.7-0.3,1-0.9,1-1.6v-1c-0.2,0.1-0.3,0.2-0.6,0.2
			c-0.2,0.1-0.5,0.1-0.7,0.1l-0.7,0.1c-0.4,0.1-0.8,0.2-1,0.3c-0.4,0.2-0.6,0.6-0.6,1C209.2,14.4,209.4,14.7,209.6,14.9z"/>
	</g>
	<g>
		<path d="M340.7,6h1.2v5.8l3.2-3.1h1.6l-2.8,2.7l3,4.6h-1.6l-2.3-3.7l-1,1V16h-1.2V6z"/>
		<path d="M353.1,9.4c0.6,0.6,1,1.6,1,2.8c0,1.2-0.3,2.2-0.9,2.9s-1.5,1.2-2.7,1.2c-1,0-1.8-0.3-2.4-1c-0.6-0.7-0.9-1.6-0.9-2.7
			c0-1.2,0.3-2.2,0.9-2.9s1.5-1.1,2.5-1.1C351.6,8.5,352.4,8.8,353.1,9.4z M352.3,14.3c0.3-0.6,0.4-1.3,0.4-2.1
			c0-0.7-0.1-1.2-0.3-1.7c-0.3-0.7-0.9-1-1.8-1c-0.7,0-1.3,0.3-1.6,0.9s-0.5,1.3-0.5,2.1c0,0.8,0.2,1.4,0.5,1.9s0.9,0.8,1.6,0.8
			C351.5,15.2,352,14.9,352.3,14.3z"/>
		<path d="M355.6,8.7h1.2v1.3c0.1-0.2,0.3-0.5,0.7-0.9s0.8-0.5,1.3-0.5c0,0,0.1,0,0.1,0s0.1,0,0.3,0v1.3c-0.1,0-0.1,0-0.2,0
			c-0.1,0-0.1,0-0.2,0c-0.6,0-1.1,0.2-1.4,0.6s-0.5,0.9-0.5,1.4V16h-1.2V8.7z"/>
		<path d="M360.2,6h1.2v5.8l3.2-3.1h1.6l-2.8,2.7l3,4.6h-1.6l-2.3-3.7l-1,1V16h-1.2V6z"/>
		<path d="M371.7,8.9c0.5,0.2,0.9,0.6,1.1,0.9c0.2,0.4,0.4,0.8,0.5,1.3c0.1,0.3,0.1,0.9,0.1,1.6h-5.3c0,0.7,0.2,1.3,0.5,1.8
			c0.3,0.5,0.8,0.7,1.5,0.7c0.6,0,1.1-0.2,1.5-0.6c0.2-0.2,0.4-0.5,0.5-0.9h1.2c0,0.3-0.1,0.6-0.3,0.9c-0.2,0.3-0.4,0.6-0.6,0.8
			c-0.4,0.4-0.8,0.6-1.4,0.7c-0.3,0.1-0.6,0.1-1,0.1c-0.9,0-1.7-0.3-2.3-1s-0.9-1.6-0.9-2.8c0-1.2,0.3-2.1,1-2.9s1.5-1.1,2.5-1.1
			C370.8,8.5,371.3,8.6,371.7,8.9z M372.2,11.8c0-0.5-0.2-1-0.3-1.3c-0.3-0.6-0.9-0.9-1.7-0.9c-0.6,0-1,0.2-1.4,0.6
			c-0.4,0.4-0.6,0.9-0.6,1.6H372.2z"/>
		<path d="M378.9,11.6c0.3,0,0.5-0.2,0.6-0.4c0.1-0.1,0.1-0.3,0.1-0.5c0-0.4-0.1-0.7-0.4-0.9s-0.7-0.3-1.3-0.3
			c-0.6,0-1.1,0.2-1.4,0.5c-0.1,0.2-0.2,0.5-0.3,0.9H375c0-0.9,0.3-1.5,0.9-1.9c0.6-0.4,1.2-0.5,2-0.5c0.9,0,1.6,0.2,2.1,0.5
			c0.5,0.3,0.8,0.8,0.8,1.5v4.2c0,0.1,0,0.2,0.1,0.3c0.1,0.1,0.2,0.1,0.3,0.1c0.1,0,0.1,0,0.2,0s0.1,0,0.2,0V16
			c-0.2,0.1-0.3,0.1-0.4,0.1s-0.2,0-0.4,0c-0.4,0-0.7-0.2-0.9-0.5c-0.1-0.2-0.2-0.4-0.2-0.7c-0.3,0.3-0.6,0.6-1.1,0.9
			c-0.5,0.2-1,0.4-1.6,0.4c-0.7,0-1.2-0.2-1.7-0.6c-0.4-0.4-0.6-0.9-0.6-1.5c0-0.7,0.2-1.2,0.6-1.6c0.4-0.4,1-0.6,1.7-0.7
			L378.9,11.6z M376.3,14.9c0.3,0.2,0.6,0.3,0.9,0.3c0.4,0,0.9-0.1,1.3-0.3c0.7-0.3,1-0.9,1-1.6v-1c-0.2,0.1-0.3,0.2-0.6,0.2
			s-0.5,0.1-0.7,0.1l-0.7,0.1c-0.4,0.1-0.8,0.2-1,0.3c-0.4,0.2-0.6,0.6-0.6,1C375.9,14.4,376.1,14.7,376.3,14.9z"/>
		<path d="M386.7,6h1.2v10h-1.2V6z"/>
		<path d="M393.7,11.6c0.3,0,0.5-0.2,0.6-0.4c0.1-0.1,0.1-0.3,0.1-0.5c0-0.4-0.1-0.7-0.4-0.9s-0.7-0.3-1.3-0.3
			c-0.6,0-1.1,0.2-1.4,0.5c-0.1,0.2-0.2,0.5-0.3,0.9h-1.1c0-0.9,0.3-1.5,0.9-1.9c0.6-0.4,1.2-0.5,2-0.5c0.9,0,1.6,0.2,2.1,0.5
			c0.5,0.3,0.8,0.8,0.8,1.5v4.2c0,0.1,0,0.2,0.1,0.3c0.1,0.1,0.2,0.1,0.3,0.1c0.1,0,0.1,0,0.2,0s0.1,0,0.2,0V16
			c-0.2,0.1-0.3,0.1-0.4,0.1s-0.2,0-0.4,0c-0.4,0-0.7-0.2-0.9-0.5c-0.1-0.2-0.2-0.4-0.2-0.7c-0.3,0.3-0.6,0.6-1.1,0.9
			c-0.5,0.2-1,0.4-1.6,0.4c-0.7,0-1.2-0.2-1.7-0.6c-0.4-0.4-0.6-0.9-0.6-1.5c0-0.7,0.2-1.2,0.6-1.6c0.4-0.4,1-0.6,1.7-0.7
			L393.7,11.6z M391.1,14.9c0.3,0.2,0.6,0.3,0.9,0.3c0.4,0,0.9-0.1,1.3-0.3c0.7-0.3,1-0.9,1-1.6v-1c-0.2,0.1-0.3,0.2-0.6,0.2
			s-0.5,0.1-0.7,0.1l-0.7,0.1c-0.4,0.1-0.8,0.2-1,0.3c-0.4,0.2-0.6,0.6-0.6,1C390.7,14.4,390.9,14.7,391.1,14.9z M391.1,6.1h1.3v1.4
			h-1.3V6.1z M393.3,6.1h1.3v1.4h-1.3V6.1z"/>
		<path d="M397.6,8.7h1.2v1c0.3-0.4,0.6-0.6,0.8-0.8c0.4-0.3,0.9-0.4,1.4-0.4c0.6,0,1.1,0.1,1.4,0.4c0.2,0.2,0.4,0.4,0.5,0.7
			c0.3-0.4,0.6-0.7,1-0.9s0.8-0.3,1.2-0.3c1,0,1.7,0.4,2,1.1c0.2,0.4,0.3,0.9,0.3,1.5V16h-1.3v-5.1c0-0.5-0.1-0.8-0.4-1
			c-0.2-0.2-0.5-0.3-0.9-0.3c-0.5,0-0.9,0.2-1.2,0.5c-0.3,0.3-0.5,0.9-0.5,1.6V16h-1.3v-4.8c0-0.5-0.1-0.9-0.2-1.1
			c-0.2-0.3-0.5-0.5-1-0.5c-0.5,0-0.9,0.2-1.3,0.5c-0.4,0.4-0.6,1-0.6,2V16h-1.2V8.7z"/>
		<path d="M409.1,8.7h1.2v1c0.2-0.3,0.5-0.6,0.8-0.8c0.4-0.3,0.9-0.4,1.5-0.4c0.8,0,1.5,0.3,2.1,1c0.6,0.6,0.9,1.5,0.9,2.7
			c0,1.6-0.4,2.7-1.3,3.4c-0.5,0.4-1.1,0.6-1.9,0.6c-0.6,0-1-0.1-1.4-0.4c-0.2-0.1-0.5-0.4-0.7-0.7v3.7h-1.2V8.7z M413.8,14.5
			c0.4-0.5,0.6-1.2,0.6-2.2c0-0.6-0.1-1.1-0.3-1.5c-0.3-0.8-0.9-1.2-1.8-1.2c-0.9,0-1.4,0.4-1.8,1.3c-0.2,0.5-0.3,1-0.3,1.7
			c0,0.6,0.1,1,0.3,1.4c0.3,0.8,0.9,1.1,1.8,1.1C412.9,15.2,413.4,14.9,413.8,14.5z"/>
		<path d="M422.3,9.4c0.6,0.6,1,1.6,1,2.8c0,1.2-0.3,2.2-0.9,2.9s-1.5,1.2-2.7,1.2c-1,0-1.8-0.3-2.4-1c-0.6-0.7-0.9-1.6-0.9-2.7
			c0-1.2,0.3-2.2,0.9-2.9s1.5-1.1,2.5-1.1C420.9,8.5,421.7,8.8,422.3,9.4z M421.6,14.3c0.3-0.6,0.4-1.3,0.4-2.1
			c0-0.7-0.1-1.2-0.3-1.7c-0.3-0.7-0.9-1-1.8-1c-0.7,0-1.3,0.3-1.6,0.9s-0.5,1.3-0.5,2.1c0,0.8,0.2,1.4,0.5,1.9s0.9,0.8,1.6,0.8
			C420.7,15.2,421.3,14.9,421.6,14.3z M418.3,6.1h1.3v1.4h-1.3V6.1z M420.5,6.1h1.3v1.4h-1.3V6.1z"/>
		<path d="M425.1,6.6h1.2v2h1.2v1h-1.2v4.8c0,0.3,0.1,0.4,0.3,0.5c0.1,0.1,0.3,0.1,0.5,0.1c0.1,0,0.1,0,0.2,0s0.1,0,0.2,0v1
			c-0.1,0-0.3,0.1-0.4,0.1c-0.2,0-0.3,0-0.5,0c-0.6,0-1-0.1-1.2-0.4s-0.3-0.7-0.3-1.1V9.7h-1v-1h1V6.6z"/>
		<path d="M428.7,6h1.3v1.4h-1.3V6z M428.7,8.7h1.3V16h-1.3V8.7z"/>
		<path d="M431.8,6h1.2v10h-1.2V6z"/>
		<path d="M438.8,11.6c0.3,0,0.5-0.2,0.6-0.4c0.1-0.1,0.1-0.3,0.1-0.5c0-0.4-0.1-0.7-0.4-0.9s-0.7-0.3-1.3-0.3
			c-0.6,0-1.1,0.2-1.4,0.5c-0.1,0.2-0.2,0.5-0.3,0.9H435c0-0.9,0.3-1.5,0.9-1.9c0.6-0.4,1.2-0.5,2-0.5c0.9,0,1.6,0.2,2.1,0.5
			c0.5,0.3,0.8,0.8,0.8,1.5v4.2c0,0.1,0,0.2,0.1,0.3c0.1,0.1,0.2,0.1,0.3,0.1c0.1,0,0.1,0,0.2,0s0.1,0,0.2,0V16
			c-0.2,0.1-0.3,0.1-0.4,0.1s-0.2,0-0.4,0c-0.4,0-0.7-0.2-0.9-0.5c-0.1-0.2-0.2-0.4-0.2-0.7c-0.3,0.3-0.6,0.6-1.1,0.9
			c-0.5,0.2-1,0.4-1.6,0.4c-0.7,0-1.2-0.2-1.7-0.6c-0.4-0.4-0.6-0.9-0.6-1.5c0-0.7,0.2-1.2,0.6-1.6c0.4-0.4,1-0.6,1.7-0.7
			L438.8,11.6z M436.3,14.9c0.3,0.2,0.6,0.3,0.9,0.3c0.4,0,0.9-0.1,1.3-0.3c0.7-0.3,1-0.9,1-1.6v-1c-0.2,0.1-0.3,0.2-0.6,0.2
			s-0.5,0.1-0.7,0.1l-0.7,0.1c-0.4,0.1-0.8,0.2-1,0.3c-0.4,0.2-0.6,0.6-0.6,1C435.9,14.4,436,14.7,436.3,14.9z"/>
	</g>
	<g>
		<path d="M255.9,34.6h1.2v5.8l3.2-3.1h1.6l-2.8,2.7l3,4.6h-1.6l-2.3-3.7l-1,1v2.7h-1.2V34.6z"/>
		<path d="M267.4,37.5c0.5,0.2,0.9,0.6,1.1,0.9c0.2,0.4,0.4,0.8,0.5,1.3c0.1,0.3,0.1,0.9,0.1,1.6h-5.3c0,0.7,0.2,1.3,0.5,1.8
			c0.3,0.5,0.8,0.7,1.5,0.7c0.6,0,1.1-0.2,1.5-0.6c0.2-0.2,0.4-0.5,0.5-0.9h1.2c0,0.3-0.1,0.6-0.3,0.9s-0.4,0.6-0.6,0.8
			c-0.4,0.4-0.8,0.6-1.4,0.7c-0.3,0.1-0.6,0.1-1,0.1c-0.9,0-1.7-0.3-2.3-1c-0.6-0.7-0.9-1.6-0.9-2.8c0-1.2,0.3-2.1,1-2.9
			c0.6-0.7,1.5-1.1,2.5-1.1C266.4,37.2,266.9,37.3,267.4,37.5z M267.9,40.4c0-0.5-0.2-1-0.3-1.3c-0.3-0.6-0.9-0.9-1.7-0.9
			c-0.6,0-1,0.2-1.4,0.6c-0.4,0.4-0.6,0.9-0.6,1.6H267.9z"/>
		<path d="M270.7,34.6h1.2v3.7c0.3-0.4,0.6-0.6,0.8-0.8c0.4-0.3,0.9-0.4,1.5-0.4c1.1,0,1.8,0.4,2.2,1.1c0.2,0.4,0.3,1,0.3,1.7v4.7
			h-1.3v-4.6c0-0.5-0.1-0.9-0.2-1.2c-0.2-0.4-0.6-0.6-1.3-0.6c-0.5,0-1,0.2-1.4,0.5s-0.6,1-0.6,2v3.9h-1.2V34.6z"/>
		<path d="M278.5,34.6h1.3V36h-1.3V34.6z M278.5,37.4h1.3v7.3h-1.3V37.4z"/>
		<path d="M281.8,35.3h1.2v2h1.2v1h-1.2v4.8c0,0.3,0.1,0.4,0.3,0.5c0.1,0.1,0.3,0.1,0.5,0.1c0.1,0,0.1,0,0.2,0s0.1,0,0.2,0v1
			c-0.1,0-0.3,0.1-0.4,0.1c-0.2,0-0.3,0-0.5,0c-0.6,0-1-0.1-1.2-0.4s-0.3-0.7-0.3-1.1v-4.8h-1v-1h1V35.3z"/>
		<path d="M285.5,34.6h1.3V36h-1.3V34.6z M285.5,37.4h1.3v7.3h-1.3V37.4z"/>
		<path d="M288.6,37.3h1.2v1c0.3-0.4,0.7-0.7,1.1-0.9c0.4-0.2,0.8-0.3,1.3-0.3c1,0,1.7,0.4,2.1,1.1c0.2,0.4,0.3,1,0.3,1.7v4.7h-1.3
			v-4.6c0-0.4-0.1-0.8-0.2-1.1c-0.2-0.5-0.6-0.7-1.2-0.7c-0.3,0-0.5,0-0.7,0.1c-0.3,0.1-0.6,0.3-0.9,0.6c-0.2,0.2-0.3,0.5-0.4,0.7
			s-0.1,0.6-0.1,1.1v3.8h-1.2V37.3z"/>
	</g>
	<g>
		<path d="M254.8,82.7l2,6l2-6h1.3l-2.8,7.3h-1.3l-2.7-7.3H254.8z"/>
		<path d="M265.2,85.6c0.3,0,0.5-0.2,0.6-0.4c0.1-0.1,0.1-0.3,0.1-0.5c0-0.4-0.1-0.7-0.4-0.9c-0.3-0.2-0.7-0.3-1.3-0.3
			c-0.6,0-1.1,0.2-1.4,0.5c-0.2,0.2-0.2,0.5-0.3,0.9h-1.1c0-0.9,0.3-1.5,0.9-1.9s1.2-0.5,2-0.5c0.9,0,1.6,0.2,2.1,0.5
			c0.5,0.3,0.8,0.8,0.8,1.5v4.2c0,0.1,0,0.2,0.1,0.3c0.1,0.1,0.2,0.1,0.3,0.1c0.1,0,0.1,0,0.2,0s0.1,0,0.2,0V90
			c-0.2,0.1-0.3,0.1-0.4,0.1s-0.2,0-0.4,0c-0.4,0-0.7-0.2-0.9-0.5c-0.1-0.2-0.2-0.4-0.2-0.7c-0.3,0.3-0.6,0.6-1.1,0.9
			c-0.5,0.2-1,0.4-1.6,0.4c-0.7,0-1.2-0.2-1.7-0.6c-0.4-0.4-0.6-0.9-0.6-1.5c0-0.7,0.2-1.2,0.6-1.6c0.4-0.4,1-0.6,1.7-0.7
			L265.2,85.6z M262.6,88.9c0.3,0.2,0.6,0.3,0.9,0.3c0.4,0,0.9-0.1,1.3-0.3c0.7-0.3,1-0.9,1-1.6v-1c-0.2,0.1-0.3,0.2-0.6,0.2
			s-0.5,0.1-0.7,0.1l-0.7,0.1c-0.4,0.1-0.8,0.2-1,0.3c-0.4,0.2-0.6,0.6-0.6,1C262.2,88.4,262.3,88.7,262.6,88.9z M262.5,80.1h1.3
			v1.4h-1.3V80.1z M264.8,80.1h1.3v1.4h-1.3V80.1z"/>
		<path d="M269.1,82.7h1.2v1.3c0.1-0.2,0.3-0.5,0.7-0.9s0.8-0.5,1.3-0.5c0,0,0.1,0,0.1,0s0.1,0,0.3,0v1.3c-0.1,0-0.1,0-0.2,0
			c-0.1,0-0.1,0-0.2,0c-0.6,0-1.1,0.2-1.4,0.6s-0.5,0.9-0.5,1.4V90h-1.2V82.7z"/>
		<path d="M273.7,80h1.3v1.4h-1.3V80z M273.7,82.7h1.3V90h-1.3V82.7z"/>
		<path d="M280.7,85.6c0.3,0,0.5-0.2,0.6-0.4c0.1-0.1,0.1-0.3,0.1-0.5c0-0.4-0.1-0.7-0.4-0.9s-0.7-0.3-1.3-0.3
			c-0.6,0-1.1,0.2-1.4,0.5c-0.1,0.2-0.2,0.5-0.3,0.9h-1.1c0-0.9,0.3-1.5,0.9-1.9c0.6-0.4,1.2-0.5,2-0.5c0.9,0,1.6,0.2,2.1,0.5
			c0.5,0.3,0.8,0.8,0.8,1.5v4.2c0,0.1,0,0.2,0.1,0.3c0.1,0.1,0.2,0.1,0.3,0.1c0.1,0,0.1,0,0.2,0s0.1,0,0.2,0V90
			c-0.2,0.1-0.3,0.1-0.4,0.1s-0.2,0-0.4,0c-0.4,0-0.7-0.2-0.9-0.5c-0.1-0.2-0.2-0.4-0.2-0.7c-0.3,0.3-0.6,0.6-1.1,0.9
			c-0.5,0.2-1,0.4-1.6,0.4c-0.7,0-1.2-0.2-1.7-0.6c-0.4-0.4-0.6-0.9-0.6-1.5c0-0.7,0.2-1.2,0.6-1.6c0.4-0.4,1-0.6,1.7-0.7
			L280.7,85.6z M278.1,88.9c0.3,0.2,0.6,0.3,0.9,0.3c0.4,0,0.9-0.1,1.3-0.3c0.7-0.3,1-0.9,1-1.6v-1c-0.2,0.1-0.3,0.2-0.6,0.2
			s-0.5,0.1-0.7,0.1l-0.7,0.1c-0.4,0.1-0.8,0.2-1,0.3c-0.4,0.2-0.6,0.6-0.6,1C277.7,88.4,277.9,88.7,278.1,88.9z"/>
		<path d="M284.6,80h1.3v1.4h-1.3V80z M284.6,82.7h1.3V90h-1.3V82.7z"/>
		<path d="M287.7,82.7h1.2v1c0.3-0.4,0.7-0.7,1.1-0.9s0.8-0.3,1.3-0.3c1,0,1.7,0.4,2.1,1.1c0.2,0.4,0.3,1,0.3,1.7V90h-1.3v-4.6
			c0-0.4-0.1-0.8-0.2-1.1c-0.2-0.5-0.6-0.7-1.2-0.7c-0.3,0-0.5,0-0.7,0.1c-0.3,0.1-0.6,0.3-0.9,0.6c-0.2,0.2-0.3,0.5-0.4,0.7
			c-0.1,0.3-0.1,0.6-0.1,1.1V90h-1.2V82.7z"/>
		<path d="M300,82.9c0.5,0.2,0.9,0.6,1.1,0.9c0.2,0.4,0.4,0.8,0.5,1.3c0.1,0.3,0.1,0.9,0.1,1.6h-5.3c0,0.7,0.2,1.3,0.5,1.8
			c0.3,0.5,0.8,0.7,1.5,0.7c0.6,0,1.1-0.2,1.5-0.6c0.2-0.2,0.4-0.5,0.5-0.9h1.2c0,0.3-0.1,0.6-0.3,0.9c-0.2,0.3-0.4,0.6-0.6,0.8
			c-0.4,0.4-0.8,0.6-1.4,0.7c-0.3,0.1-0.6,0.1-1,0.1c-0.9,0-1.7-0.3-2.3-1s-0.9-1.6-0.9-2.8c0-1.2,0.3-2.1,1-2.9s1.5-1.1,2.5-1.1
			C299,82.5,299.5,82.6,300,82.9z M300.4,85.8c0-0.5-0.2-1-0.3-1.3c-0.3-0.6-0.9-0.9-1.7-0.9c-0.6,0-1,0.2-1.4,0.6
			c-0.4,0.4-0.6,0.9-0.6,1.6H300.4z"/>
	</g>
	<g>
		<path d="M15.2,157.5h1.2v10h-1.2V157.5z"/>
		<path d="M18.3,157.5h1.3v1.4h-1.3V157.5z M18.3,160.2h1.3v7.3h-1.3V160.2z"/>
		<path d="M22.6,160.2v4.9c0,0.4,0.1,0.7,0.2,0.9c0.2,0.4,0.6,0.7,1.2,0.7c0.8,0,1.4-0.4,1.7-1.1c0.2-0.4,0.2-1,0.2-1.7v-3.6h1.2
			v7.3H26l0-1.1c-0.2,0.3-0.4,0.5-0.6,0.7c-0.5,0.4-1,0.6-1.7,0.6c-1,0-1.7-0.3-2.1-1c-0.2-0.4-0.3-0.9-0.3-1.5v-5H22.6z"/>
		<path d="M34.5,160.9c0.6,0.6,1,1.6,1,2.8c0,1.2-0.3,2.2-0.9,2.9c-0.6,0.8-1.5,1.2-2.7,1.2c-1,0-1.8-0.3-2.4-1s-0.9-1.6-0.9-2.7
			c0-1.2,0.3-2.2,0.9-2.9c0.6-0.7,1.5-1.1,2.5-1.1C33.1,160,33.9,160.3,34.5,160.9z M33.7,165.8c0.3-0.6,0.4-1.3,0.4-2.1
			c0-0.7-0.1-1.2-0.3-1.7c-0.3-0.7-0.9-1-1.8-1c-0.7,0-1.3,0.3-1.6,0.9S30,163.2,30,164c0,0.8,0.2,1.4,0.5,1.9s0.9,0.8,1.6,0.8
			C32.9,166.7,33.4,166.4,33.7,165.8z"/>
		<path d="M37.2,158.1h1.2v2h1.2v1h-1.2v4.8c0,0.3,0.1,0.4,0.3,0.5c0.1,0.1,0.3,0.1,0.5,0.1c0.1,0,0.1,0,0.2,0s0.1,0,0.2,0v1
			c-0.1,0-0.3,0.1-0.4,0.1s-0.3,0-0.5,0c-0.6,0-1-0.1-1.2-0.4s-0.3-0.7-0.3-1.1v-4.8h-1v-1h1V158.1z"/>
		<path d="M40.9,157.5h1.3v1.4h-1.3V157.5z M40.9,160.2h1.3v7.3h-1.3V160.2z"/>
		<path d="M44,160.2h1.2v1c0.3-0.4,0.7-0.7,1.1-0.9s0.8-0.3,1.3-0.3c1,0,1.7,0.4,2.1,1.1c0.2,0.4,0.3,1,0.3,1.7v4.7h-1.3v-4.6
			c0-0.4-0.1-0.8-0.2-1.1c-0.2-0.5-0.6-0.7-1.2-0.7c-0.3,0-0.5,0-0.7,0.1c-0.3,0.1-0.6,0.3-0.9,0.6c-0.2,0.2-0.3,0.5-0.4,0.7
			s-0.1,0.6-0.1,1.1v3.8H44V160.2z"/>
		<path d="M18.4,174.1c-0.7,1.4-1.2,2.4-1.4,3.1c-0.3,1-0.5,2.2-0.5,3.5c0,1.3,0.2,2.5,0.6,3.6c0.2,0.7,0.7,1.6,1.3,2.9h-0.8
			c-0.7-1-1.1-1.7-1.2-2s-0.3-0.7-0.5-1.2c-0.3-0.7-0.4-1.4-0.5-2.2c-0.1-0.4-0.1-0.8-0.1-1.1c0-1.3,0.2-2.6,0.6-3.6
			c0.3-0.7,0.8-1.7,1.7-3H18.4z"/>
		<path d="M19.8,174.3H21v5.8l3.2-3.1h1.6l-2.8,2.7l3,4.6h-1.6l-2.3-3.7l-1,1v2.7h-1.2V174.3z"/>
		<path d="M26.9,174.3h1.3v1.4h-1.3V174.3z M26.9,177h1.3v7.3h-1.3V177z"/>
		<path d="M30,174.3h1.3v1.4H30V174.3z M30,177h1.3v7.3H30V177z"/>
		<path d="M33.1,177h1.2v1c0.3-0.4,0.7-0.7,1.1-0.9c0.4-0.2,0.8-0.3,1.3-0.3c1,0,1.7,0.4,2.1,1.1c0.2,0.4,0.3,1,0.3,1.7v4.7h-1.3
			v-4.6c0-0.4-0.1-0.8-0.2-1.1c-0.2-0.5-0.6-0.7-1.2-0.7c-0.3,0-0.5,0-0.7,0.1c-0.3,0.1-0.6,0.3-0.9,0.6c-0.2,0.2-0.3,0.5-0.4,0.7
			s-0.1,0.6-0.1,1.1v3.8h-1.2V177z"/>
		<path d="M41.1,174.9h1.2v2h1.2v1h-1.2v4.8c0,0.3,0.1,0.4,0.3,0.5c0.1,0,0.3,0.1,0.5,0.1c0.1,0,0.1,0,0.2,0c0.1,0,0.1,0,0.2,0v1
			c-0.1,0-0.3,0.1-0.4,0.1c-0.2,0-0.3,0-0.5,0c-0.6,0-1-0.1-1.2-0.4c-0.2-0.3-0.3-0.7-0.3-1.1V178h-1v-1h1V174.9z"/>
		<path d="M49.3,177.2c0.5,0.2,0.9,0.6,1.1,0.9c0.2,0.4,0.4,0.8,0.5,1.3c0.1,0.3,0.1,0.9,0.1,1.6h-5.3c0,0.7,0.2,1.3,0.5,1.8
			c0.3,0.4,0.8,0.7,1.5,0.7c0.6,0,1.1-0.2,1.5-0.6c0.2-0.2,0.4-0.5,0.5-0.9h1.2c0,0.3-0.1,0.6-0.3,0.9s-0.4,0.6-0.6,0.8
			c-0.4,0.4-0.8,0.6-1.4,0.7c-0.3,0.1-0.6,0.1-1,0.1c-0.9,0-1.7-0.3-2.3-1c-0.6-0.7-0.9-1.6-0.9-2.8c0-1.2,0.3-2.1,1-2.9
			c0.6-0.7,1.5-1.1,2.5-1.1C48.3,176.8,48.8,176.9,49.3,177.2z M49.7,180.1c0-0.5-0.2-1-0.3-1.3c-0.3-0.6-0.9-0.9-1.7-0.9
			c-0.6,0-1,0.2-1.4,0.6c-0.4,0.4-0.6,0.9-0.6,1.6H49.7z"/>
		<path d="M56.5,179.9c0.3,0,0.5-0.2,0.6-0.4c0.1-0.1,0.1-0.3,0.1-0.5c0-0.4-0.1-0.7-0.4-0.9s-0.7-0.3-1.3-0.3
			c-0.6,0-1.1,0.2-1.4,0.5c-0.2,0.2-0.2,0.5-0.3,0.9h-1.1c0-0.9,0.3-1.5,0.9-1.9c0.6-0.4,1.2-0.5,2-0.5c0.9,0,1.6,0.2,2.1,0.5
			c0.5,0.3,0.8,0.8,0.8,1.5v4.2c0,0.1,0,0.2,0.1,0.3c0.1,0.1,0.2,0.1,0.3,0.1c0.1,0,0.1,0,0.2,0c0.1,0,0.1,0,0.2,0v0.9
			c-0.2,0.1-0.3,0.1-0.4,0.1s-0.2,0-0.4,0c-0.4,0-0.7-0.2-0.9-0.5c-0.1-0.2-0.2-0.4-0.2-0.7c-0.3,0.3-0.6,0.6-1.1,0.9
			c-0.5,0.2-1,0.4-1.6,0.4c-0.7,0-1.2-0.2-1.7-0.6c-0.4-0.4-0.6-0.9-0.6-1.5c0-0.7,0.2-1.2,0.6-1.6s1-0.6,1.7-0.7L56.5,179.9z
			 M53.9,183.2c0.3,0.2,0.6,0.3,0.9,0.3c0.4,0,0.9-0.1,1.3-0.3c0.7-0.3,1-0.9,1-1.6v-1c-0.2,0.1-0.3,0.2-0.6,0.2
			c-0.2,0.1-0.5,0.1-0.7,0.1l-0.7,0.1c-0.4,0.1-0.8,0.2-1,0.3c-0.4,0.2-0.6,0.6-0.6,1C53.5,182.7,53.6,183,53.9,183.2z M53.8,174.4
			h1.3v1.4h-1.3V174.4z M56.1,174.4h1.3v1.4h-1.3V174.4z"/>
		<path d="M59.9,187.2c0.7-1.4,1.2-2.4,1.4-3.1c0.3-1,0.5-2.1,0.5-3.4c0-1.3-0.2-2.5-0.6-3.6c-0.2-0.7-0.7-1.6-1.3-2.9h0.8
			c0.7,1.1,1.1,1.8,1.3,2.1c0.1,0.3,0.3,0.6,0.5,1.1c0.2,0.6,0.4,1.1,0.5,1.7c0.1,0.6,0.1,1.1,0.1,1.6c0,1.3-0.2,2.6-0.6,3.6
			c-0.3,0.7-0.8,1.7-1.7,3H59.9z"/>
	</g>
	<g>
		<path d="M492.7,157.5h1.2v10h-1.2V157.5z"/>
		<path d="M495.8,157.5h1.3v1.4h-1.3V157.5z M495.8,160.2h1.3v7.3h-1.3V160.2z"/>
		<path d="M500.1,160.2v4.9c0,0.4,0.1,0.7,0.2,0.9c0.2,0.4,0.6,0.7,1.2,0.7c0.8,0,1.4-0.4,1.7-1.1c0.2-0.4,0.2-1,0.2-1.7v-3.6h1.2
			v7.3h-1.2l0-1.1c-0.2,0.3-0.4,0.5-0.6,0.7c-0.5,0.4-1,0.6-1.7,0.6c-1,0-1.7-0.3-2.1-1c-0.2-0.4-0.3-0.9-0.3-1.5v-5H500.1z"/>
		<path d="M512,160.9c0.6,0.6,1,1.6,1,2.8c0,1.2-0.3,2.2-0.9,2.9c-0.6,0.8-1.5,1.2-2.7,1.2c-1,0-1.8-0.3-2.4-1
			c-0.6-0.7-0.9-1.6-0.9-2.7c0-1.2,0.3-2.2,0.9-2.9s1.5-1.1,2.5-1.1C510.5,160,511.3,160.3,512,160.9z M511.2,165.8
			c0.3-0.6,0.4-1.3,0.4-2.1c0-0.7-0.1-1.2-0.3-1.7c-0.3-0.7-0.9-1-1.8-1c-0.7,0-1.3,0.3-1.6,0.9s-0.5,1.3-0.5,2.1
			c0,0.8,0.2,1.4,0.5,1.9s0.9,0.8,1.6,0.8C510.3,166.7,510.9,166.4,511.2,165.8z"/>
		<path d="M514.7,158.1h1.2v2h1.2v1h-1.2v4.8c0,0.3,0.1,0.4,0.3,0.5c0.1,0.1,0.3,0.1,0.5,0.1c0.1,0,0.1,0,0.2,0s0.1,0,0.2,0v1
			c-0.1,0-0.3,0.1-0.4,0.1c-0.2,0-0.3,0-0.5,0c-0.6,0-1-0.1-1.2-0.4s-0.3-0.7-0.3-1.1v-4.8h-1v-1h1V158.1z"/>
		<path d="M518.3,157.5h1.3v1.4h-1.3V157.5z M518.3,160.2h1.3v7.3h-1.3V160.2z"/>
		<path d="M521.4,160.2h1.2v1c0.3-0.4,0.7-0.7,1.1-0.9s0.8-0.3,1.3-0.3c1,0,1.7,0.4,2.1,1.1c0.2,0.4,0.3,1,0.3,1.7v4.7h-1.3v-4.6
			c0-0.4-0.1-0.8-0.2-1.1c-0.2-0.5-0.6-0.7-1.2-0.7c-0.3,0-0.5,0-0.7,0.1c-0.3,0.1-0.6,0.3-0.9,0.6c-0.2,0.2-0.3,0.5-0.4,0.7
			c-0.1,0.3-0.1,0.6-0.1,1.1v3.8h-1.2V160.2z"/>
		<path d="M495.9,174.1c-0.7,1.4-1.2,2.4-1.4,3.1c-0.3,1-0.5,2.2-0.5,3.5c0,1.3,0.2,2.5,0.6,3.6c0.2,0.7,0.7,1.6,1.3,2.9h-0.8
			c-0.7-1-1.1-1.7-1.2-2s-0.3-0.7-0.5-1.2c-0.3-0.7-0.4-1.4-0.5-2.2c0-0.4-0.1-0.8-0.1-1.1c0-1.3,0.2-2.6,0.6-3.6
			c0.3-0.7,0.8-1.7,1.7-3H495.9z"/>
		<path d="M497.3,177h1.2v1c0.3-0.4,0.7-0.7,1.1-0.9c0.4-0.2,0.8-0.3,1.3-0.3c1,0,1.7,0.4,2.1,1.1c0.2,0.4,0.3,1,0.3,1.7v4.7H502
			v-4.6c0-0.4-0.1-0.8-0.2-1.1c-0.2-0.5-0.6-0.7-1.2-0.7c-0.3,0-0.5,0-0.7,0.1c-0.3,0.1-0.6,0.3-0.9,0.6c-0.2,0.2-0.3,0.5-0.4,0.7
			c-0.1,0.3-0.1,0.6-0.1,1.1v3.8h-1.2V177z"/>
		<path d="M509.6,177.2c0.5,0.2,0.9,0.6,1.1,0.9c0.2,0.4,0.4,0.8,0.5,1.3c0.1,0.3,0.1,0.9,0.1,1.6H506c0,0.7,0.2,1.3,0.5,1.8
			c0.3,0.4,0.8,0.7,1.5,0.7c0.6,0,1.1-0.2,1.5-0.6c0.2-0.2,0.4-0.5,0.5-0.9h1.2c0,0.3-0.1,0.6-0.3,0.9c-0.2,0.3-0.4,0.6-0.6,0.8
			c-0.4,0.4-0.8,0.6-1.4,0.7c-0.3,0.1-0.6,0.1-1,0.1c-0.9,0-1.7-0.3-2.3-1c-0.6-0.7-0.9-1.6-0.9-2.8c0-1.2,0.3-2.1,1-2.9
			c0.6-0.7,1.5-1.1,2.5-1.1C508.6,176.8,509.1,176.9,509.6,177.2z M510.1,180.1c0-0.5-0.2-1-0.3-1.3c-0.3-0.6-0.9-0.9-1.7-0.9
			c-0.6,0-1,0.2-1.4,0.6c-0.4,0.4-0.6,0.9-0.6,1.6H510.1z"/>
		<path d="M513.6,182c0,0.4,0.1,0.7,0.3,0.9c0.3,0.4,0.9,0.6,1.6,0.6c0.5,0,0.9-0.1,1.2-0.3c0.4-0.2,0.5-0.5,0.5-0.9
			c0-0.3-0.1-0.6-0.4-0.7c-0.2-0.1-0.5-0.2-1.1-0.3l-1-0.2c-0.6-0.2-1.1-0.3-1.4-0.5c-0.5-0.3-0.8-0.8-0.8-1.4
			c0-0.7,0.3-1.3,0.8-1.7c0.5-0.4,1.2-0.6,2-0.6c1.1,0,1.9,0.3,2.4,1c0.3,0.4,0.5,0.9,0.5,1.3h-1.2c0-0.3-0.1-0.5-0.3-0.8
			c-0.3-0.3-0.8-0.5-1.5-0.5c-0.5,0-0.8,0.1-1.1,0.3c-0.2,0.2-0.4,0.4-0.4,0.7c0,0.3,0.2,0.6,0.5,0.8c0.2,0.1,0.5,0.2,0.8,0.3
			l0.8,0.2c0.9,0.2,1.5,0.4,1.8,0.6c0.5,0.3,0.7,0.8,0.7,1.5c0,0.7-0.2,1.2-0.8,1.7c-0.5,0.5-1.3,0.7-2.3,0.7
			c-1.1,0-1.9-0.2-2.3-0.7c-0.5-0.5-0.7-1.1-0.7-1.8H513.6z"/>
		<path d="M520.1,174.9h1.2v2h1.2v1h-1.2v4.8c0,0.3,0.1,0.4,0.3,0.5c0.1,0,0.3,0.1,0.5,0.1c0.1,0,0.1,0,0.2,0c0.1,0,0.1,0,0.2,0v1
			c-0.1,0-0.3,0.1-0.4,0.1c-0.2,0-0.3,0-0.5,0c-0.6,0-1-0.1-1.2-0.4c-0.2-0.3-0.3-0.7-0.3-1.1V178h-1v-1h1V174.9z"/>
		<path d="M528.3,177.2c0.5,0.2,0.9,0.6,1.1,0.9c0.2,0.4,0.4,0.8,0.5,1.3c0.1,0.3,0.1,0.9,0.1,1.6h-5.3c0,0.7,0.2,1.3,0.5,1.8
			c0.3,0.4,0.8,0.7,1.5,0.7c0.6,0,1.1-0.2,1.5-0.6c0.2-0.2,0.4-0.5,0.5-0.9h1.2c0,0.3-0.1,0.6-0.3,0.9c-0.2,0.3-0.4,0.6-0.6,0.8
			c-0.4,0.4-0.8,0.6-1.4,0.7c-0.3,0.1-0.6,0.1-1,0.1c-0.9,0-1.7-0.3-2.3-1c-0.6-0.7-0.9-1.6-0.9-2.8c0-1.2,0.3-2.1,1-2.9
			c0.6-0.7,1.5-1.1,2.5-1.1C527.3,176.8,527.8,176.9,528.3,177.2z M528.7,180.1c0-0.5-0.2-1-0.3-1.3c-0.3-0.6-0.9-0.9-1.7-0.9
			c-0.6,0-1,0.2-1.4,0.6c-0.4,0.4-0.6,0.9-0.6,1.6H528.7z"/>
		<path d="M531.1,187.2c0.7-1.4,1.2-2.4,1.4-3.1c0.3-1,0.5-2.1,0.5-3.4c0-1.3-0.2-2.5-0.6-3.6c-0.2-0.7-0.7-1.6-1.3-2.9h0.8
			c0.7,1.1,1.1,1.8,1.3,2.1c0.1,0.3,0.3,0.6,0.5,1.1c0.2,0.6,0.4,1.1,0.5,1.7c0.1,0.6,0.1,1.1,0.1,1.6c0,1.3-0.2,2.6-0.6,3.6
			c-0.3,0.7-0.8,1.7-1.7,3H531.1z"/>
	</g>
	<g>
		<path d="M379.4,233.3l2,6l2-6h1.3l-2.8,7.3h-1.3l-2.7-7.3H379.4z"/>
		<path d="M389.8,236.2c0.3,0,0.5-0.2,0.6-0.4c0.1-0.1,0.1-0.3,0.1-0.5c0-0.4-0.1-0.7-0.4-0.9c-0.3-0.2-0.7-0.3-1.3-0.3
			c-0.6,0-1.1,0.2-1.4,0.5c-0.1,0.2-0.2,0.5-0.3,0.9h-1.1c0-0.9,0.3-1.5,0.9-1.9c0.6-0.4,1.2-0.5,2-0.5c0.9,0,1.6,0.2,2.1,0.5
			c0.5,0.3,0.8,0.8,0.8,1.5v4.2c0,0.1,0,0.2,0.1,0.3c0.1,0.1,0.2,0.1,0.3,0.1c0.1,0,0.1,0,0.2,0c0.1,0,0.1,0,0.2,0v0.9
			c-0.2,0.1-0.3,0.1-0.4,0.1s-0.2,0-0.4,0c-0.4,0-0.7-0.2-0.9-0.5c-0.1-0.2-0.2-0.4-0.2-0.7c-0.3,0.3-0.6,0.6-1.1,0.9
			s-1,0.4-1.6,0.4c-0.7,0-1.2-0.2-1.7-0.6c-0.4-0.4-0.6-0.9-0.6-1.5c0-0.7,0.2-1.2,0.6-1.6s1-0.6,1.7-0.7L389.8,236.2z M387.2,239.6
			c0.3,0.2,0.6,0.3,0.9,0.3c0.4,0,0.9-0.1,1.3-0.3c0.7-0.3,1-0.9,1-1.6v-1c-0.2,0.1-0.3,0.2-0.6,0.2c-0.2,0.1-0.5,0.1-0.7,0.1
			l-0.7,0.1c-0.4,0.1-0.8,0.2-1,0.3c-0.4,0.2-0.6,0.6-0.6,1C386.8,239.1,386.9,239.4,387.2,239.6z M387.1,230.8h1.3v1.4h-1.3V230.8z
			 M389.4,230.8h1.3v1.4h-1.3V230.8z"/>
		<path d="M393.7,233.3h1.2v1.3c0.1-0.2,0.3-0.5,0.7-0.9c0.4-0.4,0.8-0.5,1.3-0.5c0,0,0.1,0,0.1,0s0.1,0,0.3,0v1.3
			c-0.1,0-0.1,0-0.2,0c-0.1,0-0.1,0-0.2,0c-0.6,0-1.1,0.2-1.4,0.6c-0.3,0.4-0.5,0.9-0.5,1.4v4.2h-1.2V233.3z"/>
		<path d="M398.3,230.6h1.3v1.4h-1.3V230.6z M398.3,233.4h1.3v7.3h-1.3V233.4z"/>
		<path d="M405.3,236.2c0.3,0,0.5-0.2,0.6-0.4c0.1-0.1,0.1-0.3,0.1-0.5c0-0.4-0.1-0.7-0.4-0.9c-0.3-0.2-0.7-0.3-1.3-0.3
			c-0.6,0-1.1,0.2-1.4,0.5c-0.1,0.2-0.2,0.5-0.3,0.9h-1.1c0-0.9,0.3-1.5,0.9-1.9c0.6-0.4,1.2-0.5,2-0.5c0.9,0,1.6,0.2,2.1,0.5
			c0.5,0.3,0.8,0.8,0.8,1.5v4.2c0,0.1,0,0.2,0.1,0.3c0.1,0.1,0.2,0.1,0.3,0.1c0.1,0,0.1,0,0.2,0c0.1,0,0.1,0,0.2,0v0.9
			c-0.2,0.1-0.3,0.1-0.4,0.1s-0.2,0-0.4,0c-0.4,0-0.7-0.2-0.9-0.5c-0.1-0.2-0.2-0.4-0.2-0.7c-0.3,0.3-0.6,0.6-1.1,0.9
			s-1,0.4-1.6,0.4c-0.7,0-1.2-0.2-1.7-0.6c-0.4-0.4-0.6-0.9-0.6-1.5c0-0.7,0.2-1.2,0.6-1.6s1-0.6,1.7-0.7L405.3,236.2z M402.7,239.6
			c0.3,0.2,0.6,0.3,0.9,0.3c0.4,0,0.9-0.1,1.3-0.3c0.7-0.3,1-0.9,1-1.6v-1c-0.2,0.1-0.3,0.2-0.6,0.2c-0.2,0.1-0.5,0.1-0.7,0.1
			l-0.7,0.1c-0.4,0.1-0.8,0.2-1,0.3c-0.4,0.2-0.6,0.6-0.6,1C402.3,239.1,402.5,239.4,402.7,239.6z"/>
		<path d="M409.2,230.6h1.3v1.4h-1.3V230.6z M409.2,233.4h1.3v7.3h-1.3V233.4z"/>
		<path d="M412.3,233.3h1.2v1c0.3-0.4,0.7-0.7,1.1-0.9s0.8-0.3,1.3-0.3c1,0,1.7,0.4,2.1,1.1c0.2,0.4,0.3,1,0.3,1.7v4.7H417v-4.6
			c0-0.4-0.1-0.8-0.2-1.1c-0.2-0.5-0.6-0.7-1.2-0.7c-0.3,0-0.5,0-0.7,0.1c-0.3,0.1-0.6,0.3-0.9,0.6c-0.2,0.2-0.3,0.5-0.4,0.7
			c-0.1,0.3-0.1,0.6-0.1,1.1v3.8h-1.2V233.3z"/>
		<path d="M424.6,233.5c0.5,0.2,0.9,0.6,1.1,0.9c0.2,0.4,0.4,0.8,0.5,1.3c0.1,0.3,0.1,0.9,0.1,1.6H421c0,0.7,0.2,1.3,0.5,1.8
			c0.3,0.5,0.8,0.7,1.5,0.7c0.6,0,1.1-0.2,1.5-0.6c0.2-0.2,0.4-0.5,0.5-0.9h1.2c0,0.3-0.1,0.6-0.3,0.9c-0.2,0.3-0.4,0.6-0.6,0.8
			c-0.4,0.4-0.8,0.6-1.4,0.7c-0.3,0.1-0.6,0.1-1,0.1c-0.9,0-1.7-0.3-2.3-1c-0.6-0.7-0.9-1.6-0.9-2.8c0-1.2,0.3-2.1,1-2.9
			s1.5-1.1,2.5-1.1C423.6,233.2,424.1,233.3,424.6,233.5z M425,236.4c0-0.5-0.2-1-0.3-1.3c-0.3-0.6-0.9-0.9-1.7-0.9
			c-0.6,0-1,0.2-1.4,0.6c-0.4,0.4-0.6,0.9-0.6,1.6H425z"/>
	</g>
	<g>
		<path d="M378.8,252.6h1.2v5.8l3.2-3.1h1.6l-2.8,2.7l3,4.6h-1.6l-2.3-3.7l-1,1v2.7h-1.2V252.6z"/>
		<path d="M390.4,255.5c0.5,0.2,0.9,0.6,1.1,0.9c0.2,0.4,0.4,0.8,0.5,1.3c0.1,0.3,0.1,0.9,0.1,1.6h-5.3c0,0.7,0.2,1.3,0.5,1.8
			c0.3,0.5,0.8,0.7,1.5,0.7c0.6,0,1.1-0.2,1.5-0.6c0.2-0.2,0.4-0.5,0.5-0.9h1.2c0,0.3-0.1,0.6-0.3,0.9c-0.2,0.3-0.4,0.6-0.6,0.8
			c-0.4,0.4-0.8,0.6-1.4,0.7c-0.3,0.1-0.6,0.1-1,0.1c-0.9,0-1.7-0.3-2.3-1c-0.6-0.7-0.9-1.6-0.9-2.8c0-1.2,0.3-2.1,1-2.9
			s1.5-1.1,2.5-1.1C389.4,255.2,389.9,255.3,390.4,255.5z M390.8,258.4c0-0.5-0.2-1-0.3-1.3c-0.3-0.6-0.9-0.9-1.7-0.9
			c-0.6,0-1,0.2-1.4,0.6c-0.4,0.4-0.6,0.9-0.6,1.6H390.8z"/>
		<path d="M393.6,252.6h1.2v3.7c0.3-0.4,0.6-0.6,0.8-0.8c0.4-0.3,0.9-0.4,1.5-0.4c1.1,0,1.8,0.4,2.2,1.1c0.2,0.4,0.3,1,0.3,1.7v4.7
			h-1.3v-4.6c0-0.5-0.1-0.9-0.2-1.2c-0.2-0.4-0.6-0.6-1.3-0.6c-0.5,0-1,0.2-1.4,0.5s-0.6,1-0.6,2v3.9h-1.2V252.6z"/>
		<path d="M401.4,252.6h1.3v1.4h-1.3V252.6z M401.4,255.4h1.3v7.3h-1.3V255.4z"/>
		<path d="M404.8,253.3h1.2v2h1.2v1H406v4.8c0,0.3,0.1,0.4,0.3,0.5c0.1,0,0.3,0.1,0.5,0.1c0.1,0,0.1,0,0.2,0s0.1,0,0.2,0v1
			c-0.1,0-0.3,0.1-0.4,0.1c-0.2,0-0.3,0-0.5,0c-0.6,0-1-0.1-1.2-0.4c-0.2-0.3-0.3-0.7-0.3-1.1v-4.8h-1v-1h1V253.3z"/>
		<path d="M408.4,252.6h1.3v1.4h-1.3V252.6z M408.4,255.4h1.3v7.3h-1.3V255.4z"/>
		<path d="M411.5,255.3h1.2v1c0.3-0.4,0.7-0.7,1.1-0.9s0.8-0.3,1.3-0.3c1,0,1.7,0.4,2.1,1.1c0.2,0.4,0.3,1,0.3,1.7v4.7h-1.3v-4.6
			c0-0.4-0.1-0.8-0.2-1.1c-0.2-0.5-0.6-0.7-1.2-0.7c-0.3,0-0.5,0-0.7,0.1c-0.3,0.1-0.6,0.3-0.9,0.6c-0.2,0.2-0.3,0.5-0.4,0.7
			c-0.1,0.3-0.1,0.6-0.1,1.1v3.8h-1.2V255.3z"/>
	</g>
	<g>
		<path d="M141.3,233.3l2,6l2-6h1.3l-2.8,7.3h-1.3l-2.7-7.3H141.3z"/>
		<path d="M151.7,236.2c0.3,0,0.5-0.2,0.6-0.4c0.1-0.1,0.1-0.3,0.1-0.5c0-0.4-0.1-0.7-0.4-0.9c-0.3-0.2-0.7-0.3-1.3-0.3
			c-0.6,0-1.1,0.2-1.4,0.5c-0.2,0.2-0.2,0.5-0.3,0.9h-1.1c0-0.9,0.3-1.5,0.9-1.9s1.2-0.5,2-0.5c0.9,0,1.6,0.2,2.1,0.5
			c0.5,0.3,0.8,0.8,0.8,1.5v4.2c0,0.1,0,0.2,0.1,0.3s0.2,0.1,0.3,0.1c0.1,0,0.1,0,0.2,0c0.1,0,0.1,0,0.2,0v0.9
			c-0.2,0.1-0.3,0.1-0.4,0.1s-0.2,0-0.4,0c-0.4,0-0.7-0.2-0.9-0.5c-0.1-0.2-0.2-0.4-0.2-0.7c-0.3,0.3-0.6,0.6-1.1,0.9
			s-1,0.4-1.6,0.4c-0.7,0-1.2-0.2-1.7-0.6c-0.4-0.4-0.6-0.9-0.6-1.5c0-0.7,0.2-1.2,0.6-1.6s1-0.6,1.7-0.7L151.7,236.2z M149.1,239.6
			c0.3,0.2,0.6,0.3,0.9,0.3c0.4,0,0.9-0.1,1.3-0.3c0.7-0.3,1-0.9,1-1.6v-1c-0.2,0.1-0.3,0.2-0.6,0.2c-0.2,0.1-0.5,0.1-0.7,0.1
			l-0.7,0.1c-0.4,0.1-0.8,0.2-1,0.3c-0.4,0.2-0.6,0.6-0.6,1C148.7,239.1,148.8,239.4,149.1,239.6z M149,230.8h1.3v1.4H149V230.8z
			 M151.3,230.8h1.3v1.4h-1.3V230.8z"/>
		<path d="M155.5,233.3h1.2v1.3c0.1-0.2,0.3-0.5,0.7-0.9c0.4-0.4,0.8-0.5,1.3-0.5c0,0,0.1,0,0.1,0s0.1,0,0.3,0v1.3
			c-0.1,0-0.1,0-0.2,0s-0.1,0-0.2,0c-0.6,0-1.1,0.2-1.4,0.6c-0.3,0.4-0.5,0.9-0.5,1.4v4.2h-1.2V233.3z"/>
		<path d="M160.2,230.6h1.3v1.4h-1.3V230.6z M160.2,233.4h1.3v7.3h-1.3V233.4z"/>
		<path d="M163.3,230.6h1.2v10h-1.2V230.6z"/>
		<path d="M166.4,230.6h1.2v10h-1.2V230.6z"/>
		<path d="M169.5,230.6h1.3v1.4h-1.3V230.6z M169.5,233.4h1.3v7.3h-1.3V233.4z"/>
		<path d="M172.6,233.3h1.2v1c0.3-0.4,0.7-0.7,1.1-0.9s0.8-0.3,1.3-0.3c1,0,1.7,0.4,2.1,1.1c0.2,0.4,0.3,1,0.3,1.7v4.7h-1.3v-4.6
			c0-0.4-0.1-0.8-0.2-1.1c-0.2-0.5-0.6-0.7-1.2-0.7c-0.3,0-0.5,0-0.7,0.1c-0.3,0.1-0.6,0.3-0.9,0.6c-0.2,0.2-0.3,0.5-0.4,0.7
			c-0.1,0.3-0.1,0.6-0.1,1.1v3.8h-1.2V233.3z"/>
		<path d="M184.9,233.5c0.5,0.2,0.9,0.6,1.1,0.9c0.2,0.4,0.4,0.8,0.5,1.3c0.1,0.3,0.1,0.9,0.1,1.6h-5.3c0,0.7,0.2,1.3,0.5,1.8
			c0.3,0.5,0.8,0.7,1.5,0.7c0.6,0,1.1-0.2,1.5-0.6c0.2-0.2,0.4-0.5,0.5-0.9h1.2c0,0.3-0.1,0.6-0.3,0.9c-0.2,0.3-0.4,0.6-0.6,0.8
			c-0.4,0.4-0.8,0.6-1.4,0.7c-0.3,0.1-0.6,0.1-1,0.1c-0.9,0-1.7-0.3-2.3-1c-0.6-0.7-0.9-1.6-0.9-2.8c0-1.2,0.3-2.1,1-2.9
			c0.6-0.7,1.5-1.1,2.5-1.1C183.9,233.2,184.4,233.3,184.9,233.5z M185.4,236.4c0-0.5-0.2-1-0.3-1.3c-0.3-0.6-0.9-0.9-1.7-0.9
			c-0.6,0-1,0.2-1.4,0.6c-0.4,0.4-0.6,0.9-0.6,1.6H185.4z"/>
		<path d="M188.2,233.3h1.2v1c0.3-0.4,0.7-0.7,1.1-0.9s0.8-0.3,1.3-0.3c1,0,1.7,0.4,2.1,1.1c0.2,0.4,0.3,1,0.3,1.7v4.7h-1.3v-4.6
			c0-0.4-0.1-0.8-0.2-1.1c-0.2-0.5-0.6-0.7-1.2-0.7c-0.3,0-0.5,0-0.7,0.1c-0.3,0.1-0.6,0.3-0.9,0.6c-0.2,0.2-0.3,0.5-0.4,0.7
			c-0.1,0.3-0.1,0.6-0.1,1.1v3.8h-1.2V233.3z"/>
		<path d="M200.5,233.3l2,6l2-6h1.3l-2.8,7.3h-1.3l-2.7-7.3H200.5z"/>
		<path d="M210.8,236.2c0.3,0,0.5-0.2,0.6-0.4c0.1-0.1,0.1-0.3,0.1-0.5c0-0.4-0.1-0.7-0.4-0.9c-0.3-0.2-0.7-0.3-1.3-0.3
			c-0.6,0-1.1,0.2-1.4,0.5c-0.2,0.2-0.2,0.5-0.3,0.9h-1.1c0-0.9,0.3-1.5,0.9-1.9s1.2-0.5,2-0.5c0.9,0,1.6,0.2,2.1,0.5
			c0.5,0.3,0.8,0.8,0.8,1.5v4.2c0,0.1,0,0.2,0.1,0.3s0.2,0.1,0.3,0.1c0.1,0,0.1,0,0.2,0c0.1,0,0.1,0,0.2,0v0.9
			c-0.2,0.1-0.3,0.1-0.4,0.1s-0.2,0-0.4,0c-0.4,0-0.7-0.2-0.9-0.5c-0.1-0.2-0.2-0.4-0.2-0.7c-0.3,0.3-0.6,0.6-1.1,0.9
			s-1,0.4-1.6,0.4c-0.7,0-1.2-0.2-1.7-0.6c-0.4-0.4-0.6-0.9-0.6-1.5c0-0.7,0.2-1.2,0.6-1.6s1-0.6,1.7-0.7L210.8,236.2z M208.2,239.6
			c0.3,0.2,0.6,0.3,0.9,0.3c0.4,0,0.9-0.1,1.3-0.3c0.7-0.3,1-0.9,1-1.6v-1c-0.2,0.1-0.3,0.2-0.6,0.2c-0.2,0.1-0.5,0.1-0.7,0.1
			l-0.7,0.1c-0.4,0.1-0.8,0.2-1,0.3c-0.4,0.2-0.6,0.6-0.6,1C207.8,239.1,207.9,239.4,208.2,239.6z M208.2,230.8h1.3v1.4h-1.3V230.8z
			 M210.4,230.8h1.3v1.4h-1.3V230.8z"/>
		<path d="M214.7,233.3h1.2v1.3c0.1-0.2,0.3-0.5,0.7-0.9c0.4-0.4,0.8-0.5,1.3-0.5c0,0,0.1,0,0.1,0s0.1,0,0.3,0v1.3
			c-0.1,0-0.1,0-0.2,0s-0.1,0-0.2,0c-0.6,0-1.1,0.2-1.4,0.6c-0.3,0.4-0.5,0.9-0.5,1.4v4.2h-1.2V233.3z"/>
		<path d="M219.3,230.6h1.3v1.4h-1.3V230.6z M219.3,233.4h1.3v7.3h-1.3V233.4z"/>
		<path d="M226.3,236.2c0.3,0,0.5-0.2,0.6-0.4c0.1-0.1,0.1-0.3,0.1-0.5c0-0.4-0.1-0.7-0.4-0.9c-0.3-0.2-0.7-0.3-1.3-0.3
			c-0.6,0-1.1,0.2-1.4,0.5c-0.2,0.2-0.2,0.5-0.3,0.9h-1.1c0-0.9,0.3-1.5,0.9-1.9s1.2-0.5,2-0.5c0.9,0,1.6,0.2,2.1,0.5
			c0.5,0.3,0.8,0.8,0.8,1.5v4.2c0,0.1,0,0.2,0.1,0.3s0.2,0.1,0.3,0.1c0.1,0,0.1,0,0.2,0c0.1,0,0.1,0,0.2,0v0.9
			c-0.2,0.1-0.3,0.1-0.4,0.1s-0.2,0-0.4,0c-0.4,0-0.7-0.2-0.9-0.5c-0.1-0.2-0.2-0.4-0.2-0.7c-0.3,0.3-0.6,0.6-1.1,0.9
			s-1,0.4-1.6,0.4c-0.7,0-1.2-0.2-1.7-0.6c-0.4-0.4-0.6-0.9-0.6-1.5c0-0.7,0.2-1.2,0.6-1.6s1-0.6,1.7-0.7L226.3,236.2z M223.8,239.6
			c0.3,0.2,0.6,0.3,0.9,0.3c0.4,0,0.9-0.1,1.3-0.3c0.7-0.3,1-0.9,1-1.6v-1c-0.2,0.1-0.3,0.2-0.6,0.2c-0.2,0.1-0.5,0.1-0.7,0.1
			l-0.7,0.1c-0.4,0.1-0.8,0.2-1,0.3c-0.4,0.2-0.6,0.6-0.6,1C223.4,239.1,223.5,239.4,223.8,239.6z"/>
		<path d="M230.2,230.6h1.3v1.4h-1.3V230.6z M230.2,233.4h1.3v7.3h-1.3V233.4z"/>
		<path d="M233.3,233.3h1.2v1c0.3-0.4,0.7-0.7,1.1-0.9s0.8-0.3,1.3-0.3c1,0,1.7,0.4,2.1,1.1c0.2,0.4,0.3,1,0.3,1.7v4.7H238v-4.6
			c0-0.4-0.1-0.8-0.2-1.1c-0.2-0.5-0.6-0.7-1.2-0.7c-0.3,0-0.5,0-0.7,0.1c-0.3,0.1-0.6,0.3-0.9,0.6c-0.2,0.2-0.3,0.5-0.4,0.7
			c-0.1,0.3-0.1,0.6-0.1,1.1v3.8h-1.2V233.3z"/>
		<path d="M245.6,233.5c0.5,0.2,0.9,0.6,1.1,0.9c0.2,0.4,0.4,0.8,0.5,1.3c0.1,0.3,0.1,0.9,0.1,1.6H242c0,0.7,0.2,1.3,0.5,1.8
			c0.3,0.5,0.8,0.7,1.5,0.7c0.6,0,1.1-0.2,1.5-0.6c0.2-0.2,0.4-0.5,0.5-0.9h1.2c0,0.3-0.1,0.6-0.3,0.9c-0.2,0.3-0.4,0.6-0.6,0.8
			c-0.4,0.4-0.8,0.6-1.4,0.7c-0.3,0.1-0.6,0.1-1,0.1c-0.9,0-1.7-0.3-2.3-1c-0.6-0.7-0.9-1.6-0.9-2.8c0-1.2,0.3-2.1,1-2.9
			c0.6-0.7,1.5-1.1,2.5-1.1C244.6,233.2,245.1,233.3,245.6,233.5z M246.1,236.4c0-0.5-0.2-1-0.3-1.3c-0.3-0.6-0.9-0.9-1.7-0.9
			c-0.6,0-1,0.2-1.4,0.6c-0.4,0.4-0.6,0.9-0.6,1.6H246.1z"/>
		<path d="M248.6,236.1h3.4v1.3h-3.4V236.1z"/>
		<path d="M253.5,230.6h1.2v5.8l3.2-3.1h1.6l-2.8,2.7l3,4.6H258l-2.3-3.7l-1,1v2.7h-1.2V230.6z"/>
		<path d="M265.1,233.5c0.5,0.2,0.9,0.6,1.1,0.9c0.2,0.4,0.4,0.8,0.5,1.3c0.1,0.3,0.1,0.9,0.1,1.6h-5.3c0,0.7,0.2,1.3,0.5,1.8
			c0.3,0.5,0.8,0.7,1.5,0.7c0.6,0,1.1-0.2,1.5-0.6c0.2-0.2,0.4-0.5,0.5-0.9h1.2c0,0.3-0.1,0.6-0.3,0.9c-0.2,0.3-0.4,0.6-0.6,0.8
			c-0.4,0.4-0.8,0.6-1.4,0.7c-0.3,0.1-0.6,0.1-1,0.1c-0.9,0-1.7-0.3-2.3-1c-0.6-0.7-0.9-1.6-0.9-2.8c0-1.2,0.3-2.1,1-2.9
			c0.6-0.7,1.5-1.1,2.5-1.1C264.1,233.2,264.6,233.3,265.1,233.5z M265.5,236.4c0-0.5-0.2-1-0.3-1.3c-0.3-0.6-0.9-0.9-1.7-0.9
			c-0.6,0-1,0.2-1.4,0.6c-0.4,0.4-0.6,0.9-0.6,1.6H265.5z"/>
		<path d="M268.3,230.6h1.2v3.7c0.3-0.4,0.6-0.6,0.8-0.8c0.4-0.3,0.9-0.4,1.5-0.4c1.1,0,1.8,0.4,2.2,1.1c0.2,0.4,0.3,1,0.3,1.7v4.7
			H273v-4.6c0-0.5-0.1-0.9-0.2-1.2c-0.2-0.4-0.6-0.6-1.3-0.6c-0.5,0-1,0.2-1.4,0.5s-0.6,1-0.6,2v3.9h-1.2V230.6z"/>
		<path d="M276.1,230.6h1.3v1.4h-1.3V230.6z M276.1,233.4h1.3v7.3h-1.3V233.4z"/>
		<path d="M279.5,231.3h1.2v2h1.2v1h-1.2v4.8c0,0.3,0.1,0.4,0.3,0.5c0.1,0,0.3,0.1,0.5,0.1c0.1,0,0.1,0,0.2,0s0.1,0,0.2,0v1
			c-0.1,0-0.3,0.1-0.4,0.1s-0.3,0-0.5,0c-0.6,0-1-0.1-1.2-0.4c-0.2-0.3-0.3-0.7-0.3-1.1v-4.8h-1v-1h1V231.3z"/>
		<path d="M283.1,230.6h1.3v1.4h-1.3V230.6z M283.1,233.4h1.3v7.3h-1.3V233.4z"/>
		<path d="M286.2,233.3h1.2v1c0.3-0.4,0.7-0.7,1.1-0.9c0.4-0.2,0.8-0.3,1.3-0.3c1,0,1.7,0.4,2.1,1.1c0.2,0.4,0.3,1,0.3,1.7v4.7H291
			v-4.6c0-0.4-0.1-0.8-0.2-1.1c-0.2-0.5-0.6-0.7-1.2-0.7c-0.3,0-0.5,0-0.7,0.1c-0.3,0.1-0.6,0.3-0.9,0.6c-0.2,0.2-0.3,0.5-0.4,0.7
			c-0.1,0.3-0.1,0.6-0.1,1.1v3.8h-1.2V233.3z"/>
		<path d="M140.4,252.9h3.4v1.3h-3.4V252.9z"/>
		<path d="M150,250.1h1.4c-0.2,0.5-0.6,1.5-1.2,3.2c-0.4,1.3-0.8,2.3-1.1,3.1c-0.7,1.9-1.2,3-1.5,3.4c-0.3,0.4-0.8,0.6-1.5,0.6
			c-0.2,0-0.3,0-0.4,0c-0.1,0-0.2,0-0.3-0.1v-1.1c0.2,0.1,0.4,0.1,0.5,0.1c0.1,0,0.2,0,0.3,0c0.2,0,0.4,0,0.5-0.1s0.2-0.2,0.3-0.3
			c0,0,0.1-0.2,0.2-0.6s0.2-0.6,0.3-0.8l-2.7-7.5h1.4l2,6L150,250.1z"/>
		<path d="M152.4,247.4h1.2v3.7c0.3-0.4,0.6-0.6,0.8-0.8c0.4-0.3,0.9-0.4,1.5-0.4c1.1,0,1.8,0.4,2.2,1.1c0.2,0.4,0.3,1,0.3,1.7v4.7
			h-1.3v-4.6c0-0.5-0.1-0.9-0.2-1.2c-0.2-0.4-0.6-0.6-1.3-0.6c-0.5,0-1,0.2-1.4,0.5s-0.6,1-0.6,2v3.9h-1.2V247.4z"/>
		<path d="M164.2,250.4c0.2,0.1,0.5,0.4,0.7,0.7v-3.7h1.2v10.1H165v-1c-0.3,0.5-0.6,0.8-1,1c-0.4,0.2-0.8,0.3-1.3,0.3
			c-0.8,0-1.5-0.3-2.1-1c-0.6-0.7-0.9-1.6-0.9-2.7c0-1.1,0.3-2,0.8-2.8c0.5-0.8,1.3-1.2,2.3-1.2C163.4,250,163.8,250.1,164.2,250.4z
			 M161.5,255.9c0.3,0.5,0.9,0.8,1.6,0.8c0.6,0,1-0.2,1.4-0.7c0.4-0.5,0.5-1.2,0.5-2.1c0-0.9-0.2-1.6-0.6-2.1
			c-0.4-0.4-0.8-0.7-1.4-0.7c-0.6,0-1.1,0.2-1.5,0.7s-0.6,1.2-0.6,2.1C161,254.7,161.1,255.3,161.5,255.9z"/>
		<path d="M168,247.4h1.3v1.4H168V247.4z M168,250.2h1.3v7.3H168V250.2z"/>
		<path d="M171.8,255.2c0,0.4,0.1,0.7,0.3,0.9c0.3,0.4,0.9,0.6,1.6,0.6c0.5,0,0.9-0.1,1.2-0.3c0.4-0.2,0.5-0.5,0.5-0.9
			c0-0.3-0.1-0.6-0.4-0.7c-0.2-0.1-0.5-0.2-1.1-0.3l-1-0.2c-0.6-0.2-1.1-0.3-1.4-0.5c-0.5-0.3-0.8-0.8-0.8-1.4
			c0-0.7,0.3-1.3,0.8-1.7c0.5-0.4,1.2-0.6,2-0.6c1.1,0,1.9,0.3,2.4,1c0.3,0.4,0.5,0.9,0.5,1.3h-1.2c0-0.3-0.1-0.5-0.3-0.8
			c-0.3-0.3-0.8-0.5-1.5-0.5c-0.5,0-0.8,0.1-1.1,0.3c-0.2,0.2-0.4,0.4-0.4,0.7c0,0.3,0.2,0.6,0.5,0.8c0.2,0.1,0.5,0.2,0.8,0.3
			l0.8,0.2c0.9,0.2,1.5,0.4,1.8,0.6c0.5,0.3,0.7,0.8,0.7,1.5c0,0.7-0.3,1.2-0.8,1.7s-1.3,0.7-2.3,0.7c-1.1,0-1.9-0.2-2.3-0.7
			c-0.5-0.5-0.7-1.1-0.7-1.8H171.8z"/>
		<path d="M178.3,248.1h1.2v2h1.2v1h-1.2v4.8c0,0.3,0.1,0.4,0.3,0.5c0.1,0,0.3,0.1,0.5,0.1c0.1,0,0.1,0,0.2,0s0.1,0,0.2,0v1
			c-0.1,0-0.3,0.1-0.4,0.1s-0.3,0-0.5,0c-0.6,0-1-0.1-1.2-0.4c-0.2-0.3-0.3-0.7-0.3-1.1v-4.8h-1v-1h1V248.1z"/>
		<path d="M186.5,250.3c0.5,0.2,0.9,0.6,1.1,0.9c0.2,0.4,0.4,0.8,0.5,1.3c0.1,0.3,0.1,0.9,0.1,1.6h-5.3c0,0.7,0.2,1.3,0.5,1.8
			c0.3,0.5,0.8,0.7,1.5,0.7c0.6,0,1.1-0.2,1.5-0.6c0.2-0.2,0.4-0.5,0.5-0.9h1.2c0,0.3-0.1,0.6-0.3,0.9c-0.2,0.3-0.4,0.6-0.6,0.8
			c-0.4,0.4-0.8,0.6-1.4,0.7c-0.3,0.1-0.6,0.1-1,0.1c-0.9,0-1.7-0.3-2.3-1c-0.6-0.7-0.9-1.6-0.9-2.8c0-1.2,0.3-2.1,1-2.9
			c0.6-0.7,1.5-1.1,2.5-1.1C185.5,250,186,250.1,186.5,250.3z M186.9,253.2c0-0.5-0.2-1-0.3-1.3c-0.3-0.6-0.9-0.9-1.7-0.9
			c-0.6,0-1,0.2-1.4,0.6c-0.4,0.4-0.6,0.9-0.6,1.6H186.9z"/>
		<path d="M189.8,247.4h1.2v10h-1.2V247.4z"/>
		<path d="M192.9,250.1h1.2v1c0.3-0.4,0.6-0.6,0.8-0.8c0.4-0.3,0.9-0.4,1.4-0.4c0.6,0,1.1,0.1,1.4,0.4c0.2,0.2,0.4,0.4,0.5,0.7
			c0.3-0.4,0.6-0.7,1-0.9c0.4-0.2,0.8-0.3,1.2-0.3c1,0,1.7,0.4,2,1.1c0.2,0.4,0.3,0.9,0.3,1.5v4.9h-1.3v-5.1c0-0.5-0.1-0.8-0.4-1
			s-0.5-0.3-0.9-0.3c-0.5,0-0.9,0.2-1.2,0.5s-0.5,0.9-0.5,1.6v4.3h-1.3v-4.8c0-0.5-0.1-0.9-0.2-1.1c-0.2-0.3-0.5-0.5-1-0.5
			c-0.5,0-0.9,0.2-1.3,0.5s-0.6,1-0.6,2v3.9h-1.2V250.1z"/>
		<path d="M208.4,253c0.3,0,0.5-0.2,0.6-0.4c0.1-0.1,0.1-0.3,0.1-0.5c0-0.4-0.1-0.7-0.4-0.9c-0.3-0.2-0.7-0.3-1.3-0.3
			c-0.6,0-1.1,0.2-1.4,0.5c-0.2,0.2-0.2,0.5-0.3,0.9h-1.1c0-0.9,0.3-1.5,0.9-1.9s1.2-0.5,2-0.5c0.9,0,1.6,0.2,2.1,0.5
			c0.5,0.3,0.8,0.8,0.8,1.5v4.2c0,0.1,0,0.2,0.1,0.3s0.2,0.1,0.3,0.1c0.1,0,0.1,0,0.2,0c0.1,0,0.1,0,0.2,0v0.9
			c-0.2,0.1-0.3,0.1-0.4,0.1s-0.2,0-0.4,0c-0.4,0-0.7-0.2-0.9-0.5c-0.1-0.2-0.2-0.4-0.2-0.7c-0.3,0.3-0.6,0.6-1.1,0.9
			s-1,0.4-1.6,0.4c-0.7,0-1.2-0.2-1.7-0.6c-0.4-0.4-0.6-0.9-0.6-1.5c0-0.7,0.2-1.2,0.6-1.6s1-0.6,1.7-0.7L208.4,253z M205.9,256.4
			c0.3,0.2,0.6,0.3,0.9,0.3c0.4,0,0.9-0.1,1.3-0.3c0.7-0.3,1-0.9,1-1.6v-1c-0.2,0.1-0.3,0.2-0.6,0.2c-0.2,0.1-0.5,0.1-0.7,0.1
			l-0.7,0.1c-0.4,0.1-0.8,0.2-1,0.3c-0.4,0.2-0.6,0.6-0.6,1C205.5,255.9,205.6,256.2,205.9,256.4z M205.8,247.6h1.3v1.4h-1.3V247.6z
			 M208.1,247.6h1.3v1.4h-1.3V247.6z"/>
	</g>
	<g>
		<path d="M277.2,295h1.4v8.8h5v1.2h-6.4V295z"/>
		<path d="M288.8,300.6c0.3,0,0.5-0.2,0.6-0.4c0.1-0.1,0.1-0.3,0.1-0.5c0-0.4-0.1-0.7-0.4-0.9c-0.3-0.2-0.7-0.3-1.3-0.3
			c-0.6,0-1.1,0.2-1.4,0.5c-0.1,0.2-0.2,0.5-0.3,0.9h-1.1c0-0.9,0.3-1.5,0.9-1.9c0.6-0.4,1.2-0.5,2-0.5c0.9,0,1.6,0.2,2.1,0.5
			c0.5,0.3,0.8,0.8,0.8,1.5v4.2c0,0.1,0,0.2,0.1,0.3c0.1,0.1,0.2,0.1,0.3,0.1c0.1,0,0.1,0,0.2,0c0.1,0,0.1,0,0.2,0v0.9
			c-0.2,0.1-0.3,0.1-0.4,0.1s-0.2,0-0.4,0c-0.4,0-0.7-0.2-0.9-0.5c-0.1-0.2-0.2-0.4-0.2-0.7c-0.3,0.3-0.6,0.6-1.1,0.9
			s-1,0.4-1.6,0.4c-0.7,0-1.2-0.2-1.7-0.6c-0.4-0.4-0.6-0.9-0.6-1.5c0-0.7,0.2-1.2,0.6-1.6s1-0.6,1.7-0.7L288.8,300.6z M286.2,303.9
			c0.3,0.2,0.6,0.3,0.9,0.3c0.4,0,0.9-0.1,1.3-0.3c0.7-0.3,1-0.9,1-1.6v-1c-0.2,0.1-0.3,0.2-0.6,0.2c-0.2,0.1-0.5,0.1-0.7,0.1
			l-0.7,0.1c-0.4,0.1-0.8,0.2-1,0.3c-0.4,0.2-0.6,0.6-0.6,1C285.8,303.4,285.9,303.7,286.2,303.9z M286.1,295.1h1.3v1.4h-1.3V295.1z
			 M288.4,295.1h1.3v1.4h-1.3V295.1z"/>
		<path d="M292.6,297.7h1.2v1c0.3-0.4,0.6-0.6,0.8-0.8c0.4-0.3,0.9-0.4,1.4-0.4c0.6,0,1.1,0.1,1.4,0.4c0.2,0.2,0.4,0.4,0.5,0.7
			c0.3-0.4,0.6-0.7,1-0.9c0.4-0.2,0.8-0.3,1.2-0.3c1,0,1.7,0.4,2,1.1c0.2,0.4,0.3,0.9,0.3,1.5v4.9h-1.3v-5.1c0-0.5-0.1-0.8-0.4-1
			c-0.2-0.2-0.5-0.3-0.9-0.3c-0.5,0-0.9,0.2-1.2,0.5c-0.3,0.3-0.5,0.9-0.5,1.6v4.3h-1.3v-4.8c0-0.5-0.1-0.9-0.2-1.1
			c-0.2-0.3-0.5-0.5-1-0.5c-0.5,0-0.9,0.2-1.3,0.5c-0.4,0.4-0.6,1-0.6,2v3.9h-1.2V297.7z"/>
		<path d="M304.2,297.7h1.2v1c0.2-0.3,0.5-0.6,0.8-0.8c0.4-0.3,0.9-0.4,1.5-0.4c0.8,0,1.5,0.3,2.1,1c0.6,0.6,0.9,1.5,0.9,2.7
			c0,1.6-0.4,2.7-1.3,3.4c-0.5,0.4-1.1,0.6-1.9,0.6c-0.6,0-1-0.1-1.4-0.4c-0.2-0.1-0.5-0.4-0.7-0.7v3.7h-1.2V297.7z M308.8,303.5
			c0.4-0.5,0.6-1.2,0.6-2.2c0-0.6-0.1-1.1-0.3-1.5c-0.3-0.8-0.9-1.2-1.8-1.2c-0.9,0-1.4,0.4-1.8,1.3c-0.2,0.5-0.3,1-0.3,1.7
			c0,0.6,0.1,1,0.3,1.4c0.3,0.8,0.9,1.1,1.8,1.1C308,304.2,308.4,303.9,308.8,303.5z"/>
		<path d="M317.4,298.4c0.6,0.6,1,1.6,1,2.8c0,1.2-0.3,2.2-0.9,2.9s-1.5,1.2-2.7,1.2c-1,0-1.8-0.3-2.4-1c-0.6-0.7-0.9-1.6-0.9-2.7
			c0-1.2,0.3-2.2,0.9-2.9s1.5-1.1,2.5-1.1C315.9,297.5,316.7,297.8,317.4,298.4z M316.6,303.3c0.3-0.6,0.4-1.3,0.4-2.1
			c0-0.7-0.1-1.2-0.3-1.7c-0.3-0.7-0.9-1-1.8-1c-0.7,0-1.3,0.3-1.6,0.9s-0.5,1.3-0.5,2.1c0,0.8,0.2,1.4,0.5,1.9s0.9,0.8,1.6,0.8
			C315.8,304.2,316.3,303.9,316.6,303.3z M313.3,295.1h1.3v1.4h-1.3V295.1z M315.6,295.1h1.3v1.4h-1.3V295.1z"/>
		<path d="M319.9,294.9h1.2v3.7c0.3-0.4,0.6-0.6,0.8-0.8c0.4-0.3,0.9-0.4,1.5-0.4c1.1,0,1.8,0.4,2.2,1.1c0.2,0.4,0.3,1,0.3,1.7v4.7
			h-1.3v-4.6c0-0.5-0.1-0.9-0.2-1.2c-0.2-0.4-0.6-0.6-1.3-0.6c-0.5,0-1,0.2-1.4,0.5s-0.6,1-0.6,2v3.9h-1.2V294.9z"/>
		<path d="M332.2,297.9c0.5,0.2,0.9,0.6,1.1,0.9c0.2,0.4,0.4,0.8,0.5,1.3c0.1,0.3,0.1,0.9,0.1,1.6h-5.3c0,0.7,0.2,1.3,0.5,1.8
			c0.3,0.5,0.8,0.7,1.5,0.7c0.6,0,1.1-0.2,1.5-0.6c0.2-0.2,0.4-0.5,0.5-0.9h1.2c0,0.3-0.1,0.6-0.3,0.9c-0.2,0.3-0.4,0.6-0.6,0.8
			c-0.4,0.4-0.8,0.6-1.4,0.7c-0.3,0.1-0.6,0.1-1,0.1c-0.9,0-1.7-0.3-2.3-1c-0.6-0.7-0.9-1.6-0.9-2.8c0-1.2,0.3-2.1,1-2.9
			s1.5-1.1,2.5-1.1C331.2,297.5,331.7,297.6,332.2,297.9z M332.6,300.8c0-0.5-0.2-1-0.3-1.3c-0.3-0.6-0.9-0.9-1.7-0.9
			c-0.6,0-1,0.2-1.4,0.6c-0.4,0.4-0.6,0.9-0.6,1.6H332.6z"/>
		<path d="M335.5,297.7h1.2v1.3c0.1-0.2,0.3-0.5,0.7-0.9c0.4-0.4,0.8-0.5,1.3-0.5c0,0,0.1,0,0.1,0s0.1,0,0.3,0v1.3
			c-0.1,0-0.1,0-0.2,0c-0.1,0-0.1,0-0.2,0c-0.6,0-1.1,0.2-1.4,0.6c-0.3,0.4-0.5,0.9-0.5,1.4v4.2h-1.2V297.7z"/>
		<path d="M340.1,295h1.2v5.8l3.2-3.1h1.6l-2.8,2.7l3,4.6h-1.6l-2.3-3.7l-1,1v2.7h-1.2V295z"/>
		<path d="M351,300.6c0.3,0,0.5-0.2,0.6-0.4c0.1-0.1,0.1-0.3,0.1-0.5c0-0.4-0.1-0.7-0.4-0.9c-0.3-0.2-0.7-0.3-1.3-0.3
			c-0.6,0-1.1,0.2-1.4,0.5c-0.1,0.2-0.2,0.5-0.3,0.9h-1.1c0-0.9,0.3-1.5,0.9-1.9c0.6-0.4,1.2-0.5,2-0.5c0.9,0,1.6,0.2,2.1,0.5
			c0.5,0.3,0.8,0.8,0.8,1.5v4.2c0,0.1,0,0.2,0.1,0.3c0.1,0.1,0.2,0.1,0.3,0.1c0.1,0,0.1,0,0.2,0c0.1,0,0.1,0,0.2,0v0.9
			c-0.2,0.1-0.3,0.1-0.4,0.1s-0.2,0-0.4,0c-0.4,0-0.7-0.2-0.9-0.5c-0.1-0.2-0.2-0.4-0.2-0.7c-0.3,0.3-0.6,0.6-1.1,0.9
			s-1,0.4-1.6,0.4c-0.7,0-1.2-0.2-1.7-0.6c-0.4-0.4-0.6-0.9-0.6-1.5c0-0.7,0.2-1.2,0.6-1.6s1-0.6,1.7-0.7L351,300.6z M348.4,303.9
			c0.3,0.2,0.6,0.3,0.9,0.3c0.4,0,0.9-0.1,1.3-0.3c0.7-0.3,1-0.9,1-1.6v-1c-0.2,0.1-0.3,0.2-0.6,0.2c-0.2,0.1-0.5,0.1-0.7,0.1
			l-0.7,0.1c-0.4,0.1-0.8,0.2-1,0.3c-0.4,0.2-0.6,0.6-0.6,1C348,303.4,348.2,303.7,348.4,303.9z M348.4,295.1h1.3v1.4h-1.3V295.1z
			 M350.6,295.1h1.3v1.4h-1.3V295.1z"/>
		<path d="M354.9,297.7h1.2v1c0.3-0.4,0.7-0.7,1.1-0.9s0.8-0.3,1.3-0.3c1,0,1.7,0.4,2.1,1.1c0.2,0.4,0.3,1,0.3,1.7v4.7h-1.3v-4.6
			c0-0.4-0.1-0.8-0.2-1.1c-0.2-0.5-0.6-0.7-1.2-0.7c-0.3,0-0.5,0-0.7,0.1c-0.3,0.1-0.6,0.3-0.9,0.6c-0.2,0.2-0.3,0.5-0.4,0.7
			c-0.1,0.3-0.1,0.6-0.1,1.1v3.8h-1.2V297.7z"/>
		<path d="M371.1,297.7h1.4c-0.2,0.5-0.6,1.5-1.2,3.2c-0.4,1.3-0.8,2.3-1.1,3.1c-0.7,1.9-1.2,3-1.5,3.4c-0.3,0.4-0.8,0.6-1.5,0.6
			c-0.2,0-0.3,0-0.4,0c-0.1,0-0.2,0-0.3-0.1v-1.1c0.2,0.1,0.4,0.1,0.5,0.1s0.2,0,0.3,0c0.2,0,0.4,0,0.5-0.1c0.1-0.1,0.2-0.2,0.3-0.3
			c0,0,0.1-0.2,0.2-0.6s0.2-0.6,0.3-0.8l-2.7-7.5h1.4l2,6L371.1,297.7z"/>
		<path d="M373.6,294.9h1.2v3.7c0.3-0.4,0.6-0.6,0.8-0.8c0.4-0.3,0.9-0.4,1.5-0.4c1.1,0,1.8,0.4,2.2,1.1c0.2,0.4,0.3,1,0.3,1.7v4.7
			h-1.3v-4.6c0-0.5-0.1-0.9-0.2-1.2c-0.2-0.4-0.6-0.6-1.3-0.6c-0.5,0-1,0.2-1.4,0.5s-0.6,1-0.6,2v3.9h-1.2V294.9z"/>
		<path d="M385.4,297.9c0.2,0.1,0.5,0.4,0.7,0.7v-3.7h1.2V305h-1.1v-1c-0.3,0.5-0.6,0.8-1,1s-0.8,0.3-1.3,0.3c-0.8,0-1.5-0.3-2.1-1
			c-0.6-0.7-0.9-1.6-0.9-2.7c0-1.1,0.3-2,0.8-2.8c0.5-0.8,1.3-1.2,2.3-1.2C384.5,297.5,385,297.7,385.4,297.9z M382.6,303.4
			c0.3,0.5,0.9,0.8,1.6,0.8c0.6,0,1-0.2,1.4-0.7c0.4-0.5,0.5-1.2,0.5-2.1c0-0.9-0.2-1.6-0.6-2.1c-0.4-0.4-0.8-0.7-1.4-0.7
			c-0.6,0-1.1,0.2-1.5,0.7c-0.4,0.5-0.6,1.2-0.6,2.1C382.1,302.2,382.3,302.9,382.6,303.4z"/>
		<path d="M389.1,295h1.3v1.4h-1.3V295z M389.1,297.7h1.3v7.3h-1.3V297.7z"/>
		<path d="M393,302.7c0,0.4,0.1,0.7,0.3,0.9c0.3,0.4,0.9,0.6,1.6,0.6c0.5,0,0.9-0.1,1.2-0.3c0.4-0.2,0.5-0.5,0.5-0.9
			c0-0.3-0.1-0.6-0.4-0.7c-0.2-0.1-0.5-0.2-1.1-0.3l-1-0.2c-0.6-0.2-1.1-0.3-1.4-0.5c-0.5-0.3-0.8-0.8-0.8-1.4
			c0-0.7,0.3-1.3,0.8-1.7s1.2-0.6,2-0.6c1.1,0,1.9,0.3,2.4,1c0.3,0.4,0.5,0.9,0.5,1.3h-1.2c0-0.3-0.1-0.5-0.3-0.8
			c-0.3-0.3-0.8-0.5-1.5-0.5c-0.5,0-0.8,0.1-1.1,0.3s-0.4,0.4-0.4,0.7c0,0.3,0.2,0.6,0.5,0.8c0.2,0.1,0.5,0.2,0.8,0.3l0.8,0.2
			c0.9,0.2,1.5,0.4,1.8,0.6c0.5,0.3,0.7,0.8,0.7,1.5c0,0.7-0.2,1.2-0.8,1.7s-1.3,0.7-2.3,0.7c-1.1,0-1.9-0.2-2.3-0.7
			c-0.5-0.5-0.7-1.1-0.7-1.8H393z"/>
		<path d="M399.5,295.6h1.2v2h1.2v1h-1.2v4.8c0,0.3,0.1,0.4,0.3,0.5c0.1,0,0.3,0.1,0.5,0.1c0.1,0,0.1,0,0.2,0s0.1,0,0.2,0v1
			c-0.1,0-0.3,0.1-0.4,0.1c-0.2,0-0.3,0-0.5,0c-0.6,0-1-0.1-1.2-0.4c-0.2-0.3-0.3-0.7-0.3-1.1v-4.8h-1v-1h1V295.6z"/>
		<path d="M407.7,297.9c0.5,0.2,0.9,0.6,1.1,0.9c0.2,0.4,0.4,0.8,0.5,1.3c0.1,0.3,0.1,0.9,0.1,1.6H404c0,0.7,0.2,1.3,0.5,1.8
			c0.3,0.5,0.8,0.7,1.5,0.7c0.6,0,1.1-0.2,1.5-0.6c0.2-0.2,0.4-0.5,0.5-0.9h1.2c0,0.3-0.1,0.6-0.3,0.9c-0.2,0.3-0.4,0.6-0.6,0.8
			c-0.4,0.4-0.8,0.6-1.4,0.7c-0.3,0.1-0.6,0.1-1,0.1c-0.9,0-1.7-0.3-2.3-1c-0.6-0.7-0.9-1.6-0.9-2.8c0-1.2,0.3-2.1,1-2.9
			s1.5-1.1,2.5-1.1C406.7,297.5,407.2,297.6,407.7,297.9z M408.1,300.8c0-0.5-0.2-1-0.3-1.3c-0.3-0.6-0.9-0.9-1.7-0.9
			c-0.6,0-1,0.2-1.4,0.6c-0.4,0.4-0.6,0.9-0.6,1.6H408.1z"/>
		<path d="M415.4,297.9c0.5,0.2,0.9,0.6,1.1,0.9c0.2,0.4,0.4,0.8,0.5,1.3c0.1,0.3,0.1,0.9,0.1,1.6h-5.3c0,0.7,0.2,1.3,0.5,1.8
			c0.3,0.5,0.8,0.7,1.5,0.7c0.6,0,1.1-0.2,1.5-0.6c0.2-0.2,0.4-0.5,0.5-0.9h1.2c0,0.3-0.1,0.6-0.3,0.9c-0.2,0.3-0.4,0.6-0.6,0.8
			c-0.4,0.4-0.8,0.6-1.4,0.7c-0.3,0.1-0.6,0.1-1,0.1c-0.9,0-1.7-0.3-2.3-1c-0.6-0.7-0.9-1.6-0.9-2.8c0-1.2,0.3-2.1,1-2.9
			s1.5-1.1,2.5-1.1C414.5,297.5,415,297.6,415.4,297.9z M415.9,300.8c0-0.5-0.2-1-0.3-1.3c-0.3-0.6-0.9-0.9-1.7-0.9
			c-0.6,0-1,0.2-1.4,0.6c-0.4,0.4-0.6,0.9-0.6,1.6H415.9z"/>
		<path d="M418.7,297.7h1.2v1c0.3-0.4,0.7-0.7,1.1-0.9s0.8-0.3,1.3-0.3c1,0,1.7,0.4,2.1,1.1c0.2,0.4,0.3,1,0.3,1.7v4.7h-1.3v-4.6
			c0-0.4-0.1-0.8-0.2-1.1c-0.2-0.5-0.6-0.7-1.2-0.7c-0.3,0-0.5,0-0.7,0.1c-0.3,0.1-0.6,0.3-0.9,0.6c-0.2,0.2-0.3,0.5-0.4,0.7
			c-0.1,0.3-0.1,0.6-0.1,1.1v3.8h-1.2V297.7z"/>
		<path d="M435,297.7h1.4c-0.2,0.5-0.6,1.5-1.2,3.2c-0.4,1.3-0.8,2.3-1.1,3.1c-0.7,1.9-1.2,3-1.5,3.4c-0.3,0.4-0.8,0.6-1.5,0.6
			c-0.2,0-0.3,0-0.4,0c-0.1,0-0.2,0-0.3-0.1v-1.1c0.2,0.1,0.4,0.1,0.5,0.1s0.2,0,0.3,0c0.2,0,0.4,0,0.5-0.1c0.1-0.1,0.2-0.2,0.3-0.3
			c0,0,0.1-0.2,0.2-0.6s0.2-0.6,0.3-0.8l-2.7-7.5h1.4l2,6L435,297.7z"/>
		<path d="M437.4,297.7h1.2v1c0.3-0.4,0.6-0.6,0.8-0.8c0.4-0.3,0.9-0.4,1.4-0.4c0.6,0,1.1,0.1,1.4,0.4c0.2,0.2,0.4,0.4,0.5,0.7
			c0.3-0.4,0.6-0.7,1-0.9c0.4-0.2,0.8-0.3,1.2-0.3c1,0,1.7,0.4,2,1.1c0.2,0.4,0.3,0.9,0.3,1.5v4.9H446v-5.1c0-0.5-0.1-0.8-0.4-1
			c-0.2-0.2-0.5-0.3-0.9-0.3c-0.5,0-0.9,0.2-1.2,0.5c-0.3,0.3-0.5,0.9-0.5,1.6v4.3h-1.3v-4.8c0-0.5-0.1-0.9-0.2-1.1
			c-0.2-0.3-0.5-0.5-1-0.5c-0.5,0-0.9,0.2-1.3,0.5c-0.4,0.4-0.6,1-0.6,2v3.9h-1.2V297.7z"/>
		<path d="M448.9,297.7h1.2v1c0.2-0.3,0.5-0.6,0.8-0.8c0.4-0.3,0.9-0.4,1.5-0.4c0.8,0,1.5,0.3,2.1,1c0.6,0.6,0.9,1.5,0.9,2.7
			c0,1.6-0.4,2.7-1.3,3.4c-0.5,0.4-1.1,0.6-1.9,0.6c-0.6,0-1-0.1-1.4-0.4c-0.2-0.1-0.5-0.4-0.7-0.7v3.7h-1.2V297.7z M453.6,303.5
			c0.4-0.5,0.6-1.2,0.6-2.2c0-0.6-0.1-1.1-0.3-1.5c-0.3-0.8-0.9-1.2-1.8-1.2c-0.9,0-1.4,0.4-1.8,1.3c-0.2,0.5-0.3,1-0.3,1.7
			c0,0.6,0.1,1,0.3,1.4c0.3,0.8,0.9,1.1,1.8,1.1C452.7,304.2,453.2,303.9,453.6,303.5z"/>
		<path d="M460.8,300.6c0.3,0,0.5-0.2,0.6-0.4c0.1-0.1,0.1-0.3,0.1-0.5c0-0.4-0.1-0.7-0.4-0.9c-0.3-0.2-0.7-0.3-1.3-0.3
			c-0.6,0-1.1,0.2-1.4,0.5c-0.1,0.2-0.2,0.5-0.3,0.9h-1.1c0-0.9,0.3-1.5,0.9-1.9c0.6-0.4,1.2-0.5,2-0.5c0.9,0,1.6,0.2,2.1,0.5
			c0.5,0.3,0.8,0.8,0.8,1.5v4.2c0,0.1,0,0.2,0.1,0.3c0.1,0.1,0.2,0.1,0.3,0.1c0.1,0,0.1,0,0.2,0c0.1,0,0.1,0,0.2,0v0.9
			c-0.2,0.1-0.3,0.1-0.4,0.1s-0.2,0-0.4,0c-0.4,0-0.7-0.2-0.9-0.5c-0.1-0.2-0.2-0.4-0.2-0.7c-0.3,0.3-0.6,0.6-1.1,0.9
			s-1,0.4-1.6,0.4c-0.7,0-1.2-0.2-1.7-0.6c-0.4-0.4-0.6-0.9-0.6-1.5c0-0.7,0.2-1.2,0.6-1.6s1-0.6,1.7-0.7L460.8,300.6z M458.2,303.9
			c0.3,0.2,0.6,0.3,0.9,0.3c0.4,0,0.9-0.1,1.3-0.3c0.7-0.3,1-0.9,1-1.6v-1c-0.2,0.1-0.3,0.2-0.6,0.2c-0.2,0.1-0.5,0.1-0.7,0.1
			l-0.7,0.1c-0.4,0.1-0.8,0.2-1,0.3c-0.4,0.2-0.6,0.6-0.6,1C457.8,303.4,457.9,303.7,458.2,303.9z M458.1,295.1h1.3v1.4h-1.3V295.1z
			 M460.4,295.1h1.3v1.4h-1.3V295.1z"/>
		<path d="M464.7,297.7h1.2v1.3c0.1-0.2,0.3-0.5,0.7-0.9c0.4-0.4,0.8-0.5,1.3-0.5c0,0,0.1,0,0.1,0s0.1,0,0.3,0v1.3
			c-0.1,0-0.1,0-0.2,0c-0.1,0-0.1,0-0.2,0c-0.6,0-1.1,0.2-1.4,0.6c-0.3,0.4-0.5,0.9-0.5,1.4v4.2h-1.2V297.7z"/>
		<path d="M469.3,295h1.3v1.4h-1.3V295z M469.3,297.7h1.3v7.3h-1.3V297.7z"/>
		<path d="M473.1,302.7c0,0.4,0.1,0.7,0.3,0.9c0.3,0.4,0.9,0.6,1.6,0.6c0.5,0,0.9-0.1,1.2-0.3c0.4-0.2,0.5-0.5,0.5-0.9
			c0-0.3-0.1-0.6-0.4-0.7c-0.2-0.1-0.5-0.2-1.1-0.3l-1-0.2c-0.6-0.2-1.1-0.3-1.4-0.5c-0.5-0.3-0.8-0.8-0.8-1.4
			c0-0.7,0.3-1.3,0.8-1.7s1.2-0.6,2-0.6c1.1,0,1.9,0.3,2.4,1c0.3,0.4,0.5,0.9,0.5,1.3h-1.2c0-0.3-0.1-0.5-0.3-0.8
			c-0.3-0.3-0.8-0.5-1.5-0.5c-0.5,0-0.8,0.1-1.1,0.3s-0.4,0.4-0.4,0.7c0,0.3,0.2,0.6,0.5,0.8c0.2,0.1,0.5,0.2,0.8,0.3l0.8,0.2
			c0.9,0.2,1.5,0.4,1.8,0.6c0.5,0.3,0.7,0.8,0.7,1.5c0,0.7-0.2,1.2-0.8,1.7s-1.3,0.7-2.3,0.7c-1.1,0-1.9-0.2-2.3-0.7
			c-0.5-0.5-0.7-1.1-0.7-1.8H473.1z"/>
		<path d="M479.6,295.6h1.2v2h1.2v1h-1.2v4.8c0,0.3,0.1,0.4,0.3,0.5c0.1,0,0.3,0.1,0.5,0.1c0.1,0,0.1,0,0.2,0s0.1,0,0.2,0v1
			c-0.1,0-0.3,0.1-0.4,0.1c-0.2,0-0.3,0-0.5,0c-0.6,0-1-0.1-1.2-0.4c-0.2-0.3-0.3-0.7-0.3-1.1v-4.8h-1v-1h1V295.6z"/>
		<path d="M488.6,298.4c0.6,0.6,1,1.6,1,2.8c0,1.2-0.3,2.2-0.9,2.9s-1.5,1.2-2.7,1.2c-1,0-1.8-0.3-2.4-1c-0.6-0.7-0.9-1.6-0.9-2.7
			c0-1.2,0.3-2.2,0.9-2.9s1.5-1.1,2.5-1.1C487.1,297.5,487.9,297.8,488.6,298.4z M487.8,303.3c0.3-0.6,0.4-1.3,0.4-2.1
			c0-0.7-0.1-1.2-0.3-1.7c-0.3-0.7-0.9-1-1.8-1c-0.7,0-1.3,0.3-1.6,0.9s-0.5,1.3-0.5,2.1c0,0.8,0.2,1.4,0.5,1.9s0.9,0.8,1.6,0.8
			C487,304.2,487.5,303.9,487.8,303.3z M484.5,295.1h1.3v1.4h-1.3V295.1z M486.8,295.1h1.3v1.4h-1.3V295.1z"/>
		<path d="M491.8,302.7c0,0.4,0.1,0.7,0.3,0.9c0.3,0.4,0.9,0.6,1.6,0.6c0.5,0,0.9-0.1,1.2-0.3c0.4-0.2,0.5-0.5,0.5-0.9
			c0-0.3-0.1-0.6-0.4-0.7c-0.2-0.1-0.5-0.2-1.1-0.3l-1-0.2c-0.6-0.2-1.1-0.3-1.4-0.5c-0.5-0.3-0.8-0.8-0.8-1.4
			c0-0.7,0.3-1.3,0.8-1.7s1.2-0.6,2-0.6c1.1,0,1.9,0.3,2.4,1c0.3,0.4,0.5,0.9,0.5,1.3h-1.2c0-0.3-0.1-0.5-0.3-0.8
			c-0.3-0.3-0.8-0.5-1.5-0.5c-0.5,0-0.8,0.1-1.1,0.3s-0.4,0.4-0.4,0.7c0,0.3,0.2,0.6,0.5,0.8c0.2,0.1,0.5,0.2,0.8,0.3l0.8,0.2
			c0.9,0.2,1.5,0.4,1.8,0.6c0.5,0.3,0.7,0.8,0.7,1.5c0,0.7-0.2,1.2-0.8,1.7s-1.3,0.7-2.3,0.7c-1.1,0-1.9-0.2-2.3-0.7
			c-0.5-0.5-0.7-1.1-0.7-1.8H491.8z"/>
		<path d="M498.3,295.6h1.2v2h1.2v1h-1.2v4.8c0,0.3,0.1,0.4,0.3,0.5c0.1,0,0.3,0.1,0.5,0.1c0.1,0,0.1,0,0.2,0s0.1,0,0.2,0v1
			c-0.1,0-0.3,0.1-0.4,0.1c-0.2,0-0.3,0-0.5,0c-0.6,0-1-0.1-1.2-0.4c-0.2-0.3-0.3-0.7-0.3-1.1v-4.8h-1v-1h1V295.6z"/>
		<path d="M505.9,300.6c0.3,0,0.5-0.2,0.6-0.4c0.1-0.1,0.1-0.3,0.1-0.5c0-0.4-0.1-0.7-0.4-0.9c-0.3-0.2-0.7-0.3-1.3-0.3
			c-0.6,0-1.1,0.2-1.4,0.5c-0.1,0.2-0.2,0.5-0.3,0.9H502c0-0.9,0.3-1.5,0.9-1.9c0.6-0.4,1.2-0.5,2-0.5c0.9,0,1.6,0.2,2.1,0.5
			c0.5,0.3,0.8,0.8,0.8,1.5v4.2c0,0.1,0,0.2,0.1,0.3c0.1,0.1,0.2,0.1,0.3,0.1c0.1,0,0.1,0,0.2,0c0.1,0,0.1,0,0.2,0v0.9
			c-0.2,0.1-0.3,0.1-0.4,0.1s-0.2,0-0.4,0c-0.4,0-0.7-0.2-0.9-0.5c-0.1-0.2-0.2-0.4-0.2-0.7c-0.3,0.3-0.6,0.6-1.1,0.9
			s-1,0.4-1.6,0.4c-0.7,0-1.2-0.2-1.7-0.6c-0.4-0.4-0.6-0.9-0.6-1.5c0-0.7,0.2-1.2,0.6-1.6s1-0.6,1.7-0.7L505.9,300.6z M503.3,303.9
			c0.3,0.2,0.6,0.3,0.9,0.3c0.4,0,0.9-0.1,1.3-0.3c0.7-0.3,1-0.9,1-1.6v-1c-0.2,0.1-0.3,0.2-0.6,0.2c-0.2,0.1-0.5,0.1-0.7,0.1
			l-0.7,0.1c-0.4,0.1-0.8,0.2-1,0.3c-0.4,0.2-0.6,0.6-0.6,1C502.9,303.4,503,303.7,503.3,303.9z M503.2,295.1h1.3v1.4h-1.3V295.1z
			 M505.5,295.1h1.3v1.4h-1.3V295.1z"/>
		<path d="M281.6,314.7c0.5,0.2,0.9,0.6,1.1,0.9c0.2,0.4,0.4,0.8,0.5,1.3c0.1,0.3,0.1,0.9,0.1,1.6H278c0,0.7,0.2,1.3,0.5,1.8
			c0.3,0.5,0.8,0.7,1.5,0.7c0.6,0,1.1-0.2,1.5-0.6c0.2-0.2,0.4-0.5,0.5-0.9h1.2c0,0.3-0.1,0.6-0.3,0.9c-0.2,0.3-0.4,0.6-0.6,0.8
			c-0.4,0.4-0.8,0.6-1.4,0.7c-0.3,0.1-0.6,0.1-1,0.1c-0.9,0-1.7-0.3-2.3-1c-0.6-0.7-0.9-1.6-0.9-2.8c0-1.2,0.3-2.1,1-2.9
			c0.6-0.7,1.5-1.1,2.5-1.1C280.6,314.3,281.1,314.4,281.6,314.7z M282,317.6c0-0.5-0.2-1-0.3-1.3c-0.3-0.6-0.9-0.9-1.7-0.9
			c-0.6,0-1,0.2-1.4,0.6c-0.4,0.4-0.6,0.9-0.6,1.6H282z"/>
		<path d="M284.9,314.5h1.2v1.3c0.1-0.2,0.3-0.5,0.7-0.9c0.4-0.4,0.8-0.5,1.3-0.5c0,0,0.1,0,0.1,0s0.1,0,0.3,0v1.3
			c-0.1,0-0.1,0-0.2,0c-0.1,0-0.1,0-0.2,0c-0.6,0-1.1,0.2-1.4,0.6c-0.3,0.4-0.5,0.9-0.5,1.4v4.2h-1.2V314.5z"/>
		<path d="M289.5,311.8h1.3v1.4h-1.3V311.8z M289.5,314.5h1.3v7.3h-1.3V314.5z"/>
		<path d="M293.4,319.5c0,0.4,0.1,0.7,0.3,0.9c0.3,0.4,0.9,0.6,1.6,0.6c0.5,0,0.9-0.1,1.2-0.3c0.4-0.2,0.5-0.5,0.5-0.9
			c0-0.3-0.1-0.6-0.4-0.7c-0.2-0.1-0.5-0.2-1.1-0.3l-1-0.2c-0.6-0.2-1.1-0.3-1.4-0.5c-0.5-0.3-0.8-0.8-0.8-1.4
			c0-0.7,0.3-1.3,0.8-1.7s1.2-0.6,2-0.6c1.1,0,1.9,0.3,2.4,1c0.3,0.4,0.5,0.9,0.5,1.3h-1.2c0-0.3-0.1-0.5-0.3-0.8
			c-0.3-0.3-0.8-0.5-1.5-0.5c-0.5,0-0.8,0.1-1.1,0.3s-0.4,0.4-0.4,0.7c0,0.3,0.2,0.6,0.5,0.8c0.2,0.1,0.5,0.2,0.8,0.3l0.8,0.2
			c0.9,0.2,1.5,0.4,1.8,0.6c0.5,0.3,0.7,0.8,0.7,1.5c0,0.7-0.2,1.2-0.8,1.7s-1.3,0.7-2.3,0.7c-1.1,0-1.9-0.2-2.3-0.7
			c-0.5-0.5-0.7-1.1-0.7-1.8H293.4z"/>
		<path d="M299.9,312.4h1.2v2h1.2v1h-1.2v4.8c0,0.3,0.1,0.4,0.3,0.5c0.1,0,0.3,0.1,0.5,0.1c0.1,0,0.1,0,0.2,0s0.1,0,0.2,0v1
			c-0.1,0-0.3,0.1-0.4,0.1c-0.2,0-0.3,0-0.5,0c-0.6,0-1-0.1-1.2-0.4c-0.2-0.3-0.3-0.7-0.3-1.1v-4.8h-1v-1h1V312.4z"/>
		<path d="M307.4,317.4c0.3,0,0.5-0.2,0.6-0.4c0.1-0.1,0.1-0.3,0.1-0.5c0-0.4-0.1-0.7-0.4-0.9c-0.3-0.2-0.7-0.3-1.3-0.3
			c-0.6,0-1.1,0.2-1.4,0.5c-0.1,0.2-0.2,0.5-0.3,0.9h-1.1c0-0.9,0.3-1.5,0.9-1.9c0.6-0.4,1.2-0.5,2-0.5c0.9,0,1.6,0.2,2.1,0.5
			c0.5,0.3,0.8,0.8,0.8,1.5v4.2c0,0.1,0,0.2,0.1,0.3c0.1,0.1,0.2,0.1,0.3,0.1c0.1,0,0.1,0,0.2,0c0.1,0,0.1,0,0.2,0v0.9
			c-0.2,0.1-0.3,0.1-0.4,0.1s-0.2,0-0.4,0c-0.4,0-0.7-0.2-0.9-0.5c-0.1-0.2-0.2-0.4-0.2-0.7c-0.3,0.3-0.6,0.6-1.1,0.9
			s-1,0.4-1.6,0.4c-0.7,0-1.2-0.2-1.7-0.6c-0.4-0.4-0.6-0.9-0.6-1.5c0-0.7,0.2-1.2,0.6-1.6s1-0.6,1.7-0.7L307.4,317.4z M304.8,320.7
			c0.3,0.2,0.6,0.3,0.9,0.3c0.4,0,0.9-0.1,1.3-0.3c0.7-0.3,1-0.9,1-1.6v-1c-0.2,0.1-0.3,0.2-0.6,0.2c-0.2,0.1-0.5,0.1-0.7,0.1
			l-0.7,0.1c-0.4,0.1-0.8,0.2-1,0.3c-0.4,0.2-0.6,0.6-0.6,1C304.5,320.2,304.6,320.5,304.8,320.7z M304.8,311.9h1.3v1.4h-1.3V311.9z
			 M307.1,311.9h1.3v1.4h-1.3V311.9z"/>
		<path d="M311.9,314.5l2,6l2-6h1.3l-2.8,7.3h-1.3l-2.7-7.3H311.9z"/>
		<path d="M322.2,317.4c0.3,0,0.5-0.2,0.6-0.4c0.1-0.1,0.1-0.3,0.1-0.5c0-0.4-0.1-0.7-0.4-0.9c-0.3-0.2-0.7-0.3-1.3-0.3
			c-0.6,0-1.1,0.2-1.4,0.5c-0.1,0.2-0.2,0.5-0.3,0.9h-1.1c0-0.9,0.3-1.5,0.9-1.9c0.6-0.4,1.2-0.5,2-0.5c0.9,0,1.6,0.2,2.1,0.5
			c0.5,0.3,0.8,0.8,0.8,1.5v4.2c0,0.1,0,0.2,0.1,0.3c0.1,0.1,0.2,0.1,0.3,0.1c0.1,0,0.1,0,0.2,0c0.1,0,0.1,0,0.2,0v0.9
			c-0.2,0.1-0.3,0.1-0.4,0.1s-0.2,0-0.4,0c-0.4,0-0.7-0.2-0.9-0.5c-0.1-0.2-0.2-0.4-0.2-0.7c-0.3,0.3-0.6,0.6-1.1,0.9
			s-1,0.4-1.6,0.4c-0.7,0-1.2-0.2-1.7-0.6c-0.4-0.4-0.6-0.9-0.6-1.5c0-0.7,0.2-1.2,0.6-1.6s1-0.6,1.7-0.7L322.2,317.4z M319.6,320.7
			c0.3,0.2,0.6,0.3,0.9,0.3c0.4,0,0.9-0.1,1.3-0.3c0.7-0.3,1-0.9,1-1.6v-1c-0.2,0.1-0.3,0.2-0.6,0.2c-0.2,0.1-0.5,0.1-0.7,0.1
			l-0.7,0.1c-0.4,0.1-0.8,0.2-1,0.3c-0.4,0.2-0.6,0.6-0.6,1C319.2,320.2,319.4,320.5,319.6,320.7z M319.6,311.9h1.3v1.4h-1.3V311.9z
			 M321.8,311.9h1.3v1.4h-1.3V311.9z"/>
		<path d="M330,314.5h1.2v1c0.3-0.4,0.6-0.6,0.8-0.8c0.4-0.3,0.9-0.4,1.4-0.4c0.6,0,1.1,0.1,1.4,0.4c0.2,0.2,0.4,0.4,0.5,0.7
			c0.3-0.4,0.6-0.7,1-0.9c0.4-0.2,0.8-0.3,1.2-0.3c1,0,1.7,0.4,2,1.1c0.2,0.4,0.3,0.9,0.3,1.5v4.9h-1.3v-5.1c0-0.5-0.1-0.8-0.4-1
			c-0.2-0.2-0.5-0.3-0.9-0.3c-0.5,0-0.9,0.2-1.2,0.5c-0.3,0.3-0.5,0.9-0.5,1.6v4.3h-1.3V317c0-0.5-0.1-0.9-0.2-1.1
			c-0.2-0.3-0.5-0.5-1-0.5c-0.5,0-0.9,0.2-1.3,0.5c-0.4,0.4-0.6,1-0.6,2v3.9H330V314.5z"/>
		<path d="M341.6,311.8h1.3v1.4h-1.3V311.8z M341.6,314.5h1.3v7.3h-1.3V314.5z"/>
		<path d="M344.7,311.8h1.2v5.8l3.2-3.1h1.6l-2.8,2.7l3,4.6h-1.6l-2.3-3.7l-1,1v2.7h-1.2V311.8z"/>
		<path d="M351.8,314.5h1.2v1.3c0.1-0.2,0.3-0.5,0.7-0.9c0.4-0.4,0.8-0.5,1.3-0.5c0,0,0.1,0,0.1,0s0.1,0,0.3,0v1.3
			c-0.1,0-0.1,0-0.2,0c-0.1,0-0.1,0-0.2,0c-0.6,0-1.1,0.2-1.4,0.6c-0.3,0.4-0.5,0.9-0.5,1.4v4.2h-1.2V314.5z"/>
		<path d="M361.7,315.2c0.6,0.6,1,1.6,1,2.8c0,1.2-0.3,2.2-0.9,2.9s-1.5,1.2-2.7,1.2c-1,0-1.8-0.3-2.4-1c-0.6-0.7-0.9-1.6-0.9-2.7
			c0-1.2,0.3-2.2,0.9-2.9s1.5-1.1,2.5-1.1C360.3,314.3,361.1,314.6,361.7,315.2z M360.9,320.1c0.3-0.6,0.4-1.3,0.4-2.1
			c0-0.7-0.1-1.2-0.3-1.7c-0.3-0.7-0.9-1-1.8-1c-0.7,0-1.3,0.3-1.6,0.9s-0.5,1.3-0.5,2.1c0,0.8,0.2,1.4,0.5,1.9s0.9,0.8,1.6,0.8
			C360.1,321,360.6,320.7,360.9,320.1z"/>
		<path d="M364.2,311.8h1.2v5.8l3.2-3.1h1.6l-2.8,2.7l3,4.6h-1.6l-2.3-3.7l-1,1v2.7h-1.2V311.8z"/>
		<path d="M375.1,317.4c0.3,0,0.5-0.2,0.6-0.4c0.1-0.1,0.1-0.3,0.1-0.5c0-0.4-0.1-0.7-0.4-0.9c-0.3-0.2-0.7-0.3-1.3-0.3
			c-0.6,0-1.1,0.2-1.4,0.5c-0.1,0.2-0.2,0.5-0.3,0.9h-1.1c0-0.9,0.3-1.5,0.9-1.9c0.6-0.4,1.2-0.5,2-0.5c0.9,0,1.6,0.2,2.1,0.5
			c0.5,0.3,0.8,0.8,0.8,1.5v4.2c0,0.1,0,0.2,0.1,0.3c0.1,0.1,0.2,0.1,0.3,0.1c0.1,0,0.1,0,0.2,0c0.1,0,0.1,0,0.2,0v0.9
			c-0.2,0.1-0.3,0.1-0.4,0.1s-0.2,0-0.4,0c-0.4,0-0.7-0.2-0.9-0.5c-0.1-0.2-0.2-0.4-0.2-0.7c-0.3,0.3-0.6,0.6-1.1,0.9
			s-1,0.4-1.6,0.4c-0.7,0-1.2-0.2-1.7-0.6c-0.4-0.4-0.6-0.9-0.6-1.5c0-0.7,0.2-1.2,0.6-1.6s1-0.6,1.7-0.7L375.1,317.4z M372.5,320.7
			c0.3,0.2,0.6,0.3,0.9,0.3c0.4,0,0.9-0.1,1.3-0.3c0.7-0.3,1-0.9,1-1.6v-1c-0.2,0.1-0.3,0.2-0.6,0.2c-0.2,0.1-0.5,0.1-0.7,0.1
			l-0.7,0.1c-0.4,0.1-0.8,0.2-1,0.3c-0.4,0.2-0.6,0.6-0.6,1C372.1,320.2,372.3,320.5,372.5,320.7z"/>
		<path d="M378.9,314.5h1.2v1c0.2-0.3,0.5-0.6,0.8-0.8c0.4-0.3,0.9-0.4,1.5-0.4c0.8,0,1.5,0.3,2.1,1c0.6,0.6,0.9,1.5,0.9,2.7
			c0,1.6-0.4,2.7-1.3,3.4c-0.5,0.4-1.1,0.6-1.9,0.6c-0.6,0-1-0.1-1.4-0.4c-0.2-0.1-0.5-0.4-0.7-0.7v3.7h-1.2V314.5z M383.5,320.3
			c0.4-0.5,0.6-1.2,0.6-2.2c0-0.6-0.1-1.1-0.3-1.5c-0.3-0.8-0.9-1.2-1.8-1.2c-0.9,0-1.4,0.4-1.8,1.3c-0.2,0.5-0.3,1-0.3,1.7
			c0,0.6,0.1,1,0.3,1.4c0.3,0.8,0.9,1.1,1.8,1.1C382.6,321,383.1,320.7,383.5,320.3z"/>
		<path d="M387.5,319.5c0,0.4,0.1,0.7,0.3,0.9c0.3,0.4,0.9,0.6,1.6,0.6c0.5,0,0.9-0.1,1.2-0.3c0.4-0.2,0.5-0.5,0.5-0.9
			c0-0.3-0.1-0.6-0.4-0.7c-0.2-0.1-0.5-0.2-1.1-0.3l-1-0.2c-0.6-0.2-1.1-0.3-1.4-0.5c-0.5-0.3-0.8-0.8-0.8-1.4
			c0-0.7,0.3-1.3,0.8-1.7s1.2-0.6,2-0.6c1.1,0,1.9,0.3,2.4,1c0.3,0.4,0.5,0.9,0.5,1.3H391c0-0.3-0.1-0.5-0.3-0.8
			c-0.3-0.3-0.8-0.5-1.5-0.5c-0.5,0-0.8,0.1-1.1,0.3s-0.4,0.4-0.4,0.7c0,0.3,0.2,0.6,0.5,0.8c0.2,0.1,0.5,0.2,0.8,0.3l0.8,0.2
			c0.9,0.2,1.5,0.4,1.8,0.6c0.5,0.3,0.7,0.8,0.7,1.5c0,0.7-0.2,1.2-0.8,1.7s-1.3,0.7-2.3,0.7c-1.1,0-1.9-0.2-2.3-0.7
			c-0.5-0.5-0.7-1.1-0.7-1.8H387.5z"/>
		<path d="M398.3,314.7c0.5,0.2,0.9,0.6,1.1,0.9c0.2,0.4,0.4,0.8,0.5,1.3c0.1,0.3,0.1,0.9,0.1,1.6h-5.3c0,0.7,0.2,1.3,0.5,1.8
			c0.3,0.5,0.8,0.7,1.5,0.7c0.6,0,1.1-0.2,1.5-0.6c0.2-0.2,0.4-0.5,0.5-0.9h1.2c0,0.3-0.1,0.6-0.3,0.9c-0.2,0.3-0.4,0.6-0.6,0.8
			c-0.4,0.4-0.8,0.6-1.4,0.7c-0.3,0.1-0.6,0.1-1,0.1c-0.9,0-1.7-0.3-2.3-1c-0.6-0.7-0.9-1.6-0.9-2.8c0-1.2,0.3-2.1,1-2.9
			s1.5-1.1,2.5-1.1C397.3,314.3,397.8,314.4,398.3,314.7z M398.7,317.6c0-0.5-0.2-1-0.3-1.3c-0.3-0.6-0.9-0.9-1.7-0.9
			c-0.6,0-1,0.2-1.4,0.6c-0.4,0.4-0.6,0.9-0.6,1.6H398.7z"/>
		<path d="M401.6,311.8h1.2v10h-1.2V311.8z"/>
		<path d="M404.7,311.8h1.3v1.4h-1.3V311.8z M404.7,314.5h1.3v7.3h-1.3V314.5z"/>
	</g>
</g>
</svg>
