<?xml version="1.0" encoding="UTF-8" standalone="no"?>
<svg
   xmlns:svg="http://www.w3.org/2000/svg"
   xmlns="http://www.w3.org/2000/svg"
   version="1.1"
   width="292.84491"
   height="462.98376"
   id="svg15015">
  <defs
     id="defs15017" />
  <g
     transform="translate(-245.00611,-269.44174)"
     id="layer1">
    <path
       d="m 246.00611,270.44174 209.54156,0 81.30336,460.98375 -209.54156,0"
       id="path4382"
       style="fill:#ee2730;fill-opacity:1;fill-rule:nonzero;stroke:none" />
    <path
       d="m 298.63014,282.60982 c -0.61486,0 -1.12709,0.20874 -1.58824,0.56723 -1.5756,1.29378 -9.81099,5.94988 -11.91178,10.66388 0.62767,3.7917 2.30532,1.79879 3.97059,0.45378 1.02479,0.0897 -4.65126,5.00558 -4.65126,11.23111 0,9.56885 2.47819,17.80678 13.04624,22.80256 l 0.79411,0.11326 c 1.72931,-0.14085 3.76004,0.53441 5.10505,-0.56722 l 10.77733,-8.84876 c 1.07601,-0.85826 1.70169,-10.78085 1.70169,-12.13867 0,-8.685 -2.40697,-20.16736 -11.91179,-23.36979 l -0.45378,-0.11326 c -1.49875,-0.46115 -3.09759,-0.79412 -4.87816,-0.79412 z m -2.38236,11.34456 c 0.31765,-0.0425 0.72911,0.15428 1.24791,0.56722 5.89248,4.6243 7.63744,13.43522 7.71429,20.64709 0.0254,1.51153 -1.20386,2.10799 -2.38235,1.13446 -6.14868,-5.02141 -7.7143,-11.91647 -7.7143,-19.51264 0.029,-0.91268 0.18151,-2.70882 1.13445,-2.83613 z m 148.27335,23.82356 c -6.18193,0.0181 -13.9126,2.62515 -20.53365,7.94119 -10.60645,8.48003 -14.18857,20.81125 -8.9622,25.52525 5.22638,4.73959 18.6625,2.94683 29.26896,-5.55883 10.59363,-8.49284 14.31483,-20.57158 9.07564,-25.29836 -1.95508,-1.77255 -5.13957,-2.61985 -8.84875,-2.60925 z m -94.72704,5.2185 c -4.62462,0.21709 -12.58415,10.37869 -11.23111,13.38657 3.76606,8.28788 8.21146,15.1755 13.38657,20.76054 -3.66358,0.66612 -7.20711,1.10701 -10.55043,1.2479 -11.95147,0.56364 -21.5482,-0.29623 -30.6303,-1.47479 -8.8387,-1.15286 -17.08171,-3.75031 -26.43282,-10.43699 -3.88136,-2.77973 -17.63764,10.44392 -12.7059,13.9538 20.43153,14.62871 36.42263,15.27329 60.46648,13.15969 11.28538,-0.98635 21.30475,-3.22001 31.42442,-6.80674 9.28707,5.75157 20.15722,8.50842 32.67232,8.50842 17.84395,0 33.15943,-2.3723 46.85301,-10.89077 4.50904,-2.80532 8.50842,-8.28153 8.50842,-8.28153 2.60039,-2.85658 -0.10927,-6.39524 -3.51681,-4.53782 -15.76879,8.60814 -23.39908,11.68489 -40.50006,11.68489 -8.48003,0 -16.50922,-1.72328 -23.82357,-5.10505 l 4.76471,-2.38236 c 4.04788,-2.04957 9.30254,-7.03362 9.30254,-7.03362 3.07432,-2.29294 1.219,-6.11702 -2.4958,-5.10505 0,0 -9.72205,4.13486 -22.12189,8.05463 -8.5441,-6.52016 -15.67324,-15.66158 -20.87398,-27.11348 -0.55242,-1.22253 -1.42858,-1.63838 -2.4958,-1.58824 z m -4.99161,55.36143 c -1.17849,0 -2.05657,0.24867 -2.72269,0.45378 -0.83264,0.2563 -2.57443,0.63305 -3.17648,1.2479 l -11.458,12.13868 c -2.33139,2.48509 -0.88596,5.33931 2.4958,4.87816 1.11446,-0.14086 2.31455,-0.79412 3.40337,-0.79412 7.74988,0 11.68489,10.05512 11.68489,22.12188 0,7.3528 -1.61728,14.15071 -3.7437,20.76054 -5.71315,-8.07014 -9.43232,-17.65239 -10.77733,-29.15551 -0.96075,-8.32632 -10.12711,3.54727 -16.10927,9.52943 -0.29477,0.29477 -0.94601,1.95965 -0.90756,2.38235 1.99831,17.20347 9.02515,30.28888 19.28574,40.61351 -2.13923,6.62265 -3.63025,13.53215 -3.63025,20.98743 0,33.77926 21.28663,51.43284 46.73957,69.31524 4.25284,2.98465 19.94866,-13.25262 14.74792,-16.90339 -24.8509,-17.43406 -43.3855,-33.2145 -44.24377,-62.39506 11.41346,7.54495 24.93272,13.1354 39.13872,17.81095 31.3582,10.33745 50.07904,15.43746 83.26904,18.03785 3.5611,0.269 21.25374,-16.28668 11.68489,-17.01684 -32.56233,-2.56194 -50.81849,-7.46254 -81.90769,-17.6975 -18.98404,-6.22553 -35.85483,-13.91235 -48.10092,-25.18492 4.714,-14.00103 11.79834,-27.27463 11.79834,-43.22275 0,-10.97794 -3.50803,-27.90761 -17.47062,-27.90761 z m 55.58833,182.08012 c -6.39205,0 -7.9706,2.89222 -6.92018,8.84875 l 1.13445,6.4664 c 1.0376,5.95652 3.59116,8.73531 9.98321,8.73531 l 13.15969,0 c 5.90526,0 7.60647,-2.20419 6.46639,-8.62187 l -0.56723,-3.28992 -15.31515,0 0.45379,2.60925 12.13867,0 0.34016,2.38236 c 0.57644,3.25365 -1.12132,4.31093 -4.31093,4.31093 l -12.47902,0 c -3.06154,0 -5.76187,-0.8925 -6.46639,-4.99161 l -1.58824,-8.84875 c -0.71734,-4.09911 1.58973,-4.9916 4.65127,-4.9916 l 8.28152,0 c 7.8908,0 9.30247,0.25738 10.09666,4.65126 l 2.94958,0 -0.11326,-0.79412 c -0.96075,-5.43133 -5.61692,-6.46639 -9.86977,-6.46639 l -12.02522,0 z m -74.07995,0.22689 4.08404,23.59667 3.28992,0 -1.70169,-9.30253 15.54205,0 c 2.8822,0 4.8049,0.39483 5.44538,4.08404 l 0.90757,5.21849 3.06303,0 -1.13446,-6.01261 c -0.37148,-2.13924 -1.39576,-3.84793 -4.76471,-4.42438 l 0,-0.11326 c 2.39542,-0.24323 4.09326,-1.09383 3.51681,-4.42438 l -0.34015,-1.92875 c -0.7686,-4.43219 -2.27367,-6.69329 -9.07565,-6.69329 l -18.83196,0 z m 32.33198,0 3.06303,17.69751 c 0.84545,4.76522 3.54727,6.12606 9.52943,6.12606 l 10.89077,0 c 5.98216,0 8.2066,-1.36084 7.37396,-6.12606 l -3.17647,-17.69751 -3.17648,0 3.06303,17.69751 c 0.40993,2.28012 -0.082,3.51681 -4.42438,3.51681 l -11.11766,0 c -4.3297,0 -5.26235,-1.23669 -5.67228,-3.51681 l -3.17647,-17.69751 -3.17648,0 z m 68.52112,0 4.19748,23.59667 20.4202,0 c 3.91977,0 6.58907,-1.6995 6.01262,-4.9916 l -0.56723,-2.83614 c -0.62767,-3.58673 -3.03533,-4.52316 -5.55883,-4.65127 l 0,-0.11326 c 2.81813,-0.29478 3.4711,-2.04002 3.17647,-3.7437 l -0.34015,-2.04202 c -0.4996,-2.70284 -2.36718,-5.2185 -7.26052,-5.2185 l -20.07986,0 z m 30.40341,0 15.99582,13.61347 1.70168,9.9832 3.17648,0 -1.70169,-9.9832 11.11767,-13.61347 -4.31093,0 -8.9622,11.00422 -12.7059,-11.00422 -4.31093,0 z m -127.62626,2.60925 14.52104,0 c 4.68836,0 5.99243,0.87801 6.46639,3.51681 l 0.34016,2.15546 c 0.42271,2.4851 -0.86328,3.40337 -4.42438,3.40337 l -15.31515,0 -1.58824,-9.07564 z m 100.8531,0 16.6765,0 c 0.96075,0 3.34659,0.34378 3.7437,2.4958 l 0.45379,2.15546 c 0.4227,2.34417 -1.34654,2.83614 -3.06303,2.83614 l -16.44961,0 -1.36135,-7.4874 z m 1.81513,10.2101 16.33616,0 c 2.88221,0 4.70612,0.35649 5.2185,3.28992 l 0.22689,1.70168 c 0.37148,2.08798 -0.54494,3.17648 -3.51681,3.17648 l -16.78994,0 -1.4748,-8.16808 z m -36.07568,22.00843 c -14.78245,0 -22.96022,3.61944 -20.19331,19.28575 l 2.83614,15.99582 c 2.77972,15.65349 12.21759,19.39919 27.00004,19.39919 l 20.4202,0 c 14.78244,0 22.96022,-3.7457 20.19331,-19.39919 l -2.83614,-15.99582 c -2.7541,-15.66631 -12.2176,-19.28575 -27.00004,-19.28575 l -20.4202,0 z m -86.21863,0.56723 2.38236,13.27313 20.19331,0 7.03362,40.15973 16.44961,0 -7.14707,-40.15973 20.19331,0 -2.38236,-13.27313 -56.72278,0 z m 140.21871,0 9.41598,53.43286 16.44961,0 -2.38236,-13.38658 26.77315,0 c 11.5928,0 13.4215,-9.14981 12.02523,-17.13028 l -0.79412,-4.65126 c -1.85742,-10.50397 -6.9734,-18.26474 -22.57566,-18.26474 l -38.91183,0 z m -48.10091,13.15969 13.38657,0 c 8.64659,0 10.98581,4.01564 12.13868,10.66388 l 1.02101,5.78572 c 1.37064,7.76269 0.26246,10.66388 -7.48741,10.66388 l -15.08826,0 c -7.74987,0 -9.97392,-2.90119 -11.34456,-10.66388 l -1.02101,-5.78572 c -1.16567,-6.64824 -0.25157,-10.66388 8.39498,-10.66388 z m 66.81943,0.11326 18.26473,0 c 4.94456,0 7.07381,2.03432 7.7143,5.67228 l 0.45378,2.04202 c 0.55082,3.1768 -0.58146,5.67228 -4.42437,5.67228 l -19.62609,0 -2.38235,-13.38658 z m -14.52103,55.70177 -18.60507,0.11326 -17.13028,34.6009 1.58823,8.73531 25.52525,0 1.92858,10.77732 16.4496,-0.11326 -1.92857,-10.77733 6.23951,0 -1.81513,-9.75632 -6.23951,0 -6.01261,-33.57988 z m -55.36143,0.22689 -27.45383,0.11326 2.04202,11.34456 10.09666,0 7.71429,42.76897 17.35717,-0.11326 -9.75631,-54.11353 z m 41.63451,16.22271 0.2269,0 3.06303,17.13028 -11.79834,0.11327 8.50841,-17.24373 z"
       id="path4386"
       style="fill:#ffffff;fill-opacity:1;fill-rule:nonzero;stroke:none" />
  </g>
</svg>
