<?xml version="1.0" encoding="UTF-8" standalone="no"?>
<!-- Generator: Adobe Illustrator 19.0.0, SVG Export Plug-In . SVG Version: 6.00 Build 0)  -->

<svg
   xmlns:dc="http://purl.org/dc/elements/1.1/"
   xmlns:cc="http://creativecommons.org/ns#"
   xmlns:rdf="http://www.w3.org/1999/02/22-rdf-syntax-ns#"
   xmlns:svg="http://www.w3.org/2000/svg"
   xmlns="http://www.w3.org/2000/svg"
   xmlns:sodipodi="http://sodipodi.sourceforge.net/DTD/sodipodi-0.dtd"
   xmlns:inkscape="http://www.inkscape.org/namespaces/inkscape"
   version="1.1"
   id="svg2"
   sodipodi:docname="Tramo_radar_movil_carretera_convencional.svg"
   inkscape:version="0.91 r13725"
   x="0px"
   y="0px"
   viewBox="-503 108 900 400"
   xml:space="preserve"
   width="900"
   height="400"><metadata
     id="metadata144"><rdf:RDF><cc:Work
         rdf:about=""><dc:format>image/svg+xml</dc:format><dc:type
           rdf:resource="http://purl.org/dc/dcmitype/StillImage" /><dc:title></dc:title></cc:Work></rdf:RDF></metadata><defs
     id="defs142" /><style
     type="text/css"
     id="style3">
	.st0{fill:#FFFFFF;stroke:#000000;stroke-width:2.0224;stroke-linejoin:round;}
	.st1{fill:none;stroke:#000000;stroke-width:8.938;stroke-linejoin:round;}
	.st2{fill:#FFFFFF;}
</style><sodipodi:namedview
     inkscape:window-maximized="1"
     inkscape:window-y="-8"
     inkscape:current-layer="layer1"
     inkscape:document-units="px"
     inkscape:pageopacity="0.0"
     inkscape:window-x="54"
     inkscape:window-height="745"
     inkscape:window-width="1298"
     inkscape:pageshadow="2"
     showgrid="false"
     inkscape:cy="113.15283"
     inkscape:cx="277.46943"
     inkscape:zoom="0.75825919"
     borderopacity="1.0"
     bordercolor="#666666"
     pagecolor="#ffffff"
     id="base"
     fit-margin-top="0"
     fit-margin-left="0"
     fit-margin-right="0"
     fit-margin-bottom="0" /><g
     id="layer1"
     transform="translate(0,-652.36221)"
     inkscape:label="Capa 1"
     inkscape:groupmode="layer"><path
       id="rect3008"
       class="st1"
       d="m -465.06381,765.36218 824.12762,0 C 377.2355,765.36218 392,776.3168 392,789.79941 l 0,341.12549 c 0,13.4827 -14.7645,24.4373 -32.93619,24.4373 l -824.12762,0 c -18.17169,0 -32.93619,-10.9546 -32.93619,-24.4373 l 0,-341.04888 c 0,-13.55922 14.7645,-24.51384 32.93619,-24.51384 z"
       style="fill:#ff6600;stroke:#000000;stroke-width:10;stroke-linejoin:round;stroke-miterlimit:4;stroke-dasharray:none;stroke-opacity:1"
       inkscape:connector-curvature="0" /><g
       id="g4353"
       transform="matrix(0.70682119,0,0,0.70368845,-11.327947,442.12586)"><ellipse
         ry="54.548237"
         rx="53.033009"
         cy="733.66492"
         cx="-288.88098"
         id="path3809" /><path
         d="m -263.8,647.4 c 0,0 44.40843,29.34277 50.33872,74.20496 3.27495,24.77475 -5.18478,54.28245 -39.33872,86.19504 l 7.5,8.2 c 0,0 106.5,-83.3 -12.2,-177.9 z"
         inkscape:connector-curvature="0"
         sodipodi:nodetypes="cscccc"
         id="path3811" /><path
         d="m -203.9,610.2 c 0,0 125.9,105.7 13.9,236.3 l 7.5,7.8 c 0,0 122.9,-121.9 -15.1,-252.6 l -6.3,8.5 z"
         inkscape:connector-curvature="0"
         sodipodi:nodetypes="ccccc"
         id="path3811-1" /><path
         d="m -133.4,573.6 8.2,-7.9 c 0,0 52,49.9 61,126.8 0.1,1 0.5,2.9 0.5,2.9 l -7.8,16.4 c 0.1,0 -6.5,-89.3 -61.9,-138.2 l 0,0 z"
         inkscape:connector-curvature="0"
         sodipodi:nodetypes="cccccc"
         id="path3875" /><path
         d="m -77.2,795.4 c 0,0 4.8,2.3 10.6,0.5 5.7,-1.7 -23.5,74.6 -42,92.2 -0.5,0.5 -1.6,1.8 -2.1,1.5 l -9.1,-5.8 c 0,0 32.5,-39.4 42.6,-88.4 l 0,0 z"
         inkscape:connector-curvature="0"
         sodipodi:nodetypes="cssscc"
         id="path3893" /><path
         d="m -112.1,757.3 14.6,0 0,-39.4 30.8,0 15.9,-39.6 41.6,0 0,78.9 5.6,0 0,-91 227.6,0 0,100 -336.1,0 0,-8.9 z"
         inkscape:connector-curvature="0"
         sodipodi:nodetypes="ccccccccccccc"
         id="path3895" /><path
         style="fill:#ff6600"
         d="m -55.3,716.7 36.4,0 0,-30.4 -24,0 -12.4,30.4 z"
         class="st2"
         inkscape:connector-curvature="0"
         sodipodi:nodetypes="ccccc"
         id="path3897" /><path
         d="M -42.754997,764.4588 A 19.899742,20.068384 0 0 1 -62.585276,784.52706 19.899742,20.068384 0 0 1 -82.553997,764.5989"
         sodipodi:open="true"
         sodipodi:rx="19.899742"
         sodipodi:type="arc"
         sodipodi:ry="20.068384"
         sodipodi:start="0"
         sodipodi:end="3.1346113"
         sodipodi:cx="-62.654739"
         sodipodi:cy="764.4588"
         id="path3957" /><path
         sodipodi:nodetypes="ccccccccccc"
         d="m -49.9,572.7 0,20.7 -3,0 0,7.8 192.8,0 4.1,-7.8 0,-23.5 -43.4,-37.6 -72.5,0 -30.6,38.4 z"
         inkscape:connector-curvature="0"
         id="path4027" /><path
         style="fill:#ff6600"
         d="m 58.9,539.4 0,29 30.1,0 0,-29.3 -30.1,0.3 z"
         class="st2"
         inkscape:connector-curvature="0"
         id="path4029" /><path
         style="fill:#ff6600"
         d="m 34.1,539.1 19.2,0 0,30.3 -43.1,0 0,-1.3 23.9,-29 z"
         class="st2"
         inkscape:connector-curvature="0"
         sodipodi:nodetypes="cccccc"
         id="path4031" /><ellipse
         ry="20.329321"
         rx="20.203051"
         cy="922.18488"
         cx="27.04723"
         id="path4055" /><ellipse
         style="fill:#ffffff"
         ry="14.520943"
         rx="14.89975"
         cy="922.18488"
         cx="27.04723"
         class="st2"
         id="path4057" /><ellipse
         ry="20.329321"
         rx="20.203051"
         cy="922.18488"
         cx="27.04723"
         id="path4055-8" /><ellipse
         style="fill:#ff6600"
         ry="14.520943"
         rx="14.89975"
         cy="922.18488"
         cx="27.04723"
         class="st2"
         id="path4057-6" /><path
         d="M 59.1,931.3 70.5,926 62.7,908.6 c -0.6,-1.8 0.5,-1.5 0.8,-2.3 L 90,897 c 8.5,-4 4.2,-8.8 2.5,-12.1 l -21,-33.8 c -8.3,6.6 -12.8,3.5 -17.2,4.2 l -9.7,11.5 -15.8,3 2,12.1 20.1,-3.6 13.5,-15.1 14.4,23.7 -25.2,10.1 c -5.3,0.8 -8.8,8.1 -3.8,13.6 l 9.3,20.7 z"
         inkscape:connector-curvature="0"
         sodipodi:nodetypes="ccccccccccccccccc"
         id="path4080" /><ellipse
         ry="15.183855"
         rx="15.711777"
         cy="838.87885"
         cx="61.307777"
         id="path4082" /><path
         style="fill:#ff6600"
         d="m 43.6,834.5 10.4,-4.7 6.9,9.1 -14,5.7 -3.3,-10.1 z"
         class="st2"
         inkscape:connector-curvature="0"
         sodipodi:nodetypes="ccccc"
         id="path4084" /><path
         d="m -48.9,920.2 9.3,5.8 c 0,0 43.2,-58.1 49.5,-153.5 l -10.9,0 c 0,0 -3.5,84.1 -47.9,147.7 l 0,0 z"
         inkscape:connector-curvature="0"
         sodipodi:nodetypes="ccccc"
         id="path4120" /><path
         d="m -7,660.4 11,0 c 0,0 -5.4,-28.1 -7.2,-31.2 -3.8,2 -10.9,1.6 -10.9,1.6 0,0 5.3,17.6 7.1,29.6 l 0,0 z"
         inkscape:connector-curvature="0"
         sodipodi:nodetypes="cccccc"
         id="path4122" /><path
         d="m -41.7,565.1 c 0,0 -12.4,-19.8 -20.6,-28.3 l 8.1,-6.4 c 0,0 14.5,14.6 24,34.2 l -11.5,0.5 z"
         inkscape:connector-curvature="0"
         sodipodi:nodetypes="ccccc"
         id="path4124" /><ellipse
         ry="20.329321"
         rx="20.203051"
         cy="922.18488"
         cx="107.04705"
         id="path4055-8-7" /><ellipse
         style="fill:#ff6600"
         ry="14.520943"
         rx="14.89975"
         cy="922.18488"
         cx="107.04675"
         class="st2"
         id="path4057-6-1" /><path
         d="M 36.799,764.4588 A 19.899742,20.068384 0 0 1 16.968721,784.52706 19.899742,20.068384 0 0 1 -2.9999995,764.5989"
         sodipodi:open="true"
         sodipodi:rx="19.899742"
         sodipodi:type="arc"
         sodipodi:ry="20.068384"
         sodipodi:start="0"
         sodipodi:end="3.1346113"
         sodipodi:cx="16.899258"
         sodipodi:cy="764.4588"
         id="path3957-6" /><path
         d="M 201.799,764.4588 A 19.899742,20.068384 0 0 1 181.96872,784.52706 19.899742,20.068384 0 0 1 162,764.5989"
         sodipodi:open="true"
         sodipodi:rx="19.899742"
         sodipodi:type="arc"
         sodipodi:ry="20.068384"
         sodipodi:start="0"
         sodipodi:end="3.1346113"
         sodipodi:cx="181.89926"
         sodipodi:cy="764.4588"
         id="path3957-6-0" /><path
         d="m -2.2678871,600.29382 a 19.899742,20.068384 0 0 1 -19.8302789,20.06827 19.899742,20.068384 0 0 1 -19.96872,-19.92816"
         sodipodi:open="true"
         sodipodi:rx="19.899742"
         sodipodi:type="arc"
         sodipodi:ry="20.068384"
         sodipodi:start="0"
         sodipodi:end="3.1346113"
         sodipodi:cx="-22.167629"
         sodipodi:cy="600.29382"
         id="path3957-6-5" /><path
         d="M 132.732,600.29382 A 19.899742,20.068384 0 0 1 112.90172,620.36209 19.899742,20.068384 0 0 1 92.933003,600.43393"
         sodipodi:open="true"
         sodipodi:rx="19.899742"
         sodipodi:type="arc"
         sodipodi:ry="20.068384"
         sodipodi:start="0"
         sodipodi:end="3.1346113"
         sodipodi:cx="112.83226"
         sodipodi:cy="600.29382"
         id="path3957-6-5-6" /></g></g></svg>