<?xml version="1.0" encoding="UTF-8" standalone="no"?>
<svg
   xmlns:dc="http://purl.org/dc/elements/1.1/"
   xmlns:cc="http://creativecommons.org/ns#"
   xmlns:rdf="http://www.w3.org/1999/02/22-rdf-syntax-ns#"
   xmlns:svg="http://www.w3.org/2000/svg"
   xmlns="http://www.w3.org/2000/svg"
   id="svg2"
   version="1.1"
   viewBox="0 0 720 528"
   height="528pt"
   width="720pt">
  <metadata
     id="metadata47">
    <rdf:RDF>
      <cc:Work
         rdf:about="">
        <dc:format>image/svg+xml</dc:format>
        <dc:type
           rdf:resource="http://purl.org/dc/dcmitype/StillImage" />
        <dc:title></dc:title>
      </cc:Work>
    </rdf:RDF>
  </metadata>
  <defs
     id="defs45" />
  <g
     id="surface1">
    <path
       id="path5"
       d="M 48.808594 490.632812 L 49.773438 498.152344 L 53.261719 498.152344 L 49.773438 473.175781 L 45.695312 473.175781 L 31.472656 498.152344 L 34.855469 498.152344 L 39.039062 490.632812 Z M 48.488281 488 L 40.597656 488 L 47.089844 476.558594 Z M 48.488281 488 "
       style=" stroke:none;fill-rule:nonzero;fill:rgb(0%,0%,0%);fill-opacity:1;" />
    <path
       id="path7"
       d="M 667.550781 498.152344 L 678.875 498.152344 C 681.667969 498.152344 683.8125 497.183594 685.636719 495.144531 C 687.140625 493.585938 687.890625 491.546875 687.890625 489.289062 C 687.890625 487.195312 686.980469 486.011719 684.566406 484.992188 C 687.515625 483.648438 689.234375 481.179688 689.234375 478.117188 C 689.234375 476.828125 688.859375 475.863281 688 474.894531 C 686.820312 473.660156 685.371094 473.175781 683.007812 473.175781 L 672.863281 473.175781 Z M 673.828125 483.917969 L 675.492188 475.96875 L 681.667969 475.96875 C 684.566406 475.96875 685.90625 476.882812 685.90625 478.921875 C 685.90625 480.210938 685.421875 481.449219 684.617188 482.359375 C 683.597656 483.433594 682.203125 483.917969 679.949219 483.917969 Z M 671.359375 495.359375 L 673.238281 486.765625 L 680.96875 486.765625 C 683.332031 486.765625 684.566406 487.839844 684.566406 489.878906 C 684.566406 491.167969 684.1875 492.351562 683.4375 493.371094 C 682.363281 494.769531 681.074219 495.359375 679.144531 495.359375 Z M 671.359375 495.359375 "
       style=" stroke:none;fill-rule:nonzero;fill:rgb(0%,0%,0%);fill-opacity:1;" />
    <path
       id="path9"
       d="M 177.503906 38.902344 C 177.398438 36.863281 177.078125 35.574219 176.433594 34.445312 C 175.035156 32.027344 172.566406 30.738281 169.347656 30.738281 C 165.375 30.738281 162.046875 32.351562 159.363281 35.574219 C 156.679688 38.851562 154.960938 43.578125 154.960938 47.875 C 154.960938 50.238281 155.660156 52.386719 156.949219 53.996094 C 158.503906 55.984375 160.652344 56.949219 163.710938 56.949219 C 167.363281 56.949219 170.472656 55.609375 172.730469 53.136719 C 174.070312 51.6875 175.144531 49.808594 176.324219 47.015625 L 172.945312 47.015625 C 172.085938 49 171.546875 50.023438 170.957031 50.828125 C 169.507812 52.867188 166.878906 54.15625 164.195312 54.15625 C 160.652344 54.15625 158.289062 51.363281 158.289062 47.230469 C 158.289062 44.113281 159.308594 40.675781 161.027344 38.097656 C 163.121094 34.984375 165.644531 33.53125 168.808594 33.53125 C 172.246094 33.53125 173.964844 35.199219 174.230469 38.902344 Z M 177.503906 38.902344 "
       style=" stroke:none;fill-rule:nonzero;fill:rgb(0%,0%,0%);fill-opacity:1;" />
    <path
       id="path11"
       transform="matrix(3.435115,0,0,-3.4375,67.166794,459.940937)"
       d="M 0.00147917 -0.000136364 L 170.079734 -0.000136364 L 28.345012 113.387364 Z M 0.00147917 -0.000136364 "
       style="fill-rule:nonzero;fill:rgb(94.901961%,94.901961%,94.901961%);fill-opacity:1;stroke-width:0.79701;stroke-linecap:butt;stroke-linejoin:miter;stroke:rgb(0%,0%,0%);stroke-opacity:1;stroke-miterlimit:10;" />
    <path
       id="path13"
       transform="matrix(3.435115,0,0,-3.4375,67.166794,459.940937)"
       d="M 0.00147917 -0.000136364 L 170.079734 -0.000136364 L 28.345012 113.387364 Z M 0.00147917 -0.000136364 "
       style="fill:none;stroke-width:0.79701;stroke-linecap:butt;stroke-linejoin:miter;stroke:rgb(0%,0%,0%);stroke-opacity:1;stroke-miterlimit:10;" />
    <path
       id="path15"
       transform="matrix(3.435115,0,0,-3.4375,67.166794,459.940937)"
       d="M 93.892773 41.164636 C 93.892773 63.902136 75.462937 82.332818 52.727842 82.332818 C 29.990472 82.332818 11.560637 63.902136 11.560637 41.164636 C 11.560637 18.429409 29.990472 -0.000136364 52.727842 -0.000136364 C 75.462937 -0.000136364 93.892773 18.429409 93.892773 41.164636 Z M 93.892773 41.164636 "
       style="fill:none;stroke-width:0.59776;stroke-linecap:butt;stroke-linejoin:miter;stroke:rgb(0%,0%,100%);stroke-opacity:1;stroke-miterlimit:10;" />
    <path
       id="path17"
       transform="matrix(3.435115,0,0,-3.4375,67.166794,459.940937)"
       d="M 0.00147917 -0.000136364 L 78.571913 73.469182 "
       style="fill:none;stroke-width:0.59776;stroke-linecap:butt;stroke-linejoin:miter;stroke:rgb(0%,0%,0%);stroke-opacity:1;stroke-dasharray:2.98883,2.98883;stroke-miterlimit:10;" />
    <path
       id="path19"
       transform="matrix(3.435115,0,0,-3.4375,67.166794,459.940937)"
       d="M 170.079734 -0.000136364 L 12.696653 51.172591 "
       style="fill:none;stroke-width:0.59776;stroke-linecap:butt;stroke-linejoin:miter;stroke:rgb(0%,0%,0%);stroke-opacity:1;stroke-dasharray:2.98883,2.98883;stroke-miterlimit:10;" />
    <path
       id="path21"
       transform="matrix(3.435115,0,0,-3.4375,67.166794,459.940937)"
       d="M 28.345012 113.387364 L 52.763094 -0.000136364 "
       style="fill:none;stroke-width:0.59776;stroke-linecap:butt;stroke-linejoin:miter;stroke:rgb(0%,0%,0%);stroke-opacity:1;stroke-dasharray:2.98883,2.98883;stroke-miterlimit:10;" />
    <path
       id="path23"
       transform="matrix(3.435115,0,0,-3.4375,67.166794,459.940937)"
       d="M 79.767061 73.469182 C 79.767061 74.129409 79.232599 74.664636 78.571913 74.664636 C 77.907816 74.664636 77.372217 74.129409 77.372217 73.469182 C 77.372217 72.808955 77.907816 72.273727 78.571913 72.273727 C 79.232599 72.273727 79.767061 72.808955 79.767061 73.469182 Z M 79.767061 73.469182 "
       style="fill-rule:nonzero;fill:rgb(0%,0%,0%);fill-opacity:1;stroke-width:1.19553;stroke-linecap:butt;stroke-linejoin:miter;stroke:rgb(0%,0%,0%);stroke-opacity:1;stroke-miterlimit:10;" />
    <path
       id="path25"
       transform="matrix(3.435115,0,0,-3.4375,67.166794,459.940937)"
       d="M 13.8918 51.172591 C 13.8918 51.832818 13.357339 52.366909 12.696653 52.366909 C 12.037104 52.366909 11.501505 51.832818 11.501505 51.172591 C 11.501505 50.512364 12.037104 49.977136 12.696653 49.977136 C 13.357339 49.977136 13.8918 50.512364 13.8918 51.172591 Z M 13.8918 51.172591 "
       style="fill-rule:nonzero;fill:rgb(0%,0%,0%);fill-opacity:1;stroke-width:1.19553;stroke-linecap:butt;stroke-linejoin:miter;stroke:rgb(0%,0%,0%);stroke-opacity:1;stroke-miterlimit:10;" />
    <path
       id="path27"
       transform="matrix(3.435115,0,0,-3.4375,67.166794,459.940937)"
       d="M 53.958241 -0.000136364 C 53.958241 0.660091 53.42378 1.195318 52.763094 1.195318 C 52.103545 1.195318 51.567946 0.660091 51.567946 -0.000136364 C 51.567946 -0.660364 52.103545 -1.195591 52.763094 -1.195591 C 53.42378 -1.195591 53.958241 -0.660364 53.958241 -0.000136364 Z M 53.958241 -0.000136364 "
       style="fill-rule:nonzero;fill:rgb(0%,0%,0%);fill-opacity:1;stroke-width:1.19553;stroke-linecap:butt;stroke-linejoin:miter;stroke:rgb(0%,0%,0%);stroke-opacity:1;stroke-miterlimit:10;" />
    <path
       id="path29"
       transform="matrix(3.435115,0,0,-3.4375,67.166794,459.940937)"
       d="M 45.075941 41.031682 C 45.075941 41.691909 44.540342 42.227136 43.880793 42.227136 C 43.220108 42.227136 42.685646 41.691909 42.685646 41.031682 C 42.685646 40.371455 43.220108 39.836227 43.880793 39.836227 C 44.540342 39.836227 45.075941 40.371455 45.075941 41.031682 Z M 45.075941 41.031682 "
       style="fill-rule:nonzero;fill:rgb(100%,0%,0%);fill-opacity:1;stroke-width:1.19553;stroke-linecap:butt;stroke-linejoin:miter;stroke:rgb(100%,0%,0%);stroke-opacity:1;stroke-miterlimit:10;" />
    <path
       id="path31"
       transform="matrix(3.435115,0,0,-3.4375,67.166794,459.940937)"
       d="M 53.924127 41.164636 C 53.924127 41.824864 53.388528 42.360091 52.727842 42.360091 C 52.063745 42.360091 51.529283 41.824864 51.529283 41.164636 C 51.529283 40.504409 52.063745 39.969182 52.727842 39.969182 C 53.388528 39.969182 53.924127 40.504409 53.924127 41.164636 Z M 53.924127 41.164636 "
       style="fill-rule:nonzero;fill:rgb(0%,0%,100%);fill-opacity:1;stroke-width:1.19553;stroke-linecap:butt;stroke-linejoin:miter;stroke:rgb(0%,0%,100%);stroke-opacity:1;stroke-miterlimit:10;" />
    <path
       id="path33"
       d="M 366.621094 181.09375 L 377.730469 168.953125 L 373.8125 168.953125 L 365.332031 178.730469 L 361.039062 168.953125 L 357.175781 168.953125 L 362.863281 181.09375 L 351.269531 193.929688 L 355.1875 193.929688 L 364.257812 183.511719 L 368.820312 193.929688 L 372.792969 193.929688 Z M 366.621094 181.09375 "
       style=" stroke:none;fill-rule:nonzero;fill:rgb(0%,0%,0%);fill-opacity:1;" />
    <path
       id="path35"
       d="M 85.089844 286.636719 L 97.703125 271.4375 L 93.894531 271.4375 L 83.964844 283.683594 L 79.347656 271.4375 L 75.484375 271.4375 L 81.871094 286.636719 L 79.777344 296.414062 L 82.996094 296.414062 Z M 85.089844 286.636719 "
       style=" stroke:none;fill-rule:nonzero;fill:rgb(0%,0%,0%);fill-opacity:1;" />
    <path
       id="path37"
       d="M 260.957031 473.175781 L 242.976562 473.175781 L 242.386719 475.96875 L 256.289062 475.96875 L 237.289062 495.25 L 236.699219 498.152344 L 255.75 498.152344 L 256.289062 495.359375 L 241.3125 495.359375 L 260.367188 476.023438 Z M 260.957031 473.175781 "
       style=" stroke:none;fill-rule:nonzero;fill:rgb(0%,0%,0%);fill-opacity:1;" />
    <path
       id="path39"
       d="m 278.2976,327.45266 11.4336,-20.73437 -4.40235,20.73437 3.0625,0 5.25782,-24.97656 -4.45313,0 -11.86328,21.48437 -2.73828,-21.48437 -4.39844,0 -5.31641,24.97656 3.0625,0 4.39844,-20.73437 2.63281,20.73437 z m 0,0"
       style="fill:#0000ff;fill-opacity:1;fill-rule:nonzero;stroke:none" />
    <path
       id="path41"
       d="M 204.242188 291.648438 L 193.828125 291.648438 L 193.1875 294.496094 L 200.808594 294.496094 L 200.59375 295.355469 C 200.109375 297.609375 199.089844 299.222656 197.371094 300.671875 C 195.492188 302.175781 193.507812 302.875 191.144531 302.875 C 188.625 302.875 186.421875 301.90625 185.347656 300.351562 C 184.597656 299.113281 184.113281 297.34375 184.113281 295.355469 C 184.113281 292.347656 185.296875 288.800781 187.121094 286.4375 C 189.214844 283.699219 192.164062 282.25 195.492188 282.25 C 197.585938 282.25 199.25 282.839844 200.378906 284.074219 C 201.289062 284.933594 201.613281 285.902344 201.667969 287.460938 L 204.777344 287.460938 L 204.777344 286.867188 C 204.777344 282.304688 201.453125 279.457031 196.085938 279.457031 C 192.113281 279.457031 188.785156 280.851562 186.101562 283.539062 C 182.828125 286.816406 180.839844 291.488281 180.839844 295.890625 C 180.839844 299.113281 181.96875 302.070312 183.898438 303.625 C 185.457031 304.914062 187.710938 305.667969 190.019531 305.667969 C 192.273438 305.667969 194.636719 305.023438 196.460938 303.949219 C 197.265625 303.464844 197.960938 303.035156 199.25 301.90625 L 199.359375 305.023438 L 201.398438 305.023438 Z M 204.242188 291.648438 "
       style=" stroke:none;fill-rule:nonzero;fill:rgb(100%,0%,0%);fill-opacity:1;" />
  </g>
</svg>
