<svg width="181mm" height="176mm" version="1.1" viewBox="0 0 181 176" xmlns="http://www.w3.org/2000/svg" xmlns:xlink="http://www.w3.org/1999/xlink"><rect width="181" height="176" fill="#fff"/>
 <g fill="none" stroke="#000"><path d="m72 4v170m-70-71h172m-86-12c3 4 5 7 5 12" stroke-width=".5"/><circle cx="72" cy="103" r="66.4" stroke-width=".5"/><path d="m165 63h-40l0 40h40z" stroke="#080"/><path d="m72 103 0 53 53 0 0-53z" stroke="#d00"/><path d="m85 10-53 40 40 53 53-40z" stroke="#00f"/></g>
 <path d="m169 101 10 2-10 2 2-2m-101-91l2-10 2 10-2-2"/>
 <g font-family="Times" font-size="9px"><text x="89" y="110" fill="#a00">cos α<tspan x="51" y="132">cos α</tspan></text><text x="84" y="100">α</text><text x="166" y="110">x</text><text x="75" y="9">y</text><text x="106" y="88" fill="#080">sin α<tspan x="137" y="61">sin α</tspan></text><text x="94" y="82" fill="#00f">1<tspan x="108" y="39">1</tspan></text></g></svg>
