<?xml version="1.0" encoding="UTF-8" standalone="no"?>
<!-- Created with Inkscape (http://www.inkscape.org/) -->

<svg
   xmlns:dc="http://purl.org/dc/elements/1.1/"
   xmlns:cc="http://creativecommons.org/ns#"
   xmlns:rdf="http://www.w3.org/1999/02/22-rdf-syntax-ns#"
   xmlns:svg="http://www.w3.org/2000/svg"
   xmlns="http://www.w3.org/2000/svg"
   xmlns:sodipodi="http://sodipodi.sourceforge.net/DTD/sodipodi-0.dtd"
   xmlns:inkscape="http://www.inkscape.org/namespaces/inkscape"
   version="1.1"
   id="svg2"
   width="2162"
   height="1822"
   viewBox="0 0 2162 1822"
   sodipodi:docname="map.png"
   inkscape:version="0.92.4 (5da689c313, 2019-01-14)">
  <metadata
     id="metadata8">
    <rdf:RDF>
      <cc:Work
         rdf:about="">
        <dc:format>image/svg+xml</dc:format>
        <dc:type
           rdf:resource="http://purl.org/dc/dcmitype/StillImage" />
        <dc:title></dc:title>
      </cc:Work>
    </rdf:RDF>
  </metadata>
  <defs
     id="defs6" />
  <sodipodi:namedview
     pagecolor="#ffffff"
     bordercolor="#666666"
     borderopacity="1"
     objecttolerance="10"
     gridtolerance="10"
     guidetolerance="10"
     inkscape:pageopacity="0"
     inkscape:pageshadow="2"
     inkscape:window-width="1920"
     inkscape:window-height="986"
     id="namedview4"
     showgrid="false"
     borderlayer="true"
     inkscape:zoom="0.25905598"
     inkscape:cx="2005.5373"
     inkscape:cy="572.0328"
     inkscape:window-x="-11"
     inkscape:window-y="-11"
     inkscape:window-maximized="1"
     inkscape:current-layer="svg2" />
  <path
     style="opacity:1;fill:#ffffff;fill-opacity:1;stroke:#ffffff;stroke-width:12;stroke-miterlimit:4;stroke-dasharray:none;stroke-dashoffset:0;stroke-opacity:1"
     d="M -16.377312,-14.988514 H 2178.1825 V 1832.9182 H -16.377312 Z"
     id="rect1007" />
  <g
     id="g1202"
     style="stroke:#b3b3b3"
     transform="translate(0,24.565968)">
    <path
       id="path817"
       d="m 143.02307,510.87677 a 10.345686,10.819256 0 0 1 -10.34569,10.81926 10.345686,10.819256 0 0 1 -10.34568,-10.81926 10.345686,10.819256 0 0 1 10.34568,-10.81926 10.345686,10.819256 0 0 1 10.34569,10.81926 z"
       style="opacity:1;fill:none;fill-opacity:1;stroke:#b3b3b3;stroke-width:12;stroke-miterlimit:4;stroke-dasharray:none;stroke-dashoffset:0;stroke-opacity:1"
       inkscape:connector-curvature="0" />
    <path
       sodipodi:nodetypes="cccccccccccccccc"
       inkscape:connector-curvature="0"
       id="path819"
       d="m 141.08372,518.9801 175.89963,143.03896 8.68633,6.74521 8.35925,4.77671 9.55343,4.77672 10.23582,3.75313 10.74761,1.87657 132.89507,7.16507 30.62551,1.54669 168.52052,-111.82429 3.37765,-1.68882 3.01576,-0.24126 75.2733,4.10143 259.1139,13.63122 204.5587,11.0531 19.3627,-38.12843"
       style="fill:none;stroke:#b3b3b3;stroke-width:12;stroke-linecap:butt;stroke-linejoin:miter;stroke-miterlimit:4;stroke-dasharray:none;stroke-opacity:1" />
    <path
       id="path821"
       d="m 1277.0039,565.89423 a 8.1033573,8.1033573 0 0 1 -8.1034,8.10335 8.1033573,8.1033573 0 0 1 -8.1033,-8.10335 8.1033573,8.1033573 0 0 1 8.1033,-8.10336 8.1033573,8.1033573 0 0 1 8.1034,8.10336 z"
       style="opacity:1;fill:none;fill-opacity:1;stroke:#b3b3b3;stroke-width:12;stroke-miterlimit:4;stroke-dasharray:none;stroke-dashoffset:0;stroke-opacity:1"
       inkscape:connector-curvature="0" />
    <path
       inkscape:connector-curvature="0"
       id="path823"
       d="m 1276.6627,573.31524 131.5423,147.33015 29.6751,32.32892 139.4486,109.53231 100.1516,78.53046 59.3678,81.54532 266.3056,378.6591 15.9232,21.4722 5.549,9.8917 9.4091,29.4338 29.9163,101.812 8.6854,-2.8952 -9.8917,-38.6017 -10.6154,2.8952"
       style="fill:none;stroke:#b3b3b3;stroke-width:12;stroke-linecap:butt;stroke-linejoin:miter;stroke-miterlimit:4;stroke-dasharray:none;stroke-opacity:1" />
    <path
       inkscape:connector-curvature="0"
       id="path825"
       d="m 369.69879,477.39439 -20.38652,160.98114 -14.51565,110.82522 -6.83592,188.6998 -0.84441,1.68883 -1.56819,0.72378 -68.8799,-3.13639 -2.29198,0.24126 -1.2063,1.08567 -96.98676,199.8844 -2.89513,5.1871 -0.60315,13.39 2.89513,1.5682 3.9808,-1.0857 1.68882,-3.257 -1.08567,-7.1172 -2.7745,-10.8567"
       style="fill:none;stroke:#b3b3b3;stroke-width:12;stroke-linecap:butt;stroke-linejoin:miter;stroke-miterlimit:4;stroke-dasharray:none;stroke-opacity:1" />
    <path
       id="path829"
       d="m 375.0065,470.0661 a 6.9663997,6.9663997 0 0 1 -6.9664,6.9664 6.9663997,6.9663997 0 0 1 -6.9664,-6.9664 6.9663997,6.9663997 0 0 1 6.9664,-6.9664 6.9663997,6.9663997 0 0 1 6.9664,6.9664 z"
       style="opacity:1;fill:none;fill-opacity:1;stroke:#b3b3b3;stroke-width:12;stroke-miterlimit:4;stroke-dasharray:none;stroke-dashoffset:0;stroke-opacity:1"
       inkscape:connector-curvature="0" />
    <path
       id="path831"
       d="m 351.60424,679.20892 a 7.0568724,7.0568724 0 0 1 -7.05688,7.05688 7.0568724,7.0568724 0 0 1 -7.05687,-7.05688 7.0568724,7.0568724 0 0 1 7.05687,-7.05687 7.0568724,7.0568724 0 0 1 7.05688,7.05687 z"
       style="opacity:1;fill:none;fill-opacity:1;stroke:#b3b3b3;stroke-width:12;stroke-miterlimit:4;stroke-dasharray:none;stroke-dashoffset:0;stroke-opacity:1"
       inkscape:connector-curvature="0" />
  </g>
  <path
     style="opacity:1;fill:#0000ff;fill-opacity:1;stroke:#0000ff;stroke-width:2.86312675;stroke-miterlimit:4;stroke-dasharray:none;stroke-dashoffset:0;stroke-opacity:1"
     d="m 1501.1852,35.439762 h 625.2043 V 532.99817 h -625.2043 z"
     id="rect1214" />
  <g
     aria-label="4"
     style="font-style:normal;font-variant:normal;font-weight:bold;font-stretch:normal;font-size:566.57720947px;line-height:1.25;font-family:Calibri;-inkscape-font-specification:'Calibri, Bold';font-variant-ligatures:normal;font-variant-caps:normal;font-variant-numeric:normal;font-feature-settings:normal;text-align:start;letter-spacing:0px;word-spacing:0px;writing-mode:lr-tb;text-anchor:start;fill:#ffffff;fill-opacity:1;stroke:none;stroke-width:21.24664688"
     id="text1218">
    <path
       d="M 1822.1664,487.7272 V 406.11574 H 1656.177 V 338.06008 L 1832.1258,80.499834 h 65.2891 V 337.78343 h 50.3501 v 68.33231 h -50.3501 v 81.61146 z m 0,-149.94377 V 199.18227 l -93.2307,138.60116 z"
       style="font-style:normal;font-variant:normal;font-weight:bold;font-stretch:normal;font-family:Arial;-inkscape-font-specification:'Arial Bold';fill:#ffffff;stroke-width:21.24664688"
       id="path1246" />
  </g>
  <path
     style="opacity:1;fill:#ffffff;fill-opacity:1;stroke:#0000ff;stroke-width:5.79025412;stroke-miterlimit:4;stroke-dasharray:none;stroke-dashoffset:0;stroke-opacity:1"
     d=""
     id="path1228"
     inkscape:connector-curvature="0" />
  <path
     style="opacity:1;fill:#0000ff;fill-opacity:1;stroke:#0000ff;stroke-width:3;stroke-miterlimit:4;stroke-dasharray:none;stroke-dashoffset:0;stroke-opacity:1"
     d="m 453.47708,718.92591 c -89.38221,-4.91889 -89.97926,-4.95882 -100.31104,-6.70969 -16.77556,-2.84286 -15.40877,-1.68783 -14.3355,-12.11457 0.51819,-5.03413 1.17416,-10.68834 1.4577,-12.56491 1.9874,-13.15305 22.42903,-174.66638 22.43001,-177.22386 6.7e-4,-1.76821 -1.53415,-5.03962 -3.41072,-7.26979 -7.0431,-8.37025 -2.34553,-20.22275 8.015,-20.22275 6.61088,0 8.84501,1.11417 11.14234,5.55672 2.77226,5.36096 2.49503,9.81896 -0.87723,14.10609 -2.82339,3.58935 -5.87031,25.35426 -26.70227,190.74094 l -0.80233,6.36974 5.29463,1.51363 c 2.91205,0.83249 21.26252,2.4132 40.77881,3.51266 54.83147,3.089 110.91118,6.04152 121.46507,6.395 l 9.55343,0.31996 83.93373,-55.75092 c 46.16355,-30.66301 85.48453,-56.20208 87.37996,-56.75349 1.89543,-0.55142 12.33596,-0.49251 23.20119,0.13089 10.86523,0.62341 96.21653,5.1632 189.66957,10.08843 93.45307,4.92523 203.07867,10.78084 243.61247,13.01247 40.5339,2.23163 75.9963,4.05792 78.8053,4.05844 l 5.1074,9.2e-4 8.1992,-16.35632 c 4.5096,-8.99598 8.1992,-17.62457 8.1992,-19.17464 0,-6.93024 6.6937,-13.60097 13.6477,-13.60097 7.1633,0 13.6478,6.68739 13.6478,14.07471 0,1.81063 -1.6909,5.41981 -3.7576,8.0204 -3.393,4.26953 -4.366,4.70273 -10.0268,4.46419 l -6.2692,-0.26416 -8.6359,17.43669 -8.636,17.43669 -6.9268,-0.59912 c -3.8097,-0.32951 -47.1536,-2.73096 -96.3196,-5.33655 -239.52781,-12.6939 -425.93592,-22.44959 -433.31641,-22.67766 l -8.18865,-0.25304 -85.60408,56.86444 c -64.66464,42.95494 -86.53084,56.8229 -89.39283,56.69459 -2.08382,-0.0934 -34.49621,-1.85974 -72.02755,-3.92516 z m 817.57432,-127.0424 c 1.4064,-2.27566 -1.7568,-4.88523 -3.6395,-3.00251 -1.5748,1.57485 -0.5892,4.4862 1.5188,4.4862 0.6621,0 1.6164,-0.66766 2.1207,-1.48369 z M 368.86096,495.10333 c 0.46392,-0.75063 0.19309,-1.36478 -0.60184,-1.36478 -0.79492,0 -1.44532,0.61415 -1.44532,1.36478 0,0.75062 0.27083,1.36477 0.60184,1.36477 0.33102,0 0.98141,-0.61415 1.44532,-1.36477 z"
     id="path1244"
     inkscape:connector-curvature="0" />
</svg>
