<?xml version="1.0" encoding="utf-8"?>
<!-- Generator: Adobe Illustrator 22.1.0, SVG Export Plug-In . SVG Version: 6.00 Build 0)  -->
<svg version="1.1" xmlns="http://www.w3.org/2000/svg" xmlns:xlink="http://www.w3.org/1999/xlink" x="0px" y="0px" width="400px"
	 height="300px" viewBox="0 0 400 300" style="enable-background:new 0 0 400 300;" xml:space="preserve">
<g id="圖層_2">
	<rect style="fill:#FFFFFF;" width="400" height="300"/>
	<path style="fill:none;stroke:#000000;stroke-width:10;stroke-miterlimit:10;" d="M380,285H20c-2.75,0-5-2.25-5-5V20
		c0-2.75,2.25-5,5-5h360c2.75,0,5,2.25,5,5v260C385,282.75,382.75,285,380,285z"/>
</g>
<g id="嘉133">
	<g>
		<path style="fill:#040000;" d="M55.229492,121.320313h87.411621v29.380859h-18.443359l6.624023,4.046875
			c1.211426,0.700195,1.818359,1.349609,1.818359,1.949219c0,1.199219-0.649414,2.199219-1.948242,2.998047l-4.545898,4.796875
			h30.912109v11.392578H76.919922c-0.086914,2.998047-0.259766,5.597656-0.519531,7.794922h24.028809
			c-0.347168,9.994141-0.954102,17.486328-1.818359,22.484375c-0.954102,4.696289-2.685059,7.994141-5.195313,9.893555
			c-2.337891,1.798828-6.883789,3.047852-13.637695,3.748047l-5.845215-11.992188l8.053223-1.049805
			c3.376953-0.400391,5.455078-2,6.234375-4.796875c0.432129-1.700195,0.779297-4.147461,1.039063-7.344727H74.322266
			c-1.73291,5.595703-4.590332,10.441406-8.572266,14.540039c-3.636719,3.897461-8.876465,7.444336-15.71582,10.643555
			l-9.351563-10.943359c6.666504-1.798828,11.64502-4.147461,14.936523-7.044922
			c2.597656-1.899414,4.675781-4.297852,6.234375-7.195313H45.87793v-10.942383h19.742188
			c0.432617-2.297852,0.734863-4.895508,0.90918-7.794922h-25.84668v-11.392578h32.860352
			c-2.512207-2.998047-5.109863-5.944336-7.792969-8.844727l8.572266-4.946289H55.229492V121.320313z M43.410156,88.341797
			h49.875488v-8.394043l10.910156,1.049316c1.990723,0.201172,2.987305,0.850098,2.987305,1.94873
			c0,0.800781-0.694336,2-2.078125,3.597656v1.79834h49.875v11.392578h-49.875v5.546387h41.692383v10.792969H51.073242v-10.792969
			h42.212402v-5.546387H43.410156V88.341797z M131.211426,139.908203v-7.794922H66.65918v7.794922H131.211426z
			 M111.98877,164.492188l9.481445-13.791016h-44.42041c3.202637,3.398438,6.017578,6.845703,8.442871,10.342773l-4.935547,3.448242
			H111.98877z M106.663574,182.030273h45.329102v35.976563h-10.390625v-4.197266h-24.547852v5.396484h-10.390625V182.030273z
			 M117.054199,202.866211h24.547852v-10.042969h-24.547852V202.866211z"/>
	</g>
	<g>
		<path style="fill:#040000;" d="M191.733398,217.893555h-17.470703v-91.774414h-8.434082V98.600098
			c2.06543-1.535645,3.686035-3.117676,4.862305-4.744629c1.175293-1.626465,1.964844-3.026367,2.366699-4.202148
			c0.400879-1.17334,1.175293-3.613281,2.32373-7.320313h16.352051V217.893555z"/>
		<path style="fill:#040000;" d="M277.536133,178.174805c0,12.470703-3.027344,22.59375-9.080078,30.365234
			c-6.053711,7.773438-13.928711,11.658203-23.624023,11.658203c-5.393555,0-10.873047-1.741211-16.4375-5.21875
			c-5.566406-3.478516-10.328125-8.066406-14.287109-13.759766c-2.525391-3.975586-4.532227-7.591797-6.024414-10.844727
			l13.856445-15.047852c5.852539,12.020508,13.770508,18.030273,23.753906,18.030273
			c4.588867,0,8.232422-1.423828,10.929688-4.270508c2.696289-2.84668,4.044922-6.664063,4.044922-11.455078
			c0-3.25293-0.631836-6.416016-1.893555-9.489258c-1.262695-3.071289-2.839844-5.286133-4.733398-6.642578
			c-2.353516-1.806641-5.135742-2.754883-8.347656-2.84668h-2.496094v-26.976074h4.561523
			c2.46582,0,4.1875-0.495605,5.163086-1.491211c2.352539-2.168945,3.529297-5.331543,3.529297-9.489258
			c0-3.976074-1.248047-7.161621-3.744141-9.557129c-2.496094-2.393555-5.867188-3.592285-10.112305-3.592285
			c-6.943359,0-12.939453,3.79541-17.987305,11.387207l-12.392578-17.623047
			c8.834961-13.916016,19.162109-20.82959,30.982422-20.740723c8.892578,0,16.136719,3.660156,21.730469,10.980469
			c5.594727,7.320313,8.391602,16.765137,8.391602,28.332031c0,10.213867-2.209961,18.753906-6.626953,25.621094
			C273.921875,155.084961,277.536133,165.973633,277.536133,178.174805z"/>
		<path style="fill:#040000;" d="M359.896484,178.174805c0,12.470703-3.027344,22.59375-9.080078,30.365234
			c-6.053711,7.773438-13.928711,11.658203-23.624023,11.658203c-5.393555,0-10.873047-1.741211-16.4375-5.21875
			c-5.566406-3.478516-10.328125-8.066406-14.287109-13.759766c-2.525391-3.975586-4.532227-7.591797-6.024414-10.844727
			l13.856445-15.047852c5.852539,12.020508,13.770508,18.030273,23.753906,18.030273
			c4.588867,0,8.232422-1.423828,10.929688-4.270508c2.696289-2.84668,4.044922-6.664063,4.044922-11.455078
			c0-3.25293-0.631836-6.416016-1.893555-9.489258c-1.262695-3.071289-2.839844-5.286133-4.733398-6.642578
			c-2.353516-1.806641-5.135742-2.754883-8.347656-2.84668h-2.496094v-26.976074h4.561523
			c2.46582,0,4.1875-0.495605,5.163086-1.491211c2.352539-2.168945,3.529297-5.331543,3.529297-9.489258
			c0-3.976074-1.248047-7.161621-3.744141-9.557129c-2.496094-2.393555-5.867188-3.592285-10.112305-3.592285
			c-6.943359,0-12.939453,3.79541-17.987305,11.387207l-12.392578-17.623047
			c8.834961-13.916016,19.162109-20.82959,30.982422-20.740723c8.892578,0,16.136719,3.660156,21.730469,10.980469
			c5.594727,7.320313,8.391602,16.765137,8.391602,28.332031c0,10.213867-2.209961,18.753906-6.626953,25.621094
			C356.282227,155.084961,359.896484,165.973633,359.896484,178.174805z"/>
	</g>
	<g>
	</g>
	<g>
	</g>
	<g>
	</g>
	<g>
	</g>
	<g>
	</g>
	<g>
	</g>
</g>
</svg>
