<svg xmlns="http://www.w3.org/2000/svg" xmlns:xlink="http://www.w3.org/1999/xlink" version="1.1" baseProfile="full" viewBox="0 0 200 200" width="200" height="200">
<g fill="black">
<path d="M 81.57714281082153 53.0 L 81.5 53.3 L 79.6 60.3 L 77.4 67.3 L 75.0 74.3 L 72.4 81.3 L 69.3 88.2 L 67.6 87.7 L 68.7 80.3 L 69.9 73.0 L 71.0 65.8 L 72.2 58.6 L 74.2 44.6 L 75.0 37.7 L 75.7 30.8 L 76.3 24.0 L 76.72532625198365 18.30062789916992 L 76.7 18.3 L 76.76017694473266 17.833628273010255 L 76.8 17.3 L 76.82863206863404 17.303101825714112 L 77.1 15.2 L 88.8 18.6 L 91.5 20.9 L 88.13499555587768 22.423775577545165 L 86.4 32.4 L 84.9 39.4 L 83.3 46.3 L 82.60571432113647 49.0 L 97.41818180084229 49.0 L 105.6 40.0 L 115.6 49.0 L 115.6 53.0 L 98.8 53.0 L 98.8 82.0 L 98.1 96.8 L 98.07985610961914 97.0 L 102.8777777671814 97.0 L 109.1 90.0 L 117.1 97.0 L 117.1 101.0 L 97.67697839736938 101.0 L 96.7 110.7 L 94.57076759338379 122.82736730575562 L 95.7 123.6 L 99.4 126.5 L 102.8 129.9 L 105.8 133.5 L 108.7 137.4 L 111.2 141.6 L 113.5 146.1 L 115.5 150.8 L 117.2 155.7 L 118.6 160.9 L 117.7 165.3 L 113.9 167.9 L 109.4 166.9 L 106.9 163.1 L 106.2 158.5 L 105.3 153.9 L 104.2 149.6 L 102.9 145.4 L 101.3 141.3 L 99.6 137.4 L 97.7 133.5 L 95.5 129.8 L 93.68190479278564 126.79619045257569 L 91.5 135.9 L 87.7 147.1 L 83.1 157.3 L 77.7 166.6 L 71.6 174.8 L 64.6 181.8 L 56.9 187.6 L 55.7 186.3 L 61.9 179.2 L 67.3 171.5 L 72.1 163.2 L 76.2 154.2 L 79.7 144.3 L 82.5 133.6 L 84.6 122.0 L 86.0 109.6 L 86.44925374984741 101.0 L 66.2 101.0 L 68.1 103.5 L 68.4 108.1 L 65.6 111.6 L 61.0 112.0 L 57.4 109.1 L 56.6 106.8 L 55.6 104.5 L 54.5 102.2 L 53.3 100.0 L 52.0 97.8 L 50.5 95.6 L 48.9 93.4 L 47.1 91.3 L 47.1 182.0 L 35.1 188.0 L 35.1 101.36000003814698 L 32.7 108.4 L 29.5 117.0 L 25.9 125.3 L 22.1 133.4 L 17.8 141.0 L 13.1 148.4 L 11.5 147.5 L 14.4 139.4 L 17.1 131.3 L 19.8 123.0 L 22.3 114.6 L 24.6 106.0 L 26.7 97.2 L 28.6 88.2 L 30.3 79.0 L 31.8 69.7 L 32.57011489868164 63.0 L 12.3 63.0 L 12.3 59.0 L 35.1 59.0 L 35.1 14.0 L 47.1 16.0 L 50.1 18.0 L 47.1 19.8 L 47.1 59.0 L 49.61818180084229 59.0 L 57.8 50.0 L 67.8 59.0 L 67.8 63.0 L 47.1 63.0 L 47.1 87.08965520858764 L 49.5 88.0 L 52.2 89.3 L 54.8 90.9 L 57.3 92.5 L 59.7 94.4 L 62.0 96.4 L 63.9 98.39047622680664 L 63.9 97.0 L 86.65820894241332 97.0 L 86.7 96.2 L 86.8 82.0 L 86.8 53.0 Z M 117.1 173.0 L 122.5 173.0 L 122.5 33.0 L 117.1 33.0 L 117.1 29.0 L 162.8 29.0 L 172.8 19.0 L 184.8 29.0 L 184.8 33.0 L 134.5 33.0 L 134.5 73.0 L 168.9 73.0 L 174.9 68.0 L 185.9 77.0 L 180.9 81.0 L 180.9 132.0 L 168.9 138.0 L 168.9 126.0 L 134.5 126.0 L 134.5 173.0 L 165.8 173.0 L 175.8 163.0 L 187.8 173.0 L 187.8 177.0 L 117.1 177.0 Z M 134.5 77.0 L 134.5 122.0 L 168.9 122.0 L 168.9 77.0 Z " />
</g>
</svg>
