<svg xmlns="http://www.w3.org/2000/svg" xmlns:xlink="http://www.w3.org/1999/xlink" version="1.1" baseProfile="full" viewBox="0 0 200 200" width="200" height="200">
<g fill="black">
<path d="M 186.9 122.5 L 188.6 125.7 L 184.92089548110962 125.95373134613037 L 181.8 131.4 L 176.4 139.8 L 170.8 147.7 L 164.9 155.1 L 158.7 162.0 L 152.3 168.3 L 145.6 174.1 L 138.6 179.3 L 131.3 183.9 L 123.7 187.7 L 122.7 186.2 L 129.1 180.8 L 135.2 175.1 L 141.1 169.2 L 146.9 163.0 L 152.3 156.4 L 157.6 149.4 L 162.6 142.0 L 167.3 134.1 L 171.9 125.8 L 175.7460313796997 118.01849470138549 L 175.7 118.0 L 176.7 116.1 Z M 94.17841730117797 95.0 L 106.6 95.0 L 106.6 32.0 L 94.8 32.0 L 94.8 80.0 L 94.2 94.7 Z M 26.5 33.4 L 49.3 33.4 L 55.3 28.4 L 66.3 37.4 L 61.3 41.4 L 61.3 155.9 L 49.3 161.9 L 49.3 149.9 L 26.5 149.9 L 26.5 161.9 L 14.5 167.9 L 14.5 27.4 Z M 26.5 110.8 L 26.5 145.9 L 49.3 145.9 L 49.3 110.8 Z M 181.7 73.6 L 183.4 76.8 L 179.68435163497924 76.99218873977661 L 177.6 80.5 L 173.3 87.2 L 168.8 93.6 L 164.1 99.7 L 159.2 105.5 L 154.1 111.1 L 148.8 116.3 L 143.3 121.2 L 137.6 125.6 L 131.5 129.6 L 130.4 128.3 L 135.0 122.8 L 139.5 117.4 L 144.0 111.8 L 148.3 106.2 L 152.5 100.3 L 156.5 94.3 L 160.4 88.0 L 164.1 81.6 L 167.6 74.9 L 171.0 68.1 L 171.03977699279784 68.12044610977173 L 171.6 67.0 Z M 26.5 74.1 L 26.5 106.8 L 49.3 106.8 L 49.3 74.1 Z M 177.7 25.7 L 179.4 28.9 L 175.62547664642335 29.03015594482422 L 173.9 31.8 L 169.9 37.8 L 165.8 43.6 L 161.5 49.3 L 157.0 54.7 L 152.3 60.0 L 147.5 65.0 L 142.4 69.9 L 137.1 74.4 L 131.6 78.6 L 130.3 77.3 L 138.5 66.3 L 142.5 60.8 L 146.4 55.2 L 150.2 49.6 L 153.9 43.9 L 157.4 38.1 L 160.8 32.2 L 164.1 26.1 L 166.77619390487672 20.833940982818604 L 166.7 20.8 L 167.7 19.0 Z M 26.5 37.4 L 26.5 70.1 L 49.3 70.1 L 49.3 37.4 Z M 68.1 32.0 L 68.1 28.0 L 110.8 28.0 L 120.8 18.0 L 132.8 28.0 L 132.8 32.0 L 117.6 32.0 L 117.6 95.0 L 121.4777777671814 95.0 L 127.7 88.0 L 135.7 95.0 L 135.7 99.0 L 117.6 99.0 L 117.6 181.2 L 106.6 186.7 L 106.6 99.0 L 93.89064750671386 99.0 L 93.2 108.6 L 91.7 121.6 L 89.6 133.8 L 87.1 145.1 L 83.9 155.4 L 80.3 164.9 L 76.1 173.5 L 71.3 181.0 L 65.9 187.4 L 64.6 186.5 L 68.3 179.2 L 71.7 171.4 L 74.7 162.8 L 77.3 153.5 L 79.5 143.3 L 81.2 132.4 L 82.5 120.5 L 83.4 107.9 L 83.66176471710205 99.0 L 65.2 99.0 L 65.2 95.0 L 83.77941179275513 95.0 L 83.8 94.3 L 83.8 32.0 Z " />
</g>
</svg>
