<?xml version="1.0" encoding="UTF-8" standalone="no"?>
<svg
   xmlns:svg="http://www.w3.org/2000/svg"
   xmlns="http://www.w3.org/2000/svg"
   width="200.00089"
   height="75.323997"
   id="svg2216">
  <defs
     id="defs2219" />
  <path
     d="M 135.27305,72.04442 C 150.45126,24.12647 157.92967,0.29562 158.17796,0.02787 L 166.62341,0.02676 L 156.92239,30.46816 C 151.61566,47.10925 146.21846,64.00953 144.9284,68.02437 L 142.58264,75.324 L 138.40855,75.324 L 134.23433,75.324 L 135.27305,72.04442 z M 168.7035,72.04442 C 183.88178,24.12647 191.42367,0.2796 191.67199,0.01187 L 200.00088,0.01555 L 190.35255,30.46816 C 185.04607,47.10925 179.64892,64.00953 178.35861,68.02437 L 176.01285,75.324 L 171.83872,75.324 L 167.66465,75.324 L 168.7035,72.04442 z M 32.79556,69.5673 C 20.856845,67.79859 14.558878,63.45876 11.76512,55.07528 C 10.85932,52.35723 10.819523,51.51835 10.597491,30.46816 C 10.427713,14.37106 10.231712,8.43775 9.8475977,7.76733 C 9.1088284,6.47793 7.1488192,5.92436 3.3222013,5.92436 L 0,5.92436 L 0,2.96218 L 0,1.4210855e-014 L 16.291986,1.4210855e-014 L 32.583973,1.4210855e-014 L 32.583973,2.96218 L 32.583973,5.92436 L 29.185053,5.92436 C 25.368771,5.92436 23.207644,6.61611 22.356216,8.11018 C 21.617174,9.40694 21.303949,45.17913 21.992746,49.61859 C 23.264001,57.81212 29.316948,62.19555 39.354671,62.19228 C 49.915275,62.18859 55.616688,57.94879 57.367752,48.79663 C 58.246806,44.20216 58.25129,10.3692 57.373127,8.26742 C 56.621559,6.46861 54.934201,5.93003 50.039579,5.9267 L 46.548537,5.92436 L 46.548537,2.96218 L 46.548537,1.4210855e-014 L 60.93626,1.4210855e-014 L 75.323997,1.4210855e-014 L 75.323997,2.96218 L 75.323997,5.92436 L 72.13665,5.92436 C 68.111332,5.92436 66.289353,6.64231 65.648414,8.48099 C 65.316661,9.4326 65.165661,16.02853 65.160731,29.79078 C 65.152531,51.70945 65.001388,53.41162 62.635274,58.23013 C 61.900637,59.72669 60.465623,61.65641 59.224794,62.81711 C 56.819856,65.06667 51.658168,67.64852 47.394887,68.73397 C 44.712314,69.41741 35.379183,69.94999 32.79556,69.5673 z M 113.12817,68.53512 C 112.15893,68.34353 109.49294,67.39291 107.2038,66.42251 C 93.07287,60.43354 89.229561,60.32727 88.582088,65.90857 L 88.324346,68.13015 L 85.151649,68.13015 L 81.979123,68.13015 L 82.280755,63.62876 C 82.842604,55.24133 84.694326,50.32456 88.868647,46.13634 C 91.838497,43.15632 94.16792,41.62753 103.5033,36.53031 C 114.56056,30.49297 116.57551,28.12301 116.57367,21.15844 C 116.57254,16.87244 115.76426,14.99212 112.80187,12.38442 C 110.09426,10.00113 107.03583,9.09428 101.77199,9.11391 C 97.17349,9.13105 95.070699,9.77659 92.010406,12.11083 C 90.728107,13.08901 88.036147,16.94748 88.023077,17.82648 C 88.020823,17.97221 88.830391,17.79954 89.822221,17.44293 C 97.523978,14.67355 101.56973,25.60928 94.168699,29.19214 C 86.966348,32.67864 80.153711,24.73799 82.711841,15.83839 C 84.426497,9.87359 89.094598,5.36181 96.075431,2.92235 C 98.329139,2.13481 99.740002,1.96256 104.09938,1.94268 C 110.04453,1.91557 112.59981,2.40685 117.00611,4.4241 C 125.05722,8.10998 129.18274,15.73616 127.89707,24.55694 C 127.29601,28.68034 126.29533,31.05524 124.16543,33.41304 C 122.23279,35.55201 115.76091,39.45932 110.10953,41.89885 C 94.800069,48.50749 91.111083,51.1389 89.513642,56.5897 C 89.246592,57.50109 89.319572,57.48892 91.696101,56.22678 C 96.603505,53.72351 102.6642,55.91373 107.69633,57.13509 C 117.92584,59.76183 120.85021,59.3333 123.0834,54.87947 C 123.80512,53.44035 124.14491,51.88893 124.30674,49.29436 L 124.53064,45.70215 L 127.07369,45.70215 L 129.6165,45.70215 L 129.32929,50.78737 C 128.85899,59.10595 127.58613,63.65789 125.00949,66.23438 C 122.63129,68.61262 118.02692,69.5043 113.12817,68.53512 z "
     style="fill:#000000"
     id="path3203" />
</svg>