<svg xmlns="http://www.w3.org/2000/svg" xmlns:xlink="http://www.w3.org/1999/xlink" version="1.1" baseProfile="full" viewBox="0 0 200 200" width="200" height="200">
<g fill="black">
<path d="M 160.8 68.7 L 161.7 72.2 L 157.8755784034729 71.46195373535156 L 157.2 72.1 L 153.3 75.5 L 149.1 78.9 L 144.6 82.2 L 139.9 85.5 L 134.8 88.7 L 129.5 91.9 L 123.8 95.0 L 117.8 98.0 L 112.37909488677978 100.28694429397584 L 113.0 101.3 L 108.81010723114014 101.81454820632935 L 106.1 105.8 L 104.3 108.2 L 102.4 110.6 L 100.4 112.9 L 98.3 115.1 L 96.1 117.3 L 94.14499998092651 119.0 L 151.0 119.0 L 157.0 114.0 L 168.0 123.0 L 163.0 127.0 L 163.0 181.0 L 151.0 187.0 L 151.0 177.0 L 58.0 177.0 L 58.0 184.0 L 46.0 190.0 L 46.0 113.0 L 58.0 119.0 L 91.00769233703613 119.0 L 91.7 117.8 L 92.7 115.0 L 93.8 112.2 L 96.8 104.1 L 97.7 101.4 L 98.5 98.8 L 99.3 96.1 L 99.74480962753296 94.44785013198853 L 99.6 94.4 L 99.98679246902466 93.5490566253662 L 100.0 93.5 L 100.00762367248535 93.50322799682617 L 100.6 92.2 L 111.1 98.2 L 111.3038724899292 98.53263416290284 L 115.8 94.8 L 120.9 90.5 L 125.8 86.5 L 130.4 82.6 L 134.7 78.8 L 138.7 75.0 L 142.4 71.4 L 145.9 67.7 L 149.0 64.2 L 151.1376455307007 61.52794303894043 L 151.1 61.5 L 151.5714285850525 60.98571424484253 L 151.8 60.7 L 151.81836738586426 60.716326522827146 L 152.2 60.3 Z M 58.0 150.0 L 58.0 173.0 L 151.0 173.0 L 151.0 150.0 Z M 58.0 123.0 L 58.0 146.0 L 151.0 146.0 L 151.0 123.0 Z M 144.0 99.0 L 160.0 99.0 L 161.2 98.9 L 162.1 98.7 L 163.0 98.4 L 163.4 98.0 L 163.7 97.1 L 163.9 96.2 L 164.0 95.0 L 164.0 29.0 L 107.0 29.0 L 107.0 25.0 L 164.0 25.0 L 170.0 20.0 L 181.0 29.0 L 176.0 33.0 L 176.0 95.0 L 175.8 97.5 L 175.4 100.0 L 174.6 102.4 L 173.3 104.7 L 171.7 106.7 L 169.7 108.3 L 167.4 109.6 L 165.0 110.4 L 162.5 110.8 L 160.0 111.0 L 160.0 105.0 L 144.0 102.0 Z M 59.0 99.0 L 79.0 99.0 L 80.2 98.9 L 81.1 98.7 L 82.0 98.4 L 82.4 98.0 L 82.7 97.1 L 82.9 96.2 L 83.0 95.0 L 83.0 29.0 L 22.0 29.0 L 22.0 25.0 L 83.0 25.0 L 89.0 20.0 L 100.0 29.0 L 95.0 33.0 L 95.0 95.0 L 94.8 97.5 L 94.4 100.0 L 93.6 102.4 L 92.3 104.7 L 90.7 106.7 L 88.7 108.3 L 86.4 109.6 L 84.0 110.4 L 81.5 110.8 L 79.0 111.0 L 79.0 105.0 L 59.0 102.0 Z M 80.9 67.6 L 81.9 71.0 L 78.20576543807984 70.4166997909546 L 76.5 72.2 L 71.7 76.7 L 66.6 81.2 L 61.2 85.6 L 55.5 89.9 L 49.4 94.2 L 43.0 98.3 L 36.2 102.3 L 29.0 106.1 L 21.4 109.7 L 20.5 108.2 L 27.0 102.9 L 33.2 97.9 L 39.1 93.0 L 44.8 88.1 L 50.1 83.4 L 55.1 78.6 L 59.8 73.9 L 64.1 69.2 L 68.1 64.5 L 71.13346614837647 60.623904418945315 L 71.1 60.6 L 72.1 59.4 Z M 74.9 38.6 L 75.8 42.1 L 72.05671644210815 41.443283557891846 L 70.9 42.6 L 66.6 46.5 L 62.0 50.4 L 57.2 54.1 L 52.2 57.7 L 46.8 61.2 L 41.2 64.6 L 35.3 67.9 L 29.0 70.9 L 22.4 73.7 L 21.5 72.2 L 27.0 67.7 L 32.3 63.4 L 37.4 59.2 L 42.3 55.1 L 46.9 51.1 L 51.2 47.0 L 55.3 42.9 L 59.0 38.9 L 62.5 34.8 L 65.7 30.8 L 65.73906583786011 30.833121013641357 L 66.1 30.4 Z M 156.5 38.9 L 157.2 42.4 L 153.53819494247438 41.50060930252075 L 152.4 42.5 L 148.0 45.9 L 143.5 49.3 L 138.7 52.6 L 133.8 55.8 L 128.6 58.9 L 123.2 61.9 L 117.5 64.7 L 111.6 67.4 L 105.4 69.7 L 104.5 68.2 L 109.7 64.1 L 114.7 60.2 L 119.6 56.4 L 124.3 52.7 L 128.8 48.9 L 133.1 45.2 L 137.1 41.5 L 141.0 37.8 L 144.6 34.1 L 147.33190221786498 31.127047538757324 L 147.3 31.1 L 148.3 30.1 Z " />
</g>
</svg>
