<?xml version="1.0" standalone="no"?>
<!DOCTYPE svg PUBLIC "-//W3C//DTD SVG 1.1//EN" "http://www.w3.org/Graphics/SVG/1.1/DTD/svg11.dtd" >
<svg xmlns="http://www.w3.org/2000/svg" xmlns:xlink="http://www.w3.org/1999/xlink" version="1.1" viewBox="-10 0 652 1000">
   <path fill="currentColor"
d="M615 649q8 12 8 26q0 19 -14 34.5t-34 15.5q-13 0 -23 -5q7 13 7 26q0 19 -14 32t-32 13q-12 0 -23 -6.5t-18 -19.5q2 23 -16 37.5t-42 14.5q-20 0 -35.5 -10.5t-17.5 -31.5q0 18 -6 28t-14 10t-14 -10t-6 -28q0 22 -9.5 34t-22.5 12t-22.5 -12t-9.5 -34q0 20 -21.5 30.5
t-51.5 10.5t-52 -10.5t-22 -30.5q-27 9 -40 9q-8 0 -8 -3q0 -4 10.5 -10.5t31.5 -13.5q-22 0 -34.5 -15t-12.5 -35t12.5 -34.5t34.5 -14.5q-21 0 -32.5 -16t-11.5 -38t11.5 -38t32.5 -16q-18 0 -28.5 -12t-10.5 -28t10.5 -27.5t28.5 -11.5q-23 0 -35.5 -12t-12.5 -28
t12.5 -27.5t35.5 -11.5q-23 0 -36 -8.5t-13 -19.5q0 -12 13 -20q-15 -5 -25.5 -18t-10.5 -27q0 -10 8 -20q-16 -25 -16 -40q0 -6 4 -6q6 0 15 9q-2 -4 -2 -13q0 -12 7.5 -21t20.5 -10q-4 -4 -4 -11q0 -9 10.5 -15.5t28.5 -6.5q-5 -8 -5 -15q0 -18 18 -32.5t37 -14.5
q16 0 24 12q0 -24 11 -37t27 -13t27 13t11 37q6 -2 9 -2q16 0 28.5 18t12.5 38q0 21 -16 28q6 -2 17 -2q17 0 27 8t12 20q5 -1 14 -1q23 0 39 11t16 32q12 -2 18 -2q16 0 25.5 7.5t9.5 17.5q0 11 -10.5 20.5t-30.5 13.5q-1 15 -10.5 23t-22.5 8q-14 0 -24 -8.5t-10 -23.5
q0 22 -19 31q2 16 -11.5 28t-39.5 12q23 0 36 12t14 28q18 -12 47 -12q28 0 48 11t19 30q12 -23 39 -23q24 0 46 17.5t22 39.5q0 8 -5 18q14 -5 27 7.5t21 33.5t8 40q0 31 -19 36q16 7 24 19zM380 631.5q16 -14.5 34 -16.5q-5 -7 -5 -15q0 -3 2 -9q-10 2 -17 2
q-18 0 -37 -6.5t-27 -16.5q0 12 -10.5 19.5t-21.5 4.5q7 14 10 39t2 39q1 -10 9.5 -15.5t19.5 -5.5q17 0 25 11q0 -16 16 -30.5z" />
</svg>
