<?xml version="1.0" standalone="no"?>
<!DOCTYPE svg PUBLIC "-//W3C//DTD SVG 1.1//EN" "http://www.w3.org/Graphics/SVG/1.1/DTD/svg11.dtd" >
<svg xmlns="http://www.w3.org/2000/svg" xmlns:xlink="http://www.w3.org/1999/xlink" version="1.1" viewBox="-50 0 1327 1000">
   <path fill="currentColor"
d="M151 806l-65 -48v-513h-86l-40 -58v-10h142q-24 -24 -38 -57t-14 -66q0 -74 67 -116.5t191 -42.5q103 0 221 20.5t243 59t250.5 93.5t244.5 124h-84q-98 -51 -206.5 -92.5t-219 -71.5t-215 -46t-194.5 -16q-104 0 -166.5 33t-62.5 100q0 40 22 78h105l40 59v9h-125v561
h-10z" />
</svg>
