<?xml version="1.0" standalone="no"?>
<!DOCTYPE svg PUBLIC "-//W3C//DTD SVG 1.1//EN" "http://www.w3.org/Graphics/SVG/1.1/DTD/svg11.dtd" >
<svg xmlns="http://www.w3.org/2000/svg" xmlns:xlink="http://www.w3.org/1999/xlink" version="1.1" viewBox="-10 0 610 1000">
   <path fill="currentColor"
d="M224 -110l122 153l-45 40l-143 -130zM190 56c36 0 64 27 64 63s-28 64 -64 64c-37 0 -65 -28 -65 -64s28 -63 65 -63zM409 56c37 0 65 27 65 63s-28 64 -65 64c-35 0 -64 -28 -64 -64s29 -63 64 -63zM508 272c16 84 27 169 27 273c0 187 -121 268 -249 268
c-115 0 -197 -60 -197 -181v-360h112v351c0 72 33 104 91 104c65 0 130 -45 130 -191c0 -78 -8 -170 -26 -264h112z" />
</svg>
