<?xml version="1.0" standalone="no"?>
<!DOCTYPE svg PUBLIC "-//W3C//DTD SVG 1.1//EN" "http://www.w3.org/Graphics/SVG/1.1/DTD/svg11.dtd" >
<svg xmlns="http://www.w3.org/2000/svg" xmlns:xlink="http://www.w3.org/1999/xlink" version="1.1" viewBox="-10 0 610 1000">
   <path fill="currentColor"
d="M280 792c-146 0 -219 -80 -219 -221c0 -190 120 -319 298 -319c103 0 186 48 186 141c0 80 -52 169 -357 180c-1 8 -1 14 -1 18c0 61 27 102 108 102c63 0 98 -23 152 -95l80 51c-55 83 -122 143 -247 143zM347 344c-76 0 -127 41 -147 139l-3 15
c205 -10 225 -57 225 -95c0 -36 -22 -59 -75 -59zM337 -141c31 0 51 11 75 23c25 13 47 23 70 23s40 -10 64 -27l35 58c-27 33 -67 60 -117 60c-31 0 -51 -11 -75 -23c-25 -13 -47 -23 -70 -23s-40 10 -64 27l-35 -58c27 -33 67 -60 117 -60zM336 25h97l111 136l-64 51
l-107 -100l-134 100l-58 -54z" />
</svg>
