<?xml version="1.0" standalone="no"?>
<!DOCTYPE svg PUBLIC "-//W3C//DTD SVG 1.1//EN" "http://www.w3.org/Graphics/SVG/1.1/DTD/svg11.dtd" >
<svg xmlns="http://www.w3.org/2000/svg" xmlns:xlink="http://www.w3.org/1999/xlink" version="1.1" viewBox="-10 0 735 1000">
   <path fill="currentColor"
d="M232.225 770.225c-24.75 0 -43.4492 -19.7998 -43.4492 -44c0 -24.75 18.6992 -43.4492 43.4492 -43.4492c24.2002 0 44 18.6992 44 43.4492c0 23.6504 -20.3496 44 -44 44zM492.225 524.225c-24.75 0 -43.4492 -19.7998 -43.4492 -44
c0 -24.75 18.6992 -43.4492 43.4492 -43.4492c24.2002 0 44 18.6992 44 43.4492c0 23.6504 -20.3496 44 -44 44zM232.225 524.225c-24.75 0 -43.4492 -19.7998 -43.4492 -44c0 -24.75 18.6992 -43.4492 43.4492 -43.4492c24.2002 0 44 18.6992 44 43.4492
c0 23.6504 -20.3496 44 -44 44zM492.225 278.225c-24.75 0 -43.4492 -19.7998 -43.4492 -44c0 -24.75 18.6992 -43.4492 43.4492 -43.4492c24.2002 0 44 18.6992 44 43.4492c0 23.6504 -20.3496 44 -44 44zM492 806c-45 0 -79 -36 -79 -80c0 -45 34 -79 79 -79
c44 0 80 34 80 79c0 43 -37 80 -80 80zM232 314c-45 0 -79 -36 -79 -80c0 -45 34 -79 79 -79c44 0 80 34 80 79c0 43 -37 80 -80 80z" />
</svg>
