<?xml version="1.0" standalone="no"?>
<!DOCTYPE svg PUBLIC "-//W3C//DTD SVG 1.1//EN" "http://www.w3.org/Graphics/SVG/1.1/DTD/svg11.dtd" >
<svg xmlns="http://www.w3.org/2000/svg" xmlns:xlink="http://www.w3.org/1999/xlink" version="1.1" viewBox="-10 0 2457 2048">
   <path fill="currentColor"
d="M88 463q0 -124 80.5 -212.5t220.5 -88.5q149 0 232.5 88.5t83.5 212.5v76q0 122 -83 210.5t-231 88.5q-142 0 -222.5 -88.5t-80.5 -210.5v-76zM1173 391l-711 1138l-141 -76l711 -1138zM266 539q0 52 30.5 92t94.5 40q61 0 91.5 -40t30.5 -92v-76q0 -53 -31 -93.5
t-93 -40.5q-63 0 -93 40.5t-30 93.5v76zM2359 1358q0 123 -83.5 211.5t-231.5 88.5q-144 0 -224 -100q-77 100 -227 100q-148 0 -229 -105q-80 105 -226 105q-148 0 -233 -88.5t-85 -211.5v-77q0 -123 84.5 -211.5t231.5 -88.5q148 0 228 105q80 -105 227 -105
q152 0 228 100q80 -100 223 -100q149 0 233 88.5t84 211.5v77zM1013 1358q0 52 33.5 92.5t91.5 40.5q71 0 96.5 -40.5t25.5 -92.5v-77q0 -53 -31 -93t-93 -40q-63 0 -93 40t-30 93v77zM1468 1358q0 52 33.5 92.5t91.5 40.5q71 0 96.5 -40.5t25.5 -92.5v-77q0 -53 -31 -93
t-93 -40q-63 0 -93 40t-30 93v77zM1919 1358q0 52 34 92.5t91 40.5q72 0 97 -40.5t25 -92.5v-77q0 -53 -30.5 -93t-93.5 -40q-62 0 -92.5 40t-30.5 93v77z" />
</svg>
