<svg xmlns="http://www.w3.org/2000/svg" xmlns:xlink="http://www.w3.org/1999/xlink" width="500" zoomAndPan="magnify" viewBox="0 0 375 374.999991" height="500" preserveAspectRatio="xMidYMid meet" version="1.0"><defs><clipPath id="92d1aadc3c"><path d="M 107 101 L 268 101 L 268 344.742188 L 107 344.742188 Z M 107 101 " clip-rule="nonzero"/></clipPath><clipPath id="25bc2b6dac"><path d="M 120 30.492188 L 208 30.492188 L 208 118 L 120 118 Z M 120 30.492188 " clip-rule="nonzero"/></clipPath><clipPath id="7d5cd93a1b"><path d="M 0.00390625 0 L 374.996094 0 L 374.996094 374.898438 L 0.00390625 374.898438 Z M 0.00390625 0 " clip-rule="nonzero"/></clipPath></defs><rect x="-37.5" width="450" fill="#ffffff" y="-37.499999" height="449.999989" fill-opacity="1"/><rect x="-37.5" width="450" fill="#247f51" y="-37.499999" height="449.999989" fill-opacity="1"/><g clip-path="url(#92d1aadc3c)"><path fill="#ffffff" d="M 253.042969 334.101562 C 249.84375 322.558594 262.519531 317.402344 265.566406 307.675781 C 268.691406 293.578125 266.898438 278.871094 267.472656 264.519531 C 267.160156 242.976562 268.222656 221.355469 266.558594 199.867188 C 264.558594 188.671875 247.582031 188.929688 243.421875 198.523438 C 239.316406 202.839844 242 187.320312 237.949219 184.730469 C 232.214844 176.660156 219.617188 175.339844 214.050781 184.339844 C 210.660156 189 210.015625 187.035156 210.554688 182.210938 C 210.882812 170.238281 195.734375 160.820312 185.667969 168.375 C 181.375 171.09375 176.304688 181.804688 176.484375 170.257812 C 175.222656 150.066406 177.761719 129.574219 174.140625 109.582031 C 171.207031 98.464844 153.441406 99.828125 147.789062 107.769531 C 145.167969 117.398438 146.550781 127.863281 145.941406 137.851562 C 145.515625 176.253906 145.746094 214.660156 145.6875 253.0625 C 142.109375 253.078125 137.421875 254.207031 139.066406 248.992188 C 138.640625 232.472656 140.285156 215.738281 137.429688 199.402344 C 134.757812 188.976562 123.308594 184.089844 113.4375 187.214844 C 103.550781 193.476562 109.03125 207.921875 107.371094 217.777344 C 107.324219 234.933594 107.324219 252.089844 107.296875 269.246094 C 118.582031 290.960938 131.457031 311.980469 140.332031 334.84375 C 142.632812 337.972656 139.46875 346.3125 145.550781 344.484375 C 181.488281 344.261719 217.421875 344.039062 253.359375 343.816406 C 253.253906 340.578125 253.148438 337.339844 253.042969 334.101562 Z M 253.042969 334.101562 " fill-opacity="1" fill-rule="nonzero"/></g><g clip-path="url(#25bc2b6dac)"><path fill="#ffffff" d="M 142.710938 116.277344 C 144.453125 114.886719 144.917969 108.992188 143.558594 105.457031 C 143.046875 104.109375 141.136719 103.359375 138.238281 103.359375 L 133.722656 103.359375 L 134.078125 73.882812 L 134.4375 44.40625 L 163.890625 44.046875 L 193.347656 43.691406 L 193.347656 103.359375 L 180.109375 103.359375 L 180.109375 109.957031 C 180.109375 117.882812 180.894531 118.246094 196.660156 117.660156 L 207.246094 117.269531 L 207.59375 73.882812 L 207.945312 30.492188 L 120.609375 30.492188 L 120.242188 72.894531 C 120.042969 96.214844 120.085938 115.917969 120.339844 116.679688 C 120.929688 118.441406 140.4375 118.089844 142.710938 116.277344 Z M 142.710938 116.277344 " fill-opacity="1" fill-rule="nonzero"/></g><path fill="#ffffff" d="M 171.050781 97.839844 C 174.105469 96.925781 178.285156 94.035156 181.3125 90.746094 C 192.808594 78.265625 188.617188 58.683594 172.917969 51.546875 C 152.011719 42.046875 129.808594 62.433594 138.46875 83.179688 C 143.886719 96.15625 156.996094 102.054688 171.050781 97.839844 Z M 171.050781 97.839844 " fill-opacity="1" fill-rule="nonzero"/><g clip-path="url(#7d5cd93a1b)"><path stroke-linecap="butt" transform="matrix(0.75, 0, 0, 0.75, 0.00338608, -0.850547)" fill="none" stroke-linejoin="miter" d="M 0.000693561 -0.00135425 L 499.99031 -0.00135425 L 499.99031 501.123679 L 0.000693561 501.123679 Z M 0.000693561 -0.00135425 " stroke="#ffffff" stroke-width="38" stroke-opacity="1" stroke-miterlimit="4"/></g></svg>