<?xml version="1.0" encoding="UTF-8" standalone="no"?>
<!-- Created with Inkscape (http://www.inkscape.org/) -->

<svg
   xmlns:dc="http://purl.org/dc/elements/1.1/"
   xmlns:cc="http://creativecommons.org/ns#"
   xmlns:rdf="http://www.w3.org/1999/02/22-rdf-syntax-ns#"
   xmlns:svg="http://www.w3.org/2000/svg"
   xmlns="http://www.w3.org/2000/svg"
   version="1.0"
   width="1485"
   height="1440"
   id="svg2579">
  <defs
     id="defs2581" />
  <metadata
     id="metadata2584">
    <rdf:RDF>
      <cc:Work
         rdf:about="">
        <dc:format>image/svg+xml</dc:format>
        <dc:type
           rdf:resource="http://purl.org/dc/dcmitype/StillImage" />
        <dc:title></dc:title>
      </cc:Work>
    </rdf:RDF>
  </metadata>
  <g
     transform="translate(-2151.7971,230.25438)"
     id="g3783">
    <path
       d="m 2455.5471,-227.5323 -303.75,268.375 c 95.6914,54.05644 160.3125,156.69413 160.3125,274.4375 0,58.02717 -15.7507,112.34872 -43.125,159.03125 -6.0012,10.23411 -12.6372,20.04592 -19.7188,29.5 -2.8607,4.75862 -5.6558,9.57835 -8.3125,14.46875 -2.9441,5.41977 -5.7516,10.89476 -8.4375,16.46875 -2.6858,5.57399 -5.2368,11.24854 -7.6562,16.96875 -2.4194,5.72021 -4.6987,11.48534 -6.8438,17.34375 -2.145,5.85841 -4.1686,11.79264 -6.0312,17.78125 -1.8627,5.98861 -3.584,12.04546 -5.1563,18.15625 -1.5722,6.11079 -2.9761,12.27504 -4.25,18.5 -1.2738,6.22496 -2.4076,12.51263 -3.375,18.84375 -0.9673,6.33112 -1.7845,12.72698 -2.4375,19.15625 -0.6529,6.42927 -1.1382,12.88685 -1.4687,19.40625 -0.3305,6.5194 -0.5,13.08597 -0.5,19.6875 0,6.60153 0.1695,13.1681 0.5,19.6875 0.3305,6.5194 0.8158,12.97698 1.4687,19.40625 0.653,6.42927 1.4702,12.82513 2.4375,19.15625 0.9674,6.33112 2.1012,12.61859 3.375,18.8438 1.2739,6.2249 2.6778,12.389 4.25,18.5 1.5723,6.1107 3.2936,12.1676 5.1563,18.1562 1.8626,5.9886 3.8862,11.9232 6.0312,17.7812 2.1451,5.8587 4.4244,11.6236 6.8438,17.3438 2.4194,5.7202 4.9704,11.3945 7.6562,16.9688 2.6859,5.5735 5.4934,11.0489 8.4375,16.4687 2.9442,5.4198 6.0242,10.7733 9.2188,16.0313 3.1946,5.2572 6.5006,10.4439 9.9375,15.5312 3.4369,5.0873 7.0163,10.0593 10.6875,14.9688 3.6712,4.9086 7.4462,9.7459 11.3437,14.4687 3.8976,4.7228 7.9154,9.3465 12.0313,13.875 4.1159,4.5285 8.3301,8.9547 12.6562,13.2813 4.3262,4.3259 8.7528,8.5403 13.2813,12.6562 4.5285,4.1159 9.1522,8.1341 13.875,12.0312 4.7227,3.8978 9.5597,7.6726 14.4687,11.3438 4.9091,3.6712 9.8815,7.2506 14.9688,10.6875 5.0873,3.4369 10.2737,6.7429 15.5312,9.9375 5.2576,3.1946 10.6115,6.2742 16.0313,9.2188 5.4198,2.9438 10.8948,5.7519 16.4687,8.4374 5.574,2.6861 11.2486,5.2369 16.9688,7.6563 5.7202,2.4194 11.4853,4.6988 17.3437,6.8437 2.7997,1.0254 5.6701,1.9143 8.5,2.875 6.9951,1.9608 14.0061,3.8715 21.0625,5.6876 7.998,2.0571 16.0198,4.0424 24.0938,5.9062 6.8303,1.5767 13.7083,3.0358 20.5937,4.4688 1.2538,0.2606 2.4951,0.556 3.75,0.8124 8.1474,1.6676 16.3131,3.2508 24.5313,4.7188 8.2182,1.468 16.4949,2.8271 24.7812,4.0938 8.2864,1.2655 16.5857,2.4377 24.9375,3.5 8.3519,1.0612 16.7415,2.0199 25.1563,2.875 8.4148,0.8541 16.8687,1.6046 25.3437,2.25 8.1324,0.6183 16.2833,1.1079 24.4688,1.5312 0.6494,0 1.287,-0.062 1.9375,-0.062 7.3954,0 14.6924,0.3998 21.9375,1 81.2888,6.7337 152.4395,50.3435 197.4375,112.9375 44.998,-62.594 116.1487,-106.2038 197.4375,-112.9375 7.2451,-0.6002 14.5421,-1 21.9375,-1 0.6505,0 1.2881,0.062 1.9375,0.062 8.1855,-0.4233 16.3363,-0.9129 24.4687,-1.5312 8.475,-0.6453 16.929,-1.3959 25.3438,-2.25 8.4148,-0.8551 16.8043,-1.8138 25.1562,-2.875 8.3518,-1.0623 16.6511,-2.2345 24.9376,-3.5 8.2862,-1.2667 16.563,-2.6258 24.7812,-4.0938 8.2182,-1.468 16.384,-3.0512 24.5312,-4.7188 1.2549,-0.2563 2.4963,-0.5519 3.75,-0.8124 6.8856,-1.4329 13.7635,-2.8922 20.5938,-4.4688 8.074,-1.8639 16.0956,-3.8491 24.0938,-5.9062 7.0562,-1.8161 14.0674,-3.7268 21.0624,-5.6876 2.83,-0.9608 5.7003,-1.8496 8.5,-2.875 5.8586,-2.1449 11.6236,-4.4243 17.3438,-6.8437 5.7202,-2.4194 11.3946,-4.9701 16.9688,-7.6563 5.5737,-2.6856 11.0489,-5.4937 16.4687,-8.4374 5.4198,-2.9445 10.7736,-6.0243 16.0313,-9.2188 5.2573,-3.1947 10.4439,-6.5007 15.5312,-9.9375 5.0873,-3.437 10.0596,-7.0164 14.9688,-10.6875 4.909,-3.6713 9.746,-7.4459 14.4687,-11.3438 4.7228,-3.8973 9.3465,-7.9154 13.875,-12.0312 4.5285,-4.116 8.9551,-8.3304 13.2813,-12.6562 4.326,-4.3265 8.5403,-8.7529 12.6562,-13.2813 4.1159,-4.5286 8.1338,-9.1523 12.0312,-13.875 3.8977,-4.7228 7.6726,-9.5601 11.3438,-14.4687 3.6712,-4.9095 7.2506,-9.8816 10.6875,-14.9688 3.4369,-5.0874 6.7429,-10.274 9.9375,-15.5312 3.1946,-5.258 6.2745,-10.6116 9.2188,-16.0313 2.944,-5.4199 5.7516,-10.8951 8.4374,-16.4687 2.6858,-5.5743 5.2369,-11.2487 7.6563,-16.9688 2.4194,-5.7203 4.6987,-11.485 6.8437,-17.3438 2.145,-5.8581 4.1687,-11.7927 6.0313,-17.7812 1.8627,-5.9887 3.584,-12.0455 5.1563,-18.1562 1.5722,-6.111 2.9759,-12.2751 4.25,-18.5 1.2736,-6.2252 2.4076,-12.5127 3.375,-18.8438 0.9672,-6.3312 1.7845,-12.72695 2.4374,-19.15625 0.6531,-6.4293 1.1383,-12.88695 1.4688,-19.40625 0.3305,-6.5195 0.5,-13.086 0.5,-19.6875 0,-6.6016 -0.1695,-13.1682 -0.5,-19.6875 -0.3305,-6.5195 -0.8157,-12.97695 -1.4688,-19.40625 -0.6529,-6.4293 -1.4702,-12.82515 -2.4374,-19.15625 -0.9674,-6.3312 -2.1014,-12.61875 -3.375,-18.84375 -1.274,-6.225 -2.6779,-12.3892 -4.25,-18.5 -1.5725,-6.1108 -3.2936,-12.16765 -5.1563,-18.15625 -1.8626,-5.9887 -3.8862,-11.92285 -6.0313,-17.78125 -2.145,-5.8584 -4.4243,-11.62355 -6.8437,-17.34375 -2.4194,-5.7203 -4.9703,-11.39475 -7.6563,-16.96875 -2.6857,-5.574 -5.4933,-11.04905 -8.4374,-16.46875 -2.6568,-4.8905 -5.4518,-9.71015 -8.3126,-14.46875 -7.0815,-9.4541 -13.7175,-19.2659 -19.7187,-29.5 -27.3743,-46.6825 -43.125,-101.00415 -43.125,-159.03125 0,-117.7434 64.6211,-220.3811 160.3125,-274.4375 l -303.75,-268.375 c -56.769,55.3773 -133.8049,90 -219.375,90 -85.284,0 -162.6571,-34.9502 -219.375,-90 -56.7179,55.04979 -134.091,90 -219.375,90 -85.5701,0 -162.606,-34.62275 -219.375,-90 z m 438.75,140.625 c 9.315,0 16.875,7.56 16.875,16.875 0,9.315 -7.56,16.875 -16.875,16.875 -9.315,0 -16.875,-7.56 -16.875,-16.875 0,-9.315 7.56,-16.875 16.875,-16.875 z m 0,1080 c 9.315,0 16.875,7.56 16.875,16.875 0,9.315 -7.56,16.875 -16.875,16.875 -9.315,0 -16.875,-7.56 -16.875,-16.875 0,-9.315 7.56,-16.875 16.875,-16.875 z"
       id="path2939"
       style="fill:#ffffff;fill-opacity:1;stroke:#000000;stroke-width:0.89999998;stroke-miterlimit:4;stroke-opacity:1;stroke-dasharray:none" />
    <path
       d="m 2991.0005,295.29395 c -4.0297,1.9e-4 -7.784,0.78255 -11.2503,2.3125 -3.4662,1.53033 -6.5282,3.61961 -9.1877,6.28125 -2.6593,2.66194 -4.7487,5.72142 -6.2813,9.1875 -1.5326,3.46639 -2.3125,7.22061 -2.3125,11.25 l 0,42.8125 c 0,4.02968 0.7799,7.75264 2.3125,11.21875 1.5326,3.46632 3.622,6.55707 6.2813,9.21875 2.6595,2.66187 5.7215,4.7512 9.1877,6.28125 3.4663,1.53024 7.2207,2.2813 11.2503,2.28125 l 85.5331,0 0,47.90625 -83.1268,0 0,-26.375 -31.4381,0 0,28.78125 c 0,3.86724 0.7799,7.5776 2.3125,11.125 1.5326,3.54742 3.622,6.65321 6.2813,9.3125 2.6595,2.65934 5.7215,4.74867 9.1877,6.28125 3.4663,1.53262 7.2207,2.3125 11.2503,2.3125 l 87.9394,0 c 4.0295,0 7.7838,-0.77985 11.2502,-2.3125 3.4662,-1.53261 6.5257,-3.6219 9.1877,-6.28125 2.6618,-2.6593 4.7511,-5.72128 6.2814,-9.1875 1.5301,-3.4662 2.3125,-7.2204 2.3126,-11.25 l 0,-52.71875 c -10e-5,-3.86713 -0.7825,-7.57751 -2.3126,-11.125 -1.5303,-3.54732 -3.6196,-6.60922 -6.2814,-9.1875 -2.662,-2.57803 -5.7214,-4.62349 -9.1877,-6.15625 -3.4664,-1.5325 -7.2207,-2.31239 -11.2502,-2.3125 l -85.5331,0 0,-38.4375 83.1268,0 0,23.9375 31.4382,0 0,-26.125 c -10e-5,-4.02942 -0.7825,-7.78363 -2.3126,-11.25 -1.5303,-3.46606 -3.6196,-6.52558 -6.2814,-9.1875 -2.662,-2.66162 -5.7214,-4.75089 -9.1877,-6.28125 -3.4664,-1.52998 -7.2207,-2.31229 -11.2502,-2.3125 l -87.9394,0 z m -310.2879,0.1875 0,151.125 c 0,3.86724 0.78,7.57758 2.3126,11.125 1.5326,3.54742 3.622,6.65319 6.2813,9.3125 2.6595,2.65934 5.7214,4.74865 9.1877,6.28125 3.4663,1.53262 7.2207,2.31248 11.2503,2.3125 l 87.9393,0 c 4.0296,0 7.7838,-0.77987 11.2503,-2.3125 3.4662,-1.53261 6.5259,-3.62192 9.1877,-6.28125 2.6617,-2.6593 4.7511,-5.72123 6.2814,-9.1875 1.5301,-3.4662 2.2811,-7.22042 2.2813,-11.25 l 0,-151.125 -31.4382,0 0,148.71875 -83.0955,0 0,-148.71875 -31.4382,0 z"
       id="path21938"
       style="fill:#000000;fill-opacity:1;fill-rule:evenodd;stroke:#000000;stroke-width:0;stroke-linecap:butt;stroke-linejoin:miter;stroke-miterlimit:4;stroke-opacity:1;stroke-dasharray:none" />
    <path
       d="m 2894.2971,-182.4698 c -59.8057,48.62767 -136.1966,78.6875 -219.375,78.6875 -83.342,0 -159.6478,-29.82239 -219.4688,-78.65625 L 2207.1408,36.9677 c 84.2446,63.70688 138.7188,164.81623 138.7188,278.3125 0,64.13449 -17.4856,124.42918 -47.7813,176.09375 -6.3013,10.74605 -13.1816,20.89582 -20.375,30.625 -2.4926,4.16527 -4.8855,8.31122 -7.0937,12.375 l 0,0.0312 c -2.6843,4.94247 -5.2775,9.93401 -7.7188,15 -2.4252,5.03316 -4.7454,10.21229 -6.9687,15.46875 -2.2126,5.2313 -4.2698,10.45823 -6.2188,15.78125 -1.9714,5.38405 -3.8184,10.81213 -5.5,16.21875 -1.6972,5.45664 -3.2866,10.9652 -4.7187,16.53125 -1.4155,5.50191 -2.6689,11.10285 -3.8438,16.84375 -1.1675,5.70552 -2.2171,11.45041 -3.0937,17.1875 -0.8834,5.78187 -1.6244,11.61703 -2.2188,17.46875 -0.5933,5.84178 -1.0407,11.74232 -1.3437,17.71875 -0.302,5.95766 -0.4375,11.94493 -0.4375,17.96875 0,6.02382 0.1355,12.01109 0.4375,17.96875 0.303,5.97643 0.7504,11.87697 1.3437,17.71875 0.5944,5.85172 1.3354,11.68688 2.2188,17.46875 0.8766,5.73701 1.9262,11.45027 3.0937,17.15625 1.1749,5.7408 2.4282,11.3726 3.8438,16.875 1.4322,5.5661 3.0215,11.0745 4.7187,16.5313 1.6816,5.4067 3.5289,10.8356 5.5,16.2187 1.9488,5.3227 4.0061,10.5495 6.2188,15.7813 2.2231,5.2559 4.5431,10.4344 6.9687,15.4687 2.4456,5.0749 5.0298,10.0499 7.7188,15 2.6814,4.936 5.4608,9.8285 8.375,14.625 2.9442,4.8452 5.9623,9.567 9.0625,14.1563 l 0.125,0.1874 c 3.0265,4.4723 6.2439,8.9474 9.625,13.4688 3.3943,4.5385 6.8376,8.9699 10.3437,13.2188 3.5054,4.2473 7.1598,8.4377 10.9063,12.5624 l 0.125,0.094 c 3.7661,4.1435 7.5943,8.1562 11.5312,12.0938 3.9365,3.9359 7.9813,7.7965 12.125,11.5624 l 0.3125,0.2813 c 4.056,3.6782 8.1714,7.2445 12.3438,10.6875 4.2476,3.5058 8.6492,6.9495 13.1875,10.3438 4.5816,3.426 9.1229,6.6871 13.6562,9.75 4.5894,3.1005 9.3117,6.119 14.1563,9.0624 4.7943,2.91335 9.6868,5.72355 14.625,8.40635 4.9527,2.6902 9.9279,5.2437 15,7.6875 5.0316,2.4247 10.2117,4.7449 15.4687,6.9688 5.2316,2.2126 10.4905,4.3013 15.8125,6.25 1.5169,0.5553 4.0002,1.3274 6.8438,2.2812 6.552,1.8322 13.0622,3.6166 19.5312,5.2812 7.7985,2.0063 15.52,3.9344 23.25,5.7188 6.429,1.484 13.0856,2.8996 19.875,4.3125 l 0.031,0 c 1.8573,0.3866 3.0792,0.6696 3.625,0.7813 7.9186,1.6204 15.7946,3.1527 23.6875,4.5624 7.9065,1.4125 15.9287,2.7084 23.9688,3.9376 8.0362,1.227 16.0488,2.383 24.0937,3.4062 8.0698,1.0253 16.1772,1.9547 24.3125,2.7812 l 0,-0.031 c 8.1215,0.8243 16.2856,1.5642 24.4688,2.1875 7.4675,0.5675 15.0456,1.0041 22.7187,1.4063 0.1736,-0.017 -0.4977,-0.031 1.125,-0.031 8.6118,0 16.8445,0.4727 24.7188,1.125 76.5022,6.3372 144.7808,41.6178 194.6562,93.9687 49.8755,-52.3509 118.154,-87.6315 194.6563,-93.9687 7.8743,-0.6523 16.1069,-1.125 24.7187,-1.125 1.6228,0 0.9515,0.014 1.125,0.031 7.6731,-0.4022 15.2513,-0.8388 22.7188,-1.4063 8.1832,-0.6233 16.3471,-1.3632 24.4687,-2.1875 l 0,0.031 c 8.1354,-0.8265 16.2426,-1.7559 24.3125,-2.7812 8.045,-1.0232 16.0575,-2.1791 24.0938,-3.4062 8.0399,-1.2292 16.0623,-2.5252 23.9687,-3.9376 7.893,-1.4098 15.7689,-2.942 23.6875,-4.5624 0.5459,-0.1117 1.7677,-0.3947 3.625,-0.7813 l 0.031,0 c 6.7896,-1.4129 13.446,-2.8285 19.875,-4.3125 7.7301,-1.7844 15.4516,-3.7125 23.25,-5.7188 6.4691,-1.6646 12.9792,-3.449 19.5313,-5.2812 2.8435,-0.9538 5.3268,-1.7259 6.8437,-2.2812 5.3221,-1.9486 10.5809,-4.0373 15.8126,-6.25 5.257,-2.2238 10.4371,-4.5441 15.4687,-6.9688 5.072,-2.4438 10.0473,-4.9973 15,-7.6875 4.9382,-2.6828 9.8307,-5.4931 14.625,-8.40635 4.8446,-2.9434 9.5669,-5.9619 14.1563,-9.0624 4.5333,-3.0629 9.0746,-6.324 13.6562,-9.75 4.5383,-3.3943 8.9398,-6.838 13.1875,-10.3438 4.1724,-3.443 8.2877,-7.0093 12.3437,-10.6875 l 0.3126,-0.2813 c 4.1437,-3.766 8.1885,-7.6265 12.125,-11.5624 3.9369,-3.9376 7.7651,-7.9503 11.5312,-12.0938 l 0.125,-0.094 c 3.7464,-4.1248 7.4008,-8.3151 10.9062,-12.5624 3.5062,-4.2489 6.9495,-8.6803 10.3438,-13.2188 3.3811,-4.5214 6.5985,-8.9965 9.625,-13.4688 l 0.125,-0.1874 c 3.1001,-4.5893 6.1183,-9.3112 9.0625,-14.1563 2.9142,-4.7965 5.6936,-9.6891 8.375,-14.625 2.6889,-4.9502 5.2731,-9.9251 7.7187,-15 2.4257,-5.0343 4.7456,-10.2127 6.9688,-15.4687 2.2127,-5.2318 4.2699,-10.4587 6.2188,-15.7813 1.9711,-5.3832 3.8184,-10.812 5.5,-16.2187 1.6972,-5.4567 3.2864,-10.9652 4.7187,-16.5313 1.4155,-5.5024 2.6689,-11.1341 3.8437,-16.875 1.1676,-5.70598 2.2172,-11.41924 3.0938,-17.15625 0.8833,-5.78187 1.6244,-11.61703 2.2188,-17.46875 0.5932,-5.84178 1.0407,-11.74232 1.3437,-17.71875 0.302,-5.95766 0.4375,-11.94493 0.4375,-17.96875 0,-6.02382 -0.1355,-12.01109 -0.4375,-17.96875 -0.303,-5.97643 -0.7505,-11.87697 -1.3437,-17.71875 -0.5944,-5.85172 -1.3354,-11.68688 -2.2188,-17.46875 -0.8766,-5.73709 -1.9262,-11.48198 -3.0938,-17.1875 -1.1748,-5.7409 -2.4282,-11.34184 -3.8437,-16.84375 -1.4321,-5.56605 -3.0215,-11.07461 -4.7187,-16.53125 -1.6816,-5.40662 -3.5287,-10.8347 -5.5,-16.21875 -1.9491,-5.32302 -4.0063,-10.54995 -6.2188,-15.78125 -2.2233,-5.25646 -4.5435,-10.43559 -6.9688,-15.46875 -2.4412,-5.06599 -5.0344,-10.05753 -7.7187,-15 l 0,-0.0312 c -2.2082,-4.06378 -4.6011,-8.20973 -7.0937,-12.375 -7.1935,-9.72918 -14.0737,-19.87895 -20.375,-30.625 -30.2958,-51.66457 -47.7813,-111.95926 -47.7813,-176.09375 0,-113.49627 54.4742,-214.60562 138.7187,-278.3125 l -248.3121,-219.40625 c -59.821,48.83391 -136.1268,78.65625 -219.4688,78.65625 -83.1784,0 -159.5693,-30.05983 -219.375,-78.6875 z m 0,42.25 c 61.9203,43.67889 137.6476,70.1875 219.3437,70.1875 80.9923,0 156.1157,-25.80101 217.7501,-68.875 l 198.5,175.34375 c -74.383,69.84894 -120.9376,169.18155 -120.9376,278.84375 0,70.26888 19.2124,136.49606 52.4376,193.15625 6.6127,11.27718 13.705,21.75911 20.9687,31.6875 1.92,3.22495 3.7275,6.34639 5.375,9.34375 l 0.5625,1.03125 c 2.4867,4.57871 4.8525,9.10622 7,13.5625 2.149,4.4601 4.2413,9.14571 6.2812,13.96875 1.9945,4.71534 3.8285,9.39757 5.5938,14.21875 1.7932,4.8978 3.466,9.82474 4.9688,14.65625 1.5588,5.01166 3.0116,9.97208 4.2812,14.90625 1.2361,4.80513 2.3435,9.84146 3.4375,15.1875 1.0721,5.23845 2.0353,10.44504 2.8125,15.53125 0.7968,5.21597 1.4626,10.49097 2,15.78125 0.5348,5.26579 0.9439,10.6108 1.2188,16.03125 0.2699,5.32562 0.375,10.7323 0.375,16.25 0,5.5177 -0.1051,10.92438 -0.375,16.25 -0.2747,5.42045 -0.684,10.76546 -1.2188,16.03125 -0.5374,5.29028 -1.2032,10.56528 -2,15.78125 -0.7743,5.06786 -1.7354,10.20546 -2.8125,15.46875 -1.0989,5.36966 -2.2089,10.47415 -3.4375,15.24995 -1.2699,4.935 -2.7225,9.8951 -4.2812,14.9063 -1.5026,4.8312 -3.1757,9.7593 -4.9688,14.6563 -1.765,4.8203 -3.5993,9.5031 -5.5938,14.2187 -2.0394,4.822 -4.1311,9.5064 -6.2812,13.9687 -2.1538,4.4696 -4.5091,8.9457 -7,13.5313 -2.4771,4.5598 -4.9917,8.9878 -7.5625,13.2187 l 0.031,0 c -2.6823,4.4144 -5.4116,8.6722 -8.1876,12.7813 l -0.062,0.094 -0.063,0.094 -0.125,0.1875 c -2.6286,3.8769 -5.4756,7.8409 -8.5624,11.9687 -3.1488,4.2103 -6.2976,8.2394 -9.375,11.9688 l 0.031,0 c -2.8183,3.4149 -5.843,6.8479 -8.9375,10.2812 l -1.0625,1.1563 c -3.4046,3.7458 -6.8418,7.3414 -10.4062,10.9063 -3.5224,3.5219 -7.1502,6.9829 -10.8438,10.3437 -0.044,0.04 -0.082,0.085 -0.125,0.125 l -0.1875,0.1563 -0.062,0.062 -0.031,0.031 c -3.6823,3.3392 -7.4054,6.561 -11.1563,9.6563 -3.7882,3.1266 -7.7551,6.2391 -11.9063,9.3437 -4.2418,3.1719 -8.3558,6.1182 -12.3437,8.8125 -4.1097,2.7764 -8.3686,5.5064 -12.7813,8.1875 -4.3184,2.6239 -8.751,5.1666 -13.2187,7.5937 -4.4934,2.4408 -8.9657,4.7376 -13.5313,6.9376 -4.4569,2.1476 -9.1444,4.2407 -13.9687,6.2812 -4.7758,2.02 -9.5309,3.9171 -14.2813,5.6562 0.1504,-0.055 -2.454,0.8069 -5.0937,1.6876 -6.1614,1.7198 -12.2227,3.3641 -18.0937,4.875 -7.647,1.9667 -15.069,3.8373 -22.4063,5.5312 -4.9766,1.1486 -10.3745,2.2949 -15.8125,3.4375 l -2.1875,0.4687 c -0.4118,0.086 -0.7738,0.164 -1.1875,0.25 l -0.031,0 c -2.1854,0.455 -4.2562,0.9046 -3.5,0.75 -7.7045,1.577 -15.2907,3.0571 -22.8438,4.4063 -7.5348,1.346 -15.3043,2.5807 -23.1562,3.7813 -7.8525,1.1991 -15.5779,2.3368 -23.25,3.3124 -6.9446,0.8824 -13.9187,1.6453 -20.9063,2.375 l -2.5625,0.25 c -7.8692,0.799 -15.7428,1.5269 -23.5938,2.125 -0.01,0 -0.021,-7e-4 -0.031,0 -6.3794,0.4849 -13.0488,0.8552 -19.8437,1.2188 -1.3695,-0.079 -0.8105,0.062 -1.4375,0.062 -9.8469,0 -19.0338,0.5487 -27.5,1.25 -73.2021,6.0639 -139.5393,35.9861 -191.8438,81.125 -52.3044,-45.1389 -118.6416,-75.0611 -191.8437,-81.125 -8.4662,-0.7013 -17.6532,-1.25 -27.5,-1.25 -0.6271,0 -0.068,-0.1408 -1.4375,-0.062 -6.7949,-0.3636 -13.4644,-0.7339 -19.8438,-1.2188 -0.01,-6e-4 -0.021,0 -0.031,0 -7.851,-0.5981 -15.7245,-1.326 -23.5937,-2.125 l -2.5625,-0.25 c -6.9876,-0.7296 -13.9617,-1.4925 -20.9063,-2.375 -7.6721,-0.9756 -15.3975,-2.1134 -23.25,-3.3124 -7.8519,-1.2006 -15.6214,-2.4353 -23.1562,-3.7813 -7.5531,-1.3492 -15.1393,-2.8293 -22.8438,-4.4063 0.7562,0.1547 -1.3146,-0.2949 -3.5,-0.75 l -0.031,0 c -0.4138,-0.086 -0.7758,-0.1639 -1.1875,-0.25 l -2.1875,-0.4687 c -5.438,-1.1426 -10.836,-2.2889 -15.8125,-3.4375 -7.3373,-1.6939 -14.7592,-3.5645 -22.4062,-5.5312 -5.8711,-1.5109 -11.9323,-3.1553 -18.0938,-4.875 -2.6398,-0.8808 -5.2441,-1.7424 -5.0937,-1.6876 -4.7503,-1.7391 -9.5055,-3.6362 -14.2813,-5.6562 -4.8243,-2.0405 -9.5117,-4.1336 -13.9687,-6.2812 -4.5655,-2.2001 -9.038,-4.4967 -13.5313,-6.9376 -4.4677,-2.427 -8.9003,-4.9698 -13.2187,-7.5937 -4.4126,-2.6811 -8.6715,-5.4111 -12.7813,-8.1875 -3.988,-2.6943 -8.102,-5.6406 -12.3437,-8.8125 -4.1512,-3.1046 -8.118,-6.2172 -11.9063,-9.3437 -3.7509,-3.0954 -7.474,-6.3171 -11.1562,-9.6563 l -0.031,-0.031 -0.062,-0.062 -0.1875,-0.1563 c -0.043,-0.04 -0.081,-0.085 -0.125,-0.125 -3.6936,-3.3608 -7.3215,-6.8219 -10.8438,-10.3437 -3.5644,-3.565 -7.0015,-7.1605 -10.4062,-10.9063 l -1.0625,-1.1563 c -3.0944,-3.4332 -6.1192,-6.8663 -8.9375,-10.2812 l 0.031,0 c -3.0775,-3.7294 -6.2262,-7.7584 -9.375,-11.9688 -3.0869,-4.1277 -5.9339,-8.0918 -8.5625,-11.9687 l -0.125,-0.1875 -0.062,-0.094 -0.062,-0.094 c -2.776,-4.1091 -5.5052,-8.3668 -8.1875,-12.7813 l 0.031,0 c -2.5707,-4.2308 -5.0854,-8.6589 -7.5625,-13.2187 -2.4909,-4.5856 -4.8461,-9.0616 -7,-13.5313 -2.15,-4.4622 -4.2419,-9.1467 -6.2813,-13.9687 -1.9945,-4.7156 -3.8287,-9.3985 -5.5937,-14.2187 -1.793,-4.8971 -3.4662,-9.8251 -4.9688,-14.6563 -1.5587,-5.0112 -3.0113,-9.9713 -4.2812,-14.9063 -1.2286,-4.7758 -2.3386,-9.88029 -3.4375,-15.24995 -1.077,-5.26329 -2.0381,-10.40089 -2.8125,-15.46875 -0.7969,-5.21597 -1.4626,-10.49097 -2,-15.78125 -0.5348,-5.26579 -0.944,-10.6108 -1.2188,-16.03125 -0.27,-5.32562 -0.375,-10.7323 -0.375,-16.25 0,-5.5177 0.105,-10.92438 0.375,-16.25 0.2748,-5.42045 0.684,-10.76546 1.2188,-16.03125 0.5374,-5.29028 1.2031,-10.56528 2,-15.78125 0.7772,-5.08621 1.7405,-10.2928 2.8125,-15.53125 1.094,-5.34604 2.2013,-10.38237 3.4375,-15.1875 1.2696,-4.93417 2.7224,-9.89459 4.2812,-14.90625 1.5027,-4.83151 3.1755,-9.75845 4.9688,-14.65625 1.7653,-4.82118 3.5993,-9.50341 5.5937,-14.21875 2.04,-4.82304 4.1323,-9.50865 6.2813,-13.96875 2.1475,-4.45628 4.5133,-8.98379 7,-13.5625 l 0.562,-1.03125 c 1.6476,-2.99736 3.4549,-6.1188 5.375,-9.34375 7.2637,-9.92839 14.356,-20.41032 20.9687,-31.6875 33.2252,-56.66019 52.4375,-122.88737 52.4375,-193.15625 0,-109.6622 -46.5546,-208.99481 -120.9375,-278.84375 l 198.5,-175.34375 c 61.6344,43.07399 136.7577,68.875 217.75,68.875 81.6961,0 157.4235,-26.50861 219.3438,-70.1875 z m -209.0625,1173.2813 c 0.185,0.066 0.1852,0.042 0.4062,0.125 0.3528,0.1322 0.9527,0.4204 1.4375,0.625 -0.738,-0.3237 -1.3799,-0.5808 -1.8437,-0.75 z m 418.125,0 c -0.4638,0.1693 -1.1057,0.4264 -1.8438,0.75 0.4849,-0.2046 1.0847,-0.4928 1.4375,-0.625 0.221,-0.083 0.2213,-0.059 0.4063,-0.125 z m -441.0625,0.062 c -1.7715,0.7067 -5.7442,2.7774 -6.3438,3.0938 0,0 0.125,-0.1251 0.125,-0.125 -5e-4,2e-4 4.2713,-2.2825 5.6563,-2.8125 0.2957,-0.1131 0.2972,-0.061 0.5625,-0.1563 z m 464,0 c 0.2653,0.096 0.2668,0.043 0.5625,0.1563 1.385,0.53 5.6567,2.8127 5.6562,2.8125 0,-10e-5 0.125,0.125 0.125,0.125 -0.5996,-0.3164 -4.5723,-2.3872 -6.3437,-3.0938 z m -433.625,3.7813 c 0.097,0.06 0.5939,0.3437 0.5937,0.3437 -1e-4,0 4.2189,3.5003 4.2188,3.5 0,0 0.5735,0.7406 0.75,0.9688 -1.3231,-1.1443 -4.8251,-4.1749 -5.5625,-4.8125 z m 403.25,0 c -0.7374,0.6376 -4.2394,3.6682 -5.5625,4.8125 0.1765,-0.2282 0.75,-0.9688 0.75,-0.9688 -2e-4,3e-4 4.2189,-3.5 4.2187,-3.5 -1e-4,0 0.4968,-0.2837 0.5938,-0.3437 z m -448.0313,6.875 c -1.1612,1.7939 -2.0094,3.0923 -3.4062,5.25 0.8153,-1.7123 1.7814,-3.7187 1.7812,-3.7187 0,0 1.1739,-1.1074 1.625,-1.5313 z m 492.8125,0 c 0.4512,0.4239 1.625,1.5313 1.625,1.5313 -1e-4,0 0.9659,2.0063 1.7813,3.7187 -1.3968,-2.1577 -2.2451,-3.4562 -3.4063,-5.25 z m -439.2187,2.1563 c 0.5949,0.7687 1.5,1.9374 1.5,1.9374 0,0 0.1434,0.4917 0.1562,0.5313 -0.4292,-0.6326 -0.821,-1.2383 -1.6562,-2.4687 z m 385.625,0 c -0.8352,1.2306 -1.2271,1.836 -1.6563,2.4687 0.013,-0.04 0.1563,-0.5313 0.1563,-0.5313 0,0 0.9051,-1.1685 1.5,-1.9374 z m -444.8125,7.7191 c -0.1852,1.3137 -0.5377,3.8409 -1.0625,7.5625 l -0.3125,0 c 0.199,-2.6804 0.4062,-5.5315 0.4062,-5.5312 -1e-4,0 0.6642,-1.3915 0.9688,-2.0313 z m 504,0 c 0.3046,0.6398 0.9689,2.0313 0.9687,2.0313 0,-10e-5 0.2073,2.8508 0.4063,5.5312 l -0.3125,0 c -0.5249,-3.7216 -0.8773,-6.2488 -1.0625,-7.5625 z m -439.0313,7.3125 c 0,0.012 0.094,0.2812 0.094,0.2812 0,0 -0.207,1.3516 -0.25,1.6563 0.041,-0.5571 0.1485,-1.8313 0.1563,-1.9375 z m 374.0625,0 c 0.01,0.1062 0.1153,1.3804 0.1563,1.9375 -0.043,-0.3048 -0.25,-1.6563 -0.25,-1.6563 0,0 0.094,-0.2692 0.094,-0.2812 z"
       id="path2939-4"
       style="fill:#000000;fill-opacity:1;stroke:none" />
    <rect
       width="1090.98"
       height="33.75"
       x="2349.7971"
       y="211.2177"
       id="rect3889"
       style="fill:#000000;fill-opacity:1;stroke:none" />
  </g>
  <path
     d="m 250.0615,201.28513 -1.7896,180.67239 29.171,0.28896 1.0181,-102.78878 31.3627,79.89586 32.9391,-79.2589 -1.0181,102.78877 29.1711,0.28895 1.7897,-180.67238 -29.1712,-0.28896 -32.9387,79.22756 -31.3631,-79.86451 -29.171,-0.28896 z"
     id="path3300"
     style="font-size:144px;font-style:normal;font-variant:normal;font-weight:normal;font-stretch:normal;text-align:center;line-height:100%;writing-mode:lr-tb;text-anchor:middle;fill:#000000;fill-opacity:1;stroke:none;font-family:Roadgeek 2005 Series C;-inkscape-font-specification:Roadgeek 2005 Series C" />
  <path
     d="m 1162.9546,202.5 -43.8125,180 29.6249,0 5.8126,-22.5 47.0625,0 5.8125,22.5 29.625,0 -43.8126,-180 -30.3124,0 z m 15.1625,66.34999 16.0249,62.08752 -32.0625,0 16.0376,-62.08752 z"
     id="path3856"
     style="font-size:144px;font-style:normal;font-variant:normal;font-weight:normal;font-stretch:normal;text-align:center;line-height:100%;writing-mode:lr-tb;text-anchor:middle;fill:#000000;fill-opacity:1;stroke:none;font-family:Roadgeek 2005 Series C;-inkscape-font-specification:Roadgeek 2005 Series C" />
  <path
     d="m 677.6307,202.5 0,180 95.6249,0 0,-29.03124 -66.5625,0 0,-52.875 44.0627,0 0,-29.03128 -44.0627,0 0,-40.06247 66.5625,0 0,-29.00001 -95.6249,0 z"
     id="path2997"
     style="font-size:144px;font-style:normal;font-variant:normal;font-weight:normal;font-stretch:normal;text-align:center;line-height:100%;writing-mode:lr-tb;text-anchor:middle;fill:#000000;fill-opacity:1;stroke:none;font-family:Roadgeek 2005 Series C;-inkscape-font-specification:Roadgeek 2005 Series C" />
  <path
     d="m 935.1241,202.5 c -6.8942,0 -12.82,2.4538 -17.7689,7.40112 -4.9487,4.94732 -7.5242,10.86807 -7.526,17.76892 l 0.063,129.62868 c 0,6.89712 2.4233,12.82048 7.3699,17.76892 4.9464,4.94843 10.8751,7.43236 17.7688,7.43236 l 51.4955,0 c 6.8938,0 12.7905,-2.48501 17.7377,-7.43236 4.9475,-4.94736 7.4315,-10.8738 7.4324,-17.76892 l 0.094,-129.56621 c 0,-6.90024 -2.5198,-12.8494 -7.4635,-17.80017 -4.9438,-4.9505 -10.8484,-7.42598 -17.738,-7.43234 l -51.4644,0 z m 9.2435,29.0111 33.0397,0 c 3.5983,0.004 5.3413,1.80525 5.34,5.40249 l -0.031,111.17282 c 0,3.60216 -1.8341,5.40303 -5.4337,5.40247 l -33.0396,0 c -3.6,-7e-5 -5.4042,-1.79985 -5.4025,-5.40247 l 0.094,-111.20403 c 0,-3.59751 1.8339,-5.37158 5.4337,-5.37128 z"
     id="path3408"
     style="font-size:144px;font-style:normal;font-variant:normal;font-weight:normal;font-stretch:normal;text-align:center;line-height:100%;writing-mode:lr-tb;text-anchor:middle;fill:#000000;fill-opacity:1;stroke:none;font-family:Roadgeek 2005 Series C;-inkscape-font-specification:Roadgeek 2005 Series C" />
  <path
     d="m 395.249,202.5 0,180 29.0625,0 0,-180 -29.0625,0 z"
     id="path3026"
     style="font-size:144px;font-style:normal;font-variant:normal;font-weight:normal;font-stretch:normal;text-align:center;line-height:100%;writing-mode:lr-tb;text-anchor:middle;fill:#000000;fill-opacity:1;stroke:none;font-family:Roadgeek 2005 Series C;-inkscape-font-specification:Roadgeek 2005 Series C" />
  <path
     d="m 446.7605,202.5 0,180 29.0624,0 0,-104.71873 35.0001,83.65626 8.8125,21.06247 20.25,0 0,-26.125 0,-153.875 -20.25,0 -8.8125,0 0,83.68753 -35.0312,-83.68753 -29.0313,0 z"
     id="path3414"
     style="font-size:144px;font-style:normal;font-variant:normal;font-weight:normal;font-stretch:normal;text-align:center;line-height:100%;writing-mode:lr-tb;text-anchor:middle;fill:#000000;fill-opacity:1;stroke:none;font-family:Roadgeek 2005 Series C;-inkscape-font-specification:Roadgeek 2005 Series C" />
  <path
     d="m 815.6725,202.5 c -6.8984,-4e-5 -12.8305,2.48672 -17.7812,7.43748 -4.9505,4.95071 -7.4373,10.88268 -7.4375,17.78125 l 0,47.65627 c 0,6.89853 2.4868,12.83051 7.4375,17.78124 4.9507,4.95072 10.8514,7.43749 17.75,7.43749 l 42.3126,0 c 3.6023,7e-5 5.4061,1.8037 5.4062,5.40628 l 0,42.06248 c -10e-5,3.60264 -1.8039,5.40627 -5.4062,5.40623 l -33.0626,0 c -3.6027,4e-5 -5.4063,-1.80359 -5.4063,-5.40623 l 0,-15.96876 -29.0312,0 0,25.18752 c 0,6.89855 2.4868,12.83052 7.4375,17.78123 4.9507,4.95077 10.8514,7.43752 17.75,7.43752 l 51.5312,0 c 6.8984,-4e-5 12.8305,-2.48675 17.7814,-7.43752 4.9503,-4.95071 7.4373,-10.88268 7.4373,-17.78123 l 0,-60.53125 c 0,-7.04952 -2.4374,-12.99973 -7.3124,-17.875 -4.8753,-4.87507 -10.8568,-7.3124 -17.9063,-7.31251 l -42.2812,0 c -3.6027,0 -5.4063,-1.8036 -5.4063,-5.40625 l 0,-29.21875 c 0,-3.60269 1.8038,-5.40625 5.4063,-5.40625 l 33.0626,0 c 3.6025,-4e-5 5.4062,1.8036 5.4062,5.40625 l 0,15.96874 29.0311,0 0,-25.1875 c 0,-6.89857 -2.4866,-12.83054 -7.4373,-17.78125 C 880.003,204.98668 874.1025,202.5 867.2037,202.5 l -51.5312,0 z"
     id="path3426"
     style="font-size:144px;font-style:normal;font-variant:normal;font-weight:normal;font-stretch:normal;text-align:center;line-height:100%;writing-mode:lr-tb;text-anchor:middle;fill:#000000;fill-opacity:1;stroke:none;font-family:Roadgeek 2005 Series C;-inkscape-font-specification:Roadgeek 2005 Series C" />
  <path
     d="m 1024.6383,202.5 0,31.50001 34.875,0 0,148.49999 31.5,0 0,-148.49999 34.875,0 0,-31.50001 -34.875,0 -31.5,0 -34.875,0 z"
     id="path4816-2-7"
     style="font-size:235.50462341px;font-style:normal;font-variant:normal;font-weight:normal;font-stretch:normal;text-align:start;line-height:100%;writing-mode:lr-tb;text-anchor:start;fill:#000000;fill-opacity:1;stroke:none;font-family:Roadgeek 2005 Series C;-inkscape-font-specification:Roadgeek 2005 Series C" />
  <path
     d="m 562.2008,202.5 0,180 29.0624,0 0,-104.71873 35.0001,83.65626 8.8125,21.06247 20.25,0 0,-26.125 0,-153.875 -20.25,0 -8.8125,0 0,83.68753 -35.0312,-83.68753 -29.0313,0 z"
     id="path3414-3"
     style="font-size:144px;font-style:normal;font-variant:normal;font-weight:normal;font-stretch:normal;text-align:center;line-height:100%;writing-mode:lr-tb;text-anchor:middle;fill:#000000;fill-opacity:1;stroke:none;font-family:Roadgeek 2005 Series C;-inkscape-font-specification:Roadgeek 2005 Series C" />
  <path
     d="m 460.7319,748.12572 c -37.26,0 -67.4999,30.24 -67.4999,67.49992 l 0,314.99926 c 0,37.26 30.2399,67.5001 67.4999,67.5001 l 168.7497,0 c 37.2599,0 67.4998,-30.2401 67.4998,-67.5001 l 0,-151.87467 c 0,-35.36389 -27.2461,-64.39431 -61.8748,-67.25802 l 0,-0.24251 -163.1247,0 0,-73.12485 c 0,-6.21002 5.04,-11.25002 11.25,-11.25002 l 123.7497,0 c 6.21,0 11.25,5.04 11.25,11.25002 l 0,44.9999 78.7498,0 0,-67.49992 c 0,-37.2599 -30.2399,-67.49981 -67.4998,-67.49981 l -168.7497,7e-4 z m 22.5,241.87451 123.7497,0 c 6.21,0 11.25,5.03998 11.25,11.24997 l 0,106.8748 c 0,6.21 -5.04,11.25 -11.25,11.25 l -123.7497,0 c -6.21,0 -11.25,-5.04 -11.25,-11.25 l 0,-106.8748 c 0,-6.20999 5.04,-11.24997 11.25,-11.24997 z"
     id="path4587"
     style="fill:#000000;fill-opacity:1;fill-rule:evenodd;stroke:#000000;stroke-width:0;stroke-linecap:butt;stroke-linejoin:miter;stroke-miterlimit:4;stroke-opacity:1;stroke-dasharray:none" />
  <path
     d="m 851.981,748.12582 c -37.26,0 -67.5,30.23991 -67.5,67.49983 l 0,106.87487 c 0,37.25991 30.24,67.49981 67.5,67.49981 l 22.5,0 123.75,0 11.25,0 0,11.25007 0,106.8747 c 0,6.21 -5.04,11.2499 -11.25,11.2499 l -123.75,0 c -6.21,0 -11.25,-5.0399 -11.25,-11.2499 l 0,-44.9999 -78.75,0 0,67.4998 c 0,37.26 30.24,67.5 67.5,67.5 l 168.75,0 c 37.26,0 67.5,-30.24 67.5,-67.5 l 0,-314.99935 c 0,-37.25992 -30.24,-67.49983 -67.5,-67.49983 l -168.75,0 z m 22.5,78.74983 123.75,0 c 6.21,0 11.25,5.03998 11.25,11.25 l 0,61.87488 c 0,6.21 -5.04,11.24999 -11.25,11.24999 l -123.75,0 c -6.21,0 -11.25,-5.03999 -11.25,-11.24999 l 0,-61.87488 c 0,-6.21002 5.04,-11.25 11.25,-11.25 z"
     id="path4589"
     style="fill:#000000;fill-opacity:1;fill-rule:evenodd;stroke:#000000;stroke-width:0;stroke-linecap:butt;stroke-linejoin:miter;stroke-miterlimit:4;stroke-opacity:1;stroke-dasharray:none" />
</svg>
