<?xml version="1.0" encoding="UTF-8" standalone="no"?>
<!-- Created with Inkscape (http://www.inkscape.org/) -->

<svg
   xmlns:dc="http://purl.org/dc/elements/1.1/"
   xmlns:cc="http://creativecommons.org/ns#"
   xmlns:rdf="http://www.w3.org/1999/02/22-rdf-syntax-ns#"
   xmlns:svg="http://www.w3.org/2000/svg"
   xmlns="http://www.w3.org/2000/svg"
   xmlns:inkscape="http://www.inkscape.org/namespaces/inkscape"
   version="1.2"
   width="601"
   height="601"
   id="svg2579">
  <defs
     id="defs13" />
  <metadata
     id="metadata16">
    <rdf:RDF>
      <cc:Work
         rdf:about="">
        <dc:format>image/svg+xml</dc:format>
        <dc:type
           rdf:resource="http://purl.org/dc/dcmitype/StillImage" />
        <dc:title />
      </cc:Work>
    </rdf:RDF>
  </metadata>
  <g
     transform="translate(-2151.3,-611.92)"
     id="g4278">
    <rect
       width="600"
       height="600"
       rx="37.5"
       ry="37.5"
       x="2151.8"
       y="612.41998"
       id="rect4276"
       style="fill:#ffffff;fill-rule:nonzero;stroke:#000000;stroke-width:1;stroke-miterlimit:4;stroke-dasharray:none" />
    <path
       d="m 2451.8,632.47 c -24.945,20.283 -56.808,32.821 -91.501,32.821 -34.762,0 -66.589,-12.439 -91.54,-32.808 l -103.57,91.514 c 35.138,26.572 57.86,68.745 57.86,116.08 0,26.751 -7.2932,51.899 -19.93,73.449 -2.6282,4.4822 -5.498,8.7156 -8.4984,12.774 -1.0397,1.7373 -2.0377,3.4666 -2.9588,5.1616 v 0.013 c -1.1196,2.0615 -2.2012,4.1435 -3.2195,6.2565 -1.0115,2.0993 -1.9793,4.2596 -2.9066,6.452 -0.9229,2.182 -1.781,4.3621 -2.5939,6.5824 -0.8223,2.2457 -1.5927,4.5097 -2.2941,6.7648 -0.7079,2.276 -1.3708,4.5736 -1.9681,6.8952 -0.5904,2.2948 -1.1132,4.631 -1.6033,7.0255 -0.4869,2.3798 -0.9247,4.776 -1.2904,7.1689 -0.3684,2.4116 -0.6775,4.8455 -0.9254,7.2862 -0.2475,2.4366 -0.4341,4.8977 -0.5605,7.3905 -0.1259,2.485 -0.1825,4.9822 -0.1825,7.4947 0,2.5126 0.057,5.0099 0.1825,7.4948 0.1264,2.4928 0.313,4.9539 0.5605,7.3905 0.2479,2.4408 0.557,4.8746 0.9254,7.2863 0.3657,2.3929 0.8035,4.7759 1.2904,7.1558 0.4901,2.3945 1.0128,4.7436 1.6033,7.0386 0.5973,2.3216 1.2602,4.6192 1.9681,6.8952 0.7014,2.2552 1.472,4.5195 2.2941,6.7648 0.8128,2.2201 1.6709,4.4002 2.5939,6.5824 0.9272,2.1923 1.8949,4.3522 2.9066,6.452 1.0201,2.1168 2.0979,4.1918 3.2195,6.2565 1.1184,2.0588 2.2777,4.0995 3.4932,6.1001 1.2281,2.021 2.4869,3.9904 3.78,5.9046 l 0.052,0.078 c 1.2624,1.8654 2.6044,3.7319 4.0146,5.6178 1.4158,1.893 2.852,3.7414 4.3144,5.5136 1.4621,1.7715 2.9864,3.5194 4.549,5.2398 l 0.052,0.039 c 1.5708,1.7282 3.1675,3.4019 4.8096,5.0443 1.6419,1.6417 3.329,3.2519 5.0574,4.8227 l 0.1303,0.1173 c 1.6918,1.5342 3.4083,3.0217 5.1486,4.4578 1.7717,1.4622 3.6076,2.8986 5.5005,4.3144 1.911,1.429 3.8052,2.7892 5.696,4.0667 1.9143,1.2932 3.8839,2.5522 5.9046,3.7799 1.9997,1.2152 4.0404,2.3873 6.1001,3.5063 2.0658,1.1221 4.1409,2.1872 6.2565,3.2065 2.0987,1.0113 4.2593,1.9791 6.452,2.9067 2.1821,0.9228 4.3756,1.794 6.5954,2.6068 0.6327,0.2317 1.6685,0.5537 2.8546,0.9515 2.7328,0.7642 5.4482,1.5085 8.1464,2.2028 3.2528,0.8368 6.4734,1.6411 9.6976,2.3853 2.6816,0.619 5.458,1.2095 8.2899,1.7988 h 0.013 c 0.7747,0.1612 1.2843,0.2793 1.512,0.3259 3.3029,0.6758 6.5879,1.3149 9.8801,1.9029 3.2978,0.5892 6.6438,1.1297 9.9974,1.6424 3.3519,0.5118 6.6939,0.994 10.049,1.4207 3.366,0.4277 6.7476,0.8153 10.141,1.1601 v -0.013 c 3.3875,0.3439 6.7927,0.6525 10.206,0.9125 3.1147,0.2367 6.2756,0.4188 9.476,0.5865 0.072,-0.01 -0.2076,-0.013 0.4693,-0.013 3.5919,0 7.0258,0.1972 10.31,0.4692 31.909,2.6433 60.388,17.359 81.191,39.194 20.803,-21.836 49.282,-36.551 81.191,-39.194 3.2844,-0.272 6.7182,-0.4692 10.31,-0.4692 0.6769,0 0.3969,0.01 0.4692,0.013 3.2005,-0.1677 6.3614,-0.3498 9.4761,-0.5865 3.4132,-0.26 6.8183,-0.5686 10.206,-0.9125 v 0.013 c 3.3932,-0.3448 6.7748,-0.7324 10.141,-1.1601 3.3556,-0.4267 6.6976,-0.9089 10.05,-1.4207 3.3535,-0.5127 6.6996,-1.0533 9.9974,-1.6424 3.2922,-0.588 6.5772,-1.2271 9.8801,-1.9029 0.2277,-0.047 0.7373,-0.1647 1.5119,-0.3259 h 0.013 c 2.8319,-0.5893 5.6083,-1.1798 8.2898,-1.7988 3.2243,-0.7442 6.4449,-1.5485 9.6976,-2.3853 2.6983,-0.6943 5.4137,-1.4386 8.1465,-2.2028 1.1861,-0.3978 2.2218,-0.7198 2.8545,-0.9515 2.2199,-0.8127 4.4133,-1.6839 6.5955,-2.6068 2.1927,-0.9276 4.3533,-1.8954 6.452,-2.9067 2.1155,-1.0193 4.1907,-2.0844 6.2565,-3.2065 2.0597,-1.119 4.1004,-2.2912 6.1001,-3.5063 2.0207,-1.2277 3.9903,-2.4867 5.9046,-3.7799 1.8908,-1.2775 3.785,-2.6377 5.696,-4.0667 1.8929,-1.4158 3.7288,-2.8522 5.5005,-4.3144 1.7403,-1.4361 3.4568,-2.9236 5.1486,-4.4578 l 0.1303,-0.1173 c 1.7284,-1.5708 3.4155,-3.181 5.0574,-4.8227 1.6421,-1.6424 3.2388,-3.3161 4.8096,-5.0443 l 0.052,-0.039 c 1.5626,-1.7205 3.0869,-3.4683 4.549,-5.2398 1.4624,-1.7722 2.8986,-3.6206 4.3144,-5.5136 1.4102,-1.8859 2.7522,-3.7524 4.0146,-5.6178 l 0.052,-0.078 c 1.293,-1.9142 2.5519,-3.8837 3.78,-5.9046 1.2155,-2.0006 2.3748,-4.0413 3.4932,-6.1001 1.1215,-2.0647 2.1994,-4.1397 3.2195,-6.2565 1.0117,-2.0998 1.9793,-4.2597 2.9066,-6.452 0.923,-2.1822 1.781,-4.3623 2.5939,-6.5824 0.8222,-2.2453 1.5927,-4.5096 2.2941,-6.7648 0.7079,-2.276 1.3707,-4.5736 1.9681,-6.8952 0.5904,-2.295 1.1132,-4.644 1.6032,-7.0386 0.487,-2.3799 0.9248,-4.7629 1.2905,-7.1558 0.3684,-2.4117 0.6775,-4.8455 0.9254,-7.2863 0.2474,-2.4366 0.4341,-4.8977 0.5605,-7.3905 0.1259,-2.4849 0.1825,-4.9822 0.1825,-7.4948 0,-2.5125 -0.057,-5.0098 -0.1825,-7.4947 -0.1264,-2.4928 -0.3131,-4.9539 -0.5605,-7.3905 -0.2479,-2.4408 -0.557,-4.8746 -0.9254,-7.2862 -0.3657,-2.3929 -0.8035,-4.7891 -1.2905,-7.1689 -0.49,-2.3945 -1.0128,-4.7307 -1.6032,-7.0255 -0.5973,-2.3216 -1.2602,-4.6192 -1.9681,-6.8952 -0.7014,-2.2551 -1.4719,-4.5192 -2.2941,-6.7648 -0.813,-2.2202 -1.671,-4.4004 -2.5939,-6.5824 -0.9273,-2.1925 -1.8951,-4.3527 -2.9066,-6.452 -1.0183,-2.113 -2.0999,-4.195 -3.2195,-6.2565 v -0.013 c -0.9211,-1.695 -1.9191,-3.4243 -2.9588,-5.1616 -3.0004,-4.058 -5.8701,-8.2915 -8.4984,-12.774 -12.636,-21.549 -19.93,-46.698 -19.93,-73.449 0,-47.339 22.721,-89.512 57.86,-116.08 l -103.57,-91.514 c -24.951,20.369 -56.778,32.808 -91.54,32.808 -34.694,0 -66.556,-12.538 -91.501,-32.821 z m 0,17.622 c 25.827,18.218 57.413,29.275 91.488,29.275 33.782,0 65.116,-10.762 90.824,-28.728 l 82.794,73.136 c -31.025,29.134 -50.443,70.566 -50.443,116.31 0,29.309 8.0135,56.933 21.872,80.566 2.7582,4.7037 5.7164,9.0757 8.7461,13.217 0.8008,1.3451 1.5547,2.6471 2.2419,3.8973 l 0.2346,0.43013 c 1.0372,1.9098 2.024,3.7982 2.9197,5.6569 0.8964,1.8603 1.7691,3.8147 2.6199,5.8264 0.8319,1.9668 1.5969,3.9197 2.3332,5.9306 0.7479,2.0429 1.4457,4.0979 2.0725,6.1131 0.6502,2.0904 1.2561,4.1594 1.7857,6.2174 0.5155,2.0042 0.9774,4.1049 1.4338,6.3347 0.4471,2.185 0.8489,4.3566 1.173,6.4781 0.3324,2.1756 0.6101,4.3758 0.8342,6.5824 0.2231,2.1964 0.3937,4.4258 0.5084,6.6866 0.1126,2.2213 0.1564,4.4764 0.1564,6.77787 0,2.3014 -0.044,4.5566 -0.1564,6.7779 -0.1146,2.2608 -0.2853,4.4903 -0.5084,6.6866 -0.2241,2.2066 -0.5018,4.4068 -0.8342,6.5824 -0.3229,2.1138 -0.7238,4.2567 -1.173,6.452 -0.4584,2.2397 -0.9214,4.3688 -1.4338,6.3608 -0.5297,2.0583 -1.1356,4.1272 -1.7857,6.2174 -0.6268,2.0151 -1.3246,4.0706 -2.0725,6.1131 -0.7362,2.0106 -1.5013,3.9638 -2.3332,5.9307 -0.8506,2.0112 -1.7231,3.9651 -2.6199,5.8263 -0.8983,1.8643 -1.8807,3.7313 -2.9197,5.6439 -1.0332,1.9019 -2.082,3.7488 -3.1543,5.5135 h 0.013 c -1.1188,1.8413 -2.2571,3.6172 -3.415,5.3311 l -0.026,0.039 -0.026,0.039 -0.052,0.078 c -1.0964,1.6171 -2.2839,3.2705 -3.5714,4.9922 -1.3133,1.7561 -2.6267,3.4366 -3.9103,4.9922 h 0.013 c -1.1755,1.4243 -2.4371,2.8562 -3.7278,4.2883 l -0.4432,0.4823 c -1.42,1.5623 -2.8537,3.0621 -4.3404,4.549 -1.4692,1.469 -2.9823,2.9125 -4.5229,4.3143 -0.018,0.017 -0.034,0.035 -0.052,0.052 l -0.078,0.065 -0.026,0.026 -0.013,0.013 c -1.5359,1.3927 -3.0888,2.7366 -4.6533,4.0276 -1.58,1.3041 -3.2346,2.6023 -4.9661,3.8973 -1.7692,1.323 -3.4852,2.5519 -5.1486,3.6757 -1.7141,1.158 -3.4905,2.2967 -5.331,3.415 -1.8012,1.0944 -3.6501,2.155 -5.5136,3.1673 -1.8742,1.0181 -3.7396,1.9761 -5.6439,2.8937 -1.8589,0.8957 -3.8141,1.7688 -5.8263,2.6199 -1.992,0.8425 -3.9754,1.6338 -5.9568,2.3592 0.063,-0.023 -1.0235,0.3365 -2.1245,0.7039 -2.57,0.7173 -5.0981,1.4031 -7.5469,2.0333 -3.1896,0.8203 -6.2853,1.6006 -9.3457,2.3071 -2.0757,0.4791 -4.3272,0.9572 -6.5954,1.4338 l -0.9124,0.1955 c -0.1718,0.036 -0.3228,0.068 -0.4953,0.1042 h -0.013 c -0.9116,0.1898 -1.7753,0.3774 -1.4599,0.3129 -3.2135,0.6577 -6.3777,1.2751 -9.5281,1.8378 -3.1428,0.5615 -6.3835,1.0764 -9.6585,1.5772 -3.2753,0.5002 -6.4975,0.9747 -9.6976,1.3816 -2.8966,0.3681 -5.8055,0.6863 -8.72,0.9906 l -1.0688,0.1043 c -3.2823,0.3333 -6.5664,0.6369 -9.841,0.8863 0,0 -0.01,-2e-4 -0.013,0 -2.6609,0.2023 -5.4427,0.3568 -8.2769,0.5084 -0.5712,-0.033 -0.338,0.026 -0.5995,0.026 -4.1072,0 -7.939,0.2288 -11.47,0.5213 -30.533,2.5293 -58.202,15.01 -80.018,33.837 -21.816,-18.827 -49.485,-31.308 -80.018,-33.837 -3.5312,-0.2925 -7.3631,-0.5213 -11.47,-0.5213 -0.2616,0 -0.028,-0.059 -0.5996,-0.026 -2.8341,-0.1516 -5.616,-0.3061 -8.2768,-0.5084 0,-2e-4 -0.01,0 -0.013,0 -3.2746,-0.2494 -6.5587,-0.553 -9.8409,-0.8863 l -1.0688,-0.1043 c -2.9146,-0.3043 -5.8235,-0.6225 -8.7201,-0.9906 -3.2,-0.4069 -6.4223,-0.8815 -9.6975,-1.3816 -3.2751,-0.5008 -6.5157,-1.0157 -9.6585,-1.5772 -3.1504,-0.5627 -6.3146,-1.1801 -9.5282,-1.8378 0.3155,0.064 -0.5483,-0.123 -1.4598,-0.3129 h -0.013 c -0.1726,-0.036 -0.3236,-0.068 -0.4953,-0.1042 l -0.9125,-0.1955 c -2.2681,-0.4766 -4.5196,-0.9547 -6.5953,-1.4338 -3.0604,-0.7065 -6.1561,-1.4868 -9.3457,-2.3071 -2.4488,-0.6302 -4.9769,-1.316 -7.5469,-2.0333 -1.1011,-0.3674 -2.1873,-0.7268 -2.1246,-0.7039 -1.9813,-0.7254 -3.9647,-1.5167 -5.9567,-2.3592 -2.0122,-0.8511 -3.9674,-1.7242 -5.8264,-2.6199 -1.9042,-0.9177 -3.7697,-1.8756 -5.6439,-2.8937 -1.8635,-1.0123 -3.7123,-2.0729 -5.5135,-3.1673 -1.8405,-1.1183 -3.6169,-2.257 -5.3311,-3.415 -1.6634,-1.1238 -3.3793,-2.3527 -5.1486,-3.6757 -1.7314,-1.295 -3.386,-2.5932 -4.9661,-3.8973 -1.5645,-1.2911 -3.1174,-2.6349 -4.6532,-4.0276 l -0.013,-0.013 -0.026,-0.026 -0.078,-0.065 c -0.018,-0.017 -0.034,-0.035 -0.052,-0.052 -1.5406,-1.4018 -3.0538,-2.8454 -4.5229,-4.3143 -1.4867,-1.487 -2.9203,-2.9867 -4.3404,-4.549 l -0.4432,-0.4823 c -1.2907,-1.432 -2.5523,-2.864 -3.7278,-4.2883 h 0.013 c -1.2836,-1.5556 -2.597,-3.2361 -3.9103,-4.9922 -1.2876,-1.7217 -2.4751,-3.3751 -3.5715,-4.9922 l -0.052,-0.078 -0.026,-0.039 -0.026,-0.039 c -1.1579,-1.7139 -2.2962,-3.4898 -3.415,-5.3311 h 0.013 c -1.0722,-1.7646 -2.1211,-3.6116 -3.1543,-5.5135 -1.039,-1.9126 -2.0213,-3.7796 -2.9197,-5.6439 -0.8968,-1.8612 -1.7693,-3.8151 -2.6199,-5.8263 -0.832,-1.9669 -1.597,-3.9202 -2.3332,-5.9307 -0.7478,-2.0426 -1.4457,-4.098 -2.0725,-6.1131 -0.6501,-2.0902 -1.256,-4.1591 -1.7857,-6.2174 -0.5124,-1.992 -0.9754,-4.1211 -1.4337,-6.3608 -0.4493,-2.1953 -0.8501,-4.3382 -1.1731,-6.452 -0.3324,-2.1756 -0.6101,-4.3758 -0.8342,-6.5824 -0.2231,-2.1963 -0.3938,-4.4258 -0.5084,-6.6866 -0.1126,-2.2213 -0.1564,-4.4765 -0.1564,-6.7779 0,-2.30147 0.044,-4.55657 0.1564,-6.77787 0.1146,-2.2609 0.2853,-4.4903 0.5084,-6.6866 0.2241,-2.2066 0.5018,-4.4068 0.8342,-6.5824 0.3241,-2.1215 0.7259,-4.2931 1.1731,-6.4781 0.4563,-2.2298 0.9181,-4.3305 1.4337,-6.3347 0.5296,-2.058 1.1356,-4.127 1.7857,-6.2174 0.6268,-2.0152 1.3245,-4.0702 2.0725,-6.1131 0.7363,-2.0109 1.5013,-3.9639 2.3332,-5.9306 0.8508,-2.0117 1.7235,-3.9661 2.6199,-5.8264 0.8957,-1.8587 1.8825,-3.7471 2.9197,-5.6569 l 0.2344,-0.43013 c 0.6872,-1.2502 1.441,-2.5522 2.2419,-3.8973 3.0297,-4.1411 5.9879,-8.5132 8.7461,-13.217 13.858,-23.633 21.872,-51.256 21.872,-80.566 0,-45.74 -19.418,-87.172 -50.443,-116.31 l 82.794,-73.136 c 25.708,17.966 57.042,28.728 90.824,28.728 34.076,0 65.661,-11.057 91.488,-29.275 z m -87.2,489.38 c 0.077,0.027 0.077,0.017 0.1695,0.052 0.1471,0.055 0.3973,0.1753 0.5995,0.2606 -0.3078,-0.135 -0.5755,-0.2422 -0.769,-0.3128 z m 174.4,0 c -0.1935,0.071 -0.4612,0.1779 -0.7691,0.3128 0.2023,-0.085 0.4525,-0.2055 0.5996,-0.2606 0.092,-0.035 0.092,-0.025 0.1695,-0.052 z m -183.97,0.026 c -0.7389,0.2947 -2.3959,1.1584 -2.646,1.2904 0,0 0.052,-0.052 0.052,-0.052 -2e-4,10e-5 1.7816,-0.9521 2.3593,-1.1731 0.1233,-0.047 0.1239,-0.026 0.2346,-0.065 z m 193.53,0 c 0.1107,0.04 0.1113,0.018 0.2346,0.065 0.5777,0.221 2.3595,1.1732 2.3592,1.1731 0,-10e-5 0.052,0.052 0.052,0.052 -0.2501,-0.132 -1.9071,-0.9957 -2.646,-1.2904 z m -180.87,1.5772 c 0.041,0.025 0.2477,0.1433 0.2476,0.1433 0,0 1.7597,1.46 1.7597,1.4599 0,0 0.2392,0.3089 0.3128,0.4041 -0.5518,-0.4773 -2.0125,-1.7414 -2.3201,-2.0073 z m 168.2,0 c -0.3076,0.2659 -1.7683,1.53 -2.3201,2.0073 0.074,-0.095 0.3128,-0.4041 0.3128,-0.4041 -1e-4,10e-5 1.7597,-1.4599 1.7596,-1.4599 0,0 0.2072,-0.1183 0.2477,-0.1433 z m -186.87,2.8675 c -0.4843,0.7483 -0.8381,1.2898 -1.4207,2.1898 0.3401,-0.7142 0.743,-1.5511 0.7429,-1.5511 0,0 0.4897,-0.4619 0.6778,-0.6387 z m 205.55,0 c 0.1881,0.1768 0.6777,0.6387 0.6777,0.6387 0,0 0.4029,0.8369 0.743,1.5511 -0.5826,-0.9 -0.9364,-1.4416 -1.4207,-2.1898 z m -183.2,0.8994 c 0.2481,0.3206 0.6257,0.8081 0.6257,0.8081 0,0 0.06,0.2051 0.065,0.2216 -0.179,-0.2638 -0.3424,-0.5165 -0.6908,-1.0297 z m 160.84,0 c -0.3484,0.5133 -0.5118,0.7658 -0.6908,1.0297 0.01,-0.017 0.065,-0.2216 0.065,-0.2216 0,0 0.3775,-0.4874 0.6256,-0.8081 z m -185.53,3.2197 c -0.077,0.5479 -0.2243,1.602 -0.4432,3.1543 h -0.1303 c 0.083,-1.118 0.1694,-2.3072 0.1694,-2.3071 0,0 0.277,-0.5804 0.4041,-0.8472 z m 210.22,0 c 0.1271,0.2668 0.4042,0.8472 0.4041,0.8472 0,0 0.086,1.1891 0.1694,2.3071 h -0.1303 c -0.2189,-1.5523 -0.3659,-2.6064 -0.4432,-3.1543 z m -183.12,3.05 c 0,0.01 0.039,0.1173 0.039,0.1173 0,0 -0.086,0.5637 -0.1043,0.6908 0.017,-0.2323 0.062,-0.7638 0.065,-0.8081 z m 156.02,0 c 0,0.044 0.048,0.5758 0.065,0.8081 -0.018,-0.1271 -0.1043,-0.6908 -0.1043,-0.6908 0,0 0.039,-0.1123 0.039,-0.1173 z"
       inkscape:connector-curvature="0"
       id="path2939-4"
       style="fill:#000000" />
  </g>
  <g
     id="routenum"
     style="font-size:438.98999023px;font-style:normal;font-variant:normal;font-weight:normal;font-stretch:normal;text-align:center;line-height:125%;letter-spacing:-6.69000006px;writing-mode:lr-tb;text-anchor:middle;fill:#000000;font-family:SaaSeriesAD">
    <path
       d="m 100.88,148.41 h 111.25 v 27.651 c -16.005,43.728 -29.295,84.382 -39.869,121.96 -15.29,54.74 -25.87,102.4 -31.73,142.98 h -28.937 c 5.5731,-38.297 14.361,-80.881 26.365,-127.75 7.5736,-29.866 22.006,-76.022 43.299,-138.47 h -80.381 v -26.365"
       inkscape:connector-curvature="0"
       id="path2987" />
    <path
       d="m 343.26,414.63 v 26.365 H 232.01 c 0.42868,-24.865 4.0726,-49.586 10.932,-74.165 8.574,-30.723 20.506,-58.374 35.796,-82.953 13.575,-21.578 21.649,-35.868 24.222,-42.87 7.1449,-19.005 10.717,-33.438 10.717,-43.299 -1e-4,-8.5737 -2.9295,-15.361 -8.7883,-20.363 -5.4303,-4.5725 -11.646,-6.8589 -18.648,-6.8592 -7.8596,2.7e-4 -14.433,2.7868 -19.72,8.3596 -4.5728,4.8588 -6.8592,11.647 -6.8592,20.363 v 6.8592 h -27.651 v -6.6448 c -2e-5,-12.146 3.0009,-22.792 9.0027,-31.938 4.4299,-6.8589 10.289,-12.432 17.577,-16.719 9.0026,-5.4299 18.863,-8.145 29.58,-8.1453 16.576,3e-4 30.223,6.0021 40.941,18.005 9.2884,10.575 13.933,22.436 13.933,35.582 -1.3e-4,18.577 -7.0022,41.655 -21.006,69.235 -2.8581,5.5733 -7.288,13.218 -13.29,22.935 -25.579,41.155 -40.655,83.239 -45.228,126.25 h 79.738"
       inkscape:connector-curvature="0"
       id="path2989" />
    <path
       d="m 432.39,142.63 c 14.147,3e-4 26.151,5.2161 36.011,15.648 6.4304,6.7166 10.86,16.005 13.29,27.865 6.5732,31.009 9.8599,67.163 9.8601,108.46 -1.4e-4,41.441 -3.2868,77.666 -9.8601,108.68 -2.8581,13.861 -8.5027,24.364 -16.934,31.509 -9.4315,8.0024 -20.506,12.004 -33.224,12.004 -14.862,-10e-6 -27.222,-5.2158 -37.082,-15.648 -6.2876,-6.7163 -10.646,-16.005 -13.075,-27.865 -6.5734,-30.866 -9.8601,-67.02 -9.8601,-108.46 -2e-5,-41.012 3.2867,-77.237 9.8601,-108.68 2.858,-13.861 8.5025,-24.436 16.934,-31.724 9.4313,-7.8592 20.792,-11.789 34.082,-11.789 m -0.4287,31.081 c -13.147,2.6e-4 -21.364,9.5745 -24.65,28.723 -1.1433,7.0023 -2.7152,20.292 -4.7157,39.869 -1.7148,17.148 -2.5722,34.51 -2.5722,52.087 -5e-5,20.435 1.429,43.299 4.287,68.592 2.5721,22.721 5.2872,36.439 8.1453,41.155 4.8585,7.7166 11.218,11.575 19.077,11.575 12.861,3e-5 20.935,-9.5742 24.222,-28.723 1.286,-7.2878 2.8579,-20.578 4.7157,-39.869 1.7147,-17.148 2.5721,-34.653 2.5722,-52.516 -1.1e-4,-23.007 -2.0722,-51.086 -6.2161,-84.239 -1.4291,-12.289 -3.5012,-20.649 -6.2161,-25.079 -4.7158,-7.7163 -10.932,-11.575 -18.648,-11.575"
       inkscape:connector-curvature="0"
       id="path2991" />
  </g>
</svg>
