<?xml version="1.0" encoding="UTF-8" standalone="no"?>
<!DOCTYPE svg  PUBLIC '-//W3C//DTD SVG 1.0//EN'  'http://www.w3.org/TR/SVG/DTD/svg10.dtd'>
<svg xmlns="http://www.w3.org/2000/svg" xml:space="preserve" height="600" width="520" xmlns:xlink="http://www.w3.org/1999/xlink" zoomAndPan="disable">
    <defs>
	<linearGradient id="MaleGradient">
	    <stop stop-color="#F00" offset="0"/>
            <stop stop-color="#7f0000" offset="1"/>
	</linearGradient>
        <linearGradient id="FemaleGradient">
	    <stop stop-color="#00007f" offset="0"/>
	    <stop stop-color="#00F" offset="1"/>
        </linearGradient>
	<style type="text/css">
		<![CDATA[
            	.male {stroke:#000000;stroke-width:1px;fill:url(#MaleGradient)}
		.female {stroke:#000000;stroke-width:1px;fill:url(#FemaleGradient)}
		.text {fill:#000000;font-size:30px;font-family:'DejaVu Sans Condensed';text-anchor:middle;}
		.text2 {fill:#000000;font-size:30px;font-family:'Symbol';text-anchor:middle;}
		.line {stroke:#000000;stroke-width:1px;}
		.fnt1 {font-weight:normal;font-size:125px;font-family:'Arial';text-rendering:optimizeLegibility;}
		.fnt0 {font-weight:normal;font-size:139px;font-family:'Arial';text-decoration:underline;text-rendering:optimizeLegibility;}
		]]>
	</style>
    </defs>
<!-- male symbol -->
    <g transform="translate(10,10)"><g transform="scale(0.14285714)"> 
<path stroke-linejoin="round" stroke-miterlimit="4" d="M 160,8 L 152,22 H 172 L 135,59 A 79,79 0 1,0 151,75 L 188,38 V 58 L 202,50 V 8 H 160 zM 88,65 A 57,57 0 1,1 88,179 A 57,57 0 1,1 88,65 z" fill="#000"/>
    </g></g>
<!-- female symbol -->
    <g transform="translate(480,10)"><g transform="scale(0.14285714)"> 
<path stroke-linejoin="round" stroke-miterlimit="4" d="M 117,134 A 65,65 0 1,0 94,134 V 156 H 68 V 177 H 94 V 204 H 117 V 177 H 142 V 156 H 117 V 134 zM 154,70 A 48,48 0 1,1 58,70 A 48,48 0 1,1 154,70 z" fill="#000"/>
    </g></g>
<!-- men -->	<rect id="M:  >85:310"  width="8.0944" y="10" x="201.91" height="30" class="male"/>
	<rect id="M:80-84:437"  width="11.411" y="40" x="198.59" height="30" class="male"/>
	<rect id="M:75-79:749"  width="19.557" y="70" x="190.44" height="30" class="male"/>
	<rect id="M:70-74:1093"  width="28.539" y="100" x="181.46" height="30" class="male"/>
	<rect id="M:65-69:1363"  width="35.589" y="130" x="174.41" height="30" class="male"/>
	<rect id="M:60-64:1899"  width="49.585" y="160" x="160.42" height="30" class="male"/>
	<rect id="M:55-59:2629"  width="68.646" y="190" x="141.35" height="30" class="male"/>
	<rect id="M:50-54:3550"  width="92.694" y="220" x="117.31" height="30" class="male"/>
	<rect id="M:45-49:4130"  width="107.84" y="250" x="102.16" height="30" class="male"/>
	<rect id="M:40-44:4710"  width="122.98" y="280" x="87.017" height="30" class="male"/>
	<rect id="M:35-39:4587"  width="119.77" y="310" x="90.229" height="30" class="male"/>
	<rect id="M:30-34:3484"  width="90.971" y="340" x="119.03" height="30" class="male"/>
	<rect id="M:25-29:2414"  width="63.032" y="370" x="146.97" height="30" class="male"/>
	<rect id="M:20-24:2336"  width="60.995" y="400" x="149" height="30" class="male"/>
	<rect id="M:15-19:3116"  width="81.362" y="430" x="128.64" height="30" class="male"/>
	<rect id="M:10-14:3772"  width="98.491" y="460" x="111.51" height="30" class="male"/>
	<rect id="M: 5-9 :3831"  width="100.03" y="490" x="109.97" height="30" class="male"/>
	<rect id="M:  5 :3338"  width="87.159" y="520" x="122.84" height="30" class="male"/>
<!-- women -->	<rect id="F:  >85:740"  width="19.322" y="10" x="310" height="30" class="female"/>
	<rect id="F:80-84:733"  width="19.139" y="40" x="310" height="30" class="female"/>
	<rect id="F:75-79:992"  width="25.902" y="70" x="310" height="30" class="female"/>
	<rect id="F:70-74:1269"  width="33.135" y="100" x="310" height="30" class="female"/>
	<rect id="F:65-69:1461"  width="38.148" y="130" x="310" height="30" class="female"/>
	<rect id="F:60-64:1909"  width="49.846" y="160" x="310" height="30" class="female"/>
	<rect id="F:55-59:2683"  width="70.056" y="190" x="310" height="30" class="female"/>
	<rect id="F:50-54:3530"  width="92.172" y="220" x="310" height="30" class="female"/>
	<rect id="F:45-49:4157"  width="108.54" y="250" x="310" height="30" class="female"/>
	<rect id="F:40-44:4591"  width="119.88" y="280" x="310" height="30" class="female"/>
	<rect id="F:35-39:4931"  width="128.75" y="310" x="310" height="30" class="female"/>
	<rect id="F:30-34:3649"  width="95.279" y="340" x="310" height="30" class="female"/>
	<rect id="F:25-29:2367"  width="61.805" y="370" x="310" height="30" class="female"/>
	<rect id="F:20-24:1861"  width="48.593" y="400" x="310" height="30" class="female"/>
	<rect id="F:15-19:2697"  width="70.421" y="430" x="310" height="30" class="female"/>
	<rect id="F:10-14:3503"  width="91.467" y="460" x="310" height="30" class="female"/>
	<rect id="F: 5-9 :3641"  width="95.07" y="490" x="310" height="30" class="female"/>
	<rect id="F:  5 :3283"  width="85.722" y="520" x="310" height="30" class="female"/>
<!-- descriptions -->	<text id="T:  >85" y="35" x="260" class="text">  &gt;85</text>
	<text id="T:80-84" y="65" x="260" class="text">80-84</text>
	<text id="T:75-79" y="95" x="260" class="text">75-79</text>
	<text id="T:70-74" y="125" x="260" class="text">70-74</text>
	<text id="T:65-69" y="155" x="260" class="text">65-69</text>
	<text id="T:60-64" y="185" x="260" class="text">60-64</text>
	<text id="T:55-59" y="215" x="260" class="text">55-59</text>
	<text id="T:50-54" y="245" x="260" class="text">50-54</text>
	<text id="T:45-49" y="275" x="260" class="text">45-49</text>
	<text id="T:40-44" y="305" x="260" class="text">40-44</text>
	<text id="T:35-39" y="335" x="260" class="text">35-39</text>
	<text id="T:30-34" y="365" x="260" class="text">30-34</text>
	<text id="T:25-29" y="395" x="260" class="text">25-29</text>
	<text id="T:20-24" y="425" x="260" class="text">20-24</text>
	<text id="T:15-19" y="455" x="260" class="text">15-19</text>
	<text id="T:10-14" y="485" x="260" class="text">10-14</text>
	<text id="T: 5-9 " y="515" x="260" class="text"> 5-9 </text>
	<text id="T:  5 " y="545" x="260" class="text">  &lt;5 </text>
	<path id="LM" d="M 10  550 L 210 550" class="line"/>
	<path id="LF" d="M 310 550 L 510 550" class="line"/>
	<path id="SM:8" d="M 10  550 L 10 560" class="line"/>
	<text id="DM:8" y="585" x="10" class="text">8</text>
	<path id="SM:7" d="M 35  550 L 35 560" class="line"/>
	<text id="DM:7" y="585" x="35" class="text">7</text>
	<path id="SM:6" d="M 60  550 L 60 560" class="line"/>
	<text id="DM:6" y="585" x="60" class="text">6</text>
	<path id="SM:5" d="M 85  550 L 85 560" class="line"/>
	<text id="DM:5" y="585" x="85" class="text">5</text>
	<path id="SM:4" d="M 110  550 L 110 560" class="line"/>
	<text id="DM:4" y="585" x="110" class="text">4</text>
	<path id="SM:3" d="M 135  550 L 135 560" class="line"/>
	<text id="DM:3" y="585" x="135" class="text">3</text>
	<path id="SM:2" d="M 160  550 L 160 560" class="line"/>
	<text id="DM:2" y="585" x="160" class="text">2</text>
	<path id="SM:1" d="M 185  550 L 185 560" class="line"/>
	<text id="DM:1" y="585" x="185" class="text">1</text>
	<path id="SM:0" d="M 210  550 L 210 560" class="line"/>
	<text id="DM:0" y="585" x="210" class="text">0</text>
	<path id="SF:0" d="M 310  550 L 310 560" class="line"/>
	<text id="DF:0" y="585" x="310" class="text">0</text>
	<path id="SF:1" d="M 335  550 L 335 560" class="line"/>
	<text id="DF:1" y="585" x="335" class="text">1</text>
	<path id="SF:2" d="M 360  550 L 360 560" class="line"/>
	<text id="DF:2" y="585" x="360" class="text">2</text>
	<path id="SF:3" d="M 385  550 L 385 560" class="line"/>
	<text id="DF:3" y="585" x="385" class="text">3</text>
	<path id="SF:4" d="M 410  550 L 410 560" class="line"/>
	<text id="DF:4" y="585" x="410" class="text">4</text>
	<path id="SF:5" d="M 435  550 L 435 560" class="line"/>
	<text id="DF:5" y="585" x="435" class="text">5</text>
	<path id="SF:6" d="M 460  550 L 460 560" class="line"/>
	<text id="DF:6" y="585" x="460" class="text">6</text>
	<path id="SF:7" d="M 485  550 L 485 560" class="line"/>
	<text id="DF:7" y="585" x="485" class="text">7</text>
	<path id="SF:8" d="M 510  550 L 510 560" class="line"/>
	<text id="DF:8" y="585" x="510" class="text">8</text>
<text id="DC" y="585" x="260" class="text">%</text>    
</svg>
