<?xml version="1.0" encoding="UTF-8" standalone="no"?>
<!-- Created with Inkscape (http://www.inkscape.org/) -->

<svg
   xmlns:dc="http://purl.org/dc/elements/1.1/"
   xmlns:cc="http://creativecommons.org/ns#"
   xmlns:rdf="http://www.w3.org/1999/02/22-rdf-syntax-ns#"
   xmlns:svg="http://www.w3.org/2000/svg"
   xmlns="http://www.w3.org/2000/svg"
   version="1.1"
   width="348.00479"
   height="315.81491"
   id="svg2">
  <defs
     id="defs4" />
  <metadata
     id="metadata7">
    <rdf:RDF>
      <cc:Work
         rdf:about="">
        <dc:format>image/svg+xml</dc:format>
        <dc:type
           rdf:resource="http://purl.org/dc/dcmitype/StillImage" />
        <dc:title></dc:title>
      </cc:Work>
    </rdf:RDF>
  </metadata>
  <g
     transform="translate(-190.35423,-169.12497)"
     id="layer1">
    <path
       d="m 388.84375,392.3125 c -3.35132,0.007 -6.7867,0.81379 -10.125,2.46875 -3.03367,1.50394 -4.67316,2.71516 -7.15625,5.3125 -4.05946,4.24629 -6.95471,9.92362 -8.78125,17.1875 -3.4179,13.59261 -2.90416,33.09807 1.1875,45.40625 3.97202,11.94822 11.55255,19.78727 21.15625,21.875 7.50257,1.63096 15.92375,-2.11616 21.34375,-9.46875 4.80922,-6.52401 7.69387,-15.46981 8.84375,-27.5 0.41281,-4.31882 0.33192,-16.39069 -0.125,-20.53125 -1.15391,-10.45698 -3.41542,-17.80212 -7.3125,-23.75 -4.68944,-7.15719 -11.65834,-11.01573 -19.03125,-11 z m -0.1875,15.59375 c 2.8461,-0.0317 5.64148,1.05234 7.9375,3.15625 3.91791,3.59002 6.37929,9.77929 7.3125,18.4375 1.26833,11.76736 -0.17682,24.05327 -3.65625,31 -2.25375,4.49967 -5.8699,7.82457 -9.34375,8.625 -3.36033,0.77435 -7.08315,-0.50399 -10.28125,-3.53125 -4.25051,-4.02347 -6.84126,-9.85548 -8.15625,-18.3125 -0.52018,-3.34541 -0.64686,-13.02518 -0.21875,-16.71875 1.29592,-11.18016 5.03334,-18.29085 11.3125,-21.40625 1.65961,-0.82343 3.38609,-1.23096 5.09375,-1.25 z"
       id="path3091"
       style="fill:#000000" />
    <path
       d="m 458.1075,484.77639 c -4.28053,-0.77796 -7.94381,-2.82219 -11.33007,-6.32255 -6.04923,-6.253 -9.73434,-15.64286 -11.41646,-29.08985 -0.4488,-3.58761 -0.63794,-14.63731 -0.31941,-18.65921 0.73616,-9.29485 2.67525,-16.89324 5.86193,-22.97027 4.26605,-8.13538 10.56745,-13.2463 17.76286,-14.40708 2.54346,-0.4103 6.90815,-0.16444 9.19724,0.51811 7.46854,2.22677 13.11804,8.37965 16.22749,17.67344 0.91103,2.72297 1.74454,6.74431 1.92507,9.2875 l 0.13467,1.89721 -5.63041,0 -5.63044,0 -0.46281,-1.92665 c -1.77931,-7.40698 -5.42749,-11.19898 -11.28487,-11.72973 -2.0049,-0.18169 -4.1687,0.2713 -6.26643,1.31191 -1.90674,0.94588 -4.69698,3.66407 -5.96005,5.80618 -3.52981,5.98636 -5.21593,16.33547 -4.39253,26.96054 0.88452,11.41365 4.27966,20.16753 9.29545,23.96706 3.02626,2.29239 6.85837,2.48431 10.58687,0.53013 1.51724,-0.7952 4.10059,-3.32985 5.06766,-4.9721 1.47081,-2.49768 2.71527,-6.08091 3.25825,-9.38171 l 0.12846,-0.78105 5.64115,0 5.64112,0 -0.1444,1.3018 c -0.24474,2.20621 -1.12998,6.44721 -1.86443,8.93203 -3.52431,11.92344 -9.84867,19.46789 -18.14438,21.64478 -1.87203,0.49125 -6.19574,0.71592 -7.88153,0.40951 z"
       id="path3087"
       style="fill:#000000" />
    <path
       d="m 199.50119,438.16828 c -4.97681,-24.0279 -9.08871,-43.85255 -9.13755,-44.05481 -0.0836,-0.34597 0.27165,-0.36439 6.02082,-0.31243 l 6.10962,0.0551 5.7772,33.11719 c 3.17747,18.21442 5.78193,33.20304 5.7877,33.30804 0.006,0.105 0.0553,0.14607 0.11018,0.0912 0.0926,-0.0925 11.7725,-65.9965 11.7725,-66.42624 0,-0.11579 2.40595,-0.19439 5.95013,-0.19439 5.56673,0 5.94357,0.0236 5.8483,0.36451 -0.056,0.20046 -4.206,20.02393 -9.22221,44.05211 l -9.12037,43.68754 -5.42378,0 -5.42379,0 -9.04875,-43.68704 z"
       id="path3085"
       style="fill:#000000" />
    <path
       d="m 243.22924,437.80427 0,-44.0521 5.72781,0 5.72781,0 0,44.0521 0,44.05206 -5.72781,0 -5.72781,0 0,-44.05206 z"
       id="path3083"
       style="fill:#000000" />
    <path
       d="m 262.8125,393.71875 0,44.09375 0,44.0625 13.28125,-0.0625 c 14.58489,-0.0739 14.13903,-0.0457 17.0625,-1.40625 7.33231,-3.41244 12.76262,-12.64479 15.46875,-26.34375 4.18985,-21.20982 0.2349,-44.72925 -9.15625,-54.5625 -2.61894,-2.74224 -5.03558,-4.2125 -8.4375,-5.15625 -1.62554,-0.45089 -1.98396,-0.45605 -14.9375,-0.53125 l -13.28125,-0.0937 z m 11.125,15.34375 6.375,0 c 6.04982,0.01 6.4207,0.052 7.6875,0.5 6.52432,2.30728 9.89462,9.99951 10.625,24.125 0.5226,10.10686 -0.87885,18.95065 -4.0625,25.375 -1.95419,3.94341 -4.31998,6.28987 -7.125,7.15625 -1.22801,0.37948 -1.92315,0.4375 -7.46875,0.4375 l -6.125,0 0.0625,-28.8125 0.0312,-28.78125 z"
       id="path3081"
       style="fill:#000000" />
    <path
       d="m 316.54523,437.80327 0,-44.05211 20.62011,0 20.62013,0 0,7.81064 0,7.8107 -14.68403,0 -14.68403,0 0,9.26862 0,9.26867 13.53847,0 13.53846,0 0,7.81064 0,7.81064 -13.53846,0 -13.53847,0 0,11.35146 0,11.35145 15.41303,0 15.41302,0 0,7.8107 0,7.81064 -21.34912,0 -21.34911,0 0,-44.05205 z"
       id="path3077"
       style="fill:#000000" />
    <path
       d="m 490.875,393.71875 0,44.0625 0,44.0625 13.3125,0 c 10.70231,0 13.61865,-0.0409 14.875,-0.28125 6.62532,-1.26763 11.85472,-7.0799 15.1875,-16.875 4.36088,-12.81668 5.37805,-32.47383 2.4375,-47.1875 -2.65639,-13.29186 -7.92112,-20.93399 -16,-23.1875 -1.53921,-0.42933 -2.0443,-0.427 -15.6875,-0.5 l -14.125,-0.0937 z M 508.0625,409 c 6.99472,-0.07 8.81358,0.0972 10.65625,1 3.15604,1.5463 5.5633,5.68001 6.84375,11.8125 1.36132,6.51975 1.61324,18.26754 0.59375,26.0625 -1.30052,9.94382 -4.17904,16.07048 -8.5625,18.125 l -1.1875,0.53125 -7.25,0.0625 -7.25,0.0625 0.0625,-28.78125 0.0625,-28.8125 L 508.0625,409 z"
       id="path3075"
       style="fill:#000000" />
    <path
       d="m 467.25,169.125 c -6.86174,-0.005 -11.24541,0.50553 -19.5,2.21875 C 432.95823,174.41373 413.64074,181.35358 393,191 c -5.01265,2.34264 -17.19487,8.44198 -22.4375,11.25 -77.98284,41.76853 -144.26341,99.99789 -155.15625,136.3125 -1.29751,4.32561 -1.71174,10.04593 -1,13.5 1.85187,8.98737 9.44108,14.87951 21.125,16.40625 3.37377,0.44081 11.87303,0.32425 16.03125,-0.21875 l 2.8125,-0.375 3.84375,0.96875 c 17.11471,4.2555 47.98341,6.91608 94.15625,8.125 1.3174,0.0343 13.9773,0.0287 28.125,0 24.78166,-0.0501 28.98166,-0.11737 45.1875,-0.8125 34.50319,-1.48012 62.31196,-4.67864 73.53125,-8.4375 5.28418,-1.77035 7.21133,-3.7887 5.375,-5.625 -5.04822,-5.04823 -35.58084,-9.30594 -80.6875,-11.25 -36.43423,-1.57034 -87.03839,-1.00558 -117.21875,1.28125 -1.58718,0.12048 -2.92985,0.1638 -2.96875,0.125 -0.0389,-0.0389 0.99885,-0.53142 2.28125,-1.09375 28.33816,-12.42559 64.97789,-33.63851 95.21875,-55.15625 35.4202,-25.20308 64.39916,-52.27394 80.0625,-74.71875 14.03417,-20.11032 16.80384,-35.84837 7.9375,-45.0625 -3.30059,-3.43008 -7.69645,-5.51646 -13.84375,-6.59375 -2.34696,-0.41134 -3.4311,-0.497 -8.125,-0.5 z m -1.3125,14.6875 c 4.20876,-0.005 7.37176,0.74232 9.40625,2.21875 2.18741,1.58741 3.3482,4.39214 3.3125,7.96875 -0.0789,7.90993 -6.5783,18.81994 -19.75,33.125 -25.63801,27.84407 -76.86965,65.93783 -124.25,92.40625 -33.85451,18.91237 -63.00391,30.86889 -82.875,33.9375 -2.53137,0.39085 -9.7473,0.55867 -11.5,0.28125 -3.46281,-0.54811 -5.81746,-1.54763 -7.65625,-3.25 -1.75924,-1.62877 -2.36193,-2.93249 -2.46875,-5.375 -0.0647,-1.47922 0.0133,-2.33203 0.375,-3.78125 5.14373,-20.61001 46.81862,-61.61143 96.75,-95.1875 44.9244,-30.20916 96.30725,-54.90474 126.9375,-61 4.53294,-0.90203 8.44527,-1.34002 11.71875,-1.34375 z"
       id="path3071"
       style="fill:#000000" />
    <path
       d="m 402.1875,223.6875 c -5.70086,0.16163 -12.84,1.75941 -21.03125,4.8125 -5.56708,2.07499 -8.93825,3.55664 -15.5625,6.84375 -9.3637,4.6465 -17.42585,9.39986 -27.90625,16.4375 -26.04344,17.48832 -41.09249,32.47344 -44.5625,44.375 -0.72236,2.47756 -0.92798,5.63645 -0.46875,7.8125 0.3965,1.87884 1.69476,4.54888 2.84375,5.875 1.70215,1.96457 4.75498,3.48292 8.09375,4.03125 2.21917,0.3644 7.38384,0.25223 10.25,-0.21875 15.3325,-2.51965 35.40372,-12.48733 58.71875,-29.15625 26.18258,-18.71905 39.95172,-32.52431 43.78125,-43.90625 0.76557,-2.2754 1.01809,-5.67826 0.59375,-7.875 -0.31776,-1.64501 -1.40785,-3.95756 -2.4375,-5.15625 -2.36545,-2.7538 -6.61164,-4.03663 -12.3125,-3.875 z m -8.15625,15.0625 c 0.95196,-0.0167 1.71928,0.12551 2.28125,0.40625 1.67312,0.83582 1.82657,2.58194 0.4375,5.40625 -3.79573,7.71761 -19.51202,21.08 -40.21875,34.21875 -17.68138,11.21911 -31.26893,18.07091 -38.6875,19.5 -6.18969,1.19236 -8.07791,-1.89113 -4.5625,-7.5 1.53264,-2.44533 3.56051,-4.83961 7.09375,-8.375 7.91966,-7.92447 18.49721,-15.93564 32.40625,-24.59375 18.80512,-11.70584 34.58631,-18.94569 41.25,-19.0625 z"
       id="path3067"
       style="fill:#000000" />
  </g>
</svg>
