<?xml version="1.0" encoding="UTF-8" standalone="no"?>
<!-- Created with Inkscape (http://www.inkscape.org/) -->

<svg
   xmlns:dc="http://purl.org/dc/elements/1.1/"
   xmlns:cc="http://creativecommons.org/ns#"
   xmlns:rdf="http://www.w3.org/1999/02/22-rdf-syntax-ns#"
   xmlns:svg="http://www.w3.org/2000/svg"
   xmlns="http://www.w3.org/2000/svg"
   xmlns:sodipodi="http://sodipodi.sourceforge.net/DTD/sodipodi-0.dtd"
   xmlns:inkscape="http://www.inkscape.org/namespaces/inkscape"
   width="36.054768mm"
   height="10.247559mm"
   viewBox="0 0 36.054768 10.247559"
   version="1.1"
   id="svg8"
   sodipodi:docname="Wikisource-wordmark-he.svg"
   inkscape:version="0.92.4 (f8dce91, 2019-08-02)">
  <defs
     id="defs2" />
  <sodipodi:namedview
     id="base"
     pagecolor="#ffffff"
     bordercolor="#666666"
     borderopacity="1.0"
     inkscape:pageopacity="0.0"
     inkscape:pageshadow="2"
     inkscape:zoom="2.8"
     inkscape:cx="24.927115"
     inkscape:cy="26.266668"
     inkscape:document-units="mm"
     inkscape:current-layer="layer1"
     showgrid="false"
     fit-margin-top="1"
     fit-margin-left="1"
     fit-margin-right="1"
     fit-margin-bottom="1"
     inkscape:window-width="1920"
     inkscape:window-height="1025"
     inkscape:window-x="0"
     inkscape:window-y="27"
     inkscape:window-maximized="1" />
  <metadata
     id="metadata5">
    <rdf:RDF>
      <cc:Work
         rdf:about="">
        <dc:format>image/svg+xml</dc:format>
        <dc:type
           rdf:resource="http://purl.org/dc/dcmitype/StillImage" />
        <dc:title></dc:title>
      </cc:Work>
    </rdf:RDF>
  </metadata>
  <g
     inkscape:label="Layer 1"
     inkscape:groupmode="layer"
     id="layer1"
     transform="translate(-42.383842,-112.43423)">
    <g
       aria-label="ויקיטקסט"
       style="font-style:normal;font-weight:normal;font-size:10.58333302px;line-height:1.25;font-family:sans-serif;letter-spacing:0px;word-spacing:0px;fill:#000000;fill-opacity:1;stroke:none;stroke-width:0.26458332"
       id="text817">
      <path
         d="m 76.880505,119.41319 0.103353,-3.61735 q 0,-0.42374 -0.186035,-0.57877 -0.186035,-0.1602 -0.640788,-0.23772 -0.392741,-0.062 -0.640788,-0.29972 -0.248046,-0.23771 -0.248046,-0.5581 0,-0.26355 0.129191,-0.42892 0.134358,-0.17053 0.273885,-0.21704 l 0.139526,-0.0413 q 0.05168,0.30489 0.656291,0.42375 0.273885,0.0413 0.392741,0.0879 0.124023,0.0413 0.263549,0.16019 0.144694,0.11369 0.196371,0.34107 0.05684,0.22737 0.05684,0.60978 l 0.06201,3.75688 q 0,0.24288 -0.139527,0.39274 -0.134358,0.14469 -0.279052,0.1757 z"
         style="font-style:normal;font-variant:normal;font-weight:normal;font-stretch:normal;font-family:'Linux Libertine O';-inkscape-font-specification:'Linux Libertine O';stroke-width:0.26458332"
         id="path874" />
      <path
         d="m 73.738578,116.77769 -0.06201,-0.0723 q 0.475424,-0.3514 0.475424,-1.17306 0,-0.53743 -0.837159,-0.57361 -0.434082,-0.0207 -0.666626,-0.21704 -0.232544,-0.19637 -0.232544,-0.5426 0,-0.31523 0.108521,-0.50643 0.113688,-0.19637 0.227376,-0.22737 l 0.108521,-0.031 q 0.02067,0.1912 0.160197,0.28939 0.139526,0.093 0.253214,0.10335 0.118856,0.0103 0.341065,0.0103 0.563273,0 0.74414,0.2222 0.186035,0.22221 0.186035,0.94052 0,0.49609 -0.175699,1.01802 -0.1757,0.51677 -0.630453,0.75964 z"
         style="font-style:normal;font-variant:normal;font-weight:normal;font-stretch:normal;font-family:'Linux Libertine O';-inkscape-font-specification:'Linux Libertine O';stroke-width:0.26458332"
         id="path876" />
      <path
         d="m 67.578747,121.68179 -0.103353,-0.0465 v -4.94027 q 0,-0.42374 0.403076,-0.77514 h 0.09302 v 5.37951 q 0,0.14986 -0.392741,0.38241 z m 1.855184,-2.73369 q 0,0.031 0.0052,0.1602 0.0052,0.12403 0.0052,0.21188 0,0.35139 -0.361735,0.34623 -0.304891,0 -0.304891,-0.39791 0,-0.79582 1.488281,-1.82418 0.08268,-0.0517 0.206706,-0.14986 0.124023,-0.10335 0.299723,-0.27905 0.180868,-0.18087 0.299723,-0.43409 0.118856,-0.25838 0.118856,-0.51159 0,-0.18087 -0.0155,-0.29456 -0.01033,-0.11885 -0.05684,-0.27905 -0.04651,-0.16537 -0.134358,-0.26355 -0.08268,-0.10335 -0.253215,-0.1757 -0.165365,-0.0775 -0.408244,-0.0775 h -2.149739 q -0.372071,0 -0.604615,-0.23254 -0.232543,-0.23254 -0.232543,-0.5581 0,-0.3049 0.129191,-0.48576 0.134358,-0.18087 0.273885,-0.20671 l 0.139526,-0.0207 q 0.07235,0.36174 0.516764,0.36174 h 1.968872 q 0.361735,0 0.620118,0.13435 0.258382,0.1292 0.382405,0.3049 0.129191,0.1757 0.196371,0.46508 0.07235,0.28939 0.08268,0.48059 0.01034,0.19121 0.01034,0.48576 0,0.48576 -0.07235,0.81649 -0.06718,0.33073 -0.26355,0.56844 -0.19637,0.23771 -0.356567,0.35657 -0.155029,0.11369 -0.506429,0.3359 -0.563273,0.32556 -0.795817,0.5581 -0.227376,0.23254 -0.227376,0.60461 z"
         style="font-style:normal;font-variant:normal;font-weight:normal;font-stretch:normal;font-family:'Linux Libertine O';-inkscape-font-specification:'Linux Libertine O';stroke-width:0.26458332"
         id="path878" />
      <path
         d="m 65.635713,116.77769 -0.06201,-0.0723 q 0.475423,-0.3514 0.475423,-1.17306 0,-0.53743 -0.837158,-0.57361 -0.434082,-0.0207 -0.666626,-0.21704 -0.232544,-0.19637 -0.232544,-0.5426 0,-0.31523 0.108521,-0.50643 0.113688,-0.19637 0.227376,-0.22737 l 0.108521,-0.031 q 0.02067,0.1912 0.160197,0.28939 0.139526,0.093 0.253214,0.10335 0.118856,0.0103 0.341064,0.0103 0.563274,0 0.744141,0.2222 0.186035,0.22221 0.186035,0.94052 0,0.49609 -0.1757,1.01802 -0.1757,0.51677 -0.630452,0.75964 z"
         style="font-style:normal;font-variant:normal;font-weight:normal;font-stretch:normal;font-family:'Linux Libertine O';-inkscape-font-specification:'Linux Libertine O';stroke-width:0.26458332"
         id="path880" />
      <path
         d="m 59.899629,115.01036 q -0.361735,-0.062 -0.542603,-0.22221 -0.180867,-0.16536 -0.180867,-0.5271 0,-0.23254 0.04134,-0.39791 0.04651,-0.16536 0.103353,-0.24288 0.05684,-0.0775 0.113688,-0.12402 0.06201,-0.0517 0.103353,-0.0568 l 0.04134,-0.005 q 0.05168,0.39274 0.563273,0.40308 0.61495,0.0207 0.609782,0.66662 0,0.22221 -0.06201,0.44442 -0.180867,0.0517 -0.356567,0.0517 -0.03101,0 -0.09819,-0.005 -0.06201,-0.005 -0.09302,-0.005 -0.232544,0.78548 -0.232544,1.10071 0,0.85783 0.578776,2.20141 h 2.361613 q 0.485759,-1.00769 0.485759,-2.22208 0,-0.56328 -0.232544,-0.85783 -0.232544,-0.29456 -0.666626,-0.29456 -0.372071,0 -0.661459,0.22221 -0.289388,0.22221 -0.661458,0.86817 l -0.253214,-0.1292 q 0.583943,-1.34358 0.857828,-1.64847 0.382406,-0.45476 0.816488,-0.45476 0.191203,0 0.361735,0.093 0.1757,0.0879 0.361735,0.31523 0.186035,0.22737 0.294556,0.71313 0.113688,0.48576 0.113688,1.17306 0,1.30224 -0.713135,3.28145 h -2.950724 q 0,-0.3514 -0.217041,-1.39009 -0.217041,-1.04387 -0.217041,-1.51929 0.0052,-0.58395 0.330729,-1.43144 z"
         style="font-style:normal;font-variant:normal;font-weight:normal;font-stretch:normal;font-family:'Linux Libertine O';-inkscape-font-specification:'Linux Libertine O';stroke-width:0.26458332"
         id="path882" />
      <path
         d="m 54.328911,121.68179 -0.103353,-0.0465 v -4.94027 q 0,-0.42374 0.403076,-0.77514 h 0.09302 v 5.37951 q 0,0.14986 -0.392741,0.38241 z m 1.855184,-2.73369 q 0,0.031 0.0052,0.1602 0.0052,0.12403 0.0052,0.21188 0,0.35139 -0.361735,0.34623 -0.304891,0 -0.304891,-0.39791 0,-0.79582 1.488281,-1.82418 0.08268,-0.0517 0.206706,-0.14986 0.124023,-0.10335 0.299723,-0.27905 0.180868,-0.18087 0.299724,-0.43409 0.118855,-0.25838 0.118855,-0.51159 0,-0.18087 -0.0155,-0.29456 -0.01033,-0.11885 -0.05684,-0.27905 -0.04651,-0.16537 -0.134358,-0.26355 -0.08268,-0.10335 -0.253215,-0.1757 -0.165364,-0.0775 -0.408244,-0.0775 H 54.92319 q -0.372071,0 -0.604614,-0.23254 -0.232544,-0.23254 -0.232544,-0.5581 0,-0.3049 0.129191,-0.48576 0.134358,-0.18087 0.273885,-0.20671 l 0.139526,-0.0207 q 0.07235,0.36174 0.516764,0.36174 h 1.968872 q 0.361735,0 0.620118,0.13435 0.258382,0.1292 0.382405,0.3049 0.129191,0.1757 0.196371,0.46508 0.07235,0.28939 0.08268,0.48059 0.01033,0.19121 0.01033,0.48576 0,0.48576 -0.07235,0.81649 -0.06718,0.33073 -0.26355,0.56844 -0.19637,0.23771 -0.356567,0.35657 -0.155029,0.11369 -0.506429,0.3359 -0.563273,0.32556 -0.795817,0.5581 -0.227376,0.23254 -0.227376,0.60461 z"
         style="font-style:normal;font-variant:normal;font-weight:normal;font-stretch:normal;font-family:'Linux Libertine O';-inkscape-font-specification:'Linux Libertine O';stroke-width:0.26458332"
         id="path884" />
      <path
         d="m 51.295504,114.95868 h -1.653646 q -0.444417,0.74931 -0.444417,1.67432 0,0.49609 0.118856,0.84749 0.124023,0.34624 0.28422,0.52194 0.160197,0.1757 0.423747,0.27388 0.26355,0.093 0.43925,0.10852 0.175699,0.0155 0.449585,0.0155 0.382405,0 0.640787,-0.0568 0.258382,-0.062 0.511597,-0.22221 0.258382,-0.16536 0.382406,-0.51676 0.129191,-0.3514 0.129191,-0.88884 0,-0.89917 -0.279053,-1.32808 -0.273885,-0.42892 -1.002523,-0.42892 z m -0.413411,4.51136 q -0.24288,0 -0.485759,-0.0465 -0.242879,-0.0413 -0.552938,-0.1912 -0.30489,-0.15503 -0.527099,-0.39791 -0.222209,-0.24288 -0.382406,-0.69764 -0.160197,-0.45992 -0.160197,-1.05936 0,-1.26091 0.563273,-2.12907 -0.325561,0 -0.485758,-0.25322 -0.160197,-0.25321 -0.160197,-0.48575 0,-0.32557 0.118856,-0.5116 0.124023,-0.18604 0.248047,-0.21704 l 0.118855,-0.0258 q 0.08268,0.37207 0.511597,0.37207 h 1.415934 q 0.888835,0 1.369426,0.61495 0.480591,0.61495 0.480591,2.0929 0,0.93017 -0.170533,1.54512 -0.165364,0.61495 -0.490926,0.90434 -0.320394,0.28422 -0.645955,0.3824 -0.320394,0.10336 -0.764811,0.10336 z"
         style="font-style:normal;font-variant:normal;font-weight:normal;font-stretch:normal;font-family:'Linux Libertine O';-inkscape-font-specification:'Linux Libertine O';stroke-width:0.26458332"
         id="path886" />
      <path
         d="m 44.107312,115.01036 q -0.361735,-0.062 -0.542602,-0.22221 -0.180868,-0.16536 -0.180868,-0.5271 0,-0.23254 0.04134,-0.39791 0.04651,-0.16536 0.103353,-0.24288 0.05684,-0.0775 0.113688,-0.12402 0.06201,-0.0517 0.103353,-0.0568 l 0.04134,-0.005 q 0.05168,0.39274 0.563273,0.40308 0.61495,0.0207 0.609782,0.66662 0,0.22221 -0.06201,0.44442 -0.180868,0.0517 -0.356568,0.0517 -0.03101,0 -0.09818,-0.005 -0.06201,-0.005 -0.09302,-0.005 -0.232544,0.78548 -0.232544,1.10071 0,0.85783 0.578776,2.20141 h 2.361613 q 0.485759,-1.00769 0.485759,-2.22208 0,-0.56328 -0.232544,-0.85783 -0.232544,-0.29456 -0.666626,-0.29456 -0.37207,0 -0.661458,0.22221 -0.289388,0.22221 -0.661459,0.86817 l -0.253214,-0.1292 q 0.583943,-1.34358 0.857829,-1.64847 0.382405,-0.45476 0.816487,-0.45476 0.191203,0 0.361735,0.093 0.1757,0.0879 0.361735,0.31523 0.186035,0.22737 0.294556,0.71313 0.113688,0.48576 0.113688,1.17306 0,1.30224 -0.713135,3.28145 h -2.950724 q 0,-0.3514 -0.217041,-1.39009 -0.217041,-1.04387 -0.217041,-1.51929 0.0052,-0.58395 0.330729,-1.43144 z"
         style="font-style:normal;font-variant:normal;font-weight:normal;font-stretch:normal;font-family:'Linux Libertine O';-inkscape-font-specification:'Linux Libertine O';stroke-width:0.26458332"
         id="path888" />
    </g>
  </g>
</svg>
