<?xml version="1.0" encoding="UTF-8"?>
<svg id="Layer_2" data-name="Layer 2" xmlns="http://www.w3.org/2000/svg" width="365.4" height="95.57" viewBox="0 0 365.4 95.57">
  <defs>
    <style>
      .cls-1 {
        fill: #396;
      }

      .cls-2 {
        fill: #900;
      }

      .cls-3 {
        fill: #069;
      }
    </style>
  </defs>
  <g id="Layer_1-2" data-name="Layer 1">
    <g>
      <path d="m150.9,1.58c0,.53-.17,1.01-.5,1.45-.34.44-.7.66-1.11.66-3.31.31-6.02,1.38-8.13,3.21-2.11,1.82-4.28,5.3-6.51,10.43l-34.25,77.16c-.22.72-.85,1.07-1.88,1.07-.81,0-1.43-.36-1.88-1.07l-19.23-40.09-22.08,40.09c-.45.72-1.07,1.07-1.88,1.07-.99,0-1.63-.36-1.95-1.07L17.86,17.33c-2.1-4.81-4.32-8.18-6.65-10.09-2.33-1.91-5.57-3.09-9.74-3.54-.36,0-.69-.19-1.01-.56-.31-.37-.47-.8-.47-1.29C0,.62.36,0,1.08,0c3,0,6.14.13,9.41.4,3.05.27,5.91.4,8.6.4s5.96-.13,9.68-.4c3.9-.27,7.34-.4,10.34-.4.72,0,1.07.62,1.07,1.85s-.22,1.85-.67,1.85c-3,.23-5.36.99-7.09,2.29-1.72,1.31-2.59,3.01-2.59,5.13,0,1.08.36,2.43,1.08,4.05l27.45,62.95,16.13-29.97-14.73-30.81c-2.64-5.53-4.81-9.1-6.51-10.7-1.7-1.6-4.28-2.58-7.72-2.94-.31,0-.62-.19-.91-.56-.29-.37-.44-.8-.44-1.29,0-1.23.31-1.85.94-1.85,3,0,5.75.13,8.26.4,2.42.27,4.99.4,7.72.4s5.53-.13,8.53-.4c3.09-.27,6.13-.4,9.13-.4.72,0,1.07.62,1.07,1.85s-.22,1.85-.67,1.85c-6,.41-9,2.12-9,5.14,0,1.35.69,3.45,2.08,6.28l9.73,19.75,9.68-18.07c1.34-2.56,2.01-4.73,2.01-6.48,0-4.14-3-6.34-9-6.62-.54,0-.81-.61-.81-1.85,0-.44.13-.86.4-1.25.27-.4.54-.59.81-.59,2.15,0,4.79.13,7.92.4,3,.27,5.46.4,7.39.4,1.39,0,3.43-.11,6.11-.34,3.4-.31,6.25-.47,8.53-.47.54,0,.81.53.81,1.58,0,1.41-.49,2.11-1.48,2.11-3.49.36-6.3,1.33-8.43,2.9-2.13,1.57-4.78,5.15-7.96,10.73l-12.89,23.87,17.44,35.57,25.81-59.97c.89-2.21,1.34-4.23,1.34-6.08,0-4.41-3-6.75-9-7.02-.54,0-.81-.61-.81-1.85s.4-1.85,1.21-1.85c2.19,0,4.79.13,7.79.4,2.77.27,5.1.4,6.98.4s4.25-.13,6.85-.4c2.68-.27,5.1-.4,7.25-.4.63,0,.94.53.94,1.58Z"/>
      <g>
        <circle class="cls-2" cx="269.89" cy="47.78" r="47.78"/>
        <rect class="cls-1" x="335.42" y=".08" width="29.98" height="95.41" rx="2.27" ry="2.27"/>
        <rect class="cls-3" x="174.38" y=".08" width="29.98" height="95.41" rx="2.27" ry="2.27"/>
      </g>
    </g>
  </g>
</svg>