<?xml version="1.0" encoding="UTF-8"?>
<!DOCTYPE svg PUBLIC "-//W3C//DTD SVG 1.1//EN" "http://www.w3.org/Graphics/SVG/1.1/DTD/svg11.dtd">
<!-- Creator: CorelDRAW 2019 (64-Bit Not for commercial use) -->
<svg xmlns="http://www.w3.org/2000/svg" xml:space="preserve" width="923px" height="726px" version="1.1" style="shape-rendering:geometricPrecision; text-rendering:geometricPrecision; image-rendering:optimizeQuality; fill-rule:evenodd; clip-rule:evenodd"
viewBox="0 0 560.49 441.24"
 xmlns:xlink="http://www.w3.org/1999/xlink"
 xmlns:xodm="http://www.corel.com/coreldraw/odm/2003"
 data-name="Layer 1">
 <defs>
  <style type="text/css">
   <![CDATA[
    .fil0 {fill:none}
    .fil3 {fill:#FEFEFE}
    .fil11 {fill:#84A0CC}
    .fil14 {fill:#DC0816}
    .fil9 {fill:#E679A6}
    .fil2 {fill:#E9E7C4}
    .fil18 {fill:#EE8019}
    .fil17 {fill:#F0BC00}
    .fil5 {fill:#FEFEFE;fill-rule:nonzero}
    .fil8 {fill:#FEFEFE;fill-rule:nonzero}
    .fil12 {fill:#84A0CC;fill-rule:nonzero}
    .fil15 {fill:#0154D5;fill-rule:nonzero}
    .fil6 {fill:#049DFF;fill-rule:nonzero}
    .fil1 {fill:#DC0816;fill-rule:nonzero}
    .fil10 {fill:#E679A6;fill-rule:nonzero}
    .fil13 {fill:#E9E7C4;fill-rule:nonzero}
    .fil7 {fill:#EE8019;fill-rule:nonzero}
    .fil16 {fill:#EE8019;fill-rule:nonzero}
    .fil4 {fill:#F0BC00;fill-rule:nonzero}
    .fil19 {fill:#F0BC00;fill-rule:nonzero}
   ]]>
  </style>
 </defs>
 <g id="Layer_x0020_1">
  <metadata id="CorelCorpID_0Corel-Layer"/>
  <rect class="fil0" width="560.49" height="441.24"/>
  <g id="_2273864503280">
   <path class="fil1" d="M91.03 18.09c0,0 -69.37,0 -69.37,69.2l0 266.66c0,0 0,69.19 69.37,69.19l378.43 0c0,0 69.37,0 69.37,-69.19l0 -266.66c0,0 0,-69.2 -69.37,-69.2l-378.43 0z"/>
  </g>
  <path class="fil2" d="M227.28 369.09c4.6,0.37 105.57,0.07 108.6,-0.25 20.77,-2.19 37.03,-10.22 29.91,-32.96 -8.65,-27.6 -12.19,-30.37 2.19,-62.03 20.52,-45.16 17.05,-53.67 -4.34,-90.74 -21.49,-37.21 -58.5,-86.08 -83.4,-125.97 -24.89,39.89 -61.9,88.76 -83.39,125.97 -21.4,37.07 -24.86,45.58 -4.34,90.74 14.38,31.66 10.84,34.43 2.19,62.03 -7.43,23.71 10.56,31.42 32.58,33.21z"/>
  <path class="fil3" d="M229.27 377.03c-34.67,-1.83 -59.35,-13.91 -39.55,-60.76 5.82,-13.75 -4.53,-34.32 -11.62,-51.64 -8.21,-20.06 -16.61,-32.42 -1.48,-64.23 23.45,-49.33 72,-112.51 103.62,-160.47 31.62,47.94 80.18,111.15 103.63,160.47 15.13,31.81 6.73,44.17 -1.48,64.23 -7.09,17.32 -17.46,37.9 -11.62,51.64 18.92,44.56 -2.75,58.52 -35.08,60.07 -27.24,1.3 -80.17,2.07 -106.42,0.69zm50.97 -316.67c-24.37,39.06 -60.62,86.92 -81.67,123.38 -20.95,36.29 -24.34,44.63 -4.25,88.86 14.08,31.01 10.62,33.72 2.15,60.75 -7.28,23.22 10.34,30.77 31.91,32.52 4.5,0.37 103.39,0.07 106.35,-0.24 20.35,-2.15 36.27,-10.01 29.29,-32.28 -8.47,-27.03 -11.93,-29.74 2.15,-60.75 20.09,-44.23 16.7,-52.57 -4.25,-88.86 -21.05,-36.46 -57.3,-84.32 -81.68,-123.38z"/>
  <path class="fil3" d="M280.24 368.46l0 0c4.12,0 7.48,3.69 7.48,8.2l0 18.48c0,4.51 -3.36,8.2 -7.48,8.2l0 0c-4.11,0 -7.47,-3.69 -7.47,-8.2l0 -18.48c0,-4.51 3.36,-8.2 7.47,-8.2z"/>
  <path class="fil4" d="M400.19 162.89c4.14,-3.32 5.1,-7.76 7.84,-11.98 1.58,-2.45 4.03,-1.59 6.56,-0.77 5.16,1.67 9.96,3.81 15.33,4.83 5.59,1.06 11.54,1.17 17.16,0.29 5.54,-0.86 10.29,-3.16 13.6,-7.81 3.11,-4.35 5.23,-9.39 8.25,-13.82 4.37,-6.43 11.91,-13.77 20.22,-9.71 3.33,1.64 7.62,-0.5 8.95,-3.77 1.48,-3.64 -0.43,-7.31 -3.78,-8.95 -10.13,-4.97 -22.37,-0.95 -30.04,6.61 -4.36,4.28 -7.56,9.25 -10.58,14.53 -1.3,2.29 -2.47,4.69 -3.99,6.84 -1.29,1.84 -2.5,2.16 -4.71,2.5 -5.25,0.82 -10.74,0.5 -15.88,-0.89 -5.44,-1.47 -10.42,-4.39 -16.1,-5.07 -5.66,-0.67 -11.1,1.12 -14.85,5.47 -2.68,3.09 -3.41,8.44 -6.5,10.92 -6.9,5.54 1.61,16.33 8.52,10.78z"/>
  <path class="fil4" d="M162.22 150.44c-2.24,2.23 -6.16,-0.21 -7.93,-1.93 -3.33,-3.23 -5.26,-7.8 -7.43,-11.82 -5.07,-9.37 -12.06,-15.57 -22.22,-18.85 -8.49,-2.74 -17.45,-2.66 -26.2,-3.83 -7.5,-1 -16.23,-2.72 -20.91,-9.26 -5.13,-7.17 -16.65,0.33 -11.48,7.55 6.28,8.76 16.14,12.92 26.49,14.68 9.8,1.67 20.29,0.98 29.72,4.47 4.39,1.63 7.85,4.27 10.43,8.18 3.16,4.82 5.23,10.3 8.75,14.9 3.63,4.75 8.35,8.77 14.35,9.97 6.21,1.25 12.21,-0.44 16.68,-4.92 6.26,-6.24 -4,-15.39 -10.25,-9.14z"/>
  <path class="fil5" d="M221.41 79.61c0.12,-0.86 0.02,-1.69 -0.29,-2.48 -0.17,-0.83 -0.53,-1.57 -1.09,-2.22 -0.52,-0.72 -1.18,-1.25 -1.97,-1.6 -0.3,-0.2 -0.61,-0.36 -0.94,-0.49l-0.04 -0.02c-0.46,-0.17 -0.96,-0.28 -1.48,-0.32 -1.65,-0.09 -3.42,0.26 -4.7,1.38 -0.4,0.4 -0.79,0.81 -1.18,1.21 -0.37,0.51 -0.66,1.06 -0.87,1.64 -0.21,-0.13 -0.4,-0.28 -0.63,-0.39 -0.74,-0.49 -1.55,-0.77 -2.46,-0.83 -1.65,-0.09 -3.42,0.27 -4.7,1.38 -1.28,1.11 -2.36,2.68 -2.43,4.43 -0.07,1.64 0.1,2.91 0.7,4.44 0.36,0.88 0.88,1.76 1.55,2.44 0.52,0.55 1.06,1.13 1.68,1.58 0.63,0.46 1.37,0.82 2.06,1.18 0.91,0.46 1.98,0.65 2.95,0.85 0.98,0.19 2.08,0.11 3.03,0.02 0.23,-0.03 0.45,-0.07 0.68,-0.13 0.74,-0.2 1.53,-0.38 2.23,-0.72 2.02,-0.96 3.87,-2.47 5.1,-4.35 0.68,-1.04 1.3,-2.16 1.76,-3.32 0.48,-1.19 0.74,-2.44 1.04,-3.68z"/>
  <path class="fil6" d="M372.23 76.99c-0.49,-0.7 -1.12,-1.23 -1.91,-1.6 -0.74,-0.43 -1.54,-0.65 -2.39,-0.66 -0.86,-0.16 -1.72,-0.09 -2.56,0.21 -0.53,0.24 -1.06,0.49 -1.58,0.73 -0.96,0.63 -1.71,1.44 -2.24,2.45 -0.2,0.52 -0.39,1.04 -0.58,1.56 -0.26,1.15 -0.22,2.28 0.13,3.4l1.27 4.09c0.24,0.87 0.66,1.61 1.28,2.23 0.49,0.69 1.13,1.22 1.91,1.59 0.75,0.44 1.55,0.66 2.39,0.66 0.87,0.17 1.72,0.09 2.56,-0.21 0.53,-0.24 1.06,-0.49 1.58,-0.73 0.96,-0.62 1.71,-1.44 2.24,-2.45 0.2,-0.52 0.39,-1.04 0.58,-1.56 0.27,-1.14 0.22,-2.27 -0.13,-3.4l-1.27 -4.09c-0.23,-0.86 -0.66,-1.61 -1.28,-2.22z"/>
  <path class="fil4" d="M340.1 59.15c0.3,-0.79 0.39,-1.62 0.27,-2.47 -0.06,-0.86 -0.32,-1.65 -0.79,-2.36 -0.34,-0.81 -0.87,-1.48 -1.59,-2.01 -0.5,-0.3 -1,-0.61 -1.5,-0.9 -1.05,-0.46 -2.14,-0.62 -3.28,-0.51 -0.54,0.13 -1.08,0.26 -1.61,0.39 -1.1,0.42 -2.02,1.09 -2.76,2l-2.69 3.33c-0.59,0.68 -0.96,1.44 -1.13,2.3 -0.31,0.8 -0.4,1.62 -0.27,2.48 0.06,0.86 0.32,1.65 0.78,2.35 0.35,0.81 0.88,1.48 1.6,2.01 0.5,0.31 0.99,0.61 1.49,0.91 1.05,0.45 2.15,0.61 3.28,0.5 0.54,-0.13 1.08,-0.26 1.62,-0.39 1.1,-0.41 2.01,-1.08 2.75,-1.99l2.69 -3.34c0.59,-0.67 0.97,-1.44 1.14,-2.3z"/>
  <path class="fil7" d="M481.96 66.08c0.73,-0.47 1.3,-1.08 1.7,-1.83 0.52,-0.67 0.84,-1.43 0.98,-2.28 0.2,-0.86 0.18,-1.7 -0.07,-2.53 -0.04,-0.36 -0.12,-0.71 -0.23,-1.04l-0.02 -0.04c-0.16,-0.47 -0.4,-0.91 -0.72,-1.33 -1,-1.32 -2.42,-2.43 -4.1,-2.68 -0.56,-0.04 -1.12,-0.07 -1.68,-0.11 -0.63,0.05 -1.24,0.19 -1.81,0.41 -0.04,-0.25 -0.05,-0.49 -0.12,-0.73 -0.1,-0.88 -0.43,-1.69 -0.97,-2.41 -1,-1.32 -2.42,-2.43 -4.1,-2.68 -1.67,-0.25 -3.57,-0.05 -4.94,1.03 -1.3,1.02 -2.15,1.96 -2.92,3.42 -0.44,0.84 -0.77,1.81 -0.86,2.77 -0.07,0.74 -0.16,1.53 -0.1,2.29 0.06,0.79 0.26,1.58 0.45,2.34 0.23,0.99 0.78,1.92 1.27,2.8 0.48,0.86 1.26,1.65 1.95,2.31 0.17,0.16 0.34,0.3 0.54,0.43 0.63,0.44 1.28,0.92 1.99,1.23 2.05,0.91 4.39,1.34 6.63,1.05 1.23,-0.16 2.48,-0.42 3.66,-0.82 1.21,-0.41 2.33,-1.03 3.47,-1.6z"/>
  <path class="fil8" d="M433.84 67.07c-8.73,-4.19 -17.97,1.47 -20.63,10.33 -1.29,4.3 -0.85,8.8 -1.07,13.21 0,0.03 -0.21,1.66 -0.14,1.47 -0.14,0.73 -0.33,1.46 -0.58,2.15 -0.07,0.07 -0.46,0.83 -0.59,1.08 -0.08,0.07 -0.14,0.15 -0.25,0.26 0.46,-0.28 0.49,-0.29 0.08,-0.05 -0.41,0.24 -0.37,0.25 0.12,0.04 -0.72,0.45 -1,0.5 -0.86,0.17 -0.62,-0.02 -1.23,-0.05 -1.85,-0.1 -2.24,-0.2 -4.38,-0.67 -6.63,-0.63 -3.7,0.06 -7.44,0.76 -10.88,2.12 -7.35,2.91 -13.65,8.06 -17.34,15.13 -1.71,3.29 -0.84,7.46 2.47,9.4 3.08,1.81 7.67,0.84 9.39,-2.46 2.4,-4.61 6.33,-7.99 10.88,-9.46 3,-0.98 4.4,-1.2 7.71,-0.93 4.29,0.35 8.09,1.2 12.22,-0.59 7.11,-3.06 9.74,-10.84 10,-18.04 0.11,-3.25 -0.36,-6.65 0.7,-9.54 0.18,-0.54 0.19,-0.55 0.03,-0.05 0.32,-0.47 0.44,-0.68 0.39,-0.63 0.25,-0.24 0.59,-0.58 0.73,-0.7 0,0 0,0 0,0 -0.02,0.02 -0.02,0.03 -0.08,0.08 -0.24,0.21 -0.17,0.19 0.18,-0.04 3.14,1.07 6.67,0.25 8.47,-2.82 1.75,-3.01 0.89,-7.79 -2.47,-9.4z"/>
  <path class="fil9" d="M179.9 120.08c-8.51,-29.66 -35.11,-6.65 -51.88,-48.25 -5.56,-13.78 -1.11,-37.37 14.45,-37.38 3.44,-0.63 6.73,1.64 7.37,5.07 0.63,3.43 -1.64,6.73 -5.07,7.36 -1.25,0.15 -1.39,0.19 -1.64,0.2 -4.18,2.61 -5.85,9.62 -5.13,13.81 6.84,39.93 42.81,16.89 54.16,56.07 0.86,3.38 -1.19,6.82 -4.57,7.68 -3.38,0.86 -6.82,-1.18 -7.69,-4.56z"/>
  <path class="fil5" d="M89.61 58.86c-0.7,-0.48 -1.48,-0.77 -2.34,-0.85 -0.85,-0.15 -1.68,-0.09 -2.48,0.19 -0.86,0.14 -1.64,0.49 -2.33,1.06 -0.41,0.41 -0.83,0.82 -1.24,1.23 -0.69,0.91 -1.11,1.94 -1.28,3.07 0,0.55 -0.01,1.11 -0.01,1.66 0.14,1.16 0.57,2.21 1.27,3.15l2.59 3.42c0.51,0.73 1.17,1.28 1.96,1.66 0.7,0.48 1.47,0.76 2.33,0.85 0.86,0.15 1.68,0.09 2.48,-0.19 0.87,-0.14 1.64,-0.5 2.34,-1.06 0.41,-0.41 0.82,-0.82 1.23,-1.23 0.7,-0.92 1.12,-1.94 1.28,-3.07 0.01,-0.55 0.01,-1.11 0.02,-1.66 -0.14,-1.17 -0.57,-2.22 -1.28,-3.15l-2.59 -3.42c-0.51,-0.73 -1.16,-1.29 -1.95,-1.66z"/>
  <path class="fil10" d="M516.55 85.2c0.62,-0.58 1.06,-1.28 1.32,-2.11 0.32,-0.8 0.43,-1.62 0.32,-2.46 0.04,-0.88 -0.15,-1.71 -0.57,-2.51 -0.31,-0.49 -0.63,-0.98 -0.95,-1.46 -0.74,-0.87 -1.66,-1.49 -2.73,-1.88 -0.54,-0.12 -1.09,-0.24 -1.63,-0.36 -1.17,-0.09 -2.28,0.11 -3.34,0.6l-3.88 1.84c-0.82,0.35 -1.5,0.87 -2.02,1.57 -0.62,0.59 -1.06,1.29 -1.32,2.11 -0.32,0.81 -0.43,1.63 -0.32,2.47 -0.04,0.87 0.15,1.71 0.56,2.5 0.32,0.49 0.64,0.98 0.95,1.46 0.75,0.87 1.67,1.49 2.74,1.88 0.54,0.12 1.08,0.24 1.62,0.36 1.17,0.1 2.29,-0.1 3.35,-0.6l3.88 -1.83c0.82,-0.35 1.5,-0.88 2.02,-1.58z"/>
  <g id="_2273864508240">
   <path class="fil2" d="M473.94 221.61c-2.14,56.05 -83.61,9.21 -36.97,-28.71 29.55,-24.03 83.34,-3.05 66.84,51.94 -15.22,50.74 -74.56,25.38 -88.71,58.18 -1.06,3.33 -4.61,5.17 -7.94,4.12 -3.33,-1.06 -5.17,-4.61 -4.11,-7.94 19.23,-44.38 75.64,-14.46 88.62,-57.88 12.89,-43.12 -26.76,-54.97 -46.65,-38.68 -27.41,22.46 15.22,49.17 16.29,19.53 -0.16,-3.49 2.55,-6.44 6.04,-6.6 3.48,-0.15 6.43,2.56 6.59,6.04z"/>
   <path class="fil11" d="M86.55 221.61c2.14,56.05 83.61,9.21 36.97,-28.71 -29.55,-24.03 -83.34,-3.05 -66.84,51.94 15.22,50.74 74.56,25.38 88.71,58.18 1.06,3.33 4.61,5.17 7.94,4.12 3.32,-1.06 5.17,-4.61 4.11,-7.94 -19.24,-44.38 -75.64,-14.46 -88.62,-57.88 -12.89,-43.12 26.76,-54.97 46.65,-38.68 27.41,22.46 -15.22,49.17 -16.29,19.53 0.15,-3.49 -2.55,-6.44 -6.04,-6.6 -3.48,-0.15 -6.44,2.56 -6.59,6.04z"/>
  </g>
  <path class="fil12" d="M505.13 166.6c0.85,-0.01 1.65,-0.23 2.4,-0.66 0.78,-0.37 1.41,-0.9 1.9,-1.59 0.62,-0.62 1.05,-1.36 1.29,-2.23 0.09,-0.57 0.2,-1.14 0.29,-1.71 0.04,-1.15 -0.21,-2.23 -0.74,-3.24 -0.31,-0.46 -0.63,-0.91 -0.95,-1.36 -0.79,-0.87 -1.75,-1.48 -2.86,-1.83l-4.1 -1.28c-0.84,-0.3 -1.69,-0.37 -2.55,-0.22 -0.85,0.01 -1.65,0.23 -2.4,0.66 -0.78,0.37 -1.42,0.9 -1.91,1.6 -0.62,0.61 -1.05,1.36 -1.28,2.22 -0.1,0.57 -0.2,1.15 -0.3,1.72 -0.03,1.14 0.22,2.22 0.74,3.23 0.32,0.46 0.63,0.91 0.95,1.37 0.79,0.86 1.75,1.47 2.87,1.83l4.09 1.28c0.84,0.3 1.7,0.37 2.56,0.21z"/>
  <path class="fil13" d="M71.2 155.12c0.3,-0.79 0.39,-1.61 0.27,-2.47 -0.06,-0.86 -0.32,-1.65 -0.79,-2.36 -0.34,-0.8 -0.88,-1.47 -1.59,-2.01 -0.5,-0.3 -1,-0.6 -1.5,-0.9 -1.05,-0.46 -2.14,-0.62 -3.28,-0.5 -0.54,0.12 -1.08,0.25 -1.61,0.38 -1.1,0.42 -2.02,1.09 -2.76,2l-2.69 3.33c-0.59,0.68 -0.97,1.45 -1.13,2.3 -0.31,0.8 -0.4,1.62 -0.27,2.48 0.06,0.86 0.32,1.65 0.78,2.36 0.35,0.8 0.88,1.47 1.6,2 0.5,0.31 0.99,0.61 1.49,0.91 1.05,0.45 2.15,0.62 3.28,0.5 0.54,-0.13 1.08,-0.26 1.62,-0.38 1.1,-0.42 2.01,-1.09 2.75,-2l2.69 -3.34c0.59,-0.67 0.97,-1.44 1.14,-2.3z"/>
  <path class="fil14" d="M274.56 249.3c-1.07,-7.14 -6.44,-22.33 -10.49,-28.36 -8.05,-12 -22.18,-24.83 -32.76,-11.92 -29.7,36.25 45.54,98.32 66.5,113.34l-4.96 11.62c-29.12,-20.24 -108.57,-87.71 -71.32,-132.97 16.37,-19.9 40.83,-5.96 52.53,12.27 2.55,-21.25 11.01,-42.16 32.16,-44.85 49.2,-6.24 43.19,55.01 29.64,90.82 -2.58,6.83 -15.94,33.12 -20.06,41.99l-12.46 -2.14c10.4,-23.05 21.69,-44.72 26.75,-69.21 4.57,-22.12 3.72,-45.21 -17,-48.76 -29.17,-5.01 -28.64,49.62 -26.42,64.55l-12.11 3.62z"/>
  <path class="fil4" d="M476.43 307.05c-6.69,-7.02 -17.33,-5 -22.95,2.35 -2.73,3.56 -3.92,7.92 -5.69,11.97 -0.01,0.03 -0.78,1.48 -0.65,1.33 -0.39,0.63 -0.82,1.24 -1.31,1.8 -0.08,0.04 -0.72,0.61 -0.93,0.8 -0.09,0.05 -0.19,0.09 -0.32,0.16 0.53,-0.1 0.56,-0.1 0.09,-0.01 -0.47,0.07 -0.43,0.09 0.09,0.07 -0.82,0.17 -1.11,0.12 -0.85,-0.15 -0.58,-0.23 -1.14,-0.48 -1.7,-0.75 -2.02,-0.98 -3.86,-2.17 -5.98,-2.94 -3.48,-1.25 -7.23,-1.92 -10.92,-1.86 -7.91,0.11 -15.63,2.7 -21.58,8.01 -2.77,2.46 -3.43,6.67 -1.02,9.66 2.24,2.78 6.88,3.5 9.65,1.02 3.88,-3.45 8.75,-5.22 13.53,-4.99 3.15,0.15 4.54,0.43 7.54,1.86 3.88,1.85 7.14,3.99 11.63,3.78 7.74,-0.35 12.95,-6.69 15.75,-13.33 1.25,-2.99 2.02,-6.34 4.03,-8.67 0.36,-0.44 0.37,-0.45 0.05,-0.04 0.46,-0.33 0.65,-0.48 0.58,-0.45 0.32,-0.14 0.76,-0.33 0.93,-0.4 0.01,0 0.01,0 0.01,0.01 -0.03,0.01 -0.04,0.01 -0.11,0.04 -0.3,0.11 -0.23,0.12 0.19,0.03 2.55,2.12 6.14,2.59 8.91,0.36 2.71,-2.19 3.6,-6.97 1.03,-9.66z"/>
  <path class="fil6" d="M190.9 42.38c-0.49,-0.69 -1.12,-1.22 -1.9,-1.6 -0.75,-0.43 -1.55,-0.65 -2.4,-0.66 -0.86,-0.16 -1.71,-0.09 -2.56,0.21 -0.52,0.25 -1.05,0.49 -1.58,0.74 -0.96,0.62 -1.7,1.44 -2.24,2.45 -0.19,0.52 -0.38,1.04 -0.58,1.55 -0.26,1.15 -0.21,2.28 0.13,3.4l1.28 4.1c0.23,0.86 0.66,1.6 1.28,2.22 0.49,0.69 1.12,1.22 1.9,1.6 0.75,0.43 1.55,0.65 2.4,0.66 0.86,0.16 1.71,0.09 2.56,-0.21 0.52,-0.25 1.05,-0.49 1.58,-0.74 0.96,-0.62 1.7,-1.44 2.24,-2.45 0.19,-0.52 0.39,-1.03 0.58,-1.55 0.26,-1.15 0.22,-2.28 -0.13,-3.4l-1.28 -4.1c-0.23,-0.86 -0.66,-1.6 -1.28,-2.22z"/>
  <path class="fil4" d="M239.24 51.07c0.3,-0.79 0.39,-1.61 0.27,-2.47 -0.06,-0.86 -0.32,-1.65 -0.78,-2.36 -0.35,-0.8 -0.88,-1.47 -1.6,-2.01 -0.5,-0.3 -0.99,-0.6 -1.49,-0.9 -1.05,-0.46 -2.15,-0.62 -3.28,-0.5 -0.54,0.12 -1.08,0.25 -1.62,0.38 -1.1,0.42 -2.01,1.09 -2.75,2l-2.7 3.33c-0.58,0.68 -0.96,1.45 -1.13,2.31 -0.3,0.79 -0.39,1.61 -0.27,2.47 0.06,0.86 0.32,1.65 0.79,2.36 0.34,0.8 0.87,1.47 1.59,2 0.5,0.31 1,0.61 1.49,0.91 1.06,0.45 2.15,0.62 3.28,0.5 0.55,-0.13 1.08,-0.26 1.62,-0.38 1.1,-0.42 2.01,-1.09 2.75,-2l2.7 -3.34c0.59,-0.67 0.96,-1.44 1.13,-2.3z"/>
  <path class="fil5" d="M388.85 52.67c0.62,-0.61 1.05,-1.32 1.29,-2.14 0.37,-0.76 0.53,-1.56 0.49,-2.43 0.02,-0.88 -0.18,-1.7 -0.59,-2.46 -0.11,-0.34 -0.26,-0.66 -0.44,-0.97l-0.02 -0.03c-0.26,-0.43 -0.59,-0.81 -0.98,-1.16 -1.25,-1.08 -2.87,-1.88 -4.57,-1.78 -0.55,0.08 -1.11,0.17 -1.67,0.25 -0.61,0.17 -1.17,0.44 -1.69,0.76 -0.08,-0.22 -0.14,-0.46 -0.26,-0.68 -0.28,-0.84 -0.76,-1.56 -1.44,-2.16 -1.25,-1.08 -2.87,-1.88 -4.57,-1.78 -1.69,0.1 -3.51,0.69 -4.62,2.03 -1.06,1.26 -1.7,2.37 -2.15,3.95 -0.26,0.91 -0.38,1.93 -0.27,2.88 0.08,0.75 0.15,1.54 0.37,2.27 0.22,0.76 0.58,1.49 0.92,2.19 0.44,0.92 1.16,1.73 1.82,2.48 0.65,0.75 1.57,1.36 2.38,1.86 0.2,0.12 0.4,0.22 0.62,0.31 0.71,0.3 1.45,0.64 2.21,0.8 2.19,0.46 4.56,0.4 6.7,-0.35 1.17,-0.41 2.34,-0.91 3.41,-1.55 1.1,-0.65 2.07,-1.49 3.06,-2.29z"/>
  <path class="fil15" d="M241.85 327.71c0.06,-0.87 -0.09,-1.69 -0.46,-2.46 -0.23,-0.81 -0.64,-1.52 -1.24,-2.14 -0.58,-0.67 -1.27,-1.16 -2.08,-1.45 -0.32,-0.18 -0.64,-0.32 -0.97,-0.42l-0.04 -0.02c-0.48,-0.14 -0.98,-0.21 -1.5,-0.21 -1.66,0.02 -3.4,0.5 -4.6,1.7 -0.36,0.43 -0.72,0.86 -1.08,1.29 -0.34,0.54 -0.59,1.11 -0.76,1.7 -0.21,-0.12 -0.42,-0.25 -0.66,-0.34 -0.76,-0.44 -1.6,-0.66 -2.5,-0.65 -1.66,0.02 -3.4,0.5 -4.6,1.7 -1.19,1.2 -2.16,2.85 -2.1,4.6 0.04,1.64 0.3,2.89 1.01,4.37 0.41,0.86 1,1.7 1.72,2.33 0.56,0.51 1.13,1.05 1.78,1.46 0.67,0.41 1.43,0.72 2.14,1.02 0.94,0.4 2.02,0.52 3.01,0.64 0.99,0.13 2.08,-0.03 3.02,-0.19 0.23,-0.04 0.45,-0.1 0.67,-0.18 0.73,-0.24 1.5,-0.48 2.17,-0.87 1.95,-1.11 3.68,-2.74 4.78,-4.71 0.61,-1.08 1.15,-2.24 1.52,-3.43 0.39,-1.22 0.56,-2.49 0.77,-3.74z"/>
  <path class="fil16" d="M335.62 340.98c0.61,-0.62 1.02,-1.35 1.24,-2.17 0.35,-0.77 0.49,-1.58 0.42,-2.44 0,-0.89 -0.22,-1.7 -0.65,-2.45 -0.12,-0.34 -0.28,-0.66 -0.47,-0.95l-0.02 -0.04c-0.27,-0.42 -0.61,-0.8 -1.01,-1.13 -1.27,-1.05 -2.91,-1.8 -4.61,-1.66 -0.55,0.09 -1.1,0.19 -1.66,0.28 -0.6,0.2 -1.16,0.47 -1.67,0.81 -0.09,-0.22 -0.16,-0.46 -0.28,-0.68 -0.31,-0.83 -0.8,-1.54 -1.5,-2.12 -1.28,-1.05 -2.92,-1.8 -4.61,-1.66 -1.68,0.14 -3.48,0.79 -4.57,2.15 -1.02,1.29 -1.64,2.41 -2.05,4 -0.23,0.92 -0.32,1.94 -0.19,2.89 0.1,0.75 0.19,1.54 0.42,2.26 0.24,0.75 0.63,1.48 0.98,2.17 0.46,0.91 1.21,1.69 1.88,2.43 0.68,0.73 1.61,1.31 2.44,1.8 0.2,0.11 0.4,0.21 0.62,0.29 0.72,0.28 1.46,0.6 2.23,0.74 2.2,0.41 4.57,0.28 6.69,-0.51 1.16,-0.44 2.32,-0.98 3.37,-1.65 1.09,-0.67 2.03,-1.54 3,-2.36z"/>
  <path class="fil15" d="M256.03 156.03c-0.49,-0.69 -1.12,-1.23 -1.9,-1.6 -0.75,-0.43 -1.55,-0.65 -2.4,-0.66 -0.86,-0.16 -1.71,-0.09 -2.56,0.21 -0.52,0.24 -1.05,0.49 -1.58,0.74 -0.96,0.62 -1.7,1.44 -2.24,2.44 -0.19,0.52 -0.39,1.04 -0.58,1.56 -0.26,1.15 -0.22,2.28 0.13,3.4l1.27 4.09c0.24,0.87 0.66,1.61 1.29,2.23 0.49,0.69 1.12,1.22 1.9,1.6 0.75,0.43 1.55,0.65 2.4,0.65 0.86,0.17 1.71,0.09 2.55,-0.2 0.53,-0.25 1.06,-0.49 1.59,-0.74 0.96,-0.62 1.7,-1.44 2.24,-2.45 0.19,-0.52 0.38,-1.04 0.58,-1.56 0.26,-1.14 0.21,-2.27 -0.13,-3.39l-1.28 -4.1c-0.23,-0.86 -0.66,-1.6 -1.28,-2.22z"/>
  <path class="fil7" d="M300.68 148.65c0.73,-0.47 1.3,-1.08 1.7,-1.83 0.52,-0.67 0.85,-1.42 0.98,-2.27 0.2,-0.87 0.18,-1.71 -0.07,-2.54 -0.04,-0.36 -0.12,-0.7 -0.23,-1.03l-0.01 -0.04c-0.17,-0.47 -0.41,-0.92 -0.72,-1.34 -1,-1.31 -2.43,-2.43 -4.11,-2.68 -0.56,-0.03 -1.12,-0.07 -1.68,-0.11 -0.63,0.05 -1.23,0.2 -1.81,0.41 -0.03,-0.24 -0.05,-0.49 -0.12,-0.73 -0.1,-0.88 -0.42,-1.68 -0.96,-2.41 -1,-1.32 -2.43,-2.43 -4.11,-2.68 -1.67,-0.25 -3.57,-0.04 -4.94,1.04 -1.29,1.01 -2.15,1.96 -2.92,3.41 -0.44,0.84 -0.76,1.82 -0.85,2.77 -0.08,0.75 -0.17,1.54 -0.11,2.3 0.06,0.78 0.26,1.57 0.45,2.33 0.24,0.99 0.78,1.93 1.27,2.8 0.49,0.86 1.26,1.65 1.95,2.31 0.17,0.16 0.35,0.3 0.54,0.43 0.63,0.44 1.28,0.92 1.99,1.24 2.05,0.9 4.39,1.33 6.63,1.04 1.23,-0.16 2.48,-0.41 3.66,-0.82 1.21,-0.4 2.33,-1.02 3.47,-1.6z"/>
  <path class="fil12" d="M278.27 112.04c0.3,-0.79 0.39,-1.61 0.27,-2.47 -0.06,-0.86 -0.32,-1.65 -0.79,-2.36 -0.34,-0.8 -0.88,-1.47 -1.59,-2.01 -0.5,-0.3 -1,-0.6 -1.5,-0.9 -1.05,-0.46 -2.14,-0.62 -3.28,-0.5 -0.54,0.12 -1.08,0.25 -1.61,0.38 -1.1,0.42 -2.02,1.09 -2.76,2l-2.69 3.33c-0.59,0.68 -0.96,1.45 -1.13,2.3 -0.31,0.8 -0.4,1.62 -0.27,2.48 0.06,0.86 0.32,1.65 0.78,2.36 0.35,0.8 0.88,1.47 1.6,2 0.5,0.31 0.99,0.61 1.49,0.91 1.05,0.45 2.15,0.62 3.28,0.5 0.54,-0.13 1.08,-0.26 1.62,-0.38 1.1,-0.42 2.01,-1.09 2.75,-2l2.69 -3.34c0.59,-0.67 0.97,-1.44 1.14,-2.3z"/>
  <path class="fil8" d="M150.68 352.08c-4.51,-2.81 -5.99,-7.11 -9.2,-10.97 -1.86,-2.24 -4.19,-1.11 -6.61,0.01 -4.93,2.26 -9.44,4.96 -14.65,6.61 -5.43,1.71 -11.33,2.52 -17.01,2.31 -5.6,-0.2 -10.59,-1.93 -14.43,-6.15 -3.59,-3.96 -6.3,-8.71 -9.82,-12.75 -5.09,-5.87 -13.46,-12.27 -21.22,-7.25 -3.12,2.01 -7.63,0.4 -9.34,-2.69 -1.9,-3.44 -0.43,-7.32 2.7,-9.34 9.47,-6.12 22.1,-3.58 30.61,3.02 4.83,3.74 8.6,8.3 12.22,13.18 1.56,2.12 3.01,4.37 4.77,6.33 1.5,1.67 2.74,1.84 4.97,1.92 5.31,0.19 10.73,-0.77 15.67,-2.76 5.23,-2.1 9.83,-5.59 15.39,-6.94 5.54,-1.33 11.15,-0.19 15.39,3.68 3.02,2.75 4.38,7.98 7.74,10.08 7.51,4.68 0.34,16.4 -7.18,11.71z"/>
  <path class="fil13" d="M119.28 307.09c0.31,-0.79 0.4,-1.62 0.27,-2.47 -0.06,-0.87 -0.32,-1.65 -0.78,-2.36 -0.35,-0.81 -0.88,-1.48 -1.6,-2.01 -0.5,-0.3 -0.99,-0.61 -1.49,-0.9 -1.05,-0.46 -2.15,-0.62 -3.28,-0.51 -0.54,0.13 -1.08,0.26 -1.62,0.39 -1.1,0.42 -2.01,1.09 -2.75,1.99l-2.69 3.34c-0.59,0.68 -0.97,1.44 -1.14,2.3 -0.3,0.8 -0.39,1.62 -0.27,2.48 0.06,0.86 0.32,1.64 0.79,2.35 0.34,0.81 0.88,1.48 1.59,2.01 0.5,0.3 1,0.61 1.5,0.91 1.05,0.45 2.14,0.61 3.28,0.5 0.54,-0.13 1.07,-0.26 1.61,-0.39 1.1,-0.42 2.02,-1.08 2.75,-1.99l2.7 -3.34c0.59,-0.67 0.97,-1.44 1.13,-2.3z"/>
  <path class="fil13" d="M516.03 301.39c0.3,-0.79 0.39,-1.61 0.26,-2.47 -0.06,-0.86 -0.32,-1.65 -0.78,-2.36 -0.35,-0.8 -0.88,-1.47 -1.6,-2.01 -0.49,-0.3 -0.99,-0.6 -1.49,-0.9 -1.05,-0.45 -2.14,-0.62 -3.28,-0.5 -0.54,0.13 -1.08,0.26 -1.62,0.38 -1.09,0.43 -2.01,1.09 -2.75,2l-2.69 3.34c-0.59,0.67 -0.97,1.44 -1.14,2.3 -0.3,0.79 -0.39,1.61 -0.27,2.47 0.06,0.86 0.32,1.65 0.79,2.36 0.34,0.81 0.88,1.47 1.59,2.01 0.5,0.3 1,0.6 1.5,0.9 1.05,0.46 2.14,0.62 3.28,0.5 0.54,-0.12 1.08,-0.25 1.62,-0.38 1.09,-0.42 2.01,-1.09 2.75,-2l2.69 -3.34c0.59,-0.67 0.97,-1.44 1.14,-2.3z"/>
  <path class="fil17" d="M98.21 371.22c24.57,14.56 40,21.04 64.53,5.97l4.48 -4.32 3.79 11.85c-24.34,19.64 -54.16,12.25 -78.96,-2.46l6.16 -11.04z"/>
  <path class="fil18" d="M392.7 367.09c18.71,9.11 15.89,15.1 49.48,16.36 31.06,1.16 41.9,-14.54 53.51,-38.91 1.87,-3.93 16.21,-6.23 13.34,1.27 -15.37,40.15 -40.77,56.12 -83.31,48.35 -29.1,-5.32 -21.94,-7.75 -37.79,-15.37l4.77 -11.7z"/>
  <path class="fil12" d="M441.92 362.6c-0.27,0.81 -0.32,1.63 -0.16,2.49 0.1,0.85 0.39,1.63 0.89,2.32 0.38,0.78 0.94,1.43 1.69,1.93 0.5,0.28 1.01,0.56 1.52,0.84 1.07,0.41 2.17,0.52 3.3,0.36 0.54,-0.16 1.07,-0.31 1.6,-0.46 1.08,-0.47 1.97,-1.18 2.66,-2.12l2.55 -3.45c0.55,-0.7 0.9,-1.48 1.03,-2.35 0.27,-0.81 0.32,-1.63 0.16,-2.48 -0.1,-0.86 -0.4,-1.63 -0.89,-2.32 -0.38,-0.79 -0.94,-1.44 -1.68,-1.94 -0.52,-0.28 -1.03,-0.56 -1.54,-0.84 -1.06,-0.4 -2.17,-0.52 -3.29,-0.35 -0.54,0.15 -1.07,0.3 -1.6,0.46 -1.08,0.46 -1.97,1.17 -2.66,2.11l-2.55 3.45c-0.56,0.7 -0.9,1.49 -1.03,2.35z"/>
  <path class="fil13" d="M360.12 402.45c0.85,-0.07 1.63,-0.34 2.35,-0.82 0.76,-0.42 1.36,-0.99 1.8,-1.71 0.58,-0.66 0.96,-1.42 1.14,-2.3 0.06,-0.58 0.13,-1.16 0.18,-1.73 -0.03,-1.15 -0.35,-2.21 -0.94,-3.19 -0.35,-0.43 -0.69,-0.86 -1.04,-1.3 -0.85,-0.81 -1.84,-1.35 -2.98,-1.64l-4.16 -1.01c-0.86,-0.24 -1.72,-0.26 -2.57,-0.05 -0.85,0.07 -1.63,0.34 -2.35,0.81 -0.76,0.42 -1.36,1 -1.8,1.72 -0.58,0.65 -0.96,1.42 -1.14,2.3 -0.06,0.58 -0.12,1.15 -0.18,1.73 0.04,1.15 0.36,2.21 0.95,3.18 0.34,0.44 0.69,0.87 1.03,1.3 0.85,0.82 1.84,1.36 2.98,1.64l4.17 1.02c0.86,0.24 1.71,0.26 2.56,0.05z"/>
  <path class="fil19" d="M203.41 402.4c0.67,-0.52 1.16,-1.18 1.5,-1.98 0.39,-0.77 0.57,-1.58 0.53,-2.43 0.11,-0.87 0,-1.72 -0.34,-2.54 -0.28,-0.52 -0.55,-1.03 -0.82,-1.54 -0.67,-0.93 -1.53,-1.63 -2.57,-2.11 -0.53,-0.17 -1.06,-0.33 -1.58,-0.5 -1.16,-0.2 -2.29,-0.1 -3.39,0.31l-4.02 1.49c-0.85,0.28 -1.57,0.74 -2.15,1.39 -0.67,0.53 -1.17,1.19 -1.5,1.99 -0.39,0.77 -0.57,1.58 -0.53,2.43 -0.12,0.87 0,1.71 0.34,2.54 0.28,0.51 0.55,1.03 0.82,1.54 0.67,0.93 1.53,1.63 2.56,2.11 0.53,0.17 1.06,0.33 1.59,0.5 1.16,0.2 2.29,0.09 3.39,-0.31l4.02 -1.49c0.85,-0.28 1.57,-0.74 2.15,-1.4z"/>
  <path class="fil13" d="M63.9 368.78c0.84,-0.07 1.63,-0.34 2.35,-0.81 0.75,-0.42 1.35,-0.99 1.8,-1.72 0.58,-0.65 0.96,-1.42 1.14,-2.3 0.06,-0.58 0.12,-1.15 0.18,-1.73 -0.04,-1.15 -0.36,-2.21 -0.95,-3.18 -0.34,-0.44 -0.69,-0.87 -1.03,-1.3 -0.85,-0.81 -1.84,-1.36 -2.98,-1.64l-4.17 -1.02c-0.86,-0.24 -1.71,-0.26 -2.56,-0.04 -0.85,0.06 -1.63,0.33 -2.36,0.81 -0.75,0.42 -1.35,0.99 -1.79,1.71 -0.59,0.65 -0.96,1.42 -1.14,2.3 -0.06,0.58 -0.13,1.16 -0.18,1.73 0.03,1.15 0.35,2.21 0.94,3.19 0.35,0.43 0.69,0.86 1.04,1.3 0.84,0.81 1.84,1.35 2.98,1.63l4.16 1.02c0.86,0.25 1.72,0.26 2.57,0.05z"/>
 </g>
</svg>
