<?xml version="1.0" encoding="UTF-8" standalone="no"?>
<svg xmlns="http://www.w3.org/2000/svg" height="475.47699" width="352.44501" version="1.1" viewBox="0 -55.708 352.445 475.477">
  <g>
    <path fill="#b3b3b3" d="m293.925 90.621c0 79.709-64.62 144.328-144.334 144.328-79.707 0-144.326-64.619-144.326-144.328 0-79.712 64.619-144.329 144.326-144.329 79.714 0 144.334 64.617 144.334 144.329z"/>
    <circle cx="156.37601" cy="97.400002" r="137.55" fill="#8f0000"/>
    <path fill="#b3b3b3" d="m156.853 27.664s65.544 24.929 106.87 34.849c14.09 3.382-0.563-1.689-0.563-1.689l-6.764 34.371-136.924-46.205 37.381-21.326z"/>
    <polygon points="234.1 24.642 201.917 44.352 205.021 77.252 228.175 52.438" fill="#666"/>
    <polygon points="132.634 50.002 128.582 14.188 162.335 0.849 156.853 27.664" fill="#666"/>
    <path fill="#666" d="m126.791 174.389 20.217 36.674 40.13-39.283s-11.88-41.141 13.622-49.394c7.326-2.37-62.98 18.525-62.98 18.525l-10.989 33.478z"/>
    <polygon points="256.498 245.932 279.394 63.935 300.735 46.846 285.682 186.459" fill="#666"/>
    <path fill="#b3b3b3" d="m306.733 86.25c8.612 1.065 20.771 4.184 28.675 13.064 37.807 42.509-17.197 86.458-17.197 86.458l-43.35-73.336 21.68-26.674s4.25-0.243 10.192 0.488"/>
    <path fill="#b3b3b3" d="m64.5 63.4s19.754-24.074 45.771-25.065c11.468-0.431 2.681 20.567 2.681 20.567l-8.928 12.356-39.524-7.858z"/>
    <path fill="#fff" d="m315.992 127.667c-14.123-17.62-34.972-16.126-41.131-15.231l6.625-46.796s-9.922-2.441-42.956-12.746l-2.581 32.177-30.643-10.256 3.762-31.783c-0.09 0.12-37.166-13.449-37.289-13.336l-2.773 32.968-36.373-12.661 2.841-31.97-34.344-11.135 1.908 48.466c-8.957-5.902-21.725-9.051-35.34 4.56-16.878 16.876-10.323 51.265 12.74 62.096 11.946 5.607 19.998 7.041 25.367 6.844l2.11 56.156s15.939 12.861 39.09 26.043c-4.049-12.14-12.274-43.244 4.25-56.856 17.783-14.642 47.531-16.188 64.627 18.578 14.049 28.563-1.144 51.387-9.227 60.606 25.399 6.721 49.842 12.541 49.842 12.541l8.101-58.893c6.403 3.488 23.592 11.923 35.459 8.934 34.331-8.664 33.101-46.886 15.935-68.306z"/>
    <polygon points="234.1 24.642 209.068 43.031 171.78 29.695 199.973 13.214" fill="#b3b3b3"/>
    <polygon points="162.335 0.849 135.474 18.032 101.13 6.898 133.744 -8.954" fill="#b3b3b3"/>
    <polygon points="300.735 46.846 281.486 67.273 238.53 52.893 264.921 34.96" fill="#b3b3b3"/>
  </g>
  <g fill="#4d4d4d">
    <path d="m47.367 272.261c-0.365-0.362-0.365-1.639 0-2.002 2.428 0.06 5.098 0.121 6.676 0.121s3.035-0.06 5.279-0.121c0.364 0.363 0.364 1.64 0 2.002-3.338 0.183-4.49 1.578-5.219 3.702l-11.956 32.895c-0.304 0.912-0.789 1.396-1.64 1.396-0.789 0-1.518-0.425-1.881-1.457l-7.102-21.545c-0.279-0.838-0.607-1.699-0.85-1.699-0.305 0-0.607 0.789-0.85 1.518l-8.437 21.728c-0.304 0.851-0.851 1.457-1.7 1.457-0.91 0-1.578-0.485-1.881-1.457l-11.042-33.018c-1.093-3.26-1.761-3.338-4.491-3.521-0.363-0.363-0.363-1.639 0-2.002 2.428 0.061 3.216 0.121 5.645 0.121 2.367 0 4.854-0.061 6.857-0.121 0.364 0.363 0.364 1.639 0 2.002-2.125 0.122-3.727 0.413-3.035 2.551l9.104 27.979h0.122l7.646-20.089c0.291-0.771 0.426-1.519 0.426-2.308 0-0.545-0.067-0.971-0.305-1.699l-0.91-2.791c-0.51-1.571-2.062-3.459-5.279-3.643-0.364-0.363-0.364-1.639 0-2.002 2.428 0.061 3.701 0.121 6.068 0.121 2.428 0 4.553-0.061 7.404-0.121 0.363 0.363 0.363 1.639 0 2.002-2.062 0.184-4.212 0.371-3.156 3.643l8.74 27.008h0.121l9.65-27.676c0.905-2.59-1.517-2.792-4.004-2.974z"/>
    <path d="m78.136 307.645c0.363 0.363 0.363 1.639 0 2.002-3.035-0.06-4.795-0.121-7.829-0.121-3.095 0-4.916 0.061-7.89 0.121-0.364-0.363-0.364-1.639 0-2.002 4.248-0.183 5.279-0.485 5.279-5.522v-24.337c0-5.037-1.031-5.342-5.279-5.523-0.364-0.363-0.364-1.639 0-2.002 3.033 0.061 4.793 0.121 7.828 0.121 3.096 0 4.916-0.061 7.891-0.121 0.363 0.363 0.363 1.639 0 2.002-4.249 0.184-5.28 0.486-5.28 5.523v24.337c-0.001 5.035 1.031 5.339 5.28 5.522z"/>
    <path d="m97.617 307.645c0.364 0.363 0.364 1.639 0 2.002-3.035-0.06-4.793-0.121-7.828-0.121-3.096 0-4.916 0.061-7.891 0.121-0.363-0.363-0.363-1.639 0-2.002 4.248-0.183 5.28-0.485 5.28-5.522v-24.337c0-5.037-1.032-5.342-5.28-5.523-0.363-0.363-0.363-1.639 0-2.002 3.034 0.061 4.794 0.121 7.829 0.121 3.095 0 4.916-0.061 7.89-0.121 0.364 0.363 0.364 1.639 0 2.002-4.248 0.184-5.279 0.486-5.279 5.523v10.662c2.125-0.182 3.393-1.073 4.613-2.348l10.195-10.683c2.919-3.241 0.492-2.949-1.699-3.156-0.363-0.362-0.363-1.639 0-2.002 2.854 0.06 4.432 0.121 6.858 0.121 2.428 0 2.913-0.06 5.766-0.121 0.364 0.363 0.364 1.64 0 2.002-2.427 0.304-5.098 0.425-7.89 3.399l-8.497 9.164c-1.985 2.143-2.246 2.549-2.246 2.974 0 0.485 0.183 0.91 0.728 1.519l13.293 15.778c2.039 2.525 4.254 2.392 5.34 2.55 0.365 0.363 0.365 1.639 0 2.002-2.853-0.06-3.762-0.121-6.129-0.121-1.821 0-2.854 0.061-4.066 0.121-0.243 0-0.303-0.182-0.303-0.363 0-1.104 0-2.719-1.215-4.188l-9.893-12.017c-1.214-1.561-2.816-2.239-4.855-2.301v11.344c-0.001 5.036 1.031 5.34 5.279 5.523z"/>
    <path d="m138.521 307.645c0.363 0.363 0.363 1.639 0 2.002-3.035-0.06-4.794-0.121-7.829-0.121-3.095 0-4.916 0.061-7.89 0.121-0.364-0.363-0.364-1.639 0-2.002 4.248-0.183 5.279-0.485 5.279-5.522v-24.337c0-5.037-1.031-5.342-5.279-5.523-0.364-0.363-0.364-1.639 0-2.002 3.033 0.061 4.794 0.121 7.828 0.121 3.096 0 4.916-0.061 7.891-0.121 0.363 0.363 0.363 1.639 0 2.002-4.249 0.184-5.279 0.486-5.279 5.523v24.337c0 5.035 1.031 5.339 5.279 5.522z"/>
  </g>
  <g fill="#8f0000">
    <path d="m163.88 270.372h10.875v39.125h-10.875v-39.125z"/>
    <path d="m180.341 295.391c0-4.324 1.462-7.887 4.386-10.688 2.925-2.804 6.872-4.204 11.847-4.204 5.688 0 9.984 1.646 12.891 4.938 2.334 2.651 3.502 5.916 3.502 9.795 0 4.359-1.448 7.933-4.346 10.717-2.896 2.785-6.904 4.177-12.02 4.177-4.564 0-8.256-1.156-11.071-3.47-3.46-2.868-5.189-6.622-5.189-11.265zm10.875-0.032c0 2.518 0.514 4.377 1.543 5.582s2.32 1.808 3.877 1.808c1.574 0 2.865-0.593 3.877-1.78 1.01-1.188 1.516-3.092 1.516-5.714 0-2.444-0.51-4.266-1.529-5.462-1.02-1.195-2.281-1.794-3.783-1.794-1.592 0-2.905 0.606-3.942 1.819-1.04 1.215-1.559 3.062-1.559 5.541z"/>
    <path d="m213.07 281.122h11.311l5.533 17.981 5.692-17.981h10.964l-12.037 28.375h-9.646l-11.817-28.375z"/>
    <path d="m279.808 297.997h-21.812c0.195 1.748 0.67 3.049 1.42 3.903 1.053 1.23 2.428 1.847 4.125 1.847 1.069 0 2.088-0.271 3.053-0.812 0.59-0.344 1.224-0.947 1.902-1.813l10.688 1c-1.639 2.854-3.616 4.901-5.932 6.142-2.316 1.238-5.639 1.858-9.967 1.858-3.759 0-6.716-0.529-8.871-1.588-2.156-1.06-3.94-2.739-5.356-5.044s-2.124-5.014-2.124-8.127c0-4.43 1.421-8.016 4.263-10.756 2.843-2.74 6.767-4.11 11.772-4.11 4.064 0 7.271 0.614 9.623 1.841 2.352 1.229 4.143 3.006 5.371 5.336 1.229 2.33 1.846 5.361 1.846 9.096v1.227h-0.001zm-11.062-5.186c-0.215-2.102-0.781-3.604-1.699-4.514-0.918-0.908-2.125-1.361-3.623-1.361-1.729 0-3.111 0.686-4.146 2.057-0.659 0.854-1.079 2.127-1.257 3.818h10.725z"/>
    <path d="m282.843 301.561 10.812-1c0.443 1.299 1.065 2.229 1.864 2.787 0.799 0.557 1.864 0.838 3.196 0.838 1.455 0 2.582-0.312 3.382-0.934 0.62-0.462 0.933-1.039 0.933-1.732 0-0.781-0.412-1.386-1.238-1.812-0.594-0.303-2.153-0.675-4.682-1.119-3.773-0.656-6.395-1.266-7.861-1.826-1.469-0.561-2.705-1.508-3.711-2.842s-1.508-2.855-1.508-4.562c0-1.867 0.543-3.479 1.631-4.83 1.086-1.353 2.582-2.361 4.487-3.028 1.906-0.667 4.462-1.001 7.668-1.001 3.384 0 5.882 0.26 7.494 0.779 1.61 0.52 2.956 1.324 4.034 2.416s1.973 2.567 2.686 4.43l-10.312 1c-0.268-0.913-0.711-1.585-1.332-2.016-0.854-0.572-1.883-0.859-3.09-0.859-1.227 0-2.118 0.218-2.678 0.652-0.56 0.437-0.838 0.965-0.838 1.586 0 0.693 0.35 1.218 1.051 1.572 0.701 0.355 2.244 0.676 4.629 0.961 3.611 0.407 6.299 0.977 8.062 1.705s3.11 1.768 4.046 3.116c0.934 1.351 1.4 2.833 1.4 4.449 0 1.635-0.494 3.226-1.48 4.771-0.988 1.545-2.545 2.775-4.67 3.689-2.126 0.914-5.021 1.372-8.686 1.372-5.178 0-8.863-0.742-11.061-2.228-2.198-1.487-3.607-3.597-4.228-6.334z"/>
  </g>
  <g fill="#4d4d4d">
    <path d="m8.007 326.044h8.965v3.673c1.291-1.529 2.594-2.617 3.908-3.265 1.313-0.647 2.9-0.972 4.76-0.972 1.999 0 3.581 0.355 4.746 1.065 1.164 0.71 2.117 1.767 2.857 3.17 1.508-1.641 2.881-2.756 4.121-3.348 1.24-0.593 2.771-0.888 4.594-0.888 2.685 0 4.779 0.799 6.287 2.396s2.262 4.095 2.262 7.491v15.738h-9.625v-14.297c0-1.135-0.221-1.978-0.658-2.529-0.643-0.865-1.439-1.299-2.396-1.299-1.127 0-2.035 0.41-2.726 1.229s-1.033 2.135-1.033 3.945v12.95h-9.625v-13.788c0-1.101-0.063-1.848-0.188-2.239-0.205-0.628-0.562-1.136-1.064-1.521-0.505-0.385-1.096-0.578-1.773-0.578-1.104 0-2.012 0.418-2.721 1.25-0.71 0.832-1.064 2.199-1.064 4.102v12.774h-9.627v-25.059z"/>
    <path d="m55.07 338.646c0-3.821 1.288-6.972 3.864-9.448 2.575-2.478 6.058-3.716 10.44-3.716 5.01 0 8.797 1.455 11.357 4.363 2.059 2.344 3.087 5.23 3.087 8.659 0 3.854-1.276 7.011-3.83 9.472-2.553 2.463-6.084 3.692-10.592 3.692-4.022 0-7.274-1.021-9.757-3.067-3.046-2.531-4.569-5.85-4.569-9.955zm9.625-0.02c0 2.229 0.451 3.876 1.355 4.942 0.902 1.066 2.039 1.601 3.406 1.601 1.383 0 2.518-0.525 3.405-1.577 0.888-1.051 1.332-2.736 1.332-5.06 0-2.165-0.448-3.777-1.344-4.837-0.896-1.059-2.004-1.59-3.324-1.59-1.397 0-2.554 0.539-3.465 1.612-0.91 1.077-1.365 2.713-1.365 4.909z"/>
    <path d="m88.419 326.044h8.963v4.067c1.34-1.66 2.695-2.848 4.068-3.562 1.371-0.713 3.043-1.069 5.016-1.069 2.664 0 4.75 0.791 6.256 2.373 1.506 1.58 2.26 4.022 2.26 7.326v15.927h-9.625v-13.802c0-1.574-0.294-2.688-0.882-3.344-0.588-0.652-1.413-0.98-2.478-0.98-1.176 0-2.127 0.441-2.857 1.324s-1.096 2.465-1.096 4.75v12.052h-9.625v-25.062z"/>
    <path d="m147.082 351.106h-8.986v-4.06c-1.336 1.666-2.684 2.854-4.043 3.562-1.359 0.706-3.028 1.061-5.01 1.061-2.641 0-4.711-0.79-6.211-2.371s-2.25-4.016-2.25-7.303v-15.951h9.625v13.782c0 1.574 0.291 2.69 0.873 3.352s1.4 0.991 2.457 0.991c1.147 0 2.088-0.439 2.82-1.321 0.732-0.881 1.1-2.463 1.1-4.744v-12.06h9.625v25.062z"/>
    <path d="m152.994 326.044h8.965v3.673c1.291-1.529 2.594-2.617 3.908-3.265 1.313-0.647 2.9-0.972 4.76-0.972 2 0 3.582 0.355 4.746 1.065 1.166 0.71 2.119 1.767 2.858 3.17 1.506-1.641 2.881-2.756 4.121-3.348 1.239-0.593 2.771-0.888 4.592-0.888 2.685 0 4.78 0.799 6.288 2.396s2.262 4.095 2.262 7.491v15.738h-9.625v-14.297c0-1.135-0.22-1.978-0.658-2.529-0.644-0.865-1.439-1.299-2.396-1.299-1.129 0-2.037 0.41-2.728 1.229-0.689 0.818-1.032 2.135-1.032 3.945v12.95h-9.625v-13.788c0-1.101-0.06-1.848-0.189-2.239-0.204-0.628-0.561-1.136-1.063-1.521-0.506-0.385-1.096-0.578-1.773-0.578-1.104 0-2.012 0.418-2.721 1.25-0.71 0.832-1.064 2.199-1.064 4.102v12.774h-9.625v-25.059h-0.001z"/>
    <path d="m229.056 340.98h-19.312c0.174 1.539 0.594 2.686 1.258 3.438 0.936 1.084 2.154 1.625 3.66 1.625 0.948 0 1.853-0.238 2.707-0.715 0.522-0.302 1.086-0.834 1.688-1.598l9.438 0.875c-1.447 2.52-3.195 4.326-5.242 5.421-2.047 1.094-4.981 1.642-8.807 1.642-3.322 0-5.936-0.469-7.84-1.403-1.904-0.936-3.482-2.422-4.734-4.459s-1.877-4.432-1.877-7.185c0-3.916 1.256-7.085 3.77-9.507 2.512-2.422 5.98-3.635 10.408-3.635 3.592 0 6.427 0.545 8.506 1.631 2.078 1.088 3.662 2.662 4.748 4.727 1.088 2.064 1.632 4.749 1.632 8.057l-0.003 1.086zm-9.75-4.625c-0.189-1.854-0.694-3.183-1.512-3.983-0.816-0.802-1.891-1.203-3.223-1.203-1.539 0-2.768 0.604-3.688 1.815-0.588 0.754-0.961 1.879-1.118 3.371h9.541z"/>
    <path d="m233.405 326.044h8.964v4.067c1.34-1.66 2.695-2.848 4.067-3.562 1.372-0.713 3.044-1.069 5.017-1.069 2.664 0 4.75 0.791 6.256 2.373 1.506 1.58 2.26 4.022 2.26 7.326v15.927h-9.625v-13.802c0-1.574-0.295-2.688-0.883-3.344-0.588-0.652-1.412-0.98-2.477-0.98-1.176 0-2.128 0.441-2.857 1.324-0.73 0.883-1.097 2.465-1.097 4.75v12.052h-9.625v-25.062z"/>
    <path d="m277.253 316.544v9.5h5.313v7h-5.313v8.89c0 1.068 0.103 1.775 0.307 2.121 0.312 0.535 0.861 0.803 1.646 0.803 0.707 0 1.694-0.204 2.967-0.613l0.705 6.646c-2.373 0.521-4.588 0.78-6.646 0.78-2.39 0-4.149-0.308-5.28-0.92-1.132-0.613-1.969-1.546-2.511-2.798-0.542-1.251-0.813-3.277-0.813-6.079v-8.828h-3.562v-7h3.562v-4.585l9.625-4.917z"/>
    <path d="m285.386 344.106 9.5-0.875c0.394 1.143 0.943 1.959 1.652 2.449 0.709 0.492 1.652 0.737 2.834 0.737 1.291 0 2.291-0.274 3-0.825 0.551-0.409 0.826-0.921 0.826-1.534 0-0.69-0.359-1.227-1.076-1.604-0.515-0.268-1.888-0.598-4.119-0.991-3.334-0.581-5.647-1.118-6.944-1.614-1.297-0.494-2.39-1.332-3.278-2.511s-1.332-2.522-1.332-4.03c0-1.65 0.479-3.072 1.438-4.268 0.957-1.195 2.277-2.086 3.957-2.676 1.681-0.59 3.935-0.885 6.762-0.885 2.982 0 5.186 0.229 6.607 0.684 1.42 0.455 2.605 1.162 3.557 2.119s1.738 2.252 2.367 3.885l-9.124 0.938c-0.235-0.813-0.628-1.412-1.175-1.795-0.752-0.512-1.66-0.768-2.726-0.768-1.081 0-1.868 0.193-2.36 0.578-0.494 0.386-0.739 0.854-0.739 1.402 0 0.613 0.317 1.078 0.954 1.393 0.636 0.314 2.007 0.598 4.113 0.85 3.19 0.361 5.563 0.864 7.121 1.51 1.557 0.645 2.746 1.562 3.572 2.758 0.824 1.195 1.238 2.507 1.238 3.937 0 1.446-0.438 2.854-1.311 4.222-0.873 1.366-2.248 2.456-4.127 3.265s-4.438 1.214-7.676 1.214c-4.574 0-7.834-0.655-9.775-1.968-1.94-1.313-3.186-3.179-3.736-5.597z"/>
  </g>
  <g transform="translate(29.939485)" fill="#8f0000">
    <path d="m112.344 371.772h12.349v23.862c0 2.366-0.369 4.601-1.106 6.702-0.737 2.103-1.895 3.941-3.47 5.516s-3.229 2.68-4.959 3.316c-2.404 0.893-5.291 1.338-8.66 1.338-1.949 0-4.075-0.136-6.38-0.409-2.304-0.273-4.23-0.814-5.778-1.625-1.548-0.81-2.964-1.961-4.248-3.453s-2.163-3.03-2.637-4.614c-0.765-2.548-1.147-4.805-1.147-6.771v-23.862h12.35v24.431c0 2.184 0.605 3.89 1.816 5.118s2.892 1.843 5.041 1.843c2.131 0 3.802-0.605 5.013-1.815 1.212-1.21 1.817-2.926 1.817-5.146v-24.431z"/>
    <path stroke="#8f0000" d="m131.80881 371.41541h10.52735v14.90234l15.17578-14.90234h12.22265l-19.66015 19.33203 21.68359 21.49219h-13.17969l-16.24218-16.07813v16.07813h-10.52735z"/>
  </g>
</svg>
