<?xml version="1.0" encoding="UTF-8"?>
<svg width="324.999983px" height="40.9999153px" viewBox="0 0 324.999983 40.9999153" version="1.1" xmlns="http://www.w3.org/2000/svg" xmlns:xlink="http://www.w3.org/1999/xlink"><title>Group 34</title><defs><polygon id="path-1" points="0 41 325 41 325 0 0 0"/></defs><g id="Symbols" stroke="none" stroke-width="1" fill="none" fill-rule="evenodd"><g id="Group-34" transform="translate(-0, 0)"><polygon id="Fill-1" fill="#000000" points="114.504833 15.421875 110.060667 0 106.939333 0 102.495 15.421875 98.2706667 0 95 0 100.833833 21 104.0135 21 108.499833 5.440925 112.9865 21 116.166 21 122 0 118.729333 0"/><g id="Group-33"><path d="M135.514404,17.9077157 C131.39249,17.9077157 128.163648,14.6558397 128.163648,10.5043355 C128.163648,6.35249256 131.39249,3.10061653 135.514404,3.10061653 C139.636148,3.10061653 142.86482,6.35249256 142.86482,10.5043355 C142.86482,14.6558397 139.636148,17.9077157 135.514404,17.9077157 M135.514234,3.38842975e-05 C129.629195,3.38842975e-05 125.019612,4.62049669 125.019612,10.5043355 C125.019612,16.3878355 129.629365,21.0082983 135.514404,21.0082983 C141.399443,21.0082983 146.009195,16.3878355 146.009195,10.5043355 C146.009195,4.62049669 141.399273,3.38842975e-05 135.514234,3.38842975e-05" id="Fill-2" fill="#000000"/><path d="M159.188352,9.99620661 L154.089068,9.99620661 L154.089068,3.37335124 L159.188352,3.37335124 C160.949615,3.37335124 162.382492,4.85900826 162.382492,6.68503306 C162.382492,8.51054959 160.949615,9.99620661 159.188352,9.99620661 M165.518234,6.68503306 C165.518234,3.18597107 162.678716,0.338842975 159.188352,0.338842975 L150.953326,0.338842975 L150.953326,20.6694215 L154.089068,20.6694215 L154.089068,13.0307149 L158.454224,13.0307149 L162.917219,20.6694215 L166.526242,20.6694215 L161.70287,12.4965289 C164.001568,11.5072769 165.518234,9.22313636 165.518234,6.68503306" id="Fill-4" fill="#000000"/><polygon id="Fill-6" fill="#000000" points="168.749259 3.37328347 174.623296 3.37328347 174.623296 20.6693537 177.771395 20.6693537 177.771395 3.37328347 183.645092 3.37328347 183.645092 0.338775207 168.749259 0.338775207"/><polygon id="Fill-8" fill="#000000" points="201.161069 8.71421116 191.93784 8.71421116 191.93784 0.338859917 188.762996 0.338859917 188.762996 20.6694384 191.93784 20.6694384 191.93784 11.7487194 201.161069 11.7487194 201.161069 20.6694384 204.335913 20.6694384 204.335913 0.338859917 201.161069 0.338859917"/><mask id="mask-2" fill="white"><use xlink:href="#path-1"/></mask><g id="Clip-11"/><polygon id="Fill-10" fill="#000000" mask="url(#mask-2)" points="210.951406 20.6694215 214.167552 20.6694215 214.167552 0.338842975 210.951406 0.338842975"/><polygon id="Fill-12" fill="#000000" mask="url(#mask-2)" points="233.832405 14.5114248 224.039072 0.338809091 221.434332 0.338809091 221.434332 20.6693876 224.609007 20.6693876 224.609007 6.49711074 234.402678 20.6693876 237.007249 20.6693876 237.007249 0.338809091 233.832405 0.338809091"/><path d="M252.327512,10.3511785 L252.327512,13.3856868 L259.820793,13.3856868 C259.184504,16.1863934 256.673879,17.9077157 253.164895,17.9077157 C248.815819,17.9077157 245.659257,14.794257 245.659257,10.5043355 C245.659257,6.21441405 248.815819,3.10061653 253.164895,3.10061653 C255.748983,3.10061653 258.120806,4.46784793 259.20634,6.58324463 L259.503579,7.1633438 L262.292824,5.54841818 L261.992368,5.01846777 C260.249048,1.93042231 256.86634,3.38842975e-05 253.164895,3.38842975e-05 C247.089257,3.38842975e-05 242.507264,4.5227405 242.507264,10.5043355 C242.507264,16.4861 247.089257,21.0082983 253.164895,21.0082983 C264.060689,21.0082983 263.139009,10.3511785 263.139009,10.3511785 L252.327512,10.3511785 Z" id="Fill-13" fill="#000000" mask="url(#mask-2)"/><polygon id="Fill-14" fill="#000000" mask="url(#mask-2)" points="266.148628 3.37328347 272.022664 3.37328347 272.022664 20.6693537 275.170424 20.6693537 275.170424 3.37328347 281.044461 3.37328347 281.044461 0.338775207 266.148628 0.338775207"/><path d="M293.994594,17.9077157 C289.87268,17.9077157 286.643839,14.6558397 286.643839,10.5043355 C286.643839,6.35249256 289.87268,3.10061653 293.994594,3.10061653 C298.116,3.10061653 301.344672,6.35249256 301.344672,10.5043355 C301.344672,14.6558397 298.116,17.9077157 293.994594,17.9077157 M293.994424,3.38842975e-05 C288.109385,3.38842975e-05 283.499633,4.62049669 283.499633,10.5043355 C283.499633,16.3878355 288.109555,21.0082983 293.994594,21.0082983 C299.879294,21.0082983 304.489216,16.3878355 304.489216,10.5043355 C304.489216,4.62049669 299.879294,3.38842975e-05 293.994424,3.38842975e-05" id="Fill-15" fill="#000000" mask="url(#mask-2)"/><polygon id="Fill-16" fill="#000000" mask="url(#mask-2)" points="321.825224 0.338842975 321.825224 14.5114587 312.031891 0.338842975 309.427151 0.338842975 309.427151 20.6694215 312.601995 20.6694215 312.601995 6.49714463 322.395497 20.6694215 325.000068 20.6694215 325.000068 0.338842975"/><polygon id="Fill-17" fill="#000000" mask="url(#mask-2)" points="97.5620378 36.2768 101.677858 36.2768 101.677858 34.7813165 97.5620378 34.7813165 97.5620378 32.006362 102.026556 32.006362 102.026556 30.4958 96.0025456 30.4958 96.0025456 40.6610893 102.096296 40.6610893 102.096296 39.1506967 97.5620378 39.1506967"/><polygon id="Fill-18" fill="#000000" mask="url(#mask-2)" points="112.223837 37.5843612 107.340882 30.5533694 107.301272 30.4959355 106.029033 30.4959355 106.029033 40.6612248 107.620855 40.6612248 107.620855 33.5585678 112.54359 40.6612248 113.815491 40.6612248 113.815491 30.4959355 112.223837 30.4959355"/><polygon id="Fill-19" fill="#000000" mask="url(#mask-2)" points="117.083061 32.006345 120.012462 32.006345 120.012462 40.6610723 121.587697 40.6610723 121.587697 32.006345 124.530978 32.006345 124.530978 30.4957831 117.083061 30.4957831"/><polygon id="Fill-20" fill="#000000" mask="url(#mask-2)" points="129.440983 36.2768 133.556465 36.2768 133.556465 34.7813165 129.440983 34.7813165 129.440983 32.006362 133.905332 32.006362 133.905332 30.4958 127.881322 30.4958 127.881322 40.6610893 133.975072 40.6610893 133.975072 39.1506967 129.440983 39.1506967"/><path d="M142.159113,35.4171215 L139.616158,35.4171215 L139.616158,31.9919273 L142.159113,31.9919273 C143.071822,31.9919273 143.814413,32.7572041 143.814413,33.6976628 C143.814413,34.6457455 143.071822,35.4171215 142.159113,35.4171215 M145.414868,33.6976628 C145.414868,31.9322909 143.9544,30.4959355 142.159113,30.4959355 L138.015533,30.4959355 L138.015533,40.6612248 L139.616158,40.6612248 L139.616158,36.8712661 L141.767251,36.8712661 L144.014999,40.6612248 L145.801991,40.6612248 L143.400884,36.6356008 C144.612017,36.1413983 145.414868,34.980014 145.414868,33.6976628" id="Fill-21" fill="#000000" mask="url(#mask-2)"/><path d="M153.195555,35.6293897 L151.034474,35.6293897 L151.034474,31.9919103 L153.195555,31.9919103 C154.224721,31.9919103 154.971544,32.7565095 154.971544,33.81065 C154.971544,34.8647905 154.224721,35.6293897 153.195555,35.6293897 M153.195555,30.4959186 L149.441128,30.4959186 L149.441128,40.6612079 L151.034474,40.6612079 L151.034474,37.1255508 L153.195555,37.1255508 C155.108484,37.1255508 156.550503,35.7003773 156.550503,33.81065 C156.550503,31.9209227 155.108484,30.4959186 153.195555,30.4959186" id="Fill-22" fill="#000000" mask="url(#mask-2)"/><path d="M163.995711,35.4171215 L161.452755,35.4171215 L161.452755,31.9919273 L163.995711,31.9919273 C164.90825,31.9919273 165.650841,32.7572041 165.650841,33.6976628 C165.650841,34.6457455 164.90825,35.4171215 163.995711,35.4171215 M167.251466,33.6976628 C167.251466,31.9322909 165.790659,30.4959355 163.995711,30.4959355 L159.85213,30.4959355 L159.85213,40.6612248 L161.452755,40.6612248 L161.452755,36.8712661 L163.60368,36.8712661 L165.851766,40.6612248 L167.638589,40.6612248 L165.237313,36.6356008 C166.448276,36.1413983 167.251466,34.980014 167.251466,33.6976628" id="Fill-23" fill="#000000" mask="url(#mask-2)"/><polygon id="Fill-24" fill="#000000" mask="url(#mask-2)" points="171.082878 40.661157 172.775586 40.661157 172.775586 30.4958678 171.082878 30.4958678"/><path d="M180.169251,34.7807066 L180.103236,34.7588512 C178.706074,34.3159835 178.12209,34.0000124 178.12209,33.1886529 C178.12209,32.375938 178.773275,31.8503926 179.781283,31.8503926 C181.037949,31.8503926 181.628535,32.6366777 181.902585,33.2962355 L181.960475,33.4355 L183.294668,32.6642934 L183.246426,32.5548471 C182.62554,31.1505124 181.330111,30.3264463 179.781283,30.3264463 C178.172871,30.3264463 176.544824,31.319595 176.544824,33.2452397 C176.544824,35.1842686 178.169655,35.7076116 179.742012,36.2140124 C181.261048,36.6875455 181.976725,37.0082603 181.976725,37.8978926 C181.976725,38.7837975 181.264264,39.2922314 180.021139,39.2922314 C178.738743,39.2922314 177.869876,38.702814 177.508652,37.5881901 L177.45821,37.4326612 L176.092194,38.2192851 L176.128926,38.3238182 C176.684134,39.9023182 178.128861,40.8305785 179.99304,40.8305785 C182.11485,40.8305785 183.540111,39.6490331 183.540111,37.869938 C183.540111,35.8882149 181.902754,35.3501322 180.169251,34.7807066" id="Fill-25" fill="#000000" mask="url(#mask-2)"/><polygon id="Fill-26" fill="#000000" mask="url(#mask-2)" points="188.964733 36.2768 193.080215 36.2768 193.080215 34.7813165 188.964733 34.7813165 188.964733 32.006362 193.429082 32.006362 193.429082 30.4958 187.405241 30.4958 187.405241 40.6610893 193.498991 40.6610893 193.498991 39.1506967 188.964733 39.1506967"/><path d="M200.96551,34.7807066 L200.898987,34.7588512 C199.501826,34.3159835 198.917841,34.0000124 198.917841,33.1886529 C198.917841,32.375938 199.569026,31.8503926 200.577034,31.8503926 C201.833701,31.8503926 202.424117,32.6366777 202.697997,33.2962355 L202.756057,33.4355 L204.090419,32.6642934 L204.042177,32.5548471 C203.421461,31.1505124 202.125862,30.3264463 200.577034,30.3264463 C198.968792,30.3264463 197.340576,31.319595 197.340576,33.2452397 C197.340576,35.1842686 198.965406,35.7076116 200.537763,36.2140124 C202.056799,36.6875455 202.772477,37.0082603 202.772477,37.8978926 C202.772477,38.7837975 202.059846,39.2922314 200.81706,39.2922314 C199.534495,39.2922314 198.665628,38.702814 198.304573,37.5881901 L198.253961,37.4326612 L196.887945,38.2192851 L196.924508,38.3238182 C197.479885,39.9023182 198.924443,40.8305785 200.788792,40.8305785 C202.910432,40.8305785 204.335862,39.6490331 204.335862,37.869938 C204.335862,35.8882149 202.698844,35.3501322 200.96551,34.7807066" id="Fill-27" fill="#000000" mask="url(#mask-2)"/><path d="M54.1666667,0.338842975 L55.2491536,2.21704959 C58.436862,2.22145455 61.5358724,3.87195868 63.2444922,6.83564876 C64.9527734,9.80018595 64.8300521,13.3133099 63.2402604,16.0806405 L64.3229167,17.9586777 L74.4791667,0.338842975 L54.1666667,0.338842975 Z" id="Fill-28" fill="#000000" mask="url(#mask-2)"/><polygon id="Fill-29" fill="#000000" mask="url(#mask-2)" points="58.8401667 27.4638161 43.205974 0.338758264 27.6014036 0.338758264 51.0374583 40.9999153"/><polygon id="Fill-30" fill="#000000" mask="url(#mask-2)" points="31.2387799 27.4638161 15.6045872 0.338758264 1.69270833e-05 0.338758264 23.4360716 40.9999153"/><polygon id="Fill-31" fill="#000000" mask="url(#mask-2)" points="57.8431276 38.6309793 57.8431276 40.661157 57.4365391 40.661157 57.4365391 38.6309793 56.9781536 38.6309793 56.9781536 38.2892562 58.3013438 38.2892562 58.3013438 38.6309793"/><polygon id="Fill-32" fill="#000000" mask="url(#mask-2)" points="60.2989258 40.661157 60.3058659 38.8386901 60.2955404 38.8386901 59.8063477 40.661157 59.482194 40.661157 59.0031576 38.8386901 58.992832 38.8386901 58.9997721 40.661157 58.6241602 40.661157 58.6241602 38.2892562 59.1790299 38.2892562 59.6475716 40.0246405 59.6614518 40.0246405 60.119668 38.2892562 60.7021289 38.2892562 60.7021289 40.661157"/></g></g></g></svg>