<?xml version="1.0" standalone="no"?>
<!DOCTYPE svg PUBLIC "-//W3C//DTD SVG 1.1//EN" "http://www.w3.org/Graphics/SVG/1.1/DTD/svg11.dtd" >
<svg xmlns="http://www.w3.org/2000/svg" xmlns:xlink="http://www.w3.org/1999/xlink" version="1.1" viewBox="-10 0 610 1000">
   <path fill="currentColor"
d="M574 806c-32 -3 -64 -4 -96 -4s-104 3 -113 4v-36c4 0 27 -1 27 -21c0 -6 0 -8 -19 -29l-87 -99l-70 77c-16 17 -27 30 -27 49c0 14 8 21 20 23v36c-30 -3 -70 -4 -100 -4c-31 0 -53 2 -83 4v-36c80 -2 114 -39 151 -79c10 -11 85 -93 85 -96l-8 -10l-125 -144
c-26 -30 -52 -30 -98 -30v-36c29 3 67 4 97 4c37 0 75 -1 112 -4v36c-13 0 -27 6 -27 21c0 4 1 9 11 20l83 95l70 -79c15 -17 15 -34 15 -34c0 -9 -3 -20 -20 -23v-36c30 3 69 4 99 4c27 0 56 -2 84 -4v36c-79 1 -114 39 -149 78c-9 9 -75 80 -75 83l8 10l137 156
c23 26 31 32 98 32v36z" />
</svg>
