<?xml version="1.0" encoding="UTF-8" standalone="no"?>
<svg
   xmlns:dc="http://purl.org/dc/elements/1.1/"
   xmlns:cc="http://creativecommons.org/ns#"
   xmlns:rdf="http://www.w3.org/1999/02/22-rdf-syntax-ns#"
   xmlns:svg="http://www.w3.org/2000/svg"
   xmlns="http://www.w3.org/2000/svg"
   viewBox="73.21 113.28 291.64861 87.07723"
   preserveAspectRatio="xMidYMid"
   width="291.64862"
   height="87.077232"
   version="1.1"
   id="svg326">
  <metadata
     id="metadata332">
    <rdf:RDF>
      <cc:Work
         rdf:about="">
        <dc:format>image/svg+xml</dc:format>
        <dc:type
           rdf:resource="http://purl.org/dc/dcmitype/StillImage" />
        <dc:title></dc:title>
      </cc:Work>
    </rdf:RDF>
  </metadata>
  <defs
     id="defs330" />
  <clipPath
     id="2799">
    <rect
       x="0.30000001"
       y="0.30000001"
       width="522.59998"
       height="769.20001"
       id="rect10" />
  </clipPath>
  <g
     id="g804"
     transform="translate(1.2492151,0.82515839)">
    <g
       id="Solid">
      <path
         d="m 109.53,157.64 v 0 l 0.3,0.17 0.3,0.17 v 14.06 l -0.3,0.17 -0.3,-0.17 z"
         stroke="#000000"
         stroke-width="0"
         fill-rule="evenodd"
         stroke-linejoin="miter"
         fill="#000000"
         shape-rendering="geometricPrecision"
         id="path15" />
      <line
         x1="112.42"
         y1="159.31"
         x2="112.42"
         y2="170.71001"
         stroke="#000000"
         stroke-width="0.6"
         shape-rendering="auto"
         id="line17" />
    </g>
    <g
       id="g22">
      <path
         d="m 109.83,172.56 v 0 -0.35 l 0.3,-0.17 12.17,7.02 v 0.35 0.35 z"
         stroke="#000000"
         stroke-width="0"
         fill-rule="evenodd"
         stroke-linejoin="miter"
         fill="#000000"
         shape-rendering="geometricPrecision"
         id="path20" />
    </g>
    <g
       id="g28">
      <path
         d="m 122.3,179.76 v 0 -0.35 -0.35 l 12.17,-7.02 0.3,0.17 v 0.35 z"
         stroke="#000000"
         stroke-width="0"
         fill-rule="evenodd"
         stroke-linejoin="miter"
         fill="#000000"
         shape-rendering="geometricPrecision"
         id="path24" />
      <line
         x1="122.3"
         y1="176.42"
         x2="132.17999"
         y2="170.71001"
         stroke="#000000"
         stroke-width="0.6"
         shape-rendering="auto"
         id="line26" />
    </g>
    <g
       id="g32">
      <path
         d="m 135.07,172.04 v 0 l -0.3,0.17 -0.3,-0.17 v -14.06 l 0.3,-0.17 0.3,0.17 z"
         stroke="#000000"
         stroke-width="0"
         fill-rule="evenodd"
         stroke-linejoin="miter"
         fill="#000000"
         shape-rendering="geometricPrecision"
         id="path30" />
    </g>
    <g
       id="g38">
      <path
         d="m 134.77,157.46 v 0 0.35 l -0.3,0.17 -12.17,-7.02 v -0.35 -0.35 z"
         stroke="#000000"
         stroke-width="0"
         fill-rule="evenodd"
         stroke-linejoin="miter"
         fill="#000000"
         shape-rendering="geometricPrecision"
         id="path34" />
      <line
         x1="132.17999"
         y1="159.31"
         x2="122.3"
         y2="153.60001"
         stroke="#000000"
         stroke-width="0.6"
         shape-rendering="auto"
         id="line36" />
    </g>
    <g
       id="g42">
      <path
         d="m 122.3,150.26 v 0 0.35 0.35 l -12.17,7.02 -0.3,-0.17 -0.3,-0.17 z"
         stroke="#000000"
         stroke-width="0"
         fill-rule="evenodd"
         stroke-linejoin="miter"
         fill="#000000"
         shape-rendering="geometricPrecision"
         id="path40" />
    </g>
    <g
       id="g46">
      <path
         d="m 134.77,172.56 v 0 -0.35 l 0.3,-0.17 12.18,7.02 v 0.35 0.35 z"
         stroke="#000000"
         stroke-width="0"
         fill-rule="evenodd"
         stroke-linejoin="miter"
         fill="#000000"
         shape-rendering="geometricPrecision"
         id="path44" />
    </g>
    <g
       id="g50">
      <path
         d="m 147.25,179.76 v 0 -0.35 -0.35 l 12.17,-7.02 0.3,0.17 0.3,0.17 z"
         stroke="#000000"
         stroke-width="0"
         fill-rule="evenodd"
         stroke-linejoin="miter"
         fill="#000000"
         shape-rendering="geometricPrecision"
         id="path48" />
    </g>
    <g
       id="g54">
      <path
         d="m 160.02,172.38 v 0 l -0.3,-0.17 -0.3,-0.17 v -14.06 l 0.3,-0.17 0.3,0.17 z"
         stroke="#000000"
         stroke-width="0"
         fill-rule="evenodd"
         stroke-linejoin="miter"
         fill="#000000"
         shape-rendering="geometricPrecision"
         id="path52" />
    </g>
    <g
       id="g58">
      <path
         d="m 159.37,157.26 v 0 l 0.35,0.55 -0.3,0.17 -12.17,-7.02 v -0.35 l 0.3,-0.17 z"
         stroke="#000000"
         stroke-width="0"
         fill-rule="evenodd"
         stroke-linejoin="miter"
         fill="#000000"
         shape-rendering="geometricPrecision"
         id="path56" />
    </g>
    <g
       id="g62">
      <path
         d="m 146.95,150.44 v 0 l 0.3,0.17 v 0.35 l -12.18,7.02 -0.3,-0.17 v -0.35 z"
         stroke="#000000"
         stroke-width="0"
         fill-rule="evenodd"
         stroke-linejoin="miter"
         fill="#000000"
         shape-rendering="geometricPrecision"
         id="path60" />
    </g>
    <g
       id="g66">
      <path
         d="m 160.02,157.98 v 0 l -0.3,-0.17 0.35,-0.55 11.82,-6.82 0.3,0.17 0.03,0.33 z"
         stroke="#000000"
         stroke-width="0"
         fill-rule="evenodd"
         stroke-linejoin="miter"
         fill="#000000"
         shape-rendering="geometricPrecision"
         id="path64" />
    </g>
    <g
       id="g70">
      <path
         d="m 172.49,150.39 v 0 l -0.3,0.22 -0.3,-0.17 v -14.06 l 0.3,-0.17 0.3,0.22 z"
         stroke="#000000"
         stroke-width="0"
         fill-rule="evenodd"
         stroke-linejoin="miter"
         fill="#000000"
         shape-rendering="geometricPrecision"
         id="path68" />
    </g>
    <g
       id="g74">
      <path
         d="m 171.9,135.7 v 0 l 0.29,0.51 -0.3,0.17 -12.17,-7.02 v -0.35 -0.35 z"
         stroke="#000000"
         stroke-width="0"
         fill-rule="evenodd"
         stroke-linejoin="miter"
         fill="#000000"
         shape-rendering="geometricPrecision"
         id="path72" />
    </g>
    <g
       id="g78">
      <path
         d="m 159.72,128.66 v 0 0.35 0.35 l -12.17,7.02 -0.3,-0.17 -0.3,-0.17 z"
         stroke="#000000"
         stroke-width="0"
         fill-rule="evenodd"
         stroke-linejoin="miter"
         fill="#000000"
         shape-rendering="geometricPrecision"
         id="path76" />
    </g>
    <g
       id="g82">
      <path
         d="m 146.95,136.04 v 0 l 0.3,0.17 0.3,0.17 v 14.06 l -0.3,0.17 -0.3,-0.17 z"
         stroke="#000000"
         stroke-width="0"
         fill-rule="evenodd"
         stroke-linejoin="miter"
         fill="#000000"
         shape-rendering="geometricPrecision"
         id="path80" />
    </g>
    <g
       id="g86">
      <path
         d="m 172.22,150.94 v 0 l -0.03,-0.33 0.3,-0.22 13.28,4.32 0.11,0.35 0.11,0.35 z"
         stroke="#000000"
         stroke-width="0"
         fill-rule="evenodd"
         stroke-linejoin="miter"
         fill="#000000"
         shape-rendering="geometricPrecision"
         id="path84" />
    </g>
    <g
       id="g90">
      <path
         d="m 185.99,155.41 v 0 l -0.11,-0.35 -0.11,-0.35 8.21,-11.3 h 0.37 0.37 z"
         stroke="#000000"
         stroke-width="0"
         fill-rule="evenodd"
         stroke-linejoin="miter"
         fill="#000000"
         shape-rendering="geometricPrecision"
         id="path88" />
    </g>
    <g
       id="g94">
      <path
         d="m 194.72,143.41 v 0 h -0.37 -0.37 l -8.21,-11.3 0.11,-0.35 0.34,-0.04 z"
         stroke="#000000"
         stroke-width="0"
         fill-rule="evenodd"
         stroke-linejoin="miter"
         fill="#000000"
         shape-rendering="geometricPrecision"
         id="path92" />
    </g>
    <g
       id="g98">
      <path
         d="m 185.63,131.53 v 0 l 0.25,0.23 -0.11,0.35 -13.28,4.32 -0.3,-0.22 0.39,-0.44 z"
         stroke="#000000"
         stroke-width="0"
         fill-rule="evenodd"
         stroke-linejoin="miter"
         fill="#000000"
         shape-rendering="geometricPrecision"
         id="path96" />
    </g>
    <g
       id="g104">
      <text
         xml:space="preserve"
         text-anchor="start"
         text-rendering="geometricPrecision"
         id="text102"><tspan
           x="186.41"
           y="121.74"
           font-family="Arial"
           font-size="10px"
           fill="#000000"
           id="tspan100">OH</tspan></text>
    </g>
    <g
       id="WedgeBegin">
      <path
         d="m 186.22,131.72 v 0 l -0.34,0.04 -0.25,-0.23 1.54,-8.57 1.42,0.46 1.43,0.47 z"
         stroke="#000000"
         stroke-width="0"
         fill-rule="evenodd"
         stroke-linejoin="miter"
         fill="#000000"
         shape-rendering="geometricPrecision"
         id="path106" />
    </g>
    <g
       id="g113">
      <text
         xml:space="preserve"
         text-anchor="start"
         text-rendering="geometricPrecision"
         id="text111"><tspan
           x="93.889999"
           y="182.96001"
           font-family="Arial"
           font-size="10px"
           fill="#000000"
           id="tspan109">B</tspan></text>
    </g>
    <g
       id="g117">
      <path
         d="m 109.53,172.04 v 0 l 0.3,0.17 v 0.35 l -8.59,4.97 -0.15,-0.26 -0.15,-0.26 z"
         stroke="#000000"
         stroke-width="0"
         fill-rule="evenodd"
         stroke-linejoin="miter"
         fill="#000000"
         shape-rendering="geometricPrecision"
         id="path115" />
    </g>
    <g
       id="g123">
      <text
         xml:space="preserve"
         text-anchor="end"
         text-rendering="geometricPrecision"
         id="text121"><tspan
           x="88.160004"
           y="177.14999"
           font-family="Arial"
           font-size="10px"
           fill="#000000"
           id="tspan119">HO</tspan></text>
    </g>
    <g
       id="g129">
      <text
         xml:space="preserve"
         text-anchor="start"
         text-rendering="geometricPrecision"
         id="text127"><tspan
           x="93.309998"
           y="197.41"
           font-family="Arial"
           font-size="10px"
           fill="#000000"
           id="tspan125">OH</tspan></text>
    </g>
    <g
       id="g133">
      <path
         d="m 93.36,177.26 v 0 l -0.12,0.27 -0.12,0.28 -4.18,-1.86 0.12,-0.28 0.12,-0.27 z"
         stroke="#000000"
         stroke-width="0"
         fill-rule="evenodd"
         stroke-linejoin="miter"
         fill="#000000"
         shape-rendering="geometricPrecision"
         id="path131" />
    </g>
    <g
       id="g137">
      <path
         d="m 97.58,188.6 v 0 h -0.3 -0.3 l 0.06,-4 h 0.3 0.3 z"
         stroke="#000000"
         stroke-width="0"
         fill-rule="evenodd"
         stroke-linejoin="miter"
         fill="#000000"
         shape-rendering="geometricPrecision"
         id="path135" />
    </g>
    <g
       id="Wedged Hash Begin Bond">
      <path
         d="m 159.57,172.47 v 0 l 0.3,-0.52 0.54,0.26 -0.35,0.6 z"
         stroke="#000000"
         stroke-width="0"
         fill-rule="evenodd"
         stroke-linejoin="miter"
         fill="#000000"
         shape-rendering="geometricPrecision"
         id="path139" />
      <path
         d="m 161.85,174.05 v 0 l 0.53,-0.92 0.54,0.26 -0.58,1 z"
         stroke="#000000"
         stroke-width="0"
         fill-rule="evenodd"
         stroke-linejoin="miter"
         fill="#000000"
         shape-rendering="geometricPrecision"
         id="path141" />
      <path
         d="m 164.12,175.63 v 0 l 0.76,-1.32 0.54,0.26 -0.81,1.4 z"
         stroke="#000000"
         stroke-width="0"
         fill-rule="evenodd"
         stroke-linejoin="miter"
         fill="#000000"
         shape-rendering="geometricPrecision"
         id="path143" />
      <path
         d="m 166.4,177.21 v 0 l 0.99,-1.72 0.54,0.26 -1.04,1.8 z"
         stroke="#000000"
         stroke-width="0"
         fill-rule="evenodd"
         stroke-linejoin="miter"
         fill="#000000"
         shape-rendering="geometricPrecision"
         id="path145" />
      <path
         d="m 168.67,178.79 v 0 l 1.22,-2.12 0.54,0.26 -1.27,2.2 z"
         stroke="#000000"
         stroke-width="0"
         fill-rule="evenodd"
         stroke-linejoin="miter"
         fill="#000000"
         shape-rendering="geometricPrecision"
         id="path147" />
      <path
         d="m 170.95,180.37 v 0 l 1.45,-2.52 0.54,0.26 -1.5,2.6 z"
         stroke="#000000"
         stroke-width="0"
         fill-rule="evenodd"
         stroke-linejoin="miter"
         fill="#000000"
         shape-rendering="geometricPrecision"
         id="path149" />
    </g>
    <g
       id="g154">
      <path
         d="m 172.34,179.67 v 0 l -0.15,-0.26 -0.15,-0.26 12.62,-7.29 v 0.35 0.35 z"
         stroke="#000000"
         stroke-width="0"
         fill-rule="evenodd"
         stroke-linejoin="miter"
         fill="#000000"
         shape-rendering="geometricPrecision"
         id="path152" />
    </g>
    <g
       id="g158">
      <path
         d="m 184.66,172.56 v 0 -0.35 -0.35 l 12.47,7.2 v 0.35 0.35 z"
         stroke="#000000"
         stroke-width="0"
         fill-rule="evenodd"
         stroke-linejoin="miter"
         fill="#000000"
         shape-rendering="geometricPrecision"
         id="path156" />
    </g>
    <g
       id="g162">
      <path
         d="m 197.13,179.76 v 0 -0.35 -0.35 l 12.47,-7.2 v 0.35 0.35 z"
         stroke="#000000"
         stroke-width="0"
         fill-rule="evenodd"
         stroke-linejoin="miter"
         fill="#000000"
         shape-rendering="geometricPrecision"
         id="path160" />
    </g>
    <g
       id="g166">
      <path
         d="m 209.6,172.56 v 0 -0.35 -0.35 l 12.47,7.2 v 0.35 0.35 z"
         stroke="#000000"
         stroke-width="0"
         fill-rule="evenodd"
         stroke-linejoin="miter"
         fill="#000000"
         shape-rendering="geometricPrecision"
         id="path164" />
    </g>
    <g
       id="g170">
      <path
         d="m 222.07,179.76 v 0 -0.35 -0.35 l 12.47,-7.2 v 0.35 0.35 z"
         stroke="#000000"
         stroke-width="0"
         fill-rule="evenodd"
         stroke-linejoin="miter"
         fill="#000000"
         shape-rendering="geometricPrecision"
         id="path168" />
    </g>
    <g
       id="g174">
      <path
         d="m 234.54,172.56 v 0 -0.35 -0.35 l 12.47,7.2 v 0.35 0.35 z"
         stroke="#000000"
         stroke-width="0"
         fill-rule="evenodd"
         stroke-linejoin="miter"
         fill="#000000"
         shape-rendering="geometricPrecision"
         id="path172" />
    </g>
    <g
       id="g178">
      <path
         d="m 247.01,179.76 v 0 -0.35 -0.35 l 12.47,-7.2 v 0.35 0.35 z"
         stroke="#000000"
         stroke-width="0"
         fill-rule="evenodd"
         stroke-linejoin="miter"
         fill="#000000"
         shape-rendering="geometricPrecision"
         id="path176" />
    </g>
    <g
       id="g182">
      <path
         d="m 259.48,172.56 v 0 -0.35 -0.35 l 12.47,7.2 v 0.35 0.35 z"
         stroke="#000000"
         stroke-width="0"
         fill-rule="evenodd"
         stroke-linejoin="miter"
         fill="#000000"
         shape-rendering="geometricPrecision"
         id="path180" />
    </g>
    <g
       id="g188">
      <text
         xml:space="preserve"
         text-anchor="start"
         text-rendering="geometricPrecision"
         id="text186"><tspan
           x="281.06"
           y="175.84"
           font-family="Arial"
           font-size="10px"
           fill="#000000"
           id="tspan184">S</tspan></text>
    </g>
    <g
       id="g192">
      <path
         d="m 271.95,179.76 v 0 -0.35 -0.35 l 8.11,-4.68 0.15,0.26 0.15,0.26 z"
         stroke="#000000"
         stroke-width="0"
         fill-rule="evenodd"
         stroke-linejoin="miter"
         fill="#000000"
         shape-rendering="geometricPrecision"
         id="path190" />
    </g>
    <g
       id="g198">
      <text
         xml:space="preserve"
         text-anchor="start"
         text-rendering="geometricPrecision"
         id="text196"><tspan
           x="280.51999"
           y="161.44"
           font-family="Arial"
           font-size="10px"
           fill="#000000"
           id="tspan194">O</tspan></text>
    </g>
    <g
       id="g206">
      <line
         x1="283.12"
         y1="167"
         x2="283.12"
         y2="163.2"
         stroke="#000000"
         stroke-width="0.6"
         shape-rendering="auto"
         id="line200" />
      <path
         d="m 285.42,167 v 0 h 0.6 v -3.8 h -0.6 z"
         stroke="#000000"
         stroke-width="0"
         fill-rule="evenodd"
         stroke-linejoin="miter"
         fill="#000000"
         shape-rendering="geometricPrecision"
         id="path202" />
      <path
         d="m 282.82,167 v 0 h 0.6 v -3.8 h -0.6 z"
         stroke="#000000"
         stroke-width="0"
         fill-rule="evenodd"
         stroke-linejoin="miter"
         fill="#000000"
         shape-rendering="geometricPrecision"
         id="path204" />
    </g>
    <g
       id="g210">
      <path
         d="m 288.54,174.93 v 0 l 0.15,-0.26 0.15,-0.26 8.01,4.63 v 0.35 0.35 z"
         stroke="#000000"
         stroke-width="0"
         fill-rule="evenodd"
         stroke-linejoin="miter"
         fill="#000000"
         shape-rendering="geometricPrecision"
         id="path208" />
    </g>
    <g
       id="g214">
      <path
         d="m 296.85,179.74 v 0 -0.35 -0.35 l 12.43,-7.18 v 0.35 0.35 z"
         stroke="#000000"
         stroke-width="0"
         fill-rule="evenodd"
         stroke-linejoin="miter"
         fill="#000000"
         shape-rendering="geometricPrecision"
         id="path212" />
    </g>
    <g
       id="g218">
      <path
         d="m 309.28,172.56 v 0 -0.35 -0.35 l 12.47,7.2 v 0.35 0.35 z"
         stroke="#000000"
         stroke-width="0"
         fill-rule="evenodd"
         stroke-linejoin="miter"
         fill="#000000"
         shape-rendering="geometricPrecision"
         id="path216" />
    </g>
    <g
       id="g222">
      <path
         d="m 321.75,179.76 v 0 -0.35 -0.35 l 12.06,-6.96 0.41,0.11 v 0.35 z"
         stroke="#000000"
         stroke-width="0"
         fill-rule="evenodd"
         stroke-linejoin="miter"
         fill="#000000"
         shape-rendering="geometricPrecision"
         id="path220" />
    </g>
    <g
       id="g226">
      <path
         d="m 334.22,172.56 v 0 -0.35 l 0.41,-0.11 12.06,6.96 v 0.35 l -0.3,0.17 z"
         stroke="#000000"
         stroke-width="0"
         fill-rule="evenodd"
         stroke-linejoin="miter"
         fill="#000000"
         shape-rendering="geometricPrecision"
         id="path224" />
    </g>
    <g
       id="g232">
      <text
         xml:space="preserve"
         text-anchor="start"
         text-rendering="geometricPrecision"
         id="text230"><tspan
           x="343.48999"
           y="197.34"
           font-family="Arial"
           font-size="10px"
           fill="#000000"
           id="tspan228">F</tspan></text>
    </g>
    <g
       id="g236">
      <path
         d="m 346.39,179.58 v 0 l 0.3,-0.17 0.3,0.52 v 8.67 h -0.3 -0.3 z"
         stroke="#000000"
         stroke-width="0"
         fill-rule="evenodd"
         stroke-linejoin="miter"
         fill="#000000"
         shape-rendering="geometricPrecision"
         id="path234" />
    </g>
    <g
       id="g242">
      <text
         xml:space="preserve"
         text-anchor="start"
         text-rendering="geometricPrecision"
         id="text240"><tspan
           x="355.92001"
           y="175.81"
           font-family="Arial"
           font-size="10px"
           fill="#000000"
           id="tspan238">F</tspan></text>
    </g>
    <g
       id="g246">
      <path
         d="m 347.29,179.41 v 0 h -0.6 v -0.35 l 8.57,-4.94 0.15,0.26 0.15,0.26 z"
         stroke="#000000"
         stroke-width="0"
         fill-rule="evenodd"
         stroke-linejoin="miter"
         fill="#000000"
         shape-rendering="geometricPrecision"
         id="path244" />
    </g>
    <g
       id="g252">
      <text
         xml:space="preserve"
         text-anchor="start"
         text-rendering="geometricPrecision"
         id="text250"><tspan
           x="355.95999"
           y="190.19"
           font-family="Arial"
           font-size="10px"
           fill="#000000"
           id="tspan248">F</tspan></text>
    </g>
    <g
       id="g256">
      <path
         d="m 346.99,179.93 v 0 l -0.3,-0.52 h 0.6 l 8.27,4.78 -0.15,0.26 -0.15,0.26 z"
         stroke="#000000"
         stroke-width="0"
         fill-rule="evenodd"
         stroke-linejoin="miter"
         fill="#000000"
         shape-rendering="geometricPrecision"
         id="path254" />
    </g>
    <g
       id="g262">
      <text
         xml:space="preserve"
         text-anchor="start"
         text-rendering="geometricPrecision"
         id="text260"><tspan
           x="338.22"
           y="163.32001"
           font-family="Arial"
           font-size="10px"
           fill="#000000"
           id="tspan258">F</tspan></text>
    </g>
    <g
       id="g266">
      <path
         d="m 334.63,172.1 v 0 l -0.41,0.11 v -0.6 l 4.03,-6.97 0.26,0.15 0.26,0.15 z"
         stroke="#000000"
         stroke-width="0"
         fill-rule="evenodd"
         stroke-linejoin="miter"
         fill="#000000"
         shape-rendering="geometricPrecision"
         id="path264" />
    </g>
    <g
       id="g272">
      <text
         xml:space="preserve"
         text-anchor="start"
         text-rendering="geometricPrecision"
         id="text270"><tspan
           x="323.82001"
           y="163.32001"
           font-family="Arial"
           font-size="10px"
           fill="#000000"
           id="tspan268">F</tspan></text>
    </g>
    <g
       id="g276">
      <path
         d="m 334.22,171.61 v 0 0.6 l -0.41,-0.11 -4.14,-7.16 0.26,-0.15 0.26,-0.15 z"
         stroke="#000000"
         stroke-width="0"
         fill-rule="evenodd"
         stroke-linejoin="miter"
         fill="#000000"
         shape-rendering="geometricPrecision"
         id="path274" />
    </g>
    <g
       id="g280">
      <path
         d="m 172.58,135.77 v 0 l -0.39,0.44 -0.29,-0.51 0.3,-13.92 1.49,0.16 1.49,0.16 z"
         stroke="#000000"
         stroke-width="0"
         fill-rule="evenodd"
         stroke-linejoin="miter"
         fill="#000000"
         shape-rendering="geometricPrecision"
         id="path278" />
    </g>
    <g
       id="g286">
      <text
         xml:space="preserve"
         text-anchor="start"
         text-rendering="geometricPrecision"
         id="text284"><tspan
           x="156.12"
           y="147.03999"
           font-family="Arial"
           font-size="10px"
           fill="#000000"
           id="tspan282">H</tspan></text>
    </g>
    <g
       id="g290">
      <path
         d="m 160.07,157.26 v 0 l -0.35,0.55 -0.35,-0.55 -1.15,-8.56 h 1.5 1.5 z"
         stroke="#000000"
         stroke-width="0"
         fill-rule="evenodd"
         stroke-linejoin="miter"
         fill="#000000"
         shape-rendering="geometricPrecision"
         id="path288" />
    </g>
    <g
       id="g296">
      <text
         xml:space="preserve"
         text-anchor="start"
         text-rendering="geometricPrecision"
         id="text294"><tspan
           x="170.09"
           y="168.46001"
           font-family="Arial"
           font-size="10px"
           fill="#000000"
           id="tspan292">H</tspan></text>
    </g>
    <g
       id="g306">
      <path
         d="m 171.89,150.64 v 0 l 0.6,-0.06 0.14,0.59 -0.75,0.08 z"
         stroke="#000000"
         stroke-width="0"
         fill-rule="evenodd"
         stroke-linejoin="miter"
         fill="#000000"
         shape-rendering="geometricPrecision"
         id="path298" />
      <path
         d="m 171.82,153.51 v 0 l 1.34,-0.14 0.14,0.59 -1.5,0.16 z"
         stroke="#000000"
         stroke-width="0"
         fill-rule="evenodd"
         stroke-linejoin="miter"
         fill="#000000"
         shape-rendering="geometricPrecision"
         id="path300" />
      <path
         d="m 171.74,156.39 v 0 l 2.09,-0.22 0.14,0.59 -2.24,0.23 z"
         stroke="#000000"
         stroke-width="0"
         fill-rule="evenodd"
         stroke-linejoin="miter"
         fill="#000000"
         shape-rendering="geometricPrecision"
         id="path302" />
      <path
         d="m 171.67,159.26 v 0 l 2.83,-0.3 0.14,0.59 -2.99,0.32 z"
         stroke="#000000"
         stroke-width="0"
         fill-rule="evenodd"
         stroke-linejoin="miter"
         fill="#000000"
         shape-rendering="geometricPrecision"
         id="path304" />
    </g>
    <g
       id="g312">
      <text
         xml:space="preserve"
         text-anchor="start"
         text-rendering="geometricPrecision"
         id="text310"><tspan
           x="143.64999"
           y="168.59"
           font-family="Arial"
           font-size="10px"
           fill="#000000"
           id="tspan308">H</tspan></text>
    </g>
    <g
       id="g322">
      <path
         d="m 146.95,150.61 v 0 h 0.6 l 0.08,0.6 h -0.76 z"
         stroke="#000000"
         stroke-width="0"
         fill-rule="evenodd"
         stroke-linejoin="miter"
         fill="#000000"
         shape-rendering="geometricPrecision"
         id="path314" />
      <path
         d="m 146.58,153.51 v 0 h 1.34 l 0.08,0.6 h -1.5 z"
         stroke="#000000"
         stroke-width="0"
         fill-rule="evenodd"
         stroke-linejoin="miter"
         fill="#000000"
         shape-rendering="geometricPrecision"
         id="path316" />
      <path
         d="m 146.2,156.4 v 0 h 2.1 l 0.08,0.6 h -2.26 z"
         stroke="#000000"
         stroke-width="0"
         fill-rule="evenodd"
         stroke-linejoin="miter"
         fill="#000000"
         shape-rendering="geometricPrecision"
         id="path318" />
      <path
         d="m 145.83,159.3 v 0 h 2.84 l 0.08,0.6 h -3 z"
         stroke="#000000"
         stroke-width="0"
         fill-rule="evenodd"
         stroke-linejoin="miter"
         fill="#000000"
         shape-rendering="geometricPrecision"
         id="path320" />
    </g>
  </g>
</svg>
